<?xml version="1.0" encoding="utf-8"?>
<svg xmlns="http://www.w3.org/2000/svg" viewBox="0 0 32 32" fill="#000000"><path style="text-indent:0;text-align:start;line-height:normal;text-transform:none;block-progression:tb;-inkscape-font-specification:Bitstream Vera Sans" d="M 16 4 C 9.3844277 4 4 9.3844277 4 16 C 4 22.615572 9.3844277 28 16 28 C 22.615572 28 28 22.615572 28 16 C 28 9.3844277 22.615572 4 16 4 z M 16 6 C 21.534692 6 26 10.465308 26 16 C 26 21.534692 21.534692 26 16 26 C 10.465308 26 6 21.534692 6 16 C 6 10.465308 10.465308 6 16 6 z M 16 10 C 13.729969 10 11.73749 11.286249 10.71875 13.15625 L 7.3125 13.65625 C 7.1335 14.31825 7.022 15.00575 7 15.71875 L 10.03125 15.28125 C 10.003962 15.51234 10 15.761842 10 16 C 10 16.336879 10.039802 16.677914 10.09375 17 L 7.0625 17 C 7.1395 17.695 7.30525 18.362 7.53125 19 L 10.8125 19 C 11.367357 19.949909 12.188777 20.75419 13.15625 21.28125 L 13.65625 24.6875 C 14.31825 24.8665 15.00575 24.978 15.71875 25 L 15.28125 21.96875 C 15.51234 21.996038 15.761842 22 16 22 C 16.238158 22 16.48766 21.996038 16.71875 21.96875 L 16.28125 25 C 16.99325 24.978 17.68175 24.8665 18.34375 24.6875 L 18.84375 21.28125 C 19.811223 20.75419 20.632643 19.949909 21.1875 19 L 24.46875 19 C 24.69575 18.362 24.8605 17.695 24.9375 17 L 21.90625 17 C 21.960198 16.677914 22 16.336879 22 16 C 22 15.761842 21.996038 15.51234 21.96875 15.28125 L 25 15.71875 C 24.978 15.00675 24.8665 14.31825 24.6875 13.65625 L 21.28125 13.15625 C 20.26251 11.286249 18.270032 10 16 10 z M 16 12 C 17.862517 12 19.391379 13.255082 19.84375 14.96875 L 19.84375 15 C 19.925871 15.320994 20 15.652194 20 16 C 20 18.220984 18.220984 20 16 20 C 15.652194 20 15.320994 19.925871 15 19.84375 L 14.96875 19.84375 C 13.255082 19.391379 12 17.862517 12 16 C 12 15.652194 12.074129 15.320994 12.15625 15 L 12.15625 14.96875 C 12.608621 13.255082 14.137483 12 16 12 z M 16 14 C 14.895431 14 14 14.895431 14 16 C 14 17.104569 14.895431 18 16 18 C 17.104569 18 18 17.104569 18 16 C 18 14.895431 17.104569 14 16 14 z" overflow="visible" font-family="Bitstream Vera Sans" fill="#000000"/></svg>
