<?xml version="1.0" encoding="utf-8"?>
<svg xmlns="http://www.w3.org/2000/svg" viewBox="0 0 32 32" fill="#000000"><path style="text-indent:0;text-align:start;line-height:normal;text-transform:none;block-progression:tb;-inkscape-font-specification:Bitstream Vera Sans" d="M 11.5 4 C 9.5788479 4 8 5.5788481 8 7.5 C 8 9.4211519 9.5788479 11 11.5 11 C 13.421152 11 15 9.4211519 15 7.5 C 15 5.5788481 13.421152 4 11.5 4 z M 11.5 6 C 12.340272 6 13 6.6597281 13 7.5 C 13 8.3402719 12.340272 9 11.5 9 C 10.659728 9 10 8.3402719 10 7.5 C 10 6.6597281 10.659728 6 11.5 6 z M 16.71875 6.625 L 16.1875 10.34375 L 13.90625 11.21875 L 13.8125 11.21875 L 10.90625 11.625 C 10.574877 11.66955 10.271653 11.83315 10.03125 12.0625 L 7.625 14.34375 C 7.155509 14.791404 7.0014888 15.495685 7.25 16.09375 L 8.84375 19.9375 L 10.6875 19.15625 L 9.21875 15.59375 L 10.46875 14.375 C 11.379577 16.817589 13.24992 18.459366 14 19.03125 L 15.15625 23.0625 C 14.30625 26.1235 13.9575 27.411 13.8125 28 L 15.875 28 C 16.172 26.885 16.75725 24.7455 17.15625 23.3125 L 17.21875 23.0625 L 16.09375 19.0625 L 18.59375 17.09375 L 27.03125 14.1875 L 26.375 12.28125 L 18.15625 15.15625 C 18.015496 15.094522 17.822513 15.044788 17.28125 14.625 C 16.758394 14.219488 16.13451 13.602912 15.53125 12.71875 L 17.125 12.125 C 17.659448 11.923219 18.043522 11.4372 18.125 10.875 L 18.71875 6.9375 L 16.71875 6.625 z M 13.53125 13.3125 C 14.359967 14.668383 15.290106 15.619704 16.0625 16.21875 C 16.140819 16.279492 16.205707 16.320537 16.28125 16.375 L 15.0625 17.3125 C 14.415275 16.802574 12.911578 15.468848 12.25 13.46875 L 13.53125 13.3125 z" overflow="visible" font-family="Bitstream Vera Sans" fill="#000000"/></svg>
