<?xml version="1.0" encoding="utf-8"?>
<svg xmlns="http://www.w3.org/2000/svg" viewBox="0 0 32 32" fill="#000000"><path style="line-height:normal;text-indent:0;text-align:start;text-decoration-line:none;text-decoration-style:solid;text-decoration-color:#000;text-transform:none;block-progression:tb;isolation:auto;mix-blend-mode:normal" d="M 8 10 L 8 12 L 9 12 L 9 15.621094 C 7.050734 15.972256 5.415687 16.406627 4 16.822266 L 4 11 L 2 11 L 2 17.439453 C 0.87078097 17.826809 0.10546875 18.130859 0.10546875 18.130859 L 0.89453125 19.96875 C 0.89453125 19.96875 1.3557506 19.791031 2 19.558594 L 2 22 L 4 22 L 4 18.908203 C 5.3603526 18.491804 7.0208578 18.032818 9 17.658203 L 9 19 L 11 19 L 11 17.316406 C 11.648261 17.225884 12.321926 17.160092 13 17.099609 L 13 22 L 19 22 L 19 17.099609 C 19.678074 17.160092 20.351739 17.225884 21 17.316406 L 21 19 L 23 19 L 23 17.658203 C 24.945756 18.026499 26.656492 18.47114 28 18.884766 L 28 22 L 30 22 L 30 19.544922 C 30.643398 19.78049 31.105469 19.96875 31.105469 19.96875 L 31.894531 18.130859 C 31.894531 18.130859 31.165695 17.828473 30 17.425781 L 30 11 L 28 11 L 28 16.794922 C 26.603929 16.383596 24.914054 15.965912 23 15.621094 L 23 12 L 24 12 L 24 10 L 23 10 L 9 10 L 8 10 z M 11 12 L 21 12 L 21 15.294922 C 19.413557 15.084982 17.733434 14.949219 16 14.949219 C 14.266566 14.949219 12.586443 15.084982 11 15.294922 L 11 12 z M 16 16.949219 C 16.336092 16.949219 16.668023 16.958284 17 16.96875 L 17 20 L 15 20 L 15 16.96875 C 15.331977 16.958284 15.663908 16.949219 16 16.949219 z" fill="#000000"/></svg>
