<?xml version="1.0" encoding="utf-8"?>
<svg xmlns="http://www.w3.org/2000/svg" viewBox="0 0 32 32" fill="#000000"><path style="text-indent:0;text-align:start;line-height:normal;text-transform:none;block-progression:tb;-inkscape-font-specification:Bitstream Vera Sans" d="M 5 5 L 5 6 L 5 26 L 5 27 L 6 27 L 26 27 L 27 27 L 27 26 L 27 6 L 27 5 L 26 5 L 6 5 L 5 5 z M 7 7 L 25 7 L 25 25 L 7 25 L 7 7 z M 8 12 L 8 13 L 8 19 L 8 20 L 9 20 L 10 20 C 11.64497 20 13 18.64497 13 17 L 13 15 C 13 13.35503 11.64497 12 10 12 L 9 12 L 8 12 z M 14 12 L 14 13 L 14 19 L 14 20 L 15 20 L 18 20 L 18 18 L 16 18 L 16 17 L 18 17 L 18 15 L 16 15 L 16 14 L 18 14 L 18 12 L 15 12 L 14 12 z M 21.5 12 C 20.130937 12 19 13.130937 19 14.5 L 19 17.5 C 19 18.869063 20.130937 20 21.5 20 L 23 20 L 24 20 L 24 19 L 24 17 L 24 16 L 23 16 L 22 16 L 22 17 L 22 18 L 21.5 18 C 21.213063 18 21 17.786937 21 17.5 L 21 14.5 C 21 14.213063 21.213063 14 21.5 14 C 21.786937 14 22 14.213063 22 14.5 L 22 15 L 24 15 L 24 14.5 C 24 13.130937 22.869063 12 21.5 12 z M 10 14 C 10.56503 14 11 14.43497 11 15 L 11 17 C 11 17.56503 10.56503 18 10 18 L 10 14 z" overflow="visible" font-family="Bitstream Vera Sans" fill="#000000"/></svg>
