<?xml version="1.0" encoding="utf-8"?>
<svg xmlns="http://www.w3.org/2000/svg" viewBox="0 0 32 32" fill="#000000"><path d="M 23 4.53125 L 23 6 L 23 19.5625 C 22.410912 19.220984 21.72993 19 21 19 C 18.790861 19 17 20.790861 17 23 C 17 25.209139 18.790861 27 21 27 C 23.209139 27 25 25.209139 25 23 L 25 7.5 L 28.625 8.9375 L 29.375 7.0625 L 24.375 5.0625 L 23 4.53125 z M 8 5 L 8 6.1875 C 7.902 6.2225 7.81075 6.2675 7.71875 6.3125 L 6.875 5.46875 L 5.46875 6.875 L 6.3125 7.71875 C 6.2685 7.81075 6.2225 7.902 6.1875 8 L 5 8 L 5 10 L 6.1875 10 C 6.2225 10.098 6.2685 10.18925 6.3125 10.28125 L 5.46875 11.125 L 6.875 12.53125 L 7.71875 11.6875 C 7.81175 11.7325 7.902 11.7775 8 11.8125 L 8 13 L 10 13 L 10 11.8125 C 10.098 11.7775 10.18925 11.7315 10.28125 11.6875 L 11.125 12.53125 L 12.53125 11.125 L 11.6875 10.28125 C 11.7315 10.18825 11.7775 10.097 11.8125 10 L 13 10 L 13 8 L 11.8125 8 C 11.7775 7.902 11.7315 7.81075 11.6875 7.71875 L 12.53125 6.875 L 11.125 5.46875 L 10.28125 6.3125 C 10.18825 6.2675 10.098 6.2225 10 6.1875 L 10 5 L 8 5 z M 13.5 5 L 15 6.5 L 15 7 L 21 7 L 21 5 L 13.5 5 z M 9 8 C 9.551 8 10 8.448 10 9 C 10 9.552 9.551 10 9 10 C 8.449 10 8 9.552 8 9 C 8 8.448 8.449 8 9 8 z M 15 10 L 15 11.5 L 14.5 12 L 21 12 L 21 10 L 15 10 z M 5 15 L 5 17 L 21 17 L 21 15 L 5 15 z M 5 20 L 5 22 L 15.09375 22 C 15.21575 21.282 15.4595 20.608 15.8125 20 L 5 20 z M 5 25 L 5 27 L 16.53125 27 C 16.01225 26.422 15.60875 25.746 15.34375 25 L 5 25 z" fill="#000000"/></svg>
