<?xml version="1.0" encoding="utf-8"?>
<svg xmlns="http://www.w3.org/2000/svg" viewBox="0 0 32 32" fill="#000000"><path style="text-indent:0;text-align:start;line-height:normal;text-transform:none;block-progression:tb;-inkscape-font-specification:Bitstream Vera Sans" d="M 10 4 L 10 6 L 11 6 L 11 7 L 10 7 L 10 9 L 11 9 L 11 11 L 9 11 L 9 10 L 7 10 L 7 11 L 6 11 L 6 10 L 4 10 L 4 12 L 4 13 L 11 13 L 11 19 L 9 19 L 9 14 L 7 14 L 7 19 L 6 19 L 6 14 L 4 14 L 4 19 L 4 21 L 4 22 L 6 22 L 6 21 L 7 21 L 7 22 L 9 22 L 9 21 L 11 21 L 11 23 L 10 23 L 10 25 L 11 25 L 11 26 L 10 26 L 10 28 L 12 28 L 13 28 L 13 21 L 19 21 L 19 23 L 14 23 L 14 25 L 19 25 L 19 26 L 14 26 L 14 28 L 22 28 L 22 26 L 21 26 L 21 25 L 22 25 L 22 23 L 21 23 L 21 21 L 23 21 L 23 22 L 25 22 L 25 21 L 26 21 L 26 22 L 28 22 L 28 21 L 28 19 L 28 14 L 26 14 L 26 19 L 25 19 L 25 14 L 23 14 L 23 19 L 21 19 L 21 13 L 28 13 L 28 11 L 28 10 L 26 10 L 26 11 L 25 11 L 25 10 L 23 10 L 23 11 L 21 11 L 21 9 L 22 9 L 22 7 L 21 7 L 21 6 L 22 6 L 22 4 L 14 4 L 14 6 L 19 6 L 19 7 L 14 7 L 14 9 L 19 9 L 19 11 L 13 11 L 13 4 L 12 4 L 10 4 z M 13 13 L 19 13 L 19 19 L 13 19 L 13 13 z" fill="#000000"/></svg>
