<?xml version="1.0" encoding="utf-8"?>
<svg xmlns="http://www.w3.org/2000/svg" viewBox="0 0 32 32" fill="#000000"><path style="text-indent:0;text-align:start;line-height:normal;text-transform:none;block-progression:tb;-inkscape-font-specification:Bitstream Vera Sans" d="M 10.5 4 C 8.5761905 4 7 5.5761905 7 7.5 C 7 9.4238095 8.5761905 11 10.5 11 L 13.1875 11 C 13.820833 11 14.206271 11.55495 13.96875 12.125 L 12.5625 15.5 C 11.686458 15.182317 10.81239 15 10 15 C 6.6761905 15 4 17.67619 4 21 C 4 21.841667 4.1957115 22.645799 4.5 23.34375 C 4.1845452 23.818257 4 24.393024 4 25 C 4 26.645009 5.3549901 28 7 28 C 7.9095937 28 8.7290421 27.586018 9.28125 26.9375 C 9.5038967 26.974405 9.7391892 27 10 27 C 11.542857 27 13.597484 26.681294 15.40625 25.96875 C 16.310633 25.612478 17.174287 25.169208 17.84375 24.53125 C 18.513213 23.893292 19 23.009524 19 22 C 19 19.980952 17.407508 18.367354 15.625 17.125 C 15.210475 16.836089 14.781417 16.587179 14.34375 16.34375 L 15.8125 12.875 C 16.574979 11.04505 15.154167 9 13.1875 9 L 10.5 9 C 9.6238095 9 9 8.3761905 9 7.5 C 9 6.6238095 9.6238095 6 10.5 6 L 15.90625 6 C 17.253055 6 18.452377 6.8848933 18.84375 8.25 L 18.84375 8.28125 L 22.71875 23 L 22 23 C 21.477778 23 20.939531 23.185469 20.5625 23.5625 C 20.185469 23.939531 20 24.477778 20 25 L 20 27 L 20 28 L 21 28 L 27 28 L 28 28 L 28 27 L 28 25 C 28 24.477778 27.814531 23.939531 27.4375 23.5625 C 27.060469 23.185469 26.522222 23 26 23 L 24.78125 23 L 20.78125 7.75 L 20.75 7.75 L 20.75 7.71875 C 20.133433 5.499109 18.150694 4 15.90625 4 L 10.5 4 z M 10 17 C 11.019048 17 12.951258 17.723604 14.46875 18.78125 C 15.986242 19.838896 17 21.219048 17 22 C 17 22.390476 16.861787 22.719208 16.46875 23.09375 C 16.075713 23.468292 15.433117 23.831272 14.6875 24.125 C 13.196266 24.712456 11.257143 25 10 25 C 10 23.354991 8.6450099 22 7 22 C 6.7155504 22 6.4491002 22.049477 6.1875 22.125 C 6.0700778 21.751797 6 21.370225 6 21 C 6 18.72381 7.7238095 17 10 17 z M 7 24 C 7.5641291 24 8 24.435871 8 25 C 8 25.564129 7.5641291 26 7 26 C 6.4358709 26 6 25.564129 6 25 C 6 24.435871 6.4358709 24 7 24 z M 22 25 L 26 25 L 26 26 L 22 26 L 22 25 z" overflow="visible" font-family="Bitstream Vera Sans" fill="#000000"/></svg>
