<?xml version="1.0" encoding="utf-8"?>
<svg xmlns="http://www.w3.org/2000/svg" viewBox="0 0 32 32" fill="#000000"><path style="text-indent:0;text-align:start;line-height:normal;text-transform:none;block-progression:tb;-inkscape-font-specification:Bitstream Vera Sans" d="M 4 6 L 4 7 L 4 23 L 4 24 L 5 24 L 12 24 L 12 27 L 12 28.875 L 13.5625 27.84375 L 16 26.21875 L 18.4375 27.84375 L 20 28.875 L 20 27 L 20 20 L 20 19 L 19 19 L 13 19 L 12 19 L 12 20 L 12 22 L 6 22 L 6 8 L 26 8 L 26 22 L 21 22 L 21 24 L 27 24 L 28 24 L 28 23 L 28 7 L 28 6 L 27 6 L 5 6 L 4 6 z M 8 11 L 8 13 L 24 13 L 24 11 L 8 11 z M 8 15 L 8 17 L 24 17 L 24 15 L 8 15 z M 14 21 L 18 21 L 18 25.125 L 16.5625 24.15625 L 16 23.8125 L 15.4375 24.15625 L 14 25.125 L 14 21 z" overflow="visible" font-family="Bitstream Vera Sans" fill="#000000"/></svg>
