<?xml version="1.0" encoding="utf-8"?>
<svg xmlns="http://www.w3.org/2000/svg" viewBox="0 0 32 32" fill="#000000"><path style="text-indent:0;text-align:start;line-height:normal;text-transform:none;block-progression:tb;-inkscape-font-specification:Sans" d="M 18 3 C 18 3 16.7175 5.63325 17.0625 7.53125 C 17.13344 7.9215247 17.311293 8.3301449 17.53125 8.75 C 16.494105 7.9786159 15.460831 7.4235476 14.40625 7.15625 C 12.357224 6.6368972 10.305066 7.4169163 8.375 9.34375 C 6.2445406 11.470382 4.4467426 14.846728 3.5625 18.21875 C 2.6782574 21.590772 2.6380369 25.078648 4.78125 27.21875 C 6.9246335 29.3584 10.439971 29.32489 13.8125 28.4375 C 17.185029 27.55011 20.526914 25.75051 22.65625 23.625 C 24.565602 21.718886 25.356861 19.643943 24.84375 17.59375 C 24.587195 16.568653 24.073008 15.592256 23.34375 14.59375 C 23.712302 14.784319 24.092615 14.962127 24.4375 15.03125 C 26.3295 15.41025 28.96875 14.15625 28.96875 14.15625 C 28.96875 14.15625 27.17925 11.28 25.15625 10.875 C 24.782262 10.800091 24.360983 10.776885 23.9375 10.8125 C 24.039938 10.734991 24.161911 10.68177 24.25 10.59375 C 25.531 9.31175 26 6 26 6 C 26 6 22.77625 6.38 21.40625 7.75 C 21.343838 7.8124125 21.30703 7.9005126 21.25 7.96875 C 21.282734 7.5828193 21.281166 7.2191368 21.21875 6.875 C 20.85075 4.846 18 3 18 3 z M 12.9375 8.96875 C 13.261844 8.9585746 13.597069 9.0074632 13.9375 9.09375 C 15.299224 9.4388972 17.025162 10.747347 19.15625 12.875 C 21.284925 15.000245 22.564361 16.727693 22.90625 18.09375 C 23.248139 19.459807 22.87865 20.592864 21.25 22.21875 C 19.483336 23.98224 16.345721 25.70189 13.3125 26.5 C 10.279279 27.29811 7.4891165 27.11185 6.1875 25.8125 C 4.8857131 24.512602 4.7049926 21.750478 5.5 18.71875 C 6.2950074 15.687022 8.0157094 12.512368 9.78125 10.75 C 11.02095 9.5123753 11.964469 8.9992763 12.9375 8.96875 z M 14.96875 13 C 14.416465 13 13.96875 13.447715 13.96875 14 C 13.96875 14.552285 14.416465 15 14.96875 15 C 15.521035 15 15.96875 14.552285 15.96875 14 C 15.96875 13.447715 15.521035 13 14.96875 13 z M 10.96875 14 C 10.416465 14 9.96875 14.447715 9.96875 15 C 9.96875 15.552285 10.416465 16 10.96875 16 C 11.521035 16 11.96875 15.552285 11.96875 15 C 11.96875 14.447715 11.521035 14 10.96875 14 z M 17.96875 16 C 17.416465 16 16.96875 16.447715 16.96875 17 C 16.96875 17.552285 17.416465 18 17.96875 18 C 18.521035 18 18.96875 17.552285 18.96875 17 C 18.96875 16.447715 18.521035 16 17.96875 16 z M 13.96875 17 C 13.416465 17 12.96875 17.447715 12.96875 18 C 12.96875 18.552285 13.416465 19 13.96875 19 C 14.521035 19 14.96875 18.552285 14.96875 18 C 14.96875 17.447715 14.521035 17 13.96875 17 z M 9.96875 18 C 9.4164653 18 8.96875 18.447715 8.96875 19 C 8.96875 19.552285 9.4164653 20 9.96875 20 C 10.521035 20 10.96875 19.552285 10.96875 19 C 10.96875 18.447715 10.521035 18 9.96875 18 z M 16.96875 20 C 16.416465 20 15.96875 20.447715 15.96875 21 C 15.96875 21.552285 16.416465 22 16.96875 22 C 17.521035 22 17.96875 21.552285 17.96875 21 C 17.96875 20.447715 17.521035 20 16.96875 20 z M 12.96875 21 C 12.416465 21 11.96875 21.447715 11.96875 22 C 11.96875 22.552285 12.416465 23 12.96875 23 C 13.521035 23 13.96875 22.552285 13.96875 22 C 13.96875 21.447715 13.521035 21 12.96875 21 z M 8.96875 22 C 8.4164653 22 7.96875 22.447715 7.96875 23 C 7.96875 23.552285 8.4164653 24 8.96875 24 C 9.5210348 24 9.96875 23.552285 9.96875 23 C 9.96875 22.447715 9.5210348 22 8.96875 22 z" overflow="visible" font-family="Sans" fill="#000000"/></svg>
