<?xml version="1.0" encoding="utf-8"?>
<svg xmlns="http://www.w3.org/2000/svg" viewBox="0 0 32 32" fill="#000000"><path style="text-indent:0;text-align:start;line-height:normal;text-transform:none;block-progression:tb;-inkscape-font-specification:Sans" d="M 27.5 2 C 26.858238 2 26.202834 2.2346664 25.71875 2.71875 L 13.71875 14.71875 C 13.369693 14.492693 13.252409 14.344327 12.59375 14.15625 C 11.415301 13.81975 9.676898 13.885602 8.28125 15.28125 L 2.28125 21.28125 L 3.71875 22.71875 L 9 17.4375 L 11.0625 19.5 L 5.28125 25.28125 L 6.71875 26.71875 L 12.5 20.9375 L 14.5625 23 C 12.327911 25.234093 9.28125 28.28125 9.28125 28.28125 L 10.71875 29.71875 C 10.71875 29.71875 14.461028 25.975473 16.71875 23.71875 C 18.102517 22.335596 18.174022 20.58462 17.84375 19.40625 C 17.655628 18.735053 17.504694 18.631405 17.28125 18.28125 L 29.28125 6.28125 C 30.249417 5.3130827 30.249417 3.6869173 29.28125 2.71875 C 28.797166 2.2346664 28.141762 2 27.5 2 z M 27.5 4 C 27.621417 4 27.742834 4.0553336 27.84375 4.15625 C 28.045583 4.3580827 28.045583 4.6419173 27.84375 4.84375 L 19.0625 13.625 L 18.375 12.9375 L 27.15625 4.15625 C 27.257167 4.0553336 27.378583 4 27.5 4 z M 16.9375 14.375 L 17.625 15.0625 L 15.34375 17.34375 L 14.71875 18 L 15.28125 18.6875 C 15.28125 18.6875 15.702522 19.24187 15.90625 19.96875 C 16.041044 20.449681 16.099301 20.918476 15.875 21.4375 L 10.5625 16.125 C 11.099082 15.882462 11.581887 15.925263 12.0625 16.0625 C 12.781301 16.26775 13.28125 16.71875 13.28125 16.71875 L 14 17.28125 L 14.65625 16.65625 L 16.9375 14.375 z" overflow="visible" font-family="Sans" fill="#000000"/></svg>
