<?xml version="1.0" encoding="utf-8"?>
<svg xmlns="http://www.w3.org/2000/svg" viewBox="0 0 32 32" fill="#000000"><path style="text-indent:0;text-align:start;line-height:normal;text-transform:none;block-progression:tb;-inkscape-font-specification:Bitstream Vera Sans" d="M 5 3 L 5 28 L 16.0625 28 C 16.1305 27.31 16.26675 26.642 16.46875 26 L 7 26 L 7 5 L 21 5 L 21 11.40625 L 23 13.40625 L 23 19.46875 C 23.641 19.26675 24.31 19.1305 25 19.0625 L 25 13.4375 L 26.71875 11.71875 L 27 11.40625 L 27 11 L 27 4 L 27 3 L 26 3 L 23 3 L 22 3 L 5 3 z M 23 5 L 25 5 L 25 10.5625 L 24 11.5625 L 23 10.59375 L 23 5 z M 26 21 C 21.593562 21 18 24.593562 18 29 L 20 29 C 20 25.674438 22.674438 23 26 23 L 26 21 z M 26 24 C 23.250484 24 21 26.250484 21 29 L 23 29 C 23 27.331516 24.331516 26 26 26 L 26 24 z M 26 27 C 24.895 27 24 27.895 24 29 L 26 29 L 26 27 z" overflow="visible" font-family="Bitstream Vera Sans" fill="#000000"/></svg>
