<?xml version="1.0" encoding="utf-8"?>
<svg xmlns="http://www.w3.org/2000/svg" viewBox="0 0 32 32" fill="#000000"><path d="M 16 2 L 14.3125 7.0625 C 13.836232 7.1008645 13.296603 7.1593454 12.71875 7.25 C 12.187475 6.0845456 10.72292 3.8622647 7 3 C 8.6132075 4.5710943 9.4302925 6.7470971 9.78125 8 C 9.7283462 8.0206107 9.6772899 8.0410433 9.625 8.0625 C 8.7700399 8.4131809 8.2177004 9.1384686 7.75 10 L 3 10 L 6 13 L 3 13 L 5 16 L 3 16 L 5.28125 19.03125 C 5.0895597 20.501177 5 21.876245 5 23 L 5 24 L 6 24 C 7.8156081 24 8.8903125 25.259268 9.0625 25.46875 C 9.110149 25.945209 9.2517717 26.702545 9.90625 27.59375 C 10.836895 28.861012 12.719813 30 16 30 C 19.222222 30 21.1205 28.84975 22.0625 27.59375 C 22.726326 26.708649 22.877266 25.97137 22.9375 25.5 C 23.090798 25.311991 24.166236 24 26 24 L 27 24 L 27 23 C 27 21.876206 26.910425 20.50117 26.71875 19.03125 L 29 16 L 27 16 L 29 13 L 26 13 L 29 10 L 24.25 10 C 23.78228 9.138502 23.22981 8.4132632 22.375 8.0625 C 22.323633 8.0414221 22.270692 8.0202528 22.21875 8 C 22.569708 6.7470971 23.386792 4.5710943 25 3 C 21.27708 3.8622647 19.812525 6.0845456 19.28125 7.25 C 18.680235 7.1572435 18.174768 7.0992735 17.6875 7.0625 L 16 2 z M 16 9 C 16 9 19.504692 9.067452 21.625 9.9375 C 21.795148 10.007319 22.307367 10.508015 22.75 11.4375 C 23.192633 12.366985 23.600425 13.652776 23.9375 15.03125 C 24.545672 17.518381 24.839357 20.211534 24.90625 22.21875 C 24.164129 22.373819 23.537937 22.660059 23 22.96875 L 23 22 L 21 22 L 21 25 C 21 25 20.9955 25.66225 20.4375 26.40625 C 19.8795 27.15025 18.777778 28 16 28 C 13.155187 28 12.038105 27.138988 11.5 26.40625 C 10.961895 25.673512 11 25.03125 11 25.03125 L 11 24.6875 L 11 22 L 9 22 L 9 22.96875 C 8.4620632 22.660059 7.8358713 22.373819 7.09375 22.21875 C 7.160604 20.211479 7.454443 17.518358 8.0625 15.03125 C 8.3995111 13.652789 8.807343 12.366947 9.25 11.4375 C 9.692657 10.508053 10.204536 10.00742 10.375 9.9375 C 12.495308 9.0674518 16 9 16 9 z M 12.5 16 C 11.671573 16 11 16.671573 11 17.5 C 11 18.328427 11.671573 19 12.5 19 C 13.328427 19 14 18.328427 14 17.5 C 14 16.671573 13.328427 16 12.5 16 z M 19.5 16 C 18.671573 16 18 16.671573 18 17.5 C 18 18.328427 18.671573 19 19.5 19 C 20.328427 19 21 18.328427 21 17.5 C 21 16.671573 20.328427 16 19.5 16 z M 13 23 C 12.448 23 12 23.448 12 24 C 12 24.552 12.448 25 13 25 C 14 25 15 23 15 23 L 13 23 z M 17 23 C 17 23 17.078125 23.125 17.1875 23.3125 C 17.515625 23.875 18.25 25 19 25 C 19.552 25 20 24.552 20 24 C 20 23.448 19.552 23 19 23 L 17 23 z" fill="#000000"/></svg>
