<?xml version="1.0" encoding="utf-8"?>
<svg xmlns="http://www.w3.org/2000/svg" viewBox="0 0 32 32" fill="#000000"><path style="text-indent:0;text-align:start;line-height:normal;text-transform:none;block-progression:tb;-inkscape-font-specification:Bitstream Vera Sans" d="M 19 3 C 17.63122 3 16.634886 4.018468 16.28125 5.28125 C 15.018468 5.6348864 14 6.6312196 14 8 C 14 8.9521142 14.51983 9.7017158 15.21875 10.25 C 15.148636 10.504744 15 10.725942 15 11 C 15 11.212104 15.019374 11.425706 15.0625 11.625 C 14.864808 11.802173 12.641285 13.803536 10.125 16.0625 C 8.8122685 17.240988 7.4693977 18.444012 6.40625 19.40625 C 5.3431023 20.368488 4.5943363 21.031006 4.3125 21.3125 C 2.5909996 23.034 2.5828073 25.838116 4.25 27.59375 L 4.3125 27.6875 C 6.0615894 29.436589 8.9384106 29.436589 10.6875 27.6875 L 10.8125 27.53125 C 11.124633 27.210655 11.718986 26.590331 12.625 25.59375 C 13.59917 24.522201 14.805532 23.167894 16 21.84375 C 18.253205 19.345929 20.166621 17.202245 20.40625 16.9375 C 20.407011 16.936659 20.436778 16.938298 20.4375 16.9375 C 20.618052 16.972565 20.809263 17 21 17 C 21.274058 17 21.495256 16.851364 21.75 16.78125 C 22.298284 17.48017 23.047886 18 24 18 C 25.36878 18 26.365114 16.981532 26.71875 15.71875 C 27.981532 15.365114 29 14.36878 29 13 C 29 12.437187 28.803289 11.94891 28.53125 11.5 C 28.803289 11.05109 29 10.562813 29 10 C 29 9.0478858 28.48017 8.2982842 27.78125 7.75 C 27.851364 7.4952564 28 7.2740583 28 7 C 28 5.3550302 26.64497 4 25 4 C 24.725942 4 24.504744 4.1486356 24.25 4.21875 C 23.701716 3.51983 22.952114 3 22 3 C 21.437187 3 20.94891 3.1967113 20.5 3.46875 C 20.05109 3.1967113 19.562813 3 19 3 z M 19 5 C 19.301499 5 19.558345 5.1244174 19.75 5.34375 L 20.5 6.21875 L 21.25 5.34375 C 21.441655 5.1244174 21.698501 5 22 5 C 22.443065 5 22.800662 5.2950957 22.9375 5.6875 L 23.375 6.90625 L 24.4375 6.15625 C 24.597956 6.0474406 24.78741 6 25 6 C 25.56503 6 26 6.4349698 26 7 C 26 7.2125904 25.95256 7.4020438 25.84375 7.5625 L 25.09375 8.625 L 26.3125 9.0625 C 26.704904 9.1993384 27 9.5569351 27 10 C 27 10.301499 26.875583 10.558345 26.65625 10.75 L 25.78125 11.5 L 26.65625 12.25 C 26.875583 12.441655 27 12.698501 27 13 C 27 13.56503 26.56503 14 26 14 L 25 14 L 25 15 C 25 15.56503 24.56503 16 24 16 C 23.556935 16 23.199338 15.704904 23.0625 15.3125 L 22.625 14.09375 L 21.5625 14.84375 C 21.402044 14.952559 21.21259 15 21 15 C 20.43497 15 20 14.56503 20 14 C 20 14.02111 20.01603 13.98537 20.03125 13.875 L 20.125 13.1875 L 19.53125 12.875 C 19.367698 12.782779 19.215725 12.630039 19.125 12.46875 L 18.8125 11.875 L 18.125 11.96875 C 18.014625 11.983974 17.978889 12 18 12 C 17.43497 12 17 11.56503 17 11 C 17 10.78741 17.04744 10.597956 17.15625 10.4375 L 17.90625 9.375 L 16.6875 8.9375 C 16.295096 8.8006616 16 8.4430649 16 8 C 16 7.4349698 16.43497 7 17 7 L 18 7 L 18 6 C 18 5.4349698 18.43497 5 19 5 z M 16.15625 13.34375 C 16.36373 13.503747 16.598855 13.647307 16.84375 13.75 L 7.5 23.0625 L 8.9375 24.5 L 18.25 15.15625 C 18.358328 15.414582 18.515711 15.658631 18.6875 15.875 C 18.272786 16.339161 16.660595 18.139485 14.53125 20.5 C 13.337718 21.823106 12.095955 23.181987 11.125 24.25 C 10.154045 25.318013 9.412412 26.150088 9.28125 26.28125 C 8.2963394 27.266161 6.7036606 27.266161 5.71875 26.28125 C 4.7338394 25.296339 4.7338394 23.703661 5.71875 22.71875 C 5.8484137 22.589244 6.690554 21.833887 7.75 20.875 C 8.809446 19.916113 10.157107 18.708762 11.46875 17.53125 C 13.864511 15.380486 15.776277 13.683831 16.15625 13.34375 z" overflow="visible" font-family="Bitstream Vera Sans" fill="#000000"/></svg>
