<?xml version="1.0" encoding="utf-8"?>
<svg xmlns="http://www.w3.org/2000/svg" viewBox="0 0 32 32" fill="#000000"><path style="text-indent:0;text-align:start;line-height:normal;text-transform:none;block-progression:tb;-inkscape-font-specification:Bitstream Vera Sans" d="M 16 4 C 13.802706 4 12 5.8027056 12 8 C 12 10.197294 13.802706 12 16 12 C 18.197294 12 20 10.197294 20 8 C 20 5.8027056 18.197294 4 16 4 z M 16 6 C 17.116414 6 18 6.883586 18 8 C 18 9.116414 17.116414 10 16 10 C 14.883586 10 14 9.116414 14 8 C 14 6.883586 14.883586 6 16 6 z M 23.46875 6.8125 L 22.53125 7.1875 L 24.46875 12.34375 L 22.8125 14.59375 L 20.125 12.59375 C 19.605382 12.203286 18.9923 12 18.34375 12 L 17.5 12 L 16.8125 12 L 16.5625 12.65625 L 16 14.15625 L 15.4375 12.65625 L 15.1875 12 L 14.5 12 L 13.65625 12 C 13.0077 12 12.394618 12.203286 11.875 12.59375 L 9.1875 14.59375 L 6.8125 11.40625 L 5.1875 12.59375 L 7.9375 16.28125 C 8.4000217 16.897946 9.3217319 17.024326 9.9375 16.5625 L 11 15.75 L 11 22 L 11 23 L 12 23 L 13 23 L 13 27 L 13 28 L 14 28 L 18 28 L 19 28 L 19 27 L 19 23 L 20 23 L 21 23 L 21 22 L 21 15.75 L 22.0625 16.5625 C 22.678268 17.024326 23.599978 16.897946 24.0625 16.28125 L 25.3125 14.59375 L 25.53125 15.15625 L 26.46875 14.8125 L 26.03125 13.65625 L 26.8125 12.59375 L 25.1875 11.40625 L 23.46875 6.8125 z M 13.65625 14 L 13.8125 14 L 15.0625 17.34375 L 16 19.84375 L 16.9375 17.34375 L 18.1875 14 L 18.34375 14 C 18.5612 14 18.765118 14.05796 18.9375 14.1875 L 19 14.25 L 19 21 L 18 21 L 17 21 L 17 22 L 17 26 L 15 26 L 15 22 L 15 21 L 14 21 L 13 21 L 13 14.25 L 13.0625 14.1875 C 13.234882 14.057964 13.4388 14 13.65625 14 z" overflow="visible" font-family="Bitstream Vera Sans" fill="#000000"/></svg>
