<?xml version="1.0" encoding="utf-8"?>
<svg xmlns="http://www.w3.org/2000/svg" viewBox="0 0 32 32" fill="#000000"><path style="text-indent:0;text-align:start;line-height:normal;text-transform:none;block-progression:tb;-inkscape-font-specification:Sans" d="M 3 4 L 3 5 L 3 23 L 3 24 L 3 27 L 3 28 L 4 28 L 11 28 L 12 28 L 12 27.0625 C 12.237334 27.185795 12.328477 27.292115 12.90625 27.46875 C 13.818219 27.747554 15.174605 28 17 28 L 28 28 L 29 28 L 29 27 L 29 24 L 29 23 C 29 19.820541 27.954516 17.642631 26.21875 16.4375 C 24.482984 15.232369 22.287136 15 20 15 C 18.285057 15 17.743935 14.316006 17.375 13.5625 C 17.006065 12.808994 17 12.03125 17 12.03125 L 17 12 L 17 5 L 17 4 L 16 4 L 4 4 L 3 4 z M 5 6 L 15 6 L 15 8 L 5 8 L 5 6 z M 5 10 L 15 10 L 15 11.96875 L 15 12 C 14.999488 12.017335 15.003669 12.47952 15.125 13.09375 C 14.823983 13.143388 14.483661 13.205485 14.125 13.34375 C 13.645614 13.528553 13.143826 13.820899 12.71875 14.3125 C 12.293674 14.804101 12 15.518081 12 16.3125 C 12 16.966636 12.228003 17.518375 12.53125 18 L 5 18 L 5 10 z M 15.90625 15 C 16.642143 16.051916 17.985269 17 20 17 C 22.129864 17 23.933766 17.288381 25.09375 18.09375 C 26.072083 18.773 26.651789 20.020338 26.84375 22 L 5 22 L 5 20 L 17 20 L 17 18 C 17 18 16.121755 17.9906 15.3125 17.71875 C 14.907873 17.582846 14.562218 17.376383 14.34375 17.15625 C 14.125282 16.936117 14 16.736142 14 16.3125 C 14 15.950419 14.081326 15.783931 14.21875 15.625 C 14.356174 15.466069 14.604386 15.323072 14.875 15.21875 C 15.34904 15.036008 15.787759 15.004741 15.90625 15 z M 5 24 L 27 24 L 27 26 L 25 26 L 25 25 L 23 25 L 23 26 L 21 26 L 21 25 L 19 25 L 19 26 L 17 26 L 17 25 L 15 25 L 15 25.84375 C 14.380537 25.752789 13.878984 25.647112 13.5 25.53125 C 12.776469 25.310054 12.53125 25.15625 12.53125 25.15625 L 12.28125 25 L 12 25 L 11 25 L 10 25 L 10 26 L 8 26 L 8 25 L 6 25 L 6 26 L 5 26 L 5 24 z" fill="#000000"/></svg>
