<?xml version="1.0" encoding="utf-8"?>
<svg xmlns="http://www.w3.org/2000/svg" viewBox="0 0 32 32" fill="#000000"><path style="text-indent:0;text-align:start;line-height:normal;text-transform:none;block-progression:tb;-inkscape-font-specification:Bitstream Vera Sans" d="M 21.21875 3.03125 C 20.61296 3.0344335 20.009943 3.1058362 19.4375 3.25 C 17.147728 3.826655 15.1743 5.2944504 13.71875 6.75 L 13.59375 6.875 C 12.176283 8.3195023 10.80838 10.239501 10.25 12.46875 C 10.09913 13.071076 10.028732 13.704891 10.03125 14.34375 L 10 14.34375 C 10 14.34375 9.7183476 16.249464 9.25 18.3125 C 9.0158262 19.344018 8.7279841 20.416687 8.4375 21.28125 C 8.1470159 22.145813 7.754952 22.838798 7.6875 22.90625 L 9.09375 24.3125 C 9.161202 24.24505 9.8541866 23.852984 10.71875 23.5625 C 11.583313 23.272016 12.655982 22.984174 13.6875 22.75 C 15.750536 22.281652 17.65625 22 17.65625 22 L 17.65625 21.96875 C 18.295107 21.971264 18.928948 21.90091 19.53125 21.75 C 21.822105 21.176013 23.792606 19.738644 25.25 18.28125 C 26.706061 16.825189 28.173748 14.852215 28.75 12.5625 C 29.326252 10.272785 28.869669 7.6196693 26.625 5.375 C 24.941433 3.6914328 23.036119 3.0216994 21.21875 3.03125 z M 9 4 C 7.8954305 4 7 4.8954305 7 6 C 7 7.1045695 7.8954305 8 9 8 C 10.104569 8 11 7.1045695 11 6 C 11 4.8954305 10.104569 4 9 4 z M 21.25 5 C 21.687199 4.9834611 22.124663 5.0109455 22.5625 5.125 C 23.438173 5.353109 24.310628 5.8731282 25.21875 6.78125 C 27.035081 8.5975807 27.253748 10.309215 26.8125 12.0625 C 26.371252 13.815785 25.128689 15.558811 23.84375 16.84375 C 22.560144 18.127356 20.818645 19.372487 19.0625 19.8125 C 17.306355 20.252513 15.588704 20.026204 13.78125 18.21875 C 11.973825 16.411325 11.747583 14.693804 12.1875 12.9375 C 12.627417 11.181196 13.873219 9.439281 15.15625 8.15625 C 16.4407 6.8717996 18.184022 5.629095 19.9375 5.1875 C 20.37587 5.0771013 20.812801 5.0165389 21.25 5 z M 11.28125 18.3125 C 11.584231 18.770099 11.911872 19.224372 12.34375 19.65625 C 12.775622 20.088122 13.229898 20.415763 13.6875 20.71875 C 13.52564 20.754216 13.414909 20.775063 13.25 20.8125 C 12.29904 21.028386 11.326253 21.282839 10.4375 21.5625 C 10.717161 20.673747 10.971614 19.70096 11.1875 18.75 C 11.224937 18.585091 11.245784 18.47436 11.28125 18.3125 z M 6.78125 23.78125 L 3.28125 27.28125 L 4.71875 28.71875 L 8.21875 25.21875 L 6.78125 23.78125 z" overflow="visible" font-family="Bitstream Vera Sans" fill="#000000"/></svg>
