<?xml version="1.0" encoding="utf-8"?>
<svg xmlns="http://www.w3.org/2000/svg" viewBox="0 0 32 32" fill="#000000"><path style="text-indent:0;text-align:start;line-height:normal;text-transform:none;block-progression:tb;-inkscape-font-specification:Bitstream Vera Sans" d="M 13 4 L 13 5 L 13 6 L 9 6 C 7.3550302 6 6 7.3550302 6 9 L 6 13 L 5 13 L 4 13 L 4 14 L 4 18 L 4 19 L 5 19 L 9 19 L 10 19 L 10 18 L 10 14 L 10 13 L 9 13 L 8 13 L 8 9 C 8 8.4349698 8.4349698 8 9 8 L 13 8 L 13 9 L 13 10 L 14 10 L 18 10 L 19 10 L 19 9 L 19 5 L 19 4 L 18 4 L 14 4 L 13 4 z M 15 6 L 17 6 L 17 8 L 15 8 L 15 6 z M 20 6 L 20 8 L 23 8 C 23.56503 8 24 8.4349698 24 9 L 24 13 L 23 13 L 22 13 L 22 14 L 22 18 L 22 19 L 23 19 L 27 19 L 28 19 L 28 18 L 28 14 L 28 13 L 27 13 L 26 13 L 26 9 C 26 7.3550302 24.64497 6 23 6 L 20 6 z M 6 15 L 8 15 L 8 17 L 6 17 L 6 15 z M 24 15 L 26 15 L 26 17 L 24 17 L 24 15 z M 6 20 L 6 23 C 6 24.64497 7.3550302 26 9 26 L 13 26 L 13 27 L 13 28 L 14 28 L 18 28 L 19 28 L 19 27 L 19 23 L 19 22 L 18 22 L 14 22 L 13 22 L 13 23 L 13 24 L 9 24 C 8.4349698 24 8 23.56503 8 23 L 8 20 L 6 20 z M 24 20 L 24 23 C 24 23.56503 23.56503 24 23 24 L 20 24 L 20 26 L 23 26 C 24.64497 26 26 24.64497 26 23 L 26 20 L 24 20 z M 15 24 L 17 24 L 17 26 L 15 26 L 15 24 z" fill="#000000"/></svg>
