<?xml version="1.0" encoding="utf-8"?>
<svg xmlns="http://www.w3.org/2000/svg" viewBox="0 0 32 32" fill="#000000"><path d="M 15 7 L 15 11 L 14 11 L 13.28125 11 L 13.0625 11.6875 L 12.59375 13.125 C 12.145176 12.440516 11.37002 12 10.5 12 C 9.1311327 12 8 13.131133 8 14.5 C 8 15.868867 9.1311327 17 10.5 17 C 10.796777 17 11.078426 16.940982 11.34375 16.84375 L 11.15625 17.4375 C 11.13361 17.45976 11.11448 17.4454 11.09375 17.46875 C 10.977934 17.599235 10.864048 17.783154 10.75 18 L 2 19 L 1.875 19 L 2 20 L 2 21 L 2.125 21 L 10.0625 21 C 10.042666 21.311287 10 21.635638 10 22 L 10 23 L 11 23 L 13 23 L 13 26 L 15 26 L 15 23 L 16 23 L 17 23 L 17 26 L 19 26 L 19 23 L 21 23 L 22 23 L 22 22 C 22 21.635638 21.957334 21.311287 21.9375 21 L 29.875 21 L 30 21 L 30 20 L 30.125 19 L 30 19 L 21.25 18 C 21.135952 17.783154 21.022066 17.599235 20.90625 17.46875 C 20.88553 17.4454 20.86639 17.45975 20.84375 17.4375 L 20.65625 16.84375 C 20.921574 16.940982 21.203223 17 21.5 17 C 22.868867 17 24 15.868867 24 14.5 C 24 13.131133 22.868867 12 21.5 12 C 20.62998 12 19.854824 12.440516 19.40625 13.125 L 18.9375 11.6875 L 18.71875 11 L 18 11 L 17 11 L 17 7 L 15 7 z M 2 8 L 2 10 L 14 10 L 14 8 L 2 8 z M 18 8 L 18 10 L 30 10 L 30 8 L 18 8 z M 14.71875 13 L 16 13 L 17 13 L 17.28125 13 L 19.0625 18.3125 L 19.1875 18.6875 L 19.40625 18.8125 C 19.42529 18.83395 19.50615 18.89438 19.59375 19.09375 C 19.708783 19.355566 19.790273 20.252418 19.875 21 L 16 21 L 12.125 21 C 12.20973 20.252418 12.291217 19.355566 12.40625 19.09375 C 12.49385 18.894381 12.574709 18.833953 12.59375 18.8125 L 12.8125 18.6875 L 12.9375 18.3125 L 14.71875 13 z M 10.5 14 C 10.787987 14 11 14.212013 11 14.5 C 11 14.787987 10.787987 15 10.5 15 C 10.212013 15 10 14.787987 10 14.5 C 10 14.212013 10.212013 14 10.5 14 z M 21.5 14 C 21.787987 14 22 14.212013 22 14.5 C 22 14.787987 21.787987 15 21.5 15 C 21.212013 15 21 14.787987 21 14.5 C 21 14.212013 21.212013 14 21.5 14 z M 5 22 C 4.4477153 22 4 22.447715 4 23 C 4 23.552285 4.4477153 24 5 24 C 5.5522847 24 6 23.552285 6 23 C 6 22.447715 5.5522847 22 5 22 z M 8 22 C 7.4477153 22 7 22.447715 7 23 C 7 23.552285 7.4477153 24 8 24 C 8.5522847 24 9 23.552285 9 23 C 9 22.447715 8.5522847 22 8 22 z M 24 22 C 23.447715 22 23 22.447715 23 23 C 23 23.552285 23.447715 24 24 24 C 24.552285 24 25 23.552285 25 23 C 25 22.447715 24.552285 22 24 22 z M 27 22 C 26.447715 22 26 22.447715 26 23 C 26 23.552285 26.447715 24 27 24 C 27.552285 24 28 23.552285 28 23 C 28 22.447715 27.552285 22 27 22 z" fill="#000000"/></svg>
