<?xml version="1.0" encoding="utf-8"?>
<svg xmlns="http://www.w3.org/2000/svg" viewBox="0 0 32 32" fill="#000000"><path style="text-indent:0;text-align:start;line-height:normal;text-transform:none;block-progression:tb;-inkscape-font-specification:Bitstream Vera Sans" d="M 5 4 L 5 5 L 5 6 L 5 6.34375 L 5.21875 6.625 L 13 16.34375 L 13 26 L 13 28 L 14.59375 26.8125 L 18.59375 23.8125 L 19 23.5 L 19 23 L 19 16.34375 L 26.78125 6.625 L 27 6.34375 L 27 6 L 27 5 L 27 4 L 26 4 L 6 4 L 5 4 z M 7.28125 6 L 24.71875 6 L 23.125 8 L 8.875 8 L 7.28125 6 z M 10.46875 10 L 21.53125 10 L 17.21875 15.375 L 17 15.65625 L 17 16 L 17 22.5 L 15 24 L 15 16 L 15 15.65625 L 14.78125 15.375 L 10.46875 10 z" overflow="visible" font-family="Bitstream Vera Sans" fill="#000000"/></svg>
