<?xml version="1.0" encoding="utf-8"?>
<svg xmlns="http://www.w3.org/2000/svg" viewBox="0 0 32 32" fill="#000000"><path style="text-indent:0;text-align:start;line-height:normal;text-transform:none;block-progression:tb;-inkscape-font-specification:Bitstream Vera Sans" d="M 1 4 L 1 5 L 1 18 L 1 19 L 1 25 L 1 26 L 2 26 L 4.15625 26 C 4.6033156 27.719842 6.1468019 29 8 29 C 9.8531978 29 11.396684 27.719842 11.84375 26 L 20.15625 26 C 20.603316 27.719842 22.146802 29 24 29 C 25.853198 29 27.396684 27.719842 27.84375 26 L 30 26 L 31 26 L 31 25 L 31 16 L 31 15.59375 L 30.71875 15.28125 L 25.65625 10.21875 C 26.459609 9.5753214 27 8.6002269 27 7.5 C 27 5.5788117 25.421188 4 23.5 4 L 2 4 L 1 4 z M 3 6 L 23.5 6 C 24.340812 6 25 6.6591883 25 7.5 C 25 8.3408117 24.340812 9 23.5 9 L 21 9 L 18 9 L 17 9 L 17 10 L 17 18 L 3 18 L 3 6 z M 5 9 L 5 10 L 5 15 L 5 16 L 6 16 L 14 16 L 15 16 L 15 15 L 15 10 L 15 9 L 14 9 L 6 9 L 5 9 z M 7 11 L 13 11 L 13 14 L 7 14 L 7 11 z M 19 11 L 21 11 L 23.5625 11 L 29 16.4375 L 29 24 L 27.84375 24 C 27.396684 22.280158 25.853198 21 24 21 C 22.146802 21 20.603316 22.280158 20.15625 24 L 19 24 L 19 11 z M 3 20 L 17 20 L 17 24 L 11.84375 24 C 11.396684 22.280158 9.8531978 21 8 21 C 6.1468019 21 4.6033156 22.280158 4.15625 24 L 3 24 L 3 20 z M 8 23 C 9.116414 23 10 23.883586 10 25 C 10 26.116414 9.116414 27 8 27 C 6.883586 27 6 26.116414 6 25 C 6 23.883586 6.883586 23 8 23 z M 24 23 C 25.116414 23 26 23.883586 26 25 C 26 26.116414 25.116414 27 24 27 C 22.883586 27 22 26.116414 22 25 C 22 23.883586 22.883586 23 24 23 z" fill="#000000"/></svg>
