<?xml version="1.0" encoding="utf-8"?>
<svg xmlns="http://www.w3.org/2000/svg" viewBox="0 0 32 32" fill="#000000"><path style="line-height:normal;text-indent:0;text-align:start;text-decoration-line:none;text-decoration-style:solid;text-decoration-color:#000;text-transform:none;block-progression:tb;isolation:auto;mix-blend-mode:normal" d="M 10 4 C 8.3550302 4 7 5.3550302 7 7 L 7 16.517578 C 6.4144093 17.145301 6 17.990635 6 19 C 6 19.353637 6.0535494 19.688075 6.1464844 20 L 3 20 C 3 20 5.661 28 16 28 C 26.339 28 29 20 29 20 L 25.853516 20 C 25.946451 19.688075 26 19.353637 26 19 C 26 17.990635 25.585591 17.145301 25 16.517578 L 25 7 C 25 5.3550302 23.64497 4 22 4 L 10 4 z M 10 6 L 22 6 C 22.56503 6 23 6.4349698 23 7 L 23 15.318359 C 22.319855 15.100926 21.629006 15 21 15 C 19.533354 15 18.256848 15.812472 17.560547 17 L 14.439453 17 C 13.743152 15.812472 12.466646 15 11 15 C 10.370994 15 9.6801448 15.100926 9 15.318359 L 9 7 C 9 6.4349698 9.4349698 6 10 6 z M 11 17 C 12.116666 17 13 17.883334 13 19 C 13 20.116666 12.116666 21 11 21 C 9.8835859 21 9 20.116414 9 19 C 9 17.883586 9.8835859 17 11 17 z M 21 17 C 22.116414 17 23 17.883586 23 19 C 23 20.116414 22.116414 21 21 21 C 19.883334 21 19 20.116666 19 19 C 19 18.860448 19.014675 18.724755 19.041016 18.59375 C 19.225358 17.676595 20.022917 17 21 17 z M 15.994141 19 L 16.003906 19 C 16.576906 19 17.058094 19.443 17.121094 20 L 17.144531 20 C 17.5944 21.715801 19.149665 23 21 23 C 21.998285 23 23.139997 22.770466 24.140625 22.164062 C 24.221882 22.114819 24.299904 22.055883 24.378906 22 L 25.498047 22 C 23.932047 23.851 21.031 26 16 26 C 10.956 26 8.0561406 23.852 6.4941406 22 L 7.6210938 22 C 7.7000957 22.055883 7.7781179 22.114819 7.859375 22.164062 C 8.8600031 22.770466 10.001715 23 11 23 C 12.850335 23 14.4056 21.715801 14.855469 20 L 14.873047 20 C 14.936047 19.443 15.421141 19 15.994141 19 z" font-weight="400" font-family="sans-serif" white-space="normal" overflow="visible" fill="#000000"/></svg>
