<?xml version="1.0" encoding="utf-8"?>
<svg xmlns="http://www.w3.org/2000/svg" viewBox="0 0 32 32" fill="#000000"><path style="text-indent:0;text-align:start;line-height:normal;text-transform:none;block-progression:tb;-inkscape-font-specification:Sans" d="M 13.65625 3 C 11.326555 3 9.368632 4.4970474 8.59375 6.5625 C 5.9386857 7.4720326 4 9.9283558 4 12.875 C 4 13.782555 4.2681827 14.619441 4.59375 15.40625 C 4.2748914 16.075157 4 16.771745 4 17.5625 C 4 19.250621 4.9257781 20.649547 6.1875 21.59375 C 6.15093 21.812087 6.09375 22.020712 6.09375 22.25 C 6.09375 24.466829 7.8943327 26.257244 10.09375 26.34375 C 10.696138 27.886994 12.157889 29 13.90625 29 C 14.687471 29 15.375117 28.7215 16 28.34375 C 16.624883 28.7215 17.312529 29 18.09375 29 C 19.828021 29 21.262326 27.897217 21.875 26.375 C 24.089012 26.30489 25.90625 24.477487 25.90625 22.25 C 25.90625 22.020712 25.84907 21.812255 25.8125 21.59375 C 27.074222 20.649547 28 19.250621 28 17.5625 C 28 16.771745 27.72489 16.075393 27.40625 15.40625 C 27.73064 14.619214 28 13.78186 28 12.875 C 28 9.9283558 26.061139 7.4718802 23.40625 6.5625 C 22.631424 4.4963242 20.673445 3 18.34375 3 C 17.480278 3 16.725451 3.3296751 16 3.6875 C 15.274549 3.3296751 14.519722 3 13.65625 3 z M 13.65625 5 C 14.331016 5 14.935363 5.1982729 15.46875 5.53125 L 16 5.84375 L 16.53125 5.53125 C 17.064637 5.1982729 17.668984 5 18.34375 5 C 19.960288 5 21.301604 6.0877443 21.6875 7.5625 L 21.84375 8.125 L 22.40625 8.28125 C 24.46747 8.8027536 26 10.654204 26 12.875 C 26 13.62898 25.817607 14.326868 25.5 14.96875 L 25.25 15.46875 L 25.53125 15.9375 C 25.822742 16.419996 26 16.964403 26 17.5625 C 26 18.793612 25.303917 19.844615 24.28125 20.375 L 23.53125 20.78125 L 23.78125 21.59375 C 23.85356 21.808602 23.90625 22.016353 23.90625 22.25 C 23.90625 23.43649 22.947982 24.40625 21.75 24.40625 C 21.627444 24.40625 21.50973 24.36805 21.375 24.34375 L 20.375 24.1875 L 20.21875 25.1875 C 20.063776 26.210464 19.179438 27 18.09375 27 C 17.540025 27 17.038224 26.778941 16.65625 26.4375 L 16 25.84375 L 15.34375 26.4375 C 14.961776 26.778941 14.459975 27 13.90625 27 C 12.820562 27 11.935645 26.212492 11.78125 25.1875 L 11.625 24.15625 L 10.625 24.34375 C 10.49027 24.36805 10.372556 24.375 10.25 24.375 C 9.0520184 24.375 8.09375 23.43649 8.09375 22.25 C 8.09375 22.016353 8.145844 21.811079 8.21875 21.59375 L 8.46875 20.78125 L 7.71875 20.375 C 6.696083 19.844615 6 18.793612 6 17.5625 C 6 16.964403 6.1777106 16.418481 6.46875 15.9375 L 6.75 15.46875 L 6.5 14.96875 C 6.182386 14.330196 6 13.630156 6 12.875 C 6 10.654204 7.5327734 8.802692 9.59375 8.28125 L 10.15625 8.125 L 10.3125 7.5625 C 10.698304 6.0888662 12.039712 5 13.65625 5 z M 15 9 L 15 19 L 17 19 L 17 9 L 15 9 z M 15 21 L 15 23 L 17 23 L 17 21 L 15 21 z" overflow="visible" font-family="Sans" fill="#000000"/></svg>
