<?xml version="1.0" encoding="utf-8"?>
<svg xmlns="http://www.w3.org/2000/svg" viewBox="0 0 32 32" fill="#000000"><path d="M 16 4 C 15.840947 4 15.688456 4.0236016 15.53125 4.03125 C 10.830934 4.2599313 7 7.8460036 7 12.34375 C 7 15.292858 8.7901466 17.882029 10.46875 19.75 C 12.147353 21.617971 13.8125 22.8125 13.8125 22.8125 L 14.09375 23 L 14.40625 23 L 17.59375 23 L 17.90625 23 L 18.1875 22.8125 C 18.1875 22.8125 19.852647 21.617971 21.53125 19.75 C 23.209853 17.882029 25 15.292858 25 12.34375 C 25 7.8359979 21.15216 4.2453688 16.4375 4.03125 C 16.28886 4.0100352 16.149373 4 16 4 z M 16 6 C 16.272014 6 17.11211 6.3113494 17.78125 7.15625 C 18.45039 8.0011506 19 9.3269059 19 11.21875 C 19 15.533989 16.725125 20.228698 16.34375 21 L 15.65625 21 C 15.274791 20.225944 13 15.515098 13 11.21875 C 13 9.3967139 13.574402 8.0536882 14.25 7.1875 C 14.925598 6.3213118 15.756843 6 16 6 z M 11.90625 7.21875 C 11.366153 8.3092974 11 9.6415424 11 11.21875 C 11 14.102017 11.863628 17.050124 12.6875 19.21875 C 12.439875 18.970664 12.205554 18.704543 11.9375 18.40625 C 10.416103 16.713221 9 14.448642 9 12.34375 C 9 10.240511 10.143657 8.3765345 11.90625 7.21875 z M 20.15625 7.25 C 21.885747 8.4107594 23 10.263563 23 12.34375 C 23 14.448642 21.583897 16.713221 20.0625 18.40625 C 19.799963 18.698404 19.555549 18.943502 19.3125 19.1875 C 20.130619 17.025821 21 14.088493 21 11.21875 C 21 9.6499175 20.668835 8.3281865 20.15625 7.25 z M 14 25 L 14 28 L 18 28 L 18 25 L 14 25 z" fill="#000000"/></svg>
