<?xml version="1.0" encoding="utf-8"?>
<svg xmlns="http://www.w3.org/2000/svg" viewBox="0 0 32 32" fill="#000000"><path style="text-indent:0;text-align:start;line-height:normal;text-transform:none;block-progression:tb;-inkscape-font-specification:Bitstream Vera Sans" d="M 13.5 4 C 11.578848 4 10 5.5788481 10 7.5 C 10 9.4211519 11.578848 11 13.5 11 C 15.421152 11 17 9.4211519 17 7.5 C 17 5.5788481 15.421152 4 13.5 4 z M 13.5 6 C 14.340272 6 15 6.6597281 15 7.5 C 15 8.3402719 14.340272 9 13.5 9 C 12.659728 9 12 8.3402719 12 7.5 C 12 6.6597281 12.659728 6 13.5 6 z M 21.6875 8.34375 L 21.6875 8.375 L 16.53125 11.40625 L 18.59375 12.3125 L 21.1875 10.78125 L 20.40625 14.53125 L 14.1875 12 C 13.122558 11.56533 11.882791 12.124628 11.53125 13.21875 L 10.25 17.21875 C 9.9675001 18.102123 10.128769 19.078003 10.65625 19.84375 L 12.34375 22.28125 L 11.71875 26 L 10.46875 26 L 11.3125 22.625 L 9.78125 20.40625 L 8.46875 26 L 4 26 L 4 28 L 17.28125 28 L 17.71875 26 L 13.75 26 L 14.375 22.25 L 14.46875 21.84375 L 14.21875 21.53125 L 12.28125 18.6875 C 12.104731 18.431247 12.06075 18.111127 12.15625 17.8125 L 13.4375 13.84375 L 19.96875 16.5 L 18.9375 21.40625 C 18.44721 21.414517 17.957831 21.544245 17.53125 21.8125 C 16.91525 22.1995 16.48775 22.7895 16.34375 23.4375 L 15.875 25 L 17.96875 25 L 18.28125 23.96875 C 18.37025 23.57875 18.77125 23.32125 19.15625 23.40625 C 19.54725 23.49625 19.80375 23.90625 19.71875 24.28125 L 18.90625 27.46875 L 18.78125 28 L 25 28 C 25.885 28 27.67725 27.23225 28.40625 26.90625 L 27.59375 25.09375 C 26.52275 25.57275 25.31 25.992 25 26 L 21.34375 26 L 21.65625 24.71875 C 21.881385 23.731257 21.50914 22.76643 20.8125 22.125 L 23.625 8.75 L 21.6875 8.34375 z" overflow="visible" font-family="Bitstream Vera Sans" fill="#000000"/></svg>
