<?xml version="1.0" encoding="utf-8"?>
<svg xmlns="http://www.w3.org/2000/svg" viewBox="0 0 32 32" fill="#000000"><path style="line-height:normal;text-indent:0;text-align:start;text-decoration-line:none;text-decoration-style:solid;text-decoration-color:#000;text-transform:none;block-progression:tb;isolation:auto;mix-blend-mode:normal" d="M 15 4 C 13.596221 4 12.293112 4.7394047 11.570312 5.9414062 L 11.595703 5.9003906 L 9.5527344 8.9511719 L 5.0253906 10.029297 L 5.0195312 10.029297 C 3.8383096 10.325399 3 11.399026 3 12.617188 L 3 15 C 3 16.093063 3.9069372 17 5 17 L 6.1875 17 C 6.6048587 18.15733 7.7068414 19 9 19 C 10.293159 19 11.395141 18.15733 11.8125 17 L 20.1875 17 C 20.604859 18.15733 21.706841 19 23 19 C 24.293159 19 25.395141 18.15733 25.8125 17 L 27 17 C 28.093063 17 29 16.093063 29 15 L 29 11.96875 C 29 10.749719 28.160528 9.6755659 26.978516 9.3808594 L 27.050781 9.4023438 L 25.886719 9.0195312 L 24.455078 5.984375 L 24.429688 5.9433594 C 23.707923 4.7395316 22.403779 4 21 4 L 15 4 z M 15 6 L 17 6 L 17 9 L 11.927734 9 L 13.271484 6.9921875 L 13.283203 6.9707031 C 13.646404 6.3667042 14.295779 6 15 6 z M 19 6 L 21 6 C 21.698489 6 22.33924 6.3635676 22.703125 6.9589844 L 23.666016 9 L 19 9 L 19 6 z M 9.5820312 11 L 25.511719 11 L 26.458984 11.3125 L 26.494141 11.322266 C 26.796126 11.397525 27 11.657781 27 11.96875 L 27 15 L 25.8125 15 C 25.395141 13.84267 24.293159 13 23 13 C 21.706841 13 20.604859 13.84267 20.1875 15 L 11.8125 15 C 11.395141 13.84267 10.293159 13 9 13 C 7.7068414 13 6.6048587 13.84267 6.1875 15 L 5 15 L 5 12.617188 C 5 12.305346 5.2030827 12.046601 5.5058594 11.970703 L 9.5820312 11 z M 9 15 C 9.5641294 15 10 15.435871 10 16 C 10 16.564129 9.5641294 17 9 17 C 8.4358706 17 8 16.564129 8 16 C 8 15.435871 8.4358706 15 9 15 z M 23 15 C 23.564129 15 24 15.435871 24 16 C 24 16.564129 23.564129 17 23 17 C 22.435871 17 22 16.564129 22 16 C 22 15.435871 22.435871 15 23 15 z M 13 18 L 13 20 L 15 20 L 15 26 L 5.5 26 L 5.5 28 L 26.5 28 L 26.5 26 L 17 26 L 17 20 L 19 20 L 19 18 L 13 18 z" fill="#000000"/></svg>
