<?xml version="1.0" encoding="utf-8"?>
<svg xmlns="http://www.w3.org/2000/svg" viewBox="0 0 32 32" fill="#000000"><path d="M 16 5 C 11.011 5 11 7 11 7 L 11 11 L 17 11 L 17 12 L 7 12 C 7 12 4 11.54 4 17 C 4 22.46 7 22 7 22 L 10 22 L 10 20.375 C 10 17.963 11.963 16 14.375 16 L 17.625 16 C 19.486 16 21 15.486 21 13.625 L 21 12 L 21 10 L 21 7 C 21 7 20.989 5 16 5 z M 13 7 C 13.552 7 14 7.448 14 8 C 14 8.552 13.552 9 13 9 C 12.448 9 12 8.552 12 8 C 12 7.448 12.448 7 13 7 z M 22 11 L 22 13.625 C 22 16.037 20.037 17 17.625 17 L 14.375 17 C 12.514 17 11 18.514 11 20.375 L 11 21 L 11 23 L 11 26 C 11 26 11.061 28 16 28 C 20.939 28 21 26 21 26 L 21 22 L 15 22 L 15 21 L 25 21 C 25 21 28 21.505 28 16 C 28 10.495 25 11 25 11 L 22 11 z M 19 24 C 19.552 24 20 24.448 20 25 C 20 25.552 19.552 26 19 26 C 18.448 26 18 25.552 18 25 C 18 24.448 18.448 24 19 24 z" fill="#000000"/></svg>
