<?xml version="1.0" encoding="utf-8"?>
<svg xmlns="http://www.w3.org/2000/svg" viewBox="0 0 32 32" fill="#000000"><path style="text-indent:0;text-align:start;line-height:normal;text-transform:none;block-progression:tb;-inkscape-font-specification:Sans" d="M 16 4 C 9.3844277 4 4 9.3844277 4 16 C 4 22.615572 9.3844277 28 16 28 C 21.885848 28 26.769385 23.724247 27.78125 18.125 C 27.906701 17.430808 28 16.729724 28 16 C 28 9.3844277 22.615572 4 16 4 z M 16 6 C 16.136405 6 16.271195 6.0258764 16.40625 6.03125 L 16.46875 7.78125 C 16.46875 7.78025 15.99875 7.85075 15.46875 7.71875 C 14.93875 7.58575 14.75 7.4375 14.75 7.4375 C 14.75 7.4375 15.00825 6.93625 15.40625 6.40625 C 15.523811 6.2353114 15.624488 6.1399416 15.71875 6.03125 C 15.812737 6.0286564 15.905371 6 16 6 z M 15.3125 6.03125 C 15.190186 6.1807812 15.074625 6.35725 15 6.53125 C 14.802 6.99425 14.46875 7.375 14.46875 7.375 C 14.46875 7.375 14.0775 7.1945 13.8125 7.0625 C 13.5475 6.8635 13.40625 6.71875 13.40625 6.71875 C 13.40625 6.71875 13.646422 6.4576406 14.09375 6.1875 C 14.10508 6.1853346 14.113656 6.1583773 14.125 6.15625 C 14.510472 6.0839631 14.912591 6.0581482 15.3125 6.03125 z M 16.71875 6.03125 C 17.033593 6.053389 17.350235 6.074546 17.65625 6.125 C 17.65752 6.1252094 17.65498 6.1560401 17.65625 6.15625 C 17.718602 6.2433171 17.782142 6.3532054 17.84375 6.46875 C 18.10875 6.99875 18.375 7.59375 18.375 7.59375 C 18.375 7.59375 17.99075 7.78125 17.59375 7.78125 C 17.19575 7.84725 16.71875 7.78125 16.71875 7.78125 L 16.71875 6.03125 z M 18.03125 6.1875 C 18.595897 6.3026394 19.130951 6.4819045 19.65625 6.6875 C 19.802816 6.8169544 19.90625 6.90625 19.90625 6.90625 C 19.90625 6.90625 19.7025 7.052 19.4375 7.25 C 19.1725 7.449 18.78125 7.53125 18.78125 7.53125 C 18.78125 7.53125 18.5115 6.92575 18.3125 6.59375 C 18.245869 6.4832563 18.139778 6.3252789 18.03125 6.1875 z M 13.5 6.3125 C 13.428044 6.3625261 13.28125 6.46875 13.28125 6.46875 C 13.28125 6.46875 13.260125 6.439125 13.21875 6.40625 C 13.315111 6.3783965 13.402452 6.3375178 13.5 6.3125 z M 13 6.4375 L 13.03125 6.4375 L 13.09375 6.53125 C 13.09375 6.53125 12.7025 6.794 12.4375 7.125 C 12.1065 7.456 11.96875 7.71875 11.96875 7.71875 L 12.15625 7.90625 C 12.15625 7.90625 12.36 7.5775 12.625 7.3125 C 12.89 7.0475 13.21875 6.78125 13.21875 6.78125 C 13.21875 6.78125 13.6145 7.1805 13.8125 7.3125 C 14.0775 7.4455 14.40625 7.59375 14.40625 7.59375 C 14.40625 7.59375 14.41425 7.76975 14.28125 7.96875 C 14.21525 8.16775 14.0625 8.5 14.0625 8.5 L 14.28125 8.65625 C 14.28125 8.65625 14.39925 8.1945 14.53125 8.0625 C 14.59725 7.8635 14.6875 7.71875 14.6875 7.71875 C 14.6875 7.71875 15.19225 7.9305 15.65625 8.0625 C 16.12025 8.1285 16.46875 8.125 16.46875 8.125 L 16.46875 9.96875 L 15.8125 9.96875 L 15.8125 10.3125 L 16.53125 10.3125 L 16.53125 12.625 L 15.9375 12.625 L 15.9375 12.875 L 16.53125 12.875 L 16.53125 13.75 L 16.78125 13.75 L 16.78125 12.875 L 18.125 12.875 C 18.32023 12.862037 18.274477 12.856275 18.4375 12.84375 C 18.035571 13.156778 17.787379 13.46926 17.625 13.625 L 17.625 13.65625 C 17.471075 13.810898 17.469297 13.836907 17.375 13.96875 C 17.215058 13.982642 17.059373 14 17.0625 14 C 17.0677 14 16.891685 13.98126 16.625 14 C 16.358315 14.01874 15.928051 14.134449 15.625 14.4375 C 15.376331 14.686169 15.417755 14.896879 15.375 15.125 L 15.125 15.28125 L 14.6875 15.5 L 14.625 16 C 14.53639 16.04693 14.448388 16.02073 14.375 16.09375 C 14.135716 16.331815 14.089235 16.585821 14.0625 16.71875 C 14.019313 16.933481 14.004545 16.946366 14 16.96875 C 14.011463 16.958497 14.014603 17.020262 13.9375 17.125 C 13.783295 17.334477 13.5 17.761417 13.5 18.34375 C 13.5 18.899308 13.722683 19.170275 13.90625 19.40625 C 13.988399 19.511852 14.066738 19.600342 14.15625 19.6875 C 14.010714 19.674933 13.85393 19.65625 13.71875 19.65625 C 13.207221 19.65625 12.785018 19.775734 12.5 19.875 C 12.286236 19.94945 12.110525 19.988109 12.15625 20 C 11.583418 19.983461 11.223161 19.869848 11 19.78125 L 11 17.25 C 11.02902 17.17754 11.06356 17.140774 11.125 17.03125 C 11.360344 17.07674 11.595507 17.15625 12.15625 17.15625 C 12.766678 17.15625 13.337673 16.957402 13.6875 16.625 C 14.037327 16.292598 14.175261 15.978586 14.21875 15.90625 L 14.21875 15.875 C 14.30848 15.80967 14.529611 15.563763 14.6875 15.3125 L 14.71875 15.34375 C 14.7524 15.29302 14.72405 15.29571 14.75 15.25 C 14.77144 15.20991 14.79578 15.19786 14.8125 15.15625 L 14.78125 15.125 C 14.927173 14.787435 14.96875 14.498838 14.96875 14.3125 C 15.328203 13.909575 15.8125 13.242343 15.8125 12.125 C 15.8125 10.831767 15.070101 9.8056219 14.21875 9.09375 C 13.367399 8.3818781 12.369332 7.9176822 11.4375 7.78125 C 11.019723 7.7200732 10.643655 7.74652 10.28125 7.8125 C 11.10505 7.2376484 12.019403 6.7447493 13 6.4375 z M 20.03125 7.0625 C 20.03125 7.0625 20.57525 7.5985 20.90625 8.0625 C 21.30425 8.5265 21.5625 8.96875 21.5625 8.96875 C 21.5625 8.96875 21.096 9.1725 20.5 9.4375 C 19.97 9.7025 19.25 9.78125 19.25 9.78125 C 19.25 9.78125 19.3195 9.37375 19.1875 8.84375 C 19.1215 8.31375 18.78125 7.84375 18.78125 7.84375 C 18.78125 7.84375 19.235 7.6365 19.5 7.4375 C 19.831 7.2385 20.03125 7.0625 20.03125 7.0625 z M 20.8125 7.25 C 21.430796 7.5888141 22.00163 7.9804773 22.53125 8.4375 C 22.274816 8.6128663 21.96875 8.78125 21.96875 8.78125 C 21.96875 8.78125 21.5775 8.24175 21.3125 7.84375 C 21.125843 7.6193108 20.994992 7.4762875 20.8125 7.25 z M 18.53125 7.96875 C 18.53125 7.96875 18.64575 8.18175 18.84375 8.84375 C 18.97675 9.43975 19.0625 9.90625 19.0625 9.90625 C 19.0625 9.90625 18.50675 10.02775 17.84375 10.09375 C 17.11575 10.16175 16.71875 10.03125 16.71875 10.03125 L 16.71875 8.125 C 16.71875 8.125 17.13075 8.191 17.59375 8.125 C 18.05775 8.125 18.53125 7.96875 18.53125 7.96875 z M 22.75 8.625 C 23.460017 9.2745155 24.063977 10.01399 24.5625 10.84375 C 24.446475 10.930302 24.348486 11.029046 24.21875 11.09375 C 23.75475 11.29275 22.96875 11.625 22.96875 11.625 C 22.96875 11.625 22.7025 10.68275 22.4375 10.21875 C 22.1725 9.75475 21.96875 9.1875 21.96875 9.1875 C 21.96875 9.1875 22.2315 9.04625 22.5625 8.78125 C 22.669256 8.6957807 22.663651 8.6922761 22.75 8.625 z M 21.6875 9.25 C 21.6875 9.25 22.01625 9.713 22.28125 10.375 C 22.54625 11.037 22.75 11.6875 22.75 11.6875 L 22.34375 11.875 L 22.4375 12.09375 L 22.875 11.96875 L 23.03125 12.21875 L 23.21875 12.15625 L 23.09375 11.875 C 23.09375 11.875 23.68875 11.7025 24.21875 11.4375 C 24.520838 11.26973 24.54444 11.232946 24.71875 11.125 C 25.170972 11.936563 25.537164 12.818281 25.75 13.75 C 25.051949 13.078186 24.140224 12.512516 23.03125 12.21875 C 22.839104 12.167851 22.641408 12.127629 22.4375 12.09375 C 22.080044 12.034359 21.705385 12 21.3125 12 C 20.673974 12 20.141699 12.085516 19.6875 12.21875 C 19.670394 11.924841 19.627014 11.54035 19.5625 11.21875 C 19.4965 10.55575 19.375 10.03125 19.375 10.03125 C 19.375 10.03125 19.8995 9.98375 20.5625 9.71875 C 21.1585 9.45375 21.6875 9.25 21.6875 9.25 z M 10.84375 9.75 C 10.942875 9.7444338 11.053331 9.7349291 11.15625 9.75 C 11.590418 9.813568 12.377351 10.156622 12.9375 10.625 C 13.497649 11.093378 13.8125 11.629233 13.8125 12.125 C 13.8125 12.742683 13.3125 13.21875 13.3125 13.21875 L 12.90625 13.5625 L 12.9375 14.09375 C 12.9375 14.09375 12.96875 14.201889 12.96875 14.3125 C 12.97124 14.30774 12.996978 14.317983 13 14.3125 C 12.970841 14.343215 12.958063 14.389838 12.9375 14.40625 C 12.93774 14.4088 12.904015 14.438549 12.90625 14.4375 C 12.789361 14.530267 12.637622 14.646092 12.5 14.875 C 12.362784 15.103233 12.342151 15.152121 12.34375 15.15625 C 12.333811 15.150644 12.282035 15.15625 12.15625 15.15625 C 11.931742 15.15625 11.554876 15 10.84375 15 C 10.344848 15 9.983599 15.265639 9.78125 15.46875 C 9.578901 15.671861 9.4767471 15.849875 9.375 16.03125 C 9.1715059 16.394 9.0625 16.75 9.0625 16.75 L 9 16.90625 L 9 17.0625 L 9 20.375 L 9 20.78125 L 9.28125 21.09375 C 9.28125 21.09375 9.6360693 21.415603 10.125 21.625 C 10.613931 21.834397 11.323749 22 12.28125 22 C 12.833876 22 12.961768 21.848984 13.15625 21.78125 C 13.350732 21.71352 13.521279 21.65625 13.71875 21.65625 C 13.923551 21.65625 14.164622 21.70473 14.375 21.75 C 14.32004 21.900573 14.34166 21.990294 14.09375 22.21875 C 13.893166 22.403591 13.607849 22.600898 13.1875 22.75 C 13.183024 22.750194 13.159743 22.75 13.15625 22.75 C 12.73891 22.894381 12.197203 23 11.46875 23 C 9.9228444 23 8.5996207 22.401569 8.125 22.15625 C 6.9622844 20.667075 6.2278111 18.841672 6.0625 16.84375 C 6.4682223 16.65239 6.9774973 16.406109 7.40625 16.15625 C 7.8036365 15.924745 8.095608 15.62672 8.375 15.25 C 8.654392 14.87328 8.9375 14.456745 8.9375 13.8125 C 8.9375 13.523009 8.9033539 13.345516 8.875 13.09375 C 8.8466461 12.841984 8.8125 12.545916 8.8125 12.25 C 8.8125 11.658168 8.9297713 11.103157 9.21875 10.71875 C 9.5680956 10.281738 10.149873 9.7889635 10.84375 9.75 z M 19.25 10.25 C 19.25 10.25 19.308 10.62275 19.375 11.21875 C 19.426373 11.637635 19.449205 12.054614 19.46875 12.28125 C 19.202112 12.376229 18.958037 12.492343 18.75 12.625 C 18.736868 12.633374 18.731622 12.647835 18.71875 12.65625 C 18.596182 12.668427 18.538084 12.674809 18.375 12.6875 C 17.514 12.7535 16.78125 12.6875 16.78125 12.6875 L 16.78125 10.3125 C 16.78125 10.3125 17.4735 10.375 17.9375 10.375 C 18.4015 10.375 19.25 10.25 19.25 10.25 z M 6.8125 12 C 6.809705 12.081405 6.8125 12.172089 6.8125 12.25 C 6.8125 12.659959 6.842979 13.028172 6.875 13.3125 C 6.907021 13.596828 6.9375 13.869991 6.9375 13.8125 C 6.9196248 13.850644 6.8664702 13.947593 6.78125 14.0625 C 6.650142 14.23928 6.4448635 14.415005 6.40625 14.4375 C 6.3419746 14.474957 6.2140304 14.54764 6.125 14.59375 C 6.2515207 13.687393 6.4609712 12.810735 6.8125 12 z M 21.3125 14 C 23.011739 14 24.037975 14.739946 24.75 15.65625 C 25.462025 16.572554 25.78125 17.747972 25.78125 18.125 C 24.813164 22.63776 20.80769 26 16 26 C 14.433484 26 12.943182 25.638426 11.625 25 C 12.344142 24.987487 12.976919 24.878471 13.53125 24.71875 C 14.077627 24.66852 14.644443 24.528085 15.21875 24.3125 C 15.572275 24.179792 15.905902 24.025632 16.21875 23.8125 C 16.531598 23.599368 17 23.305219 17 22.5625 C 17 22.63832 17.118681 22.042985 17.21875 21.46875 C 17.318819 20.894515 17.451891 20.042879 16.78125 19.34375 C 16.474075 19.023363 16.157502 18.820166 15.84375 18.53125 C 15.726093 18.422907 15.636736 18.333464 15.5625 18.25 C 15.64159 18.16166 15.744838 17.879074 15.84375 17.59375 C 15.881083 17.576647 16 17.53125 16 17.53125 L 16.46875 17.28125 L 16.53125 16.78125 L 16.53125 16.75 L 16.71875 16.65625 L 17.40625 16.28125 L 17.3125 15.96875 C 17.635748 15.946628 18 15.90625 18 15.90625 L 18.5 15.875 L 18.75 15.4375 C 18.75 15.4375 18.973178 15.120844 19.03125 15.0625 C 19.417037 14.692486 19.567656 14.468627 19.8125 14.3125 C 20.057344 14.156373 20.427549 14 21.3125 14 z" overflow="visible" font-family="Sans" fill="#000000"/></svg>
