<?xml version="1.0" encoding="utf-8"?>
<svg xmlns="http://www.w3.org/2000/svg" viewBox="0 0 32 32" fill="#000000"><path style="text-indent:0;text-align:start;line-height:normal;text-transform:none;block-progression:tb;-inkscape-font-specification:Bitstream Vera Sans" d="M 14 3 C 10.145666 3 7 6.1456661 7 10 L 7 10.15625 L 7 11 A 1.0001 1.0001 0 0 0 7 11.125 L 9 28.125 A 1.0001 1.0001 0 0 0 10 29 L 17.625 29 L 22 29 A 1.0001 1.0001 0 0 0 23 28.125 L 25 11.125 A 1.0001 1.0001 0 0 0 25 11 L 25 10 C 25 6.1456661 21.854334 3 18 3 L 14 3 z M 14 5 L 18 5 C 20.654274 5 22.788313 7.050044 22.96875 9.65625 C 21.954357 8.8596537 20.359734 8.3343341 18.34375 9 C 16.64475 6.883 14.1875 7 14.1875 7 C 14.1875 7 15.30925 8.86375 15.40625 11.46875 C 14.47425 10.27875 13.5885 9.24575 12.6875 8.71875 C 11.059625 9.189 9.8994185 10.174179 9.1875 10.9375 C 9.066714 10.763833 9 10.544775 9 10.15625 L 9 10 C 9 7.2263339 11.226334 5 14 5 z M 22.84375 12.375 L 21.09375 27 L 17.625 27 C 16.688745 27 15.850873 26.278038 15.1875 25 C 14.524127 23.721962 14.15625 22.007698 14.15625 20.65625 C 14.15625 16.983429 15.266294 15.856126 16.40625 14.375 L 16.40625 14.34375 C 16.563877 14.134194 17.098341 13.805294 17.875 13.5625 C 18.651659 13.319706 19.628774 13.137377 20.59375 12.9375 C 21.377793 12.7751 22.145396 12.622893 22.84375 12.375 z M 9.28125 13.40625 C 9.7881113 13.610339 10.324862 13.738452 10.84375 13.84375 C 11.709807 14.019499 12.561928 14.131354 13.25 14.28125 C 13.496667 14.334986 13.68785 14.406839 13.875 14.46875 C 13.001024 15.806137 12.15625 17.658428 12.15625 20.65625 C 12.15625 22.354802 12.557873 24.303038 13.40625 25.9375 C 13.601136 26.312962 13.837955 26.661132 14.09375 27 L 10.90625 27 L 9.28125 13.40625 z M 17 16 C 16.447715 16 16 16.447715 16 17 C 16 17.552285 16.447715 18 17 18 C 17.552285 18 18 17.552285 18 17 C 18 16.447715 17.552285 16 17 16 z M 19.5 18 C 19.223858 18 19 18.223858 19 18.5 C 19 18.776142 19.223858 19 19.5 19 C 19.776142 19 20 18.776142 20 18.5 C 20 18.223858 19.776142 18 19.5 18 z M 17.5 20 C 17.223858 20 17 20.223858 17 20.5 C 17 20.776142 17.223858 21 17.5 21 C 17.776142 21 18 20.776142 18 20.5 C 18 20.223858 17.776142 20 17.5 20 z" overflow="visible" font-family="Bitstream Vera Sans" fill="#000000"/></svg>
