<?xml version="1.0" encoding="utf-8"?>
<svg xmlns="http://www.w3.org/2000/svg" viewBox="0 0 32 32" fill="#000000"><path style="text-indent:0;text-align:start;line-height:normal;text-transform:none;block-progression:tb;-inkscape-font-specification:Sans" d="M 2 6 L 2 7 L 2 25 L 2 26 L 3 26 L 29 26 L 30 26 L 30 25 L 30 7 L 30 6 L 29 6 L 3 6 L 2 6 z M 4 8 L 28 8 L 28 24 L 4 24 L 4 8 z M 18.90625 10 L 10.6875 22 L 13.09375 22 L 21.3125 10 L 18.90625 10 z M 12 11 C 10.906937 11 10 11.906937 10 13 C 10 14.093063 10.906937 15 12 15 C 13.093063 15 14 14.093063 14 13 C 14 11.906937 13.093063 11 12 11 z M 20 17 C 18.906937 17 18 17.906937 18 19 C 18 20.093063 18.906937 21 20 21 C 21.093063 21 22 20.093063 22 19 C 22 17.906937 21.093063 17 20 17 z" overflow="visible" font-family="Sans" fill="#000000"/></svg>
