<?xml version="1.0" encoding="utf-8"?>
<svg xmlns="http://www.w3.org/2000/svg" viewBox="0 0 32 32" fill="#000000"><path style="text-indent:0;text-align:start;line-height:normal;text-transform:none;block-progression:tb;-inkscape-font-specification:Sans" d="M 9.09375 5 C 6.8512095 5 5 6.8512095 5 9.09375 L 5 22.90625 C 5 25.148791 6.8512095 27 9.09375 27 L 22.90625 27 C 25.148791 27 27 25.148791 27 22.90625 L 27 9.09375 C 27 6.8512095 25.148791 5 22.90625 5 L 9.09375 5 z M 9.09375 7 L 22.90625 7 C 24.067709 7 25 7.9322905 25 9.09375 L 25 22.90625 C 25 24.067709 24.067709 25 22.90625 25 L 9.09375 25 C 7.9322905 25 7 24.067709 7 22.90625 L 7 9.09375 C 7 7.9322905 7.9322905 7 9.09375 7 z M 12.09375 10.5625 L 12.09375 21.4375 L 16.59375 21.4375 C 18.64875 21.4375 20.84375 20.54475 20.84375 18.09375 C 20.84375 16.11075 19.295 15.61075 18.625 15.46875 L 18.625 15.4375 C 19.091 15.2425 20.125 14.57675 20.125 13.09375 C 20.125 11.49475 19.04575 10.5625 16.34375 10.5625 L 12.09375 10.5625 z M 14.875 12.5625 C 14.875 12.5625 15.90925 12.5625 16.15625 12.5625 C 17.28625 12.5625 17.34375 13.48025 17.34375 13.65625 C 17.34375 14.36325 16.8355 14.84375 16.1875 14.84375 C 16.0005 14.84375 14.875 14.875 14.875 14.875 L 14.875 12.5625 z M 14.875 16.71875 C 14.875 16.71875 16.24225 16.71075 16.53125 16.71875 C 16.82025 16.72675 18.03125 16.7865 18.03125 18.0625 C 18.03025 19.3355 16.771 19.4265 16.5 19.4375 C 16.229 19.4495 14.875 19.4375 14.875 19.4375 L 14.875 16.71875 z" overflow="visible" font-family="Sans" fill="#000000"/></svg>
