<?xml version="1.0" encoding="utf-8"?>
<svg xmlns="http://www.w3.org/2000/svg" viewBox="0 0 32 32" fill="#000000"><path style="text-indent:0;text-align:start;line-height:normal;text-transform:none;block-progression:tb;-inkscape-font-specification:Sans" d="M 7.0625 2 L 9.5625 3.8125 C 14.277772 7.2110418 15.708293 10.544428 16 11.28125 L 15.8125 11.46875 L 15.09375 12.1875 L 15.09375 12.21875 L 14.40625 12.90625 L 2.6875 25.0625 L 2 25.78125 L 2.6875 26.46875 L 5.53125 29.3125 L 6.25 30.03125 L 6.96875 29.28125 L 19.375 16.4375 L 19.6875 16.0625 L 19.78125 16 L 20.75 15.65625 L 20.9375 15.84375 L 20.5625 16.75 L 20.28125 17.375 L 20.75 17.84375 L 22.875 19.96875 L 23.59375 20.6875 L 24.3125 19.96875 L 29.25 15.03125 L 29.96875 14.3125 L 29.25 13.59375 L 27.125 11.46875 L 26.65625 11.03125 L 26.0625 11.25 L 25.15625 11.59375 L 24.9375 11.375 L 25.25 10.375 L 25.375 9.96875 L 25.1875 9.59375 C 25.1875 9.59375 24.130962 7.6353058 21.75 5.75 C 19.369038 3.8646942 15.594363 2 10.15625 2 L 7.0625 2 z M 13.09375 4.25 C 16.461676 4.7503529 18.892557 6.0149415 20.53125 7.3125 C 22.298059 8.7115042 22.999781 9.8435229 23.21875 10.21875 L 22.84375 11.375 L 22.6875 11.9375 L 23.09375 12.375 L 24.21875 13.5 L 24.6875 13.96875 L 25.3125 13.71875 L 26.1875 13.375 L 27.125 14.3125 L 23.59375 17.84375 L 22.65625 16.90625 L 23.03125 16 L 23.3125 15.375 L 22.8125 14.90625 L 21.6875 13.78125 L 21.25 13.3125 L 20.625 13.53125 L 18.84375 14.25 L 18.65625 14.3125 L 17.9375 13.625 L 17.21875 12.90625 L 17.9375 12.1875 L 18.375 11.75 L 18.15625 11.15625 C 18.15625 11.15625 16.812843 7.7606772 13.09375 4.25 z M 15.8125 14.3125 L 17.25 15.75 L 6.21875 27.15625 L 4.8125 25.75 L 15.8125 14.3125 z" overflow="visible" font-family="Sans" fill="#000000"/></svg>
