<?xml version="1.0" encoding="utf-8"?>
<svg xmlns="http://www.w3.org/2000/svg" viewBox="0 0 32 32" fill="#000000"><path d="M 7 4 C 5.3431458 4 4 5.3431458 4 7 C 4 8.6568542 5.3431458 10 7 10 C 8.6568542 10 10 8.6568542 10 7 C 10 5.3431458 8.6568542 4 7 4 z M 16 4 C 14.343146 4 13 5.3431458 13 7 C 13 8.6568542 14.343146 10 16 10 C 17.656854 10 19 8.6568542 19 7 C 19 5.3431458 17.656854 4 16 4 z M 25 4 C 23.343146 4 22 5.3431458 22 7 C 22 8.6568542 23.343146 10 25 10 C 26.656854 10 28 8.6568542 28 7 C 28 5.3431458 26.656854 4 25 4 z M 16 13 C 14.343146 13 13 14.343146 13 16 C 13 17.656854 14.343146 19 16 19 C 17.656854 19 19 17.656854 19 16 C 19 14.343146 17.656854 13 16 13 z M 25 13 C 23.343146 13 22 14.343146 22 16 C 22 17.656854 23.343146 19 25 19 C 26.656854 19 28 17.656854 28 16 C 28 14.343146 26.656854 13 25 13 z M 25 22 C 23.343146 22 22 23.343146 22 25 C 22 26.656854 23.343146 28 25 28 C 26.656854 28 28 26.656854 28 25 C 28 23.343146 26.656854 22 25 22 z" fill="#000000"/></svg>
