<?xml version="1.0" encoding="utf-8"?>
<svg xmlns="http://www.w3.org/2000/svg" viewBox="0 0 32 32" fill="#000000"><path style="text-indent:0;text-align:start;line-height:normal;text-transform:none;block-progression:tb;-inkscape-font-specification:Bitstream Vera Sans" d="M 5 6 C 4.1715729 6 3.5 6.6715729 3.5 7.5 C 3.5 8.3284271 4.1715729 9 5 9 C 5.8284271 9 6.5 8.3284271 6.5 7.5 C 6.5 6.6715729 5.8284271 6 5 6 z M 27 6 C 26.171573 6 25.5 6.6715729 25.5 7.5 C 25.5 8.3284271 26.171573 9 27 9 C 27.828427 9 28.5 8.3284271 28.5 7.5 C 28.5 6.6715729 27.828427 6 27 6 z M 3 10 L 3 12 L 4 12 L 4 24 L 3 24 L 3 26 L 7 26 L 7 24 L 6 24 L 6 12 L 7 12 L 7 10 L 3 10 z M 25 10 L 25 12 L 26 12 L 26 24 L 25 24 L 25 26 L 29 26 L 29 24 L 28 24 L 28 12 L 29 12 L 29 10 L 25 10 z M 8 10.125 L 8 12.59375 C 9.5 13.55475 12.362 15 16 15 C 19.638 15 22.5 13.55475 24 12.59375 L 24 10.125 L 23.84375 10.25 C 23.81075 10.279 20.532 13 16 13 C 11.468 13 8.18725 10.277 8.15625 10.25 L 8 10.125 z M 12.375 18 L 12.09375 18.5625 L 9.09375 24.5625 L 8.375 26 L 10 26 L 22 26 L 23.625 26 L 22.90625 24.5625 L 19.90625 18.5625 L 19.625 18 L 19 18 L 13 18 L 12.375 18 z M 13.625 20 L 18.375 20 L 20.375 24 L 11.625 24 L 13.625 20 z" fill="#000000"/></svg>
