<?xml version="1.0" encoding="utf-8"?>
<svg xmlns="http://www.w3.org/2000/svg" viewBox="0 0 32 32" fill="#000000"><path style="text-indent:0;text-align:start;line-height:normal;text-transform:none;block-progression:tb;-inkscape-font-specification:Sans" d="M 4 4 L 4 6 L 5 6 L 5 28 L 7 28 L 7 26 L 25 26 L 25 28 L 27 28 L 27 6 L 28 6 L 28 4 L 4 4 z M 7 6 L 15 6 L 15 24 L 7 24 L 7 6 z M 17 6 L 19 6 L 19 24 L 17 24 L 17 6 z M 21 6 L 25 6 L 25 9 L 21 9 L 21 6 z M 21 11 L 25 11 L 25 14 L 21 14 L 21 11 z M 11 13 L 11 17 L 13 17 L 13 13 L 11 13 z M 21 16 L 25 16 L 25 19 L 21 19 L 21 16 z M 21 21 L 25 21 L 25 24 L 21 24 L 21 21 z" fill="#000000"/></svg>
