<?xml version="1.0" encoding="utf-8"?>
<svg xmlns="http://www.w3.org/2000/svg" viewBox="0 0 32 32" fill="#000000"><path d="M 9.96875 2.71875 L 8.03125 3.28125 C 8.03125 3.28125 8.2901103 4.1337152 8.84375 5.40625 C 8.1642093 5.9136992 7.5580722 6.4880245 7 7.125 C 6.0551495 5.1290978 5.625 3.8125 5.625 3.8125 L 3.71875 4.375 C 3.71875 4.375 4.3018775 6.2961811 5.65625 8.96875 C 4.6172633 10.744214 4 12.799068 4 15 C 4 17.950196 5.0704936 20.657811 6.84375 22.75 L 2.0625 27.53125 L 3.46875 28.9375 L 8.25 24.15625 C 10.342189 25.929506 13.049804 27 16 27 C 18.249713 27 20.354615 26.363261 22.15625 25.28125 C 23.577491 25.930396 25.095878 26.503165 26.71875 26.96875 L 27.28125 25.03125 C 26.130831 24.701206 25.067382 24.302049 24.03125 23.875 C 24.681386 23.286127 25.27238 22.654484 25.78125 21.9375 C 26.717281 22.314698 27.692838 22.670088 28.71875 22.96875 L 29.28125 21.03125 C 28.421202 20.780874 27.604343 20.493726 26.8125 20.1875 C 27.571934 18.614041 28 16.86063 28 15 C 28 8.3844277 22.615572 3 16 3 C 14.031024 3 12.172612 3.4680711 10.53125 4.3125 C 10.117121 3.3220155 9.96875 2.71875 9.96875 2.71875 z M 16 5 C 21.534692 5 26 9.4653079 26 15 C 26 15.432398 25.959139 15.863525 25.90625 16.28125 C 20.303147 13.579669 16.674917 9.5767722 14.40625 6.15625 C 13.71125 6.28125 13.03625 6.476 12.40625 6.75 C 14.849488 10.585864 18.963979 15.226304 25.46875 18.25 C 24.641627 20.66404 22.912003 22.633968 20.6875 23.8125 C 14.322182 20.52546 10.231325 15.555075 7.75 11.4375 C 7.393 12.2585 7.1605 13.1365 7.0625 14.0625 C 9.5064533 17.707482 13.087077 21.733298 18.21875 24.75 C 17.506008 24.910486 16.762168 25 16 25 C 10.465308 25 6 20.534692 6 15 C 6 9.4653079 10.465308 5 16 5 z M 12.46875 10.25 C 12.321844 10.263016 12.1755 10.29775 12.03125 10.375 C 11.50025 10.66 11.31175 11.25425 11.59375 11.78125 C 11.76675 12.10525 12.07625 12.29425 12.40625 12.28125 C 12.40625 12.28125 12.40425 12.3085 12.40625 12.3125 C 11.83425 12.6325 11.36025 12.59975 11.15625 12.21875 C 11.03925 12.00175 11.06475 11.777 11.21875 11.625 L 10.90625 11.03125 C 10.48625 11.35725 10.37425 11.93975 10.65625 12.46875 C 11.04425 13.19275 11.85725 13.33875 12.78125 12.84375 C 13.16025 12.64075 13.43775 12.37575 13.59375 12.09375 C 13.81575 11.72675 13.80775 11.30625 13.59375 10.90625 C 13.344 10.43975 12.909469 10.210953 12.46875 10.25 z M 12.5625 10.875 C 12.780422 10.855313 13.011 10.97375 13.125 11.1875 C 13.278 11.4725 13.156 11.7865 12.875 11.9375 C 12.596 12.0875 12.28 12.00875 12.125 11.71875 C 11.97 11.42875 12.05875 11.0895 12.34375 10.9375 C 12.413 10.90075 12.489859 10.881562 12.5625 10.875 z M 14.375 12.78125 C 14.0865 12.74425 13.78275 12.82175 13.53125 13.03125 C 13.06825 13.41725 13.02325 14.041 13.40625 14.5 C 13.64025 14.782 13.93 14.8915 14.25 14.8125 L 14.28125 14.8125 C 14.28125 14.8125 14.27825 14.83975 14.28125 14.84375 C 13.78625 15.27275 13.30825 15.36425 13.03125 15.03125 C 12.87325 14.84125 12.84775 14.58625 12.96875 14.40625 L 12.5625 13.90625 C 12.2175 14.30925 12.242 14.88475 12.625 15.34375 C 13.151 15.97575 13.945 15.95125 14.75 15.28125 C 15.08 15.00625 15.31025 14.71425 15.40625 14.40625 C 15.54925 14.00225 15.44725 13.599 15.15625 13.25 C 14.93075 12.9785 14.6635 12.81825 14.375 12.78125 z M 14.375 13.375 C 14.51775 13.38975 14.6465 13.46975 14.75 13.59375 C 14.957 13.84275 14.9325 14.20225 14.6875 14.40625 C 14.4445 14.60825 14.11725 14.5655 13.90625 14.3125 C 13.69525 14.0595 13.72075 13.73825 13.96875 13.53125 C 14.08925 13.43025 14.23225 13.36025 14.375 13.375 z M 16.28125 14.9375 C 15.9915 14.9525 15.7095 15.09325 15.5 15.34375 C 15.114 15.80375 15.168 16.4295 15.625 16.8125 C 15.906 17.0475 16.23125 17.10375 16.53125 16.96875 C 16.53125 16.96875 16.5595 16.96575 16.5625 16.96875 C 16.1535 17.47875 15.705 17.651 15.375 17.375 C 15.186 17.217 15.1015 16.97925 15.1875 16.78125 L 14.6875 16.375 C 14.4205 16.833 14.542 17.39925 15 17.78125 C 15.627 18.30625 16.42375 18.14475 17.09375 17.34375 C 17.36875 17.01575 17.5225 16.66275 17.5625 16.34375 C 17.6315 15.92275 17.50325 15.541 17.15625 15.25 C 16.88675 15.0245 16.571 14.9225 16.28125 14.9375 z M 16.375 15.53125 C 16.517625 15.520125 16.689 15.55275 16.8125 15.65625 C 17.0595 15.86225 17.079 16.22475 16.875 16.46875 C 16.672 16.71075 16.34575 16.74225 16.09375 16.53125 C 15.84175 16.32025 15.793 15.96575 16 15.71875 C 16.101 15.59875 16.232375 15.542375 16.375 15.53125 z M 19.9375 17.25 C 19.474188 17.193516 19.03675 17.4065 18.8125 17.84375 C 18.5375 18.37875 18.718 18.978 19.25 19.25 C 19.576 19.418 19.9235 19.3855 20.1875 19.1875 C 20.1875 19.1875 20.21475 19.21675 20.21875 19.21875 C 19.93175 19.80675 19.51 20.04175 19.125 19.84375 C 18.906 19.73175 18.80375 19.5245 18.84375 19.3125 L 18.25 19.03125 C 18.091 19.53825 18.342 20.06975 18.875 20.34375 C 19.605 20.71875 20.3345 20.3695 20.8125 19.4375 C 21.0085 19.0555 21.0945 18.695 21.0625 18.375 C 21.0375 17.947 20.81025 17.61325 20.40625 17.40625 C 20.2495 17.32575 20.091938 17.268828 19.9375 17.25 z M 19.9375 17.8125 C 20.011375 17.819141 20.08425 17.83825 20.15625 17.875 C 20.44425 18.022 20.55225 18.37225 20.40625 18.65625 C 20.26225 18.93825 19.95025 19.026 19.65625 18.875 C 19.36225 18.724 19.25925 18.413 19.40625 18.125 C 19.51425 17.915 19.715875 17.792578 19.9375 17.8125 z M 17.03125 18.46875 C 16.93825 18.4875 16.873 18.533 16.8125 18.625 C 16.6915 18.809 16.71125 19.02825 16.90625 19.15625 C 17.10225 19.28525 17.3165 19.2465 17.4375 19.0625 C 17.5585 18.8785 17.5095 18.66025 17.3125 18.53125 C 17.215 18.46725 17.12425 18.45 17.03125 18.46875 z" fill="#000000"/></svg>
