<?xml version="1.0" encoding="utf-8"?>
<svg xmlns="http://www.w3.org/2000/svg" viewBox="0 0 32 32" fill="#000000"><path d="M 16 7 C 14.542 7 13.22825 7.79725 12.53125 9.03125 C 12.35625 9.00725 12.177 9 12 9 C 10.142 9 8.60325 10.28 8.15625 12 L 10.28125 12 C 10.76025 11.208 11.781 10.76825 12.75 11.15625 L 13.78125 11.5625 L 14.09375 10.46875 C 14.32975 9.59675 15.106 9 16 9 C 16.881 9 17.64925 9.5835 17.90625 10.4375 L 18.0625 10.9375 L 18.5625 11.09375 C 18.7145 11.13875 18.869 11.20525 19 11.28125 L 19.5 11.5625 L 20 11.28125 C 20.321 11.09425 20.658 11 21 11 C 21.737 11 22.37175 11.405 22.71875 12 L 24.84375 12 C 24.39675 10.28 22.858 9 21 9 C 20.516 9 20.04675 9.074 19.59375 9.25 C 18.93675 7.873 17.558 7 16 7 z M 7.3125 13 C 6.0945392 13 4.9841463 13.732979 4.53125 14.875 C 3.9137282 16.432365 3 19.153992 3 22 L 3 24 L 3 25 L 4 25 L 28 25 L 29 25 L 29 24 L 29 22 C 29 19.165393 28.085696 16.436125 27.46875 14.875 C 27.01733 13.731402 25.906785 13 24.6875 13 L 7.3125 13 z M 7.3125 15 L 24.6875 15 C 25.102215 15 25.47642 15.248598 25.625 15.625 C 26.192054 17.059875 27 19.606607 27 22 L 27 23 L 5 23 L 5 22 C 5 19.592008 5.8085218 17.053635 6.375 15.625 C 6.5241037 15.249021 6.8984608 15 7.3125 15 z M 12.5 17 C 11.671573 17 11 17.671573 11 18.5 C 11 18.882538 11.139285 19.235032 11.375 19.5 C 11.139285 19.764968 11 20.117462 11 20.5 C 11 21.328427 11.671573 22 12.5 22 C 13.328427 22 14 21.328427 14 20.5 C 14 20.327411 13.959892 20.154319 13.90625 20 L 18.09375 20 C 18.040108 20.154319 18 20.327411 18 20.5 C 18 21.328427 18.671573 22 19.5 22 C 20.328427 22 21 21.328427 21 20.5 C 21 20.117462 20.860715 19.764968 20.625 19.5 C 20.860715 19.235032 21 18.882538 21 18.5 C 21 17.671573 20.328427 17 19.5 17 C 18.844162 17 18.29759 17.413588 18.09375 18 L 13.90625 18 C 13.70241 17.413588 13.155838 17 12.5 17 z" fill="#000000"/></svg>
