<?xml version="1.0" encoding="utf-8"?>
<svg xmlns="http://www.w3.org/2000/svg" viewBox="0 0 32 32" fill="#000000"><path style="text-indent:0;text-align:start;line-height:normal;text-transform:none;block-progression:tb;-inkscape-font-specification:Bitstream Vera Sans" d="M 3.71875 2.28125 L 2.28125 3.71875 L 28.28125 29.71875 L 29.71875 28.28125 L 23.125 21.6875 C 26.438009 19.619237 28.637904 16.903308 28.78125 16.71875 L 29 16.4375 L 29 15.53125 L 28.75 15.25 C 28.498 14.954 22.523 8 16 8 C 14.09898 8 12.321843 8.5299413 10.71875 9.28125 L 3.71875 2.28125 z M 16 10 C 20.647 10 25.28 14.48125 26.75 16.03125 C 25.939216 16.947677 24.097877 18.831819 21.6875 20.25 L 19.4375 18 C 20.336049 16.467773 20.127859 14.471609 18.8125 13.15625 C 17.497982 11.841732 15.532431 11.664525 14 12.5625 L 12.25 10.8125 C 13.432058 10.336241 14.683189 10 16 10 z M 7.75 11.03125 C 5.072 12.95725 3.34575 15.11925 3.21875 15.28125 L 3 15.53125 L 3 16.46875 L 3.25 16.75 C 3.512 17.046 9.719 24 16 24 C 17.399 24 18.75 23.72625 20 23.28125 L 19 22.28125 L 9.1875 12.46875 L 7.75 11.03125 z M 8.375 13.09375 L 17.1875 21.90625 C 16.799604 21.960411 16.398087 22 16 22 C 15.514387 22 15.019471 21.940233 14.53125 21.84375 L 6.96875 14.25 C 7.3844014 13.870598 7.8637064 13.489643 8.375 13.09375 z M 6.21875 14.9375 L 12.53125 21.21875 C 9.2880789 19.866405 6.3781317 17.12279 5.25 15.96875 C 5.4859403 15.702668 5.8213629 15.332704 6.21875 14.9375 z" overflow="visible" font-family="Bitstream Vera Sans" fill="#000000"/></svg>
