<?xml version="1.0" encoding="utf-8"?>
<svg xmlns="http://www.w3.org/2000/svg" viewBox="0 0 32 32" fill="#000000"><path style="line-height:normal;text-indent:0;text-align:start;text-decoration-line:none;text-decoration-style:solid;text-decoration-color:#000;text-transform:none;block-progression:tb;isolation:auto;mix-blend-mode:normal" d="M 5 5 L 5 6 L 5 15 L 6 15 L 6 17 L 4 17 L 4 18 L 4 25 L 6 25 L 6 27 L 10 27 L 10 25 L 14 25 L 14 27 L 18 27 L 18 25 L 22 25 L 22 27 L 26 27 L 26 25 L 28 25 L 28 17 L 26 17 L 26 15 L 27 15 L 27 5 L 21 5 L 21 6 L 21 15 L 22 15 L 22 17 L 18 17 L 18 15 L 19 15 L 19 5 L 13 5 L 13 6 L 13 15 L 14 15 L 14 17 L 10 17 L 10 15 L 11 15 L 11 5 L 5 5 z M 7 7 L 9 7 L 9 13 L 7 13 L 7 7 z M 15 7 L 17 7 L 17 13 L 15 13 L 15 7 z M 23 7 L 25 7 L 25 13 L 23 13 L 23 7 z M 6 19 L 26 19 L 26 23 L 6 23 L 6 19 z" fill="#000000"/></svg>
