<?xml version="1.0" encoding="utf-8"?>
<svg xmlns="http://www.w3.org/2000/svg" viewBox="0 0 32 32" fill="#000000"><path style="line-height:normal;text-indent:0;text-align:start;text-decoration-line:none;text-decoration-style:solid;text-decoration-color:#000;text-transform:none;block-progression:tb;isolation:auto;mix-blend-mode:normal" d="M 0 9 L 0 11 L 3 11 L 3 14 L 0 14 L 0 16 L 21.933594 16 L 28.873047 16.992188 L 28.888672 16.994141 C 29.412051 17.05243 30 17.626731 30 18 L 29 18 L 29 20 L 30 20 L 30 21 L 27.644531 21 C 27.0777 19.824694 25.883152 19 24.5 19 C 23.116848 19 21.9223 19.824694 21.355469 21 L 0.08203125 21 L 0.08203125 23 L 21.050781 23 C 21.298177 24.685411 22.750067 26 24.5 26 C 26.249933 26 27.701823 24.685411 27.949219 23 L 30 23 C 31.093063 23 32 22.093063 32 21 L 32 18 C 32 16.335269 30.613944 15.173476 29.111328 15.005859 L 22.503906 14.0625 L 19.382812 10.548828 C 18.535086 9.5915567 17.326978 9 16 9 L 0 9 z M 5 11 L 12 11 L 12 14 L 5 14 L 5 11 z M 14 11 L 16 11 C 16.763022 11 17.372446 11.292318 17.886719 11.873047 L 17.886719 11.875 L 19.775391 14 L 14 14 L 14 11 z M 24.5 21 C 25.340272 21 26 21.659728 26 22.5 C 26 23.340272 25.340272 24 24.5 24 C 23.659728 24 23 23.340272 23 22.5 C 23 21.659728 23.659728 21 24.5 21 z" fill="#000000"/></svg>
