<?xml version="1.0" encoding="utf-8"?>
<svg xmlns="http://www.w3.org/2000/svg" viewBox="0 0 32 32" fill="#000000"><path style="line-height:normal;text-indent:0;text-align:start;text-decoration-line:none;text-decoration-style:solid;text-decoration-color:#000;text-transform:none;block-progression:tb;isolation:auto;mix-blend-mode:normal" d="M 1 10 L 1 11 L 1 22 L 31 22 L 31 10 L 1 10 z M 3 12 L 29 12 L 29 20 L 3 20 L 3 12 z M 5 14 L 5 18 L 9 18 L 9 14 L 5 14 z M 11 14 L 11 18 L 15 18 L 15 14 L 11 14 z M 19 14 C 17.895 14 17 14.895 17 16 C 17 17.105 17.895 18 19 18 C 20.105 18 21 17.105 21 16 C 21 14.895 20.105 14 19 14 z M 23 14 L 23 18 L 27 18 L 27 14 L 23 14 z" font-weight="400" font-family="sans-serif" white-space="normal" overflow="visible" fill="#000000"/></svg>
