<?xml version="1.0" encoding="utf-8"?>
<svg xmlns="http://www.w3.org/2000/svg" viewBox="0 0 32 32" fill="#000000"><path style="text-indent:0;text-align:start;line-height:normal;text-transform:none;block-progression:tb;-inkscape-font-specification:Sans" d="M 14.6875 4.125 L 14.03125 6.75 L 12.3125 13.625 L 6.40625 11.09375 L 4.25 10.15625 L 5.0625 12.34375 L 7.71875 19.375 L 2.6875 21.0625 L 0.8125 21.6875 L 2.4375 22.8125 L 8.4375 27.03125 L 9.5625 25.375 L 5.1875 22.3125 L 9.3125 20.9375 L 10.3125 20.625 L 9.9375 19.65625 L 7.75 13.84375 L 12.59375 15.90625 L 13.6875 16.375 L 13.96875 15.25 L 15.3125 9.875 L 18.09375 15.4375 L 18.5625 16.34375 L 19.4375 15.90625 L 24.96875 13.15625 L 22.09375 19.59375 L 21.625 20.59375 L 22.6875 20.9375 L 27 22.375 L 23.3125 25.53125 L 24.59375 27.0625 L 29.65625 22.75 L 31 21.625 L 29.3125 21.0625 L 24.34375 19.40625 L 27.90625 11.40625 L 29.03125 8.84375 L 26.5625 10.09375 L 19.4375 13.65625 L 15.90625 6.5625 L 14.6875 4.125 z M 15.90625 15.0625 L 15 21 L 12 18 L 14 23 L 10 23 L 14 25 L 11 27 L 22 27 L 19 25 L 23 23 L 19 23 L 21 18 L 17 21 L 15.90625 15.0625 z" overflow="visible" font-family="Sans" fill="#000000"/></svg>
