<?xml version="1.0" encoding="utf-8"?>
<svg xmlns="http://www.w3.org/2000/svg" viewBox="0 0 32 32" fill="#000000"><path style="text-indent:0;text-align:start;line-height:normal;text-transform:none;block-progression:tb;-inkscape-font-specification:Bitstream Vera Sans" d="M 16 4.40625 L 15.21875 5.375 L 11.21875 10.375 L 11 10.65625 L 11 11 L 11 15.9375 L 7.46875 18.15625 L 7 18.4375 L 7 19 L 7 26 L 7 27 L 8 27 L 14 27 L 15 27 L 15 26 L 15 23 C 15 22.43497 15.43497 22 16 22 C 16.56503 22 17 22.43497 17 23 L 17 26 L 17 27 L 18 27 L 24 27 L 25 27 L 25 26 L 25 19 L 25 18.4375 L 24.53125 18.15625 L 21 15.9375 L 21 11 L 21 10.65625 L 20.78125 10.375 L 16.78125 5.375 L 16 4.40625 z M 16 7.59375 L 19 11.34375 L 19 14.6875 L 17 13.4375 L 17 12 C 17 11.448 16.552 11 16 11 C 15.448 11 15 11.448 15 12 L 15 13.4375 L 13 14.6875 L 13 11.34375 L 16 7.59375 z M 16 15.1875 L 23 19.5625 L 23 25 L 19 25 L 19 23 C 19 21.35503 17.64497 20 16 20 C 14.35503 20 13 21.35503 13 23 L 13 25 L 9 25 L 9 19.5625 L 16 15.1875 z M 10 21 L 10 23 L 12 23 L 12 21 L 10 21 z M 20 21 L 20 23 L 22 23 L 22 21 L 20 21 z" overflow="visible" font-family="Bitstream Vera Sans" fill="#000000"/></svg>
