<?xml version="1.0" encoding="utf-8"?>
<svg xmlns="http://www.w3.org/2000/svg" viewBox="0 0 32 32" fill="#000000"><path style="text-indent:0;text-align:start;line-height:normal;text-transform:none;block-progression:tb;-inkscape-font-specification:Sans" d="M 13 3 C 11.747687 3 10.607742 3.5746009 9.78125 4.4375 C 8.9547576 5.3003991 8.3925159 6.4196246 8.03125 7.71875 L 4.3125 20.96875 L 4.40625 21 C 4.180721 21.629416 4 22.29523 4 23 C 4 24.555557 4.425994 26.052261 5.4375 27.1875 C 6.449006 28.322739 8.0147653 29 10 29 C 10.632951 29 11.693456 28.876311 12.78125 28.34375 C 13.869044 27.811189 15 26.673055 15 25 L 15 24.96875 L 15 24.9375 C 15 24.9375 14.96468 23.925356 14.28125 22.9375 C 13.597818 21.949644 12.184308 21 10 21 C 9.4872887 21 9.0984717 21.186758 8.71875 21.5 C 8.3390283 21.813242 8 22.34413 8 23 C 8 23.467928 8.1666431 23.919857 8.5 24.3125 C 8.8333569 24.705143 9.3846491 25 10 25 L 10 23.03125 C 9.968472 23.05726 10 23.01287 10 23 C 11.664692 23 12.270682 23.550356 12.625 24.0625 C 12.969611 24.560612 12.998396 25.006557 13 25.03125 C 13.000045 25.031946 13 25.0625 13 25.0625 C 12.9765 25.880762 12.561611 26.241649 11.90625 26.5625 C 11.230794 26.893189 10.314049 27 10 27 C 8.4352347 27 7.507244 26.549511 6.90625 25.875 C 6.305256 25.200489 6 24.205443 6 23 C 6 20.779625 7.7796254 19 10 19 C 13.384001 19 15.227951 20.972368 17.21875 23.59375 L 17.1875 23.59375 C 17.1875 23.59375 20.228535 28 25 28 L 25.875 28 L 26 27.125 L 27.875 12.125 L 28 11 L 26.875 11 C 23.009107 11 20.75 8.34375 20.75 8.34375 C 19.798997 7.0821485 19.088935 5.7921023 17.96875 4.75 C 16.831656 3.6921678 15.236464 3 13 3 z M 13 5 C 14.857536 5 15.761844 5.4448322 16.59375 6.21875 C 17.425656 6.9926678 18.16112 8.2011165 19.21875 9.59375 L 19.21875 9.625 L 19.25 9.65625 C 19.25 9.65625 21.694799 12.324393 25.75 12.8125 L 24.125 25.8125 C 21.096885 25.281099 18.8125 22.40625 18.8125 22.40625 L 18.78125 22.40625 C 16.712049 19.681632 14.201999 17 10 17 C 9.02195 17 8.1302108 17.299628 7.3125 17.71875 L 9.96875 8.28125 C 10.263484 7.2213754 10.725742 6.3598509 11.25 5.8125 C 11.774258 5.2651491 12.311313 5 13 5 z" overflow="visible" font-family="Sans" fill="#000000"/></svg>
