<?xml version="1.0" encoding="utf-8"?>
<svg xmlns="http://www.w3.org/2000/svg" viewBox="0 0 32 32" fill="#000000"><path style="text-indent:0;text-align:start;line-height:normal;text-transform:none;block-progression:tb;-inkscape-font-specification:Bitstream Vera Sans" d="M 14 4 C 8.4889972 4 4 8.4889972 4 14 C 4 17.773778 6.1221027 21.047927 9.21875 22.75 C 9.2310884 22.756782 9.2376302 22.774519 9.25 22.78125 C 10.94669 25.885467 14.218532 28 18 28 C 23.511334 28 28 23.511334 28 18 C 28 14.218532 25.885467 10.94669 22.78125 9.25 C 22.774519 9.2376302 22.756782 9.2310884 22.75 9.21875 C 21.047927 6.1221027 17.773778 4 14 4 z M 14 6 C 18.430123 6 22 9.5698774 22 14 C 22 18.430123 18.430123 22 14 22 C 9.5698774 22 6 18.430123 6 14 C 6 9.5698774 9.5698774 6 14 6 z M 14 11 C 12.35499 11 11 12.35499 11 14 C 11 15.64501 12.35499 17 14 17 C 15.64501 17 17 15.64501 17 14 C 17 12.35499 15.64501 11 14 11 z M 23.875 12.59375 C 25.183573 14.018146 26 15.907529 26 18 C 26 22.430666 22.430666 26 18 26 C 15.907529 26 14.018146 25.183573 12.59375 23.875 C 13.054001 23.940248 13.522119 24 14 24 C 19.511003 24 24 19.511003 24 14 C 24 13.522119 23.940248 13.054001 23.875 12.59375 z M 14 13 C 14.564128 13 15 13.435872 15 14 C 15 14.564128 14.564128 15 14 15 C 13.435872 15 13 14.564128 13 14 C 13 13.435872 13.435872 13 14 13 z" overflow="visible" font-family="Bitstream Vera Sans" fill="#000000"/></svg>
