<?xml version="1.0" encoding="utf-8"?>
<svg xmlns="http://www.w3.org/2000/svg" viewBox="0 0 32 32" fill="#000000"><path d="M 8 7 L 7 11 L 9 11 L 10 7 L 8 7 z M 11.8125 7 L 10.8125 11 L 12.8125 11 L 13.8125 7 L 11.8125 7 z M 15.5 7 L 14.5 11 L 16.5 11 L 17.5 7 L 15.5 7 z M 19.1875 7 L 18.1875 11 L 20.1875 11 L 21.1875 7 L 19.1875 7 z M 23 7 L 22 11 L 24 11 L 25 7 L 23 7 z M 4 9 L 4 20 C 4 21.7 5.3 23 7 23 L 10 23 L 8 21 L 7 21 C 6.4 21 6 20.6 6 20 L 6 9 L 4 9 z M 26 9 L 26 20 C 26 20.6 25.6 21 25 21 L 24 21 L 22 23 L 25 23 C 26.7 23 28 21.7 28 20 L 28 9 L 26 9 z M 12 16 C 10.354545 16 9 17.354545 9 19 C 9 20.269385 9.9073091 21.158958 11.03125 21.59375 C 11.030199 21.714971 11 21.907602 11 22 C 11 24.745455 13.254545 27 16 27 C 18.745455 27 21 24.745455 21 22 C 21 21.770152 20.98831 21.749684 20.96875 21.59375 C 22.092691 21.158958 23 20.269385 23 19 C 23 17.354545 21.645455 16 20 16 C 18.922797 16 18.103674 16.638594 17.5625 17.46875 C 17.046424 17.279034 16.542234 17 16 17 C 15.457766 17 14.953576 17.279034 14.4375 17.46875 C 13.896326 16.638594 13.077203 16 12 16 z M 12 18 C 12.533333 18 12.929932 18.356569 13.03125 18.8125 L 13.28125 20 L 12.09375 20 L 12 20 C 11.445455 20 11 19.554545 11 19 C 11 18.445455 11.445455 18 12 18 z M 20 18 C 20.554545 18 21 18.445455 21 19 C 21 19.554545 20.554545 20 20 20 L 19.90625 20 L 18.90625 20 L 18.90625 21 C 18.90625 21.522222 19 21.766667 19 22 C 19 23.654545 17.654545 25 16 25 C 14.345455 25 13 23.654545 13 22 C 13 21.7 13.04683 21.359518 13.0625 21.3125 L 13.4375 20.1875 L 14.5625 19.4375 C 14.991823 19.151285 15.490476 19 16 19 C 16.509524 19 17.008177 19.151285 17.4375 19.4375 L 18.65625 20.25 L 18.96875 18.8125 C 19.070068 18.356569 19.466667 18 20 18 z M 16 21 C 15.447715 21 15 21.447715 15 22 C 15 22.552285 15.447715 23 16 23 C 16.552285 23 17 22.552285 17 22 C 17 21.447715 16.552285 21 16 21 z" fill="#000000"/></svg>
