<?xml version="1.0" encoding="utf-8"?>
<svg xmlns="http://www.w3.org/2000/svg" viewBox="0 0 32 32" fill="#000000"><path style="line-height:normal;text-indent:0;text-align:start;text-decoration-line:none;text-decoration-style:solid;text-decoration-color:#000;text-transform:none;block-progression:tb;isolation:auto;mix-blend-mode:normal" d="M 5 3 L 5 18 L 7 18 L 7 5 L 25 5 L 25 27 L 7 27 L 7 24 L 5 24 L 5 29 L 27 29 L 27 3 L 5 3 z M 12 8 A 2 2 0 0 0 10 10 A 2 2 0 0 0 10.5625 11.388672 C 9.6389341 11.902701 9 12.87745 9 14 L 11 14 C 11 13.43497 11.43497 13 12 13 C 12.56503 13 13 13.43497 13 14 L 15 14 C 15 12.878058 14.362202 11.902935 13.439453 11.388672 A 2 2 0 0 0 14 10 A 2 2 0 0 0 12 8 z M 17 8 L 17 10 L 23 10 L 23 8 L 17 8 z M 17 12 L 17 14 L 23 14 L 23 12 L 17 12 z M 10 16 L 8.5859375 17.414062 L 11.171875 20 L 3 20 L 3 22 L 11.171875 22 L 8.5859375 24.585938 L 10 26 L 15 21 L 10 16 z M 17 18 L 17 20 L 23 20 L 23 18 L 17 18 z M 17 22 L 17 24 L 23 24 L 23 22 L 17 22 z" fill="#000000"/></svg>
