<?xml version="1.0" encoding="utf-8"?>
<svg xmlns="http://www.w3.org/2000/svg" viewBox="0 0 32 32" fill="#000000"><path style="text-indent:0;text-align:start;line-height:normal;text-transform:none;block-progression:tb;-inkscape-font-specification:Bitstream Vera Sans" d="M 3.71875 2.28125 L 2.28125 3.71875 L 28.28125 29.71875 L 29.71875 28.28125 L 19.625 18.1875 L 26.71875 11.09375 C 28.345107 9.467393 28.345107 6.907607 26.71875 5.28125 C 25.905572 4.4680715 24.859464 4.0625 23.8125 4.0625 C 22.765536 4.0625 21.719428 4.4680715 20.90625 5.28125 L 20.1875 6 L 13.8125 12.375 L 3.71875 2.28125 z M 23.8125 6 C 24.311277 6 24.794429 6.2319285 25.28125 6.71875 C 26.254893 7.692393 26.254893 8.713857 25.28125 9.6875 L 24.6875 10.28125 L 21.71875 7.3125 L 22.3125 6.71875 C 22.799321 6.2319285 23.313723 6 23.8125 6 z M 20.3125 8.71875 L 23.28125 11.6875 L 18.1875 16.75 L 15.25 13.8125 L 20.3125 8.71875 z M 11 15.1875 L 5.40625 20.78125 L 5.1875 21 L 5.125 21.3125 L 4.03125 26.8125 L 3.71875 28.28125 L 5.1875 27.96875 L 10.6875 26.875 L 11 26.8125 L 11.21875 26.59375 L 16.8125 21 L 15.40625 19.59375 L 11.1875 23.78125 C 10.533142 22.500659 9.4993415 21.466858 8.21875 20.8125 L 12.40625 16.59375 L 11 15.1875 z M 6.9375 22.4375 C 8.1365842 22.923393 9.0766067 23.863416 9.5625 25.0625 L 6.28125 25.71875 L 6.9375 22.4375 z" overflow="visible" font-family="Bitstream Vera Sans" fill="#000000"/></svg>
