<?xml version="1.0" encoding="utf-8"?>
<svg xmlns="http://www.w3.org/2000/svg" viewBox="0 0 32 32" fill="#000000"><path style="text-indent:0;text-align:start;line-height:normal;text-transform:none;block-progression:tb;-inkscape-font-specification:Sans" d="M 19.3125 6.96875 C 18.759119 6.9719402 18.206887 7.0012037 17.625 7.15625 C 17.043113 7.3112963 16.459771 7.5606252 15.84375 7.96875 C 15.076893 7.5187626 14.335646 7.1492523 13.625 7.0625 C 12.744002 6.9549519 11.922403 7.0129476 10.96875 7.03125 C 9.8401066 7.0530245 9.1021498 7.634651 7.90625 8.09375 C 6.7103502 8.552849 5.1721244 9 3 9 L 2 9 L 2 10 L 2 18 L 2 18.625 L 2.5625 18.90625 L 4.40625 19.8125 L 10.96875 27.125 L 11 27.15625 C 11.750686 27.899663 12.762441 28.081424 13.65625 28.03125 C 14.550059 27.98108 15.391762 27.718205 16.0625 27.3125 C 17.537778 26.420195 21.5625 23.625 21.5625 23.625 L 21.65625 23.5625 L 21.71875 23.5 C 22.194342 23.028916 22.431761 22.451002 22.59375 21.84375 L 26.4375 19.90625 L 29.3125 18.9375 L 30 18.71875 L 30 18 L 30 10 L 30 9 L 29 9 C 26.830976 9 25.288733 8.5313888 24.09375 8.0625 C 22.898767 7.5936112 22.171409 7.0219966 21.03125 7 C 20.420409 6.9884429 19.865881 6.9655598 19.3125 6.96875 z M 19.34375 8.96875 C 19.792432 8.9661902 20.311091 8.9875571 20.96875 9 C 21.072591 9.002 22.036733 9.4123888 23.375 9.9375 C 24.507639 10.381926 26.080496 10.777994 28 10.90625 L 28 17.28125 L 25.6875 18.0625 L 25.625 18.0625 L 25.5625 18.09375 L 22.53125 19.625 C 22.365161 19.169819 22.131978 18.745488 21.78125 18.375 L 21.71875 18.28125 L 17.46875 13.0625 L 16.84375 12.28125 L 16.0625 12.90625 L 13.375 15.09375 C 12.473609 15.720103 11.742806 15.540278 11 15.1875 C 10.78424 15.08503 10.795798 15.052851 10.625 14.9375 L 15.1875 11.15625 L 15.21875 11.125 L 15.25 11.09375 C 16.606444 9.749268 17.436024 9.2856574 18.15625 9.09375 C 18.516363 8.9977963 18.895068 8.9713098 19.34375 8.96875 z M 12.375 9 C 12.758456 8.9934057 13.078249 8.995024 13.375 9.03125 C 13.636482 9.063171 13.932667 9.283208 14.1875 9.375 C 14.086042 9.47065 14.010935 9.5221654 13.90625 9.625 C 13.88173 9.649089 13.86846 9.663009 13.84375 9.6875 L 8.375 14.21875 L 7.53125 14.90625 L 8.28125 15.6875 C 8.28125 15.6875 9.0033061 16.467278 10.125 17 C 11.246694 17.532722 12.974641 17.831647 14.53125 16.75 L 14.5625 16.71875 L 14.59375 16.6875 L 16.53125 15.09375 L 20.21875 19.625 L 20.25 19.6875 L 20.28125 19.71875 C 20.941423 20.372665 20.926947 21.4001 20.28125 22.0625 C 20.27405 22.0698 20.28855 22.0865 20.28125 22.09375 C 20.273233 22.099294 20.140731 22.17668 20.125 22.1875 L 18.8125 20.40625 L 17.1875 21.59375 L 18.46875 23.3125 C 17.950672 23.663609 17.715281 23.845856 17.15625 24.21875 L 15.8125 22.40625 L 14.1875 23.59375 L 15.46875 25.3125 C 15.35597 25.383682 15.119252 25.540523 15.03125 25.59375 C 14.714988 25.785045 14.107191 26.000674 13.5625 26.03125 C 13.048988 26.06008 12.661873 25.94286 12.46875 25.78125 L 12.4375 25.75 L 5.75 18.34375 L 5.625 18.1875 L 5.4375 18.09375 L 4 17.375 L 4 10.90625 C 5.9116205 10.779995 7.4953268 10.402425 8.625 9.96875 C 9.9623502 9.455349 10.915893 9.0334755 11.03125 9.03125 C 11.544424 9.021401 11.991544 9.0065943 12.375 9 z" overflow="visible" font-family="Sans" fill="#000000"/></svg>
