<?xml version="1.0" encoding="utf-8"?>
<svg xmlns="http://www.w3.org/2000/svg" viewBox="0 0 32 32" fill="#000000"><path style="text-indent:0;text-align:start;line-height:normal;text-transform:none;block-progression:tb;-inkscape-font-specification:Sans" d="M -0.03125 0 L -0.03125 6.96875 C -0.03125 9.1752045 1.7935455 11 4 11 L 10.125 11 L 7.84375 13.28125 L 9.28125 14.71875 L 13.28125 10.71875 L 13.96875 10 L 13.28125 9.28125 L 9.28125 5.28125 L 7.84375 6.71875 L 10.125 9 L 4 9 C 2.8844545 9 1.96875 8.0842955 1.96875 6.96875 L 1.96875 0 L -0.03125 0 z M 13.8125 7 L 15.375 8.59375 L 15.8125 9 L 24.6875 9 L 16 14.8125 L 13.59375 13.1875 L 12.15625 14.65625 L 16 17.1875 L 27 9.875 L 27 23 L 5 23 L 5 13 L 4 13 C 3.659 13 3.326 12.96125 3 12.90625 L 3 25 L 29 25 L 29 7 L 13.8125 7 z" overflow="visible" font-family="Sans" fill="#000000"/></svg>
