<?xml version="1.0" encoding="utf-8"?>
<svg xmlns="http://www.w3.org/2000/svg" viewBox="0 0 32 32" fill="#000000"><path d="M 12.5 3 C 12.5 3 10.25 3 8.125 3.375 C 6.621 3.64 6.5995938 4.3185313 6.4335938 4.8945312 L 5.0664062 11.314453 C 3.8499027 11.862759 3 13.079017 3 14.5 C 3 16.433 4.567 18 6.5 18 C 8.433 18 9.9902344 16.433 9.9902344 14.5 C 9.9902344 13.106981 9.1752161 11.914937 8 11.351562 L 8 4.5 C 8 4.5 9.75 4 12.5 4 L 13 4 C 20.75 4 27 9.373 27 16 C 27 22.627 20.732 28 13 28 L 12.5 28 C 10.546 28 8.831 27.703 7.125 27.125 C 6.902 27.252 6.5435 27.4485 6.3125 27.5625 C 8.8755 29.1255 13 28.990234 13 28.990234 L 13.435547 28.990234 C 13.902547 28.990234 14.377469 28.96325 14.855469 28.90625 C 22.816469 28.15725 29 22.669 29 16 C 29 8.82 22 3 12.5 3 z M 10 5 L 10.007812 11.017578 C 12.083813 12.540578 13 15.375 13 17.625 C 13 21.625 11.624234 23.625469 10.615234 24.730469 C 13.670234 25.294469 14.614 24.81 14.875 24.375 C 14.993 24.169 15 23.959 15 23.75 C 15 23 14.475328 22.296813 15.361328 21.757812 C 15.488328 21.527812 15.167219 21.407469 15.074219 21.230469 C 14.886219 20.811469 15.524219 20.741672 15.574219 20.388672 C 15.379219 19.974672 15.162734 19.568984 15.302734 19.083984 C 15.563734 18.438984 16.30925 18.683031 16.78125 18.332031 C 16.95025 18.193031 17.052656 17.928844 16.972656 17.714844 C 16.226656 16.591844 15.499688 15.500438 14.679688 14.273438 C 14.657687 14.240437 14.625 14.125 14.625 14.125 C 14.499 13.503 15.201375 13.201281 15.234375 12.613281 C 15.165375 10.802281 13.076 5.675 10 5 z M 13.757812 5.0507812 C 15.952813 7.3297812 17.168422 10.846109 17.232422 12.537109 L 17.236328 12.632812 L 17.232422 12.728516 C 17.203422 13.233516 17.043094 13.641078 16.871094 13.955078 C 17.414094 14.768078 17.924453 15.534594 18.439453 16.308594 L 18.636719 16.605469 L 18.763672 16.796875 L 18.845703 17.011719 C 19.220703 18.012719 18.890922 19.192812 18.044922 19.882812 L 18.011719 19.910156 L 17.974609 19.9375 C 17.858609 20.0235 17.743906 20.096203 17.628906 20.158203 L 17.554688 20.669922 C 17.519687 20.912922 17.452234 21.127453 17.365234 21.314453 C 17.471234 22.006453 17.198328 22.567609 17.111328 22.724609 L 16.935547 23.041016 C 16.970547 23.246016 17 23.485 17 23.75 C 17 23.877 16.995031 24.087844 16.957031 24.339844 L 17.0625 24.302734 C 21.7075 22.843734 25 19.233 25 15 C 25 9.817 20.070812 5.5557813 13.757812 5.0507812 z M 18.158203 8.2832031 C 21.067203 9.7272031 23 12.236 23 15 C 23 17.041 21.984188 18.946625 20.242188 20.390625 C 21.019188 19.194625 21.22475 17.663547 20.71875 16.310547 L 20.636719 16.095703 L 20.556641 15.880859 L 20.429688 15.689453 L 20.302734 15.498047 L 20.103516 15.199219 L 20.068359 15.146484 L 19.101562 13.695312 C 19.169563 13.415313 19.211516 13.129844 19.228516 12.839844 L 19.234375 12.744141 L 19.238281 12.650391 L 19.234375 12.556641 L 19.230469 12.460938 C 19.188469 11.322938 18.810203 9.8172031 18.158203 8.2832031 z M 6.5 13 C 7.322 13 7.9902344 13.673 7.9902344 14.5 C 7.9902344 15.327 7.322 16 6.5 16 C 5.673 16 5 15.327 5 14.5 C 5 13.673 5.673 13 6.5 13 z" fill="#000000"/></svg>
