<?xml version="1.0" encoding="utf-8"?>
<svg xmlns="http://www.w3.org/2000/svg" viewBox="0 0 32 32" fill="#000000"><path style="text-indent:0;text-align:start;line-height:normal;text-transform:none;block-progression:tb;-inkscape-font-specification:Sans" d="M 26.53125 3 C 26.336375 2.9960938 26.12975 3.017 25.9375 3.09375 C 25.1685 3.40175 23 6 23 6 C 23 6 26.2935 6.21325 27.0625 5.90625 C 27.8315 5.59825 28.21325 4.7065 27.90625 3.9375 C 27.676 3.36075 27.115875 3.0117187 26.53125 3 z M 14.96875 6.03125 L 13.125 6.78125 L 13.75 8.34375 L 6.65625 11.0625 C 6.0866717 11.26083 5.500449 11.514594 4.96875 11.96875 C 4.437051 12.422906 4 13.155192 4 14 C 4 15.64497 5.3550302 17 7 17 L 25 17 C 25.56503 17 26 17.43497 26 18 C 26 18.56503 25.56503 19 25 19 L 7 19 C 5.3550302 19 4 20.35503 4 22 C 4 23.64497 5.3550302 25 7 25 L 25 25 C 25.56503 25 26 25.43497 26 26 C 26 26.56503 25.56503 27 25 27 L 4 27 L 4 29 L 25 29 C 26.64497 29 28 27.64497 28 26 C 28 24.35503 26.64497 23 25 23 L 7 23 C 6.4349698 23 6 22.56503 6 22 C 6 21.43497 6.4349698 21 7 21 L 25 21 C 26.64497 21 28 19.64497 28 18 C 28 16.35503 26.64497 15 25 15 L 7 15 C 6.4349698 15 6 14.56503 6 14 C 6 13.739808 6.039449 13.648594 6.25 13.46875 C 6.460551 13.288906 6.8823283 13.09817 7.34375 12.9375 L 14.5 10.1875 L 15.125 11.78125 L 16.96875 11.03125 L 16.34375 9.46875 L 20.34375 7.9375 L 19.65625 6.0625 L 15.59375 7.625 L 14.96875 6.03125 z" overflow="visible" font-family="Sans" fill="#000000"/></svg>
