<?xml version="1.0" encoding="utf-8"?>
<svg xmlns="http://www.w3.org/2000/svg" viewBox="0 0 32 32" fill="#000000"><path style="text-indent:0;text-align:start;line-height:normal;text-transform:none;block-progression:tb;-inkscape-font-specification:Sans" d="M 7 6 L 7 9.09375 C 6.3657731 9.2244476 5.7749117 9.4944983 5.25 9.84375 L 3.0625 7.625 L 1.625 9.0625 L 3.84375 11.25 C 3.4944983 11.774912 3.2244476 12.365773 3.09375 13 L 0 13 L 0 15 L 3.09375 15 C 3.2250318 15.637062 3.4929439 16.224681 3.84375 16.75 L 1.625 18.9375 L 3.0625 20.375 L 5.25 18.15625 C 5.5522124 18.356315 5.8762887 18.524629 6.21875 18.65625 C 6.0987192 19.084928 6 19.533553 6 20 C 6 22.757 8.243 25 11 25 L 12.15625 25 C 12.33525 24.371 12.65925 23.684 13.03125 23 L 11 23 C 9.346 23 8 21.654 8 20 C 8 18.346 9.346 17 11 17 L 12 17 L 12 16 C 12 14.897 12.89325 14.005 13.90625 14 L 14.90625 14.0625 L 15.09375 13.21875 C 15.46775 11.35975 17.103 10 19 10 C 20.605 10 22.0565 10.9595 22.6875 12.4375 L 22.96875 13.125 L 23.875 13.03125 C 23.919 13.02425 23.954 13 24 13 C 25.654 13 26.997 14.3525 27 15.9375 L 26.96875 16.90625 L 27.75 17.09375 C 29.081 17.43275 30 18.636 30 20 C 30 21.654 28.654 23 27 23 L 26 23 C 26 23.732 25.7815 24.409 25.4375 25 L 27 25 C 29.757 25 32 22.757 32 20 C 32 17.981 30.78775 16.18125 28.96875 15.40625 C 28.68575 12.98825 26.6575 11.097 24.1875 11 C 23.1255 9.154 21.166 8 19 8 C 16.417 8 14.1315 9.6715 13.3125 12.0625 C 13.081552 12.102037 12.871966 12.141358 12.65625 12.21875 C 12.524629 11.876289 12.356315 11.552212 12.15625 11.25 L 14.375 9.0625 L 12.9375 7.625 L 10.75 9.84375 C 10.224681 9.4929438 9.6370621 9.2250318 9 9.09375 L 9 6 L 7 6 z M 8 11 C 9.47078 11 10.671649 12.049424 10.9375 13.4375 C 10.547686 13.905247 10.238308 14.481944 10.09375 15.09375 C 8.8886294 15.311736 7.864342 15.958235 7.125 16.875 C 5.8912696 16.503185 5 15.362127 5 14 C 5 12.331516 6.3315161 11 8 11 z M 22 19 C 22 19 20 21.895 20 23 C 20 24.105 20.895 25 22 25 C 22.138125 25 22.276025 24.995381 22.40625 24.96875 C 23.317822 24.782334 24 23.966875 24 23 C 24 21.895 22 19 22 19 z M 16 22 C 16 22 15.71584 22.452079 15.375 23 C 15.251296 23.198863 15.133146 23.364239 15 23.59375 C 14.819092 23.905953 14.657195 24.210193 14.5 24.53125 C 14.421359 24.691093 14.345272 24.84828 14.28125 25 C 14.11773 25.387509 14 25.745311 14 26 C 14 27.105 14.895 28 16 28 C 17.105 28 18 27.105 18 26 C 18 25.745311 17.88227 25.387509 17.71875 25 C 17.704907 24.967195 17.702134 24.939561 17.6875 24.90625 C 17.63461 24.785295 17.561472 24.65669 17.5 24.53125 C 17.227745 23.977874 16.915263 23.466615 16.625 23 C 16.28416 22.452079 16 22 16 22 z" fill="#000000"/></svg>
