<?xml version="1.0" encoding="utf-8"?>
<svg xmlns="http://www.w3.org/2000/svg" viewBox="-7 9 32 32" fill="#000000"><path style="text-indent:0;text-align:start;line-height:normal;text-transform:none;block-progression:tb;-inkscape-font-specification:Sans" d="M 9.75 3.59375 L 9.03125 4.28125 L 5.03125 8.28125 L 6.46875 9.71875 L 8.75 7.4375 L 8.75 9 C 8.75 9.658414 8.2130531 11.995785 7.6875 13.8125 C 7.0579608 15.986104 7.5261703 18.329005 8.9375 20.09375 C 9.9912467 21.410725 10.314456 23.149548 9.78125 24.75 L 8.8125 27.6875 L 10.6875 28.3125 L 11.65625 25.40625 C 12.403044 23.164702 11.976253 20.688775 10.5 18.84375 C 9.4913297 17.582495 9.1452892 15.923396 9.59375 14.375 C 10.132197 12.513715 10.75 10.399586 10.75 9 L 10.75 7.4375 L 13.03125 9.71875 L 14.46875 8.28125 L 10.46875 4.28125 L 9.75 3.59375 z M 18.875 9.9375 L 18.875 11.78125 L 19.34375 11.78125 C 18.761138 12.152298 18.230678 12.647377 17.84375 13.21875 L 17.84375 12.9375 L 15.84375 12.9375 L 15.84375 14.8125 L 17.15625 14.8125 C 17.060872 15.196526 17 15.587646 17 16 C 17 16.412354 17.060872 16.803474 17.15625 17.1875 L 15.84375 17.1875 L 15.84375 19.0625 L 17.84375 19.0625 L 17.84375 18.78125 C 18.230678 19.352623 18.761138 19.847702 19.34375 20.21875 L 18.875 20.21875 L 18.875 22.0625 L 20.875 22.0625 L 20.875 20.875 C 21.238486 20.959881 21.6117 21 22 21 C 22.3883 21 22.761514 20.959881 23.125 20.875 L 23.125 22.0625 L 25.125 22.0625 L 25.125 20.21875 L 24.65625 20.21875 C 25.238862 19.847702 25.769322 19.352623 26.15625 18.78125 L 26.15625 19.0625 L 28.15625 19.0625 L 28.15625 17.1875 L 26.84375 17.1875 C 26.939128 16.803474 27 16.412354 27 16 C 27 15.587646 26.939128 15.196526 26.84375 14.8125 L 28.15625 14.8125 L 28.15625 12.9375 L 26.15625 12.9375 L 26.15625 13.21875 C 25.769322 12.647377 25.238862 12.152298 24.65625 11.78125 L 25.125 11.78125 L 25.125 9.9375 L 23.125 9.9375 L 23.125 11.125 C 22.761514 11.040119 22.3883 11 22 11 C 21.6117 11 21.238486 11.040119 20.875 11.125 L 20.875 9.9375 L 18.875 9.9375 z M 22 13 C 23.668147 13 25 14.331853 25 16 C 25 17.668147 23.668147 19 22 19 C 20.331853 19 19 17.668147 19 16 C 19 14.331853 20.331853 13 22 13 z" transform="translate(-7 9)" fill="#000000"/></svg>
