<?xml version="1.0" encoding="utf-8"?>
<svg xmlns="http://www.w3.org/2000/svg" viewBox="0 0 32 32" fill="#000000"><path style="text-indent:0;text-align:start;line-height:normal;text-transform:none;block-progression:tb;-inkscape-font-specification:Sans" d="M 15 3 L 15 6 L 12.5 6 L 16 9.5 L 19.5 6 L 17 6 L 17 3 L 15 3 z M 14.8125 11 L 14.8125 13 L 12 13 L 11 13 L 11 14 L 11 17.625 L 7.875 18 L 7 18.125 L 7 19 C 7 21.121694 7.6591421 22.821462 8.40625 24.09375 C 6.2160767 24.362911 4.59375 25.09375 4.59375 25.09375 L 5.40625 26.90625 C 5.40625 26.90625 7.5156636 26 9.96875 26 C 12.944219 26 15.28125 27.78125 15.28125 27.78125 L 15.5625 28 L 15.90625 28 L 16.09375 28 L 16.4375 28 L 16.71875 27.78125 C 16.71875 27.78125 19.055781 26 22.03125 26 C 24.484336 26 26.59375 26.90625 26.59375 26.90625 L 27.40625 25.09375 C 27.40625 25.09375 25.893334 24.413019 23.8125 24.125 C 23.979322 23.776169 24.136759 23.405567 24.28125 23 C 24.702191 21.818473 25 20.43859 25 19 L 25 18.125 L 24.125 18 L 21 17.625 L 21 14 L 21 13 L 20 13 L 17.1875 13 L 17.1875 11 L 14.8125 11 z M 13 15 L 19 15 L 19 17.375 L 16.125 17 L 16 17 L 15.875 17 L 13 17.375 L 13 15 z M 16 19 L 22.84375 19.875 C 22.75542 20.734192 22.665058 21.61731 22.40625 22.34375 C 22.150608 23.061304 21.820259 23.662141 21.5625 24.03125 C 18.596335 24.164566 16.611833 25.469712 16 25.90625 C 15.412048 25.486752 13.556333 24.245756 10.78125 24.03125 C 10.101286 23.132209 9.4083411 21.707841 9.1875 19.875 L 16 19 z M 12 21 C 11.448 21 11 21.448 11 22 C 11 22.552 11.448 23 12 23 C 12.552 23 13 22.552 13 22 C 13 21.448 12.552 21 12 21 z M 20 21 C 19.448 21 19 21.448 19 22 C 19 22.552 19.448 23 20 23 C 20.552 23 21 22.552 21 22 C 21 21.448 20.552 21 20 21 z" overflow="visible" font-family="Sans" fill="#000000"/></svg>
