<?xml version="1.0" encoding="utf-8"?>
<svg xmlns="http://www.w3.org/2000/svg" viewBox="0 0 32 32" fill="#000000"><path style="text-indent:0;text-align:start;line-height:normal;text-transform:none;block-progression:tb;-inkscape-font-specification:Sans" d="M 4 5 L 4 6 L 4 26 L 4 27 L 5 27 L 11 27 L 12 27 L 12 26 L 12 6 L 12 5 L 11 5 L 5 5 L 4 5 z M 13 5 L 13 27 L 15 27 L 15 5 L 13 5 z M 16 5 L 16 27 L 18 27 L 18 5 L 16 5 z M 19 5 L 19 27 L 21 27 L 21 5 L 19 5 z M 22 5 L 22 7 L 26 7 L 26 25 L 22 25 L 22 27 L 27 27 L 28 27 L 28 26 L 28 6 L 28 5 L 27 5 L 22 5 z M 6 7 L 10 7 L 10 8 L 7 8 L 7 10 L 10 10 L 10 12 L 7 12 L 7 14 L 10 14 L 10 15 L 7 15 L 7 17 L 10 17 L 10 18 L 7 18 L 7 20 L 10 20 L 10 22 L 7 22 L 7 24 L 10 24 L 10 25 L 6 25 L 6 7 z M 23 9 C 22.447715 9 22 9.4477153 22 10 C 22 10.552285 22.447715 11 23 11 C 23.552285 11 24 10.552285 24 10 C 24 9.4477153 23.552285 9 23 9 z M 24 12 C 23.447715 12 23 12.447715 23 13 C 23 13.552285 23.447715 14 24 14 C 24.552285 14 25 13.552285 25 13 C 25 12.447715 24.552285 12 24 12 z M 23 15 C 22.447715 15 22 15.447715 22 16 C 22 16.552285 22.447715 17 23 17 C 23.552285 17 24 16.552285 24 16 C 24 15.447715 23.552285 15 23 15 z M 24 18 C 23.447715 18 23 18.447715 23 19 C 23 19.552285 23.447715 20 24 20 C 24.552285 20 25 19.552285 25 19 C 25 18.447715 24.552285 18 24 18 z M 23 21 C 22.447715 21 22 21.447715 22 22 C 22 22.552285 22.447715 23 23 23 C 23.552285 23 24 22.552285 24 22 C 24 21.447715 23.552285 21 23 21 z" fill="#000000"/></svg>
