<?xml version="1.0" encoding="utf-8"?>
<svg xmlns="http://www.w3.org/2000/svg" viewBox="0 0 32 32" fill="#000000"><path style="text-indent:0;text-align:start;line-height:normal;text-transform:none;block-progression:tb;-inkscape-font-specification:Bitstream Vera Sans" d="M 16 4.90625 L 15.625 5.0625 L 3.625 10.0625 L 3 10.34375 L 3 11 L 3 26 L 3 27 L 4 27 L 28 27 L 29 27 L 29 26 L 29 11 L 29 10.34375 L 28.375 10.0625 L 16.375 5.0625 L 16 4.90625 z M 16 7.09375 L 27 11.6875 L 27 25 L 5 25 L 5 11.6875 L 16 7.09375 z M 19.875 10.09375 C 19.055229 10.163436 18.223418 10.526582 17.59375 11.15625 C 16.596776 12.153224 16.221971 13.648659 16.71875 14.84375 L 16 15.5625 L 11.71875 11.28125 L 11 10.59375 L 10.28125 11.28125 C 8.7944337 12.768066 8.7944337 15.231934 10.28125 16.71875 L 12.5625 19 L 9.28125 22.28125 L 10.71875 23.71875 L 14 20.4375 L 14.28125 20.71875 L 15 21.40625 L 15.71875 20.71875 L 17 19.4375 L 21.28125 23.71875 L 22.71875 22.28125 L 17.4375 17 L 18.125 16.28125 C 19.325037 16.797284 20.838391 16.41161 21.84375 15.40625 C 23.103086 14.146914 23.367303 12.117302 22.125 10.875 C 21.503849 10.253849 20.694771 10.024064 19.875 10.09375 z M 19.96875 12.09375 C 20.27588 12.060225 20.558853 12.152603 20.71875 12.3125 C 21.038544 12.632294 21.063615 13.373885 20.4375 14 C 19.811384 14.626115 19.038545 14.632295 18.71875 14.3125 C 18.398955 13.992705 18.405134 13.219866 19.03125 12.59375 C 19.344307 12.280693 19.66162 12.127275 19.96875 12.09375 z M 11.28125 13.71875 L 15.5625 18 L 15 18.5625 L 11.71875 15.28125 C 11.277626 14.840126 11.184225 14.280679 11.28125 13.71875 z" overflow="visible" font-family="Bitstream Vera Sans" fill="#000000"/></svg>
