<?xml version="1.0" encoding="utf-8"?>
<svg xmlns="http://www.w3.org/2000/svg" viewBox="0 0 32 32" fill="#000000"><path style="text-indent:0;text-align:start;line-height:normal;text-transform:none;block-progression:tb;-inkscape-font-specification:Bitstream Vera Sans" d="M 13.90625 5 L 13.8125 5.90625 L 12.78125 15.4375 L 5 21.1875 L 4.3125 21.71875 L 4.71875 22.46875 L 5.8125 24.46875 L 6.25 25.28125 L 7.09375 24.90625 L 15 21.4375 L 15 26 L 12 26 L 12 28 L 20 28 L 20 26 L 17 26 L 17 21.4375 L 24.90625 24.90625 L 25.75 25.28125 L 26.1875 24.46875 L 27.28125 22.46875 L 27.6875 21.71875 L 27 21.1875 L 19.21875 15.4375 L 18.09375 5.875 L 18 5 L 17.09375 5 L 14.8125 5 L 13.90625 5 z M 15.6875 7 L 16.1875 7 L 17.3125 16.125 L 17.34375 16.5625 L 17.71875 16.8125 L 25.125 22.28125 L 24.875 22.71875 L 16.40625 19 L 16 18.8125 L 15.59375 19 L 7.125 22.71875 L 6.875 22.28125 L 14.28125 16.8125 L 14.65625 16.53125 L 14.6875 16.09375 L 15.6875 7 z M 16 16.1875 C 15.392487 16.1875 14.90625 16.704987 14.90625 17.3125 C 14.90625 17.920013 15.392487 18.40625 16 18.40625 C 16.607513 18.40625 17.09375 17.920013 17.09375 17.3125 C 17.09375 16.704987 16.607513 16.1875 16 16.1875 z" overflow="visible" font-family="Bitstream Vera Sans" fill="#000000"/></svg>
