<?xml version="1.0" encoding="utf-8"?>
<svg xmlns="http://www.w3.org/2000/svg" viewBox="0 0 32 32" fill="#000000"><path style="text-indent:0;text-align:start;line-height:normal;text-transform:none;block-progression:tb;-inkscape-font-specification:Sans" d="M 0 7 L 0 8 L 0 24 L 0 25 L 1 25 L 31 25 L 32 25 L 32 24 L 32 8 L 32 7 L 31 7 L 1 7 L 0 7 z M 2 9 L 30 9 L 30 23 L 2 23 L 2 9 z M 6.21875 12 L 6 12.6875 L 4.0625 18.6875 L 4 18.84375 L 4 19 L 4 20 L 6 20 L 6 19.125 L 6.03125 19 L 7.96875 19 L 8 19.125 L 8 20 L 10 20 L 10 19 L 10 18.84375 L 9.9375 18.6875 L 8 12.6875 L 7.78125 12 L 7.0625 12 L 6.9375 12 L 6.21875 12 z M 18.21875 12 L 18 12.6875 L 16.0625 18.6875 L 16 18.84375 L 16 19 L 16 20 L 18 20 L 18 19.125 L 18.03125 19 L 19.96875 19 L 20 19.125 L 20 20 L 22 20 L 22 19 L 22 18.84375 L 21.9375 18.6875 L 20 12.6875 L 19.78125 12 L 19.0625 12 L 18.9375 12 L 18.21875 12 z M 23 12 L 23 20 L 25 20 L 25 17 L 26 18.34375 L 26 20 L 28 20 L 28 12 L 26 12 L 26 15 L 25 13.65625 L 25 12 L 23 12 z M 7 16.0625 L 7.3125 17 L 6.6875 17 L 7 16.0625 z M 19 16.0625 L 19.3125 17 L 18.6875 17 L 19 16.0625 z M 12 18 L 12 21 L 14 21 L 14 18 L 12 18 z" fill="#000000"/></svg>
