<?xml version="1.0" encoding="utf-8"?>
<svg xmlns="http://www.w3.org/2000/svg" viewBox="0 0 32 32" fill="#000000"><path style="text-indent:0;text-align:start;line-height:normal;text-transform:none;block-progression:tb;-inkscape-font-specification:Bitstream Vera Sans" d="M 6 3 L 6 4 L 6 10 L 8 10 L 8 5 L 24 5 L 24 10 L 26 10 L 26 4 L 26 3 L 25 3 L 7 3 L 6 3 z M 21.5 11.34375 L 20.5625 14.1875 L 20 15.875 L 19 12.875 L 19 12 L 17 12 L 17 13 L 17 13.15625 L 17.0625 13.3125 L 19.0625 19.3125 L 20 22.15625 L 20.9375 19.3125 L 21.5 17.625 L 22.0625 19.3125 L 23 22.15625 L 23.9375 19.3125 L 25.9375 13.3125 L 26 13.15625 L 26 13 L 26 12 L 24 12 L 24 12.875 L 23 15.875 L 22.4375 14.1875 L 21.5 11.34375 z M 5 12 L 5 13 L 5 20 L 7 20 L 7 17 L 8 20 L 10 20 L 8.875 16.59375 C 9.5589385 16.148214 10 15.379215 10 14.5 C 10 13.116667 8.8833333 12 7.5 12 L 6 12 L 5 12 z M 13.15625 12 L 12.9375 12.6875 L 11.03125 18.6875 L 11 18.84375 L 11 19 L 11 20 L 13 20 L 13 19.21875 L 13.0625 19 L 14.9375 19 L 15 19.21875 L 15 20 L 17 20 L 17 19 L 17 18.84375 L 16.96875 18.6875 L 15.0625 12.6875 L 14.84375 12 L 14.09375 12 L 13.90625 12 L 13.15625 12 z M 7 14 L 7.5 14 C 7.7166667 14 8 14.283333 8 14.5 C 8 14.716667 7.7166667 15 7.5 15 L 7 15 L 7 14 z M 14 16 L 14.3125 17 L 13.6875 17 L 14 16 z M 6 22 L 6 28 L 6 29 L 7 29 L 25 29 L 26 29 L 26 28 L 26 22 L 24 22 L 24 27 L 8 27 L 8 22 L 6 22 z" fill="#000000"/></svg>
