<?xml version="1.0" encoding="utf-8"?>
<svg xmlns="http://www.w3.org/2000/svg" viewBox="0 0 32 32" fill="#000000"><path style="text-indent:0;text-align:start;line-height:normal;text-transform:none;block-progression:tb;-inkscape-font-specification:Sans" d="M 16 3 C 8.8321429 3 3 8.8321429 3 16 C 3 23.167857 8.8321429 29 16 29 C 23.167857 29 29 23.167857 29 16 C 29 8.8321429 23.167857 3 16 3 z M 16 5 C 22.086977 5 27 9.9130231 27 16 C 27 22.086977 22.086977 27 16 27 C 9.9130231 27 5 22.086977 5 16 C 5 9.9130231 9.9130231 5 16 5 z M 10 8 L 10 10 L 16 10 L 22 10 L 22 8 L 10 8 z M 16 10 C 12.704545 10 10 12.704545 10 16 C 10 19.295455 12.704545 22 16 22 C 19.295455 22 22 19.295455 22 16 C 22 12.704545 19.295455 10 16 10 z M 16 22 L 10 22 L 10 24 L 22 24 L 22 22 L 16 22 z M 16 12 C 18.204545 12 20 13.795455 20 16 C 20 18.204545 18.204545 20 16 20 C 13.795455 20 12 18.204545 12 16 C 12 13.795455 13.795455 12 16 12 z" overflow="visible" font-family="Sans" fill="#000000"/></svg>
