<?xml version="1.0" encoding="utf-8"?>
<svg xmlns="http://www.w3.org/2000/svg" viewBox="0 0 32 32" fill="#000000"><path style="text-indent:0;text-align:start;line-height:normal;text-transform:none;block-progression:tb;-inkscape-font-specification:Bitstream Vera Sans" d="M 8 3.1875 L 5.1875 6 L 8 8.8125 L 8 7 L 19.1875 7 L 19.1875 8.8125 L 22 6 L 19.1875 3.1875 L 19.1875 5 L 8 5 L 8 3.1875 z M 5 10 L 5 11 L 5 26 L 5 27 L 6 27 L 21 27 L 22 27 L 22 26 L 22 11 L 22 10 L 21 10 L 6 10 L 5 10 z M 26 10 L 23.1875 12.8125 L 25 12.8125 L 25 24 L 23.1875 24 L 26 26.8125 L 28.8125 24 L 27 24 L 27 12.8125 L 28.8125 12.8125 L 26 10 z M 7 12 L 20 12 L 20 25 L 7 25 L 7 12 z" overflow="visible" font-family="Bitstream Vera Sans" fill="#000000"/></svg>
