<?xml version="1.0" encoding="utf-8"?>
<svg xmlns="http://www.w3.org/2000/svg" viewBox="0 0 32 32" fill="#000000"><path style="text-indent:0;text-align:start;line-height:normal;text-transform:none;block-progression:tb;-inkscape-font-specification:Bitstream Vera Sans" d="M 10 4 C 10 5.1166661 9.1166661 6 8 6 L 7 6 C 4.8026661 6 3 7.8026661 3 10 C 3 12.197334 4.8026661 14 7 14 L 8.15625 14 C 8.0561875 14.487813 8 14.983 8 15.5 L 8 28 L 10 28 L 10 15.5 C 10 12.467 12.468 10 15.5 10 C 16.401 10 17.249 10.20875 18 10.59375 L 18 8.4375 C 17.217 8.1595 16.378 8 15.5 8 C 12.631653 8 10.13621 9.6286979 8.875 12 L 7 12 C 5.8833339 12 5 11.116666 5 10 C 5 8.8833339 5.8833339 8 7 8 L 8 8 C 10.197334 8 12 6.1973339 12 4 L 10 4 z M 19 6.09375 L 19 8 L 19 12.5 C 19 15.050693 21.318086 17 24 17 C 26.681914 17 29 15.050693 29 12.5 L 29 8 L 29 6.09375 L 27.4375 7.1875 L 25.78125 8.34375 C 25.210507 8.1397514 24.648033 7.90625 24 7.90625 C 23.351967 7.90625 22.789892 8.1391491 22.21875 8.34375 L 20.5625 7.1875 L 19 6.09375 z M 24 9.90625 C 24.576891 9.90625 25.108695 10.048608 25.5625 10.28125 L 26.09375 10.5625 L 26.59375 10.21875 L 27 9.9375 L 27 12.5 C 27 13.815307 25.736086 15 24 15 C 22.263914 15 21 13.815307 21 12.5 L 21 9.9375 L 21.40625 10.21875 L 21.90625 10.5625 L 22.4375 10.28125 C 22.890674 10.048167 23.423109 9.90625 24 9.90625 z M 17 15 C 14.243 15 12 17.243 12 20 L 12 28 L 14 28 L 14 20 C 14 18.346 15.346 17 17 17 C 18.654 17 20 18.346 20 20 L 20 28 L 22 28 L 22 20 C 22 19.036 21.725 18.14 21.25 17.375 C 20.286 16.915 19.47525 16.219 18.90625 15.375 C 18.32025 15.133 17.672 15 17 15 z M 26 17.6875 C 25.373 17.8915 24.702 18 24 18 L 24 28 L 26 28 L 26 17.6875 z" overflow="visible" font-family="Bitstream Vera Sans" fill="#000000"/></svg>
