<?xml version="1.0" encoding="utf-8"?>
<svg xmlns="http://www.w3.org/2000/svg" viewBox="0 0 32 32" fill="#000000"><path style="text-indent:0;text-align:start;line-height:normal;text-transform:none;block-progression:tb;-inkscape-font-specification:Bitstream Vera Sans" d="M 28.5625 7.09375 L 26.5625 8.09375 L 26.25 8.25 L 26.09375 8.5625 L 24.46875 12 L 20 12 L 15.15625 12 L 17.15625 14 L 20 14 L 24.8125 14 C 24.86792 14.01512 25.358682 14.145892 25.90625 14.5625 C 26.484926 15.002776 27 15.609904 27 16.8125 C 27 17.603906 26.476598 18.300766 25.84375 18.84375 C 25.418228 19.208848 25.232557 19.280689 25 19.40625 C 24.445237 19.116038 23 18.241003 23 16 L 21 16 C 21 16.706039 21.119829 17.346927 21.3125 17.90625 C 21.205744 17.997264 21.065119 18.112866 20.8125 18.25 C 20.364794 18.493036 19.611967 18.766936 18.5 18.90625 C 18.528472 18.087497 18.165566 17.202438 17.46875 16.5 C 15.58218 14.597943 12.688736 11.113648 10.90625 9.59375 C 10.497099 9.2450629 9.9857377 9.0526703 9.5 9 C 9.0142623 8.9473297 8.5549821 9.0421948 8.15625 9.28125 C 7.3587857 9.7593604 6.9191214 10.751849 7.125 11.75 C 7.130743 11.777758 7.1799826 11.965591 7.1875 12 L 4 12 L 3 12 L 3 13 L 3 13.1875 L 3 13.28125 L 3.03125 13.34375 C 3.03125 13.34375 3.2934805 14.961075 4.28125 16.59375 C 5.1718618 18.065834 6.7772147 19.639618 9.1875 19.9375 C 9.5069401 21.176294 9.9335662 22.863928 9.96875 23 L 6 23 L 6 25 L 11 25 L 12 25 L 12 24 L 12 23 L 12 22.875 L 11.96875 22.75 C 11.96875 22.75 11.292885 20.135573 10.59375 17.40625 C 9.8946155 14.676927 9.1371217 11.704422 9.0625 11.34375 C 9.0113786 11.095901 9.1184643 11.04139 9.1875 11 C 9.256536 10.95861 9.3090519 10.882374 9.59375 11.125 C 11.015264 12.337102 14.05107 15.878307 16.0625 17.90625 C 16.455437 18.302357 16.518305 18.586374 16.5 18.84375 C 16.48169 19.101126 16.337533 19.399453 16.09375 19.625 C 15.849967 19.850547 15.522028 19.984078 15.25 20 C 14.977972 20.01592 14.771607 19.95037 14.53125 19.6875 C 13.82625 18.9185 12.9445 17.928 11.6875 16.5 C 12.0475 17.905 12.43425 19.406 12.78125 20.75 C 12.88125 20.861 12.9875 20.95025 13.0625 21.03125 C 13.692143 21.719877 14.544747 22.046766 15.34375 22 C 16.086672 21.956513 16.767222 21.647746 17.3125 21.1875 L 20.90625 24.71875 L 21.1875 25 L 21.59375 25 L 24 25 L 24 23 L 22.03125 23 L 19.71875 20.75 C 20.568478 20.570805 21.241241 20.307429 21.75 20.03125 C 21.967659 19.913094 22.146578 19.778838 22.3125 19.65625 C 23.340666 20.924798 24.59375 21.5 24.59375 21.5 L 25 21.6875 L 25.40625 21.5 C 25.40625 21.5 26.289098 21.119016 27.15625 20.375 C 28.023402 19.630984 29 18.433094 29 16.8125 C 29 14.956096 28.015074 13.669724 27.09375 12.96875 C 26.863419 12.793506 26.622289 12.651999 26.40625 12.53125 L 27.75 9.75 L 29.4375 8.90625 L 28.5625 7.09375 z M 5.375 14 L 7.6875 14 C 7.9786918 15.183012 8.1921379 16.121757 8.625 17.8125 C 7.370905 17.431086 6.5837975 16.527453 6 15.5625 C 5.5293732 14.784606 5.5162256 14.493311 5.375 14 z" overflow="visible" font-family="Bitstream Vera Sans" fill="#000000"/></svg>
