<?xml version="1.0" encoding="utf-8"?>
<svg xmlns="http://www.w3.org/2000/svg" viewBox="0 0 32 32" fill="#000000"><path style="text-indent:0;text-align:start;line-height:normal;text-transform:none;block-progression:tb;-inkscape-font-specification:Sans" d="M 13.8125 4 C 8.276917 4 4 9.4926269 4 16 C 4 22.507373 8.276917 28 13.8125 28 L 18.9375 28 C 18.958189 28.000185 18.979274 28 19 28 C 19.010363 28 19.020896 28.000046 19.03125 28 C 21.599311 27.988503 23.88511 26.552505 25.46875 24.375 C 27.058775 22.188716 28 19.23409 28 16 C 28 12.76591 27.058775 9.811284 25.46875 7.625 C 23.904264 5.4738325 21.655198 4.0453 19.125 4 C 19.083696 3.9992605 19.041452 4 19 4 A 1.0001 1.0001 0 0 0 18.9375 4 L 13.8125 4 z M 13.8125 6 L 14 6 C 13.461894 6.4751669 12.970331 7.0212636 12.53125 7.625 C 10.941225 9.811284 10 12.76591 10 16 C 10 19.23409 10.941225 22.188716 12.53125 24.375 C 12.970331 24.978736 13.461894 25.524833 14 26 L 13.8125 26 C 9.628083 26 6 21.642627 6 16 C 6 10.357373 9.628083 6 13.8125 6 z M 18.9375 6 C 18.958175 5.9997418 18.97929 6 19 6 C 19.010355 6 19.020903 5.9999354 19.03125 6 C 20.856939 6.0113963 22.5457 7.0276819 23.84375 8.8125 C 25.149156 10.607433 26 13.158958 26 16 C 26 18.841042 25.149156 21.392567 23.84375 23.1875 C 22.560413 24.952088 20.895649 25.966244 19.09375 26 C 19.062764 26.00058 19.031066 26 19 26 C 18.97929 26 18.958175 26.000258 18.9375 26 C 17.123706 25.977352 15.446943 24.962203 14.15625 23.1875 C 12.850844 21.392567 12 18.841042 12 16 C 12 13.158958 12.850844 10.607433 14.15625 8.8125 C 15.446943 7.0377968 17.123706 6.0226483 18.9375 6 z M 19 11 C 17.81128 11 16.783134 11.643321 16.09375 12.5625 C 15.404366 13.481679 15 14.692765 15 16 C 15 17.307235 15.404366 18.518321 16.09375 19.4375 C 16.783134 20.356679 17.81128 21 19 21 C 20.18872 21 21.216866 20.356679 21.90625 19.4375 C 22.595634 18.518321 23 17.307235 23 16 C 23 14.692765 22.595634 13.481679 21.90625 12.5625 C 21.216866 11.643321 20.18872 11 19 11 z M 19 13 C 19.468134 13 19.916098 13.252714 20.3125 13.78125 C 20.708902 14.309786 21 15.098096 21 16 C 21 16.901904 20.708902 17.690214 20.3125 18.21875 C 19.916098 18.747286 19.468134 19 19 19 C 18.694571 19 18.404539 18.877817 18.125 18.65625 C 18.692749 17.994378 19 17.085024 19 16.125 C 19 15.080956 18.630989 14.137452 17.96875 13.46875 C 18.292278 13.155447 18.637779 13 19 13 z" overflow="visible" font-family="Sans" fill="#000000"/></svg>
