<?xml version="1.0" encoding="utf-8"?>
<svg xmlns="http://www.w3.org/2000/svg" viewBox="0 0 32 32" fill="#000000"><path style="text-indent:0;text-align:start;line-height:normal;text-transform:none;block-progression:tb;-inkscape-font-specification:Sans" d="M 19 3 C 17.523628 3 16.354685 3.4629242 15.625 4.25 C 14.895315 5.0370758 14.658736 6.0462668 14.59375 6.9375 C 14.544491 7.6130548 14.630933 8.2310419 14.71875 8.78125 C 11.280891 8.2705695 8.4754961 8.8298585 6.46875 10.25 C 4.1721756 11.875248 3 14.5345 3 17.40625 C 3 21.409643 4.2138217 24.434817 6.53125 26.34375 C 8.8172064 28.226759 12.024104 28.979902 15.84375 29 C 15.89674 29.00334 15.946036 29.000292 16 29 C 16.24388 29 16.497804 28.990079 16.75 28.96875 C 20.307786 28.875946 23.302524 28.128133 25.46875 26.34375 C 27.786178 24.434817 29 21.409643 29 17.40625 C 29 14.5345 27.826067 11.860715 25.53125 10.21875 C 23.810137 8.9872761 21.51104 8.3673053 18.71875 8.53125 C 18.077692 8.5688885 17.406007 8.6883504 16.71875 8.8125 C 16.613903 8.3162542 16.518111 7.6712668 16.5625 7.0625 C 16.606889 6.4537332 16.780466 5.9629242 17.09375 5.625 C 17.407034 5.2870758 17.913872 5 19 5 L 19 3 z M 15.90625 11 L 16.1875 11.0625 C 16.410871 11.187035 16.61365 11.36741 16.8125 11.65625 C 17.116322 12.097568 17.377309 12.764968 17.5625 13.5625 C 17.932883 15.157564 18 17.230879 18 19 C 18 20.886403 17.84971 23.097209 17.4375 24.71875 C 17.231395 25.529521 16.960108 26.188624 16.6875 26.5625 C 16.494794 26.826792 16.371638 26.958737 16.21875 27 A 1.0001 1.0001 0 0 0 16.1875 27 C 16.124416 27.001787 16.062306 27 16 27 C 15.969328 27.000163 15.934901 27.002381 15.90625 27 C 15.864477 26.999409 15.823355 27.001391 15.78125 27 C 15.628362 26.958737 15.505206 26.826794 15.3125 26.5625 C 15.039892 26.188624 14.768605 25.529521 14.5625 24.71875 C 14.15029 23.097209 14 20.886403 14 19 C 14 17.230879 14.06712 15.157564 14.4375 13.5625 C 14.622691 12.764968 14.883678 12.097568 15.1875 11.65625 C 15.415367 11.325261 15.63833 11.119336 15.90625 11 z M 13.25 11.03125 C 12.909748 11.669207 12.674457 12.373698 12.5 13.125 C 12.058883 15.024686 12 17.185121 12 19 C 12 20.988597 12.13871 23.305791 12.625 25.21875 C 12.717443 25.582401 12.813605 25.921546 12.9375 26.25 C 12.399453 25.972175 11.87782 25.619778 11.40625 25.15625 C 10.050687 23.823804 9 21.634674 9 18 C 9 14.12421 10.080555 12.505619 11.375 11.6875 C 11.9282 11.337865 12.580933 11.144063 13.25 11.03125 z M 18.75 11.03125 C 19.419067 11.144062 20.0718 11.337864 20.625 11.6875 C 21.919445 12.505619 23 14.12421 23 18 C 23 21.634674 21.949313 23.823804 20.59375 25.15625 C 20.12218 25.619778 19.600547 25.972175 19.0625 26.25 C 19.186395 25.921546 19.282557 25.582401 19.375 25.21875 C 19.86129 23.305791 20 20.988597 20 19 C 20 17.185121 19.941117 15.024686 19.5 13.125 C 19.325543 12.373698 19.090252 11.669207 18.75 11.03125 z M 22.96875 11.09375 C 23.492221 11.30111 23.960198 11.546956 24.375 11.84375 C 26.104933 13.081535 27 15.058 27 17.40625 C 27 21.016857 25.991572 23.295183 24.1875 24.78125 C 23.763895 25.130186 23.277726 25.421369 22.75 25.6875 C 24.098317 23.926239 25 21.411062 25 18 C 25 14.7392 24.206311 12.510213 22.96875 11.09375 z M 8.96875 11.15625 C 7.7648516 12.575618 7 14.791342 7 18 C 7 21.411062 7.9016826 23.926239 9.25 25.6875 C 8.7222738 25.421369 8.2361051 25.130186 7.8125 24.78125 C 6.0084283 23.295183 5 21.016857 5 17.40625 C 5 15.058 5.8968244 13.098002 7.625 11.875 C 8.0217159 11.594251 8.4709923 11.356568 8.96875 11.15625 z" overflow="visible" font-family="Sans" fill="#000000"/></svg>
