<?xml version="1.0" encoding="utf-8"?>
<svg xmlns="http://www.w3.org/2000/svg" viewBox="0 0 32 32" fill="#000000"><path style="text-indent:0;text-align:start;line-height:normal;text-transform:none;block-progression:tb;-inkscape-font-specification:Sans" d="M 16 4 C 10.181497 4 3.75 5.75 3.75 5.75 L 2.8125 6 L 3.03125 6.90625 C 3.03125 6.90625 3.5625 9.6046359 3.5625 11.71875 C 3.5625 13.102426 3.3760019 14.151596 3.21875 14.875 L 2.875 14.8125 L 3 16.09375 L 4 27.09375 L 4.09375 28 L 5 28 L 27 28 L 27.90625 28 L 28 27.09375 L 29 16.09375 L 29.125 14.8125 L 28.78125 14.875 C 28.623998 14.147853 28.4375 13.091182 28.4375 11.71875 C 28.4375 9.6218148 28.96875 7.21875 28.96875 7.21875 L 29.1875 6.3125 L 28.3125 6.03125 C 28.3125 6.03125 21.852459 4 16 4 z M 16 6 C 20.824169 6 25.807792 7.4263113 26.90625 7.75 C 26.754782 8.4616126 26.4375 9.7635555 26.4375 11.71875 C 26.4375 13.158444 26.642744 14.307449 26.8125 15.15625 C 26.372492 15.21712 25.659447 15.29501 25 15.375 L 25 13 L 25 12 L 24 12 L 23 12 L 23 10 L 23 9 L 22 9 L 10 9 L 9 9 L 9 10 L 9 12 L 8 12 L 7 12 L 7 13 L 7 15.375 C 6.3405528 15.29501 5.6275076 15.21712 5.1875 15.15625 C 5.3572557 14.310225 5.5625 13.167214 5.5625 11.71875 C 5.5625 9.7405116 5.2421938 8.263889 5.09375 7.5 C 6.2534204 7.2076375 11.182784 6 16 6 z M 11 11 L 15 11 L 15 12 L 11 12 L 11 11 z M 17 11 L 21 11 L 21 12 L 17 12 L 17 11 z M 9 14 L 23 14 L 23 15.59375 C 20.875386 15.808442 18.39878 16 16 16 C 13.60122 16 11.124614 15.808442 9 15.59375 L 9 14 z M 5.125 17.15625 C 6.71618 17.387036 11.198552 18 16 18 C 20.801448 18 25.28382 17.387036 26.875 17.15625 L 26.09375 26 L 5.90625 26 L 5.125 17.15625 z M 16 21 C 14.895431 21 14 21.447715 14 22 C 14 22.552285 14.895431 23 16 23 C 17.104569 23 18 22.552285 18 22 C 18 21.447715 17.104569 21 16 21 z" overflow="visible" font-family="Sans" fill="#000000"/></svg>
