<?xml version="1.0" encoding="utf-8"?>
<svg xmlns="http://www.w3.org/2000/svg" viewBox="0 0 32 32" fill="#000000"><path d="M 20 3 C 15.041282 3 11 7.0412819 11 12 C 11 12.342844 11.024895 12.666959 11.0625 13 L 11 13 C 11 13.724161 10.368728 15.193454 9.65625 16.34375 C 8.9437719 17.494046 8.21875 18.375 8.21875 18.375 L 7.65625 19.0625 L 8.28125 19.71875 L 8.5625 20 L 5.28125 23.28125 L 4.59375 24 L 5.28125 24.71875 L 5.5625 25 L 3.28125 27.28125 L 4.71875 28.71875 L 7 26.4375 L 7.28125 26.71875 L 8 27.40625 L 8.71875 26.71875 L 12 23.4375 L 12.28125 23.71875 L 12.90625 24.3125 L 13.59375 23.78125 C 13.59375 23.78125 14.560301 23.062095 15.75 22.34375 C 16.939699 21.625405 18.453231 21 19 21 L 19 20.9375 C 19.333041 20.975105 19.657156 21 20 21 C 24.958718 21 29 16.958718 29 12 C 29 7.0412819 24.958718 3 20 3 z M 20 5 C 23.877838 5 27 8.1221621 27 12 C 27 15.877838 23.877838 19 20 19 C 16.122162 19 13 15.877838 13 12 C 13 8.1221621 16.122162 5 20 5 z M 19.96875 6 C 19.40875 6 18.96875 6.45 18.96875 7 C 18.96875 7.56 19.41975 8 19.96875 8 C 20.51975 8 20.96875 7.55 20.96875 7 C 20.96875 6.44 20.51975 6 19.96875 6 z M 23.5 7.4375 C 23.243625 7.4375 23.0025 7.555 22.8125 7.75 C 22.4225 8.14 22.4225 8.76625 22.8125 9.15625 C 23.0125 9.34625 23.25 9.4375 23.5 9.4375 C 23.76 9.4375 24.01975 9.35625 24.21875 9.15625 C 24.59875 8.76625 24.60875 8.13 24.21875 7.75 C 24.02425 7.555 23.756375 7.4375 23.5 7.4375 z M 16.4375 7.46875 C 16.18125 7.47 15.9495 7.58625 15.75 7.78125 C 15.359 8.17125 15.359 8.7975 15.75 9.1875 C 15.939 9.3875 16.1875 9.46875 16.4375 9.46875 C 16.6975 9.46875 16.96625 9.3875 17.15625 9.1875 C 17.54625 8.7975 17.54625 8.15 17.15625 7.75 C 16.96075 7.56 16.69375 7.4675 16.4375 7.46875 z M 15 11 C 14.439 11 14 11.45 14 12 C 14 12.55 14.45 13 15 13 C 15.55 13 16 12.55 16 12 C 16 11.44 15.55 11 15 11 z M 20 11 C 19.447715 11 19 11.447715 19 12 C 19 12.552285 19.447715 13 20 13 L 25 13 L 25 11 L 20 11 z M 23.5625 14.5 C 23.3075 14.5025 23.03925 14.6125 22.84375 14.8125 C 22.45475 15.2025 22.45375 15.82875 22.84375 16.21875 C 23.04475 16.40875 23.3135 16.5 23.5625 16.5 C 23.8225 16.5 24.08125 16.41875 24.28125 16.21875 C 24.66025 15.81875 24.65 15.17125 24.25 14.78125 C 24.0555 14.59125 23.8175 14.4975 23.5625 14.5 z M 20.03125 16 C 19.47125 16 19.0525 16.45 19.0625 17 C 19.0625 17.55 19.5125 18 20.0625 18 C 20.6225 17.99 21.0625 17.55 21.0625 17 C 21.0525 16.45 20.58125 15.99 20.03125 16 z M 12.03125 16.1875 C 12.889217 17.8118 14.244719 19.120728 15.875 19.96875 C 15.475751 20.186324 15.091885 20.430949 14.71875 20.65625 C 13.842298 21.185455 13.549977 21.432903 13.15625 21.71875 L 10.3125 18.875 C 10.605363 18.492459 10.822948 18.247086 11.34375 17.40625 C 11.579122 17.026241 11.806731 16.610366 12.03125 16.1875 z M 10 21.4375 L 10.5625 22 L 8 24.5625 L 7.4375 24 L 10 21.4375 z" fill="#000000"/></svg>
