<?xml version="1.0" encoding="utf-8"?>
<svg xmlns="http://www.w3.org/2000/svg" viewBox="0 0 32 32" fill="#000000"><path style="text-indent:0;text-align:start;line-height:normal;text-transform:none;block-progression:tb;-inkscape-font-specification:Bitstream Vera Sans" d="M 3.71875 2.28125 L 2.28125 3.71875 L 28.28125 29.71875 L 29.71875 28.28125 L 18.09375 16.65625 L 23.375 12 L 27 12 L 28 12 L 28 11 L 28 5 L 28 4 L 27 4 L 17 4 L 16 4 L 16 5 L 16 11 L 16 12 L 17 12 L 20.375 12 L 16.6875 15.25 L 3.71875 2.28125 z M 18 6 L 26 6 L 26 10 L 23.71875 10 C 23.372804 9.4031027 22.739893 9 22 9 C 21.260107 9 20.627196 9.4031027 20.28125 10 L 18 10 L 18 6 z M 22 9 C 22.552285 9 23 8.5522847 23 8 C 23 7.4477153 22.552285 7 22 7 C 21.447715 7 21 7.4477153 21 8 C 21 8.5522847 21.447715 9 22 9 z M 13.6875 17.875 L 5.34375 25.25 L 6.65625 26.75 L 15.125 19.28125 L 13.6875 17.875 z" overflow="visible" font-family="Bitstream Vera Sans" fill="#000000"/></svg>
