<?xml version="1.0" encoding="utf-8"?>
<svg xmlns="http://www.w3.org/2000/svg" viewBox="0 0 32 32" fill="#000000"><path d="M 20.5 4 L 14.125 4.03125 C 14.336 4.09025 14.81125 4.173 15.15625 4.75 L 18.3125 10.25 L 16.59375 11.25 L 22.1875 11.21875 L 24.9375 6.40625 L 23.21875 7.40625 L 21.59375 4.5625 C 21.42075 4.1975 21.153 3.94 20.5 4 z M 12.625 4.6875 C 11.776 4.632625 10.792 4.931 10.0625 5.9375 L 10.03125 6.03125 L 8 9.625 L 12.875 12.4375 L 15.625 7.59375 L 14.4375 5.53125 C 14.207 5.14825 13.474 4.742375 12.625 4.6875 z M 25.34375 11.6875 L 20.46875 14.5 L 23.25 19.34375 L 25.625 19.34375 C 26.508 19.32575 28.4545 17.639 27.4375 15.375 L 27.40625 15.25 L 25.34375 11.6875 z M 4.125 12.84375 L 5.84375 13.84375 L 4.1875 16.6875 C 3.9765 17.0135 3.886 17.36725 4.25 17.90625 L 7.46875 23.4375 C 7.41175 23.2075 7.26875 22.73225 7.59375 22.15625 L 10.75 16.6875 L 12.46875 17.6875 L 9.65625 12.84375 L 4.125 12.84375 z M 19.46875 18.34375 L 16.6875 23.1875 L 19.4375 28 L 19.46875 26 L 22.75 26 C 23.133 26.037 23.482 25.93775 23.75 25.34375 L 26.9375 19.8125 C 26.7845 19.9655 26.45225 20.32475 25.78125 20.34375 L 19.46875 20.34375 L 19.46875 18.34375 z M 9.78125 20.3125 L 8.59375 22.375 C 8.17175 23.163 8.648 25.6875 11.125 25.9375 L 11.25 25.96875 L 15.375 25.96875 L 15.375 20.3125 L 9.78125 20.3125 z" fill="#000000"/></svg>
