<?xml version="1.0" encoding="utf-8"?>
<svg xmlns="http://www.w3.org/2000/svg" viewBox="0 0 32 32" fill="#000000"><path style="line-height:normal;text-indent:0;text-align:start;text-decoration-line:none;text-decoration-style:solid;text-decoration-color:#000;text-transform:none;block-progression:tb;isolation:auto;mix-blend-mode:normal" d="M 21.779297 0.67578125 L 16.503906 7.2695312 L 21.921875 10.519531 L 20.433594 13 L 3 13 L 3 28 L 6.1875 28 C 6.6048587 29.15733 7.7068414 30 9 30 C 10.293159 30 11.395141 29.15733 11.8125 28 L 22.1875 28 C 22.604859 29.15733 23.706841 30 25 30 C 26.293159 30 27.395141 29.15733 27.8125 28 L 30 28 L 30 20.585938 L 25.414062 16 L 21 16 L 21 15.943359 L 27.857422 4.5136719 L 27.173828 4.1035156 L 26.912109 3.9375 L 21.779297 0.67578125 z M 22.220703 3.3242188 L 24.988281 5.0839844 L 22.685547 8.6445312 L 19.496094 6.7324219 L 22.220703 3.3242188 z M 15 7 A 1 1 0 0 0 14 8 A 1 1 0 0 0 15 9 A 1 1 0 0 0 16 8 A 1 1 0 0 0 15 7 z M 18 9 A 1 1 0 0 0 17 10 A 1 1 0 0 0 18 11 A 1 1 0 0 0 19 10 A 1 1 0 0 0 18 9 z M 15 10 A 1 1 0 0 0 14 11 A 1 1 0 0 0 15 12 A 1 1 0 0 0 16 11 A 1 1 0 0 0 15 10 z M 5 15 L 19 15 L 19 15.390625 L 14.142578 23.486328 L 15.857422 24.513672 L 19.765625 18 L 24.585938 18 L 28 21.414062 L 28 26 L 27.8125 26 C 27.395141 24.84267 26.293159 24 25 24 C 23.706841 24 22.604859 24.84267 22.1875 26 L 11.8125 26 C 11.395141 24.84267 10.293159 24 9 24 C 7.7068414 24 6.6048587 24.84267 6.1875 26 L 5 26 L 5 15 z M 9 26 C 9.5641294 26 10 26.435871 10 27 C 10 27.564129 9.5641294 28 9 28 C 8.4358706 28 8 27.564129 8 27 C 8 26.435871 8.4358706 26 9 26 z M 25 26 C 25.564129 26 26 26.435871 26 27 C 26 27.564129 25.564129 28 25 28 C 24.435871 28 24 27.564129 24 27 C 24 26.435871 24.435871 26 25 26 z" fill="#000000"/></svg>
