<?xml version="1.0" encoding="utf-8"?>
<svg xmlns="http://www.w3.org/2000/svg" viewBox="0 0 32 32" fill="#000000"><path style="text-indent:0;text-align:start;line-height:normal;text-transform:none;block-progression:tb;-inkscape-font-specification:Bitstream Vera Sans" d="M 24 6 C 22.354991 6 21 7.3549901 21 9 C 21 10.135896 21.652249 11.116298 22.59375 11.625 C 22.495671 11.813834 22.396981 11.998847 22.34375 12.1875 C 22.082516 13.113328 22.144185 14.009899 22.28125 14.65625 L 24.25 14.25 C 24.17607 13.901351 24.15098 13.211672 24.28125 12.75 C 24.411516 12.288328 24.466893 12.09578 24.9375 12.03125 L 24.96875 12.03125 C 25.523884 11.95491 25.953595 12.237768 26.46875 12.96875 C 26.817004 13.462907 27.004166 14.233032 27.21875 14.9375 L 18.59375 16.5 C 18.072061 15.604634 17.101528 15 16 15 C 14.517801 15 13.294768 16.110177 13.0625 17.53125 L 4.9375 19.09375 C 4.8370312 17.641954 4.901287 16.576081 5.125 16.03125 C 5.4054731 15.348186 5.7100563 15.227326 6.09375 15.15625 C 6.2926909 15.11935 6.5297717 15.19744 6.875 15.59375 C 7.2202283 15.990057 7.5296076 16.633455 7.625 17.09375 L 9.59375 16.6875 C 9.4201424 15.849795 9.0207717 14.986693 8.40625 14.28125 C 8.3390367 14.204092 8.2628482 14.135829 8.1875 14.0625 C 8.6957492 13.524004 9 12.791056 9 12 C 9 10.354991 7.6450099 9 6 9 C 4.3549901 9 3 10.354991 3 12 C 3 12.86242 3.3773604 13.637963 3.96875 14.1875 C 3.6973228 14.481325 3.4533709 14.830817 3.28125 15.25 C 2.7877231 16.451936 2.6698943 18.087064 3 20.4375 L 3.15625 21.5 L 4.1875 21.28125 L 7.375 20.65625 L 7.15625 22.5625 L 9.125 22.8125 L 9.46875 20.28125 L 13.40625 19.5 C 13.763589 20.09811 14.336002 20.572226 15 20.8125 L 15 23 L 13 23 L 13 25 L 19 25 L 19 23 L 17 23 L 17 20.8125 C 18.011277 20.446559 18.791353 19.550999 18.96875 18.46875 L 23.28125 17.6875 L 24.6875 20.09375 L 26.40625 19.09375 L 25.34375 17.3125 L 28.75 16.6875 L 29.71875 16.5 L 29.5625 15.53125 C 29.33871 14.247637 28.883845 12.889268 28.125 11.8125 C 27.737447 11.262579 27.224308 10.765351 26.625 10.4375 C 26.861321 10.009672 27 9.519017 27 9 C 27 7.3549901 25.645009 6 24 6 z M 24 8 C 24.564129 8 25 8.4358709 25 9 C 25 9.5641283 24.564128 10 24 10 C 23.435872 10 23 9.5641283 23 9 C 23 8.4358709 23.435871 8 24 8 z M 6 11 C 6.5641291 11 7 11.435871 7 12 C 7 12.564129 6.5641291 13 6 13 C 5.4358709 13 5 12.564129 5 12 C 5 11.435871 5.4358709 11 6 11 z M 16 17 C 16.564128 17 17 17.435872 17 18 C 17 18.564128 16.564128 19 16 19 C 15.435872 19 15 18.564128 15 18 C 15 17.435872 15.435872 17 16 17 z" fill="#000000"/></svg>
