<?xml version="1.0" encoding="utf-8"?>
<svg xmlns="http://www.w3.org/2000/svg" viewBox="0 0 32 32" fill="#000000"><path style="text-indent:0;text-align:start;line-height:normal;text-transform:none;block-progression:tb;-inkscape-font-specification:Sans" d="M 24.96875 2.03125 C 24.419828 2.05624 22.241795 2.056726 20.375 3.65625 C 19.002726 4.8320536 17.809332 6.8159837 17.28125 10.03125 C 14.550172 10.123263 11.113234 10.74136 8.125 12.625 C 4.8692122 14.677293 2.2257454 18.313011 2 23.96875 L 1.96875 25 L 3 25 L 6 25 L 6.96875 25 L 7 24.03125 C 7.1634331 19.939353 8.9051179 17.861207 11.125 16.59375 C 12.978743 15.535342 15.184989 15.1351 16.96875 15.03125 C 16.861466 16.74714 16.458301 18.920636 15.40625 20.78125 C 14.135974 23.027809 12.055156 24.836376 7.96875 25 L 7 25.03125 L 7 26 L 7 29 L 7 30.03125 L 8.03125 30 C 13.699469 29.772702 17.328611 27.019377 19.375 23.71875 C 21.266267 20.66832 21.882957 17.212844 21.96875 14.625 C 25.192503 13.988155 27.211689 12.608916 28.375 11.15625 C 29.95842 9.1789788 30 7.09375 30 7.09375 L 29.96875 7.09375 C 30.06806 5.5845646 29.636754 4.199254 28.71875 3.28125 L 28.6875 3.28125 L 28.65625 3.25 C 27.723748 2.4166168 26.424655 1.9638693 24.96875 2.03125 z M 25.03125 4.03125 C 25.51483 4.0088696 25.951147 4.0857637 26.34375 4.21875 L 23.5625 7 C 23.542194 6.9991849 23.520506 7 23.5 7 C 22.671573 7 22 7.6715729 22 8.5 C 22 9.3284271 22.671573 10 23.5 10 C 24.328427 10 25 9.3284271 25 8.5 C 25 8.4794944 25.000815 8.4578056 25 8.4375 L 27.8125 5.625 C 27.958083 6.0296123 28.040729 6.4984424 28 7.03125 L 28 7.0625 L 28 7.09375 C 28 7.09375 27.9951 8.4295212 26.8125 9.90625 C 25.722182 11.267768 23.492665 12.685429 19.0625 12.90625 C 19.251666 8.4173882 20.476393 6.1939607 21.6875 5.15625 C 23.002205 4.0297735 24.306172 4.0642598 25.03125 4.03125 z M 21 10 C 20.447715 10 20 10.447715 20 11 C 20 11.552285 20.447715 12 21 12 C 21.552285 12 22 11.552285 22 11 C 22 10.447715 21.552285 10 21 10 z M 17 12.125 L 17 13.09375 C 14.987335 13.17979 12.490448 13.511024 10.15625 14.84375 C 7.6611962 16.268318 5.6111417 18.930462 5.15625 23 L 4.15625 23 C 4.6140031 18.598465 6.6058442 15.939852 9.1875 14.3125 C 11.656526 12.756144 14.575799 12.246579 17 12.125 z M 18.90625 15 L 19 15 L 19.875 15 C 19.749517 17.274944 19.241468 20.1811 17.6875 22.6875 C 16.05451 25.321356 13.392968 27.374008 9 27.84375 L 9 26.84375 C 13.075978 26.381152 15.73498 24.29485 17.15625 21.78125 C 18.482326 19.436005 18.818699 16.952558 18.90625 15 z" overflow="visible" font-family="Sans" fill="#000000"/></svg>
