<?xml version="1.0" encoding="utf-8"?>
<svg xmlns="http://www.w3.org/2000/svg" viewBox="0 0 32 32" fill="#000000"><path style="text-indent:0;text-align:start;line-height:normal;text-transform:none;block-progression:tb;-inkscape-font-specification:Sans" d="M 18 3 L 18 4 L 18 12.5625 L 13 17.5625 L 13 16 L 11 16 L 11 18 L 12.5625 18 L 3 27.59375 L 4.40625 29 L 15.4375 18 L 17 18 L 17 16.4375 L 19.4375 14 L 28 14 L 29 14 L 29 13 L 29 4 L 29 3 L 28 3 L 19 3 L 18 3 z M 20 5 L 27 5 L 27 12 L 20 12 L 20 5 z M 22.1875 5.8125 L 20.78125 7.21875 L 22.0625 8.5 L 20.78125 9.8125 L 22.1875 11.21875 L 23.5 9.9375 L 24.78125 11.21875 L 26.1875 9.8125 L 24.875 8.5 L 26.1875 7.21875 L 24.78125 5.8125 L 23.5 7.125 L 22.1875 5.8125 z M 3 16 L 3 18 L 5 18 L 5 16 L 3 16 z M 7 16 L 7 18 L 9 18 L 9 16 L 7 16 z M 19 16 L 19 18 L 21 18 L 21 16 L 19 16 z M 23 16 L 23 18 L 25 18 L 25 16 L 23 16 z M 27 16 L 27 18 L 29 18 L 29 16 L 27 16 z" fill="#000000"/></svg>
