<?xml version="1.0" encoding="utf-8"?>
<svg xmlns="http://www.w3.org/2000/svg" viewBox="0 0 32 32" fill="#000000"><path style="text-indent:0;text-align:start;line-height:normal;text-transform:none;block-progression:tb;-inkscape-font-specification:Sans" d="M 2.90625 6 L 3 7.09375 C 3.5916316 13.419931 5.0409785 17.310732 6.40625 19.65625 C 7.0888858 20.829009 7.7738839 21.626416 8.28125 22.125 C 8.3071157 22.150418 8.3184866 22.163367 8.34375 22.1875 C 7.9397356 22.790977 7.4175498 23.648902 7.0625 24.6875 L 6.59375 26 L 8 26 L 21 26 L 22.375 26 L 21.9375 24.6875 C 21.602368 23.658867 21.091716 22.787498 20.6875 22.1875 C 20.713708 22.163399 20.723318 22.150954 20.75 22.125 C 21.127846 21.757465 21.577173 21.223063 22.0625 20.5 C 22.069683 20.487223 22.086308 20.481367 22.09375 20.46875 C 22.101186 20.457596 22.117547 20.448745 22.125 20.4375 C 22.829976 19.296762 24.589889 18.80364 26.5625 18.25 C 27.570349 17.967133 28.598115 17.664501 29.46875 17.03125 C 30.339385 16.397999 31 15.320951 31 14 C 31 11.898321 29.362457 10 27.1875 10 C 26.656987 10 26.106583 10.090724 25.59375 10.28125 C 25.750028 9.2860572 25.89788 8.245148 26 7.09375 L 26.09375 6 L 25 6 L 4 6 L 2.90625 6 z M 5.1875 8 L 23.8125 8 C 23.200946 13.310503 21.984672 16.76078 20.875 18.65625 C 20.766647 18.841331 20.666907 18.9958 20.5625 19.15625 C 20.522605 19.21756 20.47668 19.285887 20.4375 19.34375 C 20.401876 19.401109 20.346213 19.440028 20.3125 19.5 C 19.936287 20.033216 19.603396 20.43494 19.34375 20.6875 C 19.181554 20.84527 19.061693 20.928153 18.96875 21 L 10.03125 21 C 9.96744 20.95787 9.9251171 20.95171 9.65625 20.6875 C 9.2771786 20.31499 8.7523642 19.680366 8.15625 18.65625 C 7.0519005 16.758993 5.8225981 13.31312 5.1875 8 z M 27.1875 12 C 28.132543 12 29 12.979679 29 14 C 29 14.770549 28.796709 15.054064 28.3125 15.40625 C 27.828291 15.758436 26.989276 16.074867 26.03125 16.34375 C 25.361744 16.531656 24.618283 16.6985 23.875 16.9375 C 24.1643 16.20058 24.428983 15.385822 24.6875 14.46875 L 24.71875 14.46875 C 25.027119 13.378398 25.40494 12.764601 25.78125 12.4375 C 26.15756 12.110399 26.575695 12 27.1875 12 z M 19.3125 21 C 19.3125 21 19.418807 21.413052 19.53125 21.8125 L 19.3125 22 L 19.3125 21 z M 10.28125 23 L 18.75 23 C 18.902622 23.291268 19.104407 23.680764 19.3125 24 L 9.6875 24 C 9.928216 23.626895 10.136437 23.261904 10.28125 23 z" overflow="visible" font-family="Sans" fill="#000000"/></svg>
