<?xml version="1.0" encoding="utf-8"?>
<svg xmlns="http://www.w3.org/2000/svg" viewBox="0 0 32 32" fill="#000000"><path style="text-indent:0;text-align:start;line-height:normal;text-transform:none;block-progression:tb;-inkscape-font-specification:Sans" d="M 20.53125 2 C 20.53125 2 18.823077 2.8587877 18.21875 4.59375 C 18.202766 4.5840965 18.204563 4.5726581 18.1875 4.5625 C 17.752396 4.3034683 17.018182 4 16 4 C 14.934012 4 14.001508 4.5436453 12.875 5.375 C 11.748492 6.2063547 10.535048 7.3919549 9.375 8.84375 C 7.0549032 11.74734 5 15.803691 5 20.40625 C 5 25.799973 10.034182 30 16 30 C 21.965818 30 27 25.799973 27 20.40625 C 27 17.766656 25.992361 16.171221 25.15625 14.9375 C 24.320139 13.703779 23.65625 12.839383 23.65625 10.75 C 23.65625 9.3801587 23.325554 8.0089357 22.5625 6.90625 C 22.002175 6.0965259 21.168339 5.444369 20.15625 5.15625 C 20.536638 4.3332985 21.46875 3.78125 21.46875 3.78125 L 20.53125 2 z M 16 6 C 16.703818 6 16.841354 6.093782 17.15625 6.28125 C 17.471146 6.4687183 18.029215 6.8615378 18.875 6.96875 L 18.9375 6.96875 L 19 6.96875 C 19.862143 6.96875 20.433054 7.3474357 20.90625 8.03125 C 21.379446 8.7150643 21.65625 9.7378413 21.65625 10.75 C 21.65625 13.316617 22.669611 14.837221 23.5 16.0625 C 24.330389 17.287779 25 18.227844 25 20.40625 C 25 24.540527 21.034182 28 16 28 C 10.965818 28 7 24.540527 7 20.40625 C 7 16.401809 8.8270968 12.73491 10.9375 10.09375 C 11.992702 8.7731701 13.100446 7.709989 14.0625 7 C 15.024554 6.290011 15.926988 6 16 6 z M 16 14 C 15.345833 14 14.836381 14.251139 14.3125 14.59375 C 13.788619 14.936361 13.263148 15.412441 12.78125 15.96875 C 11.817454 17.081368 11 18.598106 11 20.3125 C 11 23.474621 13.134783 26 16 26 C 18.865217 26 21 23.474621 21 20.3125 C 21 18.598106 20.182546 17.081368 19.21875 15.96875 C 18.736852 15.412441 18.211381 14.936361 17.6875 14.59375 C 17.163619 14.251139 16.654167 14 16 14 z M 16 16 C 15.94583 16 16.255131 16.0598 16.59375 16.28125 C 16.932369 16.502702 17.319398 16.856309 17.6875 17.28125 C 18.423704 18.131132 19 19.276894 19 20.3125 C 19 22.650379 17.734783 24 16 24 C 14.265217 24 13 22.650379 13 20.3125 C 13 19.276894 13.576296 18.131132 14.3125 17.28125 C 14.680602 16.856309 15.067631 16.502702 15.40625 16.28125 C 15.744869 16.059798 16.054167 16 16 16 z" overflow="visible" font-family="Sans" fill="#000000"/></svg>
