<?xml version="1.0" encoding="utf-8"?>
<svg xmlns="http://www.w3.org/2000/svg" viewBox="0 0 32 32" fill="#000000"><path style="text-indent:0;text-align:start;line-height:normal;text-transform:none;block-progression:tb;-inkscape-font-specification:Bitstream Vera Sans" d="M 5 5 L 5 6 L 5 26 L 5 27 L 6 27 L 26 27 L 27 27 L 27 26 L 27 6 L 27 5 L 26 5 L 6 5 L 5 5 z M 7 7 L 25 7 L 25 25 L 7 25 L 7 7 z M 11.40625 9.21875 C 11.40625 9.21875 9 10.857113 9 13.5 C 9 14.821443 9.6547525 15.794331 10.15625 16.5625 C 10.657748 17.330669 11 17.894723 11 18.5 C 11 19.710554 9.375 21.21875 9.375 21.21875 L 10.625 22.78125 C 10.625 22.78125 13 21.107446 13 18.5 C 13 17.196277 12.342252 16.232331 11.84375 15.46875 C 11.345248 14.705169 11 14.142557 11 13.5 C 11 12.214887 12.59375 10.78125 12.59375 10.78125 L 11.40625 9.21875 z M 16.40625 9.21875 C 16.40625 9.21875 14 10.857113 14 13.5 C 14 14.821443 14.654752 15.794331 15.15625 16.5625 C 15.657748 17.330669 16 17.894723 16 18.5 C 16 19.710554 14.375 21.21875 14.375 21.21875 L 15.625 22.78125 C 15.625 22.78125 18 21.107446 18 18.5 C 18 17.196277 17.342252 16.232331 16.84375 15.46875 C 16.345248 14.705169 16 14.142557 16 13.5 C 16 12.214887 17.59375 10.78125 17.59375 10.78125 L 16.40625 9.21875 z M 21.40625 9.21875 C 21.40625 9.21875 19 10.857113 19 13.5 C 19 14.821443 19.654752 15.794331 20.15625 16.5625 C 20.657748 17.330669 21 17.894723 21 18.5 C 21 19.710554 19.375 21.21875 19.375 21.21875 L 20.625 22.78125 C 20.625 22.78125 23 21.107446 23 18.5 C 23 17.196277 22.342252 16.232331 21.84375 15.46875 C 21.345248 14.705169 21 14.142557 21 13.5 C 21 12.214887 22.59375 10.78125 22.59375 10.78125 L 21.40625 9.21875 z" overflow="visible" font-family="Bitstream Vera Sans" fill="#000000"/></svg>
