<?xml version="1.0" encoding="utf-8"?>
<svg xmlns="http://www.w3.org/2000/svg" viewBox="0 0 32 32" fill="#000000"><path style="text-indent:0;text-align:start;line-height:normal;text-transform:none;block-progression:tb;-inkscape-font-specification:Sans" d="M 6 5 C 5.4477153 5 5 5.4477153 5 6 C 5 6.5522847 5.4477153 7 6 7 C 6.5522847 7 7 6.5522847 7 6 C 7 5.4477153 6.5522847 5 6 5 z M 6 7 L 5 7 L 5 8 L 5 9 L 5 24 L 5 25 L 5 27 L 7 27 L 7 25 L 16 25 L 25 25 L 25 27 L 27 27 L 27 24 L 27 9 L 27 8 L 27 7 L 26 7 L 25 7 L 25 7.9375 C 23.347304 7.7797079 22.301551 7.2476157 21.15625 6.625 C 19.796422 5.8857619 18.266209 5 16 5 C 13.733791 5 12.203578 5.8857619 10.84375 6.625 C 9.6984483 7.2476157 8.6526958 7.7797079 7 7.9375 L 7 7 L 6 7 z M 26 7 C 26.552285 7 27 6.5522847 27 6 C 27 5.4477153 26.552285 5 26 5 C 25.447715 5 25 5.4477153 25 6 C 25 6.5522847 25.447715 7 26 7 z M 15 7.0625 L 15 23 L 7 23 L 7 9.84375 C 9.049559 9.6445022 10.620363 9.0230765 11.8125 8.375 C 12.926766 7.7692564 13.796999 7.2463526 15 7.0625 z M 17 7.0625 C 18.203001 7.2463526 19.073234 7.7692564 20.1875 8.375 C 21.379637 9.0230765 22.950441 9.6445022 25 9.84375 L 25 23 L 17 23 L 17 7.0625 z M 13 16 C 12.447715 16 12 16.447715 12 17 C 12 17.552285 12.447715 18 13 18 C 13.552285 18 14 17.552285 14 17 C 14 16.447715 13.552285 16 13 16 z M 19 16 C 18.447715 16 18 16.447715 18 17 C 18 17.552285 18.447715 18 19 18 C 19.552285 18 20 17.552285 20 17 C 20 16.447715 19.552285 16 19 16 z" fill="#000000"/></svg>
