<?xml version="1.0" encoding="utf-8"?>
<svg xmlns="http://www.w3.org/2000/svg" viewBox="0 0 32 32" fill="#000000"><path style="line-height:normal;text-indent:0;text-align:start;text-decoration-line:none;text-decoration-style:solid;text-decoration-color:#000;text-transform:none;block-progression:tb;isolation:auto;mix-blend-mode:normal" d="M 5 3 L 5 29 L 17.767578 29 C 19.235916 30.825586 21.483953 32 24 32 C 28.406433 32 32 28.406433 32 24 C 32 19.932696 28.93661 16.563724 25 16.068359 L 25 13.414062 L 27 11.414062 L 27 3 L 22.998047 3 L 5 3 z M 7 5 L 20.998047 5 L 21 11.416016 L 23 13.414062 L 23 16.068359 C 19.06339 16.563724 16 19.932696 16 24 C 16 25.060485 16.212321 26.072441 16.589844 27 L 7 27 L 7 5 z M 22.998047 5 L 25 5 L 25 10.585938 L 24 11.585938 L 23 10.587891 L 22.998047 5 z M 24 18 C 27.325553 18 30 20.674447 30 24 C 30 27.325553 27.325553 30 24 30 C 20.674447 30 18 27.325553 18 24 C 18 20.674447 20.674447 18 24 18 z M 21.707031 20.292969 L 20.292969 21.707031 L 22.585938 24 L 20.292969 26.292969 L 21.707031 27.707031 L 24 25.414062 L 26.292969 27.707031 L 27.707031 26.292969 L 25.414062 24 L 27.707031 21.707031 L 26.292969 20.292969 L 24 22.585938 L 21.707031 20.292969 z" font-weight="400" font-family="sans-serif" white-space="normal" overflow="visible" fill="#000000"/></svg>
