<?xml version="1.0" encoding="utf-8"?>
<svg xmlns="http://www.w3.org/2000/svg" viewBox="0 0 32 32" fill="#000000"><path style="text-indent:0;text-align:start;line-height:normal;text-transform:none;block-progression:tb;-inkscape-font-specification:Bitstream Vera Sans" d="M 24 4 C 22.354991 4 21 5.3549901 21 7 C 21 8.6450099 22.354991 10 24 10 C 25.645009 10 27 8.6450099 27 7 C 27 5.3549901 25.645009 4 24 4 z M 8.03125 4.21875 L 6.875 5.8125 L 13.1875 10.40625 C 13.077871 10.524309 12.94922 10.634514 12.84375 10.75 C 11.548435 12.168197 11.808541 14.464183 13.40625 15.53125 L 17.09375 17.96875 L 13.28125 20.21875 L 5.5 15.75 L 4.5 17.5 L 22.03125 27.5625 A 1.0001 1.0001 0 0 0 22.125 27.59375 C 22.125 27.59375 22.832716 27.938582 23.75 28 C 24.667284 28.06142 25.973183 27.797804 26.8125 26.65625 L 25.21875 25.46875 C 24.850067 25.970196 24.426466 26.034832 23.90625 26 C 23.43754 25.96862 23.104225 25.842087 23.03125 25.8125 L 22.9375 25.78125 L 15.25 21.375 L 18.09375 19.6875 C 19.325832 18.957594 19.378432 17.108401 18.1875 16.3125 L 14.53125 13.875 C 13.918959 13.466067 13.815815 12.637553 14.3125 12.09375 C 14.839808 11.516363 15.425663 10.896096 15.96875 10.375 C 16.749156 9.6268092 17.777658 9.2831775 18.59375 9.125 C 18.810637 9.082937 18.967322 9.2288315 18.96875 9.46875 L 19 13.46875 L 19 13.9375 L 19.40625 14.25 L 23.375 17.28125 L 24.59375 15.71875 L 21 12.96875 L 20.96875 9.46875 C 20.960178 8.0286685 19.620613 6.8783129 18.1875 7.15625 C 17.125592 7.3620725 15.751344 7.8276908 14.59375 8.9375 L 8.03125 4.21875 z M 24 6 C 24.564129 6 25 6.4358709 25 7 C 25 7.5641291 24.564129 8 24 8 C 23.435871 8 23 7.5641291 23 7 C 23 6.4358709 23.435871 6 24 6 z" overflow="visible" font-family="Bitstream Vera Sans" fill="#000000"/></svg>
