<?xml version="1.0" encoding="utf-8"?>
<svg xmlns="http://www.w3.org/2000/svg" viewBox="0 0 32 32" fill="#000000"><path style="text-indent:0;text-align:start;line-height:normal;text-transform:none;block-progression:tb;-inkscape-font-specification:Bitstream Vera Sans" d="M 25.375 4 C 23.345095 4 20.940882 4.9686439 18.34375 6.40625 C 15.746618 7.8438561 13.005413 9.7831886 10.5625 11.875 C 6.5138858 15.341923 4.6464901 17.508399 3.875 18.3125 C 2.9064121 19.323583 2.6375046 20.902766 3.53125 22.03125 C 4.3832472 23.107021 6.0586546 23.41973 7.125 22.375 C 10.780052 18.794798 15.199324 15.520907 18.53125 13.5625 C 16.522028 16.419305 13.466987 19.888643 8.8125 23.65625 C 7.6519421 24.595149 7.7467968 26.310955 8.71875 27.28125 C 9.737139 28.299639 11.353479 28.189363 12.46875 27.34375 C 13.414804 26.625266 15.611843 24.974276 19.59375 21.46875 C 21.847535 19.485025 24.169388 16.82633 25.9375 14.28125 C 27.705612 11.73617 29 9.4548681 29 7.5 C 29 5.6339278 27.502253 4.1182503 25.65625 4.03125 A 1.0001 1.0001 0 0 0 25.5625 4 C 25.551718 3.9998003 25.542054 4.0001001 25.53125 4 A 1.0001 1.0001 0 0 0 25.375 4 z M 25.46875 6 A 1.0001 1.0001 0 0 0 25.5 6 C 26.340812 6 27 6.6591883 27 7.5 C 27 8.3251319 25.955638 10.74608 24.28125 13.15625 C 22.606862 15.56642 20.375465 18.125475 18.28125 19.96875 C 14.339157 23.439224 12.207946 25.022484 11.25 25.75 C 10.843271 26.058387 10.309861 25.997361 10.15625 25.84375 C 9.9562032 25.644045 9.9350579 25.321851 10.0625 25.21875 C 16.208726 20.243644 19.72419 15.693363 21.71875 12.3125 C 22.71603 10.622068 23.334499 9.2216412 23.71875 8.21875 C 23.910875 7.7173044 24.034582 7.3150174 24.125 7.03125 C 24.161629 6.9162931 24.196759 6.8193357 24.21875 6.75 C 24.474058 6.3146825 24.923085 6.0112354 25.46875 6 z M 22.0625 6.84375 C 21.994222 7.0517583 21.948284 7.2271669 21.84375 7.5 C 21.572171 8.2088204 21.165682 9.1559635 20.5625 10.28125 C 16.819103 11.815918 10.714232 16.044318 5.71875 20.9375 C 5.6010954 21.05277 5.2697528 21.003479 5.09375 20.78125 C 4.9594954 20.611734 4.9590879 20.056417 5.3125 19.6875 C 6.1970099 18.765601 7.9056142 16.805327 11.875 13.40625 C 14.219087 11.399061 16.861632 9.5128939 19.3125 8.15625 C 20.284139 7.6184126 21.192439 7.1913735 22.0625 6.84375 z" overflow="visible" font-family="Bitstream Vera Sans" fill="#000000"/></svg>
