<?xml version="1.0" encoding="utf-8"?>
<svg xmlns="http://www.w3.org/2000/svg" viewBox="0 0 32 32" fill="#000000"><path style="text-indent:0;text-align:start;line-height:normal;text-transform:none;block-progression:tb;-inkscape-font-specification:Bitstream Vera Sans" d="M 5 5 L 5 6 L 5 26 L 5 27 L 6 27 L 26 27 L 27 27 L 27 26 L 27 6 L 27 5 L 26 5 L 6 5 L 5 5 z M 7 7 L 25 7 L 25 25 L 7 25 L 7 7 z M 9.21875 7.78125 L 7.78125 9.21875 L 11.5625 13 L 11 13 L 11 15 L 13.5625 15 L 15.5625 17 L 11 17 L 11 19 L 17.5625 19 L 22.78125 24.21875 L 24.21875 22.78125 L 20.4375 19 L 21 19 L 21 17 L 18.4375 17 L 16.4375 15 L 21 15 L 21 13 L 14.4375 13 L 9.21875 7.78125 z" overflow="visible" font-family="Bitstream Vera Sans" fill="#000000"/></svg>
