<?xml version="1.0" encoding="utf-8"?>
<svg xmlns="http://www.w3.org/2000/svg" viewBox="0 0 32 32" fill="#000000"><path style="text-indent:0;text-align:start;line-height:normal;text-transform:none;block-progression:tb;-inkscape-font-specification:Sans" d="M 12 3 C 10.35503 3 9 4.3550302 9 6 L 9 16 L 7 16 L 7 18 L 25 18 L 25 16 L 23 16 L 23 6 C 23 4.3550302 21.64497 3 20 3 L 12 3 z M 12 5 L 13 5 L 13 16 L 11 16 L 11 6 C 11 5.4349698 11.43497 5 12 5 z M 15 5 L 20 5 C 20.56503 5 21 5.4349698 21 6 L 21 16 L 15 16 L 15 5 z M 3 9 L 3 10 L 3 24 L 3 25 L 4 25 L 15 25 L 15 27 L 10 27 L 10 29 L 22 29 L 22 27 L 17 27 L 17 25 L 28 25 L 29 25 L 29 24 L 29 10 L 29 9 L 28 9 L 24 9 L 24 11 L 27 11 L 27 23 L 5 23 L 5 11 L 8 11 L 8 9 L 4 9 L 3 9 z" fill="#000000"/></svg>
