<?xml version="1.0" encoding="utf-8"?>
<svg xmlns="http://www.w3.org/2000/svg" viewBox="0 0 32 32" fill="#000000"><path style="text-indent:0;text-align:start;line-height:normal;text-transform:none;block-progression:tb;-inkscape-font-specification:Sans" d="M 22 3 C 22 3 20.247738 3.00504 18.5 4.03125 C 17.559348 4.5835696 16.638133 5.4938796 15.96875 6.78125 C 14.631549 4.2690183 12.46875 3.125 12.46875 3.125 L 11.53125 4.875 C 11.53125 4.875 14.574353 6.4153661 14.96875 10.1875 C 14.300047 10.387748 13.715503 10.736247 13.28125 11.21875 C 12.635047 11.936753 12.255574 12.828671 12.03125 13.75 C 11.66696 15.243822 10.188961 16.575868 8.9375 18.21875 C 8.0156683 19.429751 7.3101945 20.83827 7.125 22.34375 C 6.9398055 23.84923 7.3053471 25.454976 8.4375 26.8125 C 10.318593 29.068888 13.289285 30 16 30 C 18.710715 30 21.681407 29.068888 23.5625 26.8125 C 24.694653 25.454976 25.060194 23.84923 24.875 22.34375 C 24.689806 20.83827 23.984332 19.429751 23.0625 18.21875 C 21.811039 16.575868 20.33304 15.243822 19.96875 13.75 C 19.760172 12.893341 19.410289 12.064644 18.84375 11.375 C 20.497392 10.602514 21.583994 9.2274198 22.15625 7.90625 C 23.008851 5.9378451 23 4 23 4 L 23 3 L 22 3 z M 20.71875 5.28125 C 20.6441 5.8843464 20.70132 6.1960878 20.3125 7.09375 C 19.761553 8.3657256 18.865957 9.4878269 17.125 9.84375 C 17.406089 7.5302304 18.423282 6.3822128 19.5 5.75 C 19.944398 5.4890645 20.330837 5.3929883 20.71875 5.28125 z M 16 12 C 16.548878 12 16.877203 12.183003 17.21875 12.5625 C 17.560297 12.941997 17.863574 13.561329 18.03125 14.25 C 18.60096 16.586178 20.418211 18.058382 21.46875 19.4375 C 22.226918 20.433499 22.746694 21.55073 22.875 22.59375 C 23.003306 23.63677 22.8231 24.581774 22.03125 25.53125 C 20.654343 27.182862 18.245285 28 16 28 C 13.754715 28 11.345657 27.182862 9.96875 25.53125 C 9.1769029 24.581774 8.9966945 23.63677 9.125 22.59375 C 9.2533055 21.55073 9.7730817 20.433499 10.53125 19.4375 C 11.581789 18.058382 13.39904 16.586178 13.96875 14.25 C 14.136426 13.561329 14.439703 12.941997 14.78125 12.5625 C 15.122797 12.183003 15.451122 12 16 12 z" overflow="visible" font-family="Sans" fill="#000000"/></svg>
