<?xml version="1.0" encoding="utf-8"?>
<svg xmlns="http://www.w3.org/2000/svg" viewBox="0 0 32 32" fill="#000000"><path style="text-indent:0;text-align:start;line-height:normal;text-transform:none;block-progression:tb;-inkscape-font-specification:Sans" d="M 18.125 3.3125 L 15.28125 6.3125 L 14.625 7 L 15.28125 7.6875 L 18.125 10.6875 L 19.5625 9.3125 L 18.3125 8 L 19 8 C 20.668484 8 22 9.3315161 22 11 L 22 22.1875 C 20.844255 22.605718 20 23.707982 20 25 C 20 26.64501 21.35499 28 23 28 C 24.64501 28 26 26.64501 26 25 C 26 23.707982 25.155745 22.605718 24 22.1875 L 24 11 C 24 8.2504839 21.749516 6 19 6 L 18.3125 6 L 19.5625 4.6875 L 18.125 3.3125 z M 9 4 C 7.3549904 4 6 5.3549904 6 7 C 6 8.292018 6.8442552 9.3942821 8 9.8125 L 8 22.1875 C 6.8442551 22.605718 6 23.707983 6 25 C 6 26.645009 7.3549901 28 9 28 C 10.64501 28 12 26.64501 12 25 C 12 23.707982 11.155745 22.605718 10 22.1875 L 10 9.8125 C 11.155745 9.3942822 12 8.2920182 12 7 C 12 5.3549901 10.645009 4 9 4 z M 9 6 C 9.5641286 6 10 6.4358709 10 7 C 10 7.5641291 9.5641286 8 9 8 C 8.4358706 8 8 7.5641294 8 7 C 8 6.4358706 8.4358706 6 9 6 z M 9 24 C 9.5641283 24 10 24.435872 10 25 C 10 25.564128 9.5641283 26 9 26 C 8.4358709 26 8 25.564129 8 25 C 8 24.435871 8.4358709 24 9 24 z M 23 24 C 23.564128 24 24 24.435872 24 25 C 24 25.564128 23.564128 26 23 26 C 22.435872 26 22 25.564128 22 25 C 22 24.435872 22.435872 24 23 24 z" fill="#000000"/></svg>
