<?xml version="1.0" encoding="utf-8"?>
<svg xmlns="http://www.w3.org/2000/svg" viewBox="0 0 32 32" fill="#000000"><path style="text-indent:0;text-align:start;line-height:normal;text-transform:none;block-progression:tb;-inkscape-font-specification:Bitstream Vera Sans" d="M 5 4 C 4.4477153 4 4 4.4477153 4 5 C 4 5.5522847 4.4477153 6 5 6 C 5.5522847 6 6 5.5522847 6 5 C 6 4.4477153 5.5522847 4 5 4 z M 8 4 C 7.4477153 4 7 4.4477153 7 5 C 7 5.5522847 7.4477153 6 8 6 C 8.5522847 6 9 5.5522847 9 5 C 9 4.4477153 8.5522847 4 8 4 z M 11 4 C 10.447715 4 10 4.4477153 10 5 C 10 5.5522847 10.447715 6 11 6 C 11.552285 6 12 5.5522847 12 5 C 12 4.4477153 11.552285 4 11 4 z M 14 4 C 13.447715 4 13 4.4477153 13 5 C 13 5.5522847 13.447715 6 14 6 C 14.552285 6 15 5.5522847 15 5 C 15 4.4477153 14.552285 4 14 4 z M 17 4 C 16.447715 4 16 4.4477153 16 5 C 16 5.5522847 16.447715 6 17 6 C 17.552285 6 18 5.5522847 18 5 C 18 4.4477153 17.552285 4 17 4 z M 20 4 C 19.447715 4 19 4.4477153 19 5 C 19 5.5522847 19.447715 6 20 6 C 20.552285 6 21 5.5522847 21 5 C 21 4.4477153 20.552285 4 20 4 z M 23 4 C 22.447715 4 22 4.4477153 22 5 C 22 5.5522847 22.447715 6 23 6 C 23.552285 6 24 5.5522847 24 5 C 24 4.4477153 23.552285 4 23 4 z M 26 4 C 25.447715 4 25 4.4477153 25 5 C 25 5.5522847 25.447715 6 26 6 C 26.552285 6 27 5.5522847 27 5 C 27 4.4477153 26.552285 4 26 4 z M 23.09375 8 C 22.416744 8 21.838557 8.3984787 21.46875 8.84375 C 21.098943 9.2890213 20.838982 9.803225 20.625 10.375 C 20.197035 11.51855 19.901754 12.892985 19.5625 14.25 C 19.498203 14.507189 19.442645 14.747736 19.375 15 L 12.90625 15 L 13.40625 17 L 18.75 17 C 18.635844 17.293399 18.500591 17.576346 18.375 17.8125 C 17.908641 18.689415 17.541667 19 17 19 C 16.280882 19 15.636386 19.364786 15.25 19.78125 C 14.863614 20.197714 14.637288 20.644563 14.4375 21.03125 C 14.237712 21.417937 14.058302 21.754191 13.9375 21.90625 C 13.877099 21.98228 13.868605 21.99557 13.875 22 C 13.825792 21.994899 13.780592 21.96324 13.625 21.78125 C 13.441951 21.567144 13.180139 21.174611 12.96875 20.625 C 12.545972 19.525778 12.193234 17.903855 11.84375 16.28125 C 11.494266 14.658645 11.172216 13.018763 10.6875 11.6875 C 10.445142 11.021869 10.149754 10.435824 9.75 9.9375 C 9.3502459 9.4391763 8.7361111 9 8 9 C 6.6991228 9 5.7841424 9.811455 5.40625 10.53125 C 5.0283576 11.251045 5 11.9375 5 11.9375 L 7 12.0625 C 7 12.0625 7.040392 11.748955 7.1875 11.46875 C 7.3346076 11.188545 7.4008772 11 8 11 C 8.013889 11 8.048192 10.97489 8.21875 11.1875 C 8.3893084 11.400114 8.6111081 11.821881 8.8125 12.375 C 9.0697105 13.081423 9.306024 14.009339 9.53125 15 L 4 15 L 4 17 L 9.96875 17 C 10.299669 18.531676 10.640282 20.052233 11.125 21.3125 C 11.382361 21.981639 11.668986 22.596918 12.09375 23.09375 C 12.518514 23.590582 13.167708 24 13.90625 24 C 14.613393 24 15.205177 23.566691 15.53125 23.15625 C 15.857323 22.745809 16.031038 22.332063 16.21875 21.96875 C 16.406462 21.605437 16.583261 21.302286 16.71875 21.15625 C 16.854239 21.010214 16.869118 21 17 21 C 18.458333 21 19.525734 19.935585 20.15625 18.75 C 20.786766 17.564415 21.151754 16.142985 21.5 14.75 C 21.848246 13.357015 22.15609 11.98145 22.5 11.0625 C 22.671955 10.603025 22.870197 10.281291 23 10.125 C 23.129803 9.9687088 23.095756 10 23.09375 10 C 23.399306 10 23.556154 10.162876 23.75 10.5 C 23.943846 10.837124 24.03125 11.1875 24.03125 11.1875 L 25.96875 10.8125 C 25.96875 10.8125 25.849904 10.162876 25.46875 9.5 C 25.087596 8.8371242 24.288194 8 23.09375 8 z M 22.5 15 C 22.3 16.1 22 17 22 17 L 28 17 L 28 15 L 22.5 15 z M 5 26 C 4.4477153 26 4 26.447715 4 27 C 4 27.552285 4.4477153 28 5 28 C 5.5522847 28 6 27.552285 6 27 C 6 26.447715 5.5522847 26 5 26 z M 8 26 C 7.4477153 26 7 26.447715 7 27 C 7 27.552285 7.4477153 28 8 28 C 8.5522847 28 9 27.552285 9 27 C 9 26.447715 8.5522847 26 8 26 z M 11 26 C 10.447715 26 10 26.447715 10 27 C 10 27.552285 10.447715 28 11 28 C 11.552285 28 12 27.552285 12 27 C 12 26.447715 11.552285 26 11 26 z M 14 26 C 13.447715 26 13 26.447715 13 27 C 13 27.552285 13.447715 28 14 28 C 14.552285 28 15 27.552285 15 27 C 15 26.447715 14.552285 26 14 26 z M 17 26 C 16.447715 26 16 26.447715 16 27 C 16 27.552285 16.447715 28 17 28 C 17.552285 28 18 27.552285 18 27 C 18 26.447715 17.552285 26 17 26 z M 20 26 C 19.447715 26 19 26.447715 19 27 C 19 27.552285 19.447715 28 20 28 C 20.552285 28 21 27.552285 21 27 C 21 26.447715 20.552285 26 20 26 z M 23 26 C 22.447715 26 22 26.447715 22 27 C 22 27.552285 22.447715 28 23 28 C 23.552285 28 24 27.552285 24 27 C 24 26.447715 23.552285 26 23 26 z M 26 26 C 25.447715 26 25 26.447715 25 27 C 25 27.552285 25.447715 28 26 28 C 26.552285 28 27 27.552285 27 27 C 27 26.447715 26.552285 26 26 26 z" fill="#000000"/></svg>
