<?xml version="1.0" encoding="utf-8"?>
<svg xmlns="http://www.w3.org/2000/svg" viewBox="0 0 32 32" fill="#000000"><path d="M 15 4 L 15 15 L 11.34375 15 L 16 22 L 20.65625 15 L 17 15 L 17 4 L 15 4 z M 10.90625 18.4375 C 7.03325 19.1395 4 20.68 4 23 C 4 26.283 10.037 28 16 28 C 21.963 28 28 26.283 28 23 C 28 20.68 24.96675 19.1395 21.09375 18.4375 L 19.875 20.28125 C 23.654 20.82925 26 22.088 26 23 C 26 24.194 22.012 26 16 26 C 9.988 26 6 24.194 6 23 C 6 22.088 8.346 20.82925 12.125 20.28125 L 10.90625 18.4375 z" fill="#000000"/></svg>
