<?xml version="1.0" encoding="utf-8"?>
<svg xmlns="http://www.w3.org/2000/svg" viewBox="0 0 32 32" fill="#000000"><path style="text-indent:0;text-align:start;line-height:normal;text-transform:none;block-progression:tb;-inkscape-font-specification:Bitstream Vera Sans" d="M 3.71875 2.28125 L 2.28125 3.71875 L 28.28125 29.71875 L 29.71875 28.28125 L 20 18.5625 L 20 17 L 27.125 17 L 28.625 14 L 31 14 L 31 9 L 29 9 L 29 8 L 27 8 L 27 9 L 10.4375 9 L 3.71875 2.28125 z M 3 8 L 4 10 L 4 12.78125 C 3.919 13.04325 3.672 13.5625 3 13.5625 L 2 13.5625 L 2 14.5625 C 2 15.5565 3.0165 17.0625 4.5625 17.0625 C 4.7925 17.0625 4.942 17.20025 5 17.28125 C 5.057 17.36125 5.13025 17.54775 5.03125 17.84375 L 3.375 24.21875 C 3.143 25.19675 3.2995 26.20675 3.8125 26.96875 C 4.2905 27.67475 5.047 28.126 5.875 28.25 L 9.46875 28.96875 C 9.65375 28.99975 9.84425 29 10.03125 29 C 10.79725 29 11.54875 28.7655 12.09375 28.3125 C 12.65975 27.8415 12.987 27.1585 13 26.4375 L 13.09375 23.1875 C 13.14275 23.0885 13.2475 23 13.3125 23 L 13.40625 23 L 14.1875 23 L 16 23 C 16.803 23 17.5605 22.75175 18.1875 22.34375 L 16.6875 20.875 C 16.4695 20.957 16.245 21 16 21 L 14.4375 21 L 14.65625 19.15625 C 14.90125 19.33225 15.15525 19.47375 15.40625 19.59375 L 12.90625 17.0625 L 12.375 21.21875 C 11.764 21.50775 11.297 22.048 11.125 22.75 L 11 26.40625 C 10.998 26.50725 10.9685 26.622 10.8125 26.75 C 10.5775 26.947 10.1615 27.055 9.8125 27 L 6.21875 26.28125 C 5.90175 26.23225 5.63475 26.08775 5.46875 25.84375 C 5.26675 25.54375 5.2135 25.13475 5.3125 24.71875 L 6.9375 18.40625 C 7.2035 17.63825 7.096 16.786 6.625 16.125 C 6.176 15.494 5.4575 15.0965 4.6875 15.0625 C 5.4755 14.5195 5.85475 13.672 5.96875 13.125 L 6 11 L 6.8125 11 L 3.8125 8 L 3 8 z M 16 11 L 29 11 L 29 12 L 28 12 L 27.375 12 L 18 12 L 18 14 L 26.40625 14 L 25.90625 15 L 16.4375 15 L 13.4375 12 L 16 12 L 16 11 z" overflow="visible" font-family="Bitstream Vera Sans" fill="#000000"/></svg>
