<?xml version="1.0" encoding="utf-8"?>
<svg xmlns="http://www.w3.org/2000/svg" viewBox="0 0 32 32" fill="#000000"><path style="text-indent:0;text-align:start;line-height:normal;text-transform:none;block-progression:tb;-inkscape-font-specification:Sans" d="M 10 2.25 C 6.555 3.763 3.763 6.555 2.25 10 L 4.09375 10.78125 C 5.40475 7.79625 7.79525 5.40575 10.78125 4.09375 L 10 2.25 z M 16 4 C 9.3844277 4 4 9.3844277 4 16 C 4 22.615572 9.3844277 28 16 28 C 22.615572 28 28 22.615572 28 16 C 28 9.3844277 22.615572 4 16 4 z M 16 6 C 21.534692 6 26 10.465308 26 16 C 26 21.534692 21.534692 26 16 26 C 10.465308 26 6 21.534692 6 16 C 6 10.465308 10.465308 6 16 6 z M 15 8 L 15 16 L 15 17 L 16 17 L 22 17 L 22 15 L 17 15 L 17 8 L 15 8 z M 27.90625 21.21875 C 26.59525 24.20375 24.20475 26.59425 21.21875 27.90625 L 22 29.75 C 25.445 28.237 28.20575 25.445 29.71875 22 L 27.90625 21.21875 z" overflow="visible" font-family="Sans" fill="#000000"/></svg>
