<?xml version="1.0" encoding="utf-8"?>
<svg xmlns="http://www.w3.org/2000/svg" viewBox="0 0 32 32" fill="#000000"><path style="text-indent:0;text-align:start;line-height:normal;text-transform:none;block-progression:tb;-inkscape-font-specification:Sans" d="M 3.71875 2.28125 L 2.28125 3.71875 L 13.3125 14.71875 L 15.25 16.65625 L 15.34375 16.75 L 17.28125 18.6875 L 28.28125 29.71875 L 29.71875 28.28125 L 27.28125 25.84375 C 32.419611 19.959691 32.199235 11.011735 26.59375 5.40625 L 25.1875 6.8125 C 30.032713 11.657713 30.26362 19.325274 25.875 24.4375 L 23.0625 21.625 C 25.880024 18.093729 25.640653 12.890653 22.375 9.625 L 20.9375 11.0625 C 23.43278 13.55778 23.640359 17.415284 21.59375 20.15625 L 18.71875 17.28125 L 18.71875 17.25 C 18.895937 16.869949 19 16.447375 19 16 C 19 14.346 17.654 13 16 13 C 15.552625 13 15.130051 13.104063 14.75 13.28125 L 14.71875 13.28125 L 3.71875 2.28125 z M 3.5 7.71875 C 1.885 10.15175 1 13.013 1 16 C 1 20.007 2.57325 23.76075 5.40625 26.59375 L 6.8125 25.1875 C 4.3575 22.7325 3 19.473 3 16 C 3 13.552 3.6815 11.2175 4.9375 9.1875 L 3.5 7.71875 z M 7.875 12.125 C 6.284 15.469 6.86 19.61 9.625 22.375 L 11.0625 20.9375 C 9.0935 18.9675 8.53425 16.12225 9.40625 13.65625 L 7.875 12.125 z" fill="#000000"/></svg>
