<?xml version="1.0" encoding="utf-8"?>
<svg xmlns="http://www.w3.org/2000/svg" viewBox="0 0 32 32" fill="#000000"><path style="text-indent:0;text-align:start;line-height:normal;text-transform:none;block-progression:tb;-inkscape-font-specification:Bitstream Vera Sans" d="M 15 4 C 9.4889969 4 5 8.4889972 5 14 C 5 17.685308 7.0219532 20.890511 10 22.625 L 10 25 C 10 26.093063 10.906937 27 12 27 L 18 27 C 19.093063 27 20 26.093063 20 25 L 20 22.625 C 22.978047 20.890511 25 17.685308 25 14 C 25 8.4889972 20.511003 4 15 4 z M 15 6 C 19.430123 6 23 9.5698774 23 14 C 23 18.430123 19.430123 22 15 22 C 10.569877 22 7 18.430123 7 14 C 7 9.5698774 10.569877 6 15 6 z M 15 12 C 13.895431 12 13 12.895431 13 14 C 13 15.104569 13.895431 16 15 16 C 16.104569 16 17 15.104569 17 14 C 17 12.895431 16.104569 12 15 12 z M 27 17 C 25.895431 17 25 17.895431 25 19 C 25 19.739604 25.403104 20.372707 26 20.71875 L 26 21 C 26 22.116666 25.116666 23 24 23 L 21 23 L 21 25 L 24 25 C 26.197334 25 28 23.197334 28 21 L 28 20.71875 C 28.596896 20.372707 29 19.739604 29 19 C 29 17.895431 28.104569 17 27 17 z M 12 23.5625 C 12.946836 23.860958 13.956304 24 15 24 C 16.043696 24 17.053164 23.860958 18 23.5625 L 18 25 L 12 25 L 12 23.5625 z" overflow="visible" font-family="Bitstream Vera Sans" fill="#000000"/></svg>
