<?xml version="1.0" encoding="utf-8"?>
<svg xmlns="http://www.w3.org/2000/svg" viewBox="0 0 32 32" fill="#000000"><path d="M 15 6 L 8 26 L 10 26 L 12.099609 20 L 17.087891 20 C 16.40061 21.17955 16 22.54362 16 24 C 16 28.4 19.6 32 24 32 C 28.4 32 32 28.4 32 24 C 32 19.6 28.4 16 24 16 C 22.841538 16 21.742541 16.255124 20.746094 16.703125 L 17 6 L 15 6 z M 16 8.8574219 L 19.095703 17.699219 C 18.971977 17.79586 18.852172 17.896424 18.734375 18 L 12.800781 18 L 16 8.8574219 z M 24 18 C 27.3 18 30 20.7 30 24 C 30 27.3 27.3 30 24 30 C 20.7 30 18 27.3 18 24 C 18 20.7 20.7 18 24 18 z M 23 20 L 23 23 L 20 23 L 20 25 L 23 25 L 23 28 L 25 28 L 25 25 L 28 25 L 28 23 L 25 23 L 25 20 L 23 20 z" fill="#000000"/></svg>
