<?xml version="1.0" encoding="utf-8"?>
<svg xmlns="http://www.w3.org/2000/svg" viewBox="0 0 32 32" fill="#000000"><path style="text-indent:0;text-align:start;line-height:normal;text-transform:none;block-progression:tb;-inkscape-font-specification:Bitstream Vera Sans" d="M 5 5 L 5 6 L 5 26 L 5 27 L 6 27 L 26 27 L 27 27 L 27 26 L 27 6 L 27 5 L 26 5 L 6 5 L 5 5 z M 7 7 L 25 7 L 25 25 L 7 25 L 7 7 z M 15 10 L 15 19 C 15 19.56503 14.56503 20 14 20 L 13 20 C 12.43497 20 12 19.56503 12 19 L 12 16 L 10 16 L 10 19 C 10 19.56503 9.5650302 20 9 20 L 8 20 L 8 22 L 9 22 C 9.7668463 22 10.467077 21.699798 11 21.21875 C 11.532923 21.699798 12.233154 22 13 22 L 14 22 C 14.766846 22 15.467077 21.699798 16 21.21875 C 16.532923 21.699798 17.233154 22 18 22 L 19 22 C 19.766846 22 20.467077 21.699798 21 21.21875 C 21.532923 21.699798 22.233154 22 23 22 L 24 22 L 24 20 L 23 20 C 22.43497 20 22 19.56503 22 19 L 22 16 L 20 16 L 20 19 C 20 19.56503 19.56503 20 19 20 L 18 20 C 17.43497 20 17 19.56503 17 19 L 17 10 L 15 10 z" overflow="visible" font-family="Bitstream Vera Sans" fill="#000000"/></svg>
