<?xml version="1.0" encoding="utf-8"?>
<svg xmlns="http://www.w3.org/2000/svg" viewBox="0 0 32 32" fill="#000000"><path style="text-indent:0;text-align:start;line-height:normal;text-transform:none;block-progression:tb;-inkscape-font-specification:Sans" d="M 16 4 C 9.3844277 4 4 9.3844277 4 16 C 4 22.615572 9.3844277 28 16 28 C 22.615572 28 28 22.615572 28 16 C 28 9.3844277 22.615572 4 16 4 z M 16 6 C 21.534692 6 26 10.465308 26 16 C 26 21.534692 21.534692 26 16 26 C 10.465308 26 6 21.534692 6 16 C 6 10.465308 10.465308 6 16 6 z M 14.4375 8 L 14.15625 8.4375 C 14.15625 8.4375 13.393888 9.6125595 12.625 10.96875 C 12.240556 11.646845 11.865173 12.385672 11.5625 13.0625 C 11.259827 13.739328 11 14.292892 11 15 L 11 17 L 11 20 C 11 21.645455 12.354545 23 14 23 L 19 23 C 19.824545 23 20.555086 22.587651 21 22.0625 C 21.444914 21.537349 21.708811 20.9462 21.9375 20.375 C 22.253206 19.584652 22.4578 18.380774 22.65625 17.25 C 22.8547 16.119226 23 15.15625 23 15.15625 L 23 15.0625 L 23 15 C 23 13.354545 21.645455 12 20 12 L 16.375 12 L 16.90625 10.40625 L 16.9375 10.3125 L 16.90625 10.3125 C 17.068537 9.8890136 17.150735 9.3581616 16.9375 8.9375 C 16.709733 8.4881707 16.318754 8.299554 16.03125 8.1875 C 15.456242 7.963392 14.96875 8 14.96875 8 L 14.4375 8 z M 14.1875 12.34375 L 14.0625 12.6875 L 13.625 14 L 15 14 L 20 14 C 20.54 14 20.94622 14.434548 20.96875 14.96875 C 20.968501 14.970461 20.969033 14.997946 20.96875 15 L 19 15 L 19 17 L 20.65625 17 C 20.596424 17.333083 20.540086 17.666673 20.46875 18 L 19 18 L 19 20 L 19.90625 20 C 19.76399 20.32717 19.623939 20.60371 19.5 20.75 C 19.329414 20.951349 19.275455 21 19 21 L 14 21 C 13.445455 21 13 20.554545 13 20 L 13 17 L 13 15 C 13 14.9986 13.115173 14.456016 13.375 13.875 C 13.58423 13.407126 13.897027 12.871262 14.1875 12.34375 z" overflow="visible" font-family="Sans" fill="#000000"/></svg>
