<?xml version="1.0" encoding="utf-8"?>
<svg xmlns="http://www.w3.org/2000/svg" viewBox="0 0 32 32" fill="#000000"><path style="text-indent:0;text-align:start;line-height:normal;text-transform:none;block-progression:tb;-inkscape-font-specification:Bitstream Vera Sans" d="M 7 7 C 3.6981362 7 1 9.6981359 1 13 C 1 15.763182 2.8858205 18.091156 5.4375 18.78125 C 5.1634708 19.466801 5 20.219247 5 21 C 5 24.301864 7.6981362 27 11 27 C 13.088012 27 14.924488 25.909557 16 24.28125 C 17.075512 25.909557 18.911988 27 21 27 C 24.301864 27 27 24.301864 27 21 C 27 20.219247 26.836529 19.466801 26.5625 18.78125 C 29.11418 18.091156 31 15.763182 31 13 C 31 9.698136 28.301864 7 25 7 C 23.214323 7 21.601249 7.7842578 20.5 9.03125 C 19.398751 7.7842578 17.785677 7 16 7 C 14.214323 7 12.601249 7.7842578 11.5 9.03125 C 10.398751 7.7842578 8.7856772 7 7 7 z M 7 9 C 8.4473528 9 9.6730612 9.7652655 10.375 10.90625 C 10.132226 11.556533 10 12.267399 10 13 C 10 13.708651 10.11589 14.398922 10.34375 15.03125 C 8.856015 15.191225 7.5246038 15.887723 6.5625 16.9375 C 4.5528091 16.719172 3 15.071027 3 13 C 3 10.779016 4.7790164 9 7 9 z M 16 9 C 17.447353 9 18.673061 9.7652655 19.375 10.90625 C 19.132226 11.556533 19 12.267399 19 13 C 19 13.732601 19.132226 14.443467 19.375 15.09375 C 19.346271 15.140449 19.343072 15.204618 19.3125 15.25 C 18.255971 15.560814 17.322766 16.147384 16.59375 16.9375 C 16.39948 16.966105 16.202645 17 16 17 C 15.797355 17 15.60052 16.966105 15.40625 16.9375 C 14.677234 16.147384 13.744029 15.560814 12.6875 15.25 C 12.656928 15.204618 12.653729 15.140449 12.625 15.09375 C 12.867774 14.443467 13 13.732601 13 13 C 13 12.267399 12.867774 11.556533 12.625 10.90625 C 13.326939 9.7652655 14.552647 9 16 9 z M 25 9 C 27.220984 9 29 10.779016 29 13 C 29 15.071027 27.447191 16.719172 25.4375 16.9375 C 24.475396 15.887723 23.143985 15.191225 21.65625 15.03125 C 21.88411 14.398922 22 13.708651 22 13 C 22 12.267399 21.867774 11.556533 21.625 10.90625 C 22.326939 9.7652655 23.552647 9 25 9 z M 11.4375 17.0625 C 11.488627 17.068054 11.54324 17.055063 11.59375 17.0625 C 12.322752 17.852565 13.256017 18.4392 14.3125 18.75 C 14.74234 19.388057 15 20.167131 15 21 C 15 23.220984 13.220984 25 11 25 C 8.7790164 25 7 23.220984 7 21 C 7 20.25643 7.2138668 19.563069 7.5625 18.96875 C 9.0872076 18.828438 10.455757 18.133805 11.4375 17.0625 z M 20.40625 17.0625 C 20.45676 17.055063 20.511373 17.068054 20.5625 17.0625 C 21.544243 18.133805 22.912792 18.828438 24.4375 18.96875 C 24.786133 19.563069 25 20.25643 25 21 C 25 23.220984 23.220984 25 21 25 C 18.779016 25 17 23.220984 17 21 C 17 20.167131 17.25766 19.388057 17.6875 18.75 C 18.743983 18.4392 19.677248 17.852565 20.40625 17.0625 z" overflow="visible" font-family="Bitstream Vera Sans" fill="#000000"/></svg>
