<?xml version="1.0" encoding="utf-8"?>
<svg xmlns="http://www.w3.org/2000/svg" viewBox="0 0 32 32" fill="#000000"><path style="line-height:normal;text-indent:0;text-align:start;text-decoration-line:none;text-decoration-style:solid;text-decoration-color:#000;text-transform:none;block-progression:tb;isolation:auto;mix-blend-mode:normal" d="M 25.070312 4 C 24.076152 4.00231 23.211161 4.5548542 22.703125 5.3183594 L 22.738281 5.2695312 C 22.082551 6.137085 21.258153 7.1552927 20.388672 8.1953125 C 20.35408 8.182661 20.326451 8.1671804 20.279297 8.1523438 L 20.277344 8.1523438 C 19.720692 7.9777915 19.12716 7.9523399 18.560547 8.078125 C 17.993934 8.2039101 17.454699 8.4806327 17.009766 8.9082031 L 15.501953 10.361328 C 14.94009 10.144659 14.321018 10.009858 13.673828 10 C 12.755296 9.986009 11.743312 10.235204 10.990234 10.988281 C 10.238309 11.740207 9.9866197 12.750933 10 13.669922 C 10.009417 14.316715 10.144305 14.936862 10.363281 15.5 L 8.9082031 17.009766 C 8.0530622 17.899633 7.8032394 19.163945 8.1523438 20.277344 L 8.1523438 20.279297 C 8.1671804 20.326451 8.1826611 20.35408 8.1953125 20.388672 C 7.1551679 21.258335 6.1374723 22.082953 5.2695312 22.738281 L 5.3183594 22.703125 C 4.5548544 23.211165 4.0023051 24.076152 4 25.070312 C 3.9968689 26.734515 5.4682707 27.997182 7.1367188 28 L 7.1386719 28 L 7.15625 28 C 8.6251429 28 10.136679 27.691787 11.644531 27.181641 C 12.248762 27.822471 13.091061 28 13.761719 28 C 14.274835 28 14.791556 27.869006 15.259766 27.609375 L 15.261719 27.609375 L 15.261719 27.607422 C 15.814314 27.299171 16.579215 26.770425 18.046875 25.582031 C 19.452888 26.281426 21.210611 26.06478 22.376953 24.898438 L 24.900391 22.376953 C 26.067159 21.211268 26.283362 19.451829 25.583984 18.044922 C 26.7708 16.579056 27.299347 15.813998 27.607422 15.261719 L 27.609375 15.261719 L 27.609375 15.259766 C 27.868959 14.791603 28 14.274835 28 13.761719 C 28 13.091061 27.822537 12.248762 27.181641 11.644531 C 27.69213 10.136322 28 8.6245346 28 7.1542969 L 28 7.1367188 C 27.997181 5.4695317 26.735476 3.998054 25.072266 4 L 25.070312 4 z M 25.074219 6 C 25.536017 5.9991311 25.99882 6.4424818 26 7.140625 L 26 7.1542969 C 26 8.2205464 25.802732 9.3694486 25.441406 10.554688 C 24.730085 10.176625 23.937769 9.791194 23.166016 9.4277344 C 22.839077 9.2737616 22.589588 9.1651001 22.291016 9.0292969 C 23.034464 8.1312883 23.746083 7.2524234 24.333984 6.4746094 L 24.351562 6.4511719 L 24.369141 6.4257812 C 24.56076 6.137794 24.805215 6.0004256 25.074219 6 z M 19.34375 10.001953 C 19.457943 10.006806 19.570537 10.026323 19.679688 10.060547 C 19.589948 10.032307 19.746678 10.086591 19.898438 10.150391 C 20.050202 10.214191 20.25641 10.303949 20.501953 10.412109 C 20.99304 10.628429 21.637831 10.919624 22.314453 11.238281 C 23.667698 11.875596 25.200102 12.665016 25.767578 13.064453 C 25.890345 13.151854 26 13.405657 26 13.761719 C 26 13.937381 25.9563 14.114457 25.861328 14.287109 C 25.612469 14.733236 25.172713 15.360181 24.236328 16.529297 C 24.095477 16.417885 23.978089 16.324648 23.792969 16.179688 C 23.174703 15.695547 22.33225 15.041966 21.414062 14.345703 C 20.047735 13.309614 18.543856 12.194552 17.322266 11.384766 L 18.396484 10.349609 C 18.651584 10.104465 19.00117 9.9873932 19.34375 10.001953 z M 13.644531 12 C 14.186749 12.0083 14.798238 12.190516 15.193359 12.414062 C 16.245747 13.009704 18.390203 14.56323 20.205078 15.939453 C 21.112516 16.627565 21.948906 17.276906 22.560547 17.755859 C 22.866367 17.995336 23.115419 18.192255 23.289062 18.330078 C 23.375882 18.398988 23.44473 18.451761 23.490234 18.488281 C 24.176401 19.183598 24.176832 20.271069 23.486328 20.960938 L 20.962891 23.484375 C 20.26914 24.178126 19.174219 24.178126 18.480469 23.484375 C 18.555869 23.559775 18.405169 23.398485 18.261719 23.224609 C 18.118269 23.050734 17.92388 22.810745 17.691406 22.519531 C 17.22646 21.937104 16.612564 21.153976 15.958984 20.292969 C 14.651825 18.570954 13.172896 16.512856 12.416016 15.1875 C 12.190059 14.792075 12.00787 14.181136 12 13.640625 C 11.99213 13.100114 12.133222 12.673418 12.404297 12.402344 C 12.674219 12.132421 13.102313 11.991741 13.644531 12 z M 11.382812 17.324219 C 12.237702 18.643838 13.346555 20.159973 14.365234 21.501953 C 15.029905 22.377571 15.651587 23.172099 16.126953 23.767578 C 16.282813 23.962821 16.394474 24.097459 16.515625 24.246094 C 15.35707 25.173349 14.731432 25.613475 14.287109 25.861328 C 14.11441 25.95635 13.937381 26 13.761719 26 C 13.405657 26 13.15185 25.890345 13.064453 25.767578 C 12.665016 25.200102 11.875596 23.667698 11.238281 22.314453 C 10.919624 21.637831 10.628429 20.99304 10.412109 20.501953 C 10.303949 20.25641 10.214196 20.050202 10.150391 19.898438 C 10.086581 19.746672 10.032307 19.589948 10.060547 19.679688 C 9.923651 19.243085 10.022747 18.736617 10.349609 18.396484 L 11.382812 17.324219 z M 9.0292969 22.291016 C 9.1651001 22.589588 9.2737616 22.839077 9.4277344 23.166016 C 9.791194 23.937769 10.176625 24.730076 10.554688 25.441406 C 9.3697501 25.802724 8.2216549 26 7.15625 26 L 7.140625 26 L 7.1386719 26 C 6.4403886 25.997856 5.9991321 25.535533 6 25.074219 C 6.0004256 24.805215 6.1377945 24.560767 6.4257812 24.369141 L 6.4511719 24.351562 L 6.4746094 24.333984 C 7.2537064 23.745737 8.1317018 23.034317 9.0292969 22.291016 z" font-weight="400" font-family="sans-serif" white-space="normal" overflow="visible" fill="#000000"/></svg>
