<?xml version="1.0" encoding="utf-8"?>
<svg xmlns="http://www.w3.org/2000/svg" viewBox="0 0 32 32" fill="#000000"><path d="M 3.71875 2.28125 L 2.28125 3.71875 L 28.28125 29.71875 L 29.71875 28.28125 L 24.6875 23.25 C 28.207312 20.693588 28.990456 16.218722 29 16.15625 L 29.03125 15.90625 L 28.9375 15.65625 C 28.8435 15.39025 26.631 9.321 20.5 9 C 19.144 7.449 15.83 6 12 6 L 10.5 6 L 11.0625 7.375 C 11.368393 8.1178821 11.736333 9.3626002 11.84375 10.40625 L 3.71875 2.28125 z M 13.40625 8.0625 C 16.34125 8.3795 18.61225 9.64025 19.15625 10.53125 L 19.4375 11 L 20 11 C 24.529 11 26.53075 15.05175 26.96875 16.09375 C 26.775829 17.010537 25.910245 20.095981 23.25 21.8125 L 13.90625 12.46875 C 14.770153 12.07169 15.67694 11.777592 16.59375 11.65625 L 16.3125 9.6875 C 15.5965 9.7825 14.76175 9.9645 13.84375 10.3125 C 13.77875 9.5445 13.59925 8.7495 13.40625 8.0625 z M 3 12 L 3 13 C 3 14.593 3.59025 16.236 3.90625 17 C 3.58625 17.751 3 19.343 3 21 L 3 22 L 4 22 C 6.191 22 7.94925 21.01975 8.90625 20.34375 C 9.85325 21.29375 11.5935 22.79575 13.9375 23.84375 C 13.8645 24.48975 13.81425 25.415 14.03125 26.25 L 14.21875 27 L 15 27 C 16.666 27 18.628 25.594 19.375 25 C 19.833 24.986 20.24025 24.938 20.65625 24.875 L 18.8125 23 L 18.625 23 L 18.34375 23.25 C 17.84775 23.677 16.793 24.4485 15.875 24.8125 C 15.878 24.2445 15.947 23.6725 16 23.4375 L 16.1875 22.59375 L 15.40625 22.3125 C 12.96625 21.3815 10.874 19.64375 9.75 18.34375 L 9.0625 17.5625 L 8.3125 18.28125 C 8.2975 18.29625 6.98375 19.495 5.09375 19.875 C 5.32775 18.555 5.89825 17.4515 5.90625 17.4375 L 6.125 17 L 5.90625 16.5625 C 5.89925 16.5475 5.365 15.42 5.125 14.125 C 7.03 14.501 8.3005 15.70675 8.3125 15.71875 L 9.0625 16.46875 L 9.75 15.65625 C 10.025 15.34525 10.31075 15.05625 10.59375 14.78125 L 9.1875 13.375 C 9.0965 13.463 8.99725 13.532 8.90625 13.625 C 7.95525 12.947 6.214 12 4 12 L 3 12 z M 22.5 15 C 21.671573 15 21 15.671573 21 16.5 C 21 17.328427 21.671573 18 22.5 18 C 23.328427 18 24 17.328427 24 16.5 C 24 15.671573 23.328427 15 22.5 15 z" fill="#000000"/></svg>
