<?xml version="1.0" encoding="utf-8"?>
<svg xmlns="http://www.w3.org/2000/svg" viewBox="0 0 32 32" fill="#000000"><path style="text-indent:0;text-align:start;line-height:normal;text-transform:none;block-progression:tb;-inkscape-font-specification:Bitstream Vera Sans" d="M 14 3 C 12.354991 3 11 4.3549901 11 6 C 11 7.6450099 12.354991 9 14 9 C 15.645009 9 17 7.6450099 17 6 C 17 4.3549901 15.645009 3 14 3 z M 14 5 C 14.564129 5 15 5.4358709 15 6 C 15 6.5641291 14.564129 7 14 7 C 13.435871 7 13 6.5641291 13 6 C 13 5.4358709 13.435871 5 14 5 z M 10.53125 9 C 10.29304 9.0062673 10.069667 9.0678915 9.84375 9.15625 L 7.78125 9.96875 C 7.2829626 10.162862 6.899177 10.54 6.6875 11.03125 L 5.40625 14.03125 L 7.21875 14.8125 L 8.53125 11.8125 L 10.59375 11.03125 L 10.84375 11.125 L 9.4375 14.625 C 9.0411044 15.627881 9.535642 16.803089 10.53125 17.21875 L 14 18.65625 L 14 23 L 16 23 L 16 18.65625 C 16 17.852919 15.523054 17.122745 14.78125 16.8125 L 11.3125 15.375 L 12.71875 11.78125 L 12.96875 11.875 L 13.9375 13.65625 C 14.378723 14.47311 15.323515 14.875666 16.21875 14.625 L 18.9375 13.875 L 18.40625 11.9375 L 15.6875 12.71875 L 14.71875 10.9375 C 14.485966 10.505755 14.090411 10.166505 13.625 10 L 11.25 9.125 C 11.022508 9.0428223 10.76946 8.9937327 10.53125 9 z M 23 15 L 23 16 L 23 18 L 21 18 L 20 18 L 20 19 L 20 21 L 18 21 L 17 21 L 17 22 L 17 24 L 15 24 L 14 24 L 14 25 L 14 28 L 16 28 L 16 26 L 18 26 L 19 26 L 19 25 L 19 23 L 21 23 L 22 23 L 22 22 L 22 20 L 24 20 L 25 20 L 25 19 L 25 17 L 27 17 L 27 15 L 24 15 L 23 15 z M 9 18.0625 L 8.15625 19.96875 L 5.03125 22.34375 L 6.21875 23.9375 L 9.375 21.5625 C 9.636914 21.361634 9.8320639 21.084337 9.96875 20.78125 L 10.84375 18.90625 L 9 18.0625 z" overflow="visible" font-family="Bitstream Vera Sans" fill="#000000"/></svg>
