<?xml version="1.0" encoding="utf-8"?>
<svg xmlns="http://www.w3.org/2000/svg" viewBox="0 0 32 32" fill="#000000"><path style="text-indent:0;text-align:start;line-height:normal;text-transform:none;block-progression:tb;-inkscape-font-specification:Sans" d="M 6 3 L 6 4 L 6 28 L 6 29 L 7 29 L 25 29 L 26 29 L 26 28 L 26 13.4375 L 27.71875 11.71875 L 28 11.40625 L 28 11 L 28 4 L 28 3 L 27 3 L 24 3 L 23 3 L 7 3 L 6 3 z M 8 5 L 15 5 L 15 6 L 17 6 L 17 5 L 22 5 L 22 11 L 22 11.40625 L 22.28125 11.71875 L 24 13.4375 L 24 27 L 8 27 L 8 5 z M 24 5 L 26 5 L 26 10.5625 L 25 11.5625 L 24 10.5625 L 24 5 z M 15 7 L 15 9 L 17 9 L 17 7 L 15 7 z M 15 10 L 15 12 L 17 12 L 17 10 L 15 10 z M 15 13 L 15 15 L 17 15 L 17 13 L 15 13 z M 15.0625 16 L 14.78125 16.5 C 14.78125 16.5 14.367961 17.256847 13.9375 18.15625 C 13.722269 18.605951 13.484851 19.086967 13.3125 19.5625 C 13.140149 20.038033 13 20.474881 13 21 C 13 22.64497 14.35503 24 16 24 C 17.64497 24 19 22.64497 19 21 C 19 20.470704 18.857653 20.115922 18.6875 19.65625 C 18.517347 19.196578 18.306957 18.707748 18.09375 18.25 C 17.667337 17.334503 17.21875 16.53125 17.21875 16.53125 L 16.9375 16 L 16.34375 16 L 15.65625 16 L 15.0625 16 z M 16 18.53125 C 16.121931 18.775676 16.143278 18.797528 16.28125 19.09375 C 16.480543 19.521627 16.673278 19.96764 16.8125 20.34375 C 16.951722 20.71986 17 21.071796 17 21 C 17 21.56503 16.56503 22 16 22 C 15.43497 22 15 21.56503 15 21 C 15 20.97262 15.05048 20.628061 15.1875 20.25 C 15.324524 19.871939 15.521481 19.443424 15.71875 19.03125 C 15.84928 18.758522 15.883361 18.755592 16 18.53125 z" fill="#000000"/></svg>
