<?xml version="1.0" encoding="utf-8"?>
<svg xmlns="http://www.w3.org/2000/svg" viewBox="0 0 32 32" fill="#000000"><path style="text-indent:0;text-align:start;line-height:normal;text-transform:none;block-progression:tb;-inkscape-font-specification:Sans" d="M 15.875 4 L 15.78125 4.03125 C 15.78125 4.03125 15.097749 4.2034881 14.25 4.6875 C 13.529246 5.0990058 12.638721 5.7973809 11.71875 6.8125 C 10.932244 6.295936 10.005826 6 9 6 C 6.2504209 6 4 8.2504209 4 11 C 4 13.292461 5.5737722 15.22899 7.6875 15.8125 C 7.5805376 16.256646 7.4807858 16.722681 7.40625 17.25 C 7.1578751 18.957185 7 20.839559 7 23 L 9 23 C 9 21.011931 9.1299002 19.270744 9.34375 17.71875 C 9.4355066 17.052835 9.5511703 16.493841 9.6875 15.9375 C 11.033238 15.747439 12.218438 15.012051 13 13.96875 L 13 27 L 13 28 L 14 28 L 26 28 L 27 28 L 27 27 L 27 12 L 27 11 L 26 11 L 24.84375 11 L 24.1875 7 L 25 7 L 26 7 L 26 6 L 26 5 L 26 4 L 25 4 L 16 4 L 15.875 4 z M 18.03125 6 L 21.96875 6 L 22 6.15625 L 22.8125 11 L 17.1875 11 L 18 6.15625 L 18.03125 6 z M 15.78125 7.125 L 15.125 11 L 14 11 C 14 10.069973 13.728414 9.2167905 13.28125 8.46875 C 14.220799 7.6595993 15.124404 7.2917722 15.78125 7.125 z M 9 8 C 9.534157 8 10.036337 8.1347725 10.46875 8.375 C 9.9154242 9.2608198 9.4198794 10.32761 8.9375 11.53125 C 8.7420614 11.989574 8.54669 12.413553 8.375 12.9375 C 8.2845185 13.223708 8.1949028 13.541025 8.125 13.875 C 6.8912053 13.503232 6 12.362303 6 11 C 6 9.3313011 7.3313011 8 9 8 z M 11.875 10.15625 C 11.953297 10.425574 12 10.703871 12 11 C 12 12.23605 11.275716 13.288136 10.21875 13.75 C 10.249627 13.636423 10.278138 13.508403 10.3125 13.40625 C 10.40029 13.136154 10.500233 12.938304 10.59375 12.6875 C 10.988711 11.682994 11.423442 10.851668 11.875 10.15625 z M 15 13 L 16 13 L 25 13 L 25 26 L 15 26 L 15 13 z M 17 16 L 17 18 L 23 18 L 23 16 L 17 16 z" overflow="visible" font-family="Sans" fill="#000000"/></svg>
