<?xml version="1.0" encoding="utf-8"?>
<svg xmlns="http://www.w3.org/2000/svg" viewBox="0 0 32 32" fill="#000000"><path style="text-indent:0;text-align:start;line-height:normal;text-transform:none;block-progression:tb;-inkscape-font-specification:Sans" d="M 16 3 C 8.8321429 3 3 8.8321429 3 16 C 3 23.167857 8.8321429 29 16 29 C 23.167857 29 29 23.167857 29 16 C 29 8.8321429 23.167857 3 16 3 z M 16 5 C 22.086977 5 27 9.9130231 27 16 C 27 22.086977 22.086977 27 16 27 C 9.9130231 27 5 22.086977 5 16 C 5 9.9130231 9.9130231 5 16 5 z M 16 8 C 11.243 8.838 7 13.227 7 18 C 9.328 13.89 10.8825 13.59475 11.3125 13.59375 C 11.7425 13.59375 11.96875 13.8165 11.96875 14.3125 L 11.96875 20.4375 C 11.96875 21.1995 10.488 21.073 10 21 C 11.807 23.693 16 24 16 24 L 18 22 L 20 23 C 23.155 21.556 25 18.46 25 18 C 23.629 19.513 22.265 20 22 20 C 21.735 20 21 19.865 21 19.5 L 21 12.25 C 21 11.62 22.452 9.698 23 9 C 19.392 9.946 18.34375 11.59375 18.34375 11.59375 C 18.34375 11.59375 18.069 11 17 11 C 17.4 11.343 18 12.272 18 13 L 18 19.125 C 18 19.125 16.695 20 16 20 C 15.305 20 14.96875 19.7175 14.96875 19.1875 C 14.96875 18.6575 15 12 15 12 C 15 12 14 12.3665 14 10.3125 C 14 9.2865 16 8 16 8 z" overflow="visible" font-family="Sans" fill="#000000"/></svg>
