<?xml version="1.0" encoding="utf-8"?>
<svg xmlns="http://www.w3.org/2000/svg" viewBox="0 0 32 32" fill="#000000"><path style="text-indent:0;text-align:start;line-height:normal;text-transform:none;block-progression:tb;-inkscape-font-specification:Sans" d="M 16 4 C 9.3845336 4 4 9.3845336 4 16 C 4 22.615466 9.3845336 28 16 28 C 20.051004 28 23.641038 25.989486 25.8125 22.90625 L 24.1875 21.75 C 22.376962 24.320764 19.388996 26 16 26 C 10.465466 26 6 21.534534 6 16 C 6 10.465466 10.465466 6 16 6 C 19.389176 6 22.376935 7.6791977 24.1875 10.25 L 25.8125 9.09375 C 23.641065 6.0105523 20.050824 4 16 4 z M 23.34375 11.28125 L 21.90625 12.71875 L 24.1875 15 L 12 15 L 12 17 L 24.1875 17 L 21.90625 19.28125 L 23.34375 20.71875 L 27.34375 16.71875 L 28.03125 16 L 27.34375 15.28125 L 23.34375 11.28125 z" overflow="visible" font-family="Sans" fill="#000000"/></svg>
