<?xml version="1.0" encoding="utf-8"?>
<svg xmlns="http://www.w3.org/2000/svg" viewBox="0 0 32 32" fill="#000000"><path style="text-indent:0;text-align:start;line-height:normal;text-transform:none;block-progression:tb;-inkscape-font-specification:Bitstream Vera Sans" d="M 16 4 C 13.887357 4 12.072334 5.4548277 10.875 7.5625 C 9.7052168 9.621674 9.0303873 12.367339 9 15.53125 C 8.2118566 15.067592 7.378001 14.605263 6.46875 14.125 L 5 13.34375 L 5 15 L 5 15.21875 L 5 15.65625 L 5.34375 15.96875 C 6.69939 17.172613 7.1566767 19.915149 8.15625 22.625 C 8.6560367 23.979926 9.3367924 25.321036 10.53125 26.34375 C 11.725708 27.366464 13.38552 28 15.59375 28 L 16.59375 28 L 16.59375 27.96875 C 18.267473 27.88739 19.562686 27.502398 20.53125 26.875 C 21.620918 26.169156 22.304327 25.206298 22.8125 24.34375 C 23.320673 23.481202 23.684359 22.705777 24.15625 22.15625 C 24.628141 21.606723 25.136773 21.228375 26.15625 21.0625 L 27 20.9375 L 27 20.09375 L 27 20 L 27 19.4375 L 26.53125 19.15625 C 25.306772 18.404892 24.087897 18.040807 22.9375 18 C 22.979205 17.290989 23 16.544817 23 15.75 C 23 12.491287 22.322334 9.6701723 21.125 7.5625 C 19.927666 5.4548277 18.112643 4 16 4 z M 16 6 C 17.069624 6 18.153553 6.6477533 19.0625 8 C 19.041184 7.9986436 19.021658 8 19 8 C 18.447715 8 18 8.4477153 18 9 C 18 9.5522847 18.447715 10 19 10 C 19.364965 10 19.669139 9.792004 19.84375 9.5 C 20.549742 11.143278 21 13.290777 21 15.75 C 21 16.67378 20.968383 17.499977 20.90625 18.28125 C 20.365749 18.435635 19.853469 18.65443 19.375 18.90625 C 18.728691 19.246405 18.143204 19.652398 17.625 20.09375 C 16.836184 20.765582 16.205254 21.469511 15.6875 22.125 C 15.275528 21.143632 14.737187 20.254801 14.03125 19.4375 C 13.854933 19.233368 13.661998 19.039946 13.46875 18.84375 C 13.773673 18.672456 14 18.374639 14 18 C 14 17.447715 13.552285 17 13 17 C 12.585786 17 12.245558 17.266085 12.09375 17.625 C 11.75114 17.351629 11.41012 17.076075 11.03125 16.8125 C 11.019289 16.458385 11 16.12038 11 15.75 C 11 13.290777 11.450258 11.143278 12.15625 9.5 C 12.330861 9.792004 12.635035 10 13 10 C 13.552285 10 14 9.5522847 14 9 C 14 8.4477153 13.552285 8 13 8 C 12.978342 8 12.958816 7.9986436 12.9375 8 C 13.846447 6.6477533 14.930376 6 16 6 z M 19.375 18.90625 C 19.733915 18.754442 20 18.414214 20 18 C 20 17.447715 19.552285 17 19 17 C 18.447715 17 18 17.447715 18 18 C 18 18.552285 18.447715 19 19 19 C 19.138071 19 19.255362 18.956853 19.375 18.90625 z M 16 7 C 15.447715 7 15 7.4477153 15 8 C 15 8.5522847 15.447715 9 16 9 C 16.552285 9 17 8.5522847 17 8 C 17 7.4477153 16.552285 7 16 7 z M 16 10 C 15.447715 10 15 10.447715 15 11 C 15 11.552285 15.447715 12 16 12 C 16.552285 12 17 11.552285 17 11 C 17 10.447715 16.552285 10 16 10 z M 13 11 C 12.447715 11 12 11.447715 12 12 C 12 12.552285 12.447715 13 13 13 C 13.552285 13 14 12.552285 14 12 C 14 11.447715 13.552285 11 13 11 z M 19 11 C 18.447715 11 18 11.447715 18 12 C 18 12.552285 18.447715 13 19 13 C 19.552285 13 20 12.552285 20 12 C 20 11.447715 19.552285 11 19 11 z M 16 13 C 15.447715 13 15 13.447715 15 14 C 15 14.552285 15.447715 15 16 15 C 16.552285 15 17 14.552285 17 14 C 17 13.447715 16.552285 13 16 13 z M 13 14 C 12.447715 14 12 14.447715 12 15 C 12 15.552285 12.447715 16 13 16 C 13.552285 16 14 15.552285 14 15 C 14 14.447715 13.552285 14 13 14 z M 19 14 C 18.447715 14 18 14.447715 18 15 C 18 15.552285 18.447715 16 19 16 C 19.552285 16 20 15.552285 20 15 C 20 14.447715 19.552285 14 19 14 z M 16 16 C 15.447715 16 15 16.447715 15 17 C 15 17.552285 15.447715 18 16 18 C 16.552285 18 17 17.552285 17 17 C 17 16.447715 16.552285 16 16 16 z M 8.6875 17.71875 C 10.276047 18.716229 11.608092 19.717391 12.5 20.75 C 13.697506 22.136416 14.255663 23.75436 14.4375 25.84375 C 13.313125 25.67956 12.420575 25.364394 11.8125 24.84375 C 10.998083 24.146433 10.473963 23.137699 10.03125 21.9375 C 9.5532977 20.641768 9.2089728 19.139297 8.6875 17.71875 z M 16 19 C 15.447715 19 15 19.447715 15 20 C 15 20.552285 15.447715 21 16 21 C 16.552285 21 17 20.552285 17 20 C 17 19.447715 16.552285 19 16 19 z M 22.6875 19.96875 C 22.967804 19.967418 23.264513 20.005776 23.5625 20.0625 C 23.229616 20.305082 22.903088 20.556302 22.65625 20.84375 C 21.951235 21.664754 21.512952 22.579173 21.0625 23.34375 C 20.612048 24.108327 20.154488 24.723063 19.4375 25.1875 C 18.812551 25.592318 17.914789 25.894188 16.5625 25.96875 C 16.532329 25.489076 16.480408 25.040107 16.40625 24.59375 C 16.816169 23.932253 17.675979 22.672818 18.90625 21.625 C 19.772029 20.887619 20.801819 20.268082 21.875 20.0625 C 22.143296 20.011105 22.407196 19.970082 22.6875 19.96875 z" fill="#000000"/></svg>
