<?xml version="1.0" encoding="utf-8"?>
<svg xmlns="http://www.w3.org/2000/svg" viewBox="0 0 32 32" fill="#000000"><path style="text-indent:0;text-align:start;line-height:normal;text-transform:none;block-progression:tb;-inkscape-font-specification:Bitstream Vera Sans" d="M 3.71875 2.28125 L 2.28125 3.71875 L 28.28125 29.71875 L 29.71875 28.28125 L 25.90625 24.46875 L 26.125 24.25 L 25.75 23.09375 C 25.718 22.99275 25.1655 21.24 23.8125 19.25 C 25.9315 18.862 27.552 18.11175 28.125 17.71875 L 29 17.125 L 29 16.09375 L 29 15.90625 L 29 14.6875 L 27.9375 14.125 C 27.8435 14.076 26.1755 13.23225 23.8125 12.78125 C 25.0365 11.00825 25.6845 9.33925 25.8125 8.65625 L 26 7.625 L 25.25 6.875 L 25.125 6.75 L 24.25 5.875 L 23.09375 6.25 C 22.99275 6.282 21.24 6.8345 19.25 8.1875 C 18.862 6.0685 18.11175 4.448 17.71875 3.875 L 17.125 3 L 16.09375 3 L 15.90625 3 L 14.6875 3 L 14.125 4.0625 C 14.076 4.1565 13.23225 5.8245 12.78125 8.1875 C 11.00825 6.9635 9.33925 6.3155 8.65625 6.1875 L 7.625 6 L 7.53125 6.09375 L 3.71875 2.28125 z M 15.90625 5 L 16.09375 5 C 16.47275 5.552 17.5 8.094 17.5 11 C 17.5 11.814 17.3175 12.6405 17.0625 13.4375 C 17.4495 12.6955 17.89275 11.98225 18.46875 11.40625 C 20.81175 9.06325 23.71875 8.15625 23.71875 8.15625 L 23.84375 8.28125 C 23.72075 8.93925 22.64875 11.47725 20.59375 13.53125 C 20.01775 14.10725 19.3065 14.5535 18.5625 14.9375 C 19.3605 14.6865 20.185 14.5 21 14.5 C 24.314 14.5 27 15.90625 27 15.90625 L 27 16.09375 C 26.448 16.47275 23.906 17.5 21 17.5 C 20.186 17.5 19.3595 17.3175 18.5625 17.0625 C 19.3045 17.4495 20.01775 17.89275 20.59375 18.46875 C 21.516709 19.391709 22.208552 20.398622 22.71875 21.28125 L 10.6875 9.25 C 11.587394 9.7769761 12.612005 10.486558 13.53125 11.40625 C 14.09925 11.97425 14.5535 12.67525 14.9375 13.40625 C 14.6915 12.61825 14.5 11.803 14.5 11 C 14.5 7.686 15.90625 5 15.90625 5 z M 7.59375 11.78125 C 7.77775 12.09525 7.9605 12.417 8.1875 12.75 C 6.0685 13.138 4.449 13.88825 3.875 14.28125 L 3 14.875 L 3 15.90625 L 3 16.09375 L 3 17.3125 L 4.0625 17.875 C 4.1565 17.924 5.8245 18.76775 8.1875 19.21875 C 6.9635 20.99175 6.3155 22.66075 6.1875 23.34375 L 6 24.375 L 6.75 25.125 L 6.875 25.25 L 7.75 26.125 L 8.90625 25.75 C 9.00725 25.718 10.76 25.1655 12.75 23.8125 C 13.138 25.9315 13.88825 27.551 14.28125 28.125 L 14.875 29 L 15.90625 29 L 16.09375 29 L 17.3125 29 L 17.875 27.9375 C 17.924 27.8435 18.76775 26.1755 19.21875 23.8125 C 19.57275 24.0565 19.94225 24.26975 20.28125 24.46875 L 17.46875 21.6875 C 17.30075 24.6815 16.09375 27 16.09375 27 L 15.90625 27 C 15.52725 26.448 14.5 23.906 14.5 21 C 14.5 20.339 14.6315 19.657 14.8125 19 L 14.71875 18.9375 C 14.37875 19.5455 14.00825 20.11575 13.53125 20.59375 C 11.18825 22.93675 8.28125 23.84375 8.28125 23.84375 L 8.15625 23.71875 C 8.27925 23.06075 9.35125 20.52275 11.40625 18.46875 C 11.88325 17.99175 12.4565 17.62325 13.0625 17.28125 L 13 17.1875 C 12.343 17.3685 11.66 17.5 11 17.5 C 7.686 17.5 5 16.09375 5 16.09375 L 5 15.90625 C 5.509 15.55725 7.72775 14.67125 10.34375 14.53125 L 7.59375 11.78125 z" overflow="visible" font-family="Bitstream Vera Sans" fill="#000000"/></svg>
