<?xml version="1.0" encoding="utf-8"?>
<svg xmlns="http://www.w3.org/2000/svg" viewBox="0 0 32 32" fill="#000000"><path style="text-indent:0;text-align:start;line-height:normal;text-transform:none;block-progression:tb;-inkscape-font-specification:Sans" d="M 16.96875 1 C 16.679259 0.99857888 16.377792 1.0481689 16.09375 1.125 C 14.831915 1.466273 13.698485 2.2292063 13 3.5 C 12.301515 4.7707937 12 6.4556555 12 8.78125 L 12 9.375 C 11.139042 9.6958933 9.59375 10.28125 9.59375 10.28125 L 9.5625 10.3125 L 9.53125 10.3125 C 9.2275385 10.455453 8.7684283 10.746336 8.34375 10.96875 C 8.103214 11.094724 7.9039125 11.081944 7.65625 11.3125 C 6.9713268 11.950115 6.5823889 12.954088 6.40625 14.5625 L 5 26.875 L 4.9375 27.40625 L 5.3125 27.75 C 6.4693283 28.815993 8.0384393 29.549415 9.34375 30.09375 C 10.649061 30.638085 11.71875 30.96875 11.71875 30.96875 L 12.09375 31.0625 L 12.4375 30.90625 L 26.4375 23.90625 L 27 23.625 L 27 23 L 27 18.09375 C 27.03427 18.07092 27.4375 17.84375 27.4375 17.84375 L 28 17.46875 L 27.84375 16.78125 C 27.84375 16.78125 26.81179 11.805599 25.875 9.1875 C 25.35907 7.7451217 24.435652 6.7944108 23.40625 6.375 C 22.891549 6.1652946 22.37231 6.0636009 21.875 6.0625 C 21.570166 6.0618257 21.284347 6.1004418 21 6.15625 L 21 5.96875 C 21 2.9013927 18.995187 1.0099479 16.96875 1 z M 17 3 C 17.885092 2.9755053 19 3.6828573 19 5.96875 L 19 6.8125 C 18.755663 6.9028822 18.70985 6.9201288 18.40625 7.03125 C 17.353259 7.4166577 16.022341 7.8926562 14.71875 8.375 C 14.355991 8.5092251 14.352758 8.4941443 14 8.625 C 14.015737 6.5745087 14.318503 5.2225468 14.75 4.4375 C 15.193265 3.6310437 15.723835 3.306227 16.625 3.0625 C 16.737458 3.0320811 16.873558 3.0034992 17 3 z M 21.84375 8.0625 C 22.118982 8.064035 22.407326 8.1173304 22.65625 8.21875 C 23.154098 8.4215892 23.63493 8.8231283 24 9.84375 C 24.73752 11.904938 25.53859 15.674037 25.71875 16.5 C 25.169835 16.86015 23.045759 18.276958 20.90625 19.25 C 17.233338 20.920634 15.089426 21.644589 13.9375 22 C 13.825948 20.490294 13.551675 17.160898 12.9375 14.53125 C 12.624903 13.192802 11.926576 12.40164 11.1875 11.84375 C 11.323384 11.793197 11.861024 11.576883 12.0625 11.5 C 12.174222 11.78668 12.534959 12 13 12 C 13.552 12 14 11.71175 14 11.34375 L 14 10.78125 C 14.552566 10.572086 14.686292 10.516393 15.40625 10.25 C 16.708659 9.7680938 18.044866 9.2901548 19.09375 8.90625 C 19.192622 8.8700616 19.186659 8.8784121 19.28125 8.84375 C 19.46225 8.93425 19.724 9 20 9 C 20.552 9 21 8.776 21 8.5 L 21 8.21875 C 21.004497 8.2172408 21.059621 8.1884012 21.0625 8.1875 C 21.306399 8.1111902 21.568518 8.060965 21.84375 8.0625 z M 8.96875 13 C 9.1375649 12.999444 9.2582496 12.963 9.59375 13.09375 C 10.1147 13.296767 10.688635 13.666827 11 15 L 11 28.59375 C 10.743323 28.500545 10.496725 28.405015 10.125 28.25 C 9.0549358 27.803766 7.9005728 27.134736 7.0625 26.46875 L 8.375 14.78125 C 8.509568 13.552443 8.7661249 13.231672 8.96875 13 z M 25 19.25 L 25 22.375 L 13 28.375 L 13 24.40625 L 13.3125 24.3125 C 13.3125 24.3125 15.538598 23.681742 19.03125 22.25 C 19.370491 22.549174 19.885596 22.657287 20.40625 22.4375 C 20.933962 22.214733 21.295098 21.73106 21.4375 21.21875 C 21.549391 21.16846 21.636355 21.145442 21.75 21.09375 C 23.268254 20.403253 23.87391 19.947427 25 19.25 z" overflow="visible" font-family="Sans" fill="#000000"/></svg>
