<?xml version="1.0" encoding="utf-8"?>
<svg xmlns="http://www.w3.org/2000/svg" viewBox="0 0 32 32" fill="#000000"><path style="line-height:normal;text-indent:0;text-align:start;text-decoration-line:none;text-decoration-style:solid;text-decoration-color:#000;text-transform:none;block-progression:tb;isolation:auto;mix-blend-mode:normal" d="M 0 5 C 0 5.9418645 0.57695868 6.6850518 1.3007812 7.1894531 C 2.0246039 7.6938545 2.9614482 8 4 8 C 5.035362 8 5.9716507 7.7002335 6.6972656 7.1972656 C 6.8062039 7.1217539 6.9031125 7.0298857 7.0039062 6.9433594 C 7.1019988 7.0270718 7.1950865 7.115799 7.3007812 7.1894531 C 8.0246039 7.6938545 8.9614482 8 10 8 C 11.035362 8 11.971651 7.7002335 12.697266 7.1972656 C 12.806204 7.1217539 12.903113 7.0298857 13.003906 6.9433594 C 13.101999 7.0270718 13.195087 7.115799 13.300781 7.1894531 C 14.024604 7.6938545 14.961448 8 16 8 C 17.035362 8 17.971651 7.7002335 18.697266 7.1972656 C 18.806204 7.1217539 18.903113 7.0298857 19.003906 6.9433594 C 19.101999 7.0270718 19.195087 7.115799 19.300781 7.1894531 C 20.024604 7.6938545 20.961448 8 22 8 C 23.035362 8 23.971651 7.7002335 24.697266 7.1972656 C 24.806204 7.1217539 24.903113 7.0298857 25.003906 6.9433594 C 25.101999 7.0270718 25.195087 7.115799 25.300781 7.1894531 C 26.024604 7.6938545 26.961448 8 28 8 C 29.035362 8 29.971651 7.7002335 30.697266 7.1972656 C 31.422881 6.6942978 32 5.9426667 32 5 L 30 5 C 30 5.057333 29.91303 5.3057022 29.556641 5.5527344 C 29.200256 5.7997665 28.636638 6 28 6 C 27.366552 6 26.80349 5.7984268 26.445312 5.5488281 C 26.087135 5.2992295 26 5.0421355 26 5 L 24 5 C 24 5.057333 23.91303 5.3057022 23.556641 5.5527344 C 23.200256 5.7997665 22.636638 6 22 6 C 21.366552 6 20.80349 5.7984268 20.445312 5.5488281 C 20.087135 5.2992295 20 5.0421355 20 5 L 18 5 C 18 5.057333 17.91303 5.3057022 17.556641 5.5527344 C 17.200256 5.7997665 16.636638 6 16 6 C 15.366552 6 14.803491 5.7984268 14.445312 5.5488281 C 14.087136 5.2992295 14 5.0421355 14 5 L 12 5 C 12 5.057333 11.91303 5.3057022 11.556641 5.5527344 C 11.200256 5.7997665 10.636638 6 10 6 C 9.3665518 6 8.8034899 5.7984268 8.4453125 5.5488281 C 8.0871351 5.2992295 8 5.0421355 8 5 L 6 5 C 6 5.0573333 5.9130257 5.3057022 5.5566406 5.5527344 C 5.2002555 5.7997665 4.636638 6 4 6 C 3.3665518 6 2.8034899 5.7984268 2.4453125 5.5488281 C 2.0871351 5.2992295 2 5.0421355 2 5 L 0 5 z M 12.964844 10 L 12.964844 12 L 13.232422 12 C 13.329952 12 13.390625 12.06067 13.390625 12.158203 L 13.390625 12.890625 L 11.802734 12.890625 C 11.382094 12.890625 10.985311 12.991461 10.630859 13.224609 C 10.276408 13.457757 9.9238281 13.898333 9.9238281 14.46875 L 9.9238281 17 L 7.1308594 17 C 4.8869076 17 3 18.780707 3 21 L 3 22 L 3.2109375 22 C 3.6854441 23.716883 5.2463473 25 7.1308594 25 L 19.130859 25 C 20.253183 25 22.391193 24.649246 24.472656 24.083984 C 24.654604 24.034573 24.821667 23.974454 25 23.921875 L 25 26 L 27 26 L 27 23.201172 C 27.104799 23.152513 27.21505 23.105826 27.314453 23.054688 C 27.718085 22.847034 28.077308 22.621518 28.388672 22.316406 C 28.463472 22.243106 28.465742 22.089153 28.535156 22 L 29 22 L 29 21 C 29 20.43274 28.700035 19.988705 28.388672 19.683594 C 28.077308 19.378482 27.718085 19.152965 27.314453 18.945312 C 27.21505 18.894174 27.104799 18.847487 27 18.798828 L 27 16 L 25 16 L 25 18.078125 C 24.821667 18.025546 24.654604 17.965427 24.472656 17.916016 C 22.391193 17.350754 20.253183 17 19.130859 17 L 19.029297 17 L 17.300781 13.78125 L 17.275391 13.736328 C 16.870348 13.066332 16.228229 12.890625 15.601562 12.890625 L 15.390625 12.890625 L 15.390625 12.158203 C 15.390625 10.977732 14.412893 10 13.232422 10 L 12.964844 10 z M 11.923828 14.890625 L 15.601562 14.890625 C 15.622181 14.890625 15.61884 14.892668 15.628906 14.896484 L 16.759766 17 L 11.923828 17 L 11.923828 14.890625 z M 7.1308594 19 L 19.130859 19 C 19.730535 19 22.026182 19.323465 23.949219 19.845703 C 24.910737 20.106822 25.811638 20.422726 26.398438 20.724609 C 26.607526 20.832177 26.710188 20.916231 26.820312 21 C 26.710187 21.08377 26.607526 21.167823 26.398438 21.275391 C 25.811639 21.577274 24.910737 21.893178 23.949219 22.154297 C 22.026182 22.676535 19.730535 23 19.130859 23 L 7.1308594 23 C 5.9328111 23 5 22.080707 5 21 C 5 19.919293 5.9328111 19 7.1308594 19 z" font-weight="400" font-family="sans-serif" white-space="normal" overflow="visible" fill="#000000"/></svg>
