<?xml version="1.0" encoding="utf-8"?>
<svg xmlns="http://www.w3.org/2000/svg" viewBox="0 0 32 32" fill="#000000"><path style="text-indent:0;text-align:start;line-height:normal;text-transform:none;block-progression:tb;-inkscape-font-specification:Bitstream Vera Sans" d="M 8 6 L 8 9 L 6 9 L 5 9 L 5 10 L 5 16 L 4 16 L 3 16 L 3 17 L 3 23.84375 C 2.786443 23.770135 2.5874868 23.66702 2.4375 23.5625 C 2.0793226 23.312901 2 23.042136 2 23 L 0 23 C 0 23.941864 0.58867738 24.683099 1.3125 25.1875 C 2.0363226 25.691901 2.9614482 26 4 26 C 5.035362 26 5.9618851 25.690468 6.6875 25.1875 C 6.8001837 25.109392 6.895686 25.026988 7 24.9375 C 7.1012319 25.023981 7.2036063 25.111617 7.3125 25.1875 C 8.0363226 25.691901 8.9614482 26 10 26 C 11.035362 26 11.961885 25.690468 12.6875 25.1875 C 12.800184 25.109392 12.895686 25.026988 13 24.9375 C 13.101232 25.023981 13.203606 25.111617 13.3125 25.1875 C 14.036323 25.691901 14.961448 26 16 26 C 17.035362 26 17.961885 25.690468 18.6875 25.1875 C 18.800184 25.109392 18.895686 25.026988 19 24.9375 C 19.101232 25.023981 19.203606 25.111617 19.3125 25.1875 C 20.036323 25.691901 20.961448 26 22 26 C 23.035362 26 23.961885 25.690468 24.6875 25.1875 C 24.800184 25.109392 24.895686 25.026988 25 24.9375 L 25 25 C 25.022808 25 25.040654 25.000831 25.0625 25 C 25.142104 25.067408 25.22751 25.128274 25.3125 25.1875 C 26.036323 25.691901 26.961448 26 28 26 C 29.035362 26 29.961885 25.690468 30.6875 25.1875 C 31.413115 24.684532 32 23.942667 32 23 L 30 23 C 30 23.05733 29.91888 23.315468 29.5625 23.5625 C 29.206115 23.809532 28.636638 24 28 24 C 27.564504 24 27.171311 23.917865 26.84375 23.78125 C 27.311642 23.210568 27.799372 22.479773 28.25 21.5625 C 29.193724 19.641509 30 16.993952 30 14 L 30 13 L 29 13 L 22 13 L 21.46875 13 L 21.15625 13.4375 L 19.4375 16 L 13 16 L 13 13.125 L 13.9375 10.3125 L 14.375 9 L 13 9 L 10 9 L 10 6 L 8 6 z M 7 11 L 11.625 11 L 11.0625 12.6875 L 11 12.84375 L 11 13 L 11 16 L 7 16 L 7 11 z M 22.5625 15 L 27.875 15 C 27.715266 17.205194 27.179128 19.210245 26.46875 20.65625 C 26.057862 21.49263 25.599723 22.178018 25.25 22.59375 C 25.075138 22.801616 24.929279 22.93561 24.84375 23 L 24 23 C 24 23.05733 23.91888 23.315468 23.5625 23.5625 C 23.206115 23.809532 22.636638 24 22 24 C 21.366552 24 20.795677 23.812099 20.4375 23.5625 C 20.079323 23.312901 20 23.042136 20 23 L 18 23 C 18 23.05733 17.91888 23.315468 17.5625 23.5625 C 17.206115 23.809532 16.636638 24 16 24 C 15.366552 24 14.795677 23.812099 14.4375 23.5625 C 14.079323 23.312901 14 23.042136 14 23 L 12 23 C 12 23.05733 11.91888 23.315468 11.5625 23.5625 C 11.206115 23.809532 10.636638 24 10 24 C 9.3665518 24 8.7956774 23.812099 8.4375 23.5625 C 8.0793226 23.312901 8 23.042136 8 23 L 6 23 C 6 23.05733 5.918885 23.315468 5.5625 23.5625 C 5.4132637 23.665945 5.2132528 23.769975 5 23.84375 L 5 18 L 6 18 L 13 18 L 20 18 L 20.53125 18 L 20.84375 17.5625 L 22.5625 15 z M 24 16 L 24 18 L 26 18 L 26 16 L 24 16 z" fill="#000000"/></svg>
