<?xml version="1.0" encoding="utf-8"?>
<svg xmlns="http://www.w3.org/2000/svg" viewBox="0 0 32 32" fill="#000000"><path style="text-indent:0;text-align:start;line-height:normal;text-transform:none;block-progression:tb;-inkscape-font-specification:Sans" d="M 19 5 L 18.46875 5.9375 L 15.875 10.5 L 15.5625 8.8125 L 15.4375 8 L 14.59375 8 L 12.3125 8 L 9.28125 6.40625 L 8.28125 5.90625 L 7.875 6.9375 L 6.75 9.875 L 4.8125 11.3125 L 3.96875 11.9375 L 4.625 12.75 L 8.4375 17.5 L 7.65625 18.28125 L 6.9375 19 L 7.65625 19.6875 L 9.78125 21.8125 L 5.96875 25.625 L 7.375 27.03125 L 11.1875 23.21875 L 13.3125 25.34375 L 14 26.0625 L 14.71875 25.34375 L 15.5 24.5625 L 20.125 28.34375 L 20.9375 29 L 21.5625 28.15625 L 23.09375 26.09375 L 25.96875 25.03125 L 27.03125 24.625 L 26.5 23.625 L 25 20.6875 L 25 18.40625 L 25 17.5625 L 24.1875 17.40625 L 22.5625 17.09375 L 27.0625 14.59375 L 28 14.0625 L 27.40625 13.15625 L 26 11.125 L 26 8 L 26 7 L 25 7 L 21.875 7 L 19.90625 5.625 L 19 5 z M 19.6875 7.875 L 21.03125 8.8125 L 21.28125 9 L 21.59375 9 L 24 9 L 24 11.40625 L 24 11.6875 L 24.15625 11.96875 L 25.09375 13.375 L 19.1875 16.6875 L 16.78125 18.03125 L 19.46875 18.5625 L 23 19.21875 L 23 20.90625 L 23 21.15625 L 23.125 21.375 L 24.25 23.53125 L 22.125 24.3125 L 21.84375 24.40625 L 21.6875 24.65625 L 20.5625 26.125 L 16.0625 22.46875 L 15.34375 21.875 L 14.71875 22.53125 L 14 23.25 L 11.875 21.125 L 9.75 19 L 10.46875 18.28125 L 11.09375 17.65625 L 10.53125 16.9375 L 6.8125 12.28125 L 8.1875 11.28125 L 8.4375 11.125 L 8.53125 10.84375 L 9.34375 8.71875 L 11.625 9.875 L 11.84375 10 L 12.09375 10 L 13.78125 10 L 14.4375 13.53125 L 14.9375 16.1875 L 16.28125 13.84375 L 19.6875 7.875 z" overflow="visible" font-family="Sans" fill="#000000"/></svg>
