<?xml version="1.0" encoding="utf-8"?>
<svg xmlns="http://www.w3.org/2000/svg" viewBox="0 0 32 32" fill="#000000"><path style="text-indent:0;text-align:start;line-height:normal;text-transform:none;block-progression:tb;-inkscape-font-specification:Sans" d="M 2 8 L 2 9 L 2 23 L 2 24 L 3 24 L 23 24 L 24 24 L 24 23 L 24 20.625 L 28.5625 22.90625 L 30 23.625 L 30 22 L 30 10 L 30 8.375 L 28.5625 9.09375 L 24 11.375 L 24 9 L 24 8 L 23 8 L 3 8 L 2 8 z M 4 10 L 22 10 L 22 12.375 L 22 13 L 22 19 L 22 19.625 L 22 22 L 4 22 L 4 10 z M 28 11.625 L 28 20.375 L 24 18.375 L 24 13.625 L 28 11.625 z M 9 12 C 8.4477153 12 8 12.447715 8 13 C 8 13.552285 8.4477153 14 9 14 C 9.5522847 14 10 13.552285 10 13 C 10 12.447715 9.5522847 12 9 12 z M 15 12 C 12.791 12 11 13.791 11 16 C 11 18.209 12.791 20 15 20 C 16.067 20 17.032 19.58825 17.75 18.90625 C 17.509 18.96925 17.26 19 17 19 C 15.343 19 14 17.657 14 16 C 14 14.343 15.343 13 17 13 C 17.26 13 17.509 13.03075 17.75 13.09375 C 17.523 12.87775 17.272 12.69025 17 12.53125 C 16.413 12.18825 15.73 12 15 12 z" overflow="visible" font-family="Sans" fill="#000000"/></svg>
