<?xml version="1.0" encoding="utf-8"?>
<svg xmlns="http://www.w3.org/2000/svg" viewBox="0 0 32 32" fill="#000000"><path style="text-indent:0;text-align:start;line-height:normal;text-transform:none;block-progression:tb;-inkscape-font-specification:Bitstream Vera Sans" d="M 3 5 L 3 6 L 3 26 L 3 27 L 4 27 L 28 27 L 29 27 L 29 26 L 29 6 L 29 5 L 28 5 L 4 5 L 3 5 z M 5 7 L 27 7 L 27 25 L 5 25 L 5 7 z M 16 10 C 13.250421 10 11 12.250421 11 15 C 11 16.476208 11.661168 17.801318 12.6875 18.71875 C 10.526242 19.713468 8.8574452 21.653981 8.25 24 L 10.34375 24 C 11.16975 21.673 13.393 20 16 20 C 18.607 20 20.83025 21.673 21.65625 24 L 23.75 24 C 23.142555 21.653981 21.473758 19.713468 19.3125 18.71875 C 20.338832 17.801318 21 16.476208 21 15 C 21 12.250421 18.749579 10 16 10 z M 16 12 C 17.668699 12 19 13.331301 19 15 C 19 16.668699 17.668699 18 16 18 C 14.331301 18 13 16.668699 13 15 C 13 13.331301 14.331301 12 16 12 z" overflow="visible" font-family="Bitstream Vera Sans" fill="#000000"/></svg>
