<?xml version="1.0" encoding="utf-8"?>
<svg xmlns="http://www.w3.org/2000/svg" viewBox="0 0 32 32" fill="#000000"><path style="line-height:normal;text-indent:0;text-align:start;text-decoration-line:none;text-decoration-style:solid;text-decoration-color:#000;text-transform:none;block-progression:tb;isolation:auto;mix-blend-mode:normal" d="M 8 4 L 8 6 L 26 6 L 26 21 L 28 21 L 28 4 L 8 4 z M 4 8 L 4 25 L 10.5 25 L 14 29.666016 L 17.5 25 L 24 25 L 24 24 L 24 8 L 4 8 z M 6 10 L 22 10 L 22 23 L 16.5 23 L 14 26.332031 L 11.5 23 L 6 23 L 6 10 z M 11.984375 11.986328 A 1.0001 1.0001 0 0 0 11 13 L 11 15.832031 A 1.0001 1.0001 0 0 0 11 16.158203 L 11 18 C 11 19.64497 12.35503 21 14 21 L 16 21 A 1.0001 1.0001 0 1 0 16 19 L 14 19 C 13.43497 19 13 18.56503 13 18 L 13 17 L 16 17 A 1.0001 1.0001 0 1 0 16 15 L 13 15 L 13 13 A 1.0001 1.0001 0 0 0 11.984375 11.986328 z" font-weight="400" font-family="sans-serif" white-space="normal" overflow="visible" fill="#000000"/></svg>
