<?xml version="1.0" encoding="utf-8"?>
<svg xmlns="http://www.w3.org/2000/svg" viewBox="0 0 32 32" fill="#000000"><path style="text-indent:0;text-align:start;line-height:normal;text-transform:none;block-progression:tb;-inkscape-font-specification:Sans" d="M 9.5 4 C 7.578848 4 6 5.578848 6 7.5 C 6 9.421152 7.578848 11 9.5 11 C 11.421152 11 13 9.4211519 13 7.5 C 13 5.5788481 11.421152 4 9.5 4 z M 22.5 4 C 20.578848 4 19 5.5788481 19 7.5 C 19 9.4211519 20.578848 11 22.5 11 C 24.421152 11 26 9.4211519 26 7.5 C 26 5.5788481 24.421152 4 22.5 4 z M 9.5 6 C 10.340272 6 11 6.6597281 11 7.5 C 11 8.3402719 10.340272 9 9.5 9 C 8.6597282 9 8 8.3402718 8 7.5 C 8 6.6597282 8.6597282 6 9.5 6 z M 22.5 6 C 23.340272 6 24 6.6597281 24 7.5 C 24 8.3402719 23.340272 9 22.5 9 C 21.659728 9 21 8.3402719 21 7.5 C 21 6.6597281 21.659728 6 22.5 6 z M 9 12 C 6.794 12 5 13.794 5 16 L 5 21.25 L 7 22.25 L 7 28 L 9 28 L 9 21 L 7 20 L 7 16 C 7 14.897 7.897 14 9 14 L 10.15625 14 C 10.91825 14 11.5965 14.41075 11.9375 15.09375 L 13.21875 17.65625 L 16.28125 20.0625 L 17.71875 18.65625 L 14.78125 16.34375 L 13.71875 14.21875 C 13.03675 12.85475 11.68125 12 10.15625 12 L 9 12 z M 21.84375 12 C 20.31875 12 18.96325 12.85475 18.28125 14.21875 L 17.21875 16.34375 L 16.8125 16.65625 L 18.125 17.6875 L 18.4375 17.9375 L 18.78125 17.65625 L 20.0625 15.09375 C 20.4035 14.41075 21.08175 14 21.84375 14 L 23 14 C 24.116666 14 25 14.883334 25 16 L 25 20.03125 L 23.5625 20.75 L 23 21 L 23 21.625 L 23 28 L 25 28 L 25 22.25 L 26.4375 21.53125 L 27 21.25 L 27 20.625 L 27 16 C 27 13.802666 25.197334 12 23 12 L 21.84375 12 z M 10 21 L 10 28 L 12 28 L 12 21 L 10 21 z M 20 21 L 20 28 L 22 28 L 22 21 L 20 21 z" overflow="visible" font-family="Sans" fill="#000000"/></svg>
