<?xml version="1.0" encoding="utf-8"?>
<svg xmlns="http://www.w3.org/2000/svg" viewBox="0 0 32 32" fill="#000000"><path style="text-indent:0;text-align:start;line-height:normal;text-transform:none;block-progression:tb;-inkscape-font-specification:Bitstream Vera Sans" d="M 4 7 L 4 8 C 4 8.5650302 3.5650302 9 3 9 L 2 9 L 2 10 L 2 22 L 2 23 L 3 23 C 3.5650302 23 4 23.43497 4 24 L 4 25 L 5 25 L 27 25 L 28 25 L 28 24 C 28 23.43497 28.43497 23 29 23 L 30 23 L 30 22 L 30 10 L 30 9 L 29 9 C 28.43497 9 28 8.5650302 28 8 L 28 7 L 27 7 L 5 7 L 4 7 z M 5.59375 9 L 21 9 L 21 11 L 23 11 L 23 9 L 26.40625 9 C 26.712611 9.7690007 27.230999 10.287389 28 10.59375 L 28 21.40625 C 27.230999 21.712611 26.712611 22.230999 26.40625 23 L 23 23 L 23 21 L 21 21 L 21 23 L 5.59375 23 C 5.2873889 22.230999 4.7690007 21.712611 4 21.40625 L 4 10.59375 C 4.7690007 10.287389 5.2873889 9.7690007 5.59375 9 z M 21 13 L 21 15 L 23 15 L 23 13 L 21 13 z M 21 17 L 21 19 L 23 19 L 23 17 L 21 17 z" overflow="visible" font-family="Bitstream Vera Sans" fill="#000000"/></svg>
