<?xml version="1.0" encoding="utf-8"?>
<svg xmlns="http://www.w3.org/2000/svg" viewBox="0 0 32 32" fill="#000000"><path d="M 28 3.46875 L 26.59375 4.09375 L 19.96875 6.9375 L 12.34375 4.0625 L 11.96875 3.9375 L 11.59375 4.09375 L 4.59375 7.09375 L 4 7.34375 L 4 8 L 4 17 L 4 20 L 4 26.53125 L 12 23.09375 L 12 20.9375 L 11.96875 20.9375 L 6 23.46875 L 6 20 L 6 17 L 6 8.65625 L 12.03125 6.0625 L 19.65625 8.9375 L 20.03125 9.0625 L 20.40625 8.90625 L 26 6.5 L 26 19 L 28 19 L 28 5 L 28 3.46875 z M 11 9 L 11 11 L 13 11 L 13 9 L 11 9 z M 19 10 L 19 12 L 21 12 L 21 10 L 19 10 z M 11 13 L 11 15 L 13 15 L 13 13 L 11 13 z M 19 14 L 19 16 L 21 16 L 21 14 L 19 14 z M 11 17 L 11 19 L 13 19 L 13 17 L 11 17 z M 19 18 L 19 20 L 21 20 L 21 18 L 19 18 z M 21.84375 22 L 21.5625 22.4375 C 21.5625 22.4375 21.110128 23 20.5625 23 L 20.5625 25 C 21.192211 25 21.590617 24.712577 22 24.46875 L 22 30 L 24 30 L 24 23 L 24 22 L 23 22 L 22.375 22 L 21.84375 22 z M 27.5 22 C 26.130937 22 25 23.130937 25 24.5 L 25 25 L 27 25 L 27 24.5 C 27 24.213063 27.213063 24 27.5 24 C 27.786937 24 28 24.213063 28 24.5 L 28 25.34375 C 28 25.484385 27.94618 25.624908 27.84375 25.71875 L 25.3125 28 L 25 28.3125 L 25 28.75 L 25 29 L 25 30 L 26 30 L 30 30 L 30 28 L 28.3125 28 L 29.1875 27.1875 C 29.705067 26.713342 30 26.043115 30 25.34375 L 30 24.5 C 30 23.130937 28.869063 22 27.5 22 z M 16 26 L 16 28 L 20 28 L 20 26 L 16 26 z" fill="#000000"/></svg>
