<?xml version="1.0" encoding="utf-8"?>
<svg xmlns="http://www.w3.org/2000/svg" viewBox="0 0 32 32" fill="#000000"><path style="text-indent:0;text-align:start;line-height:normal;text-transform:none;block-progression:tb;-inkscape-font-specification:Bitstream Vera Sans" d="M 24.59375 3 C 21.812781 3 19.470358 4.389972 17.125 6.34375 C 15.150019 7.9896456 13.376629 8.7154698 12.03125 9.125 C 11.358561 9.3297651 10.788843 9.442032 10.3125 9.59375 C 10.074329 9.669609 9.8531392 9.7303153 9.59375 9.90625 C 9.3343608 10.082185 9 10.5275 9 11 C 9 11.500417 9.062542 12.267116 9.40625 13.0625 C 9.7499575 13.857884 10.587124 14.75 11.78125 14.75 C 12.238106 14.75 12.360235 14.815042 12.375 14.8125 C 12.371462 14.844211 12.369495 14.91485 12.34375 15.0625 C 12.240778 15.653093 11.644187 16.884138 11.03125 18.21875 C 10.552695 19.260969 10.01427 20.083723 9.5 20.46875 C 8.9857297 20.853777 8.5703398 20.956856 7.78125 20.65625 C 7.2764308 20.29137 6.6662543 20 5.875 20 C 4.9505402 20 4.1275455 20.43321 3.65625 21.03125 C 3.1849545 21.62929 3 22.3345 3 23 L 5 23 C 5 22.7325 5.0857955 22.44996 5.21875 22.28125 C 5.3517045 22.11254 5.4964598 22 5.875 22 C 6.3929336 22 6.5876302 22.145141 6.78125 22.34375 C 6.9748698 22.542359 7.1141774 22.828739 7.1875 23.0625 C 7.4226301 23.815031 7.8684989 24.925255 8.65625 25.90625 C 9.3203039 26.733204 10.387941 27.349595 11.625 27.4375 C 11.750727 27.571649 11.904301 27.770066 12.34375 28.09375 C 12.913251 28.513226 13.726358 29 14.75 29 C 16.100411 29 17.065942 28.153129 17.65625 27.28125 C 17.67589 27.25225 17.7 27.21653 17.71875 27.1875 C 18.243258 26.534895 18.5355 26.072104 19.09375 25.28125 C 19.831351 24.285933 19.86738 23.140337 19.9375 22.15625 C 20.00762 21.172163 20.132382 20.343822 20.34375 20 C 20.34785 19.9937 20.33955 19.97549 20.34375 19.96875 C 20.35305 19.95484 20.36565 19.95117 20.375 19.9375 C 20.873475 19.208799 21.452579 18.826407 22.15625 18.40625 C 22.873124 17.97821 23.757434 17.520099 24.375 16.59375 L 24.40625 16.53125 C 24.867172 15.84003 25.957282 14.226892 26.96875 12.40625 C 27.994712 10.559518 29 8.6454932 29 6.9375 C 29 5.7048932 28.450109 4.7919069 27.90625 4.28125 C 27.548765 3.9455889 27.380014 3.9064066 27.15625 3.8125 C 27.044967 3.7100448 26.879872 3.6769478 26.75 3.59375 C 26.17927 3.2281325 25.48019 3 24.59375 3 z M 24.59375 5 C 25.437597 5 25.580822 5.067951 25.8125 5.28125 L 25.96875 5.46875 L 26.1875 5.53125 C 26.1875 5.53125 26.352859 5.553157 26.5625 5.75 C 26.772141 5.9468431 27 6.2201068 27 6.9375 C 27 7.6795068 26.192788 9.6842317 25.21875 11.4375 C 24.244712 13.190768 23.17033 14.822629 22.71875 15.5 C 22.440316 15.917651 21.918626 16.23229 21.15625 16.6875 C 20.393874 17.14271 19.434546 17.755326 18.6875 18.875 L 18.65625 18.90625 L 18.625 18.9375 C 18.003368 19.948678 18.00563 21.075087 17.9375 22.03125 C 17.86937 22.987413 17.758399 23.745067 17.5 24.09375 L 17.46875 24.125 C 16.853745 24.996258 16.623854 25.42092 16.125 26.03125 L 16.09375 26.0625 L 16.0625 26.09375 C 15.666874 26.706201 15.354667 27 14.75 27 C 14.423642 27 13.920249 26.786524 13.53125 26.5 C 13.142251 26.213476 12.90625 25.9375 12.90625 25.9375 L 12.53125 25.53125 L 12 25.59375 C 11.294025 25.69416 10.763999 25.335255 10.21875 24.65625 C 9.7199652 24.035108 9.3828207 23.222971 9.1875 22.65625 C 9.7264279 22.548692 10.262568 22.380641 10.6875 22.0625 C 11.64748 21.343777 12.293305 20.261281 12.84375 19.0625 C 13.425813 17.795112 14.132972 16.615157 14.34375 15.40625 C 14.449139 14.801796 14.39286 14.029924 13.875 13.46875 C 13.357138 12.907576 12.608023 12.75 11.78125 12.75 C 11.426376 12.75 11.382792 12.66087 11.21875 12.28125 C 11.115014 12.041192 11.12778 11.75311 11.09375 11.46875 C 11.434758 11.368111 11.916882 11.237287 12.59375 11.03125 C 14.085121 10.57728 16.186231 9.7563544 18.40625 7.90625 C 19.220904 7.2276102 19.998074 6.6724548 20.75 6.21875 C 21.306381 6.5704095 21.647989 6.8650057 21.8125 7.09375 C 22.017419 7.3786799 22.0084 7.4708843 21.96875 7.65625 C 21.88945 8.0269813 21.207451 8.8351495 20.21875 9.625 C 19.230049 10.41485 18.071167 11.191368 17.25 12.1875 C 16.839417 12.685566 16.479894 13.275866 16.4375 14 C 16.39511 14.724134 16.73866 15.48866 17.3125 16.0625 L 18.71875 14.65625 C 18.42234 14.35984 18.431039 14.235366 18.4375 14.125 C 18.444 14.014634 18.52091 13.784559 18.78125 13.46875 C 19.301927 12.837132 20.409576 12.03365 21.46875 11.1875 C 22.527924 10.34135 23.639207 9.4882687 23.9375 8.09375 C 24.086646 7.3964907 23.90691 6.5901951 23.4375 5.9375 C 23.263561 5.6956462 23.051542 5.4687817 22.8125 5.25 C 23.390194 5.0823184 23.990127 5 24.59375 5 z" overflow="visible" font-family="Bitstream Vera Sans" fill="#000000"/></svg>
