<?xml version="1.0" encoding="utf-8"?>
<svg xmlns="http://www.w3.org/2000/svg" viewBox="0 0 32 32" fill="#000000"><path style="text-indent:0;text-align:start;line-height:normal;text-transform:none;block-progression:tb;-inkscape-font-specification:Bitstream Vera Sans" d="M 11.3125 3.28125 L 9.90625 4.71875 L 11.6875 6.5 L 4.875 13.3125 L 4.78125 13.40625 C 3.5982338 14.589266 3.5982338 16.535734 4.78125 17.71875 L 4.84375 17.78125 L 11.1875 24.09375 C 12.370516 25.276766 14.316984 25.276766 15.5 24.09375 L 23.09375 16.5 L 23.8125 15.8125 L 23.09375 15.09375 L 14.09375 6.09375 L 13.3125 5.28125 L 13.09375 5.09375 L 11.3125 3.28125 z M 13.125 7.9375 L 21 15.8125 L 14.09375 22.6875 C 13.676766 23.104484 13.010734 23.104484 12.59375 22.6875 L 6.21875 16.28125 C 5.8017662 15.864266 5.8017662 15.229484 6.21875 14.8125 L 13.125 7.9375 z M 25 19.25 L 24.1875 20.4375 C 24.1875 20.4375 23.648128 21.191355 23.125 22.09375 C 22.863436 22.544948 22.617642 23.019084 22.40625 23.5 C 22.194858 23.980916 22 24.42197 22 25 C 22 26.645455 23.354545 28 25 28 C 26.645455 28 28 26.645455 28 25 C 28 24.42197 27.805142 23.980916 27.59375 23.5 C 27.382358 23.019084 27.136564 22.544948 26.875 22.09375 C 26.351872 21.191355 25.8125 20.4375 25.8125 20.4375 L 25 19.25 z M 25 22.875 C 25.06572 22.983918 25.05811 22.978371 25.125 23.09375 C 25.363436 23.505052 25.617642 23.940291 25.78125 24.3125 C 25.944858 24.684709 26 25.02803 26 25 C 26 25.554545 25.554545 26 25 26 C 24.445455 26 24 25.554545 24 25 C 24 25.02803 24.05514 24.684709 24.21875 24.3125 C 24.382358 23.940291 24.636564 23.505052 24.875 23.09375 C 24.94189 22.978371 24.93428 22.983918 25 22.875 z" overflow="visible" font-family="Bitstream Vera Sans" fill="#000000"/></svg>
