<?xml version="1.0" encoding="utf-8"?>
<svg xmlns="http://www.w3.org/2000/svg" viewBox="0 0 32 32" fill="#000000"><path style="text-indent:0;text-align:start;line-height:normal;text-transform:none;block-progression:tb;-inkscape-font-specification:Bitstream Vera Sans" d="M 16 4 C 14.354991 4 13 5.3549901 13 7 C 13 8.6450099 14.354991 10 16 10 C 17.645009 10 19 8.6450099 19 7 C 19 5.3549901 17.645009 4 16 4 z M 16 6 C 16.564129 6 17 6.4358709 17 7 C 17 7.5641291 16.564129 8 16 8 C 15.435871 8 15 7.5641291 15 7 C 15 6.4358709 15.435871 6 16 6 z M 12.46875 9.46875 C 12.185422 9.48482 11.91174 9.5542445 11.65625 9.6875 L 9.5 10.78125 C 9.1414112 10.968513 8.8459465 11.267572 8.65625 11.625 L 7.125 14.53125 L 8.875 15.46875 L 10.4375 12.5625 L 12.59375 11.4375 L 12.90625 11.5625 L 11.34375 15.09375 C 10.958605 15.981171 11.28205 17.064555 12.09375 17.59375 L 14.625 19.25 L 13.46875 23.0625 L 4.875 24 L 4.84375 24 C 4.3818068 24.06688 3.9524716 24.246254 3.59375 24.59375 C 3.2350284 24.941246 3 25.478831 3 26 C 3 27.093063 3.9069372 28 5 28 L 23 28 C 24.64497 28 26 26.64497 26 25 C 26 24.168247 25.642019 23.376767 25.0625 22.8125 L 26.75 13.6875 L 28.71875 11.71875 L 27.28125 10.28125 L 22.28125 15.28125 L 23.71875 16.71875 L 24.28125 16.15625 L 23.1875 22.03125 C 23.08537 22.030953 22.980242 22.01966 22.875 22.03125 L 15.65625 22.8125 L 16.5625 19.8125 C 16.81916 18.966916 16.457677 18.045186 15.71875 17.5625 L 13.1875 15.90625 L 14.75 12.28125 L 15.625 12.625 L 16.625 14.125 C 16.995723 14.674146 17.61792 15 18.28125 15 L 21 15 L 21 13 L 18.28125 13 L 17.28125 11.5 C 17.053074 11.16174 16.722582 10.928795 16.34375 10.78125 L 13.3125 9.59375 C 13.045053 9.4899645 12.752078 9.45268 12.46875 9.46875 z M 10.84375 17.96875 L 10.15625 18.9375 L 6 18.9375 L 6 20.9375 L 10.15625 20.9375 C 10.813517 20.9375 11.439786 20.602637 11.8125 20.0625 L 12.46875 19.09375 L 10.84375 17.96875 z M 23.125 24 C 23.608927 23.94671 24 24.4223 24 25 C 24 25.56503 23.56503 26 23 26 L 5.15625 26 L 23.125 24 z" overflow="visible" font-family="Bitstream Vera Sans" fill="#000000"/></svg>
