<?xml version="1.0" encoding="utf-8"?>
<svg xmlns="http://www.w3.org/2000/svg" viewBox="0 0 32 32" fill="#000000"><path style="text-indent:0;text-align:start;line-height:normal;text-transform:none;block-progression:tb;-inkscape-font-specification:Sans" d="M 5.03125 9 C 3.3731682 9 2 10.343464 2 12 L 2 13 L 1 13 L 1 15 L 2 15 L 2 16 C 2 17.656536 3.3731682 19 5.03125 19 L 6.96875 19 C 8.6268318 19 10 17.656536 10 16 L 10 15 L 12 15 C 12.174605 15 12.488587 15.110208 12.6875 15.28125 C 12.886413 15.452292 13 15.630077 13 16 L 13.03125 19.09375 L 11.53125 19.09375 L 10.90625 19.09375 L 10.625 19.65625 L 8.71875 23.5625 L 8.03125 25 L 9.625 25 L 22.375 25 L 23.96875 25 L 23.28125 23.5625 L 21.375 19.65625 L 21.09375 19.09375 L 20.46875 19.09375 L 19 19.09375 L 19 16 C 19 15.389346 19.144383 15.244512 19.25 15.15625 C 19.355617 15.067988 19.549771 15 19.84375 15 L 22 15 L 22 16 C 22 17.656536 23.373699 19 25.03125 19 L 26.90625 19 C 28.564332 19 29.96875 17.656536 29.96875 16 L 29.96875 15 L 31 15 L 31 13 L 29.96875 13 L 29.96875 12 C 29.96875 10.343464 28.563801 9 26.90625 9 L 25.03125 9 C 23.373168 9 22 10.343464 22 12 L 22 13 L 12 13 L 10 13 L 10 12 C 10 10.343464 8.6268318 9 6.96875 9 L 5.03125 9 z M 5.03125 11 L 6.96875 11 C 7.5686682 11 8 11.448536 8 12 L 8 16 C 8 16.551464 7.5686682 17 6.96875 17 L 5.03125 17 C 4.4313318 17 4 16.551464 4 16 L 4 12 C 4 11.448536 4.4313318 11 5.03125 11 z M 25.03125 11 L 26.90625 11 C 27.504699 11 27.96875 11.448536 27.96875 12 L 27.96875 16 C 27.96875 16.551464 27.506168 17 26.90625 17 L 25.03125 17 C 24.432801 17 24 16.551464 24 16 L 24 12 C 24 11.448536 24.431332 11 25.03125 11 z M 14.78125 15 L 17.15625 15 C 17.068385 15.313943 17 15.636367 17 16 L 17 22 L 19 22 L 19 21.09375 L 19.875 21.09375 L 20.78125 23 L 11.21875 23 L 12.125 21.09375 L 13.03125 21.09375 L 13.03125 22 L 15.03125 22 L 15 16 C 15 15.639253 14.895155 15.311527 14.78125 15 z" overflow="visible" font-family="Sans" fill="#000000"/></svg>
