<?xml version="1.0" encoding="utf-8"?>
<svg xmlns="http://www.w3.org/2000/svg" viewBox="0 0 32 32" fill="#000000"><path style="text-indent:0;text-align:start;line-height:normal;text-transform:none;block-progression:tb;-inkscape-font-specification:Bitstream Vera Sans" d="M 5 5 L 5 6 L 5 26 L 5 27 L 6 27 L 26 27 L 27 27 L 27 26 L 27 6 L 27 5 L 26 5 L 6 5 L 5 5 z M 25 7 L 25 25 L 7 25 L 12.5 19.5 C 10.5 17.6 10.5 14.4 12.5 12.5 C 14.483491 10.516509 17.529898 10.518006 19.53125 12.46875 L 12.5 19.5 C 14.5 21.5 17.59375 21.5 19.59375 19.5 C 21.577241 17.516509 21.575744 14.470102 19.625 12.46875 L 25 7 z" overflow="visible" font-family="Bitstream Vera Sans" fill="#000000"/></svg>
