<?xml version="1.0" encoding="utf-8"?>
<svg xmlns="http://www.w3.org/2000/svg" viewBox="0 0 32 32" fill="#000000"><path style="text-indent:0;text-align:start;line-height:normal;text-transform:none;block-progression:tb;-inkscape-font-specification:Sans" d="M 3 6 L 3 7 L 3 25 L 3 26 L 4 26 L 28 26 L 29 26 L 29 25 L 29 7 L 29 6 L 28 6 L 4 6 L 3 6 z M 5 8 L 27 8 L 27 10 L 5 10 L 5 8 z M 5 12 L 27 12 L 27 24 L 5 24 L 5 12 z M 21 13 L 21 14.0625 C 19.876762 14.248447 19 15.202106 19 16.375 C 19 17.130429 19.417398 17.819072 20.09375 18.15625 L 23 19.625 C 23 19.847152 22.847152 20 22.625 20 L 21.375 20 C 21.152848 20 21 19.847152 21 19.625 L 21 19 L 19 19 L 19 19.625 C 19 20.797894 19.876762 21.751553 21 21.9375 L 21 23 L 23 23 L 23 21.9375 C 24.123238 21.751553 25 20.797894 25 19.625 C 25 18.869571 24.580523 18.181881 23.90625 17.84375 L 21 16.375 C 21 16.152848 21.152848 16 21.375 16 L 22.625 16 C 22.847152 16 23 16.152848 23 16.375 L 23 17 L 25 17 L 25 16.375 C 25 15.202106 24.123238 14.248447 23 14.0625 L 23 13 L 21 13 z M 7 20 L 7 22 L 16 22 L 16 20 L 7 20 z" fill="#000000"/></svg>
