<?xml version="1.0" encoding="utf-8"?>
<svg xmlns="http://www.w3.org/2000/svg" viewBox="0 0 32 32" fill="#000000"><path style="text-indent:0;text-align:start;line-height:normal;text-transform:none;block-progression:tb;-inkscape-font-specification:Bitstream Vera Sans" d="M 5 5 L 5 6 L 5 26 L 5 27 L 6 27 L 26 27 L 27 27 L 27 26 L 27 6 L 27 5 L 26 5 L 6 5 L 5 5 z M 7 7 L 25 7 L 25 25 L 7 25 L 7 7 z M 10 12 L 10 20 L 12 20 L 12 17.25 L 13 19.25 L 13 20 L 15 20 L 15 12 L 13 12 L 13 14.75 L 12 12.75 L 12 12 L 10 12 z M 18.21875 12 L 18 12.6875 L 16.0625 18.6875 L 16 18.84375 L 16 19 L 16 20 L 18 20 L 18 19.125 L 18.03125 19 L 19.96875 19 L 20 19.125 L 20 20 L 22 20 L 22 19 L 22 18.84375 L 21.9375 18.6875 L 20 12.6875 L 19.78125 12 L 19.0625 12 L 18.9375 12 L 18.21875 12 z M 19 16.0625 L 19.3125 17 L 18.6875 17 L 19 16.0625 z" fill="#000000"/></svg>
