<?xml version="1.0" encoding="utf-8"?>
<svg xmlns="http://www.w3.org/2000/svg" viewBox="0 0 32 32" fill="#000000"><path style="text-indent:0;text-align:start;line-height:normal;text-transform:none;block-progression:tb;-inkscape-font-specification:Sans" d="M 16 4 C 14.484178 4 13.118052 4.300349 12.03125 4.84375 C 10.944448 5.387151 10 6.269204 10 7.5 C 10 7.6787981 10.025097 7.8358904 10.0625 8 L 10 8 L 10 10.09375 C 7.7292259 10.56282 6 12.597727 6 15 L 6 23 C 6 25.745455 8.2545455 28 11 28 L 21 28 C 23.745455 28 26 25.745455 26 23 L 26 15 C 26 12.597727 24.270774 10.56282 22 10.09375 L 22 8 L 21.9375 8 C 21.974903 7.8358904 22 7.6787981 22 7.5 C 22 6.269204 21.055552 5.387151 19.96875 4.84375 C 18.881948 4.300349 17.515822 4 16 4 z M 16 6 C 17.245602 6 18.370908 6.263579 19.09375 6.625 C 19.816592 6.986421 20 7.3500841 20 7.5 C 20 7.6499159 19.816592 8.013579 19.09375 8.375 C 18.370908 8.736421 17.245602 9 16 9 C 14.754398 9 13.629092 8.736421 12.90625 8.375 C 12.183408 8.013579 12 7.6499159 12 7.5 C 12 7.3500841 12.183408 6.986421 12.90625 6.625 C 13.629092 6.263579 14.754398 6 16 6 z M 14 7 C 13.447715 7 13 7.2238576 13 7.5 C 13 7.7761424 13.447715 8 14 8 C 14.552285 8 15 7.7761424 15 7.5 C 15 7.2238576 14.552285 7 14 7 z M 18 7 C 17.447715 7 17 7.2238576 17 7.5 C 17 7.7761424 17.447715 8 18 8 C 18.552285 8 19 7.7761424 19 7.5 C 19 7.2238576 18.552285 7 18 7 z M 12 10.125 C 12.012745 10.131487 12.018464 10.149857 12.03125 10.15625 C 13.118052 10.699651 14.484178 11 16 11 C 17.515822 11 18.881948 10.699651 19.96875 10.15625 C 19.981536 10.149857 19.987255 10.131487 20 10.125 L 20 11.5 C 20 11.65007 19.816648 12.013601 19.09375 12.375 C 18.370852 12.736399 17.245404 13 16 13 C 14.754596 13 13.629148 12.736399 12.90625 12.375 C 12.183352 12.013601 12 11.65007 12 11.5 L 12 10.125 z M 10.09375 12.15625 C 10.362781 13.043056 11.152956 13.717164 12.03125 14.15625 C 13.118102 14.699601 14.484404 15 16 15 C 17.515596 15 18.881898 14.699601 19.96875 14.15625 C 20.847044 13.717164 21.637219 13.043056 21.90625 12.15625 C 23.112294 12.545233 24 13.666023 24 15 L 24 23 C 24 24.654545 22.654545 26 21 26 L 11 26 C 9.3454545 26 8 24.654545 8 23 L 8 15 C 8 13.666023 8.8877059 12.545233 10.09375 12.15625 z" overflow="visible" font-family="Sans" fill="#000000"/></svg>
