<?xml version="1.0" encoding="utf-8"?>
<svg xmlns="http://www.w3.org/2000/svg" viewBox="0 0 32 32" fill="#000000"><path style="text-indent:0;text-align:start;line-height:normal;text-transform:none;block-progression:tb;-inkscape-font-specification:Bitstream Vera Sans" d="M 2.875 8.5 L 1.125 9.5 L 5.125 16.5 L 5.40625 17 L 6 17 L 23.15625 17 C 23.603316 18.719842 25.146802 20 27 20 C 29.197294 20 31 18.197294 31 16 C 31 13.802706 29.197294 12 27 12 C 25.146802 12 23.603316 13.280158 23.15625 15 L 22.59375 15 L 20.59375 11.5 L 18.84375 12.5 L 20.28125 15 L 18.59375 15 L 14.875 8.5 L 13.125 9.5 L 16.28125 15 L 14.59375 15 L 10.875 8.5 L 9.125 9.5 L 12.28125 15 L 10.59375 15 L 6.875 8.5 L 5.125 9.5 L 8.28125 15 L 6.59375 15 L 2.875 8.5 z M 27 14 C 28.116414 14 29 14.883586 29 16 C 29 17.116414 28.116414 18 27 18 C 25.883586 18 25 17.116414 25 16 C 25 14.883586 25.883586 14 27 14 z" fill="#000000"/></svg>
