<?xml version="1.0" encoding="utf-8"?>
<svg xmlns="http://www.w3.org/2000/svg" viewBox="0 0 32 32" fill="#000000"><path style="line-height:normal;text-indent:0;text-align:start;text-decoration-line:none;text-decoration-style:solid;text-decoration-color:#000;text-transform:none;block-progression:tb;isolation:auto;mix-blend-mode:normal" d="M 25 2.1972656 L 22 6.6972656 L 22 20 L 21 20 L 21 22 L 24 22 L 24 25.28125 C 23.407261 25.630978 23 26.271407 23 27 C 23 28.092725 23.907275 29 25 29 C 26.092725 29 27 28.092725 27 27 C 27 26.271407 26.592739 25.630978 26 25.28125 L 26 22 L 29 22 L 29 20 L 28 20 L 28 6.6972656 L 25 2.1972656 z M 11.505859 2.9511719 L 11.205078 3.0449219 C 11.205078 3.0449219 8.3509575 3.9260877 3.7734375 4.9902344 L 3 5.1699219 L 3 19 C 3 21.726294 5.1245942 24.061441 7.0761719 25.845703 C 9.0277495 27.629966 10.96875 28.845703 10.96875 28.845703 L 11.5 29.181641 L 12.03125 28.845703 C 12.03125 28.845703 13.97225 27.629966 15.923828 25.845703 C 17.875406 24.061441 20 21.726294 20 19 L 20 5.2050781 L 19.226562 5.0253906 C 14.653634 3.9613187 11.804686 3.046875 11.804688 3.046875 L 11.505859 2.9511719 z M 11.496094 5.0332031 C 11.694575 5.0962737 14.326405 5.8721374 18 6.7675781 L 18 13.994141 L 5.7890625 6.5332031 C 8.9661686 5.7473041 11.316115 5.0883034 11.496094 5.0332031 z M 25 5.8027344 L 26 7.3027344 L 26 20 L 24 20 L 24 7.3027344 L 25 5.8027344 z M 5 8.3945312 L 18 16.337891 L 18 18.267578 L 5 10.324219 L 5 8.3945312 z M 5 12.666016 L 17.654297 20.398438 C 17.453436 20.862385 17.173977 21.344149 16.835938 21.828125 L 5 14.595703 L 5 12.666016 z M 5 16.939453 L 15.546875 23.384766 C 15.231269 23.722443 14.913543 24.060693 14.576172 24.369141 C 13.042595 25.771239 11.920685 26.469601 11.5 26.744141 C 11.079315 26.469601 9.9574048 25.771239 8.4238281 24.369141 C 6.6254058 22.724903 5 20.559706 5 19 L 5 16.939453 z" fill="#000000"/></svg>
