<?xml version="1.0" encoding="utf-8"?>
<svg xmlns="http://www.w3.org/2000/svg" viewBox="0 0 32 32" fill="#000000"><path d="M 20.955078 4.9355469 L 20 7.8730469 L 26.044922 9.9355469 L 27 7 L 20.955078 4.9355469 z M 19.908203 9.9355469 L 18 12.277344 L 23.091797 16.277344 L 25 13.935547 L 19.908203 9.9355469 z M 5 10 L 5 13 L 9 13 L 9 15 L 12 15 L 12 10 L 5 10 z M 5 14 L 5 27 L 23 27 L 23 24 L 8 24 L 8 14 L 5 14 z M 9 16 L 9 19 L 19 19 L 19 16 L 9 16 z M 9 20 L 9 23 L 19 23 L 19 20 L 9 20 z M 20 20 L 20 23 L 23 23 L 23 20 L 20 20 z" fill="#000000"/></svg>
