<?xml version="1.0" encoding="utf-8"?>
<svg xmlns="http://www.w3.org/2000/svg" viewBox="0 0 32 32" fill="#000000"><path style="text-indent:0;text-align:start;line-height:normal;text-transform:none;block-progression:tb;-inkscape-font-specification:Bitstream Vera Sans" d="M 7 4 C 5.3545455 4 4 5.3545455 4 7 L 4 14 L 6 14 L 6 7 C 6 6.4454545 6.4454545 6 7 6 L 25 6 C 25.554545 6 26 6.4454545 26 7 L 26 14 L 28 14 L 28 7 C 28 5.3545455 26.645455 4 25 4 L 7 4 z M 8 12 L 7 16 L 9 16 L 10 12 L 8 12 z M 11.8125 12 L 10.8125 16 L 12.8125 16 L 13.8125 12 L 11.8125 12 z M 15.5 12 L 14.5 16 L 16.5 16 L 17.5 12 L 15.5 12 z M 19.1875 12 L 18.1875 16 L 20.1875 16 L 21.1875 12 L 19.1875 12 z M 23 12 L 22 16 L 24 16 L 25 12 L 23 12 z M 9 19 L 9 20 L 9 26 L 9 27 L 10 27 L 16.3125 27 L 16.90625 27 L 17.1875 26.4375 C 17.288738 26.235023 17.680952 26 18 26 C 18.319048 26 18.711262 26.235023 18.8125 26.4375 L 19.09375 27 L 19.6875 27 L 22 27 L 23 27 L 23 26 L 23 20 L 23 19 L 22 19 L 10 19 L 9 19 z M 11 21 L 21 21 L 21 25 L 20.0625 25 C 19.515227 24.412725 18.818215 24 18 24 C 17.181785 24 16.484773 24.412725 15.9375 25 L 11 25 L 11 21 z M 14 22 C 13.447715 22 13 22.447715 13 23 C 13 23.552285 13.447715 24 14 24 C 14.552285 24 15 23.552285 15 23 C 15 22.447715 14.552285 22 14 22 z" overflow="visible" font-family="Bitstream Vera Sans" fill="#000000"/></svg>
