<?xml version="1.0" encoding="utf-8"?>
<svg xmlns="http://www.w3.org/2000/svg" viewBox="0 0 32 32" fill="#000000"><path style="text-indent:0;text-align:start;line-height:normal;text-transform:none;block-progression:tb;-inkscape-font-specification:Sans" d="M 16.9375 5 C 16.9375 5.00533 16.91508 5.3208588 16.875 5.5625 C 16.834921 5.8041412 16.8125 6 16.8125 6 L 16.78125 6.03125 L 16.78125 6.0625 C 16.683815 6.746064 16.363126 7.3861114 15.875 7.875 L 7.875 15.875 C 7.3869675 16.363033 6.7457584 16.68375 6.0625 16.78125 L 6.03125 16.78125 L 6 16.8125 C 6 16.8125 5.8292614 16.83511 5.59375 16.875 C 5.3582386 16.914886 5.0337222 16.9375 5 16.9375 L 5 18.9375 C 5.3412778 18.9375 5.6310114 18.89036 5.90625 18.84375 C 6.1482522 18.80277 6.2982565 18.75932 6.34375 18.75 L 6.34375 18.78125 C 6.366688 18.77795 6.383382 18.75358 6.40625 18.75 C 7.366383 18.599854 8.2657036 18.19221 9 17.5625 C 9.0321157 18.362541 9.6920785 19 10.5 19 C 11.328427 19 12 18.328427 12 17.5 C 12 16.702331 11.37952 16.047334 10.59375 16 L 16 10.59375 C 16.047334 11.37952 16.702331 12 17.5 12 C 18.328427 12 19 11.328427 19 10.5 C 19 9.6920785 18.362541 9.0321157 17.5625 9 C 18.191136 8.2663939 18.599748 7.3677483 18.75 6.40625 C 18.7536 6.38335 18.77798 6.366723 18.78125 6.34375 L 18.75 6.34375 C 18.7591 6.297251 18.80337 6.1496768 18.84375 5.90625 C 18.889671 5.6293912 18.9375 5.3386667 18.9375 5 L 16.9375 5 z M 24.8125 10 L 24.5625 10.65625 C 21.791932 18.073388 17.955057 21.827224 14.1875 23.8125 C 10.419943 25.797776 6.6693307 26 4 26 L 4 28 L 27 28 L 28 28 L 28 27 L 28 11 L 28 10 L 27 10 L 25.5 10 L 24.8125 10 z M 26 12.28125 L 26 26 L 14.15625 26 C 14.480765 25.851703 14.799269 25.76539 15.125 25.59375 C 19.138802 23.478718 23.115802 19.407167 26 12.28125 z" overflow="visible" font-family="Sans" fill="#000000"/></svg>
