<?xml version="1.0" encoding="utf-8"?>
<svg xmlns="http://www.w3.org/2000/svg" viewBox="0 0 32 32" fill="#000000"><path style="text-indent:0;text-align:start;line-height:normal;text-transform:none;block-progression:tb;-inkscape-font-specification:Sans" d="M 23 3 C 21.804814 3 20.89904 3.2795132 20.28125 3.59375 C 19.67619 3.9015119 19.327971 4.2967436 19.3125 4.3125 L 19.28125 4.3125 L 8.28125 15.28125 L 8 15.59375 L 8 16 L 8 21 L 8 22 L 9 22 L 14 22 L 14.40625 22 L 14.71875 21.71875 L 22.5 13.9375 C 22.99566 13.897964 23.849636 13.799263 24.9375 13.25 C 26.422288 12.500331 28 10.812132 28 8 C 28 6.7373744 27.389578 5.5523682 26.5 4.625 C 25.610422 3.6976318 24.386031 3 23 3 z M 23 5 C 23.681969 5 24.469078 5.3813682 25.0625 6 C 25.655922 6.6186318 26 7.4466256 26 8 C 26 8.534717 25.946077 8.9895906 25.84375 9.375 L 21.65625 5.21875 C 22.000544 5.0968259 22.412639 5 23 5 z M 20 6.4375 L 24.65625 11.09375 C 24.463441 11.232823 24.270188 11.363888 24.0625 11.46875 C 23.047288 11.981331 22 12 22 12 L 21.59375 12 L 21.28125 12.28125 L 13.5625 20 L 10 20 L 10 16.4375 L 20 6.4375 z M 19.28125 9.28125 L 11.28125 17.28125 L 12.71875 18.71875 L 20.71875 10.71875 L 19.28125 9.28125 z M 7 18.59375 L 3.90625 21.65625 L 5.375 29.03125 L 11.40625 23 L 8.59375 23 L 6.625 24.96875 L 6.09375 22.34375 L 7 21.40625 L 7 18.59375 z" overflow="visible" font-family="Sans" fill="#000000"/></svg>
