<?xml version="1.0" encoding="utf-8"?>
<svg xmlns="http://www.w3.org/2000/svg" viewBox="0 0 32 32" fill="#000000"><path style="text-indent:0;text-align:start;line-height:normal;text-transform:none;block-progression:tb;-inkscape-font-specification:Sans" d="M 16 7 C 12.157269 7 8.6236004 7.6114038 6.6875 8.28125 C 5.0781534 8.8376659 4 10.333173 4 12.03125 L 4 15 C 4 16.093063 4.9069372 17 6 17 L 10 17 C 11.093063 17 12 16.093063 12 15 L 12 13.09375 C 12.78551 12.891507 14.335902 12.5625 16 12.5625 C 17.664098 12.5625 19.21449 12.891507 20 13.09375 L 20 15 C 20 16.093063 20.906937 17 22 17 L 26 17 C 27.093063 17 28 16.093063 28 15 L 28 12.03125 C 28 10.333173 26.921847 8.8376659 25.3125 8.28125 C 23.3764 7.6114038 19.842731 7 16 7 z M 16 9 C 19.625269 9 23.11235 9.6220962 24.65625 10.15625 C 25.464903 10.435834 26 11.171327 26 12.03125 L 26 15 L 22 15 L 22 12.34375 L 22 11.59375 L 21.28125 11.375 C 21.28125 11.375 18.601772 10.5625 16 10.5625 C 13.398228 10.5625 10.71875 11.375 10.71875 11.375 L 10 11.59375 L 10 12.34375 L 10 15 L 6 15 L 6 12.03125 C 6 11.171327 6.5350966 10.435834 7.34375 10.15625 C 8.8876496 9.6220962 12.374731 9 16 9 z M 15 18 L 15 24.3125 L 12.71875 22.03125 L 11.28125 23.46875 L 15.28125 27.46875 L 16 28.15625 L 16.71875 27.46875 L 20.71875 23.46875 L 19.28125 22.03125 L 17 24.3125 L 17 18 L 15 18 z" overflow="visible" font-family="Sans" fill="#000000"/></svg>
