<?xml version="1.0" encoding="utf-8"?>
<svg xmlns="http://www.w3.org/2000/svg" viewBox="0 0 32 32" fill="#000000"><path style="text-indent:0;text-align:start;line-height:normal;text-transform:none;block-progression:tb;-inkscape-font-specification:Sans" d="M 11 3 L 11 4 L 11 8 L 11 9 L 12 9 L 15 9 L 15 17 L 9 17 L 4 25 L 4 27.03125 L 6 27.03125 L 6 29.03125 L 8 29.03125 L 8 27.03125 L 16.59375 27.03125 C 17.79523 29.935585 20.670096 32 24 32 C 28.406433 32 32 28.406433 32 24 C 32 19.593567 28.406433 16 24 16 C 22.598158 16 21.272767 16.362124 20.125 17 L 17 17 L 17 9 L 20 9 L 21 9 L 21 8 L 21 4 L 21 3 L 20 3 L 12 3 L 11 3 z M 13 5 L 19 5 L 19 7 L 13 7 L 13 5 z M 24 18 C 27.325553 18 30 20.674447 30 24 C 30 27.325553 27.325553 30 24 30 C 20.674447 30 18 27.325553 18 24 C 18 20.674447 20.674447 18 24 18 z M 10.15625 19 L 17.78125 19 C 16.680384 20.370873 16 22.111843 16 24 C 16 24.352308 16.017977 24.690755 16.0625 25.03125 L 6.28125 25.03125 L 10.15625 19 z M 21.71875 20.28125 L 20.28125 21.71875 L 22.5625 24 L 20.28125 26.28125 L 21.71875 27.71875 L 24 25.4375 L 26.28125 27.71875 L 27.71875 26.28125 L 25.4375 24 L 27.71875 21.71875 L 26.28125 20.28125 L 24 22.5625 L 21.71875 20.28125 z" fill="#000000"/></svg>
