<?xml version="1.0" encoding="utf-8"?>
<svg xmlns="http://www.w3.org/2000/svg" viewBox="0 0 32 32" fill="#000000"><path style="text-indent:0;text-align:start;line-height:normal;text-transform:none;block-progression:tb;-inkscape-font-specification:Bitstream Vera Sans" d="M 23.8125 4.03125 C 22.724601 4.03125 21.612559 4.4499406 20.78125 5.28125 L 11.78125 14.28125 L 11.5 14.5625 L 6.03125 16.65625 L 5.5 16.875 L 5.40625 17.4375 L 4 26.84375 L 3.8125 28.1875 L 5.15625 28 L 14.5625 26.59375 L 15.125 26.5 L 15.34375 25.96875 L 17.3125 20.78125 L 17.8125 20.3125 L 26.8125 11.3125 C 28.426093 9.6989071 28.455932 7.1081047 26.9375 5.4375 L 26.8125 5.28125 C 25.981191 4.4499406 24.900399 4.03125 23.8125 4.03125 z M 23.8125 6 C 24.374601 6 24.937559 6.2500594 25.40625 6.71875 C 26.343631 7.6561311 26.343631 8.9688689 25.40625 9.90625 L 20.375 14.9375 L 17.1875 11.75 L 22.21875 6.71875 C 22.687441 6.2500594 23.250399 6 23.8125 6 z M 15.75 13.1875 L 18.9375 16.375 L 17.125 18.1875 L 13.9375 15 L 15.75 13.1875 z M 12.40625 16.34375 L 12.4375 16.34375 L 15.65625 19.5625 L 13.6875 24.71875 L 7.84375 25.5625 L 10.53125 22.875 C 10.585554 22.88057 10.631725 22.90625 10.6875 22.90625 C 11.571155 22.90625 12.3125 22.196156 12.3125 21.3125 C 12.3125 20.428845 11.571155 19.6875 10.6875 19.6875 C 9.8038442 19.6875 9.09375 20.428845 9.09375 21.3125 C 9.09375 21.368275 9.1194303 21.414446 9.125 21.46875 L 6.4375 24.15625 L 7.28125 18.3125 L 12.40625 16.34375 z" overflow="visible" font-family="Bitstream Vera Sans" fill="#000000"/></svg>
