<?xml version="1.0" encoding="utf-8"?>
<svg xmlns="http://www.w3.org/2000/svg" viewBox="0 0 32 32" fill="#000000"><path d="M 16 3 A 2 2 0 0 0 14 5 A 2 2 0 0 0 15 6.7304688 L 15 8.2714844 A 2 2 0 0 0 14.273438 9 L 11.728516 9 A 2 2 0 0 0 10 8 A 2 2 0 0 0 8 10 A 2 2 0 0 0 9 11.730469 L 9 14.269531 A 2 2 0 0 0 8 16 A 2 2 0 0 0 8.0703125 16.515625 L 6.5175781 18.068359 A 2 2 0 0 0 6 18 A 2 2 0 0 0 4 20 A 2 2 0 0 0 6 22 A 2 2 0 0 0 8 20 A 2 2 0 0 0 7.9296875 19.484375 L 9.4824219 17.931641 A 2 2 0 0 0 10 18 A 2 2 0 0 0 12 16 A 2 2 0 0 0 11 14.271484 L 11 11.728516 A 2 2 0 0 0 11.730469 11 L 14.271484 11 A 2 2 0 0 0 15 11.730469 L 15 15.271484 A 2 2 0 0 0 14 17 A 2 2 0 0 0 15 18.730469 L 15 22.269531 A 2 2 0 0 0 14.271484 23 L 12.730469 23 A 2 2 0 0 0 11 22 A 2 2 0 0 0 9 24 A 2 2 0 0 0 10 25.730469 L 10 29 L 12 29 L 12 25.728516 A 2 2 0 0 0 12.726562 25 L 14.269531 25 A 2 2 0 0 0 16 26 A 2 2 0 0 0 17.728516 25 L 19.269531 25 A 2 2 0 0 0 20 25.728516 L 20 29 L 22 29 L 22 25.730469 A 2 2 0 0 0 23 24 A 2 2 0 0 0 21 22 A 2 2 0 0 0 19.271484 23 L 17.730469 23 A 2 2 0 0 0 17 22.271484 L 17 18.728516 A 2 2 0 0 0 18 17 A 2 2 0 0 0 17 15.269531 L 17 11.728516 A 2 2 0 0 0 17.726562 11 L 20.269531 11 A 2 2 0 0 0 21 11.728516 L 21 14.269531 A 2 2 0 0 0 20 16 A 2 2 0 0 0 22 18 A 2 2 0 0 0 23.728516 17 L 25.269531 17 A 2 2 0 0 0 27 18 A 2 2 0 0 0 29 16 A 2 2 0 0 0 27 14 A 2 2 0 0 0 25.271484 15 L 23.730469 15 A 2 2 0 0 0 23 14.271484 L 23 11.730469 A 2 2 0 0 0 24 10 A 2 2 0 0 0 22 8 A 2 2 0 0 0 20.271484 9 L 17.728516 9 A 2 2 0 0 0 17 8.2695312 L 17 6.7285156 A 2 2 0 0 0 18 5 A 2 2 0 0 0 16 3 z" fill="#000000"/></svg>
