<?xml version="1.0" encoding="utf-8"?>
<svg xmlns="http://www.w3.org/2000/svg" viewBox="0 0 32 32" fill="#000000"><path style="text-indent:0;text-align:start;line-height:normal;text-transform:none;block-progression:tb;-inkscape-font-specification:Bitstream Vera Sans" d="M 3.71875 2.28125 L 2.28125 3.71875 L 28.28125 29.71875 L 29.71875 28.28125 L 24.21875 22.78125 C 25.796322 20.789437 27 18.295087 27 15.65625 C 27 11.99125 23.86 9 20 9 C 19.002914 9 18.020661 9.2095636 17.125 9.59375 C 17.1221 9.5746252 17.128914 9.5549279 17.125 9.53125 C 17.63638 6.8620392 19.5 5.875 19.5 5.875 L 18.5 4.125 C 18.5 4.125 17.091629 4.9740672 16.0625 6.78125 C 15.737806 6.2861799 15.309826 5.7966241 14.78125 5.375 C 12.666628 3.6882493 9.90625 4 9.90625 4 L 8.875 4.09375 L 9 5.125 C 9 5.125 9.24638 7.4089824 10.875 9.09375 C 10.780186 9.10853 10.687243 9.137851 10.59375 9.15625 L 3.71875 2.28125 z M 11.34375 6.09375 C 12.034326 6.1982218 12.889654 6.4257238 13.53125 6.9375 C 14.184099 7.4582517 14.620312 8.2178769 14.875 8.875 C 14.177924 8.7731919 13.308939 8.5206246 12.65625 8 C 12.010619 7.4850055 11.599199 6.7464071 11.34375 6.09375 z M 20 11 C 22.757 11 25 13.09425 25 15.65625 C 25 17.784673 24.038017 19.776132 22.8125 21.375 L 12.5 11.0625 C 13.5527 11.163631 14.546618 11.546574 15.34375 12.21875 L 16 12.75 L 16.65625 12.21875 C 17.58125 11.43875 18.761 11 20 11 z M 6.90625 11.09375 C 5.72925 12.28375 5 13.89925 5 15.65625 C 5 22.72025 11.251 27 14 27 C 14.528 27 15.0545 26.914 15.5625 26.75 C 15.8555 26.655 16.1445 26.657 16.4375 26.75 C 16.9435 26.914 17.472 27 18 27 C 18.903 27 20.126 26.4675 21.375 25.5625 L 19.9375 24.15625 C 19.1435 24.70025 18.443 25 18 25 C 17.681 25 17.3685 24.94175 17.0625 24.84375 C 16.7165 24.73175 16.356 24.6875 16 24.6875 C 15.645 24.6875 15.2825 24.73175 14.9375 24.84375 C 14.6295 24.94175 14.319 25 14 25 C 12.312 25 7 21.58925 7 15.65625 C 7 14.45025 7.4995 13.35825 8.3125 12.53125 L 6.90625 11.09375 z" overflow="visible" font-family="Bitstream Vera Sans" fill="#000000"/></svg>
