<?xml version="1.0" encoding="utf-8"?>
<svg xmlns="http://www.w3.org/2000/svg" viewBox="0 0 32 32" fill="#000000"><path style="line-height:normal;text-indent:0;text-align:start;text-decoration-line:none;text-decoration-style:solid;text-decoration-color:#000;text-transform:none;block-progression:tb;isolation:auto;mix-blend-mode:normal" d="M 5.7070312 5.2929688 L 4.2929688 6.7070312 L 20.585938 23 L 20.556641 23 L 22.550781 25 L 22.585938 25 L 27.292969 29.707031 L 28.707031 28.292969 L 25.273438 24.859375 C 27.97165 24.2733 30 21.871479 30 19 C 30 15.854 27.567375 13.266531 24.484375 13.019531 C 23.232375 9.4375313 19.85 7 16 7 C 13.685085 7 11.511152 7.8776179 9.8535156 9.4394531 L 5.7070312 5.2929688 z M 16 9 C 19.2 9 21.986391 11.167484 22.775391 14.271484 L 22.976562 15.070312 L 23.798828 15.023438 C 23.862828 15.019438 23.926484 15.013 24.021484 15 C 26.217484 15.012 28 16.802 28 19 C 28 21.206 26.206 23 24 23 L 23.414062 23 L 11.273438 10.859375 C 12.556857 9.6720363 14.223002 9 16 9 z M 6.0585938 11.296875 C 5.4495938 11.968875 5.0528594 12.836781 5.0058594 13.800781 C 3.1598594 14.862781 2 16.834 2 19 C 2 22.309 4.691 25 8 25 L 19.726562 25 L 17.732422 23 L 8 23 C 5.794 23 4 21.206 4 19 C 4 17.396 4.9555938 15.950359 6.4335938 15.318359 L 7.125 14.939453 L 7.0195312 14.183594 C 7.0105313 14.123594 7 14.062 7 14 C 7 13.51 7.1845156 13.06675 7.4785156 12.71875 L 6.0585938 11.296875 z" font-weight="400" font-family="sans-serif" white-space="normal" overflow="visible" fill="#000000"/></svg>
