<?xml version="1.0" encoding="utf-8"?>
<svg xmlns="http://www.w3.org/2000/svg" viewBox="0 0 32 32" fill="#000000"><path style="text-indent:0;text-align:start;line-height:normal;text-transform:none;block-progression:tb;-inkscape-font-specification:Sans" d="M 23.65625 5.6875 L 22.65625 6.0625 C 22.65625 6.0625 20.110712 7 17 7 C 13.888227 7 10.25 6.03125 10.25 6.03125 L 9.375 5.78125 L 9.0625 6.65625 C 9.0625 6.65625 8.1580585 9.0385533 6.84375 11.96875 C 5.5294415 14.898947 3.7893134 18.368402 2.21875 20.375 L 1.25 21.59375 L 2.75 21.96875 L 6.75 22.96875 L 7.53125 23.15625 L 7.875 22.46875 L 9.375 19.53125 L 11.0625 24.34375 L 11.21875 24.78125 L 11.6875 24.9375 L 17.6875 26.9375 L 18 27.0625 L 18.34375 26.9375 L 29.34375 22.9375 L 30.46875 22.53125 L 29.875 21.5 C 26.539915 15.619464 23.96875 6.71875 23.96875 6.71875 L 23.65625 5.6875 z M 22.34375 8.21875 C 22.724528 9.515894 24.679651 15.861917 27.625 21.4375 L 18.375 24.78125 C 16.738235 22.372089 14.892394 18.090025 13.5 14.3125 C 12.544474 11.720186 11.897856 9.7527694 11.46875 8.375 C 12.72946 8.6541625 14.738014 9 17 9 C 19.562277 9 21.339537 8.5247774 22.34375 8.21875 z M 9.875 9.96875 C 10.323235 11.341246 10.916256 13.077196 11.625 15 C 12.764788 18.092216 14.168294 21.496164 15.65625 24.15625 L 12.78125 23.21875 L 10.5 16.65625 L 9.75 14.46875 L 8.6875 16.53125 L 6.46875 20.84375 L 4.5625 20.375 C 6.074508 18.137452 7.5467548 15.324494 8.6875 12.78125 C 9.2166334 11.601569 9.5756441 10.711159 9.875 9.96875 z" overflow="visible" font-family="Sans" fill="#000000"/></svg>
