<?xml version="1.0" encoding="utf-8"?>
<svg xmlns="http://www.w3.org/2000/svg" viewBox="0 0 32 32" fill="#000000"><path style="text-indent:0;text-align:start;line-height:normal;text-transform:none;block-progression:tb;-inkscape-font-specification:Sans" d="M 19 3 C 13.488997 3 9 7.4889972 9 13 C 9 15.39499 9.8389508 17.588106 11.25 19.3125 L 3.28125 27.28125 L 4.71875 28.71875 L 12.6875 20.75 C 14.411894 22.161049 16.60501 23 19 23 C 24.511003 23 29 18.511003 29 13 C 29 7.4889972 24.511003 3 19 3 z M 18.1875 5.03125 C 18.291001 5.0207931 18.39535 5.037751 18.5 5.03125 C 18.943167 5.6670814 19.8125 7.0607085 19.8125 8.5 C 19.8125 9.147947 19.607857 9.7726301 19.375 10.34375 C 19.040685 9.5138163 18.533265 8.6112239 17.75 7.84375 C 16.854691 6.9664921 15.804898 6.4344078 14.875 6.125 C 15.857323 5.5352259 16.988714 5.1523655 18.1875 5.03125 z M 21 5.25 C 22.280382 5.5781145 23.427832 6.2018334 24.375 7.0625 C 24.229334 7.8180905 23.808158 9.4000459 22.78125 10.40625 C 22.315284 10.862821 21.731361 11.169605 21.15625 11.40625 C 21.518799 10.585537 21.8125 9.5964351 21.8125 8.5 C 21.8125 7.2443512 21.434058 6.1285611 21 5.25 z M 12.9375 7.75 C 13.704042 7.8842965 15.316327 8.2745411 16.34375 9.28125 C 16.787954 9.7164979 17.10081 10.267886 17.34375 10.8125 C 16.534746 10.462518 15.569378 10.1875 14.5 10.1875 C 13.244351 10.1875 12.128561 10.565942 11.25 11 C 11.562059 9.7759445 12.135767 8.6744066 12.9375 7.75 z M 25.9375 9 C 26.533058 10.036223 26.890351 11.23574 26.96875 12.5 C 26.332919 12.943167 24.939292 13.8125 23.5 13.8125 C 22.876016 13.8125 22.2739 13.626219 21.71875 13.40625 C 22.541158 13.086515 23.423796 12.592057 24.1875 11.84375 C 25.081882 10.9674 25.611258 9.9188637 25.9375 9 z M 14.5 12.1875 C 15.123984 12.1875 15.7261 12.373781 16.28125 12.59375 C 15.458842 12.913485 14.576204 13.407943 13.8125 14.15625 C 12.927086 15.023813 12.389748 16.056448 12.0625 16.96875 C 11.471609 15.935896 11.109458 14.758944 11.03125 13.5 C 11.667081 13.056833 13.060708 12.1875 14.5 12.1875 z M 16.84375 14.59375 C 16.481201 15.414463 16.1875 16.403565 16.1875 17.5 C 16.1875 18.755649 16.565942 19.871439 17 20.75 C 15.723817 20.422962 14.569858 19.79368 13.625 18.9375 C 13.770666 18.181909 14.191842 16.599954 15.21875 15.59375 C 15.684716 15.137179 16.268639 14.830395 16.84375 14.59375 z M 26.75 15 C 26.437941 16.217729 25.859756 17.330519 25.0625 18.25 C 24.295631 18.115566 22.682637 17.725024 21.65625 16.71875 C 21.212046 16.283502 20.89919 15.732114 20.65625 15.1875 C 21.465254 15.537482 22.430622 15.8125 23.5 15.8125 C 24.755649 15.8125 25.871439 15.434058 26.75 15 z M 18.625 15.65625 C 18.959315 16.486184 19.466735 17.388776 20.25 18.15625 C 21.133059 19.022004 22.172632 19.532897 23.09375 19.84375 C 22.029218 20.48068 20.813889 20.887129 19.5 20.96875 C 19.056833 20.332919 18.1875 18.939292 18.1875 17.5 C 18.1875 16.852053 18.392143 16.22737 18.625 15.65625 z" fill="#000000"/></svg>
