<?xml version="1.0" encoding="utf-8"?>
<svg xmlns="http://www.w3.org/2000/svg" viewBox="0 0 32 32" fill="#000000"><path style="text-indent:0;text-align:start;line-height:normal;text-transform:none;block-progression:tb;-inkscape-font-specification:Bitstream Vera Sans" d="M 16 5 C 11.43764 5 8.0835373 5.7766097 5.84375 6.5625 C 3.6039627 7.3483903 2.40625 8.1875 2.40625 8.1875 L 2 8.5 L 2 9 L 2 16 L 2 17 L 2 20 L 2 26 L 2 27 L 3 27 L 6 27 L 7 27 L 7 26 L 7 25 L 25 25 L 25 26 L 25 27 L 26 27 L 29 27 L 30 27 L 30 26 L 30 17 L 30 16 L 30 9 L 30 8.5 L 29.59375 8.1875 C 29.59375 8.1875 28.396037 7.3483903 26.15625 6.5625 C 23.916463 5.7766097 20.56236 5 16 5 z M 16 7 C 20.33764 7 23.464787 7.7233903 25.5 8.4375 C 27.251994 9.0522348 27.787078 9.4791751 28 9.625 L 28 16 L 26 16 L 26 14 L 26 13.40625 L 25.5 13.125 C 25.5 13.125 23.446914 12 20.5 12 C 18.375856 12 16.761215 12.579868 16 12.90625 C 15.238785 12.579868 13.624144 12 11.5 12 C 8.5530864 12 6.5 13.125 6.5 13.125 L 6 13.40625 L 6 14 L 6 16 L 4 16 L 4 9.625 C 4.2129224 9.4791751 4.7480058 9.0522348 6.5 8.4375 C 8.5352127 7.7233903 11.66236 7 16 7 z M 15 8.3125 C 14.4 8.3125 14 8.8125 14 9.3125 C 14 9.6125 14.3125 10 14.3125 10 L 16 11.6875 L 17.6875 10 C 17.6875 10 18 9.7125 18 9.3125 C 18 8.8125 17.6 8.3125 17 8.3125 C 16.4 8.3125 16 8.8125 16 8.8125 C 16 8.8125 15.6 8.3125 15 8.3125 z M 11.5 14 C 13.37066 14 14.463427 14.414864 15 14.65625 L 15 16 L 8 16 L 8 14.65625 C 8.5365735 14.414864 9.6293402 14 11.5 14 z M 20.5 14 C 22.37066 14 23.463427 14.414864 24 14.65625 L 24 16 L 17 16 L 17 14.65625 C 17.536573 14.414864 18.62934 14 20.5 14 z M 4 18 L 28 18 L 28 25 L 27 25 L 27 24 L 27 23 L 26 23 L 6 23 L 5 23 L 5 24 L 5 25 L 4 25 L 4 18 z" overflow="visible" font-family="Bitstream Vera Sans" fill="#000000"/></svg>
