<?xml version="1.0" encoding="utf-8"?>
<svg xmlns="http://www.w3.org/2000/svg" viewBox="0 0 32 32" fill="#000000"><path style="text-indent:0;text-align:start;line-height:normal;text-transform:none;block-progression:tb;-inkscape-font-specification:Sans" d="M 5 5 L 5 6 L 5 26 L 5 27 L 6 27 L 26 27 L 27 27 L 27 26 L 27 6 L 27 5 L 26 5 L 6 5 L 5 5 z M 7 7 L 25 7 L 25 25 L 7 25 L 7 7 z M 12 11 L 12 21 L 14 21 L 14 11 L 12 11 z M 19 11 L 19 15 L 17.5 15 C 16.130937 15 15 16.130937 15 17.5 L 15 18.5 C 15 19.869063 16.130937 21 17.5 21 L 19 21 L 20 21 L 21 21 L 21 20 L 21 16 L 21 15 L 21 11 L 19 11 z M 17.5 17 L 19 17 L 19 19 L 17.5 19 C 17.213063 19 17 18.786937 17 18.5 L 17 17.5 C 17 17.213063 17.213063 17 17.5 17 z" overflow="visible" font-family="Sans" fill="#000000"/></svg>
