<?xml version="1.0" encoding="utf-8"?>
<svg xmlns="http://www.w3.org/2000/svg" viewBox="0 0 32 32" fill="#000000"><path style="line-height:normal;text-indent:0;text-align:start;text-decoration-line:none;text-decoration-style:solid;text-decoration-color:#000;text-transform:none;block-progression:tb;isolation:auto;mix-blend-mode:normal" d="M 18.929688 1.7246094 L 17.966797 4.5253906 L 16.113281 3.8789062 L 8.9960938 24.591797 C 5.4668644 25.213015 3.5644531 26.099609 3.5644531 26.099609 L 3 26.373047 L 3 30 L 29 30 L 29 29 L 29 26.373047 L 28.435547 26.099609 C 28.435547 26.099609 26.030528 24.965514 21.564453 24.365234 L 27.269531 7.765625 L 25.416016 7.1191406 L 26.378906 4.3203125 L 18.929688 1.7246094 z M 20.167969 4.2734375 L 23.839844 5.5546875 L 23.527344 6.4609375 L 19.855469 5.1835938 L 20.167969 4.2734375 z M 17.353516 6.4277344 L 18.257812 6.7441406 L 19.207031 7.0742188 L 22.876953 8.3515625 L 23.818359 8.6796875 L 24.730469 8.9980469 L 19.523438 24.154297 C 18.431355 24.064728 17.279292 24 16 24 C 14.21476 24 12.638955 24.114035 11.220703 24.275391 L 17.353516 6.4277344 z M 18.212891 9.4941406 C 17.824156 9.5201562 17.471687 9.7725625 17.335938 10.164062 L 16.681641 12.054688 L 18.570312 12.708984 L 19.224609 10.818359 C 19.405609 10.296359 19.129422 9.727875 18.607422 9.546875 C 18.476922 9.501625 18.342469 9.4854688 18.212891 9.4941406 z M 21.546875 10.648438 C 21.158141 10.674453 20.805672 10.926859 20.669922 11.318359 L 20.015625 13.208984 L 21.904297 13.863281 L 22.558594 11.972656 C 22.738594 11.450656 22.463406 10.881172 21.941406 10.701172 C 21.810906 10.655922 21.676453 10.639766 21.546875 10.648438 z M 16.742188 13.746094 C 16.353453 13.772109 15.999031 14.026469 15.863281 14.417969 L 15.210938 16.308594 L 17.099609 16.962891 L 17.753906 15.072266 C 17.933906 14.550266 17.658719 13.980781 17.136719 13.800781 C 17.006219 13.755531 16.871766 13.737422 16.742188 13.746094 z M 20.076172 14.900391 C 19.687438 14.926406 19.333016 15.178813 19.197266 15.570312 L 18.542969 17.460938 L 20.433594 18.115234 L 21.087891 16.224609 C 21.268891 15.702609 20.99075 15.134125 20.46875 14.953125 C 20.33825 14.907875 20.20575 14.891719 20.076172 14.900391 z M 15.269531 17.998047 C 14.880797 18.024062 14.528328 18.278422 14.392578 18.669922 L 13.738281 20.560547 L 15.628906 21.214844 L 16.28125 19.324219 C 16.46225 18.803219 16.186063 18.233734 15.664062 18.052734 C 15.533563 18.007484 15.399109 17.989375 15.269531 17.998047 z M 18.603516 19.152344 C 18.214781 19.178359 17.862312 19.432719 17.726562 19.824219 L 17.072266 21.714844 L 18.962891 22.367188 L 19.615234 20.478516 C 19.796234 19.956516 19.520047 19.386078 18.998047 19.205078 C 18.867547 19.159828 18.733094 19.143672 18.603516 19.152344 z M 16 26 C 22.942804 26 26.31928 27.413141 27 27.714844 L 27 28 L 5 28 L 5 27.714844 C 5.6807204 27.413141 9.0571957 26 16 26 z" font-weight="400" font-family="sans-serif" white-space="normal" overflow="visible" fill="#000000"/></svg>
