<?xml version="1.0" encoding="utf-8"?>
<svg xmlns="http://www.w3.org/2000/svg" viewBox="0 0 32 32" fill="#000000"><path style="text-indent:0;text-align:start;line-height:normal;text-transform:none;block-progression:tb;-inkscape-font-specification:Bitstream Vera Sans" d="M 14 3 C 12.906937 3 12 3.9069372 12 5 L 12 7.3125 C 11.042732 7.7805998 10.347862 8.6043736 9.875 9.5 C 9.286549 10.614557 9 11.866451 9 13 C 9 13.79307 9.5335909 14.416036 10 14.6875 L 10 22.28125 C 9.5361089 22.541146 9 23.192933 9 24 L 9 26 C 9 27.645455 10.354545 29 12 29 L 20 29 C 21.645455 29 23 27.645455 23 26 L 23 24 C 23 23.192933 22.463891 22.541146 22 22.28125 L 22 14.6875 C 22.466409 14.416036 23 13.79307 23 13 C 23 11.858829 22.714035 10.612557 22.125 9.5 C 21.651668 8.6059813 20.956106 7.7814579 20 7.3125 L 20 5 C 20 3.9069372 19.093063 3 18 3 L 14 3 z M 14 5 L 18 5 L 18 7 L 14 7 L 14 5 z M 13.21875 9 L 18.78125 9 C 19.413574 9.1747615 19.972071 9.6764575 20.375 10.4375 C 20.786215 11.214193 21 12.203171 21 13 L 20.96875 13 L 13 13 L 13 15 L 20 15 L 20 22 L 13 22 L 13 24 L 20.9375 24 C 20.9375 24 20.97413 24.02178 21 24.03125 L 21 26 C 21 26.554545 20.554545 27 20 27 L 12 27 C 11.445455 27 11 26.554545 11 26 L 11 24.03125 L 11 24 C 11.02185 23.9926 11.0625 24 11.0625 24 L 12 23.96875 L 12 23 L 12 14 L 12 13.03125 L 11.03125 13 C 11.03125 13 11.00621 13.002 11 13 C 11 12.214549 11.212951 11.217943 11.625 10.4375 C 12.028746 9.6727837 12.590972 9.1725745 13.21875 9 z" overflow="visible" font-family="Bitstream Vera Sans" fill="#000000"/></svg>
