<?xml version="1.0" encoding="utf-8"?>
<svg xmlns="http://www.w3.org/2000/svg" viewBox="0 0 32 32" fill="#000000"><path style="line-height:normal;text-indent:0;text-align:start;text-decoration-line:none;text-decoration-style:solid;text-decoration-color:#000;text-transform:none;block-progression:tb;isolation:auto;mix-blend-mode:normal" d="M 6 6.0078125 L 6 7.0078125 L 6 12.005859 L 6 13.005859 L 6 20.003906 L 6 26 L 12.001953 26 L 20.003906 26 L 26.007812 26 L 26.007812 6.0078125 L 20.003906 6.0078125 L 12.001953 6.0078125 L 6 6.0078125 z M 8 8.0078125 L 12.001953 8.0078125 L 12.001953 12.005859 L 8 12.005859 L 8 8.0078125 z M 14.001953 8.0078125 L 18.003906 8.0078125 L 18.003906 12.005859 L 14.001953 12.005859 L 14.001953 8.0078125 z M 20.003906 8.0078125 L 24.007812 8.0078125 L 24.007812 12.005859 L 20.003906 12.005859 L 20.003906 8.0078125 z M 8 14.005859 L 12.001953 14.005859 L 12.001953 18.003906 L 8 18.003906 L 8 14.005859 z M 14.001953 14.005859 L 18.003906 14.005859 L 18.003906 18.003906 L 14.001953 18.003906 L 14.001953 14.005859 z M 20.003906 14.005859 L 24.007812 14.005859 L 24.007812 18.003906 L 20.003906 18.003906 L 20.003906 14.005859 z M 8 20.003906 L 12.001953 20.003906 L 12.001953 24 L 8 24 L 8 20.003906 z M 14.001953 20.003906 L 18.003906 20.003906 L 18.003906 24 L 14.001953 24 L 14.001953 20.003906 z M 20.003906 20.003906 L 24.007812 20.003906 L 24.007812 24 L 20.003906 24 L 20.003906 20.003906 z" font-weight="400" font-family="sans-serif" white-space="normal" overflow="visible" fill="#000000"/></svg>
