<?xml version="1.0" encoding="utf-8"?>
<svg xmlns="http://www.w3.org/2000/svg" viewBox="0 0 32 32" fill="#000000"><path style="text-indent:0;text-align:start;line-height:normal;text-transform:none;block-progression:tb;-inkscape-font-specification:Sans" d="M 4 6 L 4 7 L 4 25 L 4 26 L 5 26 L 27 26 L 28 26 L 28 25 L 28 7 L 28 6 L 27 6 L 5 6 L 4 6 z M 6 8 L 26 8 L 26 24 L 6 24 L 6 8 z M 13.5 12 C 12.119 12 11 13.119 11 14.5 C 11 17.002 16 20 16 20 C 16 20 21 17.002 21 14.5 C 21 13.119 19.881 12 18.5 12 C 17.119 12 16 13.119 16 14.5 C 16 13.119 14.881 12 13.5 12 z" overflow="visible" font-family="Sans" fill="#000000"/></svg>
