<?xml version="1.0" encoding="utf-8"?>
<svg xmlns="http://www.w3.org/2000/svg" viewBox="0 0 32 32" fill="#000000"><path style="text-indent:0;text-align:start;line-height:normal;text-transform:none;block-progression:tb;-inkscape-font-specification:Bitstream Vera Sans" d="M 8 4.75 L 7.0625 7.59375 L 5.0625 13.59375 L 5 13.75 L 5 13.90625 L 5 15.1875 L 2.375 17.21875 L 2 17.5 L 2 18 L 2 25 L 2 26 L 3 26 L 6 26 L 10 26 L 11 26 L 14 26 L 15 26 L 15 25 L 15 21 C 15 20.43497 15.43497 20 16 20 C 16.56503 20 17 20.43497 17 21 L 17 25 L 17 26 L 18 26 L 22 26 L 26 26 L 27 26 L 29 26 L 30 26 L 30 25 L 30 18 L 30 17.5 L 29.625 17.21875 L 27 15.1875 L 27 13.90625 L 27 13.75 L 26.9375 13.59375 L 24.9375 7.59375 L 24 4.75 L 23.0625 7.59375 L 21.84375 11.21875 L 16.625 7.21875 L 16 6.75 L 15.375 7.21875 L 10.15625 11.21875 L 8.9375 7.59375 L 8 4.75 z M 16 9.25 L 21.1875 13.25 L 21.0625 13.59375 L 21 13.75 L 21 13.90625 L 21 24 L 19 24 L 19 21 C 19 19.35503 17.64497 18 16 18 C 14.35503 18 13 19.35503 13 21 L 13 24 L 11 24 L 11 13.90625 L 11 13.75 L 10.9375 13.59375 L 10.8125 13.25 L 16 9.25 z M 8 11.03125 L 9 14.03125 L 9 24 L 7 24 L 7 14.03125 L 8 11.03125 z M 24 11.03125 L 25 14.03125 L 25 24 L 23 24 L 23 14.03125 L 24 11.03125 z M 5 17.75 L 5 24 L 4 24 L 4 18.5 L 5 17.75 z M 27 17.75 L 28 18.5 L 28 24 L 27 24 L 27 17.75 z" fill="#000000"/></svg>
