<?xml version="1.0" encoding="utf-8"?>
<svg xmlns="http://www.w3.org/2000/svg" viewBox="0 0 32 32" fill="#000000"><path style="text-indent:0;text-align:start;line-height:normal;text-transform:none;block-progression:tb;-inkscape-font-specification:Bitstream Vera Sans" d="M 16 4 C 11.593562 4 8 7.593562 8 12 L 7 12 L 6 12 L 6 13 L 6 25 C 6 26.645063 7.3549372 28 9 28 L 23 28 C 24.645063 28 26 26.645063 26 25 L 26 13 L 26 12 L 25 12 L 24 12 C 24 7.593562 20.406438 4 16 4 z M 16 6 C 19.325562 6 22 8.674438 22 12 L 10 12 C 10 8.674438 12.674438 6 16 6 z M 8 14 L 12 14 C 12.501 14 13 14.493 13 15 L 13 16 C 13 16.552 13.448 17 14 17 C 14.552 17 15 16.552 15 16 L 15 15 C 15 14.493 15.507 14 16 14 L 17 14 C 17.999 14 18 15 18 15 C 18 16.002 17 18.014 17 19 C 17 20.104 17.896 21 19 21 C 20.104 21 21 20.104 21 19 C 21 17.996 20 16.002 20 15 C 20 15 20.018 14 21 14 L 24 14 L 24 25 C 24 25.562937 23.562937 26 23 26 L 9 26 C 8.4370628 26 8 25.562937 8 25 L 8 14 z" overflow="visible" font-family="Bitstream Vera Sans" fill="#000000"/></svg>
