<?xml version="1.0" encoding="utf-8"?>
<svg xmlns="http://www.w3.org/2000/svg" viewBox="0 0 32 32" fill="#000000"><path style="text-indent:0;text-align:start;line-height:normal;text-transform:none;block-progression:tb;-inkscape-font-specification:Sans" d="M 15 2 L 15 10 L 17 10 L 17 2 L 15 2 z M 16 11 C 15.448 11 15 11.448 15 12 L 13 12 C 10.355433 12 8.4988995 13.564553 8.125 15.59375 L 7 21.8125 L 9 22.1875 L 10.09375 15.96875 L 10.09375 15.9375 C 10.21401 15.313696 10.533628 14.839599 11.0625 14.5 L 11 14.84375 L 9 27.84375 L 8.84375 29 L 10 29 L 11.21875 29 L 11.21875 30 L 13.21875 30 L 13.21875 29 L 19 29 L 19 30 L 21 30 L 21 29 L 22 29 L 23.15625 29 L 23 27.84375 L 20.84375 14.25 C 20.61701 12.897894 19.359219 12 18 12 L 17 12 C 17 11.448 16.552 11 16 11 z M 13 14 L 18 14 C 18.428691 14 18.647991 14.262789 18.75 14.5 L 16 15.875 L 12.5 14.125 C 12.698119 14.103882 12.769008 14 13 14 z M 12.78125 16.53125 L 15 17.625 L 15 22 L 17 22 L 17 17.625 L 19.1875 16.53125 L 20.8125 27 L 11.1875 27 L 12.78125 16.53125 z" overflow="visible" font-family="Sans" fill="#000000"/></svg>
