<?xml version="1.0" encoding="utf-8"?>
<svg xmlns="http://www.w3.org/2000/svg" viewBox="0 0 32 32" fill="#000000"><path style="text-indent:0;text-align:start;line-height:normal;text-transform:none;block-progression:tb;-inkscape-font-specification:Sans" d="M 16 3.25 L 15.1875 4.4375 L 12.59375 8.1875 L 10.4375 7.09375 L 9 6.375 L 9 8 L 9 11.1875 L 4.8125 12.03125 L 3.3125 12.3125 L 4.1875 13.5625 L 6.8125 17.375 L 5.21875 19.375 L 4.15625 20.71875 L 5.84375 21 L 8 21.375 L 8 26 L 8 27.46875 L 9.375 26.9375 L 13.625 25.25 L 15.15625 27.5625 L 16 28.8125 L 16.84375 27.5625 L 18.375 25.25 L 22.625 26.9375 L 24 27.46875 L 24 26 L 24 21.375 L 26.15625 21 L 27.84375 20.71875 L 26.78125 19.375 L 25.1875 17.375 L 27.8125 13.5625 L 28.6875 12.3125 L 27.1875 12.03125 L 23 11.1875 L 23 8 L 23 6.375 L 21.5625 7.09375 L 19.40625 8.1875 L 16.8125 4.4375 L 16 3.25 z M 16 6.75 L 17.59375 9.0625 L 16 9.875 L 14.40625 9.0625 L 16 6.75 z M 11 9.625 L 15.5625 11.90625 L 16 12.125 L 16.4375 11.90625 L 21 9.625 L 21 15 L 21 15.34375 L 21.21875 15.625 L 24.15625 19.28125 L 19.84375 20 L 19.40625 20.09375 L 19.15625 20.4375 L 16 25.1875 L 12.84375 20.4375 L 12.59375 20.09375 L 12.15625 20 L 7.84375 19.28125 L 10.78125 15.625 L 11 15.34375 L 11 15 L 11 9.625 z M 9 13.21875 L 9 14.65625 L 8.09375 15.78125 L 6.65625 13.6875 L 9 13.21875 z M 23 13.21875 L 25.34375 13.6875 L 23.90625 15.78125 L 23 14.65625 L 23 13.21875 z M 13 14 L 13 16 L 19 16 L 19 14 L 13 14 z M 13 17 L 13 19 L 19 19 L 19 17 L 13 17 z M 10 21.6875 L 11.40625 21.9375 L 12.46875 23.53125 L 10 24.5 L 10 21.6875 z M 22 21.6875 L 22 24.5 L 19.53125 23.53125 L 20.59375 21.9375 L 22 21.6875 z" fill="#000000"/></svg>
