<?xml version="1.0" encoding="utf-8"?>
<svg xmlns="http://www.w3.org/2000/svg" viewBox="0 0 32 32" fill="#000000"><path style="text-indent:0;text-align:start;line-height:normal;text-transform:none;block-progression:tb;-inkscape-font-specification:Bitstream Vera Sans" d="M 14.96875 4.5 L 13.03125 4.90625 L 14.125 10.0625 C 14.751088 12.971437 16.827904 15.357874 19.625 16.375 L 23.375 17.75 C 24.959167 18.326425 26 19.815063 26 21.5 L 26 22 L 7 22 L 7 10 C 7 9.4349698 7.4349698 9 8 9 L 10 9 L 11.0625 9 L 12.625 9 L 12.1875 7 L 11.0625 7 L 10 7 L 8 7 C 6.3550302 7 5 8.3550302 5 10 L 5 23 L 5 23.78125 C 4.3897494 24.332097 4 25.121855 4 26 C 4 27.645009 5.3549901 29 7 29 C 8.6450099 29 10 27.645009 10 26 C 10 25.233136 9.6997924 24.532919 9.21875 24 L 10.78125 24 C 10.300208 24.532919 10 25.233135 10 26 C 10 27.64501 11.35499 29 13 29 C 14.64501 29 16 27.64501 16 26 C 16 25.233135 15.699792 24.532919 15.21875 24 L 16.78125 24 C 16.300208 24.532919 16 25.233135 16 26 C 16 27.64501 17.35499 29 19 29 C 20.64501 29 22 27.64501 22 26 C 22 25.233135 21.699792 24.532919 21.21875 24 L 22.78125 24 C 22.300208 24.532919 22 25.233135 22 26 C 22 27.64501 23.35499 29 25 29 C 26.64501 29 28 27.64501 28 26 C 28 25.233135 27.699792 24.532919 27.21875 24 L 28 24 L 28 23 L 28 21.5 C 28 18.980937 26.430333 16.736575 24.0625 15.875 L 20.3125 14.5 C 18.159596 13.717126 16.575662 11.895313 16.09375 9.65625 L 14.96875 4.5 z M 13 11 C 12.447715 11 12 11.447715 12 12 C 12 12.552285 12.447715 13 13 13 C 13.552285 13 14 12.552285 14 12 C 14 11.447715 13.552285 11 13 11 z M 16 15 C 15.447715 15 15 15.447715 15 16 C 15 16.552285 15.447715 17 16 17 C 16.552285 17 17 16.552285 17 16 C 17 15.447715 16.552285 15 16 15 z M 20 17 C 19.447715 17 19 17.447715 19 18 C 19 18.552285 19.447715 19 20 19 C 20.552285 19 21 18.552285 21 18 C 21 17.447715 20.552285 17 20 17 z M 7 25 C 7.5641291 25 8 25.435871 8 26 C 8 26.564129 7.5641291 27 7 27 C 6.4358709 27 6 26.564129 6 26 C 6 25.435871 6.4358709 25 7 25 z M 13 25 C 13.564128 25 14 25.435872 14 26 C 14 26.564128 13.564128 27 13 27 C 12.435872 27 12 26.564128 12 26 C 12 25.435872 12.435872 25 13 25 z M 19 25 C 19.564128 25 20 25.435872 20 26 C 20 26.564128 19.564128 27 19 27 C 18.435872 27 18 26.564128 18 26 C 18 25.435872 18.435872 25 19 25 z M 25 25 C 25.564128 25 26 25.435872 26 26 C 26 26.564128 25.564128 27 25 27 C 24.435872 27 24 26.564128 24 26 C 24 25.435872 24.435872 25 25 25 z" fill="#000000"/></svg>
