<?xml version="1.0" encoding="utf-8"?>
<svg xmlns="http://www.w3.org/2000/svg" viewBox="0 0 32 32" fill="#000000"><path d="M 5 4 L 5 5 L 5 11 L 7 11 L 7 6 L 25 6 L 25 11 L 27 11 L 27 5 L 27 4 L 26 4 L 6 4 L 5 4 z M 11.5 9 C 10.165044 9 8.991291 9.9032389 8.625 11.1875 L 7.125 16.34375 C 5.9462217 16.749204 5 17.691446 5 19 L 5 24 L 7 24 L 7 19 C 7 18.43497 7.4349698 18 8 18 L 8.75 18 L 8.96875 17.28125 L 9.34375 16 L 22.65625 16 L 23.03125 17.28125 L 23.25 18 L 24 18 C 24.56503 18 25 18.43497 25 19 L 25 24 L 27 24 L 27 19 C 27 17.691446 26.053778 16.749204 24.875 16.34375 L 23.375 11.1875 C 23.008709 9.9032389 21.834956 9 20.5 9 L 11.5 9 z M 11.5 11 L 20.5 11 C 20.951044 11 21.313791 11.285011 21.4375 11.71875 L 22.09375 14 L 9.875 14 L 10.53125 11.71875 C 10.654959 11.285011 11.048956 11 11.5 11 z M 3 12 L 3 16 L 5 16 L 5 12 L 3 12 z M 27 12 L 27 16 L 29 16 L 29 12 L 27 12 z M 14 18 C 12.906937 18 12 18.906937 12 20 L 12 23 L 14 23 L 14 20 L 18 20 L 18 23 L 20 23 L 20 20 C 20 18.906937 19.093063 18 18 18 L 14 18 z M 9.5 20 C 8.6715729 20 8 20.671573 8 21.5 C 8 22.328427 8.6715729 23 9.5 23 C 10.328427 23 11 22.328427 11 21.5 C 11 20.671573 10.328427 20 9.5 20 z M 22.5 20 C 21.671573 20 21 20.671573 21 21.5 C 21 22.328427 21.671573 23 22.5 23 C 23.328427 23 24 22.328427 24 21.5 C 24 20.671573 23.328427 20 22.5 20 z M 5 25 L 5 27 C 5 27.552 5.448 28 6 28 L 9 28 L 9.34375 27 L 22.65625 27 L 23 28 L 26 28 C 26.552 28 27 27.552 27 27 L 27 25 L 26 25 L 22 25 L 10 25 L 5 25 z" fill="#000000"/></svg>
