<?xml version="1.0" encoding="utf-8"?>
<svg xmlns="http://www.w3.org/2000/svg" viewBox="0 0 32 32" fill="#000000"><path d="M 3 7 L 3 8 L 3 24 L 3 25 L 4 25 L 28 25 L 29 25 L 29 24 L 29 8 L 29 7 L 28 7 L 4 7 L 3 7 z M 5 9 L 27 9 L 27 23 L 5 23 L 5 9 z M 7 11 L 7 18 L 8 18 L 8 20 L 8 21 L 9 21 L 13 21 L 14 21 L 14 20 L 14 18 L 15 18 L 15 11 L 7 11 z M 10 14 L 12 14 L 12 19 L 10 19 L 10 14 z M 19 14.5 C 18.171573 14.5 17.5 15.171573 17.5 16 C 17.5 16.828427 18.171573 17.5 19 17.5 C 19.828427 17.5 20.5 16.828427 20.5 16 C 20.5 15.171573 19.828427 14.5 19 14.5 z M 24 14.5 C 23.171573 14.5 22.5 15.171573 22.5 16 C 22.5 16.828427 23.171573 17.5 24 17.5 C 24.828427 17.5 25.5 16.828427 25.5 16 C 25.5 15.171573 24.828427 14.5 24 14.5 z" fill="#000000"/></svg>
