<?xml version="1.0" encoding="utf-8"?>
<svg xmlns="http://www.w3.org/2000/svg" viewBox="0 0 32 32" fill="#000000"><path style="text-indent:0;text-align:start;line-height:normal;text-transform:none;block-progression:tb;-inkscape-font-specification:Bitstream Vera Sans" d="M 23.5 5 C 21.578848 5 20 6.5788481 20 8.5 C 20 10.421152 21.578848 12 23.5 12 C 25.421152 12 27 10.421152 27 8.5 C 27 6.5788481 25.421152 5 23.5 5 z M 23.5 7 C 24.340272 7 25 7.6597281 25 8.5 C 25 9.3402719 24.340272 10 23.5 10 C 22.659728 10 22 9.3402719 22 8.5 C 22 7.6597281 22.659728 7 23.5 7 z M 16.40625 9.90625 C 15.930937 9.9384492 15.4551 10.077442 15.03125 10.34375 L 10.1875 13.40625 L 9.90625 13.5625 L 9.78125 13.875 L 8.1875 17.78125 L 5.28125 14.6875 L 3.84375 16.0625 L 6.71875 19.125 C 7.6866406 20.159104 9.4901811 19.839158 10.03125 18.53125 L 11.53125 14.90625 L 16.09375 12.0625 C 16.475484 11.822654 16.944729 11.854646 17.28125 12.15625 L 18.28125 13.0625 L 19.8125 16.40625 L 19.96875 16.78125 L 20.34375 16.90625 L 24.53125 18.65625 L 25.28125 16.8125 L 21.46875 15.21875 L 20.03125 12.03125 L 19.9375 11.84375 L 19.78125 11.6875 L 18.625 10.65625 C 18.128261 10.211052 17.509389 9.960483 16.875 9.90625 C 16.716403 9.8926918 16.564688 9.8955169 16.40625 9.90625 z M 17.5625 13.53125 L 16.625 14.03125 L 12.40625 16.1875 L 11.71875 16.5625 L 11.875 17.3125 L 12.8125 21.46875 L 8.21875 25.4375 L 9.5 26.96875 L 14.125 23 C 14.68413 22.518749 14.942961 21.749965 14.78125 21.03125 L 14 17.625 L 16.5625 16.3125 L 17.40625 18.25 L 17.5 18.5 L 17.71875 18.65625 L 21.6875 21.78125 L 22.90625 20.1875 L 19.15625 17.28125 L 18 14.53125 L 17.5625 13.53125 z M 12 25 L 12 27 L 16 27 L 16 25 L 12 25 z" overflow="visible" font-family="Bitstream Vera Sans" fill="#000000"/></svg>
