<?xml version="1.0" encoding="utf-8"?>
<svg xmlns="http://www.w3.org/2000/svg" viewBox="0 0 32 32" fill="#000000"><path style="text-indent:0;text-align:start;line-height:normal;text-transform:none;block-progression:tb;-inkscape-font-specification:Bitstream Vera Sans" d="M 16 4 L 16 6 L 15 6 L 14.6875 6 L 14.4375 6.15625 L 11.4375 8.15625 L 11 8.46875 L 11 9 L 11 10 L 11 11 L 12 11 L 22 11 L 23 11 L 23 10 L 23 9 L 23 8.46875 L 22.5625 8.15625 L 19.5625 6.15625 L 19.3125 6 L 19 6 L 18 6 L 18 4 L 16 4 z M 15.3125 8 L 18.6875 8 L 20.1875 9 L 13.8125 9 L 15.3125 8 z M 11 13 C 10.447715 13 10 13.447715 10 14 C 10 14.552285 10.447715 15 11 15 C 11.552285 15 12 14.552285 12 14 C 12 13.447715 11.552285 13 11 13 z M 15 13 C 14.447715 13 14 13.447715 14 14 C 14 14.552285 14.447715 15 15 15 C 15.552285 15 16 14.552285 16 14 C 16 13.447715 15.552285 13 15 13 z M 19 13 C 18.447715 13 18 13.447715 18 14 C 18 14.552285 18.447715 15 19 15 C 19.552285 15 20 14.552285 20 14 C 20 13.447715 19.552285 13 19 13 z M 23 13 C 22.447715 13 22 13.447715 22 14 C 22 14.552285 22.447715 15 23 15 C 23.552285 15 24 14.552285 24 14 C 24 13.447715 23.552285 13 23 13 z M 10 17 C 9.4477153 17 9 17.447715 9 18 C 9 18.552285 9.4477153 19 10 19 C 10.552285 19 11 18.552285 11 18 C 11 17.447715 10.552285 17 10 17 z M 17 17 C 14.802706 17 13 18.802706 13 21 C 13 22.114227 13.475261 23.116062 14.21875 23.84375 C 12.88816 24.744728 12 26.281553 12 28 L 14 28 C 14 26.331516 15.331516 25 17 25 C 18.668484 25 20 26.331516 20 28 L 22 28 C 22 26.281553 21.11184 24.744728 19.78125 23.84375 C 20.524739 23.116062 21 22.114227 21 21 C 21 18.802706 19.197294 17 17 17 z M 24 17 C 23.447715 17 23 17.447715 23 18 C 23 18.552285 23.447715 19 24 19 C 24.552285 19 25 18.552285 25 18 C 25 17.447715 24.552285 17 24 17 z M 17 19 C 18.116414 19 19 19.883586 19 21 C 19 22.116414 18.116414 23 17 23 C 15.883586 23 15 22.116414 15 21 C 15 19.883586 15.883586 19 17 19 z M 9 21 C 8.4477153 21 8 21.447715 8 22 C 8 22.552285 8.4477153 23 9 23 C 9.5522847 23 10 22.552285 10 22 C 10 21.447715 9.5522847 21 9 21 z M 25 21 C 24.447715 21 24 21.447715 24 22 C 24 22.552285 24.447715 23 25 23 C 25.552285 23 26 22.552285 26 22 C 26 21.447715 25.552285 21 25 21 z M 8 25 C 7.4477153 25 7 25.447715 7 26 C 7 26.552285 7.4477153 27 8 27 C 8.5522847 27 9 26.552285 9 26 C 9 25.447715 8.5522847 25 8 25 z M 26 25 C 25.447715 25 25 25.447715 25 26 C 25 26.552285 25.447715 27 26 27 C 26.552285 27 27 26.552285 27 26 C 27 25.447715 26.552285 25 26 25 z" fill="#000000"/></svg>
