<?xml version="1.0" encoding="utf-8"?>
<svg xmlns="http://www.w3.org/2000/svg" viewBox="0 0 32 32" fill="#000000"><path d="M 11.5 3 C 6.813 3 3 6.813 3 11.5 C 3 16.187 6.813 20 11.5 20 C 13.483746 20 15.307216 19.312722 16.753906 18.167969 L 19 20.414062 L 19 28 L 28 28 L 28 20 L 26 20 L 26 13 L 29 13 L 29 11 L 24 11 L 24 20 L 26 22 L 26 26 L 21 26 L 21 22.414062 L 22.792969 24.207031 A 1.0001 1.0001 0 1 0 24.207031 22.792969 L 13.220703 11.806641 C 15.453614 10.988045 17.179056 11.617643 17.957031 12.029297 C 17.914791 12.534641 17.834838 13.029017 17.683594 13.496094 L 19.220703 15.033203 C 19.715703 13.955203 20 12.762 20 11.5 C 20 6.813 16.187 3 11.5 3 z M 12.037109 5.0273438 C 13.040813 5.1099922 13.977389 5.4219263 14.800781 5.9101562 C 13.759087 6.4444738 12.492399 7.3484209 11.537109 8.9003906 C 11.135526 7.0531603 11.678771 5.6813129 12.037109 5.0273438 z M 9.8808594 5.2128906 C 9.5223044 6.3248745 9.2672914 7.8574025 9.6855469 9.625 C 8.1228812 8.6183374 7.5229782 7.2642284 7.3046875 6.5429688 C 8.0410986 5.9188243 8.9185748 5.4609261 9.8808594 5.2128906 z M 16.458984 7.3066406 C 17.080938 8.0410947 17.536983 8.9159741 17.785156 9.875 C 16.871342 9.5813692 15.67653 9.3535616 14.294922 9.515625 C 13.994095 9.5509122 13.682905 9.6104408 13.367188 9.6855469 C 14.380417 8.1113021 15.739294 7.5219056 16.458984 7.3066406 z M 5.9042969 8.2089844 C 6.4412857 9.2454862 7.359897 10.515214 8.8984375 11.462891 C 7.0674213 11.860354 5.6888695 11.315758 5.0273438 10.958984 C 5.1101423 9.960718 5.4200286 9.0289693 5.9042969 8.2089844 z M 5.2148438 13.128906 C 6.3272434 13.482136 7.8746082 13.730326 9.6328125 13.3125 C 8.6195845 14.887645 7.2607068 15.477818 6.5410156 15.693359 C 5.9198531 14.95984 5.4632451 14.086496 5.2148438 13.128906 z M 11.458984 14.080078 C 11.868967 15.937134 11.322513 17.316344 10.962891 17.972656 C 9.9576629 17.889882 9.019601 17.577398 8.1953125 17.087891 C 9.2377478 16.55138 10.50342 15.63805 11.458984 14.080078 z M 13.529297 14.943359 L 15.322266 16.736328 C 14.668372 17.216844 13.926258 17.581929 13.119141 17.791016 C 13.367578 17.021626 13.568859 16.061328 13.529297 14.943359 z" fill="#000000"/></svg>
