<?xml version="1.0" encoding="utf-8"?>
<svg xmlns="http://www.w3.org/2000/svg" viewBox="0 0 32 32" fill="#000000"><path style="text-indent:0;text-align:start;line-height:normal;text-transform:none;block-progression:tb;-inkscape-font-specification:Sans" d="M 16 3.71875 L 15.375 4.21875 L 7.125 10.625 L 6.875 10.84375 L 6.78125 11.15625 L 4.03125 21.25 L 3.8125 22.03125 L 4.5625 22.40625 L 15.5625 27.90625 L 16 28.125 L 16.4375 27.90625 L 27.4375 22.40625 L 28.1875 22.03125 L 27.96875 21.25 L 25.21875 11.15625 L 25.125 10.84375 L 24.875 10.625 L 16.625 4.21875 L 16 3.71875 z M 15 7.0625 L 15 10 L 11.21875 10 L 15 7.0625 z M 17 7.0625 L 20.78125 10 L 17 10 L 17 7.0625 z M 9.0625 12 L 14 12 L 10.40625 16.78125 L 9.0625 12 z M 18 12 L 22.9375 12 L 21.59375 16.78125 L 18 12 z M 16 12.6875 L 20 18 L 12 18 L 16 12.6875 z M 7.8125 15 L 8.8125 18.5 L 6.5625 19.625 L 7.8125 15 z M 24.1875 15 L 25.4375 19.625 L 23.1875 18.5 L 24.1875 15 z M 12 20 L 20 20 L 16 25.3125 L 12 20 z M 9.6875 20.28125 L 12.625 24.1875 L 7.25 21.5 L 9.6875 20.28125 z M 22.3125 20.28125 L 24.75 21.5 L 19.375 24.1875 L 22.3125 20.28125 z" fill="#000000"/></svg>
