<?xml version="1.0" encoding="utf-8"?>
<svg xmlns="http://www.w3.org/2000/svg" viewBox="0 0 32 32" fill="#000000"><path style="text-indent:0;text-align:start;line-height:normal;text-transform:none;block-progression:tb;-inkscape-font-specification:Bitstream Vera Sans" d="M 3 6 L 3 8 L 4 8 L 4 14 L 6 14 L 6 8 L 7 8 L 7 6 L 3 6 z M 8 6 L 8 7 L 8 14 L 10 14 L 10 11 L 11 14 L 13 14 L 11.875 10.59375 C 12.559476 10.145217 13 9.3701447 13 8.5 C 13 7.1309372 11.869063 6 10.5 6 L 9 6 L 8 6 z M 14 6 L 14 14 L 16 14 L 16 6 L 14 6 z M 19.21875 6 L 19 6.6875 L 17.0625 12.6875 L 17 12.84375 L 17 13 L 17 14 L 19 14 L 19 13.125 L 19.03125 13 L 20.96875 13 L 21 13.125 L 21 14 L 23 14 L 23 13 L 23 12.84375 L 22.9375 12.6875 L 21 6.6875 L 20.78125 6 L 20.0625 6 L 19.9375 6 L 19.21875 6 z M 24 6 L 24 13 L 24 14 L 25 14 L 28 14 L 28 12 L 26 12 L 26 6 L 24 6 z M 10 8 L 10.5 8 C 10.786937 8 11 8.2130628 11 8.5 C 11 8.7869372 10.786937 9 10.5 9 L 10 9 L 10 8 z M 20 10.0625 L 20.3125 11 L 19.6875 11 L 20 10.0625 z M 5 16 L 5 17 L 5 26 L 7 26 L 7 18 L 15 18 L 15 22.5625 L 13.71875 21.28125 L 12.28125 22.71875 L 15.28125 25.71875 L 16 26.40625 L 16.71875 25.71875 L 19.71875 22.71875 L 18.28125 21.28125 L 17 22.5625 L 17 18 L 25 18 L 25 26 L 27 26 L 27 17 L 27 16 L 26 16 L 6 16 L 5 16 z" fill="#000000"/></svg>
