<?xml version="1.0" encoding="utf-8"?>
<svg xmlns="http://www.w3.org/2000/svg" viewBox="0 0 32 32" fill="#000000"><path style="text-indent:0;text-align:start;line-height:normal;text-transform:none;block-progression:tb;-inkscape-font-specification:Sans" d="M 16 5 C 9.9367128 5 5 9.9367128 5 16 C 5 22.063287 9.9367128 27 16 27 C 22.063287 27 27 22.063287 27 16 C 27 9.9367128 22.063287 5 16 5 z M 16 7 C 20.982407 7 25 11.017593 25 16 C 25 20.982407 20.982407 25 16 25 C 11.017593 25 7 20.982407 7 16 C 7 11.017593 11.017593 7 16 7 z M 15 10 L 15 11.1875 C 13.844264 11.605727 13 12.708013 13 14 C 13 15.64497 14.35503 17 16 17 C 16.56503 17 17 17.43497 17 18 C 17 18.56503 16.56503 19 16 19 C 15.43497 19 15 18.56503 15 18 L 13 18 C 13 19.291987 13.844264 20.394273 15 20.8125 L 15 22 L 17 22 L 17 20.8125 C 18.155736 20.394273 19 19.291987 19 18 C 19 16.35503 17.64497 15 16 15 C 15.43497 15 15 14.56503 15 14 C 15 13.43497 15.43497 13 16 13 C 16.56503 13 17 13.43497 17 14 L 19 14 C 19 12.708013 18.155736 11.605727 17 11.1875 L 17 10 L 15 10 z" overflow="visible" font-family="Sans" fill="#000000"/></svg>
