<?xml version="1.0" encoding="utf-8"?>
<svg xmlns="http://www.w3.org/2000/svg" viewBox="0 0 32 32" fill="#000000"><path style="text-indent:0;text-align:start;line-height:normal;text-transform:none;block-progression:tb;-inkscape-font-specification:Sans" d="M 5 6 C 3.3550302 6 2 7.3550302 2 9 L 2 23 C 2 24.64497 3.3550302 26 5 26 L 27 26 C 28.64497 26 30 24.64497 30 23 L 30 9 C 30 7.3550302 28.64497 6 27 6 L 5 6 z M 5 8 L 27 8 C 27.56503 8 28 8.4349698 28 9 L 28 23 C 28 23.56503 27.56503 24 27 24 L 5 24 C 4.4349698 24 4 23.56503 4 23 L 4 9 C 4 8.4349698 4.4349698 8 5 8 z M 11 10 C 8.8027056 10 7 11.802706 7 14 C 7 15.114227 7.4752606 16.116062 8.21875 16.84375 C 6.88816 17.744728 6 19.281553 6 21 L 8 21 C 8 19.331516 9.3315161 18 11 18 C 12.668484 18 14 19.331516 14 21 L 16 21 C 16 19.281553 15.11184 17.744728 13.78125 16.84375 C 14.524739 16.116062 15 15.114227 15 14 C 15 11.802706 13.197294 10 11 10 z M 18 11 L 18 13 L 26 13 L 26 11 L 18 11 z M 11 12 C 12.116414 12 13 12.883586 13 14 C 13 15.116414 12.116414 16 11 16 C 9.883586 16 9 15.116414 9 14 C 9 12.883586 9.883586 12 11 12 z M 18 15 L 18 17 L 26 17 L 26 15 L 18 15 z M 18 19 L 18 21 L 23 21 L 23 19 L 18 19 z" overflow="visible" font-family="Sans" fill="#000000"/></svg>
