<?xml version="1.0" encoding="utf-8"?>
<svg xmlns="http://www.w3.org/2000/svg" viewBox="0 0 32 32" fill="#000000"><path style="text-indent:0;text-align:start;line-height:normal;text-transform:none;block-progression:tb;-inkscape-font-specification:Sans" d="M 10 4 C 8.3550302 4 7 5.3550302 7 7 L 7 8 L 7 10 L 7 12.1875 L 9 11.75 L 9 10 L 9 8 L 9 7 C 9 6.4349698 9.4349698 6 10 6 L 22 6 C 22.56503 6 23 6.4349698 23 7 L 23 10 L 23 11.75 L 25 12.1875 L 25 8 L 25 7 C 25 5.3550302 23.64497 4 22 4 L 10 4 z M 11.3125 9 L 11.0625 9.5625 L 9.3125 13.15625 L 5.75 14.03125 L 5 14.21875 L 5 15 L 5 24 L 5 25.28125 L 6.25 24.96875 L 9.46875 24.15625 L 11.0625 27.4375 L 11.3125 28 L 11.9375 28 L 20.0625 28 L 20.6875 28 L 20.9375 27.4375 L 22.53125 24.15625 L 25.75 24.96875 L 27 25.28125 L 27 24 L 27 15 L 27 14.21875 L 26.25 14.03125 L 22.6875 13.15625 L 20.9375 9.5625 L 20.6875 9 L 20.0625 9 L 11.9375 9 L 11.3125 9 z M 12.5625 11 L 19.4375 11 L 21.09375 14.4375 L 21.3125 14.84375 L 21.75 14.96875 L 25 15.78125 L 25 22.71875 L 22.25 22.03125 L 21.46875 21.84375 L 21.09375 22.5625 L 19.4375 26 L 12.5625 26 L 10.90625 22.5625 L 10.53125 21.84375 L 9.75 22.03125 L 7 22.71875 L 7 15.78125 L 10.25 14.96875 L 10.6875 14.84375 L 10.90625 14.4375 L 12.5625 11 z M 16 14 C 13.318086 14 11 15.949307 11 18.5 C 11 21.050693 13.318086 23 16 23 C 18.715715 23 21 20.925693 21 18.375 C 21 15.824307 18.648113 14 16 14 z M 16 16 C 17.769887 16 19 17.059693 19 18.375 C 19 19.690307 17.702285 21 16 21 C 14.263914 21 13 19.815307 13 18.5 C 13 17.184693 14.263914 16 16 16 z" overflow="visible" font-family="Sans" fill="#000000"/></svg>
