<?xml version="1.0" encoding="utf-8"?>
<svg xmlns="http://www.w3.org/2000/svg" viewBox="0 0 32 32" fill="#000000"><path style="text-indent:0;text-align:start;line-height:normal;text-transform:none;block-progression:tb;-inkscape-font-specification:Bitstream Vera Sans" d="M 4 5 L 4 6 L 4 26 L 4 27 L 5 27 L 27 27 L 28 27 L 28 26 L 28 6 L 28 5 L 27 5 L 5 5 L 4 5 z M 6 7 L 26 7 L 26 9 L 6 9 L 6 7 z M 6 11 L 26 11 L 26 25 L 6 25 L 6 11 z M 9 13 L 9 15 L 15 15 L 15 13 L 9 13 z M 13 16 L 13 18 L 19 18 L 19 16 L 13 16 z M 18 19 L 18 21 L 24 21 L 24 19 L 18 19 z M 9 21 L 9 23 L 15 23 L 15 21 L 9 21 z" fill="#000000"/></svg>
