<?xml version="1.0" encoding="utf-8"?>
<svg xmlns="http://www.w3.org/2000/svg" viewBox="0 0 32 32" fill="#000000"><path style="text-indent:0;text-align:start;line-height:normal;text-transform:none;block-progression:tb;-inkscape-font-specification:Bitstream Vera Sans" d="M 12 6 C 8.6981362 6 6 8.6981362 6 12 C 6 13.943782 6.9321694 15.683216 8.375 16.78125 C 5.2154025 18.180341 3 21.331085 3 25 L 5 25 C 5 21.122516 8.1225161 18 12 18 C 14.62534 18 16.894233 19.43571 18.09375 21.5625 C 17.406587 22.538244 17 23.721932 17 25 L 19 25 C 19 22.779625 20.779625 21 23 21 C 25.220375 21 27 22.779625 27 25 L 29 25 C 29 22.745203 27.724706 20.774742 25.875 19.75 C 26.564489 19.030234 27 18.067486 27 17 C 27 14.802706 25.197294 13 23 13 C 20.802706 13 19 14.802706 19 17 C 19 18.067486 19.435511 19.030234 20.125 19.75 C 19.922584 19.862139 19.718632 19.991014 19.53125 20.125 C 18.583072 18.658927 17.234556 17.496131 15.625 16.78125 C 17.067831 15.683216 18 13.943782 18 12 C 18 8.6981362 15.301864 6 12 6 z M 12 8 C 14.220984 8 16 9.7790164 16 12 C 16 14.220984 14.220984 16 12 16 C 9.7790164 16 8 14.220984 8 12 C 8 9.7790164 9.7790164 8 12 8 z M 23 15 C 24.116414 15 25 15.883586 25 17 C 25 18.116414 24.116414 19 23 19 C 21.883586 19 21 18.116414 21 17 C 21 15.883586 21.883586 15 23 15 z" overflow="visible" font-family="Bitstream Vera Sans" fill="#000000"/></svg>
