<?xml version="1.0" encoding="utf-8"?>
<svg xmlns="http://www.w3.org/2000/svg" viewBox="0 0 32 32" fill="#000000"><path d="M 21.5 13 C 19.702 13.071 4.443 13.66775 0 13.84375 C 2.08 14.51375 5.223 15.30325 8.75 15.65625 C 12.276 16.00925 17.842 15.94125 22.25 15.90625 C 26.657 15.87125 28.37275 15.7815 30.21875 16.0625 C 30.89375 16.1655 31.509 16.585 32 17.25 C 31.754 16.297 30.86975 14.8585 30.09375 14.1875 C 29.31775 13.5175 28.276 13.3995 27.5 13.1875 C 26.724 12.9765 23.298 12.929 21.5 13 z M 27.78125 17.1875 C 27.44525 17.3545 27.12725 17.50275 26.90625 17.59375 C 26.06525 17.93975 23.36025 18.8785 20.90625 19.6875 C 22.45225 20.0915 24.3335 20.57425 26.6875 21.03125 C 28.0075 20.53225 30.27875 19.555 31.34375 18.625 L 30.9375 18.03125 C 30.6525 17.64225 30.32925 17.42 30.03125 17.375 C 29.33725 17.269 28.64325 17.2025 27.78125 17.1875 z" fill="#000000"/></svg>
