<?xml version="1.0" encoding="utf-8"?>
<svg xmlns="http://www.w3.org/2000/svg" viewBox="0 0 32 32" fill="#000000"><path d="M 15.875 4 L 15.78125 4.03125 L 4.78125 6.46875 L 4 6.65625 L 4 7.4375 L 4 24.5625 L 4 25.34375 L 4.78125 25.53125 L 15.78125 27.96875 L 15.875 28 L 16 28 L 17 28 L 18 28 L 18 27 L 18 19 L 20.28125 19 C 20.56525 18.204 21.07075 17.518 21.71875 17 L 18 17 L 18 12.09375 L 20.40625 13.8125 L 21.0625 14.25 L 21.65625 13.78125 L 26 10.15625 L 26 16.28125 C 26.796 16.56525 27.482 17.07075 28 17.71875 L 28 7 L 18 7 L 18 5 L 18 4 L 17 4 L 16 4 L 15.875 4 z M 16 6.03125 L 16 25.96875 L 6 23.78125 L 6 8.21875 L 16 6.03125 z M 18 9 L 24.25 9 L 20.96875 11.71875 L 18 9.625 L 18 9 z M 10.59375 11 C 9.51375 11 8.62375 11.46325 7.96875 12.40625 C 7.31375 13.35025 7 14.596 7 16.125 C 7 17.572 7.32575 18.75525 7.96875 19.65625 C 8.61275 20.55825 9.44675 21 10.46875 21 C 11.51775 21 12.37725 20.52375 13.03125 19.59375 C 13.68325 18.66275 14 17.4575 14 15.9375 C 14 14.4585 13.6905 13.24775 13.0625 12.34375 C 12.4335 11.44075 11.61275 11 10.59375 11 z M 10.53125 13 C 10.98625 13 11.33275 13.2755 11.59375 13.8125 C 11.85675 14.3485 12 15.0995 12 16.0625 C 12 16.9875 11.86475 17.69875 11.59375 18.21875 C 11.32375 18.73975 10.96 19 10.5 19 C 10.053 19 9.68225 18.7225 9.40625 18.1875 C 9.13025 17.6505 9 16.92 9 16 C 9 15.093 9.13025 14.3635 9.40625 13.8125 C 9.68225 13.2625 10.06225 13 10.53125 13 z M 24.5 17 C 22.57 17 21 18.57 21 20.5 C 21 22.43 22.57 24 24.5 24 C 26.43 24 28 22.43 28 20.5 C 28 18.57 26.43 17 24.5 17 z M 24 18 L 25 18 L 25 20 L 27 20 L 27 21 L 25 21 L 24 21 L 24 20 L 24 18 z" fill="#000000"/></svg>
