<?xml version="1.0" encoding="utf-8"?>
<svg xmlns="http://www.w3.org/2000/svg" viewBox="0 0 32 32" fill="#000000"><path style="line-height:normal;text-indent:0;text-align:start;text-decoration-line:none;text-decoration-style:solid;text-decoration-color:#000;text-transform:none;block-progression:tb;isolation:auto;mix-blend-mode:normal" d="M 16 3 C 8.8324839 3 3 8.8324839 3 16 C 3 23.167516 8.8324839 29 16 29 C 23.167516 29 29 23.167516 29 16 C 29 11.981373 27.16762 8.3864478 24.294922 6 L 28 6 L 28 4 L 20 4 L 20 12 L 22 12 L 22 6.7851562 C 25.006886 8.7471725 27 12.133176 27 16 C 27 22.086484 22.086484 27 16 27 C 9.9135161 27 5 22.086484 5 16 C 5 9.9135161 9.9135161 5 16 5 L 16 3 z" font-weight="400" font-family="sans-serif" white-space="normal" overflow="visible" fill="#000000"/></svg>
