<?xml version="1.0" encoding="utf-8"?>
<svg xmlns="http://www.w3.org/2000/svg" viewBox="0 0 32 32" fill="#000000"><path d="M 16 4 C 15.171573 4 14.5 4.6715729 14.5 5.5 C 14.5 5.7692388 14.5633 6.031566 14.6875 6.25 L 12.53125 10 L 8.1875 10 C 7.9277316 9.553253 7.4602606 9.25 6.90625 9.25 C 6.0778228 9.25 5.40625 9.9215729 5.40625 10.75 C 5.40625 11.578427 6.0778228 12.25 6.90625 12.25 L 9.09375 16 L 6.90625 19.75 C 6.0778228 19.75 5.40625 20.421573 5.40625 21.25 C 5.40625 22.078427 6.0778228 22.75 6.90625 22.75 C 7.4602606 22.75 7.9277316 22.446747 8.1875 22 L 12.53125 22 L 14.6875 25.75 C 14.5633 25.968434 14.5 26.230761 14.5 26.5 C 14.5 27.328427 15.171573 28 16 28 C 16.828427 28 17.5 27.328427 17.5 26.5 C 17.5 26.230761 17.4367 25.968434 17.3125 25.75 L 19.46875 22 L 23.8125 22 C 24.072268 22.446747 24.539739 22.75 25.09375 22.75 C 25.922178 22.75 26.59375 22.078427 26.59375 21.25 C 26.59375 20.421573 25.922178 19.75 25.09375 19.75 L 22.90625 16 L 25.09375 12.25 C 25.922178 12.25 26.59375 11.578427 26.59375 10.75 C 26.59375 9.9215729 25.922178 9.25 25.09375 9.25 C 24.539739 9.25 24.072268 9.553253 23.8125 10 L 19.46875 10 L 17.3125 6.25 C 17.4367 6.031566 17.5 5.7692388 17.5 5.5 C 17.5 4.6715729 16.828427 4 16 4 z M 16 8 L 18.03125 11.5 L 18.3125 12 L 18.875 12 L 22.90625 12 L 20.90625 15.5 L 20.625 16 L 20.90625 16.5 L 22.90625 20 L 18.875 20 L 18.3125 20 L 18.03125 20.5 L 16 24 L 13.96875 20.5 L 13.6875 20 L 13.125 20 L 9.09375 20 L 11.09375 16.5 L 11.375 16 L 11.09375 15.5 L 9.09375 12 L 13.125 12 L 13.6875 12 L 13.96875 11.5 L 16 8 z M 16 12 C 13.79619 12 12 13.79619 12 16 C 12 18.20381 13.79619 20 16 20 C 18.20381 20 20 18.20381 20 16 C 20 13.79619 18.20381 12 16 12 z M 16 14 C 17.15619 14 18 14.84381 18 16 C 18 17.15619 17.15619 18 16 18 C 14.84381 18 14 17.15619 14 16 C 14 14.84381 14.84381 14 16 14 z" fill="#000000"/></svg>
