<?xml version="1.0" encoding="utf-8"?>
<svg xmlns="http://www.w3.org/2000/svg" viewBox="0 0 32 32" fill="#000000"><path style="text-indent:0;text-align:start;line-height:normal;text-transform:none;block-progression:tb;-inkscape-font-specification:Bitstream Vera Sans" d="M 5 5 L 5 6 L 5 26 L 5 27 L 6 27 L 26 27 L 27 27 L 27 26 L 27 6 L 27 5 L 26 5 L 6 5 L 5 5 z M 7 7 L 25 7 L 25 25 L 7 25 L 7 7 z M 16 11 C 14.35503 11 13 12.35503 13 14 L 13 18 C 13 19.64497 14.35503 21 16 21 C 17.64497 21 19 19.64497 19 18 L 17 18 C 17 18.56503 16.56503 19 16 19 C 15.43497 19 15 18.56503 15 18 L 15 14 C 15 13.43497 15.43497 13 16 13 C 16.56503 13 17 13.43497 17 14 L 19 14 C 19 12.35503 17.64497 11 16 11 z" overflow="visible" font-family="Bitstream Vera Sans" fill="#000000"/></svg>
