<?xml version="1.0" encoding="utf-8"?>
<svg xmlns="http://www.w3.org/2000/svg" viewBox="0 0 32 32" fill="#000000"><path style="text-indent:0;text-align:start;line-height:normal;text-transform:none;block-progression:tb;-inkscape-font-specification:Bitstream Vera Sans" d="M 14.40625 4 L 12.25 5.65625 L 14.28125 8.1875 C 9.5906624 9.0098969 6 13.078663 6 18 C 6 23.511003 10.488997 28 16 28 C 21.511003 28 26 23.511003 26 18 C 26 13.078663 22.409338 9.0098969 17.71875 8.1875 L 19.75 5.65625 L 17.59375 4 L 14.40625 4 z M 16 10 C 20.430123 10 24 13.569877 24 18 C 24 22.430123 20.430123 26 16 26 C 11.569877 26 8 22.430123 8 18 C 8 13.569877 11.569877 10 16 10 z" overflow="visible" font-family="Bitstream Vera Sans" fill="#000000"/></svg>
