<?xml version="1.0" encoding="utf-8"?>
<svg xmlns="http://www.w3.org/2000/svg" viewBox="0 0 32 32" fill="#000000"><path style="text-indent:0;text-align:start;line-height:normal;text-transform:none;block-progression:tb;-inkscape-font-specification:Sans" d="M 7 3 L 7 4 L 7 22 L 7 24.75 L 9 22.75 L 9 22 L 9 5 L 23 5 L 23 27 L 14 27 L 13.25 27 L 11.25 29 L 14 29 L 24 29 L 25 29 L 25 28 L 25 4 L 25 3 L 24 3 L 8 3 L 7 3 z M 12 17 L 12 19 L 15.5625 19 L 6.3125 28.25 L 7.75 29.6875 L 17 20.4375 L 17 24 L 19 24 L 19 18 L 19 17 L 18 17 L 12 17 z" overflow="visible" font-family="Sans" fill="#000000"/></svg>
