<?xml version="1.0" encoding="utf-8"?>
<svg xmlns="http://www.w3.org/2000/svg" viewBox="0 0 32 32" fill="#000000"><path style="text-indent:0;text-align:start;line-height:normal;text-transform:none;block-progression:tb;-inkscape-font-specification:Bitstream Vera Sans" d="M 4 4 L 4 6 L 11 6 C 11.554545 6 12 6.4454545 12 7 L 12 14 C 10.895431 14 10 14.895431 10 16 C 10 17.104569 10.895431 18 12 18 L 12 25 C 12 25.554545 11.554545 26 11 26 L 4 26 L 4 28 L 11 28 C 12.645455 28 14 26.645455 14 25 L 14 7 C 14 5.3545455 12.645455 4 11 4 L 4 4 z M 16 4 L 16 6 C 21.564481 6 26 10.435519 26 16 C 26 21.564481 21.564481 26 16 26 L 16 28 C 22.635519 28 28 22.635519 28 16 C 28 9.3644809 22.635519 4 16 4 z M 16 8 L 16 10 C 19.370085 10 22 12.629915 22 16 C 22 19.370085 19.370085 22 16 22 L 16 24 C 20.429915 24 24 20.429915 24 16 C 24 11.570085 20.429915 8 16 8 z M 16 12 L 16 14 C 17.190196 14 18 14.809804 18 16 C 18 17.190196 17.190196 18 16 18 L 16 20 C 18.209804 20 20 18.209804 20 16 C 20 13.790196 18.209804 12 16 12 z" overflow="visible" font-family="Bitstream Vera Sans" fill="#000000"/></svg>
