<?xml version="1.0" encoding="utf-8"?>
<svg xmlns="http://www.w3.org/2000/svg" viewBox="0 0 32 32" fill="#000000"><path d="M 0 11 L 0 21 L 10 21 L 10 11 L 0 11 z M 11 11 L 11 21 L 21 21 L 21 11 L 11 11 z M 22 11 L 22 21 L 32 21 L 32 11 L 22 11 z M 27.25 13.28125 C 27.444344 13.274594 27.6855 13.2885 27.9375 13.3125 C 27.9375 13.3125 28.53525 13.35575 29.40625 13.71875 L 29.40625 14.71875 C 29.40625 14.71875 28.437 14.10575 27.375 14.09375 C 27.375 14.09375 25.4015 14.063 25.3125 16 C 25.3125 16 25.22575 17.774 27.34375 17.875 C 27.34375 17.875 28.2335 17.98775 29.4375 17.21875 L 29.4375 18.25 C 29.4375 18.25 27.84175 19.20775 25.96875 18.46875 C 25.96875 18.46875 24.3715 17.887 24.3125 16 C 24.3125 16 24.24375 14.05025 26.34375 13.40625 C 26.34375 13.40625 26.666969 13.301219 27.25 13.28125 z M 3.0625 13.34375 L 4.9375 13.34375 C 6.6205 13.49875 6.5 14.75 6.5 14.75 C 6.506 15.525 5.84375 15.84375 5.84375 15.84375 C 7.04875 16.14875 7 17.15625 7 17.15625 C 7 18.66525 5.21875 18.65625 5.21875 18.65625 L 3.0625 18.65625 L 3.0625 13.34375 z M 14.0625 13.34375 L 15.9375 13.34375 C 17.6205 13.49875 17.5 14.75 17.5 14.75 C 17.506 15.525 16.84375 15.84375 16.84375 15.84375 C 18.04875 16.14875 18 17.15625 18 17.15625 C 18 18.66525 16.21875 18.65625 16.21875 18.65625 L 14.0625 18.65625 L 14.0625 13.34375 z M 4 14.15625 L 4 15.53125 L 4.65625 15.53125 C 4.65625 15.53025 5.53125 15.5455 5.53125 14.8125 C 5.53125 14.8125 5.543 14.19825 4.75 14.15625 L 4 14.15625 z M 15 14.15625 L 15 15.53125 L 15.65625 15.53125 C 15.65625 15.53025 16.53125 15.5455 16.53125 14.8125 C 16.53125 14.8125 16.57425 14.19825 15.78125 14.15625 L 15 14.15625 z M 4 16.375 L 4 17.84375 L 5 17.84375 C 5 17.84375 6 17.89875 6 17.09375 C 6 17.09375 6.032 16.369 5 16.375 L 4 16.375 z M 15 16.375 L 15 17.84375 L 16.03125 17.84375 C 16.03125 17.84375 17.03125 17.89875 17.03125 17.09375 C 17.03125 17.09375 17.06325 16.369 16.03125 16.375 L 15 16.375 z" fill="#000000"/></svg>
