<?xml version="1.0" encoding="utf-8"?>
<svg xmlns="http://www.w3.org/2000/svg" viewBox="0 0 32 32" fill="#000000"><path style="text-indent:0;text-align:start;line-height:normal;text-transform:none;block-progression:tb;-inkscape-font-specification:Sans" d="M 11.4375 6 L 11.15625 6.5 C 11.15625 6.5 8.2862901 11.278526 6.21875 16.28125 C 5.3018212 16.715944 3.048502 17.986289 2.0625 20.65625 L 1.875 21.15625 L 2.1875 21.59375 C 2.1875 21.59375 2.4750484 21.947861 2.96875 22.375 C 3.4624516 22.802139 4.209235 23.368495 5.28125 23.90625 C 7.4252801 24.98176 10.841356 26 16 26 C 21.158644 26 24.57472 24.98176 26.71875 23.90625 C 27.790765 23.368495 28.537548 22.802139 29.03125 22.375 C 29.524952 21.947861 29.8125 21.59375 29.8125 21.59375 L 30.125 21.15625 L 29.9375 20.65625 C 29.159194 18.548701 27.559193 17.279286 26.46875 16.625 C 27.339287 15.270722 28 13.429016 28 11 L 28 9.78125 L 26.8125 10.03125 C 26.8125 10.03125 25.286907 10.330056 23.84375 11.625 C 23.811916 11.653565 23.781778 11.689174 23.75 11.71875 C 22.296746 8.8464418 20.84375 6.46875 20.84375 6.46875 L 20.5625 6 L 20 6 L 19 6 L 18.625 6 L 18.3125 6.25 C 18.3125 6.25 17.793506 6.7502489 17.1875 7.21875 C 16.884497 7.4530005 16.571747 7.6605825 16.3125 7.8125 C 16.182876 7.8884587 16.07035 7.9408647 16 7.96875 C 15.92965 7.9408647 15.817123 7.8884587 15.6875 7.8125 C 15.428253 7.6605825 15.115503 7.4530005 14.8125 7.21875 C 14.206494 6.7502489 13.6875 6.25 13.6875 6.25 L 13.375 6 L 13 6 L 12 6 L 11.4375 6 z M 12.5625 8 L 12.625 8 C 12.81411 8.1697312 13.073538 8.3790761 13.59375 8.78125 C 13.937497 9.0469995 14.30681 9.3394175 14.6875 9.5625 C 15.06819 9.7855825 15.389949 10 16 10 C 16.610051 10 16.93181 9.7855825 17.3125 9.5625 C 17.69319 9.3394175 18.062503 9.0469995 18.40625 8.78125 C 18.926462 8.3790761 19.18589 8.1697312 19.375 8 C 19.3787 7.99668 19.40275 8.00314 19.40625 8 C 19.631051 8.3710396 21.009577 10.639026 22.375 13.4375 C 21.671781 14.623879 21.142826 16.203568 21.03125 18.21875 C 19.785304 18.652377 18.15915 19 16 19 C 12.896516 19 10.829472 18.303159 9.53125 17.625 C 8.5838988 17.130127 8.4493191 16.919989 8.25 16.71875 C 10.056883 12.439952 12.170085 8.6682403 12.5625 8 z M 25.65625 12.8125 C 25.294854 14.613306 24.623459 15.985347 23.8125 16.75 C 23.57171 16.977041 23.566911 16.872297 23.34375 17.03125 C 23.711533 15.172341 24.372007 13.797451 25.15625 13.09375 C 25.41735 12.859465 25.419407 12.9618 25.65625 12.8125 z M 6.84375 18.21875 C 7.2405361 18.550322 7.8254659 18.973668 8.59375 19.375 C 10.167028 20.196841 12.589484 21 16 21 C 17.996841 21 19.652707 20.705701 21 20.3125 L 21.28125 20.25 C 21.337703 20.23234 21.3822 20.205548 21.4375 20.1875 L 22.28125 19.96875 C 22.28125 19.96875 23.726622 19.539599 25.125 18.25 C 25.136054 18.239806 25.145202 18.229052 25.15625 18.21875 C 25.824717 18.608004 27.021442 19.434992 27.75 20.84375 C 27.72755 20.86365 27.7436 20.85345 27.71875 20.875 C 27.345577 21.197861 26.733985 21.631505 25.8125 22.09375 C 23.96953 23.01824 20.893356 24 16 24 C 11.106644 24 8.0304699 23.01824 6.1875 22.09375 C 5.266015 21.631505 4.6544234 21.197861 4.28125 20.875 C 4.2563718 20.853476 4.2724499 20.863654 4.25 20.84375 C 4.9785585 19.434992 6.1752829 18.608004 6.84375 18.21875 z" overflow="visible" font-family="Sans" fill="#000000"/></svg>
