<?xml version="1.0" encoding="utf-8"?>
<svg xmlns="http://www.w3.org/2000/svg" viewBox="0 0 32 32" fill="#000000"><path style="text-indent:0;text-align:start;line-height:normal;text-transform:none;block-progression:tb;-inkscape-font-specification:Sans" d="M 5 5 L 5 7 L 7 7 L 7 5 L 5 5 z M 9 5 L 9 6 L 9 14 L 9 15 L 10 15 L 22 15 L 23 15 L 23 14 L 23 6 L 23 5 L 22 5 L 10 5 L 9 5 z M 25 5 L 25 7 L 27 7 L 27 5 L 25 5 z M 11 7 L 21 7 L 21 13 L 11 13 L 11 7 z M 5 9 L 5 11 L 7 11 L 7 9 L 5 9 z M 25 9 L 25 11 L 27 11 L 27 9 L 25 9 z M 5 13 L 5 15 L 7 15 L 7 13 L 5 13 z M 25 13 L 25 15 L 27 15 L 27 13 L 25 13 z M 5 18 L 5 20 L 9 20 L 9 27 L 9 28 L 10 28 L 22 28 L 23 28 L 23 27 L 23 20 L 27 20 L 27 18 L 5 18 z M 11 20 L 12.84375 20 C 13.403792 21.186904 14.600567 22 16 22 C 17.399433 22 18.596208 21.186904 19.15625 20 L 21 20 L 21 24.1875 C 20.158101 24.489465 19.489465 25.158101 19.1875 26 L 12.8125 26 C 12.510535 25.158101 11.841899 24.489465 11 24.1875 L 11 20 z M 16 23 C 15.171573 23 14.5 23.447715 14.5 24 C 14.5 24.552285 15.171573 25 16 25 C 16.828427 25 17.5 24.552285 17.5 24 C 17.5 23.447715 16.828427 23 16 23 z" fill="#000000"/></svg>
