<?xml version="1.0" encoding="utf-8"?>
<svg xmlns="http://www.w3.org/2000/svg" viewBox="0 0 32 32" fill="#000000"><path style="text-indent:0;text-align:start;line-height:normal;text-transform:none;block-progression:tb;-inkscape-font-specification:Sans" d="M 22 3 C 20.378822 3 19.028579 4.0094856 18.40625 5.40625 C 17.940315 5.256985 17.519547 5 17 5 C 14.250484 5 12 7.2504839 12 10 C 12 10.838694 12.256046 11.590033 12.625 12.28125 C 11.100272 12.847079 10 14.286502 10 16 C 10 16.798459 10.266989 17.55794 10.6875 18.25 C 9.7079852 19.03389 9 20.147688 9 21.5 C 9 22.915886 9.8736312 24.138468 11.09375 24.6875 C 9.1386222 26.097182 6.8049293 27 4 27 L 4 29 C 7.9010793 29 11.025832 27.468508 13.5 25.28125 C 14.112358 26.30369 15.232844 27 16.5 27 C 18.421188 27 20 25.421188 20 23.5 C 20 23.331589 19.92099 23.144546 19.90625 22.96875 C 19.940883 22.969707 19.965094 23 20 23 C 22.197334 23 24 21.197334 24 19 C 24 18.589208 23.866587 18.218296 23.75 17.84375 C 26.131479 17.465228 28 15.483506 28 13 C 28 11.175696 26.999214 9.6187217 25.53125 8.75 C 25.800418 8.213496 26 7.638552 26 7 C 26 4.8026661 24.197334 3 22 3 z M 22 5 C 23.116666 5 24 5.8833339 24 7 C 24 7.5710923 23.760107 8.0692538 23.375 8.4375 L 23.8125 10.125 C 25.080775 10.479305 26 11.615707 26 13 C 26 14.668484 24.668484 16 23 16 C 22.787333 16 22.562506 15.98567 22.34375 15.9375 L 21.4375 17.59375 C 21.793265 17.956899 22 18.451462 22 19 C 22 20.116666 21.116666 21 20 21 C 19.697376 21 19.403062 20.91677 19.125 20.78125 L 17.75 22 C 17.915107 22.487229 18 23.076088 18 23.5 C 18 24.340812 17.340812 25 16.5 25 C 15.743477 25 15.145847 24.46944 15.03125 23.75 C 16.367378 22.263889 17.485126 20.604943 18.375 18.96875 C 21.044622 14.06017 21.96875 9.1875 21.96875 9.1875 L 20.03125 8.8125 C 20.03125 8.8125 19.122128 13.43983 16.625 18.03125 C 15.716309 19.702042 14.610424 21.33652 13.28125 22.75 C 13.046018 22.898602 12.788273 23 12.5 23 C 11.659188 23 11 22.340812 11 21.5 C 11 20.569606 11.785831 19.527331 12.28125 19.375 L 12.65625 17.65625 C 12.298988 17.355713 12 16.673813 12 16 C 12 14.883334 12.883334 14 14 14 C 14.0444 14 14.13016 14.0089 14.28125 14.03125 L 15.0625 12.28125 C 14.402088 11.722791 14 10.919312 14 10 C 14 8.3315161 15.331516 7 17 7 C 17.555333 7 18.068615 7.1606899 18.53125 7.4375 L 20.03125 6.71875 C 20.169244 5.7440829 20.98315 5 22 5 z" overflow="visible" font-family="Sans" fill="#000000"/></svg>
