<?xml version="1.0" encoding="utf-8"?>
<svg xmlns="http://www.w3.org/2000/svg" viewBox="-7 9 32 32" fill="#000000"><path style="text-indent:0;text-align:start;line-height:normal;text-transform:none;block-progression:tb;-inkscape-font-specification:Sans" d="M 2 7 C 2 14.304694 5.8509154 17.691368 7.09375 18.59375 C 7.0214823 19.052675 7 19.521253 7 20 L 7 21 L 7 22 L 7 26 L 7 27 L 8 27 L 24 27 L 25 27 L 25 26 L 25 22 L 25 21 L 25 20 C 25 19.532237 24.975423 19.073938 24.90625 18.625 C 26.151884 17.738761 30 14.38177 30 7 L 28 7 C 28 10.651586 24.00412 12.944251 22.40625 13.71875 C 21.454005 12.746556 20.309391 11.962883 19 11.5 L 19 10 L 19 9 L 18 9 L 14 9 L 13 9 L 13 10 L 13 11.5 C 11.689991 11.962203 10.545878 12.746696 9.59375 13.71875 C 7.9955934 12.947981 4 10.665384 4 7 L 2 7 z M 15 11 L 17 11 L 17 19 L 19 19 L 19 13.6875 C 21.358484 14.811652 23 17.203399 23 20 L 23 21 L 9 21 L 9 20 C 9 17.201938 10.640831 14.810588 13 13.6875 L 13 19 L 15 19 L 15 11 z M 5.34375 13.3125 C 6.4215567 14.227135 7.5131414 14.879675 8.34375 15.3125 C 8.1162263 15.68463 7.8911989 16.063824 7.71875 16.46875 C 7.0612362 15.885871 6.1250863 14.914603 5.34375 13.3125 z M 26.6875 13.3125 C 25.899776 14.95033 24.975263 15.921679 24.3125 16.5 C 24.136491 16.081782 23.890851 15.696021 23.65625 15.3125 C 24.49437 14.87554 25.603047 14.237813 26.6875 13.3125 z M 9 23 L 23 23 L 23 25 L 9 25 L 9 23 z" transform="translate(-7 9)" overflow="visible" font-family="Sans" fill="#000000"/></svg>
