<?xml version="1.0" encoding="utf-8"?>
<svg xmlns="http://www.w3.org/2000/svg" viewBox="0 0 32 32" fill="#000000"><path style="text-indent:0;text-align:start;line-height:normal;text-transform:none;block-progression:tb;-inkscape-font-specification:Bitstream Vera Sans" d="M 0 7 L 0 8 L 0 24 L 0 25 L 1 25 L 31 25 L 32 25 L 32 24 L 32 8 L 32 7 L 31 7 L 1 7 L 0 7 z M 2 9 L 30 9 L 30 23 L 2 23 L 2 9 z M 5 12 L 5 13 L 5 13.15625 L 5.03125 13.3125 L 6.9375 19.3125 L 7.15625 20 L 7.90625 20 L 8.09375 20 L 8.84375 20 L 9.0625 19.28125 L 9.5 17.78125 L 9.9375 19.28125 L 10.15625 20 L 10.90625 20 L 11.09375 20 L 11.84375 20 L 12.0625 19.3125 L 13.96875 13.3125 L 14 13.15625 L 14 13 L 14 12 L 12 12 L 12 12.78125 L 11.03125 15.84375 L 10.5625 14.21875 L 10.34375 13.5 L 9.59375 13.5 L 9.40625 13.5 L 8.65625 13.5 L 8.4375 14.21875 L 7.96875 15.84375 L 7 12.78125 L 7 12 L 5 12 z M 17.5 12 C 16.116667 12 15 13.116667 15 14.5 C 15 15.883333 16.116667 17 17.5 17 C 17.716667 17 18 17.283333 18 17.5 C 18 17.8 17.881481 18 17.5 18 C 17.131818 18 17.075546 17.91998 17.0625 17.90625 C 17.049454 17.892518 17 17.827083 17 17.59375 L 15 17.59375 C 15 18.160417 15.163046 18.794982 15.625 19.28125 C 16.086954 19.767518 16.768182 20 17.5 20 C 18.918519 20 20 18.8 20 17.5 C 20 16.116667 18.883333 15 17.5 15 C 17.283333 15 17 14.716667 17 14.5 C 17 14.283333 17.283333 14 17.5 14 C 17.766667 14 17.847593 14.06341 17.90625 14.125 C 17.964907 14.18659 18 14.294345 18 14.40625 L 20 14.40625 C 20 13.818155 19.785093 13.21341 19.34375 12.75 C 18.902407 12.28659 18.233333 12 17.5 12 z M 21 12 L 21 20 L 23 20 L 23 17 L 24 17 L 24 20 L 26 20 L 26 12 L 24 12 L 24 15 L 23 15 L 23 12 L 21 12 z" fill="#000000"/></svg>
