<?xml version="1.0" encoding="utf-8"?>
<svg xmlns="http://www.w3.org/2000/svg" viewBox="0 0 32 32" fill="#000000"><path style="text-indent:0;text-align:start;line-height:normal;text-transform:none;block-progression:tb;-inkscape-font-specification:Sans" d="M 15.59375 4 L 15.28125 4.28125 L 10.34375 9.25 L 9.25 10.34375 L 4.28125 15.28125 L 4 15.59375 L 4 16 L 4 25 L 4 25.90625 L 4.90625 26 L 26.90625 28 L 28.09375 28.09375 L 28 26.90625 L 26 4.90625 L 25.90625 4 L 25 4 L 16 4 L 15.59375 4 z M 17.625 6 L 22.5625 6 L 19.28125 9.28125 L 17.625 6 z M 15.71875 6.71875 L 17.3125 9.84375 L 12.96875 9.46875 L 15.71875 6.71875 z M 24.21875 7.21875 L 25.5 21.75 L 20.21875 11.21875 L 24.21875 7.21875 z M 11.34375 11.34375 L 16.75 11.8125 L 11.8125 16.75 L 11.34375 11.34375 z M 18.71875 12.71875 L 24.75 24.75 L 12.71875 18.71875 L 18.71875 12.71875 z M 9.46875 12.96875 L 9.84375 17.3125 L 6.71875 15.71875 L 9.46875 12.96875 z M 6 17.625 L 9.28125 19.28125 L 6 22.5625 L 6 17.625 z M 11.21875 20.21875 L 21.78125 25.5 L 7.21875 24.21875 L 11.21875 20.21875 z" overflow="visible" font-family="Sans" fill="#000000"/></svg>
