<?xml version="1.0" encoding="utf-8"?>
<svg xmlns="http://www.w3.org/2000/svg" viewBox="0 0 32 32" fill="#000000"><path style="text-indent:0;text-align:start;line-height:normal;text-transform:none;block-progression:tb;-inkscape-font-specification:Sans" d="M 5 5 L 5 6 L 5 26 L 5 27 L 6 27 L 18 27 L 19 27 L 19 26 L 19 23 L 26 23 L 27 23 L 27 22 L 27 6 L 27 5 L 26 5 L 6 5 L 5 5 z M 7 7 L 9 7 L 9 9 L 7 9 L 7 7 z M 11 7 L 13 7 L 13 9 L 11 9 L 11 7 z M 15 7 L 17 7 L 17 9 L 15 9 L 15 7 z M 19 7 L 21 7 L 21 9 L 19 9 L 19 7 z M 23 7 L 25 7 L 25 9 L 23 9 L 23 7 z M 7 11 L 9 11 L 9 13 L 7 13 L 7 11 z M 11 11 L 13 11 L 13 13 L 11 13 L 11 11 z M 15 11 L 17 11 L 17 13 L 15 13 L 15 11 z M 19 11 L 21 11 L 21 13 L 19 13 L 19 11 z M 23 11 L 25 11 L 25 13 L 23 13 L 23 11 z M 7 15 L 9 15 L 9 17 L 7 17 L 7 15 z M 11 15 L 13 15 L 13 17 L 11 17 L 11 15 z M 15 15 L 17 15 L 17 17 L 15 17 L 15 15 z M 19 15 L 21 15 L 21 17 L 19 17 L 19 15 z M 23 15 L 25 15 L 25 17 L 23 17 L 23 15 z M 7 19 L 9 19 L 9 21 L 7 21 L 7 19 z M 11 19 L 13 19 L 13 21 L 11 21 L 11 19 z M 15 19 L 17 19 L 17 21 L 15 21 L 15 19 z M 19 19 L 21 19 L 21 21 L 19 21 L 19 19 z M 23 19 L 25 19 L 25 21 L 23 21 L 23 19 z M 7 23 L 9 23 L 9 25 L 7 25 L 7 23 z M 11 23 L 13 23 L 13 25 L 11 25 L 11 23 z M 15 23 L 17 23 L 17 25 L 15 25 L 15 23 z" fill="#000000"/></svg>
