<?xml version="1.0" encoding="utf-8"?>
<svg xmlns="http://www.w3.org/2000/svg" viewBox="0 0 32 32" fill="#000000"><path style="text-indent:0;text-align:start;line-height:normal;text-transform:none;block-progression:tb;-inkscape-font-specification:Sans" d="M 4 4 L 4 5 L 4 20 L 4 21 L 4 23.71875 L 6 21.71875 L 6 21 L 6 20 L 6 12 L 26 12 L 26 26 L 12 26 L 11 26 L 10.21875 26 L 8.21875 28 L 11 28 L 12 28 L 27 28 L 28 28 L 28 27 L 28 5 L 28 4 L 27 4 L 5 4 L 4 4 z M 6 6 L 26 6 L 26 10 L 6 10 L 6 6 z M 7 7 L 7 9 L 9 9 L 9 7 L 7 7 z M 10 7 L 10 9 L 12 9 L 12 7 L 10 7 z M 13 7 L 13 9 L 15 9 L 15 7 L 13 7 z M 7.96875 17 L 7.96875 19 L 11.53125 19 L 2.28125 28.25 L 3.71875 29.6875 L 12.96875 20.4375 L 12.96875 24 L 14.96875 24 L 14.96875 18 L 14.96875 17 L 13.96875 17 L 7.96875 17 z" fill="#000000"/></svg>
