<?xml version="1.0" encoding="utf-8"?>
<svg xmlns="http://www.w3.org/2000/svg" viewBox="0 0 32 32" fill="#000000"><path style="text-indent:0;text-align:start;line-height:normal;text-transform:none;block-progression:tb;-inkscape-font-specification:Sans" d="M 5.0625 6 L 4.8125 6.65625 L 1.3125 16 L 0 16 L 0 18 L 1 18 L 1 20 C 1 23.295455 3.7045455 26 7 26 L 9 26 C 12.295455 26 15 23.295455 15 20 L 15 18 L 15 17 C 15 16.43497 15.43497 16 16 16 C 16.56503 16 17 16.43497 17 17 L 17 18 L 17 20 C 17 23.295455 19.704545 26 23 26 L 25 26 C 28.295455 26 31 23.295455 31 20 L 31 18 L 32 18 L 32 16 L 30.6875 16 L 27.1875 6.65625 L 26.9375 6 L 26.25 6 L 25.46875 6 L 25 6 L 24.71875 6.375 L 22.21875 9.375 L 23.78125 10.625 L 25.6875 8.3125 L 28.5625 16 L 18.8125 16 C 18.394273 14.844264 17.291987 14 16 14 C 14.708013 14 13.605727 14.844264 13.1875 16 L 3.4375 16 L 6.3125 8.3125 L 8.21875 10.625 L 9.78125 9.375 L 7.28125 6.375 L 7 6 L 6.53125 6 L 5.75 6 L 5.0625 6 z M 3 18 L 13 18 L 13 20 C 13 22.204545 11.204545 24 9 24 L 7 24 C 4.7954545 24 3 22.204545 3 20 L 3 18 z M 19 18 L 29 18 L 29 20 C 29 22.204545 27.204545 24 25 24 L 23 24 C 20.795455 24 19 22.204545 19 20 L 19 18 z" overflow="visible" font-family="Sans" fill="#000000"/></svg>
