<?xml version="1.0" encoding="utf-8"?>
<svg xmlns="http://www.w3.org/2000/svg" viewBox="0 0 32 32" fill="#000000"><path style="text-indent:0;text-align:start;line-height:normal;text-transform:none;block-progression:tb;-inkscape-font-specification:Sans" d="M 11 6 C 9.236 6 7.554 6.3365 6 6.9375 L 6 9.125 C 7.523 8.419 9.213 8 11 8 C 12.595 8 14.157 8.3265 15.625 8.9375 L 16 9.09375 L 16.375 8.9375 C 17.843 8.3265 19.405 8 21 8 C 22.787 8 24.477 8.419 26 9.125 L 26 6.9375 C 24.446 6.3365 22.764 6 21 6 C 19.278 6 17.599 6.3255 16 6.9375 C 14.401 6.3255 12.722 6 11 6 z M 11 10 C 8.276 10 5.805 11.102 4 12.875 L 4 16.125 C 5.365 13.662 7.99 12 11 12 C 12.589 12 14.1195 12.46075 15.4375 13.34375 L 16 13.71875 L 16.5625 13.34375 C 17.8805 12.46175 19.411 12 21 12 C 24.01 12 26.635 13.662 28 16.125 L 28 12.875 C 26.195 11.102 23.724 10 21 10 C 19.233 10 17.518 10.46475 16 11.34375 C 14.482 10.46475 12.767 10 11 10 z M 11 14 C 7.6981362 14 5 16.698136 5 20 C 5 23.301864 7.6981362 26 11 26 C 13.088012 26 14.924488 24.909557 16 23.28125 C 17.075512 24.909557 18.911988 26 21 26 C 24.301864 26 27 23.301864 27 20 C 27 16.698136 24.301864 14 21 14 C 18.911988 14 17.075512 15.090443 16 16.71875 C 14.924488 15.090443 13.088012 14 11 14 z M 11 16 C 13.220984 16 15 17.779016 15 20 C 15 22.220984 13.220984 24 11 24 C 8.7790164 24 7 22.220984 7 20 C 7 17.779016 8.7790164 16 11 16 z M 21 16 C 23.220984 16 25 17.779016 25 20 C 25 22.220984 23.220984 24 21 24 C 18.779016 24 17 22.220984 17 20 C 17 17.779016 18.779016 16 21 16 z" overflow="visible" font-family="Sans" fill="#000000"/></svg>
