<?xml version="1.0" encoding="utf-8"?>
<svg xmlns="http://www.w3.org/2000/svg" viewBox="0 0 32 32" fill="#000000"><path style="text-indent:0;text-align:start;line-height:normal;text-transform:none;block-progression:tb;-inkscape-font-specification:Sans" d="M 16 5 L 12 9 L 15 9 L 15 13.09375 C 12.165217 13.568566 10 16.035015 10 19 C 10 22.301864 12.698136 25 16 25 C 19.301864 25 22 22.301864 22 19 C 22 16.035015 19.834783 13.568566 17 13.09375 L 17 9 L 20 9 L 16 5 z M 16 15 C 18.220984 15 20 16.779016 20 19 C 20 21.220984 18.220984 23 16 23 C 13.779016 23 12 21.220984 12 19 C 12 16.779016 13.779016 15 16 15 z" overflow="visible" font-family="Sans" fill="#000000"/></svg>
