<?xml version="1.0" encoding="utf-8"?>
<svg xmlns="http://www.w3.org/2000/svg" viewBox="0 0 32 32" fill="#000000"><path d="M 1 9 L 1 10 L 1 23 L 16.390625 23 L 31.558594 9 L 1 9 z M 3 11 L 26.443359 11 L 15.609375 21 L 3 21 L 3 11 z M 6.1992188 13 C 4.4992187 13 4 14.049219 4 14.699219 C 4 15.349219 4.3507813 16.100391 5.3007812 16.400391 C 6.3007812 16.700391 7.0507812 16.75 7.0507812 17.25 C 7.0507812 17.75 5.3503906 17.85 4.4003906 17.25 L 4 18.550781 C 4 18.550781 4.5492187 19 6.1992188 19 C 7.0895983 19 7.7834044 18.748184 8.2402344 18.386719 L 8 19 L 9.75 19 L 10.050781 18.099609 C 10.400781 18.249609 10.8 18.349609 11.25 18.349609 C 11.7 18.349609 12.099219 18.249609 12.449219 18.099609 L 12.75 19 L 14.5 19 L 15.5 19 L 15.5 17.5 L 16.25 17.5 C 17.5 17.5 18.5 16.5 18.5 15.25 C 18.5 14 17.5 13 16.25 13 L 14 13 L 14 16.5 L 14 17.5 L 14 17.75 L 12.099609 13 L 10.349609 13 L 8.8066406 16.943359 C 8.60496 16.065998 7.6767439 15.732794 7.0996094 15.599609 C 5.5996094 15.199609 5.5 14.999219 5.5 14.699219 C 5.5 13.949219 7.5 14.3 8 14.5 C 8.15 14.1 8.4492188 13.349609 8.4492188 13.349609 C 8.4492188 13.349609 7.8992187 13 6.1992188 13 z M 15.5 14.5 L 16.25 14.5 C 16.65 14.5 17 14.85 17 15.25 C 17 15.65 16.65 16 16.25 16 L 15.5 16 L 15.5 14.5 z M 11.25 14.699219 L 12 16.849609 C 11.8 16.999609 11.55 17.050781 11.25 17.050781 C 10.95 17.050781 10.7 16.999609 10.5 16.849609 L 11.25 14.699219 z" fill="#000000"/></svg>
