<?xml version="1.0" encoding="utf-8"?>
<svg xmlns="http://www.w3.org/2000/svg" viewBox="0 0 32 32" fill="#000000"><path d="M 24.25 4 C 23.464245 4.0088048 22.60292 4.1202 21.71875 4.3125 C 19.360964 4.8253007 16.779935 5.9324607 14.96875 7.78125 C 11.250904 11.576618 11.203477 15.79064 9.65625 18.25 C 8.529057 20.041104 7.5934542 20.768242 6.84375 21.1875 C 6.0940458 21.606758 5.4463034 21.569334 4.71875 22.3125 C 4.4881534 22.547803 4.1574428 22.848002 4.03125 23.40625 C 3.9050572 23.964498 4.1881445 24.64846 4.59375 25.0625 C 6.2387446 26.741678 9.22789 27.979935 12.71875 28 C 16.20961 28.02006 20.186105 26.702197 23.4375 23.03125 C 25.769924 20.398455 26.743243 16.774779 27.1875 13.71875 C 27.631757 10.662721 27.537267 8.0485432 27.53125 7.6875 C 27.52235 7.1414869 27.57905 7.0601332 27.71875 6.8125 C 27.7886 6.6886834 27.969973 6.4967644 28 6.0625 C 28.030027 5.6282356 27.790554 5.201675 27.5625 4.96875 C 26.899473 4.2921178 25.989914 4.1038048 25 4.03125 C 24.752522 4.0131112 24.511918 3.9970651 24.25 4 z M 23.59375 6.03125 C 24.053714 5.9976599 24.476597 6.0043399 24.84375 6.03125 C 25.435432 6.074617 25.700504 6.2160912 25.875 6.3125 C 25.718643 6.6605834 25.519924 7.0221716 25.53125 7.71875 C 25.54025 8.2577068 25.633743 10.582779 25.21875 13.4375 C 24.803757 16.292221 23.837076 19.543295 21.9375 21.6875 C 19.058895 24.937553 15.70864 26.017185 12.71875 26 C 9.7961067 25.983201 7.265196 24.81783 6.125 23.71875 C 6.096447 23.74792 6.7937042 23.507242 7.8125 22.9375 C 8.8312958 22.367758 10.071943 21.333396 11.34375 19.3125 C 13.348523 16.12586 13.218096 12.442132 16.40625 9.1875 C 17.822065 7.7422893 20.078036 6.6951993 22.125 6.25 C 22.636741 6.1387002 23.133786 6.0648401 23.59375 6.03125 z M 19 10 C 18.447715 10 18 10.447715 18 11 C 18 11.552285 18.447715 12 19 12 C 19.552285 12 20 11.552285 20 11 C 20 10.447715 19.552285 10 19 10 z M 22.5 10 C 22.223858 10 22 10.223858 22 10.5 C 22 10.776142 22.223858 11 22.5 11 C 22.776142 11 23 10.776142 23 10.5 C 23 10.223858 22.776142 10 22.5 10 z M 21 16 C 20.447715 16 20 16.447715 20 17 C 20 17.552285 20.447715 18 21 18 C 21.552285 18 22 17.552285 22 17 C 22 16.447715 21.552285 16 21 16 z M 18.5 18 C 18.223858 18 18 18.223858 18 18.5 C 18 18.776142 18.223858 19 18.5 19 C 18.776142 19 19 18.776142 19 18.5 C 19 18.223858 18.776142 18 18.5 18 z M 13.5 22 C 13.223858 22 13 22.223858 13 22.5 C 13 22.776142 13.223858 23 13.5 23 C 13.776142 23 14 22.776142 14 22.5 C 14 22.223858 13.776142 22 13.5 22 z" fill="#000000"/></svg>
