<?xml version="1.0" encoding="utf-8"?>
<svg xmlns="http://www.w3.org/2000/svg" viewBox="0 0 32 32" fill="#000000"><path d="M 21.46875 4 C 19.795232 4 18.114822 4.6351784 16.84375 5.90625 L 14.71875 8.0625 C 13.555677 9.2255731 13.555677 11.149427 14.71875 12.3125 L 19.28125 16.875 L 13.9375 22.28125 C 13.583169 19.868946 11.509135 18 9 18 C 8.798 18 8.60225 18.0385 8.40625 18.0625 L 8 20.1875 C 8.313 20.0765 8.649 20 9 20 C 10.654 20 12 21.346 12 23 C 12 23.827 11.66825 24.58175 11.125 25.125 A 1.0054782 1.0054782 0 0 0 11.0625 25.1875 C 10.524998 25.69459 9.7953794 26 9 26 C 7.346 26 6 24.654 6 23 C 6 22.737 6.09375 22.25 6.09375 22.25 L 8.96875 7.1875 L 7.03125 6.8125 L 4.1875 21.65625 C 4.1786549 21.687769 4.164487 21.718233 4.15625 21.75 L 4.125 21.96875 C 4.0532214 22.305202 4 22.642356 4 23 C 4 25.757 6.243 28 9 28 C 10.300818 28 11.484641 27.504555 12.375 26.6875 A 1.0054782 1.0054782 0 0 0 12.5625 26.53125 L 20.96875 18 C 21.993971 18.301473 23.13647 18.081255 23.9375 17.28125 L 25.9375 15.28125 L 26.09375 15.15625 C 28.635893 12.614107 28.635893 8.4483932 26.09375 5.90625 C 24.822678 4.6351784 23.142268 4 21.46875 4 z M 21.46875 6 C 22.626232 6 23.798572 6.4235716 24.6875 7.3125 C 26.465357 9.0903568 26.465357 11.972143 24.6875 13.75 L 22.53125 15.875 C 22.143784 16.26197 21.555337 16.2727 21.15625 15.90625 L 21.125 15.875 L 19.3125 14.0625 L 20.15625 13.25 L 18.75 11.84375 L 17.9375 12.6875 L 16.125 10.875 C 15.726073 10.476073 15.726073 9.8676769 16.125 9.46875 L 16.21875 9.375 L 18.25 7.3125 C 19.138928 6.4235716 20.311268 6 21.46875 6 z M 22 8 C 20.895431 8 20 8.8954305 20 10 C 20 11.104569 20.895431 12 22 12 C 23.104569 12 24 11.104569 24 10 C 24 8.8954305 23.104569 8 22 8 z" fill="#000000"/></svg>
