<?xml version="1.0" encoding="utf-8"?>
<svg xmlns="http://www.w3.org/2000/svg" viewBox="0 0 32 32" fill="#000000"><path style="text-indent:0;text-align:start;line-height:normal;text-transform:none;block-progression:tb;-inkscape-font-specification:Bitstream Vera Sans" d="M 20.375 4.625 L 18.53125 5.375 L 24.71875 20.375 L 20.3125 25.9375 L 13.25 25.125 L 7.03125 10.125 L 5.1875 10.90625 L 11.625 26.4375 L 11.84375 27 L 12.4375 27.0625 L 20.625 28 L 21.1875 28.0625 L 21.53125 27.625 L 26.65625 21.15625 L 27.03125 20.6875 L 26.8125 20.15625 L 20.375 4.625 z M 15.5 9.21875 C 15.184297 9.2300645 14.895625 9.329 14.6875 9.40625 C 12.7975 10.18425 14.21925 12.11075 13.15625 12.59375 C 12.72525 12.78975 12.53075 12.48775 12.46875 12.34375 C 12.22975 11.78875 13.03125 11.59375 13.03125 11.59375 L 12.46875 10.25 L 12.28125 10.3125 C 10.67925 10.9345 11.4625 12.38575 11.5625 12.71875 C 12.2985 14.48175 13.3695 14.1725 13.9375 13.9375 C 15.8705 13.1465 14.472 11.037 15.5 10.625 C 15.619 10.577 16.00525 10.508 16.15625 10.875 C 16.34725 11.336 15.59375 11.5605 15.59375 11.5625 L 16.15625 12.875 C 16.72925 12.629 17.7745 12.11175 17.0625 10.46875 C 16.615625 9.436875 16.026172 9.1998926 15.5 9.21875 z M 17.40625 13.78125 C 17.090547 13.792564 16.801875 13.8915 16.59375 13.96875 C 14.70375 14.74675 16.1255 16.67325 15.0625 17.15625 C 14.6315 17.35225 14.437 17.05025 14.375 16.90625 C 14.136 16.35125 14.9375 16.15625 14.9375 16.15625 L 14.375 14.8125 L 14.1875 14.875 C 12.5855 15.497 13.3375 16.94825 13.4375 17.28125 C 14.1735 19.04425 15.27575 18.735 15.84375 18.5 C 17.77675 17.709 16.37825 15.63075 17.40625 15.21875 C 17.52525 15.17075 17.88025 15.0705 18.03125 15.4375 C 18.22125 15.8985 17.5 16.123 17.5 16.125 L 18.03125 17.4375 C 18.60425 17.1915 19.68075 16.67425 18.96875 15.03125 C 18.521875 13.999375 17.932422 13.762393 17.40625 13.78125 z M 20.0625 17.96875 L 14.71875 20.1875 L 16.0625 23.40625 L 17.1875 22.9375 L 16.4375 21.09375 L 17.5 20.65625 L 18.1875 22.3125 L 19.28125 21.875 L 18.59375 20.21875 L 19.5 19.84375 L 20.21875 21.625 L 21.375 21.125 L 20.0625 17.96875 z" overflow="visible" font-family="Bitstream Vera Sans" fill="#000000"/></svg>
