<?xml version="1.0" encoding="utf-8"?>
<svg xmlns="http://www.w3.org/2000/svg" viewBox="0 0 32 32" fill="#000000"><path style="text-indent:0;text-align:start;line-height:normal;text-transform:none;block-progression:tb;-inkscape-font-specification:Sans" d="M 11 2.25 L 10.1875 3.4375 C 10.1875 3.4375 9.6481277 4.1913546 9.125 5.09375 C 8.8634361 5.5449477 8.6176419 6.0190835 8.40625 6.5 C 8.1948581 6.9809165 8 7.4219697 8 8 C 8 9.6454545 9.3545455 11 11 11 C 12.645455 11 14 9.6454545 14 8 C 14 7.4219697 13.805142 6.9809165 13.59375 6.5 C 13.382358 6.0190835 13.136564 5.5449477 12.875 5.09375 C 12.351872 4.1913546 11.8125 3.4375 11.8125 3.4375 L 11 2.25 z M 11 11 L 9 11 L 8 11 L 8 12 L 8 21 L 7 21 L 7 22 C 7 23.853231 8.2801431 25.396692 10 25.84375 L 10 28 L 8 28 L 8 30 L 14 30 L 14 28 L 12 28 L 12 25.84375 C 13.719857 25.396692 15 23.853231 15 22 L 15 21 L 14 21 L 14 12 L 14 11 L 13 11 L 11 11 z M 21 2.25 L 20.1875 3.4375 C 20.1875 3.4375 19.648128 4.1913546 19.125 5.09375 C 18.863436 5.5449477 18.617642 6.0190835 18.40625 6.5 C 18.194858 6.9809165 18 7.4219697 18 8 C 18 9.6454545 19.354545 11 21 11 C 22.645455 11 24 9.6454545 24 8 C 24 7.4219697 23.805142 6.9809165 23.59375 6.5 C 23.382358 6.0190835 23.136564 5.5449477 22.875 5.09375 C 22.351872 4.1913546 21.8125 3.4375 21.8125 3.4375 L 21 2.25 z M 21 11 L 19 11 L 18 11 L 18 12 L 18 21 L 17 21 L 17 22 C 17 23.853231 18.280143 25.396692 20 25.84375 L 20 28 L 18 28 L 18 30 L 24 30 L 24 28 L 22 28 L 22 25.84375 C 23.719857 25.396692 25 23.853231 25 22 L 25 21 L 24 21 L 24 12 L 24 11 L 23 11 L 21 11 z M 11 5.875 C 11.06572 5.9839175 11.05811 5.978371 11.125 6.09375 C 11.363436 6.5050523 11.617642 6.9402915 11.78125 7.3125 C 11.944858 7.6847085 12 8.0280303 12 8 C 12 8.5545455 11.554545 9 11 9 C 10.445455 9 10 8.5545455 10 8 C 10 8.0280303 10.055142 7.6847085 10.21875 7.3125 C 10.382358 6.9402915 10.636564 6.5050523 10.875 6.09375 C 10.941886 5.978371 10.934283 5.9839175 11 5.875 z M 21 5.875 C 21.06572 5.9839175 21.05811 5.978371 21.125 6.09375 C 21.363436 6.5050523 21.617642 6.9402915 21.78125 7.3125 C 21.944858 7.6847085 22 8.0280303 22 8 C 22 8.5545455 21.554545 9 21 9 C 20.445455 9 20 8.5545455 20 8 C 20 8.0280303 20.055142 7.6847085 20.21875 7.3125 C 20.382358 6.9402915 20.636564 6.5050523 20.875 6.09375 C 20.941886 5.978371 20.934283 5.9839175 21 5.875 z M 10 13 L 12 13 L 12 21 L 10 21 L 10 13 z M 20 13 L 22 13 L 22 21 L 20 21 L 20 13 z M 9.4375 23 L 12.5625 23 C 12.210082 23.55689 11.717456 24 11 24 C 10.282544 24 9.7899179 23.55689 9.4375 23 z M 19.4375 23 L 22.5625 23 C 22.210082 23.55689 21.717456 24 21 24 C 20.282544 24 19.789918 23.55689 19.4375 23 z" fill="#000000"/></svg>
