<?xml version="1.0" encoding="utf-8"?>
<svg xmlns="http://www.w3.org/2000/svg" viewBox="0 0 32 32" fill="#000000"><path d="M 10.488281 4 C 9.1681354 4 7.9928547 4.8729288 7.6132812 6.1386719 L 6.3886719 9.7421875 L 4.3164062 9.0507812 L 3.6835938 10.949219 L 5.7460938 11.636719 L 5.0527344 13.677734 A 1.0001 1.0001 0 0 0 5 14 L 5 20 L 5 21 C 5 21.552 5.448 22 6 22 L 9 22 L 9.3339844 21 L 22.666016 21 L 23 22 L 26 22 C 26.552 22 27 21.552 27 21 L 27 20 L 27 14 A 1.0001 1.0001 0 0 0 26.947266 13.677734 L 26.253906 11.636719 L 28.316406 10.949219 L 27.683594 9.0507812 L 25.611328 9.7421875 L 24.386719 6.1367188 L 24.386719 6.1347656 C 24.006413 4.8706568 22.831306 4 21.511719 4 L 10.488281 4 z M 10.488281 6 L 21.511719 6 C 21.957573 6 22.342494 6.2858639 22.470703 6.7128906 A 1.0001 1.0001 0 0 0 22.480469 6.7460938 L 23.585938 10 L 8.4140625 10 L 9.5195312 6.7480469 A 1.0001 1.0001 0 0 0 9.5292969 6.7128906 C 9.6577191 6.2846334 10.042427 6 10.488281 6 z M 7.7363281 12 L 24.263672 12 L 25 14.166016 L 25 19 L 10 19 L 7 19 L 7 14.166016 L 7.7363281 12 z M 9.5 13 A 1.5 1.5 0 0 0 8 14.5 A 1.5 1.5 0 0 0 9.5 16 A 1.5 1.5 0 0 0 11 14.5 A 1.5 1.5 0 0 0 9.5 13 z M 22.5 13 A 1.5 1.5 0 0 0 21 14.5 A 1.5 1.5 0 0 0 22.5 16 A 1.5 1.5 0 0 0 24 14.5 A 1.5 1.5 0 0 0 22.5 13 z M 13 16 L 12 18 L 20 18 L 19 16 L 13 16 z M 4 23 L 4 25 L 28 25 L 28 23 L 4 23 z M 6 26 L 6 28 L 26 28 L 26 26 L 6 26 z" fill="#000000"/></svg>
