<?xml version="1.0" encoding="utf-8"?>
<svg xmlns="http://www.w3.org/2000/svg" viewBox="0 0 32 32" fill="#000000"><path style="text-indent:0;text-align:start;line-height:normal;text-transform:none;block-progression:tb;-inkscape-font-specification:Sans" d="M 16 2.96875 L 15.125 4.5 C 15.125 4.5 14.359135 5.8629763 13.59375 7.4375 C 13.211058 8.2247619 12.829372 9.0657997 12.53125 9.84375 C 12.233128 10.6217 12 11.284 12 12 C 12 13.853231 13.280143 15.396692 15 15.84375 L 15 18 L 12 18 L 11.84375 18 L 11.6875 18.0625 L 5.6875 20.0625 L 5 20.28125 L 5 21 L 5 28 L 5 29 L 6 29 L 26 29 L 27 29 L 27 28 L 27 21 L 27 20.28125 L 26.3125 20.0625 L 20.3125 18.0625 L 20.15625 18 L 20 18 L 17 18 L 17 15.84375 C 18.719857 15.396692 20 13.853231 20 12 C 20 11.284 19.766872 10.6217 19.46875 9.84375 C 19.170628 9.0657997 18.788942 8.2247619 18.40625 7.4375 C 17.640865 5.8629763 16.875 4.5 16.875 4.5 L 16 2.96875 z M 16 7.1875 C 16.247824 7.6581972 16.299234 7.7066315 16.59375 8.3125 C 16.961058 9.0681131 17.329372 9.8726066 17.59375 10.5625 C 17.858128 11.252393 18 11.8875 18 12 C 18 12.772598 17.567917 13.416073 16.9375 13.75 C 16.786647 12.966598 16 11 16 11 C 16 11 15.213353 12.966598 15.0625 13.75 C 14.432083 13.416073 14 12.772598 14 12 C 14 11.8875 14.141872 11.252393 14.40625 10.5625 C 14.670628 9.8726066 15.038942 9.0681131 15.40625 8.3125 C 15.700766 7.7066315 15.752176 7.6581972 16 7.1875 z M 12.125 20 L 19.875 20 L 25 21.71875 L 25 27 L 17 27 L 17 22 L 15 22 L 15 27 L 7 27 L 7 21.71875 L 12.125 20 z" overflow="visible" font-family="Sans" fill="#000000"/></svg>
