<?xml version="1.0" encoding="utf-8"?>
<svg xmlns="http://www.w3.org/2000/svg" viewBox="0 0 32 32" fill="#000000"><path d="M 16 2 C 14.346 2 13 3.346 13 5 C 13 6.654 14.346 8 16 8 C 17.654 8 19 6.654 19 5 C 19 3.346 17.654 2 16 2 z M 13.71875 10 L 13.5 10.15625 L 9.0625 12.8125 C 8.5240046 12.304251 7.7910562 12 7 12 C 5.3549901 12 4 13.354991 4 15 C 4 16.645009 5.3549901 18 7 18 C 8.6450099 18 10 16.645009 10 15 C 10 14.84902 9.9907547 14.707771 9.96875 14.5625 L 13 12.75 L 13 18.75 L 10.34375 24.03125 C 10.228312 24.017502 10.118869 24 10 24 C 8.3549901 24 7 25.354991 7 27 C 7 28.645009 8.3549901 30 10 30 C 11.64501 30 13 28.64501 13 27 C 13 26.193219 12.682457 25.447881 12.15625 24.90625 L 14.625 20 L 17.375 20 L 19.84375 24.90625 C 19.317543 25.447881 19 26.193219 19 27 C 19 28.64501 20.35499 30 22 30 C 23.64501 30 25 28.64501 25 27 C 25 25.35499 23.64501 24 22 24 C 21.881131 24 21.771688 24.017502 21.65625 24.03125 L 19 18.75 L 19 12.75 L 22.03125 14.5625 C 22.009245 14.707771 22 14.84902 22 15 C 22 16.64501 23.35499 18 25 18 C 26.64501 18 28 16.64501 28 15 C 28 13.35499 26.64501 12 25 12 C 24.208944 12 23.475995 12.304251 22.9375 12.8125 L 18.5 10.15625 L 18.28125 10 L 18 10 L 14 10 L 13.71875 10 z M 7 14 C 7.5641291 14 8 14.435871 8 15 C 8 15.564129 7.5641291 16 7 16 C 6.4358709 16 6 15.564129 6 15 C 6 14.435871 6.4358709 14 7 14 z M 25 14 C 25.564128 14 26 14.435872 26 15 C 26 15.564128 25.564128 16 25 16 C 24.435872 16 24 15.564128 24 15 C 24 14.435872 24.435872 14 25 14 z M 10 26 C 10.564128 26 11 26.435872 11 27 C 11 27.564128 10.564128 28 10 28 C 9.4358709 28 9 27.564129 9 27 C 9 26.435871 9.4358709 26 10 26 z M 22 26 C 22.564128 26 23 26.435872 23 27 C 23 27.564128 22.564128 28 22 28 C 21.435872 28 21 27.564128 21 27 C 21 26.435872 21.435872 26 22 26 z" fill="#000000"/></svg>
