<?xml version="1.0" encoding="utf-8"?>
<svg xmlns="http://www.w3.org/2000/svg" viewBox="0 0 32 32" fill="#000000"><path style="text-indent:0;text-align:start;line-height:normal;text-transform:none;block-progression:tb;-inkscape-font-specification:Bitstream Vera Sans" d="M 14.5 3 C 12.578848 3 11 4.5788481 11 6.5 C 11 8.4211519 12.578848 10 14.5 10 C 16.421152 10 18 8.4211519 18 6.5 C 18 4.5788481 16.421152 3 14.5 3 z M 14.5 5 C 15.340272 5 16 5.6597281 16 6.5 C 16 7.3402719 15.340272 8 14.5 8 C 13.659728 8 13 7.3402719 13 6.5 C 13 5.6597281 13.659728 5 14.5 5 z M 10.8125 10.25 C 10.296737 10.291499 9.8182145 10.538752 9.46875 10.9375 L 7.65625 13.03125 C 7.4185287 13.30463 7.251116 13.64216 7.1875 14 L 6.5 17.875 L 8.46875 18.21875 L 9.15625 14.34375 L 10.96875 12.25 L 11 12.25 L 11.78125 12.40625 L 10.59375 17.78125 C 10.47175 18.33825 10.6025 18.914 10.9375 19.375 L 16.46875 27 L 18.9375 27 L 12.5625 18.1875 L 13.75 12.78125 L 14.21875 12.875 L 14.96875 15.5 C 15.143786 16.100691 15.59658 16.590154 16.1875 16.8125 L 19.15625 17.9375 L 23.03125 26.6875 L 23.96875 26.3125 L 20 17.375 L 20.40625 16.28125 L 16.90625 14.9375 L 16.125 12.3125 C 15.916983 11.590441 15.333681 11.046237 14.59375 10.90625 L 11.34375 10.28125 C 11.170191 10.248428 10.984421 10.236167 10.8125 10.25 z M 10.46875 21.03125 L 9.96875 22.96875 L 7.0625 27 L 9.53125 27 L 11.84375 23.84375 L 11.96875 23.25 L 10.46875 21.03125 z" overflow="visible" font-family="Bitstream Vera Sans" fill="#000000"/></svg>
