<?xml version="1.0" encoding="utf-8"?>
<svg xmlns="http://www.w3.org/2000/svg" viewBox="0 0 32 32" fill="#000000"><path style="text-indent:0;text-align:start;line-height:normal;text-transform:none;block-progression:tb;-inkscape-font-specification:Sans" d="M 8 4 L 8 5 L 8 10 L 6 10 C 6 10 5.3063846 9.9770149 4.5625 10.34375 C 3.8186154 10.710485 3 11.657269 3 13 C 3 14.507097 3.8884997 15.813395 4.6875 16.875 C 5.2563296 17.630785 5.720717 18.115133 6 18.40625 L 6 19 L 5 19 L 5 21 L 6 21 L 23 21 L 24 21 L 24 19 L 23 19 L 23 11 L 23.03125 12 C 23.03125 12 23.315328 12.006 23.5625 12.125 C 23.809672 12.244013 24 12.28444 24 13 C 24 15.579604 24.800896 18.257584 25.5625 20.5 C 25.943302 21.621208 26.32037 22.630938 26.59375 23.4375 C 26.86713 24.244062 27 24.913837 27 25 C 27 25.705061 26.8128 25.75348 26.5625 25.875 C 26.3122 25.99652 26.03125 26 26.03125 26 L 26 26 L 23 26 L 23 22 L 21 22 L 21 26 L 8 26 L 8 22 L 6 22 L 6 27 L 6 28 L 7 28 L 22 28 L 23 28 L 25.96875 28 C 25.96875 28 25.99942 27.999974 26 28 C 26.02803 28.0012 26.702922 28.01289 27.4375 27.65625 C 28.1872 27.29227 29 26.352939 29 25 C 29 24.287663 28.75787 23.634251 28.46875 22.78125 C 28.17963 21.928249 27.806698 20.930792 27.4375 19.84375 C 26.699104 17.669666 26 15.157396 26 13 C 26 11.64156 25.190328 10.674987 24.4375 10.3125 C 23.711422 9.9628936 23.048243 9.997137 23 10 C 22.998223 10.000105 22.96875 10 22.96875 10 L 21 10 L 21 5 L 21 4 L 20 4 L 9 4 L 8 4 z M 10 6 L 19 6 L 19 10 L 10 10 L 10 6 z M 11 7 L 11 9 L 15 9 L 15 7 L 11 7 z M 17 7 C 16.447715 7 16 7.4477153 16 8 C 16 8.5522847 16.447715 9 17 9 C 17.552285 9 18 8.5522847 18 8 C 18 7.4477153 17.552285 7 17 7 z M 5.8125 12 C 5.9211106 11.984533 6 12 6 12 L 6 15.1875 C 5.4428829 14.349455 5 13.439512 5 13 C 5 12.314731 5.1813846 12.251265 5.4375 12.125 C 5.5655577 12.061867 5.7038894 12.015467 5.8125 12 z M 8 12 L 9 12 L 20 12 L 21 12 L 21 19 L 8 19 L 8 12 z M 10 13 L 10 17 L 12 17 L 12 13 L 10 13 z M 13 13 L 13 17 L 15 17 L 15 13 L 13 13 z M 18 13 C 16.907275 13 16 13.907275 16 15 C 16 16.092725 16.907275 17 18 17 C 19.092725 17 20 16.092725 20 15 C 20 13.907275 19.092725 13 18 13 z" fill="#000000"/></svg>
