<?xml version="1.0" encoding="utf-8"?>
<svg xmlns="http://www.w3.org/2000/svg" viewBox="0 0 32 32" fill="#000000"><path style="text-indent:0;text-align:start;line-height:normal;text-transform:none;block-progression:tb;-inkscape-font-specification:Bitstream Vera Sans" d="M 15 5 L 15 9 L 12 9 L 15 12 L 16 13 L 17 12 L 20 9 L 17 9 L 17 5 L 15 5 z M 15 15 L 15 19.09375 C 13.815664 19.264917 12.725704 19.720768 11.8125 20.40625 L 8.9375 17.5 L 7.5 18.9375 L 10.40625 21.8125 C 9.7207678 22.725704 9.2649172 23.815664 9.09375 25 L 5 25 L 5 27 L 27 27 L 27 25 L 22.90625 25 C 22.735083 23.815664 22.279232 22.725704 21.59375 21.8125 L 24.5 18.9375 L 23.0625 17.5 L 20.1875 20.40625 C 19.274296 19.720768 18.184336 19.264917 17 19.09375 L 17 15 L 15 15 z M 16 21 C 18.426958 21 20.442195 22.715726 20.90625 25 L 11.09375 25 C 11.557805 22.715726 13.573042 21 16 21 z" fill="#000000"/></svg>
