<?xml version="1.0" encoding="utf-8"?>
<svg xmlns="http://www.w3.org/2000/svg" viewBox="0 0 32 32" fill="#000000"><path style="text-indent:0;text-align:start;line-height:normal;text-transform:none;block-progression:tb;-inkscape-font-specification:Bitstream Vera Sans" d="M 5 5 L 5 6 L 5 26 L 5 27 L 6 27 L 26 27 L 27 27 L 27 26 L 27 6 L 27 5 L 26 5 L 6 5 L 5 5 z M 7 7 L 25 7 L 25 25 L 7 25 L 7 7 z M 11.71875 10.28125 L 10.28125 11.71875 L 14.5625 16 L 10.28125 20.28125 L 11.71875 21.71875 L 16 17.4375 L 20.28125 21.71875 L 21.71875 20.28125 L 17.4375 16 L 21.71875 11.71875 L 20.28125 10.28125 L 16 14.5625 L 11.71875 10.28125 z" overflow="visible" font-family="Bitstream Vera Sans" fill="#000000"/></svg>
