<?xml version="1.0" encoding="utf-8"?>
<svg xmlns="http://www.w3.org/2000/svg" viewBox="0 0 32 32" fill="#000000"><path style="text-indent:0;text-align:start;line-height:normal;text-transform:none;block-progression:tb;-inkscape-font-specification:Sans" d="M 16 5 C 12.579614 5 9.4642944 5.5475944 7.09375 6.65625 C 4.7232056 7.7649056 3 9.6003065 3 12 L 3 21 C 3 22.014589 3.5129935 22.93028 4.25 23.65625 C 4.9870065 24.38222 5.9558511 24.981588 7.125 25.46875 C 9.4632977 26.443074 12.57388 27 16 27 C 19.42612 27 22.536702 26.443074 24.875 25.46875 C 26.044149 24.981588 27.012993 24.38222 27.75 23.65625 C 28.487007 22.93028 29 22.014589 29 21 L 29 12 L 29 11 L 27 11 L 27 12 C 27 12.891006 26.546345 13.493417 25.59375 14.09375 C 24.641155 14.694083 23.245508 15.14642 21.8125 15.4375 C 18.946484 16.01966 16 16 16 16 C 12.79912 16 9.9112023 15.460426 7.90625 14.625 C 6.9037739 14.207287 6.1337747 13.689124 5.65625 13.21875 C 5.1787253 12.748376 5 12.365911 5 12 C 5 10.524694 5.9647944 9.3600944 7.9375 8.4375 C 9.9102056 7.5149056 12.793386 7 16 7 C 19.208727 7 21.035448 7.5148461 21.96875 8.0625 C 22.902052 8.6101539 23 9.0823285 23 9.40625 C 23 9.8669485 22.898207 10.176977 22.65625 10.46875 C 22.414293 10.760523 22.004513 11.042835 21.40625 11.28125 C 20.209723 11.758081 18.289075 12 16 12 C 16 12 14.565394 11.9963 13.1875 11.71875 C 12.498553 11.579985 11.834443 11.359296 11.4375 11.125 C 11.133645 10.94565 11.123891 10.858141 11.09375 10.75 C 11.285791 10.635857 11.663258 10.494896 12.15625 10.375 C 13.168103 10.128916 14.613285 9.9800336 16 10 L 16 8 C 14.469715 7.9779664 12.915147 8.1000843 11.65625 8.40625 C 11.026802 8.5593328 10.48289 8.7646486 10 9.0625 C 9.5171104 9.3603514 9 9.8797963 9 10.625 C 9 11.636883 9.7094434 12.414015 10.4375 12.84375 C 11.165557 13.273485 12.001447 13.49289 12.8125 13.65625 C 14.434606 13.982969 16 14 16 14 C 18.418925 14 20.498527 13.773169 22.125 13.125 C 22.938237 12.800915 23.665082 12.379977 24.1875 11.75 C 24.709918 11.120023 25 10.278551 25 9.40625 C 25 8.3961715 24.409948 7.1710961 23 6.34375 C 21.590052 5.5164039 19.418273 5 16 5 z M 5 15.28125 C 5.6086643 15.73334 6.3120375 16.130004 7.125 16.46875 C 9.4632977 17.443074 12.57388 18 16 18 C 16 18 19.053516 18.04284 22.1875 17.40625 C 23.754492 17.087955 25.358845 16.598886 26.65625 15.78125 C 26.774835 15.706517 26.886217 15.613839 27 15.53125 L 27 21 C 27 21.365911 26.821275 21.748376 26.34375 22.21875 C 26.022015 22.535667 25.56892 22.872534 25 23.1875 L 25 19 L 23 19 L 23 24 C 22.378017 24.189234 21.719297 24.35649 21 24.5 L 21 22 L 19 22 L 19 24.8125 C 18.351336 24.884544 17.691221 24.944247 17 24.96875 L 17 20 L 15 20 L 15 24.96875 C 14.31088 24.944321 13.646827 24.882947 13 24.8125 L 13 22 L 11 22 L 11 24.53125 C 10.27127 24.389191 9.6230055 24.197919 9 24 L 9 19 L 7 19 L 7 23.1875 C 6.4310801 22.872534 5.9779847 22.535667 5.65625 22.21875 C 5.1787253 21.748376 5 21.365911 5 21 L 5 15.28125 z" fill="#000000"/></svg>
