<?xml version="1.0" encoding="utf-8"?>
<svg xmlns="http://www.w3.org/2000/svg" viewBox="0 0 32 32" fill="#000000"><path style="text-indent:0;text-align:start;line-height:normal;text-transform:none;block-progression:tb;-inkscape-font-specification:Bitstream Vera Sans" d="M 8.875 5 L 8.625 5.15625 L 7.53125 5.84375 L 7.21875 6.03125 L 7.09375 6.34375 L 6.40625 8.375 L 2.8125 9.03125 L 2 9.15625 L 2 10 L 2 19 C 2 19.963537 2.1688134 20.837627 2.53125 21.5625 C 2.8936866 22.287373 3.5453462 23 4.5 23 C 5.2429857 23 5.8050793 22.564379 6.1875 22.03125 L 9.15625 22.6875 C 9.2712727 23.274786 9.4485839 23.803418 9.6875 24.28125 C 10.140419 25.187088 10.907275 26 12 26 C 12.084365 26 12.169515 25.97811 12.25 25.96875 L 28.9375 27 L 30 27.0625 L 30 26 L 30 19 L 30 18 L 29 18 L 28 18 L 28 16 C 28 14.782736 27.252968 13.677128 26.125 13.21875 L 23.8125 12.25 L 23.0625 9.5 C 22.832258 8.6266698 22.059589 8 21.15625 8 L 14.90625 8 L 14.84375 8 L 14.75 8 L 12.6875 8.3125 C 11.718225 8.4611619 11 9.33267 11 10.3125 L 11 16.28125 C 10.68081 16.454362 10.423168 16.716831 10.1875 17 L 8.1875 17 L 8.15625 17 L 6.59375 16.6875 C 6.5575928 16.601547 6.5098511 16.519702 6.46875 16.4375 C 6.1063134 15.712627 5.4546538 15 4.5 15 C 4.3226446 15 4.1565285 15.017799 4 15.0625 L 4 10.8125 L 7.3125 10.25 L 7.90625 10.125 L 8.09375 9.59375 L 8.875 7.34375 L 9.4375 7 L 21.59375 7 L 21.59375 5 L 9.15625 5 L 8.875 5 z M 16.15625 10 L 21.15625 10 L 21.6875 12 L 16.59375 12 L 16.15625 10 z M 14.15625 10.125 L 14.84375 13.21875 L 15.03125 14 L 15.8125 14 L 22.75 14 L 25.375 15.0625 C 25.753032 15.216122 26 15.591264 26 16 L 26 16.09375 C 25.413588 16.29759 25 16.844162 25 17.5 C 25 17.672589 25.040108 17.845681 25.09375 18 L 19.90625 18 C 19.959892 17.845681 20 17.672589 20 17.5 C 20 16.671573 19.328427 16 18.5 16 C 17.671573 16 17 16.671573 17 17.5 C 17 17.672589 17.040108 17.845681 17.09375 18 L 14.4375 18 C 14.39726 17.90676 14.356964 17.807678 14.3125 17.71875 C 14.01469 17.12313 13.572664 16.591834 13 16.28125 L 13 10.3125 L 14.15625 10.125 z M 4.5 17.0625 C 4.5364459 17.102183 4.5775894 17.155179 4.65625 17.3125 C 4.8367066 17.673413 5 18.306683 5 19 C 5 19.693317 4.8367066 20.326587 4.65625 20.6875 C 4.5775894 20.844821 4.5364459 20.897817 4.5 20.9375 C 4.4635541 20.897817 4.4224106 20.844821 4.34375 20.6875 C 4.1632934 20.326587 4 19.693317 4 19 C 4 18.306683 4.1632934 17.673413 4.34375 17.3125 C 4.4224106 17.155179 4.4635541 17.102183 4.5 17.0625 z M 12 18 C 12.01184 18 12.260311 18.08312 12.53125 18.625 C 12.802189 19.166878 13 20.030541 13 21 C 13 21.969459 12.802189 22.833122 12.53125 23.375 C 12.260311 23.916878 12.011844 24 12 24 C 11.988156 24 11.739689 23.916878 11.46875 23.375 C 11.197811 22.833122 11 21.969459 11 21 C 11 20.030541 11.197811 19.166878 11.46875 18.625 C 11.739689 18.083122 11.988156 18 12 18 z M 7 18.78125 L 7.96875 18.96875 L 8.0625 19 L 8.15625 19 L 9.25 19 C 9.1246082 19.502251 9.0242974 20.029503 9 20.59375 L 6.90625 20.125 C 6.9632774 19.768081 7 19.390232 7 19 C 7 18.926826 7.0019581 18.853366 7 18.78125 z M 14.9375 20 L 28 20 L 28 24.9375 L 14.40625 24.09375 C 14.801648 23.22027 15 22.156903 15 21 C 15 20.655985 14.973282 20.325314 14.9375 20 z" fill="#000000"/></svg>
