<?xml version="1.0" encoding="utf-8"?>
<svg xmlns="http://www.w3.org/2000/svg" viewBox="0 0 32 32" fill="#000000"><path style="text-indent:0;text-align:start;line-height:normal;text-transform:none;block-progression:tb;-inkscape-font-specification:Bitstream Vera Sans" d="M 14.3125 5.90625 L 14.03125 6.625 C 14.03125 6.625 13.380412 8.5213061 13.09375 10.6875 C 13.08585 10.6917 13.07036 10.6833 13.0625 10.6875 C 12.094773 10.240889 10.841361 9.84375 9.5 9.84375 L 8.875 9.84375 L 8.59375 10.40625 C 8.1006575 11.397305 8.1064573 12.54103 8.25 13.65625 C 8.1127814 13.730631 8.0121205 13.807033 7.75 13.875 C 7.5679126 13.922215 7.5381071 13.916208 7.40625 13.9375 C 7.2250591 13.747406 7.0301079 13.509089 6.6875 13.15625 C 6.4520381 12.913756 6.2124661 12.680077 5.9375 12.46875 C 5.6625339 12.257423 5.3835498 12 4.78125 12 C 4.2134717 12 3.6710403 12.223854 3.28125 12.5625 C 2.8914597 12.901146 2.6485938 13.312415 2.46875 13.75 C 2.1090625 14.625169 2 15.605337 2 16.53125 C 2 17.432571 2.1068606 18.418747 2.46875 19.28125 C 2.6496947 19.712502 2.8911826 20.104449 3.28125 20.4375 C 3.6713174 20.770551 4.2171222 21 4.78125 21 C 5.3734254 21 5.7723453 20.744094 6.125 20.5 C 6.4776547 20.255906 6.7890912 19.965284 7.0625 19.6875 C 7.3236858 19.422135 7.3314717 19.358283 7.5 19.15625 C 7.8747301 19.26214 8.2486374 19.476744 8.53125 19.75 C 8.4554 20.12 8.320165 20.482762 8.28125 20.875 C 8.214398 21.548824 8.1875 22.191765 8.1875 22.59375 L 8.1875 23.25 L 8.8125 23.5 C 10.858248 24.365509 12.662709 23.63265 13.90625 22.96875 C 14.195043 24.851355 14.8125 26.40625 14.8125 26.40625 L 15.09375 27 L 15.75 27 C 18.746414 27 21.362529 25.372104 22.65625 23.40625 C 24.811412 22.75188 26.604162 21.624826 27.84375 20.40625 C 29.161652 19.110688 30 17.871484 30 16.53125 C 30 15.794409 29.675009 15.229692 29.25 14.59375 C 28.824991 13.957808 28.269174 13.305849 27.5625 12.65625 C 26.213941 11.416607 24.377056 10.232695 22.3125 9.5625 C 20.586002 7.1375657 17.639688 6.3630027 15.09375 6 L 14.3125 5.90625 z M 15.71875 8.21875 C 17.529476 8.5532736 19.236399 9.0986482 20.34375 10.25 C 19.903941 11.149076 19 13.393138 19 16.40625 C 19 19.747246 20.09596 22.054582 20.53125 22.84375 C 19.613118 23.738269 18.065805 24.559889 16.4375 24.78125 C 16.236898 24.254865 15.910725 23.544666 15.78125 22.15625 L 15.71875 21.53125 C 15.71875 21.53125 14 18.57819 14 16.5 C 14 14.185812 14.875 12 14.875 12 L 14.90625 12 L 14.96875 11.4375 C 15.110117 9.7848228 15.514775 8.808141 15.71875 8.21875 z M 21.96875 11.53125 C 23.594481 12.107722 25.08309 13.109787 26.1875 14.125 C 26.794826 14.683276 27.283384 15.223098 27.59375 15.6875 C 27.904116 16.151902 28 16.552091 28 16.53125 C 28 16.707016 27.523598 17.932312 26.4375 19 C 25.410358 20.009732 23.920779 20.982762 22.09375 21.53125 C 21.681958 20.686728 21 18.934437 21 16.40625 C 21 14.077708 21.580355 12.402421 21.96875 11.53125 z M 10.375 12.0625 C 11.18807 12.212766 12.078462 12.391908 12.5625 12.625 C 12.285571 13.608287 12 14.977638 12 16.5 C 12 18.266398 12.645505 19.953154 13.21875 21.125 C 12.370279 21.582963 11.333662 21.904751 10.25 21.71875 C 10.26336 21.481098 10.2559 21.317792 10.28125 21.0625 C 10.3404 20.466324 10.478635 19.845408 10.53125 19.71875 L 10.71875 19.21875 L 10.75 19.1875 L 10.65625 19.09375 C 10.567405 18.896438 10 17.589251 10 16.65625 C 10 15.563188 10.289499 14.611642 10.34375 14.4375 L 10.375 14.40625 L 10.375 14.34375 L 10.375 14.3125 L 10.34375 14.3125 L 10.28125 13.9375 C 10.14506 13.252334 10.281023 12.644985 10.375 12.0625 z M 4.65625 14.03125 C 4.6805348 14.042005 4.6847728 14.036388 4.71875 14.0625 C 4.8546589 14.166954 5.0459619 14.352369 5.25 14.5625 C 5.6580762 14.982763 5.9970693 15.414924 6.46875 15.78125 L 6.78125 16.03125 L 7.1875 16 C 7.1875 16 7.5690409 15.945035 8.03125 15.84375 C 8.0074356 16.106133 8 16.374503 8 16.65625 C 8 16.806162 8.0192884 16.946477 8.03125 17.09375 C 7.7709567 17.032916 7.5042543 17 7.21875 17 L 6.71875 17 L 6.40625 17.40625 C 6.40625 17.40625 6.0624324 17.868068 5.625 18.3125 C 5.4062838 18.534716 5.1891266 18.744094 5 18.875 C 4.9054367 18.940453 4.8287561 18.985113 4.78125 19 C 4.6683778 19 4.6656826 18.998918 4.59375 18.9375 C 4.5218174 18.876082 4.4090553 18.730123 4.3125 18.5 C 4.1193894 18.039753 4 17.254929 4 16.53125 C 4 15.777163 4.1169375 15.007081 4.3125 14.53125 C 4.4102812 14.293335 4.521259 14.125479 4.59375 14.0625 C 4.6160549 14.043122 4.6416701 14.040475 4.65625 14.03125 z M 25 15 C 24.447715 15 24 15.447715 24 16 C 24 16.552285 24.447715 17 25 17 C 25.552285 17 26 16.552285 26 16 C 26 15.447715 25.552285 15 25 15 z" overflow="visible" font-family="Bitstream Vera Sans" fill="#000000"/></svg>
