<?xml version="1.0" encoding="utf-8"?>
<svg xmlns="http://www.w3.org/2000/svg" viewBox="0 0 32 32" fill="#000000"><path style="text-indent:0;text-align:start;line-height:normal;text-transform:none;block-progression:tb;-inkscape-font-specification:Sans" d="M 19.96875 3 C 19.96875 3 18.935836 3.011461 17.9375 3.6875 C 17.194472 4.1906533 16.470926 5.0877165 16.15625 6.4375 C 15.572354 6.1842674 14.851932 6 14 6 C 13.530566 6 13.086676 6.0516584 12.6875 6.15625 C 12.485779 6.2083514 12.277477 6.2714654 12.09375 6.34375 C 11.740306 6.486939 11.410844 6.6779332 11.125 6.875 C 10.682687 7.1777479 10.308001 7.5314235 10.03125 7.875 C 9.6622488 8.3331021 9.4077497 8.778588 9.25 9.125 C 8.2344293 9.240617 7.2577255 9.5338626 6.5 10.21875 C 5.5522887 11.07536 5 12.399474 5 14 C 5 17.848575 7.1596323 21.366374 7.78125 23.65625 C 7.78355 23.66595 7.77893 23.67782 7.78125 23.6875 C 8.0993661 25.015793 8.6266908 26.282439 9.46875 27.28125 C 10.316946 28.28734 11.552293 29 13 29 C 13.915502 29 14.630721 28.643331 15.125 28.375 C 15.619279 28.106669 15.89669 28 15.96875 28 C 16.04081 28 16.365888 28.109775 16.875 28.375 C 17.384112 28.640225 18.100281 29 19 29 C 20.416416 29 21.612591 28.32786 22.4375 27.34375 C 23.256711 26.366438 23.803676 25.108493 24.21875 23.71875 C 24.22165 23.70905 24.21585 23.69718 24.21875 23.6875 C 24.491386 22.789708 25.193134 20.873977 25.8125 18.84375 C 26.435474 16.801697 27 14.667839 27 13 C 27 11.281133 26.716978 9.7995653 25.875 8.6875 C 25.033022 7.5754347 23.63576 7 22 7 C 20.874561 7 19.909831 7.2956617 19.1875 7.5625 C 18.544449 7.8000512 18.139571 7.9048541 18.125 7.9375 C 18.098947 7.9113316 18.031431 7.8455795 18 7.8125 C 18.041493 6.2483611 18.580584 5.6700879 19.0625 5.34375 C 19.564164 5.0040395 20.03125 5 20.03125 5 L 19.96875 3 z M 14 8 C 15.160149 8 15.649513 8.3519383 16.09375 8.75 C 16.315868 8.9490309 16.508903 9.169726 16.75 9.40625 C 16.991097 9.642774 17.36419 10 18 10 C 18.828909 10 19.275081 9.6706617 19.90625 9.4375 C 20.537419 9.2043383 21.225439 9 22 9 C 23.21424 9 23.835728 9.3178153 24.28125 9.90625 C 24.726772 10.494685 25 11.520867 25 13 C 25 14.157161 24.479026 16.270053 23.875 18.25 C 23.270974 20.229947 22.623207 22.096987 22.3125 23.125 C 21.936953 24.388679 21.444091 25.42086 20.90625 26.0625 C 20.368409 26.70414 19.852584 27 19 27 C 18.633719 27 18.275638 26.835025 17.8125 26.59375 C 17.349362 26.352475 16.79369 26 15.96875 26 C 15.14381 26 14.594971 26.386831 14.15625 26.625 C 13.717529 26.863169 13.403498 27 13 27 C 12.178707 27 11.567304 26.64166 11 25.96875 C 10.432696 25.29584 9.9825157 24.300673 9.71875 23.1875 L 9.71875 23.15625 C 8.9604584 20.327579 7 17.06904 7 14 C 7 12.828526 7.3454613 12.13789 7.84375 11.6875 C 8.1513077 11.409507 8.5548138 11.234883 9.03125 11.125 C 9.3784537 17.012349 12.3125 22.84375 12.3125 22.84375 L 14.09375 21.96875 C 14.09375 21.96875 11.099606 15.656761 11.03125 10.1875 C 11.039573 10.160408 11.059966 10.031653 11.09375 9.9375 C 11.109801 9.901589 11.13676 9.8521836 11.15625 9.8125 C 11.189714 9.7371162 11.229669 9.6537237 11.28125 9.5625 C 11.291658 9.5450409 11.301495 9.5177662 11.3125 9.5 C 11.383395 9.3818736 11.486223 9.2584909 11.59375 9.125 C 11.711312 8.979051 11.851414 8.8203342 12 8.6875 C 12.45468 8.2882975 13.07355 8 14 8 z" overflow="visible" font-family="Sans" fill="#000000"/></svg>
