<?xml version="1.0" encoding="utf-8"?>
<svg xmlns="http://www.w3.org/2000/svg" viewBox="0 0 32 32" fill="#000000"><path style="text-indent:0;text-align:start;line-height:normal;text-transform:none;block-progression:tb;-inkscape-font-specification:Bitstream Vera Sans" d="M 13 4 C 11.354991 4 10 5.3549901 10 7 C 10 8.6450099 11.354991 10 13 10 C 14.645009 10 16 8.6450099 16 7 C 16 5.3549901 14.645009 4 13 4 z M 13 6 C 13.564129 6 14 6.4358709 14 7 C 14 7.5641291 13.564129 8 13 8 C 12.435871 8 12 7.5641291 12 7 C 12 6.4358709 12.435871 6 13 6 z M 12.53125 11 C 11.766436 10.985576 11.016655 11.535932 10.875 12.34375 L 10 17.21875 L 9.96875 17.40625 L 10.03125 17.59375 L 11 22.0625 L 11 22.125 L 11 26 L 10 26 L 10 28 L 22 28 C 23.64501 28 25 26.64501 25 25 C 25 23.707982 24.155745 22.605718 23 22.1875 L 23 19.40625 C 23 18.88025 22.77925 18.372 22.40625 18 L 20 15.59375 L 20 14.34375 L 18 15.375 L 18 15.59375 C 18 16.11975 18.22075 16.628 18.59375 17 L 21 19.40625 L 21 22.1875 C 20.212131 22.472598 19.577104 23.076263 19.25 23.84375 L 18.6875 23.28125 L 18.40625 23 L 18 23 L 16 23 L 16 19.6875 C 16 18.875914 15.502287 18.117805 14.75 17.8125 L 12.15625 16.75 L 12.75 13.25 L 15.03125 14.59375 C 15.61531 14.939786 16.329866 14.960067 16.9375 14.65625 L 17.09375 14.5625 L 20.4375 12.90625 L 19.5625 11.09375 L 16.03125 12.875 L 13.28125 11.21875 C 13.046009 11.079395 12.786188 11.004808 12.53125 11 z M 12.375 19.03125 L 14 19.6875 L 14 24 L 14 25 L 17.59375 25 L 18.625 26 L 13 26 L 13 22.0625 L 13 21.96875 L 12.96875 21.875 L 12.375 19.03125 z M 22 24 C 22.564128 24 23 24.435872 23 25 C 23 25.564128 22.564128 26 22 26 C 21.435872 26 21 25.564128 21 25 C 21 24.435872 21.435872 24 22 24 z" overflow="visible" font-family="Bitstream Vera Sans" fill="#000000"/></svg>
