<?xml version="1.0" encoding="utf-8"?>
<svg xmlns="http://www.w3.org/2000/svg" viewBox="0 0 32 32" fill="#000000"><path style="text-indent:0;text-align:start;line-height:normal;text-transform:none;block-progression:tb;-inkscape-font-specification:Sans" d="M 13 3 C 9.6981359 3 7 5.6981362 7 9 C 7 12.301864 9.698136 15 13 15 C 15.964985 15 18.431434 12.834783 18.90625 10 L 23 10 L 23 13 L 27 9 L 23 5 L 23 8 L 18.90625 8 C 18.431434 5.165217 15.964985 3 13 3 z M 13 5 C 15.220984 5 17 6.7790164 17 9 C 17 11.220984 15.220984 13 13 13 C 10.779016 13 9 11.220984 9 9 C 9 6.7790164 10.779016 5 13 5 z M 13 17 C 9.698136 17 7 19.698136 7 23 C 7 26.301864 9.698136 29 13 29 C 15.964985 29 18.431434 26.834783 18.90625 24 L 23 24 L 23 27 L 27 23 L 23 19 L 23 22 L 18.90625 22 C 18.431434 19.165217 15.964985 17 13 17 z M 13 19 C 15.220984 19 17 20.779016 17 23 C 17 25.220984 15.220984 27 13 27 C 10.779016 27 9 25.220984 9 23 C 9 20.779016 10.779016 19 13 19 z" overflow="visible" font-family="Sans" fill="#000000"/></svg>
