<?xml version="1.0" encoding="utf-8"?>
<svg xmlns="http://www.w3.org/2000/svg" viewBox="-8 10 32 32" fill="#000000"><path d="M 4 5 L 4 6.34375 C 2.805 6.91375 2 8.13 2 9.5 C 2 10.925 2.858 12.18075 4.125 12.71875 C 4.949 18.66375 9.851 25 16 25 C 22.149 25 27.052 18.66375 27.875 12.71875 C 29.144 12.18075 30 10.925 30 9.5 C 30 8.13 29.195 6.91275 28 6.34375 L 28 5 L 26 5 L 26 7.875 L 26.8125 8.03125 C 27.5065 8.17225 28 8.79 28 9.5 C 28 10.222 27.49225 10.83875 26.78125 10.96875 L 26.03125 11.09375 L 25.96875 11.875 C 25.90375 12.625 25.74625 13.368 25.53125 14.125 C 25.22425 14.295 25 14.623 25 15 C 25 15.147 25.03675 15.28025 25.09375 15.40625 C 24.87275 15.97125 24.6055 16.5265 24.3125 17.0625 C 24.2105 17.0275 24.114 17 24 17 C 23.448 17 23 17.448 23 18 C 23 18.273 23.10525 18.5065 23.28125 18.6875 C 22.93325 19.1605 22.55525 19.61625 22.15625 20.03125 C 22.10025 20.02225 22.059 20 22 20 C 21.448 20 21 20.448 21 21 C 21 21.028 21.02825 21.0355 21.03125 21.0625 C 19.54725 22.2415 17.818 23 16 23 C 14.182 23 12.45275 22.2415 10.96875 21.0625 C 10.97175 21.0355 11 21.028 11 21 C 11 20.448 10.552 20 10 20 C 9.941 20 9.89875 20.02225 9.84375 20.03125 C 9.44475 19.61625 9.06675 19.1595 8.71875 18.6875 C 8.89475 18.5065 9 18.273 9 18 C 9 17.448 8.552 17 8 17 C 7.886 17 7.7895 17.0275 7.6875 17.0625 C 7.3945 16.5255 7.12725 15.97125 6.90625 15.40625 C 6.96325 15.28025 7 15.147 7 15 C 7 14.623 6.77575 14.295 6.46875 14.125 C 6.25375 13.368 6.09625 12.625 6.03125 11.875 L 5.96875 11.09375 L 5.21875 10.96875 C 4.50675 10.83875 4 10.222 4 9.5 C 4 8.79 4.4915 8.17225 5.1875 8.03125 L 6 7.875 L 6 5 L 4 5 z M 11.5 6 C 10.671573 6 10 6.671573 10 7.5 C 10 8.328427 10.671573 9 11.5 9 C 12.328427 9 13 8.328427 13 7.5 C 13 6.671573 12.328427 6 11.5 6 z M 20.5 6 C 19.671573 6 19 6.671573 19 7.5 C 19 8.328427 19.671573 9 20.5 9 C 21.328427 9 22 8.328427 22 7.5 C 22 6.671573 21.328427 6 20.5 6 z M 8 11 C 7.4477153 11 7 11.447715 7 12 C 7 12.552285 7.4477152 13 8 13 C 8.5522848 13 9 12.552285 9 12 C 9 11.447715 8.5522848 11 8 11 z M 12 11 C 11.447715 11 11 11.447715 11 12 C 11 12.552285 11.447715 13 12 13 C 12.552285 13 13 12.552285 13 12 C 13 11.447715 12.552285 11 12 11 z M 16 11 C 15.447715 11 15 11.447715 15 12 C 15 12.552285 15.447715 13 16 13 C 16.552285 13 17 12.552285 17 12 C 17 11.447715 16.552285 11 16 11 z M 20 11 C 19.447715 11 19 11.447715 19 12 C 19 12.552285 19.447715 13 20 13 C 20.552285 13 21 12.552285 21 12 C 21 11.447715 20.552285 11 20 11 z M 24 11 C 23.447715 11 23 11.447715 23 12 C 23 12.552285 23.447715 13 24 13 C 24.552285 13 25 12.552285 25 12 C 25 11.447715 24.552285 11 24 11 z M 16 13.96875 C 14.48 13.92975 12.372 14.246 11.5 14.75 L 12.5 16.5 C 12.826 16.312 14.37875 15.96875 15.96875 15.96875 L 16 15.96875 C 17.528 15.97075 19.14225 16.286 19.53125 16.5 L 20.46875 14.75 C 19.57575 14.257 17.503 13.97075 16 13.96875 z M 10 14 C 9.4477153 14 9 14.447715 9 15 C 9 15.552285 9.4477153 16 10 16 C 10.552285 16 11 15.552285 11 15 C 11 14.447715 10.552285 14 10 14 z M 22 14 C 21.447715 14 21 14.447715 21 15 C 21 15.552285 21.447715 16 22 16 C 22.552285 16 23 15.552285 23 15 C 23 14.447715 22.552285 14 22 14 z M 12 17 C 11.447715 17 11 17.447715 11 18 C 11 18.552285 11.447715 19 12 19 C 12.552285 19 13 18.552285 13 18 C 13 17.447715 12.552285 17 12 17 z M 16 17 C 15.447715 17 15 17.447715 15 18 C 15 18.552285 15.447715 19 16 19 C 16.552285 19 17 18.552285 17 18 C 17 17.447715 16.552285 17 16 17 z M 20 17 C 19.447715 17 19 17.447715 19 18 C 19 18.552285 19.447715 19 20 19 C 20.552285 19 21 18.552285 21 18 C 21 17.447715 20.552285 17 20 17 z M 14 20 C 13.447715 20 13 20.447715 13 21 C 13 21.552285 13.447715 22 14 22 C 14.552285 22 15 21.552285 15 21 C 15 20.447715 14.552285 20 14 20 z M 18 20 C 17.447715 20 17 20.447715 17 21 C 17 21.552285 17.447715 22 18 22 C 18.552285 22 19 21.552285 19 21 C 19 20.447715 18.552285 20 18 20 z" transform="translate(-8 10)" fill="#000000"/></svg>
