<?xml version="1.0" encoding="utf-8"?>
<svg xmlns="http://www.w3.org/2000/svg" viewBox="0 0 32 32" fill="#000000"><path style="text-indent:0;text-align:start;line-height:normal;text-transform:none;block-progression:tb;-inkscape-font-specification:Sans" d="M 16 4 C 14.908651 4 14.222647 4.7038245 13.8125 5.09375 C 13.402353 5.4836755 13.280694 5.625 12.75 5.625 C 12.077415 5.625 11.490166 5.7946443 11 6.03125 C 10.875666 6.0080438 10.75377 6 10.625 6 C 9.980038 6 9.4031964 6.2235475 8.96875 6.5625 C 8.5343036 6.9014525 8.2595944 7.3001813 8.0625 7.6875 C 7.6683113 8.4621373 7.4412723 9.1854786 7.28125 9.375 C 7.2407889 9.4229488 6.9261301 9.697568 6.59375 10.03125 C 6.2613699 10.364932 5.8809581 10.768375 5.5625 11.3125 C 4.9255839 12.400749 4.7185723 14.104859 5.84375 15.71875 C 6.0674321 16.039345 5.9792634 16.420101 6.09375 17.34375 C 6.2082366 18.267399 6.7424232 19.475149 8.21875 20.5 C 8.5632039 20.739238 8.8841955 21.195686 9.25 21.78125 C 9.6158045 22.366814 10.050587 23.110654 10.875 23.59375 C 11.574562 24.003623 12.085077 24.226661 12.40625 24.59375 C 12.727423 24.960839 13 25.545938 13 27 L 13 28 L 14 28 L 17 28 L 18 28 L 18 27 C 18 25.603854 18.307509 25.266295 18.71875 24.96875 C 19.129991 24.671205 19.854724 24.518893 20.6875 24.03125 C 21.54843 23.527214 22.023099 22.758736 22.5 22.0625 C 22.976901 21.366264 23.459423 20.723239 23.78125 20.5 C 25.257528 19.475183 25.791597 18.267488 25.90625 17.34375 C 26.020903 16.420012 25.93286 16.039277 26.15625 15.71875 C 27.281475 14.104791 27.074523 12.400662 26.4375 11.3125 C 26.118988 10.768419 25.738517 10.36487 25.40625 10.03125 C 25.073983 9.6976298 24.758601 9.4223058 24.71875 9.375 C 24.55829 9.1847576 24.331689 8.4622903 23.9375 7.6875 C 23.740406 7.3001048 23.465707 6.9014858 23.03125 6.5625 C 22.596793 6.2235142 22.019962 6 21.375 6 C 21.2131 6 21.060629 6.0263841 20.90625 6.0625 C 20.346827 5.8013968 19.687583 5.625 18.9375 5.625 C 18.92237 5.625 18.937342 5.66527 18.84375 5.59375 C 18.750158 5.5222303 18.591647 5.3482534 18.375 5.125 C 17.941706 4.6784932 17.131595 4 16 4 z M 16 6 C 16.433405 6 16.575544 6.1582568 16.9375 6.53125 C 17.118478 6.7177466 17.316436 6.9517072 17.625 7.1875 C 17.933564 7.4232928 18.414628 7.625 18.9375 7.625 C 19.027249 7.625 19.105492 7.6496725 19.1875 7.65625 C 19.040931 8.020143 18.926751 8.4026663 18.875 8.8125 C 18.867854 8.8161949 18.880251 8.8143144 18.84375 8.84375 C 18.72208 8.941869 18.450739 9.1021604 18.125 9.34375 C 17.473522 9.8269292 16.677055 10.874949 16.84375 12.34375 C 16.93444 13.139346 16.8687 13.442234 16.71875 14.03125 C 16.568801 14.620266 16.31723 15.446135 16.1875 16.90625 C 16.14604 17.373539 16.050801 17.66747 15.9375 17.9375 C 15.885075 17.648252 15.848496 17.312959 15.8125 16.90625 C 15.683294 15.446122 15.431262 14.620513 15.28125 14.03125 C 15.131238 13.441987 15.066001 13.139341 15.15625 12.34375 C 15.323584 10.874862 14.52666 9.8269494 13.875 9.34375 C 13.54917 9.1021503 13.277997 8.9418961 13.15625 8.84375 C 13.119726 8.8143062 13.132146 8.8162104 13.125 8.8125 C 13.072012 8.3928732 12.965227 7.9959764 12.8125 7.625 C 13.951449 7.6020978 14.743675 6.9531925 15.1875 6.53125 C 15.639353 6.1016755 15.686349 6 16 6 z M 10.625 8 C 10.69839 8 10.729771 7.970842 10.84375 8.125 C 10.957729 8.2791576 11.071334 8.6315159 11.125 9.09375 C 11.19509 9.6941826 11.593716 10.154302 11.90625 10.40625 C 12.218784 10.658198 12.488205 10.789725 12.6875 10.9375 C 13.08609 11.233051 13.254916 11.258888 13.15625 12.125 C 13.040499 13.145409 13.18076 13.859763 13.34375 14.5 C 13.506738 15.140237 13.695706 15.773878 13.8125 17.09375 C 13.934013 18.466684 14.211161 19.363305 14.53125 20 C 14.094482 20.666452 13.689842 21.536989 13.40625 22.8125 C 12.853124 22.36272 12.283919 22.114585 11.875 21.875 C 11.600413 21.714096 11.297446 21.326186 10.9375 20.75 C 10.577554 20.173814 10.166546 19.424762 9.375 18.875 C 8.2353268 18.083851 8.1637634 17.658601 8.09375 17.09375 C 8.023737 16.528899 8.159068 15.583155 7.46875 14.59375 C 6.7129277 13.509641 6.9091661 12.979501 7.28125 12.34375 C 7.4672919 12.025875 7.7260051 11.712568 8 11.4375 C 8.2739949 11.162432 8.5584611 10.957301 8.8125 10.65625 C 9.4444777 9.9077714 9.5924387 9.0876127 9.84375 8.59375 C 9.9694056 8.3468187 10.087384 8.20311 10.1875 8.125 C 10.287616 8.04689 10.357962 8 10.625 8 z M 21.28125 8 C 21.312517 7.9880197 21.338306 8 21.375 8 C 21.642038 8 21.712394 8.046892 21.8125 8.125 C 21.912606 8.203108 22.030594 8.3467702 22.15625 8.59375 C 22.407561 9.0877097 22.55596 9.9074924 23.1875 10.65625 C 23.441649 10.957944 23.725986 11.16237 24 11.4375 C 24.274014 11.71263 24.532637 12.025831 24.71875 12.34375 C 25.090977 12.979588 25.287025 13.509709 24.53125 14.59375 C 23.84164 15.583223 23.976347 16.560238 23.90625 17.125 C 23.83615 17.689762 23.764722 18.083817 22.625 18.875 C 21.810827 19.439761 21.314849 20.249736 20.84375 20.9375 C 20.372651 21.625264 19.92657 22.172536 19.6875 22.3125 C 19.287276 22.546857 18.406759 22.710295 17.53125 23.34375 C 16.850046 23.836621 16.401339 24.799937 16.1875 26 L 15.09375 26 C 15.222352 23.161731 15.703426 21.755283 16.28125 20.9375 C 16.610334 20.471754 17.023785 20.093975 17.40625 19.5 C 17.788715 18.906025 18.096805 18.116021 18.1875 17.09375 C 18.30477 15.773865 18.493199 15.140484 18.65625 14.5 C 18.819301 13.859516 18.960063 13.145404 18.84375 12.125 C 18.74545 11.258801 18.91398 11.233071 19.3125 10.9375 C 19.511761 10.789715 19.781295 10.658225 20.09375 10.40625 C 20.406205 10.154275 20.80493 9.6940324 20.875 9.09375 C 20.928666 8.6315159 21.042271 8.2791576 21.15625 8.125 C 21.21324 8.0479212 21.249983 8.0119803 21.28125 8 z" overflow="visible" font-family="Sans" fill="#000000"/></svg>
