<?xml version="1.0" encoding="utf-8"?>
<svg xmlns="http://www.w3.org/2000/svg" viewBox="0 0 32 32" fill="#000000"><path style="text-indent:0;text-align:start;line-height:normal;text-transform:none;block-progression:tb;-inkscape-font-specification:Bitstream Vera Sans" d="M 7 5 L 7 6 L 7 26 L 7 27 L 8 27 L 24 27 L 25 27 L 25 26 L 25 6 L 25 5 L 24 5 L 8 5 L 7 5 z M 9 7 L 13 7 L 13 12 L 9 12 L 9 7 z M 15 7 L 23 7 L 23 12 L 15 12 L 15 7 z M 15 14 L 23 14 L 23 17 L 15 17 L 15 14 z M 9 19 L 13 19 L 13 25 L 9 25 L 9 19 z M 15 19 L 19 19 L 19 25 L 15 25 L 15 19 z" fill="#000000"/></svg>
