<?xml version="1.0" encoding="utf-8"?>
<svg xmlns="http://www.w3.org/2000/svg" viewBox="0 0 32 32" fill="#000000"><path style="text-indent:0;text-align:start;line-height:normal;text-transform:none;block-progression:tb;-inkscape-font-specification:Bitstream Vera Sans" d="M 21.625 2.3125 L 20.9375 2.96875 L 7.625 14.84375 L 7.4375 15.03125 L 7.34375 15.3125 L 5.03125 22.8125 L 4.875 23.375 L 5.28125 23.8125 L 5.5 24.0625 L 3.28125 26.28125 L 4.71875 27.71875 L 6.9375 25.5 L 7.1875 25.71875 L 7.625 26.125 L 8.1875 25.96875 L 15.6875 23.65625 L 15.96875 23.5625 L 16.15625 23.375 L 28.03125 10.0625 L 28.6875 9.375 L 28 8.6875 L 22.3125 3 L 21.625 2.3125 z M 21.5625 5.0625 L 25.9375 9.4375 L 22.59375 13.1875 L 17.8125 8.40625 L 21.5625 5.0625 z M 16.34375 9.75 L 21.25 14.65625 L 15.34375 21.25 L 9.75 15.65625 L 16.34375 9.75 z M 8.78125 17.5 L 13.5 22.21875 L 8.15625 23.84375 L 7.15625 22.84375 L 8.78125 17.5 z M 13 26 L 7 28 L 28 28 L 28 26 L 13 26 z" overflow="visible" font-family="Bitstream Vera Sans" fill="#000000"/></svg>
