<?xml version="1.0" encoding="utf-8"?>
<svg xmlns="http://www.w3.org/2000/svg" viewBox="0 0 32 32" fill="#000000"><path d="M 7.3125 5 L 4.25 12.15625 L 14.96875 16.75 L 16.375 13.46875 L 21.15625 14.65625 L 23.5625 5 L 21.5 5 L 19.71875 12.21875 L 17.1875 11.59375 L 20.03125 5 L 17.125 5 C 17.351 5.433 17.416 5.89325 17.25 6.28125 C 16.87 7.16525 15.433 7.436 14.125 6.875 C 13.185 6.47 12.537 5.715 12.375 5 L 10.375 5 C 10.529 6.488 11.62475 7.9475 13.34375 8.6875 C 14.05675 8.9935 14.801 9.15625 15.5 9.15625 C 15.696 9.15625 15.8735 9.148 16.0625 9.125 L 14.46875 12.84375 C 13.75975 12.63575 12.997 12.95475 12.625 13.59375 L 8.15625 11.65625 C 8.36425 10.94725 8.04525 10.1845 7.40625 9.8125 L 9.5 5 L 7.3125 5 z M 11.28125 9.78125 C 10.967157 9.7794225 10.663091 9.9432793 10.53125 10.25 C 10.355462 10.658962 10.528538 11.136712 10.9375 11.3125 C 11.346461 11.488288 11.824212 11.315212 12 10.90625 C 12.175788 10.497289 12.002711 10.019538 11.59375 9.84375 C 11.49151 9.7998029 11.385948 9.7818592 11.28125 9.78125 z M 20.53125 16 C 18.890082 16 17.142802 16.740463 15.65625 17.5 C 14.912974 17.879768 14.236704 18.281086 13.71875 18.625 C 13.618426 18.691614 13.553475 18.74889 13.46875 18.8125 L 13.46875 18.78125 L 13.1875 19 L 13.1875 19.03125 C 13.160758 19.052538 13.119891 19.073054 13.09375 19.09375 L 13.0625 19.09375 L 7.59375 18.1875 C 6.1062682 17.939832 4.6327286 18.819089 4.15625 20.25 C 3.6578845 21.746567 4.3977137 23.424889 5.84375 24.0625 C 7.3675702 24.733919 9.7533634 25.691202 11.90625 26.5 C 12.982693 26.904399 13.991592 27.26391 14.8125 27.53125 C 15.222954 27.66492 15.597865 27.763333 15.90625 27.84375 C 16.214635 27.924167 16.408646 28 16.75 28 C 17.459899 28 17.959683 27.714696 18.53125 27.40625 C 19.102817 27.097804 19.692243 26.718158 20.28125 26.34375 C 20.870257 25.969342 21.460317 25.597069 21.9375 25.34375 C 22.414683 25.090431 22.838588 25 22.8125 25 C 23.902573 25 25.125 25.46875 25.125 25.46875 L 25.90625 23.625 C 25.90625 23.625 24.448427 23 22.8125 23 C 22.104912 23 21.58241 23.284569 21 23.59375 C 20.41759 23.902931 19.809618 24.280658 19.21875 24.65625 C 18.627882 25.031842 18.033277 25.402196 17.5625 25.65625 C 17.091723 25.910304 16.687101 26 16.75 26 C 16.851354 26 16.652369 25.97043 16.40625 25.90625 C 16.160131 25.84207 15.824312 25.750971 15.4375 25.625 C 14.663877 25.373059 13.652432 25.022726 12.59375 24.625 C 10.476387 23.829548 8.1214298 22.864331 6.65625 22.21875 C 6.1382863 21.990361 5.8828655 21.445683 6.0625 20.90625 C 6.2320214 20.397161 6.7194818 20.067918 7.25 20.15625 L 12.0625 20.96875 C 11.982764 21.611463 12.102243 22.277464 12.5 22.84375 C 13.205977 23.847145 14.499406 24.249193 15.65625 23.84375 L 15.71875 23.8125 L 15.75 23.8125 L 20.1875 21.6875 L 19.34375 19.875 L 15 21.96875 C 14.9896 21.97235 14.97919 21.96555 14.96875 21.96875 C 14.656597 22.06374 14.314678 21.95709 14.125 21.6875 C 13.975404 21.474521 13.951266 21.223362 14.03125 21 L 14.1875 20.78125 C 14.165289 20.805762 14.163922 20.801959 14.21875 20.71875 C 14.244321 20.69181 14.275166 20.686038 14.3125 20.65625 C 14.431974 20.56093 14.620977 20.429168 14.84375 20.28125 C 15.289296 19.985414 15.888776 19.625482 16.5625 19.28125 C 17.909948 18.592787 19.564418 18 20.53125 18 C 22.922005 18 27.21875 19.625 27.21875 19.625 L 27.96875 17.75 C 27.96875 17.75 23.728495 16 20.53125 16 z" fill="#000000"/></svg>
