<?xml version="1.0" encoding="utf-8"?>
<svg xmlns="http://www.w3.org/2000/svg" viewBox="0 0 32 32" fill="#000000"><path style="text-indent:0;text-align:start;line-height:normal;text-transform:none;block-progression:tb;-inkscape-font-specification:Sans" d="M 5 4 L 5 28 L 11.71875 28 L 9.75 26 L 7 26 L 7 24.5 L 7 20.5 L 7 16.5 L 7 12.5 L 7 8.5 L 7 6 L 9.5 6 L 13.5 6 L 17.5 6 L 21.5 6 L 24 6 L 24 8.5 L 24 10.59375 L 23.28125 11.28125 L 11.28125 23.28125 L 10.59375 24 L 11.28125 24.6875 L 15.21875 28.6875 L 15.9375 29.40625 L 16.65625 28.71875 L 28.71875 16.65625 L 29.40625 15.9375 L 28.6875 15.21875 L 26 12.5625 L 26 4 L 5 4 z M 24 8.5 C 24 8.2238576 23.776142 8 23.5 8 C 23.223858 8 23 8.2238576 23 8.5 C 23 8.7761424 23.223858 9 23.5 9 C 23.776142 9 24 8.7761424 24 8.5 z M 21.5 6 C 21.223858 6 21 6.2238576 21 6.5 C 21 6.7761424 21.223858 7 21.5 7 C 21.776142 7 22 6.7761424 22 6.5 C 22 6.2238576 21.776142 6 21.5 6 z M 17.5 6 C 17.223858 6 17 6.2238576 17 6.5 C 17 6.7761424 17.223858 7 17.5 7 C 17.776142 7 18 6.7761424 18 6.5 C 18 6.2238576 17.776142 6 17.5 6 z M 13.5 6 C 13.223858 6 13 6.2238576 13 6.5 C 13 6.7761424 13.223858 7 13.5 7 C 13.776142 7 14 6.7761424 14 6.5 C 14 6.2238576 13.776142 6 13.5 6 z M 9.5 6 C 9.2238576 6 9 6.2238576 9 6.5 C 9 6.7761424 9.2238576 7 9.5 7 C 9.7761424 7 10 6.7761424 10 6.5 C 10 6.2238576 9.7761424 6 9.5 6 z M 7 8.5 C 7 8.7761424 7.2238576 9 7.5 9 C 7.7761424 9 8 8.7761424 8 8.5 C 8 8.2238576 7.7761424 8 7.5 8 C 7.2238576 8 7 8.2238576 7 8.5 z M 7 12.5 C 7 12.776142 7.2238576 13 7.5 13 C 7.7761424 13 8 12.776142 8 12.5 C 8 12.223858 7.7761424 12 7.5 12 C 7.2238576 12 7 12.223858 7 12.5 z M 7 16.5 C 7 16.776142 7.2238576 17 7.5 17 C 7.7761424 17 8 16.776142 8 16.5 C 8 16.223858 7.7761424 16 7.5 16 C 7.2238576 16 7 16.223858 7 16.5 z M 7 20.5 C 7 20.776142 7.2238576 21 7.5 21 C 7.7761424 21 8 20.776142 8 20.5 C 8 20.223858 7.7761424 20 7.5 20 C 7.2238576 20 7 20.223858 7 20.5 z M 7 24.5 C 7 24.776142 7.2238576 25 7.5 25 C 7.7761424 25 8 24.776142 8 24.5 C 8 24.223858 7.7761424 24 7.5 24 C 7.2238576 24 7 24.223858 7 24.5 z M 9.5 8 C 9.2238576 8 9 8.2238576 9 8.5 C 9 8.7761424 9.2238576 9 9.5 9 C 9.7761424 9 10 8.7761424 10 8.5 C 10 8.2238576 9.7761424 8 9.5 8 z M 11.5 8 C 11.223858 8 11 8.2238576 11 8.5 C 11 8.7761424 11.223858 9 11.5 9 C 11.776142 9 12 8.7761424 12 8.5 C 12 8.2238576 11.776142 8 11.5 8 z M 13.5 8 C 13.223858 8 13 8.2238576 13 8.5 C 13 8.7761424 13.223858 9 13.5 9 C 13.776142 9 14 8.7761424 14 8.5 C 14 8.2238576 13.776142 8 13.5 8 z M 15.5 8 C 15.223858 8 15 8.2238576 15 8.5 C 15 8.7761424 15.223858 9 15.5 9 C 15.776142 9 16 8.7761424 16 8.5 C 16 8.2238576 15.776142 8 15.5 8 z M 17.5 8 C 17.223858 8 17 8.2238576 17 8.5 C 17 8.7761424 17.223858 9 17.5 9 C 17.776142 9 18 8.7761424 18 8.5 C 18 8.2238576 17.776142 8 17.5 8 z M 19.5 8 C 19.223858 8 19 8.2238576 19 8.5 C 19 8.7761424 19.223858 9 19.5 9 C 19.776142 9 20 8.7761424 20 8.5 C 20 8.2238576 19.776142 8 19.5 8 z M 21.5 8 C 21.223858 8 21 8.2238576 21 8.5 C 21 8.7761424 21.223858 9 21.5 9 C 21.776142 9 22 8.7761424 22 8.5 C 22 8.2238576 21.776142 8 21.5 8 z M 9.5 10 C 9.2238576 10 9 10.223858 9 10.5 C 9 10.776142 9.2238576 11 9.5 11 C 9.7761424 11 10 10.776142 10 10.5 C 10 10.223858 9.7761424 10 9.5 10 z M 13.5 10 C 13.223858 10 13 10.223858 13 10.5 C 13 10.776142 13.223858 11 13.5 11 C 13.776142 11 14 10.776142 14 10.5 C 14 10.223858 13.776142 10 13.5 10 z M 17.5 10 C 17.223858 10 17 10.223858 17 10.5 C 17 10.776142 17.223858 11 17.5 11 C 17.776142 11 18 10.776142 18 10.5 C 18 10.223858 17.776142 10 17.5 10 z M 21.5 10 C 21.223858 10 21 10.223858 21 10.5 C 21 10.776142 21.223858 11 21.5 11 C 21.776142 11 22 10.776142 22 10.5 C 22 10.223858 21.776142 10 21.5 10 z M 9.5 12 C 9.2238576 12 9 12.223858 9 12.5 C 9 12.776142 9.2238576 13 9.5 13 C 9.7761424 13 10 12.776142 10 12.5 C 10 12.223858 9.7761424 12 9.5 12 z M 11.5 12 C 11.223858 12 11 12.223858 11 12.5 C 11 12.776142 11.223858 13 11.5 13 C 11.776142 13 12 12.776142 12 12.5 C 12 12.223858 11.776142 12 11.5 12 z M 13.5 12 C 13.223858 12 13 12.223858 13 12.5 C 13 12.776142 13.223858 13 13.5 13 C 13.776142 13 14 12.776142 14 12.5 C 14 12.223858 13.776142 12 13.5 12 z M 15.5 12 C 15.223858 12 15 12.223858 15 12.5 C 15 12.776142 15.223858 13 15.5 13 C 15.776142 13 16 12.776142 16 12.5 C 16 12.223858 15.776142 12 15.5 12 z M 17.5 12 C 17.223858 12 17 12.223858 17 12.5 C 17 12.776142 17.223858 13 17.5 13 C 17.776142 13 18 12.776142 18 12.5 C 18 12.223858 17.776142 12 17.5 12 z M 19.5 12 C 19.223858 12 19 12.223858 19 12.5 C 19 12.776142 19.223858 13 19.5 13 C 19.776142 13 20 12.776142 20 12.5 C 20 12.223858 19.776142 12 19.5 12 z M 24.03125 13.40625 L 26.5625 15.9375 L 15.9375 26.5625 L 13.40625 24.03125 L 15 22.4375 L 16.28125 23.71875 L 17.71875 22.28125 L 16.4375 21 L 18 19.4375 L 19.28125 20.71875 L 20.71875 19.28125 L 19.4375 18 L 21 16.4375 L 22.28125 17.71875 L 23.71875 16.28125 L 22.4375 15 L 24.03125 13.40625 z M 9.5 14 C 9.2238576 14 9 14.223858 9 14.5 C 9 14.776142 9.2238576 15 9.5 15 C 9.7761424 15 10 14.776142 10 14.5 C 10 14.223858 9.7761424 14 9.5 14 z M 13.5 14 C 13.223858 14 13 14.223858 13 14.5 C 13 14.776142 13.223858 15 13.5 15 C 13.776142 15 14 14.776142 14 14.5 C 14 14.223858 13.776142 14 13.5 14 z M 17.5 14 C 17.223858 14 17 14.223858 17 14.5 C 17 14.776142 17.223858 15 17.5 15 C 17.776142 15 18 14.776142 18 14.5 C 18 14.223858 17.776142 14 17.5 14 z M 9.5 16 C 9.2238576 16 9 16.223858 9 16.5 C 9 16.776142 9.2238576 17 9.5 17 C 9.7761424 17 10 16.776142 10 16.5 C 10 16.223858 9.7761424 16 9.5 16 z M 11.5 16 C 11.223858 16 11 16.223858 11 16.5 C 11 16.776142 11.223858 17 11.5 17 C 11.776142 17 12 16.776142 12 16.5 C 12 16.223858 11.776142 16 11.5 16 z M 13.5 16 C 13.223858 16 13 16.223858 13 16.5 C 13 16.776142 13.223858 17 13.5 17 C 13.776142 17 14 16.776142 14 16.5 C 14 16.223858 13.776142 16 13.5 16 z M 15.5 16 C 15.223858 16 15 16.223858 15 16.5 C 15 16.776142 15.223858 17 15.5 17 C 15.776142 17 16 16.776142 16 16.5 C 16 16.223858 15.776142 16 15.5 16 z M 9.5 18 C 9.2238576 18 9 18.223858 9 18.5 C 9 18.776142 9.2238576 19 9.5 19 C 9.7761424 19 10 18.776142 10 18.5 C 10 18.223858 9.7761424 18 9.5 18 z M 13.5 18 C 13.223858 18 13 18.223858 13 18.5 C 13 18.776142 13.223858 19 13.5 19 C 13.776142 19 14 18.776142 14 18.5 C 14 18.223858 13.776142 18 13.5 18 z M 9.5 20 C 9.2238576 20 9 20.223858 9 20.5 C 9 20.776142 9.2238576 21 9.5 21 C 9.7761424 21 10 20.776142 10 20.5 C 10 20.223858 9.7761424 20 9.5 20 z M 11.5 20 C 11.223858 20 11 20.223858 11 20.5 C 11 20.776142 11.223858 21 11.5 21 C 11.776142 21 12 20.776142 12 20.5 C 12 20.223858 11.776142 20 11.5 20 z M 9.5 22 C 9.2238576 22 9 22.223858 9 22.5 C 9 22.776142 9.2238576 23 9.5 23 C 9.7761424 23 10 22.776142 10 22.5 C 10 22.223858 9.7761424 22 9.5 22 z M 26 22.1875 L 24 24.1875 L 24 26 L 22.1875 26 L 20.1875 28 L 26 28 L 26 22.1875 z M 9.5 24 C 9.2238576 24 9 24.223858 9 24.5 C 9 24.776142 9.2238576 25 9.5 25 C 9.7761424 25 10 24.776142 10 24.5 C 10 24.223858 9.7761424 24 9.5 24 z" fill="#000000"/></svg>
