<?xml version="1.0" encoding="utf-8"?>
<svg xmlns="http://www.w3.org/2000/svg" viewBox="0 0 32 32" fill="#000000"><path style="text-indent:0;text-align:start;line-height:normal;text-transform:none;block-progression:tb;-inkscape-font-specification:Bitstream Vera Sans" d="M 16.5 4.09375 L 8.5 14.59375 L 9.90625 16 L 18.09375 5.40625 L 16.5 4.09375 z M 26.59375 7.8125 L 13.09375 19.1875 L 14.5 20.59375 L 27.90625 9.40625 L 26.59375 7.8125 z M 7.1875 15.59375 L 6.5 16.28125 L 4.90625 17.90625 C 3.639602 19.172898 3.639602 21.233352 4.90625 22.5 L 6.5 24.09375 L 6.5 24.125 L 6.53125 24.15625 C 6.6806165 24.28902 6.8333183 24.399052 7 24.5 L 7 26 L 5 26 L 5 28 L 8.40625 28 L 11 28 L 11 26 L 9 26 L 9 24.9375 C 9.7583652 24.873708 10.508239 24.585511 11.09375 24 L 11.125 23.96875 L 12.71875 22.40625 L 13.40625 21.6875 L 12.6875 21 L 7.90625 16.28125 L 7.1875 15.59375 z M 7.21875 18.40625 L 10.59375 21.6875 L 9.6875 22.59375 C 9.1652364 23.116014 8.4212376 23.117824 7.90625 22.6875 L 7.875 22.65625 L 6.3125 21.09375 C 5.779148 20.560398 5.779148 19.845852 6.3125 19.3125 L 7.21875 18.40625 z" overflow="visible" font-family="Bitstream Vera Sans" fill="#000000"/></svg>
