<?xml version="1.0" encoding="utf-8"?>
<svg xmlns="http://www.w3.org/2000/svg" viewBox="0 0 32 32" fill="#000000"><path style="text-indent:0;text-align:start;line-height:normal;text-transform:none;block-progression:tb;-inkscape-font-specification:Bitstream Vera Sans" d="M 6 4 L 6 5 L 6 27 L 6 28 L 7 28 L 25 28 L 26 28 L 26 27 L 26 5 L 26 4 L 25 4 L 7 4 L 6 4 z M 8 6 L 24 6 L 24 26 L 8 26 L 8 6 z M 18 8 C 17.447715 8 17 8.4477153 17 9 C 17 9.5522847 17.447715 10 18 10 C 18.552285 10 19 9.5522847 19 9 C 19 8.4477153 18.552285 8 18 8 z M 21 8 C 20.447715 8 20 8.4477153 20 9 C 20 9.5522847 20.447715 10 21 10 C 21.552285 10 22 9.5522847 22 9 C 22 8.4477153 21.552285 8 21 8 z M 16 12 C 12.698136 12 10 14.698136 10 18 C 10 21.301864 12.698136 24 16 24 C 19.301864 24 22 21.301864 22 18 C 22 14.698136 19.301864 12 16 12 z M 16 14 C 18.081565 14 19.733108 15.569128 19.9375 17.59375 C 19.554322 17.866753 19.203588 17.897621 18.71875 17.84375 C 18.090476 17.77394 17.28125 17.46875 16.40625 17.09375 C 15.53125 16.71875 14.590476 16.273942 13.53125 16.15625 C 13.177589 16.116954 12.814457 16.156957 12.4375 16.21875 C 13.090481 14.904318 14.423561 14 16 14 z M 12.84375 18.125 C 12.976436 18.118786 13.124181 18.138798 13.28125 18.15625 C 13.909524 18.22606 14.71875 18.53125 15.59375 18.90625 C 16.46875 19.28125 17.409524 19.726058 18.46875 19.84375 C 18.822411 19.883046 19.185543 19.843043 19.5625 19.78125 C 18.909519 21.095682 17.576439 22 16 22 C 13.918435 22 12.266892 20.430872 12.0625 18.40625 C 12.321543 18.221689 12.566861 18.137967 12.84375 18.125 z" overflow="visible" font-family="Bitstream Vera Sans" fill="#000000"/></svg>
