<?xml version="1.0" encoding="utf-8"?>
<svg xmlns="http://www.w3.org/2000/svg" viewBox="-8 10 32 32" fill="#000000"><path d="M 15.65625 3 C 13.716422 3.0805312 11.82975 3.79675 10.3125 5.03125 C 9.9025 5.32925 9.512 5.71975 9.125 6.21875 C 7.77 7.82875 7 9.861 7 12 C 7 12.306 7.00125 12.60625 7.03125 12.90625 C 7.07025 13.28725 7.0955 13.658 7.0625 14 L 7.03125 14 L 7.03125 14.03125 C 6.99325 15.70925 4.681 18 3 18 L 3 20 C 4.007 20 5.058 19.5895 6 18.9375 C 5.981 22.1795 7.61175 25.141 10.09375 27 L 7 27 L 7 29 L 16 29 L 25 29 L 25 27 L 22 27 C 22.349 26.738 22.683 26.46725 23 26.15625 C 24.941 24.25925 26 21.714 26 19 C 26 18.981 26 18.9565 26 18.9375 C 26.944 19.5855 27.994 20 29 20 L 29 18 C 27.553 18 25.64875 16.32425 25.09375 14.78125 C 25.08075 14.73925 25.0745 14.69825 25.0625 14.65625 C 25.0035 14.46725 24.9505 14.27375 24.9375 14.09375 C 24.8935 13.75375 24.8955 13.4125 24.9375 13.0625 C 25.0835 11.8445 24.982 10.61925 24.625 9.40625 C 24.303 8.31125 23.7505 7.3115 23.0625 6.4375 L 23.09375 6.40625 C 22.61275 5.72925 22.05625 5.25825 21.53125 4.90625 C 20.39325 4.01425 19.05675 3.379 17.59375 3.125 C 16.94025 3.012 16.302859 2.9731563 15.65625 3 z M 13 6 C 13.329 6 14.956 6.1085 15 7.9375 C 15 7.9625 15 7.975 15 8 L 17 8 C 17 7.974 17 7.9635 17 7.9375 C 17.043 6.1845 18.5245 6.008 18.9375 6 C 18.9775 6.002 19.634 6.05125 20.375 6.53125 C 21.463 7.40225 22.2825 8.59375 22.6875 9.96875 C 22.9665 10.91975 23.0515 11.8655 22.9375 12.8125 C 22.8925 13.1925 22.9135 13.59275 22.9375 13.96875 C 22.9375 14.02275 22.9345 14.071 22.9375 14.125 L 23 17 C 23 19.509 22.16025 21.7165 20.65625 23.1875 C 19.39025 24.4245 17.7165 25.065 15.8125 25 C 11.7265 24.907 8.927 21.613 9 17 L 9.03125 14.3125 C 9.09025 13.8015 9.08825 13.27675 9.03125 12.71875 C 9.00725 12.48675 9 12.238 9 12 C 9 9.932 9.918 7.99125 11.5 6.65625 C 12.29 6.07025 12.992 6.002 13 6 z M 14 10 C 13.447715 10 13 10.447715 13 11 C 13 11.552285 13.447715 12 14 12 C 14.552285 12 15 11.552285 15 11 C 15 10.447715 14.552285 10 14 10 z M 18 10 C 17.447715 10 17 10.447715 17 11 C 17 11.552285 17.447715 12 18 12 C 18.552285 12 19 11.552285 19 11 C 19 10.447715 18.552285 10 18 10 z M 16 11.875 L 12.3125 13.71875 L 16 17.40625 L 19.6875 13.71875 L 16 11.875 z" transform="translate(-8 10)" fill="#000000"/></svg>
