<?xml version="1.0" encoding="utf-8"?>
<svg xmlns="http://www.w3.org/2000/svg" viewBox="0 0 32 32" fill="#000000"><path d="M 3.71875 2.28125 L 2.28125 3.71875 L 6 7.40625 L 12 13.40625 L 14 15.40625 L 16 17.40625 L 18 19.40625 L 22 23.40625 L 28.28125 29.71875 L 29.71875 28.28125 L 26 24.5625 L 26 7 L 24 7 L 24 22.5625 L 22 20.5625 L 22 7 L 18 7 L 18 16.5625 L 16 14.5625 L 16 7 L 14 7 L 14 12.5625 L 12 10.5625 L 12 7 L 8.4375 7 L 3.71875 2.28125 z M 2 7 L 2 25 L 4 25 L 4 8.25 L 2.75 7 L 2 7 z M 28 7 L 28 25 L 30 25 L 30 7 L 28 7 z M 6 10.25 L 6 25 L 12 25 L 12 16.25 L 6 10.25 z M 14 18.25 L 14 25 L 16 25 L 16 20.25 L 14 18.25 z M 18 22.25 L 18 25 L 20.75 25 L 18 22.25 z" fill="#000000"/></svg>
