<?xml version="1.0" encoding="utf-8"?>
<svg xmlns="http://www.w3.org/2000/svg" viewBox="0 0 32 32" fill="#000000"><path d="M 9 5 L 9 6 L 9 16.84375 C 8.786443 16.770135 8.5874868 16.66702 8.4375 16.5625 C 8.0793226 16.312901 8 16.042136 8 16 L 6 16 C 6 16.05733 5.918885 16.315468 5.5625 16.5625 C 5.2061149 16.809532 4.636638 17 4 17 L 4 19 C 5.035362 19 5.9618851 18.690468 6.6875 18.1875 C 6.8001837 18.109392 6.895686 18.026988 7 17.9375 C 7.1012319 18.023981 7.2036063 18.111617 7.3125 18.1875 C 7.7919998 18.521643 8.3693652 18.745651 9 18.875 L 9 20.84375 C 8.786443 20.770135 8.5874868 20.66702 8.4375 20.5625 C 8.0793226 20.312901 8 20.042136 8 20 L 6 20 C 6 20.05733 5.918885 20.315468 5.5625 20.5625 C 5.2061149 20.809532 4.636638 21 4 21 L 4 23 C 5.035362 23 5.9618851 22.690468 6.6875 22.1875 C 6.8001837 22.109392 6.895686 22.026988 7 21.9375 C 7.1012319 22.023981 7.2036063 22.111617 7.3125 22.1875 C 7.7919998 22.521643 8.3693652 22.745651 9 22.875 L 9 24.84375 C 8.786443 24.770135 8.5874868 24.66702 8.4375 24.5625 C 8.0793226 24.312901 8 24.042136 8 24 L 6 24 C 6 24.05733 5.918885 24.315468 5.5625 24.5625 C 5.2061149 24.809532 4.636638 25 4 25 L 4 27 C 5.035362 27 5.9618851 26.690468 6.6875 26.1875 C 6.8001837 26.109392 6.895686 26.026988 7 25.9375 C 7.1012319 26.023981 7.2036063 26.111617 7.3125 26.1875 C 8.0363226 26.691901 8.9614482 27 10 27 C 11.035362 27 11.961885 26.690468 12.6875 26.1875 C 12.800184 26.109392 12.895686 26.026988 13 25.9375 C 13.101232 26.023981 13.203606 26.111617 13.3125 26.1875 C 14.036323 26.691901 14.961448 27 16 27 C 17.035362 27 17.961885 26.690468 18.6875 26.1875 C 18.800184 26.109392 18.895686 26.026988 19 25.9375 C 19.101232 26.023981 19.203606 26.111617 19.3125 26.1875 C 20.036323 26.691901 20.961448 27 22 27 C 23.035362 27 23.961885 26.690468 24.6875 26.1875 C 24.800184 26.109392 24.895686 26.026988 25 25.9375 C 25.101232 26.023981 25.203606 26.111617 25.3125 26.1875 C 26.036323 26.691901 26.961448 27 28 27 L 28 25 C 27.366552 25 26.795677 24.812099 26.4375 24.5625 C 26.079323 24.312901 26 24.042136 26 24 L 24 24 C 24 24.05733 23.91888 24.315468 23.5625 24.5625 C 23.413264 24.665945 23.213253 24.769975 23 24.84375 L 23 22.875 C 23.630257 22.745335 24.206813 22.520694 24.6875 22.1875 C 24.800184 22.109392 24.895686 22.026988 25 21.9375 C 25.101232 22.023981 25.203606 22.111617 25.3125 22.1875 C 26.036323 22.691901 26.961448 23 28 23 L 28 21 C 27.366552 21 26.795677 20.812099 26.4375 20.5625 C 26.079323 20.312901 26 20.042136 26 20 L 24 20 C 24 20.05733 23.91888 20.315468 23.5625 20.5625 C 23.413264 20.665945 23.213253 20.769975 23 20.84375 L 23 18.875 C 23.630257 18.745335 24.206813 18.520694 24.6875 18.1875 C 24.800184 18.109392 24.895686 18.026988 25 17.9375 C 25.101232 18.023981 25.203606 18.111617 25.3125 18.1875 C 26.036323 18.691901 26.961448 19 28 19 L 28 17 C 27.366552 17 26.795677 16.812099 26.4375 16.5625 C 26.079323 16.312901 26 16.042136 26 16 L 24 16 C 24 16.05733 23.91888 16.315468 23.5625 16.5625 C 23.413264 16.665945 23.213253 16.769975 23 16.84375 L 23 6 L 23 5 L 22 5 L 10 5 L 9 5 z M 11 7 L 21 7 L 21 24.84375 C 20.786443 24.770135 20.587487 24.66702 20.4375 24.5625 C 20.079323 24.312901 20 24.042136 20 24 L 18 24 C 18 24.05733 17.91888 24.315468 17.5625 24.5625 C 17.206115 24.809532 16.636638 25 16 25 C 15.366552 25 14.795677 24.812099 14.4375 24.5625 C 14.079323 24.312901 14 24.042136 14 24 L 12 24 C 12 24.05733 11.91888 24.315468 11.5625 24.5625 C 11.413264 24.665945 11.213253 24.769975 11 24.84375 L 11 7 z M 13 9 L 13 11 L 15 11 L 15 9 L 13 9 z M 17 9 L 17 11 L 19 11 L 19 9 L 17 9 z M 13 13 L 13 15 L 15 15 L 15 13 L 13 13 z M 17 13 L 17 15 L 19 15 L 19 13 L 17 13 z M 13 17 L 13 19 L 15 19 L 15 17 L 13 17 z M 17 17 L 17 19 L 19 19 L 19 17 L 17 17 z M 13 21 L 13 23 L 15 23 L 15 21 L 13 21 z M 17 21 L 17 23 L 19 23 L 19 21 L 17 21 z" fill="#000000"/></svg>
