<?xml version="1.0" encoding="utf-8"?>
<svg xmlns="http://www.w3.org/2000/svg" viewBox="0 0 32 32" fill="#000000"><path style="text-indent:0;text-align:start;line-height:normal;text-transform:none;block-progression:tb;-inkscape-font-specification:Bitstream Vera Sans" d="M 12 5 C 10.354991 5 9 6.3549901 9 8 C 9 9.6450099 10.354991 11 12 11 C 13.645009 11 15 9.6450099 15 8 C 15 6.3549901 13.645009 5 12 5 z M 12 7 C 12.564129 7 13 7.4358709 13 8 C 13 8.5641291 12.564129 9 12 9 C 11.435871 9 11 8.5641291 11 8 C 11 7.4358709 11.435871 7 12 7 z M 1 9 L 1 11 L 2 11 C 2.5545455 11 3 11.445455 3 12 L 3 21 C 3 23.745455 5.2545455 26 8 26 L 24 26 C 26.745455 26 29 23.745455 29 21 L 29 12 C 29 11.445455 29.445455 11 30 11 L 31 11 L 31 9 L 30 9 C 28.354545 9 27 10.354545 27 12 L 27 13 L 23.8125 13 C 23.394282 11.844255 22.292018 11 21 11 C 19.707982 11 18.605718 11.844255 18.1875 13 L 5 13 L 5 12 C 5 10.354545 3.6454545 9 2 9 L 1 9 z M 21 13 C 21.564128 13 22 13.435872 22 14 C 22 14.564128 21.564128 15 21 15 C 20.435872 15 20 14.564128 20 14 C 20 13.435872 20.435872 13 21 13 z M 5 15 L 18.1875 15 C 18.605718 16.155745 19.707982 17 21 17 C 22.292018 17 23.394282 16.155745 23.8125 15 L 27 15 L 27 21 C 27 22.654545 25.654545 24 24 24 L 8 24 C 6.3454545 24 5 22.654545 5 21 L 5 15 z M 12 17 C 10.35499 17 9 18.35499 9 20 C 9 21.64501 10.35499 23 12 23 C 13.64501 23 15 21.64501 15 20 C 15 18.35499 13.64501 17 12 17 z M 12 19 C 12.564128 19 13 19.435872 13 20 C 13 20.564128 12.564128 21 12 21 C 11.435872 21 11 20.564128 11 20 C 11 19.435872 11.435872 19 12 19 z" fill="#000000"/></svg>
