<?xml version="1.0" encoding="utf-8"?>
<svg xmlns="http://www.w3.org/2000/svg" viewBox="0 0 32 32" fill="#000000"><path style="text-indent:0;text-align:start;line-height:normal;text-transform:none;block-progression:tb;-inkscape-font-specification:Sans" d="M 4 4 L 4 5 L 4 9 L 6 9 L 6 6 L 9 6 L 9 4 L 5 4 L 4 4 z M 23 4 L 23 6 L 26 6 L 26 9 L 28 9 L 28 5 L 28 4 L 27 4 L 23 4 z M 12.5625 5 C 9.2324791 6.6359175 7.3267292 9.9781226 7.03125 13.3125 L 7.03125 13.375 L 7 13.40625 L 7 13.4375 L 7 13.5 L 7 13.8125 L 7 13.84375 C 6.99576 14.418295 7.026222 15.178472 7.125 16.09375 L 9.09375 15.90625 C 9.0058776 15.092028 8.9970088 14.382475 9 13.875 L 9 13.84375 L 9 13.5625 L 9 13.5 C 9.2385208 10.808377 10.815521 8.0693325 13.4375 6.78125 L 12.5625 5 z M 17 7 C 12.794 7 10.293 10.28775 10 13.59375 L 10 13.90625 C 9.9934582 14.784307 10.079316 16.284832 10.5 18 L 4 18 L 4 20 L 28 20 L 28 18 L 24 18 L 24 17 L 23 17 C 22.109 17 21.865 16.743 21.75 16.625 C 21.203 16.062 20.991 14.64625 21 14.03125 C 21 12.94925 20.59775 11.9475 19.84375 11.1875 C 19.08975 10.4265 18.071 10 17 10 C 14.598 10 13.171 11.85325 13 13.78125 L 13 13.96875 C 12.99425 14.8025 13.077975 16.323285 13.59375 18 L 12.5625 18 C 12.079637 16.299739 11.993486 14.783551 12 13.9375 L 12 13.6875 C 12.206 11.3515 13.996 9 17 9 C 18.339 9 19.58725 9.51675 20.53125 10.46875 C 21.47225 11.41775 22 12.6985 22 14.0625 L 24 14.0625 C 24 12.1665 23.28475 10.3895 21.96875 9.0625 C 20.64575 7.7285 18.876 7 17 7 z M 17 12 C 17.533 12 18.03025 12.21475 18.40625 12.59375 C 18.78725 12.97775 19 13.49525 19 14.03125 C 19 14.05705 18.967384 16.607358 20.28125 18 L 19.03125 18 C 17.946985 16.286303 17.999131 14.056445 18 14.03125 C 18 14.02025 18 14.011 18 14 C 18 13.448 17.552 13 17 13 C 16.46 13 16.019 13.43275 16 13.96875 C 15.996308 14.080993 15.96923 16.038717 16.8125 18 L 15.71875 18 C 15.092385 16.350323 14.991479 14.747033 15 13.875 C 15.08 12.972 15.743 12 17 12 z M 12.09375 22 C 12.56375 22.785 13.14575 23.55825 13.84375 24.28125 C 14.55175 25.01425 15.3305 25.6635 16.1875 26.1875 L 17.25 24.46875 C 16.538 24.03275 15.87225 23.487 15.28125 22.875 C 15.00425 22.588 14.76325 22.303 14.53125 22 L 12.09375 22 z M 15.8125 22 C 15.8715 22.064 15.939 22.1245 16 22.1875 C 17.774 24.0235 20.195 25 23 25 L 23 23 C 21.497 23 20.149 22.654 19 22 L 15.8125 22 z M 4 23 L 4 27 L 4 28 L 5 28 L 9 28 L 9 26 L 6 26 L 6 23 L 4 23 z M 26 23 L 26 26 L 23 26 L 23 28 L 27 28 L 28 28 L 28 27 L 28 23 L 26 23 z" fill="#000000"/></svg>
