<?xml version="1.0" encoding="utf-8"?>
<svg xmlns="http://www.w3.org/2000/svg" viewBox="0 0 32 32" fill="#000000"><path d="M 18 4 C 16.535497 4 15.161515 4.3754032 13.9375 5 C 13.9375 5 13.9077 4.999898 13.90625 5 C 13.820316 5.0060458 11.237956 5.1978836 8.59375 6.34375 C 7.2493396 6.9263502 5.8847493 7.7490604 4.8125 9 C 3.7402507 10.25094 3 11.939467 3 14 C 3 15.372466 3.4882111 16.481412 4.21875 17.25 C 4.9492889 18.018588 5.8541418 18.444329 6.71875 18.6875 C 6.820796 18.7162 6.9301062 18.725726 7.03125 18.75 C 7.3325386 22.839919 10.022507 23.028704 10.78125 23 C 10.993318 23.494757 11.223481 23.964186 11.46875 24.40625 C 13.02882 27.218066 15.347738 29 18 29 C 19.762691 29 21.421036 28.190979 22.75 26.84375 C 23.953732 25.623475 24.877804 23.910774 25.59375 21.875 C 27.502384 21.576014 29 19.988165 29 18 C 29 16.546428 28.104096 15.415158 26.9375 14.71875 C 26.967782 14.157733 27 13.599891 27 13 C 27 8.0414839 22.958516 4 18 4 z M 18 6 C 21.877484 6 25 9.1225161 25 13 C 25 13.717403 24.98165 14.406906 24.9375 15.09375 L 24.875 15.875 L 25.625 16.125 C 26.430471 16.387012 27 17.104609 27 18 C 27 19.116666 26.116666 20 25 20 C 25.130667 20 25.106266 20.0096 24.9375 20 L 24.1875 19.9375 L 23.9375 20.6875 C 23.278462 22.78931 22.348286 24.418729 21.3125 25.46875 C 20.276714 26.518771 19.178309 27 18 27 C 16.234262 27 14.55418 25.844434 13.21875 23.4375 C 13.142886 23.300765 13.072867 23.144362 13 23 L 15 23 C 15 23 18 22.875 18 18 C 18 13.125 16 13 16 13 L 14 13 C 11.886935 13 12.417298 12.047332 11.09375 12 C 11.579426 8.6030078 14.464704 6 18 6 z M 10.78125 7.65625 C 9.7700832 9.01771 9.1385176 10.674635 9.03125 12.46875 C 8.2732156 13.01106 7.3056882 14.171611 7.0625 16.71875 C 6.5102479 16.533722 6.0053481 16.24228 5.65625 15.875 C 5.2617889 15.459994 5 14.940034 5 14 C 5 12.394033 5.5097493 11.249029 6.3125 10.3125 C 7.1152507 9.3759709 8.2506604 8.6570248 9.40625 8.15625 C 9.8731706 7.9539099 10.331179 7.7951692 10.78125 7.65625 z M 14.5 16 C 15.328 16 16 16.672 16 17.5 C 16 18.328 15.328 19 14.5 19 C 13.672 19 13 18.328 13 17.5 C 13 16.672 13.672 16 14.5 16 z M 21.5 16 C 20.671573 16 20 16.671573 20 17.5 C 20 18.328427 20.671573 19 21.5 19 C 22.328427 19 23 18.328427 23 17.5 C 23 16.671573 22.328427 16 21.5 16 z" fill="#000000"/></svg>
