<?xml version="1.0" encoding="utf-8"?>
<svg xmlns="http://www.w3.org/2000/svg" viewBox="0 0 32 32" fill="#000000"><path style="text-indent:0;text-align:start;line-height:normal;text-transform:none;block-progression:tb;-inkscape-font-specification:Sans" d="M 12 3 C 12 5.8411376 13.57261 7.538987 15.0625 8.28125 C 16.55239 9.023513 18 9 18 9 L 21.375 9 L 22.09375 10.4375 L 22.3125 10.875 L 22.8125 10.96875 L 27 11.8125 L 27 13.96875 L 27 14 C 26.9977 14.02842 26.97653 14.273046 26.84375 14.53125 C 26.703748 14.803495 26.628388 15 26 15 C 25.771584 15 25.668151 14.938852 25.4375 14.75 C 25.206849 14.561148 24.910077 14.238126 24.5625 13.84375 C 23.867346 13.054998 22.745641 12 21 12 C 20.066989 12 19.253413 12.358715 18.6875 12.875 C 18.121587 13.391285 17.770335 14.033023 17.53125 14.625 C 17.053081 15.808953 17 16.9375 17 16.9375 L 17 16.96875 C 17 16.96875 16.96629 18.128804 17.40625 19.34375 C 17.626231 19.951223 17.966512 20.601227 18.5625 21.125 C 18.600836 21.158691 18.647085 21.186534 18.6875 21.21875 C 18.485089 21.282695 18.278278 21.361184 18.0625 21.46875 C 17.07284 21.962096 16 23.163164 16 25 C 16 26.836836 17.07284 28.037904 18.0625 28.53125 C 19.05216 29.024596 20 29 20 29 L 20 27 C 20 27 19.44784 26.97315 18.9375 26.71875 C 18.42716 26.464346 18 26.172164 18 25 C 18 23.827836 18.42716 23.535654 18.9375 23.28125 C 19.44784 23.026846 20 23 20 23 L 23.375 23 C 23.162741 23.538498 23 24.198014 23 25 L 25 25 C 25 24.068158 25.84375 22.53125 25.84375 22.53125 L 26 22.28125 L 26 22 L 26 21 L 26 20 L 25.5 20 L 25 19 L 24.5 20 L 21 20 C 20.439096 20 20.132418 19.851227 19.875 19.625 C 19.617582 19.398773 19.423394 19.048777 19.28125 18.65625 C 19.00227 17.885854 18.999834 17.09329 19 17.0625 L 19 17.03125 C 19.0022 17.00147 19.05123 16.176646 19.375 15.375 C 19.53979 14.966977 19.775069 14.608715 20.03125 14.375 C 20.287431 14.141285 20.548511 14 21 14 C 22.023359 14 22.435654 14.445002 23.0625 15.15625 C 23.375923 15.511874 23.699901 15.938852 24.15625 16.3125 C 24.390921 16.504643 24.678048 16.655279 25 16.78125 L 25 18.84375 C 25 18.84375 26.125563 17.896563 26.6875 16.9375 C 27.636748 16.718504 28.320581 16.060717 28.625 15.46875 C 28.999248 14.740995 29 14.03125 29 14.03125 L 29 14 L 29 11 L 29 10.1875 L 28.1875 10.03125 L 23.6875 9.125 L 22.90625 7.5625 L 22.625 7 L 22 7 L 18 7 C 18 7 16.94761 7.003237 15.9375 6.5 C 14.92739 5.996763 14 5.1768624 14 3 L 12 3 z M 8 4 C 8 4 7.9781688 5.4108777 8.5625 6.875 C 8.8546656 7.6070611 9.3001303 8.3911902 10.03125 9 C 10.76237 9.6088098 11.789884 10 13 10 L 13 8 C 12.205616 8 11.707224 7.7661902 11.3125 7.4375 C 10.917776 7.1088098 10.644209 6.6429389 10.4375 6.125 C 10.024081 5.0891223 10 4 10 4 L 8 4 z M 5 7.9375 C 4.8947572 9.4563597 5.5403777 10.463574 6.03125 11.46875 C 6.5221223 12.473926 7 13.631909 7 16 C 7 18.180259 6.072151 18.997598 5.0625 19.5 C 4.052849 20.002402 3 20 3 20 L 3 22 C 3 22 4.447151 22.02285 5.9375 21.28125 C 7.427849 20.539652 9 18.843741 9 16 C 9 14.729165 8.8611016 13.700238 8.65625 12.84375 C 9.0657886 12.945627 9.514871 13 10 13 L 10 11 C 8.3345001 11 7.7872788 10.324177 7.40625 9.5625 C 7.0252212 8.8008231 7 8 7 8 L 6 8 L 5 7.9375 z M 19 10 L 21 11 L 21 10 L 19 10 z M 8 22 C 8 22.500048 7.8552619 22.774652 7.625 23.03125 C 7.3947381 23.287848 7.0263462 23.501481 6.625 23.65625 C 5.8223075 23.965788 4.96875 24 4.96875 24 L 5.03125 26 C 5.03125 26 6.1776925 25.993 7.375 25.53125 C 7.9736538 25.300394 8.6052619 24.954183 9.125 24.375 C 9.6447381 23.795817 10 22.957452 10 22 L 8 22 z M 12 24 C 12 25.621037 11.300123 26.201817 10.53125 26.59375 C 9.762377 26.985683 8.96875 27 8.96875 27 L 9.03125 29 C 9.03125 29 10.237623 29.0026 11.46875 28.375 C 12.699877 27.747433 14 26.300963 14 24 L 12 24 z" overflow="visible" font-family="Sans" fill="#000000"/></svg>
