<?xml version="1.0" encoding="utf-8"?>
<svg xmlns="http://www.w3.org/2000/svg" viewBox="0 0 32 32" fill="#000000"><path style="text-indent:0;text-align:start;line-height:normal;text-transform:none;block-progression:tb;-inkscape-font-specification:Bitstream Vera Sans" d="M 3 7 L 3 8 L 3 24 L 3 25 L 4 25 L 28 25 L 29 25 L 29 24 L 29 8 L 29 7 L 28 7 L 4 7 L 3 7 z M 5 9 L 27 9 L 27 23 L 5 23 L 5 9 z M 11 11 C 8.2504209 11 6 13.250421 6 16 C 6 18.749579 8.2504209 21 11 21 L 22 21 C 24.197294 21 26 19.197294 26 17 C 26 14.802706 24.197294 13 22 13 C 19.802706 13 18 14.802706 18 17 C 18 17.732431 18.214051 18.407407 18.5625 19 L 14.96875 19 C 15.609944 18.159224 16 17.132511 16 16 C 16 13.250421 13.749579 11 11 11 z M 11 13 C 12.668699 13 14 14.331301 14 16 C 14 17.668699 12.668699 19 11 19 C 9.3313011 19 8 17.668699 8 16 C 8 14.331301 9.3313011 13 11 13 z M 22 15 C 23.116414 15 24 15.883586 24 17 C 24 18.116414 23.116414 19 22 19 C 20.883586 19 20 18.116414 20 17 C 20 15.883586 20.883586 15 22 15 z" overflow="visible" font-family="Bitstream Vera Sans" fill="#000000"/></svg>
