<?xml version="1.0" encoding="utf-8"?>
<svg xmlns="http://www.w3.org/2000/svg" viewBox="0 0 32 32" fill="#000000"><path style="text-indent:0;text-align:start;line-height:normal;text-transform:none;block-progression:tb;-inkscape-font-specification:Bitstream Vera Sans" d="M 16 4 C 10.488666 4 6 8.4886661 6 14 L 6 18 C 6 23.511334 10.488666 28 16 28 C 21.511334 28 26 23.511334 26 18 L 26 14 C 26 8.4886661 21.511334 4 16 4 z M 15 6.0625 L 15 13 L 8.0625 13 C 8.513717 9.3769477 11.376948 6.5137169 15 6.0625 z M 17 6.0625 C 18.032768 6.1911216 19.004674 6.5183584 19.875 7 L 17 7 L 17 6.0625 z M 17 9 L 22.25 9 C 22.499746 9.311739 22.704861 9.6523207 22.90625 10 L 17 10 L 17 9 z M 17 12 L 23.75 12 C 23.833209 12.324761 23.89521 12.660436 23.9375 13 L 17 13 L 17 12 z M 8 15 L 24 15 L 24 18 C 24 22.430666 20.430666 26 16 26 C 11.569334 26 8 22.430666 8 18 L 8 15 z" overflow="visible" font-family="Bitstream Vera Sans" fill="#000000"/></svg>
