<?xml version="1.0" encoding="utf-8"?>
<svg xmlns="http://www.w3.org/2000/svg" viewBox="0 0 32 32" fill="#000000"><path style="line-height:normal;text-indent:0;text-align:start;text-decoration-line:none;text-decoration-style:solid;text-decoration-color:#000;text-transform:none;block-progression:tb;isolation:auto;mix-blend-mode:normal" d="M 19 3 C 13.488997 3 9 7.4889971 9 13 C 9 15.396508 9.8510141 17.597385 11.263672 19.322266 L 3.2929688 27.292969 L 4.7070312 28.707031 L 12.677734 20.736328 C 14.402615 22.148986 16.603492 23 19 23 C 24.511003 23 29 18.511003 29 13 C 29 7.4889971 24.511003 3 19 3 z M 19 5 C 23.430123 5 27 8.5698774 27 13 C 27 17.430123 23.430123 21 19 21 C 14.569877 21 11 17.430123 11 13 C 11 8.5698774 14.569877 5 19 5 z M 14 8 L 14 12 L 15.292969 10.707031 L 17.585938 13 L 15.292969 15.292969 L 14 14 L 14 18 L 18 18 L 16.707031 16.707031 L 19 14.414062 L 21.292969 16.707031 L 20 18 L 24 18 L 24 14 L 22.707031 15.292969 L 20.414062 13 L 22.707031 10.707031 L 24 12 L 24 8 L 20 8 L 21.292969 9.2929688 L 19 11.585938 L 16.707031 9.2929688 L 18 8 L 14 8 z" fill="#000000"/></svg>
