<?xml version="1.0" encoding="utf-8"?>
<svg xmlns="http://www.w3.org/2000/svg" viewBox="0 0 32 32" fill="#000000"><path style="text-indent:0;text-align:start;line-height:normal;text-transform:none;block-progression:tb;-inkscape-font-specification:Bitstream Vera Sans" d="M 27 3.59375 L 25.28125 5.28125 L 5.28125 25.28125 L 3.59375 27 L 6 27 L 26 27 L 27 27 L 27 26 L 27 6 L 27 3.59375 z M 25 8.4375 L 25 21 L 22 21 L 21 21 L 21 22 L 21 25 L 13.9375 25 C 13.754812 23.546138 13.199088 22.198255 12.34375 21.09375 L 25 8.4375 z M 10.90625 22.53125 C 11.411287 23.25107 11.757302 24.094189 11.90625 25 L 8.4375 25 L 10.90625 22.53125 z M 23 23 L 25 23 L 25 25 L 23 25 L 23 23 z" overflow="visible" font-family="Bitstream Vera Sans" fill="#000000"/></svg>
