<?xml version="1.0" encoding="utf-8"?>
<svg xmlns="http://www.w3.org/2000/svg" viewBox="0 0 32 32" fill="#000000"><path style="text-indent:0;text-align:start;line-height:normal;text-transform:none;block-progression:tb;-inkscape-font-specification:Bitstream Vera Sans" d="M 11 3 L 11 7 L 13 7 L 13 3 L 11 3 z M 15 4 L 15 7 L 17 7 L 17 4 L 15 4 z M 4.875 8 L 5 9.09375 L 6.8125 26.3125 C 6.9720922 27.830863 8.2852448 29 9.8125 29 L 19.1875 29 C 20.714755 29 22.027908 27.830863 22.1875 26.3125 L 22.65625 22 L 25 22 C 26.64497 22 28 20.64497 28 19 L 28 16 C 28 14.35503 26.64497 13 25 13 L 23.59375 13 L 24 9.09375 L 24.125 8 L 23 8 L 6 8 L 4.875 8 z M 7.125 10 L 21.875 10 L 20.1875 26.09375 C 20.133092 26.611387 19.708245 27 19.1875 27 L 9.8125 27 C 9.2917552 27 8.8669078 26.611387 8.8125 26.09375 L 7.125 10 z M 23.375 15 L 25 15 C 25.56503 15 26 15.43497 26 16 L 26 19 C 26 19.56503 25.56503 20 25 20 L 22.84375 20 L 23.375 15 z" overflow="visible" font-family="Bitstream Vera Sans" fill="#000000"/></svg>
