<?xml version="1.0" encoding="utf-8"?>
<svg xmlns="http://www.w3.org/2000/svg" viewBox="-7 9 32 32" fill="#000000"><path d="M 16 3.90625 L 15.59375 4.09375 L 4.59375 9.09375 L 4 9.34375 L 4 10 L 4 27 L 4 28 L 5 28 L 27 28 L 28 28 L 28 27 L 28 10 L 28 9.34375 L 27.40625 9.09375 L 16.40625 4.09375 L 16 3.90625 z M 16 6.09375 L 26 10.625 L 26 26 L 6 26 L 6 10.625 L 16 6.09375 z M 12.875 10.9375 L 12.875 12.78125 L 13.34375 12.78125 C 12.761346 13.151554 12.229938 13.647649 11.84375 14.21875 L 11.84375 13.9375 L 9.84375 13.9375 L 9.84375 15.8125 L 11.15625 15.8125 C 11.061154 16.196976 11 16.5866 11 17 C 11 17.41355 11.061154 17.802954 11.15625 18.1875 L 9.84375 18.1875 L 9.84375 20.0625 L 11.84375 20.0625 L 11.84375 19.78125 C 12.229938 20.35233 12.761346 20.848535 13.34375 21.21875 L 12.875 21.21875 L 12.875 23.0625 L 14.875 23.0625 L 14.875 21.875 C 15.238939 21.959596 15.610715 22 16 22 C 16.389426 22 16.760991 21.959596 17.125 21.875 L 17.125 23.0625 L 19.125 23.0625 L 19.125 21.21875 L 18.65625 21.21875 C 19.238642 20.848535 19.77015 20.35233 20.15625 19.78125 L 20.15625 20.0625 L 22.15625 20.0625 L 22.15625 18.1875 L 20.84375 18.1875 C 20.938811 17.802954 21 17.41355 21 17 C 21 16.5866 20.938811 16.196976 20.84375 15.8125 L 22.15625 15.8125 L 22.15625 13.9375 L 20.15625 13.9375 L 20.15625 14.21875 C 19.77015 13.647649 19.238642 13.151554 18.65625 12.78125 L 19.125 12.78125 L 19.125 10.9375 L 17.125 10.9375 L 17.125 12.125 C 16.760991 12.040373 16.389426 12 16 12 C 15.610715 12 15.238939 12.040373 14.875 12.125 L 14.875 10.9375 L 12.875 10.9375 z M 16 14 C 17.653 14 19 15.346 19 17 C 19 18.653 17.653 20 16 20 C 14.346 20 13 18.653 13 17 C 13 15.346 14.346 14 16 14 z" transform="translate(-7 9)" fill="#000000"/></svg>
