<?xml version="1.0" encoding="utf-8"?>
<svg xmlns="http://www.w3.org/2000/svg" viewBox="0 0 32 32" fill="#000000"><path style="line-height:normal;text-indent:0;text-align:start;text-decoration-line:none;text-decoration-style:solid;text-decoration-color:#000;text-transform:none;block-progression:tb;isolation:auto;mix-blend-mode:normal" d="M 16 3 C 8.8321429 3 3 8.8321429 3 16 C 3 23.167857 8.8321429 29 16 29 C 23.167857 29 29 23.167857 29 16 C 29 8.8321429 23.167857 3 16 3 z M 16 5 C 22.086977 5 27 9.9130231 27 16 C 27 18.562597 26.12271 20.911836 24.660156 22.779297 C 23.489067 22.373444 22.58606 21.522778 22.207031 21.115234 C 23.820415 19.401727 25 16.861185 25 13.392578 A 1.0001 1.0001 0 0 0 24 12.392578 C 23.084632 12.39172 22.391583 12.799202 21.835938 13.097656 C 21.642126 13.201757 21.516923 13.269611 21.384766 13.339844 C 21.010681 12.978875 20.672411 12.528426 20.220703 12.398438 C 19.49869 12.190661 18.75242 12.314518 18.164062 12.65625 C 17.420527 13.088116 17.055226 13.909134 16.9375 14.806641 C 16.492582 14.721401 16.085757 14.685368 15.527344 14.535156 C 14.57362 14.278607 13.379116 14 11.757812 14 C 10.805315 14 9.9345398 14.308037 9.2832031 14.869141 L 8.7070312 14.292969 A 1.0001 1.0001 0 0 0 7.9902344 13.990234 A 1.0001 1.0001 0 0 0 7.2929688 15.707031 L 8.1992188 16.613281 C 8.0570898 17.119269 7.9957402 17.669847 8 18.248047 C 8.007571 19.267846 8.3121735 20.187064 8.8007812 20.978516 C 8.46624 21.406541 7.8666141 22 7 22 A 1.0001 1.0001 0 0 0 6.7929688 22.019531 C 5.6622518 20.290653 5 18.225455 5 16 C 5 9.9130231 9.9130231 5 16 5 z M 21.705078 13.597656 C 21.763088 13.624956 21.758048 13.577 21.824219 13.625 L 22.082031 13.902344 C 21.983711 13.746369 21.816452 13.732996 21.705078 13.597656 z M 19.408203 14.298828 C 19.490093 14.287207 19.5756 14.293733 19.667969 14.320312 C 19.852706 14.373473 20.108561 14.521306 20.390625 14.96875 A 1.0001 1.0001 0 0 0 20.650391 15.244141 C 21.092846 15.565102 21.442905 15.456622 21.626953 15.410156 C 21.811001 15.363686 21.93014 15.306728 22.052734 15.248047 C 22.297923 15.130684 22.534151 14.995101 22.783203 14.861328 C 22.816043 14.843688 22.829991 14.847098 22.863281 14.830078 C 22.551689 17.484143 21.463461 19.23708 20.097656 20.367188 C 18.49066 21.696863 16.480134 22.197266 15.25 22.197266 C 13.915149 22.197266 12.544088 21.779472 11.568359 21.072266 C 10.592628 20.365059 10.008992 19.445529 10 18.234375 C 9.9936251 17.369093 10.190428 16.806714 10.449219 16.494141 C 10.708009 16.181567 11.051166 16 11.757812 16 C 13.158511 16 14.102787 16.221393 15.007812 16.464844 C 15.91284 16.708294 16.809701 17 17.935547 17 A 1.0001 1.0001 0 0 0 18.851562 15.595703 C 18.581654 14.984085 18.847662 14.572749 19.167969 14.386719 C 19.24804 14.340214 19.326313 14.310449 19.408203 14.298828 z M 20.683594 22.425781 C 21.090701 22.885482 21.957395 23.723569 23.183594 24.328125 C 21.257252 25.990342 18.751316 27 16 27 C 12.958501 27 10.209525 25.773942 8.2207031 23.787109 C 9.0747793 23.505659 9.7127733 22.987814 10.150391 22.496094 C 10.231588 22.561212 10.310424 22.630445 10.394531 22.691406 C 11.769802 23.6882 13.511851 24.197266 15.25 24.197266 C 16.787936 24.197266 18.825885 23.710344 20.683594 22.425781 z" font-weight="400" font-family="sans-serif" white-space="normal" overflow="visible" fill="#000000"/></svg>
