<?xml version="1.0" encoding="utf-8"?>
<svg xmlns="http://www.w3.org/2000/svg" viewBox="0 0 32 32" fill="#000000"><path style="text-indent:0;text-align:start;line-height:normal;text-transform:none;block-progression:tb;-inkscape-font-specification:Bitstream Vera Sans" d="M 4 4 L 4 27 L 4 28 L 5 28 L 8 28 L 26 28 L 28 28 L 28 26 L 26 26 C 25.875748 26 25.778217 25.974831 25.53125 25.65625 C 25.284283 25.337669 25.010248 24.743566 24.75 24 C 24.229504 22.512868 23.760765 20.425202 23.25 18.28125 C 22.739235 16.137298 22.180543 13.934697 21.28125 12.1875 C 20.831604 11.313901 20.297292 10.555651 19.59375 9.96875 C 18.890208 9.3818487 17.986111 9 17 9 C 16.013889 9 15.109792 9.3818487 14.40625 9.96875 C 13.702708 10.555651 13.168396 11.313901 12.71875 12.1875 C 11.819457 13.934697 11.260765 16.137298 10.75 18.28125 C 10.239235 20.425202 9.7704962 22.512868 9.25 24 C 8.9897519 24.743566 8.7157173 25.337669 8.46875 25.65625 C 8.2217827 25.974831 8.1242521 26 8 26 L 6 26 L 6 4 L 4 4 z M 17 11 C 17.513889 11 17.901589 11.157214 18.3125 11.5 C 18.723411 11.842786 19.129334 12.404849 19.5 13.125 C 20.241332 14.565303 20.810765 16.612702 21.3125 18.71875 C 21.814235 20.824798 22.248621 22.987132 22.84375 24.6875 C 23.009823 25.161995 23.17145 25.601195 23.375 26 L 10.625 26 C 10.82855 25.601195 10.990177 25.161995 11.15625 24.6875 C 11.751379 22.987132 12.185765 20.824798 12.6875 18.71875 C 13.189235 16.612702 13.758668 14.565303 14.5 13.125 C 14.870666 12.404849 15.276589 11.842786 15.6875 11.5 C 16.098411 11.157214 16.486111 11 17 11 z" overflow="visible" font-family="Bitstream Vera Sans" fill="#000000"/></svg>
