<?xml version="1.0" encoding="utf-8"?>
<svg xmlns="http://www.w3.org/2000/svg" viewBox="0 0 32 32" fill="#000000"><path style="text-indent:0;text-align:start;line-height:normal;text-transform:none;block-progression:tb;-inkscape-font-specification:Sans" d="M 16 2 C 15.447715 2 15 2.4477153 15 3 C 15 3.5522847 15.447715 4 16 4 C 16.552285 4 17 3.5522847 17 3 C 17 2.4477153 16.552285 2 16 2 z M 16 4 C 15.448 4 15 4.448 15 5 L 15 6.15625 C 13.280143 6.6033076 12 8.1467686 12 10 L 11 10 L 11 12 L 21 12 L 21 10 L 20 10 C 20 8.1467686 18.719857 6.6033076 17 6.15625 L 17 5 C 17 4.448 16.552 4 16 4 z M 16 8 C 17.116666 8 18 8.8833339 18 10 L 14 10 C 14 8.8833339 14.883334 8 16 8 z M 12 13 L 12 18 L 8 18 L 8 20 L 24 20 L 24 18 L 20 18 L 20 13 L 18 13 L 18 18 L 17 18 L 17 13 L 15 13 L 15 18 L 14 18 L 14 13 L 12 13 z M 9 21 L 9 28 L 7 28 L 7 30 L 25 30 L 25 28 L 23 28 L 23 21 L 21 21 L 21 28 L 20 28 L 20 21 L 18 21 L 18 28 L 17 28 L 17 21 L 15 21 L 15 28 L 14 28 L 14 21 L 12 21 L 12 28 L 11 28 L 11 21 L 9 21 z" fill="#000000"/></svg>
