<?xml version="1.0" encoding="utf-8"?>
<svg xmlns="http://www.w3.org/2000/svg" viewBox="0 0 32 32" fill="#000000"><path style="text-indent:0;text-align:start;line-height:normal;text-transform:none;block-progression:tb;-inkscape-font-specification:Bitstream Vera Sans" d="M 6 4 L 6 5 L 6 27 L 6 28 L 7 28 L 25 28 L 26 28 L 26 27 L 26 5 L 26 4 L 25 4 L 7 4 L 6 4 z M 8 6 L 24 6 L 24 26 L 8 26 L 8 6 z M 10 9 L 10 21 L 12 21 L 12 9 L 10 9 z M 18 9 C 15.791 9 14 10.79 14 13 C 14 15.21 16 16.017 16 20 L 17 20 C 17 20.553 17.448 21 18 21 C 18.552 21 19 20.552 19 20 L 20 20 C 20 16.042 22 15.2 22 13 C 22 10.8 20.209 9 18 9 z M 18 11 C 19.103 11 20 11.897 20 13 C 20 13.426 19.8105 13.793 19.4375 14.5 C 19.093225 15.152269 18.672509 15.942636 18.375 17 L 17.625 17 C 17.326824 15.938348 16.907547 15.120247 16.5625 14.46875 C 16.1905 13.76875 16 13.427 16 13 C 16 11.897 16.897 11 18 11 z M 14 22 L 14 24 L 22 24 L 22 22 L 14 22 z" overflow="visible" font-family="Bitstream Vera Sans" fill="#000000"/></svg>
