<?xml version="1.0" encoding="utf-8"?>
<svg xmlns="http://www.w3.org/2000/svg" viewBox="0 0 32 32" fill="#000000"><path style="text-indent:0;text-align:start;line-height:normal;text-transform:none;block-progression:tb;-inkscape-font-specification:Sans" d="M 4 5 L 4 6 L 4 10 L 4 11 L 5 11 L 6.0625 11 L 7 26.0625 L 7.0625 27 L 8 27 L 24 27 L 24.9375 27 L 25 26.0625 L 25.9375 11 L 27 11 L 28 11 L 28 10 L 28 6 L 28 5 L 27 5 L 18 5 L 18 7 L 26 7 L 26 9 L 18 9 L 18 11 L 23.9375 11 L 23.0625 25 L 8.9375 25 L 8.0625 11 L 11 11 L 11 20 L 11 21 L 12 21 L 20 21 L 21 21 L 21 20 L 21 14 L 21 13 L 20 13 L 17 13 L 17 6 L 17 5 L 16 5 L 12 5 L 11 5 L 5 5 L 4 5 z M 6 7 L 11 7 L 11 9 L 6 9 L 6 7 z M 13 7 L 15 7 L 15 14 L 15 15 L 16 15 L 19 15 L 19 19 L 13 19 L 13 7 z" overflow="visible" font-family="Sans" fill="#000000"/></svg>
