<?xml version="1.0" encoding="utf-8"?>
<svg xmlns="http://www.w3.org/2000/svg" viewBox="0 0 32 32" fill="#000000"><path style="text-indent:0;text-align:start;line-height:normal;text-transform:none;block-progression:tb;-inkscape-font-specification:Sans" d="M 16 4 C 9.3844277 4 4 9.3844277 4 16 C 4 22.615572 9.3844277 28 16 28 C 22.615572 28 28 22.615572 28 16 C 28 9.3844277 22.615572 4 16 4 z M 16 6 C 21.534692 6 26 10.465308 26 16 C 26 21.534692 21.534692 26 16 26 C 10.465308 26 6 21.534692 6 16 C 6 10.465308 10.465308 6 16 6 z M 16 10 C 13.804545 10 12 11.804545 12 14 L 12 21 L 14 21 L 14 14 C 14 12.895455 14.895455 12 16 12 C 17.104545 12 18 12.895455 18 14 L 18 21 L 20 21 L 20 14 C 20 11.804545 18.195455 10 16 10 z M 7 14 L 8 18 L 9.25 17.4375 L 11 20 L 10 16 L 8.5 16.59375 L 7 14 z M 25 14 L 23.5 16.59375 L 22 16 L 21 20 L 22.75 17.4375 L 24 18 L 25 14 z" overflow="visible" font-family="Sans" fill="#000000"/></svg>
