<?xml version="1.0" encoding="utf-8"?>
<svg xmlns="http://www.w3.org/2000/svg" viewBox="0 0 32 32" fill="#000000"><path style="text-indent:0;text-align:start;line-height:normal;text-transform:none;block-progression:tb;-inkscape-font-specification:Sans" d="M 10.5 3 C 9.6020889 2.9999835 8.7105531 3.352645 8.03125 4.03125 C 6.6734452 5.3890548 6.6740401 7.6101438 8.03125 8.96875 L 9 9.9375 C 8.9998153 9.9583649 9 9.9790931 9 10 C 9 10.988076 9.2213055 11.927349 9.59375 12.78125 L 3.1875 17.59375 C 2.5527569 18.069436 2.1429536 18.774617 2.03125 19.5625 C 1.9180752 20.350256 2.117685 21.177746 2.59375 21.8125 C 3.1599683 22.569476 4.055084 23 5 23 C 5.3815753 23 5.7707122 22.918867 6.125 22.78125 C 6.0600265 23.172105 6 23.578531 6 24 C 6 25.273457 6.3014278 26.426034 6.875 27.34375 C 7.4485722 28.261466 8.377292 29 9.5 29 C 10.154625 29 10.727976 28.735039 11.21875 28.34375 C 12.6887 28.830288 14.306083 29 16 29 C 17.691267 29 19.310242 28.828577 20.78125 28.34375 C 21.272024 28.735039 21.845375 29 22.5 29 C 23.622708 29 24.551428 28.261466 25.125 27.34375 C 25.698572 26.426034 26 25.273457 26 24 C 26 23.578531 25.939974 23.172105 25.875 22.78125 C 26.229454 22.918659 26.619324 23 27 23 C 27.944916 23 28.83989 22.567647 29.40625 21.8125 C 29.883803 21.17725 30.079961 20.348392 29.96875 19.5625 C 29.855917 18.777126 29.447843 18.069885 28.8125 17.59375 L 22.40625 12.78125 C 22.778695 11.927349 23 10.988076 23 10 C 23 9.9790931 23.000185 9.9583649 23 9.9375 L 23.96875 8.96875 C 25.32596 7.6101438 25.326555 5.3890548 23.96875 4.03125 C 23.289447 3.352645 22.397911 2.9999835 21.5 3 C 20.710394 3.0000145 19.920808 3.2850938 19.28125 3.8125 C 18.304061 3.2927911 17.179882 3 16 3 C 14.820118 3 13.695939 3.2927911 12.71875 3.8125 C 12.079192 3.2850938 11.289606 3.0000145 10.5 3 z M 10.5 5 C 10.682096 5.0000352 10.8589 5.0279838 11.03125 5.09375 C 10.342229 5.7912572 9.7873548 6.628305 9.4375 7.5625 C 8.8507099 6.9751062 8.8513048 6.0236952 9.4375 5.4375 C 9.731197 5.144105 10.115449 4.9999256 10.5 5 z M 16 5 C 18.773268 5 21 7.2267317 21 10 C 21 10.792362 20.79311 11.523556 20.46875 12.1875 C 20.304439 9.8602962 18.366861 8 16 8 C 13.633139 8 11.695561 9.8602962 11.53125 12.1875 C 11.20689 11.523556 11 10.792362 11 10 C 11 7.2267317 13.226732 5 16 5 z M 21.5 5 C 21.884551 4.9999256 22.268803 5.144105 22.5625 5.4375 C 23.148695 6.0236952 23.14929 6.9751062 22.5625 7.5625 C 22.212645 6.628305 21.657771 5.7912572 20.96875 5.09375 C 21.1411 5.0279838 21.317904 5.0000352 21.5 5 z M 16 10 C 17.392557 10 18.5 11.107443 18.5 12.5 C 18.5 13.892557 17.392557 15 16 15 C 14.607443 15 13.5 13.892557 13.5 12.5 C 13.5 11.107443 14.607443 10 16 10 z M 16 11 C 15.447715 11 15 11.447715 15 12 C 15 12.552285 15.447715 13 16 13 C 16.552285 13 17 12.552285 17 12 C 17 11.447715 16.552285 11 16 11 z M 10.65625 14.5 C 11.942229 16.018662 13.863091 17 16 17 C 18.136909 17 20.057771 16.018662 21.34375 14.5 L 27.59375 19.1875 C 27.812407 19.351365 27.960833 19.571124 28 19.84375 C 28.03879 20.117858 27.97695 20.375 27.8125 20.59375 C 27.62886 20.838603 27.309084 21 27 21 C 26.775009 21 26.585232 20.94738 26.40625 20.8125 L 25.5625 20.1875 L 25.46875 20.125 C 25.355849 20.019528 24.413854 19.170665 22.90625 19.03125 C 22.772288 19.009263 22.640338 19 22.5 19 C 21.377292 19 20.448572 19.738534 19.875 20.65625 C 19.301428 21.573966 19 22.726543 19 24 C 19 24.965973 19.165905 25.879131 19.5 26.65625 C 18.469105 26.899105 17.286147 27 16 27 C 14.714525 27 13.529821 26.898745 12.5 26.65625 C 12.834095 25.879131 13 24.965973 13 24 C 13 22.726543 12.698572 21.573966 12.125 20.65625 C 11.551428 19.738534 10.622708 19 9.5 19 C 7.7504658 19 6.6541497 20.010187 6.53125 20.125 L 6.4375 20.1875 L 5.59375 20.8125 C 5.4133328 20.947942 5.2234618 21 5 21 C 4.690916 21 4.3692817 20.836774 4.1875 20.59375 C 4.0215654 20.372504 3.9611748 20.113994 4 19.84375 C 4.0382964 19.573633 4.1869931 19.351814 4.40625 19.1875 L 10.65625 14.5 z M 9.5 21 C 9.7580039 21 10.075 21.1575 10.40625 21.6875 C 10.7375 22.2175 11 23.064318 11 24 C 11 24.935682 10.7375 25.7825 10.40625 26.3125 C 10.075 26.8425 9.7580039 27 9.5 27 C 9.2419961 27 8.9249998 26.8425 8.59375 26.3125 C 8.2625002 25.7825 8 24.935682 8 24 C 8 23.064318 8.2625002 22.2175 8.59375 21.6875 C 8.8421873 21.29 9.0677221 21.100391 9.28125 21.03125 C 9.3516359 21.02503 9.4254455 21 9.5 21 z M 22.5 21 C 22.758004 21 23.075 21.1575 23.40625 21.6875 C 23.7375 22.2175 24 23.064318 24 24 C 24 24.935682 23.7375 25.7825 23.40625 26.3125 C 23.075 26.8425 22.758004 27 22.5 27 C 22.241996 27 21.925 26.8425 21.59375 26.3125 C 21.2625 25.7825 21 24.935682 21 24 C 21 23.064318 21.2625 22.2175 21.59375 21.6875 C 21.925 21.1575 22.241996 21 22.5 21 z" fill="#000000"/></svg>
