<?xml version="1.0" encoding="utf-8"?>
<svg xmlns="http://www.w3.org/2000/svg" viewBox="0 0 32 32" fill="#000000"><path style="text-indent:0;text-align:start;line-height:normal;text-transform:none;block-progression:tb;-inkscape-font-specification:Bitstream Vera Sans" d="M 4 5 L 4 6 L 4 26 L 4 27 L 5 27 L 13 27 L 13 25 L 6 25 L 6 13 L 26 13 L 26 25 L 19 25 L 19 27 L 27 27 L 28 27 L 28 26 L 28 6 L 28 5 L 27 5 L 5 5 L 4 5 z M 6 7 L 26 7 L 26 11 L 6 11 L 6 7 z M 8 8 C 7.4477153 8 7 8.4477153 7 9 C 7 9.5522847 7.4477153 10 8 10 C 8.5522847 10 9 9.5522847 9 9 C 9 8.4477153 8.5522847 8 8 8 z M 11 8 C 10.447715 8 10 8.4477153 10 9 C 10 9.5522847 10.447715 10 11 10 C 11.552285 10 12 9.5522847 12 9 C 12 8.4477153 11.552285 8 11 8 z M 13 8 L 13 10 L 24 10 L 24 8 L 13 8 z M 16 16.59375 L 15.28125 17.28125 L 11.78125 20.78125 L 13.21875 22.21875 L 15 20.4375 L 15 28 C 15 28.56503 14.56503 29 14 29 L 12 29 L 12 31 L 14 31 C 15.64497 31 17 29.64497 17 28 L 17 20.4375 L 18.78125 22.21875 L 20.21875 20.78125 L 16.71875 17.28125 L 16 16.59375 z" fill="#000000"/></svg>
