<?xml version="1.0" encoding="utf-8"?>
<svg xmlns="http://www.w3.org/2000/svg" viewBox="0 0 32 32" fill="#000000"><path style="line-height:normal;text-indent:0;text-align:start;text-decoration-line:none;text-decoration-style:solid;text-decoration-color:#000;text-transform:none;block-progression:tb;isolation:auto;mix-blend-mode:normal" d="M 9 3 L 9 16 L 7 16 L 7 18 L 25 18 L 25 16 L 23 16 L 23 3 L 9 3 z M 12.912109 5 L 19.087891 5 A 1.5 1.5 0 0 0 19 5.5 A 1.5 1.5 0 0 0 20.5 7 A 1.5 1.5 0 0 0 21 6.9121094 L 21 16 L 20 16 C 20 13.802666 18.197334 12 16 12 C 13.802666 12 12 13.802666 12 16 L 11 16 L 11 6.9121094 A 1.5 1.5 0 0 0 11.5 7 A 1.5 1.5 0 0 0 13 5.5 A 1.5 1.5 0 0 0 12.912109 5 z M 16 7.5 A 1.5 1.5 0 0 0 14.5 9 A 1.5 1.5 0 0 0 16 10.5 A 1.5 1.5 0 0 0 17.5 9 A 1.5 1.5 0 0 0 16 7.5 z M 3 9 L 3 25 L 15 25 L 15 27 L 10 27 L 10 29 L 22 29 L 22 27 L 17 27 L 17 25 L 29 25 L 29 9 L 24 9 L 24 11 L 27 11 L 27 23 L 5 23 L 5 11 L 8 11 L 8 9 L 3 9 z M 16 14 C 17.116666 14 18 14.883334 18 16 L 14 16 C 14 14.883334 14.883334 14 16 14 z" fill="#000000"/></svg>
