<?xml version="1.0" encoding="utf-8"?>
<svg xmlns="http://www.w3.org/2000/svg" viewBox="0 0 32 32" fill="#000000"><path style="text-indent:0;text-align:start;line-height:normal;text-transform:none;block-progression:tb;-inkscape-font-specification:Bitstream Vera Sans" d="M 11 4 C 11 5.0115441 10.999563 6.0476779 11.1875 7.125 C 10.939851 7.2634435 10.659769 7.4572206 10.375 7.71875 C 9.6845753 8.3528301 9 9.4834175 9 11.03125 C 9 12.470393 9.4570745 13.675732 10.1875 14.5625 C 10.917926 15.449268 11.885171 16.019875 12.84375 16.4375 C 14.760908 17.272749 16.87044 17.6135 17.46875 17.90625 L 17.6875 18 L 17.90625 18 L 18.15625 18 L 18.6875 18 L 19 17.59375 C 19 17.59375 21 14.751458 21 10.59375 C 21.000545 8.3071862 20.307702 6.8067465 19.375 5.96875 C 18.442298 5.1307535 17.391503 5 16.84375 5 C 15.649423 5 14.815832 5.6165181 14.125 5.90625 L 14.875 7.75 C 15.772168 7.3737319 16.490077 7 16.84375 7 C 17.051997 7 17.582702 7.065747 18.03125 7.46875 C 18.479798 7.8717535 19.000455 8.6863138 19 10.59375 C 19 13.528993 18.005962 15.256356 17.625 15.875 C 16.389642 15.429941 14.947542 15.169943 13.625 14.59375 C 12.845454 14.254125 12.203481 13.831795 11.75 13.28125 C 11.296519 12.730705 11 12.066607 11 11.03125 C 11 10.042083 11.377425 9.5296699 11.75 9.1875 C 11.772075 9.1672269 11.790884 9.1748216 11.8125 9.15625 C 12.359651 10.310345 13.262329 11.46647 14.6875 12.59375 L 15.90625 11.03125 C 14.328104 9.78297 13.684313 8.710917 13.34375 7.625 C 13.003187 6.539083 13 5.3712745 13 4 L 11 4 z M 22.46875 11.71875 C 22.43975 12.45175 22.3815 13.15825 22.3125 13.78125 C 24.6305 14.41425 26 15.304 26 16 C 26 17.194 22.012 19 16 19 C 9.988 19 6 17.194 6 16 C 6 15.459 6.82625 14.78675 8.28125 14.21875 C 7.97625 13.65875 7.751 13.0215 7.625 12.3125 C 5.452 13.1515 4 14.394 4 16 C 4 18.780771 4.9814308 21.09946 6 22.75 C 7.0185692 24.40054 8.156515 25.469015 8.28125 25.59375 C 9.4368019 26.749302 11.935628 28 16 28 C 20.056407 28 22.474307 26.727465 23.6875 25.625 C 23.982049 25.363258 24.98667 24.402038 26 22.75 C 27.01333 21.097962 28 18.777757 28 16 C 28 13.961 25.66275 12.51375 22.46875 11.71875 z M 6.53125 19.1875 C 8.8428206 20.387005 12.428411 21 16 21 C 19.584011 21 23.189386 20.39525 25.5 19.1875 C 25.187803 20.141912 24.75121 20.972269 24.3125 21.6875 C 23.43508 23.117962 22.462201 24.050992 22.34375 24.15625 C 21.540943 24.885785 19.643593 26 16 26 C 12.364372 26 10.271948 24.771948 9.6875 24.1875 C 9.445235 23.945235 8.6024308 23.11946 7.71875 21.6875 C 7.2812784 20.978599 6.8494743 20.130521 6.53125 19.1875 z" overflow="visible" font-family="Bitstream Vera Sans" fill="#000000"/></svg>
