<?xml version="1.0" encoding="utf-8"?>
<svg xmlns="http://www.w3.org/2000/svg" viewBox="0 0 32 32" fill="#000000"><path d="M 5.46875 4.0625 L 4 8.46875 L 5.71875 11.15625 L 6.53125 8.65625 L 9.625 9.75 L 9.53125 11.96875 C 9.49425 12.79875 9.82225 13.5955 10.40625 14.1875 L 12.78125 16.625 C 12.86025 16.705 12.9755 16.7425 13.0625 16.8125 C 12.3685 21.5255 12.00775 23.843 11.84375 25 L 13.875 25 C 14.12 23.291 14.5615 20.21325 14.9375 17.65625 L 18.3125 18.65625 C 18.3805 18.67725 18.438 18.716 18.5 18.75 L 17.71875 25 L 19.71875 25 L 20.21875 21.09375 L 22.875 25 L 25.28125 25 L 20.5 17.9375 C 20.115 17.3685 19.56325 16.949 18.90625 16.75 L 14.625 15.46875 C 14.466 15.42075 14.33575 15.33775 14.21875 15.21875 L 11.8125 12.78125 C 11.6175 12.58325 11.51925 12.30825 11.53125 12.03125 L 11.75 7.1875 L 9.75 7.09375 L 9.71875 7.65625 L 7.1875 6.75 L 7.8125 4.8125 L 5.46875 4.0625 z M 18.25 6.90625 C 16.122846 6.90625 14.375 8.6540957 14.375 10.78125 C 14.375 12.908404 16.122846 14.65625 18.25 14.65625 C 20.377154 14.65625 22.125 12.908404 22.125 10.78125 C 22.125 8.6540957 20.377154 6.90625 18.25 6.90625 z M 18.25 8.90625 C 19.296274 8.90625 20.125 9.7349759 20.125 10.78125 C 20.125 11.827524 19.296274 12.65625 18.25 12.65625 C 17.203726 12.65625 16.375 11.827524 16.375 10.78125 C 16.375 9.7349759 17.203726 8.90625 18.25 8.90625 z M 10 26 L 10 28 L 28 28 L 28 26 L 10 26 z" fill="#000000"/></svg>
