<?xml version="1.0" encoding="utf-8"?>
<svg xmlns="http://www.w3.org/2000/svg" viewBox="0 0 32 32" fill="#000000"><path style="text-indent:0;text-align:start;line-height:normal;text-transform:none;block-progression:tb;-inkscape-font-specification:Bitstream Vera Sans" d="M 10.40625 5.9375 L 8.75 5.96875 C 5.0086743 6.1037403 2 9.1968159 2 12.96875 C 2 15.198523 3.0560924 17.18533 4.6875 18.46875 C 4.2526348 19.209832 4 20.0805 4 21 C 4 23.757 6.243 26 9 26 L 25 26 C 27.757 26 30 23.757 30 21 C 30 18.981 28.78775 17.18125 26.96875 16.40625 C 26.68575 13.98825 24.6575 12.097 22.1875 12 C 21.1255 10.154 19.166 9 17 9 C 14.682815 9 12.617478 10.341609 11.625 12.34375 C 10.295567 11.795838 9.34375 10.507976 9.34375 8.96875 C 9.34375 8.4090927 9.4608341 7.8857356 9.6875 7.40625 L 10.40625 5.9375 z M 7.5 8.3125 C 7.4710871 8.5419732 7.34375 8.7316134 7.34375 8.96875 C 7.34375 10.922651 8.3339213 12.634491 9.84375 13.65625 C 8.9941925 14.20924 8.333632 15.078511 8.09375 16.09375 C 7.3260669 16.232611 6.6345909 16.552853 6.03125 17 C 4.8056083 16.087331 4 14.621647 4 12.96875 C 4 10.730976 5.4834498 8.9570361 7.5 8.3125 z M 17 11 C 18.605 11 20.0565 11.9595 20.6875 13.4375 L 20.96875 14.125 L 21.875 14.03125 C 21.919 14.02425 21.954 14 22 14 C 23.654 14 24.997 15.3525 25 16.9375 L 24.96875 17.90625 L 25.75 18.09375 C 27.081 18.43275 28 19.636 28 21 C 28 22.654 26.654 24 25 24 L 9 24 C 7.346 24 6 22.654 6 21 C 6 19.346 7.346 18 9 18 L 10 18 L 10 17 C 10 15.897 10.89325 15.005 11.90625 15 L 12.90625 15.0625 L 13.09375 14.21875 C 13.46775 12.35975 15.103 11 17 11 z" overflow="visible" font-family="Bitstream Vera Sans" fill="#000000"/></svg>
