<?xml version="1.0" encoding="utf-8"?>
<svg xmlns="http://www.w3.org/2000/svg" viewBox="0 0 32 32" fill="#000000"><path style="text-indent:0;text-align:start;line-height:normal;text-transform:none;block-progression:tb;-inkscape-font-specification:Bitstream Vera Sans" d="M 6 10 C 4.3550302 10 3 11.35503 3 13 L 3 19 C 3 20.64497 4.3550302 22 6 22 L 26 22 C 27.64497 22 29 20.64497 29 19 L 29 13 C 29 11.35503 27.64497 10 26 10 L 6 10 z M 6 12 L 26 12 C 26.56503 12 27 12.43497 27 13 L 27 19 C 27 19.56503 26.56503 20 26 20 L 6 20 C 5.4349698 20 5 19.56503 5 19 L 5 13 C 5 12.43497 5.4349698 12 6 12 z M 7 13 L 7 15 L 9 15 L 9 16 L 11 16 L 11 15 L 12 15 L 12 16 L 14 16 L 14 15 L 15 15 L 15 16 L 17 16 L 17 15 L 18 15 L 18 16 L 20 16 L 20 15 L 21 15 L 21 16 L 23 16 L 23 15 L 25 15 L 25 13 L 7 13 z" overflow="visible" font-family="Bitstream Vera Sans" fill="#000000"/></svg>
