<?xml version="1.0" encoding="utf-8"?>
<svg xmlns="http://www.w3.org/2000/svg" viewBox="0 0 32 32" fill="#000000"><path style="text-indent:0;text-align:start;line-height:normal;text-transform:none;block-progression:tb;-inkscape-font-specification:Sans" d="M 17.5625 2 C 14.113863 2 10.972387 3.9125792 9.65625 7 L 8 7 L 8 14.3125 L 8.1875 14.59375 C 8.2027253 14.614925 8.2346167 14.634697 8.25 14.65625 C 9.1513037 15.919027 10.301925 17.792332 10.78125 19.0625 C 9.2115212 19.254075 7.6551307 19.858744 6.4375 21.125 C 4.9032277 22.720543 4 25.257577 4 29 L 6 29 C 6 25.575423 6.8050223 23.612707 7.875 22.5 C 8.6845032 21.65817 9.6941819 21.220321 10.84375 21.0625 C 10.457225 22.886497 9.4541448 26.298277 9 29 L 11.03125 29 C 11.614764 26.496899 12.62452 22.83473 12.90625 20.84375 C 12.948665 20.937407 12.991188 21.021174 13 21.0625 L 13 29 L 15 29 L 15 23.6875 C 15.08356 23.78116 15.159216 23.884258 15.25 23.96875 C 16.061449 24.72396 17.125492 25 18.15625 25 C 19.205859 25 20.215425 24.653199 21 23.96875 L 21 29 L 23 29 L 23 23.46875 C 23.642511 25.298257 24.422968 27.397597 24.90625 29 L 27 29 C 26.071 25.939 24.103 21.147 24 20 C 24 19.117 25.4575 16.4835 26.8125 14.5625 L 27 14.3125 L 27 7 L 25.25 7 C 23.926752 4.0640113 20.981677 2 17.5625 2 z M 17.5625 4 C 21.137036 4 24.012154 6.8894145 24 10.46875 C 23.9927 12.629231 23.399496 13.927546 22.65625 15.34375 C 21.913004 16.759954 20.982104 18.292548 20.625 20.5 C 20.469301 21.461071 20.124902 22.061778 19.71875 22.4375 C 19.312598 22.813222 18.828674 23 18.15625 23 C 17.427008 23 16.969051 22.88054 16.59375 22.53125 C 16.218449 22.18196 15.842304 21.481077 15.59375 20.1875 C 15.142569 17.843187 13.797868 16.628013 12.8125 15.46875 C 11.827132 14.309487 11.042378 13.181707 11 10.375 C 10.939906 6.393771 13.913154 4 17.5625 4 z M 14 10 C 13.447715 10 13 10.447715 13 11 C 13 11.552285 13.447715 12 14 12 C 14.552285 12 15 11.552285 15 11 C 15 10.447715 14.552285 10 14 10 z M 20 10 C 19.447715 10 19 10.447715 19 11 C 19 11.552285 19.447715 12 20 12 C 20.552285 12 21 11.552285 21 11 C 21 10.447715 20.552285 10 20 10 z M 15.5 13 C 15.223858 13 15 13.223858 15 13.5 C 15 13.776142 15.223858 14 15.5 14 C 15.776142 14 16 13.776142 16 13.5 C 16 13.223858 15.776142 13 15.5 13 z M 17.5 13 C 17.223858 13 17 13.223858 17 13.5 C 17 13.776142 17.223858 14 17.5 14 C 17.776142 14 18 13.776142 18 13.5 C 18 13.223858 17.776142 13 17.5 13 z M 17 16 C 16.224 16 15.91125 16.9565 16.03125 18.5625 C 16.16125 20.2835 16.94375 21 17.71875 21 C 18.49375 21 19.08 20.2935 19 18.6875 C 18.928 17.2545 17.776 16 17 16 z" overflow="visible" font-family="Sans" fill="#000000"/></svg>
