<?xml version="1.0" encoding="utf-8"?>
<svg xmlns="http://www.w3.org/2000/svg" viewBox="0 0 32 32" fill="#000000"><path style="text-indent:0;text-align:start;line-height:normal;text-transform:none;block-progression:tb;-inkscape-font-specification:Sans" d="M 0 7 L 0 8 L 0 24 L 0 25 L 1 25 L 31 25 L 32 25 L 32 24 L 32 8 L 32 7 L 31 7 L 1 7 L 0 7 z M 2 9 L 30 9 L 30 23 L 2 23 L 2 9 z M 4 12 L 4 13 L 4 20 L 6 20 L 6 18 C 7.6449698 18 9 16.64497 9 15 C 9 13.35503 7.6449698 12 6 12 L 5 12 L 4 12 z M 10 12 L 10 13 L 10 20 L 12 20 L 12 17 L 13 20 L 15 20 L 13.875 16.59375 C 14.559476 16.145217 15 15.370145 15 14.5 C 15 13.130937 13.869063 12 12.5 12 L 11 12 L 10 12 z M 18.5 12 C 17.130937 12 16 13.130937 16 14.5 L 16 17.5 C 16 18.869063 17.130937 20 18.5 20 C 19.869063 20 21 18.869063 21 17.5 L 21 14.5 C 21 13.130937 19.869063 12 18.5 12 z M 22 12 L 22 20 L 24 20 L 24 17 L 25 18.34375 L 25 20 L 27 20 L 27 12 L 25 12 L 25 15 L 24 13.65625 L 24 12 L 22 12 z M 6 14 C 6.5650302 14 7 14.43497 7 15 C 7 15.56503 6.5650302 16 6 16 L 6 14 z M 12 14 L 12.5 14 C 12.786937 14 13 14.213063 13 14.5 C 13 14.786937 12.786937 15 12.5 15 L 12 15 L 12 14 z M 18.5 14 C 18.786937 14 19 14.213063 19 14.5 L 19 17.5 C 19 17.786937 18.786937 18 18.5 18 C 18.213063 18 18 17.786937 18 17.5 L 18 14.5 C 18 14.213063 18.213063 14 18.5 14 z" fill="#000000"/></svg>
