<?xml version="1.0" encoding="utf-8"?>
<svg xmlns="http://www.w3.org/2000/svg" viewBox="0 0 32 32" fill="#000000"><path style="line-height:normal;text-indent:0;text-align:start;text-decoration-line:none;text-decoration-style:solid;text-decoration-color:#000;text-transform:none;block-progression:tb;isolation:auto;mix-blend-mode:normal" d="M 6 3 C 5.2524312 3 4.5205729 3.0755937 3.8125 3.21875 L 4.2089844 5.1777344 C 4.7869115 5.0608906 5.3855688 5 6 5 C 9.8362201 5 12.02085 6.0359369 13.294922 7.3632812 C 14.568993 8.6906257 15 10.413265 15 12 L 15 12.302734 L 17.955078 16.728516 C 18.066271 16.895066 18.006248 17.061912 17.814453 17.123047 L 15 18.019531 L 15 21 C 15 21.654639 14.635056 22.441287 14.041016 23.037109 C 13.446976 23.632931 12.663667 24 12 24 L 10 24 L 10 28 L 12 28 L 12 26 C 13.336333 26 14.553024 25.357897 15.458984 24.449219 C 16.364944 23.540541 17 22.327361 17 21 L 17 19.480469 L 18.421875 19.029297 C 19.830081 18.580431 20.437995 16.846637 19.617188 15.617188 L 16.9375 11.601562 C 16.868736 9.7370179 16.340625 7.6498935 14.736328 5.9785156 C 13.0209 4.19136 10.20578 3 6 3 z M 12 13 A 1 1 0 0 0 11 14 A 1 1 0 0 0 12 15 A 1 1 0 0 0 13 14 A 1 1 0 0 0 12 13 z M 27 17 A 1 1 0 0 0 26 18 A 1 1 0 0 0 27 19 A 1 1 0 0 0 28 18 A 1 1 0 0 0 27 17 z M 24 19 A 1 1 0 0 0 23 20 A 1 1 0 0 0 24 21 A 1 1 0 0 0 25 20 A 1 1 0 0 0 24 19 z M 21 21 A 1 1 0 0 0 20 22 A 1 1 0 0 0 21 23 A 1 1 0 0 0 22 22 A 1 1 0 0 0 21 21 z M 27 21 A 1 1 0 0 0 26 22 A 1 1 0 0 0 27 23 A 1 1 0 0 0 28 22 A 1 1 0 0 0 27 21 z M 24 23 A 1 1 0 0 0 23 24 A 1 1 0 0 0 24 25 A 1 1 0 0 0 25 24 A 1 1 0 0 0 24 23 z M 27 25 A 1 1 0 0 0 26 26 A 1 1 0 0 0 27 27 A 1 1 0 0 0 28 26 A 1 1 0 0 0 27 25 z" font-weight="400" font-family="sans-serif" white-space="normal" overflow="visible" fill="#000000"/></svg>
