<?xml version="1.0" encoding="utf-8"?>
<svg xmlns="http://www.w3.org/2000/svg" viewBox="0 0 32 32" fill="#000000"><path d="M 3 6 L 3 22 L 3.8535156 22 L 14.677734 25.326172 L 14.689453 25.328125 C 15.333459 25.511238 15.994856 25.446401 16.574219 25.201172 C 16.923231 25.707366 17.433735 26.108813 18.0625 26.287109 L 24.898438 28.226562 L 26.884766 22 L 29 22 L 29 6 L 21 6 C 20.231416 6 19.533353 6.3041249 19 6.7871094 C 18.466647 6.3041249 17.768584 6 17 6 L 3 6 z M 5 8 L 17 8 C 17.56503 8 18 8.4349698 18 9 L 20 9 C 20 8.4349698 20.43497 8 21 8 L 27 8 L 27 20 L 21 20 C 20.43497 20 20 19.56503 20 19 L 18 19 C 18 19.56503 17.56503 20 17 20 L 5 20 L 5 8 z M 10.095703 10 C 8.4212228 10 7 11.334719 7 13.007812 C 7 14.659235 8.1411332 15.837049 9.1171875 16.632812 C 10.093242 17.428576 11.060547 17.898437 11.060547 17.898438 L 11.5 18.113281 L 11.939453 17.898438 C 11.939453 17.898438 12.906759 17.428577 13.882812 16.632812 C 14.858868 15.83705 16 14.659234 16 13.007812 C 16 11.33472 14.578777 10 12.904297 10 C 12.384791 10 11.947509 10.282821 11.498047 10.519531 C 11.049495 10.284177 10.613348 10 10.095703 10 z M 18 10 L 18 12 L 20 12 L 20 10 L 18 10 z M 22 10 L 22 13 L 25 13 L 25 10 L 22 10 z M 10.095703 12 C 10.383062 12 10.647616 12.102975 10.84375 12.273438 L 11.5 12.841797 L 12.154297 12.273438 C 12.352792 12.101373 12.616938 12 12.904297 12 C 13.539816 12 14 12.466907 14 13.007812 C 14 13.635394 13.391131 14.452997 12.617188 15.083984 C 12.061697 15.536868 11.772246 15.665579 11.5 15.814453 C 11.227754 15.665579 10.938304 15.536868 10.382812 15.083984 C 9.6088678 14.452997 9 13.635394 9 13.007812 C 9 12.466909 9.4601838 12 10.095703 12 z M 18 13 L 18 15 L 20 15 L 20 13 L 18 13 z M 18 16 L 18 18 L 20 18 L 20 16 L 18 16 z M 22 16 L 22 18 L 25 18 L 25 16 L 22 16 z M 19 21.212891 C 19.533353 21.695875 20.231416 22 21 22 L 24.783203 22 L 23.580078 25.773438 L 18.609375 24.363281 C 18.177368 24.240779 18.002015 23.896782 18.113281 23.548828 L 18.113281 23.546875 L 18.814453 21.353516 C 18.875714 21.305727 18.942455 21.265001 19 21.212891 z M 10.662109 22 L 16.507812 22 L 16.207031 22.939453 C 16.096054 23.287731 15.67003 23.527613 15.236328 23.404297 L 10.662109 22 z" fill="#000000"/></svg>
