<?xml version="1.0" encoding="utf-8"?>
<svg xmlns="http://www.w3.org/2000/svg" viewBox="0 0 32 32" fill="#000000"><path style="text-indent:0;text-align:start;line-height:normal;text-transform:none;block-progression:tb;-inkscape-font-specification:Sans" d="M 25.6875 5.46875 L 23.875 6.3125 L 24.3125 7.21875 L 24.4375 7.46875 L 9.9375 12.25 C 9.8988627 11.791314 9.8614284 11.29892 9.75 10.78125 C 9.5694736 9.9425675 9.2739791 9.0598451 8.6875 8.3125 C 8.1010209 7.5651549 7.1469044 7 6 7 L 6 9 C 6.5615956 9 6.8286353 9.1848451 7.125 9.5625 C 7.4213647 9.9401549 7.6701514 10.557432 7.8125 11.21875 C 7.9421551 11.821097 7.9835042 12.412232 8 12.90625 L 4.59375 14.03125 L 4.3125 14.125 L 4.125 14.375 C 4.125 14.375 2.3313901 16.866566 3.1875 20.03125 C 2.5039753 20.171119 2 20.775126 2 21.5 C 2 22.328427 2.6715729 23 3.5 23 C 3.8825384 23 4.2350321 22.860715 4.5 22.625 C 6.4051804 24.990477 9.125 25.03125 9.125 25.03125 L 9.40625 25.03125 L 9.625 24.875 L 9.71875 24.8125 C 10.733285 26.696418 12.71965 28 15 28 C 18.301864 28 21 25.301864 21 22 C 21 20.690825 20.561542 19.488802 19.84375 18.5 L 27.4375 13.78125 L 27.5625 14.0625 L 28 14.96875 L 29.78125 14.09375 L 29.375 13.1875 L 26.125 6.375 L 25.6875 5.46875 z M 25.28125 9.3125 L 26.5625 11.96875 L 18.375 17.0625 C 17.410021 16.399172 16.253706 16 15 16 C 11.698136 16 9 18.698136 9 22 C 9 22.292817 9.0215214 22.59314 9.0625 22.875 L 8.875 23 C 8.5846337 23.0088 6.7031955 23.0048 5.4375 20.40625 C 4.1946764 17.854654 5.4169064 16.102881 5.625 15.8125 L 25.28125 9.3125 z M 15 18 C 17.220984 18 19 19.779016 19 22 C 19 24.220984 17.220984 26 15 26 C 12.779016 26 11 24.220984 11 22 C 11 19.779016 12.779016 18 15 18 z M 15 21 C 14.447715 21 14 21.447715 14 22 C 14 22.552285 14.447715 23 15 23 C 15.552285 23 16 22.552285 16 22 C 16 21.447715 15.552285 21 15 21 z" overflow="visible" font-family="Sans" fill="#000000"/></svg>
