<?xml version="1.0" encoding="utf-8"?>
<svg xmlns="http://www.w3.org/2000/svg" viewBox="0 0 32 32" fill="#000000"><path style="text-indent:0;text-align:start;line-height:normal;text-transform:none;block-progression:tb;-inkscape-font-specification:Sans" d="M 21.125 4 L 19.46875 4.625 C 17.604452 5.3292324 16.395642 6.0558307 15.59375 6.8125 C 14.791858 7.5691693 14.415211 8.4014664 14.21875 9.03125 C 14.022289 9.6610336 13.944097 10.02736 13.8125 10.21875 C 13.697117 10.386559 13.492206 10.588116 12.84375 10.78125 C 12.832616 10.774215 12.75507 10.722309 12.75 10.71875 L 12.71875 10.71875 C 12.218712 10.391926 11.649075 10.187599 11.09375 10.09375 C 9.4277765 9.8122038 7.686046 10.539438 6.71875 12.09375 L 6.6875 12.125 C 6.0941526 13.131725 5.7690662 14.41158 5.9375 15.75 C 5.9887895 16.15756 6.0913592 16.568914 6.25 16.96875 C 4.7834591 17.053474 3.4090192 17.879622 2.625 19.21875 L 2.59375 19.21875 C 1.3748572 21.369588 2.1190651 24.149677 4.28125 25.375 L 4.3125 25.375 L 4.3125 25.40625 C 4.4242162 25.46236 5.7562068 26.163224 7.75 26.78125 C 9.7437932 27.399276 12.530083 28 16 28 C 19.467166 28 22.254498 27.423671 24.25 26.8125 C 26.223995 26.207916 27.331673 25.614385 27.71875 25.375 C 27.72295 25.3724 27.74596 25.34627 27.75 25.34375 C 29.881274 24.106967 30.602231 21.377397 29.375 19.28125 L 29.40625 19.28125 C 28.830976 18.266131 27.934045 17.574165 26.90625 17.25 C 26.905447 17.247087 26.875809 17.252911 26.875 17.25 C 26.557601 16.107472 25.810285 15.131051 24.78125 14.5625 C 24.916038 14.124402 25 13.616961 25 13 C 25 11.839615 24.585926 10.864732 24.03125 10.15625 C 23.476574 9.4477676 22.808201 8.9757148 22.25 8.53125 C 21.691799 8.0867852 21.243472 7.6766097 21 7.28125 C 20.756528 6.8858903 20.635978 6.5110409 20.78125 5.75 L 21.125 4 z M 18.875 7.1875 C 18.97039 7.604892 19.108557 8.0125786 19.3125 8.34375 C 19.785559 9.1119216 20.419576 9.6003398 21 10.0625 C 21.580424 10.52466 22.123645 10.965451 22.46875 11.40625 C 22.813855 11.847049 23 12.268885 23 13 C 23 13.482158 22.94703 13.77211 22.875 14 C 20.149275 13.602676 17.76311 12.912128 16 12.25 C 15.647877 12.117762 15.338338 11.975464 15.03125 11.84375 C 15.200893 11.696164 15.348866 11.518105 15.46875 11.34375 C 15.918184 10.690109 15.979836 10.059091 16.125 9.59375 C 16.270164 9.1284086 16.43186 8.7566119 16.96875 8.25 C 17.290963 7.945958 18.179396 7.5518307 18.875 7.1875 z M 10.3125 11.96875 C 10.753404 11.963967 11.208057 12.102487 11.625 12.375 C 12.17658 12.75777 13.354498 13.358431 15.3125 14.09375 C 17.290514 14.836585 19.935391 15.623859 23.03125 16.03125 L 23.0625 16.03125 C 23.759378 16.116113 24.33075 16.526888 24.6875 17.125 C 24.330209 17.189637 23.966565 17.286306 23.625 17.4375 C 23.57562 17.45936 23.517624 17.445 23.46875 17.46875 C 23.43103 17.48149 23.42134 17.49377 23.40625 17.5 C 23.37598 17.51529 23.34256 17.51522 23.3125 17.53125 C 23.28481 17.54403 23.25389 17.57752 23.21875 17.59375 C 23.1309 17.63433 23.006717 17.68172 22.84375 17.75 C 22.517815 17.88657 22.034427 18.06386 21.40625 18.25 C 20.149896 18.622279 18.320038 19 16 19 C 14.276084 19 12.805576 18.806247 11.65625 18.5625 C 11.297729 18.475982 10.950563 18.384542 10.625 18.28125 C 9.9738753 18.074665 9.3680743 17.776389 9.375 17.78125 C 8.4075498 17.128708 8.0123162 16.34283 7.90625 15.5 C 7.8001838 14.65717 8.0335974 13.757275 8.40625 13.125 C 8.8751699 12.37151 9.5776606 11.976721 10.3125 11.96875 z M 6.28125 18.9375 C 6.7587511 18.901769 7.2571488 19.019658 7.71875 19.28125 C 7.72495 19.28395 7.742495 19.30803 7.75 19.3125 C 7.80361 19.34444 7.8745551 19.37382 7.9375 19.40625 C 8.0633898 19.4711 8.206364 19.539947 8.40625 19.625 C 8.8060221 19.795107 9.3557045 19.98553 10.0625 20.1875 C 10.313357 20.259184 10.617722 20.336584 10.90625 20.40625 C 11.012291 20.435317 11.11111 20.472617 11.21875 20.5 C 11.229229 20.502348 11.239477 20.497659 11.25 20.5 C 11.648258 20.60053 12.042567 20.690145 12.4375 20.75 L 12.4375 20.71875 C 13.480474 20.88884 14.664762 21 16 21 C 18.534962 21 20.557354 20.574471 21.96875 20.15625 C 22.674448 19.94714 23.243466 19.722367 23.625 19.5625 C 23.764786 19.50393 23.845685 19.447889 23.9375 19.40625 L 24.03125 19.40625 L 24.0625 19.375 L 24.125 19.34375 L 24.25 19.28125 C 25.493592 18.617952 26.984763 19.009963 27.6875 20.25 L 27.6875 20.28125 C 28.370594 21.447994 27.97567 22.961656 26.75 23.65625 L 26.71875 23.65625 L 26.71875 23.6875 C 26.64173 23.73555 25.516998 24.345921 23.6875 24.90625 C 21.858002 25.466579 19.250834 26 16 26 C 12.751917 26 10.143207 25.473724 8.3125 24.90625 C 6.504115 24.345696 5.5988344 23.832663 5.25 23.65625 C 5.2361319 23.648391 5.2324066 23.633068 5.21875 23.625 C 4.0252879 22.919909 3.6505747 21.441916 4.34375 20.21875 C 4.6928589 19.635511 5.2114538 19.201807 5.8125 19.03125 C 5.9647109 18.988058 6.122083 18.94941 6.28125 18.9375 z" overflow="visible" font-family="Sans" fill="#000000"/></svg>
