<?xml version="1.0" encoding="utf-8"?>
<svg xmlns="http://www.w3.org/2000/svg" viewBox="0 0 32 32" fill="#000000"><path style="text-indent:0;text-align:start;line-height:normal;text-transform:none;block-progression:tb;-inkscape-font-specification:Bitstream Vera Sans" d="M 15.21875 2.78125 L 13.78125 4.21875 L 15.5625 6 L 9 6 C 7.3545455 6 6 7.3545455 6 9 L 6 11 L 8 11 L 8 9 C 8 8.4454545 8.4454545 8 9 8 L 15.5625 8 L 13.78125 9.78125 L 15.21875 11.21875 L 18.71875 7.71875 L 19.40625 7 L 18.71875 6.28125 L 15.21875 2.78125 z M 21 6 L 21 8 L 23 8 C 23.554545 8 24 8.4454545 24 9 L 24 15.5625 L 22.21875 13.78125 L 20.78125 15.21875 L 24.28125 18.71875 L 25 19.40625 L 25.71875 18.71875 L 29.21875 15.21875 L 27.78125 13.78125 L 26 15.5625 L 26 9 C 26 7.3545455 24.645455 6 23 6 L 21 6 z M 7 12.59375 L 6.28125 13.28125 L 2.78125 16.78125 L 4.21875 18.21875 L 6 16.4375 L 6 23 C 6 24.645455 7.3545455 26 9 26 L 11 26 L 11 24 L 9 24 C 8.4454545 24 8 23.554545 8 23 L 8 16.4375 L 9.78125 18.21875 L 11.21875 16.78125 L 7.71875 13.28125 L 7 12.59375 z M 16.78125 20.78125 L 13.28125 24.28125 L 12.59375 25 L 13.28125 25.71875 L 16.78125 29.21875 L 18.21875 27.78125 L 16.4375 26 L 23 26 C 24.645455 26 26 24.645455 26 23 L 26 21 L 24 21 L 24 23 C 24 23.554545 23.554545 24 23 24 L 16.4375 24 L 18.21875 22.21875 L 16.78125 20.78125 z" fill="#000000"/></svg>
