<?xml version="1.0" encoding="utf-8"?>
<svg xmlns="http://www.w3.org/2000/svg" viewBox="0 0 32 32" fill="#000000"><path style="text-indent:0;text-align:start;line-height:normal;text-transform:none;block-progression:tb;-inkscape-font-specification:Bitstream Vera Sans" d="M 3 6 L 3 7 L 3 25 L 3 26 L 4 26 L 28 26 L 29 26 L 29 25 L 29 7 L 29 6 L 28 6 L 4 6 L 3 6 z M 5 8 L 9 8 L 9 12 L 5 12 L 5 8 z M 11 8 L 15 8 L 15 12 L 11 12 L 11 8 z M 17 8 L 21 8 L 21 12 L 17 12 L 17 8 z M 23 8 L 27 8 L 27 12 L 23 12 L 23 8 z M 6 9 L 6 11 L 8 11 L 8 9 L 6 9 z M 12 9 L 12 11 L 14 11 L 14 9 L 12 9 z M 18 9 L 18 11 L 20 11 L 20 9 L 18 9 z M 24 9 L 24 11 L 26 11 L 26 9 L 24 9 z M 5 14 L 9 14 L 9 18 L 5 18 L 5 14 z M 11 14 L 15 14 L 15 18 L 11 18 L 11 14 z M 17 14 L 21 14 L 21 18 L 17 18 L 17 14 z M 23 14 L 27 14 L 27 18 L 23 18 L 23 14 z M 6 15 L 6 17 L 8 17 L 8 15 L 6 15 z M 5 20 L 9 20 L 9 24 L 5 24 L 5 20 z M 11 20 L 15 20 L 15 24 L 11 24 L 11 20 z M 17 20 L 21 20 L 21 24 L 17 24 L 17 20 z M 23 20 L 27 20 L 27 24 L 23 24 L 23 20 z M 6 21 L 6 23 L 8 23 L 8 21 L 6 21 z" fill="#000000"/></svg>
