<?xml version="1.0" encoding="utf-8"?>
<svg xmlns="http://www.w3.org/2000/svg" viewBox="0 0 32 32" fill="#000000"><path style="text-indent:0;text-align:start;line-height:normal;text-transform:none;block-progression:tb;-inkscape-font-specification:Sans" d="M 24.75 3.96875 C 24.75 3.96875 23.484495 4.9920295 22.3125 6.96875 C 21.240201 8.7773197 20.201437 11.451296 20.03125 15 L 11.96875 15 C 11.79672 11.394546 10.725717 8.7429091 9.625 6.96875 C 8.4242652 5.0333799 7.125 4.0625 7.125 4.0625 L 5.9375 5.6875 C 5.9375 5.6875 6.8779848 6.3426201 7.90625 8 C 8.8389304 9.5033142 9.7977173 11.793975 9.96875 15 L 7 15 L 7 17 L 9.96875 17 C 9.7983429 20.213608 8.8428402 22.548208 7.90625 24.09375 C 6.8736743 25.797685 5.9375 26.5 5.9375 26.5 L 7.15625 28.09375 C 7.15625 28.09375 8.4285757 27.099315 9.625 25.125 C 10.721765 23.31514 11.796143 20.613374 11.96875 17 L 20.03125 17 C 20.20312 20.550766 21.25154 23.245426 22.3125 25.0625 C 23.472102 27.048515 24.6875 28.0625 24.6875 28.0625 L 25.96875 26.53125 C 25.96875 26.53125 25.038148 25.755735 24.03125 24.03125 C 23.118034 22.467212 22.195948 20.163678 22.03125 17 L 25 17 L 25 15 L 22.03125 15 C 22.199355 11.835248 23.141394 9.522314 24.0625 7.96875 C 25.078005 6.2559705 26 5.53125 26 5.53125 L 24.75 3.96875 z" overflow="visible" font-family="Sans" fill="#000000"/></svg>
