<?xml version="1.0" encoding="utf-8"?>
<svg xmlns="http://www.w3.org/2000/svg" viewBox="0 0 32 32" fill="#000000"><path d="M 15.0625 9.09375 C 15.0465 9.09375 14.9375 9.11975 14.9375 9.21875 C 14.9375 9.30075 15.0005 9.3125 15.0625 9.3125 C 19.8665 9.3125 27.6925 11.20975 27.4375 15.34375 C 27.2315 18.71075 21.12975 22.65625 7.09375 22.65625 C 7.00975 22.65625 6.9375 22.72925 6.9375 22.78125 C 6.9375 22.83325 6.99475 22.865 7.09375 22.875 C 7.09375 22.875 31.48 23.86775 32 15.34375 C 32.421 8.42975 15.0785 9.09375 15.0625 9.09375 z M 3.375 10.25 C 3.354 10.25 3.3265 10.26525 3.3125 10.28125 C 1.8955 12.27625 1.04225 13.611 0.15625 15.25 L 0.0625 15.4375 L 0.03125 15.5 C -0.04475 15.659 -0.01225 15.833 0.09375 16 C 0.61775 16.82 3.564 17.78125 10.125 17.78125 C 15.017 17.78125 20.21875 16.99425 20.21875 15.53125 C 20.21875 14.11825 15.081 13.25 10.125 13.25 C 8.478 13.25 6.845 13.4885 6.375 13.5625 C 6.823 12.8725 8.6675 10.36975 8.6875 10.34375 C 8.6965 10.33275 8.71875 10.3265 8.71875 10.3125 C 8.71875 10.3025 8.72175 10.29125 8.71875 10.28125 C 8.70375 10.26125 8.67825 10.25 8.65625 10.25 L 3.375 10.25 z M 10.125 14.78125 C 13.122 14.78125 14.9375 15.22625 14.9375 15.53125 C 14.9375 15.83625 13.122 16.25 10.125 16.25 C 7.127 16.25 5.28125 15.83625 5.28125 15.53125 C 5.28125 15.22625 7.127 14.78125 10.125 14.78125 z" fill="#000000"/></svg>
