<?xml version="1.0" encoding="utf-8"?>
<svg xmlns="http://www.w3.org/2000/svg" viewBox="0 0 32 32" fill="#000000"><path style="line-height:normal;text-indent:0;text-align:start;text-decoration-line:none;text-decoration-style:solid;text-decoration-color:#000;text-transform:none;block-progression:tb;isolation:auto;mix-blend-mode:normal" d="M 8 3 L 8 16 L 8 17.007812 L 8 29 L 24 29 L 24 20.220703 L 24 18.505859 L 24 18.451172 L 23.892578 18.480469 L 13.126953 15.996094 L 10 15.369141 L 10 12 L 15 12 L 15 14.482422 L 17 14.935547 L 17 12 L 22 12 L 22 16.064453 L 24 16.515625 L 24 3 L 8 3 z M 10 5 L 15 5 L 15 10 L 10 10 L 10 5 z M 17 5 L 22 5 L 22 10 L 17 10 L 17 5 z M 12.283203 17.867188 L 20.310547 19.480469 L 15.294922 20.878906 L 12.283203 17.867188 z M 10 18.414062 L 14.705078 23.121094 L 22 21.085938 L 22 27 L 10 27 L 10 18.414062 z" font-weight="400" font-family="sans-serif" white-space="normal" overflow="visible" fill="#000000"/></svg>
