<?xml version="1.0" encoding="utf-8"?>
<svg xmlns="http://www.w3.org/2000/svg" viewBox="0 0 32 32" fill="#000000"><path style="text-indent:0;text-align:start;line-height:normal;text-transform:none;block-progression:tb;-inkscape-font-specification:Sans" d="M 10 2 L 10 7.5625 L 8.09375 18.03125 C 7.7153759 19.918125 8.4617835 21.846338 10 23 L 18 29 C 18.896119 29.672089 19.957415 30 21 30 C 22.518632 30 24.021756 29.304326 25 28 C 26.649083 25.800808 26.200314 22.650235 24 21 L 18.53125 16.875 L 19.90625 8.96875 L 20.0625 8 L 19.125 7.8125 L 12 6.40625 L 12 2 L 10 2 z M 11.875 8.375 L 17.78125 9.5625 L 17.4375 11.5 L 11.53125 10.3125 L 11.875 8.375 z M 11.15625 12.28125 L 17.09375 13.46875 L 16.4375 17.125 L 16.3125 17.75 L 16.8125 18.125 L 22.25 22.15625 C 20.118129 22.660834 18.462522 24.414057 18.09375 26.59375 L 13.5 23.15625 C 13.81263 22.50084 14 21.769218 14 21 C 14 18.755708 12.483827 16.876812 10.4375 16.25 L 11.15625 12.28125 z M 10.09375 18.1875 C 11.218799 18.618524 12 19.715138 12 21 C 12 21.316745 11.933291 21.6189 11.84375 21.90625 L 11.1875 21.40625 C 10.261716 20.711912 9.8348741 19.541375 10.0625 18.40625 L 10.09375 18.1875 z M 23.5 24 L 23.84375 24 C 24.169993 24.919721 24.038116 25.969853 23.40625 26.8125 C 22.812494 27.604174 21.913368 28 21 28 C 20.663305 28 20.327465 27.925135 20 27.8125 L 20 27.5 C 20 25.555577 21.555577 24 23.5 24 z" overflow="visible" font-family="Sans" fill="#000000"/></svg>
