<?xml version="1.0" encoding="utf-8"?>
<svg xmlns="http://www.w3.org/2000/svg" viewBox="0 0 32 32" fill="#000000"><path d="M 22.9375 10 L 19.9375 21.75 L 20.71875 21.90625 L 23.71875 10.15625 L 22.9375 10 z M 16.25 10.46875 C 15.37 10.46875 14.6285 10.76675 14.0625 11.34375 C 13.4975 11.92075 13.21875 12.6565 13.21875 13.5625 C 13.21875 14.4265 13.52675 15.0895 14.09375 15.5625 C 14.49775 15.8965 15.22975 16.19975 16.34375 16.46875 C 17.35675 16.70975 18.06325 16.92575 18.40625 17.09375 C 18.75225 17.26475 18.99625 17.47175 19.15625 17.71875 C 19.31525 17.96775 19.375 18.2335 19.375 18.5625 C 19.375 19.1435 19.174 19.6565 18.75 20.0625 C 18.324 20.4685 17.76775 20.65625 17.09375 20.65625 C 16.26375 20.65625 15.539 20.35475 14.875 19.71875 C 14.211 19.08275 13.78475 18.19475 13.59375 17.09375 L 13.09375 17.09375 L 13.09375 21.09375 L 13.59375 21.09375 L 14.34375 20.125 C 15.11175 20.81 16.0225 21.15625 17.0625 21.15625 C 18.0305 21.15625 18.8265 20.86 19.4375 20.25 C 20.0495 19.639 20.34375 18.8635 20.34375 17.9375 C 20.34375 17.4175 20.222 16.9485 20 16.5625 C 19.778 16.1745 19.452 15.88 19 15.625 C 18.547 15.372 17.747 15.09575 16.625 14.84375 C 15.827 14.66875 15.289 14.49875 15 14.34375 C 14.711 14.18775 14.49075 13.997 14.34375 13.75 C 14.19875 13.503 14.125 13.204 14.125 12.875 C 14.125 12.346 14.33675 11.9285 14.71875 11.5625 C 15.09975 11.1945 15.5885 11 16.1875 11 C 16.9065 11 17.54275 11.25325 18.09375 11.78125 C 18.64375 12.30925 19.06275 13.1635 19.34375 14.3125 L 19.78125 14.3125 L 19.75 10.5625 L 19.25 10.5625 L 18.625 11.4375 C 18.215 11.0805 17.8165 10.8395 17.4375 10.6875 C 17.0565 10.5335 16.674 10.46875 16.25 10.46875 z M 26.59375 11 C 26.136437 10.998453 25.6775 11.0635 25.25 11.21875 C 24.678 11.42875 24.22225 11.734 23.90625 12.125 C 23.58825 12.519 23.40575 12.983 23.34375 13.5 C 23.29075 13.961 23.3615 14.34125 23.5625 14.65625 C 23.7645 14.96825 24.03175 15.1505 24.34375 15.1875 C 24.61375 15.2175 24.83525 15.15 25.03125 15 C 25.22525 14.849 25.343 14.66525 25.375 14.40625 C 25.433 13.93125 25.1895 13.58625 24.6875 13.40625 C 24.4885 13.33125 24.3655 13.2585 24.3125 13.1875 C 24.2535 13.1135 24.235 13.001 24.25 12.875 C 24.292 12.505 24.55425 12.18425 25.03125 11.90625 C 25.50825 11.63025 26.1195 11.546 26.8125 11.625 C 27.4295 11.697 27.8835 11.9145 28.1875 12.3125 C 28.4925 12.7085 28.60225 13.22275 28.53125 13.84375 C 28.48625 14.21975 28.341 14.6235 28.125 15.0625 C 27.908 15.5005 27.6045 15.95725 27.1875 16.40625 C 26.8985 16.72125 26.05225 17.46425 24.65625 18.65625 L 22.125 20.9375 L 22.09375 21.34375 L 28.9375 22.125 L 29.5625 19 L 29.03125 18.9375 C 28.71425 19.8115 28.46725 20.35325 28.28125 20.53125 C 28.09325 20.71025 27.8195 20.76275 27.4375 20.71875 C 24.8885 20.42275 23.728 20.147 24 19.875 C 24.269 19.603 24.693 19.27525 25.25 18.90625 L 27.46875 17.46875 C 27.97775 17.13575 28.497 16.70975 29 16.21875 C 29.293 15.93375 29.5125 15.62525 29.6875 15.28125 C 29.8625 14.93825 29.958 14.598 30 14.25 C 30.058 13.744 29.99625 13.2705 29.78125 12.8125 C 29.56825 12.3525 29.21475 11.95 28.71875 11.625 C 28.22275 11.301 27.64825 11.10125 27.03125 11.03125 C 26.87575 11.01325 26.746188 11.000516 26.59375 11 z M 7.125 11.40625 C 6.258 11.40625 5.429 11.629 4.625 12.125 C 3.826 12.624 3.17875 13.3105 2.71875 14.1875 C 2.25775 15.0665 2.03125 16.06725 2.03125 17.15625 C 2.03125 18.26325 2.274 19.2765 2.75 20.1875 C 3.227 21.0935 3.838 21.79425 4.625 22.28125 C 5.412 22.76725 6.25925 23 7.15625 23 C 8.07425 23 8.96125 22.746 9.78125 22.25 C 10.60325 21.75 11.2195 21.0765 11.6875 20.1875 C 12.1545 19.2955 12.40625 18.2905 12.40625 17.1875 C 12.40625 16.0815 12.1545 15.0695 11.6875 14.1875 C 11.2235 13.3035 10.60725 12.617 9.78125 12.125 C 8.95725 11.631 8.068 11.40625 7.125 11.40625 z M 7.25 11.96875 C 7.871 11.96875 8.4345 12.141 8.9375 12.5 C 9.4425 12.861 9.82275 13.4435 10.09375 14.1875 C 10.36775 14.9385 10.5 15.95225 10.5 17.28125 C 10.5 18.50125 10.3535 19.5 10.0625 20.25 C 9.7735 21.002 9.39425 21.56225 8.90625 21.90625 C 8.41925 22.25325 7.8325 22.40625 7.1875 22.40625 C 6.2655 22.40625 5.501 22.04225 4.875 21.28125 C 4.249 20.52025 3.9375 19.14425 3.9375 17.15625 C 3.9375 15.32725 4.23275 13.9965 4.84375 13.1875 C 5.45375 12.3775 6.269 11.96875 7.25 11.96875 z" fill="#000000"/></svg>
