<?xml version="1.0" encoding="utf-8"?>
<svg xmlns="http://www.w3.org/2000/svg" viewBox="0 0 32 32" fill="#000000"><path style="text-indent:0;text-align:start;line-height:normal;text-transform:none;block-progression:tb;-inkscape-font-specification:Bitstream Vera Sans" d="M 4 8 L 4 9 L 4 23 L 4 24 L 5 24 L 27 24 L 28 24 L 28 23 L 28 9 L 28 8 L 27 8 L 5 8 L 4 8 z M 6 10 L 26 10 L 26 22 L 6 22 L 6 10 z M 13 13 L 11.65625 15 L 9 15 L 9 19 L 12 19 L 12 18 L 14 18 L 14 19 L 18 19 L 18 18 L 20 18 L 20 19 L 23 19 L 23 15 L 20.34375 15 L 19 13 L 13 13 z" overflow="visible" font-family="Bitstream Vera Sans" fill="#000000"/></svg>
