<?xml version="1.0" encoding="utf-8"?>
<svg xmlns="http://www.w3.org/2000/svg" viewBox="0 0 32 32" fill="#000000"><path d="M 9 5 L 9 6 L 9 14 L 8 14 C 6.346 14 5 15.346 5 17 L 5 27 L 27 27 L 27 17 C 27 15.346 25.654 14 24 14 L 23 14 L 23 6 L 23 5 L 22 5 L 10 5 L 9 5 z M 11 7 L 21 7 L 21 14 L 11 14 L 11 7 z M 13 9 L 13 11 L 15 11 L 15 9 L 13 9 z M 17 9 L 17 11 L 19 11 L 19 9 L 17 9 z M 13.21875 16.78125 L 16 19.59375 L 18.78125 16.78125 L 20.21875 18.21875 L 17.40625 21 L 20.21875 23.78125 L 18.78125 25.21875 L 16 22.40625 L 13.21875 25.21875 L 11.78125 23.78125 L 14.59375 21 L 11.78125 18.21875 L 13.21875 16.78125 z" fill="#000000"/></svg>
