<?xml version="1.0" encoding="utf-8"?>
<svg xmlns="http://www.w3.org/2000/svg" viewBox="0 0 32 32" fill="#000000"><path style="text-indent:0;text-align:start;line-height:normal;text-transform:none;block-progression:tb;-inkscape-font-specification:Bitstream Vera Sans" d="M 13.6875 4.25 L 12.3125 5.75 C 12.3125 5.75 12.90563 6.2547745 13.59375 7.71875 C 13.822765 8.2059793 14.041916 8.8092986 14.25 9.5 C 13.765442 9.0700118 13.237468 8.6597494 12.6875 8.3125 C 10.313685 6.8136747 7.4437858 6 5 6 L 4 6 L 4 7 C 4 8.781164 4.2179067 11.853452 5.28125 14.625 C 5.8129216 16.010774 6.5559274 17.338088 7.65625 18.34375 C 7.9415339 18.604491 8.2586786 18.854647 8.59375 19.0625 C 7.8081069 19.586658 7.1533643 20.244464 6.65625 20.875 C 5.5659828 22.257886 5.0625 23.65625 5.0625 23.65625 L 4.78125 24.4375 L 5.5 24.84375 L 10.5 27.84375 L 10.71875 28 L 11 28 C 13.08786 28 14.924438 26.909567 16 25.28125 C 17.075562 26.909567 18.91214 28 21 28 L 21.28125 28 L 21.5 27.84375 L 26.5 24.84375 L 27.21875 24.4375 L 26.9375 23.65625 C 26.9375 23.65625 26.434017 22.257886 25.34375 20.875 C 24.846636 20.244464 24.191893 19.586658 23.40625 19.0625 C 23.741321 18.854647 24.058466 18.604491 24.34375 18.34375 C 25.444073 17.338088 26.187078 16.010774 26.71875 14.625 C 27.782093 11.853452 28 8.781164 28 7 L 28 6 L 27 6 C 24.556214 6 21.686315 6.8136747 19.3125 8.3125 C 18.762532 8.6597494 18.234558 9.0700118 17.75 9.5 C 17.958084 8.8092986 18.177235 8.2059793 18.40625 7.71875 C 19.09437 6.2547745 19.6875 5.75 19.6875 5.75 L 18.3125 4.25 C 18.3125 4.25 17.40563 5.1477255 16.59375 6.875 C 16.39078 7.3068186 16.187471 7.7944806 16 8.34375 C 15.812529 7.7944806 15.60922 7.3068186 15.40625 6.875 C 14.59437 5.1477255 13.6875 4.25 13.6875 4.25 z M 6.09375 8.1875 C 7.8917431 8.3866909 9.9411856 8.9368407 11.625 10 C 13.646185 11.276175 15 12.997619 15 15 L 17 15 C 17 12.997619 18.353815 11.276175 20.375 10 C 22.058814 8.9368407 24.108257 8.3866909 25.90625 8.1875 C 25.82147 9.8387391 25.585822 11.972078 24.84375 13.90625 C 24.386672 15.097601 23.783115 16.159256 23 16.875 C 22.216885 17.590744 21.286676 18 20 18 L 20 20 C 21.653076 20 22.869267 21.007886 23.75 22.125 C 24.357906 22.896063 24.472389 23.252755 24.65625 23.65625 L 20.8125 25.96875 C 18.684956 25.866973 17 24.15419 17 22 L 17 21 L 15 21 L 15 22 C 15 24.15419 13.315044 25.866973 11.1875 25.96875 L 7.34375 23.65625 C 7.5276112 23.252755 7.6420938 22.896063 8.25 22.125 C 9.1307328 21.007886 10.346924 20 12 20 L 12 18 C 10.713324 18 9.7831149 17.590744 9 16.875 C 8.2168851 16.159256 7.6133284 15.097601 7.15625 13.90625 C 6.4141777 11.972078 6.1785287 9.8387391 6.09375 8.1875 z" overflow="visible" font-family="Bitstream Vera Sans" fill="#000000"/></svg>
