<?xml version="1.0" encoding="utf-8"?>
<svg xmlns="http://www.w3.org/2000/svg" viewBox="0 0 32 32" fill="#000000"><path style="text-indent:0;text-align:start;line-height:normal;text-transform:none;block-progression:tb;-inkscape-font-specification:Sans" d="M 16 4 C 9.3844277 4 4 9.3844277 4 16 C 4 22.615572 9.3844277 28 16 28 C 22.615572 28 28 22.615572 28 16 C 28 9.3844277 22.615572 4 16 4 z M 16 6 C 21.534692 6 26 10.465308 26 16 C 26 21.534692 21.534692 26 16 26 C 10.465308 26 6 21.534692 6 16 C 6 10.465308 10.465308 6 16 6 z M 19.5 9 C 18.671573 9 18 9.6715729 18 10.5 C 18 11.328427 18.671573 12 19.5 12 C 20.328427 12 21 11.328427 21 10.5 C 21 9.6715729 20.328427 9 19.5 9 z M 16 11 C 13.250421 11 11 13.250421 11 16 C 11 18.749579 13.250421 21 16 21 C 18.749579 21 21 18.749579 21 16 C 21 13.250421 18.749579 11 16 11 z M 16 13 C 17.668699 13 19 14.331301 19 16 C 19 17.668699 17.668699 19 16 19 C 14.331301 19 13 17.668699 13 16 C 13 14.331301 14.331301 13 16 13 z M 9.5 15 C 8.6715729 15 8 15.671573 8 16.5 C 8 17.328427 8.6715729 18 9.5 18 C 10.328427 18 11 17.328427 11 16.5 C 11 15.671573 10.328427 15 9.5 15 z M 19.5 20 C 18.671573 20 18 20.671573 18 21.5 C 18 22.328427 18.671573 23 19.5 23 C 20.328427 23 21 22.328427 21 21.5 C 21 20.671573 20.328427 20 19.5 20 z" overflow="visible" font-family="Sans" fill="#000000"/></svg>
