<?xml version="1.0" encoding="utf-8"?>
<svg xmlns="http://www.w3.org/2000/svg" viewBox="0 0 32 32" fill="#000000"><path style="text-indent:0;text-align:start;line-height:normal;text-transform:none;block-progression:tb;-inkscape-font-specification:Sans" d="M 5 5 L 5 6 L 5 13 L 2 13 L 1 13 L 1 14 L 1 26 L 1 27 L 2 27 L 30 27 L 31 27 L 31 26 L 31 14 L 31 13 L 30 13 L 27 13 L 27 6 L 27 5 L 26 5 L 6 5 L 5 5 z M 7 7 L 25 7 L 25 13 L 7 13 L 7 7 z M 12.8125 9 A 1.001098 1.001098 0 0 0 13 11 L 19 11 A 1.0001 1.0001 0 1 0 19 9 L 13 9 A 1.0001 1.0001 0 0 0 12.90625 9 A 1.001098 1.001098 0 0 0 12.8125 9 z M 3 15 L 29 15 L 29 25 L 3 25 L 3 15 z M 5 16 L 5 22 L 5 23 L 6 23 L 26 23 L 27 23 L 27 22 L 27 16 L 25 16 L 25 21 L 7 21 L 7 16 L 5 16 z" overflow="visible" font-family="Sans" fill="#000000"/></svg>
