<?xml version="1.0" encoding="utf-8"?>
<svg xmlns="http://www.w3.org/2000/svg" viewBox="0 0 32 32" fill="#000000"><path style="text-indent:0;text-align:start;line-height:normal;text-transform:none;block-progression:tb;-inkscape-font-specification:Bitstream Vera Sans" d="M 16.84375 4 L 10.84375 5 L 11.15625 7 L 17.15625 6 L 16.84375 4 z M 19.03125 5.96875 L 18.8125 6.03125 L 8.8125 8.03125 L 7.03125 8.375 L 8.28125 9.6875 C 8.28125 9.6875 11 12.611233 11 17 L 11 18.59375 L 12.4375 17.90625 C 14.335765 16.982651 20.812457 15 25 15 L 26.21875 15 L 25.96875 13.78125 C 24.636825 7.41917 19.21875 6.03125 19.21875 6.03125 L 19.03125 5.96875 z M 18.90625 8.03125 C 19.110009 8.076218 22.189619 8.9921445 23.59375 13.125 C 19.592521 13.393313 15.351396 14.643559 12.8125 15.6875 C 12.472947 12.65771 11.487537 10.835183 10.65625 9.6875 L 18.90625 8.03125 z M 2 15 L 2 16 L 2 20 L 2 20.40625 L 2.28125 20.71875 L 3.125 21.5625 C 3.18766 21.76789 3.3776331 22.336142 3.75 23.25 C 3.9749668 23.802111 4.2172013 24.402252 4.53125 24.96875 C 4.3633016 24.996872 4.1824075 25 4 25 C 3.3665518 25 2.7956774 24.812099 2.4375 24.5625 C 2.0793226 24.312901 2 24.042136 2 24 L 0 24 C 0 24.941864 0.58867738 25.683099 1.3125 26.1875 C 2.0363226 26.691901 2.9614482 27 4 27 C 5.035362 27 5.9618851 26.690468 6.6875 26.1875 C 6.8001837 26.109392 6.895686 26.026988 7 25.9375 C 7.1012319 26.023981 7.2036063 26.111617 7.3125 26.1875 C 8.0363226 26.691901 8.9614482 27 10 27 C 11.035362 27 11.961885 26.690468 12.6875 26.1875 C 12.800184 26.109392 12.895686 26.026988 13 25.9375 C 13.101232 26.023981 13.203606 26.111617 13.3125 26.1875 C 14.036323 26.691901 14.961448 27 16 27 C 17.035362 27 17.961885 26.690468 18.6875 26.1875 C 18.800184 26.109392 18.895686 26.026988 19 25.9375 C 19.101232 26.023981 19.203606 26.111617 19.3125 26.1875 C 20.036323 26.691901 20.961448 27 22 27 C 23.035362 27 23.961885 26.690468 24.6875 26.1875 C 24.800184 26.109392 24.895686 26.026988 25 25.9375 C 25.101232 26.023981 25.203606 26.111617 25.3125 26.1875 C 26.036323 26.691901 26.961448 27 28 27 C 29.035362 27 29.961885 26.690468 30.6875 26.1875 C 31.413115 25.684532 32 24.942667 32 24 L 30 24 C 30 24.05733 29.91888 24.315468 29.5625 24.5625 C 29.206115 24.809532 28.636638 25 28 25 C 27.615972 25 27.273331 24.922501 26.96875 24.8125 C 28.364437 23.539765 30 21.157104 30 17 L 30 16 L 29 16 L 22 16 L 21.46875 16 L 21.15625 16.4375 L 19.4375 19 L 9.625 19 L 7.90625 15.5625 L 7.625 15 L 7 15 L 3 15 L 2 15 z M 4 17 L 6.375 17 L 8.09375 20.4375 L 8.375 21 L 9 21 L 20 21 L 20.53125 21 L 20.84375 20.5625 L 22.5625 18 L 27.875 18 C 27.539359 22.005737 25.537127 23.557913 24.75 24 L 24 24 C 24 24.05733 23.91888 24.315468 23.5625 24.5625 C 23.206115 24.809532 22.636638 25 22 25 C 21.366552 25 20.795677 24.812099 20.4375 24.5625 C 20.079323 24.312901 20 24.042136 20 24 L 18 24 C 18 24.05733 17.91888 24.315468 17.5625 24.5625 C 17.206115 24.809532 16.636638 25 16 25 C 15.366552 25 14.795677 24.812099 14.4375 24.5625 C 14.079323 24.312901 14 24.042136 14 24 L 12 24 C 12 24.05733 11.91888 24.315468 11.5625 24.5625 C 11.206115 24.809532 10.636638 25 10 25 C 9.3665518 25 8.7956774 24.812099 8.4375 24.5625 C 8.0793226 24.312901 8 24.042136 8 24 L 6.3125 24 C 6.0509034 23.534019 5.7996736 23.005375 5.59375 22.5 C 5.2006888 21.535354 4.96875 20.71875 4.96875 20.71875 L 4.875 20.46875 L 4.71875 20.28125 L 4 19.5625 L 4 17 z M 25 19 C 24.447715 19 24 19.447715 24 20 C 24 20.552285 24.447715 21 25 21 C 25.552285 21 26 20.552285 26 20 C 26 19.447715 25.552285 19 25 19 z" overflow="visible" font-family="Bitstream Vera Sans" fill="#000000"/></svg>
