<?xml version="1.0" encoding="utf-8"?>
<svg xmlns="http://www.w3.org/2000/svg" viewBox="0 0 32 32" fill="#000000"><path style="text-indent:0;text-align:start;line-height:normal;text-transform:none;block-progression:tb;-inkscape-font-specification:Bitstream Vera Sans" d="M 18.5 5.46875 L 17.46875 5.59375 L 13.46875 6.09375 L 12.5 6.21875 L 12.59375 7.21875 L 12.78125 9.03125 L 3.96875 10.09375 L 4.21875 12.09375 L 5 12 L 5 14 L 3 14 L 3 16 L 5 16 L 5 22 C 5 24.745455 7.2545455 27 10 27 L 22 27 C 24.745455 27 27 24.745455 27 22 L 27 16 L 29 16 L 29 14 L 27 14 L 27 12 L 27 11 L 26 11 L 13.09375 11 L 27.8125 9.1875 L 27.5625 7.21875 L 18.78125 8.28125 L 18.59375 6.5 L 18.5 5.46875 z M 16.71875 7.71875 L 16.8125 8.53125 L 14.78125 8.78125 L 14.6875 7.96875 L 16.71875 7.71875 z M 7 13 L 25 13 L 25 22 C 25 23.654545 23.654545 25 22 25 L 10 25 C 8.3454545 25 7 23.654545 7 22 L 7 13 z" overflow="visible" font-family="Bitstream Vera Sans" fill="#000000"/></svg>
