<?xml version="1.0" encoding="utf-8"?>
<svg xmlns="http://www.w3.org/2000/svg" viewBox="0 0 32 32" fill="#000000"><path d="M 18 3 L 14 7 L 9 4 L 8 8 L 3 8 L 5.03125 12 L 7.2753906 12 L 6.2597656 10 L 8 10 L 9.5625 10 L 9.9394531 8.484375 L 10.285156 7.1035156 L 12.970703 8.7148438 L 14.310547 9.5175781 L 15.414062 8.4140625 L 17.689453 6.1386719 L 18.335938 7.109375 L 19.078125 8.2246094 L 20.392578 7.9609375 L 23 7.4394531 L 23 9 L 23 11 L 25 11 L 26.142578 11 L 25.777344 12 L 27.90625 12 L 29 9 L 25 9 L 25 5 L 20 6 L 18 3 z M 15.984375 13 C 14.905375 13 14.063984 13.306828 13.458984 13.923828 C 12.853984 14.538828 12.552734 15.400859 12.552734 16.505859 C 12.552734 17.296859 12.704766 17.953469 13.009766 18.480469 C 13.315766 19.006469 13.714078 19.391766 14.205078 19.634766 C 14.696078 19.877766 15.317406 20 16.066406 20 C 16.803406 20 17.419062 19.858172 17.914062 19.576172 C 18.408063 19.295172 18.784875 18.900531 19.046875 18.394531 C 19.307875 17.888531 19.439453 17.240219 19.439453 16.449219 C 19.439453 15.359219 19.140016 14.51025 18.541016 13.90625 C 17.942016 13.30125 17.090375 13 15.984375 13 z M 3 13.115234 L 4.4785156 19.884766 L 6.4921875 19.884766 L 7.6542969 15.623047 L 8.8183594 19.884766 L 10.832031 19.884766 L 12.298828 13.115234 L 10.357422 13.115234 L 9.6542969 16.900391 L 8.625 13.115234 L 6.6816406 13.115234 L 5.6523438 16.904297 L 4.9511719 13.115234 L 3 13.115234 z M 19.701172 13.115234 L 21.181641 19.884766 L 23.195312 19.884766 L 24.355469 15.623047 L 25.521484 19.884766 L 27.535156 19.884766 L 29 13.115234 L 27.060547 13.115234 L 26.357422 16.900391 L 25.326172 13.115234 L 23.382812 13.115234 L 22.355469 16.904297 L 21.652344 13.115234 L 19.701172 13.115234 z M 15.978516 14.582031 C 16.410516 14.582031 16.753859 14.729437 17.005859 15.023438 C 17.258859 15.318438 17.384766 15.782922 17.384766 16.419922 C 17.384766 17.176922 17.265438 17.701141 17.023438 17.994141 C 16.781437 18.287141 16.439047 18.433594 15.998047 18.433594 C 15.568047 18.433594 15.229469 18.285328 14.980469 17.986328 C 14.731469 17.688328 14.605469 17.197672 14.605469 16.513672 C 14.605469 15.824672 14.730469 15.329297 14.980469 15.029297 C 15.231469 14.730297 15.564516 14.582031 15.978516 14.582031 z M 5 21 L 4 24 L 8 24 L 8 28 L 13 26 L 15 29 L 18 26 L 23 28 L 24 25 L 28 25 L 27 21 L 24.9375 21 L 25.4375 23 L 24 23 L 22.558594 23 L 22.103516 24.367188 L 21.773438 25.355469 L 18.742188 24.142578 L 17.517578 23.652344 L 16.585938 24.585938 L 15.310547 25.861328 L 14.664062 24.890625 L 13.763672 23.539062 L 12.257812 24.142578 L 10 25.046875 L 10 24 L 10 22 L 8 22 L 6.7753906 22 L 7.1074219 21 L 5 21 z" fill="#000000"/></svg>
