<?xml version="1.0" encoding="utf-8"?>
<svg xmlns="http://www.w3.org/2000/svg" viewBox="0 0 32 32" fill="#000000"><path style="text-indent:0;text-align:start;line-height:normal;text-transform:none;block-progression:tb;-inkscape-font-specification:Sans" d="M 4.4375 5.03125 L 2.96875 6.375 L 11.65625 16 L 11 16 L 11 18 L 13 18 L 13 17.5 L 21.25 26.65625 L 21.5625 27 L 22 27 L 29 27 L 29 25 L 22.4375 25 L 16.125 18 L 17 18 L 17 16 L 15 16 L 15 16.75 L 4.4375 5.03125 z M 3 16 L 3 18 L 5 18 L 5 16 L 3 16 z M 7 16 L 7 18 L 9 18 L 9 16 L 7 16 z M 19 16 L 19 18 L 21 18 L 21 16 L 19 16 z M 23 16 L 23 18 L 25 18 L 25 16 L 23 16 z M 27 16 L 27 18 L 29 18 L 29 16 L 27 16 z" overflow="visible" font-family="Sans" fill="#000000"/></svg>
