<?xml version="1.0" encoding="utf-8"?>
<svg xmlns="http://www.w3.org/2000/svg" viewBox="0 0 32 32" fill="#000000"><path d="M 4 6 L 4 7 L 4 21 L 3 21 L 2 21 L 2 22 C 2 24.224563 3.8582937 26 6.0625 26 L 25.9375 26 C 28.141706 26 30 24.224563 30 22 L 30 21 L 29 21 L 28 21 L 28 7 L 28 6 L 27 6 L 5 6 L 4 6 z M 6 8 L 26 8 L 26 21 L 6 21 L 6 8 z M 14 11 L 14 17 L 15.59375 15.6875 L 16.5 17.90625 L 17.3125 17.5 L 16.3125 15.3125 L 18.40625 15.09375 L 14 11 z M 4.40625 23 L 5 23 L 27.59375 23 C 27.237072 23.572052 26.692242 24 25.9375 24 L 6.0625 24 C 5.3077579 24 4.7629284 23.572052 4.40625 23 z" fill="#000000"/></svg>
