<?xml version="1.0" encoding="utf-8"?>
<svg xmlns="http://www.w3.org/2000/svg" viewBox="0 0 32 32" fill="#000000"><path style="text-indent:0;text-align:start;line-height:normal;text-transform:none;block-progression:tb;-inkscape-font-specification:Bitstream Vera Sans" d="M 4 6 C 2.3550302 6 1 7.3550302 1 9 L 1 21 L 1 22 L 2 22 L 2.1875 22 C 2.0732389 22.31576 2 22.647008 2 23 C 2 24.645009 3.3549901 26 5 26 C 6.6450099 26 8 24.645009 8 23 C 8 22.647008 7.9267611 22.31576 7.8125 22 L 8.1875 22 C 8.0732389 22.31576 8 22.647008 8 23 C 8 24.645009 9.3549901 26 11 26 C 12.64501 26 14 24.64501 14 23 C 14 22.647008 13.926761 22.315761 13.8125 22 L 18.1875 22 C 18.073239 22.315761 18 22.647008 18 23 C 18 24.64501 19.35499 26 21 26 C 22.64501 26 24 24.64501 24 23 C 24 22.647008 23.926761 22.315761 23.8125 22 L 24.1875 22 C 24.073239 22.315761 24 22.647008 24 23 C 24 24.64501 25.35499 26 27 26 C 28.64501 26 30 24.64501 30 23 C 30 22.647008 29.926761 22.315761 29.8125 22 L 30 22 L 31 22 L 31 21 L 31 9 C 31 7.3550302 29.64497 6 28 6 L 4 6 z M 4 8 L 8 8 L 8 13 L 3 13 L 3 9 C 3 8.4349698 3.4349698 8 4 8 z M 10 8 L 15 8 L 15 13 L 10 13 L 10 8 z M 17 8 L 22 8 L 22 13 L 17 13 L 17 8 z M 24 8 L 28 8 C 28.56503 8 29 8.4349698 29 9 L 29 13 L 24 13 L 24 8 z M 3 15 L 29 15 L 29 20 L 27 20 L 21 20 L 3 20 L 3 15 z M 5 22 C 5.5641291 22 6 22.435871 6 23 C 6 23.564129 5.5641291 24 5 24 C 4.4358709 24 4 23.564129 4 23 C 4 22.435871 4.4358709 22 5 22 z M 11 22 C 11.564128 22 12 22.435872 12 23 C 12 23.564128 11.564128 24 11 24 C 10.435871 24 10 23.564129 10 23 C 10 22.435871 10.435871 22 11 22 z M 21 22 C 21.564128 22 22 22.435872 22 23 C 22 23.564128 21.564128 24 21 24 C 20.435872 24 20 23.564128 20 23 C 20 22.435872 20.435872 22 21 22 z M 27 22 C 27.564128 22 28 22.435872 28 23 C 28 23.564128 27.564128 24 27 24 C 26.435872 24 26 23.564128 26 23 C 26 22.435872 26.435872 22 27 22 z" fill="#000000"/></svg>
