<?xml version="1.0" encoding="utf-8"?>
<svg xmlns="http://www.w3.org/2000/svg" viewBox="0 0 32 32" fill="#000000"><path d="M 16 5 C 14.354991 5 13 6.3549901 13 8 C 13 9.2920182 13.844255 10.394282 15 10.8125 L 15 14 L 4 14 L 3 14 L 3 15 L 3 20 L 5 20 L 5 16 L 11 16 L 11 20 L 13 20 L 13 16 L 19 16 L 19 20 L 21 20 L 21 16 L 27 16 L 27 20 L 29 20 L 29 15 L 29 14 L 28 14 L 17 14 L 17 10.8125 C 18.155745 10.394282 19 9.2920182 19 8 C 19 6.3549901 17.645009 5 16 5 z M 16 7 C 16.564129 7 17 7.4358709 17 8 C 17 8.5641291 16.564129 9 16 9 C 15.435871 9 15 8.5641291 15 8 C 15 7.4358709 15.435871 7 16 7 z M 4 21 C 2.8954305 21 2 21.895431 2 23 C 2 24.104569 2.8954305 25 4 25 C 5.1045695 25 6 24.104569 6 23 C 6 21.895431 5.1045695 21 4 21 z M 12 21 C 10.895431 21 10 21.895431 10 23 C 10 24.104569 10.895431 25 12 25 C 13.104569 25 14 24.104569 14 23 C 14 21.895431 13.104569 21 12 21 z M 20 21 C 18.895431 21 18 21.895431 18 23 C 18 24.104569 18.895431 25 20 25 C 21.104569 25 22 24.104569 22 23 C 22 21.895431 21.104569 21 20 21 z M 28 21 C 26.895431 21 26 21.895431 26 23 C 26 24.104569 26.895431 25 28 25 C 29.104569 25 30 24.104569 30 23 C 30 21.895431 29.104569 21 28 21 z" fill="#000000"/></svg>
