<?xml version="1.0" encoding="utf-8"?>
<svg xmlns="http://www.w3.org/2000/svg" viewBox="0 0 32 32" fill="#000000"><path d="M 16.244141 2.0039062 C 12.071452 1.8786415 8.5763363 4.9848421 8.0703125 9 L 8 9 L 7 9 L 7 11 L 8 11 L 8 16.330078 C 7.9636789 16.347864 7.9423829 16.351149 7.9042969 16.371094 C 7.4378531 16.615361 6.837291 17.023081 6.25 17.677734 C 5.0933402 18.967064 4.0379251 21.206779 4.0058594 24.837891 A 1.0001 1.0001 0 0 0 4 25.109375 L 4 28 A 1.0001 1.0001 0 0 0 5.7519531 28.671875 A 1.0001 1.0001 0 0 0 7.5019531 27.886719 A 1.0001 1.0001 0 0 0 7.7070312 26.292969 L 6.0136719 24.599609 C 6.0861604 21.516614 6.9511178 19.891124 7.7382812 19.013672 C 7.8287525 18.912824 7.9118595 18.854351 8 18.771484 L 8 21.824219 A 1.0001 1.0001 0 0 0 8 22.152344 L 8 24 C 8 26.197334 9.8026661 28 12 28 L 12.382812 28 L 13.105469 29.447266 A 1.0001 1.0001 0 0 0 13.142578 29.515625 C 13.059697 29.661279 13 29.820542 13 30 L 15 30 C 15 29.831245 14.94696 29.680502 14.873047 29.541016 L 16 28.414062 L 17.126953 29.541016 C 17.05304 29.680502 17 29.831245 17 30 L 19 30 C 19 29.820542 18.940303 29.661279 18.857422 29.515625 A 1.0001 1.0001 0 0 0 18.894531 29.447266 L 19.617188 28 L 20 28 C 22.197334 28 24 26.197334 24 24 L 24 22.152344 A 1.0001 1.0001 0 0 0 24 21.820312 L 24 18.771484 C 24.088141 18.854351 24.171248 18.912824 24.261719 19.013672 C 25.048885 19.891057 25.91384 21.516609 25.986328 24.599609 L 24.292969 26.292969 A 1.0001 1.0001 0 0 0 24.507812 27.890625 A 1.0001163 1.0001163 0 0 0 26.244141 28.667969 A 1.0001 1.0001 0 0 0 28 28 L 28 25.126953 A 1.0001 1.0001 0 0 0 27.994141 24.814453 C 27.95764 21.197423 26.904134 18.964249 25.75 17.677734 C 25.162709 17.023081 24.562147 16.615355 24.095703 16.371094 C 24.057617 16.351149 24.036321 16.347864 24 16.330078 L 24 11 L 25 11 L 25 9 L 24 9 L 23.890625 9 C 23.302497 5.2182483 20.197188 2.12257 16.244141 2.0039062 z M 16.185547 4.0019531 C 18.023868 4.0571364 19.634163 4.9936353 20.691406 6.3925781 C 20.175213 6.1481609 19.605632 6 19 6 C 17.802871 6 16.735161 6.5462008 16 7.3886719 C 15.264839 6.5462008 14.197129 6 13 6 C 12.322527 6 11.69204 6.1868144 11.130859 6.4882812 C 12.25101 4.9330371 14.096521 3.9392402 16.185547 4.0019531 z M 13 8 C 14.116414 8 15 8.8835859 15 10 C 15 11.116414 14.116414 12 13 12 C 11.950672 12 11.117132 11.216133 11.019531 10.195312 A 1 1 0 0 0 12 11 A 1 1 0 0 0 13 10 A 1 1 0 0 0 12 9 A 1 1 0 0 0 11.019531 9.796875 C 11.120649 8.7798565 11.953328 8 13 8 z M 19 8 C 20.116414 8 21 8.8835859 21 10 C 21 11.116414 20.116414 12 19 12 C 17.950672 12 17.117132 11.216133 17.019531 10.195312 A 1 1 0 0 0 18 11 A 1 1 0 0 0 19 10 A 1 1 0 0 0 18 9 A 1 1 0 0 0 17.019531 9.796875 C 17.120649 8.7798565 17.953328 8 19 8 z M 10 12.611328 C 10.735161 13.453799 11.802871 14 13 14 C 14.197129 14 15.264839 13.453799 16 12.611328 C 16.735161 13.453799 17.802871 14 19 14 C 20.197129 14 21.264839 13.453799 22 12.611328 L 22 16.382812 L 18.763672 18 L 13.236328 18 L 10 16.382812 L 10 12.611328 z M 14 15 C 14 16.105 14.895 17 16 17 C 17.105 17 18 16.105 18 15 L 14 15 z M 10 18.617188 L 12 19.617188 L 12 21.921875 C 11.783479 21.904855 11.775288 21.921861 11.515625 21.884766 C 10.946836 21.80351 10.352255 21.611825 10 21.455078 L 10 18.617188 z M 22 18.617188 L 22 21.455078 C 21.647745 21.611825 21.053164 21.80351 20.484375 21.884766 C 20.224712 21.92186 20.216521 21.904857 20 21.921875 L 20 19.617188 L 22 18.617188 z M 14 20 L 18 20 L 18 24 L 19 24 C 19 24 19.811429 24.0015 20.765625 23.865234 C 21.157527 23.809249 21.579392 23.735091 22 23.623047 L 22 24 C 22 25.116666 21.116666 26 20 26 L 19.164062 26 A 1.0001 1.0001 0 0 0 18.955078 25.988281 A 1.0001 1.0001 0 0 0 18.845703 26 L 16.175781 26 A 1.0001 1.0001 0 0 0 16.052734 25.988281 A 1.0001 1.0001 0 0 0 15.820312 26 L 13.138672 26 A 1.0001 1.0001 0 0 0 13.015625 25.988281 A 1.0001 1.0001 0 0 0 12.845703 26 L 12 26 C 10.883334 26 10 25.116666 10 24 L 10 23.623047 C 10.420608 23.735091 10.842473 23.809249 11.234375 23.865234 C 12.188571 24.001549 13 24 13 24 L 14 24 L 14 20 z" fill="#000000"/></svg>
