<?xml version="1.0" encoding="utf-8"?>
<svg xmlns="http://www.w3.org/2000/svg" viewBox="0 0 32 32" fill="#000000"><path style="text-indent:0;text-align:start;line-height:normal;text-transform:none;block-progression:tb;-inkscape-font-specification:Bitstream Vera Sans" d="M 4 4 L 4 5 L 4 27 L 4 28 L 5 28 L 27 28 L 28 28 L 28 27 L 28 5 L 28 4 L 27 4 L 21 4 L 21 6 L 26 6 L 26 17 L 24 17 L 24 19 L 26 19 L 26 26 L 17 26 L 17 19 L 19 19 L 19 17 L 13 17 L 13 19 L 15 19 L 15 26 L 6 26 L 6 19 L 8 19 L 8 17 L 6 17 L 6 6 L 12.6875 6 L 18.4375 9.84375 L 19.5625 8.15625 L 13.5625 4.15625 L 13.3125 4 L 13 4 L 5 4 L 4 4 z" overflow="visible" font-family="Bitstream Vera Sans" fill="#000000"/></svg>
