<?xml version="1.0" encoding="utf-8"?>
<svg xmlns="http://www.w3.org/2000/svg" viewBox="0 0 32 32" fill="#000000"><path d="M 16 4 C 13.352823 4 10.97972 4.5387965 9.21875 5.28125 C 8.3382649 5.6524768 7.6252303 6.0565941 7.0625 6.53125 C 6.4997697 7.0059059 6 7.5745 6 8.40625 C 6 10.997058 7.4329604 12.959238 8.71875 14.5 C 9.3616448 15.270381 9.9885241 15.954524 10.40625 16.53125 C 10.823976 17.107976 11 17.564467 11 17.8125 L 11 21 C 11 21.7319 11.40315 22.370139 12 22.71875 L 12 25 C 12 26.093063 12.906937 27 14 27 L 15 28 L 17 28 L 18 27 C 19.093063 27 20 26.093063 20 25 L 20 22.71875 C 20.59685 22.370139 21 21.7319 21 21 L 21 17.8125 C 21 17.564467 21.176024 17.107976 21.59375 16.53125 C 22.011476 15.954524 22.638355 15.270381 23.28125 14.5 C 24.56704 12.959238 26 10.997058 26 8.40625 C 26 7.5745 25.50023 7.0059059 24.9375 6.53125 C 24.37477 6.0565941 23.661735 5.6524768 22.78125 5.28125 C 21.02028 4.5387965 18.647177 4 16 4 z M 16 6 C 18.371823 6 20.51572 6.4992035 22 7.125 C 22.691896 7.4167147 23.215866 7.7261908 23.5625 8 L 8.4375 8 C 8.7841338 7.7261908 9.3081037 7.4167147 10 7.125 C 11.48428 6.4992035 13.628177 6 16 6 z M 8.28125 10 L 23.71875 10 C 23.325347 11.156897 22.561463 12.208927 21.71875 13.21875 C 21.111645 13.946244 20.488524 14.657383 19.96875 15.375 C 19.448976 16.092617 19 16.866533 19 17.8125 L 19 21 L 13 21 L 13 17.8125 C 13 16.866533 12.551024 16.092617 12.03125 15.375 C 11.511476 14.657383 10.888355 13.946244 10.28125 13.21875 C 9.4385366 12.208927 8.6746533 11.156897 8.28125 10 z M 14 23 L 18 23 L 18 25 L 14 25 L 14 23 z" fill="#000000"/></svg>
