<?xml version="1.0" encoding="utf-8"?>
<svg xmlns="http://www.w3.org/2000/svg" viewBox="0 0 32 32" fill="#000000"><path style="text-indent:0;text-align:start;line-height:normal;text-transform:none;block-progression:tb;-inkscape-font-specification:Sans" d="M 8 6 C 8 16.706469 4.09375 25.0625 4.09375 25.0625 L 5.90625 25.9375 C 5.90625 25.9375 10 17.193531 10 6 L 8 6 z M 17 6 C 17 11.948732 15.821767 17.09512 14.75 20.5625 C 14.310123 17.375277 13.304172 12.933012 10.9375 8.34375 C 10.8695 9.75275 10.7295 11.10925 10.5625 12.40625 C 13.1875 19.13725 13.09575 25.02175 13.09375 25.09375 L 13.15625 25.09375 L 14.90625 25.9375 C 14.90625 25.9375 19 17.193531 19 6 L 17 6 z M 26 6 C 26 11.948732 24.821767 17.09512 23.75 20.5625 C 23.310123 17.375277 22.304172 12.933012 19.9375 8.34375 C 19.8695 9.75275 19.7295 11.10925 19.5625 12.40625 C 22.168215 19.0878 22.097115 24.906468 22.09375 25.0625 C 22.093725 25.063655 22.093765 25.093221 22.09375 25.09375 L 22.15625 25.09375 L 23.90625 25.9375 C 23.90625 25.9375 28 17.193531 28 6 L 26 6 z" overflow="visible" font-family="Sans" fill="#000000"/></svg>
