<?xml version="1.0" encoding="utf-8"?>
<svg xmlns="http://www.w3.org/2000/svg" viewBox="0 0 32 32" fill="#000000"><path style="text-indent:0;text-align:start;line-height:normal;text-transform:none;block-progression:tb;-inkscape-font-specification:Bitstream Vera Sans" d="M 22.5 4 C 20.577763 4 19 5.5777627 19 7.5 C 19 9.4222373 20.577763 11 22.5 11 C 24.422237 11 26 9.4222373 26 7.5 C 26 5.5777627 24.422237 4 22.5 4 z M 22.5 6 C 23.355763 6 24 6.6442373 24 7.5 C 24 8.3557627 23.355763 9 22.5 9 C 21.644237 9 21 8.3557627 21 7.5 C 21 6.6442373 21.644237 6 22.5 6 z M 9 9 L 9 11 L 17.59375 11 L 14.25 14.34375 L 14 14.59375 C 13.227416 15.366334 13.225949 16.634179 14 17.40625 L 16 19.40625 L 16 24 L 18 24 L 18 19.40625 C 18 18.877099 17.781057 18.374807 17.40625 18 L 15.40625 16 L 19 12.40625 C 19.5999 11.80635 19.720992 10.934512 19.4375 10.25 C 19.154008 9.5654877 18.442168 9 17.59375 9 L 9 9 z M 12.625 17.8125 L 9 21.4375 L 10.40625 22.84375 L 14.03125 19.21875 L 12.625 17.8125 z M 7 21 C 6.4477153 21 6 21.447715 6 22 C 6 22.552285 6.4477153 23 7 23 C 7.2761423 23 7.5377856 22.899714 7.71875 22.71875 C 7.8997144 22.537786 8 22.276142 8 22 C 8 21.447715 7.5522847 21 7 21 z M 7.71875 22.71875 C 7.5377856 22.899714 7.40625 23.130108 7.40625 23.40625 C 7.40625 23.958534 7.8539652 24.40625 8.40625 24.40625 C 8.6823923 24.40625 8.9440356 24.305965 9.125 24.125 C 9.3059644 23.944035 9.40625 23.682392 9.40625 23.40625 C 9.40625 22.853965 8.9585347 22.40625 8.40625 22.40625 C 8.1301076 22.40625 7.8997144 22.537786 7.71875 22.71875 z M 9.125 24.125 C 8.9440356 24.305964 8.8125 24.536358 8.8125 24.8125 C 8.8125 25.364785 9.2602152 25.8125 9.8125 25.8125 C 10.364785 25.8125 10.8125 25.364785 10.8125 24.8125 C 10.8125 24.260215 10.364785 23.8125 9.8125 23.8125 C 9.5363576 23.8125 9.3059644 23.944036 9.125 24.125 z M 15.0625 25 C 14.510215 25 14.0625 25.447715 14.0625 26 C 14.0625 26.552285 14.510215 27 15.0625 27 C 15.614785 27 16.0625 26.552285 16.0625 26 C 16.0625 25.447715 15.614785 25 15.0625 25 z M 16.0625 26 C 16.0625 26.552285 16.510215 27 17.0625 27 C 17.614785 27 18.0625 26.552285 18.0625 26 C 18.0625 25.447715 17.614785 25 17.0625 25 C 16.510215 25 16.0625 25.447715 16.0625 26 z M 18.0625 26 C 18.0625 26.552285 18.510215 27 19.0625 27 C 19.614785 27 20.0625 26.552285 20.0625 26 C 20.0625 25.447715 19.614785 25 19.0625 25 C 18.510215 25 18.0625 25.447715 18.0625 26 z" overflow="visible" font-family="Bitstream Vera Sans" fill="#000000"/></svg>
