<?xml version="1.0" encoding="utf-8"?>
<svg xmlns="http://www.w3.org/2000/svg" viewBox="0 0 32 32" fill="#000000"><path style="line-height:normal;text-indent:0;text-align:start;text-decoration-line:none;text-decoration-style:solid;text-decoration-color:#000;text-transform:none;block-progression:tb;isolation:auto;mix-blend-mode:normal" d="M 16 2 C 13.994571 2 12.049956 2.6424827 10.554688 3.7773438 C 9.0594184 4.9122046 8 6.6021426 8 8.5703125 L 8 16 A 1.0001 1.0001 0 0 0 8.2265625 16.648438 A 1.0001 1.0001 0 0 0 8.2949219 16.720703 A 1.0001 1.0001 0 0 0 8.3671875 16.789062 A 1.0001 1.0001 0 0 0 8.3691406 16.789062 A 1.0001 1.0001 0 0 0 8.4472656 16.847656 A 1.0001 1.0001 0 0 0 8.4492188 16.847656 A 1.0001 1.0001 0 0 0 8.5332031 16.898438 A 1.0001 1.0001 0 0 0 8.5351562 16.898438 A 1.0001 1.0001 0 0 0 9.2148438 16.990234 A 1.0001 1.0001 0 0 0 9.4042969 16.927734 A 1.0001 1.0001 0 0 0 9.4921875 16.884766 A 1.0001 1.0001 0 0 0 9.4941406 16.882812 A 1.0001 1.0001 0 0 0 9.5761719 16.830078 A 1.0001 1.0001 0 0 0 9.578125 16.828125 A 1.0001 1.0001 0 0 0 9.59375 16.816406 A 1.0001 1.0001 0 0 0 9.5957031 16.814453 C 10.132086 18.027697 11.001844 19.062 12.089844 19.798828 C 8.51515 21.325322 6 24.875791 6 29 L 8 29 C 8 26.100363 9.5335858 23.576592 11.832031 22.173828 C 12.378551 23.522171 13.558897 24.547278 15 24.878906 L 15 29 L 17 29 L 17 24.878906 C 18.441103 24.547278 19.621449 23.522171 20.167969 22.173828 C 22.466414 23.576592 24 26.100363 24 29 L 26 29 C 26 24.875791 23.48485 21.325322 19.910156 19.798828 C 20.997922 19.062159 21.865932 18.027359 22.402344 16.814453 A 1.0001 1.0001 0 0 0 22.4375 16.839844 A 1.0001 1.0001 0 0 0 22.533203 16.898438 A 1.0001 1.0001 0 0 0 22.613281 16.935547 A 1.0001 1.0001 0 0 0 23.015625 17.013672 A 1.0001 1.0001 0 0 0 23.103516 17.007812 A 1.0001 1.0001 0 0 0 23.201172 16.992188 A 1.0001 1.0001 0 0 0 23.212891 16.990234 A 1.0001 1.0001 0 0 0 23.392578 16.933594 A 1.0001 1.0001 0 0 0 23.394531 16.933594 A 1.0001 1.0001 0 0 0 23.402344 16.929688 A 1.0001 1.0001 0 0 0 23.566406 16.835938 A 1.0001 1.0001 0 0 0 23.576172 16.830078 A 1.0001 1.0001 0 0 0 23.785156 16.632812 A 1.0001 1.0001 0 0 0 23.792969 16.623047 A 1.0001 1.0001 0 0 0 23.84375 16.550781 A 1.0001 1.0001 0 0 0 23.849609 16.541016 A 1.0001 1.0001 0 0 0 23.933594 16.373047 A 1.0001 1.0001 0 0 0 23.933594 16.371094 A 1.0001 1.0001 0 0 0 23.9375 16.363281 A 1.0001 1.0001 0 0 0 23.964844 16.277344 A 1.0001 1.0001 0 0 0 23.966797 16.267578 A 1.0001 1.0001 0 0 0 23.986328 16.179688 A 1.0001 1.0001 0 0 0 23.986328 16.177734 A 1.0001 1.0001 0 0 0 23.988281 16.169922 A 1.0001 1.0001 0 0 0 23.998047 16.080078 A 1.0001 1.0001 0 0 0 23.998047 16.070312 A 1.0001 1.0001 0 0 0 24 16 L 24 8.5703125 C 24 6.6021426 22.940582 4.9122047 21.445312 3.7773438 C 19.950044 2.6424827 18.005429 2 16 2 z M 16 4 C 17.568571 4 19.125097 4.5277047 20.236328 5.3710938 C 21.34756 6.2144828 22 7.3094824 22 8.5703125 L 22 14 L 21.625 14 C 21.436755 13.94905 21.257712 13.894179 21.052734 13.849609 C 19.645307 13.543582 17.84753 13.382814 16 13.382812 C 14.15247 13.382812 12.354693 13.543582 10.947266 13.849609 C 10.742288 13.894179 10.563245 13.94905 10.375 14 L 10 14 L 10 8.5703125 C 10 7.3094824 10.65244 6.2144828 11.763672 5.3710938 C 12.874903 4.5277047 14.431429 4 16 4 z M 16 15.382812 C 17.72647 15.382812 19.42788 15.543964 20.626953 15.804688 C 20.636468 15.806756 20.642891 15.808462 20.652344 15.810547 C 19.929707 17.678982 18.132116 19 16 19 C 13.867884 19 12.070293 17.678982 11.347656 15.810547 C 11.357109 15.808462 11.363532 15.806756 11.373047 15.804688 C 12.57212 15.543959 14.27353 15.382812 16 15.382812 z M 16 21 C 16.816681 21 17.602556 21.124028 18.34375 21.349609 C 17.99895 22.31511 17.092038 23 16 23 C 14.907962 23 14.00105 22.31511 13.65625 21.349609 C 14.397444 21.124028 15.183319 21 16 21 z" font-weight="400" font-family="sans-serif" white-space="normal" overflow="visible" fill="#000000"/></svg>
