<?xml version="1.0" encoding="utf-8"?>
<svg xmlns="http://www.w3.org/2000/svg" viewBox="0 0 32 32" fill="#000000"><path style="text-indent:0;text-align:start;line-height:normal;text-transform:none;block-progression:tb;-inkscape-font-specification:Bitstream Vera Sans" d="M 7 5.375 L 7 7 L 7 13 L 4 13 L 3 13 L 3 14 L 3 26 L 3 27 L 4 27 L 28 27 L 29 27 L 29 26 L 29 14 L 29 13 L 28 13 L 25 13 L 25 7 L 25 5.375 L 23.5625 6.09375 L 22 6.875 L 20.4375 6.09375 L 20 5.875 L 19.5625 6.09375 L 18 6.875 L 16.4375 6.09375 L 16 5.875 L 15.5625 6.09375 L 14 6.875 L 12.4375 6.09375 L 12 5.875 L 11.5625 6.09375 L 10 6.875 L 8.4375 6.09375 L 7 5.375 z M 12 8.125 L 13.5625 8.90625 L 14 9.125 L 14.4375 8.90625 L 16 8.125 L 17.5625 8.90625 L 18 9.125 L 18.4375 8.90625 L 20 8.125 L 21.5625 8.90625 L 22 9.125 L 22.4375 8.90625 L 23 8.625 L 23 17 L 9 17 L 9 8.625 L 9.5625 8.90625 L 10 9.125 L 10.4375 8.90625 L 12 8.125 z M 5 15 L 7 15 L 7 18 L 7 19 L 8 19 L 24 19 L 25 19 L 25 18 L 25 15 L 27 15 L 27 25 L 5 25 L 5 15 z M 9 21 L 9 23 L 11 23 L 11 21 L 9 21 z M 13 21 L 13 23 L 15 23 L 15 21 L 13 21 z M 17 21 L 17 23 L 19 23 L 19 21 L 17 21 z M 21 21 L 21 23 L 23 23 L 23 21 L 21 21 z" overflow="visible" font-family="Bitstream Vera Sans" fill="#000000"/></svg>
