<?xml version="1.0" encoding="utf-8"?>
<svg xmlns="http://www.w3.org/2000/svg" viewBox="-8 10 32 32" fill="#000000"><path d="M20,27c0-1.314-0.85-2.434-2.027-2.838c-0.4-5.957-5.032-7.952-6.973-8.529V14H5v1.638 c-1.934,0.588-6.569,2.607-6.972,8.524C-3.15,24.566-4,25.686-4,27v3h2.403c-0.188,0.656-0.321,1.372-0.375,2.161 C-3.15,32.566-4,33.686-4,35v3h24v-3c0-1.314-0.85-2.434-2.027-2.838c-0.053-0.79-0.185-1.506-0.37-2.162H20V27z M18,35v1H-2v-1 c0-0.552,0.449-1,1-1h1h2v-2H0.058C0.473,27.964,3.344,26.337,5,25.73V28h2v-2.737V24h2v4h2v-2.279 c1.656,0.594,4.531,2.208,4.943,6.279H14v2h2h1C17.552,34,18,34.448,18,35z M18,28h-1.239c-1.607-2.803-4.372-3.954-5.761-4.368V22 H5v1.638c-1.382,0.42-4.137,1.58-5.748,4.362H-2v-1c0-0.551,0.449-1,1-1h1v-1c0-4.779,3.212-6.615,5-7.27V20h2v-2.737V16h2v4h2 v-2.279c1.786,0.64,5,2.459,5,7.279v1h1c0.552,0,1,0.449,1,1V28z" fill="#000000"/></svg>
