<?xml version="1.0" encoding="utf-8"?>
<svg xmlns="http://www.w3.org/2000/svg" viewBox="0 0 32 32" fill="#000000"><path style="text-indent:0;text-align:start;line-height:normal;text-transform:none;block-progression:tb;-inkscape-font-specification:Sans" d="M 16 3 C 13.752746 3 11.836474 4.2872464 10.8125 6.125 C 10.543325 6.0811768 10.295623 6 10 6 C 6.6983746 6 4 8.6983746 4 12 C 4 14.603469 5.67158 16.830249 8 17.65625 L 8 23 L 8 25 L 8 28 L 8 29 L 9 29 L 23 29 L 24 29 L 24 28 L 24 17.65625 C 26.32842 16.830249 28 14.603469 28 12 C 28 8.6983746 25.301625 6 22 6 C 21.704377 6 21.456675 6.0811768 21.1875 6.125 C 20.163526 4.2872464 18.247254 3 16 3 z M 16 5 C 17.708884 5 19.140713 6.063768 19.71875 7.5625 L 20.0625 8.40625 L 20.9375 8.15625 C 21.315706 8.0509492 21.653246 8 22 8 C 24.220375 8 26 9.7796254 26 12 C 26 14.220375 24.220375 16 22 16 L 22 17 L 22 18 L 22 23 L 10 23 L 10 18 L 10 17 L 10 16 C 7.7796254 16 6 14.220375 6 12 C 6 9.7796254 7.7796254 8 10 8 C 10.346754 8 10.684294 8.050949 11.0625 8.15625 L 11.9375 8.40625 L 12.28125 7.5625 C 12.859287 6.063768 14.291116 5 16 5 z M 13 17 L 13 21 L 15 21 L 15 17 L 13 17 z M 17 17 L 17 21 L 19 21 L 19 17 L 17 17 z M 10 25 L 22 25 L 22 27 L 10 27 L 10 25 z" overflow="visible" font-family="Sans" fill="#000000"/></svg>
