<?xml version="1.0" encoding="utf-8"?>
<svg xmlns="http://www.w3.org/2000/svg" viewBox="0 0 32 32" fill="#000000"><path style="text-indent:0;text-align:start;line-height:normal;text-transform:none;block-progression:tb;-inkscape-font-specification:Bitstream Vera Sans" d="M 4 6 L 4 7 L 4 22 L 4 23 L 5 23 L 6 23 L 6 24 C 6 26.209804 7.7901961 28 10 28 C 12.209804 28 14 26.209804 14 24 L 14 23 L 27 23 L 28 23 L 28 22 L 28 7 L 28 6 L 27 6 L 13 6 L 12 6 L 12 7 L 12 22 L 12 23 L 12 24 C 12 25.190196 11.190196 26 10 26 C 8.8098039 26 8 25.190196 8 24 L 8 23 L 9 23 L 10 23 L 10 22 L 10 7 L 10 6 L 9 6 L 5 6 L 4 6 z M 6 8 L 8 8 L 8 21 L 6 21 L 6 8 z M 14 8 L 26 8 L 26 21 L 14 21 L 14 8 z M 16 10 L 16 12 L 24 12 L 24 10 L 16 10 z M 16 14 L 16 16 L 18 16 L 18 14 L 16 14 z M 19 14 L 19 16 L 21 16 L 21 14 L 19 14 z M 22 14 L 22 16 L 24 16 L 24 14 L 22 14 z M 16 17 L 16 19 L 18 19 L 18 17 L 16 17 z M 19 17 L 19 19 L 21 19 L 21 17 L 19 17 z M 22 17 L 22 19 L 24 19 L 24 17 L 22 17 z" fill="#000000"/></svg>
