<?xml version="1.0" encoding="utf-8"?>
<svg xmlns="http://www.w3.org/2000/svg" viewBox="0 0 32 32" fill="#000000"><path style="text-indent:0;text-align:start;line-height:normal;text-transform:none;block-progression:tb;-inkscape-font-specification:Bitstream Vera Sans" d="M 9 4 L 9 5 L 9 13 L 9 14.375 L 10.3125 13.9375 C 10.3125 13.9375 11.181801 13.684852 12.375 13.4375 L 11.28125 18.4375 L 10.28125 18.21875 C 9.2149193 17.983326 8.1415713 18.682156 7.90625 19.75 L 7.03125 23.65625 C 6.7958263 24.722581 7.4946556 25.795929 8.5625 26.03125 L 9.65625 26.28125 C 10.324336 27.035752 11.181626 27.638307 12.25 27.875 C 13.318995 28.110744 14.357785 27.93378 15.28125 27.53125 L 16.375 27.78125 C 17.442482 28.016928 18.514368 27.317273 18.75 26.25 L 19.625 22.34375 C 19.860424 21.277419 19.161594 20.204071 18.09375 19.96875 L 17.125 19.75 L 18.59375 13.25 C 20.289512 13.527761 21.6875 13.9375 21.6875 13.9375 L 23 14.375 L 23 13 L 23 5 L 23 4 L 22 4 L 10 4 L 9 4 z M 11 6 L 21 6 L 21 11.71875 C 19.831833 11.408252 18.100745 11 16 11 C 13.899255 11 12.168167 11.408252 11 11.71875 L 11 6 z M 16 7 C 15.171573 7 14.5 7.6715729 14.5 8.5 C 14.5 9.3284271 15.171573 10 16 10 C 16.828427 10 17.5 9.3284271 17.5 8.5 C 17.5 7.6715729 16.828427 7 16 7 z M 16 13 C 16.197904 13 16.393281 13.021676 16.59375 13.03125 L 15.0625 19.84375 L 14.9375 20.40625 L 15.34375 20.8125 C 15.496197 20.955932 15.643084 21.073599 15.75 21.21875 L 15.96875 21.53125 L 16.3125 21.625 L 17.6875 21.90625 L 16.8125 25.8125 L 15.46875 25.53125 L 15.09375 25.4375 L 14.78125 25.625 C 14.155264 25.96742 13.422831 26.099661 12.6875 25.9375 C 11.951709 25.774489 11.360752 25.355773 10.9375 24.78125 L 10.71875 24.46875 L 10.34375 24.375 L 9 24.09375 L 9.875 20.1875 L 11.21875 20.46875 L 11.5625 20.5625 L 11.90625 20.375 C 12.06443 20.28846 12.239886 20.221308 12.4375 20.15625 L 12.96875 19.96875 L 13.09375 19.4375 L 14.53125 13.09375 C 15.023847 13.042123 15.510614 13 16 13 z M 13.375 21.5625 C 12.546573 21.5625 11.875 22.234072 11.875 23.0625 C 11.875 23.890927 12.546573 24.5625 13.375 24.5625 C 14.203427 24.5625 14.875 23.890927 14.875 23.0625 C 14.875 22.234072 14.203427 21.5625 13.375 21.5625 z" overflow="visible" font-family="Bitstream Vera Sans" fill="#000000"/></svg>
