<?xml version="1.0" encoding="utf-8"?>
<svg xmlns="http://www.w3.org/2000/svg" viewBox="0 0 32 32" fill="#000000"><path style="text-indent:0;text-align:start;line-height:normal;text-transform:none;block-progression:tb;-inkscape-font-specification:Bitstream Vera Sans" d="M 8 6 C 6.3549904 6 5 7.3549904 5 9 C 5 9.7668645 5.3002076 10.467081 5.78125 11 L 4 11 L 3 11 L 3 12 L 3 18 L 3 19 L 4 19 L 5 19 L 5 27 L 7 27 L 7 24 L 25 24 L 25 27 L 27 27 L 27 19 L 28 19 L 29 19 L 29 18 L 29 12 L 29 11 L 28 11 L 26.21875 11 C 26.699792 10.467081 27 9.766865 27 9 C 27 7.3549901 25.645009 6 24 6 C 22.354991 6 21 7.3549901 21 9 C 21 9.766865 21.300208 10.467081 21.78125 11 L 10.21875 11 C 10.699792 10.467081 11 9.7668645 11 9 C 11 7.3549904 9.6450096 6 8 6 z M 8 8 C 8.5641294 8 9 8.4358706 9 9 C 9 9.5641286 8.5641291 10 8 10 C 7.4358709 10 7 9.5641286 7 9 C 7 8.4358706 7.4358706 8 8 8 z M 24 8 C 24.564129 8 25 8.4358709 25 9 C 25 9.5641283 24.564128 10 24 10 C 23.435872 10 23 9.5641283 23 9 C 23 8.4358709 23.435871 8 24 8 z M 5 13 L 6.84375 13 L 5 15.75 L 5 13 z M 9.34375 13 L 12.84375 13 L 10.15625 17 L 6.65625 17 L 9.34375 13 z M 15.34375 13 L 18.84375 13 L 16.15625 17 L 12.65625 17 L 15.34375 13 z M 21.34375 13 L 24.84375 13 L 22.15625 17 L 18.65625 17 L 21.34375 13 z M 27 13.5 L 27 17 L 24.65625 17 L 27 13.5 z M 7 19 L 25 19 L 25 22 L 7 22 L 7 19 z" fill="#000000"/></svg>
