<?xml version="1.0" encoding="utf-8"?>
<svg xmlns="http://www.w3.org/2000/svg" viewBox="0 0 32 32" fill="#000000"><path style="text-indent:0;text-align:start;line-height:normal;text-transform:none;block-progression:tb;-inkscape-font-specification:Sans" d="M 26.5625 2 C 25.691853 2 24.978699 2.3422667 24.5625 2.8125 C 24.146301 3.2827333 24 3.7514583 24 4.21875 C 24 5.230732 24.625017 5.9949572 25.25 6.40625 C 25.874983 6.8175428 26.479694 7 27.09375 7 C 27.573162 7 28.166514 6.9334667 28.75 6.65625 C 29.333486 6.3790333 30 5.713278 30 4.8125 C 30 3.9317981 29.473471 3.2186499 28.84375 2.75 C 28.214029 2.2813501 27.425499 2 26.5625 2 z M 16.96875 4 C 13.366599 4 10.797659 5.2556751 9.125 6.71875 C 7.4523406 8.1818249 6.670445 9.7816366 6.375 10.6875 L 5.9375 12 L 7.3125 12 L 7.40625 12 L 8.09375 12 L 8.34375 11.34375 C 8.34375 11.34375 9.8947201 7 15 7 C 18.737248 7 20.60273 8.3315445 21.65625 9.625 C 22.70977 10.918456 22.875 12.15625 22.875 12.15625 L 23 13 L 23.875 13 L 24 13 L 25 13 L 25 12 C 25 11.880957 25.02956 11.241908 24.9375 10.46875 C 24.845442 9.6955925 24.643648 8.7157406 24.15625 7.75 C 23.181454 5.8185188 20.936175 4 16.96875 4 z M 26.5625 4 C 26.972501 4 27.388721 4.1446499 27.65625 4.34375 C 27.903714 4.5279176 27.988826 4.7056219 28 4.78125 C 27.993096 4.7764681 27.972382 4.7974833 27.875 4.84375 C 27.680236 4.9362833 27.293338 5 27.09375 5 C 27.073806 5 26.643517 4.8954572 26.375 4.71875 C 26.106483 4.5420428 26 4.428768 26 4.21875 C 26.009566 4.1909832 26.043346 4.1778923 26.0625 4.15625 C 26.112301 4.0999833 26.159147 4 26.5625 4 z M 2 13.84375 L 2 16.90625 C 2 16.91325 2.6875 16.90625 2.6875 16.90625 C 2.6775 16.89525 2.71875 15.8125 2.71875 15.8125 L 3.3125 15.8125 C 3.5615 15.8125 4.21875 15.59925 4.21875 14.78125 C 4.21875 13.98925 3.42525 13.84375 3.28125 13.84375 L 2 13.84375 z M 11.0625 13.84375 L 9.875 16.9375 L 10.59375 16.9375 L 10.8125 16.28125 L 11.96875 16.28125 L 12.21875 16.9375 L 12.96875 16.9375 L 11.8125 13.84375 L 11.0625 13.84375 z M 8.84375 14.125 L 8.84375 14.46875 C 8.84375 14.63175 8.7255 14.75 8.5625 14.75 L 8.40625 14.75 L 8.40625 15.375 L 8.78125 15.375 C 8.77825 15.372 8.78025 15.63925 8.78125 16.28125 C 8.78125 16.92225 9.407 16.96875 9.5 16.96875 C 9.593 16.96875 9.625 16.96875 9.625 16.96875 L 9.84375 16.34375 C 9.84375 16.34375 9.7805 16.375 9.6875 16.375 C 9.5565 16.375 9.4375 16.28125 9.4375 16.15625 L 9.4375 15.375 L 9.875 15.375 L 9.875 14.75 L 9.4375 14.75 L 9.4375 14.125 L 8.84375 14.125 z M 20.28125 14.125 L 20.28125 14.46875 C 20.28125 14.63175 20.13175 14.75 19.96875 14.75 L 19.84375 14.75 L 19.84375 15.375 L 20.21875 15.375 C 20.21575 15.372 20.21875 15.63925 20.21875 16.28125 C 20.21875 16.92225 20.7905 16.96875 20.9375 16.96875 C 21.1595 16.96875 21.3125 16.90625 21.3125 16.90625 L 21.3125 16.34375 C 21.3125 16.34375 21.18675 16.375 21.09375 16.375 C 20.96275 16.375 20.875 16.28125 20.875 16.15625 L 20.875 15.375 L 21.28125 15.375 L 21.28125 14.75 L 20.84375 14.75 L 20.84375 14.125 L 20.28125 14.125 z M 2.71875 14.4375 L 3.09375 14.4375 C 3.29775 14.4375 3.53125 14.5695 3.53125 14.8125 C 3.53125 15.0245 3.34975 15.21875 3.09375 15.21875 C 2.83775 15.21875 2.72575 15.21175 2.71875 15.21875 L 2.71875 14.4375 z M 11.40625 14.625 L 11.78125 15.65625 L 11.03125 15.65625 L 11.40625 14.625 z M 5.40625 14.6875 C 4.77425 14.6875 4.28125 15.20775 4.28125 15.84375 C 4.28125 16.47975 4.77525 17 5.40625 17 C 6.03825 17 6.5625 16.47975 6.5625 15.84375 C 6.5635 15.20775 6.03825 14.6875 5.40625 14.6875 z M 16.1875 14.6875 C 15.1915 14.6875 15.09375 15.64475 15.09375 15.84375 C 15.09375 16.31375 15.40475 17 16.21875 17 C 17.03275 17 17.21875 16.3125 17.21875 16.3125 L 16.6875 16.15625 C 16.6875 16.15725 16.59675 16.4375 16.21875 16.4375 C 15.84175 16.4375 15.71875 16 15.71875 16 L 17.25 16 C 17.25 15.504 17.1535 14.6875 16.1875 14.6875 z M 18.875 14.6875 C 18.471 14.6875 18.21875 14.96875 18.21875 14.96875 L 18.21875 14.75 L 17.59375 14.75 L 17.59375 16.9375 L 18.21875 16.9375 L 18.21875 15.6875 C 18.21875 15.4405 18.40075 15.3125 18.59375 15.3125 C 18.76175 15.3125 18.96875 15.393 18.96875 15.625 L 18.96875 16.9375 L 19.625 16.9375 L 19.625 15.4375 C 19.625 15.1085 19.279 14.6875 18.875 14.6875 z M 26.6875 14.6875 C 26.1295 14.6875 25.6875 15.20775 25.6875 15.84375 C 25.6875 16.47975 26.1295 17 26.6875 17 C 26.935878 17 27.167671 16.888299 27.34375 16.71875 L 27.34375 16.9375 L 28 16.9375 L 28 14.75 L 27.34375 14.75 L 27.34375 14.96875 C 27.167671 14.799201 26.935878 14.6875 26.6875 14.6875 z M 8.09375 14.71875 C 7.72175 14.71875 7.53125 15.03125 7.53125 15.03125 L 7.53125 14.75 L 6.90625 14.75 L 6.90625 16.9375 L 7.5625 16.9375 C 7.5575 16.9375 7.5615 16.3955 7.5625 15.9375 C 7.5625 15.4585 7.9355 15.375 8.0625 15.375 C 8.1895 15.375 8.25 15.40625 8.25 15.40625 L 8.25 14.75 C 8.25 14.75 8.19775 14.71875 8.09375 14.71875 z M 25.34375 14.71875 C 24.97175 14.71875 24.78125 15.03125 24.78125 15.03125 L 24.78125 14.75 L 24.15625 14.75 L 24.15625 16.9375 L 24.8125 16.9375 C 24.8065 16.9375 24.8105 16.3955 24.8125 15.9375 C 24.8125 15.4585 25.1855 15.375 25.3125 15.375 C 25.4395 15.375 25.5 15.40625 25.5 15.40625 L 25.5 14.75 C 25.5 14.75 25.44775 14.71875 25.34375 14.71875 z M 12.6875 14.75 L 13.59375 16.9375 L 14.28125 16.9375 L 15.0625 14.75 L 14.375 14.75 L 13.90625 16.09375 L 13.40625 14.75 L 12.6875 14.75 z M 21.65625 14.75 L 21.65625 16.25 C 21.65625 16.579 22.00225 17 22.40625 17 C 22.81025 17 23.03125 16.71875 23.03125 16.71875 L 23.03125 16.9375 L 23.6875 16.9375 L 23.6875 14.75 L 23.03125 14.75 L 23.03125 16 C 23.03125 16.247 22.84925 16.375 22.65625 16.375 C 22.48825 16.375 22.3125 16.2945 22.3125 16.0625 L 22.3125 14.75 L 21.65625 14.75 z M 16.1875 15.21875 C 16.5695 15.21875 16.625 15.59375 16.625 15.59375 L 15.75 15.59375 C 15.75 15.50975 15.8395 15.21875 16.1875 15.21875 z M 26.84375 15.28125 C 27.12175 15.28125 27.34375 15.53275 27.34375 15.84375 C 27.34375 16.15475 27.12275 16.40625 26.84375 16.40625 C 26.56575 16.40625 26.34375 16.15475 26.34375 15.84375 C 26.34375 15.53275 26.56475 15.28125 26.84375 15.28125 z M 5.40625 15.3125 C 5.67825 15.3125 5.90625 15.54475 5.90625 15.84375 C 5.90725 16.14375 5.67925 16.375 5.40625 16.375 C 5.13325 16.375 4.9375 16.14275 4.9375 15.84375 C 4.9375 15.54475 5.13425 15.3125 5.40625 15.3125 z M 13.375 18 C 12.599 18 11.96875 18.672 11.96875 19.5 C 11.96875 20.328 12.598 21 13.375 21 C 14.152 21 14.78125 20.328 14.78125 19.5 C 14.78125 18.672 14.151 18 13.375 18 z M 8 18.03125 L 8.8125 20.9375 L 9.21875 20.9375 L 9.90625 18.59375 L 10.65625 20.9375 L 11.0625 20.9375 L 11.84375 18.03125 L 11.46875 18.03125 L 10.84375 20.3125 L 10.15625 18.03125 L 9.75 18.03125 L 9.03125 20.28125 L 8.40625 18.03125 L 8 18.03125 z M 17.625 18.03125 L 17.625 20.9375 L 19.34375 20.9375 L 19.34375 20.5625 L 18 20.5625 L 18 18.03125 L 17.625 18.03125 z M 15.25 18.0625 L 15.25 20.9375 L 15.625 20.9375 L 15.625 19.75 L 16.0625 19.75 L 16.6875 20.9375 L 17.15625 20.9375 L 16.5 19.75 C 16.5 19.749 17.15625 19.627 17.15625 18.875 C 17.15625 18.245 16.59375 18.0625 16.34375 18.0625 L 15.25 18.0625 z M 19.6875 18.0625 L 19.6875 20.9375 L 20.75 20.9375 C 21.027 20.9375 22 20.70675 22 19.46875 C 22 18.23175 20.983 18.0625 20.75 18.0625 L 19.6875 18.0625 z M 13.375 18.375 C 13.936 18.375 14.40625 18.874 14.40625 19.5 C 14.40625 20.125 13.936 20.625 13.375 20.625 C 12.814 20.625 12.375 20.126 12.375 19.5 C 12.375 18.874 12.814 18.375 13.375 18.375 z M 15.65625 18.40625 L 16.21875 18.40625 C 16.42475 18.40625 16.75 18.529 16.75 18.875 C 16.75 19.221 16.4745 19.40625 16.3125 19.40625 L 15.65625 19.40625 L 15.65625 18.40625 z M 20.0625 18.40625 C 20.0675 18.40125 20.555 18.40625 20.75 18.40625 C 20.945 18.40625 21.59375 18.63325 21.59375 19.53125 C 21.59475 20.42825 20.8885 20.59375 20.6875 20.59375 L 20.0625 20.59375 L 20.0625 18.40625 z M 5 20 L 5 21 C 5 21.119043 4.970442 21.758092 5.0625 22.53125 C 5.154558 23.304408 5.3563519 24.284259 5.84375 25.25 C 6.8185463 27.181481 9.0638248 29 13.03125 29 C 16.633401 29 19.202341 27.744325 20.875 26.28125 C 22.547659 24.818175 23.329555 23.218363 23.625 22.3125 L 24.0625 21 L 22.6875 21 L 22.59375 21 L 21.90625 21 L 21.65625 21.65625 C 21.65625 21.65625 20.10528 26 15 26 C 11.268067 26 9.3987643 24.668967 8.34375 23.375 C 7.2887357 22.081033 7.125 20.84375 7.125 20.84375 L 7 20 L 6.125 20 L 6 20 L 5 20 z" overflow="visible" font-family="Sans" fill="#000000"/></svg>
