<?xml version="1.0" encoding="utf-8"?>
<svg xmlns="http://www.w3.org/2000/svg" viewBox="0 0 32 32" fill="#000000"><path style="text-indent:0;text-align:start;line-height:normal;text-transform:none;block-progression:tb;-inkscape-font-specification:Sans" d="M 16 4 C 9.3844277 4 4 9.3844277 4 16 C 4 22.615572 9.3844277 28 16 28 C 22.615572 28 28 22.615572 28 16 C 28 9.3844277 22.615572 4 16 4 z M 16 6 C 21.534692 6 26 10.465308 26 16 C 26 21.534692 21.534692 26 16 26 C 15.610177 26 15.221777 25.949366 14.84375 25.90625 C 13.368341 24.343157 11 21.0755 11 16 C 11 10.9245 13.368341 7.6568432 14.84375 6.09375 C 15.221777 6.0506339 15.610177 6 16 6 z" overflow="visible" font-family="Sans" fill="#000000"/></svg>
