<?xml version="1.0" encoding="utf-8"?>
<svg xmlns="http://www.w3.org/2000/svg" viewBox="0 0 32 32" fill="#000000"><path style="text-indent:0;text-align:start;line-height:normal;text-transform:none;block-progression:tb;-inkscape-font-specification:Sans" d="M 16 5 C 12.145666 5 9 8.1456661 9 12 C 9 14.408959 10.231169 16.552158 12.09375 17.8125 C 8.5266131 19.342333 6 22.881262 6 27 L 8 27 C 8 24.109626 9.5263067 21.592958 11.8125 20.1875 C 12.483006 21.834363 14.120749 23 16 23 C 17.879251 23 19.516994 21.834363 20.1875 20.1875 C 22.473693 21.592958 24 24.109626 24 27 L 26 27 C 26 22.915708 23.519618 19.394155 20 17.84375 C 21.09888 17.261363 22.143724 16.524664 23.09375 15.8125 C 25.158593 14.264642 26.71875 12.71875 26.71875 12.71875 L 27.40625 12 L 26.71875 11.3125 C 26.71875 11.3125 25.20752 9.737676 23.15625 8.1875 C 21.10498 6.637324 18.545819 5 16 5 z M 16 7 C 17.575181 7 20.01902 8.362676 21.9375 9.8125 C 23.392955 10.912409 23.988139 11.532473 24.46875 12 C 23.975177 12.470775 23.371635 13.089011 21.90625 14.1875 C 19.969093 15.639642 17.494998 17 16 17 C 13.226334 17 11 14.773666 11 12 C 11 9.2263339 13.226334 7 16 7 z M 16 19 C 16.81989 19 17.600009 19.116459 18.34375 19.34375 C 17.997935 20.307297 17.090648 21 16 21 C 14.909352 21 14.002065 20.307297 13.65625 19.34375 C 14.399991 19.116459 15.18011 19 16 19 z" overflow="visible" font-family="Sans" fill="#000000"/></svg>
