<?xml version="1.0" encoding="utf-8"?>
<svg xmlns="http://www.w3.org/2000/svg" viewBox="0 0 32 32" fill="#000000"><path style="text-indent:0;text-align:start;line-height:normal;text-transform:none;block-progression:tb;-inkscape-font-specification:Sans" d="M 16 6 L 2 13.53125 L 2 15.84375 L 16 8.28125 L 30 15.8125 L 30 13.53125 L 16 6 z M 16 10 L 2 17.53125 L 2 19.84375 L 16 12.28125 L 30 19.8125 L 30 17.53125 L 16 10 z M 16 13.875 L 15.53125 14.125 L 2.53125 21.125 L 2 21.40625 L 2 22 L 2 22.125 L 2 22.65625 L 2.4375 22.96875 C 2.4375 22.96875 3.653281 23.74975 5.90625 24.5 C 8.159219 25.25025 11.51799 26 16 26 C 20.48201 26 23.840781 25.25025 26.09375 24.5 C 28.346719 23.74975 29.5625 22.96875 29.5625 22.96875 L 30 22.65625 L 30 22.125 L 30 22 L 30 21.40625 L 29.46875 21.125 L 16.46875 14.125 L 16 13.875 z M 16 16.125 L 26.90625 22 C 26.419196 22.240605 26.4639 22.29361 25.46875 22.625 C 23.407969 23.31125 20.26299 24 16 24 C 11.73701 24 8.592031 23.31125 6.53125 22.625 C 5.5361004 22.29361 5.5808039 22.240605 5.09375 22 L 16 16.125 z" overflow="visible" font-family="Sans" fill="#000000"/></svg>
