<?xml version="1.0" encoding="utf-8"?>
<svg xmlns="http://www.w3.org/2000/svg" viewBox="0 0 32 32" fill="#000000"><path style="text-indent:0;text-align:start;line-height:normal;text-transform:none;block-progression:tb;-inkscape-font-specification:Bitstream Vera Sans" d="M 23.4375 3.15625 L 11.4375 11.15625 L 12.5625 12.84375 L 19.40625 8.28125 C 19.786666 8.3422442 20.175171 8.3906773 20.53125 8.46875 L 23.1875 7.125 C 22.744438 6.9645444 22.269737 6.8174072 21.78125 6.6875 L 24.5625 4.84375 L 23.4375 3.15625 z M 16 6 C 9.159 6 4 8.58 4 12 L 4 21 C 4 21.987546 4.4446021 22.893837 5.125 23.625 C 5.8053979 24.356163 6.7299762 24.945419 7.8125 25.4375 C 9.9775476 26.421662 12.839647 27 16 27 C 19.160353 27 22.022452 26.421662 24.1875 25.4375 C 25.270024 24.945419 26.194602 24.356163 26.875 23.625 C 27.555398 22.893837 28 21.987546 28 21 L 28 12 C 28 10.988786 27.532749 10.0683 26.71875 9.25 L 29.4375 7.90625 L 28.5625 6.09375 L 14.5625 13.09375 L 15.4375 14.90625 L 24.8125 10.21875 C 25.574206 10.784403 26 11.405142 26 12 C 26 13.888 21.724 16 16 16 C 10.276 16 6 13.888 6 12 C 6 10.432 8.93975 8.7265 13.21875 8.1875 L 16.46875 6 C 16.30875 5.997 16.162 6 16 6 z M 6 15.40625 C 7.016495 16.171655 8.3808348 16.801836 10 17.25 L 10 24.15625 C 9.499713 23.998539 9.0439999 23.815464 8.625 23.625 C 7.7168988 23.212206 7.0266333 22.715181 6.59375 22.25 C 6.1608667 21.784819 6 21.392954 6 21 L 6 15.40625 z M 26 15.40625 L 26 21 C 26 21.392954 25.839133 21.784819 25.40625 22.25 C 24.973367 22.715181 24.283101 23.212206 23.375 23.625 C 22.956 23.815464 22.500287 23.998539 22 24.15625 L 22 17.25 C 23.619165 16.801836 24.983505 16.171655 26 15.40625 z M 12 17.6875 C 13.241474 17.893309 14.583406 18 16 18 C 17.416594 18 18.758526 17.893309 20 17.6875 L 20 24.625 C 18.770608 24.855217 17.423319 25 16 25 C 14.576681 25 13.229392 24.855217 12 24.625 L 12 17.6875 z" overflow="visible" font-family="Bitstream Vera Sans" fill="#000000"/></svg>
