<?xml version="1.0" encoding="utf-8"?>
<svg xmlns="http://www.w3.org/2000/svg" viewBox="0 0 32 32" fill="#000000"><path style="text-indent:0;text-align:start;line-height:normal;text-transform:none;block-progression:tb;-inkscape-font-specification:Bitstream Vera Sans" d="M 6.71875 5.28125 L 5.28125 6.71875 L 25.28125 26.71875 L 26.71875 25.28125 L 20.4375 19 C 22.029104 18.979846 23.921871 19.439712 26.53125 20.875 L 27.46875 19.125 C 23.528814 16.9566 20.826035 16.772491 18.625 17.1875 L 15.625 14.1875 C 15.877742 14.101536 16.131 14.026033 16.375 13.9375 C 19.099 12.9525 21.47825 12.096 26.53125 14.875 L 27.46875 13.125 C 21.62275 9.908 18.49775 11.0565 15.71875 12.0625 C 15.165684 12.262718 14.597796 12.432539 14.03125 12.59375 L 6.71875 5.28125 z M 5.46875 11.125 L 4.53125 12.875 C 7.04625 14.241 9.046 14.83375 10.75 14.96875 L 8.125 12.34375 C 7.322 12.05575 6.44375 11.655 5.46875 11.125 z M 5.46875 17.125 L 4.53125 18.875 C 7.45525 20.463 9.6955 21 11.5625 21 C 13.2555 21 14.63125 20.54775 15.90625 20.09375 L 14.3125 18.53125 C 12.1165 19.20925 9.69375 19.42 5.46875 17.125 z" overflow="visible" font-family="Bitstream Vera Sans" fill="#000000"/></svg>
