<?xml version="1.0" encoding="utf-8"?>
<svg xmlns="http://www.w3.org/2000/svg" viewBox="0 0 32 32" fill="#000000"><path style="text-indent:0;text-align:start;line-height:normal;text-transform:none;block-progression:tb;-inkscape-font-specification:Sans" d="M 4 4 L 4 5 L 4 10 L 4 11 L 5 11 L 7.5625 11 L 7 18.9375 L 6.9375 20 L 8 20 L 24 20 L 25.0625 20 L 25 18.9375 L 24.4375 11 L 27 11 L 28 11 L 28 10 L 28 5 L 28 4 L 27 4 L 5 4 L 4 4 z M 6 6 L 7.9375 6 L 7.71875 9 L 6 9 L 6 6 z M 9.9375 6 L 22.0625 6 L 22.9375 18 L 9.0625 18 L 9.9375 6 z M 24.0625 6 L 26 6 L 26 9 L 24.28125 9 L 24.0625 6 z M 7 21 L 7 23 L 25 23 L 25 21 L 7 21 z M 7 24 L 7 26 L 25 26 L 25 24 L 7 24 z" overflow="visible" font-family="Sans" fill="#000000"/></svg>
