<?xml version="1.0" encoding="utf-8"?>
<svg xmlns="http://www.w3.org/2000/svg" viewBox="0 0 32 32" fill="#000000"><path style="text-indent:0;text-align:start;line-height:normal;text-transform:none;block-progression:tb;-inkscape-font-specification:Bitstream Vera Sans" d="M 25.125 5.34375 C 25.125 5.34375 24.003201 7.1169922 22.625 8.96875 C 22.418275 9.1195724 22.200278 9.1663814 21.9375 9.1875 C 21.566183 9.2173415 21.103323 9.1340373 20.65625 8.96875 C 19.762103 8.6381754 19 8.0625 19 8.0625 L 17.78125 9.625 C 17.78125 9.625 18.687397 10.381575 19.9375 10.84375 C 20.232607 10.952854 20.565764 11.059882 20.90625 11.125 C 20.587097 11.482565 20.277988 11.804451 19.96875 12.09375 C 19.407051 12.619398 19.065808 13.16031 18.8125 13.78125 L 20.65625 14.53125 C 20.854942 14.04419 20.939449 13.909602 21.34375 13.53125 C 21.719709 13.179532 22.129797 12.817377 22.5 12.40625 C 22.931104 13.632417 23.784778 14.706596 24.75 15.625 L 26.125 14.1875 C 25.317222 13.418904 24.681396 12.532583 24.40625 11.75 C 24.131104 10.967417 24.1451 10.379945 24.625 9.71875 C 25.927721 7.9427919 26.84375 6.40625 26.84375 6.40625 L 25.125 5.34375 z M 17.34375 10.5625 C 16.69675 11.0375 16.1775 11.59925 15.6875 12.15625 C 15.1595 12.75725 14.60625 13.389 13.90625 13.875 C 12.67725 14.729 11.3465 15.14225 10.0625 15.53125 C 7.5675 16.28925 5 17.07625 5 21.15625 C 5 23.98525 7.3845 27 10.9375 27 C 14.8665 27 19.3415 24.67275 22.0625 21.21875 C 23.2035 19.76975 23.9545 18.211 24.3125 16.625 C 23.6105 16.042 22.99925 15.35925 22.53125 14.65625 C 22.49925 16.86825 21.492 18.74 20.5 20 C 18.176 22.951 14.2335 25 10.9375 25 C 8.6155 25 7 22.98125 7 21.15625 C 7 18.66425 8.12225 18.2065 10.65625 17.4375 C 12.02225 17.0225 13.5755 16.56425 15.0625 15.53125 C 15.9635 14.90625 16.6075 14.159 17.1875 13.5 C 17.9435 12.64 18.54975 11.98375 19.46875 11.71875 C 18.71675 11.43575 17.98575 11.0385 17.34375 10.5625 z" overflow="visible" font-family="Bitstream Vera Sans" fill="#000000"/></svg>
