<?xml version="1.0" encoding="utf-8"?>
<svg xmlns="http://www.w3.org/2000/svg" viewBox="0 0 32 32" fill="#000000"><path style="line-height:normal;text-indent:0;text-align:start;text-decoration-line:none;text-decoration-style:solid;text-decoration-color:#000;text-transform:none;block-progression:tb;isolation:auto;mix-blend-mode:normal" d="M 15 4 L 15 6.1875 C 14.326293 6.4304534 13.766897 6.9045869 13.412109 7.5175781 L 7.2890625 6.9101562 L 6.9785156 7.9179688 L 10.650391 20 L 5.3554688 20 L 7.2304688 13.900391 L 6.1914062 10.480469 L 3.0449219 20.705078 L 3 20.990234 C 2.999 21.079234 2.9972187 23.19225 4.4492188 24.65625 C 5.3332188 25.54825 6.527 26 8 26 C 9.473 26 10.666781 25.54825 11.550781 24.65625 C 13.002781 23.19225 13.001 21.079234 13 20.990234 L 9.40625 9.171875 L 13.050781 9.4960938 C 13.291225 10.907709 14.524594 12 16 12 C 17.114844 12 18.08462 11.370217 18.601562 10.457031 L 23.220703 10.896484 L 26.644531 22 L 21.355469 22 L 23.203125 15.990234 L 22.162109 12.572266 L 19.044922 22.705078 L 19 22.990234 C 18.999 23.079234 18.997219 25.19225 20.449219 26.65625 C 21.333219 27.54825 22.527 28 24 28 C 25.473 28 26.666781 27.54825 27.550781 26.65625 C 29.002781 25.19225 29.001 23.079234 29 22.990234 L 24.765625 9.0859375 L 18.949219 8.4882812 C 18.761543 7.4201181 18.000809 6.5484137 17 6.1875 L 17 4 L 15 4 z M 16 8 C 16.564129 8 17 8.4358706 17 9 C 17 9.5641294 16.564129 10 16 10 C 15.435871 10 15 9.5641294 15 9 C 15 8.4358706 15.435871 8 16 8 z M 5.1503906 22 L 10.847656 22 C 10.593131 22.88888 9.9026384 24 8 24 C 6.0969594 24 5.4050146 22.887295 5.1503906 22 z M 21.150391 24 L 26.847656 24 C 26.593131 24.889252 25.902638 26 24 26 C 22.096959 26 21.405015 24.887295 21.150391 24 z" font-weight="400" font-family="sans-serif" white-space="normal" overflow="visible" fill="#000000"/></svg>
