<?xml version="1.0" encoding="utf-8"?>
<svg xmlns="http://www.w3.org/2000/svg" viewBox="-7 9 32 32" fill="#000000"><path style="text-indent:0;text-align:start;line-height:normal;text-transform:none;block-progression:tb;-inkscape-font-specification:Sans" d="M 13 5 L 13 6 L 13 26 L 13 27 L 14 27 L 27 27 L 28 27 L 28 26 L 28 6 L 28 5 L 27 5 L 14 5 L 13 5 z M 5 6 L 5 8 L 7 8 L 7 9 L 5 9 L 4 9 L 4 10 L 4 21 L 4 21.53125 L 4.4375 21.84375 L 7 23.5625 L 7 27 L 9 27 L 9 23.5625 L 11.5625 21.84375 L 12 21.53125 L 12 21 L 12 10 L 12 9 L 11 9 L 9 9 L 9 8 L 11 8 L 11 6 L 5 6 z M 15 7 L 26 7 L 26 25 L 15 25 L 15 7 z M 17 9 L 17 10 L 17 15 L 17 16 L 18 16 L 23 16 L 24 16 L 24 15 L 24 10 L 24 9 L 23 9 L 18 9 L 17 9 z M 6 11 L 10 11 L 10 12 L 8 12 L 8 14 L 10 14 L 10 15 L 8 15 L 8 17 L 10 17 L 10 18 L 8 18 L 8 20 L 10 20 L 10 20.4375 L 8 21.78125 L 6 20.4375 L 6 11 z M 19 11 L 22 11 L 22 14 L 19 14 L 19 11 z M 17 18 L 17 20 L 20 20 L 20 18 L 17 18 z M 21 18 L 21 20 L 24 20 L 24 18 L 21 18 z M 17 21 L 17 23 L 20 23 L 20 21 L 17 21 z M 21 21 L 21 23 L 24 23 L 24 21 L 21 21 z" transform="translate(-7 9)" fill="#000000"/></svg>
