<?xml version="1.0" encoding="utf-8"?>
<svg xmlns="http://www.w3.org/2000/svg" viewBox="0 0 32 32" fill="#000000"><path style="text-indent:0;text-align:start;line-height:normal;text-transform:none;block-progression:tb;-inkscape-font-specification:Sans" d="M 6 3 L 6 6 L 3 6 L 3 8 L 6.5625 8 L 7.28125 8.71875 L 8.71875 7.28125 L 8 6.5625 L 8 3 L 6 3 z M 9.71875 8.28125 L 8.28125 9.71875 L 8.9375 10.375 L 8.71875 10.59375 L 8.6875 10.625 L 8.625 10.65625 L 9.375 11.3125 L 9.46875 11.40625 L 10.0625 12.0625 L 10.125 12 L 10.3125 11.8125 L 10.40625 11.75 L 10.625 11.59375 L 10.71875 11.53125 L 10.96875 11.40625 L 11 11.40625 L 11.09375 11.34375 L 11.375 11.25 L 11.5 11.21875 L 11.84375 11.125 L 11.9375 11.09375 L 12.03125 11.09375 L 11.75 9.09375 L 11.53125 9.125 L 11.5 9.15625 L 11.4375 9.15625 L 10.875 9.3125 L 10.8125 9.3125 L 10.78125 9.34375 L 10.75 9.34375 L 9.71875 8.28125 z M 13.375 9 L 13.28125 11 L 13.46875 11.03125 L 13.5625 11.03125 L 13.90625 11.0625 L 14 11.09375 L 14.03125 11.09375 L 14.71875 11.28125 L 14.8125 11.3125 L 14.875 11.34375 L 15.375 11.59375 L 15.4375 11.625 L 15.53125 11.65625 L 15.8125 11.09375 L 16.59375 10 L 16.53125 9.96875 L 16.46875 9.90625 L 16.40625 9.875 L 15.59375 9.46875 L 15.5 9.4375 L 15.40625 9.40625 L 14.4375 9.125 L 14.375 9.125 L 14.3125 9.125 L 13.75 9.03125 L 13.6875 9.03125 L 13.65625 9.03125 L 13.375 9 z M 22.5625 9.03125 L 22 9.0625 L 21.9375 9.0625 L 21.875 9.09375 L 21.03125 9.25 L 20.96875 9.28125 L 20.90625 9.3125 L 20.1875 9.5625 L 20.125 9.59375 L 20.0625 9.625 L 19.46875 9.9375 L 20.40625 11.71875 L 20.90625 11.4375 L 20.9375 11.4375 L 21.03125 11.375 L 21.46875 11.21875 L 21.5625 11.1875 L 21.59375 11.1875 L 22.125 11.0625 L 22.15625 11.0625 L 22.71875 11.03125 L 22.5625 9.03125 z M 24.21875 9.09375 L 23.90625 11.09375 L 24.15625 11.125 L 24.5 11.21875 L 24.625 11.25 L 24.90625 11.34375 L 25 11.40625 L 25.03125 11.40625 L 25.28125 11.53125 L 25.375 11.59375 L 25.59375 11.75 L 25.6875 11.8125 L 25.9375 12.0625 L 27.25 10.5625 L 26.9375 10.25 L 26.875 10.21875 L 26.84375 10.1875 L 26.4375 9.90625 L 26.375 9.875 L 26.3125 9.84375 L 25.875 9.59375 L 25.8125 9.5625 L 25.75 9.53125 L 25.25 9.34375 L 25.1875 9.3125 L 25.125 9.3125 L 24.5625 9.15625 L 24.5 9.15625 L 24.46875 9.125 L 24.21875 9.09375 z M 17.875 11.09375 L 16.375 12.40625 C 16.844051 12.938056 17 13.34375 17 13.34375 L 17.21875 14 L 17.9375 14 L 18.0625 14 L 18.75 14 L 18.96875 13.34375 C 18.96875 13.34375 19.121196 12.937672 19.59375 12.40625 L 18.125 11.09375 C 18.04005 11.18928 18.07334 11.18742 18 11.28125 C 17.92702 11.18698 17.95965 11.18972 17.875 11.09375 z M 28.34375 12.09375 L 26.5 12.8125 L 26.8125 13.65625 L 26.9375 14.21875 L 26.9375 14.25 L 27 14.9375 L 27 15.0625 L 27 15.15625 L 28.96875 15.3125 L 29 15.0625 L 29 15 L 29 14.9375 L 28.9375 14.09375 L 28.9375 14.03125 L 28.90625 13.9375 L 28.71875 13.09375 L 28.71875 13 L 28.6875 12.9375 L 28.34375 12.09375 z M 7.625 12.125 L 7.3125 12.9375 L 7.28125 13 L 7.28125 13.09375 L 7.09375 13.9375 L 7.0625 14.03125 L 7.0625 14.09375 L 7 14.9375 L 7 15 L 7 15.0625 L 7.03125 15.34375 L 9.03125 15.1875 L 9 15.0625 L 9 14.96875 L 9 14.9375 L 9.0625 14.25 L 9.0625 14.21875 L 9.1875 13.65625 L 9.5 12.84375 L 7.625 12.125 z M 17.71875 16.28125 L 16.28125 17.71875 L 18.28125 19.71875 L 19.71875 18.28125 L 17.71875 16.28125 z M 26.8125 16.3125 L 26.59375 16.90625 L 26.5625 17 L 26.25 17.59375 L 26.21875 17.6875 L 25.8125 18.375 L 25.65625 18.625 L 27.3125 19.75 L 27.5 19.4375 L 27.53125 19.40625 L 27.5625 19.375 L 28 18.59375 L 28.03125 18.5625 L 28.03125 18.53125 L 28.40625 17.75 L 28.40625 17.71875 L 28.4375 17.65625 L 28.6875 16.96875 L 26.8125 16.3125 z M 9.21875 16.34375 L 7.3125 16.96875 L 7.5 17.5 L 7.5 17.5625 L 7.53125 17.59375 L 7.84375 18.3125 L 7.875 18.34375 L 7.90625 18.40625 L 8.28125 19.125 L 8.3125 19.15625 L 8.3125 19.1875 L 8.6875 19.75 L 10.375 18.65625 L 10.03125 18.15625 L 10 18.09375 L 9.6875 17.5 L 9.65625 17.4375 L 9.40625 16.875 L 9.375 16.78125 L 9.21875 16.34375 z M 20.71875 19.28125 L 19.28125 20.71875 L 21.28125 22.71875 L 22.71875 21.28125 L 20.71875 19.28125 z M 24.84375 19.6875 L 24.28125 20.375 L 24.21875 20.4375 L 22.96875 21.71875 L 23.625 22.375 L 22.625 23.375 L 21.96875 22.625 L 21.6875 22.875 L 21.65625 22.90625 L 20.40625 23.90625 L 20.375 23.9375 L 19.8125 24.375 L 21 25.96875 L 21.625 25.5 L 21.65625 25.5 L 22.96875 24.40625 L 24.28125 25.71875 L 25.71875 24.28125 L 24.46875 23.03125 L 25.71875 21.75 L 25.75 21.71875 L 25.78125 21.6875 L 26.375 20.9375 L 24.84375 19.6875 z M 11.1875 19.71875 L 9.59375 20.9375 L 9.90625 21.3125 L 9.9375 21.375 L 9.96875 21.40625 L 11.15625 22.6875 L 11.1875 22.71875 L 11.21875 22.75 L 11.65625 23.15625 L 13.03125 21.6875 L 12.625 21.3125 L 12.625 21.28125 L 12.59375 21.28125 L 11.46875 20.09375 L 11.4375 20.03125 L 11.1875 19.71875 z M 14.03125 22.625 L 12.75 24.15625 L 13.78125 25.03125 L 13.8125 25.0625 L 15 25.96875 L 16.21875 24.40625 L 15.0625 23.5 L 15.03125 23.46875 L 14.03125 22.625 z M 27 24 L 27 25.5625 L 26.71875 25.28125 L 25.28125 26.71875 L 25.5625 27 L 24 27 L 24 29 L 28 29 L 29 29 L 29 28 L 29 24 L 27 24 z M 17.3125 25.1875 L 16.1875 26.84375 C 16.965621 27.386077 17.46875 27.6875 17.46875 27.6875 L 18 28.03125 L 18.53125 27.6875 C 18.53125 27.6875 19.034379 27.386077 19.8125 26.84375 L 18.6875 25.1875 C 18.267214 25.480427 18.206319 25.522898 18 25.65625 C 17.793681 25.522898 17.732786 25.480427 17.3125 25.1875 z" fill="#000000"/></svg>
