<?xml version="1.0" encoding="utf-8"?>
<svg xmlns="http://www.w3.org/2000/svg" viewBox="0 0 32 32" fill="#000000"><path style="text-indent:0;text-align:start;line-height:normal;text-transform:none;block-progression:tb;-inkscape-font-specification:Bitstream Vera Sans" d="M 15 3 L 15 5.0625 C 9.7312371 5.5396249 5.5396249 9.7312371 5.0625 15 L 3 15 L 3 17 L 5.03125 17 C 5.4254198 21.393703 8.432205 25.032186 12.46875 26.40625 L 11 23.46875 C 8.8488755 22.027532 7.3615723 19.699652 7.0625 17 L 9 17 L 9 15 L 7.0625 15 C 7.5308335 10.846437 10.847072 7.5307267 15 7.0625 L 15 9 L 17 9 L 17 7.0625 C 21.152928 7.5307267 24.469166 10.846437 24.9375 15 L 23 15 L 23 17 L 24.9375 17 C 24.638428 19.699652 23.151125 22.027532 21 23.46875 L 19.53125 26.40625 C 23.567795 25.032186 26.57458 21.393703 26.96875 17 L 29 17 L 29 15 L 26.9375 15 C 26.460375 9.7312371 22.268763 5.5396249 17 5.0625 L 17 3 L 15 3 z M 13 23 L 16 29 L 19 23 L 16 24 L 13 23 z" overflow="visible" font-family="Bitstream Vera Sans" fill="#000000"/></svg>
