<?xml version="1.0" encoding="utf-8"?>
<svg xmlns="http://www.w3.org/2000/svg" viewBox="0 0 32 32" fill="#000000"><path style="text-indent:0;text-align:start;line-height:normal;text-transform:none;block-progression:tb;-inkscape-font-specification:Sans" d="M 26.28125 2.28125 L 23.78125 4.78125 L 23 4 L 20.71875 6.28125 L 19.71875 5.28125 L 19 4.59375 L 18.28125 5.28125 L 16.28125 7.28125 L 16 7 L 13 9 L 8 16 L 9 17 L 16 12 L 18 9 L 17.71875 8.71875 L 19 7.4375 L 21.5625 10 L 19.28125 12.28125 L 19 12.59375 L 19 13 L 19 14.4375 L 16.6875 16 L 15 16 L 14.65625 16 L 14.375 16.21875 L 6.5 22.40625 L 6.21875 22 L 8.6875 18.28125 L 6.4375 16 L 5 17.4375 L 6.125 18.5625 L 4.15625 21.4375 L 3.8125 22 L 4.15625 22.5625 L 5.40625 24.4375 L 6.03125 25.34375 L 6.875 24.65625 L 15.34375 18 L 16.40625 18 L 22 28.15625 L 22.46875 29.03125 L 23.34375 28.53125 L 26.15625 27 L 27.03125 26.53125 L 26.5625 25.65625 L 21 15.3125 L 21 15 L 23 15 L 23 13 L 21.4375 13 L 23.71875 10.71875 L 24.40625 10 L 23.71875 9.28125 L 26 7 L 25.21875 6.21875 L 27.71875 3.71875 L 26.28125 2.28125 z M 19.4375 16.59375 L 24.34375 25.71875 L 23.25 26.3125 L 18.3125 17.34375 L 19.4375 16.59375 z" fill="#000000"/></svg>
