<?xml version="1.0" encoding="utf-8"?>
<svg xmlns="http://www.w3.org/2000/svg" viewBox="0 0 32 32" fill="#000000"><path style="line-height:normal;text-indent:0;text-align:start;text-decoration-line:none;text-decoration-style:solid;text-decoration-color:#000;text-transform:none;block-progression:tb;isolation:auto;mix-blend-mode:normal" d="M 5 6 C 3.3550302 6 2 7.3550302 2 9 L 2 23 C 2 24.64497 3.3550302 26 5 26 L 27 26 C 28.64497 26 30 24.64497 30 23 L 30 9 C 30 7.3550302 28.64497 6 27 6 L 5 6 z M 5 8 L 27 8 C 27.56503 8 28 8.4349698 28 9 L 28 23 C 28 23.56503 27.56503 24 27 24 L 5 24 C 4.4349698 24 4 23.56503 4 23 L 4 9 C 4 8.4349698 4.4349698 8 5 8 z M 9.5 11 C 7.57 11 6 12.57 6 14.5 C 6 17.364 10.505203 20.810703 11.408203 21.470703 L 12 21.902344 L 12.591797 21.470703 C 13.494797 20.809703 18 17.364 18 14.5 C 18 12.57 16.43 11 14.5 11 C 13.521 11 12.636 11.402734 12 12.052734 C 11.364 11.402734 10.479 11 9.5 11 z M 9.5 13 C 10.327 13 11 13.673 11 14.5 L 13 14.5 C 13 13.673 13.673 13 14.5 13 C 15.327 13 16 13.673 16 14.5 C 16 15.735 13.825 17.953297 12 19.404297 C 10.175 17.954297 8 15.735 8 14.5 C 8 13.673 8.673 13 9.5 13 z M 18 20 L 18 22 L 20 22 L 20 20 L 18 20 z M 21 20 L 21 22 L 23 22 L 23 20 L 21 20 z M 24 20 L 24 22 L 26 22 L 26 20 L 24 20 z" font-weight="400" font-family="sans-serif" white-space="normal" overflow="visible" fill="#000000"/></svg>
