<?xml version="1.0" encoding="utf-8"?>
<svg xmlns="http://www.w3.org/2000/svg" viewBox="0 0 32 32" fill="#000000"><path d="M 3 4 L 3 19 L 29 19 L 29 4 L 3 4 z M 7 6 L 25 6 C 25 7.105 25.895 8 27 8 L 27 15 C 25.895 15 25 15.895 25 17 L 7 17 C 7 15.895 6.105 15 5 15 L 5 8 C 6.105 8 7 7.105 7 6 z M 16 7 C 13.791 7 12 9.015 12 11.5 C 12 13.985 13.791 16 16 16 C 18.209 16 20 13.985 20 11.5 C 20 9.015 18.209 7 16 7 z M 16 9 C 17.103 9 18 10.122 18 11.5 C 18 12.878 17.103 14 16 14 C 14.897 14 14 12.878 14 11.5 C 14 10.122 14.897 9 16 9 z M 8.5 10 A 1.5 1.5 0 0 0 7 11.5 A 1.5 1.5 0 0 0 8.5 13 A 1.5 1.5 0 0 0 10 11.5 A 1.5 1.5 0 0 0 8.5 10 z M 23.5 10 A 1.5 1.5 0 0 0 22 11.5 A 1.5 1.5 0 0 0 23.5 13 A 1.5 1.5 0 0 0 25 11.5 A 1.5 1.5 0 0 0 23.5 10 z M 15 21 L 15 24 L 11 24 L 16 29 L 21 24 L 17 24 L 17 21 L 15 21 z" fill="#000000"/></svg>
