<?xml version="1.0" encoding="utf-8"?>
<svg xmlns="http://www.w3.org/2000/svg" viewBox="0 0 32 32" fill="#000000"><path style="text-indent:0;text-align:start;line-height:normal;text-transform:none;block-progression:tb;-inkscape-font-specification:Sans" d="M 9 3 L 9 8.09375 C 8.4577101 8.3683641 8.0001927 8.6958663 7.65625 9.125 C 7.2218608 9.6669828 7 10.33685 7 11 C 7 11.871927 7.1574504 14.534978 7.34375 17.625 C 7.5300496 20.715022 7.7414423 24.134112 7.875 26.1875 C 7.9764539 27.75556 9.3060139 29 10.875 29 L 21.125 29 C 22.693986 29 24.023546 27.75556 24.125 26.1875 C 24.258045 24.129306 24.469833 20.71965 24.65625 17.625 C 24.842667 14.53035 25 11.852865 25 11 C 25 10.182186 24.641308 9.4205996 24 8.8125 L 24 8.03125 C 24 7.58525 23.70425 7.17225 23.28125 7.03125 L 20.375 6.0625 C 19.704 5.8395 19 6.3555 19 7.0625 L 19 7.15625 C 18.105184 7.0693062 17.135286 7 16 7 C 13.930553 7 12.313068 7.1222938 11 7.40625 L 11 3 L 9 3 z M 16 9 C 18.837865 9 20.756509 9.3159118 21.8125 9.75 C 22.868491 10.184088 23 10.496502 23 11 C 23 11.565135 22.842333 14.4109 22.65625 17.5 C 22.470167 20.5891 22.257955 24.005694 22.125 26.0625 C 22.09045 26.59644 21.662014 27 21.125 27 L 10.875 27 C 10.337986 27 9.9095461 26.59644 9.875 26.0625 C 9.7415577 24.010888 9.5297004 20.615478 9.34375 17.53125 C 9.1577996 14.447022 9 11.594073 9 11 C 9 10.72565 9.0614204 10.571298 9.21875 10.375 C 9.3760796 10.178702 9.6610028 9.9319434 10.1875 9.71875 C 11.240494 9.2923633 13.158011 9 16 9 z M 12 12 L 12 14 L 20 14 L 20 12 L 12 12 z M 12 15 L 12 17 L 20 17 L 20 15 L 12 15 z M 12 18 L 12 20 L 20 20 L 20 18 L 12 18 z" overflow="visible" font-family="Sans" fill="#000000"/></svg>
