<?xml version="1.0" encoding="utf-8"?>
<svg xmlns="http://www.w3.org/2000/svg" viewBox="0 0 32 32" fill="#000000"><path style="text-indent:0;text-align:start;line-height:normal;text-transform:none;block-progression:tb;-inkscape-font-specification:Bitstream Vera Sans" d="M 14.6875 4 C 14.398019 4 14.335455 4.051207 14.21875 4.09375 C 14.102045 4.136293 14.000505 4.1822354 13.875 4.25 C 13.62399 4.3855291 13.34306 4.6001497 13.03125 4.875 C 12.906526 4.9849401 12.786887 5.1139375 12.65625 5.25 C 12.192331 5.3336943 11.481714 5.4804492 10.625 5.8125 C 9.9957751 6.0563791 9.3488268 6.360169 8.8125 6.875 C 8.3790101 7.2911158 8.0455051 7.9523792 8.03125 8.65625 L 8 8.65625 C 8 8.7160289 8.0259211 8.756453 8.03125 8.8125 C 8.0362526 8.9209161 8.0404512 9.0156405 8.0625 9.125 C 8.06354 9.13023 8.06141 9.150771 8.0625 9.15625 C 8.1380218 9.5358852 8.3598698 10.482392 8.53125 11.21875 C 6.7905479 12.402637 5.6661461 14.842891 5.15625 17.9375 L 5.15625 17.96875 C 5.0896188 18.425214 5.1619667 18.831672 5.3125 19.21875 C 5.2286826 19.653548 5 20.916812 5 22.1875 C 5 24.078075 6.5111721 25.543088 8.5 26.5 C 10.488828 27.456912 13.108975 28 16 28 C 18.891025 28 21.511172 27.456912 23.5 26.5 C 25.488828 25.543088 27 24.078075 27 22.1875 C 27 21.93753 26.96917 21.526233 26.875 20.875 C 26.795094 20.322412 26.665925 19.674147 26.4375 19.03125 C 26.569575 18.492951 26.595108 17.917119 26.46875 17.3125 C 26.280462 16.369979 25.566079 13.302985 23.40625 11.28125 C 23.617299 10.606652 23.803537 9.8879195 23.9375 9.25 C 23.960239 9.1557531 23.959279 9.0635922 23.96875 8.96875 C 23.984309 8.901313 23.994805 8.8307519 24 8.75 C 23.999946 8.7189115 24.001325 8.6872352 24 8.65625 C 23.979796 8.1837252 23.808201 7.7201933 23.5625 7.34375 C 23.213417 6.8089125 22.712225 6.4020963 22.125 6.0625 C 21.046102 5.4385658 19.625836 5.088015 18.0625 5.03125 C 17.749174 4.8939706 17.439751 4.8125 17.125 4.8125 C 16.597318 4.8125 16.447334 4.9680483 16.34375 5.03125 C 16.268003 4.9819287 16.092524 4.8688347 15.90625 4.6875 C 15.798394 4.5825037 15.694145 4.4904363 15.5625 4.375 C 15.496678 4.3172818 15.424837 4.2575247 15.3125 4.1875 C 15.200163 4.1174753 15.03927 4 14.6875 4 z M 14.59375 6.1875 C 14.831232 6.4207353 15.106607 6.7273769 15.59375 6.9375 L 15.625 6.9375 C 16.164323 7.1652884 16.748808 7.023281 17.03125 6.90625 C 17.120239 6.8693773 17.142104 6.8578823 17.1875 6.84375 C 17.369738 6.9287245 17.853217 7.2187935 18 8.15625 L 20 7.84375 C 19.970669 7.6564207 19.921185 7.4824756 19.875 7.3125 C 20.360531 7.4513246 20.792988 7.6204952 21.125 7.8125 C 21.5139 8.0374037 21.789802 8.2590875 21.90625 8.4375 C 21.889133 8.450814 21.894384 8.4548034 21.875 8.46875 C 21.621525 8.6511274 21.189849 8.8943756 20.625 9.125 C 19.495302 9.5862489 17.863865 10 16 10 C 14.105515 10 12.456798 9.6633094 11.34375 9.25 C 10.787226 9.0433453 10.349155 8.8288541 10.125 8.65625 C 10.035338 8.5872084 10.013241 8.558635 10 8.53125 C 10.01669 8.4852472 10.07907 8.4478345 10.1875 8.34375 C 10.400276 8.139502 10.83282 7.8765064 11.3125 7.6875 L 12.90625 8.40625 C 13.391056 7.3409352 13.93812 6.7325493 14.34375 6.375 C 14.44928 6.281979 14.51023 6.2455652 14.59375 6.1875 z M 21.46875 10.9375 C 21.450865 10.991607 21.424242 11.07795 21.40625 11.125 L 21.375 11.15625 L 21.375 11.1875 C 21.203407 11.764953 20.758384 12.166803 19.8125 12.5 C 18.866616 12.833197 17.491336 13 15.9375 13 C 14.37131 13 12.97605 12.849107 12.03125 12.53125 C 11.08645 12.213393 10.686907 11.88766 10.5625 11.28125 L 10.5625 11.25 C 10.550567 11.200151 10.544489 11.120003 10.53125 11.0625 C 10.5763 11.079881 10.610364 11.107961 10.65625 11.125 C 12.038952 11.638441 13.877485 12 16 12 C 18.153135 12 20.008948 11.526501 21.375 10.96875 C 21.407406 10.955519 21.436842 10.950764 21.46875 10.9375 z M 9.375 13.125 C 9.8941622 13.727622 10.597447 14.175909 11.375 14.4375 C 12.6922 14.880643 14.26569 15 15.9375 15 C 17.621664 15 19.169134 14.832803 20.46875 14.375 C 21.223147 14.109256 21.914009 13.702647 22.4375 13.15625 C 23.682794 14.676496 24.367407 17.055025 24.5 17.71875 C 24.667965 18.522458 24.399552 19.095789 23.84375 19.6875 C 23.287948 20.279211 22.426765 20.778236 21.65625 21.0625 L 22.34375 22.9375 C 23.206428 22.619236 24.141927 22.121606 24.9375 21.40625 C 24.975984 21.794713 25 22.238185 25 22.1875 C 25 22.954925 24.255672 23.902912 22.625 24.6875 C 20.994328 25.472088 18.630975 26 16 26 C 13.369025 26 11.005672 25.472088 9.375 24.6875 C 7.7443279 23.902912 7 22.954925 7 22.1875 C 7 21.947722 7.0388408 21.67734 7.0625 21.40625 C 8.0598058 22.212272 9.3782445 22.864469 10.90625 22.96875 L 11.03125 20.96875 C 9.8890269 20.890798 8.8275801 20.317261 8.09375 19.65625 C 7.726835 19.325744 7.4399024 18.971721 7.28125 18.6875 C 7.132648 18.421284 7.1315697 18.267044 7.125 18.28125 C 7.12686 18.26996 7.12312 18.26126 7.125 18.25 C 7.5341455 15.804294 8.5062528 13.973621 9.375 13.125 z M 20.625 15.9375 C 20.625 15.9375 18.988042 17 16 17 L 16 19 C 19.495958 19 21.71875 17.59375 21.71875 17.59375 L 20.625 15.9375 z" overflow="visible" font-family="Bitstream Vera Sans" fill="#000000"/></svg>
