<?xml version="1.0" encoding="utf-8"?>
<svg xmlns="http://www.w3.org/2000/svg" viewBox="0 0 32 32" fill="#000000"><path style="text-indent:0;text-align:start;line-height:normal;text-transform:none;block-progression:tb;-inkscape-font-specification:Sans" d="M 4 5 L 4 7 L 6.125 7 L 8 21.125 L 8.125 22 L 9 22 L 13 22 L 22 22 L 26 22 L 27 22 L 27 21 L 27 10 L 27 9 L 27 8 L 9.28125 8 L 9.53125 10 L 25 10 L 25 20 L 9.875 20 L 8 5.875 L 7.875 5 L 7 5 L 4 5 z M 22 22 C 20.35499 22 19 23.35499 19 25 C 19 26.64501 20.35499 28 22 28 C 23.64501 28 25 26.64501 25 25 C 25 23.35499 23.64501 22 22 22 z M 13 22 C 11.35499 22 10 23.35499 10 25 C 10 26.64501 11.35499 28 13 28 C 14.64501 28 16 26.64501 16 25 C 16 23.35499 14.64501 22 13 22 z M 14.8125 12 A 1.001098 1.001098 0 0 0 15 14 L 20 14 A 1.0001 1.0001 0 1 0 20 12 L 15 12 A 1.0001 1.0001 0 0 0 14.90625 12 A 1.001098 1.001098 0 0 0 14.8125 12 z M 13 24 C 13.564128 24 14 24.435872 14 25 C 14 25.564128 13.564128 26 13 26 C 12.435872 26 12 25.564128 12 25 C 12 24.435872 12.435872 24 13 24 z M 22 24 C 22.564128 24 23 24.435872 23 25 C 23 25.564128 22.564128 26 22 26 C 21.435872 26 21 25.564128 21 25 C 21 24.435872 21.435872 24 22 24 z" overflow="visible" font-family="Sans" fill="#000000"/></svg>
