<?xml version="1.0" encoding="utf-8"?>
<svg xmlns="http://www.w3.org/2000/svg" viewBox="0 0 32 32" fill="#000000"><path d="M 17 4 C 12.465059 4 7 7.8496365 7 15 C 7 15.150778 7.027952 15.289499 7.03125 15.4375 C 5.1592969 17.41073 4 20.073203 4 23 L 4 28 L 6 28 L 6 23 C 6 21.296915 6.4956638 19.730668 7.3125 18.375 C 8.5722291 24.966692 13.435303 28 17 28 C 18.166105 28 19.542657 27.655056 20.75 26.875 C 21.957343 26.094944 23 24.756705 23 23 C 23 20.913176 22.102322 19.403425 22 17.375 C 23.239912 18.91696 24 20.860402 24 23 L 24 28 L 26 28 L 26 23 C 26 19.831268 24.652707 16.978235 22.5 14.96875 C 22.62525 14.667184 22.754969 14.357524 22.90625 14.03125 C 23.407553 12.950066 24 11.711456 24 10.15625 C 24 8.6201682 23.437664 7.037855 22.25 5.875 C 21.062336 4.712145 19.278967 4 17 4 z M 17 6 C 18.870033 6 20.068664 6.553605 20.84375 7.3125 C 21.618836 8.071395 22 9.0953318 22 10.15625 C 22 11.198044 21.592447 12.111934 21.09375 13.1875 C 21.016203 13.354749 20.954607 13.543817 20.875 13.71875 C 19.307146 12.724345 17.467738 12.120296 15.5 12.03125 C 15.332479 12.014096 15.171849 12 15 12 C 14.828151 12 14.667521 12.014096 14.5 12.03125 C 12.522642 12.120731 10.666641 12.715699 9.09375 13.71875 C 9.6797434 8.4564589 13.836522 6 17 6 z M 17.5 8 C 16.671573 8 16 8.6715729 16 9.5 C 16 10.328427 16.671573 11 17.5 11 C 18.328427 11 19 10.328427 19 9.5 C 19 8.6715729 18.328427 8 17.5 8 z M 15 14 C 16.668699 14 18 15.331301 18 17 C 18 18.668699 16.668699 20 15 20 C 13.331301 20 12 18.668699 12 17 C 12 15.331301 13.331301 14 15 14 z M 10.3125 15.3125 C 10.119732 15.842701 10 16.405404 10 17 C 10 19.749579 12.250421 22 15 22 C 17.749579 22 20 19.749579 20 17 C 20 16.405404 19.880268 15.842701 19.6875 15.3125 C 19.847677 15.41033 20.002919 15.517634 20.15625 15.625 C 20.056348 16.056064 20 16.51377 20 17 C 20 19.759523 21 21.504389 21 23 C 21 24.009295 20.474157 24.659056 19.65625 25.1875 C 18.838343 25.715944 17.732895 26 17 26 C 14.366641 26 9.5677802 23.386781 9.0625 16.25 C 9.4518594 15.907411 9.8675115 15.584282 10.3125 15.3125 z M 15 15.5 C 14.171573 15.5 13.5 16.171573 13.5 17 C 13.5 17.828427 14.171573 18.5 15 18.5 C 15.828427 18.5 16.5 17.828427 16.5 17 C 16.5 16.171573 15.828427 15.5 15 15.5 z M 17 23 C 16.447715 23 16 23.447715 16 24 C 16 24.552285 16.447715 25 17 25 C 17.552285 25 18 24.552285 18 24 C 18 23.447715 17.552285 23 17 23 z" fill="#000000"/></svg>
