<?xml version="1.0" encoding="utf-8"?>
<svg xmlns="http://www.w3.org/2000/svg" viewBox="0 0 32 32" fill="#000000"><path style="text-indent:0;text-align:start;line-height:normal;text-transform:none;block-progression:tb;-inkscape-font-specification:Bitstream Vera Sans" d="M 22.1875 2.28125 L 20.78125 3.71875 L 25.0625 8 L 4 8 L 4 10 L 25.0625 10 L 20.78125 14.28125 L 22.1875 15.71875 L 28.1875 9.71875 L 28.90625 9 L 28.1875 8.28125 L 22.1875 2.28125 z M 8 20 C 6.7079818 20 5.6057178 20.844255 5.1875 22 L 2 22 L 2 24 L 5.1875 24 C 5.6057178 25.155745 6.7079818 26 8 26 C 9.2920182 26 10.394282 25.155745 10.8125 24 L 13.1875 24 C 13.605718 25.155745 14.707982 26 16 26 C 17.292018 26 18.394282 25.155745 18.8125 24 L 21.1875 24 C 21.605718 25.155745 22.707982 26 24 26 C 25.292018 26 26.394282 25.155745 26.8125 24 L 30 24 L 30 22 L 26.8125 22 C 26.394282 20.844255 25.292018 20 24 20 C 22.707982 20 21.605718 20.844255 21.1875 22 L 18.8125 22 C 18.394282 20.844255 17.292018 20 16 20 C 14.707982 20 13.605718 20.844255 13.1875 22 L 10.8125 22 C 10.394282 20.844255 9.2920182 20 8 20 z M 8 22 C 8.5641291 22 9 22.435871 9 23 C 9 23.564129 8.5641291 24 8 24 C 7.4358709 24 7 23.564129 7 23 C 7 22.435871 7.4358709 22 8 22 z M 16 22 C 16.564128 22 17 22.435872 17 23 C 17 23.564128 16.564128 24 16 24 C 15.435872 24 15 23.564128 15 23 C 15 22.435872 15.435872 22 16 22 z M 24 22 C 24.564128 22 25 22.435872 25 23 C 25 23.564128 24.564128 24 24 24 C 23.435872 24 23 23.564128 23 23 C 23 22.435872 23.435872 22 24 22 z" fill="#000000"/></svg>
