<?xml version="1.0" encoding="utf-8"?>
<svg xmlns="http://www.w3.org/2000/svg" viewBox="0 0 32 32" fill="#000000"><path style="text-indent:0;text-align:start;line-height:normal;text-transform:none;block-progression:tb;-inkscape-font-specification:Sans" d="M 16 2 C 9.9706253 2 4.96875 6.5199827 4.96875 13.3125 C 4.96875 17.868963 5.5683873 22.262856 7.84375 25.03125 C 6.7014 26.739833 6.03125 28.71875 6.03125 28.71875 L 5.65625 30 L 7 30 L 16 30 L 25 30 L 26.34375 30 L 25.96875 28.71875 C 25.96875 28.71875 25.2986 26.739833 24.15625 25.03125 C 26.431613 22.262856 27.03125 17.868963 27.03125 13.3125 C 27.03125 6.5199827 22.029375 2 16 2 z M 16 4 C 21.066625 4 25.03125 7.4690173 25.03125 13.3125 C 25.03125 18.025757 24.256583 22.378584 22.3125 24.28125 L 21.65625 24.90625 L 22.21875 25.625 C 22.774838 26.311959 23.238076 27.230033 23.5625 28 L 16 28 L 8.4375 28 C 8.7619241 27.230033 9.2251616 26.311959 9.78125 25.625 L 10.34375 24.90625 L 9.6875 24.28125 C 7.7434174 22.378584 6.96875 18.025757 6.96875 13.3125 C 6.96875 7.4690173 10.933375 4 16 4 z M 11 14 C 9.896 14 9 14.672 9 15.5 C 9 16.328 9.896 17 11 17 C 12.535 17 15 15.5 15 15.5 C 15 15.5 12.556 14 11 14 z M 21 14 C 19.444 14 17 15.5 17 15.5 C 17 15.5 19.465 17 21 17 C 22.104 17 23 16.329 23 15.5 C 23 14.672 22.104 14 21 14 z M 16 20 C 14.343 20 13 21.1835 13 22.1875 C 13 23.1915 14.343 24 16 24 C 17.657 24 19 23.1915 19 22.1875 C 19 21.1835 17.657 20 16 20 z" overflow="visible" font-family="Sans" fill="#000000"/></svg>
