<?xml version="1.0" encoding="utf-8"?>
<svg xmlns="http://www.w3.org/2000/svg" viewBox="0 0 32 32" fill="#000000"><path d="M 16 4 C 15.874 3.924 15.20275 4.45125 15.09375 4.53125 C 14.92375 4.65525 14.95825 4.7705 15.03125 4.9375 C 15.11525 5.1295 15.2985 5.45025 15.1875 5.65625 C 15.0615 5.88725 14.8575 5.45775 14.8125 5.34375 C 14.7745 5.24975 14.71125 5.17675 14.65625 5.09375 C 14.56525 4.95775 14.5825 4.891 14.4375 4.875 C 14.3345 4.864 14.2065 4.96725 14.1875 5.03125 C 14.1595 5.12625 14.15125 5.519 14.15625 5.625 C 14.16025 5.707 14.24625 5.9315 14.28125 6.0625 C 13.98225 5.9825 13.1185 5.61025 12.9375 5.28125 C 12.8835 5.18325 12.79775 5.085 12.71875 5 C 12.58775 4.859 12.61425 4.79825 12.40625 4.78125 C 12.25825 4.76925 12.0895 4.90175 12.0625 4.96875 C 12.0225 5.06675 11.993 5.4545 12 5.5625 C 12.007 5.6635 12.21875 5.5475 12.21875 5.8125 C 12.21875 6.0875 12.03125 6.15425 12.03125 6.40625 C 12.03125 6.5841324 12.024983 6.8103936 12.0625 7 L 7 7 L 6 7 L 6 8 L 6 8.21875 L 6 8.5 L 6.15625 8.71875 L 7.53125 11 L 5 11 L 4 11 L 4 12 L 4 12.21875 L 4 12.5 L 4.15625 12.71875 L 6 15.78125 L 6 16 L 6 17 L 6 28 L 8 28 L 8 17 L 12 17 L 12 28 L 14 28 L 14 17 L 18 17 L 18 28 L 20 28 L 20 17 L 24 17 L 24 28 L 26 28 L 26 17 L 26 16 L 26 15.78125 L 27.84375 12.71875 L 28 12.5 L 28 12.21875 L 28 12 L 28 11 L 27 11 L 24.46875 11 L 25.84375 8.71875 L 26 8.5 L 26 8.21875 L 26 8 L 26 7 L 25 7 L 19.9375 7 C 19.975017 6.8101616 19.96875 6.5834265 19.96875 6.40625 C 19.96875 6.15525 19.78125 6.0875 19.78125 5.8125 C 19.78125 5.5475 19.994 5.6635 20 5.5625 C 20.007 5.4535 19.9765 5.06675 19.9375 4.96875 C 19.9105 4.90175 19.74075 4.76925 19.59375 4.78125 C 19.38575 4.79725 19.41225 4.859 19.28125 5 C 19.20225 5.085 19.1165 5.18325 19.0625 5.28125 C 18.8805 5.61125 18.01675 5.9835 17.71875 6.0625 C 17.75375 5.9315 17.83975 5.706 17.84375 5.625 C 17.84875 5.52 17.8395 5.12625 17.8125 5.03125 C 17.7935 4.96625 17.6645 4.863 17.5625 4.875 C 17.4175 4.891 17.43475 4.95775 17.34375 5.09375 C 17.28875 5.17675 17.2255 5.24875 17.1875 5.34375 C 17.0985 5.56775 16.97775 5.70125 16.84375 5.78125 C 16.86575 5.71625 16.88925 5.65 16.90625 5.625 C 17.26525 5.125 16.85175 4.67925 16.21875 4.65625 C 16.04675 4.64925 15.83925 4.61075 15.78125 4.46875 C 15.71825 4.31075 16.201 4.122 16 4 z M 8.65625 9 L 23.34375 9 L 22.15625 10.96875 L 22.125 11 L 21 11 L 21 10 L 19 10 L 19 11 L 17 11 L 17 10 L 15 10 L 15 11 L 13 11 L 13 10 L 11 10 L 11 11 L 9.875 11 L 9.84375 10.96875 L 8.65625 9 z M 6.65625 13 L 8 13 L 24 13 L 25.34375 13 L 24.75 14 L 23 14 L 23 15 L 21 15 L 21 14 L 19 14 L 19 15 L 17 15 L 17 14 L 15 14 L 15 15 L 13 15 L 13 14 L 11 14 L 11 15 L 9 15 L 9 14 L 7.25 14 L 6.65625 13 z" fill="#000000"/></svg>
