<?xml version="1.0" encoding="utf-8"?>
<svg xmlns="http://www.w3.org/2000/svg" viewBox="0 0 32 32" fill="#000000"><path style="text-indent:0;text-align:start;line-height:normal;text-transform:none;block-progression:tb;-inkscape-font-specification:Sans" d="M 9 7 C 5.6981362 7 3 9.6981359 3 13 C 3 14.983743 3.9751342 16.750036 5.46875 17.84375 C 2.831147 19.154076 1 21.864226 1 25 L 3 25 C 3 21.674438 5.674438 19 9 19 C 12.325562 19 15 21.674438 15 25 L 16.0625 25 C 16.561017 28.933201 19.935134 32 24 32 C 28.406433 32 32 28.406433 32 24 C 32 20.873975 30.186829 18.158756 27.5625 16.84375 C 28.446632 15.802496 29 14.470464 29 13 C 29 9.691 26.309 7 23 7 C 19.691 7 17 9.691 17 13 C 17 14.856589 17.858237 16.524767 19.1875 17.625 C 18.68458 18.004817 18.244712 18.42074 17.84375 18.90625 C 17.097393 19.537845 16.474989 20.294747 16 21.15625 C 15.21132 19.725937 13.997691 18.572259 12.53125 17.84375 C 14.024866 16.750036 15 14.983743 15 13 C 15 9.698136 12.301864 7 9 7 z M 9 9 C 11.220984 9 13 10.779016 13 13 C 13 15.220984 11.220984 17 9 17 C 6.7790164 17 5 15.220984 5 13 C 5 10.779016 6.7790164 9 9 9 z M 23 9 C 25.206 9 27 10.794 27 13 C 27 14.281762 26.377722 15.392511 25.4375 16.125 C 24.966618 16.038115 24.49538 16 24 16 C 22.994991 16 22.043697 16.190371 21.15625 16.53125 C 19.876204 15.863518 19 14.541214 19 13 C 19 10.794 20.794 9 23 9 z M 24 18 C 27.325553 18 30 20.674447 30 24 C 30 27.325553 27.325553 30 24 30 C 20.674447 30 18 27.325553 18 24 C 18 20.674447 20.674447 18 24 18 z M 23 20 L 23 23 L 20 23 L 20 25 L 23 25 L 23 28 L 25 28 L 25 25 L 28 25 L 28 23 L 25 23 L 25 20 L 23 20 z" overflow="visible" font-family="Sans" fill="#000000"/></svg>
