<?xml version="1.0" encoding="utf-8"?>
<svg xmlns="http://www.w3.org/2000/svg" viewBox="0 0 32 32" fill="#000000"><path style="text-indent:0;text-align:start;line-height:normal;text-transform:none;block-progression:tb;-inkscape-font-specification:Sans" d="M 19.5 4 C 17.578848 4 16 5.5788481 16 7.5 C 16 9.4211519 17.578848 11 19.5 11 C 21.421152 11 23 9.4211519 23 7.5 C 23 5.5788481 21.421152 4 19.5 4 z M 19.5 6 C 20.340272 6 21 6.6597281 21 7.5 C 21 8.3402719 20.340272 9 19.5 9 C 18.659728 9 18 8.3402719 18 7.5 C 18 6.6597281 18.659728 6 19.5 6 z M 26 9 C 24.35499 9 23 10.35499 23 12 C 23 12.460183 23.123739 12.889773 23.3125 13.28125 L 22.25 14.34375 L 19.96875 12.03125 L 19.9375 12 C 19.201015 11.282407 18.234655 10.973761 17.28125 11.03125 C 16.313713 11.08959 15.364609 11.551045 14.71875 12.375 L 9.5 19 L 6 19 C 4.9069372 19 4 19.906937 4 21 L 4 28 L 6 28 L 6 21 L 10 21 L 10.5 21 L 13.53125 21 C 14.758439 21 15.929774 20.432887 16.6875 19.46875 L 20.15625 15.0625 L 20.84375 15.75 C 21.615821 16.524051 22.883666 16.522584 23.65625 15.75 L 24.71875 14.6875 C 25.110227 14.876261 25.539817 15 26 15 C 27.64501 15 29 13.64501 29 12 C 29 10.35499 27.64501 9 26 9 z M 26 11 C 26.564128 11 27 11.435872 27 12 C 27 12.564128 26.564128 13 26 13 C 25.435872 13 25 12.564128 25 12 C 25 11.435872 25.435872 11 26 11 z M 17.375 13 C 17.791809 12.978043 18.234629 13.140879 18.5625 13.46875 L 18.71875 13.625 L 15.125 18.25 C 14.744726 18.733863 14.146061 19 13.53125 19 L 12.0625 19 L 16.28125 13.59375 C 16.567391 13.228706 16.958191 13.021957 17.375 13 z M 7 22 L 7 24.8125 L 7.84375 28 L 9.90625 28 L 8.34375 22 L 7 22 z" overflow="visible" font-family="Sans" fill="#000000"/></svg>
