<?xml version="1.0" encoding="utf-8"?>
<svg xmlns="http://www.w3.org/2000/svg" viewBox="0 0 32 32" fill="#000000"><path style="text-indent:0;text-align:start;line-height:normal;text-transform:none;block-progression:tb;-inkscape-font-specification:Bitstream Vera Sans" d="M 16 3 C 8.8321429 3 3 8.8321429 3 16 C 3 23.167857 8.8321429 29 16 29 C 23.167857 29 29 23.167857 29 16 C 29 8.8321429 23.167857 3 16 3 z M 14.875 5.0625 C 14.916024 5.0583495 14.958843 5.0662007 15 5.0625 L 15 6 L 17 6 L 17 5.0625 C 22.614537 5.5673434 27 10.251319 27 16 C 27 21.748682 22.614537 26.432657 17 26.9375 L 17 26 L 15 26 L 15 26.9375 C 9.3854632 26.432657 5 21.748682 5 16 C 5 10.293459 9.3197247 5.624552 14.875 5.0625 z M 16 7 C 11.041282 7 7 11.041282 7 16 C 7 20.958718 11.041282 25 16 25 C 20.958718 25 25 20.958718 25 16 C 25 11.041282 20.958718 7 16 7 z M 16 9 C 17.909866 9 19.620464 9.7660844 20.875 11 L 17 11 L 17 13 L 22.3125 13 C 22.606139 13.62244 22.805078 14.292248 22.90625 15 L 17 15 L 17 17 L 22.90625 17 C 22.805078 17.707752 22.606139 18.37756 22.3125 19 L 17 19 L 17 21 L 20.875 21 C 19.620464 22.233916 17.909866 23 16 23 C 14.077167 23 12.325229 22.246776 11.0625 21 L 15 21 L 15 19 L 9.6875 19 C 9.3926469 18.378426 9.1948522 17.707262 9.09375 17 L 15 17 L 15 15 L 9.09375 15 C 9.1948522 14.292738 9.3926469 13.621574 9.6875 13 L 15 13 L 15 11 L 11.0625 11 C 12.325229 9.7532236 14.077167 9 16 9 z" fill="#000000"/></svg>
