<?xml version="1.0" encoding="utf-8"?>
<svg xmlns="http://www.w3.org/2000/svg" viewBox="0 0 32 32" fill="#000000"><path d="M 16.09375 2.09375 L 15.0625 4.625 L 13.40625 8.78125 L 7.28125 7.03125 L 4.65625 6.28125 L 6.15625 8.5625 L 9.4375 13.46875 L 4.6875 15.0625 L 2.625 15.75 L 4.5 16.84375 L 8.65625 19.34375 L 6.15625 23.5 L 4.75 25.8125 L 7.3125 24.9375 L 12.375 23.25 L 14.125 28.3125 L 14.71875 30.0625 L 15.84375 28.625 L 19.34375 24.15625 L 24.6875 25.9375 L 26.96875 26.71875 L 25.90625 24.5625 L 23.3125 19.375 L 27.5 16.84375 L 29.25 15.8125 L 27.375 15.0625 L 23.375 13.46875 L 25.90625 8.4375 L 27.125 6 L 24.59375 7.09375 L 18.59375 9.65625 L 16.9375 4.6875 L 16.09375 2.09375 z M 15.9375 7.90625 L 17.0625 11.3125 L 17.40625 12.34375 L 18.40625 11.90625 L 22.875 10 L 21.09375 13.5625 L 20.625 14.53125 L 21.625 14.9375 L 24.78125 16.1875 L 21.5 18.15625 L 20.6875 18.625 L 21.09375 19.4375 L 23.03125 23.3125 L 19.3125 22.0625 L 18.65625 21.84375 L 18.21875 22.375 L 15.40625 25.9375 L 13.9375 21.6875 L 13.625 20.75 L 12.6875 21.0625 L 9.21875 22.21875 L 10.84375 19.5 L 11.375 18.65625 L 10.5 18.15625 L 7.34375 16.25 L 11.3125 14.9375 L 12.5625 14.53125 L 11.84375 13.4375 L 9.375 9.71875 L 13.71875 10.96875 L 14.59375 11.21875 L 14.9375 10.375 L 15.9375 7.90625 z M 15.90625 11.90625 L 15.4375 14.8125 L 13.40625 13.40625 L 14.53125 15.96875 L 12.0625 16.5625 L 14.5 17.40625 L 12.84375 19.125 L 15.53125 18.46875 L 15.8125 21.75 L 16.75 19.09375 L 19.90625 20.59375 L 17.875 17.6875 L 20.625 16.53125 L 17.75 16 L 19.78125 13.09375 L 16.5625 14.9375 L 15.90625 11.90625 z" fill="#000000"/></svg>
