<?xml version="1.0" encoding="utf-8"?>
<svg xmlns="http://www.w3.org/2000/svg" viewBox="0 0 32 32" fill="#000000"><path style="line-height:normal;text-indent:0;text-align:start;text-decoration-line:none;text-decoration-style:solid;text-decoration-color:#000;text-transform:none;block-progression:tb;isolation:auto;mix-blend-mode:normal" d="M 23 2.1484375 L 18.025391 8.3671875 L 15.107422 4.4785156 L 13 6.5859375 L 9 2.5859375 L 9 13 C 9 14.944444 10.178644 16.58159 11.251953 17.789062 C 12.125214 18.771482 12.704617 19.193463 13 19.425781 L 13 25 L 13 29 L 19 29 L 19 25 L 19 19.425781 C 19.295383 19.193463 19.874786 18.771482 20.748047 17.789062 C 21.821356 16.58159 23 14.944444 23 13 L 23 2.1484375 z M 11 7.4140625 L 13 9.4140625 L 14.890625 7.5234375 L 17.974609 11.632812 L 21 7.8515625 L 21 13 C 21 14.055556 20.178644 15.41841 19.251953 16.460938 C 18.325262 17.503464 17.400391 18.199219 17.400391 18.199219 L 17 18.5 L 17 25 L 17 27 L 15 27 L 15 25 L 15 18.5 L 14.599609 18.199219 C 14.599609 18.199219 13.674738 17.503464 12.748047 16.460938 C 11.821356 15.41841 11 14.055556 11 13 L 11 7.4140625 z" font-weight="400" font-family="sans-serif" white-space="normal" overflow="visible" fill="#000000"/></svg>
