<?xml version="1.0" encoding="utf-8"?>
<svg xmlns="http://www.w3.org/2000/svg" viewBox="0 0 32 32" fill="#000000"><path style="text-indent:0;text-align:start;line-height:normal;text-transform:none;block-progression:tb;-inkscape-font-specification:Bitstream Vera Sans" d="M 10 7 C 6.6981362 7 4 9.6981359 4 13 C 4 14.983743 4.9751342 16.750036 6.46875 17.84375 C 3.831147 19.154076 2 21.864226 2 25 L 4 25 C 4 21.674438 6.674438 19 10 19 C 13.325562 19 16 21.674438 16 25 L 18 25 C 18 21.864226 16.168853 19.154076 13.53125 17.84375 C 15.024866 16.750036 16 14.983743 16 13 C 16 9.698136 13.301864 7 10 7 z M 10 9 C 12.220984 9 14 10.779016 14 13 C 14 15.220984 12.220984 17 10 17 C 7.7790164 17 6 15.220984 6 13 C 6 10.779016 7.7790164 9 10 9 z M 24 14.8125 L 23.46875 15.15625 L 19.46875 17.75 L 19 18.03125 L 19 18.59375 L 19 24 L 19 25 L 20 25 L 28 25 L 29 25 L 29 24 L 29 18.59375 L 29 18.03125 L 28.53125 17.75 L 24.53125 15.15625 L 24 14.8125 z M 24 17.1875 L 27 19.125 L 27 23 L 21 23 L 21 19.125 L 24 17.1875 z" overflow="visible" font-family="Bitstream Vera Sans" fill="#000000"/></svg>
