<?xml version="1.0" encoding="utf-8"?>
<svg xmlns="http://www.w3.org/2000/svg" viewBox="0 0 32 32" fill="#000000"><path style="text-indent:0;text-align:start;line-height:normal;text-transform:none;block-progression:tb;-inkscape-font-specification:Bitstream Vera Sans" d="M 16 4.90625 L 15.625 5.0625 L 3.625 10.0625 L 3 10.34375 L 3 11 L 3 26 L 3 27 L 4 27 L 28 27 L 29 27 L 29 26 L 29 11 L 29 10.34375 L 28.375 10.0625 L 16.375 5.0625 L 16 4.90625 z M 15 7.5 L 15 16 L 5 16 L 5 11.6875 L 8 10.4375 L 8 12 L 12 12 L 12 10 L 9.03125 10 L 15 7.5 z M 17 7.5 L 22.96875 10 L 20 10 L 20 12 L 24 12 L 24 10.4375 L 27 11.6875 L 27 16 L 17 16 L 17 7.5 z M 5 18 L 15 18 L 15 25 L 5 25 L 5 18 z M 17 18 L 27 18 L 27 25 L 17 25 L 17 18 z M 8 19 L 8 21 L 12 21 L 12 19 L 8 19 z M 20 19 L 20 21 L 24 21 L 24 19 L 20 19 z" fill="#000000"/></svg>
