<?xml version="1.0" encoding="utf-8"?>
<svg xmlns="http://www.w3.org/2000/svg" viewBox="0 0 32 32" fill="#000000"><path style="text-indent:0;text-align:start;line-height:normal;text-transform:none;block-progression:tb;-inkscape-font-specification:Bitstream Vera Sans" d="M 16 4 C 9.3844277 4 4 9.3844277 4 16 C 4 22.615572 9.3844277 28 16 28 C 22.615572 28 28 22.615572 28 16 C 28 9.3844277 22.615572 4 16 4 z M 16 6 C 21.534692 6 26 10.465308 26 16 C 26 18.140756 25.327062 20.125723 24.1875 21.75 L 21.21875 18.78125 L 19.78125 20.21875 L 22.84375 23.28125 C 21.055816 24.961199 18.654782 26 16 26 C 10.465308 26 6 21.534692 6 16 C 6 13.345218 7.0388011 10.944184 8.71875 9.15625 L 11.78125 12.21875 L 13.21875 10.78125 L 10.25 7.8125 C 11.874277 6.6729382 13.859244 6 16 6 z M 18.15625 8.75 L 17.46875 9.6875 L 15.21875 12.78125 C 13.924168 12.669855 12.5806 12.980836 11.59375 13.96875 L 10.90625 14.65625 L 11.59375 15.375 L 13.40625 17.1875 L 10 20.59375 L 10 22 L 11.40625 22 L 14.8125 18.59375 L 16.625 20.40625 L 17.34375 21.09375 L 18.0625 20.40625 C 19.049185 19.419565 19.329972 18.075962 19.21875 16.78125 L 22.3125 14.53125 L 23.25 13.84375 L 22.40625 13.03125 L 18.96875 9.59375 L 18.15625 8.75 z M 18.375 11.8125 L 20.1875 13.625 L 17.65625 15.46875 L 17.125 15.875 L 17.28125 16.53125 C 17.41953 17.057691 17.3564 17.584769 17.15625 18.09375 L 13.90625 14.84375 C 14.415029 14.643713 14.941995 14.580388 15.46875 14.71875 L 16.125 14.875 L 16.53125 14.34375 L 18.375 11.8125 z" overflow="visible" font-family="Bitstream Vera Sans" fill="#000000"/></svg>
