<?xml version="1.0" encoding="utf-8"?>
<svg xmlns="http://www.w3.org/2000/svg" viewBox="0 0 32 32" fill="#000000"><path style="text-indent:0;text-align:start;line-height:normal;text-transform:none;block-progression:tb;-inkscape-font-specification:Bitstream Vera Sans" d="M 9 4 L 9 6 L 11 6 L 11 9.75 L 4.09375 23.5625 L 4 23.75 L 4 24 L 4 25 C 4 26.645455 5.3545455 28 7 28 L 25 28 C 26.645455 28 28 26.645455 28 25 L 28 24 L 28 23.75 L 27.90625 23.5625 L 21 9.75 L 21 6 L 23 6 L 23 4 L 9 4 z M 13 6 L 19 6 L 19 10 L 19 10.25 L 19.09375 10.4375 L 26 24.25 L 26 25 C 26 25.554545 25.554545 26 25 26 L 7 26 C 6.4454545 26 6 25.554545 6 25 L 6 24.25 L 12.90625 10.4375 L 13 10.25 L 13 10 L 13 6 z M 16 14.71875 L 15.375 15.21875 C 15.375 15.21875 14.400893 16.148097 13.71875 17.46875 C 12.304413 17.067065 10.96875 17.09375 10.96875 17.09375 L 10.1875 17.1875 L 10.09375 17.96875 C 10.09375 17.96875 9.6285955 20.847345 11.5 22.71875 C 13.209695 24.428445 15.458335 24.072644 15.875 24 C 15.875 24 16.117438 23.9947 16.15625 24 C 16.574554 24.05671 18.881238 24.306262 20.59375 22.59375 C 22.465155 20.722345 21.875 17.9375 21.875 17.9375 L 21.75 17.1875 L 21.03125 17.09375 C 21.03125 17.09375 19.695587 17.06706 18.28125 17.46875 C 17.599107 16.148097 16.625 15.21875 16.625 15.21875 L 16 14.71875 z M 16 17.4375 C 16.327686 17.823298 16.702909 18.315596 16.84375 18.84375 L 17.15625 20.03125 L 18.25 19.5 C 18.771115 19.239443 19.402542 19.12893 19.90625 19.09375 C 19.88554 19.761273 19.767872 20.607128 19.1875 21.1875 C 18.258905 22.116095 16.125 22 16.125 22 L 15.96875 22 L 15.84375 22 C 15.84375 22 13.834845 22.209845 12.90625 21.28125 C 12.319465 20.694465 12.170886 19.803852 12.125 19.09375 C 12.624222 19.13061 13.23816 19.24408 13.75 19.5 L 14.84375 20.03125 L 15.15625 18.84375 C 15.297091 18.315596 15.672314 17.823298 16 17.4375 z" overflow="visible" font-family="Bitstream Vera Sans" fill="#000000"/></svg>
