<?xml version="1.0" encoding="utf-8"?>
<svg xmlns="http://www.w3.org/2000/svg" viewBox="0 0 32 32" fill="#000000"><path d="M 12 7 L 12 8 L 12 15.748047 C 7.0953841 15.225147 2.2421875 14.029297 2.2421875 14.029297 L 1.7578125 15.970703 C 1.7578125 15.970703 2.8541131 16.228919 4.3496094 16.541016 L 2 25 L 7 25 L 4.6699219 16.609375 C 6.6162761 17.007545 9.2367794 17.474756 12 17.757812 L 12 23 L 20 23 L 20 17.757812 C 22.76322 17.474756 25.383724 17.007545 27.330078 16.609375 L 25 25 L 30 25 L 27.650391 16.541016 C 29.145887 16.228919 30.242187 15.970703 30.242188 15.970703 L 29.757812 14.029297 C 29.757812 14.029297 24.904616 15.225147 20 15.748047 L 20 7 L 12 7 z M 14 9 L 18 9 L 18 21 L 14 21 L 14 9 z" fill="#000000"/></svg>
