<?xml version="1.0" encoding="utf-8"?>
<svg xmlns="http://www.w3.org/2000/svg" viewBox="0 0 32 32" fill="#000000"><path style="text-indent:0;text-align:start;line-height:normal;text-transform:none;block-progression:tb;-inkscape-font-specification:Sans" d="M 16 4 C 13.853 4 12.44475 4.762 11.09375 5.5 C 9.68375 6.271 8.362 7 6 7 L 5 7 L 5 8 C 5 10.915 5.3485 13.42575 5.9375 15.59375 L 7.21875 11.65625 C 7.11175 10.80025 7.029 9.92175 7 8.96875 C 9.275 8.78175 10.7515 7.967 12.0625 7.25 C 13.2965 6.576 14.363 6 16 6 C 17.64 6 18.6975 6.574 19.9375 7.25 C 21.2485 7.964 22.738 8.78075 25 8.96875 C 24.983 9.55975 24.923 10.10325 24.875 10.65625 C 25.695 11.15425 26.30925 11.88575 26.65625 12.71875 C 26.87625 11.27275 27 9.71 27 8 L 27 7 L 26 7 C 23.653 7 22.31825 6.27 20.90625 5.5 C 19.55025 4.761 18.149 4 16 4 z M 9.21875 12 L 9 12.6875 L 7.0625 18.6875 L 7 18.84375 L 7 19 L 7 20 L 9 20 L 9 19.125 L 9.03125 19 L 10.96875 19 L 11 19.125 L 11 20 L 13 20 L 13 19 L 13 18.84375 L 12.9375 18.6875 L 11 12.6875 L 10.78125 12 L 10.0625 12 L 9.9375 12 L 9.21875 12 z M 14 12 L 14 13 L 14 19 L 14 20 L 15 20 L 19 20 L 19 18 L 16 18 L 16 17 L 18 17 L 18 15 L 16 15 L 16 14 L 19 14 L 19 12 L 15 12 L 14 12 z M 22.5 12 C 21.130937 12 20 13.130937 20 14.5 C 20 15.869063 21.130937 17 22.5 17 C 22.786937 17 23 17.213063 23 17.5 C 23 17.864232 22.93915 18 22.5 18 C 22.120705 18 22.068225 17.91215 22.0625 17.90625 C 22.056775 17.900353 22 17.866336 22 17.625 L 20 17.625 C 20 18.192664 20.156725 18.830147 20.625 19.3125 C 21.093275 19.794853 21.775295 20 22.5 20 C 23.908848 20 25 18.791768 25 17.5 C 25 16.130937 23.869063 15 22.5 15 C 22.213063 15 22 14.786937 22 14.5 C 22 14.213063 22.213063 14 22.5 14 C 22.77034 14 22.844119 14.05675 22.90625 14.125 C 22.968381 14.19325 23 14.320536 23 14.40625 L 25 14.40625 C 25 14.2885 24.987141 14.180031 24.96875 14.0625 C 24.905965 13.605514 24.720715 13.16101 24.375 12.78125 C 23.944631 12.3085 23.25966 12 22.5 12 z M 10 16.0625 L 10.3125 17 L 9.6875 17 L 10 16.0625 z M 20.875 21.75 C 18.922 24.28 16.843 25.48925 16 25.90625 C 15.19 25.50125 13.22975 24.337 11.34375 22 L 11 22 L 9 22 L 8.84375 22 C 11.78175 26.322 15.371 27.8365 15.625 27.9375 L 16 28.0625 L 16.375 27.9375 C 16.631 27.8365 20.26775 26.3315 23.21875 21.9375 C 22.98375 21.9725 22.746 22 22.5 22 C 21.917 22 21.369 21.913 20.875 21.75 z" overflow="visible" font-family="Sans" fill="#000000"/></svg>
