<?xml version="1.0" encoding="utf-8"?>
<svg xmlns="http://www.w3.org/2000/svg" viewBox="0 0 32 32" fill="#000000"><path style="text-indent:0;text-align:start;line-height:normal;text-transform:none;block-progression:tb;-inkscape-font-specification:Bitstream Vera Sans" d="M 5 5 L 5 6 L 5 26 L 5 27 L 6 27 L 26 27 L 27 27 L 27 26 L 27 6 L 27 5 L 26 5 L 6 5 L 5 5 z M 7 7 L 25 7 L 25 25 L 7 25 L 7 7 z M 19.6875 9 L 19.46875 9.09375 C 19.200457 9.2250242 18.39772 9.4381803 17.46875 9.65625 C 16.53978 9.8743197 15.450159 10.152987 14.375 10.5625 C 13.299841 10.972013 12.243914 11.52833 11.40625 12.40625 C 10.568586 13.28417 10 14.495931 10 15.96875 C 10 17.516583 10.684575 18.64717 11.375 19.28125 C 11.659769 19.542779 11.939851 19.736556 12.1875 19.875 C 11.999564 20.952322 12 21.988456 12 23 L 14 23 C 14 21.628725 14.0032 20.460917 14.34375 19.375 C 14.684313 18.289083 15.328104 17.21703 16.90625 15.96875 L 15.6875 14.40625 C 14.262329 15.53353 13.359651 16.689655 12.8125 17.84375 C 12.790884 17.825178 12.772075 17.832773 12.75 17.8125 C 12.377425 17.47033 12 16.957917 12 15.96875 C 12 14.967069 12.310008 14.340643 12.84375 13.78125 C 13.377492 13.221857 14.180784 12.753987 15.09375 12.40625 C 16.006716 12.058513 17.016313 11.809993 17.9375 11.59375 C 18.498428 11.462076 18.932652 11.328524 19.40625 11.1875 C 19.629781 12.067909 20 13.684073 20 16.40625 C 20.000455 18.313686 19.479798 19.128246 19.03125 19.53125 C 18.582702 19.934254 18.051997 20 17.84375 20 C 17.490077 20 16.772168 19.626268 15.875 19.25 L 15.125 21.09375 C 15.815832 21.383482 16.649423 22 17.84375 22 C 18.391503 22 19.442298 21.869246 20.375 21.03125 C 21.307702 20.193254 22.000545 18.692814 22 16.40625 C 22 12.422153 21.125 9.6875 21.125 9.6875 L 20.90625 9 L 20.15625 9 L 19.90625 9 L 19.6875 9 z" overflow="visible" font-family="Bitstream Vera Sans" fill="#000000"/></svg>
