<?xml version="1.0" encoding="utf-8"?>
<svg xmlns="http://www.w3.org/2000/svg" viewBox="0 0 32 32" fill="#000000"><path style="text-indent:0;text-align:start;line-height:normal;text-transform:none;block-progression:tb;-inkscape-font-specification:Sans" d="M 5.78125 4.09375 L 4 4.9375 C 4 4.9375 6.1412228 9.458162 4.1875 15.28125 L 4.03125 15.59375 C 1.1932084 22.053632 5.21875 26.6875 5.21875 26.6875 L 5.34375 26.8125 L 5.5 26.90625 C 5.5 26.90625 10.112983 29.123559 15.96875 27.03125 C 21.825761 29.125161 26.4375 26.90625 26.4375 26.90625 L 26.625 26.8125 L 26.75 26.6875 C 26.75 26.6875 30.719589 22.081683 27.9375 15.65625 C 25.759261 9.6526734 28 4.9375 28 4.9375 L 26.21875 4.09375 C 26.21875 4.09375 23.941261 8.9132883 25.65625 15.0625 C 21.032124 15.388589 18.292852 17.367549 16.8125 19.40625 C 16.370157 20.015432 16.22146 20.524399 15.96875 21.09375 C 15.716337 20.526002 15.597123 20.013408 15.15625 19.40625 C 13.679256 17.372173 10.948851 15.395394 6.34375 15.0625 C 8.0587395 8.9132883 5.78125 4.09375 5.78125 4.09375 z M 5.71875 17.0625 C 10.088974 17.255647 12.320226 18.92596 13.53125 20.59375 C 14.817077 22.364557 14.96875 24.0625 14.96875 24.0625 L 16 24 L 17 24.0625 C 17 24.0625 17.120423 22.364557 18.40625 20.59375 C 19.617985 18.92498 21.874617 17.253977 26.25 17.0625 C 28.047745 21.9954 25.535201 24.949067 25.34375 25.15625 C 25.036754 25.306067 21.448651 27.019211 16.375 25.0625 L 16.1875 25 L 16 25 L 15.96875 25 L 15.78125 25 L 15.59375 25.0625 C 10.490964 27.030447 6.8622082 25.288186 6.59375 25.15625 C 6.4013506 24.947994 3.9203615 21.995248 5.71875 17.0625 z" overflow="visible" font-family="Sans" fill="#000000"/></svg>
