<?xml version="1.0" encoding="utf-8"?>
<svg xmlns="http://www.w3.org/2000/svg" viewBox="0 0 32 32" fill="#000000"><path style="line-height:normal;text-indent:0;text-align:start;text-decoration-line:none;text-decoration-style:solid;text-decoration-color:#000;text-transform:none;block-progression:tb;isolation:auto;mix-blend-mode:normal" d="M 15 3 C 8.5508889 3 3 7.4825281 3 14 C 3 19.763736 8.0255581 25 14 25 L 14 27.048828 C 12.201116 27.281898 11.189453 28.664062 11.189453 28.664062 L 12.810547 29.835938 C 12.810547 29.835938 13.424812 29 14.5 29 C 15.575188 29 16.189453 29.835937 16.189453 29.835938 L 17.810547 28.664062 C 17.810547 28.664062 17.169172 27.779342 16 27.300781 L 16 24.939453 C 17.006732 24.876895 17.973365 24.746704 18.894531 24.503906 L 21.101562 27.376953 L 21.273438 27.476562 C 23.077109 28.518684 25.372514 27.920674 26.5 26.197266 C 27.604328 25.797337 28.570179 25.000967 28.953125 23.794922 L 29.271484 22.791016 L 22.314453 20.970703 C 21.9377 20.636676 14.504845 14.045861 14.476562 14.017578 L 14.46875 14.009766 L 14.460938 14.001953 C 14.405747 13.949196 14.363163 13.890168 14.310547 13.835938 C 14.852913 13.950837 15.420439 14 16 14 C 17.101271 14 18.143355 13.671084 19 13.064453 L 19 16 C 20.777 15.786 22.232437 14.706719 22.773438 13.261719 C 22.779437 13.249719 22.785156 13.238563 22.785156 13.226562 C 22.905156 12.809563 22.987 12.376641 23 11.931641 C 22.984803 11.005088 22.600256 10.163335 21.982422 9.4902344 C 21.895082 7.2412589 21.236237 5.5572272 20.013672 4.4902344 C 18.69907 3.3429165 16.929031 3 15 3 z M 15 5 C 16.685969 5 17.915618 5.3158647 18.697266 5.9980469 C 19.220729 6.4548992 19.622486 7.1296166 19.833984 8.171875 C 19.565749 8.0938667 19.287848 8.0348906 19 8 L 19 9 C 19 10.019992 18.661685 10.723355 18.140625 11.216797 C 17.619565 11.710238 16.879815 12 16 12 C 15.015414 12 14.198821 11.804386 13.722656 11.492188 C 13.246492 11.179987 13.005859 10.834846 13.005859 10 L 13 10 L 11 10 L 11 11 C 11 12.764137 11.887668 14.305225 13.074219 15.441406 C 13.075919 15.443006 13.076425 15.445566 13.078125 15.447266 C 13.130896 15.496878 18.347806 20.124812 20.027344 21.615234 C 19.457926 21.877871 18.827935 22 18 22 C 14.892713 22 12 19.110228 12 16 L 10 16 C 10 18.942895 11.738608 21.605222 14.212891 22.992188 C 14.138407 22.992838 14.075647 23 14 23 C 9.2244419 23 5 18.570264 5 14 C 5 8.6014719 9.4491111 5 15 5 z M 17.001953 7 A 1 1 0 0 0 16.001953 8 A 1 1 0 0 0 17.001953 9 A 1 1 0 0 0 18.001953 8 A 1 1 0 0 0 17.001953 7 z M 22.074219 22.974609 L 26.369141 24.099609 C 26.141963 24.270602 25.891343 24.416408 25.607422 24.478516 L 25.179688 24.572266 L 24.910156 25.035156 L 24.908203 25.037109 C 24.395306 25.926555 23.286373 26.211451 22.380859 25.757812 L 20.845703 23.761719 C 21.26941 23.542506 21.67685 23.276086 22.074219 22.974609 z" font-weight="400" font-family="sans-serif" white-space="normal" overflow="visible" fill="#000000"/></svg>
