<?xml version="1.0" encoding="utf-8"?>
<svg xmlns="http://www.w3.org/2000/svg" viewBox="0 0 32 32" fill="#000000"><path style="text-indent:0;text-align:start;line-height:normal;text-transform:none;block-progression:tb;-inkscape-font-specification:Bitstream Vera Sans" d="M 2 5 L 2 6 L 2 22 L 2 23 L 3 23 L 15 23 L 15 25 L 10 25 L 10 27 L 22 27 L 22 25 L 17 25 L 17 23 L 29 23 L 30 23 L 30 22 L 30 6 L 30 5 L 29 5 L 3 5 L 2 5 z M 4 7 L 28 7 L 28 21 L 4 21 L 4 7 z M 20 9.84375 L 15.59375 10.46875 L 15.59375 14 L 20 14 L 20 9.84375 z M 14.59375 10.75 L 11 11.25 L 11 14 L 14.59375 14 L 14.59375 10.75 z M 11 15 L 11 17.75 L 14.59375 18.25 L 14.59375 15 L 11 15 z M 15.59375 15 L 15.59375 18.53125 L 20 19.15625 L 20 15 L 15.59375 15 z" overflow="visible" font-family="Bitstream Vera Sans" fill="#000000"/></svg>
