<?xml version="1.0" encoding="utf-8"?>
<svg xmlns="http://www.w3.org/2000/svg" viewBox="0 0 32 32" fill="#000000"><path style="text-indent:0;text-align:start;line-height:normal;text-transform:none;block-progression:tb;-inkscape-font-specification:Bitstream Vera Sans" d="M 5 5 L 5 6 L 5 26 L 5 27 L 6 27 L 26 27 L 27 27 L 27 26 L 27 6 L 27 5 L 26 5 L 6 5 L 5 5 z M 7 7 L 25 7 L 25 25 L 7 25 L 7 7 z M 13 12 L 13 14 L 10 14 L 10 20 L 12 20 L 12 19 L 13 19 L 13 20 L 14 20 L 14 19 L 15 19 L 15 20 L 17 20 L 17 19 L 18 19 L 18 20 L 19 20 L 19 19 L 20 19 L 20 20 L 22 20 L 22 14 L 19 14 L 19 12 L 13 12 z" overflow="visible" font-family="Bitstream Vera Sans" fill="#000000"/></svg>
