<?xml version="1.0" encoding="utf-8"?>
<svg xmlns="http://www.w3.org/2000/svg" viewBox="0 0 32 32" fill="#000000"><path d="M 9 3.375 L 9 5 L 9 10 L 7 10 L 6.1875 10 L 6.03125 10.78125 L 4.03125 19.78125 L 4 19.875 L 4 20 L 4 26 L 4 27 L 5 27 L 27 27 L 28 27 L 28 26 L 28 20 L 28 19.875 L 27.96875 19.78125 L 25.96875 10.78125 L 25.8125 10 L 25 10 L 23 10 L 23 5 L 23 3.375 L 21.5625 4.09375 L 20 4.875 L 18.4375 4.09375 L 18 3.875 L 17.5625 4.09375 L 16 4.875 L 14.4375 4.09375 L 14 3.875 L 13.5625 4.09375 L 12 4.875 L 10.4375 4.09375 L 9 3.375 z M 14 6.125 L 15.5625 6.90625 L 16 7.125 L 16.4375 6.90625 L 18 6.125 L 19.5625 6.90625 L 20 7.125 L 20.4375 6.90625 L 21 6.625 L 21 12 L 11 12 L 11 6.625 L 11.5625 6.90625 L 12 7.125 L 12.4375 6.90625 L 14 6.125 z M 7.78125 12 L 9 12 L 9 13 L 9 14 L 10 14 L 22 14 L 23 14 L 23 13 L 23 12 L 24.21875 12 L 25.78125 19 L 6.21875 19 L 7.78125 12 z M 11 15 L 11 17 L 13 17 L 13 15 L 11 15 z M 15 15 L 15 17 L 17 17 L 17 15 L 15 15 z M 19 15 L 19 17 L 21 17 L 21 15 L 19 15 z M 6 21 L 26 21 L 26 25 L 6 25 L 6 21 z M 16 22 C 15.447715 22 15 22.447715 15 23 C 15 23.552285 15.447715 24 16 24 C 16.552285 24 17 23.552285 17 23 C 17 22.447715 16.552285 22 16 22 z" fill="#000000"/></svg>
