<?xml version="1.0" encoding="utf-8"?>
<svg xmlns="http://www.w3.org/2000/svg" viewBox="0 0 32 32" fill="#000000"><path style="text-indent:0;text-align:start;line-height:normal;text-transform:none;block-progression:tb;-inkscape-font-specification:Bitstream Vera Sans" d="M 13 4 C 10.802706 4 9 5.8027056 9 8 C 9 9.1142275 9.4752605 10.116062 10.21875 10.84375 C 8.8879617 11.745561 8 13.284091 8 15 L 10 15 C 10 13.345455 11.345455 12 13 12 C 14.654545 12 16 13.345455 16 15 L 18 15 C 18 13.284091 17.112038 11.745561 15.78125 10.84375 C 16.524739 10.116062 17 9.1142275 17 8 C 17 5.8027056 15.197294 4 13 4 z M 13 6 C 14.116414 6 15 6.883586 15 8 C 15 9.116414 14.116414 10 13 10 C 11.883586 10 11 9.116414 11 8 C 11 6.883586 11.883586 6 13 6 z M 23 12 C 21.354545 12 20 13.354545 20 15 L 22 15 C 22 14.445455 22.445455 14 23 14 C 23.554545 14 24 14.445455 24 15 L 26 15 C 26 13.354545 24.645455 12 23 12 z M 4 16 L 4 18 L 5 18 L 5 27 L 5 28 L 6 28 L 26 28 L 27 28 L 27 27 L 27 18 L 28 18 L 28 16 L 27 16 L 5 16 L 4 16 z M 7 18 L 25 18 L 25 26 L 7 26 L 7 18 z" overflow="visible" font-family="Bitstream Vera Sans" fill="#000000"/></svg>
