<?xml version="1.0" encoding="utf-8"?>
<svg xmlns="http://www.w3.org/2000/svg" viewBox="0 0 32 32" fill="#000000"><path style="text-indent:0;text-align:start;line-height:normal;text-transform:none;block-progression:tb;-inkscape-font-specification:Bitstream Vera Sans" d="M 27.375 3.28125 C 26.482395 3.9595542 25.878338 4.5997851 25.53125 5.34375 C 25.497431 5.4162389 25.52773 5.489399 25.5 5.5625 L 25.46875 5.53125 C 25.25693 5.9991283 25.114908 6.1450601 25.03125 6.21875 C 24.94759 6.29244 24.869857 6.3521956 24.5625 6.46875 C 23.947785 6.7018588 22.793016 7.1417794 21.15625 8.625 C 19.889678 9.7729429 19.064289 11.404871 18.09375 13.03125 C 17.123211 14.657629 16.060276 16.28747 14.5625 17.4375 C 12.843354 18.757875 11.319559 19.275927 9.875 19.75 C 8.4304414 20.224073 6.9797106 20.630798 5.75 21.78125 C 5.3345505 22.170252 5.0733425 22.621034 4.75 23.09375 C 4.4266575 23.566466 4.15625 23.96875 4.15625 23.96875 L 4 24.21875 L 4 24.53125 L 4 25.34375 L 4 25.78125 L 4.34375 26.09375 C 4.9080211 26.591816 6.5614062 28 9.09375 28 C 22.794962 28 28 18.932418 28 13.53125 C 28 10.360963 27.394812 8.4542255 27.25 7.34375 C 27.177594 6.7885122 27.19762 6.5007226 27.34375 6.1875 C 27.48988 5.8742774 27.834855 5.4516958 28.59375 4.875 L 27.375 3.28125 z M 25.375 8.28125 C 25.610649 9.5851107 26 11.026894 26 13.53125 C 26 17.624082 21.918538 26 9.09375 26 C 7.9384047 26 7.1181501 25.639853 6.53125 25.25 C 14.375016 24.949285 22.124895 19.87406 24.09375 12.65625 L 23.125 12.40625 C 21.290112 19.132939 13.84981 24.016864 6.375 24.25 C 6.3871889 24.232228 6.3932117 24.237812 6.40625 24.21875 C 6.7106575 23.773716 7.1634495 23.213998 7.125 23.25 C 7.9432894 22.484452 9.0185586 22.142427 10.5 21.65625 C 11.981441 21.170073 13.814396 20.510625 15.78125 19 C 17.621474 17.58703 18.810039 15.742371 19.8125 14.0625 C 20.814961 12.382629 21.652572 10.861807 22.5 10.09375 C 23.965234 8.7659706 24.635465 8.5886412 25.28125 8.34375 C 25.31006 8.332824 25.34503 8.29274 25.375 8.28125 z" overflow="visible" font-family="Bitstream Vera Sans" fill="#000000"/></svg>
