<?xml version="1.0" encoding="utf-8"?>
<svg xmlns="http://www.w3.org/2000/svg" viewBox="0 0 32 32" fill="#000000"><path style="text-indent:0;text-align:start;line-height:normal;text-transform:none;block-progression:tb;-inkscape-font-specification:Sans" d="M 16 2 C 14.74133 2 13.848273 2.8904725 13.40625 4 L 11 4 L 10 4 L 6 4 L 5 4 L 5 5 L 5 28 L 5 29 L 6 29 L 26 29 L 27 29 L 27 28 L 27 5 L 27 4 L 26 4 L 22 4 L 21 4 L 18.59375 4 C 18.151727 2.8904725 17.25867 2 16 2 z M 16 4 C 16.56503 4 17 4.4349698 17 5 L 17 6 L 18 6 L 20 6 L 20 8 L 12 8 L 12 6 L 14 6 L 15 6 L 15 5 C 15 4.4349698 15.43497 4 16 4 z M 7 6 L 10 6 L 10 9 L 10 10 L 11 10 L 21 10 L 22 10 L 22 9 L 22 6 L 25 6 L 25 27 L 7 27 L 7 6 z M 20 11 L 19 12 L 18 13 L 19 13 L 19 14 L 21 14 L 21 13 L 22 13 L 21 12 L 20 11 z M 10.40625 13 L 9 14.4375 L 10.09375 15.5 L 9 16.59375 L 10.40625 18 L 11.5 16.90625 L 12.59375 18 L 14 16.5625 L 12.90625 15.5 L 14 14.40625 L 12.59375 13 L 11.5 14.09375 L 10.40625 13 z M 20 15 C 19.447715 15 19 15.447715 19 16 C 19 16.552285 19.447715 17 20 17 C 20.552285 17 21 16.552285 21 16 C 21 15.447715 20.552285 15 20 15 z M 17.78125 16.8125 L 11.90625 21.6875 L 13.1875 23.21875 L 19.0625 18.34375 L 17.78125 16.8125 z M 19.40625 20 L 18 21.4375 L 19.09375 22.5 L 18 23.59375 L 19.4375 25 L 20.5 23.9375 L 21.59375 25 L 23 23.5625 L 21.9375 22.5 L 23 21.40625 L 21.59375 20 L 20.5 21.09375 L 19.40625 20 z M 11 23 C 10.447715 23 10 23.447715 10 24 C 10 24.552285 10.447715 25 11 25 C 11.552285 25 12 24.552285 12 24 C 12 23.447715 11.552285 23 11 23 z" fill="#000000"/></svg>
