<?xml version="1.0" encoding="utf-8"?>
<svg xmlns="http://www.w3.org/2000/svg" viewBox="0 0 32 32" fill="#000000"><path style="text-indent:0;text-align:start;line-height:normal;text-transform:none;block-progression:tb;-inkscape-font-specification:Bitstream Vera Sans" d="M 8.125 4.5 L 5.90625 8.375 C 4.6273121 10.612267 4.6963737 13.376931 6.0625 15.5625 L 7.25 17.5 C 8.2277382 19.064214 8.2581456 21.023973 7.34375 22.625 L 5.125 26.5 L 6.875 27.5 L 9.09375 23.625 C 10.371354 21.388027 10.303762 18.623286 8.9375 16.4375 L 7.75 14.5 C 6.7721263 12.935569 6.7411879 10.975733 7.65625 9.375 L 9.875 5.5 L 8.125 4.5 z M 16.625 4.5 L 14.40625 8.375 C 13.127312 10.612267 13.196374 13.376931 14.5625 15.5625 L 15.75 17.5 C 16.727738 19.064214 16.758146 21.023973 15.84375 22.625 L 13.625 26.5 L 15.375 27.5 L 17.59375 23.625 C 18.871354 21.388027 18.803762 18.623286 17.4375 16.4375 L 16.25 14.5 C 15.272126 12.935569 15.241188 10.975733 16.15625 9.375 L 18.375 5.5 L 16.625 4.5 z M 25.125 4.5 L 22.90625 8.375 C 21.627312 10.612267 21.696374 13.376931 23.0625 15.5625 L 24.25 17.5 C 25.227738 19.064214 25.258146 21.023973 24.34375 22.625 L 22.125 26.5 L 23.875 27.5 L 26.09375 23.625 C 27.371354 21.388027 27.303762 18.623286 25.9375 16.4375 L 24.75 14.5 C 23.772126 12.935569 23.741188 10.975733 24.65625 9.375 L 26.875 5.5 L 25.125 4.5 z" overflow="visible" font-family="Bitstream Vera Sans" fill="#000000"/></svg>
