<?xml version="1.0" encoding="utf-8"?>
<svg xmlns="http://www.w3.org/2000/svg" viewBox="0 0 32 32" fill="#000000"><path style="text-indent:0;text-align:start;line-height:normal;text-transform:none;block-progression:tb;-inkscape-font-specification:Sans" d="M 16.03125 3 C 12.192004 3 9.03125 6.0659875 9.03125 9.84375 C 9.03125 11.732631 9.7766731 13.887994 10.96875 15.6875 C 11.962147 17.187088 13.328424 18.483115 15 18.875 L 15 23.59375 C 14.645457 22.84528 14.274478 22.097277 14 21.53125 C 13.892685 21.309947 13.830566 21.145762 13.75 20.96875 C 13.834032 20.895624 13.919357 20.829776 14 20.75 L 14 19.5625 C 13.618 19.4135 13.229 19.25825 12.875 19.03125 C 12.582 19.40725 12.24225 19.713 11.78125 19.875 C 9.66525 20.625 6.187 17.68925 5.25 15.03125 C 4.42 12.67725 5.67625 10.079 8.03125 9.25 C 8.04725 9.244 8.0475 9.255 8.0625 9.25 C 8.1205 8.495 8.3005 7.77375 8.5625 7.09375 C 8.1555 7.15475 7.765 7.238 7.375 7.375 C 5.73 7.955 4.40925 9.14575 3.65625 10.71875 C 2.90325 12.29075 2.796 14.0435 3.375 15.6875 C 4.395 18.5785 7.80825 22 11.03125 22 C 11.345934 22 11.659867 21.944025 11.96875 21.875 C 12.0547 22.044184 12.118131 22.198755 12.21875 22.40625 C 12.554145 23.0979 12.982769 23.99048 13.40625 24.90625 C 13.829731 25.82202 14.228268 26.75373 14.53125 27.53125 C 14.834232 28.30877 15 29.049939 15 29 L 17 29.03125 C 17.057 28.41725 18.196 25.59325 20.375 20.65625 C 20.541957 20.278126 20.556395 20.199219 20.65625 19.96875 C 20.776327 19.97862 20.910505 20 21.03125 20 C 24.26225 20 27.65925 16.534 28.65625 13.625 C 29.22125 11.977 29.10975 10.22125 28.34375 8.65625 C 27.57775 7.09225 26.24175 5.90875 24.59375 5.34375 C 23.86075 5.09275 23.10575 4.982 22.34375 5 C 22.85775 5.641 23.24025 6.37825 23.53125 7.15625 C 23.66325 7.18825 23.8085 7.206 23.9375 7.25 C 26.2965 8.058 27.558 10.641 26.75 13 C 25.869 15.569 22.66225 18.3915 20.53125 17.9375 C 20.204662 18.259397 19.862673 18.555663 19.5 18.8125 C 19.28 18.9695 19.0435 19.122 18.8125 19.25 C 18.773238 19.271842 18.727084 19.291473 18.6875 19.3125 C 18.707223 19.325846 18.730146 19.330753 18.75 19.34375 C 18.68225 19.497322 18.618433 19.646135 18.53125 19.84375 C 17.926136 21.21417 17.433655 22.358079 17 23.375 L 17 18.875 C 18.705687 18.500237 20.119915 17.204731 21.125 15.6875 C 22.317077 13.887994 23.03125 11.732631 23.03125 9.84375 C 23.03125 6.066815 19.870698 3 16.03125 3 z M 16.03125 5 C 18.819802 5 21.03125 7.178685 21.03125 9.84375 C 21.03125 11.176869 20.416923 13.084006 19.4375 14.5625 C 18.458077 16.040994 17.190865 17 16.03125 17 C 14.871635 17 13.604423 16.040994 12.625 14.5625 C 11.645577 13.084006 11.03125 11.176869 11.03125 9.84375 C 11.03125 7.1775125 13.242496 5 16.03125 5 z" overflow="visible" font-family="Sans" fill="#000000"/></svg>
