<?xml version="1.0" encoding="utf-8"?>
<svg xmlns="http://www.w3.org/2000/svg" viewBox="0 0 32 32" fill="#000000"><path d="M 16 3 C 14.171 3 12.537016 3.9861094 11.666016 5.5371094 C 9.9520156 5.0581094 8.1015937 5.5165938 6.8085938 6.8085938 C 5.5155937 8.1015938 5.0561094 9.9530156 5.5371094 11.666016 C 3.9861094 12.538016 3 14.171 3 16 C 3 17.829 3.9861094 19.461984 5.5371094 20.333984 C 5.0561094 22.045984 5.5155937 23.898406 6.8085938 25.191406 C 8.1015937 26.484406 9.9500156 26.941891 11.666016 26.462891 C 12.537016 28.013891 14.171 29 16 29 C 17.829 29 19.462984 28.013891 20.333984 26.462891 C 22.049984 26.941891 23.899406 26.484406 25.191406 25.191406 C 26.484406 23.898406 26.943891 22.046984 26.462891 20.333984 C 28.013891 19.461984 29 17.829 29 16 C 29 14.171 28.013891 12.538016 26.462891 11.666016 C 26.943891 9.9540156 26.484406 8.1015937 25.191406 6.8085938 C 23.898406 5.5165938 22.049984 5.0571094 20.333984 5.5371094 C 19.462984 3.9861094 17.829 3 16 3 z M 16 5 C 17.311 5 18.455609 5.8502344 18.849609 7.1152344 L 19.205078 8.2636719 L 20.269531 7.7050781 C 21.441531 7.0880781 22.851297 7.2956563 23.779297 8.2226562 C 24.706297 9.1486563 24.912875 10.559422 24.296875 11.732422 L 23.736328 12.794922 L 24.884766 13.152344 C 26.149766 13.545344 27 14.69 27 16 C 27 17.31 26.148813 18.454656 24.882812 18.847656 L 23.736328 19.205078 L 24.296875 20.267578 C 24.912875 21.440578 24.704344 22.851344 23.777344 23.777344 C 22.849344 24.704344 21.437578 24.911922 20.267578 24.294922 L 19.203125 23.736328 L 18.847656 24.884766 C 18.454656 26.149766 17.311 27 16 27 C 14.689 27 13.545344 26.149766 13.152344 24.884766 L 12.796875 23.736328 L 11.730469 24.294922 C 10.557469 24.911922 9.1477031 24.704344 8.2207031 23.777344 C 7.2937031 22.851344 7.087125 21.440578 7.703125 20.267578 L 8.2636719 19.205078 L 7.1152344 18.847656 C 5.8502344 18.454656 5 17.31 5 16 C 5 14.69 5.8511875 13.545344 7.1171875 13.152344 L 8.2636719 12.794922 L 7.703125 11.732422 C 7.087125 10.559422 7.2956563 9.1486563 8.2226562 8.2226562 C 9.1496563 7.2956563 10.561422 7.0870781 11.732422 7.7050781 L 12.796875 8.2636719 L 13.152344 7.1152344 C 13.545344 5.8502344 14.689 5 16 5 z M 15.830078 10.005859 C 14.951125 10.043688 14.109938 10.364047 13.429688 10.935547 C 12.521687 11.697547 12 12.815 12 14 L 14 14 C 14 13.408 14.261844 12.848797 14.714844 12.466797 C 15.175844 12.078797 15.760141 11.92625 16.369141 12.03125 C 17.155141 12.16925 17.828797 12.841906 17.966797 13.628906 C 18.164797 14.751906 17.452437 15.617578 16.648438 15.892578 C 15.662437 16.230578 15 17.146828 15 18.173828 L 15 19 L 17 19 L 17 18.173828 C 17 17.999828 17.115875 17.847156 17.296875 17.785156 C 19.171875 17.142156 20.2825 15.249203 19.9375 13.283203 C 19.6545 11.670203 18.329797 10.3455 16.716797 10.0625 C 16.420297 10.01075 16.123062 9.99325 15.830078 10.005859 z M 15 20 L 15 22 L 17 22 L 17 20 L 15 20 z" fill="#000000"/></svg>
