<?xml version="1.0" encoding="utf-8"?>
<svg xmlns="http://www.w3.org/2000/svg" viewBox="0 0 32 32" fill="#000000"><path style="text-indent:0;text-align:start;line-height:normal;text-transform:none;block-progression:tb;-inkscape-font-specification:Bitstream Vera Sans" d="M 21.5 5 C 20.853036 5 20.334678 5.229917 19.8125 5.5 C 19.290322 5.770083 18.769713 6.1064263 18.3125 6.4375 C 17.398074 7.0996474 16.6875 7.75 16.6875 7.75 L 15.875 8.5 L 16.6875 9.25 C 16.6875 9.25 17.398074 9.9003526 18.3125 10.5625 C 18.769713 10.893574 19.290322 11.229917 19.8125 11.5 C 20.334678 11.770083 20.853036 12 21.5 12 C 23.421188 12 25 10.421188 25 8.5 C 25 6.5788117 23.421188 5 21.5 5 z M 21.5 7 C 22.340812 7 23 7.6591883 23 8.5 C 23 9.3408117 22.340812 10 21.5 10 C 21.456464 10 21.102853 9.917417 20.71875 9.71875 C 20.334647 9.520083 19.905912 9.2314263 19.5 8.9375 C 19.204205 8.7233112 19.199185 8.6867224 18.96875 8.5 C 19.199185 8.3132776 19.204205 8.2766888 19.5 8.0625 C 19.905912 7.7685737 20.334647 7.479917 20.71875 7.28125 C 21.102853 7.082583 21.456464 7 21.5 7 z M 14.5 10.4375 C 14.013292 10.48907 13.528358 10.704339 13.1875 11.09375 L 10.4375 14.25 L 10.40625 14.28125 C 9.6783086 15.177696 10.024972 16.587988 11.09375 17.03125 L 15.53125 18.875 L 15.53125 18.90625 L 14.625 23.875 L 16.59375 24.25 L 17.5 19.25 C 17.666889 18.330126 17.173705 17.390416 16.3125 17.03125 L 12.1875 15.3125 L 14.71875 12.40625 L 19.21875 15.78125 L 19.5 16 L 19.8125 16 L 25 16 L 25 14 L 20.1875 14 L 15.90625 10.8125 C 15.491097 10.501632 14.986708 10.385931 14.5 10.4375 z M 8.5 18 C 6.0295455 18 4 20.029545 4 22.5 C 4 24.970455 6.0295455 27 8.5 27 C 10.970455 27 13 24.970455 13 22.5 C 13 20.029545 10.970455 18 8.5 18 z M 23.5 18 C 21.029545 18 19 20.029545 19 22.5 C 19 24.970455 21.029545 27 23.5 27 C 25.970455 27 28 24.970455 28 22.5 C 28 20.029545 25.970455 18 23.5 18 z M 8.5 20 C 9.8795455 20 11 21.120455 11 22.5 C 11 23.879545 9.8795455 25 8.5 25 C 7.1204545 25 6 23.879545 6 22.5 C 6 21.120455 7.1204545 20 8.5 20 z M 23.5 20 C 24.879545 20 26 21.120455 26 22.5 C 26 23.879545 24.879545 25 23.5 25 C 22.120455 25 21 23.879545 21 22.5 C 21 21.120455 22.120455 20 23.5 20 z" overflow="visible" font-family="Bitstream Vera Sans" fill="#000000"/></svg>
