<?xml version="1.0" encoding="utf-8"?>
<svg xmlns="http://www.w3.org/2000/svg" viewBox="0 0 32 32" fill="#000000"><path style="text-indent:0;text-align:start;line-height:normal;text-transform:none;block-progression:tb;-inkscape-font-specification:Bitstream Vera Sans" d="M 16 3.90625 L 15.625 4.0625 L 3.625 9.0625 L 3 9.34375 L 3 10 L 3 25 L 3 26 L 4 26 L 28 26 L 29 26 L 29 25 L 29 10 L 29 9.34375 L 28.375 9.0625 L 16.375 4.0625 L 16 3.90625 z M 16 6.09375 L 27 10.6875 L 27 24 L 5 24 L 5 10.6875 L 16 6.09375 z M 16.03125 9.5625 L 15.375 10.125 C 15.375 10.125 14.159829 11.101956 12.96875 12.53125 C 11.777671 13.960544 10.5 15.858824 10.5 18 C 10.5 19.516667 11.133161 20.821809 12.15625 21.6875 C 13.179339 22.553191 14.55 23 16 23 C 17.45 23 18.820661 22.553191 19.84375 21.6875 C 20.866839 20.821809 21.5 19.516667 21.5 18 C 21.5 16.016525 20.209521 14.191589 19.03125 12.71875 C 17.852979 11.245911 16.6875 10.15625 16.6875 10.15625 L 16.03125 9.5625 z M 15.96875 12.34375 C 16.355175 12.723479 16.724545 13.038494 17.46875 13.96875 C 18.540479 15.308411 19.5 17.033475 19.5 18 C 19.5 18.983333 19.133161 19.678191 18.53125 20.1875 C 18.348198 20.34239 18.137616 20.479717 17.90625 20.59375 C 17.964917 20.406177 18 20.20625 18 20 C 18 17.05 16.4375 15.3125 16.4375 15.3125 C 16.4375 15.3125 16.4875 17.9375 15.6875 17.9375 C 15.1375 17.9375 14.59375 17.09375 14.59375 17.09375 C 14.59375 17.09375 14 18.35 14 20 C 14 20.20625 14.035083 20.406177 14.09375 20.59375 C 13.862384 20.479717 13.651802 20.34239 13.46875 20.1875 C 12.866839 19.678191 12.5 18.983333 12.5 18 C 12.5 16.741176 13.472329 15.083206 14.53125 13.8125 C 15.260747 12.937103 15.585749 12.685975 15.96875 12.34375 z" overflow="visible" font-family="Bitstream Vera Sans" fill="#000000"/></svg>
