<?xml version="1.0" encoding="utf-8"?>
<svg xmlns="http://www.w3.org/2000/svg" viewBox="-8 10 32 32" fill="#000000"><path d="M 4 5 L 4 6.34375 C 2.805 6.91375 2 8.13 2 9.5 C 2 10.925 2.857 12.18075 4.125 12.71875 C 4.548 15.75475 6.04375 18.87475 8.21875 21.21875 C 9.11675 27.09375 12.592 28 16 28 C 19.411 28 22.88825 27.11375 23.78125 21.21875 C 25.92825 18.89475 27.45 15.74475 27.875 12.71875 C 29.143 12.17975 30 10.925 30 9.5 C 30 8.13 29.195 6.91275 28 6.34375 L 28 5 L 26 5 L 26 7.875 L 26.8125 8.03125 C 27.5065 8.17225 28 8.79 28 9.5 C 28 10.222 27.49325 10.83775 26.78125 10.96875 L 26.03125 11.125 L 25.96875 11.875 C 25.80275 13.801 25.08 15.80675 24 17.59375 L 24 17 L 23 17 C 21.638 17 20.909 18.13175 20.375 18.96875 C 20.117 19.37375 19.721 20 19.5 20 C 19.274 20 19.23425 19.966 19.15625 19.75 C 19.03025 19.392 19.03125 18.84 19.03125 18.375 L 19.03125 17.59375 L 18.28125 17.40625 C 18.03225 17.33925 16.75 17 16 17 C 15.25 17 13.96775 17.33825 13.71875 17.40625 L 12.96875 17.65625 L 12.96875 18.40625 C 12.96975 18.75925 12.97575 19.2995 12.84375 19.6875 C 12.73875 19.9975 12.654 20 12.5 20 C 12.278 20 11.884 19.37375 11.625 18.96875 C 11.091 18.13175 10.361 17 9 17 L 8 17 L 8 17.59375 C 6.917 15.80575 6.19825 13.809 6.03125 11.875 L 5.96875 11.09375 L 5.21875 10.96875 C 4.50675 10.83875 4 10.222 4 9.5 C 4 8.79 4.4915 8.17225 5.1875 8.03125 L 6 7.875 L 6 5 L 4 5 z M 11.5 6 C 10.671573 6 10 6.671573 10 7.5 C 10 8.328427 10.671573 9 11.5 9 C 12.328427 9 13 8.328427 13 7.5 C 13 6.671573 12.328427 6 11.5 6 z M 20.5 6 C 19.671573 6 19 6.671573 19 7.5 C 19 8.328427 19.671573 9 20.5 9 C 21.328427 9 22 8.328427 22 7.5 C 22 6.671573 21.328427 6 20.5 6 z M 16 13.96875 C 14.48 13.92975 12.372 14.246 11.5 14.75 L 12.5 16.5 C 12.826 16.312 14.37875 15.96875 15.96875 15.96875 L 16 15.96875 C 17.528 15.97075 19.14225 16.286 19.53125 16.5 L 20.46875 14.75 C 19.57575 14.257 17.503 13.97075 16 13.96875 z" transform="translate(-8 10)" fill="#000000"/></svg>
