<?xml version="1.0" encoding="utf-8"?>
<svg xmlns="http://www.w3.org/2000/svg" viewBox="0 0 32 32" fill="#000000"><path style="text-indent:0;text-align:start;line-height:normal;text-transform:none;block-progression:tb;-inkscape-font-specification:Bitstream Vera Sans" d="M 26 4 C 25.230215 4 24.456537 4.2934635 23.875 4.875 L 14.90625 13.84375 C 14.065535 13.308766 13.075846 13 12 13 A 1.0001 1.0001 0 0 0 11.90625 13 A 1.001098 1.001098 0 0 0 11.78125 13 C 11.729703 12.997977 11.676884 13 11.625 13 C 10.856404 13 10.16681 13.228761 9.65625 13.625 C 9.1456899 14.021239 8.8386917 14.520364 8.59375 15 C 8.1038667 15.959272 7.7675388 16.890638 7.03125 17.6875 C 6.3524429 18.429997 5.5382665 18.80432 4.6875 19.40625 C 3.8367335 20.00818 3 21.072721 3 22.59375 C 3 22.655336 2.9967043 22.720642 3 22.78125 A 1.0001 1.0001 0 0 0 3 23 C 3 23.406746 3.081493 23.777273 3.28125 24.28125 C 3.4810074 24.785227 3.8222679 25.38313 4.3125 25.9375 C 5.2929642 27.046241 6.9742302 28 9.46875 28 C 14.019343 28 18 24.59163 18 19.90625 C 18 19.694111 17.986126 19.49246 17.96875 19.28125 L 28.125 9.125 C 29.288073 7.9619269 29.288073 6.0380731 28.125 4.875 C 27.543463 4.2934635 26.769785 4 26 4 z M 26 5.96875 C 26.259643 5.96875 26.519286 6.0817866 26.71875 6.28125 C 27.117677 6.6801769 27.117677 7.3198231 26.71875 7.71875 L 17.4375 16.96875 C 17.179168 16.333968 16.827551 15.748965 16.40625 15.21875 C 16.401339 15.212569 16.411185 15.193664 16.40625 15.1875 L 25.28125 6.28125 C 25.480714 6.0817866 25.740357 5.96875 26 5.96875 z M 11.625 15 C 12.859904 15 14 15.907999 14 18.09375 C 14 18.591537 13.4243 20.269933 12.25 21.59375 C 11.0757 22.917567 9.4169229 24 7.15625 24 C 6.4514302 24 5.8394882 23.849955 5.5 23.625 C 5.1605118 23.400045 5 23.186285 5 22.59375 C 5 21.647779 5.2175165 21.50557 5.84375 21.0625 C 6.4653491 20.622709 7.5326082 20.07961 8.5 19.03125 C 8.50781 19.02275 8.49226 19.00847 8.5 19 C 9.545363 17.856896 10.001153 16.638305 10.375 15.90625 C 10.563308 15.537511 10.722498 15.305855 10.875 15.1875 C 11.027502 15.069145 11.192096 15 11.625 15 z M 15.90625 18.96875 C 15.960626 19.277085 16 19.598279 16 19.90625 C 16 23.47287 13.042157 26 9.46875 26 C 9.067086 26 8.7022428 25.956296 8.375 25.90625 C 10.690257 25.577239 12.500481 24.346113 13.75 22.9375 C 14.927152 21.610467 15.66288 20.212244 15.90625 18.96875 z" overflow="visible" font-family="Bitstream Vera Sans" fill="#000000"/></svg>
