<?xml version="1.0" encoding="utf-8"?>
<svg xmlns="http://www.w3.org/2000/svg" viewBox="0 0 32 32" fill="#000000"><path style="text-indent:0;text-align:start;line-height:normal;text-transform:none;block-progression:tb;-inkscape-font-specification:Sans" d="M 16 4 C 9.3844277 4 4 9.3844277 4 16 C 4 22.615572 9.3844277 28 16 28 C 22.615572 28 28 22.615572 28 16 C 28 9.3844277 22.615572 4 16 4 z M 16 6 C 18.622621 6 21.000171 7.0123268 22.78125 8.65625 C 23.142557 9.5307563 23.547316 10.812481 23.65625 12.3125 C 23.750573 13.611325 23.607551 15.035966 22.96875 16.4375 C 22.977743 16.292887 23 16.146803 23 16 C 23 14.713299 22.641791 13.506866 22.03125 12.46875 C 21.140669 9.3895339 19.109515 7.601457 17.09375 6.625 C 16.584901 6.3785083 16.084338 6.1902237 15.59375 6.03125 C 15.728805 6.0258764 15.863595 6 16 6 z M 12.96875 6.46875 C 13.914432 6.585328 15.260067 6.8549251 16.65625 7.53125 C 17.816068 8.0930773 18.955553 8.9238437 19.84375 10.15625 C 18.738016 9.4242278 17.419864 9 16 9 C 15.947733 9 15.895751 8.998849 15.84375 9 C 14.851143 8.7688098 13.905293 8.6909563 13.03125 8.75 C 11.209597 8.873057 9.6731815 9.5367217 8.4375 10.375 C 7.9339015 10.716638 7.4996352 11.098523 7.09375 11.46875 C 8.2935821 9.1016166 10.401508 7.2843687 12.96875 6.46875 z M 12.875 9.75 C 11.591252 10.394041 10.529292 11.397355 9.84375 12.65625 C 7.7150101 14.941966 7.1841571 17.55241 7.34375 19.75 C 7.3856472 20.326923 7.4831792 20.862507 7.59375 21.375 C 6.6024187 19.822151 6 17.984205 6 16 C 6 15.283763 6.0765519 14.579311 6.21875 13.90625 C 6.7925783 13.138431 7.6881807 12.07743 9 11.1875 C 10.070372 10.461366 11.357757 9.8948769 12.875 9.75 z M 24.40625 10.625 C 25.397581 12.177849 26 14.015795 26 16 C 26 16.716237 25.923448 17.420689 25.78125 18.09375 C 25.207422 18.861569 24.311819 19.92257 23 20.8125 C 21.929628 21.538634 20.642243 22.105123 19.125 22.25 C 20.361025 21.629901 21.375787 20.664082 22.0625 19.46875 C 22.08298 19.447405 22.104807 19.427654 22.125 19.40625 C 22.136615 19.385431 22.144842 19.364698 22.15625 19.34375 C 24.28499 17.058034 24.815842 14.44759 24.65625 12.25 C 24.614353 11.673077 24.516821 11.137493 24.40625 10.625 z M 16 11 C 18.773268 11 21 13.226732 21 16 C 21 18.773268 18.773268 21 16 21 C 13.226732 21 11 18.773268 11 16 C 11 13.226732 13.226732 11 16 11 z M 15.375 12.03125 L 15.3125 12.5 C 15.3115 12.508 15.32875 12.494 15.34375 12.5 L 15.34375 12.5625 C 15.32775 12.5655 15.3135 12.5555 15.3125 12.5625 L 15.28125 12.75 C 15.24725 12.754 15.23475 12.7815 15.21875 12.8125 C 15.19775 12.8545 15.15625 12.935 15.15625 13 C 15.15625 13.201 15.17075 13.40625 15.34375 13.40625 C 15.41275 13.40625 15.473 13.36975 15.5 13.34375 C 15.5 13.38975 15.48375 13.48625 15.46875 13.53125 C 15.43075 13.58825 15.3755 13.627 15.3125 13.625 C 15.1515 13.62 15.14825 13.48525 15.15625 13.40625 C 15.15625 13.40625 15.10375 13.40875 15.09375 13.46875 C 15.05075 13.73775 14.9375 14.40375 14.9375 14.71875 C 14.9375 14.91775 15.10625 15.03125 15.15625 15.03125 C 15.22625 15.03125 15.28125 15.03125 15.28125 15.03125 L 15.03125 19.5 C 15.03125 19.5 15.115 19.75 15.25 19.75 C 15.443 19.75 15.5625 19.53125 15.5625 19.53125 C 15.5625 19.53125 15.97 16.788 16 16.5 C 15.987 17.075 16.174 17.37875 16.125 17.59375 C 16.076 17.80875 16.1335 19.17425 16.1875 19.53125 C 16.1875 19.53125 16.55525 19.58475 16.65625 19.59375 C 16.97425 19.62275 17.21875 19.567 17.21875 19.5 C 17.21675 19.404 16.96275 19.4305 16.71875 19.1875 L 16.6875 14.9375 C 16.6875 14.9375 16.82025 14.8725 16.90625 14.8125 C 16.95925 14.7755 16.97275 14.67775 16.96875 14.59375 C 16.96675 14.55575 16.8235 13.695 16.8125 13.625 C 16.8005 13.545 16.759 13.46725 16.625 13.40625 C 16.563 13.37825 16.25 13.25 16.25 13.25 L 16.21875 13.15625 L 16.15625 13.15625 L 16.15625 13.0625 C 16.24125 12.9865 16.25 12.78125 16.25 12.78125 C 16.288 12.74125 16.3005 12.692 16.3125 12.625 C 16.3195 12.585 16.3125 12.5625 16.3125 12.5625 C 16.3345 12.3965 16.33075 12.151 16.09375 12.125 C 16.09375 12.125 16.10875 12.0725 16.09375 12.0625 C 15.60175 11.9985 15.64325 12.3975 15.65625 12.5625 C 15.65625 12.5625 15.625 12.57875 15.625 12.59375 C 15.625 12.63875 15.6115 12.7675 15.6875 12.8125 L 15.71875 13.09375 C 15.84275 13.15475 15.875 13.1875 15.875 13.1875 L 15.84375 13.21875 L 15.9375 13.40625 L 16.09375 13.28125 C 16.09375 13.28125 16.182 13.32275 16.25 13.34375 C 16.326 13.64675 16.271 14.14775 16.25 14.34375 C 16.206 13.99475 15.8045 13.159 15.6875 13.125 C 15.6875 13.125 15.61025 13.17675 15.53125 13.21875 C 15.58425 13.02175 15.527 12.9715 15.5 12.9375 C 15.481 12.9145 15.45225 12.893 15.40625 12.875 L 15.40625 12.84375 C 15.40625 12.84375 15.45875 12.84575 15.46875 12.84375 C 15.53775 12.82975 15.52675 12.748 15.46875 12.75 C 15.45275 12.751 15.4395 12.75 15.4375 12.75 L 15.4375 12.59375 C 15.4385 12.58575 15.4525 12.5685 15.4375 12.5625 L 15.4375 12.53125 C 15.4535 12.52825 15.46775 12.507 15.46875 12.5 L 15.5 12.0625 C 15.501 12.0495 15.4745 12.03525 15.4375 12.03125 C 15.4005 12.02725 15.376 12.01825 15.375 12.03125 z M 15 12.8125 C 14.985 12.8215 14.991 12.853 15 12.875 C 15.009 12.897 15.0475 12.91525 15.0625 12.90625 C 15.0775 12.89725 15.0715 12.86575 15.0625 12.84375 C 15.0535 12.82175 15.015 12.8035 15 12.8125 z M 16.40625 13.75 C 16.42125 13.75 16.625 13.778 16.625 13.875 C 16.583 13.871 16.45725 13.86275 16.40625 13.84375 L 16.40625 13.75 z M 15.625 14.625 L 15.75 14.625 C 15.798 14.707 15.82425 14.83275 15.78125 14.96875 L 15.6875 14.96875 C 15.6735 14.96175 15.66325 14.9545 15.65625 14.9375 C 15.705422 14.864534 15.656797 14.766842 15.625 14.6875 C 15.641 14.6855 15.65525 14.67825 15.65625 14.65625 C 15.65725 14.63425 15.64 14.623 15.625 14.625 z M 9.03125 15.5625 C 9.0222566 15.707113 9 15.853197 9 16 C 9 17.296444 9.3496245 18.519117 9.96875 19.5625 C 10.863655 22.624095 12.896784 24.401594 14.90625 25.375 C 15.415099 25.621492 15.915662 25.809776 16.40625 25.96875 C 16.271195 25.974124 16.136405 26 16 26 C 13.377379 26 10.999829 24.987673 9.21875 23.34375 C 8.8574429 22.469244 8.452684 21.187519 8.34375 19.6875 C 8.249427 18.388675 8.3924492 16.964034 9.03125 15.5625 z M 24.90625 20.53125 C 23.706418 22.898383 21.598492 24.715631 19.03125 25.53125 C 18.085568 25.414673 16.739933 25.145077 15.34375 24.46875 C 14.183932 23.906923 13.044447 23.076156 12.15625 21.84375 C 13.261984 22.575772 14.580136 23 16 23 C 16.052267 23 16.104249 23.001151 16.15625 23 C 19.209129 23.713252 21.733929 22.865491 23.5625 21.625 C 24.066098 21.283362 24.500365 20.901477 24.90625 20.53125 z" overflow="visible" font-family="Sans" fill="#000000"/></svg>
