<?xml version="1.0" encoding="utf-8"?>
<svg xmlns="http://www.w3.org/2000/svg" viewBox="0 0 32 32" fill="#000000"><path style="text-indent:0;text-align:start;line-height:normal;text-transform:none;block-progression:tb;-inkscape-font-specification:Bitstream Vera Sans" d="M 12 4 L 12 6 L 13 6 L 13 11 L 13 11.625 L 13.5625 11.90625 L 17 13.625 L 17 15 L 8 15 L 7 15 L 7 16 L 7 20 L 7 21 L 8 21 C 8.3686339 21 8.4499113 21.05231 8.46875 21.0625 C 8.4699566 21.091596 8.4786714 21.144923 8.46875 21.25 C 8.4224464 21.740364 8 22.649056 8 23.71875 C 8 25.176193 8.5 27.21875 8.5 27.21875 L 8.6875 28 L 9.46875 28 C 10.08775 28 11.045788 28.03082 11.96875 27.78125 C 12.430231 27.656468 12.904277 27.448475 13.3125 27.0625 C 13.720723 26.676525 14 26.072771 14 25.4375 C 14 24.505629 13.585671 23.800382 13.34375 23.4375 C 13.101829 23.074618 13 23.011384 13 22.46875 C 13 21.715963 13.265257 21.267634 13.46875 21 L 15.0625 21 C 15.431885 23.879778 17.28125 25.71875 17.28125 25.71875 L 18.71875 24.28125 C 18.71875 24.28125 17.448202 22.986249 17.09375 21 L 25 21 L 25 22 L 27 22 L 27 21 L 27 20 L 27 16 L 27 15 L 27 14 L 25 14 L 25 15 L 19 15 L 19 13.625 L 22.4375 11.90625 L 23 11.625 L 23 11 L 23 6 L 24 6 L 24 4 L 23 4 L 13 4 L 12 4 z M 15 6 L 21 6 L 21 10.375 L 18 11.875 L 15 10.375 L 15 6 z M 4 16 L 4 20 L 6 20 L 6 16 L 4 16 z M 9 17 L 25 17 L 25 19 L 13 19 L 12.59375 19 L 12.3125 19.28125 C 12.3125 19.28125 11 20.508017 11 22.46875 C 11 23.449116 11.398171 24.175382 11.65625 24.5625 C 11.914329 24.949618 12 24.988371 12 25.4375 C 12 25.587729 11.9966 25.569131 11.9375 25.625 C 11.87841 25.68087 11.702269 25.772157 11.4375 25.84375 C 11.134812 25.9256 10.712282 25.91729 10.3125 25.9375 C 10.181995 25.267583 10 24.388394 10 23.71875 C 10 23.407444 10.372304 22.458886 10.46875 21.4375 C 10.516973 20.926807 10.475381 20.251885 10 19.71875 C 9.7354997 19.422115 9.3859896 19.234858 9 19.125 L 9 17 z" fill="#000000"/></svg>
