<?xml version="1.0" encoding="utf-8"?>
<svg xmlns="http://www.w3.org/2000/svg" viewBox="0 0 32 32" fill="#000000"><path style="text-indent:0;text-align:start;line-height:normal;text-transform:none;block-progression:tb;-inkscape-font-specification:Bitstream Vera Sans" d="M 6 4 L 6 5 L 6 11.40625 C 5.3895801 12.109152 5 13.003294 5 14 C 5 15.114227 5.4752606 16.116062 6.21875 16.84375 C 4.88816 17.744728 4 19.281553 4 21 L 6 21 C 6 19.331516 7.3315161 18 9 18 C 10.668484 18 12 19.331516 12 21 L 14 21 C 14 20.287355 13.834374 19.615099 13.5625 19 L 26 19 L 28 19 L 28 17 L 26 17 L 26 5 L 26 4 L 25 4 L 7 4 L 6 4 z M 8 6 L 24 6 L 24 17 L 12 17 C 11.929721 16.946836 11.854323 16.89323 11.78125 16.84375 C 12.524739 16.116062 13 15.114227 13 14 C 13 11.802706 11.197294 10 9 10 C 8.6559037 10 8.3193351 10.07324 8 10.15625 L 8 6 z M 9 12 C 10.116414 12 11 12.883586 11 14 C 11 15.116414 10.116414 16 9 16 C 7.883586 16 7 15.116414 7 14 C 7 12.883586 7.883586 12 9 12 z M 8 22 C 6.3549901 22 5 23.354991 5 25 C 5 26.645009 6.3549901 28 8 28 C 8.7668649 28 9.4670814 27.699793 10 27.21875 C 10.532919 27.699792 11.233135 28 12 28 C 12.766865 28 13.467081 27.699792 14 27.21875 C 14.532919 27.699792 15.233135 28 16 28 C 16.766865 28 17.467081 27.699792 18 27.21875 C 18.532919 27.699792 19.233135 28 20 28 C 20.766865 28 21.467081 27.699792 22 27.21875 C 22.532919 27.699792 23.233135 28 24 28 C 25.64501 28 27 26.64501 27 25 C 27 23.35499 25.64501 22 24 22 C 23.233135 22 22.532919 22.300208 22 22.78125 C 21.467081 22.300208 20.766865 22 20 22 C 19.233135 22 18.532919 22.300208 18 22.78125 C 17.467081 22.300208 16.766865 22 16 22 C 15.233135 22 14.532919 22.300208 14 22.78125 C 13.467081 22.300208 12.766865 22 12 22 C 11.233135 22 10.532919 22.300208 10 22.78125 C 9.4670814 22.300207 8.7668649 22 8 22 z M 8 24 C 8.5641291 24 9 24.435871 9 25 C 9 25.564129 8.5641291 26 8 26 C 7.4358709 26 7 25.564129 7 25 C 7 24.435871 7.4358709 24 8 24 z M 12 24 C 12.564128 24 13 24.435872 13 25 C 13 25.564128 12.564128 26 12 26 C 11.435872 26 11 25.564128 11 25 C 11 24.435872 11.435872 24 12 24 z M 16 24 C 16.564128 24 17 24.435872 17 25 C 17 25.564128 16.564128 26 16 26 C 15.435872 26 15 25.564128 15 25 C 15 24.435872 15.435872 24 16 24 z M 20 24 C 20.564128 24 21 24.435872 21 25 C 21 25.564128 20.564128 26 20 26 C 19.435872 26 19 25.564128 19 25 C 19 24.435872 19.435872 24 20 24 z M 24 24 C 24.564128 24 25 24.435872 25 25 C 25 25.564128 24.564128 26 24 26 C 23.435872 26 23 25.564128 23 25 C 23 24.435872 23.435872 24 24 24 z" fill="#000000"/></svg>
