<?xml version="1.0" encoding="utf-8"?>
<svg xmlns="http://www.w3.org/2000/svg" viewBox="0 0 32 32" fill="#000000"><path style="line-height:normal;text-indent:0;text-align:start;text-decoration-line:none;text-decoration-style:solid;text-decoration-color:#000;text-transform:none;block-progression:tb;isolation:auto;mix-blend-mode:normal" d="M 28 3.0253906 L 26.408203 4.1933594 C 26.408203 4.1933594 24.429054 5.6467305 21.572266 7.109375 C 18.715477 8.5720195 14.998984 10 11.728516 10 L 2 10 L 2 19.140625 L 4.2460938 27 L 10.326172 27 L 8.3261719 20 L 11.728516 20 C 13.300764 20 14.989296 20.346431 16.642578 20.865234 C 16.641772 20.867117 16.64143 20.869211 16.640625 20.871094 C 16.574787 21.025126 16.521095 21.184983 16.464844 21.34375 C 16.432323 21.43543 16.392522 21.524025 16.363281 21.617188 C 16.362479 21.619748 16.362128 21.622439 16.361328 21.625 C 16.284382 21.871027 16.219151 22.121494 16.166016 22.376953 C 16.057269 22.901266 16 23.444247 16 24 C 16 28.406433 19.593567 32 24 32 C 24.275402 32 24.548034 31.98638 24.816406 31.958984 C 26.695015 31.767213 28.384297 30.92039 29.652344 29.652344 C 31.10154 28.203148 32 26.203216 32 24 C 32 23.645559 31.972941 23.297392 31.927734 22.955078 C 31.912589 22.840198 31.885247 22.730484 31.865234 22.617188 C 31.826726 22.399381 31.788329 22.182092 31.732422 21.970703 C 31.696379 21.834372 31.648478 21.703707 31.605469 21.570312 C 31.543567 21.378308 31.480095 21.18737 31.404297 21.001953 C 31.354899 20.88112 31.299222 20.7643 31.244141 20.646484 C 31.158751 20.463785 31.069214 20.284314 30.970703 20.109375 C 30.9018 19.987029 30.828964 19.868282 30.753906 19.75 C 30.653475 19.59167 30.548477 19.437719 30.4375 19.287109 C 30.354394 19.174372 30.270405 19.063228 30.181641 18.955078 C 30.054792 18.800412 29.921042 18.652578 29.783203 18.507812 C 29.695703 18.415978 29.609298 18.323963 29.517578 18.236328 C 29.36867 18.093904 29.212173 17.960872 29.052734 17.830078 C 28.956143 17.750946 28.861969 17.670364 28.761719 17.595703 C 28.720816 17.56519 28.684071 17.52975 28.642578 17.5 C 29.4565 16.960919 30 16.03987 30 15 C 30 13.706873 29.157321 12.604868 28 12.1875 L 28 3.0253906 z M 26 6.7675781 L 26 12 L 26 13 L 26 16.263672 C 25.359444 16.097511 24.691308 16 24 16 C 23.69615 16 23.396771 16.019472 23.101562 16.052734 C 23.02843 16.061022 22.95729 16.07567 22.884766 16.085938 C 22.658504 16.117795 22.434709 16.156544 22.214844 16.207031 C 22.13449 16.22557 22.055977 16.248571 21.976562 16.269531 C 21.780172 16.321115 21.586746 16.37942 21.396484 16.445312 C 21.30376 16.477575 21.212244 16.511312 21.121094 16.546875 C 20.925636 16.622774 20.734617 16.706376 20.546875 16.796875 C 20.484425 16.827112 20.420916 16.854914 20.359375 16.886719 C 20.123915 17.007869 19.897059 17.140093 19.675781 17.283203 C 19.661827 17.292259 19.646707 17.299453 19.632812 17.308594 C 18.883086 17.800113 18.223012 18.415562 17.675781 19.123047 C 17.675781 19.123047 17.673828 19.125 17.673828 19.125 C 15.840984 18.510809 13.917332 18.056479 12 18.015625 L 12 11.986328 C 15.746567 11.914821 19.552458 10.391735 22.484375 8.890625 C 24.55131 7.8323767 25.17754 7.3272017 26 6.7675781 z M 4 12 L 10 12 L 10 18 L 8 18 L 5.6738281 18 L 4 18 L 4 12 z M 24 18 C 24.223365 18 24.443549 18.012776 24.660156 18.037109 C 24.695113 18.040901 24.728902 18.04835 24.763672 18.052734 C 24.774866 18.054146 24.7857 18.057121 24.796875 18.058594 C 24.976958 18.082881 25.155424 18.111929 25.330078 18.152344 C 25.331313 18.152621 25.334703 18.152065 25.335938 18.152344 C 25.337948 18.152798 25.339787 18.153841 25.341797 18.154297 C 25.343722 18.155045 25.345647 18.155792 25.347656 18.15625 C 25.772849 18.256013 26.181825 18.401084 26.570312 18.585938 L 26.892578 18.738281 C 26.901626 18.743245 26.90895 18.750851 26.917969 18.755859 C 27.119849 18.867968 27.313417 18.993095 27.5 19.126953 C 27.541914 19.157041 27.583911 19.187615 27.625 19.21875 C 27.797131 19.349134 27.962348 19.486895 28.119141 19.634766 C 28.137272 19.651871 28.155913 19.668218 28.173828 19.685547 C 28.348426 19.854372 28.513004 20.033717 28.666016 20.222656 C 28.696618 20.260483 28.724216 20.301259 28.753906 20.339844 C 28.869764 20.490282 28.978709 20.647232 29.080078 20.808594 C 29.11769 20.868526 29.153929 20.928887 29.189453 20.990234 C 29.285137 21.155307 29.371269 21.325321 29.451172 21.5 C 29.471645 21.544789 29.496228 21.587432 29.515625 21.632812 C 29.607758 21.848274 29.687092 22.071054 29.753906 22.298828 C 29.772327 22.361696 29.786325 22.426514 29.802734 22.490234 C 29.847939 22.665616 29.884618 22.844048 29.914062 23.025391 C 29.926687 23.103204 29.939594 23.180956 29.949219 23.259766 C 29.978886 23.502677 30 23.748754 30 24 C 30 25.247082 29.624004 26.402116 28.978516 27.359375 C 28.010283 28.795264 26.435631 29.785149 24.615234 29.96875 C 24.412968 29.98915 24.207847 30 24 30 C 20.674447 30 18 27.325553 18 24 C 18 23.760078 18.01777 23.525355 18.044922 23.292969 C 18.052123 23.231137 18.063216 23.170605 18.072266 23.109375 C 18.098062 22.935365 18.129623 22.762456 18.169922 22.59375 C 18.185888 22.526808 18.204481 22.460565 18.222656 22.394531 C 18.266767 22.234517 18.318342 22.078101 18.375 21.923828 C 18.397459 21.862629 18.417035 21.800466 18.441406 21.740234 C 18.525376 21.532827 18.617043 21.329736 18.722656 21.134766 C 18.729657 21.121842 18.739001 21.110521 18.746094 21.097656 L 18.921875 20.816406 C 19.452977 19.970847 20.184536 19.266148 21.052734 18.773438 C 21.268522 18.650976 21.493052 18.542536 21.724609 18.447266 C 21.730315 18.444938 21.736473 18.443717 21.742188 18.441406 C 21.949693 18.356789 22.164241 18.285773 22.382812 18.224609 C 22.382812 18.224609 22.384766 18.224609 22.384766 18.224609 C 22.422839 18.214062 22.461493 18.204885 22.5 18.195312 C 22.512386 18.192145 22.524692 18.188638 22.537109 18.185547 C 22.711452 18.141758 22.890088 18.106232 23.070312 18.078125 C 23.070312 18.078125 23.072266 18.078125 23.072266 18.078125 C 23.144466 18.066994 23.216018 18.053476 23.289062 18.044922 C 23.291635 18.044621 23.294301 18.04522 23.296875 18.044922 C 23.527893 18.017839 23.761287 18 24 18 z M 4.3261719 20 L 6.2460938 20 L 7.6738281 25 L 5.7539062 25 L 4.3261719 20 z M 21.707031 20.292969 L 20.292969 21.707031 L 22.585938 24 L 20.292969 26.292969 L 21.707031 27.707031 L 24 25.414062 L 26.292969 27.707031 L 27.707031 26.292969 L 25.414062 24 L 27.707031 21.707031 L 26.292969 20.292969 L 24 22.585938 L 21.707031 20.292969 z" fill="#000000"/></svg>
