<?xml version="1.0" encoding="utf-8"?>
<svg xmlns="http://www.w3.org/2000/svg" viewBox="0 0 32 32" fill="#000000"><path d="M 14.5 6 C 13.119288 6 12 7.1192881 12 8.5 C 12 9.8807119 13.119288 11 14.5 11 C 15.880712 11 17 9.8807119 17 8.5 C 17 7.1192881 15.880712 6 14.5 6 z M 21 6 C 19.343145 6 18 7.3431458 18 9 C 18 10.656854 19.343145 12 21 12 C 22.656854 12 24 10.656854 24 9 C 24 7.3431458 22.656854 6 21 6 z M 9 7 C 7.8954305 7 7 7.8954305 7 9 C 7 10.104569 7.8954305 11 9 11 C 10.104569 11 11 10.104569 11 9 C 11 7.8954305 10.104569 7 9 7 z M 9 12 C 6.562 12 6 14.27125 6 14.78125 L 6 20 L 11.03125 20 L 11.03125 23 L 16 23 L 16 27 L 26 27 C 25.998 27 26 19.6745 26 18.1875 C 26 16.5565 24.476 13.71875 21.375 13.71875 C 19.238 13.71875 18.35025 14.38625 17.65625 14.90625 C 17.01125 13.78525 15.66275 12.90625 14.46875 12.90625 C 13.27475 12.90625 12.41025 13.279 11.65625 14 C 11.49825 13.45 10.719 12 9 12 z" fill="#000000"/></svg>
