<?xml version="1.0" encoding="utf-8"?>
<svg xmlns="http://www.w3.org/2000/svg" viewBox="0 0 32 32" fill="#000000"><path style="text-indent:0;text-align:start;line-height:normal;text-transform:none;block-progression:tb;-inkscape-font-specification:Bitstream Vera Sans" d="M 15 3 L 15 5.03125 C 10.606297 5.4254198 6.9678137 8.432205 5.59375 12.46875 L 8.53125 11 C 9.9724678 8.8488755 12.300348 7.3615723 15 7.0625 L 15 9 L 17 9 L 17 7.0625 C 21.153563 7.5308335 24.469273 10.847072 24.9375 15 L 23 15 L 23 17 L 24.9375 17 C 24.469273 21.152928 21.153563 24.469166 17 24.9375 L 17 23 L 15 23 L 15 24.9375 C 12.300348 24.638428 9.9724678 23.151125 8.53125 21 L 5.59375 19.53125 C 6.9678137 23.567795 10.606297 26.57458 15 26.96875 L 15 29 L 17 29 L 17 26.9375 C 22.268763 26.460375 26.460375 22.268763 26.9375 17 L 29 17 L 29 15 L 26.9375 15 C 26.460375 9.7312371 22.268763 5.5396249 17 5.0625 L 17 3 L 15 3 z M 9 13 L 3 16 L 9 19 L 8 16 L 9 13 z" overflow="visible" font-family="Bitstream Vera Sans" fill="#000000"/></svg>
