<?xml version="1.0" encoding="utf-8"?>
<svg xmlns="http://www.w3.org/2000/svg" viewBox="0 0 32 32" fill="#000000"><path d="M 22.34375 2.875 L 19.71875 7.125 L 21.0625 3.6875 L 19.21875 2.9375 L 16.875 8.9375 L 18.5 9.5625 L 20 10.46875 L 24.03125 3.9375 L 22.34375 2.875 z M 16.5 4.46875 C 16.338 4.63075 15.86775 4.91125 14.46875 5.03125 L 14.34375 5.03125 C 12.206261 5.2489908 10.237833 6.0526845 8.625 7.25 C 8.5968617 6.518316 8.4473445 5.7792543 8.09375 5.09375 L 6.3125 6.03125 C 6.8493545 7.0720355 6.4869304 9.1649339 5.84375 10.25 C 4.6796172 12.054023 4 14.198046 4 16.5 C 4 22.844 9.156 28 15.5 28 C 17.945091 28 20.227893 27.242857 22.09375 25.9375 C 22.849639 25.412377 25.075988 25 26.375 25 L 26.375 23 C 25.939177 23 25.44347 23.046478 24.9375 23.09375 C 25.771045 21.902157 26.38398 20.52372 26.71875 19.0625 L 26.78125 19.0625 C 27.252254 17.092147 28.371823 16.451292 29.09375 16.15625 L 28.34375 14.3125 C 27.940973 14.477109 27.417868 14.741347 26.90625 15.15625 C 26.697192 13.337454 26.089367 11.619151 25.0625 10.09375 C 24.2105 8.82775 23.90725 7.8215 23.90625 7.8125 L 22.65625 9.71875 C 22.85125 10.18375 22.99625 10.5785 23.40625 11.1875 C 23.573406 11.435692 23.73313 11.70782 23.875 11.96875 L 23.34375 11.96875 L 23.03125 11.9375 L 22.78125 12.125 L 20.78125 13.46875 L 21.875 15.125 L 23.59375 13.96875 L 24.65625 14 C 24.875499 14.807812 25 15.645913 25 16.5 C 25 21.742 20.741 26 15.5 26 C 10.259 26 6 21.742 6 16.5 C 6 11.603 9.666 7.53425 14.625 7.03125 C 14.964 7.00225 15.351 6.953 15.75 6.875 L 16.5 4.46875 z M 11.90625 10 L 11.15625 11.84375 L 13.375 12.75 L 14.28125 14.5 L 16.0625 13.5625 L 14.9375 11.46875 L 14.78125 11.15625 L 14.4375 11 L 11.90625 10 z M 9.03125 16 L 8.3125 17.84375 L 10.34375 18.6875 L 11 20.40625 L 12.875 19.71875 L 12.0625 17.5625 L 11.90625 17.125 L 11.5 16.96875 L 9.03125 16 z M 19.21875 18.59375 L 18.75 18.65625 L 16.0625 19.125 L 16.375 21.09375 L 18.625 20.71875 L 20.5 22.375 L 21.8125 20.875 L 19.59375 18.90625 L 19.21875 18.59375 z" fill="#000000"/></svg>
