<?xml version="1.0" encoding="utf-8"?>
<svg xmlns="http://www.w3.org/2000/svg" viewBox="0 0 32 32" fill="#000000"><path d="M 16 4 C 9.383 4 4 9.383 4 16 C 4 20.864 6.92475 25.0555 11.09375 26.9375 L 11.59375 24.96875 C 8.27975 23.33875 6 19.936 6 16 C 6 10.486 10.486 6 16 6 C 21.514 6 26 10.486 26 16 C 26 19.936 23.72125 23.33875 20.40625 24.96875 L 20.90625 26.9375 C 25.07625 25.0555 28 20.864 28 16 C 28 9.383 22.617 4 16 4 z M 16 9 C 12.141 9 9 12.141 9 16 C 9 18.542 10.37225 20.774 12.40625 22 L 12.9375 19.9375 C 11.7605 19.0225 11 17.604 11 16 C 11 13.243 13.243 11 16 11 C 18.757 11 21 13.243 21 16 C 21 17.604 20.2395 19.0215 19.0625 19.9375 L 19.59375 22 C 21.62775 20.773 23 18.542 23 16 C 23 12.141 19.859 9 16 9 z M 16 14 C 14.895431 14 14 14.895431 14 16 C 14 16.739604 14.403104 17.372707 15 17.71875 L 15 28 L 17 28 L 17 17.71875 C 17.596896 17.372707 18 16.739604 18 16 C 18 14.895431 17.104569 14 16 14 z" fill="#000000"/></svg>
