<?xml version="1.0" encoding="utf-8"?>
<svg xmlns="http://www.w3.org/2000/svg" viewBox="0 0 32 32" fill="#000000"><path style="text-indent:0;text-align:start;line-height:normal;text-transform:none;block-progression:tb;-inkscape-font-specification:Sans" d="M 12 3 C 12 4.5 10.7115 6.12425 9.1875 8.15625 C 7.6635 10.18825 6 12.666667 6 16 C 6 20.427412 8.866171 24.18006 12.84375 25.5 C 12.618263 26.250053 12 28 12 28 L 14 27 L 14 29 L 16 27 L 18 29 L 18 27 L 20 28 L 19.15625 25.5 C 23.133829 24.18006 26 20.427412 26 16 C 26 12.666667 24.3365 10.18825 22.8125 8.15625 C 21.2885 6.12425 20 4.5 20 3 L 18 3 C 18 5.5 19.7115 7.37575 21.1875 9.34375 C 22.6635 11.31175 24 13.333333 24 16 C 24 20.466667 20.466667 24 16 24 C 11.533333 24 8 20.466667 8 16 C 8 13.333333 9.3365 11.31175 10.8125 9.34375 C 12.2885 7.37575 14 5.5 14 3 L 12 3 z M 16.03125 6.03125 L 15.1875 7.15625 C 14.336167 8.2913611 13.103694 9.6471194 12.03125 11.125 C 10.958806 12.602881 10 14.219048 10 16 C 10 19.32381 12.67619 22 16 22 C 19.32381 22 22 19.32381 22 16 C 22 14.195238 21.000506 12.578812 19.90625 11.09375 C 18.811994 9.608688 17.545088 8.2405948 16.8125 7.1875 L 16.03125 6.03125 z M 16 9.34375 C 16.755039 10.300039 17.537899 11.272417 18.28125 12.28125 C 19.286994 13.646188 20 15.004762 20 16 C 20 18.27619 18.27619 20 16 20 C 13.72381 20 12 18.27619 12 16 C 12 14.980952 12.647444 13.659619 13.625 12.3125 C 14.355118 11.306362 15.207968 10.31653 16 9.34375 z M 16 12.59375 C 15.3 13.49375 14 14.9 14 16 C 14 17.1 14.9 18 16 18 C 17.1 18 18 17.1 18 16 C 18 14.9 16.6 13.39375 16 12.59375 z" overflow="visible" font-family="Sans" fill="#000000"/></svg>
