<?xml version="1.0" encoding="utf-8"?>
<svg xmlns="http://www.w3.org/2000/svg" viewBox="0 0 32 32" fill="#000000"><path style="text-indent:0;text-align:start;line-height:normal;text-transform:none;block-progression:tb;-inkscape-font-specification:Sans" d="M 16 3 C 15.447715 3 15 3.4477153 15 4 C 15 4.1776457 15.075026 4.324162 15.15625 4.46875 L 12.59375 7.875 L 9.25 7.03125 L 9 6.96875 C 8.9829161 6.4314441 8.5414556 6 8 6 C 7.4477153 6 7 6.4477153 7 7 C 7 7.5414556 7.4314441 7.9829161 7.96875 8 L 8.03125 8.25 L 8.90625 11.75 C 8.0699353 12.717389 6 15.52311 6 20 L 6 21 L 7 21 L 8.875 21 C 7.0999576 22.805938 6 25.275583 6 28 L 8 28 C 8 23.569334 11.569334 20 16 20 C 20.430666 20 24 23.569334 24 28 L 26 28 C 26 25.275583 24.900042 22.805938 23.125 21 L 25 21 L 26 21 L 26 20 C 26 15.52311 23.930065 12.717389 23.09375 11.75 L 23.96875 8.25 L 24.03125 8 C 24.568556 7.9829161 25 7.5414556 25 7 C 25 6.4477153 24.552285 6 24 6 C 23.458544 6 23.017084 6.4314441 23 6.96875 L 22.75 7.03125 L 19.40625 7.875 L 16.84375 4.46875 C 16.924974 4.324162 17 4.1776457 17 4 C 17 3.4477153 16.552285 3 16 3 z M 16 6.6875 L 18.1875 9.59375 L 18.59375 10.125 L 19.25 9.96875 L 21.625 9.375 L 21.21875 11 L 10.78125 11 L 10.375 9.375 L 12.75 9.96875 L 13.40625 10.125 L 13.8125 9.59375 L 16 6.6875 z M 11 13 L 21 13 C 21 15.773666 18.773666 18 16 18 C 13.226334 18 11 15.773666 11 13 z M 9.28125 14.875 C 9.7357355 16.487364 10.737583 17.894831 12.09375 18.8125 C 11.965924 18.86732 11.843786 18.940064 11.71875 19 L 8.125 19 C 8.2782632 17.27014 8.7732054 15.906199 9.28125 14.875 z M 22.71875 14.875 C 23.226795 15.906199 23.721737 17.27014 23.875 19 L 20.28125 19 C 20.156214 18.940064 20.034076 18.86732 19.90625 18.8125 C 21.262417 17.894831 22.264264 16.487364 22.71875 14.875 z" overflow="visible" font-family="Sans" fill="#000000"/></svg>
