<?xml version="1.0" encoding="utf-8"?>
<svg xmlns="http://www.w3.org/2000/svg" viewBox="0 0 32 32" fill="#000000"><path d="M 16 3 L 5 6 L 5 8 L 16 5 L 27 8 L 27 6 L 16 3 z M 14 7 C 12.74133 7 11.848273 7.8904725 11.40625 9 L 11 9 C 8.2504839 9 6 11.250484 6 14 L 6 23 C 6 25.157417 7.1552279 27.0673 8.875 28.125 L 7 30 L 9.34375 30 L 10.53125 28.8125 C 10.999478 28.930696 11.496242 29 12 29 L 20 29 C 20.503758 29 21.000522 28.930696 21.46875 28.8125 L 22.65625 30 L 25 30 L 23.125 28.125 C 24.844772 27.0673 26 25.157417 26 23 L 26 14 C 26 11.250484 23.749516 9 21 9 L 20.59375 9 C 20.151727 7.8904725 19.25867 7 18 7 L 14 7 z M 14 9 L 18 9 C 18.56503 9 19 9.4349698 19 10 L 19 11 L 20 11 L 21 11 C 22.318362 11 23.436798 11.827988 23.84375 13 L 8.15625 13 C 8.5632023 11.827988 9.6816384 11 11 11 L 12 11 L 13 11 L 13 10 C 13 9.4349698 13.43497 9 14 9 z M 8 15 L 24 15 L 24 19 L 8 19 L 8 15 z M 8 21 L 24 21 L 24 23 C 24 25.220375 22.220375 27 20 27 L 12.34375 27 L 12 27 C 9.7796254 27 8 25.220375 8 23 L 8 21 z M 16 22 C 14.895431 22 14 22.895431 14 24 C 14 25.104569 14.895431 26 16 26 C 17.104569 26 18 25.104569 18 24 C 18 22.895431 17.104569 22 16 22 z" fill="#000000"/></svg>
