<?xml version="1.0" encoding="utf-8"?>
<svg xmlns="http://www.w3.org/2000/svg" viewBox="0 0 32 32" fill="#000000"><path style="line-height:normal;text-indent:0;text-align:start;text-decoration-line:none;text-decoration-style:solid;text-decoration-color:#000;text-transform:none;block-progression:tb;isolation:auto;mix-blend-mode:normal" d="M 6 3 L 6 4 L 6 9 L 6 10 L 6 11 L 6 15 L 6 16 L 6 17 L 6 23 L 12 23 L 12 29 L 20 29 L 20 23 L 26 23 L 26 17 L 26 15 L 26 9 L 26 3 L 20 3 L 14 3 L 12 3 L 6 3 z M 8 5 L 12 5 L 12 9 L 8 9 L 8 5 z M 14 5 L 18 5 L 18 9 L 14 9 L 14 5 z M 20 5 L 24 5 L 24 9 L 20 9 L 20 5 z M 8 11 L 12 11 L 12 15 L 8 15 L 8 11 z M 14 11 L 18 11 L 18 15 L 14 15 L 14 11 z M 20 11 L 24 11 L 24 15 L 20 15 L 20 11 z M 8 17 L 12 17 L 12 21 L 8 21 L 8 17 z M 14 17 L 18 17 L 18 21 L 14 21 L 14 17 z M 20 17 L 24 17 L 24 21 L 20 21 L 20 17 z M 14 23 L 18 23 L 18 27 L 14 27 L 14 23 z" fill="#000000"/></svg>
