<?xml version="1.0" encoding="utf-8"?>
<svg xmlns="http://www.w3.org/2000/svg" viewBox="0 0 32 32" fill="#000000"><path style="text-indent:0;text-align:start;line-height:normal;text-transform:none;block-progression:tb;-inkscape-font-specification:Bitstream Vera Sans" d="M 16 4.90625 L 15.625 5.0625 L 3.625 10.0625 L 3 10.34375 L 3 11 L 3 26 L 3 27 L 4 27 L 28 27 L 29 27 L 29 26 L 29 11 L 29 10.34375 L 28.375 10.0625 L 16.375 5.0625 L 16 4.90625 z M 16 7.09375 L 27 11.6875 L 27 25 L 5 25 L 5 11.6875 L 16 7.09375 z M 16 11 C 15.202 11.798 12.91025 12.22275 12.15625 11.46875 L 11.21875 12.4375 C 11.21875 12.4375 11.78125 13.45675 11.78125 14.34375 C 11.78125 15.80775 11.21875 16.343 11.21875 18.25 C 11.21875 21.754 15.291 22.468 16 23 C 16.754 22.468 20.78125 21.754 20.78125 18.25 C 20.78125 16.343 20.21875 15.85175 20.21875 14.34375 C 20.22075 13.45675 20.78125 12.4375 20.78125 12.4375 L 19.84375 11.46875 C 19.09075 12.22275 16.798 11.798 16 11 z M 16 13.5 L 16.9375 15.59375 L 19.28125 15.8125 L 17.53125 17.34375 L 18 19.65625 L 16 18.4375 L 14 19.59375 L 14.46875 17.34375 L 12.71875 15.8125 L 15.0625 15.59375 L 16 13.5 z" overflow="visible" font-family="Bitstream Vera Sans" fill="#000000"/></svg>
