<?xml version="1.0" encoding="utf-8"?>
<svg xmlns="http://www.w3.org/2000/svg" viewBox="0 0 32 32" fill="#000000"><path style="text-indent:0;text-align:start;line-height:normal;text-transform:none;block-progression:tb;-inkscape-font-specification:Sans" d="M 16 9 C 13.790861 9 12 10.790861 12 13 C 12 15.209139 13.790861 17 16 17 C 18.209139 17 20 15.209139 20 13 C 20 10.790861 18.209139 9 16 9 z M 16 17 C 13.546298 17 11.375213 18.271441 10.125 20.1875 C 9.7683567 19.670458 9.3014889 19.196018 8.78125 18.84375 C 9.5247394 18.116062 10 17.114227 10 16 C 10 13.802706 8.1972944 12 6 12 C 3.8027056 12 2 13.802706 2 16 C 2 17.114227 2.4752606 18.116062 3.21875 18.84375 C 1.88816 19.744728 1 21.281553 1 23 L 3 23 C 3 21.331516 4.3315161 20 6 20 C 7.6684839 20 9 21.331516 9 23 L 9 24 L 11 24 L 23 24 L 23 23 C 23 21.331516 24.331516 20 26 20 C 27.668484 20 29 21.331516 29 23 L 31 23 C 31 21.281553 30.11184 19.744728 28.78125 18.84375 C 29.524739 18.116062 30 17.114227 30 16 C 30 13.802706 28.197294 12 26 12 C 23.802706 12 22 13.802706 22 16 C 22 17.114227 22.475261 18.116062 23.21875 18.84375 C 22.698511 19.196018 22.231643 19.670458 21.875 20.1875 C 20.624787 18.271441 18.453702 17 16 17 z M 6 14 C 7.116414 14 8 14.883586 8 16 C 8 17.116414 7.116414 18 6 18 C 4.883586 18 4 17.116414 4 16 C 4 14.883586 4.883586 14 6 14 z M 26 14 C 27.116414 14 28 14.883586 28 16 C 28 17.116414 27.116414 18 26 18 C 24.883586 18 24 17.116414 24 16 C 24 14.883586 24.883586 14 26 14 z" overflow="visible" font-family="Sans" fill="#000000"/></svg>
