<?xml version="1.0" encoding="utf-8"?>
<svg xmlns="http://www.w3.org/2000/svg" viewBox="0 0 32 32" fill="#000000"><path style="text-indent:0;text-align:start;line-height:normal;text-transform:none;block-progression:tb;-inkscape-font-specification:Bitstream Vera Sans" d="M 13.03125 4 L 12.75 4.1875 L 11.59375 5.03125 C 10.691032 5.0719074 9.3859158 5.2610622 8.03125 5.9375 C 6.4993427 6.7024414 5 8.2487036 5 10.59375 C 5 11.197652 5.1489411 11.811471 5.28125 12.34375 C 5.351522 12.626454 5.355728 12.668018 5.40625 12.84375 C 4.9738908 13.417666 4 14.847158 4 17.09375 L 4 17.53125 L 4.3125 17.84375 L 6.3125 19.71875 L 6.71875 20.125 L 7.28125 19.96875 C 8.1623753 19.712107 8.729536 19.146815 9.1875 18.5625 C 9.337922 19.342051 9.4974401 20.096372 9.5 21.5 C 9.491983 21.498239 9.4680955 21.596642 9.4375 21.71875 C 9.396706 21.881558 9.345361 22.110065 9.28125 22.34375 C 9.1530276 22.811121 9 23.293484 9 23.875 C 9 25.005979 9.593719 26.636595 11.4375 27.84375 L 11.6875 28 L 12 28 L 20 28 L 20.3125 28 L 20.5625 27.84375 C 22.406281 26.636595 23 25.005979 23 23.875 C 23 23.293484 22.846963 22.810956 22.71875 22.34375 C 22.654644 22.110147 22.603279 21.881539 22.5625 21.71875 C 22.537013 21.617007 22.509948 21.558431 22.5 21.53125 C 22.5 21.502405 22.497326 21.500548 22.5 21.5 C 22.50256 20.096372 22.662078 19.342051 22.8125 18.5625 C 23.270464 19.146815 23.837625 19.712107 24.71875 19.96875 L 25.28125 20.125 L 25.6875 19.71875 L 27.6875 17.84375 L 28 17.53125 L 28 17.09375 C 28 14.847158 27.026109 13.417666 26.59375 12.84375 C 26.64427 12.668018 26.64848 12.626454 26.71875 12.34375 C 26.851059 11.811471 27 11.197652 27 10.59375 C 27 8.2487036 25.500657 6.7024414 23.96875 5.9375 C 22.614084 5.2610622 21.308968 5.0719074 20.40625 5.03125 L 19.25 4.1875 L 18.96875 4 L 18.65625 4 L 13.34375 4 L 13.03125 4 z M 13.6875 6 L 18.3125 6 L 19.40625 6.8125 L 19.65625 7 L 20 7 C 20.538941 7 21.977157 7.1611914 23.09375 7.71875 C 24.210343 8.2763086 25 9.0327964 25 10.59375 C 25 10.770848 24.898941 11.370279 24.78125 11.84375 C 24.663559 12.317221 24.53125 12.71875 24.53125 12.71875 L 24.375 13.21875 L 24.75 13.65625 C 24.75 13.65625 25.752023 15.023215 25.90625 16.75 L 24.9375 17.6875 C 24.588148 17.451848 24.204398 17.225959 23.96875 16.8125 C 23.645398 16.245159 23.5 15.75 23.5 15.75 L 23.3125 15 L 22.5625 15 L 22.4375 15 C 22.712664 14.393924 23 13.21875 23 13.21875 C 22.49 13.21875 19 9.5625 19 9.5625 C 16.447 10.5685 16.548 11.34375 16 11.34375 C 15.453 11.34375 15.535 10.5855 13 9.5625 C 13.001 9.5625 9.526 13.21875 9 13.21875 C 9 13.21875 9.2873362 14.39472 9.5625 15 L 9.4375 15 L 8.6875 15 L 8.5 15.75 C 8.5 15.75 8.354602 16.245159 8.03125 16.8125 C 7.7956017 17.225959 7.4118515 17.451848 7.0625 17.6875 L 6.09375 16.75 C 6.2479768 15.023215 7.25 13.65625 7.25 13.65625 L 7.625 13.21875 L 7.46875 12.71875 C 7.46875 12.71875 7.3364411 12.317221 7.21875 11.84375 C 7.1010589 11.370279 7 10.770848 7 10.59375 C 7 9.0327964 7.7896573 8.2763086 8.90625 7.71875 C 10.022843 7.1611914 11.461059 7 12 7 L 12.34375 7 L 12.59375 6.8125 L 13.6875 6 z M 16 15.09375 C 16 16.20075 17.7 17.21975 19 16.96875 C 19.96191 16.783128 20.716793 16.545575 21.28125 16.21875 C 21.196517 16.440068 21.083603 16.689174 21 17 C 20.737894 17.974482 20.5 19.451123 20.5 21.53125 C 20.5 21.842129 20.54078 22.007289 20.59375 22.21875 C 20.64672 22.430211 20.720356 22.653103 20.78125 22.875 C 20.903037 23.318794 21 23.805516 21 23.875 C 21 24.28006 20.725276 25.168015 19.59375 26 L 12.40625 26 C 11.274724 25.168015 11 24.28006 11 23.875 C 11 23.80552 11.09697 23.318879 11.21875 22.875 C 11.27964 22.65306 11.353294 22.430099 11.40625 22.21875 C 11.459206 22.007401 11.5 21.842425 11.5 21.53125 C 11.5 19.451123 11.262106 17.974482 11 17 C 10.916397 16.689174 10.803483 16.440068 10.71875 16.21875 C 11.283207 16.545688 12.03809 16.783128 13 16.96875 C 14.3 17.21975 16 16.20075 16 15.09375 z" overflow="visible" font-family="Bitstream Vera Sans" fill="#000000"/></svg>
