<?xml version="1.0" encoding="utf-8"?>
<svg xmlns="http://www.w3.org/2000/svg" viewBox="0 0 32 32" fill="#000000"><path style="text-indent:0;text-align:start;line-height:normal;text-transform:none;block-progression:tb;-inkscape-font-specification:Sans" d="M 10.90625 4.75 L 10.40625 5.28125 L 2.28125 13.9375 L 1.65625 14.59375 L 2.25 15.28125 L 6.03125 19.625 L 6.75 20.40625 L 7.5 19.65625 L 7.96875 19.1875 L 7.96875 26 L 7.96875 27 L 8.96875 27 L 23.03125 27 L 24.03125 27 L 24.03125 26 L 24.03125 19.1875 L 24.65625 19.84375 L 25.375 19.125 L 29.71875 14.78125 L 30.40625 14.09375 L 29.71875 13.375 L 21.59375 5.25 L 21.09375 4.75 L 20.4375 5.0625 C 20.4375 5.0625 18.322308 6.03125 16 6.03125 C 13.677692 6.03125 11.5625 5.0625 11.5625 5.0625 L 10.90625 4.75 z M 11.40625 7.125 C 12.17543 7.4440319 13.770157 8.03125 16 8.03125 C 18.25493 8.03125 19.874365 7.4386171 20.625 7.125 L 27.59375 14.09375 L 24.65625 17 L 23.75 16.09375 L 22.03125 14.375 L 22.03125 16.78125 L 22.03125 25 L 9.96875 25 L 9.96875 16.78125 L 9.96875 14.375 L 8.25 16.09375 L 6.84375 17.5 L 4.34375 14.65625 L 11.40625 7.125 z" overflow="visible" font-family="Sans" fill="#000000"/></svg>
