<?xml version="1.0" encoding="utf-8"?>
<svg xmlns="http://www.w3.org/2000/svg" viewBox="0 0 32 32" fill="#000000"><path style="text-indent:0;text-align:start;line-height:normal;text-transform:none;block-progression:tb;-inkscape-font-specification:Bitstream Vera Sans" d="M 11 3 L 11 7 L 13 7 L 13 3 L 11 3 z M 15 4 L 15 7 L 17 7 L 17 4 L 15 4 z M 5 8 L 5 9 C 5 16.053268 6.7933859 23.620914 7.625 26.78125 C 7.9715009 28.09407 9.1775819 29 10.53125 29 L 18.46875 29 C 19.82095 29 21.029475 28.094544 21.375 26.78125 C 21.667969 25.671745 22.058147 23.985815 22.46875 22 L 25 22 C 26.64497 22 28 20.64497 28 19 L 28 16 C 28 14.35503 26.64497 13 25 13 L 23.8125 13 C 23.921145 11.66705 24 10.331503 24 9 L 24 8 L 23 8 L 6 8 L 5 8 z M 7.09375 10 L 13 10 L 13 13 L 11 13 L 10 13 L 10 14 L 10 19 L 10 20 L 11 20 L 17 20 L 18 20 L 18 19 L 18 14 L 18 13 L 17 13 L 15 13 L 15 10 L 21.90625 10 C 21.746815 16.452499 20.208086 23.33171 19.4375 26.25 C 19.321025 26.692706 18.93255 27 18.46875 27 L 10.53125 27 C 10.068918 27 9.6799991 26.69518 9.5625 26.25 C 8.7926212 23.324273 7.25318 16.435104 7.09375 10 z M 12 15 L 16 15 L 16 18 L 12 18 L 12 15 z M 23.625 15 L 25 15 C 25.56503 15 26 15.43497 26 16 L 26 19 C 26 19.56503 25.56503 20 25 20 L 22.875 20 C 23.159295 18.442157 23.425149 16.749739 23.625 15 z" overflow="visible" font-family="Bitstream Vera Sans" fill="#000000"/></svg>
