<?xml version="1.0" encoding="utf-8"?>
<svg xmlns="http://www.w3.org/2000/svg" viewBox="0 0 32 32" fill="#000000"><path style="text-indent:0;text-align:start;line-height:normal;text-transform:none;block-progression:tb;-inkscape-font-specification:Bitstream Vera Sans" d="M 5 9 C 4.4777778 9 3.9395305 9.1854695 3.5625 9.5625 C 3.1854695 9.9395305 3 10.477778 3 11 L 3 17 C 3 19.082836 3.3902244 20.666515 3.84375 21.71875 C 3.854745 21.74426 3.863946 21.78763 3.875 21.8125 L 3.90625 21.8125 C 4.0574358 22.177156 4.2851178 22.432966 4.5625 22.625 C 4.8697058 22.837681 5.2375 23 5.6875 23 L 26.3125 23 C 27.2125 23 27.839662 22.396758 28.125 21.96875 A 1.0001 1.0001 0 0 0 28.25 21.71875 C 28.571082 20.755504 29 19.133333 29 17 L 29 11 C 29 10.477778 28.814531 9.9395305 28.4375 9.5625 C 28.060469 9.1854695 27.522222 9 27 9 L 5 9 z M 5 11 L 27 11 L 27 17 C 27 18.794978 26.649263 20.092812 26.375 20.9375 C 26.36223 20.945187 26.3525 21 26.3125 21 L 5.71875 21 C 5.3857419 20.250732 5 18.866667 5 17 L 5 11 z M 14 12 L 14 14 L 16 14 L 16 12 L 14 12 z M 17 12 L 17 14 L 19 14 L 19 12 L 17 12 z M 20 12 L 20 14 L 22 14 L 22 12 L 20 12 z M 23 12 L 23 14 L 25 14 L 25 12 L 23 12 z M 7 15 L 7 17 L 11 17 L 11 15 L 7 15 z M 14 15 L 14 17 L 16 17 L 16 15 L 14 15 z M 17 15 L 17 17 L 19 17 L 19 15 L 17 15 z M 20 15 L 20 17 L 22 17 L 22 15 L 20 15 z M 23 15 L 23 17 L 25 17 L 25 15 L 23 15 z M 14 18 L 14 20 L 16 20 L 16 18 L 14 18 z M 17 18 L 17 20 L 19 20 L 19 18 L 17 18 z M 20 18 L 20 20 L 22 20 L 22 18 L 20 18 z M 23 18 L 23 20 L 25 20 L 25 18 L 23 18 z" fill="#000000"/></svg>
