<?xml version="1.0" encoding="utf-8"?>
<svg xmlns="http://www.w3.org/2000/svg" viewBox="0 0 32 32" fill="#000000"><path style="text-indent:0;text-align:start;line-height:normal;text-transform:none;block-progression:tb;-inkscape-font-specification:Sans" d="M 16 3 C 14.354991 3 13 4.3549901 13 6 C 13 7.125993 13.63434 8.112309 14.5625 8.625 L 11.625 14.5 L 7.03125 11.21875 C 7.6313215 10.668557 8 9.8696776 8 9 C 8 7.3549904 6.6450096 6 5 6 C 3.3549904 6 2 7.3549904 2 9 C 2 10.415393 3.0158718 11.598635 4.34375 11.90625 C 4.914781 12.938908 8 18.822974 8 26 L 8 27 L 9 27 L 16 27 L 23 27 L 24 27 L 24 26 C 24 18.822974 27.085219 12.938908 27.65625 11.90625 C 28.984128 11.598635 30 10.415394 30 9 C 30 7.3549901 28.645009 6 27 6 C 25.354991 6 24 7.3549901 24 9 C 24 9.8696781 24.368679 10.668557 24.96875 11.21875 L 20.375 14.5 L 17.4375 8.625 C 18.36566 8.112309 19 7.125993 19 6 C 19 4.3549901 17.645009 3 16 3 z M 16 5 C 16.564129 5 17 5.4358709 17 6 C 17 6.5641291 16.564129 7 16 7 C 15.435871 7 15 6.5641291 15 6 C 15 5.4358709 15.435871 5 16 5 z M 5 8 C 5.5641294 8 6 8.4358706 6 9 C 6 9.5641286 5.5641291 10 5 10 C 4.4358709 10 4 9.5641286 4 9 C 4 8.4358706 4.4358706 8 5 8 z M 27 8 C 27.564129 8 28 8.4358709 28 9 C 28 9.5641283 27.564128 10 27 10 C 26.435872 10 26 9.5641283 26 9 C 26 8.4358709 26.435871 8 27 8 z M 16 10.25 L 19.09375 16.4375 L 20.59375 16.8125 L 24.5625 14 C 23.434746 16.622938 22.191325 20.244769 22.03125 25 L 16 25 L 9.96875 25 C 9.8086747 20.244769 8.5652538 16.622938 7.4375 14 L 11.40625 16.8125 L 12.90625 16.4375 L 16 10.25 z" overflow="visible" font-family="Sans" fill="#000000"/></svg>
