<?xml version="1.0" encoding="utf-8"?>
<svg xmlns="http://www.w3.org/2000/svg" viewBox="0 0 32 32" fill="#000000"><path style="line-height:normal;text-indent:0;text-align:start;text-decoration-line:none;text-decoration-style:solid;text-decoration-color:#000;text-transform:none;block-progression:tb;isolation:auto;mix-blend-mode:normal" d="M 5 3 L 5 4 C 5 5.0366367 5.4730755 5.835964 6.03125 6.3203125 L 7.640625 20 L 9.1835938 20 L 9.6035156 19.578125 L 8.1230469 7 L 13 7 C 17.014473 7 19.544879 8.9399682 20.613281 9.9746094 L 9.5957031 21 L 6 21 L 3 24 L 8.0078125 24.005859 L 8 29 L 11 26 L 11.011719 22.414062 L 22.027344 11.388672 C 23.062414 12.458096 25 14.987707 25 19 L 25 23.876953 L 12.441406 22.398438 L 12 22.839844 L 12 24.359375 L 25.679688 25.96875 C 26.164036 26.526924 26.963363 27 28 27 L 29 27 L 29 25 L 28 25 C 27.278551 25 27.238704 24.813765 27.121094 24.568359 C 27.003483 24.322954 27 24.041016 27 24.041016 L 27 24.021484 L 27 19 C 27 14.372579 24.694544 11.32263 23.427734 9.9882812 L 25.707031 7.7070312 L 27 9 L 28 4 L 23 5 L 24.292969 6.2929688 L 22.013672 8.5742188 C 20.680289 7.3077862 17.629504 5 13 5 L 7.9785156 5 L 7.9589844 5 C 7.9589844 5 7.6770458 4.9965201 7.4316406 4.8789062 C 7.1862354 4.7612958 7 4.7214488 7 4 L 7 3 L 5 3 z" font-weight="400" font-family="sans-serif" white-space="normal" overflow="visible" fill="#000000"/></svg>
