<?xml version="1.0" encoding="utf-8"?>
<svg xmlns="http://www.w3.org/2000/svg" viewBox="0 0 32 32" fill="#000000"><path style="text-indent:0;text-align:start;line-height:normal;text-transform:none;block-progression:tb;-inkscape-font-specification:Bitstream Vera Sans" d="M 28 4.46875 L 26.59375 5.09375 L 19.96875 7.9375 L 12.34375 5.0625 L 11.96875 4.9375 L 11.59375 5.09375 L 4.59375 8.09375 L 4 8.34375 L 4 9 L 4 26 L 4 27.53125 L 5.40625 26.90625 L 12.03125 24.0625 L 19.65625 26.9375 L 20.03125 27.0625 L 20.40625 26.90625 L 27.40625 23.90625 L 28 23.65625 L 28 23 L 28 6 L 28 4.46875 z M 12.03125 7.0625 L 19.65625 9.9375 L 20.03125 10.0625 L 20.40625 9.90625 L 26 7.5 L 26 22.34375 L 19.96875 24.9375 L 12.34375 22.0625 L 11.96875 21.9375 L 11.59375 22.09375 L 6 24.5 L 6 9.65625 L 12.03125 7.0625 z M 12 10 C 10.895431 10 10 10.895431 10 12 C 10 13.104569 10.895431 14 12 14 C 13.104569 14 14 13.104569 14 12 C 14 10.895431 13.104569 10 12 10 z M 9 14 C 8.4477153 14 8 14.447715 8 15 C 8 15.552285 8.4477153 16 9 16 C 9.5522847 16 10 15.552285 10 15 C 10 14.447715 9.5522847 14 9 14 z M 16 14 C 15.447715 14 15 14.447715 15 15 C 15 15.552285 15.447715 16 16 16 C 16.552285 16 17 15.552285 17 15 C 17 14.447715 16.552285 14 16 14 z M 23 14 C 22.447715 14 22 14.447715 22 15 C 22 15.552285 22.447715 16 23 16 C 23.552285 16 24 15.552285 24 15 C 24 14.447715 23.552285 14 23 14 z M 9 17 C 8.4477153 17 8 17.447715 8 18 C 8 18.552285 8.4477153 19 9 19 C 9.5522847 19 10 18.552285 10 18 C 10 17.447715 9.5522847 17 9 17 z M 17 17 C 16.447715 17 16 17.447715 16 18 C 16 18.552285 16.447715 19 17 19 C 17.552285 19 18 18.552285 18 18 C 18 17.447715 17.552285 17 17 17 z M 23 17 C 22.447715 17 22 17.447715 22 18 C 22 18.552285 22.447715 19 23 19 C 23.552285 19 24 18.552285 24 18 C 24 17.447715 23.552285 17 23 17 z M 20 19 C 18.895431 19 18 19.895431 18 21 C 18 22.104569 18.895431 23 20 23 C 21.104569 23 22 22.104569 22 21 C 22 19.895431 21.104569 19 20 19 z" overflow="visible" font-family="Bitstream Vera Sans" fill="#000000"/></svg>
