<?xml version="1.0" encoding="utf-8"?>
<svg xmlns="http://www.w3.org/2000/svg" viewBox="0 0 32 32" fill="#000000"><path style="text-indent:0;text-align:start;line-height:normal;text-transform:none;block-progression:tb;-inkscape-font-specification:Sans" d="M 16 5 C 12.678203 5 7.9701844 5.4967066 6.28125 5.875 C 4.9202504 6.1794524 3.8618116 7.268583 3.65625 8.625 L 3.65625 8.65625 L 3.03125 13.21875 C 2.7250904 15.233338 4.4153428 17 6.46875 17 L 12.40625 17 C 12.44297 17 12.914527 17.242218 13.5 17.75 C 14.085473 18.257782 14.830082 19 16 19 C 17.169918 19 17.939455 18.259728 18.53125 17.75 C 19.123045 17.240272 19.56922 17 19.5625 17 L 25.53125 17 C 27.585287 17 29.274909 15.231891 28.96875 13.21875 L 28.34375 8.65625 L 28.34375 8.625 C 28.138188 7.268583 27.07975 6.1794524 25.71875 5.875 C 24.030355 5.4965666 19.321797 5 16 5 z M 16 7 C 19.102203 7 24.069645 7.5721834 25.28125 7.84375 C 25.869722 7.9753898 26.288619 8.3981581 26.375 8.90625 L 26.375 8.9375 L 26.96875 13.5 L 27 13.5 C 27.117841 14.274859 26.475213 15 25.53125 15 L 20 15 C 19.796349 15 19.722076 14.95233 19.53125 14.78125 C 19.340424 14.610166 19.107518 14.313506 18.84375 13.9375 C 18.579982 13.561494 18.28606 13.110156 17.84375 12.71875 C 17.40144 12.327344 16.739506 12 16 12 C 15.260494 12 14.598299 12.327191 14.15625 12.71875 C 13.714201 13.110309 13.419683 13.561615 13.15625 13.9375 C 12.892817 14.313385 12.659517 14.61032 12.46875 14.78125 C 12.277983 14.95218 12.205216 15 12 15 L 6.46875 15 C 5.5261572 15 4.8821596 14.275412 5 13.5 L 5.03125 13.5 L 5.625 8.9375 L 5.625 8.90625 C 5.711381 8.3981581 6.1302782 7.9753898 6.71875 7.84375 C 7.9318156 7.5720434 12.897797 7 16 7 z M 16 14 C 16.216494 14 16.306654 14.04766 16.5 14.21875 C 16.693346 14.389844 16.925143 14.688506 17.1875 15.0625 C 17.346219 15.288756 17.541514 15.528193 17.75 15.78125 C 17.561951 15.945563 17.385828 16.106091 17.21875 16.25 C 16.649545 16.740272 16.188082 17 16 17 C 15.811918 17 15.380027 16.742218 14.8125 16.25 C 14.646765 16.106257 14.47562 15.944802 14.28125 15.78125 C 14.484025 15.533351 14.65714 15.284179 14.8125 15.0625 C 15.074692 14.688385 15.307017 14.389691 15.5 14.21875 C 15.692983 14.047809 15.783506 14 16 14 z M 16 20 C 13.802666 20 12 21.802666 12 24 C 12 26.197334 13.802666 28 16 28 C 18.197334 28 20 26.197334 20 24 C 20 21.802666 18.197334 20 16 20 z M 16 22 C 17.116666 22 18 22.883334 18 24 C 18 25.116666 17.116666 26 16 26 C 14.883334 26 14 25.116666 14 24 C 14 22.883334 14.883334 22 16 22 z M 16 23 C 15.448 23 15 23.448 15 24 C 15 24.552 15.448 25 16 25 C 16.552 25 17 24.552 17 24 C 17 23.448 16.552 23 16 23 z M 21 23 L 21 25 L 23 25 C 24.250436 25 24.944941 25.257441 25.34375 25.65625 C 25.742559 26.055059 26 26.749564 26 28 L 28 28 C 28 26.460436 27.653691 25.153691 26.75 24.25 C 25.846309 23.346309 24.539564 23 23 23 L 21 23 z" overflow="visible" font-family="Sans" fill="#000000"/></svg>
