<?xml version="1.0" encoding="utf-8"?>
<svg xmlns="http://www.w3.org/2000/svg" viewBox="0 0 32 32" fill="#000000"><path style="text-indent:0;text-align:start;line-height:normal;text-transform:none;block-progression:tb;-inkscape-font-specification:Sans" d="M 16 10 C 13.276 10 10.805 11.102 9 12.875 L 9 16.125 C 10.365 13.662 12.99 12 16 12 C 19.01 12 21.635 13.662 23 16.125 L 23 12.875 C 21.195 11.102 18.724 10 16 10 z M 16 14 C 12.698136 14 10 16.698136 10 20 C 10 23.301864 12.698136 26 16 26 C 19.301864 26 22 23.301864 22 20 C 22 16.698136 19.301864 14 16 14 z M 16 16 C 18.220984 16 20 17.779016 20 20 C 20 22.220984 18.220984 24 16 24 C 13.779016 24 12 22.220984 12 20 C 12 17.779016 13.779016 16 16 16 z" overflow="visible" font-family="Sans" fill="#000000"/></svg>
