<?xml version="1.0" encoding="utf-8"?>
<svg xmlns="http://www.w3.org/2000/svg" viewBox="0 0 32 32" fill="#000000"><path d="M 16 4 C 12.190787 4 8.7954561 5.7890772 6.59375 8.5625 L 5 7 L 4 13 L 10 12 L 8 10 C 9.6317913 7.825794 12.142985 6.348821 15 6.0625 L 15 7 L 17 7 L 17 6.0625 C 21.738736 6.5272402 25.504682 10.262856 25.96875 15 L 25 15 L 25 17 L 25.9375 17 C 25.472758 21.738751 21.738751 25.472758 17 25.9375 L 17 25 L 15 25 L 15 25.9375 C 9.9343959 25.440703 6 21.199069 6 16 L 4 16 C 4 22.615466 9.3845336 28 16 28 C 22.615466 28 28 22.615466 28 16 C 28 9.3845336 22.615466 4 16 4 z M 10 12 L 10 16 L 10 17 L 11 17 L 13 17 L 13 20 L 15 20 L 15 12 L 13 12 L 13 15 L 12 15 L 12 12 L 10 12 z M 18 12 C 16.906937 12 16 12.906937 16 14 L 16 15 C 16 15.361163 16.109225 15.705478 16.28125 16 C 16.109225 16.294522 16 16.638837 16 17 L 16 18 C 16 19.093063 16.906937 20 18 20 L 19 20 C 20.093063 20 21 19.093063 21 18 L 21 17 C 21 16.638837 20.890775 16.294522 20.71875 16 C 20.890775 15.705478 21 15.361163 21 15 L 21 14 C 21 12.906937 20.093063 12 19 12 L 18 12 z M 18 14 L 19 14 L 19 15 L 18 15 L 18 14 z M 18 17 L 19 17 L 19 18 L 18 18 L 18 17 z" fill="#000000"/></svg>
