<?xml version="1.0" encoding="utf-8"?>
<svg xmlns="http://www.w3.org/2000/svg" viewBox="0 0 32 32" fill="#000000"><path style="text-indent:0;text-align:start;line-height:normal;text-transform:none;block-progression:tb;-inkscape-font-specification:Sans" d="M 16 2.59375 L 15.3125 3.28125 L 12.6875 5.8125 L 9.09375 5.3125 L 8.125 5.15625 L 7.96875 6.125 L 7.34375 9.6875 L 4.125 11.40625 L 3.25 11.875 L 3.6875 12.71875 L 5.28125 16 L 3.6875 19.28125 L 3.25 20.125 L 4.125 20.59375 L 7.34375 22.3125 L 7.96875 25.875 L 8.125 26.84375 L 9.09375 26.6875 L 12.6875 26.1875 L 15.3125 28.71875 L 16 29.40625 L 16.6875 28.71875 L 19.3125 26.1875 L 22.90625 26.6875 L 23.875 26.84375 L 24.03125 25.875 L 24.65625 22.28125 L 27.875 20.59375 L 28.71875 20.125 L 28.3125 19.28125 L 26.71875 16 L 28.3125 12.71875 L 28.71875 11.875 L 27.875 11.40625 L 24.65625 9.71875 L 24.03125 6.125 L 23.875 5.15625 L 22.90625 5.3125 L 19.3125 5.8125 L 16.6875 3.28125 L 16 2.59375 z M 16 5.375 L 18.28125 7.59375 L 18.625 7.9375 L 19.09375 7.875 L 22.21875 7.40625 L 22.78125 10.53125 L 22.875 11 L 23.28125 11.25 L 26.0625 12.71875 L 24.6875 15.5625 L 24.46875 16 L 24.6875 16.4375 L 26.0625 19.28125 L 23.28125 20.75 L 22.875 21 L 22.78125 21.46875 L 22.21875 24.59375 L 19.09375 24.125 L 18.625 24.0625 L 18.28125 24.40625 L 16 26.625 L 13.71875 24.40625 L 13.375 24.0625 L 12.90625 24.125 L 9.78125 24.59375 L 9.21875 21.46875 L 9.125 21 L 8.6875 20.75 L 5.90625 19.25 L 7.28125 16.4375 L 7.5 16 L 7.28125 15.5625 L 5.90625 12.75 L 8.6875 11.25 L 9.125 11 L 9.21875 10.53125 L 9.78125 7.40625 L 12.90625 7.875 L 13.375 7.9375 L 13.71875 7.59375 L 16 5.375 z M 15.96875 11 L 15.8125 11.15625 C 15.7305 11.24825 15.23975 11.5625 14.96875 11.5625 L 14.96875 12.5625 C 15.28275 12.5625 15.778 12.40425 16 12.28125 L 16 15 L 17 15 L 17 11 L 15.96875 11 z M 9 16 L 9 20 L 10 20 L 10 18.5 L 11.34375 18.5 L 11.34375 17.5 L 10 17.5 L 10 17 L 11.5625 17 L 11.5625 16 L 9 16 z M 16 16 L 16 20 L 18.5625 20 L 18.5625 19 L 17 19 L 17 18.5 L 18.34375 18.5 L 18.34375 17.5 L 17 17.5 L 17 17 L 18.5625 17 L 18.5625 16 L 16 16 z M 20 16 L 20 20 L 22.5625 20 L 22.5625 19 L 21 19 L 21 18.5 L 22.34375 18.5 L 22.34375 17.5 L 21 17.5 L 21 17 L 22.5625 17 L 22.5625 16 L 20 16 z M 12.5 16.03125 L 12.5 20 L 13.5 20 L 13.5 18.53125 L 14.09375 20 L 15.1875 20 L 14.46875 18.28125 C 14.780526 18.053241 15 17.69594 15 17.28125 C 15 16.59125 14.44 16.03125 13.75 16.03125 L 12.5 16.03125 z M 13.5 17.03125 L 13.75 17.03125 C 13.889 17.03125 14 17.14225 14 17.28125 C 14 17.42025 13.889 17.53125 13.75 17.53125 L 13.5 17.53125 L 13.5 17.03125 z" overflow="visible" font-family="Sans" fill="#000000"/></svg>
