<?xml version="1.0" encoding="utf-8"?>
<svg xmlns="http://www.w3.org/2000/svg" viewBox="0 0 32 32" fill="#000000"><path d="M 16.121094 4 C 14.433094 4 12.849219 4.356 11.449219 5 C 11.874219 5 12.277141 4.9817969 12.994141 4.9667969 L 13.009766 4.9667969 C 15.014766 4.9667969 16.717422 6.0326562 17.732422 7.5976562 C 18.815422 9.2626563 18.825781 11.158828 18.800781 12.798828 C 18.700781 16.699828 20.958359 17.992188 22.943359 17.992188 C 25.792359 17.992188 26.949 15.671078 27 13.455078 C 27.054 8.8160781 21.424234 4.0389063 16.365234 4.0039062 C 16.283234 4.0019062 16.202094 4 16.121094 4 z M 19.564453 6.7558594 C 20.753453 7.2858594 21.899281 8.0736406 22.863281 9.0566406 C 24.236281 10.455641 25.014047 12.050156 24.998047 13.410156 C 24.976047 14.375156 24.680406 15.992188 22.941406 15.992188 C 22.604406 15.992188 21.968859 15.922266 21.505859 15.447266 C 21.012859 14.941266 20.769781 14.042125 20.800781 12.828125 C 20.825781 11.259125 20.861453 8.9208594 19.564453 6.7558594 z M 10.865234 7 C 10.011234 7 9.1496875 7.1952187 8.4296875 7.5742188 C 4.2506875 9.8332188 2.7738125 17.248922 5.2578125 21.794922 C 6.1438125 23.468922 7.3509531 24.8235 8.7519531 25.8125 C 8.4089531 25.3305 8.1649219 24.967031 7.7949219 24.332031 C 6.7909219 22.535031 6.8959219 20.47225 7.7949219 18.78125 C 8.7469219 16.98425 10.437969 16.033234 11.917969 15.240234 C 15.459969 13.390234 15.353813 10.799219 14.507812 8.9492188 C 13.897813 7.6252188 12.394234 7 10.865234 7 z M 10.867188 9 C 11.595187 9 12.441453 9.2422969 12.689453 9.7792969 C 13.200453 10.897297 13.399609 12.209563 10.974609 13.476562 C 9.5366094 14.246562 7.3766562 15.403797 6.0976562 17.716797 C 5.9556562 16.339797 6.0879062 14.858219 6.5039062 13.449219 C 7.0769063 11.513219 8.1243281 10.01275 9.3613281 9.34375 C 9.7773281 9.12575 10.325188 9 10.867188 9 z M 27.689453 18.990234 C 26.719453 20.334234 24.360594 21.589844 22.433594 21.589844 C 20.346594 21.589844 18.445 20.872891 17 19.962891 C 15.891 19.264891 14.874547 19 13.810547 19 C 12.155547 19 11.071109 19.835234 10.412109 20.990234 C 9.2881094 22.917234 10.602719 25.8845 12.636719 27.0625 C 13.736719 27.7085 15.009844 28 16.339844 28 C 20.181844 28 24.486531 25.559687 26.394531 22.179688 C 26.992531 21.172687 27.424453 20.091234 27.689453 18.990234 z M 13.810547 21 C 14.569547 21 15.204594 21.195297 15.933594 21.654297 C 17.336594 22.537297 19.603594 23.591797 22.433594 23.591797 C 22.482594 23.591797 22.531078 23.590844 22.580078 23.589844 C 20.808078 25.040844 18.457844 26 16.339844 26 C 15.302844 26 14.398672 25.777078 13.638672 25.330078 C 12.936672 24.924078 12.313891 24.078563 12.087891 23.226562 C 11.956891 22.730563 11.975391 22.281422 12.150391 21.982422 C 12.543391 21.293422 13.039547 21 13.810547 21 z" fill="#000000"/></svg>
