<?xml version="1.0" encoding="utf-8"?>
<svg xmlns="http://www.w3.org/2000/svg" viewBox="0 0 32 32" fill="#000000"><path style="text-indent:0;text-align:start;line-height:normal;text-transform:none;block-progression:tb;-inkscape-font-specification:Bitstream Vera Sans" d="M 26 5 L 26 14 L 28 14 L 28 5 L 26 5 z M 13.5 6 C 8.2654518 6 4 10.265452 4 15.5 C 4 18.108756 5.0704177 20.468178 6.78125 22.1875 L 6.0625 24.15625 L 6 24.3125 L 6 24.5 L 6 27 L 6 28 L 7 28 L 20 28 L 21 28 L 21 27 L 21 24.5 L 21 24.3125 L 20.9375 24.15625 L 20.21875 22.1875 C 21.929582 20.468178 23 18.108756 23 15.5 C 23 14.6353 22.871036 13.799789 22.65625 13 L 25 13 L 25 11 L 13.5 11 C 10.474279 11 8 13.474279 8 16.5 C 8 19.525721 10.474279 22 13.5 22 C 16.525721 22 19 19.525721 19 16.5 C 19 15.176247 18.536166 13.951635 17.75 13 L 20.5625 13 C 20.840007 13.782283 21 14.622443 21 15.5 C 21 19.653452 17.653452 23 13.5 23 C 9.3465482 23 6 19.653452 6 15.5 C 6 11.346548 9.3465482 8 13.5 8 L 25 8 L 25 6 L 13.5 6 z M 13.5 13 C 13.951481 13 14.38635 13.096964 14.78125 13.25 L 13.78125 15.03125 C 13.692664 15.014949 13.593301 15 13.5 15 C 13.406699 15 13.307336 15.014949 13.21875 15.03125 L 12.21875 13.25 C 12.61365 13.096964 13.048519 13 13.5 13 z M 11.34375 13.75 L 12.34375 15.53125 C 12.228072 15.669194 12.154082 15.826437 12.09375 16 L 10.03125 16 C 10.159803 15.080131 10.64942 14.292869 11.34375 13.75 z M 15.65625 13.75 C 16.35058 14.292869 16.840197 15.080131 16.96875 16 L 14.90625 16 C 14.845918 15.826437 14.771928 15.669194 14.65625 15.53125 L 15.65625 13.75 z M 10.03125 17 L 12.09375 17 C 12.154082 17.173563 12.228072 17.330806 12.34375 17.46875 L 11.34375 19.25 C 10.64942 18.707131 10.159803 17.919869 10.03125 17 z M 14.90625 17 L 16.96875 17 C 16.840197 17.919869 16.35058 18.707131 15.65625 19.25 L 14.65625 17.46875 C 14.771928 17.330806 14.845918 17.173563 14.90625 17 z M 13.21875 17.96875 C 13.307336 17.985051 13.406699 18 13.5 18 C 13.593301 18 13.692664 17.985051 13.78125 17.96875 L 14.78125 19.75 C 14.38635 19.903036 13.951481 20 13.5 20 C 13.048519 20 12.61365 19.903036 12.21875 19.75 L 13.21875 17.96875 z M 8.40625 23.5 C 9.8798449 24.440757 11.627494 25 13.5 25 C 15.372506 25 17.120155 24.440757 18.59375 23.5 L 19 24.65625 L 19 26 L 8 26 L 8 24.65625 L 8.40625 23.5 z" fill="#000000"/></svg>
