<?xml version="1.0" encoding="utf-8"?>
<svg xmlns="http://www.w3.org/2000/svg" viewBox="0 0 32 32" fill="#000000"><path style="text-indent:0;text-align:start;line-height:normal;text-transform:none;block-progression:tb;-inkscape-font-specification:Sans" d="M 9 5 C 7.3641652 5 6.2644588 6.0755921 5.71875 7 C 5.1730412 7.9244079 5.03125 8.8125 5.03125 8.8125 L 4.96875 9.15625 L 5.09375 9.4375 L 6.875 13 L 5.09375 16.5625 L 5 16.75 L 5 17 L 5 26 L 5 27 L 6 27 L 26 27 L 27 27 L 27 26 L 27 17 L 27 16.75 L 26.90625 16.5625 L 25.125 13 L 26.90625 9.4375 L 27.03125 9.15625 L 26.96875 8.8125 C 26.96875 8.8125 26.826959 7.9244079 26.28125 7 C 25.735541 6.0755921 24.635835 5 23 5 L 16 5 L 9 5 z M 9 7 L 16 7 L 23 7 C 23.822165 7 24.222709 7.4244079 24.5625 8 L 7.4375 8 C 7.7772912 7.4244079 8.1778348 7 9 7 z M 7.625 10 L 13 10 C 11.521 10 10.22325 10.804 9.53125 12 C 9.23403 12.01158 8.9610552 12.055827 8.6875 12.125 L 7.625 10 z M 18.625 10 L 24.375 10 L 23.28125 12.1875 C 22.90437 12.064991 22.480762 12 22.03125 12 C 21.90225 12 21.78425 12.01925 21.65625 12.03125 C 21.05525 11.49425 20.28775 11.13125 19.46875 11.03125 C 19.248071 10.642816 18.957962 10.293542 18.625 10 z M 16 11 C 17.105 11 18 11.895 18 13 C 18 13.101 17.98375 13.18525 17.96875 13.28125 C 18.27075 13.09925 18.622 13 19 13 C 19.873 13 20.603 13.56375 20.875 14.34375 C 21.195 14.12675 21.61625 14 22.03125 14 C 23.520117 14 23.90615 15.315679 24 16 L 7.625 16 L 8.375 14.5 C 8.71676 14.188704 9.16675 14 9.71875 14 C 10.33075 14 10.65975 14.22875 11.09375 14.59375 C 11.03575 14.40475 11 14.208 11 14 C 11 12.895 11.895 12 13 12 C 13.415 12 13.805 12.12675 14.125 12.34375 C 14.397 11.56375 15.127 11 16 11 z M 7 18 L 14 18 L 14 20 C 14 21.1 14.9 22 16 22 C 17.1 22 18 21.1 18 20 L 18 18 L 25 18 L 25 22.84375 C 24.039283 23.295283 23.285086 24.051501 22.8125 25 L 9.1875 25 C 8.7149143 24.051501 7.9607169 23.295283 7 22.84375 L 7 18 z M 16 18 C 16.55 18 17 18.45 17 19 C 17 19.55 16.55 20 16 20 C 15.45 20 15 19.55 15 19 C 15 18.45 15.45 18 16 18 z" overflow="visible" font-family="Sans" fill="#000000"/></svg>
