<?xml version="1.0" encoding="utf-8"?>
<svg xmlns="http://www.w3.org/2000/svg" viewBox="0 0 32 32" fill="#000000"><path d="M 24.46875 4.09375 L 23.53125 5.90625 C 23.939053 6.1142298 24.342755 6.3740047 24.6875 6.71875 C 26.13454 8.1657896 26.393197 10.322982 25.46875 12.03125 L 18.71875 5.28125 L 17.28125 6.71875 L 18.5625 8 L 16.78125 9.78125 L 16 9 L 12 13 L 15 16 L 19 12 L 18.21875 11.21875 L 20 9.4375 L 22.5625 12 L 20.78125 13.78125 L 20 13 L 16 17 L 19 20 L 23 16 L 22.21875 15.21875 L 24 13.4375 L 26.0625 15.5 L 19 22.5625 L 16.40625 20 L 15.71875 19.3125 L 12.6875 16.28125 L 12 15.59375 L 8.71875 12.28125 L 7.28125 13.71875 L 10.5625 17 L 6.28125 21.28125 L 5.59375 22 L 6.28125 22.6875 L 7.09375 23.5 L 5.78125 24.78125 L 3 29 L 7.21875 26.21875 L 8.5 24.90625 L 9.3125 25.71875 L 10 26.40625 L 10.71875 25.71875 L 15 21.4375 L 18.28125 24.71875 L 19 25.40625 L 19.71875 24.71875 L 28.21875 16.21875 L 28.90625 15.5 L 28.21875 14.78125 L 26.9375 13.46875 C 28.597867 10.949204 28.307573 7.5263231 26.09375 5.3125 C 25.600495 4.8192453 25.060947 4.3957702 24.46875 4.09375 z M 12 18.4375 L 13.5625 20 L 10 23.59375 L 8.40625 22 L 12 18.4375 z" fill="#000000"/></svg>
