<?xml version="1.0" encoding="utf-8"?>
<svg xmlns="http://www.w3.org/2000/svg" viewBox="0 0 32 32" fill="#000000"><path style="text-indent:0;text-align:start;line-height:normal;text-transform:none;block-progression:tb;-inkscape-font-specification:Bitstream Vera Sans" d="M 12.5 3 C 10.578848 3 9 4.5788481 9 6.5 C 9 8.4211519 10.578848 10 12.5 10 C 14.421152 10 16 8.4211519 16 6.5 C 16 4.5788481 14.421152 3 12.5 3 z M 12.5 5 C 13.340272 5 14 5.6597281 14 6.5 C 14 7.3402719 13.340272 8 12.5 8 C 11.659728 8 11 7.3402719 11 6.5 C 11 5.6597281 11.659728 5 12.5 5 z M 18.53125 7.40625 L 14.90625 11 L 10.84375 11 C 10.069152 11 9.3590032 11.45278 9.03125 12.15625 L 7.28125 15.875 C 6.7682301 16.972313 7.0273412 18.17524 7.71875 18.96875 C 8.4101588 19.76226 9.5927031 20.200812 10.75 19.84375 L 14.6875 18.625 L 19.1875 21.84375 L 20.34375 20.21875 L 15.84375 17 C 15.336064 16.63566 14.690603 16.535103 14.09375 16.71875 L 12.1875 17.3125 L 14.0625 13 L 15.3125 13 L 15.71875 13 L 16.03125 12.71875 L 19.9375 8.84375 L 18.53125 7.40625 z M 22.5 9 C 20.029545 9 18 11.029545 18 13.5 C 18 15.970455 20.029545 18 22.5 18 C 24.970455 18 27 15.970455 27 13.5 C 27 11.029545 24.970455 9 22.5 9 z M 22.5 11 C 23.879545 11 25 12.120455 25 13.5 C 25 14.879545 23.879545 16 22.5 16 C 21.120455 16 20 14.879545 20 13.5 C 20 12.120455 21.120455 11 22.5 11 z M 10.84375 13 L 11.875 13 L 9.71875 17.9375 C 9.5234858 17.89495 9.349704 17.806542 9.21875 17.65625 C 8.9976588 17.40251 8.9157699 17.099437 9.09375 16.71875 L 10.84375 13 z M 12.5 20 C 10.029545 20 8 22.029545 8 24.5 C 8 26.970455 10.029545 29 12.5 29 C 14.970455 29 17 26.970455 17 24.5 C 17 22.029545 14.970455 20 12.5 20 z M 12.5 22 C 13.879545 22 15 23.120455 15 24.5 C 15 25.879545 13.879545 27 12.5 27 C 11.120455 27 10 25.879545 10 24.5 C 10 23.120455 11.120455 22 12.5 22 z" overflow="visible" font-family="Bitstream Vera Sans" fill="#000000"/></svg>
