<?xml version="1.0" encoding="utf-8"?>
<svg xmlns="http://www.w3.org/2000/svg" viewBox="0 0 32 32" fill="#000000"><path style="line-height:normal;text-indent:0;text-align:start;text-decoration-line:none;text-decoration-style:solid;text-decoration-color:#000;text-transform:none;block-progression:tb;isolation:auto;mix-blend-mode:normal" d="M 2.9003906 8 C 1.3155421 8 2.9605947e-16 9.3155417 0 10.900391 L 0 22.099609 C 0 23.632943 1.2549361 25 2.9003906 25 L 29.099609 25 C 30.632943 25 32 23.745064 32 22.099609 L 32 10.900391 C 32 9.3155417 30.684458 8 29.099609 8 L 2.9003906 8 z M 2.9003906 10 L 29.099609 10 C 29.714761 10 30 10.285239 30 10.900391 L 30 22.099609 C 30 22.654155 29.566276 23 29.099609 23 L 2.9003906 23 C 2.3458452 23 2 22.566276 2 22.099609 L 2 10.900391 C 2 10.285239 2.2852391 10 2.9003906 10 z M 9.5 15 A 1.5 1.5 0 0 0 8 16.5 A 1.5 1.5 0 0 0 9.5 18 A 1.5 1.5 0 0 0 11 16.5 A 1.5 1.5 0 0 0 9.5 15 z M 15.5 15 A 1.5 1.5 0 0 0 14 16.5 A 1.5 1.5 0 0 0 15.5 18 A 1.5 1.5 0 0 0 17 16.5 A 1.5 1.5 0 0 0 15.5 15 z M 21.5 15 A 1.5 1.5 0 0 0 20 16.5 A 1.5 1.5 0 0 0 21.5 18 A 1.5 1.5 0 0 0 23 16.5 A 1.5 1.5 0 0 0 21.5 15 z" font-weight="400" font-family="sans-serif" white-space="normal" overflow="visible" fill="#000000"/></svg>
