<?xml version="1.0" encoding="utf-8"?>
<svg xmlns="http://www.w3.org/2000/svg" viewBox="0 0 32 32" fill="#000000"><path style="text-indent:0;text-align:start;line-height:normal;text-transform:none;block-progression:tb;-inkscape-font-specification:Sans" d="M 21 4 L 21 5 L 21 27 L 21 28 L 22 28 L 26 28 L 27 28 L 27 27 L 27 5 L 27 4 L 26 4 L 22 4 L 21 4 z M 23 6 L 25 6 L 25 26 L 23 26 L 23 6 z M 13 11 L 13 12 L 13 27 L 13 28 L 14 28 L 18 28 L 19 28 L 19 27 L 19 12 L 19 11 L 18 11 L 14 11 L 13 11 z M 15 13 L 17 13 L 17 26 L 15 26 L 15 13 z M 5 18 L 5 19 L 5 27 L 5 28 L 6 28 L 10 28 L 11 28 L 11 27 L 11 19 L 11 18 L 10 18 L 6 18 L 5 18 z M 7 20 L 9 20 L 9 26 L 7 26 L 7 20 z" overflow="visible" font-family="Sans" fill="#000000"/></svg>
