<?xml version="1.0" encoding="utf-8"?>
<svg xmlns="http://www.w3.org/2000/svg" viewBox="0 0 32 32" fill="#000000"><path style="text-indent:0;text-align:start;line-height:normal;text-transform:none;block-progression:tb;-inkscape-font-specification:Sans" d="M 9 4 L 9 5 L 9 9 L 7 9 C 5.3550302 9 4 10.35503 4 12 L 4 23 L 4 24 L 5 24 L 9 24 L 9 27 L 9 28 L 10 28 L 22 28 L 23 28 L 23 27 L 23 24 L 27 24 L 28 24 L 28 23 L 28 12 C 28 10.35503 26.64497 9 25 9 L 23 9 L 23 5 L 23 4 L 22 4 L 10 4 L 9 4 z M 11 6 L 21 6 L 21 9 L 11 9 L 11 6 z M 7 11 L 25 11 C 25.56503 11 26 11.43497 26 12 L 26 22 L 23 22 L 23 21 L 22 21 L 10 21 L 9 21 L 9 22 L 6 22 L 6 12 C 6 11.43497 6.4349698 11 7 11 z M 15 12 L 15 13.1875 C 14.900634 13.223457 14.813172 13.266745 14.71875 13.3125 L 13.875 12.46875 L 12.46875 13.875 L 13.28125 14.6875 C 13.230425 14.789367 13.226498 14.892071 13.1875 15 L 12 15 L 12 17 L 13.1875 17 C 13.226498 17.107929 13.230425 17.210633 13.28125 17.3125 L 12.46875 18.125 L 13.875 19.53125 L 14.71875 18.6875 C 14.813172 18.733255 14.900634 18.776543 15 18.8125 L 15 20 L 17 20 L 17 18.8125 C 17.099366 18.776543 17.186828 18.733255 17.28125 18.6875 L 18.125 19.53125 L 19.53125 18.125 L 18.71875 17.3125 C 18.769505 17.210773 18.773538 17.107772 18.8125 17 L 20 17 L 20 15 L 18.8125 15 C 18.773502 14.892071 18.769575 14.789367 18.71875 14.6875 L 19.53125 13.875 L 18.125 12.46875 L 17.28125 13.3125 C 17.186828 13.266745 17.099366 13.223457 17 13.1875 L 17 12 L 15 12 z M 16 15 C 16.564128 15 17 15.435872 17 16 C 17 16.564128 16.564128 17 16 17 C 15.435872 17 15 16.564128 15 16 C 15 15.435872 15.435872 15 16 15 z M 11 23 L 21 23 L 21 26 L 11 26 L 11 23 z" fill="#000000"/></svg>
