<?xml version="1.0" encoding="utf-8"?>
<svg xmlns="http://www.w3.org/2000/svg" viewBox="0 0 32 32" fill="#000000"><path style="text-indent:0;text-align:start;line-height:normal;text-transform:none;block-progression:tb;-inkscape-font-specification:Bitstream Vera Sans" d="M 5 5 C 3.3545455 5 2 6.3545455 2 8 L 2 13.5 C 2 14.022222 2.15 14.41875 2.25 14.71875 L 2.28125 14.78125 L 2.3125 14.84375 L 3.46875 17.28125 C 3.480843 17.30947 3.518298 17.31617 3.53125 17.34375 C 4.0190647 18.382371 5.0834803 19 6.1875 19 L 9 19 L 9 17 L 6.1875 17 C 5.7208333 17 5.4449711 16.809099 5.3125 16.5 L 5.3125 16.46875 L 4.59375 15 L 27.40625 15 L 26.6875 16.46875 L 26.6875 16.5 C 26.555029 16.809099 26.279167 17 25.8125 17 L 23 17 L 23 19 L 25.8125 19 C 26.91652 19 27.980935 18.382371 28.46875 17.34375 L 28.5 17.34375 C 28.5098 17.3225 28.52198 17.30287 28.53125 17.28125 L 29.6875 14.84375 L 29.71875 14.78125 L 29.75 14.71875 C 29.85 14.41875 30 14.022222 30 13.5 L 30 8 C 30 6.3545455 28.645455 5 27 5 L 5 5 z M 5 7 L 27 7 C 27.554545 7 28 7.4454545 28 8 L 28 13 L 4 13 L 4 8 C 4 7.4454545 4.4454545 7 5 7 z M 12 17 C 11.447715 17 11 17.447715 11 18 C 11 18.552285 11.447715 19 12 19 C 12.552285 19 13 18.552285 13 18 C 13 17.447715 12.552285 17 12 17 z M 16 17 C 15.447715 17 15 17.447715 15 18 C 15 18.552285 15.447715 19 16 19 C 16.552285 19 17 18.552285 17 18 C 17 17.447715 16.552285 17 16 17 z M 20 17 C 19.447715 17 19 17.447715 19 18 C 19 18.552285 19.447715 19 20 19 C 20.552285 19 21 18.552285 21 18 C 21 17.447715 20.552285 17 20 17 z M 11 20 C 10.447715 20 10 20.447715 10 21 C 10 21.552285 10.447715 22 11 22 C 11.552285 22 12 21.552285 12 21 C 12 20.447715 11.552285 20 11 20 z M 16 20 C 15.447715 20 15 20.447715 15 21 C 15 21.552285 15.447715 22 16 22 C 16.552285 22 17 21.552285 17 21 C 17 20.447715 16.552285 20 16 20 z M 21 20 C 20.447715 20 20 20.447715 20 21 C 20 21.552285 20.447715 22 21 22 C 21.552285 22 22 21.552285 22 21 C 22 20.447715 21.552285 20 21 20 z M 10 23 C 9.4477153 23 9 23.447715 9 24 C 9 24.552285 9.4477153 25 10 25 C 10.552285 25 11 24.552285 11 24 C 11 23.447715 10.552285 23 10 23 z M 16 23 C 15.447715 23 15 23.447715 15 24 C 15 24.552285 15.447715 25 16 25 C 16.552285 25 17 24.552285 17 24 C 17 23.447715 16.552285 23 16 23 z M 22 23 C 21.447715 23 21 23.447715 21 24 C 21 24.552285 21.447715 25 22 25 C 22.552285 25 23 24.552285 23 24 C 23 23.447715 22.552285 23 22 23 z M 8 26 C 7.4477153 26 7 26.447715 7 27 C 7 27.552285 7.4477153 28 8 28 C 8.5522847 28 9 27.552285 9 27 C 9 26.447715 8.5522847 26 8 26 z M 16 26 C 15.447715 26 15 26.447715 15 27 C 15 27.552285 15.447715 28 16 28 C 16.552285 28 17 27.552285 17 27 C 17 26.447715 16.552285 26 16 26 z M 24 26 C 23.447715 26 23 26.447715 23 27 C 23 27.552285 23.447715 28 24 28 C 24.552285 28 25 27.552285 25 27 C 25 26.447715 24.552285 26 24 26 z" fill="#000000"/></svg>
