<?xml version="1.0" encoding="utf-8"?>
<svg xmlns="http://www.w3.org/2000/svg" viewBox="0 0 32 32" fill="#000000"><path style="text-indent:0;text-align:start;line-height:normal;text-transform:none;block-progression:tb;-inkscape-font-specification:Sans" d="M 15.96875 4 C 13.236101 4 11 6.2361015 11 8.96875 L 11 8 L 11 7 L 10 7 L 9 7 L 9 6 L 9 5 L 8 5 L 5 5 L 4.03125 5 L 4 5.96875 C 4 5.96875 3.989301 6.7016628 4.0625 7.5625 C 4.134696 8.4115321 4.2157185 9.3943503 4.78125 10.25 L 4.8125 10.28125 C 5.1340133 10.754438 5.5834395 11.193044 6.25 11.84375 C 6.9165605 12.494456 7.7432406 13.24357 8.53125 13.96875 C 9.7957523 15.132431 10.572306 15.803341 11 16.1875 L 10.96875 22.53125 L 7.90625 19.46875 C 8.156916 19.301487 8.3742064 19.105946 8.53125 18.875 C 8.9994871 18.186416 9 17.485119 9 17 L 7 17 C 7 17.389881 6.9380129 17.688584 6.875 17.78125 C 6.8296792 17.847898 6.7683488 17.926871 6.46875 17.96875 C 6.4645303 17.963708 6.4416467 17.973758 6.4375 17.96875 C 5.8844283 17.300765 5.9495007 16.909643 6.09375 16.53125 C 6.2605763 16.093633 6.625 15.78125 6.625 15.78125 L 5.375 14.21875 C 5.375 14.21875 4.6351737 14.802117 4.25 15.8125 C 3.8648263 16.822883 3.9637516 18.401252 5.28125 19.71875 L 11.28125 25.71875 C 11.983771 27.628391 13.827036 29 15.96875 29 L 16 29 C 18.732649 29 20.96875 26.764649 20.96875 24.03125 L 20.96875 17.3125 L 21.1875 17.59375 L 21.21875 17.625 C 22.429984 19.098649 23.868418 19.704401 24.96875 19.875 C 26.069082 20.045599 26.9375 19.8125 26.9375 19.8125 L 28.03125 19.5 L 27.5625 18.4375 L 25.90625 14.59375 L 25.875 14.5 L 25.8125 14.40625 L 20.6875 7.34375 C 20.008961 5.4055544 18.194052 4 16.03125 4 L 15.96875 4 z M 15.96875 6 L 16.03125 6 C 17.673851 6 19 7.3273985 19 8.96875 L 18.96875 24.03125 C 18.96875 25.673851 17.641351 27 16 27 L 15.96875 27 C 14.327399 27 12.96875 25.672601 12.96875 24.03125 L 13 8.96875 C 13 7.3273985 14.327399 6 15.96875 6 z M 6.03125 7 L 7 7 L 7 8 L 7 9 L 8 9 L 9 9 L 9 10 L 9 11 L 10 11 L 11 11 L 11 13.5 C 10.519061 13.064173 10.448498 13.027771 9.875 12.5 C 9.0952594 11.78243 8.298252 11.032982 7.65625 10.40625 C 7.014248 9.7795185 6.4699867 9.2040624 6.4375 9.15625 C 6.3165158 8.9781913 6.0935505 8.1076628 6.03125 7.375 C 6.0138732 7.1706465 6.0382195 7.1752257 6.03125 7 z M 21 11.1875 L 24.15625 15.5625 L 24.1875 15.59375 L 25.15625 17.875 C 24.483053 17.751282 23.657479 17.416093 22.8125 16.40625 C 22.801 16.3925 22.79276 16.389 22.78125 16.375 L 21 14 L 21 11.1875 z M 15 21 L 15 22 L 14 22 L 14 24 L 15 24 L 15 25 L 17 25 L 17 24 L 18 24 L 18 22 L 17 22 L 17 21 L 15 21 z" overflow="visible" font-family="Sans" fill="#000000"/></svg>
