<?xml version="1.0" encoding="utf-8"?>
<svg xmlns="http://www.w3.org/2000/svg" viewBox="0 0 32 32" fill="#000000"><path style="line-height:normal;text-indent:0;text-align:start;text-decoration-line:none;text-decoration-style:solid;text-decoration-color:#000;text-transform:none;block-progression:tb;isolation:auto;mix-blend-mode:normal" d="M 0 7 L 0 8 L 0 25 L 32 25 L 32 7 L 0 7 z M 2 9 L 30 9 L 30 23 L 2 23 L 2 9 z M 8 12 L 8 20 L 10 20 L 10 17 L 10.011719 17 L 11 20 L 13 20 L 11.839844 16.476562 C 12.143759 16.213451 12.396374 15.878849 12.582031 15.5 L 13 15.5 L 13 14.5 C 13 13.130937 11.869063 12 10.5 12 L 8 12 z M 14 12 L 14 20 L 16 20 L 16 17 L 16.011719 17 L 17 20 L 19 20 L 17.839844 16.476562 C 18.143759 16.213451 18.396374 15.878849 18.582031 15.5 L 19 15.5 L 19 14.5 C 19 13.130937 17.869063 12 16.5 12 L 14 12 z M 20 12 L 20 20 L 22 20 L 22 17 L 22.5 17 C 23.480869 17 24.173964 16.332692 24.582031 15.5 L 25 15.5 L 25 14.5 C 25 13.130937 23.869063 12 22.5 12 L 20 12 z M 10 14 L 10.5 14 C 10.786937 14 11 14.213063 11 14.5 C 11 14.786937 10.786937 15 10.5 15 L 10 15 L 10 14 z M 16 14 L 16.5 14 C 16.786937 14 17 14.213063 17 14.5 C 17 14.786937 16.786937 15 16.5 15 L 16 15 L 16 14 z M 22 14 L 22.5 14 C 22.786937 14 23 14.213063 23 14.5 C 23 14.786937 22.786937 15 22.5 15 L 22 15 L 22 14 z" font-weight="400" font-family="sans-serif" white-space="normal" overflow="visible" fill="#000000"/></svg>
