<?xml version="1.0" encoding="utf-8"?>
<svg xmlns="http://www.w3.org/2000/svg" viewBox="0 0 32 32" fill="#000000"><path style="text-indent:0;text-align:start;line-height:normal;text-transform:none;block-progression:tb;-inkscape-font-specification:Sans" d="M 4 6 L 4 8 L 6 8 L 6 6 L 4 6 z M 8 6 L 8 8 L 28 8 L 28 6 L 8 6 z M 4 11 L 4 13 L 6 13 L 6 11 L 4 11 z M 8 11 L 8 13 L 28 13 L 28 11 L 8 11 z M 4 19 L 4 21 L 6 21 L 6 19 L 4 19 z M 8 19 L 8 21 L 28 21 L 28 19 L 8 19 z M 4 24 L 4 26 L 6 26 L 6 24 L 4 24 z M 8 24 L 8 26 L 28 26 L 28 24 L 8 24 z" fill="#000000"/></svg>
