<?xml version="1.0" encoding="utf-8"?>
<svg xmlns="http://www.w3.org/2000/svg" viewBox="0 0 32 32" fill="#000000"><path style="text-indent:0;text-align:start;line-height:normal;text-transform:none;block-progression:tb;-inkscape-font-specification:Sans" d="M 18.34375 2.96875 C 18.34375 2.96875 17.446323 3.2148659 16.625 3.96875 C 16.013921 4.5296531 15.392808 5.4092778 15.125 6.625 C 13.294127 5.0710536 10.911305 7.3527741 10 5 C 10 9.005 13.16 7.8125 15 7.8125 C 11.66 8.4845 11.67 10.466 9 11 C 13.531 13.408 14.73425 10.88425 15.65625 8.40625 C 15.51125 9.37525 14.396 12.314 18 14 C 19.043 11.13 17.75325 9.86725 16.78125 8.15625 C 18.33125 10.14425 20.228 13.818 24 11 C 21.789 10.422 21.6835 8.601 18.9375 8.125 C 20.9975 8.211 21.591 8.765 23 6 C 20.782 7.148 19.73175 4.60125 17.09375 7.28125 C 17.085667 7.2861833 17.070598 7.2768898 17.0625 7.28125 C 17.200672 6.3354243 17.586552 5.7883157 17.96875 5.4375 C 18.441427 5.0036341 18.84375 4.90625 18.84375 4.90625 L 18.34375 2.96875 z M 9.28125 6.8125 C 8.22925 7.0665 7.18 7.46225 6.25 8.15625 C 4.099 9.75925 3 12.408 3 16 C 3 22.091818 5.9040729 25.530331 8.96875 27.21875 C 12.033427 28.907169 15.177961 29 16 29 C 16.822039 29 19.966573 28.90717 23.03125 27.21875 C 26.095927 25.530331 29 22.091818 29 16 C 29 12.408 27.901 9.75925 25.75 8.15625 C 25.069 7.64825 24.3245 7.29125 23.5625 7.03125 C 23.1505 7.76225 22.752 8.3205 22.25 8.6875 C 22.27 8.7055 22.2925 8.732 22.3125 8.75 C 23.1145 8.948 23.8825 9.27225 24.5625 9.78125 C 26.1765 10.98625 27 13.078 27 16 C 27 21.484182 24.635573 24.051169 22.0625 25.46875 C 19.489427 26.886331 16.626961 27 16 27 C 15.373039 27 12.510573 26.886331 9.9375 25.46875 C 7.3644271 24.051169 5 21.484182 5 16 C 5 13.078 5.8235 10.98725 7.4375 9.78125 C 8.4055 9.05825 9.56875 8.7055 10.71875 8.5625 C 9.96075 8.1635 9.52425 7.5365 9.28125 6.8125 z" overflow="visible" font-family="Sans" fill="#000000"/></svg>
