<?xml version="1.0" encoding="utf-8"?>
<svg xmlns="http://www.w3.org/2000/svg" viewBox="0 0 32 32" fill="#000000"><path style="line-height:normal;text-indent:0;text-align:start;text-decoration-line:none;text-decoration-style:solid;text-decoration-color:#000;text-transform:none;block-progression:tb;isolation:auto;mix-blend-mode:normal" d="M 3 6 L 3 22 L 15.068359 22 C 15.563724 25.93661 18.932696 29 23 29 C 27.406433 29 31 25.406433 31 21 C 31 18.98153 30.240809 17.13858 29 15.728516 L 29 11 L 27 11 L 27 6 L 3 6 z M 5 8 L 25 8 L 25 13.263672 C 24.359444 13.097511 23.691308 13 23 13 C 18.932696 13 15.563724 16.06339 15.068359 20 L 5 20 L 5 8 z M 23 15 C 26.325553 15 29 17.674447 29 21 C 29 24.325553 26.325553 27 23 27 C 19.674447 27 17 24.325553 17 21 C 17 17.674447 19.674447 15 23 15 z M 20.707031 17.292969 L 19.292969 18.707031 L 21.585938 21 L 19.292969 23.292969 L 20.707031 24.707031 L 23 22.414062 L 25.292969 24.707031 L 26.707031 23.292969 L 24.414062 21 L 26.707031 18.707031 L 25.292969 17.292969 L 23 19.585938 L 20.707031 17.292969 z" font-weight="400" font-family="sans-serif" white-space="normal" overflow="visible" fill="#000000"/></svg>
