<?xml version="1.0" encoding="utf-8"?>
<svg xmlns="http://www.w3.org/2000/svg" viewBox="0 0 32 32" fill="#000000"><path style="text-indent:0;text-align:start;line-height:normal;text-transform:none;block-progression:tb;-inkscape-font-specification:Bitstream Vera Sans" d="M 3.71875 2.28125 L 2.28125 3.71875 L 28.28125 29.71875 L 29.71875 28.28125 L 23.96875 22.53125 C 23.990472 22.523167 24.009552 22.508034 24.03125 22.5 C 26.47125 21.595 29 20.6535 29 15.9375 C 29 15.9225 28.96125 14.64875 28.28125 13.84375 C 28.58325 13.16475 28.58925 12.346 28.15625 11.125 C 27.72725 9.923 27.132 9.04475 26.375 8.09375 C 25.917 7.52275 25.23575 7.19625 24.46875 7.15625 C 24.40375 7.15225 24.34525 7.15525 24.28125 7.15625 C 24.27225 7.12525 24.26 7.0935 24.25 7.0625 C 24.229 6.9985 24.18225 6.938 24.15625 6.875 C 24.13325 6.813 24.12075 6.7475 24.09375 6.6875 C 24.06175 6.6165 24.038 6.567 24 6.5 C 23.997 6.494 23.97275 6.47475 23.96875 6.46875 C 23.66375 5.92875 23.195 5.51525 22.625 5.28125 C 22.57 5.25325 22.52675 5.2125 22.46875 5.1875 C 21.60075 4.8095 20.42425 4.5685 19.28125 4.3125 C 18.93525 4.2355 18.60525 4.1405 18.28125 4.0625 C 18.07425 4.0115 17.835 3.997 17.625 4 C 17.479 4.003 17.3305 4.0345 17.1875 4.0625 C 16.7555 4.1225 16.351 4.27825 16 4.53125 C 15.648 4.27825 15.2465 4.1245 14.8125 4.0625 C 14.6755 4.0365 14.514 4.004 14.375 4 C 14.365 4 14.35375 4 14.34375 4 C 14.13475 3.997 13.92575 4.0135 13.71875 4.0625 C 13.39475 4.1415 13.06475 4.2355 12.71875 4.3125 C 11.57475 4.5695 10.39925 4.8095 9.53125 5.1875 C 9.47425 5.2135 9.43 5.25325 9.375 5.28125 C 8.804 5.51625 8.33625 5.92875 8.03125 6.46875 C 8.02825 6.47475 8.004 6.494 8 6.5 C 7.9924 6.5134 7.976878 6.518274 7.96875 6.53125 L 3.71875 2.28125 z M 14.1875 6.03125 C 14.2825 6.00925 14.406 6.02125 14.5 6.03125 C 14.548 6.04625 14.60025 6.05875 14.65625 6.09375 C 14.82725 6.20275 14.946 6.3835 15 6.5625 L 15 9.28125 L 15 13.5625 L 9.78125 8.34375 L 9.71875 8.1875 C 9.62575 7.9935 9.64175 7.7675 9.71875 7.5625 C 9.81675 7.3765 9.98175 7.21675 10.21875 7.09375 C 11.78075 6.65075 13.1435 6.28325 14.1875 6.03125 z M 17.5 6.03125 C 17.594 6.02125 17.7185 6.00825 17.8125 6.03125 C 18.8565 6.28225 20.21925 6.65075 21.78125 7.09375 C 22.01625 7.21675 22.18225 7.3765 22.28125 7.5625 C 22.35925 7.7685 22.36 7.98675 22.25 8.21875 L 19.15625 15.5 L 21 16.28125 L 24 9.25 C 24.132 9.169 24.25775 9.15025 24.34375 9.15625 C 24.53375 9.16625 24.7155 9.22275 24.8125 9.34375 C 25.4625 10.15975 25.94525 10.8705 26.28125 11.8125 C 26.67725 12.9285 26.56075 13.05025 26.09375 13.53125 L 22.15625 17.4375 L 23.5625 18.84375 L 26.9375 15.5 C 26.9785 15.651 26.998 15.8305 27 15.9375 C 27 19.2615 25.62575 19.778 23.34375 20.625 C 23.043027 20.736416 22.722939 20.841641 22.40625 20.96875 L 16.46875 15.03125 L 17 15.03125 L 17 9.28125 L 17 6.5625 C 17.055 6.3835 17.17275 6.20275 17.34375 6.09375 C 17.39875 6.05875 17.453 6.04625 17.5 6.03125 z M 4.875 9.09375 C 4.455 9.71275 4.12375 10.36925 3.84375 11.15625 C 3.41275 12.37325 3.41575 13.16175 3.71875 13.84375 C 3.03775 14.64875 3 15.9225 3 15.9375 C 3 20.6535 5.52775 21.594 7.96875 22.5 C 8.31275 22.627 8.653 22.76525 9 22.90625 L 9 25 C 9 26.654 10.346 28 12 28 L 20 28 C 21.032 28 21.92875 27.4835 22.46875 26.6875 L 20.96875 25.15625 C 20.88775 25.62725 20.494 26 20 26 L 19.0625 26 C 19.0835 25.971 19.104 25.93525 19.125 25.90625 C 19.47 25.42325 19.8445 24.941 20.3125 24.5 L 18.875 23.09375 C 18.286 23.65875 17.859 24.247 17.5 24.75 C 16.841 25.671 16.5545 26 16.0625 26 L 15.9375 26 C 15.4455 26 15.159 25.671 14.5 24.75 C 14.056 24.128 13.5155 23.3555 12.6875 22.6875 C 11.3425 21.6025 9.90825 21.089 8.65625 20.625 C 6.37425 19.778 5 19.2605 5 15.9375 C 5.002 15.8295 5.0215 15.651 5.0625 15.5 L 8.4375 18.84375 L 9.84375 17.4375 L 5.9375 13.5625 C 5.4575 13.0675 5.32375 12.9265 5.71875 11.8125 C 5.88775 11.3385 6.10175 10.92625 6.34375 10.53125 L 4.875 9.09375 z M 11 23.96875 C 11.139 24.06575 11.27025 24.14 11.40625 24.25 C 12.02225 24.747 12.463 25.32925 12.875 25.90625 C 12.896 25.93525 12.9165 25.971 12.9375 26 L 12 26 C 11.448 26 11 25.552 11 25 L 11 23.96875 z" overflow="visible" font-family="Bitstream Vera Sans" fill="#000000"/></svg>
