<?xml version="1.0" encoding="utf-8"?>
<svg xmlns="http://www.w3.org/2000/svg" viewBox="0 0 32 32" fill="#000000"><path style="text-indent:0;text-align:start;line-height:normal;text-transform:none;block-progression:tb;-inkscape-font-specification:Bitstream Vera Sans" d="M 18 4 C 14.218532 4 10.94669 6.1145333 9.25 9.21875 C 9.2431905 9.2312084 9.2255076 9.2375092 9.21875 9.25 C 6.1221027 10.952073 4 14.226222 4 18 C 4 23.511003 8.4889972 28 14 28 C 17.773778 28 21.047927 25.877897 22.75 22.78125 C 22.756782 22.768912 22.774519 22.76237 22.78125 22.75 C 25.885467 21.05331 28 17.781468 28 14 C 28 8.4886661 23.511334 4 18 4 z M 18 6 C 22.430666 6 26 9.5693339 26 14 C 26 16.092471 25.183573 17.981854 23.875 19.40625 C 23.940248 18.945999 24 18.477881 24 18 C 24 16.89651 23.832127 15.837454 23.5 14.84375 C 23.792004 14.669139 24 14.364965 24 14 C 24 13.447715 23.552285 13 23 13 C 22.883587 13 22.791407 13.05718 22.6875 13.09375 C 21.77374 11.484121 20.43311 10.146374 18.8125 9.25 C 18.9367 9.031566 19 8.7692388 19 8.5 C 19 7.6715729 18.328427 7 17.5 7 C 16.764874 7 16.15969 7.5207688 16.03125 8.21875 C 15.371816 8.0812182 14.699447 8 14 8 C 13.522119 8 13.054001 8.0597522 12.59375 8.125 C 14.018146 6.8164267 15.907529 6 18 6 z M 23 9 C 22.447715 9 22 9.4477153 22 10 C 22 10.552285 22.447715 11 23 11 C 23.552285 11 24 10.552285 24 10 C 24 9.4477153 23.552285 9 23 9 z M 14 10 C 18.430123 10 22 13.569877 22 18 C 22 22.430123 18.430123 26 14 26 C 9.5698774 26 6 22.430123 6 18 C 6 13.569877 9.5698774 10 14 10 z M 14.5 12 C 13.671573 12 13 12.671573 13 13.5 C 13 14.328427 13.671573 15 14.5 15 C 15.328427 15 16 14.328427 16 13.5 C 16 12.671573 15.328427 12 14.5 12 z M 10 14 C 9.4477153 14 9 14.447715 9 15 C 9 15.552285 9.4477153 16 10 16 C 10.552285 16 11 15.552285 11 15 C 11 14.447715 10.552285 14 10 14 z M 19 18 C 18.447715 18 18 18.447715 18 19 C 18 19.552285 18.447715 20 19 20 C 19.552285 20 20 19.552285 20 19 C 20 18.447715 19.552285 18 19 18 z M 11.5 19 C 10.671573 19 10 19.671573 10 20.5 C 10 21.328427 10.671573 22 11.5 22 C 12.328427 22 13 21.328427 13 20.5 C 13 19.671573 12.328427 19 11.5 19 z M 15 22 C 14.447715 22 14 22.447715 14 23 C 14 23.552285 14.447715 24 15 24 C 15.552285 24 16 23.552285 16 23 C 16 22.447715 15.552285 22 15 22 z" fill="#000000"/></svg>
