<?xml version="1.0" encoding="utf-8"?>
<svg xmlns="http://www.w3.org/2000/svg" viewBox="0 0 32 32" fill="#000000"><path style="text-indent:0;text-align:start;line-height:normal;text-transform:none;block-progression:tb;-inkscape-font-specification:Bitstream Vera Sans" d="M 22.8125 3.375 L 22.09375 4.09375 L 20.25 5.9375 L 18.3125 5.71875 L 16.78125 5.5 L 17.25 7 L 18.09375 9.625 L 18.09375 11.3125 L 18.09375 12.6875 L 19.40625 12.25 L 21.8125 11.4375 L 24 12.15625 L 24.8125 12.40625 L 25.1875 11.65625 L 25.28125 11.4375 L 25.5 11.03125 L 25.3125 10.59375 L 24.1875 8.15625 L 24 4.9375 L 23.96875 4.5625 L 23.71875 4.28125 L 23.5 4.09375 L 22.8125 3.375 z M 5.9375 4.53125 L 5.8125 5.6875 L 5 13 L 4.875 14.09375 L 6 14.09375 L 6.59375 14.09375 L 7.15625 14.09375 L 7.4375 13.625 L 11.34375 7.3125 L 12.0625 6.1875 L 10.75 5.84375 L 7.0625 4.84375 L 5.9375 4.53125 z M 22.09375 6.90625 L 22.1875 8.46875 L 22.21875 8.65625 L 22.28125 8.8125 L 22.65625 9.625 L 22.09375 9.4375 L 21.78125 9.34375 L 21.46875 9.4375 L 20.09375 9.90625 L 20.09375 9.5 L 20.09375 9.34375 L 20.0625 9.1875 L 19.625 7.90625 L 20.46875 8 L 20.96875 8.0625 L 21.3125 7.71875 L 22.09375 6.90625 z M 7.65625 7.0625 L 8.96875 7.40625 L 7.34375 10 L 7.65625 7.0625 z M 15.625 9.3125 L 13.75 11.5625 L 10.09375 15.875 L 5.8125 16.71875 L 5 16.875 L 5 17.6875 L 5 18.09375 L 5 18.71875 L 5.5625 19 L 7.5625 20 L 5.9375 24.78125 L 5.59375 25.8125 L 6.65625 26.0625 L 7.0625 26.15625 L 7.40625 26.25 L 7.71875 26.09375 L 11.28125 24.40625 L 13.59375 26.71875 L 14.84375 27.96875 L 15.28125 26.25 L 15.9375 23.46875 L 19.21875 24.09375 L 19.625 24.15625 L 19.96875 23.9375 L 20.25 23.71875 L 21 23.25 L 20.59375 22.4375 L 19.0625 19.40625 L 19.84375 17.125 L 20.28125 15.8125 L 18.90625 15.8125 L 15.34375 15.8125 L 15.5 12.25 L 15.625 9.3125 z M 26.28125 13.875 L 25.71875 14.03125 L 23.625 14.625 L 23.0625 14.8125 L 22.9375 15.34375 L 22.4375 17.34375 L 22.3125 17.875 L 22.65625 18.28125 L 24.15625 19.875 L 24.59375 20.34375 L 25.1875 20.15625 L 27.28125 19.5625 L 27.84375 19.40625 L 27.96875 18.84375 L 28.46875 16.71875 L 28.59375 16.1875 L 28.21875 15.78125 L 26.71875 14.28125 L 26.28125 13.875 z M 13.375 15.0625 L 13.3125 16.75 L 13.25 17.8125 L 14.3125 17.8125 L 17.5 17.8125 L 17.0625 19.1875 L 16.90625 19.5625 L 17.09375 19.9375 L 18.0625 21.8125 L 15.375 21.3125 L 14.4375 21.125 L 14.21875 22.0625 L 13.75 24.03125 L 12.21875 22.5 L 11.71875 22 L 11.0625 22.3125 L 8.46875 23.5625 L 9.75 19.8125 L 10.03125 19 L 9.25 18.59375 L 8.5 18.21875 L 10.78125 17.78125 L 11.125 17.71875 L 11.375 17.4375 L 13.375 15.0625 z M 25.6875 16.125 L 26.40625 16.84375 L 26.15625 17.78125 L 25.21875 18.0625 L 24.5 17.3125 L 24.71875 16.40625 L 25.6875 16.125 z M 26.96875 22.3125 L 26.09375 22.40625 L 22.40625 22.8125 L 21.5 22.90625 L 21.5 23.8125 L 21.5 26.1875 L 21.5 27.03125 L 22.3125 27.1875 L 26.90625 28.09375 L 28.4375 28.375 L 28.0625 26.875 L 27.15625 23.15625 L 26.96875 22.3125 z M 25.4375 24.5 L 25.75 25.8125 L 23.5 25.375 L 23.5 24.6875 L 25.4375 24.5 z" overflow="visible" font-family="Bitstream Vera Sans" fill="#000000"/></svg>
