<?xml version="1.0" encoding="utf-8"?>
<svg xmlns="http://www.w3.org/2000/svg" viewBox="0 0 32 32" fill="#000000"><path style="text-indent:0;text-align:start;line-height:normal;text-transform:none;block-progression:tb;-inkscape-font-specification:Sans" d="M 3.71875 2.28125 L 2.28125 3.71875 L 28.28125 29.71875 L 29.71875 28.28125 L 22.75 21.34375 L 27.53125 16.53125 C 27.63225 16.43225 30 14.09 30 11.5 C 30 7.364 26.636 4 22.5 4 C 19.608 4 17.173 5.79375 16 6.84375 C 14.827 5.79375 12.392 4 9.5 4 C 8.3219531 4 7.2113872 4.2948667 6.21875 4.78125 L 3.71875 2.28125 z M 9.5 6 C 12.588 6 15.223 8.87725 15.25 8.90625 L 16 9.75 L 16.75 8.90625 C 16.776 8.87725 19.393 6 22.5 6 C 25.532 6 28 8.467 28 11.5 C 28 12.95 26.649 14.605 26.125 15.125 L 21.34375 19.90625 L 7.75 6.3125 C 8.301841 6.1254942 8.8855042 6 9.5 6 z M 3.1875 7.4375 C 2.4305 8.6075 2 10.005 2 11.5 C 2 14.09 4.37375 16.43725 4.46875 16.53125 L 16 28.09375 L 19.90625 24.15625 L 18.5 22.75 L 16 25.25 L 5.875 15.125 C 5.356 14.613 4 12.962 4 11.5 C 4 10.559 4.23825 9.68125 4.65625 8.90625 L 3.1875 7.4375 z" overflow="visible" font-family="Sans" fill="#000000"/></svg>
