<?xml version="1.0" encoding="utf-8"?>
<svg xmlns="http://www.w3.org/2000/svg" viewBox="-8 10 32 32" fill="#000000"><path style="text-indent:0;text-align:start;line-height:normal;text-transform:none;block-progression:tb;-inkscape-font-specification:Sans" d="M 12.34375 3.8125 L 11.65625 4.0625 L 3.65625 7.0625 L 3 7.3125 L 3 8 L 3 13 L 3 14 L 4 14 L 7 14 L 7 27 L 7 28 L 8 28 L 24 28 L 25 28 L 25 27 L 25 14 L 28 14 L 29 14 L 29 13 L 29 8 L 29 7.3125 L 28.34375 7.0625 L 20.34375 4.0625 L 19.65625 3.8125 L 19.21875 4.375 C 19.21875 4.375 17.878851 6 16 6 C 14.121149 6 12.78125 4.375 12.78125 4.375 L 12.34375 3.8125 z M 11.78125 6.15625 C 12.380559 6.795719 13.682111 8 16 8 C 18.317889 8 19.619441 6.795719 20.21875 6.15625 L 24 7.5625 L 24 11 L 26 11 L 26 8.3125 L 27 8.6875 L 27 12 L 24 12 L 23 12 L 23 13 L 23 26 L 9 26 L 9 13 L 9 12 L 8 12 L 5 12 L 5 8.6875 L 6 8.3125 L 6 11 L 8 11 L 8 7.5625 L 11.78125 6.15625 z M 11.875 13 L 11.59375 13.40625 C 11.59375 13.40625 11.047629 14 10.5 14 L 10.5 16 C 11.157155 16 11.575532 15.721022 12 15.46875 L 12 21 L 14 21 L 14 14 L 14 13 L 13 13 L 12.375 13 L 11.875 13 z M 18.5 13 C 17.130937 13 16 14.130937 16 15.5 L 16 18.5 C 16 19.869063 17.130937 21 18.5 21 C 19.869063 21 21 19.869063 21 18.5 L 21 15.5 C 21 14.130937 19.869063 13 18.5 13 z M 18.5 15 C 18.786937 15 19 15.213063 19 15.5 L 19 18.5 C 19 18.786937 18.786937 19 18.5 19 C 18.213063 19 18 18.786937 18 18.5 L 18 15.5 C 18 15.213063 18.213063 15 18.5 15 z" transform="translate(-8 10)" overflow="visible" font-family="Sans" fill="#000000"/></svg>
