<?xml version="1.0" encoding="utf-8"?>
<svg xmlns="http://www.w3.org/2000/svg" viewBox="0 0 32 32" fill="#000000"><path style="text-indent:0;text-align:start;line-height:normal;text-transform:none;block-progression:tb;-inkscape-font-specification:Bitstream Vera Sans" d="M 15.375 2.875 L 14.8125 3.03125 L 6.1875 5.5 L 5.65625 5.65625 L 5.5 6.1875 L 3.03125 14.8125 L 2.875 15.375 L 3.28125 15.78125 L 16.21875 28.71875 L 17.625 27.28125 L 5.125 14.78125 L 7.28125 7.28125 L 14.78125 5.125 L 27.28125 17.625 L 28.71875 16.21875 L 15.78125 3.28125 L 15.375 2.875 z M 12.375 8.375 L 11.6875 9.0625 L 7.375 13.375 L 8.78125 14.78125 L 10.75 12.8125 L 9.90625 15.3125 L 9.71875 15.90625 L 10.15625 16.34375 L 10.4375 16.625 L 11.15625 17.34375 L 11.875 16.625 L 16.1875 12.34375 L 14.75 10.90625 L 12.875 12.8125 L 13.65625 10.40625 L 13.84375 9.8125 L 13.40625 9.375 L 13.09375 9.0625 L 12.375 8.375 z M 17.1875 13.34375 L 16.5625 13.96875 L 16.4375 14.09375 L 16.375 14.25 L 14.0625 19.3125 L 13.78125 19.9375 L 14.25 20.4375 L 14.34375 20.5 L 14.84375 21 L 15.46875 20.71875 L 16.84375 20.0625 L 16.1875 21.4375 L 15.875 22.0625 L 16.375 22.5625 L 16.46875 22.625 L 16.9375 23.125 L 17.5625 22.84375 L 22.625 20.53125 L 22.8125 20.46875 L 22.9375 20.3125 L 23.53125 19.71875 L 22.125 18.3125 L 21.625 18.8125 L 19.09375 19.96875 L 19.78125 18.53125 L 20.0625 17.90625 L 19.5625 17.40625 L 19.5 17.3125 L 19 16.8125 L 18.375 17.125 L 16.9375 17.8125 L 18.125 15.21875 L 18.59375 14.75 L 17.1875 13.34375 z" overflow="visible" font-family="Bitstream Vera Sans" fill="#000000"/></svg>
