<?xml version="1.0" encoding="utf-8"?>
<svg xmlns="http://www.w3.org/2000/svg" viewBox="-8 10 32 32" fill="#000000"><path style="text-indent:0;text-align:start;line-height:normal;text-transform:none;block-progression:tb;-inkscape-font-specification:Sans" d="M 12 2 C 11.421891 2 10.878882 2.319231 10.59375 2.6875 C 10.308618 3.055769 10.200592 3.446401 10.125 3.78125 C 9.9738159 4.450947 10 5.0625 10 5.0625 L 10.0625 6 L 11 6 L 14 6 L 14 7 L 12 7 C 11.2681 7 10.629861 7.4031496 10.28125 8 L 9 8 C 6.576 8 5.092 10.368 5 12.75 L 5 14 C 5 18.920118 9.1672952 23.532825 10 24.40625 L 10 25 C 10 26.093063 10.906937 27 12 27 L 12 29 L 12 30 L 13 30 L 21 30 L 22 30 L 22 29 L 22 27 C 23.093063 27 24 26.093063 24 25 L 25 25 C 25.546531 25 26.106767 24.755626 26.46875 24.3125 C 26.830733 23.869374 26.980062 23.293412 26.96875 22.6875 L 26.96875 18.96875 C 26.96875 17.932819 26.441639 16.952904 25.5625 16.40625 L 24 15.4375 L 24 13 C 24 11.041027 23.392793 9.518371 22.4375 8.5 C 21.482207 7.481629 20.218473 7 19 7 L 19 6 L 22 6 L 22.96875 6 L 23 5.03125 C 23 5.03125 23.03129 4.443507 22.875 3.78125 C 22.79685 3.450121 22.684436 3.082868 22.40625 2.71875 C 22.128064 2.354632 21.579657 2 21 2 C 20.132495 2 19.324373 2.305377 18.59375 2.71875 C 18.228439 2.925436 17.880165 3.17611 17.59375 3.46875 C 17.307335 3.76139 17 4.108192 17 4.71875 L 17 7 L 16 7 L 16 4.71875 C 16 4.108541 15.692745 3.761542 15.40625 3.46875 C 15.119755 3.175958 14.771612 2.92539 14.40625 2.71875 C 13.675525 2.30547 12.867213 2 12 2 z M 12 9 L 19 9 C 19.708527 9 20.437043 9.274871 21 9.875 C 21.562957 10.475129 22 11.432973 22 13 L 22 14.1875 L 22 16 L 22 24 L 22 25 L 13 25 L 12 25 L 12 9 z M 9 10 L 10 10 L 10 21.25 C 8.653 19.441 7 16.687 7 14 L 7 13 C 7 11.557 7.765 10 9 10 z M 24 17.8125 L 24.5 18.125 C 24.794861 18.308346 24.96875 18.620681 24.96875 18.96875 L 24.96875 22.6875 L 24.96875 22.71875 C 24.972974 22.944978 24.944559 22.989074 24.9375 23 L 24 23 L 24 17.8125 z M 14 27 L 20 27 L 20 28 L 14 28 L 14 27 z" transform="translate(-8 10)" overflow="visible" font-family="Sans" fill="#000000"/></svg>
