<?xml version="1.0" encoding="utf-8"?>
<svg xmlns="http://www.w3.org/2000/svg" viewBox="0 0 32 32" fill="#000000"><path style="text-indent:0;text-align:start;line-height:normal;text-transform:none;block-progression:tb;-inkscape-font-specification:Bitstream Vera Sans" d="M 0 7 L 0 8 L 0 24 L 0 25 L 1 25 L 31 25 L 32 25 L 32 24 L 32 8 L 32 7 L 31 7 L 1 7 L 0 7 z M 2 9 L 30 9 L 30 23 L 2 23 L 2 9 z M 8 12 L 8 13 L 8 19 L 8 20 L 9 20 L 10 20 C 11.645455 20 13 18.645455 13 17 L 13 15 C 13 13.354545 11.645455 12 10 12 L 9 12 L 8 12 z M 14 12 L 14 13 L 14 19 L 14 20 L 15 20 L 16.5 20 C 17.883333 20 19 18.883333 19 17.5 C 19 16.919095 18.737137 16.423912 18.40625 16 C 18.737137 15.576088 19 15.080905 19 14.5 C 19 13.116667 17.883333 12 16.5 12 L 15 12 L 14 12 z M 22.5 12 C 21.116667 12 20 13.116667 20 14.5 L 20 15 L 22 15 L 22 14.5 C 22 14.283333 22.283333 14 22.5 14 C 22.716667 14 23 14.283333 23 14.5 L 23 15.3125 C 23 15.37917 22.92412 15.544635 22.78125 15.6875 L 20.3125 18.09375 L 20 18.375 L 20 18.8125 L 20 19 L 20 20 L 21 20 L 25 20 L 25 18 L 23.28125 18 L 24.1875 17.125 L 24.21875 17.09375 C 24.675885 16.636615 25 16.045833 25 15.3125 L 25 14.5 C 25 13.116667 23.883333 12 22.5 12 z M 10 14 C 10.554545 14 11 14.445455 11 15 L 11 17 C 11 17.554545 10.554545 18 10 18 L 10 14 z M 16 14 L 16.5 14 C 16.716667 14 17 14.283333 17 14.5 C 17 14.716667 16.716667 15 16.5 15 L 16 15 L 16 14 z M 16 17 L 16.5 17 C 16.716667 17 17 17.283333 17 17.5 C 17 17.716667 16.716667 18 16.5 18 L 16 18 L 16 17 z" overflow="visible" font-family="Bitstream Vera Sans" fill="#000000"/></svg>
