<?xml version="1.0" encoding="utf-8"?>
<svg xmlns="http://www.w3.org/2000/svg" viewBox="0 0 32 32" fill="#000000"><path style="text-indent:0;text-align:start;line-height:normal;text-transform:none;block-progression:tb;-inkscape-font-specification:Sans" d="M 20 3 L 20 5 C 20.361183 5 21.133433 5.1906073 21.75 5.65625 C 22.366567 6.1218927 22.892054 6.8154148 23 8.09375 L 23.09375 9 L 24 9 C 24.311063 9 25.237582 9.2209674 25.625 9.59375 C 25.818709 9.7801413 25.914482 9.9779428 25.9375 10.28125 C 25.96052 10.584557 25.86769 11.04072 25.46875 11.75 L 27.21875 12.75 C 27.751807 11.80228 27.998607 10.930193 27.9375 10.125 C 27.876393 9.3198072 27.481291 8.6193587 27 8.15625 C 26.292992 7.4759509 25.50891 7.2411221 24.78125 7.125 C 24.467984 5.7671771 23.810972 4.6985609 22.96875 4.0625 C 21.956317 3.2978927 20.862817 3 20 3 z M 15.71875 3.3125 C 15.71875 3.3125 15.285451 3.7861253 14.875 4.4375 C 14.464549 5.0888747 14 5.9512676 14 7 C 14 8.3597648 14.748781 9.4332136 15.6875 9.875 C 16.626219 10.316786 17.602601 10.361278 18.53125 10.4375 C 19.459899 10.51372 20.324903 10.600514 20.90625 10.875 C 21.487597 11.149486 21.846526 11.492684 22.0625 12.46875 L 24.03125 12.03125 C 23.705224 10.557816 22.77909 9.5796393 21.75 9.09375 C 20.72091 8.6078607 19.635101 8.5152778 18.6875 8.4375 C 17.739899 8.3597222 16.931968 8.2510886 16.53125 8.0625 C 16.130532 7.8739114 16 7.8297352 16 7 C 16 6.6287324 16.251451 5.9936253 16.5625 5.5 C 16.873549 5.0063747 17.1875 4.6875 17.1875 4.6875 L 15.71875 3.3125 z M 25.0625 13.4375 L 24.90625 13.46875 L 24.28125 13.5625 L 24.15625 13.5625 L 24.0625 13.625 L 23.96875 13.65625 L 24.46875 14.9375 L 24.5625 15.53125 L 24.6875 15.5 L 25.03125 15.46875 L 25.0625 15.46875 L 25.1875 15.4375 L 25.125 15.03125 L 25.40625 13.5 L 25.21875 13.46875 L 25.0625 13.4375 z M 26.625 13.96875 L 25.5625 15.65625 L 25.8125 15.8125 L 25.84375 15.84375 L 25.90625 15.875 L 26.21875 16.125 L 27.4375 14.53125 L 27.0625 14.25 L 27 14.21875 L 26.96875 14.1875 L 26.625 13.96875 z M 23 14.09375 L 22.6875 14.28125 L 22.65625 14.3125 L 22.625 14.3125 L 22.15625 14.625 L 23.28125 16.28125 L 23.65625 16.03125 L 24 15.84375 L 23 14.09375 z M 21.75 14.90625 C 21.705144 14.937949 21.662998 14.966091 21.625 15 C 21.603565 15.019128 21.588693 15.044578 21.5625 15.0625 L 11.0625 22.40625 L 12.625 23.75 L 22.6875 16.6875 C 22.72075 16.664749 22.75201 16.646114 22.78125 16.625 C 22.821808 16.595713 22.859855 16.564035 22.90625 16.53125 L 21.75 14.90625 z M 27.90625 14.96875 L 26.5 16.40625 C 26.605166 16.507968 26.65625 16.53125 26.65625 16.53125 L 28.125 15.1875 C 28.125 15.1875 28.04508 15.10303 27.90625 14.96875 z M 5.40625 20.25 L 4.09375 21.75 L 7.65625 24.78125 L 4.0625 27.3125 L 5.21875 28.96875 L 9.25 26.125 L 12.34375 28.75 L 12.625 29 L 13 29 L 28 29 L 28 27 L 13.375 27 L 10.9375 24.9375 L 10.78125 24.78125 L 5.40625 20.25 z" overflow="visible" font-family="Sans" fill="#000000"/></svg>
