<?xml version="1.0" encoding="utf-8"?>
<svg xmlns="http://www.w3.org/2000/svg" viewBox="0 0 32 32" fill="#000000"><path style="text-indent:0;text-align:start;line-height:normal;text-transform:none;block-progression:tb;-inkscape-font-specification:Sans" d="M 16 2.9375 L 15.65625 3.0625 L 10.65625 4.9375 L 10 5.1875 L 10 5.875 L 10 11.40625 L 5.875 11.90625 L 5 12 L 5 12.90625 L 5 19.59375 L 5 20.375 L 5.75 20.5625 L 9 21.40625 L 9 25.25 L 9 25.90625 L 9.5625 26.15625 L 15.5625 29.03125 L 16.0625 29.28125 L 16.53125 28.96875 L 22.53125 25.09375 L 23 24.8125 L 23 24.25 L 23 20.5625 L 26.46875 18.78125 L 27 18.5 L 27 17.90625 L 27 12.90625 L 27 12.03125 L 26.15625 11.90625 L 22 11.3125 L 22 5.875 L 22 5.1875 L 21.34375 4.9375 L 16.34375 3.0625 L 16 2.9375 z M 15 5.4375 L 15 10.8125 L 12 11.1875 L 12 6.5625 L 15 5.4375 z M 17 5.4375 L 20 6.5625 L 20 11 L 17.15625 10.59375 L 17 10.59375 L 17 5.4375 z M 16 12.71875 L 16 21.1875 L 11 19.90625 L 11 13.34375 L 16 12.71875 z M 18 12.71875 L 21 13.1875 L 21 19.34375 L 18 20.875 L 18 12.71875 z M 23 13.46875 L 25 13.78125 L 25 17.28125 L 23 18.3125 L 23 13.46875 z M 9 13.5625 L 9 19.375 L 7 18.84375 L 7 13.8125 L 9 13.5625 z M 21 21.59375 L 21 23.75 L 17 26.28125 L 17 23.53125 L 17.125 23.5625 L 17.46875 23.40625 L 21 21.59375 z M 11 21.9375 L 15 23 L 15 26.53125 L 11 24.65625 L 11 21.9375 z" fill="#000000"/></svg>
