<?xml version="1.0" encoding="utf-8"?>
<svg xmlns="http://www.w3.org/2000/svg" viewBox="-7 9 32 32" fill="#000000"><path d="M 7 4 L 7 5 L 7 7 L 5 7 L 5 9 L 7 9 L 7 10 L 5 10 L 5 12 L 7 12 L 7 13 L 5 13 L 5 15 L 7 15 L 7 17 C 5.2634276 18.051776 4 19.82923 4 22 C 4 25.301625 6.6983746 28 10 28 C 13.301625 28 16 25.301625 16 22 C 16 19.82923 14.736572 18.051776 13 17 L 13 5 L 13 4 L 12 4 L 8 4 L 7 4 z M 9 6 L 11 6 L 11 7 L 9 7 L 9 6 z M 9 9 L 11 9 L 11 17.4375 L 11 18.0625 L 11.59375 18.34375 C 13.004394 18.961107 14 20.353147 14 22 C 14 24.220375 12.220375 26 10 26 C 7.7796254 26 6 24.220375 6 22 C 6 20.353147 6.9956063 18.961107 8.40625 18.34375 L 9 18.0625 L 9 17.4375 L 9 9 z M 21.875 18.9375 L 21.875 20.78125 L 22.34375 20.78125 C 21.761358 21.151465 21.22985 21.64767 20.84375 22.21875 L 20.84375 21.9375 L 18.84375 21.9375 L 18.84375 23.8125 L 20.15625 23.8125 C 20.061189 24.197046 20 24.58645 20 25 C 20 25.41355 20.061189 25.802954 20.15625 26.1875 L 18.84375 26.1875 L 18.84375 28.0625 L 20.84375 28.0625 L 20.84375 27.78125 C 21.22985 28.35233 21.761358 28.848535 22.34375 29.21875 L 21.875 29.21875 L 21.875 31.0625 L 23.875 31.0625 L 23.875 29.875 C 24.239009 29.959596 24.610574 30 25 30 C 25.389426 30 25.760991 29.959596 26.125 29.875 L 26.125 31.0625 L 28.125 31.0625 L 28.125 29.21875 L 27.65625 29.21875 C 28.238642 28.848535 28.77015 28.35233 29.15625 27.78125 L 29.15625 28.0625 L 31.15625 28.0625 L 31.15625 26.1875 L 29.84375 26.1875 C 29.938811 25.802954 30 25.41355 30 25 C 30 24.58645 29.938811 24.197046 29.84375 23.8125 L 31.15625 23.8125 L 31.15625 21.9375 L 29.15625 21.9375 L 29.15625 22.21875 C 28.77015 21.64767 28.238642 21.151465 27.65625 20.78125 L 28.125 20.78125 L 28.125 18.9375 L 26.125 18.9375 L 26.125 20.125 C 25.760991 20.040404 25.389426 20 25 20 C 24.610574 20 24.239009 20.040404 23.875 20.125 L 23.875 18.9375 L 21.875 18.9375 z M 25 22 C 26.653 22 28 23.347 28 25 C 28 26.653 26.653 28 25 28 C 23.347 28 22 26.653 22 25 C 22 23.347 23.347 22 25 22 z" transform="translate(-7 9)" fill="#000000"/></svg>
