<?xml version="1.0" encoding="utf-8"?>
<svg xmlns="http://www.w3.org/2000/svg" viewBox="-7 9 32 32" fill="#000000"><path d="M 15 2 L 15 6.8125 L 13.59375 4.40625 L 12.8125 4.8125 C 10.0125 5.9125 7 8.8 7 13 C 7 13.8 6.99375 14.60625 7.09375 15.40625 C 7.29375 18.40625 7.4125 21.2125 5.3125 23.3125 L 4.8125 23.8125 L 5.09375 24.40625 C 7.19375 28.80625 15.4125 30.9 15.8125 31 L 16 31 L 16.1875 31 C 16.4875 30.9 24.6125 28.9 26.8125 24.5 L 27.09375 23.8125 L 26.6875 23.3125 C 24.5875 21.3125 24.80625 18.5 24.90625 15.5 C 24.90625 14.7 25 13.9 25 13 C 25 8.8 21.9875 5.8875 19.1875 4.6875 L 18.40625 4.3125 L 17 6.8125 L 17 2 L 15 2 z M 12.8125 6.90625 L 15 10.6875 L 15 11 L 15.1875 11 L 16 12.40625 L 16.8125 11 L 17 11 L 17 10.6875 L 19.1875 6.90625 C 21.1875 8.00625 23 10.1 23 13 C 23 13.8 23.00625 14.6125 22.90625 15.3125 C 22.70625 18.2125 22.5875 21.49375 24.6875 24.09375 C 22.8875 26.69375 18.1 28.4 16 29 C 13.9 28.4 8.9875 26.6875 7.1875 24.1875 C 9.3875 21.5875 9.2 18.40625 9 15.40625 L 9 13 C 9 10.1 10.8125 8.00625 12.8125 6.90625 z M 10 15 C 10 15 11 19 13 19 C 15 19 15 17 15 17 L 10 15 z M 22 15 L 17 17 C 17 17 17 19 19 19 C 21 19 22 15 22 15 z" transform="translate(-7 9)" fill="#000000"/></svg>
