<?xml version="1.0" encoding="utf-8"?>
<svg xmlns="http://www.w3.org/2000/svg" viewBox="0 0 32 32" fill="#000000"><path style="line-height:normal;text-indent:0;text-align:start;text-decoration-line:none;text-decoration-style:solid;text-decoration-color:#000;text-transform:none;block-progression:tb;isolation:auto;mix-blend-mode:normal" d="M 2 6 L 2 7 L 2 26 L 30 26 L 30 6 L 2 6 z M 4 8 L 28 8 L 28 24 L 4 24 L 4 8 z M 6 10 L 6 11 L 6 22 L 12 22 L 12 10 L 6 10 z M 20 10 C 16.698136 10 14 12.698136 14 16 C 14 19.301864 16.698136 22 20 22 C 23.301864 22 26 19.301864 26 16 C 26 12.698136 23.301864 10 20 10 z M 8 12 L 10 12 L 10 15 L 8 15 L 8 12 z M 20 12 C 22.220984 12 24 13.779016 24 16 C 24 18.220984 22.220984 20 20 20 C 17.779016 20 16 18.220984 16 16 C 16 13.779016 17.779016 12 20 12 z M 17 15 L 17 17 L 19 17 L 19 15 L 17 15 z M 21 15 L 21 17 L 23 17 L 23 15 L 21 15 z M 8 17 L 10 17 L 10 20 L 8 20 L 8 17 z" font-weight="400" font-family="sans-serif" white-space="normal" overflow="visible" fill="#000000"/></svg>
