<?xml version="1.0" encoding="utf-8"?>
<svg xmlns="http://www.w3.org/2000/svg" viewBox="0 0 32 32" fill="#000000"><path style="text-indent:0;text-align:start;line-height:normal;text-transform:none;block-progression:tb;-inkscape-font-specification:Bitstream Vera Sans" d="M 15 4 L 15 6.21875 L 14.25 6.03125 A 1.0001 1.0001 0 0 0 13.84375 6 A 1.0001 1.0001 0 0 0 13.75 7.96875 L 17.75 8.96875 A 1.0004882 1.0004882 0 1 0 18.25 7.03125 L 17 6.71875 L 17 4 L 15 4 z M 13.84375 9.5 A 1.0001 1.0001 0 0 0 13.75 11.46875 L 17.75 12.46875 A 1.0004882 1.0004882 0 1 0 18.25 10.53125 L 14.25 9.53125 A 1.0001 1.0001 0 0 0 13.84375 9.5 z M 13.84375 13 A 1.0001 1.0001 0 0 0 13.75 14.96875 L 14.15625 15.0625 C 13.729797 15.456158 13.249985 15.912816 12.75 16.46875 C 11.433558 17.932502 10 19.83345 10 22 C 10 23.945728 10.861248 25.498922 12.03125 26.5 C 13.201252 27.501078 14.644339 28 16 28 C 17.34932 28 18.796039 27.528326 19.96875 26.53125 C 21.141461 25.534174 22 23.963253 22 22 C 22 19.803743 20.568976 17.89299 19.25 16.4375 C 19.035376 16.200662 18.834753 15.992209 18.625 15.78125 A 1.0004882 1.0004882 0 0 0 18.25 14.03125 L 14.25 13.03125 A 1.0001 1.0001 0 0 0 13.84375 13 z M 16.03125 16.125 C 16.42781 16.448043 16.876578 16.817429 17.75 17.78125 C 18.931024 19.08451 20 20.779257 20 22 C 20 23.411747 19.462789 24.340826 18.6875 25 C 17.912211 25.659174 16.85868 26 16 26 C 15.147661 26 14.090498 25.665672 13.3125 25 C 12.534502 24.334328 12 23.387272 12 22 C 12 20.83355 13.066442 19.128498 14.25 17.8125 C 15.137669 16.825501 15.641855 16.447348 16.03125 16.125 z" overflow="visible" font-family="Bitstream Vera Sans" fill="#000000"/></svg>
