<?xml version="1.0" encoding="utf-8"?>
<svg xmlns="http://www.w3.org/2000/svg" viewBox="0 0 32 32" fill="#000000"><path style="text-indent:0;text-align:start;line-height:normal;text-transform:none;block-progression:tb;-inkscape-font-specification:Bitstream Vera Sans" d="M 16 2.6875 L 15.34375 3.21875 C 15.34375 3.21875 14.056821 4.2991833 12.75 5.78125 C 11.443179 7.2633167 10.00068 9.1202811 10 11.1875 C 10 12.603917 10.347944 14.621141 10.75 16.59375 L 10.0625 17.0625 C 8.7540351 17.968975 8.0933875 19.56335 8.40625 21.125 L 9.03125 24.1875 L 9.3125 25.65625 L 10.5625 24.84375 L 13.3125 23 L 18.6875 23 L 21.4375 24.84375 L 22.6875 25.65625 L 22.96875 24.1875 L 23.59375 21.125 C 23.906612 19.56335 23.245965 17.968975 21.9375 17.0625 L 21.25 16.59375 C 21.655197 14.611398 22 12.589841 22 11.1875 C 22.000689 9.13841 20.559002 7.3001747 19.25 5.8125 C 17.940998 4.3248253 16.625 3.21875 16.625 3.21875 L 16 2.6875 z M 16 5.40625 C 16.409095 5.7690719 16.877567 6.1334843 17.75 7.125 C 18.944748 8.4828253 20.000311 10.26059 20 11.1875 C 20 12.451613 19.527665 15.188723 19.03125 17.5 C 18.622725 19.402067 18.350682 20.474122 18.21875 21 L 13.78125 21 C 13.649258 20.475724 13.374924 19.423335 12.96875 17.53125 C 12.474444 15.228617 12 12.48864 12 11.1875 C 12.00032 10.214719 13.060571 8.4739333 14.25 7.125 C 15.124363 6.1333843 15.596486 5.7603536 16 5.40625 z M 16 10.6875 C 14.88328 10.6875 13.96875 11.60203 13.96875 12.71875 C 13.96875 13.83547 14.88328 14.71875 16 14.71875 C 17.11672 14.71875 18.03125 13.83547 18.03125 12.71875 C 18.03125 11.60203 17.11672 10.6875 16 10.6875 z M 11.1875 18.6875 C 11.481796 20.01395 11.700464 20.947053 11.84375 21.53125 L 10.6875 22.3125 L 10.375 20.75 C 10.217862 19.96565 10.529965 19.143025 11.1875 18.6875 z M 20.78125 18.6875 L 20.8125 18.6875 C 21.470035 19.143025 21.782138 19.96565 21.625 20.75 L 21.3125 22.3125 L 20.15625 21.53125 C 20.298028 20.945717 20.489092 20.006629 20.78125 18.6875 z M 13 24 C 13 27.013695 15.375 28.78125 15.375 28.78125 L 16 29.25 L 16.59375 28.8125 C 16.59375 28.8125 19 27.032561 19 24 L 17 24 C 17 25.227512 16.469656 26.027756 16 26.5625 C 15.530745 26.020067 15 25.207142 15 24 L 13 24 z" overflow="visible" font-family="Bitstream Vera Sans" fill="#000000"/></svg>
