<?xml version="1.0" encoding="utf-8"?>
<svg xmlns="http://www.w3.org/2000/svg" viewBox="0 0 32 32" fill="#000000"><path style="text-indent:0;text-align:start;line-height:normal;text-transform:none;block-progression:tb;-inkscape-font-specification:Bitstream Vera Sans" d="M 12 3 C 11.637278 3 11.274556 3.074865 10.9375 3.21875 L 6.8125 5 L 4 5 L 4 7 L 7 7 L 7.21875 7 L 7.40625 6.90625 L 11.71875 5.0625 C 11.892637 4.98827 12.107363 4.98827 12.28125 5.0625 L 16.375 6.8125 L 18.96875 10.0625 C 19.277747 10.448514 19.192886 11.006981 18.78125 11.28125 C 18.428706 11.516432 17.991824 11.448932 17.71875 11.125 L 15.9375 9.03125 L 15.78125 8.8125 L 15.5625 8.71875 L 12.03125 7.375 L 11.40625 7.125 L 10.9375 7.625 L 10.625 7.96875 L 10.625 8 C 10.18889 8.4448945 9.8801274 9.0205098 10.0625 9.75 C 10.155 10.119995 10.405951 10.505435 10.75 10.71875 C 11.094049 10.932065 11.508637 11 11.90625 11 L 14 11 C 14.56503 11 15 11.43497 15 12 C 15 12.56503 14.56503 13 14 13 L 9 13 C 8.0740851 13 7.6447085 12.678707 7.34375 12.34375 C 7.0427915 12.008793 6.96875 11.71875 6.96875 11.71875 L 6.75 11 L 6 11 L 4 11 L 4 13 L 5.46875 13 C 5.5979368 13.256866 5.560993 13.341551 5.84375 13.65625 C 6.4412915 14.321293 7.5199149 15 9 15 L 12.03125 15 C 12.19555 16.103208 12.887792 17.053272 13.90625 17.5625 L 14 17.625 L 14 20.5 L 12.6875 20.28125 C 11.337791 20.055007 9.9947014 20.826847 9.5625 22.125 C 9.110127 23.482119 9.7822139 24.984063 11.09375 25.5625 L 11.09375 25.59375 C 12.388209 26.163713 14.313388 26.988542 16.03125 27.6875 C 16.890181 28.036979 17.682432 28.360409 18.34375 28.59375 C 18.674409 28.710421 18.960014 28.802875 19.21875 28.875 C 19.477486 28.947125 19.675124 29 20 29 C 20.577651 29 21.013252 28.801046 21.5 28.59375 C 21.986748 28.386454 22.504576 28.155802 23 27.90625 C 23.495424 27.656698 23.975671 27.417264 24.375 27.25 C 24.774329 27.082736 25.113956 27 25.125 27 C 26.006333 27 27.21875 27.4375 27.21875 27.4375 L 27.96875 25.59375 C 27.96875 25.59375 26.597667 25 25.125 25 C 24.547544 25 24.089703 25.167264 23.59375 25.375 C 23.097797 25.582736 22.590951 25.843302 22.09375 26.09375 C 21.596549 26.344198 21.112533 26.613546 20.71875 26.78125 C 20.324967 26.948954 19.981349 27 20 27 C 20.117626 27 19.97023 26.9902 19.78125 26.9375 C 19.592271 26.88482 19.30445 26.794923 19 26.6875 C 18.391099 26.472654 17.623694 26.186521 16.78125 25.84375 C 15.096362 25.158208 13.191791 24.316037 11.90625 23.75 C 11.521786 23.580437 11.335123 23.182131 11.46875 22.78125 C 11.594549 22.403403 11.951459 22.184243 12.34375 22.25 L 16.03125 22.875 C 15.997387 23.303105 16.054711 23.74836 16.25 24.15625 C 16.734369 25.164664 17.833806 25.723485 18.9375 25.53125 L 19 25.53125 L 19.0625 25.5 L 22.375 24.5 L 21.78125 22.5625 L 18.59375 23.5625 C 18.365444 23.60226 18.164131 23.49284 18.0625 23.28125 C 17.935337 23.015652 18.04649 22.720237 18.3125 22.59375 L 19.0625 22.25 C 19.334527 22.145013 19.532351 22.048357 19.84375 21.9375 C 21.205652 21.452665 22.882896 21 23.8125 21 C 25.866844 21 29.03125 22.21875 29.03125 22.21875 L 29.78125 20.375 C 29.78125 20.375 26.582156 19 23.8125 19 C 22.330104 19 20.634598 19.547335 19.1875 20.0625 C 19.110532 20.0899 19.073136 20.098373 19 20.125 L 19 17.625 L 19.09375 17.5625 C 20.269301 16.976127 21 15.782129 21 14.46875 C 21 13.750026 20.782892 13.083886 20.40625 12.53125 C 21.331382 11.531974 21.416768 9.9187335 20.53125 8.8125 L 17.78125 5.375 L 17.625 5.1875 L 17.40625 5.09375 L 13.0625 3.21875 C 12.725444 3.074865 12.362722 3 12 3 z M 17.96875 13.28125 C 18.136666 13.318758 18.298686 13.338157 18.46875 13.34375 C 18.795698 13.615608 19 14.007018 19 14.46875 C 19 15.029371 18.687949 15.531623 18.1875 15.78125 L 17.5625 16.09375 L 17 16.375 L 17 17 L 17 20.9375 C 16.987633 20.943054 16.948043 20.964058 16.9375 20.96875 L 16 20.8125 L 16 17 L 16 16.375 L 15.4375 16.09375 L 14.8125 15.78125 C 14.475834 15.612917 14.222254 15.336457 14.09375 15 C 14.597775 14.982465 15.053915 14.818599 15.4375 14.5625 C 15.708947 14.833947 16.085787 15 16.5 15 C 17.328427 15 18 14.328427 18 13.5 C 18 13.427205 17.978772 13.351273 17.96875 13.28125 z" overflow="visible" font-family="Bitstream Vera Sans" fill="#000000"/></svg>
