<?xml version="1.0" encoding="utf-8"?>
<svg xmlns="http://www.w3.org/2000/svg" viewBox="0 0 32 32" fill="#000000"><path style="line-height:normal;text-indent:0;text-align:start;text-decoration-line:none;text-decoration-style:solid;text-decoration-color:#000;text-transform:none;block-progression:tb;isolation:auto;mix-blend-mode:normal" d="M 16 3.1015625 L 7.1015625 12 L 2 12 L 2 18 L 3.2558594 18 L 6.2558594 28 L 17 28 L 18.306641 28 L 17.507812 26 L 17 26 L 7.7441406 26 L 4.7441406 16 L 4 16 L 4 14 L 28 14 L 28 16 L 27.255859 16 L 26.576172 18.263672 L 28.492188 18.837891 L 28.744141 18 L 30 18 L 30 16 L 30 12 L 24.898438 12 L 16 3.1015625 z M 16 5.9296875 L 22.070312 12 L 9.9296875 12 L 16 5.9296875 z M 15.300781 16.447266 L 16.072266 18.371094 L 20.757812 30.087891 L 23.066406 26.792969 L 26.091797 29.400391 L 29.433594 25.646484 L 26.246094 22.998047 L 29.011719 20.558594 L 15.300781 16.447266 z M 18.697266 19.552734 L 24.988281 21.439453 L 23.169922 23.044922 L 26.564453 25.863281 L 25.908203 26.599609 L 22.695312 23.833984 L 21.240234 25.912109 L 18.697266 19.552734 z" font-weight="400" font-family="sans-serif" white-space="normal" overflow="visible" fill="#000000"/></svg>
