<?xml version="1.0" encoding="utf-8"?>
<svg xmlns="http://www.w3.org/2000/svg" viewBox="0 0 32 32" fill="#000000"><path style="text-indent:0;text-align:start;line-height:normal;text-transform:none;block-progression:tb;-inkscape-font-specification:Sans" d="M 22.96875 2 C 21.163485 2 19.340328 2.6909224 17.96875 4.0625 L 16.0625 5.96875 C 13.319345 8.7119051 13.319345 13.194345 16.0625 15.9375 C 18.805655 18.680655 23.288095 18.680655 26.03125 15.9375 L 27.9375 14.03125 C 30.680655 11.288095 30.680655 6.8056551 27.9375 4.0625 C 26.565922 2.6909224 24.774015 2 22.96875 2 z M 9.5 3 C 9.116125 3 8.73 3.1445 8.4375 3.4375 C 8.3615 3.5145 8.17225 3.68725 7.90625 3.90625 L 3 6.375 L 3 7 C 3 8.608 4.065 11 7 11 L 7.625 11 L 10.09375 6.09375 C 10.29075 5.85175 10.4595 5.6665 10.5625 5.5625 C 11.1485 4.9765 11.1485 4.0225 10.5625 3.4375 C 10.2695 3.1445 9.883875 3 9.5 3 z M 22.96875 4 C 23.072753 4 23.177469 4.0249952 23.28125 4.03125 L 23 4.3125 L 22.71875 4.03125 C 22.802273 4.0272298 22.885348 4 22.96875 4 z M 21.53125 4.21875 L 22.3125 5 L 21 6.3125 L 19.78125 5.09375 C 20.307134 4.6753488 20.912852 4.3968382 21.53125 4.21875 z M 24.4375 4.25 C 25.047837 4.4329534 25.636301 4.7013924 26.15625 5.125 L 25 6.3125 L 23.6875 5 L 24.4375 4.25 z M 23 5.6875 L 24.3125 7 L 23 8.3125 L 21.6875 7 L 23 5.6875 z M 19.09375 5.78125 L 20.3125 7 L 19 8.3125 L 17.78125 7.09375 L 19.09375 5.78125 z M 26.875 5.84375 C 27.297692 6.3606491 27.56435 6.954459 27.75 7.5625 L 27 8.3125 L 25.6875 7 L 26.875 5.84375 z M 7.75 6.25 L 6.40625 8.9375 C 5.53325 8.7385 5.1895 8.11075 5.0625 7.59375 L 7.75 6.25 z M 21 7.6875 L 22.3125 9 L 21 10.3125 L 19.6875 9 L 21 7.6875 z M 25 7.6875 L 26.3125 9 L 25 10.3125 L 23.6875 9 L 25 7.6875 z M 17.09375 7.78125 L 18.3125 9 L 17 10.3125 L 16.21875 9.53125 C 16.40043 8.9204535 16.676286 8.3019071 17.09375 7.78125 z M 27.96875 8.71875 C 27.980383 8.9066505 27.978118 9.0931865 27.96875 9.28125 L 27.6875 9 L 27.96875 8.71875 z M 19 9.6875 L 20.3125 11 L 19 12.3125 L 17.6875 11 L 19 9.6875 z M 23 9.6875 L 24.3125 11 L 23 12.3125 L 21.6875 11 L 23 9.6875 z M 27 9.6875 L 27.78125 10.46875 C 27.59783 11.086275 27.329491 11.69249 26.90625 12.21875 L 25.6875 11 L 27 9.6875 z M 16 10.6875 L 16.3125 11 L 16 11.3125 C 15.98603 11.10822 15.98963 10.891672 16 10.6875 z M 17 11.6875 L 18.3125 13 L 17.125 14.1875 C 16.70307 13.675465 16.407802 13.07339 16.21875 12.46875 L 17 11.6875 z M 21 11.6875 L 22.3125 13 L 21 14.3125 L 19.6875 13 L 21 11.6875 z M 25 11.6875 L 26.25 12.9375 L 24.9375 14.25 L 23.6875 13 L 25 11.6875 z M 19 13.6875 L 20.3125 15 L 19.53125 15.78125 C 18.92661 15.592198 18.324535 15.29693 17.8125 14.875 L 19 13.6875 z M 23 13.6875 L 24.21875 14.90625 C 23.698093 15.323714 23.079547 15.59957 22.46875 15.78125 L 21.6875 15 L 23 13.6875 z M 21 15.6875 L 21.3125 16 C 21.108328 16.01037 20.89178 16.01397 20.6875 16 L 21 15.6875 z M 14.6875 15.875 L 8.5625 22 L 7 22 L 6.59375 22 L 6.28125 22.28125 L 2.75 25.84375 L 2.03125 26.53125 L 2.75 27.25 L 4.75 29.25 L 5.46875 29.96875 L 6.15625 29.25 L 9.71875 25.71875 L 10 25.40625 L 10 25 L 10 23.4375 L 16.125 17.3125 C 15.863 17.1085 15.58275 16.89425 15.34375 16.65625 C 15.10375 16.41625 14.8905 16.136 14.6875 15.875 z M 7.4375 24 L 8 24 L 8 24.5625 L 5.4375 27.125 L 4.875 26.5625 L 7.4375 24 z" fill="#000000"/></svg>
