<?xml version="1.0" encoding="utf-8"?>
<svg xmlns="http://www.w3.org/2000/svg" viewBox="0 0 32 32" fill="#000000"><path style="text-indent:0;text-align:start;line-height:normal;text-transform:none;block-progression:tb;-inkscape-font-specification:Bitstream Vera Sans" d="M 9 3 L 9 5 C 10.127298 5 11.971137 5.721926 13.5625 6.90625 C 14.768536 7.8038057 15.838404 8.9354216 16.5 10.125 C 16.212094 10.201971 15.94676 10.347457 15.6875 10.5 C 14.83003 9.1375437 13.623614 8.1090815 12.375 7.40625 C 10.629764 6.423875 8.8292684 6 7.4375 6 C 6.6793483 6 5.9145336 6.3334186 5.5 6.90625 C 5.0854664 7.4790814 5 8.1204783 5 8.75 C 5 9.4852962 5.213591 10.294024 5.625 11.21875 C 6.036409 12.143476 6.6546443 13.131251 7.5 14 C 8.3250421 14.847873 9.4244148 15.558127 10.71875 15.90625 C 10.652562 15.986013 10.593751 16.072922 10.53125 16.15625 C 9.5703029 17.437414 9 19.140223 9 21 C 9 22.859777 9.5703029 24.562586 10.53125 25.84375 C 11.056768 26.544387 11.717918 27.118965 12.46875 27.5 C 13.335949 29.083777 15 30 15 30 L 15 27.96875 C 16.394374 27.808493 17.609008 26.989985 18.46875 25.84375 C 19.429697 24.562586 20 22.859777 20 21 C 20 20.290344 19.932068 19.614032 19.78125 18.96875 C 20.59767 18.89703 21.39761 18.60239 22 18 C 22.806484 17.193516 23.065989 16.099717 22.9375 15 C 23.169805 14.999113 23.395757 14.989132 23.625 14.96875 C 24.833281 14.861321 26.103469 14.550139 26.71875 13.375 C 27.247123 12.326088 26.998067 11.158422 26.4375 10.125 C 25.876933 9.0915781 24.938935 8.1004938 23.71875 7.46875 C 23.225213 7.2244646 22.694471 7.0850292 22.1875 7.03125 C 21.680529 6.9774708 21.190956 7.0111232 20.71875 7.15625 C 19.774338 7.4465036 18.981788 8.13757 18.5 9.0625 C 18.443276 9.1713971 18.422411 9.2943551 18.375 9.40625 C 17.55134 7.7809605 16.222441 6.3770697 14.75 5.28125 C 12.902863 3.906574 10.851702 3 9 3 z M 23.9375 4.03125 L 19.78125 5.03125 L 20.21875 6.96875 L 24.40625 5.96875 L 23.9375 4.03125 z M 7.4375 8 C 8.3807316 8 9.9812363 8.354125 11.40625 9.15625 C 12.583399 9.8188544 13.644702 10.762547 14.28125 12.03125 C 14.277498 12.039922 14.284932 12.0538 14.28125 12.0625 C 14.037799 12.637775 13.979829 13.280464 14.03125 13.90625 C 11.673299 14.626008 10.129363 13.849846 8.9375 12.625 C 8.2922307 11.961874 7.7957473 11.141243 7.46875 10.40625 C 7.1417527 9.6712569 7 8.9802038 7 8.75 C 7 8.3365217 7.0982836 8.0994186 7.125 8.0625 C 7.1517164 8.0255814 7.1066517 8 7.4375 8 z M 21.625 9 C 21.890503 8.9794392 22.198179 9.0273194 22.53125 9.15625 C 22.455305 9.2033164 22.408 9.243 22.34375 9.3125 C 21.78275 9.8685 21.9545 10.91275 22.5625 11.46875 C 23.1705 12.02475 24.407 12.213 24.875 11.75 C 24.8912 11.732381 24.891509 11.706202 24.90625 11.6875 C 25.000067 12.047235 24.985931 12.326269 24.9375 12.4375 C 24.89778 12.51336 24.341219 12.891179 23.46875 12.96875 C 22.596281 13.046321 21.547167 12.89583 21 12.625 C 20.445971 12.350425 20.180829 11.954334 20.0625 11.5 C 19.944171 11.045666 20.012162 10.516592 20.28125 10 C 20.547462 9.48893 20.900912 9.1889964 21.3125 9.0625 C 21.415397 9.0308759 21.512185 9.0087365 21.625 9 z M 17.3125 12 C 17.561196 11.977153 17.858363 12.016616 18.15625 12.09375 C 18.429769 13.039347 19.090896 13.909238 20.09375 14.40625 C 20.333628 14.524982 20.582522 14.605887 20.84375 14.6875 C 21.105881 15.503259 20.988766 16.198734 20.59375 16.59375 C 20.26868 16.91882 19.769959 17.060939 19.125 16.96875 C 18.480041 16.87656 17.723366 16.535866 17.09375 15.90625 C 16.463903 15.275995 16.123431 14.519816 16.03125 13.875 C 15.93907 13.230184 16.08108 12.731422 16.40625 12.40625 C 16.628928 12.183572 16.934311 12.034743 17.3125 12 z M 14.5 16 C 14.563198 16 14.624834 16.024842 14.6875 16.03125 C 14.950949 16.485755 15.291558 16.916302 15.6875 17.3125 C 16.251185 17.876185 16.892659 18.304198 17.5625 18.59375 C 17.715496 18.986516 17.832443 19.423289 17.90625 19.875 C 15.723439 19.406936 13.655313 17.680844 12.65625 16.75 C 13.211404 16.246867 13.838481 16 14.5 16 z M 11.5 18.5 C 12.735962 19.684526 15.063829 21.502423 17.90625 21.90625 C 17.85495 22.291184 17.796349 22.652524 17.6875 23 C 15.146084 22.932313 13.475816 22.070677 12.40625 21.21875 C 11.688648 20.647169 11.339068 20.19288 11.125 19.875 C 11.208211 19.376303 11.323477 18.926384 11.5 18.5 z M 11.28125 22.875 C 12.484384 23.80011 14.257421 24.659586 16.65625 24.90625 C 16.029645 25.622037 15.290091 26 14.5 26 C 13.617975 26 12.792803 25.546586 12.125 24.65625 C 11.76432 24.17538 11.480209 23.557765 11.28125 22.875 z" overflow="visible" font-family="Bitstream Vera Sans" fill="#000000"/></svg>
