<?xml version="1.0" encoding="utf-8"?>
<svg xmlns="http://www.w3.org/2000/svg" viewBox="0 0 32 32" fill="#000000"><path style="text-indent:0;text-align:start;line-height:normal;text-transform:none;block-progression:tb;-inkscape-font-specification:Sans" d="M 4 4 L 4 5 L 4 27 L 4 28 L 5 28 L 27 28 L 28 28 L 28 27 L 28 5 L 28 4 L 27 4 L 18 4 C 18 5.1166661 17.116666 6 16 6 C 14.883334 6 14 5.1166661 14 4 L 5 4 L 4 4 z M 6 6 L 12.5625 6 C 13.259389 7.1851852 14.535111 8 16 8 C 17.464889 8 18.740611 7.1851852 19.4375 6 L 26 6 L 26 26 L 6 26 L 6 6 z M 15 11 L 15 19.25 L 12.71875 16.96875 L 11.28125 18.375 L 15.28125 22.375 L 16 23.09375 L 16.71875 22.375 L 20.71875 18.375 L 19.28125 16.96875 L 17 19.25 L 17 11 L 15 11 z" overflow="visible" font-family="Sans" fill="#000000"/></svg>
