<?xml version="1.0" encoding="utf-8"?>
<svg xmlns="http://www.w3.org/2000/svg" viewBox="0 0 32 32" fill="#000000"><path style="text-indent:0;text-align:start;line-height:normal;text-transform:none;block-progression:tb;-inkscape-font-specification:Bitstream Vera Sans" d="M 17.1875 3.15625 C 17.1875 3.15625 16.662892 4.4928504 17.25 5.875 C 17.607922 6.7196818 18.309249 7.2904163 19 7.53125 C 19.690751 7.7720837 20.338346 7.7905481 20.90625 7.78125 C 21.474154 7.77195 21.959148 7.763509 22.21875 7.8125 C 22.478352 7.861491 22.414689 7.80993 22.46875 7.9375 C 22.590837 8.225807 22.594648 8.2660239 22.28125 8.75 C 21.967852 9.2339761 21.307036 9.9309318 20.5 10.90625 C 20.418035 11.005383 20.109072 11.395439 20 11.53125 C 19.851269 11.443519 19.685178 11.40625 19.5 11.40625 C 18.947715 11.40625 18.5 11.853965 18.5 12.40625 C 18.5 12.682392 18.600286 12.912786 18.78125 13.09375 C 18.620339 13.299599 18.45693 13.493002 18.28125 13.71875 C 18.10956 13.579955 17.894219 13.5 17.65625 13.5 C 17.103965 13.5 16.65625 13.947716 16.65625 14.5 C 16.65625 14.837868 16.837195 15.100219 17.09375 15.28125 C 16.896878 15.535361 16.793138 15.648903 16.59375 15.90625 C 16.415814 15.743168 16.166639 15.65625 15.90625 15.65625 C 15.353965 15.65625 14.90625 16.103966 14.90625 16.65625 C 14.90625 17.004671 15.104778 17.289726 15.375 17.46875 C 14.744234 18.278521 14.089608 19.116725 13.625 19.71875 C 13.305582 20.132643 13.063813 20.473386 12.875 20.71875 C 12.686187 20.964114 12.610265 21.017452 12.53125 21.125 C 12.4504 21.235041 12.361629 21.360816 12.3125 21.625 C 12.26337 21.889184 12.38457 22.477551 12.78125 22.71875 C 13.177933 22.959949 13.472976 22.871828 13.65625 22.8125 C 13.839524 22.75317 13.98594 22.684431 14.09375 22.59375 L 14.09375 22.5625 C 14.07622 22.57803 14.11347 22.5562 14.1875 22.5 C 14.27634 22.43256 14.414954 22.329625 14.5625 22.21875 C 14.857591 21.997001 15.250964 21.70684 15.65625 21.40625 C 16.466823 20.80507 17.407384 20.118997 17.59375 20 C 19.117953 19.023651 20.15625 19.21875 20.15625 19.21875 L 20.75 19.28125 L 20.96875 22.09375 L 20.875 22.0625 C 20.875 22.0625 20.278125 21.778606 19.5 21.71875 C 18.721875 21.65889 17.594251 21.88705 16.875 22.875 C 16.734088 23.069175 16.085374 23.832253 15.375 24.6875 C 14.097486 26.22618 11.816843 26.439191 10.28125 25.15625 C 8.6491451 23.792879 8.5602609 21.380392 10.0625 19.875 L 20.65625 9.21875 C 20.65625 9.21875 19.3115 9.506 18.4375 8.75 L 8.625 18.4375 C 6.3152391 20.752108 6.4901049 24.590871 9 26.6875 C 11.366407 28.664559 14.935764 28.34207 16.90625 25.96875 C 17.617876 25.111997 18.191662 24.413075 18.46875 24.03125 C 18.718499 23.6882 18.968125 23.658606 19.34375 23.6875 C 19.703483 23.71517 19.974989 23.864332 20 23.875 C 20.0011 23.875471 20.03125 23.875 20.03125 23.875 L 21.25 24.8125 L 21.5625 25.0625 L 21.96875 25.03125 L 22.25 25 L 23.25 24.90625 L 23.15625 23.90625 L 22.53125 16.6875 L 22.4375 15.6875 L 21.40625 15.78125 L 21.15625 15.8125 L 20.6875 15.875 L 20.4375 16.25 L 19.75 17.25 C 19.268857 17.26061 18.546537 17.485499 17.53125 17.90625 C 17.55134 17.88035 17.57362 17.8697 17.59375 17.84375 C 19.385958 15.533415 21.356506 13.003569 22.03125 12.1875 C 22.797214 11.261818 23.486148 10.589024 23.96875 9.84375 C 24.451352 9.0984761 24.699413 8.069943 24.3125 7.15625 C 23.988561 6.3918231 23.224054 5.962697 22.59375 5.84375 C 21.963446 5.724803 21.391221 5.7727981 20.875 5.78125 C 20.358779 5.7897 19.926155 5.750354 19.65625 5.65625 C 19.386345 5.562146 19.255328 5.4750682 19.09375 5.09375 C 18.912858 4.6678996 19.09375 3.75 19.09375 3.75 L 17.1875 3.15625 z" overflow="visible" font-family="Bitstream Vera Sans" fill="#000000"/></svg>
