<?xml version="1.0" encoding="utf-8"?>
<svg xmlns="http://www.w3.org/2000/svg" viewBox="0 0 32 32" fill="#000000"><path style="text-indent:0;text-align:start;line-height:normal;text-transform:none;block-progression:tb;-inkscape-font-specification:Sans" d="M 16 3 C 11.041484 3 7 7.0414839 7 12 L 7 13 C 6.318214 13 5.7047886 13.322844 5.34375 13.84375 C 5.2598462 13.769652 5.2134501 13.6769 5.15625 13.5625 C 5.025507 13.301014 5 13 5 13 L 5 7 L 3 7 L 3 13 C 3 13 2.974493 13.698986 3.34375 14.4375 C 3.6360785 15.022157 4.2954686 15.665699 5.21875 15.90625 C 5.5488877 16.556496 6.2208212 17 7 17 C 7.0527919 17 7.1044885 17.004016 7.15625 17 C 7.4952468 19.336387 8.3782901 21.809857 9.59375 23.9375 C 11.16332 26.685008 13.308247 29 16 29 C 18.680197 29 20.834692 26.732063 22.40625 24 C 23.628639 21.874946 24.508603 19.378896 24.84375 17 C 24.895512 17.004016 24.947208 17 25 17 C 25.779178 17 26.451112 16.556496 26.78125 15.90625 C 27.704531 15.665699 28.363922 15.022157 28.65625 14.4375 C 29.025507 13.698986 29 13 29 13 L 29 7 L 27 7 L 27 13 C 27 13 26.97449 13.301014 26.84375 13.5625 C 26.78655 13.6769 26.740154 13.769652 26.65625 13.84375 C 26.295211 13.322844 25.681786 13 25 13 L 25 12 C 25 7.0414839 20.958516 3 16 3 z M 16 5 C 19.283292 5 22.01798 7.2409627 22.78125 10.28125 L 16.03125 11.96875 L 9.28125 10.03125 C 10.126776 7.1160505 12.805266 5 16 5 z M 9 12.0625 L 15 13.75 L 15 14.5 L 11.90625 16.8125 L 9 15.375 C 8.9951836 15.249069 9 15.121858 9 15 L 9 12.0625 z M 23 12.28125 L 23 15 C 23 15.121707 23.004512 15.249989 23 15.375 L 20.09375 16.8125 L 17 14.5 L 17 13.78125 L 23 12.28125 z M 10 14 C 10 14 10.155 16 12 16 C 13.622 16 14 15 14 15 L 10 14 z M 22 14 L 18 15 C 18 15 18.378 16 20 16 C 21.845 16 22 14 22 14 z M 16 16.25 L 19.40625 18.8125 L 19.90625 19.15625 L 20.4375 18.90625 L 22.65625 17.78125 C 22.273302 19.564641 21.592206 21.427221 20.6875 23 C 19.290308 25.428937 17.444803 27 16 27 C 14.566753 27 12.71168 25.417992 11.3125 22.96875 C 10.421224 21.408585 9.7302465 19.55888 9.34375 17.8125 L 11.5625 18.90625 L 12.09375 19.15625 L 12.59375 18.8125 L 16 16.25 z M 16 20 C 13.936877 20 12.40625 21.1875 12.40625 21.1875 L 13.59375 22.8125 C 13.59375 22.8125 14.739123 22 16 22 C 17.260877 22 18.40625 22.8125 18.40625 22.8125 L 19.59375 21.1875 C 19.59375 21.1875 18.063123 20 16 20 z" fill="#000000"/></svg>
