<?xml version="1.0" encoding="utf-8"?>
<svg xmlns="http://www.w3.org/2000/svg" viewBox="0 0 32 32" fill="#000000"><path style="text-indent:0;text-align:start;line-height:normal;text-transform:none;block-progression:tb;-inkscape-font-specification:Sans" d="M 6 4 C 4.3550302 4 3 5.3550302 3 7 L 3 9 L 3 10 L 4 10 L 20 10 L 21 10 L 21 7 C 21 6.4349698 21.43497 6 22 6 C 22.56503 6 23 6.4349698 23 7 L 23 16.0625 C 21.503506 16.252174 20.122882 16.87953 19 17.78125 L 19 16 L 11 16 L 11 18 L 18.71875 18 C 17.048883 19.468008 16 21.61065 16 24 C 16 24.695043 16.113347 25.356318 16.28125 26 L 9 26 C 8.4349698 26 8 25.56503 8 25 L 8 11 L 6 11 L 6 25 C 6 26.64497 7.3550302 28 9 28 L 17.09375 28 C 18.481052 30.385631 21.050941 32 24 32 C 28.406433 32 32 28.406433 32 24 C 32 19.935134 28.933201 16.561017 25 16.0625 L 25 7 C 25 5.3550302 23.64497 4 22 4 L 6 4 z M 6 6 L 19.1875 6 C 19.073236 6.3157581 19 6.6470169 19 7 L 19 8 L 5 8 L 5 7 C 5 6.4349698 5.4349698 6 6 6 z M 11 12 L 11 14 L 19 14 L 19 12 L 11 12 z M 24 18 C 27.325553 18 30 20.674447 30 24 C 30 27.325553 27.325553 30 24 30 C 20.674447 30 18 27.325553 18 24 C 18 20.674447 20.674447 18 24 18 z M 11 20 L 11 22 L 16 22 L 16 20 L 11 20 z M 23 20 L 23 23 L 20 23 L 20 25 L 23 25 L 23 28 L 25 28 L 25 25 L 28 25 L 28 23 L 25 23 L 25 20 L 23 20 z" fill="#000000"/></svg>
