<?xml version="1.0" encoding="utf-8"?>
<svg xmlns="http://www.w3.org/2000/svg" viewBox="0 0 32 32" fill="#000000"><path d="M 15.40625 4 C 9.06525 4 3.90625 9.159 3.90625 15.5 C 3.90625 21.841 9.06525 27 15.40625 27 C 17.21825 27 18.94175 26.5625 20.46875 25.8125 L 18.75 24.375 C 17.712 24.765 16.57825 25 15.40625 25 C 14.860148 25 14.33366 24.932679 13.8125 24.84375 C 14.637074 24.373774 15.577144 23.73545 16.5625 22.84375 C 18.213803 21.349399 19.960958 19.149089 21.4375 16.03125 C 22.004158 17.609358 22.477882 19.322163 22.75 21.15625 L 19 22 L 25.03125 27 L 28 20 L 24.71875 20.71875 C 24.30005 18.007685 23.500134 15.523592 22.5625 13.375 C 22.885487 12.471563 23.168697 11.500923 23.4375 10.46875 C 23.937857 11.267129 24.346689 12.129133 24.59375 13.0625 C 25.26575 14.6655 25.84925 16.44475 26.28125 18.34375 L 26.5625 18.28125 C 26.7835 17.39225 26.90625 16.457 26.90625 15.5 C 26.90625 9.159 21.74725 4 15.40625 4 z M 15.40625 6 C 15.459044 6 15.50991 5.9991366 15.5625 6 C 15.60683 6.0499058 15.696733 6.1573823 15.75 6.21875 L 15.1875 6.3125 L 14.71875 7 L 15.46875 8.125 L 15.28125 8.6875 L 15.84375 9.25 L 17.1875 8.0625 C 18.160573 9.3973543 19.347255 11.224702 20.40625 13.5 C 19.162702 16.669749 17.600909 18.909326 16.125 20.46875 L 15.6875 20.4375 L 13.9375 19.65625 L 13.28125 20.0625 L 13 19.03125 L 9.34375 17.4375 L 8.21875 17.53125 L 8.375 18.21875 L 7.96875 20.0625 L 8.9375 20.9375 L 9.46875 21.5625 L 11 22.375 L 11.3125 23.21875 L 11.6875 23.6875 C 11.485571 23.771907 11.259293 23.892751 11.125 23.9375 C 11.116593 23.9332 11.102143 23.941825 11.09375 23.9375 C 8.1624219 22.427001 6.1086512 19.445319 5.9375 15.96875 L 6.71875 16.46875 L 7.75 17.5 L 6.40625 15.4375 L 6.78125 14.3125 L 7.90625 14.25 L 8.90625 15.53125 L 8.9375 14.5 L 10.34375 13.6875 L 11.3125 12.75 L 13.15625 12.1875 L 12.53125 11.78125 L 14.3125 10.90625 L 14.03125 10.125 L 13.15625 9.65625 L 12.28125 10.1875 L 11.6875 11.21875 L 11.09375 11.0625 L 10.9375 10.03125 L 11.53125 9.5 L 13.28125 8.53125 L 11.875 8.4375 L 10.375 8.6875 L 10.84375 8.21875 L 9.90625 7.78125 C 11.461012 6.6708748 13.354495 6 15.40625 6 z M 18.5625 6.53125 C 19.804274 6.968195 20.929857 7.6523287 21.875 8.53125 C 21.70135 9.3281212 21.51874 10.095199 21.3125 10.8125 C 20.345552 9.0287203 19.380257 7.6161787 18.5625 6.53125 z M 8.40625 9.125 L 8.375 9.25 L 7.53125 10.1875 C 7.789522 9.8055423 8.0966883 9.4647878 8.40625 9.125 z" fill="#000000"/></svg>
