<?xml version="1.0" encoding="utf-8"?>
<svg xmlns="http://www.w3.org/2000/svg" viewBox="0 0 32 32" fill="#000000"><path style="text-indent:0;text-align:start;line-height:normal;text-transform:none;block-progression:tb;-inkscape-font-specification:Sans" d="M 3.71875 2.28125 L 2.28125 3.71875 L 28.28125 29.71875 L 29.71875 28.28125 L 25.78125 24.34375 L 26.59375 22.65625 L 26.96875 21.84375 L 26.21875 21.375 C 25.013181 20.602605 23 19.314032 23 16.53125 C 23 14.70409 23.775391 13.695709 24.5625 13.03125 C 25.349609 12.366791 26.09375 12.15625 26.09375 12.15625 L 26.96875 11.90625 L 26.78125 11 L 26.15625 7.8125 L 26.03125 7.03125 L 25.25 7 C 25.25 7 20.757289 6.6997214 18.875 3.5 L 18.5625 3 L 18 3 L 14 3 L 13.4375 3 L 13.125 3.5 C 11.917253 5.5519224 9.6866618 6.3980518 8.1875 6.75 L 3.71875 2.28125 z M 14.46875 5 L 17.59375 5 C 19.895079 8.2058028 23.301487 8.7499442 24.34375 8.84375 L 24.71875 10.6875 C 24.285182 10.862789 23.967782 10.894065 23.25 11.5 C 22.131109 12.444541 21 14.10641 21 16.53125 C 21 19.785896 23.049685 21.497642 24.4375 22.46875 L 24.28125 22.84375 L 9.8125 8.375 C 11.347918 7.8290626 13.175915 6.8249308 14.46875 5 z M 5.46875 9.71875 L 5.03125 11.875 L 5.90625 12.15625 C 6.03325 12.19425 9 13.11325 9 16.53125 C 9 19.30825 6.90925 20.652 5.78125 21.375 L 5.03125 21.84375 L 7.03125 26.03125 L 7.6875 26 C 9.1855 25.948 13.4605 26.20575 15.3125 27.96875 L 16 28.625 L 16.6875 27.96875 C 17.8755 26.83875 20.064 26.335 21.875 26.125 L 20.125 24.375 C 18.707 24.653 17.189 25.13575 16 25.96875 C 13.584 24.27575 9.80325 24.027 8.28125 24 L 7.59375 22.5625 C 8.98475 21.5815 11 19.75525 11 16.53125 C 11 16.01325 10.93575 15.54275 10.84375 15.09375 L 5.46875 9.71875 z" overflow="visible" font-family="Sans" fill="#000000"/></svg>
