<?xml version="1.0" encoding="utf-8"?>
<svg xmlns="http://www.w3.org/2000/svg" viewBox="0 0 32 32" fill="#000000"><path style="text-indent:0;text-align:start;line-height:normal;text-transform:none;block-progression:tb;-inkscape-font-specification:Sans" d="M 12.90625 5 C 11.591914 5 10.170655 5.3269493 8.59375 5.9375 L 8.125 6.09375 L 8 6.59375 L 6.21875 12.71875 L 5.71875 14.5 L 7.46875 13.96875 C 8.6322873 13.60762 9.6064823 13.4375 10.46875 13.4375 L 10.53125 13.4375 C 11.991612 13.4472 13.105385 13.89005 14.125 14.46875 L 15.25 15.09375 L 15.59375 13.875 L 17.46875 7.40625 L 17.6875 6.65625 L 17.03125 6.25 C 15.974098 5.5962915 14.640091 5 12.90625 5 z M 12.90625 7 C 13.876636 7 14.61662 7.2719513 15.3125 7.625 L 13.96875 12.21875 C 12.982189 11.795526 11.898258 11.44633 10.5625 11.4375 L 10.53125 11.4375 L 10.46875 11.4375 C 9.8904675 11.4375 9.216362 11.639113 8.59375 11.75 L 9.78125 7.6875 C 10.961385 7.2774178 12.046947 7 12.90625 7 z M 18.96875 7.625 L 18.59375 8.84375 L 16.71875 15.375 L 16.5 16.125 L 17.15625 16.5 C 18.254281 17.169875 19.631736 17.78125 21.34375 17.78125 C 22.53679 17.78125 23.956537 17.731 25.5625 17.0625 L 26 16.875 L 26.125 16.40625 L 27.96875 10 L 28.4375 8.28125 L 26.75 8.75 C 25.564437 9.0710715 24.817623 9 23.75 9 C 22.109708 9 20.964294 8.7554641 20.0625 8.25 L 18.96875 7.625 z M 20.25 10.4375 C 21.287456 10.794389 22.41642 11 23.75 11 C 24.263145 11 25.001295 10.88181 25.625 10.84375 L 24.375 15.25 C 23.299092 15.621191 22.346767 15.78125 21.34375 15.78125 C 20.36805 15.78125 19.610324 15.495628 18.875 15.125 L 20.25 10.4375 z M 10 15.40625 C 8.6362678 15.40625 7.3850038 15.797506 5.8125 16.40625 L 5.34375 16.59375 L 5.21875 17.0625 L 3.375 23.25 L 2.84375 25.03125 L 4.625 24.5 C 5.6733573 24.190915 7.0418505 24 7.90625 24 C 9.4830661 24 10.072428 24.294963 11.15625 24.90625 L 12.25 25.53125 L 12.59375 24.3125 L 14.5 17.75 L 14.71875 17 L 14.0625 16.625 C 12.89485 15.914209 11.586847 15.40625 10 15.40625 z M 10 17.40625 C 10.917934 17.40625 11.646026 17.636328 12.375 18 L 11 22.65625 C 10.151169 22.29066 9.2099739 22 7.90625 22 C 7.2619901 22 6.4812529 22.216516 5.71875 22.34375 L 6.96875 18.1875 C 8.1807922 17.743294 9.1457564 17.40625 10 17.40625 z M 16 17.90625 L 15.65625 19.125 L 13.78125 25.59375 L 13.5625 26.34375 L 14.1875 26.71875 C 15.243335 27.375138 16.607764 28 18.34375 28 C 19.567244 28 20.91548 27.841528 22.53125 27.21875 L 23 27.0625 L 23.125 26.5625 L 24.96875 20.40625 L 25.46875 18.71875 L 23.75 19.15625 C 22.677006 19.422609 21.72926 19.53125 20.875 19.53125 C 19.263524 19.53125 18.115913 19.102163 17.09375 18.53125 L 16 17.90625 z M 17.25 20.75 C 18.277739 21.18383 19.419007 21.53125 20.875 21.53125 C 21.408411 21.53125 22.02449 21.390408 22.59375 21.3125 L 21.375 25.4375 C 20.241661 25.813879 19.281866 26 18.34375 26 C 17.354767 26 16.610931 25.708132 15.90625 25.34375 L 17.25 20.75 z" overflow="visible" font-family="Sans" fill="#000000"/></svg>
