<?xml version="1.0" encoding="utf-8"?>
<svg xmlns="http://www.w3.org/2000/svg" viewBox="0 0 32 32" fill="#000000"><path style="text-indent:0;text-align:start;line-height:normal;text-transform:none;block-progression:tb;-inkscape-font-specification:Sans" d="M 25 2 C 23.699266 2 22.554778 2.8591147 22.15625 4.09375 C 22.15158 4.1082184 22.129462 4.1104251 22.125 4.125 L 19.875 11 L 15 11 C 13.35503 11 12 12.35503 12 14 L 12 15 L 9 15 C 7.3548422 15 6 16.354842 6 18 C 6 19.515574 7.1576432 20.778212 8.625 20.96875 L 7.28125 25 L 4 25 L 4 27 L 8 27 L 8.71875 27 L 8.9375 26.3125 L 10.71875 21 L 14 21 L 14 28 L 10 28 L 10 30 L 20 30 L 20 28 L 16 28 L 16 21 L 22.25 21 L 22.96875 21 L 23.1875 20.3125 L 27.875 5.90625 L 27.875 5.875 C 28.360618 4.3030923 27.445733 2.6112858 25.875 2.125 C 25.589159 2.0352947 25.30431 2 25 2 z M 25 4 C 25.09969 4 25.191091 4.00296 25.28125 4.03125 C 25.816517 4.1969642 26.133132 4.7491577 25.96875 5.28125 L 21.53125 19 L 9 19 C 8.4391578 19 8 18.560842 8 18 C 8 17.439158 8.4391578 17 9 17 L 19.28125 17 L 20.03125 17 L 20.25 16.3125 L 24.03125 4.71875 C 24.156056 4.3110514 24.575977 4 25 4 z M 15 13 L 19.21875 13 L 18.5625 15 L 14 15 L 14 14 C 14 13.43497 14.43497 13 15 13 z" overflow="visible" font-family="Sans" fill="#000000"/></svg>
