<?xml version="1.0" encoding="utf-8"?>
<svg xmlns="http://www.w3.org/2000/svg" viewBox="0 0 32 32" fill="#000000"><path style="text-indent:0;text-align:start;line-height:normal;text-transform:none;block-progression:tb;-inkscape-font-specification:Bitstream Vera Sans" d="M 10 6 L 10 7 L 10 25 L 10 26 L 11 26 L 23 26 L 24 26 L 24 25 L 24 7 L 24 6 L 23 6 L 11 6 L 10 6 z M 12 8 L 22 8 L 22 20 L 12 20 L 12 8 z M 16.90625 9.96875 A 1.0001 1.0001 0 0 0 16.78125 10 A 1.0001 1.0001 0 0 0 16 11 L 16 17 A 1.0001 1.0001 0 1 0 18 17 L 18 11 A 1.0001 1.0001 0 0 0 16.90625 9.96875 z M 12 22 L 22 22 L 22 24 L 12 24 L 12 22 z" overflow="visible" font-family="Bitstream Vera Sans" fill="#000000"/></svg>
