<?xml version="1.0" encoding="utf-8"?>
<svg xmlns="http://www.w3.org/2000/svg" viewBox="0 0 32 32" fill="#000000"><path style="text-indent:0;text-align:start;line-height:normal;text-transform:none;block-progression:tb;-inkscape-font-specification:Bitstream Vera Sans" d="M 10.78125 5 C 7.039792 5 4 8.039792 4 11.78125 C 4 13.43163 4.7921894 15.063133 5.875 16.71875 C 6.9578106 18.374367 8.3807487 20.050411 9.78125 21.53125 C 12.582253 24.492928 15.375 26.78125 15.375 26.78125 L 16 27.28125 L 16.625 26.78125 C 16.625 26.78125 19.418041 24.486762 22.21875 21.53125 C 23.619104 20.053494 25.042204 18.398803 26.125 16.75 C 27.207796 15.101197 28 13.454541 28 11.8125 C 28 8.0325832 24.960208 5 21.21875 5 C 19.119911 5 17.245533 6.0023781 16 7.53125 C 14.754467 6.0023781 12.880089 5 10.78125 5 z M 10.78125 7 C 12.673308 7 14.338175 8.1572165 15.09375 9.78125 L 16 11.71875 L 16.90625 9.78125 C 17.661825 8.1572165 19.326692 7 21.21875 7 C 23.893292 7 26 9.0844168 26 11.8125 C 26 12.741459 25.417204 14.164428 24.4375 15.65625 C 23.457796 17.148072 22.130896 18.732006 20.78125 20.15625 C 18.396131 22.673202 16.524781 24.185985 16 24.625 C 15.475293 24.185976 13.60361 22.677914 11.21875 20.15625 C 9.8692513 18.729339 8.5421894 17.122945 7.5625 15.625 C 6.5828106 14.127055 6 12.72487 6 11.78125 C 6 9.106708 8.106708 7 10.78125 7 z M 11 13 L 16 20.9375 L 21 13 L 18.15625 13 L 16 17.03125 L 13.84375 13 L 11 13 z" overflow="visible" font-family="Bitstream Vera Sans" fill="#000000"/></svg>
