<?xml version="1.0" encoding="utf-8"?>
<svg xmlns="http://www.w3.org/2000/svg" viewBox="0 0 32 32" fill="#000000"><path style="text-indent:0;text-align:start;line-height:normal;text-transform:none;block-progression:tb;-inkscape-font-specification:Sans" d="M 1 9 L 1 10 L 1 25 L 3 25 L 3 23 L 29 23 L 29 25 L 31 25 L 31 10 L 31 9 L 30 9 L 2 9 L 1 9 z M 3 11 L 10 11 L 10 21 L 3 21 L 3 11 z M 12 11 L 20 11 L 20 13 L 12 13 L 12 11 z M 22 11 L 29 11 L 29 21 L 22 21 L 22 11 z M 6 15 L 6 17 L 8 17 L 8 15 L 6 15 z M 12 15 L 20 15 L 20 17 L 12 17 L 12 15 z M 24 15 L 24 17 L 26 17 L 26 15 L 24 15 z M 12 19 L 20 19 L 20 21 L 12 21 L 12 19 z" fill="#000000"/></svg>
