<?xml version="1.0" encoding="utf-8"?>
<svg xmlns="http://www.w3.org/2000/svg" viewBox="0 0 32 32" fill="#000000"><path d="M 16 3 C 15.824 2.9981667 12.182575 2.9861493 9.875 4.78125 C 9.6974209 4.8993253 9.5460834 5.0182841 9.4375 5.125 C 9.351149 5.209866 9.3329548 5.2442739 9.28125 5.3125 C 9.28125 5.3125 9.251628 5.341929 9.25 5.34375 C 9.223045 5.380496 9.15625 5.46875 9.15625 5.46875 C 6.5855965 8.3055116 5.1510933 13.127272 5.03125 16.53125 C 5.0034133 16.6809 5 16.838256 5 17 C 5 20.104 5.96 25.91025 6 26.15625 L 6.15625 27 L 11.8125 27 C 13.868266 28.517003 15.8125 28.96875 15.8125 28.96875 L 16 29.03125 L 16.1875 28.96875 C 16.1875 28.96875 18.131734 28.517003 20.1875 27 L 25.84375 27 L 26 26.15625 C 26.041 25.91025 27 20.104 27 17 C 27 16.838256 26.996587 16.6809 26.96875 16.53125 C 26.848908 13.127272 25.413494 8.3055116 22.84375 5.46875 C 22.84375 5.46875 22.76114 5.3684331 22.71875 5.3125 C 22.667045 5.2442739 22.648851 5.2098655 22.5625 5.125 C 22.453916 5.0182841 22.302579 4.8993253 22.125 4.78125 C 19.818227 2.9877535 16.1815 3.0091667 16 3 z M 13 6 L 16 6 L 19 6 C 20.049385 6 20.61589 6.2146243 20.90625 6.375 C 21.037665 6.4773235 21.169833 6.5695 21.28125 6.6875 C 21.28125 6.6875 21.281473 6.69433 21.40625 6.90625 C 21.531027 7.118174 21.72902 7.4804143 21.9375 8.09375 C 22.354461 9.3204213 22.837006 11.472213 22.96875 15.03125 L 23 16 L 23.96875 16 L 24 16 C 24.56503 16 25 16.43497 25 17 C 25 17.56503 24.56503 18 24 18 C 24.10066 18 24.0673 18.01007 23.90625 18 L 23 17.9375 L 22.875 18.84375 C 21.965858 25.579507 16.542947 26.85656 16 26.96875 C 15.457053 26.85656 10.034142 25.579507 9.125 18.84375 L 9 17.9375 L 8.09375 18 C 7.9326978 18.010066 7.8993401 18 8 18 C 7.4349698 18 7 17.56503 7 17 C 7 16.43497 7.4349698 16 8 16 L 8.03125 16 L 9 16 L 9.03125 15.03125 C 9.1629936 11.472213 9.6455391 9.3204213 10.0625 8.09375 C 10.27098 7.4804143 10.468973 7.118174 10.59375 6.90625 C 10.718527 6.694326 10.71875 6.6875 10.71875 6.6875 L 10.78125 6.625 L 10.84375 6.5625 C 10.87739 6.52944 10.94857 6.4551879 11.09375 6.375 C 11.38411 6.2146243 11.950615 6 13 6 z M 12.5 15 C 11.671573 15 11 15.671573 11 16.5 C 11 17.328427 11.671573 18 12.5 18 C 13.328427 18 14 17.328427 14 16.5 C 14 15.671573 13.328427 15 12.5 15 z M 19.5 15 C 18.671573 15 18 15.671573 18 16.5 C 18 17.328427 18.671573 18 19.5 18 C 20.328427 18 21 17.328427 21 16.5 C 21 15.671573 20.328427 15 19.5 15 z M 16 21 C 13.832805 21 12.375 22.21875 12.375 22.21875 L 13.625 23.78125 C 13.625 23.78125 14.575195 23 16 23 C 17.424805 23 18.375 23.78125 18.375 23.78125 L 19.625 22.21875 C 19.625 22.21875 18.167195 21 16 21 z" fill="#000000"/></svg>
