<?xml version="1.0" encoding="utf-8"?>
<svg xmlns="http://www.w3.org/2000/svg" viewBox="0 0 32 32" fill="#000000"><path style="text-indent:0;text-align:start;line-height:normal;text-transform:none;block-progression:tb;-inkscape-font-specification:Bitstream Vera Sans" d="M 2.5625 5.84375 L 2.3125 6.71875 C 2.3125 6.71875 1 11.387994 1 16 C 1 20.612006 2.3125 25.28125 2.3125 25.28125 L 2.5625 26.15625 L 3.46875 25.96875 C 3.46875 25.96875 9.3201905 24.906866 13.40625 21 L 18.59375 21 C 22.67981 24.906866 28.53125 25.96875 28.53125 25.96875 L 29.4375 26.15625 L 29.6875 25.28125 C 29.6875 25.28125 31 20.612006 31 16 C 31 11.387994 29.6875 6.71875 29.6875 6.71875 L 29.4375 5.84375 L 28.53125 6.03125 C 28.53125 6.03125 22.704034 7.0699236 18.59375 11 L 13.40625 11 C 9.2959657 7.0699236 3.46875 6.03125 3.46875 6.03125 L 2.5625 5.84375 z M 4.03125 8.25 C 5.2171971 8.533419 8.7643286 9.5508046 11.78125 12.3125 C 11.611258 12.684984 11.402815 13.175648 11.25 13.78125 L 8.25 13.03125 L 7.75 14.96875 L 11 15.78125 C 10.998281 15.85865 11 15.920104 11 16 C 11 16.13755 11.026259 16.244807 11.03125 16.375 L 8.71875 17.03125 L 9.28125 18.96875 L 11.3125 18.375 C 11.457604 18.901382 11.627313 19.350195 11.78125 19.6875 C 8.7864974 22.42408 5.2230825 23.460891 4.03125 23.75 C 3.737478 22.573904 3 19.491487 3 16 C 3 12.508513 3.737478 9.4260957 4.03125 8.25 z M 27.96875 8.25 C 28.262522 9.4260957 29 12.508513 29 16 C 29 19.491487 28.262522 22.573904 27.96875 23.75 C 26.776917 23.460891 23.213503 22.42408 20.21875 19.6875 C 20.372687 19.350195 20.542396 18.901382 20.6875 18.375 L 22.71875 18.96875 L 23.28125 17.03125 L 20.96875 16.375 C 20.973741 16.244807 21 16.13755 21 16 C 21 15.920104 21.001719 15.85865 21 15.78125 L 24.25 14.96875 L 23.75 13.03125 L 20.75 13.78125 C 20.597185 13.175648 20.388741 12.684984 20.21875 12.3125 C 23.235671 9.5508046 26.782803 8.533419 27.96875 8.25 z M 13.625 13 L 18.375 13 C 18.624982 13.561083 19 14.600002 19 16 C 19 17.399998 18.624982 18.438917 18.375 19 L 13.625 19 C 13.375018 18.438917 13 17.399998 13 16 C 13 14.600002 13.375018 13.561083 13.625 13 z" fill="#000000"/></svg>
