<?xml version="1.0" encoding="utf-8"?>
<svg xmlns="http://www.w3.org/2000/svg" viewBox="0 0 32 32" fill="#000000"><path style="text-indent:0;text-align:start;line-height:normal;text-transform:none;block-progression:tb;-inkscape-font-specification:Bitstream Vera Sans" d="M 9 6 L 9 9.09375 C 8.3657731 9.2244476 7.7749117 9.4944983 7.25 9.84375 L 5.0625 7.625 L 3.625 9.0625 L 5.84375 11.25 C 5.4944983 11.774912 5.2244476 12.365773 5.09375 13 L 2 13 L 2 15 L 5.125 15 C 5.2539822 15.627042 5.5090051 16.200057 5.84375 16.71875 L 3.625 18.9375 L 4.25 19.5625 C 4.1121813 20.019304 4 20.498884 4 21 C 4 23.757 6.243 26 9 26 L 25 26 C 27.757 26 30 23.757 30 21 C 30 18.981 28.78775 17.18125 26.96875 16.40625 C 26.68575 13.98825 24.6575 12.097 22.1875 12 C 21.1255 10.154 19.166 9 17 9 C 16.774273 9 16.563992 9.0064318 16.34375 9.03125 L 14.9375 7.625 L 12.75 9.84375 C 12.226155 9.5084134 11.62957 9.2538501 11 9.125 L 11 6 L 9 6 z M 10 11 C 10.766859 11 11.445246 11.284939 11.96875 11.75 C 11.706724 12.154287 11.472279 12.596038 11.3125 13.0625 C 9.7295 13.3335 8.45975 14.54475 8.09375 16.09375 C 8.0405228 16.103378 7.9901308 16.113696 7.9375 16.125 C 7.3788851 15.581248 7 14.847808 7 14 C 7 12.331516 8.3315161 11 10 11 z M 17 11 C 18.605 11 20.0565 11.9595 20.6875 13.4375 L 20.96875 14.125 L 21.875 14.03125 C 21.919 14.02425 21.954 14 22 14 C 23.654 14 24.997 15.3525 25 16.9375 L 24.96875 17.90625 L 25.75 18.09375 C 27.081 18.43275 28 19.636 28 21 C 28 22.654 26.654 24 25 24 L 9 24 C 7.346 24 6 22.654 6 21 C 6 19.346 7.346 18 9 18 L 10 18 L 10 17 C 10 15.897 10.89325 15.005 11.90625 15 L 12.90625 15.0625 L 13.09375 14.21875 C 13.46775 12.35975 15.103 11 17 11 z" fill="#000000"/></svg>
