<?xml version="1.0" encoding="utf-8"?>
<svg xmlns="http://www.w3.org/2000/svg" viewBox="0 0 32 32" fill="#000000"><path style="text-indent:0;text-align:start;line-height:normal;text-transform:none;block-progression:tb;-inkscape-font-specification:Bitstream Vera Sans" d="M 21.09375 5.1875 L 5.5625 11.625 L 5 11.84375 L 4.9375 12.4375 L 4 20.625 L 3.9375 21.1875 L 4.375 21.53125 L 10.84375 26.65625 L 11.3125 27.03125 L 11.84375 26.8125 L 27.375 20.375 L 26.625 18.53125 L 11.625 24.71875 L 6.0625 20.3125 L 6.875 13.25 L 21.875 7.03125 L 21.09375 5.1875 z M 25.28125 9.375 L 23.9375 9.90625 L 25.09375 13.75 L 23.03125 10.3125 L 21.75 10.8125 L 22.78125 14.71875 L 20.84375 11.21875 L 19.5 11.78125 L 22.59375 16.71875 L 24.125 16.09375 L 23.09375 12.3125 L 23.125 12.3125 L 25.0625 15.6875 L 26.59375 15.0625 L 25.28125 9.375 z M 17.90625 12.5 C 17.622891 12.491047 17.28575 12.572 16.875 12.75 C 15.224 13.465 15.6065 14.57 15.8125 15.125 C 16.5905 17.015 18.517 15.59325 19 16.65625 C 19.196 17.08725 18.894 17.28175 18.75 17.34375 C 18.195 17.58275 18 16.78125 18 16.78125 L 16.65625 17.34375 L 16.71875 17.53125 C 17.34075 19.13325 18.792 18.35 19.125 18.25 C 20.888 17.514 20.57875 16.443 20.34375 15.875 C 19.55275 13.942 17.44325 15.3405 17.03125 14.3125 C 16.98325 14.1935 16.91425 13.80725 17.28125 13.65625 C 17.74325 13.46625 17.96775 14.21875 17.96875 14.21875 L 19.28125 13.65625 C 19.09675 13.2265 18.756328 12.526859 17.90625 12.5 z M 14.34375 13.90625 L 13 14.4375 L 14.15625 18.28125 L 12.09375 14.84375 L 10.8125 15.34375 L 11.84375 19.25 L 9.90625 15.75 L 8.5625 16.3125 L 11.65625 21.25 L 13.1875 20.625 L 12.15625 16.84375 L 12.1875 16.84375 L 14.125 20.21875 L 15.65625 19.59375 L 14.34375 13.90625 z" overflow="visible" font-family="Bitstream Vera Sans" fill="#000000"/></svg>
