<?xml version="1.0" encoding="utf-8"?>
<svg xmlns="http://www.w3.org/2000/svg" viewBox="0 0 32 32" fill="#000000"><path d="M 16 4 C 14.89543 4 14 4.8954305 14 6 C 14 7.1045695 14.89543 8 16 8 C 17.104569 8 18 7.1045695 18 6 C 18 4.8954305 17.104569 4 16 4 z M 23.0625 6.65625 C 21.819859 6.65625 20.8125 7.6636093 20.8125 8.90625 C 20.8125 10.148891 21.819859 11.15625 23.0625 11.15625 C 24.305141 11.15625 25.3125 10.148891 25.3125 8.90625 C 25.3125 7.6636093 24.305141 6.65625 23.0625 6.65625 z M 8.90625 7.1875 C 7.9397517 7.1875 7.15625 7.9710017 7.15625 8.9375 C 7.15625 9.9039983 7.9397517 10.6875 8.90625 10.6875 C 9.8727483 10.6875 10.65625 9.9039983 10.65625 8.9375 C 10.65625 7.9710017 9.8727483 7.1875 8.90625 7.1875 z M 26 13.5 C 24.619288 13.5 23.5 14.619288 23.5 16 C 23.5 17.380712 24.619288 18.5 26 18.5 C 27.380712 18.5 28.5 17.380712 28.5 16 C 28.5 14.619288 27.380712 13.5 26 13.5 z M 6 14.5 C 5.1715729 14.5 4.5 15.171573 4.5 16 C 4.5 16.828428 5.1715729 17.5 6 17.5 C 6.8284271 17.5 7.5 16.828428 7.5 16 C 7.5 15.171573 6.8284271 14.5 6 14.5 z M 23.09375 20.0625 C 21.436895 20.0625 20.09375 21.405646 20.09375 23.0625 C 20.09375 24.719354 21.436895 26.0625 23.09375 26.0625 C 24.750604 26.0625 26.09375 24.719354 26.09375 23.0625 C 26.09375 21.405646 24.750604 20.0625 23.09375 20.0625 z M 8.6875 21.84375 C 8.1178961 21.960308 7.6875 22.489688 7.6875 23.09375 C 7.6875 23.784106 8.2471441 24.34375 8.9375 24.34375 C 9.627856 24.34375 10.1875 23.784106 10.1875 23.09375 C 10.1875 22.403394 9.627856 21.84375 8.9375 21.84375 C 8.8512055 21.84375 8.768872 21.827099 8.6875 21.84375 z M 16 25 C 15.447716 25 15 25.447715 15 26 C 15 26.552285 15.447716 27 16 27 C 16.552285 27 17 26.552285 17 26 C 17 25.447715 16.552285 25 16 25 z" fill="#000000"/></svg>
