<?xml version="1.0" encoding="utf-8"?>
<svg xmlns="http://www.w3.org/2000/svg" viewBox="0 0 32 32" fill="#000000"><path style="text-indent:0;text-align:start;line-height:normal;text-transform:none;block-progression:tb;-inkscape-font-specification:Sans" d="M 5 5 L 5 6 L 5 26 L 5 27 L 6 27 L 26 27 L 27 27 L 27 26 L 27 6 L 27 5 L 26 5 L 6 5 L 5 5 z M 7 7 L 25 7 L 25 25 L 7 25 L 7 7 z M 9 11 L 9 12 L 9 21 L 11 21 L 11 17 L 13 17 L 13 15 L 11 15 L 11 13 L 14 13 L 14 11 L 10 11 L 9 11 z M 15 13 L 15 14 L 15 14.15625 L 15.0625 14.3125 L 17 20.3125 L 17.21875 21 L 17.9375 21 L 18.0625 21 L 18.78125 21 L 19 20.3125 L 19.5 18.71875 L 20 20.3125 L 20.21875 21 L 20.9375 21 L 21.0625 21 L 21.78125 21 L 22 20.3125 L 23.9375 14.3125 L 24 14.15625 L 24 14 L 24 13 L 22 13 L 22 13.875 L 21.03125 16.84375 L 20.5 15.1875 L 20.28125 14.5 L 19.5625 14.5 L 19.4375 14.5 L 18.71875 14.5 L 18.5 15.1875 L 17.96875 16.84375 L 17 13.875 L 17 13 L 15 13 z" overflow="visible" font-family="Sans" fill="#000000"/></svg>
