<?xml version="1.0" encoding="utf-8"?>
<svg xmlns="http://www.w3.org/2000/svg" viewBox="0 0 32 32" fill="#000000"><path style="text-indent:0;text-align:start;line-height:normal;text-transform:none;block-progression:tb;-inkscape-font-specification:Bitstream Vera Sans" d="M 17 5 C 16.477778 5 15.939531 5.1854695 15.5625 5.5625 C 15.185469 5.9395305 15 6.4777778 15 7 L 15 8 C 15 8.2709563 15.179142 8.4965697 15.28125 8.75 C 15.098008 8.9113237 14.926806 9.0526356 14.75 9.25 C 14.373416 9.6703732 14.038348 10.204607 13.75 10.8125 C 12.958729 10.286445 12.015835 10 11 10 C 8.2504839 10 6 12.250484 6 15 L 5 15 L 4 15 L 4 16 L 4 18 L 4 18.1875 L 4.0625 18.34375 L 7.0625 26.34375 L 7.3125 27 L 8 27 L 24 27 L 24.6875 27 L 24.9375 26.34375 L 27.9375 18.34375 L 28 18.1875 L 28 18 L 28 16 L 28 15 L 27 15 L 25 15 L 25 13.90625 C 25 12.605373 24.414722 11.287136 23.71875 10.1875 C 23.392454 9.6719527 23.039378 9.2529284 22.65625 8.875 C 22.796772 8.5866711 23 8.3180419 23 8 L 23 7 C 23 6.4777778 22.814531 5.9395305 22.4375 5.5625 C 22.060469 5.1854695 21.522222 5 21 5 L 17 5 z M 17 7 L 21 7 L 21 8 L 17 8 L 17 7 z M 17 10 L 20.875 10 C 20.835456 10.007394 21.00471 10.045537 21.1875 10.21875 C 21.431217 10.449701 21.754236 10.843568 22.03125 11.28125 C 22.585278 12.156614 23 13.307127 23 13.90625 L 23 15 L 16 15 C 16 14.059963 15.737374 13.190879 15.28125 12.4375 C 15.504356 11.648109 15.843648 11.012468 16.21875 10.59375 C 16.560609 10.212141 16.939652 10.044132 17 10 z M 11 12 C 12.668484 12 14 13.331516 14 15 L 8 15 C 8 13.331516 9.3315161 12 11 12 z M 6 17 L 26 17 L 26 17.8125 L 23.3125 25 L 8.6875 25 L 6 17.8125 L 6 17 z M 16 18 C 15.447715 18 15 18.447715 15 19 C 15 19.552285 15.447715 20 16 20 C 16.552285 20 17 19.552285 17 19 C 17 18.447715 16.552285 18 16 18 z" overflow="visible" font-family="Bitstream Vera Sans" fill="#000000"/></svg>
