<?xml version="1.0" encoding="utf-8"?>
<svg xmlns="http://www.w3.org/2000/svg" viewBox="0 0 32 32" fill="#000000"><path style="line-height:normal;text-indent:0;text-align:start;text-decoration-line:none;text-decoration-style:solid;text-decoration-color:#000;text-transform:none;block-progression:tb;isolation:auto;mix-blend-mode:normal" d="M 16 3.0058594 C 12.670916 3.0059175 9.3408164 4.2743294 6.8066406 6.8085938 C 1.7382887 11.877122 1.740065 20.125007 6.8085938 25.193359 C 11.877122 30.26171 20.125007 30.259935 25.193359 25.191406 C 30.26171 20.122877 30.259934 11.874992 25.191406 6.8066406 C 22.657142 4.2724647 19.329084 3.0058013 16 3.0058594 z M 16 4.9941406 C 18.813052 4.9940915 21.625235 6.0706224 23.777344 8.2226562 C 28.081562 12.526724 28.081412 19.473126 23.777344 23.777344 C 19.473277 28.081562 12.526874 28.081412 8.2226562 23.777344 C 3.9184384 19.473277 3.9185886 12.526874 8.2226562 8.2226562 C 10.37469 6.0705473 13.186948 4.9941897 16 4.9941406 z M 11.757812 10.34375 L 10.34375 11.757812 L 17.414062 18.828125 L 15.292969 20.949219 L 20.949219 20.949219 L 20.949219 15.292969 L 18.828125 17.414062 L 11.757812 10.34375 z" font-weight="400" font-family="sans-serif" white-space="normal" overflow="visible" fill="#000000"/></svg>
