<?xml version="1.0" encoding="utf-8"?>
<svg xmlns="http://www.w3.org/2000/svg" viewBox="0 0 32 32" fill="#000000"><path style="text-indent:0;text-align:start;line-height:normal;text-transform:none;block-progression:tb;-inkscape-font-specification:Sans" d="M 16 3 C 8.8321429 3 3 8.8321429 3 16 C 3 23.167857 8.8321429 29 16 29 C 23.167857 29 29 23.167857 29 16 C 29 8.8321429 23.167857 3 16 3 z M 16 5 C 22.086977 5 27 9.9130231 27 16 C 27 22.086977 22.086977 27 16 27 C 9.9130231 27 5 22.086977 5 16 C 5 9.9130231 9.9130231 5 16 5 z M 16 6 C 10.488997 6 6 10.488997 6 16 C 6 21.511003 10.488997 26 16 26 C 21.511003 26 26 21.511003 26 16 C 26 10.488997 21.511003 6 16 6 z M 16 8 C 20.430123 8 24 11.569877 24 16 C 24 20.430123 20.430123 24 16 24 C 11.569877 24 8 20.430123 8 16 C 8 11.569877 11.569877 8 16 8 z M 14 11 L 14 14 L 15 15 L 14 16 L 14 21 L 18 21 L 18 18 L 17 17 L 18 16 L 18 11 L 14 11 z" overflow="visible" font-family="Sans" fill="#000000"/></svg>
