<?xml version="1.0" encoding="utf-8"?>
<svg xmlns="http://www.w3.org/2000/svg" viewBox="0 0 32 32" fill="#000000"><path style="line-height:normal;text-indent:0;text-align:start;text-decoration-line:none;text-decoration-style:solid;text-decoration-color:#000;text-transform:none;block-progression:tb;isolation:auto;mix-blend-mode:normal" d="M 11.189453 2.0019531 C 11.057085 2.0060811 10.938084 2.0297475 10.837891 2.0605469 C 10.437117 2.1837442 10.214767 2.3850042 9.984375 2.6113281 C 9.5235903 3.063976 9.1057888 3.6933551 8.7539062 4.4726562 C 8.1914764 5.7182488 7.8368729 7.3910143 8.2988281 9.046875 C 7.7658465 9.1653277 7.2176976 9.3013312 6.6992188 9.4667969 C 6.1063691 9.655997 5.5518542 9.8725591 5.0664062 10.195312 C 4.5838599 10.516137 4.0694771 11.044279 4.0527344 11.806641 C 4.0355764 12.451913 4.404504 12.893349 4.71875 13.167969 C 4.868973 13.299249 5.0259389 13.364598 5.1816406 13.460938 C 4.9998696 13.607378 4.813341 13.734845 4.6464844 13.919922 C 4.360953 14.236632 4.0488281 14.641053 4.0488281 15.271484 C 4.0488281 15.780033 4.2802445 16.181819 4.5136719 16.458984 C 4.6168539 16.5815 4.7258583 16.641319 4.8339844 16.734375 C 4.5784805 16.953659 4.3114609 17.087928 4.0800781 17.357422 C 3.4905854 18.044009 3 18.940516 3 20 C 3 20.496373 3.1394868 20.965398 3.4023438 21.294922 C 3.6643042 21.623322 3.9883134 21.765187 4.0332031 21.789062 C 4.3955178 21.984949 4.50951 21.9368 4.6621094 21.927734 C 4.5122616 22.384087 4.3492069 22.855063 4.2890625 23.304688 C 4.1434851 24.392816 4.1634028 25.162785 4.4804688 25.832031 C 4.7975347 26.501277 5.6031262 26.887904 6.1757812 26.861328 C 6.6564769 26.83902 6.9704911 26.665526 7.2578125 26.513672 C 9.5368717 28.608841 12.99753 30 16.015625 30 C 19.143232 30 22.710655 28.752422 24.947266 26.443359 C 25.240533 26.592038 25.510239 26.766531 25.890625 26.847656 L 26.304688 26.935547 L 26.654297 26.699219 C 27.210251 26.327266 27.349713 25.871383 27.494141 25.394531 C 27.638568 24.917679 27.721626 24.382805 27.751953 23.810547 C 27.790773 23.078075 27.697683 22.304841 27.519531 21.548828 C 27.606731 21.524368 27.674977 21.538509 27.763672 21.505859 C 28.030326 21.407709 28.317064 21.26579 28.574219 20.990234 C 28.831373 20.71468 29.014571 20.269869 29 19.851562 L 29 19.849609 C 28.95328 18.55332 28.337379 17.443874 27.783203 16.615234 C 27.718863 16.519024 27.717783 16.541874 27.654297 16.453125 C 27.748847 16.407245 27.83417 16.395635 27.931641 16.332031 C 28.231652 16.136249 28.622701 15.766735 28.675781 15.185547 C 28.747501 14.401219 28.419804 14.129784 28.132812 13.730469 C 27.845821 13.3312 27.474591 12.9127 27.048828 12.476562 C 26.241712 11.649779 25.246895 10.790358 24.324219 10.113281 C 24.711525 8.8783157 24.733296 7.653995 24.582031 6.5996094 C 24.391848 5.2739421 23.96447 4.2221543 23.560547 3.5625 C 23.457086 3.3936824 23.269383 3.1855006 22.992188 3.0742188 C 22.714992 2.9629368 22.408537 2.986363 22.207031 3.0507812 C 21.80402 3.1796177 21.659638 3.3639477 21.503906 3.5292969 C 21.192443 3.8599952 20.936184 4.2464841 20.628906 4.6894531 C 20.210123 5.2931669 19.718702 5.9722275 19.224609 6.5234375 C 18.94426 6.3315212 18.59617 6.1674338 18.126953 6.1191406 C 17.614863 6.0182552 16.962278 6.1284997 16.636719 6.4882812 C 16.382452 6.7692754 16.353352 7.0325556 16.291016 7.2949219 C 15.909258 7.119261 15.480304 6.955367 15.001953 6.8339844 C 14.284873 5.877547 13.117004 4.2376344 12.302734 2.6582031 C 12.181832 2.4236688 11.922311 2.1668881 11.619141 2.0644531 C 11.467555 2.0132356 11.321821 1.9978251 11.189453 2.0019531 z M 11.105469 4.4726562 C 11.569333 5.2643124 12.057706 6.0436985 12.513672 6.7402344 C 12.044425 6.8552192 11.607224 7.0685154 11.279297 7.4472656 C 10.896735 7.8891467 10.900241 8.266127 10.882812 8.5683594 L 10.267578 8.6621094 C 9.8977112 7.5239038 10.132809 6.2768203 10.576172 5.2949219 C 10.748639 4.9129643 10.926472 4.7142305 11.105469 4.4726562 z M 22.261719 5.8457031 C 22.389187 6.2210014 22.533903 6.4131449 22.601562 6.8847656 C 22.740208 7.8511805 22.676173 8.9386025 22.234375 9.9785156 C 22.202877 9.9927146 22.169694 10.002283 22.138672 10.017578 C 21.705085 9.3628568 21.231964 8.6097995 20.671875 7.9199219 C 21.313547 7.2241535 21.837062 6.4582583 22.261719 5.8457031 z M 18.130859 8.1875 C 18.325703 8.3348708 18.559074 8.5559429 18.736328 8.7402344 C 19.489185 9.5249141 20.589562 11.231674 21.136719 12.027344 L 22.144531 13.492188 L 22.873047 11.871094 C 22.953927 11.691273 23.015946 11.714995 23.179688 11.765625 C 23.983681 12.360391 24.910447 13.147084 25.619141 13.873047 C 25.963935 14.226243 26.232454 14.545341 26.427734 14.804688 C 26.153693 14.872877 25.853516 14.919922 25.853516 14.919922 L 23.806641 15.132812 L 25.240234 16.611328 C 25.240234 16.611328 25.671769 17.056656 26.121094 17.728516 C 26.515934 18.318907 26.794847 19.045226 26.892578 19.65625 C 26.702045 19.70156 26.461706 19.74861 26.185547 19.763672 L 24.642578 19.847656 L 25.351562 21.220703 C 25.642914 21.784919 25.800502 22.82389 25.753906 23.703125 C 25.735686 24.046985 25.675225 24.320523 25.617188 24.572266 C 25.464876 24.496346 25.427581 24.492486 25.199219 24.378906 L 24.476562 24.019531 L 23.972656 24.650391 C 22.396562 26.621575 18.801344 28 16.015625 28 C 13.451809 28 9.8095121 26.469653 8.109375 24.632812 L 7.4785156 23.951172 L 6.7519531 24.529297 C 6.7519531 24.529297 6.6475278 24.612687 6.4804688 24.707031 C 6.3986367 24.753251 6.3610143 24.755813 6.2851562 24.783203 C 6.2480982 24.64042 6.1680512 24.343434 6.2714844 23.570312 C 6.2981194 23.371196 6.4828217 22.715837 6.6582031 22.197266 C 6.8335845 21.678694 6.9960937 21.251953 6.9960938 21.251953 L 7.5839844 19.716797 L 5.9492188 19.900391 C 5.9492188 19.900391 5.6437083 19.934695 5.3203125 19.953125 C 5.207419 19.959525 5.1131363 19.960238 5.0175781 19.960938 C 5.0293041 19.533856 5.2195216 19.100573 5.5976562 18.660156 C 5.9871636 18.206494 6.5408915 17.7867 7.0429688 17.480469 L 8.7773438 16.421875 L 6.8808594 15.693359 C 6.8808594 15.693359 6.5955232 15.578155 6.3320312 15.40625 C 6.2442009 15.348967 6.1966439 15.300677 6.140625 15.25 C 6.2641142 15.114991 6.4802419 14.935243 6.7109375 14.773438 C 7.1800909 14.444382 7.6699219 14.197266 7.6699219 14.197266 L 9.9726562 13.050781 L 7.5 12.341797 C 7.5 12.341797 7.010995 12.195829 6.5585938 11.978516 C 6.4402897 11.921686 6.3792566 11.870788 6.2851562 11.8125 C 6.5157185 11.675621 6.8594966 11.515747 7.3066406 11.373047 C 8.2938629 11.057988 9.5769735 10.820462 10.517578 10.646484 C 10.522178 10.645633 10.528613 10.643378 10.533203 10.642578 L 11.541016 10.490234 C 11.743979 10.465034 11.942932 10.443624 12.123047 10.427734 L 13.826172 10.277344 L 12.859375 8.8671875 C 12.776455 8.746164 12.786976 8.7411792 12.791016 8.7578125 L 12.792969 8.7558594 C 12.817929 8.7270274 12.9256 8.6343306 13.355469 8.6308594 C 14.862477 8.6227094 16.142705 9.4332338 16.552734 9.7324219 L 18.443359 11.111328 L 18.134766 8.7910156 C 18.13012 8.7562456 18.12943 8.443682 18.130859 8.1875 z M 16 13.21875 C 12.791111 13.21875 10.111328 15.704224 10.111328 18.820312 C 10.111328 21.936401 12.791111 24.423828 16 24.423828 C 19.208889 24.423828 21.888672 21.936401 21.888672 18.820312 C 21.888672 15.704225 19.208889 13.21875 16 13.21875 z M 16 15.21875 C 18.191111 15.21875 19.888672 16.852401 19.888672 18.820312 C 19.888672 20.788224 18.191111 22.423828 16 22.423828 C 13.808889 22.423828 12.111328 20.788224 12.111328 18.820312 C 12.111328 16.852401 13.808889 15.21875 16 15.21875 z M 16 17 C 15.558 17 15.157937 17.170312 14.835938 17.445312 C 15.486937 17.505312 16 17.940328 16 18.486328 C 16 19.074328 15.414359 19.548828 14.693359 19.548828 C 14.495359 19.548828 14.309578 19.506406 14.142578 19.441406 C 14.310578 20.390406 15.077 21.107422 16 21.107422 C 17.045 21.107422 17.894531 20.189687 17.894531 19.054688 C 17.894531 17.919687 17.045 17 16 17 z" font-weight="400" font-family="sans-serif" white-space="normal" overflow="visible" fill="#000000"/></svg>
