<?xml version="1.0" encoding="utf-8"?>
<svg xmlns="http://www.w3.org/2000/svg" viewBox="0 0 32 32" fill="#000000"><path style="text-indent:0;text-align:start;line-height:normal;text-transform:none;block-progression:tb;-inkscape-font-specification:Sans" d="M 16 3 C 13.723473 3 11.657619 3.2341004 10.09375 3.625 C 9.3118157 3.8204498 8.6672523 4.0544831 8.125 4.375 C 7.5827477 4.6955169 7 5.1834785 7 6 L 7 8 C 7 8.0112023 6.9997822 8.020171 7 8.03125 C 6.0774657 8.2699964 5.2364543 8.5232223 4.59375 8.875 C 4.1796942 9.1016293 3.8248688 9.3535634 3.53125 9.6875 C 3.2376312 10.021437 3 10.491357 3 11 C 3 11.94847 3.6944334 12.592064 4.4375 13.03125 C 4.8472092 13.273407 5.3397293 13.498787 5.875 13.6875 C 5.3128872 15.010776 5 16.475541 5 18 C 5 24.063407 9.9365932 29 16 29 C 22.063407 29 27 24.063407 27 18 C 27 16.474854 26.687096 15.010538 26.125 13.6875 C 26.660271 13.498787 27.152791 13.273407 27.5625 13.03125 C 28.305567 12.592064 29 11.94847 29 11 C 29 10.491357 28.762369 10.021437 28.46875 9.6875 C 28.175131 9.3535634 27.820306 9.1016293 27.40625 8.875 C 26.763545 8.5232223 25.922534 8.2699964 25 8.03125 C 25.000218 8.020171 25 8.0112023 25 8 L 25 6 C 25 5.1834785 24.417252 4.6955169 23.875 4.375 C 23.332748 4.0544831 22.688184 3.8204498 21.90625 3.625 C 20.342381 3.2341004 18.276527 3 16 3 z M 16 5 C 18.141473 5 20.074619 5.2296496 21.40625 5.5625 C 22.072066 5.7289252 22.607565 5.9356732 22.875 6.09375 C 22.979365 6.1554385 22.98765 6.1779902 23 6.1875 L 23 7.8125 C 22.98765 7.8220098 22.979365 7.8445615 22.875 7.90625 C 22.607565 8.0643268 22.072066 8.2710748 21.40625 8.4375 C 20.074619 8.7703504 18.141473 9 16 9 C 13.858527 9 11.925381 8.7703504 10.59375 8.4375 C 9.9279343 8.2710748 9.3924352 8.0643268 9.125 7.90625 C 9.020635 7.8445615 9.0123501 7.8220098 9 7.8125 L 9 6.1875 C 9.0123501 6.1779902 9.020635 6.1554385 9.125 6.09375 C 9.3924352 5.9356732 9.9279343 5.7289252 10.59375 5.5625 C 11.925381 5.2296496 13.858527 5 16 5 z M 8.28125 9.6875 C 8.7941392 9.9683625 9.3770397 10.195853 10.09375 10.375 C 11.657619 10.7659 13.723473 11 16 11 C 18.276527 11 20.342381 10.7659 21.90625 10.375 C 22.617682 10.197173 23.208344 9.9965328 23.71875 9.71875 A 0.98859885 0.98859885 0 0 0 23.78125 9.71875 C 24.952179 9.9805994 25.879362 10.319509 26.4375 10.625 C 26.716569 10.777746 26.895963 10.917218 26.96875 11 C 26.945674 11.036937 26.85446 11.139938 26.5625 11.3125 C 26.091035 11.591157 25.278427 11.899158 24.25 12.15625 C 22.193145 12.670434 19.246725 13 16 13 C 12.753275 13 9.8068549 12.670434 7.75 12.15625 C 6.7215726 11.899158 5.9089647 11.591157 5.4375 11.3125 C 5.1455423 11.139939 5.0543265 11.036938 5.03125 11 C 5.1040375 10.917218 5.2834308 10.777746 5.5625 10.625 C 6.1206384 10.319509 7.0478206 9.9805994 8.21875 9.71875 A 0.98859885 0.98859885 0 0 0 8.28125 9.6875 z M 7.875 14.21875 C 10.087957 14.708536 12.892245 15 16 15 C 19.107755 15 21.912043 14.708536 24.125 14.21875 C 24.664401 15.36999 25 16.641872 25 18 C 25 18.567009 24.943303 19.118738 24.84375 19.65625 L 23.375 19.0625 C 23.375 19.0625 22.13241 18.570039 20.75 18.0625 C 20.058795 17.80873 19.33182 17.540414 18.6875 17.34375 C 18.04318 17.147086 17.577909 17 17 17 C 15.35503 17 14 18.35503 14 20 C 14 21.64497 15.35503 23 17 23 C 17.577909 23 18.04318 22.852914 18.6875 22.65625 C 19.33182 22.459586 20.058795 22.19127 20.75 21.9375 C 22.13241 21.429961 23.375 20.9375 23.375 20.9375 L 24.65625 20.40625 C 23.606943 24.213495 20.147799 27 16 27 C 11.017407 27 7 22.982593 7 18 C 7 16.64278 7.3356315 15.370167 7.875 14.21875 z M 13 15 C 12.447715 15 12 15.447715 12 16 C 12 16.552285 12.447715 17 13 17 C 13.552285 17 14 16.552285 14 16 C 14 15.447715 13.552285 15 13 15 z M 20 15 C 19.447715 15 19 15.447715 19 16 C 19 16.552285 19.447715 17 20 17 C 20.552285 17 21 16.552285 21 16 C 21 15.447715 20.552285 15 20 15 z M 17 19 C 16.97459 19 17.540726 19.102914 18.125 19.28125 C 18.709274 19.459586 19.39183 19.69127 20.0625 19.9375 C 20.14456 19.96763 20.13792 19.96997 20.21875 20 C 20.13792 20.03003 20.14456 20.03237 20.0625 20.0625 C 19.39183 20.30873 18.709274 20.540414 18.125 20.71875 C 17.540726 20.897086 16.974591 21 17 21 C 16.43497 21 16 20.56503 16 20 C 16 19.43497 16.43497 19 17 19 z M 14.1875 22.84375 L 12.75 24.25 C 15.084975 26.584975 18.915025 26.584975 21.25 24.25 L 19.84375 22.84375 C 18.272725 24.414775 15.758525 24.414775 14.1875 22.84375 z" overflow="visible" font-family="Sans" fill="#000000"/></svg>
