<?xml version="1.0" encoding="utf-8"?>
<svg xmlns="http://www.w3.org/2000/svg" viewBox="0 0 32 32" fill="#000000"><path style="text-indent:0;text-align:start;line-height:normal;text-transform:none;block-progression:tb;-inkscape-font-specification:Sans" d="M 5 5 L 5 6 L 5 26 L 5 27 L 6 27 L 26 27 L 27 27 L 27 26 L 27 6 L 27 5 L 26 5 L 6 5 L 5 5 z M 7 7 L 25 7 L 25 25 L 7 25 L 7 7 z M 15 10 C 12.250421 10 10 12.250421 10 15 C 10 17.749579 12.250421 20 15 20 C 15.990592 20 16.908376 19.721044 17.6875 19.21875 L 20.5625 22 L 21.9375 20.5625 L 19.125 17.8125 C 19.680518 17.007131 20 16.046587 20 15 C 20 12.250421 17.749579 10 15 10 z M 15 12 C 16.668699 12 18 13.331301 18 15 C 18 16.668699 16.668699 18 15 18 C 13.331301 18 12 16.668699 12 15 C 12 13.331301 13.331301 12 15 12 z" overflow="visible" font-family="Sans" fill="#000000"/></svg>
