<?xml version="1.0" encoding="utf-8"?>
<svg xmlns="http://www.w3.org/2000/svg" viewBox="0 0 32 32" fill="#000000"><path style="text-indent:0;text-align:start;line-height:normal;text-transform:none;block-progression:tb;-inkscape-font-specification:Sans" d="M 3 3 L 3 4 L 3 24 L 3 25 L 4 25 L 7.25 25 L 7.25 24.46875 C 7.4227344 23.937469 7.67525 23.4365 8 23 L 7.25 23 L 5 23 L 5 21 L 7 21 L 7 19 L 5 19 L 5 9 L 7 9 L 7 7 L 5 7 L 5 5 L 27 5 L 27 7 L 25 7 L 25 9 L 27 9 L 27 19 L 25 19 L 25 21 L 27 21 L 27 23 L 26 23 L 24.75 23 L 24 23 C 24.32475 23.4365 24.577547 23.937469 24.75 24.46875 L 24.75 25 L 24.90625 25 L 26 25 L 28 25 L 29 25 L 29 24 L 29 4 L 29 3 L 28 3 L 4 3 L 3 3 z M 9 7 L 9 9 L 11 9 L 11 7 L 9 7 z M 13 7 L 13 9 L 15 9 L 15 7 L 13 7 z M 17 7 L 17 9 L 19 9 L 19 7 L 17 7 z M 21 7 L 21 9 L 23 9 L 23 7 L 21 7 z M 10 13 L 10 16 L 14.59375 21 L 12.6875 23 L 12 23 C 10.3 23 9 24.3 9 26 C 9 27.7 10.3 29 12 29 C 13.7 29 15 27.7 15 26 C 15 25.3 14.80625 24.7125 14.40625 24.3125 L 16 22.59375 L 17.5 24.3125 C 17.2 24.8125 17 25.4 17 26 C 17 27.7 18.3 29 20 29 C 21.7 29 23 27.7 23 26 C 23 24.3 21.7 23 20 23 C 19.7 23 19.5125 22.99375 19.3125 23.09375 L 17.40625 21 L 22 16 L 22 13 L 16 19.5 L 10 13 z M 9 19 L 9 21 L 11 21 L 11 19 L 9 19 z M 21 19 L 21 21 L 23 21 L 23 19 L 21 19 z M 12 25 C 12.6 25 13 25.4 13 26 C 13 26.6 12.6 27 12 27 C 11.4 27 11 26.6 11 26 C 11 25.4 11.4 25 12 25 z M 20 25 C 20.6 25 21 25.4 21 26 C 21 26.6 20.6 27 20 27 C 19.4 27 19 26.6 19 26 C 19 25.4 19.4 25 20 25 z" fill="#000000"/></svg>
