<?xml version="1.0" encoding="utf-8"?>
<svg xmlns="http://www.w3.org/2000/svg" viewBox="0 0 32 32" fill="#000000"><path style="text-indent:0;text-align:start;line-height:normal;text-transform:none;block-progression:tb;-inkscape-font-specification:Bitstream Vera Sans" d="M 25.4375 4 C 24.869462 4 24.34795 4.2331424 23.96875 4.65625 L 15.28125 14.34375 C 14.860098 13.618449 14.90758 12.987906 15.03125 12.40625 C 15.11605 12.007401 15.269095 11.654899 15.40625 11.34375 C 15.47483 11.188175 15.531417 11.053099 15.59375 10.875 C 15.62492 10.78595 15.67109 10.679493 15.6875 10.5 C 15.70391 10.320507 15.6908 9.940817 15.375 9.625 C 15.150299 9.4002994 15.021615 9.3812686 14.90625 9.34375 C 14.790885 9.3062314 14.691984 9.2957616 14.59375 9.28125 C 14.397281 9.2522269 14.195554 9.2431452 13.96875 9.25 C 13.515141 9.263709 12.971228 9.328786 12.40625 9.53125 C 11.841272 9.7337143 11.25241 10.068433 10.78125 10.625 C 10.31009 11.181567 10 11.979318 10 12.875 C 10 13.512038 9.6303859 14 8.8125 14 C 7.7073966 14 6.2120067 14.444243 4.90625 15.75 L 4.90625 15.78125 C 3.6575948 17.061612 2.9418873 18.718048 3 20.46875 C 3.058113 22.219452 3.8784088 24.002456 5.46875 25.5625 C 7.0554935 27.149244 8.8539326 27.958326 10.59375 28 C 12.333567 28.04167 13.969583 27.311667 15.21875 26.0625 C 16.711149 24.570101 16.782093 22.94874 16.9375 21.8125 C 16.97263 21.525707 16.99778 21.539776 17.21875 21.40625 C 17.439723 21.272724 17.871303 21.130677 18.40625 20.9375 C 18.941197 20.744323 19.589065 20.485648 20.125 19.90625 C 20.660935 19.326852 21 18.455911 21 17.40625 C 21 17.246647 20.96533 16.984936 20.75 16.71875 C 20.534671 16.452564 20.176747 16.320187 19.96875 16.3125 C 19.552755 16.29713 19.458755 16.417529 19.34375 16.46875 C 19.113741 16.571192 18.951175 16.655555 18.78125 16.71875 C 18.611325 16.78195 18.469037 16.79083 18.375 16.78125 C 18.28096 16.77165 18.229424 16.76054 18.0625 16.59375 L 16.625 18.03125 C 17.078576 18.48446 17.667193 18.728264 18.1875 18.78125 C 18.22392 18.78495 18.24557 18.77915 18.28125 18.78125 C 18.116494 18.87687 17.996982 18.973311 17.75 19.0625 C 17.307072 19.222448 16.752245 19.346245 16.1875 19.6875 C 15.622755 20.028755 15.073125 20.710293 14.96875 21.5625 C 14.790157 22.86826 14.8741 23.594649 13.8125 24.65625 C 12.895667 25.573083 11.786683 26.027826 10.625 26 C 9.4633174 25.972174 8.1762565 25.457506 6.875 24.15625 L 6.875 24.125 C 5.5783412 22.853044 5.0391373 21.585298 5 20.40625 C 4.9613225 19.241053 5.4166573 18.121072 6.3125 17.1875 C 6.3231493 17.176402 6.3329732 17.1673 6.34375 17.15625 C 7.2516682 16.268329 8.300256 16 8.8125 16 C 10.628614 16 12 14.521962 12 12.875 C 12 12.395682 12.132004 12.150715 12.3125 11.9375 C 12.492996 11.724285 12.769603 11.553661 13.09375 11.4375 C 13.16855 11.41069 13.23533 11.42661 13.3125 11.40625 C 13.24049 11.617875 13.147801 11.745784 13.09375 12 C 12.86894 13.057346 12.955856 14.510931 13.9375 15.875 L 13.0625 16.84375 L 14.5625 18.15625 L 25.4375 6 L 28 6 L 28 4 L 25.4375 4 z M 11 17.5 L 10.03125 18.46875 L 12.53125 20.96875 L 13.5 20 L 11 17.5 z M 8.75 19.75 L 7.75 20.75 L 10.25 23.25 L 11.25 22.25 L 8.75 19.75 z" overflow="visible" font-family="Bitstream Vera Sans" fill="#000000"/></svg>
