<?xml version="1.0" encoding="utf-8"?>
<svg xmlns="http://www.w3.org/2000/svg" viewBox="0 0 32 32" fill="#000000"><path style="text-indent:0;text-align:start;line-height:normal;text-transform:none;block-progression:tb;-inkscape-font-specification:Sans" d="M 16 4 C 9.3844277 4 4 9.3844277 4 16 C 4 22.615572 9.3844277 28 16 28 C 22.615572 28 28 22.615572 28 16 C 28 9.3844277 22.615572 4 16 4 z M 16 6 C 21.534692 6 26 10.465308 26 16 C 26 21.534692 21.534692 26 16 26 C 10.465308 26 6 21.534692 6 16 C 6 10.465308 10.465308 6 16 6 z M 12 13 C 10.35499 13 9 14.35499 9 16 C 9 17.64501 10.35499 19 12 19 C 13.64501 19 15 17.64501 15 16 C 15 14.35499 13.64501 13 12 13 z M 20 13 C 18.35499 13 17 14.35499 17 16 C 17 17.64501 18.35499 19 20 19 C 21.64501 19 23 17.64501 23 16 C 23 14.35499 21.64501 13 20 13 z M 12 15 C 12.564128 15 13 15.435872 13 16 C 13 16.564128 12.564128 17 12 17 C 11.435872 17 11 16.564128 11 16 C 11 15.435872 11.435872 15 12 15 z M 20 15 C 20.564128 15 21 15.435872 21 16 C 21 16.564128 20.564128 17 20 17 C 19.435872 17 19 16.564128 19 16 C 19 15.435872 19.435872 15 20 15 z" overflow="visible" font-family="Sans" fill="#000000"/></svg>
