<?xml version="1.0" encoding="utf-8"?>
<svg xmlns="http://www.w3.org/2000/svg" viewBox="0 0 32 32" fill="#000000"><path style="line-height:normal;text-indent:0;text-align:start;text-decoration-line:none;text-decoration-style:solid;text-decoration-color:#000;text-transform:none;block-progression:tb;isolation:auto;mix-blend-mode:normal" d="M 12 4 L 12 7 L 4 7 L 4 9 L 12 9 L 12 12 L 4 12 L 4 14 L 14 14 L 14 4 L 12 4 z M 18 4 L 18 14 L 28 14 L 28 12 L 20 12 L 20 4 L 18 4 z M 4 18 L 4 20 L 12 20 L 12 28 L 14 28 L 14 18 L 4 18 z M 18 18 L 18 28 L 20 28 L 20 25 L 28 25 L 28 23 L 20 23 L 20 20 L 28 20 L 28 18 L 18 18 z" font-weight="400" font-family="sans-serif" white-space="normal" overflow="visible" fill="#000000"/></svg>
