<?xml version="1.0" encoding="utf-8"?>
<svg xmlns="http://www.w3.org/2000/svg" viewBox="0 0 32 32" fill="#000000"><path style="text-indent:0;text-align:start;line-height:normal;text-transform:none;block-progression:tb;-inkscape-font-specification:Bitstream Vera Sans" d="M 17.625 4 C 16.020127 4 14.76401 4.6331179 13.875 5.4375 C 13.701435 5.4131999 13.495227 5.3900184 13.21875 5.375 C 12.587425 5.340706 11.74312 5.36553 10.78125 5.5625 C 8.857509 5.9564416 6.4661892 7.1374631 4.90625 9.96875 C 2.840636 13.718921 4.6223105 17.491469 4.8125 17.875 C 4.6940393 18.479896 4.1052231 21.837104 6.71875 24.3125 C 8.0859614 25.60747 9.9112575 25.970037 11.53125 25.9375 C 11.619217 26.032307 13.481493 28 16.75 28 C 19.855937 28 21.638415 26.1232 22.03125 25.6875 C 22.597715 25.62882 25.507302 25.255823 27.125 22.34375 C 29.072686 18.838147 26.84375 15.78125 26.84375 15.78125 C 28.13015 13.982726 28.41588 11.460186 27.0625 9.21875 C 25.608484 6.8130682 23.541179 6.5083059 22.875 6.4375 C 22.699622 6.1731639 22.554452 5.8755148 21.90625 5.375 C 21.008807 4.682032 19.589607 4 17.625 4 z M 17.625 6 C 19.147393 6 20.087193 6.473968 20.6875 6.9375 C 21.287807 7.401032 21.5 7.78125 21.5 7.78125 L 21.78125 8.3125 L 22.34375 8.3125 C 22.34375 8.3125 24.140143 8.258623 25.34375 10.25 C 26.378195 11.963222 25.996044 13.797552 24.9375 14.96875 C 24.417491 10.499369 20.605495 7 16 7 C 15.69008 7 15.39574 7.0004401 15.09375 7.03125 C 15.104182 7.0209099 15.114465 7.010221 15.125 7 C 15.71795 6.4247038 16.441529 6 17.625 6 z M 12.21875 7.40625 C 12.278416 7.4024895 12.317731 7.4085732 12.375 7.40625 C 12.283574 7.5808451 12.197285 7.7443386 12.125 7.90625 C 9.1025552 9.3599545 7 12.430884 7 16 C 7 17.179772 7.2408039 18.309912 7.65625 19.34375 C 7.6616401 19.362559 7.6819791 19.358026 7.6875 19.375 C 7.7037082 19.414809 7.7019897 19.460475 7.71875 19.5 C 7.738301 19.541297 7.7616142 19.596307 7.78125 19.625 C 8.5951048 21.463022 9.9888484 22.989576 11.75 23.9375 C 11.707437 23.939929 11.66761 23.935847 11.625 23.9375 C 10.29173 23.989212 8.9646512 23.699884 8.09375 22.875 C 6.180581 21.062946 6.78125 17.90625 6.78125 17.90625 L 6.875 17.53125 L 6.71875 17.21875 C 6.71875 17.21875 5.0663893 13.82393 6.65625 10.9375 C 7.9233108 8.6377869 9.648241 7.8400584 11.15625 7.53125 C 11.533252 7.4540479 11.896109 7.4265848 12.21875 7.40625 z M 16 9 C 19.877838 9 23 12.122162 23 16 C 23 16.242365 22.992564 16.482867 22.96875 16.71875 A 1.0001 1.0001 0 0 0 22.96875 16.78125 C 22.911738 17.300018 22.788309 17.803497 22.625 18.28125 C 22.386726 18.250202 21.593534 18.088694 20.84375 17.59375 C 19.998479 17.035773 19.224629 16.196727 18.96875 14.96875 L 18.84375 14.375 L 18.28125 14.21875 C 16.227847 13.616401 15.809559 12.505506 15.6875 11.375 C 15.565441 10.244494 15.9375 9.21875 15.9375 9.21875 A 1.0001 1.0001 0 0 0 16 9 z M 13.84375 9.34375 C 13.724688 9.9075869 13.621947 10.69716 13.71875 11.59375 C 13.887097 13.152978 14.910196 15.010328 17.25 15.90625 C 17.333446 16.165932 17.422731 16.41868 17.53125 16.65625 C 17.398938 16.764836 17.224691 16.857654 17.03125 16.96875 C 16.434463 17.311494 15.667096 17.558856 14.375 17.03125 L 13.59375 16.71875 L 13.15625 17.4375 C 12.164856 18.979285 11.306025 19.089174 10.59375 19 C 10.237613 18.955413 9.9134478 18.819874 9.6875 18.6875 C 9.5745261 18.621313 9.504242 18.5313 9.46875 18.5 C 9.1724178 17.722723 9 16.883796 9 16 C 9 12.874329 11.026132 10.248242 13.84375 9.34375 z M 25.40625 17.21875 C 25.739472 17.719008 26.545091 19.268975 25.375 21.375 C 24.152143 23.576306 21.5 23.78125 21.5 23.78125 L 21.09375 23.8125 L 20.8125 24.125 C 20.8125 24.125 19.225905 26 16.75 26 C 15.698459 26 14.882972 25.77962 14.28125 25.5 C 14.76555 25.351782 15.205769 25.198483 15.5625 25 C 15.710187 25.007255 15.850561 25 16 25 C 20.435862 25 24.143691 21.762972 24.875 17.53125 C 25.060104 17.43299 25.234538 17.336317 25.40625 17.21875 z M 18.65625 18.28125 C 18.994115 18.652606 19.335676 18.997127 19.71875 19.25 C 20.387697 19.691583 21.010252 20.014872 21.625 20.1875 C 20.351047 21.897564 18.305662 23 16 23 C 14.061081 23 12.29652 22.23402 11.03125 20.96875 C 12.085809 20.854725 13.270829 20.212666 14.28125 19 C 15.801799 19.402282 17.156844 19.220936 18.03125 18.71875 C 18.270388 18.581409 18.469764 18.431811 18.65625 18.28125 z" overflow="visible" font-family="Bitstream Vera Sans" fill="#000000"/></svg>
