<?xml version="1.0" encoding="utf-8"?>
<svg xmlns="http://www.w3.org/2000/svg" viewBox="0 0 32 32" fill="#000000"><path style="text-indent:0;text-align:start;line-height:normal;text-transform:none;block-progression:tb;-inkscape-font-specification:Sans" d="M 25.78125 4 C 25.145283 4.0706345 24.476619 4.3983812 23.9375 4.9375 C 23.186021 5.6889789 22.890918 6.675716 23.0625 7.5 L 21 9.5625 C 21.000431 9.5411402 21 9.5214897 21 9.5 C 21 8.1192881 20.104569 7 19 7 C 17.895431 7 17 8.1192881 17 9.5 C 17 10.708123 17.682384 11.704384 18.59375 11.9375 L 16 14.5625 C 16.000431 14.54114 16 14.52149 16 14.5 C 16 13.119288 15.104569 12 14 12 C 12.895431 12 12 13.119288 12 14.5 C 12 15.708123 12.682384 16.704384 13.59375 16.9375 L 10 20.5625 C 10.000431 20.54114 10 20.52149 10 20.5 C 10 19.119288 9.1045695 18 8 18 C 6.8954305 18 6 19.119288 6 20.5 C 6 21.708123 6.6823837 22.704384 7.59375 22.9375 L 4.28125 26.28125 L 5.71875 27.71875 L 11.0625 22.40625 C 11.295616 23.317616 12.291877 24 13.5 24 C 14.880712 24 16 23.104569 16 22 C 16 20.895431 14.880712 20 13.5 20 C 13.47851 20 13.45886 19.999569 13.4375 20 L 16.0625 17.40625 C 16.295616 18.317616 17.291877 19 18.5 19 C 19.880712 19 21 18.104569 21 17 C 21 15.895431 19.880712 15 18.5 15 C 18.47851 15 18.45886 14.999569 18.4375 15 L 21.0625 12.40625 C 21.295616 13.317616 22.291877 14 23.5 14 C 24.880712 14 26 13.104569 26 12 C 26 10.895431 24.880712 10 23.5 10 C 23.47851 10 23.45886 9.9995688 23.4375 10 L 24.5 8.9375 C 25.324284 9.1090825 26.311021 8.8139789 27.0625 8.0625 C 28.140738 6.9842625 28.300168 5.4251682 27.4375 4.5625 C 27.006166 4.1311659 26.417217 3.9293655 25.78125 4 z" overflow="visible" font-family="Sans" fill="#000000"/></svg>
