<?xml version="1.0" encoding="utf-8"?>
<svg xmlns="http://www.w3.org/2000/svg" viewBox="0 0 32 32" fill="#000000"><path style="text-indent:0;text-align:start;line-height:normal;text-transform:none;block-progression:tb;-inkscape-font-specification:Sans" d="M 5 3 L 5 4 L 5 9 L 4 9 L 4 11 L 8 11 L 8 9 L 7 9 L 7 5 L 26 5 L 26 27 L 7 27 L 7 24 L 5 24 L 5 28 L 5 29 L 6 29 L 27 29 L 28 29 L 28 28 L 28 4 L 28 3 L 27 3 L 6 3 L 5 3 z M 11 9 L 11 10 L 11 16 L 11 17 L 12 17 L 21 17 L 22 17 L 22 16 L 22 10 L 22 9 L 21 9 L 12 9 L 11 9 z M 13 11 L 20 11 L 20 15 L 13 15 L 13 11 z M 5 12 L 5 15 L 4 15 L 4 17 L 8 17 L 8 15 L 7 15 L 7 12 L 5 12 z M 5 18 L 5 21 L 4 21 L 4 23 L 8 23 L 8 21 L 7 21 L 7 18 L 5 18 z" fill="#000000"/></svg>
