<?xml version="1.0" encoding="utf-8"?>
<svg xmlns="http://www.w3.org/2000/svg" viewBox="0 0 32 32" fill="#000000"><path style="text-indent:0;text-align:start;line-height:normal;text-transform:none;block-progression:tb;-inkscape-font-specification:Sans" d="M 12.0625 3 L 12 3.9375 C 12 3.9375 11.94823 4.7222121 11.8125 5.5625 C 11.74464 5.982644 11.670658 6.4149878 11.5625 6.75 C 11.454342 7.0850122 11.279724 7.3117441 11.3125 7.28125 C 11.376526 7.221682 11.00695 7.4258058 10.5 7.59375 C 9.9930504 7.7616942 9.3433923 7.9657376 8.625 8.1875 C 7.1882154 8.6310247 5.5173443 9.157003 4.3125 10.25 L 3.875 10.6875 L 4.03125 11.28125 L 9.03125 28.28125 L 9.25 29 L 10 29 L 16 29 L 22 29 L 22.75 29 L 22.96875 28.28125 L 27.96875 11.28125 L 28.125 10.6875 L 27.6875 10.25 C 26.482656 9.157003 24.811785 8.6310247 23.375 8.1875 C 22.656608 7.9657376 22.00695 7.7616942 21.5 7.59375 C 21.010036 7.4314328 20.684212 7.241602 20.71875 7.28125 L 20.6875 7.28125 C 20.720276 7.3117441 20.545658 7.0850122 20.4375 6.75 C 20.329342 6.4149878 20.255363 5.982644 20.1875 5.5625 C 20.051775 4.7222121 20 3.9375 20 3.9375 L 19.9375 3 L 19 3 L 16 3 L 13 3 L 12.0625 3 z M 13.90625 5 L 16 5 L 18.09375 5 C 18.12428 5.3300091 18.11215 5.4084971 18.1875 5.875 C 18.26551 6.357981 18.373815 6.856106 18.53125 7.34375 C 18.688685 7.831394 18.863224 8.3007559 19.3125 8.71875 C 19.793026 9.165818 20.263075 9.3076317 20.84375 9.5 C 20.88062 9.5122146 20.931165 9.5190492 20.96875 9.53125 C 20.699833 12.046185 18.589644 14 16 14 C 13.410356 14 11.300167 12.046185 11.03125 9.53125 C 11.068835 9.5190492 11.11938 9.5122146 11.15625 9.5 C 11.736925 9.3076317 12.206974 9.165818 12.6875 8.71875 C 13.136776 8.3007559 13.311315 7.831394 13.46875 7.34375 C 13.626185 6.856106 13.734488 6.357981 13.8125 5.875 C 13.887851 5.4084971 13.87572 5.3300091 13.90625 5 z M 9.09375 10.125 C 9.6345683 13.448459 12.528209 16 16 16 C 19.471791 16 22.365432 13.448459 22.90625 10.125 C 24.030303 10.483669 25.053697 10.974589 25.8125 11.5 L 21.25 27 L 16 27 L 10.75 27 L 6.1875 11.5 C 6.9463037 10.974589 7.969697 10.483669 9.09375 10.125 z M 16 16 L 14 18 L 16 21 L 18 18 L 16 16 z" overflow="visible" font-family="Sans" fill="#000000"/></svg>
