<?xml version="1.0" encoding="utf-8"?>
<svg xmlns="http://www.w3.org/2000/svg" viewBox="0 0 32 32" fill="#000000"><path style="text-indent:0;text-align:start;line-height:normal;text-transform:none;block-progression:tb;-inkscape-font-specification:Sans" d="M 17 3 C 10.384428 3 5 8.3844277 5 15 C 5 17.950196 6.0704936 20.657811 7.84375 22.75 L 3.0625 27.53125 L 4.46875 28.9375 L 9.25 24.15625 C 11.342189 25.929506 14.049804 27 17 27 C 23.615572 27 29 21.615572 29 15 C 29 8.3844277 23.615572 3 17 3 z M 17 5 C 22.199218 5 26.440719 8.9342818 26.9375 14 L 26 14 L 26 15 L 25 15 L 25 14 L 24 14 L 24 15 L 23 15 L 23 14 L 22 14 L 22 15 L 21 15 L 21 14 L 20 14 L 20 16 L 21 16 L 21 17 L 22 17 L 22 16 L 23 16 L 23 17 L 24 17 L 24 16 L 25 16 L 25 17 L 26 17 L 26 16 L 26.9375 16 C 26.440719 21.065718 22.199218 25 17 25 C 13.830601 25 11.017868 23.540832 9.1875 21.25 L 9.78125 21.53125 C 9.91025 21.26225 10.06275 21.03125 10.21875 20.78125 L 8.53125 19.6875 C 8.468701 19.78688 8.4026698 19.898265 8.34375 20 C 7.4980398 18.531532 7 16.820896 7 15 C 7 13.384068 7.3857438 11.849099 8.0625 10.5 C 8.2000086 10.770827 8.3710185 11.05662 8.53125 11.3125 L 10.21875 10.21875 C 10.06275 9.96875 9.91025 9.73775 9.78125 9.46875 L 8.25 10.1875 C 9.9468735 7.090906 13.210488 5 17 5 z M 10.71875 10.96875 L 9.15625 12.1875 C 9.38625 12.4785 9.64525 12.76825 9.90625 13.03125 L 11.3125 11.625 C 11.1045 11.415 10.90275 11.20075 10.71875 10.96875 z M 11.96875 12.21875 L 10.71875 13.78125 C 11.00575 14.01225 11.313 14.2375 11.625 14.4375 L 12.6875 12.75 C 12.4365 12.589 12.19875 12.40575 11.96875 12.21875 z M 13.46875 13.1875 L 12.59375 14.96875 C 12.92375 15.13175 13.24375 15.27925 13.59375 15.40625 L 14.28125 13.53125 C 14.00125 13.42925 13.73375 13.3185 13.46875 13.1875 z M 15 14 L 15 17 L 19 17 L 19 14 L 15 14 z M 13.59375 15.59375 C 13.24375 15.72075 12.92375 15.86925 12.59375 16.03125 L 13.46875 17.8125 C 13.73275 17.6815 14.00025 17.57075 14.28125 17.46875 L 13.59375 15.59375 z M 11.625 16.5625 C 11.314 16.7625 11.00575 16.98775 10.71875 17.21875 L 11.96875 18.78125 C 12.19975 18.59525 12.4375 18.411 12.6875 18.25 L 11.625 16.5625 z M 9.90625 17.96875 C 9.64525 18.23175 9.38625 18.5215 9.15625 18.8125 L 10.71875 20.03125 C 10.90275 19.79925 11.1035 19.585 11.3125 19.375 L 9.90625 17.96875 z M 16 18 L 16 23 L 18 23 L 18 18 L 16 18 z" fill="#000000"/></svg>
