<?xml version="1.0" encoding="utf-8"?>
<svg xmlns="http://www.w3.org/2000/svg" viewBox="0 0 32 32" fill="#000000"><path style="line-height:normal;text-indent:0;text-align:start;text-decoration-line:none;text-decoration-style:solid;text-decoration-color:#000;text-transform:none;block-progression:tb;isolation:auto;mix-blend-mode:normal" d="M 7 4 L 7 28 L 25 28 L 25 27 L 25 9.3359375 L 19.664062 4 L 7 4 z M 9 6 L 18 6 L 18 11 L 23 11 L 23 26 L 9 26 L 9 6 z M 20 7.1640625 L 21.835938 9 L 20 9 L 20 7.1640625 z M 14.5 13 C 12.578848 13 11 14.578848 11 16.5 C 11 18.421152 12.578848 20 14.5 20 C 16.421152 20 18 18.421152 18 16.5 C 18 14.578848 16.421152 13 14.5 13 z M 14.5 15 C 15.340272 15 16 15.659728 16 16.5 C 16 17.340272 15.340272 18 14.5 18 C 13.659728 18 13 17.340272 13 16.5 C 13 15.659728 13.659728 15 14.5 15 z M 19 17 L 19 21 L 15 21 L 15 23 L 21 23 L 21 17 L 19 17 z" font-weight="400" font-family="sans-serif" white-space="normal" overflow="visible" fill="#000000"/></svg>
