<?xml version="1.0" encoding="utf-8"?>
<svg xmlns="http://www.w3.org/2000/svg" viewBox="0 0 32 32" fill="#000000"><path style="text-indent:0;text-align:start;line-height:normal;text-transform:none;block-progression:tb;-inkscape-font-specification:Bitstream Vera Sans" d="M 16 4.90625 L 15.625 5.0625 L 3.625 10.0625 L 3 10.34375 L 3 11 L 3 26 L 3 27 L 4 27 L 28 27 L 29 27 L 29 26 L 29 11 L 29 10.34375 L 28.375 10.0625 L 16.375 5.0625 L 16 4.90625 z M 16 7.09375 L 27 11.6875 L 27 25 L 5 25 L 5 11.6875 L 16 7.09375 z M 15 13 L 15 16 L 12 16 L 12 18 L 15 18 L 15 21 L 17 21 L 17 18 L 20 18 L 20 16 L 17 16 L 17 13 L 15 13 z" overflow="visible" font-family="Bitstream Vera Sans" fill="#000000"/></svg>
