<?xml version="1.0" encoding="utf-8"?>
<svg xmlns="http://www.w3.org/2000/svg" viewBox="0 0 32 32" fill="#000000"><path style="line-height:normal;text-indent:0;text-align:start;text-decoration-line:none;text-decoration-style:solid;text-decoration-color:#000;text-transform:none;block-progression:tb;isolation:auto;mix-blend-mode:normal" d="M 7 3 L 7 4 L 7 29 L 25 29 L 25 3 L 7 3 z M 9 5 L 11 5 L 11 11 L 9 11 L 9 5 z M 13 5 L 15 5 L 15 11 L 13 11 L 13 5 z M 17 5 L 19 5 L 19 11 L 17 11 L 17 5 z M 21 5 L 23 5 L 23 11 L 21 11 L 21 5 z M 9 13 L 15 13 L 15 18 L 13 18 L 13 15 L 11 15 L 11 18 L 9 18 L 9 13 z M 22 14 C 22.552 14 23 14.448 23 15 C 23 15.552 22.552 16 22 16 C 21.448 16 21 15.552 21 15 C 21 14.448 21.448 14 22 14 z M 9 20 L 23 20 L 23 27 L 21 27 L 21 22 L 19 22 L 19 27 L 17 27 L 17 22 L 15 22 L 15 27 L 13 27 L 13 22 L 11 22 L 11 27 L 9 27 L 9 20 z" fill="#000000"/></svg>
