<?xml version="1.0" encoding="utf-8"?>
<svg xmlns="http://www.w3.org/2000/svg" viewBox="0 0 32 32" fill="#000000"><path d="M 3 4 L 3 20 L 4.34375 20 C 4.42075 19.572 4.50075 19.134 4.59375 18.625 C 4.66575 18.12 4.81 17.6415 5 17.1875 L 5 6 L 27 6 L 27 17.1875 C 27.193 17.6485 27.3645 18.14225 27.4375 18.65625 C 27.5265 19.14725 27.58125 19.584 27.65625 20 L 29 20 L 29 4 L 3 4 z M 19 7 L 16 7.625 L 16 10 L 19 10 L 19 7 z M 15 7.90625 L 13 8.40625 L 13 10 L 15 10 L 15 7.90625 z M 13 11 L 13 12.59375 L 15 13.09375 L 15 11 L 13 11 z M 16 11 L 16 13.375 L 19 14 L 19 11 L 16 11 z M 8 14 L 8 15.8125 C 7.0047971 16.509633 6.2844638 17.588847 6.09375 18.84375 C 6.0902 18.86713 6.065691 18.88276 6.0625 18.90625 C 6.051926 18.96443 5.7881464 20.311576 5.53125 21.75 C 5.400072 22.484497 5.2863941 23.239329 5.1875 23.8125 C 5.138053 24.099085 5.09222 24.347315 5.0625 24.53125 C 5.04764 24.623217 5.0404239 24.68601 5.03125 24.75 C 5.0220761 24.81399 5 24.775151 5 25 C 5 26.64497 6.3550302 28 8 28 C 9.1244233 28 10.085107 27.353505 10.59375 26.4375 L 10.625 26.4375 C 10.6287 26.4307 10.6213 26.41312 10.625 26.40625 L 11.125 25.5625 C 11.520006 25.824692 11.995888 26 12.5 26 C 13.306764 26 14.010036 25.60291 14.46875 25 L 17.53125 25 C 17.989964 25.60291 18.693236 26 19.5 26 C 20.004112 26 20.479994 25.824692 20.875 25.5625 L 21.375 26.40625 C 21.3821 26.41943 21.399 26.42444 21.40625 26.4375 C 21.914893 27.353505 22.875577 28 24 28 C 25.64497 28 27 26.64497 27 25 C 27 24.774179 26.97792 24.813909 26.96875 24.75 C 26.95955 24.68609 26.95236 24.62317 26.9375 24.53125 C 26.90778 24.347411 26.86195 24.099053 26.8125 23.8125 C 26.71361 23.239394 26.599927 22.484554 26.46875 21.75 C 26.211855 20.311463 25.948074 18.964439 25.9375 18.90625 C 25.9348 18.88605 25.9405 18.86386 25.9375 18.84375 L 25.90625 18.84375 C 25.715536 17.588847 24.995203 16.509633 24 15.8125 L 24 14 L 21 14 L 21 15.0625 C 20.141385 15.159856 19.363551 15.485476 18.71875 16 L 13.28125 16 C 12.636449 15.485476 11.858615 15.159856 11 15.0625 L 11 14 L 8 14 z M 10.5 17 C 11.892562 17 13 18.107438 13 19.5 C 13 20.08241 12.801969 20.583855 12.46875 21 C 11.114095 21.017216 10 22.141663 10 23.5 C 10 23.51053 9.9998665 23.520749 10 23.53125 L 8.90625 25.4375 L 8.875 25.4375 L 8.875 25.46875 C 8.7031086 25.78958 8.3855426 26 8 26 C 7.445622 26 7.015985 25.58071 7 25.03125 C 6.9938224 25.07434 7 25.199099 7 25 C 7.00635 24.95715 7.019691 24.91529 7.03125 24.84375 C 7.058843 24.672981 7.107447 24.439102 7.15625 24.15625 C 7.2538559 23.590546 7.369178 22.857503 7.5 22.125 C 7.7616439 20.659994 8.03125 19.21875 8.03125 19.21875 L 8.03125 19.1875 L 8.03125 19.15625 C 8.1977612 17.930383 9.2262708 17 10.5 17 z M 21.5 17 C 22.773729 17 23.802239 17.930383 23.96875 19.15625 L 23.96875 19.1875 L 23.96875 19.21875 C 23.96875 19.21875 24.238354 20.659859 24.5 22.125 C 24.630823 22.857571 24.746141 23.590575 24.84375 24.15625 C 24.89255 24.439087 24.94115 24.673023 24.96875 24.84375 C 24.98255 24.92911 24.99382 24.988175 25 25.03125 C 24.984015 25.58071 24.554378 26 24 26 C 23.614457 26 23.296891 25.78958 23.125 25.46875 L 23.125 25.4375 L 23.09375 25.4375 L 22 23.53125 C 22.000133 23.520749 22 23.51053 22 23.5 C 22 22.141663 20.885905 21.017216 19.53125 21 C 19.198535 20.583551 19 20.081421 19 19.5 C 19 18.107438 20.107438 17 21.5 17 z M 14.71875 18 L 17.28125 18 C 17.111979 18.471835 17 18.972094 17 19.5 C 17 20.362181 17.262088 21.160873 17.6875 21.84375 C 17.388729 22.170837 17.15525 22.553032 17.0625 23 L 14.9375 23 C 14.84475 22.553032 14.611271 22.170837 14.3125 21.84375 C 14.738088 21.161522 15 20.364194 15 19.5 C 15 18.972094 14.888021 18.471835 14.71875 18 z M 12.5 23 C 12.787987 23 13 23.212013 13 23.5 C 13 23.787987 12.787987 24 12.5 24 C 12.212013 24 12 23.787987 12 23.5 C 12 23.212013 12.212013 23 12.5 23 z M 19.5 23 C 19.787987 23 20 23.212013 20 23.5 C 20 23.787987 19.787987 24 19.5 24 C 19.212013 24 19 23.787987 19 23.5 C 19 23.212013 19.212013 23 19.5 23 z" fill="#000000"/></svg>
