<?xml version="1.0" encoding="utf-8"?>
<svg xmlns="http://www.w3.org/2000/svg" viewBox="0 0 32 32" fill="#000000"><path style="text-indent:0;text-align:start;line-height:normal;text-transform:none;block-progression:tb;-inkscape-font-specification:Sans" d="M 14 3 C 12.74133 3 11.848273 3.8904725 11.40625 5 L 9 5 L 8 5 L 5 5 L 4 5 L 4 6 L 4 24 L 4 25 L 5 25 L 23 25 L 24 25 L 24 24 L 24 6 L 24 5 L 23 5 L 20 5 L 19 5 L 16.59375 5 C 16.151727 3.8904725 15.25867 3 14 3 z M 14 5 C 14.56503 5 15 5.4349698 15 6 L 15 7 L 16 7 L 18 7 L 18 9 L 10 9 L 10 7 L 12 7 L 13 7 L 13 6 C 13 5.4349698 13.43497 5 14 5 z M 6 7 L 8 7 L 8 10 L 8 11 L 9 11 L 19 11 L 20 11 L 20 10 L 20 7 L 22 7 L 22 23 L 6 23 L 6 7 z M 14 15 L 14 17 L 16 17 L 16 15 L 14 15 z M 18 15 L 18 17 L 20 17 L 20 15 L 18 15 z M 26 15 L 26 17 L 28 17 L 28 15 L 26 15 z M 14 19 L 14 21 L 16 21 L 16 19 L 14 19 z M 26 19 L 26 21 L 28 21 L 28 19 L 26 19 z M 26 23 L 26 25 L 28 25 L 28 23 L 26 23 z M 14 27 L 14 29 L 16 29 L 16 27 L 14 27 z M 18 27 L 18 29 L 20 29 L 20 27 L 18 27 z M 22 27 L 22 29 L 24 29 L 24 27 L 22 27 z M 26 27 L 26 29 L 28 29 L 28 27 L 26 27 z" fill="#000000"/></svg>
