<?xml version="1.0" encoding="utf-8"?>
<svg xmlns="http://www.w3.org/2000/svg" viewBox="0 0 32 32" fill="#000000"><path style="text-indent:0;text-align:start;line-height:normal;text-transform:none;block-progression:tb;-inkscape-font-specification:Bitstream Vera Sans" d="M 10 3.875 L 9.5625 4.09375 L 7.5625 5.09375 L 7 5.375 L 7 6 L 7 7 L 6 7 C 4.3545455 7 3 8.3545455 3 10 L 3 11 L 5 11 L 5 10 C 5 9.4454545 5.4454545 9 6 9 L 7 9 L 7 23 L 5 23 L 5 25 L 7 25 L 7 26 L 7 26.625 L 7.5625 26.90625 L 9.5625 27.90625 L 10 28.125 L 10.4375 27.90625 L 12 27.125 L 13.5625 27.90625 L 14 28.125 L 14.4375 27.90625 L 16 27.125 L 17.5625 27.90625 L 18 28.125 L 18.4375 27.90625 L 20 27.125 L 21.5625 27.90625 L 22 28.125 L 22.4375 27.90625 L 24.4375 26.90625 L 25 26.625 L 25 26 L 25 25 L 27 25 L 27 23 L 25 23 L 25 9 L 27 9 L 27 7 L 25 7 L 25 6 L 25 5.375 L 24.4375 5.09375 L 22.4375 4.09375 L 22 3.875 L 21.5625 4.09375 L 20 4.875 L 18.4375 4.09375 L 18 3.875 L 17.5625 4.09375 L 16 4.875 L 14.4375 4.09375 L 14 3.875 L 13.5625 4.09375 L 12 4.875 L 10.4375 4.09375 L 10 3.875 z M 10 6.125 L 11 6.625 L 11 25.375 L 10 25.875 L 9 25.375 L 9 6.625 L 10 6.125 z M 14 6.125 L 15 6.625 L 15 25.375 L 14 25.875 L 13 25.375 L 13 6.625 L 14 6.125 z M 18 6.125 L 19 6.625 L 19 25.375 L 18 25.875 L 17 25.375 L 17 6.625 L 18 6.125 z M 22 6.125 L 23 6.625 L 23 25.375 L 22 25.875 L 21 25.375 L 21 6.625 L 22 6.125 z" fill="#000000"/></svg>
