<?xml version="1.0" encoding="utf-8"?>
<svg xmlns="http://www.w3.org/2000/svg" viewBox="0 0 32 32" fill="#000000"><path style="text-indent:0;text-align:start;line-height:normal;text-transform:none;block-progression:tb;-inkscape-font-specification:Sans" d="M 5 3 L 5 4 L 5 28 L 5 29 L 6 29 L 26 29 L 27 29 L 27 28 L 27 4 L 27 3 L 26 3 L 6 3 L 5 3 z M 7 5 L 25 5 L 25 27 L 7 27 L 7 5 z M 9 7 L 9 19 L 19 19 L 19 7 L 9 7 z M 11 9 L 13 9 L 13 12 L 11 12 L 11 9 z M 15 9 L 17 9 L 17 12 L 15 12 L 15 9 z M 21 9 L 21 11 L 23 11 L 23 9 L 21 9 z M 21 13 L 21 15 L 23 15 L 23 13 L 21 13 z M 11 14 L 13 14 L 13 17 L 11 17 L 11 14 z M 15 14 L 17 14 L 17 17 L 15 17 L 15 14 z M 21 17 L 21 19 L 23 19 L 23 17 L 21 17 z M 9 21 L 9 22 L 9 24 L 9 25 L 10 25 L 18 25 L 19 25 L 19 24 L 19 22 L 19 21 L 18 21 L 10 21 L 9 21 z" overflow="visible" font-family="Sans" fill="#000000"/></svg>
