<?xml version="1.0" encoding="utf-8"?>
<svg xmlns="http://www.w3.org/2000/svg" viewBox="0 0 32 32" fill="#000000"><path d="M 5 3 L 5 29 L 18.3125 29 L 27 29 L 27 25.828125 L 25.828125 27 L 7 27 L 7 5 L 25 5 L 25 14.171875 L 27 16.171875 L 27 3 L 5 3 z M 16 7 C 14.35503 7 13 8.3550302 13 10 L 9 10 L 9 22 L 15 22 L 15 20 L 11 20 L 11 18 L 19.171875 18 L 23 14.171875 L 23 10 L 19 10 C 19 8.3550302 17.64497 7 16 7 z M 16 9 C 16.56503 9 17 9.4349698 17 10 L 15 10 C 15 9.4349698 15.43497 9 16 9 z M 11 12 L 21 12 L 21 16 L 11 16 L 11 12 z M 16 13 A 1 1 0 0 0 15 14 A 1 1 0 0 0 16 15 A 1 1 0 0 0 17 14 A 1 1 0 0 0 16 13 z M 24 16 L 22.585938 17.414062 L 25.171875 20 L 17 20 L 17 22 L 25.171875 22 L 22.585938 24.585938 L 24 26 L 29 21 L 24 16 z" fill="#000000"/></svg>
