<?xml version="1.0" encoding="utf-8"?>
<svg xmlns="http://www.w3.org/2000/svg" viewBox="0 0 32 32" fill="#000000"><path style="text-indent:0;text-align:start;line-height:normal;text-transform:none;block-progression:tb;-inkscape-font-specification:Bitstream Vera Sans" d="M 3 9 L 3 11 L 5 11 L 5 21 L 3 21 L 3 23 L 29 23 L 29 21 L 27 21 L 27 11 L 29 11 L 29 9 L 3 9 z M 7 11 L 25 11 L 25 21 L 7 21 L 7 11 z M 16 13 C 14.343 13 13 14.343 13 16 C 13 17.657 14.343 19 16 19 L 19 19 L 20 18 L 24 18 L 24 14 L 20 14 L 19 13 L 16 13 z M 10 14 C 8.8954305 14 8 14.895431 8 16 C 8 17.104569 8.8954305 18 10 18 C 11.104569 18 12 17.104569 12 16 C 12 14.895431 11.104569 14 10 14 z" overflow="visible" font-family="Bitstream Vera Sans" fill="#000000"/></svg>
