<?xml version="1.0" encoding="utf-8"?>
<svg xmlns="http://www.w3.org/2000/svg" viewBox="0 0 32 32" fill="#000000"><path style="text-indent:0;text-align:start;line-height:normal;text-transform:none;block-progression:tb;-inkscape-font-specification:Sans" d="M 9 3 L 9 9.34375 C 8.3548021 10.003319 8.09375 10.59375 8.09375 10.59375 L 8 10.78125 L 8 11 L 6 11 L 5.5 11 L 5.1875 11.40625 C 5.1875 11.40625 3.0895721 14.258767 3 18.53125 C 2.909462 22.848694 5.21875 25.625 5.21875 25.625 L 5.53125 26 L 6 26 L 8 26 L 8 27 C 8 28.093063 8.9069372 29 10 29 L 22 29 C 22.932519 29 23.723482 28.341359 23.9375 27.46875 C 26.764647 24.727043 27.926607 20.21282 28.5 16.34375 C 29.089921 12.363156 29.000806 9.0283482 29 9 L 29 8.96875 C 29.000578 8.939591 29.03505 7.8497685 28.59375 6.65625 C 28.370205 6.0516647 27.99682 5.397513 27.40625 4.875 C 26.81568 4.352487 25.979654 4 25 4 C 24.020346 4 23.18432 4.352487 22.59375 4.875 C 22.00318 5.397513 21.629795 6.0516647 21.40625 6.65625 C 21.21971 7.1607519 21.117566 7.6297065 21.0625 8.03125 C 19.859766 7.4543319 18.217577 7 16 7 C 13.820996 7 12.197252 7.4380905 11 8 L 11 3 L 9 3 z M 25 6 C 25.541346 6 25.836633 6.147513 26.09375 6.375 C 26.350867 6.602487 26.541295 6.9483353 26.6875 7.34375 C 26.979909 8.1345794 27 9 27 9 L 27 9.03125 C 27 9.03125 27.09508 12.257955 26.53125 16.0625 C 26.117837 18.852079 25.31986 21.90301 24 24.15625 L 24 11 L 24 10.78125 L 23.90625 10.59375 C 23.90625 10.59375 23.645198 10.003319 23 9.34375 L 23 9 C 23 9 23.020091 8.1345794 23.3125 7.34375 C 23.458705 6.9483353 23.649133 6.602487 23.90625 6.375 C 24.163367 6.147513 24.458654 6 25 6 z M 16 9 C 17.227787 9 18.210197 9.1580026 19 9.375 L 19 14 C 19 14.554545 18.554545 15 18 15 L 14 15 C 13.445455 15 13 14.554545 13 14 L 13 9.375 C 13.789803 9.1580026 14.772213 9 16 9 z M 11 10.28125 L 11 14 C 11 15.645455 12.354545 17 14 17 L 15 17 L 15 19 L 17 19 L 17 17 L 18 17 C 19.645455 17 21 15.645455 21 14 L 21 10.28125 C 21.016928 10.29319 21.04606 10.300604 21.0625 10.3125 C 21.846616 10.879877 21.969373 11.240191 22 11.3125 L 22 27 L 10 27 L 10 11.3125 C 10.03063 11.24019 10.153384 10.879877 10.9375 10.3125 C 10.95394 10.300604 10.983072 10.29319 11 10.28125 z M 5.625 15 L 8 15 L 8 22 L 5.53125 22 C 5.2237099 21.123943 4.9701908 19.984004 5 18.5625 C 5.0310339 17.082221 5.3070338 15.908183 5.625 15 z" fill="#000000"/></svg>
