<?xml version="1.0" encoding="utf-8"?>
<svg xmlns="http://www.w3.org/2000/svg" viewBox="0 0 32 32" fill="#000000"><path style="text-indent:0;text-align:start;line-height:normal;text-transform:none;block-progression:tb;-inkscape-font-specification:Bitstream Vera Sans" d="M 16 5 C 13.951195 5 12.092276 5.3533102 10.65625 5.96875 C 9.9382368 6.2764699 9.3259105 6.6364477 8.84375 7.125 C 8.3615895 7.6135523 8 8.2705297 8 9 L 8 11.09375 C 8 12.686166 7.3757666 14.217983 6.25 15.34375 L 5.28125 16.28125 L 5 16.59375 L 5 17 L 5 23 L 5 23.46875 L 5.34375 23.75 C 5.34375 23.75 6.3354484 24.606689 8.125 25.40625 C 9.9145516 26.205811 12.562316 27 16 27 C 19.437684 27 22.085448 26.205811 23.875 25.40625 C 25.664552 24.606689 26.65625 23.75 26.65625 23.75 L 27 23.46875 L 27 23 L 27 17 L 27 16.59375 L 26.71875 16.28125 L 25.75 15.34375 C 24.624233 14.217983 24 12.686166 24 11.09375 L 24 9 C 24 8.2705297 23.63841 7.6135523 23.15625 7.125 C 22.67409 6.6364477 22.061763 6.2764699 21.34375 5.96875 C 19.907724 5.3533102 18.048805 5 16 5 z M 16 7 C 17.817188 7 19.465025 7.3421534 20.5625 7.8125 C 21.111238 8.0476733 21.523722 8.3019722 21.75 8.53125 C 21.976278 8.7605278 22 8.9010432 22 9 C 22 9.0989567 21.976278 9.2394722 21.75 9.46875 C 21.523722 9.6980278 21.111238 9.9523267 20.5625 10.1875 C 19.465025 10.657847 17.817188 11 16 11 C 14.182812 11 12.534975 10.657847 11.4375 10.1875 C 10.888762 9.9523267 10.476278 9.6980278 10.25 9.46875 C 10.023722 9.2394722 10 9.0989567 10 9 C 10 8.9010432 10.023722 8.7605278 10.25 8.53125 C 10.476278 8.3019722 10.888762 8.0476733 11.4375 7.8125 C 12.534975 7.3421534 14.182812 7 16 7 z M 14 8 C 13.447715 8 13 8.4477153 13 9 C 13 9.5522847 13.447715 10 14 10 C 14.552285 10 15 9.5522847 15 9 C 15 8.4477153 14.552285 8 14 8 z M 18 8 C 17.447715 8 17 8.4477153 17 9 C 17 9.5522847 17.447715 10 18 10 C 18.552285 10 19 9.5522847 19 9 C 19 8.4477153 18.552285 8 18 8 z M 9.96875 11.6875 C 10.189596 11.808729 10.409433 11.925471 10.65625 12.03125 C 12.092276 12.64669 13.951195 13 16 13 C 18.048805 13 19.907724 12.64669 21.34375 12.03125 C 21.590567 11.925471 21.810404 11.808729 22.03125 11.6875 C 22.174831 13.588785 22.986111 15.392361 24.34375 16.75 L 25 17.4375 L 25 22.4375 C 24.816739 22.587764 24.398473 22.996845 23.0625 23.59375 C 21.494802 24.294189 19.133316 25 16 25 C 12.866684 25 10.505198 24.294189 8.9375 23.59375 C 7.6015274 22.996845 7.183261 22.587764 7 22.4375 L 7 17.4375 L 7.65625 16.75 C 9.0138893 15.392361 9.825169 13.588785 9.96875 11.6875 z M 13 15 L 13 16 L 13 23 L 15 23 L 15 21 L 17 21 C 18.093063 21 19 20.093063 19 19 L 19 17 C 19 15.906937 18.093063 15 17 15 L 14 15 L 13 15 z M 15 17 L 17 17 L 17 19 L 15 19 L 15 17 z" overflow="visible" font-family="Bitstream Vera Sans" fill="#000000"/></svg>
