<?xml version="1.0" encoding="utf-8"?>
<svg xmlns="http://www.w3.org/2000/svg" viewBox="0 0 32 32" fill="#000000"><path style="text-indent:0;text-align:start;line-height:normal;text-transform:none;block-progression:tb;-inkscape-font-specification:Sans" d="M 11.5 5 C 10.602096 4.9998979 9.7104184 5.3513857 9.03125 6.03125 C 7.6737868 7.3901041 7.6715215 9.6104132 9.03125 10.96875 C 9.4887061 11.425738 10.017031 11.680469 10.6875 12 L 6 12 L 5 12 L 5 13 L 5 27 L 5 28 L 6 28 L 26 28 L 27 28 L 27 27 L 27 13 L 27 12 L 26 12 L 21.3125 12 C 21.983019 11.680372 22.511206 11.426763 22.96875 10.96875 C 24.326213 9.6098959 24.328479 7.3895868 22.96875 6.03125 C 22.289323 5.3525184 21.397904 5.0001021 20.5 5 C 19.602096 4.9998979 18.710418 5.3513857 18.03125 6.03125 C 17.574262 6.4887061 17.319531 7.0170315 17 7.6875 C 16.680469 8.3579685 16.348412 9.1386241 16.0625 9.875 C 16.039553 9.9341 16.022466 9.9726564 16 10.03125 C 15.977538 9.9726497 15.960443 9.9341079 15.9375 9.875 C 15.651638 9.1385259 15.319628 8.3580191 15 7.6875 C 14.680372 7.0169809 14.426763 6.4887937 13.96875 6.03125 C 13.289323 5.3525184 12.397904 5.0001021 11.5 5 z M 11.5 7 C 11.881846 7.0001479 12.264927 7.1402316 12.5625 7.4375 C 12.59299 7.467956 12.934534 7.9662691 13.21875 8.5625 C 13.502966 9.1587309 13.787487 9.8852241 14.0625 10.59375 C 14.214585 10.985571 14.216276 10.994406 14.34375 11.34375 C 13.994437 11.216226 13.985556 11.214626 13.59375 11.0625 C 12.885251 10.787412 12.158875 10.502969 11.5625 10.21875 C 10.966125 9.9345306 10.468544 9.5935122 10.4375 9.5625 C 9.8432285 8.9688368 9.8429632 8.0326459 10.4375 7.4375 C 10.734332 7.1403643 11.118154 6.9998521 11.5 7 z M 20.5 7 C 20.881846 7.0001479 21.264927 7.1402316 21.5625 7.4375 C 22.156771 8.0311632 22.157037 8.9673541 21.5625 9.5625 C 21.53204 9.592987 21.033731 9.9345343 20.4375 10.21875 C 19.841269 10.502966 19.114776 10.787487 18.40625 11.0625 C 18.014429 11.214585 18.005594 11.216276 17.65625 11.34375 C 17.783774 10.994437 17.785374 10.985556 17.9375 10.59375 C 18.212588 9.8852509 18.497031 9.1588752 18.78125 8.5625 C 19.065469 7.9661248 19.406488 7.4685439 19.4375 7.4375 C 19.734332 7.1403643 20.118154 6.9998521 20.5 7 z M 7 14 L 15 14 L 15 19 L 7 19 L 7 14 z M 17 14 L 25 14 L 25 19 L 17 19 L 17 14 z M 7 21 L 15 21 L 15 26 L 7 26 L 7 21 z M 17 21 L 25 21 L 25 26 L 17 26 L 17 21 z" overflow="visible" font-family="Sans" fill="#000000"/></svg>
