<?xml version="1.0" encoding="utf-8"?>
<svg xmlns="http://www.w3.org/2000/svg" viewBox="0 0 32 32" fill="#000000"><path style="text-indent:0;text-align:start;line-height:normal;text-transform:none;block-progression:tb;-inkscape-font-specification:Sans" d="M 16 4 C 13.75 4 12.232731 4.8867014 10.875 5.625 C 9.5172689 6.3632986 8.2816307 7 6 7 L 5 7 L 5 8 C 5 15.717856 7.6089135 20.742812 10.25 23.78125 C 12.891087 26.819688 15.625 27.9375 15.625 27.9375 L 16 28.0625 L 16.375 27.9375 C 16.375 27.9375 19.107796 26.844825 21.75 23.8125 C 24.392204 20.780175 27 15.745028 27 8 L 27 7 L 26 7 C 23.730806 7 22.486176 6.3636322 21.125 5.625 C 19.763824 4.8863678 18.25 4 16 4 z M 16 6 C 17.75 6 18.753176 6.6136322 20.15625 7.375 C 21.340793 8.0177834 22.910458 8.6372814 24.9375 8.84375 C 24.747003 15.608267 22.507764 19.908878 20.25 22.5 C 18.204885 24.847076 16.486125 25.627185 16 25.84375 C 15.513342 25.624273 13.796084 24.822668 11.75 22.46875 C 9.4917953 19.870798 7.2540904 15.579755 7.0625 8.84375 C 9.0961026 8.6372561 10.661153 8.018065 11.84375 7.375 C 13.244519 6.6132986 14.25 6 16 6 z M 16 9 C 12.698136 9 10 11.698136 10 15 C 10 18.301864 12.698136 21 16 21 C 19.301864 21 22 18.301864 22 15 C 22 11.698136 19.301864 9 16 9 z M 15.8125 11.03125 C 16.043147 11.385483 15.745787 12.078853 15.65625 12.40625 C 15.52325 12.89225 15.49725 13.566 15.03125 13.875 C 14.68925 14.101 14.85275 13.644 14.59375 13.5 C 14.28275 13.327 13.7265 13.81625 13.8125 14.15625 C 13.8565 14.32925 14.2815 14.47675 14.4375 14.46875 C 14.7775 14.45175 15.1035 14.13 15.3125 14.5 C 15.7945 15.35 14.71975 16.23475 14.84375 17.09375 C 14.86025 17.21225 15.191203 18.343937 15.28125 18.90625 C 14.561474 18.777201 13.903685 18.487742 13.375 18.03125 C 13.264681 17.886144 13.173558 17.728942 13.09375 17.59375 C 12.94675 17.34375 12.8975 17.35275 12.6875 17.21875 C 12.67603 17.211369 12.667574 17.195328 12.65625 17.1875 C 12.297944 16.635305 12.079782 15.980251 12.03125 15.28125 C 12.121 15.098375 12.2755 14.92975 12.4375 14.78125 C 12.5875 14.64425 12.64975 14.6065 12.84375 14.5625 C 13.03275 14.5195 13.28425 14.585 13.40625 14.375 C 13.52025 14.181 13.398 14.0355 13.25 13.9375 C 13.00625 13.77565 12.374255 13.853211 12.28125 13.5 C 12.329511 13.379449 12.409464 13.270555 12.46875 13.15625 C 12.504391 13.130812 12.5315 13.09925 12.5625 13.0625 C 12.6381 12.9725 12.644656 12.913302 12.625 12.84375 C 13.300311 11.778723 14.465475 11.093935 15.8125 11.03125 z M 17.71875 11.40625 C 19.067044 12.047009 20 13.398805 20 15 C 20 16.388115 19.313429 17.5961 18.25 18.3125 C 18.390243 18.161734 18.51362 18.008142 18.59375 17.8125 C 18.74175 17.4515 18.72 16.995 18.625 16.625 C 18.559 16.368 18.5235 16.2265 18.3125 16.0625 C 18.1795 15.9575 17.944 15.89175 17.875 15.71875 C 17.703 15.28475 18.14075 14.86725 18.46875 14.65625 C 18.72575 14.48725 19.61875 14.08175 18.96875 13.84375 C 18.44675 13.65075 17.94875 14.1255 17.46875 13.6875 C 17.11875 13.3695 17.243 12.81225 17.375 12.40625 C 17.477187 12.094062 17.54625 11.697728 17.71875 11.40625 z" overflow="visible" font-family="Sans" fill="#000000"/></svg>
