<?xml version="1.0" encoding="utf-8"?>
<svg xmlns="http://www.w3.org/2000/svg" viewBox="0 0 32 32" fill="#000000"><path style="text-indent:0;text-align:start;line-height:normal;text-transform:none;block-progression:tb;-inkscape-font-specification:Bitstream Vera Sans" d="M 5 5 L 5 6 L 5 26 L 5 27 L 6 27 L 12 27 L 12 25 L 7 25 L 7 7 L 25 7 L 25 25 L 20 25 L 20 27 L 26 27 L 27 27 L 27 26 L 27 6 L 27 5 L 26 5 L 6 5 L 5 5 z M 16 9 C 12.154545 9 9 12.154545 9 16 C 9 18.77964 10.679198 21.101197 13 22.28125 L 13 29 L 15 29 L 15 21.6875 L 15 21.03125 L 14.375 20.78125 C 12.434266 20.021832 11 18.164103 11 16 C 11 13.245455 13.245455 11 16 11 C 18.754545 11 21 13.245455 21 16 C 21 18.280247 19.563373 20.086653 17.65625 20.75 L 17 21 L 17 21.6875 L 17 29 L 19 29 L 19 22.3125 C 21.331143 21.200637 23 18.844308 23 16 C 23 12.154545 19.845455 9 16 9 z" overflow="visible" font-family="Bitstream Vera Sans" fill="#000000"/></svg>
