<?xml version="1.0" encoding="utf-8"?>
<svg xmlns="http://www.w3.org/2000/svg" viewBox="0 0 32 32" fill="#000000"><path d="M 10 4 L 10 5 L 10 7 L 8 7 L 7 7 L 7 8 C 7 9.8870842 7.7458538 11.206436 8.625 11.96875 C 9.0645731 12.349907 9.5350343 12.625227 9.9375 12.78125 C 9.960212 12.79005 9.977888 12.77295 10 12.78125 L 10 13 L 8 13 L 7 13 L 7 14 C 7 15.887084 7.7458538 17.206436 8.625 17.96875 C 9.0645731 18.349907 9.5350343 18.625227 9.9375 18.78125 C 9.960212 18.79005 9.977888 18.77295 10 18.78125 L 10 19 L 8 19 L 7 19 L 7 20 C 7 21.887084 7.7458538 23.206436 8.625 23.96875 C 9.0645731 24.349907 9.5350343 24.625227 9.9375 24.78125 C 9.960212 24.79005 9.977888 24.77295 10 24.78125 L 10 27 L 10 28 L 11 28 L 21 28 L 22 28 L 22 27 L 22 24.78125 C 22.02211 24.77295 22.03979 24.79005 22.0625 24.78125 C 22.464966 24.625227 22.935427 24.349907 23.375 23.96875 C 24.254146 23.206436 25 21.887084 25 20 L 25 19 L 24 19 L 22 19 L 22 18.78125 C 22.02211 18.77295 22.03979 18.79005 22.0625 18.78125 C 22.464966 18.625227 22.935427 18.349907 23.375 17.96875 C 24.254146 17.206436 25 15.887084 25 14 L 25 13 L 24 13 L 22 13 L 22 12.78125 C 22.02211 12.77295 22.03979 12.79005 22.0625 12.78125 C 22.464966 12.625227 22.935427 12.349907 23.375 11.96875 C 24.254146 11.206436 25 9.8870842 25 8 L 25 7 L 24 7 L 22 7 L 22 5 L 22 4 L 21 4 L 11 4 L 10 4 z M 12 6 L 20 6 L 20 8 L 20 9 L 21 9 L 22.8125 9 C 22.642276 9.6727797 22.393584 10.181664 22.0625 10.46875 C 21.821073 10.678093 21.555534 10.824148 21.34375 10.90625 C 21.131966 10.988352 20.919401 11 21 11 L 20 11 L 20 12 L 20 14 L 20 15 L 21 15 L 22.8125 15 C 22.642276 15.67278 22.393584 16.181664 22.0625 16.46875 C 21.821073 16.678093 21.555534 16.824148 21.34375 16.90625 C 21.131966 16.988352 20.919401 17 21 17 L 20 17 L 20 18 L 20 20 L 20 21 L 21 21 L 22.8125 21 C 22.642276 21.67278 22.393584 22.181664 22.0625 22.46875 C 21.821073 22.678093 21.555534 22.824148 21.34375 22.90625 C 21.131966 22.988352 20.919401 23 21 23 L 20 23 L 20 24 L 20 26 L 12 26 L 12 24 L 12 23 L 11 23 C 11.0806 23 10.868034 22.98835 10.65625 22.90625 C 10.444466 22.82415 10.178927 22.678093 9.9375 22.46875 C 9.6064157 22.181664 9.3577236 21.67278 9.1875 21 L 11 21 L 12 21 L 12 20 L 12 18 L 12 17 L 11 17 C 11.0806 17 10.868034 16.98835 10.65625 16.90625 C 10.444466 16.82415 10.178927 16.678093 9.9375 16.46875 C 9.6064157 16.181664 9.3577236 15.67278 9.1875 15 L 11 15 L 12 15 L 12 14 L 12 12 L 12 11 L 11 11 C 11.0806 11 10.868034 10.98835 10.65625 10.90625 C 10.444466 10.82415 10.178927 10.678093 9.9375 10.46875 C 9.6064157 10.181664 9.3577236 9.6727797 9.1875 9 L 11 9 L 12 9 L 12 8 L 12 6 z M 16 8 C 14.895431 8 14 8.8954305 14 10 C 14 11.104569 14.895431 12 16 12 C 17.104569 12 18 11.104569 18 10 C 18 8.8954305 17.104569 8 16 8 z M 16 14 C 14.895431 14 14 14.895431 14 16 C 14 17.104569 14.895431 18 16 18 C 17.104569 18 18 17.104569 18 16 C 18 14.895431 17.104569 14 16 14 z M 16 20 C 14.895431 20 14 20.895431 14 22 C 14 23.104569 14.895431 24 16 24 C 17.104569 24 18 23.104569 18 22 C 18 20.895431 17.104569 20 16 20 z" fill="#000000"/></svg>
