<?xml version="1.0" encoding="utf-8"?>
<svg xmlns="http://www.w3.org/2000/svg" viewBox="0 0 32 32" fill="#000000"><path style="text-indent:0;text-align:start;line-height:normal;text-transform:none;block-progression:tb;-inkscape-font-specification:Bitstream Vera Sans" d="M 7 5 C 6.0423851 5 5.242151 5.5742736 4.75 6.3125 C 4.257849 7.0507264 4 7.9914262 4 9 C 4 10.008574 4.2578491 10.949274 4.75 11.6875 C 5.2421509 12.425726 6.0423851 13 7 13 C 7.9576149 13 8.7578491 12.425726 9.25 11.6875 C 9.5748196 11.200271 9.7923239 10.624928 9.90625 10 L 12.15625 10 C 12.603316 11.719842 14.146802 13 16 13 C 17.853198 13 19.396684 11.719842 19.84375 10 L 22.09375 10 C 22.207676 10.624928 22.42518 11.200271 22.75 11.6875 C 23.242151 12.425726 24.042385 13 25 13 C 25.957615 13 26.757849 12.425726 27.25 11.6875 C 27.742151 10.949274 28 10.008574 28 9 C 28 7.9914261 27.742151 7.0507264 27.25 6.3125 C 26.757849 5.5742736 25.957615 5 25 5 C 24.042385 5 23.242151 5.5742736 22.75 6.3125 C 22.42518 6.7997294 22.207676 7.3750725 22.09375 8 L 19.84375 8 C 19.396684 6.280158 17.853198 5 16 5 C 14.146802 5 12.603316 6.280158 12.15625 8 L 9.90625 8 C 9.7923239 7.3750725 9.5748197 6.7997294 9.25 6.3125 C 8.757849 5.5742736 7.9576149 5 7 5 z M 7 7 C 7.1469546 7 7.3620433 7.08994 7.59375 7.4375 C 7.8254567 7.78506 8 8.3517196 8 9 C 8 9.6482803 7.8254567 10.21494 7.59375 10.5625 C 7.3620433 10.91006 7.1469546 11 7 11 C 6.8530454 11 6.6379567 10.91006 6.40625 10.5625 C 6.1745433 10.21494 6 9.6482803 6 9 C 6 8.3517196 6.1745433 7.78506 6.40625 7.4375 C 6.6379567 7.08994 6.8530454 7 7 7 z M 16 7 C 17.116414 7 18 7.883586 18 9 C 18 10.116414 17.116414 11 16 11 C 14.883586 11 14 10.116414 14 9 C 14 7.883586 14.883586 7 16 7 z M 25 7 C 25.146954 7 25.362043 7.08994 25.59375 7.4375 C 25.825457 7.7850601 26 8.3517197 26 9 C 26 9.6482802 25.825457 10.21494 25.59375 10.5625 C 25.362043 10.91006 25.146954 11 25 11 C 24.853046 11 24.637957 10.91006 24.40625 10.5625 C 24.174543 10.21494 24 9.6482802 24 9 C 24 8.3517197 24.174543 7.7850601 24.40625 7.4375 C 24.637957 7.0899399 24.853046 7 25 7 z M 15 14 L 15 17 L 8 17 L 7 17 L 7 18 L 7 26 L 7 27 L 8 27 L 24 27 L 25 27 L 25 26 L 25 18 L 25 17 L 24 17 L 17 17 L 17 14 L 15 14 z M 9 19 L 23 19 L 23 25 L 9 25 L 9 19 z" fill="#000000"/></svg>
