<?xml version="1.0" encoding="utf-8"?>
<svg xmlns="http://www.w3.org/2000/svg" viewBox="0 0 32 32" fill="#000000"><path d="M 6 5 L 6 7.375 L 6.8125 7.65625 C 7.5468574 8.2693997 8 9.1566489 8 10.125 L 8 21 C 8 22.64497 9.3550302 24 11 24 C 12.64497 24 14 22.64497 14 21 L 14 18.875 C 14 18.145189 14.660691 17.681418 15.34375 17.9375 C 15.737985 18.085401 16 18.454269 16 18.875 L 16 25 C 16 26.64497 17.35503 28 19 28 C 20.64497 28 22 26.64497 22 25 L 22 16.03125 C 22 14.757148 22.981759 13.79507 24.1875 13.75 L 24.21875 13.75 L 26 14.375 L 26 12 L 6 5 z M 9.8125 8.71875 L 21.5 12.8125 C 20.592193 13.594138 20 14.730045 20 16.03125 L 20 25 C 20 25.56503 19.56503 26 19 26 C 18.43497 26 18 25.56503 18 25 L 18 18.875 C 18 17.627731 17.230265 16.500599 16.0625 16.0625 C 14.131559 15.338582 12 16.812811 12 18.875 L 12 21 C 12 21.56503 11.56503 22 11 22 C 10.43497 22 10 21.56503 10 21 L 10 10.125 C 10 9.6442557 9.9384578 9.1703301 9.8125 8.71875 z" fill="#000000"/></svg>
