<?xml version="1.0" encoding="utf-8"?>
<svg xmlns="http://www.w3.org/2000/svg" viewBox="0 0 32 32" fill="#000000"><path style="text-indent:0;text-align:start;line-height:normal;text-transform:none;block-progression:tb;-inkscape-font-specification:Bitstream Vera Sans" d="M 10 3.875 L 9.5625 4.09375 L 3.5625 7.09375 L 3 7.375 L 3 8 L 3 27 L 3 28 L 4 28 L 28 28 L 29 28 L 29 27 L 29 8 L 29 7.375 L 28.4375 7.09375 L 22.4375 4.09375 L 22 3.875 L 21.5625 4.09375 L 16 6.875 L 10.4375 4.09375 L 10 3.875 z M 10 6.125 L 15 8.625 L 15 26 L 5 26 L 5 8.625 L 10 6.125 z M 22 6.125 L 27 8.625 L 27 26 L 17 26 L 17 8.625 L 22 6.125 z M 7 10 L 7 12 L 9 12 L 9 10 L 7 10 z M 11 10 L 11 12 L 13 12 L 13 10 L 11 10 z M 19 10 L 19 12 L 21 12 L 21 10 L 19 10 z M 23 10 L 23 12 L 25 12 L 25 10 L 23 10 z M 7 14 L 7 16 L 9 16 L 9 14 L 7 14 z M 11 14 L 11 16 L 13 16 L 13 14 L 11 14 z M 19 14 L 19 16 L 21 16 L 21 14 L 19 14 z M 23 14 L 23 16 L 25 16 L 25 14 L 23 14 z M 7 18 L 7 20 L 9 20 L 9 18 L 7 18 z M 11 18 L 11 20 L 13 20 L 13 18 L 11 18 z M 19 18 L 19 20 L 21 20 L 21 18 L 19 18 z M 23 18 L 23 20 L 25 20 L 25 18 L 23 18 z M 7 22 L 7 24 L 9 24 L 9 22 L 7 22 z M 11 22 L 11 24 L 13 24 L 13 22 L 11 22 z M 19 22 L 19 24 L 21 24 L 21 22 L 19 22 z M 23 22 L 23 24 L 25 24 L 25 22 L 23 22 z" fill="#000000"/></svg>
