<?xml version="1.0" encoding="utf-8"?>
<svg xmlns="http://www.w3.org/2000/svg" viewBox="0 0 32 32" fill="#000000"><path style="line-height:normal;text-indent:0;text-align:start;text-decoration-line:none;text-decoration-style:solid;text-decoration-color:#000;text-transform:none;block-progression:tb;isolation:auto;mix-blend-mode:normal" d="M 6 3 L 6 8 L 6.0820312 8 C 4.1730588 10.125811 3 12.925506 3 16 C 3 19.074494 4.1730588 21.874189 6.0820312 24 L 6 24 L 6 29 L 8 29 L 8 25.726562 C 9.9728745 27.15049 12.387168 28 15 28 C 17.612832 28 20.027125 27.15049 22 25.726562 L 22 29 L 24 29 L 24 24 L 23.917969 24 C 25.402831 22.346473 26.432437 20.283539 26.818359 18 L 29 18 L 29 14 L 26.822266 14 C 26.433751 11.718461 25.403045 9.6537652 23.917969 8 L 24 8 L 24 3 L 22 3 L 22 6.2734375 C 20.027125 4.8495098 17.612832 4 15 4 C 12.387168 4 9.9728745 4.8495098 8 6.2734375 L 8 3 L 6 3 z M 15 6 C 20.534692 6 25 10.465308 25 16 C 25 21.534692 20.534692 26 15 26 C 9.4653079 26 5 21.534692 5 16 C 5 10.465308 9.4653079 6 15 6 z M 14 9 L 14 17 L 19 17 L 19 15 L 16 15 L 16 9 L 14 9 z" fill="#000000"/></svg>
