<?xml version="1.0" encoding="utf-8"?>
<svg xmlns="http://www.w3.org/2000/svg" viewBox="0 0 32 32" fill="#000000"><path style="text-indent:0;text-align:start;line-height:normal;text-transform:none;block-progression:tb;-inkscape-font-specification:Sans" d="M 16 3 C 13.254545 3 11 5.2545455 11 8 L 6 8 L 5 8 L 5 9 L 5 28 L 5 29 L 6 29 L 26 29 L 27 29 L 27 28 L 27 9 L 27 8 L 26 8 L 21 8 C 21 5.2545455 18.745455 3 16 3 z M 16 5 C 17.654545 5 19 6.3454545 19 8 L 13 8 C 13 6.3454545 14.345455 5 16 5 z M 7 10 L 11 10 L 11 12 L 13 12 L 13 10 L 19 10 L 19 12 L 21 12 L 21 10 L 25 10 L 25 27 L 7 27 L 7 10 z M 13 14.21875 L 13 16 L 13 22 L 13 23.78125 L 14.5 22.84375 L 19.5 19.84375 L 20.9375 19 L 19.5 18.15625 L 14.5 15.15625 L 13 14.21875 z M 15 17.75 L 17.09375 19 L 15 20.25 L 15 17.75 z" overflow="visible" font-family="Sans" fill="#000000"/></svg>
