<?xml version="1.0" encoding="utf-8"?>
<svg xmlns="http://www.w3.org/2000/svg" viewBox="0 0 32 32" fill="#000000"><path style="text-indent:0;text-align:start;line-height:normal;text-transform:none;block-progression:tb;-inkscape-font-specification:Bitstream Vera Sans" d="M 16 5 C 15.184053 5 14.517434 5.4367299 14 6 C 12.219887 6 11 7.6869459 11 9.5 C 11 10.367272 11.29519 11.20503 11.78125 11.84375 C 11.733665 11.934725 11.699782 12.031024 11.65625 12.125 L 9.90625 10.625 L 8.96875 5.8125 L 7.03125 6.1875 L 8.03125 11.375 L 8.09375 11.71875 L 8.34375 11.9375 L 10.75 14 L 7.625 14 L 5.90625 10.5625 L 4.09375 11.4375 L 6.09375 15.4375 L 6.375 16 L 7 16 L 9.28125 16 C 7.3603167 17.741926 5 20.464829 5 24.4375 C 5 25.258003 5.3404298 25.97689 5.84375 26.40625 C 6.3470702 26.83561 6.9397167 27 7.46875 27 C 8.2138903 27 10.33574 27.01325 12.3125 25.8125 C 12.496011 25.701029 12.66598 25.571648 12.84375 25.4375 C 13.575438 26.380102 14.718656 27 16 27 C 17.281344 27 18.424562 26.380102 19.15625 25.4375 C 19.33402 25.571648 19.503989 25.701029 19.6875 25.8125 C 21.66426 27.013252 23.78611 27 24.53125 27 C 25.060283 27 25.65293 26.83561 26.15625 26.40625 C 26.65957 25.97689 27 25.258003 27 24.4375 C 27 20.464829 24.639683 17.741926 22.71875 16 L 25 16 L 25.625 16 L 25.90625 15.4375 L 27.90625 11.4375 L 26.09375 10.5625 L 24.375 14 L 21.25 14 L 23.65625 11.9375 L 23.90625 11.71875 L 23.96875 11.375 L 24.96875 6.1875 L 23.03125 5.8125 L 22.09375 10.625 L 20.34375 12.125 C 20.299495 12.029461 20.263833 11.936988 20.21875 11.84375 C 20.70481 11.20503 21 10.367272 21 9.5 C 21 7.6869459 19.780113 6 18 6 C 17.482566 5.4367299 16.815947 5 16 5 z M 16 7 C 16.257065 7 16.525394 7.1395808 16.75 7.53125 L 17.125 8.1875 L 17.84375 8.03125 C 17.903473 8.0166834 17.964023 8 18 8 C 18.429887 8 19 8.5510541 19 9.5 C 19 10.448946 18.429887 11 18 11 L 16 11 L 14 11 C 13.570113 11 13 10.448946 13 9.5 C 13 8.5510541 13.570113 8 14 8 C 14.03598 8 14.09653 8.016683 14.15625 8.03125 L 14.875 8.1875 L 15.25 7.53125 C 15.474606 7.1395808 15.742935 7 16 7 z M 13.4375 12.9375 C 13.622829 12.978065 13.799517 13 14 13 L 16 13 L 18 13 C 18.200483 13 18.377171 12.978065 18.5625 12.9375 C 18.837691 13.534031 19 14.243782 19 15 C 19 15.698252 18.748248 16.092916 18.25 16.4375 C 17.751752 16.782084 16.952848 17 16 17 C 15.045643 17 14.247304 16.780572 13.75 16.4375 C 13.252696 16.094428 13 15.704744 13 15 C 13 14.243782 13.162309 13.534031 13.4375 12.9375 z M 11.4375 16.78125 C 11.717132 17.302383 12.118527 17.734661 12.59375 18.0625 C 13.00825 18.348448 13.475241 18.567377 13.96875 18.71875 C 13.768421 21.86111 12.553447 23.301992 11.25 24.09375 C 9.8235104 24.960248 8.1786097 25 7.46875 25 C 7.3727833 25 7.2296798 24.96889 7.15625 24.90625 C 7.0828202 24.84361 7 24.772997 7 24.4375 C 7 20.707107 9.5157206 18.396667 11.4375 16.78125 z M 20.53125 16.78125 C 22.45506 18.397105 25 20.694581 25 24.4375 C 25 24.772997 24.91718 24.84361 24.84375 24.90625 C 24.77032 24.96889 24.627217 25 24.53125 25 C 23.82139 25 22.17649 24.960248 20.75 24.09375 C 19.446553 23.301992 18.231579 21.86111 18.03125 18.71875 C 18.524632 18.567452 18.992162 18.348879 19.40625 18.0625 C 19.87779 17.736388 20.258643 17.298129 20.53125 16.78125 z M 15.9375 19 C 15.958288 19.000156 15.979182 19 16 19 C 16.020843 19 16.041688 19.000155 16.0625 19 C 16.235001 21.146497 16.853409 22.775579 17.71875 23.96875 C 17.382644 24.58582 16.757068 25 16 25 C 15.242932 25 14.617356 24.58582 14.28125 23.96875 C 15.148229 22.773319 15.766426 21.149491 15.9375 19 z" fill="#000000"/></svg>
