<?xml version="1.0" encoding="utf-8"?>
<svg xmlns="http://www.w3.org/2000/svg" viewBox="0 0 32 32" fill="#000000"><path style="text-indent:0;text-align:start;line-height:normal;text-transform:none;block-progression:tb;-inkscape-font-specification:Sans" d="M 9 7 C 5.6981362 7 3 9.6981359 3 13 C 3 14.983743 3.9751342 16.750036 5.46875 17.84375 C 2.831147 19.154076 1 21.864226 1 25 L 3 25 C 3 21.674438 5.674438 19 9 19 C 12.325562 19 15 21.674438 15 25 L 17 25 C 17 21.864226 15.168853 19.154076 12.53125 17.84375 C 14.024866 16.750036 15 14.983743 15 13 C 15 9.698136 12.301864 7 9 7 z M 9 9 C 11.220984 9 13 10.779016 13 13 C 13 15.220984 11.220984 17 9 17 C 6.7790164 17 5 15.220984 5 13 C 5 10.779016 6.7790164 9 9 9 z M 19 11 L 19 13 L 31 13 L 31 11 L 19 11 z M 19 15 L 19 17 L 31 17 L 31 15 L 19 15 z M 19 19 L 19 21 L 31 21 L 31 19 L 19 19 z" overflow="visible" font-family="Sans" fill="#000000"/></svg>
