<?xml version="1.0" encoding="utf-8"?>
<svg xmlns="http://www.w3.org/2000/svg" viewBox="0 0 32 32" fill="#000000"><path style="text-indent:0;text-align:start;line-height:normal;text-transform:none;block-progression:tb;-inkscape-font-specification:Sans" d="M 11.5 7 C 10.130937 7 9 8.1309372 9 9.5 L 9 13.5 C 9 14.869063 10.130937 16 11.5 16 C 12.869063 16 14 14.869063 14 13.5 L 14 9.5 C 14 8.1309372 12.869063 7 11.5 7 z M 18.5 7 C 17.130937 7 16 8.1309372 16 9.5 C 16 10.062183 16.211672 10.579942 16.53125 11 C 16.211672 11.420058 16 11.937817 16 12.5 L 16 13.5 C 16 14.869063 17.130937 16 18.5 16 C 19.869063 16 21 14.869063 21 13.5 L 21 12.5 C 21 11.937817 20.788328 11.420058 20.46875 11 C 20.788328 10.579942 21 10.062183 21 9.5 C 21 8.1309372 19.869063 7 18.5 7 z M 25.5 7 C 24.130937 7 23 8.1309372 23 9.5 L 23 13.5 C 23 14.869063 24.130937 16 25.5 16 C 26.869063 16 28 14.869063 28 13.5 L 28 9.5 C 28 8.1309372 26.869063 7 25.5 7 z M 5.28125 7.1875 L 5 7.65625 C 5 7.65625 4.3879196 8.6631208 3.1875 9.0625 L 3.8125 10.9375 C 4.3440197 10.760664 4.6171116 10.455193 5 10.1875 L 5 16 L 7 16 L 7 8.1875 L 7 7.1875 L 6 7.1875 L 5.84375 7.1875 L 5.28125 7.1875 z M 11.5 9 C 11.786937 9 12 9.2130628 12 9.5 L 12 13.5 C 12 13.786937 11.786937 14 11.5 14 C 11.213063 14 11 13.786937 11 13.5 L 11 9.5 C 11 9.2130628 11.213063 9 11.5 9 z M 18.5 9 C 18.786937 9 19 9.2130628 19 9.5 C 19 9.7869372 18.786937 10 18.5 10 C 18.213063 10 18 9.7869372 18 9.5 C 18 9.2130628 18.213063 9 18.5 9 z M 25.5 9 C 25.786937 9 26 9.2130628 26 9.5 L 26 13.5 C 26 13.786937 25.786937 14 25.5 14 C 25.213063 14 25 13.786937 25 13.5 L 25 9.5 C 25 9.2130628 25.213063 9 25.5 9 z M 18.5 12 C 18.786937 12 19 12.213063 19 12.5 L 19 13.5 C 19 13.786937 18.786937 14 18.5 14 C 18.213063 14 18 13.786937 18 13.5 L 18 12.5 C 18 12.213063 18.213063 12 18.5 12 z M 2 18 L 2 25 L 2 26 L 3 26 L 29 26 L 30 26 L 30 25 L 30 18 L 28 18 L 28 20 L 27 20 L 27 22 L 28 22 L 28 24 L 4 24 L 4 22 L 5 22 L 5 20 L 4 20 L 4 18 L 2 18 z M 7 20 L 7 22 L 9 22 L 9 20 L 7 20 z M 11 20 L 11 22 L 13 22 L 13 20 L 11 20 z M 15 20 L 15 22 L 17 22 L 17 20 L 15 20 z M 19 20 L 19 22 L 21 22 L 21 20 L 19 20 z M 23 20 L 23 22 L 25 22 L 25 20 L 23 20 z" fill="#000000"/></svg>
