<?xml version="1.0" encoding="utf-8"?>
<svg xmlns="http://www.w3.org/2000/svg" viewBox="0 0 32 32" fill="#000000"><path style="text-indent:0;text-align:start;line-height:normal;text-transform:none;block-progression:tb;-inkscape-font-specification:Sans" d="M 11.625 6 C 11.505313 6.0073236 11.291979 6.0457282 11.125 6.0625 C 10.224754 6.1352948 9.3032172 6.3072684 8.40625 6.65625 C 8.2817062 6.7047061 8.1540113 6.7578501 8.03125 6.8125 C 7.8839654 6.8690867 7.7420327 6.903728 7.59375 6.96875 C 5.3702259 7.9437653 3 10.126175 3 14 C 3 15.929593 3.5148487 18.859809 5.4375 21.40625 C 7.3601513 23.952691 10.7417 26 16 26 C 21.2583 26 24.639849 23.952691 26.5625 21.40625 C 28.485151 18.859809 29 15.929593 29 14 C 29 10.126175 26.629774 7.9437653 24.40625 6.96875 C 24.257967 6.903728 24.116035 6.8690867 23.96875 6.8125 C 23.875749 6.7710985 23.781553 6.7253319 23.6875 6.6875 C 23.656482 6.6765901 23.62465 6.6668123 23.59375 6.65625 C 22.696783 6.3072684 21.775246 6.1352948 20.875 6.0625 C 20.374062 6.0121845 20 6 20 6 C 18.613771 6 17.20204 6.3990316 16 7.125 C 14.79796 6.3990316 13.386229 6 12 6 C 12 6 11.864373 5.9853528 11.625 6 z M 12 8 C 12.761358 8 13.568717 8.2020094 14.3125 8.53125 C 13.507622 9.4739298 13 10.655648 13 12 C 13 13.734161 13.579081 15.184265 14.46875 16.28125 C 13.899261 16.626854 13.29632 16.930881 12.65625 17.15625 C 10.620797 17.872933 8.8036663 17.954859 8.34375 17.96875 C 6.9467017 16.589016 6 14.898204 6 13 C 6 11.076847 6.7902183 9.9480566 7.9375 9.15625 C 8.4594992 8.7959876 9.0836498 8.5329984 9.71875 8.34375 C 9.7280897 8.3409669 9.7406488 8.3464974 9.75 8.34375 C 10.157986 8.2386523 10.545543 8.1414553 10.875 8.09375 C 11.070508 8.0654405 11.190958 8.0456263 11.34375 8.03125 C 11.566848 8.0125781 11.785033 8 12 8 z M 20 8 C 20.214967 8 20.433152 8.0125781 20.65625 8.03125 C 21.073342 8.0704949 21.618153 8.1705424 22.28125 8.34375 C 22.91635 8.5329984 23.540501 8.7959876 24.0625 9.15625 C 25.209782 9.9480566 26 11.076847 26 13 C 26 14.898565 25.018522 16.585291 23.59375 17.96875 C 23.069542 17.94668 21.333154 17.833725 19.34375 17.125 C 18.716699 16.901613 18.121929 16.616037 17.5625 16.28125 C 18.437052 15.18316 19 13.731653 19 12 C 19 10.655648 18.492378 9.4739298 17.6875 8.53125 C 18.431283 8.2020094 19.238642 8 20 8 z M 16 9.65625 C 16.636972 10.312774 17 11.100375 17 12 C 17 13.291924 16.603636 14.208216 16 14.96875 C 15.386968 14.207754 15 13.282179 15 12 C 15 11.100375 15.363028 10.312774 16 9.65625 z M 16.03125 17.6875 C 16.860529 18.273666 17.760787 18.712241 18.65625 19.03125 C 19.592043 19.364626 20.405543 19.479841 21.21875 19.625 C 19.666293 20.422235 17.940729 21 16 21 C 14.00875 21 12.270141 20.422085 10.71875 19.625 C 11.545599 19.485103 12.385861 19.399773 13.34375 19.0625 C 14.262308 18.739076 15.185988 18.297327 16.03125 17.6875 z M 25.875 18.6875 C 25.622444 19.201062 25.332316 19.705978 24.96875 20.1875 C 23.395401 22.271309 20.7577 24 16 24 C 11.2423 24 8.6045987 22.271309 7.03125 20.1875 C 6.6735477 19.713744 6.3751179 19.223805 6.125 18.71875 C 8.3247224 21.340937 12.000599 23 16 23 C 19.952584 23 23.656317 21.337908 25.875 18.6875 z" overflow="visible" font-family="Sans" fill="#000000"/></svg>
