<?xml version="1.0" encoding="utf-8"?>
<svg xmlns="http://www.w3.org/2000/svg" viewBox="0 0 32 32" fill="#000000"><path d="M 12.4375 3 C 9.7817982 3 6.6875 4.0625 6.6875 4.0625 L 5.90625 4.3125 L 6 5.09375 L 8 24.09375 L 8.09375 25 L 9 25 L 9 25.5 C 9 27.421188 10.578812 29 12.5 29 C 14.421188 29 16 27.421188 16 25.5 L 16 25 L 16.09375 25 L 16.90625 25 L 17 25 L 17 25.5 C 17 27.421188 18.578812 29 20.5 29 C 22.421188 29 24 27.421188 24 25.5 L 24 25 L 24.90625 25 L 25 24.09375 L 27 5.09375 L 27.09375 4.28125 L 26.3125 4.03125 C 26.3125 4.03125 23.093202 3 20.4375 3 C 19.171813 3 17.828771 3.2526518 16.75 3.5 L 16.78125 3.59375 C 15.601454 3.3050704 13.955438 3 12.4375 3 z M 12.4375 5 C 14.087103 5 15.996823 5.4986049 16.90625 5.75 L 15.5 19.21875 L 15.09375 23 L 9.90625 23 L 8.09375 5.71875 C 8.9849972 5.4641763 10.804381 5 12.4375 5 z M 20.4375 5 C 22.087103 5 23.996823 5.4986049 24.90625 5.75 L 23.09375 23 L 17.90625 23 L 17.53125 19.1875 L 19 5.09375 C 19.499428 5.0279264 19.994144 5 20.4375 5 z M 12 7 C 11.447715 7 11 7.4477153 11 8 C 11 8.5522847 11.447715 9 12 9 C 12.552285 9 13 8.5522847 13 8 C 13 7.4477153 12.552285 7 12 7 z M 21 7 C 20.447715 7 20 7.4477153 20 8 C 20 8.5522847 20.447715 9 21 9 C 21.552285 9 22 8.5522847 22 8 C 22 7.4477153 21.552285 7 21 7 z M 12 11 C 11.447715 11 11 11.447715 11 12 C 11 12.552285 11.447715 13 12 13 C 12.552285 13 13 12.552285 13 12 C 13 11.447715 12.552285 11 12 11 z M 21 11 C 20.447715 11 20 11.447715 20 12 C 20 12.552285 20.447715 13 21 13 C 21.552285 13 22 12.552285 22 12 C 22 11.447715 21.552285 11 21 11 z M 12 15 C 11.447715 15 11 15.447715 11 16 C 11 16.552285 11.447715 17 12 17 C 12.552285 17 13 16.552285 13 16 C 13 15.447715 12.552285 15 12 15 z M 21 15 C 20.447715 15 20 15.447715 20 16 C 20 16.552285 20.447715 17 21 17 C 21.552285 17 22 16.552285 22 16 C 22 15.447715 21.552285 15 21 15 z M 12 19 C 11.447715 19 11 19.447715 11 20 C 11 20.552285 11.447715 21 12 21 C 12.552285 21 13 20.552285 13 20 C 13 19.447715 12.552285 19 12 19 z M 21 19 C 20.447715 19 20 19.447715 20 20 C 20 20.552285 20.447715 21 21 21 C 21.552285 21 22 20.552285 22 20 C 22 19.447715 21.552285 19 21 19 z M 11 25 L 14 25 L 14 25.5 C 14 26.340812 13.340812 27 12.5 27 C 11.659188 27 11 26.340812 11 25.5 L 11 25 z M 19 25 L 22 25 L 22 25.5 C 22 26.340812 21.340812 27 20.5 27 C 19.659188 27 19 26.340812 19 25.5 L 19 25 z" fill="#000000"/></svg>
