<?xml version="1.0" encoding="utf-8"?>
<svg xmlns="http://www.w3.org/2000/svg" viewBox="0 0 32 32" fill="#000000"><path style="line-height:normal;text-indent:0;text-align:start;text-decoration-line:none;text-decoration-style:solid;text-decoration-color:#000;text-transform:none;block-progression:tb;isolation:auto;mix-blend-mode:normal" d="M 2 7 L 2 8 L 2 25 L 30 25 L 30 7 L 2 7 z M 4 9 L 28 9 L 28 23 L 4 23 L 4 9 z M 23 11 L 23 12.039062 C 21.875437 12.22623 21 13.209879 21 14.382812 L 21 15.382812 L 21.285156 15.382812 C 21.477986 15.713613 21.752968 15.995171 22.107422 16.171875 L 24.998047 17.617188 C 24.997234 17.838456 24.838773 18 24.617188 18 L 23.382812 18 C 23.160661 18 23 17.83934 23 17.617188 L 23 17 L 21 17 L 21 17.617188 C 21 18.790121 21.875437 19.77377 23 19.960938 L 23 21 L 25 21 L 25 19.958984 C 25.717339 19.814483 26.244424 19.27419 26.583984 18.617188 L 27 18.617188 L 27 17.617188 C 27 16.861757 26.568804 16.166256 25.894531 15.828125 L 23.001953 14.380859 C 23.003573 14.160475 23.161793 14 23.382812 14 L 24.617188 14 C 24.839339 14 25 14.16066 25 14.382812 L 25 15 L 27 15 L 27 14.382812 C 27 13.209879 26.124563 12.22623 25 12.039062 L 25 11 L 23 11 z M 7.5 12 C 6.1309372 12 5 13.130937 5 14.5 L 5 17.5 C 5 18.869063 6.1309372 20 7.5 20 L 8.5 20 C 9.8690628 20 11 18.869063 11 17.5 L 11 14.5 C 11 13.130937 9.8690628 12 8.5 12 L 7.5 12 z M 14.5 12 C 13.130937 12 12 13.130937 12 14.5 L 12 17.5 C 12 18.869063 13.130937 20 14.5 20 L 15.5 20 C 16.869063 20 18 18.869063 18 17.5 L 18 14.5 C 18 13.130937 16.869063 12 15.5 12 L 14.5 12 z M 7.5 14 L 8.5 14 C 8.7869372 14 9 14.213063 9 14.5 L 9 17.5 C 9 17.786937 8.7869372 18 8.5 18 L 7.5 18 C 7.2130628 18 7 17.786937 7 17.5 L 7 14.5 C 7 14.213063 7.2130628 14 7.5 14 z M 14.5 14 L 15.5 14 C 15.786937 14 16 14.213063 16 14.5 L 16 17.5 C 16 17.786937 15.786937 18 15.5 18 L 14.5 18 C 14.213063 18 14 17.786937 14 17.5 L 14 14.5 C 14 14.213063 14.213063 14 14.5 14 z" font-weight="400" font-family="sans-serif" white-space="normal" overflow="visible" fill="#000000"/></svg>
