<?xml version="1.0" encoding="utf-8"?>
<svg xmlns="http://www.w3.org/2000/svg" viewBox="0 0 32 32" fill="#000000"><path style="text-indent:0;text-align:start;line-height:normal;text-transform:none;block-progression:tb;-inkscape-font-specification:Sans" d="M 16 3 C 13.000279 3 10.59375 4.09375 10.59375 4.09375 L 9.625 4.5 L 10.09375 5.4375 L 11.6875 8.59375 C 9.5535272 9.8507459 4 13.702413 4 20 C 4 22.951312 4.9588276 25.195512 7.03125 26.4375 C 9.1036724 27.679488 12.009822 28 16 28 C 19.990178 28 22.896328 27.679488 24.96875 26.4375 C 27.041172 25.195512 28 22.951312 28 20 C 28 15.890587 25.599653 12.814343 23.34375 10.8125 C 25.287646 11.603356 26.25 12.6875 26.25 12.6875 L 27.75 11.3125 C 27.75 11.3125 25.1983 8.6165835 20.5625 8.09375 L 21.90625 5.4375 L 22.375 4.5 L 21.40625 4.09375 C 21.40625 4.09375 18.999721 3 16 3 z M 16 5 C 17.574981 5 18.764743 5.29481 19.59375 5.5625 L 18.375 8 L 13.625 8 L 12.40625 5.5625 C 13.235257 5.29481 14.425019 5 16 5 z M 13.3125 10 L 18.6875 10 C 18.932379 10.12852 26 13.853659 26 20 C 26 22.571688 25.401328 23.841488 23.9375 24.71875 C 22.473672 25.596012 19.864822 26 16 26 C 12.135178 26 9.5263276 25.596012 8.0625 24.71875 C 6.5986724 23.841488 6 22.571688 6 20 C 6 13.853939 13.067527 10.128527 13.3125 10 z M 16.46875 12 C 15.008868 12 13.790239 12.780827 13.0625 13.90625 C 12.666578 14.518529 12.391416 15.237757 12.21875 16 L 11 16 L 11 17.5 L 12.03125 17.5 C 12.022898 17.667279 12 17.830301 12 18 C 12 18.169699 12.022898 18.332721 12.03125 18.5 L 11 18.5 L 11 20 L 12.21875 20 C 12.391416 20.762243 12.666578 21.481471 13.0625 22.09375 C 13.790239 23.219173 15.008868 24 16.46875 24 C 17.839587 24 18.976222 23.310447 19.8125 22.34375 L 18.28125 21.03125 C 17.655528 21.754553 17.269913 22 16.46875 22 C 15.669632 22 15.161261 21.684327 14.71875 21 C 14.542949 20.728131 14.39767 20.381895 14.28125 20 L 17 20 L 17 18.5 L 14.03125 18.5 C 14.021037 18.336281 14 18.170172 14 18 C 14 17.829828 14.021037 17.663719 14.03125 17.5 L 17 17.5 L 17 16 L 14.28125 16 C 14.39767 15.618105 14.542949 15.271869 14.71875 15 C 15.161261 14.315673 15.669632 14 16.46875 14 C 17.203711 14 17.627139 14.30638 18.28125 15.0625 L 19.8125 13.75 C 19.004611 12.81612 17.907789 12 16.46875 12 z" overflow="visible" font-family="Sans" fill="#000000"/></svg>
