<?xml version="1.0" encoding="utf-8"?>
<svg xmlns="http://www.w3.org/2000/svg" viewBox="0 0 32 32" fill="#000000"><path style="text-indent:0;text-align:start;line-height:normal;text-transform:none;block-progression:tb;-inkscape-font-specification:Sans" d="M 4 4 L 4 27 L 4 28 L 5 28 L 28 28 L 28 26 L 27 26 A 1.0001 1.0001 0 0 0 27 25.875 C 27 25.875 26.534749 22.223322 25.5 18 L 26 18 L 26 16 L 24.96875 16 C 24.942551 15.906992 24.933005 15.811812 24.90625 15.71875 C 24.173676 13.170666 23.230732 10.603108 22 8.59375 C 20.769268 6.5843918 19.137821 5 17 5 C 14.862179 5 13.230732 6.5843918 12 8.59375 C 10.769268 10.603108 9.826324 13.170666 9.09375 15.71875 C 9.0669946 15.811812 9.0574488 15.906992 9.03125 16 L 8 16 L 8 18 L 8.5 18 C 7.4652505 22.223322 7 25.875 7 25.875 A 1.0001 1.0001 0 0 0 7 26 L 6 26 L 6 4 L 4 4 z M 17 7 C 18.112179 7 19.215107 7.9156082 20.28125 9.65625 C 21.347393 11.396892 22.263824 13.829334 22.96875 16.28125 C 24.325614 21.000778 24.923569 25.649398 24.96875 26 L 9.03125 26 C 9.0764307 25.649398 9.6743857 21.000778 11.03125 16.28125 C 11.736176 13.829334 12.652607 11.396892 13.71875 9.65625 C 14.784893 7.9156082 15.887821 7 17 7 z M 12 16 L 12 18 L 14 18 L 14 16 L 12 16 z M 16 16 L 16 18 L 18 18 L 18 16 L 16 16 z M 20 16 L 20 18 L 22 18 L 22 16 L 20 16 z" overflow="visible" font-family="Sans" fill="#000000"/></svg>
