<?xml version="1.0" encoding="utf-8"?>
<svg xmlns="http://www.w3.org/2000/svg" viewBox="0 0 32 32" fill="#000000"><path style="text-indent:0;text-align:start;line-height:normal;text-transform:none;block-progression:tb;-inkscape-font-specification:Sans" d="M 1 5 L 1 6 L 1 16 L 1 17 L 2 17 L 30 17 L 31 17 L 31 16 L 31 6 L 31 5 L 30 5 L 2 5 L 1 5 z M 3 7 L 29 7 L 29 15 L 3 15 L 3 7 z M 7 9 C 5.8954305 9 5 9.8954305 5 11 C 5 12.104569 5.8954305 13 7 13 C 8.1045695 13 9 12.104569 9 11 C 9 9.8954305 8.1045695 9 7 9 z M 13 9 C 11.895431 9 11 9.8954305 11 11 C 11 12.104569 11.895431 13 13 13 C 14.104569 13 15 12.104569 15 11 C 15 9.8954305 14.104569 9 13 9 z M 19 9 C 17.895431 9 17 9.8954305 17 11 C 17 12.104569 17.895431 13 19 13 C 20.104569 13 21 12.104569 21 11 C 21 9.8954305 20.104569 9 19 9 z M 25 9 C 23.895431 9 23 9.8954305 23 11 C 23 12.104569 23.895431 13 25 13 C 26.104569 13 27 12.104569 27 11 C 27 9.8954305 26.104569 9 25 9 z M 12.71875 19.28125 L 11.28125 20.71875 L 14.5625 24 L 11.28125 27.28125 L 12.71875 28.71875 L 16 25.4375 L 19.28125 28.71875 L 20.71875 27.28125 L 17.4375 24 L 20.71875 20.71875 L 19.28125 19.28125 L 16 22.5625 L 12.71875 19.28125 z" overflow="visible" font-family="Sans" fill="#000000"/></svg>
