<?xml version="1.0" encoding="utf-8"?>
<svg xmlns="http://www.w3.org/2000/svg" viewBox="0 0 32 32" fill="#000000"><path style="text-indent:0;text-align:start;line-height:normal;text-transform:none;block-progression:tb;-inkscape-font-specification:Bitstream Vera Sans" d="M 14.21875 4 C 14.049739 4.0045746 13.889393 4.0211685 13.71875 4.0625 C 12.399795 4.3808683 10.769528 4.6471825 9.53125 5.1875 C 9.4540468 5.2210522 9.3860429 5.2737278 9.3125 5.3125 C 9.2393333 5.3450743 9.1625371 5.367935 9.09375 5.40625 C 9.0507945 5.432887 9.0101823 5.4716291 8.96875 5.5 C 8.3685938 5.8822637 7.9250683 6.4576819 7.75 7.125 C 7.6653927 7.1223285 7.5842848 7.1193755 7.5 7.125 C 6.7811002 7.1729736 6.0963272 7.5041625 5.625 8.09375 C 4.9118496 8.9888265 4.2757956 9.9087465 3.84375 11.125 C 3.5389775 11.983803 3.410836 12.694377 3.5625 13.375 C 3.600416 13.545156 3.6536181 13.696129 3.71875 13.84375 C 3.5512143 14.041667 3.4320952 14.240575 3.34375 14.4375 C 3.0731432 15.040693 3 15.526483 3 15.9375 C 3 17.576194 3.3104415 18.818819 3.90625 19.78125 C 4.5020585 20.743681 5.3431133 21.354091 6.21875 21.78125 C 7.1368293 22.229113 8.0797575 22.532936 9 22.90625 L 9 25 C 9 26.64497 10.35503 28 12 28 L 20 28 C 21.64497 28 23 26.64497 23 25 L 23 22.90625 C 23.920246 22.532893 24.863164 22.228969 25.78125 21.78125 C 26.656894 21.354228 27.49791 20.743613 28.09375 19.78125 C 28.68959 18.818887 29 17.576194 29 15.9375 C 29 15.525585 28.92696 15.040502 28.65625 14.4375 C 28.567872 14.240638 28.448778 14.041689 28.28125 13.84375 C 28.346407 13.696107 28.399522 13.545202 28.4375 13.375 C 28.589412 12.694193 28.46164 11.983991 28.15625 11.125 C 27.724388 9.9092625 27.089714 8.9894829 26.375 8.09375 C 25.903673 7.5041625 25.2189 7.1729736 24.5 7.125 C 24.415715 7.1193755 24.334607 7.1223285 24.25 7.125 C 24.223249 7.0366738 24.191869 6.9610497 24.15625 6.875 C 23.951378 6.3098109 23.554944 5.8336646 23.03125 5.5 C 22.990031 5.4716063 22.949035 5.4329128 22.90625 5.40625 C 22.837449 5.3679063 22.760675 5.3451116 22.6875 5.3125 C 22.614115 5.273678 22.545935 5.2211108 22.46875 5.1875 C 21.231002 4.6491396 19.599496 4.3809309 18.28125 4.0625 C 18.06855 4.011247 17.866352 3.9962232 17.65625 4 C 17.101312 3.9880117 16.547014 4.1442724 16.09375 4.4375 C 16.063268 4.4572197 16.029694 4.4786824 16 4.5 C 15.970387 4.4787603 15.936648 4.4571487 15.90625 4.4375 C 15.41954 4.1228957 14.815899 3.9624058 14.21875 4 z M 14.1875 6.03125 C 14.293187 6.0057832 14.398778 6.0171471 14.5 6.03125 C 14.560124 6.0551215 14.625207 6.0783074 14.6875 6.125 C 14.83285 6.2339495 14.950036 6.4234463 15 6.5625 L 15 15.03125 L 17 15.03125 L 17 6.5625 C 17.04984 6.4237349 17.167258 6.2338189 17.3125 6.125 C 17.374747 6.0783633 17.440019 6.0551325 17.5 6.03125 C 17.601353 6.0171459 17.707379 6.0057885 17.8125 6.03125 C 19.15034 6.3541769 20.736408 6.7877145 21.8125 7.09375 C 22.04221 7.2133818 22.195233 7.3362859 22.28125 7.46875 C 22.390049 7.6834859 22.393634 7.9530224 22.28125 8.1875 L 22.28125 8.21875 L 22.25 8.21875 L 19.15625 15.5 L 21 16.28125 L 23.9375 9.28125 C 24.198813 9.063485 24.661811 9.1552522 24.8125 9.34375 C 25.471786 10.170017 25.945112 10.866237 26.28125 11.8125 C 26.525856 12.500509 26.531338 12.797057 26.5 12.9375 C 26.47045 13.069931 26.366249 13.245377 26.09375 13.53125 C 26.07726 13.54855 26.08046 13.544 26.0625 13.5625 L 22.15625 17.4375 L 23.5625 18.84375 L 26.9375 15.53125 C 26.98481 15.746364 27 15.965098 27 15.9375 C 27 17.332306 26.755473 18.154707 26.40625 18.71875 C 26.057027 19.282793 25.591356 19.634647 24.90625 19.96875 C 23.536037 20.636957 21.335378 21.054845 19.3125 22.6875 C 18.249716 23.545 17.665393 24.550916 17.1875 25.1875 C 16.948554 25.505792 16.757513 25.727085 16.59375 25.84375 C 16.429987 25.960415 16.302055 26 16.0625 26 L 15.9375 26 C 15.697945 26 15.570013 25.96042 15.40625 25.84375 C 15.242487 25.727085 15.051446 25.505792 14.8125 25.1875 C 14.334607 24.550916 13.750284 23.545 12.6875 22.6875 C 10.664666 21.05488 8.4639767 20.637183 7.09375 19.96875 C 6.4086367 19.634534 5.943004 19.282913 5.59375 18.71875 C 5.244496 18.154587 5 17.332306 5 15.9375 C 5 15.964495 5.0151915 15.746161 5.0625 15.53125 L 8.4375 18.84375 L 9.84375 17.4375 L 5.9375 13.5625 L 5.90625 13.53125 C 5.6339179 13.24555 5.5295484 13.070104 5.5 12.9375 C 5.468664 12.796873 5.4745225 12.500697 5.71875 11.8125 C 6.0547044 10.866754 6.5286504 10.170673 7.1875 9.34375 C 7.3272954 9.1688786 7.7332871 9.088392 8 9.25 L 11 16.28125 L 12.84375 15.5 L 9.75 8.21875 L 9.71875 8.21875 L 9.71875 8.1875 C 9.5701034 7.8766934 9.6419184 7.5103251 9.875 7.28125 C 9.9581744 7.2100267 10.088548 7.1591452 10.21875 7.09375 C 11.295507 6.7887435 12.860643 6.3517609 14.1875 6.03125 z M 11 23.9375 C 11.141442 24.035326 11.26858 24.138887 11.40625 24.25 C 12.030597 24.75375 12.475291 25.369312 12.9375 26 L 12 26 C 11.43497 26 11 25.56503 11 25 L 11 23.9375 z M 21 23.9375 L 21 25 C 21 25.56503 20.56503 26 20 26 L 19.0625 26 C 19.524709 25.369312 19.969403 24.75375 20.59375 24.25 C 20.731417 24.13889 20.858561 24.035328 21 23.9375 z" overflow="visible" font-family="Bitstream Vera Sans" fill="#000000"/></svg>
