<?xml version="1.0" encoding="utf-8"?>
<svg xmlns="http://www.w3.org/2000/svg" viewBox="0 0 32 32" fill="#000000"><path style="text-indent:0;text-align:start;line-height:normal;text-transform:none;block-progression:tb;-inkscape-font-specification:Bitstream Vera Sans" d="M 13.5 4 C 11.578848 4 10 5.5788481 10 7.5 C 10 9.4211519 11.578848 11 13.5 11 C 15.421152 11 17 9.4211519 17 7.5 C 17 5.5788481 15.421152 4 13.5 4 z M 22 5 L 22 7 L 28 7 L 28 5 L 22 5 z M 13.5 6 C 14.340272 6 15 6.6597281 15 7.5 C 15 8.3402719 14.340272 9 13.5 9 C 12.659728 9 12 8.3402719 12 7.5 C 12 6.6597281 12.659728 6 13.5 6 z M 19.375 6.75 L 17.90625 10.3125 L 15.5 11.71875 L 11.4375 11.71875 C 11.169167 11.71875 10.899809 11.77286 10.65625 11.875 L 7.6875 13.125 C 7.481727 13.212903 7.2895044 13.351351 7.125 13.5 L 4.21875 16.15625 L 5.5625 17.625 L 8.46875 14.96875 L 8.5 14.96875 L 10.21875 14.25 L 8.5625 21.71875 L 4.6875 23.0625 L 5.3125 24.9375 L 9.21875 23.59375 C 9.876313 23.366592 10.383645 22.805179 10.53125 22.125 L 12.34375 13.71875 L 14.125 13.71875 L 12.5 20 L 12.875 23.15625 L 10.1875 28 L 12.46875 28 L 14.625 24.125 C 14.826 23.759 14.89075 23.3475 14.84375 22.9375 L 14.53125 20.125 L 16.21875 13.5625 C 16.314932 13.523461 16.408405 13.49138 16.5 13.4375 L 18.90625 12.03125 C 19.261686 11.821046 19.549052 11.477813 19.71875 11.09375 L 19.75 11.09375 C 19.7532 11.08645 19.7469 11.06988 19.75 11.0625 L 21.21875 7.53125 L 19.375 6.75 z" overflow="visible" font-family="Bitstream Vera Sans" fill="#000000"/></svg>
