<?xml version="1.0" encoding="utf-8"?>
<svg xmlns="http://www.w3.org/2000/svg" viewBox="0 0 32 32" fill="#000000"><path style="text-indent:0;text-align:start;line-height:normal;text-transform:none;block-progression:tb;-inkscape-font-specification:Bitstream Vera Sans" d="M 6 4 L 6 5 L 6 6 L 6 6.3125 L 6.15625 6.5625 L 8 9.3125 L 8 25 C 8 26.64497 9.3550302 28 11 28 L 20 28 C 21.64497 28 23 26.64497 23 25 L 23 17.90625 C 25.272718 17.437902 27 15.405826 27 13 L 27 5 L 27 4 L 26 4 L 22 4 L 7 4 L 6 4 z M 8.21875 6 L 21 6 L 21 10 L 12 10 L 12 12 L 21 12 L 21 25 C 21 25.56503 20.56503 26 20 26 L 11 26 C 10.43497 26 10 25.56503 10 25 L 10 9 L 10 8.6875 L 9.84375 8.4375 L 8.21875 6 z M 23 6 L 25 6 L 25 13 C 25 14.318362 24.172012 15.436798 23 15.84375 L 23 6 z" overflow="visible" font-family="Bitstream Vera Sans" fill="#000000"/></svg>
