<?xml version="1.0" encoding="utf-8"?>
<svg xmlns="http://www.w3.org/2000/svg" viewBox="0 0 32 32" fill="#000000"><path style="text-indent:0;text-align:start;line-height:normal;text-transform:none;block-progression:tb;-inkscape-font-specification:Sans" d="M 16 0 C 13.243 0 11 2.243 11 5 L 11 7 C 11 9.045 12.237 10.7885 14 11.5625 L 14 9.21875 C 13.391 8.66875 13 7.883 13 7 L 13 5 C 13 3.346 14.346 2 16 2 C 17.654 2 19 3.346 19 5 L 19 7 C 19 7.883 18.609 8.66875 18 9.21875 L 18 11.5625 C 19.763 10.7885 21 9.045 21 7 L 21 5 C 21 2.243 18.757 0 16 0 z M 15 8 L 15 16 L 17 16 L 17 8 L 15 8 z M 14 12.4375 C 12.237 13.2115 11 14.955 11 17 L 11 19 C 11 21.045 12.237 22.7885 14 23.5625 L 14 21.21875 C 13.391 20.66975 13 19.883 13 19 L 13 17 C 13 16.117 13.391 15.33125 14 14.78125 L 14 12.4375 z M 18 12.4375 L 18 14.78125 C 18.609 15.33025 19 16.117 19 17 L 19 19 C 19 19.883 18.609 20.66875 18 21.21875 L 18 23.5625 C 19.763 22.7885 21 21.045 21 19 L 21 17 C 21 14.955 19.763 13.2115 18 12.4375 z M 15 20 L 15 27.84375 L 12.75 25.34375 L 11.25 26.65625 L 15.25 31.15625 L 16 32 L 16.75 31.15625 L 20.75 26.65625 L 19.25 25.34375 L 17 27.84375 L 17 20 L 15 20 z" overflow="visible" font-family="Sans" fill="#000000"/></svg>
