<?xml version="1.0" encoding="utf-8"?>
<svg xmlns="http://www.w3.org/2000/svg" viewBox="0 0 32 32" fill="#000000"><path style="text-indent:0;text-align:start;line-height:normal;text-transform:none;block-progression:tb;-inkscape-font-specification:Sans" d="M 15.4375 3 L 15.15625 3.5 L 12.15625 8.5 L 12 8.71875 L 12 9 L 12 11.5625 L 8.28125 15.28125 L 8 15.59375 L 8 16 L 8 28 L 8 29 L 9 29 L 23 29 L 24 29 L 24 28 L 24 16 L 24 15.59375 L 23.71875 15.28125 L 20 11.5625 L 20 9.09375 L 20 9 L 20 8.71875 L 19.875 8.5 L 16.90625 3.5 L 16.625 3 L 16.03125 3 L 16 3 L 15.4375 3 z M 16 5.90625 L 17.25 8 L 14.75 8 L 16 5.90625 z M 14 10 L 18 10 L 18 12 L 18 12.40625 L 18.28125 12.71875 L 20.5625 15 L 11.4375 15 L 13.71875 12.71875 L 14 12.40625 L 14 12 L 14 10 z M 10 17 L 22 17 L 22 27 L 10 27 L 10 17 z M 16 18 C 13.802706 18 12 19.802706 12 22 C 12 24.197294 13.802706 26 16 26 C 18.197294 26 20 24.197294 20 22 C 20 19.802706 18.197294 18 16 18 z M 16 20 C 17.116414 20 18 20.883586 18 22 C 18 23.116414 17.116414 24 16 24 C 14.883586 24 14 23.116414 14 22 C 14 20.883586 14.883586 20 16 20 z" overflow="visible" font-family="Sans" fill="#000000"/></svg>
