<?xml version="1.0" encoding="utf-8"?>
<svg xmlns="http://www.w3.org/2000/svg" viewBox="0 0 32 32" fill="#000000"><path d="M 11.056641 3.0019531 C 10.927047 2.9944844 10.793812 3.0120938 10.664062 3.0585938 C 10.144063 3.2435937 9.8725938 3.8149375 10.058594 4.3359375 L 14.615234 17.136719 L 16.771484 19.162109 C 16.650695 19.188283 16.528762 19.206684 16.410156 19.248047 C 15.653156 19.511047 15.044313 20.054344 14.695312 20.777344 C 14.348313 21.499344 14.302406 22.313312 14.566406 23.070312 L 16.214844 27.789062 C 16.645844 29.026062 17.809781 29.802734 19.050781 29.802734 C 19.376781 29.802734 19.707203 29.747766 20.033203 29.634766 L 20.035156 29.634766 C 20.791156 29.370766 21.399047 28.828469 21.748047 28.105469 C 22.096047 27.383469 22.142906 26.569453 21.878906 25.814453 L 20.230469 21.091797 C 20.223742 21.072535 20.212165 21.056177 20.205078 21.037109 L 19.490234 18.972656 L 16.335938 16.009766 L 11.941406 3.6640625 C 11.802656 3.2740625 11.445422 3.0243594 11.056641 3.0019531 z M 4.1660156 8.0136719 C 3.7816875 7.9491719 3.379 8.1133906 3.15625 8.4628906 C 2.86025 8.9288906 2.9968906 9.54675 3.4628906 9.84375 L 12.123047 15.355469 L 11.060547 12.306641 L 4.5371094 8.15625 C 4.4206094 8.08225 4.294125 8.0351719 4.1660156 8.0136719 z M 26.150391 14.976562 C 25.918086 14.979881 25.682766 15.006844 25.447266 15.058594 C 24.321536 15.307031 23.453219 16.079223 23.015625 17.058594 L 20.339844 15 L 17.699219 15 L 18.396484 17 L 19.660156 17 L 22.855469 19.458984 C 23.297228 20.961156 24.673529 21.976562 26.201172 21.976562 C 26.450172 21.976562 26.702078 21.949531 26.955078 21.894531 C 27.867078 21.692531 28.647391 21.148328 29.150391 20.361328 C 29.653391 19.573328 29.820141 18.635656 29.619141 17.722656 C 29.255141 16.073281 27.776523 14.953334 26.150391 14.976562 z M 26.201172 16.976562 C 26.890172 16.976562 27.511062 17.453297 27.664062 18.154297 C 27.751063 18.545297 27.680844 18.946203 27.464844 19.283203 C 27.249844 19.621203 26.916391 19.855406 26.525391 19.941406 C 25.716391 20.118406 24.915328 19.608781 24.736328 18.800781 C 24.559328 17.992781 25.070906 17.189719 25.878906 17.011719 C 25.985906 16.987719 26.095172 16.976562 26.201172 16.976562 z M 17.398438 21.080078 C 17.546437 21.080078 17.694078 21.114641 17.830078 21.181641 C 18.06542 21.294917 18.241851 21.492557 18.332031 21.736328 L 19.023438 23.732422 C 19.029606 23.750281 19.041765 23.763976 19.048828 23.78125 L 19.988281 26.472656 C 20.077281 26.724656 20.061312 26.996328 19.945312 27.236328 C 19.829312 27.477328 19.625047 27.658094 19.373047 27.746094 C 18.850047 27.929094 18.282563 27.652812 18.101562 27.132812 L 16.453125 22.410156 C 16.364125 22.158156 16.380094 21.887484 16.496094 21.646484 C 16.612094 21.406484 16.816359 21.226672 17.068359 21.138672 C 17.176359 21.100672 17.287437 21.080078 17.398438 21.080078 z" fill="#000000"/></svg>
