<?xml version="1.0" encoding="utf-8"?>
<svg xmlns="http://www.w3.org/2000/svg" viewBox="0 0 32 32" fill="#000000"><path style="line-height:normal;text-indent:0;text-align:start;text-decoration-line:none;text-decoration-style:solid;text-decoration-color:#000;text-transform:none;block-progression:tb;isolation:auto;mix-blend-mode:normal" d="M 16 3.2167969 L 15.171875 4.4394531 C 15.171875 4.4394531 11.593894 9.7110569 12.039062 17.060547 L 12.095703 18 L 13.037109 18 L 19.90625 18 L 19.962891 17.060547 C 20.407007 9.7111156 16.828125 4.4394531 16.828125 4.4394531 L 16 3.2167969 z M 16 7.2714844 C 16.833717 8.8587121 17.946896 11.609811 17.912109 16 L 14.089844 16 C 14.054479 11.609864 15.166342 8.858684 16 7.2714844 z M 0 11 L 0 12 C 0 12 -0.07341674 15.089495 1.1054688 17.447266 L 1.3828125 18 L 11.304688 18 L 10.347656 16.470703 C 7.6332749 12.127693 3.3333333 11 1 11 L 0 11 z M 31 11 C 28.666667 11 24.366725 12.127693 21.652344 16.470703 L 20.695312 18 L 30.617188 18 L 30.894531 17.447266 C 32.073417 15.089495 32 12 32 12 L 32 11 L 31 11 z M 2.1074219 13.275391 C 3.6023224 13.487911 5.5410313 14.13001 7.34375 16 L 2.75 16 C 2.3939133 15.039269 2.188515 14.118022 2.1074219 13.275391 z M 29.892578 13.275391 C 29.811485 14.118022 29.606087 15.039269 29.25 16 L 24.65625 16 C 26.458969 14.13001 28.397678 13.487911 29.892578 13.275391 z M 2 19 C 2.355 19.71 2.7848125 20.374 3.2578125 21 L 28.742188 21 C 29.215187 20.374 29.645 19.71 30 19 L 2 19 z M 4.0800781 22 C 4.7410781 22.736 5.4603125 23.399 6.1953125 24 L 25.802734 24 C 26.538734 23.399 27.258922 22.736 27.919922 22 L 4.0800781 22 z M 7.5097656 25 C 10.337766 26.996 13 28 13 28 L 13 25 L 7.5097656 25 z M 13.75 25 C 14.75 27 16 28 16 28 C 16 28 17.25 27 18.25 25 L 13.75 25 z M 19 25 L 19 28 C 19 28 21.662234 26.996 24.490234 25 L 19 25 z" font-weight="400" font-family="sans-serif" white-space="normal" overflow="visible" fill="#000000"/></svg>
