<?xml version="1.0" encoding="utf-8"?>
<svg xmlns="http://www.w3.org/2000/svg" viewBox="0 0 32 32" fill="#000000"><path style="text-indent:0;text-align:start;line-height:normal;text-transform:none;block-progression:tb;-inkscape-font-specification:Bitstream Vera Sans" d="M 5 5 L 5 6 L 5 26 L 5 27 L 6 27 L 26 27 L 27 27 L 27 26 L 27 6 L 27 5 L 26 5 L 6 5 L 5 5 z M 7 7 L 25 7 L 25 25 L 7 25 L 7 7 z M 10 12 L 10 14 L 12.5 14 C 12.786937 14 13 14.213063 13 14.5 C 13 14.786937 12.786937 15 12.5 15 L 12 15 L 11 15 L 11 17 L 12 17 L 12.5 17 C 12.786937 17 13 17.213063 13 17.5 C 13 17.786937 12.786937 18 12.5 18 L 10 18 L 10 20 L 12.5 20 C 13.869063 20 15 18.869063 15 17.5 C 15 16.937817 14.788328 16.420058 14.46875 16 C 14.788328 15.579942 15 15.062183 15 14.5 C 15 13.130937 13.869063 12 12.5 12 L 10 12 z M 19.5 12 C 18.130937 12 17 13.130937 17 14.5 L 17 15 L 19 15 L 19 14.5 C 19 14.213063 19.213063 14 19.5 14 C 19.786937 14 20 14.213063 20 14.5 L 20 15.34375 C 20 15.484385 19.94618 15.624908 19.84375 15.71875 L 17.3125 18 L 17 18.3125 L 17 18.75 L 17 19 L 17 20 L 18 20 L 22 20 L 22 18 L 20.3125 18 L 21.1875 17.1875 C 21.705067 16.713342 22 16.043115 22 15.34375 L 22 14.5 C 22 13.130937 20.869063 12 19.5 12 z" overflow="visible" font-family="Bitstream Vera Sans" fill="#000000"/></svg>
