<?xml version="1.0" encoding="utf-8"?>
<svg xmlns="http://www.w3.org/2000/svg" viewBox="0 0 32 32" fill="#000000"><path d="M 24.875 4 C 24.069204 4 23.234015 4.2972353 22.625 4.90625 L 22.21875 5.34375 C 22.094177 5.3263525 21.969316 5.3125 21.84375 5.3125 C 21.17493 5.3125 20.504468 5.5580323 20 6.0625 C 19.57454 6.4879606 19.347883 7.0324015 19.28125 7.59375 C 18.709234 7.6534741 18.152062 7.8791878 17.71875 8.3125 C 17.332548 8.6987024 17.09054 9.1817964 17 9.6875 C 16.957934 9.6890594 16.915494 9.6840592 16.875 9.6875 C 16.419443 9.7262093 15.980173 9.8804926 15.59375 10.15625 L 12.09375 12.625 L 11.1875 11.71875 L 10.5 11.03125 L 9.78125 11.71875 L 6 15.5 L 5.3125 16.21875 L 6 16.9375 L 7.5625 18.5 L 6 20.0625 L 5.28125 20.78125 L 6 21.46875 L 7.46875 22.9375 L 7.46875 24.53125 L 9.0625 24.53125 L 9.8125 25.3125 L 9.78125 25.34375 C 8.9093734 26.215627 7.5281266 26.215627 6.65625 25.34375 C 6.0262766 24.713777 5.8475289 23.808719 6.125 23.03125 L 4.25 22.375 C 3.7194711 23.861531 4.0367234 25.599223 5.21875 26.78125 C 6.8548734 28.417373 9.5513766 28.417373 11.1875 26.78125 L 11.3125 26.65625 L 11.9375 26 L 13.5 24.4375 L 15.09375 26 L 15.78125 26.71875 L 16.5 26 L 20.28125 22.21875 L 21 21.53125 L 20.28125 20.8125 L 19.375 19.90625 L 21.84375 16.40625 C 22.144474 15.985501 22.292241 15.494105 22.3125 15 C 22.818204 14.90946 23.301298 14.667452 23.6875 14.28125 C 24.120812 13.847938 24.345131 13.291115 24.40625 12.71875 C 24.967599 12.652117 25.51204 12.42546 25.9375 12 C 26.536678 11.400822 26.768742 10.569697 26.65625 9.78125 L 27.09375 9.375 L 27.09375 9.34375 C 28.290033 8.1237042 28.304502 6.1170015 27.09375 4.90625 C 26.484735 4.2972353 25.680796 4 24.875 4 z M 24.875 6 C 25.159945 6 25.429264 6.1167647 25.65625 6.34375 C 26.110221 6.7977206 26.110221 7.4835294 25.65625 7.9375 L 25.625 8 L 25.5625 7.9375 L 24.15625 9.375 L 24.53125 9.75 C 24.776315 9.9950646 24.776315 10.348685 24.53125 10.59375 C 24.286185 10.838815 23.932565 10.838815 23.6875 10.59375 L 23.65625 10.5625 L 23.28125 10.21875 L 21.875 11.625 L 22.25 12 C 22.495065 12.245065 22.495065 12.629935 22.25 12.875 C 22.028499 13.096501 21.707305 13.116405 21.46875 12.9375 L 21.40625 12.875 L 21.03125 12.5 L 19.625 13.90625 L 20 14.28125 L 20.15625 14.46875 C 20.370225 14.682725 20.394284 14.973156 20.21875 15.21875 L 17.90625 18.4375 L 13.5625 14.09375 L 16.78125 11.78125 C 17.028788 11.604603 17.3481 11.62935 17.5625 11.84375 C 17.609288 11.899289 17.666564 11.947814 17.71875 12 L 18.09375 12.375 L 19.5 10.96875 L 19.125 10.59375 C 18.879935 10.348685 18.879935 9.9950646 19.125 9.75 C 19.370065 9.5049354 19.754935 9.5049354 20 9.75 L 20.0625 9.8125 L 20.375 10.125 L 21.78125 8.71875 L 21.40625 8.3125 C 21.161185 8.0674354 21.161185 7.7138146 21.40625 7.46875 C 21.651315 7.2236854 22.004935 7.2236854 22.25 7.46875 L 22.625 7.84375 L 24.0625 6.4375 L 24 6.375 L 24.0625 6.34375 C 24.289485 6.1167647 24.590055 6 24.875 6 z M 10.5 13.875 L 11.28125 14.65625 L 17.34375 20.71875 L 18.15625 21.53125 L 15.78125 23.875 L 14.21875 22.3125 L 9.6875 17.78125 L 8.125 16.21875 L 10.5 13.875 z M 9 19.90625 L 10.5625 21.46875 L 12.09375 23.03125 L 11.25 23.875 L 8.125 20.78125 L 9 19.90625 z" fill="#000000"/></svg>
