<?xml version="1.0" encoding="utf-8"?>
<svg xmlns="http://www.w3.org/2000/svg" viewBox="0 0 32 32" fill="#000000"><path style="text-indent:0;text-align:start;line-height:normal;text-transform:none;block-progression:tb;-inkscape-font-specification:Bitstream Vera Sans" d="M 13 4 L 13 5 L 9 5 L 9 7 L 13 7 L 13 9 L 15 9 L 15 6 L 17 6 L 17 9 L 19 9 L 19 5 L 19 4 L 18 4 L 14 4 L 13 4 z M 12 10 L 12 11 L 12 12 C 10.35503 12 9 13.35503 9 15 L 9 27 L 9 28 L 10 28 L 22 28 L 23 28 L 23 27 L 23 15 C 23 13.35503 21.64497 12 20 12 L 20 11 L 20 10 L 19 10 L 13 10 L 12 10 z M 14 12 L 18 12 L 18 13 L 18 14 L 19 14 L 20 14 C 20.56503 14 21 14.43497 21 15 L 21 26 L 11 26 L 11 15 C 11 14.43497 11.43497 14 12 14 L 13 14 L 14 14 L 14 13 L 14 12 z" overflow="visible" font-family="Bitstream Vera Sans" fill="#000000"/></svg>
