<?xml version="1.0" encoding="utf-8"?>
<svg xmlns="http://www.w3.org/2000/svg" viewBox="0 0 32 32" fill="#000000"><path d="M 11.5625 2.40625 L 10.96875 3.53125 C 10.96875 3.53125 10.28125 4.8428492 10.28125 6.84375 C 10.28125 8.0603404 10.841613 9.140406 11.53125 10.09375 C 12.220887 11.047094 13.081526 11.920266 13.90625 12.84375 C 14.090024 13.049531 14.260533 13.261014 14.4375 13.46875 C 14.761322 14.234739 14.84566 14.794889 14.8125 15.15625 C 14.77613 15.552637 14.666064 15.772482 14.375 16.03125 C 13.792872 16.548786 12.4052 16.991324 10.78125 17.375 C 9.1572996 17.758676 7.3239608 18.141907 5.78125 19.03125 C 4.2385392 19.920593 3 21.516321 3 23.78125 C 3 25.884977 4.0625 28.375 4.0625 28.375 L 4.3125 29 L 5 29 L 5.5 29 L 5.6875 29 L 5.84375 28.9375 C 5.84375 28.9375 7.5953465 28.271224 9.34375 27 C 11.092154 25.728776 13 23.7504 13 21 L 11 21 C 11 22.7976 9.6578465 24.314474 8.15625 25.40625 C 6.9366165 26.293017 6.1366773 26.576053 5.71875 26.75 C 5.4662429 26.008414 5 24.805183 5 23.78125 C 5 22.154679 5.6431483 21.406094 6.78125 20.75 C 7.9193517 20.093906 9.5719504 19.701574 11.21875 19.3125 C 12.86555 18.923426 14.531065 18.587152 15.71875 17.53125 C 16.025621 17.258428 16.309077 16.916925 16.5 16.53125 C 16.82446 17.296999 17 18.120917 17 19 C 17 21.391946 15.481405 23.39501 13.84375 24.84375 C 12.206095 26.29249 10.5625 27.09375 10.5625 27.09375 L 11.4375 28.90625 C 11.4375 28.90625 13.293905 27.99126 15.15625 26.34375 C 17.018595 24.69624 19 22.223054 19 19 C 19 16.274208 17.620881 14.18278 16.15625 12.4375 L 16.125 12.4375 C 15.87118 12.135508 15.62651 11.812879 15.375 11.53125 C 14.521224 10.575234 13.725488 9.693156 13.15625 8.90625 C 12.587012 8.119344 12.28125 7.4446596 12.28125 6.84375 C 12.28125 5.8468784 12.46051 5.7165318 12.59375 5.34375 C 12.909215 5.437369 13.161268 5.5625 13.5625 5.5625 C 14.284988 5.5625 14.84375 6.122162 14.84375 6.84375 C 14.84375 7.1720446 14.558952 7.6372269 14.15625 8.03125 L 15.53125 9.46875 C 15.909294 9.0988539 16.429206 8.5578229 16.6875 7.8125 C 17.838009 7.6207794 20.538884 7.1342804 23 6.34375 C 22.993046 6.7313088 22.953583 7.5939963 22.75 8.8125 C 22.491904 10.357307 21.928532 12.133968 21.03125 13.03125 C 19.672958 14.389542 19.673545 16.609654 21.03125 17.96875 C 22.389587 19.328479 24.609896 19.326213 25.96875 17.96875 C 27.870203 16.067297 28.391553 14.134778 28.46875 13.8125 C 29.366038 13.432979 30 12.535534 30 11.5 C 30 10.119288 28.880712 9 27.5 9 C 27.176306 9 26.877653 9.0755171 26.59375 9.1875 L 25.96875 5.8125 L 25.84375 5.09375 C 25.89158 5.0618564 25.95539 5.0323241 26 5 L 16.28125 5 C 15.689807 4.1267047 14.689695 3.5625 13.5625 3.5625 C 12.8456 3.5625 12.53125 3.25 12.53125 3.25 L 11.5625 2.40625 z M 24.625 9.5 L 25 11.5 L 25.03125 11.6875 C 25.091797 12.479171 25.498399 13.148561 26.125 13.5625 C 26.147673 13.577478 26.164318 13.610749 26.1875 13.625 L 26.375 13.78125 C 26.229366 14.275361 25.862034 15.262966 24.5625 16.5625 C 23.967354 17.157037 23.031163 17.156771 22.4375 16.5625 C 21.843205 15.967596 21.843792 15.031208 22.4375 14.4375 C 23.793314 13.081686 24.319706 11.165957 24.625 9.5 z" fill="#000000"/></svg>
