<?xml version="1.0" encoding="utf-8"?>
<svg xmlns="http://www.w3.org/2000/svg" viewBox="0 0 32 32" fill="#000000"><path style="line-height:normal;text-indent:0;text-align:start;text-decoration-line:none;text-decoration-style:solid;text-decoration-color:#000;text-transform:none;block-progression:tb;isolation:auto;mix-blend-mode:normal" d="M 16 3 L 3 7 L 6.1054688 7.9550781 L 9 8.8457031 L 9 11.507812 C 8.8732037 11.659827 8.7800792 11.810323 8.7070312 11.964844 C 8.5272679 12.345104 8.4125898 12.767198 8.3125 13.267578 C 8.1229152 14.215371 8.0190078 15.440704 8.0078125 16.785156 C 7.3986454 17.332525 7 18.117309 7 19 C 7 20.275453 7.9044639 21.200508 9.0351562 21.628906 C 9.4883213 22.932148 10.241228 24.366855 11.330078 25.583984 C 12.514608 26.908066 14.102826 28 16 28 C 17.897174 28 19.485392 26.908066 20.669922 25.583984 C 21.758772 24.366855 22.511679 22.932148 22.964844 21.628906 C 24.095536 21.200508 25 20.275453 25 19 C 25 18.116405 24.60575 17.319059 23.990234 16.769531 C 23.978276 15.431629 23.876312 14.211505 23.6875 13.267578 C 23.58741 12.767198 23.472732 12.345104 23.292969 11.964844 C 23.219922 11.810323 23.126797 11.659827 23 11.507812 L 23 8.8457031 L 29 7 L 16 3 z M 16 5.0917969 L 22.201172 7 L 16 8.9082031 L 9.7988281 7 L 16 5.0917969 z M 11 9.4628906 L 16 11 L 16.294922 10.910156 L 21 9.4628906 L 21 11.779297 C 20.989293 11.79789 20.998356 11.798856 20.955078 11.833984 C 20.795401 11.96359 20.472151 12.158107 20.025391 12.335938 C 19.131869 12.691597 17.745023 13 16 13 C 14.254977 13 12.868129 12.691596 11.974609 12.335938 C 11.527849 12.158107 11.204599 11.96359 11.044922 11.833984 C 11.001643 11.798856 11.010707 11.79789 11 11.779297 L 11 9.4628906 z M 10.267578 13.708984 C 10.553922 13.882613 10.865961 14.046715 11.234375 14.193359 C 12.410355 14.66145 14.023023 15 16 15 C 17.976977 15 19.589645 14.66145 20.765625 14.193359 C 21.134039 14.046715 21.446077 13.882613 21.732422 13.708984 C 21.88997 14.517388 22 15.695479 22 17 L 22 17.849609 L 22.5 18.138672 C 22.803899 18.314213 23 18.619774 23 19 C 23 19.533588 22.602788 19.945528 22.080078 19.988281 L 21.40625 20.042969 L 21.207031 20.689453 C 20.874281 21.770013 20.132205 23.183082 19.177734 24.25 C 18.223264 25.316918 17.110826 26 16 26 C 14.889174 26 13.776736 25.316918 12.822266 24.25 C 11.867795 23.183082 11.125719 21.770015 10.792969 20.689453 L 10.59375 20.042969 L 9.9199219 19.988281 C 9.3972116 19.945528 9 19.533588 9 19 C 9 18.626072 9.2009917 18.315901 9.5078125 18.138672 L 10.021484 17.841797 L 10 17 L 10 16.990234 C 10.000572 15.689812 10.110493 14.515237 10.267578 13.708984 z M 8.1738281 17 L 9.0039062 17 L 8.1621094 17.021484 L 8.1738281 17 z M 13 18 A 1 1 0 0 0 12 19 A 1 1 0 0 0 13 20 A 1 1 0 0 0 14 19 A 1 1 0 0 0 13 18 z M 19 18 A 1 1 0 0 0 18 19 A 1 1 0 0 0 19 20 A 1 1 0 0 0 20 19 A 1 1 0 0 0 19 18 z" font-weight="400" font-family="sans-serif" white-space="normal" overflow="visible" fill="#000000"/></svg>
