<?xml version="1.0" encoding="utf-8"?>
<svg xmlns="http://www.w3.org/2000/svg" viewBox="0 0 32 32" fill="#000000"><path style="text-indent:0;text-align:start;line-height:normal;text-transform:none;block-progression:tb;-inkscape-font-specification:Sans" d="M 24.28125 2.28125 L 18.15625 8.40625 L 16.71875 6.96875 L 13.0625 10.625 L 12.4375 10 L 13.0625 9.40625 C 14.28786 8.1794378 14.288539 6.1635387 13.0625 4.9375 C 12.449094 4.3248198 11.654842 3.9999802 10.84375 4 C 10.032658 4.0000198 9.2067694 4.3244806 8.59375 4.9375 L 5.9375 7.59375 C 4.7121396 8.8205622 4.7114613 10.836461 5.9375 12.0625 C 7.1635387 13.288539 9.1794378 13.28786 10.40625 12.0625 L 11 11.4375 L 11.625 12.0625 L 4.875 18.875 C 3.713 20.037 3.706 21.955 4.875 23.125 C 5.442 23.692 6.199 24 7 24 L 9.125 24 L 9.15625 24 L 9.21875 24 C 10.297784 23.90913 10.706467 24.218371 11.34375 25.25 L 13.71875 29.09375 C 14.339126 30.09876 15.762867 30.306312 16.625 29.5 L 17.25 28.90625 C 18.045353 28.162321 18.216647 26.952122 17.6875 26 L 16.46875 23.875 L 18.46875 21.65625 L 18.5 21.625 C 19.050698 20.953724 19.156172 20.034091 18.78125 19.25 L 16.90625 15.3125 L 17.875 14.3125 L 22.28125 18.71875 L 23.71875 17.28125 L 19.3125 12.875 L 20.9375 11.21875 L 19.59375 9.84375 L 25.71875 3.71875 L 24.28125 2.28125 z M 10.84375 6 C 11.138908 6.0000198 11.424656 6.1124302 11.65625 6.34375 C 12.118211 6.8057113 12.11889 7.5055622 11.65625 7.96875 L 8.96875 10.65625 C 8.5055622 11.11889 7.8057113 11.118211 7.34375 10.65625 C 6.8817887 10.194289 6.8811104 9.4944378 7.34375 9.03125 L 10.03125 6.34375 C 10.262231 6.1127694 10.548592 5.9999802 10.84375 6 z M 16.71875 9.8125 L 18.125 11.21875 L 7.71875 21.71875 C 7.52375 21.91375 7.256 22 7 22 C 6.744 22 6.47625 21.91375 6.28125 21.71875 C 5.89025 21.32775 5.89025 20.67225 6.28125 20.28125 L 16.59375 9.875 L 16.71875 9.8125 z M 15.375 16.8125 L 16.96875 20.09375 C 17.00983 20.17966 16.9988 20.300276 16.9375 20.375 L 15.4375 22.03125 L 13.53125 18.6875 L 15.375 16.8125 z M 12.0625 20.15625 L 15.9375 26.96875 C 16.02635 27.128628 16.00765 27.313429 15.875 27.4375 L 15.34375 27.9375 L 13.03125 24.1875 C 12.371781 23.119958 11.381232 22.329093 10.15625 22.09375 L 12.0625 20.15625 z" overflow="visible" font-family="Sans" fill="#000000"/></svg>
