<?xml version="1.0" encoding="utf-8"?>
<svg xmlns="http://www.w3.org/2000/svg" viewBox="0 0 32 32" fill="#000000"><path style="text-indent:0;text-align:start;line-height:normal;text-transform:none;block-progression:tb;-inkscape-font-specification:Sans" d="M 6 3 L 6 4 L 6 28 L 6 29 L 7 29 L 25 29 L 26 29 L 26 28 L 26 13.4375 L 27.71875 11.71875 L 28 11.40625 L 28 11 L 28 4 L 28 3 L 27 3 L 24 3 L 23 3 L 7 3 L 6 3 z M 8 5 L 22 5 L 22 11 L 22 11.40625 L 22.28125 11.71875 L 24 13.4375 L 24 27 L 8 27 L 8 5 z M 24 5 L 26 5 L 26 10.5625 L 25 11.5625 L 24 10.5625 L 24 5 z M 16.5 13 C 15.671573 13 15 13.671573 15 14.5 C 15 14.672589 15.040108 14.845681 15.09375 15 L 13 15 L 13 17.09375 C 12.845681 17.040108 12.672589 17 12.5 17 C 11.671573 17 11 17.671573 11 18.5 C 11 19.328427 11.671573 20 12.5 20 C 12.672589 20 12.845681 19.959892 13 19.90625 L 13 22 L 20 22 L 20 19.90625 C 19.843 19.96225 19.676 20 19.5 20 C 18.672 20 18 19.328 18 18.5 C 18 17.672 18.672 17 19.5 17 C 19.676 17 19.843 17.03775 20 17.09375 L 20 15 L 17.90625 15 C 17.959892 14.845681 18 14.672589 18 14.5 C 18 13.671573 17.328427 13 16.5 13 z" overflow="visible" font-family="Sans" fill="#000000"/></svg>
