<?xml version="1.0" encoding="utf-8"?>
<svg xmlns="http://www.w3.org/2000/svg" viewBox="0 0 32 32" fill="#000000"><path d="M 15 5 L 15 6 L 11.46875 11 L 13.46875 11 L 15 8.84375 L 15 11 L 17 11 L 17 8.84375 L 18.53125 11 L 20.53125 11 L 17 6 L 17 5 L 15 5 z M 5 6 L 8.5 11 L 10.5 11 L 7 6 L 5 6 z M 25 6 L 21.5 11 L 23.5 11 L 27 6 L 25 6 z M 6 12 L 6 14 L 26 14 L 26 12 L 6 12 z M 6.03125 15 L 6.03125 17 L 24.34375 17 C 25.61404 17 26.0625 18.34375 26.0625 18.34375 L 27.9375 17.65625 C 27.9375 17.65625 26.97946 15 24.34375 15 L 6.03125 15 z M 15 17.96875 L 15 20.15625 L 13.46875 18 L 11.46875 18 L 15 23 L 15 25 L 10 25 L 10 27 L 22 27 L 22 25 L 17 25 L 17 23 L 20.53125 18 L 18.53125 18 L 17 20.15625 L 17 17.96875 L 15 17.96875 z M 8.5 18 L 5 23 L 7 23 L 10.5 18 L 8.5 18 z M 21.5 18 L 25 23 L 27 23 L 23.5 18 L 21.5 18 z" fill="#000000"/></svg>
