<?xml version="1.0" encoding="utf-8"?>
<svg xmlns="http://www.w3.org/2000/svg" viewBox="0 0 32 32" fill="#000000"><path d="M 16 3 C 12.774 3 9.9580781 5.25675 9.2050781 8.34375 C 7.9580781 8.82675 6.9489687 9.798625 6.4179688 11.015625 C 2.9209688 10.756625 0 13.553 0 17 C 0 20.309 2.691 23 6 23 L 6 21 C 3.794 21 2 19.206 2 17 C 2 14.794 3.794 13 6 13 C 6.277 13 6.5648594 13.034469 6.8808594 13.105469 L 7.859375 13.326172 L 8.0761719 12.347656 C 8.3221719 11.241656 9.1976875 10.355797 10.304688 10.091797 L 10.962891 9.9355469 L 11.060547 9.265625 C 11.419547 6.832625 13.543 5 16 5 C 17.894 5 19.603938 6.0549531 20.460938 7.7519531 L 20.855469 8.5332031 L 21.683594 8.2441406 C 22.150594 8.0801406 22.582 8 23 8 C 25.206 8 27 9.794 27 12 C 27 12.038 26.991328 12.074328 26.986328 12.111328 C 26.977328 12.179328 26.968891 12.248359 26.962891 12.318359 L 26.902344 13.037109 L 27.568359 13.320312 C 29.045359 13.950313 30 15.395 30 17 C 30 19.206 28.206 21 26 21 L 23.458984 21 C 23.717984 21.289 23.948437 21.6025 24.148438 21.9375 C 24.348437 22.2725 24.515437 22.628953 24.648438 23.001953 L 26 23.001953 C 29.309 23.001953 32 20.310953 32 17.001953 C 32 14.835953 30.841094 12.865734 28.996094 11.802734 C 28.891094 8.5857344 26.242 6 23 6 C 22.611 6 22.222172 6.0419531 21.826172 6.1269531 C 20.536172 4.1799531 18.372 3 16 3 z M 15.5 12 C 14.363131 12 13.339138 12.549214 12.701172 13.398438 L 14.300781 14.599609 C 14.574815 14.234831 15.002869 14 15.5 14 C 16.340812 14 17 14.659188 17 15.5 C 17 16.340812 16.340812 17 15.5 17 L 9 17 L 9 19 L 15.5 19 C 17.421188 19 19 17.421188 19 15.5 C 19 13.578812 17.421188 12 15.5 12 z M 8 21 L 8 23 L 11 23 C 11.56503 23 12 23.43497 12 24 C 12 24.56503 11.56503 25 11 25 C 10.623337 25 10.308573 24.79948 10.134766 24.501953 L 8.4082031 25.509766 C 8.9283955 26.400239 9.9006631 27 11 27 C 12.64497 27 14 25.64497 14 24 C 14 23.648157 13.92606 23.314892 13.8125 23 L 19 23 C 20.116666 23 21 23.883334 21 25 C 21 26.116666 20.116666 27 19 27 C 18.119422 27 17.386254 26.439145 17.113281 25.664062 L 15.226562 26.330078 C 15.77559 27.888996 17.266578 29 19 29 C 21.197334 29 23 27.197334 23 25 C 23 22.802666 21.197334 21 19 21 L 11 21 L 8 21 z" fill="#000000"/></svg>
