<?xml version="1.0" encoding="utf-8"?>
<svg xmlns="http://www.w3.org/2000/svg" viewBox="0 0 32 32" fill="#000000"><path style="text-indent:0;text-align:start;line-height:normal;text-transform:none;block-progression:tb;-inkscape-font-specification:Bitstream Vera Sans" d="M 17.5 3.34375 L 15.5625 8.53125 C 15.274219 9.2974184 15.47317 10.180059 16.0625 10.75 L 17.96875 12.59375 C 17.88465 12.877367 17.497065 14.116758 16.6875 15.71875 C 15.822852 17.429741 14.495917 19.205553 13.0625 20.0625 L 9.34375 19.40625 C 9.327064 19.40325 9.322794 19.39187 9.3125 19.375 L 6.5625 14.875 L 4.84375 15.90625 L 7.59375 20.40625 C 7.8994557 20.907375 8.3874361 21.270014 8.96875 21.375 L 12.6875 22.03125 L 13.625 23.71875 C 11.677428 24.677827 10.009314 25.142846 9.3125 25.3125 C 9.297239 25.3162 9.274231 25.29436 9.25 25.28125 L 2.46875 21.625 L 1.53125 23.375 L 8.3125 27.0625 C 8.7502691 27.299388 9.284511 27.370304 9.78125 27.25 C 11.051836 26.940649 14.804031 25.862831 18.40625 23.09375 C 20.319229 21.623522 21.580513 20.081287 22.40625 18.84375 C 23.523413 17.169985 23.24592 14.950145 21.8125 13.5625 L 17.4375 9.3125 C 17.41883 9.294441 17.4278 9.275832 17.4375 9.25 L 19.375 4.0625 L 17.5 3.34375 z M 25 6 C 22.802706 6 21 7.8027056 21 10 C 21 12.197294 22.802706 14 25 14 C 27.197294 14 29 12.197294 29 10 C 29 7.8027056 27.197294 6 25 6 z M 25 8 C 26.116414 8 27 8.883586 27 10 C 27 11.116414 26.116414 12 25 12 C 23.883586 12 23 11.116414 23 10 C 23 8.883586 23.883586 8 25 8 z M 19.5625 14.125 L 20.4375 15 C 21.19608 15.734355 21.326837 16.885765 20.75 17.75 C 20.031737 18.826463 18.912521 20.174228 17.1875 21.5 C 16.579335 21.967506 15.982976 22.380274 15.375 22.75 L 14.6875 21.5 C 16.410566 20.259824 17.61337 18.317652 18.46875 16.625 C 18.946664 15.67929 19.312239 14.79283 19.5625 14.125 z" overflow="visible" font-family="Bitstream Vera Sans" fill="#000000"/></svg>
