<?xml version="1.0" encoding="utf-8"?>
<svg xmlns="http://www.w3.org/2000/svg" viewBox="0 0 32 32" fill="#000000"><path style="text-indent:0;text-align:start;line-height:normal;text-transform:none;block-progression:tb;-inkscape-font-specification:Sans" d="M 15.875 4 L 15.78125 4.03125 L 4.78125 6.46875 L 4 6.65625 L 4 7.4375 L 4 24.5625 L 4 25.34375 L 4.78125 25.53125 L 15.78125 27.96875 L 15.875 28 L 16 28 L 17 28 L 18 28 L 18 27 L 18 25 L 27 25 L 28 25 L 28 24 L 28 8 L 28 7 L 27 7 L 18 7 L 18 5 L 18 4 L 17 4 L 16 4 L 15.875 4 z M 16 6.03125 L 16 7 L 16 8 L 16 24 L 16 25 L 16 25.96875 L 6 23.78125 L 6 8.21875 L 16 6.03125 z M 18 9 L 26 9 L 26 23 L 18 23 L 18 21 L 25 21 L 25 19 L 18 19 L 18 18 L 25 18 L 25 16 L 18 16 L 18 15 L 25 15 L 25 13 L 18 13 L 18 12 L 25 12 L 25 10 L 18 10 L 18 9 z M 15 11 L 13.4375 11.125 C 13.3215 11.918 12.6975 16.19425 12.6875 16.53125 L 12.03125 11.3125 L 9.90625 11.625 L 9.0625 17.03125 L 8.5 11.8125 L 7 12 L 8 20 L 9.9375 20.3125 L 11.03125 13.90625 C 11.03925 14.26425 11.788 19.22025 12 20.65625 L 13.46875 20.90625 L 15 11 z" fill="#000000"/></svg>
