<?xml version="1.0" encoding="utf-8"?>
<svg xmlns="http://www.w3.org/2000/svg" viewBox="0 0 32 32" fill="#000000"><path style="text-indent:0;text-align:start;line-height:normal;text-transform:none;block-progression:tb;-inkscape-font-specification:Sans" d="M 5 5 L 5 6 L 5 26 L 5 27 L 6 27 L 26 27 L 27 27 L 27 26 L 27 6 L 27 5 L 26 5 L 6 5 L 5 5 z M 7 7 L 25 7 L 25 25 L 7 25 L 7 7 z M 11.96875 9 L 11.65625 9.5 L 8.21875 15.5 L 7.90625 16 L 8.21875 16.5 L 11.65625 22.5 L 11.96875 23 L 12.53125 23 L 19.46875 23 L 20.03125 23 L 20.34375 22.5 L 23.78125 16.5 L 24.09375 16 L 23.78125 15.5 L 20.34375 9.5 L 20.03125 9 L 19.46875 9 L 12.53125 9 L 11.96875 9 z M 13.125 11 L 18.875 11 L 21.78125 16 L 18.875 21 L 13.125 21 L 10.21875 16 L 13.125 11 z M 16 12.1875 L 15.15625 13.4375 L 13.15625 16.4375 L 12.125 18 L 14 18 L 18 18 L 19.875 18 L 18.84375 16.4375 L 16.84375 13.4375 L 16 12.1875 z M 16 15.8125 L 16.125 16 L 15.875 16 L 16 15.8125 z" overflow="visible" font-family="Sans" fill="#000000"/></svg>
