<?xml version="1.0" encoding="utf-8"?>
<svg xmlns="http://www.w3.org/2000/svg" viewBox="0 0 32 32" fill="#000000"><path style="line-height:normal;text-indent:0;text-align:start;text-decoration-line:none;text-decoration-style:solid;text-decoration-color:#000;text-transform:none;block-progression:tb;isolation:auto;mix-blend-mode:normal" d="M 4.9960938 8 C 2.7474061 8 1.3381328 8.9393119 0.66796875 9.9453125 C -0.00219532 10.951313 0 12 0 12 L 0 13 L 1 13 C 1 13 1.3088094 12.9914 1.9316406 13.199219 C 2.5544718 13.407002 3.4073252 13.824853 4.2890625 14.707031 C 5.3649381 15.783445 6.1444482 20.804592 10.738281 22.458984 C 10.290766 22.825693 10 23.375957 10 24 L 12 24 L 14 24 L 17 24 L 19 24 L 21 24 C 21 23.337884 20.675002 22.756528 20.179688 22.392578 C 21.028533 22.047644 21.773461 21.563981 22.423828 20.984375 C 27.519701 20.819876 30.606591 17.862239 31.613281 14.8125 C 32.131199 13.243483 32.146566 11.646604 31.587891 10.328125 C 31.029215 9.0096459 29.740659 8 28.130859 8 C 25.97113 8 24.739474 9.5358903 24.302734 10.201172 C 24.081245 10.302742 23.566749 10.519112 22.427734 10.736328 C 20.97906 11.012598 18.796631 11.181353 15.917969 10.701172 C 12.202016 10.080908 8.4455058 8 4.9960938 8 z M 4.9960938 10 C 7.5426816 10 11.421797 11.978096 15.589844 12.673828 C 18.706181 13.193651 21.136659 13.018906 22.802734 12.701172 C 23.454568 12.576864 23.412686 12.521536 23.835938 12.382812 C 23.68223 14.415964 23.277864 16.430716 22.373047 17.949219 C 21.260906 19.815666 19.663614 21 16.986328 21 L 13.990234 21 C 7.5681536 21 8.411008 16.000252 5.7050781 13.292969 C 4.5878154 12.175147 3.4403719 11.592998 2.5644531 11.300781 C 2.3972271 11.244991 2.4157563 11.281201 2.265625 11.244141 C 2.307965 11.151851 2.2660933 11.15367 2.3320312 11.054688 C 2.6611174 10.560688 3.2477814 10 4.9960938 10 z M 28.130859 10 C 29.00156 10 29.430832 10.365354 29.746094 11.109375 C 30.061356 11.853396 30.104676 13.006517 29.714844 14.1875 C 29.071036 16.137894 27.369687 18.143618 24.191406 18.785156 C 25.44787 16.576659 25.939895 13.882539 25.974609 11.300781 C 26.206477 10.946292 26.928299 10 28.130859 10 z" font-weight="400" font-family="sans-serif" white-space="normal" overflow="visible" fill="#000000"/></svg>
