<?xml version="1.0" encoding="utf-8"?>
<svg xmlns="http://www.w3.org/2000/svg" viewBox="0 0 32 32" fill="#000000"><path d="M 3 4 L 3 5 L 3 21 L 3 21.40625 L 3.28125 21.71875 L 5 23.4375 L 5 24 L 5 26 L 5 27 C 5 27.552 5.448 28 6 28 L 9 28 L 9.34375 27 L 16.59375 27 C 17.78836 29.919124 20.659415 32 24 32 C 28.406433 32 32 28.406433 32 24 C 32 21.481724 30.828363 19.2495 29 17.78125 L 29 5 L 29 4 L 28 4 L 4 4 L 3 4 z M 5 6 L 27 6 L 27 16.59375 C 26.367098 16.334744 25.70082 16.151326 25 16.0625 L 25 12 C 25 10.35503 23.64497 9 22 9 L 10 9 C 8.3550302 9 7 10.35503 7 12 L 7 16.1875 C 5.8442639 16.605727 5 17.708013 5 19 L 5 6 z M 10 11 L 22 11 C 22.56503 11 23 11.43497 23 12 L 23 16 L 9 16 L 9 12 C 9 11.43497 9.4349698 11 10 11 z M 8 18 L 18.71875 18 C 17.793782 18.813155 17.067041 19.843476 16.59375 21 L 13 21 L 13 23 L 16.0625 23 C 16.02061 23.330504 16 23.658433 16 24 C 16 24.341567 16.02061 24.669496 16.0625 25 L 10 25 L 7 25 L 7 23 L 7 22.59375 L 7 19 C 7 18.43497 7.4349698 18 8 18 z M 24 18 C 27.325553 18 30 20.674447 30 24 C 30 27.325553 27.325553 30 24 30 C 20.674447 30 18 27.325553 18 24 C 18 20.674447 20.674447 18 24 18 z M 9.5 20 C 8.6715729 20 8 20.671573 8 21.5 C 8 22.328427 8.6715729 23 9.5 23 C 10.328427 23 11 22.328427 11 21.5 C 11 20.671573 10.328427 20 9.5 20 z M 26.78125 21.28125 L 23.5 24.5625 L 21.21875 22.28125 L 19.78125 23.71875 L 22.78125 26.71875 L 23.5 27.40625 L 24.21875 26.71875 L 28.21875 22.71875 L 26.78125 21.28125 z" fill="#000000"/></svg>
