<?xml version="1.0" encoding="utf-8"?>
<svg xmlns="http://www.w3.org/2000/svg" viewBox="0 0 32 32" fill="#000000"><path style="text-indent:0;text-align:start;line-height:normal;text-transform:none;block-progression:tb;-inkscape-font-specification:Sans" d="M 5 5 L 5 6 L 5 26 L 5 27 L 6 27 L 26 27 L 27 27 L 27 26 L 27 6 L 27 5 L 26 5 L 6 5 L 5 5 z M 7 7 L 25 7 L 25 25 L 7 25 L 7 7 z M 10 11 L 10 12 L 10 21 L 12 21 L 12 17 L 13 17 C 14.64497 17 16 15.64497 16 14 C 16 12.35503 14.64497 11 13 11 L 11 11 L 10 11 z M 12 13 L 13 13 C 13.56503 13 14 13.43497 14 14 C 14 14.56503 13.56503 15 13 15 L 12 15 L 12 13 z M 19.5 13 C 18.130937 13 17 14.130937 17 15.5 C 17 16.869063 18.130937 18 19.5 18 C 19.786937 18 20 18.213063 20 18.5 C 20 18.864232 19.93915 19 19.5 19 C 19.120705 19 19.068225 18.91215 19.0625 18.90625 C 19.056775 18.900353 19 18.866336 19 18.625 L 17 18.625 C 17 19.192664 17.156725 19.830147 17.625 20.3125 C 18.093275 20.794853 18.775295 21 19.5 21 C 20.908848 21 22 19.791768 22 18.5 C 22 17.130937 20.869063 16 19.5 16 C 19.213063 16 19 15.786937 19 15.5 C 19 15.213063 19.213063 15 19.5 15 C 19.77034 15 19.844119 15.05675 19.90625 15.125 C 19.968381 15.19325 20 15.320536 20 15.40625 L 22 15.40625 C 22 14.839964 21.805369 14.254 21.375 13.78125 C 20.944631 13.3085 20.25966 13 19.5 13 z" overflow="visible" font-family="Sans" fill="#000000"/></svg>
