<?xml version="1.0" encoding="utf-8"?>
<svg xmlns="http://www.w3.org/2000/svg" viewBox="0 0 32 32" fill="#000000"><path style="text-indent:0;text-align:start;line-height:normal;text-transform:none;block-progression:tb;-inkscape-font-specification:Sans" d="M 8 4 L 11.8125 13.1875 C 9.5258639 14.598218 8 17.125435 8 20 C 8 24.406433 11.593567 28 16 28 C 20.406433 28 24 24.406433 24 20 C 24 17.125435 22.474136 14.598218 20.1875 13.1875 L 24 4 L 22 4 L 18.46875 12.40625 C 17.890893 12.217669 17.282756 12.08289 16.65625 12.03125 L 20 4 L 18 4 L 14.59375 12.125 C 14.210744 12.194116 13.830979 12.315664 13.46875 12.4375 L 9.96875 4 L 8 4 z M 12 4 L 14.28125 9.53125 L 15.28125 7.09375 L 14 4 L 12 4 z M 16 14 C 19.325553 14 22 16.674447 22 20 C 22 23.325553 19.325553 26 16 26 C 12.674447 26 10 23.325553 10 20 C 10 16.674447 12.674447 14 16 14 z M 12 17 L 12 19 L 13 19 L 13 21 L 12 21 L 12 23 L 20 23 L 20 21 L 19 21 L 19 19 L 20 19 L 20 17 L 12 17 z M 15 19 L 17 19 L 17 21 L 15 21 L 15 19 z" fill="#000000"/></svg>
