<?xml version="1.0" encoding="utf-8"?>
<svg xmlns="http://www.w3.org/2000/svg" viewBox="0 0 32 32" fill="#000000"><path style="text-indent:0;text-align:start;line-height:normal;text-transform:none;block-progression:tb;-inkscape-font-specification:Bitstream Vera Sans" d="M 6 5 L 6 7 L 8 7 C 8.5650302 7 9 7.4349698 9 8 L 9 23 C 9 24.64497 10.35503 26 12 26 L 15 26 L 15 28 L 16 29 L 17 28 L 17 26 L 20 26 C 21.64497 26 23 24.64497 23 23 L 23 8 C 23 7.4349698 23.43497 7 24 7 L 26 7 L 26 5 L 24 5 C 22.35503 5 21 6.3550302 21 8 L 11 8 C 11 6.3550302 9.6449698 5 8 5 L 6 5 z M 11 10 L 21 10 L 21 12 L 19 12 L 19 14 L 21 14 L 21 16 L 19 16 L 19 18 L 21 18 L 21 20 L 19 20 L 19 22 L 21 22 L 21 23 C 21 23.56503 20.56503 24 20 24 L 12 24 C 11.43497 24 11 23.56503 11 23 L 11 10 z" overflow="visible" font-family="Bitstream Vera Sans" fill="#000000"/></svg>
