<?xml version="1.0" encoding="utf-8"?>
<svg xmlns="http://www.w3.org/2000/svg" viewBox="0 0 32 32" fill="#000000"><path style="text-indent:0;text-align:start;line-height:normal;text-transform:none;block-progression:tb;-inkscape-font-specification:Sans" d="M 16 4 C 9.3844277 4 4 9.3844277 4 16 C 4 22.615572 9.3844277 28 16 28 C 22.615572 28 28 22.615572 28 16 C 28 9.3844277 22.615572 4 16 4 z M 16 6 C 21.534692 6 26 10.465308 26 16 C 26 21.534692 21.534692 26 16 26 C 10.465308 26 6 21.534692 6 16 C 6 10.465308 10.465308 6 16 6 z M 12 10 C 10.760256 10 9.8217315 10.6925 9.1875 11.28125 C 8.5532685 11.87 8.15625 12.4375 8.15625 12.4375 L 9.84375 13.5625 C 9.84375 13.5625 10.088231 13.13 10.53125 12.71875 C 10.974269 12.3075 11.548744 12 12 12 L 15 12 L 15 10 L 12 10 z M 17 10 L 17 12 L 20 12 C 20.451256 12 21.025731 12.3075 21.46875 12.71875 C 21.911769 13.13 22.15625 13.5625 22.15625 13.5625 L 23.84375 12.4375 C 23.84375 12.4375 23.446731 11.87 22.8125 11.28125 C 22.178269 10.6925 21.239744 10 20 10 L 17 10 z M 8.5 14 C 8.5 14 7 16.672 7 17.5 C 7 18.328 7.672 19 8.5 19 C 9.328 19 10 18.328 10 17.5 C 10 16.672 8.5 14 8.5 14 z M 16 16 C 13.664166 16 12.064952 17.235143 11.1875 18.40625 C 10.310048 19.577357 10.03125 20.75 10.03125 20.75 L 9.71875 22 L 11 22 L 16 22 L 21 22 L 22.28125 22 L 21.96875 20.75 C 21.96875 20.75 21.689952 19.577357 20.8125 18.40625 C 19.935048 17.235143 18.335834 16 16 16 z M 16 18 C 17.670166 18 18.566452 18.764857 19.1875 19.59375 C 19.341621 19.79945 19.300009 19.808471 19.40625 20 L 16 20 L 12.59375 20 C 12.699991 19.808471 12.65838 19.79945 12.8125 19.59375 C 13.433548 18.764857 14.329834 18 16 18 z" overflow="visible" font-family="Sans" fill="#000000"/></svg>
