<?xml version="1.0" encoding="utf-8"?>
<svg xmlns="http://www.w3.org/2000/svg" viewBox="0 0 32 32" fill="#000000"><path style="text-indent:0;text-align:start;line-height:normal;text-transform:none;block-progression:tb;-inkscape-font-specification:Bitstream Vera Sans" d="M 13 4 L 13 5 L 13 19 L 13 20 L 14 20 L 18 20 L 19 20 L 19 19 L 19 5 L 19 4 L 18 4 L 14 4 L 13 4 z M 15 6 L 17 6 L 17 18 L 15 18 L 15 6 z M 13 22 L 13 23 L 13 27 L 13 28 L 14 28 L 18 28 L 19 28 L 19 27 L 19 23 L 19 22 L 18 22 L 14 22 L 13 22 z M 15 24 L 17 24 L 17 26 L 15 26 L 15 24 z" overflow="visible" font-family="Bitstream Vera Sans" fill="#000000"/></svg>
