<?xml version="1.0" encoding="utf-8"?>
<svg xmlns="http://www.w3.org/2000/svg" viewBox="0 0 32 32" fill="#000000"><path style="text-indent:0;text-align:start;line-height:normal;text-transform:none;block-progression:tb;-inkscape-font-specification:Bitstream Vera Sans" d="M 9.5 4 C 7.0265633 4 5 6.0265633 5 8.5 C 5 10.973437 7.0265634 13 9.5 13 C 11.973437 13 14 10.973437 14 8.5 C 14 6.0265634 11.973437 4 9.5 4 z M 9.5 6 C 10.892557 6 12 7.1074434 12 8.5 C 12 9.8925571 10.892557 11 9.5 11 C 8.1074434 11 7 9.892557 7 8.5 C 7 7.1074435 8.1074435 6 9.5 6 z M 23 8 L 23 9.09375 C 21.051956 9.4951909 19.495191 11.051956 19.09375 13 L 18 13 L 18 15 L 30 15 L 30 13 L 28.90625 13 C 28.504809 11.051956 26.948044 9.4951909 25 9.09375 L 25 8 L 23 8 z M 24 11 C 25.318362 11 26.436798 11.827988 26.84375 13 L 21.15625 13 C 21.563202 11.827988 22.681638 11 24 11 z M 4 14 L 4 16 L 6.25 16 L 8.4375 23.28125 L 8.65625 24 L 9.375 24 L 9.59375 24 L 10.34375 24 L 10.5625 23.28125 L 12.75 16 L 14.53125 16 L 17.40625 20.65625 L 18.0625 21.75 L 18.9375 20.875 L 21.90625 18 L 26 18 L 26 16 L 21.5 16 L 21.09375 16 L 20.8125 16.28125 L 18.4375 18.5625 L 15.9375 14.46875 L 15.65625 14 L 15.09375 14 L 12 14 L 11.25 14 L 11.03125 14.71875 L 9.5 19.875 L 7.96875 14.71875 L 7.75 14 L 7 14 L 4 14 z M 14 18.25 L 14 26 L 4 26 L 4 28 L 16 28 L 16 21.625 L 14 18.25 z" overflow="visible" font-family="Bitstream Vera Sans" fill="#000000"/></svg>
