<?xml version="1.0" encoding="utf-8"?>
<svg xmlns="http://www.w3.org/2000/svg" viewBox="0 0 32 32" fill="#000000"><path style="text-indent:0;text-align:start;line-height:normal;text-transform:none;block-progression:tb;-inkscape-font-specification:Bitstream Vera Sans" d="M 16 3 C 14.475483 3 13.30362 4.2076279 13.125 5.6875 C 10.705802 6.7910088 9 9.1771605 9 12 L 9 26 L 11 26 L 11 12 C 11 9.8156565 12.403862 7.9684153 14.34375 7.28125 L 15 7.0625 L 15 6.34375 L 15 6 C 15 5.4349698 15.43497 5 16 5 C 16.56503 5 17 5.4349698 17 6 L 17 6.34375 L 17 7.0625 L 17.65625 7.28125 C 19.595569 7.9673808 21 9.8156565 21 12 L 21 27 L 8 27 L 8 29 L 24 29 L 24 27 L 23 27 L 23 12 C 23 9.1771605 21.294629 6.7903675 18.875 5.6875 C 18.69638 4.2076279 17.524517 3 16 3 z" overflow="visible" font-family="Bitstream Vera Sans" fill="#000000"/></svg>
