<?xml version="1.0" encoding="utf-8"?>
<svg xmlns="http://www.w3.org/2000/svg" viewBox="0 0 32 32" fill="#000000"><path style="line-height:normal;text-indent:0;text-align:start;text-decoration-line:none;text-decoration-style:solid;text-decoration-color:#000;text-transform:none;block-progression:tb;isolation:auto;mix-blend-mode:normal" d="M 18.847656 6.0019531 C 18.802031 6.0140781 18.753891 6.0654375 18.712891 6.0859375 C 18.472891 6.2069375 18.237 6.3590469 18 6.4980469 L 18 6.6171875 C 18.239 6.7381875 18.476797 6.8685625 18.716797 6.9765625 C 18.810797 7.0185625 18.914844 7.0310156 18.964844 6.7910156 C 19.008844 6.5790156 19.012797 6.3573438 18.966797 6.1523438 C 18.936297 6.0163438 18.893281 5.9898281 18.847656 6.0019531 z M 18.5 7 C 18.031 8.105 17.527 9.8543594 17 10.943359 C 17.173 10.987359 17.32075 10.998047 17.46875 10.998047 C 18.17175 10.999047 18.875125 11.002047 19.578125 10.998047 C 20.058125 10.996047 20.081813 10.967438 19.882812 10.523438 C 19.475812 9.6164375 19.042953 8.0494844 18.626953 7.1464844 C 18.602953 7.0944844 18.592 7.028 18.5 7 z M 15.005859 10 A 1.0001 1.0001 0 0 0 14.935547 10.001953 C 6.8879911 10.514693 1 17.180231 1 25 L 1 26 L 1 27 L 1.8320312 27 A 1.0001 1.0001 0 0 0 2.1582031 27 L 3 27 L 3 25 C 3 18.175769 8.0460069 12.44526 15.064453 11.998047 A 1.0001 1.0001 0 0 0 15.005859 10 z M 21.482422 11.107422 A 1.0001 1.0001 0 0 0 21.087891 13.033203 C 25.736898 15.011978 29 19.616515 29 25 L 29 26 L 29 27 L 29.832031 27 A 1.0001 1.0001 0 0 0 30.158203 27 L 31 27 L 31 25 C 31 18.807485 27.240087 13.478584 21.871094 11.193359 A 1.0001 1.0001 0 0 0 21.482422 11.107422 z M 17.646484 12 C 17.455484 12 17.229156 12.180859 17.160156 12.255859 C 17.065156 12.358859 17.022484 12.468031 17.021484 12.582031 C 17.020484 12.665031 17.041078 12.752844 17.080078 12.839844 C 17.153078 13.003844 17.224828 13.145812 17.298828 13.257812 C 17.276828 13.257812 17.248516 13.258813 17.228516 13.257812 C 17.093516 13.254812 17.015 13.299828 17 13.423828 L 17 14.441406 L 17 14.876953 C 17 15.032953 15.746031 15.007953 15.582031 15.001953 C 15.408031 15.000953 15.364469 14.935844 15.355469 14.839844 C 15.165469 14.317844 15.290844 14.654125 15.089844 14.203125 C 15.031844 14.072125 14.941922 13.936359 14.794922 13.943359 C 14.654922 13.950359 14.594922 14.106656 14.544922 14.222656 C 14.383922 14.598656 14.071 15.142484 13.875 15.521484 C 13.871 15.588484 13.823109 15.65675 13.787109 15.71875 C 13.695109 15.87675 13.728203 15.965187 13.908203 15.992188 C 13.938203 15.996187 13.969 15.996 14 16 C 14 16.417 14.009766 16.688313 14.009766 17.320312 C 14.009766 17.895312 13.687812 17.979 13.382812 18 L 12 18 C 11.877 18 12.015719 18.479281 11.886719 18.613281 C 11.806719 18.696281 11.489422 18.814375 11.357422 18.734375 C 11.221422 18.652375 11.243063 18.511859 11.289062 18.380859 C 11.302062 18.343859 11.321844 18.308437 11.339844 18.273438 C 11.462844 18.044438 11.444406 18.003 11.191406 18 L 10.494141 18 L 8.9609375 18 C 8.8619375 18 8.8331875 18.003469 8.8671875 18.105469 C 8.9571875 18.376469 8.996 18.658359 9 18.943359 C 9.004 19.236359 8.9960938 19.810531 8.9960938 20.644531 L 9.0039062 20.644531 C 8.9919062 20.808531 8.9925156 20.9695 8.9785156 21.1875 C 8.9685156 21.3375 8.7955156 21.997047 8.3535156 21.998047 C 8.0715306 21.998047 7.8207145 21.998174 7.578125 21.998047 C 7.6879708 21.991537 7.8051613 22.000513 7.921875 21.953125 C 7.981875 21.928125 8.0162812 21.895953 7.9882812 21.751953 C 7.8842813 21.209953 7.7672812 20.680453 7.6132812 20.189453 C 7.5272812 19.913453 7.3434375 19.946188 7.2734375 20.242188 C 7.1644375 20.706187 7.0857656 21.1965 7.0097656 21.6875 C 6.9877656 21.8275 7.0019375 21.907406 7.0859375 21.941406 C 7.2157832 21.993705 7.3469514 21.993369 7.4863281 21.998047 C 7.1468579 21.997882 6.8185524 21.99749 6.3984375 21.998047 C 6.3054375 21.998047 6.2242031 22.019281 6.1582031 22.113281 C 5.9552031 22.400281 5.7381562 22.675937 5.5351562 22.960938 C 5.4111563 23.134937 5.423625 23.150781 5.640625 23.175781 C 6.278625 23.250781 5.74 23.25 6 23.25 C 5.863 23.251 5.8427031 24.017734 5.8457031 24.177734 C 5.8507031 24.407734 5.7440312 24.833547 5.7070312 25.060547 C 5.6820312 25.217547 5.5839531 25.6925 5.5019531 26.0625 C 5.4649531 26.3035 5.0936719 27 5.5136719 27 L 13 27 L 13 25 C 13 23.35 14.35 22 16 22 C 17.65 22 19 23.35 19 25 L 19 27 L 26.457031 27 C 26.767031 27 26.50675 26.3025 26.46875 26.0625 C 26.43375 25.6285 26.119359 24.113984 26.068359 24.083984 C 26.060359 23.704984 25.965 23.375 26 23.375 C 26.005 23.375 26.003812 23.361375 26.007812 23.359375 C 26.137812 23.353375 26.260109 23.351938 26.412109 23.335938 C 26.635109 23.312938 26.670406 23.251594 26.566406 23.058594 C 26.443406 22.831594 26.279953 22.630828 26.126953 22.423828 C 26.011953 22.267828 25.8615 22.186297 25.6875 22.154297 C 25.5255 21.736297 25.361266 21.351672 25.322266 21.263672 C 25.223266 21.040672 25.215672 20.606047 25.138672 20.373047 C 25.103672 20.265047 25.036125 20.174703 24.953125 20.095703 C 24.834125 19.982703 24.714844 19.966891 24.589844 20.087891 C 24.513844 20.160891 24.461813 20.232734 24.382812 20.302734 C 24.311812 20.364734 24.231547 20.378203 24.185547 20.283203 C 24.077547 20.061203 23.883922 20.000047 23.669922 19.998047 L 23.119141 19.998047 C 22.571141 19.998047 22.308375 19.189781 22.234375 19.050781 C 22.114375 18.822781 22.464672 18.576078 22.388672 18.330078 C 22.330672 18.137078 22.213 18.009 22 18 L 21.789062 18 C 21.89143 17.996964 21.955216 17.961117 21.976562 17.837891 C 22.002562 17.687891 22.013703 17.544438 21.970703 17.398438 C 21.939703 17.293437 21.880859 17.083031 21.880859 17.082031 C 21.880859 17.082031 21.879906 17.079125 21.878906 17.078125 C 21.865906 17.034125 21.55 16.077 21.5 16 C 21.486 16.047 21.024578 17.296219 21.017578 17.324219 C 20.990578 17.388219 20.999766 17.454531 21.009766 17.519531 C 21.077267 17.96162 21.110868 17.998183 21.503906 18 L 21.023438 18 C 20.398438 18 20.365234 17.097656 20.365234 17.097656 C 20.365234 17.097656 20.378344 16.865578 20.277344 16.517578 C 20.175344 16.165578 19.976563 16.109 19.976562 15.875 C 19.965563 15.453 19.998562 13.708875 19.976562 13.421875 C 19.966562 13.290875 19.890719 13.256813 19.761719 13.257812 C 19.883719 13.116812 19.970563 12.861234 19.976562 12.615234 C 19.980563 12.467234 19.970047 12.323031 19.873047 12.207031 C 19.836047 12.139031 19.642969 12 19.417969 12 L 17.646484 12 z M 10.494141 18 C 10.634141 17.995 10.773062 18.006844 10.914062 17.964844 C 11.014063 17.936844 11.018656 17.938219 10.972656 17.699219 C 10.908656 17.367219 10.838484 17.041891 10.771484 16.712891 C 10.734484 16.531891 10.698531 16.346359 10.644531 16.193359 C 10.546531 15.918359 10.367875 15.936188 10.296875 16.242188 C 10.183875 16.732187 10.091766 17.247391 10.009766 17.775391 C 9.9907656 17.900391 10.000641 17.949891 10.056641 17.962891 C 10.202641 17.998891 10.348141 17.997 10.494141 18 z M 12.394531 16 C 12.318531 15.998 12.306062 16.093203 12.289062 16.158203 C 12.181063 16.575203 12.109922 17.001687 12.044922 17.429688 C 11.956922 18.010687 11.955422 18.009094 12.482422 17.996094 C 12.589422 17.996094 12.697734 17.995094 12.802734 17.996094 C 12.983734 17.998094 13.034562 17.922797 12.976562 17.716797 C 12.826562 17.188797 12.674422 16.661391 12.482422 16.150391 C 12.461422 16.093391 12.455531 16.002 12.394531 16 z M 23.523438 18 C 23.479437 17.992 23.467125 18.057516 23.453125 18.103516 C 23.398125 18.289516 23.051859 19.655234 23.005859 19.865234 C 22.989859 19.940234 23.006078 19.968562 23.080078 19.976562 C 23.226078 19.993562 23.370578 20.003094 23.517578 19.996094 C 23.622578 19.996094 23.728031 20.003094 23.832031 19.996094 C 24.017031 19.983094 24.018516 19.978922 23.978516 19.794922 C 23.961516 19.715922 23.944875 19.637547 23.921875 19.560547 C 23.892875 19.465547 23.609406 18.367281 23.566406 18.113281 C 23.558406 18.069281 23.559438 18.008 23.523438 18 z" font-weight="400" font-family="sans-serif" white-space="normal" overflow="visible" fill="#000000"/></svg>
