<?xml version="1.0" encoding="utf-8"?>
<svg xmlns="http://www.w3.org/2000/svg" viewBox="0 0 32 32" fill="#000000"><path d="M 16 4 C 13.238 4 11 6.238 11 9 C 11 11.761 13.238 14 16 14 C 18.762 14 21 11.761 21 9 C 21 6.238 18.762 4 16 4 z M 14.90625 6.46875 L 17.4375 6.46875 L 17.4375 7.3125 L 15.71875 7.3125 L 15.65625 8.28125 C 15.82825 8.26825 15.96875 8.25 16.09375 8.25 C 17.39775 8.25 17.65625 9.2505 17.65625 9.6875 C 17.65525 10.3795 17.2835 11.34375 15.8125 11.34375 C 15.3515 11.34375 14.97025 11.263 14.65625 11.125 L 14.65625 10.21875 C 14.98425 10.41975 15.3175 10.53125 15.6875 10.53125 C 16.3745 10.53125 16.59375 10.00825 16.59375 9.78125 C 16.59375 9.30625 16.26475 9.0625 15.59375 9.0625 C 15.34675 9.0625 15.04175 9.087 14.71875 9.125 L 14.90625 6.46875 z M 4 12 L 4 27 L 4 28 L 5 28 L 27 28 L 28 28 L 28 27 L 28 12 L 26 12 L 26 26 L 6 26 L 6 12 L 4 12 z M 14.96875 15 L 14.96875 20 L 12.46875 20 L 15.9375 24 L 19.46875 20 L 16.96875 20 L 16.96875 15 L 14.96875 15 z" fill="#000000"/></svg>
