<?xml version="1.0" encoding="utf-8"?>
<svg xmlns="http://www.w3.org/2000/svg" viewBox="0 0 32 32" fill="#000000"><path style="text-indent:0;text-align:start;line-height:normal;text-transform:none;block-progression:tb;-inkscape-font-specification:Sans" d="M 9 4 L 9 5 L 6 5 L 5 5 L 5 6 L 5 26 L 5 27 L 6 27 L 26 27 L 27 27 L 27 26 L 27 6 L 27 5 L 26 5 L 23 5 L 23 4 L 21 4 L 21 5 L 11 5 L 11 4 L 9 4 z M 7 7 L 9 7 L 9 8 L 11 8 L 11 7 L 21 7 L 21 8 L 23 8 L 23 7 L 25 7 L 25 9 L 7 9 L 7 7 z M 7 11 L 25 11 L 25 25 L 7 25 L 7 11 z M 11 14 L 11 15 L 11 22 L 13 22 L 13 19 L 15 19 L 15 17 L 13 17 L 13 16 L 16 16 L 16 14 L 12 14 L 11 14 z M 17 14 L 17 15 L 17 22 L 19 22 L 19 19 L 20 22 L 22 22 L 20.875 18.59375 C 21.559476 18.145217 22 17.370145 22 16.5 C 22 15.130937 20.869063 14 19.5 14 L 18 14 L 17 14 z M 19 16 L 19.5 16 C 19.786937 16 20 16.213063 20 16.5 C 20 16.786937 19.786937 17 19.5 17 L 19 17 L 19 16 z" fill="#000000"/></svg>
