<?xml version="1.0" encoding="utf-8"?>
<svg xmlns="http://www.w3.org/2000/svg" viewBox="0 0 32 32" fill="#000000"><path style="text-indent:0;text-align:start;line-height:normal;text-transform:none;block-progression:tb;-inkscape-font-specification:Bitstream Vera Sans" d="M 22.40625 3 C 21.560251 3.03732 20.680415 3.6575554 20.28125 4.625 L 20.28125 4.65625 L 20.25 4.65625 C 19.829974 5.7772634 19.236109 6.9508123 18.5625 8.09375 C 17.737192 8.0274941 16.88474 8 16 8 C 12.864228 8 10.019144 8.439049 7.875 9.21875 C 6.802928 9.6086005 5.9119483 10.091554 5.21875 10.6875 C 4.6087355 11.211932 4.1689611 11.903048 4.0625 12.6875 A 1.0001 1.0001 0 0 0 4 12.9375 A 1.0001 1.0001 0 0 0 4 13.09375 C 4.0009965 13.380229 4.0002 13.75261 4.03125 14.21875 C 4.0332916 14.249032 4.029049 14.282364 4.03125 14.3125 C 4.0475672 14.54072 4.0955928 14.771369 4.125 15.03125 C 4.1544568 15.277112 4.1793196 15.5147 4.21875 15.75 C 4.4275601 17.100004 4.8323004 18.70752 5.65625 20.28125 C 6.2401111 21.396415 7.0418891 22.488123 8.125 23.40625 C 8.1567211 23.436598 8.276133 23.588633 8.28125 23.59375 C 9.295383 24.607883 11.309917 25.682924 14.53125 25.9375 C 14.67686 25.950932 14.819399 25.959365 14.96875 25.96875 C 15.30191 25.987043 15.642547 26 16 26 C 16.512944 26 17.008236 25.980897 17.46875 25.9375 C 17.542055 25.930738 17.615137 25.914016 17.6875 25.90625 C 18.006613 25.870999 18.300104 25.83353 18.59375 25.78125 C 18.645958 25.772142 18.698327 25.75965 18.75 25.75 C 18.804782 25.7396 18.852368 25.729673 18.90625 25.71875 C 19.644357 25.571733 20.30728 25.373414 20.9375 25.125 C 21.360052 24.963253 21.694663 24.796931 22.03125 24.625 C 22.190984 24.540682 22.348192 24.465445 22.5 24.375 C 22.937852 24.126092 23.298725 23.905634 23.5625 23.71875 C 23.997843 23.41046 25.055041 22.534309 26.09375 20.78125 C 27.009274 19.236093 27.830003 17.031704 27.96875 14.21875 C 28.000662 13.739671 27.999344 13.351033 28 13.0625 C 28.000568 13.041087 28 13.021556 28 13 C 28 12.98921 28.000139 12.979498 28 12.96875 A 1.0001221 1.0001221 0 0 0 28 12.90625 C 27.99873 12.873435 27.971294 12.84492 27.96875 12.8125 A 1.0001 1.0001 0 0 0 27.96875 12.71875 C 27.85204 11.724059 27.155961 10.912675 26.28125 10.3125 C 25.654952 9.8827708 24.889899 9.5226568 24.03125 9.21875 C 24.342688 8.8354724 24.652142 8.4548782 25 8.09375 C 25.03092 8.0616503 25.062542 8.0318777 25.09375 8 L 25.0625 7.96875 C 25.802442 7.3001285 26.1298 6.3116855 25.90625 5.53125 C 25.671757 4.7126114 25.105941 4.134662 24.53125 3.71875 C 23.959043 3.304636 23.252249 2.9626796 22.40625 3 z M 22.5 5 C 22.662751 4.99282 23.053207 5.110864 23.375 5.34375 C 23.694309 5.574838 23.953493 5.9001386 24 6.0625 C 24.04651 6.2248614 24.116627 6.2351754 23.75 6.53125 L 23.6875 6.5625 L 23.65625 6.59375 C 20.58028 9.735707 18.799438 13.452521 18.28125 15.90625 C 17.549851 15.966148 16.780892 16 16 16 C 15.691289 16 15.395694 15.978547 15.09375 15.96875 C 17.598188 13.502682 20.608872 9.4214117 22.125 5.375 C 22.308835 4.9294446 22.337249 5.0071796 22.5 5 z M 16 10 C 16.449052 10 16.881197 10.011862 17.3125 10.03125 C 15.561452 12.580064 13.601703 14.769339 12.34375 15.75 C 10.895055 15.551457 9.5906713 15.248886 8.5625 14.875 C 7.643947 14.540975 6.9513329 14.173647 6.53125 13.8125 C 6.1111671 13.451353 6 13.180664 6 13 A 1.0001 1.0001 0 0 0 6 12.90625 C 6.0309627 12.729412 6.171756 12.496558 6.53125 12.1875 C 6.9513329 11.826353 7.643947 11.459025 8.5625 11.125 C 10.399606 10.456951 13.060772 10 16 10 z M 22.78125 10.9375 C 23.782912 11.246904 24.614646 11.597133 25.15625 11.96875 C 25.820184 12.424303 26 12.780748 26 13 A 1.0001221 1.0001221 0 0 0 26 13.0625 C 25.979025 13.241444 25.84844 13.486079 25.46875 13.8125 C 25.048667 14.173647 24.356053 14.540975 23.4375 14.875 C 22.607395 15.176861 21.584984 15.432021 20.46875 15.625 C 20.866989 14.378252 21.654729 12.668284 22.78125 10.9375 z M 25.6875 16.0625 C 25.599599 16.519712 25.522702 16.98384 25.375 17.46875 C 25.340716 17.573004 25.31742 17.680685 25.28125 17.78125 C 25.25686 17.85456 25.213515 17.926612 25.1875 18 C 24.933463 18.662867 24.639098 19.251533 24.34375 19.75 C 23.467459 21.228941 22.436907 22.07204 22.40625 22.09375 C 21.695172 22.597547 20.534186 23.395929 18.53125 23.78125 C 18.419713 23.801735 18.302673 23.826058 18.1875 23.84375 C 17.54298 23.947792 16.818162 24 16 24 C 15.680057 24 15.388572 23.985813 15.09375 23.96875 C 14.964237 23.961475 14.844324 23.947884 14.71875 23.9375 C 14.265601 23.900163 13.859642 23.851537 13.46875 23.78125 C 13.15976 23.724502 12.875843 23.670814 12.59375 23.59375 C 12.401758 23.543873 12.235709 23.492994 12.0625 23.4375 C 11.300683 23.182045 10.634636 22.856661 10.0625 22.46875 C 9.9406487 22.378201 9.8284404 22.295263 9.75 22.21875 L 9.71875 22.1875 C 9.550871 22.019621 9.327339 21.845652 8.96875 21.4375 C 8.610161 21.029348 8.1572785 20.434087 7.71875 19.6875 C 7.2268145 18.849989 6.7336513 17.807432 6.40625 16.53125 C 6.3713759 16.377948 6.3415282 16.243073 6.3125 16.09375 C 6.7785539 16.357505 7.303491 16.573426 7.875 16.78125 C 10.019144 17.560951 12.864228 18 16 18 C 19.135772 18 21.980856 17.560951 24.125 16.78125 C 24.702421 16.571276 25.217754 16.329599 25.6875 16.0625 z" overflow="visible" font-family="Bitstream Vera Sans" fill="#000000"/></svg>
