<?xml version="1.0" encoding="utf-8"?>
<svg xmlns="http://www.w3.org/2000/svg" viewBox="0 0 32 32" fill="#000000"><path d="M 17 3 L 17 5 L 21 5 L 21 3 L 17 3 z M 21 5 L 21 11 L 23 11 L 23 13 L 25 13 L 25 9 L 23 9 L 23 5 L 21 5 z M 25 13 L 25 17 L 27 17 L 27 13 L 25 13 z M 25 17 L 21 17 L 21 19 L 25 19 L 25 17 z M 21 17 L 21 15 L 19 15 L 19 17 L 21 17 z M 19 17 L 17 17 L 17 19 L 19 19 L 19 17 z M 17 19 L 15 19 L 15 21 L 17 21 L 17 19 z M 15 21 L 13 21 L 13 23 L 15 23 L 15 21 z M 13 23 L 11 23 L 11 25 L 13 25 L 13 23 z M 11 25 L 9 25 L 9 27 L 11 27 L 11 25 z M 9 27 L 7 27 L 7 25 L 5 25 L 5 27 L 5 29 L 7 29 L 9 29 L 9 27 z M 7 25 L 9 25 L 9 23 L 7 23 L 7 25 z M 9 23 L 11 23 L 11 21 L 9 21 L 9 23 z M 11 21 L 13 21 L 13 19 L 11 19 L 11 21 z M 13 19 L 15 19 L 15 17 L 13 17 L 13 19 z M 15 17 L 17 17 L 17 15 L 19 15 L 19 13 L 13 13 L 13 15 L 15 15 L 15 17 z M 13 13 L 13 9 L 11 9 L 11 13 L 13 13 z M 13 9 L 15 9 L 15 7 L 13 7 L 13 9 z M 15 7 L 17 7 L 17 5 L 15 5 L 15 7 z" fill="#000000"/></svg>
