<?xml version="1.0" encoding="utf-8"?>
<svg xmlns="http://www.w3.org/2000/svg" viewBox="0 0 32 32" fill="#000000"><path style="text-indent:0;text-align:start;line-height:normal;text-transform:none;block-progression:tb;-inkscape-font-specification:Sans" d="M 5 5 L 5 27 L 9 27 L 19.96875 27 L 17.96875 25 L 11 25 L 11 18 L 14.15625 18 L 13.75 16.125 L 13.75 16 L 9 16 L 9 25 L 7 25 L 7 7 L 10 7 L 10 12 L 10 13 L 11 13 L 21 13 L 22 13 L 22 12 L 22 7.40625 L 25 10.40625 L 25 17.96875 L 27 19.96875 L 27 9.59375 L 22.40625 5 L 22 5 L 10 5 L 5 5 z M 12 7 L 16 7 L 16 9 L 18 9 L 18 7 L 20 7 L 20 11 L 12 11 L 12 7 z M 15.71875 15.71875 L 16.03125 17.1875 L 16.71875 20.6875 L 16.78125 21 L 17 21.21875 L 26.90625 31.09375 C 28.059803 32.247303 29.940197 32.247303 31.09375 31.09375 C 32.247303 29.940197 32.247303 28.059803 31.09375 26.90625 L 21.21875 17 L 21 16.78125 L 20.6875 16.71875 L 17.1875 16.03125 L 15.71875 15.71875 z M 18.28125 18.28125 L 20 18.625 L 29.6875 28.3125 C 30.133947 28.758947 30.133947 29.241053 29.6875 29.6875 C 29.241053 30.133947 28.758947 30.133947 28.3125 29.6875 L 28.25 29.625 L 18.625 20 L 18.28125 18.28125 z" overflow="visible" font-family="Sans" fill="#000000"/></svg>
