<?xml version="1.0" encoding="utf-8"?>
<svg xmlns="http://www.w3.org/2000/svg" viewBox="0 0 32 32" fill="#000000"><path style="text-indent:0;text-align:start;line-height:normal;text-transform:none;block-progression:tb;-inkscape-font-specification:Bitstream Vera Sans" d="M 10 4 C 8.0555556 4 6.4375 5.15625 6.4375 5.15625 L 7.5625 6.84375 C 7.5625 6.84375 8.9444444 6 10 6 C 10.771368 6 11.546708 6.3823787 12 6.625 L 12 9 L 12 10 L 13 10 L 13 11 L 9 11 L 8 11 L 8 12 L 8 27 L 8 28 L 9 28 L 23 28 L 24 28 L 24 27 L 24 12 L 24 11 L 23 11 L 19 11 L 19 10 L 20 10 L 20 9 L 20 6 L 20 5 L 19 5 L 13.3125 5 C 12.808898 4.6917476 11.520655 4 10 4 z M 14 7 L 18 7 L 18 8 L 14 8 L 14 7 z M 15 10 L 17 10 L 17 11 L 15 11 L 15 10 z M 10 13 L 13 13 L 19 13 L 22 13 L 22 16 L 20.8125 16 C 20.394282 14.844255 19.292018 14 18 14 C 16.707982 14 15.605718 14.844255 15.1875 16 L 10 16 L 10 13 z M 18 16 C 18.564128 16 19 16.435872 19 17 C 19 17.564128 18.564128 18 18 18 C 17.435872 18 17 17.564128 17 17 C 17 16.435872 17.435872 16 18 16 z M 10 18 L 15.1875 18 C 15.605718 19.155745 16.707982 20 18 20 C 19.292018 20 20.394282 19.155745 20.8125 18 L 22 18 L 22 26 L 10 26 L 10 18 z M 14 21 C 13.447715 21 13 21.447715 13 22 C 13 22.552285 13.447715 23 14 23 C 14.552285 23 15 22.552285 15 22 C 15 21.447715 14.552285 21 14 21 z" fill="#000000"/></svg>
