<?xml version="1.0" encoding="utf-8"?>
<svg xmlns="http://www.w3.org/2000/svg" viewBox="0 0 32 32" fill="#000000"><path style="text-indent:0;text-align:start;line-height:normal;text-transform:none;block-progression:tb;-inkscape-font-specification:Bitstream Vera Sans" d="M 6 3 L 6 4 L 6 10 L 8 10 L 8 5 L 24 5 L 24 10 L 26 10 L 26 4 L 26 3 L 25 3 L 7 3 L 6 3 z M 7 12 L 7 13 L 7 20 L 9 20 L 9 15.34375 L 9.1875 15.59375 L 10 16.65625 L 10.8125 15.59375 L 11 15.34375 L 11 20 L 13 20 L 13 13 L 13 12 L 12 12 L 11.5 12 L 11 12 L 10.6875 12.40625 L 10 13.3125 L 9.3125 12.40625 L 9 12 L 8.5 12 L 8 12 L 7 12 z M 15 12 L 15 13 L 15 20 L 17 20 L 17 18 C 18.645455 18 20 16.645455 20 15 C 20 13.354545 18.645455 12 17 12 L 16 12 L 15 12 z M 23.5 12 C 22.116667 12 21 13.116667 21 14.5 L 21 17.5 C 21 18.883333 22.116667 20 23.5 20 L 25 20 L 26 20 L 26 19 L 26 17 L 26 16 L 25 16 L 24 16 L 24 17 L 24 18 L 23.5 18 C 23.283333 18 23 17.716667 23 17.5 L 23 14.5 C 23 14.283333 23.283333 14 23.5 14 C 23.716667 14 24 14.283333 24 14.5 L 24 15 L 26 15 L 26 14.5 C 26 13.116667 24.883333 12 23.5 12 z M 17 14 C 17.554545 14 18 14.445455 18 15 C 18 15.554545 17.554545 16 17 16 L 17 14 z M 6 22 L 6 28 L 6 29 L 7 29 L 25 29 L 26 29 L 26 28 L 26 22 L 24 22 L 24 27 L 8 27 L 8 22 L 6 22 z" overflow="visible" font-family="Bitstream Vera Sans" fill="#000000"/></svg>
