<?xml version="1.0" encoding="utf-8"?>
<svg xmlns="http://www.w3.org/2000/svg" viewBox="-7 9 32 32" fill="#000000"><path style="text-indent:0;text-align:start;line-height:normal;text-transform:none;block-progression:tb;-inkscape-font-specification:Sans" d="M 23 3 C 21.718253 3 20.440862 3.496638 19.46875 4.46875 C 18.699363 5.2372638 18.179736 6.2400152 17.6875 7.25 L 15.71875 5.28125 L 15.40625 5 L 15 5 L 11 5 L 10.59375 5 L 10.28125 5.28125 L 3.28125 12.28125 L 2.59375 13 L 3.28125 13.71875 L 18.28125 28.71875 L 19 29.40625 L 19.71875 28.71875 L 26.71875 21.71875 L 27 21.40625 L 27 21 L 27 17 L 27 16.59375 L 26.71875 16.28125 L 23.71875 13.28125 C 24.725248 12.819232 25.727914 12.333713 26.53125 11.53125 C 28.475474 9.587026 28.475474 6.412974 26.53125 4.46875 C 25.559138 3.496638 24.281747 3 23 3 z M 23 5 C 23.767556 5 24.535112 5.285112 25.125 5.875 C 26.304776 7.054776 26.304776 8.945224 25.125 10.125 C 24.550288 10.699088 23.454317 11.200951 22.21875 11.78125 L 19.15625 8.71875 C 19.748825 7.5206295 20.331421 6.417962 20.875 5.875 C 21.464888 5.285112 22.232444 5 23 5 z M 13.4375 7 L 14.5625 7 L 25 17.4375 L 25 18.5625 L 13.4375 7 z M 11 7.4375 L 24.5625 21 L 19 26.5625 L 5.4375 13 L 11 7.4375 z M 11 10 C 10.73875 10 10.47125 10.09625 10.28125 10.28125 C 10.10125 10.47125 10 10.74 10 11 C 10 11.26 10.10125 11.52875 10.28125 11.71875 C 10.47125 11.89875 10.74 12 11 12 C 11.26 12 11.52875 11.89875 11.71875 11.71875 C 11.89875 11.52875 12 11.26 12 11 C 12 10.74 11.89875 10.47125 11.71875 10.28125 C 11.53375 10.09625 11.26125 10 11 10 z M 13.5 12.5 C 13.2425 12.5 12.97625 12.58625 12.78125 12.78125 C 12.39125 13.17125 12.39125 13.82875 12.78125 14.21875 C 12.98125 14.40875 13.24 14.5 13.5 14.5 C 13.76 14.5 14.01875 14.40875 14.21875 14.21875 C 14.60875 13.82875 14.60875 13.17125 14.21875 12.78125 C 14.02375 12.58625 13.7575 12.5 13.5 12.5 z M 10 13 C 9.74 13 9.47125 13.09625 9.28125 13.28125 C 9.10125 13.47125 9 13.74 9 14 C 9 14.26 9.10125 14.52875 9.28125 14.71875 C 9.47125 14.89875 9.74 15 10 15 C 10.26 15 10.52875 14.89875 10.71875 14.71875 C 10.89875 14.52875 11 14.26 11 14 C 11 13.74 10.89875 13.47125 10.71875 13.28125 C 10.52875 13.09625 10.26 13 10 13 z M 16 15 C 15.7425 15 15.47625 15.08625 15.28125 15.28125 C 14.89125 15.67125 14.89125 16.32875 15.28125 16.71875 C 15.48125 16.90875 15.74 17 16 17 C 16.26 17 16.51875 16.90875 16.71875 16.71875 C 17.10875 16.32875 17.10875 15.67125 16.71875 15.28125 C 16.52375 15.08625 16.2575 15 16 15 z M 12.65625 15.65625 C 12.40125 15.65625 12.16375 15.77375 11.96875 15.96875 C 11.57875 16.35775 11.57875 16.985 11.96875 17.375 C 12.15875 17.574 12.39625 17.65625 12.65625 17.65625 C 12.90625 17.65625 13.185 17.574 13.375 17.375 C 13.775 16.985 13.775 16.35875 13.375 15.96875 C 13.18 15.77375 12.91125 15.65625 12.65625 15.65625 z M 18.5 17.5 C 18.24375 17.5 17.97625 17.58575 17.78125 17.78125 C 17.39025 18.17125 17.39025 18.81875 17.78125 19.21875 C 17.98125 19.40775 18.24 19.5 18.5 19.5 C 18.75 19.5 19.01875 19.40775 19.21875 19.21875 C 19.60875 18.81875 19.60875 18.17125 19.21875 17.78125 C 19.01875 17.58575 18.75625 17.5 18.5 17.5 z M 15.34375 18.34375 C 15.08875 18.34375 14.82 18.435 14.625 18.625 C 14.235 19.024 14.235 19.64025 14.625 20.03125 C 14.815 20.22025 15.09375 20.34375 15.34375 20.34375 C 15.60375 20.34375 15.84125 20.22025 16.03125 20.03125 C 16.42125 19.64025 16.42125 19.024 16.03125 18.625 C 15.83625 18.435 15.59875 18.34375 15.34375 18.34375 z M 21 20 C 20.73875 20 20.46625 20.09625 20.28125 20.28125 C 20.10025 20.47025 20 20.74 20 21 C 20 21.26 20.10025 21.52875 20.28125 21.71875 C 20.47025 21.89875 20.74 22 21 22 C 21.26 22 21.52875 21.89875 21.71875 21.71875 C 21.89875 21.52875 22 21.26 22 21 C 22 20.74 21.89875 20.47025 21.71875 20.28125 C 21.52875 20.09625 21.26125 20 21 20 z M 18 21 C 17.73875 21 17.46625 21.09625 17.28125 21.28125 C 17.10025 21.47025 17 21.74 17 22 C 17 22.26 17.10025 22.52875 17.28125 22.71875 C 17.47025 22.89875 17.74 23 18 23 C 18.26 23 18.52875 22.89875 18.71875 22.71875 C 18.89875 22.52875 19 22.26 19 22 C 19 21.74 18.89875 21.47025 18.71875 21.28125 C 18.52875 21.09625 18.26125 21 18 21 z" transform="translate(-7 9)" fill="#000000"/></svg>
