<?xml version="1.0" encoding="utf-8"?>
<svg xmlns="http://www.w3.org/2000/svg" viewBox="0 0 32 32" fill="#000000"><path d="M 4 8 L 4 24 L 5 24 C 14.571 24 16 18.988 16 16 C 16 15.084 15.83475 13.69975 15.09375 12.34375 C 14.48175 12.65475 13.96175 13.1775 13.59375 13.8125 C 13.84775 14.4425 14 15.159 14 16 C 14 19.752 11.31 21.75075 6 21.96875 L 6 10.03125 C 6.9 10.07125 7.8135 10.15875 8.6875 10.34375 C 9.0935 9.72475 9.56875 9.16425 10.09375 8.65625 C 8.72675 8.25325 7.06 8 5 8 L 4 8 z M 16.5 8 C 12.364 8 9 11.589 9 16 C 9 17.181 9.2545 18.3025 9.6875 19.3125 C 10.5055 18.9885 11.034 18.58525 11.375 18.15625 C 11.139 17.48825 11 16.758 11 16 C 11 12.691 13.467 10 16.5 10 C 16.557 10 16.60025 9.998 16.65625 10 C 16.94925 9.339 17.363 8.695 17.875 8.125 C 17.429 8.037 16.97 8 16.5 8 z M 23 8 C 19.095 8 18.022 11.262 18 13 C 18 13.203625 18.016602 13.396496 18.03125 13.5625 C 18.040526 13.649235 18.048959 13.729904 18.0625 13.8125 C 18.072013 13.875147 18.081992 13.943709 18.09375 14 C 18.109525 14.07471 18.136975 14.147513 18.15625 14.21875 C 18.203125 14.368276 18.248678 14.500772 18.3125 14.59375 C 18.653024 15.455574 19.244358 16.058086 19.96875 16.46875 C 19.98475 16.31375 20 16.155 20 16 L 20 13 C 20.001 12.92275 20.005984 12.703203 20.0625 12.40625 C 20.232047 11.515391 20.84075 10 23 10 C 25.788 10 25.988 12.496 26 13 L 28 13 C 27.978 11.275 26.905 8 23 8 z M 22.65625 12 C 22.299813 12.046875 21.89 12.25 21.875 13 L 21.875 14.75 C 21.915 14.954 21.9475 15.133125 21.96875 15.34375 C 21.992726 15.557802 22 15.778376 22 16 C 22 16.2075 21.991375 16.4245 21.96875 16.625 C 21.965609 16.656307 21.97234 16.687592 21.96875 16.71875 C 21.947245 16.8876 21.906723 17.053368 21.875 17.21875 C 21.829791 17.448959 21.786859 17.686179 21.71875 17.90625 C 21.72175 18.15925 21.871 19.84875 23 19.96875 C 23.504168 19.036634 23.820506 17.99203 23.9375 16.875 C 23.970375 16.5885 24 16.296 24 16 C 24 15.893 24.004 15.7925 24 15.6875 C 23.989939 15.684777 23.978796 15.690203 23.96875 15.6875 C 23.918341 14.350263 23.59468 13.091173 23 12 C 22.913 12 22.775063 11.984375 22.65625 12 z M 25.96875 16.4375 C 25.93575 17.1985 25.822 17.9555 25.625 18.6875 C 25.872 18.9975 25.999 19.37925 26 19.90625 C 25.964 20.25525 25.6655 21.999 23.0625 22 C 22.809 21.985375 20.937718 21.811883 20.25 20.28125 C 20.197099 20.163507 20.162793 20.040738 20.125 19.90625 C 20.049414 19.637275 20 19.342625 20 19 L 18 19 C 18 22.290875 20.481074 23.577004 22.28125 23.90625 C 22.538418 23.953285 22.77975 23.989375 23 24 C 26.715 24 27.893 21.434 28 20 C 28 18.116 27.10475 17.0735 25.96875 16.4375 z M 16 21.96875 C 15.529 22.55675 14.963 23.117 14.25 23.625 C 14.959 23.862 15.719 24 16.5 24 C 16.99 24 17.4735 23.93975 17.9375 23.84375 C 17.4155 23.32975 16.96 22.724 16.625 22 C 16.582 22.001 16.543 22 16.5 22 C 16.334 22 16.162 21.98475 16 21.96875 z" fill="#000000"/></svg>
