<?xml version="1.0" encoding="utf-8"?>
<svg xmlns="http://www.w3.org/2000/svg" viewBox="0 0 32 32" fill="#000000"><path style="text-indent:0;text-align:start;line-height:normal;text-transform:none;block-progression:tb;-inkscape-font-specification:Sans" d="M 11.875 4 L 11.875 6 C 13.363908 6 14.518114 6.2153328 15.3125 6.4375 C 13.446814 8.5577314 11.36923 11.394122 10.46875 16.5625 C 8.8106135 16.974903 7.3704373 17.56735 6.25 18.34375 C 4.9422385 19.249955 4 20.507439 4 21.96875 C 4 22.959734 4.4452187 23.857067 5.125 24.59375 C 5.8047813 25.330433 6.7296105 25.941173 7.8125 26.4375 C 9.9782791 27.430154 12.838659 28 16 28 C 19.161341 28 22.021721 27.430154 24.1875 26.4375 C 25.27039 25.941173 26.195219 25.330433 26.875 24.59375 C 27.554781 23.857067 28 22.959734 28 21.96875 C 28 20.305744 26.809202 18.952632 25.1875 18 C 23.843021 17.210217 22.106869 16.628543 20.15625 16.28125 C 20.379252 12.63412 21.030816 9.464546 22.6875 6.75 C 24.096901 6.1706045 24.911224 6 27 6 L 27 4 C 24.643696 4 23.360758 4.2236455 21.5625 5 L 21.28125 5.125 L 21.125 5.375 C 18.423647 9.5910709 18 14.50963 18 20.125 L 18 21 L 18.875 21.125 C 18.875 21.125 19.817499 21.236609 20.71875 21.5 C 21.15871 21.628578 21.570019 21.821137 21.8125 21.96875 C 21.588246 22.11302 21.194117 22.28114 20.65625 22.4375 C 19.520433 22.767687 17.854452 23 16 23 L 16 25 C 18.011548 25 19.821067 24.781313 21.21875 24.375 C 21.917591 24.171844 22.536875 23.933554 23.03125 23.59375 C 23.525625 23.253946 24 22.714459 24 21.96875 C 24 21.136238 23.417025 20.570384 22.90625 20.25 C 22.395475 19.929616 21.830625 19.754305 21.28125 19.59375 C 20.658493 19.411749 20.473849 19.382381 20.0625 19.3125 C 20.06584 18.969173 20.085964 18.647911 20.09375 18.3125 C 21.739608 18.637673 23.140089 19.12183 24.15625 19.71875 C 25.445548 20.476118 26 21.295756 26 21.96875 C 26 22.370266 25.83975 22.780214 25.40625 23.25 C 24.97275 23.719786 24.282735 24.208952 23.375 24.625 C 21.559529 25.457096 18.913659 26 16 26 C 13.086341 26 10.440471 25.457096 8.625 24.625 C 7.7172645 24.208952 7.0272499 23.719786 6.59375 23.25 C 6.1602501 22.780214 6 22.370266 6 21.96875 C 6 21.377061 6.3835115 20.687045 7.375 20 C 8.0726843 19.516545 9.0423892 19.066106 10.1875 18.71875 C 10.167269 18.925423 10.141735 19.130547 10.125 19.34375 C 9.8910106 19.449453 9.8072127 19.462824 9.46875 19.6875 C 8.8429687 20.102903 8 20.800207 8 21.96875 C 8 22.886368 8.6790856 23.450317 9.34375 23.8125 C 10.008414 24.174683 10.841432 24.428003 11.8125 24.625 L 12.1875 22.65625 C 11.344568 22.485247 10.694336 22.239317 10.3125 22.03125 C 10.158081 21.947105 10.103769 21.90565 10.0625 21.875 C 10.122483 21.766564 10.25428 21.5796 10.5625 21.375 C 10.959219 21.111653 11.375 20.9375 11.375 20.9375 L 12 20.71875 L 12.03125 20.0625 C 12.500794 12.018035 15.304169 9.3650737 17.75 6.65625 L 18.625 5.71875 L 17.46875 5.125 C 17.46875 5.125 15.271183 4 11.875 4 z M 16.125 10.53125 C 14.379428 13.82152 14 17.567857 14 22 L 16 22 C 16 17.682143 16.370572 14.30448 17.875 11.46875 L 16.125 10.53125 z" overflow="visible" font-family="Sans" fill="#000000"/></svg>
