<?xml version="1.0" encoding="utf-8"?>
<svg xmlns="http://www.w3.org/2000/svg" viewBox="0 0 32 32" fill="#000000"><path style="text-indent:0;text-align:start;line-height:normal;text-transform:none;block-progression:tb;-inkscape-font-specification:Bitstream Vera Sans" d="M 20 4 C 18.645 4 17.52825 4.891 17.15625 6.125 C 18.23525 7.004 18.91175 8.3265 18.96875 9.8125 C 19.28775 9.9275 19.64 10 20 10 C 21.657 10 23 8.657 23 7 C 23 5.343 21.657 4 20 4 z M 20.03125 5.3125 L 20.4375 5.3125 L 20.4375 8.46875 L 19.75 8.46875 L 19.75 6.15625 C 19.75 6.15625 19.43675 6.34375 19.09375 6.34375 L 19.09375 5.78125 C 19.49375 5.70925 19.86125 5.4945 20.03125 5.3125 z M 14 6 C 11.791 6 10 7.791 10 10 C 10 12.209 11.791 14 14 14 C 16.209 14 18 12.209 18 10 C 18 7.791 16.209 6 14 6 z M 12.90625 7.46875 L 15.4375 7.46875 L 15.4375 8.3125 L 13.71875 8.3125 L 13.65625 9.28125 C 13.82825 9.26825 13.96875 9.25 14.09375 9.25 C 15.39775 9.25 15.65625 10.2505 15.65625 10.6875 C 15.65525 11.3795 15.2835 12.34375 13.8125 12.34375 C 13.3515 12.34375 12.97025 12.263 12.65625 12.125 L 12.65625 11.21875 C 12.98425 11.41975 13.3175 11.53125 13.6875 11.53125 C 14.3745 11.53125 14.59375 11.00825 14.59375 10.78125 C 14.59375 10.30625 14.26475 10.0625 13.59375 10.0625 C 13.34675 10.0625 13.04175 10.087 12.71875 10.125 L 12.90625 7.46875 z M 26.5 15 C 26.005804 15 25.830104 15.175559 25.625 15.28125 C 25.419896 15.386941 25.20199 15.488942 24.96875 15.59375 C 24.502271 15.803366 23.913715 16 23 16 L 5 16 L 4 16 L 4 17 L 4 20 L 4 21 L 5 21 L 23 21 C 24.574611 21 25.845009 20.398219 26.6875 19.59375 C 27.529991 18.789281 28 17.842163 28 16.875 C 28 16.542988 27.960285 16.204548 27.78125 15.84375 C 27.602215 15.482952 27.12098 15 26.5 15 z M 25.6875 17.4375 C 25.578425 17.691605 25.587077 17.894065 25.3125 18.15625 C 24.819991 18.626531 24.081389 19 23 19 L 17 19 L 17 18 L 23 18 C 24.169445 18 25.049416 17.713157 25.6875 17.4375 z M 6 18 L 13 18 L 13 19 L 6 19 L 6 18 z M 26.5 22 C 26.005804 22 25.830104 22.175559 25.625 22.28125 C 25.419896 22.386941 25.20199 22.488942 24.96875 22.59375 C 24.502271 22.803366 23.913715 23 23 23 L 5 23 L 4 23 L 4 24 L 4 27 L 4 28 L 5 28 L 23 28 C 24.574611 28 25.845009 27.398219 26.6875 26.59375 C 27.529991 25.789281 28 24.842163 28 23.875 C 28 23.542988 27.960285 23.204548 27.78125 22.84375 C 27.602215 22.482952 27.12098 22 26.5 22 z M 25.6875 24.4375 C 25.578425 24.691605 25.587077 24.894065 25.3125 25.15625 C 24.819991 25.626531 24.081389 26 23 26 L 17 26 L 17 25 L 23 25 C 24.169445 25 25.049416 24.713157 25.6875 24.4375 z M 6 25 L 13 25 L 13 26 L 6 26 L 6 25 z" overflow="visible" font-family="Bitstream Vera Sans" fill="#000000"/></svg>
