<?xml version="1.0" encoding="utf-8"?>
<svg xmlns="http://www.w3.org/2000/svg" viewBox="0 0 32 32" fill="#000000"><path style="text-indent:0;text-align:start;line-height:normal;text-transform:none;block-progression:tb;-inkscape-font-specification:Sans" d="M 15 3 C 13.906937 3 13 3.9069372 13 5 L 8 5 L 7 5 L 7 6 L 7 27 L 7 28 L 8 28 L 24 28 L 25 28 L 25 27 L 25 6 L 25 5 L 24 5 L 19 5 C 19 3.9069372 18.093063 3 17 3 L 15 3 z M 15 5 L 17 5 L 17 7 L 15 7 L 15 5 z M 9 7 L 13 7 L 13 8 L 13 9 L 14 9 L 18 9 L 19 9 L 19 8 L 19 7 L 23 7 L 23 26 L 9 26 L 9 7 z M 16 11 C 13.802706 11 12 12.802706 12 15 C 12 16.114227 12.475261 17.116062 13.21875 17.84375 C 11.88816 18.744728 11 20.281553 11 22 L 13 22 C 13 20.331516 14.331516 19 16 19 C 17.668484 19 19 20.331516 19 22 L 21 22 C 21 20.281553 20.11184 18.744728 18.78125 17.84375 C 19.524739 17.116062 20 16.114227 20 15 C 20 12.802706 18.197294 11 16 11 z M 16 13 C 17.116414 13 18 13.883586 18 15 C 18 16.116414 17.116414 17 16 17 C 14.883586 17 14 16.116414 14 15 C 14 13.883586 14.883586 13 16 13 z" overflow="visible" font-family="Sans" fill="#000000"/></svg>
