<?xml version="1.0" encoding="utf-8"?>
<svg xmlns="http://www.w3.org/2000/svg" viewBox="0 0 32 32" fill="#000000"><path style="line-height:normal;text-indent:0;text-align:start;text-decoration-line:none;text-decoration-style:solid;text-decoration-color:#000;text-transform:none;block-progression:tb;isolation:auto;mix-blend-mode:normal" d="M 5 5 L 5 6 L 5 27 L 27 27 L 27 5 L 5 5 z M 7 7 L 13 7 L 13 10 L 7 10 L 7 7 z M 15 7 L 21 7 L 21 10 L 15 10 L 15 7 z M 23 7 L 25 7 L 25 10 L 23 10 L 23 7 z M 7 12 L 9 12 L 9 15 L 7 15 L 7 12 z M 11 12 L 17 12 L 17 15 L 11 15 L 11 12 z M 19 12 L 25 12 L 25 15 L 19 15 L 19 12 z M 7 17 L 13 17 L 13 20 L 11 20 L 9 20 L 7 20 L 7 17 z M 15 17 L 21 17 L 21 20 L 19 20 L 17 20 L 15 20 L 15 17 z M 23 17 L 25 17 L 25 20 L 23 20 L 23 17 z M 7 22 L 9 22 L 9 25 L 7 25 L 7 22 z M 11 22 L 17 22 L 17 25 L 11 25 L 11 22 z M 19 22 L 25 22 L 25 25 L 19 25 L 19 22 z" fill="#000000"/></svg>
