<?xml version="1.0" encoding="utf-8"?>
<svg xmlns="http://www.w3.org/2000/svg" viewBox="0 0 32 32" fill="#000000"><path style="text-indent:0;text-align:start;line-height:normal;text-transform:none;block-progression:tb;-inkscape-font-specification:Bitstream Vera Sans" d="M 16 3 C 15.229668 3 14.456943 3.2930571 13.875 3.875 L 13.75 4.03125 L 4.03125 13.75 L 3.875 13.875 C 2.7111141 15.038886 2.7111141 16.961114 3.875 18.125 L 13.875 28.125 C 15.039431 29.287942 16.961323 29.288677 18.125 28.125 L 28.125 18.125 C 29.288886 16.961114 29.288886 15.038886 28.125 13.875 L 18.125 3.875 C 17.543057 3.2930571 16.770332 3 16 3 z M 16 5 C 16.254168 5 16.518693 5.081193 16.71875 5.28125 L 26.71875 15.28125 C 27.118864 15.681364 27.118864 16.318636 26.71875 16.71875 L 16.71875 26.71875 C 16.320427 27.117073 15.680819 27.117808 15.28125 26.71875 L 5.28125 16.71875 C 4.8811359 16.318636 4.8811359 15.681364 5.28125 15.28125 L 15.28125 5.28125 C 15.481307 5.0811929 15.745832 5 16 5 z M 14 7.5 C 13.8 7.5 13.60625 10.79375 13.90625 11.09375 C 14.20625 11.39375 15.90625 13.40625 15.90625 13.40625 L 16.1875 14.34375 C 16.10643 14.379469 16.045 14.42875 16 14.40625 C 15.8 14.30625 15.09375 13.70625 14.59375 13.40625 C 14.09375 13.10625 12.8875 13.00625 12.6875 13.40625 C 12.4875 13.70625 12.9875 14.7 13.6875 15 C 14.3875 15.3 14.8125 15.09375 14.8125 15.09375 C 14.8125 15.09375 12.9875 18.6125 10.6875 18.8125 L 14.6875 23 C 16.6875 22 17 18.8125 17 18.8125 C 17 18.8125 17.69375 19.49375 19.59375 19.09375 C 20.09375 18.99375 20.5875 19.59375 21.1875 19.09375 C 21.6875 18.59375 22 18.7 22 18.5 C 22 18.4 22.2125 17.7 21.8125 17.5 C 20.6125 16.8 19 14.6125 18 14.3125 C 17.812647 14.240441 17.655618 14.184448 17.5 14.15625 L 17 12.6875 C 17 12.6875 17.7 10.29375 17.5 10.09375 C 17.3 9.89375 16.7 12.50625 16.5 12.40625 C 16.3 12.20625 16.0125 12.0125 15.8125 11.8125 C 15.6125 11.6125 15.8875 8.19375 15.6875 8.09375 C 15.4875 7.99375 15.09375 11.40625 15.09375 11.40625 L 14.40625 10.6875 C 14.00625 10.2875 14.2 7.5 14 7.5 z" overflow="visible" font-family="Bitstream Vera Sans" fill="#000000"/></svg>
