<?xml version="1.0" encoding="utf-8"?>
<svg xmlns="http://www.w3.org/2000/svg" viewBox="0 0 32 32" fill="#000000"><path style="text-indent:0;text-align:start;line-height:normal;text-transform:none;block-progression:tb;-inkscape-font-specification:Sans" d="M 7.96875 3.96875 L 3.96875 6.5 L 3.96875 8.84375 L 7.96875 6.34375 L 16.96875 12 L 16.96875 26 L 3.96875 26 L 3.96875 28 L 17.96875 28 L 18.96875 28 L 18.96875 27 L 18.96875 13.15625 L 20 11.53125 L 7.96875 3.96875 z M 24 11 L 24 21.28125 C 23.403151 21.629936 23 22.268327 23 23 C 23 24.092725 23.907275 25 25 25 C 26.092725 25 27 24.092725 27 23 C 27 22.268327 26.596849 21.629936 26 21.28125 L 26 20 L 28 20 L 28 18 L 26 18 L 26 17 L 28 17 L 28 15 L 26 15 L 26 14 L 28 14 L 28 12 L 26 12 L 26 11 L 24 11 z M 8 16 L 8 21 L 13 21 L 13 16 L 8 16 z" fill="#000000"/></svg>
