<?xml version="1.0" encoding="utf-8"?>
<svg xmlns="http://www.w3.org/2000/svg" viewBox="0 0 32 32" fill="#000000"><path style="text-indent:0;text-align:start;line-height:normal;text-transform:none;block-progression:tb;-inkscape-font-specification:Sans" d="M 18.5 4 C 16.731398 4 15.254901 5.3511214 15.03125 7.0625 C 14.851409 7.0337282 14.68208 6.9999965 14.5 7 C 13.61054 7.0000169 12.739344 7.3646487 12.0625 8.03125 L 12.03125 8 L 6.65625 13.1875 L 6.59375 13.21875 L 6.625 13.25 C 5.6098004 14.100241 5 15.329593 5 16.65625 L 5 28 L 7 28 L 7 16.65625 C 7 15.908489 7.3248523 15.190289 7.90625 14.71875 L 7.9375 14.71875 L 7.96875 14.6875 L 13.4375 9.46875 L 13.4375 9.4375 C 14.031208 8.8437917 14.967596 8.8432046 15.5625 9.4375 C 15.9214 9.796033 15.958917 9.9656255 16 10.3125 C 16.04108 10.659374 16 11.211527 16 12 L 16 17 L 16 17.40625 L 16.28125 17.71875 L 20.28125 21.71875 L 21.71875 20.28125 L 18 16.5625 L 18 12 C 18 11.639936 18.022091 11.304372 18.03125 10.96875 C 18.188915 10.990826 18.336623 11 18.5 11 C 20.421152 11 22 9.4211519 22 7.5 C 22 5.5788481 20.421152 4 18.5 4 z M 18.5 6 C 19.340272 6 20 6.6597281 20 7.5 C 20 8.3402719 19.340272 9 18.5 9 C 18.047736 9 17.647941 8.8075259 17.375 8.5 C 17.336516 8.4463336 17.292099 8.396354 17.25 8.34375 C 17.089721 8.1046955 17 7.815102 17 7.5 C 17 6.6597281 17.659728 6 18.5 6 z M 22 11 C 21.447715 11 21 11.447715 21 12 C 21 12.552285 21.447715 13 22 13 C 22.552285 13 23 12.552285 23 12 C 23 11.447715 22.552285 11 22 11 z M 15 11.59375 L 9 17.59375 L 9 28 L 11 28 L 11 18.40625 L 15 14.40625 L 15 11.59375 z M 19 14 L 19 15 L 19 16 L 19 16.40625 L 19.28125 16.71875 L 23.28125 20.71875 L 23.59375 21 L 24 21 L 27 21 L 27 19 L 24.4375 19 L 21.4375 16 L 27 16 L 27 14 L 20 14 L 19 14 z" overflow="visible" font-family="Sans" fill="#000000"/></svg>
