<?xml version="1.0" encoding="utf-8"?>
<svg xmlns="http://www.w3.org/2000/svg" viewBox="0 0 32 32" fill="#000000"><path style="text-indent:0;text-align:start;line-height:normal;text-transform:none;block-progression:tb;-inkscape-font-specification:Bitstream Vera Sans" d="M 16 4 C 14.354545 4 13 5.3545455 13 7 C 13 8.2590405 13.890389 9.1518398 15 9.59375 L 15 10.8125 L 5.71875 14.5625 L 5.71875 14.59375 C 4.6278492 15.061279 4 16.106548 4 17.1875 C 4 18.720833 5.2791667 20 6.8125 20 L 7 20 L 7 18 L 6.8125 18 C 6.3458333 18 6 17.654167 6 17.1875 C 6 16.8833 6.1851897 16.580849 6.46875 16.4375 C 6.48259 16.4305 6.485615 16.41241 6.5 16.40625 L 16 12.59375 L 25.5 16.40625 L 25.53125 16.4375 C 25.81481 16.580849 26 16.8833 26 17.1875 C 26 17.654167 25.654167 18 25.1875 18 L 25 18 L 25 20 L 25.1875 20 C 26.720833 20 28 18.720833 28 17.1875 C 28 16.106548 27.372151 15.061279 26.28125 14.59375 L 26.28125 14.5625 L 17 10.8125 L 17 9 A 1.0001 1.0001 0 0 0 16 8 C 15.445455 8 15 7.5545455 15 7 C 15 6.4454545 15.445455 6 16 6 C 16.554545 6 17 6.4454545 17 7 L 19 7 C 19 5.3545455 17.645455 4 16 4 z M 8 17 L 8 18 L 8 27 L 8 28 L 9 28 L 23 28 L 24 28 L 24 27 L 24 18 L 24 17 L 23 17 L 9 17 L 8 17 z M 10 19 L 22 19 L 22 26 L 10 26 L 10 19 z" overflow="visible" font-family="Bitstream Vera Sans" fill="#000000"/></svg>
