<?xml version="1.0" encoding="utf-8"?>
<svg xmlns="http://www.w3.org/2000/svg" viewBox="0 0 32 32" fill="#000000"><path style="text-indent:0;text-align:start;line-height:normal;text-transform:none;block-progression:tb;-inkscape-font-specification:Bitstream Vera Sans" d="M 5 5 L 5 6 L 5 26 L 5 27 L 6 27 L 17 27 C 23.063407 27 28 22.063407 28 16 C 28 9.9365932 23.063407 5 17 5 L 6 5 L 5 5 z M 7 7 L 17 7 C 21.982593 7 26 11.017407 26 16 C 26 20.982593 21.982593 25 17 25 L 12 25 L 12 22 L 17 22 C 20.301625 22 23 19.301625 23 16 C 23 12.698375 20.301625 10 17 10 L 11 10 L 10 10 L 10 11 L 10 25 L 7 25 L 7 7 z M 12 12 L 17 12 C 19.220375 12 21 13.779625 21 16 C 21 18.220375 19.220375 20 17 20 L 12 20 L 12 12 z" overflow="visible" font-family="Bitstream Vera Sans" fill="#000000"/></svg>
