<?xml version="1.0" encoding="utf-8"?>
<svg xmlns="http://www.w3.org/2000/svg" viewBox="0 0 32 32" fill="#000000"><path style="text-indent:0;text-align:start;line-height:normal;text-transform:none;block-progression:tb;-inkscape-font-specification:Sans" d="M 15.96875 3.96875 C 9.3532836 3.96875 3.96875 9.3532836 3.96875 15.96875 C 3.96875 22.584216 9.3532836 27.96875 15.96875 27.96875 C 22.584216 27.96875 27.96875 22.584216 27.96875 15.96875 C 27.96875 9.3532836 22.584216 3.96875 15.96875 3.96875 z M 15.96875 5.96875 C 20.684443 5.96875 24.624998 9.2109404 25.6875 13.59375 C 25.596241 13.766417 25.4665 13.90625 25.1875 13.90625 C 22.9155 13.90625 21.17875 6.34375 14.84375 6.34375 C 13.989825 6.3435269 13.255704 6.4296458 12.59375 6.5625 C 13.650009 6.1842964 14.780262 5.96875 15.96875 5.96875 z M 11.65625 8 C 14.76525 8 17.349 11.30575 19.5 13.21875 C 21.506706 15.001764 24.023954 17.067293 25.875 17.34375 C 25.793545 17.94244 25.650836 18.50277 25.46875 19.0625 C 23.157277 18.916083 20.729717 17.574283 18.25 15.9375 C 14.87 13.7095 11.85325 11.03125 9.65625 11.03125 C 8.1388634 11.03125 7.0368403 12.155558 6.46875 12.875 C 7.0438552 11.107133 8.0893188 9.5546806 9.46875 8.375 C 9.9482901 8.1797388 10.634069 8 11.65625 8 z M 8.03125 19.40625 C 9.86425 19.40625 13.1465 22.625 20.4375 22.625 C 21.881416 22.625 23.159635 22.279153 23.90625 22.03125 C 23.269351 22.866117 22.521289 23.589455 21.65625 24.1875 C 20.86474 24.401706 19.794215 24.59375 18.40625 24.59375 C 15.33725 24.59375 13.7855 23.625 12.3125 23.625 C 11.333894 23.625 11.374703 24.386582 11.5 24.90625 C 9.4008243 23.860507 7.7181154 22.12939 6.78125 19.96875 C 6.9905983 19.681603 7.3604191 19.40625 8.03125 19.40625 z" overflow="visible" font-family="Sans" fill="#000000"/></svg>
