<?xml version="1.0" encoding="utf-8"?>
<svg xmlns="http://www.w3.org/2000/svg" viewBox="0 0 32 32" fill="#000000"><path d="M 15.875 4 L 15.78125 4.03125 L 4.78125 6.46875 L 4 6.65625 L 4 7.4375 L 4 24.5625 L 4 25.34375 L 4.78125 25.53125 L 15.78125 27.96875 L 15.875 28 L 16 28 L 17 28 L 18 28 L 18 27 L 18 24.8125 C 18.314 24.9235 18.647 25 19 25 C 20.548047 25 21.807906 23.817812 21.96875 22.3125 C 23.441258 21.617381 24.617381 20.441258 25.3125 18.96875 C 26.81771 18.807889 28 17.54791 28 16 C 28 14.45209 26.81771 13.192111 25.3125 13.03125 C 24.617381 11.558742 23.441258 10.382619 21.96875 9.6875 C 21.807906 8.1821878 20.548047 7 19 7 C 18.647 7 18.314 7.0755 18 7.1875 L 18 5 L 18 4 L 17 4 L 16 4 L 15.875 4 z M 16 6.03125 L 16 25.96875 L 6 23.78125 L 6 8.21875 L 16 6.03125 z M 11.15625 11 C 10.64325 11 10.1475 11.04625 9.6875 11.15625 C 9.2285 11.26625 8.85 11.4545 8.5 11.6875 C 8.152 11.9215 7.85825 12.2005 7.65625 12.5625 C 7.45525 12.9245 7.375 13.371 7.375 13.875 C 7.375 14.519 7.53525 15.07625 7.90625 15.53125 C 8.27825 15.98525 8.83875 16.34125 9.59375 16.65625 C 9.89075 16.77725 10.1815 16.91425 10.4375 17.03125 C 10.6945 17.14825 10.90675 17.28025 11.09375 17.40625 C 11.28075 17.53225 11.42225 17.6635 11.53125 17.8125 C 11.63925 17.9615 11.71875 18.1245 11.71875 18.3125 C 11.71875 18.4515 11.65975 18.5685 11.59375 18.6875 C 11.52775 18.8065 11.4495 18.912 11.3125 19 C 11.1755 19.088 10.98525 19.16875 10.78125 19.21875 C 10.57625 19.26875 10.3365 19.28125 10.0625 19.28125 C 9.5945 19.28125 9.1465 19.19525 8.6875 19.03125 C 8.2285 18.86725 7.79725 18.6405 7.40625 18.3125 L 7.40625 20.46875 C 7.75625 20.64875 8.17825 20.785 8.65625 20.875 C 9.13625 20.966 9.62525 21 10.15625 21 C 10.67225 21 11.159 20.94275 11.625 20.84375 C 12.089 20.74475 12.525 20.602 12.875 20.375 C 13.226 20.149 13.4835 19.83475 13.6875 19.46875 C 13.8915 19.10175 14 18.663 14 18.125 C 14 17.733 13.9295 17.39075 13.8125 17.09375 C 13.6945 16.79875 13.5325 16.5415 13.3125 16.3125 C 13.0915 16.0825 12.83925 15.8695 12.53125 15.6875 C 12.22325 15.5045 11.887 15.31825 11.5 15.15625 C 11.217 15.04025 10.94375 14.9225 10.71875 14.8125 C 10.49375 14.7025 10.31325 14.614 10.15625 14.5 C 9.99825 14.384 9.86625 14.253 9.78125 14.125 C 9.69625 13.996 9.65625 13.8495 9.65625 13.6875 C 9.65625 13.5385 9.70525 13.40025 9.78125 13.28125 C 9.85825 13.16325 9.95475 13.05375 10.09375 12.96875 C 10.23175 12.88375 10.39175 12.82925 10.59375 12.78125 C 10.79575 12.73425 11.03425 12.71875 11.28125 12.71875 C 11.46225 12.71875 11.64475 12.724 11.84375 12.75 C 12.04275 12.777 12.26575 12.819 12.46875 12.875 C 12.67275 12.931 12.83925 13.00875 13.03125 13.09375 C 13.22325 13.17875 13.4005 13.263 13.5625 13.375 L 13.5625 11.375 C 13.2335 11.249 12.888 11.15475 12.5 11.09375 C 12.11 11.03275 11.66025 11 11.15625 11 z M 21.5 11.6875 C 22.256202 12.124255 22.875745 12.743798 23.3125 13.5 C 22.514495 14.039122 22 14.964466 22 16 C 22 17.035534 22.514495 17.960878 23.3125 18.5 C 22.875745 19.256202 22.256202 19.875745 21.5 20.3125 C 20.960908 19.514502 20.035625 19 19 19 C 18.647 19 18.314 19.0755 18 19.1875 L 18 12.8125 C 18.314 12.9245 18.647 13 19 13 C 20.035625 13 20.960908 12.485498 21.5 11.6875 z" fill="#000000"/></svg>
