<?xml version="1.0" encoding="utf-8"?>
<svg xmlns="http://www.w3.org/2000/svg" viewBox="0 0 32 32" fill="#000000"><path style="text-indent:0;text-align:start;line-height:normal;text-transform:none;block-progression:tb;-inkscape-font-specification:Bitstream Vera Sans" d="M 7 4 L 7 5 L 7 12 L 7 13 L 8 13 L 24 13 L 25 13 L 25 12 L 25 5 L 25 4 L 24 4 L 8 4 L 7 4 z M 9 6 L 23 6 L 23 11 L 9 11 L 9 6 z M 10 14 L 10 17 L 8 17 L 7 17 L 7 18 L 7 27 L 7 28 L 8 28 L 24 28 L 25 28 L 25 27 L 25 18 L 25 17 L 24 17 L 22 17 L 22 14 L 20 14 L 20 17 L 18 17 L 18 14 L 14 14 L 14 17 L 12 17 L 12 14 L 10 14 z M 9 19 L 23 19 L 23 26 L 9 26 L 9 19 z" overflow="visible" font-family="Bitstream Vera Sans" fill="#000000"/></svg>
