<?xml version="1.0" encoding="utf-8"?>
<svg xmlns="http://www.w3.org/2000/svg" viewBox="0 0 32 32" fill="#000000"><path style="line-height:normal;text-indent:0;text-align:start;text-decoration-line:none;text-decoration-style:solid;text-decoration-color:#000;text-transform:none;block-progression:tb;isolation:auto;mix-blend-mode:normal" d="M 20 3 C 15.054545 3 11 7.0545455 11 12 C 11 12.518104 11.08288 12.973172 11.154297 13.431641 L 3 21.585938 L 3 29 L 10 29 L 10 26 L 13 26 L 13 23 L 16 23 L 16 20.017578 C 16.28048 20.154475 16.572824 20.279786 16.869141 20.398438 C 16.318543 21.48277 16 22.704466 16 24 C 16 28.406433 19.593567 32 24 32 C 28.406433 32 32 28.406433 32 24 C 32 20.873614 30.18732 18.164443 27.5625 16.849609 C 28.466158 15.446979 29 13.78188 29 12 C 29 7.0545455 24.945455 3 20 3 z M 20 5 C 23.854545 5 27 8.1454545 27 12 C 27 13.559127 26.483277 14.995038 25.613281 16.162109 C 25.092155 16.054743 24.55212 16 24 16 C 21.629358 16 19.500291 17.046123 18.033203 18.693359 C 17.510697 18.541924 17.007754 18.355199 16.578125 18.121094 L 16.355469 18 L 14 18 L 14 21 L 11 21 L 11 24 L 8 24 L 8 27 L 5 27 L 5 22.414062 L 13.271484 14.142578 L 13.185547 13.634766 C 13.08555 13.034766 13 12.488889 13 12 C 13 8.1454545 16.145455 5 20 5 z M 22 8 A 2 2 0 0 0 20 10 A 2 2 0 0 0 22 12 A 2 2 0 0 0 24 10 A 2 2 0 0 0 22 8 z M 24 18 C 27.325553 18 30 20.674447 30 24 C 30 27.325553 27.325553 30 24 30 C 20.674447 30 18 27.325553 18 24 C 18 20.674447 20.674447 18 24 18 z M 21.707031 20.292969 L 20.292969 21.707031 L 22.585938 24 L 20.292969 26.292969 L 21.707031 27.707031 L 24 25.414062 L 26.292969 27.707031 L 27.707031 26.292969 L 25.414062 24 L 27.707031 21.707031 L 26.292969 20.292969 L 24 22.585938 L 21.707031 20.292969 z" font-weight="400" font-family="sans-serif" white-space="normal" overflow="visible" fill="#000000"/></svg>
