<?xml version="1.0" encoding="utf-8"?>
<svg xmlns="http://www.w3.org/2000/svg" viewBox="0 0 32 32" fill="#000000"><path style="text-indent:0;text-align:start;line-height:normal;text-transform:none;block-progression:tb;-inkscape-font-specification:Sans" d="M 16 2 L 13.59375 6.375 L 12 4 L 8.625 11.65625 C 8.5653407 11.623371 8.4888563 11.598288 8.4375 11.5625 C 8.0793226 11.312901 8 11.042136 8 11 L 6 11 C 6 11.05733 5.918885 11.315468 5.5625 11.5625 C 5.2061149 11.809532 4.636638 12 4 12 C 3.3665518 12 2.7956774 11.812099 2.4375 11.5625 C 2.0793226 11.312901 2 11.042136 2 11 L 0 11 C 0 11.941864 0.58867738 12.683099 1.3125 13.1875 C 2.0363226 13.691901 2.9614482 14 4 14 C 5.035362 14 5.9618851 13.690468 6.6875 13.1875 C 6.8001837 13.109392 6.895686 13.026988 7 12.9375 C 7.1012319 13.023981 7.2036063 13.111617 7.3125 13.1875 C 7.4637969 13.292932 7.6444152 13.381492 7.8125 13.46875 L 7.8125 13.5 C 8.0175854 13.603977 8.240773 13.676267 8.46875 13.75 C 8.4918955 13.757581 8.5078925 13.774005 8.53125 13.78125 C 8.9213637 13.901392 9.3443176 13.981135 9.78125 14 L 9.78125 13.96875 C 9.8560982 13.972015 9.9238992 14 10 14 C 11.035362 14 11.961885 13.690468 12.6875 13.1875 C 12.800184 13.109392 12.895686 13.026988 13 12.9375 C 13.101232 13.023981 13.203606 13.111617 13.3125 13.1875 C 14.036323 13.691901 14.961448 14 16 14 C 17.035362 14 17.961885 13.690468 18.6875 13.1875 C 18.800184 13.109392 18.895686 13.026988 19 12.9375 C 19.101232 13.023981 19.203606 13.111617 19.3125 13.1875 C 20.036323 13.691901 20.961448 14 22 14 C 22.226709 14 22.440945 13.965963 22.65625 13.9375 C 22.75209 13.925513 22.843894 13.923354 22.9375 13.90625 C 23.031291 13.888307 23.127689 13.86682 23.21875 13.84375 C 23.30481 13.822755 23.38517 13.806539 23.46875 13.78125 C 23.548586 13.756464 23.610146 13.716133 23.6875 13.6875 C 23.821929 13.639197 23.967552 13.590539 24.09375 13.53125 C 24.298829 13.431502 24.506096 13.313242 24.6875 13.1875 C 24.800184 13.109392 24.895686 13.026988 25 12.9375 C 25.101232 13.023981 25.203606 13.111617 25.3125 13.1875 C 26.036323 13.691901 26.961448 14 28 14 C 29.035362 14 29.961885 13.690468 30.6875 13.1875 C 31.413115 12.684532 32 11.942667 32 11 L 30 11 C 30 11.05733 29.91888 11.315468 29.5625 11.5625 C 29.206115 11.809532 28.636638 12 28 12 C 27.366552 12 26.795677 11.812099 26.4375 11.5625 C 26.079323 11.312901 26 11.042136 26 11 L 24 11 C 24 11.05733 23.91888 11.315468 23.5625 11.5625 C 23.511401 11.59792 23.434431 11.62355 23.375 11.65625 L 21 6 L 19.4375 7.4375 L 16 2 z M 16.1875 5.9375 L 19.0625 10.5625 L 20.3125 9.4375 L 21.34375 11.9375 C 20.98233 11.861149 20.665385 11.721304 20.4375 11.5625 C 20.079323 11.312901 20 11.042136 20 11 L 18 11 C 18 11.05733 17.91888 11.315468 17.5625 11.5625 C 17.206115 11.809532 16.636638 12 16 12 C 15.366552 12 14.795677 11.812099 14.4375 11.5625 C 14.079323 11.312901 14 11.042136 14 11 L 12 11 C 12 11.05733 11.91888 11.315468 11.5625 11.5625 C 11.350271 11.709609 11.051298 11.827537 10.71875 11.90625 L 12.5 8 L 13.90625 10.125 L 16.1875 5.9375 z M 7.03125 15.34375 L 5.84375 18.15625 L 14 29 L 16.25 25.875 L 19.21875 28.90625 L 26.125 18.09375 L 24.9375 15.34375 C 24.3485 15.62275 23.691 15.8395 23 15.9375 L 23.875 17.90625 L 18.8125 25.875 L 16 23 L 14.03125 25.78125 L 8.15625 17.84375 L 8.96875 15.9375 C 8.27875 15.8365 7.61925 15.62375 7.03125 15.34375 z" overflow="visible" font-family="Sans" fill="#000000"/></svg>
