<?xml version="1.0" encoding="utf-8"?>
<svg xmlns="http://www.w3.org/2000/svg" viewBox="0 0 32 32" fill="#000000"><path style="text-indent:0;text-align:start;line-height:normal;text-transform:none;block-progression:tb;-inkscape-font-specification:Bitstream Vera Sans" d="M 16 2.46875 L 15.75 2.53125 C 15.75 2.53125 13.892018 3.0040058 11.71875 3.46875 C 9.5454823 3.9334942 6.9783474 4.375 6 4.375 L 5 4.375 L 5 5.375 L 5 17.25 C 5 21.426387 7.7793251 24.493171 10.40625 26.46875 C 13.033175 28.444329 15.65625 29.4375 15.65625 29.4375 L 16 29.5625 L 16.34375 29.4375 C 16.34375 29.4375 18.965329 28.469213 21.59375 26.5 C 24.222171 24.530787 27 21.451498 27 17.25 L 27 5.375 L 27 4.375 L 26 4.375 C 25.019844 4.375 22.454114 3.9334873 20.28125 3.46875 C 18.108386 3.0040127 16.25 2.53125 16.25 2.53125 L 16 2.46875 z M 16 4.53125 C 16.211466 4.583625 17.799235 4.9622803 19.875 5.40625 C 21.558315 5.7662816 23.167396 6.0175639 24.5625 6.15625 L 7.03125 17.84375 C 7.0144059 17.644262 7 17.455163 7 17.25 L 7 6.21875 C 8.4767214 6.0969308 10.275097 5.801844 12.125 5.40625 C 14.20109 4.9622868 15.788455 4.5836237 16 4.53125 z M 11 8 L 10 9.5 L 11 11 L 12 9.5 L 11 8 z M 25 8.28125 L 25 11.125 L 8.6875 22 C 8.2190943 21.364844 7.8214013 20.671345 7.53125 19.9375 L 25 8.28125 z M 25 13.53125 L 25 17.25 C 25 20.564502 22.777829 23.129463 20.40625 24.90625 C 18.312996 26.474516 16.463783 27.221322 16 27.40625 C 15.538898 27.219947 13.690569 26.451912 11.59375 24.875 C 11.052989 24.468321 10.531711 24.017642 10.03125 23.53125 L 25 13.53125 z M 20 20 L 19 21.5 L 20 23 L 21 21.5 L 20 20 z" overflow="visible" font-family="Bitstream Vera Sans" fill="#000000"/></svg>
