<?xml version="1.0" encoding="utf-8"?>
<svg xmlns="http://www.w3.org/2000/svg" viewBox="0 0 32 32" fill="#000000"><path style="text-indent:0;text-align:start;line-height:normal;text-transform:none;block-progression:tb;-inkscape-font-specification:Sans" d="M 5 4 L 5 6 C 6.88443 6 7.7479103 6.4226151 8.3125 6.96875 C 8.8770897 7.5148849 9.211125 8.34375 9.5625 9.34375 C 9.913875 10.34375 10.295152 11.514885 11.28125 12.46875 C 11.501956 12.682242 11.755101 12.88898 12.03125 13.0625 C 9.6251032 14.444468 8 17.03559 8 20 C 8 24.406433 11.593567 28 16 28 C 20.406433 28 24 24.406433 24 20 C 24 17.03559 22.374897 14.444468 19.96875 13.0625 C 20.244899 12.88898 20.498044 12.682242 20.71875 12.46875 C 21.704848 11.514885 22.086125 10.34375 22.4375 9.34375 C 22.788875 8.34375 23.12291 7.5148849 23.6875 6.96875 C 24.25209 6.4226151 25.11557 6 27 6 L 27 4 C 24.78993 4 23.267348 4.5773849 22.28125 5.53125 C 21.295152 6.4851151 20.913875 7.65625 20.5625 8.65625 C 20.211125 9.65625 19.87709 10.485115 19.3125 11.03125 C 18.74791 11.577385 17.88443 12 16 12 C 14.11557 12 13.25209 11.577385 12.6875 11.03125 C 12.12291 10.485115 11.788875 9.65625 11.4375 8.65625 C 11.086125 7.65625 10.704848 6.4851151 9.71875 5.53125 C 8.7326522 4.5773849 7.21007 4 5 4 z M 16 14 C 19.325553 14 22 16.674447 22 20 C 22 23.325553 19.325553 26 16 26 C 12.674447 26 10 23.325553 10 20 C 10 16.674447 12.674447 14 16 14 z" overflow="visible" font-family="Sans" fill="#000000"/></svg>
