<?xml version="1.0" encoding="utf-8"?>
<svg xmlns="http://www.w3.org/2000/svg" viewBox="0 0 32 32" fill="#000000"><path style="text-indent:0;text-align:start;line-height:normal;text-transform:none;block-progression:tb;-inkscape-font-specification:Sans" d="M 2 6 L 2 7 L 2 25 L 2 26 L 3 26 L 29 26 L 30 26 L 30 25 L 30 7 L 30 6 L 29 6 L 3 6 L 2 6 z M 4 8 L 28 8 L 28 24 L 4 24 L 4 8 z M 9 11 L 9 21 L 11 21 L 11 16.4375 L 13 18.4375 L 13 21 L 15 21 L 15 11 L 13 11 L 13 15.5625 L 11 13.5625 L 11 11 L 9 11 z M 18.6875 11 L 18.46875 11.6875 L 16.0625 18.6875 L 16 18.84375 L 16 19 L 16 21 L 18 21 L 18 20 L 21 20 L 21 21 L 23 21 L 23 19 L 23 18.8125 L 22.9375 18.65625 L 20.4375 11.65625 L 20.21875 11 L 19.5 11 L 19.40625 11 L 18.6875 11 z M 19.46875 14.875 L 20.59375 18 L 18.375 18 L 19.46875 14.875 z" fill="#000000"/></svg>
