<?xml version="1.0" encoding="utf-8"?>
<svg xmlns="http://www.w3.org/2000/svg" viewBox="0 0 32 32" fill="#000000"><path style="text-indent:0;text-align:start;line-height:normal;text-transform:none;block-progression:tb;-inkscape-font-specification:Sans" d="M 16 3 C 13.254545 3 11 5.2545455 11 8 L 11 9 L 7 9 L 6.0625 9 L 6 9.9375 L 5 27.9375 L 4.9375 29 L 6 29 L 26 29 L 27.0625 29 L 27 27.9375 L 26 9.9375 L 25.9375 9 L 25 9 L 21 9 L 21 8 C 21 5.2545455 18.745455 3 16 3 z M 16 5 C 17.654545 5 19 6.3454545 19 8 L 19 9 L 13 9 L 13 8 C 13 6.3454545 14.345455 5 16 5 z M 7.9375 11 L 11 11 L 11 14 L 13 14 L 13 11 L 19 11 L 19 14 L 21 14 L 21 11 L 24.0625 11 L 24.9375 27 L 7.0625 27 L 7.9375 11 z" overflow="visible" font-family="Sans" fill="#000000"/></svg>
