<?xml version="1.0" encoding="utf-8"?>
<svg xmlns="http://www.w3.org/2000/svg" viewBox="0 0 32 32" fill="#000000"><path style="text-indent:0;text-align:start;line-height:normal;text-transform:none;block-progression:tb;-inkscape-font-specification:Bitstream Vera Sans" d="M 21.0625 7 C 20.397366 7.0083373 19.595077 7.0344747 18.8125 7.09375 C 18.029922 7.1530253 17.277994 7.2575241 16.625 7.4375 C 16.298503 7.5274879 15.992735 7.6054859 15.6875 7.8125 C 15.611191 7.8642535 15.516261 7.9221478 15.4375 8 L 3 8 L 2 8 L 2 9 L 2 23 L 2 24 L 3 24 L 23 24 L 24 24 L 24 23 L 24 22.96875 C 24.30866 22.998237 24.637633 23 25 23 L 30 23 L 30 21 L 25 21 C 24.250617 21 23.989523 20.97639 23.65625 20.84375 C 23.75201 20.88214 23.243264 20.63183 22.6875 20.34375 C 22.131736 20.05567 21.39598 19.684177 20.6875 19.3125 C 19.97902 18.940823 19.28178 18.573223 18.71875 18.28125 C 18.15572 17.989277 17.878834 17.81502 17.5625 17.6875 C 17.100477 17.501347 16.876646 17.023782 17.0625 16.5625 C 17.248653 16.100477 17.757468 15.876646 18.21875 16.0625 C 18.459386 16.15933 23.625 18.3125 23.625 18.3125 L 25 18.875 L 25 17.375 L 25 17.1875 L 25 17.09375 L 25 17.03125 L 24 10.84375 L 23.875 10.21875 L 23.28125 10.03125 L 19.875 9.0625 C 20.930233 9.0247226 22.082881 9.0020373 22.46875 9 C 23.449323 8.9946 24.077808 9.244957 24.5625 9.625 C 25.047192 10.005043 25.397724 10.55793 25.6875 11.125 C 26.03768 11.810901 26.479568 12.937357 27.09375 13.9375 C 27.400841 14.437572 27.754908 14.919204 28.21875 15.3125 C 28.682592 15.705796 29.300284 16 30 16 L 30 14 C 29.858216 14 29.715033 13.963579 29.5 13.78125 C 29.284967 13.598921 29.054409 13.268928 28.8125 12.875 C 28.328682 12.087143 27.89357 11.050849 27.46875 10.21875 C 27.108526 9.5138199 26.594558 8.700207 25.78125 8.0625 C 24.967942 7.424793 23.848177 6.9924015 22.46875 7 C 22.255614 7.0011253 21.727634 6.9916627 21.0625 7 z M 4 10 L 15.84375 10 L 22.09375 11.78125 L 22.75 15.78125 C 21.252812 15.161775 19.266553 14.338587 18.96875 14.21875 C 17.504032 13.628604 15.808597 14.348523 15.21875 15.8125 C 14.628604 17.277218 15.348523 18.972653 16.8125 19.5625 C 16.72067 19.52548 17.256655 19.774254 17.8125 20.0625 C 18.368345 20.350746 19.07273 20.722052 19.78125 21.09375 C 20.40068 21.41871 20.979927 21.729145 21.5 22 L 4 22 L 4 10 z M 10 12 C 8.3549901 12 7 13.354991 7 15 C 7 15.679776 7.2373847 16.306923 7.625 16.8125 C 6.6513878 17.54439 6 18.697447 6 20 L 8 20 C 8 18.883334 8.8833339 18 10 18 C 11.116666 18 12 18.883334 12 20 L 14 20 C 14 18.697447 13.348612 17.54439 12.375 16.8125 C 12.762615 16.306924 13 15.679776 13 15 C 13 13.35499 11.64501 12 10 12 z M 10 14 C 10.564128 14 11 14.435872 11 15 C 11 15.564128 10.564128 16 10 16 C 9.4358709 16 9 15.564129 9 15 C 9 14.435871 9.4358709 14 10 14 z" overflow="visible" font-family="Bitstream Vera Sans" fill="#000000"/></svg>
