<?xml version="1.0" encoding="utf-8"?>
<!-- Generator: Adobe Illustrator 19.1.1, SVG Export Plug-In . SVG Version: 6.00 Build 0)  -->
<svg xmlns="http://www.w3.org/2000/svg" xmlns:xlink="http://www.w3.org/1999/xlink" version="1.1" x="0px" y="0px" viewBox="0 0 32 32" style="enable-background:new 0 0 32 32" xml:space="preserve" fill="#000000">
<polyline style="fill:none;stroke:#000000;stroke-width:2;stroke-miterlimit:10" points="18,20 18,19 16.05,13 15.95,13 14,19   14,20 " fill="#000000"/>
<line style="fill:none;stroke:#000000;stroke-width:2;stroke-miterlimit:10" x1="14.391" y1="18" x2="17.609" y2="18" fill="#000000"/>
<path style="fill:none;stroke:#000000;stroke-width:2;stroke-miterlimit:10" d="M8,16h1.5  c0.828,0,1.5-0.672,1.5-1.5v0c0-0.828-0.672-1.5-1.5-1.5H8v7" fill="#000000"/>
<polygon points="10.687,16.018 8.687,16.018 10,20 12,20 " fill="#000000"/>
<path style="fill:none;stroke:#000000;stroke-width:2;stroke-miterlimit:10" d="M21,16h1.5  c0.828,0,1.5-0.672,1.5-1.5v0c0-0.828-0.672-1.5-1.5-1.5H21v7" fill="#000000"/>
<polygon points="23.687,16.018 21.687,16.018 23,20 25,20 " fill="#000000"/>
<polyline style="fill:none;stroke:#000000;stroke-width:2;stroke-miterlimit:10" points="25,22 25,28 7,28 7,22 " fill="#000000"/>
<polyline style="fill:none;stroke:#000000;stroke-width:2;stroke-miterlimit:10" points="7,10 7,4 25,4 25,10 " fill="#000000"/>
</svg>
