<?xml version="1.0" encoding="utf-8"?>
<svg xmlns="http://www.w3.org/2000/svg" viewBox="0 0 32 32" fill="#000000"><path style="text-indent:0;text-align:start;line-height:normal;text-transform:none;block-progression:tb;-inkscape-font-specification:Sans" d="M 6 3 L 6 4 L 6 28 L 6 29 L 7 29 L 25 29 L 26 29 L 26 28 L 26 13.4375 L 27.71875 11.71875 L 28 11.40625 L 28 11 L 28 4 L 28 3 L 27 3 L 7 3 L 6 3 z M 8 5 L 26 5 L 26 10.5625 L 24.28125 12.28125 L 24 12.59375 L 24 13 L 24 27 L 8 27 L 8 5 z M 10 7 L 10 9 L 12 9 L 12 7 L 10 7 z M 20 7 L 20 9 L 22 9 L 22 7 L 20 7 z M 10 11 L 10 13 L 12 13 L 12 11 L 10 11 z M 20 11 L 20 13 L 22 13 L 22 11 L 20 11 z M 10 15 L 10 17 L 12 17 L 12 15 L 10 15 z M 20 15 L 20 17 L 22 17 L 22 15 L 20 15 z M 10 19 L 10 21 L 12 21 L 12 19 L 10 19 z M 20 19 L 20 21 L 22 21 L 22 19 L 20 19 z M 10 23 L 10 25 L 12 25 L 12 23 L 10 23 z M 20 23 L 20 25 L 22 25 L 22 23 L 20 23 z" fill="#000000"/></svg>
