<?xml version="1.0" encoding="utf-8"?>
<svg xmlns="http://www.w3.org/2000/svg" viewBox="0 0 32 32" fill="#000000"><path style="text-indent:0;text-align:start;line-height:normal;text-transform:none;block-progression:tb;-inkscape-font-specification:Sans" d="M 24 6 L 24 7 L 6 7 L 5.4375 7 L 5.15625 7.5 L 3.15625 10.8125 L 3 11.0625 L 3 11.34375 L 3 13 L 4 13 C 4.5833333 13 4.8237533 13.121253 4.9375 13.21875 C 5.0512467 13.31625 5.0891593 13.441206 5.125 13.65625 C 5.196681 14.086338 5.0625 14.6875 5.0625 14.6875 L 5.03125 14.71875 L 2.03125 24.625 L 2 24.78125 L 2 24.90625 L 2 25 L 2 26 L 3 26 L 9 26 L 9.75 26 L 9.96875 25.28125 L 11.90625 19 L 12.96875 19 C 12.96875 19 12.99929 18.999978 13 19 C 13.04794 19.0015 14.672307 19.03192 16.375 18.34375 C 18.103018 17.645343 20 15.96335 20 13 L 28 13 L 29 13 L 29 12 L 30 12 L 30 8 L 29 8 L 29 7 L 28 7 L 27 7 L 27 6 L 24 6 z M 6.53125 9 L 27 9 L 27 11 L 11 11 L 8.28125 11 C 8.74525 11.652 8.9525 12.342 9.0625 13 L 11 13 L 11.625 13 L 8.25 24 L 4.34375 24 L 6.96875 15.28125 L 6.9375 15.28125 C 6.9478507 15.253232 7.3005136 14.396831 7.125 13.34375 C 7.0358407 12.808794 6.7612533 12.183753 6.21875 11.71875 C 5.9474984 11.486249 5.6222912 11.309062 5.25 11.1875 L 6.53125 9 z M 15 13 L 18 13 C 18 15.18665 16.896982 15.985907 15.625 16.5 C 14.353018 17.014093 13.03125 17 13.03125 17 L 13 17 L 12.53125 17 L 13.34375 14.34375 C 13.362276 14.383892 13.354239 14.428379 13.375 14.46875 C 13.749248 15.196505 14.685388 16 16 16 L 16 14 C 15.371612 14 15.296252 13.803495 15.15625 13.53125 C 15.0276 13.281079 15.003071 13.04139 15 13 z" overflow="visible" font-family="Sans" fill="#000000"/></svg>
