<?xml version="1.0" encoding="utf-8"?>
<svg xmlns="http://www.w3.org/2000/svg" viewBox="0 0 32 32" fill="#000000"><path d="M 4 6 L 4 12 L 2 12 L 1 12 L 1 13 L 1 25 L 1 26 L 2 26 L 30 26 L 31 26 L 31 25 L 31 13 L 31 12 L 30 12 L 28 12 L 28 6 L 26 6 L 26 12 L 24 12 L 24 6 L 20 6 L 20 12 L 18 12 L 18 6 L 16 6 L 16 12 L 14 12 L 14 6 L 8 6 L 8 12 L 6 12 L 6 6 L 4 6 z M 3 14 L 29 14 L 29 24 L 3 24 L 3 14 z M 4 15 L 4 22 L 6 22 L 6 15 L 4 15 z M 8 15 L 8 22 L 14 22 L 14 15 L 8 15 z M 16 15 L 16 22 L 18 22 L 18 15 L 16 15 z M 20 15 L 20 22 L 24 22 L 24 15 L 20 15 z M 26 15 L 26 22 L 28 22 L 28 15 L 26 15 z" fill="#000000"/></svg>
