<?xml version="1.0" encoding="utf-8"?>
<svg xmlns="http://www.w3.org/2000/svg" viewBox="0 0 32 32" fill="#000000"><path d="M 16 4 C 9.373 4 4 9.373 4 16 C 4 22.627 9.373 28 16 28 C 22.627 28 28 22.627 28 16 C 28 9.373 22.628 4 16 4 z M 15.21875 4.90625 L 16 7.21875 L 16.78125 4.90625 L 17.90625 5.03125 L 18 8.3125 L 17.15625 8.1875 L 17.0625 6 L 16.3125 8.1875 L 15.6875 8.1875 L 14.9375 6 L 14.84375 8.1875 L 14 8.3125 L 14.09375 5.03125 L 15.21875 4.90625 z M 23.1875 7.4375 L 23.8125 8 L 22.65625 9.5 L 24.5 8.65625 L 25.03125 9.3125 L 23.8125 10.9375 L 25.53125 10.125 L 25.9375 10.84375 L 22.96875 12.21875 L 22.5625 11.5 L 24 9.59375 L 21.8125 10.59375 L 21.21875 10.03125 L 23.1875 7.4375 z M 8.65625 7.8125 C 8.8787656 7.797125 9.1185 7.87225 9.28125 8.03125 C 9.38725 8.13525 9.465 8.26125 9.5 8.40625 C 9.536 8.55425 9.51075 8.69975 9.46875 8.84375 C 9.48875 8.82775 9.51025 8.8275 9.53125 8.8125 C 9.78725 8.6315 10.11625 8.58675 10.40625 8.71875 C 10.69525 8.85075 10.8935 9.09325 10.9375 9.40625 C 10.9485 9.52325 10.94025 9.66725 10.90625 9.78125 C 10.83925 10.00125 10.67225 10.1375 10.53125 10.3125 C 10.25925 10.6525 9.99175 11.00375 9.71875 11.34375 C 9.49175 11.62775 9.25825 11.9035 9.03125 12.1875 C 9.01425 12.2085 9.017 12.229 9 12.25 C 8.996 12.254 8.97275 12.254 8.96875 12.25 C 8.88375 12.182 8.80275 12.09825 8.71875 12.03125 C 8.38675 11.76625 8.04875 11.515 7.71875 11.25 C 7.38375 10.982 7.05275 10.7055 6.71875 10.4375 C 6.63075 10.3665 6.5255 10.28975 6.4375 10.21875 C 6.44875 10.204547 6.4575 10.16975 6.46875 10.15625 C 6.69575 9.87225 6.92825 9.56525 7.15625 9.28125 C 7.42125 8.95025 7.6715 8.6435 7.9375 8.3125 C 7.9875 8.2485 8.04275 8.188 8.09375 8.125 C 8.18275 8.013 8.3045 7.925 8.4375 7.875 C 8.5085 7.8485 8.5820781 7.817625 8.65625 7.8125 z M 8.5 8.65625 C 8.396 8.69925 8.317 8.791 8.25 8.875 C 7.994 9.195 7.756 9.52375 7.5 9.84375 C 7.495 9.84875 7.4365 9.90525 7.4375 9.90625 C 7.4905 9.94825 7.54075 9.98925 7.59375 10.03125 C 7.73175 10.14125 7.862 10.264 8 10.375 C 8.135 10.206 8.27025 10.044 8.40625 9.875 C 8.54125 9.706 8.6775 9.543 8.8125 9.375 C 8.8795 9.291 8.97 9.19975 9 9.09375 C 9.027 8.97375 8.98925 8.841 8.90625 8.75 C 8.80325 8.637 8.642 8.59825 8.5 8.65625 z M 16 9 C 19.866 9 23 12.134 23 16 C 23 19.866 19.866 23 16 23 C 12.134 23 9 19.866 9 16 C 9 12.134 12.134 9 16 9 z M 9.75 9.375 C 9.624 9.378 9.5135 9.4675 9.4375 9.5625 C 9.3325 9.6945 9.231 9.8055 9.125 9.9375 L 8.46875 10.75 C 8.58175 10.84 8.6995 10.94125 8.8125 11.03125 L 9 11.1875 C 9.012 11.1975 9.0505 11.20875 9.0625 11.21875 C 9.3015 10.91975 9.54225 10.6105 9.78125 10.3125 C 9.86825 10.2035 9.94425 10.07775 10.03125 9.96875 C 10.11925 9.85875 10.14775 9.72275 10.09375 9.59375 C 10.02975 9.46075 9.901 9.37 9.75 9.375 z M 16 10 C 12.725 10.085 10.085 12.725 10 16 L 16 16 L 16 10 z M 16 16 L 16 22 C 19.276 21.915 21.915 19.275 22 16 L 16 16 z" fill="#000000"/></svg>
