<?xml version="1.0" encoding="utf-8"?>
<svg xmlns="http://www.w3.org/2000/svg" viewBox="0 0 32 32" fill="#000000"><path d="M 6 3 L 6 4 L 6 10 L 8 10 L 8 5 L 24 5 L 24 10 L 26 10 L 26 4 L 26 3 L 25 3 L 7 3 L 6 3 z M 10 12 L 10 17.5 C 10 17.786937 9.7869372 18 9.5 18 C 9.2130628 18 9 17.786937 9 17.5 L 9 17 L 7 17 L 7 17.5 C 7 18.869063 8.1309372 20 9.5 20 C 10.869063 20 12 18.869063 12 17.5 L 12 12 L 10 12 z M 15.5 12 C 14.130937 12 13 13.130937 13 14.5 L 13 15 L 15 15 L 15 14.5 C 15 14.213063 15.213063 14 15.5 14 C 15.786937 14 16 14.213063 16 14.5 L 16 15.34375 C 16 15.484385 15.94618 15.624908 15.84375 15.71875 L 13.3125 18 L 13 18.3125 L 13 18.75 L 13 19 L 13 20 L 14 20 L 18 20 L 18 18 L 16.3125 18 L 17.1875 17.1875 C 17.705067 16.713342 18 16.043115 18 15.34375 L 18 14.5 C 18 13.130937 16.869063 12 15.5 12 z M 19 12 L 19 20 L 21 20 L 21 18 L 21.125 17.78125 L 22 20 L 24 20 L 22.21875 15.5625 L 24 12 L 22 12 L 21 14 L 21 12 L 19 12 z M 6 22 L 6 28 L 6 29 L 7 29 L 25 29 L 26 29 L 26 28 L 26 22 L 24 22 L 24 27 L 8 27 L 8 22 L 6 22 z" fill="#000000"/></svg>
