<?xml version="1.0" encoding="utf-8"?>
<svg xmlns="http://www.w3.org/2000/svg" viewBox="0 0 32 32" fill="#000000"><path style="text-indent:0;text-align:start;line-height:normal;text-transform:none;block-progression:tb;-inkscape-font-specification:Sans" d="M 16 5 C 11.593562 5 8 8.593562 8 13 L 8 15 L 10 15 L 10 13 C 10 9.674438 12.674438 7 16 7 C 19.325562 7 22 9.674438 22 13 L 22 15 L 24 15 L 24 13 C 24 8.593562 20.406438 5 16 5 z M 5 16 L 5 18 L 27 18 L 27 16 L 5 16 z M 5 19 L 5 21 L 15 21 L 15 19 L 5 19 z M 17 19 L 17 21 L 27 21 L 27 19 L 17 19 z M 5 22 L 5 24 L 15 24 L 15 22 L 5 22 z M 17 22 L 17 24 L 27 24 L 27 22 L 17 22 z M 5 25 L 5 27 L 27 27 L 27 25 L 5 25 z" fill="#000000"/></svg>
