<?xml version="1.0" encoding="utf-8"?>
<svg xmlns="http://www.w3.org/2000/svg" viewBox="0 0 32 32" fill="#000000"><path style="line-height:normal;text-indent:0;text-align:start;text-decoration-line:none;text-decoration-style:solid;text-decoration-color:#000;text-transform:none;block-progression:tb;isolation:auto;mix-blend-mode:normal" d="M 16 3.0058594 C 12.926841 3.0058633 9.8542164 4.1764891 7.515625 6.515625 L 6.9863281 7.0429688 L 12 16.253906 L 12 27 C 12 28.093063 12.906937 29 14 29 L 18 29 C 19.093063 29 20 28.093063 20 27 L 20 16.253906 L 25.013672 7.0429688 L 24.484375 6.515625 C 22.145306 4.1765558 19.073159 3.0058555 16 3.0058594 z M 16 4.9941406 C 18.326086 4.9941442 20.598309 5.9119251 22.472656 7.53125 L 18.40625 15 L 13.59375 15 L 9.5273438 7.53125 C 11.401219 5.9121083 13.674009 4.9941371 16 4.9941406 z M 14 17 L 18 17 L 18 27 L 14 27 L 14 25 L 17 25 L 17 23 L 14 23 L 14 17 z" font-weight="400" font-family="sans-serif" white-space="normal" overflow="visible" fill="#000000"/></svg>
