<?xml version="1.0" encoding="utf-8"?>
<svg xmlns="http://www.w3.org/2000/svg" viewBox="0 0 32 32" fill="#000000"><path d="M 1.9375 4.9375 L 2 6.0625 C 2 6.0625 2.6096457 11.810317 8.5625 14.4375 C 8.3279299 14.802519 8.105263 15.082583 7.875 15.5 C 7.524786 16.134861 7.3165769 16.781937 7.1875 17.46875 C 7.0528902 17.603652 6.8661302 17.756624 6.625 18.21875 C 6.3034931 18.834918 6 19.762678 6 21 C 6 22.307773 6.4276337 23.493792 7.125 24.40625 C 7.8223663 25.318708 8.8327613 26 10 26 C 13.072717 21.876524 8.3806295 20.132989 8.09375 20.03125 C 8.1675486 19.645061 8.2700305 19.357424 8.375 19.15625 C 8.5534931 18.814168 8.625 18.78125 8.625 18.78125 L 9 18.46875 L 9 18 C 9 17.94433 9.2365763 17.172877 9.625 16.46875 C 10.013424 15.764623 10.490881 15.024436 10.8125 14.5625 L 11.59375 13.46875 L 10.3125 13.0625 C 7.1096492 12.008182 5.7156245 10.384009 5.03125 8.96875 L 6.03125 7.96875 C 9.2736426 9.4569786 11.125 12.46875 11.125 12.46875 L 11.65625 13.4375 L 12.53125 12.84375 C 12.53125 12.84375 13.813223 12 16 12 C 18.186777 12 19.46875 12.84375 19.46875 12.84375 L 20.34375 13.4375 L 20.875 12.46875 C 20.875 12.46875 22.726358 9.4569786 25.96875 7.96875 L 26.96875 8.96875 C 26.284376 10.384009 24.890351 12.008182 21.6875 13.0625 L 20.40625 13.46875 L 21.1875 14.5625 C 21.509119 15.024436 21.986576 15.764623 22.375 16.46875 C 22.763424 17.172877 23 17.944333 23 18 L 23 18.46875 L 23.375 18.78125 C 23.375 18.78125 23.44651 18.81417 23.625 19.15625 C 23.729969 19.357424 23.832451 19.645061 23.90625 20.03125 C 23.61937 20.132989 18.927283 21.876524 22 26 C 23.167239 26 24.177634 25.318708 24.875 24.40625 C 25.572366 23.493792 26 22.307773 26 21 C 26 19.762678 25.696507 18.834918 25.375 18.21875 C 25.13387 17.756624 24.94711 17.603652 24.8125 17.46875 C 24.683423 16.781937 24.475214 16.134861 24.125 15.5 C 23.894737 15.082583 23.67207 14.802519 23.4375 14.4375 C 29.390354 11.810317 30 6.0625 30 6.0625 L 30.0625 4.9375 L 28.96875 5 C 23.264751 5.2444711 20.419147 9.6267531 19.71875 10.78125 C 18.985321 10.437367 17.838396 10 16 10 C 14.161604 10 13.014679 10.437367 12.28125 10.78125 C 11.580853 9.6267531 8.7352495 5.2444711 3.03125 5 L 1.9375 4.9375 z M 13 18 C 12.447715 18 12 18.447715 12 19 C 12 19.552285 12.447715 20 13 20 C 13.552285 20 14 19.552285 14 19 C 14 18.447715 13.552285 18 13 18 z M 19 18 C 18.447715 18 18 18.447715 18 19 C 18 19.552285 18.447715 20 19 20 C 19.552285 20 20 19.552285 20 19 C 20 18.447715 19.552285 18 19 18 z M 16 20 C 15.447715 20 15 20.223858 15 20.5 C 15 20.776142 15.447715 21 16 21 C 16.552285 21 17 20.776142 17 20.5 C 17 20.223858 16.552285 20 16 20 z" fill="#000000"/></svg>
