<?xml version="1.0" encoding="utf-8"?>
<svg xmlns="http://www.w3.org/2000/svg" viewBox="0 0 32 32" fill="#000000"><path style="text-indent:0;text-align:start;line-height:normal;text-transform:none;block-progression:tb;-inkscape-font-specification:Bitstream Vera Sans" d="M 8 8 C 5.5824402 8 3.6428584 9.7733385 3.1875 12.0625 C 1.4191536 12.231184 0 13.6903 0 15.5 C 0 17.421188 1.5788117 19 3.5 19 L 12 19 C 14.197334 19 16 17.197334 16 15 C 16 12.988594 14.472289 11.363775 12.53125 11.09375 C 11.770795 9.304945 10.05941 8 8 8 z M 25 8 L 25 10.15625 C 24.630459 10.252311 24.28951 10.370898 23.96875 10.5625 L 22.46875 9.0625 L 21.0625 10.46875 L 22.5625 11.96875 C 22.370898 12.28951 22.252311 12.630459 22.15625 13 L 20 13 L 20 15 L 22.15625 15 C 22.252311 15.369541 22.370898 15.71049 22.5625 16.03125 L 21.0625 17.53125 L 22.46875 18.9375 L 23.96875 17.4375 C 24.28951 17.629102 24.630459 17.747689 25 17.84375 L 25 20 L 27 20 L 27 17.84375 C 27.369541 17.747689 27.71049 17.629102 28.03125 17.4375 L 29.53125 18.9375 L 30.9375 17.53125 L 29.4375 16.03125 C 29.629102 15.71049 29.747689 15.369541 29.84375 15 L 32 15 L 32 13 L 29.84375 13 C 29.747689 12.630459 29.629102 12.28951 29.4375 11.96875 L 30.9375 10.46875 L 29.53125 9.0625 L 28.03125 10.5625 C 27.71049 10.370898 27.369541 10.252311 27 10.15625 L 27 8 L 25 8 z M 8 10 C 9.4085104 10 10.574982 10.950466 10.90625 12.25 L 11.09375 13.0625 L 11.90625 13 C 12.098024 12.9917 12.123213 13 12 13 C 13.116666 13 14 13.883334 14 15 C 14 16.116666 13.116666 17 12 17 L 3.5 17 C 2.6591883 17 2 16.340812 2 15.5 C 2 14.659188 2.6591883 14 3.5 14 C 3.6036358 14 3.7119399 14.01089 3.8125 14.03125 L 5 14.28125 L 5 13.0625 L 5 13 C 5 11.331516 6.3315161 10 8 10 z M 26 12 C 27.116414 12 28 12.883586 28 14 C 28 15.116414 27.116414 16 26 16 C 24.883586 16 24 15.116414 24 14 C 24 12.883586 24.883586 12 26 12 z M 20.03125 20.0625 L 17.5 23.28125 C 17.039147 23.094532 16.525163 23 16 23 C 13.802666 23 12 24.802666 12 27 L 14 27 C 14 25.883334 14.883334 25 16 25 C 17.116666 25 18 25.883334 18 27 L 20 27 C 20 26.050018 19.653853 25.188667 19.09375 24.5 L 21.59375 21.28125 L 20.03125 20.0625 z" fill="#000000"/></svg>
