<?xml version="1.0" encoding="utf-8"?>
<svg xmlns="http://www.w3.org/2000/svg" viewBox="0 0 32 32" fill="#000000"><path style="text-indent:0;text-align:start;line-height:normal;text-transform:none;block-progression:tb;-inkscape-font-specification:Bitstream Vera Sans" d="M 16 2.875 L 15.5625 3.09375 L 13.5625 4.09375 L 13 4.375 L 13 5 L 13 6 L 10 6 L 9 6 L 9 7 L 9 10 L 8 10 L 8 12 L 13 12 L 13 26 L 11 26 L 11 28 L 13 28 L 19 28 L 21 28 L 21 26 L 19 26 L 19 12 L 24 12 L 24 10 L 23 10 L 23 7 L 23 6 L 22 6 L 19 6 L 19 5 L 19 4.375 L 18.4375 4.09375 L 16.4375 3.09375 L 16 2.875 z M 16 5.125 L 17 5.625 L 17 6 L 15 6 L 15 5.625 L 16 5.125 z M 11 8 L 21 8 L 21 10 L 11 10 L 11 8 z M 15.6875 12 L 17 12 L 17 13.3125 L 15.6875 12 z M 15 12.6875 L 17 14.6875 L 17 15.3125 L 15 17.3125 L 15 12.6875 z M 17 16.6875 L 17 21.3125 L 15 19.3125 L 15 18.6875 L 17 16.6875 z M 15 20.6875 L 17 22.6875 L 17 23.3125 L 15 25.3125 L 15 20.6875 z M 17 24.6875 L 17 26 L 15.6875 26 L 17 24.6875 z" fill="#000000"/></svg>
