<?xml version="1.0" encoding="utf-8"?>
<svg xmlns="http://www.w3.org/2000/svg" viewBox="0 0 32 32" fill="#000000"><path d="M 16 4 C 14.078848 4 12.5 5.5788481 12.5 7.5 C 12.5 9.4211519 14.078848 11 16 11 C 17.921152 11 19.5 9.4211519 19.5 7.5 C 19.5 5.5788481 17.921152 4 16 4 z M 16 6 C 16.840272 6 17.5 6.6597281 17.5 7.5 C 17.5 8.3402719 16.840272 9 16 9 C 15.159728 9 14.5 8.3402719 14.5 7.5 C 14.5 6.6597281 15.159728 6 16 6 z M 15.625 12 C 13.335478 12 11.336247 13.560014 10.78125 15.78125 L 10.03125 18.75 L 9.875 19.40625 L 10.40625 19.8125 L 14.40625 22.8125 L 15.59375 21.1875 L 12.125 18.59375 L 12.71875 16.28125 C 13.053753 14.940486 14.242522 14 15.625 14 L 16.375 14 C 17.756231 14 18.945391 14.940071 19.28125 16.28125 L 19.875 18.59375 L 16.40625 21.1875 L 17.59375 22.8125 L 21.59375 19.8125 L 22.125 19.40625 L 21.96875 18.75 L 21.21875 15.78125 C 20.662609 13.560429 18.663769 12 16.375 12 L 15.625 12 z M 5 20 L 5 21 L 5 28 L 7 28 L 7 22 L 9 22 L 9 20 L 6 20 L 5 20 z M 23 20 L 23 22 L 25 22 L 25 28 L 27 28 L 27 21 L 27 20 L 26 20 L 23 20 z M 10.40625 21.40625 C 10.03125 21.93525 9.88175 22.62225 10.09375 23.28125 L 11.625 28 L 13.71875 28 L 12 22.65625 C 11.994 22.63825 11.998 22.61175 12 22.59375 L 10.40625 21.40625 z M 21.59375 21.40625 L 20 22.59375 C 20.002 22.61175 20.006 22.63825 20 22.65625 L 18.28125 28 L 20.375 28 L 21.90625 23.28125 C 22.11825 22.62225 21.96875 21.93525 21.59375 21.40625 z" fill="#000000"/></svg>
