<?xml version="1.0" encoding="utf-8"?>
<svg xmlns="http://www.w3.org/2000/svg" viewBox="0 0 32 32" fill="#000000"><path style="text-indent:0;text-align:start;line-height:normal;text-transform:none;block-progression:tb;-inkscape-font-specification:Bitstream Vera Sans" d="M 4 9 L 4 10 L 4 22 L 4 23 L 5 23 L 9 23 L 10 23 L 10 22 L 10 19 L 12 19 L 12 22 L 12 23 L 13 23 L 17 23 L 18 23 L 18 22 L 18 10 L 18 9 L 17 9 L 13 9 L 12 9 L 12 10 L 12 13 L 10 13 L 10 10 L 10 9 L 9 9 L 5 9 L 4 9 z M 20 9 L 20 11 L 24 11 C 25.116666 11 26 11.883334 26 13 C 26 14.116666 25.116666 15 24 15 L 22 15 L 22 17 L 24 17 C 25.116666 17 26 17.883334 26 19 C 26 20.116666 25.116666 21 24 21 L 20 21 L 20 23 L 24 23 C 26.197334 23 28 21.197334 28 19 C 28 17.79939 27.44043 16.735278 26.59375 16 C 27.44043 15.264722 28 14.20061 28 13 C 28 10.802666 26.197334 9 24 9 L 20 9 z M 6 11 L 8 11 L 8 14 L 8 15 L 9 15 L 13 15 L 14 15 L 14 14 L 14 11 L 16 11 L 16 21 L 14 21 L 14 18 L 14 17 L 13 17 L 9 17 L 8 17 L 8 18 L 8 21 L 6 21 L 6 11 z" overflow="visible" font-family="Bitstream Vera Sans" fill="#000000"/></svg>
