<?xml version="1.0" encoding="utf-8"?>
<svg xmlns="http://www.w3.org/2000/svg" viewBox="0 0 32 32" fill="#000000"><path style="text-indent:0;text-align:start;line-height:normal;text-transform:none;block-progression:tb;-inkscape-font-specification:Sans" d="M 16 3 C 9.6591432 3 4.471487 7.8506117 4 14 C 2.9069372 14 2 14.906937 2 16 L 2 19 C 2 20.082615 2.8897251 20.982892 3.96875 21 L 4 25 L 4 25.53125 L 4.4375 25.84375 C 4.4375 25.84375 9.1703926 29 16 29 C 22.829607 29 27.5625 25.84375 27.5625 25.84375 L 28 25.53125 L 28 25 L 28 21 C 29.093063 21 30 20.093063 30 19 L 30 16 C 30 14.906937 29.093063 14 28 14 L 27.9375 14 C 27.427664 7.892479 22.318376 3 16 3 z M 16 5 C 21.575884 5 26 9.5151936 26 15 L 26 24.375 C 25.417679 24.742707 21.743406 27 16 27 C 10.256594 27 6.5823207 24.742707 6 24.375 L 5.96875 21 L 6 21 L 6 20 L 6 15 L 6 14 C 6.4683834 8.9561247 10.730711 5 16 5 z M 16 8 C 12.751023 8 10.495685 8.7612873 9.03125 10.03125 C 7.5668154 11.301213 7 13.028262 7 14.625 L 7 18.03125 C 7 19.921839 7.9346363 21.564911 9.53125 22.5625 C 11.127864 23.560089 13.311359 24 16 24 C 18.688641 24 20.872136 23.560089 22.46875 22.5625 C 24.065364 21.564911 25 19.921839 25 18.03125 L 25 14.625 C 25 13.045868 24.431225 11.305773 22.96875 10.03125 C 21.506275 8.7567266 19.25124 8 16 8 z M 16 10 C 18.93676 10 20.665725 10.699273 21.65625 11.5625 C 22.646775 12.425727 23 13.491132 23 14.625 L 23 18 L 18 18 A 1.0001 1.0001 0 0 0 17.90625 18 A 1.001098 1.001098 0 0 0 18 20 L 22.40625 20 C 22.158835 20.314904 21.82527 20.58194 21.40625 20.84375 C 20.288864 21.541911 18.455359 22 16 22 C 13.544641 22 11.711136 21.541911 10.59375 20.84375 C 9.4763637 20.145589 9 19.323661 9 18.03125 L 9 14.625 C 9 13.466738 9.3551846 12.388537 10.34375 11.53125 C 11.332315 10.673963 13.060977 10 16 10 z" overflow="visible" font-family="Sans" fill="#000000"/></svg>
