<?xml version="1.0" encoding="utf-8"?>
<svg xmlns="http://www.w3.org/2000/svg" viewBox="0 0 32 32" fill="#000000"><path style="text-indent:0;text-align:start;line-height:normal;text-transform:none;block-progression:tb;-inkscape-font-specification:Bitstream Vera Sans" d="M 25 6 C 22.802706 6 21 7.8027056 21 10 C 21 12.197294 22.802706 14 25 14 C 27.197294 14 29 12.197294 29 10 C 29 7.8027056 27.197294 6 25 6 z M 8.65625 7 C 6.1508718 7 4.2540555 9.325333 4.75 11.78125 L 6.125 19.59375 L 3.09375 26.59375 L 4.90625 27.40625 L 8.0625 20.09375 L 8.1875 19.8125 L 8.125 19.53125 L 6.71875 11.40625 C 6.4646945 10.148167 7.3716282 9 8.65625 9 L 17.46875 9 C 18.526849 9 19.227543 9.9709061 18.875 10.96875 L 18.5 12 L 9.90625 12 L 8.71875 12 L 8.90625 13.15625 L 10 19.84375 L 10 27 L 12 27 L 12 19.6875 L 12 19.625 L 12 19.53125 L 11.0625 14 L 17.8125 14 L 17.09375 16.0625 L 16.875 16.65625 L 17.3125 17.125 L 22.0625 21.875 C 22.243464 22.055965 22.505107 22.15625 22.78125 22.15625 C 23.333534 22.15625 23.78125 21.708534 23.78125 21.15625 C 23.78125 20.880108 23.680965 20.618464 23.5 20.4375 L 24.28125 19.65625 L 25.375 20.75 L 26.78125 19.34375 L 25.6875 18.21875 L 26.34375 17.5625 L 24.9375 16.15625 L 24.28125 16.8125 L 23.21875 15.75 L 21.8125 17.1875 L 22.84375 18.21875 L 22.0625 19 L 19.1875 16.125 L 20.78125 11.65625 C 21.572707 9.4160939 19.844651 7 17.46875 7 L 8.65625 7 z M 25 8 C 26.116414 8 27 8.883586 27 10 C 27 11.116414 26.116414 12 25 12 C 23.883586 12 23 11.116414 23 10 C 23 8.883586 23.883586 8 25 8 z M 18.78125 20.1875 L 17.375 21.625 L 18.4375 22.6875 L 17.6875 23.40625 L 19.09375 24.8125 L 19.8125 24.0625 L 20.9375 25.1875 L 22.34375 23.78125 L 18.78125 20.1875 z" fill="#000000"/></svg>
