<?xml version="1.0" encoding="utf-8"?>
<svg xmlns="http://www.w3.org/2000/svg" viewBox="0 0 32 32" fill="#000000"><path d="M 18.125 5 C 14.820811 5 10.960733 5.5476509 7.96875 8.5625 C 4.9767666 11.577349 3 16.866256 3 26 L 3 27 L 4 27 L 12.65625 27 C 13.64512 27.624629 14.759046 28 16 28 C 17.24015 28 18.354742 27.61707 19.34375 27 L 28 27 L 29 27 L 29 26 C 29 17.874706 27.429684 13.155539 25.375 10.40625 C 23.565932 7.9856096 21.482722 7.3122487 19.9375 7.15625 L 19 5.5 L 18.71875 5 L 18.125 5 z M 17.5625 7.0625 L 18.375 8.5 L 18.65625 9 L 19.25 9 C 20.260707 9 22.097684 9.3410393 23.78125 11.59375 C 25.384608 13.739138 26.801004 17.83027 26.9375 25 L 21.5625 25 C 21.672152 24.859679 21.772928 24.708238 21.875 24.5625 C 23.232638 22.624061 24 20.206716 24 18 L 22 18 C 22 19.722284 21.356112 21.826939 20.25 23.40625 C 19.143888 24.985561 17.664699 26 16 26 C 14.336909 26 12.856619 24.98853 11.75 23.40625 C 10.643381 21.82397 10 19.711045 10 18 C 10 16.796475 10.334241 16.411886 11.03125 16.03125 C 11.728259 15.650614 12.883573 15.445987 14.125 15.28125 C 15.366427 15.116513 16.704341 14.994382 17.875 14.4375 C 19.045659 13.880618 20 12.660378 20 11 L 18 11 C 18 12.044122 17.704341 12.289945 17 12.625 C 16.295659 12.960055 15.133573 13.145487 13.875 13.3125 C 12.616427 13.479513 11.271741 13.637949 10.09375 14.28125 C 8.9157586 14.924551 8 16.235025 8 18 C 8 20.197955 8.7678691 22.59078 10.125 24.53125 C 10.235329 24.689002 10.349573 24.848296 10.46875 25 L 5.0625 25 C 5.2152086 16.863862 7.0091575 12.352673 9.375 9.96875 C 11.695941 7.6300713 14.648747 7.1216678 17.5625 7.0625 z M 11.5625 16.15625 L 10.4375 17.84375 L 12.03125 18.90625 C 12.027703 18.940507 12 18.964805 12 19 C 12 19.552285 12.447715 20 13 20 C 13.552285 20 14 19.552285 14 19 L 14.5625 18.15625 L 11.5625 16.15625 z M 20.4375 16.15625 L 17.4375 18.15625 L 18 19 C 18 19.552285 18.447715 20 19 20 C 19.552285 20 20 19.552285 20 19 C 20 18.964805 19.972297 18.940507 19.96875 18.90625 L 21.5625 17.84375 L 20.4375 16.15625 z M 14.5 21 C 13.675 21 13 21.675 13 22.5 L 13 23.5 C 13 23.783 13.217 24 13.5 24 L 15.875 24 L 18.46875 24 C 18.75275 24 19 23.783 19 23.5 L 19 22.4375 C 19 21.6455 18.3545 21 17.5625 21 L 14.5 21 z" fill="#000000"/></svg>
