<?xml version="1.0" encoding="utf-8"?>
<svg xmlns="http://www.w3.org/2000/svg" viewBox="0 0 32 32" fill="#000000"><path d="M 14.25 3 C 10.272545 3 7 6.2715101 7 10.25 L 7 13.375 L 6.4375 13.09375 L 5.03125 12.40625 L 5 14 C 5 14 4.971928 15.592974 5.375 17.25 C 5.5765357 18.078513 5.8804736 18.920173 6.4375 19.65625 C 6.8491319 20.200197 7.4882926 20.573716 8.21875 20.78125 C 8.4890575 22.87505 9.5764883 24.788898 11 26.21875 C 11.804313 27.026645 12.68715 27.702274 13.53125 28.1875 C 14.37535 28.672726 15.16127 29 16 29 C 16.84246 29 17.624669 28.677644 18.46875 28.1875 C 19.312831 27.697356 20.196239 27.00119 21 26.1875 C 22.41728 24.752712 23.505013 22.836253 23.78125 20.75 C 24.494022 20.54052 25.12803 20.159901 25.53125 19.625 C 26.079834 18.897262 26.385421 18.038706 26.59375 17.21875 C 27.010408 15.578837 27 14 27 14 L 27 12.375 L 25.5625 13.09375 L 25 13.375 L 25 10.25 C 25 6.2717043 21.728296 3 17.75 3 L 14.25 3 z M 14.25 5 L 17.75 5 C 18.929733 5 20.02715 5.3992049 20.90625 6.0625 C 20.622302 6.0177997 20.316595 6 20 6 C 18.115524 6 16.853118 7.3277231 16.125 8.46875 C 16.051499 8.5839325 16.065159 8.5738248 16 8.6875 C 15.937032 8.5798791 15.976697 8.5776535 15.90625 8.46875 C 15.169231 7.3293966 13.884476 6 12 6 C 11.673895 6 11.38524 6.0448979 11.09375 6.09375 C 11.975601 5.4232429 13.0637 5 14.25 5 z M 12 8 C 12.940524 8 13.662019 8.6706034 14.21875 9.53125 C 14.775481 10.391897 15.03125 11.28125 15.03125 11.28125 L 15.25 12 L 16 12 L 16.03125 12 L 16.78125 12 L 17 11.28125 C 17 11.28125 17.264368 10.390223 17.8125 9.53125 C 18.360632 8.6722769 19.059476 8 20 8 C 21.683566 8 22.248394 8.6787882 22.625 9.4375 C 23.001606 10.196212 23 11 23 11 L 23 15 L 23 16.625 L 24.4375 15.90625 L 24.78125 15.75 C 24.72883 16.175903 24.77725 16.242341 24.65625 16.71875 C 24.486454 17.387044 24.230322 18.0178 23.9375 18.40625 C 23.644678 18.7947 23.410249 18.9375 23 18.9375 L 22 18.9375 L 22 19.9375 C 22 21.557409 20.929978 23.39688 19.5625 24.78125 C 18.878761 25.473435 18.134044 26.051175 17.46875 26.4375 C 16.803456 26.823825 16.20754 27 16 27 C 15.78873 27 15.196525 26.81993 14.53125 26.4375 C 13.865975 26.05507 13.089437 25.49873 12.40625 24.8125 C 11.039876 23.440041 10 21.619909 10 20 L 10 19 L 9 19 C 8.5543199 19 8.3255674 18.857673 8.03125 18.46875 C 7.7369326 18.079827 7.4758393 17.421487 7.3125 16.75 C 7.1898914 16.245957 7.2335331 16.163089 7.1875 15.71875 L 7.5625 15.90625 L 9 16.625 L 9 15 L 9 11 C 9 11 9.0183441 10.203734 9.40625 9.4375 C 9.7941559 8.6712661 10.362553 8 12 8 z M 10 15.90625 C 10 17.01125 11.895 19 13 19 C 14.105 19 15 18.105 15 17 L 10 15.90625 z M 22 15.90625 L 17 17 C 17 18.105 17.895 19 19 19 C 20.105 19 22 17.01125 22 15.90625 z M 12 21 L 12 23 L 14 23 L 14 25 L 15.34375 23 L 16.65625 23 L 18 25 L 18 23 L 20 23 L 20 21 L 12 21 z" fill="#000000"/></svg>
