<?xml version="1.0" encoding="utf-8"?>
<svg xmlns="http://www.w3.org/2000/svg" viewBox="0 0 32 32" fill="#000000"><path style="text-indent:0;text-align:start;line-height:normal;text-transform:none;block-progression:tb;-inkscape-font-specification:Bitstream Vera Sans" d="M 11.5 6 L 11.1875 6.40625 L 10 8 L 4 8 L 3 8 L 3 9 L 3 25 L 3 26 L 4 26 L 28 26 L 29 26 L 29 25 L 29 9 L 29 8 L 28 8 L 22 8 L 20.8125 6.40625 L 20.5 6 L 20 6 L 12 6 L 11.5 6 z M 12.5 8 L 19.5 8 L 20.6875 9.59375 L 21 10 L 21.5 10 L 27 10 L 27 24 L 5 24 L 5 10 L 10.5 10 L 11 10 L 11.3125 9.59375 L 12.5 8 z M 16 11 C 13 11 10.59375 13.2 10.09375 16 L 12.09375 16 C 12.49375 14.3 14.1 13 16 13 C 17.302918 13 18.542954 13.662502 19.28125 14.71875 L 18 16 L 22 16 L 22 12 L 20.71875 13.28125 C 19.603767 11.868724 17.890281 11 16 11 z M 10 18 L 10 22 L 11.28125 20.71875 C 12.396233 22.131276 14.109719 23 16 23 C 19 23 21.40625 20.8 21.90625 18 L 19.90625 18 C 19.50625 19.7 17.9 21 16 21 C 14.697082 21 13.457046 20.337498 12.71875 19.28125 L 14 18 L 10 18 z" overflow="visible" font-family="Bitstream Vera Sans" fill="#000000"/></svg>
