<?xml version="1.0" encoding="utf-8"?>
<svg xmlns="http://www.w3.org/2000/svg" viewBox="0 0 32 32" fill="#000000"><path style="line-height:normal;text-indent:0;text-align:start;text-decoration-line:none;text-decoration-style:solid;text-decoration-color:#000;text-transform:none;block-progression:tb;isolation:auto;mix-blend-mode:normal" d="M 16.130859 5 C 9.5870846 5.0000002 4.2597656 10.325365 4.2597656 16.869141 C 4.2597656 23.412916 9.5870846 28.740234 16.130859 28.740234 C 22.674635 28.740234 28 23.412916 28 16.869141 C 28 10.325365 22.674635 5 16.130859 5 z M 4.5117188 5.6074219 C 1.7227706 8.4859233 -5.9211895e-16 12.41716 0 16.738281 C 0 20.398961 1.2358507 23.78203 3.3085938 26.478516 L 4.8945312 25.259766 C 3.0792743 22.898251 2 19.949601 2 16.738281 C 2 12.947403 3.5042137 9.5214986 5.9472656 7 L 4.5117188 5.6074219 z M 27.488281 5.6074219 L 26.052734 7 C 28.495872 9.5215872 30 12.946338 30 16.738281 C 30 19.949601 28.920868 22.897132 27.105469 25.259766 L 28.691406 26.478516 C 30.764007 23.781149 32 20.398961 32 16.738281 C 32 12.416225 30.277143 8.4858347 27.488281 5.6074219 z M 16.130859 7 C 21.593754 7 26 11.406246 26 16.869141 C 26 22.332036 21.593754 26.740234 16.130859 26.740234 C 10.667964 26.740234 6.2597656 22.332036 6.2597656 16.869141 C 6.2597656 11.406246 10.667964 7.0000002 16.130859 7 z M 22.574219 13.152344 C 22.287219 13.152344 22.004656 13.200875 21.722656 13.296875 C 21.439656 13.390875 21.181172 13.536375 20.951172 13.734375 C 20.719172 13.933375 20.533625 14.189 20.390625 14.5 C 20.247625 14.811 20.175781 15.182234 20.175781 15.615234 C 20.175781 15.938234 20.216875 16.217172 20.296875 16.451172 C 20.377875 16.686172 20.490813 16.892359 20.632812 17.068359 C 20.774813 17.244359 20.938953 17.394531 21.126953 17.519531 C 21.313953 17.644531 21.513562 17.756375 21.726562 17.859375 C 22.063563 18.028375 22.320094 18.189844 22.496094 18.339844 C 22.672094 18.489844 22.761719 18.692219 22.761719 18.949219 C 22.761719 19.199219 22.687016 19.39225 22.541016 19.53125 C 22.395016 19.67125 22.214953 19.740234 22.001953 19.740234 C 21.774953 19.740234 21.551078 19.688031 21.330078 19.582031 C 21.110078 19.475031 20.917047 19.334203 20.748047 19.158203 L 19.845703 20.478516 C 20.081703 20.712516 20.390391 20.91675 20.775391 21.09375 C 21.161391 21.26975 21.588594 21.357422 22.058594 21.357422 C 22.372594 21.357422 22.677656 21.304219 22.972656 21.199219 C 23.266656 21.091219 23.526953 20.934609 23.751953 20.724609 C 23.976953 20.515609 24.156062 20.250641 24.289062 19.931641 C 24.422063 19.612641 24.488281 19.243219 24.488281 18.824219 C 24.488281 18.486219 24.434125 18.193266 24.328125 17.947266 C 24.221125 17.701266 24.085828 17.491453 23.923828 17.314453 C 23.760828 17.139453 23.581719 16.988187 23.386719 16.867188 C 23.189719 16.746187 23.003172 16.642688 22.826172 16.554688 C 22.510172 16.392687 22.272328 16.244375 22.111328 16.109375 C 21.950328 15.974375 21.869141 15.784969 21.869141 15.542969 C 21.869141 15.256969 21.948469 15.050781 22.105469 14.925781 C 22.263469 14.799781 22.442625 14.736328 22.640625 14.736328 C 22.831625 14.736328 23.013453 14.778281 23.189453 14.863281 C 23.365453 14.947281 23.520344 15.066703 23.652344 15.220703 L 24.566406 13.927734 C 24.338406 13.687734 24.057703 13.497375 23.720703 13.359375 C 23.382703 13.220375 23.000219 13.152344 22.574219 13.152344 z M 9.671875 13.361328 L 7.7792969 21.148438 L 9.5390625 21.148438 L 9.8574219 19.730469 L 11.607422 19.730469 L 11.925781 21.148438 L 13.763672 21.148438 L 11.882812 13.361328 L 9.671875 13.361328 z M 14.445312 13.361328 L 14.445312 21.150391 L 17.03125 21.150391 C 17.31025 21.150391 17.586328 21.112156 17.861328 21.035156 C 18.135328 20.958156 18.383516 20.832156 18.603516 20.660156 C 18.823516 20.487156 19.000719 20.261516 19.136719 19.978516 C 19.272719 19.696516 19.341797 19.345734 19.341797 18.927734 C 19.341797 18.655734 19.304422 18.413219 19.232422 18.199219 C 19.159422 17.987219 19.063313 17.80625 18.945312 17.65625 C 18.827312 17.50625 18.696781 17.383109 18.550781 17.287109 C 18.404781 17.193109 18.255375 17.125844 18.109375 17.089844 L 18.109375 17.068359 C 18.381375 16.943359 18.611828 16.74375 18.798828 16.46875 C 18.985828 16.19475 19.078125 15.825281 19.078125 15.363281 C 19.078125 14.945281 19.002516 14.605797 18.853516 14.341797 C 18.702516 14.077797 18.515016 13.874469 18.291016 13.730469 C 18.068016 13.587469 17.820828 13.491453 17.548828 13.439453 C 17.276828 13.387453 17.019344 13.361328 16.777344 13.361328 L 14.445312 13.361328 z M 16.083984 14.814453 L 16.677734 14.814453 C 16.905734 14.814453 17.102484 14.875953 17.271484 15.001953 C 17.440484 15.126953 17.525391 15.341531 17.525391 15.644531 C 17.525391 15.954531 17.438625 16.175594 17.265625 16.308594 C 17.092625 16.441594 16.9005 16.507812 16.6875 16.507812 L 16.083984 16.507812 L 16.083984 14.814453 z M 10.716797 15.056641 L 10.759766 15.056641 L 11.386719 18.367188 L 10.056641 18.367188 L 10.716797 15.056641 z M 16.083984 17.794922 L 16.722656 17.794922 C 16.832656 17.794922 16.944594 17.812609 17.058594 17.849609 C 17.172594 17.886609 17.273234 17.944484 17.365234 18.021484 C 17.457234 18.098484 17.530938 18.198313 17.585938 18.320312 C 17.641937 18.441312 17.669922 18.591531 17.669922 18.769531 C 17.669922 19.078531 17.579437 19.310844 17.398438 19.464844 C 17.219438 19.619844 17.000141 19.697266 16.744141 19.697266 L 16.083984 19.697266 L 16.083984 17.794922 z" font-weight="400" font-family="sans-serif" white-space="normal" overflow="visible" fill="#000000"/></svg>
