<?xml version="1.0" encoding="utf-8"?>
<svg xmlns="http://www.w3.org/2000/svg" viewBox="0 0 32 32" fill="#000000"><path d="M 8 4 L 11.8125 13.1875 C 9.5258639 14.598218 8 17.125435 8 20 C 8 24.406433 11.593567 28 16 28 C 20.406433 28 24 24.406433 24 20 C 24 17.125435 22.474136 14.598218 20.1875 13.1875 L 24 4 L 22 4 L 18.5 12.40625 C 17.923005 12.215494 17.313442 12.085302 16.6875 12.03125 L 20 4 L 18 4 L 14.59375 12.125 C 14.224447 12.191643 13.850056 12.290521 13.5 12.40625 L 10 4 L 8 4 z M 12 4 L 14.46875 9.90625 L 15.46875 7.5 L 14 4 L 12 4 z M 16 14 C 19.325553 14 22 16.674447 22 20 C 22 23.325553 19.325553 26 16 26 C 12.674447 26 10 23.325553 10 20 C 10 16.674447 12.674447 14 16 14 z M 16 16 C 15.135706 16 14.414031 16.153703 13.84375 16.59375 C 13.273469 17.033797 13 17.751711 13 18.375 L 15 18.375 C 15 18.189289 15.000031 18.235703 15.0625 18.1875 C 15.124969 18.139297 15.395294 18 16 18 C 16.582015 18 16.830306 18.122328 16.90625 18.1875 C 16.982194 18.252672 17 18.299768 17 18.5 C 17 18.786937 16.786937 19 16.5 19 L 16 19 L 16 21 L 16.5 21 C 16.786937 21 17 21.213063 17 21.5 C 17 21.750554 16.98135 21.772915 16.9375 21.8125 C 16.89365 21.852085 16.656473 22 16 22 C 15.322615 22 15.05929 21.86651 15.03125 21.84375 C 15.00321 21.82099 15 21.862215 15 21.625 L 13 21.625 C 13 22.196785 13.20779 22.90951 13.78125 23.375 C 14.35471 23.84049 15.083385 24 16 24 C 16.937527 24 17.7236 23.815915 18.28125 23.3125 C 18.8389 22.809085 19 22.077446 19 21.5 C 19 20.937817 18.788328 20.420058 18.46875 20 C 18.788328 19.579942 19 19.062183 19 18.5 C 19 17.872232 18.744306 17.165328 18.1875 16.6875 C 17.630694 16.209672 16.886985 16 16 16 z" fill="#000000"/></svg>
