<?xml version="1.0" encoding="utf-8"?>
<svg xmlns="http://www.w3.org/2000/svg" viewBox="0 0 32 32" fill="#000000"><path style="text-indent:0;text-align:start;line-height:normal;text-transform:none;block-progression:tb;-inkscape-font-specification:Sans" d="M 8.96875 4 L 10.28125 5.625 C 10.28125 5.625 10.884462 6.3792916 11.53125 7.40625 C 12.178038 8.4332084 12.832834 9.7726162 12.9375 10.625 L 13.0625 11.59375 L 14.03125 11.46875 C 14.03125 11.46875 14.225925 11.427266 14.5 11.34375 C 14.561364 13.02033 14.34375 14.25 14.34375 14.25 L 14.09375 15.40625 L 15.28125 15.4375 C 15.28125 15.4375 15.727334 15.433791 16.3125 15.375 C 15.879228 17.197865 15.34375 18.53125 15.34375 18.53125 L 14.84375 19.65625 L 16.0625 19.90625 C 16.0625 19.90625 16.368891 19.955668 16.8125 20 C 16.19149 21.601445 15.53125 22.8125 15.53125 22.8125 L 14.9375 23.8125 L 16 24.25 C 16 24.25 18.194612 25.155825 21 24.9375 L 21 28 L 23 28 L 23 24.59375 C 23.009812 24.590964 23.021433 24.596571 23.03125 24.59375 C 26.789843 23.513746 28 20.34375 28 20.34375 L 28.125 19.96875 L 27.96875 19.59375 C 27.96875 19.59375 27.582834 18.730462 27.03125 17.75 C 26.635407 17.046374 26.18885 16.311931 25.625 15.6875 C 25.974904 15.159774 26.252717 14.651375 26.40625 14.1875 L 26.5625 13.65625 L 26.21875 13.21875 C 26.037888 13.005333 24.83084 11.568264 22.71875 10.28125 C 22.928643 9.6984051 23 9.3125 23 9.3125 L 23.09375 8.71875 L 22.65625 8.34375 C 22.65625 8.34375 20.804293 6.7834582 18.0625 6.15625 C 18.079326 5.4665584 18.0625 4.90625 18.0625 4.90625 L 17.96875 4 L 17.0625 4 L 11.0625 4 L 8.96875 4 z M 12.96875 6 L 16.0625 6 C 16.0641 6.2191131 16.08023 6.2275651 16.0625 6.5 C 16.01264 7.2662233 15.774977 8.1103936 15.625 8.28125 L 15.59375 8.28125 L 15.59375 8.3125 C 15.206939 8.7846663 14.867213 8.9843611 14.5625 9.15625 C 14.224891 8.134892 13.732797 7.1599448 13.21875 6.34375 C 13.092047 6.1425735 13.089754 6.1793673 12.96875 6 z M 17.84375 8.15625 C 19.330306 8.516816 20.304148 9.1702478 20.8125 9.53125 C 20.622277 10.175306 20.1832 11.399024 18.75 12.46875 C 18.073871 12.973449 17.205983 13.194021 16.46875 13.3125 C 16.54011 12.521904 16.558715 11.478229 16.4375 10.25 C 16.666792 10.055292 16.907283 9.8545171 17.125 9.59375 C 17.13508 9.582263 17.14639 9.57406 17.15625 9.5625 C 17.521292 9.1344131 17.718039 8.640652 17.84375 8.15625 z M 21.8125 12.09375 C 23.04922 12.849565 23.787249 13.520743 24.21875 14 C 24.015565 14.415767 23.777333 14.884308 23.28125 15.46875 C 22.629564 16.236509 21.779078 17.009798 20.84375 17.46875 C 19.716179 18.022033 18.484462 18.044973 17.5625 18 C 17.829991 17.296431 18.176096 16.508873 18.5 14.84375 C 18.992811 14.649229 19.505597 14.408222 19.96875 14.0625 C 20.776712 13.459446 21.369376 12.765896 21.8125 12.09375 z M 24.34375 17.3125 C 24.651036 17.718498 24.999204 18.217401 25.28125 18.71875 C 25.653653 19.380712 25.813039 19.702241 25.9375 19.96875 C 25.751754 20.410425 25.027483 21.929997 22.5 22.65625 C 20.37507 23.266833 18.723676 22.930774 17.75 22.65625 C 18.074454 22.048525 18.496039 21.351904 18.96875 20 C 19.839493 19.910066 20.802012 19.69983 21.71875 19.25 C 22.743171 18.74733 23.628441 18.053213 24.34375 17.3125 z M 4 21 L 4 23 L 14 23 L 14 21 L 4 21 z M 5 24 L 4 28 L 6.0625 28 L 7.0625 24 L 5 24 z M 11 24 L 12 28 L 14.0625 28 L 13.0625 24 L 11 24 z" overflow="visible" font-family="Sans" fill="#000000"/></svg>
