<?xml version="1.0" encoding="utf-8"?>
<svg xmlns="http://www.w3.org/2000/svg" viewBox="0 0 32 32" fill="#000000"><path style="text-indent:0;text-align:start;line-height:normal;text-transform:none;block-progression:tb;-inkscape-font-specification:Sans" d="M 9 4.09375 L 8.28125 4.8125 L 2.28125 10.8125 L 3.71875 12.21875 L 8 7.9375 L 8 20 L 10 20 L 10 7.9375 L 14.28125 12.21875 L 15.71875 10.8125 L 9.71875 4.8125 L 9 4.09375 z M 22 5 L 22 7 L 24 7 L 24 5 L 22 5 z M 22 9 L 22 11 L 24 11 L 24 9 L 22 9 z M 22 13 L 22 25.0625 L 17.71875 20.78125 L 16.28125 22.1875 L 22.28125 28.1875 L 23 28.90625 L 23.71875 28.1875 L 29.71875 22.1875 L 28.28125 20.78125 L 24 25.0625 L 24 13 L 22 13 z M 8 22 L 8 24 L 10 24 L 10 22 L 8 22 z M 8 26 L 8 28 L 10 28 L 10 26 L 8 26 z" fill="#000000"/></svg>
