<?xml version="1.0" encoding="utf-8"?>
<svg xmlns="http://www.w3.org/2000/svg" viewBox="0 0 32 32" fill="#000000"><path d="M 21.03125 3 C 21.03125 3 21.059 5.548 21.75 6.75 C 22.436 7.949 23.09525 7.84525 23.65625 7.53125 C 24.21725 7.21625 24.78175 6.7645 24.09375 5.5625 C 23.40375 4.3615 21.03125 3 21.03125 3 z M 27.40625 5.03125 C 27.40625 5.03125 25.345 6.496 24.75 7.75 C 24.161 8.997 24.63775 9.49825 25.21875 9.78125 C 25.79675 10.05925 26.4675 10.251 27.0625 9 C 27.6535 7.75 27.40625 5.03125 27.40625 5.03125 z M 21.875 8.375 C 20.542297 8.4209844 19.03125 8.8125 19.03125 8.8125 C 19.03125 8.8125 20.91025 10.59875 22.28125 10.96875 C 23.64125 11.33775 24.04475 10.8085 24.21875 10.1875 C 24.39075 9.5715 24.45975 8.83875 23.09375 8.46875 C 22.7525 8.3765 22.319234 8.3596719 21.875 8.375 z M 29 10 C 29 10 26.61375 10.90875 25.71875 11.96875 C 24.82875 13.02175 25.138 13.61025 25.625 14.03125 C 26.11 14.44925 26.75925 14.806 27.65625 13.75 C 28.55025 12.694 29 10 29 10 z M 19.4375 11.625 C 19.4375 11.625 20.79925 13.8475 22.03125 14.5625 C 23.25825 15.2755 23.796 14.83525 24.125 14.28125 C 24.453 13.72825 24.69775 13.05975 23.46875 12.34375 C 22.23675 11.62975 19.4375 11.625 19.4375 11.625 z M 19.28125 13.90625 C 19.28125 13.90625 19.71575 16.47275 20.59375 17.59375 C 21.46975 18.71075 22.116 18.48975 22.625 18.09375 C 23.132 17.70075 23.63 17.1835 22.75 16.0625 C 21.871 14.9455 19.28125 13.90625 19.28125 13.90625 z M 28.40625 15.5 C 28.40625 15.5 25.85725 15.52775 24.65625 16.21875 C 23.45925 16.90675 23.56 17.59525 23.875 18.15625 C 24.192 18.71525 24.673 19.28175 25.875 18.59375 C 27.076 17.90375 28.40625 15.5 28.40625 15.5 z M 18.21875 16.375 C 18.21875 16.375 18.05525 18.98825 18.65625 20.28125 C 19.25125 21.56725 19.94425 21.516 20.53125 21.25 C 21.11525 20.983 21.726 20.57325 21.125 19.28125 C 20.529 17.99125 18.21875 16.375 18.21875 16.375 z M 16.34375 18.25 C 16.34375 18.25 15.53625 20.721 15.78125 22.125 C 16.02425 23.521 16.6765 23.63425 17.3125 23.53125 C 17.9445 23.42325 18.65125 23.18125 18.40625 21.78125 C 18.16025 20.37925 16.34375 18.25 16.34375 18.25 z M 23.5625 20 C 23.365611 20.000287 23.170875 20.032125 23 20.0625 C 21.643 20.3055 21.517 20.95775 21.625 21.59375 C 21.734 22.22675 21.97775 22.9275 23.34375 22.6875 C 24.70175 22.4435 26.78125 20.65625 26.78125 20.65625 C 26.78125 20.65625 24.940721 19.99799 23.5625 20 z M 13.65625 20.3125 C 13.65625 20.3125 12.55825 22.67175 12.65625 24.09375 C 12.75925 25.50575 13.4195 25.7245 14.0625 25.6875 C 14.7035 25.6445 15.4145 25.4825 15.3125 24.0625 C 15.2135 22.6455 13.65625 20.3125 13.65625 20.3125 z M 19.75 23.1875 C 18.744365 23.169617 18.466 23.69175 18.375 24.25 C 18.278 24.883 18.30975 25.6035 19.71875 25.8125 C 21.12375 26.0225 23.71875 25.03125 23.71875 25.03125 C 23.71875 25.03125 21.62775 23.42975 20.21875 23.21875 C 20.043375 23.1925 19.893662 23.190055 19.75 23.1875 z M 15.84375 25.5625 C 15.143625 25.537891 14.85325 25.95175 14.6875 26.40625 C 14.4675 27.01025 14.3435 27.7105 15.6875 28.1875 C 17.0255 28.6605 19.78125 28.15625 19.78125 28.15625 C 19.78125 28.15625 18.0295 26.227 16.6875 25.75 C 16.35325 25.63175 16.077125 25.570703 15.84375 25.5625 z M 11.15625 26.03125 C 9.47125 26.50825 6.825 27 3 27 L 3 29 C 8.086 29 11.293 28.16025 13 27.53125 C 12.277 27.32025 11.59325 26.85725 11.15625 26.03125 z" fill="#000000"/></svg>
