<?xml version="1.0" encoding="utf-8"?>
<svg xmlns="http://www.w3.org/2000/svg" viewBox="-7 9 32 32" fill="#000000"><path style="text-indent:0;text-align:start;line-height:normal;text-transform:none;block-progression:tb;-inkscape-font-specification:Sans" d="M 16 3.9375 L 15.625 4.0625 L 10.625 6.0625 L 10 6.3125 L 10 7 L 10 13 L 10 13.6875 L 10.625 13.9375 L 15.625 15.9375 L 16 16.0625 L 16.375 15.9375 L 21.375 13.9375 L 22 13.6875 L 22 13 L 22 7 L 22 6.3125 L 21.375 6.0625 L 16.375 4.0625 L 16 3.9375 z M 3 5 L 3 16 L 3 16.40625 L 3.28125 16.71875 L 9 22.4375 L 9 27 L 9 28 L 10 28 L 14 28 L 15 28 L 15 27 L 15 22.03125 C 15 22.03125 14.999976 22.00046 15 22 C 15.00281 21.9464 15.145461 18.842328 12.5625 17.1875 C 12.55568 17.1831 12.56936 17.1606 12.5625 17.15625 C 12.55436 17.15095 12.539393 17.16155 12.53125 17.15625 C 11.346525 16.382266 10.126631 15.750444 9.28125 15.09375 C 8.4300586 14.432542 8 13.886432 8 13 L 6 13 C 6 14.618568 6.9446914 15.843458 8.03125 16.6875 C 9.1178086 17.531542 10.380811 18.151194 11.4375 18.84375 L 11.46875 18.84375 C 13.070152 19.8483 13 21.96875 13 21.96875 L 13 22 L 13 26 L 11 26 L 11 22 L 11 21.59375 L 10.71875 21.28125 L 5 15.5625 L 5 5 L 3 5 z M 27 5 L 27 15.5625 L 21.28125 21.28125 L 21 21.59375 L 21 22 L 21 26 L 19 26 L 19 22 L 19 21.96875 L 19 21.9375 C 19 21.9375 18.92997 19.848225 20.53125 18.84375 L 20.5625 18.84375 C 21.619132 18.151231 22.881957 17.531507 23.96875 16.6875 C 25.055543 15.843493 26 14.618701 26 13 L 24 13 C 24 13.886299 23.570207 14.432507 22.71875 15.09375 C 21.873106 15.750479 20.653535 16.382229 19.46875 17.15625 C 19.46065 17.16155 19.44564 17.15095 19.4375 17.15625 L 19.4375 17.1875 C 16.875867 18.828673 16.994884 21.896051 17 22 C 17.000087 22.0018 17 22.0625 17 22.0625 L 17 27 L 17 28 L 18 28 L 22 28 L 23 28 L 23 27 L 23 22.4375 L 28.71875 16.71875 L 29 16.40625 L 29 16 L 29 5 L 27 5 z M 16 6.09375 L 18.28125 7 L 16 7.90625 L 13.71875 7 L 16 6.09375 z M 12 8.5 L 15.625 9.9375 L 16 10.0625 L 16.375 9.9375 L 20 8.5 L 20 12.3125 L 16 13.90625 L 12 12.3125 L 12 8.5 z" transform="translate(-7 9)" overflow="visible" font-family="Sans" fill="#000000"/></svg>
