<?xml version="1.0" encoding="utf-8"?>
<svg xmlns="http://www.w3.org/2000/svg" viewBox="0 0 32 32" fill="#000000"><path style="text-indent:0;text-align:start;line-height:normal;text-transform:none;block-progression:tb;-inkscape-font-specification:Sans" d="M 16 4 C 12.281376 4 9.1465845 6.7451803 9 10.25 C 7.4343709 10.773377 5.8545675 11.520877 4.5625 12.625 C 3.1115378 13.864906 2.0737282 15.646792 2.03125 17.875 L 2 17.875 C 2 17.875 2.0001466 17.904172 2 17.90625 C 2 17.90625 2.0001718 17.96664 2 17.96875 C 1.9999496 17.97982 2 17.98891 2 18 C 1.9978611 18.055918 1.9932669 18.079533 2 18.21875 C 1.9851201 18.745305 2.0282019 20.60348 3.40625 22.5625 C 5.0175193 24.853065 8.4182676 27 15 27 L 17 27 C 23.581732 27 26.982481 24.853065 28.59375 22.5625 C 29.971799 20.60348 30.01488 18.745305 30 18.21875 C 30.006733 18.079533 30.002139 18.055918 30 18 C 29.999878 17.9984 30.000086 17.96981 30 17.96875 C 29.999828 17.96665 30 17.90625 30 17.90625 C 29.999853 17.904172 30 17.875 30 17.875 L 29.96875 17.875 C 29.926285 15.647352 28.88783 13.864816 27.4375 12.625 C 26.145995 11.520956 24.56553 10.773403 23 10.25 C 22.853416 6.7451803 19.718624 4 16 4 z M 16 6 C 18.490676 6 20.476426 7.5939771 20.90625 9.65625 C 20.055709 9.463961 19.293771 9.3466229 18.59375 9.25 C 18.429536 9.0127779 18.220264 8.7901983 18 8.625 C 17.44275 8.2070624 16.75495 8 16 8 C 15.24505 8 14.55725 8.2070624 14 8.625 C 13.779736 8.7901983 13.570464 9.0127779 13.40625 9.25 C 12.706398 9.3467519 11.944438 9.4639965 11.09375 9.65625 C 11.523574 7.5939771 13.509324 6 16 6 z M 16 10 C 16.349619 10 16.645892 10.125044 16.8125 10.25 C 16.979108 10.374956 17 10.44608 17 10.5 C 17 10.55392 16.97911 10.625044 16.8125 10.75 C 16.645892 10.874956 16.349619 11 16 11 C 15.650381 11 15.354108 10.874956 15.1875 10.75 C 15.020892 10.625044 15 10.55392 15 10.5 C 15 10.44608 15.020892 10.374956 15.1875 10.25 C 15.354108 10.125044 15.650381 10 16 10 z M 13.1875 11.3125 C 13.366508 11.735774 13.653317 12.114988 14 12.375 C 14.55725 12.792938 15.24505 13 16 13 C 16.75495 13 17.44275 12.792938 18 12.375 C 18.346683 12.114988 18.633492 11.735774 18.8125 11.3125 C 19.430494 11.41497 20.077362 11.574503 20.78125 11.75 C 20.186947 13.608705 18.321186 15 16 15 C 13.678814 15 11.813053 13.608705 11.21875 11.75 C 11.922714 11.574604 12.569482 11.41511 13.1875 11.3125 z M 9.28125 12.28125 C 10.127306 15.017479 12.846279 17 16 17 C 19.153721 17 21.872694 15.017479 22.71875 12.28125 C 24.005714 12.743219 25.231595 13.365807 26.15625 14.15625 C 27.309297 15.141934 28 16.303079 28 18 L 28 18.03125 L 28 18.09375 C 28 18.09375 27.99764 18.197673 28 18.28125 C 28.005668 18.609317 27.924387 19.393563 27.0625 20.3125 C 25.913318 21.537749 23.215576 23 17 23 L 15 23 C 8.7844243 23 6.0866817 21.537749 4.9375 20.3125 C 4.1328186 19.454555 4.0100867 18.734973 4 18.375 C 3.999088 18.315024 3.9988198 18.323038 4 18.28125 C 4.0018892 18.171894 4 18.125 4 18.125 C 4.0002311 18.122511 4 18.09375 4 18.09375 L 4 18.03125 L 4 18 C 4 16.302671 4.7213475 15.110843 5.875 14.125 C 6.8001406 13.33443 8.0022403 12.735228 9.28125 12.28125 z" overflow="visible" font-family="Sans" fill="#000000"/></svg>
