<?xml version="1.0" encoding="utf-8"?>
<svg xmlns="http://www.w3.org/2000/svg" viewBox="0 0 32 32" fill="#000000"><path d="M 24.625 4 C 23.508722 4 22.650149 4.7550185 22.0625 5.59375 C 21.511396 6.3803223 21.074538 7.3406782 20.5625 8.375 C 19.6914 8.7650524 19 9.4900533 19 10.5 C 19 10.673159 19.09083 10.80856 19.125 10.96875 C 18.8058 11.490616 18.483998 12.026551 18.09375 12.53125 L 18.15625 12.59375 C 17.824619 12.835505 17.554258 13.128703 17.375 13.5 L 17.3125 13.4375 C 17.174151 13.587927 17.071789 13.708686 16.96875 13.8125 C 16.61508 14.16617 16.067361 14.582307 15.5 15 C 15.4927 15.0054 15.47609 14.9946 15.46875 15 C 14.492153 15.01212 13.742235 15.664589 13.34375 16.5 C 12.531374 17.019427 11.667395 17.525483 10.8125 18.0625 C 10.706286 18.048204 10.610685 18 10.5 18 C 9.4327101 18 8.666087 18.768246 8.3125 19.71875 C 7.2157808 20.472166 6.2091183 21.237264 5.4375 22.03125 C 4.633222 22.858842 4 23.732492 4 24.84375 C 4 25.774457 4.5088655 26.762504 5.40625 27.28125 C 6.3036345 27.799996 7.4806655 28 9.0625 28 C 9.8458081 28 10.723777 27.895506 11.6875 27.71875 C 11.957788 27.819472 12.195678 28 12.5 28 C 13.269108 28 13.886463 27.581567 14.34375 27.03125 C 15.262638 26.740801 16.20186 26.377773 17.15625 25.9375 C 17.273113 25.956809 17.367307 26 17.5 26 C 18.413884 26 19.128489 25.426649 19.5625 24.6875 C 20.484632 24.121995 21.368129 23.482309 22.21875 22.75 C 22.938392 22.50951 23.42583 21.99129 23.6875 21.28125 L 23.71875 21.3125 C 24.501217 20.465948 25.202029 19.506326 25.8125 18.46875 C 26.478757 18.019758 27 17.358201 27 16.5 C 27 16.345205 26.962979 16.227515 26.9375 16.09375 C 27.593054 14.361971 28 12.429986 28 10.28125 C 28 8.5106275 27.827929 7.0895055 27.34375 5.96875 C 26.859571 4.8479945 25.828373 4 24.625 4 z M 24.625 6 C 25.055627 6 25.208179 6.1057555 25.5 6.78125 C 25.791821 7.4567445 26 8.6548725 26 10.28125 C 26 12.304793 25.633728 14.080319 25 15.65625 A 1.0001 1.0001 0 0 0 24.96875 16.34375 C 24.994761 16.423409 25 16.471969 25 16.5 C 25 16.722074 24.849815 16.898516 24.65625 16.96875 A 1.0001 1.0001 0 0 0 24.15625 17.40625 C 23.616489 18.335941 22.96216 19.167012 22.25 19.9375 A 1.0001 1.0001 0 0 0 22 20.53125 C 21.977933 20.787431 21.789314 20.987269 21.53125 21 A 1.0001 1.0001 0 0 0 20.90625 21.25 C 20.117998 21.928615 19.275037 22.504453 18.40625 23.03125 A 1.0001 1.0001 0 0 0 17.96875 23.625 C 17.909581 23.83936 17.73686 24 17.5 24 C 17.4728 24 17.42246 23.9935 17.34375 23.96875 A 1.0001 1.0001 0 0 0 16.625 24.03125 C 15.58595 24.529765 14.529402 24.913467 13.53125 25.21875 A 1.0001 1.0001 0 0 0 12.9375 25.71875 C 12.852025 25.886253 12.69878 26 12.5 26 C 12.391251 26 12.305127 25.967139 12.21875 25.90625 A 1.0001 1.0001 0 0 0 11.4375 25.75 C 10.521874 25.924405 9.7182958 26 9.0625 26 C 7.6643345 26 6.7898655 25.784254 6.40625 25.5625 C 6.0226345 25.340746 6 25.233043 6 24.84375 C 6 24.589008 6.239028 24.060658 6.875 23.40625 C 7.510972 22.751842 8.4635738 22.030141 9.5625 21.28125 A 1.0001 1.0001 0 0 0 10 20.46875 C 10.010048 20.190867 10.219218 20 10.5 20 C 10.55995 20 10.624006 20.0058 10.6875 20.03125 A 1.0001 1.0001 0 0 0 11.59375 19.96875 C 12.586608 19.342991 13.594302 18.715297 14.5625 18.09375 A 1.0001 1.0001 0 0 0 15 17.40625 C 15.042143 17.169239 15.243634 17 15.5 17 C 15.53393 17 15.55835 16.9923 15.59375 17 A 1.0001 1.0001 0 0 0 16.40625 16.84375 C 17.159151 16.307437 17.81938 15.77437 18.375 15.21875 C 18.537961 15.054564 18.667599 14.904823 18.78125 14.78125 A 1.0001 1.0001 0 0 0 19.03125 14.375 C 19.07149 14.226999 19.150421 14.090659 19.28125 14.03125 A 1.0001 1.0001 0 0 0 19.6875 13.75 C 20.208792 13.075823 20.633116 12.393802 21.03125 11.71875 A 1.0001 1.0001 0 0 0 21.0625 10.71875 C 21.015485 10.630962 21 10.573708 21 10.5 C 21 10.231056 21.177209 10.025035 21.4375 10 A 1.0001 1.0001 0 0 0 22.25 9.46875 C 22.816622 8.3319701 23.294149 7.3560185 23.71875 6.75 C 24.143351 6.1439815 24.360278 6 24.625 6 z M 24 12 C 23.447715 12 23 12.447715 23 13 C 23 13.552285 23.447715 14 24 14 C 24.552285 14 25 13.552285 25 13 C 25 12.447715 24.552285 12 24 12 z M 20 15 C 19.447715 15 19 15.447715 19 16 C 19 16.552285 19.447715 17 20 17 C 20.552285 17 21 16.552285 21 16 C 21 15.447715 20.552285 15 20 15 z M 19 19 C 18.447715 19 18 19.447715 18 20 C 18 20.552285 18.447715 21 19 21 C 19.552285 21 20 20.552285 20 20 C 20 19.447715 19.552285 19 19 19 z M 13 22 C 12.447715 22 12 22.447715 12 23 C 12 23.552285 12.447715 24 13 24 C 13.552285 24 14 23.552285 14 23 C 14 22.447715 13.552285 22 13 22 z" fill="#000000"/></svg>
