<?xml version="1.0" encoding="utf-8"?>
<svg xmlns="http://www.w3.org/2000/svg" viewBox="0 0 32 32" fill="#000000"><path style="text-indent:0;text-align:start;line-height:normal;text-transform:none;block-progression:tb;-inkscape-font-specification:Sans" d="M 15.875 4 L 15.78125 4.03125 L 4.78125 6.46875 L 4 6.65625 L 4 7.4375 L 4 24.5625 L 4 25.34375 L 4.78125 25.53125 L 15.78125 27.96875 L 15.875 28 L 16 28 L 17 28 L 18 28 L 18 27 L 18 25 L 24 25 L 25 25 L 25 24 L 25 13 L 27 13 L 28 13 L 28 12 L 28 8 L 28 7 L 27 7 L 18 7 L 18 5 L 18 4 L 17 4 L 16 4 L 15.875 4 z M 16 6.03125 L 16 7 L 16 8 L 16 24 L 16 25 L 16 25.96875 L 6 23.78125 L 6 8.21875 L 16 6.03125 z M 18 9 L 26 9 L 26 11 L 24 11 L 23 11 L 23 12 L 23 23 L 18 23 L 18 21 L 22 21 L 22 19 L 18 19 L 18 18 L 22 18 L 22 16 L 18 16 L 18 15 L 22 15 L 22 13 L 18 13 L 18 12 L 22 12 L 22 10 L 18 10 L 18 9 z M 14 11 L 12 11.34375 L 12 17 L 10.1875 11.625 L 8 12 L 8 20 L 10 20.34375 L 10 15 L 11.875 20.65625 L 14 21 L 14 11 z M 26 14 L 26 19 L 28 19 L 28 14 L 26 14 z M 26 20 L 26 25 L 28 25 L 28 20 L 26 20 z" fill="#000000"/></svg>
