<?xml version="1.0" encoding="utf-8"?>
<svg xmlns="http://www.w3.org/2000/svg" viewBox="0 0 32 32" fill="#000000"><path style="text-indent:0;text-align:start;line-height:normal;text-transform:none;block-progression:tb;-inkscape-font-specification:Bitstream Vera Sans" d="M 16 4 C 13.841883 4 12.008087 5.3820877 11.3125 7.3125 C 9.389303 8.0094438 8 9.8392013 8 12 C 8 12.062942 7.997641 12.12468 8 12.1875 C 6.8442639 12.605727 6 13.708013 6 15 C 6 16.64497 7.3550302 18 9 18 L 9.375 18 L 13.6875 26.5 C 13.6938 26.5139 13.71219 26.5175 13.71875 26.53125 C 14.140797 27.416516 15.016564 28 16 28 C 16.983436 28 17.859203 27.416516 18.28125 26.53125 L 18.3125 26.53125 C 18.316 26.52385 18.3091 26.50748 18.3125 26.5 L 22.625 18 L 23 18 C 24.64497 18 26 16.64497 26 15 C 26 13.687451 25.12184 12.589779 23.9375 12.1875 C 23.654665 10.49123 22.506003 9.0698486 20.96875 8.40625 C 20.669068 5.937618 18.545946 4 16 4 z M 16 6 C 17.318362 6 18.436798 6.8279881 18.84375 8 C 16.508596 8.0743507 14.551684 9.7778153 14.09375 12 L 10 12 C 10 10.346 11.346 9 13 9 C 13.277 9 13.5545 9.054 13.8125 9.125 C 14.2525 8.539 14.766 8.00275 15.375 7.59375 C 14.864827 7.31625 14.305596 7.1480978 13.71875 7.0625 C 14.263429 6.4143519 15.078482 6 16 6 z M 19 10 C 20.318362 10 21.436798 10.827988 21.84375 12 L 16.15625 12 C 16.563202 10.827988 17.681638 10 19 10 z M 9 14 L 23 14 C 23.56503 14 24 14.43497 24 15 C 24 15.56503 23.56503 16 23 16 L 22 16 L 12.625 16 L 13.65625 18 L 20.375 18 L 16.53125 25.625 L 16.5 25.65625 L 16.5 25.6875 C 16.409446 25.886576 16.21929 26 16 26 C 15.78071 26 15.590554 25.886576 15.5 25.6875 L 15.5 25.65625 L 15.46875 25.625 L 10.90625 16.5625 L 10.625 16 L 10 16 L 9 16 C 8.4349698 16 8 15.56503 8 15 C 8 14.43497 8.4349698 14 9 14 z" overflow="visible" font-family="Bitstream Vera Sans" fill="#000000"/></svg>
