<?xml version="1.0" encoding="utf-8"?>
<svg xmlns="http://www.w3.org/2000/svg" viewBox="0 0 32 32" fill="#000000"><path style="text-indent:0;text-align:start;line-height:normal;text-transform:none;block-progression:tb;-inkscape-font-specification:Sans" d="M 15 2 L 15 4.9375 L 7.15625 9.53125 L 4.5 7.9375 L 3.46875 9.65625 L 6.03125 11.1875 L 6 20.84375 L 3.46875 22.34375 L 4.5 24.0625 L 7.15625 22.46875 L 15 27.09375 L 15 30 L 17 30 L 17 27.0625 L 24.84375 22.46875 L 27.5 24.0625 L 28.53125 22.34375 L 25.96875 20.8125 L 26 11.15625 L 28.53125 9.65625 L 27.5 7.9375 L 24.84375 9.53125 L 17 4.90625 L 17 2 L 15 2 z M 17 7.21875 L 22.90625 10.6875 L 21 11.84375 L 17 9.4375 L 17 7.21875 z M 15 7.25 L 15 9.4375 L 11 11.8125 L 9.09375 10.6875 L 15 7.25 z M 15 11.75 L 15 14.21875 L 12.9375 13 L 15 11.75 z M 17 11.75 L 19.03125 13 L 17 14.21875 L 17 11.75 z M 24 12.375 L 23.96875 19.59375 L 21.96875 18.40625 L 22 13.5625 L 24 12.375 z M 8.03125 12.40625 L 10.03125 13.59375 L 10 18.4375 L 8 19.625 L 8.03125 12.40625 z M 12.03125 14.78125 L 14.0625 16 L 12 17.21875 L 12.03125 14.78125 z M 20 14.78125 L 19.96875 17.21875 L 17.9375 16 L 20 14.78125 z M 15 17.78125 L 15 20.25 L 12.96875 19 L 15 17.78125 z M 17 17.78125 L 19.0625 19 L 17 20.25 L 17 17.78125 z M 11 20.15625 L 15 22.5625 L 15 24.78125 L 9.09375 21.3125 L 11 20.15625 z M 21 20.1875 L 22.90625 21.3125 L 17 24.75 L 17 22.5625 L 21 20.1875 z" overflow="visible" font-family="Sans" fill="#000000"/></svg>
