<?xml version="1.0" encoding="utf-8"?>
<svg xmlns="http://www.w3.org/2000/svg" viewBox="0 0 32 32" fill="#000000"><path style="text-indent:0;text-align:start;line-height:normal;text-transform:none;block-progression:tb;-inkscape-font-specification:Sans" d="M 17 2 C 15.618911 2 14.466988 2.9700225 14.125 4.25 C 13.773916 4.1044091 13.400961 4 13 4 C 11.35503 4 10 5.3550302 10 7 L 10 17 L 10 17.75 L 9.125 16.875 C 7.9619269 15.711927 6.0380731 15.711927 4.875 16.875 C 3.7119269 18.038073 3.7119269 19.961927 4.875 21.125 L 11.65625 27.90625 C 12.831677 29.077174 14.455692 30 16.375 30 L 21 30 C 24.854334 30 28 26.854334 28 23 L 28 11 C 28 9.3550302 26.64497 8 25 8 C 24.647017 8 24.315758 8.0732364 24 8.1875 L 24 7 C 24 5.3550302 22.64497 4 21 4 C 20.599039 4 20.226084 4.1044091 19.875 4.25 C 19.533012 2.9700225 18.381089 2 17 2 z M 17 4 C 17.56503 4 18 4.4349698 18 5 L 18 15 L 20 15 L 20 7 C 20 6.4349698 20.43497 6 21 6 C 21.56503 6 22 6.4349698 22 7 L 22 15 L 24 15 L 24 11 C 24 10.43497 24.43497 10 25 10 C 25.56503 10 26 10.43497 26 11 L 26 23 C 26 25.773666 23.773666 28 21 28 L 16.375 28 C 15.102308 28 14.006323 27.377826 13.09375 26.46875 L 6.28125 19.71875 C 5.8823231 19.319823 5.8823231 18.680177 6.28125 18.28125 L 6.34375 18.25 C 6.7425342 17.903405 7.3378075 17.900307 7.71875 18.28125 L 10.28125 20.875 L 12 22.59375 L 12 20.1875 L 12 17 L 12 7 C 12 6.4349698 12.43497 6 13 6 C 13.56503 6 14 6.4349698 14 7 L 14 15 L 16 15 L 16 7 L 16 5 C 16 4.4349698 16.43497 4 17 4 z M 17 18 C 15.895 18 15 18.895 15 20 C 15 21.946 19 25 19 25 C 19 25 23 22.173 23 20 C 23 18.895 22.105 18 21 18 C 19.895 18 19 18.895 19 20 C 19 18.895 18.105 18 17 18 z" overflow="visible" font-family="Sans" fill="#000000"/></svg>
