<?xml version="1.0" encoding="utf-8"?>
<svg xmlns="http://www.w3.org/2000/svg" viewBox="0 0 32 32" fill="#000000"><path style="text-indent:0;text-align:start;line-height:normal;text-transform:none;block-progression:tb;-inkscape-font-specification:Bitstream Vera Sans" d="M 16 8.03125 L 15.46875 8.34375 L 1.96875 16.75 L 3.03125 18.4375 L 4 17.84375 L 4 24 L 6 24 L 6 16.59375 L 16 10.40625 L 26 16.59375 L 26 24 L 28 24 L 28 17.84375 L 28.96875 18.4375 L 30.03125 16.75 L 26 14.25 L 26 10 L 26 9 L 25 9 L 22 9 L 21 9 L 21 10 L 21 11.125 L 16.53125 8.34375 L 16 8.03125 z M 23 11 L 24 11 L 24 13 L 23 12.375 L 23 11 z" overflow="visible" font-family="Bitstream Vera Sans" fill="#000000"/></svg>
