<?xml version="1.0" encoding="utf-8"?>
<svg xmlns="http://www.w3.org/2000/svg" viewBox="0 0 32 32" fill="#000000"><path style="text-indent:0;text-align:start;line-height:normal;text-transform:none;block-progression:tb;-inkscape-font-specification:Bitstream Vera Sans" d="M 5 5 L 5 26 L 5 27 L 6 27 L 27 27 L 27 25 L 7 25 L 7 22.5625 C 7.5935206 22.83549 8.2591365 23 9 23 C 10.035362 23 10.961885 22.690468 11.6875 22.1875 C 11.800184 22.109392 11.895686 22.026988 12 21.9375 C 12.101232 22.023981 12.203606 22.111617 12.3125 22.1875 C 13.036323 22.691901 13.961448 23 15 23 C 16.035362 23 16.961885 22.690468 17.6875 22.1875 C 17.800184 22.109392 17.895686 22.026988 18 21.9375 C 18.101232 22.023981 18.203606 22.111617 18.3125 22.1875 C 19.036323 22.691901 19.961448 23 21 23 C 22.035362 23 22.961885 22.690468 23.6875 22.1875 C 23.800184 22.109392 23.895686 22.026988 24 21.9375 C 24.101232 22.023981 24.203606 22.111617 24.3125 22.1875 C 25.036323 22.691901 25.961448 23 27 23 L 27 21 C 26.366552 21 25.795677 20.812099 25.4375 20.5625 C 25.079323 20.312901 25 20.042136 25 20 L 23 20 L 23 19 L 24 17 L 21 17 L 21 15 L 15 15 L 15 17 L 12 17 L 13 19 L 13 20 L 11 20 C 11 20.05733 10.91888 20.315468 10.5625 20.5625 C 10.206115 20.809532 9.636638 21 9 21 C 8.3665518 21 7.7956774 20.812099 7.4375 20.5625 C 7.0793226 20.312901 7 20.042136 7 20 L 7 5 L 5 5 z" overflow="visible" font-family="Bitstream Vera Sans" fill="#000000"/></svg>
