<?xml version="1.0" encoding="utf-8"?>
<svg xmlns="http://www.w3.org/2000/svg" viewBox="0 0 32 32" fill="#000000"><path style="text-indent:0;text-align:start;line-height:normal;text-transform:none;block-progression:tb;-inkscape-font-specification:Sans" d="M 16 3 C 12.145666 3 9 6.1456661 9 10 L 9 13 L 7 13 L 6 13 L 6 14 L 6 28 L 6 29 L 7 29 L 25 29 L 26 29 L 26 28 L 26 14 L 26 13 L 25 13 L 23 13 L 23 10 C 23 6.1456661 19.854334 3 16 3 z M 16 5 C 18.773666 5 21 7.2263339 21 10 L 21 13 L 11 13 L 11 10 C 11 7.2263339 13.226334 5 16 5 z M 8 15 L 24 15 L 24 27 L 8 27 L 8 15 z M 16 16 C 14.354545 16 13 17.354545 13 19 L 15 19 C 15 18.445455 15.445455 18 16 18 C 16.554545 18 17 18.445455 17 19 C 17 19.554545 16.554545 20 16 20 L 15 20 L 15 21 L 15 22 L 15 23 L 17 23 L 17 21.8125 C 18.155843 21.394384 19 20.292368 19 19 C 19 17.354545 17.645455 16 16 16 z M 15 24 L 15 26 L 17 26 L 17 24 L 15 24 z" overflow="visible" font-family="Sans" fill="#000000"/></svg>
