<?xml version="1.0" encoding="utf-8"?>
<svg xmlns="http://www.w3.org/2000/svg" viewBox="0 0 32 32" fill="#000000"><path style="text-indent:0;text-align:start;line-height:normal;text-transform:none;block-progression:tb;-inkscape-font-specification:Sans" d="M 16 4 C 9.3962726 4 4 9.3962726 4 16 C 4 22.603727 9.3962726 28 16 28 C 22.603727 28 28 22.603727 28 16 C 28 9.3962726 22.603727 4 16 4 z M 16 8 C 20.441967 8 24 11.558033 24 16 C 24 20.441967 20.441967 24 16 24 C 11.558033 24 8 20.441967 8 16 C 8 11.558033 11.558033 8 16 8 z M 16 13 C 14.343146 13 13 14.343146 13 16 C 13 17.656854 14.343146 19 16 19 C 17.656854 19 19 17.656854 19 16 C 19 14.343146 17.656854 13 16 13 z" overflow="visible" font-family="Sans" fill="#000000"/></svg>
