<?xml version="1.0" encoding="utf-8"?>
<svg xmlns="http://www.w3.org/2000/svg" viewBox="0 0 32 32" fill="#000000"><path style="text-indent:0;text-align:start;line-height:normal;text-transform:none;block-progression:tb;-inkscape-font-specification:Bitstream Vera Sans" d="M 3 8 L 3 9 L 3 23 L 3 24 L 4 24 L 8 24 L 9 24 L 9 23 L 9 19 L 11 19 L 11 23 L 11 24 L 12 24 L 16 24 L 17 24 L 17 23 L 17 9 L 17 8 L 16 8 L 12 8 L 11 8 L 11 9 L 11 13 L 9 13 L 9 9 L 9 8 L 8 8 L 4 8 L 3 8 z M 24.5 8 C 22.026562 8 20 10.026562 20 12.5 L 20 14 L 22 14 L 22 12.5 C 22 11.107438 23.107438 10 24.5 10 C 25.892562 10 27 11.107438 27 12.5 L 27 14.15625 C 27 15.033154 26.603322 15.86701 25.9375 16.4375 L 20.34375 21.25 L 20 21.53125 L 20 22 L 20 23 L 20 24 L 21 24 L 29 24 L 29 22 L 22.53125 22 L 27.25 17.96875 C 28.358178 17.01924 29 15.615346 29 14.15625 L 29 12.5 C 29 10.026562 26.973438 8 24.5 8 z M 5 10 L 7 10 L 7 14 L 7 15 L 8 15 L 12 15 L 13 15 L 13 14 L 13 10 L 15 10 L 15 22 L 13 22 L 13 18 L 13 17 L 12 17 L 8 17 L 7 17 L 7 18 L 7 22 L 5 22 L 5 10 z" overflow="visible" font-family="Bitstream Vera Sans" fill="#000000"/></svg>
