<?xml version="1.0" encoding="utf-8"?>
<svg xmlns="http://www.w3.org/2000/svg" viewBox="0 0 32 32" fill="#000000"><path style="text-indent:0;text-align:start;line-height:normal;text-transform:none;block-progression:tb;-inkscape-font-specification:Sans" d="M 11.4375 5 L 11.15625 5.46875 L 3.15625 18.46875 L 2.84375 18.96875 L 3.125 19.5 L 7.125 26.5 L 7.40625 27 L 8 27 L 24 27 L 24.59375 27 L 24.875 26.5 L 28.875 19.5 L 29.15625 18.96875 L 28.84375 18.46875 L 20.84375 5.46875 L 20.5625 5 L 20 5 L 12 5 L 11.4375 5 z M 13.78125 7 L 19.4375 7 L 26.21875 18 L 20.5625 18 L 13.78125 7 z M 12 7.90625 L 14.96875 12.75 L 8.03125 24.03125 L 5.15625 19 L 12 7.90625 z M 16.15625 14.65625 L 18.21875 18 L 14.09375 18 L 16.15625 14.65625 z M 12.875 20 L 26.28125 20 L 23.40625 25 L 9.78125 25 L 12.875 20 z" overflow="visible" font-family="Sans" fill="#000000"/></svg>
