<?xml version="1.0" encoding="utf-8"?>
<svg xmlns="http://www.w3.org/2000/svg" viewBox="0 0 32 32" fill="#000000"><path style="text-indent:0;text-align:start;line-height:normal;text-transform:none;block-progression:tb;-inkscape-font-specification:Sans" d="M 16 3 C 15.036463 3 14.162373 3.1688134 13.4375 3.53125 C 12.712627 3.8936866 12 4.5453462 12 5.5 C 12 6.4546538 12.712627 7.1063134 13.4375 7.46875 C 14.162373 7.8311866 15.036463 8 16 8 C 16.963537 8 17.837627 7.8311866 18.5625 7.46875 C 19.287373 7.1063134 20 6.4546538 20 5.5 C 20 4.5453462 19.287373 3.8936866 18.5625 3.53125 C 17.837627 3.1688134 16.963537 3 16 3 z M 7 5 C 5.8497986 5 4.8694708 5.564524 4.28125 6.3125 C 3.6930292 7.060476 3.398009 7.941957 3.21875 8.78125 C 2.8670307 10.428004 2.9954551 11.940898 3 12 C 3 12.02396 2.999919 12.03866 3 12.0625 C 3.011331 15.396066 3.8260491 17.565416 4.5625 19.84375 C 5.3042172 22.138376 6 24.611111 6 29 L 8 29 C 8 24.388889 7.1957828 21.564624 6.4375 19.21875 C 5.6792172 16.872876 5 15.063672 5 12 L 5 11.96875 L 5 11.9375 C 5 11.9375 4.905268 10.540164 5.1875 9.21875 C 5.328616 8.558043 5.578502 7.939524 5.875 7.5625 C 6.171498 7.185476 6.4317014 7 7 7 C 8.3305648 7 9.3194578 7.7573575 10.03125 8.625 C 10.444016 9.1281432 10.680641 9.5681464 10.84375 9.90625 L 7.15625 15.4375 L 6.8125 15.96875 L 7.15625 16.5 L 10.28125 21.71875 C 10.159738 22.1006 10.035567 22.490494 10 22.90625 C 9.827 24.91925 10.68775 28.035 10.96875 29 L 13 29 C 12.686 27.992 11.86 24.72875 12 23.09375 C 12.012806 22.944265 12.063168 22.802025 12.09375 22.65625 L 16 25 L 19.90625 22.65625 C 19.936832 22.802025 19.987194 22.944265 20 23.09375 C 20.14 24.72875 19.314 27.992 19 29 L 21.03125 29 C 21.31225 28.035 22.173 24.91925 22 22.90625 C 21.964433 22.490494 21.840262 22.1006 21.71875 21.71875 L 24.84375 16.5 L 25.1875 15.96875 L 24.84375 15.4375 L 21.15625 9.90625 C 21.319388 9.568135 21.556077 9.1281068 21.96875 8.625 C 22.680382 7.7574203 23.668822 7 25 7 C 25.568299 7 25.828502 7.185476 26.125 7.5625 C 26.421498 7.939524 26.671384 8.558043 26.8125 9.21875 C 27.094732 10.540164 27 11.9375 27 11.9375 L 27 11.96875 L 27 12 C 27 15.063672 26.320783 16.872876 25.5625 19.21875 C 24.804217 21.564624 24 24.388889 24 29 L 26 29 C 26 24.611111 26.695783 22.138376 27.4375 19.84375 C 28.173951 17.565416 28.988669 15.396066 29 12.0625 C 29.000041 12.05058 28.99998 12.0432 29 12.03125 C 29.000022 12.030963 28.999956 12.00057 29 12 C 29.0045 11.9409 29.132969 10.428004 28.78125 8.78125 C 28.601991 7.941957 28.306971 7.060476 27.71875 6.3125 C 27.130529 5.564524 26.150201 5 25 5 C 22.893178 5 21.366368 6.2425797 20.4375 7.375 C 19.765375 8.1944143 19.616266 8.6080009 19.4375 9 L 18 9 L 18 11 L 19.4375 11 L 22.8125 16.0625 L 20.65625 19.625 C 20.403868 19.258482 20.184865 18.939857 20 18.71875 L 20 12 L 16 16 L 18.875 16 L 17.90625 19.34375 L 18.28125 19.71875 C 18.29228 19.72978 19.268042 20.710528 19.75 22 L 12.25 22 C 12.731958 20.710528 13.70772 19.72978 13.71875 19.71875 L 14.09375 19.34375 L 13.125 16 L 16 16 L 12 12 L 12 18.71875 C 11.815135 18.939857 11.596132 19.258482 11.34375 19.625 L 9.1875 16.0625 L 12.5625 11 L 14 11 L 14 9 L 12.5625 9 C 12.383656 8.6080279 12.23469 8.1943688 11.5625 7.375 C 10.633542 6.2426425 9.1064352 5 7 5 z M 16 5 C 16.693317 5 17.326587 5.1632934 17.6875 5.34375 C 17.844821 5.4224106 17.897817 5.4635541 17.9375 5.5 C 17.897817 5.5364459 17.844821 5.5775894 17.6875 5.65625 C 17.326587 5.8367066 16.693317 6 16 6 C 15.306683 6 14.673413 5.8367066 14.3125 5.65625 C 14.155179 5.5775894 14.102183 5.5364459 14.0625 5.5 C 14.102183 5.4635541 14.155179 5.4224106 14.3125 5.34375 C 14.673413 5.1632934 15.306683 5 16 5 z" fill="#000000"/></svg>
