<?xml version="1.0" encoding="utf-8"?>
<svg xmlns="http://www.w3.org/2000/svg" viewBox="0 0 32 32" fill="#000000"><path style="text-indent:0;text-align:start;line-height:normal;text-transform:none;block-progression:tb;-inkscape-font-specification:Bitstream Vera Sans" d="M 10.84375 5 C 10.013447 5 9.292994 5.5284953 8.9375 6.0625 C 8.582006 6.5965047 8.4123785 7.1463156 8.21875 7.625 C 8.0251215 8.1036844 7.8169446 8.5069182 7.625 8.71875 C 7.4330554 8.9305818 7.3203415 9.03125 6.90625 9.03125 C 6.4429194 9.03125 5.65625 8.5 5.65625 8.5 L 4.375 10.03125 C 4.375 10.03125 5.4055806 11.03125 6.90625 11.03125 C 7.8236585 11.03125 8.6337883 10.604606 9.125 10.0625 C 9.6162117 9.5203943 9.8495035 8.9015656 10.0625 8.375 C 10.275497 7.8484344 10.478588 7.4074328 10.625 7.1875 C 10.771412 6.9675672 10.705053 7 10.84375 7 C 11.157291 7 11.176688 7.02266 11.5 7.5 C 11.823312 7.9773398 12.229112 8.8450731 12.8125 9.96875 C 12.873535 10.086354 13.13369 10.52774 13.21875 10.6875 C 12.968859 10.869294 12.78125 11.136082 12.78125 11.46875 C 12.78125 12.021035 13.228965 12.46875 13.78125 12.46875 C 13.908946 12.46875 14.043976 12.449878 14.15625 12.40625 C 14.285463 12.642861 14.420074 12.865728 14.5625 13.125 C 14.237377 13.290069 14 13.61041 14 14 C 14 14.552285 14.447715 15 15 15 C 15.18732 15 15.350128 14.933369 15.5 14.84375 C 15.652658 15.118731 15.720108 15.253286 15.875 15.53125 C 15.530087 15.688988 15.3125 16.033439 15.3125 16.4375 C 15.3125 16.989784 15.760215 17.4375 16.3125 17.4375 C 16.516364 17.4375 16.685641 17.385998 16.84375 17.28125 C 17.339604 18.168538 17.847361 19.090318 18.21875 19.75 C 18.475253 20.205616 18.691524 20.574155 18.84375 20.84375 C 18.995976 21.113345 19.06847 21.21646 19.125 21.3125 C 19.19502 21.429455 19.276205 21.571153 19.5 21.71875 C 19.723795 21.866347 20.310538 21.958753 20.6875 21.6875 C 21.064462 21.416247 21.076964 21.098088 21.09375 20.90625 C 21.11054 20.714412 21.10399 20.572085 21.0625 20.4375 C 21.09331 20.53745 21.0587 20.42057 21.03125 20.3125 C 21.00381 20.204428 20.95079 20.054113 20.90625 19.875 C 20.81718 19.516773 20.712443 19.021762 20.59375 18.53125 C 20.356363 17.550226 20.099283 16.436306 20.0625 16.21875 C 19.953221 15.572716 20.15625 13.84375 20.15625 13.84375 L 20.1875 13.625 L 23.03125 14.5625 L 22.9375 14.625 L 22.8125 14.78125 C 22.8125 14.78125 22.518659 15.194151 22.3125 15.75 C 22.106341 16.305849 21.889369 17.170735 22.375 18 C 22.511826 18.233364 22.990635 19.108911 23.5 20.09375 C 24.418247 21.871232 23.718198 24.023534 21.9375 24.9375 C 20.045241 25.908455 17.768777 25.064259 16.96875 23.09375 L 11.3125 9.1875 C 11.3125 9.1875 11.037 10.52125 10 11.03125 L 15.125 23.84375 C 16.354973 26.873241 19.965259 28.211795 22.875 26.71875 C 25.618302 25.310716 26.697003 21.928018 25.28125 19.1875 C 24.768615 18.196339 24.348174 17.349386 24.125 16.96875 C 24.09763 16.92201 24.08341 16.718151 24.1875 16.4375 C 24.25776 16.24806 24.292488 16.177464 24.34375 16.09375 L 25.625 15.375 L 25.96875 15.15625 L 26.09375 14.78125 L 26.1875 14.5 L 26.46875 13.5625 L 25.53125 13.25 L 18.65625 11.03125 L 17.6875 10.71875 L 17.375 11.6875 L 17.3125 11.96875 L 17.1875 12.375 L 17.40625 12.78125 L 18.1875 14 C 18.14723 14.225844 18.15512 14.827748 18.125 15.46875 C 18.09954 15.42328 18.08804 15.38938 18.0625 15.34375 C 16.634283 12.79222 15.081088 10.001516 14.59375 9.0625 C 14.040138 7.9961769 13.654188 7.1101602 13.15625 6.375 C 12.658312 5.6398398 11.836209 5 10.84375 5 z" overflow="visible" font-family="Bitstream Vera Sans" fill="#000000"/></svg>
