<?xml version="1.0" encoding="utf-8"?>
<svg xmlns="http://www.w3.org/2000/svg" viewBox="0 0 32 32" fill="#000000"><path style="text-indent:0;text-align:start;line-height:normal;text-transform:none;block-progression:tb;-inkscape-font-specification:Sans" d="M 15 4 L 15 6 L 13 6 L 13 8 L 15 8 L 15 9.1875 C 14.009998 9.5546783 13.248125 10.435035 13.0625 11.5 C 12.278481 11.163209 11.404507 11 10.5 11 C 6.9217323 11 4 13.921732 4 17.5 C 4 19.79151 5.1984632 21.810652 7 22.96875 L 7 23 L 7 26 L 7 27 L 8 27 L 24 27 L 25 27 L 25 26 L 25 23 L 25 22.96875 C 26.801537 21.810652 28 19.79151 28 17.5 C 28 13.921732 25.078268 11 21.5 11 C 20.595493 11 19.721519 11.163209 18.9375 11.5 C 18.751875 10.435035 17.990002 9.5546783 17 9.1875 L 17 8 L 19 8 L 19 6 L 17 6 L 17 4 L 15 4 z M 16 11 C 16.564128 11 17 11.435872 17 12 C 17 12.564128 16.564128 13 16 13 C 15.435872 13 15 12.564128 15 12 C 15 11.435872 15.435872 11 16 11 z M 10.5 13 C 12.997732 13 15 15.002268 15 17.5 L 15 22 L 10.5 22 C 8.0022677 22 6 19.997732 6 17.5 C 6 15.002268 8.0022677 13 10.5 13 z M 21.5 13 C 23.997732 13 26 15.002268 26 17.5 C 26 19.997732 23.997732 22 21.5 22 L 17 22 L 17 17.5 C 17 15.002268 19.002268 13 21.5 13 z M 9 24 L 23 24 L 23 25 L 9 25 L 9 24 z" fill="#000000"/></svg>
