<?xml version="1.0" encoding="utf-8"?>
<svg xmlns="http://www.w3.org/2000/svg" viewBox="0 0 32 32" fill="#000000"><path style="text-indent:0;text-align:start;line-height:normal;text-transform:none;block-progression:tb;-inkscape-font-specification:Bitstream Vera Sans" d="M 13 8 L 13 10 L 15 10 L 15 11 L 17 11 L 17 10 L 19 10 L 19 8 L 13 8 z M 9 11 C 7.9069372 11 7 11.906937 7 13 L 7 15 C 4.8026661 15 3 16.802666 3 19 C 3 20.185029 3.5472488 21.234149 4.375 21.96875 C 4.2540877 21.982946 4.1274684 22 4 22 C 3.3665518 22 2.7956774 21.812099 2.4375 21.5625 C 2.0793226 21.312901 2 21.042136 2 21 L 0 21 C 0 21.941864 0.58867738 22.683099 1.3125 23.1875 C 2.0363226 23.691901 2.9614482 24 4 24 C 5.035362 24 5.9618851 23.690468 6.6875 23.1875 C 6.7754483 23.126538 6.858126 23.067522 6.9375 23 C 6.9582783 23.000323 6.9791494 23 7 23 L 7 22.9375 C 7.1012319 23.023981 7.2036063 23.111617 7.3125 23.1875 C 8.0363226 23.691901 8.9614482 24 10 24 C 11.035362 24 11.961885 23.690468 12.6875 23.1875 C 12.800184 23.109392 12.895686 23.026988 13 22.9375 C 13.101232 23.023981 13.203606 23.111617 13.3125 23.1875 C 14.036323 23.691901 14.961448 24 16 24 C 17.035362 24 17.961885 23.690468 18.6875 23.1875 C 18.800184 23.109392 18.895686 23.026988 19 22.9375 C 19.101232 23.023981 19.203606 23.111617 19.3125 23.1875 C 20.036323 23.691901 20.961448 24 22 24 C 23.035362 24 23.961885 23.690468 24.6875 23.1875 C 24.800184 23.109392 24.895686 23.026988 25 22.9375 L 25 23 C 25.020946 23 25.041626 23.000311 25.0625 23 C 25.142104 23.067408 25.22751 23.128274 25.3125 23.1875 C 26.036323 23.691901 26.961448 24 28 24 C 29.035362 24 29.961885 23.690468 30.6875 23.1875 C 31.413115 22.684532 32 21.942667 32 21 L 30 21 C 30 21.05733 29.91888 21.315468 29.5625 21.5625 C 29.206115 21.809532 28.636638 22 28 22 C 27.883681 22 27.76742 21.98064 27.65625 21.96875 C 28.46868 21.234649 29 20.172636 29 19 C 29 16.802666 27.197334 15 25 15 L 25 13 C 25 11.906937 24.093063 11 23 11 L 18.21875 11 L 17.78125 11 L 17.46875 11.34375 C 17.095862 11.75807 16.591215 12 16 12 C 15.408785 12 14.904138 11.75807 14.53125 11.34375 L 14.21875 11 L 13.78125 11 L 9 11 z M 9 13 L 13.5 13 C 14.188451 13.573652 15.031233 14 16 14 C 16.968767 14 17.811549 13.573652 18.5 13 L 23 13 L 23 15 L 9 15 L 9 13 z M 7 17 L 25 17 C 26.116666 17 27 17.883334 27 19 C 27 19.644285 26.715189 20.196089 26.25 20.5625 C 25.908193 20.832066 25.472755 21 25 21 L 24 21 C 24 21.05733 23.91888 21.315468 23.5625 21.5625 C 23.206115 21.809532 22.636638 22 22 22 C 21.366552 22 20.795677 21.812099 20.4375 21.5625 C 20.079323 21.312901 20 21.042136 20 21 L 18 21 C 18 21.05733 17.91888 21.315468 17.5625 21.5625 C 17.206115 21.809532 16.636638 22 16 22 C 15.366552 22 14.795677 21.812099 14.4375 21.5625 C 14.079323 21.312901 14 21.042136 14 21 L 12 21 C 12 21.05733 11.91888 21.315468 11.5625 21.5625 C 11.206115 21.809532 10.636638 22 10 22 C 9.3665518 22 8.7956774 21.812099 8.4375 21.5625 C 8.0793226 21.312901 8 21.042136 8 21 L 7 21 C 5.8833339 21 5 20.116666 5 19 C 5 17.883334 5.8833339 17 7 17 z" fill="#000000"/></svg>
