<?xml version="1.0" encoding="utf-8"?>
<svg xmlns="http://www.w3.org/2000/svg" viewBox="0 0 32 32" fill="#000000"><path style="line-height:normal;text-indent:0;text-align:start;text-decoration-line:none;text-decoration-style:solid;text-decoration-color:#000;text-transform:none;block-progression:tb;isolation:auto;mix-blend-mode:normal" d="M 14 4 C 10.692267 4 8.0833073 5.4043207 6.421875 7.6230469 C 4.7604427 9.841773 4 12.802006 4 16 C 4 22.615466 9.3845336 28 16 28 C 22.615466 28 28 22.615466 28 16 C 28 13.62632 26.896184 11.813986 25.763672 10.519531 C 25.197416 9.8723042 24.618874 9.3400089 24.152344 8.90625 C 23.685813 8.4724911 23.328296 8.1043324 23.25 7.984375 L 23.25 7.9824219 C 22.659764 7.078867 21.836002 6.010065 20.394531 5.2402344 C 18.95306 4.4704037 16.953851 4 14 4 z M 14 6 C 16.741149 6 18.389643 6.4369869 19.451172 7.0039062 C 20.512701 7.5708256 21.047408 8.2667236 21.576172 9.0761719 C 21.902876 9.5767145 22.321546 9.9346024 22.791016 10.371094 C 23.260485 10.807585 23.77857 11.288165 24.257812 11.835938 C 25.024918 12.712734 25.673252 13.72674 25.904297 15 L 24 15 L 24 17 L 25.951172 17 C 25.450989 22.062074 21.19656 26 16 26 C 10.465466 26 6 21.534534 6 16 C 6 13.122994 6.7016667 10.582836 8.0214844 8.8203125 C 9.3413021 7.0577886 11.232733 6 14 6 z M 16 7 L 16 9 L 18 9 L 18 7 L 16 7 z M 16 11 L 16 13 L 18 13 L 18 11 L 16 11 z M 8 15 L 8 17 L 10 17 L 10 15 L 8 15 z M 12 15 L 12 17 L 14 17 L 14 15 L 12 15 z M 16 15 L 16 17 L 18 17 L 18 15 L 16 15 z M 20 15 L 20 17 L 22 17 L 22 15 L 20 15 z M 16 19 L 16 21 L 18 21 L 18 19 L 16 19 z M 16 23 L 16 25 L 18 25 L 18 23 L 16 23 z" font-weight="400" font-family="sans-serif" white-space="normal" overflow="visible" fill="#000000"/></svg>
