<?xml version="1.0" encoding="utf-8"?>
<svg xmlns="http://www.w3.org/2000/svg" viewBox="-7 9 32 32" fill="#000000"><path d="M 16 4 C 14.9 4 12.4 4 11.5 5.5 L 11.5 5.59375 C 11.4 5.79375 9.8125 9.29375 9.3125 10.59375 C 8.7125 12.19375 9.4125 14.1125 10.3125 15.3125 C 11.0125 16.4125 19.7 27.19375 20 27.59375 L 20.59375 28.40625 L 25.59375 24.3125 L 25.09375 23.5 C 23.99375 22.1 22.0875 19.80625 20.1875 17.40625 C 21.5875 15.70625 21.8125 15.4125 21.8125 15.3125 C 22.7125 14.1125 23.4125 12.19375 22.8125 10.59375 C 22.3125 9.29375 20.69375 5.79375 20.59375 5.59375 L 20.59375 5.5 C 20.59375 5.4 20.5 5.4125 20.5 5.3125 C 19.3 4.0125 17 4 16 4 z M 16 6 C 17.8 6 18.4875 6.3 18.6875 6.5 C 18.6875 6.7 18.69375 7.0125 18.59375 7.3125 L 18.59375 7.5 C 18.59375 7.7 18.50625 7.8875 18.40625 8.1875 C 17.80625 7.9875 17.1 8 16 8 C 14.9 8 14.19375 7.99375 13.59375 8.09375 C 13.49375 7.89375 13.50625 7.60625 13.40625 7.40625 L 13.40625 7.1875 C 13.30625 6.7875 13.3125 6.60625 13.3125 6.40625 C 13.5125 6.30625 14.2 6 16 6 z M 11.90625 9.5 C 12.10625 10.1 12.40625 10.8 12.90625 11.5 C 13.70625 12.7 20.60625 21.2 22.90625 24 L 21 25.59375 C 18.1 22.09375 12.40625 14.9875 11.90625 14.1875 C 11.30625 13.3875 10.79375 12.1125 11.09375 11.3125 C 11.19375 10.9125 11.50625 10.2 11.90625 9.5 z M 20.09375 9.5 C 20.39375 10.2 20.70625 10.9125 20.90625 11.3125 C 21.20625 12.1125 20.69375 13.3875 20.09375 14.1875 C 19.99375 14.2875 19.7125 14.7125 18.8125 15.8125 C 18.3125 15.1125 17.6875 14.50625 17.1875 13.90625 C 18.6875 12.00625 18.99375 11.6 19.09375 11.5 C 19.49375 10.8 19.89375 10.1 20.09375 9.5 z M 14.40625 10 L 16 10 L 17.59375 10 C 17.49375 10.1 17.50625 10.20625 17.40625 10.40625 C 17.40625 10.60625 17 11.0125 16 12.3125 C 15.3 11.4125 14.69375 10.70625 14.59375 10.40625 C 14.49375 10.30625 14.50625 10.2 14.40625 10 z M 10.90625 18.59375 C 8.80625 21.19375 6.90625 23.5 6.90625 23.5 L 6.3125 24.3125 L 11.3125 28.40625 L 12 27.59375 C 12 27.59375 13.39375 25.9125 15.09375 23.8125 C 14.69375 23.3125 14.2125 22.6875 13.8125 22.1875 C 12.6125 23.5875 11.6 24.79375 11 25.59375 L 9.09375 24 C 9.79375 23.2 10.8875 21.7875 12.1875 20.1875 C 11.6875 19.5875 11.30625 19.09375 10.90625 18.59375 z" transform="translate(-7 9)" fill="#000000"/></svg>
