<?xml version="1.0" encoding="utf-8"?>
<svg xmlns="http://www.w3.org/2000/svg" viewBox="0 0 32 32" fill="#000000"><path style="text-indent:0;text-align:start;line-height:normal;text-transform:none;block-progression:tb;-inkscape-font-specification:Sans" d="M 7 4 L 7 10 L 4 10 L 3 10 L 3 11 L 3 23 C 3 24.645455 4.3545455 26 6 26 L 14.21875 26 C 14.08575 25.352 14 24.684 14 24 L 8.8125 24 C 8.9267333 23.684213 9 23.353087 9 23 L 9 12 L 9 11 L 9 10 L 9 6 L 25 6 L 25 14.0625 C 25.69 14.1315 26.358 14.26575 27 14.46875 L 27 4 L 7 4 z M 11 8 L 11 9 L 11 12 L 11 13 L 12 13 L 22 13 L 23 13 L 23 12 L 23 9 L 23 8 L 22 8 L 12 8 L 11 8 z M 13 10 L 21 10 L 21 11 L 13 11 L 13 10 z M 5 12 L 7 12 L 7 23 C 7 23.554545 6.5545455 24 6 24 C 5.4454545 24 5 23.554545 5 23 L 5 12 z M 11 14 L 11 16 L 16 16 L 16 14 L 11 14 z M 18 14 L 18 16 L 18.03125 16 C 19.44925 14.938 21.144 14.2475 23 14.0625 L 23 14 L 18 14 z M 24 16 C 19.589 16 16 19.589 16 24 C 16 28.072 19.06 31.4425 23 31.9375 L 23 29.90625 C 20.167 29.42825 18 26.968 18 24 C 18 20.691 20.691 18 24 18 C 27.309 18 30 20.691 30 24 C 30 25.767226 29.220506 27.339853 28 28.4375 L 28 26 L 26 26 L 26 31 L 26 32 L 27 32 L 32 32 L 32 30 L 29.28125 30 C 30.950835 28.53402 32 26.391576 32 24 C 32 19.589 28.411 16 24 16 z M 11 17 L 11 19 L 15.34375 19 C 15.54075 18.661 15.766 18.34325 16 18.03125 L 16 17 L 11 17 z M 11 20 L 11 22 L 14.1875 22 C 14.3295 21.304 14.56475 20.636 14.84375 20 L 11 20 z" overflow="visible" font-family="Sans" fill="#000000"/></svg>
