<?xml version="1.0" encoding="utf-8"?>
<svg xmlns="http://www.w3.org/2000/svg" viewBox="0 0 32 32" fill="#000000"><path style="text-indent:0;text-align:start;line-height:normal;text-transform:none;block-progression:tb;-inkscape-font-specification:Sans" d="M 16 5.9375 L 15.65625 6.0625 L 2.65625 10.96875 L 2 11.21875 L 2 11.90625 L 2 12.09375 L 2 12.78125 L 2.65625 13.03125 L 15.65625 17.9375 L 16 18.0625 L 16.34375 17.9375 L 29.34375 13.03125 L 30 12.78125 L 30 12.09375 L 30 11.90625 L 30 11.21875 L 29.34375 10.96875 L 16.34375 6.0625 L 16 5.9375 z M 16 8.0625 L 26.40625 12 L 16 15.9375 L 5.59375 12 L 16 8.0625 z M 2 13.90625 L 2 16.78125 L 16 22.0625 L 30 16.78125 L 30 13.90625 L 28 14.65625 L 28 15.40625 L 16 19.9375 L 4 15.40625 L 4 14.65625 L 2 13.90625 z M 2 17.90625 L 2 20.78125 L 16 26.0625 L 30 20.78125 L 30 17.90625 L 28 18.65625 L 28 19.40625 L 16 23.9375 L 4 19.40625 L 4 18.65625 L 2 17.90625 z" overflow="visible" font-family="Sans" fill="#000000"/></svg>
