<?xml version="1.0" encoding="utf-8"?>
<svg xmlns="http://www.w3.org/2000/svg" viewBox="0 0 32 32" fill="#000000"><path style="text-indent:0;text-align:start;line-height:normal;text-transform:none;block-progression:tb;-inkscape-font-specification:Sans" d="M 24 4 C 21.802666 4 20 5.8026661 20 8 L 20 9 L 22 9 L 22 8 C 22 6.8833339 22.883334 6 24 6 C 25.127931 6 26 6.8463551 26 8 C 26 9.0258797 25.584256 9.3384374 24.9375 9.78125 C 24.614122 10.002656 24.24857 10.219988 23.875 10.5 C 23.50143 10.780012 23 11.273422 23 12 L 23 13 L 25 13 L 25 12.125 C 25.011289 12.117934 25.004368 12.137323 25.0625 12.09375 C 25.25143 11.952137 25.635878 11.729594 26.0625 11.4375 C 26.915744 10.853313 28 9.7471203 28 8 C 28 5.7836449 26.186069 4 24 4 z M 13 9 C 9.6983746 9 7 11.698375 7 15 C 7 16.943641 7.9321501 18.683172 9.375 19.78125 C 6.2154025 21.180341 4 24.331085 4 28 L 6 28 C 6 24.122516 9.1225161 21 13 21 C 16.877484 21 20 24.122516 20 28 L 22 28 C 22 24.356071 19.812712 21.225918 16.6875 19.8125 C 17.471576 19.348804 18.205166 18.809761 18.875 18.28125 C 20.526039 16.978552 21.71875 15.6875 21.71875 15.6875 L 22.375 15 L 21.75 14.3125 C 21.75 14.3125 20.546457 13.024024 18.90625 11.71875 C 17.266043 10.413476 15.202343 9 13 9 z M 13 11 C 14.231657 11 16.154957 12.086524 17.65625 13.28125 C 18.725824 14.132415 19.091843 14.580152 19.5 15 C 19.08047 15.422703 18.701896 15.869061 17.625 16.71875 C 16.107539 17.916052 14.161898 19 13 19 C 10.779625 19 9 17.220375 9 15 C 9 12.779625 10.779625 11 13 11 z M 24 14.5 C 23.171573 14.5 22.5 15.171573 22.5 16 C 22.5 16.828427 23.171573 17.5 24 17.5 C 24.828427 17.5 25.5 16.828427 25.5 16 C 25.5 15.171573 24.828427 14.5 24 14.5 z" overflow="visible" font-family="Sans" fill="#000000"/></svg>
