<?xml version="1.0" encoding="utf-8"?>
<svg xmlns="http://www.w3.org/2000/svg" viewBox="0 0 32 32" fill="#000000"><path style="text-indent:0;text-align:start;line-height:normal;text-transform:none;block-progression:tb;-inkscape-font-specification:Sans" d="M 13.6875 10 C 11.368905 10 9.8183555 11.284655 8.90625 12.5625 C 8.3417652 13.330928 7.9081705 14.27898 7.375 15.09375 C 6.8418295 15.90852 6.2695945 16.52065 5.6875 16.71875 L 5.65625 16.71875 C 3.992125 17.358215 3.4060039 16.870615 3.125 16.34375 C 2.8439961 15.816885 2.9630599 15.191597 3.4375 14.96875 L 4 14.71875 L 4 14.0625 L 4 14 L 4 13 L 3 13 C 2.8220508 13 2.7297416 13.154874 2.5625 13.1875 C 2.0584373 13.28583 1.5467905 13.388818 1.21875 13.6875 C 0.78186977 14.085281 0.51082722 14.566468 0.34375 15 C 0.00959557 15.867065 0 16.65625 0 16.65625 L 0 16.6875 C 0 17.89144 0.38130906 19.339561 1.625 20.375 C 2.8686909 21.410439 4.8233834 22 7.75 22 C 10.705996 22 13.910024 21.243349 16 19.28125 C 18.089362 21.243576 21.293169 22 24.25 22 C 27.176617 22 29.131309 21.410439 30.375 20.375 C 31.618691 19.339561 32 17.89144 32 16.6875 L 32 16.65625 C 32 16.65625 31.9904 15.867065 31.65625 15 C 31.489173 14.566468 31.21813 14.085281 30.78125 13.6875 C 30.453209 13.388818 29.941563 13.285833 29.4375 13.1875 C 29.270258 13.154874 29.177949 13 29 13 L 28 13 L 28 14 L 28 14.0625 L 28 14.71875 L 28.5625 14.96875 C 29.036342 15.191424 29.15594 15.816877 28.875 16.34375 C 28.59406 16.870623 28.007901 17.358225 26.34375 16.71875 L 26.3125 16.71875 C 25.730557 16.520702 25.158204 15.908685 24.625 15.09375 C 24.091796 14.278815 23.658537 13.330732 23.09375 12.5625 C 22.180846 11.285108 20.630268 10 18.3125 10 C 17.428554 10 16.675457 10.372748 16 10.875 C 15.324418 10.372467 14.571446 10 13.6875 10 z M 13.6875 12 C 14.295884 12 14.818279 12.24874 15.25 12.75 L 16 13.65625 L 16.75 12.75 C 17.183377 12.24766 17.704116 12 18.3125 12 C 19.946732 12 20.753654 12.718142 21.46875 13.71875 L 21.46875 13.75 C 21.833963 14.246768 22.338954 15.224935 22.96875 16.1875 C 23.591451 17.139221 24.40285 18.119569 25.65625 18.5625 L 25.65625 18.59375 C 25.66515 18.59685 25.67859 18.59075 25.6875 18.59375 C 27.39713 19.240036 28.720127 18.806317 29.6875 18.03125 C 29.54603 18.314952 29.393252 18.594399 29.09375 18.84375 C 28.360691 19.454061 26.904383 20 24.25 20 C 21.312545 20 18.113334 19.06399 16.78125 17.34375 L 16 16.3125 L 15.21875 17.34375 C 13.885592 19.064343 10.686393 20 7.75 20 C 5.0956166 20 3.6393091 19.454061 2.90625 18.84375 C 2.6067484 18.594399 2.4539699 18.314952 2.3125 18.03125 C 3.2799851 18.806296 4.6028496 19.240044 6.3125 18.59375 C 6.326897 18.58885 6.32947 18.56755 6.34375 18.5625 C 7.5970048 18.119625 8.4085162 17.139137 9.03125 16.1875 C 9.6610795 15.22502 10.165735 14.247572 10.53125 13.75 L 10.53125 13.71875 C 11.245144 12.718595 12.052095 12 13.6875 12 z" overflow="visible" font-family="Sans" fill="#000000"/></svg>
