<?xml version="1.0" encoding="utf-8"?>
<svg xmlns="http://www.w3.org/2000/svg" viewBox="0 0 32 32" fill="#000000"><path style="text-indent:0;text-align:start;line-height:normal;text-transform:none;block-progression:tb;-inkscape-font-specification:Sans" d="M 19 10 C 16.035015 10 13.568566 12.165217 13.09375 15 L 9 15 L 9 12 L 5 16 L 9 20 L 9 17 L 13.09375 17 C 13.568566 19.834783 16.035015 22 19 22 C 22.301864 22 25 19.301864 25 16 C 25 12.698136 22.301864 10 19 10 z M 19 12 C 21.220984 12 23 13.779016 23 16 C 23 18.220984 21.220984 20 19 20 C 16.779016 20 15 18.220984 15 16 C 15 13.779016 16.779016 12 19 12 z" overflow="visible" font-family="Sans" fill="#000000"/></svg>
