<?xml version="1.0" encoding="utf-8"?>
<svg xmlns="http://www.w3.org/2000/svg" viewBox="0 0 32 32" fill="#000000"><path style="text-indent:0;text-align:start;line-height:normal;text-transform:none;block-progression:tb;-inkscape-font-specification:Bitstream Vera Sans" d="M 23.625 3.9375 L 23.28125 4.28125 L 4.28125 23.28125 L 3.875 23.71875 L 4.03125 24.28125 C 4.03125 24.28125 4.1475692 24.676366 4.34375 25.15625 C 4.5399308 25.636134 4.7817433 26.219243 5.28125 26.71875 C 5.7807567 27.218257 6.3638659 27.460069 6.84375 27.65625 C 7.3236341 27.852431 7.71875 27.96875 7.71875 27.96875 L 8.28125 28.125 L 8.71875 27.71875 L 16.5 19.9375 L 16.90625 20.34375 A 1.016466 1.016466 0 0 0 16.9375 20.375 L 16.15625 21.15625 L 16.84375 21.84375 L 18.21875 20.46875 A 1.016466 1.016466 0 0 0 18.4375 20.25 L 21.21875 17.46875 A 1.016466 1.016466 0 0 0 21.4375 17.25 L 24.21875 14.46875 A 1.016466 1.016466 0 0 0 24.4375 14.25 L 25.84375 12.875 L 25.125 12.15625 L 24.375 12.9375 A 1.016466 1.016466 0 0 0 24.34375 12.90625 L 23.9375 12.5 L 27.6875 8.71875 L 28.03125 8.375 L 28 7.90625 C 28 7.90625 27.854509 6.4170088 26.71875 5.28125 C 25.587397 4.1498969 24.125 4 24.125 4 L 23.625 3.9375 z M 24.25 6.1875 C 24.519862 6.256025 24.854745 6.2922451 25.28125 6.71875 C 25.714672 7.1521719 25.749487 7.518533 25.8125 7.78125 L 22.5 11.09375 L 22.15625 10.75 A 1.0001 1.0001 0 0 0 21.34375 10.4375 A 1.0001 1.0001 0 0 0 21.25 10.4375 A 1.0001 1.0001 0 0 0 20.75 12.15625 L 21.09375 12.5 L 19.5 14.09375 L 19.15625 13.75 A 1.0001 1.0001 0 0 0 18.34375 13.4375 A 1.0001 1.0001 0 0 0 18.25 13.4375 A 1.0001 1.0001 0 0 0 17.75 15.15625 L 18.09375 15.5 L 16.5 17.09375 L 16.15625 16.75 A 1.0001 1.0001 0 0 0 15.34375 16.4375 A 1.0001 1.0001 0 0 0 15.25 16.4375 A 1.0001 1.0001 0 0 0 14.75 18.15625 L 15.09375 18.5 L 12.21875 21.34375 L 10.6875 19.75 L 24.25 6.1875 z M 22.5 13.9375 L 22.90625 14.34375 A 1.016466 1.016466 0 0 0 22.9375 14.375 L 21.375 15.9375 A 1.016466 1.016466 0 0 0 21.34375 15.90625 L 20.9375 15.5 L 22.5 13.9375 z M 19.5 16.9375 L 19.90625 17.34375 A 1.016466 1.016466 0 0 0 19.9375 17.375 L 18.375 18.9375 A 1.016466 1.016466 0 0 0 18.34375 18.90625 L 17.9375 18.5 L 19.5 16.9375 z M 9.28125 21.15625 L 10.8125 22.75 L 7.71875 25.84375 C 7.670161 25.825219 7.6772666 25.833867 7.625 25.8125 C 7.2591341 25.662931 6.8362433 25.398743 6.71875 25.28125 C 6.6012567 25.163757 6.3370692 24.740866 6.1875 24.375 C 6.166133 24.322733 6.1747809 24.329839 6.15625 24.28125 L 9.28125 21.15625 z" fill="#000000"/></svg>
