<?xml version="1.0" encoding="utf-8"?>
<svg xmlns="http://www.w3.org/2000/svg" viewBox="0 0 32 32" fill="#000000"><path style="text-indent:0;text-align:start;line-height:normal;text-transform:none;block-progression:tb;-inkscape-font-specification:Sans" d="M 15.09375 0.90625 L 14.53125 1.90625 L 14.21875 2.4375 L 13.4375 2.1875 L 12.875 2 L 12.4375 2.40625 C 11.422113 3.3306392 11.091009 4.0234183 10.84375 4.46875 C 10.63094 4.44761 10.566768 4.45915 10.1875 4.40625 L 9.375 4.28125 L 9.09375 5.03125 C 8.9381041 5.4490727 8.7809101 5.90656 8.625 6.34375 L 8.40625 6.34375 L 7.84375 6.34375 L 7.5625 6.8125 C 7.5625 6.8125 6.9603317 7.8041418 6.625 9.0625 C 6.4371899 9.7665631 6.4664905 10.392639 6.46875 11 L 6 10.78125 L 6.09375 12.5 C 6.09375 12.5 6.1725043 14.169466 6.96875 15.71875 C 7.1609877 16.231771 7.4320372 16.692896 7.6875 17.125 C 8.021915 17.690649 8.185454 17.868447 8.375 18.125 L 7.71875 19.71875 L 7.46875 20.3125 L 7.9375 20.8125 L 8.71875 21.5625 L 9.0625 21.90625 L 9.4375 21.875 C 9.44619 21.95704 9.422129 22.018251 9.46875 22.15625 C 9.422507 22.019987 9.8303514 23.830755 9.84375 24 L 9.84375 24.03125 C 9.886142 24.466898 10.073403 24.704117 10.21875 24.9375 C 10.368398 25.177787 10.538904 25.400428 10.71875 25.625 C 11.078443 26.074143 11.467121 26.517161 11.65625 26.75 C 12.166795 27.378538 12.65625 27.78125 12.65625 27.78125 L 12.9375 28 L 13.28125 28 L 19.09375 28 L 19.5 28 L 19.6875 28 L 19.96875 27.5 C 19.96875 27.5 21.681516 24.56153 22.25 23.3125 C 22.554479 22.644268 22.528617 22.460226 22.625 21.96875 L 23.15625 22.1875 L 23.625 21.5625 L 24.53125 20.34375 L 25 19.6875 L 24.46875 19.09375 L 24.03125 18.59375 L 25.21875 16.6875 L 25.34375 16.5 L 25.375 16.28125 L 25.71875 13.71875 L 25.6875 13.71875 C 25.815346 13.137382 26.09375 11.797345 26.09375 10.21875 C 26.09375 7.8700042 24.6875 6.3125 24.6875 6.3125 L 24.1875 5.75 L 23.8125 5.9375 C 23.454791 5.3414223 22.924527 4.5812151 22.09375 3.84375 L 21.125 2.96875 L 20.6875 3.8125 C 19.691185 2.7752183 18.65625 1.96875 18.65625 1.96875 L 18.15625 1.59375 L 17.625 1.90625 L 16.875 2.28125 L 16 1.625 L 15.09375 0.90625 z M 19.5 28 L 16.8125 29.375 C 16.8125 29.375 16.484 29 16.125 29 C 15.802 29 15.52275 29.40775 15.46875 29.46875 C 15.23575 29.46875 13.254 28.034 12.125 28.125 C 11.928 29.216 12.14475 30.576 12.71875 31 C 13.16675 31 15.5625 29.84375 15.5625 29.84375 C 15.5625 29.84375 15.8105 30.21875 16.3125 30.21875 C 16.8155 30.21875 16.874 29.901 17 29.75 C 18.936 30.857 19.875 31 19.875 31 C 19.875 31 20.0625 30.44025 20.0625 29.53125 C 20.0625 28.62225 19.5 28 19.5 28 z M 15.6875 3.90625 L 16.125 4.25 L 16.65625 4.65625 L 17.21875 4.34375 L 17.90625 3.96875 C 18.34696 4.3124423 19.520871 5.1980634 20.0625 6.0625 L 21 7.5625 L 21.59375 6.4375 C 21.883715 6.8938593 22.46875 7.625 22.46875 7.625 L 22.84375 8.59375 L 23.59375 8.25 C 23.844066 8.6945201 24.09375 9.3335599 24.09375 10.21875 C 24.09375 10.27495 24.09475 10.28689 24.09375 10.34375 C 24.00067 10.171317 23.99655 10.008521 23.875 9.84375 L 23.03125 8.71875 L 22.3125 9.84375 L 21.71875 9 L 20.8125 7.71875 L 20.09375 8.96875 C 19.699849 8.4144205 19.595809 8.0763598 18.9375 7.53125 L 18.03125 6.8125 L 17.4375 7.78125 C 17.37727 7.879715 17.39683 7.875694 17.34375 7.96875 L 16.59375 7.375 L 15.96875 6.90625 L 15.34375 7.40625 L 13.1875 9.21875 L 12.875 8.96875 L 12.09375 8.40625 L 11.5 9.1875 L 10.46875 10.59375 L 9.90625 9.8125 L 9.0625 10.78125 C 9.0625 10.78125 8.74157 11.251205 8.53125 11.53125 C 8.4681961 10.968547 8.3356093 10.444319 8.5625 9.59375 C 8.7433452 8.9151144 8.9449643 8.5901478 9.09375 8.3125 L 9.375 8.3125 L 10.0625 8.3125 L 10.28125 7.65625 C 10.28125 7.65625 10.527165 7.0012896 10.71875 6.46875 C 10.861446 6.482336 11.21875 6.53125 11.21875 6.53125 L 11.875 6.59375 L 12.1875 5.96875 C 12.1875 5.96875 12.799126 5.0637673 13.4375 4.3125 L 14.34375 4.625 L 15.125 4.90625 L 15.53125 4.1875 L 15.6875 3.90625 z M 16 9.46875 L 17.0625 10.28125 L 18.09375 11.0625 L 18.5 10.125 C 18.861285 10.608156 19.375 11.25 19.375 11.25 L 20.28125 12.6875 L 21 11.4375 L 21.46875 12.09375 L 22.21875 13.1875 L 22.8125 12.4375 C 22.8182 12.4613 22.83845 12.47655 22.84375 12.5 C 22.963638 13.030362 23 13.4375 23 13.4375 L 23.03125 13.8125 L 23.28125 14.0625 L 23.625 14.40625 L 23.4375 15.75 L 22.125 17.84375 L 22 18.0625 L 21.96875 18.3125 L 21.9375 18.78125 L 21.90625 19.21875 L 22.1875 19.53125 L 22.375 19.75 L 22.3125 19.71875 L 21.09375 19.25 L 20.96875 20.5625 C 20.96875 20.5625 20.941948 20.688744 20.9375 20.71875 L 20.875 20.6875 L 20.59375 21.78125 L 20.375 21.84375 L 19.9375 21.15625 L 19.78125 22.65625 L 19.40625 22.75 L 19 21.78125 L 18.875 23 L 17.8125 23.0625 L 17.59375 21.78125 L 17.25 21.84375 L 17.1875 22.6875 L 15.71875 22.65625 L 15.6875 21.875 L 15.46875 21.9375 L 15.1875 23.59375 L 14.03125 23.46875 L 14.03125 22.15625 L 13.84375 22.1875 L 13.5625 23.125 L 12.53125 22.78125 L 12.75 21.71875 L 12.1875 22.46875 L 11.8125 22.28125 L 11.84375 21.78125 L 11.5 21.96875 L 11.46875 21.21875 L 11.375 21.25 C 11.3831 21.049518 11.40625 20.875 11.40625 20.875 L 11.5 19.71875 L 10.34375 19.78125 L 9.84375 19.84375 L 10.4375 18.40625 L 10.65625 17.875 L 10.28125 17.40625 C 10.28125 17.40625 9.8636275 16.845777 9.4375 16.125 C 9.3012649 15.894564 9.1723503 15.651555 9.0625 15.40625 C 9.1520046 14.588441 9.4924354 13.801433 9.84375 13.1875 L 10.40625 14 L 11.25 12.90625 L 12.5 11.1875 L 12.65625 11.28125 L 13.28125 11.75 L 13.875 11.25 L 16 9.46875 z M 10.21875 15 C 9.96775 15.337 10 16.28125 10 16.28125 C 10 16.28125 10.26225 16.64425 10.40625 16.90625 C 10.55025 17.16825 11.5625 18.1875 11.5625 18.1875 C 11.5625 18.1875 10.8225 19.11925 11.0625 19.65625 C 12.139899 19.307332 12.808701 18.952663 13.40625 18.59375 C 13.364865 18.761086 13.059536 20 13.53125 20 C 13.79525 20 13.90625 19.8865 13.90625 19.6875 C 13.90625 19.4885 13.5625 19.3125 13.5625 19.3125 C 13.6265 18.729115 13.849832 18.469135 14 18.25 C 14.057715 18.212792 14.130859 18.161536 14.1875 18.125 C 14.9425 17.638 15.001 16.837 15 16.5 C 15 16.163 14.75 15.53125 14.75 15.53125 C 14.75 15.53125 14.32125 16.6875 13.78125 16.6875 C 13.24125 16.6875 12.04 15.96875 11.5 15.96875 C 10.96 15.96875 10.46875 16.25 10.46875 16.25 C 10.43275 16.138 10.36275 15.637 10.21875 15 z M 22.71875 15 C 22.71875 15 22.432 16.19575 22.125 16.46875 C 21.933 16.50375 21.40625 16.0625 21.40625 16.0625 C 21.40625 16.0625 18.46325 16.80425 18.15625 16.90625 C 17.84925 17.00925 17 16.53125 17 16.53125 C 17.039 16.90725 17.42675 17.75925 17.84375 18.03125 C 18.42075 18.40725 19.423 18.648 20 18.75 C 20.577 18.852 21.03125 19 21.03125 19 C 21.03125 19 21.2745 18.2335 21.3125 18.0625 C 21.3505 17.8915 22.11375 17.43025 22.34375 17.15625 C 22.57475 16.88325 22.98 16.203 23 16 C 23.038 15.589 22.71875 15 22.71875 15 z M 14.9375 18.53125 C 14.9375 18.53125 14.9515 19.6085 15.0625 19.9375 C 15.1735 20.2665 15.92025 21.42225 16.03125 21.53125 C 16.14125 21.64025 16.64475 20.46925 16.71875 20.03125 C 16.79275 19.59325 16.9385 18.625 16.9375 18.625 L 16 20 C 16 20 15.1585 18.78625 14.9375 18.53125 z M 11.78125 23.34375 L 11.84375 23.34375 L 11.9375 23.90625 C 11.931365 23.896851 11.911774 23.88387 11.90625 23.875 C 11.86679 23.811644 11.851714 23.738565 11.84375 23.71875 C 11.831796 23.597464 11.80001 23.470086 11.78125 23.34375 z M 11.96875 23.96875 L 12.28125 24.15625 L 12.3125 24.4375 C 12.297862 24.4195 12.29565 24.392981 12.28125 24.375 C 12.155869 24.218439 12.050983 24.087831 11.96875 23.96875 z M 12.65625 24.03125 L 13.34375 24.3125 L 13.5625 25.625 L 13.78125 25.59375 L 13.875 24.53125 L 14.40625 24.65625 L 14.46875 25.75 L 14.84375 25.71875 L 14.9375 24.84375 L 15.96875 24.9375 L 16.40625 25.96875 L 16.59375 25.9375 L 16.8125 24.8125 L 17.78125 24.84375 L 17.84375 25.875 L 18.03125 25.84375 L 18.40625 24.6875 L 19.03125 24.59375 L 19.09375 25 C 18.883925 25.375872 18.635211 25.818557 18.53125 26 L 13.71875 26 C 13.597526 25.889768 13.49225 25.805458 13.21875 25.46875 L 13.1875 25.4375 C 12.989905 25.196333 12.73928 24.906389 12.5 24.625 L 12.65625 24.03125 z M 19.59375 24.0625 C 19.500366 24.234357 19.468632 24.330084 19.375 24.5 L 19.40625 24.09375 L 19.59375 24.0625 z" overflow="visible" font-family="Sans" fill="#000000"/></svg>
