<?xml version="1.0" encoding="utf-8"?>
<svg xmlns="http://www.w3.org/2000/svg" viewBox="0 0 32 32" fill="#000000"><path style="text-indent:0;text-align:start;line-height:normal;text-transform:none;block-progression:tb;-inkscape-font-specification:Sans" d="M 15.875 4 L 15.78125 4.03125 C 15.78125 4.03125 15.097749 4.2034881 14.25 4.6875 C 13.529246 5.0990058 12.638721 5.7973809 11.71875 6.8125 C 10.932244 6.295936 10.005826 6 9 6 C 6.2504209 6 4 8.2504209 4 11 C 4 13.292461 5.5737722 15.22899 7.6875 15.8125 C 7.5805376 16.256646 7.4807858 16.722681 7.40625 17.25 C 7.1578751 18.957185 7 20.839559 7 23 L 9 23 C 9 21.011931 9.1299002 19.270744 9.34375 17.71875 C 9.4355066 17.052835 9.5511703 16.493841 9.6875 15.9375 C 11.033238 15.747439 12.218438 15.012051 13 13.96875 C 12.355952 15.32669 12 16.877717 12 18.53125 C 12 23.620634 15.474059 28 20 28 C 24.525941 28 28 23.620634 28 18.53125 C 28 15.636092 26.892467 13.027798 25.09375 11.28125 L 24.875 11.0625 L 24.1875 7 L 25 7 L 26 7 L 26 6 L 26 5 L 26 4 L 25 4 L 16 4 L 15.875 4 z M 18.03125 6 L 21.96875 6 L 22 6.15625 L 22.8125 11 L 17.1875 11 L 18 6.15625 L 18.03125 6 z M 15.78125 7.125 L 15.125 11.0625 L 14.84375 11.34375 C 14.402936 11.780314 14.005504 12.280518 13.65625 12.8125 C 13.877539 12.249198 14 11.639277 14 11 C 14 10.069973 13.728414 9.2167905 13.28125 8.46875 C 14.220799 7.6595993 15.124404 7.2917722 15.78125 7.125 z M 9 8 C 9.534157 8 10.036337 8.1347725 10.46875 8.375 C 9.9154242 9.2608198 9.4198794 10.32761 8.9375 11.53125 C 8.7420614 11.989574 8.54669 12.413553 8.375 12.9375 C 8.2845185 13.223708 8.1949028 13.541025 8.125 13.875 C 6.8912053 13.503232 6 12.362303 6 11 C 6 9.3313011 7.3313011 8 9 8 z M 11.875 10.15625 C 11.953297 10.425574 12 10.703871 12 11 C 12 12.23605 11.275716 13.288136 10.21875 13.75 C 10.249627 13.636423 10.278138 13.508403 10.3125 13.40625 C 10.40029 13.136154 10.500233 12.938304 10.59375 12.6875 C 10.988711 11.682994 11.423442 10.851668 11.875 10.15625 z M 16 13 C 16.00471 12.994792 16.026527 13.005189 16.03125 13 L 16.6875 13 C 16.43068 13.893251 16.238456 14.912047 16.125 16 L 14.34375 16 C 14.689121 14.836709 15.279064 13.797075 16 13 z M 18.8125 13 L 21.1875 13 C 21.470784 13.809293 21.70157 14.83358 21.84375 16 L 18.15625 16 C 18.298419 14.833606 18.529199 13.809334 18.8125 13 z M 23.3125 13 L 23.96875 13 C 23.973563 13.005247 23.995201 12.994733 24 13 C 24.728308 13.799213 25.280443 14.830043 25.625 16 L 23.875 16 C 23.761554 14.912068 23.569326 13.893264 23.3125 13 z M 14.03125 18 L 16.03125 18 C 16.02758 18.179907 16 18.348566 16 18.53125 C 16 19.397868 16.072513 20.204461 16.15625 21 L 14.34375 21 C 14.12504 20.231222 14 19.39913 14 18.53125 C 14 18.352252 14.02105 18.175696 14.03125 18 z M 18.03125 18 L 21.96875 18 C 21.973208 18.179278 22 18.348896 22 18.53125 C 22 19.399833 21.93314 20.223442 21.84375 21 L 18.15625 21 C 18.06686 20.223442 18 19.399833 18 18.53125 C 18 18.348896 18.026792 18.179277 18.03125 18 z M 23.96875 18 L 25.96875 18 C 25.979033 18.177474 26 18.35026 26 18.53125 C 26 19.39913 25.87496 20.231222 25.65625 21 L 23.84375 21 C 23.927487 20.204461 24 19.397868 24 18.53125 C 24 18.348566 23.97242 18.179906 23.96875 18 z M 15.21875 23 L 16.4375 23 C 16.574869 23.647221 16.742409 24.266219 16.9375 24.8125 C 16.962301 24.881946 17.005675 24.932488 17.03125 25 C 16.325251 24.492304 15.712111 23.812538 15.21875 23 z M 18.46875 23 L 21.53125 23 C 21.432171 23.414886 21.309672 23.7829 21.1875 24.125 C 20.943155 24.8092 20.649312 25.337137 20.40625 25.625 C 20.163188 25.912863 20.035956 25.9375 20 25.9375 C 19.96404 25.9375 19.836812 25.91286 19.59375 25.625 C 19.350688 25.337137 19.056845 24.8092 18.8125 24.125 C 18.690328 23.7829 18.567829 23.414886 18.46875 23 z M 23.5625 23 L 24.78125 23 C 24.287889 23.812538 23.674749 24.492304 22.96875 25 C 22.994325 24.932488 23.037699 24.881946 23.0625 24.8125 C 23.257591 24.266219 23.425131 23.647221 23.5625 23 z" overflow="visible" font-family="Sans" fill="#000000"/></svg>
