<?xml version="1.0" encoding="utf-8"?>
<svg xmlns="http://www.w3.org/2000/svg" viewBox="0 0 32 32" fill="#000000"><path style="text-indent:0;text-align:start;line-height:normal;text-transform:none;block-progression:tb;-inkscape-font-specification:Sans" d="M 16 4 C 13.115359 4 10.529667 4.4323967 8.5625 5.1875 C 7.5789163 5.5650516 6.7322833 6.0004801 6.09375 6.59375 C 5.4850149 7.159334 5.0399397 7.9126995 5 8.75 A 1.0001 1.0001 0 0 0 5 8.8125 C 4.9995078 8.8330906 5 8.8543153 5 8.875 A 1.0001 1.0001 0 0 0 5 9 L 5 13.84375 C 5 15.447862 6.0602571 17.030792 7.90625 18.15625 C 8.2432537 18.361713 8.6074589 18.54232 9 18.71875 L 9 19 L 9 24 C 9 25.175971 9.7677963 26.255471 10.96875 26.9375 C 12.169704 27.619529 13.832543 28 16 28 C 18.167457 28 19.830296 27.619529 21.03125 26.9375 C 22.232204 26.255471 23 25.175971 23 24 L 23 19 L 23 18.71875 C 23.392541 18.54232 23.756746 18.361713 24.09375 18.15625 C 25.939743 17.030792 27 15.447862 27 13.84375 L 27 9 C 27.00149 8.9693225 26.999623 8.9371957 27 8.90625 A 1.0001 1.0001 0 0 0 27 8.875 C 27 7.9885113 26.544783 7.1870199 25.90625 6.59375 C 25.267717 6.0004801 24.421084 5.5650516 23.4375 5.1875 C 21.470333 4.4323967 18.884641 4 16 4 z M 16 6 C 18.685359 6 21.078417 6.4016033 22.71875 7.03125 C 23.538916 7.3460734 24.165096 7.7223011 24.53125 8.0625 C 24.8798 8.3863432 24.990255 8.6327902 25 8.84375 A 1.0001 1.0001 0 0 0 25 8.9375 C 24.984771 9.1493419 24.874955 9.4144308 24.53125 9.75 C 24.157218 10.115178 23.507011 10.500669 22.6875 10.84375 C 21.048478 11.529913 18.670398 12 16 12 C 13.329602 12 10.951522 11.529913 9.3125 10.84375 C 8.4929891 10.500669 7.8427816 10.115178 7.46875 9.75 C 7.1098818 9.3996263 7.0076596 9.1218122 7 8.90625 A 1.0001 1.0001 0 0 0 7 8.8125 C 7.0191779 8.6087308 7.1378029 8.3699875 7.46875 8.0625 C 7.8349042 7.7223011 8.4610837 7.3460734 9.28125 7.03125 C 10.921583 6.4016033 13.314641 6 16 6 z M 7 11.875 C 7.4552127 12.178469 7.9620627 12.449214 8.53125 12.6875 C 10.499728 13.511587 13.100398 14 16 14 C 18.899602 14 21.500272 13.511587 23.46875 12.6875 C 24.037937 12.449214 24.544787 12.178469 25 11.875 L 25 13.84375 C 25 14.543638 24.497757 15.562458 23.0625 16.4375 C 21.627243 17.312542 19.299367 18 16 18 C 12.700633 18 10.372757 17.312542 8.9375 16.4375 C 7.5022429 15.562458 7 14.543638 7 13.84375 L 7 11.875 z M 12.9375 19.8125 C 13.27951 19.859607 13.635346 19.875521 14 19.90625 C 13.793223 20.135484 13.628718 20.380954 13.46875 20.625 C 13.4341 20.56037 13.4431 20.56503 13.40625 20.5 C 13.275711 20.26962 13.103409 20.041048 12.9375 19.8125 z M 18.9375 19.8125 C 18.774624 20.052247 18.62956 20.290321 18.5 20.53125 C 18.353914 20.315202 18.21561 20.105533 18.03125 19.90625 C 18.342052 19.879597 18.643214 19.851123 18.9375 19.8125 z M 21 20.46875 L 21 24 C 21 24.333029 20.807296 24.746779 20.03125 25.1875 C 19.255204 25.628221 17.924543 26 16 26 C 14.075457 26 12.744796 25.628221 11.96875 25.1875 C 11.192704 24.746779 11 24.333029 11 24 L 11 20.625 C 11.23251 20.878641 11.463022 21.158984 11.65625 21.5 C 12.153123 22.376899 12.4375 23.28125 12.4375 23.28125 L 12.625 24 L 13.375 24 L 13.4375 24 L 14.21875 24 L 14.40625 23.21875 C 14.40625 23.21875 14.549957 22.573294 14.875 21.96875 C 15.037522 21.666478 15.242744 21.384312 15.4375 21.21875 C 15.632256 21.053188 15.78196 21 16 21 C 16.21804 21 16.369946 21.05422 16.5625 21.21875 C 16.755054 21.383279 16.964582 21.667024 17.125 21.96875 C 17.445835 22.572202 17.5625 23.21875 17.5625 23.21875 L 17.75 24 L 18.5625 24 L 18.59375 24 L 19.40625 24 L 19.5625 23.21875 C 19.5625 23.21875 19.788665 22.32665 20.25 21.46875 C 20.461617 21.075226 20.725337 20.727726 21 20.46875 z" overflow="visible" font-family="Sans" fill="#000000"/></svg>
