<?xml version="1.0" encoding="utf-8"?>
<svg xmlns="http://www.w3.org/2000/svg" viewBox="0 0 32 32" fill="#000000"><path style="text-indent:0;text-align:start;line-height:normal;text-transform:none;block-progression:tb;-inkscape-font-specification:Sans" d="M 8.5 5 L 8.1875 5.40625 L 5.1875 9.40625 L 5 9.65625 L 5 10 L 5 13 L 5 13.15625 L 5.0625 13.3125 L 5.96875 16.0625 L 5.03125 20.8125 L 5 20.90625 L 5 21 L 5 26 L 5 27 L 6 27 L 11 27 L 11.0625 27 L 11.15625 27 L 17.96875 26.03125 L 21.75 26.96875 L 21.875 27 L 22 27 L 26 27 L 27 27 L 27 26 L 27 21 L 27 20.90625 L 26.96875 20.8125 L 26.09375 16.375 L 26.96875 13.28125 L 27 13.125 L 27 13 L 27 10 L 27 9.65625 L 26.8125 9.40625 L 23.8125 5.40625 L 23.5 5 L 23 5 L 9 5 L 8.5 5 z M 9.5 7 L 14.375 7 L 13.375 9 L 8 9 L 9.5 7 z M 16.625 7 L 22.5 7 L 24 9 L 15.625 9 L 16.625 7 z M 7 11 L 25 11 L 25 12.8125 L 23.03125 19.71875 L 24.84375 20.25 L 25 21 L 25 21.03125 L 25 25 L 22.125 25 L 14.25 23.03125 L 13.84375 24.5625 L 10.84375 25 L 7 25 L 7 21.03125 L 7 21 L 7.96875 16.1875 L 8.03125 15.9375 L 7.9375 15.6875 L 7 12.875 L 7 11 z M 12.8125 13 A 1.001098 1.001098 0 0 0 13 15 L 19 15 A 1.0001 1.0001 0 1 0 19 13 L 13 13 A 1.0001 1.0001 0 0 0 12.90625 13 A 1.001098 1.001098 0 0 0 12.8125 13 z" overflow="visible" font-family="Sans" fill="#000000"/></svg>
