<?xml version="1.0" encoding="utf-8"?>
<svg xmlns="http://www.w3.org/2000/svg" viewBox="0 0 32 32" fill="#000000"><path style="text-indent:0;text-align:start;line-height:normal;text-transform:none;block-progression:tb;-inkscape-font-specification:Sans" d="M 11 3 L 11 4 L 11 8 L 11 9 L 12 9 L 15 9 L 15 17 L 9 17 L 4 25 L 4 27.03125 L 6 27.03125 L 6 29.03125 L 8 29.03125 L 8 27.03125 L 24 27 L 24 29 L 26 29 L 26 27 L 28 27 L 28 24.96875 L 23 17 L 17 17 L 17 9 L 20 9 L 21 9 L 21 8 L 21 4 L 21 3 L 20 3 L 12 3 L 11 3 z M 13 5 L 19 5 L 19 7 L 13 7 L 13 5 z M 10.15625 19 L 21.84375 19 L 25.71875 25 L 6.28125 25.03125 L 10.15625 19 z" overflow="visible" font-family="Sans" fill="#000000"/></svg>
