<?xml version="1.0" encoding="utf-8"?>
<svg xmlns="http://www.w3.org/2000/svg" viewBox="0 0 32 32" fill="#000000"><path style="text-indent:0;text-align:start;line-height:normal;text-transform:none;block-progression:tb;-inkscape-font-specification:Sans" d="M 9.5 4 C 7.578848 4 6 5.578848 6 7.5 C 6 9.421152 7.578848 11 9.5 11 C 11.421152 11 13 9.4211519 13 7.5 C 13 5.5788481 11.421152 4 9.5 4 z M 21.5 4 C 19.578848 4 18 5.5788481 18 7.5 C 18 9.4211519 19.578848 11 21.5 11 C 23.421152 11 25 9.4211519 25 7.5 C 25 5.5788481 23.421152 4 21.5 4 z M 9.5 6 C 10.340272 6 11 6.6597281 11 7.5 C 11 8.3402719 10.340272 9 9.5 9 C 8.6597282 9 8 8.3402718 8 7.5 C 8 6.6597282 8.6597282 6 9.5 6 z M 21.5 6 C 22.340272 6 23 6.6597281 23 7.5 C 23 8.3402719 22.340272 9 21.5 9 C 20.659728 9 20 8.3402719 20 7.5 C 20 6.6597281 20.659728 6 21.5 6 z M 9 12 C 6.794 12 5 13.794 5 16 L 5 21.25 L 7 22.25 L 7 28 L 9 28 L 9 21 L 7 20 L 7 16 C 7 14.897 7.897 14 9 14 L 10.15625 14 C 10.91825 14 11.5965 14.41075 11.9375 15.09375 L 13.21875 17.65625 L 15.90625 19.78125 L 15.03125 23.78125 L 14.75 25 L 16 25 L 19 25 L 19 28 L 21 28 L 21 25 L 22 25 L 22 28 L 24 28 L 24 25 L 27 25 L 28.25 25 L 27.96875 23.78125 L 26.15625 15.625 L 26.125 15.625 C 25.665896 13.700009 23.957593 12 21.5 12 C 19.074342 12 17.302845 13.611856 16.84375 15.625 L 16.40625 17.625 L 14.78125 16.34375 L 13.71875 14.21875 C 13.03675 12.85475 11.68125 12 10.15625 12 L 9 12 z M 21.5 14 C 23.079807 14 23.904176 14.91438 24.1875 16.0625 L 24.1875 16.09375 L 25.75 23 L 23 23 L 22 23 L 21 23 L 20 23 L 17.25 23 L 18.8125 16.09375 L 18.8125 16.0625 C 19.106774 14.812639 19.888373 14 21.5 14 z M 10 21 L 10 28 L 12 28 L 12 21 L 10 21 z" overflow="visible" font-family="Sans" fill="#000000"/></svg>
