<?xml version="1.0" encoding="utf-8"?>
<svg xmlns="http://www.w3.org/2000/svg" viewBox="0 0 32 32" fill="#000000"><path style="text-indent:0;text-align:start;line-height:normal;text-transform:none;block-progression:tb;-inkscape-font-specification:Sans" d="M 16 4 C 9.935 4 5 8.935 5 15 C 5 17.657 5.95725 20.097 7.53125 22 L 10.34375 22 C 8.29975 20.349 7 17.826 7 15 C 7 10.038 11.037 6 16 6 C 20.963 6 25 10.038 25 15 C 25 17.826 23.70025 20.349 21.65625 22 L 24.46875 22 C 26.04375 20.097 27 17.657 27 15 C 27 8.935 22.065 4 16 4 z M 8 23 L 8 25 L 24 25 L 24 23 L 8 23 z M 6 26 L 6 28 L 26 28 L 26 26 L 6 26 z" overflow="visible" font-family="Sans" fill="#000000"/></svg>
