<?xml version="1.0" encoding="utf-8"?>
<svg xmlns="http://www.w3.org/2000/svg" viewBox="0 0 32 32" fill="#000000"><path style="text-indent:0;text-align:start;line-height:normal;text-transform:none;block-progression:tb;-inkscape-font-specification:Sans" d="M 16 5 L 15.6875 5.28125 L 3.8125 17.28125 L 3.09375 18 L 3.8125 18.71875 L 13.28125 28.1875 L 14 28.90625 L 14.71875 28.1875 L 26.71875 16.3125 L 27 16 L 27 15.59375 L 27 6 L 27 5 L 26 5 L 16.40625 5 L 16 5 z M 16.84375 7 L 25 7 L 25 15.15625 L 14 26.0625 L 5.9375 18 L 16.84375 7 z M 22 9 C 21.447715 9 21 9.4477153 21 10 C 21 10.552285 21.447715 11 22 11 C 22.552285 11 23 10.552285 23 10 C 23 9.4477153 22.552285 9 22 9 z M 19.28125 11.28125 L 18.3125 12.28125 C 17.964271 12.134417 17.587339 12.032554 17.21875 12.03125 C 16.509783 12.02875 15.816441 12.277309 15.28125 12.8125 C 14.21043 13.88332 14.211626 15.649126 15.28125 16.71875 C 15.592943 17.030443 15.580868 17.512882 15.28125 17.8125 C 14.98007 18.11368 14.531126 18.093626 14.21875 17.78125 C 13.907057 17.469557 13.887882 17.018368 14.1875 16.71875 L 12.78125 15.3125 C 11.960871 16.132879 11.781606 17.363896 12.21875 18.375 L 11.28125 19.3125 L 12.6875 20.71875 L 13.625 19.78125 C 14.635882 20.218376 15.866785 20.039465 16.6875 19.21875 C 17.757882 18.148368 17.757807 16.382807 16.6875 15.3125 C 16.375124 15.000124 16.38632 14.51993 16.6875 14.21875 C 16.987118 13.919132 17.438307 13.938307 17.75 14.25 C 18.062376 14.562376 18.08243 15.01132 17.78125 15.3125 L 19.1875 16.75 C 20.008215 15.929285 20.187126 14.698382 19.75 13.6875 L 20.71875 12.71875 L 19.28125 11.28125 z" overflow="visible" font-family="Sans" fill="#000000"/></svg>
