<?xml version="1.0" encoding="utf-8"?>
<svg xmlns="http://www.w3.org/2000/svg" viewBox="0 0 32 32" fill="#000000"><path style="line-height:normal;text-indent:0;text-align:start;text-decoration-line:none;text-decoration-style:solid;text-decoration-color:#000;text-transform:none;block-progression:tb;isolation:auto;mix-blend-mode:normal" d="M 16 3.5859375 L 11.292969 8.2929688 L 12.707031 9.7070312 L 15 7.4140625 L 15 13 L 17 13 L 17 7.4140625 L 19.292969 9.7070312 L 20.707031 8.2929688 L 16 3.5859375 z M 7.1425781 5 L 5 18.923828 L 5 27 L 27 27 L 27 18.923828 L 24.857422 5 L 21.25 5 L 21.25 7 L 23.142578 7 L 24.833984 18 L 18 18 L 18 19 C 18 20.116666 17.116666 21 16 21 C 14.883334 21 14 20.116666 14 19 L 14 18 L 7.1660156 18 L 8.8574219 7 L 10.832031 7 L 10.832031 5 L 7.1425781 5 z M 7 20 L 12.203125 20 C 12.659479 21.706363 14.156406 23 16 23 C 17.843594 23 19.340521 21.706363 19.796875 20 L 25 20 L 25 25 L 7 25 L 7 20 z" font-weight="400" font-family="sans-serif" white-space="normal" overflow="visible" fill="#000000"/></svg>
