<?xml version="1.0" encoding="utf-8"?>
<svg xmlns="http://www.w3.org/2000/svg" viewBox="0 0 32 32" fill="#000000"><path style="text-indent:0;text-align:start;line-height:normal;text-transform:none;block-progression:tb;-inkscape-font-specification:Bitstream Vera Sans" d="M 2 6 L 2 7 L 2 25 L 2 26 L 3 26 L 29 26 L 30 26 L 30 25 L 30 7 L 30 6 L 29 6 L 3 6 L 2 6 z M 4 8 L 9 8 L 9 13 L 4 13 L 4 8 z M 11 8 L 12 8 L 12 13 L 12 15 L 28 15 L 28 16 L 12 16 L 12 17 L 12 18 L 12 24 L 11 24 L 11 17 L 11 16 L 4 16 L 4 15 L 11 15 L 11 13 L 11 8 z M 14 8 L 28 8 L 28 13 L 14 13 L 14 8 z M 4 18 L 9 18 L 9 24 L 4 24 L 4 18 z M 14 18 L 28 18 L 28 24 L 14 24 L 14 18 z" fill="#000000"/></svg>
