<?xml version="1.0" encoding="utf-8"?>
<svg xmlns="http://www.w3.org/2000/svg" viewBox="0 0 32 32" fill="#000000"><path style="text-indent:0;text-align:start;line-height:normal;text-transform:none;block-progression:tb;-inkscape-font-specification:Sans" d="M 16 4 L 15.46875 4.34375 L 4.46875 11.15625 L 4 11.4375 L 4 12 L 4 14 L 4 15 L 5 15 L 5 27 L 5 28 L 6 28 L 26 28 L 27 28 L 27 27 L 27 15 L 28 15 L 28 14 L 28 12 L 28 11.4375 L 27.53125 11.15625 L 16.53125 4.34375 L 16 4 z M 16 6.375 L 26 12.5625 L 26 13 L 25 13 L 25 14 L 25 26 L 7 26 L 7 14 L 7 13 L 6 13 L 6 12.5625 L 16 6.375 z M 15 12 L 15 13 C 13.35503 13 12 14.35503 12 16 C 12 17.64497 13.35503 19 15 19 L 17 19 C 17.56503 19 18 19.43497 18 20 C 18 20.56503 17.56503 21 17 21 L 15 21 C 14.43497 21 14 20.56503 14 20 L 12 20 C 12 21.64497 13.35503 23 15 23 L 15 24 L 17 24 L 17 23 C 18.64497 23 20 21.64497 20 20 C 20 18.35503 18.64497 17 17 17 L 15 17 C 14.43497 17 14 16.56503 14 16 C 14 15.43497 14.43497 15 15 15 L 17 15 C 17.56503 15 18 15.43497 18 16 L 20 16 C 20 14.35503 18.64497 13 17 13 L 17 12 L 15 12 z" overflow="visible" font-family="Sans" fill="#000000"/></svg>
