<?xml version="1.0" encoding="utf-8"?>
<svg xmlns="http://www.w3.org/2000/svg" viewBox="0 0 32 32" fill="#000000"><path style="text-indent:0;text-align:start;line-height:normal;text-transform:none;block-progression:tb;-inkscape-font-specification:Sans" d="M 18.84375 4 C 17.669297 4 16.489161 4.3809553 15.5625 5.15625 C 14.635839 5.9315447 14 7.1391797 14 8.5625 C 14 9.6246673 14.225032 10.458083 14.46875 11.09375 C 13.080684 11.35389 10 12.432885 10 16.96875 C 10 19.62775 11 22.01 11 28 L 13 28 C 13 20.702879 13.232049 19.294257 14.78125 19.0625 C 14.422497 19.609378 14 20.43283 14 21.71875 C 14 23.664349 14.971878 25.101293 16.09375 25.90625 C 17.215622 26.711207 18.416814 27 19.3125 27 C 21.473237 27 23.476076 25.847232 24.84375 23.84375 C 26.211424 21.840268 27 19.019179 27 15.46875 C 27 7.2577772 22.390138 4 18.84375 4 z M 18.84375 6 C 21.219362 6 25 7.9677228 25 15.46875 C 25 18.719321 24.258076 21.150482 23.1875 22.71875 C 22.116924 24.287018 20.786763 25 19.3125 25 C 18.945186 25 17.965378 24.794543 17.25 24.28125 C 16.534622 23.767957 16 23.044151 16 21.71875 C 16 20.490628 16.75 19.6875 16.75 19.6875 L 17.21875 19.15625 L 16.875 18.53125 C 16.875 18.53125 16.03125 16.799205 16.03125 15.4375 C 16.032111 13.577412 16.78125 12.59375 16.78125 12.59375 L 17.21875 12.0625 L 16.84375 11.46875 C 16.84375 11.46875 16 10.021003 16 8.5625 C 16 7.7168203 16.346161 7.1299553 16.875 6.6875 C 17.403839 6.2450447 18.128203 6 18.84375 6 z" overflow="visible" font-family="Sans" fill="#000000"/></svg>
