<?xml version="1.0" encoding="utf-8"?>
<svg xmlns="http://www.w3.org/2000/svg" viewBox="0 0 32 32" fill="#000000"><path style="text-indent:0;text-align:start;line-height:normal;text-transform:none;block-progression:tb;-inkscape-font-specification:Sans" d="M 16 2.59375 L 15.28125 3.28125 L 12.5625 6 L 7 6 L 6 6 L 6 7 L 6 12.5625 L 3.28125 15.28125 L 2.59375 16 L 3.28125 16.71875 L 6 19.4375 L 6 25 L 6 26 L 7 26 L 12.5625 26 L 15.28125 28.71875 L 16 29.40625 L 16.71875 28.71875 L 19.4375 26 L 25 26 L 26 26 L 26 25 L 26 19.4375 L 28.71875 16.71875 L 29.40625 16 L 28.71875 15.28125 L 26 12.5625 L 26 7 L 26 6 L 25 6 L 19.4375 6 L 16.71875 3.28125 L 16 2.59375 z M 16 5.4375 L 18.28125 7.71875 L 18.59375 8 L 19 8 L 24 8 L 24 13 L 24 13.40625 L 24.28125 13.71875 L 26.5625 16 L 24.28125 18.28125 L 24 18.59375 L 24 19 L 24 24 L 19 24 L 18.59375 24 L 18.28125 24.28125 L 16 26.5625 L 13.71875 24.28125 L 13.40625 24 L 13 24 L 8 24 L 8 19 L 8 18.59375 L 7.71875 18.28125 L 5.4375 16 L 7.71875 13.71875 L 8 13.40625 L 8 13 L 8 8 L 13 8 L 13.40625 8 L 13.71875 7.71875 L 16 5.4375 z M 16 9 C 12.145852 9 9 12.145852 9 16 C 9 19.854148 12.145852 23 16 23 C 19.854148 23 23 19.854148 23 16 C 23 12.145852 19.854148 9 16 9 z M 16 11 C 18.773268 11 21 13.226732 21 16 C 21 18.773268 18.773268 21 16 21 C 13.226732 21 11 18.773268 11 16 C 11 13.226732 13.226732 11 16 11 z" overflow="visible" font-family="Sans" fill="#000000"/></svg>
