<?xml version="1.0" encoding="utf-8"?>
<svg xmlns="http://www.w3.org/2000/svg" viewBox="0 0 32 32" fill="#000000"><path style="text-indent:0;text-align:start;line-height:normal;text-transform:none;block-progression:tb;-inkscape-font-specification:Sans" d="M 6 3 L 6 4 L 6 28 L 6 29 L 7 29 L 25 29 L 26 29 L 26 28 L 26 13.4375 L 27.71875 11.71875 L 28 11.40625 L 28 11 L 28 4 L 28 3 L 27 3 L 24 3 L 23 3 L 7 3 L 6 3 z M 8 5 L 22 5 L 22 11 L 22 11.40625 L 22.28125 11.71875 L 24 13.4375 L 24 27 L 8 27 L 8 5 z M 24 5 L 26 5 L 26 10.5625 L 25 11.5625 L 24 10.5625 L 24 5 z M 16 11.625 L 16 13 L 16 17.0625 C 15.837256 17.029198 15.672589 17 15.5 17 C 14.119288 17 13 18.119288 13 19.5 C 13 20.880712 14.119288 22 15.5 22 C 16.880712 22 18 20.880712 18 19.5 L 18 14.375 L 19.6875 14.9375 L 20.3125 13.0625 L 17.3125 12.0625 L 16 11.625 z" overflow="visible" font-family="Sans" fill="#000000"/></svg>
