<?xml version="1.0" encoding="utf-8"?>
<svg xmlns="http://www.w3.org/2000/svg" viewBox="0 0 32 32" fill="#000000"><path d="M 5 4.0625 L 5 6.59375 L 8 8.59375 L 8 11 L 10 10.625 L 10 7.53125 L 7.8125 6.0625 L 24.1875 6.0625 L 22 7.53125 L 22 8.4375 L 23.625 8.125 L 25.09375 7.875 L 27 6.59375 L 27 4.0625 L 5 4.0625 z M 24 9.03125 L 8 11.96875 L 8 14 L 24 11.0625 L 24 9.03125 z M 24 12.03125 L 8 14.96875 L 8 17 L 24 14.0625 L 24 12.03125 z M 24 15.03125 L 8 17.96875 L 8 20 L 24 17.0625 L 24 15.03125 z M 24 18.03125 L 8 20.96875 L 8 23 L 24 20.0625 L 24 18.03125 z M 24 21.09375 L 22 21.46875 L 22 24.53125 L 24.1875 26 L 7.8125 26 L 10 24.53125 L 10 23.65625 L 8.375 23.96875 L 6.8125 24.25 L 5 25.46875 L 5 28 L 27 28 L 27 25.46875 L 24 23.46875 L 24 21.09375 z" fill="#000000"/></svg>
