<?xml version="1.0" encoding="utf-8"?>
<svg xmlns="http://www.w3.org/2000/svg" viewBox="0 0 32 32" fill="#000000"><path style="line-height:normal;text-indent:0;text-align:start;text-decoration-line:none;text-decoration-style:solid;text-decoration-color:#000;text-transform:none;block-progression:tb;isolation:auto;mix-blend-mode:normal" d="M 11 4 C 9.3545455 4 8 5.3545455 8 7 L 8 25 C 8 26.645455 9.3545455 28 11 28 L 21 28 C 22.645455 28 24 26.645455 24 25 L 24 7 C 24 5.3545455 22.645455 4 21 4 L 11 4 z M 11 6 L 13 6 L 13 9 L 15 9 L 15 6 L 21 6 C 21.554545 6 22 6.4454545 22 7 L 22 18 L 19 18 L 19 20 L 22 20 L 22 25 C 22 25.554545 21.554545 26 21 26 L 11 26 C 10.445455 26 10 25.554545 10 25 L 10 7 C 10 6.4454545 10.445455 6 11 6 z M 13 11 L 13 14 L 15 14 L 15 11 L 13 11 z M 13 16 L 13 20 L 15 20 L 17 20 L 17 18 L 15 18 L 15 16 L 13 16 z M 16 23 A 1 1 0 0 0 15 24 A 1 1 0 0 0 16 25 A 1 1 0 0 0 17 24 A 1 1 0 0 0 16 23 z" font-weight="400" font-family="sans-serif" white-space="normal" overflow="visible" fill="#000000"/></svg>
