<?xml version="1.0" encoding="utf-8"?>
<svg xmlns="http://www.w3.org/2000/svg" viewBox="0 0 32 32" fill="#000000"><path d="M 2.5625 5.84375 C 2.5625 5.84375 1 11.496 1 16 C 1 20.504 2.5615 26.15525 2.5625 26.15625 C 7.2145 25.34525 10.36625 23.4465 12.28125 21.9375 C 11.88025 21.2605 11.24175 20.012 10.84375 18.5 L 9.28125 18.96875 L 8.71875 17.03125 L 10.53125 16.53125 C 10.52025 16.35725 10.5 16.177 10.5 16 C 10.5 15.885 10.495 15.77025 10.5 15.65625 L 7.75 14.96875 L 8.25 13.03125 L 10.8125 13.65625 C 11.2065 12.04925 11.8955 10.73025 12.3125 10.03125 C 10.4815 8.57625 7.3505 6.69375 2.5625 5.84375 z M 29.4375 5.84375 C 24.6495 6.69375 21.5185 8.57625 19.6875 10.03125 C 20.1045 10.73025 20.7935 12.04925 21.1875 13.65625 L 23.75 13.03125 L 24.25 14.96875 L 21.5 15.65625 C 21.504 15.77025 21.5 15.885 21.5 16 C 21.5 16.177 21.47975 16.35725 21.46875 16.53125 L 23.28125 17.03125 L 22.71875 18.96875 L 21.15625 18.5 C 20.75825 20.012 20.11975 21.2605 19.71875 21.9375 C 21.63375 23.4465 24.7855 25.34525 29.4375 26.15625 C 29.4375 26.15625 31 20.504 31 16 C 31 11.496 29.4375 5.84375 29.4375 5.84375 z M 13.4375 11 C 13.4375 11 12 12.889 12 16 C 12 19.111 13.4375 21 13.4375 21 L 18.5625 21 C 18.5625 21 20 18.867 20 16 C 20 13.133 18.5625 11 18.5625 11 L 13.4375 11 z" fill="#000000"/></svg>
