<?xml version="1.0" encoding="utf-8"?>
<svg xmlns="http://www.w3.org/2000/svg" viewBox="0 0 32 32" fill="#000000"><path style="text-indent:0;text-align:start;line-height:normal;text-transform:none;block-progression:tb;-inkscape-font-specification:Sans" d="M 16 3 C 8.8321429 3 3 8.8321429 3 16 C 3 23.167857 8.8321429 29 16 29 C 23.167857 29 29 23.167857 29 16 C 29 8.8321429 23.167857 3 16 3 z M 16 5 C 22.086977 5 27 9.9130231 27 16 C 27 22.086977 22.086977 27 16 27 C 9.9130231 27 5 22.086977 5 16 C 5 9.9130231 9.9130231 5 16 5 z M 16 6 C 10.477 6 6 10.477 6 16 C 6 21.523 10.477 26 16 26 C 17.423 26 18.774 25.69225 20 25.15625 L 20 20 L 10 20 L 10 18 L 20.78125 7.25 C 20.78125 7.25 20.505 7.08875 20 6.84375 C 19.141 6.41875 17.423 6 16 6 z M 22 8 L 22 18 L 25.78125 18 C 25.91425 17.352 26 16.687 26 16 C 26 12.732 24.425 9.824 22 8 z M 20 10 L 12 18 L 20 18 L 20 10 z M 22 20 L 22 24 C 23.366 22.972 24.45925 21.582 25.15625 20 L 22 20 z" overflow="visible" font-family="Sans" fill="#000000"/></svg>
