<?xml version="1.0" encoding="utf-8"?>
<svg xmlns="http://www.w3.org/2000/svg" viewBox="0 0 32 32" fill="#000000"><path d="M 16 4.65625 L 15.34375 5.25 L 7.625 12 L 5 12 L 4 12 L 4 13 L 4 26 L 4 27 L 5 27 L 13 27 L 14 27 L 14 26 L 14 23 C 14 21.883334 14.883334 21 16 21 C 17.116666 21 18 21.883334 18 23 L 18 26 L 18 27 L 19 27 L 27 27 L 28 27 L 28 26 L 28 13 L 28 12 L 27 12 L 24.375 12 L 16.65625 5.25 L 16 4.65625 z M 6 7 C 5.419 7.875 4 8.00625 4 9.65625 C 4 10.58025 4.65625 11 4.65625 11 L 7.34375 11 C 7.34375 11 8 10.58025 8 9.65625 C 8 7.92125 6.658 7.847 6 7 z M 26 7 C 25.419 7.875 24 8.49825 24 9.65625 C 24 10.58025 24.65625 11 24.65625 11 L 27.34375 11 C 27.34375 11 28 10.58025 28 9.65625 C 28 8.41525 26.658 7.847 26 7 z M 16 7.3125 L 23.34375 13.75 L 23.625 14 L 24 14 L 26 14 L 26 25 L 20 25 L 20 23 C 20 20.802666 18.197334 19 16 19 C 13.802666 19 12 20.802666 12 23 L 12 25 L 6 25 L 6 14 L 8 14 L 8.375 14 L 8.65625 13.75 L 16 7.3125 z M 16 11.46875 L 15.125 12.96875 L 13.40625 12.96875 L 14.25 14.46875 L 13.40625 15.96875 L 15.125 15.96875 L 16 17.5 L 16.875 15.96875 L 18.59375 15.96875 L 17.75 14.46875 L 18.59375 12.96875 L 16.875 12.96875 L 16 11.46875 z" fill="#000000"/></svg>
