<?xml version="1.0" encoding="utf-8"?>
<svg xmlns="http://www.w3.org/2000/svg" viewBox="0 0 32 32" fill="#000000"><path style="text-indent:0;text-align:start;line-height:normal;text-transform:none;block-progression:tb;-inkscape-font-specification:Sans" d="M 21 3.03125 L 20.34375 3.75 C 18.875334 5.3687558 17.66238 6.0914381 16.65625 6.5625 C 15.65012 7.0335619 14.800602 7.1750201 13.96875 7.8125 C 13.083517 8.490888 11.793813 9.7986523 11.25 12.125 C 10.085321 12.380264 9.2340715 12.825944 8.5625 13.40625 C 7.8967901 13.981491 7.4003432 14.632647 6.78125 15.34375 C 6.7758 15.35005 6.78672 15.36873 6.78125 15.375 C 5.8979329 16.389733 5.1238125 17.484375 3.625 18.0625 L 3 18.3125 L 3 19 L 3 28 L 3 29 L 4 29 L 12 29 L 22 29 L 22.03125 29 L 22.0625 29 C 23.15703 28.94133 23.91588 28.18212 24.375 27.4375 C 24.83412 26.69288 25.089423 25.884197 25.21875 25.21875 C 25.549829 23.525484 26.15625 18.65625 26.15625 18.65625 L 26.1875 18.5625 L 26.1875 18.46875 C 26.15787 17.792781 25.878746 17.219174 25.53125 16.6875 L 26.65625 13.34375 L 28.4375 10.65625 L 28.9375 9.9375 L 28.28125 9.34375 L 21.71875 3.65625 L 21 3.03125 z M 21.0625 5.78125 L 26.28125 10.3125 L 24.90625 12.34375 L 24.8125 12.4375 L 24.78125 12.59375 L 23.875 15.28125 C 23.403911 15.085157 22.913837 14.949527 22.375 14.96875 L 22.3125 14.96875 L 16 15 L 15 15 L 15 16 L 15 18.875 C 14.858416 19.963655 14.254154 20.387186 13.5 20.6875 C 13.249661 20.78719 13.220669 20.73444 13 20.78125 L 13 15 L 13 14.96875 C 12.836483 11.263594 14.157241 10.195777 15.1875 9.40625 C 15.472648 9.1877299 16.30938 8.9324381 17.5 8.375 C 18.497763 7.9078558 19.734301 7.0681077 21.0625 5.78125 z M 11.0625 14.375 C 11.0595 14.600646 10.99006 14.760369 11 15 C 11.000493 15.01189 10.999474 15.01933 11 15.03125 L 11 22 L 11 23 L 12 23 C 12 23 13.069404 22.98894 14.21875 22.53125 C 15.368096 22.073564 16.755584 21.004345 17 19.125 L 17 19.0625 L 17 19 L 17 17 L 22.375 16.96875 L 22.40625 16.96875 C 23.329488 16.91957 24.09227 17.615819 24.15625 18.53125 C 24.154056 18.547822 24.104182 18.91972 24.09375 19 L 20 19 L 20 21 L 23.84375 21 C 23.738788 21.771998 23.641426 22.259763 23.53125 23 L 20 23 L 20 25 L 23.21875 25 C 23.113221 25.445331 22.90286 25.975037 22.65625 26.375 C 22.38287 26.81838 22.14897 26.988665 21.9375 27 L 12 27 L 5 27 L 5 19.53125 C 6.6227136 18.670577 7.6294461 17.434126 8.28125 16.6875 C 8.95615 15.914112 9.4225715 15.328444 9.875 14.9375 C 10.170366 14.682274 10.638609 14.537765 11.0625 14.375 z" overflow="visible" font-family="Sans" fill="#000000"/></svg>
