<?xml version="1.0" encoding="utf-8"?>
<svg xmlns="http://www.w3.org/2000/svg" viewBox="0 0 32 32" fill="#000000"><path style="text-indent:0;text-align:start;line-height:normal;text-transform:none;block-progression:tb;-inkscape-font-specification:Bitstream Vera Sans" d="M 6 9 L 6 13 C 6 14.093063 6.9069372 15 8 15 L 10 15 L 10 18 L 8.34375 18 L 4.59375 15.1875 L 3.40625 16.8125 L 7.40625 19.8125 L 7.65625 20 L 8 20 L 24 20 L 24.34375 20 L 24.59375 19.8125 L 28.59375 16.8125 L 27.40625 15.1875 L 23.65625 18 L 22 18 L 22 15 L 24 15 C 25.093063 15 26 14.093063 26 13 L 26 9 L 24 9 L 24 13 L 8 13 L 8 9 L 6 9 z M 12 15 L 20 15 L 20 18 L 12 18 L 12 15 z M 3 18 C 1.3549901 18 0 19.354991 0 21 C 0 22.645009 1.3549901 24 3 24 C 4.6450099 24 6 22.645009 6 21 C 6 19.354991 4.6450099 18 3 18 z M 29 18 C 27.35499 18 26 19.35499 26 21 C 26 22.64501 27.35499 24 29 24 C 30.64501 24 32 22.64501 32 21 C 32 19.35499 30.64501 18 29 18 z M 3 20 C 3.5641291 20 4 20.435871 4 21 C 4 21.564129 3.5641291 22 3 22 C 2.4358709 22 2 21.564129 2 21 C 2 20.435871 2.4358709 20 3 20 z M 29 20 C 29.564128 20 30 20.435872 30 21 C 30 21.564128 29.564128 22 29 22 C 28.435872 22 28 21.564128 28 21 C 28 20.435872 28.435872 20 29 20 z M 8 21 L 8 23 L 24 23 L 24 21 L 8 21 z" fill="#000000"/></svg>
