<?xml version="1.0" encoding="utf-8"?>
<svg xmlns="http://www.w3.org/2000/svg" viewBox="0 0 32 32" fill="#000000"><path style="text-indent:0;text-align:start;line-height:normal;text-transform:none;block-progression:tb;-inkscape-font-specification:Sans" d="M 2 6 L 2 7 L 2 25 L 2 26 L 3 26 L 29 26 L 30 26 L 30 25 L 30 7 L 30 6 L 29 6 L 3 6 L 2 6 z M 4 8 L 28 8 L 28 24 L 4 24 L 4 8 z M 10.21875 12 L 10 12.6875 L 8.0625 18.6875 L 8 18.84375 L 8 19 L 8 20 L 10 20 L 10 19.125 L 10.03125 19 L 11.96875 19 L 12 19.125 L 12 20 L 14 20 L 14 19 L 14 18.84375 L 13.9375 18.6875 L 12 12.6875 L 11.78125 12 L 11.0625 12 L 10.9375 12 L 10.21875 12 z M 15 12 L 15 13 L 15 20 L 17 20 L 17 18 C 18.64497 18 20 16.64497 20 15 C 20 13.35503 18.64497 12 17 12 L 16 12 L 15 12 z M 21 12 L 21 20 L 23 20 L 23 12 L 21 12 z M 17 14 C 17.56503 14 18 14.43497 18 15 C 18 15.56503 17.56503 16 17 16 L 17 14 z M 11 16.0625 L 11.3125 17 L 10.6875 17 L 11 16.0625 z" overflow="visible" font-family="Sans" fill="#000000"/></svg>
