<?xml version="1.0" encoding="utf-8"?>
<svg xmlns="http://www.w3.org/2000/svg" viewBox="0 0 32 32" fill="#000000"><path style="text-indent:0;text-align:start;line-height:normal;text-transform:none;block-progression:tb;-inkscape-font-specification:Bitstream Vera Sans" d="M 10 4 C 7.8027056 4 6 5.8027056 6 8 C 6 9.1142275 6.4752606 10.116062 7.21875 10.84375 C 5.8879616 11.745561 5 13.284091 5 15 L 5 20 L 5 20.625 L 5.5625 20.90625 L 7 21.625 L 7 27 L 7 28 L 8 28 L 12 28 L 13 28 L 13 27 L 13 21.625 L 14.4375 20.90625 L 15 20.625 L 15 20 L 15 15 C 15 13.284091 14.112038 11.745561 12.78125 10.84375 C 13.524739 10.116062 14 9.1142275 14 8 C 14 5.8027056 12.197294 4 10 4 z M 14.40625 4 C 15.40625 5.1 16 6.5 16 8 C 16 8.9 15.80625 9.79375 15.40625 10.59375 C 16.40625 11.79375 17 13.4 17 15 L 17 21.90625 L 15 22.90625 L 15 28 L 17 28 L 17 24.09375 L 19 23.09375 L 19 15 C 19 13.3 18.4875 11.7125 17.6875 10.3125 C 17.8875 9.6125 18 8.8 18 8 C 18 6.5 17.60625 5.2 16.90625 4 L 14.40625 4 z M 19.1875 4 C 19.6875 5.3 20 6.6 20 8 C 20 8.7 19.9125 9.4 19.8125 10 C 20.6125 11.5 21 13.3 21 15 L 21 24.3125 L 19 25.3125 L 19 28 L 21 28 L 21 26.59375 L 23 25.59375 L 23 15 C 23 13.2 22.60625 11.3875 21.90625 9.6875 C 22.00625 9.1875 22 8.6 22 8 C 22 6.6 21.7125 5.3 21.3125 4 L 19.1875 4 z M 23.40625 4 C 23.80625 5.3 24 6.7 24 8 C 24 8.5 24.00625 9.00625 23.90625 9.40625 C 24.60625 11.20625 25 13.1 25 15 L 25 26.8125 L 23 27.8125 L 23 28 L 27 28 L 27 15 C 27 13 26.6 10.9875 26 9.1875 L 26 8 C 26 6.7 25.8 5.3 25.5 4 L 23.40625 4 z M 10 6 C 11.116414 6 12 6.883586 12 8 C 12 9.116414 11.116414 10 10 10 C 8.883586 10 8 9.116414 8 8 C 8 6.883586 8.883586 6 10 6 z M 10 12 C 11.654545 12 13 13.345455 13 15 L 13 19.375 L 11.5625 20.09375 L 11 20.375 L 11 21 L 11 26 L 9 26 L 9 21 L 9 20.375 L 8.4375 20.09375 L 7 19.375 L 7 15 C 7 13.345455 8.3454545 12 10 12 z" overflow="visible" font-family="Bitstream Vera Sans" fill="#000000"/></svg>
