<?xml version="1.0" encoding="utf-8"?>
<svg xmlns="http://www.w3.org/2000/svg" viewBox="0 0 32 32" fill="#000000"><path style="text-indent:0;text-align:start;line-height:normal;text-transform:none;block-progression:tb;-inkscape-font-specification:Bitstream Vera Sans" d="M 24.5 5.5 C 22.854991 5.5 21.5 6.8549901 21.5 8.5 C 21.5 10.14501 22.854991 11.5 24.5 11.5 C 26.145009 11.5 27.5 10.14501 27.5 8.5 C 27.5 6.8549901 26.145009 5.5 24.5 5.5 z M 15.71875 6.09375 C 15.584398 6.104513 15.443568 6.1192309 15.3125 6.15625 L 11.53125 7.21875 L 12.0625 9.15625 L 15.875 8.0625 L 17.8125 9.1875 L 14.09375 12.34375 C 13.132845 13.155574 12.757172 14.461971 13.15625 15.65625 L 14.625 20 L 10 20 L 10 22 L 14.625 22 C 15.960959 22 16.921096 20.642204 16.5 19.375 L 15.0625 15.03125 C 14.921578 14.609529 15.0652 14.163176 15.40625 13.875 L 19.3125 10.53125 L 20.28125 12 L 17.0625 15.125 C 16.4325 15.741 16.30475 16.72 16.71875 17.5 L 18.6875 21.1875 L 16.59375 26 L 18.75 26 L 20.5 22 C 20.745 21.437 20.7265 20.793 20.4375 20.25 L 18.46875 16.5625 L 21 14.09375 L 21 15 C 21 16.093063 21.906937 17 23 17 L 27 17 L 27 15 L 23 15 L 23 13.03125 C 23 12.631245 22.872948 12.233268 22.65625 11.90625 L 20.5 8.6875 C 20.33286 8.4407688 20.098995 8.244127 19.84375 8.09375 L 16.875 6.34375 C 16.522603 6.1383098 16.121805 6.0614611 15.71875 6.09375 z M 24.5 7.5 C 25.064129 7.5 25.5 7.9358709 25.5 8.5 C 25.5 9.0641291 25.064129 9.5 24.5 9.5 C 23.935871 9.5 23.5 9.0641291 23.5 8.5 C 23.5 7.9358709 23.935871 7.5 24.5 7.5 z M 3 11 L 3 13 L 11.3125 13 C 11.5775 12.252 12.022 11.567 12.625 11 L 3 11 z M 3 15 L 3 17 L 11.5 17 L 11.28125 16.3125 C 11.13825 15.8845 11.05925 15.434 11.03125 15 L 3 15 z" overflow="visible" font-family="Bitstream Vera Sans" fill="#000000"/></svg>
