<?xml version="1.0" encoding="utf-8"?>
<svg xmlns="http://www.w3.org/2000/svg" viewBox="0 0 32 32" fill="#000000"><path style="text-indent:0;text-align:start;line-height:normal;text-transform:none;block-progression:tb;-inkscape-font-specification:Sans" d="M 11.65625 3 C 10.827176 3 10.437264 3.4387573 9.96875 3.875 C 9.5002357 4.3112427 9.0500344 4.8538167 8.625 5.46875 C 8.4974897 5.65323 8.3717673 5.8407505 8.25 6.03125 C 8.06511 5.5783608 7.8616391 5.1575725 7.65625 4.8125 C 6.9778249 3.6726835 6.21875 3.0625 6.21875 3.0625 L 4.96875 4.625 C 4.96875 4.625 5.4179251 4.9708165 5.9375 5.84375 C 6.4570749 6.7166835 7 8.0536729 7 10 L 7 23 L 9 23 L 9 10 C 9 9.8172073 8.976687 9.6441794 8.96875 9.46875 L 9 9.46875 C 9 8.9994528 9.5333189 7.6306333 10.25 6.59375 C 10.608341 6.0753083 10.993421 5.6096011 11.3125 5.3125 C 11.429496 5.2035629 11.538106 5.1400682 11.625 5.09375 C 11.70284 5.139931 11.805262 5.2016387 11.90625 5.3125 C 12.198474 5.6332926 12.550753 6.1392502 12.875 6.6875 C 13.199247 7.2357498 13.482167 7.8540276 13.6875 8.375 C 13.892833 8.8959724 14 9.3594415 14 9.46875 L 14 23 L 16 23 L 16 9.46875 C 16 8.9399992 16.487064 7.5953867 17.125 6.5625 C 17.443968 6.0460567 17.777099 5.5699851 18.0625 5.28125 C 18.153828 5.1888548 18.239288 5.1354312 18.3125 5.09375 C 18.402748 5.1438386 18.524719 5.2108429 18.65625 5.34375 C 18.981487 5.6723934 19.354605 6.1999188 19.71875 6.75 C 20.082895 7.3000812 20.42423 7.8883492 20.65625 8.40625 C 20.88827 8.9241508 21 9.3973874 21 9.46875 L 21 19.71875 C 21 22.135417 22.404064 24.352172 23.71875 26 C 24.012909 26.368699 24.314658 26.69217 24.59375 27 L 22 27 L 22 29 L 27 29 L 28 29 L 28 28 L 28 23 L 26 23 L 26 25.59375 C 25.767049 25.3336 25.524103 25.054392 25.28125 24.75 C 24.095936 23.264328 23 21.302083 23 19.71875 L 23 9.46875 C 23 8.8066126 22.788823 8.238443 22.5 7.59375 C 22.211177 6.949057 21.82548 6.2582938 21.40625 5.625 C 20.98702 4.9917062 20.524857 4.4047003 20.0625 3.9375 C 19.600143 3.4702997 19.235305 3 18.34375 3 C 17.514398 3 17.095724 3.4303913 16.65625 3.875 C 16.216776 4.3196087 15.787282 4.8830683 15.40625 5.5 C 15.24041 5.7685131 15.086751 6.0308487 14.9375 6.3125 C 14.82537 6.1036462 14.715003 5.8925184 14.59375 5.6875 C 14.218122 5.0523748 13.807745 4.4438012 13.375 3.96875 C 12.942255 3.4936988 12.547805 3 11.65625 3 z" overflow="visible" font-family="Sans" fill="#000000"/></svg>
