<?xml version="1.0" encoding="utf-8"?>
<svg xmlns="http://www.w3.org/2000/svg" viewBox="0 0 32 32" fill="#000000"><path style="text-indent:0;text-align:start;line-height:normal;text-transform:none;block-progression:tb;-inkscape-font-specification:Bitstream Vera Sans" d="M 11 5 L 11 27 L 13 27 L 13 5 L 11 5 z M 22 5 L 22 7 L 26 7 L 26 10 L 24 10 L 24 12 L 26 12 L 26 15 L 22 15 L 22 17 L 26 17 L 26 21 L 24 21 L 24 23 L 26 23 L 26 25 L 22 25 L 22 27 L 28 27 L 28 26 L 28 25 L 28 23 L 28 21 L 28 17 L 28 15 L 28 12 L 28 10 L 28 7 L 28 6 L 28 5 L 22 5 z M 5 7 L 5 25 L 7 25 L 7 7 L 5 7 z M 8 11 L 8 21 L 10 21 L 10 11 L 8 11 z M 14 11 L 14 21 L 16 21 L 16 11 L 14 11 z M 17 14 L 17 18 L 19 18 L 19 14 L 17 14 z" fill="#000000"/></svg>
