<?xml version="1.0" encoding="utf-8"?>
<svg xmlns="http://www.w3.org/2000/svg" viewBox="0 0 32 32" fill="#000000"><path style="text-indent:0;text-align:start;line-height:normal;text-transform:none;block-progression:tb;-inkscape-font-specification:Bitstream Vera Sans" d="M 8.75 4 C 6.1385204 4 4 6.1385204 4 8.75 C 4 9.777194 4.3204131 10.77139 4.9375 11.59375 L 5.84375 12.8125 C 6.9068967 14.230029 8.852935 14.698533 10.4375 13.90625 L 9.5625 12.09375 C 8.831065 12.459467 7.9596033 12.279471 7.46875 11.625 L 6.5625 10.40625 C 6.2055869 9.9306102 6 9.344806 6 8.75 C 6 7.2194796 7.2194796 6 8.75 6 L 15.25 6 C 15.677186 6 16 6.3228139 16 6.75 L 16 8.25 C 16 8.6669172 15.693147 8.9849764 15.28125 9 C 14.734285 8.649127 13.544918 8 12 8 C 9.8823106 8 8.375 9.21875 8.375 9.21875 L 9.625 10.78125 C 9.625 10.78125 10.651689 10 12 10 C 13.348311 10 14.375 10.78125 14.375 10.78125 L 15 10 L 15 11 L 15.25 11 C 16.756814 11 18 9.7568139 18 8.25 L 18 6.75 C 18 5.2431861 16.756814 4 15.25 4 L 8.75 4 z M 19 6 L 19 8 L 22 8 C 23.116666 8 24 8.8833339 24 10 L 24 13 L 26 13 L 26 10 C 26 7.8026661 24.197334 6 22 6 L 19 6 z M 23.75 14 C 22.242497 14 21 15.243627 21 16.75 L 21 17 L 22 17 L 21.21875 17.625 C 21.21875 17.625 22 18.651689 22 20 C 22 21.348311 21.21875 22.375 21.21875 22.375 L 22.78125 23.625 C 22.78125 23.625 24 22.117689 24 20 C 24 18.472137 23.353387 17.305582 23 16.75 C 23 16.324373 23.323503 16 23.75 16 L 25.25 16 C 25.675627 16 26 16.323503 26 16.75 L 26 23.25 C 26 24.78052 24.78052 26 23.25 26 C 22.655194 26 22.06939 25.794413 21.59375 25.4375 L 20.375 24.53125 C 19.719637 24.040202 19.540533 23.168935 19.90625 22.4375 L 18.09375 21.5625 C 17.301467 23.147065 17.768863 25.093298 19.1875 26.15625 L 20.40625 27.0625 C 21.22861 27.679587 22.222806 28 23.25 28 C 25.86148 28 28 25.86148 28 23.25 L 28 16.75 C 28 15.242497 26.756373 14 25.25 14 L 23.75 14 z" overflow="visible" font-family="Bitstream Vera Sans" fill="#000000"/></svg>
