<?xml version="1.0" encoding="utf-8"?>
<svg xmlns="http://www.w3.org/2000/svg" viewBox="0 0 32 32" fill="#000000"><path style="text-indent:0;text-align:start;line-height:normal;text-transform:none;block-progression:tb;-inkscape-font-specification:Sans" d="M 15 5 C 14.489005 5 14.063024 5.3061775 13.84375 5.59375 C 13.624476 5.8813225 13.499873 6.1691579 13.40625 6.46875 C 13.294954 6.8248963 13.206021 7.2023124 13.15625 7.59375 C 13.074706 7.5111549 13.008545 7.4229968 12.90625 7.34375 C 12.701661 7.1852564 12.427403 7 12 7 C 11.553642 7 11.285939 7.2066502 11.09375 7.375 C 10.901561 7.5433498 10.752511 7.7190182 10.625 7.90625 C 10.369978 8.2807136 10.142337 8.7257772 9.9375 9.1875 C 9.5978469 9.9531114 9.3725269 10.686064 9.1875 11.3125 C 6.2456688 12.777001 5.0043671 13.732984 4.65625 14.03125 C 4.4318606 14.03865 4.0018258 14.03445 3.3125 14.15625 C 2.8876306 14.23131 2.4637622 14.350569 2.03125 14.5625 C 1.8149939 14.668465 1.5810698 14.801139 1.375 15.03125 C 1.1689302 15.261361 1 15.616543 1 16 C 1 17.226805 1.6158802 18.213729 2.375 18.84375 C 3.0193261 19.3785 3.751894 19.631086 4.4375 19.8125 C 5.3542155 20.738586 6.6263902 21.215953 7.71875 21.53125 C 8.409944 21.730755 8.6028831 21.740858 9 21.8125 L 9 22 C 9 23.116709 9.7315697 23.935961 10.75 24.625 C 11.76843 25.314039 13.1847 25.842846 14.90625 26 L 14.96875 26 L 15 26 L 22 26 L 22.53125 26 L 22.84375 25.5625 C 22.76154 25.685819 22.81167 25.5691 22.875 25.5 C 22.93833 25.43094 23.039154 25.341101 23.15625 25.21875 C 23.390441 24.974049 23.710525 24.64744 24.09375 24.25 C 24.8602 23.455119 25.849204 22.416517 26.84375 21.3125 C 27.838296 20.208483 28.829687 19.053747 29.59375 18 C 29.975782 17.473126 30.315365 16.945371 30.5625 16.46875 C 30.809635 15.992129 31 15.5679 31 15 C 31 14.282736 30.62027 14.080618 30.375 13.875 C 30.12973 13.669382 29.87342 13.488999 29.5625 13.3125 C 28.94066 12.959502 28.173693 12.613041 27.40625 12.28125 C 26.10646 11.719307 25.176767 11.384779 24.8125 11.25 C 24.72941 10.905456 24.635617 10.463907 24.34375 9.65625 C 24.149172 9.1178119 23.935148 8.5793995 23.625 8.09375 C 23.314852 7.6081005 22.878392 7 22 7 C 21.348147 7 21.002996 7.2921965 20.75 7.59375 C 20.6793 7.1934044 20.599722 6.8057092 20.46875 6.4375 C 20.361246 6.1352688 20.237481 5.8443761 20 5.5625 C 19.762519 5.2806239 19.338247 5 18.84375 5 C 17.851195 5 17.149668 5.5398668 16.65625 6.0625 C 16.538111 5.8987616 16.442255 5.7182346 16.28125 5.5625 C 15.999491 5.2899644 15.592998 5 15 5 z M 18.59375 7.15625 C 18.709455 7.4921133 18.810606 8.0515886 18.875 8.625 C 18.990004 9.6490804 18.999434 10.565926 19 10.8125 A 1.0097184 1.0097184 0 0 0 19 10.90625 C 18.999985 10.915359 19 11 19 11 A 1.0097184 1.0097184 0 0 0 19 11.03125 A 1.0001 1.0001 0 0 0 19 11.09375 A 1.0097184 1.0097184 0 0 0 19.1875 11.59375 A 1.0001 1.0001 0 0 0 19.21875 11.65625 A 1.0097184 1.0097184 0 0 0 19.25 11.65625 A 1.0001 1.0001 0 0 0 19.28125 11.71875 A 1.0097184 1.0097184 0 0 0 19.3125 11.75 C 18.859895 11.864213 18.433791 12 17 12 C 15.722944 12 15.141693 11.880791 14.65625 11.78125 A 1.0001 1.0001 0 0 0 14.6875 11.71875 A 1.0097184 1.0097184 0 0 0 14.78125 11.65625 A 1.0001 1.0001 0 0 0 14.84375 11.53125 A 1.0097184 1.0097184 0 0 0 14.875 11.46875 A 1.0001 1.0001 0 0 0 14.90625 11.4375 A 1.0097184 1.0097184 0 0 0 14.96875 11.28125 A 1.0001 1.0001 0 0 0 14.96875 11.25 A 1.0097184 1.0097184 0 0 0 14.96875 11.1875 A 1.0001 1.0001 0 0 0 15 11.15625 A 1.0097184 1.0097184 0 0 0 15 11.09375 A 1.0001 1.0001 0 0 0 15 11.0625 A 1.0097184 1.0097184 0 0 0 15 11 A 1.0001 1.0001 0 0 0 15 10.96875 A 1.0097184 1.0097184 0 0 0 15 10.875 C 14.995939 10.738952 14.966041 9.6961124 15.0625 8.59375 C 15.10004 8.1647225 15.179655 7.8301537 15.25 7.5 C 15.466332 7.8673474 15.625 8.25 15.625 8.25 A 1.0001 1.0001 0 0 0 17.46875 8.3125 C 17.46875 8.3125 17.633694 7.9564371 17.9375 7.59375 C 18.158656 7.3297307 18.384681 7.2406481 18.59375 7.15625 z M 22 9.3125 C 22.153517 9.5820795 22.323512 9.9418475 22.46875 10.34375 C 22.802344 11.266874 23.03125 12.21875 23.03125 12.21875 L 23.15625 12.75 L 23.65625 12.9375 C 23.65625 12.9375 23.905115 13.026242 24 13.0625 L 24 15 L 20 15 L 9.0625 13.59375 C 9.5001802 13.363252 9.8876534 13.171393 10.4375 12.90625 L 10.84375 12.6875 L 10.96875 12.25 C 11.093564 11.769123 11.428424 10.764054 11.78125 9.96875 C 11.88105 9.7437807 11.966727 9.6152088 12.0625 9.4375 C 12.176809 9.6134606 12.291972 9.7578406 12.40625 9.96875 C 12.533129 10.202916 12.62072 10.41461 12.71875 10.625 C 12.389996 10.869921 12 11.23269 12 12 C 12 12.352917 12.156873 12.778817 12.4375 13.0625 C 12.718127 13.346183 13.079682 13.532342 13.46875 13.65625 C 14.246886 13.904065 15.294382 14 17 14 C 19.038325 14 20.12464 13.804768 20.875 13.46875 C 21.25018 13.300741 21.552073 13.081722 21.75 12.78125 C 21.947927 12.480778 22 12.10234 22 12 C 22.0019 11.587093 21.886552 11.458262 21.8125 11.34375 C 21.73845 11.229238 21.662445 11.169936 21.59375 11.09375 C 21.476687 10.963921 21.342377 10.857809 21.21875 10.75 C 21.327332 10.512171 21.444639 10.246769 21.59375 9.96875 C 21.733367 9.708432 21.865541 9.5075109 22 9.3125 z M 26 13.875 C 26.210227 13.962868 26.379188 14.032238 26.59375 14.125 C 27.326307 14.441709 28.05934 14.776873 28.5625 15.0625 C 28.724493 15.15446 28.805571 15.211571 28.90625 15.28125 C 28.87353 15.384016 28.87067 15.390054 28.78125 15.5625 C 28.605713 15.901039 28.313906 16.336483 27.96875 16.8125 C 27.278438 17.764534 26.343954 18.893142 25.375 19.96875 C 24.406046 21.044358 23.417175 22.0546 22.65625 22.84375 C 22.275788 23.238325 21.961981 23.589604 21.71875 23.84375 C 21.65794 23.90729 21.613133 23.946346 21.5625 24 L 20.3125 24 C 20.420355 23.809259 20.548932 23.622848 20.71875 23.40625 C 21.214053 22.774505 21.953688 22.061167 22.71875 21.28125 C 24.248874 19.721416 26 17.764491 26 15 L 26 13.875 z M 8.9375 14.75 L 10.90625 15 C 10.719367 15.086026 10.59375 15.290672 10.59375 15.5625 C 10.59375 15.821384 10.702003 16.06137 10.875 16.15625 C 10.725362 16.162731 10.574337 16.157478 10.375 16.125 C 8.845 15.875 8.9375 14.75 8.9375 14.75 z M 7.03125 14.78125 C 7.0314031 14.831581 7.03125 14.86081 7.03125 14.90625 C 7.03125 15.47525 6.9395 17.376 9.1875 17.625 C 11.8555 17.92 13 15.5 13 15.5 L 13.59375 15.6875 C 13.59375 15.6875 13.969 19 17 19 C 20 19 20 16 20 16 L 23.875 16 C 23.531677 17.451587 22.484368 18.679771 21.28125 19.90625 C 20.546312 20.655458 19.785947 21.384339 19.15625 22.1875 C 18.729237 22.732144 18.356366 23.331411 18.15625 24 L 15.09375 24 C 13.6823 23.871154 12.57332 23.441211 11.875 22.96875 C 11.364689 22.62349 11.181545 22.318982 11.09375 22.15625 C 15.458557 22.495189 18.46875 20.875 18.46875 20.875 L 17.53125 19.125 C 17.53125 19.125 14.56614 20.700873 10.15625 20 L 10.125 20 C 10.125 20 9.2925329 19.885645 8.28125 19.59375 C 7.4277621 19.347401 6.502936 18.946346 6 18.5625 L 6 17 L 6 15.46875 C 6.2001154 15.312769 6.555535 15.083142 7.03125 14.78125 z M 11.28125 15.03125 L 11.84375 15.09375 C 11.84375 15.09375 11.926242 15.713806 11.40625 16 C 11.493475 15.886897 11.5625 15.735089 11.5625 15.5625 C 11.5625 15.322559 11.434242 15.135997 11.28125 15.03125 z M 15.5625 15.71875 L 17.8125 16 C 17.627568 16.11583 17.5 16.324677 17.5 16.59375 C 17.5 16.930091 17.706277 17.216351 17.96875 17.28125 C 17.794338 17.290287 17.585125 17.289375 17.34375 17.25 C 15.59975 16.965 15.5625 15.71875 15.5625 15.71875 z M 18.4375 16.0625 L 18.875 16.125 C 18.875 16.125 19.114016 16.917359 18.40625 17.1875 C 18.563714 17.06328 18.65625 16.837932 18.65625 16.59375 C 18.65625 16.366897 18.576511 16.189564 18.4375 16.0625 z M 4 16.09375 L 4 17 L 4 17.5625 C 3.8764922 17.486834 3.760845 17.399307 3.65625 17.3125 C 3.3255304 17.038024 3.2014472 16.68814 3.125 16.28125 C 3.2818802 16.227611 3.453541 16.166333 3.6875 16.125 C 3.7995744 16.1052 3.8891292 16.10781 4 16.09375 z" overflow="visible" font-family="Sans" fill="#000000"/></svg>
