<?xml version="1.0" encoding="utf-8"?>
<svg xmlns="http://www.w3.org/2000/svg" viewBox="0 0 32 32" fill="#000000"><path style="text-indent:0;text-align:start;line-height:normal;text-transform:none;block-progression:tb;-inkscape-font-specification:Bitstream Vera Sans" d="M 3 7 L 3 8 L 3 25 L 3 26 L 4 26 L 10 26 L 11 26 L 11 25 L 11 8 L 11 7 L 10 7 L 4 7 L 3 7 z M 12 7 L 12 9 L 27 9 L 27 20 L 12 20 L 12 22 L 17 22 L 17 24 L 13 24 L 13 26 L 23 26 L 23 24 L 19 24 L 19 22 L 28 22 L 29 22 L 29 21 L 29 8 L 29 7 L 28 7 L 12 7 z M 5 9 L 9 9 L 9 24 L 5 24 L 5 9 z M 7 21 C 6.4477153 21 6 21.447715 6 22 C 6 22.552285 6.4477153 23 7 23 C 7.5522847 23 8 22.552285 8 22 C 8 21.447715 7.5522847 21 7 21 z" overflow="visible" font-family="Bitstream Vera Sans" fill="#000000"/></svg>
