<?xml version="1.0" encoding="utf-8"?>
<svg xmlns="http://www.w3.org/2000/svg" viewBox="0 0 32 32" fill="#000000"><path style="text-indent:0;text-align:start;line-height:normal;text-transform:none;block-progression:tb;-inkscape-font-specification:Sans" d="M 9.40625 4 L 9.125 4.53125 L 3.125 15.53125 L 2.875 16 L 3.125 16.46875 L 9.125 27.46875 L 9.40625 28 L 10 28 L 22 28 L 22.59375 28 L 22.875 27.46875 L 28.875 16.46875 L 29.125 16 L 28.875 15.53125 L 22.875 4.53125 L 22.59375 4 L 22 4 L 10 4 L 9.40625 4 z M 10.59375 6 L 21.40625 6 L 22.5 8 L 12 8 L 11.40625 8 L 11.125 8.5 L 8.15625 13.6875 L 7.28125 12.03125 L 10.59375 6 z M 12.59375 10 L 19.40625 10 L 22.84375 16.03125 L 19.59375 22 L 12.59375 22 L 9.28125 15.78125 L 12.59375 10 z M 21.71875 10 L 23.59375 10 L 26.875 16 L 21.40625 26 L 19.6875 26 L 24.875 16.46875 L 25.15625 16 L 24.875 15.5 L 21.71875 10 z M 16 12 C 13.802706 12 12 13.802706 12 16 C 12 18.197294 13.802706 20 16 20 C 18.197294 20 20 18.197294 20 16 C 20 13.802706 18.197294 12 16 12 z M 16 14 C 17.116414 14 18 14.883586 18 16 C 18 17.116414 17.116414 18 16 18 C 14.883586 18 14 17.116414 14 16 C 14 14.883586 14.883586 14 16 14 z M 6.125 14.15625 L 11.125 23.46875 L 11.40625 24 L 12 24 L 18.5 24 L 17.40625 26 L 10.59375 26 L 5.125 16 L 6.125 14.15625 z" overflow="visible" font-family="Sans" fill="#000000"/></svg>
