<?xml version="1.0" encoding="utf-8"?>
<svg xmlns="http://www.w3.org/2000/svg" viewBox="0 0 32 32" fill="#000000"><path style="text-indent:0;text-align:start;line-height:normal;text-transform:none;block-progression:tb;-inkscape-font-specification:Bitstream Vera Sans" d="M 8.59375 4 L 8.28125 4.28125 L 4.28125 8.28125 L 3.90625 8.6875 L 4.03125 9.25 L 6.03125 17.25 L 7.96875 16.75 L 6.3125 10.0625 C 9.6043596 10.3599 13.249989 11.739123 16.21875 14 C 18.669759 15.865731 20.639932 18.296729 21.6875 21.21875 L 17.3125 22 L 17.65625 23.96875 L 23.1875 23 L 23.5 22.9375 L 23.71875 22.71875 L 27.71875 18.71875 L 28.09375 18.3125 L 27.96875 17.78125 C 26.98146 13.287062 23.922877 9.8425985 20.3125 7.53125 C 16.702123 5.2199015 12.534697 4 9 4 L 8.59375 4 z M 9.375 6.0625 C 12.384076 6.142012 16.091495 7.1966881 19.25 9.21875 C 22.38068 11.222999 24.879982 14.107904 25.84375 17.71875 L 23.40625 20.15625 C 22.174517 17.007783 20.027224 14.377573 17.4375 12.40625 C 14.38794 10.08384 10.759377 8.6140732 7.28125 8.15625 L 9.375 6.0625 z M 13 15 C 11.35499 15 10 16.35499 10 18 C 10 19.64501 11.35499 21 13 21 C 14.64501 21 16 19.64501 16 18 C 16 16.35499 14.64501 15 13 15 z M 13 17 C 13.564128 17 14 17.435872 14 18 C 14 18.564128 13.564128 19 13 19 C 12.435872 19 12 18.564128 12 18 C 12 17.435872 12.435872 17 13 17 z M 8.28125 17.9375 L 6.375 18.5 L 7.375 21.90625 L 6.53125 23.15625 C 5.5693116 24.606467 5.9918261 26.61 7.46875 27.53125 C 8.8687359 28.405509 10.715106 28.011614 11.65625 26.65625 L 12.8125 25 L 16.34375 24.28125 L 15.9375 22.3125 L 12.375 23.03125 L 9.25 21.1875 L 8.28125 17.9375 z M 8.84375 23.28125 L 10.78125 24.4375 L 10.03125 25.53125 C 9.6863935 26.027886 9.0432641 26.163491 8.53125 25.84375 C 7.9881739 25.505 7.8334384 24.815033 8.1875 24.28125 L 8.84375 23.28125 z" overflow="visible" font-family="Bitstream Vera Sans" fill="#000000"/></svg>
