<?xml version="1.0" encoding="utf-8"?>
<svg xmlns="http://www.w3.org/2000/svg" viewBox="0 0 32 32" fill="#000000"><path style="text-indent:0;text-align:start;line-height:normal;text-transform:none;block-progression:tb;-inkscape-font-specification:Sans" d="M 26 4 L 26 28 L 28 28 L 28 4 L 26 4 z M 23.21875 5.0625 L 17.0625 5.78125 L 16.8125 6.03125 C 16.8015 6.04225 16.69225 6.1345 16.53125 6.3125 L 21.4375 7.28125 L 23.4375 7.03125 L 23.21875 5.0625 z M 8.375 5.4375 C 8.375 5.4375 6.0811911 6.5856516 4.40625 9 L 5.21875 9.5625 C 6.7378089 7.3728484 8.8125 6.3125 8.8125 6.3125 L 8.375 5.4375 z M 11.9375 5.5 C 11.9375 5.5 7.9147201 7.7496378 6.15625 12.40625 L 7.09375 12.75 C 8.7112799 8.4666122 12.40625 6.375 12.40625 6.375 L 11.9375 5.5 z M 14.5 6.9375 L 14.125 7.25 C 14.125 7.25 11.199143 9.7184985 11 13.3125 C 10.92905 14.593293 11.224591 16.255514 11.53125 17.71875 C 11.546357 17.790832 11.547376 17.835589 11.5625 17.90625 L 10.65625 17.3125 C 10.017818 16.895524 9.216541 16.890421 8.5625 17.28125 L 4.25 19.84375 L 5.28125 21.5625 L 9.59375 19 L 12.59375 20.96875 C 13.88419 21.810527 15.574806 21.659429 16.6875 20.59375 C 17.678812 19.645167 18.010501 18.146252 17.46875 16.875 C 17.125553 16.070247 16.712216 14.805072 16.375 13.625 C 16.065867 12.543203 15.873125 11.588639 15.8125 11.1875 C 15.993781 10.621892 16.298457 9.9845513 16.65625 9.40625 L 22.03125 10.46875 L 22.40625 8.5 L 14.96875 7.03125 L 14.5 6.9375 z M 13.71875 11 L 13.75 11.15625 C 13.81877 11.860772 14.084966 12.922572 14.4375 14.15625 C 14.790034 15.389928 15.217197 16.700003 15.625 17.65625 C 15.839249 18.158998 15.71319 18.741583 15.3125 19.125 C 14.947576 19.474505 14.454387 19.559814 14 19.40625 C 13.919151 19.086313 13.740669 18.460859 13.5 17.3125 C 13.205909 15.909236 12.95595 14.201457 13 13.40625 C 13.050355 12.497467 13.350708 11.673592 13.71875 11 z M 19 20 C 17.35499 20 16 21.35499 16 23 C 16 24.64501 17.35499 26 19 26 C 20.64501 26 22 24.64501 22 23 C 22 21.35499 20.64501 20 19 20 z M 19 22 C 19.564128 22 20 22.435872 20 23 C 20 23.564128 19.564128 24 19 24 C 18.435872 24 18 23.564128 18 23 C 18 22.435872 18.435872 22 19 22 z" overflow="visible" font-family="Sans" fill="#000000"/></svg>
