<?xml version="1.0" encoding="utf-8"?>
<svg xmlns="http://www.w3.org/2000/svg" viewBox="0 0 32 32" fill="#000000"><path style="text-indent:0;text-align:start;line-height:normal;text-transform:none;block-progression:tb;-inkscape-font-specification:Bitstream Vera Sans" d="M 0 7 L 0 8 L 0 24 L 0 25 L 1 25 L 31 25 L 32 25 L 32 24 L 32 8 L 32 7 L 31 7 L 1 7 L 0 7 z M 2 9 L 30 9 L 30 23 L 2 23 L 2 9 z M 7 12 L 7 13 L 7 13.15625 L 7.03125 13.3125 L 8.9375 19.3125 L 9.15625 20 L 9.90625 20 L 10.09375 20 L 10.84375 20 L 11.0625 19.3125 L 12.96875 13.3125 L 13 13.15625 L 13 13 L 13 12 L 11 12 L 11 12.78125 L 10 16 L 9 12.78125 L 9 12 L 7 12 z M 14 12 L 14 13 L 14 19 L 14 20 L 15 20 L 16.5 20 C 17.883333 20 19 18.883333 19 17.5 C 19 16.919095 18.737137 16.423912 18.40625 16 C 18.737137 15.576088 19 15.080905 19 14.5 C 19 13.116667 17.883333 12 16.5 12 L 15 12 L 14 12 z M 22.5 12 C 21.116667 12 20 13.116667 20 14.5 C 20 15.883333 21.116667 17 22.5 17 C 22.716667 17 23 17.283333 23 17.5 C 23 17.8 22.881481 18 22.5 18 C 22.131818 18 22.075546 17.91998 22.0625 17.90625 C 22.049454 17.892518 22 17.827083 22 17.59375 L 20 17.59375 C 20 18.160417 20.163046 18.794982 20.625 19.28125 C 21.086954 19.767518 21.768182 20 22.5 20 C 23.918519 20 25 18.8 25 17.5 C 25 16.116667 23.883333 15 22.5 15 C 22.283333 15 22 14.716667 22 14.5 C 22 14.283333 22.283333 14 22.5 14 C 22.766667 14 22.847593 14.06341 22.90625 14.125 C 22.964907 14.18659 23 14.294345 23 14.40625 L 25 14.40625 C 25 13.818155 24.785093 13.21341 24.34375 12.75 C 23.902407 12.28659 23.233333 12 22.5 12 z M 16 14 L 16.5 14 C 16.716667 14 17 14.283333 17 14.5 C 17 14.716667 16.716667 15 16.5 15 L 16 15 L 16 14 z M 16 17 L 16.5 17 C 16.716667 17 17 17.283333 17 17.5 C 17 17.716667 16.716667 18 16.5 18 L 16 18 L 16 17 z" overflow="visible" font-family="Bitstream Vera Sans" fill="#000000"/></svg>
