<?xml version="1.0" encoding="utf-8"?>
<svg xmlns="http://www.w3.org/2000/svg" viewBox="0 0 32 32" fill="#000000"><path style="text-indent:0;text-align:start;line-height:normal;text-transform:none;block-progression:tb;-inkscape-font-specification:Sans" d="M 10.8125 4 A 1.0001 1.0001 0 0 0 10.625 4.0625 L 8.125 5.0625 L 8.875 6.9375 L 11.125 6.03125 L 15 6.8125 L 15 11 L 17 11 L 17 6.8125 L 20.875 6.03125 L 23.125 6.9375 L 23.875 5.0625 L 21.375 4.0625 A 1.0001 1.0001 0 0 0 20.8125 4.03125 L 16 5 L 11.1875 4.03125 A 1.0001 1.0001 0 0 0 10.90625 4 A 1.0001 1.0001 0 0 0 10.8125 4 z M 15 12 L 15 24 L 12 24 L 12 26 L 20 26 L 20 24 L 17 24 L 17 12 L 15 12 z M 9.5 19 C 8.672 19 8 19.672 8 20.5 L 8 26.5 C 8 27.328 8.672 28 9.5 28 C 10.328 28 11 27.328 11 26.5 L 11 20.5 C 11 19.672 10.328 19 9.5 19 z M 22.5 19 C 21.672 19 21 19.672 21 20.5 L 21 26.5 C 21 27.328 21.672 28 22.5 28 C 23.328 28 24 27.328 24 26.5 L 24 20.5 C 24 19.672 23.328 19 22.5 19 z" overflow="visible" font-family="Sans" fill="#000000"/></svg>
