<?xml version="1.0" encoding="utf-8"?>
<svg xmlns="http://www.w3.org/2000/svg" viewBox="0 0 32 32" fill="#000000"><path style="text-indent:0;text-align:start;line-height:normal;text-transform:none;block-progression:tb;-inkscape-font-specification:Sans" d="M 6.5 3 C 6.2238576 3 6 3.2238576 6 3.5 C 6 3.7761424 6.2238576 4 6.5 4 C 6.7761424 4 7 3.7761424 7 3.5 C 7 3.2238576 6.7761424 3 6.5 3 z M 6.5 4 C 5.4865803 4 4.4605334 4.399629 3.59375 5.0625 C 2.7269666 5.725371 2 6.7343143 2 8 C 2 9.0646941 2.3293952 9.838899 2.75 10.3125 C 2.825176 10.397148 2.9188936 10.464573 3 10.53125 L 3 27 L 3 28 L 4 28 L 6 28 L 6 26 L 5 26 L 5 11 L 6 11 L 7 11 L 8 11 L 8 17.125 L 9.5625 14.5 L 9.875 14 L 10 14 L 10 10.53125 C 10.081106 10.464573 10.174824 10.397148 10.25 10.3125 C 10.670605 9.838899 11 9.0646941 11 8 C 11 6.7366026 10.270241 5.7260998 9.40625 5.0625 C 8.5422593 4.3989002 7.5134197 4 6.5 4 z M 11 8 C 11 9.0646941 11.329395 9.838899 11.75 10.3125 C 11.825176 10.397148 11.918894 10.464573 12 10.53125 L 12 14 L 14 14 L 14 11 L 15 11 L 16 11 L 17 11 L 17 14 L 19 14 L 19 10.53125 C 19.081106 10.464573 19.174824 10.397148 19.25 10.3125 C 19.670605 9.838899 20 9.0646941 20 8 C 20 6.7366026 19.270241 5.7260998 18.40625 5.0625 C 17.542259 4.3989002 16.51342 4 15.5 4 C 14.48658 4 13.460533 4.399629 12.59375 5.0625 C 11.726967 5.725371 11 6.7343143 11 8 z M 15.5 4 C 15.776142 4 16 3.7761424 16 3.5 C 16 3.2238576 15.776142 3 15.5 3 C 15.223858 3 15 3.2238576 15 3.5 C 15 3.7761424 15.223858 4 15.5 4 z M 6.5 6 C 6.9385803 6 7.6674907 6.2255998 8.1875 6.625 C 8.7075093 7.0244002 9 7.5153974 9 8 C 9 8.6833059 8.8293952 8.910601 8.75 9 L 7 9 L 6 9 L 4.25 9 C 4.1706048 8.910601 4 8.6833059 4 8 C 4 7.5176857 4.2892834 7.025129 4.8125 6.625 C 5.3357166 6.224871 6.0614197 6 6.5 6 z M 15.5 6 C 15.93858 6 16.667491 6.2255998 17.1875 6.625 C 17.707509 7.0244002 18 7.5153974 18 8 C 18 8.6833059 17.829395 8.910601 17.75 9 L 16 9 L 15 9 L 13.25 9 C 13.170605 8.910601 13 8.6833059 13 8 C 13 7.5176857 13.289283 7.025129 13.8125 6.625 C 14.335717 6.224871 15.06142 6 15.5 6 z M 6 12 L 6 14 L 7 14 L 7 12 L 6 12 z M 15 12 L 15 14 L 16 14 L 16 12 L 15 12 z M 10.4375 15 L 10.15625 15.5 L 7.15625 20.5 L 7 20.71875 L 7 21 L 7 27 L 7 28 L 8 28 L 28 28 L 29 28 L 29 27 L 29 21 L 29 20.71875 L 28.84375 20.5 L 25.84375 15.5 L 25.5625 15 L 25 15 L 11 15 L 10.4375 15 z M 6 16 L 6 18 L 7 18 L 7 16 L 6 16 z M 11.53125 17 L 24.46875 17 L 26.25 20 L 9.75 20 L 11.53125 17 z M 9 22 L 27 22 L 27 26 L 25 26 L 25 23 L 23 23 L 23 26 L 21 26 L 21 23 L 19 23 L 19 26 L 17 26 L 17 23 L 15 23 L 15 26 L 13 26 L 13 23 L 11 23 L 11 26 L 9 26 L 9 22 z" fill="#000000"/></svg>
