<?xml version="1.0" encoding="utf-8"?>
<svg xmlns="http://www.w3.org/2000/svg" viewBox="0 0 32 32" fill="#000000"><path d="M 16 4 C 15.204344 4 14.766954 4.5352809 14.53125 4.8125 C 14.427215 4.9348588 14.351548 5.0183425 14.3125 5.0625 C 14.3073 5.06836 14.28493 5.089905 14.28125 5.09375 C 13.580099 5.2311654 12.589483 5.4282249 11.5625 6.09375 C 10.426594 6.8298611 9.34375 8.151182 9.34375 10 C 9.34375 13.131502 10.34954 16.562096 10.90625 18.8125 C 10.999075 19.188548 10.843707 20.807476 12 22.21875 L 12 25 C 12 26.093063 12.906937 27 14 27 L 15 28 L 17 28 L 18 27 C 19.093063 27 20 26.093063 20 25 L 20 22.21875 C 21.156178 20.80669 21.00119 19.187044 21.09375 18.8125 C 21.649312 16.562766 22.65625 13.131732 22.65625 10 C 22.65625 8.151182 21.604656 6.8298611 20.46875 6.09375 C 19.440758 5.4275711 18.419837 5.2309894 17.71875 5.09375 C 17.72295 5.09813 17.68616 5.06254 17.6875 5.0625 C 17.64848 5.018435 17.572779 4.934774 17.46875 4.8125 C 17.233059 4.5354731 16.795656 4 16 4 z M 16 6.125 C 16.07388 6.214018 16.148983 6.3308941 16.28125 6.46875 C 16.426624 6.6202673 16.63013 6.8585032 17.09375 6.9375 C 17.600393 7.024999 18.605156 7.2823611 19.375 7.78125 C 20.144844 8.2801389 20.65625 8.871818 20.65625 10 C 20.65625 12.676268 19.701438 16.009484 19.125 18.34375 C 18.830922 19.53374 19.046976 20.207667 18.34375 21 L 13.6875 21 C 12.984469 20.208394 13.168809 19.534018 12.875 18.34375 C 12.29771 16.010154 11.34375 12.676498 11.34375 10 C 11.34375 8.871818 11.855156 8.2801389 12.625 7.78125 C 13.394844 7.2823611 14.399607 7.0249995 14.90625 6.9375 C 15.370514 6.858172 15.573699 6.6201717 15.71875 6.46875 C 15.850723 6.3309811 15.926248 6.2139239 16 6.125 z M 14 23 L 18 23 L 18 25 L 14 25 L 14 23 z" fill="#000000"/></svg>
