<?xml version="1.0" encoding="utf-8"?>
<svg xmlns="http://www.w3.org/2000/svg" viewBox="0 0 32 32" fill="#000000"><path style="text-indent:0;text-align:start;line-height:normal;text-transform:none;block-progression:tb;-inkscape-font-specification:Sans" d="M 15.21875 3 C 15.21875 3 15.045478 3.2305616 14.8125 3.46875 C 14.696011 3.5878442 14.554231 3.715559 14.46875 3.78125 C 14.42601 3.8140955 14.376736 3.8163775 14.375 3.8125 C 13.831384 3.8858665 13.292826 3.9847797 12.78125 4.125 C 12.680491 4.0989917 12.499076 4.0342871 12.34375 3.96875 C 12.033099 3.8376759 11.75 3.6875 11.75 3.6875 L 10.3125 4.28125 C 10.3125 4.28125 10.24857 4.5973687 10.125 4.90625 C 10.06894 5.0463766 10.020345 5.1863812 9.96875 5.28125 L 10 5.3125 C 9.4728914 5.6107942 8.9388328 5.9145833 8.46875 6.28125 C 8.3654209 6.2958474 8.1998312 6.3135085 8.03125 6.3125 C 7.6940876 6.310483 7.375 6.25 7.375 6.25 L 6.28125 7.375 C 6.28125 7.375 6.30878 7.6671996 6.3125 8 C 6.31436 8.1664002 6.326494 8.330602 6.3125 8.4375 C 5.9673412 8.8812733 5.6600403 9.3768559 5.375 9.875 C 5.3604469 9.8880455 5.34182 9.8895998 5.3125 9.90625 C 5.21721 9.960363 5.0607048 10.031075 4.90625 10.09375 C 4.5973403 10.2191 4.3125 10.3125 4.3125 10.3125 L 3.71875 11.75 C 3.71875 11.75 3.869593 12.007115 4 12.3125 C 4.065203 12.465192 4.1276617 12.644943 4.15625 12.75 C 4.170544 12.802529 4.1581295 12.837797 4.15625 12.84375 C 4.0203713 13.348005 3.9152915 13.872134 3.84375 14.40625 C 3.8399356 14.423012 3.835838 14.438615 3.8125 14.46875 C 3.7458198 14.554849 3.6190204 14.695144 3.5 14.8125 C 3.2619591 15.047212 3.03125 15.25 3.03125 15.25 L 3.03125 16.78125 C 3.03125 16.78125 3.2639635 16.987961 3.5 17.21875 C 3.6180183 17.334144 3.7445907 17.444448 3.8125 17.53125 C 3.8464545 17.57465 3.8705945 17.617605 3.875 17.625 C 3.9538634 18.216654 4.0621562 18.786431 4.21875 19.34375 L 4.1875 19.34375 C 4.1700214 19.280353 4.1601061 19.27835 4.15625 19.25 C 4.1292279 19.352848 4.0653743 19.532223 4 19.6875 C 3.8692515 19.998054 3.71875 20.28125 3.71875 20.28125 L 4.34375 21.71875 C 4.34375 21.71875 4.6318492 21.78386 4.9375 21.90625 C 5.0903254 21.96744 5.2162885 22.039617 5.3125 22.09375 C 5.3606055 22.120815 5.3958478 22.14908 5.40625 22.15625 C 5.6857206 22.644047 5.9726974 23.125926 6.3125 23.5625 C 6.327142 23.666494 6.344707 23.830871 6.34375 24 C 6.34184 24.338258 6.3125 24.65625 6.3125 24.65625 L 7.40625 25.75 C 7.40625 25.75 7.6994554 25.72247 8.03125 25.71875 C 8.1971473 25.71685 8.362445 25.73605 8.46875 25.75 C 8.5219025 25.756975 8.5608218 25.781935 8.5625 25.78125 C 8.9959977 26.108139 9.4583274 26.416191 9.9375 26.6875 C 9.9654461 26.703323 10.003279 26.70306 10.03125 26.71875 L 10.03125 26.75 C 9.9668054 26.714564 9.9603166 26.706891 9.9375 26.6875 C 9.990731 26.77826 10.061432 26.937303 10.125 27.09375 C 10.252137 27.406645 10.34375 27.71875 10.34375 27.71875 L 11.78125 28.3125 C 11.78125 28.3125 12.038558 28.161971 12.34375 28.03125 C 12.496346 27.96589 12.677719 27.902848 12.78125 27.875 C 13.302907 28.017895 13.853231 28.115031 14.40625 28.1875 C 14.397699 28.183001 14.427126 28.187365 14.46875 28.21875 C 14.552 28.28152 14.693929 28.41098 14.8125 28.53125 C 15.049642 28.771791 15.25 29 15.25 29 L 16.8125 29 C 16.8125 29 16.986594 28.76925 17.21875 28.53125 C 17.334828 28.41225 17.477432 28.284251 17.5625 28.21875 C 17.587763 28.21245 17.618894 28.190986 17.625 28.1875 C 18.214427 28.10504 18.790101 27.969987 19.34375 27.8125 L 19.375 27.84375 C 19.30989 27.863328 19.309723 27.870707 19.28125 27.875 C 19.382009 27.90101 19.532174 27.96571 19.6875 28.03125 C 19.998151 28.162324 20.28125 28.3125 20.28125 28.3125 L 21.71875 27.71875 C 21.71875 27.71875 21.78256 27.402556 21.90625 27.09375 C 21.9681 26.939347 22.040102 26.81189 22.09375 26.71875 C 22.120575 26.67218 22.146518 26.628081 22.15625 26.625 C 22.638696 26.344244 23.127555 26.058686 23.5625 25.71875 C 23.66572 25.70416 23.831346 25.71775 24 25.71875 C 24.337308 25.72075 24.65625 25.75 24.65625 25.75 L 25.75 24.625 C 25.75 24.625 25.72247 24.3328 25.71875 24 C 25.71685 23.8336 25.70476 23.669398 25.71875 23.5625 C 25.70775 23.580178 25.707429 23.566467 25.6875 23.59375 L 25.65625 23.5625 C 26.021668 23.094548 26.388125 22.617328 26.6875 22.09375 C 26.7774 22.0406 26.937503 21.970087 27.09375 21.90625 C 27.406244 21.778576 27.71875 21.6875 27.71875 21.6875 L 28.3125 20.25 C 28.3125 20.25 28.161869 19.962339 28.03125 19.65625 C 27.96594 19.503205 27.902878 19.354012 27.875 19.25 C 27.871228 19.274145 27.855101 19.266057 27.84375 19.3125 L 27.8125 19.28125 C 27.979657 18.679299 28.11332 18.079687 28.1875 17.4375 L 28.21875 17.4375 C 28.212304 17.501392 28.224782 17.503506 28.21875 17.53125 C 28.28147 17.44768 28.380048 17.337587 28.5 17.21875 C 28.739903 16.981077 29 16.78125 29 16.78125 L 29 15.21875 C 29 15.21875 28.767944 15.013907 28.53125 14.78125 C 28.412903 14.664921 28.284048 14.554178 28.21875 14.46875 C 28.224431 14.491533 28.212183 14.488661 28.21875 14.53125 L 28.1875 14.53125 C 28.11164 13.8898 27.981061 13.289085 27.8125 12.6875 C 27.8098 12.6777 27.8153 12.66604 27.8125 12.65625 L 27.84375 12.65625 C 27.863125 12.721186 27.870749 12.721494 27.875 12.75 C 27.90114 12.648464 27.96578 12.468362 28.03125 12.3125 C 28.162189 12.000775 28.3125 11.71875 28.3125 11.71875 L 27.71875 10.28125 C 27.71875 10.28125 27.401696 10.21767 27.09375 10.09375 C 26.939777 10.03179 26.811602 9.9599645 26.71875 9.90625 C 26.672325 9.879393 26.627989 9.8455122 26.625 9.84375 C 26.622011 9.8419878 26.660367 9.8723443 26.71875 9.96875 C 26.71585 9.96364 26.69038 9.97386 26.6875 9.96875 C 26.664967 9.9287841 26.647867 9.883485 26.625 9.84375 C 26.345594 9.3582415 26.057129 8.8749871 25.71875 8.4375 C 25.70411 8.3335056 25.717793 8.169129 25.71875 8 C 25.720663 7.6617419 25.75 7.34375 25.75 7.34375 L 24.625 6.25 C 24.625 6.25 24.331795 6.277533 24 6.28125 C 23.834103 6.28311 23.668805 6.295198 23.5625 6.28125 C 23.580182 6.2922915 23.566415 6.2924792 23.59375 6.3125 L 23.5625 6.34375 C 23.097305 5.9791323 22.613411 5.6122259 22.09375 5.3125 C 22.066079 5.2965404 22.027813 5.2969149 22 5.28125 L 22 5.25 C 22.06523 5.2852637 22.070856 5.2931829 22.09375 5.3125 C 22.04066 5.222328 21.969888 5.0627943 21.90625 4.90625 C 21.778975 4.5931614 21.6875 4.28125 21.6875 4.28125 L 20.25 3.6875 C 20.25 3.6875 19.992692 3.8380292 19.6875 3.96875 C 19.534904 4.03411 19.384781 4.0971517 19.28125 4.125 C 19.177719 4.152848 19.09286 4.102571 19.3125 4.15625 L 19.28125 4.1875 C 18.715108 4.0296303 18.160515 3.8602363 17.5625 3.78125 C 17.479037 3.7182855 17.337369 3.5890158 17.21875 3.46875 C 16.981512 3.2282183 16.78125 3 16.78125 3 L 15.21875 3 z M 17.4375 3.78125 C 17.50337 3.78806 17.4403 3.77538 17.46875 3.78125 L 17.46875 3.875 L 17.4375 3.78125 z M 19.875 4.53125 C 19.92 4.59125 19.94094 4.6318715 19.96875 4.6875 L 19.65625 4.84375 L 19.875 4.53125 z M 12.125 4.5625 L 12.40625 4.9375 L 12.21875 4.875 C 12.219241 4.8733119 12.25 4.84375 12.25 4.84375 L 12.03125 4.78125 C 12.050569 4.738413 12.092261 4.6099155 12.125 4.5625 z M 16.03125 5.0625 C 16.138478 5.1627774 16.217007 5.2793845 16.34375 5.375 C 16.544364 5.5263439 16.775209 5.6911416 17.21875 5.75 L 17.21875 5.78125 C 17.23224 5.78292 17.23605 5.77981 17.25 5.78125 C 17.781574 5.845109 18.302683 5.9489872 18.8125 6.09375 L 18.84375 6.03125 L 18.84375 6.09375 C 19.28639 6.2019288 19.531718 6.12962 19.78125 6.0625 C 19.929694 6.022571 20.054398 5.9568897 20.1875 5.90625 C 20.249 6.0420742 20.293076 6.1733619 20.375 6.3125 C 20.502183 6.5285057 20.646925 6.7766002 21.03125 7 L 21.03125 7.03125 C 21.04025 7.03631 21.05317 7.02621 21.0625 7.03125 C 21.527908 7.2950083 21.95347 7.6035252 22.375 7.9375 L 22.40625 7.9375 C 22.773481 8.2064719 23.056555 8.2164172 23.3125 8.25 C 23.457375 8.269009 23.582898 8.276673 23.71875 8.28125 C 23.72375 8.4288735 23.72775 8.5605604 23.75 8.71875 C 23.78544 8.9704933 23.8133 9.2325702 24.09375 9.59375 L 24.09375 9.625 L 24.0625 9.625 C 24.402581 10.05583 24.701913 10.491348 24.96875 10.96875 L 25.0625 10.96875 L 25 11 C 25.235766 11.389311 25.463852 11.495621 25.6875 11.625 C 25.825161 11.70464 25.959677 11.752458 26.09375 11.8125 C 26.03955 11.95596 25.979006 12.088783 25.9375 12.25 C 25.87635 12.487509 25.803159 12.743466 25.90625 13.15625 L 25.875 13.1875 C 26.023574 13.713012 26.155334 14.263494 26.21875 14.8125 C 26.2879 15.260962 26.468298 15.482491 26.625 15.6875 C 26.71528 15.805616 26.812037 15.898977 26.90625 16 C 26.806003 16.107663 26.720531 16.216456 26.625 16.34375 C 26.474278 16.544584 26.308009 16.745556 26.25 17.1875 C 26.2474 17.20737 26.22086 17.19786 26.21875 17.21875 C 26.15484 17.757063 26.020921 18.296374 25.875 18.8125 L 25.90625 18.8125 L 25.90625 18.84375 C 25.81361 19.26035 25.87275 19.53968 25.9375 19.78125 C 25.9773 19.929743 26.043237 20.054247 26.09375 20.1875 C 25.958142 20.24919 25.826403 20.29288 25.6875 20.375 C 25.47186 20.502488 25.222642 20.646494 25 21.03125 L 24.96875 21.03125 C 24.96455 21.03885 24.97305 21.0549 24.96875 21.0625 C 24.70656 21.53017 24.397565 21.950524 24.0625 22.375 L 24.0625 22.40625 C 23.794137 22.77364 23.783538 23.025054 23.75 23.28125 C 23.73041 23.430883 23.72312 23.578707 23.71875 23.71875 C 23.571187 23.72375 23.439511 23.72765 23.28125 23.75 C 23.029392 23.78559 22.767372 23.81158 22.40625 24.09375 L 22.375 24.09375 L 22.375 24.0625 C 21.949337 24.401386 21.505972 24.701889 21.03125 24.96875 L 21.03125 25.0625 L 21 25 C 20.609996 25.236788 20.503977 25.494828 20.375 25.71875 C 20.30062 25.847888 20.244522 25.967556 20.1875 26.09375 C 20.052165 26.04323 19.932403 25.976516 19.78125 25.9375 C 19.535098 25.87396 19.253513 25.783991 18.8125 25.90625 C 18.79829 25.91015 18.79586 25.90185 18.78125 25.90625 C 18.271631 26.049687 17.749871 26.156682 17.21875 26.21875 L 17.1875 26.28125 L 17.1875 26.21875 C 16.736464 26.28845 16.548463 26.467376 16.34375 26.625 C 16.219795 26.72044 16.136366 26.83796 16.03125 26.9375 C 15.922233 26.835207 15.816833 26.722528 15.6875 26.625 C 15.486679 26.473565 15.257279 26.30806 14.8125 26.25 C 14.8065 26.24922 14.8186 26.21949 14.8125 26.21875 C 14.8023 26.21755 14.79144 26.21995 14.78125 26.21875 C 14.251659 26.15485 13.726075 26.049273 13.21875 25.90625 L 13.1875 25.96875 L 13.1875 25.90625 C 12.74486 25.798071 12.499532 25.87038 12.25 25.9375 C 12.101556 25.977429 11.976852 26.04311 11.84375 26.09375 C 11.78253 25.958348 11.737569 25.826158 11.65625 25.6875 C 11.52727 25.467574 11.400867 25.228953 11 25 C 10.531886 24.737422 10.079823 24.428391 9.65625 24.09375 L 9.5625 24.125 L 9.625 24.0625 C 9.257769 23.793528 9.005945 23.783583 8.75 23.75 C 8.6005139 23.730386 8.4523346 23.723126 8.3125 23.71875 C 8.3074463 23.571472 8.3034654 23.439036 8.28125 23.28125 C 8.2447043 23.021682 8.2442931 22.753596 7.9375 22.375 C 7.9138948 22.345079 7.8982783 22.31139 7.875 22.28125 C 7.5634189 21.877819 7.2781407 21.473631 7.03125 21.03125 L 7 20.9375 C 6.7580716 20.577511 6.5305385 20.466429 6.3125 20.34375 C 6.1884436 20.27395 6.0589996 20.242104 5.9375 20.1875 C 5.987607 20.05351 6.0546119 19.930212 6.09375 19.78125 C 6.1595404 19.530848 6.2520745 19.273414 6.125 18.8125 C 5.976979 18.285692 5.8759021 17.736381 5.8125 17.1875 L 5.78125 17.125 C 5.6975973 16.696037 5.5298407 16.510417 5.375 16.3125 C 5.2831198 16.195059 5.1893 16.100968 5.09375 16 C 5.1913825 15.896298 5.3127141 15.808276 5.40625 15.6875 C 5.560726 15.488037 5.7377062 15.327977 5.8125 14.875 L 5.8125 14.8125 C 5.874795 14.263584 5.9759648 13.716483 6.125 13.1875 L 6.15625 13.15625 C 6.255698 12.719073 6.16088 12.465443 6.09375 12.21875 C 6.0538147 12.071995 5.9877521 11.944579 5.9375 11.8125 C 6.0568945 11.758066 6.1910561 11.725215 6.3125 11.65625 C 6.5300535 11.532707 6.756077 11.444611 7 11.0625 L 7.03125 11 C 7.2971312 10.521595 7.5957373 10.058634 7.9375 9.625 L 7.90625 9.53125 L 7.96875 9.59375 C 8.2371132 9.2263598 8.2477124 8.9749457 8.28125 8.71875 C 8.3008378 8.5691175 8.3081269 8.4212927 8.3125 8.28125 C 8.4597001 8.2762139 8.5921513 8.2722994 8.75 8.25 C 9.0096709 8.2133161 9.278293 8.2136116 9.65625 7.90625 C 10.081326 7.5702286 10.532366 7.2623092 11 7 L 11.03125 7 C 11.417126 6.7619273 11.528258 6.5044938 11.65625 6.28125 C 11.73006 6.1525031 11.787012 6.0321098 11.84375 5.90625 C 11.982217 5.958269 12.126143 6.022463 12.28125 6.0625 C 12.527147 6.125972 12.778589 6.2154374 13.21875 6.09375 C 13.22855 6.09099 13.24021 6.09648 13.25 6.09375 C 13.758706 5.9518217 14.284609 5.8423649 14.8125 5.78125 L 14.84375 5.71875 L 14.84375 5.78125 C 15.294621 5.711579 15.482637 5.532434 15.6875 5.375 C 15.81395 5.2778253 15.924238 5.1638864 16.03125 5.0625 z M 17.875 5.5 L 17.9375 5.59375 C 17.918797 5.607777 17.923118 5.6125453 17.90625 5.625 L 17.875 5.5 z M 21.6875 7.03125 L 21.71875 7.125 C 21.572891 7.154172 21.574863 7.143773 21.6875 7.125 L 21.6875 7.03125 z M 9.375 7.125 L 10.03125 7.125 C 10.03125 7.124 9.937125 7.56325 9.9375 7.5625 L 9.375 7.125 z M 16 8 C 13.949829 7.9999939 11.902311 8.785189 10.34375 10.34375 L 11.75 11.75 C 14.102878 9.3971221 17.898192 9.3973317 20.25 11.75 C 22.602878 14.102878 22.602668 17.898192 20.25 20.25 L 21.65625 21.65625 C 24.773582 18.540058 24.773372 13.460872 21.65625 10.34375 C 20.098154 8.7850842 18.050171 8.0000061 16 8 z M 25 8 C 25.281893 8.031321 25.278222 8.079188 25.0625 8.03125 L 24.96875 8.15625 L 25 8 z M 26.71875 10.8125 L 26.8125 10.8125 C 26.804516 10.831436 26.792476 10.815685 26.78125 10.84375 L 26.71875 10.8125 z M 8.28125 13.9375 C 7.5708145 16.604489 8.255076 19.567576 10.34375 21.65625 C 12.432295 23.744795 15.39477 24.429079 18.0625 23.71875 L 17.53125 21.78125 C 15.52698 22.314921 13.325455 21.825455 11.75 20.25 C 10.174674 18.674674 9.6539355 16.440511 10.1875 14.4375 L 8.28125 13.9375 z M 27.84375 15.28125 L 27.96875 15.3125 C 27.953116 15.331557 27.967513 15.344988 27.9375 15.375 L 27.84375 15.28125 z M 24.875 21.65625 L 25.125 21.71875 L 24.875 21.78125 C 24.855928 21.714499 24.880998 21.696499 24.875 21.65625 z M 14.375 26.28125 L 14.46875 26.96875 L 14 26.5 C 13.9995 26.5005 14.106645 26.4068 14.15625 26.375 C 14.20585 26.3432 14.24868 26.3273 14.28125 26.3125 C 14.34639 26.28289 14.3765 26.28075 14.375 26.28125 z M 12.15625 27.1875 L 12.0625 27.3125 C 12.04768 27.28477 12.04682 27.25792 12.03125 27.21875 L 12.15625 27.1875 z M 19.84375 27.25 L 19.96875 27.3125 C 19.812741 27.624519 19.752913 27.682645 19.9375 27.375 L 19.84375 27.25 z" overflow="visible" font-family="Sans" fill="#000000"/></svg>
