<?xml version="1.0" encoding="utf-8"?>
<svg xmlns="http://www.w3.org/2000/svg" viewBox="0 0 32 32" fill="#000000"><path style="text-indent:0;text-align:start;line-height:normal;text-transform:none;block-progression:tb;-inkscape-font-specification:Sans" d="M 13 5 C 11.904545 5 11 5.9045455 11 7 L 11 9 L 3 9 L 2 9 L 2 10 L 2 26 L 2 27 L 3 27 L 29 27 L 30 27 L 30 26 L 30 10 L 30 9 L 29 9 L 21 9 L 21 7 C 21 5.9045455 20.095455 5 19 5 L 13 5 z M 13 7 L 19 7 L 19 9 L 13 9 L 13 7 z M 4 11 L 28 11 L 28 16 L 24 16 L 24 15 L 20 15 L 20 16 L 12 16 L 12 15 L 8 15 L 8 16 L 4 16 L 4 11 z M 4 18 L 8 18 L 8 19 L 12 19 L 12 18 L 20 18 L 20 19 L 24 19 L 24 18 L 28 18 L 28 25 L 4 25 L 4 18 z" overflow="visible" font-family="Sans" fill="#000000"/></svg>
