<?xml version="1.0" encoding="utf-8"?>
<svg xmlns="http://www.w3.org/2000/svg" viewBox="0 0 32 32" fill="#000000"><path style="line-height:normal;text-indent:0;text-align:start;text-decoration-line:none;text-decoration-style:solid;text-decoration-color:#000;text-transform:none;block-progression:tb;isolation:auto;mix-blend-mode:normal" d="M 7 4 C 5.9069372 4 5 4.9069372 5 6 L 5 7 L 5 8 L 5 12 L 5 13 C 5 14.093063 5.9069372 15 7 15 L 13 15 L 13 28 L 15 28 L 15 15 L 17 15 L 17 28 L 19 28 L 19 15 L 25 15 C 26.093063 15 27 14.093063 27 13 L 27 6 C 27 4.9069372 26.093063 4 25 4 L 7 4 z M 7 6 L 25 6 L 25 7 L 7 7 L 7 6 z M 7 9 L 25 9 L 25 10 L 7 10 L 7 9 z M 7 12 L 25 12 L 25 13 L 19 13 L 13 13 L 7 13 L 7 12 z" font-weight="400" font-family="sans-serif" white-space="normal" overflow="visible" fill="#000000"/></svg>
