<?xml version="1.0" encoding="utf-8"?>
<svg xmlns="http://www.w3.org/2000/svg" viewBox="0 0 32 32" fill="#000000"><path style="text-indent:0;text-align:start;line-height:normal;text-transform:none;block-progression:tb;-inkscape-font-specification:Bitstream Vera Sans" d="M 19.5 3.125 C 17.578848 3.125 16 4.7038481 16 6.625 C 16 8.5461519 17.578848 10.125 19.5 10.125 C 21.421152 10.125 23 8.5461519 23 6.625 C 23 4.7038481 21.421152 3.125 19.5 3.125 z M 19.5 5.125 C 20.340272 5.125 21 5.7847281 21 6.625 C 21 7.4652719 20.340272 8.125 19.5 8.125 C 18.659728 8.125 18 7.4652719 18 6.625 C 18 5.7847281 18.659728 5.125 19.5 5.125 z M 15.25 10.0625 C 14.897275 10.042139 14.532988 10.124132 14.21875 10.28125 L 10.8125 11.96875 C 10.479436 12.134273 10.194639 12.406931 10 12.71875 L 7.90625 16.0625 L 9.625 17.125 L 11.6875 13.78125 L 13.90625 12.6875 L 10.28125 22.25 L 12.15625 22.96875 L 13.28125 19.96875 L 15.59375 20.78125 L 12.5 29 L 14.625 29 L 20.34375 13.8125 L 26.375 18.78125 L 27.625 17.21875 L 20.71875 11.53125 C 20.490345 11.343493 20.224669 11.228578 19.9375 11.15625 L 19.90625 11.15625 L 15.59375 10.125 C 15.479606 10.097966 15.367575 10.069287 15.25 10.0625 z M 16.15625 12.3125 L 18.5625 12.875 L 16.28125 18.9375 L 13.96875 18.09375 L 16.15625 12.3125 z M 8 23 C 6.3549901 23 5 24.354991 5 26 C 5 27.645009 6.3549901 29 8 29 C 9.6450099 29 11 27.645009 11 26 C 11 24.354991 9.6450099 23 8 23 z M 8 25 C 8.5641291 25 9 25.435871 9 26 C 9 26.564129 8.5641291 27 8 27 C 7.4358709 27 7 26.564129 7 26 C 7 25.435871 7.4358709 25 8 25 z" overflow="visible" font-family="Bitstream Vera Sans" fill="#000000"/></svg>
