<?xml version="1.0" encoding="utf-8"?>
<svg xmlns="http://www.w3.org/2000/svg" viewBox="0 0 32 32" fill="#000000"><path style="line-height:normal;text-indent:0;text-align:start;text-decoration-line:none;text-decoration-style:solid;text-decoration-color:#000;text-transform:none;block-progression:tb;isolation:auto;mix-blend-mode:normal" d="M 12 9 C 9.5833333 9 7.8203264 10.498029 6.71875 11.875 C 5.9808266 12.797405 5.5856115 13.552071 5.34375 14.060547 L 5.1621094 14.191406 C 5.1621094 14.191406 2 16.388889 2 20 C 2 20.916667 2.2439815 21.686012 2.7089844 22.228516 C 3.1739872 22.771019 3.8009817 23.022169 4.3359375 23.111328 C 4.5931278 23.154193 4.8400202 23.165308 5.0683594 23.160156 C 5.3811484 24.768997 6.8049558 26 8.5 26 C 10.249933 26 11.701823 24.685411 11.949219 23 L 21.050781 23 C 21.298177 24.685411 22.750067 26 24.5 26 C 26.262646 26 27.721815 24.66599 27.953125 22.962891 C 28.50244 22.916163 28.937284 22.806202 29.335938 22.517578 C 29.638081 22.298826 29.859 21.935598 29.935547 21.642578 C 30.012093 21.349558 30 21.138 30 21 L 30 19 C 30 17.75 29.489166 16.700104 28.769531 15.980469 C 28.049896 15.260834 27.161275 14.832404 26.316406 14.550781 C 24.901353 14.079097 23.947311 14.099588 23.539062 14.089844 L 21.398438 11.564453 L 21.439453 11.617188 C 19.577864 9.0997737 17.045 9 16 9 L 12 9 z M 13 11 L 16 11 C 17.045 11 18.421662 10.9001 19.830078 12.804688 L 19.851562 12.832031 L 22.537109 16 L 23 16 C 23 16 24.37333 16.01246 25.683594 16.449219 C 26.168613 16.610892 26.628785 16.830734 27 17.097656 L 27 19 L 28 19 L 28 20.910156 C 27.987348 20.903635 27.855354 20.932833 27.623047 20.960938 C 27.048309 19.807212 25.867327 19 24.5 19 C 23.116848 19 21.9223 19.824694 21.355469 21 L 11.644531 21 C 11.0777 19.824694 9.8831519 19 8.5 19 C 7.0656654 19 5.8252271 19.881418 5.2871094 21.126953 C 5.0939378 21.154138 4.8632634 21.171872 4.6640625 21.138672 C 4.4490183 21.102832 4.3260128 21.041481 4.2285156 20.927734 C 4.1310185 20.813988 4 20.583333 4 20 C 4 17.801321 5.8369333 16.257073 6.1523438 16 L 19 16 L 19 14 L 13 14 L 13 11 z M 11 11.144531 L 11 14 L 7.6621094 14 C 7.8387786 13.721056 8.0408953 13.425443 8.28125 13.125 C 8.9804352 12.251019 9.8870427 11.456666 11 11.144531 z M 8.5 21 C 9.3402718 21 10 21.659728 10 22.5 C 10 23.340272 9.3402718 24 8.5 24 C 7.6597282 24 7 23.340272 7 22.5 C 7 21.659728 7.6597282 21 8.5 21 z M 24.5 21 C 25.340272 21 26 21.659728 26 22.5 C 26 23.340272 25.340272 24 24.5 24 C 23.659728 24 23 23.340272 23 22.5 C 23 21.659728 23.659728 21 24.5 21 z" fill="#000000"/></svg>
