<?xml version="1.0" encoding="utf-8"?>
<svg xmlns="http://www.w3.org/2000/svg" viewBox="0 0 32 32" fill="#000000"><path style="text-indent:0;text-align:start;line-height:normal;text-transform:none;block-progression:tb;-inkscape-font-specification:Sans" d="M 13.5 4 C 9.9420578 4 7.7607739 5.0934476 6.53125 6.28125 C 5.3017261 7.4690524 5.03125 8.8125 5.03125 8.8125 L 5 8.90625 L 5 9 L 5 27 L 5 28 L 6 28 L 21 28 L 22 28 L 22 27 L 22 9 L 22 8.90625 L 21.96875 8.8125 C 21.96875 8.8125 21.698274 7.4690524 20.46875 6.28125 C 19.239226 5.0934476 17.057942 4 13.5 4 z M 13.5 6 C 16.661058 6 18.221774 6.9065524 19.0625 7.71875 C 19.870074 8.4989209 19.991251 9.0757437 20 9.125 L 20 26 L 7 26 L 7 9.125 C 7.0087494 9.0757437 7.1299256 8.4989209 7.9375 7.71875 C 8.7782261 6.9065524 10.338942 6 13.5 6 z M 26.5 6 C 25.671573 6 25 6.6715729 25 7.5 C 25 7.7433505 25.053398 7.9842659 25.15625 8.1875 L 23.0625 13.65625 L 23 13.8125 L 23 14 L 23 19 L 23 21 L 26 21 L 26 18 L 25 18 L 25 14.1875 L 27.03125 8.90625 C 27.603196 8.6946985 28 8.1454828 28 7.5 C 28 6.6715729 27.328427 6 26.5 6 z M 8 10 L 8 11 L 8 17 L 8 18 L 9 18 L 18 18 L 19 18 L 19 17 L 19 11 L 19 10 L 18 10 L 9 10 L 8 10 z M 10 12 L 11 12 L 11 16 L 10 16 L 10 12 z M 13 12 L 14 12 L 14 16 L 13 16 L 13 12 z M 16 12 L 17 12 L 17 16 L 16 16 L 16 12 z M 10 21 L 9 24 L 18 24 L 17 21 L 10 21 z" fill="#000000"/></svg>
