<?xml version="1.0" encoding="utf-8"?>
<svg xmlns="http://www.w3.org/2000/svg" viewBox="0 0 32 32" fill="#000000"><path style="text-indent:0;text-align:start;line-height:normal;text-transform:none;block-progression:tb;-inkscape-font-specification:Bitstream Vera Sans" d="M 16 4 C 12.190787 4 8.7954561 5.7890772 6.59375 8.5625 L 5 7 L 4 13 L 10 12 L 8 10 C 9.6317913 7.825794 12.142985 6.348821 15 6.0625 L 15 7 L 17 7 L 17 6.0625 C 21.738751 6.5272417 25.472758 10.261249 25.9375 15 L 25 15 L 25 17 L 25.9375 17 C 25.472758 21.738751 21.738751 25.472758 17 25.9375 L 17 25 L 15 25 L 15 25.9375 C 9.9343959 25.440703 6 21.199069 6 16 L 4 16 C 4 22.615466 9.3845336 28 16 28 C 22.615466 28 28 22.615466 28 16 C 28 9.3845336 22.615466 4 16 4 z M 10 12 L 10 14 L 12.625 14 C 12.012899 15.081605 11 17.100801 11 20 L 13 20 C 13 16.880952 14.84375 14.0625 14.84375 14.0625 L 15 13.8125 L 15 13.5 L 15 13 L 15 12 L 14 12 L 10 12 z M 18.5 12 C 17.130937 12 16 13.130937 16 14.5 L 16 15 L 18 15 L 18 14.5 C 18 14.213063 18.213063 14 18.5 14 C 18.786937 14 19 14.213063 19 14.5 L 19 15.34375 C 19 15.484385 18.94618 15.624908 18.84375 15.71875 L 16.3125 18 L 16 18.3125 L 16 18.75 L 16 19 L 16 20 L 17 20 L 21 20 L 21 18 L 19.3125 18 L 20.1875 17.1875 C 20.705067 16.713342 21 16.043115 21 15.34375 L 21 14.5 C 21 13.130937 19.869063 12 18.5 12 z" overflow="visible" font-family="Bitstream Vera Sans" fill="#000000"/></svg>
