<?xml version="1.0" encoding="utf-8"?>
<svg xmlns="http://www.w3.org/2000/svg" viewBox="0 0 32 32" fill="#000000"><path style="text-indent:0;text-align:start;line-height:normal;text-transform:none;block-progression:tb;-inkscape-font-specification:Bitstream Vera Sans" d="M 3.71875 2.28125 L 2.28125 3.71875 L 28.28125 29.71875 L 29.71875 28.28125 L 23 21.5625 L 23 15.09375 C 23 14.19675 22.7705 13.3335 22.3125 12.5625 L 19.9375 8.5625 C 20.5835 8.1105 21 7.348 21 6.5 C 21 5.121 19.878 4 18.5 4 L 13.5 4 C 12.122 4 11 5.121 11 6.5 C 11 7.348 11.4165 8.1105 12.0625 8.5625 L 11.28125 9.84375 L 3.71875 2.28125 z M 13.5 6 L 18.5 6 C 18.776 6 19 6.225 19 6.5 C 19 6.775 18.776 7 18.5 7 L 17.5 7.09375 L 17.5 8.375 L 20.59375 13.5625 C 20.86775 14.0245 21 14.55475 21 15.09375 L 21 19.5625 L 12.75 11.3125 L 14.34375 8.59375 L 14.5 8.28125 L 14.5 7 L 13.5 7 C 13.225 7 13 6.775 13 6.5 C 13 6.225 13.224 6 13.5 6 z M 9.28125 13.46875 C 9.10325 13.98875 9 14.53975 9 15.09375 L 9 25 C 9 26.654 10.346 28 12 28 L 20 28 C 21.031 28 21.92875 27.4825 22.46875 26.6875 L 20.96875 25.15625 C 20.88675 25.62625 20.492 26 20 26 L 12 26 C 11.449 26 11 25.552 11 25 L 11 15.1875 L 9.28125 13.46875 z" overflow="visible" font-family="Bitstream Vera Sans" fill="#000000"/></svg>
