<?xml version="1.0" encoding="utf-8"?>
<svg xmlns="http://www.w3.org/2000/svg" viewBox="0 0 32 32" fill="#000000"><path style="line-height:normal;text-indent:0;text-align:start;text-decoration-line:none;text-decoration-style:solid;text-decoration-color:#000;text-transform:none;block-progression:tb;isolation:auto;mix-blend-mode:normal" d="M 3 6 L 3 8 L 1 8 L 1 10 L 3 10 L 3 18 L 1 18 L 1 20 L 3 20 L 3 22 L 7 22 L 7 20 L 14 20 L 14 22 L 18 22 L 18 20 L 20 20 L 20 18 L 18 18 L 18 10 L 20 10 L 20 8 L 18 8 L 18 6 L 14 6 L 14 8 L 7 8 L 7 6 L 3 6 z M 25 6 L 25 8 L 24 8 L 24 10 L 25 10 L 25 18 L 24 18 L 24 20 L 25 20 L 25 22 L 29 22 L 29 20 L 31 20 L 31 18 L 29 18 L 29 10 L 31 10 L 31 8 L 29 8 L 29 6 L 25 6 z M 21 7 L 21 9 L 23 9 L 23 7 L 21 7 z M 7 10 L 14 10 L 14 18 L 7 18 L 7 10 z M 21 10 L 21 12 L 23 12 L 23 10 L 21 10 z M 21 13 L 21 15 L 23 15 L 23 13 L 21 13 z M 21 16 L 21 18 L 23 18 L 23 16 L 21 16 z M 21 19 L 21 21 L 23 21 L 23 19 L 21 19 z M 3 23 L 3 24 L 2 24 L 2 26 L 3 26 L 3 27 L 7 27 L 7 26 L 8 26 L 8 24 L 7 24 L 7 23 L 3 23 z M 14 23 L 14 24 L 13 24 L 13 26 L 14 26 L 14 27 L 18 27 L 18 26 L 19 26 L 19 24 L 18 24 L 18 23 L 14 23 z M 25 23 L 25 24 L 24 24 L 24 26 L 25 26 L 25 27 L 29 27 L 29 26 L 30 26 L 30 24 L 29 24 L 29 23 L 25 23 z" fill="#000000"/></svg>
