<?xml version="1.0" encoding="utf-8"?>
<svg xmlns="http://www.w3.org/2000/svg" viewBox="0 0 32 32" fill="#000000"><path style="line-height:normal;text-indent:0;text-align:start;text-decoration-line:none;text-decoration-style:solid;text-decoration-color:#000;text-transform:none;block-progression:tb;isolation:auto;mix-blend-mode:normal" d="M 3 5 L 3 23 L 8 23 L 8 28.080078 L 14.351562 23 L 16.068359 23 C 16.027056 23.328232 16 23.660871 16 24 C 16 28.406433 19.593567 32 24 32 C 28.406433 32 32 28.406433 32 24 C 32 21.483953 30.825586 19.235916 29 17.767578 L 29 5 L 3 5 z M 5 7 L 27 7 L 27 16.589844 C 26.072441 16.212321 25.060485 16 24 16 C 20.654052 16 17.78097 18.073448 16.589844 21 L 13.648438 21 L 10 23.917969 L 10 21 L 5 21 L 5 7 z M 24 18 C 27.325553 18 30 20.674447 30 24 C 30 27.325553 27.325553 30 24 30 C 20.674447 30 18 27.325553 18 24 C 18 20.674447 20.674447 18 24 18 z M 21.707031 20.292969 L 20.292969 21.707031 L 22.585938 24 L 20.292969 26.292969 L 21.707031 27.707031 L 24 25.414062 L 26.292969 27.707031 L 27.707031 26.292969 L 25.414062 24 L 27.707031 21.707031 L 26.292969 20.292969 L 24 22.585938 L 21.707031 20.292969 z" font-weight="400" font-family="sans-serif" white-space="normal" overflow="visible" fill="#000000"/></svg>
