<?xml version="1.0" encoding="utf-8"?>
<svg xmlns="http://www.w3.org/2000/svg" viewBox="0 0 32 32" fill="#000000"><path style="text-indent:0;text-align:start;line-height:normal;text-transform:none;block-progression:tb;-inkscape-font-specification:Bitstream Vera Sans" d="M 16 5 C 15.0175 5 14.215438 5.4727178 14.1875 6.09375 C 11.994225 6.30643 9.9802559 6.9130759 8.375 8 C 6.3347733 9.3814445 5 11.60625 5 14.40625 L 5 18.8125 A 1.0001 1.0001 0 0 0 5 19 A 1.0001 1.0001 0 0 0 5 19.09375 C 5.0109703 20.125193 5.2308582 21.835273 5.78125 23.46875 C 6.0637431 24.307145 6.4197837 25.112768 6.96875 25.78125 C 7.5177163 26.449732 8.3358333 27 9.3125 27 C 11.390854 27 12.690476 26 16 26 C 19.262043 26 20.609146 27 22.6875 27 C 23.659259 27 24.455193 26.448024 25 25.78125 C 25.544807 25.114476 25.933508 24.305992 26.21875 23.46875 C 26.774498 21.83752 26.989296 20.133087 27 19.09375 A 1.0001 1.0001 0 0 0 27 19 A 1.0001 1.0001 0 0 0 27 18.90625 L 27 14.40625 C 27 11.60625 25.665227 9.3814445 23.625 8 C 22.019744 6.9130759 20.005775 6.30643 17.8125 6.09375 C 17.784562 5.4736662 16.9825 5 16 5 z M 15 8.03125 L 15 9 C 13.894807 9.0651484 13 10.005389 13 11.125 C 13 12.094369 13.652735 12.952246 14.59375 13.1875 L 16.90625 13.75 C 16.966452 13.765051 17 13.812488 17 13.875 C 16.999874 13.953143 16.95414 14 16.875 14 L 15.125 14 C 15.04586 14 15 13.95414 15 13.875 L 13 13.875 C 13 14.994611 13.894807 15.934852 15 16 L 15 17 L 16 17 L 17 17 L 17 16 C 18.105072 15.934786 18.998193 14.993644 19 13.875 C 19 12.905512 18.346048 12.047449 17.40625 11.8125 L 15.09375 11.25 C 15.034765 11.235254 15 11.185631 15 11.125 C 15 11.04586 15.04586 11 15.125 11 L 16.875 11 C 16.95414 11 17 11.04586 17 11.125 L 19 11.125 C 19 10.005389 18.105193 9.0651484 17 9 L 17 8.03125 C 19.195543 8.1610769 21.119898 8.7217777 22.5 9.65625 C 24.084773 10.729305 25 12.20625 25 14.40625 L 25 17.8125 C 23.629238 17.548331 20.478932 17 16 17 C 11.485996 17 8.3613913 17.548211 7 17.8125 L 7 14.40625 C 7 12.20625 7.9152267 10.729305 9.5 9.65625 C 10.880102 8.7217777 12.804457 8.1610769 15 8.03125 z M 16 19 C 20.014458 19 23.466394 19.538745 24.96875 19.8125 C 24.879901 20.65051 24.65369 21.81104 24.3125 22.8125 C 24.074992 23.509633 23.77613 24.155056 23.46875 24.53125 C 23.16137 24.907444 22.942741 25 22.6875 25 C 21.401854 25 19.647957 24 16 24 C 12.309524 24 10.598146 25 9.3125 25 C 9.0391667 25 8.8387837 24.874487 8.53125 24.5 C 8.2237163 24.125513 7.8907569 23.50848 7.65625 22.8125 C 7.3193714 21.812697 7.1124174 20.651759 7.03125 19.8125 C 8.5345901 19.537515 11.971022 19 16 19 z" overflow="visible" font-family="Bitstream Vera Sans" fill="#000000"/></svg>
