<?xml version="1.0" encoding="utf-8"?>
<svg xmlns="http://www.w3.org/2000/svg" viewBox="0 0 32 32" fill="#000000"><path style="text-indent:0;text-align:start;line-height:normal;text-transform:none;block-progression:tb;-inkscape-font-specification:Bitstream Vera Sans" d="M 16 3.25 L 15.1875 4.4375 C 15.1875 4.4375 14.648128 5.1913546 14.125 6.09375 C 13.863436 6.5449477 13.617642 7.0190835 13.40625 7.5 C 13.194858 7.9809165 13 8.4219697 13 9 C 13 9.4113637 13.097301 9.7978693 13.25 10.15625 C 12.07964 10.287964 10.982136 10.494095 9.96875 10.78125 C 9.9259798 10.310675 9.7765418 9.9158513 9.59375 9.5 C 9.3823581 9.0190835 9.1365639 8.5449477 8.875 8.09375 C 8.3518723 7.1913546 7.8125 6.4375 7.8125 6.4375 L 7 5.25 L 6.1875 6.4375 C 6.1875 6.4375 5.6481277 7.1913546 5.125 8.09375 C 4.8634361 8.5449477 4.6176419 9.0190835 4.40625 9.5 C 4.1948581 9.9809165 4 10.42197 4 11 C 4 11.949766 4.4582147 12.79237 5.15625 13.34375 C 5.1464387 13.354129 5.134712 13.364563 5.125 13.375 C 4.4446035 14.106199 4 15.012402 4 16 C 4 16.922292 4.3945704 17.76467 5 18.46875 L 5 21.5 C 5 22.425 5.4297477 23.265809 6.0625 23.9375 C 6.6952523 24.609191 7.5382664 25.148619 8.53125 25.59375 C 10.517217 26.484011 13.128788 27 16 27 C 18.871212 27 21.482783 26.484011 23.46875 25.59375 C 24.461734 25.148619 25.304748 24.609191 25.9375 23.9375 C 26.570252 23.265809 27 22.425 27 21.5 L 27 18.46875 C 27.60543 17.76467 28 16.922292 28 16 C 28 15.012402 27.555397 14.106199 26.875 13.375 C 26.865288 13.364563 26.853561 13.354129 26.84375 13.34375 C 27.541785 12.79237 28 11.949766 28 11 C 28 10.42197 27.805142 9.9809165 27.59375 9.5 C 27.382358 9.0190835 27.136564 8.5449477 26.875 8.09375 C 26.351872 7.1913546 25.8125 6.4375 25.8125 6.4375 L 25 5.25 L 24.1875 6.4375 C 24.1875 6.4375 23.648128 7.1913546 23.125 8.09375 C 22.863436 8.5449477 22.617642 9.0190835 22.40625 9.5 C 22.223458 9.9158513 22.07402 10.310675 22.03125 10.78125 C 21.017864 10.494095 19.92036 10.287964 18.75 10.15625 C 18.902699 9.7978693 19 9.4113637 19 9 C 19 8.4219697 18.805142 7.9809165 18.59375 7.5 C 18.382358 7.0190835 18.136564 6.5449477 17.875 6.09375 C 17.351872 5.1913546 16.8125 4.4375 16.8125 4.4375 L 16 3.25 z M 16 6.875 C 16.06572 6.9839175 16.05811 6.978371 16.125 7.09375 C 16.363436 7.5050523 16.617642 7.9402915 16.78125 8.3125 C 16.944858 8.6847085 17 9.0280303 17 9 C 17 9.5545455 16.554545 10 16 10 C 15.445455 10 15 9.5545455 15 9 C 15 9.02803 15.05514 8.6847085 15.21875 8.3125 C 15.382358 7.9402915 15.636564 7.5050523 15.875 7.09375 C 15.941886 6.978371 15.934283 6.9839175 16 6.875 z M 7 8.875 C 7.0657169 8.9839175 7.0581136 8.978371 7.125 9.09375 C 7.3634361 9.5050523 7.6176419 9.9402915 7.78125 10.3125 C 7.9448581 10.684709 8 11.02803 8 11 C 8 11.162691 7.9128753 11.365919 7.8125 11.5625 C 7.5056604 11.701972 7.2169962 11.843891 6.9375 12 C 6.413419 11.966929 6 11.532798 6 11 C 6 11.02803 6.0551419 10.684709 6.21875 10.3125 C 6.3823581 9.9402915 6.6365639 9.5050523 6.875 9.09375 C 6.9418864 8.978371 6.9342831 8.9839175 7 8.875 z M 25 8.875 C 25.06572 8.9839175 25.05811 8.978371 25.125 9.09375 C 25.363436 9.5050523 25.617642 9.9402915 25.78125 10.3125 C 25.944858 10.684709 26 11.02803 26 11 C 26 11.532798 25.586581 11.966929 25.0625 12 C 24.783004 11.843891 24.49434 11.701972 24.1875 11.5625 C 24.087125 11.365919 24 11.162691 24 11 C 24 11.02803 24.05514 10.684709 24.21875 10.3125 C 24.382358 9.9402915 24.636564 9.5050523 24.875 9.09375 C 24.941886 8.978371 24.934283 8.9839175 25 8.875 z M 16 12 C 18.914739 12 21.558831 12.549469 23.375 13.375 C 24.283085 13.787766 24.973386 14.284816 25.40625 14.75 C 25.839114 15.215184 26 15.606886 26 16 C 26 16.393114 25.839114 16.784816 25.40625 17.25 C 24.973386 17.715184 24.283085 18.212234 23.375 18.625 C 21.558831 19.450531 18.914739 20 16 20 C 13.085261 20 10.441169 19.450531 8.625 18.625 C 7.7169155 18.212234 7.0266141 17.715184 6.59375 17.25 C 6.1608859 16.784816 6 16.393114 6 16 C 6 15.606886 6.1608859 15.215184 6.59375 14.75 C 7.0266141 14.284816 7.7169155 13.787766 8.625 13.375 C 10.441169 12.549469 13.085261 12 16 12 z M 7 20.03125 C 7.2610684 20.174774 7.5280575 20.308208 7.8125 20.4375 C 8.1863792 20.607445 8.5866023 20.761393 9 20.90625 L 9 22.09375 L 11 23 L 11 21.46875 C 12.235375 21.743874 13.582629 21.912329 15 21.96875 L 15 24 L 17 24 L 17 21.96875 C 18.417371 21.912329 19.764625 21.743874 21 21.46875 L 21 23 L 23 22.09375 L 23 20.90625 C 23.413398 20.761393 23.813621 20.607445 24.1875 20.4375 C 24.471943 20.308208 24.738932 20.174774 25 20.03125 L 25 21.5 C 25 21.825 24.851623 22.156066 24.46875 22.5625 C 24.085877 22.968934 23.475766 23.413881 22.65625 23.78125 C 21.017217 24.515989 18.628788 25 16 25 C 13.371212 25 10.982783 24.515989 9.34375 23.78125 C 8.5242336 23.413881 7.9141227 22.968934 7.53125 22.5625 C 7.1483773 22.156066 7 21.825 7 21.5 L 7 20.03125 z" overflow="visible" font-family="Bitstream Vera Sans" fill="#000000"/></svg>
