<?xml version="1.0" encoding="utf-8"?>
<svg xmlns="http://www.w3.org/2000/svg" viewBox="0 0 32 32" fill="#000000"><path style="text-indent:0;text-align:start;line-height:normal;text-transform:none;block-progression:tb;-inkscape-font-specification:Sans" d="M 15.71875 4 L 15.53125 4.0625 C 15.53125 4.0625 11 5.8119825 11 10 C 11 11.791071 12.040456 13.067889 13 13.875 L 13 26.5 L 13 27.09375 L 13.53125 27.375 C 13.53125 27.375 14.642939 28 16 28 C 17.357061 28 18.46875 27.375 18.46875 27.375 L 19 27.09375 L 19 26.5 L 19 14.5625 C 20.000856 13.396886 21 11.853051 21 10 C 21 8.0723432 19.798566 6.5962806 18.71875 5.625 C 17.638934 4.6537194 16.5625 4.125 16.5625 4.125 L 16.34375 4 L 16.09375 4 L 15.90625 4 L 15.71875 4 z M 8.71875 5 L 8.53125 5.0625 C 8.34725 5.1365 4 6.94 4 11 C 4 12.709251 5.0417607 13.984338 6 14.8125 L 6 25.5 L 6 26.09375 L 6.53125 26.375 C 6.53125 26.375 7.6429388 27 9 27 C 10.357061 27 11.46875 26.375 11.46875 26.375 L 12 26.09375 L 12 25.5 L 12 15.53125 C 12.100626 15.412842 12.213908 15.313137 12.3125 15.1875 C 11.8445 14.8125 11.326 14.35525 10.875 13.78125 C 10.052 14.88725 8.9985 15.7905 8.4375 16.1875 L 9.5625 17.8125 C 9.5858878 17.796151 9.8590043 17.577124 10 17.46875 L 10 24.75 C 9.6993691 24.864805 9.4661415 25 9 25 C 8.5338585 25 8.3006309 24.864805 8 24.75 L 8 15 L 8.4375 14.09375 C 8.4125 14.08075 6 12.832 6 11 C 6 10.200924 6.2869226 9.5328038 6.6875 8.96875 C 7.5411185 10.27226 9.0011883 11.391164 9.875 12 C 9.648 11.393 9.5 10.736 9.5 10 C 9.5 9.724 9.5315 9.4485 9.5625 9.1875 C 8.9553329 8.6310476 8.4423866 8.0549903 8.1875 7.5625 C 8.4933175 7.3558424 8.7711701 7.1635987 8.96875 7.0625 C 9.23875 7.2255 9.57125 7.45475 9.90625 7.71875 C 10.14025 7.06175 10.46075 6.4745 10.84375 5.9375 C 10.16575 5.4405 9.6235 5.157 9.5625 5.125 L 9.34375 5 L 8.71875 5 z M 22.71875 5 L 22.53125 5.0625 C 22.46225 5.0905 21.79 5.36625 21 5.90625 C 21.398 6.42725 21.76825 7.01625 22.03125 7.65625 C 22.39925 7.39325 22.73675 7.1805 22.96875 7.0625 C 23.200825 7.2026085 23.495527 7.4088756 23.78125 7.625 C 23.709327 7.7181744 23.671952 7.8122068 23.59375 7.90625 C 23.231701 8.341635 22.875 8.71875 22.875 8.71875 L 24.25 10.15625 C 24.25 10.15625 24.686049 9.715365 25.125 9.1875 C 25.157165 9.1488202 25.185727 9.1025258 25.21875 9.0625 C 25.661471 9.6488173 26 10.306193 26 11 C 26 13.178 23.4315 15.4835 22.4375 16.1875 L 23.5625 17.8125 C 23.588154 17.7945 23.834758 17.596789 24 17.46875 L 24 24.75 C 23.699369 24.864805 23.466142 25 23 25 C 22.533858 25 22.300631 24.864805 22 24.75 L 22 16 L 22 15 L 22.4375 14.09375 C 22.4275 14.08875 22.01325 13.876 21.53125 13.5 C 20.89125 14.765 20 15.53125 20 15.53125 L 20 17 L 20 25.5 L 20 26.09375 L 20.53125 26.375 C 20.53125 26.375 21.642939 27 23 27 C 24.357061 27 25.46875 26.375 25.46875 26.375 L 26 26.09375 L 26 25.5 L 26 15.5625 C 27.029139 14.350565 28 12.747364 28 11 C 28 7.448 23.7435 5.219 23.5625 5.125 L 23.34375 5 L 22.71875 5 z M 16 6.125 C 16.163542 6.2170864 16.441385 6.4023081 16.78125 6.65625 C 16.713877 6.742889 16.66616 6.819173 16.59375 6.90625 C 16.231701 7.341635 15.875 7.71875 15.875 7.71875 L 17.25 9.15625 C 17.25 9.15625 17.686049 8.715365 18.125 8.1875 C 18.157165 8.1488202 18.185727 8.1025258 18.21875 8.0625 C 18.67071 8.6615898 19 9.3227965 19 10 C 19 11.175765 18.169318 12.518621 17.25 13.53125 C 16.330682 14.543879 15.4375 15.1875 15.4375 15.1875 L 16.5625 16.8125 C 16.5625 16.8125 16.810255 16.611961 17 16.46875 L 17 25.75 C 16.699369 25.864805 16.466142 26 16 26 C 15.533858 26 15.300631 25.864805 15 25.75 L 15 14 L 15.4375 13.09375 C 15.4375 13.09375 13 11.70132 13 10 C 13 9.8474603 13.012626 9.7055117 13.03125 9.5625 C 13.429557 10.033863 13.91538 10.433232 14.34375 10.8125 C 15.415625 11.761511 16.46875 12.40625 16.46875 12.40625 L 17.53125 10.71875 C 17.53125 10.71875 16.584375 10.134239 15.65625 9.3125 C 14.960156 8.6961961 14.373291 7.917297 14.125 7.40625 C 14.861765 6.6571329 15.742053 6.2453276 16 6.125 z M 22.5 10.125 C 22.482 10.92 22.29525 11.69425 22.03125 12.40625 C 22.66425 12.90425 23.22875 13.25625 23.46875 13.40625 L 24.53125 11.71875 C 23.88525 11.31175 23.146 10.725 22.5 10.125 z" overflow="visible" font-family="Sans" fill="#000000"/></svg>
