<?xml version="1.0" encoding="utf-8"?>
<svg xmlns="http://www.w3.org/2000/svg" viewBox="0 0 32 32" fill="#000000"><path style="line-height:normal;text-indent:0;text-align:start;text-decoration-line:none;text-decoration-style:solid;text-decoration-color:#000;text-transform:none;block-progression:tb;isolation:auto;mix-blend-mode:normal" d="M 21.242188 2.0292969 L 20.757812 3.9707031 C 24.415409 4.8851023 27.114898 7.5845902 28.029297 11.242188 L 29.970703 10.757812 C 28.885102 6.4154098 25.58459 3.1148977 21.242188 2.0292969 z M 20.316406 5.0507812 L 19.683594 6.9492188 C 22.430612 7.8648913 24.135109 9.5693887 25.050781 12.316406 L 26.949219 11.683594 C 25.864891 8.4306112 23.569388 6.1351088 20.316406 5.0507812 z M 19.447266 8.1054688 L 18.552734 9.8945312 C 20.433477 10.834903 21.165097 11.566523 22.105469 13.447266 L 23.894531 12.552734 C 22.834903 10.433477 21.566523 9.1650971 19.447266 8.1054688 z M 13.490234 9.0058594 C 13.102982 8.9830023 12.871094 9.0078125 12.871094 9.0078125 L 12.34375 9.0761719 L 10.994141 11.773438 L 11 12.021484 C 11 12.021484 11.03577 13.708923 11 14.972656 C 10.98185 15.619859 10.93099 15.654944 10.292969 16.292969 L 5.078125 21.507812 L 5.0195312 21.804688 L 4.0488281 26.65625 L 2.2929688 28.412109 L 3.7070312 29.826172 L 5.640625 27.892578 L 10.492188 26.921875 L 14.707031 22.707031 C 15.003579 22.410484 15.521673 21.94282 16.025391 21.574219 C 16.529108 21.205618 17.11363 20.994849 17.052734 20.998047 C 18.270297 20.933377 19.958984 21 19.958984 21 L 20.216797 21.009766 L 22.923828 19.65625 L 22.992188 19.128906 C 22.992188 19.128906 23.090577 18.198856 22.710938 16.960938 C 22.331294 15.723018 21.485696 14.071633 19.707031 12.292969 C 17.928367 10.514304 16.276982 9.6687063 15.039062 9.2890625 C 14.420103 9.0992406 13.877486 9.0287164 13.490234 9.0058594 z M 13.863281 11.0625 C 13.980142 11.073432 14.148343 11.108302 14.451172 11.201172 C 15.376753 11.485028 16.725633 12.139696 18.292969 13.707031 C 19.860304 15.274367 20.514972 16.623247 20.798828 17.548828 C 20.984571 18.154485 20.935308 18.224137 20.935547 18.414062 L 19.763672 19 C 19.499021 18.98973 18.203952 18.935153 16.947266 19.001953 C 16.04837 19.049153 15.465986 19.505085 14.845703 19.958984 C 14.22542 20.412883 13.662421 20.923516 13.292969 21.292969 L 9.5078125 25.078125 L 6.2753906 25.724609 L 6.921875 22.492188 L 11.707031 17.707031 C 12.459007 16.955056 12.970146 16.092141 13 15.027344 C 13.03499 13.791257 13.0051 12.48609 13 12.236328 L 13.585938 11.064453 C 13.6809 11.064573 13.746421 11.051568 13.863281 11.0625 z" fill="#000000"/></svg>
