<?xml version="1.0" encoding="utf-8"?>
<svg xmlns="http://www.w3.org/2000/svg" viewBox="0 0 32 32" fill="#000000"><path style="text-indent:0;text-align:start;line-height:normal;text-transform:none;block-progression:tb;-inkscape-font-specification:Bitstream Vera Sans" d="M 12 4 C 10.346 4 9 5.346 9 7 L 9 19.625 L 10 18.90625 L 11 19.625 L 11 7 C 11 6.448 11.448 6 12 6 L 13 6 L 13 4 L 12 4 z M 24 4 C 22.346 4 21 5.346 21 7 L 21 8 L 12 8 L 12 10 L 21 10 L 21 12 L 12 12 L 12 14 L 21 14 L 21 16 L 12 16 L 12 18 L 21 18 L 21 19.625 L 22 18.90625 L 23 19.625 L 23 7 C 23 6.448 23.448 6 24 6 L 25 6 L 25 4 L 24 4 z M 10 20.71875 L 9.375 21.21875 C 9.375 21.21875 8.3722241 22 7.03125 22 C 5.6902759 22 4.625 21.21875 4.625 21.21875 L 3.375 22.78125 C 3.375 22.78125 4.9182241 24 7.03125 24 C 8.4913746 24 9.4202898 23.515635 10 23.15625 C 10.581221 23.512184 11.556815 24 13.03125 24 C 14.491375 24 15.42029 23.515635 16 23.15625 C 16.581221 23.512184 17.556815 24 19.03125 24 C 20.491375 24 21.42029 23.515635 22 23.15625 C 22.581221 23.512184 23.556815 24 25.03125 24 C 27.144276 24 28.625 22.78125 28.625 22.78125 L 27.375 21.21875 C 27.375 21.21875 26.372224 22 25.03125 22 C 23.690276 22 22.625 21.21875 22.625 21.21875 L 22 20.71875 L 21.375 21.21875 C 21.375 21.21875 20.372224 22 19.03125 22 C 17.690276 22 16.625 21.21875 16.625 21.21875 L 16 20.71875 L 15.375 21.21875 C 15.375 21.21875 14.372224 22 13.03125 22 C 11.690276 22 10.625 21.21875 10.625 21.21875 L 10 20.71875 z M 10 24.71875 L 9.375 25.21875 C 9.375 25.21875 8.3722241 26 7.03125 26 C 5.6902759 26 4.625 25.21875 4.625 25.21875 L 3.375 26.78125 C 3.375 26.78125 4.9182241 28 7.03125 28 C 8.4913746 28 9.4202898 27.515635 10 27.15625 C 10.581221 27.512184 11.556815 28 13.03125 28 C 14.491375 28 15.42029 27.515635 16 27.15625 C 16.581221 27.512184 17.556815 28 19.03125 28 C 20.491375 28 21.42029 27.515635 22 27.15625 C 22.581221 27.512184 23.556815 28 25.03125 28 C 27.144276 28 28.625 26.78125 28.625 26.78125 L 27.375 25.21875 C 27.375 25.21875 26.372224 26 25.03125 26 C 23.690276 26 22.625 25.21875 22.625 25.21875 L 22 24.71875 L 21.375 25.21875 C 21.375 25.21875 20.372224 26 19.03125 26 C 17.690276 26 16.625 25.21875 16.625 25.21875 L 16 24.71875 L 15.375 25.21875 C 15.375 25.21875 14.372224 26 13.03125 26 C 11.690276 26 10.625 25.21875 10.625 25.21875 L 10 24.71875 z" overflow="visible" font-family="Bitstream Vera Sans" fill="#000000"/></svg>
