<?xml version="1.0" encoding="utf-8"?>
<svg xmlns="http://www.w3.org/2000/svg" viewBox="0 0 32 32" fill="#000000"><path style="text-indent:0;text-align:start;line-height:normal;text-transform:none;block-progression:tb;-inkscape-font-specification:Bitstream Vera Sans" d="M 5.375 5 L 5.09375 5.5625 L 4.09375 7.5625 L 3.875 8 L 4.09375 8.4375 L 4.875 10 L 4.09375 11.5625 L 3.875 12 L 4.09375 12.4375 L 4.875 14 L 4.09375 15.5625 L 3.875 16 L 4.09375 16.4375 L 4.875 18 L 4.09375 19.5625 L 3.875 20 L 4.09375 20.4375 L 4.875 22 L 4.09375 23.5625 L 3.875 24 L 4.09375 24.4375 L 5.09375 26.4375 L 5.375 27 L 6 27 L 26 27 L 26.625 27 L 26.90625 26.4375 L 27.90625 24.4375 L 28.125 24 L 27.90625 23.5625 L 27.125 22 L 27.90625 20.4375 L 28.125 20 L 27.90625 19.5625 L 27.125 18 L 27.90625 16.4375 L 28.125 16 L 27.90625 15.5625 L 27.125 14 L 27.90625 12.4375 L 28.125 12 L 27.90625 11.5625 L 27.125 10 L 27.90625 8.4375 L 28.125 8 L 27.90625 7.5625 L 26.90625 5.5625 L 26.625 5 L 26 5 L 6 5 L 5.375 5 z M 6.625 7 L 25.375 7 L 25.875 8 L 25.09375 9.5625 L 24.875 10 L 25.09375 10.4375 L 25.875 12 L 25.09375 13.5625 L 24.875 14 L 25.09375 14.4375 L 25.875 16 L 25.09375 17.5625 L 24.875 18 L 25.09375 18.4375 L 25.875 20 L 25.09375 21.5625 L 24.875 22 L 25.09375 22.4375 L 25.875 24 L 25.375 25 L 6.625 25 L 6.125 24 L 6.90625 22.4375 L 7.125 22 L 6.90625 21.5625 L 6.125 20 L 6.90625 18.4375 L 7.125 18 L 6.90625 17.5625 L 6.125 16 L 6.90625 14.4375 L 7.125 14 L 6.90625 13.5625 L 6.125 12 L 6.90625 10.4375 L 7.125 10 L 6.90625 9.5625 L 6.125 8 L 6.625 7 z M 16 9 C 14.490523 9 13.07877 9.5004646 11.9375 10.3125 L 13.09375 11.9375 C 13.91448 11.353535 14.917477 11 16 11 C 18.773666 11 21 13.226334 21 16 C 21 18.773666 18.773666 21 16 21 C 13.226334 21 11 18.773666 11 16 C 11 14.917477 11.353535 13.91448 11.9375 13.09375 L 10.3125 11.9375 C 9.5004646 13.07877 9 14.490523 9 16 C 9 19.854334 12.145666 23 16 23 C 19.854334 23 23 19.854334 23 16 C 23 12.145666 19.854334 9 16 9 z" overflow="visible" font-family="Bitstream Vera Sans" fill="#000000"/></svg>
