<?xml version="1.0" encoding="utf-8"?>
<svg xmlns="http://www.w3.org/2000/svg" viewBox="0 0 32 32" fill="#000000"><path style="text-indent:0;text-align:start;line-height:normal;text-transform:none;block-progression:tb;-inkscape-font-specification:Sans" d="M 3 3 L 3 4 L 3 17 L 3 18 L 4 18 L 11 18 L 11 28 L 11 29 L 12 29 L 28 29 L 29 29 L 29 28 L 29 15 L 29 14 L 28 14 L 21 14 L 21 4 L 21 3 L 20 3 L 4 3 L 3 3 z M 5 8 L 19 8 L 19 14 L 12 14 L 11 14 L 11 15 L 11 16 L 5 16 L 5 8 z M 7 10 L 7 14 L 10 14 L 10 13 L 11 13 L 11 10 L 7 10 z M 13 10 L 13 13 L 17 13 L 17 10 L 13 10 z M 13 16 L 27 16 L 27 19 L 13 19 L 13 16 z M 13.875 22 L 17.875 22 L 17.875 26 L 13.875 26 L 13.875 22 z M 21.875 22 L 25.875 22 L 25.875 26 L 21.875 26 L 21.875 22 z" overflow="visible" font-family="Sans" fill="#000000"/></svg>
