<?xml version="1.0" encoding="utf-8"?>
<svg xmlns="http://www.w3.org/2000/svg" viewBox="0 0 32 32" fill="#000000"><path style="text-indent:0;text-align:start;line-height:normal;text-transform:none;block-progression:tb;-inkscape-font-specification:Sans" d="M 5 6 L 5 7 C 5 10.200014 6.0468995 14.009605 7.0625 17.0625 C 7.6130853 18.717559 8.14247 20.036462 8.53125 21 L 5 21 L 3.15625 21 L 4.15625 22.5625 C 4.15625 22.5625 4.7053715 23.388165 5.53125 24.21875 C 6.3571285 25.049335 7.4913579 26 9 26 L 20.0625 26 C 21.516724 26 22.577836 25.038016 23.40625 24.21875 C 24.234664 23.399484 24.8125 22.59375 24.8125 22.59375 L 25.9375 21 L 24 21 L 20.5 21 C 20.728606 20.435605 20.978109 19.763272 21.28125 18.9375 C 21.382717 18.913571 22.887467 18.567372 24.46875 17.71875 C 25.2864 17.279944 26.134869 16.703223 26.8125 15.9375 C 27.490131 15.171777 28 14.170899 28 13 C 28 11.260933 26.544681 10 25 10 C 24.590739 10 24.157007 10.078556 23.71875 10.21875 C 23.894743 9.1196099 24 8.0276851 24 7 L 24 6 L 23 6 L 6 6 L 5 6 z M 7.125 8 L 21.875 8 C 21.776677 9.4910748 21.477956 11.126441 21.09375 12.75 C 21.085965 12.772966 21.069952 12.789216 21.0625 12.8125 C 20.765505 14.058028 20.440981 15.304093 20.0625 16.4375 C 19.191305 19.046402 18.500179 20.571021 18.3125 21 L 10.6875 21 C 10.500478 20.56844 9.8096421 19.027909 8.9375 16.40625 C 8.0594767 13.766912 7.3010827 10.62066 7.125 8 z M 25 12 C 25.621319 12 26 12.239067 26 13 C 26 13.609101 25.759869 14.119473 25.3125 14.625 C 24.865131 15.130527 24.2136 15.602556 23.53125 15.96875 C 23.017414 16.244509 22.538383 16.459449 22.09375 16.625 C 22.458948 15.505962 22.784261 14.300728 23.09375 13.0625 C 23.100747 13.050155 23.117767 13.04335 23.125 13.03125 C 23.561514 12.300986 24.410368 12 25 12 z M 7.3125 23 L 21.65625 23 C 21.046925 23.50564 20.340972 24 20.0625 24 L 9 24 C 8.5698448 24 7.9016046 23.497613 7.3125 23 z" overflow="visible" font-family="Sans" fill="#000000"/></svg>
