<?xml version="1.0" encoding="utf-8"?>
<svg xmlns="http://www.w3.org/2000/svg" viewBox="0 0 32 32" fill="#000000"><path d="M 12.5 2 C 11.516 2.07 10.6005 2.1565 9.6875 2.4375 C 9.2025 2.6195 8.58925 2.9375 8.03125 2.9375 C 7.94225 2.9375 7.86925 2.92525 7.78125 2.90625 C 7.57025 2.83625 7.42975 2.6875 7.21875 2.6875 C 7.00775 2.6875 6.78875 2.76525 6.71875 2.90625 C 6.64875 3.04725 6.71875 3.11 6.71875 3.25 C 6.64775 3.812 5.79625 3.97675 5.65625 4.46875 C 5.58625 4.74975 5.66375 5.094 5.59375 5.375 C 5.45275 5.866 4.977 6.07025 4.625 6.28125 C 3.993 6.70325 3.50725 7.20425 3.15625 7.90625 C 3.08525 8.04725 3 8.1725 3 8.3125 C 3 8.5935 3.4225 8.88275 3.5625 9.09375 C 3.8435 9.44475 3.766 9.953 3.625 10.375 C 3.484 10.797 3.2025 11.149 3.0625 11.5 C 2.9925 11.641 3 11.77375 3 11.84375 L 3.21875 12.0625 C 3.85175 12.5545 4.41425 13.03175 4.90625 13.59375 C 5.18725 13.94475 5.399 14.00775 5.75 14.21875 C 6.054 14.40175 6.39975 14.59375 6.71875 14.59375 C 6.76775 14.59375 6.828 14.60375 6.875 14.59375 C 7.226 14.52375 7.55525 14.21875 7.90625 14.21875 C 8.11725 14.21875 8.414 14.375 8.625 14.375 C 8.671 14.383 8.704 14.375 8.75 14.375 C 9.125 14.375 9.4995 14.15725 9.8125 14.03125 C 9.9065 13.99325 10.01 13.96875 10.125 13.96875 C 10.439 13.96875 10.795 14.1065 11 14.3125 C 11.211 14.4535 11.289 14.735 11.5 14.875 C 11.627 14.97 11.76325 15 11.90625 15 C 12.07925 15 12.25225 14.952 12.40625 14.875 C 12.68725 15.086 12.96875 15.62525 12.96875 15.90625 C 12.96875 16.18725 12.83525 16.414 12.90625 16.625 C 12.97625 17.398 13.03925 17.8055 13.53125 18.4375 C 14.02325 19.0705 14.3125 19.7195 14.3125 20.5625 C 14.2425 21.4055 13.625 22.0945 13.625 22.9375 C 13.625 23.8515 14.664 24.56225 14.875 25.40625 C 14.945 25.68725 14.96025 26.0315 15.03125 26.3125 C 15.17225 26.9455 15.43025 27.5005 15.78125 28.0625 C 15.92225 28.2735 16.14775 28.43675 16.21875 28.71875 L 16.21875 29.125 C 16.21875 29.476 16.49175 29.82875 16.84375 29.96875 C 16.90375 29.98875 16.95925 30 17.03125 30 C 17.20525 30 17.427 29.95525 17.625 29.90625 C 18.398 29.83625 19.78925 29.54675 20.28125 28.84375 C 20.58825 28.40575 20.774 27.851 21.125 27.5 C 21.336 27.289 21.53975 27.0935 21.46875 26.8125 C 21.39875 26.6715 21.34375 26.60125 21.34375 26.53125 C 21.34375 26.39025 21.609 26.3125 21.75 26.3125 L 22.1875 26.3125 C 22.5385 26.2425 22.66375 25.81225 22.59375 25.53125 C 22.52375 25.18025 22.17125 24.977 22.03125 24.625 C 21.96125 24.555 21.96875 24.47625 21.96875 24.40625 C 21.96875 24.12525 22.4615 23.6485 22.8125 23.4375 C 23.2345 23.2265 23.7275 23.01475 23.9375 22.59375 C 24.0785 22.24275 24.0785 21.88225 23.9375 21.53125 C 23.7965 20.82825 23.5075 20.203 23.4375 19.5 C 23.2965 18.797 23.74175 18.10075 24.09375 17.46875 C 24.37475 17.04675 24.79775 16.68725 25.21875 16.40625 C 26.62475 15.35225 28.00775 13.60075 28.21875 11.84375 C 27.72675 12.26575 26.8905 12.555 26.1875 12.625 C 25.9765 12.625 25.765 12.60125 25.625 12.53125 C 25.484 12.46125 25.35125 12.3275 25.28125 12.1875 C 24.85925 11.6955 24.64725 10.9835 24.15625 10.5625 C 23.87525 10.3515 23.586 10.2195 23.375 9.9375 C 23.094 9.6545 22.9525 9.2345 22.8125 8.8125 C 22.3905 7.6175 22.39825 6.6315 21.90625 5.4375 C 21.76525 5.1565 21.62475 4.8125 21.34375 4.8125 L 20.84375 4.8125 C 20.75575 4.8255 20.68075 4.84375 20.59375 4.84375 C 19.70875 4.84375 18.86375 4.22325 17.96875 4.03125 C 17.88175 4.00225 17.7835 4 17.6875 4 C 17.5515 4 17.42575 4.01175 17.34375 4.09375 C 17.13275 4.30475 17.21 4.664 17 4.875 C 16.918 4.957 16.761 5 16.625 5 C 16.529 5 16.43075 4.9665 16.34375 4.9375 C 16.13275 4.8675 15.99225 4.73375 15.78125 4.59375 C 15.07825 4.10175 13.67175 3.89825 12.96875 3.40625 C 13.10975 3.19525 13.18 2.99225 13.25 2.78125 C 13.32 2.57025 13.17875 2.2035 12.96875 2.0625 C 12.82775 1.9925 12.64 2 12.5 2 z M 10.65625 4.21875 L 11.84375 5.03125 C 12.43375 5.44425 13.127 5.69825 13.75 5.90625 C 14.051 6.00625 14.5155 6.138 14.6875 6.25 C 14.7215 6.273 14.75225 6.32275 14.78125 6.34375 C 14.96725 6.48075 15.26875 6.69475 15.71875 6.84375 C 16.01075 6.94075 16.318 7 16.625 7 C 17.306 7 17.95425 6.7605 18.40625 6.3125 C 18.92725 6.5265 19.525 6.7535 20.25 6.8125 C 20.325 7.0865 20.40575 7.3825 20.46875 7.6875 C 20.57975 8.2185 20.68025 8.7975 20.90625 9.4375 C 21.07825 9.9525 21.332 10.657 21.875 11.25 C 22.205 11.653 22.5685 11.8955 22.8125 12.0625 C 22.8305 12.0755 22.82475 12.08075 22.84375 12.09375 C 22.90275 12.17575 22.9965 12.35175 23.0625 12.46875 C 23.2075 12.72275 23.386 13.03675 23.625 13.34375 C 23.874 13.72975 24.226 14.05925 24.625 14.28125 C 24.439 14.45825 24.23625 14.62525 24.03125 14.78125 C 23.32225 15.26125 22.79225 15.76475 22.40625 16.34375 L 22.375 16.40625 L 22.34375 16.5 L 22.28125 16.59375 C 21.86625 17.33775 21.24275 18.43925 21.46875 19.78125 C 21.53375 20.34425 21.6865 20.821 21.8125 21.25 C 21.8515 21.384 21.87325 21.53225 21.90625 21.65625 L 21.84375 21.6875 L 21.78125 21.71875 C 21.59525 21.82975 19.96875 22.84125 19.96875 24.40625 C 19.96875 24.60525 19.99325 24.80275 20.03125 24.96875 C 19.60125 25.36575 19.34375 25.91525 19.34375 26.53125 C 19.13575 26.81525 18.97375 27.10075 18.84375 27.34375 C 18.79575 27.43375 18.76275 27.51875 18.71875 27.59375 C 18.58975 27.66075 18.34325 27.7465 18.03125 27.8125 C 17.85025 27.3845 17.5735 27.0925 17.4375 26.9375 C 17.1815 26.5185 17.04575 26.18675 16.96875 25.84375 C 16.95575 25.77875 16.9455 25.695 16.9375 25.625 C 16.9155 25.425 16.8805 25.17725 16.8125 24.90625 C 16.6235 24.14825 16.209 23.60625 15.875 23.15625 C 15.806 23.06425 15.72225 22.94175 15.65625 22.84375 C 15.69625 22.73475 15.7665 22.57575 15.8125 22.46875 C 16.0015 22.03175 16.2515 21.44575 16.3125 20.71875 L 16.3125 20.625 L 16.3125 20.5625 C 16.3125 19.3335 15.939 18.26575 15.125 17.21875 C 14.972 17.02175 14.94825 17.0165 14.90625 16.5625 C 14.93925 16.4035 14.96875 16.16125 14.96875 15.90625 C 14.96875 14.97525 14.401 13.832 13.625 13.25 L 12.625 12.53125 L 12.25 12.71875 C 11.683 12.24475 10.894 11.96875 10.125 11.96875 C 9.75 11.96875 9.3915 12.02525 9.0625 12.15625 C 8.9455 12.20325 8.84575 12.2525 8.71875 12.3125 C 8.70975 12.3165 8.6965 12.33875 8.6875 12.34375 C 8.4945 12.29275 8.21025 12.21875 7.90625 12.21875 C 7.41825 12.21875 7.01675 12.375 6.71875 12.5 C 6.64875 12.458 6.59425 12.41 6.53125 12.375 C 6.50225 12.358 6.4635 12.3275 6.4375 12.3125 L 6.40625 12.28125 C 6.11525 11.94825 5.77525 11.61325 5.40625 11.28125 C 5.44525 11.18925 5.49725 11.102 5.53125 11 C 5.96025 9.714 5.694 8.78475 5.375 8.21875 C 5.464 8.13875 5.5715 8.079 5.6875 8 L 5.75 7.9375 C 6.21 7.6765 7.18625 7.1455 7.53125 5.9375 L 7.53125 5.90625 L 7.53125 5.875 C 7.57725 5.69 7.613 5.50075 7.625 5.34375 C 7.759 5.23775 7.9185 5.0975 8.0625 4.9375 C 8.8915 4.9365 9.58475 4.62725 10.09375 4.40625 C 10.17675 4.37025 10.2345 4.3435 10.3125 4.3125 C 10.4255 4.2765 10.54125 4.24375 10.65625 4.21875 z M 27.75 20 C 27.551 20.429 27.30075 20.94225 26.96875 21.15625 C 26.70375 21.29925 26.35175 21.43375 26.21875 21.71875 C 26.01975 22.07575 26.22225 22.48675 26.15625 22.84375 C 26.15625 22.98675 26.09825 23.13825 26.03125 23.28125 C 25.96525 23.63825 26.02325 24.0805 26.15625 24.4375 C 26.22225 24.6515 26.3635 24.929 26.5625 25 C 26.6955 25 26.89925 24.92425 27.03125 24.78125 C 27.16425 24.63825 27.27675 24.37025 27.34375 24.15625 C 27.41075 23.94225 27.40625 23.714 27.40625 23.5 C 27.47225 22.857 27.8045 22.2055 27.9375 21.5625 C 28.0035 21.1335 28.0035 20.71025 27.9375 20.28125 C 27.888 20.17475 27.831172 20.109375 27.78125 20.0625 L 27.75 20 z" fill="#000000"/></svg>
