<?xml version="1.0" encoding="utf-8"?>
<svg xmlns="http://www.w3.org/2000/svg" viewBox="0 0 32 32" fill="#000000"><path style="text-indent:0;text-align:start;line-height:normal;text-transform:none;block-progression:tb;-inkscape-font-specification:Bitstream Vera Sans" d="M 16.5 4 C 14.578848 4 13 5.5788481 13 7.5 C 13 9.4211519 14.578848 11 16.5 11 C 18.421152 11 20 9.4211519 20 7.5 C 20 5.5788481 18.421152 4 16.5 4 z M 16.5 6 C 17.340272 6 18 6.6597281 18 7.5 C 18 8.3402719 17.340272 9 16.5 9 C 15.659728 9 15 8.3402719 15 7.5 C 15 6.6597281 15.659728 6 16.5 6 z M 12.8125 11.25 C 12.296737 11.291499 11.818215 11.538752 11.46875 11.9375 L 9.65625 14.03125 C 9.4185287 14.30463 9.251116 14.64216 9.1875 15 L 8.5 18.875 L 10.46875 19.21875 L 11.15625 15.34375 L 12.96875 13.25 L 13 13.25 L 13.78125 13.40625 L 12.59375 18.78125 C 12.47175 19.33825 12.6025 19.914 12.9375 20.375 L 18.46875 28 L 20.9375 28 L 14.5625 19.1875 L 15.75 13.78125 L 16.21875 13.875 L 16.96875 16.5 C 17.143786 17.100691 17.59658 17.590154 18.1875 17.8125 L 21.71875 19.15625 L 22.40625 17.28125 L 18.90625 15.9375 L 18.125 13.3125 C 17.916983 12.590441 17.333681 12.046237 16.59375 11.90625 L 13.34375 11.28125 C 13.170191 11.248428 12.984421 11.236167 12.8125 11.25 z M 12.46875 22.03125 L 11.96875 23.96875 L 9.0625 28 L 11.53125 28 L 13.84375 24.84375 L 13.96875 24.25 L 12.46875 22.03125 z" overflow="visible" font-family="Bitstream Vera Sans" fill="#000000"/></svg>
