<?xml version="1.0" encoding="utf-8"?>
<svg xmlns="http://www.w3.org/2000/svg" viewBox="0 0 32 32" fill="#000000"><path d="M 16 9 L 13.34375 13.96875 L 11.71875 10.75 C 11.48575 10.284 10.99075 9.96875 10.46875 9.96875 L 0 9.96875 L 0.9375 11.375 C 1.1925 11.758 1.6015 11.96875 2.0625 11.96875 L 9 11.96875 C 9.5 11.96875 9.9445 12.2495 10.1875 12.6875 L 13 18 L 16 13 L 19 18 L 21.78125 12.6875 C 22.02425 12.2505 22.46875 11.96875 22.96875 11.96875 L 29.9375 11.96875 C 30.3985 11.96875 30.8075 11.758 31.0625 11.375 L 32 9.96875 L 21.53125 9.96875 C 21.00925 9.96875 20.51425 10.284 20.28125 10.75 L 18.65625 13.96875 L 16 9 z M 1.71875 13 L 2.625 14.375 C 2.88 14.758 3.32025 15 3.78125 15 L 10.25 15 L 9.5625 13.625 C 9.3065 13.242 8.86625 13 8.40625 13 L 1.71875 13 z M 23.5 13 C 23.039 13 22.63 13.242 22.375 13.625 L 21.65625 15 L 28.21875 15 C 28.67975 15 29.12 14.758 29.375 14.375 L 30.28125 13 L 23.5 13 z M 16 15 L 13 20 L 11.21875 16.6875 C 10.97375 16.2585 10.494 16 10 16 L 4 16 L 4.9375 17.375 C 5.1925 17.758 5.6015 18 6.0625 18 L 8.84375 18 C 9.31875 18 9.748 18.25425 10 18.65625 L 13 24 L 16 18.90625 L 19 24 L 22 18.65625 C 22.252 18.25425 22.68125 18 23.15625 18 L 25.9375 18 C 26.3975 18 26.8065 17.758 27.0625 17.375 L 28 16 L 22 16 C 21.507 16 21.02725 16.2585 20.78125 16.6875 L 19 20 L 16 15 z" fill="#000000"/></svg>
