<?xml version="1.0" encoding="utf-8"?>
<svg xmlns="http://www.w3.org/2000/svg" viewBox="0 0 32 32" fill="#000000"><path style="text-indent:0;text-align:start;line-height:normal;text-transform:none;block-progression:tb;-inkscape-font-specification:Sans" d="M 5 4 L 5 5 L 5 27 L 5 28 L 6 28 L 14 28 L 15 28 L 15 27 L 15 5 L 15 4 L 14 4 L 6 4 L 5 4 z M 7 6 L 13 6 L 13 26 L 7 26 L 7 6 z M 19.65625 8 C 18.192983 8 17 9.1929828 17 10.65625 L 17 22.34375 C 17 23.807017 18.192983 25 19.65625 25 L 24.34375 25 C 25.807017 25 27 23.807017 27 22.34375 L 27 10.65625 C 27 9.1929828 25.807017 8 24.34375 8 L 19.65625 8 z M 19.65625 10 L 24.34375 10 C 24.726483 10 25 10.273517 25 10.65625 L 25 22.34375 C 25 22.726483 24.726483 23 24.34375 23 L 19.65625 23 C 19.273517 23 19 22.726483 19 22.34375 L 19 10.65625 C 19 10.273517 19.273517 10 19.65625 10 z" overflow="visible" font-family="Sans" fill="#000000"/></svg>
