<?xml version="1.0" encoding="utf-8"?>
<svg xmlns="http://www.w3.org/2000/svg" viewBox="0 0 32 32" fill="#000000"><path style="text-indent:0;text-align:start;line-height:normal;text-transform:none;block-progression:tb;-inkscape-font-specification:Sans" d="M 26 4 C 24.959545 4 23.609233 4.3383328 22.09375 4.6875 C 20.578267 5.0366672 18.972454 5.4038082 17.9375 5.53125 C 15.88483 5.784243 12.479795 6.2382156 9.5 7.9375 C 6.5202052 9.6367844 4 12.769028 4 17.8125 C 4 22.369743 6.0625 27.375 6.0625 27.375 L 6.3125 28 L 7 28 C 10.915536 28 14.272071 25.562717 16.71875 23.1875 C 17.942089 21.999891 18.937374 20.82273 19.65625 19.90625 C 20.015688 19.44801 20.323036 19.033621 20.53125 18.75 C 20.635357 18.608189 20.722663 18.516338 20.78125 18.4375 C 20.810545 18.39808 20.830253 18.362673 20.84375 18.34375 C 20.828064 18.386066 21.35154 18.069389 22.03125 17.6875 C 22.75902 17.278609 23.697917 16.700435 24.59375 15.8125 C 26.385415 14.036629 28 11.025069 28 6.0625 C 28 5.7941667 27.991445 5.332902 27.6875 4.84375 C 27.383555 4.354598 26.696194 4 26 4 z M 26 6 C 26.0054 6.03051 26 6.00983 26 6.0625 C 26 10.601931 24.597585 12.946371 23.15625 14.375 C 22.435583 15.089315 21.71023 15.573579 21.0625 15.9375 C 21.002354 15.971293 20.963958 16.001148 20.90625 16.03125 C 21.170598 13.023669 20.753187 10.708895 20.15625 9.0625 C 19.901576 8.3600907 19.616726 7.8129515 19.34375 7.34375 C 20.349091 7.1492204 21.458289 6.8722099 22.53125 6.625 C 24.035517 6.2784172 25.501455 6 26 6 z M 17.1875 7.6875 C 17.229928 7.7467545 17.26458 7.7726471 17.3125 7.84375 C 17.591159 8.2572226 17.966921 8.8830591 18.28125 9.75 C 18.899413 11.454935 19.356594 14.0955 18.65625 17.90625 C 18.487912 18.138504 18.328173 18.357389 18.09375 18.65625 C 17.412345 19.524958 16.478536 20.648359 15.34375 21.75 C 13.244813 23.787632 10.504329 25.631445 7.6875 25.90625 C 7.3228238 24.926982 6 21.258032 6 17.8125 C 6 13.402972 7.9670448 11.131966 10.5 9.6875 C 12.657262 8.4572806 15.217548 7.9679699 17.1875 7.6875 z" overflow="visible" font-family="Sans" fill="#000000"/></svg>
