<?xml version="1.0" encoding="utf-8"?>
<svg xmlns="http://www.w3.org/2000/svg" viewBox="0 0 32 32" fill="#000000"><path style="text-indent:0;text-align:start;line-height:normal;text-transform:none;block-progression:tb;-inkscape-font-specification:Sans" d="M 16 4 C 9.3844277 4 4 9.3844277 4 16 C 4 22.615572 9.3844277 28 16 28 L 27 28 L 28 28 L 28 27 L 28 16 C 28 9.3844277 22.615572 4 16 4 z M 16 6 C 21.534692 6 26 10.465308 26 16 C 26 21.534692 21.534692 26 16 26 C 10.465308 26 6 21.534692 6 16 C 6 10.465308 10.465308 6 16 6 z M 16 8 C 14.895431 8 14 8.8954305 14 10 C 14 10.739604 14.403104 11.372707 15 11.71875 L 15 12.15625 C 14.630459 12.252311 14.28951 12.370898 13.96875 12.5625 L 13 11.5625 C 13.000815 11.542194 13 11.520506 13 11.5 C 13 10.671573 12.328427 10 11.5 10 C 10.671573 10 10 10.671573 10 11.5 C 10 12.328427 10.671573 13 11.5 13 C 11.520506 13 11.542194 13.000815 11.5625 13 L 12.5625 13.96875 C 12.370898 14.28951 12.252311 14.630459 12.15625 15 L 11.71875 15 C 11.372707 14.403104 10.739604 14 10 14 C 8.8954305 14 8 14.895431 8 16 C 8 17.104569 8.8954305 18 10 18 C 10.739604 18 11.372707 17.596896 11.71875 17 L 12.15625 17 C 12.211875 17.213988 12.254905 17.426186 12.34375 17.625 L 11.8125 18.03125 C 11.714854 18.011269 11.603553 18 11.5 18 C 10.671573 18 10 18.671573 10 19.5 C 10 20.328427 10.671573 21 11.5 21 C 12.265885 21 12.877717 20.428777 12.96875 19.6875 L 13.625 19.1875 C 13.472453 19.072877 13.322345 18.946514 13.1875 18.8125 C 13.002645 18.628784 12.833734 18.435373 12.6875 18.21875 C 12.831752 18.431667 13.006165 18.631165 13.1875 18.8125 C 13.322105 18.947105 13.472602 19.072938 13.625 19.1875 C 13.826357 19.338867 14.022139 19.481931 14.25 19.59375 L 13.9375 21.125 C 13.384773 21.346097 13 21.868324 13 22.5 C 13 23.328427 13.671573 24 14.5 24 C 15.328427 24 16 23.328427 16 22.5 C 16 22.267005 15.938544 22.040479 15.84375 21.84375 L 16.21875 19.96875 C 16.427067 19.957214 16.644836 19.948917 16.84375 19.90625 L 17.09375 20.40625 C 17.035314 20.594128 17 20.792893 17 21 C 17 22.104569 17.895431 23 19 23 C 20.104569 23 21 22.104569 21 21 C 21 19.895431 20.104569 19 19 19 C 18.872487 19 18.745883 19.00844 18.625 19.03125 C 18.614991 19.033139 18.603706 19.029213 18.59375 19.03125 C 18.587621 19.036495 18.568658 19.026039 18.5625 19.03125 C 18.960998 18.692633 19.288877 18.280227 19.53125 17.8125 L 20.09375 18.03125 C 20.305301 18.603196 20.854517 19 21.5 19 C 22.328427 19 23 18.328427 23 17.5 C 23 16.671573 22.328427 16 21.5 16 C 21.267005 16 21.040479 16.061456 20.84375 16.15625 L 19.96875 15.8125 C 19.944701 15.307177 19.853113 14.815534 19.65625 14.375 L 20.28125 13.875 C 20.503315 13.960051 20.74802 14 21 14 C 22.104569 14 23 13.104569 23 12 C 23 10.895431 22.104569 10 21 10 C 19.895431 10 19 10.895431 19 12 C 19 12.095838 19.018216 12.189009 19.03125 12.28125 L 18.375 12.8125 C 18.527547 12.927123 18.677655 13.053486 18.8125 13.1875 C 18.997355 13.371216 19.166266 13.564627 19.3125 13.78125 C 19.168248 13.568333 18.993835 13.368835 18.8125 13.1875 C 18.677895 13.052895 18.527398 12.927062 18.375 12.8125 C 17.963386 12.503076 17.511043 12.289093 17 12.15625 L 17 11.71875 C 17.596896 11.372707 18 10.739604 18 10 C 18 8.8954305 17.104569 8 16 8 z M 16 12 C 16.239838 12 16.460673 12.04923 16.6875 12.09375 C 16.465088 12.054901 16.232961 12 16 12 z M 16 12 C 15.767039 12 15.534912 12.054901 15.3125 12.09375 C 15.539327 12.04923 15.760162 12 16 12 z M 16 14 C 17.116414 14 18 14.883586 18 16 C 18 17.116414 17.116414 18 16 18 C 14.883586 18 14 17.116414 14 16 C 14 14.883586 14.883586 14 16 14 z M 12.09375 15.3125 C 12.054901 15.534912 12 15.767039 12 16 C 12 16.232961 12.054901 16.465088 12.09375 16.6875 C 12.04923 16.460673 12 16.239838 12 16 C 12 15.760162 12.04923 15.539327 12.09375 15.3125 z M 15.3125 19.90625 C 15.534912 19.945099 15.767039 20 16 20 C 15.764482 20 15.535695 19.947558 15.3125 19.90625 z M 26 22.625 L 26 26 L 22.625 26 C 23.971703 25.107202 25.107202 23.971703 26 22.625 z" fill="#000000"/></svg>
