<?xml version="1.0" encoding="utf-8"?>
<svg xmlns="http://www.w3.org/2000/svg" viewBox="0 0 32 32" fill="#000000"><path style="text-indent:0;text-align:start;line-height:normal;text-transform:none;block-progression:tb;-inkscape-font-specification:Sans" d="M 14.09375 1 L 13.8125 1.5625 L 13.40625 2.4375 C 12.933077 2.5722203 10.565425 3.2362065 8.59375 4.09375 L 8 4.34375 L 8 5 C 8 5.3656495 8.0273922 5.7138737 8.0625 6.0625 C 8.0851828 6.2877441 8.1210609 6.5318328 8.15625 6.75 C 8.2002778 7.0125872 8.2558883 7.2569814 8.3125 7.5 C 8.3170142 7.5198301 8.3079001 7.5427328 8.3125 7.5625 C 8.3418815 7.6860127 8.374735 7.8200039 8.40625 7.9375 C 8.4779434 8.2085447 8.5716672 8.4599699 8.65625 8.71875 C 8.7894579 9.1262982 8.9410454 9.5289525 9.09375 9.90625 C 9.2659933 10.331823 9.4173542 10.737635 9.59375 11.125 C 10.358682 12.80479 11 14.171186 11 15 C 11 15.192626 10.93429 15.388195 10.6875 15.78125 C 10.44071 16.174305 10.035373 16.700744 9.625 17.4375 C 8.8042539 18.911013 8 21.175944 8 25 L 8 26 L 9 26 L 23 26 L 24 26 L 24 25 C 24 21.175944 23.195746 18.911013 22.375 17.4375 C 21.964627 16.700744 21.55929 16.174305 21.3125 15.78125 C 21.06571 15.388195 21 15.192626 21 15 C 21 14.171186 21.641318 12.80479 22.40625 11.125 C 22.838332 10.176148 23.281793 9.1168893 23.59375 7.9375 C 23.625265 7.8200039 23.658119 7.6860127 23.6875 7.5625 C 23.6921 7.5427328 23.682986 7.5198301 23.6875 7.5 C 23.744112 7.2569814 23.799722 7.0125872 23.84375 6.75 C 23.863026 6.6304944 23.890613 6.4966275 23.90625 6.375 C 23.920574 6.2676382 23.926143 6.1721914 23.9375 6.0625 C 23.972608 5.7138737 24 5.3656495 24 5 L 24 4.34375 L 23.40625 4.09375 C 21.434575 3.2362065 19.066923 2.5722203 18.59375 2.4375 L 18.1875 1.5625 L 17.90625 1 L 17.28125 1 L 16 1 L 14.71875 1 L 14.09375 1 z M 15.375 3 L 16 3 L 16.625 3 L 16.9375 3.65625 L 17.125 4.0625 L 17.59375 4.1875 C 17.59375 4.1875 20.038585 4.9391666 21.90625 5.65625 C 21.839903 6.4938117 21.667971 7.2936644 21.4375 8.0625 C 21.434679 8.0711588 21.440322 8.0851514 21.4375 8.09375 C 21.411391 8.1801559 21.37143 8.2581276 21.34375 8.34375 C 21.108231 9.0071414 20.90625 9.46875 20.90625 9.46875 L 20.875 9.5 C 20.470539 10.393049 19.996571 10.716288 19.625 10.875 C 19.253429 11.033712 19.0625 11 19.0625 11 L 19.03125 11 L 19 11 C 18.575531 11 18 10.453714 18 10 L 16 10 C 16 11.64496 17.33326 12.929261 18.9375 12.96875 C 18.9417 12.968854 18.9333 12.99991 18.9375 13 C 18.9375 13 18.99766 12.999896 19 13 C 19.027385 13.0012 19.185614 12.999711 19.4375 12.96875 C 19.199431 13.632734 19 14.297565 19 15 C 19 15.732874 19.30929 16.34093 19.625 16.84375 C 19.94071 17.34657 20.285373 17.796506 20.625 18.40625 C 21.222637 19.479208 21.768447 21.227253 21.90625 24 L 10.09375 24 C 10.231553 21.227253 10.777363 19.479208 11.375 18.40625 C 11.714627 17.796506 12.05929 17.34657 12.375 16.84375 C 12.69071 16.34093 13 15.732874 13 15 C 13 14.297565 12.800569 13.632734 12.5625 12.96875 C 12.814386 12.999716 12.972613 13.001218 13 13 C 13.0023 12.999896 13.0625 13 13.0625 13 C 13.0667 12.999914 13.0583 12.96885 13.0625 12.96875 C 14.666142 12.929274 16 11.645381 16 10 L 14 10 C 14 10.455286 13.425116 11 13 11 L 12.96875 11 L 12.9375 11 C 12.9375 11 12.746571 11.03371 12.375 10.875 C 12.003429 10.716288 11.529461 10.393049 11.125 9.5 L 11.09375 9.46875 C 11.09375 9.46875 10.891769 9.0071414 10.65625 8.34375 C 10.619827 8.2411564 10.599497 8.1760483 10.5625 8.0625 C 10.332029 7.2936645 10.160097 6.4938117 10.09375 5.65625 C 11.961415 4.9391666 14.40625 4.1875 14.40625 4.1875 L 14.875 4.0625 L 15.0625 3.65625 L 15.375 3 z M 15 27 L 15 31 L 17 31 L 17 27 L 15 27 z" overflow="visible" font-family="Sans" fill="#000000"/></svg>
