<?xml version="1.0" encoding="utf-8"?>
<svg xmlns="http://www.w3.org/2000/svg" viewBox="0 0 32 32" fill="#000000"><path style="text-indent:0;text-align:start;line-height:normal;text-transform:none;block-progression:tb;-inkscape-font-specification:Bitstream Vera Sans" d="M 17 4 C 14.721286 4 12.814962 5.5617842 12.21875 7.65625 C 11.488598 6.6627962 10.318109 6 9 6 C 6.8027056 6 5 7.8027056 5 10 C 5 10.732431 5.2140512 11.407407 5.5625 12 L 5 12 L 5 13 L 5 25 L 5 26 L 6 26 L 21 26 L 22 26 L 22 25 L 22 22.375 L 26.6875 23.9375 L 28 24.375 L 28 23 L 28 15 L 28 13.625 L 26.6875 14.0625 L 22 15.625 L 22 13 L 22 12 L 21 12 C 21.633995 11.161898 22 10.125468 22 9 C 22 6.2504209 19.749579 4 17 4 z M 17 6 C 18.668699 6 20 7.3313011 20 9 C 20 10.668699 18.668699 12 17 12 C 15.331301 12 14 10.668699 14 9 C 14 7.3313011 15.331301 6 17 6 z M 9 8 C 10.116414 8 11 8.883586 11 10 C 11 11.116414 10.116414 12 9 12 C 7.883586 12 7 11.116414 7 10 C 7 8.883586 7.883586 8 9 8 z M 12.6875 11.5 C 12.790722 11.676069 12.907984 11.838366 13.03125 12 L 12.4375 12 C 12.534648 11.834785 12.614514 11.679008 12.6875 11.5 z M 7 14 L 9 14 L 20 14 L 20 16.28125 L 20 17 L 20 21 L 20 21.71875 L 20 24 L 7 24 L 7 14 z M 26 16.375 L 26 21.625 L 22 20.28125 L 22 17.71875 L 26 16.375 z" overflow="visible" font-family="Bitstream Vera Sans" fill="#000000"/></svg>
