<?xml version="1.0" encoding="utf-8"?>
<svg xmlns="http://www.w3.org/2000/svg" viewBox="0 0 32 32" fill="#000000"><path style="line-height:normal;text-indent:0;text-align:start;text-decoration-line:none;text-decoration-style:solid;text-decoration-color:#000;text-transform:none;block-progression:tb;isolation:auto;mix-blend-mode:normal" d="M 8 5 C 6.3550302 5 5 6.3550302 5 8 L 5 24 C 5 25.64497 6.3550302 27 8 27 L 24 27 C 25.64497 27 27 25.64497 27 24 L 27 8 C 27 6.3550302 25.64497 5 24 5 L 8 5 z M 8 7 L 24 7 C 24.56503 7 25 7.4349698 25 8 L 25 24 C 25 24.56503 24.56503 25 24 25 L 8 25 C 7.4349698 25 7 24.56503 7 24 L 7 8 C 7 7.4349698 7.4349698 7 8 7 z M 11.5 8 C 9.578848 8 8 9.578848 8 11.5 C 8 12.883152 8.8246938 14.0777 10 14.644531 L 10 17.355469 C 8.8246938 17.9223 8 19.116848 8 20.5 C 8 22.421152 9.578848 24 11.5 24 C 12.883152 24 14.0777 23.175306 14.644531 22 L 17.355469 22 C 17.9223 23.175306 19.116848 24 20.5 24 C 22.421152 24 24 22.421152 24 20.5 C 24 19.116848 23.175306 17.9223 22 17.355469 L 22 14.644531 C 23.175306 14.0777 24 12.883152 24 11.5 C 24 9.578848 22.421152 8 20.5 8 C 19.116848 8 17.9223 8.8246938 17.355469 10 L 14.644531 10 C 14.0777 8.8246938 12.883152 8 11.5 8 z M 11.5 10 C 12.340272 10 13 10.659728 13 11.5 C 13 12.340272 12.340272 13 11.5 13 C 10.659728 13 10 12.340272 10 11.5 C 10 10.659728 10.659728 10 11.5 10 z M 20.5 10 C 21.340272 10 22 10.659728 22 11.5 C 22 12.340272 21.340272 13 20.5 13 C 19.659728 13 19 12.340272 19 11.5 C 19 10.659728 19.659728 10 20.5 10 z M 14.949219 12 L 17.050781 12 C 17.273971 13.520505 18.479495 14.726029 20 14.949219 L 20 17.050781 C 18.479495 17.273971 17.273971 18.479495 17.050781 20 L 14.949219 20 C 14.726029 18.479495 13.520505 17.273971 12 17.050781 L 12 14.949219 C 13.520505 14.726029 14.726029 13.520505 14.949219 12 z M 11.5 19 C 12.340272 19 13 19.659728 13 20.5 C 13 21.340272 12.340272 22 11.5 22 C 10.659728 22 10 21.340272 10 20.5 C 10 19.659728 10.659728 19 11.5 19 z M 20.5 19 C 21.340272 19 22 19.659728 22 20.5 C 22 21.340272 21.340272 22 20.5 22 C 19.659728 22 19 21.340272 19 20.5 C 19 19.659728 19.659728 19 20.5 19 z" fill="#000000"/></svg>
