<?xml version="1.0" encoding="utf-8"?>
<svg xmlns="http://www.w3.org/2000/svg" viewBox="0 0 32 32" fill="#000000"><path style="text-indent:0;text-align:start;line-height:normal;text-transform:none;block-progression:tb;-inkscape-font-specification:Bitstream Vera Sans" d="M 16 1 C 12.76 1.72 7.96625 8.90875 6.40625 4.46875 C 6.40625 4.46875 4 8.56625 4 15.40625 C 4.0115726 15.364299 4.0195205 15.32293 4.03125 15.28125 C 4.016839 15.521446 4 15.756254 4 16 C 4 22.615572 9.3844277 28 16 28 C 22.615572 28 28 22.615572 28 16 C 28 15.766828 27.981946 15.542431 27.96875 15.3125 C 27.978759 15.343346 27.990135 15.375338 28 15.40625 C 28 7.12625 22 2.1875 22 2.1875 C 22 2.1875 21.74875 4.235 19.46875 3.875 C 17.30875 3.395 16 1 16 1 z M 16 6 C 21.534692 6 26 10.465308 26 16 C 26 21.534692 21.534692 26 16 26 C 10.465308 26 6 21.534692 6 16 C 6 10.465308 10.465308 6 16 6 z M 13.21875 8.5 C 11.042633 9.3096115 9.3096115 11.042633 8.5 13.21875 L 10.375 13.90625 C 10.981388 12.276367 12.276367 10.981388 13.90625 10.375 L 13.21875 8.5 z M 16 13 C 14.35499 13 13 14.35499 13 16 C 13 17.64501 14.35499 19 16 19 C 17.64501 19 19 17.64501 19 16 C 19 14.35499 17.64501 13 16 13 z M 16 15 C 16.564128 15 17 15.435872 17 16 C 17 16.564128 16.564128 17 16 17 C 15.435872 17 15 16.564128 15 16 C 15 15.435872 15.435872 15 16 15 z M 21.625 18.09375 C 21.018612 19.723633 19.723633 21.018612 18.09375 21.625 L 18.78125 23.5 C 20.957367 22.690388 22.690388 20.957367 23.5 18.78125 L 21.625 18.09375 z" overflow="visible" font-family="Bitstream Vera Sans" fill="#000000"/></svg>
