<?xml version="1.0" encoding="utf-8"?>
<svg xmlns="http://www.w3.org/2000/svg" viewBox="0 0 32 32" fill="#000000"><path style="text-indent:0;text-align:start;line-height:normal;text-transform:none;block-progression:tb;-inkscape-font-specification:Bitstream Vera Sans" d="M 16 4.875 L 15.5625 5.09375 L 11.5625 7.09375 L 11 7.375 L 11 8 L 11 12 L 9 12 L 9 11 L 9 10.46875 L 8.5625 10.15625 L 7.0625 9.15625 L 6.5 8.8125 L 5.9375 9.15625 L 4.4375 10.15625 L 4 10.46875 L 4 11 L 4 24 L 4 25 L 5 25 L 27 25 L 28 25 L 28 24 L 28 11 L 28 10.46875 L 27.5625 10.15625 L 26.0625 9.15625 L 25.5 8.8125 L 24.9375 9.15625 L 23.4375 10.15625 L 23 10.46875 L 23 11 L 23 12 L 21 12 L 21 8 L 21 7.375 L 20.4375 7.09375 L 16.4375 5.09375 L 16 4.875 z M 16 7.125 L 19 8.625 L 19 12 L 13 12 L 13 8.625 L 16 7.125 z M 6.5 11.21875 L 7 11.5625 L 7 13 L 7 14 L 8 14 L 24 14 L 25 14 L 25 13 L 25 11.5625 L 25.5 11.21875 L 26 11.5625 L 26 23 L 20 23 L 20 18 L 20 17.28125 L 19.3125 17.0625 L 16.3125 16.0625 L 16 15.9375 L 15.6875 16.0625 L 12.6875 17.0625 L 12 17.28125 L 12 18 L 12 23 L 6 23 L 6 11.5625 L 6.5 11.21875 z M 16 18.03125 L 18 18.71875 L 18 23 L 14 23 L 14 18.71875 L 16 18.03125 z" overflow="visible" font-family="Bitstream Vera Sans" fill="#000000"/></svg>
