<?xml version="1.0" encoding="utf-8"?>
<svg xmlns="http://www.w3.org/2000/svg" viewBox="0 0 32 32" fill="#000000"><path style="text-indent:0;text-align:start;line-height:normal;text-transform:none;block-progression:tb;-inkscape-font-specification:Bitstream Vera Sans" d="M 13 4 C 10.873746 4 9.34375 5.65625 9.34375 5.65625 L 10.71875 7.09375 C 10.71875 7.09375 12.064254 6 13 6 L 13 4 z M 17 4 C 17 4.9544005 17.169648 7.0247182 18.28125 9.09375 C 17.867723 9.0385483 17.446308 9 17 9 C 14.532819 9 13.033357 10.01463 12.4375 10.46875 C 12.090186 10.338849 11.607521 10.158088 11 10.0625 C 9.5535734 6.9567004 6.53125 5.15625 6.53125 5.15625 L 5.46875 6.84375 C 5.46875 6.84375 7.5447763 8.1989688 8.78125 10.1875 C 7.8279682 10.481978 6.9941664 11.104363 6.375 11.90625 C 5.5036911 13.034689 5 14.521044 5 16.15625 C 5 21.178742 7.8276711 23.853077 10.53125 25 C 12.826361 25.973641 14.745397 25.979804 15.375 25.96875 C 16.713894 26.597504 18.298273 27 20.15625 27 C 24.080049 27 26.65625 24.75 26.65625 24.75 L 26.96875 24.46875 L 27 24.03125 C 27 24.03125 27.167914 20.420652 26.0625 16.71875 C 25.509793 14.867799 24.646395 12.97795 23.1875 11.5 C 22.883564 11.192094 22.544685 10.919462 22.1875 10.65625 L 22.21875 10.625 C 19.334904 8.4514475 19 5.0880154 19 4 L 17 4 z M 22.78125 4.375 C 22.78125 4.375 22.00597 5.3919917 20.6875 6.03125 L 21.5625 7.8125 C 23.34603 6.9477583 24.375 5.59375 24.375 5.59375 L 22.78125 4.375 z M 17 11 C 18.576303 11 19.778903 11.380136 20.75 12.03125 C 20.831372 12.096997 20.915087 12.154453 21 12.21875 C 21.26709 12.418546 21.514112 12.636031 21.75 12.875 C 22.882261 14.02205 23.663832 15.632201 24.15625 17.28125 C 25.025323 20.191671 25.013664 22.811553 25 23.46875 C 24.575354 23.80078 22.938279 25 20.15625 25 C 16.787967 25 14.77968 23.726336 13.53125 21.96875 C 12.28282 20.211164 11.827095 17.86267 12.03125 15.84375 L 10.0625 15.65625 C 9.8156553 18.09733 10.30918 20.876586 11.90625 23.125 C 11.96934 23.21382 12.058274 23.288201 12.125 23.375 C 11.834572 23.28431 11.606512 23.28098 11.3125 23.15625 C 9.1035789 22.219173 7 20.477758 7 16.15625 C 7 14.936456 7.3990589 13.862811 7.96875 13.125 C 8.5384411 12.387189 9.2452925 12 10 12 C 11.003187 12 12.1875 12.5 12.1875 12.5 L 12.75 12.75 L 13.25 12.3125 C 13.25 12.3125 14.750573 11 17 11 z" overflow="visible" font-family="Bitstream Vera Sans" fill="#000000"/></svg>
