<?xml version="1.0" encoding="utf-8"?>
<svg xmlns="http://www.w3.org/2000/svg" viewBox="0 0 32 32" fill="#000000"><path style="text-indent:0;text-align:start;line-height:normal;text-transform:none;block-progression:tb;-inkscape-font-specification:Bitstream Vera Sans" d="M 25.9375 5 L 21.53125 17.125 C 20.82825 18.863 19.15525 20 17.28125 20 L 8 20 C 5.794 20 4 21.794 4 24 C 4 26.206 5.794 28 8 28 L 15.5 28 C 18.014 28 20.267 26.4245 21.125 24.0625 L 28.0625 5 L 25.9375 5 z M 10 8 C 8.794098 8 7.6929374 8.169836 6.8125 8.5 C 6.3722813 8.665082 5.993979 8.8568196 5.65625 9.15625 C 5.318521 9.4556804 5 9.9325998 5 10.5 L 5 13.5 C 5 14.067507 5.3185496 14.544394 5.65625 14.84375 C 5.9939504 15.143106 6.3722954 15.334895 6.8125 15.5 C 7.6929092 15.83021 8.7940967 16 10 16 C 11.205903 16 12.307091 15.83021 13.1875 15.5 C 13.627705 15.334895 14.00605 15.143106 14.34375 14.84375 C 14.68145 14.544394 15 14.067507 15 13.5 L 15 10.5 C 15 9.9325998 14.681479 9.4556804 14.34375 9.15625 C 14.006021 8.8568196 13.627719 8.665082 13.1875 8.5 C 12.307063 8.169836 11.205902 8 10 8 z M 10 10 C 11.003237 10 11.901472 10.162271 12.46875 10.375 C 12.594812 10.42227 12.631325 10.45322 12.71875 10.5 C 12.63133 10.54678 12.594812 10.57773 12.46875 10.625 C 11.901472 10.837729 11.003237 11 10 11 C 8.996763 11 8.0985279 10.837729 7.53125 10.625 C 7.4051882 10.57773 7.3686749 10.54678 7.28125 10.5 C 7.368675 10.45322 7.4051882 10.42227 7.53125 10.375 C 8.0985279 10.162271 8.996763 10 10 10 z M 7 12.5625 C 7.8477983 12.849558 8.8766785 13 10 13 C 11.123321 13 12.152202 12.849558 13 12.5625 L 13 13.375 C 12.92167 13.43811 12.733509 13.525698 12.46875 13.625 C 11.901409 13.83779 11.003097 14 10 14 C 8.9969033 14 8.0985908 13.83779 7.53125 13.625 C 7.266491 13.525698 7.0783324 13.438108 7 13.375 L 7 12.5625 z M 19.96875 21.4375 L 19.25 23.375 C 18.857421 24.455965 18.026974 25.268496 17 25.6875 L 17 22 L 17.28125 22 C 18.22625 22 19.14475 21.8035 19.96875 21.4375 z M 8 22 L 8 26 C 6.897 26 6 25.103 6 24 C 6 22.897 6.897 22 8 22 z M 10 22 L 15 22 L 15 26 L 10 26 L 10 22 z" overflow="visible" font-family="Bitstream Vera Sans" fill="#000000"/></svg>
