<?xml version="1.0" encoding="utf-8"?>
<svg xmlns="http://www.w3.org/2000/svg" viewBox="0 0 32 32" fill="#000000"><path style="text-indent:0;text-align:start;line-height:normal;text-transform:none;block-progression:tb;-inkscape-font-specification:Bitstream Vera Sans" d="M 4 5 L 4 27 L 10.46875 27 L 12.25 25.21875 C 12.294 25.17475 12.36275 25.101 12.46875 25 L 6 25 L 6 11 L 26 11 L 26 21.375 C 26.712 21.668 27.383 22.012 28 22.375 L 28 5 L 4 5 z M 6 7 L 26 7 L 26 9 L 6 9 L 6 7 z M 22 22 C 19.67416 22 17.524567 23.09979 15.9375 24.15625 C 14.350433 25.21271 13.28125 26.28125 13.28125 26.28125 L 12.59375 27 L 13.28125 27.71875 C 13.28125 27.71875 14.350913 28.78717 15.9375 29.84375 C 17.524087 30.90033 19.67208 32 22 32 C 24.32792 32 26.475913 30.90033 28.0625 29.84375 C 29.649087 28.78717 30.71875 27.71875 30.71875 27.71875 L 31.40625 27 L 30.71875 26.28125 C 30.71875 26.28125 29.649567 25.21271 28.0625 24.15625 C 26.475433 23.09979 24.32584 22 22 22 z M 22 24 C 20.343 24 19 25.343 19 27 C 19 28.657 20.343 30 22 30 C 23.657 30 25 28.657 25 27 C 25 26.695 24.92775 26.401 24.84375 26.125 C 24.60475 26.637 24.102 27 23.5 27 C 22.672 27 22 26.328 22 25.5 C 22 24.898 22.363 24.39525 22.875 24.15625 C 22.737 24.11425 22.582125 24.0565 22.4375 24.03125 C 23.977218 24.169143 25.644225 24.982858 26.9375 25.84375 C 27.808703 26.423682 27.972531 26.642303 28.375 27 C 27.973005 27.357624 27.808229 27.576392 26.9375 28.15625 C 25.520837 29.09967 23.65908 30 22 30 C 20.34092 30 18.479163 29.09967 17.0625 28.15625 C 16.191771 27.576392 16.026995 27.357624 15.625 27 C 16.027469 26.642303 16.191297 26.423682 17.0625 25.84375 C 18.479933 24.90021 20.34384 24 22 24 z" overflow="visible" font-family="Bitstream Vera Sans" fill="#000000"/></svg>
