<?xml version="1.0" encoding="utf-8"?>
<svg xmlns="http://www.w3.org/2000/svg" viewBox="0 0 32 32" fill="#000000"><path style="text-indent:0;text-align:start;line-height:normal;text-transform:none;block-progression:tb;-inkscape-font-specification:Bitstream Vera Sans" d="M 9 6 C 7.3545455 6 6 7.3545455 6 9 L 6 15.78125 C 5.3897999 16.33203 5 17.121617 5 18 L 5 26 L 5 27 L 6 27 L 9 27 L 10 27 L 10 26 L 10 25 L 22 25 L 22 26 L 22 27 L 23 27 L 26 27 L 27 27 L 27 26 L 27 18 C 27 17.121617 26.6102 16.33203 26 15.78125 L 26 9 C 26 7.3545455 24.645455 6 23 6 L 9 6 z M 9 8 L 23 8 C 23.554545 8 24 8.4454545 24 9 L 24 15 L 22 15 L 22 14 C 22 12.354545 20.645455 11 19 11 L 13 11 C 11.354545 11 10 12.354545 10 14 L 10 15 L 8 15 L 8 9 C 8 8.4454545 8.4454545 8 9 8 z M 13 13 L 19 13 C 19.554545 13 20 13.445455 20 14 L 20 15 L 12 15 L 12 14 C 12 13.445455 12.445455 13 13 13 z M 8 17 L 24 17 C 24.554545 17 25 17.445455 25 18 L 25 25 L 24 25 L 24 24 L 24 23 L 23 23 L 9 23 L 8 23 L 8 24 L 8 25 L 7 25 L 7 18 C 7 17.445455 7.4454545 17 8 17 z" overflow="visible" font-family="Bitstream Vera Sans" fill="#000000"/></svg>
