<?xml version="1.0" encoding="utf-8"?>
<svg xmlns="http://www.w3.org/2000/svg" viewBox="0 0 32 32" fill="#000000"><path style="text-indent:0;text-align:start;line-height:normal;text-transform:none;block-progression:tb;-inkscape-font-specification:Sans" d="M 3 7 L 3 8 L 3 24 L 3 25 L 4 25 L 28 25 L 29 25 L 29 24 L 29 8 L 29 7 L 28 7 L 4 7 L 3 7 z M 5 9 L 21 9 L 21 23 L 5 23 L 5 9 z M 23 9 L 27 9 L 27 23 L 23 23 L 23 9 z M 14.71875 11.28125 L 13.28125 12.71875 L 15.5625 15 L 8 15 L 8 17 L 15.5625 17 L 13.28125 19.28125 L 14.71875 20.71875 L 18.71875 16.71875 L 19.40625 16 L 18.71875 15.28125 L 14.71875 11.28125 z" overflow="visible" font-family="Sans" fill="#000000"/></svg>
