<?xml version="1.0" encoding="utf-8"?>
<svg xmlns="http://www.w3.org/2000/svg" viewBox="0 0 32 32" fill="#000000"><path d="M 11.5 3 L 5.53125 4.90625 L 9.875 7.5625 L 16.25 5.15625 L 11.875 3.0625 C 11.77 3.0095 11.605 3 11.5 3 z M 5 5.84375 L 6.3125 12.1875 C 6.3125 12.2925 6.42625 12.395 6.53125 12.5 L 10.34375 15.5 L 9.3125 8.46875 L 5 5.84375 z M 16.71875 6.09375 L 10.40625 8.46875 L 11.46875 15.4375 L 16.71875 12.71875 C 16.87675 12.66575 16.96875 12.46 16.96875 12.25 L 16.71875 6.09375 z M 22.96875 12.21875 C 22.876875 12.21875 22.766 12.26 22.6875 12.3125 L 19.71875 14.1875 L 23.1875 16.34375 L 26.375 14.03125 L 23.21875 12.3125 C 23.13975 12.26 23.060625 12.21875 22.96875 12.21875 z M 6.71875 13.96875 L 7.84375 19.53125 C 7.84375 19.63625 7.895 19.7595 8 19.8125 L 11.46875 23.0625 L 10.625 17.0625 L 6.71875 13.96875 z M 17.03125 13.96875 L 11.78125 16.96875 L 12.5 23.0625 L 17.03125 20.03125 C 17.18925 19.92625 17.303 19.74125 17.25 19.53125 L 17.03125 13.96875 z M 27 14.875 L 26.90625 14.96875 C 26.85325 15.02175 26.8645 15.09375 26.8125 15.09375 L 23.59375 17.28125 L 23.4375 20.65625 L 23.4375 20.84375 L 26.3125 18.59375 C 26.4175 18.48875 26.47925 18.38625 26.53125 18.28125 L 27 14.875 z M 18.59375 14.9375 C 18.49525 14.9375 18.38625 14.97875 18.28125 15.03125 L 18.1875 15.09375 L 18.34375 19.53125 C 18.34375 19.63625 18.33425 19.80125 18.28125 19.90625 L 22.0625 17.125 L 18.875 15.03125 C 18.796 14.97875 18.69225 14.9375 18.59375 14.9375 z M 22.65625 17.96875 L 18.4375 20.90625 L 18.5625 24.53125 L 18.5625 24.8125 L 22.21875 21.90625 C 22.32375 21.80125 22.4375 21.68925 22.4375 21.53125 L 22.65625 17.96875 z M 8.3125 21.21875 L 9.09375 25.4375 C 9.09375 25.5425 9.145 25.5825 9.25 25.6875 L 12.40625 29 L 12.3125 28.78125 L 11.625 24.4375 L 8.3125 21.21875 z M 17.4375 21.28125 L 12.71875 24.3125 L 13.34375 28.6875 L 13.40625 29 L 17.34375 25.84375 C 17.50175 25.73875 17.5625 25.5945 17.5625 25.4375 L 17.4375 21.28125 z" fill="#000000"/></svg>
