<?xml version="1.0" encoding="utf-8"?>
<svg xmlns="http://www.w3.org/2000/svg" viewBox="0 0 32 32" fill="#000000"><path style="text-indent:0;text-align:start;line-height:normal;text-transform:none;block-progression:tb;-inkscape-font-specification:Bitstream Vera Sans" d="M 16 3.90625 L 15.59375 4.09375 L 4.59375 9.09375 L 4 9.34375 L 4 10 L 4 27 L 4 28 L 5 28 L 27 28 L 28 28 L 28 27 L 28 10 L 28 9.34375 L 27.40625 9.09375 L 16.40625 4.09375 L 16 3.90625 z M 16 6.09375 L 26 10.625 L 26 26 L 6 26 L 6 10.625 L 16 6.09375 z M 11.28125 10.3125 C 9.6901798 11.983124 9.0085823 13.360316 9 14.65625 C 8.99142 15.952184 9.6525139 16.925833 10.15625 17.65625 C 10.659986 18.386667 10.988525 18.90648 11 19.46875 C 11.01148 20.03102 10.730872 20.886497 9.375 22.3125 L 10.8125 23.6875 C 12.356628 22.063503 13.026025 20.68148 13 19.40625 C 12.973975 18.13102 12.308764 17.219583 11.8125 16.5 C 11.316236 15.780417 10.996082 15.279066 11 14.6875 C 11.0039 14.095934 11.30982 13.166876 12.71875 11.6875 L 11.28125 10.3125 z M 16.28125 10.3125 C 14.69018 11.983124 14.008582 13.360316 14 14.65625 C 13.9914 15.952184 14.652514 16.925833 15.15625 17.65625 C 15.659986 18.386667 15.988525 18.90648 16 19.46875 C 16.01148 20.03102 15.730872 20.886497 14.375 22.3125 L 15.8125 23.6875 C 17.356628 22.063503 18.026025 20.68148 18 19.40625 C 17.973975 18.13102 17.308764 17.219583 16.8125 16.5 C 16.316236 15.780417 15.996082 15.279066 16 14.6875 C 16.0039 14.095934 16.30982 13.166876 17.71875 11.6875 L 16.28125 10.3125 z M 21.28125 10.3125 C 19.69018 11.983124 19.008582 13.360316 19 14.65625 C 18.9914 15.952184 19.652514 16.925833 20.15625 17.65625 C 20.659986 18.386667 20.988525 18.90648 21 19.46875 C 21.01148 20.03102 20.730872 20.886497 19.375 22.3125 L 20.8125 23.6875 C 22.356628 22.063503 23.026025 20.68148 23 19.40625 C 22.973975 18.13102 22.308764 17.219583 21.8125 16.5 C 21.316236 15.780417 20.996082 15.279066 21 14.6875 C 21.0039 14.095934 21.30982 13.166876 22.71875 11.6875 L 21.28125 10.3125 z" overflow="visible" font-family="Bitstream Vera Sans" fill="#000000"/></svg>
