<?xml version="1.0" encoding="utf-8"?>
<svg xmlns="http://www.w3.org/2000/svg" viewBox="0 0 32 32" fill="#000000"><path style="text-indent:0;text-align:start;line-height:normal;text-transform:none;block-progression:tb;-inkscape-font-specification:Sans" d="M 15 5 C 13.540717 5 12.382479 5.8875626 11.6875 7.0625 C 9.8666624 7.2118849 8.4312978 8.5695738 8.125 10.34375 C 6.9462217 10.749204 6 11.691446 6 13 L 5 13 L 4 13 L 4 14 L 4 26 L 4 27 L 5 27 L 27 27 L 28 27 L 28 26 L 28 14 L 28 13 L 27 13 L 26 13 C 26 11.132266 24.677666 9.6202519 22.9375 9.1875 C 22.768816 7.4191536 21.3097 6 19.5 6 C 18.903117 6 18.369486 6.2019064 17.875 6.46875 C 17.142858 5.6399321 16.188151 5 15 5 z M 15 7 C 15.812529 7 16.494727 7.4671853 16.8125 8.15625 L 17.40625 9.46875 L 18.4375 8.4375 C 18.710951 8.1586165 19.076117 8 19.5 8 C 20.340812 8 21 8.6591883 21 9.5 C 21 9.6036358 20.98911 9.7119399 20.96875 9.8125 L 20.71875 11 L 21.9375 11 L 22 11 C 23.116666 11 24 11.883334 24 13 L 8 13 C 8 12.43497 8.4349698 12 9 12 L 10 12 L 10 11 C 10 9.8833339 10.883334 9 12 9 C 11.90799 9 11.95242 9.019744 12.125 9.03125 L 12.875 9.0625 L 13.125 8.34375 C 13.398144 7.5591291 14.119206 7 15 7 z M 6 15 L 6.6875 15 L 25.53125 15 L 26 15 L 26 17 L 6 17 L 6 15 z M 6 19 L 26 19 L 26 21 L 6 21 L 6 19 z M 6 23 L 26 23 L 26 25 L 6 25 L 6 23 z" overflow="visible" font-family="Sans" fill="#000000"/></svg>
