<?xml version="1.0" encoding="utf-8"?>
<svg xmlns="http://www.w3.org/2000/svg" viewBox="0 0 32 32" fill="#000000"><path style="text-indent:0;text-align:start;line-height:normal;text-transform:none;block-progression:tb;-inkscape-font-specification:Sans" d="M 12.5 3 C 10.578812 3 9 4.5788117 9 6.5 C 9 8.4211883 10.578812 10 12.5 10 C 13.875775 10 15.054422 9.1652051 15.625 8 L 21 8 L 22 7 L 22 6 L 21 5 L 19 5 L 18 6 L 17 5 L 15.625 5 C 15.054422 3.8347949 13.875775 3 12.5 3 z M 12.5 5 C 12.675169 5 12.844915 5.0408471 13 5.09375 L 13 7.90625 C 12.844915 7.9591529 12.675169 8 12.5 8 C 11.659188 8 11 7.3408117 11 6.5 C 11 5.6591883 11.659188 5 12.5 5 z M 6 12 L 6 13 L 6 28 L 6 29 L 7 29 L 25 29 L 26 29 L 26 28 L 26 13 L 26 12 L 25 12 L 7 12 L 6 12 z M 8 14 L 24 14 L 24 27 L 8 27 L 8 14 z M 15.03125 15 C 13.927061 15 13 15.927061 13 17.03125 L 13 18 L 11 18 L 10 18 L 10 19 L 10 24 L 10 25 L 11 25 L 21 25 L 22 25 L 22 24 L 22 19 L 22 18 L 21 18 L 19 18 L 19 17.03125 C 19 15.927061 18.072939 15 16.96875 15 L 15.03125 15 z M 15.03125 17 L 16.96875 17 C 16.992561 17 17 17.007439 17 17.03125 L 17 18 L 15 18 L 15 17.03125 C 15 17.007439 15.007439 17 15.03125 17 z M 12 20 L 20 20 L 20 23 L 12 23 L 12 20 z" overflow="visible" font-family="Sans" fill="#000000"/></svg>
