<?xml version="1.0" encoding="utf-8"?>
<svg xmlns="http://www.w3.org/2000/svg" viewBox="0 0 32 32" fill="#000000"><path style="text-indent:0;text-align:start;line-height:normal;text-transform:none;block-progression:tb;-inkscape-font-specification:Bitstream Vera Sans" d="M 22 4 L 22 6 L 25.3125 6 L 22.40625 8.1875 L 22 8.5 L 22 9 L 22 10 L 22 11 L 23 11 L 28 11 L 28 9 L 24.6875 9 L 27.59375 6.8125 L 28 6.5 L 28 6 L 28 5 L 28 4 L 27 4 L 22 4 z M 15 6 L 15 8 L 17.03125 8 L 15.25 10.0625 L 15 10.34375 L 15 10.6875 L 15 11 L 15 12 L 16 12 L 20 12 L 20 10 L 17.90625 10 L 19.75 7.84375 L 20 7.5625 L 20 7.1875 L 20 7 L 20 6 L 19 6 L 15 6 z M 6.5 11 C 5.1166667 11 4 12.116667 4 13.5 L 4 27 L 4 28 L 5 28 L 8 28 L 9 28 L 9 27 L 9 26 L 23 26 L 23 27 L 23 28 L 24 28 L 27 28 L 28 28 L 28 27 L 28 21 L 28 20 L 28 17 C 28 15.354545 26.645455 14 25 14 L 14 14 L 13 14 L 13 14.5625 C 12.407407 14.214051 11.732431 14 11 14 C 10.267569 14 9.5925926 14.214051 9 14.5625 L 9 13.5 C 9 12.116667 7.8833333 11 6.5 11 z M 6.5 13 C 6.7166667 13 7 13.283333 7 13.5 L 7 21 L 7 22 L 8 22 L 26 22 L 26 26 L 25 26 L 25 25 L 25 24 L 24 24 L 8 24 L 7 24 L 7 25 L 7 26 L 6 26 L 6 13.5 C 6 13.283333 6.2833333 13 6.5 13 z M 11 16 C 12.116414 16 13 16.883586 13 18 C 13 19.116414 12.116414 20 11 20 C 9.883586 20 9 19.116414 9 18 C 9 16.883586 9.883586 16 11 16 z M 15 16 L 25 16 C 25.554545 16 26 16.445455 26 17 L 26 20 L 15 20 L 15 16 z" overflow="visible" font-family="Bitstream Vera Sans" fill="#000000"/></svg>
