<?xml version="1.0" encoding="utf-8"?>
<svg xmlns="http://www.w3.org/2000/svg" viewBox="0 0 32 32" fill="#000000"><path style="line-height:normal;text-indent:0;text-align:start;text-decoration-line:none;text-decoration-style:solid;text-decoration-color:#000;text-transform:none;block-progression:tb;isolation:auto;mix-blend-mode:normal" d="M 16 3.9023438 L 4 9.3554688 L 4 10 L 4 28 L 28 28 L 28 9.3554688 L 16 3.9023438 z M 16 6.0976562 L 26 10.644531 L 26 26 L 6 26 L 6 10.644531 L 16 6.0976562 z M 8 14 L 8 16 L 10.533203 16 L 8 20.222656 L 8 22 L 13 22 L 13 20 L 10.466797 20 L 13 15.777344 L 13 14 L 8 14 z M 15 14 L 15 22 L 17 22 L 17 14 L 15 14 z M 19 14 L 19 22 L 21 22 L 21 19 L 21.5 19 C 22.480869 19 23.173964 18.332692 23.582031 17.5 L 24 17.5 L 24 16.5 C 24 15.130937 22.869063 14 21.5 14 L 19 14 z M 21 16 L 21.5 16 C 21.786937 16 22 16.213063 22 16.5 C 22 16.786937 21.786937 17 21.5 17 L 21 17 L 21 16 z" font-weight="400" font-family="sans-serif" white-space="normal" overflow="visible" fill="#000000"/></svg>
