<?xml version="1.0" encoding="utf-8"?>
<svg xmlns="http://www.w3.org/2000/svg" viewBox="0 0 32 32" fill="#000000"><path style="text-indent:0;text-align:start;line-height:normal;text-transform:none;block-progression:tb;-inkscape-font-specification:Bitstream Vera Sans" d="M 4.28125 4.875 L 2.71875 6.125 C 2.71875 6.125 4.0043634 8 6.15625 8 C 7.0605484 8 7.7936997 7.6572999 8.34375 7.40625 C 8.8938003 7.1552001 9.2673802 7 9.625 7 C 10.438154 7 10.97017 7.1460791 11.3125 7.34375 C 11.336066 7.3608759 11.351224 7.3893641 11.375 7.40625 C 11.453447 7.4573329 11.536485 7.5096065 11.59375 7.5625 C 11.745678 7.7028297 11.842669 7.8651331 11.90625 8.03125 C 11.402943 8.0833708 11 8.4829099 11 9 C 11 9.4602372 11.326753 9.8210778 11.75 9.9375 C 11.714243 10.039586 11.695322 10.148506 11.65625 10.25 C 11.473811 10.723906 11.21875 11.295934 11.21875 12.0625 C 11.21875 13.198968 11.889341 14.083088 12.625 14.71875 C 13.360659 15.354412 14.197298 15.841381 15 16.4375 C 15.108906 16.556473 15.335436 16.778732 15.78125 17.0625 C 17.033126 18.132234 18 19.472587 18 22 C 18 23.051365 17.567514 24.481944 17.09375 25.59375 C 16.619986 26.705556 16.125 27.5 16.125 27.5 L 17.875 28.5 C 17.875 28.5 18.380014 27.609944 18.90625 26.375 C 19.432486 25.140056 20 23.561635 20 22 C 20 20.364021 19.594296 19.055282 19 17.96875 C 19.13734 17.975317 19.261789 18 19.40625 18 C 21.500716 18 23.001752 16.768865 24.0625 15.71875 C 24.592874 15.193692 25.047083 14.688398 25.40625 14.375 C 25.765417 14.061602 25.977312 14 26 14 C 26.656405 14 27.017558 14.333565 27.25 14.53125 L 27.53125 14.75 L 27.90625 14.75 L 28 14.75 L 29 14.75 L 29 13.75 C 29 12.770943 28.934746 11.440296 28.28125 10.21875 C 27.627754 8.9972045 26.244379 8 24.25 8 C 22.873503 8 20.576177 7.97789 18.28125 7.65625 C 15.986323 7.3346102 13.685303 6.6916066 12.34375 5.65625 C 11.637674 5.2367445 10.721947 5 9.625 5 C 8.7336198 5 8.0454497 5.3447999 7.5 5.59375 C 6.9545503 5.8427001 6.5449516 6 6.15625 6 C 5.3621366 6 4.28125 4.875 4.28125 4.875 z M 4.09375 8.46875 L 3.15625 10.25 C 3.15625 10.25 4.3943298 10.733287 6.125 10.90625 C 6.274077 11.97397 6.6083738 12.911166 7.125 13.625 C 7.7859036 14.538185 8.5879328 15.201515 9.3125 15.875 C 10.761634 17.22197 12 18.481875 12 22 L 14 22 C 14 17.953125 12.238366 15.84778 10.6875 14.40625 C 9.9120672 13.685485 9.2140964 13.078752 8.75 12.4375 C 8.2859036 11.796248 8 11.148978 8 10.03125 L 8 9.03125 L 7 9.03125 C 5.086135 9.03125 4.09375 8.46875 4.09375 8.46875 z M 14 8.71875 C 15.278484 9.1659096 16.649594 9.4357373 18 9.625 C 20.458823 9.9696102 22.849497 10 24.25 10 C 25.674621 10 26.157996 10.458546 26.53125 11.15625 C 26.563879 11.217242 26.607013 11.272641 26.625 11.34375 C 24.525714 10.905587 22.165672 11.141398 19.96875 11.15625 C 18.58292 11.16565 17.271359 11.09724 16.21875 10.84375 C 15.202395 10.598994 14.463225 10.195156 13.9375 9.53125 C 13.975827 9.2831786 13.992806 9.0085169 14 8.71875 z M 13.28125 11.6875 C 14.008894 12.240326 14.862031 12.598661 15.75 12.8125 C 17.08911 13.134982 18.525705 13.166006 19.96875 13.15625 C 21.28972 13.14732 22.597927 13.128676 23.8125 13.15625 C 23.423818 13.521671 23.040098 13.90125 22.65625 14.28125 C 21.696748 15.231135 20.717784 16 19.40625 16 C 18.225934 16 17.473793 15.727024 17 15.46875 C 16.934398 15.432989 16.927656 15.407464 16.875 15.375 C 16.64828 15.182443 16.411449 15.010064 16.1875 14.84375 C 15.291702 14.178494 14.444466 13.652557 13.90625 13.1875 C 13.368034 12.722443 13.21875 12.461532 13.21875 12.0625 C 13.21875 11.958683 13.243547 11.827719 13.28125 11.6875 z" overflow="visible" font-family="Bitstream Vera Sans" fill="#000000"/></svg>
