<?xml version="1.0" encoding="utf-8"?>
<svg xmlns="http://www.w3.org/2000/svg" viewBox="0 0 32 32" fill="#000000"><path style="text-indent:0;text-align:start;line-height:normal;text-transform:none;block-progression:tb;-inkscape-font-specification:Sans" d="M 20 3 C 18.35503 3 17 4.3550302 17 6 L 17 8.1875 C 16.684242 8.0732364 16.352983 8 16 8 C 14.937526 8 14.002321 8.5626655 13.46875 9.40625 C 13.032541 9.1574694 12.533567 9 12 9 C 10.937526 9 10.002321 9.5626655 9.46875 10.40625 C 9.0325409 10.157469 8.5335667 10 8 10 C 6.3550302 10 5 11.35503 5 13 L 5 15 L 5 22 C 5 25.854334 8.1456661 29 12 29 L 17.28125 29 C 20.348989 29 23.065719 26.994146 23.96875 24.0625 L 24.75 21.5625 L 24.75 21.53125 C 24.91893 20.966349 25.146664 19.914155 24.9375 18.71875 C 24.668912 17.185918 23.801562 16.21082 23 15.6875 L 23 6 C 23 4.3550302 21.64497 3 20 3 z M 20 5 C 20.56503 5 21 5.4349698 21 6 L 21 15 L 19 14.75 L 19 11 L 19 6 C 19 5.4349698 19.43497 5 20 5 z M 16 10 C 16.56503 10 17 10.43497 17 11 L 17 14.46875 L 15 14.21875 L 15 11 C 15 10.43497 15.43497 10 16 10 z M 12 11 C 12.56503 11 13 11.43497 13 12 L 13 14 L 13 14.4375 C 12.355998 14.725018 11.825009 15.23853 11.53125 15.90625 C 11.205942 15.743954 11 15.398176 11 15 L 11 13 L 11 12 C 11 11.43497 11.43497 11 12 11 z M 8 12 C 8.5650302 12 9 12.43497 9 13 L 9 15 C 9 15.56503 8.5650302 16 8 16 C 7.4349698 16 7 15.56503 7 15 L 7 14 L 7 13 C 7 12.43497 7.4349698 12 8 12 z M 14.125 16.15625 C 14.2483 16.135957 14.368153 16.124822 14.5 16.15625 L 14.53125 16.1875 L 14.59375 16.1875 L 21.03125 17.03125 L 21.0625 17.03125 L 21.09375 17.03125 C 21.09375 17.03125 21.40813 17.05187 21.84375 17.3125 C 22.27937 17.573134 22.749224 17.988007 22.9375 19.0625 C 23.058336 19.753095 22.89357 20.697651 22.8125 20.96875 L 22.0625 23.46875 C 21.415531 25.569104 19.479511 27 17.28125 27 L 12 27 C 9.2263339 27 7 24.773666 7 22 L 7 17.8125 C 7.3157581 17.926764 7.6470169 18 8 18 C 8.7668462 18 9.4670774 17.699798 10 17.21875 C 10.390025 17.57081 10.875433 17.827602 11.40625 17.9375 C 11.471316 18.157331 11.568374 18.363201 11.6875 18.5625 C 12.072996 19.207445 12.696378 19.667551 13.46875 19.9375 L 13.53125 19.96875 L 13.5625 19.96875 L 17.25 20.9375 L 16.96875 21.4375 L 18.71875 22.40625 L 19.625 20.75 L 20.21875 19.625 L 19 19.3125 L 14.15625 18.0625 C 13.712622 17.907449 13.505504 17.697305 13.40625 17.53125 C 13.307 17.365195 13.266692 17.198274 13.34375 16.875 C 13.438023 16.479505 13.755101 16.217128 14.125 16.15625 z" overflow="visible" font-family="Sans" fill="#000000"/></svg>
