<?xml version="1.0" encoding="utf-8"?>
<svg xmlns="http://www.w3.org/2000/svg" viewBox="0 0 32 32" fill="#000000"><path style="line-height:normal;text-indent:0;text-align:start;text-decoration-line:none;text-decoration-style:solid;text-decoration-color:#000;text-transform:none;block-progression:tb;isolation:auto;mix-blend-mode:normal" d="M 8.4667969 5 L 3.9667969 22 L 6.0351562 22 L 7.09375 18 L 11.882812 18 L 12.935547 22 L 15.003906 22 L 10.533203 5 L 8.4667969 5 z M 16.933594 5 L 18.992188 22 L 21.025391 22 L 22.5 15.511719 L 23.974609 22 L 26.007812 22 L 28.066406 5 L 26.052734 5 L 24.699219 16.164062 L 23.525391 11 L 21.474609 11 L 20.300781 16.164062 L 18.947266 5 L 16.933594 5 z M 9.4960938 8.921875 L 11.357422 16 L 7.6230469 16 L 9.4960938 8.921875 z M 4 24 L 4 27 L 15 27 L 15 24 L 13 24 L 13 25 L 6 25 L 6 24 L 4 24 z M 17 24 L 17 27 L 28 27 L 28 24 L 26 24 L 26 25 L 19 25 L 19 24 L 17 24 z" font-weight="400" font-family="sans-serif" white-space="normal" overflow="visible" fill="#000000"/></svg>
