<?xml version="1.0" encoding="utf-8"?>
<svg xmlns="http://www.w3.org/2000/svg" viewBox="0 0 32 32" fill="#000000"><path style="text-indent:0;text-align:start;line-height:normal;text-transform:none;block-progression:tb;-inkscape-font-specification:Bitstream Vera Sans" d="M 5 10 C 3.3550302 10 2 11.35503 2 13 L 0 13 L 0 15 L 2.03125 15 C 2.1491437 17.230583 2.6681907 19.286834 3.71875 20.90625 C 4.9251084 22.765827 6.9102061 24 9.40625 24 L 9.4375 24 C 12.002243 24 14.298257 22.444827 15.25 20.0625 L 15.5625 19.3125 C 15.635968 19.128501 15.802181 19 16 19 C 16.197819 19 16.364358 19.129646 16.4375 19.3125 L 16.75 20.0625 C 17.702692 22.445418 19.997757 24 22.5625 24 C 25.098126 24 27.115072 22.769534 28.3125 20.90625 C 29.355282 19.283606 29.855358 17.227444 29.96875 15 L 32 15 L 32 13 L 30 13 C 30 11.35503 28.64497 10 27 10 L 5 10 z M 5 12 L 27 12 C 27.56503 12 28 12.43497 28 13 L 28 14 C 28 16.346902 27.523072 18.415034 26.625 19.8125 C 25.726928 21.209966 24.494874 22 22.5625 22 C 20.809243 22 19.245058 20.941582 18.59375 19.3125 L 18.3125 18.5625 C 17.937642 17.625354 17.010181 17 16 17 C 14.989819 17 14.062032 17.624499 13.6875 18.5625 L 13.40625 19.3125 C 12.755993 20.940173 11.190757 22 9.4375 22 L 9.40625 22 C 7.5262939 22 6.3153916 21.213923 5.40625 19.8125 C 4.4971084 18.411077 4 16.340591 4 14 L 4 13 C 4 12.43497 4.4349698 12 5 12 z" overflow="visible" font-family="Bitstream Vera Sans" fill="#000000"/></svg>
