<?xml version="1.0" encoding="utf-8"?>
<svg xmlns="http://www.w3.org/2000/svg" viewBox="0 0 32 32" fill="#000000"><path style="text-indent:0;text-align:start;line-height:normal;text-transform:none;block-progression:tb;-inkscape-font-specification:Bitstream Vera Sans" d="M 2 6 L 2 7 L 2 25 L 2 26 L 3 26 L 29 26 L 30 26 L 30 25 L 30 7 L 30 6 L 29 6 L 3 6 L 2 6 z M 4 8 L 28 8 L 28 24 L 4 24 L 4 8 z M 16.8125 11.875 L 16.8125 19.28125 L 18.34375 19.28125 L 18.34375 11.875 L 16.8125 11.875 z M 11.71875 12.28125 L 9.15625 19.28125 L 10.875 19.28125 L 11.375 17.71875 L 13.84375 17.71875 L 14.34375 19.28125 L 16.0625 19.28125 L 13.59375 12.28125 L 11.71875 12.28125 z M 21.53125 12.75 L 20 13.1875 L 20 14.28125 L 19.1875 14.28125 L 19.1875 15.40625 L 20 15.40625 L 20 17.71875 C 20 18.84875 20.538 19.40625 21.625 19.40625 C 22.084 19.40625 22.42825 19.33875 22.65625 19.21875 L 22.65625 18.09375 C 22.48425 18.18875 22.31925 18.21875 22.15625 18.21875 C 21.74325 18.21875 21.53125 17.9585 21.53125 17.4375 L 21.53125 15.40625 L 22.65625 15.40625 L 22.65625 14.28125 L 21.53125 14.28125 L 21.53125 12.75 z M 12.59375 13.53125 L 12.625 13.53125 C 12.648 13.77525 12.695 13.98025 12.75 14.15625 L 13.5 16.5 L 11.71875 16.5 L 12.46875 14.125 C 12.53375 13.923 12.57775 13.73625 12.59375 13.53125 z" overflow="visible" font-family="Bitstream Vera Sans" fill="#000000"/></svg>
