<?xml version="1.0" encoding="utf-8"?>
<svg xmlns="http://www.w3.org/2000/svg" viewBox="0 0 32 32" fill="#000000"><path style="text-indent:0;text-align:start;line-height:normal;text-transform:none;block-progression:tb;-inkscape-font-specification:Bitstream Vera Sans" d="M 9 5 L 9 6 L 9 16 L 11 16 L 11 12 L 15 12 L 15 16 L 17 16 L 17 12 L 21 12 L 21 16 L 23 16 L 23 6 L 23 5 L 22 5 L 10 5 L 9 5 z M 11 7 L 21 7 L 21 10 L 11 10 L 11 7 z M 4 16 L 4 18 L 4 19 L 4.59375 19 C 4.3079879 19.949092 4 21.236111 4 22.5 C 4 24.585218 4.8195387 26.73223 5 27.1875 L 5 28 L 27 28 L 27 27.1875 C 27.180461 26.73223 28 24.585218 28 22.5 C 28 21.236111 27.692012 19.949092 27.40625 19 L 28 19 L 28 18 L 28 16 L 26 16 L 26 17 L 6 17 L 6 16 L 4 16 z M 6.71875 19 L 8.03125 19 C 7.8172426 19.948787 7.59375 21.183144 7.59375 22.5 C 7.59375 23.816856 7.8172426 25.051213 8.03125 26 L 6.71875 26 C 6.4683232 25.280934 6 23.801794 6 22.5 C 6 21.198206 6.4683232 19.719066 6.71875 19 z M 10.09375 19 L 11.59375 19 C 11.50187 19.92191 11.40625 21.172135 11.40625 22.5 C 11.40625 23.827865 11.50187 25.07809 11.59375 26 L 10.09375 26 C 9.9091797 25.227539 9.59375 23.825 9.59375 22.5 C 9.59375 21.175 9.9091797 19.772461 10.09375 19 z M 13.625 19 L 15 19 L 15 22.5 L 15 26 L 13.625 26 C 13.542414 25.155089 13.40625 23.834697 13.40625 22.5 C 13.40625 21.165303 13.542414 19.844911 13.625 19 z M 17 19 L 18.375 19 C 18.457586 19.844911 18.59375 21.165303 18.59375 22.5 C 18.59375 23.834697 18.457586 25.155089 18.375 26 L 17 26 L 17 22.5 L 17 19 z M 20.40625 19 L 21.90625 19 C 22.09082 19.772461 22.40625 21.175 22.40625 22.5 C 22.40625 23.825 22.09082 25.227539 21.90625 26 L 20.40625 26 C 20.49813 25.07809 20.59375 23.827865 20.59375 22.5 C 20.59375 21.172135 20.49813 19.92191 20.40625 19 z M 23.96875 19 L 25.28125 19 C 25.531677 19.719066 26 21.198206 26 22.5 C 26 23.801794 25.531677 25.280934 25.28125 26 L 23.96875 26 C 24.182757 25.051213 24.40625 23.816856 24.40625 22.5 C 24.40625 21.183144 24.182757 19.948787 23.96875 19 z" fill="#000000"/></svg>
