<?xml version="1.0" encoding="utf-8"?>
<svg xmlns="http://www.w3.org/2000/svg" viewBox="0 0 32 32" fill="#000000"><path style="text-indent:0;text-align:start;line-height:normal;text-transform:none;block-progression:tb;-inkscape-font-specification:Bitstream Vera Sans" d="M 16 4 C 13.802706 4 12 5.8027056 12 8 C 12 9.1142275 12.475261 10.116062 13.21875 10.84375 C 11.88816 11.744728 11 13.281553 11 15 L 11 20 L 11 20.625 L 11.5625 20.90625 L 13 21.625 L 13 27 L 13 28 L 14 28 L 18 28 L 19 28 L 19 27 L 19 21.625 L 20.4375 20.90625 L 21 20.625 L 21 20 L 21 15 C 21 13.281553 20.11184 11.744728 18.78125 10.84375 C 19.524739 10.116062 20 9.1142275 20 8 C 20 5.8027056 18.197294 4 16 4 z M 16 6 C 17.116414 6 18 6.883586 18 8 C 18 9.116414 17.116414 10 16 10 C 14.883586 10 14 9.116414 14 8 C 14 6.883586 14.883586 6 16 6 z M 16 12 C 17.668484 12 19 13.331516 19 15 L 19 19 L 13 19 L 13 15 C 13 13.331516 14.331516 12 16 12 z M 15 13 L 15 14 L 17 14 L 17 13 L 15 13 z M 15 15 L 15 16 L 17 16 L 17 15 L 15 15 z M 15 17 L 15 18 L 17 18 L 17 17 L 15 17 z M 15 22 L 17 22 L 17 26 L 15 26 L 15 22 z" overflow="visible" font-family="Bitstream Vera Sans" fill="#000000"/></svg>
