<?xml version="1.0" encoding="utf-8"?>
<svg xmlns="http://www.w3.org/2000/svg" viewBox="0 0 32 32" fill="#000000"><path d="M 5 10 C 5 10 5.1 10.4125 5 10.8125 C 4.9 11.2125 3.10625 19.2875 2.40625 22.1875 C 2.30625 22.6875 2 23 2 23 L 7.1875 23 C 9.0125769 23 10.75268 21.722064 11.9375 19.8125 C 11.608635 21.05128 11.09375 23 11.09375 23 L 13.59375 23 L 14.3125 20.40625 L 17.6875 20.40625 L 18.3125 23 L 21.6875 23 C 21.7875 23 17.90625 10.9875 17.90625 10.6875 C 17.80625 10.3875 17.90625 10 17.90625 10 L 14.1875 10 C 14.1875 10 14.4125 10.3875 14.3125 10.6875 C 14.3125 10.784768 13.923404 12.250629 13.46875 14 C 13.276322 9.8265003 9.2971324 10 9.6875 10 L 5 10 z M 19.21875 10 C 19.21875 10 19.524 10.21475 19.625 10.71875 C 19.726 11.02075 23.25 22.08025 23.25 22.28125 L 23.25 23 L 26.6875 23 C 26.6875 23 26.28125 22.30925 26.28125 21.90625 C 26.28125 21.50325 26.5625 20.6875 26.5625 20.6875 C 26.5625 20.6875 29.8125 10.92075 29.8125 10.71875 C 29.8125 10.61875 30 10 30 10 L 27.28125 10 C 27.28125 10 27.59375 10.41675 27.59375 10.71875 C 27.49275 11.02175 25.15625 18.875 25.15625 18.875 L 23.03125 10 L 19.21875 10 z M 8 11.90625 L 9 11.90625 C 9.3 11.90625 10.6875 11.9875 10.6875 14.6875 C 10.6875 17.3875 8.6875 21.09375 7.1875 21.09375 L 5.6875 21.09375 L 8 11.90625 z M 16 14.40625 L 17.3125 18.5 L 14.59375 18.5 L 16 14.40625 z" fill="#000000"/></svg>
