<?xml version="1.0" encoding="utf-8"?>
<svg xmlns="http://www.w3.org/2000/svg" viewBox="0 0 32 32" fill="#000000"><path d="M 20.46875 4 C 17.827092 4 16.648891 5.4300585 16.1875 6.0625 C 11.325169 6.2068857 8.1598412 8.5005734 6.375 10.96875 C 5.4537005 12.242774 4.8616652 13.520446 4.5 14.59375 C 4.1383348 15.667054 4 16.42733 4 17 L 6 17 C 6 16.96917 6.0979777 16.164852 6.40625 15.25 C 6.7145223 14.335148 7.2225495 13.200101 8 12.125 C 9.554901 9.9747973 12.095228 8 16.625 8 L 17.21875 8 L 17.5 7.46875 C 17.5 7.46875 17.960024 6.5693137 19.28125 6.1875 C 19.140545 6.814362 19 7.0724537 19 8 L 19 8.40625 L 19.28125 8.71875 C 19.28125 8.71875 21.138536 10.545799 21.53125 10.9375 C 22.039789 11.445005 21.964084 11.802035 22.21875 12.84375 C 22.473416 13.885465 23.065345 15.305683 24.78125 16.96875 L 25 17.15625 L 25.28125 17.21875 C 25.47939 17.25842 25.640784 17.376921 25.78125 17.59375 C 25.921716 17.810579 26 18.128876 26 18.375 L 26 19.53125 C 25.733745 19.73407 25.249217 20 24.34375 20 C 23.775639 20 23.518883 19.739419 23.28125 19.40625 C 23.043617 19.073081 22.96875 18.75 22.96875 18.75 L 22.71875 17.78125 L 21.75 18.03125 C 21.75 18.03125 20.948491 18.225672 20.0625 18.125 C 19.176509 18.024328 18.391769 17.753528 17.9375 16.625 L 17.46875 15.46875 L 16.4375 16.15625 C 15.435987 16.829009 14.766666 17.618448 14.40625 18.46875 C 14.045834 19.319052 14 20.175013 14 21.03125 C 14 22.351613 14.290461 23.245467 14.53125 24.15625 C 14.772039 25.067033 15 26.076563 15 28 L 17 28 C 17 25.910437 16.727961 24.605467 16.46875 23.625 C 16.209539 22.644533 16 22.068887 16 21.03125 C 16 20.268487 16.05367 19.713198 16.25 19.25 C 16.358349 18.994379 16.726168 18.725711 16.96875 18.46875 C 17.821898 19.416367 18.884593 20.016015 19.84375 20.125 C 20.695432 20.22177 20.975222 20.10839 21.40625 20.03125 C 21.506428 20.261415 21.45873 20.316818 21.65625 20.59375 C 22.131867 21.260581 23.056861 22 24.34375 22 C 26.434369 22 27.71875 20.6875 27.71875 20.6875 L 28 20.40625 L 28 20 L 28 18.375 C 28 17.731124 27.809784 17.074671 27.4375 16.5 C 27.159067 16.0702 26.645786 15.830525 26.125 15.59375 L 26.1875 15.53125 C 24.688405 14.078317 24.357334 13.197535 24.15625 12.375 C 23.955166 11.552465 23.904961 10.496745 22.9375 9.53125 C 22.926779 9.520557 22.887443 9.481234 22.875 9.46875 L 27.25 4.9375 L 26.78125 4.375 L 21.5 8.0625 C 21.345911 7.905746 21.157977 7.7206245 21.0625 7.625 C 21.15011 6.5258847 21.4375 5.28125 21.4375 5.28125 L 21.8125 4 L 20.46875 4 z M 20.90625 12.46875 C 20.501977 12.46875 20.15625 12.814477 20.15625 13.21875 C 20.15625 13.623022 20.501977 13.9375 20.90625 13.9375 C 21.310522 13.9375 21.625 13.623022 21.625 13.21875 C 21.625 12.814477 21.310522 12.46875 20.90625 12.46875 z" fill="#000000"/></svg>
