<?xml version="1.0" encoding="utf-8"?>
<svg xmlns="http://www.w3.org/2000/svg" viewBox="0 0 32 32" fill="#000000"><path style="text-indent:0;text-align:start;line-height:normal;text-transform:none;block-progression:tb;-inkscape-font-specification:Sans" d="M 9.5 4 C 7.578848 4 6 5.578848 6 7.5 C 6 9.421152 7.578848 11 9.5 11 C 11.421152 11 13 9.4211519 13 7.5 C 13 5.5788481 11.421152 4 9.5 4 z M 24.5 4 C 22.578848 4 21 5.5788481 21 7.5 C 21 9.4211519 22.578848 11 24.5 11 C 26.421152 11 28 9.4211519 28 7.5 C 28 5.5788481 26.421152 4 24.5 4 z M 9.5 6 C 10.340272 6 11 6.6597281 11 7.5 C 11 8.3402719 10.340272 9 9.5 9 C 8.6597282 9 8 8.3402718 8 7.5 C 8 6.6597282 8.6597282 6 9.5 6 z M 24.5 6 C 25.340272 6 26 6.6597281 26 7.5 C 26 8.3402719 25.340272 9 24.5 9 C 23.659728 9 23 8.3402719 23 7.5 C 23 6.6597281 23.659728 6 24.5 6 z M 16 10 L 16 14.25 L 14.34375 15.46875 L 13.71875 14.21875 C 13.042194 12.865638 11.669011 12 10.15625 12 L 9 12 C 6.8026661 12 5 13.802666 5 16 L 5 19 L 4 19 L 4 20 L 4 21 L 4 28 L 6 28 L 6 21 L 15 21 L 15 28 L 17 28 L 17 20.5 L 20.59375 17.8125 L 20.78125 17.65625 L 20.90625 17.4375 L 22.03125 15.15625 L 22.0625 15.09375 C 22.401944 14.414862 23.084511 14 23.84375 14 L 25 14 C 26.116666 14 27 14.883334 27 16 L 27 20.03125 L 25.5625 20.75 L 25 21 L 25 21.625 L 25 28 L 27 28 L 27 22.25 L 28.4375 21.53125 L 29 21.25 L 29 20.625 L 29 16 C 29 13.802666 27.197334 12 25 12 L 23.84375 12 C 22.330989 12 20.957806 12.865638 20.28125 14.21875 L 19.21875 16.34375 L 15.65625 19 L 7 19 L 7 16 C 7 14.883334 7.8833339 14 9 14 L 10.15625 14 C 10.915489 14 11.598056 14.414862 11.9375 15.09375 L 13.09375 17.4375 L 13.65625 18.53125 L 14.59375 17.8125 L 18.34375 15 L 19 15 L 19 10 L 16 10 z M 22 21 L 22 28 L 24 28 L 24 21 L 22 21 z" fill="#000000"/></svg>
