<?xml version="1.0" encoding="utf-8"?>
<svg xmlns="http://www.w3.org/2000/svg" viewBox="0 0 32 32" fill="#000000"><path d="M 3.9980469 4 C 3.7417969 4 3.4874688 4.0984688 3.2929688 4.2929688 C 2.9039687 4.6819688 2.9039687 5.3160781 3.2929688 5.7050781 L 5.9824219 8.3964844 L 4.2929688 10.085938 C 3.9039688 10.474937 3.9039687 11.111 4.2929688 11.5 C 4.6819688 11.889 5.3160781 11.889 5.7050781 11.5 L 6.578125 10.626953 L 7.90625 12.066406 C 7.5367542 12.823745 7.2656385 13.636864 7.125 14.494141 C 6.797535 16.486132 7.184566 18.377506 8 20.003906 L 8 21 C 8 21.698916 8.2545726 22.337069 8.6621094 22.849609 L 4 28 C 7.3271823 27.503456 9.7156213 26.382197 11.328125 25.326172 C 11.822757 26.310457 12.832548 27 14 27 L 18 27 C 19.167452 27 20.177243 26.310457 20.671875 25.326172 C 22.284379 26.382197 24.672818 27.503456 28 28 L 23.337891 22.849609 C 23.659021 22.445738 23.87819 21.963943 23.957031 21.433594 C 24.835142 22.256801 26 23 26 23 L 26 21.939453 C 26 20.624453 27 20.259 27 19 C 27 16.875621 25.583337 15.556571 24.949219 15.068359 C 24.838445 14.003598 24.535523 12.996783 24.083984 12.074219 L 25.421875 10.626953 L 26.294922 11.5 C 26.683922 11.889 27.318031 11.889 27.707031 11.5 C 28.096031 11.111 28.096031 10.474937 27.707031 10.085938 L 26.017578 8.3964844 L 28.707031 5.7050781 C 29.096031 5.3160781 29.096031 4.6819687 28.707031 4.2929688 C 28.318031 3.9039687 27.683922 3.9039687 27.294922 4.2929688 L 24.603516 6.9824219 L 22.914062 5.2929688 C 22.525062 4.9039687 21.889 4.9039687 21.5 5.2929688 C 21.111 5.6819688 21.111 6.3160781 21.5 6.7050781 L 22.427734 7.6328125 L 21.373047 8.796875 C 19.611301 7.4790042 17.357484 6.7862695 14.949219 7.0605469 C 13.346432 7.2428174 11.864324 7.8635086 10.621094 8.7929688 L 9.5722656 7.6328125 L 10.5 6.7050781 C 10.889 6.3160781 10.889 5.6819688 10.5 5.2929688 C 10.111 4.9039687 9.4749375 4.9039687 9.0859375 5.2929688 L 7.3964844 6.9824219 L 4.7050781 4.2929688 C 4.5105781 4.0984688 4.2542969 4 3.9980469 4 z M 15.966797 9 C 18.500197 8.9846844 20.699995 10.302501 21.9375 12.289062 C 20.827883 11.725557 18.852279 11 16 11 C 13.178976 11 11.219939 11.708756 10.103516 12.269531 C 11.216577 10.531197 13.068295 9.2865405 15.175781 9.046875 C 15.442365 9.0165138 15.706429 9.001574 15.966797 9 z M 9.0761719 15 L 16 15 L 22.921875 15 C 22.96823 15.327277 23 15.659546 23 16 C 23 17.23116 22.681804 18.380592 22.125 19.384766 L 22 19.611328 L 22 21 C 22 21.56503 21.56503 22 21 22 L 19 22 L 19 24 C 19 24.56503 18.56503 25 18 25 L 14 25 C 13.43497 25 13 24.56503 13 24 L 13 22 L 11 22 C 10.43497 22 10 21.56503 10 21 L 10 19.611328 L 9.875 19.384766 C 9.1701438 18.112648 8.8515364 16.611603 9.0761719 15 z M 13 16 A 2 2 0 0 0 11 18 A 2 2 0 0 0 13 20 A 2 2 0 0 0 15 18 A 2 2 0 0 0 13 16 z M 19 16 A 2 2 0 0 0 17 18 A 2 2 0 0 0 19 20 A 2 2 0 0 0 21 18 A 2 2 0 0 0 19 16 z M 15 21 L 15 23 L 17 23 L 17 21 L 15 21 z" fill="#000000"/></svg>
