<?xml version="1.0" encoding="utf-8"?>
<svg xmlns="http://www.w3.org/2000/svg" viewBox="0 0 32 32" fill="#000000"><path style="text-indent:0;text-align:start;line-height:normal;text-transform:none;block-progression:tb;-inkscape-font-specification:Sans" d="M 9 4 L 9 5 L 9 9 L 5 9 L 4 9 L 4 10 L 4 14 L 4 15 L 5 15 L 9 15 L 9 17 L 5 17 L 4 17 L 4 18 L 4 22 L 4 23 L 5 23 L 9 23 L 9 27 L 9 28 L 10 28 L 14 28 L 15 28 L 15 27 L 15 23 L 17 23 L 17 27 L 17 28 L 18 28 L 22 28 L 23 28 L 23 27 L 23 23 L 27 23 L 28 23 L 28 22 L 28 18 L 28 17 L 27 17 L 23 17 L 23 15 L 27 15 L 28 15 L 28 14 L 28 10 L 28 9 L 27 9 L 23 9 L 23 5 L 23 4 L 22 4 L 18 4 L 17 4 L 17 5 L 17 9 L 15 9 L 15 5 L 15 4 L 14 4 L 10 4 L 9 4 z M 11 6 L 13 6 L 13 10 L 13 11 L 14 11 L 18 11 L 19 11 L 19 10 L 19 6 L 21 6 L 21 10 L 21 11 L 22 11 L 26 11 L 26 13 L 22 13 L 21 13 L 21 14 L 21 18 L 21 19 L 22 19 L 26 19 L 26 21 L 22 21 L 21 21 L 21 22 L 21 26 L 19 26 L 19 22 L 19 21 L 18 21 L 14 21 L 13 21 L 13 22 L 13 26 L 11 26 L 11 22 L 11 21 L 10 21 L 6 21 L 6 19 L 10 19 L 11 19 L 11 18 L 11 14 L 11 13 L 10 13 L 6 13 L 6 11 L 10 11 L 11 11 L 11 10 L 11 6 z M 13 13 L 13 14 L 13 18 L 13 19 L 14 19 L 18 19 L 19 19 L 19 18 L 19 14 L 19 13 L 18 13 L 14 13 L 13 13 z M 15 15 L 17 15 L 17 17 L 15 17 L 15 15 z" overflow="visible" font-family="Sans" fill="#000000"/></svg>
