<?xml version="1.0" encoding="utf-8"?>
<svg xmlns="http://www.w3.org/2000/svg" viewBox="0 0 32 32" fill="#000000"><path style="text-indent:0;text-align:start;line-height:normal;text-transform:none;block-progression:tb;-inkscape-font-specification:Sans" d="M 9 4 L 9 5 L 6 5 L 5 5 L 5 6 L 5 26 L 5 27 L 6 27 L 26 27 L 27 27 L 27 26 L 27 6 L 27 5 L 26 5 L 23 5 L 23 4 L 21 4 L 21 5 L 11 5 L 11 4 L 9 4 z M 7 7 L 9 7 L 9 8 L 11 8 L 11 7 L 21 7 L 21 8 L 23 8 L 23 7 L 25 7 L 25 9 L 7 9 L 7 7 z M 7 11 L 25 11 L 25 25 L 7 25 L 7 11 z M 11 14 L 11 16 L 12 16 L 12 22 L 14 22 L 14 16 L 15 16 L 15 14 L 11 14 z M 16 14 L 16 19.5 C 16 20.869063 17.130937 22 18.5 22 C 19.869063 22 21 20.869063 21 19.5 L 21 14 L 19 14 L 19 19.5 C 19 19.786937 18.786937 20 18.5 20 C 18.213063 20 18 19.786937 18 19.5 L 18 14 L 16 14 z" fill="#000000"/></svg>
