<?xml version="1.0" encoding="utf-8"?>
<svg xmlns="http://www.w3.org/2000/svg" viewBox="0 0 32 32" fill="#000000"><path style="text-indent:0;text-align:start;line-height:normal;text-transform:none;block-progression:tb;-inkscape-font-specification:Sans" d="M 5 3 L 5 4 L 5 28 L 5 29 L 6 29 L 21 29 L 21.40625 29 L 21.71875 28.71875 L 26.71875 23.71875 L 27 23.40625 L 27 23 L 27 4 L 27 3 L 26 3 L 6 3 L 5 3 z M 7 5 L 25 5 L 25 22 L 21 22 L 20 22 L 20 23 L 20 27 L 7 27 L 7 5 z M 16 6 C 15.447715 6 15 6.4477153 15 7 C 15 7.5522847 15.447715 8 16 8 C 16.552285 8 17 7.5522847 17 7 C 17 6.4477153 16.552285 6 16 6 z M 8 9 L 8 10 L 8 25 L 8 26 L 9 26 L 19 26 L 19 24 L 10 24 L 10 11 L 22 11 L 22 21 L 24 21 L 24 10 L 24 9 L 23 9 L 9 9 L 8 9 z M 22 24 L 23.5625 24 L 22 25.5625 L 22 24 z" overflow="visible" font-family="Sans" fill="#000000"/></svg>
