<?xml version="1.0" encoding="utf-8"?>
<svg xmlns="http://www.w3.org/2000/svg" viewBox="0 0 32 32" fill="#000000"><path style="text-indent:0;text-align:start;line-height:normal;text-transform:none;block-progression:tb;-inkscape-font-specification:Sans" d="M 10 7 L 10 8 L 10 10 L 5 10 L 4 10 L 4 11 L 4 24 L 4 25 L 5 25 L 27 25 L 28 25 L 28 24 L 28 11 L 28 10 L 27 10 L 22 10 L 22 8 L 22 7 L 21 7 L 11 7 L 10 7 z M 12 9 L 20 9 L 20 11 L 20 12 L 21 12 L 26 12 L 26 23 L 6 23 L 6 12 L 11 12 L 12 12 L 12 11 L 12 9 z M 16 12 C 13.250421 12 11 14.250421 11 17 C 11 19.749579 13.250421 22 16 22 C 18.749579 22 21 19.749579 21 17 C 21 14.250421 18.749579 12 16 12 z M 24 13 C 23.447715 13 23 13.447715 23 14 C 23 14.552285 23.447715 15 24 15 C 24.552285 15 25 14.552285 25 14 C 25 13.447715 24.552285 13 24 13 z M 16 14 C 17.668699 14 19 15.331301 19 17 C 19 18.668699 17.668699 20 16 20 C 14.331301 20 13 18.668699 13 17 C 13 15.331301 14.331301 14 16 14 z" overflow="visible" font-family="Sans" fill="#000000"/></svg>
