<?xml version="1.0" encoding="utf-8"?>
<svg xmlns="http://www.w3.org/2000/svg" viewBox="0 0 32 32" fill="#000000"><path style="text-indent:0;text-align:start;line-height:normal;text-transform:none;block-progression:tb;-inkscape-font-specification:Sans" d="M 16 3 C 11.590975 3 8 6.6084551 8 11.03125 C 8 13.242647 8.8517833 15.835434 10.21875 18 C 11.358402 19.804616 12.904618 21.369552 14.8125 21.84375 C 14.759192 21.956348 14.696852 22.059065 14.625 22.1875 C 14.394048 22.600328 14 23.171791 14 24 C 14 25.155303 14.808171 25.766727 15.3125 26.25 C 15.564664 26.491636 15.788984 26.691724 15.90625 26.84375 C 16.023516 26.995776 16 27.055513 16 27 C 16 27.682692 15.03125 28.3125 15.03125 28.3125 L 15.96875 30.09375 C 15.96875 30.09375 18 29.113308 18 27 C 18 26.419987 17.726484 25.95913 17.46875 25.625 C 17.211016 25.29087 16.935336 25.049989 16.6875 24.8125 C 16.191829 24.337523 16 23.962697 16 24 C 16 23.861209 16.105952 23.668422 16.375 23.1875 C 16.551868 22.87135 16.748832 22.437198 16.875 21.90625 C 18.928249 21.535863 20.579324 19.903226 21.78125 18 C 23.148217 15.835434 24 13.242647 24 11.03125 C 24 6.6093166 20.409197 3 16 3 z M 16 5 C 19.322803 5 22 7.6851834 22 11.03125 C 22 12.704853 21.260283 15.090316 20.09375 16.9375 C 18.927217 18.784684 17.408685 20 16 20 C 14.591315 20 13.072783 18.784684 11.90625 16.9375 C 10.739717 15.090316 10 12.704853 10 11.03125 C 10 7.6840449 12.677025 5 16 5 z" overflow="visible" font-family="Sans" fill="#000000"/></svg>
