<?xml version="1.0" encoding="utf-8"?>
<svg xmlns="http://www.w3.org/2000/svg" viewBox="0 0 32 32" fill="#000000"><path style="text-indent:0;text-align:start;line-height:normal;text-transform:none;block-progression:tb;-inkscape-font-specification:Bitstream Vera Sans" d="M 16 4 L 3 7 L 3 9 L 16 6 L 29 9 L 29 7 L 16 4 z M 10 10 C 6.7729384 10 3.625 11.3125 3.625 11.3125 L 3 11.59375 L 3 12.25 L 3 25.46875 L 3 26.96875 L 3 27 L 14.28125 27 C 14.627196 27.596897 15.260107 28 16 28 C 16.739893 28 17.372804 27.596897 17.71875 27 L 29 27 L 29 26.96875 L 29 25.46875 L 29 12.25 L 29 11.59375 L 28.375 11.3125 C 28.375 11.3125 25.227062 10 22 10 C 19.080278 10 16.517877 10.980991 16 11.1875 C 15.482123 10.980991 12.919722 10 10 10 z M 10 12 C 11.933413 12 13.999795 12.625938 15 12.96875 L 15 24.09375 C 13.887962 23.724721 12.057028 23.21875 10 23.21875 C 7.8969385 23.21875 6.1875284 23.70191 5 24.09375 L 5 12.96875 C 5.7681164 12.690045 7.8008862 12 10 12 z M 22 12 C 24.199114 12 26.231884 12.690045 27 12.96875 L 27 24.09375 C 25.812472 23.70191 24.103061 23.21875 22 23.21875 C 19.942972 23.21875 18.112038 23.724721 17 24.09375 L 17 12.96875 C 18.000205 12.625938 20.066587 12 22 12 z" overflow="visible" font-family="Bitstream Vera Sans" fill="#000000"/></svg>
