<?xml version="1.0" encoding="utf-8"?>
<svg xmlns="http://www.w3.org/2000/svg" viewBox="0 0 32 32" fill="#000000"><path style="text-indent:0;text-align:start;line-height:normal;text-transform:none;block-progression:tb;-inkscape-font-specification:Sans" d="M 5 5 L 5 6 L 5 26 L 5 27 L 6 27 L 26 27 L 27 27 L 27 26 L 27 6 L 27 5 L 26 5 L 6 5 L 5 5 z M 7 7 L 25 7 L 25 25 L 7 25 L 7 7 z M 12 9 L 12 10 L 12 13 L 10 13 L 9 13 L 9 14 L 9 22 L 9 23 L 10 23 L 19 23 L 20 23 L 20 22 L 20 19 L 22 19 L 23 19 L 23 18 L 23 10 L 23 9 L 22 9 L 13 9 L 12 9 z M 14 11 L 21 11 L 21 12 L 14 12 L 14 11 z M 14 14 L 21 14 L 21 17 L 14 17 L 14 14 z M 11 15 L 12 15 L 12 16.03125 L 11 16.03125 L 11 15 z M 11 18.03125 L 12 18.03125 L 12 19 L 13 19 L 18 19 L 18 21 L 11 21 L 11 18.03125 z" overflow="visible" font-family="Sans" fill="#000000"/></svg>
