<?xml version="1.0" encoding="utf-8"?>
<svg xmlns="http://www.w3.org/2000/svg" viewBox="0 0 32 32" fill="#000000"><path style="text-indent:0;text-align:start;line-height:normal;text-transform:none;block-progression:tb;-inkscape-font-specification:Sans" d="M 12.375 4 C 11.825079 4 11.225283 4.1967064 10.75 4.65625 C 10.274717 5.1157936 10 5.8195605 10 6.625 C 10 7.6381117 10.377643 8.6739673 10.875 9.75 C 11.372357 10.826033 12.016489 11.925078 12.65625 12.9375 C 12.761251 13.103663 12.864414 13.24607 12.96875 13.40625 C 12.904498 13.382496 12.846111 13.367398 12.78125 13.34375 C 11.656112 12.933539 10.438319 12.538874 9.28125 12.28125 C 8.1241806 12.023626 7.0524539 11.878952 6.0625 12.09375 C 5.2555385 12.269358 4.6137624 12.734274 4.28125 13.3125 C 3.9487376 13.890726 3.9142941 14.524852 4.03125 15.0625 C 4.2219009 15.939776 4.6914849 16.498737 5.03125 16.9375 C 5.3710151 17.376263 5.6194622 17.710973 5.75 18.3125 C 5.8808459 18.913339 5.78689 19.234791 5.65625 19.78125 C 5.5256096 20.327709 5.3279085 21.127785 5.53125 22.0625 C 5.648053 22.599445 5.9813194 23.132788 6.53125 23.5 C 7.0811806 23.867212 7.8378014 23.983807 8.625 23.8125 C 9.6150462 23.597333 10.522829 23.027051 11.46875 22.3125 C 12.414671 21.597949 13.365245 20.715198 14.21875 19.875 C 14.501429 19.596729 14.74259 19.32807 15 19.0625 L 15 20 C 15 22.141015 15.145605 24.039761 16.03125 25.5625 C 16.916895 27.085239 18.638913 28 21 28 L 21 26 C 19.080087 26 18.294105 25.498011 17.75 24.5625 C 17.205895 23.626989 17 22.025985 17 20 L 17 19.0625 C 17.340907 19.413412 17.618232 19.722889 18 20.09375 C 19.668002 21.714098 21.472295 23.398899 23.375 23.8125 C 24.162199 23.983807 24.918819 23.86721 25.46875 23.5 C 26.018681 23.132788 26.351947 22.599445 26.46875 22.0625 C 26.672091 21.127785 26.47435 20.327709 26.34375 19.78125 C 26.215878 19.24637 26.130743 18.921355 26.25 18.34375 L 26.25 18.3125 C 26.380936 17.711248 26.628988 17.376294 26.96875 16.9375 C 27.308512 16.498706 27.778153 15.939526 27.96875 15.0625 C 28.085706 14.524852 28.05126 13.890726 27.71875 13.3125 C 27.386238 12.734274 26.744462 12.269358 25.9375 12.09375 C 24.947453 11.878583 23.875945 12.02377 22.71875 12.28125 C 21.561555 12.53873 20.312774 12.9336 19.1875 13.34375 C 19.132192 13.363909 19.086081 13.386011 19.03125 13.40625 C 19.135587 13.246076 19.238748 13.103655 19.34375 12.9375 C 19.983518 11.925131 20.627636 10.826097 21.125 9.75 C 21.622364 8.6739033 22 7.638263 22 6.625 C 22 5.799026 21.681965 5.0726093 21.1875 4.625 C 20.693035 4.1773907 20.081171 4 19.53125 4 C 18.633584 4 17.969555 4.3548823 17.46875 4.59375 C 16.967945 4.8326177 16.615474 5 16 5 C 15.384526 5 15.068889 4.8373855 14.5625 4.59375 C 14.056111 4.3501145 13.331252 4 12.375 4 z M 12.375 6 C 12.876748 6 13.160889 6.1528855 13.6875 6.40625 C 14.214111 6.6596145 14.979474 7 16 7 C 17.020526 7 17.802555 6.6643823 18.34375 6.40625 C 18.884945 6.1481177 19.152916 6 19.53125 6 C 19.61133 6 19.765715 6.054359 19.84375 6.125 C 19.921785 6.1956407 20 6.265974 20 6.625 C 20 7.064737 19.752636 7.9539717 19.3125 8.90625 C 18.872364 9.8585283 18.266482 10.909369 17.65625 11.875 C 16.827713 13.186076 16.448019 13.646067 16 14.25 C 15.551975 13.645978 15.172296 13.186174 14.34375 11.875 C 13.733511 10.909297 13.127643 9.8584985 12.6875 8.90625 C 12.247357 7.9540015 12 7.0643883 12 6.625 C 12 6.2454395 12.095533 6.1524564 12.15625 6.09375 C 12.216967 6.0350436 12.294921 6 12.375 6 z M 6.90625 14.03125 C 7.3858289 14.017441 8.0757317 14.079 8.84375 14.25 C 9.8677744 14.478001 11.051763 14.827461 12.125 15.21875 C 13.574516 15.747225 14.093073 16.033154 14.78125 16.34375 C 14.283927 16.912057 13.911842 17.386548 12.8125 18.46875 C 11.99838 19.270177 11.08711 20.086395 10.25 20.71875 C 9.4128902 21.351105 8.6169538 21.781667 8.1875 21.875 C 7.8166986 21.955693 7.6950694 21.890538 7.625 21.84375 C 7.5549306 21.796962 7.517197 21.704055 7.5 21.625 C 7.3933415 21.134715 7.4578904 20.818291 7.59375 20.25 C 7.7296096 19.681709 7.9046541 18.872161 7.6875 17.875 C 7.4710378 16.877527 6.9922349 16.192987 6.625 15.71875 C 6.2577651 15.244513 6.0490991 14.994724 5.96875 14.625 C 5.951706 14.54665 5.978762 14.403774 6.03125 14.3125 C 6.083738 14.22123 6.1489615 14.138892 6.5 14.0625 C 6.6073865 14.0392 6.7463904 14.035853 6.90625 14.03125 z M 24.53125 14.03125 C 24.943307 14.001191 25.285273 14.015834 25.5 14.0625 C 25.851038 14.13889 25.916262 14.221226 25.96875 14.3125 C 26.02124 14.40377 26.04829 14.546648 26.03125 14.625 C 25.95085 14.994974 25.741988 15.244794 25.375 15.71875 C 25.008012 16.192706 24.529564 16.878252 24.3125 17.875 C 24.095346 18.872161 24.27039 19.681709 24.40625 20.25 C 24.54211 20.818291 24.606659 21.134715 24.5 21.625 C 24.4828 21.70406 24.44507 21.796962 24.375 21.84375 C 24.30493 21.89054 24.183301 21.955693 23.8125 21.875 C 22.987205 21.695601 20.962248 20.198152 19.375 18.65625 C 18.267767 17.58065 17.769728 16.969149 17.21875 16.34375 C 17.907014 16.033164 18.42533 15.747139 19.875 15.21875 C 20.948351 14.827525 22.100913 14.477863 23.125 14.25 C 23.637044 14.136069 24.119193 14.061309 24.53125 14.03125 z" overflow="visible" font-family="Sans" fill="#000000"/></svg>
