<?xml version="1.0" encoding="utf-8"?>
<svg xmlns="http://www.w3.org/2000/svg" viewBox="0 0 32 32" fill="#000000"><path style="text-indent:0;text-align:start;line-height:normal;text-transform:none;block-progression:tb;-inkscape-font-specification:Bitstream Vera Sans" d="M 18 4 C 16.533091 4 15.411108 4.9086629 14.71875 6.09375 C 14.480781 6.0613806 14.255967 6 14 6 C 10.698375 6 8 8.6983746 8 12 C 8 12.373611 8.0898626 12.698405 8.15625 13.03125 C 7.4868894 13.666692 7 14.505578 7 15.5 C 7 16.281098 7.3157459 16.951793 7.75 17.53125 C 7.3173186 18.264105 7 19.080965 7 20 C 7 21.015835 7.2864446 21.958729 7.8125 22.75 L 3.28125 27.28125 L 4.71875 28.71875 L 9.25 24.1875 C 10.041271 24.713555 10.984165 25 12 25 C 13.323268 25 14.454902 24.402505 15.34375 23.5625 C 15.872861 23.762847 16.388279 24 17 24 C 17.17228 24 17.332724 23.986115 17.5 23.96875 C 17.734526 23.944734 17.963465 23.899377 18.1875 23.84375 C 18.443318 23.778626 18.699899 23.697657 18.9375 23.59375 C 19.012123 23.562041 19.083506 23.535188 19.15625 23.5 C 19.243656 23.456669 19.321876 23.39209 19.40625 23.34375 C 20.382957 22.796836 21.158929 21.946505 21.59375 20.90625 C 21.732356 20.930227 21.852563 21 22 21 C 24.197334 21 26 19.197334 26 17 C 26 16.839029 25.9566 16.710019 25.9375 16.5625 C 26.553492 15.863735 27 15.008724 27 14 C 27 13.397804 26.708427 12.914644 26.46875 12.40625 C 27.347678 11.508718 28 10.356572 28 9 C 28 6.2504839 25.749516 4 23 4 C 22.02772 4 21.169413 4.3577832 20.40625 4.84375 C 19.895555 4.4511497 19.315863 4.171899 18.65625 4.0625 C 18.44631 4.0195998 18.224278 4 18 4 z M 18 6 C 18.153522 6 18.294395 6.0298805 18.4375 6.0625 C 18.554524 6.0884456 18.67332 6.1111328 18.78125 6.15625 C 18.80266 6.1655713 18.822728 6.1774406 18.84375 6.1875 C 18.940439 6.2319575 19.037672 6.2850947 19.125 6.34375 C 19.136586 6.3517988 19.144832 6.3667062 19.15625 6.375 C 19.248513 6.4400704 19.32671 6.5142098 19.40625 6.59375 C 19.446948 6.6347207 19.493829 6.6742529 19.53125 6.71875 C 19.819533 7.0648177 20 7.5071267 20 8 C 20 8.4396258 19.860996 8.8282559 19.625 9.15625 L 21.25 10.34375 C 21.722004 9.6877441 22 8.8663742 22 8 C 22 7.4098187 21.857809 6.8497067 21.625 6.34375 C 22.037977 6.1222711 22.497399 6 23 6 C 24.668484 6 26 7.3315161 26 9 C 26 9.9862886 25.52064 10.853223 24.78125 11.40625 L 23.96875 12 L 24.59375 12.8125 C 24.85546 13.157107 25 13.550392 25 14 C 25 14.619092 24.731644 15.157056 24.28125 15.53125 L 23.78125 15.9375 L 23.9375 16.53125 C 23.979364 16.703275 24 16.858509 24 17 C 24 18.116666 23.116666 19 22 19 C 22 17.334646 21.165422 15.844404 19.90625 14.9375 L 18.75 16.5625 C 19.506828 17.107596 20 17.989354 20 19 C 20 19.208561 19.977167 19.397662 19.9375 19.59375 C 19.868814 19.93606 19.736423 20.272731 19.5625 20.5625 C 19.538181 20.602593 19.52612 20.648693 19.5 20.6875 C 19.432676 20.788536 19.360021 20.876864 19.28125 20.96875 C 19.233415 21.024208 19.176755 21.073245 19.125 21.125 C 18.584647 21.669595 17.835373 22 17 22 C 16.492971 22 16.035516 21.865751 15.59375 21.625 L 14.84375 21.21875 L 14.3125 21.875 C 13.755705 22.565487 12.944275 23 12 23 C 10.331516 23 9 21.668484 9 20 C 9 19.271379 9.2729597 18.626094 9.71875 18.09375 L 10.375 17.3125 L 9.5625 16.65625 C 9.2103304 16.374268 9 15.974388 9 15.5 C 9 14.951031 9.2780383 14.485368 9.71875 14.21875 L 10.375 13.8125 L 10.1875 13.09375 C 10.078624 12.71312 10 12.354009 10 12 C 10 9.7796254 11.779625 8 14 8 C 14.299245 8 14.593868 8.051799 14.90625 8.125 L 15.8125 8.34375 L 16.09375 7.4375 C 16.342266 6.6095586 17.088099 6 18 6 z M 16 12.5 C 16 13.340812 15.340812 14 14.5 14 L 14.5 16 C 16.421188 16 18 14.421188 18 12.5 L 16 12.5 z" overflow="visible" font-family="Bitstream Vera Sans" fill="#000000"/></svg>
