<?xml version="1.0" encoding="utf-8"?>
<svg xmlns="http://www.w3.org/2000/svg" viewBox="0 0 32 32" fill="#000000"><path style="text-indent:0;text-align:start;line-height:normal;text-transform:none;block-progression:tb;-inkscape-font-specification:Bitstream Vera Sans" d="M 7 4 C 6.4319497 3.9844784 5.8572607 4.1264096 5.34375 4.46875 L 5.3125 4.5 L 5.28125 4.5 C 4.0290775 5.473912 3.5558422 7.2868883 4.46875 8.65625 L 4.46875 8.6875 L 5.6875 10.375 L 6.25 11.1875 L 7.0625 10.625 L 10.375 8.3125 L 11.1875 7.75 L 10.625 6.9375 L 9.53125 5.34375 L 9.5 5.3125 L 9.5 5.28125 C 9.013044 4.6551637 8.3056039 4.2246193 7.5625 4.0625 C 7.376724 4.0219702 7.1893501 4.0051739 7 4 z M 6.8125 6 C 6.9331606 5.9788332 7.0590519 5.9685597 7.1875 6 C 7.4316331 6.059757 7.6685534 6.2185116 7.875 6.46875 C 7.885793 6.481832 7.895666 6.486391 7.90625 6.5 L 8.40625 7.25 L 6.75 8.40625 L 6.125 7.53125 C 5.8450394 7.1113091 5.9551911 6.5486859 6.46875 6.125 C 6.5764096 6.0532269 6.6918394 6.0211668 6.8125 6 z M 12.59375 9.09375 L 10.90625 10.1875 L 22.4375 21.25 C 21.376909 21.099338 20.221743 21 19 21 C 16.706417 21 14.617185 21.285645 13.03125 21.78125 C 12.436525 21.967101 11.92202 22.175296 11.46875 22.4375 L 8.40625 11.90625 L 6.6875 13 L 10.03125 24.6875 C 10.102835 25.373149 10.531792 25.912234 11.03125 26.28125 C 11.576113 26.683813 12.238283 26.970948 13.03125 27.21875 C 14.617185 27.714355 16.706417 28 19 28 C 21.293583 28 23.382815 27.714355 24.96875 27.21875 C 25.761717 26.970948 26.423887 26.683813 26.96875 26.28125 C 27.513613 25.878687 28 25.27753 28 24.5 C 28 23.72247 27.513613 23.121313 26.96875 22.71875 C 26.832534 22.618109 26.68234 22.524901 26.53125 22.4375 L 12.59375 9.09375 z M 19 23 C 21.124695 23 23.034254 23.278283 24.34375 23.6875 C 24.998498 23.892109 25.516469 24.148121 25.78125 24.34375 C 25.893393 24.426605 25.941003 24.469204 25.96875 24.5 C 25.941003 24.530795 25.893392 24.573395 25.78125 24.65625 C 25.516469 24.851879 24.998498 25.107891 24.34375 25.3125 C 23.034254 25.721717 21.124695 26 19 26 C 16.875305 26 14.965746 25.721717 13.65625 25.3125 C 13.001502 25.107891 12.483531 24.851879 12.21875 24.65625 C 12.106607 24.573395 12.058997 24.530796 12.03125 24.5 C 12.058997 24.469205 12.106608 24.426605 12.21875 24.34375 C 12.483531 24.148121 13.001502 23.892109 13.65625 23.6875 C 14.965746 23.278283 16.875305 23 19 23 z" overflow="visible" font-family="Bitstream Vera Sans" fill="#000000"/></svg>
