<?xml version="1.0" encoding="utf-8"?>
<svg xmlns="http://www.w3.org/2000/svg" viewBox="0 0 32 32" fill="#000000"><path style="text-indent:0;text-align:start;line-height:normal;text-transform:none;block-progression:tb;-inkscape-font-specification:Sans" d="M 13 3 C 9.1458514 3 6 6.1458514 6 10 C 6 12.408843 7.2311596 14.55212 9.09375 15.8125 C 5.5266132 17.342333 3 20.881262 3 25 L 5 25 C 5 20.569334 8.5693339 17 13 17 C 15.141475 17 17.068236 17.853895 18.5 19.21875 C 18.178757 19.915963 18 20.685287 18 21.5 C 18 22.649978 18.35949 23.708651 18.96875 24.59375 L 15.28125 28.28125 L 16.71875 29.71875 L 20.40625 26.03125 C 21.291349 26.64051 22.350022 27 23.5 27 C 26.525721 27 29 24.525721 29 21.5 C 29 18.474279 26.525721 16 23.5 16 C 22.018657 16 20.678847 16.602014 19.6875 17.5625 C 18.880017 16.837471 17.950327 16.246928 16.9375 15.8125 C 18.788482 14.550359 20 12.399901 20 10 C 20 6.1458513 16.854148 3 13 3 z M 13 5 C 15.773268 5 18 7.2267317 18 10 C 18 12.773268 15.773268 15 13 15 C 10.226732 15 8 12.773268 8 10 C 8 7.2267316 10.226732 5 13 5 z M 23.5 18 C 25.444841 18 27 19.555159 27 21.5 C 27 23.444841 25.444841 25 23.5 25 C 21.555159 25 20 23.444841 20 21.5 C 20 19.555159 21.555159 18 23.5 18 z" overflow="visible" font-family="Sans" fill="#000000"/></svg>
