<?xml version="1.0" encoding="utf-8"?>
<svg xmlns="http://www.w3.org/2000/svg" viewBox="-8 10 32 32" fill="#000000"><path d="M 16 4 L 15.4375 4.375 C 15.0115 4.667 5 11.609 5 18 C 5 21.309 7.691 24 11 24 C 11.981811 24 12.899627 23.73253 13.71875 23.3125 L 11.375 28 L 20.625 28 L 18.28125 23.3125 C 19.10027 23.73253 20.017718 24 21 24 C 24.309 24 27 21.309 27 18 C 27 11.48 16.9885 4.662 16.5625 4.375 L 16 4 z M 16 6.4375 C 18.955 8.5575 25 13.763 25 18 C 25 20.206 23.206 22 21 22 C 18.794 22 17 20.206 17 18 L 15 18 C 15 20.206 13.206 22 11 22 C 8.794 22 7 20.206 7 18 C 7 13.853 13.043 8.5915 16 6.4375 z M 16 23.25 L 17.375 26 L 14.625 26 L 16 23.25 z" transform="translate(-8 10)" fill="#000000"/></svg>
