<?xml version="1.0" encoding="utf-8"?>
<svg xmlns="http://www.w3.org/2000/svg" viewBox="0 0 32 32" fill="#000000"><path style="text-indent:0;text-align:start;line-height:normal;text-transform:none;block-progression:tb;-inkscape-font-specification:Sans" d="M 26.90625 3.96875 L 26.21875 4.375 L 19.59375 8.21875 L 19.46875 8.28125 L 19.375 8.375 L 11.75 16 L 8 16 L 7.59375 16 L 7.3125 16.28125 L 4.3125 19.25 L 4 19.53125 L 4 19.96875 L 4 20 L 4 21 L 5 21 L 7.25 21 L 7.71875 21.46875 L 10.53125 24.28125 L 11 24.75 L 11 27 L 11 28 L 12 28 L 12.0625 28 L 12.46875 28 L 12.75 27.6875 L 15.71875 24.6875 L 16 24.40625 L 16 24 L 16 20.25 L 23.625 12.625 L 23.71875 12.53125 L 23.78125 12.40625 L 27.625 5.78125 L 28 5.125 L 27.46875 4.5625 L 27.4375 4.53125 L 26.90625 3.96875 z M 24.0625 7.9375 L 22.34375 10.90625 L 21.09375 9.65625 L 24.0625 7.9375 z M 19.5625 11 L 21 12.4375 L 11.25 22.15625 L 9.84375 20.75 L 19.5625 11 z M 8.40625 18 L 9.5625 18 L 8.5625 19 L 7.375 19 L 8.40625 18 z M 14 22.4375 L 14 23.59375 L 13 24.625 L 13 23.4375 L 14 22.4375 z" overflow="visible" font-family="Sans" fill="#000000"/></svg>
