<?xml version="1.0" encoding="utf-8"?>
<svg xmlns="http://www.w3.org/2000/svg" viewBox="0 0 32 32" fill="#000000"><path style="text-indent:0;text-align:start;line-height:normal;text-transform:none;block-progression:tb;-inkscape-font-specification:Bitstream Vera Sans" d="M 13.46875 5 C 8.556654 5 4 8.9222591 4 15.3125 C 4 17.031042 4.2879104 19.025989 4.84375 20.6875 C 5.1216698 21.518256 5.4535875 22.263126 5.9375 22.875 C 6.2673837 23.292115 6.7001071 23.649688 7.21875 23.84375 C 7.7955584 25.664781 9.4955951 27 11.5 27 C 13.856313 27 15.789285 25.156371 15.96875 22.84375 C 23.333527 21.378376 26.673355 18.258352 27.90625 15.40625 A 1.0001 1.0001 0 0 0 28 15 C 28 11.324015 26.321051 8.6421765 23.65625 7.09375 C 20.991449 5.5453235 17.452145 5 13.46875 5 z M 13.46875 7 C 17.262355 7 20.496301 7.5574265 22.65625 8.8125 C 24.759558 10.034662 25.90787 11.818432 25.96875 14.78125 C 24.976762 16.888424 22.307684 19.504642 15.59375 20.84375 C 15.329218 20.342842 14.952386 19.930075 14.5 19.65625 C 13.611009 19.118153 12.564275 19 11.5 19 C 10.435725 19 9.3889911 19.118153 8.5 19.65625 C 7.9443806 19.992561 7.5071405 20.525109 7.25 21.1875 C 7.0679347 20.867246 6.8743608 20.4964 6.71875 20.03125 C 6.2568396 18.650511 6 16.808958 6 15.3125 C 6 9.8347409 9.578846 7 13.46875 7 z M 14.40625 8.78125 C 13.24925 8.91925 12.09775 9.36675 11.09375 10.21875 C 10.93275 10.35575 11.656 10.229 12.75 10.25 C 12.873 10.252 13.1755 10.24725 13.4375 10.03125 C 13.7945 9.73825 14.4095 9.2655 14.6875 9.0625 C 15.1035 8.7615 14.64725 8.75225 14.40625 8.78125 z M 17.5625 9.15625 C 17.41775 9.155125 17.23675 9.22 17.03125 9.375 C 16.63625 9.673 16.0375 10.10225 15.8125 10.28125 C 15.4625 10.55925 15.611 10.78275 15.75 10.84375 C 16.167 11.02675 16.58075 11.2685 16.96875 11.5625 C 17.11375 11.6715 17.40825 11.86375 17.78125 11.59375 C 18.22525 11.27275 18.89575 10.758 19.21875 10.5 C 19.71675 10.101 19.41 9.93075 19.25 9.84375 C 18.824 9.61275 18.37825 9.423 17.90625 9.25 C 17.82575 9.2205 17.70725 9.157375 17.5625 9.15625 z M 21.5 11.5625 C 21.421937 11.572016 21.34125 11.59175 21.25 11.65625 C 21 11.83325 19.989 12.61175 19.375 13.09375 C 18.875 13.48675 19.02375 13.75625 19.09375 13.90625 C 19.34575 14.44725 19.57275 15.07125 19.71875 15.78125 C 19.84175 16.37425 22.769 14.551 22.875 13.875 C 22.972 13.258 22.624 12.5375 22 11.8125 C 21.90925 11.70675 21.734188 11.533953 21.5 11.5625 z M 11.5 21 C 12.368725 21 13.090991 21.146347 13.46875 21.375 C 13.846509 21.603653 14 21.803719 14 22.5 C 14 23.892562 12.892562 25 11.5 25 C 10.107438 25 9 23.892562 9 22.5 C 9 21.803719 9.1534911 21.603653 9.53125 21.375 C 9.9090089 21.146347 10.631275 21 11.5 21 z" overflow="visible" font-family="Bitstream Vera Sans" fill="#000000"/></svg>
