<?xml version="1.0" encoding="utf-8"?>
<svg xmlns="http://www.w3.org/2000/svg" viewBox="0 0 32 32" fill="#000000"><path d="M 3.71875 2.28125 L 2.28125 3.71875 L 28.28125 29.71875 L 29.71875 28.28125 L 25.4375 24 L 27 24 L 27 19 L 29 19 L 29 13 L 27 13 L 27 8 L 9.4375 8 L 3.71875 2.28125 z M 3 8 L 3 24 L 19.8125 24 L 17.8125 22 L 5 22 L 5 10 L 5.8125 10 L 3.8125 8 L 3 8 z M 11.4375 10 L 25 10 L 25 22 L 23.4375 22 L 21.4375 20 L 23 20 L 23 12 L 13.4375 12 L 11.4375 10 z M 7 12 L 7 20 L 15.8125 20 L 7.8125 12 L 7 12 z" fill="#000000"/></svg>
