<?xml version="1.0" encoding="utf-8"?>
<svg xmlns="http://www.w3.org/2000/svg" viewBox="0 0 32 32" fill="#000000"><path style="text-indent:0;text-align:start;line-height:normal;text-transform:none;block-progression:tb;-inkscape-font-specification:Bitstream Vera Sans" d="M 13.03125 4 L 12.75 4.1875 L 11.59375 5.03125 C 10.691032 5.0719074 9.3859158 5.2610622 8.03125 5.9375 C 6.4993427 6.7024414 5 8.2487036 5 10.59375 C 5 11.197652 5.1443318 11.756377 5.28125 12.21875 C 5.344193 12.431307 5.356187 12.449542 5.40625 12.59375 C 5.0117687 13.183935 4 14.792286 4 17.09375 L 4 17.53125 L 4.3125 17.84375 L 6.3125 19.71875 L 6.71875 20.125 L 7.28125 19.96875 C 8.1623753 19.712107 8.729536 19.146815 9.1875 18.5625 C 9.337922 19.342051 9.4974401 20.096372 9.5 21.5 C 9.4919795 21.498355 9.4680843 21.596658 9.4375 21.71875 C 9.396721 21.881539 9.345356 22.110147 9.28125 22.34375 C 9.1530375 22.810956 9 23.293484 9 23.875 C 9 25.005979 9.593719 26.636595 11.4375 27.84375 L 11.6875 28 L 12 28 L 20 28 L 20.3125 28 L 20.5625 27.84375 C 22.406281 26.636595 23 25.005979 23 23.875 C 23 23.293484 22.846972 22.811121 22.71875 22.34375 C 22.654639 22.110065 22.603294 21.881558 22.5625 21.71875 C 22.537004 21.616995 22.509945 21.558466 22.5 21.53125 C 22.5 21.502206 22.497328 21.500587 22.5 21.5 C 22.50256 20.096742 22.662074 19.342097 22.8125 18.5625 C 23.270464 19.146815 23.837625 19.712107 24.71875 19.96875 L 25.28125 20.125 L 25.6875 19.71875 L 27.6875 17.84375 L 28 17.53125 L 28 17.09375 C 28 14.784899 26.98235 13.128476 26.59375 12.53125 C 26.64344 12.394579 26.65777 12.384654 26.71875 12.1875 C 26.857184 11.739941 27 11.197652 27 10.59375 C 27 8.2491032 25.50063 6.7022831 23.96875 5.9375 C 22.614109 5.2612022 21.30896 5.0719055 20.40625 5.03125 L 19.25 4.1875 L 18.96875 4 L 18.65625 4 L 13.34375 4 L 13.03125 4 z M 13.6875 6 L 18.3125 6 L 19.40625 6.8125 L 19.65625 7 L 19.6875 7 C 19.328476 9.0783 20 11.03125 20 11.03125 C 20 11.03125 22.430963 12.445056 24.46875 12.875 L 24.6875 13.1875 C 24.6875 13.1875 25.757338 14.952477 25.90625 16.75 L 24.9375 17.6875 C 24.588148 17.451848 24.204398 17.225959 23.96875 16.8125 C 23.645398 16.245159 23.5 15.75 23.5 15.75 L 23.3125 15 L 22.5625 15 L 22.4375 15 L 21.90625 15 L 21.59375 15.46875 C 21.59375 15.46875 21.26209 16.025439 21 17 C 20.73791 17.974561 20.5 19.451603 20.5 21.53125 C 20.5 21.842425 20.54079 22.007401 20.59375 22.21875 C 20.64671 22.430099 20.720361 22.65306 20.78125 22.875 C 20.903028 23.318879 21 23.805516 21 23.875 C 21 24.28006 20.725276 25.168015 19.59375 26 L 12.40625 26 C 11.274724 25.168015 11 24.28006 11 23.875 C 11 23.80552 11.09696 23.318794 11.21875 22.875 C 11.27964 22.653103 11.353279 22.430211 11.40625 22.21875 C 11.459221 22.007289 11.5 21.842129 11.5 21.53125 C 11.5 19.451123 11.262106 17.974482 11 17 C 10.737894 16.025518 10.40625 15.46875 10.40625 15.46875 L 10.09375 15 L 9.5625 15 L 9.4375 15 L 8.6875 15 L 8.5 15.75 C 8.5 15.75 8.354602 16.245159 8.03125 16.8125 C 7.7956017 17.225959 7.4118515 17.451848 7.0625 17.6875 L 6.09375 16.75 C 6.2444738 14.965283 7.3125 13.25 7.3125 13.25 L 7.625 12.8125 C 9.647761 12.325683 12 11.03125 12 11.03125 C 12 11.03125 12.653155 8.8385008 12.3125 7 L 12.34375 7 L 12.59375 6.8125 L 13.6875 6 z" overflow="visible" font-family="Bitstream Vera Sans" fill="#000000"/></svg>
