<?xml version="1.0" encoding="utf-8"?>
<svg xmlns="http://www.w3.org/2000/svg" viewBox="0 0 32 32" fill="#000000"><path d="M 5 5 C 5 6.8468923 5.8993716 8.3458838 7.1542969 8.8242188 C 7.0615342 9.2033305 7 9.5933934 7 10 C 7 10.655838 7.1348851 11.280193 7.3671875 11.855469 C 7.1355654 12.694176 7 13.578182 7 14.5 L 7 14.630859 C 4.539271 17.632463 3 21.836837 3 26.5 L 3 27 L 5 27 L 5 26.5 C 5 22.847035 6.0398381 19.516314 7.7382812 16.964844 L 7.7558594 16.96875 C 9.5766128 17.428769 11.467076 18.395795 12.841797 19.546875 C 14.216518 20.697955 15 22.00339 15 23 L 17 23 C 17 22.059085 17.78198 20.752531 19.160156 19.59375 C 20.538333 18.434969 22.431871 17.446474 24.253906 16.966797 L 24.263672 16.964844 C 25.961127 19.51617 27 22.847186 27 26.5 L 27 27 L 29 27 L 29 26.5 C 29 21.836818 27.460746 17.63002 25 14.628906 L 25 14.5 C 25 13.580276 24.862919 12.695687 24.630859 11.857422 C 24.863738 11.281532 25 10.656694 25 10 C 25 9.5933934 24.938466 9.2033305 24.845703 8.8242188 C 26.100628 8.3458838 27 6.8468923 27 5 L 23 6 L 23.013672 6.0410156 C 22.172183 5.3978779 21.134408 5 20 5 C 19.392055 5 18.81136 5.1115852 18.273438 5.3144531 C 17.547318 5.1140733 16.786327 5 16 5 C 15.213673 5 14.451408 5.1141382 13.724609 5.3144531 C 13.187172 5.1120005 12.607291 5 12 5 C 10.865592 5 9.827817 5.3978779 8.9863281 6.0410156 L 9 6 L 5 5 z M 12 7 C 12.388369 7 12.754462 7.0792426 13.09375 7.2109375 L 13.244141 7.2792969 C 13.503055 7.3980442 13.74192 7.5521265 13.955078 7.734375 C 13.956467 7.7355721 13.957598 7.7370816 13.958984 7.7382812 C 14.057666 7.8229666 14.149493 7.9132388 14.236328 8.0097656 C 14.258153 8.0343129 14.277815 8.0606676 14.298828 8.0859375 C 14.416597 8.2258298 14.51874 8.378979 14.609375 8.5390625 C 14.64936 8.6108295 14.69245 8.6805311 14.726562 8.7558594 C 14.757958 8.8240287 14.782328 8.8959061 14.808594 8.9667969 C 14.846373 9.0706067 14.879879 9.1761775 14.90625 9.2851562 C 14.920781 9.3441924 14.936305 9.4024595 14.947266 9.4628906 C 14.978444 9.6377225 15 9.815585 15 10 C 15 11.668699 13.668699 13 12 13 C 11.817577 13 11.64181 12.977788 11.46875 12.947266 C 11.406722 12.93607 11.345694 12.921225 11.285156 12.90625 C 11.178198 12.880368 11.074641 12.847425 10.972656 12.810547 C 10.906034 12.785888 10.837651 12.765556 10.773438 12.736328 C 10.643938 12.678742 10.521155 12.609731 10.402344 12.535156 C 10.287486 12.461467 10.177661 12.37755 10.074219 12.289062 C 9.7648334 12.023912 9.5086733 11.695948 9.3242188 11.324219 L 9.2109375 11.095703 C 9.0788165 10.755944 9 10.389028 9 10 C 9 8.3313011 10.331301 7 12 7 z M 16 7 C 16.0095 7 16.018273 7.0024093 16.027344 7.0039062 C 16.018674 7.0153589 16.008575 7.0255826 16 7.0371094 C 15.991425 7.0255826 15.981326 7.0153589 15.972656 7.0039062 C 15.981728 7.0024092 15.99051 7 16 7 z M 20 7 C 21.668699 7 23 8.3313011 23 10 C 23 10.385326 22.922705 10.74883 22.792969 11.085938 L 22.673828 11.324219 C 22.489348 11.695717 22.232866 12.025849 21.923828 12.291016 C 21.92274 12.291928 21.921011 12.292058 21.919922 12.292969 C 21.767481 12.423148 21.598412 12.533566 21.421875 12.630859 C 21.356634 12.665937 21.29466 12.706047 21.226562 12.736328 C 21.162409 12.765569 21.093911 12.785875 21.027344 12.810547 C 20.925359 12.847425 20.821802 12.880368 20.714844 12.90625 C 20.654343 12.921235 20.593249 12.936062 20.53125 12.947266 C 20.35819 12.977788 20.182423 13 20 13 C 19.791413 13 19.588681 12.979115 19.392578 12.939453 C 18.019964 12.661781 17 11.459923 17 10 C 17 9.815585 17.021556 9.6377225 17.052734 9.4628906 C 17.063707 9.4024581 17.079205 9.3441941 17.09375 9.2851562 C 17.120121 9.1761775 17.153627 9.0706067 17.191406 8.9667969 C 17.217694 8.8959036 17.24202 8.8240312 17.273438 8.7558594 C 17.30755 8.6805311 17.35064 8.6108295 17.390625 8.5390625 C 17.481309 8.3789734 17.583384 8.2258319 17.701172 8.0859375 C 17.722185 8.0606676 17.741847 8.0343129 17.763672 8.0097656 C 18.039033 7.7036956 18.375546 7.4538487 18.755859 7.2792969 L 18.90625 7.2109375 C 19.245538 7.0792426 19.611631 7 20 7 z M 12 9 A 1 1 0 0 0 11 10 A 1 1 0 0 0 12 11 A 1 1 0 0 0 13 10 A 1 1 0 0 0 12 9 z M 20 9 A 1 1 0 0 0 19 10 A 1 1 0 0 0 20 11 A 1 1 0 0 0 21 10 A 1 1 0 0 0 20 9 z M 9.0742188 14.03125 C 9.8997361 14.633133 10.906328 15 12 15 C 12.28735 15 12.566066 14.965643 12.839844 14.917969 C 12.85812 14.914522 12.876336 14.911865 12.894531 14.908203 C 13.169674 14.857044 13.43803 14.790392 13.695312 14.695312 L 16 17 L 18.304688 14.695312 C 18.56197 14.790392 18.830326 14.857044 19.105469 14.908203 C 19.123664 14.911865 19.14188 14.914522 19.160156 14.917969 C 19.433934 14.965643 19.71265 15 20 15 C 21.093672 15 22.100264 14.633133 22.925781 14.03125 C 22.950721 14.187619 23 14.33614 23 14.5 L 23 15.322266 C 21.13093 15.926283 19.310622 16.853777 17.873047 18.0625 C 17.133232 18.684542 16.515314 19.385239 16.015625 20.123047 C 15.51291 19.362939 14.881117 18.645148 14.126953 18.013672 C 12.688769 16.809453 10.867229 15.901587 9 15.316406 L 9 14.5 C 9 14.336033 9.0492906 14.187585 9.0742188 14.03125 z M 9 21 L 10.5 23 L 12 21 L 9 21 z M 20 21 L 21.5 23 L 23 21 L 20 21 z M 7 25 L 8.5 27 L 10 25 L 7 25 z M 12 25 L 13.5 27 L 15 25 L 12 25 z M 17 25 L 18.5 27 L 20 25 L 17 25 z M 22 25 L 23.5 27 L 25 25 L 22 25 z" fill="#000000"/></svg>
