<?xml version="1.0" encoding="utf-8"?>
<svg xmlns="http://www.w3.org/2000/svg" viewBox="0 0 32 32" fill="#000000"><path style="line-height:normal;text-indent:0;text-align:start;text-decoration-line:none;text-decoration-style:solid;text-decoration-color:#000;text-transform:none;block-progression:tb;isolation:auto;mix-blend-mode:normal" d="M 13 3 L 13 4 L 13 5 L 3 5 L 3 29 L 29 29 L 29 5 L 25 5 L 25 3 L 17 3 L 17 4 L 17 5 L 16 5 L 16 3 L 13 3 z M 19 5 L 23 5 L 23 6 L 23 7 L 19 7 L 19 5 z M 5 7 L 13 7 L 13 9 L 16 9 L 16 7 L 17 7 L 17 9 L 25 9 L 25 7 L 27 7 L 27 27 L 5 27 L 5 7 z M 7 11 L 7 21 L 13 21 L 13 11 L 7 11 z M 15 11 L 15 12 L 15 21 L 25 21 L 25 11 L 15 11 z M 9 13 L 11 13 L 11 19 L 9 19 L 9 13 z M 17 13 L 23 13 L 23 19 L 17 19 L 17 13 z M 19 15 L 19 17 L 21 17 L 21 15 L 19 15 z M 7 23 L 7 25 L 21 25 L 21 23 L 7 23 z M 24 23 A 1 1 0 0 0 23 24 A 1 1 0 0 0 24 25 A 1 1 0 0 0 25 24 A 1 1 0 0 0 24 23 z" fill="#000000"/></svg>
