<?xml version="1.0" encoding="utf-8"?>
<svg xmlns="http://www.w3.org/2000/svg" viewBox="0 0 32 32" fill="#000000"><path style="text-indent:0;text-align:start;line-height:normal;text-transform:none;block-progression:tb;-inkscape-font-specification:Sans" d="M 14 5 C 7.9367123 5 3 9.9367128 3 16 C 3 22.063287 7.9367123 27 14 27 C 14.68212 27 15.351822 26.932036 16 26.8125 C 16.649469 26.932509 17.313513 27 18 27 C 24.063407 27 29 22.063407 29 16 C 29 9.9365932 24.063407 5 18 5 C 17.313513 5 16.649469 5.0674908 16 5.1875 C 15.351822 5.0679644 14.68212 5 14 5 z M 14 7 C 18.982407 7 23 11.017593 23 16 C 23 20.982407 18.982407 25 14 25 C 9.0175927 25 5 20.982407 5 16 C 5 11.017593 9.0175927 7 14 7 z M 21 7.53125 C 24.498062 8.7641512 27 12.072034 27 16 C 27 19.927966 24.498062 23.235849 21 24.46875 C 23.445891 22.449184 25 19.410599 25 16 C 25 12.589401 23.445891 9.5508159 21 7.53125 z M 13 11 C 13 12.116666 12.116666 13 11 13 L 11 15 C 11.732445 15 12.407407 14.785944 13 14.4375 L 13 19 L 11 19 L 11 21 L 17 21 L 17 19 L 15 19 L 15 11 L 13 11 z" overflow="visible" font-family="Sans" fill="#000000"/></svg>
