<?xml version="1.0" encoding="utf-8"?>
<svg xmlns="http://www.w3.org/2000/svg" viewBox="0 0 32 32" fill="#000000"><path style="text-indent:0;text-align:start;line-height:normal;text-transform:none;block-progression:tb;-inkscape-font-specification:Sans" d="M 12.84375 3 L 12.6875 3.0625 L 9.6875 4.0625 L 9.3125 4.15625 L 9.125 4.5 C 6.6242284 8.8160844 4.3125 16.15625 4.3125 16.15625 L 4 17.0625 L 4.90625 17.40625 L 8.96875 18.9375 L 9 18.84375 L 9 20 L 9 28 L 9 29 L 10 29 L 22 29 L 23 29 L 23 28 L 23 20 L 23 18.84375 L 23.03125 18.9375 L 27.125 17.34375 L 28 17 L 27.6875 16.09375 C 27.6875 16.09375 25.374196 8.8144131 22.875 4.5 L 22.6875 4.15625 L 22.3125 4.0625 L 19.3125 3.0625 L 19.15625 3 L 19 3 L 16 3 L 13 3 L 12.84375 3 z M 14.34375 5 L 16 5 L 17.65625 5 L 16 10.5 L 14.34375 5 z M 12.3125 5.25 L 15 14.1875 L 15 18 L 11 18 L 11 14 L 9 14 L 9 16.8125 L 6.5 15.875 C 6.9158638 14.627936 8.7591758 9.32634 10.75 5.78125 L 12.3125 5.25 z M 19.6875 5.25 L 21.25 5.78125 C 23.240515 9.32512 25.082008 14.597138 25.5 15.84375 L 23 16.8125 L 23 14 L 21 14 L 21 18 L 17 18 L 17 14.1875 L 19.6875 5.25 z M 11 20 L 15 20 L 15 27 L 11 27 L 11 20 z M 17 20 L 21 20 L 21 27 L 17 27 L 17 20 z" fill="#000000"/></svg>
