<?xml version="1.0" encoding="utf-8"?>
<svg xmlns="http://www.w3.org/2000/svg" viewBox="0 0 32 32" fill="#000000"><path style="text-indent:0;text-align:start;line-height:normal;text-transform:none;block-progression:tb;-inkscape-font-specification:Sans" d="M 10.09375 5 C 8.9111285 5 7.9390855 5.9567071 7.84375 7.125 L 7.78125 8 L 6.75 8 C 5.4200028 8 4.2787998 9.0153102 4.15625 10.34375 L 3 24.0625 C 2.8541702 25.631756 4.1441677 27 5.71875 27 L 16 27 L 26.28125 27 C 27.855389 27 29.14583 25.631756 29 24.0625 L 27.84375 10.34375 C 27.7212 9.0153102 26.579997 8 25.25 8 L 24.21875 8 L 24.15625 7.125 C 24.060915 5.9567071 23.088872 5 21.90625 5 L 10.09375 5 z M 10.09375 7 L 21.90625 7 C 22.037628 7 22.141585 7.1015429 22.15625 7.28125 L 23 17.6875 C 23.016607 17.893868 22.902622 18 22.75 18 L 9.25 18 C 9.097378 18 8.9833926 17.893868 9 17.6875 L 9.84375 7.28125 C 9.8584145 7.1015429 9.9623715 7 10.09375 7 z M 16.0625 9 C 15.0055 9 13.40525 9.44725 13.40625 11.03125 C 13.40625 12.96425 17.09375 12.48275 17.09375 13.71875 C 17.09375 14.18275 16.49325 14.5 15.90625 14.5 C 15.07925 14.5 14.42675 14 13.96875 14 C 13.60675 14 13 14.11325 13 14.78125 C 13 15.83425 15.4285 16 16.3125 16 C 16.8415 16 19 15.68725 19 13.65625 C 19 11.20525 15.25 11.7595 15.25 10.8125 C 15.25 10.4455 15.5045 10.15625 16.0625 10.15625 C 16.6205 10.15625 17.05 10.53125 17.625 10.53125 C 17.948 10.53125 18.34375 10.3985 18.34375 9.9375 C 18.34375 9.1955 16.8555 9 16.0625 9 z M 6.75 10 L 7.625 10 L 7 17.5 C 6.9885825 17.641877 6.985835 17.768534 7 17.90625 C 7.0021792 17.927437 6.9972444 17.947699 7 17.96875 L 7 20.46875 C 7 21.868202 8.1668642 23 9.5625 23 L 22.4375 23 C 23.833136 23 25 21.868202 25 20.46875 L 25 17.96875 C 25.002756 17.947699 24.997821 17.927437 25 17.90625 C 25.014165 17.768534 25.011418 17.641877 25 17.5 L 24.375 10 L 25.25 10 C 25.582003 10 25.84755 10.23369 25.875 10.53125 L 27 24.25 C 27.03817 24.660744 26.729111 25 26.28125 25 L 16 25 L 5.71875 25 C 5.2693323 25 4.9618298 24.660744 5 24.25 L 6.125 10.53125 C 6.1524502 10.23369 6.4179972 10 6.75 10 z M 9 19.96875 C 9.0853943 19.978992 9.1617379 20 9.25 20 L 22.75 20 C 22.838262 20 22.914606 19.978992 23 19.96875 L 23 20.46875 C 23 20.767298 22.769864 21 22.4375 21 L 9.5625 21 C 9.2301358 21 9 20.767298 9 20.46875 L 9 19.96875 z" overflow="visible" font-family="Sans" fill="#000000"/></svg>
