<?xml version="1.0" encoding="utf-8"?>
<svg xmlns="http://www.w3.org/2000/svg" viewBox="0 0 32 32" fill="#000000"><path style="text-indent:0;text-align:start;line-height:normal;text-transform:none;block-progression:tb;-inkscape-font-specification:Bitstream Vera Sans" d="M 8.1875 5 L 8.03125 5.78125 C 8.03125 5.78125 7 10.490068 7 13 C 7 17.615686 10.516257 21.431188 15 21.9375 L 15 26 L 10 26 L 10 28 L 22 28 L 22 26 L 17 26 L 17 21.9375 C 21.483743 21.431188 25 17.615686 25 13 C 25 10.484886 23.96875 5.78125 23.96875 5.78125 L 23.8125 5 L 23 5 L 9 5 L 8.1875 5 z M 9.84375 7 L 22.15625 7 C 22.251766 7.4886235 22.488387 8.7172081 22.6875 10 L 11 10 L 11 12 L 22.9375 12 C 22.968021 12.349179 23 12.723737 23 13 C 23 16.877484 19.877484 20 16 20 C 12.122516 20 9 16.877484 9 13 C 9 11.314052 9.6668586 7.9060543 9.84375 7 z" overflow="visible" font-family="Bitstream Vera Sans" fill="#000000"/></svg>
