<?xml version="1.0" encoding="utf-8"?>
<svg xmlns="http://www.w3.org/2000/svg" viewBox="0 0 32 32" fill="#000000"><path d="M 19.4375 4 C 17.516348 4 15.9375 5.5788481 15.9375 7.5 C 15.9375 9.4211519 17.516348 11 19.4375 11 C 21.358652 11 22.9375 9.4211519 22.9375 7.5 C 22.9375 5.5788481 21.358652 4 19.4375 4 z M 19.4375 6 C 20.277772 6 20.9375 6.6597281 20.9375 7.5 C 20.9375 8.3402719 20.277772 9 19.4375 9 C 18.597228 9 17.9375 8.3402719 17.9375 7.5 C 17.9375 6.6597281 18.597228 6 19.4375 6 z M 14.40625 9.03125 C 13.890438 9.0830937 13.42675 9.33225 13.09375 9.75 C 10.67875 12.773 10.985 16.91875 11 17.09375 L 11.03125 17.40625 L 14.40625 21.1875 L 15.625 27 L 17.6875 27 L 16.28125 20.25 L 13 16.59375 C 12.986 15.68575 13.08075 13.0245 14.59375 11.0625 L 15.84375 14.71875 C 15.97875 15.10675 16.2295 15.4455 16.5625 15.6875 L 20.375 18.4375 L 21.5625 16.8125 L 17.75 14.0625 L 16.4375 10.3125 C 16.2065 9.6485 15.6305 9.15125 14.9375 9.03125 C 14.763 9.0015 14.578188 9.0139688 14.40625 9.03125 z M 22.1875 17.875 L 21.1875 19.375 L 22.21875 27 L 23.5 27 L 22.1875 17.875 z M 11.40625 19.34375 L 9.90625 27 L 11.9375 27 L 13.09375 21.1875 L 11.40625 19.34375 z" fill="#000000"/></svg>
