<?xml version="1.0" encoding="utf-8"?>
<svg xmlns="http://www.w3.org/2000/svg" viewBox="0 0 32 32" fill="#000000"><path style="text-indent:0;text-align:start;line-height:normal;text-transform:none;block-progression:tb;-inkscape-font-specification:Bitstream Vera Sans" d="M 12.3125 4.53125 L 10.46875 5.28125 L 11.25 7.21875 C 9.5498715 8.1438937 8.1438937 9.5498715 7.21875 11.25 L 5.28125 10.46875 L 4.53125 12.3125 L 6.4375 13.09375 C 6.1561315 14.015491 6 14.987831 6 16 C 6 17.012169 6.1561315 17.984509 6.4375 18.90625 L 4.53125 19.6875 L 5.28125 21.53125 L 7.21875 20.75 C 8.1463604 22.454661 9.5463096 23.853126 11.25 24.78125 L 10.46875 26.71875 L 12.3125 27.46875 L 13.09375 25.5625 C 14.01739 25.846998 14.984216 26 16 26 C 17.012169 26 17.984509 25.843868 18.90625 25.5625 L 19.6875 27.46875 L 21.53125 26.71875 L 20.75 24.78125 C 22.450128 23.856106 23.856106 22.450128 24.78125 20.75 L 26.71875 21.53125 L 27.46875 19.6875 L 25.5625 18.90625 C 25.843868 17.984509 26 17.012169 26 16 C 26 14.987831 25.843868 14.015491 25.5625 13.09375 L 27.46875 12.3125 L 26.71875 10.46875 L 24.78125 11.25 C 23.856106 9.5498715 22.450128 8.1438937 20.75 7.21875 L 21.53125 5.28125 L 19.6875 4.53125 L 18.90625 6.4375 C 17.984509 6.1561315 17.012169 6 16 6 C 14.987831 6 14.015491 6.1561315 13.09375 6.4375 L 12.3125 4.53125 z M 16 8 C 20.430123 8 24 11.569877 24 16 C 24 20.430123 20.430123 24 16 24 C 11.569877 24 8 20.430123 8 16 C 8 11.569877 11.569877 8 16 8 z M 16 11 C 13.250421 11 11 13.250421 11 16 C 11 18.749579 13.250421 21 16 21 C 18.749579 21 21 18.749579 21 16 C 21 13.250421 18.749579 11 16 11 z M 16 13 C 17.668699 13 19 14.331301 19 16 C 19 17.668699 17.668699 19 16 19 C 14.331301 19 13 17.668699 13 16 C 13 14.331301 14.331301 13 16 13 z" fill="#000000"/></svg>
