<?xml version="1.0" encoding="utf-8"?>
<svg xmlns="http://www.w3.org/2000/svg" viewBox="0 0 32 32" fill="#000000"><path style="text-indent:0;text-align:start;line-height:normal;text-transform:none;block-progression:tb;-inkscape-font-specification:Bitstream Vera Sans" d="M 10.90625 4.875 L 10.5 5.15625 L 5.5 8.15625 L 4.625 8.65625 L 5.125 9.5 C 5.125 9.5 6.6279978 12.101588 6.9375 15 L 6 15 L 5 15 L 5 16 L 5 19.46875 L 5 19.84375 L 5.21875 20.125 L 6.3125 21.40625 C 6.1021895 21.891105 6 22.440876 6 23 C 6 25.197063 7.8029372 27 10 27 C 11.853003 27 13.396638 25.719755 13.84375 24 L 18.15625 24 C 18.603362 25.719755 20.146997 27 22 27 C 24.197063 27 26 25.197063 26 23 C 26 22.474902 25.905488 21.960839 25.71875 21.5 L 26.78125 20.09375 L 27 19.8125 L 27 19.46875 L 27 16 L 27 15 L 26 15 L 25.0625 15 C 25.372002 12.101588 26.875 9.5 26.875 9.5 L 27.375 8.65625 L 26.5 8.15625 L 21.5 5.15625 L 21.09375 4.875 L 20.625 5.0625 C 20.625 5.0625 18.15899 6 16 6 C 13.84101 6 11.375 5.0625 11.375 5.0625 L 10.90625 4.875 z M 10.65625 7.34375 C 10.780225 7.5831914 10.911755 7.8747948 11.0625 8.25 C 11.520168 9.3891366 12 11.122499 12 13.4375 L 14 13.4375 C 14 10.92555 13.524943 8.9723138 13 7.625 C 13.847037 7.815832 14.872338 8 16 8 C 17.127662 8 18.152963 7.815832 19 7.625 C 18.475057 8.9723138 18 10.92555 18 13.4375 L 20 13.4375 C 20 11.122499 20.479832 9.3891366 20.9375 8.25 C 21.088245 7.8747948 21.219775 7.5831914 21.34375 7.34375 L 24.71875 9.375 C 24.237751 10.271176 23.271049 12.288011 23.0625 15 L 8.9375 15 C 8.7289508 12.288011 7.7622491 10.271176 7.28125 9.375 L 10.65625 7.34375 z M 7 17 L 25 17 L 25 19.15625 L 24.4375 19.875 C 23.757062 19.340114 22.925829 19 22 19 C 20.146997 19 18.603362 20.280245 18.15625 22 L 13.84375 22 C 13.396638 20.280245 11.853003 19 10 19 C 9.105329 19 8.2938322 19.309697 7.625 19.8125 L 7 19.09375 L 7 17 z M 10 21 C 11.114937 21 12 21.885063 12 23 C 12 24.114937 11.114937 25 10 25 C 8.8850628 25 8 24.114937 8 23 C 8 21.885063 8.8850628 21 10 21 z M 22 21 C 23.114937 21 24 21.885063 24 23 C 24 24.114937 23.114937 25 22 25 C 20.885063 25 20 24.114937 20 23 C 20 21.885063 20.885063 21 22 21 z" overflow="visible" font-family="Bitstream Vera Sans" fill="#000000"/></svg>
