<?xml version="1.0" encoding="utf-8"?>
<svg xmlns="http://www.w3.org/2000/svg" viewBox="0 0 32 32" fill="#000000"><path style="text-indent:0;text-align:start;line-height:normal;text-transform:none;block-progression:tb;-inkscape-font-specification:Sans" d="M 13.3125 1 L 13.0625 1.65625 L 12.78125 2.40625 C 12.257907 2.5383771 9.6055497 3.2187549 7.59375 4.09375 L 7 4.34375 L 7 4.9375 L 7 5 C 6.9477377 6.1563997 7.0889682 7.2053181 7.28125 8.0625 C 7.3520739 8.3782292 7.4198545 8.6751053 7.5 8.9375 C 7.5023942 8.9470396 7.4975931 8.9592286 7.5 8.96875 C 7.7954698 10.137579 8.1818792 11.159453 8.5625 12.09375 C 9.3237417 13.962345 10 15.423709 10 17 C 10 18.490834 9 19.594713 9 25 L 9 26 L 10 26 L 22 26 L 23 26 L 23 25 C 23 19.594713 22 18.490834 22 17 C 22 15.423709 22.676258 13.962345 23.4375 12.09375 C 24.193309 10.238491 24.988687 7.9995253 25 5.0625 C 25.000041 5.0519438 24.99998 5.0418242 25 5.03125 C 25.00002 5.0206758 25 5.0105923 25 5 L 25 4.34375 L 24.40625 4.09375 C 22.39445 3.2187549 19.742093 2.5383771 19.21875 2.40625 L 18.9375 1.65625 L 18.6875 1 L 18 1 L 14 1 L 13.3125 1 z M 14.6875 3 L 17.3125 3 L 17.53125 3.59375 L 17.71875 4.0625 L 18.21875 4.21875 C 18.21875 4.21875 20.977605 4.9704566 22.90625 5.6875 C 22.876943 6.2451029 22.829483 6.7740409 22.75 7.28125 C 22.687596 7.611833 22.631716 7.9595008 22.5625 8.21875 C 22.553419 8.2598825 22.540608 8.3029124 22.53125 8.34375 C 22.338503 9.0264923 22.145227 9.4575037 22.125 9.5 C 22.123805 9.5025098 22.09375 9.5625 22.09375 9.5625 C 22.053926 9.6456471 21.847876 10 20.9375 10 L 18 10 C 17.235421 10 16.84375 9.4375 16.84375 9.4375 L 16.5625 9 L 16.03125 9 L 15.96875 9 L 15.4375 9 L 15.15625 9.4375 C 15.15625 9.4375 14.764579 10 14 10 L 11.0625 10 C 10.04767 10 9.875 9.5 9.875 9.5 C 9.875 9.5 9.7406104 9.2449554 9.59375 8.875 C 9.5793586 8.8387467 9.577433 8.7894358 9.5625 8.75 C 9.3243979 7.8189227 9.1523642 6.8027058 9.09375 5.6875 C 11.022395 4.9704566 13.78125 4.21875 13.78125 4.21875 L 14.28125 4.0625 L 14.46875 3.59375 L 14.6875 3 z M 16 11.3125 C 16.471689 11.657675 17.128837 12 18 12 L 20.9375 12 C 21.068216 12 21.190173 11.981728 21.3125 11.96875 C 20.652434 13.56033 20 15.126904 20 17 C 20 18.994212 20.746634 20.099317 20.90625 24 L 11.09375 24 C 11.253366 20.099317 12 18.994212 12 17 C 12 15.126904 11.347566 13.56033 10.6875 11.96875 C 10.809862 11.981728 10.931737 12 11.0625 12 L 14 12 C 14.871163 12 15.528904 11.658219 16 11.3125 z M 15 27 L 15 31 L 17 31 L 17 27 L 15 27 z" overflow="visible" font-family="Sans" fill="#000000"/></svg>
