<?xml version="1.0" encoding="utf-8"?>
<svg xmlns="http://www.w3.org/2000/svg" viewBox="0 0 32 32" fill="#000000"><path style="text-indent:0;text-align:start;line-height:normal;text-transform:none;block-progression:tb;-inkscape-font-specification:Sans" d="M 6.90625 3 C 5.9301622 3 5.0600317 3.5033279 4.3125 4.34375 C 3.5649683 5.1841721 3 6.4369192 3 7.9375 C 3 10.234157 4.1155647 11.516949 4.75 12.15625 C 4.2038948 13.047956 2 16.823869 2 23 L 2 23.59375 L 2.5 23.875 C 2.5 23.875 5.7928661 25.750052 10.1875 25.96875 C 10.38419 26.544374 10.715579 27.046287 11.125 27.40625 C 11.603019 27.826525 12.145646 28.100983 12.6875 28.3125 L 12.6875 28.34375 C 12.706073 28.35097 12.731423 28.336697 12.75 28.34375 C 12.896431 28.399343 13.04209 28.453352 13.1875 28.5 C 14.598199 28.952552 15.96875 29 15.96875 29 L 16 29 L 16.03125 29 C 16.03125 29 17.401801 28.95255 18.8125 28.5 C 18.95791 28.453352 19.103569 28.399343 19.25 28.34375 C 19.268577 28.336697 19.293927 28.35097 19.3125 28.34375 L 19.3125 28.3125 C 19.854354 28.100983 20.396981 27.826525 20.875 27.40625 C 21.284421 27.046287 21.61581 26.544374 21.8125 25.96875 C 26.207134 25.750052 29.5 23.875 29.5 23.875 L 30 23.59375 L 30 23 C 30 16.823869 27.796105 13.047956 27.25 12.15625 C 27.884435 11.516949 29 10.234157 29 7.9375 C 29 6.4369192 28.435032 5.1841721 27.6875 4.34375 C 26.939968 3.5033279 26.069838 3 25.09375 3 L 24.53125 3 L 24.21875 3.46875 C 23.87463 4.033245 23.209628 4.6872319 22.625 5.21875 C 21.38092 4.3598728 20.100578 4 19.09375 4 C 17.528186 4 16.530198 4.5633511 16 4.90625 C 15.469705 4.5634166 14.471238 4 12.90625 4 C 11.899715 4 10.618996 4.3598609 9.375 5.21875 C 8.7903716 4.6872319 8.1253704 4.033245 7.78125 3.46875 L 7.46875 3 L 6.90625 3 z M 6.625 5.15625 C 7.0275211 5.6697003 7.4551555 6.1249555 7.875 6.53125 C 7.0388776 7.4485587 6.2894985 8.659925 5.6875 10.1875 C 5.3301474 9.6270888 5 8.8618291 5 7.9375 C 5 6.9220808 5.3730317 6.1815779 5.8125 5.6875 C 6.1426798 5.3162911 6.3981693 5.2326983 6.625 5.15625 z M 25.375 5.15625 C 25.601831 5.232698 25.85732 5.3162911 26.1875 5.6875 C 26.626968 6.1815779 27 6.9220808 27 7.9375 C 27 8.8618291 26.669853 9.6270888 26.3125 10.1875 C 25.710767 8.659904 24.961082 7.4485563 24.125 6.53125 C 24.544845 6.1249555 24.972479 5.6697003 25.375 5.15625 z M 12.90625 6 C 14.230069 6 15.3125 6.78125 15.3125 6.78125 L 15.5625 7 L 15.90625 7 L 16.09375 7 L 16.4375 7 L 16.6875 6.78125 C 16.6875 6.78125 17.768704 6 19.09375 6 C 20.230891 6 23.30141 7.1081058 24.78125 11.78125 L 24.75 11.8125 L 25.25 12.5625 C 25.25 12.5625 25.812442 13.401853 26.40625 14.875 C 25.575505 15.381012 24.321023 16 23 16 L 23 18 C 24.602548 18 26.043929 17.442198 27.0625 16.875 C 27.222751 17.426675 27.370617 18.014506 27.5 18.65625 C 27.229994 18.793181 26.985107 18.939181 26.625 19.09375 C 25.524005 19.566331 24.091837 20 23 20 L 23 22 C 24.589163 22 26.177495 21.433669 27.40625 20.90625 C 27.568756 20.836497 27.66293 20.787515 27.8125 20.71875 C 27.869319 21.25504 27.919634 21.797094 27.9375 22.375 C 27.284853 22.712675 25.101035 23.701466 21.875 23.90625 C 21.726517 21.03258 21.17162 18.658855 20.5 17.0625 C 20.33324 16.666134 20.163921 16.316701 20 16 C 21.94 16 22 13 22 13 L 17 15 L 17.71875 16 C 17.967795 16.380802 18.286309 16.964447 18.65625 17.84375 C 19.329243 19.443368 20 21.839781 20 25 C 20 25.399528 19.873564 25.632763 19.5625 25.90625 C 19.388733 26.059025 19.146845 26.186362 18.875 26.3125 C 18.86661 26.316393 18.852202 26.308637 18.84375 26.3125 C 18.542156 26.217506 18.129843 25.94567 17.78125 25.5625 C 17.31646 25.051607 17.03125 24.53125 17.03125 24.53125 L 16.75 24 L 16.15625 24 L 15.84375 24 L 15.25 24 L 14.96875 24.53125 C 14.96875 24.53125 14.68354 25.051607 14.21875 25.5625 C 13.870157 25.94567 13.457844 26.217507 13.15625 26.3125 C 13.147798 26.308637 13.13339 26.316393 13.125 26.3125 C 12.853155 26.186362 12.611267 26.059025 12.4375 25.90625 C 12.126436 25.632763 12 25.399528 12 25 C 12 21.839781 12.670757 19.443368 13.34375 17.84375 C 13.713691 16.964447 14.032205 16.380802 14.28125 16 L 15 15 L 10 13 C 10 13 10.06 16 12 16 C 11.836079 16.316701 11.66676 16.666134 11.5 17.0625 C 10.82838 18.658855 10.273483 21.03258 10.125 23.90625 C 6.8989652 23.701466 4.7151466 22.712675 4.0625 22.375 C 4.080366 21.797094 4.1306815 21.25504 4.1875 20.71875 C 4.3370703 20.787515 4.431244 20.836497 4.59375 20.90625 C 5.8225054 21.433669 7.4108366 22 9 22 L 9 20 C 7.9081634 20 6.4759946 19.566331 5.375 19.09375 C 5.014893 18.939181 4.7700058 18.793181 4.5 18.65625 C 4.6293831 18.014506 4.7772494 17.426675 4.9375 16.875 C 5.9560708 17.442198 7.3974516 18 9 18 L 9 16 C 7.6789769 16 6.4244953 15.381012 5.59375 14.875 C 6.1875582 13.401853 6.75 12.5625 6.75 12.5625 L 7.25 11.8125 L 7.21875 11.8125 C 8.6960097 7.11459 11.76807 6 12.90625 6 z M 12 8 L 12 10 C 13.647293 10 15.25 11.65625 15.25 11.65625 L 16.75 11.65625 C 16.75 11.65625 18.352707 10 20 10 L 20 8 C 17.978581 8 16.725751 8.9733011 16 9.65625 C 15.274249 8.9733011 14.021419 8 12 8 z M 16 20 C 14.895 20 13 20.448 13 21 C 13 21.552 16 23 16 23 C 16 23 19 21.552 19 21 C 19 20.448 17.105 20 16 20 z M 16 26.5 C 16.14501 26.696365 16.118013 26.723721 16.3125 26.9375 C 16.321767 26.947686 16.334345 26.958509 16.34375 26.96875 C 16.248009 26.977357 16.044295 26.999309 16.03125 27 C 16.03125 27 15.97043 27.000089 15.96875 27 C 15.955705 26.999304 15.751992 26.977359 15.65625 26.96875 C 15.665655 26.958509 15.678233 26.947686 15.6875 26.9375 C 15.881987 26.723721 15.85499 26.696365 16 26.5 z" overflow="visible" font-family="Sans" fill="#000000"/></svg>
