<?xml version="1.0" encoding="utf-8"?>
<svg xmlns="http://www.w3.org/2000/svg" viewBox="0 0 32 32" fill="#000000"><path style="text-indent:0;text-align:start;line-height:normal;text-transform:none;block-progression:tb;-inkscape-font-specification:Bitstream Vera Sans" d="M 16 5 C 9.9365932 5 5 9.9365932 5 16 L 5 26 L 5 27 L 6 27 L 7 27 L 7.53125 27 L 7.84375 26.5625 L 13.84375 17.5625 L 14 17.3125 L 14 17 L 14 14 C 14 12.883334 14.883334 12 16 12 C 17.116666 12 18 12.883334 18 14 L 18 17 L 18 17.3125 L 18.15625 17.5625 L 24.15625 26.5625 L 24.46875 27 L 25 27 L 26 27 L 27 27 L 27 26 L 27 16 C 27 9.9365932 22.063407 5 16 5 z M 16 7 C 20.982593 7 25 11.017407 25 16 L 25 24.1875 L 20 16.6875 L 20 14 C 20 11.802666 18.197334 10 16 10 C 13.802666 10 12 11.802666 12 14 L 12 16.6875 L 7 24.1875 L 7 16 C 7 11.017407 11.017407 7 16 7 z M 15 17 L 15 19 L 17 19 L 17 17 L 15 17 z M 15 20 L 15 22.5 L 17 22.5 L 17 20 L 15 20 z M 15 24 L 15 27 L 17 27 L 17 24 L 15 24 z" overflow="visible" font-family="Bitstream Vera Sans" fill="#000000"/></svg>
