<?xml version="1.0" encoding="utf-8"?>
<svg xmlns="http://www.w3.org/2000/svg" viewBox="0 0 32 32" fill="#000000"><path style="text-indent:0;text-align:start;line-height:normal;text-transform:none;block-progression:tb;-inkscape-font-specification:Bitstream Vera Sans" d="M 5.5 9 C 3.5788481 9 2 10.578848 2 12.5 C 2 14.421152 3.5788481 16 5.5 16 C 7.4211519 16 9 14.421152 9 12.5 C 9 10.578848 7.4211519 9 5.5 9 z M 5.5 11 C 6.3402719 11 7 11.659728 7 12.5 C 7 13.340272 6.3402719 14 5.5 14 C 4.6597281 14 4 13.340272 4 12.5 C 4 11.659728 4.6597281 11 5.5 11 z M 11.6875 12.8125 C 10.516166 12.824326 9.3810307 13.410373 8.71875 14.46875 C 8.2067261 15.286875 8.0475328 16.28249 8.28125 17.21875 L 8.90625 19.75 L 6.25 22.90625 L 7.53125 24 L 2 24 L 2 26 L 30 26 L 30 24 L 28.25 24 L 28.96875 22.21875 L 23.375 20 L 19.3125 16.65625 L 19.25 16.59375 L 19.1875 16.5625 L 13.5 13.28125 C 13.08822 13.043871 12.63466 12.902422 12.1875 12.84375 C 12.019815 12.821748 11.854833 12.810811 11.6875 12.8125 z M 11.625 14.78125 C 11.916346 14.763742 12.225169 14.841568 12.5 15 L 18.03125 18.1875 L 22.1875 21.625 L 22.3125 21.71875 L 22.46875 21.78125 L 28.0625 24 L 7.90625 24 L 10.4375 21.0625 C 10.853592 20.572745 11.00191 19.907883 10.84375 19.28125 L 10.21875 16.75 C 10.116467 16.34026 10.18227 15.889125 10.40625 15.53125 C 10.686756 15.082978 11.139423 14.81043 11.625 14.78125 z" overflow="visible" font-family="Bitstream Vera Sans" fill="#000000"/></svg>
