<?xml version="1.0" encoding="utf-8"?>
<svg xmlns="http://www.w3.org/2000/svg" viewBox="0 0 32 32" fill="#000000"><path style="text-indent:0;text-align:start;line-height:normal;text-transform:none;block-progression:tb;-inkscape-font-specification:Bitstream Vera Sans" d="M 8 4 C 8 4.8799429 8.2446896 6.0167393 8.96875 7.0625 C 9.3654995 7.6355254 9.9327776 8.1720855 10.65625 8.53125 C 10.357639 8.8122266 10.042992 9.1633753 9.75 9.5625 C 9.1857877 9.3002831 8.3051056 9 7.25 9 C 6.0019319 9 5.0305018 9.2890072 4.375 9.59375 C 3.7194982 9.8984928 3.3125 10.28125 3.3125 10.28125 L 3 10.5625 L 3 11 C 3 11.314351 3.067513 11.432492 3.125 11.59375 C 3.182487 11.755008 3.2524522 11.912833 3.34375 12.09375 C 3.5263456 12.455585 3.7622489 12.869731 4.09375 13.28125 C 4.7567523 14.104287 5.7856984 14.993363 7.1875 15 C 7.6015042 15 7.9671354 14.927971 8.3125 14.84375 C 8.4109718 17.003729 9.1040957 18.634448 9.78125 19.8125 C 10.145898 20.446883 10.490382 20.954479 10.71875 21.34375 C 10.893307 21.641296 10.910798 21.752661 10.9375 21.84375 C 10.584927 22.333949 10 23.233251 10 24.65625 C 10 25.287187 10.238523 25.897331 10.625 26.34375 C 11.011477 26.790169 11.51139 27.107017 12.0625 27.34375 C 13.164719 27.817216 14.530026 28 16 28 C 17.469974 28 18.835281 27.817216 19.9375 27.34375 C 20.48861 27.107017 20.988523 26.790169 21.375 26.34375 C 21.761477 25.897331 22 25.287187 22 24.65625 C 22 23.233251 21.415073 22.333949 21.0625 21.84375 C 21.08911 21.75291 21.10677 21.641164 21.28125 21.34375 C 21.509516 20.954652 21.854034 20.446818 22.21875 19.8125 C 22.89603 18.634568 23.589044 17.004102 23.6875 14.84375 C 24.032865 14.927971 24.398496 15 24.8125 15 C 26.214565 14.9934 27.243078 14.104315 27.90625 13.28125 C 28.237836 12.869718 28.473628 12.4556 28.65625 12.09375 C 28.74756 11.912825 28.817508 11.755015 28.875 11.59375 C 28.932492 11.432485 29 11.314351 29 11 L 29 10.5625 L 28.6875 10.28125 C 28.6875 10.28125 28.280502 9.8984928 27.625 9.59375 C 26.969498 9.2890072 25.998068 9 24.75 9 C 23.694447 9 22.814068 9.3002831 22.25 9.5625 C 21.957008 9.1633753 21.642361 8.8122266 21.34375 8.53125 C 22.067222 8.1720855 22.634501 7.6355254 23.03125 7.0625 C 23.75531 6.0167393 24 4.8799429 24 4 L 22 4 C 22 4.4430571 21.80669 5.3140107 21.375 5.9375 C 20.983712 6.5026371 20.466127 6.8962876 19.53125 6.96875 C 19.048393 6.2775394 17.883645 5 16 5 C 14.116355 5 12.951607 6.2775394 12.46875 6.96875 C 11.533873 6.8962876 11.016288 6.5026371 10.625 5.9375 C 10.19331 5.3140107 10 4.4430571 10 4 L 8 4 z M 16 7 C 17.087399 7 18.125 8.5 18.125 8.5 L 18.3125 8.78125 L 18.59375 8.90625 C 18.59375 8.90625 21.71875 10.212369 21.71875 14.34375 C 21.71875 16.348113 21.137568 17.703635 20.5 18.8125 C 20.181216 19.366932 19.846859 19.859036 19.5625 20.34375 C 19.538803 20.384143 19.523453 20.428099 19.5 20.46875 C 19.282635 19.982032 19.076209 19.183888 19.03125 17.9375 C 20.0631 17.245462 21 16.139708 21 14.40625 C 21 12.070729 18.876187 10 16 10 C 13.123813 10 11 12.070341 11 14.40625 C 11 16.139708 11.936229 17.245601 12.96875 17.9375 C 12.923792 19.183888 12.717366 19.982032 12.5 20.46875 C 12.476554 20.428096 12.461196 20.384141 12.4375 20.34375 C 12.153149 19.859052 11.818727 19.366992 11.5 18.8125 C 10.862547 17.703515 10.28125 16.347641 10.28125 14.34375 C 10.28125 10.212369 13.40625 8.90625 13.40625 8.90625 L 13.6875 8.78125 L 13.875 8.5 C 13.875 8.5 14.912601 7 16 7 z M 7.25 11 C 7.8598893 11 8.4052669 11.204333 8.8125 11.375 C 8.6620809 11.78296 8.5250156 12.204404 8.4375 12.6875 C 8.1241117 12.826366 7.6638723 13 7.1875 13 C 6.6883016 12.997637 6.1169977 12.603213 5.65625 12.03125 C 5.4840353 11.817466 5.36454 11.606481 5.25 11.40625 C 5.6707903 11.213456 6.3200316 11 7.25 11 z M 24.75 11 C 25.679968 11 26.32921 11.213456 26.75 11.40625 C 26.635452 11.606469 26.515995 11.817477 26.34375 12.03125 C 25.889579 12.594923 25.307396 12.986325 24.8125 13 C 24.7997 13 24.79415 13.000291 24.78125 13 C 24.310015 12.989369 23.868343 12.822823 23.5625 12.6875 C 23.474984 12.204404 23.337919 11.78296 23.1875 11.375 C 23.594493 11.204333 24.139357 11 24.75 11 z M 16 12 C 17.937813 12 19 13.307771 19 14.40625 C 19 15.71595 18.226127 16.383538 17.625 16.625 L 17 16.875 L 17 17.5625 C 17 19.906604 17.502897 21.285738 18.15625 22.125 C 18.482926 22.544631 18.857065 22.815923 19.15625 22.96875 C 19.274029 23.028913 19.395469 23.059243 19.5 23.09375 C 19.722 23.462891 20 23.986772 20 24.65625 C 20 24.780282 19.978815 24.870069 19.90625 24.96875 C 19.694699 24.396804 19.145483 24 18.5 24 C 17.671573 24 17 24.671573 17 25.5 C 17 25.648427 17.022344 25.802104 17.0625 25.9375 C 16.724889 25.967757 16.369 26 16 26 C 15.631 26 15.275111 25.967757 14.9375 25.9375 C 14.977656 25.802104 15 25.648427 15 25.5 C 15 24.671573 14.328427 24 13.5 24 C 12.854517 24 12.305301 24.396804 12.09375 24.96875 C 12.021186 24.870069 12 24.780282 12 24.65625 C 12 23.986772 12.278 23.462891 12.5 23.09375 C 12.604531 23.059243 12.725971 23.028914 12.84375 22.96875 C 13.142935 22.815923 13.517074 22.544631 13.84375 22.125 C 14.497103 21.285738 15 19.906604 15 17.5625 L 15 16.875 L 14.375 16.625 C 13.775434 16.384795 13 15.71595 13 14.40625 C 13 13.308159 14.062187 12 16 12 z" overflow="visible" font-family="Bitstream Vera Sans" fill="#000000"/></svg>
