<?xml version="1.0" encoding="utf-8"?>
<svg xmlns="http://www.w3.org/2000/svg" viewBox="0 0 32 32" fill="#000000"><path d="M 16 3 C 8.832 3 3 8.832 3 16 C 3 23.168 8.832 29 16 29 C 23.168 29 29 23.168 29 16 C 29 12.856 27.865 9.96975 26 7.71875 L 24.375 8.875 C 24.380228 8.8811473 24.369785 8.9000912 24.375 8.90625 L 21.75 10.65625 L 22.84375 12.3125 L 25.53125 10.53125 C 26.463726 12.144266 27 14.006635 27 16 C 27 22.065 22.065 27 16 27 C 9.935 27 5 22.065 5 16 C 5 9.935 9.935 5 16 5 C 18.115 5 20.072 5.61725 21.75 6.65625 L 23.5 5.40625 C 21.376 3.89525 18.799 3 16 3 z M 16 11 C 13.239 11 11 13.239 11 16 C 11 18.761 13.239 21 16 21 C 18.761 21 21 18.761 21 16 C 21 13.239 18.761 11 16 11 z M 16 14 C 17.105 14 18 14.895 18 16 C 18 17.105 17.105 18 16 18 C 14.895 18 14 17.105 14 16 C 14 14.895 14.895 14 16 14 z" fill="#000000"/></svg>
