<?xml version="1.0" encoding="utf-8"?>
<svg xmlns="http://www.w3.org/2000/svg" viewBox="0 0 32 32" fill="#000000"><path d="M 21 3.59375 L 20.28125 4.28125 L 19.28125 5.28125 L 19 5.59375 L 19 6 L 19 10 L 17 10 L 16.625 10 L 16.34375 10.25 L 9.34375 16.25 L 9 16.53125 L 9 17 L 9 18.875 L 3.75 23.375 L 3 24.03125 L 3.6875 24.78125 L 6.25 27.65625 L 6.5625 28 L 7 28 L 8.34375 28 L 9.03125 28 L 9.28125 27.34375 L 11.71875 20.875 L 14.09375 26.40625 L 14.34375 27 L 15 27 L 15.0625 27 L 15.46875 27 L 15.78125 26.6875 L 17.71875 24.6875 L 18.1875 24.21875 L 17.90625 23.59375 L 15.1875 17.21875 L 15.625 16.84375 C 16.007553 17.291219 16.454326 17.78461 17.09375 18.28125 C 18.86409 19.656271 21.732372 21 26 21 L 27 21 L 27 20 L 27 17 L 27 16 L 26 16 C 22.690476 16 20.963814 15.078945 20.03125 14.25 C 19.74072 13.991752 19.56132 13.743333 19.40625 13.53125 L 27.9375 6.0625 L 26 4 L 23.5625 6.125 L 21.71875 4.28125 L 21 3.59375 z M 21 6.4375 L 22.03125 7.46875 L 21 8.375 L 21 6.4375 z M 17.90625 14.84375 C 18.129364 15.140055 18.380517 15.449348 18.71875 15.75 C 19.890717 16.791748 21.989003 17.642038 25 17.84375 L 25 18.84375 C 21.822401 18.636162 19.608335 17.725223 18.3125 16.71875 C 17.765275 16.293721 17.386915 15.910215 17.09375 15.5625 L 17.90625 14.84375 z M 13.59375 18.59375 L 15.8125 23.78125 L 15.34375 24.28125 L 13.09375 19.03125 L 13.59375 18.59375 z M 9.53125 21.03125 L 7.65625 26 L 7.4375 26 L 5.84375 24.21875 L 9.53125 21.03125 z" fill="#000000"/></svg>
