<?xml version="1.0" encoding="utf-8"?>
<svg xmlns="http://www.w3.org/2000/svg" viewBox="0 0 32 32" fill="#000000"><path style="text-indent:0;text-align:start;line-height:normal;text-transform:none;block-progression:tb;-inkscape-font-specification:Sans" d="M 9 4 C 7.3549904 4 6 5.3549904 6 7 C 6 8.6450096 7.3549904 10 9 10 C 10.645009 10 12 8.6450099 12 7 C 12 5.3549901 10.645009 4 9 4 z M 22 4 C 19.250421 4 17 6.2504209 17 9 C 17 11.749579 19.250421 14 22 14 C 24.749579 14 27 11.749579 27 9 C 27 6.2504209 24.749579 4 22 4 z M 9 6 C 9.5641286 6 10 6.4358709 10 7 C 10 7.5641291 9.5641286 8 9 8 C 8.4358706 8 8 7.5641294 8 7 C 8 6.4358706 8.4358706 6 9 6 z M 22 6 C 23.668699 6 25 7.3313011 25 9 C 25 10.668699 23.668699 12 22 12 C 20.331301 12 19 10.668699 19 9 C 19 7.3313011 20.331301 6 22 6 z M 21 7 L 21 9 L 21 9.40625 L 21.28125 9.71875 L 22.5625 10.96875 L 23.96875 9.5625 L 23 8.5625 L 23 7 L 21 7 z M 6.96875 10.78125 L 5.03125 11.21875 L 7.03125 20.21875 C 7.03125 20.21875 7.3133377 21.419984 8.1875 22.59375 C 9.0616623 23.767516 10.64913 25 13 25 L 17 25 L 17 23 L 13 23 C 11.30887 23 10.396588 22.232484 9.78125 21.40625 C 9.1659123 20.580016 8.96875 19.78125 8.96875 19.78125 L 6.96875 10.78125 z M 10.96875 10.78125 L 9.03125 11.21875 L 10.59375 18.3125 C 10.941315 19.871618 12.339651 21 13.9375 21 L 16.96875 21 C 17.661827 21 18.251253 21.474753 18.375 22.15625 L 19 28.09375 L 21 27.90625 L 20.34375 21.875 L 20.34375 21.84375 L 20.34375 21.8125 C 20.049497 20.191997 18.615673 19 16.96875 19 L 13.9375 19 C 13.265349 19 12.708935 18.531882 12.5625 17.875 L 10.96875 10.78125 z" overflow="visible" font-family="Sans" fill="#000000"/></svg>
