<?xml version="1.0" encoding="utf-8"?>
<svg xmlns="http://www.w3.org/2000/svg" viewBox="0 0 32 32" fill="#000000"><path style="text-indent:0;text-align:start;line-height:normal;text-transform:none;block-progression:tb;-inkscape-font-specification:Bitstream Vera Sans" d="M 3 10 L 3 11 L 3 17 L 3 17.375 L 3.25 17.6875 L 6.9375 21.6875 L 7.25 22 L 7.6875 22 L 24.3125 22 L 24.75 22 L 25.0625 21.6875 L 28.75 17.6875 L 29 17.375 L 29 17 L 29 11 L 29 10 L 28 10 L 4 10 L 3 10 z M 5 12 L 27 12 L 27 16.59375 L 23.875 20 L 8.125 20 L 5 16.59375 L 5 12 z M 7 13 L 7 15 L 9 15 L 9 16 L 11 16 L 11 15 L 12 15 L 12 16 L 14 16 L 14 15 L 15 15 L 15 16 L 17 16 L 17 15 L 18 15 L 18 16 L 20 16 L 20 15 L 21 15 L 21 16 L 23 16 L 23 15 L 25 15 L 25 13 L 7 13 z" overflow="visible" font-family="Bitstream Vera Sans" fill="#000000"/></svg>
