<?xml version="1.0" encoding="utf-8"?>
<svg xmlns="http://www.w3.org/2000/svg" viewBox="0 0 32 32" fill="#000000"><path style="text-indent:0;text-align:start;line-height:normal;text-transform:none;block-progression:tb;-inkscape-font-specification:Sans" d="M 16 6 C 10.488997 6 6 10.488997 6 16 C 6 21.511003 10.488997 26 16 26 C 21.511003 26 26 21.511003 26 16 C 26 10.488997 21.511003 6 16 6 z M 5 7.375 C 3.1316762 9.745133 2 12.750157 2 16 C 2 19.249843 3.1318427 22.254001 5 24.625 L 6.5625 23.375 C 4.9606573 21.341999 4 18.792157 4 16 C 4 13.207843 4.9608238 10.656867 6.5625 8.625 L 5 7.375 z M 27 7.375 L 25.4375 8.625 C 27.039343 10.658001 28 13.207843 28 16 C 28 18.792157 27.039434 21.341883 25.4375 23.375 L 27 24.625 C 28.868066 22.254117 30 19.249843 30 16 C 30 12.750157 28.868157 9.7459985 27 7.375 z M 16 8 C 20.430123 8 24 11.569877 24 16 C 24 20.430123 20.430123 24 16 24 C 11.569877 24 8 20.430123 8 16 C 8 11.569877 11.569877 8 16 8 z M 15 10 L 15 19 L 17 19 L 17 10 L 15 10 z M 15 20 L 15 22 L 17 22 L 17 20 L 15 20 z" overflow="visible" font-family="Sans" fill="#000000"/></svg>
