<?xml version="1.0" encoding="utf-8"?>
<svg xmlns="http://www.w3.org/2000/svg" viewBox="0 0 32 32" fill="#000000"><path style="text-indent:0;text-align:start;line-height:normal;text-transform:none;block-progression:tb;-inkscape-font-specification:Sans" d="M 16 3.84375 L 15.5 4.125 L 5.625 9.625 L 5.09375 9.90625 L 5.09375 10.5 L 5.09375 21.5 L 5.09375 22.09375 L 5.625 22.375 L 15.5 27.875 L 16 28.15625 L 16.5 27.875 L 26.375 22.375 L 26.90625 22.09375 L 26.90625 21.5 L 26.90625 10.5 L 26.90625 9.90625 L 26.375 9.625 L 16.5 4.125 L 16 3.84375 z M 16 6.15625 L 24.90625 11.09375 L 24.90625 20.90625 L 16 25.84375 L 7.09375 20.90625 L 7.09375 11.09375 L 16 6.15625 z M 16 9.96875 C 13.732 12.66475 9 12.795 9 16.125 C 9 17.748 9.91225 19 12.03125 19 C 13.40825 19 14.627 17.9395 15 17.6875 L 15 20.84375 L 16 21.6875 L 17 20.84375 L 17 17.6875 C 17.372 17.9395 18.59075 19 19.96875 19 C 22.08775 19 23 17.748 23 16.125 C 23 12.956 18.268 12.66475 16 9.96875 z M 15 13.125 L 15 15.75 C 15 15.75 12.8735 16.906 12.6875 17 C 12.4795 17.105 12.27425 17.21875 12.03125 17.21875 C 11.39725 17.21875 10.875 16.6965 10.875 16.0625 C 10.875 15.5865 11.19475 15.227 11.59375 15 L 15 13.125 z M 17 13.125 L 20.4375 15 C 20.8365 15.227 21.125 15.5865 21.125 16.0625 C 21.125 16.6965 20.60275 17.21875 19.96875 17.21875 C 19.72575 17.21875 19.5305 17.095 19.3125 17 C 19.1645 16.935 17 15.71875 17 15.71875 L 17 13.125 z" overflow="visible" font-family="Sans" fill="#000000"/></svg>
