<?xml version="1.0" encoding="utf-8"?>
<svg xmlns="http://www.w3.org/2000/svg" viewBox="0 0 32 32" fill="#000000"><path style="text-indent:0;text-align:start;line-height:normal;text-transform:none;block-progression:tb;-inkscape-font-specification:Sans" d="M 16 4.90625 L 15.625 5.0625 L 3.625 10.0625 L 3 10.34375 L 3 11 L 3 26 L 3 27 L 4 27 L 28 27 L 29 27 L 29 26 L 29 11 L 29 10.34375 L 28.375 10.0625 L 16.375 5.0625 L 16 4.90625 z M 16 7.09375 L 27 11.6875 L 27 25 L 25 25 L 25 15 L 25 14 L 24 14 L 8 14 L 7 14 L 7 15 L 7 25 L 5 25 L 5 11.6875 L 16 7.09375 z M 9 16 L 23 16 L 23 25 L 9 25 L 9 16 z" overflow="visible" font-family="Sans" fill="#000000"/></svg>
