<?xml version="1.0" encoding="utf-8"?>
<svg xmlns="http://www.w3.org/2000/svg" viewBox="0 0 32 32" fill="#000000"><path style="text-indent:0;text-align:start;line-height:normal;text-transform:none;block-progression:tb;-inkscape-font-specification:Sans" d="M 9 4 L 9 5 L 6 5 L 5 5 L 5 6 L 5 26 L 5 27 L 6 27 L 26 27 L 27 27 L 27 26 L 27 6 L 27 5 L 26 5 L 23 5 L 23 4 L 21 4 L 21 5 L 11 5 L 11 4 L 9 4 z M 7 7 L 9 7 L 9 8 L 11 8 L 11 7 L 21 7 L 21 8 L 23 8 L 23 7 L 25 7 L 25 9 L 7 9 L 7 7 z M 7 11 L 25 11 L 25 25 L 7 25 L 7 11 z M 14 14 L 14 15 L 14 17 L 14 17.8125 L 14.78125 17.96875 L 16.90625 18.4375 C 16.943635 18.50864 17 18.573866 17 18.65625 L 17 19.5 C 17 19.786937 16.786937 20 16.5 20 C 16.213063 20 16 19.786937 16 19.5 L 16 19 L 14 19 L 14 19.5 C 14 20.869063 15.130937 22 16.5 22 C 17.869063 22 19 20.869063 19 19.5 L 19 18.65625 C 19 17.956885 18.705067 17.286658 18.1875 16.8125 L 18 16.625 L 17.71875 16.5625 L 16 16.1875 L 16 16 L 19 16 L 19 14 L 15 14 L 14 14 z" overflow="visible" font-family="Sans" fill="#000000"/></svg>
