<?xml version="1.0" encoding="utf-8"?>
<svg xmlns="http://www.w3.org/2000/svg" viewBox="0 0 32 32" fill="#000000"><path style="text-indent:0;text-align:start;line-height:normal;text-transform:none;block-progression:tb;-inkscape-font-specification:Sans" d="M 8.5 6 C 7.1763928 6 5.9813755 6.8385984 5.5625 8.09375 L 3.0625 15.6875 L 3.125 15.71875 C 3.0492577 15.953958 3 16.210389 3 16.46875 L 3 23.53125 C 3 24.881168 4.1188323 26 5.46875 26 L 26.53125 26 C 27.881168 26 29 24.881168 29 23.53125 L 29 16.46875 C 29 16.210389 28.950742 15.953958 28.875 15.71875 L 28.9375 15.6875 L 26.4375 8.09375 C 26.018625 6.8385984 24.823607 6 23.5 6 L 8.5 6 z M 8.5 8 L 23.5 8 C 23.970393 8 24.382125 8.3031516 24.53125 8.75 L 26.28125 14 L 5.71875 14 L 7.46875 8.75 C 7.6178745 8.3031516 8.0296072 8 8.5 8 z M 7 16 L 25 16 L 16 22.75 L 7 16 z M 5 17 L 6.84375 18.375 C 6.3326565 18.737312 6 19.325832 6 20 C 6 21.104569 6.8954305 22 8 22 C 8.8733003 22 9.6023325 21.436523 9.875 20.65625 L 14.3125 24 L 5.46875 24 C 5.1986677 24 5 23.801332 5 23.53125 L 5 17 z M 27 17 L 27 23.53125 C 27 23.801332 26.801332 24 26.53125 24 L 17.6875 24 L 22.125 20.65625 C 22.397668 21.436523 23.1267 22 24 22 C 25.104569 22 26 21.104569 26 20 C 26 19.325832 25.667344 18.737312 25.15625 18.375 L 27 17 z" overflow="visible" font-family="Sans" fill="#000000"/></svg>
