<?xml version="1.0" encoding="utf-8"?>
<svg xmlns="http://www.w3.org/2000/svg" viewBox="0 0 32 32" fill="#000000"><path d="M 8 3 L 8 5 C 9.032 5 9.987 6.212 11 7.5 C 11.129 7.664 11.27225 7.834 11.40625 8 L 12.46875 8 C 12.24575 7.199 12.1245 6.382 12.0625 5.625 C 10.9475 4.247 9.736 3 8 3 z M 13 3 C 13 3.7048313 12.94022 5.1506933 13.1875 6.65625 C 13.314735 7.4308996 13.537175 8.2468375 13.90625 9 L 10.3125 9 C 8.5004572 9 7.0654221 10.600024 7.25 12.40625 C 7.541896 15.259139 7.9888969 19.886175 8 20 C 8.0000453 20.000464 7.9999697 20.03094 8 20.03125 C 7.99851 20.05883 7.96638 20.316132 7.84375 20.5625 C 7.7144515 20.822266 7.6726599 21 7 21 C 6.3273401 21 6.2855485 20.822266 6.15625 20.5625 C 6.0269515 20.302734 6 20 6 20 L 6 14 L 6 13.96875 C 6 13.96875 5.978855 13.117197 5.65625 12.1875 C 5.4949475 11.722651 5.2728674 11.216313 4.84375 10.78125 C 4.4146326 10.346187 3.7401882 10 3 10 L 3 12 C 3.2188118 12 3.2805549 12.02881 3.40625 12.15625 C 3.5319451 12.283687 3.6823025 12.527349 3.78125 12.8125 C 3.9742292 13.368636 3.9985597 13.969931 4 14 C 4.0000367 14.000766 4 14.03125 4 14.03125 L 4 20 C 4 20 3.975299 20.697266 4.34375 21.4375 C 4.7122015 22.177734 5.6636599 23 7 23 C 8.3363401 23 9.2877985 22.177734 9.65625 21.4375 C 10.024702 20.697266 10 20 10 20 L 10 19.9375 L 10 19.90625 C 10 19.90625 9.5152848 15.085726 9.21875 12.1875 C 9.1513279 11.527726 9.6465428 11 10.3125 11 L 16 11 L 21.6875 11 C 22.353457 11 22.848672 11.527726 22.78125 12.1875 C 22.484715 15.085726 22 19.90625 22 19.90625 L 22 19.9375 L 22 20 C 22 20 21.9753 20.697266 22.34375 21.4375 C 22.712202 22.177734 23.66366 23 25 23 C 26.33634 23 27.287798 22.177734 27.65625 21.4375 C 28.024702 20.697266 28 20 28 20 L 28 14.03125 L 28 14 C 28.0014 13.96993 28.02577 13.368636 28.21875 12.8125 C 28.3177 12.527349 28.468055 12.283687 28.59375 12.15625 C 28.719445 12.028813 28.781188 12 29 12 L 29 10 C 28.259812 10 27.585367 10.346187 27.15625 10.78125 C 26.727133 11.216313 26.505052 11.722651 26.34375 12.1875 C 26.021145 13.117197 26 13.96875 26 13.96875 L 26 14 L 26 20 C 26 20 25.97305 20.302734 25.84375 20.5625 C 25.714452 20.822266 25.67266 21 25 21 C 24.32734 21 24.285548 20.822266 24.15625 20.5625 C 24.03362 20.316132 24.001492 20.058826 24 20.03125 C 23.999919 20.02975 24 20 24 20 C 24.0111 19.886175 24.458104 15.259139 24.75 12.40625 C 24.934578 10.600024 23.499543 9 21.6875 9 L 18.09375 9 C 18.462825 8.2468375 18.685265 7.4308996 18.8125 6.65625 C 19.059785 5.1506933 19 3.7048313 19 3 L 17 3 C 17 3.7891687 17.04922 5.0928067 16.84375 6.34375 C 16.697146 7.2363288 16.414895 8.029433 16 8.59375 C 15.585105 8.029433 15.302854 7.2363288 15.15625 6.34375 C 14.950785 5.0928067 15 3.7891687 15 3 L 13 3 z M 24 3 C 22.264 3 21.0535 4.247 19.9375 5.625 C 19.8765 6.382 19.75425 7.199 19.53125 8 L 20.59375 8 C 20.72775 7.834 20.871 7.664 21 7.5 C 22.013 6.212 22.968 5 24 5 L 24 3 z M 6 6 C 6 7.084 6.65125 8.064 7.78125 8.875 C 8.49825 8.312 9.3895 8 10.3125 8 C 8.8469381 7.3928011 8 6.6120544 8 6 L 6 6 z M 24 6 C 24 6.6120544 23.153062 7.3928011 21.6875 8 C 22.6105 8 23.50275 8.312 24.21875 8.875 C 25.34875 8.064 26 7.084 26 6 L 24 6 z M 11 12 C 11 13.943 13.107 13.8725 13.875 20.9375 C 14.209 24.0045 15.621 25.96875 16 25.96875 C 16.379 25.96875 17.791 24.0045 18.125 20.9375 C 18.893 13.8725 21 13.943 21 12 L 16 12 L 11 12 z M 13 13 L 15 14 C 15 14.552 14.552 15 14 15 C 13.167 15 13 13.552 13 13 z M 19 13 C 19 13.552 18.833 15 18 15 C 17.448 15 17 14.552 17 14 L 19 13 z M 13.34375 23.21875 C 12.81575 23.52075 12.03125 24.12425 12.03125 24.90625 C 12.03125 26.06825 13.41225 26.6455 14.03125 27.1875 C 14.65125 27.7295 15.127 29 16 29 C 16.873 29 17.38 27.7295 18 27.1875 C 18.62 26.6445 20 26.06825 20 24.90625 C 20.001 24.13325 19.2155 23.555 18.6875 23.25 C 18.1005 25.387 17.009 27 16 27 C 14.954 27 13.92475 25.24675 13.34375 23.21875 z" fill="#000000"/></svg>
