<?xml version="1.0" encoding="utf-8"?>
<svg xmlns="http://www.w3.org/2000/svg" viewBox="0 0 32 32" fill="#000000"><path style="text-indent:0;text-align:start;line-height:normal;text-transform:none;block-progression:tb;-inkscape-font-specification:Bitstream Vera Sans" d="M 8 4 L 8 5 L 8 27 L 8 28 L 9 28 L 23 28 L 24 28 L 24 27 L 24 5 L 24 4 L 23 4 L 9 4 L 8 4 z M 10 6 L 22 6 L 22 26 L 10 26 L 10 6 z M 12 8 L 12 10 L 20 10 L 20 8 L 12 8 z M 12 12 L 12 14 L 20 14 L 20 12 L 12 12 z M 16 20 C 15.447715 20 15 20.447715 15 21 C 15 21.552285 15.447715 22 16 22 C 16.552285 22 17 21.552285 17 21 C 17 20.447715 16.552285 20 16 20 z" overflow="visible" font-family="Bitstream Vera Sans" fill="#000000"/></svg>
