<?xml version="1.0" encoding="utf-8"?>
<svg xmlns="http://www.w3.org/2000/svg" viewBox="0 0 32 32" fill="#000000"><path style="text-indent:0;text-align:start;line-height:normal;text-transform:none;block-progression:tb;-inkscape-font-specification:Sans" d="M 16 3 C 12.145852 3 9 6.1458513 9 10 C 9 12.408843 10.23116 14.55212 12.09375 15.8125 C 8.5266131 17.342333 6 20.881262 6 25 L 8 25 C 8 20.569334 11.569334 17 16 17 C 20.430666 17 24 20.569334 24 25 L 26 25 C 26 20.881262 23.473387 17.342333 19.90625 15.8125 C 21.76884 14.55212 23 12.408843 23 10 C 23 6.1458513 19.854148 3 16 3 z M 16 5 C 18.773268 5 21 7.2267317 21 10 C 21 12.773268 18.773268 15 16 15 C 13.226732 15 11 12.773268 11 10 C 11 7.2267317 13.226732 5 16 5 z M 13.875 20 L 13.59375 20.5625 L 13.375 21 L 12 21 L 11 21 L 11 22 L 11 28 L 11 29 L 12 29 L 20 29 L 21 29 L 21 28 L 21 22 L 21 21 L 20 21 L 18.625 21 L 18.40625 20.5625 L 18.125 20 L 17.5 20 L 14.5 20 L 13.875 20 z M 15.125 22 L 16.875 22 L 17.09375 22.4375 L 17.375 23 L 18 23 L 19 23 L 19 27 L 13 27 L 13 23 L 14 23 L 14.625 23 L 14.90625 22.4375 L 15.125 22 z M 16 24 C 15.447715 24 15 24.447715 15 25 C 15 25.552285 15.447715 26 16 26 C 16.552285 26 17 25.552285 17 25 C 17 24.447715 16.552285 24 16 24 z" overflow="visible" font-family="Sans" fill="#000000"/></svg>
