<?xml version="1.0" encoding="utf-8"?>
<svg xmlns="http://www.w3.org/2000/svg" viewBox="0 0 32 32" fill="#000000"><path style="text-indent:0;text-align:start;line-height:normal;text-transform:none;block-progression:tb;-inkscape-font-specification:Bitstream Vera Sans" d="M 16 3 L 13 9 L 16 8 L 19 9 L 16 3 z M 12.46875 5.59375 C 8.432205 6.9678137 5.4254198 10.606297 5.03125 15 L 3 15 L 3 17 L 5.0625 17 C 5.5396249 22.268763 9.7312371 26.460375 15 26.9375 L 15 29 L 17 29 L 17 26.9375 C 22.268763 26.460375 26.460375 22.268763 26.9375 17 L 29 17 L 29 15 L 26.96875 15 C 26.57458 10.606297 23.567795 6.9678137 19.53125 5.59375 L 21 8.53125 C 23.151125 9.9724678 24.638428 12.300348 24.9375 15 L 23 15 L 23 17 L 24.9375 17 C 24.469166 21.153563 21.152928 24.469273 17 24.9375 L 17 23 L 15 23 L 15 24.9375 C 10.847072 24.469273 7.5308335 21.153563 7.0625 17 L 9 17 L 9 15 L 7.0625 15 C 7.3615723 12.300348 8.8488755 9.9724678 11 8.53125 L 12.46875 5.59375 z" overflow="visible" font-family="Bitstream Vera Sans" fill="#000000"/></svg>
