<?xml version="1.0" encoding="utf-8"?>
<svg xmlns="http://www.w3.org/2000/svg" viewBox="0 0 32 32" fill="#000000"><path style="text-indent:0;text-align:start;line-height:normal;text-transform:none;block-progression:tb;-inkscape-font-specification:Sans" d="M 7.4375 3 L 7.15625 3.46875 C 7.15625 3.46875 4 8.6778284 4 16 C 4 23.322172 7.15625 28.53125 7.15625 28.53125 L 7.4375 29 L 8 29 L 24 29 L 24.5625 29 L 24.84375 28.53125 C 24.84375 28.53125 28 23.322172 28 16 C 28 8.6778284 24.84375 3.46875 24.84375 3.46875 L 24.5625 3 L 24 3 L 8 3 L 7.4375 3 z M 8.625 5 L 9.8125 5 C 9.6957333 5.7101692 9.545125 6.6937548 9.40625 8 L 7.3125 8 C 7.8790321 6.3617194 8.457589 5.2930838 8.625 5 z M 11.8125 5 L 15 5 L 15 8 L 11.4375 8 C 11.586555 6.6461349 11.704303 5.6333155 11.8125 5 z M 17 5 L 20.1875 5 C 20.29588 5.6333155 20.41338 6.6461349 20.5625 8 L 17 8 L 17 5 z M 22.1875 5 L 23.375 5 C 23.542411 5.2930838 24.120968 6.3617194 24.6875 8 L 22.59375 8 C 22.45482 6.6937548 22.304415 5.7101692 22.1875 5 z M 6.75 10 L 9.21875 10 C 9.0871718 11.711793 9 13.708795 9 16 C 9 18.291205 9.0871718 20.288207 9.21875 22 L 6.75 22 C 6.3401095 20.338284 6 18.318638 6 16 C 6 13.681362 6.3401095 11.661716 6.75 10 z M 11.25 10 L 15 10 L 15 22 L 11.25 22 C 11.113387 20.293346 11 18.303351 11 16 C 11 13.696649 11.11342 11.706654 11.25 10 z M 17 10 L 20.75 10 C 20.886613 11.706654 21 13.696649 21 16 C 21 18.303351 20.88658 20.293346 20.75 22 L 17 22 L 17 10 z M 22.78125 10 L 25.25 10 C 25.65989 11.661716 26 13.681362 26 16 C 26 18.318638 25.65989 20.338284 25.25 22 L 22.78125 22 C 22.912828 20.288207 23 18.291205 23 16 C 23 13.708795 22.912858 11.711793 22.78125 10 z M 7.3125 24 L 9.40625 24 C 9.545125 25.306245 9.6957333 26.289831 9.8125 27 L 8.625 27 C 8.457589 26.706916 7.8790321 25.63828 7.3125 24 z M 11.4375 24 L 15 24 L 15 27 L 11.8125 27 C 11.70412 26.366685 11.58662 25.353865 11.4375 24 z M 17 24 L 20.5625 24 C 20.413445 25.353865 20.295697 26.366685 20.1875 27 L 17 27 L 17 24 z M 22.59375 24 L 24.6875 24 C 24.120968 25.63828 23.542411 26.706916 23.375 27 L 22.1875 27 C 22.304267 26.289831 22.454875 25.306245 22.59375 24 z" overflow="visible" font-family="Sans" fill="#000000"/></svg>
