<?xml version="1.0" encoding="utf-8"?>
<svg xmlns="http://www.w3.org/2000/svg" viewBox="0 0 32 32" fill="#000000"><path style="text-indent:0;text-align:start;line-height:normal;text-transform:none;block-progression:tb;-inkscape-font-specification:Bitstream Vera Sans" d="M 9 7 L 9 8 L 9 11 L 0 11 L 0 13 L 9 13 L 9 19 L 0 19 L 0 21 L 9 21 L 9 24 L 9 25 L 10 25 L 14 25 L 15 25 L 15 24 C 15 23.445455 15.445455 23 16 23 C 16.554545 23 17 23.445455 17 24 L 17 25 L 18 25 L 28 25 C 30.209804 25 32 23.209804 32 21 L 32 11 C 32 8.7901961 30.209804 7 28 7 L 18 7 L 17 7 L 17 8 C 17 8.5545455 16.554545 9 16 9 C 15.445455 9 15 8.5545455 15 8 L 15 7 L 14 7 L 10 7 L 9 7 z M 11 9 L 13 9 L 13 23 L 11 23 L 11 9 z M 19 9 L 28 9 C 29.190196 9 30 9.8098039 30 11 L 30 21 C 30 22.190196 29.190196 23 28 23 L 19 23 L 19 9 z M 15 10.78125 C 15.302808 10.916087 15.63278 11 16 11 C 16.36722 11 16.697192 10.916087 17 10.78125 L 17 21.21875 C 16.697192 21.083913 16.36722 21 16 21 C 15.63278 21 15.302808 21.083913 15 21.21875 L 15 10.78125 z" overflow="visible" font-family="Bitstream Vera Sans" fill="#000000"/></svg>
