<?xml version="1.0" encoding="utf-8"?>
<svg xmlns="http://www.w3.org/2000/svg" viewBox="0 0 32 32" fill="#000000"><path d="M 12 2 L 12 3 L 12 7 L 12 8 L 13 8 L 14 8 L 14 10 L 9 10 L 8 10 L 8 11 L 8 29 L 8 30 L 9 30 L 21 30 L 22 30 L 22 29 L 22 11 L 22 10 L 21 10 L 16 10 L 16 8 L 17 8 L 18 8 L 18 7 L 18 3 L 18 2 L 17 2 L 13 2 L 12 2 z M 24 2 C 23.447715 2 23 2.4477153 23 3 C 23 3.5522847 23.447715 4 24 4 C 24.552285 4 25 3.5522847 25 3 C 25 2.4477153 24.552285 2 24 2 z M 14 4 L 16 4 L 16 6 L 14 6 L 14 4 z M 21 4 C 20.447715 4 20 4.4477153 20 5 C 20 5.5522847 20.447715 6 21 6 C 21.552285 6 22 5.5522847 22 5 C 22 4.4477153 21.552285 4 21 4 z M 24 6 C 23.447715 6 23 6.4477153 23 7 C 23 7.5522847 23.447715 8 24 8 C 24.552285 8 25 7.5522847 25 7 C 25 6.4477153 24.552285 6 24 6 z M 10 12 L 20 12 L 20 28 L 10 28 L 10 12 z M 15 16 C 12.802706 16 11 17.802706 11 20 C 11 22.197294 12.802706 24 15 24 C 17.197294 24 19 22.197294 19 20 C 19 17.802706 17.197294 16 15 16 z M 15 18 C 15.17444 18 15.339411 18.021839 15.5 18.0625 L 13.0625 20.5 C 13.021839 20.339411 13 20.17444 13 20 C 13 18.883586 13.883586 18 15 18 z M 16.9375 19.5 C 16.978161 19.660589 17 19.82556 17 20 C 17 21.116414 16.116414 22 15 22 C 14.82556 22 14.660589 21.978161 14.5 21.9375 L 16.9375 19.5 z" fill="#000000"/></svg>
