<?xml version="1.0" encoding="utf-8"?>
<svg xmlns="http://www.w3.org/2000/svg" viewBox="0 0 32 32" fill="#000000"><path d="M 3.0625 10 L 5.78125 19.96875 C 5.78125 19.96875 6.15275 22 7.71875 22 C 9.28575 22 9.65625 19.96875 9.65625 19.96875 L 11.40625 13.53125 L 13.125 19.96875 C 13.125 19.96875 13.4955 22 15.0625 22 C 16.6285 22 17 19.96875 17 19.96875 L 19.75 10 L 17.15625 10 L 14.9375 18.875 C 14.9375 18.875 13.541 13.57525 13.125 11.78125 C 12.708 9.99125 11.40625 10 11.40625 10 C 11.40625 10 10.07425 9.99125 9.65625 11.78125 C 9.24025 13.57525 7.875 18.875 7.875 18.875 L 5.625 10 L 3.0625 10 z M 22.5625 10 C 21.7635 10 21.09375 10.6405 21.09375 11.4375 C 21.09375 12.2405 21.7635 12.90625 22.5625 12.90625 C 23.3615 12.90625 24 12.2405 24 11.4375 C 24 10.6405 23.3615 10 22.5625 10 z M 27.4375 10 C 26.6385 10 26 10.6405 26 11.4375 C 26 12.2405 26.6385 12.90625 27.4375 12.90625 C 28.2375 12.90625 28.90625 12.2405 28.90625 11.4375 C 28.90625 10.6405 28.2375 10 27.4375 10 z M 21.25 14 L 21.25 22 L 23.6875 22 L 23.6875 14 L 21.25 14 z M 26.28125 14 L 26.28125 22 L 28.71875 22 L 28.71875 14 L 26.28125 14 z" fill="#000000"/></svg>
