<?xml version="1.0" encoding="utf-8"?>
<svg xmlns="http://www.w3.org/2000/svg" viewBox="0 0 32 32" fill="#000000"><path d="M 28 3.46875 L 26.59375 4.09375 L 19.96875 6.9375 L 12.34375 4.0625 L 11.96875 3.9375 L 11.59375 4.09375 L 4.59375 7.09375 L 4 7.34375 L 4 8 L 4 22 L 4 26.53125 L 12.03125 23.0625 L 20 26.0625 L 20 23.90625 L 19.96875 23.9375 L 11.96875 20.9375 L 6 23.46875 L 6 22 L 6 8.65625 L 12.03125 6.0625 L 19.65625 8.9375 L 20.03125 9.0625 L 20.40625 8.90625 L 26 6.5 L 26 19 L 28 19 L 28 5 L 28 3.46875 z M 11 9 L 11 11 L 13 11 L 13 9 L 11 9 z M 19 10 L 19 12 L 21 12 L 21 10 L 19 10 z M 11 13 L 11 15 L 13 15 L 13 13 L 11 13 z M 19 14 L 19 16 L 21 16 L 21 14 L 19 14 z M 11 17 L 11 19 L 13 19 L 13 17 L 11 17 z M 19 18 L 19 20 L 21 20 L 21 18 L 19 18 z M 25.5 22 C 24.130937 22 23 23.130937 23 24.5 L 23 27.5 C 23 28.869063 24.130937 30 25.5 30 C 26.869063 30 28 28.869063 28 27.5 L 28 24.5 C 28 23.130937 26.869063 22 25.5 22 z M 25.5 24 C 25.786937 24 26 24.213063 26 24.5 L 26 27.5 C 26 27.786937 25.786937 28 25.5 28 C 25.213063 28 25 27.786937 25 27.5 L 25 24.5 C 25 24.213063 25.213063 24 25.5 24 z" fill="#000000"/></svg>
