<?xml version="1.0" encoding="utf-8"?>
<svg xmlns="http://www.w3.org/2000/svg" viewBox="0 0 32 32" fill="#000000"><path style="text-indent:0;text-align:start;line-height:normal;text-transform:none;block-progression:tb;-inkscape-font-specification:Bitstream Vera Sans" d="M 8 4 L 8 5 L 8 27 L 8 28 L 9 28 L 23 28 L 24 28 L 24 27 L 24 5 L 24 4 L 23 4 L 9 4 L 8 4 z M 10 6 L 22 6 L 22 26 L 10 26 L 10 6 z M 13.5 8 C 12.671573 8 12 8.6715729 12 9.5 C 12 10.328427 12.671573 11 13.5 11 C 14.328427 11 15 10.328427 15 9.5 C 15 8.6715729 14.328427 8 13.5 8 z M 4 9 L 4 11 L 7 11 L 7 9 L 4 9 z M 25 9 L 25 11 L 28 11 L 28 9 L 25 9 z M 4 15 L 4 17 L 7 17 L 7 15 L 4 15 z M 25 15 L 25 17 L 28 17 L 28 15 L 25 15 z M 4 21 L 4 23 L 7 23 L 7 21 L 4 21 z M 25 21 L 25 23 L 28 23 L 28 21 L 25 21 z" fill="#000000"/></svg>
