<?xml version="1.0" encoding="utf-8"?>
<svg xmlns="http://www.w3.org/2000/svg" viewBox="0 0 32 32" fill="#000000"><path style="text-indent:0;text-align:start;line-height:normal;text-transform:none;block-progression:tb;-inkscape-font-specification:Bitstream Vera Sans" d="M 22.90625 3.03125 C 22.718558 3.0480352 22.547604 3.0783037 22.40625 3.125 C 22.123541 3.2183927 21.875 3.40625 21.875 3.40625 L 21.8125 3.4375 L 21.75 3.5 L 8.5625 16.6875 L 8.53125 16.71875 C 8.2192098 17.042986 8 17.478478 8 17.96875 C 8 18.233299 8.0806782 18.492263 8.21875 18.71875 L 8.21875 19.28125 C 8.21875 19.801327 8.0982347 20.089265 7.78125 20.40625 L 3.78125 24.4375 L 3.65625 24.53125 L 3.71875 24.59375 C 2.9181397 25.325964 2.9245861 26.553257 3.6875 27.3125 L 3.625 27.375 L 3.78125 27.53125 L 4.46875 28.375 L 4.5625 28.46875 L 4.625 28.53125 C 5.5029581 29.190607 6.7207308 29.279269 7.5625 28.4375 L 11.65625 24.3125 C 11.974652 23.994741 12.293722 23.84375 12.8125 23.84375 L 13.5625 23.84375 C 13.718491 23.882692 13.877692 23.90625 14.03125 23.90625 C 14.455984 23.90625 14.910548 23.776952 15.28125 23.40625 L 28.46875 10.21875 L 28.53125 10.15625 L 28.5625 10.125 C 28.5625 10.125 28.741223 9.8802342 28.84375 9.59375 C 28.946277 9.3072658 29.032371 8.8848676 29 8.40625 C 28.935259 7.4490148 28.413284 6.2696078 27.03125 4.9375 C 25.658684 3.614519 24.462753 3.1115982 23.53125 3.03125 C 23.298374 3.011163 23.093942 3.0144648 22.90625 3.03125 z M 9.5 5 C 8.1192881 5 7 6.1192881 7 7.5 C 7 8.8807119 8.1192881 10 9.5 10 C 10.880712 10 12 8.8807119 12 7.5 C 12 6.1192881 10.880712 5 9.5 5 z M 23.375 5 C 23.747747 5.032152 24.478566 5.269981 25.625 6.375 C 26.761966 7.4708922 26.974991 8.1927352 27 8.5625 C 27.0125 8.7473824 26.99 8.8468592 26.96875 8.90625 L 14.03125 21.84375 L 10.125 17.9375 L 23.03125 5.03125 C 23.080197 5.0150802 23.188627 4.9839241 23.375 5 z M 10 20.625 L 11.5 22.125 C 11.041824 22.307122 10.60019 22.556767 10.25 22.90625 L 6.15625 26.96875 C 6.1280946 26.940673 5.9694965 26.941185 5.875 26.90625 L 5.84375 26.90625 L 5.125 26.0625 L 5.0625 26 L 5.03125 26 L 5.0625 25.9375 L 9.1875 21.84375 C 9.5391378 21.492112 9.8261699 21.085855 10 20.625 z" overflow="visible" font-family="Bitstream Vera Sans" fill="#000000"/></svg>
