<?xml version="1.0" encoding="utf-8"?>
<svg xmlns="http://www.w3.org/2000/svg" viewBox="0 0 32 32" fill="#000000"><path style="text-indent:0;text-align:start;line-height:normal;text-transform:none;block-progression:tb;-inkscape-font-specification:Bitstream Vera Sans" d="M 26.03125 6.46875 L 24.5625 7.9375 C 24.5625 7.9375 28.96875 12.573697 28.96875 16.8125 C 28.96875 21.057833 26.281367 23.96875 23 23.96875 C 19.647932 23.96875 17.03125 21.352068 17.03125 18 C 17.03125 16.3102 17.8125 14.65625 17.8125 14.65625 L 16.0625 13.78125 C 16.06104 13.77825 16.03125 13.75 16.03125 13.75 L 16 13.75 L 15.96875 13.75 C 15.96875 13.75 15.93896 13.77837 15.9375 13.78125 L 14.15625 14.65625 C 14.15625 14.65625 14.96875 16.426526 14.96875 18 C 14.96875 21.352068 12.352068 23.96875 9 23.96875 C 5.7186325 23.96875 3.03125 21.041699 3.03125 16.90625 C 3.03125 12.667447 7.4375 8.03125 7.4375 8.03125 L 5.96875 6.5625 C 5.96875 6.5625 0.96875 11.345053 0.96875 16.90625 C 0.96875 21.970801 4.4813675 26.03125 9 26.03125 C 12.017393 26.03125 14.627156 24.386836 16 21.9375 C 17.372844 24.386836 19.982607 26.03125 23 26.03125 C 27.518633 26.03125 31.03125 21.967167 31.03125 16.8125 C 31.03125 11.251303 26.03125 6.46875 26.03125 6.46875 z" overflow="visible" font-family="Bitstream Vera Sans" fill="#000000"/></svg>
