<?xml version="1.0" encoding="utf-8"?>
<svg xmlns="http://www.w3.org/2000/svg" viewBox="0 0 32 32" fill="#000000"><path style="text-indent:0;text-align:start;line-height:normal;text-transform:none;block-progression:tb;-inkscape-font-specification:Bitstream Vera Sans" d="M 16.03125 3.46875 L 15.375 4.03125 C 15.375 4.03125 13.034829 5.9394558 10.71875 8.71875 C 8.4026715 11.498044 6 15.158824 6 19 C 6 21.766667 7.1331607 24.071809 8.96875 25.625 C 10.689503 27.081022 12.994555 27.872688 15.5 27.96875 C 15.667204 27.975161 15.831085 28 16 28 C 16.168915 28 16.332796 27.975161 16.5 27.96875 C 19.005445 27.872688 21.310497 27.081022 23.03125 25.625 C 24.866839 24.071809 26 21.766667 26 19 C 26 15.541525 23.584521 11.941589 21.28125 9.0625 C 18.977979 6.183411 16.6875 4.0625 16.6875 4.0625 L 16.03125 3.46875 z M 15.96875 6.25 C 16.486885 6.7419793 17.850845 7.9776193 19.71875 10.3125 C 21.915479 13.058411 24 16.558475 24 19 C 24 21.233333 23.133161 22.928191 21.71875 24.125 C 21.376 24.415019 21.001596 24.679411 20.59375 24.90625 C 20.840842 24.316054 21 23.676068 21 23 C 21 16.749718 17.65625 12.9375 17.65625 12.9375 L 15.84375 10.90625 L 15.90625 13.625 C 15.90625 13.625 15.91205 14.898052 15.75 16.125 C 15.66897 16.738474 15.554453 17.345989 15.40625 17.6875 C 15.36327 17.78654 15.344 17.796773 15.3125 17.84375 C 15.208351 17.80377 14.890691 17.64969 14.59375 17.34375 C 14.258602 16.998446 14.03125 16.65625 14.03125 16.65625 L 13.0625 15.15625 L 12.3125 16.78125 C 12.3125 16.78125 11 19.457576 11 23 C 11 23.676068 11.159158 24.316054 11.40625 24.90625 C 10.998404 24.679411 10.624 24.415019 10.28125 24.125 C 8.8668393 22.928191 8 21.233333 8 19 C 8 16.041176 10.097329 12.620706 12.28125 10 C 14.130932 7.7803814 15.446115 6.6965668 15.96875 6.25 z M 17.65625 16.78125 C 18.338034 18.265046 19 20.338971 19 23 C 19 24.654545 17.654545 26 16 26 C 14.345455 26 13 24.654545 13 23 C 13 21.405855 13.307121 20.059947 13.59375 19.09375 C 14.043411 19.497324 14.592916 19.90625 15.40625 19.90625 C 15.882292 19.90625 16.335054 19.685653 16.625 19.40625 C 16.914946 19.126847 17.077226 18.79487 17.21875 18.46875 C 17.447178 17.942372 17.56375 17.357146 17.65625 16.78125 z" overflow="visible" font-family="Bitstream Vera Sans" fill="#000000"/></svg>
