<?xml version="1.0" encoding="utf-8"?>
<svg xmlns="http://www.w3.org/2000/svg" viewBox="0 0 32 32" fill="#000000"><path d="M 16 3.75 L 15.28125 4.46875 L 13.75 6 L 8 6 L 7 6 L 7 7 L 7 10 L 7 11 L 8 11 L 15 11 L 15 25 L 8 25 L 8 27 L 24 27 L 24 25 L 17 25 L 17 11 L 24 11 L 25 11 L 25 10 L 25 7 L 25 6 L 24 6 L 18.25 6 L 16.71875 4.46875 L 16 3.75 z M 16 6.59375 L 17.125 7.71875 L 17.40625 8 L 17.8125 8 L 23 8 L 23 9 L 9 9 L 9 8 L 14.1875 8 L 14.59375 8 L 14.875 7.71875 L 16 6.59375 z M 7.1875 12 L 5.6875 16.03125 C 4.7314899 16.181382 4 17.001827 4 18 C 4 19.104569 4.8954305 20 6 20 C 7.1045695 20 8 19.104569 8 18 C 8 17.521036 7.8120251 17.094362 7.53125 16.75 L 9.3125 12 L 7.1875 12 z M 11.59375 12 L 10.375 18.09375 C 9.5753923 18.355549 9 19.112893 9 20 C 9 21.104569 9.8954305 22 11 22 C 12.104569 22 13 21.104569 13 20 C 13 19.399153 12.731949 18.866615 12.3125 18.5 L 13.625 12 L 11.59375 12 z M 18.375 12 L 19.6875 18.5 C 19.268051 18.866615 19 19.399153 19 20 C 19 21.104569 19.895431 22 21 22 C 22.104569 22 23 21.104569 23 20 C 23 19.112893 22.424608 18.355549 21.625 18.09375 L 20.40625 12 L 18.375 12 z M 22.6875 12 L 24.46875 16.75 C 24.187975 17.094362 24 17.521036 24 18 C 24 19.104569 24.895431 20 26 20 C 27.104569 20 28 19.104569 28 18 C 28 17.001827 27.26851 16.181382 26.3125 16.03125 L 24.8125 12 L 22.6875 12 z" fill="#000000"/></svg>
