<?xml version="1.0" encoding="utf-8"?>
<svg xmlns="http://www.w3.org/2000/svg" viewBox="0 0 32 32" fill="#000000"><path style="text-indent:0;text-align:start;line-height:normal;text-transform:none;block-progression:tb;-inkscape-font-specification:Bitstream Vera Sans" d="M 11 5 C 9.3650941 5 8.1352928 6.2105965 7.3125 7.5625 C 6.4897072 8.9144035 6 10.517259 6 12 C 6 14.583462 7.7808012 16.465548 10 16.90625 L 10 28 L 12 28 L 12 16.90625 C 14.219199 16.465548 16 14.583462 16 12 C 16 10.517259 15.510293 8.9144035 14.6875 7.5625 C 13.864707 6.2105965 12.634906 5 11 5 z M 18 5 L 18 12 C 18 13.853231 19.280143 15.396692 21 15.84375 L 21 28 L 23 28 L 23 15.84375 C 24.719857 15.396692 26 13.853231 26 12 L 26 5 L 24 5 L 24 12 C 24 13.116666 23.116666 14 22 14 C 20.883334 14 20 13.116666 20 12 L 20 5 L 18 5 z M 21 5 L 21 12 C 21 12.552 21.448 13 22 13 C 22.552 13 23 12.552 23 12 L 23 5 L 21 5 z M 11 7 C 11.574094 7 12.343793 7.5669035 12.96875 8.59375 C 13.593707 9.6205965 14 10.997741 14 12 C 14 14.004517 12.75178 15 11 15 C 9.2482205 15 8 14.004517 8 12 C 8 10.997741 8.4062928 9.6205965 9.03125 8.59375 C 9.6562072 7.5669035 10.425906 7 11 7 z" overflow="visible" font-family="Bitstream Vera Sans" fill="#000000"/></svg>
