<?xml version="1.0" encoding="utf-8"?>
<svg xmlns="http://www.w3.org/2000/svg" viewBox="0 0 32 32" fill="#000000"><path style="line-height:normal;text-indent:0;text-align:start;text-decoration-line:none;text-decoration-style:solid;text-decoration-color:#000;text-transform:none;block-progression:tb;isolation:auto;mix-blend-mode:normal" d="M 7.2792969 5 L 5.2792969 11 L 3 11.003906 L 3 27 L 29 27 L 29 11 L 26.720703 11 L 24.720703 5 L 16.720703 5 L 7.2792969 5 z M 8.7207031 7 L 15.279297 7 L 17.279297 13 L 18 13 L 27 13 L 27 25 L 5 25 L 5 13.001953 L 6.7207031 13 L 8.7207031 7 z M 17.386719 7 L 23.279297 7 L 24.611328 11 L 18.720703 11 L 17.386719 7 z M 10 9 L 10 11 L 14 11 L 14 9 L 10 9 z" font-weight="400" font-family="sans-serif" white-space="normal" overflow="visible" fill="#000000"/></svg>
