<?xml version="1.0" encoding="utf-8"?>
<svg xmlns="http://www.w3.org/2000/svg" viewBox="0 0 32 32" fill="#000000"><path d="M 15 4 L 15 8 L 15 9 L 11 9 C 11 9 8.818 13.614 5 16 L 4 27 L 16 27 L 18 27 L 28 27 L 27 16 C 23.182 13.614 21 9 21 9 L 17 9 L 17 7.2011719 C 18.964553 6.6903095 20.921751 6.7374793 23 5 C 19.594 5 18.625 4 15 4 z M 12.193359 11 L 16 11 L 19.806641 11 C 20.525083 12.236636 21.868277 14.254677 23.755859 16 L 20.929688 16 L 19.054688 13 L 12.945312 13 L 11.070312 16 L 8.2441406 16 C 10.131723 14.254677 11.474917 12.236636 12.193359 11 z M 14.054688 15 L 17.945312 15 L 19.195312 17 L 12.804688 17 L 14.054688 15 z M 6.8261719 18 L 9.8203125 18 L 10 18 L 10 19 L 10 25 L 6.1894531 25 L 6.8261719 18 z M 22 18 L 22.179688 18 L 25.173828 18 L 25.810547 25 L 22 25 L 22 19 L 22 18 z M 12 19 L 20 19 L 20 25 L 18 25 L 18 21 L 14 21 L 14 25 L 12 25 L 12 19 z" fill="#000000"/></svg>
