<?xml version="1.0" encoding="utf-8"?>
<svg xmlns="http://www.w3.org/2000/svg" viewBox="0 0 32 32" fill="#000000"><path style="text-indent:0;text-align:start;line-height:normal;text-transform:none;block-progression:tb;-inkscape-font-specification:Bitstream Vera Sans" d="M 20.75 4 C 19.893468 4 19.021958 4.2855286 18.25 4.875 C 17.478042 5.4644714 16.84375 6.4300185 16.84375 7.625 C 16.84375 8.1282321 17.133986 8.5825723 17.3125 8.8125 C 17.165772 8.9811467 16.980579 9.1670377 16.78125 9.46875 C 16.545051 9.8262704 16.280054 10.304595 16.28125 10.90625 C 16.28245 11.507905 16.593323 12.155823 17.09375 12.65625 L 18.5 11.25 C 18.272427 11.022427 18.281335 10.949001 18.28125 10.90625 C 18.281165 10.8635 18.32082 10.739105 18.4375 10.5625 C 18.554176 10.385895 18.745562 10.196662 18.9375 9.96875 C 19.03347 9.854794 19.114249 9.7419653 19.21875 9.5625 C 19.323251 9.3830347 19.487459 9.089764 19.375 8.625 C 19.249814 8.1084011 18.943612 7.7341706 18.84375 7.625 C 18.84375 7.0939815 19.047208 6.7667786 19.4375 6.46875 C 19.827792 6.1707214 20.395532 6 20.75 6 C 22.012827 6 22.661374 6.6229116 22.90625 7.40625 C 23.151126 8.1895884 22.97016 9.1945226 21.9375 10.0625 C 17.554322 13.743969 13.375 17.21875 13.375 17.21875 L 14.65625 18.78125 C 14.65625 18.78125 18.090409 15.876366 21.21875 13.25 L 21.25 13.28125 C 22.779927 11.91141 23.759331 11.810154 24.25 11.96875 C 24.740669 12.127346 25 12.618636 25 13.0625 C 25 13.529264 24.91622 13.643599 24.78125 13.75 C 24.646277 13.856401 24.265633 14 23.53125 14 C 22.734288 14 22.108122 14.475806 21.75 14.90625 C 21.391878 15.336694 21.17256 15.758724 21 16 C 20.930312 16.097438 20.924308 16.131291 20.90625 16.15625 C 20.823726 16.109689 20.646823 15.990585 20.34375 15.6875 L 18.90625 17.09375 C 19.589872 17.777372 20.233962 18.230179 21.03125 18.1875 C 21.828538 18.14482 22.336435 17.559724 22.625 17.15625 C 22.913565 16.752776 23.113091 16.389618 23.28125 16.1875 C 23.449409 15.985382 23.449712 16 23.53125 16 C 24.503867 16 25.361973 15.840099 26.03125 15.3125 C 26.700527 14.784901 27 13.911736 27 13.0625 C 27 11.809364 26.224081 10.539904 24.84375 10.09375 C 24.721557 10.054254 24.596155 10.024652 24.46875 10 C 25.004342 8.9619014 25.132258 7.8353793 24.8125 6.8125 C 24.317126 5.2278384 22.756173 4 20.75 4 z M 9.90625 15 C 8.4884412 15.023012 7.2968999 15.650948 6.5625 16.4375 C 5.6406231 17.425141 5.2263507 18.520271 5.09375 19.5625 C 4.9611493 20.604729 5.0874 21.584322 5.1875 22.46875 C 5.2876029 23.353178 5.3374331 24.133107 5.21875 24.84375 C 5.1000669 25.554393 4.8480707 26.214429 4.125 26.9375 L 5.53125 28.34375 C 5.7861503 28.08885 5.9928707 27.829657 6.1875 27.5625 C 6.7861316 26.963868 7.3362239 26.785653 8 26.71875 C 8.6637761 26.65185 9.4497121 26.75771 10.3125 26.90625 C 11.175288 27.054795 12.121493 27.218593 13.125 27.15625 C 14.128507 27.09391 15.211837 26.755088 16.125 25.90625 C 17.535099 24.596056 17.962717 22.104873 16.71875 19.71875 L 15.75 20.25 A 1.0054782 1.0054782 0 0 0 15.65625 20.28125 L 15.625 20.28125 A 1.0054782 1.0054782 0 0 0 15.5625 20.3125 A 1.0054782 1.0054782 0 0 0 15.34375 20.40625 C 15.208909 20.496113 15.073083 20.588388 14.9375 20.65625 C 14.499887 20.875285 14.063136 20.96451 13.65625 20.9375 C 13.123301 20.90212 12.617803 20.676506 12.09375 20.09375 C 11.56493 19.506127 11.354391 19.019093 11.3125 18.5 C 11.28421 18.149436 11.335333 17.762348 11.46875 17.34375 L 11.53125 17.21875 C 11.54159 17.189621 11.551414 17.154417 11.5625 17.125 L 12.28125 15.53125 C 11.676359 15.253153 11.093642 15.091426 10.53125 15.03125 C 10.320353 15.008684 10.108794 14.996713 9.90625 15 z M 9.5 17 C 9.3539674 17.534994 9.2672115 18.09505 9.3125 18.65625 C 9.39061 19.624157 9.8275696 20.586123 10.59375 21.4375 C 11.417697 22.353744 12.451199 22.867878 13.5 22.9375 C 14.162378 22.981469 14.797716 22.831908 15.40625 22.59375 C 15.391284 23.44753 15.086073 24.125239 14.75 24.4375 C 14.179663 24.967662 13.667525 25.14603 13 25.1875 C 12.332475 25.22897 11.531587 25.0882 10.65625 24.9375 C 9.7809129 24.786795 8.8022552 24.615841 7.78125 24.71875 C 7.6072331 24.736289 7.4256778 24.775563 7.25 24.8125 C 7.3439572 23.896555 7.2457524 23.040771 7.15625 22.25 C 7.0546029 21.351928 6.9720382 20.523521 7.0625 19.8125 C 7.152962 19.101479 7.3831269 18.475609 8.03125 17.78125 C 8.3576583 17.431662 8.8499613 17.102203 9.5 17 z" overflow="visible" font-family="Bitstream Vera Sans" fill="#000000"/></svg>
