<?xml version="1.0" encoding="utf-8"?>
<svg xmlns="http://www.w3.org/2000/svg" viewBox="0 0 32 32" fill="#000000"><path style="text-indent:0;text-align:start;line-height:normal;text-transform:none;block-progression:tb;-inkscape-font-specification:Sans" d="M 6.4375 4.15625 L 5.53125 6.65625 L 4.0625 10.65625 L 4 10.8125 L 4 11 L 4 27 L 4 28 L 5 28 L 8 28 L 9 28 L 14 28 L 15 28 L 15 27 L 15 25 C 15 24.409411 15.102377 24.150732 15.1875 24 C 15.27262 23.849268 15.369376 23.757375 15.59375 23.59375 C 15.705937 23.511938 15.841164 23.416894 16 23.28125 C 16.158836 23.416894 16.294063 23.511938 16.40625 23.59375 C 16.630624 23.757375 16.727377 23.849268 16.8125 24 C 16.897623 24.150732 17 24.409411 17 25 L 17 27 L 17 28 L 18 28 L 23 28 L 24 28 L 27 28 L 28 28 L 28 27 L 28 11 L 28 10.8125 L 27.9375 10.625 L 26.40625 6.625 L 25.4375 4.15625 L 24.53125 6.65625 L 23.0625 10.65625 L 23 10.8125 L 23 11 L 23 17 L 22.90625 17 C 22.58464 14.289726 21.017833 12.636659 19.5625 11.65625 C 18.749115 11.108299 17.979819 10.727249 17.5 10.40625 C 17.260091 10.245751 17.092429 10.106322 17.03125 10.03125 C 16.970071 9.9561778 17 9.9893874 17 10 L 17 9 L 15 9 L 15 10 C 15 9.989387 15.03176 9.953125 14.96875 10.03125 C 14.90574 10.10938 14.740277 10.273985 14.5 10.4375 C 14.019445 10.764531 13.248975 11.166474 12.4375 11.71875 C 10.990183 12.70377 9.4230323 14.336894 9.09375 17 L 9 17 L 9 11 L 9 10.8125 L 8.9375 10.625 L 7.40625 6.625 L 6.4375 4.15625 z M 6.46875 9.875 L 7 11.21875 L 7 26 L 6 26 L 6 11.1875 L 6.46875 9.875 z M 25.46875 9.875 L 26 11.21875 L 26 26 L 25 26 L 25 11.1875 L 25.46875 9.875 z M 16 11.78125 C 16.125275 11.879865 16.244938 11.975489 16.375 12.0625 C 17.020181 12.494126 17.750885 12.881201 18.4375 13.34375 C 19.618751 14.13952 20.637117 15.076918 20.90625 17 L 11.09375 17 C 11.363026 15.101675 12.378767 14.149379 13.5625 13.34375 C 14.251025 12.875151 14.980555 12.501063 15.625 12.0625 C 15.754914 11.97409 15.874472 11.879541 16 11.78125 z M 9 19 L 23 19 L 23 26 L 19 26 L 19 25 C 19 24.174089 18.852377 23.5133 18.5625 23 C 18.272623 22.4867 17.869376 22.16975 17.59375 21.96875 C 17.318124 21.76775 17.182562 21.673306 17.125 21.59375 C 17.067438 21.514194 17 21.414352 17 21 L 15 21 C 15 21.414352 14.93256 21.514194 14.875 21.59375 C 14.81744 21.67331 14.681876 21.76775 14.40625 21.96875 C 14.130624 22.16975 13.727377 22.4867 13.4375 23 C 13.147623 23.5133 13 24.174089 13 25 L 13 26 L 9 26 L 9 19 z" overflow="visible" font-family="Sans" fill="#000000"/></svg>
