<?xml version="1.0" encoding="utf-8"?>
<svg xmlns="http://www.w3.org/2000/svg" viewBox="0 0 32 32" fill="#000000"><path style="text-indent:0;text-align:start;line-height:normal;text-transform:none;block-progression:tb;-inkscape-font-specification:Bitstream Vera Sans" d="M 16 4 C 15.06802 4 14.284463 4.6373007 14.0625 5.5 L 10.375 6.5625 C 10.015894 6.2191076 9.5360969 6 9 6 C 7.8954305 6 7 6.8954305 7 8 C 7 8.4789642 7.1879749 8.9056383 7.46875 9.25 L 5.6875 14.03125 C 4.7314899 14.181382 4 15.001827 4 16 C 4 17.104569 4.8954305 18 6 18 C 6.3157169 18 6.6094813 17.911533 6.875 17.78125 L 10 19.875 C 9.9974202 19.916584 10 19.957766 10 20 C 10 21.104569 10.895431 22 12 22 C 12.042234 22 12.083416 22.00258 12.125 22 L 14.21875 25.125 C 14.088467 25.390519 14 25.684283 14 26 C 14 27.104569 14.895431 28 16 28 C 16.998173 28 17.818618 27.26851 17.96875 26.3125 L 22.75 24.53125 C 23.094362 24.812025 23.521036 25 24 25 C 25.104569 25 26 24.104569 26 23 C 26 22.431528 25.755792 21.92663 25.375 21.5625 L 26.53125 16.9375 C 27.379364 16.705723 28 15.921625 28 15 C 28 14.06802 27.362699 13.284463 26.5 13.0625 L 25.4375 9.375 C 25.780892 9.0158944 26 8.5360971 26 8 C 26 6.8954305 25.104569 6 24 6 C 23.431528 6 22.92663 6.2442077 22.5625 6.625 L 17.9375 5.46875 C 17.705723 4.6206361 16.921625 4 16 4 z M 17.4375 7.375 L 22.0625 8.53125 C 22.250873 9.2205411 22.806646 9.7591078 23.5 9.9375 L 24.5625 13.625 C 24.219108 13.984106 24 14.463903 24 15 C 24 15.568472 24.244208 16.07337 24.625 16.4375 L 23.4375 21.09375 C 22.705935 21.3094 22.151789 21.919931 22.03125 22.6875 L 17.25 24.46875 C 16.905638 24.187975 16.478964 24 16 24 C 15.968325 24 15.937565 23.998543 15.90625 24 L 13.8125 20.875 C 13.938724 20.612835 14 20.31044 14 20 C 14 18.895431 13.104569 18 12 18 C 11.68956 18 11.387165 18.061276 11.125 18.1875 L 8 16.09375 C 8.0014565 16.062435 8 16.031675 8 16 C 8 15.521036 7.8120251 15.094362 7.53125 14.75 L 9.3125 9.96875 C 10.103211 9.8445767 10.740877 9.2642125 10.9375 8.5 L 14.625 7.4375 C 14.984106 7.7808924 15.463903 8 16 8 C 16.568472 8 17.07337 7.7557923 17.4375 7.375 z" overflow="visible" font-family="Bitstream Vera Sans" fill="#000000"/></svg>
