<?xml version="1.0" encoding="utf-8"?>
<svg xmlns="http://www.w3.org/2000/svg" viewBox="0 0 32 32" fill="#000000"><path d="M 16 4 C 11.041484 4 7 8.0414839 7 13 C 7 14.919262 7.8437166 16.906973 9 18.6875 C 9.8587175 20.009814 10.887323 21.229385 12 22.15625 L 12 25 C 12 26.093063 12.906937 27 14 27 L 15 28 L 17 28 L 18 27 C 19.093063 27 20 26.093063 20 25 L 20 22.15625 C 21.112677 21.229385 22.141282 20.009814 23 18.6875 C 24.156283 16.906973 25 14.919262 25 13 C 25 8.0414839 20.958516 4 16 4 z M 16 6 C 19.877484 6 23 9.1225161 23 13 C 23 14.306738 22.356967 16.033527 21.34375 17.59375 C 20.439902 18.98556 19.253848 20.22108 18.15625 21 L 13.84375 21 C 12.746152 20.22108 11.560098 18.98556 10.65625 17.59375 C 9.6430334 16.033527 9 14.306738 9 13 C 9 9.1225161 12.122516 6 16 6 z M 14.25 23 L 17.75 23 A 1.0103227 1.0103227 0 0 0 18 23.125 L 18 25 L 14 25 L 14 23.125 A 1.0103227 1.0103227 0 0 0 14.25 23 z" fill="#000000"/></svg>
