<?xml version="1.0" encoding="utf-8"?>
<svg xmlns="http://www.w3.org/2000/svg" viewBox="0 0 32 32" fill="#000000"><path style="text-indent:0;text-align:start;line-height:normal;text-transform:none;block-progression:tb;-inkscape-font-specification:Sans" d="M 9 4 L 9 5 L 6 5 L 5 5 L 5 6 L 5 26 L 5 27 L 6 27 L 26 27 L 27 27 L 27 26 L 27 6 L 27 5 L 26 5 L 23 5 L 23 4 L 21 4 L 21 5 L 11 5 L 11 4 L 9 4 z M 7 7 L 9 7 L 9 8 L 11 8 L 11 7 L 21 7 L 21 8 L 23 8 L 23 7 L 25 7 L 25 9 L 7 9 L 7 7 z M 7 11 L 25 11 L 25 25 L 7 25 L 7 11 z M 10 14 L 10 15 L 10 22 L 12 22 L 12 17.34375 L 12.1875 17.59375 L 13 18.65625 L 13.8125 17.59375 L 14 17.34375 L 14 22 L 16 22 L 16 15 L 16 14 L 15 14 L 14.5 14 L 14 14 L 13.6875 14.40625 L 13 15.3125 L 12.3125 14.40625 L 12 14 L 11.5 14 L 11 14 L 10 14 z M 19.5 14 C 18.130937 14 17 15.130937 17 16.5 L 17 19.46875 C 17 20.837813 18.130937 21.96875 19.5 21.96875 C 20.869063 21.96875 22 20.837813 22 19.46875 L 22 16.5 C 22 15.130937 20.869063 14 19.5 14 z M 19.5 16 C 19.786937 16 20 16.213063 20 16.5 L 20 19.46875 C 20 19.755687 19.786937 19.96875 19.5 19.96875 C 19.213063 19.96875 19 19.755687 19 19.46875 L 19 16.5 C 19 16.213063 19.213063 16 19.5 16 z" fill="#000000"/></svg>
