<?xml version="1.0" encoding="utf-8"?>
<svg xmlns="http://www.w3.org/2000/svg" viewBox="0 0 32 32" fill="#000000"><path style="text-indent:0;text-align:start;line-height:normal;text-transform:none;block-progression:tb;-inkscape-font-specification:Bitstream Vera Sans" d="M 15 4 L 15 11 L 17 11 L 17 4 L 15 4 z M 7.34375 8 L 7.09375 8.59375 L 4.09375 15.59375 L 4 15.78125 L 4 16 L 4 24 L 4 25 L 5 25 L 27 25 L 28 25 L 28 24 L 28 16 L 28 15.78125 L 27.90625 15.59375 L 24.90625 8.59375 L 24.65625 8 L 24 8 L 18 8 L 18 10 C 18.739474 10 19.263102 10.241933 19.59375 10.5 C 19.897946 10.737422 19.987815 10.97199 20 10.96875 C 19.991325 10.977549 19.9653 11.00603 19.90625 11.0625 C 19.788148 11.175435 19.555185 11.351905 19.1875 11.5 C 18.45213 11.796191 17.292857 12 16 12 C 14.707143 12 13.54787 11.796191 12.8125 11.5 C 12.444815 11.351905 12.211852 11.175435 12.09375 11.0625 C 12.044541 11.015444 12.011812 11.013392 12 11 C 12 10.970833 11.991325 10.95995 12 10.96875 C 12.012185 10.971989 12.102052 10.737422 12.40625 10.5 C 12.736898 10.241933 13.260526 10 14 10 L 14 8 L 8 8 L 7.34375 8 z M 8.65625 10 L 10.28125 10 C 10.123144 10.308288 10 10.63223 10 11 C 10 11.608333 10.305602 12.13481 10.6875 12.5 C 11.069398 12.86519 11.530185 13.129345 12.0625 13.34375 C 13.12713 13.772559 14.492857 14 16 14 C 17.507143 14 18.87287 13.772559 19.9375 13.34375 C 20.469815 13.129345 20.930602 12.86519 21.3125 12.5 C 21.694398 12.13481 22 11.608333 22 11 C 22 10.63223 21.876856 10.308288 21.71875 10 L 23.34375 10 L 25.5 15 L 6.5 15 L 8.65625 10 z M 6 17 L 26 17 L 26 23 L 6 23 L 6 17 z M 9 26 L 9 28 L 23 28 L 23 26 L 9 26 z" overflow="visible" font-family="Bitstream Vera Sans" fill="#000000"/></svg>
