<?xml version="1.0" encoding="utf-8"?>
<svg xmlns="http://www.w3.org/2000/svg" viewBox="0 0 32 32" fill="#000000"><path style="text-indent:0;text-align:start;line-height:normal;text-transform:none;block-progression:tb;-inkscape-font-specification:Bitstream Vera Sans" d="M 5 5 L 5 6 L 5 26 L 5 27 L 6 27 L 26 27 L 27 27 L 27 26 L 27 6 L 27 5 L 26 5 L 6 5 L 5 5 z M 7 7 L 25 7 L 25 25 L 7 25 L 7 7 z M 16 8 C 14.895431 8 14 8.8954305 14 10 C 14 10.739604 14.403104 11.372707 15 11.71875 L 15 14.28125 C 14.881869 14.349735 14.788724 14.440877 14.6875 14.53125 L 11.96875 13.625 L 11.96875 13.59375 C 11.782257 12.682384 10.966498 12 10 12 C 8.8954305 12 8 12.895431 8 14 C 8 15.104569 8.8954305 16 10 16 C 10.511339 16 10.958886 15.784455 11.3125 15.46875 L 14.03125 16.375 C 14.033139 16.385009 14.029213 16.396294 14.03125 16.40625 C 14.053229 16.513661 14.086552 16.618365 14.125 16.71875 L 12.3125 19.03125 C 12.210598 19.015247 12.106396 19 12 19 C 10.895431 19 10 19.895431 10 21 C 10 22.104569 10.895431 23 12 23 C 13.104569 23 14 22.104569 14 21 C 14 20.74802 13.960051 20.503315 13.875 20.28125 L 15.71875 17.96875 C 15.810991 17.981784 15.904162 18 16 18 C 16.095838 18 16.189009 17.981784 16.28125 17.96875 L 18.125 20.28125 C 18.039949 20.503315 18 20.74802 18 21 C 18 22.104569 18.895431 23 20 23 C 21.104569 23 22 22.104569 22 21 C 22 19.895431 21.104569 19 20 19 C 19.893604 19 19.789402 19.015247 19.6875 19.03125 L 17.875 16.71875 C 17.913448 16.618365 17.946771 16.513661 17.96875 16.40625 L 20.6875 15.5 C 21.039146 15.807353 21.496278 16 22 16 C 23.104569 16 24 15.104569 24 14 C 24 12.895431 23.104569 12 22 12 C 21.022944 12 20.206033 12.698746 20.03125 13.625 L 17.3125 14.53125 C 17.211276 14.440877 17.118131 14.349735 17 14.28125 L 17 11.71875 C 17.596896 11.372707 18 10.739604 18 10 C 18 8.8954305 17.104569 8 16 8 z" fill="#000000"/></svg>
