<?xml version="1.0" encoding="utf-8"?>
<svg xmlns="http://www.w3.org/2000/svg" viewBox="0 0 32 32" fill="#000000"><path style="text-indent:0;text-align:start;line-height:normal;text-transform:none;block-progression:tb;-inkscape-font-specification:Sans" d="M 16 4 C 9.3844277 4 4 9.3844277 4 16 C 4 22.615572 9.3844277 28 16 28 C 22.615572 28 28 22.615572 28 16 C 28 9.3844277 22.615572 4 16 4 z M 16 6 C 21.534692 6 26 10.465308 26 16 C 26 19.116064 24.601434 21.91211 22.375 23.75 L 19 18.6875 L 19 14.46875 L 23.625 10.78125 L 22.375 9.21875 L 17.65625 13 L 14.34375 13 L 9.625 9.21875 L 8.375 10.78125 L 13 14.46875 L 13 18.6875 L 9.625 23.71875 C 7.4036988 21.886607 6 19.113264 6 16 C 6 10.465308 10.465308 6 16 6 z M 16 8 C 14.895431 8 14 8.8954305 14 10 C 14 11.104569 14.895431 12 16 12 C 17.104569 12 18 11.104569 18 10 C 18 8.8954305 17.104569 8 16 8 z M 7 13 L 7 15 L 11.75 15 L 9.15625 13 L 7 13 z M 22.84375 13 L 20.25 15 L 25 15 L 25 13 L 22.84375 13 z M 15 15 L 17 15 L 17 19 L 17 19.3125 L 17.15625 19.5625 L 20.6875 24.84375 C 20.151117 25.129289 19.589093 25.37792 19 25.5625 L 19 24.53125 L 17 21.6875 L 17 25.9375 C 16.67314 25.969554 16.335474 26 16 26 C 15.664526 26 15.32686 25.969554 15 25.9375 L 15 21.6875 L 13 24.53125 L 13 25.5625 C 12.414496 25.379045 11.845765 25.095022 11.3125 24.8125 L 14.84375 19.5625 L 15 19.3125 L 15 19 L 15 15 z" fill="#000000"/></svg>
