<?xml version="1.0" encoding="utf-8"?>
<svg xmlns="http://www.w3.org/2000/svg" viewBox="0 0 32 32" fill="#000000"><path style="text-indent:0;text-align:start;line-height:normal;text-transform:none;block-progression:tb;-inkscape-font-specification:Bitstream Vera Sans" d="M 9.375 4 C 8.1277306 4 7.0005988 4.769735 6.5625 5.9375 L 4.40625 11.75 L 2.3125 11.0625 L 1.6875 12.9375 L 4 13.71875 L 4 26 L 4 27 C 4 27.552 4.448 28 5 28 L 8 28 L 8.34375 27 L 23.65625 27 L 24 28 L 27 28 C 27.552 28 28 27.552 28 27 L 28 26 L 28 13.71875 L 30.3125 12.9375 L 29.6875 11.0625 L 27.59375 11.75 L 25.4375 5.9375 C 24.999401 4.769735 23.872269 4 22.625 4 L 9.375 4 z M 9.375 6 L 22.625 6 C 23.045731 6 23.414599 6.262015 23.5625 6.65625 L 25.5625 12 L 6.4375 12 L 8.4375 6.65625 C 8.5854012 6.262015 8.9542694 6 9.375 6 z M 11 7 C 9.8954305 7 9 7.8954305 9 9 C 9 10.104569 9.8954305 11 11 11 C 12.104569 11 13 10.104569 13 9 C 13 7.8954305 12.104569 7 11 7 z M 16 7 C 15.171573 7 14.5 7.6715729 14.5 8.5 C 14.5 9.3284271 15.171573 10 16 10 C 16.828427 10 17.5 9.3284271 17.5 8.5 C 17.5 7.6715729 16.828427 7 16 7 z M 21 7 C 19.895431 7 19 7.8954305 19 9 C 19 10.104569 19.895431 11 21 11 C 22.104569 11 23 10.104569 23 9 C 23 7.8954305 22.104569 7 21 7 z M 6 14 L 26 14 L 26 17 L 22 17 L 22 19 L 26 19 L 26 25 L 9 25 L 6 25 L 6 19 L 10 19 L 10 17 L 6 17 L 6 14 z M 12 21 L 10.75 24 L 12.90625 24 L 13.34375 23 L 18.65625 23 L 19.09375 24 L 21.25 24 L 20 21 L 12 21 z" overflow="visible" font-family="Bitstream Vera Sans" fill="#000000"/></svg>
