<?xml version="1.0" encoding="utf-8"?>
<svg xmlns="http://www.w3.org/2000/svg" viewBox="0 0 32 32" fill="#000000"><path d="M 13.771484 4.0117188 C 13.53236 4.0290074 13.290109 4.0764125 13.050781 4.15625 L 11.050781 4.8222656 C 9.8300094 5.2294383 9 6.3808828 9 7.6679688 L 9 10.958984 L 5 11.519531 L 5 26.480469 L 23 29 L 27 27.679688 L 27 10.4375 L 23 9 L 21 9.2792969 L 21 8.0019531 C 21 6.4884595 19.856307 5.284419 18.476562 5.046875 C 18.016648 4.967694 17.529436 4.996575 17.050781 5.15625 L 16.478516 5.3476562 C 16.015234 4.6693739 15.290808 4.1871535 14.476562 4.046875 C 14.246606 4.007258 14.010608 3.9944301 13.771484 4.0117188 z M 13.933594 6 C 14.508742 5.9470632 15 6.3776524 15 7.0019531 L 15 10.119141 L 11 10.679688 L 11 7.6679688 C 11 7.2336044 11.271221 6.8579923 11.683594 6.7207031 L 11.683594 6.71875 L 13.683594 6.0527344 C 13.768016 6.0245714 13.85143 6.0075624 13.933594 6 z M 17.933594 7 C 18.508742 6.9473259 19 7.3789457 19 8.0019531 L 19 9.5605469 L 17 9.8398438 L 17 7.28125 L 17.683594 7.0546875 L 17.683594 7.0527344 C 17.768016 7.0245714 17.85143 7.0075249 17.933594 7 z M 22.787109 11.048828 L 25 11.84375 L 25 26.234375 L 22.816406 26.955078 L 7 24.740234 L 7 13.259766 L 22.787109 11.048828 z M 19 13.599609 L 14 14.300781 L 14 18 L 19 18 L 19 13.599609 z M 13 14.439453 L 9 15 L 9 18 L 13 18 L 13 14.439453 z M 9 19 L 9 22 L 13 22.560547 L 13 19 L 9 19 z M 14 19 L 14 22.699219 L 19 23.400391 L 19 19 L 14 19 z" fill="#000000"/></svg>
