<?xml version="1.0" encoding="utf-8"?>
<svg xmlns="http://www.w3.org/2000/svg" viewBox="0 0 32 32" fill="#000000"><path d="M 14 4 C 12.74133 4 11.848273 4.8904725 11.40625 6 L 11 6 C 8.2504839 6 6 8.2504839 6 11 L 6 21 C 6 23.230452 7.2454704 25.184885 9.0625 26.21875 L 7 29 L 9.34375 29 L 10.90625 26.90625 C 11.256937 26.970614 11.631356 27 12 27 L 20 27 C 20.368644 27 20.743063 26.970614 21.09375 26.90625 L 22.65625 29 L 25 29 L 22.9375 26.21875 C 24.75453 25.184885 26 23.230452 26 21 L 26 11 C 26 8.2504839 23.749516 6 21 6 L 20.59375 6 C 20.151727 4.8904725 19.25867 4 18 4 L 14 4 z M 14 6 L 18 6 C 18.56503 6 19 6.4349698 19 7 L 19 8 L 20 8 L 21 8 C 22.318362 8 23.436798 8.8279881 23.84375 10 L 8.15625 10 C 8.5632023 8.8279881 9.6816384 8 11 8 L 12 8 L 13 8 L 13 7 C 13 6.4349698 13.43497 6 14 6 z M 8 12 L 24 12 L 24 17 L 8 17 L 8 12 z M 8 19 L 24 19 L 24 21 C 24 23.220375 22.220375 25 20 25 L 19.65625 25 L 12.34375 25 L 12 25 C 9.7796254 25 8 23.220375 8 21 L 8 19 z M 11.5 20 C 10.671573 20 10 20.671573 10 21.5 C 10 22.328427 10.671573 23 11.5 23 C 12.328427 23 13 22.328427 13 21.5 C 13 20.671573 12.328427 20 11.5 20 z M 20.5 20 C 19.671573 20 19 20.671573 19 21.5 C 19 22.328427 19.671573 23 20.5 23 C 21.328427 23 22 22.328427 22 21.5 C 22 20.671573 21.328427 20 20.5 20 z" fill="#000000"/></svg>
