<?xml version="1.0" encoding="utf-8"?>
<svg xmlns="http://www.w3.org/2000/svg" viewBox="0 0 32 32" fill="#000000"><path d="M 14.03125 3.84375 L 13.9375 4.84375 L 13.65625 7.8125 L 5.15625 9.25 L 4.1875 9.40625 L 4.34375 10.40625 L 6.84375 25.1875 L 3.84375 25.6875 L 4.15625 27.65625 L 7.1875 27.15625 L 8.15625 27 L 14.15625 25.96875 L 14.25 25.96875 L 27.90625 27.28125 L 28.09375 25.28125 L 26.09375 25.09375 L 27.875 6.15625 L 27.96875 5.1875 L 26.96875 5.09375 L 15.03125 3.9375 L 14.03125 3.84375 z M 15.84375 6.03125 L 25.78125 6.96875 L 24.09375 24.90625 L 20.65625 24.59375 L 22.40625 22.6875 L 22.8125 22.25 L 22.625 21.71875 L 21.875 19.125 L 23 17.125 L 21.28125 16.15625 L 19.90625 18.5 L 19.71875 18.875 L 19.84375 19.28125 L 20.5625 21.71875 L 18.15625 24.34375 L 14.1875 23.96875 L 14.15625 23.96875 L 15.84375 6.03125 z M 17.625 8.21875 L 17.4375 10.21875 L 19.4375 10.40625 L 19.625 8.40625 L 17.625 8.21875 z M 21.625 8.59375 L 21.4375 10.59375 L 23.4375 10.78125 L 23.625 8.78125 L 21.625 8.59375 z M 13.46875 9.875 L 13.28125 11.90625 L 12.75 12 L 13.0625 14 L 13.09375 14 L 12.34375 21.78125 L 12.09375 20.25 L 10.125 20.5625 L 10.46875 22.53125 L 12.3125 22.25 L 12.125 24.28125 L 8.8125 24.84375 L 6.46875 11.0625 L 13.46875 9.875 z M 17.25 12.21875 L 17.0625 14.1875 L 19.0625 14.375 L 19.25 12.40625 L 17.25 12.21875 z M 10.75 12.34375 L 8.78125 12.6875 L 9.125 14.65625 L 11.09375 14.3125 L 10.75 12.34375 z M 21.25 12.59375 L 21.0625 14.5625 L 23.0625 14.75 L 23.25 12.78125 L 21.25 12.59375 z M 16.875 16.1875 L 16.6875 18.1875 L 18.6875 18.375 L 18.875 16.375 L 16.875 16.1875 z M 11.4375 16.28125 L 9.46875 16.625 L 9.78125 18.59375 L 11.75 18.25 L 11.4375 16.28125 z M 16.5 20.1875 L 16.3125 22.15625 L 18.3125 22.34375 L 18.5 20.375 L 16.5 20.1875 z" fill="#000000"/></svg>
