<?xml version="1.0" encoding="utf-8"?>
<svg xmlns="http://www.w3.org/2000/svg" viewBox="0 0 32 32" fill="#000000"><path style="text-indent:0;text-align:start;line-height:normal;text-transform:none;block-progression:tb;-inkscape-font-specification:Sans" d="M 16 4 C 9.3844277 4 4 9.3844277 4 16 C 4 22.615572 9.3844277 28 16 28 C 22.615572 28 28 22.615572 28 16 C 28 9.3844277 22.615572 4 16 4 z M 16 6 C 21.534692 6 26 10.465308 26 16 C 26 21.534692 21.534692 26 16 26 C 10.465308 26 6 21.534692 6 16 C 6 10.465308 10.465308 6 16 6 z M 11.5 11 C 10.671573 11 10 12.119288 10 13.5 C 10 14.880712 10.671573 16 11.5 16 C 12.328427 16 13 14.880712 13 13.5 C 13 12.119288 12.328427 11 11.5 11 z M 20.5 11 C 19.671573 11 19 12.119288 19 13.5 C 19 14.880712 19.671573 16 20.5 16 C 21.328427 16 22 14.880712 22 13.5 C 22 12.119288 21.328427 11 20.5 11 z M 16 17 C 13.708372 17 12 18.856981 12 21 C 12 21.987623 12.355234 22.973688 13.15625 23.46875 C 13.957266 23.963812 14.843742 24 16 24 C 17.156258 24 18.042734 23.96381 18.84375 23.46875 C 19.644766 22.973688 20 21.987623 20 21 C 20 18.856981 18.291628 17 16 17 z M 16 19 C 17.292372 19 18 19.829019 18 21 C 18 21.669377 17.95923 21.690562 17.8125 21.78125 C 17.665766 21.871938 17.052742 22 16 22 C 14.947258 22 14.334234 21.871938 14.1875 21.78125 C 14.040766 21.690562 14 21.669377 14 21 C 14 19.829019 14.707628 19 16 19 z" overflow="visible" font-family="Sans" fill="#000000"/></svg>
