<?xml version="1.0" encoding="utf-8"?>
<svg xmlns="http://www.w3.org/2000/svg" viewBox="0 0 32 32" fill="#000000"><path d="M 10 4 C 8.3142857 4 6.999723 4.7815909 6.1875 5.78125 C 5.375277 6.7809091 5 7.95 5 9 L 7 9 C 7 8.45 7.230973 7.6315909 7.71875 7.03125 C 8.206527 6.4309091 8.8857143 6 10 6 L 10 4 z M 17 6 C 13.154545 6 10 9.1545455 10 13 C 10 13.905556 10.2 14.65625 10.375 15.28125 C 10.55 15.90625 10.6875 16.405556 10.6875 17 C 10.6875 17.266667 10.583905 17.722907 10.40625 18.28125 C 10.228595 18.839593 10 19.518056 10 20.3125 C 10 21.869167 10.779865 23.139627 11.84375 23.90625 C 12.907635 24.672873 14.218182 25 15.5 25 C 18.552516 25 20.800568 23.094535 22.125 20.71875 C 23.449432 18.342965 24 15.45942 24 13 C 24 9.1545455 20.845455 6 17 6 z M 17 8 C 19.754545 8 22 10.245455 22 13 C 22 15.14058 21.475568 17.775785 20.375 19.75 C 19.274432 21.724215 17.747484 23 15.5 23 C 14.581818 23 13.636115 22.739627 13 22.28125 C 12.363885 21.822873 12 21.255833 12 20.3125 C 12 19.906944 12.140155 19.416657 12.3125 18.875 C 12.484845 18.333343 12.6875 17.733333 12.6875 17 C 12.6875 16.094444 12.4875 15.34375 12.3125 14.71875 C 12.1375 14.09375 12 13.594444 12 13 C 12 10.245455 14.245455 8 17 8 z M 17 10 C 15.35499 10 14 11.35499 14 13 C 14 14.64501 15.35499 16 17 16 C 18.64501 16 20 14.64501 20 13 C 20 11.35499 18.64501 10 17 10 z M 26 11 C 26 12.54899 25.755507 13.686238 25.53125 14.4375 C 25.306993 15.188762 25.125 15.5 25.125 15.5 L 26.875 16.5 C 26.875 16.5 27.193007 15.954988 27.46875 15.03125 C 27.744493 14.107512 28 12.75101 28 11 L 26 11 z M 17 12 C 17.564128 12 18 12.435872 18 13 C 18 13.564128 17.564128 14 17 14 C 16.435872 14 16 13.564128 16 13 C 16 12.435872 16.435872 12 17 12 z M 7 15 C 7 16.04359 6.6520672 16.45668 6.34375 16.71875 C 6.0354328 16.98082 5.8125 17.03125 5.8125 17.03125 L 6.1875 18.96875 C 6.1875 18.96875 6.9645672 18.83793 7.65625 18.25 C 8.3479328 17.66207 9 16.55641 9 15 L 7 15 z M 15.5 18 C 14.671573 18 14 18.671573 14 19.5 C 14 20.328427 14.671573 21 15.5 21 C 16.328427 21 17 20.328427 17 19.5 C 17 18.671573 16.328427 18 15.5 18 z M 25 22 C 23.35499 22 22 23.35499 22 25 C 22 26.64501 23.35499 28 25 28 C 26.64501 28 28 26.64501 28 25 C 28 23.35499 26.64501 22 25 22 z M 8 24 C 7.4477153 24 7 24.447715 7 25 C 7 25.552285 7.4477153 26 8 26 C 8.5522847 26 9 25.552285 9 25 C 9 24.447715 8.5522847 24 8 24 z M 25 24 C 25.564128 24 26 24.435872 26 25 C 26 25.564128 25.564128 26 25 26 C 24.435872 26 24 25.564128 24 25 C 24 24.435872 24.435872 24 25 24 z" fill="#000000"/></svg>
