<?xml version="1.0" encoding="utf-8"?>
<svg xmlns="http://www.w3.org/2000/svg" viewBox="0 0 32 32" fill="#000000"><path style="text-indent:0;text-align:start;line-height:normal;text-transform:none;block-progression:tb;-inkscape-font-specification:Sans" d="M 14 4 L 14 5 C 14 5.9222222 13.770909 6.0873954 13.3125 6.53125 C 13.083295 6.7531773 12.77889 7.0069487 12.5 7.40625 C 12.379541 7.5787169 12.365436 7.8680753 12.28125 8.09375 C 11.236667 8.1994288 10.261401 8.4663513 9.5 9.09375 C 8.7665439 9.698122 8.3709274 10.633614 8.1875 11.65625 C 5.7256573 12.053627 4 14.050144 4 16.5 C 4 18.169213 4.8743163 19.640625 6.34375 20.5625 L 7.84375 26.5 C 8.0647221 27.385879 8.869091 28 9.78125 28 L 22.21875 28 C 23.130909 28 23.935278 27.385879 24.15625 26.5 L 25.71875 20.21875 C 26.582705 19.517956 28 18.008758 28 15.59375 C 28 11.90609 24.934915 9.4610529 21.71875 9.125 C 21.381393 7.6305737 20.46907 6.3993504 19.3125 5.65625 C 17.917453 4.7599268 16.333308 4.2954535 15.28125 4.03125 L 15.1875 4 L 15.0625 4 L 15 4 L 14 4 z M 15.6875 6.3125 C 16.524731 6.5717121 17.414245 6.8268526 18.21875 7.34375 C 19.299953 8.0384268 20 8.8525995 20 10 L 20 11 L 21 11 C 23.465438 11 26 12.831018 26 15.59375 C 26 16.809043 25.519454 17.619334 25.03125 18.15625 C 24.743868 17.821478 24.388973 17.485713 24 17.4375 C 23.039741 17.318476 22.322371 17.711012 21.34375 18.09375 C 19.386507 18.859227 16.62059 20 12.84375 20 C 10.331788 20 8.5380456 19.568503 7.46875 18.9375 C 6.3994544 18.306497 6 17.599206 6 16.5 C 6 14.906749 6.8175204 13.843716 8.34375 13.59375 C 8.6621866 14.415549 9.1586591 15.126527 9.875 15.5625 C 10.901366 16.187158 12.148544 16.516561 13.34375 16.71875 C 15.734161 17.123128 18.0625 17 18.0625 17 L 17.9375 15 C 17.9375 15 15.765839 15.106872 13.65625 14.75 C 12.601456 14.571564 11.598634 14.277374 10.9375 13.875 C 10.276366 13.472626 10 13.109483 10 12.5 C 10 11.582875 10.299022 11.053609 10.78125 10.65625 C 11.263478 10.258891 12.010974 10 13 10 L 14 10 L 14 9 C 14 8.7612629 14.02889 8.7001049 14.125 8.5625 C 14.22111 8.4248951 14.416705 8.2309477 14.6875 7.96875 C 15.036286 7.6310376 15.418048 7.0360317 15.6875 6.3125 z M 23.5625 19.5 C 23.57954 19.58204 23.59375 19.594 23.59375 19.8125 L 23.59375 20.5 L 22.21875 26 L 9.78125 26 L 8.65625 21.53125 C 9.2859115 21.695619 9.9730708 21.799312 10.71875 21.875 L 11 24 L 13 24 L 12.71875 22 C 12.762291 22.000223 12.799884 22 12.84375 22 C 13.59894 22 14.315182 21.947794 15 21.875 L 15 24 L 17 24 L 17 21.5625 C 17.875428 21.382636 18.682329 21.168641 19.40625 20.9375 L 19 24 L 21 24 L 21.53125 20.15625 C 21.698968 20.090754 21.909859 20.028448 22.0625 19.96875 C 22.914827 19.635405 23.427054 19.530504 23.5625 19.5 z" overflow="visible" font-family="Sans" fill="#000000"/></svg>
