<?xml version="1.0" encoding="utf-8"?>
<svg xmlns="http://www.w3.org/2000/svg" viewBox="0 0 32 32" fill="#000000"><path d="M 16 2 C 13.802706 2 12 3.8027056 12 6 C 12 7.4650664 12.810637 8.7406703 13.996094 9.4375 C 12.956167 9.8966558 12.107119 10.69471 11.582031 11.697266 C 11.14469 10.699886 10.36585 9.8972532 9.3847656 9.4355469 C 10.351623 8.810132 11 7.7277225 11 6.5 C 11 4.578848 9.421152 3 7.5 3 C 5.578848 3 4 4.578848 4 6.5 C 4 7.7277225 4.6483767 8.810132 5.6152344 9.4355469 C 4.2320345 10.086492 3.2288498 11.414342 3.0507812 13 L 5.0507812 13 C 5.2827813 11.86 6.293 11 7.5 11 C 8.708 11 9.7172187 11.86 9.9492188 13 L 11.949219 13 L 13.183594 13 C 13.597594 11.839 14.698 11 16 11 C 17.302 11 18.402406 11.839 18.816406 13 L 20.050781 13 L 20.898438 13 L 22.050781 13 C 22.282781 11.86 23.293 11 24.5 11 C 25.708 11 26.717219 11.86 26.949219 13 L 28.949219 13 C 28.77115 11.414342 27.767966 10.086492 26.384766 9.4355469 C 27.351623 8.810132 28 7.7277225 28 6.5 C 28 4.578848 26.421152 3 24.5 3 C 22.578848 3 21 4.578848 21 6.5 C 21 7.7277225 21.648377 8.810132 22.615234 9.4355469 C 21.63415 9.8972532 20.85531 10.699886 20.417969 11.697266 C 19.892881 10.69471 19.043833 9.8966558 18.003906 9.4375 C 19.189363 8.7406703 20 7.4650664 20 6 C 20 3.8027056 18.197294 2 16 2 z M 16 4 C 17.116414 4 18 4.8835859 18 6 C 18 7.1164141 17.116414 8 16 8 C 14.883586 8 14 7.1164141 14 6 C 14 4.8835859 14.883586 4 16 4 z M 7.5 5 C 8.3402718 5 9 5.6597282 9 6.5 C 9 7.3402718 8.3402718 8 7.5 8 C 6.6597282 8 6 7.3402718 6 6.5 C 6 5.6597282 6.6597282 5 7.5 5 z M 24.5 5 C 25.340272 5 26 5.6597282 26 6.5 C 26 7.3402718 25.340272 8 24.5 8 C 23.659728 8 23 7.3402718 23 6.5 C 23 5.6597282 23.659728 5 24.5 5 z M 3 15 L 3 29 L 16 29 L 29 29 L 29 15 L 16 15 L 3 15 z M 6.9121094 17 L 16 17 L 25.087891 17 C 25.030891 17.16 25.001 17.33 25 17.5 C 25 18.328 25.672 19 26.5 19 C 26.67 18.999 26.84 18.970109 27 18.912109 L 27 25.087891 C 26.84 25.030891 26.67 25.001 26.5 25 C 25.672 25 25 25.672 25 26.5 C 25.001 26.67 25.029891 26.84 25.087891 27 L 16 27 L 6.9121094 27 C 6.9701094 26.84 6.999 26.67 7 26.5 C 7 25.672 6.328 25 5.5 25 C 5.33 25.001 5.16 25.029891 5 25.087891 L 5 18.912109 C 5.16 18.970109 5.33 18.999 5.5 19 C 6.328 19 7 18.328 7 17.5 C 6.999 17.33 6.9701094 17.16 6.9121094 17 z M 16 19 C 14.35499 19 13 20.35499 13 22 C 13 23.64501 14.35499 25 16 25 C 17.64501 25 19 23.64501 19 22 C 19 20.35499 17.64501 19 16 19 z M 9 20.5 C 8.172 20.5 7.5 21.172 7.5 22 C 7.5 22.828 8.172 23.5 9 23.5 C 9.828 23.5 10.5 22.828 10.5 22 C 10.5 21.172 9.828 20.5 9 20.5 z M 23 20.5 C 22.172 20.5 21.5 21.172 21.5 22 C 21.5 22.828 22.172 23.5 23 23.5 C 23.828 23.5 24.5 22.828 24.5 22 C 24.5 21.172 23.828 20.5 23 20.5 z M 16 21 C 16.564129 21 17 21.435871 17 22 C 17 22.564129 16.564129 23 16 23 C 15.435871 23 15 22.564129 15 22 C 15 21.435871 15.435871 21 16 21 z" fill="#000000"/></svg>
