<?xml version="1.0" encoding="utf-8"?>
<svg xmlns="http://www.w3.org/2000/svg" viewBox="0 0 32 32" fill="#000000"><path d="M 19 2 C 15.698136 2 13 4.6981361 13 8 C 13 9.4469926 13.527519 10.768982 14.388672 11.806641 L 9 18.130859 L 9 19.246094 L 12 24.996094 L 12 28 L 7 28 L 7 30 L 19 30 L 19 28 L 14 28 L 14 25.414062 L 16.982422 22.431641 L 15.193359 19.107422 L 17 16.851562 L 17 13.648438 C 17.627087 13.872064 18.298272 14 19 14 C 22.301864 14 25 11.301864 25 8 C 25 4.6981361 22.301864 2 19 2 z M 19 4 C 21.220984 4 23 5.7790164 23 8 C 23 10.220984 21.220984 12 19 12 C 16.779016 12 15 10.220984 15 8 C 15 5.7790164 16.779016 4 19 4 z M 19 6 A 2 2 0 0 0 17 8 A 2 2 0 0 0 19 10 A 2 2 0 0 0 21 8 A 2 2 0 0 0 19 6 z M 15 14.173828 L 15 16.148438 L 13.519531 18 L 11.740234 18 L 15 14.173828 z M 11.650391 20 L 13.402344 20 L 14.517578 22.068359 L 13.341797 23.244141 L 11.650391 20 z" fill="#000000"/></svg>
