<?xml version="1.0" encoding="utf-8"?>
<svg xmlns="http://www.w3.org/2000/svg" viewBox="0 0 32 32" fill="#000000"><path d="M 5 5 L 5 6 L 5 18 L 5 19 L 6 19 L 26 19 L 27 19 L 27 18 L 27 6 L 27 5 L 26 5 L 6 5 L 5 5 z M 7 7 L 25 7 L 25 17 L 7 17 L 7 7 z M 13 9 L 10 12 L 13 15 L 13 13 L 19 13 L 19 15 L 22 12 L 19 9 L 19 11 L 13 11 L 13 9 z M 15 20 L 15 21 L 11 21 L 10 21 L 10 22 L 10 23 L 5 23 L 5 25 L 10 25 L 10 26 L 10 27 L 11 27 L 21 27 L 22 27 L 22 26 L 22 25 L 27 25 L 27 23 L 22 23 L 22 22 L 22 21 L 21 21 L 17 21 L 17 20 L 15 20 z M 12 23 L 20 23 L 20 25 L 12 25 L 12 23 z" fill="#000000"/></svg>
