<?xml version="1.0" encoding="utf-8"?>
<svg xmlns="http://www.w3.org/2000/svg" viewBox="0 0 32 32" fill="#000000"><path style="text-indent:0;text-align:start;line-height:normal;text-transform:none;block-progression:tb;-inkscape-font-specification:Bitstream Vera Sans" d="M 17.25 3.03125 C 16.93645 3.060851 16.628033 3.1735225 16.34375 3.4375 L 16.3125 3.4375 L 16.3125 3.46875 L 5.3125 14.5 L 4.59375 15.21875 L 5.3125 15.90625 L 15.09375 25.71875 L 15.8125 26.40625 L 16.53125 25.71875 L 27.53125 14.6875 C 27.54315 14.67647 27.55112 14.66746 27.5625 14.65625 C 28.102386 14.124474 28.07419 13.413923 27.9375 12.875 C 27.797929 12.324721 27.522037 11.761153 27.15625 11.15625 C 26.424675 9.9464433 25.298661 8.5545258 23.875 7.15625 C 22.477512 5.7587625 21.056949 4.6355332 19.84375 3.90625 C 19.237151 3.5416084 18.704186 3.2699655 18.15625 3.125 C 17.882282 3.0525173 17.56355 3.0016491 17.25 3.03125 z M 17.5625 5.0625 C 17.586601 5.0654742 17.577205 5.0498552 17.625 5.0625 C 17.873532 5.128253 18.307224 5.3212666 18.8125 5.625 C 19.823051 6.2324668 21.167238 7.2609875 22.46875 8.5625 C 23.793089 9.8632242 24.832075 11.186307 25.4375 12.1875 C 25.740213 12.688097 25.941196 13.111904 26 13.34375 C 26.003563 13.357795 25.99678 13.364485 26 13.375 L 24.625 14.78125 C 23.418719 14.692141 21.66175 15.56325 20.125 17.0625 C 18.58825 18.56175 17.742922 20.344359 17.84375 21.5625 L 15.8125 23.5625 L 7.4375 15.1875 L 9.46875 13.15625 C 10.675031 13.245359 12.432 12.4055 13.96875 10.90625 C 15.51871 9.3941125 16.367925 7.5938075 16.25 6.375 L 17.5625 5.0625 z M 13 15 L 13 18 L 16 18 L 13 15 z M 6.5 20 C 5.6715729 20 5 20.671573 5 21.5 C 5 22.328427 5.6715729 23 6.5 23 C 7.3284271 23 8 22.328427 8 21.5 C 8 20.671573 7.3284271 20 6.5 20 z M 8.5 25 C 7.6715729 25 7 25.671573 7 26.5 C 7 27.328427 7.6715729 28 8.5 28 C 9.3284271 28 10 27.328427 10 26.5 C 10 25.671573 9.3284271 25 8.5 25 z" overflow="visible" font-family="Bitstream Vera Sans" fill="#000000"/></svg>
