<?xml version="1.0" encoding="utf-8"?>
<svg xmlns="http://www.w3.org/2000/svg" viewBox="0 0 32 32" fill="#000000"><path style="text-indent:0;text-align:start;line-height:normal;text-transform:none;block-progression:tb;-inkscape-font-specification:Bitstream Vera Sans" d="M 14 2 L 14 4 C 14.168439 4 14.691242 4.099325 15.125 4.5625 C 15.446673 4.9059891 15.790609 5.4822235 15.9375 6.46875 C 15.427439 6.234361 14.909565 6 14.3125 6 C 11.861615 6 9.7096913 7.0659773 8.25 8.875 C 6.7903087 10.684023 6 13.18514 6 16.125 C 6 23.394044 11.028941 28 16 28 C 20.971059 28 26 23.385136 26 15.9375 C 26 13.407618 25.445561 10.985932 24.21875 9.125 C 22.991939 7.2640676 20.996006 6 18.5 6 C 18.26757 6 18.07392 6.0330254 17.875 6.0625 C 17.655639 4.7870213 17.169843 3.836033 16.5625 3.1875 C 15.724508 2.2926751 14.744561 2 14 2 z M 14.3125 8 C 15.660715 8 16.763361 8.7765767 17.625 10.15625 C 18.486639 11.535923 19 13.486286 19 15.34375 C 19 18.705957 18.09375 20.5625 18.09375 20.5625 L 19.90625 21.4375 C 19.90625 21.4375 21 19.081543 21 15.34375 C 21 13.129214 20.418111 10.895327 19.3125 9.125 C 19.048105 8.7016448 18.646758 8.4242797 18.3125 8.0625 C 18.401984 8.0489243 18.412439 8 18.5 8 C 20.355994 8 21.627811 8.8009324 22.5625 10.21875 C 23.497189 11.636568 24 13.708382 24 15.9375 C 24 22.499864 19.726941 26 16 26 C 12.273059 26 8 22.483956 8 16.125 C 8 13.54286 8.7034413 11.499477 9.8125 10.125 C 10.921559 8.7505227 12.414385 8 14.3125 8 z" overflow="visible" font-family="Bitstream Vera Sans" fill="#000000"/></svg>
