<?xml version="1.0" encoding="utf-8"?>
<svg xmlns="http://www.w3.org/2000/svg" viewBox="0 0 32 32" fill="#000000"><path d="M 19 2 L 19 6 L 11 6 L 11 4 L 9 4 L 9 6 L 6 6 C 4.346 6 3 7.346 3 9 C 3 10.478 3.911625 15.598734 4.015625 16.177734 L 4.1640625 17 L 6 17 L 6 18 L 8 18 L 8 17 L 10.720703 17 L 10.949219 16.316406 C 11.112219 15.827406 11.938 14 13 14 L 15 14 C 15.551 14 16 14.449 16 15 L 16 19 C 16 19.551 15.551 20 15 20 L 5 20 C 3.346 20 2 21.346 2 23 L 2 26 C 2 27.654 3.346 29 5 29 L 5 30 L 9 30 L 9 29 L 21 29 L 21 30 L 25 30 L 25 29 C 26.654 29 28 27.654 28 26 L 28 14 L 30 14 L 30 9 L 27.857422 9 C 27.493422 7.601 26.399 6.5065781 25 6.1425781 L 25 4 L 23 4 L 23 6 L 21 6 L 21 2 L 19 2 z M 6 8 L 7 8 L 7 12 L 9 12 L 9 8 L 24 8 C 25.103 8 26 8.897 26 10 L 26 26 C 26 26.551 25.551 27 25 27 L 5 27 C 4.449 27 4 26.551 4 26 L 4 23 C 4 22.449 4.449 22 5 22 L 15 22 C 16.654 22 18 20.654 18 19 L 18 15 C 18 13.346 16.654 12 15 12 L 13 12 C 10.985 12 9.8221719 13.919 9.3261719 15 L 5.8398438 15 C 5.5188437 13.136 5 9.939 5 9 C 5 8.449 5.449 8 6 8 z M 22 10 A 2 2 0 0 0 20 12 A 2 2 0 0 0 22 14 A 2 2 0 0 0 24 12 A 2 2 0 0 0 22 10 z M 22 17 C 20.346 17 19 18.346 19 20 C 19 21.654 20.346 23 22 23 C 23.654 23 25 21.654 25 20 C 25 18.346 23.654 17 22 17 z M 22 19 C 22.551 19 23 19.449 23 20 C 23 20.551 22.551 21 22 21 C 21.449 21 21 20.551 21 20 C 21 19.449 21.449 19 22 19 z" fill="#000000"/></svg>
