<?xml version="1.0" encoding="utf-8"?>
<svg xmlns="http://www.w3.org/2000/svg" viewBox="0 0 32 32" fill="#000000"><path style="text-indent:0;text-align:start;line-height:normal;text-transform:none;block-progression:tb;-inkscape-font-specification:Sans" d="M 21.75 1.90625 L 21.15625 2.9375 L 15.28125 12.78125 L 4.4375 20.1875 L 4 20.46875 L 4 21 L 4 22.4375 L 4 22.84375 L 4.28125 23.125 L 10.28125 29.40625 L 10.90625 30.0625 L 11.59375 29.53125 L 22.59375 21.25 L 23 20.9375 L 23 20.4375 L 23 19.28125 L 28.90625 9.15625 L 29.34375 8.4375 L 28.6875 7.90625 L 22.65625 2.6875 L 21.75 1.90625 z M 22.25 4.96875 L 26.78125 8.875 L 23.59375 14.3125 L 19.03125 10.34375 L 22.25 4.96875 z M 18 12.0625 L 22.5625 16.0625 L 21.78125 17.40625 L 17.28125 13.28125 L 18 12.0625 z M 15.90625 14.75 L 21 19.46875 L 21 19.9375 L 11.125 27.40625 L 6 22.03125 L 6 21.5 L 6.84375 20.90625 L 11.5 25.6875 L 13.90625 23.875 L 9.21875 19.3125 L 15.90625 14.75 z M 15.5 17 C 14.119288 17 13 17.895431 13 19 C 13 20.104569 14.119288 21 15.5 21 C 16.880712 21 18 20.104569 18 19 C 18 17.895431 16.880712 17 15.5 17 z" overflow="visible" font-family="Sans" fill="#000000"/></svg>
