<?xml version="1.0" encoding="utf-8"?>
<svg xmlns="http://www.w3.org/2000/svg" viewBox="0 0 32 32" fill="#000000"><path style="text-indent:0;text-align:start;line-height:normal;text-transform:none;block-progression:tb;-inkscape-font-specification:Bitstream Vera Sans" d="M 10 4 C 7.8027056 4 6 5.8027056 6 8 C 6 9.1142275 6.4752606 10.116062 7.21875 10.84375 C 5.8879616 11.745561 5 13.284091 5 15 L 5 20 L 5 20.625 L 5.5625 20.90625 L 7 21.625 L 7 27 L 7 28 L 8 28 L 12 28 L 13 28 L 13 27 L 13 21.625 L 14.4375 20.90625 L 15 20.625 L 15 20 L 15 15 C 15 13.284091 14.112038 11.745561 12.78125 10.84375 C 13.524739 10.116062 14 9.1142275 14 8 C 14 5.8027056 12.197294 4 10 4 z M 10 6 C 11.116414 6 12 6.883586 12 8 C 12 9.116414 11.116414 10 10 10 C 8.883586 10 8 9.116414 8 8 C 8 6.883586 8.883586 6 10 6 z M 22 8 L 22 18 L 21.6875 18 C 20.154167 18 18.872607 19.148932 18.71875 20.6875 L 18 26.875 L 17.875 28 L 19 28 L 27 28 L 28.125 28 L 28 26.875 L 27.1875 20.6875 C 27.033643 19.148932 25.720833 18 24.1875 18 L 24 18 L 24 8 L 22 8 z M 10 12 C 11.654545 12 13 13.345455 13 15 L 13 19.375 L 11.5625 20.09375 L 11 20.375 L 11 21 L 11 26 L 9 26 L 9 21 L 9 20.375 L 8.4375 20.09375 L 7 19.375 L 7 15 C 7 13.345455 8.3454545 12 10 12 z M 21.6875 20 L 24.1875 20 C 24.654167 20 25.172607 20.444818 25.21875 20.90625 L 25.21875 20.9375 L 25.21875 21 L 20.6875 21 L 20.6875 20.90625 C 20.733643 20.444818 21.220833 20 21.6875 20 z M 20.46875 23 L 25.46875 23 L 25.84375 26 L 20.125 26 L 20.46875 23 z" overflow="visible" font-family="Bitstream Vera Sans" fill="#000000"/></svg>
