<?xml version="1.0" encoding="utf-8"?>
<svg xmlns="http://www.w3.org/2000/svg" viewBox="0 0 32 32" fill="#000000"><path style="text-indent:0;text-align:start;line-height:normal;text-transform:none;block-progression:tb;-inkscape-font-specification:Bitstream Vera Sans" d="M 22.5625 4.59375 L 21.875 5.28125 L 5.28125 21.875 L 4.59375 22.5625 L 5.28125 23.28125 C 10.239381 28.238297 18.324077 28.238423 23.28125 23.28125 C 28.238297 18.323119 28.238423 10.238423 23.28125 5.28125 L 22.5625 4.59375 z M 22.4375 7.5625 C 25.907945 11.77687 25.817148 17.93199 21.875 21.875 C 17.932969 25.817031 11.777733 25.908039 7.5625 22.4375 L 9.78125 20.21875 C 11.006346 20.966315 14.368208 22.381792 18.375 18.375 C 21.212186 15.537814 22.273362 12.204644 20.28125 9.71875 L 22.4375 7.5625 z M 17.6875 12.40625 C 17.984406 12.363078 18.60475 12.39325 19.09375 12.625 C 19.74575 12.934 20.1075 13.78 20.0625 13.875 C 20.0175 13.969 19.2445 14.1355 18.5625 13.8125 C 17.903019 13.500165 17.479001 12.659361 17.5 12.5 C 17.500717 12.494558 17.498217 12.472514 17.5 12.46875 C 17.504725 12.458775 17.546029 12.446074 17.5625 12.4375 C 17.59309 12.421577 17.62317 12.415604 17.6875 12.40625 z M 16.6875 13.71875 C 16.7765 13.62975 17.617 13.89825 18.125 14.40625 C 18.633 14.91425 18.699 15.801 18.625 15.875 C 18.552 15.948 17.781 15.87375 17.25 15.34375 C 16.719 14.81175 16.5985 13.80775 16.6875 13.71875 z M 15.375 15.1875 C 15.464 15.0985 16.27325 15.367 16.78125 15.875 C 17.28925 16.383 17.35525 17.26975 17.28125 17.34375 C 17.20825 17.41675 16.43725 17.3425 15.90625 16.8125 C 15.37625 16.2805 15.287 15.2765 15.375 15.1875 z M 13.9375 16.6875 C 14.280062 16.7055 14.91425 16.883 15.3125 17.28125 C 15.8435 17.81225 15.949 18.551 15.875 18.625 C 15.802 18.698 14.883 18.633 14.375 18.125 C 13.868 17.616 13.62975 16.80675 13.71875 16.71875 C 13.741 16.6965 13.823313 16.6815 13.9375 16.6875 z M 12.59375 17.40625 C 12.883325 17.507625 13.496212 17.87933 13.75 18.4375 C 14.06 19.1215 13.87525 19.86325 13.78125 19.90625 C 13.68725 19.94925 12.8595 19.56025 12.5625 18.90625 C 12.361788 18.465762 12.347038 17.942866 12.375 17.625 L 12.59375 17.40625 z" overflow="visible" font-family="Bitstream Vera Sans" fill="#000000"/></svg>
