<?xml version="1.0" encoding="utf-8"?>
<svg xmlns="http://www.w3.org/2000/svg" viewBox="0 0 32 32" fill="#000000"><path style="text-indent:0;text-align:start;line-height:normal;text-transform:none;block-progression:tb;-inkscape-font-specification:Bitstream Vera Sans" d="M 9 4 C 7.3545455 4 6 5.3545455 6 7 L 6 27 L 8 27 L 8 7 C 8 6.4454545 8.4454545 6 9 6 L 10 6 L 10 4 L 9 4 z M 25 4 C 23.354545 4 22 5.3545455 22 7 L 22 8 L 9 8 L 9 10 L 22 10 L 22 12 L 9 12 L 9 14 L 22 14 L 22 16 L 9 16 L 9 18 L 22 18 L 22 20 L 9 20 L 9 22 L 22 22 L 22 24 L 9 24 L 9 26 L 22 26 L 22 27 L 24 27 L 24 7 C 24 6.4454545 24.445455 6 25 6 L 26 6 L 26 4 L 25 4 z" fill="#000000"/></svg>
