<?xml version="1.0" encoding="utf-8"?>
<svg xmlns="http://www.w3.org/2000/svg" viewBox="0 0 32 32" fill="#000000"><path style="line-height:normal;text-indent:0;text-align:start;text-decoration-line:none;text-decoration-style:solid;text-decoration-color:#000;text-transform:none;block-progression:tb;isolation:auto;mix-blend-mode:normal" d="M 11.5 3 C 9.578848 3 8 4.578848 8 6.5 C 8 8.421152 9.578848 10 11.5 10 C 13.421152 10 15 8.421152 15 6.5 C 15 4.578848 13.421152 3 11.5 3 z M 20.5 3 C 18.578812 3 17 4.5788117 17 6.5 C 17 8.7333333 16.105469 10.552734 16.105469 10.552734 L 15.783203 11.197266 L 16.292969 11.707031 C 16.292969 11.707031 16.457477 11.853593 16.724609 12.033203 L 15.675781 13.431641 C 15.06196 12.006211 13.641787 11 12 11 L 10 11 C 7.8026661 11 6 12.802666 6 15 L 6 21.234375 L 8 22.234375 L 8 29 L 10 29 L 10 20.998047 L 8 19.998047 L 8 15 C 8 13.883334 8.8833339 13 10 13 L 12 13 C 13.116666 13 14 13.883334 14 15 L 14 15.666016 L 11.199219 19.400391 L 12.800781 20.599609 L 17.203125 14.730469 L 17.443359 16.619141 C 15.606994 18.090542 14.864706 20.726236 14.453125 23.078125 C 13.998063 25.678486 14 28 14 28 L 14 29 L 27 29 L 27 28 C 27 28 27.0019 25.67848 26.546875 23.078125 C 26.294264 21.634633 25.914587 20.086178 25.236328 18.763672 L 27.216797 14.802734 L 24.378906 11.964844 C 24.586853 11.817233 24.707031 11.707031 24.707031 11.707031 L 25.216797 11.197266 L 24.894531 10.552734 C 24.894531 10.552734 24 8.7333333 24 6.5 C 24 4.5788117 22.421188 3 20.5 3 z M 11.5 5 C 12.340272 5 13 5.6597282 13 6.5 C 13 7.3402718 12.340272 8 11.5 8 C 10.659728 8 10 7.3402718 10 6.5 C 10 5.6597282 10.659728 5 11.5 5 z M 20.5 5 C 21.340812 5 22 5.6591883 22 6.5 C 22 8.4381795 22.448484 9.773177 22.773438 10.587891 C 22.336168 10.781555 21.614195 11 20.501953 11 C 19.388602 11 18.664066 10.781573 18.226562 10.587891 C 18.551516 9.773177 19 8.4381795 19 6.5 C 19 5.6591883 19.659188 5 20.5 5 z M 19.009766 13 L 21.990234 13 C 21.992134 13.02038 21.999594 13.021972 21.996094 13.044922 L 21.994141 13.056641 L 21.423828 17.537109 L 22.003906 17.869141 C 23.192888 18.548559 24.158187 21.02223 24.578125 23.421875 C 24.906339 25.297383 24.891853 26.329323 24.908203 27 L 16.091797 27 C 16.108147 26.329323 16.093697 25.297383 16.421875 23.421875 C 16.841813 21.02223 17.807112 18.548559 18.996094 17.869141 L 19.576172 17.537109 L 19.492188 16.873047 L 19.005859 13.058594 L 19.003906 13.044922 C 19.000406 13.022022 19.007866 13.02041 19.009766 13 z M 23.855469 14.269531 L 24.783203 15.197266 L 23.90625 16.949219 C 23.79064 16.838149 23.682243 16.71978 23.556641 16.619141 L 23.855469 14.269531 z" font-weight="400" font-family="sans-serif" white-space="normal" overflow="visible" fill="#000000"/></svg>
