<?xml version="1.0" encoding="utf-8"?>
<svg xmlns="http://www.w3.org/2000/svg" viewBox="0 0 32 32" fill="#000000"><path style="text-indent:0;text-align:start;line-height:normal;text-transform:none;block-progression:tb;-inkscape-font-specification:Bitstream Vera Sans" d="M 1 10 L 1 12 L 2.125 12 L 3.71875 21.46875 L 3.71875 21.5 C 3.9356607 22.584553 4.7118551 23.486929 5.71875 23.84375 L 5 26 L 7 26 L 7.65625 24 L 24.34375 24 L 25 26 L 27 26 L 26.28125 23.84375 C 27.288145 23.486929 28.064339 22.584553 28.28125 21.5 L 28.28125 21.46875 L 29.875 12 L 31 12 L 31 10 L 1 10 z M 4.1875 12 L 27.8125 12 L 26.3125 21.09375 C 26.3104 21.10439 26.3148 21.11454 26.3125 21.125 C 26.18863 21.6897 25.836136 22 25.3125 22 L 6.6875 22 C 6.1638636 22 5.8113696 21.6897 5.6875 21.125 L 5.6875 21.09375 L 4.1875 12 z" overflow="visible" font-family="Bitstream Vera Sans" fill="#000000"/></svg>
