<?xml version="1.0" encoding="utf-8"?>
<svg xmlns="http://www.w3.org/2000/svg" viewBox="0 0 32 32" fill="#000000"><path style="text-indent:0;text-align:start;line-height:normal;text-transform:none;block-progression:tb;-inkscape-font-specification:Sans" d="M 8 5 C 5.6374716 5 4.1785998 6.2609097 3.5625 7.46875 C 2.9540762 8.6615418 2.9989606 9.7835659 3 9.8125 C 3.0000131 9.812865 3 9.84375 3 9.84375 L 3 26 L 3 27 L 4 27 L 28 27 L 29 27 L 29 26 L 29 10 C 29 10 28.997144 8.7984445 28.375 7.5625 C 27.752856 6.3265555 26.322099 5 24 5 L 8 5 z M 8 7 L 24 7 C 25.650901 7 26.209144 7.6734445 26.59375 8.4375 C 26.978356 9.2015555 27 10 27 10 L 27 25 L 25 25 L 25 22 C 25 20.906937 24.093063 20 23 20 L 9 20 C 7.9069372 20 7 20.906937 7 22 L 7 25 L 5 25 L 5 9.8125 L 5 9.78125 C 5 9.78125 4.9861 9.0761597 5.34375 8.375 C 5.7014002 7.6738403 6.2575284 7 8 7 z M 7 9 L 7 10 L 7 13 L 7 14 L 8 14 L 17 14 L 18 14 L 18 13 L 18 10 L 18 9 L 17 9 L 8 9 L 7 9 z M 9 11 L 16 11 L 16 12 L 9 12 L 9 11 z M 22 11 C 20.35499 11 19 12.35499 19 14 C 19 15.64501 20.35499 17 22 17 C 23.64501 17 25 15.64501 25 14 C 25 12.35499 23.64501 11 22 11 z M 22 13 C 22.564128 13 23 13.435872 23 14 C 23 14.564128 22.564128 15 22 15 C 21.435872 15 21 14.564128 21 14 C 21 13.435872 21.435872 13 22 13 z M 15 16 C 14.447715 16 14 16.447715 14 17 C 14 17.552285 14.447715 18 15 18 C 15.552285 18 16 17.552285 16 17 C 16 16.447715 15.552285 16 15 16 z M 9 22 L 23 22 L 23 25 L 21 25 L 21 23 L 19 23 L 19 25 L 17 25 L 17 23 L 15 23 L 15 25 L 13 25 L 13 23 L 11 23 L 11 25 L 9 25 L 9 22 z" overflow="visible" font-family="Sans" fill="#000000"/></svg>
