<?xml version="1.0" encoding="utf-8"?>
<svg xmlns="http://www.w3.org/2000/svg" viewBox="0 0 32 32" fill="#000000"><path style="text-indent:0;text-align:start;line-height:normal;text-transform:none;block-progression:tb;-inkscape-font-specification:Sans" d="M 14.8125 3 L 14.8125 5 L 12 5 L 11 5 L 11 6 L 11 9 L 8 9 L 7 9 L 7 10 C 7 14.925726 10.875 16.90625 10.875 16.90625 L 11.0625 17 L 11.3125 17 L 20.6875 17 L 20.9375 17 L 21.125 16.90625 C 21.125 16.90625 25 14.896455 25 10 L 25 9 L 24 9 L 21 9 L 21 6 L 21 5 L 20 5 L 17.1875 5 L 17.1875 3 L 14.8125 3 z M 13 7 L 19 7 L 19 9 L 13 9 L 13 7 z M 9.1875 11 L 22.8125 11 C 22.382237 13.864325 20.573292 14.906136 20.375 15 L 11.59375 15 C 11.391118 14.906565 9.6119947 13.889229 9.1875 11 z M 10 19 C 10 19.421355 9.8184193 19.807056 9.34375 20.3125 C 8.8690807 20.817944 8.1178938 21.351913 7.34375 22 C 5.7954623 23.296175 4 25.124724 4 28 L 6 28 C 6 25.934276 7.2045377 24.746575 8.65625 23.53125 C 9.3821062 22.923587 10.130919 22.348744 10.78125 21.65625 C 11.431581 20.963756 12 20.085145 12 19 L 10 19 z M 20 19 C 20 20.085145 20.568419 20.963756 21.21875 21.65625 C 21.869081 22.348744 22.617894 22.923587 23.34375 23.53125 C 24.795462 24.746575 26 25.934276 26 28 L 28 28 C 28 25.124724 26.204538 23.296175 24.65625 22 C 23.882106 21.351913 23.130919 20.817944 22.65625 20.3125 C 22.181581 19.807056 22 19.421355 22 19 L 20 19 z M 16 20.5 L 12.5 24 L 15 24 L 15 28 L 17 28 L 17 24 L 19.5 24 L 16 20.5 z" overflow="visible" font-family="Sans" fill="#000000"/></svg>
