<?xml version="1.0" encoding="utf-8"?>
<svg xmlns="http://www.w3.org/2000/svg" viewBox="0 0 32 32" fill="#000000"><path style="text-indent:0;text-align:start;line-height:normal;text-transform:none;block-progression:tb;-inkscape-font-specification:Bitstream Vera Sans" d="M 16 3 C 13.250421 3 11 5.2504209 11 8 C 11 9.5776273 11.755317 10.988081 12.90625 11.90625 C 11.756965 12.618527 10.848223 13.692074 10.375 15 L 7 15 C 6.2 15 5.6416732 15.603855 5.375 16.15625 C 5.1083268 16.708645 5 17.328788 5 18 C 5 18.671212 5.1083268 19.291355 5.375 19.84375 C 5.6416732 20.396145 6.2 21 7 21 L 7 27 L 7 28 L 7 29 L 9 29 L 9 28 L 11 28 L 11 29 L 13 29 L 13 28 L 15 28 L 15 29 L 17 29 L 17 28 L 19 28 L 19 29 L 21 29 L 21 28 L 23 28 L 23 29 L 25 29 L 25 27 L 25 21 C 25.8 21 26.358327 20.396145 26.625 19.84375 C 26.891673 19.291355 27 18.671212 27 18 C 27 17.328788 26.891673 16.708645 26.625 16.15625 C 26.358327 15.603855 25.8 15 25 15 L 21.625 15 C 21.151777 13.692074 20.243035 12.618527 19.09375 11.90625 C 20.244683 10.988081 21 9.5776273 21 8 C 21 5.2504209 18.749579 3 16 3 z M 16 5 C 17.668699 5 19 6.3313011 19 8 C 19 9.6686989 17.668699 11 16 11 C 14.331301 11 13 9.6686989 13 8 C 13 6.3313011 14.331301 5 16 5 z M 16 13 C 17.471457 13 18.76373 13.798242 19.46875 15 L 12.53125 15 C 13.23627 13.798242 14.528543 13 16 13 z M 7.1875 17 L 24.8125 17 C 24.817939 17.013433 24.798612 17.002482 24.8125 17.03125 C 24.895827 17.203855 25 17.571212 25 18 C 25 18.428788 24.895827 18.796145 24.8125 18.96875 C 24.798612 18.997518 24.817939 18.986567 24.8125 19 L 7.1875 19 C 7.1820606 18.986567 7.2013878 18.997518 7.1875 18.96875 C 7.1041732 18.796145 7 18.428788 7 18 C 7 17.571212 7.1041732 17.203855 7.1875 17.03125 C 7.2013878 17.002482 7.1820606 17.013433 7.1875 17 z M 9 21 L 10 21 L 10 24 L 10 25 L 11 25 L 21 25 L 22 25 L 22 24 L 22 21 L 23 21 L 23 26 L 9 26 L 9 21 z M 12 21 L 20 21 L 20 23 L 12 23 L 12 21 z" fill="#000000"/></svg>
