<?xml version="1.0" encoding="utf-8"?>
<svg xmlns="http://www.w3.org/2000/svg" viewBox="0 0 32 32" fill="#000000"><path style="line-height:normal;text-indent:0;text-align:start;text-decoration-line:none;text-decoration-style:solid;text-decoration-color:#000;text-transform:none;block-progression:tb;isolation:auto;mix-blend-mode:normal" d="M 2.25 8 C 1.0409103 8 0 8.9741267 0 10.199219 L 0 14 L 6 14 L 8 14 L 8 15 L 7 15 L 7 17 L 8 17 L 8 20 L 7 20 L 7 22 L 8 22 L 8 24 L 13 24 L 13 22 L 25 22 L 25 24 L 30 24 L 30 22 L 31 22 L 31 20 L 30 20 L 30 17 L 31 17 L 31 15 L 30 15 L 30 14 L 32 14 L 32 13 L 32 10.199219 C 32 8.9741267 30.95909 8 29.75 8 L 8.25 8 C 7.7941139 8 7.3612859 8.1387417 7 8.3769531 C 6.6387141 8.1387417 6.2058861 8 5.75 8 L 2.25 8 z M 2.25 10 L 5.75 10 C 5.9229103 10 6 10.09831 6 10.199219 L 6 12 L 2 12 L 2 10.199219 C 2 10.09831 2.0770897 10 2.25 10 z M 8.25 10 L 29.75 10 C 29.92291 10 30 10.09831 30 10.199219 L 30 12 L 8 12 L 8 10.199219 C 8 10.09831 8.0770897 10 8.25 10 z M 10 14 L 11 14 L 11 22 L 10 22 L 10 14 z M 13 14 L 25 14 L 25 17 L 13 17 L 13 14 z M 27 14 L 28 14 L 28 22 L 27 22 L 27 14 z M 13 19 L 25 19 L 25 20 L 13 20 L 13 19 z" fill="#000000"/></svg>
