<?xml version="1.0" encoding="utf-8"?>
<svg xmlns="http://www.w3.org/2000/svg" viewBox="0 0 32 32" fill="#000000"><path style="text-indent:0;text-align:start;line-height:normal;text-transform:none;block-progression:tb;-inkscape-font-specification:Bitstream Vera Sans" d="M 9.0625 6 L 7.875 6.53125 L 9.8125 10.84375 L 9.15625 11.15625 L 6.96875 6.28125 L 5.78125 6.8125 L 8.0625 11.875 L 7.5625 12.1875 L 5.53125 7.6875 L 4.34375 8.21875 L 6.4375 12.90625 L 5.8125 13.28125 L 4.1875 9.6875 L 3 10.25 L 5.03125 14.6875 L 5.4375 15.625 L 6.46875 18.03125 C 6.7640882 18.769596 7.4006671 19.285216 8.125 19.5 L 8.46875 21 L 13.59375 21 L 12.9375 17.96875 C 13.400252 17.675455 13.704006 17.230785 13.8125 16.6875 L 15 11.21875 C 15 11.21875 14.45525 10.44475 13.65625 10.84375 C 13.39025 10.97675 12.21875 12.96875 12.21875 12.96875 L 12.0625 12.625 L 11.40625 11.21875 L 9.0625 6 z M 22.9375 6 L 19.9375 12.625 L 19.78125 12.96875 C 19.78125 12.96875 18.60975 10.97675 18.34375 10.84375 C 17.54575 10.44475 17 11.21875 17 11.21875 L 18.1875 16.6875 C 18.295994 17.22997 18.59945 17.67494 19.0625 17.96875 L 18.40625 21 L 23.53125 21 L 23.875 19.5 C 24.599169 19.28532 25.235357 18.769596 25.53125 18.03125 L 26.96875 14.6875 L 29 10.25 L 27.8125 9.6875 L 26.1875 13.28125 L 25.5625 12.90625 L 27.65625 8.25 L 26.46875 7.6875 L 24.4375 12.1875 L 23.9375 11.875 L 26.21875 6.8125 L 25.03125 6.28125 L 22.84375 11.15625 L 22.1875 10.84375 L 24.125 6.53125 L 22.9375 6 z M 0 22 C 0 22.942667 0.58688508 23.684532 1.3125 24.1875 C 2.0381149 24.690468 2.964638 25 4 25 C 5.0385518 25 5.9636774 24.691901 6.6875 24.1875 C 6.7963937 24.111617 6.8987681 24.023981 7 23.9375 C 7.104314 24.026988 7.1998163 24.109392 7.3125 24.1875 C 8.0381149 24.690468 8.964638 25 10 25 C 11.038552 25 11.963677 24.691901 12.6875 24.1875 C 12.796394 24.111617 12.898768 24.023981 13 23.9375 C 13.104314 24.026988 13.199816 24.109392 13.3125 24.1875 C 14.038115 24.690468 14.964638 25 16 25 C 17.038552 25 17.963677 24.691901 18.6875 24.1875 C 18.796394 24.111617 18.898768 24.023981 19 23.9375 C 19.104314 24.026988 19.199816 24.109392 19.3125 24.1875 C 20.038115 24.690468 20.964638 25 22 25 C 23.038552 25 23.963677 24.691901 24.6875 24.1875 C 24.796394 24.111617 24.898768 24.023981 25 23.9375 C 25.104314 24.026988 25.199816 24.109392 25.3125 24.1875 C 26.038115 24.690468 26.964638 25 28 25 C 29.038552 25 29.963677 24.691901 30.6875 24.1875 C 31.411323 23.683099 32 22.941864 32 22 L 30 22 C 30 22.04214 29.92068 22.312901 29.5625 22.5625 C 29.204323 22.812099 28.633448 23 28 23 C 27.363362 23 26.793885 22.809532 26.4375 22.5625 C 26.081115 22.315468 26 22.057333 26 22 L 24 22 C 24 22.04214 23.92068 22.312901 23.5625 22.5625 C 23.204323 22.812099 22.633448 23 22 23 C 21.363362 23 20.793885 22.809532 20.4375 22.5625 C 20.081115 22.315468 20 22.057333 20 22 L 18 22 C 18 22.04214 17.92068 22.312901 17.5625 22.5625 C 17.204323 22.812099 16.633448 23 16 23 C 15.363362 23 14.793885 22.809532 14.4375 22.5625 C 14.081115 22.315468 14 22.057333 14 22 L 12 22 C 12 22.04214 11.92068 22.312901 11.5625 22.5625 C 11.204323 22.812099 10.633448 23 10 23 C 9.363362 23 8.7938851 22.809532 8.4375 22.5625 C 8.0811149 22.315468 8 22.057333 8 22 L 6 22 C 6 22.04214 5.920677 22.312901 5.5625 22.5625 C 5.2043226 22.812099 4.6334482 23 4 23 C 3.363362 23 2.7938851 22.809532 2.4375 22.5625 C 2.0811149 22.315468 2 22.057333 2 22 L 0 22 z" fill="#000000"/></svg>
