<?xml version="1.0" encoding="utf-8"?>
<svg xmlns="http://www.w3.org/2000/svg" viewBox="0 0 32 32" fill="#000000"><path style="text-indent:0;text-align:start;line-height:normal;text-transform:none;block-progression:tb;-inkscape-font-specification:Bitstream Vera Sans" d="M 14.78125 4 C 12.860098 4 11.28125 5.5788481 11.28125 7.5 C 11.28125 9.4211519 12.860098 11 14.78125 11 C 16.702402 11 18.28125 9.4211519 18.28125 7.5 C 18.28125 5.5788481 16.702402 4 14.78125 4 z M 14.78125 6 C 15.621522 6 16.28125 6.6597281 16.28125 7.5 C 16.28125 8.3402719 15.621522 9 14.78125 9 C 13.940978 9 13.28125 8.3402719 13.28125 7.5 C 13.28125 6.6597281 13.940978 6 14.78125 6 z M 24.53125 10.375 L 21.21875 12.125 L 18.5 10.65625 L 18.125 10.46875 L 17.71875 10.59375 L 14 11.71875 L 13.65625 11.84375 L 13.46875 12.15625 L 12.3125 13.96875 L 9.375 12.09375 L 8.28125 13.78125 L 11.25 15.65625 C 12.179157 16.245375 13.450525 15.96357 14.03125 15.03125 L 14.3125 14.5625 L 15.15625 16.96875 L 14.4375 18.3125 C 14.099608 18.966291 14.146071 19.769285 14.5625 20.375 L 15.6875 22 C 12.906351 22.035098 10.419402 22.529732 8.53125 23.3125 C 8.1517444 23.469831 7.8002263 23.632111 7.46875 23.8125 L 9.75 15.90625 L 8.46875 15.09375 L 5.34375 25.71875 C 5.1290696 26.107566 5 26.541363 5 27 L 7 27 C 7 26.857554 7.0937444 26.601588 7.46875 26.25 C 7.8437556 25.898412 8.4594118 25.496958 9.28125 25.15625 C 10.924926 24.474834 13.325435 24 16 24 C 18.672715 24 21.074022 24.502111 22.71875 25.1875 C 23.541114 25.530195 24.155198 25.898522 24.53125 26.25 C 24.907302 26.601478 25 26.870959 25 27 L 27 27 C 27 26.626737 26.898515 26.291526 26.75 25.96875 L 24.71875 13.75 L 23.3125 14.53125 L 24.90625 24.0625 C 24.752593 23.968209 24.60384 23.869237 24.4375 23.78125 L 21.65625 19.5 L 19.625 13.53125 L 20.28125 13.875 C 20.865025 14.187808 21.567827 14.216473 22.15625 13.90625 L 25.46875 12.15625 L 24.53125 10.375 z M 17.25 12.8125 L 19.78125 20.25 L 19.8125 20.375 L 19.90625 20.5 L 21.3125 22.65625 C 20.352699 22.410344 19.334748 22.200084 18.21875 22.09375 L 16.21875 19.21875 L 17.125 17.5 L 17.3125 17.125 L 17.15625 16.71875 L 15.9375 13.21875 L 17.25 12.8125 z" overflow="visible" font-family="Bitstream Vera Sans" fill="#000000"/></svg>
