<?xml version="1.0" encoding="utf-8"?>
<svg xmlns="http://www.w3.org/2000/svg" viewBox="0 0 32 32" fill="#000000"><path style="text-indent:0;text-align:start;line-height:normal;text-transform:none;block-progression:tb;-inkscape-font-specification:Bitstream Vera Sans" d="M 20 5 L 20 6 L 20 10 L 16 10 L 15 10 L 15 11 L 15 15 L 11 15 L 10 15 L 10 16 L 10 20 L 6 20 L 5 20 L 5 21 L 5 27 L 7 27 L 7 22 L 11 22 L 12 22 L 12 21 L 12 17 L 16 17 L 17 17 L 17 16 L 17 12 L 21 12 L 22 12 L 22 11 L 22 7 L 27 7 L 27 5 L 21 5 L 20 5 z" overflow="visible" font-family="Bitstream Vera Sans" fill="#000000"/></svg>
