<?xml version="1.0" encoding="utf-8"?>
<svg xmlns="http://www.w3.org/2000/svg" viewBox="0 0 32 32" fill="#000000"><path style="text-indent:0;text-align:start;line-height:normal;text-transform:none;block-progression:tb;-inkscape-font-specification:Sans" d="M 16 7 C 5.9609712 7 3.875 7.28125 3.875 7.28125 L 3.21875 7.375 L 3.03125 7.96875 C 3.03125 7.96875 1 14.651842 1 20 L 1 21 L 2 21 C 7.3659517 21 9.8447782 22.225039 10.96875 23.25 C 11.530736 23.76248 11.786137 24.229777 11.90625 24.5625 C 12.026363 24.895223 12 25 12 25 L 12 26 L 13 26 L 19 26 L 20.03125 26 L 20 24.96875 C 20 24.96875 19.97701 24.89352 20.09375 24.5625 C 20.21049 24.231479 20.473308 23.761123 21.03125 23.25 C 22.147134 22.227754 24.608367 21 30 21 L 31 21 L 31 20 C 31 13.924002 28.9375 7.9375 28.9375 7.9375 L 28.75 7.375 L 28.125 7.28125 C 28.125 7.28125 25.935218 7 16 7 z M 16 9 C 25.378024 9 27.037796 9.2251967 27.25 9.25 C 27.526221 10.111351 28.761097 14.274498 28.9375 19.0625 C 26.408815 19.145685 24.434121 19.471895 22.90625 19.96875 C 22.532599 14.781121 20.875 11.53125 20.875 11.53125 L 19.125 12.46875 C 19.125 12.46875 20.715877 15.618749 20.9375 20.84375 C 20.430394 21.131095 20.007325 21.428385 19.65625 21.75 C 18.849692 22.488877 18.432635 23.268521 18.21875 23.875 C 18.19537 23.94129 18.20611 23.93625 18.1875 24 L 13.8125 24 C 13.793 23.93479 13.8058 23.9429 13.78125 23.875 C 13.562925 23.270223 13.121264 22.48752 12.3125 21.75 C 11.967632 21.435512 11.555312 21.12612 11.0625 20.84375 C 11.284123 15.618749 12.875 12.46875 12.875 12.46875 L 11.125 11.53125 C 11.125 11.53125 9.4630801 14.7949 9.09375 20 C 7.5808989 19.502606 5.6245536 19.150152 3.125 19.0625 C 3.3191979 14.803293 4.5134018 10.187362 4.78125 9.25 C 4.9936331 9.2241887 6.5495797 9 16 9 z" overflow="visible" font-family="Sans" fill="#000000"/></svg>
