<?xml version="1.0" encoding="utf-8"?>
<svg xmlns="http://www.w3.org/2000/svg" viewBox="0 0 32 32" fill="#000000"><path style="text-indent:0;text-align:start;line-height:normal;text-transform:none;block-progression:tb;-inkscape-font-specification:Bitstream Vera Sans" d="M 2 7 L 2 8 L 2 24 L 2 25 L 3 25 L 29 25 L 30 25 L 30 24 L 30 8 L 30 7 L 29 7 L 3 7 L 2 7 z M 4 9 L 28 9 L 28 23 L 4 23 L 4 9 z M 11 11 C 8.2504209 11 6 13.250421 6 16 C 6 18.749579 8.2504209 21 11 21 C 13.749579 21 16 18.749579 16 16 C 16 13.250421 13.749579 11 11 11 z M 23 11 C 20.250484 11 18 13.250484 18 16 C 18 18.749516 20.250484 21 23 21 C 24.193552 21 25.277963 20.559287 26.125 19.875 L 24.875 18.3125 C 24.348037 18.738213 23.708448 19 23 19 C 21.331516 19 20 17.668484 20 16 C 20 14.331516 21.331516 13 23 13 C 23.708448 13 24.348037 13.261787 24.875 13.6875 L 26.125 12.125 C 25.277963 11.440713 24.193552 11 23 11 z M 11 13 C 12.668699 13 14 14.331301 14 16 C 14 17.668699 12.668699 19 11 19 C 9.3313011 19 8 17.668699 8 16 C 8 14.331301 9.3313011 13 11 13 z" overflow="visible" font-family="Bitstream Vera Sans" fill="#000000"/></svg>
