<?xml version="1.0" encoding="utf-8"?>
<svg xmlns="http://www.w3.org/2000/svg" viewBox="0 0 32 32" fill="#000000"><path style="text-indent:0;text-align:start;line-height:normal;text-transform:none;block-progression:tb;-inkscape-font-specification:Bitstream Vera Sans" d="M 6 3 L 6 4 L 6 10 L 8 10 L 8 5 L 24 5 L 24 10 L 26 10 L 26 4 L 26 3 L 25 3 L 7 3 L 6 3 z M 7 12 L 7 20 L 9 20 L 9 18 L 9.125 17.78125 L 10 20 L 12 20 L 10.21875 15.5625 L 12 12 L 10 12 L 9 14 L 9 12 L 7 12 z M 13 12 L 13 13 L 13 20 L 15 20 L 15 15.34375 L 15.1875 15.59375 L 16 16.65625 L 16.8125 15.59375 L 17 15.34375 L 17 20 L 19 20 L 19 13 L 19 12 L 18 12 L 17.5 12 L 17 12 L 16.6875 12.40625 L 16 13.3125 L 15.3125 12.40625 L 15 12 L 14.5 12 L 14 12 L 13 12 z M 21 12 L 21 19 L 21 20 L 22 20 L 25 20 L 25 18 L 23 18 L 23 12 L 21 12 z M 6 22 L 6 28 L 6 29 L 7 29 L 25 29 L 26 29 L 26 28 L 26 22 L 24 22 L 24 27 L 8 27 L 8 22 L 6 22 z" fill="#000000"/></svg>
