<?xml version="1.0" encoding="utf-8"?>
<svg xmlns="http://www.w3.org/2000/svg" viewBox="0 0 32 32" fill="#000000"><path style="text-indent:0;text-align:start;line-height:normal;text-transform:none;block-progression:tb;-inkscape-font-specification:Sans" d="M 10.78125 4 L 10.59375 4.09375 L 3.59375 7.09375 L 3 7.34375 L 3 8 L 3 13 L 3 14 L 4 14 L 7 14 L 7 27 L 7 28 L 8 28 L 24 28 L 25 28 L 25 27 L 25 14 L 28 14 L 29 14 L 29 13 L 29 8 L 29 7.34375 L 28.40625 7.09375 L 21.40625 4.09375 L 21.21875 4 L 21 4 L 11 4 L 10.78125 4 z M 13.4375 6 L 18.5625 6 L 16 8.5625 L 13.4375 6 z M 9.25 6.84375 L 7.3125 12 L 5 12 L 5 8.65625 L 9.25 6.84375 z M 22.75 6.84375 L 27 8.65625 L 27 12 L 24.6875 12 L 22.75 6.84375 z M 11 7.8125 L 11 26 L 9 26 L 9 13.1875 L 11 7.8125 z M 21 7.8125 L 23 13.1875 L 23 26 L 21 26 L 21 7.8125 z M 13 8.4375 L 15 10.4375 L 15 26 L 13 26 L 13 8.4375 z M 19 8.4375 L 19 26 L 17 26 L 17 10.4375 L 19 8.4375 z" fill="#000000"/></svg>
