<?xml version="1.0" encoding="utf-8"?>
<svg xmlns="http://www.w3.org/2000/svg" viewBox="0 0 32 32" fill="#000000"><path d="M 16 3 C 13.919568 3 12.46205 3.5546665 11.53125 4.15625 C 10.864985 4.5868621 10.718111 4.8784184 10.53125 5.125 C 10.52535 5.13283 10.50545 5.148935 10.5 5.15625 C 10.46569 5.1748514 9.6824924 5.5645196 8.875 6.1875 C 8.462196 6.5059783 8.0454012 6.8728184 7.6875 7.3125 C 7.3295988 7.7521816 7 8.2925527 7 9 C 7 9.9286315 7.3828125 10.64622 7.75 11.125 C 7.3238508 11.947506 7.1648546 12.653752 7.09375 13.1875 C 5.9457322 13.411097 5 14.291743 5 15.5 C 5 16.55094 5.664764 17.477301 6.59375 17.84375 C 6.5341097 17.898909 6.4632571 17.942993 6.40625 18 L 4.8125 19.8125 L 5.5 20.40625 L 4 22 L 5.1875 22.5 L 4.5 24.9375 L 5.90625 25 L 6 27 L 7.5 26.90625 L 8.6875 28.5 L 9.6875 27.90625 L 11 29 L 12.3125 28.3125 L 13.5 29 L 14.90625 28.59375 L 15.90625 28.96875 L 15.9375 28.96875 L 16 29 L 16 28.96875 L 17 28.59375 L 18.40625 29 L 19.59375 28.3125 L 21 29 L 22.3125 27.90625 L 23.3125 28.5 L 24.5 26.90625 L 26 27 L 26 25.09375 L 27.3125 25.0625 L 26.6875 22.59375 L 28 22 L 26.5 20.40625 L 27.1875 19.8125 L 25.59375 18 C 25.536743 17.942993 25.46589 17.898909 25.40625 17.84375 C 26.335236 17.477301 27 16.55094 27 15.5 C 27 14.291743 26.054268 13.411097 24.90625 13.1875 C 24.835144 12.653752 24.676149 11.947506 24.25 11.125 C 24.617188 10.64622 25 9.9286315 25 9 C 25 8.2925527 24.670401 7.7521816 24.3125 7.3125 C 23.954599 6.8728184 23.537804 6.5059783 23.125 6.1875 C 22.317508 5.5645196 21.53431 5.1748514 21.5 5.15625 C 21.49923 5.1558327 21.46875 5.125 21.46875 5.125 C 21.281889 4.8784184 21.135015 4.5868621 20.46875 4.15625 C 19.53795 3.5546665 18.080432 3 16 3 z M 16 5 C 17.730568 5 18.75855 5.4453335 19.375 5.84375 C 19.99145 6.2421665 20.125 6.5 20.125 6.5 L 20.28125 6.75 L 20.53125 6.875 C 20.53125 6.875 21.200608 7.2609565 21.875 7.78125 C 22.212196 8.0413967 22.545401 8.3424003 22.75 8.59375 C 22.954599 8.8450997 23 9.0219473 23 9 C 23 9.1474562 22.962095 9.2600298 22.9375 9.375 C 21.587485 8.0588446 19.398007 7 16 7 C 12.601993 7 10.412515 8.0588446 9.0625 9.375 C 9.0379051 9.2600298 9 9.1474562 9 9 C 9 9.0219473 9.0454012 8.8450997 9.25 8.59375 C 9.4545988 8.3424003 9.787804 8.0413967 10.125 7.78125 C 10.799392 7.2609565 11.46875 6.875 11.46875 6.875 L 11.71875 6.75 L 11.875 6.5 C 11.875 6.5 12.00855 6.2421665 12.625 5.84375 C 13.24145 5.4453335 14.269432 5 16 5 z M 11.59375 9.9375 C 11.698457 9.9897791 13.780999 11 16 11 C 18.219001 11 20.301543 9.9897791 20.40625 9.9375 C 21.25742 10.407806 21.807511 10.987775 22.1875 11.5625 C 23.007282 12.802402 23 14 23 14 L 23 15 L 24 15 L 24.5 15 C 24.786937 15 25 15.213063 25 15.5 C 25 15.786937 24.786937 16 24.5 16 L 20.90625 16 L 17.90625 16 C 17.90625 16 17.613477 17.095918 16.09375 17.1875 C 14.39375 17.1875 14.09375 16 14.09375 16 L 13 16 L 7.5 16 C 7.2130628 16 7 15.786937 7 15.5 C 7 15.213063 7.2130628 15 7.5 15 L 8 15 L 9 15 L 9 14 C 9 14 8.9927179 12.802402 9.8125 11.5625 C 10.192489 10.987775 10.74258 10.407806 11.59375 9.9375 z M 11 11 L 11 13 C 11.98523 13 12.688402 13.146932 13.21875 13.375 C 13.081426 13.546227 13 13.763432 13 14 C 13 14.552285 13.447715 15 14 15 C 14.251518 15 14.480519 14.903303 14.65625 14.75 C 14.983079 15.400307 15 15.96875 15 15.96875 C 14.999962 15.981535 15 16.03125 15 16.03125 L 16 16 L 17 16.03125 C 17 16.03125 17.000038 15.981535 17 15.96875 C 17 15.96875 17.016922 15.400307 17.34375 14.75 C 17.519481 14.903303 17.748482 15 18 15 C 18.552285 15 19 14.552285 19 14 C 19 13.763432 18.918574 13.546227 18.78125 13.375 C 19.311598 13.146932 20.01477 13 21 13 L 21 11 C 18.453275 11 16.855424 11.996426 16 13.125 C 15.144576 11.996426 13.546725 11 11 11 z M 11 20 L 12 20 L 12 24 L 11 24 C 10.445455 24 10 23.554545 10 23 L 10 21 C 10 20.445455 10.445455 20 11 20 z M 14 20 L 15.90625 20 L 16.09375 20 L 18 20 L 18 24 L 14 24 L 14 20 z M 20 20 L 21 20 C 21.554545 20 22 20.445455 22 21 L 22 23 C 22 23.554545 21.554545 24 21 24 L 20 24 L 20 20 z" fill="#000000"/></svg>
