<?xml version="1.0" encoding="utf-8"?>
<svg xmlns="http://www.w3.org/2000/svg" viewBox="0 0 32 32" fill="#000000"><path style="text-indent:0;text-align:start;line-height:normal;text-transform:none;block-progression:tb;-inkscape-font-specification:Sans" d="M 11 3 L 11 5 L 21 5 L 21 3 L 11 3 z M 10 6 L 10 8 L 22 8 L 22 6 L 10 6 z M 9 9 L 9 10 L 9 26 L 9 27 L 9 28 L 13 28 L 11 26 L 11 11 L 21 11 L 21 26 L 19 28 L 23 28 L 23 27 L 23 26 L 23 10 L 23 9 L 22 9 L 10 9 L 9 9 z M 13 13 C 12.447715 13 12 13.447715 12 14 C 12 14.552285 12.447715 15 13 15 C 13.552285 15 14 14.552285 14 14 C 14 13.447715 13.552285 13 13 13 z M 19 13 C 18.447715 13 18 13.447715 18 14 C 18 14.552285 18.447715 15 19 15 C 19.552285 15 20 14.552285 20 14 C 20 13.447715 19.552285 13 19 13 z M 16 16 C 15.447715 16 15 16.447715 15 17 C 15 17.552285 15.447715 18 16 18 C 16.552285 18 17 17.552285 17 17 C 17 16.447715 16.552285 16 16 16 z M 13 19 C 12.447715 19 12 19.447715 12 20 C 12 20.552285 12.447715 21 13 21 C 13.552285 21 14 20.552285 14 20 C 14 19.447715 13.552285 19 13 19 z M 19 19 C 18.447715 19 18 19.447715 18 20 C 18 20.552285 18.447715 21 19 21 C 19.552285 21 20 20.552285 20 20 C 20 19.447715 19.552285 19 19 19 z M 16 20.59375 L 15.28125 21.28125 L 12.28125 24.28125 L 13.71875 25.71875 L 15 24.4375 L 15 29 L 17 29 L 17 24.4375 L 18.28125 25.71875 L 19.71875 24.28125 L 16.71875 21.28125 L 16 20.59375 z" fill="#000000"/></svg>
