<?xml version="1.0" encoding="utf-8"?>
<svg xmlns="http://www.w3.org/2000/svg" viewBox="0 0 32 32" fill="#000000"><path d="M 16 2.875 L 15.5625 3.09375 L 3.5625 9.09375 L 3 9.375 L 3 10 L 3 22 L 3 22.625 L 3.5625 22.90625 L 15.5625 28.90625 L 16 29.125 L 16.4375 28.90625 L 28.4375 22.90625 L 29 22.625 L 29 22 L 29 10 L 29 9.375 L 28.4375 9.09375 L 16.4375 3.09375 L 16 2.875 z M 16 5.125 L 25.75 10 L 16 14.875 L 6.25 10 L 16 5.125 z M 15 8 C 14.447715 8 14 8.4477153 14 9 C 14 9.5522847 14.447715 10 15 10 C 15.552285 10 16 9.5522847 16 9 C 16 8.4477153 15.552285 8 15 8 z M 12 9 C 11.447715 9 11 9.4477153 11 10 C 11 10.552285 11.447715 11 12 11 C 12.552285 11 13 10.552285 13 10 C 13 9.4477153 12.552285 9 12 9 z M 20 9 C 19.447715 9 19 9.4477153 19 10 C 19 10.552285 19.447715 11 20 11 C 20.552285 11 21 10.552285 21 10 C 21 9.4477153 20.552285 9 20 9 z M 15 11 C 14.447715 11 14 11.447715 14 12 C 14 12.552285 14.447715 13 15 13 C 15.552285 13 16 12.552285 16 12 C 16 11.447715 15.552285 11 15 11 z M 5 11.625 L 15.5625 16.90625 L 16 17.125 L 16.4375 16.90625 L 27 11.65625 L 27 13.375 L 16 18.9375 L 5 13.375 L 5 11.625 z M 5 15.625 L 15.5625 20.9375 L 16 21.15625 L 16.4375 20.9375 L 27 15.625 L 27 17.375 L 16 22.875 L 5 17.375 L 5 15.625 z M 5 19.625 L 15.5625 24.90625 L 16 25.125 L 16.4375 24.90625 L 27 19.625 L 27 21.375 L 16 26.875 L 5 21.375 L 5 19.625 z" fill="#000000"/></svg>
