<?xml version="1.0" encoding="utf-8"?>
<svg xmlns="http://www.w3.org/2000/svg" viewBox="0 0 32 32" fill="#000000"><path style="text-indent:0;text-align:start;line-height:normal;text-transform:none;block-progression:tb;-inkscape-font-specification:Bitstream Vera Sans" d="M 6 4 C 5.2524312 4 4.5205729 4.0755937 3.8125 4.21875 L 4.21875 6.1875 C 4.7966771 6.0706563 5.3855688 6 6 6 C 9.8362201 6 12.007178 7.0476557 13.28125 8.375 C 14.555322 9.7023443 15 11.413265 15 13 L 15 13.3125 L 15.15625 13.5625 L 17.96875 17.71875 C 18.079943 17.8853 18.00429 18.063866 17.8125 18.125 L 15.6875 18.8125 L 15 19.03125 L 15 19.75 L 15 22 C 15 22.654639 14.62529 23.435428 14.03125 24.03125 C 13.43721 24.627072 12.663667 25 12 25 L 11 25 L 10 25 L 10 26 L 10 29 L 12 29 L 12 27 C 13.336333 27 14.56279 26.346178 15.46875 25.4375 C 16.141172 24.763061 16.652724 23.928786 16.875 23 L 18.375 23 C 18.148796 23.461934 18 23.954597 18 24.5 C 18 26.421152 19.578848 28 21.5 28 C 23.421152 28 25 26.421152 25 24.5 C 25 22.578848 23.421152 21 21.5 21 L 17 21 L 17 20.46875 L 18.4375 20.03125 C 19.845706 19.582384 20.445807 17.85445 19.625 16.625 L 16.9375 12.5625 C 16.862183 10.707552 16.343295 8.628666 14.75 6.96875 C 13.034572 5.1815943 10.20578 4 6 4 z M 12 14 C 11.447715 14 11 14.447715 11 15 C 11 15.552285 11.447715 16 12 16 C 12.552285 16 13 15.552285 13 15 C 13 14.447715 12.552285 14 12 14 z M 25.1875 14.40625 L 21 20 L 23.5 20 L 26.8125 15.59375 L 25.1875 14.40625 z M 26.40625 18 L 24.90625 20 L 28.09375 20 L 28.09375 18 L 26.40625 18 z M 21.5 23 C 22.340272 23 23 23.659728 23 24.5 C 23 25.340272 22.340272 26 21.5 26 C 20.659728 26 20 25.340272 20 24.5 C 20 23.659728 20.659728 23 21.5 23 z" overflow="visible" font-family="Bitstream Vera Sans" fill="#000000"/></svg>
