<?xml version="1.0" encoding="utf-8"?>
<svg xmlns="http://www.w3.org/2000/svg" viewBox="-8 10 32 32" fill="#000000"><path d="M 29 3 L 28.625 3.25 C 24.921 5.545 14.4705 15.40975 12.3125 17.46875 L 14.53125 19.6875 C 16.58925 17.5295 26.458 7.074 28.75 3.375 L 29 3 z M 9.71875 16.28125 L 8.28125 17.71875 L 10.59375 20 L 5.5 25.0625 C 5.335 25.0195 5.178 25 5 25 C 3.895 25 3 25.895 3 27 C 3 28.105 3.895 29 5 29 C 6.105 29 7 28.105 7 27 C 7 26.822 6.9805 26.665 6.9375 26.5 L 12 21.40625 L 14.28125 23.71875 L 15.71875 22.28125 L 9.71875 16.28125 z" transform="translate(-8 10)" fill="#000000"/></svg>
