<?xml version="1.0" encoding="utf-8"?>
<svg xmlns="http://www.w3.org/2000/svg" viewBox="0 0 32 32" fill="#000000"><path style="text-indent:0;text-align:start;line-height:normal;text-transform:none;block-progression:tb;-inkscape-font-specification:Bitstream Vera Sans" d="M 16 3 C 13.424645 3 11.085944 3.346352 9.3125 3.9375 C 8.4257781 4.233074 7.6882784 4.562709 7.09375 5.03125 C 6.4992216 5.499791 6 6.1804564 6 7 L 6 20 C 6 20.817157 6.4992042 21.495163 7.09375 21.96875 C 7.6123465 22.381839 8.260014 22.69785 9 22.96875 L 9 26 C 9 26.684091 9.4004478 27.214678 9.84375 27.5625 C 10.287052 27.910322 10.821781 28.16976 11.4375 28.375 C 12.668938 28.785479 14.259091 29 16 29 C 17.740909 29 19.331062 28.785479 20.5625 28.375 C 21.178219 28.16976 21.712948 27.910322 22.15625 27.5625 C 22.599552 27.214678 23 26.684091 23 26 L 23 22.96875 C 23.739986 22.69785 24.387653 22.381839 24.90625 21.96875 C 25.500796 21.495163 26 20.817157 26 20 L 26 7 C 26 6.1804564 25.500778 5.499791 24.90625 5.03125 C 24.311722 4.562709 23.574222 4.233074 22.6875 3.9375 C 20.914056 3.346352 18.575355 3 16 3 z M 16 5 C 18.395208 5 20.578585 5.3178615 22.0625 5.8125 C 22.804458 6.0598192 23.371179 6.3757109 23.6875 6.625 C 24.003821 6.8742891 24 6.9911165 24 7 C 24 7.00888 24.0038 7.1257109 23.6875 7.375 C 23.371179 7.6242891 22.804458 7.9401808 22.0625 8.1875 C 22.042884 8.1940387 22.019859 8.2122735 22 8.21875 C 21.962253 7.6310578 21.589855 7.1420631 21.21875 6.84375 C 20.827082 6.5289077 20.369546 6.3350205 19.84375 6.15625 C 18.792159 5.798709 17.472587 5.59375 16 5.59375 C 14.527413 5.59375 13.207841 5.798709 12.15625 6.15625 C 11.630454 6.3350205 11.172918 6.5289077 10.78125 6.84375 C 10.410145 7.1420631 10.037747 7.6310578 10 8.21875 C 9.9801407 8.2122735 9.957116 8.1940387 9.9375 8.1875 C 9.1955423 7.9401808 8.6288211 7.6242891 8.3125 7.375 C 7.9961789 7.1257109 8 7.0088835 8 7 C 8 6.9911165 7.9961789 6.8742891 8.3125 6.625 C 8.6288211 6.3757109 9.1955423 6.0598192 9.9375 5.8125 C 11.421415 5.3178615 13.604792 5 16 5 z M 16 7.59375 C 17.288837 7.59375 18.460697 7.773512 19.21875 8.03125 C 19.490386 8.123606 19.606488 8.2269516 19.75 8.3125 C 19.606477 8.396896 19.484068 8.4722917 19.21875 8.5625 C 18.65021 8.7558034 17.846347 8.9061104 16.9375 8.96875 C 16.625509 8.9798121 16.32076 9 16 9 C 15.668561 9 15.353285 8.9805489 15.03125 8.96875 C 14.135618 8.9048343 13.343098 8.7535283 12.78125 8.5625 C 12.515932 8.4722917 12.393523 8.3968962 12.25 8.3125 C 12.393512 8.2269516 12.509614 8.1236061 12.78125 8.03125 C 13.539303 7.773512 14.711163 7.59375 16 7.59375 z M 8 9.53125 C 8.3959869 9.7298358 8.8286781 9.901226 9.3125 10.0625 C 11.085944 10.653648 13.424645 11 16 11 C 16.364794 11 16.708136 10.98236 17.0625 10.96875 C 17.083239 10.967269 17.104342 10.970317 17.125 10.96875 C 19.247503 10.882385 21.180023 10.564992 22.6875 10.0625 C 23.171322 9.901226 23.604013 9.7298358 24 9.53125 L 24 20 C 24 20.03284 23.999204 20.157962 23.6875 20.40625 C 23.375796 20.654538 22.801406 20.943093 22.0625 21.1875 C 20.584688 21.676315 18.413333 22 16 22 C 13.586667 22 11.415312 21.676315 9.9375 21.1875 C 9.1985938 20.943093 8.6242042 20.654538 8.3125 20.40625 C 8.0007958 20.157962 8 20.032843 8 20 L 8 9.53125 z M 15 16 L 15 20 L 17 20 L 17 16 L 15 16 z M 11 23.53125 C 12.470122 23.834951 14.16247 24 16 24 C 17.83753 24 19.529878 23.834951 21 23.53125 L 21 25.90625 C 20.997321 25.906723 20.989285 25.934849 20.90625 26 C 20.740177 26.130303 20.378031 26.31149 19.90625 26.46875 C 18.962688 26.783271 17.559091 27 16 27 C 14.440909 27 13.037312 26.783271 12.09375 26.46875 C 11.621969 26.31149 11.259823 26.130303 11.09375 26 C 11.010713 25.934849 11.002678 25.906723 11 25.90625 L 11 23.53125 z" overflow="visible" font-family="Bitstream Vera Sans" fill="#000000"/></svg>
