<?xml version="1.0" encoding="utf-8"?>
<svg xmlns="http://www.w3.org/2000/svg" viewBox="0 0 32 32" fill="#000000"><path style="text-indent:0;text-align:start;line-height:normal;text-transform:none;block-progression:tb;-inkscape-font-specification:Sans" d="M 22 4 C 20.46244 4 18.917488 4.5825124 17.75 5.75 L 17.75 5.78125 L 17 6.59375 L 16.6875 6.28125 L 16 5.59375 L 15.28125 6.28125 L 7.28125 14.28125 L 6.59375 15 L 7.15625 15.5625 L 5.6875 16.0625 L 5.46875 16.125 L 5.28125 16.28125 L 4.65625 16.90625 L 3.96875 17.625 L 4.65625 18.34375 L 13.65625 27.34375 L 14.375 28.03125 L 15.09375 27.34375 L 15.71875 26.71875 L 15.875 26.53125 L 15.9375 26.3125 L 16.4375 24.84375 L 17 25.40625 L 17.71875 24.71875 L 25.71875 16.71875 L 26.40625 16 L 25.71875 15.3125 L 25.40625 15 L 26.21875 14.25 L 26.25 14.25 C 28.584975 11.915025 28.584975 8.0849752 26.25 5.75 C 25.082512 4.5825124 23.53756 4 22 4 z M 22 6 C 23.014142 5.998403 24.030195 6.3739447 24.8125 7.15625 C 26.383525 8.7272748 26.383525 11.241475 24.8125 12.8125 L 24 13.59375 L 18.40625 8 L 19.1875 7.15625 C 19.973627 6.3803327 20.985858 6.001597 22 6 z M 22 7 C 21.230215 7 20.456537 7.2934635 19.875 7.875 L 21.28125 9.28125 C 21.680177 8.8823231 22.319823 8.8823231 22.71875 9.28125 L 24.125 7.875 C 23.543463 7.2934635 22.769785 7 22 7 z M 16 8.40625 L 23.59375 16 L 17 22.5625 L 16.71875 22.28125 L 9.71875 15.28125 L 9.4375 15 L 16 8.40625 z M 16.28125 10.28125 L 11.28125 15.28125 L 12.71875 16.71875 L 17.71875 11.71875 L 16.28125 10.28125 z M 8.6875 17.125 L 14.875 23.3125 L 14.25 25.0625 L 6.9375 17.75 L 8.6875 17.125 z" overflow="visible" font-family="Sans" fill="#000000"/></svg>
