<?xml version="1.0" encoding="utf-8"?>
<svg xmlns="http://www.w3.org/2000/svg" viewBox="0 0 32 32" fill="#000000"><path style="text-indent:0;text-align:start;line-height:normal;text-transform:none;block-progression:tb;-inkscape-font-specification:Sans" d="M 5 3 L 5 29 L 7 29 L 7 27 L 21 27 L 21 29 L 23 29 L 23 27 L 26 27 L 26 29 L 28 29 L 28 25 L 28 23 L 28 21 L 28 20 L 28 12 L 28 10 L 28 8 L 28 7 L 28 4 L 26 4 L 26 7 L 23 7 L 23 4 L 21 4 L 21 7 L 12 7 L 7 7 L 7 3 L 5 3 z M 7 9 L 11 9 L 11 11 L 7 11 L 7 9 z M 13 9 L 21 9 L 21 11 L 13 11 L 13 9 z M 23 9 L 26 9 L 26 10 L 26 11 L 23 11 L 23 9 z M 7 14 L 21 14 L 21 20 L 12 20 L 11 20 L 7 20 L 7 14 z M 23 14 L 26 14 L 26 16 L 23 16 L 23 14 z M 23 18 L 26 18 L 26 20 L 23 20 L 23 18 z M 7 22 L 11 22 L 11 24 L 7 24 L 7 22 z M 13 22 L 21 22 L 21 24 L 13 24 L 13 22 z M 23 22 L 26 22 L 26 23 L 26 24 L 23 24 L 23 22 z" fill="#000000"/></svg>
