<?xml version="1.0" encoding="utf-8"?>
<svg xmlns="http://www.w3.org/2000/svg" viewBox="0 0 32 32" fill="#000000"><path d="M 5 5 L 5 6 L 5 26 L 5 27 L 16.587891 27 C 17.775473 29.930202 20.643974 32 24 32 C 28.418 32 32 28.418 32 24 C 32 20.643974 29.930202 17.775473 27 16.587891 L 27 5 L 26 5 L 6 5 L 5 5 z M 7 7 L 11 7 L 11 11 L 7 11 L 7 7 z M 13 7 L 19 7 L 19 11 L 13 11 L 13 7 z M 21 7 L 25 7 L 25 11 L 21 11 L 21 7 z M 7 13 L 11 13 L 11 19 L 7 19 L 7 13 z M 13 13 L 19 13 L 19 17.759766 C 18.542993 18.126507 18.126507 18.542993 17.759766 19 L 13 19 L 13 13 z M 21 13 L 25 13 L 25 13.050781 L 25 16.068359 C 24.671755 16.027336 24.339355 16 24 16 C 22.938026 16 21.927228 16.212094 21 16.587891 L 21 13 z M 24 18 C 27.308 18 30 20.692 30 24 C 30 27.308 27.308 30 24 30 C 20.692 30 18 27.308 18 24 C 18 20.692 20.692 18 24 18 z M 23 20 L 23 24.599609 L 21.300781 26.300781 L 22.699219 27.699219 L 25 25.400391 L 25 20 L 23 20 z M 7 21 L 11 21 L 11 25 L 7 25 L 7 21 z M 13 21 L 16.587891 21 C 16.212094 21.927228 16 22.938026 16 24 C 16 24.339355 16.027336 24.671755 16.068359 25 L 13.050781 25 L 13 25 L 13 21 z" fill="#000000"/></svg>
