<?xml version="1.0" encoding="utf-8"?>
<svg xmlns="http://www.w3.org/2000/svg" viewBox="0 0 32 32" fill="#000000"><path d="M 20.376953 7 C 18.300797 6.9464098 14.960588 7.5982817 11.783203 9.0527344 C 11.145987 8.5442544 10.569526 8.1772769 10.533203 8.1542969 L 10.246094 7.9726562 L 9.9082031 8.0039062 C 5.2212031 8.4389063 2.5748438 10.084297 2.4648438 10.154297 L 1.9238281 10.498047 L 2.0097656 11.134766 C 2.1537656 12.194766 2.4226094 13.210688 2.5996094 13.804688 L 1.8632812 14.722656 L 1.9433594 15.167969 C 2.0274353 15.645714 2.1545891 16.162371 2.2988281 16.693359 C 1.2004741 17.981064 0.5627412 19.882023 1.2910156 20.751953 C 1.7617965 21.576569 2.8059314 21.9933 4.2089844 22.03125 C 5.1015516 24.152166 5.9310925 25.855577 6 26 L 6 21.896484 C 6.323228 21.845845 6.6561808 21.780589 7 21.701172 L 7 24 L 9 24 L 9 21 L 12 21 L 12 20 L 9 20 L 9 19 L 13 19 L 13 18 L 7 18 L 7 21.671875 C 6.6499181 21.727504 6.316835 21.767353 6 21.791016 L 6 21.789062 C 5.799935 21.805665 5.6057858 21.817339 5.4179688 21.822266 C 5.2785375 21.824132 5.1472795 21.819482 5.015625 21.814453 C 4.894829 21.809001 4.7695393 21.806808 4.65625 21.794922 C 4.6528971 21.794616 4.6498315 21.795232 4.6464844 21.794922 C 4.6360942 21.793815 4.6275164 21.790222 4.6171875 21.789062 C 4.4234781 21.767326 4.2377146 21.737669 4.0644531 21.699219 C 4.0670273 21.705437 4.0696921 21.708632 4.0722656 21.714844 C 3.1736527 21.533923 2.5381242 21.137925 2.2070312 20.542969 C 1.8389196 19.912035 2.1230919 19.031781 2.7871094 18.298828 C 3.0306687 19.028525 3.2961402 19.766171 3.5761719 20.484375 C 3.9771719 20.701375 4.5517812 20.828125 5.3007812 20.828125 C 5.4667813 20.828125 5.6490781 20.813781 5.8300781 20.800781 C 5.0860781 18.940781 4.3440469 16.877813 3.9980469 15.257812 L 4.8359375 14.208984 L 4.6582031 13.689453 C 4.6542031 13.677453 4.3235156 12.700875 4.1035156 11.546875 C 5.0025156 11.114875 6.9430937 10.33725 9.7460938 10.03125 C 10.127094 10.29125 10.817828 10.791828 11.298828 11.298828 L 11.576172 11.591797 L 20 11.957031 C 20 11.957031 20.792922 11.125953 21.044922 10.001953 L 14.269531 9.7070312 C 18.342536 8.200877 21.642661 8.2783907 22.332031 9.5429688 C 22.790031 10.393969 21.772031 11.721828 20.332031 13.423828 C 20.332031 13.423828 20.398437 13.423281 20.398438 13.488281 C 22.623438 11.329281 24.600859 9.2946406 23.880859 8.1816406 C 23.489859 7.5206406 21.721953 7.035 20.376953 7 z M 17.511719 13 L 17.511719 14 L 17 14 L 17 14.667969 L 17.511719 14.667969 L 17.511719 16 C 17.511719 16.4 17.638078 16.666422 17.830078 16.732422 C 18.085078 16.932422 18.403063 17 18.914062 17 L 19.488281 17 C 19.680281 17 19.807547 16.933594 19.935547 16.933594 L 20 16.933594 L 20 16.199219 L 19.871094 16.199219 C 19.871094 16.199219 19.807688 16.267578 19.679688 16.267578 C 19.552688 16.334578 19.489781 16.333984 19.425781 16.333984 C 19.233781 16.333984 19.106969 16.334578 19.042969 16.267578 C 18.915969 16.267578 18.851562 16.201766 18.851562 16.134766 C 18.787562 16.067766 18.787109 16.000594 18.787109 15.933594 L 18.787109 15.667969 L 18.787109 14.667969 L 20 14.667969 L 20 14 L 18.787109 14 L 18.787109 13 L 17.511719 13 z M 9.4550781 14 C 9.1740781 14 8.8259219 13.999547 8.5449219 14.060547 C 8.2639219 14.121547 7.9824844 14.184641 7.7714844 14.306641 C 7.5614844 14.429641 7.3509375 14.612875 7.2109375 14.796875 C 7.0699375 14.979875 7 15.22375 7 15.46875 C 7 15.71375 7.0709375 15.958578 7.2109375 16.142578 C 7.2809375 16.326578 7.4901719 16.510813 7.7011719 16.632812 C 7.9121719 16.816812 8.1916562 16.878453 8.4726562 16.939453 C 8.8236563 17.000453 9.1743906 17 9.5253906 17 C 10.166391 17 10.667 16.917266 11 16.697266 L 11 15.900391 L 10.789062 15.900391 C 10.718063 15.961391 10.648125 15.962438 10.578125 16.023438 C 10.507125 16.084437 10.437188 16.083531 10.367188 16.144531 C 10.297188 16.205531 10.155625 16.267578 10.015625 16.267578 C 9.875625 16.328578 9.6653906 16.328125 9.5253906 16.328125 C 9.1743906 16.328125 8.8945938 16.204031 8.6835938 16.082031 C 8.4725938 15.960031 8.4023438 15.776703 8.4023438 15.470703 C 8.4023437 15.225703 8.4735937 15.043375 8.6835938 14.859375 C 8.8935938 14.675375 9.1743906 14.613281 9.5253906 14.613281 C 9.6653906 14.613281 9.8053125 14.675781 9.9453125 14.675781 C 10.085313 14.736781 10.226875 14.735875 10.296875 14.796875 C 10.437875 14.857875 10.508125 14.858922 10.578125 14.919922 C 10.649125 14.980922 10.719062 14.980016 10.789062 15.041016 L 11 15.041016 L 11 14.244141 C 10.789 14.182141 10.579828 14.121547 10.298828 14.060547 C 10.017828 13.999547 9.7360781 14 9.4550781 14 z M 12 14 L 12 15.9375 C 12 16.3125 12.064266 16.563 12.322266 16.75 C 12.580266 16.937 12.903469 17 13.355469 17 C 13.958469 17 14.417937 16.875 14.710938 16.625 L 14.710938 17 L 16 17 L 16 14 L 14.710938 14 L 14.710938 16.0625 C 14.581938 16.1245 14.451266 16.1875 14.322266 16.1875 C 14.193266 16.2505 14.064547 16.251953 13.935547 16.251953 C 13.742547 16.251953 13.613828 16.1875 13.548828 16.1875 C 13.483828 16.1875 13.420469 16.1255 13.355469 16.0625 C 13.355469 16.0005 13.289062 15.9375 13.289062 15.8125 L 13.289062 15.4375 L 13.289062 14 L 12 14 z M 23.158203 14 C 22.523203 14 21.951313 14.119922 21.570312 14.419922 C 21.189312 14.719922 21 15.080547 21 15.560547 C 21 16.040547 21.189766 16.400625 21.634766 16.640625 C 22.015766 16.880625 22.650109 17 23.412109 17 C 24.082109 17 24.708 16.874219 25 16.699219 L 25 15.980469 L 24.871094 15.980469 C 24.744094 16.100469 24.554781 16.160703 24.300781 16.220703 C 24.046781 16.280703 23.793063 16.339844 23.539062 16.339844 C 23.095063 16.339844 22.777891 16.220156 22.587891 16.160156 C 22.397891 16.100156 22.269531 15.919688 22.269531 15.679688 L 25 15.679688 L 25 15.380859 C 25 14.900859 24.872687 14.599375 24.554688 14.359375 C 24.236688 14.119375 23.793203 14 23.158203 14 z M 23.160156 14.599609 C 23.414156 14.599609 23.603469 14.600703 23.730469 14.720703 C 23.857469 14.780703 23.921875 14.82 23.921875 15 L 22.335938 15 C 22.335938 14.82 22.462844 14.840703 22.589844 14.720703 C 22.716844 14.660703 22.906156 14.599609 23.160156 14.599609 z M 14 18 L 14 19 L 17 19 L 17 24 L 19 24 L 19 19 L 22 19 L 22 18 L 14 18 z M 23 18 L 23 24 L 25 24 L 25 22 L 27 22 C 27.654 22 30 22 30 20 C 30 18 27.589 18 27 18 L 23 18 z M 25 19 L 26 19 C 26.393 19 28 19.083 28 20 C 28 20.917 26.393 21 26 21 L 25 21 L 25 19 z" fill="#000000"/></svg>
