<?xml version="1.0" encoding="utf-8"?>
<svg xmlns="http://www.w3.org/2000/svg" viewBox="0 0 32 32" fill="#000000"><path style="line-height:normal;text-indent:0;text-align:start;text-decoration-line:none;text-decoration-style:solid;text-decoration-color:#000;text-transform:none;block-progression:tb;isolation:auto;mix-blend-mode:normal" d="M 7.3066406 4 L 4.6660156 11.042969 L 6.8027344 11.042969 L 8.6933594 6 L 23.306641 6 L 25.197266 11.042969 L 27.333984 11.042969 L 24.693359 4 L 7.3066406 4 z M 2 12 L 2 13 L 2 18 L 3.2558594 18 L 6.2558594 28 L 25.744141 28 L 28.744141 18 L 30 18 L 30 12 L 2 12 z M 4 14 L 28 14 L 28 16 L 27.255859 16 L 24.255859 26 L 7.7441406 26 L 4.7441406 16 L 4 16 L 4 14 z M 11 17 L 11 24 L 13 24 L 13 17 L 11 17 z M 15 17 L 15 24 L 17 24 L 17 17 L 15 17 z M 19 17 L 19 24 L 21 24 L 21 17 L 19 17 z" font-weight="400" font-family="sans-serif" white-space="normal" overflow="visible" fill="#000000"/></svg>
