<?xml version="1.0" encoding="utf-8"?>
<svg xmlns="http://www.w3.org/2000/svg" viewBox="0 0 32 32" fill="#000000"><path style="text-indent:0;text-align:start;line-height:normal;text-transform:none;block-progression:tb;-inkscape-font-specification:Sans" d="M 9 4 L 9 5 L 6 5 L 5 5 L 5 6 L 5 26 L 5 27 L 6 27 L 26 27 L 27 27 L 27 26 L 27 6 L 27 5 L 26 5 L 23 5 L 23 4 L 21 4 L 21 5 L 11 5 L 11 4 L 9 4 z M 7 7 L 9 7 L 9 8 L 11 8 L 11 7 L 21 7 L 21 8 L 23 8 L 23 7 L 25 7 L 25 9 L 7 9 L 7 7 z M 7 11 L 25 11 L 25 25 L 7 25 L 7 11 z M 16.5 14 C 15.775295 14 15.093275 14.205147 14.625 14.6875 C 14.156725 15.169853 14 15.807336 14 16.375 L 16 16.375 C 16 16.133664 16.05677 16.099647 16.0625 16.09375 C 16.068225 16.087853 16.120705 16 16.5 16 C 16.939152 16 17 16.135768 17 16.5 C 17 16.786937 16.786937 17 16.5 17 L 16 17 L 16 19 L 16.5 19 C 16.786937 19 17 19.213063 17 19.5 C 17 19.864232 16.93915 20 16.5 20 C 16.120705 20 16.068225 19.91215 16.0625 19.90625 C 16.056775 19.900353 16 19.866336 16 19.625 L 14 19.625 C 14 20.192664 14.156725 20.830147 14.625 21.3125 C 15.093275 21.794853 15.775295 22 16.5 22 C 17.908848 22 19 20.791768 19 19.5 C 19 18.937817 18.788328 18.420058 18.46875 18 C 18.788328 17.579942 19 17.062183 19 16.5 C 19 15.208232 17.908848 14 16.5 14 z" fill="#000000"/></svg>
