<?xml version="1.0" encoding="utf-8"?>
<svg xmlns="http://www.w3.org/2000/svg" viewBox="0 0 32 32" fill="#000000"><path style="text-indent:0;text-align:start;line-height:normal;text-transform:none;block-progression:tb;-inkscape-font-specification:Sans" d="M 6 4 L 6 5 L 6 9 L 6 9.46875 L 6.375 9.78125 C 6.375 9.78125 6.391547 9.792667 6.53125 9.96875 C 6.6709526 10.144833 6.8771074 10.439114 7.09375 10.90625 C 7.5270352 11.840521 8 13.436531 8 16 C 8 18.563469 7.5270352 20.159479 7.09375 21.09375 C 6.8771074 21.560886 6.6709526 21.855167 6.53125 22.03125 C 6.3915474 22.207333 6.375 22.21875 6.375 22.21875 L 6 22.53125 L 6 23 L 6 27 L 6 28 L 7 28 L 25 28 L 26 28 L 26 27 L 26 23 L 26 22.53125 L 25.65625 22.25 C 25.65625 22.25 25.343367 22.018693 24.90625 21.0625 C 24.469133 20.106307 24 18.498016 24 16 C 24 13.501984 24.469133 11.893693 24.90625 10.9375 C 25.343367 9.9813072 25.65625 9.75 25.65625 9.75 L 26 9.46875 L 26 9 L 26 5 L 26 4 L 25 4 L 7 4 L 6 4 z M 8 6 L 12 6 L 12 23 L 12 24.875 L 13.5625 23.84375 L 19.5625 19.84375 L 20 19.53125 L 20 19 L 20 6 L 24 6 L 24 8.75 C 23.772324 8.9983233 23.505088 9.2251986 23.09375 10.125 C 22.530867 11.356307 22 13.248016 22 16 C 22 18.751984 22.530867 20.643693 23.09375 21.875 C 23.505088 22.774801 23.772324 23.001677 24 23.25 L 24 26 L 8 26 L 8 23.375 C 8.043474 23.32587 8.048256 23.33859 8.09375 23.28125 C 8.3290474 22.984677 8.6228926 22.548489 8.90625 21.9375 C 9.4729648 20.715521 10 18.811531 10 16 C 10 13.188469 9.4729648 11.284479 8.90625 10.0625 C 8.6228926 9.4515106 8.3290474 9.0153228 8.09375 8.71875 C 8.0482559 8.6614085 8.0434738 8.6741263 8 8.625 L 8 6 z M 14 6 L 18 6 L 18 18.4375 L 14 21.125 L 14 6 z M 16 12 C 15.447715 12 15 12.447715 15 13 C 15 13.552285 15.447715 14 16 14 C 16.552285 14 17 13.552285 17 13 C 17 12.447715 16.552285 12 16 12 z" overflow="visible" font-family="Sans" fill="#000000"/></svg>
