<?xml version="1.0" encoding="utf-8"?>
<svg xmlns="http://www.w3.org/2000/svg" viewBox="0 0 32 32" fill="#000000"><path d="M 16.03125 4.75 C 15.340894 4.75 14.78125 5.3096441 14.78125 6 C 14.78125 6.6903559 15.340894 7.25 16.03125 7.25 C 16.721606 7.25 17.28125 6.6903559 17.28125 6 C 17.28125 5.3096441 16.721606 4.75 16.03125 4.75 z M 23.09375 7.4375 C 22.265323 7.4375 21.59375 8.1090729 21.59375 8.9375 C 21.59375 9.7659271 22.265323 10.4375 23.09375 10.4375 C 23.922177 10.4375 24.59375 9.7659271 24.59375 8.9375 C 24.59375 8.1090729 23.922177 7.4375 23.09375 7.4375 z M 8.9375 7.90625 C 8.3852152 7.90625 7.9375 8.3539652 7.9375 8.90625 C 7.9375 9.4585347 8.3852152 9.90625 8.9375 9.90625 C 9.4897847 9.90625 9.9375 9.4585347 9.9375 8.90625 C 9.9375 8.3539652 9.4897847 7.90625 8.9375 7.90625 z M 6 12.96875 C 4.3431458 12.96875 3 14.311896 3 15.96875 C 3 17.625605 4.3431458 18.96875 6 18.96875 C 7.6568542 18.96875 9 17.625605 9 15.96875 C 9 14.311896 7.6568542 12.96875 6 12.96875 z M 26 14.28125 C 25.033502 14.28125 24.25 15.064751 24.25 16.03125 C 24.25 16.997748 25.033502 17.78125 26 17.78125 C 26.966498 17.78125 27.75 16.997748 27.75 16.03125 C 27.75 15.064751 26.966498 14.28125 26 14.28125 z M 8.90625 20.5625 C 7.5255381 20.5625 6.40625 21.681788 6.40625 23.0625 C 6.40625 24.443211 7.5255381 25.5625 8.90625 25.5625 C 10.286962 25.5625 11.40625 24.443211 11.40625 23.0625 C 11.40625 21.681788 10.286962 20.5625 8.90625 20.5625 z M 23.0625 21.09375 C 21.95793 21.09375 21.0625 21.98918 21.0625 23.09375 C 21.0625 24.198319 21.95793 25.09375 23.0625 25.09375 C 24.167069 25.09375 25.0625 24.198319 25.0625 23.09375 C 25.0625 21.98918 24.167069 21.09375 23.0625 21.09375 z M 15.96875 23.75 C 14.72611 23.75 13.71875 24.757359 13.71875 26 C 13.71875 27.242641 14.72611 28.25 15.96875 28.25 C 17.211391 28.25 18.21875 27.242641 18.21875 26 C 18.21875 24.757359 17.211391 23.75 15.96875 23.75 z" fill="#000000"/></svg>
