<?xml version="1.0" encoding="utf-8"?>
<svg xmlns="http://www.w3.org/2000/svg" viewBox="0 0 32 32" fill="#000000"><path style="text-indent:0;text-align:start;line-height:normal;text-transform:none;block-progression:tb;-inkscape-font-specification:Sans" d="M 18.84375 2.28125 L 17.40625 3.71875 L 22.625 8.9375 L 22.0625 9.5 L 16.84375 4.28125 L 15.40625 5.71875 L 20.625 10.9375 L 20.0625 11.5 L 14.84375 6.28125 L 13.40625 7.71875 L 18.625 12.9375 L 18.0625 13.5 L 12.84375 8.28125 L 11.40625 9.71875 L 16.625 14.9375 L 16.0625 15.5 L 10.84375 10.28125 L 9.40625 11.71875 L 14.5625 16.875 L 7.34375 24.125 L 7.21875 24.21875 C 6.2505827 25.186917 6.2505827 26.813083 7.21875 27.78125 C 7.6861662 28.248666 8.34 28.5 9 28.5 C 9.66 28.5 10.31397 28.246885 10.78125 27.78125 L 10.78125 27.75 L 17.3125 21.09375 C 18.178537 21.3496 19.132364 21.314767 20.15625 20.90625 C 21.563201 20.344895 23.139531 19.297969 24.71875 17.71875 C 26.337867 16.099633 27.340036 14.301494 27.8125 12.6875 C 28.281649 11.08483 28.343871 9.5372169 27.3125 8.53125 L 25.875 7.09375 L 25.15625 6.375 L 24.46875 7.09375 L 24.0625 7.5 L 18.84375 2.28125 z M 25.1875 9.1875 L 25.90625 9.9375 L 25.90625 9.96875 L 25.9375 9.96875 C 26.00607 10.034144 26.271286 10.877994 25.90625 12.125 C 25.541214 13.372006 24.669133 14.893367 23.28125 16.28125 C 21.853469 17.709031 20.498049 18.639355 19.4375 19.0625 C 18.376951 19.485645 17.771921 19.347336 17.65625 19.25 L 16.9375 18.625 L 16.28125 19.3125 L 9.34375 26.34375 C 9.24303 26.444115 9.14 26.5 9 26.5 C 8.86 26.5 8.7568338 26.44433 8.65625 26.34375 C 8.4544173 26.141917 8.4544173 25.858083 8.65625 25.65625 L 16.65625 17.65625 C 16.555259 17.757241 16.55812 17.71869 16.75 17.59375 L 16.8125 17.5625 L 16.90625 17.46875 L 25.1875 9.1875 z" fill="#000000"/></svg>
