<?xml version="1.0" encoding="utf-8"?>
<svg xmlns="http://www.w3.org/2000/svg" viewBox="0 0 32 32" fill="#000000"><path style="text-indent:0;text-align:start;line-height:normal;text-transform:none;block-progression:tb;-inkscape-font-specification:Bitstream Vera Sans" d="M 9.5 3 L 9.25 3.59375 C 9.25 3.59375 8 6.4922135 8 10.8125 C 8 13.066706 8.6408104 14.840063 9.21875 16.65625 C 9.7966896 18.472437 10.34375 20.347299 10.34375 22.9375 C 10.34375 23.138479 10.238337 23.813138 10.125 24.46875 C 10.1227 24.48187 10.1273 24.48689 10.125 24.5 C 9.9057967 25.630406 10.16698 26.733568 10.78125 27.59375 C 11.40137 28.462124 12.438946 29.097325 13.625 29 L 13.65625 29 L 13.6875 28.96875 C 14.516728 28.850543 15.533 28.875 16 28.875 C 16.467 28.875 17.483272 28.85054 18.3125 28.96875 L 18.34375 29 L 18.375 29 C 19.534381 29.101646 20.556843 28.480686 21.1875 27.625 C 21.812319 26.777234 22.097774 25.650805 21.875 24.5 C 21.8727 24.48696 21.8773 24.48181 21.875 24.46875 C 21.761124 23.816201 21.65625 23.140113 21.65625 22.9375 C 21.65625 20.347299 22.203698 18.456431 22.78125 16.625 C 23.358802 14.793569 24 13.006465 24 10.8125 C 24 6.6189514 22.75 3.625 22.75 3.625 L 22.5 3 L 21.84375 3 L 10.15625 3 L 9.5 3 z M 10.90625 5 L 21.09375 5 C 21.298418 5.5654189 21.758516 6.9180067 21.9375 9 L 18.8125 9 L 17.71875 9 L 17.8125 10.0625 C 17.8125 10.0625 17.85644 10.815638 17.90625 11.625 C 17.956057 12.434362 18 13.383333 18 13.5 C 18 13.716667 17.716667 14 17.5 14 C 17.283333 14 17 13.716667 17 13.5 C 17 13.383333 17.04394 12.434362 17.09375 11.625 C 17.14356 10.815638 17.1875 10.0625 17.1875 10.0625 L 17.28125 9 L 16.1875 9 L 11 9 L 11 11 L 15.125 11 C 15.11059 11.225434 15.10981 11.238957 15.09375 11.5 C 15.043557 12.315638 15 13.116667 15 13.5 C 15 14.883333 16.116667 16 17.5 16 C 18.883333 16 20 14.883333 20 13.5 C 20 13.116667 19.95644 12.315638 19.90625 11.5 C 19.890186 11.238957 19.88941 11.225434 19.875 11 L 22 11 C 21.963847 12.721793 21.443021 14.198791 20.875 16 C 20.286052 17.867569 19.65625 20.062701 19.65625 22.9375 C 19.65625 23.530833 19.789052 24.176626 19.90625 24.84375 C 20.021434 25.413746 19.86509 26.026936 19.5625 26.4375 C 19.259907 26.848064 18.888869 27.031354 18.53125 27 C 17.517407 26.862831 16.455773 26.875 16 26.875 C 15.544227 26.875 14.482593 26.86283 13.46875 27 C 13.021804 27.03667 12.69038 26.835376 12.40625 26.4375 C 12.12212 26.039624 11.97425 25.435447 12.09375 24.84375 C 12.209555 24.177872 12.34375 23.5325 12.34375 22.9375 C 12.34375 20.062701 11.71356 17.912063 11.125 16.0625 C 10.53644 14.212937 10 12.690294 10 10.8125 C 10 7.5476611 10.650694 5.6756078 10.90625 5 z" overflow="visible" font-family="Bitstream Vera Sans" fill="#000000"/></svg>
