<?xml version="1.0" encoding="utf-8"?>
<svg xmlns="http://www.w3.org/2000/svg" viewBox="0 0 32 32" fill="#000000"><path style="text-indent:0;text-align:start;line-height:normal;text-transform:none;block-progression:tb;-inkscape-font-specification:Bitstream Vera Sans" d="M 16 3 C 8.8321429 3 3 8.8321429 3 16 C 3 23.167857 8.8321429 29 16 29 C 23.167857 29 29 23.167857 29 16 C 29 8.8321429 23.167857 3 16 3 z M 16 5 C 22.086977 5 27 9.9130231 27 16 C 27 22.086977 22.086977 27 16 27 C 9.9130231 27 5 22.086977 5 16 C 5 9.9130231 9.9130231 5 16 5 z M 11.5 8.1875 C 8.8 9.7875 7 12.7 7 16 L 13.5 16 C 13.5 15.1 14.0125 14.3125 14.8125 13.8125 L 11.5 8.1875 z M 20.5 8.1875 L 17.3125 13.8125 C 18.1125 14.2125 18.59375 15 18.59375 16 L 25 16 C 25 12.7 23.2 9.7875 20.5 8.1875 z M 10.90625 11.1875 L 12.1875 13.5 C 12.0875 13.7 12.00625 13.8 11.90625 14 L 9.3125 14 C 9.6125 13 10.20625 11.9875 10.90625 11.1875 z M 21.09375 11.1875 C 21.89375 11.9875 22.3875 13 22.6875 14 L 20.09375 14 C 19.99375 13.8 19.9125 13.6 19.8125 13.5 L 21.09375 11.1875 z M 16 14.40625 C 15.1 14.40625 14.40625 15.1 14.40625 16 C 14.40625 16.9 15.1 17.59375 16 17.59375 C 16.9 17.59375 17.59375 16.9 17.59375 16 C 17.59375 15.1 16.9 14.40625 16 14.40625 z M 14.6875 18.1875 L 11.5 23.8125 C 12.8 24.6125 14.4 25 16 25 C 17.6 25 19.2 24.6125 20.5 23.8125 L 17.3125 18.1875 C 16.9125 18.3875 16.5 18.5 16 18.5 C 15.5 18.5 15.0875 18.3875 14.6875 18.1875 z M 15.6875 20.5 L 16 20.5 L 16.3125 20.5 L 17.59375 22.8125 C 17.09375 22.9125 16.5 23 16 23 C 15.5 23 14.90625 22.9125 14.40625 22.8125 L 15.6875 20.5 z" fill="#000000"/></svg>
