<?xml version="1.0" encoding="utf-8"?>
<svg xmlns="http://www.w3.org/2000/svg" viewBox="0 0 32 32" fill="#000000"><path style="text-indent:0;text-align:start;line-height:normal;text-transform:none;block-progression:tb;-inkscape-font-specification:Bitstream Vera Sans" d="M 19 4 L 19 5 L 19 8 C 19 9.1142478 19.475265 10.116067 20.21875 10.84375 C 18.88816 11.744728 18 13.281553 18 15 L 18 20 L 18 20.625 L 18.5625 20.90625 L 20 21.625 L 20 27 L 20 28 L 21 28 L 25 28 L 26 28 L 26 27 L 26 21.625 L 27.4375 20.90625 L 28 20.625 L 28 20 L 28 15 C 28 13.281553 27.11184 11.744728 25.78125 10.84375 C 26.524735 10.116067 27 9.1142478 27 8 L 27 5 L 27 4 L 26 4 L 20 4 L 19 4 z M 21 6 L 25 6 L 25 8 C 25 9.1166661 24.116666 10 23 10 C 21.883334 10 21 9.1166661 21 8 L 21 6 z M 4 8 L 4 10 L 10.5 10 C 10.945854 10 11.340541 10.291723 11.46875 10.71875 L 12.75 15 L 4 15 L 4 17 L 13.34375 17 L 14 19.1875 L 14 25 L 4 25 L 4 27 L 11.65625 27 L 12 28 L 15 28 C 15.552 28 16 27.552 16 27 L 16 26.15625 A 1.0001 1.0001 0 0 0 16 26 L 16 19 A 1.0001 1.0001 0 0 0 15.96875 18.71875 L 15.34375 16.59375 L 17.3125 15.9375 L 16.6875 14.0625 L 14.75 14.71875 L 13.375 10.125 C 12.995209 8.8600268 11.820146 8 10.5 8 L 4 8 z M 21.5625 12.375 L 23 16 L 24.4375 12.375 C 25.369263 12.881471 26 13.855702 26 15 L 26 19.375 L 24.5625 20.09375 L 24 20.375 L 24 21 L 24 26 L 22 26 L 22 21 L 22 20.375 L 21.4375 20.09375 L 20 19.375 L 20 15 C 20 13.855702 20.630737 12.881471 21.5625 12.375 z M 11.5 18 C 10.671573 18 10 18.671573 10 19.5 C 10 20.328427 10.671573 21 11.5 21 C 12.328427 21 13 20.328427 13 19.5 C 13 18.671573 12.328427 18 11.5 18 z M 4 21 L 4 23 L 6.65625 23 L 7.09375 24 L 9.25 24 L 8 21 L 4 21 z" overflow="visible" font-family="Bitstream Vera Sans" fill="#000000"/></svg>
