<?xml version="1.0" encoding="utf-8"?>
<svg xmlns="http://www.w3.org/2000/svg" viewBox="0 0 32 32" fill="#000000"><path d="M 16 3 L 11 8 L 15 8 L 15 11 L 17 11 L 17 8 L 21 8 L 16 3 z M 3 13 L 3 28 L 29 28 L 29 13 L 3 13 z M 7 15 L 25 15 C 25 16.105 25.895 17 27 17 L 27 24 C 25.895 24 25 24.895 25 26 L 7 26 C 7 24.895 6.105 24 5 24 L 5 17 C 6.105 17 7 16.105 7 15 z M 16 16 C 13.791 16 12 18.015 12 20.5 C 12 22.985 13.791 25 16 25 C 18.209 25 20 22.985 20 20.5 C 20 18.015 18.209 16 16 16 z M 16 18 C 17.103 18 18 19.122 18 20.5 C 18 21.878 17.103 23 16 23 C 14.897 23 14 21.878 14 20.5 C 14 19.122 14.897 18 16 18 z M 8.5 19 A 1.5 1.5 0 0 0 7 20.5 A 1.5 1.5 0 0 0 8.5 22 A 1.5 1.5 0 0 0 10 20.5 A 1.5 1.5 0 0 0 8.5 19 z M 23.5 19 A 1.5 1.5 0 0 0 22 20.5 A 1.5 1.5 0 0 0 23.5 22 A 1.5 1.5 0 0 0 25 20.5 A 1.5 1.5 0 0 0 23.5 19 z" fill="#000000"/></svg>
