<?xml version="1.0" encoding="utf-8"?>
<svg xmlns="http://www.w3.org/2000/svg" viewBox="0 0 32 32" fill="#000000"><path style="text-indent:0;text-align:start;line-height:normal;text-transform:none;block-progression:tb;-inkscape-font-specification:Sans" d="M 16 4 C 9.3844277 4 4 9.3844277 4 16 C 4 22.615572 9.3844277 28 16 28 C 22.615572 28 28 22.615572 28 16 C 28 9.3844277 22.615572 4 16 4 z M 16 6 C 21.534692 6 26 10.465308 26 16 C 26 21.534692 21.534692 26 16 26 C 10.465308 26 6 21.534692 6 16 C 6 10.465308 10.465308 6 16 6 z M 16 9 L 16 15 L 18 15 L 18 9 L 16 9 z M 13 10 L 13 16 L 15 16 L 15 10 L 13 10 z M 19 10 L 19 15 L 19 18.96875 L 19 19 C 18.999631 19.02283 18.9969 19.418895 18.625 19.90625 C 18.533275 20.026467 18.426721 20.160059 18.28125 20.28125 C 17.819539 20.665898 17.019373 21 15.5 21 C 13.576895 21 12.865514 20.255875 12.4375 19.5 C 12.009486 18.744125 12 18 12 18 L 12 17 L 12 12 L 10 12 L 10 17 L 10 18 C 10 18 10.01426 19.255875 10.71875 20.5 C 11.423236 21.744125 12.977105 23 15.5 23 C 17.462557 23 18.801933 22.402098 19.65625 21.65625 L 19.71875 21.71875 L 24.71875 16.71875 L 23.28125 15.28125 L 21 17.5625 L 21 15 L 21 10 L 19 10 z" overflow="visible" font-family="Sans" fill="#000000"/></svg>
