<?xml version="1.0" encoding="utf-8"?>
<svg xmlns="http://www.w3.org/2000/svg" viewBox="0 0 32 32" fill="#000000"><path style="text-indent:0;text-align:start;line-height:normal;text-transform:none;block-progression:tb;-inkscape-font-specification:Bitstream Vera Sans" d="M 14 4 L 14 6 L 18 6 L 18 4 L 14 4 z M 6 6 L 6 8 L 9 8 L 9 6 L 6 6 z M 11 7 L 11 8 L 11 8.1875 L 11 8.40625 L 11.125 8.625 C 11.07981 8.538454 11.15578 8.7314972 11.21875 8.96875 C 11.220741 8.9762501 11.216722 8.9923308 11.21875 9 L 6 9 L 5 9 L 5 10 L 5 10.1875 L 5 10.40625 L 5.125 10.625 C 5.199142 10.766994 5.6612686 11.989523 5.8125 13.1875 C 5.9637314 14.385477 5.80665 15.564907 5.25 16.1875 L 5 16.46875 L 5 16.875 L 5 17 L 5 18 L 2 18 L 1 18 L 1 19 C 1 22.162605 2.1124075 24.21856 3.28125 25.40625 C 3.5093955 25.638074 3.7431754 25.826858 3.96875 26 C 3.3478953 25.993902 2.7897342 25.807957 2.4375 25.5625 C 2.0793226 25.312901 2 25.042136 2 25 L 0 25 C 0 25.941864 0.58867738 26.683099 1.3125 27.1875 C 2.0363226 27.691901 2.9614482 28 4 28 C 5.035362 28 5.9618851 27.690468 6.6875 27.1875 C 6.8001837 27.109392 6.895686 27.026988 7 26.9375 C 7.1012319 27.023981 7.2036063 27.111617 7.3125 27.1875 C 8.0363226 27.691901 8.9614482 28 10 28 C 11.035362 28 11.961885 27.690468 12.6875 27.1875 C 12.800184 27.109392 12.895686 27.026988 13 26.9375 C 13.101232 27.023981 13.203606 27.111617 13.3125 27.1875 C 14.036323 27.691901 14.961448 28 16 28 C 17.035362 28 17.961885 27.690468 18.6875 27.1875 C 18.800184 27.109392 18.895686 27.026988 19 26.9375 C 19.101232 27.023981 19.203606 27.111617 19.3125 27.1875 C 20.036323 27.691901 20.961448 28 22 28 C 23.035362 28 23.961885 27.690468 24.6875 27.1875 C 24.800184 27.109392 24.895686 27.026988 25 26.9375 C 25.101232 27.023981 25.203606 27.111617 25.3125 27.1875 C 26.036323 27.691901 26.961448 28 28 28 C 29.035362 28 29.961885 27.690468 30.6875 27.1875 C 31.413115 26.684532 32 25.942667 32 25 L 30 25 C 30 25.05733 29.91888 25.315468 29.5625 25.5625 C 29.206115 25.809532 28.636638 26 28 26 C 27.968468 26 27.937454 26.000916 27.90625 26 C 28.810816 25.194269 29.458059 24.075381 29.9375 22.9375 C 30.656861 21.230207 31 19.398369 31 18 L 31 16.6875 L 29.71875 17.03125 L 22.71875 19.03125 L 22.46875 19.125 L 22.28125 19.28125 L 21.5625 20 L 9.4375 20 L 7.71875 18.28125 L 7.40625 18 L 7 18 L 6.15625 18 L 11.28125 17.15625 C 11.273282 17.166262 11.257832 17.17874 11.25 17.1875 L 11 17.46875 L 11 17.875 L 11 18 L 11 19.125 L 12.125 19 L 18 18.25 L 18 19.1875 L 19.15625 19 L 25.15625 18 L 25.46875 17.9375 L 25.71875 17.71875 C 27.150123 16.287377 27.130442 14.331992 26.8125 12.9375 C 26.494558 11.543008 25.875 10.5 25.875 10.5 L 25.5625 10 L 25 10 L 22.625 10 C 22.322868 8.6407729 21.9375 7.625 21.9375 7.625 L 21.6875 7 L 21 7 L 12 7 L 11 7 z M 13.25 9 L 20.21875 9 C 20.302995 9.2388757 20.435453 9.5517304 20.5625 10 L 19 10 L 18 10 L 18 11 L 18 11.1875 L 18 11.40625 L 18.125 11.625 C 18.19914 11.766994 18.661269 12.989523 18.8125 14.1875 C 18.901231 14.890384 18.860718 15.574859 18.71875 16.15625 L 13.5625 16.78125 C 13.64496 16.444014 13.738605 16.108818 13.78125 15.75 C 13.905213 14.706956 13.86918 13.587371 13.78125 12.5 C 13.693317 11.412629 13.53606 10.358631 13.375 9.53125 C 13.334501 9.3232032 13.29052 9.1796798 13.25 9 z M 7.25 11 L 11.625 11 C 11.702376 11.525632 11.766182 12.083485 11.8125 12.65625 C 11.877717 13.46269 11.865607 14.268153 11.8125 15 L 7.59375 15.71875 C 7.8400507 14.781365 7.8922896 13.817098 7.78125 12.9375 C 7.6693424 12.051026 7.4521255 11.60492 7.25 11 z M 20.25 12 L 24.3125 12 C 24.462842 12.291311 24.699141 12.603683 24.875 13.375 C 25.095255 14.341039 24.998031 15.291797 24.375 16.0625 L 20.59375 16.71875 C 20.840051 15.781365 20.89229 14.817098 20.78125 13.9375 C 20.669342 13.051026 20.452126 12.60492 20.25 12 z M 28.6875 19.4375 C 28.550881 20.338432 28.488313 21.219816 28.09375 22.15625 C 27.518496 23.521527 26.673825 24.601057 25.78125 25 L 24 25 C 24 25.05733 23.91888 25.315468 23.5625 25.5625 C 23.206115 25.809532 22.636638 26 22 26 C 21.366552 26 20.795677 25.812099 20.4375 25.5625 C 20.079323 25.312901 20 25.042136 20 25 L 18 25 C 18 25.05733 17.91888 25.315468 17.5625 25.5625 C 17.206115 25.809532 16.636638 26 16 26 C 15.366552 26 14.795677 25.812099 14.4375 25.5625 C 14.079323 25.312901 14 25.042136 14 25 L 12 25 C 12 25.05733 11.91888 25.315468 11.5625 25.5625 C 11.206115 25.809532 10.636638 26 10 26 C 9.3665518 26 8.7956774 25.812099 8.4375 25.5625 C 8.0793226 25.312901 8 25.042136 8 25 L 6.1875 25 C 6.0639954 24.963026 5.4687025 24.762046 4.71875 24 C 4.0177499 23.287696 3.3698434 21.964752 3.15625 20 L 6.59375 20 L 8.28125 21.6875 L 8.59375 22 L 9 22 L 22 22 L 22.40625 22 L 22.71875 21.71875 L 23.53125 20.90625 L 28.6875 19.4375 z" fill="#000000"/></svg>
