<?xml version="1.0" encoding="utf-8"?>
<svg xmlns="http://www.w3.org/2000/svg" viewBox="0 0 32 32" fill="#000000"><path d="M 14 4 L 14 5 L 14 5.25 C 12.182731 5.5219221 10.495398 6.3272984 9.40625 7.8125 L 8.1875 9.40625 L 7.78125 9.9375 L 8.15625 10.5 L 11 15.25 L 11 18 L 11 19 L 11 26 L 9 26 L 9 28 L 27 28 L 27 26 L 25 26 L 25 6 L 25 5 L 24 5 L 22 5 L 22 4 L 21 4 L 15 4 L 14 4 z M 16 6 L 20 6 L 20 7 L 21 7 L 23 7 L 23 13 L 18.59375 13 C 18.69375 12.9 18.9 12.8125 19 12.8125 C 19 12.4125 18.89375 11.99375 18.59375 11.59375 C 18.09375 11.09375 17.2875 11.00625 16.6875 11.40625 C 16.7875 11.70625 16.70625 12.1125 16.40625 12.3125 C 16.30625 12.4125 16.1 12.5 16 12.5 C 16 12.669189 16.050402 12.830811 16.09375 13 L 16 13 C 14.736978 13 13.602271 13.498668 12.71875 14.28125 L 10.1875 10.09375 L 11 9 C 11.905158 7.7656941 13.415789 7 15 7 L 16 7 L 16 6 z M 20.8125 8 C 20.6125 8.3 20.3 8.5 20 8.5 C 19.8 8.5 19.7 8.50625 19.5 8.40625 C 19.2 8.70625 19 9.1 19 9.5 C 19 10.2 19.4875 10.8 20.1875 11 C 20.3875 10.7 20.7 10.5 21 10.5 C 21.2 10.5 21.3 10.49375 21.5 10.59375 C 21.8 10.39375 22 10 22 9.5 L 22 9.40625 C 21.7 9.20625 21.5 8.9 21.5 8.5 L 21.5 8.40625 C 21.3 8.20625 21.1125 8.1 20.8125 8 z M 14.8125 9 C 14.6125 9.3 14.3 9.5 14 9.5 C 13.8 9.5 13.7 9.50625 13.5 9.40625 C 13.2 9.70625 13 10.1 13 10.5 C 13 11.2 13.4875 11.8 14.1875 12 C 14.3875 11.7 14.7 11.5 15 11.5 C 15.2 11.5 15.3 11.49375 15.5 11.59375 C 15.8 11.29375 16 10.9 16 10.5 L 16 10.40625 C 15.7 10.20625 15.5 9.9 15.5 9.5 L 15.5 9.40625 C 15.3 9.20625 15.1125 9.1 14.8125 9 z M 7.8125 15 C 7.6125 15.3 7.3 15.5 7 15.5 C 6.8 15.5 6.7 15.50625 6.5 15.40625 C 6.2 15.70625 6 16.1 6 16.5 C 6 17.2 6.4875 17.8 7.1875 18 C 7.3875 17.7 7.7 17.5 8 17.5 C 8.2 17.5 8.3 17.49375 8.5 17.59375 C 8.8 17.39375 9 17 9 16.5 L 9 16.40625 C 8.7 16.20625 8.5 15.9 8.5 15.5 L 8.5 15.40625 C 8.3 15.20625 8.1125 15.1 7.8125 15 z M 16 15 L 23 15 L 23 26 L 13 26 L 13 18 C 13 16.345455 14.345455 15 16 15 z M 6.6875 20.0625 C 6.35 20.025 5.9875 20.1125 5.6875 20.3125 C 5.7875 20.6125 5.70625 20.9875 5.40625 21.1875 C 5.30625 21.2875 5.1 21.40625 5 21.40625 C 5 21.80625 5.10625 22.19375 5.40625 22.59375 L 5.5 22.6875 C 5.9 22.5875 6.2 22.70625 6.5 22.90625 C 6.8 23.00625 7.1125 22.9125 7.3125 22.8125 C 7.2125 22.5125 7.29375 22.10625 7.59375 21.90625 C 7.69375 21.80625 7.9 21.6875 8 21.6875 C 8 21.2875 7.89375 20.9 7.59375 20.5 C 7.34375 20.25 7.025 20.1 6.6875 20.0625 z M 18 22 C 17.447715 22 17 22.447715 17 23 C 17 23.552285 17.447715 24 18 24 C 18.552285 24 19 23.552285 19 23 C 19 22.447715 18.552285 22 18 22 z" fill="#000000"/></svg>
