<?xml version="1.0" encoding="utf-8"?>
<svg xmlns="http://www.w3.org/2000/svg" viewBox="0 0 32 32" fill="#000000"><path style="text-indent:0;text-align:start;line-height:normal;text-transform:none;block-progression:tb;-inkscape-font-specification:Bitstream Vera Sans" d="M 3 5 L 3 6 L 3 26 L 3 27 L 4 27 L 28 27 L 29 27 L 29 26 L 29 6 L 29 5 L 28 5 L 4 5 L 3 5 z M 5 7 L 27 7 L 27 25 L 5 25 L 5 7 z M 16 10 C 13.250484 10 11 12.250484 11 15 C 11 16.476175 11.661161 17.801309 12.6875 18.71875 C 10.526242 19.713468 8.8574452 21.653981 8.25 24 L 10.34375 24 C 11.16975 21.673 13.393 20 16 20 C 18.607 20 20.83025 21.673 21.65625 24 L 23.75 24 C 23.14836 21.6764 21.505748 19.752931 19.375 18.75 C 19.883382 18.445573 20.399645 18.13502 20.875 17.8125 C 22.396894 16.77992 23.65625 15.78125 23.65625 15.78125 L 24.5625 15 L 23.65625 14.21875 C 23.65625 14.21875 22.396894 13.22008 20.875 12.1875 C 20.114053 11.67121 19.293216 11.125667 18.46875 10.71875 C 17.644284 10.311833 16.854046 10 16 10 z M 16 12 C 16.250454 12 16.898622 12.188167 17.59375 12.53125 C 18.288878 12.874333 19.068322 13.32879 19.78125 13.8125 C 20.636257 14.392608 20.839653 14.626963 21.3125 15 C 20.839653 15.373037 20.636257 15.607392 19.78125 16.1875 C 19.068322 16.67121 18.288878 17.125667 17.59375 17.46875 C 16.898622 17.811833 16.250454 18 16 18 C 14.331516 18 13 16.668484 13 15 C 13 13.331516 14.331516 12 16 12 z" overflow="visible" font-family="Bitstream Vera Sans" fill="#000000"/></svg>
