<?xml version="1.0" encoding="utf-8"?>
<svg xmlns="http://www.w3.org/2000/svg" viewBox="0 0 32 32" fill="#000000"><path style="text-indent:0;text-align:start;line-height:normal;text-transform:none;block-progression:tb;-inkscape-font-specification:Sans" d="M 8.78125 4.03125 C 8.5233954 4.0550873 8.2647087 4.1085844 8.03125 4.1875 C 7.0974155 4.5031624 6.3120309 5.1193023 5.6875 5.75 C 5.0558889 6.3872758 4.4569812 7.1573977 4.15625 8.09375 C 3.8555188 9.0301023 3.9957163 10.250039 4.84375 11.09375 C 7.1601149 13.400369 8.7509028 14.466625 10.125 14.84375 C 11.437933 15.204088 12.525957 14.714475 13.125 14.25 C 13.766648 14.600305 14.751456 15 16 15 C 18.035714 15 19.461849 14.098227 20.625 13.34375 C 21.788151 12.589273 22.682692 12 24 12 C 24 12 24.551014 12.02551 25.0625 12.28125 C 25.573986 12.536993 26 12.833333 26 14 C 26 15.587797 25.126953 16.599702 24.6875 17 L 5 17 L 4 17 L 4 18 L 4 27 L 4 28 L 5 28 L 25 28 L 26 28 L 26 27 L 26 18.4375 C 26.701408 17.7875 28 16.287144 28 14 C 28 12.166667 26.926014 10.963007 25.9375 10.46875 C 24.948986 9.974493 24 10 24 10 C 22.067308 10 20.711849 10.910727 19.5625 11.65625 C 18.413151 12.401773 17.464286 13 16 13 C 15.381237 13 14.890714 12.844729 14.5 12.6875 C 14.862511 12.070894 15.134534 11.199829 14.84375 10.15625 C 14.460781 8.7818296 13.400217 7.1707011 11.0625 4.84375 C 10.63362 4.4173516 10.095246 4.1610296 9.5625 4.0625 C 9.296127 4.0132352 9.0391046 4.0074127 8.78125 4.03125 z M 8.9375 5.96875 C 9.1907793 5.917983 9.3608193 5.9873476 9.625 6.25 C 11.847283 8.4620489 12.723969 9.9211704 12.9375 10.6875 C 13.151031 11.45383 12.97719 11.56268 12.65625 11.9375 C 12.249308 12.414639 12.379216 12.28635 11.9375 12.65625 C 11.558808 12.972354 11.429153 13.149625 10.65625 12.9375 C 9.8833472 12.725375 8.4496351 11.877881 6.25 9.6875 C 5.9210337 9.3602106 5.9142312 9.1803977 6.0625 8.71875 C 6.2107688 8.2571023 6.6416111 7.6439742 7.125 7.15625 C 7.6144691 6.6619477 8.2055845 6.2148376 8.65625 6.0625 C 8.7689164 6.0244156 8.8530736 5.9856723 8.9375 5.96875 z M 10 9 C 9.4477153 9 9 9.4477153 9 10 C 9 10.552285 9.4477153 11 10 11 C 10.552285 11 11 10.552285 11 10 C 11 9.4477153 10.552285 9 10 9 z M 6 19 L 24 19 L 24 26 L 6 26 L 6 19 z M 8 20 L 8 25 L 10 25 L 10 20 L 8 20 z M 11 20 L 11 25 L 13 25 L 13 20 L 11 20 z M 15 20 L 15 22 L 22 22 L 22 20 L 15 20 z M 16 23 C 15.447715 23 15 23.447715 15 24 C 15 24.552285 15.447715 25 16 25 C 16.552285 25 17 24.552285 17 24 C 17 23.447715 16.552285 23 16 23 z M 21 23 C 20.447715 23 20 23.447715 20 24 C 20 24.552285 20.447715 25 21 25 C 21.552285 25 22 24.552285 22 24 C 22 23.447715 21.552285 23 21 23 z" fill="#000000"/></svg>
