<?xml version="1.0" encoding="utf-8"?>
<svg xmlns="http://www.w3.org/2000/svg" viewBox="0 0 32 32" fill="#000000"><path style="text-indent:0;text-align:start;line-height:normal;text-transform:none;block-progression:tb;-inkscape-font-specification:Bitstream Vera Sans" d="M 17 4 C 15.895431 4 15 4.8954305 15 6 C 15 7.1045695 15.895431 8 17 8 C 18.104569 8 19 7.1045695 19 6 C 19 4.8954305 18.104569 4 17 4 z M 13.4375 7.09375 L 12.5625 8.90625 L 14.75 10 L 12.5625 11.09375 L 13.4375 12.90625 L 17 11.125 L 20.5625 12.90625 L 21.4375 11.09375 L 19.25 10 L 21.4375 8.90625 L 20.5625 7.09375 L 17 8.875 L 13.4375 7.09375 z M 6.5 11 C 5.1166667 11 4 12.116667 4 13.5 L 4 27 L 4 28 L 5 28 L 8 28 L 9 28 L 9 27 L 9 26 L 23 26 L 23 27 L 23 28 L 24 28 L 27 28 L 28 28 L 28 27 L 28 21 L 28 20 L 28 17 C 28 15.354545 26.645455 14 25 14 L 14 14 L 13 14 L 13 14.5625 C 12.407407 14.214051 11.732431 14 11 14 C 10.267569 14 9.5925926 14.214051 9 14.5625 L 9 13.5 C 9 12.116667 7.8833333 11 6.5 11 z M 6.5 13 C 6.7166667 13 7 13.283333 7 13.5 L 7 21 L 7 22 L 8 22 L 26 22 L 26 26 L 25 26 L 25 25 L 25 24 L 24 24 L 8 24 L 7 24 L 7 25 L 7 26 L 6 26 L 6 13.5 C 6 13.283333 6.2833333 13 6.5 13 z M 11 16 C 12.116414 16 13 16.883586 13 18 C 13 19.116414 12.116414 20 11 20 C 9.883586 20 9 19.116414 9 18 C 9 16.883586 9.883586 16 11 16 z M 15 16 L 25 16 C 25.554545 16 26 16.445455 26 17 L 26 20 L 15 20 L 15 16 z" overflow="visible" font-family="Bitstream Vera Sans" fill="#000000"/></svg>
