<?xml version="1.0" encoding="utf-8"?>
<svg xmlns="http://www.w3.org/2000/svg" viewBox="0 0 32 32" fill="#000000"><path style="text-indent:0;text-align:start;line-height:normal;text-transform:none;block-progression:tb;-inkscape-font-specification:Bitstream Vera Sans" d="M 14.5 5 C 12.026562 5 10 7.026562 10 9.5 C 10 10.847912 10.614475 12.048165 11.5625 12.875 C 10.62823 13.609392 10 14.728609 10 16 C 10 18.197334 11.802666 20 14 20 L 17.5 20 C 18.892562 20 20 21.107438 20 22.5 C 20 23.892562 18.892562 25 17.5 25 L 14.5 25 C 13.107438 25 12 23.892562 12 22.5 L 12 22 L 10 22 L 10 22.5 C 10 24.973438 12.026562 27 14.5 27 L 17.5 27 C 19.973438 27 22 24.973438 22 22.5 C 22 21.152088 21.385525 19.951835 20.4375 19.125 C 21.37177 18.390608 22 17.271391 22 16 C 22 13.802666 20.197334 12 18 12 L 14.5 12 C 13.107438 12 12 10.892562 12 9.5 C 12 8.107438 13.107438 7 14.5 7 L 17.5 7 C 18.892562 7 20 8.107438 20 9.5 L 20 10 L 22 10 L 22 9.5 C 22 7.026562 19.973438 5 17.5 5 L 14.5 5 z M 14 13.9375 C 14.166167 13.956341 14.329042 14 14.5 14 L 18 14 C 19.116666 14 20 14.883334 20 16 C 20 17.116666 19.116666 18 18 18 L 18 18.0625 C 17.833833 18.043659 17.670958 18 17.5 18 L 14 18 C 12.883334 18 12 17.116666 12 16 C 12 14.883334 12.883334 14 14 14 L 14 13.9375 z" overflow="visible" font-family="Bitstream Vera Sans" fill="#000000"/></svg>
