<?xml version="1.0" encoding="utf-8"?>
<svg xmlns="http://www.w3.org/2000/svg" viewBox="0 0 32 32" fill="#000000"><path style="text-indent:0;text-align:start;line-height:normal;text-transform:none;block-progression:tb;-inkscape-font-specification:Bitstream Vera Sans" d="M 9 4 C 6.8027056 4 5 5.8027056 5 8 C 5 9.1142275 5.4752606 10.116062 6.21875 10.84375 C 4.8879616 11.745561 4 13.284091 4 15 L 4 20 L 4 20.625 L 4.5625 20.90625 L 6 21.625 L 6 27 L 6 28 L 7 28 L 11 28 L 12 28 L 12 27 L 12 21.625 L 13.4375 20.90625 L 14 20.625 L 14 20 L 14 15 C 14 13.284091 13.112038 11.745561 11.78125 10.84375 C 12.524739 10.116062 13 9.1142275 13 8 C 13 5.8027056 11.197294 4 9 4 z M 22 4 C 19.802706 4 18 5.8027056 18 8 C 18 9.1538464 18.522199 10.173922 19.3125 10.90625 C 18.406692 11.584025 17.744695 12.597004 17.53125 13.8125 C 17.52945 13.8225 17.53295 13.83375 17.53125 13.84375 L 16.03125 21.8125 L 15.78125 23 L 17 23 L 19 23 L 19 27 L 19 28 L 20 28 L 24 28 L 25 28 L 25 27 L 25 23 L 27 23 L 28.21875 23 L 27.96875 21.8125 L 26.46875 13.84375 C 26.46705 13.83375 26.47055 13.82248 26.46875 13.8125 C 26.255305 12.597004 25.593308 11.584025 24.6875 10.90625 C 25.477801 10.173922 26 9.1538464 26 8 C 26 5.8027056 24.197294 4 22 4 z M 9 6 C 10.116414 6 11 6.883586 11 8 C 11 9.116414 10.116414 10 9 10 C 7.883586 10 7 9.116414 7 8 C 7 6.883586 7.883586 6 9 6 z M 22 6 C 23.116414 6 24 6.883586 24 8 C 24 9.116414 23.116414 10 22 10 C 20.883586 10 20 9.116414 20 8 C 20 6.883586 20.883586 6 22 6 z M 9 12 C 10.654545 12 12 13.345455 12 15 L 12 19.375 L 10.5625 20.09375 L 10 20.375 L 10 21 L 10 26 L 8 26 L 8 21 L 8 20.375 L 7.4375 20.09375 L 6 19.375 L 6 15 C 6 13.345455 7.3454545 12 9 12 z M 22 12 C 23.229412 12 24.277016 12.818344 24.5 14.15625 L 24.5 14.1875 L 24.53125 14.1875 L 25.8125 21 L 24 21 L 23 21 L 23 22 L 23 26 L 21 26 L 21 22 L 21 21 L 20 21 L 18.1875 21 L 19.46875 14.1875 L 19.5 14.1875 L 19.5 14.15625 C 19.722984 12.818344 20.770588 12 22 12 z" overflow="visible" font-family="Bitstream Vera Sans" fill="#000000"/></svg>
