<?xml version="1.0" encoding="utf-8"?>
<svg xmlns="http://www.w3.org/2000/svg" viewBox="0 0 32 32" fill="#000000"><path d="M 16 3 C 8.82 3 3 8.82 3 16 C 3 23.18 8.82 29 16 29 C 23.18 29 29 23.18 29 16 C 29 8.82 23.18 3 16 3 z M 11.65625 6.15625 C 12.917 6.0923594 14.4535 6.80725 16 8.125 C 18.062 6.369 20.097 5.65875 21.5 6.46875 C 22.902 7.27875 23.3015 9.3975 22.8125 12.0625 C 25.3655 12.9695 27 14.38 27 16 C 27 17.62 25.3655 19.0295 22.8125 19.9375 C 23.3025 22.6025 22.903 24.72025 21.5 25.53125 C 20.097 26.34225 18.062 25.632 16 23.875 C 13.938 25.631 11.903 26.34025 10.5 25.53125 C 9.097 24.72025 8.6975 22.6035 9.1875 19.9375 C 6.6345 19.0305 5 17.62 5 16 C 5 14.38 6.6345 12.9705 9.1875 12.0625 C 8.6975 9.3985 9.097 7.27875 10.5 6.46875 C 10.8505 6.26625 11.236 6.1775469 11.65625 6.15625 z M 11.8125 7.125 C 11.505156 7.1287969 11.23275 7.20925 11 7.34375 C 10.068 7.88075 9.732 9.51 10.125 11.75 C 11.065 11.484 12.10775 11.28425 13.21875 11.15625 C 13.88575 10.25825 14.58025 9.46225 15.28125 8.78125 C 13.9725 7.6855 12.734531 7.1136094 11.8125 7.125 z M 20.1875 7.125 C 19.265047 7.1136094 18.0275 7.6855 16.71875 8.78125 C 17.41875 9.46225 18.11525 10.25825 18.78125 11.15625 C 19.89225 11.28425 20.935 11.484 21.875 11.75 C 22.268 9.51 21.931 7.88075 21 7.34375 C 20.767 7.20925 20.494984 7.1287969 20.1875 7.125 z M 16 9.4375 C 15.521 9.9015 15.0435 10.43525 14.5625 11.03125 C 15.0355 11.00425 15.508 11 16 11 C 16.492 11 16.9655 11.00425 17.4375 11.03125 C 16.9565 10.43425 16.479 9.9015 16 9.4375 z M 16 12 C 15.214 12 14.464 12.02775 13.75 12.09375 C 13.336 12.67875 12.92525 13.319 12.53125 14 C 12.13825 14.681 11.799 15.349 11.5 16 C 11.799 16.651 12.13925 17.319 12.53125 18 C 12.92325 18.681 13.336 19.32225 13.75 19.90625 C 14.464 19.97325 15.213 20 16 20 C 16.786 20 17.537 19.97325 18.25 19.90625 C 18.664 19.32125 19.07575 18.681 19.46875 18 C 19.86175 17.32 20.201 16.651 20.5 16 C 20.201 15.349 19.86075 14.681 19.46875 14 C 19.07475 13.319 18.665 12.67875 18.25 12.09375 C 17.537 12.02775 16.785 12 16 12 z M 12.4375 12.28125 C 11.6795 12.40025 10.9555 12.53575 10.3125 12.71875 C 10.4745 13.36675 10.724 14.06525 11 14.78125 C 11.214 14.35725 11.41025 13.927 11.65625 13.5 C 11.90225 13.073 12.1775 12.67725 12.4375 12.28125 z M 19.5625 12.28125 C 19.8235 12.67725 20.09775 13.073 20.34375 13.5 C 20.58975 13.926 20.787 14.35725 21 14.78125 C 21.276 14.06525 21.5255 13.36575 21.6875 12.71875 C 21.0455 12.53575 20.3205 12.40025 19.5625 12.28125 z M 9.375 13.03125 C 7.238 13.81125 6 14.924 6 16 C 6 17.076 7.238 18.18775 9.375 18.96875 C 9.614 18.02075 9.96225 17.027 10.40625 16 C 9.96125 14.974 9.614 13.97825 9.375 13.03125 z M 22.625 13.03125 C 22.386 13.97825 22.03775 14.973 21.59375 16 C 22.03775 17.027 22.385 18.02175 22.625 18.96875 C 24.762 18.18875 26 17.076 26 16 C 26 14.924 24.762 13.81125 22.625 13.03125 z M 16 14.84375 C 16.645 14.84375 17.15625 15.355 17.15625 16 C 17.15625 16.645 16.645 17.15625 16 17.15625 C 15.355 17.15625 14.84375 16.644 14.84375 16 C 14.84375 15.356 15.355 14.84375 16 14.84375 z M 11 17.21875 C 10.724 17.93475 10.4755 18.63325 10.3125 19.28125 C 10.9555 19.46425 11.6805 19.59975 12.4375 19.71875 C 12.1775 19.32275 11.90225 18.926 11.65625 18.5 C 11.41025 18.073 11.214 17.64175 11 17.21875 z M 21 17.21875 C 20.787 17.64275 20.58975 18.075 20.34375 18.5 C 20.09775 18.927 19.8235 19.32175 19.5625 19.71875 C 20.3205 19.60075 21.0465 19.46425 21.6875 19.28125 C 21.5265 18.63425 21.276 17.93375 21 17.21875 z M 10.125 20.25 C 9.732 22.49 10.068 24.11925 11 24.65625 C 11.931 25.19425 13.53625 24.67975 15.28125 23.21875 C 14.58125 22.53675 13.88475 21.74175 13.21875 20.84375 C 12.10775 20.71475 11.065 20.516 10.125 20.25 z M 21.875 20.25 C 20.935 20.516 19.89225 20.71475 18.78125 20.84375 C 18.11425 21.74175 17.41975 22.53775 16.71875 23.21875 C 18.46275 24.67975 20.068 25.19425 21 24.65625 C 21.931 24.11925 22.268 22.491 21.875 20.25 z M 14.5625 20.96875 C 15.0435 21.56575 15.521 22.0985 16 22.5625 C 16.479 22.0985 16.9565 21.56575 17.4375 20.96875 C 16.9655 20.99575 16.492 21 16 21 C 15.507 21 15.0355 20.99475 14.5625 20.96875 z" fill="#000000"/></svg>
