<?xml version="1.0" encoding="utf-8"?>
<svg xmlns="http://www.w3.org/2000/svg" viewBox="0 0 32 32" fill="#000000"><path style="text-indent:0;text-align:start;line-height:normal;text-transform:none;block-progression:tb;-inkscape-font-specification:Sans" d="M 5 5 L 5 6 L 5 9 L 5 10 L 5 26 L 5 27 L 6 27 L 26 27 L 27 27 L 27 26 L 27 9 L 27 6 L 27 5 L 26 5 L 6 5 L 5 5 z M 7 7 L 25 7 L 25 8 L 7 8 L 7 7 z M 7 10 L 10.90625 10 C 10.508488 11.957949 8.957949 13.508488 7 13.90625 L 7 10 z M 12.90625 10 L 19.09375 10 C 19.535336 13.055411 21.944589 15.464664 25 15.90625 L 25 25 L 17 25 L 17 18 L 18 18 L 18 16 L 14 16 L 14 18 L 15 18 L 15 25 L 7 25 L 7 15.90625 C 10.055411 15.464664 12.464664 13.055411 12.90625 10 z M 21.09375 10 L 25 10 L 25 13.90625 C 23.042051 13.508488 21.491512 11.957949 21.09375 10 z" overflow="visible" font-family="Sans" fill="#000000"/></svg>
