<?xml version="1.0" encoding="utf-8"?>
<svg xmlns="http://www.w3.org/2000/svg" viewBox="0 0 32 32" fill="#000000"><path style="text-indent:0;text-align:start;line-height:normal;text-transform:none;block-progression:tb;-inkscape-font-specification:Sans" d="M 24 3 C 21.97815 3 20.220618 4.20265 19.4375 5.9375 L 19.15625 6.59375 L 19.65625 7.0625 L 24.9375 12.34375 L 25.40625 12.84375 L 26.0625 12.5625 C 27.79735 11.779382 29 10.02185 29 8 C 29 5.2504839 26.749516 3 24 3 z M 24 5 C 25.668484 5 27 6.3315161 27 8 C 27 8.9872596 26.449268 9.7683561 25.71875 10.3125 L 21.6875 6.28125 C 22.231644 5.5507315 23.01274 5 24 5 z M 18.21875 7.0625 L 3.09375 13.3125 L 3 13.875 C 2.982 14.022 2.63025 17.395 5.03125 20.375 C 5.09725 21.257 5.4215 23.50925 7.0625 25.15625 C 8.2085 26.30625 9.72375 26.923 11.59375 27 C 13.53275 28.79 16.2105 29.03125 17.4375 29.03125 C 17.8155 29.03125 18.05475 29.004 18.09375 29 L 18.6875 28.9375 L 24.9375 13.78125 L 23.40625 12.25 L 21.75 16.3125 L 20.78125 15.34375 L 23.15625 11.96875 L 21.71875 10.5625 L 19.34375 13.90625 L 18.09375 12.65625 L 21.4375 10.28125 L 20 8.84375 L 16.65625 11.21875 L 15.6875 10.25 L 19.75 8.59375 L 18.21875 7.0625 z M 13.65625 11.09375 L 14.96875 12.40625 L 6.21875 18.625 C 5.19475 17.093 4.98775 15.5055 4.96875 14.6875 L 13.65625 11.09375 z M 16.40625 13.84375 L 18.15625 15.59375 L 11.5 24.96875 C 7.853 24.71675 7.16025 21.745 7.03125 20.5 L 16.40625 13.84375 z M 19.59375 17.03125 L 20.90625 18.34375 L 17.3125 27.03125 C 16.4165 27.01725 14.68775 26.83075 13.34375 25.84375 L 19.59375 17.03125 z" overflow="visible" font-family="Sans" fill="#000000"/></svg>
