<?xml version="1.0" encoding="utf-8"?>
<svg xmlns="http://www.w3.org/2000/svg" viewBox="0 0 32 32" fill="#000000"><path style="text-indent:0;text-align:start;line-height:normal;text-transform:none;block-progression:tb;-inkscape-font-specification:Sans" d="M 21.09375 2 L 20.375 2.71875 L 16.78125 6.3125 L 16.0625 7.03125 L 16.78125 7.75 L 17.28125 8.25 L 0.75 25.59375 C -0.19250995 26.560173 -0.26275628 28.102881 0.625 29.125 C 1.6112261 30.260606 3.4067439 30.344863 4.46875 29.28125 L 4.46875 29.25 L 20.96875 11.9375 L 21.15625 12.125 C 23.623321 14.592071 24.09375 17.03125 24.09375 17.03125 L 24.28125 18.03125 L 25.28125 17.84375 C 25.28125 17.84375 27.386522 17.364582 29.375 15.375 C 31.330255 13.419745 31.84375 11.5625 31.84375 11.5625 L 32.0625 10.625 L 31.125 10.375 C 31.125 10.375 28.774242 9.6814345 26.15625 7.0625 C 26.05635 6.9625641 26.09675 7.0030312 26 6.90625 L 26.46875 6.40625 L 27.1875 5.71875 L 26.46875 5 L 24.21875 2.75 L 23.5 2.03125 L 22.78125 2.75 L 22.3125 3.21875 C 22.27153 3.1778021 21.8125 2.71875 21.8125 2.71875 L 21.09375 2 z M 21.09375 4.875 C 21.519656 5.3004676 22.401436 6.1818515 24.71875 8.5 C 26.842921 10.624936 28.558356 11.430123 29.5625 11.84375 C 29.303481 12.360107 28.858286 13.079214 27.96875 13.96875 C 27.058477 14.879528 26.2721 15.309203 25.6875 15.5625 C 25.340234 14.494034 24.635702 12.760702 22.59375 10.71875 L 18.90625 7.03125 L 21.09375 4.875 z M 18.71875 9.6875 L 19.5625 10.53125 L 3.03125 27.84375 C 2.7712561 28.104137 2.3980239 28.090894 2.15625 27.8125 C 1.9406706 27.564292 1.9546085 27.233281 2.1875 27 L 2.1875 26.96875 L 18.71875 9.6875 z" overflow="visible" font-family="Sans" fill="#000000"/></svg>
