<?xml version="1.0" encoding="utf-8"?>
<svg xmlns="http://www.w3.org/2000/svg" viewBox="0 0 32 32" fill="#000000"><path style="line-height:normal;text-indent:0;text-align:start;text-decoration-line:none;text-decoration-style:solid;text-decoration-color:#000;text-transform:none;block-progression:tb;isolation:auto;mix-blend-mode:normal" d="M 11.21875 4 L 11.021484 4.0898438 C 6.8813056 5.9826526 4 10.15875 4 15 C 4 18.281741 5.5317394 20.094833 6.9335938 21.064453 C 7.6345209 21.549263 8.2872141 21.872998 8.6601562 22.126953 C 9.0330986 22.380908 9.0058594 22.382239 9.0058594 22.441406 C 9.0058594 25.307755 11.725 28 16 28 C 20.275 28 22.994141 25.307755 22.994141 22.441406 C 22.994141 22.382236 22.966901 22.380906 23.339844 22.126953 C 23.712786 21.872998 24.365479 21.549263 25.066406 21.064453 C 26.468261 20.094833 28 18.281741 28 15 C 28 10.15875 25.118695 5.9826529 20.978516 4.0898438 L 20.78125 4 L 11.21875 4 z M 11.712891 6 L 20.287109 6 C 23.654915 7.6086585 26 11.011273 26 15 C 26 17.726259 25.02888 18.658292 23.927734 19.419922 C 23.377162 19.800737 22.778573 20.089408 22.212891 20.474609 C 21.647208 20.859811 20.994141 21.526073 20.994141 22.441406 C 20.994141 24.043058 19.475 26 16 26 C 12.525 26 11.005859 24.043058 11.005859 22.441406 C 11.005859 21.526073 10.352792 20.859811 9.7871094 20.474609 C 9.2214266 20.089408 8.6228385 19.800737 8.0722656 19.419922 C 6.9711199 18.658292 6 17.726259 6 15 C 6 11.011273 8.3450849 7.6086585 11.712891 6 z" font-weight="400" font-family="sans-serif" white-space="normal" overflow="visible" fill="#000000"/></svg>
