<?xml version="1.0" encoding="utf-8"?>
<svg xmlns="http://www.w3.org/2000/svg" viewBox="0 0 32 32" fill="#000000"><path style="text-indent:0;text-align:start;line-height:normal;text-transform:none;block-progression:tb;-inkscape-font-specification:Sans" d="M 4.5 7 C 3.1309372 7 2 8.1309372 2 9.5 L 2 10 L 4 10 L 4 9.5 C 4 9.2130628 4.2130628 9 4.5 9 C 4.7579517 9 5 9.2736566 5 9.5 C 5 9.7026515 4.6600849 10.331556 4.125 11.3125 C 3.5899151 12.293444 3 13.651489 3 15.5 C 3 18.352587 5.2098509 20.714112 8 20.96875 L 8 23 L 3 23 L 3 25 L 27 25 C 28.64497 25 30 23.64497 30 22 C 30 20.35503 28.64497 19 27 19 L 27 21 C 27.56503 21 28 21.43497 28 22 C 28 22.56503 27.56503 23 27 23 L 22 23 L 22 20.78125 C 24.296229 20.12043 26 17.998684 26 15.5 L 26 13 C 26 12.43497 26.43497 12 27 12 C 27.56503 12 28 12.43497 28 13 L 30 13 C 30 11.35503 28.64497 10 27 10 C 25.35503 10 24 11.35503 24 13 C 24 14.267744 23.552306 14.54998 23.0625 14.78125 C 22.572694 15.01252 22.0625 15 22.0625 15 L 22.03125 15 L 22 15 L 17 15 C 15.859066 15 15.543268 14.579301 15.28125 14.0625 C 15.019232 13.545699 15 13 15 13 L 15 12 C 15 9.718414 13.695479 8.2887822 12.46875 7.65625 C 11.242021 7.0237178 10.03125 7 10.03125 7 L 10 7 L 4.5 7 z M 6.9375 9 L 9.96875 9 L 10 9 C 10.02883 9.00147 10.77232 9.046177 11.53125 9.4375 C 12.304521 9.8362178 13 10.406586 13 12 L 13 13 C 13 13 13.0015 13.954301 13.5 14.9375 C 13.998482 15.920699 15.182934 17 17 17 L 21.9375 17 C 21.9375 17 21.99827 16.99989 22 17 C 22.052718 17.003401 22.865848 17.041201 23.78125 16.65625 C 23.303958 18.022129 22.026408 19 20.5 19 L 8.5 19 C 6.5704545 19 5 17.429545 5 15.5 C 5 14.056511 5.4100849 13.102306 5.875 12.25 C 6.3399151 11.397694 7 10.672348 7 9.5 C 7 9.3302929 6.9703621 9.1611679 6.9375 9 z M 10 21 L 20 21 L 20 23 L 10 23 L 10 21 z" overflow="visible" font-family="Sans" fill="#000000"/></svg>
