<?xml version="1.0" encoding="utf-8"?>
<svg xmlns="http://www.w3.org/2000/svg" viewBox="0 0 32 32" fill="#000000"><path style="text-indent:0;text-align:start;line-height:normal;text-transform:none;block-progression:tb;-inkscape-font-specification:Sans" d="M 18 2 C 15.85313 2 13.821166 2.8481162 12.3125 4.375 L 11.59375 5.09375 L 10.90625 5.8125 L 11.625 6.5 L 14.46875 9.3125 L 15.15625 10.03125 L 15.875 9.3125 L 16.5625 8.59375 C 16.947105 8.2050822 17.453551 8 18 8 C 19.111477 8 20 8.8885232 20 10 C 20 10.54348 19.787885 11.025289 19.40625 11.40625 L 5.71875 25.03125 L 5 25.75 L 5.71875 26.4375 L 8.53125 29.28125 L 9.25 30 L 9.9375 29.28125 L 23.65625 15.65625 C 25.164781 14.148858 26 12.129537 26 10 C 26 5.5976857 22.402314 2 18 2 z M 18 4 C 18.80523 4 19.580142 4.1507498 20.28125 4.4375 L 19.21875 6.21875 C 18.853147 6.1006414 18.464194 6.0062576 18.0625 6 L 17.4375 4.03125 C 17.626446 4.0138448 17.807521 4 18 4 z M 15.53125 4.5625 L 16.125 6.5 C 15.778741 6.6864942 15.438023 6.9027504 15.15625 7.1875 L 13.71875 5.78125 C 14.245364 5.2482768 14.871471 4.8606979 15.53125 4.5625 z M 21.96875 5.5 C 22.59718 6.0545261 23.116621 6.7275132 23.46875 7.5 L 21.53125 8.1875 C 21.366699 7.8700472 21.177414 7.5739595 20.9375 7.3125 L 21.96875 5.5 z M 23.96875 9.4375 C 23.985369 9.619784 24 9.8133285 24 10 C 24 10.694512 23.876532 11.366766 23.65625 12 L 21.46875 12 C 21.788632 11.444943 21.975093 10.809823 22 10.15625 L 23.96875 9.4375 z M 19.65625 14 L 22.46875 14 C 22.394571 14.082676 22.329356 14.170704 22.25 14.25 L 20.5 16 L 17.65625 16 L 19.65625 14 z M 15.625 18 L 18.46875 18 L 16.46875 20 L 13.625 20 L 15.625 18 z M 11.625 22 L 14.4375 22 L 12.4375 24 L 9.59375 24 L 11.625 22 z M 8.09375 26 L 10.40625 26 L 9.25 27.15625 L 8.09375 26 z" fill="#000000"/></svg>
