<?xml version="1.0" encoding="utf-8"?>
<svg xmlns="http://www.w3.org/2000/svg" viewBox="0 0 32 32" fill="#000000"><path style="text-indent:0;text-align:start;line-height:normal;text-transform:none;block-progression:tb;-inkscape-font-specification:Sans" d="M 8 5 C 6.3550302 5 5 6.3550302 5 8 L 5 24 C 5 25.64497 6.3550302 27 8 27 L 24 27 C 25.64497 27 27 25.64497 27 24 L 27 8 C 27 6.3550302 25.64497 5 24 5 L 8 5 z M 8 7 L 24 7 C 24.56503 7 25 7.4349698 25 8 L 25 24 C 25 24.56503 24.56503 25 24 25 L 8 25 C 7.4349698 25 7 24.56503 7 24 L 7 8 C 7 7.4349698 7.4349698 7 8 7 z M 11.65625 10 L 10 18 L 11.90625 18 L 12.46875 15 L 14 15 C 15.063 15 15.21925 15.69975 15.03125 17.21875 C 14.96825 17.73175 15.09375 18 15.09375 18 L 16.34375 18 L 17.46875 19.1875 L 16.1875 22 L 18.96875 20.34375 L 21.03125 21.9375 L 20.625 19.3125 L 23 17.625 L 20.375 17.625 L 19.9375 15 L 18.375 17.625 L 17.0625 17.625 C 16.984291 17.315401 16.915882 16.832118 17 16 C 17.123 14.785 16.65625 14.25 16.65625 14.25 C 16.65625 14.25 17.878 13.82425 18 12.15625 C 18.134 10.34025 17.0635 10 15.4375 10 L 11.65625 10 z M 13.28125 11.46875 L 15.25 11.46875 C 15.84 11.46875 16.3485 11.7765 16.1875 12.5625 C 16.0285 13.3355 15.37925 13.71875 14.78125 13.71875 C 14.10625 13.71875 12.78125 13.69375 12.78125 13.71875 L 13.28125 11.46875 z" overflow="visible" font-family="Sans" fill="#000000"/></svg>
