<?xml version="1.0" encoding="utf-8"?>
<svg xmlns="http://www.w3.org/2000/svg" viewBox="0 0 32 32" fill="#000000"><path style="text-indent:0;text-align:start;line-height:normal;text-transform:none;block-progression:tb;-inkscape-font-specification:Sans" d="M 16 3 C 9.9463705 3 5 7.8400266 5 13.8125 C 5 14.407253 5.1023873 16.111544 5.4375 17.90625 C 5.1861316 18.140338 4.9424785 18.429379 4.6875 18.78125 C 3.8090989 19.993444 3 21.965175 3 25 L 5 25 C 5 22.74913 5.4768181 21.347046 6 20.4375 L 6 27 L 8 27 L 8 24.0625 C 8.5869536 24.90805 9.2659472 25.691758 10.03125 26.375 C 11.75538 27.914257 13.832443 29 16 29 C 18.167557 29 20.24462 27.914257 21.96875 26.375 C 23.499356 25.008516 24.694984 23.244115 25.46875 21.375 L 25.5625 21.375 L 25.8125 20.71875 C 25.8161 20.70955 25.8089 20.69673 25.8125 20.6875 C 26.786667 18.178355 27 14.72249 27 13.8125 C 27 7.8400266 22.053629 3 16 3 z M 16 5 C 20.992371 5 25 8.9409734 25 13.8125 C 25 14.223979 24.745046 17.515641 24.09375 19.53125 C 23.733116 19.940153 20.896715 23 17 23 L 17 25 C 18.796577 25 20.372589 24.509683 21.6875 23.84375 C 21.357854 24.225085 20.991343 24.579189 20.625 24.90625 C 19.15963 26.214493 17.482443 27 16 27 C 14.517557 27 12.84037 26.214493 11.375 24.90625 C 9.9096305 23.598007 8.690998 21.785102 8.09375 20.03125 L 7.96875 19.6875 C 7.2811461 17.691199 7 14.234384 7 13.8125 C 7 13.623381 7.0193471 13.436138 7.03125 13.25 C 7.3767925 12.673558 9.1990977 10 14 10 L 14 8 C 11.449534 8 9.5025216 8.7357695 8.09375 9.625 C 9.6128255 6.8777882 12.567745 5 16 5 z M 16 11 C 16 11 14.134087 11.0047 12.21875 11.5625 C 11.261081 11.841387 10.258617 12.269452 9.4375 12.96875 C 8.616383 13.668048 8 14.721859 8 16 C 8 17.405927 8.9671091 18.348129 9.78125 18.6875 C 10.595391 19.026871 11.34375 19 11.34375 19 L 11.4375 19 L 11.53125 18.96875 L 16 18 L 20.46875 18.96875 L 20.5625 19 L 20.65625 19 C 20.65625 19 21.404609 19.02687 22.21875 18.6875 C 23.032891 18.348129 24 17.405927 24 16 C 24 14.721859 23.383617 13.668048 22.5625 12.96875 C 21.741383 12.269452 20.738919 11.841387 19.78125 11.5625 C 17.865913 11.004726 16 11 16 11 z M 16 13 C 16 13 17.634087 13.03852 19.21875 13.5 C 20.011081 13.730738 20.758617 14.050267 21.25 14.46875 C 21.741383 14.887233 22 15.316641 22 16 C 22 16.649073 21.789859 16.696871 21.4375 16.84375 C 21.099212 16.984764 20.749164 16.999349 20.71875 17 L 20.6875 17 L 16.21875 16.03125 L 16 15.96875 L 15.78125 16.03125 L 11.3125 17 C 11.3125 17 11.28252 17.000027 11.28125 17 C 11.25084 16.999349 10.900788 16.98476 10.5625 16.84375 C 10.210141 16.696871 10 16.649073 10 16 C 10 15.316641 10.258617 14.887233 10.75 14.46875 C 11.241383 14.050267 11.988919 13.730738 12.78125 13.5 C 14.365913 13.038524 16 13 16 13 z M 13 14 C 12.447715 14 12 14.447715 12 15 C 12 15.552285 12.447715 16 13 16 C 13.552285 16 14 15.552285 14 15 C 14 14.447715 13.552285 14 13 14 z M 19 14 C 18.447715 14 18 14.447715 18 15 C 18 15.552285 18.447715 16 19 16 C 19.552285 16 20 15.552285 20 15 C 20 14.447715 19.552285 14 19 14 z" overflow="visible" font-family="Sans" fill="#000000"/></svg>
