<?xml version="1.0" encoding="utf-8"?>
<svg xmlns="http://www.w3.org/2000/svg" viewBox="0 0 32 32" fill="#000000"><path style="text-indent:0;text-align:start;line-height:normal;text-transform:none;block-progression:tb;-inkscape-font-specification:Sans" d="M 3 3 L 3 4 L 3 24 L 3 25 L 4 25 L 12.75 25 L 14.96875 25 L 12.96875 23 L 12.75 23 L 5 23 L 5 21 L 7 21 L 7 19 L 5 19 L 5 9 L 7 9 L 7 7 L 5 7 L 5 5 L 27 5 L 27 7 L 25 7 L 25 9 L 27 9 L 27 19 L 25 19 L 25 21 L 27 21 L 27 23 L 26.9375 23 C 27.4065 23.611 27.75725 24.289 27.90625 25 L 29 25 L 29 23 L 29 4 L 29 3 L 28 3 L 4 3 L 3 3 z M 9 7 L 9 9 L 11 9 L 11 7 L 9 7 z M 13 7 L 13 9 L 15 9 L 15 7 L 13 7 z M 17 7 L 17 9 L 19 9 L 19 7 L 17 7 z M 21 7 L 21 9 L 23 9 L 23 7 L 21 7 z M 9.71875 12.71875 L 10.03125 14.1875 L 10.71875 17.6875 L 10.78125 18 L 11 18.21875 L 20.90625 28.09375 C 22.059803 29.247303 23.940197 29.247303 25.09375 28.09375 C 26.247303 26.940197 26.247303 25.059803 25.09375 23.90625 L 15.21875 14 L 15 13.78125 L 14.6875 13.71875 L 11.1875 13.03125 L 9.71875 12.71875 z M 12.28125 15.28125 L 14 15.625 L 23.6875 25.3125 C 24.133947 25.758947 24.133947 26.241053 23.6875 26.6875 C 23.241053 27.133947 22.758947 27.133947 22.3125 26.6875 L 22.25 26.625 L 12.625 17 L 12.28125 15.28125 z M 9 19 L 9 21 L 11 21 L 11 19 L 9 19 z" fill="#000000"/></svg>
