<?xml version="1.0" encoding="utf-8"?>
<svg xmlns="http://www.w3.org/2000/svg" viewBox="0 0 32 32" fill="#000000"><path style="text-indent:0;text-align:start;line-height:normal;text-transform:none;block-progression:tb;-inkscape-font-specification:Sans" d="M 9 4 L 9 5 L 6 5 L 5 5 L 5 6 L 5 26 L 5 27 L 6 27 L 26 27 L 27 27 L 27 26 L 27 6 L 27 5 L 26 5 L 23 5 L 23 4 L 21 4 L 21 5 L 11 5 L 11 4 L 9 4 z M 7 7 L 9 7 L 9 8 L 11 8 L 11 7 L 21 7 L 21 8 L 23 8 L 23 7 L 25 7 L 25 9 L 7 9 L 7 7 z M 7 11 L 25 11 L 25 25 L 7 25 L 7 11 z M 14.875 14 L 14.59375 14.40625 C 14.59375 14.40625 14.047628 15 13.5 15 L 13.5 17 C 14.157155 17 14.575532 16.721022 15 16.46875 L 15 22 L 17 22 L 17 15 L 17 14 L 16 14 L 15.375 14 L 14.875 14 z M 21 14 L 21 17.0625 C 20.837957 17.028937 20.671307 17 20.5 17 C 19.129545 17 18 18.129545 18 19.5 C 18 20.870455 19.129545 22 20.5 22 C 20.671307 22 20.837957 21.971063 21 21.9375 L 21 22 L 23 22 L 23 19.5 L 23 14 L 21 14 z M 8 17 L 8 19 L 12 19 L 12 17 L 8 17 z M 20.5 19 C 20.779545 19 21 19.220455 21 19.5 C 21 19.779545 20.779545 20 20.5 20 C 20.220455 20 20 19.779545 20 19.5 C 20 19.220455 20.220455 19 20.5 19 z" fill="#000000"/></svg>
