<?xml version="1.0" encoding="utf-8"?>
<svg xmlns="http://www.w3.org/2000/svg" viewBox="0 0 32 32" fill="#000000"><path style="text-indent:0;text-align:start;line-height:normal;text-transform:none;block-progression:tb;-inkscape-font-specification:Bitstream Vera Sans" d="M 16 5 C 14.996725 5 14.201077 5.5777863 13.65625 6.34375 C 10.995734 6.777896 8.4519275 7.7377063 6.5 9.15625 C 4.4609395 10.638117 3 12.66444 3 15 C 3 16.384011 3.8264305 17.363289 4.59375 17.71875 C 4.8892853 17.855657 4.912034 17.80488 5.15625 17.84375 L 6.6875 24.65625 C 6.9909059 26.023819 8.1935696 27 9.59375 27 L 22.40625 27 C 23.80643 27 25.009094 26.023819 25.3125 24.65625 L 26.84375 17.84375 C 27.087966 17.80488 27.110715 17.85566 27.40625 17.71875 C 28.173569 17.363289 29 16.384011 29 15 C 29 12.66444 27.539061 10.638117 25.5 9.15625 C 23.548072 7.7377063 21.004266 6.777896 18.34375 6.34375 C 17.798923 5.5777863 17.003275 5 16 5 z M 16 7 C 16.428095 7 16.789604 7.257758 16.9375 7.625 L 17.125 8.15625 L 17.71875 8.25 C 19.694041 8.5336278 21.59337 9.1860498 23.15625 10.0625 C 22.496405 10.167493 22 10.527946 22 11 C 22 11.552285 22.671573 12 23.5 12 C 24.176549 12 24.75053 11.691551 24.9375 11.28125 C 26.251419 12.413964 27 13.710257 27 15 C 27 15.762989 26.826431 15.798461 26.59375 15.90625 C 26.361069 16.014039 26.0625 16 26.0625 16 L 26 16 L 25.21875 15.9375 L 25.21875 16 L 6.78125 16 L 6.78125 15.9375 L 6 16 L 5.9375 16 C 5.9375 16 5.6389305 16.01404 5.40625 15.90625 C 5.1735695 15.798461 5 15.762989 5 15 C 5 13.51356 5.9728105 12.027383 7.6875 10.78125 C 8.0874957 10.490557 8.5337766 10.221597 9 9.96875 C 8.9994524 9.9798562 9 9.988805 9 10 C 9 10.552285 9.6715729 11 10.5 11 C 11.328427 11 12 10.552285 12 10 C 12 9.5633966 11.585107 9.1988694 11 9.0625 C 12.036798 8.6877713 13.149638 8.4124857 14.28125 8.25 L 14.875 8.15625 L 15.0625 7.625 C 15.210396 7.257758 15.571905 7 16 7 z M 17.5 11 C 16.671573 11 16 11.447715 16 12 C 16 12.552285 16.671573 13 17.5 13 C 18.328427 13 19 12.552285 19 12 C 19 11.447715 18.328427 11 17.5 11 z M 7.25 18 L 24.75 18 L 23.375 24.21875 C 23.272406 24.681181 22.88007 25 22.40625 25 L 21.15625 25 L 22 19 L 20 19 L 19.15625 25 L 17 25 L 17 19 L 15 19 L 15 25 L 12.84375 25 L 12 19 L 10 19 L 10.84375 25 L 9.59375 25 C 9.1199304 25 8.7275941 24.681181 8.625 24.21875 L 7.25 18 z" overflow="visible" font-family="Bitstream Vera Sans" fill="#000000"/></svg>
