<?xml version="1.0" encoding="utf-8"?>
<svg xmlns="http://www.w3.org/2000/svg" viewBox="0 0 32 32" fill="#000000"><path style="text-indent:0;text-align:start;line-height:normal;text-transform:none;block-progression:tb;-inkscape-font-specification:Sans" d="M 3.71875 2.28125 L 2.28125 3.71875 L 28.28125 29.71875 L 29.71875 28.28125 L 26 24.5625 L 26 24 L 30 24 L 30 8 L 24 8 L 24 10 L 28 10 L 28 22 L 24 22 L 24 22.5625 L 21.4375 20 L 22 20 L 22 4 L 5.4375 4 L 3.71875 2.28125 z M 7.4375 6 L 20 6 L 20 18 L 19.4375 18 L 7.4375 6 z M 2 6.25 L 2 20 L 6 20 L 6 25.09375 L 12.34375 20 L 15.75 20 L 13.75 18 L 11.65625 18 L 8 20.90625 L 8 18 L 4 18 L 4 8.25 L 2 6.25 z M 12.84375 22 L 10.34375 24 L 19.6875 24 L 17.75 22 L 12.84375 22 z" overflow="visible" font-family="Sans" fill="#000000"/></svg>
