<?xml version="1.0" encoding="utf-8"?>
<svg xmlns="http://www.w3.org/2000/svg" viewBox="0 0 32 32" fill="#000000"><path d="M 16 4 C 14.895431 4 14 4.8954305 14 6 C 14 6.0739087 13.992188 6.1469196 14 6.21875 C 12.722367 6.4808759 11.519077 6.9877029 10.46875 7.6875 C 10.102145 7.2325782 9.5672391 6.9375 8.9375 6.9375 C 7.8329305 6.9375 6.9375 7.8329305 6.9375 8.9375 C 6.9375 9.5672391 7.2325782 10.102145 7.6875 10.46875 C 6.9877029 11.519077 6.4808759 12.722367 6.21875 14 C 6.1469196 13.992188 6.0739087 14 6 14 C 4.8954305 14 4 14.895431 4 16 C 4 17.104569 4.8954305 18 6 18 C 6.0747209 18 6.1461557 17.976733 6.21875 17.96875 C 6.4807261 19.267127 6.9736142 20.467925 7.6875 21.53125 C 7.2325782 21.897855 6.9375 22.432761 6.9375 23.0625 C 6.9375 24.16707 7.8329305 25.0625 8.9375 25.0625 C 9.5672391 25.0625 10.102145 24.767422 10.46875 24.3125 C 10.907228 24.605186 11.360356 24.840748 11.84375 25.0625 L 11 28 L 13.5 28 L 16 18.8125 L 17.375 23.875 C 16.925867 23.955164 16.472012 24 16 24 C 15.971 24 15.93525 24 15.90625 24 L 15.46875 25.96875 C 15.64975 25.97775 15.816 26 16 26 C 16.649536 26 17.291105 25.931549 17.90625 25.8125 L 18.5 28 L 21 28 L 17.8125 16.8125 C 17.924316 16.563018 18 16.291093 18 16 C 18 14.895431 17.104569 14 16 14 C 14.895431 14 14 14.895431 14 16 C 14 16.291093 14.075684 16.563018 14.1875 16.8125 L 12.375 23.125 C 9.7763509 21.803837 8 19.109481 8 16 C 8 11.589 11.589 8 16 8 C 20.411 8 24 11.589 24 16 C 24 18.205 23.074 20.2395 21.625 21.6875 C 21.281608 22.046606 21.0625 22.526403 21.0625 23.0625 C 21.0625 24.16707 21.957931 25.0625 23.0625 25.0625 C 24.16707 25.0625 25.0625 24.16707 25.0625 23.0625 C 25.0625 22.432761 24.767422 21.897855 24.3125 21.53125 C 25.024868 20.470076 25.518792 19.263597 25.78125 17.96875 C 25.853844 17.976733 25.925279 18 26 18 C 27.104569 18 28 17.104569 28 16 C 28 14.895431 27.104569 14 26 14 C 25.926091 14 25.85308 13.992188 25.78125 14 C 25.519124 12.722367 25.012297 11.519077 24.3125 10.46875 C 24.767422 10.102145 25.0625 9.5672391 25.0625 8.9375 C 25.0625 7.8329305 24.16707 6.9375 23.0625 6.9375 C 22.432761 6.9375 21.897855 7.2325782 21.53125 7.6875 C 20.480923 6.9877029 19.277633 6.4808759 18 6.21875 C 18.007812 6.1469196 18 6.0739087 18 6 C 18 4.8954305 17.104569 4 16 4 z" fill="#000000"/></svg>
