<?xml version="1.0" encoding="utf-8"?>
<svg xmlns="http://www.w3.org/2000/svg" viewBox="0 0 32 32" fill="#000000"><path style="text-indent:0;text-align:start;line-height:normal;text-transform:none;block-progression:tb;-inkscape-font-specification:Sans" d="M 16.25 3.03125 C 15.723551 3.0749384 15.152481 3.1946715 14.5625 3.40625 C 14.55072 3.41047 14.54304 3.40195 14.53125 3.40625 C 13.382168 3.8175988 12.225151 4.7885249 11.3125 6.1875 C 10.713065 7.1063563 10.246891 8.2357674 10.0625 9.5 C 9.6387029 9.4291098 9.2028646 9.4457339 8.8125 9.46875 C 8.0129039 9.5158946 7.2701005 9.6822104 6.90625 9.75 C 6.8286073 9.7634377 6.648415 9.78125 6.6875 9.78125 C 6.643796 9.78125 6.4599894 9.70934 6.28125 9.53125 C 6.1025106 9.35316 6 9.1875 6 9.1875 L 5.6875 8.6875 L 5.125 8.6875 L 5.03125 8.6875 L 4.59375 8.6875 L 4.28125 9 C 3.7566383 9.5544004 2.7901956 11.03618 3.03125 13.34375 C 3.2870376 15.951647 4.7578422 17.675468 6.1875 18.6875 C 6.6414424 19.008839 7.0651892 19.265854 7.46875 19.46875 C 7.2531156 19.829248 7.0875492 20.188095 7 20.53125 C 6.8207844 21.233698 6.7516731 21.866121 6.625 22.25 C 6.4397267 22.810787 5.59375 23.21875 5.59375 23.21875 L 4.9375 23.46875 L 4.9375 24.15625 L 4.9375 24.28125 L 4.9375 24.625 L 5.125 24.875 C 5.3832576 25.240594 5.9703142 25.963894 6.90625 26.65625 C 7.8421858 27.348606 9.1405936 28 10.71875 28 C 12.261396 28 14.564733 27.481062 16.3125 25.6875 C 17.168704 26.567119 18.413929 26.762519 18.65625 26.875 C 19.223557 27.134543 19.25 27.96875 19.25 27.96875 L 19.21875 29 L 20.25 29 L 20.375 29 L 20.5 29 L 20.625 28.96875 C 21.26088 28.803546 22.681061 28.20342 24 26.34375 L 24.03125 26.28125 L 24.0625 26.21875 C 25.264801 23.932645 25.248671 21.706599 24.8125 20 C 24.6618 19.41036 24.479005 18.919909 24.28125 18.46875 C 24.982652 18.312312 25.834486 17.95449 26.4375 17.09375 L 26.46875 17.0625 L 26.46875 17.03125 C 26.44898 17.06478 26.791321 16.823045 27.21875 16.71875 C 27.646179 16.614455 28.03125 16.59375 28.03125 16.59375 L 28.875 16.53125 L 28.96875 15.6875 C 28.96875 15.6875 29.207778 13.540681 27.6875 11.5 C 26.903884 10.447544 25.637703 9.4403288 24.03125 8.9375 C 23.228023 8.6860856 22.336553 8.5578397 21.40625 8.65625 C 21.131632 8.6852999 20.842361 8.7434527 20.5625 8.8125 C 20.476113 8.3368285 20.318285 7.8961662 20.125 7.53125 C 19.720524 6.7676118 19.217962 6.1497126 19.125 6 C 18.977287 5.7170377 19.000191 5.5821037 19.0625 5.40625 C 19.124809 5.2303963 19.275732 5.0755375 19.34375 5 L 19.59375 4.6875 L 19.59375 4.3125 L 19.59375 4.25 L 19.59375 3.59375 L 18.9375 3.34375 C 18.9375 3.34375 18.460142 3.1485136 17.65625 3.0625 C 17.258275 3.019918 16.776449 2.9875616 16.25 3.03125 z M 17.15625 5.03125 C 17.025573 5.578949 16.991623 6.2317085 17.34375 6.90625 L 17.34375 6.9375 L 17.375 6.9375 C 17.68232 7.4730911 18.095052 7.9402163 18.375 8.46875 C 18.654948 8.9972837 18.705095 9.3619765 18.5625 9.65625 L 19.625 11.34375 C 21.031686 10.481712 22.293203 10.485579 23.4375 10.84375 C 24.581797 11.201921 25.577366 11.993956 26.09375 12.6875 C 26.693268 13.492238 26.865891 14.194714 26.9375 14.71875 C 26.84273 14.73726 26.85089 14.72535 26.75 14.75 C 26.135108 14.900037 25.335299 15.158744 24.8125 15.96875 L 24.78125 15.9375 C 24.40074 16.480639 23.408202 16.59375 23.09375 16.59375 L 21.6875 18 C 21.7531 18.0654 22.532421 19.128349 22.875 20.46875 C 23.215655 21.801622 23.244815 23.457795 22.3125 25.25 C 22.3072 25.26012 22.3178 25.27112 22.3125 25.28125 C 21.818227 25.950767 21.323091 26.397703 20.9375 26.65625 C 20.70913 26.065335 20.323246 25.439135 19.5 25.0625 C 18.479313 24.588719 17.72369 24.477739 17.5625 24 L 15.8125 23.0625 C 14.525373 25.458273 12.134004 26 10.71875 26 C 9.6889064 26 8.7975642 25.583144 8.09375 25.0625 C 7.733659 24.796124 7.6378536 24.623414 7.40625 24.375 C 7.8374663 24.027765 8.2930114 23.596103 8.53125 22.875 C 8.7655769 22.164879 8.8152156 21.510552 8.9375 21.03125 C 9.0542716 20.573556 9.1659134 20.345687 9.4375 20.15625 C 9.4455875 20.157554 9.4608942 20.155043 9.46875 20.15625 C 9.4747666 20.15223 9.4625723 20.128987 9.46875 20.125 L 9.78125 18.15625 C 9.723801 18.147425 8.4413422 17.839468 7.34375 17.0625 C 6.2461578 16.285532 5.2254624 15.105103 5.03125 13.125 C 4.948489 12.332747 5.101194 11.715229 5.28125 11.25 C 5.6404489 11.526345 6.0677843 11.78125 6.6875 11.78125 C 7.0597222 11.78125 7.1659722 11.75 7.09375 11.75 L 7.1875 11.75 L 7.25 11.71875 C 7.6751495 11.63954 8.3420961 11.503855 8.9375 11.46875 C 9.5329039 11.43365 9.9990966 11.597261 10.03125 11.625 L 12 11.40625 C 11.802436 9.7751605 12.267542 8.3561105 12.96875 7.28125 C 13.669958 6.2063895 14.674389 5.5038743 15.21875 5.3125 C 15.98833 5.0316972 16.638265 5.0015894 17.15625 5.03125 z M 15 11 L 15 12.0625 C 13.876762 12.248447 13 13.202106 13 14.375 C 13 15.22625 13.431769 15.973007 13.9375 16.4375 C 14.443231 16.901993 15.025586 17.196766 15.53125 17.46875 C 16.036914 17.740734 16.471799 17.977066 16.71875 18.1875 C 16.965701 18.397934 17 18.464602 17 18.625 C 17 18.847152 16.847152 19 16.625 19 L 15.375 19 C 15.152848 19 15 18.847152 15 18.625 L 15 18 L 13 18 L 13 18.625 C 13 19.797894 13.876762 20.751553 15 20.9375 L 15 22 L 17 22 L 17 20.9375 C 18.123238 20.751553 19 19.797894 19 18.625 C 19 17.792898 18.534299 17.08491 18.03125 16.65625 C 17.528201 16.22759 16.963086 15.953391 16.46875 15.6875 C 15.974414 15.421609 15.556769 15.161851 15.3125 14.9375 C 15.068231 14.713149 15 14.61575 15 14.375 C 15 14.152848 15.152848 14 15.375 14 L 16.625 14 C 16.847152 14 17 14.152848 17 14.375 L 17 15 L 19 15 L 19 14.375 C 19 13.202106 18.123238 12.248447 17 12.0625 L 17 11 L 15 11 z" overflow="visible" font-family="Sans" fill="#000000"/></svg>
