<?xml version="1.0" encoding="utf-8"?>
<svg xmlns="http://www.w3.org/2000/svg" viewBox="0 0 32 32" fill="#000000"><path style="text-indent:0;text-align:start;line-height:normal;text-transform:none;block-progression:tb;-inkscape-font-specification:Bitstream Vera Sans" d="M 24.21875 4 C 22.986031 4 22.255543 4.4966317 21.71875 5.3125 C 21.232155 5.2413771 20.76066 5.1875 20.375 5.1875 C 19.126273 5.1875 18.059249 5.817067 17.3125 6.625 C 16.59171 7.4048474 16.121973 8.357769 15.71875 9.3125 C 15.71665 9.31739 15.68956 9.30761 15.6875 9.3125 C 14.64686 11.264988 13.541533 13.830827 9.78125 15.59375 C 6.9797319 16.913348 5.6202561 18.843372 5.28125 20.75 C 4.4896948 21.245388 4 21.981017 4 23.3125 C 4 25.391839 5.5010776 26.593307 7.375 27.125 C 8.4374391 28.266691 9.8590627 29 11.625 29 C 14.694637 29 18.299386 26.981109 22.625 22.5 L 22.65625 22.5 C 27.43255 17.717435 29 13.754594 29 10.9375 C 29 9.1051006 28.490796 7.8019642 27.53125 7.15625 C 27.808305 4.8773608 25.709526 4 24.21875 4 z M 20.375 7.1875 C 20.505399 7.1875 20.674381 7.2051165 20.84375 7.21875 C 20.033901 9.4974073 19.212894 12.662649 16.125 15.75 C 13.169346 18.773104 9.9984834 19.324754 7.625 19.90625 C 8.081807 19.033308 8.9617706 18.18968 10.625 17.40625 C 14.948717 15.379173 16.45814 12.118762 17.4375 10.28125 A 1.0001 1.0001 0 0 0 17.5 10.1875 C 17.860693 9.3182809 18.292249 8.497817 18.78125 7.96875 C 19.270251 7.439683 19.745727 7.1875 20.375 7.1875 z M 24.96875 9 C 25.474367 8.9750469 26.041875 9.067 26.71875 9.3125 C 26.858067 9.6513909 27 10.165888 27 10.9375 C 27 13.006767 25.799171 16.544579 21.25 21.09375 A 1.0001 1.0001 0 0 0 21.21875 21.125 C 18.25964 24.193706 15.737346 25.851592 13.75 26.5625 C 11.417926 26.415699 8.8328762 24.616021 17.875 18 C 21.533375 15.3225 21.42943 9.1746719 24.96875 9 z" overflow="visible" font-family="Bitstream Vera Sans" fill="#000000"/></svg>
