<?xml version="1.0" encoding="utf-8"?>
<svg xmlns="http://www.w3.org/2000/svg" viewBox="0 0 32 32" fill="#000000"><path style="text-indent:0;text-align:start;line-height:normal;text-transform:none;block-progression:tb;-inkscape-font-specification:Sans" d="M 9 4 L 9 8 L 11 8 L 11 4 L 9 4 z M 15 4 L 15 8 L 17 8 L 17 4 L 15 4 z M 21 4 L 21 8 L 23 8 L 23 4 L 21 4 z M 4 5 L 4 6 L 4 19 L 4 20 L 5 20 L 13 20 L 13 26 L 11 26 L 11 28 L 13 28 L 19 28 L 21 28 L 21 26 L 19 26 L 19 20 L 27 20 L 28 20 L 28 19 L 28 6 L 28 5 L 27 5 L 24 5 L 24 7 L 26 7 L 26 18 L 6 18 L 6 7 L 8 7 L 8 5 L 5 5 L 4 5 z M 12 5 L 12 7 L 14 7 L 14 5 L 12 5 z M 18 5 L 18 7 L 20 7 L 20 5 L 18 5 z M 15 20 L 17 20 L 17 26 L 15 26 L 15 20 z" fill="#000000"/></svg>
