<?xml version="1.0" encoding="utf-8"?>
<svg xmlns="http://www.w3.org/2000/svg" viewBox="0 0 32 32" fill="#000000"><path style="text-indent:0;text-align:start;line-height:normal;text-transform:none;block-progression:tb;-inkscape-font-specification:Sans" d="M 15 4 L 15 6 C 16.998356 6 18.505455 6.394086 19.625 6.875 C 19.156658 7.4239386 18.625479 8.0549609 17.96875 8.84375 C 16.440741 10.679023 14.489883 13.038446 12.5625 15.375 C 8.7643993 19.979412 5.2014987 24.368726 5.09375 24.5 C 5.09214 24.502 4.96875 24.625 4.96875 24.625 L 6.375 26.03125 C 6.375 26.03125 6.4980367 25.907862 6.5 25.90625 C 6.6313038 25.798443 10.994841 22.233315 15.59375 18.4375 C 17.927587 16.511214 20.289239 14.561324 22.125 13.03125 C 22.803217 12.465968 23.308071 12.047806 23.8125 11.625 C 23.916461 12.072296 24 12.551593 24 13 C 24 13.910996 23.719366 14.489933 23.1875 15.0625 C 22.655634 15.635067 21.842277 16.138051 20.96875 16.6875 C 20.095223 17.236949 19.155801 17.830869 18.375 18.65625 C 17.594199 19.481631 17 20.606864 17 22 C 17 23.558653 17.576751 24.832482 18.4375 25.71875 C 19.298249 26.605018 20.405882 27.11264 21.46875 27.4375 C 22.531618 27.76236 23.574045 27.911856 24.40625 27.96875 C 25.238455 28.025644 25.909275 28 26 28 L 26 26 C 25.753225 26 25.262326 26.01873 24.53125 25.96875 C 23.800174 25.91877 22.884007 25.79189 22.03125 25.53125 C 21.178493 25.27061 20.408782 24.862107 19.875 24.3125 C 19.341218 23.762893 19 23.099347 19 22 C 19 21.120136 19.280801 20.593306 19.8125 20.03125 C 20.344199 19.469194 21.154777 18.926301 22.03125 18.375 C 22.907723 17.823699 23.844366 17.246621 24.625 16.40625 C 25.405634 15.565879 26 14.413004 26 13 C 26 11.882612 25.719168 10.85411 25.5 10.1875 C 25.513596 10.174306 25.549774 10.137769 25.5625 10.125 C 26.12586 9.5628988 26.635405 8.7756929 26.875 7.84375 C 27.114595 6.9118071 26.979603 5.7296028 26.125 4.875 C 25.694516 4.444516 25.18195 4.2046747 24.65625 4.09375 C 24.13055 3.9828253 23.59078 4.0036657 23.125 4.125 C 22.262349 4.3497177 21.539692 4.8082636 21 5.3125 C 19.585979 4.6082193 17.627839 4 15 4 z M 23.9375 6 C 24.231894 5.965399 24.465976 6.0284759 24.71875 6.28125 C 25.059147 6.6216472 25.055905 6.8831929 24.9375 7.34375 C 24.819095 7.8043071 24.48789 8.3566012 24.15625 8.6875 C 24.15415 8.68958 23.704627 9.1024178 23.125 9.59375 C 22.545373 10.085082 21.759291 10.736912 20.84375 11.5 C 19.012667 13.026176 16.645038 14.981036 14.3125 16.90625 C 13.645189 17.45703 13.649772 17.464391 13 18 C 13.542223 17.341849 13.535982 17.332429 14.09375 16.65625 C 16.020117 14.320929 17.975697 11.955821 19.5 10.125 C 20.256004 9.2169734 20.918288 8.4519404 21.40625 7.875 C 21.575875 8.0008205 21.698953 8.1181008 21.8125 8.21875 C 21.775615 8.5106261 21.815667 8.7834833 22 8.96875 C 22.397 9.36675 23.182 9.22425 23.75 8.65625 C 24.316 8.09025 24.4575 7.3335 24.0625 6.9375 C 23.84415 6.71915 23.5077 6.6624166 23.15625 6.75 C 23.056155 6.6595091 22.936872 6.5388264 22.8125 6.4375 C 23.077695 6.2691857 23.357482 6.1321876 23.625 6.0625 C 23.741922 6.0320421 23.839369 6.0115337 23.9375 6 z" overflow="visible" font-family="Sans" fill="#000000"/></svg>
