<?xml version="1.0" encoding="utf-8"?>
<svg xmlns="http://www.w3.org/2000/svg" viewBox="0 0 32 32" fill="#000000"><path style="text-indent:0;text-align:start;line-height:normal;text-transform:none;block-progression:tb;-inkscape-font-specification:Sans" d="M 16 3 C 8.8321429 3 3 8.8321429 3 16 C 3 23.167857 8.8321429 29 16 29 C 23.167857 29 29 23.167857 29 16 C 29 8.8321429 23.167857 3 16 3 z M 16 5 C 22.086977 5 27 9.9130231 27 16 C 27 22.086977 22.086977 27 16 27 C 9.9130231 27 5 22.086977 5 16 C 5 9.9130231 9.9130231 5 16 5 z M 20.28125 10.28125 L 16.5 14.0625 C 16.34107 14.020953 16.170738 14 16 14 C 14.907275 14 14 14.907275 14 16 C 14 16.170738 14.020953 16.34107 14.0625 16.5 L 12.28125 18.28125 C 11.876485 18.091825 11.438465 18 11 18 C 10.230215 18 9.4565365 18.293463 8.875 18.875 L 10.28125 20.28125 C 10.680177 19.882323 11.319823 19.882323 11.71875 20.28125 L 11.71875 20.3125 C 12.095398 20.711783 12.110156 21.327344 11.71875 21.71875 L 13.125 23.125 C 14.037777 22.212223 14.238663 20.833202 13.71875 19.71875 L 15.5 17.9375 C 15.65893 17.979047 15.829262 18 16 18 C 17.092725 18 18 17.092725 18 16 C 18 15.829262 17.979047 15.65893 17.9375 15.5 L 21.71875 11.71875 L 20.28125 10.28125 z" overflow="visible" font-family="Sans" fill="#000000"/></svg>
