<?xml version="1.0" encoding="utf-8"?>
<svg xmlns="http://www.w3.org/2000/svg" viewBox="-8 10 32 32" fill="#000000"><path d="M12,21v-4h-1v-3.536l-0.614-0.257c-2.005-0.838-5.181-1.07-5.315-1.08L4,12.052v1.786l1,1.696V17H4v4H1v12.913 c0,3.879,3.355,5.869,3.499,5.952L4.731,40h6.538l0.233-0.135C11.645,39.782,15,37.792,15,33.913V21H12z M6.603,14.315 c0.75,0.111,1.635,0.277,2.397,0.516V17H7v-2.012L6.603,14.315z M6,19h4v2H6V19z M13,33.913c0,2.276-1.694,3.666-2.296,4.087H5.296 C4.691,37.576,3,36.187,3,33.913V23h1h8h1V33.913z" fill="#000000"/></svg>
