<?xml version="1.0" encoding="utf-8"?>
<svg xmlns="http://www.w3.org/2000/svg" viewBox="0 0 32 32" fill="#000000"><path style="text-indent:0;text-align:start;line-height:normal;text-transform:none;block-progression:tb;-inkscape-font-specification:Bitstream Vera Sans" d="M 5.28125 5 L 5.0625 5.6875 L 3.0625 11.6875 L 3 11.84375 L 3 12 C 3 12.877851 3.3898134 13.667821 4 14.21875 L 4 26 L 4 27 L 5 27 L 27 27 L 28 27 L 28 26 L 28 14.21875 C 28.610187 13.667821 29 12.877851 29 12 L 29 11.84375 L 28.9375 11.6875 L 26.9375 5.6875 L 26.71875 5 L 26 5 L 6 5 L 5.28125 5 z M 6.71875 7 L 25.28125 7 L 26.96875 12.0625 C 26.931843 12.589093 26.538981 13 26 13 C 25.435573 13 25 12.563541 25 12 L 23 12 C 23 12.563541 22.564427 13 22 13 C 21.435573 13 21 12.563541 21 12 L 19 12 C 19 12.563541 18.564427 13 18 13 C 17.435573 13 17 12.563541 17 12 L 15 12 C 15 12.563541 14.564427 13 14 13 C 13.435573 13 13 12.563541 13 12 L 11 12 C 11 12.563541 10.564427 13 10 13 C 9.4355732 13 9 12.563541 9 12 L 7 12 C 7 12.563541 6.5644268 13 6 13 C 5.4610186 13 5.0681572 12.589093 5.03125 12.0625 L 6.71875 7 z M 8 14.21875 C 8.5328627 14.699864 9.2328725 15 10 15 C 10.767127 15 11.467137 14.699864 12 14.21875 C 12.532863 14.699864 13.232873 15 14 15 C 14.353113 15 14.684206 14.926796 15 14.8125 L 15 25 L 6 25 L 6 15 C 6.7671275 15 7.4671373 14.699864 8 14.21875 z M 20 14.21875 C 20.532863 14.699864 21.232873 15 22 15 C 22.767127 15 23.467137 14.699864 24 14.21875 C 24.532863 14.699864 25.232873 15 26 15 L 26 25 L 17 25 L 17 14.8125 C 17.315794 14.926796 17.646887 15 18 15 C 18.767127 15 19.467137 14.699864 20 14.21875 z M 14 18 C 13.172 18 12.5 18.672 12.5 19.5 C 12.5 20.328 13.172 21 14 21 L 14 18 z M 18 18 L 18 21 C 18.828 21 19.5 20.328 19.5 19.5 C 19.5 18.672 18.828 18 18 18 z" overflow="visible" font-family="Bitstream Vera Sans" fill="#000000"/></svg>
