<?xml version="1.0" encoding="utf-8"?>
<svg xmlns="http://www.w3.org/2000/svg" viewBox="0 0 32 32" fill="#000000"><path d="M 9 3 A 1 1 0 0 0 8 4 A 1 1 0 0 0 9 5 A 1 1 0 0 0 10 4 A 1 1 0 0 0 9 3 z M 11.923828 3 L 12.066406 3.3574219 C 12.827406 5.5414219 13.532203 7.4754063 14.158203 9.1914062 C 15.869203 13.889406 17 16.992 17 19 C 17 21.177 14.757875 22.024641 14.671875 22.056641 C 12.512875 22.807641 6.7025313 24.806344 5.7695312 25.027344 L 5 25.208984 L 5 26 C 5 27.71 6.29 29 8 29 C 8.872 29 9.5853125 28.632344 10.070312 28.277344 C 10.876312 28.725344 11.95 29 13 29 C 13.623 29 14.50725 28.798406 15.53125 28.566406 C 16.70425 28.300406 18.035 28 19 28 C 19.876 28 20.727781 28.257812 21.550781 28.507812 C 22.347781 28.749813 23.173 29 24 29 C 25.065 29 26.579797 28.544766 27.341797 27.259766 C 28.076797 26.017766 27.920953 24.422531 26.876953 22.519531 C 25.717953 20.406531 25 18.077 25 13 L 25 3 L 23 3 L 23 13 C 23 17.756 23.596047 20.693469 25.123047 23.480469 C 25.784047 24.685469 25.961094 25.666234 25.621094 26.240234 C 25.312094 26.762234 24.563 27 24 27 C 23.469 27 22.818859 26.80275 22.130859 26.59375 C 21.212859 26.31575 20.172 26 19 26 C 17.812 26 16.364844 26.328188 15.089844 26.617188 C 14.258844 26.805187 13.399 27 13 27 C 12.021 27 11.047031 26.632969 10.707031 26.292969 L 10.138672 25.724609 C 12.411672 24.958609 14.875984 24.102359 15.333984 23.943359 C 15.482984 23.890359 19 22.603 19 19 C 19 16.639 17.884156 13.577859 16.035156 8.5058594 C 15.442156 6.8798594 14.777547 5.049 14.060547 3 L 11.923828 3 z M 10 6 A 1 1 0 0 0 9 7 A 1 1 0 0 0 10 8 A 1 1 0 0 0 11 7 A 1 1 0 0 0 10 6 z M 11 9 A 1 1 0 0 0 10 10 A 1 1 0 0 0 11 11 A 1 1 0 0 0 12 10 A 1 1 0 0 0 11 9 z M 12 12 A 1 1 0 0 0 11.791016 12.023438 C 8.6219123 12.25519 6.109375 14.909176 6.109375 18.132812 C 6.109375 19.410224 6.5036133 20.606067 7.1757812 21.589844 L 7.1875 21.582031 A 1 1 0 0 0 8 22 A 1 1 0 0 0 9 21 A 1 1 0 0 0 8.7695312 20.363281 C 8.354123 19.718571 8.109375 18.960746 8.109375 18.132812 C 8.109375 15.903868 9.8489302 14.107601 12.046875 14.005859 L 12.046875 13.998047 A 1 1 0 0 0 13 13 A 1 1 0 0 0 12 12 z M 13 15 A 1 1 0 0 0 12 16 A 1 1 0 0 0 13 17 A 1 1 0 0 0 14 16 A 1 1 0 0 0 13 15 z M 14 18 A 1 1 0 0 0 13 19 A 1 1 0 0 0 14 20 A 1 1 0 0 0 15 19 A 1 1 0 0 0 14 18 z M 11 19 A 1 1 0 0 0 10 20 A 1 1 0 0 0 11 21 A 1 1 0 0 0 12 20 A 1 1 0 0 0 11 19 z M 5 21 A 1 1 0 0 0 4 22 A 1 1 0 0 0 5 23 A 1 1 0 0 0 6 22 A 1 1 0 0 0 5 21 z M 9.6132812 25.900391 L 9.2304688 26.359375 C 9.2264688 26.365375 8.657 27 8 27 C 7.676 27 7.4094219 26.882688 7.2324219 26.679688 C 7.8714219 26.479688 8.7122812 26.201391 9.6132812 25.900391 z" fill="#000000"/></svg>
