<?xml version="1.0" encoding="utf-8"?>
<svg xmlns="http://www.w3.org/2000/svg" viewBox="0 0 32 32" fill="#000000"><path style="text-indent:0;text-align:start;line-height:normal;text-transform:none;block-progression:tb;-inkscape-font-specification:Bitstream Vera Sans" d="M 4 4 L 4 28 L 6 28 L 6 17 L 7 17 C 8.6454545 17 10 15.645455 10 14 L 10 13 C 10 10.245455 12.245455 8 15 8 C 17.754545 8 20 10.245455 20 13 L 20 17.09375 C 18.053622 17.49581 16.49581 19.053622 16.09375 21 L 14 21 L 14 23 L 19 23 C 19 24.104569 19.895431 25 21 25 C 22.104569 25 23 24.104569 23 23 L 28 23 L 28 21 L 25.90625 21 C 25.50419 19.053622 23.946378 17.49581 22 17.09375 L 22 13 C 22 9.1545455 18.845455 6 15 6 C 11.154545 6 8 9.1545455 8 13 L 8 14 C 8 14.554545 7.5545455 15 7 15 L 6 15 L 6 4 L 4 4 z M 21 19 C 22.299507 19 23.396462 19.84216 23.8125 21 L 21 21 L 18.1875 21 C 18.603538 19.84216 19.700493 19 21 19 z" overflow="visible" font-family="Bitstream Vera Sans" fill="#000000"/></svg>
