<?xml version="1.0" encoding="utf-8"?>
<svg xmlns="http://www.w3.org/2000/svg" viewBox="0 0 32 32" fill="#000000"><path style="text-indent:0;text-align:start;line-height:normal;text-transform:none;block-progression:tb;-inkscape-font-specification:Sans" d="M 5 6 C 3.3550302 6 2 7.3550302 2 9 L 2 23 C 2 24.64497 3.3550302 26 5 26 L 27 26 C 28.64497 26 30 24.64497 30 23 L 30 9 C 30 7.3550302 28.64497 6 27 6 L 5 6 z M 5 8 L 27 8 C 27.56503 8 28 8.4349698 28 9 L 28 11 L 5 11 L 5 13 L 28 13 L 28 23 C 28 23.56503 27.56503 24 27 24 L 5 24 C 4.4349698 24 4 23.56503 4 23 L 4 9 C 4 8.4349698 4.4349698 8 5 8 z M 9.5 15 C 8.1309372 15 7 16.130937 7 17.5 L 7 20.5 C 7 21.869063 8.1309372 23 9.5 23 C 10.869063 23 12 21.869063 12 20.5 L 12 20 L 10 20 L 10 20.5 C 10 20.786937 9.7869372 21 9.5 21 C 9.2130628 21 9 20.786937 9 20.5 L 9 17.5 C 9 17.213063 9.2130628 17 9.5 17 C 9.7869372 17 10 17.213063 10 17.5 L 10 18 L 12 18 L 12 17.5 C 12 16.130937 10.869063 15 9.5 15 z M 15.5 15 C 14.130937 15 13 16.130937 13 17.5 C 13 18.869063 14.130937 20 15.5 20 C 15.786937 20 16 20.213063 16 20.5 C 16 20.864232 15.93915 21 15.5 21 C 15.120705 21 15.068225 20.91215 15.0625 20.90625 C 15.056775 20.900353 15 20.866336 15 20.625 L 13 20.625 C 13 21.192664 13.156725 21.830147 13.625 22.3125 C 14.093275 22.794853 14.775295 23 15.5 23 C 16.908848 23 18 21.791768 18 20.5 C 18 19.130937 16.869063 18 15.5 18 C 15.213063 18 15 17.786937 15 17.5 C 15 17.213063 15.213063 17 15.5 17 C 15.77034 17 15.844119 17.05675 15.90625 17.125 C 15.968381 17.19325 16 17.320536 16 17.40625 L 18 17.40625 C 18 16.839964 17.805369 16.254 17.375 15.78125 C 16.944631 15.3085 16.25966 15 15.5 15 z M 21.5 15 C 20.130937 15 19 16.130937 19 17.5 L 19 20.5 C 19 21.869063 20.130937 23 21.5 23 C 22.869063 23 24 21.869063 24 20.5 L 24 20 L 22 20 L 22 20.5 C 22 20.786937 21.786937 21 21.5 21 C 21.213063 21 21 20.786937 21 20.5 L 21 17.5 C 21 17.213063 21.213063 17 21.5 17 C 21.786937 17 22 17.213063 22 17.5 L 22 18 L 24 18 L 24 17.5 C 24 16.130937 22.869063 15 21.5 15 z" overflow="visible" font-family="Sans" fill="#000000"/></svg>
