<?xml version="1.0" encoding="utf-8"?>
<svg xmlns="http://www.w3.org/2000/svg" viewBox="0 0 32 32" fill="#000000"><path style="text-indent:0;text-align:start;line-height:normal;text-transform:none;block-progression:tb;-inkscape-font-specification:Sans" d="M 16 7 C 14.904545 7 14 7.9045455 14 9 C 14 10.095455 14.904545 11 16 11 C 17.095455 11 18 10.095455 18 9 C 18 7.9045455 17.095455 7 16 7 z M 16 13 C 14.354545 13 13 14.354545 13 16 C 13 17.645455 14.354545 19 16 19 C 17.645455 19 19 17.645455 19 16 C 19 14.354545 17.645455 13 16 13 z M 3 14 C 1.9045455 14 1 14.904545 1 16 C 1 17.095455 1.9045455 18 3 18 C 4.0954545 18 5 17.095455 5 16 C 5 14.904545 4.0954545 14 3 14 z M 9 14 C 7.9045455 14 7 14.904545 7 16 C 7 17.095455 7.9045455 18 9 18 C 10.095455 18 11 17.095455 11 16 C 11 14.904545 10.095455 14 9 14 z M 23 14 C 21.904545 14 21 14.904545 21 16 C 21 17.095455 21.904545 18 23 18 C 24.095455 18 25 17.095455 25 16 C 25 14.904545 24.095455 14 23 14 z M 29 14 C 27.904545 14 27 14.904545 27 16 C 27 17.095455 27.904545 18 29 18 C 30.095455 18 31 17.095455 31 16 C 31 14.904545 30.095455 14 29 14 z M 16 15 C 16.554545 15 17 15.445455 17 16 C 17 16.554545 16.554545 17 16 17 C 15.445455 17 15 16.554545 15 16 C 15 15.445455 15.445455 15 16 15 z M 16 21 C 14.904545 21 14 21.904545 14 23 C 14 24.095455 14.904545 25 16 25 C 17.095455 25 18 24.095455 18 23 C 18 21.904545 17.095455 21 16 21 z" overflow="visible" font-family="Sans" fill="#000000"/></svg>
