<?xml version="1.0" encoding="utf-8"?>
<svg xmlns="http://www.w3.org/2000/svg" viewBox="0 0 32 32" fill="#000000"><path style="text-indent:0;text-align:start;line-height:normal;text-transform:none;block-progression:tb;-inkscape-font-specification:Bitstream Vera Sans" d="M 16.78125 3 C 13.401606 3 11.290798 3.4552894 9.875 4.4375 C 8.4592024 5.4197106 8 6.9623333 8 8.375 C 8 8.654236 8.1753721 9.1248916 8.21875 9.5 C 7.8199931 9.3024543 7.4714688 9 7 9 C 5.3483937 9 4 10.360601 4 12 C 4 18.299076 7.6393884 22.036355 10 23.5625 L 10 27 L 10 28 L 11 28 L 23 28 L 24 28 L 24 27 L 24 23.21875 C 24.174924 22.895392 24.553824 22.140049 24.96875 20.5625 C 25.492867 18.569807 26 15.471827 26 11 C 26 8.5757983 25.573197 6.5020553 24.0625 5.0625 C 22.551803 3.6229447 20.186976 3 16.78125 3 z M 16.78125 5 C 19.944524 5 21.703697 5.5923053 22.65625 6.5 C 23.608803 7.4076947 24 8.8132017 24 11 C 24 15.320173 23.507133 18.221943 23.03125 20.03125 C 22.646137 21.49545 22.427843 21.792081 22.3125 22 L 11.3125 22 C 9.5169805 20.924147 6 17.739876 6 12 C 6 11.451399 6.4416063 11 7 11 C 7.5650302 11 8 11.43497 8 12 C 8 14.421289 9.0626104 15.920097 10.28125 16.53125 C 11.49989 17.142403 12.817337 17 13 17 L 13 15 C 12.494663 15 11.79686 15.02435 11.1875 14.71875 C 10.655476 14.451938 10.214722 13.875997 10.09375 12.5 C 10.631546 12.774399 11.2325 13 11.96875 13 L 20 13 L 20 11 L 11.96875 11 C 10.873774 11 10.604644 10.675912 10.34375 10.1875 C 10.082856 9.6990877 10 8.9410667 10 8.375 C 10 7.2876667 10.163548 6.6427894 11 6.0625 C 11.836452 5.4822106 13.591894 5 16.78125 5 z M 12 24 L 22 24 L 22 26 L 12 26 L 12 24 z" overflow="visible" font-family="Bitstream Vera Sans" fill="#000000"/></svg>
