<?xml version="1.0" encoding="utf-8"?>
<svg xmlns="http://www.w3.org/2000/svg" viewBox="0 0 32 32" fill="#000000"><path style="line-height:normal;text-indent:0;text-align:start;text-decoration-line:none;text-decoration-style:solid;text-decoration-color:#000;text-transform:none;block-progression:tb;isolation:auto;mix-blend-mode:normal" d="M 3.7070312 2.2929688 L 2.2929688 3.7070312 L 28.292969 29.707031 L 29.707031 28.292969 L 20.414062 19 L 26 19 C 27.654 19 29 17.654 29 16 C 29 14.346 27.654 13 26 13 L 18.650391 13 L 14.650391 4 L 9.8828125 4 L 10.441406 9.0273438 L 3.7070312 2.2929688 z M 12.117188 6 L 13.349609 6 L 17.349609 15 L 26 15 C 26.551 15 27 15.449 27 16 C 27 16.551 26.551 17 26 17 L 18.414062 17 L 12.705078 11.291016 L 12.117188 6 z M 2.7792969 10 L 3.9804688 16 L 2.7792969 22 L 7.0175781 22 L 9.0175781 19 L 10.882812 19 L 9.8828125 28 L 14.650391 28 L 17.464844 21.664062 L 15.949219 20.150391 L 13.349609 26 L 12.117188 26 L 13.085938 17.285156 L 12.800781 17 L 7.9472656 17 L 5.9472656 20 L 5.2207031 20 L 6.0195312 16 L 5.2207031 12 L 5.9472656 12 L 7.9472656 15 L 10.800781 15 L 5.8007812 10 L 2.7792969 10 z" font-weight="400" font-family="sans-serif" white-space="normal" overflow="visible" fill="#000000"/></svg>
