<?xml version="1.0" encoding="utf-8"?>
<svg xmlns="http://www.w3.org/2000/svg" viewBox="-8 10 32 32" fill="#000000"><path d="M 16 2 C 12.691 2 10 4.691 10 8 L 10 10 L 12 10 L 12 8 C 12 5.794 13.794 4 16 4 C 18.206 4 20 5.794 20 8 L 20 10 L 22 10 L 22 8 C 22 4.691 19.309 2 16 2 z M 11 11 C 10.448 11 10 11.448 10 12 L 6.1875 12 L 2.78125 29 L 6 29 L 6 30 L 8 30 L 8 29 L 24 29 L 24 30 L 26 30 L 26 29 L 29.21875 29 L 25.8125 12 L 22 12 C 22 11.448 21.552 11 21 11 C 20.448 11 20 11.448 20 12 L 12 12 C 12 11.448 11.552 11 11 11 z M 7.8125 14 L 24.1875 14 L 26.78125 27 L 5.21875 27 L 7.8125 14 z M 10 16 L 10 18 L 22 18 L 22 16 L 10 16 z M 20 19 L 20 23 L 22 23 L 22 19 L 20 19 z" transform="translate(-8 10)" fill="#000000"/></svg>
