<?xml version="1.0" encoding="utf-8"?>
<svg xmlns="http://www.w3.org/2000/svg" viewBox="0 0 32 32" fill="#000000"><path style="text-indent:0;text-align:start;line-height:normal;text-transform:none;block-progression:tb;-inkscape-font-specification:Bitstream Vera Sans" d="M 15 4 L 15 14.0625 L 12.71875 11.78125 L 11.28125 13.21875 L 15.28125 17.21875 L 16 17.90625 L 16.71875 17.21875 L 20.71875 13.21875 L 19.28125 11.78125 L 17 14.0625 L 17 4 L 15 4 z M 8.25 8 L 8.03125 8.75 L 5.03125 19.75 L 5 19.875 L 5 20 L 5 26 L 5 27 L 6 27 L 26 27 L 27 27 L 27 26 L 27 20 L 27 19.875 L 26.96875 19.75 L 23.96875 8.75 L 23.75 8 L 23 8 L 19 8 L 19 10 L 22.25 10 L 24.6875 19 L 7.3125 19 L 9.75 10 L 13 10 L 13 8 L 9 8 L 8.25 8 z M 7 21 L 25 21 L 25 25 L 7 25 L 7 21 z M 22 22 C 21.447715 22 21 22.447715 21 23 C 21 23.552285 21.447715 24 22 24 C 22.552285 24 23 23.552285 23 23 C 23 22.447715 22.552285 22 22 22 z" overflow="visible" font-family="Bitstream Vera Sans" fill="#000000"/></svg>
