<?xml version="1.0" encoding="utf-8"?>
<svg xmlns="http://www.w3.org/2000/svg" viewBox="0 0 32 32" fill="#000000"><path style="text-indent:0;text-align:start;line-height:normal;text-transform:none;block-progression:tb;-inkscape-font-specification:Sans" d="M 8.5 5 L 8.1875 5.40625 L 5.1875 9.40625 L 5 9.65625 L 5 10 L 5 26 L 5 27 L 6 27 L 26 27 L 27 27 L 27 26 L 27 10 L 27 9.65625 L 26.8125 9.40625 L 23.8125 5.40625 L 23.5 5 L 23 5 L 9 5 L 8.5 5 z M 9.5 7 L 15 7 L 15 9 L 8 9 L 9.5 7 z M 17 7 L 22.5 7 L 24 9 L 17 9 L 17 7 z M 7 11 L 25 11 L 25 25 L 7 25 L 7 11 z M 12.8125 13 A 1.001098 1.001098 0 0 0 13 15 L 19 15 A 1.0001 1.0001 0 1 0 19 13 L 13 13 A 1.0001 1.0001 0 0 0 12.90625 13 A 1.001098 1.001098 0 0 0 12.8125 13 z" overflow="visible" font-family="Sans" fill="#000000"/></svg>
