<?xml version="1.0" encoding="utf-8"?>
<svg xmlns="http://www.w3.org/2000/svg" viewBox="0 0 32 32" fill="#000000"><path d="M 16 5 C 12.790476 5 9.8724782 5.8283093 7.6875 7.21875 C 5.5025218 8.6091907 4 10.642372 4 13 L 4 19 C 4 21.357642 5.5025082 23.390813 7.6875 24.78125 C 9.8724918 26.171687 12.790538 27 16 27 C 19.209462 27 22.127508 26.171687 24.3125 24.78125 C 26.497492 23.390813 28 21.357642 28 19 L 28 13 C 28 10.642372 26.497478 8.6091907 24.3125 7.21875 C 22.127522 5.8283093 19.209524 5 16 5 z M 15.78125 7 C 15.955065 7.04584 16.913506 7.3152729 17.9375 7.9375 C 19.057403 8.6180057 20 9.5461331 20 11 C 20 12.093678 19.485273 12.74142 18.6875 13.25 C 17.889727 13.75858 16.790046 14 16.09375 14 C 15.183083 14 14.295733 13.860983 13.75 13.59375 C 13.204267 13.326517 13 13.125585 13 12.5 C 13 12.279536 13.03827 12.180062 13.21875 12 C 13.399226 11.819938 13.732952 11.594453 14.15625 11.4375 C 15.002846 11.123594 16.192602 11 17 11 L 17 9 C 15.995398 9 14.669154 9.1174065 13.46875 9.5625 C 12.868548 9.7850468 12.286399 10.089687 11.8125 10.5625 C 11.338601 11.035313 11 11.738464 11 12.5 C 11 13.838415 11.870733 14.883233 12.875 15.375 C 13.879267 15.866767 15.004417 16 16.09375 16 C 17.197454 16 18.547773 15.70392 19.75 14.9375 C 20.952227 14.17108 22 12.806322 22 11 C 22 9.6655418 21.490221 8.5943458 20.78125 7.75 C 21.71207 8.0601037 22.536716 8.452342 23.25 8.90625 C 25.046239 10.049311 26 11.491635 26 13 C 26 14.508365 25.046239 15.950689 23.25 17.09375 C 21.453761 18.236811 18.865608 19 16 19 C 13.134392 19 10.546239 18.236811 8.75 17.09375 C 6.9537613 15.950689 6 14.508365 6 13 C 6 11.491635 6.9537613 10.049311 8.75 8.90625 C 10.500052 7.7925806 13.003558 7.0379917 15.78125 7 z M 9 12 C 8.4477153 12 8 12.447715 8 13 C 8 13.552285 8.4477153 14 9 14 C 9.5522847 14 10 13.552285 10 13 C 10 12.447715 9.5522847 12 9 12 z M 23 13 C 22.447715 13 22 13.447715 22 14 C 22 14.552285 22.447715 15 23 15 C 23.552285 15 24 14.552285 24 14 C 24 13.447715 23.552285 13 23 13 z M 11 15 C 10.447715 15 10 15.447715 10 16 C 10 16.552285 10.447715 17 11 17 C 11.552285 17 12 16.552285 12 16 C 12 15.447715 11.552285 15 11 15 z M 6 17.4375 C 6.4947524 17.934022 7.0613647 18.3828 7.6875 18.78125 C 9.8724782 20.171691 12.790476 21 16 21 C 19.209524 21 22.127522 20.171691 24.3125 18.78125 C 24.938635 18.3828 25.505248 17.934022 26 17.4375 L 26 19 C 26 20.508358 25.046258 21.950687 23.25 23.09375 C 22.515521 23.561141 21.651615 23.93584 20.6875 24.25 C 20.509381 24.086022 20.261192 24 20 24 C 19.561421 24 19.197348 24.294665 19.0625 24.6875 C 18.101502 24.878239 17.063763 25 16 25 C 13.134462 25 10.546258 24.236813 8.75 23.09375 C 6.9537418 21.950687 6 20.508358 6 19 L 6 17.4375 z M 20 21 C 19.447715 21 19 21.447715 19 22 C 19 22.552285 19.447715 23 20 23 C 20.552285 23 21 22.552285 21 22 C 21 21.447715 20.552285 21 20 21 z M 17 22 C 16.447715 22 16 22.447715 16 23 C 16 23.552285 16.447715 24 17 24 C 17.552285 24 18 23.552285 18 23 C 18 22.447715 17.552285 22 17 22 z" fill="#000000"/></svg>
