<?xml version="1.0" encoding="utf-8"?>
<svg xmlns="http://www.w3.org/2000/svg" viewBox="0 0 32 32" fill="#000000"><path style="text-indent:0;text-align:start;line-height:normal;text-transform:none;block-progression:tb;-inkscape-font-specification:Sans" d="M 16 3 C 12.698136 3 10 5.6981362 10 9 C 10 10.912767 10.908743 12.618355 12.3125 13.71875 C 8.627789 15.194562 6 18.796319 6 23 L 6 24 L 7 24 L 9 24 L 9 29 L 11 29 L 11 24 L 11.4375 24 C 12.21281 25.758982 13.957585 27 16 27 C 18.042415 27 19.78719 25.758982 20.5625 24 L 21 24 L 21 29 L 23 29 L 23 24 L 25 24 L 26 24 L 26 23 C 26 18.796319 23.372211 15.194562 19.6875 13.71875 C 21.091257 12.618355 22 10.912767 22 9 C 22 5.6981362 19.301864 3 16 3 z M 16 5 C 18.220984 5 20 6.7790164 20 9 C 20 11.220984 18.220984 13 16 13 C 13.779016 13 12 11.220984 12 9 C 12 6.7790164 13.779016 5 16 5 z M 16 15 C 20.077065 15 23.304119 18.065316 23.8125 22 L 21 22 L 19 22 L 17 22 L 17 24 L 18.21875 24 C 17.669249 24.60923 16.882944 25 16 25 C 15.117056 25 14.330751 24.60923 13.78125 24 L 15 24 L 15 22 L 13 22 L 11 22 L 8.1875 22 C 8.6958811 18.065316 11.922935 15 16 15 z M 16 17 C 13.585 17 11.55875 18.721 11.09375 21 L 13.1875 21 C 13.6015 19.839 14.698 19 16 19 C 17.302 19 18.3985 19.839 18.8125 21 L 20.90625 21 C 20.44125 18.721 18.415 17 16 17 z" overflow="visible" font-family="Sans" fill="#000000"/></svg>
