<?xml version="1.0" encoding="utf-8"?>
<svg xmlns="http://www.w3.org/2000/svg" viewBox="0 0 32 32" fill="#000000"><path style="text-indent:0;text-align:start;line-height:normal;text-transform:none;block-progression:tb;-inkscape-font-specification:Sans" d="M 3 3 L 3 4 L 3 18 L 3 19 L 4 19 L 6 19 L 6 17 L 5 17 L 5 5 L 17 5 L 17 13 L 14 13 L 13 13 C 12.636455 13 12.276723 12.86775 11.9375 12.6875 C 12.116819 12.49119 12.287562 12.290056 12.4375 12.09375 C 13.082539 11.249237 13.430167 10.532347 13.65625 10 L 15 10 L 15 8 L 12 8 L 12 7 L 10 7 L 10 8 L 7 8 L 7 10 L 11.4375 10 C 11.279873 10.270444 11.091899 10.581363 10.84375 10.90625 C 10.720621 11.067456 10.576651 11.221394 10.4375 11.375 C 10.07414 10.909186 9.875 10.53125 9.875 10.53125 L 8.125 11.46875 C 8.125 11.46875 8.3732507 11.974864 8.84375 12.59375 C 8.3090968 12.843608 7.7027001 13 7 13 L 7 15 C 8.2991475 15 9.3995591 14.595723 10.3125 14.03125 C 11.032892 14.565811 11.918076 15 13 15 L 13 17 L 11 17 L 11 19 L 13 19 L 13 21 L 15 21 L 15 15 L 27 15 L 27 27 L 15 27 L 15 26 L 13 26 L 13 28 L 13 29 L 14 29 L 28 29 L 29 29 L 29 28 L 29 14 L 29 13 L 28 13 L 19 13 L 19 4 L 19 3 L 18 3 L 4 3 L 3 3 z M 8.46875 16 L 7 17 L 7 22 L 10 25 L 15 25 L 16 23.46875 L 15 22 L 10 22 L 10 17 L 8.46875 16 z M 20.21875 17 L 20 17.6875 L 18.0625 23.6875 L 18 23.84375 L 18 24 L 18 25 L 20 25 L 20 24.125 L 20.03125 24 L 21.96875 24 L 22 24.125 L 22 25 L 24 25 L 24 24 L 24 23.84375 L 23.9375 23.6875 L 22 17.6875 L 21.78125 17 L 21.0625 17 L 20.9375 17 L 20.21875 17 z M 21 21.0625 L 21.3125 22 L 20.6875 22 L 21 21.0625 z" fill="#000000"/></svg>
