<?xml version="1.0" encoding="utf-8"?>
<svg xmlns="http://www.w3.org/2000/svg" viewBox="0 0 32 32" fill="#000000"><path style="text-indent:0;text-align:start;line-height:normal;text-transform:none;block-progression:tb;-inkscape-font-specification:Bitstream Vera Sans" d="M 16.78125 4.03125 L 8.875 5.03125 L 8 5.125 L 8 6.03125 L 8 26.03125 L 8 26.90625 L 8.875 27 L 16.78125 28 L 16.84375 28 L 16.90625 28 L 17 28 L 18 28 L 18 27 L 18 5.03125 L 18 4.03125 L 17 4.03125 L 16.90625 4.03125 L 16.84375 4.03125 L 16.78125 4.03125 z M 19 5 L 19 7 L 22 7 L 22 25 L 19 25 L 19 27 L 23 27 L 24 27 L 24 26 L 24 6 L 24 5 L 23 5 L 19 5 z M 16 6.125 L 16 25.875 L 10 25.125 L 10 6.875 L 16 6.125 z M 4.1875 11.5 C 3.4383402 12.767367 3 14.346855 3 16.03125 C 3 17.715645 3.4379277 19.264335 4.1875 20.53125 L 5.90625 19.5 C 5.3518223 18.562915 5 17.368855 5 16.03125 C 5 14.693645 5.3514098 13.469883 5.90625 12.53125 L 4.1875 11.5 z M 27.8125 11.5 L 26.09375 12.53125 C 26.648178 13.468335 27 14.693645 27 16.03125 C 27 17.368855 26.648178 18.562915 26.09375 19.5 L 27.8125 20.53125 C 28.562072 19.264335 29 17.715645 29 16.03125 C 29 14.346855 28.562072 12.766915 27.8125 11.5 z M 14.5 16 C 14.223858 16 14 16.447715 14 17 C 14 17.552285 14.223858 18 14.5 18 C 14.776142 18 15 17.552285 15 17 C 15 16.447715 14.776142 16 14.5 16 z" overflow="visible" font-family="Bitstream Vera Sans" fill="#000000"/></svg>
