<?xml version="1.0" encoding="utf-8"?>
<svg xmlns="http://www.w3.org/2000/svg" viewBox="0 0 32 32" fill="#000000"><path style="text-indent:0;text-align:start;line-height:normal;text-transform:none;block-progression:tb;-inkscape-font-specification:Sans" d="M 10.4375 5 L 10.15625 5.5 C 10.15625 5.5 7 10.717163 7 18 L 7 19 L 7.0625 19 C 7.568812 23.483743 11.384314 27 16 27 C 20.615686 27 24.431188 23.483743 24.9375 19 L 25 19 L 25 18 C 25 10.719081 21.84375 5.5 21.84375 5.5 L 21.5625 5 L 21 5 L 11 5 L 10.4375 5 z M 11.625 7 L 20.375 7 C 20.728189 7.6249852 22.652341 11.359244 22.90625 17 L 9.09375 17 C 9.3476508 11.357824 11.271822 7.62472 11.625 7 z M 15 9 L 15 11 L 13 11 L 13 13 L 15 13 L 15 15 L 17 15 L 17 13 L 19 13 L 19 11 L 17 11 L 17 9 L 15 9 z M 9.09375 19 L 22.90625 19 C 22.420574 22.396992 19.535296 25 16 25 C 12.464704 25 9.579426 22.396992 9.09375 19 z" overflow="visible" font-family="Sans" fill="#000000"/></svg>
