<?xml version="1.0" encoding="utf-8"?>
<svg xmlns="http://www.w3.org/2000/svg" viewBox="0 0 32 32" fill="#000000"><path style="line-height:normal;text-indent:0;text-align:start;text-decoration-line:none;text-decoration-style:solid;text-decoration-color:#000;text-transform:none;block-progression:tb;isolation:auto;mix-blend-mode:normal" d="M 3 3 L 3 4 L 3 14 L 3 18 L 3 19 L 3 29 L 29 29 L 29 18 L 29 14 L 29 3 L 3 3 z M 5 5 L 7 5 L 7 12 L 5 12 L 5 5 z M 9 5 L 11 5 L 11 12 L 9 12 L 9 5 z M 13 5 L 15 5 L 15 12 L 13 12 L 13 5 z M 17 5 L 19 5 L 19 12 L 17 12 L 17 5 z M 21 5 L 23 5 L 23 12 L 21 12 L 21 5 z M 25 5 L 27 5 L 27 12 L 25 12 L 25 5 z M 5 14 L 15 14 L 15 18 L 5 18 L 5 14 z M 17 14 L 27 14 L 27 18 L 17 18 L 17 14 z M 13 15 A 1 1 0 0 0 12 16 A 1 1 0 0 0 13 17 A 1 1 0 0 0 14 16 A 1 1 0 0 0 13 15 z M 19 15 A 1 1 0 0 0 18 16 A 1 1 0 0 0 19 17 A 1 1 0 0 0 20 16 A 1 1 0 0 0 19 15 z M 5 20 L 15 20 L 15 27 L 13 27 L 13 22 L 11 22 L 11 27 L 9 27 L 9 22 L 7 22 L 7 27 L 5 27 L 5 20 z M 17 20 L 27 20 L 27 27 L 25 27 L 25 22 L 23 22 L 23 27 L 21 27 L 21 22 L 19 22 L 19 27 L 17 27 L 17 20 z" fill="#000000"/></svg>
