<?xml version="1.0" encoding="utf-8"?>
<svg xmlns="http://www.w3.org/2000/svg" viewBox="0 0 32 32" fill="#000000"><path style="text-indent:0;text-align:start;line-height:normal;text-transform:none;block-progression:tb;-inkscape-font-specification:Bitstream Vera Sans" d="M 5 5 L 5 6 L 5 26 L 5 27 L 6 27 L 26 27 L 27 27 L 27 26 L 27 6 L 27 5 L 26 5 L 6 5 L 5 5 z M 7 7 L 25 7 L 25 25 L 7 25 L 7 7 z M 17.3125 10 L 17.0625 10.65625 L 13.9375 18.78125 L 11.90625 14.5625 L 11.625 14 L 11 14 L 9 14 L 9 16 L 10.375 16 L 13 21.4375 L 13.28125 22 L 13.90625 22 L 14.15625 22 L 14.84375 22 L 15.09375 21.34375 L 18.6875 12 L 23 12 L 23 10 L 18 10 L 17.3125 10 z" overflow="visible" font-family="Bitstream Vera Sans" fill="#000000"/></svg>
