<?xml version="1.0" encoding="utf-8"?>
<svg xmlns="http://www.w3.org/2000/svg" viewBox="0 0 32 32" fill="#000000"><path style="text-indent:0;text-align:start;line-height:normal;text-transform:none;block-progression:tb;-inkscape-font-specification:Sans" d="M 12 5 C 5.9367123 5 1 9.9367128 1 16 C 1 22.063287 5.9367123 27 12 27 C 12.68212 27 13.351822 26.932036 14 26.8125 C 14.649469 26.932509 15.313513 27 16 27 C 16.682133 27 17.351814 26.932033 18 26.8125 C 18.649469 26.932509 19.313513 27 20 27 C 26.063407 27 31 22.063407 31 16 C 31 9.9365932 26.063407 5 20 5 C 19.313513 5 18.649469 5.0674908 18 5.1875 C 17.351814 5.067967 16.682133 5 16 5 C 15.313513 5 14.649469 5.0674908 14 5.1875 C 13.351822 5.0679644 12.68212 5 12 5 z M 12 7 C 16.982407 7 21 11.017593 21 16 C 21 20.982407 16.982407 25 12 25 C 7.0175927 25 3 20.982407 3 16 C 3 11.017593 7.0175927 7 12 7 z M 19 7.53125 C 22.498062 8.7641512 25 12.072034 25 16 C 25 19.927966 22.498062 23.235849 19 24.46875 C 21.445891 22.449184 23 19.410599 23 16 C 23 12.589401 21.445891 9.5508159 19 7.53125 z M 23 7.53125 C 26.498062 8.7641512 29 12.072034 29 16 C 29 19.927966 26.498062 23.235849 23 24.46875 C 25.445879 22.449204 27 19.410666 27 16 C 27 12.589334 25.445879 9.5507957 23 7.53125 z M 11 11 C 11 12.116666 10.116666 13 9 13 L 9 15 C 9.7324447 15 10.407407 14.785944 11 14.4375 L 11 19 L 9 19 L 9 21 L 15 21 L 15 19 L 13 19 L 13 11 L 11 11 z" overflow="visible" font-family="Sans" fill="#000000"/></svg>
