<?xml version="1.0" encoding="utf-8"?>
<svg xmlns="http://www.w3.org/2000/svg" viewBox="0 0 32 32" fill="#000000"><path style="text-indent:0;text-align:start;line-height:normal;text-transform:none;block-progression:tb;-inkscape-font-specification:Sans" d="M 5 5 L 5 6 L 5 26 L 5 27 L 6 27 L 26 27 L 27 27 L 27 26 L 27 6 L 27 5 L 26 5 L 6 5 L 5 5 z M 7 7 L 25 7 L 25 25 L 7 25 L 7 7 z M 13 11 L 15 16 L 13 21 L 15 21 L 16 18.5 L 17 21 L 19 21 L 17 16 L 19 11 L 17 11 L 16 13.5 L 15 11 L 13 11 z" overflow="visible" font-family="Sans" fill="#000000"/></svg>
