<?xml version="1.0" encoding="utf-8"?>
<svg xmlns="http://www.w3.org/2000/svg" viewBox="0 0 32 32" fill="#000000"><path style="text-indent:0;text-align:start;line-height:normal;text-transform:none;block-progression:tb;-inkscape-font-specification:Bitstream Vera Sans" d="M 17.5 4.125 C 16.05592 4.9583797 15 6.7423663 15 9 L 17 9 C 17 7.3716337 17.77808 6.2916203 18.5 5.875 L 17.5 4.125 z M 9 6 C 9 7.026 9.40025 8.186 9.90625 9.125 C 10.25725 9.046 10.626 9 11 9 C 11.9 9 12.747 9.2475 13.5 9.6875 C 13.663 9.5935 13.85825 9.5145 14.03125 9.4375 C 14.03125 7.5595 10.22 7.445 9 6 z M 22 6.25 C 20.878 7.372 19.429 8.123 18 8.5 C 18.429 8.719 18.96575 9.002 19.46875 9.25 C 19.96175 9.089 20.466 9 21 9 C 21.172 9 21.333 9.0455 21.5 9.0625 C 21.508 9.0425 21.52325 9.021 21.53125 9 C 21.82225 8.26 22 7.321 22 6.25 z M 8 10 C 5.8026661 10 4 11.802666 4 14 C 4 15.247352 4.5957619 16.358319 5.5 17.09375 C 5.1882131 17.664195 5 18.305934 5 19 C 5 20.480383 5.8253674 21.777206 7.03125 22.46875 C 7.0067658 22.645599 7 22.817922 7 23 C 7 25.197334 8.8026661 27 11 27 C 11.691511 27 12.339981 26.816749 12.90625 26.5 C 13.641681 27.404238 14.752648 28 16 28 C 17.247352 28 18.358319 27.404238 19.09375 26.5 C 19.660019 26.816749 20.308489 27 21 27 C 23.197334 27 25 25.197334 25 23 C 25 22.817922 24.993234 22.645599 24.96875 22.46875 C 26.174633 21.777206 27 20.480383 27 19 C 27 18.305934 26.811787 17.664195 26.5 17.09375 C 27.404238 16.358319 28 15.247352 28 14 C 28 11.802666 26.197334 10 24 10 C 23.488753 10 23.002561 10.135232 22.5625 10.3125 C 22.0845 10.109167 21.549333 10 21 10 C 20.046913 10 19.161194 10.348192 18.46875 10.90625 C 17.782911 10.355076 16.941507 10 16 10 C 15.058493 10 14.217089 10.355076 13.53125 10.90625 C 12.838806 10.348192 11.953087 10 11 10 C 10.461214 10 9.9393221 10.116493 9.46875 10.3125 C 9.0217126 10.128919 8.5213957 10 8 10 z M 11 12 C 11.501967 12 11.936526 12.197033 12.28125 12.5 C 12.094529 12.960851 12 13.474847 12 14 C 12 14.525153 12.094529 15.039149 12.28125 15.5 C 11.936526 15.802967 11.501967 16 11 16 C 9.8833339 16 9 15.116666 9 14 C 9 12.883334 9.8833339 12 11 12 z M 16 12 C 17.116414 12 18 12.883586 18 14 C 18 15.116414 17.116414 16 16 16 C 14.883586 16 14 15.116414 14 14 C 14 12.883586 14.883586 12 16 12 z M 21 12 C 22.116666 12 23 12.883334 23 14 C 23 15.116666 22.116666 16 21 16 C 20.498033 16 20.063474 15.802967 19.71875 15.5 C 19.905471 15.039149 20 14.525153 20 14 C 20 13.474847 19.905471 12.960851 19.71875 12.5 C 20.063474 12.197033 20.498033 12 21 12 z M 7.53125 12.0625 C 7.2048289 12.640936 7 13.292909 7 14 C 7 14.707091 7.2048289 15.359064 7.53125 15.9375 C 6.6490311 15.728094 6 14.952656 6 14 C 6 13.047344 6.6490311 12.271906 7.53125 12.0625 z M 24.46875 12.0625 C 25.350969 12.271906 26 13.047344 26 14 C 26 14.952656 25.350969 15.728094 24.46875 15.9375 C 24.795171 15.359064 25 14.707091 25 14 C 25 13.292909 24.795171 12.640936 24.46875 12.0625 z M 13.53125 17.09375 C 13.834542 17.337491 14.134627 17.570713 14.5 17.71875 C 14.799945 18.066399 15 18.498916 15 19 C 15 20.116666 14.116666 21 13 21 C 11.883334 21 11 20.116666 11 19 C 11 18.616184 11.09681 18.267687 11.28125 17.96875 C 12.129399 17.908126 12.904553 17.595096 13.53125 17.09375 z M 18.46875 17.09375 C 19.090161 17.594561 19.877127 17.908592 20.71875 17.96875 C 20.90319 18.267687 21 18.616184 21 19 C 21 20.116666 20.116666 21 19 21 C 17.883334 21 17 20.116666 17 19 C 17 18.498916 17.200055 18.066399 17.5 17.71875 C 17.865373 17.570713 18.165458 17.337491 18.46875 17.09375 z M 22.78125 17.75 C 23.166061 17.884814 23.567909 18 24 18 C 24.231763 18 24.466171 17.975957 24.6875 17.9375 C 24.880102 18.247937 25 18.605135 25 19 C 25 20.116666 24.116666 21 23 21 C 22.823094 21 22.66361 20.951414 22.5 20.90625 C 22.813256 20.336748 23 19.691597 23 19 C 23 18.564922 22.911464 18.14699 22.78125 17.75 z M 9.21875 17.78125 C 9.0944355 18.169956 9 18.575326 9 19 C 9 19.691597 9.1867439 20.336748 9.5 20.90625 C 9.3363903 20.951414 9.1769056 21 9 21 C 7.8833339 21 7 20.116666 7 19 C 7 18.605135 7.1198982 18.247937 7.3125 17.9375 C 7.5338292 17.975957 7.7682374 18 8 18 C 8.4287577 18 8.8383146 17.910296 9.21875 17.78125 z M 16 21.59375 C 16.411774 22.067912 16.910593 22.447188 17.5 22.6875 C 17.812826 23.040287 18 23.492075 18 24 C 18 25.116666 17.116666 26 16 26 C 14.883334 26 14 25.116666 14 24 C 14 23.492075 14.187174 23.040287 14.5 22.6875 C 15.089407 22.447188 15.588226 22.067912 16 21.59375 z M 11 22.4375 C 11.37037 22.655278 11.754861 22.816944 12.1875 22.90625 C 12.08198 23.25822 12 23.614912 12 24 C 12 24.232966 12.054902 24.465085 12.09375 24.6875 C 11.78495 24.891503 11.403011 25 11 25 C 9.8833339 25 9 24.116666 9 23 C 9.7385184 23 10.413965 22.785844 11 22.4375 z M 21 22.4375 C 21.586035 22.785844 22.261482 23 23 23 C 23 24.116666 22.116666 25 21 25 C 20.596989 25 20.21505 24.891503 19.90625 24.6875 C 19.945098 24.465085 20 24.232966 20 24 C 20 23.614912 19.91802 23.25822 19.8125 22.90625 C 20.235791 22.81237 20.633758 22.65285 21 22.4375 z" fill="#000000"/></svg>
