<?xml version="1.0" encoding="utf-8"?>
<svg xmlns="http://www.w3.org/2000/svg" viewBox="0 0 32 32" fill="#000000"><path d="M 25.59375 2.96875 L 24.90625 3.6875 L 16.5 12.09375 L 16 11.59375 L 15.28125 12.3125 L 8.3125 19.28125 L 7.59375 20 L 8.3125 20.6875 L 9.125 21.5 L 5.78125 24.78125 L 3 29 L 7.21875 26.21875 L 10.5 22.875 L 11.3125 23.6875 L 12 24.40625 L 12.71875 23.6875 L 19.6875 16.71875 L 20.40625 16 L 19.90625 15.5 L 28.3125 7.09375 L 29.03125 6.40625 L 28.3125 5.6875 L 26.3125 3.6875 L 25.59375 2.96875 z M 25.625 5.8125 L 26.1875 6.375 L 18.46875 14.09375 L 17.90625 13.53125 L 25.625 5.8125 z M 11.28125 12.28125 L 8.28125 15.28125 L 9.71875 16.71875 L 12.71875 13.71875 L 11.28125 12.28125 z M 16 14.40625 L 17.59375 16 L 12 21.59375 L 10.40625 20 L 16 14.40625 z" fill="#000000"/></svg>
