<?xml version="1.0" encoding="utf-8"?>
<svg xmlns="http://www.w3.org/2000/svg" viewBox="0 0 32 32" fill="#000000"><path style="line-height:normal;text-indent:0;text-align:start;text-decoration-line:none;text-decoration-style:solid;text-decoration-color:#000;text-transform:none;block-progression:tb;isolation:auto;mix-blend-mode:normal" d="M 18.585938 5 L 16.585938 7 L 9 7 L 9 9.5859375 L 8.5859375 10 L 7 10 L 7 7 L 5 7 L 5 11 L 5 13.414062 L 6 14.414062 L 6 18.585938 L 5 19.585938 L 5 24 L 5 25 L 3 25 L 3 27 L 5 27 L 6 27 L 13 27 L 20.414062 27 L 22.414062 25 L 26.414062 25 L 28 23.414062 L 28 18.585938 L 26.914062 17.5 L 28 16.414062 L 28 6.5859375 L 26.414062 5 L 18.585938 5 z M 19.414062 7 L 25.585938 7 L 26 7.4140625 L 26 15.585938 L 25.585938 16 L 23 16 L 23 18 L 24.585938 18 L 26 19.414062 L 26 22.585938 L 25.585938 23 L 21.585938 23 L 19.585938 25 L 13 25 L 13 24 L 11 24 L 11 25 L 7 25 L 7 24 L 7 20.414062 L 8 19.414062 L 8 16.414062 L 9.5859375 18 L 10 18 L 10 22 L 14 22 L 14 20 L 12 20 L 12 14 L 14 14 L 14 12 L 10 12 L 10 15.585938 L 7 12.585938 L 7 12 L 9.4140625 12 L 11 10.414062 L 11 9 L 17.414062 9 L 19.414062 7 z M 15 12 L 15 16 L 13 16 L 13 18 L 15 18 L 15 22 L 19 22 L 19 20 L 17 20 L 17 14 L 19 14 L 19 12 L 15 12 z M 20 12 L 20 16 L 18 16 L 18 18 L 20 18 L 20 22 L 24 22 L 24 20 L 22 20 L 22 14 L 24 14 L 24 12 L 20 12 z" font-weight="400" font-family="sans-serif" white-space="normal" overflow="visible" fill="#000000"/></svg>
