<?xml version="1.0" encoding="utf-8"?>
<svg xmlns="http://www.w3.org/2000/svg" viewBox="0 0 32 32" fill="#000000"><path style="line-height:normal;text-indent:0;text-align:start;text-decoration-line:none;text-decoration-style:solid;text-decoration-color:#000;text-transform:none;block-progression:tb;isolation:auto;mix-blend-mode:normal" d="M 15 2 L 15 5 L 14.703125 5 L 10.078125 8 L 4.1308594 8 L 10.916016 18.175781 L 7.6914062 30 L 24.308594 30 L 23.964844 28.736328 L 21.029297 17.976562 L 22.802734 10 L 25.445312 10 C 26.063339 11.740327 26.660107 13.927674 26.828125 14.578125 L 24.445312 16.167969 L 25.554688 17.832031 L 29.140625 15.441406 L 28.970703 14.757812 C 28.970703 14.757812 27.993601 10.790267 27.109375 8.6230469 L 26.855469 8 L 22.275391 8 L 17.277344 5 L 17 5 L 17 2 L 15 2 z M 15.296875 7 L 16.722656 7 L 20.867188 9.4863281 L 19.197266 17 L 12.535156 17 L 7.8691406 10 L 10.671875 10 L 15.296875 7 z M 12.763672 19 L 19.236328 19 L 21.691406 28 L 10.308594 28 L 12.763672 19 z" font-weight="400" font-family="sans-serif" white-space="normal" overflow="visible" fill="#000000"/></svg>
