<?xml version="1.0" encoding="utf-8"?>
<svg xmlns="http://www.w3.org/2000/svg" viewBox="0 0 32 32" fill="#000000"><path style="line-height:normal;text-indent:0;text-align:start;text-decoration-line:none;text-decoration-style:solid;text-decoration-color:#000;text-transform:none;block-progression:tb;isolation:auto;mix-blend-mode:normal" d="M 22 3 L 22 7 C 20.152142 7 18.385423 7.3312809 16.734375 7.9101562 L 16.208984 6.7617188 L 17.111328 6.359375 L 16.298828 4.5332031 L 12.644531 6.1582031 L 13.457031 7.984375 L 14.380859 7.5742188 L 14.888672 8.6816406 C 13.796708 9.2272744 12.779938 9.8970761 11.847656 10.667969 L 11.060547 9.8320312 L 11.789062 9.1621094 L 10.435547 7.6894531 L 7.4902344 10.396484 L 8.84375 11.869141 L 9.5878906 11.185547 L 10.388672 12.037109 C 9.432268 13.052448 8.6106926 14.191776 7.9433594 15.429688 L 6.8632812 14.894531 L 7.3125 14.011719 L 5.53125 13.105469 L 3.7167969 16.669922 L 5.5 17.578125 L 5.9570312 16.677734 L 7.1015625 17.244141 C 6.5247138 18.736659 6.1545734 20.331522 6.0507812 22 L 4 22 L 4 28 L 28 28 L 28 3 L 22 3 z M 24 5 L 26 5 L 26 22 L 8.0507812 22 C 8.5638615 14.726758 14.594078 9 22 9 L 23 9 L 24 9 L 24 5 z M 18 11.955078 A 2 2 0 0 0 16 13.955078 A 2 2 0 0 0 17 15.685547 L 17 20 L 22 20 L 22 18 L 19 18 L 19 15.683594 A 2 2 0 0 0 20 13.955078 A 2 2 0 0 0 18 11.955078 z M 6 24 L 8 24 L 26 24 L 26 26 L 6 26 L 6 24 z" fill="#000000"/></svg>
