<?xml version="1.0" encoding="utf-8"?>
<svg xmlns="http://www.w3.org/2000/svg" viewBox="0 0 32 32" fill="#000000"><path style="line-height:normal;text-indent:0;text-align:start;text-decoration-line:none;text-decoration-style:solid;text-decoration-color:#000;text-transform:none;block-progression:tb;isolation:auto;mix-blend-mode:normal" d="M 6 3 L 6 4 L 6 29 L 26 29 L 26 3 L 6 3 z M 8 5 L 24 5 L 24 27 L 8 27 L 8 5 z M 12.570312 7 C 11.671187 7 11 7.7727929 11 8.6152344 L 11 23.384766 C 11 24.227207 11.673987 25 12.572266 25 L 19.429688 25 C 20.328814 25 21 24.226726 21 23.384766 L 21 8.6152344 C 21 7.7727929 20.326013 7 19.427734 7 L 12.570312 7 z M 13 16 L 19 16 L 19 23 L 13 23 L 13 16 z" font-weight="400" font-family="sans-serif" white-space="normal" overflow="visible" fill="#000000"/></svg>
