<?xml version="1.0" encoding="utf-8"?>
<svg xmlns="http://www.w3.org/2000/svg" viewBox="0 0 32 32" fill="#000000"><path style="text-indent:0;text-align:start;line-height:normal;text-transform:none;block-progression:tb;-inkscape-font-specification:Sans" d="M 16 4 C 9.9367128 4 5 8.9367123 5 15 C 5 18.410599 6.5541092 21.449184 9 23.46875 L 9 24 L 9 25 L 8 25 L 7 25 L 7 26 L 7 27 L 7 28 L 8 28 L 24 28 L 25 28 L 25 27 L 25 26 L 25 25 L 24 25 L 23 25 L 23 24 L 23 23.46875 C 25.445891 21.449184 27 18.410599 27 15 C 27 8.9367123 22.063287 4 16 4 z M 16 6 C 20.982407 6 25 10.017593 25 15 C 25 17.266523 24.161326 19.33138 22.78125 20.90625 C 22.338583 19.798041 21.257717 19 20 19 C 19.801613 19 19.654616 19.118466 19.46875 19.15625 C 18.913705 17.959838 17.899373 17 16.5 17 C 16.325878 17 16.167558 17.007315 16 17.03125 L 16 13 L 16 12.59375 L 15.71875 12.28125 L 14 10.5625 L 14 9 L 12 9 L 12 10.5625 L 10.28125 12.28125 L 10 12.59375 L 10 13 L 10 18 C 9.1775151 18 8.4193788 18.330621 7.875 18.875 C 7.3067649 17.702232 7 16.39619 7 15 C 7 10.017593 11.017593 6 16 6 z M 15 7 L 15 9 L 17 9 L 17 7 L 15 7 z M 18 9 L 18 11 L 20 11 L 20 9 L 18 9 z M 21 11 L 21 13 L 23 13 L 23 11 L 21 11 z M 13 12.4375 L 14 13.4375 L 14 18.375 A 1.0063276 1.0063276 0 0 0 14 18.65625 L 14 22 L 12 22 L 12 13.4375 L 13 12.4375 z M 18 13 L 18 15 L 20 15 L 20 13 L 18 13 z M 21 15 L 21 17 L 23 17 L 23 15 L 21 15 z M 16.5 19 C 17.293729 19 17.902575 19.597894 17.96875 20.375 L 19.5 21.15625 C 19.664269 21.058236 19.820556 21 20 21 C 20.56503 21 21 21.43497 21 22 L 16 22 L 16 19.09375 C 16.152243 19.03927 16.328625 19 16.5 19 z M 10 20 L 10 21.65625 C 9.6667733 21.356131 9.3170441 21.064471 9.03125 20.71875 C 9.1476573 20.295391 9.5321354 20 10 20 z" fill="#000000"/></svg>
