<?xml version="1.0" encoding="utf-8"?>
<svg xmlns="http://www.w3.org/2000/svg" viewBox="0 0 32 32" fill="#000000"><path style="text-indent:0;text-align:start;line-height:normal;text-transform:none;block-progression:tb;-inkscape-font-specification:Sans" d="M 6.1875 4 L 5 5.625 C 5 5.625 7 6.9991253 7 10.5 L 7 22 L 9 22 L 9 10.5 C 9 10.327 8.9774052 10.16613 8.96875 10 L 9 10 C 9 9.6331032 9.506527 8.3817053 10.1875 7.4375 C 10.527987 6.9653973 10.888478 6.5509467 11.1875 6.28125 C 11.290838 6.188046 11.38582 6.135471 11.46875 6.09375 C 11.549033 6.1401111 11.643649 6.2091249 11.75 6.3125 C 12.057738 6.6116276 12.431433 7.0607301 12.78125 7.5625 C 13.131067 8.0642699 13.465142 8.625554 13.6875 9.09375 C 13.909858 9.561946 14 9.9784841 14 10 L 14 17.21875 C 14 19.479785 15.419305 21.631111 17.71875 22.53125 C 17.110841 24.506839 15.243528 26 13.0625 26 L 11 26 L 11 28 L 13.0625 28 C 16.189692 28 18.857214 25.84508 19.65625 22.9375 C 19.790819 22.9454 19.892945 23 20.03125 23 L 22.25 23 C 24.681726 23 27 21.168221 27 18.46875 C 27 17.204805 26.605712 16.035544 25.78125 15.21875 C 24.956788 14.401956 23.762073 14 22.40625 14 C 20.992537 14 19.808649 14.569323 19.0625 15.46875 C 18.316351 16.368177 18 17.52494 18 18.6875 L 18 20.5 C 16.698977 19.83192 16 18.563792 16 17.21875 L 16 10 C 16 9.3495159 15.783704 8.8161165 15.5 8.21875 C 15.216296 7.6213835 14.843933 7.0204801 14.4375 6.4375 C 14.031067 5.8545199 13.599075 5.3054349 13.15625 4.875 C 12.713425 4.4445651 12.369415 4 11.5 4 C 10.693128 4 10.29004 4.4099779 9.84375 4.8125 C 9.3974597 5.2150221 8.9712635 5.7144777 8.5625 6.28125 C 8.4452259 6.4438567 8.3310532 6.6142301 8.21875 6.78125 C 7.3865067 4.9352536 6.1875 4 6.1875 4 z M 22.40625 16 C 23.382427 16 23.989962 16.274794 24.375 16.65625 C 24.760038 17.037706 25 17.595695 25 18.46875 C 25 20.043279 23.728274 21 22.25 21 L 20.03125 21 C 20.01962 21 20.01158 21.000069 20 21 L 20 18.6875 C 20 17.89406 20.215399 17.206073 20.59375 16.75 C 20.972101 16.293927 21.487963 16 22.40625 16 z" overflow="visible" font-family="Sans" fill="#000000"/></svg>
