<?xml version="1.0" encoding="utf-8"?>
<svg xmlns="http://www.w3.org/2000/svg" viewBox="0 0 32 32" fill="#000000"><path style="text-indent:0;text-align:start;line-height:normal;text-transform:none;block-progression:tb;-inkscape-font-specification:Bitstream Vera Sans" d="M 16 3.8125 L 15.4375 4.15625 L 12.6875 6 L 7 6 L 6 6 L 6 7 L 6 26 L 6 27 L 7 27 L 25 27 L 26 27 L 26 26 L 26 7 L 26 6 L 25 6 L 19.3125 6 L 16.5625 4.15625 L 16 3.8125 z M 16 6.21875 L 18.4375 7.84375 L 18.6875 8 L 19 8 L 24 8 L 24 25 L 8 25 L 8 8 L 13 8 L 13.3125 8 L 13.5625 7.84375 L 16 6.21875 z M 10 12 L 10 14 L 12 14 L 12 12 L 10 12 z M 14 12 L 14 14 L 22 14 L 22 12 L 14 12 z M 10 16 L 10 18 L 12 18 L 12 16 L 10 16 z M 14 16 L 14 18 L 22 18 L 22 16 L 14 16 z M 10 20 L 10 22 L 12 22 L 12 20 L 10 20 z M 14 20 L 14 22 L 22 22 L 22 20 L 14 20 z" fill="#000000"/></svg>
