<?xml version="1.0" encoding="utf-8"?>
<svg xmlns="http://www.w3.org/2000/svg" viewBox="0 0 32 32" fill="#000000"><path style="text-indent:0;text-align:start;line-height:normal;text-transform:none;block-progression:tb;-inkscape-font-specification:Sans" d="M 25.96875 9 L 15.53125 9.6875 C 8.7996434 10.198374 5.3973712 11.761316 3.65625 13.40625 C 2.7856894 14.228717 2.3515908 15.093141 2.15625 15.75 C 1.9807356 16.34019 2.0246316 16.744587 2.03125 16.84375 L 2 16.84375 L 2 19.71875 L 2 22 L 2 23 L 30 23 L 30 21 L 11 21 L 11 19 L 27 19 L 28 19 L 28 18 L 28 15.65625 L 29.09375 15.5625 L 30.09375 15.46875 L 30 14.4375 L 29.71875 12 C 29.717773 11.98966 29.71985 11.97905 29.71875 11.96875 C 29.529604 10.155254 27.837715 8.8691271 26 9 C 25.98934 9.0007594 25.97942 8.9991459 25.96875 9 z M 26.125 11 C 26.988558 10.93089 27.685963 11.509998 27.75 12.1875 L 27.90625 13.65625 L 9.34375 15.34375 C 8.9366717 15.135802 8.4847798 15 8 15 L 5 15 C 4.9678798 15 4.9381406 14.998976 4.90625 15 C 4.9483985 14.957268 4.9850124 14.918683 5.03125 14.875 C 6.2813788 13.693934 9.1848566 12.178626 15.65625 11.6875 L 26.125 11 z M 26 15.84375 L 26 17 L 13.28125 17 L 26 15.84375 z M 5 17 L 8 17 C 8.5545455 17 9 17.445455 9 18 L 9 21 L 4 21 L 4 18 C 4 17.445455 4.4454545 17 5 17 z" overflow="visible" font-family="Sans" fill="#000000"/></svg>
