<?xml version="1.0" encoding="utf-8"?>
<svg xmlns="http://www.w3.org/2000/svg" viewBox="0 0 32 32" fill="#000000"><path style="text-indent:0;text-align:start;line-height:normal;text-transform:none;block-progression:tb;-inkscape-font-specification:Bitstream Vera Sans" d="M 21.1875 3.9375 L 20.625 4 L 12.4375 4.9375 L 11.84375 5 L 11.625 5.5625 L 5.1875 21.09375 L 7.03125 21.875 L 13.25 6.875 L 20.3125 6.0625 L 24.71875 11.625 L 18.53125 26.625 L 20.375 27.375 L 26.8125 11.84375 L 27.03125 11.3125 L 26.65625 10.84375 L 21.53125 4.375 L 21.1875 3.9375 z M 16.15625 8.71875 L 14.875 11.875 L 20.1875 14.0625 L 21.53125 10.84375 L 20.40625 10.375 L 19.625 12.21875 L 18.5625 11.78125 L 19.25 10.125 L 18.15625 9.65625 L 17.46875 11.3125 L 16.5625 10.9375 L 17.3125 9.1875 L 16.15625 8.71875 z M 14.34375 13.09375 L 13.8125 14.375 L 17.09375 15.75 L 13.4375 15.28125 L 12.8125 16.84375 L 18.125 19.0625 L 18.65625 17.75 L 15.375 16.375 L 19.0625 16.8125 L 19.6875 15.28125 L 14.34375 13.09375 z M 12.28125 18.0625 L 11.75 19.375 L 15.03125 20.71875 L 15.03125 20.75 L 11.375 20.28125 L 10.75 21.8125 L 16.0625 24.03125 L 16.59375 22.71875 L 13.3125 21.375 L 13.3125 21.34375 L 17 21.78125 L 17.625 20.28125 L 12.28125 18.0625 z" overflow="visible" font-family="Bitstream Vera Sans" fill="#000000"/></svg>
