<?xml version="1.0" encoding="utf-8"?>
<svg xmlns="http://www.w3.org/2000/svg" viewBox="0 0 32 32" fill="#000000"><path d="M 16 4 C 14.327 4 12.854266 4.8297969 11.947266 6.0917969 C 11.634266 6.0317969 11.316047 6.0019531 10.998047 6.0019531 C 9.7190469 6.0019531 8.4408437 6.4888438 7.4648438 7.4648438 C 6.2458437 8.6828437 5.7878438 10.373266 6.0898438 11.947266 C 4.8288437 12.854266 4 14.327 4 16 C 4 17.673 4.8297969 19.145734 6.0917969 20.052734 C 5.7897969 21.626734 6.2458438 23.317156 7.4648438 24.535156 C 8.4408437 25.511156 9.72 25.998047 11 25.998047 C 11.318 25.998047 11.635219 25.968203 11.949219 25.908203 C 12.855219 27.170203 14.327 28 16 28 C 17.673 28 19.145734 27.170203 20.052734 25.908203 C 20.365734 25.968203 20.683953 25.998047 21.001953 25.998047 C 22.280953 25.998047 23.559156 25.511156 24.535156 24.535156 C 25.754156 23.316156 26.212156 21.626734 25.910156 20.052734 C 27.171156 19.145734 28 17.673 28 16 C 28 14.327 27.170203 12.854266 25.908203 11.947266 C 26.210203 10.373266 25.754156 8.6828438 24.535156 7.4648438 C 23.559156 6.4888438 22.28 6.0019531 21 6.0019531 C 20.682 6.0019531 20.364781 6.0317969 20.050781 6.0917969 C 19.144781 4.8297969 17.673 4 16 4 z M 16 6 C 16.968 6 17.853688 6.4597656 18.429688 7.2597656 L 19.175781 8.296875 L 20.429688 8.0546875 C 20.617687 8.0186875 20.810953 8.0019531 21.001953 8.0019531 C 21.802953 8.0019531 22.554094 8.3129062 23.121094 8.8789062 C 23.825094 9.5829063 24.133312 10.588313 23.945312 11.570312 L 23.705078 12.826172 L 24.742188 13.572266 C 25.541188 14.147266 26 15.032 26 16 C 26 16.968 25.540234 17.853688 24.740234 18.429688 L 23.703125 19.175781 L 23.945312 20.429688 C 24.133312 21.410688 23.826094 22.417094 23.121094 23.121094 C 22.555094 23.687094 21.802953 24 21.001953 24 C 20.810953 24 20.616687 23.981312 20.429688 23.945312 L 19.175781 23.705078 L 18.429688 24.742188 C 17.853688 25.541188 16.968 26 16 26 C 15.032 26 14.146312 25.540234 13.570312 24.740234 L 12.824219 23.703125 L 11.570312 23.945312 C 11.382312 23.981313 11.189047 23.998047 10.998047 23.998047 C 10.197047 23.998047 9.4449062 23.687094 8.8789062 23.121094 C 8.1749062 22.417094 7.8666875 21.410688 8.0546875 20.429688 L 8.296875 19.173828 L 7.2597656 18.427734 C 6.4597656 17.852734 6 16.968 6 16 C 6 15.032 6.4597656 14.146312 7.2597656 13.570312 L 8.296875 12.824219 L 8.0546875 11.570312 C 7.8666875 10.589313 8.1739062 9.5839062 8.8789062 8.8789062 C 9.4449063 8.3129062 10.197047 8 10.998047 8 C 11.189047 8 11.383313 8.0186875 11.570312 8.0546875 L 12.824219 8.2949219 L 13.570312 7.2578125 C 14.146313 6.4588125 15.032 6 16 6 z M 19.5625 13 L 15 17.5625 L 12.4375 15 L 11 16.4375 L 14.28125 19.71875 L 15 20.40625 L 15.71875 19.71875 L 21 14.4375 L 19.5625 13 z" fill="#000000"/></svg>
