<?xml version="1.0" encoding="utf-8"?>
<svg xmlns="http://www.w3.org/2000/svg" viewBox="0 0 32 32" fill="#000000"><path style="text-indent:0;text-align:start;line-height:normal;text-transform:none;block-progression:tb;-inkscape-font-specification:Bitstream Vera Sans" d="M 19.28125 6.15625 L 14.78125 10.65625 L 16.21875 12.09375 L 17.9375 10.375 L 20.46875 12.90625 L 17.65625 15 L 12.4375 15 L 9.84375 12.40625 L 9 9 L 7 9 L 7.75 12 L 7 12 C 3.6983746 12 1 14.698375 1 18 L 1 20 L 0 20 L 0 22 L 1 22 L 2 22 L 4.28125 22 C 4.7283156 23.719842 6.2718019 25 8.125 25 C 9.9781978 25 11.521684 23.719842 11.96875 22 L 20.15625 22 C 20.603316 23.719842 22.146802 25 24 25 C 25.853198 25 27.396684 23.719842 27.84375 22 L 30 22 L 31 22 L 32 22 L 32 20 L 31 20 L 31 19.40625 C 31 16.370597 28.913837 13.704728 25.96875 12.96875 L 22.53125 12.09375 L 19.375 8.9375 L 20.71875 7.59375 L 19.28125 6.15625 z M 7 14 L 8.5625 14 L 11.28125 16.71875 L 11.59375 17 L 12 17 L 18 17 L 18.34375 17 L 18.59375 16.8125 L 22.21875 14.09375 L 25.5 14.90625 C 27.564913 15.422272 29 17.277903 29 19.40625 L 29 20 L 27.84375 20 C 27.396684 18.280158 25.853198 17 24 17 C 22.146802 17 20.603316 18.280158 20.15625 20 L 11.96875 20 C 11.521684 18.280158 9.9781978 17 8.125 17 C 6.2718019 17 4.7283156 18.280158 4.28125 20 L 3 20 L 3 18 C 3 15.779625 4.7796254 14 7 14 z M 8.125 19 C 9.241414 19 10.125 19.883586 10.125 21 C 10.125 22.116414 9.241414 23 8.125 23 C 7.008586 23 6.125 22.116414 6.125 21 C 6.125 19.883586 7.008586 19 8.125 19 z M 24 19 C 25.116414 19 26 19.883586 26 21 C 26 22.116414 25.116414 23 24 23 C 22.883586 23 22 22.116414 22 21 C 22 19.883586 22.883586 19 24 19 z" fill="#000000"/></svg>
