<?xml version="1.0" encoding="utf-8"?>
<svg xmlns="http://www.w3.org/2000/svg" viewBox="0 0 32 32" fill="#000000"><path style="line-height:normal;text-indent:0;text-align:start;text-decoration-line:none;text-decoration-style:solid;text-decoration-color:#000;text-transform:none;block-progression:tb;isolation:auto;mix-blend-mode:normal" d="M 21.841797 4.0449219 C 20.890999 4.0508551 19.843023 4.113549 18.714844 4.2597656 C 15.425898 4.6853817 12.127483 5.6584764 10.050781 6.7011719 C 7.3932575 8.035547 5.8057769 9.1288914 4.8183594 9.9863281 C 3.8309418 10.843765 3.3902289 11.574527 3.2949219 11.71875 L 3.2949219 11.720703 C 2.9962806 12.173721 2.980149 12.624801 3.0078125 13.013672 C 3.0354765 13.402543 3.1261711 13.766596 3.234375 14.113281 C 3.4505642 14.805952 3.7508228 15.431104 3.9160156 15.763672 C 4.4270616 16.799038 5.5127953 17.298321 6.4902344 16.853516 L 6.4921875 16.853516 L 6.4941406 16.853516 C 6.6960857 16.760766 6.8839085 16.651849 7.2070312 16.472656 C 7.5301541 16.293464 7.9281412 16.068309 8.3300781 15.841797 C 9.133952 15.388773 9.9882558 14.907055 10.152344 14.820312 L 10.154297 14.820312 L 10.154297 14.818359 C 10.956774 14.391624 11.155265 13.663032 11.3125 12.914062 L 11.310547 12.916016 C 11.398677 12.497867 11.486046 11.742058 11.609375 10.757812 C 11.730807 9.7887037 11.85647 8.7377596 11.929688 8.125 C 13.599285 7.4249989 15.881135 6.7590381 18.298828 6.3828125 C 18.392548 6.5042769 18.84201 7.0856412 19.449219 7.8613281 C 20.116448 8.7136901 20.812944 9.6027865 21.171875 10.001953 L 21.173828 10.001953 C 21.68213 10.566214 22.301229 11 23 11 L 27 11 C 27.678722 11 28.407466 10.695672 28.738281 10.136719 C 29.069096 9.5777653 29.026235 9.0657109 28.992188 8.6523438 L 28.992188 8.6503906 C 28.961312 8.2820283 28.894445 7.5901245 28.720703 6.8847656 C 28.633832 6.5320862 28.521486 6.1735207 28.34375 5.8261719 C 28.166014 5.478823 27.920055 5.1017553 27.433594 4.8671875 C 26.816252 4.5699176 25.86773 4.3359924 24.386719 4.171875 C 23.646213 4.0898163 22.792594 4.0389887 21.841797 4.0449219 z M 7.3378906 4.1445312 C 5.5605442 5.1471107 4.2811928 6.0509933 3.3417969 6.8457031 L 4.6328125 8.3730469 C 5.4594165 7.6737567 6.6356121 6.8381394 8.3222656 5.8867188 L 7.3378906 4.1445312 z M 23.425781 6.1191406 C 23.694868 6.1230932 23.944559 6.1356157 24.166016 6.1601562 C 25.44511 6.3018985 26.34135 6.5842361 26.509766 6.6542969 C 26.520243 6.6677453 26.537362 6.6853394 26.564453 6.7382812 C 26.632843 6.8719325 26.713715 7.1049608 26.777344 7.3632812 C 26.904602 7.8799224 26.970921 8.4947185 26.998047 8.8183594 C 27.004871 8.9046979 26.999253 8.9458764 26.996094 9 L 23 9 C 23.01672 9 23.02062 9.063856 22.660156 8.6640625 C 22.457087 8.4382293 21.685208 7.4742944 21.023438 6.6289062 C 20.853629 6.4119823 20.853015 6.4099509 20.701172 6.2148438 C 21.634919 6.1718531 22.618521 6.1072829 23.425781 6.1191406 z M 9.7832031 9.2167969 C 9.7277619 9.6730249 9.6844177 10.033621 9.625 10.507812 C 9.5025787 11.484819 9.3573341 12.493102 9.3554688 12.501953 L 9.3535156 12.503906 C 9.2487511 13.002937 9.0103669 13.16147 9.2148438 13.052734 C 8.9243856 13.206331 8.1481452 13.648493 7.3476562 14.099609 C 6.9470932 14.325347 6.5512053 14.548036 6.2363281 14.722656 C 5.9884447 14.860124 5.8540165 14.929824 5.78125 14.96875 C 5.7591874 14.953715 5.7334719 14.928518 5.7089844 14.878906 L 5.7089844 14.876953 L 5.7070312 14.876953 C 5.5631104 14.587261 5.3011703 14.025707 5.1425781 13.517578 C 5.063282 13.263513 5.0125396 13.021863 5.0019531 12.873047 C 4.9970725 12.804439 5.0051919 12.770627 5.0078125 12.757812 C 5.1964257 12.464837 5.3621029 12.165606 6.1308594 11.498047 C 6.7528526 10.957931 8.233565 10.088534 9.7832031 9.2167969 z M 13 11 L 13 13.542969 C 12.652491 13.79683 11.400985 14.684953 9.7929688 16.292969 C 7.975625 18.110312 6 20.416667 6 23 L 6 28 L 10.414062 28 L 11.414062 27 L 22.585938 27 L 23.585938 28 L 28 28 L 28 23 C 28 20.416667 26.024375 18.110312 24.207031 16.292969 C 22.599015 14.684953 21.347509 13.79683 21 13.542969 L 21 11 L 18 11 L 18 12 L 16 12 L 16 11 L 13 11 z M 24 12 L 24 14 L 28 14 L 28 12 L 24 12 z M 4.9746094 12.804688 C 4.9687735 12.814676 4.9738862 12.808549 4.9648438 12.822266 L 4.9628906 12.822266 C 4.9664005 12.816954 4.9711339 12.809992 4.9746094 12.804688 z M 15 14 L 19 14 L 19 14.513672 L 19.417969 14.814453 C 19.417969 14.814453 21.110312 16.024375 22.792969 17.707031 C 24.475625 19.389688 26 21.583333 26 23 L 26 26 L 24.414062 26 L 23.414062 25 L 23 25 L 10.585938 25 L 9.5859375 26 L 8 26 L 8 23 C 8 21.583333 9.5243752 19.389688 11.207031 17.707031 C 12.889688 16.024375 14.582031 14.814453 14.582031 14.814453 L 15 14.513672 L 15 14 z M 13 18 L 13 20 L 15 20 L 15 18 L 13 18 z M 16 18 L 16 20 L 18 20 L 18 18 L 16 18 z M 19 18 L 19 20 L 21 20 L 21 18 L 19 18 z M 13 21 L 13 23 L 15 23 L 15 21 L 13 21 z M 16 21 L 16 23 L 18 23 L 18 21 L 16 21 z M 19 21 L 19 23 L 21 23 L 21 21 L 19 21 z" fill="#000000"/></svg>
