<?xml version="1.0" encoding="utf-8"?>
<svg xmlns="http://www.w3.org/2000/svg" viewBox="0 0 32 32" fill="#000000"><path d="M 16 4 L 11.34375 11 L 15 11 L 15 23 L 17 23 L 17 11 L 20.65625 11 L 16 4 z M 13 18.15625 C 8.169 18.63525 4 20.272 4 23 C 4 26.283 10.037 28 16 28 C 21.963 28 28 26.283 28 23 C 28 20.272 23.831 18.63525 19 18.15625 L 19 20.15625 C 23.299 20.62125 26 22.018 26 23 C 26 24.194 22.012 26 16 26 C 9.988 26 6 24.194 6 23 C 6 22.018 8.701 20.62225 13 20.15625 L 13 18.15625 z" fill="#000000"/></svg>
