<?xml version="1.0" encoding="utf-8"?>
<svg xmlns="http://www.w3.org/2000/svg" viewBox="0 0 32 32" fill="#000000"><path style="text-indent:0;text-align:start;line-height:normal;text-transform:none;block-progression:tb;-inkscape-font-specification:Bitstream Vera Sans" d="M 3 7 L 3 8 L 3 24 L 3 25 L 4 25 L 28 25 L 29 25 L 29 24 L 29 8 L 29 7 L 28 7 L 4 7 L 3 7 z M 5 9 L 27 9 L 27 23 L 5 23 L 5 9 z M 13.78125 11.28125 L 9.78125 15.28125 L 9.09375 16 L 9.78125 16.71875 L 13.78125 20.71875 L 15.21875 19.28125 L 12.9375 17 L 22 17 L 22 15 L 12.9375 15 L 15.21875 12.71875 L 13.78125 11.28125 z" overflow="visible" font-family="Bitstream Vera Sans" fill="#000000"/></svg>
