<?xml version="1.0" encoding="utf-8"?>
<svg xmlns="http://www.w3.org/2000/svg" viewBox="0 0 32 32" fill="#000000"><path style="text-indent:0;text-align:start;line-height:normal;text-transform:none;block-progression:tb;-inkscape-font-specification:Sans" d="M 11.59375 3 L 11.28125 3.28125 L 8.3125 6.25 L 8.28125 6.28125 C 8.0514806 6.4089289 7.6953276 6.5987147 7.21875 6.9375 C 6.5191277 7.4348414 5.7026942 8.0858253 5.15625 8.96875 C 4.940007 9.3178385 4.8894922 9.5668908 4.8125 9.90625 C 4.7355078 10.245609 4.6566935 10.656943 4.59375 11.09375 C 4.467863 11.967365 4.3705337 13.017558 4.28125 14.03125 C 4.1026826 16.058634 4 17.9375 4 17.9375 L 4 17.96875 L 4 18 L 4 24 L 4 25 L 5 25 L 8 25 L 8 28 L 8 29 L 9 29 L 23 29 L 24 29 L 24 28 L 24 25 L 27 25 L 28 25 L 28 24 L 28 18 L 28 17.96875 L 28 17.9375 C 28 17.9375 27.897317 16.058634 27.71875 14.03125 C 27.62947 13.017558 27.532137 11.967365 27.40625 11.09375 C 27.343307 10.656943 27.264492 10.245609 27.1875 9.90625 C 27.110508 9.5668908 27.059993 9.3178385 26.84375 8.96875 C 26.296961 8.0863548 25.48069 7.4348077 24.78125 6.9375 C 24.304797 6.5987376 23.948561 6.4089365 23.71875 6.28125 L 23.6875 6.25 L 20.71875 3.28125 L 20.40625 3 L 20 3 L 16 3 L 12 3 L 11.59375 3 z M 13.875 5 L 16 5 L 18.125 5 L 16 8.1875 L 13.875 5 z M 11.84375 5.59375 L 13.28125 7.75 L 10.75 6.6875 L 11.84375 5.59375 z M 20.15625 5.59375 L 21.25 6.6875 L 18.71875 7.78125 L 20.15625 5.59375 z M 10 8.5 L 15 10.65625 L 15 17 L 11 17 L 11 19 L 15 19 L 15 23 L 11 23 L 11 25 L 15 25 L 15 27 L 10 27 L 10 8.5 z M 22 8.53125 L 22 17 L 18 17 L 18 19 L 22 19 L 22 23 L 18 23 L 18 25 L 22 25 L 22 27 L 17 27 L 17 10.65625 L 22 8.53125 z M 8 8.875 L 8 15 L 6.21875 15 C 6.2490684 14.612852 6.2445589 14.604076 6.28125 14.1875 C 6.3687163 13.194442 6.4771995 12.183823 6.59375 11.375 C 6.6520253 10.970589 6.6921875 10.59857 6.75 10.34375 C 6.7846875 10.190858 6.8228285 10.080431 6.84375 10.03125 C 6.8611857 10.003103 6.8760033 9.9958885 6.875 10 C 7.0916727 9.667209 7.5396524 9.2466773 8 8.875 z M 24 8.875 C 24.475182 9.2586732 24.947417 9.6942409 25.15625 10.03125 C 25.177172 10.080431 25.215314 10.190858 25.25 10.34375 C 25.30781 10.59857 25.34798 10.970589 25.40625 11.375 C 25.522801 12.183823 25.631284 13.194442 25.71875 14.1875 C 25.755441 14.604076 25.750932 14.612852 25.78125 15 L 24 15 L 24 8.875 z M 6.0625 17 L 8 17 L 8 19 L 6 19 L 6 18.0625 L 6 18 C 6.0008499 17.984592 6.0482058 17.225976 6.0625 17 z M 24 17 L 25.9375 17 C 25.951794 17.225976 25.99915 17.984592 26 18 C 26.000053 18.000959 26 18.0625 26 18.0625 L 26 19 L 24 19 L 24 17 z M 6 21 L 8 21 L 8 23 L 6 23 L 6 21 z M 24 21 L 26 21 L 26 23 L 24 23 L 24 21 z" fill="#000000"/></svg>
