<?xml version="1.0" encoding="utf-8"?>
<svg xmlns="http://www.w3.org/2000/svg" viewBox="0 0 32 32" fill="#000000"><path style="text-indent:0;text-align:start;line-height:normal;text-transform:none;block-progression:tb;-inkscape-font-specification:Bitstream Vera Sans" d="M 9 4 L 9 5 L 9 27 L 9 28 L 10 28 L 22 28 L 23 28 L 23 27 L 23 5 L 23 4 L 22 4 L 10 4 L 9 4 z M 11 6 L 21 6 L 21 22 L 11 22 L 11 6 z M 15.90625 7.96875 A 1.0001 1.0001 0 0 0 15.78125 8 A 1.0001 1.0001 0 0 0 15 9 L 15 19 A 1.0001 1.0001 0 1 0 17 19 L 17 9 A 1.0001 1.0001 0 0 0 15.90625 7.96875 z M 11 24 L 21 24 L 21 26 L 11 26 L 11 24 z" overflow="visible" font-family="Bitstream Vera Sans" fill="#000000"/></svg>
