<?xml version="1.0" encoding="utf-8"?>
<svg xmlns="http://www.w3.org/2000/svg" viewBox="0 0 32 32" fill="#000000"><path d="M 6.0078125 4 C 4.8461164 4 3.9967507 5.0320722 4.0058594 6.0996094 C 4.0322464 10.057704 6.2862023 11.984066 7.5585938 12.652344 L 7.5605469 12.654297 C 8.1340017 12.954326 8.7932301 13.065868 9.4394531 12.962891 L 9.4726562 12.958984 L 12.830078 12.191406 L 12.841797 12.189453 C 13.980256 11.97139 14.785344 11.932953 15.615234 12.164062 C 15.948404 12.25667 16.316226 12.506909 16.658203 12.783203 C 16.131229 13.090832 15.876817 13.554279 16.054688 14.087891 L 16.449219 15.267578 C 16.601013 15.72296 16.956535 15.922855 17.447266 15.978516 C 17.427243 16.007538 17.413188 16.033052 17.392578 16.0625 L 17.390625 16.0625 C 16.916287 16.741455 16.83351 17.730645 17.423828 18.464844 C 17.956841 19.129841 18.59146 19.27133 19.089844 19.490234 C 19.588227 19.709139 19.98799 19.926529 20.300781 20.318359 C 20.762284 20.896333 20.928147 21.289618 20.978516 21.546875 C 21.028886 21.804132 20.997814 21.964355 20.896484 22.230469 C 20.693877 22.762641 20 23.634833 20 25 C 20 25.412712 20.0884 26.225401 20.726562 26.904297 C 21.364729 27.583193 22.436583 28 24 28 L 25 28 C 26.754332 28 28.005181 26.340074 28.003906 24.480469 C 28.003273 23.636243 27.760379 22.577333 27.419922 21.259766 C 27.079265 19.941425 26.627979 18.42672 26.164062 16.958984 C 25.700146 15.491249 25.224227 14.07323 24.839844 12.960938 C 24.45546 11.848643 24.184841 11.09429 24.048828 10.767578 L 24.048828 10.765625 C 24.022528 10.702615 24.003098 10.55033 24.017578 10.472656 C 24.023643 10.440122 24.023989 10.434564 24.023438 10.431641 C 24.198751 10.332872 24.597997 10.1374 24.992188 9.8632812 C 25.194252 9.7228141 25.40059 9.5611061 25.595703 9.328125 C 25.790816 9.0951439 26 8.7527227 26 8.2949219 L 26 6 C 26 5.5833333 25.877433 5.1434346 25.617188 4.8085938 C 25.356942 4.4737528 25.005127 4.2805294 24.691406 4.1757812 C 24.063965 3.966285 23.503359 4 23.005859 4 L 6.0078125 4 z M 6.0078125 6 L 23.005859 6 C 23.475677 6 23.853197 6.0329236 24 6.0703125 L 24 8.0957031 C 23.981122 8.1133533 23.945932 8.1393538 23.921875 8.1601562 L 12.476562 10.222656 C 12.472595 10.223413 12.468813 10.223849 12.464844 10.224609 L 12.447266 10.228516 L 9.125 10.988281 C 9.125 10.988281 9.1230469 10.988281 9.1230469 10.988281 C 8.9039502 11.022781 8.6902217 10.988467 8.4882812 10.882812 C 7.6586695 10.44709 6.0274721 9.3278429 6.0058594 6.0859375 L 6.0058594 6.0839844 C 6.0049681 5.9795185 5.9935086 6 6.0078125 6 z M 22.009766 10.537109 C 22.004132 10.88526 22.069134 11.218755 22.201172 11.535156 C 22.259162 11.674444 22.570071 12.516138 22.949219 13.613281 C 23.328367 14.710425 23.798651 16.114032 24.255859 17.560547 C 24.713068 19.007061 25.158251 20.499622 25.484375 21.761719 C 25.810499 23.023815 26.003756 24.118893 26.003906 24.482422 C 26.004678 25.540816 25.503668 26 25 26 L 24 26 C 22.775417 26 22.348427 25.708557 22.183594 25.533203 C 22.01876 25.357849 22 25.170288 22 25 C 22 24.365167 22.399785 23.904132 22.765625 22.943359 C 22.948545 22.462973 23.0731 21.83668 22.941406 21.164062 C 22.809713 20.491446 22.457732 19.81234 21.865234 19.070312 C 21.248026 18.297144 20.471898 17.913752 19.894531 17.660156 C 19.337056 17.415297 19.030966 17.23289 19.015625 17.228516 C 19.01956 17.223416 19.021008 17.223645 19.03125 17.208984 C 19.300416 16.82439 19.713146 16.267811 19.90625 15.492188 C 20.099354 14.716563 19.99075 13.731498 19.40625 12.794922 C 19.125713 12.345314 18.669845 11.764592 18.048828 11.251953 L 22.009766 10.537109 z M 5 19 L 5 27 L 7 27 L 7 19 L 5 19 z M 8 19 L 8 27 L 9 27 L 9 19 L 8 19 z M 10 19 L 10 27 L 12 27 L 12 19 L 10 19 z M 13 19 L 13 27 L 15 27 L 15 19 L 13 19 z" fill="#000000"/></svg>
