<?xml version="1.0" encoding="utf-8"?>
<svg xmlns="http://www.w3.org/2000/svg" viewBox="0 0 32 32" fill="#000000"><path d="M 16 3 A 2 2 0 0 0 14 5 A 2 2 0 0 0 15 6.7285156 L 15 9 L 17 9 L 17 6.7304688 A 2 2 0 0 0 18 5 A 2 2 0 0 0 16 3 z M 5 7 A 2 2 0 0 0 3 9 A 2 2 0 0 0 5 11 A 2 2 0 0 0 5.7246094 10.861328 L 8 12.283203 L 8 10 L 8 9.9257812 L 6.9765625 9.2871094 A 2 2 0 0 0 7 9 A 2 2 0 0 0 5 7 z M 27 7 A 2 2 0 0 0 25 9 A 2 2 0 0 0 25.023438 9.2871094 L 24 9.9257812 L 24 12.283203 L 26.273438 10.863281 A 2 2 0 0 0 26.275391 10.863281 A 2 2 0 0 0 27 11 A 2 2 0 0 0 29 9 A 2 2 0 0 0 27 7 z M 9 10 L 9 11 L 9 22 L 22.998047 22 L 22.998047 10 L 9 10 z M 11 12 L 20.998047 12 L 20.998047 20 L 11 20 L 11 12 z M 14 13 A 1.0001 1.0001 0 1 0 14 15 L 18 15 A 1.0001 1.0001 0 1 0 18 13 L 14 13 z M 8 19.923828 L 5.9199219 21.224609 A 2 2 0 0 0 5 21 A 2 2 0 0 0 3 23 A 2 2 0 0 0 5 25 A 2 2 0 0 0 7 23 A 2 2 0 0 0 6.9960938 22.908203 L 8 22.28125 L 8 22 L 8 19.923828 z M 24 19.923828 L 24 22.28125 L 25.003906 22.908203 A 2 2 0 0 0 25 23 A 2 2 0 0 0 27 25 A 2 2 0 0 0 29 23 A 2 2 0 0 0 27 21 A 2 2 0 0 0 26.082031 21.224609 L 24 19.923828 z M 15 23 L 15 25.271484 A 2 2 0 0 0 14 27 A 2 2 0 0 0 16 29 A 2 2 0 0 0 18 27 A 2 2 0 0 0 17 25.269531 L 17 23 L 15 23 z" fill="#000000"/></svg>
