<?xml version="1.0" encoding="utf-8"?>
<svg xmlns="http://www.w3.org/2000/svg" viewBox="0 0 32 32" fill="#000000"><path d="M 16 3 C 10.334 3 5 11.45 5 18 C 5 24.58 9.42 29 16 29 C 22.58 29 27 24.58 27 18 C 27 11.589 21.562 3 16 3 z M 16 5 C 19.332 5 22.82425 9.486 24.28125 14 L 7.6875 14 C 9.1785 9.332 12.862 5 16 5 z M 7.1875 16 L 24.8125 16 C 24.8735 16.339 24.9055 16.67 24.9375 17 C 23.8595 17.028 23 17.915 23 19 C 23 19.975 23.701 20.79275 24.625 20.96875 C 24.527 21.33275 24.41325 21.673 24.28125 22 L 7.75 22 C 7.61 21.666 7.50825 21.33075 7.40625 20.96875 C 8.32125 20.78575 9 19.968 9 19 C 9 17.914 8.1415 17.028 7.0625 17 C 7.0925 16.667 7.1295 16.337 7.1875 16 z M 16 17 C 14.895431 17 14 17.895431 14 19 C 14 20.104569 14.895431 21 16 21 C 17.104569 21 18 20.104569 18 19 C 18 17.895431 17.104569 17 16 17 z M 8.96875 24 L 23.09375 24 C 21.33875 26.133 18.621 27 16 27 C 12.963 27 10.53875 25.907 8.96875 24 z" fill="#000000"/></svg>
