<?xml version="1.0" encoding="utf-8"?>
<svg xmlns="http://www.w3.org/2000/svg" viewBox="0 0 32 32" fill="#000000"><path style="line-height:normal;text-indent:0;text-align:start;text-decoration-line:none;text-decoration-style:solid;text-decoration-color:#000;text-transform:none;block-progression:tb;isolation:auto;mix-blend-mode:normal" d="M 16 3 C 14.149665 3 12.5944 4.2841988 12.144531 6 L 3 6 L 3 26 L 17 26 L 18 26 L 19.4375 26 C 19.2125 25.367 19.072391 24.697 19.025391 24 L 18 24 L 17 24 L 5 24 L 5 19 L 19 19 L 20.513672 19 C 21.123672 18.19 21.890437 17.508 22.773438 17 L 19 17 L 5 17 L 5 8 L 27 8 L 27 14 L 27 16.025391 C 27.697 16.072391 28.367 16.2125 29 16.4375 L 29 13 L 29 6 L 19.855469 6 C 19.4056 4.2841988 17.850335 3 16 3 z M 16 5 C 16.748564 5 17.385469 5.4019074 17.728516 6 L 14.271484 6 C 14.614531 5.4019074 15.251436 5 16 5 z M 16 14 A 1 1 0 0 0 15 15 A 1 1 0 0 0 16 16 A 1 1 0 0 0 17 15 A 1 1 0 0 0 16 14 z M 26.5 18 C 23.5 18 21 20.5 21 23.5 C 21 24.7 21.4 25.699609 22 26.599609 L 18.300781 30.300781 L 19.699219 31.699219 L 23.400391 28 C 24.300391 28.6 25.4 29 26.5 29 C 29.5 29 32 26.5 32 23.5 C 32 20.5 29.5 18 26.5 18 z M 26.5 20 C 28.4 20 30 21.6 30 23.5 C 30 25.4 28.4 27 26.5 27 C 24.6 27 23 25.4 23 23.5 C 23 21.6 24.6 20 26.5 20 z" font-weight="400" font-family="sans-serif" white-space="normal" overflow="visible" fill="#000000"/></svg>
