<?xml version="1.0" encoding="utf-8"?>
<svg xmlns="http://www.w3.org/2000/svg" viewBox="0 0 32 32" fill="#000000"><path style="text-indent:0;text-align:start;line-height:normal;text-transform:none;block-progression:tb;-inkscape-font-specification:Sans" d="M 9.59375 4 L 9.28125 4.28125 L 6.28125 7.28125 L 6 7.59375 L 6 8 L 6 26.125 C 3.9217626 26.601235 2.65625 27.0625 2.65625 27.0625 L 3.34375 28.9375 C 3.34375 28.9375 8.6941578 27 16 27 C 23.305842 27 28.65625 28.9375 28.65625 28.9375 L 29.34375 27.0625 C 29.34375 27.0625 28.078237 26.601235 26 26.125 L 26 8 L 26 7.59375 L 25.71875 7.28125 L 22.71875 4.28125 L 22.40625 4 L 22 4 L 10 4 L 9.59375 4 z M 10.4375 6 L 21.5625 6 L 24 8.4375 L 24 25.75 C 21.802019 25.352165 19.075526 25 16 25 C 12.924474 25 10.197981 25.352165 8 25.75 L 8 8.4375 L 10.4375 6 z M 9 11 L 9 12 L 9 19 L 11 19 L 11 16 L 12 19 L 14 19 L 12.875 15.59375 C 13.559476 15.145217 14 14.370145 14 13.5 C 14 12.130937 12.869063 11 11.5 11 L 10 11 L 9 11 z M 15 11 L 15 19 L 17 19 L 17 11 L 15 11 z M 18 11 L 18 12 L 18 19 L 20 19 L 20 17 C 21.64497 17 23 15.64497 23 14 C 23 12.35503 21.64497 11 20 11 L 19 11 L 18 11 z M 11 13 L 11.5 13 C 11.786937 13 12 13.213063 12 13.5 C 12 13.786937 11.786937 14 11.5 14 L 11 14 L 11 13 z M 20 13 C 20.56503 13 21 13.43497 21 14 C 21 14.56503 20.56503 15 20 15 L 20 13 z" overflow="visible" font-family="Sans" fill="#000000"/></svg>
