<?xml version="1.0" encoding="utf-8"?>
<svg xmlns="http://www.w3.org/2000/svg" viewBox="0 0 32 32" fill="#000000"><path d="M 3 4 L 6 5 L 6 22 L 3 23 L 12.5 23 C 12.630706 23 12.836848 22.998368 13 23 L 13 27 L 10 28 L 19.5 28 C 21.722 28 29 28.5625 29 18.5625 C 29 10.495019 24.367617 9.2538619 21.34375 9.0625 C 19.528186 3.7154585 14.397938 4 12.5 4 L 3 4 z M 9.0625 5 L 13.125 5 C 14.780027 5 17.41205 4.8849401 18.5 9 L 10 9 L 13 10 L 13 22 L 9.0625 22 L 9.0625 5 z M 16.0625 10 L 18.71875 10 C 18.891831 10.986793 19 12.146149 19 13.5625 C 19 18.866245 17.617261 20.830159 16.0625 21.5625 L 16.0625 10 z M 21.625 10.0625 C 23.659003 10.308885 26 11.617036 26 18.5625 C 26 27.3495 22.246 27 20.125 27 L 16.0625 27 L 16.0625 22.75 C 18.85188 22.149757 22 20.15041 22 13.5625 C 22 12.208333 21.858185 11.060889 21.625 10.0625 z" fill="#000000"/></svg>
