<?xml version="1.0" encoding="utf-8"?>
<svg xmlns="http://www.w3.org/2000/svg" viewBox="0 0 32 32" fill="#000000"><path style="text-indent:0;text-align:start;line-height:normal;text-transform:none;block-progression:tb;-inkscape-font-specification:Bitstream Vera Sans" d="M 6 3 L 6 4 L 6 10 L 8 10 L 8 5 L 24 5 L 24 10 L 26 10 L 26 4 L 26 3 L 25 3 L 7 3 L 6 3 z M 8 12 L 8 13 L 8 19 L 8 20 L 9 20 L 10 20 C 11.645455 20 13 18.645455 13 17 L 13 15 C 13 13.354545 11.645455 12 10 12 L 9 12 L 8 12 z M 15 12 L 15 19 L 15 20 L 16 20 L 19 20 L 19 18 L 17 18 L 17 12 L 15 12 z M 21 12 L 21 19 L 21 20 L 22 20 L 25 20 L 25 18 L 23 18 L 23 12 L 21 12 z M 10 14 C 10.554545 14 11 14.445455 11 15 L 11 17 C 11 17.554545 10.554545 18 10 18 L 10 14 z M 6 22 L 6 28 L 6 29 L 7 29 L 25 29 L 26 29 L 26 28 L 26 22 L 24 22 L 24 27 L 8 27 L 8 22 L 6 22 z" overflow="visible" font-family="Bitstream Vera Sans" fill="#000000"/></svg>
