<?xml version="1.0" encoding="utf-8"?>
<svg xmlns="http://www.w3.org/2000/svg" viewBox="0 0 32 32" fill="#000000"><path style="text-indent:0;text-align:start;line-height:normal;text-transform:none;block-progression:tb;-inkscape-font-specification:Sans" d="M 16 3 C 14.907275 3 14 3.9072754 14 5 C 14 5.062671 13.994167 5.1261852 14 5.1875 C 9.5026647 6.006958 6.28125 9.28125 6.28125 9.28125 L 6.03125 9.53125 C 5.4806298 9.2124653 4.7998416 9 4 9 L 3 9 L 3 11 L 4 11 C 5.1372466 11 5.4558319 11.419945 5.71875 11.9375 C 5.974622 12.441185 5.9987113 12.971945 6 13 C 6.0000355 13.000773 6 13.03125 6 13.03125 L 6 18 C 6 19.649189 6.5412839 20.997766 7.5 21.84375 C 7.6306405 21.959029 7.7647779 22.060296 7.90625 22.15625 L 6.0625 27.6875 L 5.625 29 L 7 29 L 25 29 L 26.375 29 L 25.9375 27.6875 L 24.0625 22.03125 C 24.213895 21.92084 24.361835 21.817018 24.5 21.6875 C 25.431452 20.814344 26 19.515601 26 18 L 26 13 L 26 12.96875 C 26 12.96875 26.0061 12.438708 26.25 11.9375 C 26.493921 11.436292 26.784675 11 28 11 L 29 11 L 29 9 L 28 9 C 27.187317 9 26.496115 9.1893341 25.9375 9.5 L 25.71875 9.28125 C 25.71875 9.28125 22.497335 6.006958 18 5.1875 C 18.005833 5.1261852 18 5.062671 18 5 C 18 3.9072754 17.092725 3 16 3 z M 16 7 C 18.411875 7 20.488562 7.9998655 22.03125 9 L 9.96875 9 C 11.511438 7.9998655 13.588125 7 16 7 z M 7.46875 11 L 24.46875 11 C 24.458406 11.020097 24.447259 11.042447 24.4375 11.0625 C 23.958774 12.046184 23.998918 12.971445 24 13 C 24.000017 13.000439 24 13.03125 24 13.03125 L 24 18 C 24 19.047399 23.674798 19.732656 23.15625 20.21875 C 22.637702 20.704844 21.882273 21 21 21 L 11 21 C 10.069394 21 9.3350339 20.777266 8.84375 20.34375 C 8.3524661 19.910234 8 19.232811 8 18 L 8 13 L 8 12.96875 C 8 12.96875 7.9990819 12.044945 7.5 11.0625 C 7.4899796 11.042775 7.4793239 11.019794 7.46875 11 z M 16 13 C 14.809849 13 13.823326 13.609541 13.09375 14.4375 C 12.726151 14.275919 12.425227 14 12 14 C 10.35503 14 9 15.35503 9 17 L 11 17 C 11 16.43497 11.43497 16 12 16 C 12.271581 16 12.503948 16.104856 12.6875 16.28125 L 13.625 17.1875 L 14.25 16.03125 C 14.594593 15.407476 15.241969 15 16 15 C 16.758031 15 17.405407 15.407476 17.75 16.03125 L 18.375 17.1875 L 19.3125 16.28125 C 19.496052 16.104856 19.728419 16 20 16 C 20.56503 16 21 16.43497 21 17 L 23 17 C 23 15.35503 21.64497 14 20 14 C 19.574773 14 19.273849 14.275919 18.90625 14.4375 C 18.176674 13.609541 17.190151 13 16 13 z M 9.71875 23 L 22.28125 23 L 23.625 27 L 8.375 27 L 9.71875 23 z M 16 24 C 15.447715 24 15 24.447715 15 25 C 15 25.552285 15.447715 26 16 26 C 16.552285 26 17 25.552285 17 25 C 17 24.447715 16.552285 24 16 24 z" overflow="visible" font-family="Sans" fill="#000000"/></svg>
