<?xml version="1.0" encoding="utf-8"?>
<svg xmlns="http://www.w3.org/2000/svg" viewBox="0 0 32 32" fill="#000000"><path d="M 27.625 4 C 26.954266 4.0461719 25.5275 4.23 24.78125 4.96875 C 23.63325 6.18175 24.021 7.55425 24.25 7.78125 C 24.48 7.93325 25.86975 8.4005 27.09375 7.1875 C 28.01275 6.2025 28 4 28 4 C 28 4 27.848578 3.9846094 27.625 4 z M 22.84375 5 C 21.87375 5.076 20.41675 5.968 20.09375 7.25 C 19.68975 8.833 20.66425 9.89275 20.90625 9.96875 C 21.14925 10.04375 22.0775 9.4695 22.5625 8.1875 C 23.2095 6.4525 22.92475 4.924 22.84375 5 z M 18.71875 7.8125 C 18.71875 7.8125 17 8.7705 17 10.6875 C 17 12.6045 17.73975 13.03125 18.21875 13.03125 C 18.69775 13.03125 19.59375 12.114 19.59375 10.75 C 19.59375 8.764 18.71875 7.8125 18.71875 7.8125 z M 26.0625 9 C 25.4695 8.9975 24.68 9.114 23.8125 9.4375 C 22.5305 9.9225 21.95625 10.85075 22.03125 11.09375 C 22.10625 11.33675 23.167 12.31125 24.75 11.90625 C 26.033 11.58225 26.925 10.12625 27 9.15625 C 27.0375 9.11575 26.6555 9.0025 26.0625 9 z M 15.71875 10.8125 C 15.71875 10.8125 14 11.7705 14 13.6875 C 14 15.6035 14.73975 16.03125 15.21875 16.03125 C 15.270717 16.03125 15.346082 15.989422 15.40625 15.96875 C 15.547098 15.914094 15.722871 15.809906 15.875 15.65625 C 16.255234 15.272109 16.594375 14.6025 16.59375 13.75 C 16.59375 11.764 15.71875 10.8125 15.71875 10.8125 z M 21.25 12.40625 C 19.886 12.40625 18.96875 13.30225 18.96875 13.78125 C 18.96875 14.26025 19.3955 15 21.3125 15 C 23.2295 15 24.1875 13.28125 24.1875 13.28125 C 24.1875 13.28125 23.236 12.40625 21.25 12.40625 z M 12.71875 13.8125 C 12.71875 13.8125 11 14.7705 11 16.6875 C 11 18.6035 11.73975 19.03125 12.21875 19.03125 C 12.69775 19.03125 13.59475 18.114 13.59375 16.75 C 13.59375 14.764 12.71875 13.8125 12.71875 13.8125 z M 18.25 15.40625 C 17.227 15.40625 16.442625 15.888828 16.125 16.34375 C 16.019125 16.495391 15.96875 16.6615 15.96875 16.78125 C 15.96875 16.960875 16.044182 17.17335 16.21875 17.375 C 16.276939 17.442217 16.320219 17.500781 16.40625 17.5625 C 16.747448 17.816919 17.334266 18 18.3125 18 C 20.2295 18 21.1875 16.28125 21.1875 16.28125 C 21.1875 16.28125 21.120094 16.207031 21 16.125 C 20.885244 16.046615 20.695562 15.948212 20.46875 15.84375 C 20.461057 15.840286 20.445317 15.847213 20.4375 15.84375 C 20.316063 15.789062 20.183887 15.73877 20.03125 15.6875 C 19.57334 15.533691 18.99475 15.40625 18.25 15.40625 z M 9.71875 16.8125 C 9.71875 16.8125 8 17.7705 8 19.6875 C 8 21.6045 8.73975 22.03125 9.21875 22.03125 C 9.69775 22.03125 10.59475 21.114 10.59375 19.75 C 10.59375 17.764 9.71875 16.8125 9.71875 16.8125 z M 15.25 18.40625 C 13.886 18.40625 12.96875 19.30225 12.96875 19.78125 C 12.96875 20.26025 13.3955 21 15.3125 21 C 17.2295 21 18.1875 19.28125 18.1875 19.28125 C 18.1875 19.28125 17.236 18.40625 15.25 18.40625 z M 12.25 21.40625 C 10.886 21.40625 9.96875 22.30225 9.96875 22.78125 C 9.96875 23.26025 10.3955 24 12.3125 24 C 14.2295 24 15.1875 22.28125 15.1875 22.28125 C 15.1875 22.28125 14.236 21.40625 12.25 21.40625 z M 7.5 23.09375 L 4 26.59375 L 5.40625 28 L 8.90625 24.5 C 8.61625 24.144 8.50375 23.78125 8.46875 23.53125 C 8.21875 23.49625 7.856 23.38275 7.5 23.09375 z" fill="#000000"/></svg>
