<?xml version="1.0" encoding="utf-8"?>
<svg xmlns="http://www.w3.org/2000/svg" viewBox="0 0 32 32" fill="#000000"><path style="text-indent:0;text-align:start;line-height:normal;text-transform:none;block-progression:tb;-inkscape-font-specification:Bitstream Vera Sans" d="M 7 5 C 5.3549904 5 4 6.3549904 4 8 C 4 9.6450096 5.3549904 11 7 11 C 8.6450096 11 10 9.6450096 10 8 C 10 6.3549904 8.6450096 5 7 5 z M 22 5 C 20.354991 5 19 6.3549901 19 8 C 19 9.6450099 20.354991 11 22 11 C 23.645009 11 25 9.6450099 25 8 C 25 6.3549901 23.645009 5 22 5 z M 7 7 C 7.5641294 7 8 7.4358706 8 8 C 8 8.5641294 7.5641294 9 7 9 C 6.4358706 9 6 8.5641294 6 8 C 6 7.4358706 6.4358706 7 7 7 z M 22 7 C 22.564129 7 23 7.4358709 23 8 C 23 8.5641291 22.564129 9 22 9 C 21.435871 9 21 8.5641291 21 8 C 21 7.4358709 21.435871 7 22 7 z M 27.03125 8.8125 L 26.21875 12.90625 L 26.21875 12.9375 L 26.21875 12.96875 C 26.21685 12.98239 26.12021 12.98198 26.15625 13 L 24.875 12.3125 L 24.8125 12.28125 L 24.71875 12.25 C 24.41875 12.15 24.022222 12 23.5 12 L 20.40625 12 C 19.884028 12 19.4875 12.15 19.1875 12.25 L 19.09375 12.28125 L 19.03125 12.3125 L 17.75 13 C 17.78604 12.98198 17.68945 12.98239 17.6875 12.96875 L 17.6875 12.9375 L 17 8.84375 L 15 9.15625 L 15.71875 13.25 C 15.72105 13.26618 15.74734 13.26524 15.75 13.28125 C 15.975626 14.637456 17.434634 15.392058 18.65625 14.78125 L 18.6875 14.78125 L 19 14.59375 L 19 17 L 16 17 L 16 19 L 28 19 L 28 17 L 25 17 L 25 14.65625 L 25.21875 14.78125 L 25.25 14.78125 C 26.471616 15.392058 27.930624 14.637456 28.15625 13.28125 L 28.1875 13.28125 C 28.189 13.27175 28.1861 13.25955 28.1875 13.25 L 28.96875 9.1875 L 27.03125 8.8125 z M 6.59375 12 C 5.1752315 12 4 13.175231 4 14.59375 L 4 27 L 6 27 L 6 19 L 6 14.59375 C 6 14.212269 6.2122685 14 6.59375 14 C 6.7440856 14 7.0406913 14.172606 7.1875 14.4375 L 8.59375 17.4375 L 8.875 18 L 9.5 18 L 13 18 L 13 16 L 15 16 L 15 14 L 13 14 L 12 14 L 11.5 16 L 10.15625 16 L 9 13.5625 C 8.5409907 12.644481 7.6381944 12 6.59375 12 z M 6 19 L 7.40625 22.3125 L 8 27 L 10 27 L 9.3125 22 L 8 19 L 6 19 z M 21 14 L 23 14 L 23 17 L 21 17 L 21 14 z" fill="#000000"/></svg>
