<?xml version="1.0" encoding="utf-8"?>
<svg xmlns="http://www.w3.org/2000/svg" viewBox="0 0 32 32" fill="#000000"><path style="text-indent:0;text-align:start;line-height:normal;text-transform:none;block-progression:tb;-inkscape-font-specification:Bitstream Vera Sans" d="M 15.78125 3.28125 L 14.375 4.71875 L 26.875 17.21875 L 24.71875 24.71875 L 17.21875 26.875 L 4.71875 14.375 L 3.28125 15.78125 L 16.21875 28.71875 L 16.625 29.125 L 17.1875 28.96875 L 25.8125 26.5 L 26.34375 26.34375 L 26.5 25.8125 L 28.96875 17.1875 L 29.125 16.625 L 28.71875 16.21875 L 15.78125 3.28125 z M 13.875 9.625 C 13.335796 9.625 12.811949 9.813051 12.40625 10.21875 C 11.846083 10.778917 11.654737 11.622366 11.90625 12.375 L 12.71875 14.84375 C 12.73038 14.87847 12.71455 14.91047 12.6875 14.9375 C 12.6409 14.9841 12.6091 14.9841 12.5625 14.9375 L 11.59375 14 C 11.54715 13.9534 11.54715 13.890352 11.59375 13.84375 L 12.09375 13.375 L 10.65625 11.96875 L 10.1875 12.4375 C 9.3761019 13.248898 9.3761019 14.594852 10.1875 15.40625 L 10.375 15.59375 L 11.15625 16.375 C 11.967648 17.186398 13.313602 17.186398 14.125 16.375 C 14.685969 15.814031 14.877369 14.972033 14.625 14.21875 L 13.78125 11.75 C 13.76876 11.71263 13.78465 11.65283 13.8125 11.625 C 13.8591 11.5784 13.922148 11.5784 13.96875 11.625 L 14.90625 12.59375 C 14.95285 12.64035 14.95285 12.703398 14.90625 12.75 L 14.4375 13.21875 L 15.84375 14.625 L 16.34375 14.15625 C 17.155148 13.344852 17.155148 11.998898 16.34375 11.1875 L 15.375 10.21875 C 14.969301 9.813051 14.414204 9.625 13.875 9.625 z M 18.96875 13.8125 L 18.25 14.53125 L 14.5625 18.21875 L 13.875 18.9375 L 14.5625 19.625 L 17.03125 22.09375 L 18.4375 20.6875 L 16.6875 18.9375 L 17.125 18.5 L 18.25 19.625 L 19.6875 18.21875 L 18.53125 17.09375 L 18.96875 16.65625 L 20.71875 18.40625 L 22.125 17 L 19.6875 14.53125 L 18.96875 13.8125 z" overflow="visible" font-family="Bitstream Vera Sans" fill="#000000"/></svg>
