<?xml version="1.0" encoding="utf-8"?>
<svg xmlns="http://www.w3.org/2000/svg" viewBox="0 0 32 32" fill="#000000"><path style="text-indent:0;text-align:start;line-height:normal;text-transform:none;block-progression:tb;-inkscape-font-specification:Sans" d="M 9 4 L 9 5 L 9 9 L 7 9 C 5.3550302 9 4 10.35503 4 12 L 4 23 L 4 24 L 5 24 L 9 24 L 9 27 L 9 28 L 10 28 L 22 28 L 23 28 L 23 27 L 23 24 L 27 24 L 28 24 L 28 23 L 28 12 C 28 10.35503 26.64497 9 25 9 L 23 9 L 23 5 L 23 4 L 22 4 L 10 4 L 9 4 z M 11 6 L 21 6 L 21 9 L 11 9 L 11 6 z M 7 11 L 25 11 C 25.56503 11 26 11.43497 26 12 L 26 22 L 23 22 L 23 21 L 22 21 L 10 21 L 9 21 L 9 22 L 6 22 L 6 12 C 6 11.43497 6.4349698 11 7 11 z M 15 12 L 15 17 L 17 17 L 17 12 L 15 12 z M 15 18 L 15 20 L 17 20 L 17 18 L 15 18 z M 11 23 L 21 23 L 21 26 L 11 26 L 11 23 z" overflow="visible" font-family="Sans" fill="#000000"/></svg>
