<?xml version="1.0" encoding="utf-8"?>
<svg xmlns="http://www.w3.org/2000/svg" viewBox="0 0 32 32" fill="#000000"><path d="M 16 8 C 10.923 8 6.5364844 10.917156 4.3964844 15.160156 C 6.6694844 12.038156 10.343 10 14.5 10 C 19.04 10 23.002406 12.429781 25.191406 16.050781 L 27.480469 14.90625 C 25.295469 10.79925 20.976 8 16 8 z M 16 12 C 12.291 12 9.1084687 14.245219 7.7304688 17.449219 C 9.2734687 15.360219 11.74125 14 14.53125 14 C 17.49325 14 20.095375 15.529797 21.609375 17.841797 L 23.904297 16.693359 C 22.377297 13.896359 19.41 12 16 12 z M 1 15.380859 L 1 17.617188 C 6.223 20.228188 15.552734 24.894531 15.552734 24.894531 L 16 25.117188 L 31 17.617188 L 31 15.382812 L 16 22.882812 C 7.692 18.727812 3.314 16.537859 1 15.380859 z M 15.970703 16 C 13.774703 16 11.932531 17.435063 11.269531 19.414062 C 12.086531 18.547062 13.234578 18 14.517578 18 C 15.914578 18 17.14675 18.654156 17.96875 19.660156 L 20.267578 18.511719 C 19.406578 17.017719 17.814703 16 15.970703 16 z" fill="#000000"/></svg>
