<?xml version="1.0" encoding="utf-8"?>
<svg xmlns="http://www.w3.org/2000/svg" viewBox="0 0 32 32" fill="#000000"><path style="text-indent:0;text-align:start;line-height:normal;text-transform:none;block-progression:tb;-inkscape-font-specification:Bitstream Vera Sans" d="M 16 2 C 14.618911 2 13.466988 2.9700225 13.125 4.25 C 12.773916 4.1044091 12.400961 4 12 4 C 10.35503 4 9 5.3550302 9 7 L 9 14.75 L 8.125 13.875 C 6.9619269 12.711927 5.0380731 12.711927 3.875 13.875 C 2.7119269 15.038073 2.7119269 16.961927 3.875 18.125 L 9.71875 23.9375 L 9.03125 26.65625 L 9 26.78125 L 9 26.90625 L 9 27 L 9 28 L 10 28 C 13.666667 28 17 29.875 17 29.875 L 17.5 30.15625 L 18 29.875 C 18 29.875 21.371276 28 25 28 L 26 28 L 26 27 L 26 26.90625 L 26 26.78125 L 25.96875 26.65625 L 25.375 24.3125 C 26.339149 23.11385 27 21.655352 27 20 L 27 10 C 27 8.3550302 25.64497 7 24 7 C 23.647017 7 23.315758 7.0732364 23 7.1875 L 23 7 C 23 5.3550302 21.64497 4 20 4 C 19.599039 4 19.226084 4.1044091 18.875 4.25 C 18.533012 2.9700225 17.381089 2 16 2 z M 16 4 C 16.56503 4 17 4.4349698 17 5 L 16 5 L 16 7 L 17 7 L 17 9 L 16 9 L 16 11 L 17 11 L 17 13 L 16 13 L 16 15 L 18 15 L 19 15 L 19 7 C 19 6.4349698 19.43497 6 20 6 C 20.56503 6 21 6.4349698 21 7 L 21 9 L 20 9 L 20 11 L 21 11 L 21 13 L 20 13 L 20 15 L 22 15 L 23 15 L 23 10 C 23 9.4349698 23.43497 9 24 9 C 24.56503 9 25 9.4349698 25 10 L 24 10 L 24 12 L 25 12 L 25 13 L 24 13 L 24 15 L 25 15 L 25 16 C 24.447715 16 24 16.447715 24 17 C 24 17.552285 24.447715 18 25 18 L 25 20 C 25 21.353064 24.46358 22.567169 23.59375 23.46875 L 23.21875 23.875 L 23.34375 24.40625 L 23.78125 26.125 C 20.474553 26.428795 18.083858 27.59067 17.5 27.90625 C 16.914837 27.587758 14.537388 26.428663 11.21875 26.125 L 11.78125 23.875 L 11.9375 23.3125 L 11.53125 22.90625 L 5.28125 16.71875 C 4.8823231 16.319823 4.8823231 15.680177 5.28125 15.28125 C 5.6801769 14.882323 6.3198231 14.882323 6.71875 15.28125 L 6.78125 15.375 L 9.28125 17.875 L 11 19.59375 L 11 17.1875 L 11 15 L 11 7 C 11 6.4349698 11.43497 6 12 6 C 12.56503 6 13 6.4349698 13 7 L 13 9 L 12 9 L 12 11 L 13 11 L 13 13 L 12 13 L 12 15 L 14 15 L 15 15 L 15 7 L 15 5 C 15 4.4349698 15.43497 4 16 4 z M 13 16 C 12.447715 16 12 16.447715 12 17 C 12 17.552285 12.447715 18 13 18 C 13.552285 18 14 17.552285 14 17 C 14 16.447715 13.552285 16 13 16 z M 17 16 C 16.447715 16 16 16.447715 16 17 C 16 17.552285 16.447715 18 17 18 C 17.552285 18 18 17.552285 18 17 C 18 16.447715 17.552285 16 17 16 z M 21 16 C 20.447715 16 20 16.447715 20 17 C 20 17.552285 20.447715 18 21 18 C 21.552285 18 22 17.552285 22 17 C 22 16.447715 21.552285 16 21 16 z" fill="#000000"/></svg>
