<?xml version="1.0" encoding="utf-8"?>
<svg xmlns="http://www.w3.org/2000/svg" viewBox="0 0 32 32" fill="#000000"><path style="text-indent:0;text-align:start;line-height:normal;text-transform:none;block-progression:tb;-inkscape-font-specification:Bitstream Vera Sans" d="M 9.1875 5 L 9.375 7 L 6 7 L 6 8 L 6.90625 13 L 8.6875 13 L 8.1875 9 L 9.59375 9 L 10 13 L 11.8125 13 L 11.40625 7 L 13 7 L 13 14.78125 C 13 15.84225 14.2 16.5875 15 16.6875 L 15 8 L 17 8 L 17 16.6875 C 17.8 16.5875 19 15.83125 19 14.78125 L 19 7 L 20.59375 7 L 20.1875 13 L 22 13 L 22.40625 9 L 23.8125 9 L 23.3125 13 L 25.09375 13 L 26 8 L 26 7 L 22.625 7 L 22.8125 5 L 17 5 L 17 6 L 15 6 L 15 5 L 9.1875 5 z M 5.84375 14 L 6 15.125 L 7.46875 25.40625 C 7.6776893 26.877779 8.9503629 28 10.4375 28 L 21.65625 28 C 23.151929 28 24.427976 26.8899 24.625 25.40625 L 26 15.125 L 26.15625 14 L 25 14 L 21 14 L 20 14 L 20 15 C 20 16.533333 18.371429 18 16 18 C 13.628571 18 12 16.533333 12 15 L 12 14 L 11 14 L 7 14 L 5.84375 14 z M 8.15625 16 L 10.25 16 C 10.826208 18.326932 13.176401 20 16 20 C 18.823599 20 21.173792 18.326932 21.75 16 L 23.84375 16 L 22.625 25.125 C 22.558024 25.62935 22.164571 26 21.65625 26 L 10.4375 26 C 9.9306371 26 9.5085607 25.625471 9.4375 25.125 L 8.15625 16 z" overflow="visible" font-family="Bitstream Vera Sans" fill="#000000"/></svg>
