<?xml version="1.0" encoding="utf-8"?>
<svg xmlns="http://www.w3.org/2000/svg" viewBox="0 0 32 32" fill="#000000"><path style="text-indent:0;text-align:start;line-height:normal;text-transform:none;block-progression:tb;-inkscape-font-specification:Bitstream Vera Sans" d="M 25.78125 4 C 25.181544 3.967631 24.591275 4.1767232 23.96875 4.53125 C 23.522438 4.7854072 22.25708 4.7996186 20.71875 4.875 C 19.18042 4.950381 17.319832 5.1973016 15.6875 6.5 C 15.283176 6.8239237 14.490407 7.4525527 13.125 9.15625 C 11.873852 10.71738 10.050458 13.316874 7.375 17.59375 C 7.2082809 17.321335 7.125 17.15625 7.125 17.15625 L 6.59375 15.6875 L 5.46875 16.8125 C 4.8562241 17.425752 4.6166924 18.215011 4.53125 18.9375 C 4.445808 19.659989 4.508045 20.333859 4.5625 20.96875 C 4.616955 21.603641 4.665128 22.194198 4.625 22.625 C 4.584872 23.055802 4.4636702 23.286095 4.28125 23.46875 L 5.71875 24.875 C 6.3148298 24.278155 6.5284092 23.513979 6.59375 22.8125 C 6.659091 22.111021 6.58492 21.438234 6.53125 20.8125 C 6.4958012 20.399204 6.5000133 20.064456 6.5 19.71875 C 7.0817261 20.491744 7.77355 21.396823 9.125 22.75 C 10.520856 24.14764 11.495976 24.900424 12.3125 25.5 C 11.967472 25.5075 11.619381 25.5026 11.1875 25.46875 C 10.563774 25.41987 9.911223 25.344657 9.21875 25.40625 C 8.526277 25.46784 7.7456925 25.691416 7.15625 26.28125 L 8.5625 27.71875 C 8.7250575 27.556084 8.9772542 27.444407 9.40625 27.40625 C 9.8352458 27.36809 10.391601 27.41863 11.03125 27.46875 C 12.310548 27.568998 14.014326 27.737104 15.25 26.5 L 16.34375 25.40625 L 14.90625 24.84375 C 14.90625 24.84375 14.730785 24.742775 14.4375 24.5625 C 18.673417 21.892183 21.261947 20.084075 22.8125 18.84375 C 24.512743 17.483684 25.108777 16.692626 25.4375 16.28125 L 25.4375 16.25 C 26.706663 14.623556 27.116945 12.666195 27.3125 11 C 27.508055 9.3338053 27.613178 7.8406048 27.75 7.53125 C 28.200269 6.5133105 27.898566 5.3375469 27.25 4.6875 C 26.904317 4.3410369 26.380956 4.0323686 25.78125 4 z M 25.6875 6 C 25.76404 6.00413 25.74643 5.99621 25.84375 6.09375 C 26.071184 6.3217031 26.107981 6.2626895 25.90625 6.71875 C 25.384072 7.8993952 25.491695 9.2544447 25.3125 10.78125 C 25.133305 12.308055 24.779837 13.871694 23.875 15.03125 C 23.507723 15.490874 23.162257 16.001566 21.5625 17.28125 C 20.026617 18.50984 17.335213 20.390681 12.71875 23.28125 C 12.118439 22.778896 11.41433 22.165419 10.5625 21.3125 C 9.7562035 20.505173 9.1413708 19.840919 8.65625 19.28125 C 11.538426 14.637863 13.45307 11.946519 14.6875 10.40625 C 15.969843 8.8061973 16.471824 8.4355763 16.9375 8.0625 C 18.088168 7.1441984 19.40708 6.9438686 20.8125 6.875 C 22.21792 6.806131 23.673062 6.9878428 24.96875 6.25 C 25.382225 6.0145268 25.610956 5.9958686 25.6875 6 z M 22.3125 7.6875 C 22.049437 7.7673281 21.76625 8.05075 21.59375 8.5 C 21.36375 9.237 21.61025 9.7065 21.65625 9.9375 C 21.93225 9.7525 22.42625 9.45925 22.65625 8.90625 C 22.88625 8.35325 22.8385 7.8255 22.5625 7.6875 C 22.482 7.6645 22.400188 7.6608906 22.3125 7.6875 z M 18.4375 7.90625 C 18.0695 7.90625 17.7205 8.651 17.8125 9.25 C 18.4105 9.434 18.59375 9.84375 18.59375 9.84375 C 18.59375 9.84375 18.60075 8.9315 18.96875 8.5625 C 18.96875 8.4245 18.8055 7.90625 18.4375 7.90625 z M 20.25 8.125 C 19.882719 8.1981582 19.527 8.805875 19.40625 9.53125 C 19.22225 10.59025 19.70575 11.1135 19.84375 11.4375 C 20.11975 11.1145 20.76825 10.61025 20.90625 9.78125 C 21.04425 8.95125 20.82025 8.217 20.40625 8.125 C 20.3545 8.1135 20.302469 8.1145488 20.25 8.125 z M 23.53125 9.15625 C 23.396125 9.17925 23.263 9.22375 23.125 9.28125 C 22.573 9.51225 22.27775 10.0365 22.09375 10.3125 C 22.32475 10.3585 22.79525 10.61975 23.53125 10.34375 C 24.13025 10.15975 24.515 9.7145 24.375 9.4375 C 24.306 9.196 23.936625 9.08725 23.53125 9.15625 z M 16.34375 9.9375 C 15.97475 9.9375 15.657 10.68225 15.75 11.28125 C 16.348 11.46525 16.53125 11.875 16.53125 11.875 C 16.53125 11.875 16.53825 10.9315 16.90625 10.5625 C 16.90625 10.4245 16.71175 9.9375 16.34375 9.9375 z M 17.9375 10.3125 C 17.572105 10.425279 17.21875 11.055875 17.21875 11.78125 C 17.12675 12.84125 17.6745 13.33425 17.8125 13.65625 C 18.0425 13.28725 18.658 12.73525 18.75 11.90625 C 18.842 11.07725 18.50775 10.3585 18.09375 10.3125 C 18.042 10.30675 17.989699 10.296389 17.9375 10.3125 z M 22.84375 11 C 22.656781 10.991359 22.457 10.99675 22.25 11.03125 C 21.421 11.17025 20.91575 11.81775 20.59375 12.09375 C 20.91575 12.23175 21.42725 12.7465 22.53125 12.5625 C 23.36025 12.4695 23.99825 11.94625 23.90625 11.53125 C 23.83725 11.22 23.404656 11.025922 22.84375 11 z M 14.25 12.1875 C 13.882 12.1875 13.579 12.88625 13.625 13.53125 C 14.223 13.71525 14.4375 14.125 14.4375 14.125 C 14.4375 14.125 14.41325 13.21275 14.78125 12.84375 C 14.78125 12.70575 14.618 12.1875 14.25 12.1875 z M 15.875 12.375 C 15.508949 12.487779 15.155375 13.118375 15.15625 13.84375 C 15.06425 14.90375 15.612 15.428 15.75 15.75 C 15.98 15.381 16.5955 14.829 16.6875 14 C 16.7795 13.171 16.44525 12.421 16.03125 12.375 C 15.979375 12.36925 15.927293 12.358889 15.875 12.375 z M 23.4375 12.96875 C 23.0695 13.33775 22.15625 13.34375 22.15625 13.34375 C 22.15625 13.34375 22.612 13.55725 22.75 14.15625 C 23.394 14.20225 24.09475 13.94525 24.09375 13.53125 C 24.13975 13.16225 23.6215 12.96875 23.4375 12.96875 z M 20.125 13.1875 C 19.25 13.2795 18.743 13.849 18.375 14.125 C 18.698 14.263 19.17725 14.82725 20.28125 14.78125 C 21.15625 14.73525 21.796 14.25875 21.75 13.84375 C 21.704 13.42875 20.953 13.0955 20.125 13.1875 z M 13.625 14.6875 C 13.258949 14.791447 12.905375 15.38975 12.90625 16.15625 C 12.81425 17.21625 13.362 17.70925 13.5 18.03125 C 13.73 17.66225 14.3455 17.11025 14.4375 16.28125 C 14.5295 15.45225 14.19525 14.7335 13.78125 14.6875 C 13.729375 14.681625 13.677293 14.67265 13.625 14.6875 z M 21.375 15 C 21.007 15.369 20.09375 15.375 20.09375 15.375 C 20.09375 15.375 20.5495 15.5885 20.6875 16.1875 C 21.3325 16.2795 22.047 15.9765 22 15.5625 C 22.046 15.1935 21.559 15 21.375 15 z M 18 15.21875 C 17.125 15.31075 16.618 15.88025 16.25 16.15625 C 16.572 16.34025 17.09725 16.87325 18.15625 16.78125 C 19.03125 16.73525 19.671 16.29 19.625 15.875 C 19.579 15.46 18.828 15.12675 18 15.21875 z M 11.5 16.71875 C 11.112416 16.853541 10.780375 17.462125 10.78125 18.1875 C 10.68925 19.2475 11.237 19.7405 11.375 20.0625 C 11.605 19.6935 12.2205 19.1415 12.3125 18.3125 C 12.4045 17.4835 12.07025 16.76475 11.65625 16.71875 C 11.59875 16.71875 11.555369 16.699494 11.5 16.71875 z M 19.125 17.125 C 18.757 17.494 17.8125 17.5 17.8125 17.5 C 17.8125 17.5 18.2995 17.7135 18.4375 18.3125 C 19.0825 18.3585 19.797 18.07125 19.75 17.65625 C 19.796 17.28725 19.309 17.125 19.125 17.125 z M 15.71875 17.5 C 14.84375 17.592 14.33675 18.13025 13.96875 18.40625 C 14.29075 18.54425 14.78475 19.1085 15.84375 19.0625 C 16.71875 19.0165 17.3585 18.54 17.3125 18.125 C 17.2665 17.71 16.54675 17.408 15.71875 17.5 z M 13.625 19.59375 C 12.75 19.68575 12.243 20.25525 11.875 20.53125 C 12.197 20.71525 12.72325 21.2335 13.78125 21.1875 C 14.65625 21.1415 15.296 20.665 15.25 20.25 C 15.204 19.835 14.454 19.50175 13.625 19.59375 z" overflow="visible" font-family="Bitstream Vera Sans" fill="#000000"/></svg>
