<?xml version="1.0" encoding="utf-8"?>
<svg xmlns="http://www.w3.org/2000/svg" viewBox="0 0 32 32" fill="#000000"><path style="text-indent:0;text-align:start;line-height:normal;text-transform:none;block-progression:tb;-inkscape-font-specification:Bitstream Vera Sans" d="M 2 8 L 2 9 L 2 23 L 2 24 L 3 24 L 29 24 L 30 24 L 30 23 L 30 9 L 30 8 L 29 8 L 3 8 L 2 8 z M 4 10 L 28 10 L 28 22 L 4 22 L 4 10 z M 7 12 L 7 13 L 7 20 L 9 20 L 9 18 C 10.64497 18 12 16.64497 12 15 C 12 13.35503 10.64497 12 9 12 L 8 12 L 7 12 z M 13 12 L 13 20 L 15 20 L 15 17 L 17 17 L 17 20 L 19 20 L 19 17 L 19 15 L 19 12 L 17 12 L 17 15 L 15 15 L 15 12 L 13 12 z M 21 12 L 21 13 L 21 20 L 23 20 L 23 18 C 24.64497 18 26 16.64497 26 15 C 26 13.35503 24.64497 12 23 12 L 22 12 L 21 12 z M 9 14 C 9.5650302 14 10 14.43497 10 15 C 10 15.56503 9.5650302 16 9 16 L 9 14 z M 23 14 C 23.56503 14 24 14.43497 24 15 C 24 15.56503 23.56503 16 23 16 L 23 14 z" overflow="visible" font-family="Bitstream Vera Sans" fill="#000000"/></svg>
