<?xml version="1.0" encoding="utf-8"?>
<svg xmlns="http://www.w3.org/2000/svg" viewBox="0 0 32 32" fill="#000000"><path style="text-indent:0;text-align:start;line-height:normal;text-transform:none;block-progression:tb;-inkscape-font-specification:Sans" d="M 22 4 C 20.769361 4 19.482991 4.4786925 18.53125 5.5 C 17.579509 6.5213075 17 8.0501584 17 10 L 19 10 C 19 8.4388416 19.439991 7.4759425 20 6.875 C 20.560009 6.2740575 21.277639 6 22 6 C 22.083144 6 22.181508 6.0031524 22.3125 6.03125 C 22.321466 6.0324446 22.334979 6.0299442 22.34375 6.03125 C 22.450336 6.0552525 22.593708 6.1100208 22.71875 6.15625 C 22.740632 6.1643401 22.758985 6.1786656 22.78125 6.1875 C 22.846061 6.2266896 22.912976 6.2633757 22.96875 6.3125 C 23.184036 6.5021199 23.376674 6.8084804 23.5 7.28125 C 23.746652 8.2267891 23.653533 9.7264118 23.28125 11.25 C 22.908967 12.773588 22.282012 14.334811 21.59375 15.4375 C 21.249619 15.988844 20.891702 16.426236 20.59375 16.6875 C 20.295798 16.948764 20.067383 17 20.03125 17 C 19.637483 17 19.29701 16.813882 18.8125 16.34375 C 18.32799 15.873618 17.785809 15.143295 17.1875 14.375 C 15.990881 12.838411 14.387758 11 11.78125 11 C 9.8961432 11 8.3500982 11.912099 7.28125 13.21875 C 6.2124018 14.525401 5.5354015 16.195549 5.0625 17.9375 C 4.1166971 21.421402 4 25.237855 4 27 L 6 27 C 6 25.324145 6.1118029 21.625348 6.96875 18.46875 C 7.3972235 16.890451 8.0201295 15.468661 8.8125 14.5 C 9.6048705 13.531339 10.505857 13 11.78125 13 C 13.452742 13 14.485369 14.161589 15.625 15.625 C 16.194816 16.356705 16.731354 17.126382 17.40625 17.78125 C 18.081146 18.436118 18.956517 19 20.03125 19 C 20.768117 19 21.393432 18.637173 21.90625 18.1875 C 22.419068 17.737827 22.864678 17.167406 23.28125 16.5 C 24.114395 15.165189 24.796908 13.476412 25.21875 11.75 C 25.269984 11.540322 25.300079 11.334879 25.34375 11.125 L 26 11.59375 L 26 12.40625 L 25.59375 12.65625 L 25.15625 12.9375 L 25.125 13.40625 C 25.07076 13.899573 24.891576 14.770836 24.625 15.5 L 24.40625 16.09375 L 24.84375 16.53125 L 25.59375 17.3125 C 25.55534 17.35096 25.51615 17.517925 25.34375 17.8125 C 25.28417 17.914302 25.27641 17.913826 25.21875 18 L 24.6875 17.90625 L 23.875 17.78125 L 23.5625 18.53125 C 23.38689 18.970951 22.743465 19.974546 22.3125 20.34375 L 21.8125 20.78125 L 22 21.375 L 22.09375 21.71875 C 21.911193 21.841094 21.761181 21.878223 21.5 21.96875 L 21.125 21.46875 L 20.78125 21 L 20.1875 21.0625 C 19.422775 21.15758 18.908146 21.063383 18.28125 20.71875 L 17.65625 20.34375 L 17.125 20.84375 L 16.71875 21.21875 C 16.372727 21.061663 16.09582 20.954669 15.9375 20.78125 L 16.15625 20.15625 L 16.34375 19.625 L 16 19.1875 C 15.466972 18.497876 14.370786 17 12.46875 17 C 11.474825 17 10.642684 17.545322 10.1875 18.21875 C 9.7323161 18.892178 9.5573423 19.673472 9.5 20.375 L 9.4375 21 L 9.96875 21.3125 L 11.28125 22.09375 C 11.28815 22.677435 11.22096 23.149697 11.09375 23.53125 L 10.15625 23.5625 L 9.375 23.625 L 9.21875 24.375 C 9.0921508 25.050687 9 26.340545 9 27 L 11 27 C 11 26.766304 11.06992 26.086647 11.125 25.5 L 11.875 25.46875 L 12.4375 25.4375 L 12.71875 24.90625 C 12.71875 24.90625 13.609111 23.214215 13.25 21.3125 L 13.1875 20.875 L 12.78125 20.625 L 11.65625 19.96875 C 11.71951 19.751432 11.75059 19.481581 11.84375 19.34375 C 12.021566 19.080678 12.118675 19 12.46875 19 C 13.097696 19 13.601604 19.522685 14.0625 20.0625 L 13.875 20.625 L 13.71875 21.0625 L 13.9375 21.46875 C 13.9375 21.46875 14.847085 23.011802 16.71875 23.375 L 17.21875 23.46875 L 17.59375 23.15625 L 18.0625 22.71875 C 18.613827 22.920963 19.176452 23.031364 19.78125 23.03125 L 20.25 23.6875 L 20.5 24.0625 L 20.96875 24.09375 C 22.771891 24.274524 23.96875 22.90625 23.96875 22.90625 L 24.375 22.5 L 24.21875 21.9375 L 24.03125 21.28125 C 24.398846 20.871413 24.688958 20.44942 24.9375 20 L 25.5 20.09375 L 26.0625 20.21875 L 26.4375 19.75 C 26.4375 19.75 26.789252 19.364031 27.09375 18.84375 C 27.398248 18.323469 27.808065 17.710722 27.59375 16.75 L 27.53125 16.46875 L 27.34375 16.25 L 26.65625 15.53125 C 26.794216 15.043027 26.905408 14.592065 26.96875 14.1875 L 27.53125 13.84375 L 28 13.53125 L 28 12.96875 L 28 11.0625 L 28 10.5625 L 27.5625 10.25 L 26.8125 9.71875 C 26.679183 7.7840937 26.071489 6.310472 25.15625 5.40625 C 24.728428 4.9835773 24.270918 4.6928376 23.8125 4.46875 C 23.642075 4.3854413 23.481164 4.3087398 23.3125 4.25 C 23.290539 4.2423518 23.2719 4.2259966 23.25 4.21875 C 23.088271 4.1608496 22.923618 4.1281302 22.75 4.09375 C 22.509936 4.0462119 22.257594 4 22 4 z" overflow="visible" font-family="Sans" fill="#000000"/></svg>
