<?xml version="1.0" encoding="utf-8"?>
<svg xmlns="http://www.w3.org/2000/svg" viewBox="0 0 32 32" fill="#000000"><path style="line-height:normal;text-indent:0;text-align:start;text-decoration-line:none;text-decoration-style:solid;text-decoration-color:#000;text-transform:none;block-progression:tb;isolation:auto;mix-blend-mode:normal" d="M 9.8828125 3 C 7.6846355 3 6 4.8248928 6 7 L 6 10 C 6 10.487929 6.025136 11.069678 6.2441406 11.666016 C 6.353643 11.964184 6.5188229 12.279486 6.8164062 12.548828 C 7.1139897 12.81817 7.5629117 13 8 13 L 10 13 L 10 16 L 12 16 L 12 13 L 19 13 L 19 18 L 7 18 C 4.801823 18 3 19.778889 3 22 L 3 25.451172 C 3 26.839505 4.1375513 28 5.5292969 28 L 6 28 L 6 29 L 8 29 L 8 28 L 24 28 L 24 29 L 26 29 L 26 28 L 26.470703 28 C 27.862802 28 29 26.839505 29 25.451172 L 29 7 C 29 4.7558869 27.139583 3 24.941406 3 L 9.8828125 3 z M 9.8828125 5 L 11 5 L 11 8 L 13 8 L 13 5 L 16 5 L 16 8 L 18 8 L 18 5 L 21 5 L 21 8 L 23 8 L 23 5 L 24.941406 5 C 26.121229 5 27 5.8241131 27 7 L 27 25.451172 C 27 25.772839 26.770604 26 26.470703 26 L 5.5292969 26 C 5.2310424 26 5 25.772839 5 25.451172 L 5 22 C 5 20.801111 5.820177 20 7 20 L 19 20 C 19.663607 20 20.038815 19.692579 20.363281 19.369141 C 20.687748 19.045702 21 18.66471 21 18 L 21 13 C 21 12.33529 20.687748 11.954298 20.363281 11.630859 C 20.038815 11.307421 19.663607 11 19 11 L 8.1308594 11 C 8.1231594 10.9846 8.130207 11.001403 8.1210938 10.976562 C 8.0513528 10.786653 8 10.367071 8 10 L 8 7 C 8 5.7551072 8.7029895 5 9.8828125 5 z" font-weight="400" font-family="sans-serif" white-space="normal" overflow="visible" fill="#000000"/></svg>
