<?xml version="1.0" encoding="utf-8"?>
<svg xmlns="http://www.w3.org/2000/svg" viewBox="0 0 32 32" fill="#000000"><path style="text-indent:0;text-align:start;line-height:normal;text-transform:none;block-progression:tb;-inkscape-font-specification:Sans" d="M 9 3 C 6.8027056 3 5 4.8027056 5 7 C 5 8.1298082 5.4882122 9.145257 6.25 9.875 C 6.0116432 10.045254 5.79387 10.225484 5.59375 10.4375 C 4.7524495 11.328813 4.2305833 12.514338 4 13.8125 L 4 13.875 L 4 13.90625 L 3.15625 22.90625 L 3.03125 24 L 4.15625 24 L 6 24 L 6 29 L 8 29 L 8 24 L 10 24 L 10 29 L 12 29 L 12 24 L 13.84375 24 L 14.96875 24 L 14.84375 22.90625 L 14 13.90625 L 14 13.875 L 13.96875 13.8125 C 13.739702 12.578727 13.23894 11.402209 12.40625 10.5 C 12.198078 10.274448 11.969138 10.057916 11.71875 9.875 C 12.490532 9.1442659 13 8.1382662 13 7 C 13 4.8027056 11.197294 3 9 3 z M 9 5 C 10.116414 5 11 5.883586 11 7 C 11 8.116414 10.116414 9 9 9 C 7.883586 9 7 8.116414 7 7 C 7 5.883586 7.883586 5 9 5 z M 9 11 C 9.826848 11 10.42269 11.317209 10.9375 11.875 C 11.432566 12.411398 11.818911 13.210373 12 14.09375 C 12.0021 14.10389 11.998 14.11483 12 14.125 L 12.78125 22 L 12 22 L 7 22 L 5.21875 22 L 6 14.1875 C 6.1774167 13.188662 6.5580505 12.346937 7.0625 11.8125 C 7.5669495 11.278063 8.152479 11 9 11 z M 22 12 L 22 13 L 22 18 L 17 18 L 16 18 L 16 19 L 16 19.5 C 16 21.453891 17.043343 23.179843 18.59375 24.15625 C 17.664799 24.522745 17 25.44921 17 26.5 C 17 27.868867 18.131133 29 19.5 29 C 20.868867 29 22 27.868867 22 26.5 C 22 25.94564 21.811688 25.417042 21.5 25 L 24.5 25 C 24.188312 25.417042 24 25.94564 24 26.5 C 24 27.868867 25.131133 29 26.5 29 C 27.868867 29 29 27.868867 29 26.5 C 29 25.44921 28.335201 24.522745 27.40625 24.15625 C 28.822124 23.264569 29.807081 21.744634 29.96875 20 L 30 20 L 30 19.5 L 30 19 C 30 19 30.01848 17.304973 29.15625 15.5625 C 28.294016 13.820027 26.360924 12 23 12 L 22 12 z M 24 14.25 C 25.813859 14.555782 26.857471 15.391634 27.375 16.4375 C 27.75409 17.203596 27.691872 17.509205 27.75 18 L 24 18 L 24 14.25 z M 18.09375 20 L 22 20 L 27.90625 20 C 27.656496 21.686501 26.254719 23 24.5 23 L 21.5 23 C 19.745281 23 18.343504 21.686501 18.09375 20 z M 19.5 26 C 19.787987 26 20 26.212013 20 26.5 C 20 26.787987 19.787987 27 19.5 27 C 19.212013 27 19 26.787987 19 26.5 C 19 26.212013 19.212013 26 19.5 26 z M 26.5 26 C 26.787987 26 27 26.212013 27 26.5 C 27 26.787987 26.787987 27 26.5 27 C 26.212013 27 26 26.787987 26 26.5 C 26 26.212013 26.212013 26 26.5 26 z" fill="#000000"/></svg>
