<?xml version="1.0" encoding="utf-8"?>
<svg xmlns="http://www.w3.org/2000/svg" viewBox="0 0 32 32" fill="#000000"><path style="text-indent:0;text-align:start;line-height:normal;text-transform:none;block-progression:tb;-inkscape-font-specification:Bitstream Vera Sans" d="M 11.1875 4 L 10.90625 4.28125 L 4.28125 10.90625 L 4 11.1875 L 4 11.59375 L 4 27 L 4 28 L 5 28 L 27 28 L 28 28 L 28 27 L 28 5 L 28 4 L 27 4 L 11.59375 4 L 11.1875 4 z M 12.03125 6 L 26 6 L 26 21 L 11 21 L 11 14.4375 L 14.4375 11 L 21 11 L 21 15 L 18 15 L 18 14 L 14 14 L 14 18 L 18 18 L 18 17 L 22 17 L 23 17 L 23 16 L 23 10 L 23 9 L 22 9 L 14 9 L 13.59375 9 L 13.28125 9.28125 L 9.28125 13.28125 L 9 13.59375 L 9 14 L 9 22 L 9 23 L 10 23 L 26 23 L 26 26 L 6 26 L 6 12.03125 L 12.03125 6 z" overflow="visible" font-family="Bitstream Vera Sans" fill="#000000"/></svg>
