<?xml version="1.0" encoding="utf-8"?>
<svg xmlns="http://www.w3.org/2000/svg" viewBox="0 0 32 32" fill="#000000"><path style="text-indent:0;text-align:start;line-height:normal;text-transform:none;block-progression:tb;-inkscape-font-specification:Bitstream Vera Sans" d="M 6 7 L 6 27 L 17.21875 27 L 16.96875 25 L 15 25 L 15 15 L 15.78125 15 L 15.5625 13 L 15 13 L 15 9 L 24 9 L 24 13 L 26 20.25 L 26 7 L 6 7 z M 8 9 L 13 9 L 13 13 L 8 13 L 8 9 z M 21.65625 11.21875 L 20.28125 11.625 L 24.5625 28.1875 L 26.5 27.65625 L 21.65625 11.21875 z M 18.65625 12.28125 L 17.34375 12.4375 L 19.03125 29.5 L 21 29.25 L 18.65625 12.28125 z M 8 15 L 13 15 L 13 19 L 8 19 L 8 15 z M 8 21 L 13 21 L 13 25 L 8 25 L 8 21 z" overflow="visible" font-family="Bitstream Vera Sans" fill="#000000"/></svg>
