<?xml version="1.0" encoding="utf-8"?>
<svg xmlns="http://www.w3.org/2000/svg" viewBox="0 0 32 32" fill="#000000"><path style="text-indent:0;text-align:start;line-height:normal;text-transform:none;block-progression:tb;-inkscape-font-specification:Bitstream Vera Sans" d="M 5 5 L 5 6 L 5 26 L 5 27 L 6 27 L 26 27 L 27 27 L 27 26 L 27 6 L 27 5 L 26 5 L 6 5 L 5 5 z M 7 7 L 25 7 L 25 10.875 C 24.496657 10.905018 23.855593 10.804395 23.09375 10.375 C 21.15275 9.28 20.34375 8.71875 20.34375 8.71875 C 19.76675 8.35775 19.1995 8.15175 18.6875 8.09375 C 18.6075 8.08475 17.67925 8.70375 17.78125 9.84375 C 18.04925 9.91575 18.34825 10.0185 18.65625 10.1875 C 19.71525 10.8435 21.4375 11.84375 21.4375 11.84375 C 22.6485 12.60075 23.77075 12.79275 24.46875 12.09375 C 24.636083 11.926417 24.811396 11.740643 25 11.5625 L 25 25 L 11.53125 25 C 11.717016 24.802984 11.88775 24.61225 12.0625 24.4375 C 12.7615 23.7385 12.5685 22.61625 11.8125 21.40625 C 11.8125 21.40625 10.8435 19.685 10.1875 18.625 C 9.0935 16.632 10.71875 15.09375 10.71875 15.09375 L 8.4375 17.28125 C 7.8325 17.88625 7.96275 19.1025 8.71875 20.3125 C 8.71875 20.3125 9.24875 21.1215 10.34375 23.0625 C 10.783119 23.841326 10.911442 24.491937 10.875 25 L 7 25 L 7 7 z M 17.21875 8.15625 C 17.21875 8.15625 16.29275 9.20725 15.59375 9.90625 C 14.89475 10.60525 15.08775 11.7275 15.84375 12.9375 C 15.84375 12.9375 16.844 14.65875 17.5 15.71875 C 17.669 16.02675 17.77175 16.32575 17.84375 16.59375 C 18.98475 16.69575 19.60275 15.7675 19.59375 15.6875 C 19.53675 15.1765 19.32975 14.60825 18.96875 14.03125 C 18.96875 14.03125 18.4075 13.22225 17.3125 11.28125 C 16.2175 9.34025 17.21875 8.15625 17.21875 8.15625 z M 11.96875 14.8125 C 11.88875 14.8035 10.9605 15.39125 11.0625 16.53125 C 11.3305 16.60325 11.6295 16.73725 11.9375 16.90625 C 12.9965 17.56225 14.71875 18.53125 14.71875 18.53125 C 15.92975 19.28825 17.052 19.48025 17.75 18.78125 C 18.449 18.08225 19.5 17.15625 19.5 17.15625 C 19.5 17.15625 18.316 18.1575 16.375 17.0625 C 14.434 15.9675 13.625 15.4375 13.625 15.4375 C 13.048 15.0765 12.48075 14.8705 11.96875 14.8125 z" overflow="visible" font-family="Bitstream Vera Sans" fill="#000000"/></svg>
