<?xml version="1.0" encoding="utf-8"?>
<svg xmlns="http://www.w3.org/2000/svg" viewBox="0 0 32 32" fill="#000000"><path style="line-height:normal;text-indent:0;text-align:start;text-decoration-line:none;text-decoration-style:solid;text-decoration-color:#000;text-transform:none;block-progression:tb;isolation:auto;mix-blend-mode:normal" d="M 10 2 A 1 1 0 0 0 9 3 A 1 1 0 0 0 10 4 A 1 1 0 0 0 11 3 A 1 1 0 0 0 10 2 z M 17.003906 2 C 14.251807 1.9900286 12.002171 4.248829 12 6.9960938 C 11.98902 8.4001542 12.58639 9.5377413 13.078125 10.619141 C 13.570581 11.702127 13.994471 12.73349 14 14.003906 L 14.003906 15 L 19.990234 15 L 20 14.009766 C 20.01285 12.721356 20.434492 11.67232 20.919922 10.587891 C 21.405352 9.5034611 21.993595 8.3816492 22 7.0039062 C 22.012471 4.2117504 19.70283 2.009996 17.003906 2 z M 24 2 A 1 1 0 0 0 23 3 A 1 1 0 0 0 24 4 A 1 1 0 0 0 25 3 A 1 1 0 0 0 24 2 z M 16.996094 4 C 18.617158 4.006004 20.007529 5.3102496 20 6.9960938 C 19.996405 7.7693509 19.599773 8.6434605 19.095703 9.7695312 C 18.698654 10.656523 18.333491 11.757867 18.15625 13 L 15.84375 13 C 15.666969 11.764748 15.298677 10.671203 14.898438 9.7910156 C 14.389143 8.671002 13.992784 7.8038572 14 7.0097656 L 14 7.0039062 L 14 7 C 14 5.3330628 15.333522 3.9939762 16.996094 4 z M 9 6 A 1 1 0 0 0 8 7 A 1 1 0 0 0 9 8 A 1 1 0 0 0 10 7 A 1 1 0 0 0 9 6 z M 25 6 A 1 1 0 0 0 24 7 A 1 1 0 0 0 25 8 A 1 1 0 0 0 26 7 A 1 1 0 0 0 25 6 z M 10 10 A 1 1 0 0 0 9 11 A 1 1 0 0 0 10 12 A 1 1 0 0 0 11 11 A 1 1 0 0 0 10 10 z M 24 10 A 1 1 0 0 0 23 11 A 1 1 0 0 0 24 12 A 1 1 0 0 0 25 11 A 1 1 0 0 0 24 10 z M 14 16 L 14 18 L 17.023438 19 L 20 18 L 20 16 L 14 16 z M 10.513672 19 C 9.4855942 19.0024 8.6992188 19.265625 8.6992188 19.265625 L 8.6796875 19.273438 L 3.0058594 21.449219 L 4.9902344 27.019531 L 9.9238281 25.130859 L 17.056641 29.056641 L 29.382812 23.955078 L 28.617188 22.107422 L 17.179688 26.841797 L 10.076172 22.931641 L 6.1875 24.419922 L 5.5449219 22.617188 L 9.34375 21.160156 C 9.35012 21.158056 9.8183805 21.001615 10.517578 21 C 11.220313 20.9984 12.038882 21.156264 12.740234 21.789062 L 12.748047 21.794922 L 12.755859 21.800781 C 13.785255 22.693397 14.561694 23.320155 15.644531 23.660156 C 16.727368 24.000158 17.952639 24.039328 20.003906 24.03125 L 19.996094 22.03125 C 17.984361 22.03915 16.932054 21.96795 16.244141 21.751953 C 15.560231 21.537127 15.070945 21.16139 14.080078 20.302734 L 14.066406 20.291016 C 12.908632 19.254125 11.53689 18.997634 10.513672 19 z" font-weight="400" font-family="sans-serif" white-space="normal" overflow="visible" fill="#000000"/></svg>
