<?xml version="1.0" encoding="utf-8"?>
<svg xmlns="http://www.w3.org/2000/svg" viewBox="0 0 32 32" fill="#000000"><path style="text-indent:0;text-align:start;line-height:normal;text-transform:none;block-progression:tb;-inkscape-font-specification:Bitstream Vera Sans" d="M 3.71875 2.28125 L 2.28125 3.71875 L 28.28125 29.71875 L 29.71875 28.28125 L 27.71875 26.25 C 27.892914 25.87285 28 25.442875 28 25 C 28 23.722 26.4675 21.3855 25.8125 20.4375 L 25 19.25 L 24.1875 20.4375 C 23.959884 20.76747 23.616661 21.280446 23.28125 21.84375 L 20.5625 19.125 L 23.875 15.8125 L 14.125 6.09375 L 11.3125 3.28125 L 9.90625 4.71875 L 11.75 6.5625 L 9.875 8.4375 L 3.71875 2.28125 z M 13.1875 7.96875 L 21.03125 15.8125 L 19.15625 17.71875 L 11.28125 9.84375 L 13.1875 7.96875 z M 7.0625 11.25 L 4.875 13.40625 C 3.69 14.59125 3.69 16.53375 4.875 17.71875 L 11.28125 24.125 C 11.87325 24.718 12.6595 25 13.4375 25 C 14.2155 25 15.00275 24.718 15.59375 24.125 L 17.75 21.9375 L 16.34375 20.53125 L 14.15625 22.6875 C 13.75225 23.0915 13.0925 23.0915 12.6875 22.6875 L 6.3125 16.3125 C 5.9075 15.9075 5.9075 15.24975 6.3125 14.84375 L 8.46875 12.65625 L 7.0625 11.25 z M 25 22.84375 C 25.33337 23.405154 25.603239 23.939014 25.78125 24.34375 L 24.75 23.3125 C 24.839365 23.151907 24.8996 23.012827 25 22.84375 z" overflow="visible" font-family="Bitstream Vera Sans" fill="#000000"/></svg>
