<?xml version="1.0" encoding="utf-8"?>
<svg xmlns="http://www.w3.org/2000/svg" viewBox="0 0 32 32" fill="#000000"><path style="text-indent:0;text-align:start;line-height:normal;text-transform:none;block-progression:tb;-inkscape-font-specification:Sans" d="M 24.5 3 C 23.131133 3 22 4.1311327 22 5.5 C 22 5.6276732 22.012295 5.7521878 22.03125 5.875 C 21.375443 5.676951 20.76545 5.5625 20.1875 5.5625 C 15.4405 5.5625 13.19775 11.57375 11.46875 12.84375 C 9.69675 14.14675 4.89175 12.84425 4.21875 15.90625 C 3.8052769 16.631028 3.9975867 17.339397 4.28125 18 C 4.5649133 18.660603 5.0259125 19.373041 5.65625 20.125 C 6.8403065 21.537516 8.6593978 23.116569 11.03125 24.65625 C 11.116754 27.056402 13.078986 29 15.5 29 C 16.482563 29 17.382199 28.666191 18.125 28.125 C 19.741201 28.664416 21.235714 29 22.53125 29 C 23.066482 29 23.559298 28.94659 24 28.8125 C 24.440702 28.678405 24.888179 28.460927 25.1875 27.9375 C 26.2095 26.7215 26.50075 25.52325 24.59375 22.40625 C 22.691621 19.297159 30.025289 12.246669 25.46875 7.8125 C 26.364372 7.4302033 27 6.5266505 27 5.5 C 27 4.1311327 25.868867 3 24.5 3 z M 24.5 5 C 24.787987 5 25 5.2120131 25 5.5 C 25 5.7879869 24.787987 6 24.5 6 C 24.212013 6 24 5.7879869 24 5.5 C 24 5.2120131 24.212013 5 24.5 5 z M 20.1875 7.5625 C 20.9885 7.5625 21.86475 7.837 22.84375 8.375 C 25.78275 9.99 25.342 12.014 23.625 16.25 C 22.828 18.217 22.00775 20.2435 22.34375 22.0625 C 21.01075 20.8865 19.3 19.60025 17 18.28125 C 14.437 16.81025 12.1955 15.937 10.3125 15.375 C 11.1545 15.222 11.97125 14.97275 12.65625 14.46875 C 13.43125 13.89975 14.0635 12.97225 14.8125 11.90625 C 16.1745 9.96725 17.8825 7.5625 20.1875 7.5625 z M 6.875 16.875 C 8.8781079 16.875 12.439486 18.033971 15.8125 19.96875 C 15.854609 19.992908 15.895717 20.007043 15.9375 20.03125 C 15.792374 20.016929 15.648683 20 15.5 20 C 13.723468 20 12.199188 21.059027 11.46875 22.5625 C 9.5679073 21.247833 8.1052248 19.907297 7.1875 18.8125 C 6.6445875 18.164834 6.2922742 17.608303 6.125 17.21875 C 6.0610422 17.069803 6.0432579 16.998721 6.03125 16.96875 C 6.2080571 16.919506 6.504446 16.875 6.875 16.875 z M 15.5 22 C 16.890002 22 18 23.107093 18 24.5 C 18 25.892907 16.890002 27 15.5 27 C 14.104879 27 13 25.892217 13 24.5 C 13 23.107438 14.103601 22 15.5 22 z M 19.46875 22.40625 C 20.539064 23.245179 21.389568 24.057004 22.03125 24.78125 C 22.660017 25.490919 23.082193 26.124574 23.28125 26.5625 C 23.359183 26.733952 23.361382 26.82566 23.375 26.90625 C 23.197896 26.955561 22.902912 27 22.53125 27 C 21.744979 27 20.700088 26.83155 19.53125 26.5 C 19.834031 25.896162 20 25.217581 20 24.5 C 20 23.742375 19.80386 23.034681 19.46875 22.40625 z" overflow="visible" font-family="Sans" fill="#000000"/></svg>
