<?xml version="1.0" encoding="utf-8"?>
<svg xmlns="http://www.w3.org/2000/svg" viewBox="0 0 32 32" fill="#000000"><path d="M 15.0625 3.15625 L 13.9375 4.84375 C 14.355224 5.1226553 14.67154 5.5123021 14.84375 5.96875 C 12.22607 6.7674109 10 8.0716468 10 10 C 10 12.121292 12.432507 12.646505 15 13.03125 L 15 16.34375 C 12.93028 16.826297 11 17.525877 11 19.5 C 11 21.554309 12.961457 22.376988 15 22.90625 L 15 24.84375 C 14.342458 24.913992 13.658478 24.984159 12.96875 25 L 13.03125 27 C 13.627784 26.986396 14.297865 26.936651 15 26.875 L 15 28 L 17 28 L 17 23.375 C 17.714975 23.53686 18.49079 23.736479 18.875 23.9375 C 18.697 24.0685 18.396 24.1915 18 24.3125 L 18 26.40625 C 19.683 25.95925 21 25.185 21 23.875 C 21 22.233052 19.063155 21.798991 17 21.34375 L 17 18.9375 C 16.04 19.1355 15.36 19.31625 15 19.40625 L 15 20.8125 C 13.920048 20.492513 13 20.099828 13 19.5 C 13 19.009326 13.934101 18.652355 15 18.375 C 15.02705 18.368458 15.09601 18.35069 15.125 18.34375 C 15.485125 18.257536 16.042438 18.13576 16.6875 18 C 16.790526 17.978865 16.896058 17.958992 17 17.9375 C 19.409203 17.439361 22 16.804572 22 14.5 C 22 12.602 20.134 11.87775 18 11.46875 L 18 13.53125 C 19.081 13.76025 20 14.064 20 14.5 C 20 15.160654 18.437085 15.566919 17 15.875 L 17 8.46875 C 16.174 8.63875 15.495 8.8745 15 9.0625 L 15 11.03125 C 13.64876 10.816847 12 10.464316 12 10 C 12 8.9367463 15.436352 7.4830475 19.15625 7.09375 C 19.459867 7.6321226 20.171573 8 21 8 C 22.104569 8 23 7.3284271 23 6.5 C 23 5.6715729 22.104569 5 21 5 C 20.861929 5 20.723945 5.0112687 20.59375 5.03125 C 19.69742 5.0541736 18.66298 5.1263065 17.5625 5.3125 C 17.708801 5.1346601 17.865549 4.975349 18.0625 4.84375 L 16.9375 3.15625 C 16.5735 3.39825 16.269 3.70425 16 4.03125 C 15.731 3.70425 15.4255 3.39825 15.0625 3.15625 z" fill="#000000"/></svg>
