<?xml version="1.0" encoding="utf-8"?>
<svg xmlns="http://www.w3.org/2000/svg" viewBox="0 0 32 32" fill="#000000"><path style="text-indent:0;text-align:start;line-height:normal;text-transform:none;block-progression:tb;-inkscape-font-specification:Bitstream Vera Sans" d="M 16 3.40625 L 15.21875 4.375 L 11.21875 9.375 L 11 9.65625 L 11 10 L 11 15 L 10 15 L 10 12 L 10 11.6875 L 9.84375 11.4375 L 7.84375 8.4375 L 7 7.1875 L 6.15625 8.4375 L 4.15625 11.4375 L 4 11.6875 L 4 12 L 4 26 L 4 27 L 5 27 L 13 27 L 14 27 L 14 26 L 14 23 C 14 21.883334 14.883334 21 16 21 C 17.116666 21 18 21.883334 18 23 L 18 26 L 18 27 L 19 27 L 27 27 L 28 27 L 28 26 L 28 12 L 28 11.6875 L 27.84375 11.4375 L 25.84375 8.4375 L 25 7.1875 L 24.15625 8.4375 L 22.15625 11.4375 L 22 11.6875 L 22 12 L 22 15 L 21 15 L 21 10 L 21 9.65625 L 20.78125 9.375 L 16.78125 4.375 L 16 3.40625 z M 16 6.59375 L 19 10.34375 L 19 15 L 17 15 L 17 13 C 17 12.448 16.552 12 16 12 C 15.448 12 15 12.448 15 13 L 15 15 L 13 15 L 13 10.34375 L 16 6.59375 z M 7 10.8125 L 8 12.3125 L 8 16 L 8 17 L 9 17 L 23 17 L 24 17 L 24 16 L 24 12.3125 L 25 10.8125 L 26 12.3125 L 26 25 L 20 25 L 20 23 C 20 20.802666 18.197334 19 16 19 C 13.802666 19 12 20.802666 12 23 L 12 25 L 6 25 L 6 12.3125 L 7 10.8125 z M 8 20 L 8 23 L 10 23 L 10 20 L 8 20 z M 22 20 L 22 23 L 24 23 L 24 20 L 22 20 z" overflow="visible" font-family="Bitstream Vera Sans" fill="#000000"/></svg>
