<?xml version="1.0" encoding="utf-8"?>
<svg xmlns="http://www.w3.org/2000/svg" viewBox="0 0 32 32" fill="#000000"><path style="text-indent:0;text-align:start;line-height:normal;text-transform:none;block-progression:tb;-inkscape-font-specification:Sans" d="M 6 3 L 6 4 L 6 10 L 8 10 L 8 5 L 24 5 L 24 10 L 26 10 L 26 4 L 26 3 L 25 3 L 7 3 L 6 3 z M 10.5 12 C 9.7752947 12 9.0932752 12.205147 8.625 12.6875 C 8.1567248 13.169853 8 13.807336 8 14.375 L 10 14.375 C 10 14.133664 10.05678 14.099647 10.0625 14.09375 C 10.068225 14.087853 10.120705 14 10.5 14 C 10.939152 14 11 14.135768 11 14.5 C 11 14.786937 10.786937 15 10.5 15 L 10 15 L 10 17 L 10.5 17 C 10.786937 17 11 17.213063 11 17.5 C 11 17.864232 10.93915 18 10.5 18 C 10.120705 18 10.068225 17.91215 10.0625 17.90625 C 10.056775 17.900353 10 17.866336 10 17.625 L 8 17.625 C 8 18.192664 8.1567248 18.830147 8.625 19.3125 C 9.0932752 19.794853 9.7752947 20 10.5 20 C 11.908848 20 13 18.791768 13 17.5 C 13 16.937817 12.788328 16.420058 12.46875 16 C 12.788328 15.579942 13 15.062183 13 14.5 C 13 13.208232 11.908848 12 10.5 12 z M 14 12 L 14 13 L 14 20 L 16 20 L 16 17 L 18 17 L 18 15 L 16 15 L 16 14 L 19 14 L 19 12 L 15 12 L 14 12 z M 20 12 L 20 13 L 20 20 L 22 20 L 22 17 L 23 20 L 25 20 L 23.875 16.59375 C 24.559476 16.145217 25 15.370145 25 14.5 C 25 13.130937 23.869063 12 22.5 12 L 21 12 L 20 12 z M 22 14 L 22.5 14 C 22.786937 14 23 14.213063 23 14.5 C 23 14.786937 22.786937 15 22.5 15 L 22 15 L 22 14 z M 6 22 L 6 28 L 6 29 L 7 29 L 25 29 L 26 29 L 26 28 L 26 22 L 24 22 L 24 27 L 8 27 L 8 22 L 6 22 z" fill="#000000"/></svg>
