<?xml version="1.0" encoding="utf-8"?>
<svg xmlns="http://www.w3.org/2000/svg" viewBox="0 0 32 32" fill="#000000"><path style="text-indent:0;text-align:start;line-height:normal;text-transform:none;block-progression:tb;-inkscape-font-specification:Sans" d="M 6 3 L 6 4 L 6 28 L 6 29 L 7 29 L 25 29 L 26 29 L 26 28 L 26 13.4375 L 27.71875 11.71875 L 28 11.40625 L 28 11 L 28 4 L 28 3 L 27 3 L 24 3 L 23 3 L 7 3 L 6 3 z M 8 5 L 22 5 L 22 11 L 22 11.40625 L 22.28125 11.71875 L 24 13.4375 L 24 27 L 8 27 L 8 5 z M 24 5 L 26 5 L 26 10.5625 L 25 11.5625 L 24 10.5625 L 24 5 z M 14 13 C 12.343 13 11 14.343 11 16 C 11 16.768 11.32925 17.549 11.78125 18 C 12.23325 18.451 16 22.1875 16 22.1875 C 16 22.1875 19.77175 18.447 20.21875 18 C 20.66575 17.553 21 16.768 21 16 C 21 14.343 19.657 13 18 13 C 17.228 13 16.532 13.30225 16 13.78125 C 15.468 13.30225 14.772 13 14 13 z" overflow="visible" font-family="Sans" fill="#000000"/></svg>
