<?xml version="1.0" encoding="utf-8"?>
<svg xmlns="http://www.w3.org/2000/svg" viewBox="0 0 32 32" fill="#000000"><path style="text-indent:0;text-align:start;line-height:normal;text-transform:none;block-progression:tb;-inkscape-font-specification:Sans" d="M 16 4 C 9.3844277 4 4 9.3844277 4 16 C 4 22.615572 9.3844277 28 16 28 C 22.615572 28 28 22.615572 28 16 C 28 9.3844277 22.615572 4 16 4 z M 16 6 C 21.534692 6 26 10.465308 26 16 C 26 21.534692 21.534692 26 16 26 C 10.465308 26 6 21.534692 6 16 C 6 10.465308 10.465308 6 16 6 z M 9.59375 13.21875 L 8.40625 14.78125 C 8.40625 14.78125 9.914756 16 12 16 C 14.085244 16 15.59375 14.78125 15.59375 14.78125 L 14.40625 13.21875 C 14.40625 13.21875 13.296756 14 12 14 C 10.703244 14 9.59375 13.21875 9.59375 13.21875 z M 17.59375 13.21875 L 16.40625 14.78125 C 16.40625 14.78125 17.914756 16 20 16 C 22.085244 16 23.59375 14.78125 23.59375 14.78125 L 22.40625 13.21875 C 22.40625 13.21875 21.296756 14 20 14 C 18.703244 14 17.59375 13.21875 17.59375 13.21875 z M 13 20 L 13 22 L 19 22 L 19 20 L 13 20 z" overflow="visible" font-family="Sans" fill="#000000"/></svg>
