<?xml version="1.0" encoding="utf-8"?>
<svg xmlns="http://www.w3.org/2000/svg" viewBox="0 0 32 32" fill="#000000"><path style="text-indent:0;text-align:start;line-height:normal;text-transform:none;block-progression:tb;-inkscape-font-specification:Bitstream Vera Sans" d="M 10 2 L 10 3 L 10 29 L 10 30 L 11 30 L 18.71875 30 C 20.128447 31.239288 21.982917 32 24 32 C 28.406433 32 32 28.406433 32 24 C 32 19.593567 28.406433 16 24 16 C 23.304957 16 22.643682 16.113347 22 16.28125 L 22 3 L 22 2 L 21 2 L 11 2 L 10 2 z M 12 4 L 20 4 L 20 17.09375 C 17.614369 18.481052 16 21.050941 16 24 C 16 25.457374 16.40817 26.821063 17.09375 28 L 12 28 L 12 4 z M 24 18 C 27.325553 18 30 20.674447 30 24 C 30 27.325553 27.325553 30 24 30 C 20.674447 30 18 27.325553 18 24 C 18 20.674447 20.674447 18 24 18 z M 21.71875 20.28125 L 20.28125 21.71875 L 22.5625 24 L 20.28125 26.28125 L 21.71875 27.71875 L 24 25.4375 L 26.28125 27.71875 L 27.71875 26.28125 L 25.4375 24 L 27.71875 21.71875 L 26.28125 20.28125 L 24 22.5625 L 21.71875 20.28125 z" overflow="visible" font-family="Bitstream Vera Sans" fill="#000000"/></svg>
