<?xml version="1.0" encoding="utf-8"?>
<svg xmlns="http://www.w3.org/2000/svg" viewBox="0 0 32 32" fill="#000000"><path style="text-indent:0;text-align:start;line-height:normal;text-transform:none;block-progression:tb;-inkscape-font-specification:Sans" d="M 10 4 C 8.9069372 4 8 4.9069372 8 6 L 8 26 C 8 27.093063 8.9069372 28 10 28 L 22 28 C 23.093063 28 24 27.093063 24 26 L 24 6 C 24 4.9069372 23.093063 4 22 4 L 10 4 z M 10 6 L 22 6 L 22 26 L 10 26 L 10 6 z M 16 7 C 15.447715 7 15 7.4477153 15 8 C 15 8.5522847 15.447715 9 16 9 C 16.552285 9 17 8.5522847 17 8 C 17 7.4477153 16.552285 7 16 7 z M 15 12 C 14.578 12 14.1125 12.0995 13.5625 12.3125 L 12.90625 14.5625 C 13.35825 14.4225 13.764 14.34375 14.125 14.34375 L 14.15625 14.34375 C 14.76525 14.34775 15.25025 14.55025 15.65625 14.78125 L 16.34375 12.40625 C 15.98575 12.18425 15.553 12 15 12 z M 17.28125 12.84375 L 16.59375 15.21875 C 16.96475 15.44475 17.3925 15.65625 17.9375 15.65625 C 18.3645 15.65625 18.81675 15.62525 19.34375 15.40625 L 20 13.0625 C 19.512 13.1955 19.1835 13.15625 18.8125 13.15625 C 18.1745 13.15625 17.68325 13.06975 17.28125 12.84375 z M 14.09375 15.375 C 13.66475 15.375 13.22025 15.50175 12.65625 15.71875 L 12 18 C 12.425 17.875 12.9465 17.78125 13.3125 17.78125 C 13.9465 17.78125 14.2785 17.9565 14.6875 18.1875 L 15.375 15.78125 C 14.981 15.54125 14.60175 15.375 14.09375 15.375 z M 16.28125 16.21875 L 15.59375 18.59375 C 15.95175 18.81675 16.35225 19 16.90625 19 C 17.32725 19 17.7645 18.962 18.3125 18.75 L 19 16.46875 C 18.584 16.57175 18.19175 16.625 17.84375 16.625 C 17.18475 16.625 16.69125 16.44775 16.28125 16.21875 z M 14 23 L 14 25 L 18 25 L 18 23 L 14 23 z" overflow="visible" font-family="Sans" fill="#000000"/></svg>
