<?xml version="1.0" encoding="utf-8"?>
<svg xmlns="http://www.w3.org/2000/svg" viewBox="0 0 32 32" fill="#000000"><path style="text-indent:0;text-align:start;line-height:normal;text-transform:none;block-progression:tb;-inkscape-font-specification:Sans" d="M 4 4 L 4 6 L 4 7 C 4.5362683 7 4.9004546 7.1872641 5.34375 7.625 C 5.7870454 8.0627359 6.2351535 8.7633672 6.65625 9.6875 C 7.498443 11.535766 8.2507969 14.176528 9.1875 16.84375 C 10.124203 19.510972 11.261132 22.238647 13.09375 24.375 C 14.926368 26.511353 17.528391 28 21 28 C 23.406598 28 25.088568 27.277435 26.125 26.5 C 26.997233 25.845732 27.381091 25.220649 27.5 25 C 27.507462 24.986154 27.526326 24.947038 27.53125 24.9375 C 27.559232 24.897393 27.568579 24.853812 27.59375 24.8125 C 28.062566 24.043063 28.066108 23.074929 27.8125 22.1875 C 27.507101 21.11884 26.857092 20.044591 25.90625 19.09375 C 24.955409 18.142908 23.88116 17.492899 22.8125 17.1875 C 22.391035 17.067055 21.959836 17.048383 21.53125 17.0625 L 21.53125 17 C 21.280365 17 21.052517 17.05445 20.84375 17.125 C 20.725261 17.165042 20.606258 17.195366 20.5 17.25 C 20.223834 17.366388 19.97796 17.52204 19.75 17.75 C 19.744384 17.755616 19.755543 17.775598 19.75 17.78125 C 19.713417 17.818552 19.658441 17.836196 19.625 17.875 C 19.256883 18.191176 18.932483 18.519957 18.65625 18.71875 C 18.34649 18.941671 18.169122 19.014522 17.9375 19 C 17.705878 18.985478 17.312476 18.861447 16.6875 18.28125 C 15.424188 17.108313 13.899164 13.584762 12.0625 10.375 C 11.144168 8.7701191 10.113113 7.2243305 8.8125 6.03125 C 7.5118874 4.8381695 5.8981017 4 4 4 z M 8.1875 8.25 C 8.9621745 9.1309731 9.6749341 10.206174 10.34375 11.375 C 12.081836 14.412488 13.332812 17.880687 15.3125 19.71875 C 16.146024 20.492553 16.985434 20.916897 17.8125 20.96875 C 18.319078 21.000508 18.761041 20.866322 19.15625 20.6875 C 19.167039 20.729378 19.175628 20.770958 19.1875 20.8125 C 19.492899 21.88116 20.142908 22.955409 21.09375 23.90625 C 21.853355 24.665856 22.679935 25.241964 23.53125 25.59375 C 22.879088 25.8271 22.0596 26 21 26 C 18.075609 26 16.170069 24.863647 14.625 23.0625 C 13.079931 21.261353 11.969547 18.739028 11.0625 16.15625 C 10.155453 13.573472 9.4519945 10.964234 8.5 8.875 C 8.4008339 8.6573714 8.2942493 8.4568825 8.1875 8.25 z M 21.4375 19.03125 C 21.459998 19.027192 21.474957 19.033873 21.5 19.03125 C 21.678879 19.012514 21.923279 19.031628 22.25 19.125 C 22.903442 19.311739 23.761433 19.761433 24.5 20.5 C 25.238567 21.238567 25.688261 22.096558 25.875 22.75 C 26.06174 23.403441 25.96898 23.718517 25.84375 23.84375 C 25.718517 23.968983 25.403441 24.061744 24.75 23.875 C 24.096558 23.688261 23.238567 23.238567 22.5 22.5 C 21.761433 21.761433 21.311739 20.903442 21.125 20.25 C 20.984945 19.759919 20.988694 19.456451 21.0625 19.28125 C 21.193984 19.175682 21.300243 19.10397 21.375 19.0625 C 21.396287 19.056727 21.413395 19.035598 21.4375 19.03125 z" overflow="visible" font-family="Sans" fill="#000000"/></svg>
