<?xml version="1.0" encoding="utf-8"?>
<svg xmlns="http://www.w3.org/2000/svg" viewBox="0 0 32 32" fill="#000000"><path style="text-indent:0;text-align:start;line-height:normal;text-transform:none;block-progression:tb;-inkscape-font-specification:Sans" d="M 7 3 L 7 4 C 7 4 6.987872 4.9226236 7 5.4375 C 7.3213905 18.886066 12.073458 25.737429 14.1875 28.09375 C 14.48563 28.426064 14.868738 28.806122 15.46875 28.9375 C 16.068762 29.068878 16.630912 28.945 17.3125 28.71875 L 17.34375 28.71875 L 17.40625 28.6875 C 18.340913 28.290563 20.045035 27.691863 21.5625 27.15625 C 22.321232 26.888444 23.031302 26.636175 23.59375 26.4375 C 24.156198 26.238825 24.489327 26.11564 24.75 26 C 25.277155 25.766342 25.829141 25.339082 25.96875 24.65625 C 26.108359 23.973418 25.800717 23.39418 25.40625 22.9375 C 23.758686 21.02479 20.310553 15.665284 20 5.40625 C 19.987839 5.0014564 20 4 20 4 L 20 3 L 19 3 L 8 3 L 7 3 z M 9 5 L 18 5 C 18.000194 5.208845 17.9949 5.3004926 18 5.46875 C 18.322237 16.113765 21.882453 21.898267 23.84375 24.1875 C 23.76381 24.21808 23.412414 24.352457 22.90625 24.53125 C 22.350011 24.727732 21.638018 24.980681 20.875 25.25 C 19.381956 25.776993 17.742161 26.369296 16.6875 26.8125 C 16.66646 26.8195 16.67634 26.8061 16.65625 26.8125 C 16.63998 26.8194 16.60972 26.83697 16.59375 26.84375 C 16.176031 26.966124 15.90273 26.999229 15.90625 27 C 15.91025 27.000878 15.89012 27.01069 15.65625 26.75 C 13.826292 24.710321 9.3106095 18.403684 9 5.40625 C 8.997148 5.2851698 9.0002453 5.1764615 9 5 z M 12 7 L 11 7.03125 C 11.31 16.46825 14.89575 22.5725 16.46875 24.8125 C 16.99775 24.6155 17.67025 24.36075 18.40625 24.09375 C 17.20025 22.49675 13.324 16.624 13 7 L 12 7 z M 15 7 L 14 7.03125 C 14.265 14.93225 17.033 19.68975 18.875 22.84375 C 19.055 23.15275 19.215 23.43675 19.375 23.71875 C 20.045 23.47675 20.7335 23.23725 21.3125 23.03125 C 21.1035 22.65525 20.872 22.26575 20.625 21.84375 C 18.785 18.68975 16.254 14.376 16 7 L 15 7 z" overflow="visible" font-family="Sans" fill="#000000"/></svg>
