<?xml version="1.0" encoding="utf-8"?>
<svg xmlns="http://www.w3.org/2000/svg" viewBox="0 0 32 32" fill="#000000"><path d="M 8 2 L 8 16 L 2 16 L 16 30 L 30 16 L 24 16 L 24 2 L 8 2 z M 10 4 L 22 4 L 22 18 L 25 18 L 16 27 L 7 18 L 10 18 L 10 4 z M 16.5 8 C 15.186026 8 14.021022 8.6961422 13.236328 9.7050781 C 12.73325 10.351921 12.385539 11.140527 12.1875 12 L 11 12 L 11 13 L 12.039062 13 C 12.026796 13.16698 12 13.329394 12 13.5 C 12 13.670606 12.026796 13.83302 12.039062 14 L 11 14 L 11 15 L 12.1875 15 C 12.385539 15.859473 12.73325 16.648079 13.236328 17.294922 C 14.021022 18.303858 15.186026 19 16.5 19 C 18.149933 19 19.535482 17.920096 20.294922 16.462891 L 18.521484 15.537109 C 18.024924 16.489904 17.276067 17 16.5 17 C 15.880974 17 15.29651 16.688173 14.814453 16.068359 C 14.585351 15.773786 14.393831 15.409121 14.251953 15 L 17 15 L 17 14 L 14.039062 14 C 14.021442 13.835232 14 13.672051 14 13.5 C 14 13.327949 14.021442 13.164768 14.039062 13 L 16.998047 13 L 16.998047 12 L 14.251953 12 C 14.393831 11.590879 14.585351 11.226214 14.814453 10.931641 C 15.29651 10.311827 15.880974 10 16.5 10 C 17.276067 10 18.024924 10.510096 18.521484 11.462891 L 20.294922 10.537109 C 19.535482 9.0799047 18.149933 8 16.5 8 z" fill="#000000"/></svg>
