<?xml version="1.0" encoding="utf-8"?>
<svg xmlns="http://www.w3.org/2000/svg" viewBox="0 0 32 32" fill="#000000"><path style="text-indent:0;text-align:start;line-height:normal;text-transform:none;block-progression:tb;-inkscape-font-specification:Sans" d="M 16 3 C 14.236398 3 12.706583 3.9975304 12.5625 4.09375 C 12.5555 4.0984 12.46875 4.15625 12.46875 4.15625 L 8.5625 6.09375 L 8 6.375 L 8 6.4375 C 7.7735828 6.5731946 7.518214 6.7246197 7.21875 6.9375 C 6.5191277 7.4348414 5.7026942 8.0858253 5.15625 8.96875 C 4.8068311 9.532829 4.7531378 10.027718 4.625 10.71875 C 4.4968622 11.409782 4.3711347 12.233755 4.28125 13 C 4.1014807 14.532489 4 15.9375 4 15.9375 L 4 15.96875 L 4 16 L 4 24 L 4 25 L 5 25 L 8 25 L 8 26 L 8 28 L 8 29 L 9 29 L 23 29 L 24 29 L 24 28 L 24 25 L 27 25 L 28 25 L 28 24 L 28 16 L 28 15.96875 L 28 15.9375 C 28 15.9375 27.898519 14.532489 27.71875 13 C 27.628865 12.233755 27.503138 11.409782 27.375 10.71875 C 27.246862 10.027718 27.193169 9.532829 26.84375 8.96875 C 26.296961 8.0863548 25.48069 7.4348077 24.78125 6.9375 C 24.481864 6.7246341 24.22643 6.573197 24 6.4375 L 24 6.375 L 23.4375 6.09375 L 19.53125 4.15625 L 19.4375 4.09375 C 19.293417 3.9975304 17.763602 3 16 3 z M 16 5 C 16.867082 5 18.46875 5.84375 18.46875 5.84375 L 18.5 5.875 L 18.5625 5.90625 L 18.65625 5.9375 L 16 13 L 21 10 L 20 8 L 22 8 L 22 12 L 20 12 L 19 12 L 19 13 L 19 15.78125 C 19 16.995309 20.004691 18 21.21875 18 L 22 18 L 22 20 L 20 20 L 19 20 L 19 21 L 19 23.78125 C 19 24.995309 20.004691 26 21.21875 26 L 22 26 L 22 27 L 10 27 L 10 26 L 10.78125 26 C 11.995309 26 13 24.995309 13 23.78125 L 13 21 L 13 20 L 12 20 L 10 20 L 10 8 L 12 8 L 11 10 L 16 13 L 13.34375 5.9375 L 13.4375 5.90625 L 13.5 5.875 L 13.53125 5.84375 C 13.53125 5.84375 15.132918 5 16 5 z M 8 8.875 L 8 20 L 8 21 L 8 23 L 6 23 L 6 16.0625 L 6 16 C 6.00435 15.94216 6.1113006 14.667526 6.28125 13.21875 C 6.368115 12.478245 6.4794503 11.710155 6.59375 11.09375 C 6.7080497 10.477345 6.9001689 9.940171 6.84375 10.03125 C 7.0520687 9.6946563 7.5246536 9.2587871 8 8.875 z M 24 8.875 C 24.475182 9.2586732 24.947417 9.6942409 25.15625 10.03125 C 25.09983 9.940171 25.29195 10.477345 25.40625 11.09375 C 25.52055 11.710155 25.631885 12.478245 25.71875 13.21875 C 25.888699 14.667526 25.995651 15.942159 26 16 C 26.000097 16.0013 26 16.0625 26 16.0625 L 26 23 L 24 23 L 24 21 L 24 20 L 24 17 L 24 13 L 24 12 L 24 8.875 z M 21 14 L 22 14 L 22 16 L 21.21875 16 C 21.084809 16 21 15.915191 21 15.78125 L 21 14 z M 16 15 C 15.447715 15 15 15.447715 15 16 C 15 16.552285 15.447715 17 16 17 C 16.552285 17 17 16.552285 17 16 C 17 15.447715 16.552285 15 16 15 z M 16 19 C 15.447715 19 15 19.447715 15 20 C 15 20.552285 15.447715 21 16 21 C 16.552285 21 17 20.552285 17 20 C 17 19.447715 16.552285 19 16 19 z M 10 22 L 11 22 L 11 23.78125 C 11 23.915191 10.915191 24 10.78125 24 L 10 24 L 10 22 z M 21 22 L 22 22 L 22 24 L 21.21875 24 C 21.084809 24 21 23.915191 21 23.78125 L 21 22 z M 16 23 C 15.447715 23 15 23.447715 15 24 C 15 24.552285 15.447715 25 16 25 C 16.552285 25 17 24.552285 17 24 C 17 23.447715 16.552285 23 16 23 z" fill="#000000"/></svg>
