<?xml version="1.0" encoding="utf-8"?>
<svg xmlns="http://www.w3.org/2000/svg" viewBox="0 0 32 32" fill="#000000"><path style="text-indent:0;text-align:start;line-height:normal;text-transform:none;block-progression:tb;-inkscape-font-specification:Sans" d="M 11 6 C 5.4889972 6 1 10.488997 1 16 C 1 21.511003 5.4889972 26 11 26 C 12.825695 26 14.524681 25.484262 16 24.625 C 17.475323 25.483932 19.173313 26 21 26 C 26.514 26 31 21.514 31 16 C 31 10.486 26.514 6 21 6 C 19.173313 6 17.475323 6.5160685 16 7.375 C 14.524681 6.5157375 12.825695 6 11 6 z M 11 8 C 12.147805 8 13.233565 8.2553485 14.21875 8.6875 C 12.251719 10.514861 11 13.109769 11 16 C 11 18.890231 12.251719 21.485139 14.21875 23.3125 C 13.233565 23.744651 12.147805 24 11 24 C 6.5698774 24 3 20.430123 3 16 C 3 11.569877 6.5698774 8 11 8 z" overflow="visible" font-family="Sans" fill="#000000"/></svg>
