<?xml version="1.0" encoding="utf-8"?>
<svg xmlns="http://www.w3.org/2000/svg" viewBox="0 0 32 32" fill="#000000"><path d="M 8 6 L 8 9 L 11 9 L 11 6 L 8 6 z M 14 6 L 14 9 L 17 9 L 17 6 L 14 6 z M 20 6 L 20 9 L 23 9 L 23 6 L 20 6 z M 8 12 L 8 15 L 11 15 L 11 12 L 8 12 z M 14 12 L 14 15 L 17 15 L 17 12 L 14 12 z M 20 12 L 20 15 L 23 15 L 23 12 L 20 12 z M 8 18 L 8 21 L 11 21 L 11 18 L 8 18 z M 14 18 L 14 21 L 17 21 L 17 18 L 14 18 z M 20 18 L 20 21 L 23 21 L 23 18 L 20 18 z M 14 24 L 14 27 L 17 27 L 17 24 L 14 24 z" fill="#000000"/></svg>
