<?xml version="1.0" encoding="utf-8"?>
<svg xmlns="http://www.w3.org/2000/svg" viewBox="0 0 32 32" fill="#000000"><path style="text-indent:0;text-align:start;line-height:normal;text-transform:none;block-progression:tb;-inkscape-font-specification:Bitstream Vera Sans" d="M 16 3 C 15.171573 3 14.5 3.6715729 14.5 4.5 C 14.5 4.9458887 14.691152 5.3502494 15 5.625 L 15 6.0625 C 12.995862 6.2606795 11.167284 7.0441995 9.6875 8.25 L 9.375 7.9375 C 9.3760006 7.9150156 9.375 7.8977312 9.375 7.875 C 9.375 7.0465729 8.7034272 6.375 7.875 6.375 C 7.0465729 6.375 6.375 7.0465729 6.375 7.875 C 6.375 8.7034272 7.0465729 9.375 7.875 9.375 C 7.8977312 9.375 7.9150156 9.3760006 7.9375 9.375 L 8.25 9.6875 C 7.0380495 11.168523 6.2294946 12.991141 6.03125 15 L 5.625 15 C 5.3502494 14.691152 4.9458887 14.5 4.5 14.5 C 3.6715729 14.5 3 15.171573 3 16 C 3 16.828427 3.6715729 17.5 4.5 17.5 C 4.9458887 17.5 5.3502494 17.308848 5.625 17 L 6.0625 17 C 6.2612449 19.009856 7.0357552 20.828614 8.25 22.3125 L 7.9375 22.625 C 7.9171944 22.624185 7.8955056 22.625 7.875 22.625 C 7.0465729 22.625 6.375 23.296573 6.375 24.125 C 6.375 24.953427 7.0465729 25.625 7.875 25.625 C 8.7034272 25.625 9.375 24.953427 9.375 24.125 C 9.375 24.104494 9.3758151 24.082806 9.375 24.0625 L 9.6875 23.75 C 11.171386 24.964245 12.990144 25.738755 15 25.9375 L 15 26.375 C 14.691152 26.649751 14.5 27.054111 14.5 27.5 C 14.5 28.328427 15.171573 29 16 29 C 16.828427 29 17.5 28.328427 17.5 27.5 C 17.5 27.054111 17.308848 26.649751 17 26.375 L 17 25.9375 C 19.009856 25.738755 20.828614 24.964245 22.3125 23.75 L 22.625 24.0625 C 22.623999 24.084984 22.625 24.102269 22.625 24.125 C 22.625 24.953427 23.296573 25.625 24.125 25.625 C 24.953427 25.625 25.625 24.953427 25.625 24.125 C 25.625 23.296573 24.953427 22.625 24.125 22.625 C 24.102269 22.625 24.084984 22.623999 24.0625 22.625 L 23.75 22.3125 C 24.964245 20.828614 25.738755 19.009856 25.9375 17 L 26.375 17 C 26.649751 17.308848 27.054111 17.5 27.5 17.5 C 28.328427 17.5 29 16.828427 29 16 C 29 15.171573 28.328427 14.5 27.5 14.5 C 27.054111 14.5 26.649751 14.691152 26.375 15 L 25.96875 15 C 25.770505 12.991141 24.961951 11.168523 23.75 9.6875 L 24.0625 9.375 C 24.084984 9.3760006 24.102269 9.375 24.125 9.375 C 24.953427 9.375 25.625 8.7034272 25.625 7.875 C 25.625 7.0465729 24.953427 6.375 24.125 6.375 C 23.296573 6.375 22.625 7.0465729 22.625 7.875 C 22.625 7.8977312 22.623999 7.9150156 22.625 7.9375 L 22.3125 8.25 C 20.832716 7.0441995 19.004138 6.2606795 17 6.0625 L 17 5.625 C 17.308848 5.3502494 17.5 4.9458887 17.5 4.5 C 17.5 3.6715729 16.828427 3 16 3 z M 15 8.0625 L 15 9 L 17 9 L 17 8.0625 C 18.466545 8.2451861 19.798281 8.8250581 20.90625 9.6875 L 20.25 10.34375 L 21.65625 11.75 L 22.3125 11.09375 C 23.170914 12.198319 23.755193 13.538744 23.9375 15 L 23 15 L 23 17 L 23.9375 17 C 23.75504 18.464733 23.173227 19.800142 22.3125 20.90625 L 21.65625 20.25 L 20.25 21.65625 L 20.90625 22.3125 C 19.800142 23.173227 18.464733 23.75504 17 23.9375 L 17 23 L 15 23 L 15 23.9375 C 13.535267 23.75504 12.199858 23.173227 11.09375 22.3125 L 11.75 21.65625 L 10.34375 20.25 L 9.6875 20.90625 C 8.8267728 19.800142 8.2449604 18.464733 8.0625 17 L 9 17 L 9 15 L 8.0625 15 C 8.2448073 13.538744 8.8290858 12.198319 9.6875 11.09375 L 10.34375 11.75 L 11.75 10.34375 L 11.09375 9.6875 C 12.201719 8.8250581 13.533455 8.2451861 15 8.0625 z M 16 10 C 12.698136 10 10 12.698136 10 16 C 10 19.301864 12.698136 22 16 22 C 19.301864 22 22 19.301864 22 16 C 22 12.698136 19.301864 10 16 10 z M 16 12 C 18.220984 12 20 13.779016 20 16 C 20 18.220984 18.220984 20 16 20 C 13.779016 20 12 18.220984 12 16 C 12 13.779016 13.779016 12 16 12 z" fill="#000000"/></svg>
