<?xml version="1.0" encoding="utf-8"?>
<svg xmlns="http://www.w3.org/2000/svg" viewBox="0 0 32 32" fill="#000000"><path d="M 16 2.75 L 15.40625 3.1875 L 3.90625 11.8125 L 5.09375 13.4375 L 6 12.75 L 6 16.5 L 3.6875 16.03125 L 3.3125 18 L 10.875 19.53125 L 3.3125 21.03125 L 3.6875 23 L 28.6875 18 L 28.3125 16.03125 L 26 16.5 L 26 12.75 L 26.90625 13.4375 L 28.09375 11.8125 L 16.59375 3.1875 L 16 2.75 z M 16 5.25 L 24 11.25 L 24 16.90625 L 15.96875 18.5 L 8 16.90625 L 8 11.25 L 16 5.25 z M 16 8 L 14 9.53125 L 14 12 L 18 12 L 18 9.53125 L 16 8 z M 24.53125 20.21875 L 19.4375 21.21875 L 28.3125 23 L 28.6875 21.03125 L 24.53125 20.21875 z M 8 23.125 L 6 23.53125 L 6 27 L 26 27 L 26 23.5625 L 24 23.125 L 24 25 L 8 25 L 8 23.125 z" fill="#000000"/></svg>
