<?xml version="1.0" encoding="utf-8"?>
<svg xmlns="http://www.w3.org/2000/svg" viewBox="0 0 32 32" fill="#000000"><path style="text-indent:0;text-align:start;line-height:normal;text-transform:none;block-progression:tb;-inkscape-font-specification:Bitstream Vera Sans" d="M 6 3 L 6 4 L 6 10 L 8 10 L 8 5 L 24 5 L 24 10 L 26 10 L 26 4 L 26 3 L 25 3 L 7 3 L 6 3 z M 8.15625 12 L 7.9375 12.6875 L 6.03125 18.6875 L 6 18.84375 L 6 19 L 6 20 L 8 20 L 8 19.21875 L 8.0625 19 L 9.9375 19 L 10 19.21875 L 10 20 L 12 20 L 12 19 L 12 18.84375 L 11.96875 18.6875 L 10.0625 12.6875 L 9.84375 12 L 9.09375 12 L 8.90625 12 L 8.15625 12 z M 15.15625 12 L 14.9375 12.6875 L 13.03125 18.6875 L 13 18.84375 L 13 19 L 13 20 L 15 20 L 15 19.21875 L 15.0625 19 L 16.96875 19 L 17 19.125 L 17 20 L 19 20 L 19 19 L 19 18.84375 L 18.9375 18.6875 L 16.9375 12.6875 L 16.71875 12 L 16 12 L 15.90625 12 L 15.15625 12 z M 22.5 12 C 21.116667 12 20 13.116667 20 14.5 L 20 17.5 C 20 18.883333 21.116667 20 22.5 20 C 23.883333 20 25 18.883333 25 17.5 L 25 17 L 23 17 L 23 17.5 C 23 17.716667 22.716667 18 22.5 18 C 22.283333 18 22 17.716667 22 17.5 L 22 14.5 C 22 14.283333 22.283333 14 22.5 14 C 22.716667 14 23 14.283333 23 14.5 L 23 15 L 25 15 L 25 14.5 C 25 13.116667 23.883333 12 22.5 12 z M 9 16 L 9.3125 17 L 8.6875 17 L 9 16 z M 15.96875 16.0625 L 16.28125 17 L 15.6875 17 L 15.96875 16.0625 z M 6 22 L 6 28 L 6 29 L 7 29 L 25 29 L 26 29 L 26 28 L 26 22 L 24 22 L 24 27 L 8 27 L 8 22 L 6 22 z" fill="#000000"/></svg>
