<?xml version="1.0" encoding="utf-8"?>
<svg xmlns="http://www.w3.org/2000/svg" viewBox="0 0 32 32" fill="#000000"><path style="text-indent:0;text-align:start;line-height:normal;text-transform:none;block-progression:tb;-inkscape-font-specification:Sans" d="M 24 3 L 24 5 L 25.5625 5 L 22.8125 7.78125 C 21.975936 7.3523827 21.026234 7.09375 20 7.09375 C 17.915 7.09375 16.076 8.16225 15 9.78125 C 13.924 8.16325 12.085 7.09375 10 7.09375 C 6.636 7.09375 4 9.694 4 13 C 4 15.799531 6.5396488 18.94766 9.125 21.4375 L 7.5625 23 L 6 23 L 5.59375 23 L 5.28125 23.28125 L 3.28125 25.28125 L 1.59375 27 L 3.5625 27 L 2.28125 28.28125 L 3.71875 29.71875 L 5 28.4375 L 5 30.40625 L 6.71875 28.71875 L 8.71875 26.71875 L 9 26.40625 L 9 26 L 9 24.4375 L 16.71875 16.71875 L 15.28125 15.28125 L 10.5625 20 C 8.180991 17.714782 6 15.062218 6 13 C 6 10.815 7.757 9.09375 10 9.09375 C 12.206 9.09375 14 10.88775 14 13.09375 L 16 13.09375 C 16 10.88775 17.794 9.09375 20 9.09375 C 22.243 9.09375 24 10.815 24 13 C 24 16.434 17.963 21.59925 15 23.78125 C 14.375 23.32125 13.6255 22.71125 12.8125 22.03125 L 11.375 23.46875 C 12.863 24.71475 14.0915 25.5705 14.4375 25.8125 L 15 26.21875 L 15.5625 25.8125 C 16.6305 25.0655 26 18.371 26 13 C 26 11.442365 25.408253 10.04375 24.4375 9 L 27 6.4375 L 27 8 L 29 8 L 29 4 L 29 3 L 28 3 L 24 3 z" overflow="visible" font-family="Sans" fill="#000000"/></svg>
