<?xml version="1.0" encoding="utf-8"?>
<svg xmlns="http://www.w3.org/2000/svg" viewBox="0 0 32 32" fill="#000000"><path style="text-indent:0;text-align:start;line-height:normal;text-transform:none;block-progression:tb;-inkscape-font-specification:Sans" d="M 5 4 L 5 9.59375 L 7 8.84375 L 7 4 L 5 4 z M 9 4 L 9 8.09375 L 11 7.34375 L 11 4 L 9 4 z M 13 4 L 13 6.59375 L 15 5.84375 L 15 4 L 13 4 z M 17 4 L 17 5.84375 L 19 6.59375 L 19 4 L 17 4 z M 21 4 L 21 7.34375 L 23 8.09375 L 23 4 L 21 4 z M 25 4 L 25 8.84375 L 27 9.59375 L 27 4 L 25 4 z M 16 8.09375 L 15.65625 8.21875 L 5.65625 11.96875 L 5 12.21875 L 5 12.90625 L 5 22.90625 L 5 23.53125 L 5.5625 23.8125 L 15.5625 28.5625 L 16 28.75 L 16.4375 28.5625 L 26.4375 23.8125 L 27 23.53125 L 27 22.90625 L 27 12.90625 L 27 12.21875 L 26.34375 11.96875 L 16.34375 8.21875 L 16 8.09375 z M 16 10.21875 L 23.3125 12.96875 L 16 16.15625 L 8.6875 12.96875 L 16 10.21875 z M 7 14.4375 L 15 17.9375 L 15 26.0625 L 7 22.28125 L 7 14.4375 z M 25 14.4375 L 25 22.28125 L 17 26.0625 L 17 17.9375 L 25 14.4375 z" overflow="visible" font-family="Sans" fill="#000000"/></svg>
