<?xml version="1.0" encoding="utf-8"?>
<svg xmlns="http://www.w3.org/2000/svg" viewBox="0 0 32 32" fill="#000000"><path d="M 5 5.21875 L 9.21875 12.21875 C 9.97475 13.35475 10.5615 13.5 12.0625 13.5 L 16.09375 13.5 L 10.59375 6.59375 C 9.95875 5.79175 9.3045 5.21875 7.9375 5.21875 L 5 5.21875 z M 17.09375 14.75 C 13.75075 14.766 12.78875 15.54975 12.46875 16.09375 C 12.14875 16.63675 12.288 17.0165 12.625 17.5625 C 12.962 18.1075 15.09375 21.59275 15.09375 21.59375 C 14.18275 20.05775 15.5305 16.5625 20.3125 16.5625 C 21.3995 16.5625 21.8865 16.74125 21.9375 16.78125 C 21.4115 14.88925 19.66675 14.714 17.09375 14.75 z M 19.375 17.59375 C 15.622 17.88275 14.56425 20.7545 15.28125 21.9375 C 15.82025 22.8265 16.38975 23.91 16.96875 24.875 C 17.67675 26.057 18.96575 26.78325 20.34375 26.78125 L 27 26.78125 L 19.375 17.59375 z" fill="#000000"/></svg>
