<?xml version="1.0" encoding="utf-8"?>
<svg xmlns="http://www.w3.org/2000/svg" viewBox="0 0 32 32" fill="#000000"><path d="M 13 5 C 10.678261 5 9.1479031 5.0721317 8.03125 5.34375 C 7.4729235 5.4795592 6.9900189 5.647174 6.59375 6.03125 C 6.1974811 6.415326 6 7.0055556 6 7.5 C 6 8.3777778 6.4294861 9.0646625 6.84375 9.4375 C 6.9174913 9.5038672 6.9258298 9.4790263 7 9.53125 L 7 12.4375 C 5.2424275 13.21552 4 14.966137 4 17 L 4 26 L 4 27 L 5 27 L 27 27 L 28 27 L 28 26 L 28 21 L 30 21 L 30 19 L 28 19 L 28 17 C 28 14.966137 26.757573 13.21552 25 12.4375 L 25 10.46875 C 25.473304 10.101542 26 9.5438722 26 8.5 C 26 8.0128788 25.796131 7.4313873 25.40625 7.0625 C 25.016369 6.6936127 24.524618 6.5177229 23.96875 6.375 C 22.916938 6.10494 21.466568 6.009426 19.34375 6 C 18.964805 5.6709218 18.494113 5.5098905 17.96875 5.375 C 16.857014 5.0895542 15.328986 5 13 5 z M 13 7 C 15.271014 7 16.730486 7.1229458 17.46875 7.3125 C 17.813141 7.4009248 17.966457 7.4740026 18 7.5 C 18 7.9939394 17.625 8.0625 17.625 8.0625 L 17 8.3125 L 17 9 L 17 12 L 9 12 L 9 9 L 9 8.25 L 8.28125 8.03125 C 8.28125 8.03125 8.241986 8.045913 8.15625 7.96875 C 8.0705139 7.8915875 8 7.8222222 8 7.5 C 8 7.3944444 7.9900189 7.478424 8 7.46875 C 8.0099811 7.459076 8.1333265 7.3704408 8.5 7.28125 C 9.2333469 7.1028683 10.721739 7 13 7 z M 19.9375 8.03125 C 21.662511 8.0615301 22.841255 8.1513865 23.46875 8.3125 C 23.813141 8.4009248 23.966457 8.4740026 24 8.5 C 24 8.9939394 23.625 9.0625 23.625 9.0625 L 23 9.3125 L 23 10 L 23 12 L 19 12 L 19 9.46875 C 19.384559 9.1703931 19.793592 8.7397039 19.9375 8.03125 z M 12 9 C 11.447715 9 11 9.4477153 11 10 C 11 10.552285 11.447715 11 12 11 C 12.552285 11 13 10.552285 13 10 C 13 9.4477153 12.552285 9 12 9 z M 14.5 10 C 14.223858 10 14 10.223858 14 10.5 C 14 10.776142 14.223858 11 14.5 11 C 14.776142 11 15 10.776142 15 10.5 C 15 10.223858 14.776142 10 14.5 10 z M 20.5 10 C 20.223858 10 20 10.223858 20 10.5 C 20 10.776142 20.223858 11 20.5 11 C 20.776142 11 21 10.776142 21 10.5 C 21 10.223858 20.776142 10 20.5 10 z M 9 14 L 23 14 C 24.654545 14 26 15.345455 26 17 L 26 25 L 6 25 L 6 17 C 6 15.345455 7.3454545 14 9 14 z M 23 21 C 22.447715 21 22 21.447715 22 22 C 22 22.552285 22.447715 23 23 23 C 23.552285 23 24 22.552285 24 22 C 24 21.447715 23.552285 21 23 21 z" fill="#000000"/></svg>
