<?xml version="1.0" encoding="utf-8"?>
<svg xmlns="http://www.w3.org/2000/svg" viewBox="0 0 32 32" fill="#000000"><path style="text-indent:0;text-align:start;line-height:normal;text-transform:none;block-progression:tb;-inkscape-font-specification:Sans" d="M 6 5 C 4.8954305 5 4 5.8954305 4 7 C 4 8.1045695 4.8954305 9 6 9 C 7.1045695 9 8 8.1045695 8 7 C 8 5.8954305 7.1045695 5 6 5 z M 11 6 L 11 8 L 28 8 L 28 6 L 11 6 z M 6 14 C 4.8954305 14 4 14.895431 4 16 C 4 17.104569 4.8954305 18 6 18 C 7.1045695 18 8 17.104569 8 16 C 8 14.895431 7.1045695 14 6 14 z M 11 15 L 11 17 L 28 17 L 28 15 L 11 15 z M 6 23 C 4.8954305 23 4 23.895431 4 25 C 4 26.104569 4.8954305 27 6 27 C 7.1045695 27 8 26.104569 8 25 C 8 23.895431 7.1045695 23 6 23 z M 11 24 L 11 26 L 28 26 L 28 24 L 11 24 z" overflow="visible" font-family="Sans" fill="#000000"/></svg>
