<?xml version="1.0" encoding="utf-8"?>
<svg xmlns="http://www.w3.org/2000/svg" viewBox="0 0 32 32" fill="#000000"><path style="text-indent:0;text-align:start;line-height:normal;text-transform:none;block-progression:tb;-inkscape-font-specification:Sans" d="M 18.8125 3 C 18.301628 3.029787 17.801564 3.1534382 17.375 3.34375 C 16.521871 3.7243737 15.915924 4.3705824 15.46875 5.0625 C 15.32497 5.2849721 15.206372 5.5209816 15.09375 5.75 C 14.825613 5.3338932 14.524143 4.9784514 14.21875 4.6875 C 13.269232 3.7828824 12.319607 3.46875 11.53125 3.46875 C 10.295509 3.46875 9.0639533 4.1825561 8.53125 5.53125 C 8.0836374 6.6645165 8.350722 7.9212769 8.875 9.1875 C 8.9099519 9.2719149 8.9620546 9.3529098 9 9.4375 C 8.3733739 9.2832869 7.7954639 9.21875 7.28125 9.21875 C 6.482848 9.21875 5.4592901 9.4177885 4.5625 10.09375 C 3.6657099 10.769711 3 11.964182 3 13.5625 C 3 14.434185 3.2821011 15.213602 3.75 15.78125 C 4.2178989 16.348898 4.8262641 16.716323 5.4375 16.9375 C 5.489168 16.956196 5.5419918 16.951702 5.59375 16.96875 C 4.6817889 17.918709 4.1456012 19.114696 4.4375 20.375 C 4.7615 21.771 6.103 22.59375 8 22.59375 C 8.208 22.59375 8.45875 22.5805 8.71875 22.5625 C 8.34375 23.3305 8.09375 24.177 8.09375 24.875 C 8.09375 26.473 9.2855 29 12.4375 29 C 13.8505 29 14.9885 28.538 15.8125 27.625 C 16.248749 27.141377 16.54368 26.582563 16.75 26 C 16.817115 26.067014 16.868856 26.155779 16.9375 26.21875 C 17.760151 26.973407 18.65928 27.525649 19.75 27.4375 C 20.265051 27.39599 20.864829 27.197147 21.4375 26.6875 C 22.010171 26.177853 22.4375 25.300601 22.4375 24.21875 C 22.4375 23.811416 22.427142 23.422274 22.40625 23.0625 C 23.585759 23.541514 24.619618 23.5625 24.9375 23.5625 C 25.1505 23.5625 26.14551 23.59086 27.125 23.03125 C 28.10449 22.471639 29 21.208385 29 19.3125 C 29 17.422105 27.886121 16.00526 26.5625 15.25 C 27.029815 14.941087 27.429665 14.578122 27.75 14.15625 C 28.323033 13.401582 28.676641 12.482944 28.4375 11.5 C 28.156068 10.337435 26.966021 9 24.9375 9 C 24.456676 9 24.01393 9.0468184 23.59375 9.125 C 23.759091 8.5978816 23.858119 8.0353439 23.875 7.4375 C 23.898852 6.5927732 23.69607 5.6899566 23.125 4.90625 C 22.55393 4.1225434 21.658344 3.5155094 20.4375 3.1875 C 19.871074 3.0353325 19.323372 2.9702134 18.8125 3 z M 18.9375 5 C 19.210615 4.9818428 19.520676 5.0214175 19.90625 5.125 C 20.793906 5.3634906 21.263133 5.7258004 21.53125 6.09375 C 21.799367 6.4616996 21.889398 6.8963518 21.875 7.40625 C 21.8462 8.4260464 21.179455 9.6663753 20.8125 10.03125 C 20.340321 10.50096 20.219984 10.628699 19.75 11.09375 A 1.0031688 1.0031688 0 0 0 19.6875 11.15625 C 19.673844 11.16976 19.669815 11.174081 19.65625 11.1875 A 1.0031688 1.0031688 0 0 0 19.53125 11.3125 C 18.965489 11.87195 18.367486 12.478753 18.1875 12.65625 C 17.751375 12.372149 17.249669 12.190043 16.71875 12.09375 C 16.633552 11.485522 16.394719 9.897056 16.3125 9.3125 A 1.001098 1.001098 0 0 0 16.3125 9.28125 C 16.309496 9.259801 16.315604 9.240064 16.3125 9.21875 A 1.001098 1.001098 0 0 0 16.34375 8.96875 C 16.32616 8.4321429 16.571097 7.0616647 17.15625 6.15625 C 17.448826 5.7035426 17.799816 5.3744076 18.21875 5.1875 C 18.428217 5.0940462 18.664385 5.0181572 18.9375 5 z M 11.53125 5.46875 C 11.61789 5.46875 12.249518 5.5901176 12.84375 6.15625 C 13.437982 6.7223824 14.085864 7.7213056 14.34375 9.5625 C 14.417793 10.088742 14.619931 11.521267 14.71875 12.21875 C 14.480139 12.300477 14.247167 12.407917 14.03125 12.53125 C 13.823513 12.357425 13.442219 12.06195 12.96875 11.65625 A 1.0001 1.0001 0 0 0 12.9375 11.625 A 1.0001 1.0001 0 0 0 12.8125 11.5 A 1.0001 1.0001 0 0 0 12.78125 11.46875 C 11.851848 10.524776 11.130222 9.4000269 10.71875 8.40625 C 10.307278 7.4124731 10.287863 6.5497335 10.40625 6.25 C 10.565547 5.8466939 11.326991 5.46875 11.53125 5.46875 z M 24.9375 11 C 26.192979 11 26.399432 11.553315 26.5 11.96875 C 26.54186 12.140806 26.47447 12.549668 26.15625 12.96875 C 25.838033 13.387832 25.320004 13.77503 24.78125 13.9375 C 24.188361 14.116246 23.687545 14.257546 23.125 14.34375 C 22.103126 14.499643 20.30793 14.670652 19.78125 14.71875 C 19.715065 14.522988 19.625634 14.337184 19.53125 14.15625 C 19.685151 14.001766 20.341279 13.31548 20.9375 12.71875 A 1.0031688 1.0031688 0 0 0 20.96875 12.6875 C 22.540194 11.442994 23.270545 11 24.9375 11 z M 7.28125 11.21875 C 8.3203514 11.21875 9.7545058 11.496772 11.375 12.90625 A 1.0001 1.0001 0 0 0 11.4375 12.9375 C 11.458849 12.955985 11.447076 12.98132 11.46875 13 A 1.0001 1.0001 0 0 0 11.5 13.03125 C 11.50818 13.03828 11.523035 13.024202 11.53125 13.03125 A 1.0001 1.0001 0 0 0 11.59375 13.0625 C 12.053467 13.455338 12.318279 13.711943 12.59375 13.9375 C 12.485114 14.115764 12.392737 14.304966 12.3125 14.5 C 11.9425 14.533 10.55525 14.65225 8.65625 15.15625 C 8.561157 15.181454 8.4694996 15.220318 8.375 15.25 C 7.8039207 15.323687 6.8288061 15.317173 6.125 15.0625 C 5.7558609 14.928927 5.4599448 14.74804 5.28125 14.53125 C 5.1025552 14.31446 5 14.036315 5 13.5625 C 5 12.469818 5.3470401 12.014789 5.78125 11.6875 C 6.2154599 11.360211 6.837652 11.21875 7.28125 11.21875 z M 16 14 C 17.103 14 18 14.897 18 16 C 18 16.542942 17.758523 17.014302 17.40625 17.375 A 1.0001 1.0001 0 0 0 17.03125 17.71875 C 16.7315 17.898166 16.374107 18 16 18 C 14.897 18 14 17.103 14 16 C 14 14.897 14.897 14 16 14 z M 23.375 16.375 C 24.077219 16.409338 24.904653 16.624633 25.5625 17 C 26.439629 17.50049 27 18.162895 27 19.3125 C 27 20.668615 26.56851 21.027861 26.125 21.28125 C 25.68149 21.534639 25.1505 21.5625 24.9375 21.5625 C 24.560013 21.5625 23.191476 21.5424 21.96875 20.46875 C 21.752954 20.279185 21.717241 20.282747 21.5 20.09375 A 1.0063276 1.0063276 0 0 0 21.4375 20.03125 C 20.437387 19.162208 19.776534 18.586291 19.34375 18.21875 C 19.635672 17.777148 19.808291 17.258855 19.90625 16.71875 C 20.258137 16.684799 21.331015 16.579653 22.46875 16.4375 A 1.0001 1.0001 0 0 0 22.65625 16.40625 C 22.676735 16.403611 22.698468 16.408891 22.71875 16.40625 C 22.910735 16.378957 23.140927 16.363554 23.375 16.375 z M 13.90625 19.375 C 14.192807 19.554507 14.484724 19.707829 14.8125 19.8125 C 14.828239 19.965638 14.952147 21.040732 15.125 22.4375 C 15.12586 22.458336 15.122821 22.478971 15.125 22.5 C 15.188 23.109 15.3025 25.18325 14.3125 26.28125 C 13.8775 26.76425 13.2725 27 12.4375 27 C 10.1735 27 10.09375 24.897 10.09375 24.875 C 10.09375 24.189 10.546 23.147 11.125 22.5 C 11.69 21.868 13.28525 20.076 13.90625 19.375 z M 17.84375 19.53125 C 18.170526 19.812996 18.932145 20.494548 19.90625 21.34375 A 1.0063276 1.0063276 0 0 0 19.9375 21.375 C 20.120647 21.61746 20.4375 22.652106 20.4375 24.21875 C 20.4375 24.799899 20.282079 25.019897 20.09375 25.1875 C 19.905421 25.355103 19.593449 25.435006 19.5625 25.4375 C 19.52722 25.4404 18.834849 25.226593 18.28125 24.71875 C 17.727651 24.210907 17.298535 23.521873 17.21875 22.90625 C 16.961915 20.92672 16.888853 20.256757 16.84375 19.90625 C 17.199854 19.830348 17.529433 19.695213 17.84375 19.53125 z" overflow="visible" font-family="Sans" fill="#000000"/></svg>
