<?xml version="1.0" encoding="utf-8"?>
<svg xmlns="http://www.w3.org/2000/svg" viewBox="0 0 32 32" fill="#000000"><path style="text-indent:0;text-align:start;line-height:normal;text-transform:none;block-progression:tb;-inkscape-font-specification:Sans" d="M 9 4 L 9 5 L 6 5 L 5 5 L 5 6 L 5 26 L 5 27 L 6 27 L 26 27 L 27 27 L 27 26 L 27 6 L 27 5 L 26 5 L 23 5 L 23 4 L 21 4 L 21 5 L 11 5 L 11 4 L 9 4 z M 7 7 L 9 7 L 9 8 L 11 8 L 11 7 L 21 7 L 21 8 L 23 8 L 23 7 L 25 7 L 25 9 L 7 9 L 7 7 z M 7 11 L 25 11 L 25 25 L 7 25 L 7 11 z M 15.875 14 L 15.59375 14.40625 C 15.59375 14.40625 15.047628 15 14.5 15 L 14.5 17 C 15.157155 17 15.575532 16.721022 16 16.46875 L 16 22 L 18 22 L 18 15 L 18 14 L 17 14 L 16.375 14 L 15.875 14 z" overflow="visible" font-family="Sans" fill="#000000"/></svg>
