<?xml version="1.0" encoding="utf-8"?>
<svg xmlns="http://www.w3.org/2000/svg" viewBox="0 0 32 32" fill="#000000"><path d="M 16 5 C 12.774 5 9.97175 7.25675 9.21875 10.34375 C 7.97175 10.82675 6.93725 11.81425 6.40625 13.03125 C 2.90925 12.76525 0 15.553 0 19 C 0 22.309 2.691 25 6 25 L 14 25 L 14 24.78125 L 12.71875 24.34375 C 12.05975 24.12475 11.50575 23.632 11.21875 23 L 6 23 C 3.794 23 2 21.206 2 19 C 2 16.794 3.794 15 6 15 C 6.277 15 6.559 15.02275 6.875 15.09375 L 7.875 15.3125 L 8.0625 14.34375 C 8.3085 13.23775 9.2055 12.35775 10.3125 12.09375 L 10.96875 11.9375 L 11.0625 11.28125 C 11.4215 8.84725 13.543 7 16 7 C 17.894 7 19.61175 8.053 20.46875 9.75 L 20.84375 10.53125 L 21.6875 10.25 C 22.1545 10.086 22.582 10 23 10 C 25.206 10 27 11.794 27 14 C 27 14.038 27.005 14.088 27 14.125 C 26.991 14.193 26.97475 14.2425 26.96875 14.3125 L 26.90625 15.03125 L 27.5625 15.3125 C 29.0395 15.9425 30 17.395 30 19 C 30 20.363 29.32525 21.55825 28.28125 22.28125 L 29.28125 22.625 C 29.64825 22.747 29.98 22.95175 30.25 23.21875 C 31.329 22.13275 32 20.648 32 19 C 32 16.835 30.845 14.8755 29 13.8125 C 28.895 10.5955 26.242 8 23 8 C 22.611 8 22.2085 8.04 21.8125 8.125 C 20.5225 6.178 18.372 5 16 5 z M 17.5 15.5 L 14.5 21.96875 L 17.5 22.96875 L 17.5 28.5 L 20.5 22 L 17.5 21 L 17.5 15.5 z M 25.5 18.5 L 22.5 24.96875 L 25.5 25.96875 L 25.5 31.5 L 28.5 25 L 25.5 24 L 25.5 18.5 z" fill="#000000"/></svg>
