<?xml version="1.0" encoding="utf-8"?>
<svg xmlns="http://www.w3.org/2000/svg" viewBox="0 0 32 32" fill="#000000"><path style="text-indent:0;text-align:start;line-height:normal;text-transform:none;block-progression:tb;-inkscape-font-specification:Sans" d="M 11.5 6 C 5.986 6 1.5 10.486 1.5 16 C 1.5 21.514 5.986 26 11.5 26 C 13.326687 26 15.024677 25.483932 16.5 24.625 C 17.975319 25.484262 19.674305 26 21.5 26 C 27.011003 26 31.5 21.511003 31.5 16 C 31.5 10.488997 27.011003 6 21.5 6 C 19.674305 6 17.975319 6.5157375 16.5 7.375 C 15.024677 6.5160685 13.326687 6 11.5 6 z M 21.5 8 C 25.930123 8 29.5 11.569877 29.5 16 C 29.5 20.430123 25.930123 24 21.5 24 C 20.352195 24 19.266435 23.744651 18.28125 23.3125 C 20.248281 21.485139 21.5 18.890231 21.5 16 C 21.5 13.109769 20.248281 10.514861 18.28125 8.6875 C 19.266435 8.2553485 20.352195 8 21.5 8 z" overflow="visible" font-family="Sans" fill="#000000"/></svg>
