<?xml version="1.0" encoding="utf-8"?>
<svg xmlns="http://www.w3.org/2000/svg" viewBox="0 0 32 32" fill="#000000"><path style="text-indent:0;text-align:start;line-height:normal;text-transform:none;block-progression:tb;-inkscape-font-specification:Sans" d="M 6 3 L 6 4 L 6 10 L 8 10 L 8 5 L 24 5 L 24 10 L 26 10 L 26 4 L 26 3 L 25 3 L 7 3 L 6 3 z M 8 12 L 8 13 L 8 19 L 8 20 L 9 20 L 10 20 C 11.64497 20 13 18.64497 13 17 L 13 15 C 13 13.35503 11.64497 12 10 12 L 9 12 L 8 12 z M 14 12 L 14 20 L 16 20 L 16 17 L 17 18.34375 L 17 20 L 19 20 L 19 12 L 17 12 L 17 15 L 16 13.65625 L 16 12 L 14 12 z M 22.5 12 C 21.130937 12 20 13.130937 20 14.5 L 20 17.5 C 20 18.869063 21.130937 20 22.5 20 L 24 20 L 25 20 L 25 19 L 25 17 L 25 16 L 24 16 L 23 16 L 23 17 L 23 18 L 22.5 18 C 22.213063 18 22 17.786937 22 17.5 L 22 14.5 C 22 14.213063 22.213063 14 22.5 14 C 22.786937 14 23 14.213063 23 14.5 L 23 15 L 25 15 L 25 14.5 C 25 13.130937 23.869063 12 22.5 12 z M 10 14 C 10.56503 14 11 14.43497 11 15 L 11 17 C 11 17.56503 10.56503 18 10 18 L 10 14 z M 6 22 L 6 28 L 6 29 L 7 29 L 25 29 L 26 29 L 26 28 L 26 22 L 24 22 L 24 27 L 8 27 L 8 22 L 6 22 z" fill="#000000"/></svg>
