<?xml version="1.0" encoding="utf-8"?>
<svg xmlns="http://www.w3.org/2000/svg" viewBox="0 0 32 32" fill="#000000"><path style="text-indent:0;text-align:start;line-height:normal;text-transform:none;block-progression:tb;-inkscape-font-specification:Sans" d="M 16 5 C 11.074842 5 8.3772725 7.5655215 7.15625 10.0625 C 6.1303194 12.160518 6.0419063 13.921749 6.03125 14.53125 C 5.2524809 15.134412 4.4192785 16.040206 4.125 17.4375 C 3.8449335 18.767312 3.3258868 21.360437 3.03125 23.25 C 2.8946385 24.12519 3.1461264 25.112118 3.84375 25.84375 C 4.3669677 26.392474 5.1136115 26.783781 6.03125 26.9375 C 6.2545438 26.981447 6.4787604 27 6.71875 27 C 10.004976 27 11.989872 26 16 26 C 20.012205 26 21.872877 27 25 27 C 25.829326 27 26.472731 26.875549 27 26.59375 C 27.086188 26.547687 27.172358 26.494259 27.25 26.4375 C 27.841359 26.098156 28.275736 25.642625 28.53125 25.1875 C 29.042278 24.277249 29 23.375 29 23.375 L 29 23.3125 L 28.96875 23.21875 C 28.96875 23.21875 28.282261 19.289145 27.84375 17.40625 C 27.441164 15.679795 26.451293 14.870905 25.9375 14.5 C 25.908235 13.890874 25.80293 12.148886 24.75 10.0625 C 23.495921 7.5775354 20.794474 5 16 5 z M 16 7 C 20.121526 7 21.920579 8.9224646 22.9375 10.9375 C 23.954421 12.952535 24 15 24 15 L 24 15.59375 L 24.5 15.875 C 24.5 15.875 25.550387 16.451673 25.875 17.84375 C 26.163062 19.080643 26.524399 21.000702 26.75 22.25 C 26.265278 21.637233 25.681824 20.94328 25.21875 20.40625 C 24.854089 19.983393 24.164616 19.356936 22.96875 19.1875 C 21.772884 19.018064 19.867758 19 16 19 C 12.251096 19 10.283334 19.0436 9.03125 19.21875 C 7.7791659 19.3939 7.0604316 19.92567 6.65625 20.375 C 6.2835786 20.788327 5.7873968 21.26225 5.3125 21.84375 C 5.5880786 20.346225 5.8959925 18.782743 6.09375 17.84375 C 6.3007548 16.860849 6.9738502 16.198247 7.53125 15.84375 L 8 15.53125 L 8 14.96875 C 8 14.96875 7.958023 12.940522 8.9375 10.9375 C 9.6033563 9.5758306 10.678639 8.2746045 12.625 7.5625 C 12.437275 7.9872649 12.793167 8.9975 12.71875 9.1875 C 12.42875 9.9235 11.78175 10.38075 11.46875 11.09375 C 11.22075 11.65975 11.385 12.30925 12.125 12.15625 C 12.691 12.03925 12.885 11.39125 13.5 11.28125 C 14.054 11.18225 15.0055 11.6515 15.4375 11.1875 C 15.9795 10.6045 15.24025 10.354 14.90625 10 C 14.353376 9.415724 14.081838 7.5860348 13.0625 7.40625 C 13.886575 7.1631891 14.852085 7 16 7 z M 20.65625 9.6875 C 20.208865 9.7454414 19.920875 10.376125 19.5 10.5625 C 19.254 10.6695 17.6265 10.8735 18.0625 11.4375 C 18.4485 11.9365 19.0525 11.456 19.5625 11.875 C 19.8855 12.142 19.9925 12.49225 20.3125 12.78125 C 20.7035 13.13525 21.14325 13.423 21.15625 12.625 C 21.16025 12.373 20.88175 12.21775 20.84375 11.96875 C 20.77275 11.50975 20.763 11.38725 20.875 11.03125 C 21.038 10.51025 21.52275 9.8705 20.84375 9.6875 C 20.772 9.668375 20.720162 9.6792227 20.65625 9.6875 z M 16.65625 13.90625 C 16.239297 13.98275 15.9625 14.659 15.625 14.875 C 15.075 15.227 14.444 14.8975 13.875 15.1875 C 13.65 15.3015 13.33225 15.60825 13.40625 15.90625 C 13.53425 16.41625 14.05825 16.16625 14.40625 16.28125 C 14.92625 16.45225 15.16525 16.9435 15.53125 17.3125 C 15.82225 17.6055 16.429 18.14775 16.75 17.71875 C 17.124 17.21975 16.5345 16.56825 16.5625 16.03125 C 16.5885 15.52825 17.571 14.4395 17.125 14.0625 C 16.95175 13.9165 16.795234 13.88075 16.65625 13.90625 z M 9.09375 14.71875 C 8.5585781 14.768438 8.1495 14.9845 8.0625 15.71875 C 8.0125 16.13875 8.4045 18.95475 9.0625 17.96875 C 9.3935 17.47075 8.99775 16.77175 9.46875 16.21875 C 9.47975 16.20375 9.487 16.2005 9.5 16.1875 C 9.881 15.8025 10.62925 15.84375 10.90625 15.46875 C 11.45925 14.71775 10.07225 14.73575 9.65625 14.71875 C 9.461 14.7105 9.2721406 14.702187 9.09375 14.71875 z M 22.3125 15.25 C 21.804234 15.262984 21.21025 15.925 20.96875 16.28125 C 19.99875 17.71025 21.439 17.29725 22.375 17.53125 C 22.871 17.65625 23.32475 18.06675 23.84375 18.09375 C 25.86775 18.19375 23.789 16.8565 23.375 16.4375 C 23.115 16.1735 23.01425 15.805 22.78125 15.5 C 22.6505 15.33 22.481922 15.245672 22.3125 15.25 z M 16 21 C 19.855242 21 21.781866 21.05919 22.6875 21.1875 C 23.593134 21.315814 23.275161 21.20936 23.6875 21.6875 C 24.564033 22.704022 25.948237 24.506861 26.0625 24.65625 C 26.0625 24.65625 26.08804 24.833104 26.09375 24.8125 C 26.044474 24.832627 25.994674 24.857927 25.9375 24.875 C 25.875935 24.896867 25.829997 24.91729 25.71875 24.9375 C 25.519325 24.974555 25.290051 25 25 25 C 22.333123 25 20.331795 24 16 24 C 11.817602 24 9.7084934 24.936442 7 25 C 6.7777456 25 6.5806596 24.993019 6.40625 24.96875 C 6.1437406 24.92229 6.0372638 24.829452 6 24.78125 C 5.9503149 24.71698 5.9519627 24.65416 6 24.53125 C 6.3676811 23.591451 7.3165989 22.61534 8.125 21.71875 C 8.4728184 21.33208 8.3163341 21.32685 9.3125 21.1875 C 10.308666 21.04815 12.269904 21 16 21 z" overflow="visible" font-family="Sans" fill="#000000"/></svg>
