<?xml version="1.0" encoding="utf-8"?>
<svg xmlns="http://www.w3.org/2000/svg" viewBox="0 0 32 32" fill="#000000"><path style="text-indent:0;text-align:start;line-height:normal;text-transform:none;block-progression:tb;-inkscape-font-specification:Sans" d="M 16 3 C 8.8324839 3 3 8.8324839 3 16 C 3 23.167516 8.8324839 29 16 29 C 23.167516 29 29 23.167516 29 16 C 29 8.8324839 23.167516 3 16 3 z M 16 5 C 20.945268 5 25.10976 8.2377172 26.5 12.71875 C 23.983222 9.833049 20.209509 8 16 8 C 11.790491 8 8.0167775 9.833049 5.5 12.71875 C 6.8902402 8.2377172 11.054732 5 16 5 z M 16 10 C 20.521836 10 24.372787 12.466372 26.3125 16 C 24.372787 19.533628 20.521836 22 16 22 C 11.478164 22 7.6272127 19.533628 5.6875 16 C 7.6272127 12.466372 11.478164 10 16 10 z M 16 11 C 13.250484 11 11 13.250484 11 16 C 11 18.749516 13.250484 21 16 21 C 18.749516 21 21 18.749516 21 16 C 21 13.250484 18.749516 11 16 11 z M 16 13 C 17.668484 13 19 14.331516 19 16 C 19 17.668484 17.668484 19 16 19 C 14.331516 19 13 17.668484 13 16 C 13 14.331516 14.331516 13 16 13 z M 5.5 19.28125 C 8.0167775 22.166951 11.790491 24 16 24 C 20.209509 24 23.983222 22.166951 26.5 19.28125 C 25.10976 23.762283 20.945268 27 16 27 C 11.054732 27 6.8902402 23.762283 5.5 19.28125 z" overflow="visible" font-family="Sans" fill="#000000"/></svg>
