<?xml version="1.0" encoding="utf-8"?>
<svg xmlns="http://www.w3.org/2000/svg" viewBox="0 0 32 32" fill="#000000"><path style="text-indent:0;text-align:start;line-height:normal;text-transform:none;block-progression:tb;-inkscape-font-specification:Sans" d="M 15.78125 3 C 14.899637 3 14.174091 3.4938153 13.625 4.125 C 13.075909 4.7561847 12.633681 5.5617318 12.21875 6.5 C 11.388889 8.3765364 10.696747 10.80094 10.09375 13.3125 C 10.09045 13.3222 10.09695 13.33407 10.09375 13.34375 L 10.0625 13.34375 C 10.061957 13.34545 9.8400315 13.689854 9.40625 14.03125 C 8.9724685 14.372646 8.3843369 14.757423 7.78125 15.15625 C 7.1781631 15.555077 6.5783527 15.962211 6.0625 16.4375 C 5.5466473 16.912789 5.03125 17.504534 5.03125 18.375 C 5.03125 18.974399 5.4338117 19.607236 5.90625 19.875 C 6.3786883 20.142764 6.8182603 20.201762 7.28125 20.21875 C 7.8059981 20.238 8.3370539 20.15093 8.875 20.09375 C 8.4795906 23.077195 8.2025105 25.87606 8.09375 27 L 6 27 L 6 29 L 7.90625 29 L 23 29 L 26 29 L 26 27 L 24 27 L 23.875 27 C 23.86175 26.896288 23.85939 26.839251 23.84375 26.71875 C 23.74941 25.991839 23.608897 24.960985 23.4375 23.78125 C 23.12038 21.598494 22.657994 18.88911 22.15625 16.46875 C 22.971292 15.939731 23.813183 15.344827 24.46875 14.53125 C 25.30256 13.496469 25.96875 12.323561 25.96875 11.03125 C 25.96875 10.398131 25.829761 9.8444079 25.46875 9.4375 C 25.107739 9.0305921 24.570229 8.90625 24.21875 8.90625 C 23.625994 8.90625 23.298999 9.203423 23.0625 9.40625 C 22.826001 9.609077 22.62582 9.8020558 22.375 10 C 22.024717 10.276439 21.313591 10.474217 20.625 10.6875 C 20.141349 8.9160323 19.666146 7.1838234 19.0625 5.90625 C 18.69367 5.1256474 18.291889 4.4638799 17.78125 3.9375 C 17.270611 3.4111201 16.560203 3 15.78125 3 z M 15.78125 5 C 15.908797 5 16.074826 5.035286 16.34375 5.3125 C 16.612674 5.5897139 16.93708 6.0877276 17.25 6.75 C 17.87584 8.0745449 18.46361 10.044271 19.03125 12.25 L 19.25 13.125 L 20.125 13 C 21.80593 12.763367 22.92889 12.111862 23.625 11.5625 C 23.69632 11.50621 23.71797 11.49081 23.78125 11.4375 C 23.668423 11.96022 23.450807 12.60544 22.90625 13.28125 C 22.24231 14.105219 21.35422 14.835924 20.65625 15.1875 L 19.9375 15.5625 L 20.125 16.3125 C 20.661028 18.787081 21.129544 21.758971 21.46875 24.09375 C 21.638353 25.26114 21.781717 26.250005 21.875 26.96875 C 21.8767 26.9819 21.8733 26.98705 21.875 27 L 10.125 27 C 10.202288 26.034903 10.458095 22.660856 11 19.15625 L 11.1875 17.875 L 9.90625 18 C 8.9610895 18.094931 7.9820207 18.241023 7.375 18.21875 C 7.2616131 18.21459 7.2648939 18.200791 7.1875 18.1875 C 7.234214 18.11069 7.201054 18.09531 7.40625 17.90625 C 7.7519911 17.587696 8.3194619 17.200548 8.90625 16.8125 C 9.4930381 16.424452 10.105188 16.027448 10.65625 15.59375 C 11.207312 15.160052 11.722793 14.725578 11.96875 13.96875 L 12 13.9375 L 12.0625 13.78125 C 12.652503 11.32381 13.327861 8.9737136 14.0625 7.3125 C 14.429819 6.4818932 14.821403 5.8224091 15.15625 5.4375 C 15.491097 5.0525909 15.671363 5 15.78125 5 z M 15.78125 11 C 15.369997 11 14.987944 11.06853 14.625 11.25 C 14.262056 11.431472 13.78125 11.821488 13.78125 12.5 C 13.78125 13.178512 14.262056 13.568528 14.625 13.75 C 14.987944 13.931472 15.369997 14 15.78125 14 C 16.192503 14 16.574556 13.93147 16.9375 13.75 C 17.300444 13.568528 17.78125 13.178512 17.78125 12.5 C 17.78125 11.821488 17.300444 11.431472 16.9375 11.25 C 16.574556 11.068528 16.192503 11 15.78125 11 z M 15.78125 15 C 15.0263 15 14.3385 15.207062 13.78125 15.625 C 13.224 16.042938 12.78125 16.725493 12.78125 17.5 C 12.78125 18.274507 13.224 18.957062 13.78125 19.375 C 14.3385 19.792938 15.0263 20 15.78125 20 C 16.5362 20 17.25525 19.792938 17.8125 19.375 C 18.36975 18.957062 18.78125 18.274507 18.78125 17.5 C 18.78125 16.725493 18.36975 16.042938 17.8125 15.625 C 17.25525 15.207062 16.5362 15 15.78125 15 z M 15.78125 17 C 16.13087 17 16.427143 17.125044 16.59375 17.25 C 16.760357 17.374956 16.78125 17.44608 16.78125 17.5 C 16.78125 17.55392 16.76036 17.625044 16.59375 17.75 C 16.427143 17.874956 16.13087 18 15.78125 18 C 15.431631 18 15.135358 17.874956 14.96875 17.75 C 14.802142 17.625044 14.78125 17.55392 14.78125 17.5 C 14.78125 17.44608 14.80214 17.374956 14.96875 17.25 C 15.135358 17.125044 15.431631 17 15.78125 17 z M 16 21 C 15.036463 21 14.162373 21.168813 13.4375 21.53125 C 12.712627 21.893687 12 22.545346 12 23.5 C 12 24.454654 12.712627 25.106313 13.4375 25.46875 C 14.162373 25.831187 15.036463 26 16 26 C 16.963537 26 17.837627 25.831187 18.5625 25.46875 C 19.287373 25.106313 20 24.454654 20 23.5 C 20 22.545346 19.287373 21.893687 18.5625 21.53125 C 17.837627 21.168813 16.963537 21 16 21 z M 16 23 C 16.693317 23 17.326587 23.163293 17.6875 23.34375 C 17.844821 23.422411 17.897817 23.463554 17.9375 23.5 C 17.897816 23.536446 17.84482 23.577588 17.6875 23.65625 C 17.326587 23.836707 16.693317 24 16 24 C 15.306683 24 14.673413 23.836707 14.3125 23.65625 C 14.155179 23.577589 14.102183 23.536446 14.0625 23.5 C 14.102184 23.463554 14.15518 23.422412 14.3125 23.34375 C 14.673413 23.163293 15.306683 23 16 23 z" overflow="visible" font-family="Sans" fill="#000000"/></svg>
