<?xml version="1.0" encoding="utf-8"?>
<svg xmlns="http://www.w3.org/2000/svg" viewBox="0 0 32 32" fill="#000000"><path style="text-indent:0;text-align:start;line-height:normal;text-transform:none;block-progression:tb;-inkscape-font-specification:Sans" d="M 14.21875 4.03125 C 13.920238 4.0611501 13.629932 4.1414406 13.34375 4.3125 C 12.771385 4.6546187 12.325405 5.280126 12.125 6.0625 C 11.86382 7.0804696 12.016172 8.1786874 12.28125 9.34375 C 12.449584 10.083608 12.678591 10.850811 12.9375 11.59375 C 11.793768 10.482748 10.51938 9.4798284 9.125 9.125 C 8.340706 8.9251209 7.6090938 8.9829346 7.03125 9.3125 C 6.4534062 9.6420654 6.0818222 10.178198 5.9375 10.71875 C 5.6966711 11.617845 5.7882969 12.381614 5.84375 12.9375 C 5.8992031 13.493386 5.9234167 13.852712 5.75 14.5 C 5.5765082 15.147972 5.4029279 15.387125 5.09375 15.78125 C 4.7845721 16.175375 4.3362882 16.748727 4.09375 17.65625 C 3.9496875 18.195829 3.9614738 18.81188 4.25 19.4375 C 4.5385262 20.06312 5.1486449 20.65803 6 20.875 C 7.0319788 21.137963 8.1280135 20.96231 9.25 20.65625 C 9.6228675 20.554539 9.9978517 20.447914 10.375 20.3125 C 9.3502564 21.421313 8.4496938 22.599041 8.125 23.875 C 7.9251209 24.659294 7.9829346 25.390906 8.3125 25.96875 C 8.6420654 26.546594 9.1781976 26.918178 9.71875 27.0625 C 10.617845 27.303329 11.381614 27.211703 11.9375 27.15625 C 12.493386 27.1008 12.852712 27.07658 13.5 27.25 C 14.147972 27.423492 14.387125 27.597072 14.78125 27.90625 C 15.175375 28.215428 15.748727 28.663712 16.65625 28.90625 C 17.195829 29.050312 17.81188 29.038526 18.4375 28.75 C 19.06312 28.461474 19.65803 27.851355 19.875 27 C 20.059348 26.276542 20.030224 25.489384 19.90625 24.6875 C 21.759771 26.484935 24.398778 28 28 28 L 28 26 C 24.849719 26 22.692712 24.732359 21.15625 23.15625 C 21.686185 23.491175 22.234375 23.757921 22.8125 23.90625 C 23.662301 24.123926 24.506938 23.90405 25.0625 23.5 C 25.618062 23.095936 25.918951 22.569775 26.0625 22.03125 C 26.303413 21.12338 26.228015 20.398404 26.15625 19.90625 C 26.084485 19.414096 26.014933 19.149855 26.1875 18.5 L 26.21875 18.46875 C 26.389744 17.852057 26.620759 17.510116 26.9375 17.0625 C 27.262697 16.602934 27.667593 15.992876 27.90625 15.09375 C 28.050069 14.554211 28.029619 13.916115 27.6875 13.34375 C 27.345381 12.771385 26.719874 12.325405 25.9375 12.125 C 24.660187 11.79728 23.258518 12.057509 21.875 12.53125 C 22.805141 11.479236 23.604468 10.36372 23.90625 9.1875 C 24.123926 8.337699 23.904064 7.4930624 23.5 6.9375 C 23.095936 6.3819376 22.569775 6.0810486 22.03125 5.9375 C 21.12338 5.6965866 20.398404 5.7719852 19.90625 5.84375 C 19.414096 5.9155148 19.149855 5.9850671 18.5 5.8125 C 17.850236 5.6399569 17.522066 5.3876974 17.0625 5.0625 C 16.602934 4.7373026 15.992876 4.3324069 15.09375 4.09375 C 14.823981 4.0218405 14.517262 4.0013499 14.21875 4.03125 z M 14.59375 6 C 15.152624 6.1483431 15.433816 6.3844474 15.90625 6.71875 C 16.378684 7.0530526 17.010514 7.4955431 17.96875 7.75 C 18.926895 8.0044329 19.678404 7.9179852 20.1875 7.84375 C 20.696596 7.769515 20.95812 7.6916634 21.53125 7.84375 C 21.61172 7.865201 21.813564 7.9975624 21.90625 8.125 C 21.99894 8.2524376 22.053074 8.358301 21.96875 8.6875 C 21.728666 9.6232441 20.130488 11.570916 18.5625 13.0625 C 17.500528 14.072725 17.049598 14.430904 16.5 14.875 C 16.179871 14.220849 15.862679 13.62481 15.28125 12.125 C 14.868787 11.061042 14.481234 9.9225624 14.25 8.90625 C 14.018766 7.8899376 13.95268 6.9905304 14.0625 6.5625 C 14.164095 6.165874 14.309115 6.0706313 14.375 6.03125 C 14.440885 5.9918687 14.514289 5.9788191 14.59375 6 z M 8.21875 11 C 8.3232048 10.992665 8.455897 11.01144 8.65625 11.0625 C 9.6262685 11.309341 11.407838 12.786417 12.75 14.25 C 13.663724 15.246386 13.956338 15.678146 14.34375 16.1875 C 13.753085 16.532822 13.16953 16.908902 11.75 17.5625 C 10.759776 18.018432 9.6750135 18.4579 8.71875 18.71875 C 7.7624865 18.9796 6.9220212 19.045037 6.5 18.9375 C 6.1663551 18.85247 6.1244738 18.72813 6.0625 18.59375 C 6.0005262 18.45937 6.0103125 18.265921 6.03125 18.1875 C 6.1837118 17.617023 6.3366779 17.407375 6.65625 17 C 6.9758221 16.592625 7.4309918 15.989278 7.6875 15.03125 C 7.9440833 14.073538 7.8695469 13.290614 7.8125 12.71875 C 7.7554531 12.146886 7.7258289 11.806905 7.875 11.25 C 7.8956778 11.172552 7.9238438 11.105935 8 11.0625 C 8.038078 11.04078 8.1142952 11.007335 8.21875 11 z M 25.0625 14.03125 C 25.212722 14.032582 25.331463 14.035294 25.4375 14.0625 C 25.834126 14.164095 25.929369 14.309115 25.96875 14.375 C 26.00813 14.44088 26.02118 14.514289 26 14.59375 C 25.851657 15.152624 25.615553 15.433816 25.28125 15.90625 C 24.953026 16.370094 24.537591 17.007822 24.28125 17.9375 L 24.25 17.96875 C 23.995567 18.926895 24.082015 19.678404 24.15625 20.1875 C 24.23049 20.696596 24.308337 20.95812 24.15625 21.53125 C 24.1348 21.61172 24.002438 21.813564 23.875 21.90625 C 23.747562 21.99894 23.641699 22.053074 23.3125 21.96875 C 22.368994 21.726675 20.601446 20.21739 19.28125 18.71875 C 18.358681 17.671482 18.058044 17.198413 17.6875 16.6875 C 18.26854 16.353848 18.847558 16.00655 20.25 15.375 C 21.959752 14.605061 24.010949 14.021929 25.0625 14.03125 z M 15.5625 18.25 C 15.878368 18.897294 16.18149 19.492963 16.75 20.96875 C 17.154953 22.019961 17.555314 23.148026 17.78125 24.15625 C 18.007186 25.164474 18.049236 26.061499 17.9375 26.5 C 17.85247 26.833645 17.72813 26.875526 17.59375 26.9375 C 17.45937 26.99947 17.265921 26.98969 17.1875 26.96875 C 16.617023 26.816288 16.407375 26.663322 16 26.34375 C 15.592625 26.024178 14.989278 25.569008 14.03125 25.3125 C 13.073538 25.055917 12.290614 25.130453 11.71875 25.1875 C 11.146886 25.24455 10.806905 25.27417 10.25 25.125 C 10.17255 25.10432 10.105935 25.07616 10.0625 25 C 10.01906 24.92384 9.9603791 24.744456 10.0625 24.34375 C 10.300947 23.406717 11.892248 21.493513 13.46875 20.03125 C 14.548587 19.029662 15.014309 18.678677 15.5625 18.25 z" overflow="visible" font-family="Sans" fill="#000000"/></svg>
