<?xml version="1.0" encoding="utf-8"?>
<svg xmlns="http://www.w3.org/2000/svg" viewBox="0 0 32 32" fill="#000000"><path style="text-indent:0;text-align:start;line-height:normal;text-transform:none;block-progression:tb;-inkscape-font-specification:Bitstream Vera Sans" d="M 2 8 L 2 9 L 2 13 L 2 14 L 3 14 L 7 14 L 8 14 L 8 13 L 8 9 L 8 8 L 7 8 L 3 8 L 2 8 z M 10 8 L 10 10 L 30 10 L 30 8 L 10 8 z M 4 10 L 6 10 L 6 12 L 4 12 L 4 10 z M 10 12 L 10 14 L 26 14 L 26 12 L 10 12 z M 2 18 L 2 19 L 2 23 L 2 24 L 3 24 L 7 24 L 8 24 L 8 23 L 8 19 L 8 18 L 7 18 L 3 18 L 2 18 z M 10 18 L 10 20 L 30 20 L 30 18 L 10 18 z M 4 20 L 6 20 L 6 22 L 4 22 L 4 20 z M 10 22 L 10 24 L 26 24 L 26 22 L 10 22 z" fill="#000000"/></svg>
