<?xml version="1.0" encoding="utf-8"?>
<svg xmlns="http://www.w3.org/2000/svg" viewBox="0 0 32 32" fill="#000000"><path style="text-indent:0;text-align:start;line-height:normal;text-transform:none;block-progression:tb;-inkscape-font-specification:Bitstream Vera Sans" d="M 0 7 L 0 8 L 0 24 L 0 25 L 1 25 L 31 25 L 32 25 L 32 24 L 32 8 L 32 7 L 31 7 L 1 7 L 0 7 z M 2 9 L 30 9 L 30 23 L 2 23 L 2 9 z M 7 12 L 7 13 L 7 19 L 7 20 L 8 20 L 9.5 20 C 10.883333 20 12 18.883333 12 17.5 C 12 16.919095 11.737137 16.423912 11.40625 16 C 11.737137 15.576088 12 15.080905 12 14.5 C 12 13.116667 10.883333 12 9.5 12 L 8 12 L 7 12 z M 15.15625 12 L 14.9375 12.6875 L 13.03125 18.6875 L 13 18.84375 L 13 19 L 13 20 L 15 20 L 15 19.21875 L 15.0625 19 L 16.96875 19 L 17 19.125 L 17 20 L 19 20 L 19 19 L 19 18.84375 L 18.9375 18.6875 L 16.9375 12.6875 L 16.71875 12 L 16 12 L 15.90625 12 L 15.15625 12 z M 22.5 12 C 21.116667 12 20 13.116667 20 14.5 C 20 15.883333 21.116667 17 22.5 17 C 22.716667 17 23 17.283333 23 17.5 C 23 17.8 22.881481 18 22.5 18 C 22.131818 18 22.075546 17.91998 22.0625 17.90625 C 22.049454 17.892518 22 17.827083 22 17.59375 L 20 17.59375 C 20 18.160417 20.163046 18.794982 20.625 19.28125 C 21.086954 19.767518 21.768182 20 22.5 20 C 23.918519 20 25 18.8 25 17.5 C 25 16.116667 23.883333 15 22.5 15 C 22.283333 15 22 14.716667 22 14.5 C 22 14.283333 22.283333 14 22.5 14 C 22.766667 14 22.847593 14.06341 22.90625 14.125 C 22.964907 14.18659 23 14.294345 23 14.40625 L 25 14.40625 C 25 13.818155 24.785093 13.21341 24.34375 12.75 C 23.902407 12.28659 23.233333 12 22.5 12 z M 9 14 L 9.5 14 C 9.7166667 14 10 14.283333 10 14.5 C 10 14.716667 9.7166667 15 9.5 15 L 9 15 L 9 14 z M 15.96875 16.0625 L 16.28125 17 L 15.6875 17 L 15.96875 16.0625 z M 9 17 L 9.5 17 C 9.7166667 17 10 17.283333 10 17.5 C 10 17.716667 9.7166667 18 9.5 18 L 9 18 L 9 17 z" overflow="visible" font-family="Bitstream Vera Sans" fill="#000000"/></svg>
