<?xml version="1.0" encoding="utf-8"?>
<svg xmlns="http://www.w3.org/2000/svg" viewBox="0 0 32 32" fill="#000000"><path style="text-indent:0;text-align:start;line-height:normal;text-transform:none;block-progression:tb;-inkscape-font-specification:Bitstream Vera Sans" d="M 3.71875 2.28125 L 2.28125 3.71875 L 28.28125 29.71875 L 29.71875 28.28125 L 23.375 21.9375 C 24.795846 21.374651 26.148423 20.598537 26.875 19.90625 L 27.5625 19.28125 L 27.5 18.34375 L 27.375 16.71875 L 25.78125 16.46875 C 25.68925 16.45575 24.86225 16.34975 23.53125 16.34375 C 24.97625 13.63575 25.52525 11.24675 25.53125 11.21875 L 25.84375 9.875 L 24.6875 9.09375 L 24.59375 9.0625 L 23.625 8.40625 L 22.5625 8.96875 C 22.3105 9.10375 20.77375 9.9635 19.21875 11.3125 C 18.92575 8.6895 18.24675 6.48725 17.96875 5.78125 L 17.46875 4.5 L 16.09375 4.5 L 15.875 4.5 L 14.5625 4.5 L 14.03125 5.71875 C 13.979405 5.8421046 13.010305 8.1984959 12.59375 11.15625 L 3.71875 2.28125 z M 15.875 6.5 L 16.09375 6.5 C 16.43875 7.38 17.34375 10.4795 17.34375 13.6875 C 17.34375 14.189968 17.294506 15.009221 17.21875 15.78125 L 14.4375 13 C 14.601788 9.5686086 15.875 6.5 15.875 6.5 z M 23.5 10.71875 L 23.59375 10.78125 C 23.47875 11.28225 22.6835 14.08525 20.9375 16.78125 C 20.662568 17.205973 20.121106 17.762602 19.65625 18.21875 L 17.75 16.3125 C 17.99558 15.878984 18.266739 15.435502 18.59375 14.9375 C 20.19275 12.5035 23.5 10.71875 23.5 10.71875 z M 7 11.15625 L 6.53125 11.625 L 6.75 12.6875 C 6.967 13.7045 7.31725 14.685 7.78125 15.625 C 7.66525 15.622 7.5435 15.59375 7.4375 15.59375 C 6.7705 15.59375 6.329 15.64625 6.25 15.65625 L 4.375 15.90625 L 4.5 17.8125 L 4.5625 18.53125 L 5.09375 19.09375 C 5.24675 19.24675 6.295 20.31525 8 21.28125 C 7.908 21.36825 7.87075 21.4095 7.84375 21.4375 L 7.0625 22.25 L 7.34375 23.3125 L 7.65625 24.46875 L 8.8125 24.8125 C 8.9795 24.8555 9.85825 25.0625 11.03125 25.0625 C 11.85825 25.0625 12.657 24.958 13.375 24.75 C 13.45 24.73 13.52075 24.7095 13.59375 24.6875 C 13.80475 25.8925 14.04475 26.85125 14.09375 27.03125 L 14.5 28.5 L 16.03125 28.5 L 17.5 28.5 L 18.40625 28.5 L 19.03125 27.8125 L 20.03125 26.625 L 19.15625 25.3125 C 19.14525 25.3005 19.135 25.29525 19.125 25.28125 C 19.804 25.44425 20.569 25.51725 21.375 25.53125 L 18.9375 23.125 C 17.4885 22.651 16.49325 21.913 16.15625 21.625 C 16.22825 22.693 16.63025 25.20075 17.53125 26.46875 L 17.5 26.5 L 16.03125 26.5 C 16.03125 26.5 15.2385 23.541 15.3125 21.5 C 14.7995 21.937 13.9125 22.5205 12.8125 22.8125 C 12.2035 22.9895 11.57625 23.0625 11.03125 23.0625 C 10.17325 23.0625 9.5105 22.926 9.3125 22.875 L 9.28125 22.8125 C 9.28125 22.8125 10.542 21.4995 12.375 21.0625 C 12.595 20.9895 12.81125 20.9375 13.03125 20.9375 C 12.29825 20.7915 11.557 20.63575 10.75 20.34375 C 8.344 19.45575 6.695 17.8835 6.5 17.6875 L 6.5 17.65625 C 6.5 17.65625 6.8565 17.59375 7.4375 17.59375 C 8.3815 17.59375 9.9285 17.7265 11.5625 18.3125 C 12.0025 18.4585 12.4455 18.5945 12.8125 18.8125 C 12.2065 18.2765 9.9225 16.336 8.9375 13.125 L 7 11.15625 z M 23.4375 18.34375 C 24.7325 18.34375 25.5 18.4375 25.5 18.4375 L 25.5 18.46875 C 24.930023 19.012564 23.439096 19.855993 21.8125 20.375 L 20.03125 18.59375 C 20.492027 18.511841 21.126554 18.427692 22.0625 18.375 C 22.5665 18.346 23.0275 18.34375 23.4375 18.34375 z" overflow="visible" font-family="Bitstream Vera Sans" fill="#000000"/></svg>
