<?xml version="1.0" encoding="utf-8"?>
<svg xmlns="http://www.w3.org/2000/svg" viewBox="0 0 32 32" fill="#000000"><path style="text-indent:0;text-align:start;line-height:normal;text-transform:none;block-progression:tb;-inkscape-font-specification:Bitstream Vera Sans" d="M 13.5 4 C 11.578812 4 10 5.5788117 10 7.5 C 10 9.4211883 11.578812 11 13.5 11 C 14.875775 11 16.054422 10.165205 16.625 9 L 22 9 L 23 8 L 23 7 L 22 6 L 20 6 L 19 7 L 18 6 L 16.625 6 C 16.054422 4.8347949 14.875775 4 13.5 4 z M 13.5 6 C 13.675169 6 13.844915 6.0408471 14 6.09375 L 14 8.90625 C 13.844915 8.9591529 13.675169 9 13.5 9 C 12.659188 9 12 8.3408117 12 7.5 C 12 6.6591883 12.659188 6 13.5 6 z M 14 14 L 14 16 L 15.53125 16 L 17 16.6875 L 17 18.4375 C 16.31737 18.63739 15.007994 18.93327 13.21875 18.96875 L 11.4375 18.09375 L 11.25 18 L 11 18 L 7 18 L 6 18 L 6 19 L 6 22.6875 C 6 24.145663 6.87032 25.211254 7.6875 25.9375 C 7.4828614 25.974787 7.2585615 26 7.03125 26 C 5.6902759 26 4.625 25.21875 4.625 25.21875 L 3.375 26.78125 C 3.375 26.78125 4.9182241 28 7.03125 28 C 8.4913746 28 9.4202898 27.515635 10 27.15625 C 10.581221 27.512184 11.556815 28 13.03125 28 C 14.491375 28 15.42029 27.515635 16 27.15625 C 16.581221 27.512184 17.556815 28 19.03125 28 C 20.491375 28 21.42029 27.515635 22 27.15625 C 22.581221 27.512184 23.556815 28 25.03125 28 C 27.144276 28 28.625 26.78125 28.625 26.78125 L 27.375 25.21875 C 27.375 25.21875 26.372224 26 25.03125 26 C 24.874064 26 24.710838 25.987702 24.5625 25.96875 C 25.408688 25.163234 26.350112 23.975384 26.9375 22.34375 L 27.0625 22.03125 L 26.96875 21.75 C 25.994821 18.132549 22.680853 15.070277 18.15625 15 L 16.1875 14.09375 L 16 14 L 15.78125 14 L 14 14 z M 19 17.15625 C 22.028178 17.54848 24.135243 19.53216 24.90625 21.96875 C 23.799966 22.411389 21.959036 23 19.71875 23 L 8.0625 23 C 8.0387228 22.897803 8 22.787916 8 22.6875 L 8 20 L 10.75 20 L 12.5625 20.90625 L 12.75 21 L 13 21 C 15.885441 21 18.34375 20.125 18.34375 20.125 L 19 19.90625 L 19 19.1875 L 19 17.15625 z" overflow="visible" font-family="Bitstream Vera Sans" fill="#000000"/></svg>
