<?xml version="1.0" encoding="utf-8"?>
<svg xmlns="http://www.w3.org/2000/svg" viewBox="0 0 32 32" fill="#000000"><path style="text-indent:0;text-align:start;line-height:normal;text-transform:none;block-progression:tb;-inkscape-font-specification:Sans" d="M 2 7 L 2 8 L 2 24 L 2 25 L 3 25 L 29 25 L 30 25 L 30 24 L 30 8 L 30 7 L 29 7 L 3 7 L 2 7 z M 4 9 L 28 9 L 28 23 L 4 23 L 4 9 z M 6 11 L 6 13 L 16 13 L 16 11 L 6 11 z M 22 11 L 22 12.0625 C 20.876762 12.248447 20 13.202106 20 14.375 C 20 15.130429 20.417398 15.819072 21.09375 16.15625 L 24 17.625 C 24 17.847152 23.847152 18 23.625 18 L 22.375 18 C 22.152848 18 22 17.847152 22 17.625 L 22 17 L 20 17 L 20 17.625 C 20 18.797894 20.876762 19.751553 22 19.9375 L 22 21 L 24 21 L 24 19.9375 C 25.123238 19.751553 26 18.797894 26 17.625 C 26 16.869571 25.580523 16.181881 24.90625 15.84375 L 22 14.375 C 22 14.152848 22.152848 14 22.375 14 L 23.625 14 C 23.847152 14 24 14.152848 24 14.375 L 24 15 L 26 15 L 26 14.375 C 26 13.202106 25.123238 12.248447 24 12.0625 L 24 11 L 22 11 z M 6 14 L 6 16 L 13 16 L 13 14 L 6 14 z M 8.5 17 C 7.8956591 17 7.4691678 17.343741 7.1875 17.65625 C 6.9058322 17.968759 6.6993543 18.315004 6.53125 18.6875 C 6.1950414 19.432492 6 20.237201 6 21 L 8 21 C 8 20.679799 8.1564586 19.984258 8.375 19.5 C 8.437616 19.361252 8.5014182 19.314303 8.5625 19.21875 C 8.637947 19.319116 8.692027 19.38759 8.78125 19.53125 C 8.9275173 19.766758 9.0856866 20.046348 9.28125 20.3125 C 9.4768134 20.578652 9.7166138 21.01472 10.46875 21.03125 C 11.063231 21.04314 11.24756 20.828748 11.4375 20.6875 C 11.62744 20.546252 11.760316 20.412836 11.90625 20.28125 C 12.00553 20.19173 12.083232 20.124234 12.15625 20.0625 C 12.18462 20.10009 12.294215 20.166068 12.84375 20.40625 C 13.513333 20.6989 14.522908 21 16 21 L 16 19 C 14.769092 19 14.130667 18.8011 13.65625 18.59375 C 13.181833 18.3864 12.823549 18 12 18 C 11.399517 18 11.247402 18.23479 11.0625 18.375 C 10.897777 18.499908 10.786948 18.631808 10.65625 18.75 C 10.597808 18.655143 10.568692 18.610603 10.5 18.5 C 10.330142 18.226508 10.131472 17.917398 9.84375 17.625 C 9.5560284 17.332602 9.0982067 17 8.5 17 z" fill="#000000"/></svg>
