<?xml version="1.0" encoding="utf-8"?>
<svg xmlns="http://www.w3.org/2000/svg" viewBox="0 0 32 32" fill="#000000"><path style="text-indent:0;text-align:start;line-height:normal;text-transform:none;block-progression:tb;-inkscape-font-specification:Sans" d="M 5.21875 8 L 5.03125 8.75 L 2.03125 20.75 L 1.71875 22 L 3 22 L 6.84375 22 L 7 23.15625 L 7.125 24 L 8 24 L 29 24 L 30.25 24 L 29.96875 22.78125 L 26.96875 8.78125 L 26.8125 8 L 26 8 L 6 8 L 5.21875 8 z M 7.15625 10 L 25.1875 10 L 27.78125 22 L 8.875 22 L 7.15625 10 z M 5.71875 14.21875 L 6.5625 20 L 4.28125 20 L 5.71875 14.21875 z M 12 15 L 12 17 L 23 17 L 23 15 L 12 15 z" overflow="visible" font-family="Sans" fill="#000000"/></svg>
