<?xml version="1.0" encoding="utf-8"?>
<svg xmlns="http://www.w3.org/2000/svg" viewBox="0 0 32 32" fill="#000000"><path style="text-indent:0;text-align:start;line-height:normal;text-transform:none;block-progression:tb;-inkscape-font-specification:Sans" d="M 16 5 C 10.252 5 5.30925 7.4045 3.15625 10.8125 C 2.41625 11.8705 2 12.956 2 14 C 2 14.124 2.02525 14.253 2.03125 14.375 C 2.02825 14.458 2 14.542 2 14.625 C 2 17.904 4.302 20.6875 8.375 22.4375 C 8.128 21.6675 8 20.852 8 20 C 8 19.583 8.03175 19.18125 8.09375 18.78125 C 5.95575 18.26925 4.19225 16.859 4.03125 14.375 C 4.06525 13.71 4.212 13.0495 4.5 12.4375 C 5.928 9.9945 10.272 7 16 7 C 21.728 7 26.072 9.9945 27.5 12.4375 C 27.786 13.0445 27.93275 13.68375 27.96875 14.34375 C 27.79575 16.19475 26.239 18.04775 23.875 18.71875 C 23.942 19.13775 24 19.563 24 20 C 24 20.852 23.872 21.6675 23.625 22.4375 C 27.698 20.6885 30 17.904 30 14.625 C 30 14.536 29.97175 14.43175 29.96875 14.34375 C 29.97575 14.22775 30 14.115 30 14 C 30 12.956 29.58375 11.8705 28.84375 10.8125 C 26.69075 7.4045 21.748 5 16 5 z M 16 13 C 12.145852 13 9 16.145852 9 20 C 9 23.854148 12.145852 27 16 27 C 19.854148 27 23 23.854148 23 20 C 23 16.145852 19.854148 13 16 13 z M 16 15 C 16.866646 15 17.666375 15.241367 18.375 15.625 L 16.78125 18 L 15.21875 18 L 13.625 15.625 C 14.333625 15.241367 15.133354 15 16 15 z M 12.0625 16.90625 L 13.5 19.03125 L 12.96875 20 L 11 20 C 11 18.830541 11.396565 17.755346 12.0625 16.90625 z M 19.9375 16.90625 C 20.603435 17.755346 21 18.830541 21 20 L 19.03125 20 L 18.5 19.03125 L 19.9375 16.90625 z M 15.25 20 L 16.75 20 L 17.34375 21.0625 L 16.75 22 L 15.25 22 L 14.65625 21.0625 L 15.25 20 z M 11.4375 22 L 12.90625 22 L 13.625 23.21875 L 13.0625 24.0625 C 12.344214 23.544631 11.797111 22.821742 11.4375 22 z M 19.09375 22 L 20.5625 22 C 20.202889 22.821742 19.655786 23.544631 18.9375 24.0625 L 18.375 23.21875 L 19.09375 22 z M 15.5625 24 L 16.4375 24 L 17.03125 24.90625 C 16.695897 24.976487 16.357058 25 16 25 C 15.642942 25 15.304103 24.976487 14.96875 24.90625 L 15.5625 24 z" fill="#000000"/></svg>
