<?xml version="1.0" encoding="utf-8"?>
<svg xmlns="http://www.w3.org/2000/svg" viewBox="0 0 32 32" fill="#000000"><path style="text-indent:0;text-align:start;line-height:normal;text-transform:none;block-progression:tb;-inkscape-font-specification:Bitstream Vera Sans" d="M 15.5 4 C 13.578848 4 12 5.5788481 12 7.5 C 12 9.4211519 13.578848 11 15.5 11 C 17.421152 11 19 9.4211519 19 7.5 C 19 5.5788481 17.421152 4 15.5 4 z M 15.5 6 C 16.340272 6 17 6.6597281 17 7.5 C 17 8.3402719 16.340272 9 15.5 9 C 14.659728 9 14 8.3402719 14 7.5 C 14 6.6597281 14.659728 6 15.5 6 z M 13.375 12 C 12.901635 12 12.425148 12.186894 12.0625 12.5 C 11.111151 13.321372 8.3562759 15.838159 8.03125 19.375 C 7.95217 20.26617 8.675798 21 9.53125 21 L 16.1875 21 L 13.96875 27.25 L 15.875 27.90625 L 18.0625 21.65625 C 18.511759 20.384651 17.536437 19 16.1875 19 L 10.1875 19 C 10.677327 16.694754 12.644754 14.630477 13.375 14 L 17.78125 14.96875 L 18 15.03125 L 18.1875 14.96875 L 23.1875 13.96875 L 22.8125 12.03125 L 18.03125 13 L 13.5625 12.03125 L 13.46875 12 L 13.375 12 z" overflow="visible" font-family="Bitstream Vera Sans" fill="#000000"/></svg>
