<?xml version="1.0" encoding="utf-8"?>
<svg xmlns="http://www.w3.org/2000/svg" viewBox="0 0 32 32" fill="#000000"><path style="text-indent:0;text-align:start;line-height:normal;text-transform:none;block-progression:tb;-inkscape-font-specification:Bitstream Vera Sans" d="M 3 5 L 3 11.84375 L 2 18.84375 L 2 18.9375 L 2 19 C 2 19.498474 2.1911352 19.959804 2.5 20.3125 C 2.1750646 20.791651 2 21.383136 2 22 C 2 23.64497 3.3550302 25 5 25 L 27 25 C 28.64497 25 30 23.64497 30 22 C 30 21.383136 29.824935 20.791651 29.5 20.3125 C 29.808865 19.959804 30 19.498474 30 19 C 30 14.593562 26.406438 11 22 11 L 19.4375 11 L 20.71875 9.71875 L 19.28125 8.28125 L 15.28125 12.28125 L 16.71875 13.71875 L 18 12.4375 L 18 14.9375 C 11.446012 14.781542 9.0395884 13.35997 8.34375 12.5625 C 7.5133672 11.607877 6.3331912 11 5.03125 11 L 5 11 L 5 5 L 3 5 z M 4.875 13 L 5.03125 13 C 5.7253088 13 6.3641328 13.323623 6.84375 13.875 C 8.1626892 15.386579 11.271091 17 19 17 L 20 17 L 20 16 L 20 13 L 22 13 C 25.325562 13 28 15.674438 28 19 L 4.03125 19 L 4.875 13 z M 5 21 L 27 21 C 27.56503 21 28 21.43497 28 22 C 28 22.56503 27.56503 23 27 23 L 5 23 C 4.4349698 23 4 22.56503 4 22 C 4 21.43497 4.4349698 21 5 21 z" overflow="visible" font-family="Bitstream Vera Sans" fill="#000000"/></svg>
