<?xml version="1.0" encoding="utf-8"?>
<svg xmlns="http://www.w3.org/2000/svg" viewBox="0 0 32 32" fill="#000000"><path style="text-indent:0;text-align:start;line-height:normal;text-transform:none;block-progression:tb;-inkscape-font-specification:Bitstream Vera Sans" d="M 16 4 C 13.802706 4 12 5.8027056 12 8 C 12 9.1142275 12.475261 10.116062 13.21875 10.84375 C 11.88816 11.744728 11 13.281553 11 15 L 11 18 L 11 18.375 L 11.25 18.65625 L 13 20.625 L 13 28 L 15 28 L 15 21.375 L 15.75 20.6875 L 13 17.625 L 13 15 C 13 13.331516 14.331516 12 16 12 C 17.668484 12 19 13.331516 19 15 L 19 17.625 L 16.25 20.6875 L 16.0625 20.90625 L 16.03125 21.1875 L 15.53125 23.8125 L 15.4375 24.28125 L 15.71875 24.625 L 18.21875 27.625 L 19.78125 26.375 L 17.5625 23.71875 L 17.90625 21.84375 L 20.75 18.65625 L 21 18.375 L 21 18 L 21 15 C 21 13.281553 20.11184 11.744728 18.78125 10.84375 C 19.524739 10.116062 20 9.1142275 20 8 C 20 5.8027056 18.197294 4 16 4 z M 16 6 C 17.116414 6 18 6.883586 18 8 C 18 9.116414 17.116414 10 16 10 C 14.883586 10 14 9.116414 14 8 C 14 6.883586 14.883586 6 16 6 z" overflow="visible" font-family="Bitstream Vera Sans" fill="#000000"/></svg>
