<?xml version="1.0" encoding="utf-8"?>
<svg xmlns="http://www.w3.org/2000/svg" viewBox="0 0 32 32" fill="#000000"><path style="line-height:normal;text-indent:0;text-align:start;text-decoration-line:none;text-decoration-style:solid;text-decoration-color:#000;text-transform:none;block-progression:tb;isolation:auto;mix-blend-mode:normal" d="M 3 2 A 1 1 0 0 0 2 3 A 1 1 0 0 0 3 4 A 1 1 0 0 0 4 3 A 1 1 0 0 0 3 2 z M 5 4 A 1 1 0 0 0 4 5 A 1 1 0 0 0 5 6 A 1 1 0 0 0 6 5 A 1 1 0 0 0 5 4 z M 7 6 A 1 1 0 0 0 6 7 A 1 1 0 0 0 7 8 A 1 1 0 0 0 8 7 A 1 1 0 0 0 7 6 z M 11 6.5859375 L 9.46875 8.1171875 A 1 1 0 0 0 9 8 A 1 1 0 0 0 8 9 A 1 1 0 0 0 8.1171875 9.46875 L 6.5859375 11 L 7.2929688 11.707031 L 10.085938 14.5 L 7.5859375 17 L 7 17.585938 L 7 22 L 7 23 L 9 23 L 9 22 L 9 18.414062 L 13 22.414062 L 13 23 L 13 29 L 13 30 L 15 30 L 15 29 L 15 24.414062 L 18.582031 27.996094 C 19.909143 29.323206 22.090857 29.323206 23.417969 27.996094 L 27.996094 23.417969 C 29.323206 22.090857 29.323206 19.909143 27.996094 18.582031 L 18.414062 9 L 22 9 L 23 9 L 23 7 L 22 7 L 17.585938 7 L 17 7.5859375 L 14.5 10.085938 L 11 6.5859375 z M 11 9.4140625 L 13.078125 11.492188 L 11.492188 13.078125 L 9.4140625 11 L 11 9.4140625 z M 17 10.414062 L 26.582031 19.996094 C 27.144919 20.558982 27.144919 21.441018 26.582031 22.003906 L 22.003906 26.582031 C 21.441018 27.144919 20.558982 27.144919 19.996094 26.582031 L 10.414062 17 L 17 10.414062 z" fill="#000000"/></svg>
