<?xml version="1.0" encoding="utf-8"?>
<svg xmlns="http://www.w3.org/2000/svg" viewBox="0 0 32 32" fill="#000000"><path style="text-indent:0;text-align:start;line-height:normal;text-transform:none;block-progression:tb;-inkscape-font-specification:Sans" d="M 26 3.5 C 25.171573 3.5 24.5 4.1715729 24.5 5 C 24.5 5.8284271 25.171573 6.5 26 6.5 C 26.828427 6.5 27.5 5.8284271 27.5 5 C 27.5 4.1715729 26.828427 3.5 26 3.5 z M 24 8 L 24 10 L 25 10 L 25 15 L 24 15 L 24 17 L 28 17 L 28 15 L 27 15 L 27 8 L 26 8 L 24 8 z M 13 9 C 9.6983746 9 7 11.698375 7 15 C 7 16.943641 7.9321501 18.683172 9.375 19.78125 C 6.2154025 21.180341 4 24.331085 4 28 L 6 28 C 6 24.122516 9.1225161 21 13 21 C 16.877484 21 20 24.122516 20 28 L 22 28 C 22 24.356071 19.812712 21.225918 16.6875 19.8125 C 17.471576 19.348804 18.205166 18.809761 18.875 18.28125 C 20.526039 16.978552 21.71875 15.6875 21.71875 15.6875 L 22.375 15 L 21.75 14.3125 C 21.75 14.3125 20.546457 13.024024 18.90625 11.71875 C 17.266043 10.413476 15.202343 9 13 9 z M 13 11 C 14.231657 11 16.154957 12.086524 17.65625 13.28125 C 18.725824 14.132415 19.091843 14.580152 19.5 15 C 19.08047 15.422703 18.701896 15.869061 17.625 16.71875 C 16.107539 17.916052 14.161898 19 13 19 C 10.779625 19 9 17.220375 9 15 C 9 12.779625 10.779625 11 13 11 z" overflow="visible" font-family="Sans" fill="#000000"/></svg>
