<?xml version="1.0" encoding="utf-8"?>
<svg xmlns="http://www.w3.org/2000/svg" viewBox="0 0 32 32" fill="#000000"><path style="text-indent:0;text-align:start;line-height:normal;text-transform:none;block-progression:tb;-inkscape-font-specification:Bitstream Vera Sans" d="M 4 5 L 4 8 L 4 9 L 4 12 C 4 13.105 4.895 14 6 14 L 6 26 L 6 27 L 7 27 L 25 27 L 26 27 L 26 26 L 26 6 L 26 5 L 25 5 L 12 5 L 12 7 L 24 7 L 24 25 L 8 25 L 8 14 C 9.105 14 10 13.105 10 12 L 10 9 L 10 8 L 10 5 L 8 5 L 8 8 L 6 8 L 6 5 L 4 5 z M 12 10 L 12 11 L 12 22 L 14 22 L 14 19 L 17 19 C 18.64497 19 20 17.64497 20 16 L 20 13 C 20 11.35503 18.64497 10 17 10 L 13 10 L 12 10 z M 14 12 L 17 12 C 17.56503 12 18 12.43497 18 13 L 18 16 C 18 16.56503 17.56503 17 17 17 L 14 17 L 14 12 z" overflow="visible" font-family="Bitstream Vera Sans" fill="#000000"/></svg>
