<?xml version="1.0" encoding="utf-8"?>
<svg xmlns="http://www.w3.org/2000/svg" viewBox="-7 9 32 32" fill="#000000"><path style="text-indent:0;text-align:start;line-height:normal;text-transform:none;block-progression:tb;-inkscape-font-specification:Sans" d="M 18.75 2.96875 C 18.543723 2.9731616 18.355482 3.002811 18.15625 3.03125 C 17.359322 3.145006 16.61578 3.44463 16.03125 4.03125 C 14.434209 5.628291 14.076409 7.440337 13.65625 9.0625 C 13.305587 10.416352 12.892959 11.716477 11.71875 13.15625 C 11.679875 13.200694 11.629128 13.23486 11.59375 13.28125 C 11.406625 13.502505 11.227226 13.739814 11 13.96875 C 10.980653 13.98824 10.988411 14.01169 10.96875 14.03125 C 10.140539 14.79791 9.9293156 15.945847 10.0625 17.0625 C 10.198575 18.203388 10.709803 19.397915 11.65625 20.34375 C 12.602673 21.290173 13.800687 21.778709 14.9375 21.90625 C 16.059453 22.032124 17.208453 21.83912 17.96875 21 C 17.97882 20.98889 17.99007 20.98008 18 20.96875 C 19.786386 19.187442 21.295205 18.729747 22.90625 18.3125 C 24.528551 17.892337 26.340903 17.534672 27.9375 15.9375 C 29.106876 14.77229 29.244821 13.013878 28.75 11.34375 C 28.255179 9.673622 27.143068 7.955568 25.59375 6.40625 C 24.044311 4.856811 22.331876 3.751429 20.65625 3.25 C 20.02789 3.0619638 19.368831 2.9555152 18.75 2.96875 z M 18.46875 4.96875 C 18.903447 4.91407 19.435813 4.968715 20.0625 5.15625 C 21.315874 5.531321 22.834939 6.459939 24.1875 7.8125 C 25.540182 9.165182 26.443821 10.661878 26.8125 11.90625 C 27.181179 13.150622 27.045874 14.01846 26.53125 14.53125 C 25.353847 15.709078 24.106449 15.934663 22.40625 16.375 C 20.946567 16.753045 19.196792 17.298764 17.40625 18.78125 L 17.375 18.75 C 17.229195 18.916519 16.756491 19.119038 16.09375 19.03125 C 15.431009 18.943462 14.673664 18.579914 14.0625 17.96875 C 13.470393 17.376643 13.088721 16.54723 13 15.8125 C 12.911279 15.07777 13.145334 14.525391 13.28125 14.40625 C 14.677341 12.665676 15.225635 10.983731 15.59375 9.5625 C 16.034092 7.862413 16.259541 6.615459 17.4375 5.4375 C 17.69197 5.18212 18.034053 5.023431 18.46875 4.96875 z M 18.8125 5.96875 C 18.5015 5.96875 18.28525 6.02725 18.15625 6.15625 C 18.09725 6.21525 18.053 6.28475 18 6.34375 L 18 7 L 17.5 7 C 17.319 7.31 17.1825 7.637 17.0625 8 L 18 8 L 18 10 L 16.53125 10 C 16.44625 10.32 16.359 10.657 16.25 11 L 18 11 L 18 13 L 16 13 L 16 11.6875 C 15.725 12.4255 15.36575 13.196 14.84375 14 L 15 14 L 15 16 L 14.0625 16 C 14.1505 16.358 14.31225 16.704 14.53125 17 L 15 17 L 15 17.46875 C 15.307 17.70575 15.658 17.88075 16 17.96875 L 16 17 L 18 17 L 18 17.125 C 18.765 16.63 19.51775 16.269 20.21875 16 L 19 16 L 19 14 L 21 14 L 21 15.71875 C 21.344 15.60975 21.679 15.5225 22 15.4375 L 22 14 L 24 14 L 24 14.90625 C 24.363 14.78425 24.69 14.6215 25 14.4375 L 25 14 L 25.59375 14 C 25.66375 13.939 25.7445 13.8805 25.8125 13.8125 C 25.9435 13.6815 26 13.46725 26 13.15625 C 26 13.10925 26.003 13.047 26 13 L 25 13 L 25 11 L 25.34375 11 C 25.00475 10.368 24.552 9.72375 24 9.09375 L 24 10 L 22 10 L 22 8 L 22.9375 8 C 22.3065 7.443 21.635 6.968 21 6.625 L 21 7 L 19 7 L 19 5.96875 C 18.943 5.96475 18.8675 5.96875 18.8125 5.96875 z M 19 8 L 21 8 L 21 10 L 19 10 L 19 8 z M 19 11 L 21 11 L 21 13 L 19 13 L 19 11 z M 22 11 L 24 11 L 24 13 L 22 13 L 22 11 z M 16 14 L 18 14 L 18 16 L 16 16 L 16 14 z M 9.59375 21 L 2.96875 27.59375 L 4.40625 29.03125 L 10.96875 22.46875 L 10.25 21.75 C 10.013 21.513 9.79675 21.266 9.59375 21 z" transform="translate(-7 9)" overflow="visible" font-family="Sans" fill="#000000"/></svg>
