<?xml version="1.0" encoding="utf-8"?>
<svg xmlns="http://www.w3.org/2000/svg" viewBox="0 0 32 32" fill="#000000"><path d="M 9 4 C 6.2504209 4 4 6.2504209 4 9 C 4 10.546638 4.7313427 11.924672 5.84375 12.84375 C 5.3172628 14.128208 5 15.526224 5 17 C 5 23.063407 9.9365932 28 16 28 C 22.063407 28 27 23.063407 27 17 C 27 15.526224 26.682737 14.128208 26.15625 12.84375 C 27.268657 11.924672 28 10.546638 28 9 C 28 6.2504209 25.749579 4 23 4 C 21.215746 4 19.635322 4.9582594 18.75 6.375 C 17.878259 6.1442633 16.951196 6 16 6 C 15.048804 6 14.121741 6.1442633 13.25 6.375 C 12.364678 4.9582594 10.784254 4 9 4 z M 9 6 C 10.668699 6 12 7.3313011 12 9 C 12 10.668699 10.668699 12 9 12 C 7.3313011 12 6 10.668699 6 9 C 6 7.3313011 7.3313011 6 9 6 z M 23 6 C 24.668699 6 26 7.3313011 26 9 C 26 10.668699 24.668699 12 23 12 C 21.331301 12 20 10.668699 20 9 C 20 7.3313011 21.331301 6 23 6 z M 9 8 C 8.4477153 8 8 8.4477153 8 9 C 8 9.5522847 8.4477153 10 9 10 C 9.5522847 10 10 9.5522847 10 9 C 10 8.4477153 9.5522847 8 9 8 z M 16 8 C 16.717934 8 17.395304 8.0890277 18.0625 8.25 C 18.024385 8.4975558 18 8.742227 18 9 C 18 11.749579 20.250421 14 23 14 C 23.491487 14 23.956663 13.915057 24.40625 13.78125 C 24.788295 14.779765 25 15.868718 25 17 C 25 21.982593 20.982593 26 16 26 C 11.017407 26 7 21.982593 7 17 C 7 15.868718 7.2117048 14.779765 7.59375 13.78125 C 8.0433374 13.915057 8.5085127 14 9 14 C 11.749579 14 14 11.749579 14 9 C 14 8.742227 13.975615 8.4975558 13.9375 8.25 C 14.604696 8.0890277 15.282066 8 16 8 z M 23 8 C 22.447715 8 22 8.4477153 22 9 C 22 9.5522847 22.447715 10 23 10 C 23.552285 10 24 9.5522847 24 9 C 24 8.4477153 23.552285 8 23 8 z M 10.8125 18 L 9.09375 19 C 10.477034 21.387335 13.047925 23 16 23 C 18.952075 23 21.522966 21.387335 22.90625 19 L 21.1875 18 C 20.148784 19.792665 18.225925 21 16 21 C 13.774075 21 11.851216 19.792665 10.8125 18 z" fill="#000000"/></svg>
