<?xml version="1.0" encoding="utf-8"?>
<svg xmlns="http://www.w3.org/2000/svg" viewBox="0 0 32 32" fill="#000000"><path style="line-height:normal;text-indent:0;text-align:start;text-decoration-line:none;text-decoration-style:solid;text-decoration-color:#000;text-transform:none;block-progression:tb;isolation:auto;mix-blend-mode:normal" d="M 11 4 A 1 1 0 0 0 10 5 A 1 1 0 0 0 11 6 A 1 1 0 0 0 12 5 A 1 1 0 0 0 11 4 z M 21 4 A 1 1 0 0 0 20 5 A 1 1 0 0 0 21 6 A 1 1 0 0 0 22 5 A 1 1 0 0 0 21 4 z M 8 5 A 1 1 0 0 0 7 6 A 1 1 0 0 0 8 7 A 1 1 0 0 0 9 6 A 1 1 0 0 0 8 5 z M 14 5 A 1 1 0 0 0 13 6 A 1 1 0 0 0 14 7 A 1 1 0 0 0 15 6 A 1 1 0 0 0 14 5 z M 18 5 A 1 1 0 0 0 17 6 A 1 1 0 0 0 18 7 A 1 1 0 0 0 19 6 A 1 1 0 0 0 18 5 z M 24 5 A 1 1 0 0 0 23 6 A 1 1 0 0 0 24 7 A 1 1 0 0 0 25 6 A 1 1 0 0 0 24 5 z M 7 8 A 1 1 0 0 0 6 9 A 1 1 0 0 0 7 10 A 1 1 0 0 0 8 9 A 1 1 0 0 0 7 8 z M 16 8 A 1 1 0 0 0 15 9 A 1 1 0 0 0 15.001953 9.0449219 C 10.819568 9.2627245 6.3183319 10.842473 3.3339844 13.509766 L 2.5703125 14.191406 L 12.048828 24.289062 L 12.748047 23.84375 C 13.027925 23.665212 13.412936 23.51238 13.824219 23.378906 L 14.412109 24.789062 A 2 2 0 0 0 14 26 A 2 2 0 0 0 16 28 A 2 2 0 0 0 18 26 A 2 2 0 0 0 16.257812 24.019531 L 15.837891 23.011719 C 15.883748 23.010441 15.935844 23 15.980469 23 C 17.03518 23 18.425334 23.3588 19.185547 23.84375 L 19.880859 24.287109 L 29.433594 14.236328 L 28.667969 13.548828 C 25.686844 10.867722 21.188477 9.2720794 16.998047 9.0449219 A 1 1 0 0 0 17 9 A 1 1 0 0 0 16 8 z M 25 8 A 1 1 0 0 0 24 9 A 1 1 0 0 0 25 10 A 1 1 0 0 0 26 9 A 1 1 0 0 0 25 8 z M 15.980469 11 C 19.574235 11 23.704469 12.359532 26.480469 14.439453 L 19.464844 21.818359 C 18.370098 21.312036 17.144868 21 15.980469 21 C 15.667193 21 15.348883 21.025614 15.029297 21.068359 L 11.923828 13.615234 L 10.076172 14.384766 L 13.074219 21.578125 C 12.871571 21.655186 12.668043 21.730271 12.472656 21.820312 L 5.515625 14.408203 C 8.2846686 12.346267 12.402734 11 15.980469 11 z M 16 12 A 1 1 0 0 0 15 13 A 1 1 0 0 0 16 14 A 1 1 0 0 0 17 13 A 1 1 0 0 0 16 12 z M 16 16 A 1 1 0 0 0 15 17 A 1 1 0 0 0 16 18 A 1 1 0 0 0 17 17 A 1 1 0 0 0 16 16 z" fill="#000000"/></svg>
