<?xml version="1.0" encoding="utf-8"?>
<svg xmlns="http://www.w3.org/2000/svg" viewBox="0 0 32 32" fill="#000000"><path style="text-indent:0;text-align:start;line-height:normal;text-transform:none;block-progression:tb;-inkscape-font-specification:Sans" d="M 14.5 4 C 8.142837 3.998902 3.03125 9.4090779 3.03125 16 C 3.03125 22.590117 8.1438324 28 14.5 28 C 18.367459 28 20.97479 26.444426 22.9375 24.59375 L 22.25 23.875 L 21.75 23 C 20.594867 23.682376 19.533571 24 17 24 C 12.575973 23.999104 9 20.660651 9 16 C 9 11.339349 12.576219 8 17 8 C 19.146889 8 20.645601 8.3409329 21.71875 8.9375 L 21.9375 8.53125 L 22 8.46875 L 21.75 8.9375 C 21.77105 8.948834 21.78549 8.952399 21.8125 8.96875 L 22.3125 8.125 L 23.03125 7.40625 C 21.031323 5.5194655 18.174937 4 14.5 4 z M 14.5 6 C 14.961528 6 15.386152 6.0432485 15.8125 6.09375 C 10.906923 6.6696334 7 10.718438 7 16 C 7 21.292534 10.923955 25.342995 15.84375 25.90625 C 15.417314 25.952873 14.980557 26 14.5 26 C 9.2781676 26 5.03125 21.559883 5.03125 16 C 5.03125 10.438922 9.277163 5.999098 14.5 6 z M 25.59375 11 L 23.4375 14.09375 L 20.03125 12.875 L 22.125 16 L 20 19.0625 L 23.4375 17.90625 L 25.5625 21 L 25.5625 17.1875 L 29 16 L 25.5625 14.8125 L 25.59375 11 z" overflow="visible" font-family="Sans" fill="#000000"/></svg>
