<?xml version="1.0" encoding="utf-8"?>
<svg xmlns="http://www.w3.org/2000/svg" viewBox="0 0 32 32" fill="#000000"><path style="text-indent:0;text-align:start;line-height:normal;text-transform:none;block-progression:tb;-inkscape-font-specification:Bitstream Vera Sans" d="M 16 4 C 9.3844277 4 4 9.3844277 4 16 C 4 22.615572 9.3844277 28 16 28 C 22.615572 28 28 22.615572 28 16 C 28 9.3844277 22.615572 4 16 4 z M 13 6.4375 L 13 9 L 19 9 L 19 6.4375 C 23.059809 7.7095551 26 11.513227 26 16 C 26 18.253025 25.250806 20.330461 24 22 L 20 22 L 20 25.1875 C 18.779317 25.716779 17.418265 26 16 26 C 14.581735 26 13.220683 25.716779 12 25.1875 L 12 22 L 8 22 C 6.7491939 20.330461 6 18.253025 6 16 C 6 11.513227 8.940191 7.7095551 13 6.4375 z M 12.5 11 C 11.671573 11 11 11.671573 11 12.5 C 11 13.328427 11.671573 14 12.5 14 C 13.328427 14 14 13.328427 14 12.5 C 14 11.671573 13.328427 11 12.5 11 z M 19.5 11 C 18.671573 11 18 11.671573 18 12.5 C 18 13.328427 18.671573 14 19.5 14 C 20.328427 14 21 13.328427 21 12.5 C 21 11.671573 20.328427 11 19.5 11 z M 10.5 15 C 9.6715729 15 9 15.671573 9 16.5 C 9 17.328427 9.6715729 18 10.5 18 C 11.328427 18 12 17.328427 12 16.5 C 12 15.671573 11.328427 15 10.5 15 z M 21.5 15 C 20.671573 15 20 15.671573 20 16.5 C 20 17.328427 20.671573 18 21.5 18 C 22.328427 18 23 17.328427 23 16.5 C 23 15.671573 22.328427 15 21.5 15 z" overflow="visible" font-family="Bitstream Vera Sans" fill="#000000"/></svg>
