<?xml version="1.0" encoding="utf-8"?>
<svg xmlns="http://www.w3.org/2000/svg" viewBox="0 0 32 32" fill="#000000"><path style="text-indent:0;text-align:start;line-height:normal;text-transform:none;block-progression:tb;-inkscape-font-specification:Sans" d="M 8.9375 5 C 6.7728596 5 5 6.7728596 5 8.9375 L 5 16 L 5 23.0625 C 5 25.22714 6.7728596 27 8.9375 27 L 16 27 L 23.0625 27 C 25.22714 27 27 25.22714 27 23.0625 L 27 16 L 27 8.9375 C 27 6.7728596 25.22714 5 23.0625 5 L 16 5 L 8.9375 5 z M 8.9375 7 L 16 7 L 23.0625 7 C 24.14586 7 25 7.8541404 25 8.9375 L 25 16 L 25 23.0625 C 25 24.14586 24.14586 25 23.0625 25 L 16 25 L 8.9375 25 C 7.8541404 25 7 24.14586 7 23.0625 L 7 16 L 7 8.9375 C 7 7.8541404 7.8541404 7 8.9375 7 z M 10.5 12 C 9.1309372 12 8 13.130937 8 14.5 L 8 17.5 C 8 18.869063 9.1309372 20 10.5 20 L 11.5 20 L 12 21 L 14 21 L 13 19 L 13 14.5 C 13 13.130937 11.869063 12 10.5 12 z M 14 12 L 14 17.5 C 14 18.869063 15.130937 20 16.5 20 C 17.869063 20 19 18.869063 19 17.5 L 19 12 L 17 12 L 17 17.5 C 17 17.786937 16.786937 18 16.5 18 C 16.213063 18 16 17.786937 16 17.5 L 16 12 L 14 12 z M 20 12 L 20 13 L 20 19 L 20 20 L 21 20 L 24 20 L 24 18 L 22 18 L 22 17 L 23 17 L 23 15 L 22 15 L 22 14 L 24 14 L 24 12 L 21 12 L 20 12 z M 10.5 14 C 10.786937 14 11 14.213063 11 14.5 L 11 17 L 10 17 L 10.5 18 C 10.213063 18 10 17.786937 10 17.5 L 10 17 L 10 14.5 C 10 14.213063 10.213063 14 10.5 14 z" overflow="visible" font-family="Sans" fill="#000000"/></svg>
