<?xml version="1.0" encoding="utf-8"?>
<svg xmlns="http://www.w3.org/2000/svg" viewBox="0 0 32 32" fill="#000000"><path style="text-indent:0;text-align:start;line-height:normal;text-transform:none;block-progression:tb;-inkscape-font-specification:Bitstream Vera Sans" d="M 23.96875 4 C 22.937476 4 21.906059 4.4064413 21.125 5.1875 L 20.4375 5.875 L 12.59375 13.71875 C 12.39984 13.91266 12.253205 14.132637 12.15625 14.375 C 11.954523 14.752021 11.678464 15.216265 11.375 15.65625 C 11.050751 16.126371 10.667023 16.537886 10.53125 16.625 C 9.9335978 17.008277 8.2409545 17.593248 6.75 18.9375 C 5.2590455 20.281752 4 22.495186 4 26 L 4 27 L 5 27 C 9.640369 27 11.984752 25.887232 13.21875 24.40625 C 13.835749 23.665759 14.141806 22.877787 14.375 22.28125 C 14.608194 21.684713 14.778007 21.315651 14.90625 21.1875 C 15.473344 20.620406 15.826602 20.520389 16.34375 20.375 C 16.860898 20.229611 17.649694 20.037806 18.34375 19.34375 L 26.8125 10.875 C 28.374617 9.3128827 28.374617 6.7496173 26.8125 5.1875 C 26.031441 4.4064413 25.000024 4 23.96875 4 z M 23.96875 6 C 24.483976 6 25.007309 6.1948087 25.40625 6.59375 C 26.204133 7.3916327 26.204133 8.6396173 25.40625 9.4375 L 22.5625 12.3125 L 19.6875 9.4375 L 22.5625 6.59375 C 22.961441 6.1948087 23.453524 6 23.96875 6 z M 18.28125 10.875 L 21.125 13.71875 L 19.6875 15.15625 L 16.84375 12.3125 L 18.28125 10.875 z M 15.4375 13.71875 L 18.28125 16.5625 L 16.9375 17.9375 C 16.905864 17.969136 16.873625 17.97392 16.84375 18 L 14 15.15625 L 14 15.125 L 15.4375 13.71875 z M 12.9375 16.90625 L 14.84375 18.8125 C 14.417457 19.017617 13.950806 19.299194 13.5 19.75 C 12.926743 20.322849 12.723587 20.990537 12.5 21.5625 C 12.276413 22.134463 12.076626 22.657991 11.6875 23.125 C 11.007887 23.940637 9.3868984 24.647807 6.1875 24.84375 C 6.4291348 22.67769 7.150027 21.257115 8.09375 20.40625 C 9.2197955 19.391002 10.535402 18.991223 11.59375 18.3125 C 12.169571 17.943047 12.565474 17.439691 12.9375 16.90625 z" overflow="visible" font-family="Bitstream Vera Sans" fill="#000000"/></svg>
