<?xml version="1.0" encoding="utf-8"?>
<svg xmlns="http://www.w3.org/2000/svg" viewBox="0 0 32 32" fill="#000000"><path style="text-indent:0;text-align:start;line-height:normal;text-transform:none;block-progression:tb;-inkscape-font-specification:Sans" d="M 16 7 C 12.698136 7 10 9.698136 10 13 C 10 15.964985 12.165217 18.431434 15 18.90625 L 15 23 L 12 23 L 16 27 L 20 23 L 17 23 L 17 18.90625 C 19.834783 18.431434 22 15.964985 22 13 C 22 9.698136 19.301864 7 16 7 z M 16 9 C 18.220984 9 20 10.779016 20 13 C 20 15.220984 18.220984 17 16 17 C 13.779016 17 12 15.220984 12 13 C 12 10.779016 13.779016 9 16 9 z" overflow="visible" font-family="Sans" fill="#000000"/></svg>
