<?xml version="1.0" encoding="utf-8"?>
<svg xmlns="http://www.w3.org/2000/svg" viewBox="0 0 32 32" fill="#000000"><path d="M 11 5 C 7.6983746 5 5 7.6983746 5 11 L 5 11.25 L 3.875 12.75 C 4.2288079 13.0152 4.6029583 13.193299 5 13.3125 L 5 15.78125 C 4.3897448 16.332103 4 17.121876 4 18 C 4 18.878124 4.3897448 19.667897 5 20.21875 L 5 23 C 5 24.093063 5.9069372 25 7 25 L 25 25 C 26.093063 25 27 24.093063 27 23 L 27 20.21875 C 27.610255 19.667897 28 18.878124 28 18 C 28 17.121876 27.610255 16.332103 27 15.78125 L 27 13.3125 C 27.397042 13.193299 27.771192 13.0152 28.125 12.75 L 27 11.21875 L 27 11 C 27 7.6983746 24.301625 5 21 5 L 11 5 z M 11 7 L 12 7 C 12 7.5522847 12.447715 8 13 8 C 13.552285 8 14 7.5522847 14 7 L 21 7 C 23.220375 7 25 8.7796254 25 11 L 25 11.5 C 24.741357 11.427785 24.505303 11.292942 24.28125 11.125 L 23.75 10.75 L 23.15625 11.09375 L 22.40625 11.53125 C 21.707089 11.950471 20.854036 11.950059 20.15625 11.53125 L 19.40625 11.09375 L 18.9375 10.8125 L 18.4375 11.03125 L 17 11.78125 C 16.37948 12.091166 15.65177 12.091166 15.03125 11.78125 L 13.5625 11.03125 L 13.0625 10.8125 L 12.59375 11.09375 L 11.84375 11.53125 C 11.144589 11.950471 10.291536 11.950059 9.59375 11.53125 L 8.84375 11.09375 L 8.25 10.75 L 7.71875 11.125 C 7.4946966 11.292942 7.2550129 11.427785 7 11.5 L 7 11 C 7 8.7796254 8.7796254 7 11 7 z M 11 8 C 10.447715 8 10 8.4477153 10 9 C 10 9.5522847 10.447715 10 11 10 C 11.552285 10 12 9.5522847 12 9 C 12 8.4477153 11.552285 8 11 8 z M 15 8 C 14.447715 8 14 8.4477153 14 9 C 14 9.5522847 14.447715 10 15 10 C 15.552285 10 16 9.5522847 16 9 C 16 8.4477153 15.552285 8 15 8 z M 8.15625 13 L 8.5625 13.25 C 9.8907138 14.047191 11.546161 14.046779 12.875 13.25 L 13.15625 13.0625 L 14.125 13.5625 C 15.30648 14.152584 16.69352 14.152584 17.875 13.5625 L 18.84375 13.0625 L 19.125 13.25 C 20.453214 14.047191 22.108661 14.046779 23.4375 13.25 L 23.84375 13 C 24.219309 13.179316 24.601694 13.294477 25 13.375 L 25 15 L 7 15 L 7 13.375 C 7.3983063 13.294477 7.7806912 13.179316 8.15625 13 z M 7 17 L 25 17 C 25.56503 17 26 17.43497 26 18 C 26 18.56503 25.56503 19 25 19 L 7 19 C 6.4349698 19 6 18.56503 6 18 C 6 17.43497 6.4349698 17 7 17 z M 7 21 L 25 21 L 25 23 L 7 23 L 7 21 z" fill="#000000"/></svg>
