<?xml version="1.0" encoding="utf-8"?>
<svg xmlns="http://www.w3.org/2000/svg" viewBox="0 0 32 32" fill="#000000"><path d="M 10.09375 5 C 9.644414 5 9.2452492 5.0632744 8.84375 5.28125 C 8.4422508 5.4992256 8.1118563 5.9555355 8.03125 6.375 C 7.8700375 7.213929 8.188293 7.7662889 8.46875 8.40625 C 8.912807 9.4195217 9.4719575 10.567682 9.6875 11.59375 C 9.2464218 12.060365 8.9451431 12.510032 8.71875 12.84375 C 8.347249 12.76958 8.1088796 12.67138 7.71875 12.28125 C 7.2192214 11.781721 6.3320013 11 5 11 L 4.4375 11 L 4.125 11.5 C 4.125 11.5 3 13.399649 3 16 C 3 18.600351 4.125 20.5 4.125 20.5 L 4.4375 21 L 5 21 C 6.3175301 21 7.1767828 20.218351 7.6875 19.71875 C 8.0262705 19.387353 8.2920872 19.351335 8.5625 19.25 C 8.8342765 19.839403 9.2181303 20.491653 9.90625 21.09375 C 9.7982081 21.831451 9.3066497 22.906652 8.96875 23.9375 C 8.7785215 24.51784 8.5347885 25.148225 8.875 25.90625 C 9.0451057 26.285263 9.4032306 26.616907 9.78125 26.78125 C 10.159269 26.945593 10.561452 27 11 27 C 17.252321 27 21.705456 25.190049 24.59375 23.25 C 26.037897 22.279976 27.106097 21.255399 27.8125 20.4375 C 28.165702 20.02855 28.432542 19.685574 28.625 19.375 C 28.72123 19.219713 28.778984 19.082606 28.84375 18.9375 C 28.908516 18.792394 29 18.700723 29 18.34375 C 29 17.926936 28.836038 17.493436 28.625 17.21875 C 28.413962 16.944064 28.17346 16.786195 27.96875 16.625 C 27.564575 16.30674 27.196162 15.999461 26.8125 15.5 C 26.797574 15.436436 26.776805 15.318483 26.75 15.15625 C 26.69639 14.831785 26.627705 14.351275 26.53125 13.8125 C 26.33834 12.734949 25.960096 11.348861 25 10 C 23.079807 7.3022777 18.937664 5 10.09375 5 z M 10.09375 7 C 18.597836 7 21.922943 9.1162223 23.375 11.15625 C 24.101029 12.176264 24.394879 13.219957 24.5625 14.15625 C 24.64631 14.624397 24.71495 15.067485 24.78125 15.46875 C 24.84755 15.870015 24.86799 16.257025 25.21875 16.71875 C 25.791133 17.472198 26.399671 17.91164 26.75 18.1875 C 26.84302 18.26075 26.85755 18.26774 26.90625 18.3125 C 26.784387 18.509153 26.57508 18.816043 26.28125 19.15625 C 25.693591 19.836663 24.791103 20.695274 23.5 21.5625 C 20.917794 23.296951 16.865679 25 11 25 C 10.83766 25 10.816601 24.98225 10.75 24.96875 C 10.76691 24.94651 10.73506 24.89407 10.84375 24.5625 C 11.039057 23.966667 11.460418 23.140408 11.71875 22.1875 C 12.991239 22.698171 14.683471 23 17 23 L 17 21 C 13.861478 21 12.268371 20.394031 11.40625 19.75 C 10.544129 19.105969 10.298028 18.392312 10.03125 17.65625 L 9.8125 17 L 9.09375 17 L 9 17 C 7.6801903 17 6.8240328 17.780851 6.3125 18.28125 C 6.006428 18.58066 5.7602813 18.608773 5.53125 18.71875 C 5.2817184 18.104971 5 17.232436 5 16 C 5 14.767564 5.2817184 13.895029 5.53125 13.28125 C 5.7536006 13.389771 5.9854963 13.422996 6.28125 13.71875 C 6.7817214 14.219221 7.665332 15 9 15 L 9.09375 15 L 9.53125 15 L 9.84375 14.65625 C 10.556014 13.864536 10.847207 13.085973 11.84375 12.375 C 12.840293 11.664027 14.554889 11 18 11 L 18 9 C 14.9039 9 12.853384 9.526055 11.4375 10.28125 C 11.108275 9.2271059 10.617778 8.3215996 10.3125 7.625 C 10.136885 7.2242737 10.126979 7.1127683 10.09375 7 z M 22 15 C 21.447715 15 21 15.447715 21 16 C 21 16.552285 21.447715 17 22 17 C 22.552285 17 23 16.552285 23 16 C 23 15.447715 22.552285 15 22 15 z" fill="#000000"/></svg>
