<?xml version="1.0" encoding="utf-8"?>
<svg xmlns="http://www.w3.org/2000/svg" viewBox="0 0 32 32" fill="#000000"><path style="text-indent:0;text-align:start;line-height:normal;text-transform:none;block-progression:tb;-inkscape-font-specification:Sans" d="M 20.5 3 C 15.81752 3 12 6.8175204 12 11.5 C 12 12.472062 12.166126 13.410155 12.46875 14.28125 L 12.375 14.625 C 12.375 14.625 11.607002 17.049248 10.375 18.28125 C 9.7396198 18.91663 8.487556 19.633891 7.28125 20.25 C 6.074944 20.866109 4.9594263 21.289762 4.1875 22.0625 C 2.6110371 23.638963 2.6094832 26.235803 4.1875 27.8125 C 5.7634798 29.38848 8.3608399 29.38916 9.9375 27.8125 C 10.711223 27.038777 11.136873 25.925389 11.75 24.71875 C 12.363127 23.512111 13.048598 22.264295 13.6875 21.625 C 14.908375 20.404125 17.375 19.625 17.375 19.625 L 17.71875 19.53125 C 18.589845 19.833874 19.527938 20 20.5 20 C 23.158942 20 25.533252 18.765062 27.09375 16.84375 C 28.281338 15.381572 29 13.523538 29 11.5 C 29 10.256223 28.729906 9.0674687 28.25 8 C 28.722983 7.4689299 29 6.7596075 29 6 C 29 4.3549901 27.645009 3 26 3 C 25.240393 3 24.53107 3.2770176 24 3.75 C 22.932187 3.2719417 21.740887 3 20.5 3 z M 20.5 5 C 21.413407 5 22.274739 5.190729 23.0625 5.53125 C 23.036987 5.6873466 23 5.8371891 23 6 C 23 7.6450099 24.354991 9 26 9 C 26.162811 9 26.312653 8.9630133 26.46875 8.9375 C 26.805177 9.720865 27 10.588318 27 11.5 C 27 12.987878 26.522082 14.344399 25.6875 15.4375 L 25.65625 15.40625 C 25.669697 15.392803 25.649385 15.381955 25.65625 15.375 C 25.600734 15.390412 25.487975 15.41411 25.3125 15.40625 C 24.961546 15.39053 24.453155 15.293058 23.84375 15.0625 C 22.624941 14.601383 21.094312 13.656812 19.71875 12.28125 C 18.339679 10.902179 17.377844 9.3975598 16.90625 8.1875 C 16.670453 7.5824701 16.581097 7.0329444 16.5625 6.6875 C 16.543903 6.3420556 16.639103 6.2671466 16.53125 6.375 C 17.632412 5.5173881 18.989613 5 20.5 5 z M 26 5 C 26.564129 5 27 5.4358709 27 6 C 27 6.5641291 26.564129 7 26 7 C 25.435871 7 25 6.5641291 25 6 C 25 5.8695655 25.019699 5.7379188 25.0625 5.625 C 25.071258 5.6018952 25.083392 5.5846797 25.09375 5.5625 A 1.0077822 1.0077822 0 0 0 25.125 5.46875 C 25.297256 5.1779088 25.628016 5 26 5 z M 14.875 8.28125 C 14.938438 8.4861895 14.978999 8.6919948 15.0625 8.90625 C 15.649406 10.41219 16.705321 12.142821 18.28125 13.71875 C 19.860688 15.298188 21.606809 16.363117 23.125 16.9375 C 23.340998 17.01922 23.541477 17.064836 23.75 17.125 C 22.79161 17.680432 21.69202 18 20.5 18 C 17.873892 18 15.621126 16.449759 14.59375 14.21875 C 14.212153 13.390089 14 12.475412 14 11.5 C 14 10.317817 14.328052 9.2342887 14.875 8.28125 z M 13.75 16.65625 C 14.209772 17.256851 14.743149 17.790228 15.34375 18.25 C 14.413606 18.646943 13.226338 19.273662 12.28125 20.21875 C 11.294152 21.206455 10.598123 22.573889 9.96875 23.8125 C 9.3393769 25.051111 8.6782773 26.227973 8.5 26.40625 C 7.6866601 27.21959 6.4057702 27.21827 5.59375 26.40625 C 4.7797668 25.592947 4.7802129 24.313537 5.59375 23.5 C 5.7728237 23.320738 6.949806 22.663391 8.1875 22.03125 C 9.425194 21.399109 10.79763 20.70237 11.78125 19.71875 C 12.72785 18.77215 13.345269 17.585979 13.75 16.65625 z" overflow="visible" font-family="Sans" fill="#000000"/></svg>
