<?xml version="1.0" encoding="utf-8"?>
<svg xmlns="http://www.w3.org/2000/svg" viewBox="0 0 32 32" fill="#000000"><path style="text-indent:0;text-align:start;line-height:normal;text-transform:none;block-progression:tb;-inkscape-font-specification:Sans" d="M 18.5 4 C 16.578848 4 15 5.5788481 15 7.5 C 15 9.4211519 16.578848 11 18.5 11 C 20.421152 11 22 9.4211519 22 7.5 C 22 5.5788481 20.421152 4 18.5 4 z M 18.5 6 C 19.340272 6 20 6.6597281 20 7.5 C 20 8.3402719 19.340272 9 18.5 9 C 17.659728 9 17 8.3402719 17 7.5 C 17 6.6597281 17.659728 6 18.5 6 z M 22.6875 11.34375 C 22.513559 11.355656 22.33 11.393875 22.15625 11.4375 L 20.59375 11.8125 C 19.79775 12.0105 19.12375 12.534 18.71875 13.25 L 16.03125 18 L 18.34375 18 L 19.84375 15.28125 L 21.125 18 L 23.3125 18 L 21.3125 13.6875 L 22.625 13.375 C 23.087 13.255 23.57925 13.47225 23.78125 13.90625 L 25.6875 18 L 27.875 18 L 25.59375 13.0625 C 25.0635 11.922375 23.90509 11.260406 22.6875 11.34375 z M 7.5 17 C 5.5788481 17 4 18.578848 4 20.5 C 4 22.421152 5.5788481 24 7.5 24 C 9.4211519 24 11 22.421152 11 20.5 C 11 18.578848 9.4211519 17 7.5 17 z M 7.5 19 C 8.3402719 19 9 19.659728 9 20.5 C 9 21.340272 8.3402719 22 7.5 22 C 6.6597281 22 6 21.340272 6 20.5 C 6 19.659728 6.6597281 19 7.5 19 z M 15 19 C 13.35503 19 12 20.35503 12 22 L 12 23.5625 L 9.5625 26 L 4 26 L 4 28 L 10 28 L 10.40625 28 L 10.71875 27.71875 L 13.4375 25 L 23 25 L 23 26 L 23 27 L 24 27 L 29 27 L 29 25 L 25 25 L 25 24 L 25 21 L 29 21 L 29 19 L 24 19 L 15 19 z M 15 21 L 23 21 L 23 23 L 14 23 L 14 22 C 14 21.43497 14.43497 21 15 21 z" overflow="visible" font-family="Sans" fill="#000000"/></svg>
