<?xml version="1.0" encoding="utf-8"?>
<svg xmlns="http://www.w3.org/2000/svg" viewBox="0 0 32 32" fill="#000000"><path style="text-indent:0;text-align:start;line-height:normal;text-transform:none;block-progression:tb;-inkscape-font-specification:Sans" d="M 8 3 L 8 5 L 9 5 L 9 6 L 8 6 L 8 8 L 9 8 L 9 9 L 8 9 L 8 11 L 9 11 L 9 18 L 7 18 L 6 18 L 6 19 L 6 26.09375 C 6 27.686794 7.3132057 29 8.90625 29 L 11.09375 29 C 12.686794 29 14 27.686794 14 26.09375 L 14 19 L 14 18 L 13 18 L 11 18 L 11 11 L 12 11 L 12 9 L 11 9 L 11 8 L 12 8 L 12 6 L 11 6 L 11 5 L 12 5 L 12 3 L 8 3 z M 19 9 L 19 10 L 19 12 L 18 12 L 17 12 L 17 13 L 17 26.03125 C 17 27.660304 18.339696 29 19.96875 29 L 24.03125 29 C 25.660304 29 27 27.660304 27 26.03125 L 27 13 L 27 12 L 26 12 L 25 12 L 25 10 L 25 9 L 24 9 L 20 9 L 19 9 z M 21 11 L 23 11 L 23 12 L 21 12 L 21 11 z M 19 14 L 20 14 L 25 14 L 25 15 L 19 15 L 19 14 z M 19 17 L 25 17 L 25 26.03125 C 25 26.578196 24.578196 27 24.03125 27 L 19.96875 27 C 19.421804 27 19 26.578196 19 26.03125 L 19 17 z M 8 20 L 12 20 L 12 26.09375 C 12 26.606706 11.606706 27 11.09375 27 L 8.90625 27 C 8.3932943 27 8 26.606706 8 26.09375 L 8 20 z" fill="#000000"/></svg>
