<?xml version="1.0" encoding="utf-8"?>
<svg xmlns="http://www.w3.org/2000/svg" viewBox="0 0 32 32" fill="#000000"><path style="line-height:normal;text-indent:0;text-align:start;text-decoration-line:none;text-decoration-style:solid;text-decoration-color:#000;text-transform:none;block-progression:tb;isolation:auto;mix-blend-mode:normal" d="M 16 4 C 13.75 4 12.242497 4.8827951 10.884766 5.6210938 C 9.5270341 6.3593924 8.2816307 7 6 7 L 5 7 L 5 8 C 5 15.717856 7.605007 20.738906 10.246094 23.777344 C 12.88718 26.815782 15.626953 27.927734 15.626953 27.927734 L 15.998047 28.076172 L 16.367188 27.929688 C 16.367188 27.929688 19.111702 26.831153 21.753906 23.798828 C 24.39611 20.766503 27 15.745028 27 8 L 27 7 L 26 7 C 23.730806 7 22.484223 6.3597259 21.123047 5.6210938 C 19.761871 4.8824616 18.25 4 16 4 z M 16 6 C 17.75 6 18.766848 6.6175384 20.169922 7.3789062 C 21.352057 8.020383 22.911122 8.6258833 24.931641 8.8339844 C 24.742901 15.603693 22.504845 19.894072 20.246094 22.486328 C 18.194135 24.841259 16.479735 25.656918 16.001953 25.869141 C 15.522949 25.653688 13.806268 24.825983 11.753906 22.464844 C 9.4944146 19.865411 7.2596156 15.576705 7.0703125 8.8339844 C 9.0976324 8.6259268 10.659549 8.0207197 11.839844 7.3789062 C 13.240613 6.6172049 14.25 6 16 6 z M 16 10 A 3 3 0 0 0 13 13 A 3 3 0 0 0 14.753906 15.724609 L 14 21 L 18 21 L 17.246094 15.724609 A 3 3 0 0 0 19 13 A 3 3 0 0 0 16 10 z" font-weight="400" font-family="sans-serif" white-space="normal" overflow="visible" fill="#000000"/></svg>
