<?xml version="1.0" encoding="utf-8"?>
<svg xmlns="http://www.w3.org/2000/svg" viewBox="0 0 32 32" fill="#000000"><path style="text-indent:0;text-align:start;line-height:normal;text-transform:none;block-progression:tb;-inkscape-font-specification:Sans" d="M 10 3 L 10 5 L 12 5 L 12 3 L 10 3 z M 20 3 L 20 5 L 22 5 L 22 3 L 20 3 z M 10 7 L 10 9 L 12 9 L 12 7 L 10 7 z M 20 7 L 20 9 L 22 9 L 22 7 L 20 7 z M 27.15625 7.4375 L 23.75 12.53125 L 19.625 9.21875 L 18.75 8.53125 L 18.15625 9.46875 L 13.71875 16.59375 L 8.5625 13.15625 L 7.78125 12.65625 L 7.21875 13.375 L 3.21875 18.375 L 4.78125 19.625 L 8.1875 15.34375 L 13.4375 18.84375 L 14.3125 19.40625 L 14.84375 18.53125 L 19.25 11.46875 L 23.375 14.78125 L 24.21875 15.46875 L 24.84375 14.5625 L 28.84375 8.5625 L 27.15625 7.4375 z M 10 11 L 10 13 L 12 13 L 12 11 L 10 11 z M 20 15 L 20 17 L 22 17 L 22 15 L 20 15 z M 10 19 L 10 21 L 12 21 L 12 19 L 10 19 z M 20 19 L 20 21 L 22 21 L 22 19 L 20 19 z M 10 23 L 10 25 L 12 25 L 12 23 L 10 23 z M 20 23 L 20 25 L 22 25 L 22 23 L 20 23 z M 3 27 L 3 29 L 29 29 L 29 27 L 3 27 z" fill="#000000"/></svg>
