<?xml version="1.0" encoding="utf-8"?>
<svg xmlns="http://www.w3.org/2000/svg" viewBox="0 0 32 32" fill="#000000"><path style="text-indent:0;text-align:start;line-height:normal;text-transform:none;block-progression:tb;-inkscape-font-specification:Sans" d="M 13.9375 3 C 12.714815 3.015863 11.465828 3.7267105 10.875 5 C 9.437392 5.2331555 8.4510084 6.3151976 8.125 7.5625 C 7.8121213 7.5655453 7.5625 7.59375 7.5625 7.59375 L 6.4375 7.71875 L 6.6875 8.84375 L 9.03125 18.53125 L 3.71875 23.84375 L 3 24.5625 L 3.71875 25.28125 L 6.71875 28.28125 L 7.4375 28.96875 L 8.125 28.28125 L 12 24.40625 L 12 29 L 14 29 L 14 24.1875 C 14.982541 25.197846 16 26.686615 16 29 L 18 29 C 18 26.72431 17.125244 24.920716 16.15625 23.625 L 23.15625 25.3125 L 24.15625 25.5625 L 24.375 24.59375 C 24.375 24.59375 24.427794 24.337938 24.46875 24 C 25.259522 24.012343 26.025595 23.739929 26.625 23.28125 C 27.59695 22.53749 28.189562 21.256573 27.9375 19.875 C 29.810316 17.95477 28.771316 14.672241 26.25 14.0625 C 27.117088 12.900527 27.28532 11.23932 26.3125 9.9375 C 26.316 9.926977 26.3091 9.916777 26.3125 9.90625 C 26.737522 8.5890518 26.334647 7.2188467 25.46875 6.375 C 24.595933 5.5244093 23.21992 5.1455584 21.90625 5.625 L 21.875 5.625 C 21.325672 5.2466693 20.726386 5.0514614 20.125 5.03125 C 19.526028 5.0111198 18.939485 5.1694493 18.40625 5.4375 C 18.006176 5.1927265 17.532511 5.0125818 17.03125 4.9375 C 17.02665 4.9368129 17.03585 4.906919 17.03125 4.90625 C 16.403473 3.6506962 15.160185 2.984137 13.9375 3 z M 13.9375 5 C 14.449065 4.993363 14.958777 5.2300538 15.25 5.8125 L 15.46875 6.28125 L 15.71875 6.75 L 16.25 6.8125 L 16.75 6.875 C 16.798335 6.8816122 16.830543 6.8951038 16.875 6.90625 C 16.606366 7.3948042 16.428091 7.9460747 16.4375 8.5625 C 15.971519 8.9035206 15.618508 9.3375261 15.375 9.8125 C 15.171507 9.7381345 14.953825 9.7027114 14.75 9.65625 C 14.903303 9.480519 15 9.2515182 15 9 C 15 8.4477153 14.552285 8 14 8 C 13.447715 8 13 8.4477153 13 9 C 13 9.2022699 13.08425 9.3738897 13.1875 9.53125 C 13.071609 9.5396057 12.957286 9.5473851 12.84375 9.5625 C 12.092463 8.597501 11.067127 8.0535902 10.125 7.8125 C 10.304817 7.3840105 10.676409 7.0567084 11.21875 6.96875 L 11.71875 6.875 L 12.25 6.78125 L 12.46875 6.3125 L 12.6875 5.84375 C 12.960672 5.2550395 13.425935 5.006637 13.9375 5 z M 19.96875 7 C 20.23366 7.0154659 20.501457 7.1020182 20.75 7.28125 L 21.1875 7.5625 L 21.59375 7.875 L 22.09375 7.6875 L 22.59375 7.53125 C 23.19808 7.3106916 23.698317 7.457591 24.0625 7.8125 C 24.426683 8.1674093 24.610292 8.6684934 24.40625 9.28125 L 24.25 9.78125 L 24.09375 10.28125 L 24.40625 10.71875 L 24.71875 11.125 C 25.462673 12.101819 24.761 13.453197 23.5 13.46875 L 23 13.46875 L 22.46875 13.5 L 22.1875 13.90625 L 21.90625 14.3125 C 21.891185 14.327294 21.870725 14.325082 21.84375 14.34375 C 21.75608 14.40442 21.608018 14.500294 21.46875 14.5625 C 21.190214 14.686911 20.903725 14.686867 20.90625 14.6875 L 20.875 14.78125 C 20.173627 14.124222 19.330643 13.678624 18.40625 13.53125 C 18.179982 12.491846 17.714554 11.597084 17.09375 10.9375 C 17.178087 10.655135 17.330961 10.402687 17.625 10.1875 L 18.03125 9.875 L 18.46875 9.5625 L 18.4375 9.0625 L 18.4375 8.53125 C 18.422988 7.580395 19.174019 6.9536024 19.96875 7 z M 8.96875 9.65625 C 9.196518 9.670312 9.2039147 9.6389 9.46875 9.6875 C 10.362226 9.8514609 11.182449 10.223028 11.5625 11 L 11.9375 11.78125 L 12.75 11.5 C 13.169849 11.368633 14.283472 11.43884 15.125 11.90625 C 15.966528 12.373657 16.596913 13.100834 16.65625 14.40625 L 16.71875 15.5 L 17.78125 15.34375 C 18.11216 15.30019 19.208161 15.775524 19.875 16.625 C 20.541839 17.474476 20.75375 18.375216 20.375 19.03125 L 19.875 19.9375 L 20.78125 20.4375 C 21.965221 21.06022 22.304866 21.896022 22.4375 22.6875 C 22.47582 22.916149 22.4358 22.904437 22.4375 23.09375 L 13.34375 20.875 L 11.125 18.625 L 8.96875 9.65625 z M 21 10 C 20.447715 10 20 10.447715 20 11 C 20 11.552285 20.447715 12 21 12 C 21.552285 12 22 11.552285 22 11 C 22 10.447715 21.552285 10 21 10 z M 24.40625 15.34375 L 24.5625 15.78125 L 25.15625 15.875 L 25.65625 15.9375 C 26.880649 16.102877 27.38692 17.559376 26.5 18.46875 L 26.125 18.84375 L 25.78125 19.21875 L 25.875 19.71875 L 25.96875 20.21875 C 26.086688 20.865177 25.8218 21.40076 25.40625 21.71875 C 25.102579 21.951127 24.734707 22.068413 24.34375 22 C 24.084624 21.086319 23.429551 20.092928 22.40625 19.28125 C 22.447048 19.13757 22.478429 18.988565 22.5 18.84375 C 22.649872 18.933369 22.81268 19 23 19 C 23.552285 19 24 18.552285 24 18 C 24 17.447715 23.552285 17 23 17 C 22.763432 17 22.546227 17.081426 22.375 17.21875 C 22.300066 16.951047 22.2122 16.688126 22.09375 16.4375 C 22.154356 16.412625 22.223277 16.400894 22.28125 16.375 C 22.536857 16.260831 22.76945 16.137923 22.96875 16 C 23.16805 15.862077 23.337262 15.749598 23.53125 15.46875 C 23.83557 15.464996 24.131718 15.41948 24.40625 15.34375 z M 10 20.40625 L 11.59375 22 L 7.4375 26.15625 L 5.84375 24.5625 L 10 20.40625 z" overflow="visible" font-family="Sans" fill="#000000"/></svg>
