<?xml version="1.0" encoding="utf-8"?>
<svg xmlns="http://www.w3.org/2000/svg" viewBox="0 0 32 32" fill="#000000"><path d="M 23.8125 7.96875 C 21.869211 8.0398154 20.230765 9.300188 19.46875 11 L 4 11 L 3 11 L 3 12 L 3 23 L 3 24 L 4 24 L 7.40625 24 C 7.8481602 25.109611 8.7409595 26 10 26 L 12 26 C 13.294335 26 14.208367 25.064828 14.625 23.90625 L 27.90625 23.90625 L 28.90625 23.90625 L 28.90625 22.90625 L 28.90625 13.09375 C 28.90625 10.627083 27.168853 8.3768904 24.65625 8 C 24.367557 7.9587581 24.090113 7.9585978 23.8125 7.96875 z M 23.75 9.96875 C 23.938728 9.9594573 24.145047 9.9716138 24.34375 10 C 25.831147 10.22311 26.90625 11.560417 26.90625 13.09375 L 26.90625 21.90625 L 14 21.90625 L 13 21.90625 L 13 22.90625 L 13 23 C 13 23.554545 12.554545 24 12 24 L 10 24 C 9.4454545 24 9 23.554545 9 23 L 9 22 L 8 22 L 5 22 L 5 13 L 20.09375 13 L 20.875 13 L 21.0625 12.25 C 21.395389 10.985019 22.428906 10.033799 23.75 9.96875 z M 24 11 C 23.447715 11 23 11.447715 23 12 C 23 12.552285 23.447715 13 24 13 C 24.552285 13 25 12.552285 25 12 C 25 11.447715 24.552285 11 24 11 z M 23 15 C 21.707982 15 20.605718 15.844255 20.1875 17 L 19 17 L 19 19 L 20.1875 19 C 20.605718 20.155745 21.707982 21 23 21 C 24.64501 21 26 19.64501 26 18 C 26 16.35499 24.64501 15 23 15 z M 23 17 C 23.564128 17 24 17.435872 24 18 C 24 18.564128 23.564128 19 23 19 C 22.435872 19 22 18.564128 22 18 C 22 17.435872 22.435872 17 23 17 z" fill="#000000"/></svg>
