<?xml version="1.0" encoding="utf-8"?>
<svg xmlns="http://www.w3.org/2000/svg" viewBox="0 0 32 32" fill="#000000"><path style="text-indent:0;text-align:start;line-height:normal;text-transform:none;block-progression:tb;-inkscape-font-specification:Bitstream Vera Sans" d="M 10.53125 4 C 8.4907611 4 7.0113997 5.2698368 6.21875 6.78125 C 5.4261003 8.2926632 5.128866 10.085477 5.03125 11.59375 C 4.859229 14.25572 5.4136744 18.374012 6.1875 22.65625 C 6.609153 24.99193 7.4261517 26.371256 8.3125 27.125 C 8.7556741 27.501872 9.1932499 27.697847 9.5625 27.8125 C 9.9317501 27.927153 10.288114 27.96652 10.3125 27.96875 C 10.816775 28.016351 11.717976 28 12.09375 28 A 1.0001 1.0001 0 0 0 12.5 27.90625 C 13.075529 28.033255 13.592355 27.950648 13.875 27.84375 C 16.357711 26.903919 17.97434 24.45419 18.65625 23.59375 C 19.352503 22.715213 22.572244 18.847957 23.875 17.21875 C 24.933151 15.896982 25.537327 14.788631 25.8125 13.71875 C 26.087673 12.648869 26.019958 11.672723 25.84375 10.71875 C 25.446353 8.5590851 23.863747 6.7765677 20.90625 5.53125 C 18.067467 4.3368521 15.685314 4 13.59375 4 C 13.30058 4 13.019471 4.0452284 12.75 4.09375 A 1.001098 1.001098 0 0 0 12.375 4 C 11.974217 3.982505 10.778971 4 10.53125 4 z M 13.59375 6 C 15.480186 6 17.525783 6.2813979 20.125 7.375 C 22.729503 8.4716823 23.600397 9.6014149 23.875 11.09375 C 24.029792 11.931777 24.055327 12.517631 23.875 13.21875 C 23.694673 13.919869 23.265349 14.778518 22.3125 15.96875 C 21.053256 17.543543 17.879497 21.352287 17.09375 22.34375 C 16.29366 23.35331 14.788789 25.362581 13.1875 25.96875 C 13.17173 25.97475 13.046958 26.127966 12.6875 25.84375 C 12.328042 25.559534 11.641561 24.627001 11.15625 22.28125 C 10.293058 18.111126 9.8839315 13.96996 10.03125 11.71875 C 10.11849 10.38533 10.414672 8.8195839 11 7.71875 C 11.585328 6.6179161 12.290006 6 13.59375 6 z M 9.65625 6.125 C 9.5084917 6.3341924 9.3686154 6.5581686 9.25 6.78125 C 8.4458281 8.2936661 8.1300125 10.08417 8.03125 11.59375 C 7.8585685 14.23254 8.329942 18.393624 9.21875 22.6875 C 9.5099401 24.094967 9.8690547 25.150907 10.28125 25.9375 C 10.242855 25.929439 10.209587 25.92281 10.15625 25.90625 C 10.011313 25.86125 9.8198259 25.786003 9.59375 25.59375 C 9.1415983 25.209244 8.522597 24.34182 8.15625 22.3125 C 7.3940756 18.094738 6.887271 13.94678 7.03125 11.71875 C 7.117634 10.384023 7.3908997 8.8205868 7.96875 7.71875 C 8.3967204 6.9027021 8.907496 6.3554411 9.65625 6.125 z M 20 9 C 18.35499 9 17 10.35499 17 12 C 17 13.64501 18.35499 15 20 15 C 21.64501 15 23 13.64501 23 12 C 23 10.35499 21.64501 9 20 9 z M 13.09375 9.03125 C 12.903555 9.0535322 12.701662 9.1117415 12.53125 9.21875 C 11.926707 9.5983661 11.809437 10.089336 11.65625 10.59375 C 11.503063 11.098164 11.380616 11.693938 11.3125 12.34375 C 11.176268 13.643373 11.198021 15.191943 11.34375 16.6875 C 11.486709 18.156947 11.803289 19.436849 12.15625 20.40625 C 12.33273 20.89095 12.512409 21.291186 12.71875 21.625 C 12.821921 21.791907 12.904083 21.971409 13.0625 22.125 C 13.220917 22.278591 13.455488 22.5 13.9375 22.5 C 14.530851 22.5 15.089928 22.234259 15.46875 21.875 C 15.847572 21.515741 16.091151 21.083733 16.28125 20.625 C 16.661448 19.707533 16.8125 18.630344 16.8125 17.65625 C 16.8125 14.664659 16.313156 12.544509 15.625 11.125 C 15.280922 10.415245 14.895589 9.8781322 14.4375 9.5 C 14.208455 9.3109339 13.950115 9.1422746 13.625 9.0625 C 13.462442 9.0226125 13.283945 9.0089678 13.09375 9.03125 z M 20 11 C 20.564128 11 21 11.435872 21 12 C 21 12.564128 20.564128 13 20 13 C 19.435872 13 19 12.564128 19 12 C 19 11.435872 19.435872 11 20 11 z M 13.5 11.53125 C 13.611883 11.687486 13.689586 11.746456 13.8125 12 C 14.323094 13.053241 14.8125 14.900841 14.8125 17.65625 C 14.8125 18.405156 14.670302 19.281967 14.4375 19.84375 C 14.36557 20.017335 14.291295 20.083717 14.21875 20.1875 C 14.15037 20.040304 14.105229 19.953183 14.03125 19.75 C 13.744211 18.961651 13.438541 17.795553 13.3125 16.5 C 13.180229 15.142557 13.193982 13.661877 13.3125 12.53125 C 13.35661 12.110442 13.432139 11.825216 13.5 11.53125 z" overflow="visible" font-family="Bitstream Vera Sans" fill="#000000"/></svg>
