<?xml version="1.0" encoding="utf-8"?>
<svg xmlns="http://www.w3.org/2000/svg" viewBox="0 0 32 32" fill="#000000"><path style="text-indent:0;text-align:start;line-height:normal;text-transform:none;block-progression:tb;-inkscape-font-specification:Bitstream Vera Sans" d="M 16 3.9375 L 15.625 4.0625 C 15.625 4.0625 10.733333 6 6 6 L 5 6 L 5 7 L 5 16 C 5 19.969281 7.7871937 22.939862 10.40625 24.90625 C 13.025306 26.872638 15.625 27.9375 15.625 27.9375 L 16 28.0625 L 16.375 27.9375 C 16.375 27.9375 18.974694 26.872638 21.59375 24.90625 C 24.212806 22.939862 27 19.969281 27 16 L 27 7 L 27 6 L 26 6 C 21.266667 6 16.375 4.0625 16.375 4.0625 L 16 3.9375 z M 16 6.0625 C 16.50838 6.2623993 20.421019 7.6852374 25 7.90625 L 25 11 L 7 11 L 7 7.90625 C 11.578981 7.6852374 15.49162 6.2623993 16 6.0625 z M 7 13 L 25 13 L 25 16 C 25 19.014719 22.787194 21.524888 20.40625 23.3125 C 18.327621 24.873134 16.496354 25.66304 16 25.875 C 15.503646 25.66304 13.672379 24.873134 11.59375 23.3125 C 9.2128063 21.524888 7 19.014719 7 16 L 7 13 z" overflow="visible" font-family="Bitstream Vera Sans" fill="#000000"/></svg>
