<?xml version="1.0" encoding="utf-8"?>
<svg xmlns="http://www.w3.org/2000/svg" viewBox="0 0 32 32" fill="#000000"><path style="text-indent:0;text-align:start;line-height:normal;text-transform:none;block-progression:tb;-inkscape-font-specification:Sans" d="M 5.375 6 L 5.09375 6.5625 L 3.09375 10.5625 L 3 10.75 L 3 11 L 3 25 L 3 26 L 4 26 L 6.5 26 L 7.125 26 L 7.40625 25.4375 L 7.625 25 L 24.375 25 L 24.59375 25.4375 L 24.875 26 L 25.5 26 L 28 26 L 29 26 L 29 25 L 29 11 L 29 10.75 L 28.90625 10.5625 L 26.90625 6.5625 L 26.625 6 L 26 6 L 24.5 6 L 23.875 6 L 23.59375 6.5625 L 23.375 7 L 8.625 7 L 8.40625 6.5625 L 8.125 6 L 7.5 6 L 6 6 L 5.375 6 z M 6.625 8 L 6.875 8 L 7.09375 8.4375 L 7.375 9 L 8 9 L 24 9 L 24.625 9 L 24.90625 8.4375 L 25.125 8 L 25.375 8 L 26.375 10 L 25.5 10 L 24.875 10 L 24.59375 10.5625 L 24.375 11 L 7.625 11 L 7.40625 10.5625 L 7.125 10 L 6.5 10 L 5.625 10 L 6.625 8 z M 5 12 L 5.875 12 L 6.09375 12.4375 L 6.375 13 L 7 13 L 25 13 L 25.625 13 L 25.90625 12.4375 L 26.125 12 L 27 12 L 27 24 L 26.125 24 L 25.90625 23.5625 L 25.625 23 L 25 23 L 7 23 L 6.375 23 L 6.09375 23.5625 L 5.875 24 L 5 24 L 5 12 z M 9 14 L 9 22 L 11 22 L 11 14 L 9 14 z M 13 14 L 13 22 L 15 22 L 15 14 L 13 14 z M 17 14 L 17 22 L 19 22 L 19 14 L 17 14 z M 21 14 L 21 22 L 23 22 L 23 14 L 21 14 z" fill="#000000"/></svg>
