<?xml version="1.0" encoding="utf-8"?>
<svg xmlns="http://www.w3.org/2000/svg" viewBox="0 0 32 32" fill="#000000"><path style="text-indent:0;text-align:start;line-height:normal;text-transform:none;block-progression:tb;-inkscape-font-specification:Bitstream Vera Sans" d="M 17 4 C 15.354545 4 14 5.3545455 14 7 L 14 8 L 16 8 L 16 7 C 16 6.4454545 16.445455 6 17 6 C 17.554545 6 18 6.4454545 18 7 L 18 7.5 C 18 8.0296296 17.766601 8.4560548 17.125 8.8125 L 17.09375 8.84375 L 17.0625 8.84375 C 15.730822 9.6632443 14.990689 10.176711 14.5 10.875 C 14.009311 11.573289 14 12.35 14 13 L 14 14 L 15 14 L 20 14 L 20 12 L 16.1875 12 C 16.356085 11.770904 16.875087 11.315169 18.09375 10.5625 C 18.10736 10.5549 18.1115 10.53895 18.125 10.53125 C 19.260393 9.8833131 20 8.7554434 20 7.5 L 20 7 C 20 5.3545455 18.645455 4 17 4 z M 6.5 11 C 5.1166667 11 4 12.116667 4 13.5 L 4 27 L 4 28 L 5 28 L 8 28 L 9 28 L 9 27 L 9 26 L 23 26 L 23 27 L 23 28 L 24 28 L 27 28 L 28 28 L 28 27 L 28 21 L 28 20 L 28 19 C 28 17.354545 26.645455 16 25 16 L 13 16 L 9 16 L 9 13.5 C 9 12.116667 7.8833333 11 6.5 11 z M 6.5 13 C 6.7166667 13 7 13.283333 7 13.5 L 7 21 L 7 22 L 8 22 L 26 22 L 26 26 L 25 26 L 25 25 L 25 24 L 24 24 L 8 24 L 7 24 L 7 25 L 7 26 L 6 26 L 6 13.5 C 6 13.283333 6.2833333 13 6.5 13 z M 9 18 L 12 18 L 12 20 L 9 20 L 9 18 z M 14 18 L 25 18 C 25.554545 18 26 18.445455 26 19 L 26 20 L 14 20 L 14 18 z" overflow="visible" font-family="Bitstream Vera Sans" fill="#000000"/></svg>
