<?xml version="1.0" encoding="utf-8"?>
<svg xmlns="http://www.w3.org/2000/svg" viewBox="0 0 32 32" fill="#000000"><path d="M 5.90625 8.28125 C 5.66025 8.28125 5.40625 8.53525 5.40625 8.78125 L 5.40625 12.34375 L 0.75 12.34375 C 0.381 12.34375 0 12.84975 0 13.21875 L 0 22.6875 C 0 23.0565 0.381 23.40625 0.75 23.40625 L 7.875 23.40625 C 8.121 23.40625 8.375 23.1835 8.375 22.9375 L 8.375 8.90625 C 8.499 8.53725 8.246 8.28125 8 8.28125 L 5.90625 8.28125 z M 11.1875 8.28125 C 10.4495 8.28125 10.09375 8.513 10.09375 9.375 L 10.09375 9.875 C 10.09375 10.613 10.3255 11 11.1875 11 L 11.4375 11 C 12.1765 11 12.5625 10.736 12.5625 9.875 L 11.6875 9.875 L 11.6875 10 C 11.6875 10.246 11.5585 10.375 11.3125 10.375 C 10.9435 10.375 10.96875 10.244 10.96875 9.875 L 10.96875 9.375 C 10.96875 9.006 10.9435 8.90625 11.3125 8.90625 C 11.5585 8.90625 11.6875 9.004 11.6875 9.25 L 12.4375 9.25 C 12.4375 8.512 12.1745 8.28125 11.3125 8.28125 L 11.1875 8.28125 z M 14.28125 8.28125 C 13.54325 8.28125 13.15625 8.513 13.15625 9.375 L 13.15625 9.875 C 13.15625 10.613 13.41925 11 14.28125 11 L 14.53125 11 L 14.65625 11 C 15.39425 11 15.75 10.614 15.75 9.875 L 15.75 9.375 C 15.75 8.514 15.51825 8.28125 14.65625 8.28125 L 14.53125 8.28125 L 14.28125 8.28125 z M 16.625 8.28125 L 16.625 11 L 17.34375 11 L 17.34375 9.03125 L 17.84375 11 L 18.59375 11 L 19.1875 9.03125 L 19.1875 11 L 19.9375 11 L 19.9375 8.28125 L 18.84375 8.28125 L 18.21875 10.25 L 17.71875 8.28125 L 16.625 8.28125 z M 20.9375 8.28125 L 20.9375 11 L 21.65625 11 L 21.65625 10.25 L 22.03125 10.25 L 22.15625 10.25 C 22.89425 10.25 23.125 9.991 23.125 9.375 L 23.125 9.15625 C 23.125 8.54125 22.89425 8.28125 22.15625 8.28125 L 22.03125 8.28125 L 20.9375 8.28125 z M 24.25 8.28125 L 23.5 11 L 24.25 11 L 24.375 10.5 L 24.875 10.5 L 25.34375 10.5 L 25.46875 11 L 26.21875 11 L 25.46875 8.28125 L 24.875 8.28125 L 24.25 8.28125 z M 27.8125 8.28125 C 27.0745 8.28125 26.71875 8.513 26.71875 9.375 L 26.71875 9.875 C 26.71875 10.613 26.9505 11 27.8125 11 L 28.0625 11 C 28.8015 11 29.15625 10.736 29.15625 9.875 L 28.4375 9.875 L 28.4375 10 C 28.4375 10.246 28.3085 10.375 28.0625 10.375 C 27.6935 10.375 27.6875 10.244 27.6875 9.875 L 27.6875 9.375 C 27.6875 9.006 27.6935 8.90625 28.0625 8.90625 C 28.3085 8.90625 28.4375 9.004 28.4375 9.25 L 29.15625 9.25 C 29.15625 8.512 28.9245 8.28125 28.0625 8.28125 L 27.8125 8.28125 z M 29.78125 8.28125 L 29.78125 8.90625 L 30.53125 8.90625 L 30.53125 11 L 31.25 11 L 31.25 8.90625 L 32 8.90625 L 32 8.28125 L 29.78125 8.28125 z M 14.1875 8.90625 C 14.239391 8.8889531 14.314 8.90625 14.40625 8.90625 L 14.53125 8.90625 L 14.65625 8.90625 C 15.02525 8.90625 15 9.006 15 9.375 L 15 9.875 C 15 10.244 15.02525 10.375 14.65625 10.375 L 14.53125 10.375 L 14.40625 10.375 C 14.03725 10.375 14.03125 10.244 14.03125 9.875 L 14.03125 9.375 C 14.03125 9.09825 14.031828 8.9581406 14.1875 8.90625 z M 21.65625 8.90625 L 22.03125 8.90625 L 22.15625 8.90625 C 22.40225 8.90625 22.53125 9.03325 22.53125 9.15625 L 22.53125 9.375 L 22.40625 9.375 C 22.40625 9.621 22.27925 9.75 22.15625 9.75 L 22.03125 9.75 L 21.65625 9.75 L 21.65625 8.90625 z M 24.875 8.90625 L 25.09375 10 L 24.875 10 L 24.625 10 L 24.875 8.90625 z M 10.96875 12.34375 C 10.59975 12.34375 10.34475 12.59775 10.46875 12.84375 L 10.46875 22.8125 C 10.46875 23.0585 10.72275 23.28125 10.96875 23.28125 L 12.9375 23.28125 C 13.1835 23.28125 13.40625 23.0585 13.40625 22.8125 L 13.40625 12.84375 C 13.40625 12.59775 13.1835 12.34375 12.9375 12.34375 L 10.96875 12.34375 z M 15.625 12.34375 C 15.379 12.34375 15.125 12.59775 15.125 12.84375 L 15.125 18.75 C 15.125 18.996 15.502 19.25 15.625 19.25 L 20.1875 19.25 L 20.1875 20.96875 L 15.625 20.96875 C 15.379 20.96875 15.125 21.1915 15.125 21.4375 L 15.125 22.8125 C 15.125 23.0585 15.502 23.28125 15.625 23.28125 L 22.28125 23.28125 C 22.40425 23.28125 22.78125 23.0585 22.78125 22.8125 L 22.78125 16.90625 C 22.78125 16.78325 22.52725 16.40625 22.28125 16.40625 L 17.71875 16.40625 L 17.71875 14.6875 L 21.90625 14.6875 C 22.02925 14.6875 22.40625 14.4335 22.40625 14.1875 L 22.40625 12.84375 C 22.40625 12.59775 22.15225 12.34375 21.90625 12.34375 L 15.625 12.34375 z M 24.75 12.46875 C 24.504 12.46875 24.25 12.72275 24.25 12.96875 L 24.25 22.9375 C 24.25 23.1835 24.627 23.40625 24.75 23.40625 L 31.375 23.40625 C 31.621 23.40625 31.875 23.1835 31.875 22.9375 L 31.875 18.875 L 29.40625 18.875 L 29.40625 20.96875 C 29.40625 21.21475 29.1835 21.4375 28.9375 21.4375 L 27.1875 21.4375 C 27.0645 21.4375 26.71875 21.21475 26.71875 20.96875 L 26.71875 14.8125 C 26.71875 14.5665 26.9415 14.3125 27.1875 14.3125 L 28.9375 14.3125 C 29.5525 14.3125 29.40625 14.8125 29.40625 14.8125 L 29.40625 17.15625 L 31.875 17.15625 L 31.875 12.96875 C 31.875 12.96875 31.621 12.46875 31.375 12.46875 L 24.75 12.46875 z M 3.5625 14.5625 L 5.28125 14.5625 C 5.52725 14.5625 5.78125 14.8165 5.78125 15.0625 C 5.78225 15.0625 5.78125 20.96875 5.78125 20.96875 C 5.78125 21.21475 5.52725 21.4375 5.28125 21.4375 L 3.5625 21.4375 C 3.3165 21.4375 3.0625 21.21475 3.0625 20.96875 L 3.0625 15.0625 C 3.0625 14.8165 3.3165 14.5625 3.5625 14.5625 z" fill="#000000"/></svg>
