<?xml version="1.0" encoding="utf-8"?>
<svg xmlns="http://www.w3.org/2000/svg" viewBox="0 0 32 32" fill="#000000"><path style="text-indent:0;text-align:start;line-height:normal;text-transform:none;block-progression:tb;-inkscape-font-specification:Bitstream Vera Sans" d="M 16.5 3 C 14.810696 3 13.395158 4.0341015 12.625 5.5 C 11.136397 5.9344768 9.7790893 6.660886 8.59375 7.59375 C 8.5816609 7.5814794 8.5057526 7.506838 8.5 7.5 L 7.96875 6.875 L 7.28125 7.28125 C 6.117272 7.9157888 5.1678558 9.0369775 4.75 10.34375 L 4.53125 10.9375 L 5 11.375 C 5 11.375 5.3078242 11.654453 5.34375 11.6875 C 4.5392636 13.299926 4 15.078838 4 17 C 4 23.615466 9.3845336 29 16 29 C 18.585177 29 20.976689 28.176065 22.9375 26.78125 L 23.75 26.21875 L 23.1875 25.40625 C 23.1875 25.40625 22 23.677923 22 21 C 22 18.707008 23.352771 16.286045 24.78125 14.46875 C 25.003348 14.186199 25.22131 13.93731 25.4375 13.6875 C 25.801299 14.725482 26 15.834253 26 17 C 26 19.134435 25.323117 21.0967 24.1875 22.71875 L 25.84375 23.875 C 27.206133 21.92905 28 19.551565 28 17 C 28 15.248888 27.613341 13.596116 26.9375 12.09375 C 27.283354 11.768013 27.625 11.46875 27.625 11.46875 L 28 11.1875 L 28 10.71875 C 28 9.9786402 27.682371 9.4979388 27.28125 8.9375 C 26.880129 8.3770612 26.333983 7.8082237 25.625 7.40625 L 25 7.0625 L 24.4375 7.5625 C 24.324822 7.6680412 24.118776 7.8776636 23.96875 8.03125 C 22.970002 7.1406048 21.819345 6.4243959 20.5625 5.90625 C 19.855214 4.2249195 18.341618 3 16.5 3 z M 16.5 5 C 17.815351 5 19 6.263746 19 8 C 19 9.736254 17.815351 11 16.5 11 C 15.184649 11 14 9.736254 14 8 C 14 6.263746 15.184649 5 16.5 5 z M 12.03125 7.8125 C 12.029097 7.8753548 12 7.9367141 12 8 C 12 8.995679 12.281651 9.9233895 12.75 10.71875 C 12.383437 10.507942 12.005907 10.300359 11.65625 10.0625 C 11.092865 9.67925 10.586393 9.2825339 10.125 8.90625 C 10.719783 8.4710956 11.347593 8.1099645 12.03125 7.8125 z M 20.96875 8.34375 C 21.511476 8.6538908 22.027394 9.0037953 22.5 9.40625 C 22.225705 9.6327883 21.926978 9.8623462 21.59375 10.09375 C 21.141232 10.407993 20.628165 10.701395 20.09375 10.96875 C 20.601029 10.212594 20.907934 9.319495 20.96875 8.34375 z M 7.78125 9.5625 C 7.9640137 9.7259933 8.0751942 9.8331281 8.3125 10.03125 C 8.927427 10.54464 9.6824977 11.141375 10.53125 11.71875 C 12.228755 12.8735 14.134619 14 16 14 C 18.74996 14 21.040988 12.88384 22.71875 11.71875 C 24.034267 10.805214 24.667416 10.12414 25.15625 9.625 C 25.331147 9.790078 25.52856 9.9153444 25.65625 10.09375 C 25.806242 10.303317 25.795986 10.347626 25.84375 10.46875 C 25.453528 10.80619 24.535994 11.574217 23.21875 13.25 C 21.650229 15.245455 20 17.957992 20 21 C 20 23.220204 20.604341 24.631018 21.0625 25.53125 C 19.567458 26.422218 17.871094 27 16 27 C 14.682355 27 13.431872 26.710379 12.28125 26.25 C 12.194592 25.854448 12 25.136297 12 24.0625 C 12 22.447962 12.321396 21.083289 12.625 19.90625 C 12.928604 18.729211 13.326062 17.731496 12.9375 16.59375 L 12.90625 16.5 L 12.875 16.40625 C 12.562576 15.859508 12.133038 15.462661 11.5 14.8125 C 10.866962 14.162339 10.069673 13.412406 9.3125 12.6875 C 8.1208693 11.546651 7.4336834 10.899953 7 10.5 C 7.2115466 10.12859 7.467466 9.8513937 7.78125 9.5625 z M 6.875 13.125 C 7.3343203 13.555167 7.3953486 13.605952 7.9375 14.125 C 8.6850774 14.840719 9.4582252 15.56688 10.0625 16.1875 C 10.625015 16.765231 11.018394 17.266534 11.0625 17.3125 C 11.10855 17.508439 10.98649 18.247095 10.6875 19.40625 C 10.379854 20.598961 10 22.173038 10 24.0625 C 10 24.466503 10.05781 24.472986 10.09375 24.84375 C 7.6735955 23.020899 6 20.272373 6 17 C 6 15.607116 6.363068 14.326497 6.875 13.125 z" overflow="visible" font-family="Bitstream Vera Sans" fill="#000000"/></svg>
