<?xml version="1.0" encoding="utf-8"?>
<svg xmlns="http://www.w3.org/2000/svg" viewBox="0 0 32 32" fill="#000000"><path style="text-indent:0;text-align:start;line-height:normal;text-transform:none;block-progression:tb;-inkscape-font-specification:Bitstream Vera Sans" d="M 18.5 3 C 16.578848 3 15 4.5788481 15 6.5 C 15 8.4211519 16.578848 10 18.5 10 C 20.421152 10 22 8.4211519 22 6.5 C 22 4.5788481 20.421152 3 18.5 3 z M 18.5 5 C 19.340272 5 20 5.6597281 20 6.5 C 20 7.3402719 19.340272 8 18.5 8 C 17.659728 8 17 7.3402719 17 6.5 C 17 5.6597281 17.659728 5 18.5 5 z M 11.375 8.1875 C 11.178352 8.202894 10.973672 8.234752 10.78125 8.28125 C 10.011564 8.467242 9.2959137 8.9079746 8.78125 9.5625 L 6.6875 12.21875 C 5.9471238 13.161942 6.2106727 14.587964 7.25 15.1875 L 8.3125 15.78125 C 7.943542 16.859803 8.5387388 18.172901 9.71875 18.4375 L 15.25 19.65625 L 15.96875 25.21875 L 17.9375 24.96875 L 17.21875 19.40625 C 17.111219 18.57587 16.504829 17.902151 15.6875 17.71875 L 13.625 17.25 L 17.28125 12.59375 L 18.84375 13.3125 L 18.96875 13.375 L 19.125 13.40625 L 24.25 13.96875 L 24.46875 12 L 19.46875 11.40625 L 15.46875 9.5625 L 14.40625 9.09375 L 13.875 8.84375 L 13.125 8.5 C 12.557088 8.2390394 11.964944 8.1413181 11.375 8.1875 z M 11.78125 10.15625 C 11.96156 10.173196 12.141608 10.233974 12.3125 10.3125 L 12.4375 10.375 L 9.4375 14.15625 L 8.25 13.46875 L 10.34375 10.78125 C 10.692255 10.338038 11.24032 10.105411 11.78125 10.15625 z M 14.3125 11.21875 L 15.40625 11.71875 L 11.46875 16.75 L 10.15625 16.46875 L 14.3125 11.21875 z M 23.5 16 C 21.029545 16 19 18.029545 19 20.5 C 19 22.970455 21.029545 25 23.5 25 C 25.970455 25 28 22.970455 28 20.5 C 28 18.029545 25.970455 16 23.5 16 z M 23.5 18 C 24.879545 18 26 19.120455 26 20.5 C 26 21.879545 24.879545 23 23.5 23 C 22.120455 23 21 21.879545 21 20.5 C 21 19.120455 22.120455 18 23.5 18 z M 8.5 20 C 6.0295455 20 4 22.029545 4 24.5 C 4 26.970455 6.0295455 29 8.5 29 C 10.970455 29 13 26.970455 13 24.5 C 13 22.029545 10.970455 20 8.5 20 z M 8.5 22 C 9.8795455 22 11 23.120455 11 24.5 C 11 25.879545 9.8795455 27 8.5 27 C 7.1204545 27 6 25.879545 6 24.5 C 6 23.120455 7.1204545 22 8.5 22 z" overflow="visible" font-family="Bitstream Vera Sans" fill="#000000"/></svg>
