<?xml version="1.0" encoding="utf-8"?>
<svg xmlns="http://www.w3.org/2000/svg" viewBox="0 0 32 32" fill="#000000"><path d="M 12 4 C 10.895431 4 10 4.8954305 10 6 C 10 6.5199094 10.206054 6.9880765 10.53125 7.34375 L 4.25 28 L 6.34375 28 L 12 9.4375 L 14.28125 16.90625 L 8.96875 20.03125 L 12.59375 23.21875 C 13.53075 24.03975 14.72025 24.46875 15.90625 24.46875 C 16.130812 24.46875 16.339313 24.468818 16.5625 24.4375 L 17.65625 28 L 19.75 28 L 13.46875 7.375 L 21.8125 10.625 L 23.5 9.65625 L 14 5.96875 C 13.983107 4.878761 13.094011 4 12 4 z M 26.90625 9.5625 L 20.84375 13.09375 L 21 15.3125 L 18.09375 17.03125 L 18.71875 18.96875 L 23.0625 16.4375 L 22.9375 14.1875 L 25.5 12.6875 L 25.9375 14.6875 C 26.2035 15.9525 25.617 17.25325 24.5 17.90625 L 19.34375 20.9375 L 19.96875 22.875 L 25.53125 19.625 C 27.39425 18.536 28.34925 16.39025 27.90625 14.28125 L 26.90625 9.5625 z M 14.875 18.875 L 15.96875 22.46875 C 15.229822 22.488919 14.489558 22.230644 13.90625 21.71875 L 12.375 20.375 L 14.875 18.875 z" fill="#000000"/></svg>
