<?xml version="1.0" encoding="utf-8"?>
<svg xmlns="http://www.w3.org/2000/svg" viewBox="0 0 32 32" fill="#000000"><path style="text-indent:0;text-align:start;line-height:normal;text-transform:none;block-progression:tb;-inkscape-font-specification:Sans" d="M 14 5 C 12.353197 5 11.084011 5.7945683 10.28125 6.625 C 9.8798697 7.0402158 9.5845809 7.4627401 9.375 7.84375 C 9.1654191 8.2247599 9 8.4139728 9 9 C 9 9.634493 9.2453155 9.855729 9.5 10.15625 C 9.7546845 10.456771 10.081621 10.76221 10.5 11.03125 C 10.518654 11.043245 10.543486 11.050615 10.5625 11.0625 C 10.043391 11.300835 9.5846369 11.562499 9.1875 11.84375 C 8.4677561 12.35347 7.9514088 12.913595 7.59375 13.4375 C 7.2360912 13.961405 7 14.39511 7 15 C 7 16.006555 7.696116 16.966744 9.09375 17.71875 C 9.2940575 17.826527 9.5174457 17.933527 9.75 18.03125 C 9.4563946 18.115141 9.1604702 18.189443 8.875 18.28125 C 7.6711717 18.6684 6.5590248 19.1118 5.6875 19.65625 C 4.8159752 20.2007 4 20.881202 4 22 C 4 23.453496 5.0558677 24.538109 6.25 25.1875 C 7.4441323 25.836891 8.8803487 26.206015 10.3125 26.46875 C 13.176803 26.994219 16 27 16 27 C 16 27 18.824808 26.96931 21.6875 26.4375 C 23.118846 26.171595 24.557494 25.801992 25.75 25.15625 C 26.942506 24.510508 28 23.446774 28 22 C 28 21.428345 27.715773 20.995593 27.40625 20.65625 C 27.096727 20.316907 26.742266 20.042312 26.3125 19.78125 C 25.452967 19.259126 24.35596 18.778889 23.15625 18.375 C 22.830231 18.265244 22.493349 18.162554 22.15625 18.0625 C 22.423537 17.954124 22.680145 17.839741 22.90625 17.71875 C 24.305085 16.970221 25 16.003393 25 15 C 25 14.399794 24.764654 13.96415 24.40625 13.4375 C 24.047846 12.91085 23.532814 12.351865 22.8125 11.84375 C 21.689621 11.051662 20.079579 10.385304 17.9375 10.125 C 18.224068 9.7940996 18.457391 9.462705 18.625 9.15625 C 18.83516 8.7719962 19 8.5662233 19 8 C 19 7.4795606 18.79637 7.1917794 18.5625 6.875 C 18.32863 6.5582206 18.037421 6.2460784 17.625 5.96875 C 16.800158 5.4140932 15.579603 5 14 5 z M 14 7 C 15.224397 7 16.025842 7.3061568 16.5 7.625 C 16.737079 7.7844216 16.890745 7.9568419 16.96875 8.0625 C 16.95945 8.05887 16.96045 8.031257 16.875 8.1875 C 16.751567 8.4131837 16.546024 8.7273351 16.28125 9 C 15.751702 9.5453298 15.020555 10 14 10 C 12.939583 10 12.126243 9.686171 11.59375 9.34375 C 11.343507 9.1828309 11.16798 9.0249965 11.0625 8.90625 C 11.078652 8.8440488 11.062759 8.9256513 11.125 8.8125 C 11.249482 8.5861974 11.45288 8.3062842 11.71875 8.03125 C 12.250489 7.4811817 12.984803 7 14 7 z M 16 12 C 18.807044 12 20.586629 12.714231 21.65625 13.46875 C 22.191061 13.84601 22.539498 14.253181 22.75 14.5625 C 22.892089 14.77129 22.973294 14.941599 23 15 C 23 14.91361 22.94467 15.446529 21.96875 15.96875 C 20.992835 16.490971 19.143696 17 16 17 C 12.85774 17 11.008366 16.463244 10.03125 15.9375 C 9.1003489 15.436622 9.0067303 14.976165 9 15.03125 C 8.9930662 15.040572 9 15.040097 9 15 C 9.0282817 14.934099 9.1126892 14.763635 9.25 14.5625 C 9.4612474 14.253061 9.8083689 13.847905 10.34375 13.46875 C 11.414512 12.71044 13.194522 12 16 12 z M 16 19 C 17.559101 19 20.283421 19.535027 22.5 20.28125 C 23.60829 20.654361 24.599533 21.073624 25.25 21.46875 C 25.575234 21.666313 25.825023 21.876687 25.9375 22 C 25.993738 22.061656 25.998435 22.093457 26 22.09375 C 25.962917 22.563301 25.629589 22.963796 24.8125 23.40625 C 23.942506 23.877352 22.631154 24.22378 21.3125 24.46875 C 18.675192 24.95869 16 25 16 25 C 16 25 13.323197 24.983531 10.6875 24.5 C 9.3696513 24.258235 8.0558677 23.878484 7.1875 23.40625 C 6.3191323 22.934016 6 22.528504 6 22 C 6 22.087798 6.1115248 21.742612 6.75 21.34375 C 7.3884752 20.944888 8.3645783 20.5426 9.46875 20.1875 C 11.677093 19.477299 14.414692 19 16 19 z" overflow="visible" font-family="Sans" fill="#000000"/></svg>
