<?xml version="1.0" encoding="utf-8"?>
<svg xmlns="http://www.w3.org/2000/svg" viewBox="0 0 32 32" fill="#000000"><path d="M 14.056641 2 C 12.900641 2 11.840141 2.3946875 10.994141 3.0546875 C 10.994141 3.0546875 9.8290469 2.8125 8.4980469 2.8125 C 7.1710469 2.8125 5.679625 3.0535781 5.015625 4.0175781 C 5.015625 4.0175781 5.2678594 3.9785156 5.6308594 3.9785156 C 6.3418594 3.9785156 7.48425 4.1285781 8.03125 5.0175781 C 6.49525 5.1435781 4.3278437 5.3279688 2.9648438 7.6679688 C 3.2508438 7.6199687 3.530875 7.6015625 3.796875 7.6015625 C 5.038875 7.6015625 6 8.0234375 6 8.0234375 C 4.529 8.6824375 1.9667188 10.435562 2.0117188 14.976562 C 3.8377187 13.070562 5 12 5 12 C 5 12 4.5130781 13.836563 4.4550781 14.726562 C 4.3833407 15.821339 4.4442573 16.530657 4.5585938 17.185547 L 2.5644531 17.386719 L 3.2890625 24.544922 C 2.5120846 25.086905 2 25.980927 2 27 C 2 28.657 3.343 30 5 30 C 6.657 30 8 28.657 8 27 L 8 26.886719 L 19.6875 25.703125 C 20.169086 26.395248 20.953718 27.039163 21.945312 27.478516 C 23.965313 28.372516 26.056234 28.0755 26.615234 26.8125 C 27.033807 25.86753 26.475776 24.648363 25.320312 23.720703 L 25.035156 20.919922 A 1.5 2.5 68.075 0 0 27.060547 20.714844 A 1.5 2.5 68.075 0 0 28.882812 18.740234 L 29.830078 18.644531 L 29.427734 14.664062 L 25.447266 15.068359 L 23.925781 15.222656 C 23.938869 14.884995 23.945769 14.486365 23.939453 13.984375 C 23.896453 10.490375 21.499 7.0730781 18.75 5.3300781 C 18.06 3.3940781 16.229641 2 14.056641 2 z M 14.056641 4 C 15.713641 4 17.056641 5.343 17.056641 7 C 17.056641 8.657 15.712641 10 14.056641 10 C 12.399641 10 11.056641 8.657 11.056641 7 C 11.056641 5.343 12.399641 4 14.056641 4 z M 14 6 A 1 1 0 0 0 13 7 A 1 1 0 0 0 14 8 A 1 1 0 0 0 15 7 A 1 1 0 0 0 14 6 z M 9 11.40625 C 10.863 12.28325 12.836594 12.659156 14.808594 12.785156 C 15.575594 12.785156 16.233 12.785156 17 12.660156 L 17 15.164062 C 16.376 15.323063 15.774594 15.40625 15.183594 15.40625 C 13.907594 15.40625 12.685109 15.019109 11.412109 14.162109 C 10.316109 13.411109 9.548 12.40825 9 11.40625 z M 22.662109 17.359375 L 22.863281 19.349609 L 23.265625 23.330078 L 21.220703 23.537109 L 20.818359 19.568359 L 18.828125 19.769531 L 19.230469 23.738281 L 17.240234 23.939453 L 16.839844 19.970703 L 14.849609 20.173828 L 15.251953 24.140625 L 13.261719 24.34375 L 12.859375 20.375 L 11.113281 20.550781 C 11.167011 19.922387 10.7936 19.216588 10.132812 18.628906 L 22.662109 17.359375 z M 5.0175781 19.146484 C 5.0227167 19.161477 5.0303205 19.199651 5.0351562 19.212891 C 5.2749451 19.870997 6.0331845 20.750052 6.9179688 21.279297 L 7.2910156 24.947266 L 5.359375 25.144531 L 5.15625 23.154297 L 4.7539062 19.173828 L 5.0175781 19.146484 z M 10.923828 21.109375 L 11.271484 24.544922 L 9.28125 24.746094 L 8.9941406 21.912109 C 9.8663236 21.942428 10.589708 21.659585 10.923828 21.109375 z" fill="#000000"/></svg>
