<?xml version="1.0" encoding="utf-8"?>
<svg xmlns="http://www.w3.org/2000/svg" viewBox="0 0 32 32" fill="#000000"><path d="M 16 4 C 13.085528 4 10.73506 6.3145192 10.5625 9.1875 C 7.9820994 8.6793762 5.3056272 10.025153 4.34375 12.5625 C 3.3433346 15.201507 4.6027162 18.088114 7.0625 19.34375 C 5.4253461 21.64836 5.7687677 24.869238 7.96875 26.71875 C 10.284356 28.666684 13.771789 28.347148 15.71875 26.03125 C 15.839702 25.887433 15.870635 25.689455 15.96875 25.53125 C 16.073186 25.703903 16.118989 25.906663 16.25 26.0625 C 18.197891 28.378056 21.685249 28.698238 24 26.75 C 26.203629 24.896263 26.522655 21.679642 24.875 19.375 C 27.377666 18.137779 28.665351 15.223275 27.65625 12.5625 C 26.694293 10.024943 24.017533 8.6792172 21.4375 9.1875 C 21.26494 6.3145192 18.914472 4 16 4 z M 16 6 C 17.944423 6 19.5 7.5555768 19.5 9.5 C 19.5 9.6565823 19.433049 9.9357196 19.3125 10.28125 C 19.308772 10.291937 19.316353 10.301686 19.3125 10.3125 L 16.34375 14.53125 C 16.655087 13.498735 17 12.330012 17 12 C 17 11.448 16.552 11 16 11 C 15.448 11 15 11.448 15 12 C 15 12.314776 15.274953 13.427403 15.53125 14.4375 L 12.625 10.0625 C 12.55776 9.8302834 12.5 9.6234394 12.5 9.5 C 12.5 7.5555768 14.055577 6 16 6 z M 9.375 11 C 9.8312026 10.983971 10.295287 11.046374 10.75 11.21875 C 10.826547 11.247964 10.956584 11.352541 11.125 11.46875 C 11.134952 11.475617 11.146041 11.46166 11.15625 11.46875 L 13.9375 15.6875 C 13.062855 15.095057 12.085848 14.453288 11.78125 14.34375 C 11.26125 14.15675 10.687 14.4185 10.5 14.9375 C 10.313 15.4565 10.57475 16.03075 11.09375 16.21875 C 11.393365 16.326496 12.566291 16.410844 13.625 16.46875 L 8.5625 17.875 C 8.4337083 17.852363 8.3238395 17.809162 8.25 17.78125 C 6.4313781 17.091833 5.5292459 15.068851 6.21875 13.25 C 6.735813 11.886033 8.0063922 11.048088 9.375 11 z M 22.625 11 C 23.993443 11.048172 25.264254 11.88621 25.78125 13.25 C 26.470549 15.067527 25.568387 17.091922 23.75 17.78125 C 23.625005 17.828425 23.374927 17.885929 23.09375 17.90625 L 18.21875 16.46875 C 19.307866 16.411929 20.584626 16.334411 20.90625 16.21875 C 21.42525 16.03075 21.687 15.4565 21.5 14.9375 C 21.313 14.4185 20.73875 14.15675 20.21875 14.34375 C 19.888177 14.462629 18.801932 15.171295 17.90625 15.78125 L 20.9375 11.40625 C 21.062483 11.322182 21.188155 11.242199 21.25 11.21875 C 21.704382 11.046425 22.168852 10.983943 22.625 11 z M 14.3125 18.375 C 13.422656 18.996594 12.326395 19.760477 12.09375 20.03125 C 11.73375 20.45025 11.79975 21.10975 12.21875 21.46875 C 12.63875 21.82775 13.266 21.76275 13.625 21.34375 C 13.893625 21.0311 14.588404 19.450329 15 18.5 L 15 22.1875 C 14.817895 23.386749 14.453078 24.434219 14.1875 24.75 C 12.936461 26.238102 10.738394 26.439566 9.25 25.1875 C 7.7618976 23.936461 7.5604339 21.738394 8.8125 20.25 C 8.918081 20.124191 9.1603563 19.936726 9.46875 19.75 L 9.59375 19.6875 L 14.3125 18.375 z M 17.78125 18.4375 L 22.5625 19.8125 C 22.840531 19.987593 23.05829 20.164922 23.15625 20.28125 C 24.408012 21.768499 24.207194 23.966641 22.71875 25.21875 C 21.231501 26.470512 19.033359 26.269694 17.78125 24.78125 C 17.527726 24.479685 17.189226 23.504068 17 22.375 L 17 18.5 C 17.411596 19.450329 18.106375 21.0311 18.375 21.34375 C 18.734 21.76275 19.36225 21.82775 19.78125 21.46875 C 20.20025 21.10975 20.26625 20.45025 19.90625 20.03125 C 19.684632 19.773311 18.662694 19.055104 17.78125 18.4375 z" fill="#000000"/></svg>
