<?xml version="1.0" encoding="utf-8"?>
<svg xmlns="http://www.w3.org/2000/svg" viewBox="0 0 32 32" fill="#000000"><path style="text-indent:0;text-align:start;line-height:normal;text-transform:none;block-progression:tb;-inkscape-font-specification:Bitstream Vera Sans" d="M 12.5 4 C 10.578848 4 9 5.5788481 9 7.5 C 9 9.4211519 10.578848 11 12.5 11 C 14.421152 11 16 9.4211519 16 7.5 C 16 5.5788481 14.421152 4 12.5 4 z M 12.5 6 C 13.340272 6 14 6.6597281 14 7.5 C 14 8.3402719 13.340272 9 12.5 9 C 11.659728 9 11 8.3402719 11 7.5 C 11 6.6597281 11.659728 6 12.5 6 z M 10.21875 11.71875 C 9.902875 11.693875 9.58125 11.748 9.28125 11.875 C 8.68025 12.129 8.23175 12.64125 8.09375 13.28125 L 6.96875 18.53125 C 6.90175 18.83825 6.918 19.16675 7 19.46875 L 7.84375 22.625 L 5.5 27 L 7.78125 27 L 9.59375 23.5625 C 9.83275 23.1135 9.91325 22.614 9.78125 22.125 L 8.9375 18.96875 L 10.0625 13.71875 L 10.90625 14.25 L 10.96875 17.28125 L 13.34375 20.53125 L 14.96875 19.34375 L 12.96875 16.59375 L 12.9375 14.21875 C 12.9295 13.53675 12.54975 12.9265 11.96875 12.5625 L 11.125 12 C 10.8485 11.8265 10.534625 11.743625 10.21875 11.71875 z M 23.5625 12.34375 C 22.558589 12.654197 21.856899 13.416462 21.6875 14.25 C 21.518101 15.083538 21.799859 15.865646 22.3125 16.4375 C 22.77611 16.954957 23.286969 17.341952 23.5625 17.71875 C 23.838031 18.095548 23.919715 18.271083 23.71875 18.78125 C 23.69907 18.8312 23.64752 18.88085 23.4375 18.9375 L 18.75 16.5 C 18.705493 16.28769 18.70009 16.019617 18.90625 15.6875 C 19.00212 15.532921 19.360285 15.353427 19.8125 15.28125 C 20.264715 15.20907 20.65625 15.25 20.65625 15.25 L 20.8125 13.25 C 20.8125 13.25 20.222535 13.19718 19.5 13.3125 C 18.788228 13.426105 17.80675 13.715124 17.21875 14.625 L 17.1875 14.625 C 17.1816 14.6345 17.1933 14.64674 17.1875 14.65625 C 17.013704 14.942787 16.910202 15.222411 16.84375 15.5 L 15.59375 14.84375 L 15.59375 16.5 L 15.59375 20.8125 L 15.59375 21.4375 L 16.15625 21.6875 L 21.21875 24.15625 L 21.8125 24.46875 L 22.3125 24.03125 L 25.3125 21.46875 L 26.4375 20.5 L 25.34375 19.9375 C 25.438629 19.80556 25.5285 19.665619 25.59375 19.5 C 26.040785 18.365167 25.66772 17.230702 25.15625 16.53125 C 24.644781 15.831798 24.02364 15.364293 23.78125 15.09375 C 23.661891 14.960604 23.602399 14.736212 23.625 14.625 C 23.6476 14.513788 23.66616 14.401553 24.15625 14.25 L 23.5625 12.34375 z M 17.59375 18.15625 L 22.875 20.90625 L 21.5 22.09375 L 17.59375 20.1875 L 17.59375 18.15625 z M 10.90625 19.84375 L 10.5 21.4375 L 11.75 27 L 13.78125 27 L 12.78125 22.34375 L 10.90625 19.84375 z M 24.5 24 C 23.671573 24 23 24.671573 23 25.5 C 23 26.328427 23.671573 27 24.5 27 C 25.328427 27 26 26.328427 26 25.5 C 26 24.671573 25.328427 24 24.5 24 z" overflow="visible" font-family="Bitstream Vera Sans" fill="#000000"/></svg>
