<?xml version="1.0" encoding="utf-8"?>
<svg xmlns="http://www.w3.org/2000/svg" viewBox="0 0 32 32" fill="#000000"><path style="text-indent:0;text-align:start;line-height:normal;text-transform:none;block-progression:tb;-inkscape-font-specification:Bitstream Vera Sans" d="M 16 3.03125 C 15.671043 3.034372 15.335708 3.0530069 15 3.09375 C 14.98916 3.09507 14.97959 3.09239 14.96875 3.09375 C 10.914372 3.5586693 7.6860072 6.8357481 7.125 10.875 C 6.6769564 14.123316 8.0170316 17.070727 10.25 18.96875 C 11.205925 19.788114 11.797464 20.88315 12 22 L 12 23 L 12 27 L 12 28 L 13 28 L 14.28125 28 C 14.628312 28.596878 15.263455 29 16 29 C 16.736545 29 17.371688 28.596878 17.71875 28 L 19 28 L 20 28 L 20 27 L 20 24 L 20.09375 24 L 20.09375 23 L 20.09375 22.8125 C 20.09375 21.345833 20.855701 19.868367 22.09375 18.71875 C 23.750885 17.061615 25 14.705556 25 12 C 25 7.0585063 20.934362 2.9844199 16 3.03125 z M 16 5.03125 C 19.864717 4.9763797 23 8.1389628 23 12 C 23 14.094444 22.030365 15.938385 20.6875 17.28125 L 20.71875 17.3125 C 19.375453 18.566441 18.51678 20.20798 18.28125 22 L 13.90625 22 C 13.686803 20.285815 12.950698 18.627384 11.5625 17.4375 C 9.7954684 15.935523 8.7417936 13.676684 9.09375 11.125 C 9.5313357 7.9743831 12.087411 5.4416766 15.21875 5.09375 C 15.482176 5.0608218 15.742352 5.034908 16 5.03125 z M 13.3125 8 C 13.3125 8 11.2875 12.4125 12.1875 15.3125 C 12.7875 17.4125 15 17.89375 16 17.09375 C 16.1 17.99375 15.8 18.70625 15.5 19.40625 L 17.1875 20 C 18.2875 16.8 16.50625 13.10625 15.40625 11.40625 C 18.00625 13.20625 18.6875 16.3125 18.6875 16.3125 C 18.8875 16.2125 19.1125 15.8875 19.3125 15.6875 C 20.9125 13.8875 20.0125 9.3 13.3125 8 z M 14 24 L 18 24 L 18 26 L 14 26 L 14 24 z" overflow="visible" font-family="Bitstream Vera Sans" fill="#000000"/></svg>
