<?xml version="1.0" encoding="utf-8"?>
<svg xmlns="http://www.w3.org/2000/svg" viewBox="0 0 32 32" fill="#000000"><path style="text-indent:0;text-align:start;line-height:normal;text-transform:none;block-progression:tb;-inkscape-font-specification:Bitstream Vera Sans" d="M 5 5 L 5 6 L 5 26 L 5 27 L 6 27 L 26 27 L 27 27 L 27 26 L 27 6 L 27 5 L 26 5 L 6 5 L 5 5 z M 7 7 L 25 7 L 25 25 L 7 25 L 7 7 z M 11 9 L 11 11 L 13 11 L 13 9 L 11 9 z M 13 11 L 13 21 L 15 21 L 15 11 L 13 11 z M 13 21 L 11 21 L 11 23 L 13 23 L 13 21 z M 11 21 L 11 11 L 9 11 L 9 21 L 11 21 z M 19 9 L 19 11 L 21 11 L 21 9 L 19 9 z M 21 11 L 21 21 L 23 21 L 23 11 L 21 11 z M 21 21 L 19 21 L 19 23 L 21 23 L 21 21 z M 19 21 L 19 11 L 17 11 L 17 21 L 19 21 z" fill="#000000"/></svg>
