<?xml version="1.0" encoding="utf-8"?>
<svg xmlns="http://www.w3.org/2000/svg" viewBox="0 0 32 32" fill="#000000"><path style="text-indent:0;text-align:start;line-height:normal;text-transform:none;block-progression:tb;-inkscape-font-specification:Sans" d="M 4 5 L 4 6 L 4 26 L 4 27 L 5 27 L 19 27 L 19 25 L 6 25 L 6 11 L 26 11 L 26 19 L 28 19 L 28 6 L 28 5 L 27 5 L 5 5 L 4 5 z M 6 7 L 26 7 L 26 9 L 6 9 L 6 7 z M 9 14 L 9 16 L 11 16 L 11 14 L 9 14 z M 13 14 L 13 16 L 23 16 L 23 14 L 13 14 z M 9 18 L 9 20 L 11 20 L 11 18 L 9 18 z M 13 18 L 13 20 L 23 20 L 23 18 L 13 18 z M 21 21 L 21 22 L 21 31 L 21 32 L 22 32 L 31 32 L 32 32 L 32 31 L 32 22 L 32 21 L 31 21 L 22 21 L 21 21 z M 23 23 L 30 23 L 30 30 L 23 30 L 23 23 z" fill="#000000"/></svg>
