<?xml version="1.0" encoding="utf-8"?>
<svg xmlns="http://www.w3.org/2000/svg" viewBox="0 0 32 32" fill="#000000"><path d="M 16 3.5 C 14.619288 3.5 13.5 4.6192881 13.5 6 C 13.5 7.3807119 14.619288 8.5 16 8.5 C 17.380712 8.5 18.5 7.3807119 18.5 6 C 18.5 4.6192881 17.380712 3.5 16 3.5 z M 23.09375 5.9375 C 21.436896 5.9375 20.09375 7.2806458 20.09375 8.9375 C 20.09375 10.594354 21.436896 11.9375 23.09375 11.9375 C 24.750605 11.9375 26.09375 10.594354 26.09375 8.9375 C 26.09375 7.2806458 24.750605 5.9375 23.09375 5.9375 z M 8.9375 6.65625 C 7.6948593 6.65625 6.6875 7.6636093 6.6875 8.90625 C 6.6875 10.14889 7.6948593 11.15625 8.9375 11.15625 C 10.180141 11.15625 11.1875 10.14889 11.1875 8.90625 C 11.1875 7.6636093 10.180141 6.65625 8.9375 6.65625 z M 6 14 C 4.8954305 14 4 14.895431 4 16 C 4 17.10457 4.8954305 18 6 18 C 7.1045695 18 8 17.10457 8 16 C 8 14.895431 7.1045695 14 6 14 z M 26 15 C 25.447715 15 25 15.447715 25 16 C 25 16.552285 25.447715 17 26 17 C 26.552285 17 27 16.552285 27 16 C 27 15.447715 26.552285 15 26 15 z M 8.90625 21.3125 C 7.9397517 21.3125 7.15625 22.096002 7.15625 23.0625 C 7.15625 24.028998 7.9397517 24.8125 8.90625 24.8125 C 9.8727483 24.8125 10.65625 24.028998 10.65625 23.0625 C 10.65625 22.096002 9.8727483 21.3125 8.90625 21.3125 z M 22.8125 21.84375 C 22.242896 21.960308 21.8125 22.489688 21.8125 23.09375 C 21.8125 23.784106 22.372144 24.34375 23.0625 24.34375 C 23.752856 24.34375 24.3125 23.784106 24.3125 23.09375 C 24.3125 22.403394 23.752856 21.84375 23.0625 21.84375 C 22.976205 21.84375 22.893872 21.827099 22.8125 21.84375 z M 16 24.5 C 15.171573 24.5 14.5 25.171573 14.5 26 C 14.5 26.828427 15.171573 27.5 16 27.5 C 16.828427 27.5 17.5 26.828427 17.5 26 C 17.5 25.171573 16.828427 24.5 16 24.5 z" fill="#000000"/></svg>
