<?xml version="1.0" encoding="utf-8"?>
<svg xmlns="http://www.w3.org/2000/svg" viewBox="0 0 32 32" fill="#000000"><path style="line-height:normal;text-indent:0;text-align:start;text-decoration-line:none;text-decoration-style:solid;text-decoration-color:#000;text-transform:none;block-progression:tb;isolation:auto;mix-blend-mode:normal" d="M 9.5 4 C 5.364 4 2 7.364 2 11.5 C 2 14.089 4.3639844 16.445063 4.4589844 16.539062 L 16 28.080078 L 20.132812 23.947266 C 19.822813 23.978266 19.510312 23.996094 19.195312 23.996094 C 18.594313 23.996094 18.004734 23.937172 17.427734 23.826172 L 16 25.253906 L 5.8691406 15.121094 C 5.3501406 14.604094 4 12.95 4 11.5 C 4 8.468 6.467 6 9.5 6 C 11.05 6 12.486109 6.7280313 13.537109 7.4570312 L 14.972656 6.0234375 C 13.655656 5.0564375 11.714 4 9.5 4 z M 22.804688 4.0058594 C 20.961132 4.0058594 19.117794 4.7064251 17.716797 6.1074219 C 17.217294 6.6059197 14.60592 9.217294 14.107422 9.7167969 C 11.305428 12.51879 11.305428 17.090585 14.107422 19.892578 C 16.909415 22.694572 21.48121 22.694572 24.283203 19.892578 L 27.892578 16.283203 C 30.694572 13.48121 30.694572 8.9094154 27.892578 6.1074219 C 26.491581 4.7064251 24.648243 4.0058594 22.804688 4.0058594 z M 22.804688 5.9941406 C 24.132131 5.9941406 25.459512 6.5024811 26.478516 7.5214844 C 28.516522 9.5594909 28.516522 12.831134 26.478516 14.869141 L 22.869141 18.478516 C 21.073593 20.274062 18.320264 20.485505 16.296875 19.117188 L 17.554688 17.859375 C 17.806407 17.948667 18.069405 18 18.332031 18 C 18.927443 18 19.533917 17.766644 19.984375 17.314453 L 21.314453 15.984375 L 21.314453 15.982422 C 22.216365 15.080729 22.216798 13.588118 21.316406 12.685547 C 20.865309 12.233582 20.265361 12.005892 19.666016 12.005859 C 19.06667 12.005827 18.467039 12.232179 18.015625 12.683594 L 16.683594 14.017578 C 16.034145 14.666869 15.859353 15.620247 16.144531 16.441406 L 14.882812 17.703125 C 13.514495 15.679736 13.725938 12.926407 15.521484 11.130859 A 1.0001 1.0001 0 0 0 15.523438 11.128906 C 16.016939 10.634409 18.634409 8.0169397 19.128906 7.5234375 A 1.0001 1.0001 0 0 0 19.130859 7.5214844 C 20.149863 6.5024811 21.477242 5.9941406 22.804688 5.9941406 z M 19.666016 13.994141 C 19.749069 13.994278 19.831488 14.028621 19.900391 14.097656 C 20.039562 14.236828 20.040367 14.430554 19.902344 14.568359 L 19.900391 14.568359 L 18.566406 15.902344 C 18.496865 15.972153 18.42062 16 18.332031 16 C 18.265938 16 18.206551 15.978034 18.150391 15.939453 A 1.0001 1.0001 0 0 0 18.0625 15.851562 C 17.966509 15.718373 17.973167 15.553983 18.095703 15.431641 L 18.097656 15.431641 L 19.429688 14.097656 C 19.499273 14.028071 19.582962 13.994003 19.666016 13.994141 z" font-weight="400" font-family="sans-serif" white-space="normal" overflow="visible" fill="#000000"/></svg>
