<?xml version="1.0" encoding="utf-8"?>
<svg xmlns="http://www.w3.org/2000/svg" viewBox="0 0 32 32" fill="#000000"><path style="text-indent:0;text-align:start;line-height:normal;text-transform:none;block-progression:tb;-inkscape-font-specification:Bitstream Vera Sans" d="M 8 7 L 8 8 L 5.75 8 C 5.0436806 8 4.5540304 8.4625583 4.25 8.90625 C 3.9459696 9.3499417 3.7388066 9.8605691 3.5625 10.46875 C 3.2098867 11.685112 3 13.264646 3 15 C 3 16.735354 3.2098867 18.314888 3.5625 19.53125 C 3.6114741 19.700189 3.6635993 19.845459 3.71875 20 L 3 20 L 3 22 L 29 22 L 29 20 L 28.28125 20 C 28.336401 19.845459 28.388526 19.700189 28.4375 19.53125 C 28.790113 18.314888 29 16.735354 29 15 C 29 13.264646 28.790113 11.685112 28.4375 10.46875 C 28.261193 9.8605691 28.05403 9.3499417 27.75 8.90625 C 27.44597 8.4625583 26.956319 8 26.25 8 L 24 8 L 24 7 L 20 7 L 20 8 L 12 8 L 12 7 L 8 7 z M 5.90625 10 L 26.09375 10 C 26.104964 10.010594 26.096992 9.9903761 26.125 10.03125 C 26.237032 10.194746 26.392807 10.553681 26.53125 11.03125 C 26.808137 11.986388 27 13.421354 27 15 C 27 16.578646 26.808137 18.013612 26.53125 18.96875 C 26.392807 19.446319 26.237032 19.805254 26.125 19.96875 C 26.096992 20.009624 26.104964 19.989406 26.09375 20 L 5.90625 20 C 5.895036 19.989406 5.903008 20.009624 5.875 19.96875 C 5.7629679 19.805254 5.6071934 19.446319 5.46875 18.96875 C 5.1918633 18.013612 5 16.578646 5 15 C 5 13.421354 5.1918633 11.986388 5.46875 11.03125 C 5.6071934 10.553681 5.7629679 10.194746 5.875 10.03125 C 5.903008 9.9903761 5.895036 10.010594 5.90625 10 z M 16 12.40625 C 16 12.40625 14 14.895 14 16 C 14 17.104 14.896 18 16 18 C 17.104 18 18 17.104 18 16 C 18 14.895 16 12.40625 16 12.40625 z M 4.28125 23 C 4.11025 23.295 4 23.634 4 24 C 4 25.105 4.895 26 6 26 C 7.105 26 8 25.105 8 24 C 8 23.634 7.88975 23.295 7.71875 23 L 4.28125 23 z M 8 24 C 8 25.105 8.895 26 10 26 C 11.105 26 12 25.105 12 24 C 12 23.634 11.88975 23.295 11.71875 23 L 8.28125 23 C 8.11025 23.295 8 23.634 8 24 z M 20.28125 23 C 20.11025 23.295 20 23.634 20 24 C 20 25.105 20.895 26 22 26 C 23.105 26 24 25.105 24 24 C 24 23.634 23.88975 23.295 23.71875 23 L 20.28125 23 z M 24 24 C 24 25.105 24.895 26 26 26 C 27.105 26 28 25.105 28 24 C 28 23.634 27.88975 23.295 27.71875 23 L 24.28125 23 C 24.11025 23.295 24 23.634 24 24 z" overflow="visible" font-family="Bitstream Vera Sans" fill="#000000"/></svg>
