<?xml version="1.0" encoding="utf-8"?>
<svg xmlns="http://www.w3.org/2000/svg" viewBox="0 0 32 32" fill="#000000"><path style="text-indent:0;text-align:start;line-height:normal;text-transform:none;block-progression:tb;-inkscape-font-specification:Bitstream Vera Sans" d="M 5 5 L 5 6 L 5 10 L 7 10 L 7 7 L 25 7 L 25 10 L 27 10 L 27 6 L 27 5 L 26 5 L 6 5 L 5 5 z M 5 12 L 5 18 L 5 20 L 7 20 L 7 18 L 7.25 17.5625 L 8.46875 20 L 10.46875 20 L 8.34375 15.6875 L 10.46875 12 L 8.46875 12 L 7 14.53125 L 7 12 L 5 12 z M 13.5 12 C 12.130937 12 11 13.130937 11 14.5 L 11 17.5 C 11 18.869063 12.130937 20 13.5 20 C 14.869063 20 16 18.869063 16 17.5 L 16 17 L 14 17 L 14 17.5 C 14 17.786937 13.786937 18 13.5 18 C 13.213063 18 13 17.786937 13 17.5 L 13 14.5 C 13 14.213063 13.213063 14 13.5 14 C 13.786937 14 14 14.213063 14 14.5 L 14 15 L 16 15 L 16 14.5 C 16 13.130937 14.869063 12 13.5 12 z M 19.21875 12 L 19 12.6875 L 17.0625 18.6875 L 17 18.84375 L 17 19 L 17 20 L 19 20 L 19 19.125 L 19.03125 19 L 20.96875 19 L 21 19.125 L 21 20 L 23 20 L 23 19 L 23 18.84375 L 22.9375 18.6875 L 21 12.6875 L 20.78125 12 L 20.0625 12 L 19.9375 12 L 19.21875 12 z M 24 12 L 24 19 L 24 20 L 25 20 L 28 20 L 28 18 L 26 18 L 26 12 L 24 12 z M 20 16.0625 L 20.3125 17 L 19.6875 17 L 20 16.0625 z M 5 22 L 5 26 L 5 27 L 6 27 L 26 27 L 27 27 L 27 26 L 27 22 L 25 22 L 25 25 L 7 25 L 7 22 L 5 22 z" fill="#000000"/></svg>
