<?xml version="1.0" encoding="utf-8"?>
<svg xmlns="http://www.w3.org/2000/svg" viewBox="0 0 32 32" fill="#000000"><path style="text-indent:0;text-align:start;line-height:normal;text-transform:none;block-progression:tb;-inkscape-font-specification:Sans" d="M 16 5 L 15.6875 5.28125 L 4.28125 16.8125 L 3.59375 17.5 L 4.28125 18.21875 L 13.78125 27.71875 L 14.5 28.40625 L 15.1875 27.71875 L 26.71875 16.3125 L 27 16 L 27 15.59375 L 27 6 L 27 5 L 26 5 L 16.40625 5 L 16 5 z M 16.84375 7 L 25 7 L 25 15.15625 L 14.5 25.59375 L 6.40625 17.5 L 16.84375 7 z M 22 9 C 21.447715 9 21 9.4477153 21 10 C 21 10.552285 21.447715 11 22 11 C 22.552285 11 23 10.552285 23 10 C 23 9.4477153 22.552285 9 22 9 z M 17.65625 12 C 16.883016 12.032806 16.127601 12.341145 15.53125 12.9375 C 15.349815 13.118935 15.227848 13.33551 15.09375 13.53125 L 14.875 13.3125 L 13.46875 14.75 L 14.09375 15.375 C 14.057993 15.444292 14.03812 15.529493 14 15.59375 C 13.627523 16.221624 13.324008 16.570008 12.5625 16.65625 L 11.78125 15.875 L 10.375 17.28125 L 14.59375 21.5 L 15.3125 22.21875 L 16 21.5 L 17.125 20.375 L 15.71875 18.96875 L 15.3125 19.375 L 14.09375 18.1875 C 14.717051 17.837263 15.219012 17.347291 15.5625 16.84375 L 16.5625 17.84375 L 17.96875 16.4375 L 16.5625 15 C 16.710359 14.709512 16.836011 14.476489 16.9375 14.375 C 17.557231 13.755269 18.641919 13.914668 19 14.75 L 20.8125 13.96875 C 20.36354 12.921416 19.448781 12.253978 18.4375 12.0625 C 18.18468 12.01463 17.913995 11.989065 17.65625 12 z" overflow="visible" font-family="Sans" fill="#000000"/></svg>
