<?xml version="1.0" encoding="utf-8"?>
<svg xmlns="http://www.w3.org/2000/svg" viewBox="0 0 32 32" fill="#000000"><path style="text-indent:0;text-align:start;line-height:normal;text-transform:none;block-progression:tb;-inkscape-font-specification:Bitstream Vera Sans" d="M 16 4 C 9.3844277 4 4 9.3844277 4 16 C 4 22.615572 9.3844277 28 16 28 C 22.615572 28 28 22.615572 28 16 C 28 9.3844277 22.615572 4 16 4 z M 16 6 C 21.534692 6 26 10.465308 26 16 C 26 21.534692 21.534692 26 16 26 C 10.465308 26 6 21.534692 6 16 C 6 10.465308 10.465308 6 16 6 z M 16.53125 8.03125 C 15.98725 9.20325 15.52375 10.83875 15.34375 13.09375 C 15.55975 13.04475 15.769 13 16 13 C 16.29 13 16.57775 13.048 16.84375 13.125 C 17.03275 10.839 17.55075 9.30825 18.09375 8.28125 C 17.59575 8.14625 17.06225 8.06725 16.53125 8.03125 z M 13.9375 8.28125 C 13.4265 8.41725 12.93475 8.5825 12.46875 8.8125 C 12.58375 10.0995 12.99775 11.7695 13.96875 13.8125 C 14.33575 13.4725 14.78025 13.21875 15.28125 13.09375 C 14.30425 11.02175 13.9805 9.44225 13.9375 8.28125 z M 20.46875 9.375 C 19.40875 10.119 18.162 11.28625 16.875 13.15625 C 17.368 13.30825 17.80725 13.5755 18.15625 13.9375 C 19.46325 12.0545 20.67225 10.96075 21.65625 10.34375 C 21.28725 9.97375 20.90375 9.668 20.46875 9.375 z M 10.34375 10.34375 C 9.97375 10.71275 9.668 11.09625 9.375 11.53125 C 10.119 12.59025 11.28625 13.838 13.15625 15.125 C 13.30825 14.632 13.5745 14.19175 13.9375 13.84375 C 12.0545 12.53675 10.96075 11.32775 10.34375 10.34375 z M 23.1875 12.46875 C 21.9005 12.58375 20.2295 12.99775 18.1875 13.96875 C 18.5285 14.33575 18.78125 14.78025 18.90625 15.28125 C 20.97825 14.30425 22.55775 13.9805 23.71875 13.9375 C 23.58275 13.4265 23.4175 12.93475 23.1875 12.46875 z M 8.28125 13.90625 C 8.14625 14.40425 8.06725 14.93675 8.03125 15.46875 C 9.20325 16.01275 10.83875 16.47625 13.09375 16.65625 C 13.04475 16.44025 13 16.231 13 16 C 13 15.71 13.048 15.42225 13.125 15.15625 C 10.838 14.96725 9.30825 14.44925 8.28125 13.90625 z M 16 14 C 14.895431 14 14 14.895431 14 16 C 14 17.104569 14.895431 18 16 18 C 17.104569 18 18 17.104569 18 16 C 18 14.895431 17.104569 14 16 14 z M 18.90625 15.34375 C 18.95525 15.55975 19 15.769 19 16 C 19 16.29 18.952 16.57775 18.875 16.84375 C 21.161 17.03275 22.69175 17.54975 23.71875 18.09375 C 23.85375 17.59575 23.93275 17.06325 23.96875 16.53125 C 22.79675 15.98725 21.16025 15.52375 18.90625 15.34375 z M 13.09375 16.71875 C 11.02175 17.69575 9.44225 18.0195 8.28125 18.0625 C 8.41725 18.5745 8.5825 19.06425 8.8125 19.53125 C 10.0995 19.41525 11.7725 19.00125 13.8125 18.03125 C 13.4735 17.66425 13.21775 17.21875 13.09375 16.71875 z M 18.84375 16.875 C 18.69175 17.368 18.4245 17.80825 18.0625 18.15625 C 19.9455 19.46325 21.03925 20.67225 21.65625 21.65625 C 22.02625 21.28725 22.332 20.90375 22.625 20.46875 C 21.881 19.40975 20.71375 18.162 18.84375 16.875 z M 13.84375 18.0625 C 12.53675 19.9455 11.32775 21.03925 10.34375 21.65625 C 10.71275 22.02625 11.09625 22.332 11.53125 22.625 C 12.59125 21.881 13.838 20.71375 15.125 18.84375 C 14.632 18.69175 14.19275 18.4245 13.84375 18.0625 z M 18.03125 18.1875 C 17.66425 18.5275 17.21975 18.78125 16.71875 18.90625 C 17.69575 20.97825 18.0195 22.55775 18.0625 23.71875 C 18.5735 23.58275 19.06525 23.4175 19.53125 23.1875 C 19.41625 21.9005 19.00225 20.2305 18.03125 18.1875 z M 15.15625 18.875 C 14.96725 21.162 14.45025 22.69175 13.90625 23.71875 C 14.40425 23.85375 14.93675 23.93275 15.46875 23.96875 C 16.01275 22.79675 16.47625 21.16125 16.65625 18.90625 C 16.44025 18.95525 16.231 19 16 19 C 15.71 19 15.42225 18.952 15.15625 18.875 z" overflow="visible" font-family="Bitstream Vera Sans" fill="#000000"/></svg>
