<?xml version="1.0" encoding="utf-8"?>
<svg xmlns="http://www.w3.org/2000/svg" viewBox="0 0 32 32" fill="#000000"><path d="M 8.71875 8 C 7.8623826 8 7.0830597 8.5613314 6.8125 9.375 L 6.28125 11 L 5 11 C 3.9069372 11 3 11.906937 3 13 L 3 19 C 3 20.093063 3.9069372 21 5 21 L 6.28125 21 L 6.8125 22.625 C 7.0830597 23.438669 7.8623826 24 8.71875 24 L 23.28125 24 C 24.137607 24 24.916477 23.440061 25.1875 22.625 L 25.71875 21 L 27 21 C 28.093063 21 29 20.093063 29 19 L 29 13 C 29 11.906937 28.093063 11 27 11 L 25.71875 11 L 25.1875 9.375 C 24.91694 8.5613314 24.137617 8 23.28125 8 L 8.71875 8 z M 8.71875 10 L 23.28125 10 L 23.625 11 L 8.375 11 L 8.71875 10 z M 5 13 L 27 13 L 27 19 L 5 19 L 5 13 z M 7 14 L 7 18 L 9 18 L 9 14 L 7 14 z M 11 14 L 11 18 L 13 18 L 13 14 L 11 14 z M 15 14 L 15 18 L 17 18 L 17 14 L 15 14 z M 19 14 L 19 18 L 21 18 L 21 14 L 19 14 z M 23 14 L 23 18 L 25 18 L 25 14 L 23 14 z M 8.375 21 L 23.625 21 L 23.28125 22 L 8.71875 22 L 8.375 21 z" fill="#000000"/></svg>
