<?xml version="1.0" encoding="utf-8"?>
<svg xmlns="http://www.w3.org/2000/svg" viewBox="0 0 32 32" fill="#000000"><path style="text-indent:0;text-align:start;line-height:normal;text-transform:none;block-progression:tb;-inkscape-font-specification:Sans" d="M 16 3 C 8.8321429 3 3 8.8321429 3 16 C 3 23.167857 8.8321429 29 16 29 C 23.167857 29 29 23.167857 29 16 C 29 8.8321429 23.167857 3 16 3 z M 16 5 C 22.086977 5 27 9.9130231 27 16 C 27 22.086977 22.086977 27 16 27 C 14.368104 27 12.828589 26.634203 11.4375 26 L 14.625 22.78125 C 15.076307 22.873544 15.520896 23 16 23 C 19.854334 23 23 19.854334 23 16 C 23 14.97303 22.770117 14.000068 22.375 13.125 L 21.78125 11.8125 L 20.75 12.8125 L 17 16.5625 L 15.4375 15 L 19.1875 11.25 L 20.1875 10.21875 L 18.875 9.625 C 17.999932 9.2298828 17.02697 9 16 9 C 12.145666 9 9 12.145666 9 16 C 9 16.479104 9.1264556 16.923693 9.21875 17.375 L 6 20.5625 C 5.3657968 19.171411 5 17.631896 5 16 C 5 9.9130231 9.9130231 5 16 5 z M 16 11 C 16.166188 11 16.307131 11.07767 16.46875 11.09375 L 13.28125 14.28125 L 12.59375 15 L 13.28125 15.71875 L 16.28125 18.71875 L 17 19.40625 L 17.71875 18.71875 L 20.90625 15.53125 C 20.92233 15.692869 21 15.833812 21 16 C 21 18.773666 18.773666 21 16 21 C 15.49521 21 15.023356 20.92093 14.5625 20.78125 L 13.96875 20.625 L 13.5625 21.03125 L 9.625 24.96875 C 8.6227722 24.255807 7.7441933 23.377228 7.03125 22.375 L 10.96875 18.4375 L 11.375 18.03125 L 11.21875 17.4375 C 11.079071 16.976644 11 16.50479 11 16 C 11 13.226334 13.226334 11 16 11 z" overflow="visible" font-family="Sans" fill="#000000"/></svg>
