<?xml version="1.0" encoding="utf-8"?>
<svg xmlns="http://www.w3.org/2000/svg" viewBox="0 0 32 32" fill="#000000"><path d="M 5.6875 11.28125 C 3.0855 11.28125 1 14.7085 1 17.5625 C 1 18.4375 1.3925 20.71875 3.4375 20.71875 C 6.0395 20.71875 7.96875 17.19025 7.96875 14.53125 C 7.96875 11.98525 6.4295 11.28125 5.6875 11.28125 z M 12.96875 11.28125 C 10.36675 11.28125 8.25 14.7085 8.25 17.5625 C 8.25 18.4375 8.67375 20.71875 10.71875 20.71875 C 13.32075 20.71875 15.21875 17.19025 15.21875 14.53125 C 15.21875 11.98525 13.71075 11.28125 12.96875 11.28125 z M 16.4375 11.375 C 16.4375 11.375 15.46875 13.19825 15.46875 13.90625 L 16.78125 13.90625 C 16.87725 13.24025 17.375 12.5625 17.375 12.5625 L 20.3125 12.5625 C 19.1795 15.4455 16.648 16.35625 15.25 20.53125 L 17.65625 20.53125 C 18.28225 17.27225 22.7115 14.79 22.6875 11.375 L 16.4375 11.375 z M 23.3125 11.40625 C 23.3125 11.40625 23.21325 12.359 22.90625 13.125 L 27.4375 13.125 C 27.5335 12.855 27.80875 12.6875 28.09375 12.6875 L 30.34375 12.6875 C 31.00775 12.1535 31 11.40625 31 11.40625 L 23.3125 11.40625 z M 5.8125 12.15625 C 5.8845 12.15625 6.1875 12.29475 6.1875 13.09375 C 6.1865 15.83375 3.80475 19.75 2.96875 19.75 C 2.66675 19.75 2.59375 19.26725 2.59375 18.90625 C 2.59375 17.49525 4.6735 12.15625 5.8125 12.15625 z M 13.0625 12.15625 C 13.1345 12.15625 13.4375 12.29475 13.4375 13.09375 C 13.4365 15.83375 11.086 19.75 10.25 19.75 C 9.948 19.75 9.84375 19.26725 9.84375 18.90625 C 9.84375 17.49525 11.9235 12.15625 13.0625 12.15625 z M 22.65625 13.59375 C 22.65625 13.59375 22.40625 13.91675 22.40625 14.46875 C 22.40625 14.94575 23.0625 15.625 23.0625 15.625 C 23.0625 15.625 22.96875 15.20125 22.96875 14.90625 C 22.96875 14.61125 23.15625 14.4375 23.15625 14.4375 L 24.625 14.4375 C 24.625 14.4375 24.1 15.566 23.875 15.875 C 23.651 16.184 23.0625 16.25 23.0625 16.25 L 20.875 16.25 L 20.46875 16.75 C 20.46875 16.75 22.73 16.75 23.375 16.75 C 24.02 16.75 24.41075 16.22925 24.59375 15.90625 C 24.77575 15.58325 25.31475 14.7045 25.46875 14.4375 C 25.62275 14.1705 25.84625 14.125 26.28125 14.125 C 26.71625 14.125 27.03125 13.59375 27.03125 13.59375 L 22.65625 13.59375 z" fill="#000000"/></svg>
