<?xml version="1.0" encoding="utf-8"?>
<svg xmlns="http://www.w3.org/2000/svg" viewBox="0 0 32 32" fill="#000000"><path style="line-height:normal;text-indent:0;text-align:start;text-decoration-line:none;text-decoration-style:solid;text-decoration-color:#000;text-transform:none;block-progression:tb;isolation:auto;mix-blend-mode:normal" d="M 16 3 C 12.212553 3 8.764947 4.1125101 6.2167969 5.9746094 C 3.6686467 7.8367087 2 10.506765 2 13.5 C 2 17.127977 4.4744565 20.197606 8 22.052734 L 8 29 L 14.746094 23.939453 C 15.15773 23.969234 15.568972 24 16 24 C 19.787447 24 23.235053 22.88749 25.783203 21.025391 C 28.331353 19.163291 30 16.493235 30 13.5 C 30 10.506765 28.331353 7.8367087 25.783203 5.9746094 C 23.235053 4.1125101 19.787447 3 16 3 z M 16 5 C 19.392553 5 22.444714 6.013693 24.601562 7.5898438 C 26.758412 9.1659944 28 11.246235 28 13.5 C 28 15.753765 26.758412 17.834006 24.601562 19.410156 C 22.444713 20.986307 19.392553 22 16 22 C 15.506665 22 15.016128 21.971834 14.523438 21.927734 L 14.140625 21.894531 L 10 25 L 10 20.861328 L 9.4238281 20.591797 C 6.06942 19.020203 4 16.385943 4 13.5 C 4 11.246235 5.2415877 9.1659944 7.3984375 7.5898438 C 9.5552873 6.0136931 12.607447 5 16 5 z" font-weight="400" font-family="sans-serif" white-space="normal" overflow="visible" fill="#000000"/></svg>
