<?xml version="1.0" encoding="utf-8"?>
<svg xmlns="http://www.w3.org/2000/svg" viewBox="0 0 32 32" fill="#000000"><path style="text-indent:0;text-align:start;line-height:normal;text-transform:none;block-progression:tb;-inkscape-font-specification:Bitstream Vera Sans" d="M 5 6 L 5 21 L 5 22 L 6 22 L 15 22 L 15 25 L 12.5 25 L 16 28.5 L 19.5 25 L 17 25 L 17 22 L 26 22 L 27 22 L 27 21 L 27 6 L 25 6 L 25 20 L 7 20 L 7 6 L 5 6 z M 13 9 L 13 13.5 L 13 17 L 15 17 L 15 13.5 L 15 13 L 15 9 L 13 9 z M 15 13 L 19 17 L 19 9 L 15 13 z" overflow="visible" font-family="Bitstream Vera Sans" fill="#000000"/></svg>
