<?xml version="1.0" encoding="utf-8"?>
<svg xmlns="http://www.w3.org/2000/svg" viewBox="0 0 32 32" fill="#000000"><path d="M 12 4 C 11.447715 4 11 4.4477153 11 5 C 11 5.5522847 11.447715 6 12 6 C 12.552285 6 13 5.5522847 13 5 C 13 4.4477153 12.552285 4 12 4 z M 12 6 L 9 28 L 15 28 L 14.1875 22 L 17.8125 22 L 17 28 L 23 28 L 20 6 L 17.875 21.5625 L 16 15 L 14.125 21.5625 L 12 6 z M 16 15 C 16.552285 15 17 14.552285 17 14 C 17 13.447715 16.552285 13 16 13 C 15.447715 13 15 13.447715 15 14 C 15 14.552285 15.447715 15 16 15 z M 20 6 C 20.552285 6 21 5.5522847 21 5 C 21 4.4477153 20.552285 4 20 4 C 19.447715 4 19 4.4477153 19 5 C 19 5.5522847 19.447715 6 20 6 z M 8 7 C 7.4477153 7 7 7.4477153 7 8 C 7 8.5522847 7.4477153 9 8 9 C 8.5522847 9 9 8.5522847 9 8 C 9 7.4477153 8.5522847 7 8 7 z M 8 9 L 5 28 L 6.96875 28 L 7.03125 27.71875 L 8.84375 14.34375 L 8 9 z M 24 7 C 23.447715 7 23 7.4477153 23 8 C 23 8.5522847 23.447715 9 24 9 C 24.552285 9 25 8.5522847 25 8 C 25 7.4477153 24.552285 7 24 7 z M 24 9 L 23.15625 14.34375 L 24.96875 27.71875 L 25.03125 28 L 27 28 L 24 9 z" fill="#000000"/></svg>
