<?xml version="1.0" encoding="utf-8"?>
<svg xmlns="http://www.w3.org/2000/svg" viewBox="0 0 32 32" fill="#000000"><path d="M 11.71875 3.28125 L 10.28125 4.71875 C 11.567222 6.004722 11.780585 7.4779118 11.65625 9.25 C 11.531915 11.022088 11 12.958053 11 14.84375 C 11 15.930988 11.380941 17.339942 12.3125 18.625 C 13.244059 19.910058 14.830521 21 17 21 C 18.684013 21 19.988144 20.470259 20.90625 19.65625 C 21.824356 18.842241 22.34518 17.815813 22.71875 16.875 C 23.09232 15.934187 23.345383 15.057371 23.59375 14.53125 C 23.717933 14.268189 23.845736 14.085868 23.90625 14.03125 C 23.966764 13.976632 23.918871 14 24 14 L 24 12 C 23.453879 12 22.926123 12.234306 22.5625 12.5625 C 22.198877 12.890694 21.966864 13.263061 21.78125 13.65625 C 21.410023 14.442629 21.196305 15.315813 20.875 16.125 C 20.553695 16.934187 20.155988 17.657759 19.59375 18.15625 C 19.031512 18.654741 18.291987 19 17 19 C 15.462479 19 14.547941 18.322692 13.90625 17.4375 C 13.264559 16.552308 13 15.409512 13 14.84375 C 13 13.368447 13.513335 11.411912 13.65625 9.375 C 13.799165 7.3380882 13.501778 5.064278 11.71875 3.28125 z M 7.8125 3.40625 L 6.1875 4.59375 C 8.4755 7.77175 8.27675 9.542 8.09375 11.25 C 8.04275 11.731 8 12.20275 8 12.71875 C 8 16.82475 9.4515 19.307 12.5625 20.375 C 10.8405 18.866 10 16.60275 10 14.84375 C 10 14.51675 10.00425 14.17575 10.03125 13.84375 C 10.00425 13.49175 10 13.11375 10 12.71875 C 10 12.30975 10.04575 11.8865 10.09375 11.4375 C 10.29575 9.5515 10.5475 7.20425 7.8125 3.40625 z M 17 13 C 15.895431 13 15 13.895431 15 15 C 15 16.104569 15.895431 17 17 17 C 18.104569 17 19 16.104569 19 15 C 19 13.895431 18.104569 13 17 13 z M 10 22 L 10 24 L 22 24 L 22 22 L 10 22 z M 12 25 L 12 27 L 20 27 L 20 25 L 12 25 z" fill="#000000"/></svg>
