<?xml version="1.0" encoding="utf-8"?>
<svg xmlns="http://www.w3.org/2000/svg" viewBox="0 0 32 32" fill="#000000"><path style="text-indent:0;text-align:start;line-height:normal;text-transform:none;block-progression:tb;-inkscape-font-specification:Bitstream Vera Sans" d="M 15.40625 5 L 15.125 5.375 C 15.125 5.375 14.177884 6.5708089 12.78125 7.75 C 11.384616 8.9291911 9.556699 10 8 10 L 7 10 L 7 11 L 7 11.09375 L 7 11.28125 L 7.0625 11.4375 C 7.0625 11.4375 7.6420542 12.721924 9 13.46875 L 9 16 L 8.71875 16.25 C 8.71875 16.25 8.200628 16.701262 7.4375 17.15625 C 6.674372 17.611238 5.67399 18 5 18 L 4 18 L 4 19 L 4 19.09375 L 4 19.28125 L 4.0625 19.4375 C 4.0625 19.4375 4.8811294 21.384521 7 21.875 L 7 26 L 7 27 L 8 27 L 24 27 L 25 27 L 25 26 L 25 21.875 C 27.118871 21.384521 27.9375 19.4375 27.9375 19.4375 L 28 19.28125 L 28 19.09375 L 28 19 L 28 18 L 27 18 C 26.32601 18 25.325628 17.611238 24.5625 17.15625 C 23.799372 16.701262 23.28125 16.25 23.28125 16.25 L 23 16 L 23 13.46875 C 24.357946 12.721924 24.9375 11.4375 24.9375 11.4375 L 25 11.28125 L 25 11.09375 L 25 11 L 25 10 L 24 10 C 22.639127 10 20.757184 8.9066174 19.3125 7.71875 C 17.867816 6.5308826 16.875 5.34375 16.875 5.34375 L 16.5625 5 L 16.09375 5 L 15.90625 5 L 15.40625 5 z M 16.03125 7.3125 C 16.421248 7.744223 16.868012 8.299102 18.0625 9.28125 C 19.232153 10.242978 20.705431 11.056534 22.28125 11.53125 C 21.970052 11.753312 21.664509 12 21 12 L 11 12 C 10.349764 12 10.060666 11.746662 9.75 11.53125 C 11.397021 11.060408 12.93937 10.224654 14.09375 9.25 C 15.255274 8.2693148 15.658332 7.7534371 16.03125 7.3125 z M 11 14 L 21 14 L 21 16 L 19 16 L 19 15 L 17 15 L 17 16 L 15 16 L 15 15 L 13 15 L 13 16 L 11 16 L 11 14 z M 9.65625 18 L 22.34375 18 C 22.553425 18.169748 22.852062 18.420177 23.5625 18.84375 C 24.001279 19.105356 24.509628 19.380185 25.0625 19.59375 C 24.761223 19.763775 24.554022 20 24 20 L 8 20 C 7.4459782 20 7.2387773 19.763775 6.9375 19.59375 C 7.4903724 19.380185 7.9987214 19.105356 8.4375 18.84375 C 9.1479385 18.420177 9.4465751 18.169748 9.65625 18 z M 9 22 L 23 22 L 23 25 L 18 25 L 18 23 L 14 23 L 14 25 L 9 25 L 9 22 z" fill="#000000"/></svg>
