<?xml version="1.0" encoding="utf-8"?>
<svg xmlns="http://www.w3.org/2000/svg" viewBox="0 0 32 32" fill="#000000"><path style="text-indent:0;text-align:start;line-height:normal;text-transform:none;block-progression:tb;-inkscape-font-specification:Bitstream Vera Sans" d="M 23 3 C 21.46244 3 19.917488 3.5825124 18.75 4.75 C 18.252251 5.2477494 17.872828 5.8110249 17.59375 6.40625 C 17.307956 6.3557479 17.008464 6.3125 16.71875 6.3125 C 15.437003 6.3125 14.159612 6.809138 13.1875 7.78125 L 11.71875 9.21875 L 11.03125 9.9375 L 11.71875 10.625 L 21.375 20.28125 L 22.0625 20.96875 L 22.78125 20.28125 L 24.21875 18.8125 C 25.410272 17.620215 25.862981 15.955655 25.59375 14.40625 C 26.188975 14.127172 26.752251 13.747749 27.25 13.25 C 29.584975 10.915025 29.584975 7.0849752 27.25 4.75 C 26.082512 3.5825124 24.53756 3 23 3 z M 23 4.96875 C 24.021306 4.96875 25.058238 5.3707376 25.84375 6.15625 C 27.414775 7.7272748 27.414775 10.241475 25.84375 11.8125 C 25.550441 12.105809 25.204674 12.34863 24.84375 12.53125 C 24.661426 12.254631 24.461899 11.992994 24.21875 11.75 L 20.25 7.78125 C 20.006972 7.538222 19.745236 7.3395131 19.46875 7.15625 C 19.65137 6.7953262 19.894191 6.4495589 20.1875 6.15625 C 20.973012 5.3707376 21.978694 4.96875 23 4.96875 z M 16.71875 8.28125 C 17.484503 8.28125 18.253862 8.597612 18.84375 9.1875 L 22.8125 13.15625 C 23.993305 14.336299 23.992794 16.225201 22.8125 17.40625 L 22.0625 18.15625 L 13.84375 9.9375 L 14.34375 9.40625 L 14.59375 9.1875 C 15.183638 8.597612 15.952997 8.28125 16.71875 8.28125 z M 9.9375 11.03125 L 9.21875 11.71875 L 7.78125 13.1875 C 6.589728 14.379785 6.1369514 16.044353 6.40625 17.59375 C 5.8110249 17.872828 5.2477494 18.252251 4.75 18.75 C 2.4150248 21.084975 2.4150248 24.915025 4.75 27.25 C 7.0849752 29.584975 10.915025 29.584975 13.25 27.25 C 13.747749 26.752251 14.127172 26.188975 14.40625 25.59375 C 15.955783 25.863143 17.620661 25.410589 18.8125 24.21875 L 20.28125 22.78125 L 20.96875 22.0625 L 20.28125 21.375 L 10.625 11.71875 L 9.9375 11.03125 z M 9.9375 13.84375 L 18.15625 22.0625 L 17.625 22.59375 L 17.40625 22.8125 C 16.226474 23.992276 14.336026 23.992276 13.15625 22.8125 L 12.9375 22.59375 L 9.875 19.53125 L 9.1875 18.84375 C 8.0075731 17.663823 8.0072063 15.774799 9.1875 14.59375 L 9.9375 13.84375 z M 7.15625 19.46875 C 7.3384975 19.745377 7.5382409 20.006991 7.78125 20.25 L 11.75 24.21875 C 11.993028 24.461778 12.254594 24.661479 12.53125 24.84375 C 12.34863 25.204674 12.105809 25.550441 11.8125 25.84375 C 10.241475 27.414775 7.7272748 27.414775 6.15625 25.84375 C 4.5852252 24.272725 4.5852252 21.758525 6.15625 20.1875 C 6.4495589 19.894191 6.7953262 19.65137 7.15625 19.46875 z" overflow="visible" font-family="Bitstream Vera Sans" fill="#000000"/></svg>
