<?xml version="1.0" encoding="utf-8"?>
<svg xmlns="http://www.w3.org/2000/svg" viewBox="0 0 32 32" fill="#000000"><path style="text-indent:0;text-align:start;line-height:normal;text-transform:none;block-progression:tb;-inkscape-font-specification:Sans" d="M 16 4 C 11.948996 4 8.3589618 6.0105142 6.1875 9.09375 L 7.8125 10.25 C 9.6230382 7.6792358 12.611004 6 16 6 C 21.534534 6 26 10.465466 26 16 C 26 21.534534 21.534534 26 16 26 C 12.610824 26 9.623065 24.320802 7.8125 21.75 L 6.1875 22.90625 C 8.358935 25.989448 11.949176 28 16 28 C 22.615466 28 28 22.615466 28 16 C 28 9.3845336 22.615466 4 16 4 z M 8.65625 11.28125 L 4.65625 15.28125 L 3.96875 16 L 4.65625 16.71875 L 8.65625 20.71875 L 10.09375 19.28125 L 7.8125 17 L 20 17 L 20 15 L 7.8125 15 L 10.09375 12.71875 L 8.65625 11.28125 z" overflow="visible" font-family="Sans" fill="#000000"/></svg>
