<?xml version="1.0" encoding="utf-8"?>
<svg xmlns="http://www.w3.org/2000/svg" viewBox="0 0 32 32" fill="#000000"><path style="text-indent:0;text-align:start;line-height:normal;text-transform:none;block-progression:tb;-inkscape-font-specification:Bitstream Vera Sans" d="M 10.15625 4 L 10 4.8125 L 9 10.4375 L 9 10.5 L 9 10.59375 L 9 13 L 9 14 L 9.09375 14 C 9.3815718 15.99149 10.494165 17.730119 12.09375 18.8125 C 8.5266131 20.342333 6 23.881262 6 28 L 8 28 C 8 25.466863 9.1726397 23.213966 11 21.75 L 11 22 L 11 22.40625 L 11.28125 22.71875 L 15.28125 26.71875 L 16 27.40625 L 16.71875 26.71875 L 20.71875 22.71875 L 21 22.40625 L 21 22 L 21 21.75 C 22.82736 23.213966 24 25.466863 24 28 L 26 28 C 26 23.881262 23.473387 20.342333 19.90625 18.8125 C 21.505835 17.730119 22.618428 15.99149 22.90625 14 L 23 14 L 23 13 L 23 10.59375 L 23 10.5 L 23 10.4375 L 22 4.8125 L 21.84375 4 L 21 4 L 11 4 L 10.15625 4 z M 11.84375 6 L 20.15625 6 L 21 10.78125 L 21 12 L 11 12 L 11 10.78125 L 11.84375 6 z M 15 7 L 15 8 L 14 8 L 14 10 L 15 10 L 15 11 L 17 11 L 17 10 L 18 10 L 18 8 L 17 8 L 17 7 L 15 7 z M 11.09375 14 L 20.90625 14 C 20.442195 16.284274 18.426958 18 16 18 C 13.573042 18 11.557805 16.284274 11.09375 14 z M 16 20 C 17.059617 20 18.075953 20.191244 19 20.5625 L 19 21.5625 L 16 24.5625 L 13 21.5625 L 13 20.5625 C 13.924047 20.191244 14.940383 20 16 20 z" overflow="visible" font-family="Bitstream Vera Sans" fill="#000000"/></svg>
