<?xml version="1.0" encoding="utf-8"?>
<svg xmlns="http://www.w3.org/2000/svg" viewBox="0 0 32 32" fill="#000000"><path style="text-indent:0;text-align:start;line-height:normal;text-transform:none;block-progression:tb;-inkscape-font-specification:Sans" d="M 14.3125 8.0625 L 14.03125 8.125 L 4.71875 10.75 L 4 10.9375 L 4 11.6875 L 4 11.8125 L 4 12.53125 L 4.71875 12.75 L 14.09375 15.65625 L 14.28125 15.71875 L 14.46875 15.6875 L 18.28125 15.40625 L 18.40625 15.375 L 18.5 15.34375 L 24.375 13.4375 L 24.375 13.46875 C 24.786803 13.349732 25.203023 13.42459 25.5 13.625 C 25.796977 13.825406 26 14.087391 26 14.59375 C 26 15.075652 25.91318 15.414386 25.75 15.65625 C 25.586818 15.898114 25.335039 16.119945 24.8125 16.28125 C 23.50995 16.682846 16.455397 18.799079 16 18.9375 L 7.96875 16.5625 L 7.875 16.53125 L 7.875 16.5625 C 6.8986442 16.228252 5.879248 16.494912 5.1875 17.0625 C 4.4735963 17.648267 4 18.516667 4 19.5 C 4 21.311111 4.9885591 22.593366 6.15625 23.03125 L 6.1875 23.0625 L 6.21875 23.0625 L 15.71875 25.96875 L 16 26.0625 L 16.3125 25.9375 L 27.3125 22.40625 L 27.3125 22.375 L 28 22.15625 L 28 18.40625 L 26 19.34375 L 26 20.71875 L 16.03125 23.96875 L 6.84375 21.1875 L 6.84375 21.15625 C 6.4114409 20.994134 6 20.688889 6 19.5 C 6 19.183333 6.1764037 18.807983 6.4375 18.59375 C 6.6985963 18.379517 6.9544147 18.323813 7.25 18.4375 L 7.28125 18.4375 L 7.3125 18.46875 L 15.71875 20.96875 L 16 21.03125 L 16.28125 20.96875 C 16.28125 20.96875 24.032738 18.610974 25.40625 18.1875 C 26.263711 17.922805 26.966432 17.433136 27.40625 16.78125 C 27.846068 16.129364 28 15.352848 28 14.59375 C 28 13.468109 27.432023 12.513344 26.625 11.96875 C 26.323593 11.765355 25.973426 11.655517 25.625 11.5625 L 25.625 11.53125 L 25.28125 11.4375 L 14.59375 8.15625 L 14.3125 8.0625 z M 14.28125 10.15625 L 21.40625 12.3125 L 17.96875 13.40625 L 17.90625 13.4375 L 17.625 13.46875 L 16 12.5625 L 14.65625 13.6875 L 14.4375 13.6875 L 8.375 11.78125 L 14.28125 10.15625 z" overflow="visible" font-family="Sans" fill="#000000"/></svg>
