<?xml version="1.0" encoding="utf-8"?>
<svg xmlns="http://www.w3.org/2000/svg" viewBox="0 0 32 32" fill="#000000"><path style="text-indent:0;text-align:start;line-height:normal;text-transform:none;block-progression:tb;-inkscape-font-specification:Bitstream Vera Sans" d="M 16.5 4 C 14.026563 4 12 6.0265634 12 8.5 C 12 10.973437 14.026563 13 16.5 13 C 18.973437 13 21 10.973437 21 8.5 C 21 6.0265634 18.973437 4 16.5 4 z M 16.5 6 C 17.892557 6 19 7.1074434 19 8.5 C 19 9.8925571 17.892557 11 16.5 11 C 15.107443 11 14 9.8925571 14 8.5 C 14 7.1074434 15.107443 6 16.5 6 z M 12.25 14 C 11.155927 14 10.149256 14.59637 9.625 15.5625 C 9.0635446 16.597024 8.1793213 18.219786 7.4375 19.6875 C 7.0665894 20.421357 6.7210157 21.119771 6.46875 21.6875 C 6.3426171 21.971365 6.2372455 22.242407 6.15625 22.46875 C 6.0752545 22.695093 6 22.800377 6 23.1875 C 6 24.703785 6.5289376 25.985873 7.4375 26.8125 C 8.3460624 27.639127 9.5713889 28 10.8125 28 L 13 28 L 16.40625 28 C 17.355408 28 18.260159 27.627625 18.9375 27 L 22.09375 27 C 23.904861 27 25.26502 25.308868 24.96875 23.53125 L 24.96875 23.5 L 24.96875 23.4375 L 23.09375 16.25 C 22.753082 14.93066 21.550523 14 20.1875 14 L 12.25 14 z M 12.25 16 L 13.84375 16 L 13 21.84375 L 12.84375 23 L 14 23 L 16.5 23 C 17.422222 23 18.065073 23.742661 18 24.71875 C 17.944213 25.443977 17.244712 26 16.40625 26 L 13 26 L 10.8125 26 C 9.9536111 26 9.2476876 25.768123 8.78125 25.34375 C 8.3299082 24.933111 8.0195523 24.299445 8 23.28125 C 7.9996148 23.289658 7.9993562 23.253638 8 23.25 C 7.9997085 23.2271 8 23.210796 8 23.1875 C 8.0054506 23.160235 8.0199846 23.156481 8.03125 23.125 C 8.0845045 22.976179 8.1985079 22.756542 8.3125 22.5 C 8.5404843 21.986917 8.8561606 21.311143 9.21875 20.59375 C 9.9439287 19.158964 10.818455 17.556726 11.375 16.53125 C 11.550744 16.20738 11.878073 16 12.25 16 z M 15.875 16 L 20.1875 16 C 20.648477 16 21.040918 16.30334 21.15625 16.75 L 23 23.875 C 23.10373 24.497382 22.682639 25 22.09375 25 L 19.96875 25 C 19.974005 24.955537 19.996523 24.9202 20 24.875 C 20.134927 22.851089 18.577778 21 16.5 21 L 15.15625 21 L 15.875 16 z" overflow="visible" font-family="Bitstream Vera Sans" fill="#000000"/></svg>
