<?xml version="1.0" encoding="utf-8"?>
<svg xmlns="http://www.w3.org/2000/svg" viewBox="0 0 32 32" fill="#000000"><path d="M 15.875 4 L 15.78125 4.03125 L 4.78125 6.46875 L 4 6.65625 L 4 7.4375 L 4 24.5625 L 4 25.34375 L 4.78125 25.53125 L 15.78125 27.96875 L 15.875 28 L 16 28 L 17 28 L 18 28 L 18 27 L 18 25 L 27 25 L 28 25 L 28 24 L 28 9 L 28 8 L 27 8 L 18 8 L 18 5 L 18 4 L 17 4 L 16 4 L 15.875 4 z M 16 6.03125 L 16 8 L 16 9 L 16 24 L 16 25 L 16 25.96875 L 6 23.78125 L 6 8.21875 L 16 6.03125 z M 18 10 L 26 10 L 26 23 L 18 23 L 18 21.59375 C 19.005603 20.481139 20.784856 17.987747 20.40625 17.6875 C 20.08645 17.370971 19.173632 18.73077 18 19.875 L 18 17.59375 C 18.187225 17.656289 18.333417 17.675642 18.375 17.59375 C 18.538676 17.431191 18.336311 17.139041 18 16.8125 L 18 13.0625 L 18.0625 13.125 C 18.1605 13.222 18.277 13.222 18.375 13.125 L 18.84375 12.65625 C 18.94175 12.56025 18.94175 12.44075 18.84375 12.34375 L 18 11.5 L 18 10 z M 14 11 L 8 11.59375 L 8 20.5 L 14 21 L 14 18.8125 L 10.21875 18.59375 L 10.21875 17 L 13.46875 17 L 13.46875 14.8125 L 10.21875 14.90625 L 10.21875 13.40625 L 14 13.1875 L 14 11 z M 21.375 11 C 20.985 11.097 17.98275 15.07975 18.46875 15.46875 C 18.85975 15.85575 20.1265 13.7245 21.6875 12.5625 L 23.4375 12.5625 L 23.4375 14.59375 L 22.84375 15.15625 C 22.74575 15.25225 22.74575 15.37175 22.84375 15.46875 L 23.34375 15.84375 C 23.44175 15.94075 23.527 15.94075 23.625 15.84375 L 24.90625 14.59375 C 25.01125 14.48975 25 14.097 25 14 L 25 11.28125 C 25 11.08825 24.91375 11 24.71875 11 L 23.4375 11 L 21.375 11 z M 20.71875 15.5 C 20.66803 15.503818 20.649375 15.53225 20.625 15.5625 C 20.235 15.9495 22.36025 17.201 23.53125 18.75 L 23.53125 20.5 L 21.5 20.5 L 20.90625 19.90625 C 20.80825 19.80925 20.723 19.80925 20.625 19.90625 L 20.125 20.40625 C 20.027 20.50225 20.027 20.5905 20.125 20.6875 L 21.375 21.9375 C 21.498 22.0605 21.902 22.03125 22 22.03125 L 22.9375 22.03125 L 23.4375 22.03125 L 24.71875 22.03125 C 24.91375 22.03125 25 21.944 25 21.75 L 25 20.5 L 25 18.46875 C 25 18.196875 21.479553 15.442725 20.71875 15.5 z" fill="#000000"/></svg>
