<?xml version="1.0" encoding="utf-8"?>
<svg xmlns="http://www.w3.org/2000/svg" viewBox="0 0 32 32" fill="#000000"><path style="text-indent:0;text-align:start;line-height:normal;text-transform:none;block-progression:tb;-inkscape-font-specification:Sans" d="M 23 4 C 20.958819 4 19.69356 5.206183 19 6.15625 L 19 5 C 3.183 5 3 27.77 3 28 L 5 28 L 7 28 C 7 28 6.982607 23.123819 8.53125 18.3125 C 9.3055716 15.906841 10.478608 13.527661 12.15625 11.8125 C 13.833892 10.097339 15.972718 9 19 9 L 19.625 9 L 19.90625 8.4375 C 19.90625 8.4375 20.794175 6.9544363 22 6.3125 L 22 9 L 22 9.25 L 22.09375 9.4375 L 26.09375 17.4375 L 26.1875 17.59375 L 26.3125 17.71875 C 26.715308 18.098042 26.865517 18.457278 26.9375 18.6875 C 26.99043 18.856781 26.96901 18.85327 26.96875 18.875 C 26.93948 18.97187 26.89729 19.183084 26.71875 19.46875 C 26.501531 19.816301 26.305556 20 26 20 C 25.694444 20 25.498469 19.816301 25.28125 19.46875 C 25.064031 19.121199 24.96875 18.75 24.96875 18.75 L 24.75 17.90625 L 23.875 18 C 23.875 18 23.044269 18.09733 22.125 17.84375 C 21.205731 17.590173 20.340797 17.139718 19.96875 15.75 L 19.625 14.46875 L 18.5 15.125 C 17.206835 15.882573 16.458523 17.040237 16.3125 18.21875 C 16.166477 19.397263 16.516897 20.534642 16.9375 21.65625 C 17.778706 23.899466 19 26.185301 19 28 L 21 28 C 21 25.377699 19.533794 22.944284 18.78125 20.9375 C 18.404978 19.934108 18.235867 19.087237 18.3125 18.46875 C 18.35877 18.095344 18.510284 17.772681 18.78125 17.46875 C 19.544137 18.660728 20.587038 19.503552 21.59375 19.78125 C 22.524879 20.038099 22.904004 19.958909 23.34375 19.9375 C 23.43315 20.170215 23.40603 20.230896 23.59375 20.53125 C 24.001531 21.183699 24.805556 22 26 22 C 27.194444 22 27.998469 21.183699 28.40625 20.53125 C 28.814031 19.878801 28.96875 19.25 28.96875 19.25 L 29 19.15625 L 29 19.0625 C 29 19.0625 29.0063 18.582278 28.84375 18.0625 C 28.707099 17.62545 28.348084 17.09204 27.875 16.5625 L 27.90625 16.5625 L 24 8.75 L 24 5 L 24 4 L 23 4 z M 18.46875 7.03125 C 18.463931 7.0403623 18.442054 7.0538207 18.4375 7.0625 C 18.030808 7.0806992 17.63578 7.1027686 17.25 7.15625 C 16.938508 7.1994328 16.641511 7.2788364 16.34375 7.34375 C 16.640762 7.2654685 16.937437 7.2078806 17.25 7.15625 C 17.641828 7.0915261 18.051793 7.0511976 18.46875 7.03125 z M 22 12 C 21.447715 12 21 12.447715 21 13 C 21 13.552285 21.447715 14 22 14 C 22.552285 14 23 13.552285 23 13 C 23 12.447715 22.552285 12 22 12 z" overflow="visible" font-family="Sans" fill="#000000"/></svg>
