<?xml version="1.0" encoding="utf-8"?>
<svg xmlns="http://www.w3.org/2000/svg" viewBox="0 0 32 32" fill="#000000"><path style="text-indent:0;text-align:start;line-height:normal;text-transform:none;block-progression:tb;-inkscape-font-specification:Sans" d="M 4 7 L 4 8 L 4 22 L 4 23 L 5 23 L 27 23 L 28 23 L 28 22 L 28 8 L 28 7 L 27 7 L 5 7 L 4 7 z M 6 9 L 26 9 L 26 21 L 6 21 L 6 9 z M 13 10.21875 L 13 12 L 13 18 L 13 19.78125 L 14.5 18.84375 L 19.5 15.84375 L 20.9375 15 L 19.5 14.15625 L 14.5 11.15625 L 13 10.21875 z M 15 13.75 L 17.09375 15 L 15 16.25 L 15 13.75 z M 10 24 L 10 26 L 22 26 L 22 24 L 10 24 z" overflow="visible" font-family="Sans" fill="#000000"/></svg>
