<?xml version="1.0" encoding="utf-8"?>
<svg xmlns="http://www.w3.org/2000/svg" viewBox="0 0 32 32" fill="#000000"><path style="text-indent:0;text-align:start;line-height:normal;text-transform:none;block-progression:tb;-inkscape-font-specification:Sans" d="M 16 2 L 15.0625 3.875 L 13 4.1875 L 14.5 5.65625 L 14.15625 7.71875 L 15.6875 6.875 L 15.28125 7.28125 L 9.34375 13.25 L 8.34375 14.21875 L 9.625 14.84375 C 9.625 14.84375 10.640196 15.20958 12.0625 15.53125 L 7.65625 19.9375 L 6.65625 20.90625 L 7.90625 21.53125 C 7.90625 21.53125 8.9851607 21.835414 9.53125 22.03125 L 5.9375 25.625 L 4.96875 26.625 L 6.21875 27.25 C 6.21875 27.25 9.7592318 29 16 29 C 22.240768 29 25.8125 27.25 25.8125 27.25 L 27.03125 26.625 L 26.0625 25.625 L 22.46875 22.03125 C 23.014652 21.835687 24.09375 21.53125 24.09375 21.53125 L 25.34375 20.90625 L 24.34375 19.9375 L 19.9375 15.53125 C 21.359935 15.209543 22.375 14.84375 22.375 14.84375 L 23.65625 14.21875 L 22.65625 13.25 L 16.71875 7.28125 L 16.3125 6.875 L 17.84375 7.71875 L 17.5 5.65625 L 19 4.1875 L 16.9375 3.875 L 16 2 z M 16 9.4375 L 20 13.40625 C 19.406842 13.60566 19.286094 13.762485 17.8125 13.90625 L 16 14.09375 L 14.1875 13.90625 C 12.714508 13.762489 12.593431 13.605698 12 13.40625 L 16 9.4375 z M 16 14.4375 L 17.1875 15.59375 L 21.78125 20.1875 C 21.315705 20.350398 21.327726 20.405762 20.375 20.59375 L 18.53125 20.96875 L 19.875 22.28125 L 23.53125 25.9375 C 22.258009 26.39313 20.07733 27 16 27 C 11.959403 27 9.7872969 26.394089 8.5 25.9375 L 12.125 22.28125 L 13.46875 20.96875 L 11.625 20.59375 C 10.672053 20.406285 10.683848 20.350374 10.21875 20.1875 L 14.8125 15.59375 L 16 14.4375 z" overflow="visible" font-family="Sans" fill="#000000"/></svg>
