<?xml version="1.0" encoding="utf-8"?>
<svg xmlns="http://www.w3.org/2000/svg" viewBox="0 0 32 32" fill="#000000"><path style="line-height:normal;text-indent:0;text-align:start;text-decoration-line:none;text-decoration-style:solid;text-decoration-color:#000;text-transform:none;block-progression:tb;isolation:auto;mix-blend-mode:normal" d="M 15 3 L 15 5 L 14 5 L 14 7 L 13 7 L 13 9 L 14.177734 9 C 13.553807 13.085643 12.095016 16.90642 10.587891 20 L 9 20 L 9 22 L 9.5664062 22 C 7.7882869 25.273202 6.2109375 27.328125 6.2109375 27.328125 L 6 27.597656 L 6 29 L 13 29 L 13 28 C 13 26.331516 14.331516 25 16 25 C 17.668484 25 19 26.331516 19 28 L 19 29 L 26 29 L 26 27.605469 L 25.789062 27.335938 C 25.789062 27.335938 24.210659 25.277233 22.431641 22 L 23 22 L 23 20 L 21.410156 20 C 19.903696 16.905676 18.445932 13.084523 17.822266 9 L 19 9 L 19 7 L 18 7 L 18 5 L 17 5 L 17 3 L 15 3 z M 16 10.144531 C 16.654778 13.838262 17.870332 17.189589 19.162109 20 L 12.835938 20 C 14.127918 17.190497 15.344835 13.839612 16 10.144531 z M 11.861328 22 L 20.138672 22 C 21.261028 24.16891 22.353291 25.902595 23.107422 27 L 20.796875 27 C 20.317221 24.741814 18.39546 23 16 23 C 13.60454 23 11.682779 24.741814 11.203125 27 L 8.8886719 27 C 9.6422444 25.904763 10.737151 24.171193 11.861328 22 z" font-weight="400" font-family="sans-serif" white-space="normal" overflow="visible" fill="#000000"/></svg>
