<?xml version="1.0" encoding="utf-8"?>
<svg xmlns="http://www.w3.org/2000/svg" viewBox="0 0 32 32" fill="#000000"><path style="line-height:normal;text-indent:0;text-align:start;text-decoration-line:none;text-decoration-style:solid;text-decoration-color:#000;text-transform:none;block-progression:tb;isolation:auto;mix-blend-mode:normal" d="M 22.306641 2 L 19.240234 10.179688 L 9.3203125 13.050781 L 9.2832031 13.064453 C 7.9436818 13.572235 6.9374783 13.987936 6.1621094 14.697266 C 5.7373925 14.932474 5.2885707 15.218216 4.8300781 15.630859 C 3.3884369 16.928336 2 19.261905 2 23 L 4 23 C 4 20.983178 4.4254358 19.579548 5 18.574219 L 5 18.638672 C 5 18.899017 5.0350914 18.97444 5.0683594 19.119141 C 5.1016274 19.263842 5.1438794 19.423485 5.1933594 19.599609 C 5.2923194 19.951858 5.420074 20.366316 5.546875 20.767578 C 5.7035059 21.263237 5.7628732 21.435761 5.859375 21.726562 L 5.1777344 22.408203 L 2.3828125 28 L 6 28 L 6 26 L 5.6171875 26 L 6.8222656 23.591797 L 8.1464844 22.267578 L 7.9472656 21.679688 C 7.9472656 21.679688 7.6995229 20.945742 7.453125 20.166016 C 7.329926 19.776153 7.2076805 19.373751 7.1191406 19.058594 C 7.0748707 18.901015 7.0389972 18.765037 7.0175781 18.671875 C 7.0068686 18.625294 7.0017171 18.577402 7 18.560547 L 7 17.638672 C 7 16.8918 7.1085425 16.59407 7.4003906 16.289062 C 7.5303659 16.225435 7.6374682 16.17265 7.7402344 16.132812 C 11.046599 16.415981 16.434676 17.042989 18 16 C 19.812876 14.791416 20.58193 12.801714 20.914062 11.408203 L 23.261719 5.1503906 L 23.792969 6 L 25.457031 6 L 26.603516 7.765625 L 27.076172 7.9472656 L 25.84375 9.7597656 L 24.121094 10.191406 L 23.048828 16.625 L 21 19.697266 L 21 28 L 24 28 L 24 26 L 23 26 L 23 20.302734 L 24.951172 17.378906 L 25.878906 11.8125 L 29.689453 10.857422 L 31.386719 7.4609375 L 27.927734 6.1328125 L 26.542969 4 L 24.902344 4 L 23.654297 2 L 22.306641 2 z M 11.283203 18.988281 L 10.125 22.458984 L 9.0976562 23.488281 L 8.0292969 27.757812 L 9.9707031 28.242188 L 10.902344 24.511719 L 11.875 23.541016 L 12.716797 21.011719 L 17 21.083984 L 17 23.123047 L 18 27.123047 L 18 28 L 20 28 L 20 26.876953 L 19 22.876953 L 19 19.117188 L 11.283203 18.988281 z" font-weight="400" font-family="sans-serif" white-space="normal" overflow="visible" fill="#000000"/></svg>
