<?xml version="1.0" encoding="utf-8"?>
<svg xmlns="http://www.w3.org/2000/svg" viewBox="0 0 32 32" fill="#000000"><path style="text-indent:0;text-align:start;line-height:normal;text-transform:none;block-progression:tb;-inkscape-font-specification:Bitstream Vera Sans" d="M 5 5 L 5 7 L 27 7 L 27 5 L 5 5 z M 7.96875 8 L 13.875 11.15625 L 6.53125 15.125 C 6.04525 15.387 5.863 15.98375 6.125 16.46875 C 6.387 16.95475 6.98275 17.137 7.46875 16.875 L 23.9375 8 L 19.71875 8 L 15.96875 10.03125 L 12.1875 8 L 7.96875 8 z M 19.09375 11.6875 L 16.96875 12.84375 L 21.84375 15.4375 L 23.96875 14.28125 L 19.09375 11.6875 z M 24.90625 15 C 24.776906 15.012281 24.65275 15.0595 24.53125 15.125 L 16.03125 19.71875 L 10.15625 16.5625 L 8.03125 17.71875 L 13.90625 20.84375 L 8.0625 24 L 12.28125 24 L 25.46875 16.875 C 25.95475 16.613 26.137 16.01625 25.875 15.53125 C 25.6785 15.16675 25.294281 14.963156 24.90625 15 z M 19.15625 21.375 L 17.03125 22.5 L 19.8125 24 L 24.03125 24 L 19.15625 21.375 z M 5 25 L 5 27 L 27 27 L 27 25 L 5 25 z" fill="#000000"/></svg>
