<?xml version="1.0" encoding="utf-8"?>
<svg xmlns="http://www.w3.org/2000/svg" viewBox="0 0 32 32" fill="#000000"><path style="text-indent:0;text-align:start;line-height:normal;text-transform:none;block-progression:tb;-inkscape-font-specification:Bitstream Vera Sans" d="M 4.6875 6.21875 C 4.6875 6.21875 3 7.5021044 3 9.5625 C 3 11.160189 3.744873 12.286083 4.3125 12.90625 C 4.1109528 13.547461 4 14.248832 4 15 C 4 17.427135 4.5584751 19.133716 5.0625 20.59375 C 5.5665249 22.053784 6 23.238899 6 25 L 8 25 C 8 22.894101 7.4334751 21.374216 6.9375 19.9375 C 6.4415249 18.500784 6 17.134865 6 15 C 6 12.75767 7.203196 11.382704 8.9375 10.40625 C 10.671804 9.4297959 12.93759 9 14.53125 9 C 17.597295 9 19.827316 10.058347 21.125 10.90625 C 20.955557 11.14199 20.796336 11.390677 20.625 11.625 L 22.25 12.8125 C 22.899621 11.924064 23.385602 11.176333 23.90625 10.71875 C 24.426898 10.261167 24.938016 10 26 10 L 26 8 C 24.541984 8 23.412602 8.4990834 22.59375 9.21875 C 22.525512 9.2787222 22.470884 9.344429 22.40625 9.40625 C 20.864784 8.3667266 18.163579 7 14.53125 7 C 12.60691 7 10.082696 7.4484541 7.9375 8.65625 C 6.9332987 9.221639 6.0143864 10.003767 5.3125 10.96875 C 5.1312256 10.626012 5 10.167636 5 9.5625 C 5 8.7108956 5.96875 7.75 5.96875 7.75 L 4.6875 6.21875 z M 24.5625 12.03125 L 23.34375 13.625 C 24.305765 14.367199 24.579697 15.024689 24.875 15.75 C 25.022651 16.112656 25.154618 16.501311 25.40625 16.90625 C 25.49707 17.0524 25.710124 17.142001 25.84375 17.28125 L 25.28125 18.8125 C 25.107703 18.988926 23.13078 21 20.375 21 L 18.90625 21 L 19.4375 22.34375 C 19.4375 22.34375 20 24.031964 20 25 L 22 25 C 22 24.208797 21.827442 23.408789 21.65625 22.78125 C 24.797024 22.237849 26.875 20.09375 26.875 20.09375 L 27.03125 19.9375 L 27.09375 19.75 L 27.9375 17.34375 L 28.28125 16.40625 L 27.375 16.0625 C 27.240832 16.010747 27.221337 15.99878 27.125 15.84375 C 27.028663 15.68872 26.880474 15.397219 26.71875 15 C 26.395303 14.205561 25.867485 13.038051 24.5625 12.03125 z M 22.5 16 C 22.223858 16 22 16.223858 22 16.5 C 22 16.776142 22.223858 17 22.5 17 C 22.776142 17 23 16.776142 23 16.5 C 23 16.223858 22.776142 16 22.5 16 z M 9 19.5625 L 9 21 L 9 21.09375 L 9 21.46875 L 9.25 21.75 C 9.25 21.75 9.3586252 21.865415 9.5625 22.375 C 9.7663748 22.884585 10 23.714237 10 24.96875 L 12 24.96875 C 12 23.820672 11.772168 23.106688 11.5625 22.40625 C 12.342964 22.634498 13.167943 22.987229 14 23 C 14.885957 23.01339 15.265527 23.0043 15.625 23 C 15.65497 23.06301 15.64885 23.02807 15.6875 23.125 C 15.842117 23.512715 16 24.116178 16 25 L 18 25 C 18 23.855822 17.772633 22.980285 17.53125 22.375 C 17.289867 21.769715 16.96875 21.375 16.96875 21.375 L 16.6875 21 L 16.1875 21 C 16.1875 21 15.172327 21.01772 14 21 C 12.877115 20.98277 12.004999 20.673121 10.34375 20.0625 L 9 19.5625 z" overflow="visible" font-family="Bitstream Vera Sans" fill="#000000"/></svg>
