<?xml version="1.0" encoding="utf-8"?>
<svg xmlns="http://www.w3.org/2000/svg" viewBox="0 0 32 32" fill="#000000"><path style="text-indent:0;text-align:start;line-height:normal;text-transform:none;block-progression:tb;-inkscape-font-specification:Bitstream Vera Sans" d="M 25.5625 5.09375 L 5.5625 15 L 5 15.28125 L 5 15.90625 L 5 16.09375 L 5 16.71875 L 5.5625 17 L 25.5625 26.90625 L 26.4375 25.09375 L 23.65625 23.71875 C 24.50961 22.355207 26 19.457335 26 16 C 26 12.542665 24.50961 9.6447927 23.65625 8.28125 L 26.4375 6.90625 L 25.5625 5.09375 z M 21.84375 9.1875 C 22.529096 10.255464 24 12.919058 24 16 C 24 19.080942 22.529096 21.744536 21.84375 22.8125 L 18.15625 21 C 18.989491 20.035112 20.21875 18.243988 20.21875 16 C 20.21875 13.756012 18.989491 11.964888 18.15625 11 L 21.84375 9.1875 z M 16.71875 12.53125 C 17.359966 13.303602 18.21875 14.492263 18.21875 16 C 18.21875 17.507737 17.359966 18.696398 16.71875 19.46875 C 16.077199 18.694812 15.21875 17.503955 15.21875 16 C 15.21875 14.496045 16.077199 13.305188 16.71875 12.53125 z M 13.9375 13.09375 C 13.535713 13.933446 13.21875 14.905745 13.21875 16 C 13.21875 17.094255 13.535713 18.066554 13.9375 18.90625 L 8.03125 16 L 13.9375 13.09375 z" overflow="visible" font-family="Bitstream Vera Sans" fill="#000000"/></svg>
