<?xml version="1.0" encoding="utf-8"?>
<svg xmlns="http://www.w3.org/2000/svg" viewBox="0 0 32 32" fill="#000000"><path style="text-indent:0;text-align:start;line-height:normal;text-transform:none;block-progression:tb;-inkscape-font-specification:Sans" d="M 4 4 L 4 5 L 4 9 L 6 9 L 6 6 L 9 6 L 9 4 L 5 4 L 4 4 z M 23 4 L 23 6 L 26 6 L 26 9 L 28 9 L 28 5 L 28 4 L 27 4 L 23 4 z M 18 5 C 14.334201 5 11.742054 5.8814609 10.125 7.6875 C 8.5079462 9.4935391 8 12.015614 8 15 L 8 15.90625 C 7.4276098 16.450747 7 17.148819 7 18 L 4 18 L 4 20 L 28 20 L 28 18 L 25 18 C 25 17.153656 24.571 16.452514 24 15.90625 L 24 15 C 24 12.238335 23.667811 10.326769 22.8125 8.96875 C 22.095743 7.8307191 20.914609 7.3239455 19.6875 7.15625 L 18.90625 5.5625 L 18.625 5 L 18 5 z M 17.40625 7.0625 L 18.09375 8.4375 C 18.432524 9.1141351 18.572299 9.6082081 18.59375 9.84375 C 18.6152 10.079292 18.59245 10.001308 18.59375 10 C 18.59625 9.99738 17.975689 10.228688 17.0625 10.28125 C 16.149311 10.33381 15.031928 10.32158 13.96875 10.78125 C 12.905572 11.240919 12.012806 12.409362 12 14 L 14 14 C 14.0082 12.982138 14.252053 12.8538 14.78125 12.625 C 15.310447 12.3962 16.235189 12.304813 17.1875 12.25 C 18.139811 12.19519 19.188334 12.27408 20.03125 11.40625 C 20.452708 10.972333 20.651815 10.293829 20.59375 9.65625 C 20.586968 9.581773 20.573896 9.5125858 20.5625 9.4375 C 20.747814 9.588582 20.929871 9.771051 21.09375 10.03125 C 21.601689 10.837731 22 12.419665 22 15 L 22 16.28125 L 22 16.84375 L 22.5 17.125 C 22.803899 17.300541 23 17.619774 23 18 L 20 18 C 20 17.447715 19.552285 17 19 17 C 18.447715 17 18 17.447715 18 18 L 14 18 C 14 17.447715 13.552285 17 13 17 C 12.447715 17 12 17.447715 12 18 L 9 18 C 9 17.626072 9.1931792 17.302229 9.5 17.125 L 10 16.84375 L 10 16.28125 L 10 15 C 10 12.245386 10.497554 10.259211 11.625 9 C 12.669702 7.8332031 14.490427 7.1640251 17.40625 7.0625 z M 9.59375 22 C 10.79975 24.38 13.066 27 16 27 C 18.934 27 21.20025 24.38 22.40625 22 L 20.125 22 C 19.124 23.58 17.63 25 16 25 C 14.37 25 12.876 23.58 11.875 22 L 9.59375 22 z M 4 23 L 4 27 L 4 28 L 5 28 L 9 28 L 9 26 L 6 26 L 6 23 L 4 23 z M 26 23 L 26 26 L 23 26 L 23 28 L 27 28 L 28 28 L 28 27 L 28 23 L 26 23 z" fill="#000000"/></svg>
