<?xml version="1.0" encoding="utf-8"?>
<svg xmlns="http://www.w3.org/2000/svg" viewBox="0 0 32 32" fill="#000000"><path style="text-indent:0;text-align:start;line-height:normal;text-transform:none;block-progression:tb;-inkscape-font-specification:Sans" d="M 24.40625 3.03125 C 24.013582 3.060865 23.608848 3.1746407 23.28125 3.34375 C 22.626055 3.6819685 22.140192 4.1853667 21.65625 4.75 C 20.688365 5.8792665 19.779885 7.2775401 18.625 8.4375 C 17.148531 9.919971 7.0357423 20.055015 6.21875 20.875 C 5.223758 21.873858 4.1367765 22.780756 3.46875 23.96875 C 3.1347367 24.562747 2.9146203 25.277345 3.03125 26.03125 C 3.1478797 26.785155 3.5660236 27.500577 4.21875 28.15625 C 6.5092917 30.457551 10.370555 30.671693 12.6875 28.34375 C 13.748711 27.278535 24.481867 16.496886 26.5625 14.40625 C 28.823135 12.135692 29.287505 9.522765 28.8125 7.4375 C 28.337495 5.352235 27.121148 3.752215 25.59375 3.1875 C 25.203679 3.043163 24.798918 3.0016353 24.40625 3.03125 z M 24.5625 5 C 24.663843 4.9952679 24.755821 5.0068371 24.90625 5.0625 C 25.439852 5.259785 26.536505 6.389015 26.875 7.875 C 27.213495 9.360985 26.965365 11.151558 25.125 13 C 23.045633 15.089364 12.308789 25.874715 11.25 26.9375 C 9.7749452 28.419557 7.1664583 28.298699 5.625 26.75 C 5.1702264 26.293173 5.0356828 25.980657 5 25.75 C 4.9643172 25.519343 5.0305133 25.303503 5.21875 24.96875 C 5.5952235 24.299244 6.592242 23.380642 7.65625 22.3125 C 8.4772577 21.488485 18.555719 11.325279 20.03125 9.84375 C 21.379365 8.4897099 22.369635 6.9854835 23.1875 6.03125 C 23.596433 5.5541333 23.955352 5.229719 24.21875 5.09375 C 24.350449 5.0257655 24.461157 5.0047321 24.5625 5 z M 23 10 C 22.445506 10 22 10.445506 22 11 C 22 11.554494 22.445506 12 23 12 C 23.554494 12 24 11.554494 24 11 C 24 10.445506 23.554494 10 23 10 z M 20 13 C 19.445506 13 19 13.445506 19 14 C 19 14.554494 19.445506 15 20 15 C 20.554494 15 21 14.554494 21 14 C 21 13.445506 20.554494 13 20 13 z M 13 20 C 12.445506 20 12 20.445506 12 21 C 12 21.554494 12.445506 22 13 22 C 13.554494 22 14 21.554494 14 21 C 14 20.445506 13.554494 20 13 20 z M 10 23 C 9.4455061 23 9 23.445506 9 24 C 9 24.554494 9.4455061 25 10 25 C 10.554494 25 11 24.554494 11 24 C 11 23.445506 10.554494 23 10 23 z" overflow="visible" font-family="Sans" fill="#000000"/></svg>
