<?xml version="1.0" encoding="utf-8"?>
<svg xmlns="http://www.w3.org/2000/svg" viewBox="0 0 32 32" fill="#000000"><path style="text-indent:0;text-align:start;line-height:normal;text-transform:none;block-progression:tb;-inkscape-font-specification:Bitstream Vera Sans" d="M 5 5 L 5 6 L 5 26 L 5 27 L 6 27 L 26 27 L 27 27 L 27 26 L 27 6 L 27 5 L 26 5 L 6 5 L 5 5 z M 7 7 L 25 7 L 25 25 L 7 25 L 7 7 z M 15 9 L 15 10 L 14.5 10 L 14.5 12 L 15 12 L 15 14.25 L 13.03125 13.125 L 13.28125 12.6875 L 11.5625 11.6875 L 11.3125 12.125 L 10.4375 11.625 L 9.4375 13.375 L 10.3125 13.875 L 10.0625 14.3125 L 11.78125 15.3125 L 12.03125 14.875 L 13.96875 16 L 12.03125 17.125 L 11.78125 16.6875 L 10.0625 17.6875 L 10.3125 18.125 L 9.4375 18.625 L 10.4375 20.375 L 11.3125 19.875 L 11.5625 20.3125 L 13.28125 19.3125 L 13.03125 18.875 L 15 17.75 L 15 20 L 14.5 20 L 14.5 22 L 15 22 L 15 23 L 17 23 L 17 22 L 17.5 22 L 17.5 20 L 17 20 L 17 17.75 L 18.96875 18.875 L 18.71875 19.3125 L 20.4375 20.3125 L 20.6875 19.875 L 21.5625 20.375 L 22.5625 18.625 L 21.6875 18.125 L 21.9375 17.6875 L 20.21875 16.6875 L 19.96875 17.125 L 18.03125 16 L 19.96875 14.875 L 20.21875 15.3125 L 21.9375 14.3125 L 21.6875 13.875 L 22.5625 13.375 L 21.5625 11.625 L 20.6875 12.125 L 20.4375 11.6875 L 18.71875 12.6875 L 18.96875 13.125 L 17 14.25 L 17 12 L 17.5 12 L 17.5 10 L 17 10 L 17 9 L 15 9 z" fill="#000000"/></svg>
