<?xml version="1.0" encoding="utf-8"?>
<svg xmlns="http://www.w3.org/2000/svg" viewBox="0 0 32 32" fill="#000000"><path style="text-indent:0;text-align:start;line-height:normal;text-transform:none;block-progression:tb;-inkscape-font-specification:Sans" d="M 16 3.78125 L 16 5 L 16 6 L 5 6 L 4 6 L 4 7 L 4 13 L 6 13 L 6 8 L 16 8 L 16 24 L 6 24 L 6 19 L 4 19 L 4 25 L 4 26 L 5 26 L 6 26 L 6 27 L 10 27 L 10 26 L 16 26 L 16 27 L 16 28.21875 L 17.1875 27.96875 L 22.03125 27 L 26 27 L 26 26.21875 L 27.1875 25.96875 L 28 25.8125 L 28 25 L 28 21 L 29 21 L 29 18 L 28 18 L 28 14 L 29 14 L 29 11 L 28 11 L 28 7 L 28 6.1875 L 27.1875 6.03125 L 17.1875 4.03125 L 16 3.78125 z M 18 6.21875 L 26 7.8125 L 26 24.1875 L 18 25.78125 L 18 6.21875 z M 22.5 11 C 21.9326 11 21.45568 11.318521 21.15625 11.65625 C 20.85682 11.993979 20.665082 12.372281 20.5 12.8125 C 20.169836 13.692937 20 14.794098 20 16 C 20 17.205902 20.169836 18.307063 20.5 19.1875 C 20.665082 19.627719 20.85682 20.006021 21.15625 20.34375 C 21.45568 20.681479 21.9326 21 22.5 21 C 23.0674 21 23.54432 20.681479 23.84375 20.34375 C 24.14318 20.006021 24.334918 19.627719 24.5 19.1875 C 24.830164 18.307063 25 17.205902 25 16 C 25 14.794098 24.830164 13.692937 24.5 12.8125 C 24.334918 12.372281 24.14318 11.993979 23.84375 11.65625 C 23.54432 11.318521 23.0674 11 22.5 11 z M 10.1875 11.28125 L 8.78125 12.71875 L 11.0625 15 L 4 15 L 4 17 L 11.0625 17 L 8.78125 19.28125 L 10.1875 20.71875 L 14.1875 16.71875 L 14.90625 16 L 14.1875 15.28125 L 10.1875 11.28125 z M 22.5 13.28125 C 22.54678 13.36867 22.57773 13.405188 22.625 13.53125 C 22.837729 14.098528 23 14.996763 23 16 C 23 17.003237 22.837729 17.901472 22.625 18.46875 C 22.57773 18.594812 22.54678 18.631325 22.5 18.71875 C 22.45322 18.63133 22.42227 18.594812 22.375 18.46875 C 22.162271 17.901472 22 17.003237 22 16 C 22 14.996763 22.162271 14.098528 22.375 13.53125 C 22.42227 13.405188 22.45322 13.368675 22.5 13.28125 z" fill="#000000"/></svg>
