<?xml version="1.0" encoding="utf-8"?>
<svg xmlns="http://www.w3.org/2000/svg" viewBox="0 0 32 32" fill="#000000"><path d="M 16 4 C 14.734666 4 13.722889 4.7959578 12.90625 5.78125 C 12.089611 6.7665422 11.411581 8.0226921 10.84375 9.375 C 9.7080886 12.079616 9 15.072833 9 17 C 9 18.326362 9.1209422 19.638812 9.65625 20.8125 C 10.097202 21.779309 10.928394 22.563159 12 23.125 L 12 25 C 12 26.093063 12.906937 27 14 27 L 15 28 L 17 28 L 18 27 C 19.093063 27 20 26.093063 20 25 L 20 23.125 C 21.071606 22.563159 21.902798 21.779309 22.34375 20.8125 C 22.879058 19.638812 23 18.326362 23 17 C 23 15.072833 22.291911 12.079616 21.15625 9.375 C 20.588419 8.0226921 19.910389 6.7665422 19.09375 5.78125 C 18.277111 4.7959578 17.265334 4 16 4 z M 16 6 C 16.391666 6 16.943451 6.3156047 17.5625 7.0625 C 18.181549 7.8093953 18.794581 8.9228079 19.3125 10.15625 C 20.348339 12.623134 21 15.613167 21 17 C 21 17.344692 20.992024 17.685483 20.96875 18 L 11.03125 18 C 11.007976 17.685483 11 17.344692 11 17 C 11 15.613167 11.651661 12.623134 12.6875 10.15625 C 13.205419 8.9228079 13.818451 7.8093953 14.4375 7.0625 C 15.056549 6.3156047 15.608334 6 16 6 z M 11.5 20 L 20.5 20 C 20.156524 20.732832 19.660285 21.264857 18.65625 21.625 L 18 21.84375 L 18 22.5625 L 18 25 L 14 25 L 14 22.5625 L 14 21.84375 L 13.34375 21.625 C 12.339715 21.264857 11.843476 20.732832 11.5 20 z" fill="#000000"/></svg>
