<?xml version="1.0" encoding="utf-8"?>
<svg xmlns="http://www.w3.org/2000/svg" viewBox="0 0 32 32" fill="#000000"><path d="M 15.21875 3 L 15 3.6875 L 10.1875 19 L 7.25 19 L 5.03125 26.71875 L 5 29 L 27 29 L 27 27 L 24.75 19 L 21.8125 19 L 16.96875 3.6875 L 16.75 3 L 16.03125 3 L 15.96875 3 L 15.21875 3 z M 14.90625 10.78125 C 15.240179 10.911979 15.62069 11 16 11 C 16.37931 11 16.759821 10.911979 17.09375 10.78125 L 18.25 14.46875 C 17.695731 14.759356 16.970732 15 16 15 C 15.029768 15 14.304353 14.762244 13.75 14.46875 L 14.90625 10.78125 z M 12.25 19.21875 C 13.009702 19.559745 14.253721 20 16 20 C 17.746279 20 18.990298 19.559995 19.75 19.21875 L 20.84375 22.65625 C 20.727675 22.775329 20.726481 22.852831 20.21875 23.125 C 19.434792 23.54524 18.122092 24 16 24 C 13.877908 24 12.565208 23.54524 11.78125 23.125 C 11.273519 22.852831 11.272325 22.775329 11.15625 22.65625 L 12.25 19.21875 z" fill="#000000"/></svg>
