<?xml version="1.0" encoding="utf-8"?>
<svg xmlns="http://www.w3.org/2000/svg" viewBox="0 0 32 32" fill="#000000"><path style="text-indent:0;text-align:start;line-height:normal;text-transform:none;block-progression:tb;-inkscape-font-specification:Sans" d="M 6 4 C 4.3549904 4 3 5.3549904 3 7 C 3 8.6450096 4.3549904 10 6 10 C 6.688243 10 7.3350325 9.7713719 7.84375 9.375 L 11.125 11.96875 L 7.78125 14.59375 C 7.6537577 14.498911 7.5166142 14.41778 7.375 14.34375 C 7.3057369 14.30721 7.2285059 14.281162 7.15625 14.25 C 7.084578 14.219453 7.0118202 14.18122 6.9375 14.15625 C 6.6376286 14.054256 6.3320259 14 6 14 C 4.3549901 14 3 15.354991 3 17 C 3 18.645009 4.3549901 20 6 20 C 6.2056262 20 6.3992669 19.977763 6.59375 19.9375 C 7.7606486 19.695919 8.6959195 18.760648 8.9375 17.59375 C 8.9777634 17.399267 9 17.205626 9 17 C 9 16.760103 8.9605811 16.536758 8.90625 16.3125 L 12.75 13.25 L 19.96875 18.9375 L 23 18.9375 L 14.3125 11.96875 L 23 5 L 19.96875 5 L 12.75 10.6875 L 8.9375 7.625 C 8.9817758 7.4214924 9 7.2159075 9 7 C 9 5.3549904 7.6450096 4 6 4 z M 6 6 C 6.5641294 6 7 6.4358706 7 7 C 7 7.5641294 6.5641294 8 6 8 C 5.4358706 8 5 7.5641294 5 7 C 5 6.8589677 5.0128226 6.7139436 5.0625 6.59375 C 5.2115322 6.2331693 5.576903 6 6 6 z M 18 11 L 17 12 L 18 13 L 20 13 L 20 11 L 18 11 z M 22 11 L 22 13 L 24 13 L 24 11 L 22 11 z M 26 11 L 26 13 L 27 13 L 27 14 L 29 14 L 29 13 L 29 11 L 27 11 L 26 11 z M 6 16 C 6.5641291 16 7 16.435871 7 17 C 7 17.564129 6.5641291 18 6 18 C 5.4358709 18 5 17.564129 5 17 C 5 16.858968 5.0128226 16.713944 5.0625 16.59375 C 5.2115322 16.233169 5.5769032 16 6 16 z M 27 16 L 27 18 L 29 18 L 29 16 L 27 16 z M 27 20 L 27 22 L 29 22 L 29 20 L 27 20 z M 5 21 L 5 22 L 7 22 L 7 21 L 5 21 z M 5 24 L 5 27 L 7 27 L 8 27 L 8 25 L 7 25 L 7 24 L 5 24 z M 27 24 L 27 25 L 26 25 L 26 27 L 29 27 L 29 25 L 29 24 L 27 24 z M 10 25 L 10 27 L 12 27 L 12 25 L 10 25 z M 14 25 L 14 27 L 16 27 L 16 25 L 14 25 z M 18 25 L 18 27 L 20 27 L 20 25 L 18 25 z M 22 25 L 22 27 L 24 27 L 24 25 L 22 25 z" fill="#000000"/></svg>
