<?xml version="1.0" encoding="utf-8"?>
<svg xmlns="http://www.w3.org/2000/svg" viewBox="0 0 32 32" fill="#000000"><path style="text-indent:0;text-align:start;line-height:normal;text-transform:none;block-progression:tb;-inkscape-font-specification:Bitstream Vera Sans" d="M 3.71875 2.28125 L 2.28125 3.71875 L 28.28125 29.71875 L 29.71875 28.28125 L 25.8125 24.375 C 26.529641 23.826271 27 22.970509 27 22 L 27 12 C 27 10.346 25.654 9 24 9 L 20 9 L 20 8 C 20 6.9069372 19.093063 6 18 6 L 14 6 C 12.906937 6 12 6.9069372 12 8 L 12 9 L 10.4375 9 L 3.71875 2.28125 z M 14 8 L 18 8 L 18 9 L 14 9 L 14 8 z M 5.8125 9.96875 C 5.3195 10.50375 5 11.217 5 12 L 5 22 C 5 23.654 6.346 25 8 25 L 20.8125 25 L 18.8125 23 L 12 23 L 12 16.1875 L 10 14.1875 L 10 23 L 8 23 C 7.448 23 7 22.552 7 22 L 7 12 C 7 11.769 7.08675 11.57525 7.21875 11.40625 L 5.8125 9.96875 z M 12.4375 11 L 24 11 C 24.552 11 25 11.448 25 12 L 25 22 C 25 22.414 24.733875 22.754375 24.375 22.90625 L 22 20.5625 L 22 12 L 20 12 L 20 18.5625 L 12.4375 11 z" overflow="visible" font-family="Bitstream Vera Sans" fill="#000000"/></svg>
