<?xml version="1.0" encoding="utf-8"?>
<svg xmlns="http://www.w3.org/2000/svg" viewBox="0 0 32 32" fill="#000000"><path style="text-indent:0;text-align:start;line-height:normal;text-transform:none;block-progression:tb;-inkscape-font-specification:Bitstream Vera Sans" d="M 27.5 8 L 27.21875 8.375 L 23.65625 13 L 21.40625 13 L 19 13 L 19 11 L 17 11 L 17 13 L 16 13 L 16 11 L 14 11 L 14 13 L 13 13 L 13 11 L 11 11 L 11 13.09375 C 8.7272823 13.562098 7 15.594174 7 18 C 7 20.749516 9.2504839 23 12 23 L 16.5 23 C 18.421188 23 20 21.421188 20 19.5 C 20 18.954587 19.8512 18.461935 19.625 18 L 23.65625 18 L 27.21875 22.625 L 27.5 23 L 28 23 L 29 23 L 30 23 L 30 22 L 30 9 L 30 8 L 29 8 L 28 8 L 27.5 8 z M 28 10.65625 L 28 20.34375 L 24.9375 16.375 L 24.65625 16 L 24.15625 16 L 16.5 16 L 12 16 C 10.897 16 10 16.897 10 18 L 13 18 L 16.5 18 C 17.340812 18 18 18.659188 18 19.5 C 18 20.340812 17.340812 21 16.5 21 L 12 21 C 10.331516 21 9 19.668484 9 18 C 9 16.331516 10.331516 15 12 15 L 12.15625 15 L 21.40625 15 L 24.15625 15 L 24.65625 15 L 24.9375 14.625 L 28 10.65625 z M 2 14 L 2 18 L 4 18 L 4 17 L 6.09375 17 C 6.21575 16.282 6.4595 15.608 6.8125 15 L 4 15 L 4 14 L 2 14 z" fill="#000000"/></svg>
