<?xml version="1.0" encoding="utf-8"?>
<svg xmlns="http://www.w3.org/2000/svg" viewBox="0 0 32 32" fill="#000000"><path style="line-height:normal;text-indent:0;text-align:start;text-decoration-line:none;text-decoration-style:solid;text-decoration-color:#000;text-transform:none;block-progression:tb;isolation:auto;mix-blend-mode:normal" d="M 24.447266 6.1054688 L 23.552734 7.8945312 C 23.552734 7.8945312 23.840642 8.0273646 24.21875 8.5 C 24.483602 8.8310655 24.754225 9.310812 24.896484 10 L 19.40625 10 C 19.55425 10.611 19.675578 11.278 19.767578 12 L 24.882812 12 C 24.710736 12.866675 24.360127 13.925643 23.957031 15 L 19.984375 15 C 19.992375 15.328 20 15.656 20 16 C 20 16.344 19.992375 16.672 19.984375 17 L 23.169922 17 C 22.728767 18.055624 22.301345 19.072341 22.113281 20 L 19.767578 20 C 19.675578 20.722 19.55525 21.389 19.40625 22 L 22.076172 22 C 22.252267 23.212582 22.725099 24.132936 23.21875 24.75 C 23.840642 25.527365 24.552734 25.894531 24.552734 25.894531 L 25.447266 24.105469 C 25.447266 24.105469 25.159358 23.972635 24.78125 23.5 C 24.516398 23.168935 24.245775 22.689188 24.103516 22 L 29 22 L 29 20 L 24.240234 20 C 24.479749 19.222271 24.881263 18.137791 25.332031 17 L 29 17 L 29 15 L 26.099609 15 C 26.468788 13.993726 26.783233 12.980395 26.919922 12 L 29 12 L 29 10 L 26.923828 10 C 26.747733 8.7874182 26.274901 7.867064 25.78125 7.25 C 25.159358 6.4726354 24.447266 6.1054688 24.447266 6.1054688 z M 14.539062 7 C 12.153239 7 9.3926772 7.8975369 7.1191406 9.4316406 C 4.8456041 10.965744 3 13.22737 3 16 C 3 18.77263 4.8456041 21.034256 7.1191406 22.568359 C 9.3926772 24.102463 12.153239 25 14.539062 25 C 15.247804 25 15.902963 24.614529 16.337891 24.099609 C 16.772819 23.58469 17.066317 22.940424 17.302734 22.171875 C 17.775569 20.634776 18 18.565723 18 16 C 18 13.434277 17.775569 11.365224 17.302734 9.828125 C 17.066317 9.0595757 16.772819 8.4153099 16.337891 7.9003906 C 15.902963 7.3854713 15.247805 7 14.539062 7 z M 14.539062 9 C 14.600822 9 14.639569 8.9889821 14.810547 9.1914062 C 14.981525 9.3938307 15.204418 9.8106895 15.390625 10.416016 C 15.76304 11.626667 16 13.556723 16 16 C 16 18.443277 15.76304 20.373333 15.390625 21.583984 C 15.204418 22.18931 14.981525 22.606169 14.810547 22.808594 C 14.639569 23.011018 14.600822 23 14.539062 23 C 12.680886 23 10.173245 22.217756 8.2382812 20.912109 C 6.3033179 19.606463 5 17.86837 5 16 C 5 14.13163 6.3033179 12.393537 8.2382812 11.087891 C 10.173245 9.7822439 12.680887 9 14.539062 9 z" font-weight="400" font-family="sans-serif" white-space="normal" overflow="visible" fill="#000000"/></svg>
