<?xml version="1.0" encoding="utf-8"?>
<svg xmlns="http://www.w3.org/2000/svg" viewBox="0 0 32 32" fill="#000000"><path d="M 19.96875 4 C 19.058779 4.694465 18.763013 5.6535253 18.6875 6.40625 C 17.653824 7.3070987 17 8.5678572 17 10 C 17 10.902096 17.295299 11.741415 17.75 12.46875 L 17.65625 12.40625 C 17.27477 13.00263 17 13.721561 17 14.5 C 17 14.936605 17.205079 15.298389 17.34375 15.6875 C 16.732224 16.291649 16.310311 17.024523 16.15625 17.875 C 15.822569 17.978544 15.451146 17.982741 15.15625 18.1875 C 14.935168 18.341006 14.749287 18.564851 14.5625 18.78125 C 14.262222 18.679186 13.947542 18.603086 13.625 18.59375 C 13.194718 18.5813 12.74274 18.65265 12.3125 18.84375 C 11.87009 18.405482 11.354609 18.092478 10.84375 17.96875 C 10.369208 17.853818 10.00348 17.99173 9.59375 18.03125 C 9.4441625 17.683325 9.4199408 17.284914 9.15625 17 C 8.6452829 16.447908 7.8927715 16 7 16 C 5.3550302 16 4 17.35503 4 19 C 4 19.876365 4.4586759 20.577444 5.0625 21.125 C 5.045222 21.254825 5 21.358025 5 21.5 C 5 23.421188 6.5788117 25 8.5 25 C 9.1880206 25.57328 10.030686 26 11 26 C 11.160971 26 11.289981 25.9566 11.4375 25.9375 C 12.136265 26.553492 12.991276 27 14 27 C 14.621243 27 15.160236 26.755272 15.6875 26.5 C 16.248746 26.758782 16.833406 27 17.5 27 C 18.594546 27 19.562762 26.558762 20.34375 25.90625 C 22.690402 25.603601 24.648176 24.062632 24.90625 21.9375 C 26.096353 21.14109 27 19.94975 27 18.5 C 27 18.063395 26.794921 17.701611 26.65625 17.3125 C 27.421261 16.556718 28 15.615934 28 14.5 C 28 13.712266 27.733637 12.996203 27.3125 12.375 C 27.734775 11.671102 28 10.870869 28 10 C 28 8.3546349 27.122571 6.9353578 25.8125 6.03125 C 25.611171 5.3076268 25.11543 4.4158766 24 4 L 24.0625 5.21875 C 23.564672 5.0838607 23.03892 5 22.5 5 C 21.758629 5 21.029632 5.1263374 20.375 5.375 L 19.96875 4 z M 22.5 7 C 24.504517 7 26 8.3991183 26 10 C 26 11.600882 24.504517 13 22.5 13 C 21.435051 13 20.503559 12.583562 19.875 11.96875 C 19.319504 11.424731 19 10.750929 19 10 C 19 8.3991183 20.495483 7 22.5 7 z M 21 8 C 20.447715 8 20 8.4477153 20 9 C 20 9.5522847 20.447715 10 21 10 C 21.552285 10 22 9.5522847 22 9 C 22 8.4477153 21.552285 8 21 8 z M 24 8 C 23.447715 8 23 8.4477153 23 9 C 23 9.5522847 23.447715 10 24 10 C 24.552285 10 25 9.5522847 25 9 C 25 8.4477153 24.552285 8 24 8 z M 19.09375 13.90625 C 20.040649 14.588225 21.220271 15 22.5 15 C 23.764751 15 24.930215 14.58022 25.875 13.90625 C 25.947334 14.099363 26 14.295872 26 14.5 C 26 15.13813 25.671118 15.757847 25 16.25 L 24.25 16.78125 L 24.71875 17.5625 C 24.906824 17.879518 25 18.177127 25 18.5 C 25 19.278764 24.490321 20.033895 23.53125 20.53125 L 22.96875 20.8125 L 23 21.4375 C 23.0082 21.674611 23 21.692222 23 21.5 C 23 22.653224 21.773503 23.810452 19.90625 23.96875 L 19.53125 24 L 19.28125 24.25 C 18.824863 24.709981 18.200304 25 17.5 25 C 17.028902 25 16.607677 24.862759 16.21875 24.625 L 15.65625 24.28125 L 15.125 24.65625 C 14.80307 24.875778 14.421527 25 14 25 C 13.380908 25 12.842944 24.731644 12.46875 24.28125 L 12.0625 23.78125 L 11.46875 23.9375 C 11.296725 23.979364 11.141491 24 11 24 C 10.401774 24 9.874404 23.737278 9.5 23.3125 L 9.15625 22.9375 L 8.65625 22.96875 C 8.5068452 22.984385 8.4592121 23 8.5 23 C 7.6591883 23 7 22.340812 7 21.5 C 7 21.378 7.012284 21.230133 7.0625 21.0625 L 7.3125 20.25 L 6.5625 19.875 C 6.2279839 19.709011 6 19.398383 6 19 C 6 18.43497 6.4349698 18 7 18 C 7.2122285 18 7.4747171 18.113842 7.6875 18.34375 C 7.9002829 18.573658 8 18.906125 8 19 L 8 20.5625 L 9.40625 19.90625 C 9.4029 19.90775 9.972188 19.80869 10.375 19.90625 C 10.777812 20.00381 11.026964 20.137421 11.15625 20.53125 L 11.71875 22.25 L 12.875 20.84375 C 13.038787 20.647248 13.268286 20.553984 13.5625 20.5625 C 13.856714 20.571 14.12895 20.755337 14.125 20.75 L 15.53125 22.6875 L 15.90625 20.3125 C 15.92333 20.20268 16.038645 19.980951 16.28125 19.8125 C 16.523855 19.644049 16.862135 19.588516 16.9375 19.59375 L 18.0625 19.65625 L 18 18.5625 C 17.9918 18.325389 18 18.307778 18 18.5 C 18 17.86187 18.328882 17.242153 19 16.75 L 19.75 16.21875 L 19.28125 15.4375 C 19.093176 15.120482 19 14.822873 19 14.5 C 19 14.300508 19.022677 14.100253 19.09375 13.90625 z" fill="#000000"/></svg>
