<?xml version="1.0" encoding="utf-8"?>
<svg xmlns="http://www.w3.org/2000/svg" viewBox="0 0 32 32" fill="#000000"><path style="text-indent:0;text-align:start;line-height:normal;text-transform:none;block-progression:tb;-inkscape-font-specification:Bitstream Vera Sans" d="M 13.21875 5 L 13.03125 5.75 L 10.03125 17.75 L 9.71875 19 L 11 19 L 14.3125 19 L 12.15625 26.71875 L 11.8125 28 L 13.125 28 L 15.375 28 L 15.96875 28 L 16.25 27.46875 L 23.25 14.46875 L 24.03125 13 L 22.375 13 L 18.625 13 L 20.625 6.28125 L 21 5 L 19.65625 5 L 14 5 L 13.21875 5 z M 14.78125 7 L 18.34375 7 L 16.34375 13.71875 L 15.96875 15 L 17.3125 15 L 20.6875 15 L 14.75 26 L 14.46875 26 L 16.625 18.28125 L 16.96875 17 L 15.65625 17 L 12.28125 17 L 14.78125 7 z" overflow="visible" font-family="Bitstream Vera Sans" fill="#000000"/></svg>
