<?xml version="1.0" encoding="utf-8"?>
<svg xmlns="http://www.w3.org/2000/svg" viewBox="0 0 32 32" fill="#000000"><path style="line-height:normal;text-indent:0;text-align:start;text-decoration-line:none;text-decoration-style:solid;text-decoration-color:#000;text-transform:none;block-progression:tb;isolation:auto;mix-blend-mode:normal" d="M 14 4 C 12.35499 4 11 5.3549904 11 7 C 11 8.6450096 12.35499 10 14 10 C 15.64501 10 17 8.6450096 17 7 C 17 5.3549904 15.64501 4 14 4 z M 14 6 C 14.564129 6 15 6.4358706 15 7 C 15 7.5641294 14.564129 8 14 8 C 13.435871 8 13 7.5641294 13 7 C 13 6.4358706 13.435871 6 14 6 z M 4.9316406 8.0898438 L 4.9316406 10.642578 L 10.578125 15.111328 L 10.035156 12.886719 L 10.017578 12.816406 L 10.011719 12.744141 C 9.9917188 12.538141 10.004156 12.333812 10.035156 12.132812 L 4.9316406 8.0898438 z M 25.164062 9.546875 L 22.109375 15.546875 L 23.890625 16.453125 L 26.947266 10.453125 L 25.164062 9.546875 z M 12.507812 11 C 12.083813 11 11.677578 11.179187 11.392578 11.492188 C 11.107578 11.805188 10.967812 12.227437 11.007812 12.648438 L 12.626953 19.294922 C 12.638953 19.346922 12.660828 19.394313 12.673828 19.445312 L 14.242188 17.490234 L 13.140625 13 L 14.935547 13 L 17.322266 14.550781 C 17.886266 15.046781 18.679078 15.191547 19.330078 14.935547 L 22.544922 13.902344 L 21.933594 11.998047 L 18.644531 13.048828 L 16.257812 11.5 C 15.924812 11.207 15.496234 11.031 14.990234 11 L 12.507812 11 z M 16.023438 16.871094 L 14.542969 18.714844 L 13.134766 20.470703 L 8.6933594 26 L 11.248047 26 L 14.658203 21.726562 C 15.071619 21.900602 15.524274 22 16 22 L 19.722656 22 C 20.131656 22 20.506969 22.248094 20.667969 22.621094 L 22.027344 28.236328 L 23.970703 27.763672 L 22.59375 22.080078 L 22.558594 21.964844 C 22.116594 20.789844 20.977656 20 19.722656 20 L 16.037109 20 L 17.560547 18.089844 L 16.023438 16.871094 z" font-weight="400" font-family="sans-serif" white-space="normal" overflow="visible" fill="#000000"/></svg>
