<?xml version="1.0" encoding="utf-8"?>
<svg xmlns="http://www.w3.org/2000/svg" viewBox="0 0 32 32" fill="#000000"><path style="text-indent:0;text-align:start;line-height:normal;text-transform:none;block-progression:tb;-inkscape-font-specification:Sans" d="M 14 3 C 13.447715 3 13 3.4477153 13 4 C 13 4.5522847 13.447715 5 14 5 C 14.552285 5 15 4.5522847 15 4 C 15 3.4477153 14.552285 3 14 3 z M 14 5 L 9 5 C 7.1622646 5 5.6090816 6.2896868 5.15625 8 L 4.5 8 L 2.875 8 L 3.625 9.4375 L 5 12.21875 L 5 26 C 5 27.093063 5.9069372 28 7 28 L 21 28 C 22.093063 28 23 27.093063 23 26 L 23 24 L 24 24 C 26.197334 24 28 22.197334 28 20 L 28 15 C 28 12.802666 26.197334 11 24 11 L 23 11 L 23 9 C 23 6.8177482 21.182252 5 19 5 L 14 5 z M 9 7 L 19 7 C 19.639333 7 20.1538 7.4506741 20.53125 8 L 7.46875 8 C 7.8462004 7.4506741 8.3606666 7 9 7 z M 6.125 10 L 13 10 L 13 20 L 8 20 L 8 22 L 20 22 L 20 20 L 15 20 L 15 10 L 21 10 L 21 26 L 7 26 L 7 11.9375 L 7 11.6875 L 6.90625 11.5 L 6.125 10 z M 23 13 L 24 13 C 25.116666 13 26 13.883334 26 15 L 26 20 C 26 21.116666 25.116666 22 24 22 L 23 22 L 23 13 z" overflow="visible" font-family="Sans" fill="#000000"/></svg>
