<?xml version="1.0" encoding="utf-8"?>
<svg xmlns="http://www.w3.org/2000/svg" viewBox="0 0 32 32" fill="#000000"><path style="text-indent:0;text-align:start;line-height:normal;text-transform:none;block-progression:tb;-inkscape-font-specification:Bitstream Vera Sans" d="M 18.71875 7.28125 L 17.28125 8.71875 L 20.5625 12 L 13 12 L 13 9 L 11 9 L 11 12 L 7 12 L 6.90625 12 L 6.84375 12 L 2.5 12.75 C 1.0602467 12.990457 0 14.228071 0 15.6875 L 0 20 C 0 21.093063 0.9069372 22 2 22 L 3.15625 22 C 3.6033156 23.719842 5.1468019 25 7 25 C 8.8531981 25 10.396684 23.719842 10.84375 22 L 21.15625 22 C 21.603316 23.719842 23.146802 25 25 25 C 26.853198 25 28.396684 23.719842 28.84375 22 L 30 22 C 31.093063 22 32 21.093063 32 20 L 32 16.5625 C 32 15.190615 31.049459 13.98818 29.71875 13.65625 L 23.53125 12.09375 L 18.71875 7.28125 z M 7.15625 14 L 22.875 14 L 29.25 15.59375 C 29.699291 15.70582 30 16.098385 30 16.5625 L 30 20 L 28.84375 20 C 28.396684 18.280158 26.853198 17 25 17 C 23.146802 17 21.603316 18.280158 21.15625 20 L 10.84375 20 C 10.396684 18.280158 8.8531981 17 7 17 C 5.1468019 17 3.6033156 18.280158 3.15625 20 L 2 20 L 2 15.6875 C 2 15.192929 2.3555033 14.800293 2.84375 14.71875 L 7.15625 14 z M 7 19 C 8.116414 19 9 19.883586 9 21 C 9 22.116414 8.116414 23 7 23 C 5.883586 23 5 22.116414 5 21 C 5 19.883586 5.883586 19 7 19 z M 25 19 C 26.116414 19 27 19.883586 27 21 C 27 22.116414 26.116414 23 25 23 C 23.883586 23 23 22.116414 23 21 C 23 19.883586 23.883586 19 25 19 z" overflow="visible" font-family="Bitstream Vera Sans" fill="#000000"/></svg>
