<?xml version="1.0" encoding="utf-8"?>
<svg xmlns="http://www.w3.org/2000/svg" viewBox="0 0 32 32" fill="#000000"><path style="text-indent:0;text-align:start;line-height:normal;text-transform:none;block-progression:tb;-inkscape-font-specification:Bitstream Vera Sans" d="M 19.125 3.125 C 19.125 3.125 17.550976 3.8775639 16.84375 5.5 C 16.280663 5.6611178 15.088124 6.0570037 13.65625 7.21875 C 12.040326 8.5298243 10.444043 10.759402 10.09375 14.15625 C 9.7801242 14.069431 9.4306663 14 9 14 C 8.0303208 14 6.7881581 14.242917 5.75 15.15625 C 4.7118419 16.069583 4 17.616665 4 19.8125 C 4 23.790867 7.2824446 27 11 27 C 12.850203 27 14.680026 26.138426 16 24.75 C 18.316613 27.173167 22.086355 27.729249 24.84375 26 C 27.857612 24.109497 29.103568 19.589572 26.96875 16.1875 C 25.771505 14.279198 24.169958 13.416281 22.78125 13.25 C 21.392542 13.083719 20.28524 13.492126 19.625 13.90625 C 19.363266 14.070418 19.151678 14.253918 18.96875 14.4375 C 18.171644 12.489973 17.69374 9.8884195 18.53125 6.5625 C 18.730575 5.7482117 20.0625 4.875 20.0625 4.875 L 19.125 3.125 z M 20.59375 6.3125 C 20.59375 6.3125 18.72575 8.0275 19.96875 10.1875 C 21.08175 11.2055 22.963 11.07125 24 10.78125 C 24 10.78125 23.58775 8.547 22.34375 7.5 C 21.04475 6.407 20.59375 6.3125 20.59375 6.3125 z M 16.25 7.9375 C 15.83208 11.065977 16.424859 13.646681 17.28125 15.59375 C 17.10438 15.647837 16.919702 15.718582 16.71875 15.8125 C 16.506589 15.553296 16.270645 15.318392 16.03125 15.125 C 14.943327 14.246137 13.779788 14 13 14 C 12.668749 14 12.360771 14.037293 12.09375 14.09375 C 12.423446 11.379923 13.659917 9.7924581 14.90625 8.78125 C 15.379005 8.3976816 15.831799 8.1579234 16.25 7.9375 z M 21.96875 15.25 C 22.164857 15.231036 22.355864 15.225258 22.5625 15.25 C 23.389042 15.34897 24.312245 15.755302 25.25 17.25 C 26.747182 19.635928 25.725388 23.093003 23.78125 24.3125 C 21.797621 25.556496 18.828086 25.078327 17.1875 23.09375 C 17.705277 22.112709 18 21.002705 18 19.8125 C 18 18.967929 17.868454 18.212351 17.65625 17.5625 C 17.807255 17.501176 17.961203 17.468794 18.125 17.4375 C 18.409524 17.38314 18.729949 17.41973 19.25 17.09375 C 19.770265 16.766683 19.863819 16.477346 20.03125 16.25 C 20.198681 16.022654 20.373131 15.822182 20.6875 15.625 C 20.86432 15.514093 21.38043 15.306893 21.96875 15.25 z M 9 16 C 9.3518729 16 9.6050421 16.08238 9.875 16.1875 C 10.144958 16.292624 10.385459 16.5 11 16.5 C 11.614541 16.5 11.862262 16.291022 12.125 16.1875 C 12.387738 16.083978 12.62853 16 13 16 C 13.278212 16 14.133673 16.164363 14.78125 16.6875 C 15.428827 17.210637 16 18.04869 16 19.8125 C 16 22.630929 13.294877 25 11 25 C 8.4635554 25 6 22.670133 6 19.8125 C 6 18.018335 6.4996581 17.151417 7.0625 16.65625 C 7.6253419 16.161083 8.3736792 16 9 16 z" overflow="visible" font-family="Bitstream Vera Sans" fill="#000000"/></svg>
