<?xml version="1.0" encoding="utf-8"?>
<svg xmlns="http://www.w3.org/2000/svg" viewBox="0 0 32 32" fill="#000000"><path style="text-indent:0;text-align:start;line-height:normal;text-transform:none;block-progression:tb;-inkscape-font-specification:Sans" d="M 11.5 4 C 10.602096 3.9998979 9.7104184 4.3513857 9.03125 5.03125 C 7.6737868 6.3901041 7.6715215 8.6104132 9.03125 9.96875 C 9.4887061 10.425738 10.017031 10.680469 10.6875 11 L 6 11 L 5 11 L 5 12 L 5 28 L 5 29 L 6 29 L 26 29 L 27 29 L 27 28 L 27 12 L 27 11 L 26 11 L 21.3125 11 C 21.983019 10.680372 22.511206 10.426763 22.96875 9.96875 C 24.326213 8.6098959 24.328479 6.3895868 22.96875 5.03125 C 22.289323 4.3525184 21.397904 4.0001021 20.5 4 C 19.602096 3.9998979 18.710418 4.3513857 18.03125 5.03125 C 17.574262 5.4887061 17.319531 6.0170315 17 6.6875 C 16.680469 7.3579685 16.348412 8.1386241 16.0625 8.875 C 16.039553 8.9341 16.022466 8.9726564 16 9.03125 C 15.977538 8.9726497 15.960443 8.9341079 15.9375 8.875 C 15.651638 8.1385259 15.319628 7.3580191 15 6.6875 C 14.680372 6.0169809 14.426763 5.4887937 13.96875 5.03125 C 13.289323 4.3525184 12.397904 4.0001021 11.5 4 z M 11.5 6 C 11.881846 6.0001479 12.264927 6.1402316 12.5625 6.4375 C 12.59299 6.467956 12.934534 6.9662691 13.21875 7.5625 C 13.502966 8.1587309 13.787487 8.8852241 14.0625 9.59375 C 14.214585 9.9855707 14.216276 9.9944063 14.34375 10.34375 C 13.994437 10.216226 13.985556 10.214626 13.59375 10.0625 C 12.885251 9.7874119 12.158875 9.5029694 11.5625 9.21875 C 10.966125 8.9345306 10.468544 8.5935122 10.4375 8.5625 C 9.8432285 7.9688368 9.8429632 7.0326459 10.4375 6.4375 C 10.734332 6.1403643 11.118154 5.9998521 11.5 6 z M 20.5 6 C 20.881846 6.0001479 21.264927 6.1402316 21.5625 6.4375 C 22.156771 7.0311632 22.157037 7.9673541 21.5625 8.5625 C 21.53204 8.592987 21.033731 8.9345343 20.4375 9.21875 C 19.841269 9.5029657 19.114776 9.7874865 18.40625 10.0625 C 18.014429 10.214585 18.005594 10.216276 17.65625 10.34375 C 17.783774 9.9944366 17.785374 9.9855558 17.9375 9.59375 C 18.212588 8.8852509 18.497031 8.1588752 18.78125 7.5625 C 19.065469 6.9661248 19.406488 6.4685439 19.4375 6.4375 C 19.734332 6.1403643 20.118154 5.9998521 20.5 6 z M 7 13 L 25 13 L 25 27 L 7 27 L 7 13 z M 13.5 16 C 12.119 16 11 17.119 11 18.5 C 11 21.002 16 24 16 24 C 16 24 21 21.002 21 18.5 C 21 17.119 19.881 16 18.5 16 C 17.119 16 16 17.119 16 18.5 C 16 17.119 14.881 16 13.5 16 z" overflow="visible" font-family="Sans" fill="#000000"/></svg>
