<?xml version="1.0" encoding="utf-8"?>
<svg xmlns="http://www.w3.org/2000/svg" viewBox="0 0 32 32" fill="#000000"><path style="text-indent:0;text-align:start;line-height:normal;text-transform:none;block-progression:tb;-inkscape-font-specification:Sans" d="M 7 6 C 5.9069372 6 5 6.9069372 5 8 L 5 13.34375 C 4.7881028 13.45463 4.5718852 13.586194 4.34375 13.78125 C 3.654945 14.370178 3 15.451602 3 17 L 3 19.40625 C 2.3895853 20.109148 2 21.003276 2 22 C 2 24.197334 3.8026661 26 6 26 L 18 26 C 19.853231 26 21.396692 24.719857 21.84375 23 L 24 23 L 24 26 L 30 26 L 30 24.34375 L 29.53125 24.0625 C 29.49625 24.0405 26 21.751 26 15 L 24 15 L 24 21 L 23 21 L 23 15 C 23 13.906937 22.093063 13 21 13 L 20 13 L 20 11 L 18 11 L 18 13 L 15 13 L 15 8 C 15 6.9069372 14.093063 6 13 6 L 7 6 z M 7 8 L 13 8 L 13 14 L 7 14 L 7 8 z M 14.71875 15 L 21 15 L 21 19.40625 C 20.273009 18.545804 19.212389 18 18 18 L 6 18 C 5.6558975 18 5.3193379 18.073242 5 18.15625 L 5 17 C 5 16.071102 5.2795978 15.646439 5.5625 15.375 C 5.9281936 15.757182 6.4374496 16 7 16 L 13 16 C 13.7319 16 14.370139 15.59685 14.71875 15 z M 6 20 L 18 20 C 19.030453 20 19.846459 20.75637 19.96875 21.75 A 1.001098 1.001098 0 0 0 19.96875 21.78125 A 1.001098 1.001098 0 0 0 19.96875 22.1875 A 1.001098 1.001098 0 0 0 19.96875 22.21875 C 19.860098 23.227671 19.041127 24 18 24 L 6 24 C 4.8833339 24 4 23.116666 4 22 C 4 20.883334 4.8833339 20 6 20 z M 6 21 C 5.4477153 21 5 21.447715 5 22 C 5 22.552285 5.4477153 23 6 23 C 6.5522847 23 7 22.552285 7 22 C 7 21.447715 6.5522847 21 6 21 z M 10 21 C 9.4477153 21 9 21.447715 9 22 C 9 22.552285 9.4477153 23 10 23 C 10.552285 23 11 22.552285 11 22 C 11 21.447715 10.552285 21 10 21 z M 14 21 C 13.447715 21 13 21.447715 13 22 C 13 22.552285 13.447715 23 14 23 C 14.552285 23 15 22.552285 15 22 C 15 21.447715 14.552285 21 14 21 z M 18 21 C 17.447715 21 17 21.447715 17 22 C 17 22.552285 17.447715 23 18 23 C 18.552285 23 19 22.552285 19 22 C 19 21.447715 18.552285 21 18 21 z M 26 23 C 26.226 23.371 26.4645 23.71 26.6875 24 L 26 24 L 26 23 z" fill="#000000"/></svg>
