<?xml version="1.0" encoding="utf-8"?>
<svg xmlns="http://www.w3.org/2000/svg" viewBox="0 0 32 32" fill="#000000"><path style="text-indent:0;text-align:start;line-height:normal;text-transform:none;block-progression:tb;-inkscape-font-specification:Bitstream Vera Sans" d="M 9 5 C 5.6983746 5 3 7.6983746 3 11 C 3 11.992073 3.3822917 13.003547 3.875 14.125 C 4.3677083 15.246453 4.9883732 16.433769 5.625 17.53125 C 6.8982535 19.726212 8.1875 21.5625 8.1875 21.5625 L 9 22.75 L 9.8125 21.5625 C 9.8125 21.5625 11.101746 19.726212 12.375 17.53125 C 13.011627 16.433769 13.632292 15.246453 14.125 14.125 C 14.617708 13.003547 15 11.992073 15 11 C 15 7.6983746 12.301625 5 9 5 z M 9 7 C 11.220375 7 13 8.7796254 13 11 C 13 11.388427 12.757292 12.30011 12.3125 13.3125 C 11.867708 14.32489 11.238373 15.473856 10.625 16.53125 C 9.8095236 17.93705 9.456405 18.438627 9 19.125 C 8.543595 18.438627 8.1904764 17.93705 7.375 16.53125 C 6.7616268 15.473856 6.1322917 14.32489 5.6875 13.3125 C 5.2427083 12.30011 5 11.388427 5 11 C 5 8.7796254 6.7796254 7 9 7 z M 9 9.5 C 8.1715729 9.5 7.5 10.171573 7.5 11 C 7.5 11.828427 8.1715729 12.5 9 12.5 C 9.8284271 12.5 10.5 11.828427 10.5 11 C 10.5 10.171573 9.8284271 9.5 9 9.5 z M 23 10 C 19.698375 10 17 12.698375 17 16 C 17 16.992073 17.382292 18.003547 17.875 19.125 C 18.367708 20.246453 18.988373 21.433769 19.625 22.53125 C 20.898254 24.726212 22.1875 26.5625 22.1875 26.5625 L 23 27.75 L 23.8125 26.5625 C 23.8125 26.5625 25.101746 24.726212 26.375 22.53125 C 27.011627 21.433769 27.632292 20.246453 28.125 19.125 C 28.617708 18.003547 29 16.992073 29 16 C 29 12.698375 26.301625 10 23 10 z M 23 12 C 25.220375 12 27 13.779625 27 16 C 27 16.388427 26.757292 17.30011 26.3125 18.3125 C 25.867708 19.32489 25.238373 20.473856 24.625 21.53125 C 23.809524 22.93705 23.456405 23.438627 23 24.125 C 22.543595 23.438627 22.190476 22.93705 21.375 21.53125 C 20.761627 20.473856 20.132292 19.32489 19.6875 18.3125 C 19.242708 17.30011 19 16.388427 19 16 C 19 13.779625 20.779625 12 23 12 z M 23 14.5 C 22.171573 14.5 21.5 15.171573 21.5 16 C 21.5 16.828427 22.171573 17.5 23 17.5 C 23.828427 17.5 24.5 16.828427 24.5 16 C 24.5 15.171573 23.828427 14.5 23 14.5 z" overflow="visible" font-family="Bitstream Vera Sans" fill="#000000"/></svg>
