<?xml version="1.0" encoding="utf-8"?>
<svg xmlns="http://www.w3.org/2000/svg" viewBox="0 0 32 32" fill="#000000"><path style="text-indent:0;text-align:start;line-height:normal;text-transform:none;block-progression:tb;-inkscape-font-specification:Sans" d="M 11 6 C 5.4889972 6 1 10.488997 1 16 C 1 21.511003 5.4889972 26 11 26 C 12.825695 26 14.524681 25.484262 16 24.625 C 17.475319 25.484262 19.174305 26 21 26 C 26.511003 26 31 21.511003 31 16 C 31 10.488997 26.511003 6 21 6 C 19.174305 6 17.475319 6.5157375 16 7.375 C 14.524681 6.5157375 12.825695 6 11 6 z M 11 8 C 12.147805 8 13.233565 8.2553485 14.21875 8.6875 C 12.251367 10.515289 11 13.11134 11 16 C 11 18.88866 12.251367 21.484711 14.21875 23.3125 C 13.233565 23.744651 12.147805 24 11 24 C 6.5698774 24 3 20.430123 3 16 C 3 11.569877 6.5698774 8 11 8 z M 16 9.75 C 17.827411 11.214061 19 13.467174 19 16 C 19 18.532826 17.827411 20.785939 16 22.25 C 14.172589 20.785939 13 18.532826 13 16 C 13 13.467174 14.172589 11.214061 16 9.75 z" overflow="visible" font-family="Sans" fill="#000000"/></svg>
