<?xml version="1.0" encoding="utf-8"?>
<svg xmlns="http://www.w3.org/2000/svg" viewBox="0 0 32 32" fill="#000000"><path style="text-indent:0;text-align:start;line-height:normal;text-transform:none;block-progression:tb;-inkscape-font-specification:Sans" d="M 2 8 L 2 9 L 2 23 L 2 24 L 3 24 L 30 24 L 31 24 L 31 23 L 31 9 L 31 8 L 30 8 L 3 8 L 2 8 z M 4 10 L 11 10 L 11 22 L 4 22 L 4 10 z M 13 10 L 20 10 L 20 22 L 13 22 L 13 10 z M 22 10 L 29 10 L 29 22 L 22 22 L 22 10 z M 23 11 L 23 12.5 C 23 13.878 24.122 15 25.5 15 C 26.878 15 28 13.878 28 12.5 C 28 11.935 27.818 11.419 27.5 11 L 23 11 z M 7.5 12 C 6.1309372 12 5 13.130937 5 14.5 L 5 17.5 C 5 18.869063 6.1309372 20 7.5 20 C 8.8690628 20 10 18.869063 10 17.5 L 10 14.5 C 10 13.130937 8.8690628 12 7.5 12 z M 16.5 12 C 15.130937 12 14 13.130937 14 14.5 L 14 17.5 C 14 18.869063 15.130937 20 16.5 20 C 17.869063 20 19 18.869063 19 17.5 L 19 14.5 C 19 13.130937 17.869063 12 16.5 12 z M 25.5 12 C 25.776 12 26 12.224 26 12.5 C 26 12.776 25.776 13 25.5 13 C 25.224 13 25 12.776 25 12.5 C 25 12.224 25.224 12 25.5 12 z M 7.5 14 C 7.7869372 14 8 14.213063 8 14.5 L 8 17.5 C 8 17.786937 7.7869372 18 7.5 18 C 7.2130628 18 7 17.786937 7 17.5 L 7 14.5 C 7 14.213063 7.2130628 14 7.5 14 z M 16.5 14 C 16.786937 14 17 14.213063 17 14.5 L 17 17.5 C 17 17.786937 16.786937 18 16.5 18 C 16.213063 18 16 17.786937 16 17.5 L 16 14.5 C 16 14.213063 16.213063 14 16.5 14 z M 23 16 L 23 18 L 25.5625 18 C 25.1945 18.72 24.73225 19.769 24.40625 21 L 26.5 21 C 27.039 19.282 27.83175 18.0815 27.84375 18.0625 L 28 17.8125 L 28 16 L 23 16 z" overflow="visible" font-family="Sans" fill="#000000"/></svg>
