<?xml version="1.0" encoding="utf-8"?>
<svg xmlns="http://www.w3.org/2000/svg" viewBox="0 0 32 32" fill="#000000"><path d="M 14.75 3 C 13.783 3 13 3.794 13 4.75 C 13 5.342 13.59375 5.90625 13.59375 5.90625 L 16.5 8.84375 L 19.40625 5.90625 C 19.40625 5.90625 20 5.343 20 4.75 C 20 3.795 19.217 3 18.25 3 C 17.283 3 16.5 3.875 16.5 3.875 C 16.5 3.875 15.717 3 14.75 3 z M 10 9 C 7.4142012 9 4.6796087 9.3276278 2.8125 11.78125 C 0.94539131 14.234872 0 18.431137 0 26 L 0 27 L 1 27 L 6.15625 27 C 6.9483229 27.614059 7.8962284 28 9 28 C 10.102939 28 11.051512 27.614258 11.84375 27 L 17 27 L 18 27 L 20.15625 27 C 20.948323 27.614059 21.896228 28 23 28 C 24.102939 28 25.051512 27.614258 25.84375 27 L 31 27 L 32 27 L 32 26 C 32 18.860319 31.06447 14.955024 29.65625 12.6875 C 28.424057 10.703416 26.777278 10.236181 25.5625 10.125 L 24.71875 9.28125 L 24.40625 9 L 24 9 C 22.184221 9 20.356279 9.1272057 18.71875 10.09375 C 17.618934 10.742911 16.677893 11.771206 15.9375 13.25 C 15.838704 13.063725 15.760405 12.85521 15.65625 12.6875 C 14.424057 10.703416 12.777278 10.236181 11.5625 10.125 L 10.71875 9.28125 L 10.40625 9 L 10 9 z M 9.59375 11.03125 L 10.28125 11.71875 L 10.59375 12 L 11 12 C 11.919562 12 12.87647 12.04152 13.9375 13.75 C 14.933058 15.353052 15.825888 18.857041 15.9375 25 L 13.53125 25 C 13.583903 24.907436 13.63867 24.812979 13.6875 24.71875 C 14.605275 22.947694 15 20.837009 15 19 L 13 19 C 13 20.530991 12.624975 22.425556 11.90625 23.8125 C 11.187525 25.199444 10.279982 26 9 26 C 7.7216586 26 6.8128707 25.202075 6.09375 23.8125 C 5.3746293 22.422925 5 20.521715 5 19 C 5 18.264857 5.1200213 18.235808 5.625 18.03125 C 6.1299787 17.826692 7.0536527 17.729139 8.0625 17.65625 C 9.0713473 17.58336 10.181912 17.541579 11.1875 17.0625 C 12.193088 16.583421 13 15.446604 13 14 L 11 14 C 11 14.871396 10.806912 15.014454 10.3125 15.25 C 9.8180879 15.485546 8.9286527 15.584639 7.9375 15.65625 C 6.9463473 15.72786 5.8700213 15.75318 4.875 16.15625 C 3.8799787 16.559317 3 17.631143 3 19 C 3 20.829285 3.3951207 22.946075 4.3125 24.71875 C 4.3613093 24.813065 4.4161218 24.907367 4.46875 25 L 2.09375 25 C 2.2049338 18.426717 3.1119107 14.700929 4.40625 13 C 5.6932371 11.308733 7.381017 11.059176 9.59375 11.03125 z M 23.59375 11.03125 L 24.28125 11.71875 L 24.59375 12 L 25 12 C 25.919562 12 26.87647 12.04152 27.9375 13.75 C 28.933058 15.353052 29.825888 18.857041 29.9375 25 L 27.53125 25 C 27.583903 24.907436 27.63867 24.812979 27.6875 24.71875 C 28.605275 22.947694 29 20.837009 29 19 L 27 19 C 27 20.530991 26.624975 22.425556 25.90625 23.8125 C 25.187525 25.199444 24.279982 26 23 26 C 21.721659 26 20.812871 25.202075 20.09375 23.8125 C 19.374629 22.422925 19 20.521715 19 19 C 19 18.264857 19.120021 18.235808 19.625 18.03125 C 20.129979 17.826692 21.053653 17.729139 22.0625 17.65625 C 23.071347 17.58336 24.181912 17.541579 25.1875 17.0625 C 26.193088 16.583421 27 15.446604 27 14 L 25 14 C 25 14.871396 24.806912 15.014454 24.3125 15.25 C 23.818088 15.485546 22.928653 15.584639 21.9375 15.65625 C 20.946347 15.72786 19.870021 15.75318 18.875 16.15625 C 18.253112 16.408167 17.689009 16.910119 17.34375 17.59375 C 17.236197 17.021859 17.162415 16.458937 17.03125 15.96875 C 17.72067 13.586799 18.642269 12.447889 19.71875 11.8125 C 20.743093 11.207886 22.066421 11.055981 23.59375 11.03125 z M 6.96875 19 C 6.4319292 19 6 19.447715 6 20 C 6 20.552285 6.4319292 21 6.96875 21 C 7.5055708 21 7.9375 20.552285 7.9375 20 C 7.9375 19.447715 7.5055708 19 6.96875 19 z M 11 19 C 10.447715 19 10 19.447715 10 20 C 10 20.552285 10.447715 21 11 21 C 11.552285 21 12 20.552285 12 20 C 12 19.447715 11.552285 19 11 19 z M 20.96875 19 C 20.431929 19 20 19.447715 20 20 C 20 20.552285 20.431929 21 20.96875 21 C 21.505571 21 21.9375 20.552285 21.9375 20 C 21.9375 19.447715 21.505571 19 20.96875 19 z M 25 19 C 24.447715 19 24 19.447715 24 20 C 24 20.552285 24.447715 21 25 21 C 25.552285 21 26 20.552285 26 20 C 26 19.447715 25.552285 19 25 19 z M 17.96875 23.96875 C 18.074978 24.222371 18.187071 24.47638 18.3125 24.71875 C 18.361309 24.813065 18.416122 24.907367 18.46875 25 L 18 25 C 17.995352 24.652379 17.978074 24.300206 17.96875 23.96875 z" fill="#000000"/></svg>
