<?xml version="1.0" encoding="utf-8"?>
<svg xmlns="http://www.w3.org/2000/svg" viewBox="0 0 32 32" fill="#000000"><path style="line-height:normal;text-indent:0;text-align:start;text-decoration-line:none;text-decoration-style:solid;text-decoration-color:#000;text-transform:none;block-progression:tb;isolation:auto;mix-blend-mode:normal" d="M 13.236328 3 C 12.102402 3 11.060242 3.6431879 10.552734 4.6582031 L 9.0644531 7.6328125 L 7.3164062 7.0507812 L 6.6835938 8.9492188 L 8.1601562 9.4414062 L 8 9.7636719 L 8 15 L 8 16 C 8 16.552 8.448 17 9 17 L 11 17 L 11.666016 15 L 20.333984 15 L 21 17 L 23 17 C 23.552 17 24 16.552 24 16 L 24 14 L 24 9.7636719 L 23.839844 9.4414062 L 25.316406 8.9492188 L 24.683594 7.0507812 L 22.935547 7.6328125 L 21.447266 4.6582031 C 20.94011 3.6438915 19.898101 3 18.763672 3 L 13.236328 3 z M 13.236328 5 L 18.763672 5 C 19.145243 5 19.487359 5.211046 19.658203 5.5527344 L 20.382812 7 L 11.617188 7 L 12.341797 5.5527344 C 12.512289 5.2117496 12.856255 5 13.236328 5 z M 10.617188 9 L 21.382812 9 L 21.882812 10 L 19 10 L 19 12 L 22 12 L 22 13 L 10 13 L 10 12 L 13 12 L 13 10 L 10.117188 10 L 10.617188 9 z M 8.8847656 18 C 10.712766 18.981 12 20.039 12 21 C 12 21.702 11.257594 22.026734 9.6835938 22.552734 C 8.1285937 23.069734 6 23.779 6 26 C 6 27.101 6.6266094 28.104 7.5996094 29 L 11.115234 29 C 9.2872344 28.019 8 26.961 8 26 C 8 25.298 8.7424063 24.973266 10.316406 24.447266 C 11.871406 23.930266 14 23.221 14 21 C 14 19.899 13.373391 18.896 12.400391 18 L 8.8847656 18 z M 20.884766 18 C 22.712766 18.981 24 20.039 24 21 C 24 21.702 23.257594 22.026734 21.683594 22.552734 C 20.128594 23.069734 18 23.779 18 26 C 18 27.101 18.626609 28.104 19.599609 29 L 23.115234 29 C 21.287234 28.019 20 26.961 20 26 C 20 25.298 20.742406 24.973266 22.316406 24.447266 C 23.871406 23.930266 26 23.221 26 21 C 26 19.899 25.373391 18.896 24.400391 18 L 20.884766 18 z" font-weight="400" font-family="sans-serif" white-space="normal" overflow="visible" fill="#000000"/></svg>
