<?xml version="1.0" encoding="utf-8"?>
<svg xmlns="http://www.w3.org/2000/svg" viewBox="0 0 32 32" fill="#000000"><path style="text-indent:0;text-align:start;line-height:normal;text-transform:none;block-progression:tb;-inkscape-font-specification:Sans" d="M 11.125 2 C 10.544665 1.9734274 9.981549 2.1284767 9.46875 2.4375 C 8.0883236 3.2672166 7.6598899 5.0382225 8.4375 6.4375 L 8.375 6.46875 L 10.75 11.375 L 9.125 16.5 L 6.90625 19.34375 C 5.6284988 20.99617 5.7148054 23.368579 7.09375 24.9375 L 9.46875 27.625 C 10.797234 29.137769 12.705767 30 14.71875 30 L 20 30 C 23.854334 30 27 26.854334 27 23 L 27 14 C 27 12.35503 25.64497 11 24 11 C 23.466433 11 22.967459 11.157469 22.53125 11.40625 C 21.997679 10.562665 21.062474 10 20 10 C 18.937526 10 18.002321 10.562665 17.46875 11.40625 L 17.21875 10.90625 L 18.84375 5.96875 L 18.8125 5.96875 C 19.344728 4.4278091 18.53789 2.7386515 17 2.1875 C 16.250345 1.9177433 15.434215 1.9449962 14.71875 2.28125 C 14.212375 2.5213325 13.793786 2.9022626 13.5 3.375 C 13.08853 2.7433057 12.451988 2.2774127 11.71875 2.09375 C 11.527155 2.0463144 11.318445 2.0088575 11.125 2 z M 15.9375 4 C 16.069453 3.9953754 16.215578 4.0163784 16.34375 4.0625 C 16.871271 4.2515539 17.126863 4.814857 16.9375 5.34375 L 16.9375 5.375 L 15.96875 8.3125 L 14.65625 5.65625 L 15.0625 4.6875 L 15.0625 4.65625 C 15.1547 4.3985943 15.313168 4.2119634 15.5625 4.09375 C 15.687767 4.0348769 15.805548 4.0046246 15.9375 4 z M 10.875 4.03125 C 11.000014 4.0092139 11.116191 3.9981212 11.25 4.03125 C 11.51746 4.098244 11.703572 4.2656871 11.84375 4.5 L 16.96875 14.90625 L 17 14.90625 L 17 15 L 19 15 L 19 13 C 19 12.43497 19.43497 12 20 12 C 20.56503 12 21 12.43497 21 13 L 21 14 L 21 15 L 23 15 L 23 14 C 23 13.43497 23.43497 13 24 13 C 24.56503 13 25 13.43497 25 14 L 25 23 C 25 25.773666 22.773666 28 20 28 L 14.71875 28 C 13.279733 28 11.918266 27.393731 10.96875 26.3125 L 8.59375 23.59375 C 7.8386946 22.734671 7.7997512 21.49933 8.5 20.59375 L 9 19.9375 L 9 21 L 11 21 L 11 17.125 L 12 13.9375 L 13.21875 16.40625 L 15.03125 15.53125 L 10.1875 5.59375 L 10.15625 5.5625 L 10.15625 5.5 C 9.8672929 5.0187439 10.019113 4.4452909 10.5 4.15625 C 10.616134 4.0862654 10.749986 4.0532861 10.875 4.03125 z" overflow="visible" font-family="Sans" fill="#000000"/></svg>
