<?xml version="1.0" encoding="utf-8"?>
<svg xmlns="http://www.w3.org/2000/svg" viewBox="0 0 32 32" fill="#000000"><path style="text-indent:0;text-align:start;line-height:normal;text-transform:none;block-progression:tb;-inkscape-font-specification:Sans" d="M 6 3 L 6 4 L 6 28 L 6 29 L 7 29 L 25 29 L 26 29 L 26 28 L 26 13.4375 L 27.71875 11.71875 L 28 11.40625 L 28 11 L 28 4 L 28 3 L 27 3 L 24 3 L 23 3 L 7 3 L 6 3 z M 8 5 L 22 5 L 22 11 L 22 11.40625 L 22.28125 11.71875 L 24 13.4375 L 24 27 L 8 27 L 8 5 z M 24 5 L 26 5 L 26 10.5625 L 25 11.5625 L 24 10.5625 L 24 5 z M 14.5 12 L 13.75 13 L 11 13 L 11 20 L 21 20 L 21 13 L 18.25 13 L 17.5 12 L 14.5 12 z M 16 14 C 17.105 14 18 14.895 18 16 C 18 17.105 17.105 18 16 18 C 14.895 18 14 17.105 14 16 C 14 14.895 14.895 14 16 14 z" overflow="visible" font-family="Sans" fill="#000000"/></svg>
