<?xml version="1.0" encoding="utf-8"?>
<svg xmlns="http://www.w3.org/2000/svg" viewBox="0 0 32 32" fill="#000000"><path style="text-indent:0;text-align:start;line-height:normal;text-transform:none;block-progression:tb;-inkscape-font-specification:Sans" d="M 1 10 L 1 11 L 1 18 L 1 19 L 2 19 L 4.03125 19 C 4.0062088 19.167652 4 19.325797 4 19.5 C 4 21.421152 5.5788481 23 7.5 23 C 9.4211519 23 11 21.421152 11 19.5 C 11 17.578848 9.4211519 16 7.5 16 C 7.3474495 16 7.2101147 16.011959 7.0625 16.03125 C 8.5847707 15.306004 11.121124 14.332581 14 14.125 L 14 16 L 14 17.03125 L 15.03125 17 C 15.03125 17 17.582788 16.898356 20.6875 17.21875 C 21.035334 17.254645 21.393915 17.325608 21.75 17.375 C 21.285934 17.969041 21 18.694404 21 19.5 C 21 19.696839 21.030681 19.874178 21.0625 20.0625 L 11.9375 20.0625 C 11.8445 20.7975 11.5925 21.4815 11.1875 22.0625 L 22.0625 22.0625 L 22.0625 22 C 22.694725 22.61712 23.554773 23 24.5 23 C 26.421152 23 28 21.421152 28 19.5 C 28 19.34745 27.988041 19.210115 27.96875 19.0625 C 28.337578 19.240543 28.687113 19.421728 29 19.625 L 29 20 L 28.9375 20 C 28.8555 20.732 28.641 21.417 28.25 22 L 29 22 L 30 22 L 31 22 L 31 19 L 31 18.5 L 30.59375 18.1875 C 28.004951 16.272708 24.160788 15.585856 20.90625 15.25 C 18.216694 14.972448 16.714834 15.016652 16 15.03125 L 16 13 L 16 12 L 15 12 C 11.165991 12 7.8500933 13.347087 6 14.28125 L 6 12.40625 C 6 11.083446 4.9165542 10 3.59375 10 L 2 10 L 1 10 z M 3 12 L 3.59375 12 C 3.8369458 12 4 12.163054 4 12.40625 L 4 17 L 3 17 L 3 12 z M 7.5 18 C 8.3402719 18 9 18.659728 9 19.5 C 9 20.340272 8.3402719 21 7.5 21 C 6.6597281 21 6 20.340272 6 19.5 C 6 18.659728 6.6597281 18 7.5 18 z M 24.5 18 C 25.340272 18 26 18.659728 26 19.5 C 26 20.340272 25.340272 21 24.5 21 C 23.659728 21 23 20.340272 23 19.5 C 23 18.659728 23.659728 18 24.5 18 z" overflow="visible" font-family="Sans" fill="#000000"/></svg>
