<?xml version="1.0" encoding="utf-8"?>
<svg xmlns="http://www.w3.org/2000/svg" viewBox="0 0 32 32" fill="#000000"><path style="text-indent:0;text-align:start;line-height:normal;text-transform:none;block-progression:tb;-inkscape-font-specification:Sans" d="M 16 3 C 15.287335 3 14.662148 3.4155809 14.3125 3.84375 C 13.962852 4.2719191 13.766822 4.7195392 13.59375 5.09375 C 13.420678 5.4679608 13.266801 5.7722582 13.15625 5.90625 C 13.073337 6.0067439 13.062959 6.0050371 13.03125 6 C 13.034054 6.0025422 13.034479 6 13 6 C 12.955753 5.9889322 12.85554 5.956225 12.71875 5.90625 C 12.499886 5.82629 12.204813 5.7195402 11.90625 5.59375 C 11.607687 5.4679598 11.308357 5.3271293 11 5.21875 C 10.691643 5.1103707 10.416625 5 10 5 C 9.590709 5 9.190469 5.0881203 8.75 5.40625 C 8.309531 5.7243797 7.90625 6.3725802 7.90625 7.09375 C 7.90625 7.7490474 8.0418817 8.3375142 8.21875 8.9375 C 4.8753309 11.304213 3 15.127339 3 19 C 3 22.174448 4.5483782 24.780426 6.9375 26.46875 C 9.3266218 28.157074 12.521669 29 16 29 C 19.478331 29 22.673378 28.157074 25.0625 26.46875 C 27.451622 24.780426 29 22.174448 29 19 C 29 15.230178 26.974828 10.999696 23.6875 8.8125 C 23.894769 8.2411816 24.09375 7.745795 24.09375 7.09375 C 24.09375 5.8978803 23.100387 5 22 5 C 21.177995 5 20.6751 5.3461245 20.125 5.59375 C 19.5749 5.8413755 19.013394 6 19 6 C 18.908502 6 18.956735 6.0423583 18.84375 5.90625 C 18.730765 5.7701417 18.581506 5.4361807 18.40625 5.0625 C 18.230994 4.6888193 18.034895 4.2695368 17.6875 3.84375 C 17.340105 3.4179632 16.711308 3 16 3 z M 15.9375 5 C 15.951746 4.9933539 15.955582 5 16 5 C 16.07719 5 16.01346 4.957037 16.125 5.09375 C 16.236543 5.2304632 16.417256 5.5611807 16.59375 5.9375 C 16.770244 6.3138193 16.958547 6.7298583 17.3125 7.15625 C 17.666453 7.5826417 18.286998 8 19 8 C 19.816606 8 20.37685 7.6586245 20.9375 7.40625 C 21.49815 7.1538755 22.095005 7 22 7 C 22.01361 7 22.09375 7.01562 22.09375 7.09375 C 22.09375 7.103852 21.883803 7.7846745 21.59375 8.78125 C 21.303697 9.7778255 21 11.165833 21 13 L 23 13 C 23 12.188084 23.063181 11.507624 23.15625 10.90625 C 25.41783 12.808914 27 16.220536 27 19 C 27 21.548552 25.860378 23.462824 23.90625 24.84375 C 21.952122 26.224676 19.148669 27 16 27 C 12.851331 27 10.047878 26.224676 8.09375 24.84375 C 6.1396218 23.462824 5 21.548552 5 19 C 5 15.986068 6.3502881 12.974793 8.8125 10.96875 C 8.9356254 11.556676 9 12.216586 9 13 L 11 13 C 11 9.7189029 9.90625 7.8170502 9.90625 7.09375 C 9.90625 6.9669198 9.884969 7.04662 9.90625 7.03125 C 9.927531 7.0158797 10.074291 7 10 7 C 9.916875 7 10.118638 7.014629 10.34375 7.09375 C 10.568862 7.172871 10.861438 7.2820402 11.15625 7.40625 C 11.451062 7.5304598 11.736895 7.67371 12.03125 7.78125 C 12.325605 7.88879 12.569086 8 13 8 C 13.713761 8 14.333957 7.5847582 14.6875 7.15625 C 15.041043 6.7277418 15.232447 6.2820392 15.40625 5.90625 C 15.580053 5.5304608 15.734054 5.2280809 15.84375 5.09375 C 15.898598 5.0265845 15.923254 5.0066461 15.9375 5 z M 15 9 L 15 13 L 17 13 L 17 9 L 15 9 z M 12 10 L 12 14 L 14 14 L 14 10 L 12 10 z M 18.03125 10 L 18 14 L 20 14 L 20.03125 10 L 18.03125 10 z" overflow="visible" font-family="Sans" fill="#000000"/></svg>
