<?xml version="1.0" encoding="utf-8"?>
<svg xmlns="http://www.w3.org/2000/svg" viewBox="0 0 32 32" fill="#000000"><path style="line-height:normal;text-indent:0;text-align:start;text-decoration-line:none;text-decoration-style:solid;text-decoration-color:#000;text-transform:none;block-progression:tb;isolation:auto;mix-blend-mode:normal" d="M 16 2 C 10.128528 2 6.7390118 5.0974909 5.1757812 7.03125 C 4.9836282 6.9497847 4.7902295 6.8725559 4.578125 6.828125 C 4.049727 6.7174382 3.2672992 6.7969545 2.8066406 7.3808594 C 2.4085844 7.8853667 2.2774602 8.4262852 2.1640625 9.0371094 C 2.0506648 9.6479335 2 10.3224 2 11 C 2 11.6776 2.050665 12.352066 2.1640625 12.962891 C 2.2774602 13.573715 2.4085844 14.114633 2.8066406 14.619141 L 2.8085938 14.621094 C 3.1163473 15.010217 3.5333878 15.084775 3.8046875 15.09375 C 3.8756958 15.096106 3.9352803 15.086493 4 15.082031 L 4 18 L 6 18 L 6 14.298828 C 6.3665029 14.069605 6.7215554 13.812511 7.0253906 13.501953 C 7.3796959 13.139808 7.75 12.712667 7.75 12 L 7.75 10 C 7.75 9.3376667 7.450759 8.9134756 7.1328125 8.5175781 C 7.0264549 8.3851448 6.9007461 8.2666731 6.7792969 8.1445312 C 8.0586144 6.5343566 10.860665 4 16 4 C 21.017855 4 23.809294 6.4173073 25.130859 8.03125 C 24.966557 8.1783906 24.804645 8.3280775 24.664062 8.4921875 C 24.326076 8.8867403 24 9.3101667 24 10 L 24 12 C 24 12.7435 24.402512 13.16424 24.777344 13.523438 C 25.138322 13.869359 25.561998 14.155338 26 14.400391 L 26 18 L 28 18 L 28 15.085938 C 28.046173 15.087634 28.087698 15.095271 28.136719 15.09375 C 28.405632 15.08545 28.80819 15.02977 29.132812 14.644531 C 29.555312 14.143346 29.700145 13.592235 29.822266 12.976562 C 29.944386 12.36089 30 11.6812 30 11 C 30 10.3188 29.944386 9.6391098 29.822266 9.0234375 C 29.700145 8.4077652 29.555312 7.8566545 29.132812 7.3554688 C 28.645528 6.7759395 27.880941 6.718316 27.341797 6.8242188 C 27.151513 6.8615957 26.975931 6.9332486 26.798828 7 C 25.223972 5.0640053 21.839928 2 16 2 z M 10.996094 7 C 10.123094 7 9.2070781 7.2507187 8.3300781 8.0117188 C 7.8700781 8.4107187 7.9090781 9.0741406 8.3300781 8.8691406 C 9.0730781 8.5071406 9.7390781 8.3320312 10.330078 8.3320312 C 12.123078 8.3320312 13.016969 10.433031 13.292969 10.707031 C 13.682969 11.098031 14.316031 11.098031 14.707031 10.707031 C 15.098031 10.317031 15.098031 9.6839688 14.707031 9.2929688 C 14.463031 9.0499688 13.289094 7 10.996094 7 z M 21.003906 7 C 18.710906 7 17.536969 9.0499688 17.292969 9.2929688 C 16.901969 9.6839688 16.901969 10.317031 17.292969 10.707031 C 17.683969 11.098031 18.317031 11.098031 18.707031 10.707031 C 18.983031 10.433031 19.876922 8.3320312 21.669922 8.3320312 C 22.260922 8.3320312 22.926922 8.5071406 23.669922 8.8691406 C 24.090922 9.0741406 24.129922 8.4107187 23.669922 8.0117188 C 22.792922 7.2507187 21.876906 7 21.003906 7 z M 27.662109 8.8164062 C 27.710989 8.9203477 27.792529 9.0672108 27.861328 9.4140625 C 27.949958 9.8608902 28 10.4312 28 11 C 28 11.5688 27.94996 12.139109 27.861328 12.585938 C 27.815668 12.816152 27.782928 12.845315 27.728516 12.982422 C 27.517046 12.910742 27.277901 12.825099 27.013672 12.679688 C 26.678564 12.495268 26.353231 12.2651 26.160156 12.080078 C 25.967081 11.895056 26 11.7565 26 12 L 26 10 C 26 10.189833 26.004 10.0046 26.183594 9.7949219 C 26.363201 9.5852559 26.652804 9.3326989 26.951172 9.140625 C 27.224751 8.9645087 27.492199 8.8600766 27.662109 8.8164062 z M 4.3046875 8.8515625 C 4.4531089 8.9026735 4.6403432 8.9732691 4.8613281 9.125 C 5.1358469 9.313488 5.4049622 9.5612101 5.5722656 9.7695312 C 5.7395691 9.9778525 5.75 10.162333 5.75 10 L 5.75 12 C 5.75 11.787333 5.773835 11.92144 5.5957031 12.103516 C 5.4175709 12.285589 5.1179553 12.511778 4.8085938 12.693359 C 4.5968159 12.817664 4.4212747 12.880517 4.2421875 12.951172 C 4.194242 12.815522 4.1686109 12.802961 4.1308594 12.599609 C 4.0470071 12.147934 4 11.5724 4 11 C 4 10.4276 4.0470071 9.8520665 4.1308594 9.4003906 C 4.1897947 9.0829314 4.2521656 8.9762899 4.3046875 8.8515625 z M 11.5 11.480469 C 10.426 11.480469 9 12.01425 9 13.28125 C 9 14.53825 10.358641 13.742188 11.431641 13.742188 C 12.504641 13.742187 14 14.464187 14 13.492188 C 14 12.520188 12.574 11.480469 11.5 11.480469 z M 20.5 11.482422 C 19.426 11.481422 18 12.520188 18 13.492188 C 18 14.464187 19.495359 13.742187 20.568359 13.742188 C 21.642359 13.742188 23 14.539203 23 13.283203 C 23 12.016203 21.574 11.482422 20.5 11.482422 z M 9 16 C 8.05 16.626 7 17.777 7 19 C 7 20.5 8.2479844 22.068172 9.7089844 22.701172 C 10.880984 23.377172 12.815 24 16 24 C 19.185 24 21.119016 23.377172 22.291016 22.701172 C 23.752016 22.068172 25 20.5 25 19 C 25 17.777 23.95 16.626 23 16 C 24 18 24 20 21 20 C 20.602 20 20.333953 19.993359 20.001953 19.818359 C 19.609953 19.387359 19.268 18.804 19 18 C 17 20 15 20 13 18 C 12.695 18.914 12.204578 19.546281 11.642578 19.988281 C 8.0135781 19.867281 8.032 17.936 9 16 z M 8 24 C 8 25.316667 8.7958671 26.255919 9.5253906 26.611328 C 9.8589518 26.773832 10.150026 26.838962 10.380859 26.884766 C 10.503042 27.101689 10.559131 27.237398 10.833984 27.601562 C 11.054047 27.893134 11.314992 28.199023 11.648438 28.466797 C 11.981882 28.73457 12.414961 29 13 29 L 16 29 L 19 29 C 19.585039 29 20.018118 28.73457 20.351562 28.466797 C 20.685008 28.199023 20.945953 27.893134 21.166016 27.601562 C 21.457376 27.215528 21.528813 27.053375 21.646484 26.841797 C 21.921859 26.804787 22.038572 26.848897 22.447266 26.644531 C 23.18578 26.275274 24 25.333333 24 24 L 22 24 C 22 24.666667 21.81422 24.724726 21.552734 24.855469 C 21.291248 24.986212 21 25 21 25 L 20.386719 25 L 20.109375 25.546875 C 20.109375 25.546875 19.884937 25.981578 19.570312 26.398438 C 19.413 26.606867 19.233133 26.800977 19.099609 26.908203 C 18.966086 27.01543 18.905461 27 19 27 L 16 27 L 13 27 C 13.09454 27 13.033911 27.015433 12.900391 26.908203 C 12.766867 26.800977 12.587 26.606867 12.429688 26.398438 C 12.115063 25.981578 11.890625 25.546875 11.890625 25.546875 L 11.818359 25.404297 L 11.707031 25.292969 C 11.406153 24.992091 11.300058 25.038511 11.222656 25.017578 C 11.145256 24.996648 11.09922 24.989862 11.056641 24.982422 C 10.971481 24.967552 10.904409 24.957259 10.830078 24.943359 C 10.681416 24.915559 10.523129 24.874249 10.400391 24.814453 C 10.154919 24.694866 10 24.683333 10 24 L 8 24 z" font-weight="400" font-family="sans-serif" white-space="normal" overflow="visible" fill="#000000"/></svg>
