<?xml version="1.0" encoding="utf-8"?>
<svg xmlns="http://www.w3.org/2000/svg" viewBox="0 0 32 32" fill="#000000"><path style="text-indent:0;text-align:start;line-height:normal;text-transform:none;block-progression:tb;-inkscape-font-specification:Sans" d="M 5 5 L 5 6 L 5 26 L 5 27 L 6 27 L 26 27 L 27 27 L 27 26 L 27 6 L 27 5 L 26 5 L 6 5 L 5 5 z M 7 7 L 25 7 L 25 25 L 7 25 L 7 7 z M 10 10 L 10 12 L 22 12 L 22 10 L 10 10 z M 10 15 L 10 17 L 22 17 L 22 15 L 10 15 z M 10 20 L 10 22 L 22 22 L 22 20 L 10 20 z" overflow="visible" font-family="Sans" fill="#000000"/></svg>
