<?xml version="1.0" encoding="utf-8"?>
<svg xmlns="http://www.w3.org/2000/svg" viewBox="0 0 32 32" fill="#000000"><path style="text-indent:0;text-align:start;line-height:normal;text-transform:none;block-progression:tb;-inkscape-font-specification:Bitstream Vera Sans" d="M 13 6 L 13 8 L 17 8 L 17 6 L 13 6 z M 13 8.78125 L 13 10 L 13 10.1875 L 13 10.40625 L 13.125 10.625 C 13.0771 10.53327 13.291977 11.122218 13.4375 11.78125 C 13.583023 12.440282 13.732731 13.288014 13.8125 14.15625 C 13.972037 15.892723 13.693135 17.691871 13.25 18.1875 L 13 18.46875 L 13 18.875 L 13 19 L 13 20.125 L 14.125 20 L 22.125 19 L 23 18.875 L 23 18 C 23 14.335374 20.672585 11.976114 18.5 10.6875 C 16.327415 9.3988857 14.1875 9.03125 14.1875 9.03125 L 13 8.78125 z M 15.40625 11.46875 C 16.036852 11.693528 16.743287 11.957424 17.5 12.40625 C 19.117854 13.365839 20.551227 14.840978 20.875 17.125 L 15.46875 17.8125 C 15.820729 16.596012 15.900073 15.262068 15.78125 13.96875 C 15.69657 13.04702 15.5604 12.186035 15.40625 11.46875 z M 6 21 L 6 22 C 6 23.20907 6.242353 24.195685 6.59375 25 L 6 25 C 6 25.05733 5.918885 25.315468 5.5625 25.5625 C 5.2061149 25.809532 4.636638 26 4 26 C 3.3665518 26 2.7956774 25.812099 2.4375 25.5625 C 2.0793226 25.312901 2 25.042136 2 25 L 0 25 C 0 25.941864 0.58867738 26.683099 1.3125 27.1875 C 2.0363226 27.691901 2.9614482 28 4 28 C 5.035362 28 5.9618851 27.690468 6.6875 27.1875 C 6.8001837 27.109392 6.895686 27.026988 7 26.9375 C 7.1012319 27.023981 7.2036063 27.111617 7.3125 27.1875 C 8.0363226 27.691901 8.9614482 28 10 28 C 10.161552 28 10.312847 27.983381 10.46875 27.96875 C 10.808807 28.011409 11.0625 28 11.0625 28 L 11.0625 27.875 C 11.669255 27.742228 12.221875 27.510253 12.6875 27.1875 C 12.800184 27.109392 12.895686 27.026988 13 26.9375 C 13.101232 27.023981 13.203606 27.111617 13.3125 27.1875 C 14.036323 27.691901 14.961448 28 16 28 C 17.035362 28 17.961885 27.690468 18.6875 27.1875 C 18.800184 27.109392 18.895686 27.026988 19 26.9375 C 19.101232 27.023981 19.203606 27.111617 19.3125 27.1875 C 20.036323 27.691901 20.961448 28 22 28 C 23.035362 28 23.961885 27.690468 24.6875 27.1875 C 24.800184 27.109392 24.895686 27.026988 25 26.9375 C 25.101232 27.023981 25.203606 27.111617 25.3125 27.1875 C 26.036323 27.691901 26.961448 28 28 28 C 29.035362 28 29.961885 27.690468 30.6875 27.1875 C 31.413115 26.684532 32 25.942667 32 25 L 30 25 C 30 25.05733 29.91888 25.315468 29.5625 25.5625 C 29.206115 25.809532 28.636638 26 28 26 C 27.366552 26 26.795677 25.812099 26.4375 25.5625 C 26.079323 25.312901 26 25.042136 26 25 C 26.602332 23.975864 27 22.94905 27 22 L 27 21 L 26 21 L 7 21 L 6 21 z M 8.1875 23 L 24.59375 23 C 24.427308 23.512575 24.371893 23.917356 24 24.46875 C 23.374728 25.395822 22.58361 26 22 26 C 21.366552 26 20.795677 25.812099 20.4375 25.5625 C 20.079323 25.312901 20 25.042136 20 25 L 18 25 C 18 25.05733 17.91888 25.315468 17.5625 25.5625 C 17.206115 25.809532 16.636638 26 16 26 C 15.366552 26 14.795677 25.812099 14.4375 25.5625 C 14.079323 25.312901 14 25.042136 14 25 L 12 25 C 12 25.05733 11.91888 25.315468 11.5625 25.5625 C 11.301718 25.743264 10.931803 25.901025 10.5 25.96875 C 10.231619 25.92192 9.8639755 25.81268 9.5 25.59375 C 8.9172895 25.24325 8.4120511 24.420714 8.1875 23 z" overflow="visible" font-family="Bitstream Vera Sans" fill="#000000"/></svg>
