<?xml version="1.0" encoding="utf-8"?>
<svg xmlns="http://www.w3.org/2000/svg" viewBox="0 0 32 32" fill="#000000"><path style="text-indent:0;text-align:start;line-height:normal;text-transform:none;block-progression:tb;-inkscape-font-specification:Sans" d="M 3 5 L 3 22 L 2 22 L 2 24 L 5 24 L 5 22 L 5 5 L 3 5 z M 18 11 C 11.824098 11 7.75 12.03125 7.75 12.03125 L 7 12.21875 L 7 13 L 7 19 L 6 19 L 6 21 L 7 21 L 7 23 L 7 24 L 8 24 L 28 24 L 29 24 L 29 23 L 29 13 L 29 12.21875 L 28.25 12.03125 C 28.25 12.03125 24.175902 11 18 11 z M 18 13 C 23.10698 13 26.100149 13.640587 27 13.84375 L 27 22 L 9 22 L 9 21 L 9 19 L 9 13.84375 C 9.899851 13.640587 12.89302 13 18 13 z M 11 15 L 11 17 L 13 17 L 13 15 L 11 15 z M 14 15 L 14 17 L 16 17 L 16 15 L 14 15 z M 17 15 L 17 17 L 19 17 L 19 15 L 17 15 z M 20 15 L 20 17 L 22 17 L 22 15 L 20 15 z M 23 15 L 23 17 L 25 17 L 25 15 L 23 15 z" fill="#000000"/></svg>
