<?xml version="1.0" encoding="utf-8"?>
<svg xmlns="http://www.w3.org/2000/svg" viewBox="0 0 32 32" fill="#000000"><path style="text-indent:0;text-align:start;line-height:normal;text-transform:none;block-progression:tb;-inkscape-font-specification:Sans" d="M 28 1.0625 L 27.25 1.59375 L 9.1875 14.625 L 8.40625 15.1875 L 7.5625 15.8125 L 2.5 19.375 L 2.46875 19.375 L 2.46875 19.40625 C 2.46875 19.40625 1.8104174 19.875291 1.375 20.71875 C 0.93958263 21.562209 0.78656 22.95222 1.6875 24.21875 C 2.5392625 25.415416 4.051921 27.537491 5.46875 29.53125 C 6.3695984 30.797651 7.7525872 31.122616 8.6875 30.96875 C 9.6224128 30.814884 10.25 30.3125 10.25 30.3125 L 10.28125 30.3125 L 13.59375 27.8125 L 14 27.5 L 14 27 L 14 24 L 15 24 L 15 23 L 15 22 L 16 22 L 17 22 L 17 21 L 17 20 L 18 20 L 19 20 L 19 19 L 19 18 L 20 18 L 21 18 L 21 17 L 21 16 L 22 16 L 23 16 L 23 15 L 23 14 L 24 14 L 25 14 L 25 13 L 25 12 L 26 12 L 27 12 L 27 11 L 27 10 L 28 10 L 29 10 L 29 9 L 29 8 L 30 8 L 31 8 L 31 7 L 31 5 L 31 4.625 L 30.78125 4.34375 L 28.625 1.78125 L 28 1.0625 z M 27.65625 3.78125 L 29 5.40625 L 29 6 L 28 6 L 27 6 L 27 7 L 27 8 L 26 8 L 25 8 L 25 9 L 25 10 L 24 10 L 23 10 L 23 11 L 23 12 L 22 12 L 21 12 L 21 13 L 21 14 L 20 14 L 19 14 L 19 15 L 19 16 L 18 16 L 17 16 L 17 17 L 17 18 L 16 18 L 15 18 L 15 19 L 15 20 L 14 20 L 13.46875 20 L 11.4375 17.46875 L 10.4375 16.1875 L 27.65625 3.78125 z M 8.8125 17.34375 L 12 21.34375 L 12 26.5 L 9.09375 28.6875 L 9.0625 28.6875 C 9.039593 28.70274 8.7309082 28.905032 8.34375 28.96875 C 7.9419128 29.03488 7.6099016 29.100599 7.09375 28.375 C 5.676579 26.380759 4.1959875 24.259834 3.34375 23.0625 C 2.82769 22.33703 2.9634174 21.998541 3.15625 21.625 C 3.3385004 21.271958 3.5936155 21.056449 3.625 21.03125 C 3.6268223 21.029787 3.65625 21 3.65625 21 L 8.8125 17.34375 z M 6.8125 21.40625 L 5.1875 22.59375 L 8.1875 26.59375 L 9.8125 25.40625 L 6.8125 21.40625 z" overflow="visible" font-family="Sans" fill="#000000"/></svg>
