<?xml version="1.0" encoding="utf-8"?>
<svg xmlns="http://www.w3.org/2000/svg" viewBox="0 0 32 32" fill="#000000"><path style="text-indent:0;text-align:start;line-height:normal;text-transform:none;block-progression:tb;-inkscape-font-specification:Sans" d="M 15.78125 3 C 15.655665 3.00029 15.531608 3.0061785 15.40625 3.03125 L 11.625 3.71875 L 11.59375 3.71875 C 10.576008 3.9222984 9.8276361 4.8551719 10.03125 5.96875 L 10.03125 6 L 10.6875 9.625 C 8.7640264 10.600659 7.6184597 12.707851 8.03125 14.875 L 8.03125 14.90625 L 8.125 15.40625 L 8.3125 16.34375 L 8.28125 16.375 L 13.0625 28.375 L 13.375 29.125 L 14.1875 28.96875 L 22.1875 27.46875 L 23 27.34375 L 23 26.5 L 23 13.6875 L 22.96875 13.6875 L 22.78125 12.71875 L 22.6875 12.25 C 22.6861 12.2399 22.689 12.22883 22.6875 12.21875 C 22.3598 10.027434 20.510798 8.4204042 18.34375 8.1875 L 17.6875 4.53125 L 17.6875 4.5 C 17.503199 3.5784954 16.660344 2.9979703 15.78125 3 z M 15.75 4.96875 L 16.34375 8.3125 L 12.59375 9.03125 L 11.96875 5.6875 L 12 5.6875 L 15.75 4.96875 z M 25.90625 6.5625 L 24.09375 7.4375 L 25.1875 9.71875 L 25.1875 9.75 L 25.21875 9.75 C 25.759122 10.830743 26 11.853846 26 13 L 26 16 L 28 16 L 28 13 C 28 11.555996 27.650944 10.186065 27 8.875 L 27 8.84375 L 25.90625 6.5625 z M 17.8125 10.15625 C 19.05103 10.173024 20.083649 11.014382 20.46875 12.125 L 10.0625 14 C 10.0581 12.631524 10.897116 11.362456 12.375 11.09375 L 17.28125 10.1875 C 17.465843 10.153938 17.635567 10.153854 17.8125 10.15625 z M 3.5 10.84375 L 3.125 13.34375 C 2.9033194 14.784674 3.0004081 16.173201 3.4375 17.59375 L 3.4375 17.625 L 3.46875 17.625 L 4.46875 20.4375 L 6.34375 19.75 L 5.34375 17 C 5.34038 16.98904 5.34707 16.97968 5.34375 16.96875 C 4.9893709 15.803256 4.9170879 14.804554 5.09375 13.65625 L 5.5 11.15625 L 3.5 10.84375 z M 21 14.0625 L 21 25.6875 L 14.625 26.875 L 10.28125 16 L 21 14.0625 z" overflow="visible" font-family="Sans" fill="#000000"/></svg>
