<?xml version="1.0" encoding="utf-8"?>
<svg xmlns="http://www.w3.org/2000/svg" viewBox="0 0 32 32" fill="#000000"><path d="M 16 6 C 12.574 6 9.436 7.23025 7 9.28125 L 7 12.09375 C 9.201 9.59275 12.415 8 16 8 C 19.585 8 22.799 9.59375 25 12.09375 L 25 9.28125 C 22.564 7.23025 19.426 6 16 6 z M 16 10 C 13.276 10 10.805 11.102 9 12.875 L 9 16.125 C 10.365 13.662 12.99 12 16 12 C 19.01 12 21.635 13.662 23 16.125 L 23 12.875 C 21.195 11.102 18.724 10 16 10 z M 16 14 C 12.698136 14 10 16.698136 10 20 C 10 23.301864 12.698136 26 16 26 C 19.301864 26 22 23.301864 22 20 C 22 16.698136 19.301864 14 16 14 z M 16 16 C 18.220984 16 20 17.779016 20 20 C 20 22.220984 18.220984 24 16 24 C 13.779016 24 12 22.220984 12 20 C 12 17.779016 13.779016 16 16 16 z" fill="#000000"/></svg>
