<?xml version="1.0" encoding="utf-8"?>
<svg xmlns="http://www.w3.org/2000/svg" viewBox="0 0 32 32" fill="#000000"><path style="text-indent:0;text-align:start;line-height:normal;text-transform:none;block-progression:tb;-inkscape-font-specification:Bitstream Vera Sans" d="M 9 4 L 9 5 L 7 5 L 7 7 L 9 7 L 9 9 L 7 9 L 7 11 L 9 11 L 9 13 L 7 13 L 7 15 L 9 15 L 9 17 L 7 17 L 7 19 L 9 19 L 9 21 L 7 21 L 7 23 L 9 23 L 9 25 L 7 25 L 7 27 L 9 27 L 9 28 L 11 28 L 11 4 L 9 4 z M 21 4 L 21 5 L 12 5 L 12 7 L 21 7 L 21 9 L 12 9 L 12 11 L 21 11 L 21 13 L 12 13 L 12 15 L 21 15 L 21 17 L 12 17 L 12 19 L 21 19 L 21 21 L 12 21 L 12 23 L 21 23 L 21 25 L 12 25 L 12 27 L 21 27 L 21 28 L 23 28 L 23 4 L 21 4 z M 24 5 L 24 7 L 26 7 L 26 5 L 24 5 z M 24 9 L 24 11 L 26 11 L 26 9 L 24 9 z M 24 13 L 24 15 L 26 15 L 26 13 L 24 13 z M 24 17 L 24 19 L 26 19 L 26 17 L 24 17 z M 24 21 L 24 23 L 26 23 L 26 21 L 24 21 z M 24 25 L 24 27 L 26 27 L 26 25 L 24 25 z" fill="#000000"/></svg>
