<?xml version="1.0" encoding="utf-8"?>
<svg xmlns="http://www.w3.org/2000/svg" viewBox="0 0 32 32" fill="#000000"><path style="text-indent:0;text-align:start;line-height:normal;text-transform:none;block-progression:tb;-inkscape-font-specification:Sans" d="M 10.28125 6.28125 L 6 10.5625 L 3.71875 8.28125 L 2.28125 9.71875 L 5.28125 12.71875 L 6 13.40625 L 6.71875 12.71875 L 11.71875 7.71875 L 10.28125 6.28125 z M 13 9 L 13 11 L 30 11 L 30 9 L 13 9 z M 3.71875 18.28125 L 2.28125 19.71875 L 5.0625 22.5 L 2.28125 25.28125 L 3.71875 26.71875 L 6.5 23.9375 L 9.28125 26.71875 L 10.71875 25.28125 L 7.9375 22.5 L 10.71875 19.71875 L 9.28125 18.28125 L 6.5 21.0625 L 3.71875 18.28125 z M 13 21 L 13 23 L 30 23 L 30 21 L 13 21 z" overflow="visible" font-family="Sans" fill="#000000"/></svg>
