<?xml version="1.0" encoding="utf-8"?>
<svg xmlns="http://www.w3.org/2000/svg" viewBox="0 0 32 32" fill="#000000"><path style="text-indent:0;text-align:start;line-height:normal;text-transform:none;block-progression:tb;-inkscape-font-specification:Sans" d="M 24 3 L 24 4 L 17.40625 4 C 16.117182 4 15.002231 4.9231917 14.75 6.1875 L 14.71875 6.25 L 14.71875 6.28125 L 14.0625 14 L 13.5 14 C 12.129545 14 11 15.129545 11 16.5 C 11 16.842614 11.060192 17.170135 11.1875 17.46875 C 7.6118448 18.661722 5 22.039609 5 26 L 5 28 L 5 29 L 6 29 L 26 29 L 27 29 L 27 28 L 27 26 C 27 22.039609 24.388155 18.661722 20.8125 17.46875 C 20.939808 17.170135 21 16.842614 21 16.5 C 21 15.129545 19.870455 14 18.5 14 L 17.90625 14 L 17.03125 6.125 C 17.141578 6.0532588 17.259471 6 17.40625 6 L 24 6 L 24 7 L 26 7 L 26 3 L 24 3 z M 13.5 16 L 18.5 16 C 18.779545 16 19 16.220455 19 16.5 C 19 16.779545 18.779545 17 18.5 17 L 13.5 17 C 13.220455 17 13 16.779545 13 16.5 C 13 16.220455 13.220455 16 13.5 16 z M 14 19 L 18 19 C 21.854545 19 25 22.145455 25 26 L 25 27 L 7 27 L 7 26 C 7 22.145455 10.145455 19 14 19 z M 16 21 C 14.895431 21 14 21.895431 14 23 C 14 24.104569 14.895431 25 16 25 C 17.104569 25 18 24.104569 18 23 C 18 21.895431 17.104569 21 16 21 z" overflow="visible" font-family="Sans" fill="#000000"/></svg>
