<?xml version="1.0" encoding="utf-8"?>
<svg xmlns="http://www.w3.org/2000/svg" viewBox="0 0 32 32" fill="#000000"><path style="line-height:normal;text-indent:0;text-align:start;text-decoration-line:none;text-decoration-style:solid;text-decoration-color:#000;text-transform:none;block-progression:tb;isolation:auto;mix-blend-mode:normal" d="M 9 1.5859375 L 7.9902344 2.5957031 C 6.6708785 3.915059 6.6708785 6.084941 7.9902344 7.4042969 L 16 15.414062 L 18 13.414062 L 19.378906 14.792969 L 8.5859375 25.585938 C 7.8118863 26.358009 7.813353 27.641479 8.5859375 28.414062 L 9.5859375 29.414062 C 10.3585 30.186626 11.640991 30.185157 12.414062 29.414062 L 23.207031 18.621094 L 25.292969 20.707031 L 26.707031 19.292969 L 24.621094 17.207031 L 25.902344 15.925781 L 22.074219 12.097656 L 20.792969 13.378906 L 9 1.5859375 z M 9.1660156 4.5800781 L 16.585938 12 L 16 12.585938 L 9.4042969 5.9902344 C 9.009241 5.5951785 8.9982993 5.0673468 9.1660156 4.5800781 z M 22.074219 14.925781 L 23.074219 15.925781 L 11 27.998047 L 10 27.001953 L 10 27 L 22.074219 14.925781 z" font-weight="400" font-family="sans-serif" white-space="normal" overflow="visible" fill="#000000"/></svg>
