<?xml version="1.0" encoding="utf-8"?>
<svg xmlns="http://www.w3.org/2000/svg" viewBox="0 0 32 32" fill="#000000"><path style="text-indent:0;text-align:start;line-height:normal;text-transform:none;block-progression:tb;-inkscape-font-specification:Bitstream Vera Sans" d="M 13.90625 4.4375 L 13.03125 8.8125 L 10.84375 19.78125 L 9.96875 16.71875 L 9.75 16 L 9 16 L 4 16 L 4 18 L 8.25 18 L 10.03125 24.28125 L 11.15625 28.25 L 11.96875 24.1875 L 14.09375 13.53125 L 15.03125 17.25 L 15.21875 18 L 16 18 L 20.28125 18 C 20.627293 18.596896 21.260396 19 22 19 C 23.104569 19 24 18.104569 24 17 C 24 15.895431 23.104569 15 22 15 C 21.260396 15 20.627293 15.403104 20.28125 16 L 16.78125 16 L 14.96875 8.75 L 13.90625 4.4375 z M 22 11 L 22 13 C 24.27619 13 26 14.72381 26 17 C 26 19.27619 24.27619 21 22 21 L 22 23 C 25.32381 23 28 20.32381 28 17 C 28 13.67619 25.32381 11 22 11 z" overflow="visible" font-family="Bitstream Vera Sans" fill="#000000"/></svg>
