<?xml version="1.0" encoding="utf-8"?>
<svg xmlns="http://www.w3.org/2000/svg" viewBox="0 0 32 32" fill="#000000"><path style="text-indent:0;text-align:start;line-height:normal;text-transform:none;block-progression:tb;-inkscape-font-specification:Sans" d="M 16 2 C 11.669828 2 9.0440246 3.9783546 7.65625 5.9375 C 6.2684754 7.8966454 6 9.875 6 9.875 L 6 9.9375 L 6 10 L 6 11 L 4 11 L 4 16 L 6 16 L 6 18 L 6 19 L 7 19 L 9 19 L 9 22 L 9 22.25 L 9.125 22.5 L 13.125 29.5 L 13.40625 30 L 14 30 L 18 30 L 18.59375 30 L 18.875 29.5 L 22.875 22.5 L 23 22.25 L 23 22 L 23 19 L 25 19 L 26 19 L 26 18 L 26 16 L 28 16 L 28 11 L 26 11 L 26 10 L 26 9.9375 L 26 9.875 C 26 9.875 25.731525 7.8966454 24.34375 5.9375 C 22.955975 3.9783546 20.330172 2 16 2 z M 16 4 C 19.752828 4 21.627275 5.5216454 22.71875 7.0625 C 23.22078 7.7712249 23.52897 8.4456018 23.71875 9 L 8.28125 9 C 8.4710301 8.4456018 8.7792196 7.7712249 9.28125 7.0625 C 10.372725 5.5216454 12.247172 4 16 4 z M 8 11 L 24 11 L 24 12.34375 C 22.933938 12.7818 20.197585 13.743736 17 13.9375 L 17 13 L 15 13 L 15 13.9375 C 11.802415 13.743736 9.0660618 12.7818 8 12.34375 L 8 11 z M 8 14.46875 C 9.5192695 15.024655 12.098047 15.78159 15 15.9375 L 15 19 L 17 19 L 17 15.9375 C 19.901953 15.78159 22.48073 15.024655 24 14.46875 L 24 17 L 22 17 L 21 17 L 21 18 L 21 21.71875 L 20.34375 22.90625 L 18.71875 21.28125 L 18.40625 21 L 18 21 L 14 21 L 13.59375 21 L 13.28125 21.28125 L 11.65625 22.90625 L 11 21.71875 L 11 18 L 11 17 L 10 17 L 8 17 L 8 14.46875 z M 14.4375 23 L 17.5625 23 L 19.28125 24.71875 L 17.40625 28 L 14.59375 28 L 12.71875 24.71875 L 14.4375 23 z" fill="#000000"/></svg>
