<?xml version="1.0" encoding="utf-8"?>
<svg xmlns="http://www.w3.org/2000/svg" viewBox="-7 9 32 32" fill="#000000"><path d="M 24.21875 2.9375 L 19.65625 11.5 C 19.17525 11.171 18.6105 10.983 17.9375 11 C 17.2895 10.366 16.418 10 15.5 10 C 14.334 10 13.265 10.59 12.625 11.5 C 12.146 11.184 11.589 11 11 11 C 9.694 11 8.56825 11.833 8.15625 13 C 6.45725 12.895 5 14.289 5 16 L 3 16 L 3 17 C 3 17.12 3.152 29 16 29 C 28.849 29 29 17.12 29 17 L 29 16 L 27 16 C 27 14.648 26.106 13.499 24.875 13.125 C 24.519 11.953 23.4545 11.11225 22.1875 11.03125 L 26 3.875 L 24.21875 2.9375 z M 15.5 12 C 15.982 12 16.43675 12.226 16.71875 12.625 L 17.125 13.1875 L 17.78125 13.03125 C 17.87425 13.00825 17.935 13 18 13 C 18.552 13 19 13.449 19 14 L 21 14 C 21 13.449 21.448 13 22 13 C 22.552 13 23 13.449 23 14 L 23 15 L 24 15 C 24.552 15 25 15.449 25 16 L 20.5 16 L 13.5 16 L 7 16 C 7 15.449 7.449 15 8 15 C 8.146 15 8.27675 15.03925 8.46875 15.15625 L 9.0625 15.5 L 10.125 14.75 L 10.03125 14.125 C 10.02425 14.082 10 14.046 10 14 C 10 13.449 10.449 13 11 13 C 11.36 13 11.692 13.20725 11.875 13.53125 L 12.1875 14.09375 L 12.875 14.03125 L 13.875 14 L 14.03125 13.1875 C 14.17125 12.4905 14.789 12 15.5 12 z M 13.5 16 C 13.776142 16 14 15.776142 14 15.5 C 14 15.223858 13.776142 15 13.5 15 C 13.223858 15 13 15.223858 13 15.5 C 13 15.776142 13.223858 16 13.5 16 z M 20.5 16 C 20.776142 16 21 15.776142 21 15.5 C 21 15.223858 20.776142 15 20.5 15 C 20.223858 15 20 15.223858 20 15.5 C 20 15.776142 20.223858 16 20.5 16 z M 15.5 14 C 15.223858 14 15 14.223858 15 14.5 C 15 14.776142 15.223858 15 15.5 15 C 15.776142 15 16 14.776142 16 14.5 C 16 14.223858 15.776142 14 15.5 14 z M 5.09375 18 L 26.9375 18 C 26.6075 20.547 24.879 27 16 27 C 7.121 27 5.42375 20.547 5.09375 18 z" transform="translate(-7 9)" fill="#000000"/></svg>
