<?xml version="1.0" encoding="utf-8"?>
<svg xmlns="http://www.w3.org/2000/svg" viewBox="0 0 32 32" fill="#000000"><path style="text-indent:0;text-align:start;line-height:normal;text-transform:none;block-progression:tb;-inkscape-font-specification:Sans" d="M 2 5 L 2 6 L 2 22 L 2 23 L 3 23 L 6 23 L 6 26 L 6 27 L 7 27 L 29 27 L 30 27 L 30 26 L 30 10 L 30 9 L 29 9 L 26 9 L 26 6 L 26 5 L 25 5 L 3 5 L 2 5 z M 4 7 L 24 7 L 24 9 L 7 9 L 6 9 L 6 10 L 6 21 L 4 21 L 4 7 z M 10.09375 11 L 25.90625 11 L 18 16.75 L 10.09375 11 z M 8 11.96875 L 17.40625 18.8125 L 18 19.25 L 18.59375 18.8125 L 28 11.96875 L 28 25 L 8 25 L 8 11.96875 z" overflow="visible" font-family="Sans" fill="#000000"/></svg>
