<?xml version="1.0" encoding="utf-8"?>
<svg xmlns="http://www.w3.org/2000/svg" viewBox="0 0 32 32" fill="#000000"><path style="text-indent:0;text-align:start;line-height:normal;text-transform:none;block-progression:tb;-inkscape-font-specification:Sans" d="M 15 3 L 15 5.5625 L 13.40625 4 L 12 5.40625 L 15 8.40625 L 15 14.25 L 9.9375 11.3125 L 8.84375 7.21875 L 6.90625 7.71875 L 7.46875 9.875 L 5.25 8.59375 L 4.25 10.34375 L 6.46875 11.625 L 4.3125 12.21875 L 4.8125 14.125 L 8.90625 13.0625 L 14 16 L 8.9375 18.9375 L 4.8125 17.84375 L 4.3125 19.78125 L 6.46875 20.34375 L 4.25 21.65625 L 5.25 23.375 L 7.5 22.09375 L 6.90625 24.28125 L 8.8125 24.78125 L 9.9375 20.65625 L 15 17.71875 L 15 23.59375 L 11.96875 26.59375 L 13.40625 28.03125 L 15 26.4375 L 15 29 L 17 29 L 17 26.4375 L 18.59375 28 L 20 26.59375 L 17 23.59375 L 17 17.71875 L 22.0625 20.65625 L 23.15625 24.78125 L 25.09375 24.28125 L 24.5 22.0625 L 26.75 23.375 L 27.75 21.65625 L 25.5 20.34375 L 27.65625 19.78125 L 27.15625 17.84375 L 23.0625 18.9375 L 18 16 L 23.0625 13.03125 L 27.15625 14.125 L 27.65625 12.21875 L 25.5 11.625 L 27.71875 10.34375 L 26.71875 8.59375 L 24.5 9.90625 L 25.0625 7.71875 L 23.125 7.21875 L 22.03125 11.3125 L 17 14.25 L 17 8.40625 L 20 5.40625 L 18.59375 4 L 17 5.5625 L 17 3 L 15 3 z" fill="#000000"/></svg>
