<?xml version="1.0" encoding="utf-8"?>
<svg xmlns="http://www.w3.org/2000/svg" viewBox="0 0 32 32" fill="#000000"><path style="text-indent:0;text-align:start;line-height:normal;text-transform:none;block-progression:tb;-inkscape-font-specification:Bitstream Vera Sans" d="M 28.21875 8.5 L 12.5625 11.75 C 12.196042 11.290742 11.633223 11 11 11 C 10.078375 11 9.2942771 11.620636 9.0625 12.46875 L 3.25 13.6875 L 3.6875 15.65625 L 6.0625 15.15625 C 5.8434439 15.399859 5.6324108 15.631969 5.4375 15.875 C 3.9474796 17.732881 3.09375 19.59375 3.09375 19.59375 L 4.90625 20.40625 C 4.90625 20.40625 5.6830204 18.767119 7 17.125 C 7.7986299 16.129202 8.7800053 15.208515 9.84375 14.625 C 10.170041 14.856306 10.569599 15 11 15 C 11.690356 15 12.296835 14.657003 12.65625 14.125 C 13.223421 14.306489 13.77744 14.705766 14.375 15.375 C 15.201568 16.30071 16.04776 17.649429 16.90625 19.03125 C 17.76474 20.413071 18.667267 21.826693 19.78125 22.96875 C 20.895233 24.110807 22.290598 25 24 25 C 25.773107 25 26.979137 23.677578 27.75 22.5625 C 28.520863 21.447422 28.9375 20.34375 28.9375 20.34375 L 27.0625 19.65625 C 27.0625 19.65625 26.706887 20.550578 26.09375 21.4375 C 25.480613 22.324422 24.688893 23 24 23 C 22.956902 23 22.086048 22.514943 21.1875 21.59375 C 20.288952 20.672557 19.444385 19.337929 18.59375 17.96875 C 17.743115 16.599571 16.890713 15.20004 15.875 14.0625 C 15.630838 13.789053 15.368432 13.520234 15.09375 13.28125 L 28.625 10.4375 L 28.21875 8.5 z" overflow="visible" font-family="Bitstream Vera Sans" fill="#000000"/></svg>
