<?xml version="1.0" encoding="utf-8"?>
<svg xmlns="http://www.w3.org/2000/svg" viewBox="0 0 32 32" fill="#000000"><path d="M 27.28125 3 C 26.972656 3.0507812 26.65625 3.3125 26.40625 3.5 C 26.00625 3.8 22.90625 6.40625 22.90625 6.40625 C 21.90625 6.40625 21.0875 7.0125 20.6875 7.8125 C 20.023361 8.4766393 19.430312 11.278366 18.6875 12.25 L 18.0625 11.625 L 17.34375 12.25 L 10.34375 18.25 L 9.53125 18.9375 L 10.15625 19.5625 L 3 26.1875 L 3 29 L 11.46875 20.90625 L 13.0625 22.5 L 6.25 29 L 9.0625 29 L 14.46875 23.90625 L 15.0625 24.46875 L 15.75 23.65625 L 21.75 16.65625 L 22.375 15.9375 L 21.71875 15.28125 C 22.496739 14.711983 24.163003 14.681334 26.3125 12.71875 C 27.7125 11.41875 27.3875 10.80625 27.1875 10.40625 C 26.9875 10.00625 26.8125 10 26.8125 10 C 26.8125 10 27.1125 9.40625 26.8125 8.90625 C 26.5125 8.40625 26.09375 8.5 26.09375 8.5 C 26.09375 8.5 26.39375 8 26.09375 7.5 C 25.79375 6.9 25.09375 7 25.09375 7 C 25.29375 6.8 27.2 4.8 27.5 4.5 C 27.7 4.2 28.3125 3.71875 27.8125 3.21875 C 27.6625 3.03125 27.466406 2.9695313 27.28125 3 z M 17.9375 14.375 L 19.625 16.0625 L 14.96875 21.53125 L 12.46875 19.03125 L 17.9375 14.375 z" fill="#000000"/></svg>
