<?xml version="1.0" encoding="utf-8"?>
<svg xmlns="http://www.w3.org/2000/svg" viewBox="0 0 32 32" fill="#000000"><path style="text-indent:0;text-align:start;line-height:normal;text-transform:none;block-progression:tb;-inkscape-font-specification:Bitstream Vera Sans" d="M 16 5 C 9.3844277 5 4 10.384428 4 17 C 4 19.950196 5.0704936 22.657811 6.84375 24.75 L 5.5625 26 C 5.5421944 25.999185 5.5205056 26 5.5 26 C 4.6715729 26 4 26.671573 4 27.5 C 4 28.328427 4.6715729 29 5.5 29 C 6.3284271 29 7 28.328427 7 27.5 C 7 27.479494 7.0008151 27.457806 7 27.4375 L 8.25 26.15625 C 10.342189 27.929506 13.049804 29 16 29 C 22.615572 29 28 23.615572 28 17 C 28 14.049804 26.929506 11.342189 25.15625 9.25 L 26.4375 8 C 26.457806 8.0008151 26.479494 8 26.5 8 C 27.328427 8 28 7.3284271 28 6.5 C 28 5.6715729 27.328427 5 26.5 5 C 25.671573 5 25 5.6715729 25 6.5 C 25 6.5205056 24.999185 6.5421944 25 6.5625 L 23.75 7.84375 C 21.657811 6.0704936 18.950196 5 16 5 z M 16 7 C 18.172104 7 20.175074 7.7047824 21.8125 8.875 C 21.613037 8.8658452 21.415186 8.8832034 21.21875 8.90625 C 20.433005 8.9984362 19.631016 9.3102892 18.75 9.75 C 18.087019 10.08089 17.372693 10.537893 16.65625 11.03125 C 15.751795 10.433697 14.873927 9.9758296 14 9.65625 C 12.174598 8.9887321 10.30024 8.8872595 9.09375 10.09375 C 7.8872597 11.30024 7.9887321 13.174598 8.65625 15 C 8.9758297 15.873927 9.4336972 16.751795 10.03125 17.65625 C 9.5378927 18.372693 9.0808903 19.087019 8.75 19.75 C 8.3102892 20.631016 7.9984363 21.433005 7.90625 22.21875 C 7.8832035 22.415186 7.8643982 22.614261 7.875 22.8125 C 6.7047824 21.175074 6 19.172104 6 17 C 6 11.465308 10.465308 7 16 7 z M 21.4375 10.90625 C 21.871243 10.85536 22.006606 10.94411 22.03125 10.96875 C 22.05589 10.99339 22.144639 11.128757 22.09375 11.5625 C 22.04286 11.996242 21.840186 12.662032 21.46875 13.40625 C 21.272438 13.799587 20.999258 14.218546 20.71875 14.65625 C 20.363319 14.235599 20.001128 13.813628 19.59375 13.40625 C 19.186372 12.998872 18.764401 12.636681 18.34375 12.28125 C 18.781454 12.000742 19.200413 11.727562 19.59375 11.53125 C 20.337968 11.159814 21.003758 10.957138 21.4375 10.90625 z M 11.5 11.15625 C 11.971069 11.142986 12.582308 11.26423 13.3125 11.53125 C 13.825245 11.718752 14.366921 12.009382 14.9375 12.34375 C 14.305604 12.869812 13.655331 13.40717 13.03125 14.03125 C 12.40717 14.655331 11.869812 15.305604 11.34375 15.9375 C 11.009382 15.366921 10.718752 14.825245 10.53125 14.3125 C 9.997213 12.852116 10.116278 11.883725 10.5 11.5 C 10.691862 11.308138 11.028931 11.169514 11.5 11.15625 z M 24.125 11.1875 C 25.295218 12.824926 26 14.827896 26 17 C 26 22.534692 21.534692 27 16 27 C 13.827896 27 11.824926 26.295218 10.1875 25.125 C 10.385739 25.135602 10.584814 25.116796 10.78125 25.09375 C 11.566995 25.00156 12.368984 24.68971 13.25 24.25 C 13.912981 23.91911 14.627307 23.462107 15.34375 22.96875 C 16.248205 23.566303 17.126073 24.02417 18 24.34375 C 19.825402 25.011268 21.69976 25.112741 22.90625 23.90625 C 24.112741 22.69976 24.011268 20.825402 23.34375 19 C 23.02417 18.126073 22.566303 17.248205 21.96875 16.34375 C 22.462107 15.627307 22.91911 14.912981 23.25 14.25 C 23.68971 13.368984 24.001564 12.566995 24.09375 11.78125 C 24.116798 11.584814 24.135602 11.385739 24.125 11.1875 z M 16.65625 13.5 C 17.170052 13.90595 17.657953 14.345454 18.15625 14.84375 C 18.654546 15.342047 19.09405 15.829948 19.5 16.34375 C 18.923173 17.067505 18.261913 17.800587 17.53125 18.53125 C 16.800587 19.261913 16.067505 19.923173 15.34375 20.5 C 14.829948 20.09405 14.342047 19.654546 13.84375 19.15625 C 13.345454 18.657953 12.90595 18.170052 12.5 17.65625 C 13.076827 16.932495 13.738087 16.199413 14.46875 15.46875 C 15.199413 14.738087 15.932495 14.076827 16.65625 13.5 z M 16 16 C 15.447715 16 15 16.447715 15 17 C 15 17.552285 15.447715 18 16 18 C 16.552285 18 17 17.552285 17 17 C 17 16.447715 16.552285 16 16 16 z M 20.65625 18.0625 C 20.990618 18.633079 21.281248 19.174755 21.46875 19.6875 C 22.002787 21.147884 21.883722 22.116275 21.5 22.5 C 21.116275 22.883725 20.147884 23.00279 18.6875 22.46875 C 18.174755 22.281248 17.633079 21.990618 17.0625 21.65625 C 17.694396 21.130188 18.344669 20.59283 18.96875 19.96875 C 19.59283 19.344669 20.130188 18.694396 20.65625 18.0625 z M 11.28125 19.34375 C 11.636681 19.764401 11.998872 20.186372 12.40625 20.59375 C 12.813628 21.001128 13.235599 21.363319 13.65625 21.71875 C 13.218546 21.999258 12.799587 22.272438 12.40625 22.46875 C 11.662032 22.840186 10.996242 23.042862 10.5625 23.09375 C 10.128757 23.14464 9.9933934 23.05589 9.96875 23.03125 C 9.944107 23.00661 9.8553619 22.871243 9.90625 22.4375 C 9.957138 22.003758 10.159814 21.337968 10.53125 20.59375 C 10.727562 20.200413 11.000742 19.781454 11.28125 19.34375 z" fill="#000000"/></svg>
