<?xml version="1.0" encoding="utf-8"?>
<svg xmlns="http://www.w3.org/2000/svg" viewBox="0 0 32 32" fill="#000000"><path style="text-indent:0;text-align:start;line-height:normal;text-transform:none;block-progression:tb;-inkscape-font-specification:Bitstream Vera Sans" d="M 3.71875 2.28125 L 2.28125 3.71875 L 28.28125 29.71875 L 29.71875 28.28125 L 21.5 20.0625 C 21.652277 20.040799 21.799505 20 22 20 C 24.2 20 26 18.2 26 16 C 26 13.9 24.40625 12.2 22.40625 12 C 21.70625 11.2 21 10.3 21 10 L 21 4 L 19 4 L 19 10 C 19 11.3 20.6125 12.9875 21.3125 13.6875 L 21.59375 14 L 22 14 C 23.1 14 24 14.9 24 16 C 24 17.1 23.1 18 22 18 C 21.0119 18 20.365571 18.191685 19.875 18.4375 L 12.625 11.1875 C 12.835215 10.781997 13 10.372437 13 10 L 13 4 L 11 4 L 11 9.5625 L 3.71875 2.28125 z M 8.3125 12.40625 C 6.9125 13.00625 6 14.4 6 16 C 6 18.2 7.8 20 10 20 C 11 20 11.30625 20.2875 11.90625 20.6875 C 12.60625 21.2875 13.5 22 16 22 C 16.7 22 17.3125 21.9125 17.8125 21.8125 L 15.90625 20 C 14.20625 20 13.69375 19.59375 13.09375 19.09375 C 12.49375 18.59375 11.7 18 10 18 C 8.9 18 8 17.1 8 16 C 8 14.9 8.90625 14.1 9.90625 14 L 8.3125 12.40625 z M 11 22 L 8 25 L 10 25 L 10 28 L 12 28 L 12 25 L 14 25 L 11 22 z M 19.5 23.5 L 18 25 L 20 25 L 20 28 L 22 28 L 22 26.09375 L 19.5 23.5 z" overflow="visible" font-family="Bitstream Vera Sans" fill="#000000"/></svg>
