<?xml version="1.0" encoding="utf-8"?>
<svg xmlns="http://www.w3.org/2000/svg" viewBox="0 0 32 32" fill="#000000"><path style="text-indent:0;text-align:start;line-height:normal;text-transform:none;block-progression:tb;-inkscape-font-specification:Bitstream Vera Sans" d="M 16.03125 4 C 14.923385 3.99839 13.811496 4.1557579 12.71875 4.46875 L 11.9375 4.6875 L 12 5.5 C 12.042344 6.2366435 11.680346 6.9509591 11 7.34375 C 10.319717 7.7365042 9.523807 7.6862275 8.90625 7.28125 L 8.25 6.84375 L 7.65625 7.375 C 6.0216406 8.955086 4.9107487 10.956211 4.375 13.09375 L 4.1875 13.875 L 4.875 14.21875 C 5.5344504 14.549147 6 15.212712 6 16 C 6 16.787288 5.5344504 17.450853 4.875 17.78125 L 4.15625 18.125 L 4.375 18.90625 C 4.6386671 19.956578 5.0203634 21.006422 5.59375 22 C 6.1672482 22.992677 6.8784488 23.871064 7.65625 24.625 L 8.25 25.1875 L 8.90625 24.75 C 9.5237354 24.343724 10.317719 24.262445 11 24.65625 C 11.682232 25.050026 12.043057 25.761973 12 26.5 L 11.9375 27.3125 L 12.71875 27.53125 C 14.108407 27.927681 15.557216 28.037827 17 27.90625 L 17 31 L 17 32 L 18 32 L 31 32 L 32 32 L 32 31 L 32 19 L 32 18 L 31 18 L 27.59375 18 L 27.125 17.78125 C 26.464587 17.450708 26 16.787288 26 16 C 26 15.212712 26.46555 14.549147 27.125 14.21875 L 27.84375 13.875 L 27.625 13.09375 C 27.361333 12.043422 26.979637 10.993578 26.40625 10 C 25.833027 9.0077999 25.12232 8.1285952 24.34375 7.375 L 23.78125 6.8125 L 23.09375 7.28125 C 22.476265 7.6875258 21.682281 7.7375545 21 7.34375 L 20.96875 7.3125 C 20.313728 6.9141267 19.957805 6.2232555 20 5.5 L 20.0625 4.6875 L 19.28125 4.46875 C 18.221774 4.1665101 17.139115 4.0016147 16.03125 4 z M 16 6.09375 C 16.743568 6.094994 17.496434 6.1789884 18.21875 6.34375 C 18.43039 7.4387287 18.959662 8.4620297 20 9.0625 C 21.051304 9.6693001 22.219051 9.5963872 23.28125 9.21875 C 23.787026 9.7597026 24.272234 10.335301 24.65625 11 C 25.044117 11.672106 25.2836 12.377081 25.5 13.09375 C 24.649936 13.824518 24 14.793153 24 16 C 24 16.730627 24.215681 17.411961 24.5625 18 L 21.65625 18 C 21.881622 17.377652 22 16.705076 22 16 C 22 12.698375 19.301625 10 16 10 C 12.698375 10 10 12.698375 10 16 C 10 19.301625 12.698375 22 16 22 C 16.342792 22 16.672388 21.961439 17 21.90625 L 17 25.90625 C 15.908209 26.0067 14.830446 25.922881 13.78125 25.6875 C 13.576012 24.580915 13.049676 23.54336 12 22.9375 C 10.948696 22.3307 9.7809487 22.403613 8.71875 22.78125 C 8.2123197 22.239354 7.7275426 21.664313 7.34375 21 C 6.9558828 20.327894 6.7163996 19.622919 6.5 18.90625 C 7.3500638 18.175482 8 17.206847 8 16 C 8 14.793153 7.3500638 13.824518 6.5 13.09375 C 6.9352583 11.669124 7.7099905 10.370141 8.75 9.25 C 9.8024994 9.6112518 10.96269 9.6613803 12 9.0625 C 13.038384 8.4629996 13.568799 7.4375614 13.78125 6.34375 C 14.522163 6.1740126 15.256432 6.092506 16 6.09375 z M 16 12 C 18.220375 12 20 13.779625 20 16 C 20 16.731332 19.786444 17.405481 19.4375 18 L 18 18 L 17 18 L 17 19 L 17 19.84375 C 16.675857 19.932655 16.352303 20 16 20 C 13.779625 20 12 18.220375 12 16 C 12 13.779625 13.779625 12 16 12 z M 19 20 L 30 20 L 30 21 L 19 21 L 19 20 z M 19 23 L 30 23 L 30 30 L 19 30 L 19 23 z M 26.28125 23.78125 L 24 26.0625 L 22.71875 24.78125 L 21.28125 26.21875 L 23.28125 28.21875 L 24 28.90625 L 24.71875 28.21875 L 27.71875 25.21875 L 26.28125 23.78125 z" overflow="visible" font-family="Bitstream Vera Sans" fill="#000000"/></svg>
