<?xml version="1.0" encoding="utf-8"?>
<svg xmlns="http://www.w3.org/2000/svg" viewBox="0 0 32 32" fill="#000000"><path style="text-indent:0;text-align:start;line-height:normal;text-transform:none;block-progression:tb;-inkscape-font-specification:Bitstream Vera Sans" d="M 14 6 C 11.15751 6 8.5999852 6.3231294 6.65625 6.90625 C 5.6843824 7.1978103 4.8649998 7.5728782 4.21875 8.03125 C 3.5725002 8.4896218 3 9.1354197 3 10 C 3 10.86458 3.5725002 11.510378 4.21875 11.96875 C 4.710106 12.317259 5.3175484 12.622894 6 12.875 L 6 19.15625 C 5.2796786 19.408421 4.6308049 19.689724 4.125 20.0625 C 3.5154115 20.511764 3 21.16607 3 22 C 3 22.864562 3.572503 23.510361 4.21875 23.96875 C 4.864997 24.427139 5.6843877 24.802198 6.65625 25.09375 C 8.5999745 25.676854 11.157445 26 14 26 C 16.842555 26 19.400025 25.676854 21.34375 25.09375 C 22.315612 24.802198 23.135003 24.427139 23.78125 23.96875 C 24.12315 23.726237 24.429489 23.414567 24.65625 23.0625 C 26.171653 23.357565 27.09375 24.59375 27.09375 24.59375 L 27.40625 25 L 27.90625 25 L 28 25 L 29 25 L 29 24 L 29 12 L 29 11.5 L 28.59375 11.1875 C 28.59375 11.1875 28.058152 10.813094 27.15625 10.53125 C 26.617309 10.362831 25.882496 10.192707 25 10.09375 C 25.001553 10.062251 25 10.032101 25 10 C 25 9.1354196 24.4275 8.4896218 23.78125 8.03125 C 23.135 7.5728782 22.315618 7.1978103 21.34375 6.90625 C 19.400015 6.3231294 16.84249 6 14 6 z M 14 8 C 16.680357 8 19.105697 8.3410841 20.78125 8.84375 C 21.619026 9.0950829 22.259195 9.3967917 22.625 9.65625 C 22.990805 9.9157083 23 10.036153 23 10 C 23 9.963847 22.9908 10.08429 22.625 10.34375 C 22.259195 10.603208 21.619026 10.904917 20.78125 11.15625 C 19.105697 11.658916 16.680357 12 14 12 C 11.319642 12 8.8943029 11.658916 7.21875 11.15625 C 6.3809735 10.904917 5.7408053 10.603208 5.375 10.34375 C 5.0091947 10.084292 5 9.9638467 5 10 C 5 10.036153 5.0091947 9.9157083 5.375 9.65625 C 5.7408053 9.3967917 6.3809735 9.0950829 7.21875 8.84375 C 8.8943029 8.3410841 11.319642 8 14 8 z M 14 9 C 11.238576 9 9 9.4477153 9 10 C 9 10.552285 11.238576 11 14 11 C 16.761424 11 19 10.552285 19 10 C 19 9.4477153 16.761424 9 14 9 z M 23.71875 12.03125 C 25.028043 12.090132 25.970083 12.283619 26.5625 12.46875 C 26.927154 12.582704 26.872771 12.593474 27 12.65625 L 27 21.9375 C 26.392201 21.550843 25.642764 21.19814 24.75 21.0625 C 24.542382 20.660598 24.234191 20.327222 23.875 20.0625 C 23.369195 19.689724 22.720321 19.408421 22 19.15625 L 22 12.875 C 22.651802 12.634217 23.240892 12.359976 23.71875 12.03125 z M 8 13.40625 C 9.7215712 13.774275 11.767613 14 14 14 C 16.232387 14 18.278429 13.774275 20 13.40625 L 20 19.90625 C 19.987707 19.910861 19.95083 19.952334 19.84375 20.03125 C 19.629587 20.189081 19.220645 20.417815 18.65625 20.59375 C 17.527461 20.94562 15.848761 21.1875 14 21.1875 C 12.151239 21.1875 10.472539 20.94562 9.34375 20.59375 C 8.7793553 20.417815 8.3704129 20.189081 8.15625 20.03125 C 8.0491686 19.952334 8.0122921 19.910861 8 19.90625 L 8 13.40625 z M 6.4375 21.125 C 6.5981199 21.32705 6.7743353 21.512973 6.96875 21.65625 C 7.4630246 22.020513 8.0476447 22.28106 8.75 22.5 C 10.154711 22.93788 11.982761 23.1875 14 23.1875 C 16.017239 23.1875 17.845289 22.93788 19.25 22.5 C 19.952355 22.28106 20.536975 22.020513 21.03125 21.65625 C 21.225665 21.512973 21.40188 21.32705 21.5625 21.125 C 22.042964 21.313731 22.44995 21.512427 22.6875 21.6875 C 23.019911 21.932486 23 22.03793 23 22 C 23 21.96394 22.9908 22.0843 22.625 22.34375 C 22.259216 22.603204 21.619013 22.904927 20.78125 23.15625 C 19.105725 23.658896 16.680445 24 14 24 C 11.319555 24 8.8942755 23.658896 7.21875 23.15625 C 6.3809873 22.904927 5.7407843 22.603204 5.375 22.34375 C 5.0092157 22.084296 5 21.963938 5 22 C 5 22.03793 4.9800885 21.932486 5.3125 21.6875 C 5.55005 21.512427 5.9570357 21.313731 6.4375 21.125 z" overflow="visible" font-family="Bitstream Vera Sans" fill="#000000"/></svg>
