<?xml version="1.0" encoding="utf-8"?>
<svg xmlns="http://www.w3.org/2000/svg" viewBox="0 0 32 32" fill="#000000"><path style="text-indent:0;text-align:start;line-height:normal;text-transform:none;block-progression:tb;-inkscape-font-specification:Sans" d="M 19.75 2 C 18.079 2 16.4935 2.66075 15.3125 3.84375 L 13.84375 5.3125 C 12.66175 6.4945 12 8.079 12 9.75 C 12 10.544 12.1525 11.31525 12.4375 12.03125 L 14.0625 10.40625 C 13.8585 9.11125 14.253 7.71475 15.25 6.71875 L 16.71875 5.25 C 17.52275 4.444 18.612 4 19.75 4 C 20.887 4 21.946 4.445 22.75 5.25 C 24.41 6.909 24.41 9.62125 22.75 11.28125 L 22.03125 12 C 22.88525 12.002 23.709 12.1085 24.5 12.3125 C 25.475 11.1795 26 9.76 26 8.25 C 26 6.579 25.33825 5.02575 24.15625 3.84375 C 22.97525 2.66075 21.421 2 19.75 2 z M 17.28125 9.28125 L 9.28125 17.28125 L 10.71875 18.71875 L 18.71875 10.71875 L 17.28125 9.28125 z M 9.75 12 C 8.079 12 6.4935 12.66075 5.3125 13.84375 L 3.84375 15.3125 C 2.66175 16.4945 2 18.079 2 19.75 C 2 21.421 2.66175 22.97425 3.84375 24.15625 C 5.02475 25.33925 6.579 26 8.25 26 C 9.761 26 11.1785 25.475 12.3125 24.5 C 12.1085 23.708 12.002 22.88525 12 22.03125 L 11.28125 22.75 C 10.47625 23.555 9.388 24 8.25 24 C 7.113 24 6.054 23.555 5.25 22.75 C 3.59 21.091 3.59 18.37875 5.25 16.71875 L 6.71875 15.25 C 7.52375 14.445 8.612 14 9.75 14 C 9.974 14 10.19125 14.0245 10.40625 14.0625 L 12.03125 12.4375 C 11.31525 12.1525 10.543 12 9.75 12 z M 22 14 C 17.593567 14 14 17.593567 14 22 C 14 26.406433 17.593567 30 22 30 C 26.406433 30 30 26.406433 30 22 C 30 17.593567 26.406433 14 22 14 z M 22 16 C 25.325553 16 28 18.674447 28 22 C 28 25.325553 25.325553 28 22 28 C 18.674447 28 16 25.325553 16 22 C 16 18.674447 18.674447 16 22 16 z M 21 18 L 21 21 L 18 21 L 18 23 L 21 23 L 21 26 L 23 26 L 23 23 L 26 23 L 26 21 L 23 21 L 23 18 L 21 18 z" overflow="visible" font-family="Sans" fill="#000000"/></svg>
