<?xml version="1.0" encoding="utf-8"?>
<svg xmlns="http://www.w3.org/2000/svg" viewBox="0 0 32 32" fill="#000000"><path style="text-indent:0;text-align:start;line-height:normal;text-transform:none;block-progression:tb;-inkscape-font-specification:Bitstream Vera Sans" d="M 5 5 L 5 6 L 5 26 L 5 27 L 6 27 L 26 27 L 27 27 L 27 26 L 27 6 L 27 5 L 26 5 L 6 5 L 5 5 z M 7 7 L 13 7 L 13 25 L 7 25 L 7 7 z M 15 7 L 19 7 L 19 25 L 15 25 L 15 7 z M 21 7 L 25 7 L 25 25 L 21 25 L 21 7 z M 10 9 C 9.4477153 9 9 9.4477153 9 10 C 9 10.552285 9.4477153 11 10 11 C 10.552285 11 11 10.552285 11 10 C 11 9.4477153 10.552285 9 10 9 z M 17 9 C 16.447715 9 16 9.4477153 16 10 C 16 10.552285 16.447715 11 17 11 C 17.552285 11 18 10.552285 18 10 C 18 9.4477153 17.552285 9 17 9 z M 23 9 C 22.447715 9 22 9.4477153 22 10 C 22 10.552285 22.447715 11 23 11 C 23.552285 11 24 10.552285 24 10 C 24 9.4477153 23.552285 9 23 9 z M 10 12 C 9.4477153 12 9 12.447715 9 13 C 9 13.552285 9.4477153 14 10 14 C 10.552285 14 11 13.552285 11 13 C 11 12.447715 10.552285 12 10 12 z M 16 15 L 16 23 L 18 23 L 18 15 L 16 15 z M 22 15 L 22 23 L 24 23 L 24 15 L 22 15 z" fill="#000000"/></svg>
