<?xml version="1.0" encoding="utf-8"?>
<svg xmlns="http://www.w3.org/2000/svg" viewBox="0 0 32 32" fill="#000000"><path style="line-height:normal;text-indent:0;text-align:start;text-decoration-line:none;text-decoration-style:solid;text-decoration-color:#000;text-transform:none;block-progression:tb;isolation:auto;mix-blend-mode:normal" d="M 14.455078 3 L 6 11.589844 L 6 26.285156 C 6 27.763659 7.2068591 29 8.6875 29 L 23.3125 29 C 24.793141 29 26 27.764363 26 26.285156 L 26 5.7148438 C 26 4.2356368 24.793141 3 23.3125 3 L 14.455078 3 z M 8.2929688 4.2929688 L 4.2929688 8.2929688 L 5.7070312 9.7070312 L 9.7070312 5.7070312 L 8.2929688 4.2929688 z M 15.292969 5 L 20.898438 5 L 18.960938 6.9375 L 13.386719 6.9375 L 15.292969 5 z M 23.636719 5.0898438 C 23.851138 5.2063304 24 5.4296735 24 5.7148438 L 24 26.285156 C 24 26.699949 23.695859 27 23.3125 27 L 8.6875 27 C 8.3041409 27 8 26.700653 8 26.285156 L 8 12.410156 L 11.417969 8.9375 L 19.789062 8.9375 L 23.636719 5.0898438 z M 16 11.394531 L 15.216797 12.376953 C 15.216797 12.376953 14.436621 13.357908 13.652344 14.615234 C 12.868067 15.872561 12 17.328571 12 18.849609 C 12 21.109664 13.781919 23 16 23 C 18.218081 23 20 21.109664 20 18.849609 C 20 17.328571 19.131933 15.872561 18.347656 14.615234 C 17.563379 13.357908 16.783203 12.376953 16.783203 12.376953 L 16 11.394531 z M 16 14.742188 C 16.258615 15.100981 16.327169 15.152519 16.652344 15.673828 C 17.368067 16.821252 18 18.289648 18 18.849609 C 18 20.077554 17.081919 21 16 21 C 14.918081 21 14 20.077554 14 18.849609 C 14 18.289648 14.631933 16.821252 15.347656 15.673828 C 15.672831 15.152519 15.741385 15.100981 16 14.742188 z" font-weight="400" font-family="sans-serif" white-space="normal" overflow="visible" fill="#000000"/></svg>
