<?xml version="1.0" encoding="utf-8"?>
<svg xmlns="http://www.w3.org/2000/svg" viewBox="0 0 32 32" fill="#000000"><path style="text-indent:0;text-align:start;line-height:normal;text-transform:none;block-progression:tb;-inkscape-font-specification:Sans" d="M 16 3 C 15.075541 3 14.053783 3.2703999 13.1875 3.53125 C 12.336997 3.7873485 11.712017 4.0532345 11.6875 4.0625 C 11.687045 4.0626719 11.65625 4.0625 11.65625 4.0625 L 8.8125 5 C 8.8125 5 8.4731867 5.0870246 8 5.28125 C 7.123441 5.6410446 5.7614532 6.4275423 5.0625 8.125 C 4.9326302 8.4401792 4.9045624 8.6748627 4.84375 9.03125 C 4.7829376 9.3876373 4.7454928 9.8333176 4.6875 10.3125 C 4.5715144 11.270865 4.4427867 12.433193 4.34375 13.5625 C 4.1456766 15.821115 4 17.9375 4 17.9375 L 4 17.96875 L 4 18 L 4 24 L 4 25 L 5 25 L 8 25 L 8 28 L 8 29 L 9 29 L 23 29 L 24 29 L 24 28 L 24 25 L 27 25 L 28 25 L 28 24 L 28 18 L 28 17.96875 L 28 17.9375 C 28 17.9375 27.873699 15.799504 27.6875 13.53125 C 27.5944 12.397123 27.496435 11.243821 27.375 10.28125 C 27.314282 9.7999643 27.257203 9.3619855 27.1875 9 C 27.117797 8.6380145 27.065187 8.3900863 26.875 8.03125 C 26.051742 6.4762065 24.810191 5.6811576 24 5.3125 L 24 5.28125 L 23.59375 5.15625 C 23.424449 5.0956761 23.371621 5.0774686 23.3125 5.0625 L 20.34375 4.0625 C 20.34375 4.0625 20.31295 4.0626719 20.3125 4.0625 C 20.28798 4.05323 19.663003 3.7873485 18.8125 3.53125 C 17.946217 3.2703999 16.924459 3 16 3 z M 16 5 C 16.433541 5 17.424533 5.2296001 18.21875 5.46875 C 18.42638 5.5312702 18.415548 5.5364668 18.59375 5.59375 C 18.531223 5.6884661 18.486073 5.7754904 18.40625 5.875 C 17.939447 6.4569276 17.279725 7 16 7 C 14.720275 7 14.060553 6.4569276 13.59375 5.875 C 13.513927 5.7754904 13.468777 5.6884661 13.40625 5.59375 C 13.584452 5.5364668 13.57362 5.5312702 13.78125 5.46875 C 14.575467 5.2296001 15.566459 5 16 5 z M 11.4375 6.21875 C 11.58741 6.5031143 11.778046 6.8093504 12.03125 7.125 C 12.767697 8.0430724 14.092725 9 16 9 C 17.907275 9 19.232303 8.0430724 19.96875 7.125 C 20.221954 6.8093504 20.41259 6.5031143 20.5625 6.21875 L 22 6.71875 L 22 27 L 10 27 L 10 6.71875 L 11.4375 6.21875 z M 8 7.53125 L 8 23 L 6 23 L 6 18.0625 L 6 18 C 6.00403 17.94091 6.1506249 15.920939 6.34375 13.71875 C 6.441713 12.601682 6.5449856 11.450604 6.65625 10.53125 C 6.7118822 10.071573 6.7606562 9.6788275 6.8125 9.375 C 6.8643438 9.0711725 6.9613698 8.8170708 6.9375 8.875 C 7.2031074 8.2299535 7.6057314 7.8129158 8 7.53125 z M 24 7.59375 C 24.370431 7.8933284 24.784854 8.326253 25.125 8.96875 C 25.06506 8.8556637 25.16253 9.0830597 25.21875 9.375 C 25.27497 9.6669403 25.31755 10.075833 25.375 10.53125 C 25.489908 11.442085 25.595725 12.569502 25.6875 13.6875 C 25.868442 15.891715 25.996668 17.940999 26 18 C 26.000048 18.000851 26 18.0625 26 18.0625 L 26 23 L 24 23 L 24 7.59375 z" overflow="visible" font-family="Sans" fill="#000000"/></svg>
