<?xml version="1.0" encoding="utf-8"?>
<svg xmlns="http://www.w3.org/2000/svg" viewBox="0 0 32 32" fill="#000000"><path style="text-indent:0;text-align:start;line-height:normal;text-transform:none;block-progression:tb;-inkscape-font-specification:Bitstream Vera Sans" d="M 4 4 L 4 28 L 6 28 L 6 18 C 7.1045695 18 8 17.104569 8 16 C 8 14.895431 7.1045695 14 6 14 L 6 4 L 4 4 z M 28 4 C 21.364481 4 16 9.3644809 16 16 C 16 22.635519 21.364481 28 28 28 L 28 26 C 22.435519 26 18 21.564481 18 16 C 18 10.435519 22.435519 6 28 6 L 28 4 z M 28 8 C 23.570085 8 20 11.570085 20 16 C 20 20.429915 23.570085 24 28 24 L 28 22 C 24.629915 22 22 19.370085 22 16 C 22 12.629915 24.629915 10 28 10 L 28 8 z M 28 12 C 25.790196 12 24 13.790196 24 16 C 24 18.209804 25.790196 20 28 20 L 28 18 C 26.809804 18 26 17.190196 26 16 C 26 14.809804 26.809804 14 28 14 L 28 12 z" overflow="visible" font-family="Bitstream Vera Sans" fill="#000000"/></svg>
