<?xml version="1.0" encoding="utf-8"?>
<svg xmlns="http://www.w3.org/2000/svg" viewBox="0 0 32 32" fill="#000000"><path style="text-indent:0;text-align:start;line-height:normal;text-transform:none;block-progression:tb;-inkscape-font-specification:Sans" d="M 5 6 C 3.9045455 6 3 6.9045455 3 8 L 3 12 C 3 13.095455 3.9045455 14 5 14 L 9 14 L 9 15 L 4 15 A 1.0001 1.0001 0 1 0 4 17 L 9.03125 17 C 10.111991 17 11 16.111991 11 15.03125 L 11 12 A 1.0001 1.0001 0 0 0 11 11.8125 L 11 8 C 11 6.9045455 10.095455 6 9 6 L 5 6 z M 14 6 C 12.904545 6 12 6.9045455 12 8 L 12 12 C 12 13.095455 12.904545 14 14 14 L 18 14 C 19.095455 14 20 13.095455 20 12 L 20 8 C 20 6.9045455 19.095455 6 18 6 L 14 6 z M 23 6 C 21.904545 6 21 6.9045455 21 8 L 21 12 C 21 13.095455 21.904545 14 23 14 L 27 14 L 27 15 L 22 15 A 1.0001 1.0001 0 1 0 22 17 L 27.03125 17 C 28.111991 17 29 16.111991 29 15.03125 L 29 12 A 1.0001 1.0001 0 0 0 29 11.8125 L 29 8 C 29 6.9045455 28.095455 6 27 6 L 23 6 z M 5 8 L 9 8 L 9 11.8125 A 1.0001 1.0001 0 0 0 9 11.9375 L 9 12 L 5 12 L 5 8 z M 14 8 L 18 8 L 18 12 L 14 12 L 14 8 z M 23 8 L 27 8 L 27 11.8125 A 1.0001 1.0001 0 0 0 27 11.9375 L 27 12 L 23 12 L 23 8 z M 23.90625 17.96875 A 1.0001 1.0001 0 0 0 23.78125 18 L 21 18 C 19.904545 18 19 18.904545 19 20 L 19 25 A 1.0001 1.0001 0 1 0 21 25 L 21 20 L 23 20 L 23 25 A 1.0001 1.0001 0 1 0 25 25 L 25 20 L 27 20 L 27 25.03125 A 1.0001 1.0001 0 1 0 29 25.03125 L 29 19 L 29 18 L 28 18 L 24.1875 18 A 1.0001 1.0001 0 0 0 23.90625 17.96875 z M 5 18 C 3.9045455 18 3 18.904545 3 20 L 3 24 C 3 25.095455 3.9045455 26 5 26 L 8 26 A 1.0001 1.0001 0 1 0 8 24 L 5 24 L 5 20 L 8 20 A 1.0001 1.0001 0 1 0 8 18 L 5 18 z M 12 18 C 10.904545 18 10 18.904545 10 20 L 10 24 C 10 25.095455 10.904545 26 12 26 L 16 26 C 17.095455 26 18 25.095455 18 24 L 18 20 C 18 18.904545 17.095455 18 16 18 L 12 18 z M 12 20 L 16 20 L 16 24 L 12 24 L 12 20 z" overflow="visible" font-family="Sans" fill="#000000"/></svg>
