<?xml version="1.0" encoding="utf-8"?>
<svg xmlns="http://www.w3.org/2000/svg" viewBox="0 0 32 32" fill="#000000"><path style="text-indent:0;text-align:start;line-height:normal;text-transform:none;block-progression:tb;-inkscape-font-specification:Sans" d="M 25 4 L 25 13 L 27 13 L 27 4 L 25 4 z M 13 9 C 9.698136 9 7 11.698136 7 15 C 7 16.943782 7.9321694 18.683216 9.375 19.78125 C 6.2154025 21.180341 4 24.331085 4 28 L 6 28 C 6 24.122516 9.1225161 21 13 21 C 16.877484 21 20 24.122516 20 28 L 22 28 C 22 24.331085 19.784597 21.180341 16.625 19.78125 C 18.067831 18.683216 19 16.943782 19 15 C 19 11.698136 16.301864 9 13 9 z M 13 11 C 15.220984 11 17 12.779016 17 15 C 17 17.220984 15.220984 19 13 19 C 10.779016 19 9 17.220984 9 15 C 9 12.779016 10.779016 11 13 11 z M 25 15 L 25 17 L 27 17 L 27 15 L 25 15 z" overflow="visible" font-family="Sans" fill="#000000"/></svg>
