<?xml version="1.0" encoding="utf-8"?>
<svg xmlns="http://www.w3.org/2000/svg" viewBox="0 0 32 32" fill="#000000"><path style="text-indent:0;text-align:start;line-height:normal;text-transform:none;block-progression:tb;-inkscape-font-specification:Sans" d="M 16 4 L 2 11.53125 L 2 13.84375 L 16 6.28125 L 30 13.8125 L 30 11.53125 L 16 4 z M 16 8 L 2 15.53125 L 2 17.84375 L 16 10.28125 L 30 17.8125 L 30 15.53125 L 16 8 z M 16 11.875 L 15.53125 12.125 L 2.53125 19.125 L 2 19.40625 L 2 20 L 2 20.125 L 2 20.65625 L 2.4375 20.96875 C 2.4375 20.96875 3.653281 21.74975 5.90625 22.5 C 8.159219 23.25025 11.51799 24 16 24 C 20.48201 24 23.840781 23.25025 26.09375 22.5 C 28.346719 21.74975 29.5625 20.96875 29.5625 20.96875 L 30 20.65625 L 30 20.125 L 30 20 L 30 19.40625 L 29.46875 19.125 L 16.46875 12.125 L 16 11.875 z M 16 14.125 L 26.90625 20 C 26.419196 20.240605 26.4639 20.29361 25.46875 20.625 C 23.407969 21.31125 20.26299 22 16 22 C 11.73701 22 8.592031 21.31125 6.53125 20.625 C 5.5361004 20.29361 5.5808039 20.240605 5.09375 20 L 16 14.125 z M 2 22.46875 L 2 24.65625 L 2.4375 24.96875 C 2.6215 25.09275 7.052 28 16 28 C 24.948 28 29.3785 25.09275 29.5625 24.96875 L 30 24.65625 L 30 24 L 30 22.5 L 28.4375 23.28125 C 28.3965 23.30825 24.277 26 16 26 C 7.723 26 3.6005 23.3375 3.5625 23.3125 L 2 22.46875 z" overflow="visible" font-family="Sans" fill="#000000"/></svg>
