<?xml version="1.0" encoding="utf-8"?>
<svg xmlns="http://www.w3.org/2000/svg" viewBox="0 0 32 32" fill="#000000"><path style="text-indent:0;text-align:start;line-height:normal;text-transform:none;block-progression:tb;-inkscape-font-specification:Bitstream Vera Sans" d="M 19.5 5 C 17.578848 5 16 6.5788481 16 8.5 C 16 10.421152 17.578848 12 19.5 12 C 21.421152 12 23 10.421152 23 8.5 C 23 6.5788481 21.421152 5 19.5 5 z M 19.5 7 C 20.340272 7 21 7.6597281 21 8.5 C 21 9.3402719 20.340272 10 19.5 10 C 18.659728 10 18 9.3402719 18 8.5 C 18 7.6597281 18.659728 7 19.5 7 z M 15.09375 10.53125 C 14.58698 10.583887 14.094023 10.832823 13.75 11.25 L 11.40625 14.09375 C 10.597909 15.076708 10.94803 16.634258 12.09375 17.1875 L 15.53125 18.875 L 14.625 23.875 L 16.59375 24.21875 L 17.65625 18.46875 L 17.78125 17.71875 L 17.09375 17.375 L 12.9375 15.375 L 15.3125 12.5 L 19.375 15.78125 L 19.65625 16 L 20 16 L 25 16 L 25 14 L 20.34375 14 L 16.5625 10.96875 C 16.139955 10.630318 15.60052 10.478613 15.09375 10.53125 z M 8.5 18 C 6.0295455 18 4 20.029545 4 22.5 C 4 24.970455 6.0295455 27 8.5 27 C 10.970455 27 13 24.970455 13 22.5 C 13 20.029545 10.970455 18 8.5 18 z M 23.5 18 C 21.029545 18 19 20.029545 19 22.5 C 19 24.970455 21.029545 27 23.5 27 C 25.970455 27 28 24.970455 28 22.5 C 28 20.029545 25.970455 18 23.5 18 z M 8.5 20 C 9.8795455 20 11 21.120455 11 22.5 C 11 23.879545 9.8795455 25 8.5 25 C 7.1204545 25 6 23.879545 6 22.5 C 6 21.120455 7.1204545 20 8.5 20 z M 23.5 20 C 24.879545 20 26 21.120455 26 22.5 C 26 23.879545 24.879545 25 23.5 25 C 22.120455 25 21 23.879545 21 22.5 C 21 21.120455 22.120455 20 23.5 20 z" overflow="visible" font-family="Bitstream Vera Sans" fill="#000000"/></svg>
