<?xml version="1.0" encoding="utf-8"?>
<svg xmlns="http://www.w3.org/2000/svg" viewBox="0 0 32 32" fill="#000000"><path style="text-indent:0;text-align:start;line-height:normal;text-transform:none;block-progression:tb;-inkscape-font-specification:Bitstream Vera Sans" d="M 6 6 C 4.3550302 6 3 7.3550302 3 9 L 3 23 C 3 24.64497 4.3550302 26 6 26 L 26 26 C 27.64497 26 29 24.64497 29 23 L 29 9 C 29 7.3550302 27.64497 6 26 6 L 22 6 L 10 6 L 6 6 z M 6 8 L 10 8 L 10 15 C 10 18.301625 12.698375 21 16 21 C 19.301625 21 22 18.301625 22 15 L 22 8 L 26 8 C 26.56503 8 27 8.4349698 27 9 L 27 23 C 27 23.56503 26.56503 24 26 24 L 6 24 C 5.4349698 24 5 23.56503 5 23 L 5 9 C 5 8.4349698 5.4349698 8 6 8 z M 12 8 L 20 8 L 20 15 C 20 17.220375 18.220375 19 16 19 C 13.779625 19 12 17.220375 12 15 L 12 8 z" overflow="visible" font-family="Bitstream Vera Sans" fill="#000000"/></svg>
