<?xml version="1.0" encoding="utf-8"?>
<svg xmlns="http://www.w3.org/2000/svg" viewBox="0 0 32 32" fill="#000000"><path style="line-height:normal;text-indent:0;text-align:start;text-decoration-line:none;text-decoration-style:solid;text-decoration-color:#000;text-transform:none;block-progression:tb;isolation:auto;mix-blend-mode:normal" d="M 10.400391 2.7988281 L 9.6660156 3.0566406 C 8.3103219 3.5357109 4.8427112 5.3100317 1.3574219 8.234375 L 0.94726562 8.578125 L 1.0058594 9.1074219 C 1.0058594 9.1074219 1.3276608 12.078139 2.0234375 15.216797 L 2.1328125 15.705078 L 2.5878906 15.912109 C 3.1867323 16.182649 4.7224176 17.082616 5.3710938 17.511719 C 6.3086088 22.351491 10.557011 26 15.673828 26 C 16.831807 26 17.986063 25.813264 19.056641 25.443359 C 20.094213 26.528192 21.124916 27.666689 22.333984 28.746094 L 22.898438 29.25 L 23.537109 28.84375 C 26.018306 27.26551 29.783344 23.668933 30.945312 20.328125 L 31 20.167969 L 31 20 C 31 18.153135 30.485819 14.840649 28.822266 12.431641 L 28.560547 12.052734 L 28.103516 12.005859 C 27.258616 11.918525 26.175791 11.709475 25.361328 11.462891 C 23.791022 7.6608986 20.012299 5 15.673828 5 C 14.515399 5 13.404735 5.1937626 12.363281 5.5390625 C 11.81786 4.8145962 11.323038 4.1818233 10.832031 3.4453125 L 10.400391 2.7988281 z M 9.6933594 5.2695312 C 9.9587854 5.6364762 10.230866 6.0047061 10.498047 6.3671875 C 7.4375054 8.1034723 5.3471504 11.330759 5.1953125 15.068359 C 4.7711286 14.83216 4.3363312 14.594522 3.9511719 14.400391 C 4.0615786 13.2756 4.6543173 11.949568 5 11.546875 C 4.4941401 10.815447 3.7548952 10.089162 3.0976562 9.5253906 C 3.0964291 9.5149346 3.0889427 9.4642021 3.0878906 9.4550781 C 5.8713155 7.2132196 8.5261803 5.7830024 9.6933594 5.2695312 z M 15.673828 7 C 18.789328 7 21.531546 8.7053889 23 11.214844 L 23 12 L 23 15.857422 C 22.94788 16.125353 22.542161 17.29229 21.671875 18.515625 C 20.791357 19.753344 19.454103 21.117737 17.539062 22.113281 L 16.253906 22.78125 L 17.333984 23.746094 C 17.362738 23.771764 17.389361 23.80033 17.417969 23.826172 C 16.854476 23.939593 16.265079 24 15.673828 24 C 10.937704 24 7.1738281 20.236124 7.1738281 15.5 C 7.1738281 10.763876 10.937704 7 15.673828 7 z M 12.667969 8.8105469 C 12.376844 8.8565469 12.038922 9.0089062 11.732422 9.2539062 C 11.119422 9.7439063 10.813141 10.417156 11.119141 10.785156 C 11.365141 11.153156 12.101844 11.031016 12.714844 10.541016 C 13.327844 10.051016 13.571172 9.3777656 13.326172 9.0097656 C 13.203172 8.8257656 12.959094 8.7645469 12.667969 8.8105469 z M 17.476562 10.263672 C 17.065234 10.266719 16.638281 10.482109 16.332031 10.865234 C 15.842031 11.478234 15.903078 12.336625 16.455078 12.765625 C 17.007078 13.194625 17.804922 13.011437 18.294922 12.398438 C 18.784922 11.786437 18.723875 10.927047 18.171875 10.498047 C 17.964875 10.337172 17.723359 10.261844 17.476562 10.263672 z M 25 13.408203 C 25.708514 13.618007 26.396988 13.76617 27.076172 13.863281 C 27.085984 14.200636 27.077246 14.58829 27 15 C 26.746 16.654 26.445 18.427 26 19 C 26.88112 19.324316 27.957309 19.567995 28.945312 19.847656 C 28.092582 22.033064 25.075504 25.146698 23.046875 26.634766 C 21.895512 25.525386 20.760548 24.326896 19.544922 23.132812 C 21.160349 22.072615 22.462673 20.853885 23.300781 19.675781 C 24.333763 18.22375 24.837376 17.005794 24.984375 16.173828 L 25 16.087891 L 25 13.408203 z M 9 14 L 8 14.335938 C 8 15.500938 8.4386406 19.405312 11.931641 20.570312 C 14.094641 21.421312 16.512609 21.041906 18.974609 19.003906 L 17.408203 17.513672 C 16.156203 18.888672 13.945562 19.179453 12.351562 18.689453 C 9.3485625 17.770453 9.061 15.165 9 14 z" font-weight="400" font-family="sans-serif" white-space="normal" overflow="visible" fill="#000000"/></svg>
