<?xml version="1.0" encoding="utf-8"?>
<svg xmlns="http://www.w3.org/2000/svg" viewBox="0 0 32 32" fill="#000000"><path style="text-indent:0;text-align:start;line-height:normal;text-transform:none;block-progression:tb;-inkscape-font-specification:Bitstream Vera Sans" d="M 2 6 L 2 7 L 2 25 L 2 26 L 3 26 L 29 26 L 30 26 L 30 25 L 30 7 L 30 6 L 29 6 L 3 6 L 2 6 z M 4 8 L 15 8 L 15 11.09375 C 12.727252 11.562087 11 13.594118 11 16 C 11 18.405882 12.727252 20.437913 15 20.90625 L 15 24 L 4 24 L 4 20 L 7 20 L 8 20 L 8 19 L 8 13 L 8 12 L 7 12 L 4 12 L 4 8 z M 17 8 L 28 8 L 28 12 L 25 12 L 24 12 L 24 13 L 24 19 L 24 20 L 25 20 L 28 20 L 28 24 L 17 24 L 17 20.90625 C 19.272748 20.437913 21 18.405882 21 16 C 21 13.594118 19.272748 11.562087 17 11.09375 L 17 8 z M 15 13.15625 L 15 18.84375 C 13.827938 18.436847 13 17.318532 13 16 C 13 14.681468 13.827938 13.563153 15 13.15625 z M 17 13.15625 C 18.172062 13.563153 19 14.681468 19 16 C 19 17.318532 18.172062 18.436847 17 18.84375 L 17 13.15625 z M 4 14 L 6 14 L 6 18 L 4 18 L 4 14 z M 26 14 L 28 14 L 28 18 L 26 18 L 26 14 z" overflow="visible" font-family="Bitstream Vera Sans" fill="#000000"/></svg>
