<?xml version="1.0" encoding="utf-8"?>
<svg xmlns="http://www.w3.org/2000/svg" viewBox="-7 9 32 32" fill="#000000"><path d="M 16 2 C 15.447715 2 15 2.447715 15 3 C 15 3.552285 15.447715 4 16 4 C 16.552285 4 17 3.552285 17 3 C 17 2.447715 16.552285 2 16 2 z M 16 4 C 14.108 4 13.23725 5.80725 13.03125 6.78125 L 12 10.84375 C 11.419 14.42875 9.739 16.259 8.25 17.875 C 8.05 18.092 7.84625 18.31625 7.65625 18.53125 C 7.33825 17.14825 7.085 15.05475 7 12.96875 C 6.975 10.87175 5.217 10.039 4 10 L 3 10 L 3 12 L 3.96875 12 C 4.35775 12.022 5 12.18 5 13 L 5 23 C 5.001 24.428 5.85075 26.46725 8.09375 26.90625 C 9.71775 28.65925 12.312 30 16 30 C 20.547 30 23.429 27.963 24.875 25.625 C 28.98 23.07 29 18.167 29 12 L 29 11 L 22.96875 11 L 23 12.03125 C 23.029 13.88325 22.1945 14.57575 21.5625 14.84375 C 20.8785 13.73975 20.28775 12.417 19.96875 10.75 L 18.96875 6.8125 C 18.77075 5.8445 17.907 4 16 4 z M 16 6 C 16.75 6 17.02025 7.2 17.03125 7.25 L 17.71875 10 L 14.28125 10 L 14.96875 7.25 L 14.96875 7.1875 C 14.97075 7.1755 15.257 6 16 6 z M 13.8125 12 L 18.21875 12 C 19.03575 15.238 20.74825 17.243 22.15625 18.875 C 23.19025 20.072 24 21.029 24 22 C 24 24.42 21.457 28 16 28 C 10.542 28 8 24.42 8 22 C 8 21.142 8.61775 20.41375 9.71875 19.21875 C 11.13275 17.68375 13.0315 15.609 13.8125 12 z M 24.9375 13 L 27 13 C 26.984 16.745 26.86075 19.50175 25.96875 21.46875 C 25.77475 20.01275 24.77825 18.89475 23.65625 17.59375 C 23.35225 17.24175 23.059 16.85075 22.75 16.46875 C 23.749 15.90775 24.6995 14.85 24.9375 13 z" transform="translate(-7 9)" fill="#000000"/></svg>
