<?xml version="1.0" encoding="utf-8"?>
<svg xmlns="http://www.w3.org/2000/svg" viewBox="0 0 32 32" fill="#000000"><path style="text-indent:0;text-align:start;line-height:normal;text-transform:none;block-progression:tb;-inkscape-font-specification:Bitstream Vera Sans" d="M 12 3 C 12 5.1242812 12.370905 6.5874514 13.125 7.59375 C 13.183434 7.6717268 13.249607 7.7417088 13.3125 7.8125 C 13.102601 7.9572518 12.884625 8.1186957 12.6875 8.3125 C 12.382857 8.6118981 12.090244 8.9220551 11.8125 9.25 C 11.646145 9.0689344 11.458023 8.877335 11.25 8.6875 C 10.371679 7.8859743 9.0955807 7 7.5 7 C 5.7454682 7 4.5 7.71875 4.5 7.71875 L 3.84375 8.09375 L 4.03125 8.84375 C 4.6047941 10.967899 6.225789 12.395022 7.875 13.1875 L 8.75 11.375 C 7.7883469 10.912907 7.034087 10.138645 6.5 9.21875 C 6.8452819 9.1069082 6.8822659 9 7.5 9 C 8.2974193 9 9.2148211 9.5252757 9.90625 10.15625 C 10.201299 10.425502 10.444037 10.681997 10.625 10.90625 C 9.6280569 12.517073 9 14.290572 9 16 C 9 16.75 9.3125149 17.107662 9.625 17.59375 C 9.9374851 18.079838 10.3125 18.59375 10.6875 19.09375 C 11.0625 19.59375 11.437485 20.079838 11.6875 20.46875 C 11.875011 20.760434 11.970707 21.039393 12 21.0625 C 11.98258 21.279601 11.794502 21.951084 11.5625 22.65625 C 11.318781 23.39703 11.03125 24.144272 11.03125 24.96875 C 11.03125 25.548573 11.251597 25.978276 11.53125 26.40625 C 11.810903 26.834224 12.186443 27.250768 12.625 27.625 C 13.502114 28.373464 14.660658 28.99933 16 29 C 17.339012 28.999329 18.497812 28.373402 19.375 27.625 C 19.813594 27.250799 20.189008 26.834207 20.46875 26.40625 C 20.748492 25.978293 20.96875 25.548741 20.96875 24.96875 C 20.96875 24.144272 20.681219 23.39703 20.4375 22.65625 C 20.205498 21.951084 20.01742 21.279601 20 21.0625 C 20.029292 21.039393 20.124985 20.760434 20.3125 20.46875 C 20.562515 20.079838 20.9375 19.59375 21.3125 19.09375 C 21.6875 18.59375 22.062515 18.079838 22.375 17.59375 C 22.687485 17.107662 23 16.75 23 16 C 23 14.290572 22.371943 12.517073 21.375 10.90625 C 21.555963 10.681997 21.798701 10.425502 22.09375 10.15625 C 22.785179 9.5252757 23.702581 9 24.5 9 C 25.117734 9 25.154718 9.1069082 25.5 9.21875 C 24.965913 10.138645 24.211653 10.912907 23.25 11.375 L 24.125 13.1875 C 25.774211 12.395022 27.395206 10.967899 27.96875 8.84375 L 28.15625 8.09375 L 27.5 7.71875 C 27.5 7.71875 26.254532 7 24.5 7 C 22.904419 7 21.628321 7.8859743 20.75 8.6875 C 20.541977 8.877335 20.353855 9.0689344 20.1875 9.25 C 19.909756 8.9220551 19.617143 8.6118981 19.3125 8.3125 C 19.115375 8.1186957 18.897399 7.9572518 18.6875 7.8125 C 18.750476 7.7417465 18.816489 7.6716736 18.875 7.59375 C 19.630091 6.5881379 20 5.1299079 20 3 L 18 3 C 18 4.8810921 17.619159 5.9146121 17.25 6.40625 C 16.880841 6.8978879 16.532161 7 16 7 C 15.4705 7 15.120155 6.9002014 14.75 6.40625 C 14.379845 5.9122986 14 4.8747188 14 3 L 12 3 z M 16 9 C 16.779849 9 17.265625 9.088918 17.90625 9.71875 C 19.694747 11.476458 20.973738 14.059801 21 15.9375 C 20.977054 15.9556 20.894268 16.155878 20.78125 16.375 C 20.597981 16.146485 20.315717 16 20 16 C 19.447715 16 19 16.447715 19 17 C 19 17.435872 19.298452 17.769324 19.6875 17.90625 C 19.3125 18.40625 18.937485 18.920162 18.625 19.40625 C 18.312515 19.892338 18 20.25 18 21 C 18 21.825 18.287469 22.54028 18.53125 23.28125 C 18.613934 23.532566 18.684439 23.76584 18.75 24 L 17 24 L 17 26 L 18.1875 26 C 18.15356 26.030627 18.129004 26.063672 18.09375 26.09375 C 17.482688 26.615098 16.657988 26.999671 16 27 C 15.341342 26.99967 14.517136 26.615036 13.90625 26.09375 C 13.871007 26.063676 13.846436 26.030626 13.8125 26 L 15 26 L 15 24 L 13.25 24 C 13.315561 23.76584 13.386066 23.532566 13.46875 23.28125 C 13.712531 22.54028 14 21.825 14 21 C 14 20.25 13.687485 19.892338 13.375 19.40625 C 13.062515 18.920162 12.6875 18.40625 12.3125 17.90625 C 12.701548 17.769324 13 17.435872 13 17 C 13 16.447715 12.552285 16 12 16 C 11.684283 16 11.402019 16.146485 11.21875 16.375 C 11.105733 16.155878 11.022946 15.9556 11 15.9375 C 11.026262 14.059801 12.305253 11.476458 14.09375 9.71875 C 14.734375 9.0889176 15.220151 9 16 9 z" overflow="visible" font-family="Bitstream Vera Sans" fill="#000000"/></svg>
