<?xml version="1.0" encoding="utf-8"?>
<svg xmlns="http://www.w3.org/2000/svg" viewBox="0 0 32 32" fill="#000000"><path style="line-height:normal;text-indent:0;text-align:start;text-decoration-line:none;text-decoration-style:solid;text-decoration-color:#000;text-transform:none;block-progression:tb;isolation:auto;mix-blend-mode:normal" d="M 16 2.25 C 14.388889 2.25 12.791248 2.4862118 11.552734 3.1054688 A 1.0001 1.0001 0 0 0 11.052734 3.6796875 L 9.9296875 7 L 7 7 L 7 9 L 9.3007812 9 A 1.0001 1.0001 0 0 0 9.8378906 9.9121094 L 15.404297 12.818359 A 1.0001 1.0001 0 0 0 16.013672 13.005859 A 1.0001 1.0001 0 0 0 16.021484 13.005859 A 1.0001 1.0001 0 0 0 16.025391 13.005859 A 1.0001 1.0001 0 0 0 16.607422 12.810547 L 22.21875 9.8222656 A 1.0001 1.0001 0 0 0 22.746094 9 L 25 9 L 25 7 L 22.123047 7 L 20.943359 3.6660156 A 1.0001 1.0001 0 0 0 20.447266 3.1054688 C 19.208752 2.4862116 17.611111 2.25 16 2.25 z M 16 4.25 C 17.264373 4.25 18.441329 4.5095085 19.234375 4.8359375 L 20.519531 8.4609375 L 15.996094 10.869141 L 11.521484 8.5351562 L 12.773438 4.8359375 C 13.566878 4.510776 14.738583 4.25 16 4.25 z M 11 13 C 11 13.870807 11.072876 14.474719 11.214844 15 L 9 15 L 9 17 L 11.984375 17 C 12.038717 17.137116 12.063282 17.180903 12.123047 17.34375 A 1.0001 1.0001 0 0 0 12.367188 17.720703 C 13.042816 18.372239 13.841824 18.542272 14.546875 18.722656 C 14.72056 18.767093 14.845962 18.78905 15 18.822266 L 15 26 L 17 26 L 17 18.822266 C 17.154038 18.78905 17.27944 18.767094 17.453125 18.722656 C 18.158176 18.542272 18.957182 18.372239 19.632812 17.720703 A 1.0001 1.0001 0 0 0 19.876953 17.34375 C 19.936718 17.180903 19.961283 17.137116 20.015625 17 L 23 17 L 23 15 L 20.785156 15 C 20.927124 14.474719 21 13.870807 21 13 L 19 13 C 19 13.945333 18.93675 14.27498 18.798828 14.671875 C 18.684128 15.001948 18.423609 15.585588 18.134766 16.322266 C 18.015785 16.388926 17.497594 16.647355 16.958984 16.785156 C 16.446506 16.916271 16.10924 16.963552 16 16.980469 C 15.89076 16.963549 15.553494 16.916269 15.041016 16.785156 C 14.502406 16.647355 13.984215 16.388927 13.865234 16.322266 C 13.576391 15.585588 13.315872 15.001948 13.201172 14.671875 C 13.063251 14.27498 13 13.945333 13 13 L 11 13 z M 10 18.453125 A 1.0001 1.0001 0 0 0 9.5253906 18.582031 A 1.0001 1.0001 0 0 0 9.5214844 18.583984 C 8.9974796 18.648981 8.4686196 18.715176 8.0488281 18.982422 C 7.4925318 19.336568 7 19.950691 7 20.726562 L 7 27.726562 C 7 28.502434 7.4925318 29.116557 8.0488281 29.470703 C 8.6051244 29.82485 9.2755543 30 10 30 A 1.0001 1.0001 0 0 0 10.478516 29.871094 A 1.0001 1.0001 0 0 0 10.480469 29.869141 C 11.003733 29.803931 11.531899 29.737618 11.951172 29.470703 C 12.507421 29.116604 13 28.502434 13 27.726562 L 13 20.726562 C 13 19.950691 12.507468 19.336568 11.951172 18.982422 C 11.394876 18.628275 10.724446 18.453125 10 18.453125 z M 22 18.453125 A 1.0001 1.0001 0 0 0 21.525391 18.582031 A 1.0001 1.0001 0 0 0 21.521484 18.583984 C 20.997476 18.649024 20.46862 18.715176 20.048828 18.982422 C 19.492525 19.336521 19 19.950692 19 20.726562 L 19 27.726562 C 19 28.502434 19.492532 29.116557 20.048828 29.470703 C 20.605124 29.82485 21.275554 30 22 30 A 1.0001 1.0001 0 0 0 22.478516 29.871094 A 1.0001 1.0001 0 0 0 22.480469 29.869141 C 23.003733 29.803931 23.531899 29.737618 23.951172 29.470703 C 24.507421 29.116604 25 28.502434 25 27.726562 L 25 20.726562 C 25 19.950691 24.507468 19.336568 23.951172 18.982422 C 23.394876 18.628275 22.724446 18.453125 22 18.453125 z M 10 20.453125 C 10.380554 20.453125 10.709499 20.563318 10.876953 20.669922 C 10.959224 20.722296 10.989616 20.753135 11 20.763672 L 11 27.689453 C 10.989616 27.69999 10.959225 27.73083 10.876953 27.783203 C 10.709499 27.889808 10.380554 28 10 28 C 9.6194457 28 9.2905006 27.889807 9.1230469 27.783203 C 9.0407763 27.730829 9.010384 27.69999 9 27.689453 L 9 20.763672 C 9.010384 20.753135 9.0407762 20.722295 9.1230469 20.669922 C 9.2905006 20.563318 9.6194457 20.453125 10 20.453125 z M 22 20.453125 C 22.380554 20.453125 22.709499 20.563318 22.876953 20.669922 C 22.959224 20.722296 22.989616 20.753135 23 20.763672 L 23 27.689453 C 22.989616 27.69999 22.959225 27.73083 22.876953 27.783203 C 22.709499 27.889808 22.380554 28 22 28 C 21.619446 28 21.290501 27.889807 21.123047 27.783203 C 21.040776 27.730829 21.010384 27.69999 21 27.689453 L 21 20.763672 C 21.010384 20.753135 21.040775 20.722295 21.123047 20.669922 C 21.290501 20.563318 21.619446 20.453125 22 20.453125 z" fill="#000000"/></svg>
