<?xml version="1.0" encoding="utf-8"?>
<svg xmlns="http://www.w3.org/2000/svg" viewBox="0 0 32 32" fill="#000000"><path style="text-indent:0;text-align:start;line-height:normal;text-transform:none;block-progression:tb;-inkscape-font-specification:Bitstream Vera Sans" d="M 2.5625 5.84375 L 2.3125 6.71875 C 2.3125 6.71875 1 11.387994 1 16 C 1 20.612006 2.3125 25.28125 2.3125 25.28125 L 2.5625 26.15625 L 3.46875 25.96875 C 3.46875 25.96875 9.3201905 24.906866 13.40625 21 L 15 21 L 16 21 L 18.5625 21 C 18.5625 21 20 18.867 20 16 C 20 13.133 18.5625 11 18.5625 11 L 16 11 L 15 11 L 13.40625 11 C 9.2959657 7.0699236 3.46875 6.03125 3.46875 6.03125 L 2.5625 5.84375 z M 29.4375 5.84375 C 24.6495 6.69375 21.5185 8.57625 19.6875 10.03125 C 20.1045 10.73025 20.7935 12.04925 21.1875 13.65625 L 23.75 13.03125 L 24.25 14.96875 L 21.5 15.65625 C 21.504 15.77025 21.5 15.885 21.5 16 C 21.5 16.177 21.47975 16.35725 21.46875 16.53125 L 23.28125 17.03125 L 22.71875 18.96875 L 21.15625 18.5 C 20.75825 20.012 20.11975 21.2605 19.71875 21.9375 C 21.63375 23.4465 24.7855 25.34525 29.4375 26.15625 C 29.4375 26.15625 31 20.504 31 16 C 31 11.496 29.4375 5.84375 29.4375 5.84375 z M 4.03125 8.25 C 5.2171971 8.533419 8.7643286 9.5508046 11.78125 12.3125 C 11.611258 12.684984 11.402815 13.175648 11.25 13.78125 L 8.25 13.03125 L 7.75 14.96875 L 11 15.78125 C 10.998281 15.85865 11 15.920104 11 16 C 11 16.13755 11.026259 16.244807 11.03125 16.375 L 8.71875 17.03125 L 9.28125 18.96875 L 11.3125 18.375 C 11.457604 18.901382 11.627313 19.350195 11.78125 19.6875 C 8.7864974 22.42408 5.2230825 23.460891 4.03125 23.75 C 3.737478 22.573904 3 19.491487 3 16 C 3 12.508513 3.737478 9.4260957 4.03125 8.25 z M 13.625 13 L 15 13 L 15 19 L 13.625 19 C 13.375018 18.438917 13 17.399998 13 16 C 13 14.600002 13.375018 13.561083 13.625 13 z" overflow="visible" font-family="Bitstream Vera Sans" fill="#000000"/></svg>
