<?xml version="1.0" encoding="utf-8"?>
<svg xmlns="http://www.w3.org/2000/svg" viewBox="0 0 32 32" fill="#000000"><path style="text-indent:0;text-align:start;line-height:normal;text-transform:none;block-progression:tb;-inkscape-font-specification:Sans" d="M 16 3.84375 L 15.625 4.0625 A 1.0001 1.0001 0 0 0 15.59375 4.09375 L 15.53125 4.09375 A 1.0001 1.0001 0 0 0 15.5 4.125 L 15.4375 4.15625 A 1.0001 1.0001 0 0 0 15.40625 4.1875 A 1.0001 1.0001 0 0 0 15.375 4.21875 L 7.25 8.71875 L 6.90625 8.90625 L 6.78125 9.28125 L 4.125 18.1875 A 1.0001 1.0001 0 0 0 3.875 19.03125 L 3.84375 19.125 L 3.9375 19.1875 A 1.0001 1.0001 0 0 0 4.78125 19.84375 L 15.21875 27.65625 A 1.0001 1.0001 0 0 0 15.375 27.78125 L 15.40625 27.8125 A 1.0001 1.0001 0 0 0 15.53125 27.90625 L 16 28.25 L 16.40625 27.9375 A 1.0001 1.0001 0 0 0 16.5 27.875 L 16.59375 27.8125 A 1.0001 1.0001 0 0 0 16.65625 27.78125 L 27.28125 19.8125 A 1.0001 1.0001 0 0 0 28.03125 19.21875 L 28.15625 19.125 L 28.125 18.96875 A 1.0001 1.0001 0 0 0 27.875 18.1875 L 25.21875 9.28125 L 25.09375 8.90625 L 24.75 8.71875 L 16.53125 4.125 A 1.0001 1.0001 0 0 0 16.5 4.125 L 16 3.84375 z M 16 6.84375 L 21.65625 15.71875 L 16 19.75 L 10.34375 15.71875 L 16 6.84375 z M 13.03125 7.8125 L 8.25 15.3125 L 6.78125 16.34375 L 8.59375 10.28125 L 13.03125 7.8125 z M 18.96875 7.8125 L 23.40625 10.28125 L 25.21875 16.34375 L 23.75 15.3125 L 18.96875 7.8125 z M 14.34375 12 C 14.29275 12.153 14.227 12.30425 14.125 12.40625 C 14.023 12.50825 13.93425 12.60525 13.78125 12.65625 C 13.62825 12.75825 13.4655 12.7615 13.3125 12.8125 C 13.2175 12.8445 13.109 12.871 13 12.875 L 13 13.46875 L 14 13.46875 L 14 17 L 15 17 L 15 12 L 14.34375 12 z M 17.5 12 C 16.675 12 16 12.675 16 13.5 L 16 15.5 C 16 16.325 16.675 17 17.5 17 C 18.325 17 19 16.325 19 15.5 L 19 13.5 C 19 12.675 18.325 12 17.5 12 z M 17.5 13 C 17.771 13 18 13.229 18 13.5 L 18 15.5 C 18 15.771 17.771 16 17.5 16 C 17.229 16 17 15.771 17 15.5 L 17 13.5 C 17 13.229 17.229 13 17.5 13 z M 8.96875 17.21875 L 15 21.53125 L 15 25 L 6.6875 18.78125 L 8.96875 17.21875 z M 23.03125 17.21875 L 25.3125 18.78125 L 17 25 L 17 21.53125 L 23.03125 17.21875 z" overflow="visible" font-family="Sans" fill="#000000"/></svg>
