<?xml version="1.0" encoding="utf-8"?>
<svg xmlns="http://www.w3.org/2000/svg" viewBox="0 0 32 32" fill="#000000"><path d="M 8.5 4 C 7.2918771 4 6.2956157 4.8607922 6.0625 6 C 6.0415409 5.9993503 6.0211168 6 6 6 C 4.8954305 6 4 6.8954305 4 8 C 4 8.9216252 4.6206361 9.7057229 5.46875 9.9375 C 5.1784154 10.569667 5 11.262089 5 12 L 5 15 L 7 15 L 7 12 C 7 10.331516 8.3315161 9 10 9 C 11.668484 9 13 10.331516 13 12 C 13 13.835345 12.34161 14.320784 11.4375 14.9375 C 10.985445 15.245858 10.467513 15.526243 9.96875 15.96875 C 9.4699866 16.411257 9 17.141085 9 18 L 11 18 C 11 17.733415 11.03001 17.691649 11.28125 17.46875 C 11.532487 17.245851 12.014555 16.967517 12.5625 16.59375 C 13.315924 16.07982 14.186348 15.258972 14.65625 14 L 16.4375 14 C 16.414369 12.587066 15.662305 11.781234 14.9375 11.3125 C 14.776203 10.170471 14.238275 9.1357216 13.4375 8.375 C 13.780892 8.0158944 14 7.5360971 14 7 C 14 5.8954305 13.104569 5 12 5 C 11.528654 5 11.091853 5.1647233 10.75 5.4375 C 10.348633 4.5932197 9.4970333 4 8.5 4 z M 11 11 C 10.447715 11 10 11.447715 10 12 C 10 12.552285 10.447715 13 11 13 C 11.552285 13 12 12.552285 12 12 C 12 11.447715 11.552285 11 11 11 z M 23 11 L 23 12 L 23 15 L 20 15 L 19 15 L 19 16 L 19 19 L 16 19 L 15 19 L 15 20 L 15 23 L 12 23 L 11 23 L 11 24 L 11 28 L 13 28 L 13 25 L 16 25 L 17 25 L 17 24 L 17 21 L 20 21 L 21 21 L 21 20 L 21 17 L 24 17 L 25 17 L 25 16 L 25 13 L 28 13 L 28 11 L 24 11 L 23 11 z" fill="#000000"/></svg>
