<?xml version="1.0" encoding="utf-8"?>
<svg xmlns="http://www.w3.org/2000/svg" viewBox="0 0 32 32" fill="#000000"><path style="text-indent:0;text-align:start;line-height:normal;text-transform:none;block-progression:tb;-inkscape-font-specification:Bitstream Vera Sans" d="M 16 6 C 9.9365932 6 5 10.936593 5 17 L 5 19 L 5 22 C 5 23.64497 6.3550302 25 8 25 L 9 25 L 9.78125 25 C 11.2495 26.828363 13.481724 28 16 28 C 18.518276 28 20.7505 26.828363 22.21875 25 L 23 25 L 24 25 C 25.64497 25 27 23.64497 27 22 L 27 19 L 27 17 C 27 10.936593 22.063407 6 16 6 z M 16 8 C 20.982593 8 25 12.017407 25 17 L 23.40625 17 C 22.21164 14.080876 19.340585 12 16 12 C 12.659415 12 9.7883601 14.080876 8.59375 17 L 7 17 C 7 12.017407 11.017407 8 16 8 z M 16.9375 14.09375 C 17.627771 14.200657 18.284833 14.399065 18.875 14.71875 L 18.90625 14.71875 L 18.96875 15.84375 L 18.28125 15.53125 L 17.71875 16.03125 L 17.8125 17.375 L 19.25 16.9375 L 21 17.5 L 20.5625 18.3125 L 19.46875 17.65625 L 18.3125 17.8125 L 17.1875 18.6875 L 16.5625 20.65625 L 17.84375 21.71875 C 17.84375 21.71875 19.14775 21.46875 19.21875 21.46875 C 19.28975 21.46875 19.75 22.65625 19.75 22.65625 L 18.9375 25.25 C 18.073207 25.731072 17.063757 26 16 26 C 15.616326 26 15.238234 25.94309 14.875 25.875 L 14.53125 25.3125 L 15.25 22.65625 L 12.59375 20.6875 L 10.15625 20.6875 L 10.03125 20.40625 C 10.022535 20.273259 10 20.135282 10 20 C 10 19.628684 10.029882 19.258515 10.09375 18.90625 L 11.28125 17.96875 L 13.90625 16.71875 L 13.5 15 L 14.625 14.71875 L 15.1875 15.46875 L 17.15625 15.09375 L 16.9375 14.09375 z M 7 19 L 8 19 L 8 23 C 7.4349698 23 7 22.56503 7 22 L 7 19 z M 24 19 L 25 19 L 25 22 C 25 22.56503 24.56503 23 24 23 L 24 19 z M 11.53125 24 L 11.96875 24 L 12.90625 25.15625 C 12.3844 24.844944 11.934026 24.449947 11.53125 24 z" overflow="visible" font-family="Bitstream Vera Sans" fill="#000000"/></svg>
