<?xml version="1.0" encoding="utf-8"?>
<svg xmlns="http://www.w3.org/2000/svg" viewBox="4 -4 32 32" fill="#000000"><path style="text-indent:0;text-align:start;line-height:normal;text-transform:none;block-progression:tb;-inkscape-font-specification:Bitstream Vera Sans" d="M 8 6 C 6.7079825 6 5.6057181 6.8442551 5.1875 8 L 2 8 L 2 10 L 5.1875 10 C 5.6057181 11.155745 6.7079825 12 8 12 C 9.2920175 12 10.394282 11.155745 10.8125 10 L 13.1875 10 C 13.605718 11.155745 14.707983 12 16 12 C 17.292017 12 18.394282 11.155745 18.8125 10 L 21.1875 10 C 21.605718 11.155745 22.707983 12 24 12 C 25.292017 12 26.394282 11.155745 26.8125 10 L 30 10 L 30 8 L 26.8125 8 C 26.394282 6.8442551 25.292017 6 24 6 C 22.707983 6 21.605718 6.8442551 21.1875 8 L 18.8125 8 C 18.394282 6.8442551 17.292017 6 16 6 C 14.707983 6 13.605718 6.8442551 13.1875 8 L 10.8125 8 C 10.394282 6.8442551 9.2920175 6 8 6 z M 8 8 C 8.564129 8 9 8.4358709 9 9 C 9 9.5641291 8.564129 10 8 10 C 7.435871 10 7 9.5641291 7 9 C 7 8.4358709 7.435871 8 8 8 z M 16 8 C 16.564129 8 17 8.4358709 17 9 C 17 9.5641291 16.564129 10 16 10 C 15.435871 10 15 9.5641291 15 9 C 15 8.4358709 15.435871 8 16 8 z M 24 8 C 24.564129 8 25 8.4358709 25 9 C 25 9.5641291 24.564129 10 24 10 C 23.435871 10 23 9.5641291 23 9 C 23 8.4358709 23.435871 8 24 8 z M 9.8125 16.28125 L 3.8125 22.28125 L 3.09375 23 L 3.8125 23.71875 L 9.8125 29.71875 L 11.21875 28.28125 L 6.9375 24 L 28 24 L 28 22 L 6.9375 22 L 11.21875 17.71875 L 9.8125 16.28125 z" transform="translate(4 -4)" fill="#000000"/></svg>
