<?xml version="1.0" encoding="utf-8"?>
<svg xmlns="http://www.w3.org/2000/svg" viewBox="0 0 32 32" fill="#000000"><path style="text-indent:0;text-align:start;line-height:normal;text-transform:none;block-progression:tb;-inkscape-font-specification:Sans" d="M 16 2.25 L 15.1875 3.4375 C 15.1875 3.4375 14.648128 4.1913546 14.125 5.09375 C 13.863436 5.5449477 13.617642 6.0190835 13.40625 6.5 C 13.194858 6.9809165 13 7.4219697 13 8 C 13 9.6454545 14.354545 11 16 11 C 17.645455 11 19 9.6454545 19 8 C 19 7.4219697 18.805142 6.9809165 18.59375 6.5 C 18.382358 6.0190835 18.136564 5.5449477 17.875 5.09375 C 17.351872 4.1913546 16.8125 3.4375 16.8125 3.4375 L 16 2.25 z M 16 11 L 14 11 L 13 11 L 13 12 L 13 23 L 7 23 L 6 23 L 6 24 C 6 26.749516 8.2504839 29 11 29 L 21 29 C 23.749516 29 26 26.749516 26 24 L 26 23 L 25 23 L 19 23 L 19 12 L 19 11 L 18 11 L 16 11 z M 16 5.875 C 16.06572 5.9839175 16.05811 5.978371 16.125 6.09375 C 16.363436 6.5050523 16.617642 6.9402915 16.78125 7.3125 C 16.944858 7.6847085 17 8.0280303 17 8 C 17 8.5545455 16.554545 9 16 9 C 15.445455 9 15 8.5545455 15 8 C 15 8.0280303 15.055142 7.6847085 15.21875 7.3125 C 15.382358 6.9402915 15.636564 6.5050523 15.875 6.09375 C 15.941886 5.978371 15.934283 5.9839175 16 5.875 z M 15 13 L 17 13 L 17 23 L 15 23 L 15 13 z M 8.40625 25 L 23.59375 25 C 23.157201 26.113595 22.276662 27 21 27 L 11 27 C 9.7233383 27 8.8427993 26.113595 8.40625 25 z" overflow="visible" font-family="Sans" fill="#000000"/></svg>
