<?xml version="1.0" encoding="utf-8"?>
<svg xmlns="http://www.w3.org/2000/svg" viewBox="0 0 32 32" fill="#000000"><path style="text-indent:0;text-align:start;line-height:normal;text-transform:none;block-progression:tb;-inkscape-font-specification:Bitstream Vera Sans" d="M 2 7 L 2 8 L 2 24 L 2 25 L 3 25 L 29 25 L 30 25 L 30 24 L 30 8 L 30 7 L 29 7 L 3 7 L 2 7 z M 4 9 L 22 9 L 22 15 L 21 15 L 20 15 L 20 16 C 20 16.554545 19.554545 17 19 17 L 18 17 L 18 15 L 16 15 L 16 17 L 14 17 L 14 15 L 12 15 L 12 17 L 10 17 L 10 15 L 8 15 L 8 17 L 7 17 C 6.4454545 17 6 16.554545 6 16 L 6 15 L 5 15 L 4 15 L 4 9 z M 24 9 L 28 9 L 28 23 L 24 23 L 24 9 z M 26 11 C 25.447715 11 25 11.447715 25 12 C 25 12.552285 25.447715 13 26 13 C 26.552285 13 27 12.552285 27 12 C 27 11.447715 26.552285 11 26 11 z M 26 14 C 25.447715 14 25 14.447715 25 15 C 25 15.552285 25.447715 16 26 16 C 26.552285 16 27 15.552285 27 15 C 27 14.447715 26.552285 14 26 14 z M 4 17 L 4.40625 17 C 4.8481602 18.109611 5.7409595 19 7 19 L 19 19 C 20.25904 19 21.15184 18.109611 21.59375 17 L 22 17 L 22 23 L 4 23 L 4 17 z" fill="#000000"/></svg>
