<?xml version="1.0" encoding="utf-8"?>
<svg xmlns="http://www.w3.org/2000/svg" viewBox="0 0 32 32" fill="#000000"><path style="line-height:normal;text-indent:0;text-align:start;text-decoration-line:none;text-decoration-style:solid;text-decoration-color:#000;text-transform:none;block-progression:tb;isolation:auto;mix-blend-mode:normal" d="M 25.193359 3.0644531 L 22.716797 3.9921875 C 21.434451 4.47248 20.36586 5.3889665 19.681641 6.5722656 C 19.680787 6.5719608 19.680541 6.5706171 19.679688 6.5703125 C 19.664687 6.5963125 19.646812 6.6185312 19.632812 6.6445312 L 19.632812 6.6464844 C 19.630773 6.6501372 19.627032 6.6525922 19.625 6.65625 L 18.988281 7.7695312 L 18.658203 8.3476562 L 17.800781 9.8476562 L 17.800781 9.8496094 C 17.786916 9.852026 17.773757 9.853099 17.759766 9.8554688 C 17.502276 9.8985008 17.230764 9.9347118 16.947266 9.9589844 C 16.940484 9.9595522 16.934538 9.9603811 16.927734 9.9609375 C 16.925854 9.9610949 16.923757 9.960781 16.921875 9.9609375 C 16.625296 9.9856103 16.316106 10 16 10 C 15.683894 10 15.374703 9.9856105 15.078125 9.9609375 C 15.076099 9.9607729 15.074289 9.9611031 15.072266 9.9609375 C 15.064789 9.9603116 15.058242 9.9596246 15.050781 9.9589844 C 14.770103 9.9349003 14.501284 9.8999105 14.246094 9.8574219 C 14.21578 9.8523012 14.187927 9.8451815 14.158203 9.8398438 C 13.950835 9.8032182 13.757104 9.7614516 13.572266 9.7148438 C 13.504538 9.6973732 13.436538 9.6804788 13.373047 9.6621094 C 13.283241 9.6366139 13.205715 9.6075965 13.123047 9.5800781 C 12.890986 9.5017395 12.69607 9.420647 12.535156 9.3398438 C 12.489422 9.3162012 12.430695 9.2927682 12.390625 9.2695312 C 12.218581 9.1715764 12.086557 9.0763404 12.027344 9.0019531 C 12.028661 9.0001972 12.031281 8.9980127 12.03125 8.9980469 C 12.031219 8.998081 12.035156 8.9941006 12.035156 8.9941406 C 11.998936 9.0345206 11.970753 9.0663532 12.064453 8.9726562 C 12.072153 8.9643262 12.060313 8.97888 12.070312 8.96875 L 12.068359 8.9667969 C 12.378262 8.6310889 13.717055 8 16 8 C 16.195 8 16.372688 8.0105312 16.554688 8.0195312 L 17.640625 6.1035156 C 17.100625 6.0345156 16.547 6 16 6 C 13.715063 6 11.298963 6.5891251 10.384766 7.8535156 C 10.139539 8.144212 9.7426971 8.6403668 9.2558594 9.3320312 C 8.9677113 9.7414116 8.6817775 10.175075 8.4511719 10.601562 C 8.3502101 10.788284 8.2571802 10.964789 8.1777344 11.152344 C 6.2337601 13.562901 5 16.707435 5 20 C 5 24.952275 10.024347 29 16 29 C 21.965634 29 27 25.021822 27 20 C 27 16.706095 25.765548 13.561721 23.820312 11.150391 C 23.739669 10.961307 23.645586 10.783363 23.542969 10.59375 C 23.309485 10.162327 23.019041 9.718566 22.724609 9.3007812 C 22.430178 8.8829967 22.132916 8.4944189 21.890625 8.1894531 C 21.787631 8.0598166 21.732229 8.0046727 21.660156 7.9160156 C 21.583861 7.802576 21.495544 7.6947233 21.396484 7.5917969 C 21.848507 6.7978161 22.561121 6.1861597 23.417969 5.8652344 L 23.419922 5.8652344 L 25.894531 4.9355469 L 25.193359 3.0644531 z M 21.191406 10.609375 C 21.416057 10.93564 21.63745 11.271995 21.785156 11.544922 C 21.897582 11.752658 21.9504 11.942887 21.976562 12.011719 C 21.978659 12.019843 21.986647 12.038559 21.988281 12.044922 C 21.988281 12.044922 21.988281 12.046875 21.988281 12.046875 C 21.97819 12.142402 21.935699 12.264803 21.738281 12.464844 C 21.512009 12.69412 21.105374 12.967961 20.556641 13.203125 C 19.73354 13.555871 18.6041 13.827518 17.324219 13.941406 C 16.897592 13.979369 16.454301 14 16 14 C 14.182796 14 12.540826 13.673453 11.443359 13.203125 C 10.894626 12.967961 10.487991 12.69412 10.261719 12.464844 C 10.148583 12.350206 10.084021 12.258767 10.046875 12.183594 C 10.019202 12.127591 10.016027 12.087659 10.011719 12.046875 C 10.011719 12.046875 10.011719 12.044922 10.011719 12.044922 C 10.011719 12.044922 10.011719 12.042969 10.011719 12.042969 C 10.017402 12.033875 10.024996 12.004632 10.037109 11.96875 C 10.038151 11.965012 10.039896 11.960938 10.041016 11.957031 C 10.072584 11.863486 10.126273 11.709318 10.210938 11.552734 C 10.35988 11.277276 10.583673 10.939664 10.810547 10.611328 C 10.980186 10.755469 11.19119 10.877039 11.402344 10.998047 C 11.426499 11.012784 11.453951 11.024727 11.478516 11.039062 C 11.656992 11.137064 11.835563 11.233974 12.037109 11.316406 C 12.057054 11.324684 12.073559 11.335675 12.09375 11.34375 C 12.243108 11.403481 12.410303 11.450048 12.570312 11.501953 C 12.672701 11.534691 12.767062 11.574144 12.873047 11.603516 C 13.790254 11.861737 14.852083 12 16 12 C 17.147917 12 18.209746 11.861737 19.126953 11.603516 C 19.232938 11.574144 19.327299 11.534691 19.429688 11.501953 C 19.589697 11.450048 19.756892 11.403481 19.90625 11.34375 C 19.926477 11.335661 19.94291 11.3247 19.962891 11.316406 C 20.164437 11.233974 20.343008 11.137064 20.521484 11.039062 C 20.546069 11.024701 20.573481 11.012812 20.597656 10.998047 C 20.80965 10.876557 21.021273 10.754182 21.191406 10.609375 z M 8.8652344 13.894531 C 9.1043806 14.132556 9.3755952 14.342463 9.6757812 14.53125 C 9.9749248 14.721391 10.303087 14.889665 10.65625 15.041016 C 12.092283 15.656438 13.951204 16 16 16 C 18.048796 16 19.907717 15.656438 21.34375 15.041016 C 21.696913 14.889665 22.025075 14.721391 22.324219 14.53125 C 22.624405 14.342463 22.89562 14.132556 23.134766 13.894531 C 24.211759 15.725283 25 17.794324 25 20 C 25 23.644178 21.080366 27 16 27 C 10.929653 27 7 23.547725 7 20 C 7 17.794963 7.7885283 15.725179 8.8652344 13.894531 z" font-weight="400" font-family="sans-serif" white-space="normal" overflow="visible" fill="#000000"/></svg>
