<?xml version="1.0" encoding="utf-8"?>
<svg xmlns="http://www.w3.org/2000/svg" viewBox="0 0 32 32" fill="#000000"><path style="text-indent:0;text-align:start;line-height:normal;text-transform:none;block-progression:tb;-inkscape-font-specification:Bitstream Vera Sans" d="M 13.28125 4 C 10.820855 4 8.7179682 4.7858732 7.25 6.1875 C 5.7820318 7.5891268 5 9.5878077 5 11.84375 C 5 13.546492 5.6529811 14.859447 6.3125 16.03125 C 6.9720189 17.203053 7.6374261 18.253254 8 19.5625 C 8.4361817 21.176516 8.7425472 23.106091 9.25 24.71875 C 9.5037264 25.525079 9.8100597 26.257524 10.28125 26.875 C 10.75244 27.492476 11.503147 28 12.375 28 C 13.209938 28 14.043687 27.566965 14.46875 26.90625 C 14.893813 26.245535 15 25.464425 15 24.625 C 15 23.593333 14.9981 21.985233 15.21875 20.71875 C 15.329088 20.085508 15.516728 19.560347 15.6875 19.28125 C 15.858272 19.002153 15.865893 19 16 19 C 16.134107 19 16.14105 19.0018 16.3125 19.28125 C 16.48395 19.560712 16.670015 20.085542 16.78125 20.71875 C 17.003719 21.985166 17 23.594634 17 24.625 C 17 25.464425 17.106435 26.245605 17.53125 26.90625 C 17.956065 27.566895 18.790329 28 19.625 28 C 20.500434 28 21.24873 27.495775 21.71875 26.875 C 22.18877 26.254225 22.496527 25.496107 22.75 24.6875 C 23.256946 23.070285 23.565009 21.150145 24 19.5625 C 24.362582 18.253226 25.027999 17.20315 25.6875 16.03125 C 26.347001 14.85935 27 13.546076 27 11.84375 C 27.05147 7.3065537 23.592142 4 19.0625 4 C 17.74506 4 16.190176 4.4879057 15.9375 4.5625 C 15.125751 4.2427109 14.239656 4 13.28125 4 z M 13.28125 6 C 15.596907 6 18.25 8.4375 18.25 8.4375 L 19.65625 7 C 19.65625 7 18.994532 6.480171 18.53125 6.09375 C 18.74101 6.0643114 18.925607 6 19.0625 6 C 22.682858 6 25.04053 8.2396963 25 11.8125 L 25 11.84375 C 25 13.056424 24.584749 13.9679 23.96875 15.0625 C 23.352751 16.1571 22.519918 17.379524 22.0625 19.03125 C 21.586491 20.768605 21.282304 22.694715 20.84375 24.09375 C 20.624473 24.793268 20.354043 25.353744 20.125 25.65625 C 19.895957 25.958756 19.820066 26 19.625 26 C 19.321671 26 19.319935 25.969855 19.21875 25.8125 C 19.117565 25.655145 19 25.243575 19 24.625 C 19 23.605366 19.020281 21.913584 18.75 20.375 C 18.61486 19.605708 18.426519 18.863038 18.03125 18.21875 C 17.635981 17.574462 16.884393 17 16 17 C 15.115607 17 14.363196 17.574097 13.96875 18.21875 C 13.574304 18.863403 13.384037 19.605742 13.25 20.375 C 12.981925 21.913517 13 23.606667 13 24.625 C 13 25.243575 12.882437 25.655215 12.78125 25.8125 C 12.680063 25.969785 12.679062 26 12.375 26 C 12.176353 26 12.102872 25.954867 11.875 25.65625 C 11.647128 25.357633 11.375274 24.821046 11.15625 24.125 C 10.718203 22.732909 10.412318 20.788234 9.9375 19.03125 C 9.4800739 17.379496 8.6472311 16.156947 8.03125 15.0625 C 7.4152689 13.968053 7 13.057008 7 11.84375 C 7 10.044692 7.6072182 8.6266232 8.65625 7.625 C 9.7052818 6.6233768 11.231645 6 13.28125 6 z" overflow="visible" font-family="Bitstream Vera Sans" fill="#000000"/></svg>
