<?xml version="1.0" encoding="utf-8"?>
<svg xmlns="http://www.w3.org/2000/svg" viewBox="0 0 32 32" fill="#000000"><path style="text-indent:0;text-align:start;line-height:normal;text-transform:none;block-progression:tb;-inkscape-font-specification:Sans" d="M 15.5 0 C 15.5 2.9605947e-16 14.71875 0.842 14.71875 2.125 C 14.71875 3.506 15.71875 4.25 15.71875 4.25 C 15.71875 4.25 16.4385 3.789 16.4375 2.125 C 16.4375 0.71 15.5 0 15.5 0 z M 23.75 0.84375 C 23.75 0.84375 22.47925 1.1315 21.65625 2.3125 C 20.77025 3.5845 21.1875 4.90625 21.1875 4.90625 C 21.1875 4.90625 22.181 4.93825 23.25 3.40625 C 24.158 2.10325 23.75 0.84375 23.75 0.84375 z M 9 1.96875 C 9 1.96875 8.7975 2.87225 9.3125 3.78125 C 9.8665 4.76125 10.84375 4.90625 10.84375 4.90625 C 10.84375 4.90625 11.19825 4.27375 10.53125 3.09375 C 9.96325 2.09075 9 1.96875 9 1.96875 z M 26.8125 5.59375 C 26.467875 5.63775 26.02325 5.78575 25.59375 6.09375 C 24.66875 6.75675 24.65625 7.78125 24.65625 7.78125 C 24.65625 7.78125 25.3215 8.08025 26.4375 7.28125 C 27.3855 6.60225 27.40625 5.59375 27.40625 5.59375 C 27.40625 5.59375 27.157125 5.54975 26.8125 5.59375 z M 16 6 C 10.488997 6 6 10.488997 6 16 C 6 21.511003 10.488997 26 16 26 C 21.511003 26 26 21.511003 26 16 C 26 10.488997 21.511003 6 16 6 z M 4.59375 6.625 C 4.59375 6.625 4.6715 7.57025 5.4375 8.28125 C 6.2625 9.04625 7.25 8.875 7.25 8.875 C 7.25 8.875 7.40025 8.173 6.40625 7.25 C 5.56025 6.466 4.59375 6.625 4.59375 6.625 z M 16 8 C 20.430123 8 24 11.569877 24 16 C 24 20.430123 20.430123 24 16 24 C 11.569877 24 8 20.430123 8 16 C 8 11.569877 11.569877 8 16 8 z M 15.96875 10 C 15.13575 10 14.346 10.16175 13.625 10.46875 C 13.85 10.58375 14.355 10.625 14.5 10.625 C 14.656 10.625 14.875 10.734 14.875 10.875 C 14.875 11.234 14.203 11.482 13.875 11.5 C 13.512 11.519 13.31225 11.78125 13.03125 11.78125 C 12.82825 11.78125 12.71875 11.64375 12.71875 11.46875 C 12.71875 11.29275 12.90625 11.1365 12.90625 11.0625 C 12.90625 11.0275 12.8625 10.9755 12.8125 10.9375 C 12.4335 11.1765 12.065 11.435 11.75 11.75 C 11.788 11.817 11.96875 12.19175 11.96875 12.34375 C 11.96875 12.51075 11.824 12.5625 11.75 12.5625 C 11.637 12.5625 11.621 12.5 11.5 12.5 C 11.39 12.5 11.2305 12.73925 10.9375 12.78125 C 10.4785 13.49925 10.1805 14.3055 10.0625 15.1875 C 10.1775 15.2445 10.427 15.39425 10.625 15.53125 C 10.894 15.71625 11.046 16.22375 11.25 16.34375 C 11.454 16.46475 11.99425 16.681 12.03125 16.875 C 12.06825 17.07 11.82825 17.3305 11.78125 17.5625 C 11.73525 17.7945 11.6835 17.917 11.5625 18 C 11.4415 18.083 11.2895 18.148 11.1875 18.25 C 11.1105 18.327 10.896 18.66575 10.75 18.84375 C 11.769 20.70675 13.69575 22 15.96875 22 C 18.61375 22 20.85825 20.28225 21.65625 17.90625 C 21.60625 17.80925 21.53125 17.67675 21.53125 17.59375 C 21.53125 17.45575 21.65625 17.21975 21.65625 16.96875 C 21.65625 16.71775 21.426 16.15625 21 16.15625 C 20.436 16.15625 20.488 16.96875 20.25 16.96875 C 19.861 16.96875 19.888 15.59375 19.375 15.59375 C 19.188 15.59375 18.98225 15.85525 18.78125 16.03125 C 18.61225 16.17925 18.21875 16.1985 18.21875 16.6875 C 18.21875 17.1015 17.375 17.1855 17.375 18.0625 C 17.375 18.3255 17.01875 18.65575 16.84375 18.84375 C 16.66875 19.03175 16.464 19.71875 15.875 19.71875 C 15.549 19.71875 15.21875 19.039 15.21875 18.375 C 15.21875 17.986 15.375 17.901 15.375 17.5 C 15.375 17.099 15.18325 16.375 14.40625 16.375 C 14.00525 16.375 13.625 16.14625 13.625 15.28125 C 13.625 14.45425 14.5 14.44625 14.5 13.65625 C 14.5 13.44325 15 13.225 15 13.125 C 15 13.025 14.8125 12.8005 14.8125 12.6875 C 14.8125 12.5745 14.98075 12.46875 15.09375 12.46875 C 15.20675 12.46875 15.49375 12.71875 15.59375 12.71875 C 15.69375 12.71875 15.73125 12.438 15.78125 12.25 C 15.83125 12.062 16.49225 11.71875 16.78125 11.71875 C 17.06925 11.71875 17.81775 12.09375 18.21875 12.09375 C 18.61975 12.09375 19.824 11.90625 20.25 11.90625 C 20.285 11.93925 20.36525 11.957 20.40625 12 C 19.30925 10.789 17.73275 10 15.96875 10 z M 15.46875 13.6875 C 15.446875 13.698375 15.4375 13.73775 15.4375 13.78125 C 15.4375 13.78125 15.85325 14.366 16.15625 14.5 C 16.42625 14.619 16.506 14.5545 16.625 14.5625 C 16.744 14.5705 16.833 14.65625 17 14.65625 C 17.166 14.65625 17.21875 14.58625 17.21875 14.53125 C 17.21875 14.47625 17.1285 14.375 16.9375 14.375 C 16.7475 14.376 16.59725 14.15275 16.40625 14.09375 C 16.21625 14.03475 15.73675 13.6875 15.59375 13.6875 C 15.52225 13.6875 15.490625 13.676625 15.46875 13.6875 z M 17.71875 18.46875 C 17.76875 18.46375 17.81275 18.461 17.84375 18.5 C 17.87075 18.532 17.878 18.583 17.875 18.625 C 17.866 18.788 17.81775 18.9335 17.71875 19.0625 C 17.67775 19.1165 17.6295 19.1915 17.5625 19.1875 C 17.5075 19.1845 17.4595 19.14475 17.4375 19.09375 C 17.4145 19.04375 17.39825 18.9915 17.40625 18.9375 C 17.43225 18.7505 17.56475 18.48375 17.71875 18.46875 z M 24.875 23.1875 C 24.768281 23.193625 24.71875 23.21875 24.71875 23.21875 C 24.71875 23.21875 24.58775 23.9035 25.59375 24.8125 C 26.44975 25.5845 27.40625 25.40625 27.40625 25.40625 C 27.40625 25.40625 27.30725 24.48125 26.53125 23.78125 C 25.90425 23.21575 25.195156 23.169125 24.875 23.1875 z M 8.4375 23.875 C 8.1553125 23.864453 7.49375 23.9045 6.78125 24.40625 C 5.82825 25.07925 5.8125 26.0625 5.8125 26.0625 C 5.8125 26.0625 6.791 26.24375 7.625 25.59375 C 8.513 24.90275 8.5625 23.875 8.5625 23.875 C 8.5625 23.875 8.5315625 23.878516 8.4375 23.875 z M 12.3125 26.1875 C 12.3125 26.1875 11.354 26.14825 10.25 27.65625 C 9.311 28.93825 9.75 30.28125 9.75 30.28125 C 9.75 30.28125 10.92425 29.98125 11.78125 28.78125 C 12.68325 27.51925 12.3125 26.1875 12.3125 26.1875 z M 22.625 27.34375 C 22.625 27.34375 22.2695 27.97525 22.9375 29.15625 C 23.5055 30.15925 24.46875 30.28125 24.46875 30.28125 C 24.46875 30.28125 24.7025 29.3465 24.1875 28.4375 C 23.6335 27.4575 22.625 27.34375 22.625 27.34375 z M 16.71875 27.375 C 16.71875 27.375 15.85575 27.99725 15.71875 29.65625 C 15.60175 31.06625 16.5625 32 16.5625 32 C 16.5625 32 17.50875 31.17 17.59375 29.75 C 17.69975 28.001 16.71875 27.375 16.71875 27.375 z" overflow="visible" font-family="Sans" fill="#000000"/></svg>
