<?xml version="1.0" encoding="utf-8"?>
<svg xmlns="http://www.w3.org/2000/svg" viewBox="0 0 32 32" fill="#000000"><path style="text-indent:0;text-align:start;line-height:normal;text-transform:none;block-progression:tb;-inkscape-font-specification:Sans" d="M 4 5 L 4 6 L 4 26 L 4 27 L 5 27 L 17 27 L 17 25 L 6 25 L 6 11 L 26 11 L 26 17 L 28 17 L 28 6 L 28 5 L 27 5 L 5 5 L 4 5 z M 6 7 L 26 7 L 26 9 L 6 9 L 6 7 z M 9 14 L 9 16 L 11 16 L 11 14 L 9 14 z M 13 14 L 13 16 L 23 16 L 23 14 L 13 14 z M 9 18 L 9 20 L 11 20 L 11 18 L 9 18 z M 13 18 L 13 20 L 19 20 L 19 18 L 13 18 z M 21 18 L 21 19 L 21 27 L 20 27 L 19 27 L 19 28 L 19 29 C 19 30.64497 20.35503 32 22 32 L 29 32 C 30.64497 32 32 30.64497 32 29 L 32 19 L 32 18 L 31 18 L 22 18 L 21 18 z M 23 20 L 30 20 L 30 29 C 30 29.56503 29.56503 30 29 30 C 28.43497 30 28 29.56503 28 29 L 28 28 L 28 27 L 23 27 L 23 20 z M 21 29 L 26 29 C 26 29.352983 26.073236 29.684242 26.1875 30 L 22 30 C 21.43497 30 21 29.56503 21 29 z" fill="#000000"/></svg>
