<?xml version="1.0" encoding="utf-8"?>
<svg xmlns="http://www.w3.org/2000/svg" viewBox="0 0 32 32" fill="#000000"><path d="M 16 4 C 9.383 4 4 9.383 4 16 C 4 20.43 6.419 24.297 10 26.375 L 10 23.96875 C 7.577 22.14275 6 19.261 6 16 C 6 10.486 10.486 6 16 6 C 21.514 6 26 10.486 26 16 C 26 19.261 24.423 22.14175 22 23.96875 L 22 26.375 C 25.581 24.296 28 20.43 28 16 C 28 9.382 22.617 4 16 4 z M 13 10 C 11.677032 10 10.68077 10.934417 10.03125 12 C 9.3817303 13.065583 9 14.349094 9 15.65625 C 9 16.963406 9.4093907 18.108536 10.15625 18.875 C 10.662023 19.394049 11.311185 19.714763 12 19.875 L 12 29 L 14 29 L 14 19.875 C 14.688815 19.714763 15.337977 19.394049 15.84375 18.875 C 15.914471 18.802422 15.966642 18.704184 16.03125 18.625 C 16.552541 19.212393 17.219594 19.640892 18 19.84375 L 18 29 L 20 29 L 20 19.84375 C 21.719857 19.396692 23 17.853231 23 16 L 23 10 L 21 10 L 21 16 C 21 17.116666 20.116666 18 19 18 C 17.883334 18 17 17.116666 17 16 L 17 10 L 15 10 L 15 10.8125 C 14.451353 10.327795 13.779713 10 13 10 z M 18 10 L 18 15 C 18 15.552 18.448 16 19 16 C 19.552 16 20 15.552 20 15 L 20 10 L 18 10 z M 13 12 C 13.334032 12 13.84502 12.315583 14.28125 13.03125 C 14.71748 13.746917 15 14.754406 15 15.65625 C 15 16.558094 14.745141 17.120964 14.40625 17.46875 C 14.067359 17.816536 13.602389 18 13 18 C 12.397611 18 11.932641 17.816536 11.59375 17.46875 C 11.254859 17.120964 11 16.558094 11 15.65625 C 11 14.754406 11.28252 13.746917 11.71875 13.03125 C 12.15498 12.315583 12.665968 12 13 12 z" fill="#000000"/></svg>
