<?xml version="1.0" encoding="utf-8"?>
<svg xmlns="http://www.w3.org/2000/svg" viewBox="0 0 32 32" fill="#000000"><path style="text-indent:0;text-align:start;line-height:normal;text-transform:none;block-progression:tb;-inkscape-font-specification:Bitstream Vera Sans" d="M 5.59375 7 L 5.28125 7.28125 L 4.28125 8.28125 L 4 8.59375 L 4 9 L 4 12 L 4 13 L 5 13 L 5 14 L 4 14 L 3 14 L 3 15 L 3 26 L 3 27 L 4 27 L 7.40625 27 C 7.8481602 28.109611 8.7409595 29 10 29 L 12 29 C 13.294335 29 14.208367 28.064828 14.625 26.90625 L 27.90625 26.90625 L 28.90625 26.90625 L 28.90625 25.90625 L 28.90625 16.09375 C 28.90625 13.627083 27.168853 11.37689 24.65625 11 C 22.346706 10.670065 20.339624 12.057358 19.46875 14 L 17 14 L 17 13 L 18 13 L 18 12 L 18 9 L 18 8.59375 L 17.71875 8.28125 L 16.71875 7.28125 L 16.40625 7 L 16 7 L 6 7 L 5.59375 7 z M 6.4375 9 L 15.5625 9 L 16 9.4375 L 16 11 L 6 11 L 6 9.4375 L 6.4375 9 z M 23.75 12.96875 C 23.938728 12.959457 24.145047 12.971614 24.34375 13 C 25.831147 13.22311 26.90625 14.560417 26.90625 16.09375 L 26.90625 24.90625 L 14 24.90625 L 13 24.90625 L 13 25.90625 L 13 26 C 13 26.554545 12.554545 27 12 27 L 10 27 C 9.4454545 27 9 26.554545 9 26 L 9 25 L 8 25 L 5 25 L 5 16 L 6 16 L 20.09375 16 L 20.875 16 L 21.0625 15.25 C 21.395389 13.985019 22.428906 13.033799 23.75 12.96875 z M 7 13 L 15 13 L 15 14 L 7 14 L 7 13 z M 24 14 C 23.447715 14 23 14.447715 23 15 C 23 15.552285 23.447715 16 24 16 C 24.552285 16 25 15.552285 25 15 C 25 14.447715 24.552285 14 24 14 z M 23 18 C 21.707982 18 20.605718 18.844255 20.1875 20 L 19 20 L 19 22 L 20.1875 22 C 20.605718 23.155745 21.707982 24 23 24 C 24.64501 24 26 22.64501 26 21 C 26 19.35499 24.64501 18 23 18 z M 23 20 C 23.564128 20 24 20.435872 24 21 C 24 21.564128 23.564128 22 23 22 C 22.435872 22 22 21.564128 22 21 C 22 20.435872 22.435872 20 23 20 z" overflow="visible" font-family="Bitstream Vera Sans" fill="#000000"/></svg>
