<?xml version="1.0" encoding="utf-8"?>
<svg xmlns="http://www.w3.org/2000/svg" viewBox="0 0 32 32" fill="#000000"><path d="M 6 3 C 4.8954305 3 4 3.8954305 4 5 C 4 5.2519799 4.0399493 5.4966852 4.125 5.71875 C 3.5753215 6.5522436 3 7.6900997 3 9 C 3 10.706083 4.0341352 11.819 4.78125 12.40625 C 4.3042839 13.717406 4 15.228658 4 17 C 4 17 3.989667 18.896307 4.65625 21.0625 C 5.3228334 23.228693 6.7156381 25.808442 9.625 26.9375 L 9.65625 26.90625 C 11.171809 28.679713 13.35112 30 16 30 C 18.64888 30 20.828191 28.679713 22.34375 26.90625 L 22.375 26.9375 C 25.284362 25.808442 26.677167 23.228693 27.34375 21.0625 C 28.010333 18.896307 28 17 28 17 C 28 15.228658 27.695716 13.717406 27.21875 12.40625 C 27.965865 11.819 29 10.706083 29 9 C 29 7.6900997 28.424678 6.5522436 27.875 5.71875 C 27.960051 5.4966852 28 5.2519799 28 5 C 28 3.8954305 27.104569 3 26 3 C 24.895431 3 24 3.8954305 24 5 C 24 6.1045695 24.895431 7 26 7 C 26.085279 7 26.16753 6.979109 26.25 6.96875 C 26.653277 7.6120336 27 8.3931232 27 9 C 27 9.6189029 26.658218 10.112019 26.3125 10.46875 C 25.149103 8.5566342 23.533671 7.2653844 21.9375 6.46875 C 18.948292 4.9768633 16 5 16 5 C 16 5 13.051708 4.9768633 10.0625 6.46875 C 8.4663292 7.2653844 6.8508967 8.5566342 5.6875 10.46875 C 5.3417821 10.112019 5 9.6189029 5 9 C 5 8.3931232 5.3467227 7.6120336 5.75 6.96875 C 5.8324702 6.979109 5.9147207 7 6 7 C 7.1045695 7 8 6.1045695 8 5 C 8 3.8954305 7.1045695 3 6 3 z M 16 7 C 16 7 18.551708 6.9968867 21.0625 8.25 C 23.573292 9.5031133 26 11.822728 26 17 C 26 17 26.0044 18.626443 25.4375 20.46875 C 25.258321 21.051027 25.019451 21.6271 24.71875 22.1875 C 24.892393 21.447874 25 20.707548 25 20 C 25 18.049841 24.534729 16.172795 23.71875 14.6875 C 22.902771 13.202205 21.638745 12 20 12 C 19.21147 12 18.532486 12.298359 18.03125 12.6875 C 17.530014 13.076641 17.184535 13.539666 16.90625 13.9375 C 16.627965 14.335334 16.385328 14.669515 16.21875 14.84375 C 16.052172 15.017985 16.054775 15 16 15 C 15.94523 15 15.94783 15.01798 15.78125 14.84375 C 15.614672 14.669515 15.372035 14.335334 15.09375 13.9375 C 14.815465 13.539666 14.469986 13.076641 13.96875 12.6875 C 13.467514 12.298359 12.78853 12 12 12 C 10.361255 12 9.0972287 13.202205 8.28125 14.6875 C 7.4652713 16.172795 7 18.049841 7 20 C 7 20.707548 7.1076067 21.447874 7.28125 22.1875 C 6.9805492 21.6271 6.7416789 21.051027 6.5625 20.46875 C 5.9955834 18.626443 6 17 6 17 C 6 11.822728 8.4267082 9.5031133 10.9375 8.25 C 13.448292 6.9968867 16 7 16 7 z M 12 14 C 12.34897 14 12.526704 14.07664 12.75 14.25 C 12.973296 14.423359 13.22241 14.710334 13.46875 15.0625 C 13.71509 15.414666 13.941297 15.830485 14.3125 16.21875 C 14.683703 16.607015 15.290775 17 16 17 C 16.709225 17 17.316297 16.607015 17.6875 16.21875 C 18.058703 15.830485 18.28491 15.414666 18.53125 15.0625 C 18.77759 14.710334 19.026704 14.423359 19.25 14.25 C 19.473296 14.076641 19.65103 14 20 14 C 20.636255 14 21.353479 14.505045 21.96875 15.625 C 22.584021 16.744955 23 18.371159 23 20 C 23 21.613886 22.300439 23.715431 21.0625 25.3125 C 19.824561 26.909569 18.131611 28 16 28 C 13.868389 28 12.175439 26.909569 10.9375 25.3125 C 9.6995611 23.715431 9 21.613886 9 20 C 9 18.371159 9.4159787 16.744955 10.03125 15.625 C 10.646521 14.505045 11.363745 14 12 14 z M 12.5 18 C 11.671573 18 11 18.671573 11 19.5 C 11 20.328427 11.671573 21 12.5 21 C 13.328427 21 14 20.328427 14 19.5 C 14 18.671573 13.328427 18 12.5 18 z M 19.5 18 C 18.671573 18 18 18.671573 18 19.5 C 18 20.328427 18.671573 21 19.5 21 C 20.328427 21 21 20.328427 21 19.5 C 21 18.671573 20.328427 18 19.5 18 z" fill="#000000"/></svg>
