<?xml version="1.0" encoding="utf-8"?>
<svg xmlns="http://www.w3.org/2000/svg" viewBox="0 0 32 32" fill="#000000"><path style="text-indent:0;text-align:start;line-height:normal;text-transform:none;block-progression:tb;-inkscape-font-specification:Bitstream Vera Sans" d="M 16 4 C 13.802706 4 12 5.8027056 12 8 C 12 8.7324313 12.214051 9.4074074 12.5625 10 L 6 10 L 5 10 L 5 11 L 5 23 L 5 24 L 6 24 L 26 24 L 27 24 L 27 23 L 27 11 L 27 10 L 26 10 L 19.4375 10 C 19.785949 9.4074074 20 8.7324313 20 8 C 20 5.8027056 18.197294 4 16 4 z M 16 6 C 17.116414 6 18 6.883586 18 8 C 18 9.116414 17.116414 10 16 10 C 14.883586 10 14 9.116414 14 8 C 14 6.883586 14.883586 6 16 6 z M 7 12 L 25 12 L 25 22 L 19 22 L 19 21.625 L 21 20.625 L 21 15 C 21 14.288 20.8325 13.614 20.5625 13 L 18.21875 13 C 18.69775 13.532 19 14.229 19 15 L 19 19.375 L 17 20.375 L 17 22 L 15 22 L 15 20.375 L 13 19.375 L 13 15 C 13 14.229 13.30225 13.532 13.78125 13 L 11.4375 13 C 11.1675 13.614 11 14.288 11 15 L 11 20.625 L 13 21.625 L 13 22 L 7 22 L 7 12 z M 13 25 L 13 28 L 19 28 L 19 25 L 17 25 L 17 26 L 15 26 L 15 25 L 13 25 z" overflow="visible" font-family="Bitstream Vera Sans" fill="#000000"/></svg>
