<?xml version="1.0" encoding="utf-8"?>
<svg xmlns="http://www.w3.org/2000/svg" viewBox="0 0 32 32" fill="#000000"><path style="text-indent:0;text-align:start;line-height:normal;text-transform:none;block-progression:tb;-inkscape-font-specification:Sans" d="M 4 4 L 4 5 L 4 27 L 4 28 L 5 28 L 17.09375 28 C 18.482487 30.385609 21.055246 32 24 32 C 28.4 32 32 28.4 32 24 C 32 21.055246 30.385609 18.482487 28 17.09375 L 28 5 L 28 4 L 27 4 L 5 4 L 4 4 z M 6 6 L 26 6 L 26 8 L 6 8 L 6 6 z M 6 10 L 26 10 L 26 16.28125 C 25.356768 16.113103 24.694028 16 24 16 C 20.294028 16 17.179122 18.56527 16.28125 22 L 6 22 L 6 10 z M 24 18 C 27.3 18 30 20.7 30 24 C 30 27.3 27.3 30 24 30 C 20.7 30 18 27.3 18 24 C 18 20.7 20.7 18 24 18 z M 21.6875 20.3125 L 20.3125 21.6875 L 22.59375 24 L 20.3125 26.3125 L 21.6875 27.6875 L 24 25.40625 L 26.3125 27.6875 L 27.6875 26.3125 L 25.40625 24 L 27.6875 21.6875 L 26.3125 20.3125 L 24 22.59375 L 21.6875 20.3125 z M 6 24 L 16 24 C 16 24.694028 16.113103 25.356768 16.28125 26 L 6 26 L 6 24 z" overflow="visible" font-family="Sans" fill="#000000"/></svg>
