<?xml version="1.0" encoding="utf-8"?>
<svg xmlns="http://www.w3.org/2000/svg" viewBox="0 0 32 32" fill="#000000"><path style="text-indent:0;text-align:start;line-height:normal;text-transform:none;block-progression:tb;-inkscape-font-specification:Bitstream Vera Sans" d="M 27 4.28125 L 25.78125 4.53125 L 11.78125 7.46875 L 11 7.625 L 11 8.4375 L 11 12.4375 L 11 13.65625 L 11 19.5625 C 10.407407 19.214051 9.7324313 19 9 19 C 6.8027056 19 5 20.802706 5 23 C 5 25.197294 6.8027056 27 9 27 C 11.197294 27 13 25.197294 13 23 L 13 13.25 L 25 10.75 L 25 17.5625 C 24.407407 17.214051 23.732431 17 23 17 C 20.802706 17 19 18.802706 19 21 C 19 23.197294 20.802706 25 23 25 C 25.197294 25 27 23.197294 27 21 L 27 10.3125 L 27 9.5 L 27 7.5 L 27 5.5 L 27 4.28125 z M 25 6.75 L 25 7.5 L 25 8.6875 L 13 11.21875 L 13 9.25 L 25 6.75 z M 23 19 C 24.116414 19 25 19.883586 25 21 C 25 22.116414 24.116414 23 23 23 C 21.883586 23 21 22.116414 21 21 C 21 19.883586 21.883586 19 23 19 z M 9 21 C 10.116414 21 11 21.883586 11 23 C 11 24.116414 10.116414 25 9 25 C 7.883586 25 7 24.116414 7 23 C 7 21.883586 7.883586 21 9 21 z" overflow="visible" font-family="Bitstream Vera Sans" fill="#000000"/></svg>
