<?xml version="1.0" encoding="utf-8"?>
<svg xmlns="http://www.w3.org/2000/svg" viewBox="0 0 32 32" fill="#000000"><path d="M 27.84375 2.28125 L 25.15625 3.1875 L 21.1875 9.34375 L 25.21875 6.5625 L 27.84375 2.28125 z M 28.84375 5.375 L 20.875 10.96875 L 25.125 10.46875 L 28.21875 8.3125 L 28.84375 5.375 z M 22.3125 5.5 L 19.09375 6.90625 L 15.125 13.3125 C 14.833494 13.430458 14.585728 13.526643 14.40625 13.65625 C 13.73325 14.14225 8.7685 18.207 7.4375 19.375 C 6.6174627 20.095353 6.4736673 21.076404 6.65625 21.96875 C 6.6564442 21.972182 6.6713732 21.963171 6.40625 22.09375 C 6.1007821 22.244197 5.5335633 22.4375 4.5625 22.4375 L 4.5625 24.4375 C 5.8014367 24.4375 6.6852179 24.168553 7.28125 23.875 C 7.365027 23.833739 7.4254617 23.763667 7.5 23.71875 C 7.5236104 23.746771 7.5386935 23.786254 7.5625 23.8125 C 7.2937392 24.187842 7.1221541 24.595983 6.96875 25 C 6.6951016 25.720701 6.53125 26.38346 6.53125 26.96875 L 8.53125 26.96875 C 8.53125 26.82304 8.6526484 26.190799 8.84375 25.6875 C 9.0124466 25.243208 9.2371071 24.918926 9.34375 24.8125 C 10.178736 25.018174 11.182845 24.926166 12.09375 24 C 12.926792 23.152996 20.577726 15.306254 21.84375 14 C 23.356093 13.756272 23.906883 13.660727 25.3125 13.4375 L 27.125 11.46875 C 25.515775 11.574524 21.266403 11.913049 18.03125 12.53125 L 22.3125 5.5 z M 19.3125 14.40625 C 18.298952 15.40307 11.569936 21.997676 10.8125 22.875 C 10.3875 23.367 9.1705 23.06675 8.8125 22.71875 C 8.4855 22.40075 8.21075 21.5155 8.84375 20.8125 C 9.53275 20.1465 16.09375 14.90625 16.09375 14.90625 C 16.09375 14.90625 18.287424 14.57223 19.3125 14.40625 z" fill="#000000"/></svg>
