<?xml version="1.0" encoding="utf-8"?>
<svg xmlns="http://www.w3.org/2000/svg" viewBox="0 0 32 32" fill="#000000"><path style="text-indent:0;text-align:start;line-height:normal;text-transform:none;block-progression:tb;-inkscape-font-specification:Sans" d="M 13.46875 3 C 12.327314 3 11.419506 3.6550403 10.75 4.4375 C 10.080494 5.2199597 9.5823642 6.1938734 9.1875 7.125 C 8.4526824 8.8577686 8.173731 10.303239 8.125 10.53125 C 8.12182 10.53695 8.097079 10.52555 8.09375 10.53125 C 7.7870193 11.059157 6.8605177 11.524316 5.875 11.75 C 4.8787847 11.978134 4 12 4 12 L 3 12 L 3 13 L 3 13.0625 L 3 13.65625 L 3.53125 13.9375 C 3.53125 13.9375 4.4773476 14.416502 6 15 L 6 19 C 6 20.329238 6.979907 21.267633 8.1875 21.65625 C 8.4288769 23.685946 9.5275607 25.469177 10.96875 26.71875 C 12.574174 28.110721 14.392155 29 16 29 C 17.607845 29 19.425826 28.110721 21.03125 26.71875 C 22.472439 25.469177 23.571123 23.685946 23.8125 21.65625 C 25.020093 21.267633 26 20.329238 26 19 L 26 15 C 27.522652 14.416502 28.46875 13.9375 28.46875 13.9375 L 29 13.65625 L 29 13.0625 L 29 13 L 29 12 L 28 12 C 28 12 27.121215 11.97813 26.125 11.75 C 25.139482 11.524316 24.212981 11.059157 23.90625 10.53125 C 23.906126 10.530668 23.87513 10.531852 23.875 10.53125 C 23.826269 10.303239 23.547318 8.8577686 22.8125 7.125 C 22.417636 6.1938734 21.919506 5.2199597 21.25 4.4375 C 20.580494 3.6550403 19.672686 3 18.53125 3 C 17.555823 3 16.652833 3.3393795 16 3.90625 C 15.347167 3.3393795 14.444177 3 13.46875 3 z M 13.46875 5 C 14.377166 5 15 5.7870878 15 6 L 17 6 C 17 5.7870878 17.622834 5 18.53125 5 C 18.900314 5 19.296475 5.2199597 19.75 5.75 C 20.203525 6.2800403 20.621489 7.0561266 20.96875 7.875 C 21.378333 8.8408337 21.63855 9.6943407 21.8125 10.34375 C 20.874335 10.612268 19.046612 11 16 11 C 12.953388 11 11.125665 10.612268 10.1875 10.34375 C 10.36145 9.6943407 10.621667 8.8408337 11.03125 7.875 C 11.378511 7.0561266 11.796475 6.2800403 12.25 5.75 C 12.703525 5.2199597 13.099686 5 13.46875 5 z M 9.375 12.15625 C 10.443776 12.478647 12.634456 13 16 13 C 19.365544 13 21.556224 12.478647 22.625 12.15625 C 23.183756 12.750213 23.905857 13.092 24.625 13.34375 C 22.460415 14.150095 19.549507 15 16 15 C 12.450493 15 9.5395845 14.150095 7.375 13.34375 C 8.0941426 13.092001 8.8162442 12.750213 9.375 12.15625 z M 10 16.25 C 11.80518 16.681857 13.843608 17 16 17 C 18.156391 17 20.19482 16.681857 22 16.25 L 22 17.625 L 23.4375 16.90625 L 24 16.625 L 24 19 C 24 19.56503 23.56503 20 23 20 L 22 20 L 22 21 C 22 22.528792 21.035326 24.045971 19.71875 25.1875 C 18.402174 26.329029 16.704155 27 16 27 C 15.295845 27 13.597826 26.329029 12.28125 25.1875 C 10.964674 24.045971 10 22.528792 10 21 L 10 20 L 9 20 C 8.4349698 20 8 19.56503 8 19 L 8 16.625 L 8.5625 16.90625 L 10 17.625 L 10 16.25 z M 10.96875 17 C 10.96875 17 10.55175 20 12.96875 20 C 14.30175 20 14.96875 19 14.96875 19 L 10.96875 17 z M 20.96875 17 L 16.96875 19 C 16.96875 19 17.63575 20 18.96875 20 C 21.38575 20 20.96875 17 20.96875 17 z M 14 22 C 13.448 22 13 22.448 13 23 C 13 23 12.9935 23.155 13.0625 23.375 C 13.0655 23.381 13.09075 23.40025 13.09375 23.40625 C 13.28075 23.98825 13.896 25 16 25 C 18.104 25 18.71925 23.98825 18.90625 23.40625 C 18.90925 23.40025 18.9355 23.381 18.9375 23.375 C 19.0065 23.155 19 23 19 23 C 19 22.448 18.552 22 18 22 L 17.5 23 L 17 22 L 16.5 23 L 16 22 L 15.5 23 L 15 22 L 14.5 23 L 14 22 z" overflow="visible" font-family="Sans" fill="#000000"/></svg>
