<?xml version="1.0" encoding="utf-8"?>
<svg xmlns="http://www.w3.org/2000/svg" viewBox="0 0 32 32" fill="#000000"><path style="text-indent:0;text-align:start;line-height:normal;text-transform:none;block-progression:tb;-inkscape-font-specification:Sans" d="M 16 4.875 L 15.53125 5.125 L 4.6875 11 L 1 11 L 0 11 L 0 12 L 0 26 L 0 27 L 1 27 L 31 27 L 32 27 L 32 26 L 32 12 L 32 11 L 31 11 L 27.3125 11 L 16.46875 5.125 L 16 4.875 z M 16 7.125 L 23.125 11 L 8.875 11 L 16 7.125 z M 2 13 L 30 13 L 30 25 L 2 25 L 2 13 z M 5.5 15 C 4.1309372 15 3 16.130937 3 17.5 L 3 20.5 C 3 21.869063 4.1309372 23 5.5 23 C 6.8690628 23 8 21.869063 8 20.5 L 8 20 L 6 20 L 6 20.5 C 6 20.786937 5.7869372 21 5.5 21 C 5.2130628 21 5 20.786937 5 20.5 L 5 17.5 C 5 17.213063 5.2130628 17 5.5 17 C 5.7869372 17 6 17.213063 6 17.5 L 6 18 L 8 18 L 8 17.5 C 8 16.130937 6.8690628 15 5.5 15 z M 9 15 L 9 22 L 9 23 L 10 23 L 12 23 L 12 21 L 11 21 L 11 15 L 9 15 z M 15.5 15 C 14.130937 15 13 16.130937 13 17.5 L 13 20.5 C 13 21.869063 14.130937 23 15.5 23 C 16.869063 23 18 21.869063 18 20.5 L 18 19 L 18 18 L 18 17.5 C 18 16.130937 16.869063 15 15.5 15 z M 21.5 15 C 20.130937 15 19 16.130937 19 17.5 C 19 18.869063 20.130937 20 21.5 20 C 21.786937 20 22 20.213063 22 20.5 C 22 20.864232 21.93915 21 21.5 21 C 21.120705 21 21.068225 20.91215 21.0625 20.90625 C 21.056775 20.900353 21 20.866336 21 20.625 L 19 20.625 C 19 21.192664 19.156725 21.830147 19.625 22.3125 C 20.093275 22.794853 20.775295 23 21.5 23 C 22.908848 23 24 21.791768 24 20.5 C 24 19.130937 22.869063 18 21.5 18 C 21.213063 18 21 17.786937 21 17.5 C 21 17.213063 21.213063 17 21.5 17 C 21.77034 17 21.844119 17.05675 21.90625 17.125 C 21.968381 17.19325 22 17.320536 22 17.40625 L 24 17.40625 C 24 16.839964 23.805369 16.254 23.375 15.78125 C 22.944631 15.3085 22.25966 15 21.5 15 z M 25 15 L 25 16 L 25 22 L 25 23 L 26 23 L 29 23 L 29 21 L 27 21 L 27 20 L 29 20 L 29 18 L 27 18 L 27 17 L 29 17 L 29 15 L 26 15 L 25 15 z M 15.5 17 C 15.786937 17 16 17.213063 16 17.5 L 16 18 L 16 19 L 16 20.5 C 16 20.786937 15.786937 21 15.5 21 C 15.213063 21 15 20.786937 15 20.5 L 15 17.5 C 15 17.213063 15.213063 17 15.5 17 z" fill="#000000"/></svg>
