<?xml version="1.0" encoding="utf-8"?>
<svg xmlns="http://www.w3.org/2000/svg" viewBox="0 0 32 32" fill="#000000"><path style="text-indent:0;text-align:start;line-height:normal;text-transform:none;block-progression:tb;-inkscape-font-specification:Sans" d="M 5.375 5 L 6.09375 6.4375 L 7.90625 10.0625 L 4.28125 20.375 C 3.1748486 23.592609 5.59753 27 9 27 L 14.5 27 L 20 27 C 23.40247 27 25.825151 23.592609 24.71875 20.375 L 21.21875 10.5 L 23.59375 9.3125 C 24.18806 10.201015 26 13.063737 26 17 L 28 17 C 28 11.5954 24.8125 7.40625 24.8125 7.40625 L 24.3125 6.71875 L 23.5625 7.09375 L 21 8.375 L 21 7 L 21 6.15625 L 20.1875 6.03125 C 20.1875 6.03125 14.759885 5 7 5 L 5.375 5 z M 8.65625 7.09375 C 14.345266 7.2214115 18.081471 7.7170766 19 7.875 L 19 9 L 9.625 9 L 8.65625 7.09375 z M 9.71875 11 L 19.28125 11 L 21.0625 16 L 7.9375 16 L 9.71875 11 z M 7.21875 18 L 21.78125 18 L 22.84375 21.03125 C 23.523349 23.007641 22.08953 25 20 25 L 14.5 25 L 9 25 C 6.91047 25 5.4766514 23.007641 6.15625 21.03125 L 7.21875 18 z" overflow="visible" font-family="Sans" fill="#000000"/></svg>
