<?xml version="1.0" encoding="utf-8"?>
<svg xmlns="http://www.w3.org/2000/svg" viewBox="0 0 32 32" fill="#000000"><path style="text-indent:0;text-align:start;line-height:normal;text-transform:none;block-progression:tb;-inkscape-font-specification:Sans" d="M 23 4 C 21.91772 4 21.017114 4.8900473 21 5.96875 C 20.999835 5.9791606 21 5.9895548 21 6 L 16.34375 8.625 L 15.6875 7.84375 C 15.6815 7.83601 15.66238 7.8514 15.65625 7.84375 C 15.248683 7.3352913 14.65527 7 14 7 L 10.625 7 C 9.7428019 7 9.0102445 7.7414095 9 8.625 L 9 12 L 6 12 C 4.9069372 12 4 12.906937 4 14 L 4 17 C 4 18.093063 4.9069372 19 6 19 L 7 19 L 7 20 L 6 20 C 3.8026661 20 2 21.802666 2 24 C 2 26.197334 3.8026661 28 6 28 L 18 28 C 20.197334 28 22 26.197334 22 24 C 22 21.802666 20.197334 20 18 20 L 16 20 L 16 19 L 18 19 C 19.093063 19 20 18.093063 20 17 L 20 15 L 20 14 L 20 13.96875 C 20 13.359952 19.811491 12.760969 19.4375 12.28125 L 19.40625 12.28125 L 17.65625 10.21875 L 22 7.71875 C 22.294521 7.8908127 22.638948 8 23 8 C 24.092725 8 25 7.0927246 25 6 C 25 4.9072754 24.092725 4 23 4 z M 25.59375 7.5 C 25.25275 8.092 24.7065 8.53225 24.0625 8.78125 L 27.1875 12.4375 L 23.1875 18.34375 L 23 18.59375 L 23 18.90625 L 23 19 L 23 20 L 24 20 L 27.84375 20 C 29.02198 20 30 19.022134 30 17.84375 L 30 13 C 30 12.788542 29.97038 12.52793 29.8125 12.28125 C 29.705406 12.113916 29.537285 11.999699 29.375 11.90625 L 25.59375 7.5 z M 11 9 L 14 9 C 14.04888 9 14.09418 9.022955 14.125 9.0625 L 14.15625 9.09375 L 17.84375 13.53125 L 17.875 13.5625 C 17.959218 13.684355 18 13.819579 18 13.96875 L 18 14 L 11.6875 14 L 11 12.8125 L 11 9 z M 6 14 L 9.34375 14 L 10.21875 15.5 L 10.5 16 L 11.09375 16 L 18 16 L 18 17 L 6 17 L 6 14 z M 28 14.75 L 28 17.84375 C 28 17.943366 27.94152 18 27.84375 18 L 25.8125 18 L 28 14.75 z M 9 19 L 14 19 L 14 20 L 9 20 L 9 19 z M 6 22 L 18 22 C 19.116666 22 20 22.883334 20 24 C 20 25.116666 19.116666 26 18 26 L 6 26 C 4.8833339 26 4 25.116666 4 24 C 4 22.883334 4.8833339 22 6 22 z M 6 23 C 5.4477153 23 5 23.447715 5 24 C 5 24.552285 5.4477153 25 6 25 C 6.5522847 25 7 24.552285 7 24 C 7 23.447715 6.5522847 23 6 23 z M 10 23 C 9.4477153 23 9 23.447715 9 24 C 9 24.552285 9.4477153 25 10 25 C 10.552285 25 11 24.552285 11 24 C 11 23.447715 10.552285 23 10 23 z M 14 23 C 13.447715 23 13 23.447715 13 24 C 13 24.552285 13.447715 25 14 25 C 14.552285 25 15 24.552285 15 24 C 15 23.447715 14.552285 23 14 23 z M 18 23 C 17.447715 23 17 23.447715 17 24 C 17 24.552285 17.447715 25 18 25 C 18.552285 25 19 24.552285 19 24 C 19 23.447715 18.552285 23 18 23 z" fill="#000000"/></svg>
