<?xml version="1.0" encoding="utf-8"?>
<svg xmlns="http://www.w3.org/2000/svg" viewBox="0 0 32 32" fill="#000000"><path style="text-indent:0;text-align:start;line-height:normal;text-transform:none;block-progression:tb;-inkscape-font-specification:Bitstream Vera Sans" d="M 16 6.65625 C 12.499707 6.65625 9.1090752 8.2283085 6.53125 10.09375 C 5.2423374 11.026471 4.1339452 12.062549 3.34375 13.03125 C 2.8877685 13.590238 2.5187409 14.1138 2.28125 14.65625 A 1.001098 1.001098 0 0 0 2.21875 14.6875 C 1.7055471 15.036306 1 15.72979 1 16.8125 C 1 17.349293 1.1213092 17.461368 1.25 17.75 C 1.3786908 18.038632 1.5519435 18.380784 1.75 18.75 C 2.146113 19.488431 2.6728741 20.388068 3.1875 21.25 C 4.2167519 22.973865 5.25 24.59375 5.25 24.59375 L 5.34375 24.75 L 5.53125 24.875 C 5.53125 24.875 6.3427287 25.40981 8 25.875 C 9.6572713 26.34019 12.238297 26.8125 16 26.8125 C 19.761703 26.8125 22.342729 26.34019 24 25.875 C 25.657271 25.40981 26.46875 24.875 26.46875 24.875 L 26.65625 24.75 L 26.75 24.59375 C 26.75 24.59375 27.783248 22.973865 28.8125 21.25 C 29.327126 20.388068 29.853887 19.488431 30.25 18.75 C 30.448057 18.380784 30.621309 18.038632 30.75 17.75 C 30.878691 17.461368 31 17.349293 31 16.8125 C 31 15.689948 30.251776 15.003781 29.71875 14.65625 C 29.481259 14.1138 29.112231 13.590238 28.65625 13.03125 C 27.866055 12.062549 26.757663 11.026471 25.46875 10.09375 C 22.890925 8.2283085 19.500293 6.65625 16 6.65625 z M 16 8.65625 C 18.879707 8.65625 21.985325 10.034692 24.3125 11.71875 C 25.476087 12.560779 26.44332 13.483888 27.09375 14.28125 C 27.74418 15.078612 28 15.801825 28 15.90625 C 28 16.41653 27.864157 16.761982 27.5625 17.03125 C 27.260843 17.300518 26.705734 17.539832 25.6875 17.53125 C 25.16822 17.52725 24.528028 17.44382 23.75 17.1875 L 23.125 16.96875 L 22.6875 17.46875 C 22.090767 18.128763 20.794358 18.610323 19.34375 18.59375 C 18.338641 18.58213 17.357709 18.385815 16.53125 17.875 L 16 17.5625 L 15.46875 17.875 C 14.642291 18.385815 13.661359 18.582125 12.65625 18.59375 C 11.204505 18.61033 9.9094866 18.129043 9.3125 17.46875 L 8.875 16.96875 L 8.25 17.1875 C 7.4719722 17.443823 6.8317801 17.527206 6.3125 17.53125 C 5.2940713 17.53945 4.7391764 17.300465 4.4375 17.03125 C 4.1358236 16.762035 4 16.41653 4 15.90625 C 4 15.801825 4.2558202 15.078612 4.90625 14.28125 C 5.5566798 13.483888 6.5239126 12.560779 7.6875 11.71875 C 10.014675 10.034692 13.120293 8.65625 16 8.65625 z M 11.53125 11.65625 C 11.53125 11.65625 10.2515 12.3925 10.0625 12.8125 C 9.8725 13.2325 10.08 13.7475 10.5 13.9375 C 10.92 14.1265 11.40475 13.92 11.59375 13.5 C 11.78275 13.079 11.53125 11.65625 11.53125 11.65625 z M 20.46875 11.65625 C 20.46875 11.65625 20.21725 13.08 20.40625 13.5 C 20.59625 13.921 21.08 14.1265 21.5 13.9375 C 21.92 13.7475 22.1275 13.2325 21.9375 12.8125 C 21.7485 12.3925 20.46875 11.65625 20.46875 11.65625 z M 16 12 C 16 12 15 13.448 15 14 C 15 14.552 15.448 15 16 15 C 16.552 15 17 14.552 17 14 C 17 13.448 16 12 16 12 z M 8.40625 19.1875 C 9.5548166 20.129935 11.05919 20.612342 12.6875 20.59375 C 13.757084 20.58138 14.913307 20.346739 16 19.8125 C 17.086693 20.346739 18.242916 20.581379 19.3125 20.59375 C 20.940061 20.61235 22.444908 20.130063 23.59375 19.1875 C 24.331111 19.390801 25.03379 19.526402 25.65625 19.53125 C 26.403776 19.537551 27.0693 19.421676 27.65625 19.21875 C 27.457764 19.562851 27.303278 19.867817 27.09375 20.21875 C 26.147547 21.803519 25.307333 23.091488 25.1875 23.28125 C 25.11737 23.32907 24.777541 23.592606 23.4375 23.96875 C 21.977521 24.37856 19.603297 24.8125 16 24.8125 C 12.396703 24.8125 10.022479 24.37856 8.5625 23.96875 C 7.222459 23.592606 6.8826338 23.329067 6.8125 23.28125 C 6.6926672 23.091488 5.8524531 21.803519 4.90625 20.21875 C 4.6967217 19.867817 4.5422358 19.562851 4.34375 19.21875 C 4.9307333 19.421603 5.5963312 19.537235 6.34375 19.53125 C 6.9662096 19.52645 7.6688895 19.390801 8.40625 19.1875 z" overflow="visible" font-family="Bitstream Vera Sans" fill="#000000"/></svg>
