<?xml version="1.0" encoding="utf-8"?>
<svg xmlns="http://www.w3.org/2000/svg" viewBox="0 0 32 32" fill="#000000"><path style="line-height:normal;text-indent:0;text-align:start;text-decoration-line:none;text-decoration-style:solid;text-decoration-color:#000;text-transform:none;block-progression:tb;isolation:auto;mix-blend-mode:normal" d="M 5 6 C 3.3550302 6 2 7.3550302 2 9 L 2 23 C 2 24.64497 3.3550302 26 5 26 L 27 26 C 28.64497 26 30 24.64497 30 23 L 30 9 C 30 7.3550302 28.64497 6 27 6 L 5 6 z M 5 8 L 27 8 C 27.56503 8 28 8.4349698 28 9 L 28 23 C 28 23.56503 27.56503 24 27 24 L 5 24 C 4.4349698 24 4 23.56503 4 23 L 4 9 C 4 8.4349698 4.4349698 8 5 8 z M 12 10 L 10.167969 14 L 5.6914062 14.583984 L 9 17.597656 L 8 22 L 12 19.751953 L 16 22 L 15 17.597656 L 18.308594 14.583984 L 13.832031 14 L 12 10 z M 12 14.802734 L 12.013672 14.832031 L 12.474609 15.839844 L 13.572266 15.982422 L 13.771484 16.009766 L 13.652344 16.117188 L 12.789062 16.902344 L 13.048828 18.039062 L 13.050781 18.048828 L 12.978516 18.007812 L 12 17.457031 L 11.019531 18.007812 L 10.949219 18.048828 L 10.951172 18.039062 L 11.208984 16.902344 L 10.347656 16.117188 L 10.226562 16.009766 L 10.425781 15.982422 L 11.523438 15.839844 L 11.984375 14.832031 L 12 14.802734 z M 18 20 L 18 22 L 20 22 L 20 20 L 18 20 z M 21 20 L 21 22 L 23 22 L 23 20 L 21 20 z M 24 20 L 24 22 L 26 22 L 26 20 L 24 20 z" font-weight="400" font-family="sans-serif" white-space="normal" overflow="visible" fill="#000000"/></svg>
