<?xml version="1.0" encoding="utf-8"?>
<svg xmlns="http://www.w3.org/2000/svg" viewBox="0 0 32 32" fill="#000000"><path style="text-indent:0;text-align:start;line-height:normal;text-transform:none;block-progression:tb;-inkscape-font-specification:Bitstream Vera Sans" d="M 3.71875 2.28125 L 2.28125 3.71875 L 28.28125 29.71875 L 29.71875 28.28125 L 20.15625 18.71875 C 20.926401 18.142915 21.70705 17.48045 22.4375 16.75 C 24.9345 14.253 27.30875 10.503 27.96875 8 L 28.15625 7.34375 L 26.625 6.21875 C 25.622 4.84675 24.4675 4.4935 23.6875 4.4375 C 22.2955 4.3395 20.85025 5.09025 19.40625 6.65625 C 16.45325 9.86025 13.8805 9.8305 12.1875 9.8125 C 11.893904 9.8094764 11.590213 9.8166658 11.28125 9.84375 L 3.71875 2.28125 z M 23.28125 6.4375 C 23.380705 6.4249707 23.468 6.432 23.5625 6.4375 C 24.0995 6.4755 24.5995 6.829 25.0625 7.5 L 25.15625 7.625 L 25.84375 8.125 C 25.12275 10.079 23.24125 13.13375 21.03125 15.34375 C 20.305027 16.069973 19.4947 16.716557 18.71875 17.28125 L 13.25 11.8125 C 13.748603 11.793795 14.283715 11.739227 14.875 11.625 L 15.3125 12.71875 L 17.1875 12.03125 L 16.8125 11.03125 C 17.268938 10.834535 17.7347 10.588122 18.21875 10.28125 L 18.875 11.1875 L 20.5 10.0625 L 19.8125 9.0625 C 20.165308 8.7469835 20.514319 8.3913468 20.875 8 C 21.747375 7.054125 22.585064 6.5252051 23.28125 6.4375 z M 9.21875 13.375 C 9.17575 14.231 9.0265 15.0985 8.4375 15.6875 C 7.1435 16.9815 5.6225 18.05075 4.6875 18.34375 L 3.8125 18.59375 L 4.03125 19.5 C 4.36625 21.024 5.395 22.48875 6 23.09375 C 7.263 24.35675 8.7405 25.08575 9.3125 25.34375 C 9.6055 25.66575 10.21525 26.28425 11.28125 26.90625 L 11.96875 27.28125 L 17.3125 22 L 16.71875 20.9375 C 16.72775 20.9335 16.741 20.91125 16.75 20.90625 L 15.25 19.4375 C 15.034 19.5485 14.91325 19.59075 14.90625 19.59375 L 13.9375 20.0625 L 14.8125 21.65625 L 11.65625 24.78125 C 10.99325 24.30725 10.71875 23.90625 10.71875 23.90625 L 10.53125 23.6875 L 10.28125 23.59375 C 10.26525 23.58675 8.67525 22.9565 7.40625 21.6875 C 7.06525 21.3465 6.574 20.59875 6.25 19.84375 C 7.524 19.18975 8.87375 18.06475 9.84375 17.09375 C 10.43775 16.50075 10.77775 15.817 10.96875 15.125 L 9.21875 13.375 z" overflow="visible" font-family="Bitstream Vera Sans" fill="#000000"/></svg>
