<?xml version="1.0" encoding="utf-8"?>
<svg xmlns="http://www.w3.org/2000/svg" viewBox="0 0 32 32" fill="#000000"><path style="text-indent:0;text-align:start;line-height:normal;text-transform:none;block-progression:tb;-inkscape-font-specification:Bitstream Vera Sans" d="M 16 4 C 9.3844277 4 4 9.3844277 4 16 C 4 22.615572 9.3844277 28 16 28 C 22.615572 28 28 22.615572 28 16 C 28 9.3844277 22.615572 4 16 4 z M 14.96875 6.0625 C 14.978917 6.0614718 14.989824 6.0634979 15 6.0625 L 15 7 L 17 7 L 17 6.0625 C 21.738858 6.5272264 25.472774 10.261142 25.9375 15 L 25 15 L 25 17 L 25.9375 17 C 25.472774 21.738858 21.738858 25.472774 17 25.9375 L 17 25 L 15 25 L 15 25.9375 C 10.261142 25.472774 6.5272264 21.738858 6.0625 17 L 7 17 L 7 15 L 6.0625 15 C 6.5262285 10.271318 10.244299 6.5403141 14.96875 6.0625 z M 22.5 9.5 L 14.15625 14.15625 L 9.5 22.5 L 17.84375 17.84375 L 22.5 9.5 z M 16 14.5 C 16.828 14.5 17.5 15.172 17.5 16 C 17.5 16.828 16.828 17.5 16 17.5 C 15.172 17.5 14.5 16.828 14.5 16 C 14.5 15.172 15.172 14.5 16 14.5 z" overflow="visible" font-family="Bitstream Vera Sans" fill="#000000"/></svg>
