<?xml version="1.0" encoding="utf-8"?>
<svg xmlns="http://www.w3.org/2000/svg" viewBox="0 0 32 32" fill="#000000"><path style="text-indent:0;text-align:start;line-height:normal;text-transform:none;block-progression:tb;-inkscape-font-specification:Sans" d="M 13.03125 7.96875 L 12.1875 8.6875 C 12.1875 8.6875 11.496046 9.2850561 10.46875 9.875 C 9.4414539 10.464944 8.1052795 11 7 11 C 4.4239949 11 1.3125 10.03125 1.3125 10.03125 L 0 9.625 L 0 11 L 0 23 L 0 24 L 1 24 L 10 24 L 11 24 L 11 23 L 11 21.65625 C 12.583355 22.559495 15.409055 24 19 24 L 31 24 L 32 24 L 32 23 C 32 23 32.02551 21.301014 31.15625 19.5625 C 30.286993 17.823986 28.333333 16 25 16 C 18.707261 16 13.65625 8.90625 13.65625 8.90625 L 13.03125 7.96875 z M 12.59375 10.8125 C 13.929216 12.592644 18.485919 18 25 18 C 27.666667 18 28.713007 19.176014 29.34375 20.4375 C 29.72871 21.20742 29.687573 21.50822 29.75 22 L 19 22 C 15.036899 22 10.5625 19.15625 10.5625 19.15625 L 10.3125 19 L 10 19 L 2 19 L 2 12.28125 C 3.1768945 12.590887 4.9335451 13 7 13 C 8.7077205 13 10.282796 12.274806 11.46875 11.59375 C 12.138012 11.209414 12.238716 11.077496 12.59375 10.8125 z M 2 21 L 9 21 L 9 22 L 2 22 L 2 21 z" overflow="visible" font-family="Sans" fill="#000000"/></svg>
