<?xml version="1.0" encoding="utf-8"?>
<svg xmlns="http://www.w3.org/2000/svg" viewBox="0 0 32 32" fill="#000000"><path style="text-indent:0;text-align:start;line-height:normal;text-transform:none;block-progression:tb;-inkscape-font-specification:Bitstream Vera Sans" d="M 5 5 L 5 6 L 5 26 L 5 27 L 6 27 L 26 27 L 27 27 L 27 26 L 27 6 L 27 5 L 26 5 L 6 5 L 5 5 z M 7 7 L 23.5625 7 L 7 23.5625 L 7 7 z M 25 8.4375 L 25 25 L 8.4375 25 L 25 8.4375 z M 10.4375 9 C 9.7251759 9.0936175 9.0132615 9.5492385 8.28125 10.28125 L 9.71875 11.71875 C 10.492735 10.944765 10.738983 10.973208 10.71875 10.96875 C 10.69852 10.96425 10.90323 11.135619 11.21875 11.5625 C 11.53427 11.989381 11.947396 12.670309 12.875 12.90625 C 13.338802 13.024221 13.879569 12.96662 14.34375 12.75 C 14.807931 12.533382 15.241757 12.195743 15.71875 11.71875 L 14.28125 10.28125 C 13.908243 10.654257 13.651054 10.867008 13.5 10.9375 C 13.348946 11.00799 13.359635 10.96484 13.375 10.96875 C 13.40573 10.97655 13.16573 10.810619 12.84375 10.375 C 12.52177 9.9393807 12.098358 9.2388331 11.15625 9.03125 C 10.920723 8.9793542 10.674941 8.9687942 10.4375 9 z M 17 18 L 17 20 L 23 20 L 23 18 L 17 18 z M 17 21 L 17 23 L 19 23 L 19 21 L 17 21 z M 21 21 L 21 23 L 23 23 L 23 21 L 21 21 z" fill="#000000"/></svg>
