<?xml version="1.0" encoding="utf-8"?>
<svg xmlns="http://www.w3.org/2000/svg" viewBox="0 0 32 32" fill="#000000"><path style="text-indent:0;text-align:start;line-height:normal;text-transform:none;block-progression:tb;-inkscape-font-specification:Sans" d="M 24 0 C 21.95057 6.1269867e-06 19.90133 0.78560046 18.34375 2.34375 C 15.228817 5.459823 15.227365 10.541005 18.34375 13.65625 C 21.459823 16.771183 26.541005 16.772635 29.65625 13.65625 C 31.007997 12.304503 31.790511 10.581175 31.96875 8.8125 L 29.96875 8.59375 C 29.834989 9.9210751 29.270253 11.229747 28.25 12.25 C 25.899245 14.601615 22.101927 14.601067 19.75 12.25 C 17.398385 9.8992455 17.398933 6.101927 19.75 3.75 C 22.100841 1.3982991 25.898089 1.3980894 28.25 3.75 C 28.330324 3.8303237 28.394465 3.9158451 28.46875 4 L 26 4 L 26 6 L 31 6 L 32 6 L 32 5 L 32 0 L 30 0 L 30 2.71875 C 29.887451 2.5915555 29.77769 2.4651901 29.65625 2.34375 C 28.098205 0.7857053 26.04943 -6.1269867e-06 24 0 z M 4 9 L 4 27 L 6 27 L 6 9 L 4 9 z M 8 9 L 8 27 L 14 27 L 14 9 L 8 9 z M 16 13.96875 L 16 27 L 18 27 L 18 16 C 17.242 15.43 16.569 14.72775 16 13.96875 z M 20 17.15625 L 20 27 L 24 27 L 24 18 C 22.577 18 21.226 17.69225 20 17.15625 z M 28 17.15625 C 27.364 17.43425 26.696 17.6715 26 17.8125 L 26 27 L 28 27 L 28 17.15625 z" overflow="visible" font-family="Sans" fill="#000000"/></svg>
