<?xml version="1.0" encoding="utf-8"?>
<svg xmlns="http://www.w3.org/2000/svg" viewBox="0 0 32 32" fill="#000000"><path style="text-indent:0;text-align:start;line-height:normal;text-transform:none;block-progression:tb;-inkscape-font-specification:Sans" d="M 16 4 C 13.853 4 12.44475 4.762 11.09375 5.5 C 9.68375 6.271 8.362 7 6 7 L 5 7 L 5 8 C 5 10.992 5.383 13.57525 6 15.78125 L 6 15.625 L 6 14.5 C 6 13.324 6.47775 12.27175 7.21875 11.46875 C 7.12575 10.67275 7.027 9.84775 7 8.96875 C 9.275 8.78175 10.7515 7.967 12.0625 7.25 C 13.2965 6.577 14.363 6 16 6 C 17.64 6 18.6975 6.574 19.9375 7.25 C 21.2485 7.964 22.738 8.78075 25 8.96875 C 24.919 11.71575 24.47575 14.023 23.84375 16 L 25.9375 16 C 26.5905 13.743 27 11.101 27 8 L 27 7 L 26 7 C 23.653 7 22.31825 6.27 20.90625 5.5 C 19.55025 4.761 18.149 4 16 4 z M 10.5 12 C 9.1309372 12 8 13.130937 8 14.5 C 8 15.869063 9.1309372 17 10.5 17 C 10.786937 17 11 17.213063 11 17.5 C 11 17.864232 10.93915 18 10.5 18 C 10.120705 18 10.068225 17.91215 10.0625 17.90625 C 10.056775 17.900353 10 17.866336 10 17.625 L 8 17.625 C 8 18.192664 8.1567248 18.830147 8.625 19.3125 C 9.0932752 19.794853 9.7752947 20 10.5 20 C 11.908848 20 13 18.791768 13 17.5 C 13 16.130937 11.869063 15 10.5 15 C 10.213063 15 10 14.786937 10 14.5 C 10 14.213063 10.213063 14 10.5 14 C 10.77034 14 10.844119 14.05675 10.90625 14.125 C 10.968381 14.19325 11 14.320536 11 14.40625 L 13 14.40625 C 13 13.839964 12.805369 13.254 12.375 12.78125 C 11.944631 12.3085 11.25966 12 10.5 12 z M 16.5 12 C 15.130937 12 14 13.130937 14 14.5 C 14 15.869063 15.130937 17 16.5 17 C 16.786937 17 17 17.213063 17 17.5 C 17 17.864232 16.93915 18 16.5 18 C 16.120705 18 16.068225 17.91215 16.0625 17.90625 C 16.056775 17.900353 16 17.866336 16 17.625 L 14 17.625 C 14 18.192664 14.156725 18.830147 14.625 19.3125 C 15.093275 19.794853 15.775295 20 16.5 20 C 17.908848 20 19 18.791768 19 17.5 C 19 16.130937 17.869063 15 16.5 15 C 16.213063 15 16 14.786937 16 14.5 C 16 14.213063 16.213063 14 16.5 14 C 16.77034 14 16.844119 14.05675 16.90625 14.125 C 16.968381 14.19325 17 14.320536 17 14.40625 L 19 14.40625 C 19 13.839964 18.805369 13.254 18.375 12.78125 C 17.944631 12.3085 17.25966 12 16.5 12 z M 20 12 L 20 19 L 20 20 L 21 20 L 24 20 L 24 18 L 22 18 L 22 12 L 20 12 z M 8.625 21.65625 C 11.603 26.25225 15.365 27.8335 15.625 27.9375 L 16 28.0625 L 16.375 27.9375 C 16.63 27.8365 20.21325 26.339 23.15625 22 L 20.6875 22 C 18.7985 24.345 16.813 25.50525 16 25.90625 C 15.181 25.49725 13.18625 24.3275 11.28125 21.9375 C 11.02625 21.9815 10.769 22 10.5 22 C 9.809 22 9.188 21.88325 8.625 21.65625 z" overflow="visible" font-family="Sans" fill="#000000"/></svg>
