<?xml version="1.0" encoding="utf-8"?>
<svg xmlns="http://www.w3.org/2000/svg" viewBox="0 0 32 32" fill="#000000"><path style="text-indent:0;text-align:start;line-height:normal;text-transform:none;block-progression:tb;-inkscape-font-specification:Bitstream Vera Sans" d="M 11.6875 4 C 10.108513 4 8.7799216 5.236861 8.6875 6.8125 L 7.625 24.59375 C 7.2742695 24.650392 7 24.945797 7 25.3125 L 7 28 L 10 28 L 10 25.3125 C 10 25.038374 9.8471017 24.814464 9.625 24.6875 L 9.96875 19 L 20.03125 19 L 20.15625 21.46875 C 20.70925 21.18075 21.334 21 22 21 C 22.048 21 22.078 20.998 22.125 21 L 21.96875 18.21875 A 1.0019512 1.0019512 0 0 0 21.96875 17.96875 L 21.3125 6.84375 C 21.221611 5.2658593 19.892626 4 18.3125 4 L 11.6875 4 z M 11.6875 6 L 18.3125 6 C 18.852374 6 19.281389 6.3973907 19.3125 6.9375 L 19.46875 9.5 C 18.679515 9.6494583 16.654294 10 15 10 C 13.345706 10 11.320485 9.6494583 10.53125 9.5 L 10.6875 6.9375 C 10.719078 6.399139 11.148487 6 11.6875 6 z M 10.40625 11.5 C 11.382581 11.683336 13.192912 12 15 12 C 16.807088 12 18.617419 11.683336 19.59375 11.5 L 19.90625 17 L 10.09375 17 L 10.40625 11.5 z M 22 22 C 20.35499 22 19 23.35499 19 25 C 19 26.64501 20.35499 28 22 28 C 23.64501 28 25 26.64501 25 25 C 25 23.35499 23.64501 22 22 22 z M 22 24 C 22.564128 24 23 24.435872 23 25 C 23 25.564128 22.564128 26 22 26 C 21.435872 26 21 25.564128 21 25 C 21 24.435872 21.435872 24 22 24 z" overflow="visible" font-family="Bitstream Vera Sans" fill="#000000"/></svg>
