<?xml version="1.0" encoding="utf-8"?>
<svg xmlns="http://www.w3.org/2000/svg" viewBox="0 0 32 32" fill="#000000"><path style="text-indent:0;text-align:start;line-height:normal;text-transform:none;block-progression:tb;-inkscape-font-specification:Bitstream Vera Sans" d="M 8 5 L 8 6 L 8 27 L 10 27 L 10 7 L 22 7 L 22 27 L 24 27 L 24 6 L 24 5 L 23 5 L 9 5 L 8 5 z M 3 9 L 3 11 L 7 13 L 7 11 L 3 9 z M 16 9 C 14.35499 9 13 10.35499 13 12 C 13 12.988216 13.471645 13.889491 14.21875 14.4375 C 12.910222 15.097509 12 16.443555 12 18 L 12 21 L 12 21.40625 L 12.28125 21.71875 L 13 22.4375 L 13 26 L 13 27 L 14 27 L 18 27 L 19 27 L 19 26 L 19 22.4375 L 19.71875 21.71875 L 20 21.40625 L 20 21 L 20 18 C 20 16.443555 19.089778 15.097509 17.78125 14.4375 C 18.528355 13.889491 19 12.988216 19 12 C 19 10.35499 17.64501 9 16 9 z M 29 9 L 25 11 L 25 13 L 29 11 L 29 9 z M 16 11 C 16.564128 11 17 11.435872 17 12 C 17 12.564128 16.564128 13 16 13 C 15.435872 13 15 12.564128 15 12 C 15 11.435872 15.435872 11 16 11 z M 3 15 L 3 17 L 7 17 L 7 15 L 3 15 z M 25 15 L 25 17 L 29 17 L 29 15 L 25 15 z M 16 16 C 17.116666 16 18 16.883334 18 18 L 18 20.5625 L 17.28125 21.28125 L 17 21.59375 L 17 22 L 17 25 L 15 25 L 15 22 L 15 21.59375 L 14.71875 21.28125 L 14 20.5625 L 14 18 C 14 16.883334 14.883334 16 16 16 z M 7 19 L 3 21 L 3 23 L 7 21 L 7 19 z M 25 19 L 25 21 L 29 23 L 29 21 L 25 19 z" fill="#000000"/></svg>
