<?xml version="1.0" encoding="utf-8"?>
<svg xmlns="http://www.w3.org/2000/svg" viewBox="0 0 32 32" fill="#000000"><path style="line-height:normal;text-indent:0;text-align:start;text-decoration-line:none;text-decoration-style:solid;text-decoration-color:#000;text-transform:none;block-progression:tb;isolation:auto;mix-blend-mode:normal" d="M 13.683594 4.2851562 L 13.457031 4.9726562 C 13.166814 5.8500308 13 6.7947796 13 7.7851562 C 13 12.076378 16.034819 15.683313 20 16.210938 L 20 22.011719 L 13.386719 16 L 8.6464844 16 L 8.3710938 16.222656 C 8.3710938 16.222656 5.9187697 18.198819 5.0292969 21.757812 C 4.3335573 24.541895 5.0292969 27.238281 5.0292969 27.238281 L 5.2148438 28 L 26.585938 28 L 24.671875 26.259766 L 22 23.830078 L 22 16.210938 C 25.965181 15.683313 29 12.076378 29 7.7851562 C 29 6.7947796 28.833186 5.8500308 28.542969 4.9726562 L 28.316406 4.2851562 L 13.683594 4.2851562 z M 15.244141 6.2851562 L 26.755859 6.2851562 C 26.867513 6.7757172 27 7.2596786 27 7.7851562 C 27 11.42273 24.286935 14.285156 21 14.285156 C 17.713065 14.285156 15 11.42273 15 7.7851562 C 15 7.2596786 15.132487 6.7757172 15.244141 6.2851562 z M 10.496094 18 L 12.613281 18 L 21.414062 26 L 19.384766 26 L 10.496094 18 z M 8.5605469 18.951172 L 16.392578 26 L 6.8632812 26 C 6.7357044 25.2174 6.5713452 23.840264 6.9707031 22.242188 C 7.3549127 20.704873 8.0086181 19.653135 8.5605469 18.951172 z" font-weight="400" font-family="sans-serif" white-space="normal" overflow="visible" fill="#000000"/></svg>
