<?xml version="1.0" encoding="utf-8"?>
<svg xmlns="http://www.w3.org/2000/svg" viewBox="0 0 32 32" fill="#000000"><path style="text-indent:0;text-align:start;line-height:normal;text-transform:none;block-progression:tb;-inkscape-font-specification:Bitstream Vera Sans" d="M 16 4.84375 L 15.5 5.15625 L 5.5 11.15625 L 5 11.4375 L 5 12 L 5 26 L 5 27 L 6 27 L 26 27 L 27 27 L 27 26 L 27 12 L 27 11.4375 L 26.5 11.15625 L 16.5 5.15625 L 16 4.84375 z M 16 7.15625 L 25 12.53125 L 25 25 L 7 25 L 7 12.53125 L 16 7.15625 z M 11 13 L 11 15 L 21 15 L 21 13 L 11 13 z M 11 17 L 11 19 L 21 19 L 21 17 L 11 17 z M 11 21 L 11 23 L 21 23 L 21 21 L 11 21 z" overflow="visible" font-family="Bitstream Vera Sans" fill="#000000"/></svg>
