<?xml version="1.0" encoding="utf-8"?>
<svg xmlns="http://www.w3.org/2000/svg" viewBox="0 0 32 32" fill="#000000"><path style="text-indent:0;text-align:start;line-height:normal;text-transform:none;block-progression:tb;-inkscape-font-specification:Sans" d="M 13.3125 2.71875 L 12.46875 3.0625 L 7.21875 5.15625 L 6 5.625 L 6.78125 6.6875 C 6.78125 6.6875 7.5548346 7.7589608 7.875 9.125 C 8.1951654 10.491039 8.1677871 11.905535 6.40625 13.1875 L 6 13.5 L 6 14 L 6 17 L 5 17 L 5 19 L 6 19 L 6 21 L 5 21 L 5 23 L 6 23 L 6 27 L 6 27.71875 L 6.65625 27.9375 C 6.65625 27.9375 9.6816636 29 16 29 C 22.318336 29 25.34375 27.9375 25.34375 27.9375 L 26 27.71875 L 26 27 L 26 23 L 27 23 L 27 21 L 26 21 L 26 19 L 27 19 L 27 17 L 26 17 L 26 14 L 26 13.53125 L 25.65625 13.21875 C 23.936367 11.783078 23.885869 10.325287 24.1875 9 C 24.489131 7.6747127 25.21875 6.6875 25.21875 6.6875 L 26 5.625 L 24.78125 5.15625 L 19.53125 3.0625 L 18.6875 2.71875 L 18.25 3.5625 C 18.25 3.5625 17.444034 5.09375 16 5.09375 C 14.555966 5.09375 13.75 3.5625 13.75 3.5625 L 13.3125 2.71875 z M 12.53125 5.21875 C 13.075359 5.9909769 14.044184 7.09375 16 7.09375 C 17.955816 7.09375 18.924641 5.9909769 19.46875 5.21875 L 23 6.59375 C 22.730069 7.1218982 22.43144 7.7653002 22.25 8.5625 C 21.867828 10.241664 22.110812 12.528476 24 14.375 L 24 17 L 23 17 L 23 19 L 24 19 L 24 21 L 23 21 L 23 23 L 24 23 L 24 26.21875 C 23.284312 26.432762 21.116105 27 16 27 C 10.883895 27 8.7156876 26.432762 8 26.21875 L 8 23 L 9 23 L 9 21 L 8 21 L 8 19 L 9 19 L 9 17 L 8 17 L 8 14.40625 C 9.9496834 12.687082 10.211636 10.390479 9.8125 8.6875 C 9.6149505 7.844622 9.2875293 7.1482047 9 6.59375 L 12.53125 5.21875 z M 11 15 L 11 16 L 11 24 L 11 25 L 12 25 L 20 25 L 21 25 L 21 24 L 21 16 L 21 15 L 20 15 L 12 15 L 11 15 z M 13 17 L 19 17 L 19 23 L 13 23 L 13 17 z" fill="#000000"/></svg>
