<?xml version="1.0" encoding="utf-8"?>
<svg xmlns="http://www.w3.org/2000/svg" viewBox="0 0 32 32" fill="#000000"><path style="text-indent:0;text-align:start;line-height:normal;text-transform:none;block-progression:tb;-inkscape-font-specification:Sans" d="M 26.5 3 C 25.858124 3 25.202604 3.2348955 24.71875 3.71875 L 23.46875 5 L 21 5 L 19.59375 8.84375 L 15.40625 13.0625 C 15.360142 13.169025 14.472136 15.277864 13.0625 16.6875 C 11.643736 18.106264 9.6382905 18.907549 9.5625 18.9375 L 9.53125 18.9375 L 4.21875 24.21875 L 3.71875 24.71875 C 3.24675 25.19075 3 25.832 3 26.5 C 3 27.168 3.24675 27.80925 3.71875 28.28125 C 4.19175 28.75325 4.833 29 5.5 29 C 6.167 29 6.80925 28.75325 7.28125 28.28125 L 7.78125 27.78125 L 13.15625 22.375 L 13.125 22.34375 C 13.267745 22.016097 14.062586 20.249914 15.4375 18.875 C 16.9525 17.36 18.96875 16.5625 18.96875 16.5625 L 23.125 12.40625 L 27 11 L 27 8.53125 L 28.28125 7.28125 C 29.250744 6.3134106 29.250744 4.6865894 28.28125 3.71875 C 27.797396 3.2348955 27.141876 3 26.5 3 z M 26.5 5 C 26.620802 5 26.741605 5.0541045 26.84375 5.15625 C 27.046256 5.3584106 27.046256 5.6415894 26.84375 5.84375 L 25.84375 6.84375 L 25.15625 6.15625 L 26.15625 5.15625 C 26.258395 5.0541045 26.379198 5 26.5 5 z M 20.4375 10.875 L 21.125 11.5625 L 17.5625 15.125 L 16.84375 14.4375 L 20.4375 10.875 z M 10.9375 20.375 L 11.65625 21.0625 L 8.40625 24.28125 L 7.71875 23.59375 L 10.9375 20.375 z" overflow="visible" font-family="Sans" fill="#000000"/></svg>
