<?xml version="1.0" encoding="utf-8"?>
<svg xmlns="http://www.w3.org/2000/svg" viewBox="0 0 32 32" fill="#000000"><path style="text-indent:0;text-align:start;line-height:normal;text-transform:none;block-progression:tb;-inkscape-font-specification:Sans" d="M 16 3 C 13.000279 3 10.59375 4.09375 10.59375 4.09375 L 9.625 4.5 L 10.09375 5.4375 L 11.6875 8.59375 C 9.5535272 9.8507459 4 13.702413 4 20 C 4 22.951312 4.9588276 25.195512 7.03125 26.4375 C 9.1036724 27.679488 12.009822 28 16 28 C 19.990178 28 22.896328 27.679488 24.96875 26.4375 C 27.041172 25.195512 28 22.951312 28 20 C 28 15.890587 25.599653 12.814343 23.34375 10.8125 C 25.287646 11.603356 26.25 12.6875 26.25 12.6875 L 27.75 11.3125 C 27.75 11.3125 25.1983 8.6165835 20.5625 8.09375 L 21.90625 5.4375 L 22.375 4.5 L 21.40625 4.09375 C 21.40625 4.09375 18.999721 3 16 3 z M 16 5 C 17.574981 5 18.764743 5.29481 19.59375 5.5625 L 18.375 8 L 13.625 8 L 12.40625 5.5625 C 13.235257 5.29481 14.425019 5 16 5 z M 13.3125 10 L 18.6875 10 C 18.932379 10.12852 26 13.853659 26 20 C 26 22.571688 25.401328 23.841488 23.9375 24.71875 C 22.473672 25.596012 19.864822 26 16 26 C 12.135178 26 9.5263276 25.596012 8.0625 24.71875 C 6.5986724 23.841488 6 22.571688 6 20 C 6 13.853939 13.067527 10.128527 13.3125 10 z M 16.53125 13 C 16.385891 13.000983 16.233979 13.012567 16.09375 13.03125 C 14.411002 13.255441 13 14.700701 13 16.53125 C 13 17.076323 13.132423 17.548425 13.28125 18 L 12 18 L 12 20 L 13.9375 20 C 14.094059 20.690928 14.099274 21.24907 13.40625 22 L 12 22 L 12 24 L 19 24 L 20 24 L 20 23 L 20 21 L 18 21 L 18 22 L 15.65625 22 C 15.930416 21.31464 15.992695 20.628114 15.9375 20 L 17 20 L 17 18 L 15.4375 18 C 15.204122 17.337626 15 16.799928 15 16.53125 C 15 15.441982 16.055562 14.709973 17.09375 15.125 L 17.84375 13.25 C 17.411785 13.077318 16.967327 12.997051 16.53125 13 z" overflow="visible" font-family="Sans" fill="#000000"/></svg>
