<?xml version="1.0" encoding="utf-8"?>
<svg xmlns="http://www.w3.org/2000/svg" viewBox="0 0 32 32" fill="#000000"><path d="M 7.5 3.96875 L 6.625 5.5 C 6.625 5.5 6.2341223 6.196874 5.84375 7 C 5.6485638 7.401563 5.46999 7.8390561 5.3125 8.25 C 5.15501 8.6609439 5 8.9910676 5 9.5 C 5 9.6711329 5.028902 9.8380523 5.0625 10 L 4 10 L 4 12 L 6.59375 12 C 6.6035261 12.081569 6.6138346 12.126623 6.625 12.21875 C 6.704538 12.875023 6.8315646 13.750143 6.9375 14.625 C 7.1493707 16.374715 7.34375 18.125 7.34375 18.125 A 1.0001 1.0001 0 0 0 7.4375 18.40625 A 1.0001 1.0001 0 0 0 7.46875 18.46875 A 1.0001 1.0001 0 0 0 7.5 18.5 C 7.5288806 18.556373 8.0422825 19.584079 8.78125 20.71875 C 9.161014 21.301871 9.6054931 21.905523 10.0625 22.4375 C 10.281087 22.691946 10.487152 22.944233 10.71875 23.15625 C 10.084728 24.43895 9.4656664 25.485272 9.0625 25.875 C 8.9895 25.413 9.14475 24.48675 9.46875 23.34375 C 8.91475 22.75375 8.413 22.04 8 21.25 C 7.24 23.393 6.6445 25.9575 7.4375 27.1875 C 7.7815 27.7215 8.333 28 9 28 C 9.2361169 28 9.4722199 27.908918 9.71875 27.78125 C 10.148585 28.547493 10.671459 29.342407 11.15625 30 L 13.6875 30 C 13.018058 29.178412 11.792761 27.540257 11.21875 26.34375 C 11.744979 25.601609 12.282486 24.579456 12.84375 23.34375 A 1.0074188 1.0074188 0 0 0 12.9375 23.1875 C 12.951274 23.156713 12.954956 23.124831 12.96875 23.09375 A 1.0074188 1.0074188 0 0 0 13 22.96875 C 13.015638 22.93315 13.046837 22.910976 13.0625 22.875 C 13.367957 22.950082 13.674901 23 14 23 L 19.875 23 C 19.875 23 20.442535 23.06096 21 23.375 C 21.557465 23.689039 22 24.071679 22 25 A 1.0001 1.0001 0 0 0 22.03125 25.28125 L 19.0625 30 L 21.4375 30 L 24.3125 25.40625 L 25.65625 26.3125 L 23.4375 30 L 25.78125 30 L 28.34375 25.6875 L 23.6875 22.59375 L 23.40625 23.03125 C 23.016028 22.415205 22.502742 21.939461 22 21.65625 C 21.057465 21.125289 20.125 21 20.125 21 A 1.0001 1.0001 0 0 0 20 21 L 16.5 21 L 14 21 C 13.41546 21 12.028052 20.193174 10.96875 19.25 C 10.016261 18.40193 9.4516119 17.726036 9.3125 17.5625 C 9.2796863 17.291396 9.0992697 15.969035 8.90625 14.375 C 8.8016677 13.511316 8.7039449 12.653496 8.625 12 L 11 12 L 11 10 L 9.9375 10 C 9.971098 9.8380523 10 9.6711329 10 9.5 C 10 8.9910676 9.84499 8.6609439 9.6875 8.25 C 9.53001 7.8390561 9.3514362 7.401563 9.15625 7 C 8.7658777 6.196874 8.375 5.5 8.375 5.5 L 7.5 3.96875 z M 16.5 21 C 17.701965 21 18.538279 20.174945 19.09375 19.3125 C 19.480613 18.711841 19.767313 18.046218 19.90625 17.375 C 21.473329 17.17886 23.46875 16.948225 23.46875 16.8125 C 23.46875 16.673523 21.558635 16.416419 19.96875 16.21875 C 19.950545 16.002518 19.931306 15.797407 19.875 15.59375 C 21.125264 14.66356 22.60945 13.498308 22.5625 13.40625 C 22.518404 13.273962 20.831197 13.953168 19.40625 14.5625 C 19.271899 14.364275 19.108388 14.166806 18.9375 14 C 19.536514 12.596333 20.191951 10.98065 20.0625 10.9375 C 19.939676 10.855618 18.936554 12.178095 18.03125 13.375 C 17.765502 13.242222 17.485452 13.12408 17.1875 13.0625 C 17.002078 11.601842 16.7777 10 16.65625 10 C 16.535677 10 16.309568 11.579152 16.125 13.03125 C 15.808492 13.066716 15.504776 13.134799 15.21875 13.25 C 14.343145 12.086178 13.370074 10.866225 13.25 10.90625 C 13.125676 10.947691 13.734399 12.437072 14.3125 13.78125 C 14.071225 13.977141 13.838723 14.216745 13.65625 14.46875 C 12.305907 13.890649 10.832882 13.281926 10.75 13.40625 C 10.707072 13.535033 12.000738 14.520959 13.1875 15.40625 C 13.095844 15.676878 13.053335 15.955205 13.03125 16.25 C 12.235159 16.342984 11.39385 16.44623 10.8125 16.5625 C 10.2625 16.6625 10.29375 16.9625 10.84375 17.0625 C 11.472413 17.173441 12.310677 17.253038 13.09375 17.34375 C 13.2303 18.02503 13.513734 18.703064 13.90625 19.3125 C 14.461721 20.174945 15.298035 21 16.5 21 z M 7.5 8.21875 C 7.6189289 8.4759192 7.7588478 8.7472119 7.84375 8.96875 C 7.96751 9.2916811 8 9.5949324 8 9.5 C 8 9.7152029 7.8684755 9.8953759 7.6875 9.96875 A 1.0001 1.0001 0 0 0 7.375 9.96875 C 7.1607926 9.9121006 7 9.7383189 7 9.5 C 7 9.5949324 7.03249 9.2916811 7.15625 8.96875 C 7.2411522 8.7472119 7.3810711 8.4759192 7.5 8.21875 z M 16.5 15 C 17.340812 15 18 15.659188 18 16.5 C 18 16.920406 17.786779 17.676445 17.4375 18.21875 C 17.088221 18.761055 16.679035 19 16.5 19 C 16.320965 19 15.911779 18.761055 15.5625 18.21875 C 15.213221 17.676445 15 16.920406 15 16.5 C 15 15.659188 15.659188 15 16.5 15 z" fill="#000000"/></svg>
