<?xml version="1.0" encoding="utf-8"?>
<svg xmlns="http://www.w3.org/2000/svg" viewBox="0 0 32 32" fill="#000000"><path style="text-indent:0;text-align:start;line-height:normal;text-transform:none;block-progression:tb;-inkscape-font-specification:Bitstream Vera Sans" d="M 5 5 L 5 6 L 5 26 L 5 27 L 6 27 L 26 27 L 27 27 L 27 26 L 27 6 L 27 5 L 26 5 L 6 5 L 5 5 z M 7 7 L 25 7 L 25 25 L 7 25 L 7 7 z M 9 8 C 8.4477153 8 8 8.4477153 8 9 C 8 9.5522847 8.4477153 10 9 10 C 9.5522847 10 10 9.5522847 10 9 C 10 8.4477153 9.5522847 8 9 8 z M 23 8 C 22.447715 8 22 8.4477153 22 9 C 22 9.5522847 22.447715 10 23 10 C 23.552285 10 24 9.5522847 24 9 C 24 8.4477153 23.552285 8 23 8 z M 16 9 C 12.145852 9 9 12.145852 9 16 C 9 19.854148 12.145852 23 16 23 C 19.854148 23 23 19.854148 23 16 C 23 12.145852 19.854148 9 16 9 z M 16 11 C 18.773268 11 21 13.226732 21 16 C 21 18.773268 18.773268 21 16 21 C 13.226732 21 11 18.773268 11 16 C 11 13.226732 13.226732 11 16 11 z M 16 14 C 14.895431 14 14 14.895431 14 16 C 14 17.104569 14.895431 18 16 18 C 17.104569 18 18 17.104569 18 16 C 18 14.895431 17.104569 14 16 14 z M 9 22 C 8.4477153 22 8 22.447715 8 23 C 8 23.552285 8.4477153 24 9 24 C 9.5522847 24 10 23.552285 10 23 C 10 22.447715 9.5522847 22 9 22 z M 23 22 C 22.447715 22 22 22.447715 22 23 C 22 23.552285 22.447715 24 23 24 C 23.552285 24 24 23.552285 24 23 C 24 22.447715 23.552285 22 23 22 z" overflow="visible" font-family="Bitstream Vera Sans" fill="#000000"/></svg>
