<?xml version="1.0" encoding="utf-8"?>
<svg xmlns="http://www.w3.org/2000/svg" viewBox="0 0 32 32" fill="#000000"><path style="text-indent:0;text-align:start;line-height:normal;text-transform:none;block-progression:tb;-inkscape-font-specification:Sans" d="M 0 7 L 0 8 L 0 24 L 0 25 L 1 25 L 31 25 L 32 25 L 32 24 L 32 8 L 32 7 L 31 7 L 1 7 L 0 7 z M 2 9 L 30 9 L 30 23 L 2 23 L 2 9 z M 9.21875 12 L 9 12.6875 L 7.0625 18.6875 L 7 18.84375 L 7 19 L 7 20 L 9 20 L 9 19.125 L 9.03125 19 L 10.96875 19 L 11 19.125 L 11 20 L 13 20 L 13 19 L 13 18.84375 L 12.9375 18.6875 L 11 12.6875 L 10.78125 12 L 10.0625 12 L 9.9375 12 L 9.21875 12 z M 14 12 L 14 13 L 14 19 L 14 20 L 15 20 L 16 20 C 17.64497 20 19 18.64497 19 17 L 19 15 C 19 13.35503 17.64497 12 16 12 L 15 12 L 14 12 z M 20 12 L 20 13 L 20 13.15625 L 20.0625 13.3125 L 22 19.3125 L 22.21875 20 L 22.9375 20 L 23.0625 20 L 23.78125 20 L 24 19.3125 L 25.9375 13.3125 L 26 13.15625 L 26 13 L 26 12 L 24 12 L 24 12.875 L 23 15.9375 L 22 12.875 L 22 12 L 20 12 z M 16 14 C 16.56503 14 17 14.43497 17 15 L 17 17 C 17 17.56503 16.56503 18 16 18 L 16 14 z M 10 16.0625 L 10.3125 17 L 9.6875 17 L 10 16.0625 z" overflow="visible" font-family="Sans" fill="#000000"/></svg>
