<?xml version="1.0" encoding="utf-8"?>
<svg xmlns="http://www.w3.org/2000/svg" viewBox="0 0 32 32" fill="#000000"><path style="text-indent:0;text-align:start;line-height:normal;text-transform:none;block-progression:tb;-inkscape-font-specification:Sans" d="M 16 2 C 12.697812 2 10 4.6978117 10 8 L 10 10 L 12 10 L 12 8 C 12 5.7781883 13.778188 4 16 4 C 18.221812 4 20 5.7781883 20 8 L 20 10 L 22 10 L 22 8 C 22 4.6978117 19.302188 2 16 2 z M 11 11 C 10.448 11 10 11.448 10 12 L 7 12 L 6.28125 12 L 6.0625 12.6875 L 4.0625 18.6875 L 3.8125 19.4375 L 4.46875 19.84375 C 4.46875 19.84375 4.5796219 19.897789 4.59375 19.90625 L 3.03125 27.8125 L 2.78125 29 L 4 29 L 6 29 L 6 30 L 8 30 L 8 29 L 24 29 L 24 30 L 26 30 L 26 29 L 28 29 L 29.21875 29 L 28.96875 27.8125 L 27.40625 19.90625 C 27.420378 19.897789 27.53125 19.84375 27.53125 19.84375 L 28.1875 19.4375 L 27.9375 18.6875 L 25.9375 12.6875 L 25.71875 12 L 25 12 L 22 12 C 22 11.448 21.552 11 21 11 C 20.448 11 20 11.448 20 12 L 12 12 C 12 11.448 11.552 11 11 11 z M 7.71875 14 L 24.28125 14 L 25.78125 18.4375 C 25.494554 18.587712 25.351219 18.701701 24.1875 19.03125 C 22.515629 19.5047 19.852844 20 16 20 C 12.147156 20 9.484371 19.5047 7.8125 19.03125 C 6.6487815 18.701701 6.5054465 18.587712 6.21875 18.4375 L 7.71875 14 z M 6.46875 20.6875 C 6.7288832 20.776482 6.9701616 20.880654 7.28125 20.96875 C 8.8100957 21.401698 11.033857 21.802507 14 21.9375 C 13.99935 21.958459 14 21.978883 14 22 C 14 23.104569 14.895431 24 16 24 C 17.104569 24 18 23.104569 18 22 C 18 21.978883 18.00065 21.958459 18 21.9375 C 20.966143 21.802507 23.189904 21.401698 24.71875 20.96875 C 25.029838 20.880654 25.271117 20.776482 25.53125 20.6875 L 26.78125 27 L 5.21875 27 L 6.46875 20.6875 z" overflow="visible" font-family="Sans" fill="#000000"/></svg>
