<?xml version="1.0" encoding="utf-8"?>
<svg xmlns="http://www.w3.org/2000/svg" viewBox="0 0 32 32" fill="#000000"><path style="text-indent:0;text-align:start;line-height:normal;text-transform:none;block-progression:tb;-inkscape-font-specification:Bitstream Vera Sans" d="M 13.5 4 C 9.8333333 4 8.09375 7.5625 8.09375 7.5625 L 9.90625 8.4375 C 9.90625 8.4375 11.166667 6 13.5 6 C 15.314286 6 16.46875 6.75 16.46875 6.75 L 16.9375 7.0625 L 17.46875 6.78125 C 17.46875 6.78125 18.881818 6 22 6 L 22 4 C 19.158084 4 17.644832 4.5949032 17.0625 4.84375 C 16.549073 4.5675308 15.389757 4 13.5 4 z M 26.25 6.34375 C 26.25 6.34375 25.874103 6.7867475 25.3125 7.21875 C 24.750897 7.6507525 24.02963 8 23.5 8 C 22.494928 8 21.760593 7.7977259 21.28125 7.59375 C 20.801907 7.3897741 20.625 7.21875 20.625 7.21875 L 19.375 8.78125 C 19.375 8.78125 19.804343 9.1102259 20.5 9.40625 C 21.195657 9.7022741 22.205072 10 23.5 10 C 24.77037 10 25.792853 9.3492475 26.53125 8.78125 C 27.269647 8.2132525 27.75 7.65625 27.75 7.65625 L 26.25 6.34375 z M 7 10 L 7 12 L 8 12 L 8 14.78125 L 4.0625 24.625 L 4 24.8125 L 4 25 L 4 27 L 4 28 L 5 28 L 21 28 L 22 28 L 22 27 L 22 25 L 22 24.8125 L 21.9375 24.625 L 18 14.78125 L 18 12 L 19 12 L 19 10 L 18 10 L 8 10 L 7 10 z M 10 12 L 16 12 L 16 15 L 16 15.1875 L 16.0625 15.375 L 20 25.21875 L 20 26 L 6 26 L 6 25.21875 L 9.9375 15.375 L 10 15.1875 L 10 15 L 10 12 z M 11.3125 17.59375 C 10.3125 18.19375 9.59375 19.3875 9.59375 20.6875 L 11.8125 20.6875 C 11.7125 20.2875 12.00625 19.89375 12.40625 19.59375 L 11.3125 17.59375 z M 14.8125 17.6875 L 13.6875 19.6875 C 13.9875 19.8875 14.3125 20.3125 14.3125 20.8125 L 16.5 20.8125 C 16.5 19.5125 15.8125 18.2875 14.8125 17.6875 z M 13 20.1875 C 12.668629 20.1875 12.40625 20.481129 12.40625 20.8125 C 12.40625 21.143871 12.668629 21.40625 13 21.40625 C 13.331371 21.40625 13.59375 21.143871 13.59375 20.8125 C 13.59375 20.481129 13.331371 20.1875 13 20.1875 z M 12.40625 21.90625 L 11.3125 23.90625 C 11.8125 24.20625 12.4 24.40625 13 24.40625 C 13.6 24.40625 14.1875 24.20625 14.6875 23.90625 L 13.59375 21.90625 C 13.39375 22.00625 13.2 22.09375 13 22.09375 C 12.8 22.09375 12.60625 22.00625 12.40625 21.90625 z" overflow="visible" font-family="Bitstream Vera Sans" fill="#000000"/></svg>
