<?xml version="1.0" encoding="utf-8"?>
<svg xmlns="http://www.w3.org/2000/svg" viewBox="0 0 32 32" fill="#000000"><path style="text-indent:0;text-align:start;line-height:normal;text-transform:none;block-progression:tb;-inkscape-font-specification:Sans" d="M 9.5 4 C 6.4742785 4 4 6.4742785 4 9.5 C 4 12.525721 6.4742784 15 9.5 15 C 12.525721 15 15 12.525721 15 9.5 C 15 6.4742784 12.525721 4 9.5 4 z M 18 4 L 18 5 L 18 13 L 18 14 L 19 14 L 27 14 L 28 14 L 28 13 L 28 5 L 28 4 L 27 4 L 19 4 L 18 4 z M 9.5 6 C 11.444841 6 13 7.5551588 13 9.5 C 13 11.444841 11.444841 13 9.5 13 C 7.5551588 13 6 11.444841 6 9.5 C 6 7.5551587 7.5551587 6 9.5 6 z M 20 6 L 26 6 L 26 12 L 20 12 L 20 6 z M 9.5 17 C 6.4742784 17 4 19.474279 4 22.5 C 4 25.525721 6.4742784 28 9.5 28 C 12.525721 28 15 25.525721 15 22.5 C 15 19.474279 12.525721 17 9.5 17 z M 22.5 17 C 19.474279 17 17 19.474279 17 22.5 C 17 25.525721 19.474279 28 22.5 28 C 25.525721 28 28 25.525721 28 22.5 C 28 19.474279 25.525721 17 22.5 17 z M 9.5 19 C 11.444841 19 13 20.555159 13 22.5 C 13 24.444841 11.444841 26 9.5 26 C 7.5551588 26 6 24.444841 6 22.5 C 6 20.555159 7.5551588 19 9.5 19 z M 22.5 19 C 24.444841 19 26 20.555159 26 22.5 C 26 24.444841 24.444841 26 22.5 26 C 20.555159 26 19 24.444841 19 22.5 C 19 20.555159 20.555159 19 22.5 19 z" overflow="visible" font-family="Sans" fill="#000000"/></svg>
