<?xml version="1.0" encoding="utf-8"?>
<svg xmlns="http://www.w3.org/2000/svg" viewBox="-8 10 32 32" fill="#000000"><path d="M 16 3 C 9.935 3 5 7.935 5 14 C 5 19.729 9.401 24.46175 15 24.96875 L 15 28.90625 L 16.375 28.375 C 23.132 25.709 27 20.47 27 14 C 27 7.935 22.065 3 16 3 z M 16 5 C 20.963 5 25 9.038 25 14 C 25 19.242 22.174 23.41725 17 25.90625 L 17 23 L 16 23 C 11.038 23 7 18.963 7 14 C 7 9.038 11.038 5 16 5 z M 11 10 L 11 14 L 13 14 C 13 15.103 12.103 16 11 16 L 11 18 C 13.206 18 15 16.206 15 14 L 15 10 L 11 10 z M 17 10 L 17 14 L 19 14 C 19 15.103 18.103 16 17 16 L 17 18 C 19.206 18 21 16.206 21 14 L 21 10 L 17 10 z" transform="translate(-8 10)" fill="#000000"/></svg>
