<?xml version="1.0" encoding="utf-8"?>
<svg xmlns="http://www.w3.org/2000/svg" viewBox="0 0 32 32" fill="#000000"><path style="text-indent:0;text-align:start;line-height:normal;text-transform:none;block-progression:tb;-inkscape-font-specification:Sans" d="M 6 5 C 5.4477153 5 5 5.4477153 5 6 C 5 6.5522847 5.4477153 7 6 7 C 6.5522847 7 7 6.5522847 7 6 C 7 5.4477153 6.5522847 5 6 5 z M 6 7 L 5 7 L 5 8 L 5 9 L 5 24 L 5 25.3125 L 5 27 L 7 27 L 7 24.75 L 13.28125 22.96875 L 14 22.75 L 14 22 L 14 6 L 14 5 L 13 5 C 11.154967 5 9.8849062 5.9348684 8.875 6.6875 C 8.1984522 7.1916966 7.631176 7.5916884 7 7.8125 L 7 7 L 6 7 z M 18 5 L 18 6 L 18 22 L 18 22.75 L 18.71875 22.96875 L 25 24.75 L 25 27 L 27 27 L 27 25.3125 L 27 24 L 27 9 L 27 8 L 27 7 L 26 7 L 25 7 L 25 7.8125 C 24.368824 7.5916884 23.801548 7.1916966 23.125 6.6875 C 22.115094 5.9348684 20.845033 5 19 5 L 18 5 z M 26 7 C 26.552285 7 27 6.5522847 27 6 C 27 5.4477153 26.552285 5 26 5 C 25.447715 5 25 5.4477153 25 6 C 25 6.5522847 25.447715 7 26 7 z M 12 7.25 L 12 21.25 L 7 22.65625 L 7 9.75 C 8.2359799 9.4697842 9.2768238 8.8980245 10.0625 8.3125 C 10.737499 7.8094579 11.342508 7.4679994 12 7.25 z M 20 7.25 C 20.657492 7.4679994 21.262501 7.8094579 21.9375 8.3125 C 22.723176 8.8980245 23.76402 9.4697842 25 9.75 L 25 22.65625 L 20 21.25 L 20 7.25 z M 10.5 14 C 10.223858 14 10 14.447715 10 15 C 10 15.552285 10.223858 16 10.5 16 C 10.776142 16 11 15.552285 11 15 C 11 14.447715 10.776142 14 10.5 14 z M 21.5 14 C 21.223858 14 21 14.447715 21 15 C 21 15.552285 21.223858 16 21.5 16 C 21.776142 16 22 15.552285 22 15 C 22 14.447715 21.776142 14 21.5 14 z" overflow="visible" font-family="Sans" fill="#000000"/></svg>
