<?xml version="1.0" encoding="utf-8"?>
<svg xmlns="http://www.w3.org/2000/svg" viewBox="0 0 32 32" fill="#000000"><path style="text-indent:0;text-align:start;line-height:normal;text-transform:none;block-progression:tb;-inkscape-font-specification:Bitstream Vera Sans" d="M 5 5 L 5 6 L 5 26 L 5 27 L 6 27 L 26 27 L 27 27 L 27 26 L 27 6 L 27 5 L 26 5 L 6 5 L 5 5 z M 7 7 L 25 7 L 25 25 L 7 25 L 7 7 z M 16 8.59375 L 15.28125 9.28125 L 11.78125 12.78125 L 13.21875 14.21875 L 15 12.4375 L 15 19.5625 L 13.21875 17.78125 L 11.78125 19.21875 L 15.28125 22.71875 L 16 23.40625 L 16.71875 22.71875 L 20.21875 19.21875 L 18.78125 17.78125 L 17 19.5625 L 17 12.4375 L 18.78125 14.21875 L 20.21875 12.78125 L 16.71875 9.28125 L 16 8.59375 z" overflow="visible" font-family="Bitstream Vera Sans" fill="#000000"/></svg>
