<?xml version="1.0" encoding="utf-8"?>
<svg xmlns="http://www.w3.org/2000/svg" viewBox="0 0 32 32" fill="#000000"><path d="M 7.9375 2 L 7.9375 3 C 7.9375 3 7.94112 5.139044 8.78125 7.34375 C 9.2013154 8.446103 9.8288271 9.6047596 10.84375 10.5 C 11.324229 10.92382 11.914022 11.270968 12.5625 11.53125 C 10.658804 12.82372 7.5121425 15.050357 4.28125 18.28125 L 2.59375 20 L 5 20 L 7.71875 20 L 7.03125 22.75 L 6.625 24.375 L 8.25 23.96875 L 11 23.28125 L 11 26 L 11 27.46875 L 12.375 26.9375 L 14.65625 26.03125 L 15 28.15625 L 15.28125 29.6875 L 16.5625 28.84375 L 18.75 27.375 L 20.1875 29.3125 L 21.40625 30.96875 L 21.96875 28.96875 C 21.96875 28.96875 22.801675 25.937094 22.96875 22.25 C 23.59805 21.698255 24 20.893848 24 20 C 24 19.422091 23.805217 18.981353 23.59375 18.5 C 23.382283 18.018647 23.136635 17.544744 22.875 17.09375 C 22.626736 16.665805 22.383656 16.296662 22.1875 16 L 29 16 L 25 14 L 29 12 L 24.09375 12 C 25.184199 10.080624 25.090415 7.9290628 24.625 6.25 C 24.010747 4.033978 22.8125 2.40625 22.8125 2.40625 L 22.5 2 L 22 2 L 21.96875 2 L 21.4375 2 L 21.15625 2.4375 L 20 4.1875 L 18.84375 2.4375 L 18.53125 2 L 18 2 L 17.96875 2 L 17.4375 2 L 17.125 2.4375 L 16 4.15625 L 14.84375 2.4375 L 14.53125 2 L 14 2 L 13.96875 2 L 13.40625 2 L 13.125 2.4375 L 11.84375 4.40625 L 9.71875 2.28125 L 9.40625 2 L 9 2 L 8.9375 2 L 7.9375 2 z M 14 4.8125 L 15.15625 6.5625 L 16 7.8125 L 16.84375 6.5625 L 18 4.8125 L 19.15625 6.5625 L 20 7.8125 L 20.84375 6.5625 L 21.875 5 C 22.20937 5.5826431 22.438173 5.8002709 22.71875 6.8125 C 23.194609 8.5292448 23.235161 10.377567 21.59375 12 L 21 12 L 21 14.25 L 20.1875 15.4375 C 20.1875 15.4375 19.648271 16.191762 19.125 17.09375 C 18.863365 17.544744 18.617717 18.018647 18.40625 18.5 C 18.194783 18.981353 18 19.422091 18 20 C 18 21.623563 19.321563 22.965369 20.9375 23 C 20.846372 24.273814 20.671061 25.413832 20.5 26.34375 L 19.8125 25.40625 L 19.25 24.625 L 18.4375 25.15625 L 16.75 26.28125 L 16.4375 24.46875 L 16.21875 23.25 L 15.0625 23.6875 L 13 24.5 L 13 22 L 13 20.71875 L 11.75 21.03125 L 9.375 21.625 L 9.96875 19.25 L 10.28125 18 L 9 18 L 7.75 18 C 11.548697 14.65433 15.53125 11.90625 15.53125 11.90625 L 16 11.625 L 16 11.0625 L 16 11 L 16 10 L 15 10 C 13.716197 10 12.873108 9.6047596 12.1875 9 C 11.501892 8.3952404 10.99831 7.553897 10.65625 6.65625 C 10.527972 6.3196166 10.617187 6.2968657 10.53125 5.96875 L 11.28125 6.71875 L 12.15625 7.5625 L 12.84375 6.5625 L 14 4.8125 z M 19 11 C 18.447715 11 18 11.447715 18 12 C 18 12.552285 18.447715 13 19 13 C 19.552285 13 20 12.552285 20 12 C 20 11.447715 19.552285 11 19 11 z M 21 17.875 C 21.0657 17.983782 21.05813 17.978489 21.125 18.09375 C 21.363365 18.504631 21.617717 18.940259 21.78125 19.3125 C 21.944783 19.684741 22 20.025409 22 20 C 22 20.56503 21.56503 21 21 21 C 20.43497 21 20 20.56503 20 20 C 20 20.02541 20.05522 19.684741 20.21875 19.3125 C 20.382283 18.940259 20.636635 18.504631 20.875 18.09375 C 20.94187 17.978489 20.9343 17.983782 21 17.875 z" fill="#000000"/></svg>
