<?xml version="1.0" encoding="utf-8"?>
<svg xmlns="http://www.w3.org/2000/svg" viewBox="0 0 32 32" fill="#000000"><path style="text-indent:0;text-align:start;line-height:normal;text-transform:none;block-progression:tb;-inkscape-font-specification:Bitstream Vera Sans" d="M 27.5 9 L 27.21875 9.375 L 23.65625 14 L 21.40625 14 L 19 14 L 19 12 L 17 12 L 17 14 L 16 14 L 16 12 L 14 12 L 14 14 L 13 14 L 13 12 L 11 12 L 11 14.09375 C 8.7272823 14.562098 7 16.594174 7 19 C 7 21.405826 8.7272823 23.437902 11 23.90625 L 11 25 L 13 25 L 13 24 L 14 24 L 14 25 L 16 25 L 16 24 L 17 24 L 17 25 L 19 25 L 19 23.96875 C 20.681277 23.717635 22 22.246982 22 20.5 C 22 19.954587 21.8512 19.461935 21.625 19 L 23.65625 19 L 27.21875 23.625 L 27.5 24 L 28 24 L 29 24 L 30 24 L 30 23 L 30 10 L 30 9 L 29 9 L 28 9 L 27.5 9 z M 28 11.65625 L 28 21.34375 L 24.9375 17.375 L 24.65625 17 L 24.15625 17 L 18.5 17 L 12 17 C 10.897 17 10 17.897 10 19 L 13 19 L 18.5 19 C 19.340812 19 20 19.659188 20 20.5 C 20 21.165643 19.589323 21.705219 19 21.90625 L 19 20 L 17 20 L 17 22 L 16 22 L 16 20 L 14 20 L 14 22 L 13 22 L 13 20 L 11 20 L 11 21.84375 C 9.8279881 21.436798 9 20.318362 9 19 C 9 17.331516 10.331516 16 12 16 L 12.15625 16 L 21.40625 16 L 24.15625 16 L 24.65625 16 L 24.9375 15.625 L 28 11.65625 z M 2 15 L 2 19 L 4 19 L 4 18 L 6.09375 18 C 6.21575 17.282 6.4595 16.608 6.8125 16 L 4 16 L 4 15 L 2 15 z" fill="#000000"/></svg>
