<?xml version="1.0" encoding="utf-8"?>
<svg xmlns="http://www.w3.org/2000/svg" viewBox="0 0 32 32" fill="#000000"><path style="text-indent:0;text-align:start;line-height:normal;text-transform:none;block-progression:tb;-inkscape-font-specification:Bitstream Vera Sans" d="M 19.15625 3 C 18.391846 3.00226 17.643332 3.2991237 17.09375 3.90625 C 17.08695 3.91303 17.10045 3.930721 17.09375 3.9375 C 15.864345 5.1756088 15.386587 6.4062504 14.96875 7.5 C 14.788715 7.9712671 14.610145 8.4178814 14.375 8.875 C 13.914691 8.3434743 13.24947 8 12.5 8 C 11.131133 8 10 9.1311327 10 10.5 C 10 11.868867 11.131133 13 12.5 13 C 13.241728 13 13.883756 12.647084 14.34375 12.125 L 14.40625 12.1875 L 5.28125 21.28125 L 5 21.59375 L 5 22 L 5 25.5625 L 4 26.59375 L 5.40625 28 L 6.4375 27 L 10 27 L 10.40625 27 L 10.71875 26.71875 L 27.28125 10.125 L 27.3125 10.09375 C 28.466053 8.9401966 28.466053 7.0598034 27.3125 5.90625 L 26.09375 4.6875 C 25.516973 4.1107233 24.765165 3.8125 24 3.8125 C 23.284602 3.8125 22.591161 4.0884429 22.03125 4.59375 L 21.3125 3.90625 C 20.720992 3.3147419 19.935289 2.9976922 19.15625 3 z M 19.1875 5 C 19.434319 5.0057823 19.697758 5.1040081 19.90625 5.3125 L 20.59375 6 L 14.46875 12.09375 C 15.825807 10.655482 16.422354 9.3218166 16.84375 8.21875 C 17.273625 7.0934886 17.544635 6.2678645 18.5 5.3125 L 18.53125 5.28125 L 18.5625 5.25 C 18.710481 5.080879 18.940681 4.9942177 19.1875 5 z M 24 5.78125 C 24.234835 5.78125 24.464277 5.870527 24.6875 6.09375 L 25.90625 7.3125 C 26.352697 7.7589466 26.352697 8.2410534 25.90625 8.6875 L 25 9.5625 L 22.4375 7 L 23.21875 6.21875 L 23.3125 6.09375 C 23.535723 5.8705267 23.765165 5.78125 24 5.78125 z M 21 8.4375 L 23.5625 11 L 16 18.5625 L 13.4375 16 L 21 8.4375 z M 12.5 10 C 12.787987 10 13 10.212013 13 10.5 C 13 10.787987 12.787987 11 12.5 11 C 12.212013 11 12 10.787987 12 10.5 C 12 10.212013 12.212013 10 12.5 10 z M 12 17.4375 L 14.5625 20 L 9.5625 25 L 7 25 L 7 22.4375 L 12 17.4375 z" overflow="visible" font-family="Bitstream Vera Sans" fill="#000000"/></svg>
