<?xml version="1.0" encoding="utf-8"?>
<svg xmlns="http://www.w3.org/2000/svg" viewBox="0 0 32 32" fill="#000000"><path style="text-indent:0;text-align:start;line-height:normal;text-transform:none;block-progression:tb;-inkscape-font-specification:Bitstream Vera Sans" d="M 14 4 L 14 6 L 15 6 L 15 7 L 11.03125 7 L 7.9375 28 L 9.9375 28 L 12.78125 9 L 15 9 L 15 16.59375 L 12.96875 14.5625 L 12.59375 17 L 14.59375 19 L 11.875 21.71875 L 11.375 25.03125 L 15 21.40625 L 15 28 L 17 28 L 17 9 L 19.21875 9 L 19.9375 13.65625 L 18 15.59375 L 18 18.40625 L 20.28125 16.125 L 21.3125 22.90625 L 18 19.59375 L 18 22.40625 L 21.78125 26.21875 L 22.0625 28 L 24.0625 28 L 20.96875 7 L 17 7 L 17 6 L 18 6 L 18 4 L 14 4 z" overflow="visible" font-family="Bitstream Vera Sans" fill="#000000"/></svg>
