<?xml version="1.0" encoding="utf-8"?>
<svg xmlns="http://www.w3.org/2000/svg" viewBox="0 0 32 32" fill="#000000"><path d="M 8 4 L 11.8125 13.1875 C 9.5258639 14.598218 8 17.125435 8 20 C 8 24.406433 11.593567 28 16 28 C 20.406433 28 24 24.406433 24 20 C 24 17.125435 22.474136 14.598218 20.1875 13.1875 L 24 4 L 22 4 L 18.5 12.40625 C 17.923005 12.215494 17.313442 12.085302 16.6875 12.03125 L 20 4 L 18 4 L 14.59375 12.125 C 14.224447 12.191643 13.850056 12.290521 13.5 12.40625 L 10 4 L 8 4 z M 12 4 L 14.46875 9.90625 L 15.46875 7.5 L 14 4 L 12 4 z M 16 14 C 19.325553 14 22 16.674447 22 20 C 22 23.325553 19.325553 26 16 26 C 12.674447 26 10 23.325553 10 20 C 10 16.674447 12.674447 14 16 14 z M 16 16 C 15.08819 16 14.307181 16.197343 13.75 16.6875 C 13.192819 17.177657 13 17.897192 13 18.5 L 13 19 L 15 19 L 15 18.5 C 15 18.274808 15.03368 18.240343 15.09375 18.1875 C 15.153819 18.134657 15.38081 18 16 18 C 16.61919 18 16.846181 18.134657 16.90625 18.1875 C 16.966319 18.240343 17 18.274808 17 18.5 L 17 19.03125 C 16.9243 19.10893 16.848675 19.194918 16.71875 19.3125 C 16.372283 19.626053 15.866668 20.012916 15.375 20.40625 C 14.391665 21.192918 13.40625 21.9375 13.40625 21.9375 L 13 22.25 L 13 22.75 L 13 23 L 13 24 L 14 24 L 19 24 L 19 22 L 16.59375 22 C 16.61102 21.98622 16.60772 21.98257 16.625 21.96875 C 17.133332 21.562084 17.627717 21.146447 18.03125 20.78125 C 18.233016 20.598652 18.411455 20.449665 18.5625 20.28125 C 18.638022 20.197043 18.706414 20.114873 18.78125 20 C 18.856086 19.885127 19 19.766825 19 19.34375 L 19 18.5 C 19 17.897192 18.807181 17.177657 18.25 16.6875 C 17.692819 16.197343 16.91181 16 16 16 z" fill="#000000"/></svg>
