<?xml version="1.0" encoding="utf-8"?>
<svg xmlns="http://www.w3.org/2000/svg" viewBox="0 0 32 32" fill="#000000"><path style="text-indent:0;text-align:start;line-height:normal;text-transform:none;block-progression:tb;-inkscape-font-specification:Sans" d="M 5 5 L 5 6 L 5 26 L 5 27 L 6 27 L 26 27 L 27 27 L 27 26 L 27 6 L 27 5 L 26 5 L 6 5 L 5 5 z M 7 7 L 25 7 L 25 25 L 7 25 L 7 7 z M 13 11 L 13 13 L 13 13.25 L 13.09375 13.4375 L 15 17.25 L 15 21 L 17 21 L 17 17.25 L 18.90625 13.4375 L 19 13.25 L 19 13 L 19 11 L 17 11 L 17 12.75 L 16 14.75 L 15 12.75 L 15 11 L 13 11 z" overflow="visible" font-family="Sans" fill="#000000"/></svg>
