<?xml version="1.0" encoding="utf-8"?>
<svg xmlns="http://www.w3.org/2000/svg" viewBox="0 0 32 32" fill="#000000"><path d="M 8 4 L 8 6 C 8 12.563 5.031 15.781 3 17 L 20 17 C 22.25 16.156 24 13.719 24 6 L 24 4 L 8 4 z M 10 6 L 22 6 C 22 13.122 20.432656 14.58 19.597656 15 L 7.6816406 15 C 8.9386406 12.991 10 10.085 10 6 z M 24 15.669922 C 23.482 17.061922 22.793 17.929563 22 18.476562 L 22 21 L 10 21 L 10 19 L 8 19 L 8 21 L 6 21 L 6 23 L 13.777344 23 L 11 26.822266 L 12.617188 27.998047 L 15.998047 23.34375 L 19.382812 28 L 21 26.824219 L 18.220703 23 L 26 23 L 26 21 L 24 21 L 24 15.669922 z" fill="#000000"/></svg>
