<?xml version="1.0" encoding="utf-8"?>
<svg xmlns="http://www.w3.org/2000/svg" viewBox="0 0 32 32" fill="#000000"><path style="text-indent:0;text-align:start;line-height:normal;text-transform:none;block-progression:tb;-inkscape-font-specification:Sans" d="M 16 3 C 12.145666 3 9 6.1456661 9 10 C 9 12.408959 10.231169 14.552158 12.09375 15.8125 C 8.5266131 17.342333 6 20.881262 6 25 L 8 25 C 8 20.569334 11.569334 17 16 17 C 20.430666 17 24 20.569334 24 25 L 26 25 C 26 20.915708 23.519618 17.394155 20 15.84375 C 21.09888 15.261363 22.143724 14.524664 23.09375 13.8125 C 25.158593 12.264642 26.71875 10.71875 26.71875 10.71875 L 27.40625 10 L 26.71875 9.3125 C 26.71875 9.3125 25.20752 7.737676 23.15625 6.1875 C 21.10498 4.637324 18.545819 3 16 3 z M 16 5 C 17.575181 5 20.01902 6.362676 21.9375 7.8125 C 23.392955 8.9124091 23.988139 9.532473 24.46875 10 C 23.975177 10.470775 23.371635 11.089011 21.90625 12.1875 C 19.969093 13.639642 17.494998 15 16 15 C 13.226334 15 11 12.773666 11 10 C 11 7.2263339 13.226334 5 16 5 z M 13.875 20 L 13.59375 20.5625 L 13.375 21 L 12 21 L 11 21 L 11 22 L 11 28 L 11 29 L 12 29 L 20 29 L 21 29 L 21 28 L 21 22 L 21 21 L 20 21 L 18.625 21 L 18.40625 20.5625 L 18.125 20 L 17.5 20 L 14.5 20 L 13.875 20 z M 15.125 22 L 16.875 22 L 17.09375 22.4375 L 17.375 23 L 18 23 L 19 23 L 19 27 L 13 27 L 13 23 L 14 23 L 14.625 23 L 14.90625 22.4375 L 15.125 22 z M 16 24 C 15.447715 24 15 24.447715 15 25 C 15 25.552285 15.447715 26 16 26 C 16.552285 26 17 25.552285 17 25 C 17 24.447715 16.552285 24 16 24 z" overflow="visible" font-family="Sans" fill="#000000"/></svg>
