<?xml version="1.0" encoding="utf-8"?>
<svg xmlns="http://www.w3.org/2000/svg" viewBox="0 0 32 32" fill="#000000"><path style="text-indent:0;text-align:start;line-height:normal;text-transform:none;block-progression:tb;-inkscape-font-specification:Bitstream Vera Sans" d="M 6 5 L 6 7 L 5 7 L 5 9 L 6 9 L 6 11 L 5 11 L 5 13 L 6 13 L 6 15 L 5 15 L 5 17 L 6 17 L 6 19 L 5 19 L 5 21 L 6 21 L 6 23 L 5 23 L 5 25 L 6 25 L 6 27 L 8 27 C 8 26.201938 8.7263891 24.570474 10 22.71875 C 10.381208 22.164506 10.822131 21.59418 11.28125 21 L 12 21 L 12 23 L 11 23 C 11 23 9.84375 24.587 9.84375 25 L 12 25 L 12 27 L 14 27 C 14 26.567553 14.243681 25.84724 14.65625 25 L 17 25 L 17 23 L 15.8125 23 C 15.877197 22.902454 15.932168 22.817619 16 22.71875 C 16.377093 22.169115 16.800961 21.591342 17.25 21 L 20 21 L 20 19 L 18.8125 19 C 19.346145 18.336414 19.883314 17.675013 20.4375 17 L 23 17 L 23 15 L 22.0625 15 C 22.607008 14.329883 23.144531 13.656065 23.65625 13 L 26 13 L 26 11 L 25.15625 11 C 25.306572 10.790447 25.482927 10.580903 25.625 10.375 C 25.94897 9.9054789 26.254444 9.4447821 26.53125 9 L 28.46875 9 L 28.46875 7 L 27.5625 7 C 27.829161 6.3236648 28 5.659493 28 5 L 26 5 C 26 5.4218017 25.736428 6.1388747 25.3125 7 L 22.5625 7 C 22.2245 7.945 21.5625 9 21.5625 9 L 24.15625 9 C 24.099436 9.0848762 24.059201 9.1642015 24 9.25 C 23.614728 9.808364 23.178627 10.399521 22.71875 11 L 20.46875 11 L 18.90625 13 L 21.125 13 C 20.590187 13.660687 20.054461 14.325458 19.5 15 L 17.46875 15 L 15.90625 17 L 17.875 17 C 17.336087 17.666459 16.818442 18.346162 16.3125 19 L 15 19 L 15 20.75 C 14.794406 21.035098 14.566018 21.31533 14.375 21.59375 C 14.24197 21.787649 14.126026 21.966936 14 22.15625 L 14 17.59375 C 14.266437 17.269998 14.513419 16.949812 14.78125 16.625 C 16.531118 14.502847 18.273803 12.365244 19.625 10.40625 C 20.976197 8.4472563 22 6.7166667 22 5 L 20 5 C 20 5.4324476 19.756349 6.1516829 19.34375 7 L 18 7 L 18 9 L 18.1875 9 C 18.122815 9.0971105 18.067816 9.182929 18 9.28125 C 16.918517 10.849209 15.478241 12.615928 14 14.40625 L 14 13 L 15 13 L 15 11 L 14 11 L 14 9 L 15 9 L 15 7 L 14 7 L 14 5 L 12 5 L 12 7 L 9 7 L 9 9 L 12 9 L 12 11 L 9 11 L 9 13 L 12 13 L 12 15 L 9 15 L 9 17 L 11.875 17 C 11.328397 17.671918 10.797823 18.338911 10.28125 19 L 9 19 L 9 20.71875 C 8.7969972 20.998315 8.5627112 21.289584 8.375 21.5625 C 8.2419222 21.755984 8.1260562 21.935515 8 22.125 L 8 5 L 6 5 z" fill="#000000"/></svg>
