<?xml version="1.0" encoding="utf-8"?>
<svg xmlns="http://www.w3.org/2000/svg" viewBox="0 0 32 32" fill="#000000"><path style="text-indent:0;text-align:start;line-height:normal;text-transform:none;block-progression:tb;-inkscape-font-specification:Bitstream Vera Sans" d="M 13.5 4 C 12.130937 4 11 5.1309372 11 6.5 C 11 7.3305844 11.491852 7.9503169 12.125 8.40625 L 9.6875 12.53125 C 9.2286076 13.30399 9 14.196549 9 15.09375 L 9 25 C 9 26.64497 10.35503 28 12 28 L 20 28 C 21.64497 28 23 26.64497 23 25 L 23 15.09375 C 23 14.196549 22.771392 13.30399 22.3125 12.53125 L 19.875 8.40625 C 20.508148 7.9503169 21 7.3305844 21 6.5 C 21 5.1309372 19.869063 4 18.5 4 L 13.5 4 z M 13.5 6 L 18.5 6 C 18.786937 6 19 6.2130628 19 6.5 C 19 6.7869372 18.786937 7 18.5 7 L 17.5 7 L 17.5 8 L 17.5 8.09375 L 17.5 8.375 L 17.625 8.625 L 20.59375 13.5625 C 20.868858 14.02576 21 14.554951 21 15.09375 L 21 25 C 21 25.56503 20.56503 26 20 26 L 12 26 C 11.43497 26 11 25.56503 11 25 L 11 15.09375 C 11 14.554951 11.131142 14.02576 11.40625 13.5625 L 14.375 8.625 L 14.5 8.375 L 14.5 8.09375 L 14.5 8 L 14.5 7 L 13.5 7 C 13.213063 7 13 6.7869372 13 6.5 C 13 6.2130628 13.213063 6 13.5 6 z" overflow="visible" font-family="Bitstream Vera Sans" fill="#000000"/></svg>
