<?xml version="1.0" encoding="utf-8"?>
<svg xmlns="http://www.w3.org/2000/svg" viewBox="0 0 32 32" fill="#000000"><path style="text-indent:0;text-align:start;line-height:normal;text-transform:none;block-progression:tb;-inkscape-font-specification:Sans" d="M 16 3 C 9.5148912 3 4.1242273 7.7817867 3.15625 14 L 0.5 14 L 4 18.375 L 7.5 14 L 5.1875 14 C 6.1266523 8.874488 10.598246 5 16 5 C 19.043833 5 21.790174 6.2267566 23.78125 8.21875 L 25.1875 6.8125 C 22.836576 4.4604934 19.584167 3 16 3 z M 16 10 C 13.802666 10 12 11.802666 12 14 C 12 15.114248 12.475265 16.116067 13.21875 16.84375 C 11.88816 17.744728 11 19.281553 11 21 L 13 21 C 13 19.331516 14.331516 18 16 18 C 17.668484 18 19 19.331516 19 21 L 21 21 C 21 19.343529 20.156923 17.879982 18.90625 16.96875 C 19.233494 16.754925 19.549571 16.533024 19.84375 16.3125 C 20.908093 15.514642 21.71875 14.71875 21.71875 14.71875 L 22.40625 14 L 21.71875 13.3125 C 21.71875 13.3125 20.933876 12.487658 19.875 11.6875 C 18.816124 10.887342 17.515437 10 16 10 z M 16 12 C 16.544563 12 17.730126 12.612658 18.65625 13.3125 C 19.119312 13.662421 19.180471 13.736954 19.46875 14 C 19.175261 14.263224 19.120122 14.33977 18.65625 14.6875 C 17.719593 15.389642 16.496998 16 16 16 C 14.883334 16 14 15.116666 14 14 C 14 12.883334 14.883334 12 16 12 z M 28 12.625 L 24.5 17 L 26.9375 17 C 26.432609 22.61417 21.748216 27 16 27 C 12.957249 27 10.209852 25.772352 8.21875 23.78125 L 6.8125 25.1875 C 9.163398 27.538398 12.416751 29 16 29 C 22.825964 29 28.417847 23.695066 28.9375 17 L 31.5 17 L 28 12.625 z" overflow="visible" font-family="Sans" fill="#000000"/></svg>
