<?xml version="1.0" encoding="utf-8"?>
<svg xmlns="http://www.w3.org/2000/svg" viewBox="0 0 32 32" fill="#000000"><path style="text-indent:0;text-align:start;line-height:normal;text-transform:none;block-progression:tb;-inkscape-font-specification:Bitstream Vera Sans" d="M 19.84375 4.46875 C 19.138699 4.46875 18.300617 4.67398 17.53125 4.84375 C 16.761883 5.01352 16.125 5.1875 16.125 5.1875 L 14.75 5.53125 L 15.5625 6.71875 C 15.5625 6.71875 16.204368 7.6899866 16.8125 8.90625 L 18.625 8 C 18.286066 7.3221317 18.173841 7.2172159 17.90625 6.78125 C 17.93781 6.77419 17.93671 6.78832 17.96875 6.78125 C 18.694883 6.62102 19.604801 6.46875 19.84375 6.46875 C 20.717439 6.46875 21.40625 7.1575612 21.40625 8.03125 C 21.40625 8.4901939 20.865902 9.1078453 20.09375 9.59375 C 19.321598 10.079655 18.53125 10.375 18.53125 10.375 L 17.75 10.625 L 17.84375 11.4375 C 18.007079 12.769206 18.119931 14.953108 17.4375 17.15625 C 14.57344 17.633669 11.94982 16.804107 9.71875 15.15625 C 7.4876799 13.508393 5.6741328 11.020872 4.59375 8.34375 L 4.34375 7.71875 L 3.6875 7.71875 L 3.375 7.71875 L 2.78125 7.71875 L 2.5 8.21875 C 2.5 8.21875 1 10.94446 1 15.28125 C 1 19.590464 4.4504209 22.59375 8.15625 22.59375 L 8.15625 20.59375 C 5.5160791 20.59375 3 18.538036 3 15.28125 C 3 13.254096 3.3336202 11.749989 3.65625 10.71875 C 4.8718818 13.050328 6.4438999 15.208294 8.53125 16.75 C 10.789126 18.417656 13.516311 19.43987 16.46875 19.28125 C 16.419945 19.361731 16.395616 19.451519 16.34375 19.53125 C 14.470808 22.410411 10.558933 25 2 25 L 2 27 C 10.972067 27 15.717442 24.133839 18 20.625 C 20.076624 17.43273 20.043718 14.061522 19.84375 11.9375 C 20.212534 11.791518 20.493617 11.729486 21.15625 11.3125 C 22.023614 10.76668 23.071487 9.9081033 23.34375 8.65625 C 25.39909 8.222054 29.22321 7.2874563 31 6 L 22.75 6 C 22.10406 5.0727503 21.048981 4.46875 19.84375 4.46875 z" overflow="visible" font-family="Bitstream Vera Sans" fill="#000000"/></svg>
