<?xml version="1.0" encoding="utf-8"?>
<svg xmlns="http://www.w3.org/2000/svg" viewBox="0 0 32 32" fill="#000000"><path style="text-indent:0;text-align:start;line-height:normal;text-transform:none;block-progression:tb;-inkscape-font-specification:Bitstream Vera Sans" d="M 13 4 L 13 5 L 13 6 L 10 6 L 9 6 L 9 7 L 9 8 L 6 8 L 5 8 L 5 9 L 5 15 L 5 15.40625 L 5.28125 15.71875 L 7.28125 17.71875 L 7.5625 18 L 5 18 L 4 18 L 4 19 L 4 26 L 4 27 L 5 27 L 27 27 L 28 27 L 28 26 L 28 19 L 28 18 L 27 18 L 24.4375 18 L 24.71875 17.71875 L 26.71875 15.71875 L 27 15.40625 L 27 15 L 27 9 L 27 8 L 26 8 L 23 8 L 23 7 L 23 6 L 22 6 L 19 6 L 19 5 L 19 4 L 18 4 L 14 4 L 13 4 z M 15 6 L 17 6 L 17 7 L 17 14.5625 L 16 15.5625 L 15 14.5625 L 15 7 L 15 6 z M 11 8 L 13 8 L 13 14.5625 L 12 15.5625 L 11 14.5625 L 11 9 L 11 8 z M 19 8 L 21 8 L 21 9 L 21 14.5625 L 20 15.5625 L 19 14.5625 L 19 8 z M 7 10 L 9 10 L 9 14.5625 L 8 15.5625 L 7 14.5625 L 7 10 z M 23 10 L 25 10 L 25 14.5625 L 24 15.5625 L 23 14.5625 L 23 10 z M 7.5 12 L 7.5 14 L 8.5 14 L 8.5 12 L 7.5 12 z M 11.5 12 L 11.5 14 L 12.5 14 L 12.5 12 L 11.5 12 z M 15.5 12 L 15.5 14 L 16.5 14 L 16.5 12 L 15.5 12 z M 19.5 12 L 19.5 14 L 20.5 14 L 20.5 12 L 19.5 12 z M 23.5 12 L 23.5 14 L 24.5 14 L 24.5 12 L 23.5 12 z M 10 16.4375 L 11.28125 17.71875 L 11.5625 18 L 8.4375 18 L 8.71875 17.71875 L 10 16.4375 z M 14 16.4375 L 15.28125 17.71875 L 15.5625 18 L 12.4375 18 L 12.71875 17.71875 L 14 16.4375 z M 18 16.4375 L 19.28125 17.71875 L 19.5625 18 L 16.4375 18 L 16.71875 17.71875 L 18 16.4375 z M 22 16.4375 L 23.28125 17.71875 L 23.5625 18 L 20.4375 18 L 20.71875 17.71875 L 22 16.4375 z M 6 20 L 8 20 L 8 23 L 10 23 L 10 20 L 11 20 L 11 23 L 13 23 L 13 20 L 16 20 L 16 23 L 18 23 L 18 20 L 19 20 L 19 23 L 21 23 L 21 20 L 22 20 L 22 23 L 24 23 L 24 20 L 26 20 L 26 25 L 6 25 L 6 20 z" fill="#000000"/></svg>
