<?xml version="1.0" encoding="utf-8"?>
<svg xmlns="http://www.w3.org/2000/svg" viewBox="0 0 32 32" fill="#000000"><path style="text-indent:0;text-align:start;line-height:normal;text-transform:none;block-progression:tb;-inkscape-font-specification:Sans" d="M 15 4 L 15 7 L 17 7 L 17 4 L 15 4 z M 8.625 7.21875 L 7.375 8.78125 L 9.625 10.59375 L 10.875 9.03125 L 8.625 7.21875 z M 23.375 7.21875 L 21.125 9.03125 L 22.375 10.59375 L 24.625 8.78125 L 23.375 7.21875 z M 13.1875 9 L 13.03125 9.8125 L 12.03125 14.8125 L 11.78125 16 L 13 16 L 19 16 L 20.21875 16 L 19.96875 14.8125 L 18.96875 9.8125 L 18.8125 9 L 18 9 L 14 9 L 13.1875 9 z M 14.8125 11 L 16 11 L 16 14 L 14.21875 14 L 14.8125 11 z M 6 14 L 6 16 L 9 16 L 9 14 L 6 14 z M 23 14 L 23 16 L 26 16 L 26 14 L 23 14 z M 4 17 L 4 19 L 28 19 L 28 17 L 4 17 z M 6 20 L 6 21 L 6 21.15625 L 6.0625 21.3125 L 8 27.3125 L 8.21875 28 L 8.9375 28 L 9.0625 28 L 9.78125 28 L 10 27.3125 L 10.5 25.71875 L 11 27.3125 L 11.21875 28 L 11.9375 28 L 12.0625 28 L 12.78125 28 L 13 27.3125 L 14.9375 21.3125 L 15 21.15625 L 15 21 L 15 20 L 13 20 L 13 20.875 L 12.03125 23.84375 L 11.5 22.1875 L 11.28125 21.5 L 10.5625 21.5 L 10.4375 21.5 L 9.71875 21.5 L 9.5 22.1875 L 8.96875 23.84375 L 8 20.875 L 8 20 L 6 20 z M 16 20 L 16 28 L 18 28 L 18 20 L 16 20 z M 20 20 L 20 28 L 22 28 L 22 24.4375 L 24 26.4375 L 24 28 L 26 28 L 26 20 L 24 20 L 24 23.5625 L 22 21.5625 L 22 20 L 20 20 z" fill="#000000"/></svg>
