<?xml version="1.0" encoding="utf-8"?>
<svg xmlns="http://www.w3.org/2000/svg" viewBox="0 0 32 32" fill="#000000"><path style="text-indent:0;text-align:start;line-height:normal;text-transform:none;block-progression:tb;-inkscape-font-specification:Bitstream Vera Sans" d="M 3 7 L 3 8 L 3 24 L 3 25 L 4 25 L 8 25 L 9 25 L 9 24 L 9 19 L 12 19 L 12 24 L 12 25 L 13 25 L 17 25 L 18 25 L 18 24 L 18 8 L 18 7 L 17 7 L 13 7 L 12 7 L 12 8 L 12 13 L 9 13 L 9 8 L 9 7 L 8 7 L 4 7 L 3 7 z M 25.3125 7 L 25.0625 7.625 C 25.0625 7.625 24.076924 10 22 10 L 21 10 L 21 11 L 21 13 L 21 14 L 22 14 L 24 14 L 24 24 L 24 25 L 25 25 L 28 25 L 29 25 L 29 24 L 29 8 L 29 7 L 28 7 L 26 7 L 25.3125 7 z M 5 9 L 7 9 L 7 14 L 7 15 L 8 15 L 13 15 L 14 15 L 14 14 L 14 9 L 16 9 L 16 23 L 14 23 L 14 18 L 14 17 L 13 17 L 8 17 L 7 17 L 7 18 L 7 23 L 5 23 L 5 9 z M 26.53125 9 L 27 9 L 27 23 L 26 23 L 26 13 L 26 12 L 25 12 L 23 12 L 23 11.75 C 25.184397 11.237398 26.164858 9.7437648 26.53125 9 z" overflow="visible" font-family="Bitstream Vera Sans" fill="#000000"/></svg>
