<?xml version="1.0" encoding="utf-8"?>
<svg xmlns="http://www.w3.org/2000/svg" viewBox="0 0 32 32" fill="#000000"><path d="M 4 4 L 4 26 L 12.230469 26 C 12.244469 25.939 12.267203 25.882266 12.283203 25.822266 C 12.299203 25.759266 12.305266 25.700719 12.322266 25.636719 C 12.338266 25.569719 12.357953 25.5015 12.376953 25.4375 C 12.407953 25.3315 12.455234 25.230953 12.490234 25.126953 C 12.526234 25.020953 12.565469 24.9165 12.605469 24.8125 C 12.658469 24.6725 12.699766 24.527625 12.759766 24.390625 C 12.783766 24.336625 12.808891 24.284516 12.837891 24.228516 C 12.868891 24.160516 12.916219 24.086531 12.949219 24.019531 C 12.952219 24.013531 12.954031 24.007953 12.957031 24.001953 L 6 24.001953 L 6 6 L 21 6 L 21 11 C 21.695 11 22.366 11.104922 23 11.294922 L 23 4 L 4 4 z M 8 8 L 8 10 L 12 10 L 12 8 L 8 8 z M 15 8 L 15 10 L 19 10 L 19 8 L 15 8 z M 8 12 L 8 14 L 12 14 L 12 12 L 8 12 z M 15 12 L 15 14 L 15.263672 14 C 15.829672 13.19 16.563109 12.51 17.412109 12 L 15 12 z M 21 13 C 18.250421 13 16 15.250421 16 18 C 16 19.520809 16.702607 20.871949 17.783203 21.791016 C 15.540153 22.959851 14 25.304609 14 28 L 16 28 C 16 25.226535 18.227497 23 21 23 C 23.773666 23 26 25.226334 26 28 L 28 28 C 28 25.304632 26.460046 22.959845 24.216797 21.791016 C 25.297393 20.871949 26 19.520809 26 18 C 26 15.250421 23.749579 13 21 13 z M 21 15 C 22.668699 15 24 16.331301 24 18 C 24 19.668699 22.668699 21 21 21 C 19.331301 21 18 19.668699 18 18 C 18 16.331301 19.331301 15 21 15 z M 8 16 L 8 18 L 12 18 L 12 16 L 8 16 z M 8 20 L 8 22 L 12 22 L 12 20 L 8 20 z" fill="#000000"/></svg>
