<?xml version="1.0" encoding="utf-8"?>
<svg xmlns="http://www.w3.org/2000/svg" viewBox="0 0 32 32" fill="#000000"><path d="M 13.574219 3 C 13.370219 2.999 13.166406 3.09925 13.066406 3.28125 C 12.965406 3.46325 12.980516 3.6884219 13.103516 3.8574219 C 13.106516 3.8624219 13.107328 3.8660938 13.111328 3.8710938 C 14.090328 4.7540937 14 6 14 6 C 12.995 5.141 12.312 5 11 5 C 10.146 5 9.095375 5.5856875 8.234375 6.1796875 C 8.047375 6.3086875 7.9615781 6.5388125 8.0175781 6.7578125 C 8.0745781 6.9748125 8.2593281 7.1380625 8.4863281 7.1640625 C 8.6953281 7.1870625 12 8 12 8 C 8.059 8 5.5995781 8.611125 5.0175781 10.328125 C 4.9495781 10.528125 5.0313125 10.749766 5.1953125 10.884766 C 5.2673125 10.943766 5.3514531 10.982 5.4394531 11 L 7.9121094 11.125 L 6.2441406 12.216797 C 5.9841406 12.393797 5.9224687 12.745 6.1054688 13 L 7 15 L 7 16 L 7 16.492188 C 6.4572463 16.235567 5.8305573 16 5.1679688 16 C 4.0299688 16 3.507625 16.681125 3.265625 17.078125 C 2.553625 18.247125 3.4826562 20.051672 3.5976562 20.263672 C 3.9196563 20.834672 5.8981406 23.867703 7.6191406 23.970703 C 7.7221406 23.976703 7.8190625 23.978516 7.9140625 23.978516 C 8.5850625 23.978516 8.9165156 23.703594 9.1035156 23.433594 C 9.2675156 24.076594 9.4426094 25.019203 9.5996094 25.408203 C 10.196609 26.885203 15.01425 29 17.78125 29 C 21.33425 29 23.326156 28.4605 23.410156 28.4375 C 23.565156 28.3945 23.693719 28.286578 23.761719 28.142578 C 23.823897 28.007585 25.466523 24.992461 26.259766 23.390625 L 26.269531 23.392578 C 26.469531 22.991578 26.621547 22.672 26.685547 22.5 C 26.961547 21.758 27.953125 16.296875 27.953125 16.296875 C 27.995125 16.202875 28.009141 16.101953 27.994141 16.001953 C 27.994141 16.001953 28 9.799125 28 9.203125 C 28 6.088125 26.09 4.2462031 26 4.1582031 C 25.853 4.0112031 25.631594 3.9622969 25.433594 4.0292969 C 25.387791 4.045107 25.357603 4.0832009 25.318359 4.109375 C 25.305396 4.1127987 25.292014 4.1108492 25.279297 4.1152344 C 25.141297 4.1622344 25.047375 4.2695313 24.984375 4.3945312 L 25.087891 4.4316406 C 25.084287 4.4480043 25.070405 4.4597051 25.068359 4.4765625 C 25.060359 4.5415625 25.049062 4.6097812 25.039062 4.6757812 C 25.167063 5.3967813 25.071203 6.3729375 24.908203 7.3359375 C 24.908203 7.3359375 24.602422 4.4372344 23.107422 3.2402344 C 23.016422 3.1672344 22.909688 3.1204531 22.804688 3.0644531 C 22.634688 2.9744531 22.429625 2.9791719 22.265625 3.0761719 C 22.100625 3.1731719 22 3.3510156 22 3.5410156 L 22 6 C 22 6 20.729844 3.9375312 19.214844 3.1445312 C 19.035844 3.0975312 18.851203 3.0527187 18.658203 3.0117188 C 18.446203 2.9687187 18.227563 3.0535156 18.101562 3.2285156 C 17.975563 3.4035156 18.014125 3.6123594 18.078125 3.8183594 C 18.332125 4.6453594 18 6 18 6 C 18 6 17.266281 3.3922969 13.988281 3.0292969 C 13.849281 3.0202969 13.715219 3.008 13.574219 3 z M 15 10 C 20.032112 10 24.763491 12.346826 26.494141 12.880859 C 26.49378 13.798161 26.494501 14.541032 26.494141 15.023438 L 22.828125 15.664062 C 22.284125 15.759063 21.920625 16.276312 22.015625 16.820312 C 22.051011 17.022637 22.153305 17.191953 22.285156 17.330078 C 22.124499 17.652845 22.036645 17.983949 22.027344 18.259766 C 22.004344 18.451766 22.041953 20.20875 22.751953 21.21875 C 23.141953 21.77375 23.813203 22 24.533203 22 C 24.728969 22 24.992888 21.958493 25.296875 21.892578 C 25.293563 21.903192 25.280348 21.967762 25.277344 21.976562 C 25.251895 22.044823 25.078406 22.366998 25.015625 22.5 L 23 22.5 L 22.841797 22.501953 L 22.503906 22.505859 C 21.157906 22.505859 18.833937 22.416109 15.335938 21.537109 C 13.86324 21.167175 10.972303 19.469705 9.0019531 18.253906 C 9.0045846 18.150959 9.0140478 18.062213 9.0371094 18 C 9.3491094 17.163 10.992 15.018 11 15 L 11 13 C 11 12.36 11.5 10 15 10 z M 13.96875 12 C 13.43375 12 13 12.446094 13 12.996094 C 13 13.246576 13.097517 13.469495 13.246094 13.644531 C 12.434295 14.202091 12 15.040268 12 15.855469 C 12 19.280469 14.184578 20 16.017578 20 C 17.477578 20 18.795016 19.266109 19.541016 18.037109 C 19.639525 17.875045 19.69617 17.771927 19.75 17.650391 C 19.933505 17.434609 20.034624 17.148689 19.986328 16.84375 C 19.721328 15.16875 18.12375 12 13.96875 12 z M 15.484375 14.949219 C 15.710084 14.949219 16.017737 15.091959 16.339844 15.277344 C 15.827293 15.207905 15.278528 15.669485 15.076172 16.373047 C 14.860172 17.122047 15.122109 17.853812 15.662109 18.007812 C 16.202109 18.160812 16.813297 17.678734 17.029297 16.927734 C 17.177538 16.410616 17.087389 15.913774 16.847656 15.597656 C 17.256973 15.891093 17.61054 16.205886 17.869141 16.474609 C 17.949225 16.679571 17.969021 16.775023 18 16.902344 C 17.76941 17.352244 17.163625 18.050781 16.015625 18.050781 C 14.222625 18.050781 13.871094 17.244469 13.871094 15.855469 C 13.871094 15.572469 14.278375 14.950219 15.484375 14.949219 z M 5.1679688 17.501953 C 5.7619688 17.501953 6.5331406 17.918016 6.9941406 18.166016 C 7.0637801 18.203631 7.2724044 18.363007 7.5136719 18.539062 L 8.6992188 22.099609 C 8.496496 22.2458 8.2534279 22.380221 7.9453125 22.478516 C 7.9363125 22.478516 7.9250625 22.480469 7.9140625 22.480469 C 7.8500625 22.480469 7.7820313 22.478609 7.7070312 22.474609 C 7.1110312 22.438609 5.5989687 20.757734 4.9179688 19.552734 C 4.5859688 18.937734 4.401875 18.097375 4.546875 17.859375 C 4.695875 17.616375 4.8269687 17.501953 5.1679688 17.501953 z M 24.998047 18.068359 C 25.35928 18.090173 25.709217 18.131981 26.064453 18.199219 C 25.970328 18.691238 25.874146 19.22089 25.787109 19.658203 C 24.94182 19.914755 24.601165 19.966797 24.533203 19.966797 C 24.332203 19.966797 24.278047 19.902141 24.248047 19.869141 C 24.231159 19.849905 24.222041 19.813182 24.207031 19.789062 C 24.516684 19.566973 24.781344 19.184334 24.914062 18.701172 C 24.973037 18.48583 24.999083 18.271874 24.998047 18.068359 z M 15 23 C 19.008 23.919 21.462906 24.005859 22.503906 24.005859 C 22.743906 24.005859 22.908 24 23 24 L 22.720703 26 L 16 26 L 15 23 z M 11.853516 25.544922 L 11.921875 25.587891 C 11.896869 25.572848 11.877734 25.559821 11.853516 25.544922 z" fill="#000000"/></svg>
