<?xml version="1.0" encoding="utf-8"?>
<svg xmlns="http://www.w3.org/2000/svg" viewBox="0 0 32 32" fill="#000000"><path d="M 16 3.765625 L 15.414062 4.1894531 C 15.414062 4.1894531 6.0691871 10.960173 3.3222656 12.970703 C 2.4716461 13.594997 2 14.598118 2 15.660156 C 2 17.364082 3.3194941 18.767994 5 18.935547 L 5 28 L 27 28 L 27 18.935547 C 28.680506 18.767994 30 17.364082 30 15.660156 C 30 14.598118 29.528354 13.594997 28.677734 12.970703 C 25.930813 10.960173 16.585937 4.1894531 16.585938 4.1894531 L 16 3.765625 z M 16 6.2363281 C 16.827697 6.8360134 24.899398 12.683408 27.496094 14.583984 C 27.765474 14.78169 28 15.228194 28 15.660156 C 28 16.387899 27.406929 17 26.691406 17 L 25 17 L 25 26 L 19 26 L 19 24 C 19 22.35503 17.64497 21 16 21 C 14.35503 21 13 22.35503 13 24 L 13 26 L 7 26 L 7 17 L 5.3085938 17 C 4.5930709 17 4 16.387899 4 15.660156 C 4 15.228194 4.2345259 14.78169 4.5039062 14.583984 C 7.1006016 12.683408 15.172303 6.8360134 16 6.2363281 z M 16 8 A 1 1 0 0 0 15 9 A 1 1 0 0 0 16 10 A 1 1 0 0 0 17 9 A 1 1 0 0 0 16 8 z M 13 10 A 1 1 0 0 0 12 11 A 1 1 0 0 0 13 12 A 1 1 0 0 0 14 11 A 1 1 0 0 0 13 10 z M 19 10 A 1 1 0 0 0 18 11 A 1 1 0 0 0 19 12 A 1 1 0 0 0 20 11 A 1 1 0 0 0 19 10 z M 10 12 A 1 1 0 0 0 9 13 A 1 1 0 0 0 10 14 A 1 1 0 0 0 11 13 A 1 1 0 0 0 10 12 z M 22 12 A 1 1 0 0 0 21 13 A 1 1 0 0 0 22 14 A 1 1 0 0 0 23 13 A 1 1 0 0 0 22 12 z M 7 14 A 1 1 0 0 0 6 15 A 1 1 0 0 0 7 16 A 1 1 0 0 0 8 15 A 1 1 0 0 0 7 14 z M 25 14 A 1 1 0 0 0 24 15 A 1 1 0 0 0 25 16 A 1 1 0 0 0 26 15 A 1 1 0 0 0 25 14 z M 15 15 C 14.448 15 14 15.448 14 16 L 14 18 C 14 18.552 14.448 19 15 19 L 17 19 C 17.552 19 18 18.552 18 18 L 18 16 C 18 15.448 17.552 15 17 15 L 15 15 z M 9 17 A 1 1 0 0 0 8 18 A 1 1 0 0 0 9 19 A 1 1 0 0 0 10 18 A 1 1 0 0 0 9 17 z M 23 17 A 1 1 0 0 0 22 18 A 1 1 0 0 0 23 19 A 1 1 0 0 0 24 18 A 1 1 0 0 0 23 17 z M 9 20 A 1 1 0 0 0 8 21 A 1 1 0 0 0 9 22 A 1 1 0 0 0 10 21 A 1 1 0 0 0 9 20 z M 23 20 A 1 1 0 0 0 22 21 A 1 1 0 0 0 23 22 A 1 1 0 0 0 24 21 A 1 1 0 0 0 23 20 z M 9 23 A 1 1 0 0 0 8 24 A 1 1 0 0 0 9 25 A 1 1 0 0 0 10 24 A 1 1 0 0 0 9 23 z M 16 23 C 16.56503 23 17 23.43497 17 24 L 17 26 L 15 26 L 15 24 C 15 23.43497 15.43497 23 16 23 z M 23 23 A 1 1 0 0 0 22 24 A 1 1 0 0 0 23 25 A 1 1 0 0 0 24 24 A 1 1 0 0 0 23 23 z" fill="#000000"/></svg>
