<?xml version="1.0" encoding="utf-8"?>
<svg xmlns="http://www.w3.org/2000/svg" viewBox="0 0 32 32" fill="#000000"><path style="text-indent:0;text-align:start;line-height:normal;text-transform:none;block-progression:tb;-inkscape-font-specification:Sans" d="M 5 5 L 5 27 L 27 27 L 27 21 L 25 23 L 25 25 L 7 25 L 7 7 L 25 7 L 25 9 L 27 11 L 27 5 L 5 5 z M 13.3125 9 A 1.001098 1.001098 0 0 0 13.5 11 L 18.5 11 A 1.0001 1.0001 0 1 0 18.5 9 L 13.5 9 A 1.0001 1.0001 0 0 0 13.40625 9 A 1.001098 1.001098 0 0 0 13.3125 9 z M 24.21875 10.78125 L 22.78125 12.21875 L 25.5625 15 L 17 15 L 17 17 L 25.5625 17 L 22.78125 19.78125 L 24.21875 21.21875 L 28.71875 16.71875 L 29.40625 16 L 28.71875 15.28125 L 24.21875 10.78125 z" overflow="visible" font-family="Sans" fill="#000000"/></svg>
