<?xml version="1.0" encoding="utf-8"?>
<svg xmlns="http://www.w3.org/2000/svg" viewBox="0 0 32 32" fill="#000000"><path style="text-indent:0;text-align:start;line-height:normal;text-transform:none;block-progression:tb;-inkscape-font-specification:Sans" d="M 16 3.96875 L 15.28125 4.65625 L 11.28125 8.65625 L 12.71875 10.09375 L 15 7.8125 L 15 20 L 17 20 L 17 7.8125 L 19.28125 10.09375 L 20.71875 8.65625 L 16.71875 4.65625 L 16 3.96875 z M 9.09375 6.1875 C 6.0105523 8.358935 4 11.949176 4 16 C 4 22.615466 9.3845336 28 16 28 C 22.615466 28 28 22.615466 28 16 C 28 11.948996 25.989486 8.3589618 22.90625 6.1875 L 21.75 7.8125 C 24.320764 9.6230382 26 12.611004 26 16 C 26 21.534534 21.534534 26 16 26 C 10.465466 26 6 21.534534 6 16 C 6 12.610824 7.6791977 9.623065 10.25 7.8125 L 9.09375 6.1875 z" overflow="visible" font-family="Sans" fill="#000000"/></svg>
