<?xml version="1.0" encoding="utf-8"?>
<svg xmlns="http://www.w3.org/2000/svg" viewBox="0 0 32 32" fill="#000000"><path style="text-indent:0;text-align:start;line-height:normal;text-transform:none;block-progression:tb;-inkscape-font-specification:Bitstream Vera Sans" d="M 6.5 3 C 5.6715729 3 5 3.6715729 5 4.5 C 5 4.7329951 5.0614562 4.9595208 5.15625 5.15625 C 4.9595208 5.0614562 4.7329951 5 4.5 5 C 3.6715729 5 3 5.6715729 3 6.5 C 3 7.3284271 3.6715729 8 4.5 8 C 5.0695436 8 5.558491 7.6863378 5.8125 7.21875 L 8.53125 9.96875 C 7.8292508 11.009647 7.3357606 12.213544 7.125 13.5 C 6.7972541 15.4937 7.1830511 17.3727 8 19 L 8 20 C 8 20.711208 8.2669909 21.358269 8.6875 21.875 L 5.8125 24.75 C 5.5545452 24.296329 5.0591883 24 4.5 24 C 3.6715729 24 3 24.671573 3 25.5 C 3 26.328427 3.6715729 27 4.5 27 C 4.7329951 27 4.9595208 26.938544 5.15625 26.84375 C 5.060228 27.040847 5 27.263941 5 27.5 C 5 28.328427 5.6715729 29 6.5 29 C 7.3284271 29 8 28.328427 8 27.5 C 8 26.940812 7.7036707 26.445455 7.25 26.1875 L 10.5 22.9375 C 10.665809 22.966402 10.826489 23 11 23 C 11 24.64497 12.35503 26 14 26 L 18 26 C 19.64497 26 21 24.64497 21 23 C 21.173511 23 21.334191 22.966402 21.5 22.9375 L 24.75 26.1875 C 24.296329 26.445455 24 26.940812 24 27.5 C 24 28.328427 24.671573 29 25.5 29 C 26.328427 29 27 28.328427 27 27.5 C 27 27.267005 26.938544 27.040479 26.84375 26.84375 C 27.040479 26.938544 27.267005 27 27.5 27 C 28.328427 27 29 26.328427 29 25.5 C 29 24.671573 28.328427 24 27.5 24 C 26.940812 24 26.445455 24.296329 26.1875 24.75 L 23.3125 21.875 C 23.733009 21.358269 24 20.711208 24 20 L 24 19.03125 C 24.618053 17.811698 25 16.457763 25 15 C 25 13.134877 24.419059 11.407723 23.4375 9.96875 L 26.1875 7.21875 C 26.441509 7.6863378 26.930456 8 27.5 8 C 28.328427 8 29 7.3284271 29 6.5 C 29 5.6715729 28.328427 5 27.5 5 C 27.267005 5 27.040479 5.0614562 26.84375 5.15625 C 26.938544 4.9595208 27 4.7329951 27 4.5 C 27 3.6715729 26.328427 3 25.5 3 C 24.671573 3 24 3.6715729 24 4.5 C 24 5.0695436 24.313662 5.558491 24.78125 5.8125 L 22.125 8.4375 C 20.499592 6.9222175 18.321083 5.9896539 15.9375 6 C 15.606212 6.001438 15.275667 6.0239862 14.9375 6.0625 C 12.995888 6.283302 11.215242 7.1253609 9.84375 8.40625 L 7.21875 5.8125 C 7.6863378 5.558491 8 5.0695436 8 4.5 C 8 3.6715729 7.3284271 3 6.5 3 z M 15.96875 8 C 19.872981 7.9746727 23 11.110536 23 15 C 23 16.23116 22.681804 17.370827 22.125 18.375 L 22 18.625 L 22 18.875 L 22 20 C 22 20.56503 21.56503 21 21 21 L 20 21 L 19 21 L 19 22 L 19 23 C 19 23.56503 18.56503 24 18 24 L 14 24 C 13.43497 24 13 23.56503 13 23 L 13 22 L 13 21 L 12 21 L 11 21 C 10.43497 21 10 20.56503 10 20 L 10 18.875 L 10 18.625 L 9.875 18.375 C 9.1435843 17.054948 8.8174287 15.493381 9.09375 13.8125 C 9.5877782 10.797014 12.147968 8.4081587 15.1875 8.0625 C 15.454083 8.0321388 15.708468 8.0016885 15.96875 8 z M 13 15 C 11.895431 15 11 15.895431 11 17 C 11 18.104569 11.895431 19 13 19 C 14.104569 19 15 18.104569 15 17 C 15 15.895431 14.104569 15 13 15 z M 19 15 C 17.895431 15 17 15.895431 17 17 C 17 18.104569 17.895431 19 19 19 C 20.104569 19 21 18.104569 21 17 C 21 15.895431 20.104569 15 19 15 z M 15 20 L 15 22 L 17 22 L 17 20 L 15 20 z" fill="#000000"/></svg>
