<?xml version="1.0" encoding="utf-8"?>
<svg xmlns="http://www.w3.org/2000/svg" viewBox="0 0 32 32" fill="#000000"><path style="text-indent:0;text-align:start;line-height:normal;text-transform:none;block-progression:tb;-inkscape-font-specification:Sans" d="M 7 5 C 5.3550302 5 4 6.3550302 4 8 L 4 24 C 4 25.64497 5.3550302 27 7 27 L 25 27 C 26.64497 27 28 25.64497 28 24 L 28 8 C 28 6.3550302 26.64497 5 25 5 L 7 5 z M 7 7 L 25 7 C 25.56503 7 26 7.4349698 26 8 L 26 24 C 26 24.56503 25.56503 25 25 25 L 23 25 L 23 23 L 18 23 L 18 25 L 7 25 C 6.4349698 25 6 24.56503 6 24 L 6 8 C 6 7.4349698 6.4349698 7 7 7 z M 16 11 C 14.895431 11 14 11.895431 14 13 C 14 14.104569 14.895431 15 16 15 C 17.104569 15 18 14.104569 18 13 C 18 11.895431 17.104569 11 16 11 z M 11.5 13 C 10.671573 13 10 13.671573 10 14.5 C 10 15.328427 10.671573 16 11.5 16 C 12.328427 16 13 15.328427 13 14.5 C 13 13.671573 12.328427 13 11.5 13 z M 20.5 13 C 19.671573 13 19 13.671573 19 14.5 C 19 15.328427 19.671573 16 20.5 16 C 21.328427 16 22 15.328427 22 14.5 C 22 13.671573 21.328427 13 20.5 13 z M 16 16 C 14.454463 16 13.395756 16.659996 12.75 17.21875 C 12.414938 17.093855 12.037359 17 11.59375 17 C 9.90075 17 9 18 9 18 L 9 20 L 14 20 L 20 20 L 23 20 L 23 18 C 23 18 22.08075 17 20.59375 17 C 20.080488 17 19.643968 17.090658 19.28125 17.21875 C 18.637649 16.656637 17.559617 16 16 16 z" overflow="visible" font-family="Sans" fill="#000000"/></svg>
