<?xml version="1.0" encoding="utf-8"?>
<svg xmlns="http://www.w3.org/2000/svg" viewBox="0 0 32 32" fill="#000000"><path style="text-indent:0;text-align:start;line-height:normal;text-transform:none;block-progression:tb;-inkscape-font-specification:Bitstream Vera Sans" d="M 16 4.9375 L 15.65625 5.0625 L 4.65625 9.0625 L 4 9.3125 L 4 10 L 4 24 L 4 25 L 5 25 L 10 25 L 10 23 L 6 23 L 6 10.6875 L 16 7.0625 L 26 10.6875 L 26 23 L 22 23 L 22 25 L 27 25 L 28 25 L 28 24 L 28 10 L 28 9.3125 L 27.34375 9.0625 L 16.34375 5.0625 L 16 4.9375 z M 11 13 L 11 14 L 11 26 L 11 27.625 L 12.4375 26.90625 L 16 25.125 L 19.5625 26.90625 L 21 27.625 L 21 26 L 21 14 L 21 13 L 20 13 L 12 13 L 11 13 z M 13 15 L 19 15 L 19 24.375 L 16.4375 23.09375 L 16 22.875 L 15.5625 23.09375 L 13 24.375 L 13 15 z" overflow="visible" font-family="Bitstream Vera Sans" fill="#000000"/></svg>
