<?xml version="1.0" encoding="utf-8"?>
<svg xmlns="http://www.w3.org/2000/svg" viewBox="0 0 32 32" fill="#000000"><path style="text-indent:0;text-align:start;line-height:normal;text-transform:none;block-progression:tb;-inkscape-font-specification:Bitstream Vera Sans" d="M 13.3125 4 C 9.0148847 4 3.65625 6.0625 3.65625 6.0625 L 4.34375 7.9375 C 4.34375 7.9375 4.6369348 7.8312325 4.78125 7.78125 C 5.6926182 7.78125 6.0889434 8.2436716 6.4375 8.84375 C 6.5246392 8.9937696 6.5959661 9.1388635 6.65625 9.28125 C 5.7107432 9.9464756 5.21875 10.53125 5.21875 10.53125 L 4.8125 11.0625 L 5.125 11.65625 C 5.9223213 13.0738 7.5212426 14.476906 9.71875 15.28125 C 9.2002664 17.277588 9 18.96875 9 18.96875 L 9 19.125 L 9.03125 19.28125 C 9.03125 19.28125 9.4867031 21.627473 10.875 24.65625 C 10.649353 24.825203 10.359229 25 10 25 L 10 26 L 5 26 L 5 28 L 19.03125 28 L 19.53125 28 L 19.8125 27.625 C 19.8125 27.625 21.185167 26 23 26 C 24.814833 26 26.21875 27.625 26.21875 27.625 L 27.78125 26.375 C 27.78125 26.375 26.742848 25.039477 24.96875 24.375 C 24.878866 24.172077 24.755477 23.859492 24.625 23.375 C 24.330668 22.282076 24 20.403846 24 17.3125 C 24 15.261726 23.749804 13.812315 23.46875 12.875 C 23.291817 12.284929 23.103206 11.924536 22.96875 11.6875 C 22.794772 9.705725 21.927759 7.8455627 20.4375 6.46875 C 18.760923 4.9198026 16.332839 4 13.3125 4 z M 13.3125 6 C 15.927161 6 17.831077 6.7709474 19.09375 7.9375 C 20.356423 9.1040526 21 10.690329 21 12.4375 C 21 12.6875 20.846285 13.140353 20.5625 13.46875 C 20.278715 13.797147 19.928299 14 19.5 14 C 19.301577 14 19.126627 13.980532 18.9375 13.96875 C 19.43079 13.570799 19.71875 13.25 19.71875 13.25 L 18.28125 11.875 C 18.28125 11.875 16.12011 13.96875 13.71875 13.96875 C 10.65045 13.96875 8.5915035 12.506736 7.53125 11.25 C 7.7966513 11.003558 7.80039 10.886381 8.5625 10.46875 C 9.8659655 9.7544604 11.929378 9 15 9 L 15 7 C 12.116326 7 9.9677644 7.6037823 8.40625 8.3125 C 8.3369495 8.1612971 8.2781397 7.9997961 8.1875 7.84375 C 8.0161594 7.5487684 7.7805553 7.2541892 7.5 6.96875 C 9.2844612 6.4869275 11.509808 6 13.3125 6 z M 21.84375 15 C 21.931477 15.629425 22 16.385531 22 17.3125 C 22 20.540154 22.335832 22.600424 22.6875 23.90625 C 22.70036 23.954004 22.705921 23.985432 22.71875 24.03125 C 20.428429 24.140941 19.105191 25.488193 18.65625 26 L 15 26 L 15 25 C 13.998796 25 13.380603 24.710956 13.03125 24.5 C 11.582024 21.55667 11.085329 19.316561 11.03125 19.0625 C 11.042367 18.960635 11.20565 17.524088 11.65625 15.78125 C 12.313957 15.895823 12.990044 15.96875 13.71875 15.96875 C 14.603122 15.96875 15.422932 15.791601 16.15625 15.53125 C 16.807027 15.715653 18.042084 16 19.5 16 C 20.456152 16 21.26186 15.570605 21.84375 15 z" overflow="visible" font-family="Bitstream Vera Sans" fill="#000000"/></svg>
