<?xml version="1.0" encoding="utf-8"?>
<svg xmlns="http://www.w3.org/2000/svg" viewBox="0 0 32 32" fill="#000000"><path style="text-indent:0;text-align:start;line-height:normal;text-transform:none;block-progression:tb;-inkscape-font-specification:Bitstream Vera Sans" d="M 12 4 L 12 5 C 12 6.9688939 12.184554 9.2867993 12.625 11.125 C 9.3357779 11.436725 5.9739184 12.396259 3.4375 14.1875 L 2.84375 14.59375 L 3.03125 15.28125 C 3.5951144 17.240061 5.1866512 19.633693 7.125 21.96875 C 9.0633488 24.303807 11.344307 26.505739 13.46875 27.84375 L 14.5 28.5 L 14.9375 27.375 C 15.757383 25.292353 16.52997 22.866734 17.21875 20.53125 L 18.28125 21.6875 L 18.90625 22.375 L 19.625 21.78125 C 25.433164 17.039849 27.9375 10.34375 27.9375 10.34375 L 28.15625 9.78125 L 27.71875 9.3125 C 27.71875 9.3125 22.731518 4 13 4 L 12 4 z M 14.15625 6.125 C 21.599228 6.5053552 25.15122 9.7088092 25.75 10.3125 C 25.38046 11.214171 23.378828 15.677623 19.03125 19.5625 L 17.84375 18.3125 C 17.857951 18.261812 17.89219 18.206594 17.90625 18.15625 C 18.313644 16.697495 18.657544 15.380076 18.90625 14.375 C 19.154956 13.369924 19.292027 12.789782 19.34375 12.375 L 19.46875 11.4375 L 18.53125 11.28125 C 17.387254 11.094876 16.119842 10.989938 14.8125 11 C 14.76152 11.000392 14.707371 10.999291 14.65625 11 C 14.361106 9.742183 14.235141 7.8403477 14.15625 6.125 z M 17 8 C 16.447715 8 16 8.4477153 16 9 C 16 9.5522847 16.447715 10 17 10 C 17.552285 10 18 9.5522847 18 9 C 18 8.4477153 17.552285 8 17 8 z M 21.5 9 C 21.223858 9 21 9.2238576 21 9.5 C 21 9.7761424 21.223858 10 21.5 10 C 21.776142 10 22 9.7761424 22 9.5 C 22 9.2238576 21.776142 9 21.5 9 z M 22 12 C 21.447715 12 21 12.447715 21 13 C 21 13.552285 21.447715 14 22 14 C 22.552285 14 23 13.552285 23 13 C 23 12.447715 22.552285 12 22 12 z M 14.84375 13.03125 C 15.654273 13.01707 16.389396 13.11649 17.125 13.1875 C 17.0594 13.480863 17.06668 13.510487 16.96875 13.90625 C 16.725487 14.889331 16.401981 16.18563 16 17.625 C 15.313523 20.083064 14.396462 22.857661 13.5 25.3125 C 11.904661 24.108806 10.166907 22.507332 8.65625 20.6875 C 7.0681215 18.774341 5.8912473 16.837969 5.3125 15.4375 C 7.8942365 13.90656 11.544443 13.088958 14.84375 13.03125 z M 11 15 C 10.447715 15 10 15.447715 10 16 C 10 16.552285 10.447715 17 11 17 C 11.552285 17 12 16.552285 12 16 C 12 15.447715 11.552285 15 11 15 z M 20.5 15 C 20.223858 15 20 15.223858 20 15.5 C 20 15.776142 20.223858 16 20.5 16 C 20.776142 16 21 15.776142 21 15.5 C 21 15.223858 20.776142 15 20.5 15 z M 8.5 16 C 8.2238576 16 8 16.223858 8 16.5 C 8 16.776142 8.2238576 17 8.5 17 C 8.7761424 17 9 16.776142 9 16.5 C 9 16.223858 8.7761424 16 8.5 16 z M 14.5 16 C 14.223858 16 14 16.223858 14 16.5 C 14 16.776142 14.223858 17 14.5 17 C 14.776142 17 15 16.776142 15 16.5 C 15 16.223858 14.776142 16 14.5 16 z M 10.5 18 C 10.223858 18 10 18.223858 10 18.5 C 10 18.776142 10.223858 19 10.5 19 C 10.776142 19 11 18.776142 11 18.5 C 11 18.223858 10.776142 18 10.5 18 z M 13 19 C 12.447715 19 12 19.447715 12 20 C 12 20.552285 12.447715 21 13 21 C 13.552285 21 14 20.552285 14 20 C 14 19.447715 13.552285 19 13 19 z" fill="#000000"/></svg>
