<?xml version="1.0" encoding="utf-8"?>
<svg xmlns="http://www.w3.org/2000/svg" viewBox="0 0 32 32" fill="#000000"><path style="text-indent:0;text-align:start;line-height:normal;text-transform:none;block-progression:tb;-inkscape-font-specification:Sans" d="M 20.59375 3 C 19.975563 3.092625 19.39275 3.73425 19.125 4.6875 C 18.768 5.9585 19.10525 7.32375 19.90625 7.71875 C 20.70625 8.11475 21.643 7.396 22 6.125 C 22.357 4.854 22.01975 3.48875 21.21875 3.09375 C 21.0185 2.995 20.799812 2.969125 20.59375 3 z M 17.09375 4 C 16.474636 4.0260893 15.996767 4.7129382 16.03125 5.53125 C 16.065733 6.3495628 16.599636 6.9948393 17.21875 6.96875 C 17.837864 6.9426607 18.315733 6.2558128 18.28125 5.4375 C 18.246767 4.6191882 17.712864 3.9739107 17.09375 4 z M 14.28125 5 C 14.214113 5.0031856 14.158574 5.0091643 14.09375 5.03125 C 13.575156 5.2079353 13.344574 5.9561352 13.59375 6.6875 C 13.842926 7.4188639 14.450156 7.8641853 14.96875 7.6875 C 15.487344 7.5108147 15.717926 6.7626139 15.46875 6.03125 C 15.250721 5.3913058 14.751206 4.9777007 14.28125 5 z M 12.21875 6.6875 C 12.084604 6.6937869 11.959658 6.7416215 11.84375 6.8125 C 11.380117 7.0960141 11.319565 7.8045631 11.6875 8.40625 C 12.055434 9.007936 12.723867 9.2835141 13.1875 9 C 13.651133 8.7164859 13.711684 7.976686 13.34375 7.375 C 13.067799 6.9237349 12.621188 6.6686392 12.21875 6.6875 z M 10.5625 8.9375 C 10.446646 8.9603531 10.340491 9.0166546 10.25 9.09375 C 9.888037 9.4021316 9.9350816 10.051575 10.34375 10.53125 C 10.752419 11.010925 11.356787 11.152132 11.71875 10.84375 C 12.080713 10.535368 12.064919 9.8859248 11.65625 9.40625 C 11.349749 9.046494 10.910062 8.8689407 10.5625 8.9375 z M 18.40625 9 C 17.415715 9 15.74572 9.2079128 14.15625 10.03125 C 12.56678 10.854587 11.043965 12.452352 10.96875 14.90625 C 10.89889 17.204018 11.617473 18.806141 12.25 20.1875 C 12.882527 21.568859 13.4375 22.748433 13.4375 24.6875 C 13.4375 25.67685 13.72416 26.669093 14.3125 27.5 C 14.90084 28.330907 15.882122 29 17.0625 29 C 18.480442 29 19.597322 28.500902 20.21875 27.65625 C 20.840178 26.811598 20.941385 25.839456 20.96875 24.9375 C 21.02276 23.176004 20.368311 21.984349 19.84375 21.15625 C 19.319189 20.328151 18.96875 19.873327 18.96875 18.78125 C 18.96875 17.387696 19.479737 16.913157 20.21875 16.125 C 20.957763 15.336843 21.96875 14.235733 21.96875 12.375 C 21.96875 11.050123 21.324159 10.014237 20.53125 9.53125 C 19.738341 9.0482627 18.943908 9 18.40625 9 z M 18.40625 11 C 18.764592 11 19.225409 11.08274 19.5 11.25 C 19.774591 11.417263 19.96875 11.580877 19.96875 12.375 C 19.96875 13.584267 19.510987 13.969657 18.75 14.78125 C 17.989013 15.592843 16.96875 16.795804 16.96875 18.78125 C 16.96875 20.390173 17.657311 21.462349 18.15625 22.25 C 18.655189 23.037651 19.008745 23.570496 18.96875 24.875 C 18.94611 25.621044 18.809572 26.175402 18.59375 26.46875 C 18.377928 26.762098 18.083558 27 17.0625 27 C 16.580878 27 16.24416 26.776843 15.9375 26.34375 C 15.63084 25.910657 15.4375 25.27015 15.4375 24.6875 C 15.4375 22.345567 14.691723 20.749141 14.0625 19.375 C 13.433277 18.000859 12.911613 16.847982 12.96875 14.96875 C 13.02154 13.246648 13.89422 12.386413 15.0625 11.78125 C 16.23078 11.176087 17.721785 11 18.40625 11 z" overflow="visible" font-family="Sans" fill="#000000"/></svg>
