<?xml version="1.0" encoding="utf-8"?>
<svg xmlns="http://www.w3.org/2000/svg" viewBox="0 0 32 32" fill="#000000"><path style="text-indent:0;text-align:start;line-height:normal;text-transform:none;block-progression:tb;-inkscape-font-specification:Bitstream Vera Sans" d="M 5 5 L 5 6 L 5 10 L 5 11 L 6 11 L 26 11 L 27 11 L 27 10 L 27 6 L 27 5 L 26 5 L 6 5 L 5 5 z M 7 7 L 25 7 L 25 9 L 7 9 L 7 7 z M 5 13 L 5 14 L 5 26 L 5 27 L 6 27 L 18 27 L 19 27 L 19 26 L 19 14 L 19 13 L 18 13 L 6 13 L 5 13 z M 21 13 L 21 14 L 21 26 L 21 27 L 22 27 L 26 27 L 27 27 L 27 26 L 27 14 L 27 13 L 26 13 L 22 13 L 21 13 z M 7 15 L 17 15 L 17 25 L 7 25 L 7 15 z M 23 15 L 25 15 L 25 25 L 23 25 L 23 15 z" overflow="visible" font-family="Bitstream Vera Sans" fill="#000000"/></svg>
