<?xml version="1.0" encoding="utf-8"?>
<svg xmlns="http://www.w3.org/2000/svg" viewBox="0 0 32 32" fill="#000000"><path style="text-indent:0;text-align:start;line-height:normal;text-transform:none;block-progression:tb;-inkscape-font-specification:Sans" d="M 16 3 C 14.907275 3 14 3.9072754 14 5 C 14 5.4417999 14.157338 5.8540362 14.40625 6.1875 C 14.050724 6.5612227 13.644756 7.0098714 13.21875 7.53125 C 12.172121 8.8121935 11 10.291909 11 12 C 11 13.136463 11.415062 14.159772 12.0625 15 L 12 15 A 1.0001 1.0001 0 0 0 11.90625 15 A 1.001098 1.001098 0 0 0 12 17 L 12.5 17 L 11.09375 20.5625 L 11.0625 20.625 L 10.375 22 L 9 22 A 1.0001 1.0001 0 0 0 8.90625 22 A 1.001098 1.001098 0 0 0 9 24 L 7.1875 26.40625 L 7 26.65625 L 7 27 L 7 28 L 7 29 L 8 29 L 24 29 L 25 29 L 25 28 L 25 27 L 25 26.65625 L 24.8125 26.40625 L 23 24 A 1.0001 1.0001 0 1 0 23 22 L 21.625 22 L 20.9375 20.625 L 20.90625 20.5625 L 19.5 17 L 20 17 A 1.0001 1.0001 0 1 0 20 15 C 20.627818 14.161363 21 13.121489 21 12 C 21 10.291909 19.827879 8.8121935 18.78125 7.53125 C 18.355244 7.0098714 17.949276 6.5612227 17.59375 6.1875 C 17.842662 5.8540362 18 5.4417999 18 5 C 18 3.9072754 17.092725 3 16 3 z M 16 7.46875 C 16.362085 7.8342088 16.607943 8.064948 17.21875 8.8125 C 18.172121 9.9793065 19 11.499091 19 12 C 19 13.678141 17.699734 15 16.03125 15 C 14.362766 15 13 13.658826 13 12 C 13 11.499091 13.827879 9.9793065 14.78125 8.8125 C 15.392057 8.064948 15.637915 7.8342088 16 7.46875 z M 14.6875 17 L 16.03125 17 L 17.3125 17 L 19.0625 21.375 L 19.09375 21.40625 L 19.09375 21.4375 L 19.375 22 L 12.625 22 L 12.90625 21.4375 L 12.90625 21.40625 L 12.9375 21.375 L 14.6875 17 z M 11.5 24 L 20.5 24 L 22.75 27 L 9.25 27 L 11.5 24 z" overflow="visible" font-family="Sans" fill="#000000"/></svg>
