<?xml version="1.0" encoding="utf-8"?>
<svg xmlns="http://www.w3.org/2000/svg" viewBox="0 0 32 32" fill="#000000"><path style="text-indent:0;text-align:start;line-height:normal;text-transform:none;block-progression:tb;-inkscape-font-specification:Sans" d="M 10.28125 2.84375 L 9.6875 3.0625 L 3.6875 5.0625 L 3 5.28125 L 3 6 L 3 10 L 3 11 L 4 11 L 6 11 L 6 21 L 6 22 L 7 22 L 18.5625 22 L 17.28125 23.28125 L 18.71875 24.71875 L 21.71875 21.71875 L 22.40625 21 L 21.71875 20.28125 L 18.71875 17.28125 L 17.28125 18.71875 L 18.5625 20 L 8 20 L 8 10 L 8 9 L 7 9 L 5 9 L 5 6.71875 L 9.84375 5.09375 C 10.012972 5.2192183 10.011129 5.2704082 10.28125 5.40625 C 10.899979 5.7174038 11.823728 6 13 6 C 14.176272 6 15.100021 5.7174038 15.71875 5.40625 C 15.988871 5.2704082 15.987028 5.2192183 16.15625 5.09375 L 21 6.71875 L 21 7 L 21 8.1875 L 21.03125 8.15625 L 21.46875 7.75 L 22.03125 7.90625 L 22.625 8.09375 L 23 8.21875 L 23 7 L 23 6 L 23 5.28125 L 22.3125 5.0625 L 16.3125 3.0625 L 15.71875 2.84375 L 15.28125 3.3125 C 15.28125 3.3125 15.18802 3.404904 14.8125 3.59375 C 14.436979 3.7825962 13.846728 4 13 4 C 12.153272 4 11.563021 3.7825962 11.1875 3.59375 C 10.811979 3.4049038 10.71875 3.3125 10.71875 3.3125 L 10.28125 2.84375 z M 16.28125 8.84375 L 15.6875 9.0625 L 9.6875 11.0625 L 9 11.28125 L 9 12 L 9 16 L 9 17 L 10 17 L 12 17 L 12 19 L 14 19 L 14 16 L 14 15 L 13 15 L 11 15 L 11 12.71875 L 15.84375 11.09375 C 16.012972 11.219218 16.011129 11.270408 16.28125 11.40625 C 16.899979 11.717404 17.823728 12 19 12 C 20.176272 12 21.100021 11.717404 21.71875 11.40625 C 21.988871 11.270408 21.987028 11.219218 22.15625 11.09375 L 27 12.71875 L 27 15 L 25 15 L 24 15 L 24 16 L 24 26 L 14.4375 26 L 15.71875 24.71875 L 14.28125 23.28125 L 11.28125 26.28125 L 10.59375 27 L 11.28125 27.71875 L 14.28125 30.71875 L 15.71875 29.28125 L 14.4375 28 L 25 28 L 26 28 L 26 27 L 26 17 L 28 17 L 29 17 L 29 16 L 29 12 L 29 11.28125 L 28.3125 11.0625 L 22.3125 9.0625 L 21.71875 8.84375 L 21.28125 9.3125 C 21.28125 9.3125 21.18802 9.404904 20.8125 9.59375 C 20.436979 9.7825962 19.846728 10 19 10 C 18.153272 10 17.563021 9.7825962 17.1875 9.59375 C 16.811979 9.4049038 16.71875 9.3125 16.71875 9.3125 L 16.28125 8.84375 z" overflow="visible" font-family="Sans" fill="#000000"/></svg>
