<?xml version="1.0" encoding="utf-8"?>
<svg xmlns="http://www.w3.org/2000/svg" viewBox="0 0 32 32" fill="#000000"><path style="text-indent:0;text-align:start;line-height:normal;text-transform:none;block-progression:tb;-inkscape-font-specification:Bitstream Vera Sans" d="M 18.40625 5 C 17.299954 5 16.339114 5.450211 15.71875 6.09375 C 15.098386 6.737289 14.769069 7.5168554 14.5625 8.25 C 14.234653 9.4135803 14.301403 10.119943 14.3125 10.53125 L 12 12.4375 C 11.730258 12.47451 11.353683 12.47695 10.6875 12.8125 C 10.1793 13.068475 9.6312458 13.526897 9.25 14.15625 C 8.8059917 14.029888 8.2077457 13.946568 7.5625 14.09375 C 6.8733371 14.25095 6.1409109 14.743064 5.6875 15.5625 C 5.2340891 16.381936 5 17.488209 5 19 L 7 19 C 7 17.699291 7.2230359 16.918845 7.4375 16.53125 C 7.6519641 16.143655 7.7986629 16.108425 8 16.0625 C 8.2667717 16.001649 8.5866319 16.08042 8.8125 16.15625 C 8.9509481 17.196453 9.6211155 17.964866 10.1875 18.53125 C 10.487673 18.831423 10.549275 18.850196 10.78125 19.03125 L 10.09375 20.65625 L 9.90625 21.09375 L 10.125 21.53125 L 11 23.21875 L 11 24 L 13 24 L 13 23 L 13 22.75 L 12.875 22.53125 L 12.09375 21.03125 L 12.65625 19.75 C 13.550982 19.502334 14.162184 18.793065 14.46875 18.21875 C 14.666908 17.847525 14.650365 17.756876 14.71875 17.5 C 15.40415 17.362152 17.064895 16.935389 18.375 15.3125 L 19.1875 16.46875 L 18.625 17.28125 L 17.625 17.75 L 18.53125 19.53125 L 19.71875 18.9375 L 19.9375 18.84375 L 20.09375 18.625 L 21.25 17.0625 L 21.6875 16.46875 L 21.25 15.875 L 19.34375 13.21875 L 19.25 11.15625 L 19.6875 10.6875 L 18.21875 9.3125 L 17.5 10.09375 L 17.21875 10.375 L 17.21875 10.8125 L 17.34375 13.25 C 16.165397 15.500366 13.84375 15.71875 13.84375 15.71875 L 13.0625 15.8125 L 12.96875 16.5625 C 12.96875 16.5625 12.87566 16.928748 12.6875 17.28125 C 12.569897 17.501564 12.457811 17.657949 12.3125 17.75 C 12.125366 17.61744 11.885497 17.416747 11.59375 17.125 C 11.118665 16.649915 10.78125 16.038139 10.78125 15.78125 C 10.78125 15.065884 11.11235 14.836226 11.59375 14.59375 C 12.07515 14.351274 12.59375 14.28125 12.59375 14.28125 L 12.875 14.25 L 13.125 14.0625 L 15.875 11.84375 L 16.28125 11.5 L 16.25 11 C 16.25 11 16.20114 9.8732107 16.5 8.8125 C 16.649431 8.2821446 16.894364 7.772836 17.1875 7.46875 C 17.480636 7.164664 17.788546 7 18.40625 7 C 18.562383 7 18.683283 7.035597 18.90625 7.0625 L 18.8125 7.625 L 19.21875 8 L 22.375 11 L 23.75 9.53125 L 21 6.90625 L 21.09375 6.375 L 21.25 5.40625 L 20.28125 5.21875 C 20.28125 5.21875 19.273851 5 18.40625 5 z M 20.375 12 L 20.40625 12.8125 L 21.34375 14 L 23.25 15.0625 L 23.75 16 L 25.53125 15.09375 L 24.75 13.59375 L 21.875 12 L 20.375 12 z M 14.4375 19.78125 L 13.625 20.8125 L 14 22.59375 L 14 24 L 16 24 L 16 22.75 L 14.4375 19.78125 z M 6 25 L 6 27 L 26 27 L 26 25 L 6 25 z" overflow="visible" font-family="Bitstream Vera Sans" fill="#000000"/></svg>
