<?xml version="1.0" encoding="utf-8"?>
<svg xmlns="http://www.w3.org/2000/svg" viewBox="0 0 32 32" fill="#000000"><path style="text-indent:0;text-align:start;line-height:normal;text-transform:none;block-progression:tb;-inkscape-font-specification:Bitstream Vera Sans" d="M 2 6 L 2 7 L 2 25 L 2 26 L 3 26 L 29 26 L 30 26 L 30 25 L 30 7 L 30 6 L 29 6 L 3 6 L 2 6 z M 4 8 L 28 8 L 28 24 L 4 24 L 4 8 z M 11.09375 11.625 C 10.74975 11.887 9.98875 12.47425 8.59375 12.90625 L 8.59375 14.4375 C 9.55275 14.3335 10.273 13.80875 10.375 13.71875 L 10.375 20.21875 L 12.21875 20.21875 L 12.21875 11.625 L 11.09375 11.625 z M 21.25 11.625 C 20.906 11.887 20.228 12.43025 18.75 12.90625 L 18.75 14.4375 C 19.846 14.2675 20.42925 13.80875 20.53125 13.71875 L 20.53125 20.21875 L 22.375 20.21875 L 22.375 11.625 L 21.25 11.625 z M 15.875 14.15625 C 15.055 14.15625 14.78125 14.74 14.78125 15.125 C 14.78125 15.83 15.477 16.09375 15.875 16.09375 C 16.611 16.09375 16.96775 15.623 16.96875 15.125 C 16.96875 14.762 16.702 14.15625 15.875 14.15625 z M 15.875 18.4375 C 15.317 18.4375 14.78125 18.75025 14.78125 19.40625 C 14.78125 20.13525 15.488 20.375 15.875 20.375 C 16.622 20.375 16.96775 19.91725 16.96875 19.40625 C 16.96875 18.97825 16.615 18.4375 15.875 18.4375 z" overflow="visible" font-family="Bitstream Vera Sans" fill="#000000"/></svg>
