<?xml version="1.0" encoding="utf-8"?>
<svg xmlns="http://www.w3.org/2000/svg" viewBox="0 0 32 32" fill="#000000"><path style="line-height:normal;text-indent:0;text-align:start;text-decoration-line:none;text-decoration-style:solid;text-decoration-color:#000;text-transform:none;block-progression:tb;isolation:auto;mix-blend-mode:normal" d="M 16 6 C 14.93999 6 14.006854 6.5663354 13.472656 7.40625 C 13.034878 7.1551212 12.536497 7 12 7 C 10.623964 7 9.4623334 7.9520867 9.1152344 9.2246094 C 8.768987 9.0836895 8.3942897 9 8 9 C 6.3545455 9 5 10.354545 5 12 L 5 19 C 5 20.645455 6.3545455 22 8 22 C 8.5364967 22 9.0348778 21.844879 9.4726562 21.59375 C 10.006854 22.433665 10.93999 23 12 23 C 12.76881 23 13.466695 22.695812 14 22.212891 C 14.347914 22.527935 14.766275 22.76115 15.230469 22.886719 C 15.096236 23.232477 15 23.598675 15 24 C 15 25.645455 16.354545 27 18 27 L 18.162109 27 L 24.289062 24.957031 C 24.896131 24.773511 25.514957 24.592519 26.076172 24.128906 C 26.637387 23.665294 27 22.865603 27 22 C 27 20.254226 26.0844 18.277545 25.160156 16.216797 C 24.252382 14.19277 23.301109 12.138538 23 10.861328 L 23 10 C 23 8.3545455 21.645455 7 20 7 C 19.463503 7 18.965122 7.1551212 18.527344 7.40625 C 17.993146 6.5663354 17.06001 6 16 6 z M 16 8 C 16.554545 8 17 8.4454545 17 9 L 17 10 L 19 10 C 19 9.4454545 19.445455 9 20 9 C 20.554545 9 21 9.4454545 21 10 L 21 20 C 21 20.554545 20.554545 21 20 21 C 19.445455 21 19 20.554545 19 20 L 19 14 L 17 14 L 17 20 C 17 20.554545 16.554545 21 16 21 C 15.445455 21 15 20.554545 15 20 L 15 14 L 13 14 L 13 20 C 13 20.554545 12.554545 21 12 21 C 11.445455 21 11 20.554545 11 20 L 11 14 L 9 14 L 9 19 C 9 19.554545 8.5545455 20 8 20 C 7.4454545 20 7 19.554545 7 19 L 7 12 C 7 11.445455 7.4454545 11 8 11 C 8.5545455 11 9 11.445455 9 12 L 11 12 L 11 10 C 11 9.4454545 11.445455 9 12 9 C 12.554545 9 13 9.4454545 13 10 L 15 10 L 15 9 C 15 8.4454545 15.445455 8 16 8 z M 23 16.285156 C 23.114786 16.537216 23.223146 16.78367 23.335938 17.035156 C 24.245942 19.064158 25 21.092774 25 22 C 25 22.443397 24.94877 22.467253 24.802734 22.587891 C 24.656699 22.708528 24.274869 22.872489 23.710938 23.042969 L 23.697266 23.046875 L 17.927734 24.96875 C 17.413196 24.926136 17 24.526024 17 24 C 17 23.673227 17.206669 23.25378 17.5625 22.921875 C 17.816623 22.68484 18.102848 22.557553 18.332031 22.486328 C 18.810452 22.809717 19.384501 23 20 23 C 21.645455 23 23 21.645455 23 20 L 23 16.285156 z" font-weight="400" font-family="sans-serif" white-space="normal" overflow="visible" fill="#000000"/></svg>
