<?xml version="1.0" encoding="utf-8"?>
<svg xmlns="http://www.w3.org/2000/svg" viewBox="0 0 32 32" fill-rule="evenodd" clip-rule="evenodd" stroke-miterlimit="10" fill="#000000"><path style="line-height:normal;text-indent:0;text-align:start;text-decoration-line:none;text-decoration-style:solid;text-decoration-color:#000;text-transform:none;block-progression:tb;isolation:auto;mix-blend-mode:normal" d="M 17.1875 4.0273438 C 16.605343 3.9076668 16.041682 4.3389554 15.972656 4.9199219 A 0.51505149 0.51505149 0 0 0 15.972656 4.9316406 L 15.685547 7.9140625 L 12.326172 5.1015625 C 12.280266 5.0955629 12.233462 5.0899237 12.1875 5.0839844 A 0.51505149 0.51505149 0 0 0 12.052734 5.0644531 L 12.019531 5.0644531 C 10.425838 4.8611633 8.8044027 4.6882112 7.2148438 4.4804688 L 11.056641 9.046875 L 9.6503906 11.132812 L 4 13.474609 L 5.046875 18.652344 L 10.255859 19.470703 L 8.9648438 25.636719 L 14 27.519531 L 19.609375 20.970703 L 26 16.556641 L 27.458984 10.121094 L 25.048828 8.5527344 L 25.005859 8.8984375 L 24.998047 8.8886719 L 24.818359 10.185547 L 24.845703 10.212891 L 25.279297 10.664062 L 24.714844 10.935547 L 24.542969 12.173828 L 25.457031 11.734375 L 24.6875 15.742188 L 19.283203 19.207031 L 20.066406 14.324219 L 22.351562 13.224609 L 22.111328 14.949219 A 0.51505149 0.51505149 0 1 0 23.130859 15.091797 L 24.107422 8.0566406 C 24.307703 6.9478967 23.609219 5.8544343 22.517578 5.6269531 L 17.230469 4.0371094 A 0.51505149 0.51505149 0 0 0 17.1875 4.0273438 z M 16.996094 5.0410156 L 22.265625 6.625 A 0.51505149 0.51505149 0 0 0 22.308594 6.6367188 C 22.785794 6.73616 23.105503 7.188077 23.091797 7.703125 L 19.996094 6.4882812 L 16.716797 7.9433594 L 16.996094 5.0410156 z M 10.244141 6.109375 L 11.496094 6.2734375 L 15.5 9.5585938 L 15.595703 9.6484375 C 15.5946 9.6529314 15.594739 9.6575835 15.59375 9.6621094 L 12.832031 8.7988281 L 10.244141 6.109375 z M 20.644531 8.234375 L 22.609375 8.8183594 L 18.160156 10.748047 C 18.143793 10.725206 18.038797 10.573438 18.035156 10.568359 A 0.51505149 0.51505149 0 0 0 17.972656 10.484375 A 0.51505149 0.51505149 0 0 0 17.964844 10.474609 A 0.51505149 0.51505149 0 0 0 17.939453 10.449219 L 17.935547 10.447266 L 17.255859 9.8027344 L 20.644531 8.234375 z M 12.742188 9.8496094 L 17.265625 11.263672 C 17.351575 11.383804 17.758053 11.951737 18.230469 12.648438 C 18.490414 13.031793 18.744713 13.419072 18.916016 13.703125 C 18.964946 13.784255 18.986966 13.827145 19.019531 13.886719 C 19.017531 13.889719 19.015772 13.891431 19.013672 13.894531 C 18.926782 14.025516 18.819038 14.196687 18.695312 14.398438 C 18.447861 14.801936 18.136794 15.326001 17.832031 15.845703 C 17.222505 16.885107 16.636719 17.910156 16.636719 17.910156 A 0.51505149 0.51505149 0 0 0 16.570312 18.111328 L 16.351562 20.164062 L 12.496094 18.826172 A 0.51505149 0.51505149 0 0 0 12.457031 18.644531 L 12.261719 17.697266 C 12.4037 17.84826 12.552857 17.989068 12.712891 18.109375 C 13.408079 18.631988 14.29724 18.841281 15.125 18.539062 C 15.952437 18.236731 16.535594 17.513051 16.839844 16.652344 C 17.008143 16.176234 17.086535 15.649976 17.085938 15.105469 C 17.101873 14.800769 17.07705 14.485938 16.998047 14.169922 C 16.99519 14.158437 16.991249 14.14813 16.988281 14.136719 C 16.964341 14.012193 16.949387 13.888199 16.916016 13.763672 C 16.645085 12.754746 16.105495 11.928865 15.410156 11.40625 C 15.062487 11.144943 14.6664 10.960707 14.253906 10.880859 C 13.841412 10.801012 13.4139 10.825446 13 10.976562 L 12.998047 10.976562 C 12.170906 11.279424 11.589412 12.002701 11.285156 12.863281 C 11.280956 12.87516 11.27949 12.888452 11.275391 12.900391 L 11.089844 12 L 12.742188 9.8496094 z M 22.818359 9.8652344 L 22.523438 11.986328 L 19.853516 13.271484 C 19.832954 13.236376 19.821469 13.209418 19.798828 13.171875 C 19.608695 12.856507 19.34904 12.461207 19.083984 12.070312 C 18.929911 11.84309 18.909223 11.821719 18.769531 11.621094 L 22.818359 9.8652344 z M 13.710938 11.865234 C 14.070258 11.836908 14.434347 11.958975 14.792969 12.228516 C 14.868332 12.285158 14.939359 12.359894 15.011719 12.429688 C 14.9033 12.4429 14.795303 12.460328 14.689453 12.501953 C 14.178488 12.702886 13.852372 13.161764 13.685547 13.669922 C 13.518722 14.17808 13.496961 14.762635 13.642578 15.345703 C 13.787649 15.928959 14.075717 16.415765 14.476562 16.740234 C 14.743615 16.956404 15.084039 17.081341 15.431641 17.089844 C 15.240613 17.315864 15.016722 17.480706 14.771484 17.570312 C 14.298245 17.743095 13.810093 17.644542 13.332031 17.285156 C 12.853969 16.92577 12.421688 16.296625 12.203125 15.484375 C 11.98546 14.672146 12.028119 13.851201 12.255859 13.207031 C 12.483604 12.562862 12.880656 12.116499 13.353516 11.943359 C 13.471816 11.900168 13.591164 11.874676 13.710938 11.865234 z M 10.154297 12.570312 L 11.324219 18.251953 L 6.4238281 17.695312 L 5.6074219 14.291016 L 10.154297 12.570312 z M 15.273438 13.441406 C 15.34504 13.45784 15.422889 13.499118 15.515625 13.574219 C 15.697168 13.721233 15.887351 14.011272 15.988281 14.396484 C 15.992937 14.423227 15.999789 14.449868 16.003906 14.476562 C 16.030327 14.596848 16.037063 14.71429 16.042969 14.832031 C 16.048149 14.909428 16.051918 14.986266 16.052734 15.0625 C 16.043155 15.228261 16.020733 15.388856 15.976562 15.523438 C 15.877363 15.825712 15.714041 15.999704 15.574219 16.054688 C 15.43492 16.109548 15.310655 16.091688 15.125 15.941406 C 14.939345 15.791126 14.741507 15.495401 14.642578 15.097656 L 14.642578 15.095703 C 14.543198 14.697772 14.564893 14.292326 14.664062 13.990234 C 14.763243 13.688142 14.926372 13.516004 15.066406 13.460938 C 15.136479 13.433383 15.201835 13.424972 15.273438 13.441406 z M 18.685547 16.425781 L 18.105469 20.054688 L 17.287109 21.121094 L 17.583984 18.326172 C 17.633034 18.240542 18.127101 17.379359 18.685547 16.425781 z M 12.416016 19.888672 L 16.238281 21.216797 L 16.082031 22.679688 L 13.388672 25.953125 L 11.148438 25.173828 L 12.416016 19.888672 z" font-weight="400" font-family="sans-serif" white-space="normal" clip-rule="nonzero" overflow="visible" fill-rule="nonzero" fill="#000000"/></svg>
