<?xml version="1.0" encoding="utf-8"?>
<svg xmlns="http://www.w3.org/2000/svg" viewBox="0 0 32 32" fill="#000000"><path style="text-indent:0;text-align:start;line-height:normal;text-transform:none;block-progression:tb;-inkscape-font-specification:Sans" d="M 14.5 4 C 13.671573 4 13 4.6715729 13 5.5 C 13 6.3284271 13.671573 7 14.5 7 C 15.328427 7 16 6.3284271 16 5.5 C 16 4.6715729 15.328427 4 14.5 4 z M 16 5.5 C 16 6.3284271 16.671573 7 17.5 7 C 18.328427 7 19 6.3284271 19 5.5 C 19 4.6715729 18.328427 4 17.5 4 C 16.671573 4 16 4.6715729 16 5.5 z M 17.5 7 L 14.5 7 L 8.90625 7 C 6.7524623 7 4.96875 8.7068146 4.96875 10.84375 L 4.96875 10.875 L 5 15.65625 C 4.9250968 15.732 4.8585697 15.79693 4.78125 15.875 C 3.5216561 17.146812 2 18.767761 2 21.28125 C 2 22.212967 2.4602859 23.053251 3.15625 23.8125 C 3.8522141 24.571749 4.8258896 25.292015 6.03125 25.90625 C 8.4419709 27.134721 11.829153 28 16 28 C 20.170847 28 23.558002 27.134869 25.96875 25.90625 C 27.174124 25.291941 28.147784 24.571917 28.84375 23.8125 C 29.539716 23.053083 30 22.213059 30 21.28125 C 30 18.767761 28.478322 17.146664 27.21875 15.875 C 27.141432 15.796939 27.074902 15.731989 27 15.65625 L 26.96875 10.84375 C 26.96875 8.7068146 25.154467 7 23 7 L 17.5 7 z M 8.90625 9 L 23 9 C 24.109533 9 24.96875 9.8246854 24.96875 10.84375 L 24.96875 10.875 L 24.96875 11.78125 C 24.918258 11.397873 24.79155 11.007127 24.53125 10.6875 C 24.184183 10.261331 23.587347 10 23 10 L 16 10 L 9 10 C 8.4126526 10 7.8158074 10.292336 7.46875 10.71875 C 7.1216926 11.145164 7 11.657022 7 12.15625 L 7 12.1875 C 7 12.307319 6.9809962 12.418077 6.96875 12.53125 L 6.96875 10.84375 C 6.96875 9.8246854 7.7980377 9 8.90625 9 z M 9.03125 12 L 16 12 L 22.96875 12 C 22.97198 12.00839 23 12.044832 23 12.15625 L 23 12.1875 C 23 14.537275 24.540822 16.028914 25.78125 17.28125 C 27.021678 18.533586 28 19.553739 28 21.28125 C 28 21.492441 27.857472 21.942292 27.375 22.46875 C 26.892528 22.995208 26.099876 23.565059 25.0625 24.09375 C 22.987748 25.151131 19.887153 26 16 26 C 12.112847 26 9.0122791 25.151029 6.9375 24.09375 C 5.9001104 23.56511 5.1074734 22.995095 4.625 22.46875 C 4.1425266 21.942405 4 21.492033 4 21.28125 C 4 19.553739 4.9783439 18.533688 6.21875 17.28125 C 7.4591561 16.028812 9 14.536888 9 12.1875 L 9 12.15625 C 9 12.044171 9.0279743 12.008481 9.03125 12 z M 10 15 L 10 17 L 22 17 L 22 15 L 10 15 z M 20 18 L 20 22 L 22 22 L 22 18 L 20 18 z" overflow="visible" font-family="Sans" fill="#000000"/></svg>
