<?xml version="1.0" encoding="utf-8"?>
<svg xmlns="http://www.w3.org/2000/svg" viewBox="0 0 32 32" fill="#000000"><path style="text-indent:0;text-align:start;line-height:normal;text-transform:none;block-progression:tb;-inkscape-font-specification:Sans" d="M 10 4 L 10 11.09375 C 10.328 11.04675 10.66 11 11 11 C 11.34 11 11.672 11.04675 12 11.09375 L 12 6 L 26 6 L 26 24 L 19.03125 24 C 19.34725 24.63 19.61925 25.297 19.78125 26 L 28 26 L 28 4 L 10 4 z M 14 8 L 14 10 L 16 10 L 16 8 L 14 8 z M 18 8 L 18 10 L 20 10 L 20 8 L 18 8 z M 22 8 L 22 10 L 24 10 L 24 8 L 22 8 z M 14.59375 12 C 15.11075 12.311 15.58 12.696 16 13.125 L 16 12 L 14.59375 12 z M 18 12 L 18 14 L 20 14 L 20 12 L 18 12 z M 22 12 L 22 14 L 24 14 L 24 12 L 22 12 z M 11 13 C 8.2504209 13 6 15.250421 6 18 C 6 19.515649 6.7069761 20.862268 7.78125 21.78125 C 5.5332067 22.948452 4 25.300924 4 28 L 6 28 C 6 25.226535 8.227497 23 11 23 C 13.773666 23 16 25.226334 16 28 L 18 28 C 18 25.301065 16.466835 22.948498 14.21875 21.78125 C 15.293024 20.862268 16 19.515649 16 18 C 16 15.250421 13.749579 13 11 13 z M 11 15 C 12.668699 15 14 16.331301 14 18 C 14 19.668699 12.668699 21 11 21 C 9.3313011 21 8 19.668699 8 18 C 8 16.331301 9.3313011 15 11 15 z M 18 16 L 18 18 L 20 18 L 20 16 L 18 16 z M 22 16 L 22 18 L 24 18 L 24 16 L 22 16 z M 18 20 L 18 22 L 20 22 L 20 20 L 18 20 z M 22 20 L 22 22 L 24 22 L 24 20 L 22 20 z" fill="#000000"/></svg>
