<?xml version="1.0" encoding="utf-8"?>
<svg xmlns="http://www.w3.org/2000/svg" viewBox="0 0 32 32" fill="#000000"><path style="text-indent:0;text-align:start;line-height:normal;text-transform:none;block-progression:tb;-inkscape-font-specification:Bitstream Vera Sans" d="M 4 4 L 4 6 L 5 6 L 5 10 C 5 12.745455 7.2545455 15 10 15 L 15 15 L 15 16 L 17 16 L 17 15 L 22 15 L 22 18 A 1.0001 1.0001 0 0 0 22 18.09375 L 22 19 L 28 19 L 28 18.15625 A 1.0001 1.0001 0 0 0 28 18 L 28 17 L 28 14 C 28 11.254545 25.745455 9 23 9 L 17 9 L 17 8 L 15 8 L 15 9 L 11 9 L 11 6 L 12 6 L 12 4 L 4 4 z M 7 6 L 9 6 L 9 10 A 1.0001 1.0001 0 0 0 10 11 L 15 11 L 15 13 L 10 13 C 8.3454545 13 7 11.654545 7 10 L 7 6 z M 17 11 L 23 11 C 24.654545 11 26 12.345455 26 14 L 26 17 L 24 17 L 24 14 A 1.0001 1.0001 0 0 0 23 13 L 17 13 L 17 11 z M 25 19.25 L 24.1875 20.4375 C 24.1875 20.4375 23.648128 21.191355 23.125 22.09375 C 22.863436 22.544948 22.617642 23.019084 22.40625 23.5 C 22.194858 23.980916 22 24.42197 22 25 C 22 26.645455 23.354545 28 25 28 C 26.645455 28 28 26.645455 28 25 C 28 24.42197 27.805142 23.980916 27.59375 23.5 C 27.382358 23.019084 27.136564 22.544948 26.875 22.09375 C 26.351872 21.191355 25.8125 20.4375 25.8125 20.4375 L 25 19.25 z M 25 22.875 C 25.06572 22.983918 25.05811 22.978371 25.125 23.09375 C 25.363436 23.505052 25.617642 23.940291 25.78125 24.3125 C 25.944858 24.684709 26 25.02803 26 25 C 26 25.554545 25.554545 26 25 26 C 24.445455 26 24 25.554545 24 25 C 24 25.02803 24.05514 24.684709 24.21875 24.3125 C 24.382358 23.940291 24.636564 23.505052 24.875 23.09375 C 24.94189 22.978371 24.93428 22.983918 25 22.875 z" overflow="visible" font-family="Bitstream Vera Sans" fill="#000000"/></svg>
