<?xml version="1.0" encoding="utf-8"?>
<svg xmlns="http://www.w3.org/2000/svg" viewBox="0 0 32 32" fill="#000000"><path style="text-indent:0;text-align:start;line-height:normal;text-transform:none;block-progression:tb;-inkscape-font-specification:Bitstream Vera Sans" d="M 13.6875 3 L 13.375 3.28125 L 6.59375 10 L 4 10 L 3 10 L 3 11 L 3 22 L 3 23 L 4 23 L 6.75 23 L 10.5625 24.90625 L 10.75 25 L 11 25 L 16.90625 25 C 18.290133 25 19.491357 24.033313 19.8125 22.6875 L 21.40625 16 L 26 16 C 27.809239 16 29.265978 14.334611 28.96875 12.5 C 28.72244 10.986733 27.358073 10 25.90625 10 L 15.25 10 L 15.4375 9.25 C 15.640625 9.0936816 15.769008 9.0260315 16.0625 8.625 C 16.532087 7.9833496 17 6.9925134 17 5.65625 C 17.001571 4.2300298 15.709921 3 14.09375 3 L 13.6875 3 z M 14.40625 5.09375 C 14.827534 5.175457 15.000339 5.3486297 15 5.65625 C 15 6.5589866 14.727163 7.1156504 14.46875 7.46875 C 14.210337 7.8218496 14.03125 7.90625 14.03125 7.90625 L 13.6875 8.09375 L 13.5625 8.5 L 12.96875 10.75 L 12.65625 12 L 13.9375 12 L 25.90625 12 C 26.446427 12 26.92631 12.359767 27 12.8125 C 27.108772 13.483889 26.620761 14 26 14 L 20.625 14 L 19.8125 14 L 19.65625 14.78125 L 17.875 22.21875 C 17.766143 22.674937 17.374367 23 16.90625 23 L 11.25 23 L 7.4375 21.09375 L 7.25 21 L 7 21 L 5 21 L 5 12 L 7 12 L 7.40625 12 L 7.6875 11.71875 L 14.40625 5.09375 z M 26 18.8125 L 25.125 20.53125 C 25.125 20.53125 24.606455 21.547372 24.09375 22.6875 C 23.837397 23.257564 23.576835 23.845906 23.375 24.40625 C 23.173165 24.966594 23 25.422091 23 26 C 23 27.64497 24.35503 29 26 29 C 27.64497 29 29 27.64497 29 26 C 29 25.422091 28.826835 24.966594 28.625 24.40625 C 28.423165 23.845906 28.162603 23.257564 27.90625 22.6875 C 27.393545 21.547372 26.875 20.53125 26.875 20.53125 L 26 18.8125 z M 26 23.3125 C 26.04504 23.41053 26.04837 23.39908 26.09375 23.5 C 26.337397 24.041811 26.576835 24.613001 26.75 25.09375 C 26.923165 25.574499 27 26.025409 27 26 C 27 26.56503 26.56503 27 26 27 C 25.43497 27 25 26.56503 25 26 C 25 26.02541 25.07683 25.574499 25.25 25.09375 C 25.423165 24.613001 25.662603 24.041811 25.90625 23.5 C 25.95163 23.399076 25.95496 23.41053 26 23.3125 z" overflow="visible" font-family="Bitstream Vera Sans" fill="#000000"/></svg>
