<?xml version="1.0" encoding="utf-8"?>
<svg xmlns="http://www.w3.org/2000/svg" viewBox="0 0 32 32" fill="#000000"><path style="text-indent:0;text-align:start;line-height:normal;text-transform:none;block-progression:tb;-inkscape-font-specification:Bitstream Vera Sans" d="M 14.90625 2.75 L 14.34375 3.28125 L 11.46875 6.15625 L 10.9375 6.71875 L 11.3125 7.375 C 11.3125 7.375 13.2696 10.590352 16.53125 14.03125 L 14.375 16.1875 L 12.8125 15.65625 L 12.1875 17.5625 L 16.5 19 L 17.125 17.09375 L 16.53125 16.90625 L 17.96875 15.46875 C 21.422796 18.744429 24.625 20.65625 24.625 20.65625 L 25.28125 21.0625 L 25.84375 20.53125 L 28.71875 17.65625 L 29.25 17.09375 L 28.84375 16.4375 C 28.84375 16.4375 26.657057 12.719557 22.96875 9.03125 C 19.280443 5.3429429 15.5625 3.15625 15.5625 3.15625 L 14.90625 2.75 z M 15.21875 5.28125 C 16.043792 5.8036251 18.556883 7.4943826 21.53125 10.46875 C 24.505617 13.443117 26.196375 15.956208 26.71875 16.78125 L 25 18.5 C 24.198785 17.996069 21.67583 16.36333 18.65625 13.34375 C 15.650492 10.337992 13.983491 7.8484346 13.46875 7.03125 L 15.21875 5.28125 z M 9.8125 18.6875 L 9.1875 20.59375 L 13.5 22.03125 L 14.125 20.125 L 9.8125 18.6875 z M 6.8125 21.6875 L 6.15625 23.59375 L 10.46875 25.03125 L 11.125 23.125 L 6.8125 21.6875 z M 5.40625 25.15625 L 5 27 L 7.5625 25.875 L 5.40625 25.15625 z" overflow="visible" font-family="Bitstream Vera Sans" fill="#000000"/></svg>
