<?xml version="1.0" encoding="utf-8"?>
<svg xmlns="http://www.w3.org/2000/svg" viewBox="0 0 32 32" fill="#000000"><path style="text-indent:0;text-align:start;line-height:normal;text-transform:none;block-progression:tb;-inkscape-font-specification:Bitstream Vera Sans" d="M 0 7 L 0 8 L 0 24 L 0 25 L 1 25 L 31 25 L 32 25 L 32 24 L 32 8 L 32 7 L 31 7 L 1 7 L 0 7 z M 2 9 L 30 9 L 30 23 L 2 23 L 2 9 z M 10.5 12 C 9.1166667 12 8 13.116667 8 14.5 L 8 17.5 C 8 18.883333 9.1166667 20 10.5 20 C 11.883333 20 13 18.883333 13 17.5 L 13 17 L 11 17 L 11 17.5 C 11 17.716667 10.716667 18 10.5 18 C 10.283333 18 10 17.716667 10 17.5 L 10 14.5 C 10 14.283333 10.283333 14 10.5 14 C 10.716667 14 11 14.283333 11 14.5 L 11 15 L 13 15 L 13 14.5 C 13 13.116667 11.883333 12 10.5 12 z M 14 12 L 14 19 L 14 20 L 15 20 L 18 20 L 18 18 L 16 18 L 16 12 L 14 12 z M 21.5 12 C 20.116667 12 19 13.116667 19 14.5 C 19 15.883333 20.116667 17 21.5 17 C 21.716667 17 22 17.283333 22 17.5 C 22 17.8 21.881481 18 21.5 18 C 21.131818 18 21.075546 17.91998 21.0625 17.90625 C 21.049454 17.892518 21 17.827083 21 17.59375 L 19 17.59375 C 19 18.160417 19.163046 18.794982 19.625 19.28125 C 20.086954 19.767518 20.768182 20 21.5 20 C 22.918519 20 24 18.8 24 17.5 C 24 16.116667 22.883333 15 21.5 15 C 21.283333 15 21 14.716667 21 14.5 C 21 14.283333 21.283333 14 21.5 14 C 21.766667 14 21.847593 14.06341 21.90625 14.125 C 21.964907 14.18659 22 14.294345 22 14.40625 L 24 14.40625 C 24 13.818155 23.785093 13.21341 23.34375 12.75 C 22.902407 12.28659 22.233333 12 21.5 12 z" overflow="visible" font-family="Bitstream Vera Sans" fill="#000000"/></svg>
