<?xml version="1.0" encoding="utf-8"?>
<svg xmlns="http://www.w3.org/2000/svg" viewBox="0 0 32 32" fill="#000000"><path style="text-indent:0;text-align:start;line-height:normal;text-transform:none;block-progression:tb;-inkscape-font-specification:Sans" d="M 13 4 C 11.897 4 11 4.897 11 6 L 11 18 C 11 19.103 11.897 20 13 20 L 17.53125 20 C 18.40125 18.703 19.594 17.6385 21 16.9375 L 21 6 C 21 4.897 20.103 4 19 4 L 13 4 z M 13 6 L 19 6 L 19 18 L 13 18 L 13 6 z M 7 14 L 7 18 C 7 21.309 9.691 24 13 24 L 15 24 L 15 26 L 11 26 L 11 28 L 16.53125 28 C 16.19725 27.06 16 26.053 16 25 C 16 23.947 16.19725 22.94 16.53125 22 L 13 22 C 10.794 22 9 20.206 9 18 L 9 14 L 7 14 z M 23 14 L 23 16.21875 C 23.644 16.07175 24.312 16 25 16 L 25 14 L 23 14 z M 25 18 C 21.145852 18 18 21.145852 18 25 C 18 28.854148 21.145852 32 25 32 C 28.854148 32 32 28.854148 32 25 C 32 21.145852 28.854148 18 25 18 z M 25 20 C 27.773268 20 30 22.226732 30 25 C 30 26.025119 29.711142 26.990345 29.1875 27.78125 L 22.21875 20.8125 C 23.009655 20.288858 23.974881 20 25 20 z M 20.8125 22.21875 L 27.78125 29.1875 C 26.990345 29.711142 26.025119 30 25 30 C 22.226732 30 20 27.773268 20 25 C 20 23.974881 20.288858 23.009655 20.8125 22.21875 z" overflow="visible" font-family="Sans" fill="#000000"/></svg>
