<?xml version="1.0" encoding="utf-8"?>
<svg xmlns="http://www.w3.org/2000/svg" viewBox="0 0 32 32" fill="#000000"><path style="text-indent:0;text-align:start;line-height:normal;text-transform:none;block-progression:tb;-inkscape-font-specification:Sans" d="M 16 3 C 8.8321429 3 3 8.8321429 3 16 C 3 23.167857 8.8321429 29 16 29 C 23.167857 29 29 23.167857 29 16 C 29 8.8321429 23.167857 3 16 3 z M 16 5 C 18.477383 5 20.75737 5.8119264 22.59375 7.1875 L 21.28125 8.71875 C 19.796525 7.638386 17.97268 7 16 7 C 14.02732 7 12.203475 7.638386 10.71875 8.71875 L 9.40625 7.1875 C 11.24263 5.8119264 13.522617 5 16 5 z M 7.9375 8.53125 L 9.25 10.0625 C 7.8534321 11.64872 7 13.72575 7 16 C 7 18.147 7.77125 20.10825 9.03125 21.65625 L 9.8125 20.96875 L 10.53125 20.375 C 10.525783 20.368172 10.536692 20.350598 10.53125 20.34375 L 13.84375 17.5 L 15 15.59375 L 15 19.1875 L 11.34375 22.3125 L 10.4375 23.0625 C 11.9675 24.2655 13.906 25 16 25 C 18.094 25 20.0325 24.2655 21.5625 23.0625 L 20.59375 22.25 L 20.53125 22.1875 L 20 21.75 L 17 19.1875 L 17 15.59375 L 18.15625 17.5 L 21.46875 20.375 L 22.21875 21.03125 L 22.96875 21.65625 C 24.22875 20.10725 25 18.147 25 16 C 25 13.72575 24.146568 11.64872 22.75 10.0625 L 24.0625 8.53125 C 25.880474 10.492424 27 13.10717 27 16 C 27 22.086977 22.086977 27 16 27 C 9.9130231 27 5 22.086977 5 16 C 5 13.10717 6.119526 10.492424 7.9375 8.53125 z M 16 9 C 19.859 9 23 12.14 23 16 C 23 16.923718 22.796285 17.786425 22.46875 18.59375 L 19.6875 16.21875 L 16 10.0625 L 12.3125 16.21875 L 9.53125 18.59375 C 9.2037151 17.786425 9 16.923718 9 16 C 9 12.14 12.141 9 16 9 z M 16 20.9375 L 18.03125 22.6875 C 17.387417 22.884679 16.708047 23 16 23 C 15.291953 23 14.612583 22.884679 13.96875 22.6875 L 16 20.9375 z" overflow="visible" font-family="Sans" fill="#000000"/></svg>
