<?xml version="1.0" encoding="utf-8"?>
<svg xmlns="http://www.w3.org/2000/svg" viewBox="0 0 32 32" fill="#000000"><path style="line-height:normal;text-indent:0;text-align:start;text-decoration-line:none;text-decoration-style:solid;text-decoration-color:#000;text-transform:none;block-progression:tb;isolation:auto;mix-blend-mode:normal" d="M 8.4042969 4 L 1.921875 16 L 8.4042969 28 L 9 28 L 23.595703 28 L 30.078125 16 L 23.595703 4 L 8.4042969 4 z M 9.5957031 6 L 22.404297 6 L 27.804688 16 L 22.404297 26 L 9.5957031 26 L 4.1953125 16 L 9.5957031 6 z M 11 10 L 11 11 L 11 22 L 16.005859 22 L 16.013672 22 C 16.013672 22 17.467746 21.993799 18.951172 21.242188 C 20.434611 20.490536 22 18.804361 22 16 C 22 13.195639 20.434598 11.509465 18.951172 10.757812 C 17.467746 10.006162 16.013672 10 16.013672 10 L 16.005859 10 L 11 10 z M 13 12 L 15.986328 12 C 15.986328 12 17.032254 12.02787 18.048828 12.542969 C 19.065402 13.058067 20 13.871361 20 16 C 20 18.128639 19.065402 18.941933 18.048828 19.457031 C 17.032254 19.972129 15.986328 20 15.986328 20 L 13 20 L 13 12 z" font-weight="400" font-family="sans-serif" white-space="normal" overflow="visible" fill="#000000"/></svg>
