<?xml version="1.0" encoding="utf-8"?>
<svg xmlns="http://www.w3.org/2000/svg" viewBox="0 0 32 32" fill="#000000"><path style="text-indent:0;text-align:start;line-height:normal;text-transform:none;block-progression:tb;-inkscape-font-specification:Sans" d="M 18.5 2 C 17.100567 2 15.903792 2.8130965 15.34375 4 L 15 4 C 13.599664 4 12.538277 4.4098462 11.84375 4.84375 C 11.444063 5.0934531 11.40149 5.2152853 11.21875 5.40625 C 10.610328 5.3382199 9.3423097 5.2545516 8.09375 6.375 C 7.283463 7.1018515 7.1201158 8.0807794 7.0625 8.8125 C 7.037056 9.1356437 7.048991 9.1750999 7.0625 9.40625 C 6.6759662 9.6720403 6.2440854 10.098648 5.96875 10.78125 C 5.3557776 12.305578 5.915385 13.3636 6.375 14 C 6.36708 14.02046 6.351202 14.01032 6.34375 14.03125 C 6.1868811 14.471807 6.0490461 15.136438 6.03125 16.03125 C 6.03125 16.990323 6.4811411 17.741548 7 18.21875 L 7 19 L 7 19.90625 C 7 21.251689 7.801672 22.195765 8.53125 22.59375 C 8.8499016 22.767574 8.9019837 22.722997 9.15625 22.78125 C 9.5045346 24.810082 10.132992 26.55734 11.1875 27.8125 C 12.362799 29.211435 14.054066 30 16 30 C 17.945934 30 19.637201 29.211435 20.8125 27.8125 C 21.872443 26.550871 22.496937 24.792834 22.84375 22.75 C 23.091811 22.68395 23.149658 22.70755 23.46875 22.53125 C 24.168809 22.144467 25 21.267439 25 20 L 25 19.09375 L 25 18.21875 C 25.554965 17.745614 25.96875 17.058173 25.96875 16.03125 C 25.95075 15.14125 25.80725 14.4985 25.65625 14.0625 C 26.16925 13.3025 26.66325 12.07925 26.03125 10.78125 C 25.833625 10.376097 25.513314 10.00276 25.1875 9.6875 C 25.677743 9.0852065 26 8.3371344 26 7.5 C 26 5.567 24.433 4 22.5 4 C 22.229465 4 21.970147 4.0340167 21.71875 4.09375 C 21.181373 2.8513129 19.939791 2 18.5 2 z M 17.5 4 C 17.628 4 17.74625 4.05875 17.84375 4.15625 L 18.5 4.78125 L 19.15625 4.15625 C 19.35125 3.96125 19.64875 3.96125 19.84375 4.15625 C 20.03875 4.35125 20.03875 4.64875 19.84375 4.84375 L 19.21875 5.5 L 19.84375 6.15625 C 20.03875 6.35125 20.03875 6.64875 19.84375 6.84375 C 19.74575 6.94175 19.628 7 19.5 7 C 19.372 7 19.25425 6.94075 19.15625 6.84375 L 18.5 6.21875 L 17.84375 6.84375 C 17.74575 6.94175 17.628 7 17.5 7 C 17.372 7 17.25425 6.94075 17.15625 6.84375 C 16.96125 6.64875 16.96125 6.35125 17.15625 6.15625 L 17.78125 5.5 L 17.15625 4.84375 C 16.96125 4.64875 16.96125 4.35125 17.15625 4.15625 C 17.25375 4.05875 17.372 4 17.5 4 z M 15 6 L 15.03125 6 C 15.271341 7.6990033 16.734732 9 18.5 9 C 18.770535 9 19.029853 8.9659833 19.28125 8.90625 C 19.818627 10.148687 21.060209 11 22.5 11 C 22.821016 11 23.142173 10.955934 23.4375 10.875 L 23.5625 10.90625 C 23.6825 10.95725 24.0515 11.19425 24.1875 11.53125 C 24.4445 12.17025 24.201 12.68575 24 12.96875 L 24 14 C 23.90575 14.000453 23.469519 13.996143 23.09375 14 C 23.09375 14 22.929665 13.9906 22.59375 13.78125 C 22.257835 13.571895 21.831004 13.201369 21.5625 12.3125 L 21.34375 11.59375 L 20.59375 11.59375 C 19.377709 11.59375 16.816889 11.379389 15.71875 10.28125 L 14.625 9.21875 L 14.0625 10.625 C 14.0625 10.625 13.369614 12.10362 12.46875 12.5 C 11.952956 12.72679 11.046819 12.871327 10.3125 12.9375 C 9.5781812 13.003673 9 13 9 13 L 8.03125 13 C 7.8368137 12.791171 7.4921357 12.327926 7.8125 11.53125 C 7.9621114 11.160338 8.4375 10.9375 8.4375 10.9375 L 9.1875 10.625 L 9.0625 9.84375 C 9.0625 9.84375 8.993866 9.4435294 9.03125 8.96875 C 9.0686342 8.4939706 9.237787 8.0541485 9.4375 7.875 C 10.219273 7.1734422 11.375 7.375 11.375 7.375 L 12 7.5 L 12.375 6.96875 C 12.375 6.96875 12.487527 6.7928462 12.90625 6.53125 C 13.324973 6.2696538 13.983336 6 15 6 z M 21.5 6 C 21.628 6 21.74625 6.05875 21.84375 6.15625 L 22.5 6.78125 L 23.15625 6.15625 C 23.35125 5.96125 23.64875 5.96125 23.84375 6.15625 C 24.03875 6.35125 24.03875 6.64875 23.84375 6.84375 L 23.21875 7.5 L 23.84375 8.15625 C 24.03875 8.35125 24.03875 8.64875 23.84375 8.84375 C 23.74575 8.94175 23.628 9 23.5 9 C 23.372 9 23.25425 8.94075 23.15625 8.84375 L 22.5 8.21875 L 21.84375 8.84375 C 21.74575 8.94175 21.628 9 21.5 9 C 21.372 9 21.25425 8.94075 21.15625 8.84375 C 20.96125 8.64875 20.96125 8.35125 21.15625 8.15625 L 21.78125 7.5 L 21.15625 6.84375 C 20.96125 6.64875 20.96125 6.35125 21.15625 6.15625 C 21.25375 6.05875 21.372 6 21.5 6 z M 15.375 12.4375 C 16.999323 13.408338 18.770513 13.552349 19.96875 13.5625 C 20.243764 14.144785 20.583825 14.631368 20.9375 15 L 19.15625 15 C 17.686393 15 16.65625 15.96875 16.65625 15.96875 L 17.90625 17.53125 C 17.90625 17.53125 18.794107 17 19.15625 17 L 21 17 L 21 15.0625 C 21.177625 15.239933 21.353157 15.389006 21.53125 15.5 C 21.695739 15.602516 21.845664 15.684517 22 15.75 L 22 19 L 23 18.96875 L 23 19.09375 L 23 20 C 23 20.522561 22.831191 20.615533 22.53125 20.78125 C 22.231309 20.946967 21.90625 21 21.90625 21 L 21.125 21.09375 L 21 21.875 C 20.723728 23.975614 20.112201 25.542185 19.28125 26.53125 C 18.450299 27.520315 17.444066 28 16 28 C 14.555934 28 13.549701 27.520315 12.71875 26.53125 C 11.887799 25.542185 11.276272 23.975614 11 21.875 L 10.875 21.03125 L 10.03125 21 C 10.03125 21 9.739172 20.9913 9.46875 20.84375 C 9.198328 20.696235 9 20.596811 9 19.90625 L 9 19 L 10 19.03125 L 10 18 L 10 14.96875 C 10.221879 14.95875 10.220197 14.96275 10.5 14.9375 C 11.338681 14.86192 12.339794 14.71271 13.25 14.3125 C 14.307756 13.847087 14.960756 13.096939 15.375 12.4375 z M 11 15 L 11 17 L 13 17 C 13.362143 17 14.25 17.53125 14.25 17.53125 L 15.5 15.96875 C 15.5 15.96875 14.469857 15 13 15 L 11 15 z M 12.5 17.75 C 12.085786 17.75 11.75 18.085786 11.75 18.5 C 11.75 18.914214 12.085786 19.25 12.5 19.25 C 12.914214 19.25 13.25 18.914214 13.25 18.5 C 13.25 18.085786 12.914214 17.75 12.5 17.75 z M 19.5 17.75 C 19.085786 17.75 18.75 18.085786 18.75 18.5 C 18.75 18.914214 19.085786 19.25 19.5 19.25 C 19.914214 19.25 20.25 18.914214 20.25 18.5 C 20.25 18.085786 19.914214 17.75 19.5 17.75 z M 15.21875 21 C 14.74775 22.97 14.75 23 14.75 23 L 17.25 23 L 16.78125 21 C 16.75525 21.004 16.378 21 16 21 C 15.622 21 15.24475 21.004 15.21875 21 z M 13.59375 23.1875 L 12.40625 24.8125 C 12.40625 24.8125 14.040116 26.03125 16.09375 26.03125 C 18.147384 26.03125 19.625 24.78125 19.625 24.78125 L 18.375 23.21875 C 18.375 23.21875 17.292116 24.03125 16.09375 24.03125 C 14.895384 24.03125 13.59375 23.1875 13.59375 23.1875 z" overflow="visible" font-family="Sans" fill="#000000"/></svg>
