<?xml version="1.0" encoding="utf-8"?>
<svg xmlns="http://www.w3.org/2000/svg" viewBox="0 0 32 32" fill="#000000"><path style="text-indent:0;text-align:start;line-height:normal;text-transform:none;block-progression:tb;-inkscape-font-specification:Sans" d="M 4.90625 3.96875 A 1.0001 1.0001 0 0 0 4.78125 4 A 1.0001 1.0001 0 0 0 4 5 L 4 8.0625 C 4 14.338517 8.8541979 19.486152 15 20 L 15 23 L 10 23 L 10 25 L 22 25 L 22 23 L 17 23 L 17 20 C 23.145802 19.486152 28 14.338517 28 8.0625 L 28 5 A 1.0001 1.0001 0 1 0 26 5 L 26 8.0625 C 26 13.261569 22.065604 17.503203 17 18 L 17 16.9375 C 21.483743 16.431188 25 12.615686 25 8 L 25 5 A 1.0001 1.0001 0 1 0 23 5 L 23 8 C 23 11.535296 20.396992 14.420574 17 14.90625 L 17 13.90625 C 19.834964 13.431485 22 10.965276 22 8 L 22 5 A 1.0001 1.0001 0 1 0 20 5 L 20 8 C 20 9.8738762 18.729089 11.40164 17 11.84375 L 17 5 A 1.0001 1.0001 0 0 0 15.78125 4 A 1.0001 1.0001 0 0 0 15 5 L 15 11.84375 C 13.270911 11.40164 12 9.8738762 12 8 L 12 5 A 1.0001 1.0001 0 0 0 10.78125 4 A 1.0001 1.0001 0 0 0 10 5 L 10 8 C 10 10.965276 12.165036 13.431485 15 13.90625 L 15 14.90625 C 11.603008 14.420574 9 11.535296 9 8 L 9 5 A 1.0001 1.0001 0 0 0 7.78125 4 A 1.0001 1.0001 0 0 0 7 5 L 7 8 C 7 12.615686 10.516257 16.431188 15 16.9375 L 15 18 C 9.9343959 17.503203 6 13.261569 6 8.0625 L 6 5 A 1.0001 1.0001 0 0 0 4.90625 3.96875 z M 7 26 L 7 28 L 25 28 L 25 26 L 7 26 z" overflow="visible" font-family="Sans" fill="#000000"/></svg>
