<?xml version="1.0" encoding="utf-8"?>
<svg xmlns="http://www.w3.org/2000/svg" viewBox="0 0 32 32" fill="#000000"><path style="text-indent:0;text-align:start;line-height:normal;text-transform:none;block-progression:tb;-inkscape-font-specification:Sans" d="M 11 2 L 11 3 L 11 7 L 10 7 L 9 7 L 8.4375 7 L 8.15625 7.5 L 5.15625 12.5 L 5 12.71875 L 5 13 L 5 18.0625 C 3.8663664 18.297686 3 19.30207 3 20.5 L 3 21 L 5 21 L 5 20.5 C 5 20.213063 5.2130628 20 5.5 20 C 5.7869372 20 6 20.213063 6 20.5 L 6 21 L 8 21 L 8 20.5 C 8 19.69312 7.6028939 18.989928 7 18.53125 L 7 13.25 L 9 9.90625 L 9 15 L 9 19 L 9 20 L 10 20 L 12 20 L 12 28 L 11 28 L 11 30 L 16 30 L 21 30 L 21 28 L 20 28 L 20 20 L 22 20 L 23 20 L 23 19 L 23 9.90625 L 25 13.25 L 25 18.53125 C 24.397106 18.989928 24 19.69312 24 20.5 L 24 21 L 26 21 L 26 20.5 C 26 20.213063 26.213063 20 26.5 20 C 26.786937 20 27 20.213063 27 20.5 L 27 21 L 29 21 L 29 20.5 C 29 19.30207 28.133634 18.297686 27 18.0625 L 27 13 L 27 12.71875 L 26.84375 12.5 L 23.84375 7.5 L 23.5625 7 L 23 7 L 22 7 L 21 7 L 21 3 L 21 2 L 20 2 L 12 2 L 11 2 z M 13 4 L 19 4 L 19 7 L 13 7 L 13 4 z M 14.5 5 C 14.223858 5 14 5.2238576 14 5.5 C 14 5.7761424 14.223858 6 14.5 6 C 14.776142 6 15 5.7761424 15 5.5 C 15 5.2238576 14.776142 5 14.5 5 z M 17.5 5 C 17.223858 5 17 5.2238576 17 5.5 C 17 5.7761424 17.223858 6 17.5 6 C 17.776142 6 18 5.7761424 18 5.5 C 18 5.2238576 17.776142 5 17.5 5 z M 11 9 L 12 9 L 21 9 L 21 18 L 11 18 L 11 15 L 11 9 z M 18 11 L 18 15 L 20 15 L 20 11 L 18 11 z M 12 12 L 12 15 L 14 15 L 14 12 L 12 12 z M 15 13 L 15 15 L 17 15 L 17 13 L 15 13 z M 14 20 L 15 20 L 15 28 L 14 28 L 14 20 z M 17 20 L 18 20 L 18 28 L 17 28 L 17 20 z" fill="#000000"/></svg>
