<?xml version="1.0" encoding="utf-8"?>
<svg xmlns="http://www.w3.org/2000/svg" viewBox="0 0 32 32" fill="#000000"><path style="text-indent:0;text-align:start;line-height:normal;text-transform:none;block-progression:tb;-inkscape-font-specification:Sans" d="M 15.875 4 L 15.78125 4.03125 L 4.78125 6.46875 L 4 6.65625 L 4 7.4375 L 4 24.5625 L 4 25.34375 L 4.78125 25.53125 L 15.78125 27.96875 L 15.875 28 L 16 28 L 17 28 L 18 28 L 18 27 L 18 25 L 27 25 L 28 25 L 28 24 L 28 8 L 28 7 L 27 7 L 18 7 L 18 5 L 18 4 L 17 4 L 16 4 L 15.875 4 z M 16 6.03125 L 16 7 L 16 8 L 16 24 L 16 25 L 16 25.96875 L 6 23.78125 L 6 8.21875 L 16 6.03125 z M 18 9 L 26 9 L 26 23 L 18 23 L 18 21 L 20 21 L 20 19 L 18 19 L 18 18 L 20 18 L 20 16 L 18 16 L 18 15 L 20 15 L 20 13 L 18 13 L 18 12 L 20 12 L 20 10 L 18 10 L 18 9 z M 21 10 L 21 12 L 25 12 L 25 10 L 21 10 z M 14.15625 11 L 11.875 11.28125 L 10.625 13.96875 C 10.493 14.35475 10.39275 14.64775 10.34375 14.84375 L 10.3125 14.84375 C 10.2355 14.51875 10.1585 14.237 10.0625 14 L 9.4375 11.6875 L 7.3125 11.9375 L 7.21875 12 L 9 16 L 7 20 L 9.15625 20.25 L 10.03125 17.78125 C 10.13625 17.46925 10.222 17.2155 10.25 17.0625 L 10.28125 17.0625 C 10.34125 17.3875 10.3805 17.629 10.4375 17.75 L 11.78125 20.6875 L 14.21875 21 L 11.5625 15.96875 L 14.15625 11 z M 21 13 L 21 15 L 25 15 L 25 13 L 21 13 z M 21 16 L 21 18 L 25 18 L 25 16 L 21 16 z M 21 19 L 21 21 L 25 21 L 25 19 L 21 19 z" fill="#000000"/></svg>
