<?xml version="1.0" encoding="utf-8"?>
<svg xmlns="http://www.w3.org/2000/svg" viewBox="0 0 32 32" fill="#000000"><path d="M 15.78125 4 C 14.655906 4.2269556 14.970938 6.074375 15.375 6.6875 L 15.375 12.375 C 15.65 12.286 16.17025 12.13725 16.53125 12.03125 C 16.53125 11.64625 16.65625 6.9445 16.65625 6.6875 C 16.94625 6.0995 17.44425 4 16.03125 4 C 15.942937 4 15.856273 3.9848696 15.78125 4 z M 14 5.1875 C 8.888 6.1315 5 10.618 5 16 C 5 22.065 9.935 27 16 27 C 22.065 27 27 22.065 27 16 C 27 10.618 23.112 6.1315 18 5.1875 L 18 7.21875 C 22.002 8.13175 25 11.726 25 16 C 25 20.856166 21.128247 24.83135 16.3125 25 C 16.351009 23.466612 16.40625 21.555524 16.40625 21.46875 C 16.02125 21.59775 15.65625 21.83675 15.65625 22.09375 C 15.65625 22.174194 15.712727 23.686794 15.75 25 C 10.904718 24.86426 7 20.877533 7 16 C 7 11.725 9.998 8.13175 14 7.21875 L 14 5.1875 z M 17 7.84375 L 17 9.125 C 18.386 9.125 19.15625 10.0455 19.15625 10.6875 C 19.15625 12.9845 12.8125 12.2645 12.8125 15.3125 C 12.8125 17.0325 15.125 18 15.125 18 L 15.125 16.59375 C 14.868 16.46575 14.21875 16.0115 14.21875 15.3125 C 14.21775 13.5125 20.53125 14.5575 20.53125 10.6875 C 20.53125 9.4715 19.441 8.10075 17 7.84375 z M 15 8.09375 C 14.517 8.21975 14.15275 8.507 13.96875 8.625 C 13.57575 8.714 12.738 9.02625 12.375 9.28125 C 11.358 9.99625 11.53025 10.6105 11.53125 10.8125 C 11.25725 11.0965 11.375 11.40625 11.375 11.40625 C 11.375 11.53425 10.83025 11.89025 10.28125 11.90625 C 10.84725 12.01125 11.1875 11.84375 11.1875 11.84375 C 11.1875 11.84375 11.1275 12.20175 10.8125 12.46875 C 11.4265 12.29075 11.46475 11.5 11.59375 11.5 C 11.72275 11.5 12.07975 11.66325 12.59375 11.40625 C 13.10775 11.14925 13.83675 10.54125 14.09375 10.15625 C 14.35075 9.77125 14.615 9.6915 15 9.5625 L 15 8.09375 z M 12.78125 9.84375 C 12.89 9.848375 12.96875 9.875 12.96875 9.875 L 12.3125 10.5625 C 12.3125 10.5625 12.24825 10.149 12.40625 10 C 12.54425 9.8695 12.6725 9.839125 12.78125 9.84375 z M 16.53125 14.40625 C 16.40325 14.40625 15.757 14.65625 15.5 14.65625 C 15.5 14.78425 15.625 19.9375 15.625 19.9375 C 15.625 19.9375 15.94625 19.70425 16.40625 19.65625 C 16.40625 19.65625 16.53125 14.53525 16.53125 14.40625 z M 16.78125 17.21875 L 16.78125 18.5 C 16.78125 18.5 17.6875 18.71025 17.6875 19.28125 C 17.6875 20.05225 14.625 20.09375 14.625 21.71875 C 14.625 22.38975 15.375 22.875 15.375 22.875 L 15.375 21.96875 C 15.375 20.62975 18.8125 20.866 18.8125 19.25 C 18.8135 17.92 16.78125 17.21875 16.78125 17.21875 z M 16.65625 22.625 L 16.65625 23.25 C 17.17025 23.507 17.6805 23.9165 17.9375 24.6875 C 17.9375 23.5325 17.29925 23.011 16.65625 22.625 z" fill="#000000"/></svg>
