<?xml version="1.0" encoding="utf-8"?>
<svg xmlns="http://www.w3.org/2000/svg" viewBox="0 0 32 32" fill="#000000"><path style="text-indent:0;text-align:start;line-height:normal;text-transform:none;block-progression:tb;-inkscape-font-specification:Sans" d="M 15 1 L 15 5.03125 C 14.917295 5.0387231 14.832176 5.053209 14.75 5.0625 C 14.603988 5.0790829 14.456759 5.1027447 14.3125 5.125 C 14.269815 5.1315851 14.230024 5.1491748 14.1875 5.15625 C 14.092357 5.1719265 14.000565 5.2006527 13.90625 5.21875 C 13.621202 5.2734455 13.339359 5.3300443 13.0625 5.40625 C 12.979747 5.4290278 12.894467 5.444103 12.8125 5.46875 C 12.428304 5.5842754 12.052867 5.7199187 11.6875 5.875 C 11.678573 5.8787892 11.665165 5.871188 11.65625 5.875 C 11.363009 6.0003867 11.092039 6.1630537 10.8125 6.3125 C 10.681652 6.3824536 10.565131 6.4562327 10.4375 6.53125 C 10.290469 6.6176696 10.142566 6.6882997 10 6.78125 C 9.9315015 6.8254815 9.8799305 6.8918003 9.8125 6.9375 C 9.6931442 7.0191145 9.5534157 7.0701189 9.4375 7.15625 C 9.372682 7.2039819 9.3137055 7.2633869 9.25 7.3125 C 9.1818767 7.36541 9.0980829 7.4142866 9.03125 7.46875 C 9.0023218 7.4921963 8.9661801 7.5075153 8.9375 7.53125 L 6.09375 4.6875 L 4.6875 6.09375 L 7.53125 8.9375 C 7.5263232 8.9433977 7.5361643 8.9628416 7.53125 8.96875 C 7.421871 9.1001835 7.3219901 9.2384988 7.21875 9.375 C 6.9450455 9.7364925 6.6967083 10.105407 6.46875 10.5 C 6.3379486 10.726416 6.2084567 10.951185 6.09375 11.1875 L 6.0625 11.1875 L 5.875 11.65625 C 5.8275365 11.766692 5.793904 11.887707 5.75 12 L 2 12 L 2 14 L 30 14 L 30 12 L 26.25 12 C 26.229464 11.947808 26.208808 11.895551 26.1875 11.84375 L 25.9375 11.1875 L 25.90625 11.21875 C 25.787535 10.97362 25.667212 10.734634 25.53125 10.5 C 25.500799 10.447323 25.468798 10.395869 25.4375 10.34375 C 25.224237 9.9894945 25.000527 9.6394278 24.75 9.3125 C 24.655778 9.1894656 24.536737 9.087604 24.4375 8.96875 C 24.432285 8.9624972 24.442728 8.9437411 24.4375 8.9375 L 27.3125 6.09375 L 25.90625 4.6875 L 23.03125 7.5625 C 22.947418 7.4925797 22.867155 7.4112006 22.78125 7.34375 C 22.510373 7.132888 22.228021 6.9352006 21.9375 6.75 C 21.671399 6.5787138 21.406044 6.3983144 21.125 6.25 C 21.096166 6.2347834 21.060234 6.2337171 21.03125 6.21875 C 20.804044 6.1014218 20.579752 5.9766041 20.34375 5.875 C 20.334834 5.8711615 20.321428 5.8788156 20.3125 5.875 C 19.918303 5.7065315 19.509763 5.5908248 19.09375 5.46875 C 19.049243 5.4557076 19.013487 5.4187431 18.96875 5.40625 C 18.958941 5.403506 18.94732 5.4089674 18.9375 5.40625 C 18.855608 5.3836153 18.770138 5.3645267 18.6875 5.34375 C 18.484103 5.2926737 18.270152 5.2582768 18.0625 5.21875 C 17.978102 5.2026692 17.897559 5.1703897 17.8125 5.15625 C 17.782671 5.1512956 17.748659 5.1609626 17.71875 5.15625 C 17.562211 5.1315741 17.408623 5.0804954 17.25 5.0625 C 17.167807 5.0531303 17.082722 5.0387872 17 5.03125 L 17 1 L 15 1 z M 16 7 C 16.342265 7 16.667663 7.025535 17 7.0625 C 17.010481 7.0636667 17.02078 7.0612973 17.03125 7.0625 C 17.073591 7.0673533 17.11409 7.0883147 17.15625 7.09375 C 17.177097 7.0964512 17.197948 7.0909064 17.21875 7.09375 C 17.375694 7.1148766 17.533217 7.1271935 17.6875 7.15625 C 17.781145 7.1741409 17.876167 7.1979806 17.96875 7.21875 C 18.020356 7.2302677 18.073733 7.2376051 18.125 7.25 C 18.146616 7.2552504 18.165946 7.2758438 18.1875 7.28125 C 18.344267 7.3201574 18.502845 7.3592914 18.65625 7.40625 C 18.665937 7.409255 18.677827 7.4032132 18.6875 7.40625 C 18.972214 7.4949275 19.259471 7.6034639 19.53125 7.71875 C 19.540012 7.7224882 19.553753 7.7149849 19.5625 7.71875 C 19.914598 7.8694139 20.235272 8.0575883 20.5625 8.25 C 20.58215 8.2615069 20.605445 8.269599 20.625 8.28125 C 20.881947 8.4349998 21.135559 8.6035011 21.375 8.78125 C 21.427654 8.8206247 21.479497 8.8657605 21.53125 8.90625 C 21.732671 9.0629554 21.937865 9.2333122 22.125 9.40625 C 22.146677 9.4263205 22.166022 9.4484697 22.1875 9.46875 C 22.256428 9.5340357 22.339413 9.5888414 22.40625 9.65625 C 22.537477 9.7881893 22.658417 9.9226456 22.78125 10.0625 C 22.98003 10.289542 23.168281 10.53502 23.34375 10.78125 C 23.478524 10.970357 23.598696 11.175395 23.71875 11.375 C 23.839763 11.576294 23.957181 11.78895 24.0625 12 L 7.9375 12 C 8.0222335 11.830315 8.1238204 11.66344 8.21875 11.5 C 8.2418593 11.460213 8.2575517 11.414401 8.28125 11.375 C 8.4570281 11.081483 8.6683931 10.801826 8.875 10.53125 C 9.0914338 10.247804 9.3148769 9.9742216 9.5625 9.71875 C 9.582916 9.6978595 9.6043833 9.6769427 9.625 9.65625 C 9.8423198 9.4363732 10.042455 9.2278026 10.28125 9.03125 C 10.33385 8.9879548 10.38391 8.9483579 10.4375 8.90625 C 10.495508 8.860608 10.565855 8.8254875 10.625 8.78125 C 10.881392 8.5897884 11.160959 8.4135797 11.4375 8.25 C 11.762887 8.0575266 12.08717 7.8694946 12.4375 7.71875 C 12.446246 7.7149835 12.459989 7.7224896 12.46875 7.71875 C 12.477641 7.7149802 12.491095 7.7224921 12.5 7.71875 C 12.702582 7.6331138 12.915021 7.5395834 13.125 7.46875 C 13.134073 7.4656893 13.147164 7.4717824 13.15625 7.46875 C 13.3542 7.4024345 13.546152 7.333901 13.75 7.28125 C 13.871191 7.2499786 14.001827 7.2450312 14.125 7.21875 C 14.341892 7.1723668 14.558829 7.124177 14.78125 7.09375 C 14.843443 7.0852687 14.906142 7.0697044 14.96875 7.0625 C 15.309189 7.0233647 15.648953 7 16 7 z M 2 15 C 1.448 15 1 15.448 1 16 C 1 16.552 1.448 17 2 17 C 2.552 17 3 16.552 3 16 C 3 15.448 2.552 15 2 15 z M 6 15 C 5.448 15 5 15.448 5 16 C 5 16.552 5.448 17 6 17 C 6.552 17 7 16.552 7 16 C 7 15.448 6.552 15 6 15 z M 15.5 15 C 14.130937 15 13 16.130937 13 17.5 L 13 20.5 C 13 21.869063 14.130937 23 15.5 23 C 16.869063 23 18 21.869063 18 20.5 C 18 19.130937 16.869063 18 15.5 18 C 15.328867 18 15.161948 18.028902 15 18.0625 L 15 17.5 C 15 17.213063 15.213063 17 15.5 17 C 15.786937 17 16 17.213063 16 17.5 L 18 17.5 C 18 16.130937 16.869063 15 15.5 15 z M 20 15 C 19.447715 15 19 15.447715 19 16 C 19 16.552285 19.447715 17 20 17 C 20.552285 17 21 16.552285 21 16 C 21 15.447715 20.552285 15 20 15 z M 26 15 C 25.448 15 25 15.448 25 16 C 25 16.552 25.448 17 26 17 C 26.552 17 27 16.552 27 16 C 27 15.448 26.552 15 26 15 z M 30 15 C 29.448 15 29 15.448 29 16 C 29 16.552 29.448 17 30 17 C 30.552 17 31 16.552 31 16 C 31 15.448 30.552 15 30 15 z M 6.78125 18.8125 C 6.6513906 18.811516 6.5025 18.8535 6.375 18.90625 C 5.865 19.11825 5.63275 19.70875 5.84375 20.21875 C 6.05475 20.72875 6.64625 20.962 7.15625 20.75 C 7.66625 20.539 7.8985 19.9475 7.6875 19.4375 C 7.52925 19.055 7.1708281 18.815453 6.78125 18.8125 z M 25.21875 18.8125 C 24.829172 18.815453 24.47075 19.055 24.3125 19.4375 C 24.1005 19.9485 24.33375 20.539 24.84375 20.75 C 25.35375 20.961 25.94525 20.72975 26.15625 20.21875 C 26.36725 19.70875 26.135 19.11725 25.625 18.90625 C 25.4975 18.8535 25.348609 18.811516 25.21875 18.8125 z M 15.5 20 C 15.786937 20 16 20.213063 16 20.5 C 16 20.786937 15.786937 21 15.5 21 C 15.213063 21 15 20.786937 15 20.5 C 15 20.213063 15.213063 20 15.5 20 z M 8.9375 22.0625 C 8.6815 22.0625 8.41375 22.1795 8.21875 22.375 C 7.82875 22.766 7.82875 23.39125 8.21875 23.78125 C 8.60875 24.17225 9.234 24.17225 9.625 23.78125 C 10.015 23.39025 10.015 22.765 9.625 22.375 C 9.43 22.1795 9.1935 22.0625 8.9375 22.0625 z M 23.0625 22.0625 C 22.934563 22.062438 22.807922 22.107453 22.6875 22.15625 C 22.567078 22.205047 22.47275 22.27725 22.375 22.375 C 21.984 22.765 21.984 23.39025 22.375 23.78125 C 22.5705 23.97675 22.806625 24.0625 23.0625 24.0625 C 23.318375 24.0625 23.58625 23.97675 23.78125 23.78125 C 24.17125 23.39125 24.17125 22.766 23.78125 22.375 C 23.58625 22.18 23.318375 22.062625 23.0625 22.0625 z M 12.1875 24.25 C 11.797781 24.253516 11.40825 24.4925 11.25 24.875 C 11.039 25.386 11.3015 25.94525 11.8125 26.15625 C 12.3235 26.36725 12.914 26.135 13.125 25.625 C 13.336 25.114 13.0735 24.5235 12.5625 24.3125 C 12.43475 24.25975 12.317406 24.248828 12.1875 24.25 z M 19.8125 24.25 C 19.682641 24.248828 19.565 24.25975 19.4375 24.3125 C 18.9265 24.5225 18.664 25.114 18.875 25.625 C 19.086 26.135 19.6765 26.36725 20.1875 26.15625 C 20.6975 25.94525 20.961 25.386 20.75 24.875 C 20.59175 24.4925 20.202078 24.253516 19.8125 24.25 z M 6.09375 24.90625 C 5.83775 24.90625 5.60125 24.9925 5.40625 25.1875 C 5.01625 25.5775 5.01625 26.20375 5.40625 26.59375 C 5.79625 26.98475 6.4215 26.98475 6.8125 26.59375 C 7.2025 26.20375 7.2025 25.5775 6.8125 25.1875 C 6.6175 24.9925 6.34975 24.90625 6.09375 24.90625 z M 25.90625 24.90625 C 25.65025 24.90625 25.3825 24.9925 25.1875 25.1875 C 24.7975 25.5775 24.7975 26.20375 25.1875 26.59375 C 25.5785 26.98475 26.20375 26.98475 26.59375 26.59375 C 26.98375 26.20375 26.98375 25.5775 26.59375 25.1875 C 26.39875 24.9925 26.16225 24.90625 25.90625 24.90625 z M 16 25 C 15.448 25 15 25.448 15 26 C 15 26.552 15.448 27 16 27 C 16.552 27 17 26.552 17 26 C 17 25.448 16.552 25 16 25 z M 16 29 C 15.448 29 15 29.448 15 30 C 15 30.552 15.448 31 16 31 C 16.552 31 17 30.552 17 30 C 17 29.448 16.552 29 16 29 z" fill="#000000"/></svg>
