<?xml version="1.0" encoding="utf-8"?>
<svg xmlns="http://www.w3.org/2000/svg" viewBox="0 0 32 32" fill="#000000"><path style="text-indent:0;text-align:start;line-height:normal;text-transform:none;block-progression:tb;-inkscape-font-specification:Bitstream Vera Sans" d="M 8 4 C 6.3545455 4 5 5.3545455 5 7 C 5 7.8182151 5.4127251 8.5152266 6 9.0625 L 6 13.9375 C 5.4127251 14.484773 5 15.181785 5 16 C 5 16.818215 5.4127251 17.515227 6 18.0625 L 6 22.9375 C 5.4127251 23.484773 5 24.181785 5 25 C 5 26.645455 6.3545455 28 8 28 L 24 28 C 25.645455 28 27 26.645455 27 25 C 27 24.181785 26.587275 23.484773 26 22.9375 L 26 18.0625 C 26.587275 17.515227 27 16.818215 27 16 C 27 15.181785 26.587275 14.484773 26 13.9375 L 26 9.0625 C 26.587275 8.5152266 27 7.8182151 27 7 C 27 5.3545455 25.645455 4 24 4 L 8 4 z M 8 6 L 24 6 C 24.554545 6 25 6.4454545 25 7 C 25 7.3190476 24.764977 7.7112616 24.5625 7.8125 L 24 8.09375 L 24 8.6875 L 24 14.3125 L 24 14.90625 L 24.5625 15.1875 C 24.764977 15.288738 25 15.680952 25 16 C 25 16.319048 24.764977 16.711262 24.5625 16.8125 L 24 17.09375 L 24 17.6875 L 24 23.3125 L 24 23.90625 L 24.5625 24.1875 C 24.764977 24.288738 25 24.680952 25 25 C 25 25.554545 24.554545 26 24 26 L 8 26 C 7.4454545 26 7 25.554545 7 25 C 7 24.680952 7.2350232 24.288738 7.4375 24.1875 L 8 23.90625 L 8 23.3125 L 8 17.6875 L 8 17.09375 L 7.4375 16.8125 C 7.2350232 16.711262 7 16.319048 7 16 C 7 15.680952 7.2350232 15.288738 7.4375 15.1875 L 8 14.90625 L 8 14.3125 L 8 8.6875 L 8 8.09375 L 7.4375 7.8125 C 7.2350232 7.7112616 7 7.3190476 7 7 C 7 6.4454545 7.4454545 6 8 6 z M 16 10.25 L 15.1875 11.4375 C 15.1875 11.4375 14.399089 12.514898 13.625 13.84375 C 13.237956 14.508176 12.86814 15.239621 12.5625 15.9375 C 12.25686 16.635379 12 17.280882 12 18 C 12 20.209804 13.790196 22 16 22 C 18.209804 22 20 20.209804 20 18 C 20 17.280882 19.74314 16.635379 19.4375 15.9375 C 19.13186 15.239621 18.762044 14.508176 18.375 13.84375 C 17.600911 12.514898 16.8125 11.4375 16.8125 11.4375 L 16 10.25 z M 16 13.875 C 16.256314 14.271223 16.310617 14.335309 16.625 14.875 C 16.987956 15.498074 17.36814 16.163504 17.625 16.75 C 17.88186 17.336496 18 17.869118 18 18 C 18 19.190196 17.190196 20 16 20 C 14.809804 20 14 19.190196 14 18 C 14 17.869118 14.11814 17.336496 14.375 16.75 C 14.63186 16.163504 15.012044 15.498074 15.375 14.875 C 15.689383 14.335309 15.743686 14.271223 16 13.875 z" overflow="visible" font-family="Bitstream Vera Sans" fill="#000000"/></svg>
