<?xml version="1.0" encoding="utf-8"?>
<svg xmlns="http://www.w3.org/2000/svg" viewBox="0 0 32 32" fill="#000000"><path style="text-indent:0;text-align:start;line-height:normal;text-transform:none;block-progression:tb;-inkscape-font-specification:Bitstream Vera Sans" d="M 16 7 C 12.864172 7 10.019135 7.4390646 7.875 8.21875 C 6.8029325 8.6085927 5.9119433 9.0915389 5.21875 9.6875 C 4.5255567 10.283461 4 11.076163 4 12 L 4 16 L 4 20 C 4 20.923836 4.5255517 21.716554 5.21875 22.3125 C 5.9119483 22.908446 6.802928 23.3914 7.875 23.78125 C 10.019144 24.560951 12.864228 25 16 25 C 19.135772 25 21.980856 24.560951 24.125 23.78125 C 25.197072 23.3914 26.088052 22.908446 26.78125 22.3125 C 27.474448 21.716554 28 20.923836 28 20 L 28 16 L 28 12 C 28 11.076163 27.474443 10.283461 26.78125 9.6875 C 26.088057 9.0915389 25.197067 8.6085927 24.125 8.21875 C 21.980865 7.4390646 19.135828 7 16 7 z M 16 9 C 18.939304 9 21.600418 9.4569702 23.4375 10.125 C 24.356041 10.459015 25.048683 10.826354 25.46875 11.1875 C 25.888817 11.548646 26 11.819268 26 12 C 26 12.180732 25.888817 12.451354 25.46875 12.8125 C 25.048683 13.173646 24.356041 13.540985 23.4375 13.875 C 21.600418 14.54303 18.939304 15 16 15 C 13.060696 15 10.399582 14.54303 8.5625 13.875 C 7.643959 13.540985 6.9513173 13.173646 6.53125 12.8125 C 6.1111827 12.451354 6 12.180732 6 12 C 6 11.819268 6.1111827 11.548646 6.53125 11.1875 C 6.9513173 10.826354 7.643959 10.459015 8.5625 10.125 C 10.399582 9.4569702 13.060696 9 16 9 z M 6 14.875 C 6.5470593 15.221519 7.1635729 15.522549 7.875 15.78125 C 10.019135 16.560935 12.864172 17 16 17 C 19.135828 17 21.980865 16.560935 24.125 15.78125 C 24.836427 15.522549 25.452941 15.221519 26 14.875 L 26 16 C 26 16.147372 25.90998 16.362124 25.5625 16.59375 C 25.215021 16.825376 24.648456 17 24 17 L 23 17 L 23 18 C 23 18.147372 22.90998 18.362124 22.5625 18.59375 C 22.215021 18.825376 21.648456 19 21 19 C 20.369393 19 19.820289 18.820065 19.46875 18.59375 L 18.375 17.90625 L 17.96875 19.125 C 17.874704 19.404014 17.118112 20 16 20 C 14.881888 20 14.125296 19.404014 14.03125 19.125 L 13.625 17.90625 L 12.53125 18.59375 C 12.179711 18.820065 11.630607 19 11 19 C 10.351544 19 9.784979 18.825376 9.4375 18.59375 C 9.090021 18.362124 9 18.147372 9 18 L 9 17 L 8 17 C 7.3515443 17 6.784979 16.825376 6.4375 16.59375 C 6.090021 16.362124 6 16.147372 6 16 L 6 14.875 z M 6 18.53125 C 6.3903686 18.645139 6.8015829 18.715837 7.21875 18.78125 C 7.436525 19.378162 7.7936209 19.90412 8.3125 20.25 C 9.050771 20.742124 9.9914557 21 11 21 C 11.669833 21 12.216109 20.721922 12.78125 20.5 C 13.523135 21.405625 14.646086 22 16 22 C 17.353914 22 18.476865 21.405625 19.21875 20.5 C 19.783891 20.721922 20.330167 21 21 21 C 22.008544 21 22.949229 20.742124 23.6875 20.25 C 24.206379 19.90412 24.563475 19.378162 24.78125 18.78125 C 25.198417 18.715837 25.609631 18.645139 26 18.53125 L 26 20 C 26 20.180664 25.888833 20.451353 25.46875 20.8125 C 25.048667 21.173647 24.356053 21.540975 23.4375 21.875 C 21.600394 22.543049 18.939228 23 16 23 C 13.060772 23 10.399606 22.543049 8.5625 21.875 C 7.643947 21.540975 6.9513329 21.173647 6.53125 20.8125 C 6.1111671 20.451353 6 20.180664 6 20 L 6 18.53125 z" overflow="visible" font-family="Bitstream Vera Sans" fill="#000000"/></svg>
