<?xml version="1.0" encoding="utf-8"?>
<svg xmlns="http://www.w3.org/2000/svg" viewBox="0 0 32 32" fill="#000000"><path style="text-indent:0;text-align:start;line-height:normal;text-transform:none;block-progression:tb;-inkscape-font-specification:Bitstream Vera Sans" d="M 17.5 5 C 15.578848 5 14 6.5788481 14 8.5 C 14 10.421152 15.578848 12 17.5 12 C 19.421152 12 21 10.421152 21 8.5 C 21 6.5788481 19.421152 5 17.5 5 z M 17.5 7 C 18.340272 7 19 7.6597281 19 8.5 C 19 9.3402719 18.340272 10 17.5 10 C 16.659728 10 16 9.3402719 16 8.5 C 16 7.6597281 16.659728 7 17.5 7 z M 12.09375 10.8125 L 11.65625 11.4375 L 7.125 17.96875 L 7.15625 18 L 2 18 L 2 19 C 2 22.045433 3.5599387 23.860991 4.875 24.875 C 4.6085029 24.953496 4.318319 25 4 25 C 3.3665518 25 2.7956774 24.812099 2.4375 24.5625 C 2.0793226 24.312901 2 24.042136 2 24 L 0 24 C 0 24.941864 0.58867738 25.683099 1.3125 26.1875 C 2.0363226 26.691901 2.9614482 27 4 27 C 5.035362 27 5.9618851 26.690468 6.6875 26.1875 C 6.8001837 26.109392 6.895686 26.026988 7 25.9375 C 7.1012319 26.023981 7.2036063 26.111617 7.3125 26.1875 C 8.0363226 26.691901 8.9614482 27 10 27 C 11.035362 27 11.961885 26.690468 12.6875 26.1875 C 12.800184 26.109392 12.895686 26.026988 13 25.9375 C 13.470524 26.337927 14.066922 26.669522 14.75 26.84375 L 15 26.5 L 15.03125 26.5 L 16.125 25 L 22.53125 16.40625 L 23.6875 16.78125 L 24.3125 14.875 L 12.78125 11.0625 L 12.09375 10.8125 z M 12.875 13.1875 L 15.0625 13.90625 L 12.28125 18 L 9.53125 18 L 12.875 13.1875 z M 17.03125 14.5625 L 20.53125 15.71875 L 18.84375 18 L 14.71875 18 L 17.03125 14.5625 z M 23.78125 18 L 22.3125 20 L 27.9375 20 C 27.5865 22.293 26.019 23.372 24.75 24 L 24 24 C 24 24.306 23.244 25 22 25 C 20.776 25 20 24.297 20 24 L 19.34375 24 L 17.25 26.8125 C 17.923 26.6335 18.535 26.3385 19 25.9375 C 19.739 26.5775 20.813 27 22 27 C 23.200341 27 24.259881 26.558347 25 25.90625 C 25.10594 25.997748 25.198001 26.107711 25.3125 26.1875 C 26.036323 26.691901 26.961448 27 28 27 C 29.035362 27 29.961885 26.690468 30.6875 26.1875 C 31.413115 25.684532 32 24.942667 32 24 L 30 24 C 30 24.05733 29.91888 24.315468 29.5625 24.5625 C 29.206115 24.809532 28.636638 25 28 25 C 27.683276 25 27.391672 24.953175 27.125 24.875 C 29.023984 23.449726 30 21.486625 30 19 L 30 18 L 23.78125 18 z M 4.09375 20 L 17.34375 20 L 14.15625 24.3125 C 14.049036 24.194604 14 24.080395 14 24 L 12 24 C 12 24.05733 11.91888 24.315468 11.5625 24.5625 C 11.206115 24.809532 10.636638 25 10 25 C 9.3665518 25 8.7956774 24.812099 8.4375 24.5625 C 8.0793226 24.312901 8 24.042136 8 24 L 7.21875 24 C 6.8120479 23.828966 4.5627465 22.770069 4.09375 20 z" fill="#000000"/></svg>
