<?xml version="1.0" encoding="utf-8"?>
<svg xmlns="http://www.w3.org/2000/svg" viewBox="0 0 32 32" fill="#000000"><path style="text-indent:0;text-align:start;line-height:normal;text-transform:none;block-progression:tb;-inkscape-font-specification:Bitstream Vera Sans" d="M 14 3 L 14 5 L 13 5 L 12.5 5 L 12 5 L 12 6 L 12 10.5 C 12 11.337383 10.954165 12.853515 9.6875 14.5625 C 8.4208349 16.271485 7 18.258935 7 20.6875 C 7 25.194754 10.25 27.78125 10.25 27.78125 L 10.53125 28 L 10.875 28 L 21.125 28 L 21.46875 28 L 21.75 27.78125 C 21.75 27.78125 25 25.108649 25 20.6875 C 25 19.639536 24.695094 18.679396 24.28125 17.78125 C 25.8598 17.244882 27 15.752154 27 14 C 27 11.802666 25.197334 10 23 10 C 21.885429 10 20.883316 10.47218 20.15625 11.21875 C 20.054557 10.951668 20 10.70228 20 10.5 L 20 6 L 20 5 L 19.5 5 L 19 5 L 18 5 L 18 3 L 14 3 z M 14 7 L 18 7 L 18 10.5 C 18 12.524828 19.451687 14.140038 20.6875 15.8125 C 21.228168 16.544202 21.722084 17.281796 22.125 18 L 9.84375 18 C 10.251804 17.256005 10.758179 16.497889 11.3125 15.75 C 12.545835 14.085985 14 12.508617 14 10.5 L 14 7 z M 23 12 C 24.116666 12 25 12.883334 25 14 C 25 15.019779 24.259583 15.833234 23.28125 15.96875 C 22.970015 15.506878 22.628672 15.052884 22.3125 14.625 C 21.916289 14.088796 21.546838 13.580882 21.21875 13.09375 C 21.548129 12.447928 22.217014 12 23 12 z M 9.09375 20 L 22.90625 20 C 22.948855 20.228614 23 20.463556 23 20.6875 C 23 23.875899 20.975972 25.716071 20.65625 26 L 11.3125 26 C 10.988644 25.725413 9 23.971591 9 20.6875 C 9 20.456524 9.0516266 20.233678 9.09375 20 z" overflow="visible" font-family="Bitstream Vera Sans" fill="#000000"/></svg>
