<?xml version="1.0" encoding="utf-8"?>
<svg xmlns="http://www.w3.org/2000/svg" viewBox="0 0 32 32" fill="#000000"><path d="M 12.201172 4 L 10.611328 11 L 12.662109 11 L 13.798828 6 L 15 6 L 15 11 L 17 11 L 17 6 L 18.201172 6 L 19.337891 11 L 21.388672 11 L 19.798828 4 L 17 4 L 15 4 L 12.201172 4 z M 4 12 L 4 14 L 6 14 L 6 15 L 8 15 L 8 14 L 24 14 L 24 15 L 26 15 L 26 14 L 28 14 L 28 12 L 4 12 z M 9.7011719 15 L 6.7460938 28 L 15 28 L 17 28 L 25.253906 28 L 22.298828 15 L 20.246094 15 L 22.746094 26 L 17 26 L 17 15 L 15 15 L 15 26 L 9.2539062 26 L 11.753906 15 L 9.7011719 15 z" fill="#000000"/></svg>
