<?xml version="1.0" encoding="utf-8"?>
<svg xmlns="http://www.w3.org/2000/svg" viewBox="0 0 32 32" fill="#000000"><path style="text-indent:0;text-align:start;line-height:normal;text-transform:none;block-progression:tb;-inkscape-font-specification:Bitstream Vera Sans" d="M 6 5 C 6 8.0227273 7.2817216 10.373166 9.09375 12.21875 C 10.530138 13.681738 12.277447 14.886348 14.0625 16 C 9.8957812 18.631231 6 21.510406 6 27 L 8 27 C 8 22.303071 11.781191 19.74036 15.96875 17.15625 C 16.966084 17.767917 17.937995 18.367317 18.84375 19 L 15.1875 19 C 14.1875 19.6 13.30625 20.3 12.40625 21 L 21.3125 21 C 21.363824 21.050493 21.418688 21.105261 21.46875 21.15625 C 22.037689 21.735725 22.544179 22.347038 22.9375 23 L 10.59375 23 C 10.09375 23.6 9.8 24.3 9.5 25 L 23.75 25 C 23.90705 25.618605 24 26.273693 24 27 L 26 27 C 26 23.977273 24.718278 21.626834 22.90625 19.78125 C 21.094222 17.935666 18.78125 16.53125 16.53125 15.15625 C 14.28125 13.78125 12.094222 12.435666 10.53125 10.84375 C 8.9682784 9.2518345 8 7.4772727 8 5 L 6 5 z M 24 5 C 24 5.7184071 23.882073 6.3790864 23.71875 7 L 9.5 7 C 9.8 7.7 10.09375 8.4 10.59375 9 L 22.875 9 C 22.4369 9.7223641 21.881195 10.378932 21.25 11 L 12.40625 11 C 13.30625 11.7 14.1875 12.4 15.1875 13 L 18.875 13 C 18.271844 13.439057 17.642458 13.878407 17 14.3125 C 17.6 14.7125 18.2125 15.00625 18.8125 15.40625 C 22.6125 12.90625 26 10 26 5 L 24 5 z" fill="#000000"/></svg>
