<?xml version="1.0" encoding="utf-8"?>
<svg xmlns="http://www.w3.org/2000/svg" viewBox="0 0 32 32" fill="#000000"><path style="line-height:normal;text-indent:0;text-align:start;text-decoration-line:none;text-decoration-style:solid;text-decoration-color:#000;text-transform:none;block-progression:tb;isolation:auto;mix-blend-mode:normal" d="M 8 3 L 8 7 L 12 7 L 14 6 L 24 6 L 24 10 L 2 10 L 2 22 L 18 22 L 18 26 L 14 26 L 12 25 L 8 25 L 8 29 L 12 29 L 14 28 L 20 28 L 20 21 L 20 17.730469 A 2 2 0 0 0 21 16 A 2 2 0 0 0 19 14 A 2 2 0 0 0 17 16 A 2 2 0 0 0 18 17.728516 L 18 20 L 4 20 L 4 12 L 24 12 L 24 14.271484 A 2 2 0 0 0 23 16 A 2 2 0 0 0 25 18 A 2 2 0 0 0 27 16 A 2 2 0 0 0 26 14.269531 L 26 4 L 14 4 L 12 3 L 8 3 z M 28 10 L 28 20 L 22 20 L 22 22 L 30 22 L 30 10 L 28 10 z M 7 14 A 2 2 0 0 0 5 16 A 2 2 0 0 0 7 18 A 2 2 0 0 0 9 16 A 2 2 0 0 0 7 14 z M 13 14 A 2 2 0 0 0 11 16 A 2 2 0 0 0 13 18 A 2 2 0 0 0 15 16 A 2 2 0 0 0 13 14 z" fill="#000000"/></svg>
