<?xml version="1.0" encoding="utf-8"?>
<svg xmlns="http://www.w3.org/2000/svg" viewBox="0 0 32 32" fill="#000000"><path style="text-indent:0;text-align:start;line-height:normal;text-transform:none;block-progression:tb;-inkscape-font-specification:Bitstream Vera Sans" d="M 6 4 L 6 6 L 8 6 L 8 4 L 6 4 z M 12 4 L 12 6 L 14 6 L 14 4 L 12 4 z M 18 4 L 18 6 L 20 6 L 20 4 L 18 4 z M 24 4 L 24 6 L 26 6 L 26 4 L 24 4 z M 3 7 L 3 8 L 3 24 L 3 25 L 4 25 L 28 25 L 29 25 L 29 24 L 29 8 L 29 7 L 28 7 L 4 7 L 3 7 z M 5 9 L 27 9 L 27 23 L 5 23 L 5 9 z M 7 11 L 7 20 L 7 21 L 8 21 L 12 21 L 12 19 L 9 19 L 9 11 L 7 11 z M 15 11 C 13.354545 11 12 12.354545 12 14 L 12 18 C 12 19.645455 13.354545 21 15 21 C 16.645455 21 18 19.645455 18 18 L 18 17 L 16 17 L 16 18 C 16 18.554545 15.554545 19 15 19 C 14.445455 19 14 18.554545 14 18 L 14 14 C 14 13.445455 14.445455 13 15 13 C 15.554545 13 16 13.445455 16 14 L 16 15 L 18 15 L 18 14 C 18 12.354545 16.645455 11 15 11 z M 19 11 L 19 12 L 19 20 L 19 21 L 20 21 L 21 21 C 23.209804 21 25 19.209804 25 17 L 25 15 C 25 12.790196 23.209804 11 21 11 L 20 11 L 19 11 z M 21 13 C 22.190196 13 23 13.809804 23 15 L 23 17 C 23 18.190196 22.190196 19 21 19 L 21 13 z M 6 26 L 6 28 L 8 28 L 8 26 L 6 26 z M 12 26 L 12 28 L 14 28 L 14 26 L 12 26 z M 18 26 L 18 28 L 20 28 L 20 26 L 18 26 z M 24 26 L 24 28 L 26 28 L 26 26 L 24 26 z" fill="#000000"/></svg>
