<?xml version="1.0" encoding="utf-8"?>
<svg xmlns="http://www.w3.org/2000/svg" viewBox="0 0 32 32" fill="#000000"><path style="text-indent:0;text-align:start;line-height:normal;text-transform:none;block-progression:tb;-inkscape-font-specification:Sans" d="M 4 6 L 4 7 L 4 8 L 2 8 L 1 8 L 1 9 L 1 23 L 1 24 L 2 24 L 4 24 L 4 25 L 4 26 L 5 26 L 11 26 L 12 26 L 12 25 L 12 22 L 12 21 L 11 21 L 9 21 L 9 19 L 11.4375 19 L 13.15625 21.5625 L 13.46875 22 L 14 22 L 16 22 L 16.34375 22 L 16.59375 21.8125 L 20.375 18.96875 C 20.56563 18.970652 21.159072 18.979692 22 18.9375 L 22 21 L 20 21 L 19 21 L 19 22 L 19 25 L 19 26 L 20 26 L 26 26 L 27 26 L 27 25 L 27 22 L 27 21 L 26 21 L 24 21 L 24 18.75 C 25.595708 18.565742 27.397204 18.277296 29 17.625 L 29 23 L 31 23 L 31 9 L 29 9 L 29 14.375 C 27.397204 13.722704 25.595708 13.434258 24 13.25 L 24 11 L 26 11 L 27 11 L 27 10 L 27 7 L 27 6 L 26 6 L 20 6 L 19 6 L 19 7 L 19 10 L 19 11 L 20 11 L 22 11 L 22 13.0625 C 21.159072 13.020299 20.56563 13.029319 20.375 13.03125 L 16.59375 10.1875 L 16.34375 10 L 16 10 L 14 10 L 13.46875 10 L 13.15625 10.4375 L 11.4375 13 L 9 13 L 9 11 L 11 11 L 12 11 L 12 10 L 12 7 L 12 6 L 11 6 L 5 6 L 4 6 z M 6 8 L 10 8 L 10 9 L 6 9 L 6 8 z M 21 8 L 25 8 L 25 9 L 21 9 L 21 8 z M 3 10 L 4 10 L 4 11 L 4 22 L 3 22 L 3 10 z M 6 11 L 7 11 L 7 13 L 6 13 L 6 11 z M 14.5625 12 L 15.65625 12 L 19.40625 14.8125 L 19.6875 15 L 20.03125 15 C 20.03125 15 21.639094 14.96085 23.65625 15.1875 C 24.895539 15.32675 26.261988 15.615974 27.46875 16 C 26.261988 16.384026 24.895539 16.67325 23.65625 16.8125 C 21.639094 17.039154 20.03125 17 20.03125 17 L 19.6875 17 L 19.40625 17.1875 L 15.65625 20 L 14.5625 20 L 12.84375 17.4375 L 12.53125 17 L 12 17 L 6 17 L 6 15 L 12 15 L 12.53125 15 L 12.84375 14.5625 L 14.5625 12 z M 14 15 L 14 17 L 16.90625 17 C 17.45825 17 17.90625 16.552 17.90625 16 C 17.90625 15.448 17.45825 15 16.90625 15 L 14 15 z M 6 19 L 7 19 L 7 21 L 6 21 L 6 19 z M 6 23 L 10 23 L 10 24 L 6 24 L 6 23 z M 21 23 L 25 23 L 25 24 L 21 24 L 21 23 z" fill="#000000"/></svg>
