<?xml version="1.0" encoding="utf-8"?>
<svg xmlns="http://www.w3.org/2000/svg" viewBox="0 0 32 32" fill="#000000"><path style="text-indent:0;text-align:start;line-height:normal;text-transform:none;block-progression:tb;-inkscape-font-specification:Sans" d="M 14 3 L 14 5 L 15 5 L 15 6 L 7 6 L 6 6 L 6 7 L 6 13 L 6 13.40625 L 6.28125 13.71875 L 6.5625 14 L 6.28125 14.28125 L 6 14.59375 L 6 15 L 6 20 L 6 20.40625 L 6.28125 20.71875 L 6.5625 21 L 6.28125 21.28125 L 6 21.59375 L 6 22 L 6 27 L 5 27 L 5 29 L 6 29 L 26 29 L 27 29 L 27 27 L 26 27 L 26 22 L 26 21.59375 L 25.71875 21.28125 L 25.4375 21 L 25.71875 20.71875 L 26 20.40625 L 26 20 L 26 15 L 26 14.59375 L 25.71875 14.28125 L 25.4375 14 L 25.71875 13.71875 L 26 13.40625 L 26 13 L 26 7 L 26 6 L 25 6 L 17 6 L 17 5 L 18 5 L 18 3 L 14 3 z M 8 8 L 24 8 L 24 12.5625 L 23.5625 13 L 12 13 L 12 15 L 23.5625 15 L 24 15.4375 L 24 19.5625 L 23.5625 20 L 12 20 L 12 22 L 23.5625 22 L 24 22.4375 L 24 27 L 8 27 L 8 22.4375 L 8.4375 22 L 10 22 L 10 20 L 8.4375 20 L 8 19.5625 L 8 15.4375 L 8.4375 15 L 10 15 L 10 13 L 8.4375 13 L 8 12.5625 L 8 8 z" fill="#000000"/></svg>
