<?xml version="1.0" encoding="utf-8"?>
<svg xmlns="http://www.w3.org/2000/svg" viewBox="0 0 32 32" fill="#000000"><path style="text-indent:0;text-align:start;line-height:normal;text-transform:none;block-progression:tb;-inkscape-font-specification:Bitstream Vera Sans" d="M 7.5 6.90625 C 5.5337212 6.90625 3.90625 8.5337212 3.90625 10.5 C 3.90625 12.466279 5.5337213 14.09375 7.5 14.09375 C 9.4662786 14.09375 11.09375 12.466279 11.09375 10.5 C 11.09375 8.5337211 9.4662787 6.90625 7.5 6.90625 z M 7.5 9.09375 C 8.2951449 9.09375 8.90625 9.7048551 8.90625 10.5 C 8.90625 11.295145 8.295145 11.90625 7.5 11.90625 C 6.7048549 11.90625 6.09375 11.295145 6.09375 10.5 C 6.09375 9.704855 6.704855 9.09375 7.5 9.09375 z M 3.625 13.21875 L 2.375 14.78125 L 10.8125 21.34375 L 9 25 L 11 25 L 12.5 22 L 24.5 22 L 26 25 L 28 25 L 26.5 22 L 29 22 L 29 20 L 12.34375 20 L 3.625 13.21875 z M 10.09375 13.6875 L 8.875 15.28125 L 13.125 18.59375 L 13.125 18.5625 L 13.15625 18.5625 C 13.503073 18.824122 13.909618 19 14.34375 19 L 18.6875 19 C 19.080777 19 19.483029 18.875897 19.8125 18.65625 L 22.15625 17.09375 L 27.6875 18.9375 L 28.3125 17.0625 L 22.78125 15.21875 C 22.197672 15.025552 21.543603 15.096596 21.03125 15.4375 L 18.6875 17 L 14.34375 17 L 10.09375 13.6875 z" overflow="visible" font-family="Bitstream Vera Sans" fill="#000000"/></svg>
