<?xml version="1.0" encoding="utf-8"?>
<svg xmlns="http://www.w3.org/2000/svg" viewBox="0 0 32 32" fill="#000000"><path style="text-indent:0;text-align:start;line-height:normal;text-transform:none;block-progression:tb;-inkscape-font-specification:Bitstream Vera Sans" d="M 12 6 L 12 7 L 12 9 L 5.8125 9 C 5.3942821 7.8442552 4.292018 7 3 7 C 1.3549904 7 0 8.3549904 0 10 C 0 11.645009 1.3549901 13 3 13 C 4.2920182 13 5.3942822 12.155745 5.8125 11 L 8.125 11 C 7.7145844 11.388829 7.3580601 11.818269 7.03125 12.28125 C 5.8750983 13.919132 5.1949422 15.937598 5.03125 18 L 3 18 L 2 18 L 2 19 L 2 25 L 2 26 L 3 26 L 9 26 L 10 26 L 10 25 L 10 19 L 10 18 L 9 18 L 7.0625 18 C 7.225395 16.329257 7.7742651 14.686978 8.65625 13.4375 C 9.5161853 12.219259 10.621695 11.36882 12 11.09375 L 12 13 L 12 14 L 13 14 L 19 14 L 20 14 L 20 13 L 20 11.09375 C 21.378305 11.36882 22.483815 12.219259 23.34375 13.4375 C 24.225735 14.686978 24.774605 16.329257 24.9375 18 L 23 18 L 22 18 L 22 19 L 22 25 L 22 26 L 23 26 L 29 26 L 30 26 L 30 25 L 30 19 L 30 18 L 29 18 L 26.96875 18 C 26.805058 15.937598 26.124902 13.919132 24.96875 12.28125 C 24.64194 11.818269 24.285416 11.388829 23.875 11 L 26.1875 11 C 26.605718 12.155745 27.707982 13 29 13 C 30.64501 13 32 11.64501 32 10 C 32 8.3549901 30.645009 7 29 7 C 27.707983 7 26.605718 7.8442551 26.1875 9 L 20 9 L 20 7 L 20 6 L 19 6 L 13 6 L 12 6 z M 14 8 L 18 8 L 18 12 L 14 12 L 14 8 z M 3 9 C 3.5641294 9 4 9.4358706 4 10 C 4 10.564129 3.5641291 11 3 11 C 2.4358709 11 2 10.564129 2 10 C 2 9.4358706 2.4358706 9 3 9 z M 29 9 C 29.564129 9 30 9.4358709 30 10 C 30 10.564128 29.564128 11 29 11 C 28.435872 11 28 10.564128 28 10 C 28 9.4358709 28.435871 9 29 9 z M 4 20 L 8 20 L 8 24 L 4 24 L 4 20 z M 24 20 L 28 20 L 28 24 L 24 24 L 24 20 z" fill="#000000"/></svg>
