<?xml version="1.0" encoding="utf-8"?>
<svg xmlns="http://www.w3.org/2000/svg" viewBox="0 0 32 32" fill="#000000"><path style="text-indent:0;text-align:start;line-height:normal;text-transform:none;block-progression:tb;-inkscape-font-specification:Sans" d="M 21.46875 4 C 20.027414 4.0240904 18.649729 4.5377712 17.59375 5.59375 C 15.399367 7.7881331 15.5644 11.378417 17.59375 14 L 9 22.5625 L 6.4375 20 L 5 21.4375 L 7.5625 24 L 7 24.5625 L 4.4375 22 L 3 23.4375 L 5.5625 26 L 4 27.59375 L 5.40625 29 L 19 15.40625 C 21.621583 17.435601 25.211867 17.600634 27.40625 15.40625 C 29.819917 12.992584 29.39226 8.8922604 26.75 6.25 C 25.263729 4.7637288 23.321897 3.9690267 21.46875 4 z M 22 6 C 23.147225 6.0995434 24.345947 6.6584466 25.34375 7.65625 C 27.339357 9.6518564 27.510322 12.489678 26 14 C 24.489678 15.510322 21.651856 15.339357 19.65625 13.34375 C 17.660643 11.348144 17.489677 8.5103228 19 7 C 19.755161 6.2448386 20.852775 5.9004566 22 6 z" overflow="visible" font-family="Sans" fill="#000000"/></svg>
