<?xml version="1.0" encoding="utf-8"?>
<svg xmlns="http://www.w3.org/2000/svg" viewBox="0 0 32 32" fill="#000000"><path d="M 12 3 L 12 4.7617188 C 11.799556 5.0036419 11.509569 5.2842961 11.085938 6.2441406 C 10.531769 7.4997449 10 9.3964652 10 12 L 10 20 C 10 21.64292 10.446469 23.887255 12 25.375 L 12 29 L 14 29 L 14 24.5 L 13.599609 24.199219 C 12.535833 23.401387 12 21.372429 12 20 L 12 12 C 12 9.6665348 12.46823 8.0628801 12.914062 7.0527344 C 13.359897 6.0425887 13.71875 5.6953125 13.71875 5.6953125 L 14 5.4042969 L 14 3 L 12 3 z M 18 3 L 18.007812 4.4375 L 18.320312 4.734375 C 18.390313 4.799375 20 6.366 20 10 C 20 12.6 19.600594 14.936578 19.308594 16.642578 C 19.128594 17.688578 19 18.444 19 19 C 19 19.792 19.408812 20.625797 19.882812 21.591797 C 20.405812 22.659797 21 23.87 21 25 C 21 26.087 20.824156 27.785 19.910156 29 L 22.216797 29 C 22.723797 27.886 23 26.547 23 25 C 23 23.405 22.268687 21.912891 21.679688 20.712891 C 21.360688 20.063891 21 19.328 21 19 C 21 18.614 21.130297 17.855516 21.279297 16.978516 C 21.584297 15.202516 22 12.77 22 10 C 22 6.432 20.644 4.3833281 20 3.6113281 L 20 3 L 18 3 z M 16 5 A 1 1 0 0 0 15 6 A 1 1 0 0 0 16 7 A 1 1 0 0 0 17 6 A 1 1 0 0 0 16 5 z M 16 8 A 1 1 0 0 0 15 9 A 1 1 0 0 0 16 10 A 1 1 0 0 0 17 9 A 1 1 0 0 0 16 8 z M 16 11 A 1 1 0 0 0 15 12 A 1 1 0 0 0 16 13 A 1 1 0 0 0 17 12 A 1 1 0 0 0 16 11 z M 16 14 A 1 1 0 0 0 15 15 A 1 1 0 0 0 16 16 A 1 1 0 0 0 17 15 A 1 1 0 0 0 16 14 z M 16 17 A 1 1 0 0 0 15 18 A 1 1 0 0 0 16 19 A 1 1 0 0 0 17 18 A 1 1 0 0 0 16 17 z M 16 20 A 1 1 0 0 0 15 21 A 1 1 0 0 0 16 22 A 1 1 0 0 0 17 21 A 1 1 0 0 0 16 20 z M 24 20 A 1 1 0 0 0 23 21 A 1 1 0 0 0 24 22 A 1 1 0 0 0 25 21 A 1 1 0 0 0 24 20 z M 19 22 A 1 1 0 0 0 18 23 A 1 1 0 0 0 19 24 A 1 1 0 0 0 20 23 A 1 1 0 0 0 19 22 z M 16 23 A 1 1 0 0 0 15 24 A 1 1 0 0 0 16 25 A 1 1 0 0 0 17 24 A 1 1 0 0 0 16 23 z M 10 25 A 1 1 0 0 0 9 26 A 1 1 0 0 0 10 27 A 1 1 0 0 0 11 26 A 1 1 0 0 0 10 25 z M 7 26 A 1 1 0 0 0 6 27 A 1 1 0 0 0 7 28 A 1 1 0 0 0 8 27 A 1 1 0 0 0 7 26 z M 16 26 A 1 1 0 0 0 15 27 A 1 1 0 0 0 16 28 A 1 1 0 0 0 17 27 A 1 1 0 0 0 16 26 z" fill="#000000"/></svg>
