<?xml version="1.0" encoding="utf-8"?>
<svg xmlns="http://www.w3.org/2000/svg" viewBox="0 0 32 32" fill="#000000"><path style="text-indent:0;text-align:start;line-height:normal;text-transform:none;block-progression:tb;-inkscape-font-specification:Sans" d="M 3 4 L 3 5 L 3 7 L 3 9.59375 C 3 10.752966 3.4414316 11.641169 4 12.1875 L 4 14 L 4 14.03125 L 4 14.0625 C 4 14.0625 4.026284 14.75352 4.40625 15.46875 C 4.5364977 15.713922 4.7494539 15.95557 5 16.1875 L 5 17 C 5 17.840898 5.5577085 18.539455 6.0625 18.78125 C 6.1255989 18.811474 6.1890035 18.82124 6.25 18.84375 C 6.7185444 20.706638 7.8120614 22.703682 9.1875 24.5 C 11.030813 26.907361 13.386735 29 16 29 C 18.613265 29 20.969187 26.907361 22.8125 24.5 C 24.187938 22.703682 25.281456 20.706638 25.75 18.84375 C 25.810996 18.82124 25.874401 18.811474 25.9375 18.78125 C 26.442291 18.539455 27 17.840898 27 17 L 27 16.1875 C 27.250546 15.95557 27.463502 15.713922 27.59375 15.46875 C 27.973716 14.75352 28 14.0625 28 14.0625 L 28 14.03125 L 28 14 L 28 12.1875 C 28.558568 11.641169 29 10.752966 29 9.59375 L 29 7 L 29 5 L 29 4 L 28 4 C 23.581583 4 21.610629 7.5191578 21.21875 8.3125 C 20.621049 8.1440511 19.998656 8.0606992 19.375 8.03125 C 19.03294 7.7646203 17.653634 6.7012971 16.4375 6.09375 L 16 5.875 L 15.59375 6.09375 C 14.341067 6.6763176 12.970181 7.7562617 12.625 8.03125 C 12.005397 8.0605078 11.37633 8.1516712 10.78125 8.3125 C 10.389371 7.5191578 8.4184168 4 4 4 L 3 4 z M 5 6.21875 C 7.4569344 6.7023426 8.6266923 8.5500048 8.9375 9.125 C 7.8987942 9.7595472 7 10.710077 7 12 C 7 12.719348 7.2307311 13.317923 7.5625 13.78125 C 7.1825615 14.058372 6.8110079 14.427956 6.53125 14.90625 C 6.36612 14.826092 6.2787921 14.703094 6.1875 14.53125 C 6.0506965 14.273738 6.006052 14.050645 6 14 L 6 13.9375 L 6 13 L 6 11 C 6 11 5.744558 10.989507 5.5 10.84375 C 5.255442 10.697993 5 10.52704 5 9.59375 L 5 7 L 5 6.21875 z M 27 6.21875 L 27 7 L 27 9.59375 C 27 10.52704 26.744558 10.697993 26.5 10.84375 C 26.255442 10.989507 26 11 26 11 L 26 13 L 26 13.9375 L 26 14 C 25.9939 14.05064 25.9493 14.273738 25.8125 14.53125 C 25.721208 14.703094 25.63388 14.826092 25.46875 14.90625 C 25.188992 14.427956 24.817438 14.058372 24.4375 13.78125 C 24.769269 13.317923 25 12.719348 25 12 C 25 10.710077 24.101206 9.7595472 23.0625 9.125 C 23.373308 8.5500048 24.543066 6.7023426 27 6.21875 z M 16 8.1875 C 16.191416 8.3034455 16.386602 8.4590226 16.59375 8.59375 C 16.481225 8.6566143 16.353637 8.7086501 16.25 8.78125 C 16.159176 8.8448739 16.083849 8.9276455 16 9 C 15.916151 8.9276455 15.840824 8.8448739 15.75 8.78125 C 15.642218 8.7057461 15.523632 8.6274694 15.40625 8.5625 C 15.608194 8.4320063 15.81738 8.2957154 16 8.1875 z M 13 10 C 13.715322 10 14.266839 10.208491 14.59375 10.4375 C 14.920661 10.666509 15 10.862132 15 11 L 17 11 C 17 10.862132 17.07934 10.666509 17.40625 10.4375 C 17.733161 10.208491 18.284678 10 19 10 C 19.990479 10 21.126067 10.287645 21.90625 10.71875 C 22.686433 11.149855 23 11.621779 23 12 C 23 12.688577 22.817651 12.74953 22.5625 12.875 C 22.307349 13.00047 22.03125 13 22.03125 13 C 22.026596 13.000033 21.96875 13 21.96875 13 L 22 14 L 21.96875 15 C 21.96875 15 22.025078 14.999922 22.03125 15 C 22.03125 15 22.558316 15.0027 23.0625 15.25 C 23.566684 15.497302 24 15.798618 24 17 C 24 18.432867 22.868937 21.157361 21.21875 23.3125 C 19.568563 25.467639 17.412735 27 16 27 C 14.587265 27 12.431437 25.467639 10.78125 23.3125 C 9.1310632 21.157361 8 18.432867 8 17 C 8 15.798618 8.4333161 15.497302 8.9375 15.25 C 9.4416839 15.002698 9.96875 15 9.96875 15 C 9.9749223 14.999922 10.03125 15 10.03125 15 L 10 14 L 10.03125 13 C 10.03125 13 9.9734036 13.000033 9.96875 13 C 9.96875 13 9.6926505 13.00047 9.4375 12.875 C 9.1823495 12.74953 9 12.688577 9 12 C 9 11.621779 9.3135672 11.149855 10.09375 10.71875 C 10.873933 10.287645 12.009521 10 13 10 z M 10 14 C 10 15.687 11.313 18 13 18 C 14.687 18 15 16 15 16 C 15 16 14.221 15.29175 13 14.71875 C 12.963 15.44175 12.759 16 12.5 16 C 12.215 16 11.96875 15.328 11.96875 14.5 C 11.96875 14.436 11.96575 14.3735 11.96875 14.3125 C 11.36675 14.1235 10.706 14 10 14 z M 22 14 C 21.294 14 20.63325 14.1235 20.03125 14.3125 C 20.03425 14.3735 20.03125 14.436 20.03125 14.5 C 20.03125 15.328 19.785 16 19.5 16 C 19.241 16 19.037 15.44175 19 14.71875 C 17.779 15.29175 17 16 17 16 C 17 16 17.312 18 19 18 C 20.687 18 22 15.687 22 14 z M 14.5 18 C 14.223858 18 14 18.447715 14 19 C 14 19.552285 14.223858 20 14.5 20 C 14.776142 20 15 19.552285 15 19 C 15 18.447715 14.776142 18 14.5 18 z M 17.5 18 C 17.223858 18 17 18.447715 17 19 C 17 19.552285 17.223858 20 17.5 20 C 17.776142 20 18 19.552285 18 19 C 18 18.447715 17.776142 18 17.5 18 z M 11 21 C 11 21 12.915 25 16 25 C 19.085 25 21 21 21 21 L 20 21 L 19 23 L 18 21 L 17 23 L 16 21 L 15 23 L 14 21 L 13 23 L 12 21 L 11 21 z" fill="#000000"/></svg>
