<?xml version="1.0" encoding="utf-8"?>
<svg xmlns="http://www.w3.org/2000/svg" viewBox="0 0 32 32" fill="#000000"><path style="text-indent:0;text-align:start;line-height:normal;text-transform:none;block-progression:tb;-inkscape-font-specification:Sans" d="M 15.875 4 L 15.78125 4.03125 L 4.78125 6.46875 L 4 6.65625 L 4 7.4375 L 4 24.5625 L 4 25.34375 L 4.78125 25.53125 L 15.78125 27.96875 L 15.875 28 L 16 28 L 17 28 L 18 28 L 18 27 L 18 25 L 27 25 L 28 25 L 28 24 L 28 8 L 28 7 L 27 7 L 18 7 L 18 5 L 18 4 L 17 4 L 16 4 L 15.875 4 z M 16 6.03125 L 16 7 L 16 8 L 16 24 L 16 25 L 16 25.96875 L 6 23.78125 L 6 8.21875 L 16 6.03125 z M 18 9 L 26 9 L 26 23 L 18 23 L 18 22 L 24 22 L 24 20 L 18 20 L 18 18.4375 C 18.59 18.7815 19.268 19 20 19 C 22.209 19 24 17.209 24 15 L 20 15 L 20 11 C 19.268 11 18.59 11.2185 18 11.5625 L 18 9 z M 21 10 L 21 14 L 25 14 C 25 11.791 23.209 10 21 10 z M 11.3125 11.40625 C 11.158677 11.404368 10.984625 11.42225 10.8125 11.4375 L 8 11.75 L 8 20.1875 L 9.8125 20.40625 L 9.78125 17.34375 L 10.6875 17.40625 C 13.1555 17.56125 13.9375 15.3895 13.9375 14.3125 C 13.9375 13.301875 13.619849 11.434478 11.3125 11.40625 z M 10.5 13.03125 C 11.56 12.95025 12.117 13.37675 12.125 14.34375 C 12.132 15.33175 11.59225 15.84075 10.53125 15.84375 L 9.78125 15.84375 L 9.75 13.09375 L 10.5 13.03125 z" overflow="visible" font-family="Sans" fill="#000000"/></svg>
