<?xml version="1.0" encoding="utf-8"?>
<svg xmlns="http://www.w3.org/2000/svg" viewBox="0 0 32 32" fill="#000000"><path style="text-indent:0;text-align:start;line-height:normal;text-transform:none;block-progression:tb;-inkscape-font-specification:Sans" d="M 13.3125 4.0625 L 13 4.46875 C 13 4.46875 11 7.3110417 11 11.46875 C 11 13.754852 11.692317 15.224503 12.625 16.0625 C 13.557683 16.900497 14.608056 17.0625 15.15625 17.0625 C 16.350577 17.0625 17.184168 16.445982 17.875 16.15625 L 17.125 14.3125 C 16.227832 14.688768 15.509923 15.0625 15.15625 15.0625 C 14.948444 15.0625 14.417567 14.997 13.96875 14.59375 C 13.519933 14.190497 13 13.375648 13 11.46875 C 13 8.5335069 13.994038 6.7748942 14.375 6.15625 C 15.610358 6.6013089 17.052458 6.8613072 18.375 7.4375 C 19.154546 7.7771253 19.796519 8.2307051 20.25 8.78125 C 20.703481 9.3317949 21 9.9958926 21 11.03125 C 21 12.020417 20.622575 12.50158 20.25 12.84375 C 20.18593 12.902591 20.153102 12.923737 20.09375 12.96875 C 19.552121 11.725887 18.675877 10.515902 17.3125 9.4375 L 16.09375 11.03125 C 19.155219 13.452807 19 16.319951 19 19.0625 L 21 19.0625 C 21 17.882365 20.991682 16.446411 20.6875 14.96875 C 20.955937 14.828712 21.294119 14.616378 21.625 14.3125 C 22.315425 13.67842 23 12.579083 23 11.03125 C 23 9.5921074 22.542926 8.3867676 21.8125 7.5 C 21.082074 6.6132324 20.114829 6.0426247 19.15625 5.625 C 17.239092 4.7897506 15.12956 4.449 14.53125 4.15625 L 14.3125 4.0625 L 14.09375 4.0625 L 13.84375 4.0625 L 13.3125 4.0625 z M 10.5 19.0625 C 9.4719225 19.0649 8.6875 19.3125 8.6875 19.3125 L 8.65625 19.34375 L 3.90625 21.15625 L 3 21.5 L 3.34375 22.40625 L 4.65625 26.09375 L 5 27.0625 L 5.9375 26.71875 L 9.9375 25.1875 L 16.625 28.875 L 17.0625 29.09375 L 17.5 28.9375 L 29.375 24 L 28.625 22.15625 L 17.15625 26.875 L 10.46875 23.21875 L 10.0625 22.96875 L 9.65625 23.15625 L 6.1875 24.46875 L 5.5625 22.6875 L 9.34375 21.21875 C 9.34375 21.21875 9.8273275 21.064126 10.53125 21.0625 C 11.233985 21.0609 12.048648 21.210951 12.75 21.84375 C 13.779396 22.736366 14.573413 23.378749 15.65625 23.71875 C 16.739087 24.058751 17.948733 24.101828 20 24.09375 L 20 22.09375 C 17.988267 22.10165 16.937913 22.0285 16.25 21.8125 C 15.568861 21.598628 15.076493 21.194971 14.09375 20.34375 C 14.08625 20.33695 14.07001 20.35045 14.0625 20.34375 C 12.906563 19.313401 11.520634 19.06014 10.5 19.0625 z" overflow="visible" font-family="Sans" fill="#000000"/></svg>
