<?xml version="1.0" encoding="utf-8"?>
<svg xmlns="http://www.w3.org/2000/svg" viewBox="0 0 32 32" fill="#000000"><path style="text-indent:0;text-align:start;line-height:normal;text-transform:none;block-progression:tb;-inkscape-font-specification:Bitstream Vera Sans" d="M 0.09375 6 L 0.09375 7 L 0.09375 24 L 0.09375 25 L 1.09375 25 L 13.09375 25 C 14.283946 25 15.09375 25.809804 15.09375 27 L 17.09375 27 C 17.09375 25.809804 17.903554 25 19.09375 25 L 31.09375 25 L 32.09375 25 L 32.09375 24 L 32.09375 7 L 32.09375 6 L 31.09375 6 L 19.09375 6 C 17.899758 6 16.826543 6.5146836 16.09375 7.34375 C 15.360957 6.5146836 14.287742 6 13.09375 6 L 1.09375 6 L 0.09375 6 z M 2.09375 8 L 13.09375 8 C 14.283946 8 15.09375 8.8098039 15.09375 10 L 17.09375 10 C 17.09375 8.8098039 17.903554 8 19.09375 8 L 30.09375 8 L 30.09375 23 L 19.09375 23 C 17.899758 23 16.826543 23.514684 16.09375 24.34375 C 15.360957 23.514684 14.287742 23 13.09375 23 L 2.09375 23 L 2.09375 8 z M 10.5 12 C 9.1166667 12 8 13.116667 8 14.5 L 8 17.5 C 8 18.883333 9.1166667 20 10.5 20 C 11.883333 20 13 18.883333 13 17.5 L 13 17 L 11 17 L 11 17.5 C 11 17.716667 10.716667 18 10.5 18 C 10.283333 18 10 17.716667 10 17.5 L 10 14.5 C 10 14.283333 10.283333 14 10.5 14 C 10.716667 14 11 14.283333 11 14.5 L 11 15 L 13 15 L 13 14.5 C 13 13.116667 11.883333 12 10.5 12 z M 14 12 L 14 13 L 14 19 L 14 20 L 15 20 L 16.5 20 C 17.883333 20 19 18.883333 19 17.5 C 19 16.919095 18.737137 16.423912 18.40625 16 C 18.737137 15.576088 19 15.080905 19 14.5 C 19 13.116667 17.883333 12 16.5 12 L 15 12 L 14 12 z M 20 12 L 20 14 L 22.5625 14 L 20.15625 18 L 20 18.21875 L 20 18.5 L 20 19 L 20 20 L 21 20 L 25 20 L 25 18 L 22.4375 18 L 24.84375 14 L 25 13.78125 L 25 13.5 L 25 13 L 25 12 L 24 12 L 20 12 z M 16 14 L 16.5 14 C 16.716667 14 17 14.283333 17 14.5 C 17 14.716667 16.716667 15 16.5 15 L 16 15 L 16 14 z M 16 17 L 16.5 17 C 16.716667 17 17 17.283333 17 17.5 C 17 17.716667 16.716667 18 16.5 18 L 16 18 L 16 17 z" overflow="visible" font-family="Bitstream Vera Sans" fill="#000000"/></svg>
