<?xml version="1.0" encoding="utf-8"?>
<svg xmlns="http://www.w3.org/2000/svg" viewBox="0 0 32 32" fill="#000000"><path style="text-indent:0;text-align:start;line-height:normal;text-transform:none;block-progression:tb;-inkscape-font-specification:Bitstream Vera Sans" d="M 6 5 L 6 6 L 6 26 L 6 27 L 7 27 L 17.4375 27 C 18.473513 29.903425 21.248715 32 24.5 32 C 28.630291 32 32 28.630291 32 24.5 C 32 20.885995 29.411956 17.857702 26 17.15625 L 26 6 L 26 5 L 25 5 L 7 5 L 6 5 z M 8 7 L 24 7 L 24 17.03125 C 20.107093 17.296233 17 20.541954 17 24.5 C 17 24.672245 17.019719 24.83059 17.03125 25 L 8 25 L 8 7 z M 12 10 L 12 11 L 12 22 L 14 22 L 14 19 L 17 19 C 18.64497 19 20 17.64497 20 16 L 20 13 C 20 11.35503 18.64497 10 17 10 L 13 10 L 12 10 z M 14 12 L 17 12 C 17.56503 12 18 12.43497 18 13 L 18 16 C 18 16.56503 17.56503 17 17 17 L 14 17 L 14 12 z M 24.5 19 C 27.549411 19 30 21.450589 30 24.5 C 30 27.549411 27.549411 30 24.5 30 C 21.450589 30 19 27.549411 19 24.5 C 19 21.450589 21.450589 19 24.5 19 z M 24 21 L 24 22 L 22 22 L 22 25 L 26 25 L 26 26 L 22 26 L 22 27 L 24 27 L 24 28 L 25 28 L 25 27 L 26 27 L 27 27 L 27 24 L 23 24 L 23 23 L 27 23 L 27 22 L 25 22 L 25 21 L 24 21 z" overflow="visible" font-family="Bitstream Vera Sans" fill="#000000"/></svg>
