<?xml version="1.0" encoding="utf-8"?>
<svg xmlns="http://www.w3.org/2000/svg" viewBox="0 0 32 32" fill="#000000"><path d="M 4 2 L 4 4 L 28 4 L 28 2 L 4 2 z M 16 6 C 13.176957 6 10.680144 7.1826671 8.875 9 L 7 9 C 4.2545455 9 2 11.254545 2 14 L 2 18 C 2 20.745455 4.2545455 23 7 23 L 8.875 23 C 10.680144 24.817333 13.176957 26 16 26 C 18.823043 26 21.319856 24.817333 23.125 23 L 25 23 C 27.745455 23 30 20.745455 30 18 L 30 14 C 30 11.254545 27.745455 9 25 9 L 23.125 9 C 21.319856 7.1826671 18.823043 6 16 6 z M 20 11 L 25 11 C 26.654545 11 28 12.345455 28 14 L 28 18 C 28 19.654545 26.654545 21 25 21 L 14 21 C 15.7 21 17 19.7 17 18 L 17 14 C 17 12.3 18.3 11 20 11 z M 13.40625 12.59375 C 13.90625 12.59375 14.3125 13.00625 14.3125 13.40625 C 14.3125 13.80625 13.90625 14.1875 13.40625 14.1875 C 12.90625 14.1875 12.5 13.80625 12.5 13.40625 C 12.5 13.00625 12.90625 12.59375 13.40625 12.59375 z M 25.59375 12.59375 C 25.096694 12.59375 24.6875 12.964422 24.6875 13.40625 C 24.6875 13.848077 25.096694 14.1875 25.59375 14.1875 C 26.090807 14.1875 26.5 13.848077 26.5 13.40625 C 26.5 12.964422 26.090807 12.59375 25.59375 12.59375 z M 5 12.90625 L 6.59375 12.90625 L 7.09375 16.5 L 7.6875 12.90625 L 9.1875 12.90625 L 9.8125 16.5 L 10.3125 12.90625 L 11.90625 12.90625 L 10.59375 19.09375 L 9.09375 19.09375 L 8.5 15.3125 L 7.90625 19.09375 L 6.40625 19.09375 L 5 12.90625 z M 19 12.90625 L 19 19.09375 L 20.59375 19.09375 L 20.59375 17.1875 L 23.59375 17.1875 L 23.59375 15.8125 L 20.59375 15.8125 L 20.59375 14.40625 L 23.90625 14.40625 L 23.90625 12.90625 L 19 12.90625 z M 12.59375 14.59375 L 14.09375 14.59375 L 14.09375 19.09375 L 12.59375 19.09375 L 12.59375 14.59375 z M 24.8125 14.59375 L 24.8125 19.09375 L 26.3125 19.09375 L 26.3125 14.59375 L 24.8125 14.59375 z" fill="#000000"/></svg>
