<?xml version="1.0" encoding="utf-8"?>
<svg xmlns="http://www.w3.org/2000/svg" viewBox="0 0 32 32" fill="#000000"><path style="text-indent:0;text-align:start;line-height:normal;text-transform:none;block-progression:tb;-inkscape-font-specification:Sans" d="M 3 6 L 3 7 L 3 25 L 3 26 L 4 26 L 28 26 L 29 26 L 29 25 L 29 7 L 29 6 L 28 6 L 4 6 L 3 6 z M 5 8 L 18 8 L 18 10 L 15 10 L 14 10 L 14 11 L 14 15 L 12 15 L 11 15 L 11 16 L 11 20 L 9 20 L 8 20 L 8 21 L 8 24 L 5 24 L 5 8 z M 20 8 L 27 8 L 27 12 L 24 12 L 23 12 L 23 13 L 23 16 L 21 16 L 20 16 L 20 17 L 20 20 L 18 20 L 17 20 L 17 21 L 17 24 L 10 24 L 10 22 L 12 22 L 13 22 L 13 21 L 13 17 L 15 17 L 16 17 L 16 16 L 16 12 L 19 12 L 20 12 L 20 11 L 20 8 z M 25 14 L 27 14 L 27 24 L 19 24 L 19 22 L 21 22 L 22 22 L 22 21 L 22 18 L 24 18 L 25 18 L 25 17 L 25 14 z" overflow="visible" font-family="Sans" fill="#000000"/></svg>
