<?xml version="1.0" encoding="utf-8"?>
<svg xmlns="http://www.w3.org/2000/svg" viewBox="0 0 32 32" fill="#000000"><path style="text-indent:0;text-align:start;line-height:normal;text-transform:none;block-progression:tb;-inkscape-font-specification:Sans" d="M 4 4 L 4 5 L 4 27 L 4 28 L 5 28 L 27 28 L 28 28 L 28 27 L 28 5 L 28 4 L 27 4 L 5 4 L 4 4 z M 6 6 L 26 6 L 26 8 L 6 8 L 6 6 z M 6 10 L 26 10 L 26 22 L 6 22 L 6 10 z M 8 12 L 8 13 L 8 14 L 8 15 L 9 15 L 14 15 L 15 15 L 15 14 L 15 13 L 15 12 L 14 12 L 9 12 L 8 12 z M 17 12 L 17 13 L 17 14 L 17 15 L 18 15 L 23 15 L 24 15 L 24 14 L 24 13 L 24 12 L 23 12 L 18 12 L 17 12 z M 8 17 L 8 18 L 8 19 L 8 20 L 9 20 L 23 20 L 24 20 L 24 19 L 24 18 L 24 17 L 23 17 L 9 17 L 8 17 z M 6 24 L 26 24 L 26 26 L 6 26 L 6 24 z" fill="#000000"/></svg>
