<?xml version="1.0" encoding="utf-8"?>
<svg xmlns="http://www.w3.org/2000/svg" viewBox="0 0 32 32" fill="#000000"><path style="text-indent:0;text-align:start;line-height:normal;text-transform:none;block-progression:tb;-inkscape-font-specification:Sans" d="M 7 4 C 4.6892381 4 3 6.0601496 3 8.4375 C 3 10.447998 3.8492165 12.357965 4.03125 12.75 C 4.1477449 13.462429 4.7546207 14 5.5 14 C 6.3284271 14 7 13.328427 7 12.5 C 7 11.671573 6.3284271 11 5.5 11 C 5.2489364 10.247692 5 9.303002 5 8.4375 C 5 6.9148504 5.8107619 6 7 6 C 7.6277113 6 8.1965101 6.3223482 8.90625 6.8125 C 8.9285643 6.8279105 8.9461512 6.859208 8.96875 6.875 C 8.956185 6.8595149 9.1225301 7.1197193 9.25 7.46875 C 9.3774699 7.8177807 9.5095773 8.2493291 9.625 8.71875 C 9.8558453 9.6575918 10 10.725793 10 11.21875 C 10 12.808728 10.60383 14.074642 11.125 15.03125 C 11.64617 15.987858 12 16.676233 12 17 C 12 17.297122 11.827397 17.669066 11.5625 18.3125 C 11.297603 18.955934 11 19.843309 11 21 C 11 23.313382 12 25.148226 12 28 L 14 28 C 14 24.713774 13 22.638618 13 21 C 13 20.180691 13.202397 19.633566 13.4375 19.0625 C 13.672603 18.491434 14 17.868878 14 17 C 14 15.800767 13.35383 14.941392 12.875 14.0625 C 12.39617 13.183608 12 12.311772 12 11.21875 C 12 10.378707 11.820655 9.2999082 11.5625 8.25 C 11.540066 8.1587606 11.492205 8.0895279 11.46875 8 C 11.54189 8.0051754 11.611542 8 11.6875 8 C 12.568528 8 13.307442 7.6836933 14.03125 7.4375 C 14.755058 7.1913067 15.4375 7 16 7 C 16.5625 7 17.244942 7.1913067 17.96875 7.4375 C 18.692558 7.6836933 19.431472 8 20.3125 8 C 20.388458 8 20.45811 8.0051754 20.53125 8 C 20.507795 8.0895279 20.459934 8.1587606 20.4375 8.25 C 20.179345 9.2999082 20 10.378707 20 11.21875 C 20 12.311772 19.60383 13.183608 19.125 14.0625 C 18.64617 14.941392 18 15.800767 18 17 C 18 17.868878 18.327397 18.491434 18.5625 19.0625 C 18.797603 19.633566 19 20.180691 19 21 C 19 22.638618 18 24.713774 18 28 L 20 28 C 20 25.148226 21 23.313382 21 21 C 21 19.843309 20.702397 18.955934 20.4375 18.3125 C 20.172603 17.669066 20 17.297122 20 17 C 20 16.676233 20.35383 15.987858 20.875 15.03125 C 21.39617 14.074642 22 12.808728 22 11.21875 C 22 10.725793 22.144155 9.6575918 22.375 8.71875 C 22.490423 8.2493291 22.62253 7.8177807 22.75 7.46875 C 22.87747 7.1197193 23.043815 6.8595149 23.03125 6.875 C 23.053849 6.859208 23.071436 6.8279105 23.09375 6.8125 C 23.80349 6.3223482 24.372289 6 25 6 C 26.189238 6 27 6.9148504 27 8.4375 C 27 9.303002 26.751064 10.247692 26.5 11 C 25.671573 11 25 11.671573 25 12.5 C 25 13.328427 25.671573 14 26.5 14 C 27.245379 14 27.852255 13.462429 27.96875 12.75 C 28.150783 12.357965 29 10.447998 29 8.4375 C 29 6.0601496 27.310762 4 25 4 C 23.685711 4 22.70701 4.6776518 21.96875 5.1875 C 21.23049 5.6973482 20.710977 6 20.3125 6 C 19.981528 6 19.371192 5.8163067 18.625 5.5625 C 17.878808 5.3086933 16.9915 5 16 5 C 15.0085 5 14.121192 5.3086933 13.375 5.5625 C 12.628808 5.8163067 12.018472 6 11.6875 6 C 11.289023 6 10.76951 5.6973482 10.03125 5.1875 C 9.2929899 4.6776518 8.3142887 4 7 4 z" overflow="visible" font-family="Sans" fill="#000000"/></svg>
