<?xml version="1.0" encoding="utf-8"?>
<svg xmlns="http://www.w3.org/2000/svg" viewBox="0 0 32 32" fill="#000000"><path style="text-indent:0;text-align:start;line-height:normal;text-transform:none;block-progression:tb;-inkscape-font-specification:Bitstream Vera Sans" d="M 16 4 C 15.010918 4 14.199166 4.5424045 13.65625 5.28125 C 12.71996 5.6422869 12 6.4438239 12 7.5 C 12 7.8422657 12.060083 8.1702002 12.1875 8.46875 C 11.120885 7.8838293 9.9815868 7.419787 8.875 7.09375 C 7.844491 6.790128 6.822107 6.6124597 5.90625 6.59375 C 4.990393 6.5750403 4.1537588 6.6930768 3.4375 7.1875 L 3 7.46875 L 3 8 C 3 8.96875 3.5758827 9.6865755 4.28125 10.34375 C 4.9866173 11.000924 5.8942858 11.623678 6.96875 12.15625 C 7.0569211 12.199953 7.159909 12.238546 7.25 12.28125 C 6.3640462 12.455843 5.55011 12.680007 4.875 13 C 4.1178928 13.358858 3.4534974 13.824867 3.09375 14.5625 L 2.8125 15.15625 L 3.25 15.65625 C 4.193879 16.721471 5.5376366 17.199683 6.875 17.34375 C 8.2123634 17.487817 9.5999022 17.31664 10.875 17.0625 C 12.441221 16.750338 13.644721 16.348193 14.5 16.03125 L 14.5 18 L 17.5 18 L 17.5 16.03125 C 18.355279 16.348193 19.558779 16.750338 21.125 17.0625 C 22.400098 17.316639 23.787637 17.487817 25.125 17.34375 C 26.462363 17.199683 27.806121 16.721471 28.75 15.65625 L 29.1875 15.15625 L 28.90625 14.5625 C 28.546503 13.824867 27.882107 13.358858 27.125 13 C 26.44989 12.680007 25.635954 12.455843 24.75 12.28125 C 24.840091 12.238546 24.943079 12.199953 25.03125 12.15625 C 26.105714 11.623678 27.013383 11.000924 27.71875 10.34375 C 28.424117 9.6865755 29 8.96875 29 8 L 29 7.46875 L 28.5625 7.1875 C 27.846241 6.6930768 27.009607 6.5750403 26.09375 6.59375 C 25.177893 6.61246 24.155509 6.790128 23.125 7.09375 C 22.018413 7.419787 20.879115 7.8838293 19.8125 8.46875 C 19.939917 8.1702002 20 7.8422657 20 7.5 C 20 6.4438239 19.28004 5.6422869 18.34375 5.28125 C 17.800834 4.5424045 16.989082 4 16 4 z M 16 6 C 16.377234 6 16.699283 6.1885257 16.875 6.5 L 17.09375 6.9375 L 17.59375 7 C 17.835622 7.0381726 18 7.2413048 18 7.5 C 18 7.7869372 17.786937 8 17.5 8 C 17.428667 8 17.366955 7.9822157 17.28125 7.9375 L 16.84375 7.71875 L 16.40625 7.90625 C 16.278111 7.9636024 16.141364 8 16 8 C 15.858636 8 15.721889 7.9636024 15.59375 7.90625 L 15.15625 7.71875 L 14.71875 7.9375 C 14.633045 7.9822157 14.571333 8 14.5 8 C 14.213063 8 14 7.7869372 14 7.5 C 14 7.2413048 14.164378 7.0381726 14.40625 7 L 14.90625 6.9375 L 15.125 6.5 C 15.300717 6.1885257 15.622766 6 16 6 z M 5.875 8.59375 C 6.5500493 8.6075403 7.416884 8.736122 8.3125 9 C 10.075314 9.5193833 11.98293 10.52087 13.28125 11.6875 C 13.313652 11.757118 13.33791 11.839186 13.375 11.90625 C 13.177849 11.89467 12.975443 11.881349 12.78125 11.875 C 11.044946 11.628287 9.2895537 11.044892 7.875 10.34375 C 6.9319642 9.8763221 6.1271327 9.3740755 5.625 8.90625 C 5.4906663 8.7810944 5.554961 8.7653339 5.46875 8.65625 C 5.6356252 8.6361537 5.6664906 8.5894904 5.875 8.59375 z M 26.125 8.59375 C 26.333509 8.58949 26.364375 8.636154 26.53125 8.65625 C 26.44504 8.7653339 26.50933 8.7810944 26.375 8.90625 C 25.872867 9.3740755 25.068036 9.8763221 24.125 10.34375 C 22.726766 11.036803 20.997991 11.623535 19.28125 11.875 C 19.220302 11.883928 19.154637 11.866899 19.09375 11.875 C 18.929341 11.881398 18.760153 11.89653 18.59375 11.90625 C 18.633227 11.835508 18.684496 11.761097 18.71875 11.6875 C 20.01707 10.52087 21.924686 9.5193833 23.6875 9 C 24.583116 8.736122 25.449951 8.6075403 26.125 8.59375 z M 15.1875 9.84375 C 15.19068 9.8388121 15.215498 9.8486212 15.21875 9.84375 C 15.472524 9.9182695 15.720247 10 16 10 C 16.279753 10 16.527476 9.9182695 16.78125 9.84375 C 16.790868 9.8409256 16.802869 9.8465741 16.8125 9.84375 C 16.929265 10.02504 17 10.255462 17 10.5 C 17 10.863913 16.832601 11.171924 16.59375 11.375 L 16.09375 11.8125 L 16.3125 12.4375 C 16.33486 12.50283 16.34375 12.554495 16.34375 12.59375 C 16.34375 12.855202 16.167159 13 16 13 C 15.832841 13 15.65625 12.853538 15.65625 12.59375 C 15.65625 12.55449 15.66515 12.50283 15.6875 12.4375 L 15.90625 11.8125 L 15.40625 11.375 C 15.167399 11.171924 15 10.863913 15 10.5 C 15 10.255462 15.070735 10.02504 15.1875 9.84375 z M 10.75 13.90625 C 11.785321 13.875693 12.883106 13.915038 14 14 C 13.471608 14.214825 12.367605 14.746541 10.46875 15.125 C 9.3192228 15.354111 8.1217928 15.454496 7.09375 15.34375 C 6.5176502 15.28169 6.2012411 14.984186 5.78125 14.78125 C 6.3017315 14.542255 7.037777 14.343649 7.90625 14.1875 C 8.7418204 14.037267 9.7146786 13.936807 10.75 13.90625 z M 19.65625 13.90625 C 21.29257 13.864667 22.840394 13.96215 24.09375 14.1875 C 24.962223 14.343649 25.698268 14.542255 26.21875 14.78125 C 25.798759 14.984186 25.48235 15.28169 24.90625 15.34375 C 23.878207 15.454496 22.680777 15.35411 21.53125 15.125 C 19.632395 14.746541 18.528392 14.214825 18 14 C 18.166278 13.994037 18.333559 13.980449 18.5 13.96875 C 18.887185 13.942412 19.275526 13.915925 19.65625 13.90625 z M 14.5 19 L 14.5 22 L 17.5 22 L 17.5 19 L 14.5 19 z M 14.75 23 L 14.75 25 L 17.25 25 L 17.25 23 L 14.75 23 z M 15 26 L 15 28 L 17 28 L 17 26 L 15 26 z" fill="#000000"/></svg>
