<?xml version="1.0" encoding="utf-8"?>
<svg xmlns="http://www.w3.org/2000/svg" viewBox="0 0 32 32" fill="#000000"><path style="text-indent:0;text-align:start;line-height:normal;text-transform:none;block-progression:tb;-inkscape-font-specification:Sans" d="M 7 3.96875 L 4 5.84375 L 4 8.21875 L 7 6.34375 L 16 12 L 16 26 L 4 26 L 4 28 L 17 28 L 18 28 L 18 27 L 18 23 L 25 23 L 26 23 L 26 22 L 26 18.84375 C 27.719842 18.396684 29 16.853198 29 15 C 29 12.802706 27.197294 11 25 11 C 22.802706 11 21 12.802706 21 15 C 21 16.853198 22.280158 18.396684 24 18.84375 L 24 21 L 18 21 L 18 13.15625 L 19.03125 11.53125 L 7 3.96875 z M 25 13 C 26.116414 13 27 13.883586 27 15 C 27 16.116414 26.116414 17 25 17 C 23.883586 17 23 16.116414 23 15 C 23 13.883586 23.883586 13 25 13 z M 25 14 C 24.447715 14 24 14.447715 24 15 C 24 15.552285 24.447715 16 25 16 C 25.552285 16 26 15.552285 26 15 C 26 14.447715 25.552285 14 25 14 z" overflow="visible" font-family="Sans" fill="#000000"/></svg>
