<?xml version="1.0" encoding="utf-8"?>
<svg xmlns="http://www.w3.org/2000/svg" viewBox="0 0 32 32" fill="#000000"><path style="text-indent:0;text-align:start;line-height:normal;text-transform:none;block-progression:tb;-inkscape-font-specification:Bitstream Vera Sans" d="M 17 4 L 17 6 L 21 6 L 21 4 L 17 4 z M 16 7 L 16 8 L 16 9 L 14 9 C 11.254545 9 9 11.254545 9 14 L 9 18.1875 C 7.8442551 18.605718 7 19.707983 7 21 C 7 22.292017 7.8442551 23.394282 9 23.8125 L 9 26 L 7 26 L 7 28 L 24 28 L 24 26 L 11 26 L 11 23.8125 C 11.842109 23.508062 12.50719 22.843724 12.8125 22 L 24 22 L 24 20 L 12.8125 20 C 12.508543 19.160016 11.839984 18.491457 11 18.1875 L 11 14 C 11 12.345455 12.345455 11 14 11 L 16 11 L 16 16 L 16 17 L 17 17 L 21 17 L 22 17 L 22 16 L 22 8 L 22 7 L 21 7 L 17 7 L 16 7 z M 18 9 L 20 9 L 20 15 L 18 15 L 18 9 z M 10 20 C 10.564128 20 11 20.435872 11 21 C 11 21.564128 10.564128 22 10 22 C 9.4358709 22 9 21.564129 9 21 C 9 20.435871 9.4358709 20 10 20 z" fill="#000000"/></svg>
