<?xml version="1.0" encoding="utf-8"?>
<svg xmlns="http://www.w3.org/2000/svg" viewBox="0 0 32 32" fill="#000000"><path d="M 16.03125 4.25 C 15.064752 4.25 14.28125 5.0335017 14.28125 6 C 14.28125 6.9664983 15.064752 7.75 16.03125 7.75 C 16.997748 7.75 17.78125 6.9664983 17.78125 6 C 17.78125 5.0335017 16.997748 4.25 16.03125 4.25 z M 23.09375 6.96875 C 21.98918 6.96875 21.09375 7.8641805 21.09375 8.96875 C 21.09375 10.07332 21.98918 10.96875 23.09375 10.96875 C 24.198319 10.96875 25.09375 10.07332 25.09375 8.96875 C 25.09375 7.8641805 24.198319 6.96875 23.09375 6.96875 z M 8.96875 7.40625 C 8.1403229 7.40625 7.46875 8.0778229 7.46875 8.90625 C 7.46875 9.7346772 8.1403229 10.40625 8.96875 10.40625 C 9.7971772 10.40625 10.46875 9.7346772 10.46875 8.90625 C 10.46875 8.0778229 9.7971772 7.40625 8.96875 7.40625 z M 26 13.78125 C 24.757359 13.78125 23.75 14.788609 23.75 16.03125 C 23.75 17.273891 24.757359 18.28125 26 18.28125 C 27.242641 18.28125 28.25 17.273891 28.25 16.03125 C 28.25 14.788609 27.242641 13.78125 26 13.78125 z M 6 14.71875 C 5.3096441 14.71875 4.75 15.278394 4.75 15.96875 C 4.75 16.659106 5.3096441 17.21875 6 17.21875 C 6.6903559 17.21875 7.25 16.659106 7.25 15.96875 C 7.25 15.278394 6.6903559 14.71875 6 14.71875 z M 23.03125 20.59375 C 21.650538 20.59375 20.53125 21.713038 20.53125 23.09375 C 20.53125 24.474461 21.650538 25.59375 23.03125 25.59375 C 24.411962 25.59375 25.53125 24.474461 25.53125 23.09375 C 25.53125 21.713038 24.411962 20.59375 23.03125 20.59375 z M 8.90625 22.03125 C 8.3539653 22.03125 7.90625 22.478965 7.90625 23.03125 C 7.90625 23.583534 8.3539653 24.03125 8.90625 24.03125 C 9.4585348 24.03125 9.90625 23.583534 9.90625 23.03125 C 9.90625 22.478965 9.4585348 22.03125 8.90625 22.03125 z M 15.96875 23 C 14.311896 23 12.96875 24.343146 12.96875 26 C 12.96875 27.656854 14.311896 29 15.96875 29 C 17.625604 29 18.96875 27.656854 18.96875 26 C 18.96875 24.343146 17.625604 23 15.96875 23 z" fill="#000000"/></svg>
