<?xml version="1.0" encoding="utf-8"?>
<svg xmlns="http://www.w3.org/2000/svg" viewBox="0 0 32 32" fill="#000000"><path style="text-indent:0;text-align:start;line-height:normal;text-transform:none;block-progression:tb;-inkscape-font-specification:Sans" d="M 15.625 2.96875 C 13.89209 2.9499512 6.71875 3.484375 3 13 C 3 13 3.75 12.688 5 12 C 3.25 14.187 3 20 3 20 L 5 19 C 3 22.25 3 29 3 29 L 10.78125 26.40625 C 12.347025 28.007479 14.206322 29 16 29 C 17.80174 29 19.644676 28.030929 21.1875 26.40625 L 29 29 C 29 29 28.875 22.687 27 19 L 29 20 C 29 20 28.75 14.187 27 12 C 28.25 12.688 29 13 29 13 C 24.75 2.125 16 3 16 3 C 16 3 15.872559 2.9714355 15.625 2.96875 z M 15.03125 7.09375 C 15.083371 7.5970572 15.48291 8 16 8 C 16.51709 8 16.916629 7.5970572 16.96875 7.09375 C 20.38082 7.5662199 23 10.454041 23 14 L 23 14.0625 L 23 14.875 L 23.8125 15.03125 C 24.495484 15.169402 25 15.763829 25 16.5 C 25 17.340812 24.340812 18 23.5 18 C 23.653487 18 23.650223 18.007 23.46875 18 L 22.5 17.96875 L 22.4375 18.90625 C 22.20418 21.441012 21.155819 23.471418 19.875 24.875 C 18.594181 26.278582 17.06364 27 16 27 C 14.968082 27 13.323005 26.217997 12 24.78125 C 10.676995 23.344503 9.6683312 21.331088 9.59375 18.96875 L 9.5625 18 L 8.59375 18 L 8.5 18 C 7.6591883 18 7 17.340812 7 16.5 C 7 15.763829 7.5045157 15.169402 8.1875 15.03125 L 9 14.875 L 9 14.0625 L 9 14 C 9 12.118091 9.7371073 10.411809 10.9375 9.15625 L 12.59375 11.28125 L 11.40625 12.1875 L 12.59375 13.8125 L 13.84375 12.875 L 15.21875 14.625 L 16.78125 13.375 L 15.4375 11.65625 L 16.59375 10.8125 L 15.40625 9.1875 L 14.21875 10.09375 L 12.53125 7.9375 C 13.287875 7.5047419 14.129273 7.218647 15.03125 7.09375 z M 11 15 C 11 15 10.583 18 13 18 C 14.333 18 15 17 15 17 L 11 15 z M 21 15 L 17 17 C 17 17 17.667 18 19 18 C 21.417 18 21 15 21 15 z M 14 21 C 13.448 21 13 21.448 13 22 C 13 22 12.9935 22.155 13.0625 22.375 C 13.0655 22.381 13.09075 22.40025 13.09375 22.40625 C 13.28075 22.98825 13.896 24 16 24 C 18.104 24 18.71925 22.98825 18.90625 22.40625 C 18.90925 22.40025 18.9355 22.381 18.9375 22.375 C 19.0065 22.155 19 22 19 22 C 19 21.448 18.552 21 18 21 L 17.5 22 L 17 21 L 16.5 22 L 16 21 L 15.5 22 L 15 21 L 14.5 22 L 14 21 z" overflow="visible" font-family="Sans" fill="#000000"/></svg>
