<?xml version="1.0" encoding="utf-8"?>
<svg xmlns="http://www.w3.org/2000/svg" viewBox="0 0 32 32" fill="#000000"><path style="text-indent:0;text-align:start;line-height:normal;text-transform:none;block-progression:tb;-inkscape-font-specification:Bitstream Vera Sans" d="M 15.8125 4 C 15.045833 4 14.264277 4.3294733 13.6875 4.90625 L 13.625 4.9375 L 12.5625 6 L 10 6 C 9.4777778 6 8.9395305 6.1854695 8.5625 6.5625 C 8.1854695 6.9395305 8 7.4777778 8 8 C 8 8.5222222 8.1854695 9.0604695 8.5625 9.4375 C 8.9395305 9.8145305 9.4777778 10 10 10 L 12.5625 10 L 13.5625 10.96875 L 13.6875 11.09375 C 14.264277 11.670527 15.045833 12 15.8125 12 L 24 12 C 26.209804 12 28 10.209804 28 8 C 28 5.7901961 26.209804 4 24 4 L 15.8125 4 z M 15.8125 6 L 24 6 C 25.190196 6 26 6.8098039 26 8 C 26 9.1901961 25.190196 10 24 10 L 15.8125 10 C 15.579167 10 15.316973 9.9107233 15.09375 9.6875 L 14.40625 9 L 20 9 L 20 7 L 14.40625 7 L 15.09375 6.3125 C 15.316973 6.0892767 15.579167 6 15.8125 6 z M 6.5 11 C 5.1166667 11 4 12.116667 4 13.5 L 4 27 L 4 28 L 5 28 L 8 28 L 9 28 L 9 27 L 9 26 L 23 26 L 23 27 L 23 28 L 24 28 L 27 28 L 28 28 L 28 27 L 28 21 L 28 20 L 28 17 C 28 15.354545 26.645455 14 25 14 L 14 14 L 13 14 L 13 14.5625 C 12.407407 14.214051 11.732431 14 11 14 C 10.267569 14 9.5925926 14.214051 9 14.5625 L 9 13.5 C 9 12.116667 7.8833333 11 6.5 11 z M 6.5 13 C 6.7166667 13 7 13.283333 7 13.5 L 7 21 L 7 22 L 8 22 L 26 22 L 26 26 L 25 26 L 25 25 L 25 24 L 24 24 L 8 24 L 7 24 L 7 25 L 7 26 L 6 26 L 6 13.5 C 6 13.283333 6.2833333 13 6.5 13 z M 11 16 C 12.116414 16 13 16.883586 13 18 C 13 19.116414 12.116414 20 11 20 C 9.883586 20 9 19.116414 9 18 C 9 16.883586 9.883586 16 11 16 z M 15 16 L 25 16 C 25.554545 16 26 16.445455 26 17 L 26 20 L 15 20 L 15 16 z" overflow="visible" font-family="Bitstream Vera Sans" fill="#000000"/></svg>
