<?xml version="1.0" encoding="utf-8"?>
<svg xmlns="http://www.w3.org/2000/svg" viewBox="0 0 32 32" fill="#000000"><path style="line-height:normal;text-indent:0;text-align:start;text-decoration-line:none;text-decoration-style:solid;text-decoration-color:#000;text-transform:none;block-progression:tb;isolation:auto;mix-blend-mode:normal" d="M 16 2 C 13.737037 2 12.039488 3.4980478 10.580078 4.90625 C 9.1206686 6.3144522 7.7851467 7.683597 6.6835938 8.0507812 L 6 8.2792969 L 6 9 C 6 13.82402 6.8730731 15.386878 7.9589844 17.195312 C 6.8186591 17.620236 6 18.713314 6 20 C 6 21.32 6.8579219 22.44375 8.0449219 22.84375 C 8.4679219 26.85975 11.874 30 16 30 C 20.126 30 23.532078 26.85975 23.955078 22.84375 C 25.142078 22.44375 26 21.32 26 20 C 26 18.697832 25.161905 17.593191 24 17.179688 C 24.651132 15.34563 25.130462 14.37352 25.476562 13.308594 C 25.834179 12.20824 26 11.05 26 9 L 26 8.2792969 L 25.316406 8.0507812 C 24.214853 7.683597 22.879331 6.3144522 21.419922 4.90625 C 19.960512 3.4980478 18.262963 2 16 2 z M 15 4.1777344 L 15 9 L 12 9 L 12 11 L 15 11 L 15 16 L 9.6054688 16 C 8.6481606 14.441171 8.1052496 13.320721 8.0488281 9.5019531 C 9.5484052 8.7366372 10.780448 7.4903577 11.96875 6.34375 C 13.011115 5.3379594 14.004664 4.5227603 15 4.1777344 z M 17 4.1777344 C 17.995336 4.5227603 18.988885 5.3379594 20.03125 6.34375 C 21.217261 7.4881466 22.447945 8.7299803 23.943359 9.4960938 C 23.911879 10.944378 23.827315 11.912649 23.574219 12.691406 C 23.331075 13.439541 22.849373 14.562896 22.3125 16 L 17 16 L 17 11 L 20 11 L 20 9 L 17 9 L 17 4.1777344 z M 10 18 L 22 18 L 22 19 L 23 19 C 23.552 19 24 19.448 24 20 C 24 20.552 23.552 21 23 21 L 22 21 L 22 22 C 22 25.309 19.309 28 16 28 C 12.691 28 10 25.309 10 22 L 10 21 L 9 21 C 8.449 21 8 20.552 8 20 C 8 19.448 8.449 19 9 19 L 10 19 L 10 18 z M 13 19 A 1 1 0 0 0 12 20 A 1 1 0 0 0 13 21 A 1 1 0 0 0 14 20 A 1 1 0 0 0 13 19 z M 19 19 A 1 1 0 0 0 18 20 A 1 1 0 0 0 19 21 A 1 1 0 0 0 20 20 A 1 1 0 0 0 19 19 z" font-weight="400" font-family="sans-serif" white-space="normal" overflow="visible" fill="#000000"/></svg>
