<?xml version="1.0" encoding="utf-8"?>
<svg xmlns="http://www.w3.org/2000/svg" viewBox="0 0 32 32" fill="#000000"><path style="text-indent:0;text-align:start;line-height:normal;text-transform:none;block-progression:tb;-inkscape-font-specification:Bitstream Vera Sans" d="M 5 6 L 5 21 L 5 22 L 6 22 L 15 22 L 15 25 L 12.5 25 L 16 28.5 L 19.5 25 L 17 25 L 17 22 L 26 22 L 27 22 L 27 21 L 27 6 L 25 6 L 25 20 L 7 20 L 7 6 L 5 6 z M 13.21875 8.78125 L 11.78125 10.21875 L 14.5625 13 L 11.78125 15.78125 L 13.21875 17.21875 L 16 14.4375 L 18.78125 17.21875 L 20.21875 15.78125 L 17.4375 13 L 20.21875 10.21875 L 18.78125 8.78125 L 16 11.5625 L 13.21875 8.78125 z" overflow="visible" font-family="Bitstream Vera Sans" fill="#000000"/></svg>
