<?xml version="1.0" encoding="utf-8"?>
<svg xmlns="http://www.w3.org/2000/svg" viewBox="0 0 32 32" fill="#000000"><path style="text-indent:0;text-align:start;line-height:normal;text-transform:none;block-progression:tb;-inkscape-font-specification:Bitstream Vera Sans" d="M 16 4 C 11.731406 4 8.1660996 7.0031607 7.25 11 L 7 11 L 6 11 L 6 12 L 6 25 C 6 26.64497 7.3550302 28 9 28 L 23 28 C 24.64497 28 26 26.64497 26 25 L 26 12 L 26 11 L 25 11 L 24.75 11 C 23.8339 7.0031607 20.268594 4 16 4 z M 16 6 C 19.18426 6 21.864006 8.0995721 22.71875 11 L 9.28125 11 C 10.135994 8.0995721 12.81574 6 16 6 z M 8 13 L 9 13 L 23 13 L 24 13 L 24 25 C 24 25.56503 23.56503 26 23 26 L 9 26 C 8.4349698 26 8 25.56503 8 25 L 8 13 z M 11 15 L 11 18 L 14 18 L 14 15 L 11 15 z M 15 15 L 15 16 L 16 16 L 16 15 L 15 15 z M 16 16 L 16 17 L 17 17 L 17 16 L 16 16 z M 16 17 L 15 17 L 15 18 L 16 18 L 16 17 z M 16 18 L 16 19 L 17 19 L 17 18 L 16 18 z M 17 19 L 17 20 L 18 20 L 18 19 L 17 19 z M 18 20 L 18 21 L 18 22 L 19 22 L 19 21 L 19 20 L 18 20 z M 19 20 L 20 20 L 20 19 L 19 19 L 19 20 z M 20 20 L 20 21 L 21 21 L 21 20 L 20 20 z M 19 22 L 19 23 L 20 23 L 20 22 L 19 22 z M 20 23 L 20 24 L 21 24 L 21 23 L 20 23 z M 18 22 L 17 22 L 16 22 L 16 23 L 16 24 L 17 24 L 17 23 L 18 23 L 18 22 z M 17 20 L 16 20 L 16 21 L 17 21 L 17 20 z M 16 20 L 16 19 L 15 19 L 15 20 L 16 20 z M 18 15 L 18 18 L 21 18 L 21 15 L 18 15 z M 11 19 L 11 20 L 12 20 L 12 19 L 11 19 z M 13 19 L 13 20 L 14 20 L 14 19 L 13 19 z M 11 21 L 11 24 L 14 24 L 14 21 L 11 21 z" fill="#000000"/></svg>
