<?xml version="1.0" encoding="utf-8"?>
<svg xmlns="http://www.w3.org/2000/svg" viewBox="0 0 32 32" fill="#000000"><path style="text-indent:0;text-align:start;line-height:normal;text-transform:none;block-progression:tb;-inkscape-font-specification:Sans" d="M 16 3 C 14.812413 3 13.785254 3.4559339 13.0625 4.15625 C 12.339746 4.8565661 11.898013 5.74775 11.59375 6.65625 C 10.985224 8.4732501 10.948696 10.395704 11.03125 11.5 C 11.239733 14.310303 12.03125 17.25 12.03125 17.25 L 12.25 18 L 13 18 L 20 18 L 20.6875 18 L 20.9375 17.375 C 20.9375 17.375 21.954109 15.01764 22 12.6875 C 22.03904 10.678034 21.64047 8.3942378 20.71875 6.5 C 19.79703 4.6057622 18.196296 3 16 3 z M 16 5 C 17.228704 5 18.16772 5.8572378 18.90625 7.375 C 19.64478 8.8927622 20.03296 10.959716 20 12.65625 C 19.973881 13.982457 19.557289 15.315872 19.3125 16 L 13.84375 16 C 13.683035 15.370142 13.192637 13.550458 13.03125 11.375 C 12.967804 10.526296 13.026526 8.7262499 13.5 7.3125 C 13.736737 6.605625 14.067129 5.9829027 14.46875 5.59375 C 14.870371 5.2045973 15.295587 5 16 5 z M 12.4375 21 L 12.25 21.75 C 12.022157 22.598479 11.994767 23.356334 12 24 C 12.02085 26.784736 13.736751 29 16 29 C 18.042886 29 19.494266 27.823927 20.1875 26.40625 C 20.880734 24.988573 21.011149 23.378779 21 22 L 21 21 L 20 21 L 13.21875 21 L 12.4375 21 z M 14.09375 23 L 18.84375 23 C 18.77456 23.903236 18.733559 24.861896 18.40625 25.53125 C 17.949984 26.464323 17.380114 27 16 27 C 15.069249 27 14.015149 26.023264 14 24 C 13.9973 23.665427 14.05897 23.327621 14.09375 23 z" overflow="visible" font-family="Sans" fill="#000000"/></svg>
