<?xml version="1.0" encoding="utf-8"?>
<svg xmlns="http://www.w3.org/2000/svg" viewBox="0 0 32 32" fill="#000000"><path style="text-indent:0;text-align:start;line-height:normal;text-transform:none;block-progression:tb;-inkscape-font-specification:Bitstream Vera Sans" d="M 16 5 C 10.037 5 4 6.717 4 10 C 4 10.751526 4.3151046 11.414906 4.875 12 C 4.1769682 12.736344 4 13.467966 4 14 C 4 14.751526 4.3151046 15.414906 4.875 16 C 4.1769682 16.736344 4 17.467966 4 18 C 4 18.747221 4.3214947 19.416953 4.875 20 C 4.34357 20.554334 4 21.217714 4 22 C 4 22.923836 4.5255517 23.716554 5.21875 24.3125 C 5.9119483 24.908446 6.802928 25.3914 7.875 25.78125 C 10.019144 26.560951 12.864228 27 16 27 C 19.135772 27 21.980856 26.560951 24.125 25.78125 C 25.197072 25.3914 26.088052 24.908446 26.78125 24.3125 C 27.474448 23.716554 28 22.923836 28 22 C 28 21.217714 27.65643 20.554334 27.125 20 C 27.679076 19.417154 28 18.747303 28 18 C 28 17.467966 27.823032 16.736344 27.125 16 C 27.679076 15.417154 28 14.747303 28 14 C 28 13.467966 27.823032 12.736344 27.125 12 C 27.679076 11.417154 28 10.747303 28 10 C 28 6.717 21.963 5 16 5 z M 16 7 C 22.012 7 26 8.806 26 10 C 26 10.932 23.58125 12.223 19.65625 12.75 C 19.29225 12.799 19 13.10175 19 13.46875 L 19 14.84375 C 21.495166 14.5963 23.809766 14.045201 25.46875 13.1875 C 25.807143 13.475585 26 13.770688 26 14 C 26 14.982 23.3 16.37875 19 16.84375 L 19 18.84375 C 21.495166 18.5963 23.809766 18.045201 25.46875 17.1875 C 25.807143 17.475585 26 17.770688 26 18 C 26 18.982 23.3 20.37875 19 20.84375 L 19 22.84375 C 21.495166 22.5963 23.809766 22.045201 25.46875 21.1875 C 25.870107 21.528763 26 21.827735 26 22 C 26 22.180664 25.888833 22.451353 25.46875 22.8125 C 25.048667 23.173647 24.356053 23.540975 23.4375 23.875 C 21.600394 24.543049 18.939228 25 16 25 C 13.060772 25 10.399606 24.543049 8.5625 23.875 C 7.643947 23.540975 6.9513329 23.173647 6.53125 22.8125 C 6.1111671 22.451353 6 22.180664 6 22 C 6 21.827735 6.1298932 21.528763 6.53125 21.1875 C 8.6269083 22.270346 11.773904 22.864849 15 22.96875 L 15 20.96875 C 9.551 20.78375 6 19.127 6 18 C 6 17.766227 6.2116942 17.481342 6.5625 17.1875 C 7.9946968 17.921849 9.9038439 18.434234 12 18.71875 L 12 16.71875 C 8.285 16.16275 6 14.904 6 14 C 6 13.766227 6.2116942 13.481342 6.5625 13.1875 C 7.9946968 13.921849 9.9038439 14.434234 12 14.71875 L 12 13.34375 C 12 12.98775 11.726 12.688 11.375 12.625 C 8.024 12.029 6 10.853 6 10 C 6 8.806 9.988 7 16 7 z M 16 8 C 12.686 8 10 8.895 10 10 C 10 10.529 10.619 11.018 11.625 11.375 C 12.439 11.664 13 12.388 13 13.25 L 13 17 C 13 17.552 13.448 18 14 18 C 14.552 18 15 17.552 15 17 L 15 12.5 C 15 12.5 14.997 12 15.5 12 C 16.003 12 16 12.5 16 12.5 L 16 22 C 16 22.552 16.448 23 17 23 C 17.552 23 18 22.552 18 22 L 18 13.5625 C 18 12.6455 18.64025 11.84 19.53125 11.625 C 21.03425 11.262 22 10.666 22 10 C 22 8.895 19.314 8 16 8 z" fill="#000000"/></svg>
