<?xml version="1.0" encoding="utf-8"?>
<svg xmlns="http://www.w3.org/2000/svg" viewBox="0 0 32 32" fill="#000000"><path style="text-indent:0;text-align:start;line-height:normal;text-transform:none;block-progression:tb;-inkscape-font-specification:Bitstream Vera Sans" d="M 11.625 4.625 L 5.1875 20.15625 L 4.96875 20.6875 L 5.34375 21.15625 L 10.46875 27.625 L 10.8125 28.0625 L 11.375 28 L 19.5625 27.0625 L 20.15625 27 L 20.375 26.4375 L 26.8125 10.90625 L 24.96875 10.125 L 18.75 25.125 L 11.6875 25.9375 L 7.28125 20.375 L 13.46875 5.375 L 11.625 4.625 z M 16.8125 6.5 L 16.25 7.84375 L 19.78125 9.71875 L 19.78125 9.75 L 15.84375 8.78125 L 15.34375 10.03125 L 18.8125 12.03125 L 18.8125 12.0625 L 14.9375 10.9375 L 14.40625 12.28125 L 20.09375 13.59375 L 20.71875 12.0625 L 17.34375 10.125 L 17.34375 10.09375 L 21.125 11.125 L 21.75 9.59375 L 16.8125 6.5 z M 14.4375 13.625 C 14.00275 13.706875 13.5795 14.0425 13.25 14.875 C 12.588 16.549 13.6495 17.0655 14.1875 17.3125 C 16.0735 18.0985 16.406 15.715 17.5 16.125 C 17.944 16.291 17.90175 16.63625 17.84375 16.78125 C 17.61975 17.34325 16.90625 16.9375 16.90625 16.9375 L 16.34375 18.28125 L 16.53125 18.34375 C 18.10425 19.03675 18.585 17.4945 18.75 17.1875 C 19.477 15.4195 18.47325 14.86 17.90625 14.625 C 15.98025 13.818 15.48675 16.27975 14.46875 15.84375 C 14.35075 15.79275 14.0345 15.58475 14.1875 15.21875 C 14.3795 14.75875 15.0615 15.125 15.0625 15.125 L 15.59375 13.8125 C 15.30425 13.6965 14.87225 13.543125 14.4375 13.625 z M 12.875 18.1875 C 12.347598 18.163232 11.755625 18.396875 11.34375 19.4375 C 10.68175 21.1115 11.74325 21.628 12.28125 21.875 C 14.16725 22.661 14.49975 20.2775 15.59375 20.6875 C 16.03775 20.8535 15.9955 21.19875 15.9375 21.34375 C 15.7135 21.90575 15 21.5 15 21.5 L 14.4375 22.84375 L 14.625 22.9375 C 16.198 23.6305 16.67875 22.057 16.84375 21.75 C 17.57075 19.982 16.567 19.4225 16 19.1875 C 14.074 18.3805 13.61175 20.8735 12.59375 20.4375 C 12.47575 20.3865 12.1595 20.1785 12.3125 19.8125 C 12.5045 19.3515 13.15525 19.6875 13.15625 19.6875 L 13.6875 18.40625 C 13.470375 18.31925 13.191441 18.202061 12.875 18.1875 z" overflow="visible" font-family="Bitstream Vera Sans" fill="#000000"/></svg>
