<?xml version="1.0" encoding="utf-8"?>
<svg xmlns="http://www.w3.org/2000/svg" viewBox="4 -4 32 32" fill="#000000"><path style="text-indent:0;text-align:start;line-height:normal;text-transform:none;block-progression:tb;-inkscape-font-specification:Bitstream Vera Sans" d="M 18 3.25 L 17.1875 4.4375 C 17.1875 4.4375 16.398261 5.5420266 15.625 6.875 C 15.238369 7.5414867 14.867712 8.2740359 14.5625 8.96875 C 14.257288 9.6634641 14 10.284 14 11 C 14 13.197334 15.802666 15 18 15 C 20.197334 15 22 13.197334 22 11 C 22 10.284 21.742712 9.6634641 21.4375 8.96875 C 21.132288 8.2740359 20.761631 7.5414867 20.375 6.875 C 19.601739 5.5420266 18.8125 4.4375 18.8125 4.4375 L 18 3.25 z M 18 6.875 C 18.256625 7.2746463 18.310259 7.3324382 18.625 7.875 C 18.988369 8.5013883 19.367712 9.1956203 19.625 9.78125 C 19.882288 10.36688 20 10.8875 20 11 C 20 12.116666 19.116666 13 18 13 C 16.883334 13 16 12.116666 16 11 C 16 10.8875 16.117712 10.36688 16.375 9.78125 C 16.632288 9.1956203 17.011631 8.5013883 17.375 7.875 C 17.689741 7.3324382 17.743375 7.2746463 18 6.875 z M 9 11.25 L 8.1875 12.4375 C 8.1875 12.4375 7.398261 13.542027 6.625 14.875 C 6.238369 15.541487 5.8677123 16.274036 5.5625 16.96875 C 5.2572877 17.663464 5 18.284 5 19 C 5 21.197334 6.802666 23 9 23 C 11.197334 23 13 21.197334 13 19 C 13 18.284 12.742712 17.663464 12.4375 16.96875 C 12.132288 16.274036 11.761631 15.541487 11.375 14.875 C 10.601739 13.542027 9.8125 12.4375 9.8125 12.4375 L 9 11.25 z M 9 14.875 C 9.256625 15.274646 9.310259 15.332438 9.625 15.875 C 9.988369 16.501388 10.367712 17.19562 10.625 17.78125 C 10.882288 18.36688 11 18.8875 11 19 C 11 20.116666 10.116666 21 9 21 C 7.883334 21 7 20.116666 7 19 C 7 18.8875 7.117712 18.36688 7.375 17.78125 C 7.632288 17.19562 8.011631 16.501388 8.375 15.875 C 8.689741 15.332438 8.743375 15.274646 9 14.875 z M 23 15.25 L 22.1875 16.4375 C 22.1875 16.4375 21.398261 17.542027 20.625 18.875 C 20.238369 19.541487 19.867712 20.274036 19.5625 20.96875 C 19.257288 21.663464 19 22.284 19 23 C 19 25.197334 20.802666 27 23 27 C 25.197334 27 27 25.197334 27 23 C 27 22.284 26.742712 21.663464 26.4375 20.96875 C 26.132288 20.274036 25.761631 19.541487 25.375 18.875 C 24.601739 17.542027 23.8125 16.4375 23.8125 16.4375 L 23 15.25 z M 23 18.875 C 23.256625 19.274646 23.310259 19.332438 23.625 19.875 C 23.988369 20.501388 24.367712 21.19562 24.625 21.78125 C 24.882288 22.36688 25 22.8875 25 23 C 25 24.116666 24.116666 25 23 25 C 21.883334 25 21 24.116666 21 23 C 21 22.8875 21.117712 22.36688 21.375 21.78125 C 21.632288 21.19562 22.011631 20.501388 22.375 19.875 C 22.689741 19.332438 22.743375 19.274646 23 18.875 z" transform="translate(4 -4)" overflow="visible" font-family="Bitstream Vera Sans" fill="#000000"/></svg>
