<?xml version="1.0" encoding="utf-8"?>
<svg xmlns="http://www.w3.org/2000/svg" viewBox="0 0 32 32" fill="#000000"><path style="text-indent:0;text-align:start;line-height:normal;text-transform:none;block-progression:tb;-inkscape-font-specification:Bitstream Vera Sans" d="M 5 6 L 5 7 L 5 25 L 5 26 L 6 26 L 26 26 L 27 26 L 27 25 L 27 7 L 27 6 L 26 6 L 6 6 L 5 6 z M 7 8 L 25 8 L 25 24 L 7 24 L 7 8 z M 10 12 L 10 17 L 14 17 L 14 12 L 10 12 z M 14 17 L 14 19 L 18 19 L 18 17 L 14 17 z M 18 17 L 22 17 L 22 12 L 18 12 L 18 17 z M 10 20 L 10 22 L 22 22 L 22 20 L 10 20 z" overflow="visible" font-family="Bitstream Vera Sans" fill="#000000"/></svg>
