<?xml version="1.0" encoding="utf-8"?>
<svg xmlns="http://www.w3.org/2000/svg" viewBox="0 0 32 32" fill="#000000"><path style="text-indent:0;text-align:start;line-height:normal;text-transform:none;block-progression:tb;-inkscape-font-specification:Bitstream Vera Sans" d="M 24.6875 5.03125 C 23.494364 5.1140317 22.417304 5.8940009 22 7.09375 L 17.125 21.03125 L 17.03125 21.3125 L 17.09375 21.59375 L 18.0625 25.25 L 18.4375 26.6875 L 19.625 25.8125 L 22.625 23.53125 L 22.875 23.34375 L 22.96875 23.0625 L 27.8125 9.125 C 28.370221 7.5256327 27.505916 5.7439054 25.90625 5.1875 C 25.506408 5.0480698 25.085212 5.0036561 24.6875 5.03125 z M 24.78125 6.96875 C 24.921769 6.9687406 25.086342 7.0054302 25.25 7.0625 C 25.904334 7.2900946 26.165779 7.8141173 25.9375 8.46875 L 21.15625 22.125 L 19.59375 23.28125 L 19.125 21.4375 L 23.875 7.75 C 23.988797 7.4228328 24.17022 7.1765641 24.40625 7.0625 C 24.524265 7.0054679 24.640731 6.9687594 24.78125 6.96875 z M 10 12 C 8.5141022 12 7.272351 13.015901 6.40625 14.375 C 5.540149 15.734099 5 17.523501 5 19.5 C 5 20.668739 5.1284294 21.905182 5.59375 22.96875 C 6.0590706 24.032318 7.0629632 25 8.40625 25 C 9.8279147 25 10.775181 24.203258 11.21875 23.59375 C 11.22345 23.6228 11.24533 23.62662 11.25 23.65625 C 11.30949 24.033981 11.351944 24.456297 11.53125 24.90625 C 11.6209 25.131227 11.755037 25.365346 12 25.59375 C 12.244963 25.822154 12.631553 26 13 26 C 13.701105 26 14.09947 25.655146 14.375 25.40625 C 14.43714 25.522107 14.44965 25.58674 14.53125 25.71875 C 14.736925 26.051498 15.033274 26.463376 15.5 26.75 C 15.966726 27.036624 16.621799 27.138166 17.25 26.96875 L 16.75 25.03125 C 16.571701 25.07933 16.582493 25.06272 16.53125 25.03125 C 16.480007 24.999781 16.3737 24.887627 16.25 24.6875 C 16.1263 24.487373 15.996581 24.239751 15.84375 23.96875 C 15.767334 23.83325 15.687256 23.669118 15.53125 23.5 C 15.375244 23.330882 15.076393 23.09375 14.625 23.09375 C 13.883117 23.09375 13.55726 23.448191 13.3125 23.6875 C 13.28628 23.557219 13.24378 23.502696 13.21875 23.34375 C 13.160118 22.971481 13.104194 22.568531 12.9375 22.125 C 12.854153 21.903234 12.73708 21.640007 12.5 21.40625 C 12.26292 21.172493 11.874016 21 11.5 21 C 10.917312 21 10.411653 21.358085 10.15625 21.65625 C 9.9008468 21.954415 9.7670904 22.211004 9.625 22.40625 C 9.3408192 22.796742 9.2355853 23 8.40625 23 C 7.9125368 23 7.7204294 22.802932 7.4375 22.15625 C 7.1545706 21.509568 7 20.490261 7 19.5 C 7 17.896499 7.459101 16.433401 8.09375 15.4375 C 8.728399 14.441599 9.4888978 14 10 14 C 10.294666 14 10.441363 14.06412 10.625 14.3125 C 10.808637 14.560879 11 15.086126 11 16 L 13 16 C 13 14.807874 12.754863 13.850121 12.21875 13.125 C 11.682637 12.399879 10.826334 12 10 12 z" overflow="visible" font-family="Bitstream Vera Sans" fill="#000000"/></svg>
