<?xml version="1.0" encoding="utf-8"?>
<svg xmlns="http://www.w3.org/2000/svg" viewBox="0 0 32 32" fill="#000000"><path style="text-indent:0;text-align:start;line-height:normal;text-transform:none;block-progression:tb;-inkscape-font-specification:Bitstream Vera Sans" d="M 16 4 C 10.488997 4 6 8.4889972 6 14 C 6 19.511003 10.488997 24 16 24 C 21.511003 24 26 19.511003 26 14 C 26 8.4889972 21.511003 4 16 4 z M 16 6 C 20.238309 6 23.67786 9.2753188 23.96875 13.4375 C 23.361951 13.003055 22.673444 12.74546 21.96875 12.625 C 21.530947 12.550162 21.094458 12.524432 20.65625 12.53125 C 19.998939 12.541477 19.350906 12.637693 18.75 12.8125 C 18.285753 11.751061 17.223855 11 16 11 C 15.784092 11 15.578508 11.018224 15.375 11.0625 C 15.367749 11.05652 15.351014 11.068558 15.34375 11.0625 C 14.694327 10.520913 14.00399 9.6801858 13.6875 8.84375 C 13.476507 8.2861262 13.430346 7.770117 13.53125 7.34375 C 13.6298 6.9273316 13.843501 6.5316497 14.40625 6.15625 C 14.918731 6.053843 15.456638 6 16 6 z M 11.5 7.40625 C 11.433434 8.1429835 11.558999 8.8612891 11.8125 9.53125 C 12.205009 10.568595 12.845031 11.494796 13.59375 12.21875 C 13.222201 12.718227 13 13.335948 13 14 C 13 14.791056 13.304251 15.524005 13.8125 16.0625 C 13.650928 16.857494 13.272396 17.829797 12.71875 18.5 C 12.335704 18.963687 11.89539 19.278657 11.46875 19.40625 C 11.04211 19.533843 10.600967 19.544437 9.96875 19.21875 C 8.7528134 17.816181 8 16.009319 8 14 C 8 11.246969 9.3930372 8.8445865 11.5 7.40625 z M 16 13 C 16.564128 13 17 13.435872 17 14 C 17 14.564128 16.564128 15 16 15 C 15.435872 15 15 14.564128 15 14 C 15 13.435872 15.435872 13 16 13 z M 20.6875 14.5625 C 21.008472 14.550764 21.331553 14.574838 21.625 14.625 C 22.211894 14.725324 22.704869 14.940691 23.03125 15.25 C 23.341597 15.544114 23.542471 15.917583 23.59375 16.5625 C 22.527906 19.726508 19.531202 22 16 22 C 14.731374 22 13.532658 21.709359 12.46875 21.1875 C 13.182008 20.874349 13.77679 20.354084 14.25 19.78125 C 14.942983 18.942375 15.426946 17.94732 15.6875 16.96875 C 15.792854 16.980164 15.891835 17 16 17 C 17.312581 17 18.41023 16.12185 18.8125 14.9375 C 19.332126 14.738951 20.013459 14.587147 20.6875 14.5625 z M 15 25 L 15 26 L 9 26 L 9 28 L 23 28 L 23 26 L 17 26 L 17 25 L 15 25 z" fill="#000000"/></svg>
