<?xml version="1.0" encoding="utf-8"?>
<svg xmlns="http://www.w3.org/2000/svg" viewBox="0 0 32 32" fill="#000000"><path style="text-indent:0;text-align:start;line-height:normal;text-transform:none;block-progression:tb;-inkscape-font-specification:Sans" d="M 16 4 C 15.736874 4 15.502096 4.015838 15.25 4.03125 C 13.845039 4.108101 12.467398 4.3971134 11.1875 4.90625 L 11.9375 6.78125 C 13.015602 6.3523866 14.152711 6.0963993 15.34375 6.03125 C 15.549654 6.018662 15.775126 6 16 6 C 17.882627 6 19.666005 6.4747145 21.21875 7.3125 L 22.15625 5.5625 C 20.320995 4.5722855 18.219373 4 16 4 z M 9.5 5.71875 C 8.3260849 6.3990132 7.2436493 7.2733288 6.3125 8.3125 C 5.8965549 8.7741772 5.534093 9.2915274 5.1875 9.8125 C 4.805306 10.384711 4.4715429 10.981215 4.1875 11.59375 L 6 12.40625 C 6.2399571 11.888785 6.517944 11.394039 6.84375 10.90625 C 7.137157 10.465223 7.4644451 10.042573 7.8125 9.65625 C 8.6053507 8.7714212 9.5099151 8.0424868 10.5 7.46875 L 9.5 5.71875 z M 23.96875 6.71875 L 22.75 8.3125 C 25.190222 10.205254 26.789715 13.095489 26.96875 16.40625 C 26.97225 16.46962 27.01655 17.016843 26.96875 17.9375 L 28.96875 18.0625 C 29.02095 17.057157 28.97525 16.397876 28.96875 16.28125 C 28.757785 12.380011 26.850528 8.9539963 23.96875 6.71875 z M 16 7 L 16 9 C 20.249647 9 23.770128 12.311652 24 16.5625 C 24.0063 16.67541 24.130269 19.630728 23 23.1875 L 24.90625 23.78125 C 26.145981 19.880022 26.015727 16.75184 26 16.46875 C 25.713872 11.177598 21.294353 7 16 7 z M 14.15625 7.15625 C 12.005169 7.5522091 10.050702 8.65156 8.5625 10.3125 C 8.2428301 10.667813 7.9238825 11.066186 7.65625 11.46875 L 7.6875 11.46875 L 7.6875 11.5 C 6.5176543 13.262275 5.9040381 15.299282 6 17.40625 C 6.0009619 17.42737 5.9989 17.44762 6 17.46875 L 6 17.96875 L 8 18.03125 L 8 17.4375 L 8 17.40625 L 8 17.375 C 7.91098 15.659579 8.3840918 13.999312 9.34375 12.5625 C 9.5561175 12.243064 9.7769199 11.938937 10.03125 11.65625 C 11.231048 10.31719 12.814331 9.4410409 14.53125 9.125 L 14.15625 7.15625 z M 15.59375 10 C 14.00356 10.08627 12.521544 10.72333 11.34375 11.78125 L 12.65625 13.28125 C 13.502456 12.52117 14.58094 12.061729 15.71875 12 C 15.824749 11.9939 15.901039 12 16 12 C 16.580647 12 17.141119 12.09959 17.65625 12.28125 L 18.34375 10.40625 C 17.616881 10.149914 16.807353 10 16 10 C 15.856961 10 15.731751 9.99208 15.59375 10 z M 19.875 11.15625 L 18.78125 12.84375 C 20.0511 13.689483 20.911311 15.078005 21 16.71875 L 23 16.625 C 22.876689 14.343745 21.65315 12.340517 19.875 11.15625 z M 15.78125 13 C 14.728325 13.05724 13.738836 13.554163 13.03125 14.34375 C 12.32301 15.134066 11.941751 16.159681 12 17.21875 C 11.999884 17.21605 12.05245 18.344866 11.59375 19.65625 C 11.135052 20.967634 10.221608 22.449557 8.25 23.40625 C 8.25 23.40625 7.9588981 23.537781 7.625 23.6875 C 7.2911019 23.837219 6.8759241 24.009375 6.78125 24.03125 L 7.21875 25.96875 C 7.6650759 25.865625 8.0928981 25.668531 8.46875 25.5 C 8.8446019 25.331469 9.125 25.1875 9.125 25.1875 C 11.623392 23.975193 12.885448 21.980116 13.46875 20.3125 C 14.052052 18.644884 14.008116 17.316744 14 17.125 L 14 17.09375 C 13.97025 16.552819 14.13824 16.059934 14.5 15.65625 C 14.862414 15.251837 15.345925 15.028761 15.875 15 C 15.92393 14.9976 15.9636 15 16 15 L 16 13 C 15.9184 13 15.85232 12.9964 15.78125 13 z M 10.15625 13.125 C 9.3290315 14.362352 8.9247554 15.840227 9 17.34375 C 9.0005269 17.35428 8.9994257 17.36447 9 17.375 C 9.00311 17.45545 9.090626 19.642425 6.9375 20.6875 C 6.8887749 20.706302 6.1459722 21 5 21 L 5 23 C 6.5679697 23 7.75 22.53125 7.75 22.53125 L 7.78125 22.53125 L 7.8125 22.5 C 11.035554 20.935608 11.005179 17.462528 11 17.28125 L 11 17.25 C 10.94059 16.160504 11.248761 15.139983 11.84375 14.25 L 10.15625 13.125 z M 17.90625 13.46875 L 16.9375 15.25 C 17.531301 15.569534 17.961738 16.152725 18 16.875 C 18.0094 17.040709 18.285154 23.263091 13.375 27.21875 L 14.625 28.78125 C 20.342846 24.174909 20.026591 17.249541 20 16.78125 C 19.92426 15.351525 19.096449 14.109216 17.90625 13.46875 z M 16 16 C 15.447715 16 15 16.447715 15 17 C 15 17.021658 14.998644 17.041184 15 17.0625 C 15 17.0625 15.117326 19.121944 14.09375 21.4375 L 15.90625 22.25 C 17.088873 19.574643 17.007303 17.171984 17 17 C 17 16.978342 17.001356 16.958816 17 16.9375 C 16.966769 16.41526 16.530627 16 16 16 z M 20.96875 17.9375 C 20.843488 19.969943 20.20415 24.133902 17.25 27.625 L 18.75 28.90625 C 22.11185 24.933348 22.828012 20.346057 22.96875 18.0625 L 20.96875 17.9375 z M 13.5625 22.5 C 12.759965 23.849308 11.521528 25.142614 9.5625 26.09375 L 10.4375 27.90625 C 12.758472 26.779386 14.307785 25.136692 15.28125 23.5 L 13.5625 22.5 z" overflow="visible" font-family="Sans" fill="#000000"/></svg>
