<?xml version="1.0" encoding="utf-8"?>
<svg xmlns="http://www.w3.org/2000/svg" viewBox="0 0 32 32" fill="#000000"><path style="text-indent:0;text-align:start;line-height:normal;text-transform:none;block-progression:tb;-inkscape-font-specification:Bitstream Vera Sans" d="M 6 5 L 6 6 L 4 6 L 4 8 L 6 8 L 6 9 L 8 9 L 8 5 L 6 5 z M 24 5 L 24 9 L 26 9 L 26 8 L 28 8 L 28 6 L 26 6 L 26 5 L 24 5 z M 9 6 L 9 8 L 23 8 L 23 6 L 9 6 z M 6 13 L 6 14 L 4 14 L 4 16 L 6 16 L 6 17 L 8 17 L 8 13 L 6 13 z M 13 13 C 12.09988 13 11.508578 13.435729 11.15625 13.625 C 10.803922 13.814271 10.387815 14 9 14 L 9 16 C 10.610185 16 11.546578 15.685729 12.125 15.375 C 12.703422 15.064271 12.62112 15 13 15 C 13.286329 15 13.526788 15.189532 13.9375 15.65625 C 14.142856 15.889609 14.351492 16.169227 14.65625 16.4375 C 14.961008 16.705773 15.416995 17 16 17 C 16.583005 17 17.041143 16.707043 17.34375 16.4375 C 17.646357 16.167957 17.86018 15.888268 18.0625 15.65625 C 18.467139 15.192214 18.688087 15 19 15 C 19.1437 15 19.147537 15.01323 19.25 15.0625 C 19.352463 15.11177 19.545156 15.219927 19.84375 15.375 C 20.440937 15.685147 21.390741 16 23 16 L 23 14 C 21.613259 14 21.146813 13.814853 20.78125 13.625 C 20.598469 13.530073 20.412506 13.388235 20.125 13.25 C 19.837494 13.111765 19.4328 13 19 13 C 17.803913 13 17.029861 13.807786 16.5625 14.34375 C 16.32882 14.611732 16.118393 14.832043 16 14.9375 C 15.989389 14.928905 15.982739 14.949815 15.96875 14.9375 C 15.847508 14.830773 15.672144 14.610391 15.4375 14.34375 C 14.968212 13.810468 14.189671 13 13 13 z M 24 13 L 24 17 L 26 17 L 26 16 L 28 16 L 28 14 L 26 14 L 26 13 L 24 13 z M 12 20 C 10.35503 20 9 21.35503 9 23 C 9 24.64497 10.35503 26 12 26 L 20 26 C 21.64497 26 23 24.64497 23 23 C 23 21.35503 21.64497 20 20 20 L 12 20 z M 6 21 L 6 22 L 4 22 L 4 24 L 6 24 L 6 25 L 8 25 L 8 21 L 6 21 z M 24 21 L 24 25 L 26 25 L 26 24 L 28 24 L 28 22 L 26 22 L 26 21 L 24 21 z M 12 22 L 13 22 L 13 24 L 12 24 C 11.43497 24 11 23.56503 11 23 C 11 22.43497 11.43497 22 12 22 z M 15 22 L 17 22 L 17 24 L 15 24 L 15 22 z M 19 22 L 20 22 C 20.56503 22 21 22.43497 21 23 C 21 23.56503 20.56503 24 20 24 L 19 24 L 19 22 z" fill="#000000"/></svg>
