<?xml version="1.0" encoding="utf-8"?>
<svg xmlns="http://www.w3.org/2000/svg" viewBox="0 0 32 32" fill="#000000"><path d="M 16 3 C 9.935 3 5 7.486 5 13 C 5 20.399 9.805 29 16 29 C 22.195 29 27 20.399 27 13 C 27 7.486 22.065 3 16 3 z M 16 5 C 16.552 5 17 5.448 17 6 C 17 6.552 16.552 7 16 7 C 15.448 7 15 6.552 15 6 C 15 5.448 15.448 5 16 5 z M 14 5.1875 L 14 8 L 18 8 L 18 5.1875 C 22.005385 5.9965412 25 9.1982925 25 13 L 23 13 L 23 17 L 24.5 17 C 23.609952 20.79999 21.593753 24.413583 19 26.0625 C 19.001356 26.041184 19 26.021658 19 26 C 19 25.447715 18.552285 25 18 25 C 17.447715 25 17 25.447715 17 26 C 17 26.325391 17.165604 26.598635 17.40625 26.78125 C 16.943282 26.917619 16.484303 27 16 27 C 15.515697 27 15.056718 26.917619 14.59375 26.78125 C 14.834396 26.598635 15 26.325391 15 26 C 15 25.447715 14.552285 25 14 25 C 13.447715 25 13 25.447715 13 26 C 13 26.021658 12.998644 26.041184 13 26.0625 C 10.406247 24.413583 8.3900481 20.79999 7.5 17 L 9 17 L 9 13 L 7 13 C 7 9.1982925 9.9946152 5.9965412 14 5.1875 z M 12.5 13 C 11.671573 13 11 13.671573 11 14.5 C 11 15.328427 11.671573 16 12.5 16 C 13.328427 16 14 15.328427 14 14.5 C 14 13.671573 13.328427 13 12.5 13 z M 19.5 13 C 18.671573 13 18 13.671573 18 14.5 C 18 15.328427 18.671573 16 19.5 16 C 20.328427 16 21 15.328427 21 14.5 C 21 13.671573 20.328427 13 19.5 13 z M 7.5 14 C 7.776 14 8 14.448 8 15 C 8 15.552 7.776 16 7.5 16 C 7.224 16 7 15.552 7 15 C 7 14.448 7.224 14 7.5 14 z M 24.5 14 C 24.776 14 25 14.448 25 15 C 25 15.552 24.776 16 24.5 16 C 24.224 16 24 15.552 24 15 C 24 14.448 24.224 14 24.5 14 z M 16 19 C 15.323 19 14 20 14 20 L 18 20 C 18 20 16.677 19 16 19 z M 14 22 C 13.447715 22 13 22.447715 13 23 C 13 23.552285 13.447715 24 14 24 C 14.552285 24 15 23.552285 15 23 C 15 22.447715 14.552285 22 14 22 z M 18 22 C 17.447715 22 17 22.447715 17 23 C 17 23.552285 17.447715 24 18 24 C 18.552285 24 19 23.552285 19 23 C 19 22.447715 18.552285 22 18 22 z" fill="#000000"/></svg>
