<?xml version="1.0" encoding="utf-8"?>
<svg xmlns="http://www.w3.org/2000/svg" viewBox="0 0 32 32" fill="#000000"><path style="text-indent:0;text-align:start;line-height:normal;text-transform:none;block-progression:tb;-inkscape-font-specification:Bitstream Vera Sans" d="M 6 3 L 6 4 L 6 10 L 8 10 L 8 5 L 24 5 L 24 10 L 26 10 L 26 4 L 26 3 L 25 3 L 7 3 L 6 3 z M 7 12 L 7 13 L 7 19 L 7 20 L 8 20 L 9 20 C 10.645455 20 12 18.645455 12 17 L 12 15 C 12 13.354545 10.645455 12 9 12 L 8 12 L 7 12 z M 13 12 L 13 13 L 13 20 L 15 20 L 15 15.34375 L 15.1875 15.59375 L 16 16.65625 L 16.8125 15.59375 L 17 15.34375 L 17 20 L 19 20 L 19 13 L 19 12 L 18 12 L 17.5 12 L 17 12 L 16.6875 12.40625 L 16 13.3125 L 15.3125 12.40625 L 15 12 L 14.5 12 L 14 12 L 13 12 z M 22.5 12 C 21.116667 12 20 13.116667 20 14.5 L 20 17.5 C 20 18.883333 21.116667 20 22.5 20 L 24 20 L 25 20 L 25 19 L 25 17 L 25 16 L 24 16 L 23 16 L 23 17 L 23 18 L 22.5 18 C 22.283333 18 22 17.716667 22 17.5 L 22 14.5 C 22 14.283333 22.283333 14 22.5 14 C 22.716667 14 23 14.283333 23 14.5 L 23 15 L 25 15 L 25 14.5 C 25 13.116667 23.883333 12 22.5 12 z M 9 14 C 9.5545455 14 10 14.445455 10 15 L 10 17 C 10 17.554545 9.5545455 18 9 18 L 9 14 z M 6 22 L 6 28 L 6 29 L 7 29 L 25 29 L 26 29 L 26 28 L 26 22 L 24 22 L 24 27 L 8 27 L 8 22 L 6 22 z" overflow="visible" font-family="Bitstream Vera Sans" fill="#000000"/></svg>
