<?xml version="1.0" encoding="utf-8"?>
<svg xmlns="http://www.w3.org/2000/svg" viewBox="0 0 32 32" fill="#000000"><path style="text-indent:0;text-align:start;line-height:normal;text-transform:none;block-progression:tb;-inkscape-font-specification:Sans" d="M 18 4 C 14.334201 4 11.55387 4.8617415 9.6875 6.625 C 7.898835 8.314846 7.0659003 10.747518 7 13.625 L 6.40625 13.40625 L 6.9375 14.96875 C 6.3969667 15.504048 6 16.180301 6 17 C 6 18.259707 6.8910537 19.154489 8 19.59375 C 8.3692613 20.761161 8.7732544 21.986611 9.21875 23.03125 C 9.7053304 24.172229 10.144451 25.078327 10.75 25.71875 C 13.619758 28.755021 18.380242 28.755021 21.25 25.71875 C 21.855549 25.078327 22.26342 24.172229 22.75 23.03125 C 23.195595 21.986377 23.630686 20.761406 24 19.59375 C 25.10937 19.154508 26 18.259707 26 17 C 26 16.635822 25.917246 16.309637 25.78125 16 L 29 16 L 29 14 L 27 14 C 27.552176 13.241905 28 12.300502 28 11 L 26 11 C 26 12.284613 25.499553 12.933455 24.96875 13.375 C 24.879386 10.878346 24.270301 9.0653155 23.21875 7.84375 C 22.25437 6.7234492 20.964503 6.265469 19.6875 6.125 L 18.90625 4.5625 L 18.625 4 L 18 4 z M 17.40625 6.0625 L 18.09375 7.4375 C 18.427489 8.1040777 18.556731 8.5783608 18.5625 8.78125 C 18.5683 8.9841392 18.57463 8.9009876 18.53125 8.9375 C 18.4445 9.010525 17.603383 9.2284186 16.5625 9.28125 C 15.521617 9.3340814 14.297738 9.308464 13.15625 9.75 C 12.014762 10.191536 11.013063 11.377418 11 13 L 13 13 C 13.0079 12.014082 13.236613 11.871933 13.875 11.625 C 14.513387 11.378067 15.612883 11.304544 16.6875 11.25 C 17.762117 11.19546 18.871378 11.26094 19.8125 10.46875 C 20.283061 10.072653 20.581559 9.3889819 20.5625 8.71875 C 20.558322 8.5718145 20.524062 8.4298071 20.5 8.28125 C 20.93419 8.4655836 21.335005 8.746764 21.6875 9.15625 C 22.412951 9.9989916 23 11.482064 23 14 L 23 14.1875 C 21.764067 14.459458 19.013497 15 16 15 C 12.991381 15 10.235706 14.458797 9 14.1875 L 9 14 C 9 11.303469 9.6843705 9.3644915 11.0625 8.0625 C 12.344007 6.8517932 14.433112 6.1621515 17.40625 6.0625 z M 8.15625 16.46875 C 9.8146069 17.694532 12.448499 19 16 19 C 19.638713 19 22.235572 17.672058 23.84375 16.46875 C 23.944399 16.625574 24 16.794472 24 17 C 24 17.533588 23.6179 17.957171 23.09375 18 L 22.40625 18.03125 L 22.21875 18.6875 C 21.848872 19.8907 21.38817 21.161979 20.9375 22.21875 C 20.48683 23.275521 19.970951 24.176173 19.8125 24.34375 C 17.684258 26.595479 14.315742 26.595479 12.1875 24.34375 C 12.029049 24.176173 11.51317 23.275521 11.0625 22.21875 C 10.61183 21.161979 10.151128 19.8907 9.78125 18.6875 L 9.59375 18.03125 L 8.90625 18 C 8.3835397 17.957247 8 17.533588 8 17 C 8 16.797877 8.0559242 16.62636 8.15625 16.46875 z" overflow="visible" font-family="Sans" fill="#000000"/></svg>
