<?xml version="1.0" encoding="utf-8"?>
<svg xmlns="http://www.w3.org/2000/svg" viewBox="0 0 32 32" fill="#000000"><path style="text-indent:0;text-align:start;line-height:normal;text-transform:none;block-progression:tb;-inkscape-font-specification:Sans" d="M 9 7 C 5.6981362 7 3 9.6981359 3 13 C 3 14.983743 3.9751342 16.750036 5.46875 17.84375 C 2.831147 19.154076 1 21.864226 1 25 L 3 25 C 3 21.674438 5.674438 19 9 19 C 12.325562 19 15 21.674438 15 25 L 17 25 C 17 21.674438 19.674438 19 23 19 C 26.325562 19 29 21.674438 29 25 L 31 25 C 31 21.873971 29.18683 19.158755 26.5625 17.84375 C 27.350284 17.372087 28.088337 16.826636 28.75 16.28125 C 30.33572 14.974195 31.46875 13.65625 31.46875 13.65625 L 32.0625 13 L 31.5 12.34375 C 31.5 12.34375 30.356217 11.028603 28.78125 9.71875 C 27.206283 8.4088969 25.202343 7 23 7 C 19.698375 7 17 9.6983746 17 13 C 17 14.983599 17.975117 16.74999 19.46875 17.84375 C 18.010284 18.568297 16.788984 19.705335 16 21.125 C 15.211016 19.705335 13.989716 18.568297 12.53125 17.84375 C 14.024866 16.750036 15 14.983743 15 13 C 15 9.698136 12.301864 7 9 7 z M 9 9 C 11.220984 9 13 10.779016 13 13 C 13 15.220984 11.220984 17 9 17 C 6.7790164 17 5 15.220984 5 13 C 5 10.779016 6.7790164 9 9 9 z M 23 9 C 24.231657 9 26.068967 10.091103 27.5 11.28125 C 28.534007 12.141202 28.904258 12.58831 29.28125 13 C 28.896294 13.411675 28.517125 13.85461 27.46875 14.71875 C 26.02147 15.911695 24.161898 17 23 17 C 20.779625 17 19 15.220375 19 13 C 19 10.779625 20.779625 9 23 9 z" overflow="visible" font-family="Sans" fill="#000000"/></svg>
