<?xml version="1.0" encoding="utf-8"?>
<svg xmlns="http://www.w3.org/2000/svg" viewBox="0 0 32 32" fill="#000000"><path style="text-indent:0;text-align:start;line-height:normal;text-transform:none;block-progression:tb;-inkscape-font-specification:Bitstream Vera Sans" d="M 3.71875 2.28125 L 2.28125 3.71875 L 28.28125 29.71875 L 29.71875 28.28125 L 23.5 22.0625 C 23.813955 21.101054 24 20.065162 24 19 C 24 16.96 23.74275 15.312 23.21875 14 L 24 14 L 24 13 C 24 9.9001917 20.239353 8.3479599 17.0625 8.0625 C 17.192555 7.0236084 17.518209 6.2504392 17.84375 5.71875 C 18.261479 5.036494 18.59375 4.78125 18.59375 4.78125 L 17.40625 3.21875 C 17.40625 3.21875 16.738521 3.736506 16.15625 4.6875 C 15.678003 5.4685973 15.216117 6.5931879 15.0625 8.03125 C 13.59135 8.1511716 11.998374 8.5503418 10.6875 9.25 L 3.71875 2.28125 z M 16 10 C 17.989 10 20.70425 10.703 21.65625 12 L 13.4375 12 L 12.1875 10.75 C 13.360635 10.264893 14.805625 10 16 10 z M 8.09375 12.28125 C 8.04675 12.51225 8 12.749 8 13 L 8 14 L 8.78125 14 C 8.25725 15.312 8 16.96 8 19 C 8 23.005 10.40125 26.55925 13.78125 27.65625 C 14.20425 28.46825 15.056 29 16 29 C 16.944 29 17.79575 28.46825 18.21875 27.65625 C 19.43075 27.26225 20.51125 26.52575 21.40625 25.59375 L 20 24.1875 C 19.233 24.9935 18.27975 25.58575 17.21875 25.84375 L 16.625 26 L 16.5 26.59375 C 16.451 26.82075 16.232 27 16 27 C 15.768 27 15.549 26.82075 15.5 26.59375 L 15.375 26 L 14.78125 25.84375 C 12.01525 25.17075 10 22.297 10 19 C 10 17.27 10.218 15.8715 10.625 14.8125 L 8.09375 12.28125 z M 15.4375 14 L 21 14 C 21.664 15.108 22 16.787 22 19 C 22 19.485142 21.927763 19.945657 21.84375 20.40625 L 15.4375 14 z" overflow="visible" font-family="Bitstream Vera Sans" fill="#000000"/></svg>
