<?xml version="1.0" encoding="utf-8"?>
<svg xmlns="http://www.w3.org/2000/svg" viewBox="0 0 32 32" fill="#000000"><path style="text-indent:0;text-align:start;line-height:normal;text-transform:none;block-progression:tb;-inkscape-font-specification:Bitstream Vera Sans" d="M 6 3 L 6 4 L 6 10 L 8 10 L 8 5 L 24 5 L 24 10 L 26 10 L 26 4 L 26 3 L 25 3 L 7 3 L 6 3 z M 9.59375 12 C 8.2104167 12 7.09375 13.116667 7.09375 14.5 L 7.09375 17.5 C 7.09375 18.883333 8.2104167 20 9.59375 20 L 11.09375 20 L 12.09375 20 L 12.09375 19 L 12.09375 17 L 12.09375 16 L 11.09375 16 L 10.09375 16 L 10.09375 17 L 10.09375 18 L 9.59375 18 C 9.3770833 18 9.09375 17.716667 9.09375 17.5 L 9.09375 14.5 C 9.09375 14.283333 9.3770833 14 9.59375 14 C 9.8104167 14 10.09375 14.283333 10.09375 14.5 L 10.09375 15 L 12.09375 15 L 12.09375 14.5 C 12.09375 13.116667 10.977083 12 9.59375 12 z M 14 12 L 14 13 L 14 20 L 16 20 L 16 18 C 17.645455 18 19 16.645455 19 15 C 19 13.354545 17.645455 12 16 12 L 15 12 L 14 12 z M 20 12 L 22 16 L 20 20 L 22 20 L 23 18 L 24 20 L 26 20 L 24 16 L 26 12 L 24 12 L 23 14 L 22 12 L 20 12 z M 16 14 C 16.554545 14 17 14.445455 17 15 C 17 15.554545 16.554545 16 16 16 L 16 14 z M 6 22 L 6 28 L 6 29 L 7 29 L 25 29 L 26 29 L 26 28 L 26 22 L 24 22 L 24 27 L 8 27 L 8 22 L 6 22 z" overflow="visible" font-family="Bitstream Vera Sans" fill="#000000"/></svg>
