<?xml version="1.0" encoding="utf-8"?>
<svg xmlns="http://www.w3.org/2000/svg" viewBox="0 0 32 32" fill="#000000"><path style="text-indent:0;text-align:start;line-height:normal;text-transform:none;block-progression:tb;-inkscape-font-specification:Bitstream Vera Sans" d="M 6 3 L 6 4 L 6 10 L 8 10 L 8 5 L 24 5 L 24 10 L 26 10 L 26 4 L 26 3 L 25 3 L 7 3 L 6 3 z M 10.15625 12 L 9.9375 12.6875 L 8.03125 18.6875 L 8 18.84375 L 8 19 L 8 20 L 10 20 L 10 19.21875 L 10.0625 19 L 11.9375 19 L 12 19.21875 L 12 20 L 14 20 L 14 19 L 14 18.84375 L 13.96875 18.6875 L 12.0625 12.6875 L 11.84375 12 L 11.09375 12 L 10.90625 12 L 10.15625 12 z M 14 12 L 14 13 L 14 13.15625 L 14.0625 13.3125 L 16.0625 19.3125 L 17 22.15625 L 17.9375 19.3125 L 19.9375 13.3125 L 20 13.15625 L 20 13 L 20 12 L 18 12 L 18 12.875 L 17 15.875 L 16 12.875 L 16 12 L 14 12 z M 21 12 L 21 20 L 23 20 L 23 12 L 21 12 z M 11 16 L 11.3125 17 L 10.6875 17 L 11 16 z M 6 22 L 6 28 L 6 29 L 7 29 L 25 29 L 26 29 L 26 28 L 26 22 L 24 22 L 24 27 L 8 27 L 8 22 L 6 22 z" fill="#000000"/></svg>
