<?xml version="1.0" encoding="utf-8"?>
<svg xmlns="http://www.w3.org/2000/svg" viewBox="0 0 32 32" fill="#000000"><path style="line-height:normal;text-indent:0;text-align:start;text-decoration-line:none;text-decoration-style:solid;text-decoration-color:#000;text-transform:none;block-progression:tb;isolation:auto;mix-blend-mode:normal" d="M 22.632812 3 L 22.353516 3.2363281 C 22.353516 3.2363281 19.657925 5.5225655 18.066406 9.6386719 C 16.751468 13.039465 13.966797 13 13.966797 13 L 9 13 C 7.9095076 13 7.0195145 13.302788 6.3125 13.748047 C 6.1617086 13.421163 6 12.888149 6 12 C 6 11.132535 6.3140169 10.744717 6.7382812 10.4375 C 7.1625457 10.130283 7.7766195 10 8 10 C 8.2698034 10 8.8460391 10.055093 9.25 10.296875 C 9.6539609 10.538657 10 10.856267 10 12 L 12 12 C 12 10.314733 11.197883 9.1329996 10.277344 8.5820312 C 9.3568044 8.0310631 8.4321966 8 8 8 C 7.2943805 8 6.4079386 8.2056236 5.5644531 8.8164062 C 4.7209676 9.427189 4 10.539465 4 12 C 4 13.307184 4.2861745 14.236652 4.6210938 14.851562 C 4.692572 14.982797 4.7725579 15.095876 4.8515625 15.203125 C 4.7801313 15.316288 4.7082966 15.430174 4.6503906 15.542969 C 4.0197563 16.771377 4 17.972656 4 17.972656 L 4 17.986328 L 4 29 L 6 29 L 6 18.027344 C 6 18.027344 6.033572 17.228623 6.4296875 16.457031 C 6.8258032 15.68544 7.3959951 15 9 15 L 14.017578 15 L 14.033203 15 C 14.033203 15 18.246532 14.724535 19.933594 10.361328 C 20.504062 8.8859389 21.212159 7.8934394 21.863281 6.9902344 L 21.861328 7 L 23 7 C 23.338661 7 23.516983 7.1823813 23.726562 7.5234375 C 23.936142 7.8644937 24.025391 8.2226564 24.025391 8.2226562 L 24.150391 8.7714844 L 26.609375 9.5917969 L 26.294922 10.191406 C 25.943261 10.244156 25.671002 10.222576 25.03125 10.5625 C 24.066081 11.075327 23 12.238381 23 14 C 23 16.831691 20.347656 19.242188 20.347656 19.242188 L 20 19.541016 L 20 29 L 22 29 L 22 20.367188 C 22.558601 19.868656 25 17.586444 25 14 C 25 12.949619 25.433919 12.612298 25.96875 12.328125 C 26.503581 12.043952 27.0625 11.998047 27.0625 11.998047 L 27.625 11.962891 L 29 9.3398438 L 29 8.2792969 L 25.728516 7.1875 C 25.645208 6.939676 25.651106 6.836887 25.429688 6.4765625 C 25.171032 6.0556429 24.683454 5.6494252 24.09375 5.3535156 L 24.398438 3 L 22.632812 3 z M 10.576172 19.832031 L 10.167969 20.445312 C 9.3750104 21.634317 8.5 22.134766 8.5 22.134766 L 8 22.421875 L 8 29 L 10 29 L 10 23.498047 C 10.347595 23.244704 10.772609 22.786823 11.332031 22.113281 C 12.011776 22.306795 13.840448 22.717682 16 22.876953 L 16 29 L 18 29 L 18 21 L 17 21 C 14.628968 21 11.283203 20.041016 11.283203 20.041016 L 10.576172 19.832031 z" font-weight="400" font-family="sans-serif" white-space="normal" overflow="visible" fill="#000000"/></svg>
