<?xml version="1.0" encoding="utf-8"?>
<svg xmlns="http://www.w3.org/2000/svg" viewBox="0 0 32 32" fill="#000000"><path style="text-indent:0;text-align:start;line-height:normal;text-transform:none;block-progression:tb;-inkscape-font-specification:Bitstream Vera Sans" d="M 8 8 C 6.707982 8 5.6057179 8.8442552 5.1875 10 L 2 10 L 2 12 L 5.1875 12 C 5.6057178 13.155745 6.7079818 14 8 14 C 9.2920182 14 10.394282 13.155745 10.8125 12 L 13.1875 12 C 13.605718 13.155745 14.707982 14 16 14 C 17.292018 14 18.394282 13.155745 18.8125 12 L 21.1875 12 C 21.605718 13.155745 22.707982 14 24 14 C 25.292018 14 26.394282 13.155745 26.8125 12 L 30 12 L 30 10 L 26.8125 10 C 26.394282 8.8442551 25.292017 8 24 8 C 22.707983 8 21.605718 8.8442551 21.1875 10 L 18.8125 10 C 18.394282 8.8442551 17.292017 8 16 8 C 14.707983 8 13.605718 8.8442551 13.1875 10 L 10.8125 10 C 10.394282 8.8442552 9.292018 8 8 8 z M 8 10 C 8.5641294 10 9 10.435871 9 11 C 9 11.564129 8.5641291 12 8 12 C 7.4358709 12 7 11.564129 7 11 C 7 10.435871 7.4358706 10 8 10 z M 16 10 C 16.564129 10 17 10.435871 17 11 C 17 11.564128 16.564128 12 16 12 C 15.435872 12 15 11.564128 15 11 C 15 10.435871 15.435871 10 16 10 z M 24 10 C 24.564129 10 25 10.435871 25 11 C 25 11.564128 24.564128 12 24 12 C 23.435872 12 23 11.564128 23 11 C 23 10.435871 23.435871 10 24 10 z M 8 18 C 6.7079818 18 5.6057178 18.844255 5.1875 20 L 2 20 L 2 22 L 5.1875 22 C 5.6057178 23.155745 6.7079818 24 8 24 C 9.2920182 24 10.394282 23.155745 10.8125 22 L 13.1875 22 C 13.605718 23.155745 14.707982 24 16 24 C 17.292018 24 18.394282 23.155745 18.8125 22 L 21.1875 22 C 21.605718 23.155745 22.707982 24 24 24 C 25.292018 24 26.394282 23.155745 26.8125 22 L 30 22 L 30 20 L 26.8125 20 C 26.394282 18.844255 25.292018 18 24 18 C 22.707982 18 21.605718 18.844255 21.1875 20 L 18.8125 20 C 18.394282 18.844255 17.292018 18 16 18 C 14.707982 18 13.605718 18.844255 13.1875 20 L 10.8125 20 C 10.394282 18.844255 9.2920182 18 8 18 z M 8 20 C 8.5641291 20 9 20.435871 9 21 C 9 21.564129 8.5641291 22 8 22 C 7.4358709 22 7 21.564129 7 21 C 7 20.435871 7.4358709 20 8 20 z M 16 20 C 16.564128 20 17 20.435872 17 21 C 17 21.564128 16.564128 22 16 22 C 15.435872 22 15 21.564128 15 21 C 15 20.435872 15.435872 20 16 20 z M 24 20 C 24.564128 20 25 20.435872 25 21 C 25 21.564128 24.564128 22 24 22 C 23.435872 22 23 21.564128 23 21 C 23 20.435872 23.435872 20 24 20 z" fill="#000000"/></svg>
