<?xml version="1.0" encoding="utf-8"?>
<svg xmlns="http://www.w3.org/2000/svg" viewBox="0 0 32 32" fill="#000000"><path d="M 11 6 C 5.486 6 1 10.486 1 16 C 1 21.514 5.486 26 11 26 C 11.979 26 12.9175 25.85675 13.8125 25.59375 C 13.1575 25.10075 12.57225 24.5505 12.03125 23.9375 C 11.69625 23.9805 11.346 24 11 24 C 6.589 24 3 20.411 3 16 C 3 11.589 6.589 8 11 8 C 15.411 8 19 11.589 19 16 C 19 17.789 18.40225 19.44725 17.40625 20.78125 C 17.94425 21.18825 18.56275 21.4795 19.21875 21.6875 C 20.34775 20.0685 21 18.119 21 16 C 21 10.486 16.514 6 11 6 z M 21 6 C 20.024 6 19.0805 6.14425 18.1875 6.40625 C 18.8415 6.89825 19.42775 7.4495 19.96875 8.0625 C 20.30275 8.0195 20.655 8 21 8 C 25.411 8 29 11.589 29 16 C 29 20.411 25.411 24 21 24 C 16.589 24 13 20.411 13 16 C 13 14.205 13.59175 12.55475 14.59375 11.21875 C 14.05675 10.81275 13.4685 10.48925 12.8125 10.28125 C 11.6775 11.90225 11 13.875 11 16 C 11 21.514 15.486 26 21 26 C 26.514 26 31 21.514 31 16 C 31 10.486 26.514 6 21 6 z" fill="#000000"/></svg>
