<?xml version="1.0" encoding="utf-8"?>
<svg xmlns="http://www.w3.org/2000/svg" viewBox="0 0 32 32" fill="#000000"><path d="M 4 5 L 4 6 L 4 22 L 4 23 L 5 23 L 19.65625 23 L 26.40625 27.8125 L 28 28.9375 L 28 27 L 28 6 L 28 5 L 27 5 L 5 5 L 4 5 z M 6 7 L 26 7 L 26 25.0625 L 20.59375 21.1875 L 20.3125 21 L 20 21 L 6 21 L 6 7 z M 16 10 C 14.896 10 14 10.896 14 12 C 14 13.104 14.896 14 16 14 C 17.104 14 18 13.104 18 12 C 18 10.896 17.104 10 16 10 z M 10.5 12 C 9.672 12 9 12.672 9 13.5 C 9 14.328 9.672 15 10.5 15 C 11.328 15 12 14.328 12 13.5 C 12 12.672 11.328 12 10.5 12 z M 21.5 12 C 20.672 12 20 12.672 20 13.5 C 20 14.328 20.672 15 21.5 15 C 22.328 15 23 14.328 23 13.5 C 23 12.672 22.328 12 21.5 12 z M 16 15 C 13.125 15 12 16.7345 12 17.3125 L 12 18 L 20 18 L 20 17.3125 C 20 16.7185 18.875 15 16 15 z M 10.5 16.125 C 8.703 16.125 8 17.1915 8 17.5625 L 8 18 L 11 18 L 11 17.3125 C 11 17.0125 11.11475 16.61075 11.34375 16.21875 C 11.09075 16.16075 10.821 16.125 10.5 16.125 z M 21.5 16.125 C 21.178 16.125 20.90925 16.16075 20.65625 16.21875 C 20.88525 16.61075 21 17.0125 21 17.3125 L 21 18 L 24 18 L 24 17.5625 C 24 17.1905 23.297 16.125 21.5 16.125 z" fill="#000000"/></svg>
