<?xml version="1.0" encoding="utf-8"?>
<svg xmlns="http://www.w3.org/2000/svg" viewBox="0 0 32 32" fill="#000000"><path style="text-indent:0;text-align:start;line-height:normal;text-transform:none;block-progression:tb;-inkscape-font-specification:Bitstream Vera Sans" d="M 16 6 C 12.892 6 9.8155 7.0195 9.6875 7.0625 L 9 7.28125 L 9 9.9375 L 11 9.46875 L 11 8.75 C 12.02 8.471 14.03 8 16 8 C 17.963 8 19.977 8.471 21 8.75 L 21 9.46875 L 23 9.9375 L 23 7.28125 L 22.3125 7.0625 C 22.1835 7.0195 19.107 6 16 6 z M 16 10 C 11.855678 10 8.3811824 11.00207 6.15625 11.875 C 4.2455013 12.624803 3 14.482546 3 16.53125 L 3 25 L 3 26 L 4 26 L 28 26 L 29 26 L 29 25 L 29 16.53125 C 29 14.4833 27.75485 12.624941 25.84375 11.875 C 23.618818 11.00207 20.144322 10 16 10 z M 16 12 C 19.815678 12 23.036682 12.94293 25.09375 13.75 C 25.727368 13.99864 26.228146 14.442807 26.5625 15 L 22 15 L 21 15 L 21 16 L 21 19 C 21 21.197334 22.802666 23 25 23 L 27 23 L 27 24 L 5 24 L 5 23 L 7 23 C 9.1973339 23 11 21.197334 11 19 L 11 16 L 11 15 L 10 15 L 5.4375 15 C 5.7717974 14.442959 6.2724382 13.998716 6.90625 13.75 C 8.9633176 12.94293 12.184322 12 16 12 z M 13 15 L 13 16 L 13 19 L 13 20 L 14 20 L 18 20 L 19 20 L 19 19 L 19 16 L 19 15 L 18 15 L 14 15 L 13 15 z M 5 17 L 9 17 L 9 19 C 9 20.116666 8.1166661 21 7 21 L 5 21 L 5 17 z M 15 17 L 17 17 L 17 18 L 15 18 L 15 17 z M 23 17 L 27 17 L 27 21 L 25 21 C 23.883334 21 23 20.116666 23 19 L 23 17 z M 13 21 L 13 23 L 15 23 L 15 21 L 13 21 z M 17 21 L 17 23 L 19 23 L 19 21 L 17 21 z" overflow="visible" font-family="Bitstream Vera Sans" fill="#000000"/></svg>
