<?xml version="1.0" encoding="utf-8"?>
<svg xmlns="http://www.w3.org/2000/svg" viewBox="0 0 32 32" fill="#000000"><path style="text-indent:0;text-align:start;line-height:normal;text-transform:none;block-progression:tb;-inkscape-font-specification:Sans" d="M 16 4 C 11.593567 4 8 7.5935666 8 12 C 8 16.406433 11.593567 20 16 20 C 20.406433 20 24 16.406433 24 12 C 24 7.5935666 20.406433 4 16 4 z M 16 6 C 19.325553 6 22 8.674447 22 12 C 22 15.325553 19.325553 18 16 18 C 12.674447 18 10 15.325553 10 12 C 10 8.674447 12.674447 6 16 6 z M 5 12 C 5 17.726421 9.402981 22.430389 15 22.9375 L 15 26 L 12 26 L 12 28 L 20 28 L 20 26 L 17 26 L 17 22.9375 C 22.597019 22.430389 27 17.726421 27 12 L 25 12 C 25 16.982593 20.982593 21 16 21 C 11.017407 21 7 16.982593 7 12 L 5 12 z" overflow="visible" font-family="Sans" fill="#000000"/></svg>
