<?xml version="1.0" encoding="utf-8"?>
<svg xmlns="http://www.w3.org/2000/svg" viewBox="0 0 32 32" fill="#000000"><path style="text-indent:0;text-align:start;line-height:normal;text-transform:none;block-progression:tb;-inkscape-font-specification:Bitstream Vera Sans" d="M 20.5 11.0625 C 18.607492 11.0598 17.066373 11.563261 15.6875 12.0625 C 12.929753 13.060977 10.775051 14.00775 5.46875 11.125 L 4.53125 12.875 C 10.248949 15.98125 13.615747 14.936523 16.375 13.9375 C 19.134253 12.938477 21.283349 11.987884 26.53125 14.875 L 27.46875 13.125 C 24.638701 11.568058 22.392508 11.065226 20.5 11.0625 z M 20.5 17.0625 C 18.607492 17.0598 17.066373 17.563261 15.6875 18.0625 C 12.929753 19.060977 10.775051 20.00775 5.46875 17.125 L 4.53125 18.875 C 10.248949 21.98125 13.615747 20.936523 16.375 19.9375 C 19.134253 18.938477 21.283349 17.987884 26.53125 20.875 L 27.46875 19.125 C 24.638701 17.568058 22.392508 17.065226 20.5 17.0625 z" overflow="visible" font-family="Bitstream Vera Sans" fill="#000000"/></svg>
