<?xml version="1.0" encoding="utf-8"?>
<svg xmlns="http://www.w3.org/2000/svg" viewBox="0 0 32 32" fill="#000000"><path style="text-indent:0;text-align:start;line-height:normal;text-transform:none;block-progression:tb;-inkscape-font-specification:Sans" d="M 18.46875 2.90625 L 17.8125 3 C 13.446785 3.6481062 9.96875 7.4451485 9.96875 12 C 9.96875 16.978183 13.990567 21 18.96875 21 C 21.825662 21 24.154882 19.733897 25.78125 17.65625 L 26.25 17.0625 L 25.8125 16.46875 L 25.78125 16.4375 L 25.3125 15.75 L 24.5625 16.09375 C 23.70508 16.485945 23.210653 16.59375 22.1875 16.59375 C 18.578871 16.59375 15.6875 13.671129 15.6875 10.0625 C 15.6875 7.946053 16.928646 6.0548956 18.59375 4.84375 L 19.34375 4.28125 L 18.84375 3.5 L 18.8125 3.46875 L 18.46875 2.90625 z M 24 4.875 L 23.125 6.6875 L 22.4375 8.0625 L 20.875 8.3125 L 18.875 8.59375 L 20.3125 10.03125 L 21.4375 11.125 L 21.1875 12.65625 L 20.84375 14.65625 L 22.625 13.71875 L 24 13 L 25.40625 13.71875 L 27.1875 14.65625 L 26.84375 12.65625 L 26.59375 11.125 L 27.71875 10.03125 L 29.15625 8.59375 L 27.15625 8.3125 L 25.59375 8.0625 L 24.90625 6.6875 L 24 4.875 z M 14.46875 6.84375 C 14.011069 7.8358767 13.6875 8.8953858 13.6875 10.0625 C 13.6875 14.5076 17.148097 18.067603 21.5 18.4375 C 20.743523 18.748492 19.938536 19 18.96875 19 C 15.056933 19 11.96875 15.911817 11.96875 12 C 11.96875 9.9298643 12.997737 8.1473436 14.46875 6.84375 z M 24 9.375 L 24.03125 9.4375 L 24.28125 9.90625 L 24.78125 10 L 24.875 10 L 24.8125 10.0625 L 24.4375 10.40625 L 24.53125 10.9375 L 24.53125 11 L 24.46875 10.96875 L 24 10.71875 L 23.5625 10.96875 L 23.5 11 L 23.5 10.9375 L 23.59375 10.40625 L 23.21875 10.0625 L 23.15625 10 L 23.21875 10 L 23.75 9.90625 L 23.96875 9.4375 L 24 9.375 z M 10.40625 20.0625 C 9.3781725 20.0649 8.59375 20.3125 8.59375 20.3125 L 8.5625 20.3125 L 8.53125 20.34375 L 3.8125 22.15625 L 2.875 22.5 L 3.21875 23.40625 L 4.53125 27.09375 L 4.875 28.0625 L 5.84375 27.71875 L 9.8125 26.1875 L 16.53125 29.875 L 16.9375 30.09375 L 17.375 29.9375 L 29.25 25 L 28.5 23.15625 L 17.03125 27.875 L 10.375 24.21875 L 9.96875 23.96875 L 9.53125 24.15625 L 6.0625 25.46875 L 5.4375 23.6875 L 9.21875 22.21875 C 9.21875 22.21875 9.7023275 22.064126 10.40625 22.0625 C 11.108985 22.0609 11.923648 22.210951 12.625 22.84375 C 13.654396 23.736366 14.448413 24.378749 15.53125 24.71875 C 16.614087 25.058751 17.823733 25.101828 19.875 25.09375 L 19.875 23.09375 C 17.863267 23.10165 16.812913 23.0285 16.125 22.8125 C 15.443861 22.598628 14.951493 22.194971 13.96875 21.34375 C 13.96125 21.33695 13.94501 21.35045 13.9375 21.34375 C 12.781563 20.313401 11.426884 20.06014 10.40625 20.0625 z" overflow="visible" font-family="Sans" fill="#000000"/></svg>
