<?xml version="1.0" encoding="utf-8"?>
<svg xmlns="http://www.w3.org/2000/svg" viewBox="0 0 32 32" fill="#000000"><path style="text-indent:0;text-align:start;line-height:normal;text-transform:none;block-progression:tb;-inkscape-font-specification:Bitstream Vera Sans" d="M 11.5 4 C 10.130937 4 9 5.1309372 9 6.5 L 9 7.9375 C 8.1978525 8.2383053 7.50889 8.6148621 6.96875 9.09375 C 6.4961275 9.5127769 6.1206734 10.068383 6.03125 10.71875 A 1.0001 1.0001 0 0 0 6 11 C 6 13.42509 6.5966796 15.075714 6.875 15.78125 C 6.6615771 16.017268 6.5139288 16.150982 6.15625 16.6875 C 5.5993577 17.522838 5 18.666667 5 20 L 5 23 C 5 25.749516 7.2504839 28 10 28 L 20 28 C 22.749516 28 25 25.749516 25 23 L 25 20 C 25 18.695763 24.421253 17.580224 23.875 16.75 C 24.982297 16.485903 25.895932 15.988758 26.5625 15.25 C 27.579491 14.122868 28 12.597092 28 11 L 26 11 C 26 12.259908 25.688009 13.247632 25.09375 13.90625 C 24.73074 14.308574 24.21362 14.593957 23.53125 14.78125 C 23.780331 13.86632 24 12.604137 24 11 C 24 10.968122 24.00143 10.937712 24 10.90625 A 1.0001 1.0001 0 0 0 23.96875 10.71875 C 23.879327 10.068383 23.503873 9.5127769 23.03125 9.09375 C 22.49111 8.6148621 21.802147 8.2383053 21 7.9375 L 21 6.5 C 21 5.1309372 19.869063 4 18.5 4 C 17.130937 4 16 5.1309372 16 6.5 L 16 7.03125 C 15.668495 7.0167402 15.342219 7 15 7 C 14.657781 7 14.331505 7.0167402 14 7.03125 L 14 6.5 C 14 5.1309372 12.869063 4 11.5 4 z M 11.5 6 C 11.786937 6 12 6.2130628 12 6.5 L 12 7.21875 C 11.655576 7.2681919 11.323838 7.3399865 11 7.40625 L 11 6.5 C 11 6.2130628 11.213063 6 11.5 6 z M 18.5 6 C 18.786937 6 19 6.2130628 19 6.5 L 19 7.40625 C 18.676162 7.3399865 18.344424 7.2681919 18 7.21875 L 18 6.5 C 18 6.2130628 18.213063 6 18.5 6 z M 15 9 C 17.107806 9 19.021364 9.3283242 20.3125 9.8125 C 20.958068 10.054588 21.449246 10.354808 21.71875 10.59375 C 21.988254 10.832692 22 10.94608 22 11 C 22 11.05392 21.98825 11.167308 21.71875 11.40625 C 21.449246 11.645192 20.958068 11.945412 20.3125 12.1875 C 19.021364 12.671676 17.107806 13 15 13 C 12.892194 13 10.978636 12.671676 9.6875 12.1875 C 9.0419322 11.945412 8.5507541 11.645192 8.28125 11.40625 C 8.0117459 11.167308 8 11.05392 8 11 C 8 10.94608 8.0117459 10.832692 8.28125 10.59375 C 8.5507541 10.354808 9.0419322 10.054588 9.6875 9.8125 C 10.978636 9.3283242 12.892194 9 15 9 z M 21.6875 13.75 C 21.629475 14.008703 21.591547 14.235053 21.53125 14.4375 C 21.306718 15.191366 21.125 15.5 21.125 15.5 C 21.041265 15.602795 20.688248 15.887802 20.0625 16.125 C 19.40209 16.375337 18.480795 16.582377 17.5 16.6875 C 15.538411 16.897745 13.235554 16.71073 11.53125 15.96875 L 10.71875 17.78125 C 12.889446 18.726273 15.474839 18.928005 17.71875 18.6875 C 18.840705 18.567248 19.878097 18.330507 20.75 18 C 21.160876 17.844252 21.476415 17.594978 21.78125 17.34375 C 21.902619 17.497405 22.020756 17.609259 22.15625 17.8125 C 22.599358 18.477162 23 19.333333 23 20 L 23 23 C 23 24.668484 21.668484 26 20 26 L 10 26 C 8.3315161 26 7 24.668484 7 23 L 7 20 C 7 19.333333 7.4006423 18.477162 7.84375 17.8125 C 8.2868577 17.147838 8.71875 16.71875 8.71875 16.71875 L 9.1875 16.21875 L 8.90625 15.59375 C 8.90625 15.59375 8.5998106 14.85593 8.34375 13.78125 C 8.5564318 13.881853 8.7674186 13.975282 9 14.0625 C 10.604295 14.664111 12.689528 15 15 15 C 17.310472 15 19.395705 14.664111 21 14.0625 C 21.246019 13.970243 21.463802 13.857275 21.6875 13.75 z" overflow="visible" font-family="Bitstream Vera Sans" fill="#000000"/></svg>
