<?xml version="1.0" encoding="utf-8"?>
<svg xmlns="http://www.w3.org/2000/svg" viewBox="0 0 32 32" fill="#000000"><path d="M 3 3 L 3 4 L 3 17 L 15 17 L 15 29 L 29 29 L 29 15 L 17 15 L 17 3 L 3 3 z M 5 5 L 15 5 L 15 15 L 5 15 L 5 5 z M 6 7 L 6 13 L 8.3496094 13 C 9.4996094 13 10.5 12.699609 10.5 11.349609 C 10.5 11.027609 10.385641 10.71475 10.181641 10.46875 C 9.9716406 10.22775 9.6737813 10.05 9.3007812 10 C 9.7607812 9.771 10 9.3646094 10 8.5996094 C 10 7.6996094 9.2662344 7 8.3652344 7 L 6 7 z M 7 8 L 8.1777344 8 C 8.7437344 8 8.9785156 8.3 8.9785156 8.75 C 8.9785156 9.3 8.6017344 9.5 8.1777344 9.5 L 7 9.5 L 7 8 z M 11.25 9 L 11.25 13 L 12.25 13 L 12.25 11.099609 C 12.25 10.249609 12.65 10 13.25 10 L 13.25 9 C 12.75 9 12.45 9.2003906 12.25 9.6503906 L 12.25 9 L 11.25 9 z M 7 10.5 L 8.3574219 10.5 C 8.9394219 10.5 9.328125 10.693437 9.328125 11.273438 C 9.328125 11.806437 8.9884219 12 8.3574219 12 L 7 12 L 7 10.5 z M 17 17 L 27 17 L 27 27 L 17 27 L 17 17 z M 18 19 L 18 25 L 20.349609 25 C 21.499609 25 22.5 24.699609 22.5 23.349609 C 22.5 23.026609 22.385641 22.71375 22.181641 22.46875 C 21.971641 22.22775 21.673781 22.05 21.300781 22 C 21.761781 21.771 22 21.364609 22 20.599609 C 22 19.699609 21.265234 19 20.365234 19 L 18 19 z M 19 20 L 20.177734 20 C 20.743734 20 20.978516 20.3 20.978516 20.75 C 20.978516 21.3 20.601734 21.5 20.177734 21.5 L 19 21.5 L 19 20 z M 24.5 21 C 23.87 21 23.284828 21.288 23.173828 22 L 23.957031 22 C 24.032031 21.828 24.193 21.75 24.5 21.75 C 24.85 21.75 25.154297 21.906391 25.154297 22.150391 L 25.154297 22.25 C 24.954297 22.35 24.005859 22.599609 24.005859 22.599609 C 23.555859 22.699609 23 23.050781 23 23.800781 C 23 24.550781 23.554297 25 24.154297 25 C 24.554297 25 24.905078 24.850781 25.205078 24.550781 C 25.205078 24.650781 25.199219 24.875 25.199219 25 L 26 25 L 26 22 C 26 21.26 25.2 21 24.5 21 z M 19 22.5 L 20.357422 22.5 C 20.939422 22.5 21.328125 22.693437 21.328125 23.273438 C 21.328125 23.805438 20.988422 24 20.357422 24 L 19 24 L 19 22.5 z M 25 23.101562 L 25 23.607422 C 25 24.057422 24.667719 24.226563 24.386719 24.226562 C 24.161719 24.226562 23.875 24.058344 23.875 23.777344 C 23.875 23.496344 24.166437 23.353813 24.398438 23.257812 C 24.398438 23.257812 24.944 23.045562 25 23.101562 z" fill="#000000"/></svg>
