<?xml version="1.0" encoding="utf-8"?>
<svg xmlns="http://www.w3.org/2000/svg" viewBox="0 0 32 32" fill="#000000"><path style="text-indent:0;text-align:start;line-height:normal;text-transform:none;block-progression:tb;-inkscape-font-specification:Bitstream Vera Sans" d="M 23.53125 4.65625 L 21.59375 5.1875 C 21.59375 5.1875 21.769517 5.7406901 22.03125 6.375 C 22.185275 6.7482807 22.352866 7.1680031 22.59375 7.5625 L 19.8125 10.34375 L 21.21875 11.75 L 24.03125 8.9375 C 24.388269 9.1154564 24.742671 9.2059734 25 9.28125 C 25.456479 9.4147842 25.72249 9.4724902 26.09375 9.84375 C 26.690766 10.440766 26.375 12.15625 26.375 12.15625 L 28.3125 12.6875 C 28.3125 12.6875 29.210984 10.148484 27.5 8.4375 C 26.82226 7.7597598 26.070021 7.4922158 25.5625 7.34375 C 25.054979 7.1952842 24.833777 7.1462768 24.625 6.9375 C 24.416078 6.7285782 24.092017 6.1196901 23.875 5.59375 C 23.657983 5.0678099 23.53125 4.65625 23.53125 4.65625 z M 19.125 11.03125 L 6.71875 23.4375 C 6.4136462 23.377203 6.1109216 23.419701 5.875 23.65625 L 4.5 25.03125 L 6.53125 27.09375 L 7.90625 25.71875 C 8.154316 25.470684 8.2346389 25.129568 8.15625 24.8125 L 20.5625 12.4375 L 19.125 11.03125 z" overflow="visible" font-family="Bitstream Vera Sans" fill="#000000"/></svg>
