<?xml version="1.0" encoding="utf-8"?>
<svg xmlns="http://www.w3.org/2000/svg" viewBox="-8 10 32 32" fill="#000000"><path d="M 15 4 L 15 18.1875 C 13.839 18.6015 13 19.698 13 21 C 13 22.654 14.346 24 16 24 C 17.654 24 19 22.654 19 21 C 19 19.698 18.161 18.6015 17 18.1875 L 17 16 L 19 16 L 19 14 L 17 14 L 17 12 L 19 12 L 19 10 L 17 10 L 17 8 L 19 8 L 19 6 L 17 6 L 17 4 L 15 4 z M 3 20 C 3 21.626 4.832 23 7 23 C 9.168 23 11 21.626 11 20 L 9 20 C 9 20.306 8.245 21 7 21 C 5.776 21 5 20.297 5 20 L 3 20 z M 16 20 C 16.551 20 17 20.448 17 21 C 17 21.552 16.551 22 16 22 C 15.449 22 15 21.552 15 21 C 15 20.448 15.449 20 16 20 z M 21 20 C 21 21.626 22.832 23 25 23 C 27.168 23 29 21.626 29 20 L 27 20 C 27 20.306 26.244 21 25 21 C 23.776 21 23 20.297 23 20 L 21 20 z M 6 25 C 6 26.626 7.832 28 10 28 C 11.187 28 12.26 27.5765 13 26.9375 C 13.74 27.5765 14.813 28 16 28 C 17.187 28 18.26 27.5765 19 26.9375 C 19.74 27.5765 20.813 28 22 28 C 24.168 28 26 26.626 26 25 L 24 25 C 24 25.306 23.244 26 22 26 C 20.776 26 20 25.297 20 25 L 18 25 C 18 25.306 17.244 26 16 26 C 14.776 26 14 25.297 14 25 L 12 25 C 12 25.306 11.245 26 10 26 C 8.776 26 8 25.297 8 25 L 6 25 z" transform="translate(-8 10)" fill="#000000"/></svg>
