<?xml version="1.0" encoding="utf-8"?>
<svg xmlns="http://www.w3.org/2000/svg" viewBox="0 0 32 32" fill="#000000"><path style="text-indent:0;text-align:start;line-height:normal;text-transform:none;block-progression:tb;-inkscape-font-specification:Bitstream Vera Sans" d="M 18.6875 5 C 17.500824 5.0033 16.236542 5.151695 14.9375 5.4375 C 12.344922 6.0078988 10.166743 6.9922912 8.59375 8.28125 C 7.0207575 9.5702088 6 11.187651 6 12.9375 C 6 13.767062 6.3825566 14.518971 6.9375 15.09375 C 7.3223557 15.649086 8.5674275 17.316232 10.75 18.625 C 11.11676 19.203224 12.147226 20.727472 14 21.875 C 14.06934 22.231101 14.241041 22.892783 14.75 23.71875 C 15.133444 24.341024 15.753761 24.991303 16.59375 25.4375 C 16.289471 25.746023 15.843128 26 15 26 L 15 28 C 16.541805 28 17.646589 27.27193 18.25 26.5625 C 18.420688 26.361822 18.544474 26.159096 18.65625 25.96875 C 18.741036 25.972795 18.819044 26 18.90625 26 C 20.069789 26 21.59375 25.71875 21.59375 25.71875 L 21.25 23.75 C 21.25 23.75 19.710711 24 18.90625 24 C 17.633853 24 17.019272 23.493075 16.59375 22.875 C 16.994679 22.950327 17.407537 23 17.84375 23 C 20.472273 23 23.0625 22.34375 23.0625 22.34375 L 22.59375 20.40625 C 22.59375 20.40625 20.125227 21 17.84375 21 C 16.740454 21 15.748063 20.545448 14.90625 19.96875 C 15.092955 19.981261 15.276685 20 15.46875 20 C 18.606098 20 21.030132 19.382557 22.65625 18.75 C 24.282368 18.117443 25.1875 17.4375 25.1875 17.4375 L 23.96875 15.84375 C 23.96875 15.84375 23.325132 16.323057 21.90625 16.875 C 20.487368 17.426943 18.343402 18 15.46875 18 C 14.133669 18 12.909341 17.550863 11.875 16.9375 C 13.498382 17.070264 15.308545 16.947482 17.125 16.53125 L 17.125 16.5625 C 19.744004 15.991158 22.010689 14.938697 23.625 13.625 C 25.239311 12.311303 26.30027 10.597411 25.9375 8.8125 C 25.576347 7.0355423 23.94453 5.934713 21.96875 5.40625 C 20.98086 5.1420185 19.874176 4.9966998 18.6875 5 z M 18.6875 7 C 19.72198 6.99758 20.652765 7.1026065 21.4375 7.3125 C 23.00697 7.732287 23.815903 8.4667077 23.96875 9.21875 C 24.11998 9.9628385 23.642689 11.005447 22.34375 12.0625 C 21.044811 13.119553 19.037496 14.081092 16.6875 14.59375 C 14.368913 15.125044 11.999782 15.110001 10.34375 14.6875 C 9.5157342 14.476249 8.8789941 14.160944 8.5 13.84375 C 8.4874228 13.833224 8.480764 13.82292 8.46875 13.8125 C 8.4492805 13.785366 8.34375 13.65625 8.34375 13.65625 L 8.3125 13.6875 C 8.0766787 13.440625 8 13.20012 8 12.9375 C 8 11.978349 8.6097425 10.880541 9.875 9.84375 C 11.140257 8.8069588 13.040578 7.8886012 15.375 7.375 C 16.539458 7.118805 17.65302 7.0024185 18.6875 7 z M 17.5625 9 C 14.703619 9.074803 12.15871 10.204201 10.59375 12.15625 L 12.15625 13.40625 C 13.651637 11.540982 16.748609 10.516793 20.09375 11.25 L 20.5 9.28125 C 19.506785 9.0635517 18.51546 8.9750656 17.5625 9 z" overflow="visible" font-family="Bitstream Vera Sans" fill="#000000"/></svg>
