<?xml version="1.0" encoding="utf-8"?>
<svg xmlns="http://www.w3.org/2000/svg" viewBox="0 0 32 32" fill="#000000"><path d="M 4 5 L 4 6.5625 C 2.8819124 7.1496609 2 8.1600353 2 9.5 C 2 10.943773 2.8953084 12.18812 4.15625 12.71875 C 4.711016 17.268517 6.5453642 22.752727 8.53125 25.53125 C 8.71425 25.77525 8.99275 26.19525 9.21875 26.53125 C 9.40175 26.80225 9.556 27.032 9.625 27.125 C 9.976 27.598 10.34875 28.04775 10.71875 28.46875 C 11.26175 27.40475 13 24.642 13 23 C 13 23 12.7995 28.87675 12.1875 29.96875 C 13.6045 31.23875 14.994 32 16 32 C 16.757 32 17.684 31.5545 18.75 30.6875 C 18.756 30.6825 18.77525 30.6925 18.78125 30.6875 C 18.19525 29.2485 18 22 18 22 C 18 24.217 19.811 27.745 20.375 29.25 C 23.078483 26.409068 27.017066 19.565249 27.84375 12.71875 C 29.104691 12.18812 30 10.943773 30 9.5 C 30 8.1600353 29.118088 7.1496609 28 6.5625 L 28 5 L 26 5 L 26 7.0625 L 26 7.875 L 26.8125 8.03125 C 27.494751 8.1699724 28 8.7646697 28 9.5 C 28 10.245304 27.480126 10.840863 26.78125 10.96875 L 26.78125 11 C 25.209293 11.122161 23.658822 12.954383 21.5 15.78125 C 20.751 16.76225 19.62925 18.22925 19.15625 18.53125 C 18.77625 18.47725 18.3585 18.1385 17.9375 17.8125 C 17.3615 17.3645 16.762 16.90625 16 16.90625 C 15.238 16.90625 14.6395 17.3645 14.0625 17.8125 C 13.6455 18.1365 13.22275 18.47325 12.84375 18.53125 C 12.42575 18.23725 11.51575 16.9875 10.84375 16.0625 C 9.0649741 13.613517 7.2372162 11.098005 5.21875 10.96875 C 4.5198744 10.840863 4 10.245304 4 9.5 C 4 8.7646697 4.5052487 8.1699724 5.1875 8.03125 L 6 7.875 L 6 7.0625 L 6 5 L 4 5 z M 11.5 6 C 10.671573 6 10 6.6715729 10 7.5 C 10 8.3284271 10.671573 9 11.5 9 C 12.328427 9 13 8.3284271 13 7.5 C 13 6.6715729 12.328427 6 11.5 6 z M 20.5 6 C 19.671573 6 19 6.6715729 19 7.5 C 19 8.3284271 19.671573 9 20.5 9 C 21.328427 9 22 8.3284271 22 7.5 C 22 6.6715729 21.328427 6 20.5 6 z M 16 13.96875 C 15.165171 13.96765 14.287855 14.05529 13.5 14.1875 C 12.712145 14.319706 12.073762 14.418514 11.5 14.75 L 12.5 16.5 C 12.53724 16.47849 13.135855 16.269794 13.8125 16.15625 C 14.489145 16.042706 15.303829 15.967841 16 15.96875 C 16.707793 15.969661 17.513149 16.04153 18.1875 16.15625 C 18.861851 16.270974 19.473434 16.468037 19.53125 16.5 L 20.46875 14.75 C 19.911566 14.441963 19.314649 14.320776 18.53125 14.1875 C 17.747851 14.054224 16.846207 13.969839 16 13.96875 z" fill="#000000"/></svg>
