<?xml version="1.0" encoding="utf-8"?>
<svg xmlns="http://www.w3.org/2000/svg" viewBox="0 0 32 32" fill="#000000"><path style="text-indent:0;text-align:start;line-height:normal;text-transform:none;block-progression:tb;-inkscape-font-specification:Sans" d="M 19 3 L 19 5.4375 C 17.991595 5.1930205 17.025888 5.0707388 16.21875 5.0625 C 14.908413 5.0491249 14 5.21875 14 5.21875 L 13.5 5.3125 L 13.28125 5.78125 L 6.0625 21.34375 L 5.875 21.78125 L 6.0625 22.1875 C 6.0625 22.1875 7.4967479 25.32552 11.125 27.03125 C 14.525731 28.590011 18.03125 27.84375 18.03125 27.84375 L 18.53125 27.75 L 18.71875 27.3125 L 25.96875 11.75 L 26.1875 11.28125 L 25.9375 10.8125 C 25.9375 10.8125 24.183708 7.6614037 21 6.125 L 21 3 L 19 3 z M 15.34375 7.09375 C 15.557988 7.0808957 15.836897 7.086955 16.25 7.09375 C 17.049991 7.1069088 18.037857 7.191708 19 7.46875 L 19 9 L 19 10.5 C 19 10.776 18.776 11 18.5 11 C 18.224 11 18 10.776 18 10.5 L 18 9.28125 C 17.405 9.62725 17 10.261 17 11 C 17 12.105 17.895 13 19 13 C 20.105 13 21 12.105 21 11 L 21 8.40625 C 22.620219 9.4733357 23.612514 10.975589 23.90625 11.4375 L 17.15625 25.9375 C 16.535439 26.0303 14.319031 26.296026 11.96875 25.21875 C 9.3550371 23.98998 8.3387026 22.161806 8.09375 21.6875 L 14.84375 7.15625 C 14.979947 7.138372 15.129512 7.1066043 15.34375 7.09375 z M 26 13.84375 L 24 18.15625 L 24 25.5 C 23.366 25.928 21.90925 26.76575 19.90625 26.96875 L 19.3125 28.1875 L 19 29 C 22.964 29 25.54925 26.841 25.65625 26.75 L 26 26.46875 L 26 13.84375 z M 16.09375 14.59375 L 12.375 22.59375 L 14.1875 23.40625 L 17.90625 15.40625 L 16.09375 14.59375 z" overflow="visible" font-family="Sans" fill="#000000"/></svg>
