<?xml version="1.0" encoding="utf-8"?>
<svg xmlns="http://www.w3.org/2000/svg" viewBox="0 0 32 32" fill="#000000"><path d="M 17 4 L 17 7.21875 C 17.714 7.37675 18.381 7.62475 19 7.96875 L 19 6 L 26 6 L 26 10 L 21.34375 10 C 21.80675 10.582 22.251 11.249 22.625 12 L 28 12 L 28 4 L 17 4 z M 14 6 C 10.389827 6 6.7443312 6.251269 4.09375 9.0625 C 1.4431688 11.873731 0 16.900589 0 26 L 0 27 L 1 27 L 8.65625 27 C 9.64512 27.624629 10.759046 28 12 28 C 13.240151 28 14.354742 27.61707 15.34375 27 L 23 27 L 24 27 L 24 26 C 24 17.892944 22.66606 13.43438 20.8125 10.90625 C 19.185427 8.6870325 17.215655 8.2303667 15.78125 8.125 L 14.875 6.5 L 14.59375 6 L 14 6 z M 21 7 C 20.447715 7 20 7.4477153 20 8 C 20 8.5522847 20.447715 9 21 9 C 21.552285 9 22 8.5522847 22 8 C 22 7.4477153 21.552285 7 21 7 z M 24 7 C 23.447715 7 23 7.4477153 23 8 C 23 8.5522847 23.447715 9 24 9 C 24.552285 9 25 8.5522847 25 8 C 25 7.4477153 24.552285 7 24 7 z M 13.4375 8.0625 L 14.25 9.5 L 14.53125 10 L 15.125 10 C 16.26658 10 17.77156 10.11988 19.21875 12.09375 C 20.596645 13.973105 21.849117 17.838709 21.96875 25 L 17.5625 25 C 17.672152 24.859679 17.772928 24.708238 17.875 24.5625 C 19.232638 22.624061 20 20.206716 20 18 L 18 18 C 18 19.722284 17.356112 21.826939 16.25 23.40625 C 15.143888 24.985561 13.664699 26 12 26 C 10.336909 26 8.8566191 24.98853 7.75 23.40625 C 6.6433809 21.82397 6 19.711045 6 18 C 6 17.556131 6.0851853 17.333221 6.21875 17.15625 C 6.3523147 16.979279 6.5843179 16.826901 6.9375 16.6875 C 7.6438643 16.408698 8.8355043 16.293318 10.09375 16.1875 C 11.351996 16.081682 12.663507 15.982025 13.84375 15.4375 C 15.023993 14.892975 16 13.660378 16 12 L 14 12 C 14 13.044122 13.726007 13.304462 13.03125 13.625 C 12.336493 13.945538 11.148004 14.083068 9.90625 14.1875 C 8.6644957 14.291932 7.3561357 14.351239 6.1875 14.8125 C 5.6031821 15.04313 5.0383103 15.38987 4.625 15.9375 C 4.2116897 16.48513 4 17.216619 4 18 C 4 20.197955 4.7678691 22.59078 6.125 24.53125 C 6.2353291 24.689002 6.3495732 24.848296 6.46875 25 L 2.03125 25 C 2.150836 16.850867 3.5822962 12.537723 5.5625 10.4375 C 7.5079454 8.3741426 10.20466 8.0959781 13.4375 8.0625 z M 9 18 C 8.4477153 18 8 18.447715 8 19 C 8 19.552285 8.4477153 20 9 20 C 9.5522847 20 10 19.552285 10 19 C 10 18.447715 9.5522847 18 9 18 z M 15 18 C 14.447715 18 14 18.447715 14 19 C 14 19.552285 14.447715 20 15 20 C 15.552285 20 16 19.552285 16 19 C 16 18.447715 15.552285 18 15 18 z" fill="#000000"/></svg>
