<?xml version="1.0" encoding="utf-8"?>
<svg xmlns="http://www.w3.org/2000/svg" viewBox="0 0 32 32" fill="#000000"><path style="text-indent:0;text-align:start;line-height:normal;text-transform:none;block-progression:tb;-inkscape-font-specification:Sans" d="M 6 3 L 6 8 L 6.09375 8 C 4.1817495 10.126486 3 12.922769 3 16 C 3 19.07723 4.1817495 21.873514 6.09375 24 L 6 24 L 6 29 L 8 29 L 8 25.71875 C 9.9718473 27.140209 12.389657 28 15 28 C 17.610342 28 20.028153 27.140209 22 25.71875 L 22 29 L 24 29 L 24 24 L 23.90625 24 C 25.392271 22.347279 26.425173 20.283273 26.8125 18 L 28 18 L 29 18 L 29 17 L 29 15 L 29 14 L 28 14 L 26.8125 14 C 26.425173 11.716727 25.392271 9.6527213 23.90625 8 L 24 8 L 24 3 L 22 3 L 22 6.28125 C 20.028153 4.8597909 17.610342 4 15 4 C 12.389657 4 9.9718473 4.8597909 8 6.28125 L 8 3 L 6 3 z M 15 6 C 20.534692 6 25 10.465308 25 16 C 25 21.534692 20.534692 26 15 26 C 9.4653079 26 5 21.534692 5 16 C 5 10.465308 9.4653079 6 15 6 z M 13.875 12 L 13.59375 12.40625 C 13.59375 12.40625 13.047628 13 12.5 13 L 12.5 15 C 13.157155 15 13.575532 14.721022 14 14.46875 L 14 20 L 16 20 L 16 13 L 16 12 L 15 12 L 14.375 12 L 13.875 12 z M 17 12 L 17 20 L 19 20 L 19 17.5 C 19 17.220455 19.220455 17 19.5 17 C 19.779545 17 20 17.220455 20 17.5 L 20 20 L 22 20 L 22 17.5 C 22 16.129545 20.870455 15 19.5 15 C 19.328693 15 19.162043 15.028937 19 15.0625 L 19 12 L 17 12 z M 8 14 L 8 15 L 7 15 L 7 17 L 8 17 L 8 18 L 10 18 L 10 17 L 11 17 L 11 15 L 10 15 L 10 14 L 8 14 z" fill="#000000"/></svg>
