<?xml version="1.0" encoding="utf-8"?>
<svg xmlns="http://www.w3.org/2000/svg" viewBox="0 0 32 32" fill="#000000"><path style="text-indent:0;text-align:start;line-height:normal;text-transform:none;block-progression:tb;-inkscape-font-specification:Sans" d="M 3.78125 5 L 3.78125 6 C 3.78125 8.447983 4.9348166 10.49941 6.65625 11.875 C 8.1161037 13.041563 9.9725473 13.746768 11.9375 13.9375 C 11.819115 18.14738 11.390475 21.536529 11.15625 23 L 13.1875 23 C 13.4855 21.099 14 17.081 14 12 L 13 12 C 11.069407 12 9.2248166 11.36616 7.90625 10.3125 C 6.9627669 9.558567 6.4060953 8.5578714 6.09375 7.40625 C 6.2379331 7.440385 6.17918 7.435957 6.34375 7.46875 C 7.6773634 7.7344894 9.7838157 8 13 8 C 14.64223 8 15.03125 9.34375 15.03125 9.34375 L 15.25 10 L 15.96875 10 L 16.03125 10 L 16.71875 10 L 16.96875 9.34375 C 16.96875 9.34375 17.35777 8 19 8 C 23.10129 8 25.336133 7.6251101 26.75 7.3125 C 26.386116 8.4654384 25.721244 9.4952077 24.59375 10.28125 C 23.043446 11.362058 20.930593 12 19 12 L 18 12 C 18 17.081 18.5145 21.099 18.8125 23 L 20.84375 23 C 20.608354 21.553746 20.179566 18.194765 20.0625 13.9375 C 22.076083 13.755931 24.107924 13.082288 25.75 11.9375 C 27.684196 10.589058 29.125 8.5171713 29.125 6 L 29.125 5 L 28.125 5 L 28.0625 5 L 27.875 5 L 27.71875 5.0625 C 27.71875 5.0625 25.222648 6 19 6 C 17.583115 6 16.59201 6.6485292 15.96875 7.3125 C 15.34564 6.6576853 14.396333 6 13 6 C 9.8891843 6 7.8943866 5.7655106 6.71875 5.53125 C 5.5431134 5.2969894 5.28125 5.125 5.28125 5.125 L 5.0625 5 L 4.8125 5 L 4.78125 5 L 3.78125 5 z M 6 25 C 6 25.05733 5.918885 25.315468 5.5625 25.5625 C 5.2061149 25.809532 4.636638 26 4 26 L 4 28 C 5.035362 28 5.9618851 27.690468 6.6875 27.1875 C 6.8001837 27.109392 6.895686 27.026988 7 26.9375 C 7.1012319 27.023981 7.2036063 27.111617 7.3125 27.1875 C 8.0363226 27.691901 8.9614482 28 10 28 C 11.035362 28 11.961885 27.690468 12.6875 27.1875 C 12.800184 27.109392 12.895686 27.026988 13 26.9375 C 13.101232 27.023981 13.203606 27.111617 13.3125 27.1875 C 14.036323 27.691901 14.961448 28 16 28 C 17.035362 28 17.961885 27.690468 18.6875 27.1875 C 18.800184 27.109392 18.895686 27.026988 19 26.9375 C 19.101232 27.023981 19.203606 27.111617 19.3125 27.1875 C 20.036323 27.691901 20.961448 28 22 28 C 23.035362 28 23.961885 27.690468 24.6875 27.1875 C 24.800184 27.109392 24.895686 27.026988 25 26.9375 C 25.101232 27.023981 25.203606 27.111617 25.3125 27.1875 C 26.036323 27.691901 26.961448 28 28 28 L 28 26 C 27.366552 26 26.795677 25.812099 26.4375 25.5625 C 26.079323 25.312901 26 25.042136 26 25 L 24 25 C 24 25.05733 23.91888 25.315468 23.5625 25.5625 C 23.206115 25.809532 22.636638 26 22 26 C 21.366552 26 20.795677 25.812099 20.4375 25.5625 C 20.079323 25.312901 20 25.042136 20 25 L 18 25 C 18 25.05733 17.91888 25.315468 17.5625 25.5625 C 17.206115 25.809532 16.636638 26 16 26 C 15.366552 26 14.795677 25.812099 14.4375 25.5625 C 14.079323 25.312901 14 25.042136 14 25 L 12 25 C 12 25.05733 11.91888 25.315468 11.5625 25.5625 C 11.206115 25.809532 10.636638 26 10 26 C 9.3665518 26 8.7956774 25.812099 8.4375 25.5625 C 8.0793226 25.312901 8 25.042136 8 25 L 6 25 z" overflow="visible" font-family="Sans" fill="#000000"/></svg>
