<?xml version="1.0" encoding="utf-8"?>
<svg xmlns="http://www.w3.org/2000/svg" viewBox="0 0 32 32" fill="#000000"><path style="text-indent:0;text-align:start;line-height:normal;text-transform:none;block-progression:tb;-inkscape-font-specification:Sans" d="M 8 2 L 8 3 L 8 12 C 8 16.054739 11.073968 19.437596 15 19.9375 L 15 28 L 11 28 L 11 30 L 21 30 L 21 28 L 17 28 L 17 19.9375 C 20.926032 19.437596 24 16.054739 24 12 L 24 3 L 24 2 L 23 2 L 9 2 L 8 2 z M 10 4 L 15.375 4 L 13.09375 8.5625 L 12.375 10 L 14 10 L 16.25 10 L 14.15625 13.5 L 15.84375 14.5 L 18.84375 9.5 L 19.78125 8 L 18 8 L 15.625 8 L 17.625 4 L 22 4 L 22 12 C 22 15.304545 19.304545 18 16 18 C 12.695455 18 10 15.304545 10 12 L 10 4 z" overflow="visible" font-family="Sans" fill="#000000"/></svg>
