<?xml version="1.0" encoding="utf-8"?>
<svg xmlns="http://www.w3.org/2000/svg" viewBox="0 0 32 32" fill="#000000"><path style="text-indent:0;text-align:start;line-height:normal;text-transform:none;block-progression:tb;-inkscape-font-specification:Bitstream Vera Sans" d="M 8.125 4 L 8 4.875 L 5.125 26 L 4 26 L 4 28 L 8 28 L 8 26 L 7.15625 26 L 9.875 6 L 15 6 L 15 14 L 17 14 L 17 6 L 22.125 6 L 24.84375 26 L 24 26 L 24 28 L 28 28 L 28 26 L 26.875 26 L 24 4.875 L 23.875 4 L 23 4 L 9 4 L 8.125 4 z M 15 15 L 15 17 L 15 18 L 16 18 C 16.554545 18 17 18.445455 17 19 C 17 19.554545 16.554545 20 16 20 C 15.445455 20 15 19.554545 15 19 L 13 19 C 13 20.645455 14.354545 22 16 22 C 17.645455 22 19 20.645455 19 19 C 19 17.74096 18.109611 16.84816 17 16.40625 L 17 15 L 15 15 z" overflow="visible" font-family="Bitstream Vera Sans" fill="#000000"/></svg>
