<?xml version="1.0" encoding="utf-8"?>
<svg xmlns="http://www.w3.org/2000/svg" viewBox="0 0 32 32" fill="#000000"><path style="text-indent:0;text-align:start;line-height:normal;text-transform:none;block-progression:tb;-inkscape-font-specification:Sans" d="M 1 5 L 1 6 L 1 26 L 1 27 L 2 27 L 30 27 L 31 27 L 31 26 L 31 6 L 31 5 L 30 5 L 2 5 L 1 5 z M 3 7 L 29 7 L 29 25 L 3 25 L 3 7 z M 10 10 L 6 12.28125 L 6 14.59375 L 10 12.3125 L 14 14.59375 L 14 12.28125 L 10 10 z M 17 11 L 17 13 L 26 13 L 26 11 L 17 11 z M 17 14 L 17 16 L 24 16 L 24 14 L 17 14 z M 7.59375 15 L 6 18.375 L 6 21.46875 C 6 21.76675 6.23125 22 6.53125 22 L 7.46875 22 C 7.76775 22 8 21.76775 8 21.46875 L 8 21 L 12 21 L 12 21.46875 C 12 21.76775 12.23125 22 12.53125 22 L 13.46875 22 C 13.76775 22 14 21.76775 14 21.46875 L 14 18.375 L 12.40625 15 L 7.59375 15 z M 17 17 L 17 19 L 26 19 L 26 17 L 17 17 z M 7.5 18.75 C 7.914 18.75 8.25 19.086 8.25 19.5 C 8.25 19.914 7.914 20.25 7.5 20.25 C 7.086 20.25 6.75 19.914 6.75 19.5 C 6.75 19.086 7.086 18.75 7.5 18.75 z M 12.5 18.75 C 12.912 18.75 13.25 19.087 13.25 19.5 C 13.25 19.912 12.912 20.25 12.5 20.25 C 12.088 20.25 11.75 19.912 11.75 19.5 C 11.75 19.087 12.088 18.75 12.5 18.75 z M 17 20 L 17 22 L 24 22 L 24 20 L 17 20 z" fill="#000000"/></svg>
