<?xml version="1.0" encoding="utf-8"?>
<svg xmlns="http://www.w3.org/2000/svg" viewBox="0 0 32 32" fill="#000000"><path style="text-indent:0;text-align:start;line-height:normal;text-transform:none;block-progression:tb;-inkscape-font-specification:Sans" d="M 4 5 L 4 6 L 4 26 L 4 27 L 5 27 L 27 27 L 28 27 L 28 26 L 28 6 L 28 5 L 27 5 L 5 5 L 4 5 z M 6 7 L 26 7 L 26 25 L 6 25 L 6 7 z M 8 10 L 8 12 L 10 12 L 10 10 L 8 10 z M 11 10 L 11 12 L 15 12 L 15 10 L 11 10 z M 17 10 L 17 12 L 19 12 L 19 10 L 17 10 z M 20 10 L 20 12 L 24 12 L 24 10 L 20 10 z M 8 15 L 8 17 L 10 17 L 10 15 L 8 15 z M 11 15 L 11 17 L 15 17 L 15 15 L 11 15 z M 17 15 L 17 17 L 19 17 L 19 15 L 17 15 z M 20 15 L 20 17 L 24 17 L 24 15 L 20 15 z M 8 20 L 8 22 L 10 22 L 10 20 L 8 20 z M 11 20 L 11 22 L 15 22 L 15 20 L 11 20 z M 17 20 L 17 22 L 19 22 L 19 20 L 17 20 z M 20 20 L 20 22 L 24 22 L 24 20 L 20 20 z" fill="#000000"/></svg>
