<?xml version="1.0" encoding="utf-8"?>
<svg xmlns="http://www.w3.org/2000/svg" viewBox="0 0 32 32" fill="#000000"><path d="M 1.9375 8.625 C 1.9375 8.625 2.014 8.65975 2 8.71875 C 1.989 8.76975 1.711 9.9395 1.625 10.3125 C 1.608 10.3825 1.53125 10.4375 1.53125 10.4375 L 4.75 10.4375 L 5.5 10.4375 C 7.528 10.4375 8.7805 11.271 8.4375 12.75 C 8.0625 14.362 6.262 15.0625 4.375 15.0625 L 3.5625 15.0625 C 3.5625 15.0625 3.70075 15.0085 3.71875 14.9375 C 3.86375 14.3085 4.51425 11.5035 4.53125 11.4375 C 4.55225 11.3645 4.65625 11.3125 4.65625 11.3125 L 1.3125 11.3125 C 1.3125 11.3125 1.387 11.3695 1.375 11.4375 C 1.365 11.4875 0.308 15.99225 0.125 16.78125 C 0.107 16.85425 0 16.875 0 16.875 L 4.59375 16.875 C 7.96075 16.875 11.15475 15.067 11.71875 12.75 C 11.82175 12.324 11.87875 11.408 11.46875 10.625 C 11.46275 10.6 11.4595 10.58425 11.4375 10.53125 C 11.4275 10.51125 11.452 10.43625 11.5 10.40625 C 11.566 10.36725 11.619 10.45075 11.625 10.46875 C 11.651 10.53975 11.6875 10.59375 11.6875 10.59375 L 14.375 18.5 C 6.3141755 18.627275 0 19.665207 0 20.9375 C 0 22.2975 7.163 23.375 16 23.375 C 24.838 23.375 32 22.2965 32 20.9375 C 31.999 19.5795 24.837 18.46875 16 18.46875 C 15.560336 18.46875 15.14945 18.463394 14.71875 18.46875 L 21.78125 10.4375 L 24.96875 10.4375 L 25.71875 10.4375 C 27.75075 10.4375 28.99925 11.271 28.65625 12.75 C 28.28125 14.362 26.47775 15.0625 24.59375 15.0625 L 23.8125 15.0625 C 23.8125 15.0625 23.88925 15.0105 23.90625 14.9375 C 24.05225 14.3065 24.734 11.5055 24.75 11.4375 C 24.776 11.3235 24.84375 11.3125 24.84375 11.3125 L 21.53125 11.3125 C 21.53125 11.3125 21.60775 11.3565 21.59375 11.4375 C 21.58275 11.5115 20.52675 15.99325 20.34375 16.78125 C 20.32575 16.85425 20.21875 16.875 20.21875 16.875 L 24.78125 16.875 C 28.14825 16.875 31.3975 15.075 31.9375 12.75 C 32.4795 10.426 30.10175 8.625 26.71875 8.625 L 19.8125 8.625 L 15.75 14.03125 L 14.03125 8.625 L 1.9375 8.625 z M 16 19.90625 C 18.085 19.90625 19.78125 20.3125 19.78125 20.8125 C 19.78125 21.3125 18.084 21.71875 16 21.71875 C 13.915 21.71875 12.21875 21.3125 12.21875 20.8125 C 12.21875 20.3125 13.915 19.90625 16 19.90625 z" fill="#000000"/></svg>
