<?xml version="1.0" encoding="utf-8"?>
<svg xmlns="http://www.w3.org/2000/svg" viewBox="0 0 32 32" fill="#000000"><path style="text-indent:0;text-align:start;line-height:normal;text-transform:none;block-progression:tb;-inkscape-font-specification:Bitstream Vera Sans" d="M 16.03125 2.59375 L 15.3125 3.28125 C 15.3125 3.28125 13.525365 4.9509957 11.71875 7.3125 C 9.9121347 9.6740043 8 12.722248 8 15.8125 C 8 17.98443 8.905046 19.842106 10.375 21.09375 C 11.844954 22.345394 13.844872 23 16 23 C 18.146581 23 20.11892 22.366193 21.59375 21.125 C 23.06858 19.883807 24 18.027457 24 15.8125 C 24 13.005254 22.108224 10.030803 20.3125 7.59375 C 18.516776 5.1566966 16.71875 3.3125 16.71875 3.3125 L 16.03125 2.59375 z M 15.96875 5.53125 C 16.467215 6.0630092 17.331508 6.9409753 18.6875 8.78125 C 20.391776 11.094197 22 14.019746 22 15.8125 C 22 17.497543 21.36267 18.709943 20.3125 19.59375 C 20.198797 19.689441 20.092937 19.787986 19.96875 19.875 C 20.046378 19.561693 20.09375 19.242435 20.09375 18.90625 C 20.09375 13.943931 17.34375 10.90625 17.34375 10.90625 L 15.53125 8.96875 L 15.59375 11.625 C 15.59375 11.625 15.61336 12.601674 15.5 13.53125 C 15.45095 13.933439 15.364392 14.283383 15.28125 14.53125 C 15.18794 14.47588 15.154564 14.472 15.03125 14.34375 C 14.801859 14.105183 14.65625 13.875 14.65625 13.875 L 13.6875 12.3125 L 12.90625 13.96875 C 12.90625 13.96875 11.90625 16.075481 11.90625 18.90625 C 11.90625 19.22158 11.962692 19.517035 12.03125 19.8125 C 11.912346 19.727323 11.796829 19.655592 11.6875 19.5625 C 10.632454 18.664144 10 17.44057 10 15.8125 C 10 13.602752 11.587865 10.744746 13.28125 8.53125 C 14.615332 6.787414 15.462825 6.0242769 15.96875 5.53125 z M 17.25 14.75 C 17.691962 15.826734 18.09375 17.17217 18.09375 18.90625 C 18.09375 19.913358 17.357769 20.772562 16.40625 20.96875 C 16.270403 20.975239 16.139028 21 16 21 C 15.864792 21 15.726063 20.975141 15.59375 20.96875 C 14.642231 20.772562 13.90625 19.913358 13.90625 18.90625 C 13.90625 17.861079 14.075174 17.009288 14.25 16.3125 C 14.580073 16.533755 14.980814 16.6875 15.5 16.6875 C 15.934722 16.6875 16.343669 16.468831 16.59375 16.21875 C 16.843831 15.968669 16.982177 15.706588 17.09375 15.4375 C 17.18599 15.215037 17.19352 14.98099 17.25 14.75 z M 7 24 L 7 27 L 7 28 L 8 28 L 24 28 L 25 28 L 25 27 L 25 24 L 23 24 L 23 26 L 21 26 L 21 24 L 19 24 L 19 26 L 17 26 L 17 24 L 15 24 L 15 26 L 13 26 L 13 24 L 11 24 L 11 26 L 9 26 L 9 24 L 7 24 z" overflow="visible" font-family="Bitstream Vera Sans" fill="#000000"/></svg>
