<?xml version="1.0" encoding="utf-8"?>
<svg xmlns="http://www.w3.org/2000/svg" viewBox="0 0 32 32" fill="#000000"><path style="text-indent:0;text-align:start;line-height:normal;text-transform:none;block-progression:tb;-inkscape-font-specification:Bitstream Vera Sans" d="M 16.5 5 C 15.671573 5 15 5.6715729 15 6.5 C 15 7.3284271 15.671573 8 16.5 8 C 17.328427 8 18 7.3284271 18 6.5 C 18 5.6715729 17.328427 5 16.5 5 z M 25 6 C 22.89091 6 21.266325 6.9781145 20.3125 8.34375 C 19.753677 9.1438422 19.416558 10.061392 19.21875 11 L 18.59375 11 C 18.465089 10.735179 18.419976 10.591672 18.1875 10.1875 C 17.985409 9.8361541 17.760735 9.5062922 17.5 9.1875 C 17.369632 9.0281039 17.25029 8.8628413 17.0625 8.71875 C 16.87471 8.5746587 16.609745 8.40625 16.1875 8.40625 C 15.782222 8.40625 15.351553 8.5767382 15.0625 8.84375 C 14.773447 9.1107618 14.620186 9.4211879 14.53125 9.71875 C 14.370364 10.254707 14.076542 11.476821 13.90625 12.15625 C 13.384188 12.069389 12.826233 12 12.21875 12 C 11.184771 12 10.240686 12.370465 9.5 12.96875 C 9.3582182 12.980112 9.1501883 13 8.78125 13 C 7.1008869 13 5.9709746 14.122437 5.5 15.21875 C 5.0290254 16.315063 5 17.415691 5 18 L 7 18 C 7 17.537309 7.067975 16.641937 7.34375 16 C 7.5354475 15.553776 7.726762 15.240723 8.125 15.09375 C 8.0493418 15.39739 8 15.702048 8 16.03125 C 8 17.145873 8.3734788 17.978081 8.6875 18.5 C 9.0015212 19.021919 9.09375 19.196929 9.09375 19.15625 C 9.09375 19.08594 8.993913 19.359587 8.625 19.78125 C 8.2560873 20.202913 7.7079303 20.73032 7.1875 21.4375 L 7 21.71875 L 7 22.03125 L 7 27 L 9 27 L 9 22.40625 C 9.3673847 21.945128 9.7779669 21.526124 10.15625 21.09375 C 10.596837 20.590163 11.09375 20.036559 11.09375 19.15625 C 11.09375 18.305571 10.633729 17.846831 10.40625 17.46875 C 10.178771 17.090669 10 16.752627 10 16.03125 C 10 14.815987 10.86048 14 12.21875 14 C 13.600634 14 14.880617 14.429029 15.09375 14.5 L 16 15.03125 L 16 18 L 18 18 L 18 14.46875 L 18 13.90625 L 17.53125 13.59375 L 15.84375 12.59375 C 15.979623 12.051876 16.119934 11.524236 16.28125 10.90625 C 16.34716 11.010203 16.404331 11.075505 16.46875 11.1875 C 16.812317 11.784808 17.09375 12.40625 17.09375 12.40625 L 17.34375 13 L 18 13 L 20 13 L 21 13 C 21 11.695082 21.305325 10.373865 21.9375 9.46875 C 22.401022 8.8051034 23.107085 8.4305249 24 8.21875 L 24 8.3125 L 24 9.15625 L 24.84375 9.28125 C 25.309972 9.359843 25.323391 9.4899815 25.40625 9.6875 C 25.48911 9.8850185 25.5 10.0625 25.5 10.0625 L 25.46875 10.5625 L 25.84375 10.90625 L 26.6875 11.5625 C 26.538556 11.51899 26.373709 11.48875 26.3125 11.46875 L 25.96875 11.34375 L 25.625 11.5 C 25.65401 11.48842 25.158355 11.59152 24.84375 11.53125 C 24.529145 11.47098 24.361441 11.414338 24.1875 10.9375 L 22.3125 11.625 C 22.419966 11.919604 22.579615 12.181499 22.75 12.40625 C 22.496686 12.876206 22.361631 13.39053 22.25 13.90625 C 22.045762 14.849802 22 15.822395 22 16.625 C 22 17.926064 20.71875 18.59375 20.71875 18.59375 L 20.28125 18.8125 L 20.1875 19.28125 C 19.650436 21.75134 19.03125 24.90625 19.03125 24.90625 L 18.90625 25.5 L 19.40625 25.875 C 19.40625 25.875 20 26.434226 20 27 L 22 27 C 22 25.835326 21.475363 25.162975 21.0625 24.75 C 21.123779 24.444218 21.454765 22.950402 21.71875 21.71875 C 22.064331 22.681828 22.455677 23.386071 22.65625 23.71875 L 22.15625 24.90625 L 24 25.6875 L 24.6875 24.0625 L 24.90625 23.59375 L 24.59375 23.15625 C 24.59375 23.15625 23.436475 21.281873 23.15625 19.125 C 23.611123 18.565779 24 17.757065 24 16.625 C 24 15.912605 24.06324 15.062198 24.21875 14.34375 C 24.292618 14.002487 24.394468 13.721837 24.5 13.5 C 25.022349 13.592584 25.377478 13.484125 25.75 13.40625 C 26.239236 13.561571 27.34375 13.84375 27.34375 13.84375 L 27.875 14 L 28.3125 13.59375 C 28.771803 13.153349 28.97255 12.609187 29 12.0625 C 29.02745 11.515813 28.89704 10.931436 28.46875 10.46875 L 28.40625 10.4375 L 28.375 10.375 L 27.375 9.5625 C 27.350226 9.3314354 27.386071 9.2618658 27.25 8.9375 C 27.061039 8.4870537 26.598696 8.0206826 26 7.6875 L 26 7 L 26 6 L 25 6 z M 12.40625 18 L 12.4375 19.03125 C 12.4375 19.03125 12.48455 20.473488 11.3125 21.625 L 10.75 22.15625 L 11.125 22.8125 L 13 26.15625 L 13 27 L 15 27 L 15 25.90625 L 15 25.625 L 14.875 25.40625 L 13.1875 22.375 C 13.741752 21.630006 14.097601 20.904591 14.25 20.28125 C 15.096999 20.604811 16.362298 21 18 21 L 18.625 21 L 19 19 L 18 19 C 16.195614 19 14.125 18.09375 14.125 18.09375 L 13.9375 18 L 13.71875 18 L 13.4375 18 L 12.40625 18 z" overflow="visible" font-family="Bitstream Vera Sans" fill="#000000"/></svg>
