<?xml version="1.0" encoding="utf-8"?>
<svg xmlns="http://www.w3.org/2000/svg" viewBox="-8 10 32 32" fill="#000000"><path d="M 15.0625 4 C 14.92673 4.0058984 14.838 4.02775 14.8125 4.03125 C 14.7035 4.04925 4 6.048 4 18 C 4 19.773 4.203 21.281 4.375 22.5 C 4.683 24.686 4.813 25.77975 4 26.59375 L 5.40625 28 C 6.24125 27.166 7.56475 27.307 9.84375 27.625 C 11.06875 27.797 12.462 28 14 28 C 26.018 28 27.973 17.26475 28 17.09375 C 28.004 17.05675 28.02 16.83675 28 16.46875 C 28 16.45575 28 16.4505 28 16.4375 C 27.919 15.0955 27.32275 11.88425 23.71875 8.28125 C 19.55025 4.11275 16.012887 3.9587109 15.0625 4 z M 15.5625 6 C 16.5585 6.07 19.14425 6.58175 22.28125 9.71875 C 25.41525 12.85275 25.925 15.4715 26 16.4375 C 26 17.3035 25.3035 18 24.4375 18 C 23.5725 18 22.873 17.2945 22.875 16.4375 L 22.875 16.3125 L 20.9375 15.9375 C 20.7415 16.5735 20.157 17 19.5 17 C 18.673 17 18 16.327 18 15.5 C 18 15.399 18.00025 15.29025 18.03125 15.15625 L 16.84375 13.96875 C 16.71075 13.99975 16.602 14 16.5 14 C 15.673 14 15 13.327 15 12.5 C 15 11.83 15.44075 11.2375 16.09375 11.0625 L 15.75 9.09375 L 15.5625 9.125 C 14.7015 9.125 14 8.4245 14 7.5625 C 14 6.7005 14.7015 6 15.5625 6 z M 12.03125 7.15625 C 12.01525 7.29425 12 7.4205 12 7.5625 C 12 8.8055 12.62675 9.89325 13.59375 10.53125 C 13.20775 11.09525 13 11.783 13 12.5 C 13 14.271 14.32225 15.73875 16.03125 15.96875 C 16.26125 17.67775 17.729 19 19.5 19 C 20.219 19 20.90675 18.78725 21.46875 18.40625 C 22.10875 19.36825 23.1965 20 24.4375 20 C 24.5865 20 24.73 19.98675 24.875 19.96875 C 23.456 22.62775 20.39 26 14 26 C 12.602 26 11.285 25.81825 10.125 25.65625 C 9.127 25.51625 8.1855 25.375 7.3125 25.375 C 7.0635 25.375 6.83075 25.38225 6.59375 25.40625 C 6.68575 24.43025 6.536 23.36375 6.375 22.21875 C 6.203 21.00175 6 19.634 6 18 C 6 11.638 9.38225 8.58225 12.03125 7.15625 z M 19.53125 9 C 19.356081 8.9843814 19.217066 9.0329338 19.125 9.125 C 18.756735 9.4932647 19.302612 10.615112 20.34375 11.65625 C 21.384888 12.697388 22.506735 13.243265 22.875 12.875 C 23.243265 12.506735 22.697388 11.384888 21.65625 10.34375 C 20.875397 9.5628968 20.056756 9.0468557 19.53125 9 z" transform="translate(-8 10)" fill="#000000"/></svg>
