<?xml version="1.0" encoding="utf-8"?>
<svg xmlns="http://www.w3.org/2000/svg" viewBox="0 0 32 32" fill="#000000"><path style="text-indent:0;text-align:start;line-height:normal;text-transform:none;block-progression:tb;-inkscape-font-specification:Sans" d="M 10 4 L 9.25 4.84375 L 5.25 9.34375 L 6.75 10.65625 L 9 8.15625 L 9 23 L 11 23 L 11 8.15625 L 13.25 10.65625 L 14.75 9.34375 L 10.75 4.84375 L 10 4 z M 22 4 L 21.25 4.84375 L 17.25 9.34375 L 18.75 10.65625 L 21 8.15625 L 21 23 L 23 23 L 23 8.15625 L 25.25 10.65625 L 26.75 9.34375 L 22.75 4.84375 L 22 4 z M 4 25 L 4 26 L 4 27 L 4 28 L 5 28 L 27 28 L 28 28 L 28 27 L 28 26 L 28 25 L 27 25 L 5 25 L 4 25 z" overflow="visible" font-family="Sans" fill="#000000"/></svg>
