<?xml version="1.0" encoding="utf-8"?>
<svg xmlns="http://www.w3.org/2000/svg" viewBox="0 0 32 32" fill="#000000"><path style="text-indent:0;text-align:start;line-height:normal;text-transform:none;block-progression:tb;-inkscape-font-specification:Sans" d="M 16 4 C 11.668526 4 8.9116979 4.9569106 7.21875 6.375 C 5.5878282 7.7411335 5.0379464 9.4935266 5 10.84375 C 4.8427973 11.326912 4 14.098274 4 18.09375 C 4 22.479429 5.03125 27.21875 5.03125 27.21875 L 5.1875 28 L 6 28 L 26 28 L 26.8125 28 L 26.96875 27.21875 C 26.96875 27.21875 28 22.457291 28 18.09375 C 28 14.119315 27.157203 11.356789 27 10.875 C 26.969623 9.5076528 26.425964 7.7473154 24.78125 6.375 C 23.086873 4.961247 20.329963 4 16 4 z M 16 6 C 20.035037 6 22.285627 6.893003 23.5 7.90625 C 24.299973 8.5737302 24.665999 9.3154467 24.84375 10 L 7.15625 10 C 7.3336872 9.316343 7.6990859 8.5771318 8.5 7.90625 C 9.7158021 6.8878394 11.966474 6 16 6 z M 6.78125 12 L 25.25 12 C 25.481823 12.780975 26 14.793109 26 18.09375 C 26 21.578808 25.357559 24.976817 25.15625 26 L 6.84375 26 C 6.642484 24.981534 6 21.59936 6 18.09375 C 6 14.744162 6.5546139 12.753177 6.78125 12 z M 16 13 C 12.698136 13 10 15.698136 10 19 C 10 22.301864 12.698136 25 16 25 C 19.301864 25 22 22.301864 22 19 C 22 15.698136 19.301864 13 16 13 z M 16 15 C 18.220984 15 20 16.779016 20 19 C 20 21.220984 18.220984 23 16 23 C 13.779016 23 12 21.220984 12 19 C 12 16.779016 13.779016 15 16 15 z M 15 16 L 15 18 L 13 18 L 13 20 L 15 20 L 15 22 L 17 22 L 17 20 L 19 20 L 19 18 L 17 18 L 17 16 L 15 16 z" overflow="visible" font-family="Sans" fill="#000000"/></svg>
