<?xml version="1.0" encoding="utf-8"?>
<svg xmlns="http://www.w3.org/2000/svg" viewBox="0 0 32 32" fill="#000000"><path style="text-indent:0;text-align:start;line-height:normal;text-transform:none;block-progression:tb;-inkscape-font-specification:Sans" d="M 4 5 C 4 5 3 7.017 3 8 C 3 8.552 3.448 9 4 9 C 4.552 9 5 8.552 5 8 C 5 7.061 4 5 4 5 z M 8 5 C 8 5 7 7.017 7 8 C 7 8.552 7.448 9 8 9 C 8.552 9 9 8.552 9 8 C 9 7.061 8 5 8 5 z M 12 5 C 12 5 11 7.017 11 8 C 11 8.552 11.448 9 12 9 C 12.552 9 13 8.552 13 8 C 13 7.061 12 5 12 5 z M 16 5 C 16 5 15 7.017 15 8 C 15 8.552 15.448 9 16 9 C 16.552 9 17 8.552 17 8 C 17 7.061 16 5 16 5 z M 20 5 C 20 5 19 7.017 19 8 C 19 8.552 19.448 9 20 9 C 20.552 9 21 8.552 21 8 C 21 7.061 20 5 20 5 z M 24 5 C 24 5 23 7.017 23 8 C 23 8.552 23.448 9 24 9 C 24.552 9 25 8.552 25 8 C 25 7.061 24 5 24 5 z M 28 5 C 28 5 27 7.017 27 8 C 27 8.552 27.448 9 28 9 C 28.552 9 29 8.552 29 8 C 29 7.061 28 5 28 5 z M 3 10 C 3 16.804955 8.3220829 22.415988 15 22.9375 L 15 25 L 10 25 L 10 27 L 22 27 L 22 25 L 17 25 L 17 22.9375 C 23.677917 22.415988 29 16.804955 29 10 L 27 10 C 27 15.718052 22.590433 20.429536 17 20.9375 L 17 18.9375 C 21.474773 18.429681 25 14.603528 25 10 L 23 10 C 23 13.514381 20.382972 16.417371 17 16.90625 L 17 14.90625 C 19.270774 14.43718 21 12.402273 21 10 L 19 10 C 19 11.299507 18.15784 12.396462 17 12.8125 L 17 10 L 15 10 L 15 12.8125 C 13.84216 12.396462 13 11.299507 13 10 L 11 10 C 11 12.402273 12.729226 14.43718 15 14.90625 L 15 16.90625 C 11.617028 16.417371 9 13.514381 9 10 L 7 10 C 7 14.603528 10.525227 18.429681 15 18.9375 L 15 20.9375 C 9.4095669 20.429536 5 15.718052 5 10 L 3 10 z" overflow="visible" font-family="Sans" fill="#000000"/></svg>
