<?xml version="1.0" encoding="utf-8"?>
<svg xmlns="http://www.w3.org/2000/svg" viewBox="0 0 32 32" fill="#000000"><path style="text-indent:0;text-align:start;line-height:normal;text-transform:none;block-progression:tb;-inkscape-font-specification:Sans" d="M 21 4 C 18.606545 4 16.481124 5.1917683 15.21875 7.03125 C 14.978401 7.0147056 14.744457 7 14.5 7 C 8.7128548 7 4 11.712855 4 17.5 C 4 23.287145 8.7128548 28 14.5 28 C 20.287145 28 25 23.287145 25 17.5 C 25 17.255543 24.985294 17.021599 24.96875 16.78125 C 26.808232 15.518876 28 13.393455 28 11 C 28 7.1456661 24.854334 4 21 4 z M 21 6 C 23.773666 6 26 8.2263339 26 11 C 26 12.384393 25.461452 13.628154 24.5625 14.53125 C 23.556574 11.122939 20.877061 8.4434263 17.46875 7.4375 C 18.371846 6.5385484 19.615607 6 21 6 z M 14.5 9 C 19.206265 9 23 12.793735 23 17.5 C 23 22.206265 19.206265 26 14.5 26 C 9.793735 26 6 22.206265 6 17.5 C 6 12.793735 9.793735 9 14.5 9 z M 11.65625 12 L 11.5 12.84375 L 11 15.71875 L 11 15.78125 L 11 15.875 L 11 16 L 11 17 L 12 17 L 14.5 17 C 15.340812 17 16 17.659188 16 18.5 L 16 19.5 C 16 20.340812 15.340812 21 14.5 21 C 13.659188 21 13 20.340812 13 19.5 L 13 19 L 11 19 L 11 19.5 C 11 21.421188 12.578812 23 14.5 23 C 16.421188 23 18 21.421188 18 19.5 L 18 18.5 C 18 16.578812 16.421188 15 14.5 15 L 13.1875 15 L 13.34375 14 L 17 14 L 17 12 L 12.5 12 L 11.65625 12 z" overflow="visible" font-family="Sans" fill="#000000"/></svg>
