<?xml version="1.0" encoding="utf-8"?>
<svg xmlns="http://www.w3.org/2000/svg" viewBox="0 0 32 32" fill="#000000"><path style="line-height:normal;text-indent:0;text-align:start;text-decoration-line:none;text-decoration-style:solid;text-decoration-color:#000;text-transform:none;block-progression:tb;isolation:auto;mix-blend-mode:normal" d="M 16 3 C 14.023696 3 12.287704 3.7573069 11.777344 4 L 8.3222656 4 L 8.0722656 4.6289062 C 8.0722656 4.6289062 6 9.6666667 6 14 L 6 20 L 5 20 L 5 22 L 6 22 L 6 24 L 26 24 L 26 16 L 27 16 L 27 14 L 26 14 C 26 8.7333333 23.894531 4.5527344 23.894531 4.5527344 L 23.617188 4 L 23 4 L 20.222656 4 C 19.712296 3.757307 17.976304 3 16 3 z M 16 5 C 17.133562 5 18.325882 5.4032515 19 5.6679688 L 19 17 L 13 17 L 13 5.6679688 C 13.674118 5.4032515 14.866438 5 16 5 z M 9.7226562 6 L 11 6 L 11 19 L 21 19 L 21 6 L 22.314453 6 C 22.645576 6.7189525 24 9.7894236 24 14 L 24 22 L 8 22 L 8 14 C 8 10.725409 9.3937184 6.883794 9.7226562 6 z M 16 10 A 2 2 0 0 0 14 12 A 2 2 0 0 0 16 14 A 2 2 0 0 0 18 12 A 2 2 0 0 0 16 10 z M 10 26 L 10 28 L 22 28 L 22 26 L 10 26 z" font-weight="400" font-family="sans-serif" white-space="normal" overflow="visible" fill="#000000"/></svg>
