<?xml version="1.0" encoding="utf-8"?>
<svg xmlns="http://www.w3.org/2000/svg" viewBox="0 0 32 32" fill="#000000"><path style="text-indent:0;text-align:start;line-height:normal;text-transform:none;block-progression:tb;-inkscape-font-specification:Bitstream Vera Sans" d="M 9.53125 4.03125 C 8.0368558 4.116295 6.3677245 4.5826811 4.53125 5.59375 L 3.84375 5.96875 L 4.03125 6.71875 C 4.03125 6.71875 4.8846857 10.287651 6.90625 12.53125 C 8.0039326 13.748646 9.4063035 14.078829 10.5 13.96875 C 11.593697 13.858671 12.307085 13.490718 12.8125 13.03125 L 11.46875 11.5625 C 11.512165 11.523032 10.884053 11.939329 10.28125 12 C 9.6784465 12.060671 9.0653174 11.953104 8.375 11.1875 C 7.2229345 9.9088994 6.5502412 7.931905 6.25 7 C 9.0673496 5.6719124 11.134291 5.8731717 12.375 6.59375 C 13.590403 7.2996309 14.084748 8.501625 13.96875 9.4375 C 13.668917 9.1997306 13.362738 8.9781978 13.0625 8.78125 C 11.178288 7.5452586 9.3125 6.96875 9.3125 6.96875 L 8.71875 8.90625 C 8.71875 8.90625 10.361962 9.3834914 11.96875 10.4375 C 13.575538 11.491509 15 12.983276 15 15 L 15 17 L 9 17 L 8 17 L 8 18 L 8 21 L 8 22 L 9 22 L 9.1875 22 L 10.28125 27.21875 L 10.4375 28 L 11.25 28 L 20.75 28 L 21.5625 28 L 21.71875 27.21875 L 22.8125 22 L 23 22 L 24 22 L 24 21 L 24 18 L 24 17 L 23 17 L 17 17 L 17 16.6875 C 17 15.469096 18.246545 14.099962 19.71875 13.09375 C 21.190955 12.087538 22.6875 11.46875 22.6875 11.46875 L 21.9375 9.625 C 21.9375 9.625 21.082293 9.9612572 20 10.5625 C 20.018203 9.9327779 20.37418 9.3710562 21.125 9.03125 C 21.945854 8.6597473 23.477516 8.8119674 25.46875 9.75 C 25.115795 10.35145 24.786901 11.012544 23.84375 12.15625 C 23.285855 12.832663 22.773112 13.015305 22.375 13.03125 C 21.976888 13.0472 21.721172 12.763455 21.8125 12.90625 L 20.125 14 C 20.633328 14.794795 21.468612 15.070055 22.4375 15.03125 C 23.406388 14.99245 24.533145 14.496087 25.40625 13.4375 C 26.875403 11.655941 27.875 9.78125 27.875 9.78125 L 28.34375 8.9375 L 27.5 8.4375 C 26.026021 7.550452 24.683718 7.0585505 23.46875 6.875 C 22.253782 6.6914495 21.167601 6.817605 20.28125 7.21875 C 18.508549 8.0210404 17.650211 9.9191664 18.125 11.65625 C 18.138118 11.704412 18.142881 11.703382 18.15625 11.75 C 17.640048 12.127482 17.120707 12.546761 16.65625 13.03125 C 16.406437 12.305466 16.04268 11.642583 15.59375 11.0625 C 15.627772 10.966073 15.665837 10.885781 15.6875 10.8125 C 15.75626 10.579912 15.821693 10.386669 15.84375 10.3125 C 16.43743 8.324817 15.443418 6.0450443 13.375 4.84375 C 12.340791 4.2431029 11.025644 3.9462052 9.53125 4.03125 z M 10 19 L 22 19 L 22 20 L 10 20 L 10 19 z M 11.21875 22 L 20.78125 22 L 19.9375 26 L 12.0625 26 L 11.21875 22 z" overflow="visible" font-family="Bitstream Vera Sans" fill="#000000"/></svg>
