<?xml version="1.0" encoding="utf-8"?>
<svg xmlns="http://www.w3.org/2000/svg" viewBox="0 0 32 32" fill="#000000"><path style="text-indent:0;text-align:start;line-height:normal;text-transform:none;block-progression:tb;-inkscape-font-specification:Sans" d="M 4 4 L 4 5 L 4 27 L 4 28 L 5 28 L 27 28 L 28 28 L 28 27 L 28 5 L 28 4 L 27 4 L 5 4 L 4 4 z M 6 6 L 26 6 L 26 26 L 6 26 L 6 6 z M 8 8 L 8 9 L 8 19 L 8 20 L 9 20 L 15 20 L 15 22 L 11 22 L 11 24 L 21 24 L 21 22 L 17 22 L 17 20 L 23 20 L 24 20 L 24 19 L 24 9 L 24 8 L 23 8 L 9 8 L 8 8 z M 10 10 L 22 10 L 22 18 L 10 18 L 10 10 z" overflow="visible" font-family="Sans" fill="#000000"/></svg>
