<?xml version="1.0" encoding="utf-8"?>
<svg xmlns="http://www.w3.org/2000/svg" viewBox="0 0 32 32" fill="#000000"><path d="M 19.414062 4 C 19.149062 4 18.894031 4.1049688 18.707031 4.2929688 L 18.292969 4.7070312 C 18.104969 4.8950312 17.850938 5 17.585938 5 L 8 5 C 6.343 5 5 6.343 5 8 L 5 9.7792969 C 4.3906671 10.328373 4 11.115084 4 12 L 4 24 C 4 25.657 5.343 27 7 27 L 9.3886719 27 C 10.092527 27.614199 10.999817 28 12 28 L 23.929688 28 C 26.725434 28 29 25.686509 29 22.875 L 29 22.5 C 29 21.331471 28.627388 20.246822 28 19.353516 L 28 13 C 28 12.115084 27.609333 11.328373 27 10.779297 L 27 7 C 27 5.343 25.657 4 24 4 L 19.414062 4 z M 19.828125 6 L 24 6 C 24.551 6 25 6.449 25 7 L 25 10 L 15.414062 10 C 15.149062 10 14.894031 9.8950312 14.707031 9.7070312 L 14.292969 9.2929688 C 14.104969 9.1049687 13.850937 9 13.585938 9 L 7 9 L 7 8 C 7 7.449 7.449 7 8 7 L 17.585938 7 C 18.386937 7 19.141031 6.6880938 19.707031 6.1210938 L 19.828125 6 z M 7 11 L 13.171875 11 L 13.292969 11.121094 C 13.858969 11.688094 14.613062 12 15.414062 12 L 25 12 C 25.551 12 26 12.449 26 13 L 26 17.609375 C 25.248542 17.2226 24.399379 17 23.5 17 C 23.46846 17 23.475233 17.004959 23.445312 17.005859 C 23.431052 16.991519 23.435142 16.991313 23.419922 16.976562 C 22.32896 15.780363 20.757396 15 19 15 C 16.833443 15 15.069556 16.269977 14.015625 18.001953 C 14.010256 18.001924 14.005376 18 14 18 C 12.693441 18 11.770306 18.952904 11.363281 20.128906 C 9.4770318 20.44727 8 22.027869 8 24 C 8 24.346999 8.0601659 24.678231 8.1445312 25 L 7 25 C 6.449 25 6 24.551 6 24 L 6 12 C 6 11.449 6.449 11 7 11 z M 19 17 C 20.180015 17 21.218643 17.514436 21.958984 18.333984 L 21.994141 18.375 L 22.035156 18.410156 C 21.977856 18.358966 22.257814 18.667969 22.257812 18.667969 L 22.617188 19.121094 L 23.191406 19.035156 C 23.191406 19.035156 23.536093 19 23.5 19 C 25.444423 19 27 20.555577 27 22.5 L 27 22.875 C 26.999992 24.619489 25.62994 26 23.929688 26 L 12 26 C 10.883334 26 10 25.116666 10 24 C 10 22.883334 10.883334 22 12 22 L 13 22 L 13 21 C 13 20.43497 13.43497 20 14 20 C 14.06887 20 14.137451 20.006301 14.203125 20.019531 L 15 20.181641 L 15.320312 19.431641 C 15.929063 18.004034 17.338324 17 19 17 z M 17.75 20 L 16.933594 21.25 L 19.9375 21.25 L 20.667969 20 L 17.75 20 z M 22.371094 20 C 20.483094 20 20.470703 22.082031 20.470703 22.082031 L 20.40625 22.929688 C 20.21125 24.610688 19 24.582031 19 24.582031 L 18.582031 24.582031 L 18.361328 25 L 20.132812 25 C 20.132812 25 21.618781 24.999031 21.800781 23.332031 C 21.800781 23.332031 21.904969 22.121031 21.917969 22.082031 C 21.930969 22.043031 21.943969 20.832031 23.167969 20.832031 C 23.167969 20.832031 23.568578 20.838969 23.767578 20.917969 L 24 20.625 C 23.102 19.961 22.371094 20 22.371094 20 z M 16.386719 22.083984 L 14.890625 24.373047 C 14.729625 24.650047 14.929 25 15.25 25 L 17.748047 25 L 18.236328 24.167969 L 16.791016 24.167969 L 17.332031 23.333984 L 18.720703 23.333984 L 19.449219 22.083984 L 16.386719 22.083984 z" fill="#000000"/></svg>
