<?xml version="1.0" encoding="utf-8"?>
<svg xmlns="http://www.w3.org/2000/svg" viewBox="0 0 32 32" fill="#000000"><path style="text-indent:0;text-align:start;line-height:normal;text-transform:none;block-progression:tb;-inkscape-font-specification:Bitstream Vera Sans" d="M 5 3 L 5 4 L 5 10 L 7 10 L 7 5 L 23 5 L 23 9.84375 L 22.0625 12.6875 L 20.0625 18.6875 L 20 18.84375 L 20 19 L 20 20 L 22 20 L 22 19.125 L 22.03125 19 L 23.96875 19 L 24 19.125 L 24 20 L 26 20 L 26 19 L 26 18.84375 L 25.9375 18.6875 L 23.9375 12.6875 L 23.0625 10 L 25 10 L 25 4 L 25 3 L 24 3 L 6 3 L 5 3 z M 3 12 L 3 13 L 3 13.15625 L 3.03125 13.3125 L 4.9375 19.3125 L 5.15625 20 L 5.90625 20 L 6.09375 20 L 6.84375 20 L 7.0625 19.28125 L 7.5 17.78125 L 7.9375 19.28125 L 8.15625 20 L 8.90625 20 L 9.09375 20 L 9.84375 20 L 10.0625 19.3125 L 11.96875 13.3125 L 12 13.15625 L 12 13 L 12 12 L 10 12 L 10 12.78125 L 9.03125 15.84375 L 8.5625 14.21875 L 8.34375 13.5 L 7.59375 13.5 L 7.40625 13.5 L 6.65625 13.5 L 6.4375 14.21875 L 5.96875 15.84375 L 5 12.78125 L 5 12 L 3 12 z M 13 12 L 13 13 L 13 20 L 15 20 L 15 15.34375 L 15.1875 15.59375 L 16 16.65625 L 16.8125 15.59375 L 17 15.34375 L 17 20 L 19 20 L 19 13 L 19 12 L 18 12 L 17.5 12 L 17 12 L 16.6875 12.40625 L 16 13.3125 L 15.3125 12.40625 L 15 12 L 14.5 12 L 14 12 L 13 12 z M 23 16.125 L 23.28125 17 L 22.71875 17 L 23 16.125 z M 5 22 L 5 28 L 5 29 L 6 29 L 24 29 L 25 29 L 25 28 L 25 22 L 23 22 L 23 27 L 7 27 L 7 22 L 5 22 z" fill="#000000"/></svg>
