<?xml version="1.0" encoding="utf-8"?>
<svg xmlns="http://www.w3.org/2000/svg" viewBox="0 0 32 32" fill="#000000"><path style="text-indent:0;text-align:start;line-height:normal;text-transform:none;block-progression:tb;-inkscape-font-specification:Bitstream Vera Sans" d="M 16 4 C 14.895431 4 14 4.8954305 14 6 C 14 6.1380712 14.004608 6.2760548 14.03125 6.40625 C 12.994759 6.8614315 12.171143 7.631887 11.5625 8.34375 C 10.608641 9.4593748 10.09375 10.59375 10.09375 10.59375 L 10.0625 10.625 C 10.0625 10.625 9.7497406 11.393929 9.375 12.625 C 8.6674069 12.239728 7.8616344 12 7 12 C 4.8026661 12 3 13.802666 3 16 L 3 18 C 3 21.167316 5.4768427 23.761469 8.59375 23.96875 C 9.0658746 25.022497 9.7594861 25.772003 10.46875 26.21875 C 11.719196 27.006374 13 27 13 27 L 19 27 C 19 27 20.28099 27.0066 21.53125 26.21875 C 22.263423 25.75739 22.996703 24.984413 23.46875 23.875 C 25.208244 23.480189 26.608351 22.09103 26.9375 20.28125 L 28.21875 13.15625 L 28.21875 13.125 L 28.21875 13.09375 C 28.274931 12.472449 28.781635 12 29.40625 12 L 30 12 L 30 10 L 29.40625 10 L 28.46875 10 C 26.577072 10 24.84645 11.058348 24 12.75 L 23.5 13.78125 C 23.389462 14.002588 23.243178 14.211571 23.09375 14.40625 C 22.53642 12.169955 21.9375 10.625 21.9375 10.625 L 21.90625 10.59375 C 21.90625 10.59375 21.391359 9.4593748 20.4375 8.34375 C 19.828857 7.631887 19.005241 6.8614315 17.96875 6.40625 C 17.995392 6.2760548 18 6.1380712 18 6 C 18 4.8954305 17.104569 4 16 4 z M 16 8 C 17.158059 8 18.181359 8.7718748 18.9375 9.65625 C 19.040226 9.7763975 19.130308 9.8836894 19.21875 10 L 12.78125 10 C 12.869692 9.8836893 12.959774 9.7763975 13.0625 9.65625 C 13.818641 8.7718748 14.841941 8 16 8 z M 11.71875 12 L 20.28125 12 C 20.755944 13.338577 22 17.172651 22 21 C 22 23.210629 21.21849 24.02757 20.46875 24.5 C 19.71901 24.97243 19 25 19 25 L 13 25 C 13 25 12.280804 24.97213 11.53125 24.5 C 10.781696 24.027874 10 23.211737 10 21 C 10 17.170931 11.244056 13.338119 11.71875 12 z M 26.25 13 L 24.96875 19.9375 C 24.848786 20.597104 24.478081 21.132777 23.96875 21.5 C 23.978572 21.331533 24 21.177291 24 21 C 24 19.520838 23.83054 18.07023 23.59375 16.71875 C 24.284314 16.183694 24.876119 15.49872 25.28125 14.6875 L 25.78125 13.65625 C 25.904754 13.409425 26.070358 13.198459 26.25 13 z M 7 14 C 7.703772 14 8.3357263 14.251986 8.84375 14.65625 C 8.4025677 16.482947 8 18.724341 8 21 C 8 21.310539 8.033122 21.591449 8.0625 21.875 C 6.2993216 21.456478 5 19.897088 5 18 L 5 16 C 5 14.883334 5.8833339 14 7 14 z" overflow="visible" font-family="Bitstream Vera Sans" fill="#000000"/></svg>
