<?xml version="1.0" encoding="utf-8"?>
<svg xmlns="http://www.w3.org/2000/svg" viewBox="0 0 32 32" fill="#000000"><path style="text-indent:0;text-align:start;line-height:normal;text-transform:none;block-progression:tb;-inkscape-font-specification:Sans" d="M 8 9 L 7.6875 9.28125 L 1.6875 15.28125 L 1 16 L 1.6875 16.71875 L 7.6875 22.71875 L 8 23 L 8.40625 23 L 30 23 L 31 23 L 31 22 L 31 10 L 31 9 L 30 9 L 8.40625 9 L 8 9 z M 8.84375 11 L 29 11 L 29 21 L 8.84375 21 L 3.84375 16 L 8.84375 11 z M 18 14 C 16.895431 14 16 14.895431 16 16 C 16 17.104569 16.895431 18 18 18 C 19.104569 18 20 17.104569 20 16 C 20 14.895431 19.104569 14 18 14 z" overflow="visible" font-family="Sans" fill="#000000"/></svg>
