<?xml version="1.0" encoding="utf-8"?>
<svg xmlns="http://www.w3.org/2000/svg" viewBox="0 0 32 32" fill="#000000"><path style="text-indent:0;text-align:start;line-height:normal;text-transform:none;block-progression:tb;-inkscape-font-specification:Bitstream Vera Sans" d="M 5 4 L 5 5 L 5 11 L 5 12 L 6 12 L 22 12 L 23 12 L 23 11 L 23 5 L 23 4 L 22 4 L 6 4 L 5 4 z M 7 6 L 21 6 L 21 10 L 7 10 L 7 6 z M 24 7 L 24 9 L 25 9 L 25 13.25 L 15.71875 16.03125 L 15 16.25 L 15 17 L 15 19 L 14 19 L 13 19 L 13 20 L 13 27 L 13 28 L 14 28 L 18 28 L 19 28 L 19 27 L 19 20 L 19 19 L 18 19 L 17 19 L 17 17.75 L 26.28125 14.96875 L 27 14.75 L 27 14 L 27 8 L 27 7 L 26 7 L 24 7 z M 15 21 L 17 21 L 17 26 L 15 26 L 15 21 z" overflow="visible" font-family="Bitstream Vera Sans" fill="#000000"/></svg>
