<?xml version="1.0" encoding="utf-8"?>
<svg xmlns="http://www.w3.org/2000/svg" viewBox="0 0 32 32" fill="#000000"><path style="line-height:normal;text-indent:0;text-align:start;text-decoration-line:none;text-decoration-style:solid;text-decoration-color:#000;text-transform:none;block-progression:tb;isolation:auto;mix-blend-mode:normal" d="M 15 1.8261719 L 15 4 L 15 8 L 9.5410156 8 L 1.8261719 17 L 8 17 L 8 22.458984 L 17 30.173828 L 17 24 L 22.460938 24 L 30.175781 15 L 24 15 L 24 9.5390625 L 15 1.8261719 z M 17 6.1738281 L 22 10.458984 L 22 14.998047 L 19.794922 14.998047 C 19.426042 13.620669 18.377396 12.57207 17 12.203125 L 17 8 L 17 6.1738281 z M 10.458984 10 L 15 10 L 15 12.203125 C 13.621189 12.572029 12.572029 13.621189 12.203125 15 L 8 15 L 6.1738281 15 L 10.458984 10 z M 15.998047 14 L 16.001953 14 C 17.116503 14.0013 17.997373 14.882275 17.998047 15.996094 L 17.998047 16.021484 C 17.986269 17.126522 17.111032 17.997377 16.003906 17.998047 L 15.978516 17.998047 C 14.872177 17.986224 14.00134 17.111123 14 16.001953 L 14 15.998047 C 14.001348 14.882172 14.882172 14.001348 15.998047 14 z M 10 17 L 12.203125 17 C 12.572029 18.378811 13.621189 19.427971 15 19.796875 L 15 25.826172 L 10 21.541016 L 10 17 z M 19.796875 17 L 25.828125 17 L 21.541016 22 L 17.001953 22 L 17.001953 19.794922 C 18.379331 19.426042 19.42793 18.377396 19.796875 17 z" font-weight="400" font-family="sans-serif" white-space="normal" overflow="visible" fill="#000000"/></svg>
