<?xml version="1.0" encoding="utf-8"?>
<svg xmlns="http://www.w3.org/2000/svg" viewBox="0 0 32 32" fill="#000000"><path style="text-indent:0;text-align:start;line-height:normal;text-transform:none;block-progression:tb;-inkscape-font-specification:Bitstream Vera Sans" d="M 14 6 L 14 8 L 17 8 L 17 10 L 19 10 L 19 8 L 22 8 L 22 6 L 14 6 z M 11.46875 11 L 11.15625 11.4375 L 9.4375 14 L 7 14 L 6 14 L 6 15 L 6 22 L 6 23 L 7 23 L 8.5625 23 L 11.28125 25.71875 L 11.59375 26 L 12 26 L 21 26 L 21.40625 26 L 21.71875 25.71875 L 25.71875 21.71875 L 26 21.40625 L 26 21 L 26 17 L 27 17 L 27 15 L 26 15 L 26 12 L 26 11 L 25 11 L 12 11 L 11.46875 11 z M 28 12 L 28 20 L 30 20 L 30 12 L 28 12 z M 12.5625 13 L 24 13 L 24 20.5625 L 20.5625 24 L 12.4375 24 L 9.71875 21.28125 L 9.40625 21 L 9 21 L 8 21 L 8 16 L 10 16 L 10.53125 16 L 10.84375 15.5625 L 12.5625 13 z M 2 15 L 2 21 L 4 21 L 4 19 L 5 19 L 5 17 L 4 17 L 4 15 L 2 15 z M 17 15 L 15 18.96875 L 17 19.875 L 17 23 L 19 19 L 17 18.125 L 17 15 z" fill="#000000"/></svg>
