<?xml version="1.0" encoding="utf-8"?>
<svg xmlns="http://www.w3.org/2000/svg" viewBox="0 0 32 32" fill="#000000"><path d="M 8 2 L 8 16 L 2 16 L 16 30 L 30 16 L 24 16 L 24 2 L 8 2 z M 10 4 L 22 4 L 22 18 L 25.205078 18 L 16 27 L 6.7949219 18 L 10 18 L 10 4 z M 16.560547 8.6113281 C 15.937757 8.5907341 15.336744 8.713464 14.802734 8.9804688 C 13.734716 9.5144779 13 10.666667 13 12 C 13 12.354813 13.054946 12.683535 13.128906 13 L 12 13 L 12 15 L 13.755859 15 C 13.761586 15.022453 13.772035 15.04598 13.777344 15.068359 C 13.961628 15.845213 13.985605 16.391593 13.523438 17 L 13 17 L 13 19 L 20 18.998047 L 20 16 L 18 16 L 18 17 L 15.703125 17 C 15.89717 16.307671 15.881422 15.621204 15.779297 15 L 18 15 L 18 13 L 15.257812 13 C 15.111115 12.538332 15 12.181315 15 12 C 15 11.333333 15.265284 10.985522 15.697266 10.769531 C 16.129247 10.553541 16.791248 10.513788 17.552734 10.894531 L 18.447266 9.1054688 C 17.828009 8.7958402 17.183337 8.6319222 16.560547 8.6113281 z" fill="#000000"/></svg>
