<?xml version="1.0" encoding="utf-8"?>
<svg xmlns="http://www.w3.org/2000/svg" viewBox="0 0 32 32" fill="#000000"><path style="text-indent:0;text-align:start;line-height:normal;text-transform:none;block-progression:tb;-inkscape-font-specification:Sans" d="M 16 3 C 15.784659 3 15.581789 3.0168986 15.375 3.03125 C 13.514723 3.1603551 11.993229 3.8445175 10.84375 4.8125 C 9.5664943 5.8880838 8.7139679 7.2729567 8.15625 8.625 C 7.1356696 11.099134 7.0462568 13.291977 7.03125 13.6875 C 6.6359895 14.142284 4 17.244107 4 22 C 4 22.841533 4.2592396 23.787533 4.90625 24.59375 C 5.5532604 25.399967 6.6393943 26 8 26 C 9.2459158 26 10.165333 25.698062 10.78125 25.375 C 10.890291 25.317806 10.968836 25.248261 11.0625 25.1875 C 11.932852 26.000674 13.071067 26.615102 14.4375 26.875 L 16 30 L 17.59375 26.84375 C 18.929802 26.575091 20.017616 25.962269 20.875 25.15625 C 20.983889 25.229534 21.08724 25.30602 21.21875 25.375 C 21.834667 25.698062 22.754084 26 24 26 C 25.360228 26 26.446662 25.399852 27.09375 24.59375 C 27.740838 23.787648 28 22.8418 28 22 C 28 17.244953 25.363998 14.142377 24.96875 13.6875 C 24.953743 13.291977 24.86433 11.099134 23.84375 8.625 C 23.286032 7.2729567 22.433506 5.8880838 21.15625 4.8125 C 20.006771 3.8445175 18.485277 3.1603551 16.625 3.03125 C 16.416834 3.0111984 16.217233 3 16 3 z M 16 5 C 17.262139 5 18.184663 5.4348073 18.96875 6.125 C 19.752837 6.8151927 20.383424 7.7756209 20.84375 8.84375 C 21.764402 10.980008 22 13.513465 22 14 C 22 14.863478 22.143376 17.672345 21.40625 20.28125 C 21.037687 21.585702 20.437642 22.781889 19.59375 23.625 C 18.980998 24.237185 18.247657 24.675459 17.25 24.875 L 16 23 L 14.75 24.875 C 13.741547 24.684776 12.984279 24.27269 12.375 23.6875 C 11.535707 22.88139 10.960503 21.706724 10.59375 20.4375 C 9.8602439 17.899051 10 15.076499 10 14 C 10 13.192163 10.250182 10.749412 11.15625 8.6875 C 11.609284 7.6565438 12.218136 6.716034 13 6.0625 C 13.579148 5.5784097 14.234716 5.2113983 15.0625 5.0625 C 15.07249 5.0612347 15.08372 5.0637252 15.09375 5.0625 C 15.374579 5.013948 15.676467 5 16 5 z M 11 10 C 11 10 10.97449 10.948986 11.46875 11.9375 C 11.963007 12.926014 13.166667 14 15 14 L 15 12 C 13.833333 12 13.536993 11.573986 13.28125 11.0625 C 13.025507 10.551014 13 10 13 10 L 11 10 z M 19 10 C 19 10 18.97449 10.551014 18.71875 11.0625 C 18.463007 11.573986 18.166667 12 17 12 L 17 14 C 18.833333 14 20.036993 12.926014 20.53125 11.9375 C 21.025507 10.948986 21 10 21 10 L 19 10 z M 12.5 15 C 11.671573 15 11 15.671573 11 16.5 C 11 17.328427 11.671573 18 12.5 18 C 13.328427 18 14 17.328427 14 16.5 C 14 15.671573 13.328427 15 12.5 15 z M 19.5 15 C 18.671573 15 18 15.671573 18 16.5 C 18 17.328427 18.671573 18 19.5 18 C 20.328427 18 21 17.328427 21 16.5 C 21 15.671573 20.328427 15 19.5 15 z M 8 15.65625 C 8.0152128 17.066925 8.121942 19.04277 8.6875 21 C 8.948924 21.904712 9.335594 22.796308 9.84375 23.625 C 9.5064169 23.801938 8.9410842 24 8 24 C 7.1726057 24 6.7747396 23.725033 6.46875 23.34375 C 6.1627604 22.962467 6 22.408467 6 22 C 6 19.179339 7.1853089 16.891816 8 15.65625 z M 24 15.65625 C 24.814691 16.892057 26 19.180061 26 22 C 26 22.4082 25.837412 22.962352 25.53125 23.34375 C 25.225088 23.725148 24.826772 24 24 24 C 23.058916 24 22.493583 23.801938 22.15625 23.625 C 22.136407 23.614592 22.142823 23.603446 22.125 23.59375 C 22.653691 22.721449 23.042915 21.76664 23.3125 20.8125 C 23.852046 18.902886 23.975746 17.00308 24 15.65625 z M 15 20 C 15 20 12 20.25 12 23 C 13.25 21.75 15 22 15 22 L 15 20 z M 17 20 L 17 22 C 17 22 18.75 21.75 20 23 C 20 20.25 17 20 17 20 z" overflow="visible" font-family="Sans" fill="#000000"/></svg>
