<?xml version="1.0" encoding="utf-8"?>
<svg xmlns="http://www.w3.org/2000/svg" viewBox="0 0 32 32" fill="#000000"><path style="text-indent:0;text-align:start;line-height:normal;text-transform:none;block-progression:tb;-inkscape-font-specification:Sans" d="M 16 3.09375 L 15.28125 3.8125 L 7.09375 12 L 3 12 L 2 12 L 2 13 L 2 17 L 2 18 L 3 18 L 3.25 18 L 6.03125 27.28125 L 6.25 28 L 7 28 L 25 28 L 25.75 28 L 25.96875 27.28125 L 28.75 18 L 29 18 L 30 18 L 30 17 L 30 13 L 30 12 L 29 12 L 24.90625 12 L 16.71875 3.8125 L 16 3.09375 z M 16 5.9375 L 22.0625 12 L 9.9375 12 L 16 5.9375 z M 4 14 L 28 14 L 28 16 L 27.25 16 L 27.03125 16.71875 L 24.25 26 L 7.75 26 L 4.96875 16.71875 L 4.75 16 L 4 16 L 4 14 z M 11 17 L 11 24 L 13 24 L 13 17 L 11 17 z M 15 17 L 15 24 L 17 24 L 17 17 L 15 17 z M 19 17 L 19 24 L 21 24 L 21 17 L 19 17 z" overflow="visible" font-family="Sans" fill="#000000"/></svg>
