<?xml version="1.0" encoding="utf-8"?>
<svg xmlns="http://www.w3.org/2000/svg" viewBox="0 0 32 32" fill="#000000"><path style="line-height:normal;text-indent:0;text-align:start;text-decoration-line:none;text-decoration-style:solid;text-decoration-color:#000;text-transform:none;block-progression:tb;isolation:auto;mix-blend-mode:normal" d="M 13.017578 5 C 11.372569 5 10.017578 6.3549904 10.017578 8 C 10.017578 9.0398954 10.56108 9.9609275 11.375 10.5 C 10.561098 11.03898 10.017578 11.959823 10.017578 13 L 10.017578 17.568359 L 8.5859375 19 L 7 19 C 4.8026661 19 3 20.802666 3 23 C 3 25.197334 4.8026661 27 7 27 L 7.0175781 27 L 11.414062 27 L 23.414062 15 L 25 15 C 27.197334 15 29 13.197334 29 11 C 29 8.8026661 27.197334 7 25 7 L 20.585938 7 L 15.767578 11.818359 C 15.533139 11.279632 15.145869 10.821648 14.660156 10.5 C 15.474076 9.9609275 16.017578 9.0398954 16.017578 8 C 16.017578 6.3549904 14.662588 5 13.017578 5 z M 13.017578 7 C 13.581708 7 14.017578 7.4358706 14.017578 8 C 14.017578 8.5641294 13.581708 9 13.017578 9 C 12.453449 9 12.017578 8.5641294 12.017578 8 C 12.017578 7.4358706 12.453449 7 13.017578 7 z M 21.414062 9 L 25 9 C 26.116666 9 27 9.8833339 27 11 C 27 12.116666 26.116666 13 25 13 L 22.585938 13 L 10.585938 25 L 7.0175781 25 L 7 25 C 5.8833339 25 5 24.116666 5 23 C 5 21.883334 5.8833339 21 7 21 L 9.4140625 21 L 21.414062 9 z M 13.017578 12 C 13.572124 12 14.017578 12.445455 14.017578 13 L 14.017578 13.568359 L 12.017578 15.568359 L 12.017578 13 C 12.017578 12.445455 12.463033 12 13.017578 12 z" font-weight="400" font-family="sans-serif" white-space="normal" overflow="visible" fill="#000000"/></svg>
