<?xml version="1.0" encoding="utf-8"?>
<svg xmlns="http://www.w3.org/2000/svg" viewBox="0 0 32 32" fill="#000000"><path d="M 3.71875 2.28125 L 2.28125 3.71875 L 28.28125 29.71875 L 29.71875 28.28125 L 24 22.5625 L 24 20.625 L 28.5625 22.90625 L 30 23.625 L 30 22 L 30 10 L 30 8.375 L 28.5625 9.09375 L 24 11.375 L 24 8 L 9.4375 8 L 3.71875 2.28125 z M 2 8 L 2 24 L 20 24 L 18 22 L 4 22 L 4 10 L 6 10 L 4 8 L 2 8 z M 11.4375 10 L 22 10 L 22 12.375 L 22 13 L 22 19 L 22 19.625 L 22 20.5625 L 11.4375 10 z M 28 11.625 L 28 20.375 L 24 18.375 L 24 13.625 L 28 11.625 z" fill="#000000"/></svg>
