<?xml version="1.0" encoding="utf-8"?>
<svg xmlns="http://www.w3.org/2000/svg" viewBox="0 0 32 32" fill="#000000"><path style="line-height:normal;text-indent:0;text-align:start;text-decoration-line:none;text-decoration-style:solid;text-decoration-color:#000;text-transform:none;block-progression:tb;isolation:auto;mix-blend-mode:normal" d="M 9 4 L 9 5 L 5 5 L 5 6 L 5 27 L 27 27 L 27 5 L 23 5 L 23 4 L 21 4 L 21 5 L 11 5 L 11 4 L 9 4 z M 7 7 L 9 7 L 9 8 L 11 8 L 11 7 L 21 7 L 21 8 L 23 8 L 23 7 L 25 7 L 25 9 L 7 9 L 7 7 z M 7 11 L 25 11 L 25 25 L 7 25 L 7 11 z M 13 13 L 13 15 L 15 15 L 15 13 L 13 13 z M 18.050781 13 L 17 14.050781 L 18.949219 16 L 17 17.951172 L 18.050781 19 L 20 17.050781 L 21.951172 19 L 23 17.949219 L 21.050781 16 L 23 14.050781 L 21.949219 13 L 20 14.949219 L 18.050781 13 z M 9 17 L 9 19 L 11 19 L 11 17 L 9 17 z M 13 17 L 13 19 L 15 19 L 15 17 L 13 17 z M 9 21 L 9 23 L 11 23 L 11 21 L 9 21 z M 13 21 L 13 23 L 15 23 L 15 21 L 13 21 z M 17 21 L 17 23 L 19 23 L 19 21 L 17 21 z" fill="#000000"/></svg>
