<?xml version="1.0" encoding="utf-8"?>
<svg xmlns="http://www.w3.org/2000/svg" viewBox="0 0 32 32" fill="#000000"><path style="text-indent:0;text-align:start;line-height:normal;text-transform:none;block-progression:tb;-inkscape-font-specification:Bitstream Vera Sans" d="M 16 7 C 11.041282 7 7 11.041282 7 16 C 7 20.958718 11.041282 25 16 25 C 20.958718 25 25 20.958718 25 16 C 25 11.041282 20.958718 7 16 7 z M 16 9 C 19.877838 9 23 12.122162 23 16 C 23 19.877838 19.877838 23 16 23 C 12.122162 23 9 19.877838 9 16 C 9 12.122162 12.122162 9 16 9 z M 16 12 C 13.802706 12 12 13.802706 12 16 C 12 18.197294 13.802706 20 16 20 C 18.197294 20 20 18.197294 20 16 C 20 13.802706 18.197294 12 16 12 z M 16 14 C 17.116414 14 18 14.883586 18 16 C 18 17.116414 17.116414 18 16 18 C 14.883586 18 14 17.116414 14 16 C 14 14.883586 14.883586 14 16 14 z" overflow="visible" font-family="Bitstream Vera Sans" fill="#000000"/></svg>
