<?xml version="1.0" encoding="utf-8"?>
<svg xmlns="http://www.w3.org/2000/svg" viewBox="0 0 32 32" fill="#000000"><path style="text-indent:0;text-align:start;line-height:normal;text-transform:none;block-progression:tb;-inkscape-font-specification:Sans" d="M 22 4 L 22 6.09375 C 19.726705 6.5626344 18 8.5968155 18 11 C 18 12.422217 18.673552 13.590393 19.53125 14.5 C 20.388948 15.409607 21.437699 16.126824 22.4375 16.8125 C 23.437301 17.498176 24.388998 18.160809 25.03125 18.84375 C 25.673502 19.526691 26 20.164355 26 21 C 26 22.646043 24.663052 24 23 24 C 21.331516 24 20 22.668484 20 21 L 20 19 L 18 19 L 18 21 C 18 23.405826 19.727282 25.437902 22 25.90625 L 22 28 L 24 28 L 24 25.90625 C 26.275317 25.435492 28 23.393962 28 21 C 28 19.574645 27.326498 18.38084 26.46875 17.46875 C 25.611002 16.55666 24.562699 15.842199 23.5625 15.15625 C 22.562301 14.470301 21.611052 13.837424 20.96875 13.15625 C 20.326448 12.475076 20 11.830283 20 11 C 20 9.3364966 21.332723 8 23 8 C 24.668484 8 26 9.3315161 26 11 L 26 12 L 28 12 L 28 11 C 28 8.5941734 26.272718 6.5620977 24 6.09375 L 24 4 L 22 4 z M 9 6 C 6.2504839 6 4 8.2504839 4 11 L 4 21 C 4 23.749516 6.2504839 26 9 26 C 11.749516 26 14 23.749516 14 21 L 14 19 L 12 19 L 12 21 C 12 22.668484 10.668484 24 9 24 C 7.3315161 24 6 22.668484 6 21 L 6 11 C 6 9.3315161 7.3315161 8 9 8 C 10.668484 8 12 9.3315161 12 11 L 12 13 L 14 13 L 14 11 C 14 8.2504839 11.749516 6 9 6 z" overflow="visible" font-family="Sans" fill="#000000"/></svg>
