<?xml version="1.0" encoding="utf-8"?>
<svg xmlns="http://www.w3.org/2000/svg" viewBox="0 0 32 32" fill="#000000"><path style="text-indent:0;text-align:start;line-height:normal;text-transform:none;block-progression:tb;-inkscape-font-specification:Bitstream Vera Sans" d="M 16 3 C 15.229668 3 14.456943 3.2930571 13.875 3.875 L 13.75 4.03125 L 4.03125 13.75 L 3.875 13.875 C 2.7111141 15.038886 2.7111141 16.961114 3.875 18.125 L 13.875 28.125 C 15.039431 29.287942 16.961323 29.288677 18.125 28.125 L 28.125 18.125 C 29.288886 16.961114 29.288886 15.038886 28.125 13.875 L 18.125 3.875 C 17.543057 3.2930571 16.770332 3 16 3 z M 16 5 C 16.254168 5 16.518693 5.081193 16.71875 5.28125 L 26.71875 15.28125 C 27.118864 15.681364 27.118864 16.318636 26.71875 16.71875 L 16.71875 26.71875 C 16.320427 27.117073 15.680819 27.117808 15.28125 26.71875 L 5.28125 16.71875 C 4.8811359 16.318636 4.8811359 15.681364 5.28125 15.28125 L 15.28125 5.28125 C 15.481307 5.0811929 15.745832 5 16 5 z M 12.1875 10.90625 C 11.7875 11.60625 11.99375 12.1 12.09375 12.5 C 12.29375 12.7 12.6125 12.59375 12.8125 12.59375 C 12.7125 12.69375 12.5125 12.7125 12.3125 12.8125 C 12.472827 13.012909 12.820891 13.230849 13.21875 13.4375 C 11.481939 15.216508 8 16.09375 8 16.09375 L 15 23.09375 C 15.4 21.39375 17.00625 20.3125 17.40625 20.3125 C 17.80625 20.3125 18.09375 20.90625 18.59375 20.90625 C 18.79375 20.90625 19.39375 20.7 19.59375 20.5 C 20.19375 20.4 20.6 20.5 21 20 C 21.4 19.5 21.8 18.60625 21.5 18.40625 C 20.1 17.10625 19.59375 14.4875 19.09375 13.6875 C 18.767019 13.230077 17.722714 12.727538 16.78125 12.40625 C 17.307833 11.767944 17.814024 12.193598 18.59375 12.40625 C 19.69375 12.70625 20.59375 12.4125 20.59375 12.3125 C 20.59375 12.2125 19.8875 12.2125 19.1875 11.8125 C 18.2875 11.4125 18.00625 10.90625 16.90625 10.90625 C 16.50625 10.90625 15.90625 11.19375 15.40625 11.59375 C 15.268015 11.731985 15.059251 11.896238 14.875 12.09375 C 14.74375 11.934375 14.6 11.7875 14.5 11.6875 C 13.8 11.0875 13.0875 10.80625 12.1875 10.90625 z" overflow="visible" font-family="Bitstream Vera Sans" fill="#000000"/></svg>
