<?xml version="1.0" encoding="utf-8"?>
<svg xmlns="http://www.w3.org/2000/svg" viewBox="0 0 32 32" fill="#000000"><path style="text-indent:0;text-align:start;line-height:normal;text-transform:none;block-progression:tb;-inkscape-font-specification:Sans" d="M 16 4 C 9.9365932 4 5 8.9365932 5 15 C 5 17.980946 6.0081762 20.053005 6.9375 21.6875 C 7.8668238 23.321995 8.625 24.485223 8.625 26 L 7 26 L 7 28 L 11 28 L 11 26 C 11 22.247997 10 18.851039 10 15 C 10 11.478063 12.478063 9 16 9 C 19.521937 9 22 11.478063 22 15 C 22 18.851039 21 22.247997 21 26 L 21 28 L 25 28 L 25 26 L 23.375 26 C 23.375 24.5337 24.132574 23.36479 25.0625 21.71875 C 25.992426 20.07271 27 17.980946 27 15 C 27 8.9365932 22.063407 4 16 4 z M 16 6 C 20.982593 6 25 10.017407 25 15 C 25 17.277372 24.334665 18.795565 23.5625 20.21875 C 23.783683 18.584183 24 16.871164 24 15 C 24 10.487937 20.512063 7 16 7 C 11.487937 7 8 10.487937 8 15 C 8 16.859716 8.2179332 18.561864 8.4375 20.1875 C 7.6650028 18.77448 7 17.277372 7 15 C 7 10.017407 11.017407 6 16 6 z" overflow="visible" font-family="Sans" fill="#000000"/></svg>
