<?xml version="1.0" encoding="utf-8"?>
<svg xmlns="http://www.w3.org/2000/svg" viewBox="0 0 32 32" fill="#000000"><path style="text-indent:0;text-align:start;line-height:normal;text-transform:none;block-progression:tb;-inkscape-font-specification:Bitstream Vera Sans" d="M 16 4 C 13.791 4 12 5.791 12 8 C 12 9.1935574 12.514595 10.267083 13.34375 11 L 4 11 L 3 11 L 3 12 L 3 18 L 3 19 L 4 19 L 5 19 L 5 27 L 7 27 L 7 24 L 25 24 L 25 27 L 27 27 L 27 19 L 28 19 L 29 19 L 29 18 L 29 12 L 29 11 L 28 11 L 18.65625 11 C 19.485405 10.267083 20 9.1935574 20 8 C 20 5.791 18.209 4 16 4 z M 14 7 L 18 7 L 18 9 L 14 9 L 14 7 z M 5 13 L 6.84375 13 L 5 15.75 L 5 13 z M 9.34375 13 L 12.84375 13 L 10.15625 17 L 6.65625 17 L 9.34375 13 z M 15.34375 13 L 18.84375 13 L 16.15625 17 L 12.65625 17 L 15.34375 13 z M 21.34375 13 L 24.84375 13 L 22.15625 17 L 18.65625 17 L 21.34375 13 z M 27 13.5 L 27 17 L 24.65625 17 L 27 13.5 z M 7 19 L 25 19 L 25 22 L 7 22 L 7 19 z" fill="#000000"/></svg>
