<?xml version="1.0" encoding="utf-8"?>
<svg xmlns="http://www.w3.org/2000/svg" viewBox="0 0 32 32" fill="#000000"><path style="text-indent:0;text-align:start;line-height:normal;text-transform:none;block-progression:tb;-inkscape-font-specification:Bitstream Vera Sans" d="M 20.5625 4 C 18.655402 4.0000066 16.73036 4.7383901 15.28125 6.1875 L 6.1875 15.28125 C 3.2895079 18.180394 3.2892801 22.91428 6.1875 25.8125 C 9.0866439 28.710492 13.82053 28.71072 16.71875 25.8125 L 25.8125 16.71875 C 28.710492 13.819606 28.71072 9.0857199 25.8125 6.1875 C 24.362928 4.738504 22.469598 3.9999934 20.5625 4 z M 20.5625 6 C 21.953652 6.0000066 23.338822 6.526746 24.40625 7.59375 C 26.54003 9.7275301 26.540258 13.146394 24.40625 15.28125 L 20.5625 19.125 L 12.875 11.4375 L 16.46875 7.84375 L 16.71875 7.59375 C 17.78564 6.5268599 19.171348 5.9999934 20.5625 6 z M 11.4375 12.875 L 19.125 20.5625 L 15.28125 24.40625 C 13.14747 26.54003 9.7286061 26.540258 7.59375 24.40625 C 5.4599699 22.27247 5.4597421 18.853606 7.59375 16.71875 L 11.4375 12.875 z" overflow="visible" font-family="Bitstream Vera Sans" fill="#000000"/></svg>
