<?xml version="1.0" encoding="utf-8"?>
<svg xmlns="http://www.w3.org/2000/svg" viewBox="0 0 32 32" fill="#000000"><path d="M 21 3.6875 C 19.69778 3.6875 18.393916 4.1998341 17.40625 5.1875 L 12.28125 10.28125 L 12.21875 10.34375 L 12.1875 10.40625 L 7.1875 17.40625 L 6.6875 18.09375 L 7.28125 18.71875 L 7.78125 19.21875 L 6.09375 22.5625 L 5.78125 23.1875 L 6.28125 23.71875 L 6.5625 24 L 4 26.59375 L 5.40625 28 L 8 25.4375 L 8.28125 25.71875 L 8.8125 26.21875 L 9.4375 25.90625 L 12.78125 24.21875 L 13.28125 24.71875 L 13.90625 25.3125 L 14.59375 24.8125 L 21.59375 19.8125 L 21.65625 19.78125 L 21.71875 19.71875 L 26.8125 14.59375 C 28.787832 12.618418 28.787832 9.3815819 26.8125 7.40625 L 26.59375 7.1875 L 24.59375 5.1875 C 23.606084 4.1998341 22.30222 3.6875 21 3.6875 z M 21 5.6875 C 21.78628 5.6875 22.582166 5.9884159 23.1875 6.59375 L 23.875 7.3125 L 25.40625 8.8125 C 26.616918 10.023168 26.616918 11.976832 25.40625 13.1875 L 20.40625 18.1875 L 20.28125 18.28125 L 14.125 22.6875 L 9.3125 17.875 L 13.71875 11.71875 L 13.75 11.6875 L 13.8125 11.59375 L 18.8125 6.59375 C 19.417834 5.9884159 20.21372 5.6875 21 5.6875 z M 21 6.5625 C 20.388746 6.5625 19.773098 6.8206519 19.3125 7.28125 L 15.28125 11.28125 L 14.59375 12 L 15.28125 12.71875 L 19.28125 16.71875 L 20 17.40625 L 20.71875 16.71875 L 24.71875 12.6875 C 25.639946 11.766304 25.639946 10.233696 24.71875 9.3125 L 22.6875 7.28125 C 22.226902 6.8206519 21.611254 6.5625 21 6.5625 z M 21 8.5625 C 21.101424 8.5625 21.202848 8.6090981 21.28125 8.6875 L 23.3125 10.71875 C 23.469304 10.875554 23.469304 11.124446 23.3125 11.28125 L 20 14.5625 L 17.4375 12 L 20.71875 8.6875 C 20.797152 8.6090981 20.898576 8.5625 21 8.5625 z M 13 15 C 12.447715 15 12 15.447715 12 16 C 12 16.552285 12.447715 17 13 17 C 13.552285 17 14 16.552285 14 16 C 14 15.447715 13.552285 15 13 15 z M 16 15 C 15.447715 15 15 15.447715 15 16 C 15 16.552285 15.447715 17 16 17 C 16.552285 17 17 16.552285 17 16 C 17 15.447715 16.552285 15 16 15 z M 13 18 C 12.447715 18 12 18.447715 12 19 C 12 19.552285 12.447715 20 13 20 C 13.552285 20 14 19.552285 14 19 C 14 18.447715 13.552285 18 13 18 z M 16 18 C 15.447715 18 15 18.447715 15 19 C 15 19.552285 15.447715 20 16 20 C 16.552285 20 17 19.552285 17 19 C 17 18.447715 16.552285 18 16 18 z M 9.28125 20.71875 L 11.28125 22.71875 L 9.21875 23.78125 L 8.21875 22.78125 L 9.28125 20.71875 z" fill="#000000"/></svg>
