<?xml version="1.0" encoding="utf-8"?>
<svg xmlns="http://www.w3.org/2000/svg" viewBox="0 0 32 32" fill="#000000"><path style="text-indent:0;text-align:start;line-height:normal;text-transform:none;block-progression:tb;-inkscape-font-specification:Sans" d="M 21 4 L 21 6.09375 C 18.726705 6.5626344 17 8.5968155 17 11 C 17 12.422217 17.673552 13.590393 18.53125 14.5 C 19.388948 15.409607 20.437699 16.126824 21.4375 16.8125 C 22.437301 17.498176 23.388998 18.160809 24.03125 18.84375 C 24.673502 19.526691 25 20.164355 25 21 C 25 22.646043 23.663052 24 22 24 C 20.331516 24 19 22.668484 19 21 L 19 19 L 17 19 L 17 21 C 17 23.405826 18.727282 25.437902 21 25.90625 L 21 28 L 23 28 L 23 25.90625 C 25.275317 25.435492 27 23.393962 27 21 C 27 19.574645 26.326498 18.38084 25.46875 17.46875 C 24.611002 16.55666 23.562699 15.842199 22.5625 15.15625 C 21.562301 14.470301 20.611052 13.837424 19.96875 13.15625 C 19.326448 12.475076 19 11.830283 19 11 C 19 9.3364966 20.332723 8 22 8 C 23.668484 8 25 9.3315161 25 11 L 25 12 L 27 12 L 27 11 C 27 8.5941734 25.272718 6.5620977 23 6.09375 L 23 4 L 21 4 z M 8 6 L 3 26 L 5 26 L 6.25 21 L 11.75 21 L 13 26 L 15 26 L 10 6 L 8 6 z M 9 10 L 11.25 19 L 6.75 19 L 9 10 z" overflow="visible" font-family="Sans" fill="#000000"/></svg>
