<?xml version="1.0" encoding="utf-8"?>
<svg xmlns="http://www.w3.org/2000/svg" viewBox="0 0 32 32" fill="#000000"><path style="text-indent:0;text-align:start;line-height:normal;text-transform:none;block-progression:tb;-inkscape-font-specification:Bitstream Vera Sans" d="M 11.4375 4.1875 C 11.4375 4.1875 6 7.9614035 6 16 C 6 24.038596 11.4375 27.8125 11.4375 27.8125 L 12.5625 26.1875 C 12.5625 26.1875 8 23.161404 8 16 C 8 8.8385965 12.5625 5.8125 12.5625 5.8125 L 11.4375 4.1875 z M 20.5625 4.1875 L 19.4375 5.8125 C 19.4375 5.8125 24 8.8385965 24 16 C 24 23.161404 19.4375 26.1875 19.4375 26.1875 L 20.5625 27.8125 C 20.5625 27.8125 26 24.038596 26 16 C 26 7.9614035 20.5625 4.1875 20.5625 4.1875 z M 16 7.84375 L 15.53125 8.125 C 15.53125 8.125 11 10.644444 11 16 C 11 21.355556 15.53125 23.875 15.53125 23.875 L 16 24.15625 L 16.46875 23.875 C 16.46875 23.875 21 21.355556 21 16 C 21 10.644444 16.46875 8.125 16.46875 8.125 L 16 7.84375 z M 16 10.28125 C 16.71118 10.734021 19 12.337808 19 16 C 19 17.89355 18.408091 19.237877 17.71875 20.15625 C 17.891838 19.542486 18 18.834249 18 18 C 18 14.5 16 13 16 13 C 16 13 14 14.5 14 18 C 14 18.834249 14.108162 19.542486 14.28125 20.15625 C 13.591909 19.237877 13 17.89355 13 16 C 13 12.337808 15.28882 10.734021 16 10.28125 z" overflow="visible" font-family="Bitstream Vera Sans" fill="#000000"/></svg>
