<?xml version="1.0" encoding="utf-8"?>
<svg xmlns="http://www.w3.org/2000/svg" viewBox="0 0 32 32" fill="#000000"><path style="text-indent:0;text-align:start;line-height:normal;text-transform:none;block-progression:tb;-inkscape-font-specification:Bitstream Vera Sans" d="M 14 6 C 13.1 6 12.43754 6.4999556 11.84375 7.15625 C 11.255615 7.8062939 10.773449 8.6857199 10.53125 9.75 C 10.52895 9.760234 10.53355 9.770983 10.53125 9.78125 C 10.26961 10.7809 9.9001413 12.508595 9.59375 14 C 8.8931425 13.395867 7.9981047 13 7 13 C 4.7901961 13 3 14.790196 3 17 C 3 19.103846 3.5424986 21.47499 5.53125 23.21875 C 7.5200014 24.96251 10.766013 26 16 26 C 21.237255 26 24.514607 24.942702 26.5 23.1875 C 28.485393 21.432298 29 19.057895 29 17 C 29 14.790196 27.209804 13 25 13 C 24.009171 13 23.104811 13.372485 22.40625 13.96875 A 1.0001 1.0001 0 0 0 22.375 13.9375 C 22.374454 13.934962 22.344297 13.940041 22.34375 13.9375 C 21.989202 12.289185 21.704987 10.903373 21.46875 9.78125 C 21.231774 8.6556129 20.728485 7.7448781 20.125 7.09375 C 19.521515 6.4426219 18.858333 6 18 6 C 17.183333 6 16.64722 6.4164113 16.28125 6.6875 C 16.154045 6.781726 16.083678 6.8463564 16 6.90625 C 15.916322 6.8463564 15.845955 6.781726 15.71875 6.6875 C 15.35278 6.4164113 14.816667 6 14 6 z M 14 8 C 13.98333 8 14.22222 8.083589 14.53125 8.3125 C 14.685765 8.4269557 14.847986 8.5520175 15.0625 8.6875 C 15.277014 8.8229825 15.541667 9 16 9 C 16.458333 9 16.722986 8.8229825 16.9375 8.6875 C 17.152014 8.5520175 17.314235 8.4269557 17.46875 8.3125 C 17.77778 8.0835887 18.016667 8 18 8 C 17.94167 8 18.309735 8.094878 18.65625 8.46875 C 19.002765 8.8426219 19.368226 9.4443871 19.53125 10.21875 C 19.807502 11.530948 20.211109 13.39907 20.5625 15.03125 C 20.509769 15.065115 20.468583 15.088865 20.40625 15.125 C 19.728719 15.517771 18.419281 16 16 16 C 13.580719 16 12.271281 15.517771 11.59375 15.125 C 11.516512 15.080224 11.468853 15.041227 11.40625 15 C 11.748585 13.339674 12.180654 11.344765 12.46875 10.25 A 1.0001 1.0001 0 0 0 12.46875 10.21875 C 12.629192 9.4967606 12.98754 8.8937056 13.34375 8.5 C 13.69996 8.1062944 14.1 8 14 8 z M 7 15 C 8.1584777 15 8.958285 15.767804 9 16.90625 C 9.0003807 16.91664 8.9997456 16.927048 9 16.9375 A 1.0001 1.0001 0 0 0 9.03125 17.5 A 1.0001 1.0001 0 0 0 9.0625 17.59375 C 9.2583638 19.54291 10.356544 20.845847 11.6875 21.40625 C 13.152575 22.023124 14.75 22 16 22 C 17.276667 22 18.892892 21.98518 20.34375 21.34375 C 21.693117 20.747188 22.816275 19.396878 22.96875 17.4375 A 1.0001 1.0001 0 0 0 23 17 C 23 16.989427 22.999872 16.979262 23 16.96875 A 1.0001 1.0001 0 0 0 23 16.84375 C 23.067932 15.739518 23.862668 15 25 15 C 26.190196 15 27 15.809804 27 17 C 27 18.742105 26.620857 20.392702 25.15625 21.6875 C 23.691643 22.982298 20.962745 24 16 24 C 11.033987 24 8.3049986 22.99999 6.84375 21.71875 C 5.3825014 20.43751 5 18.796154 5 17 C 5 15.809804 5.8098039 15 7 15 z M 11 17.0625 C 12.059728 17.579866 13.61721 18 16 18 C 18.38279 18 19.940272 17.579866 21 17.0625 C 20.985159 18.603725 20.442596 19.097089 19.53125 19.5 C 18.607108 19.908568 17.223333 20 16 20 C 14.75 20 13.347425 19.976876 12.4375 19.59375 C 11.539515 19.215651 11.013639 18.717367 11 17.0625 z" overflow="visible" font-family="Bitstream Vera Sans" fill="#000000"/></svg>
