<?xml version="1.0" encoding="utf-8"?>
<svg xmlns="http://www.w3.org/2000/svg" viewBox="0 0 32 32" fill="#000000"><path style="text-indent:0;text-align:start;line-height:normal;text-transform:none;block-progression:tb;-inkscape-font-specification:Sans" d="M 3 5 L 3 6 L 3 22 L 3 23 L 4 23 L 8 23 L 8 26 L 8 28.09375 L 9.625 26.78125 L 14.34375 23 L 28 23 L 29 23 L 29 22 L 29 6 L 29 5 L 28 5 L 4 5 L 3 5 z M 5 7 L 27 7 L 27 21 L 14 21 L 13.65625 21 L 13.375 21.21875 L 10 23.90625 L 10 22 L 10 21 L 9 21 L 5 21 L 5 7 z M 10 11 L 10 12 L 10 16 L 10 17 L 11 17 L 17 17 L 18 17 L 18 16 L 18 15.1875 L 20.375 16.8125 L 20.625 17 L 20.9375 17 L 21 17 L 22 17 L 22 16 L 22 12 L 22 11 L 21 11 L 20.9375 11 L 20.625 11 L 20.375 11.1875 L 18 12.8125 L 18 12 L 18 11 L 17 11 L 11 11 L 10 11 z M 12 13 L 16 13 L 16 15 L 12 15 L 12 13 z M 20 13.84375 L 20 14.15625 L 19.75 14 L 20 13.84375 z" overflow="visible" font-family="Sans" fill="#000000"/></svg>
