<?xml version="1.0" encoding="utf-8"?>
<svg xmlns="http://www.w3.org/2000/svg" viewBox="0 0 32 32" fill="#000000"><path style="text-indent:0;text-align:start;line-height:normal;text-transform:none;block-progression:tb;-inkscape-font-specification:Bitstream Vera Sans" d="M 6 3 L 6 4 L 6 10 L 8 10 L 8 5 L 24 5 L 24 10 L 26 10 L 26 4 L 26 3 L 25 3 L 7 3 L 6 3 z M 9.15625 12 L 8.9375 12.6875 L 7.03125 18.6875 L 7 18.84375 L 7 19 L 7 20 L 9 20 L 9 19.21875 L 9.0625 19 L 10.9375 19 L 11 19.21875 L 11 20 L 13 20 L 13 19 L 13 18.84375 L 12.96875 18.6875 L 11.0625 12.6875 L 10.84375 12 L 10.09375 12 L 9.90625 12 L 9.15625 12 z M 16.5 12 C 15.116667 12 14 13.116667 14 14.5 C 14 15.883333 15.116667 17 16.5 17 C 16.716667 17 17 17.283333 17 17.5 C 17 17.8 16.881481 18 16.5 18 C 16.131818 18 16.075546 17.91998 16.0625 17.90625 C 16.049454 17.892518 16 17.827083 16 17.59375 L 14 17.59375 C 14 18.160417 14.163046 18.794982 14.625 19.28125 C 15.086954 19.767518 15.768182 20 16.5 20 C 17.918519 20 19 18.8 19 17.5 C 19 16.116667 17.883333 15 16.5 15 C 16.283333 15 16 14.716667 16 14.5 C 16 14.283333 16.283333 14 16.5 14 C 16.766667 14 16.847593 14.06341 16.90625 14.125 C 16.964907 14.18659 17 14.294345 17 14.40625 L 19 14.40625 C 19 13.818155 18.785093 13.21341 18.34375 12.75 C 17.902407 12.28659 17.233333 12 16.5 12 z M 22.5 12 C 21.116667 12 20 13.116667 20 14.5 L 20 17.5 C 20 18.883333 21.116667 20 22.5 20 C 23.883333 20 25 18.883333 25 17.5 L 25 17 L 23 17 L 23 17.5 C 23 17.716667 22.716667 18 22.5 18 C 22.283333 18 22 17.716667 22 17.5 L 22 14.5 C 22 14.283333 22.283333 14 22.5 14 C 22.716667 14 23 14.283333 23 14.5 L 23 15 L 25 15 L 25 14.5 C 25 13.116667 23.883333 12 22.5 12 z M 10 16 L 10.3125 17 L 9.6875 17 L 10 16 z M 6 22 L 6 28 L 6 29 L 7 29 L 25 29 L 26 29 L 26 28 L 26 22 L 24 22 L 24 27 L 8 27 L 8 22 L 6 22 z" overflow="visible" font-family="Bitstream Vera Sans" fill="#000000"/></svg>
