<?xml version="1.0" encoding="utf-8"?>
<svg xmlns="http://www.w3.org/2000/svg" viewBox="0 0 32 32" fill="#000000"><path style="text-indent:0;text-align:start;line-height:normal;text-transform:none;block-progression:tb;-inkscape-font-specification:Sans" d="M 16 4 C 9.3845336 4 4 9.3845336 4 16 C 4 20.051004 6.0105142 23.641038 9.09375 25.8125 L 10.25 24.1875 C 7.6792358 22.376962 6 19.388996 6 16 C 6 10.465466 10.465466 6 16 6 C 21.534534 6 26 10.465466 26 16 C 26 19.389176 24.320802 22.376935 21.75 24.1875 L 22.90625 25.8125 C 25.989448 23.641065 28 20.050824 28 16 C 28 9.3845336 22.615466 4 16 4 z M 15 12 L 15 24.1875 L 12.71875 21.90625 L 11.28125 23.34375 L 15.28125 27.34375 L 16 28.03125 L 16.71875 27.34375 L 20.71875 23.34375 L 19.28125 21.90625 L 17 24.1875 L 17 12 L 15 12 z" overflow="visible" font-family="Sans" fill="#000000"/></svg>
