<?xml version="1.0" encoding="utf-8"?>
<svg xmlns="http://www.w3.org/2000/svg" viewBox="0 0 32 32" fill="#000000"><path style="text-indent:0;text-align:start;line-height:normal;text-transform:none;block-progression:tb;-inkscape-font-specification:Sans" d="M 5 4 L 5 5 L 5 27 L 5 28 L 6 28 L 14 28 L 15 28 L 15 27 L 15 5 L 15 4 L 14 4 L 6 4 L 5 4 z M 17 4 L 17 5 L 17 27 L 17 28 L 18 28 L 26 28 L 27 28 L 27 27 L 27 5 L 27 4 L 26 4 L 18 4 L 17 4 z M 7 6 L 13 6 L 13 26 L 7 26 L 7 6 z M 19 6 L 25 6 L 25 26 L 19 26 L 19 6 z M 9 8 L 9 18 L 11 18 L 11 8 L 9 8 z M 21 8 L 21 18 L 23 18 L 23 8 L 21 8 z M 10 20.5 C 9.1715729 20.5 8.5 21.171573 8.5 22 C 8.5 22.828427 9.1715729 23.5 10 23.5 C 10.828427 23.5 11.5 22.828427 11.5 22 C 11.5 21.171573 10.828427 20.5 10 20.5 z M 22 20.5 C 21.171573 20.5 20.5 21.171573 20.5 22 C 20.5 22.828427 21.171573 23.5 22 23.5 C 22.828427 23.5 23.5 22.828427 23.5 22 C 23.5 21.171573 22.828427 20.5 22 20.5 z" overflow="visible" font-family="Sans" fill="#000000"/></svg>
