<?xml version="1.0" encoding="utf-8"?>
<svg xmlns="http://www.w3.org/2000/svg" viewBox="0 0 32 32" fill="#000000"><path style="text-indent:0;text-align:start;line-height:normal;text-transform:none;block-progression:tb;-inkscape-font-specification:Sans" d="M 15 3 L 15 4.625 C 13.039927 4.8321374 10.538238 5.6082394 8.21875 6.90625 C 5.5048972 8.4249511 3 10.6625 3 13.65625 C 3 15.439583 4.4505401 17 6.34375 17 C 7.2493056 17 8.0306595 16.620166 8.625 16.09375 C 8.6359912 16.084015 8.6453472 16.072348 8.65625 16.0625 C 9.2425163 16.676084 10.08961 17 11 17 C 11.98833 17 12.819463 16.582428 13.40625 16.03125 C 13.821836 16.425654 14.364979 16.71944 15 16.875 L 15 23.59375 C 13.464887 23.871893 12.40625 24.6875 12.40625 24.6875 L 13.59375 26.3125 C 13.59375 26.3125 14.75404 25.5 16 25.5 C 17.24596 25.5 18.40625 26.3125 18.40625 26.3125 L 19.59375 24.6875 C 19.59375 24.6875 18.535113 23.871893 17 23.59375 L 17 16.84375 C 17.561152 16.687405 18.053831 16.428824 18.4375 16.09375 C 19.022461 16.686763 19.855409 17 20.75 17 C 21.756448 17 22.599984 16.56682 23.1875 16 C 23.229181 16.039184 23.26917 16.08786 23.3125 16.125 C 23.919121 16.644961 24.715972 17 25.59375 17 C 27.462269 17 29 15.4975 29 13.6875 C 29 10.705 26.537834 8.4712346 23.84375 6.9375 C 21.537504 5.6245605 19.008215 4.8328629 17 4.625 L 17 3 L 15 3 z M 15.9375 7 C 16.07006 7.1867681 16.188987 7.2811294 16.34375 7.59375 C 16.85439 8.6252443 17.430857 10.441599 17.5 13.40625 A 1.0001 1.0001 0 0 0 17.5 13.59375 C 17.502181 13.731117 17.5 13.85773 17.5 14 C 17.5 14.015 17.41167 14.323792 17.15625 14.5625 C 16.900832 14.801208 16.534193 15 16 15 C 14.910464 15 14.5 14.125294 14.5 14 C 14.5 13.857902 14.498167 13.73079 14.5 13.59375 C 14.500423 13.562125 14.499482 13.531358 14.5 13.5 C 14.553888 10.236741 15.122983 8.4013722 15.625 7.4375 C 15.751791 7.1940621 15.828685 7.1465729 15.9375 7 z M 18.46875 7.625 C 18.680904 7.7477916 18.846351 7.7881848 19.0625 7.9375 C 20.63571 9.0242713 22.115831 10.733487 22.21875 13.6875 C 22.193355 13.923315 22.092282 14.249797 21.875 14.5 C 21.63093 14.78105 21.32549 15 20.75 15 C 20.27619 15 20.031615 14.859265 19.84375 14.65625 C 19.655885 14.453235 19.5 14.123348 19.5 13.59375 A 1.0001 1.0001 0 0 0 19.46875 13.3125 C 19.39978 10.721702 18.986137 8.9425484 18.46875 7.625 z M 13.375 7.96875 C 12.940433 9.2487181 12.593349 10.897346 12.53125 13.3125 C 12.530975 13.323176 12.531512 13.333043 12.53125 13.34375 A 1.0001 1.0001 0 0 0 12.5 13.53125 A 1.0001 1.0001 0 0 0 12.5 13.59375 C 12.5 13.827083 12.36907 14.21895 12.125 14.5 C 11.88093 14.78105 11.57549 15 11 15 C 10.52619 15 10.281615 14.859265 10.09375 14.65625 C 9.9058854 14.453235 9.75 14.123348 9.75 13.59375 A 1.0001 1.0001 0 0 0 9.71875 13.34375 A 1.0001 1.0001 0 0 0 9.71875 13.3125 C 9.9561449 10.931496 11.407163 9.3090483 12.9375 8.1875 C 13.155286 8.0278899 13.16092 8.1045424 13.375 7.96875 z M 10.21875 8.21875 C 8.874012 9.6662097 7.6875 11.450445 7.6875 14 C 7.6875 14.02407 7.593159 14.345166 7.3125 14.59375 C 7.0318405 14.842334 6.6381944 15 6.34375 15 C 5.5369599 15 5 14.372917 5 13.65625 C 5 11.85 6.7638528 10.012549 9.1875 8.65625 C 9.5183232 8.4711178 9.8726111 8.3822545 10.21875 8.21875 z M 22.15625 8.375 C 22.38281 8.489981 22.625018 8.5317263 22.84375 8.65625 C 25.243666 10.022515 27 11.87 27 13.6875 C 27 14.3775 26.425231 15 25.59375 15 C 25.271528 15 24.893379 14.855039 24.625 14.625 C 24.356621 14.394961 24.25 14.116667 24.25 14 C 24.25 13.861082 24.255816 13.728027 24.25 13.59375 A 1.0001 1.0001 0 0 0 24.21875 13.3125 C 24.061842 11.19162 23.191959 9.654743 22.15625 8.375 z M 6 24 C 5.4477153 24 5 24.447715 5 25 C 5 25.552285 5.4477153 26 6 26 C 6.5522847 26 7 25.552285 7 25 C 7 24.447715 6.5522847 24 6 24 z M 10 24 C 9.4477153 24 9 24.447715 9 25 C 9 25.552285 9.4477153 26 10 26 C 10.552285 26 11 25.552285 11 25 C 11 24.447715 10.552285 24 10 24 z M 22 24 C 21.447715 24 21 24.447715 21 25 C 21 25.552285 21.447715 26 22 26 C 22.552285 26 23 25.552285 23 25 C 23 24.447715 22.552285 24 22 24 z M 26 24 C 25.447715 24 25 24.447715 25 25 C 25 25.552285 25.447715 26 26 26 C 26.552285 26 27 25.552285 27 25 C 27 24.447715 26.552285 24 26 24 z M 8 27 C 7.4477153 27 7 27.447715 7 28 C 7 28.552285 7.4477153 29 8 29 C 8.5522847 29 9 28.552285 9 28 C 9 27.447715 8.5522847 27 8 27 z M 12 27 C 11.447715 27 11 27.447715 11 28 C 11 28.552285 11.447715 29 12 29 C 12.552285 29 13 28.552285 13 28 C 13 27.447715 12.552285 27 12 27 z M 16 27 C 15.447715 27 15 27.447715 15 28 C 15 28.552285 15.447715 29 16 29 C 16.552285 29 17 28.552285 17 28 C 17 27.447715 16.552285 27 16 27 z M 20 27 C 19.447715 27 19 27.447715 19 28 C 19 28.552285 19.447715 29 20 29 C 20.552285 29 21 28.552285 21 28 C 21 27.447715 20.552285 27 20 27 z M 24 27 C 23.447715 27 23 27.447715 23 28 C 23 28.552285 23.447715 29 24 29 C 24.552285 29 25 28.552285 25 28 C 25 27.447715 24.552285 27 24 27 z" fill="#000000"/></svg>
