<?xml version="1.0" encoding="utf-8"?>
<svg xmlns="http://www.w3.org/2000/svg" viewBox="0 0 32 32" fill="#000000"><path style="text-indent:0;text-align:start;line-height:normal;text-transform:none;block-progression:tb;-inkscape-font-specification:Bitstream Vera Sans" d="M 17 3.59375 L 16.28125 4.28125 L 14.5625 6 L 13 6 L 12 6 L 12 7 L 12 11.78125 C 12 11.916645 11.916645 12 11.78125 12 C 7.9647199 12 4.5154506 14.74367 4.0625 18.59375 C 3.5310302 23.110098 7.0714555 27 11.5 27 C 11.877771 27 12.233738 26.957595 12.59375 26.90625 C 13.565605 27.584666 14.730878 28 16 28 C 17.269122 28 18.434395 27.584666 19.40625 26.90625 C 20.616953 27.085133 21.930133 26.990092 23.28125 26.4375 C 25.723834 25.438104 27.569294 23.205193 27.9375 20.5625 C 28.576026 15.979529 24.983605 12 20.5 12 L 20.21875 12 C 20.083355 12 20 11.916645 20 11.78125 L 20 7 L 20 6.59375 L 19.71875 6.28125 L 17.71875 4.28125 L 17 3.59375 z M 17 6.4375 L 18 7.4375 L 18 11.78125 C 18 12.999855 19.000145 14 20.21875 14 L 20.5 14 C 23.810395 14 26.414974 16.854221 25.9375 20.28125 C 25.673706 22.174557 24.326666 23.859146 22.53125 24.59375 C 22.079897 24.778348 21.642144 24.877994 21.21875 24.9375 C 21.715263 24.064872 22 23.071173 22 22 C 22 17.78716 18.5 15.34375 18.5 15.34375 L 17.34375 17 C 17.34375 17 20 18.90484 20 22 C 20 24.220375 18.220375 26 16 26 C 13.779625 26 12 24.220375 12 22 C 12 21.170256 12.275227 20.398783 12.71875 19.75 L 11.0625 18.625 C 10.404023 19.588217 10 20.749744 10 22 C 10 23.071173 10.284737 24.064872 10.78125 24.9375 C 7.8665241 24.554528 5.6647945 21.926582 6.03125 18.8125 C 6.3582994 16.03258 8.9217801 14 11.78125 14 C 12.999855 14 14 12.999855 14 11.78125 L 14 8 L 15 8 L 15.40625 8 L 15.71875 7.71875 L 17 6.4375 z" overflow="visible" font-family="Bitstream Vera Sans" fill="#000000"/></svg>
