<?xml version="1.0" encoding="utf-8"?>
<svg xmlns="http://www.w3.org/2000/svg" viewBox="0 0 32 32" fill="#000000"><path style="text-indent:0;text-align:start;line-height:normal;text-transform:none;block-progression:tb;-inkscape-font-specification:Bitstream Vera Sans" d="M 3.71875 2.28125 L 2.28125 3.71875 L 28.28125 29.71875 L 29.71875 28.28125 L 24 22.5625 L 24 6 C 24 4.897 23.103 4 22 4 L 10 4 C 8.897 4 8 4.897 8 6 L 8 6.5625 L 3.71875 2.28125 z M 10 6 L 22 6 L 22 20.5625 L 10 8.5625 L 10 6 z M 8 12.1875 L 8 26 C 8 27.103 8.897 28 10 28 L 22 28 C 22.507 28 22.9595 27.812 23.3125 27.5 L 21.8125 26 L 10 26 L 10 14.1875 L 8 12.1875 z M 14 23 L 14 25 L 18 25 L 18 23 L 14 23 z" overflow="visible" font-family="Bitstream Vera Sans" fill="#000000"/></svg>
