<?xml version="1.0" encoding="utf-8"?>
<svg xmlns="http://www.w3.org/2000/svg" viewBox="0 0 32 32" fill="#000000"><path style="line-height:normal;text-indent:0;text-align:start;text-decoration-line:none;text-decoration-style:solid;text-decoration-color:#000;text-transform:none;block-progression:tb;isolation:auto;mix-blend-mode:normal" d="M 4.7421875 7 C 3.1384689 7 2 8.4710187 2 10.068359 L 2 28 L 7.1875 28 C 7.6048587 29.15733 8.7068414 30 10 30 C 11.293159 30 12.395141 29.15733 12.8125 28 L 22.1875 28 C 22.604859 29.15733 23.706841 30 25 30 C 26.293159 30 27.395141 29.15733 27.8125 28 L 30 28 L 30 19.791016 L 29.986328 19.708984 C 29.986328 19.708984 29.479455 16.683454 28.447266 13.619141 C 27.931169 12.086982 27.291378 10.538258 26.455078 9.296875 C 25.618778 8.0554919 24.494792 7 23 7 L 4.7421875 7 z M 4.7421875 9 L 23 9 C 23.505208 9 24.131222 9.4288841 24.794922 10.414062 C 24.914268 10.591218 25.029067 10.797155 25.144531 11 L 22 11 L 22 13 L 26.089844 13 C 26.253254 13.411332 26.409553 13.830791 26.552734 14.255859 C 26.638168 14.509491 26.699517 14.748574 26.777344 15 L 6 15 L 6 21 L 28 21 L 28 26 L 27.8125 26 C 27.395141 24.84267 26.293159 24 25 24 C 23.706841 24 22.604859 24.84267 22.1875 26 L 12.8125 26 C 12.395141 24.84267 11.293159 24 10 24 C 8.7068414 24 7.6048587 24.84267 7.1875 26 L 4 26 L 4 10.068359 C 4 9.3817017 4.4219061 9 4.7421875 9 z M 6 11 L 6 13 L 9 13 L 9 11 L 6 11 z M 10 11 L 10 13 L 13 13 L 13 11 L 10 11 z M 14 11 L 14 13 L 17 13 L 17 11 L 14 11 z M 18 11 L 18 13 L 21 13 L 21 11 L 18 11 z M 8 17 L 21.75 17 L 21.75 19 L 8 19 L 8 17 z M 23.75 17 L 27.34375 17 C 27.590232 17.978487 27.697765 18.472335 27.800781 19 L 23.75 19 L 23.75 17 z M 10 26 C 10.564129 26 11 26.435871 11 27 C 11 27.564129 10.564129 28 10 28 C 9.4358706 28 9 27.564129 9 27 C 9 26.435871 9.4358706 26 10 26 z M 25 26 C 25.564129 26 26 26.435871 26 27 C 26 27.564129 25.564129 28 25 28 C 24.435871 28 24 27.564129 24 27 C 24 26.435871 24.435871 26 25 26 z" fill="#000000"/></svg>
