<?xml version="1.0" encoding="utf-8"?>
<svg xmlns="http://www.w3.org/2000/svg" viewBox="0 0 32 32" fill="#000000"><path style="text-indent:0;text-align:start;line-height:normal;text-transform:none;block-progression:tb;-inkscape-font-specification:Bitstream Vera Sans" d="M 16 4 C 13.802666 4 12 5.8026661 12 8 L 9.09375 8 L 7.90625 21 L 24.09375 21 L 22.90625 8 L 20.9375 8 L 21.90625 19 L 10.09375 19 L 10.90625 10 L 12 10 L 12 11.65625 L 14 11.65625 L 14 10 L 14 8 C 14 6.8833339 14.883334 6 16 6 C 17.116666 6 18 6.8833339 18 8 L 15 8 L 15 10 L 18 10 L 18 11.65625 L 20 11.65625 L 20 8 C 20 5.8026661 18.197334 4 16 4 z M 4 19 L 4 22.15625 L 4 22.8125 L 4.59375 23.09375 L 15.59375 27.90625 L 16 28.09375 L 16.40625 27.90625 L 27.40625 23.09375 L 28 22.8125 L 28 22.15625 L 28 19 L 26 19 L 26 21.5 L 16 25.90625 L 6 21.5 L 6 19 L 4 19 z" overflow="visible" font-family="Bitstream Vera Sans" fill="#000000"/></svg>
