<?xml version="1.0" encoding="utf-8"?>
<svg xmlns="http://www.w3.org/2000/svg" viewBox="0 0 32 32" fill="#000000"><path style="text-indent:0;text-align:start;line-height:normal;text-transform:none;block-progression:tb;-inkscape-font-specification:Sans" d="M 10 3 C 10 9.042 16 9 16 9 C 14.484431 9 13.178058 9.8718028 12.5 11.125 C 11.821942 9.8718028 10.515569 9 9 9 C 6.8027056 9 5 10.802706 5 13 C 5 15.197294 6.8027056 17 9 17 C 9.200483 17 9.4009063 16.966445 9.59375 16.9375 C 9.2226927 17.543665 9 18.242215 9 19 C 9 21.059362 10.586018 22.730583 12.59375 22.9375 C 12.222693 23.543665 12 24.242215 12 25 C 12 27.197294 13.802706 29 16 29 C 18.197294 29 20 27.197294 20 25 C 20 24.242215 19.777307 23.543665 19.40625 22.9375 C 21.413982 22.730583 23 21.059362 23 19 C 23 18.257709 22.794672 17.566691 22.4375 16.96875 C 22.61959 16.995036 22.810554 17 23 17 C 25.197294 17 27 15.197294 27 13 C 27 10.802706 25.197294 9 23 9 C 21.484431 9 20.178058 9.8718028 19.5 11.125 C 18.859496 9.9412106 17.658526 9.0897995 16.25 9 C 17.398438 8.9254336 22 8.28675 22 3 C 16.75 3 16.082031 7.6015625 16 8.75 C 15.917969 7.6015625 15.25 3 10 3 z M 9 11 C 10.116414 11 11 11.883586 11 13 C 11 14.116414 10.116414 15 9 15 C 7.883586 15 7 14.116414 7 13 C 7 11.883586 7.883586 11 9 11 z M 16 11 C 17.116414 11 18 11.883586 18 13 C 18 14.116414 17.116414 15 16 15 C 14.883586 15 14 14.116414 14 13 C 14 11.883586 14.883586 11 16 11 z M 23 11 C 24.116414 11 25 11.883586 25 13 C 25 14.116414 24.116414 15 23 15 C 21.883586 15 21 14.116414 21 13 C 21 11.883586 21.883586 11 23 11 z M 12.5 14.875 C 12.529618 14.92974 12.561691 14.978058 12.59375 15.03125 C 12.531173 15.040155 12.467537 15.053301 12.40625 15.0625 C 12.442842 15.002722 12.466365 14.936543 12.5 14.875 z M 19.5 14.875 C 19.536718 14.942863 19.584664 14.996952 19.625 15.0625 C 19.553816 15.051255 19.478587 15.03864 19.40625 15.03125 C 19.438303 14.977897 19.47032 14.929856 19.5 14.875 z M 13 17 C 14.116414 17 15 17.883586 15 19 C 15 20.116414 14.116414 21 13 21 C 11.883586 21 11 20.116414 11 19 C 11 17.883586 11.883586 17 13 17 z M 19 17 C 20.116414 17 21 17.883586 21 19 C 21 20.116414 20.116414 21 19 21 C 17.883586 21 17 20.116414 17 19 C 17 17.883586 17.883586 17 19 17 z M 16 23 C 17.116414 23 18 23.883586 18 25 C 18 26.116414 17.116414 27 16 27 C 14.883586 27 14 26.116414 14 25 C 14 23.883586 14.883586 23 16 23 z" fill="#000000"/></svg>
