<?xml version="1.0" encoding="utf-8"?>
<svg xmlns="http://www.w3.org/2000/svg" viewBox="0 0 32 32" fill="#000000"><path style="text-indent:0;text-align:start;line-height:normal;text-transform:none;block-progression:tb;-inkscape-font-specification:Bitstream Vera Sans" d="M 16 7 C 13.833309 7 11.929964 8.1741948 10.875 9.90625 C 9.9565247 8.7641003 8.5705484 8 7 8 C 4.2504839 8 2 10.250484 2 13 C 2 13.688884 2.1570068 14.343222 2.40625 14.9375 C 1.5726029 15.604856 1 16.667108 1 17.9375 C 1 19.179184 1.5863957 21.127648 3.78125 22.5625 C 5.9761043 23.997352 9.6493649 25 16 25 C 22.350635 25 26.023896 23.997352 28.21875 22.5625 C 30.413604 21.127648 31 19.179184 31 17.9375 C 31 16.667108 30.427397 15.604856 29.59375 14.9375 C 29.842993 14.343222 30 13.688884 30 13 C 30 10.250484 27.749516 8 25 8 C 23.429452 8 22.043475 8.7641003 21.125 9.90625 C 20.070036 8.1741948 18.166691 7 16 7 z M 16 9 C 17.011673 9 17.92297 9.3877427 18.625 10 C 17.922271 10.618934 17.010582 11 16 11 C 14.989418 11 14.077992 10.619077 13.375 10 C 14.07703 9.3877427 14.988327 9 16 9 z M 7 10 C 7.6102096 10 8.1848351 10.161204 8.65625 10.46875 C 8.1833558 10.796864 7.6241424 11 7 11 C 6.3758576 11 5.8166442 10.796864 5.34375 10.46875 C 5.8151649 10.161204 6.3897904 10 7 10 z M 25 10 C 25.61021 10 26.184835 10.161204 26.65625 10.46875 C 26.183356 10.796864 25.624143 11 25 11 C 24.375857 11 23.816644 10.796864 23.34375 10.46875 C 23.815165 10.161204 24.38979 10 25 10 z M 12.25 11.65625 C 13.275413 12.486625 14.581389 13 16 13 C 17.424382 13 18.722761 12.492706 19.75 11.65625 C 19.899343 12.077256 20 12.525728 20 13 C 20 13.649409 19.836621 14.24171 19.5625 14.78125 C 18.241499 14.900982 16.983501 15 16 15 C 15.016499 15 13.7585 14.900982 12.4375 14.78125 C 12.163379 14.24171 12 13.649409 12 13 C 12 12.525728 12.100657 12.077256 12.25 11.65625 z M 4.15625 12.09375 C 4.9623748 12.665452 5.9353684 13 7 13 C 8.0646316 13 9.0376252 12.665452 9.84375 12.09375 C 9.9343212 12.381417 10 12.680676 10 13 C 10 13.546037 9.8584631 14.059771 9.59375 14.5 C 8.5289659 14.371916 7.4878838 14.230323 6.53125 14.09375 C 5.8758125 14.000439 5.2189033 13.952316 4.59375 14.03125 C 4.4641536 14.047613 4.3447797 14.097843 4.21875 14.125 C 4.0722916 13.779253 4 13.40147 4 13 C 4 12.680676 4.0656788 12.381417 4.15625 12.09375 z M 22.15625 12.09375 C 22.962375 12.665452 23.935369 13 25 13 C 26.064631 13 27.037625 12.665452 27.84375 12.09375 C 27.934321 12.381417 28 12.680676 28 13 C 28 13.405119 27.898966 13.776659 27.75 14.125 C 27.023593 13.984616 26.247876 13.98283 25.46875 14.09375 C 24.512116 14.230323 23.471034 14.371916 22.40625 14.5 C 22.141537 14.059771 22 13.546037 22 13 C 22 12.680676 22.065679 12.381417 22.15625 12.09375 z M 5.53125 16 C 5.7654582 16.003936 5.9982187 16.026656 6.25 16.0625 C 9.3271916 16.501812 13.302374 17 16 17 C 18.697626 17 22.672808 16.501812 25.75 16.0625 C 26.757125 15.919122 27.65609 16.0419 28.1875 16.34375 C 28.71891 16.645601 29 17.019768 29 17.9375 C 29 18.665816 28.809396 19.773852 27.125 20.875 C 25.440604 21.976148 22.132365 23 16 23 C 9.8676351 23 6.5593957 21.976148 4.875 20.875 C 3.1906043 19.773852 3 18.665816 3 17.9375 C 3 17.019768 3.2810902 16.645601 3.8125 16.34375 C 4.2110573 16.117362 4.8286253 15.988193 5.53125 16 z" overflow="visible" font-family="Bitstream Vera Sans" fill="#000000"/></svg>
