<?xml version="1.0" encoding="utf-8"?>
<svg xmlns="http://www.w3.org/2000/svg" viewBox="0 0 32 32" fill="#000000"><path style="text-indent:0;text-align:start;line-height:normal;text-transform:none;block-progression:tb;-inkscape-font-specification:Bitstream Vera Sans" d="M 16 4 C 9.3844277 4 4 9.3844277 4 16 C 4 22.615572 9.3844277 28 16 28 C 22.615572 28 28 22.615572 28 16 C 28 9.3844277 22.615572 4 16 4 z M 15 6.21875 L 15 10 L 12.03125 10 C 12.21176 9.5284493 12.407975 9.0853794 12.625 8.6875 C 13.327425 7.399721 14.160744 6.5817784 15 6.21875 z M 17 6.21875 C 17.839256 6.5817784 18.672575 7.399721 19.375 8.6875 C 19.592025 9.0853794 19.78824 9.5284493 19.96875 10 L 17 10 L 17 6.21875 z M 11.1875 7.25 C 11.083715 7.4177402 10.971103 7.5738118 10.875 7.75 C 10.500812 8.4360118 10.175198 9.186285 9.90625 10 L 8.03125 10 C 8.8812582 8.8762612 9.9403085 7.9334368 11.1875 7.25 z M 20.8125 7.25 C 22.059691 7.9334368 23.118742 8.8762612 23.96875 10 L 22.09375 10 C 21.824802 9.186285 21.499188 8.4360118 21.125 7.75 C 21.028897 7.5738118 20.916285 7.4177402 20.8125 7.25 z M 6.8125 12 L 9.40625 12 C 9.2146052 12.955156 9.0791654 13.952128 9.03125 15 L 6.0625 15 C 6.1663798 13.944781 6.4074547 12.929575 6.8125 12 z M 11.4375 12 L 15 12 L 15 15 L 11.03125 15 C 11.086246 13.944111 11.228118 12.933213 11.4375 12 z M 17 12 L 20.5625 12 C 20.771882 12.933213 20.913754 13.944111 20.96875 15 L 17 15 L 17 12 z M 22.59375 12 L 25.1875 12 C 25.592545 12.929575 25.83362 13.944781 25.9375 15 L 22.96875 15 C 22.920835 13.952128 22.785395 12.955156 22.59375 12 z M 6.0625 17 L 9.03125 17 C 9.0791654 18.047872 9.2146052 19.044844 9.40625 20 L 6.8125 20 C 6.4074547 19.070425 6.1663798 18.055219 6.0625 17 z M 11.03125 17 L 15 17 L 15 20 L 11.4375 20 C 11.228118 19.066787 11.086246 18.055889 11.03125 17 z M 17 17 L 20.96875 17 C 20.913754 18.055889 20.771882 19.066787 20.5625 20 L 17 20 L 17 17 z M 22.96875 17 L 25.9375 17 C 25.83362 18.055219 25.592545 19.070425 25.1875 20 L 22.59375 20 C 22.785395 19.044844 22.920835 18.047872 22.96875 17 z M 8.03125 22 L 9.90625 22 C 10.175198 22.813715 10.500812 23.563988 10.875 24.25 C 10.971103 24.426188 11.083715 24.58226 11.1875 24.75 C 9.9403085 24.066563 8.8812582 23.123739 8.03125 22 z M 12.03125 22 L 15 22 L 15 25.78125 C 14.160744 25.418222 13.327425 24.600279 12.625 23.3125 C 12.407975 22.914621 12.21176 22.471551 12.03125 22 z M 17 22 L 19.96875 22 C 19.78824 22.471551 19.592025 22.914621 19.375 23.3125 C 18.672575 24.600279 17.839256 25.418222 17 25.78125 L 17 22 z M 22.09375 22 L 23.96875 22 C 23.118742 23.123739 22.059691 24.066563 20.8125 24.75 C 20.916285 24.58226 21.028897 24.426188 21.125 24.25 C 21.499188 23.563988 21.824802 22.813715 22.09375 22 z" fill="#000000"/></svg>
