<?xml version="1.0" encoding="utf-8"?>
<svg xmlns="http://www.w3.org/2000/svg" viewBox="0 0 32 32" fill="#000000"><path style="text-indent:0;text-align:start;line-height:normal;text-transform:none;block-progression:tb;-inkscape-font-specification:Bitstream Vera Sans" d="M 6 3 L 6 4 L 6 10 L 8 10 L 8 5 L 24 5 L 24 10 L 26 10 L 26 4 L 26 3 L 25 3 L 7 3 L 6 3 z M 7 12 L 7 13 L 7 20 L 9 20 L 9 15.34375 L 9.1875 15.59375 L 10 16.65625 L 10.8125 15.59375 L 11 15.34375 L 11 20 L 13 20 L 13 13 L 13 12 L 12 12 L 11.5 12 L 11 12 L 10.6875 12.40625 L 10 13.3125 L 9.3125 12.40625 L 9 12 L 8.5 12 L 8 12 L 7 12 z M 16.5 12 C 15.116667 12 14 13.116667 14 14.5 L 14 17.5 C 14 18.883333 15.116667 20 16.5 20 C 17.883333 20 19 18.883333 19 17.5 L 19 14.5 C 19 13.116667 17.883333 12 16.5 12 z M 20 12 L 20 13 L 20 13.15625 L 20.0625 13.3125 L 22.0625 19.3125 L 23 22.15625 L 23.9375 19.3125 L 25.9375 13.3125 L 26 13.15625 L 26 13 L 26 12 L 24 12 L 24 12.875 L 23 15.875 L 22 12.875 L 22 12 L 20 12 z M 16.5 14 C 16.716667 14 17 14.283333 17 14.5 L 17 17.5 C 17 17.716667 16.716667 18 16.5 18 C 16.283333 18 16 17.716667 16 17.5 L 16 14.5 C 16 14.283333 16.283333 14 16.5 14 z M 6 22 L 6 28 L 6 29 L 7 29 L 25 29 L 26 29 L 26 28 L 26 22 L 24 22 L 24 27 L 8 27 L 8 22 L 6 22 z" overflow="visible" font-family="Bitstream Vera Sans" fill="#000000"/></svg>
