<?xml version="1.0" encoding="utf-8"?>
<svg xmlns="http://www.w3.org/2000/svg" viewBox="0 0 32 32" fill="#000000"><path style="text-indent:0;text-align:start;line-height:normal;text-transform:none;block-progression:tb;-inkscape-font-specification:Sans" d="M 8 4 L 8 5 L 8 11 L 10 11 L 10 6 L 22 6 L 22 11 L 24 11 L 24 5 L 24 4 L 23 4 L 9 4 L 8 4 z M 5 12 L 5 13 L 5 14 L 4 14 L 4 16 L 5 16 L 5 25 C 5 26.645063 6.3549372 28 8 28 L 24 28 C 25.645063 28 27 26.645063 27 25 L 27 16 L 28 16 L 28 14 L 27 14 L 27 13 L 27 12 L 26 12 L 17 12 L 17 14 L 19 14 L 19 15 L 13 15 L 13 14 L 15 14 L 15 12 L 6 12 L 5 12 z M 7 14 L 11 14 L 11 16 L 11 17 L 12 17 L 20 17 L 21 17 L 21 16 L 21 14 L 25 14 L 25 25 C 25 25.562937 24.562937 26 24 26 L 8 26 C 7.4370628 26 7 25.562937 7 25 L 7 14 z M 10 19 C 9.4477153 19 9 19.447715 9 20 C 9 20.552285 9.4477153 21 10 21 C 10.552285 21 11 20.552285 11 20 C 11 19.447715 10.552285 19 10 19 z M 14 19 C 13.447715 19 13 19.447715 13 20 C 13 20.552285 13.447715 21 14 21 C 14.552285 21 15 20.552285 15 20 C 15 19.447715 14.552285 19 14 19 z M 18 19 C 17.447715 19 17 19.447715 17 20 C 17 20.552285 17.447715 21 18 21 C 18.552285 21 19 20.552285 19 20 C 19 19.447715 18.552285 19 18 19 z M 22 19 C 21.447715 19 21 19.447715 21 20 C 21 20.552285 21.447715 21 22 21 C 22.552285 21 23 20.552285 23 20 C 23 19.447715 22.552285 19 22 19 z M 12 22 C 11.447715 22 11 22.447715 11 23 C 11 23.552285 11.447715 24 12 24 C 12.552285 24 13 23.552285 13 23 C 13 22.447715 12.552285 22 12 22 z M 16 22 C 15.447715 22 15 22.447715 15 23 C 15 23.552285 15.447715 24 16 24 C 16.552285 24 17 23.552285 17 23 C 17 22.447715 16.552285 22 16 22 z M 20 22 C 19.447715 22 19 22.447715 19 23 C 19 23.552285 19.447715 24 20 24 C 20.552285 24 21 23.552285 21 23 C 21 22.447715 20.552285 22 20 22 z" fill="#000000"/></svg>
