<?xml version="1.0" encoding="utf-8"?>
<svg xmlns="http://www.w3.org/2000/svg" viewBox="0 0 32 32" fill="#000000"><path d="M 19.677734 2.0175781 C 16.842594 1.8443281 12.692141 3.9836406 8.8378906 7.8378906 C 3.6978906 12.976891 1.611375 18.640672 3.984375 21.013672 C 4.5180449 21.54815 5.2250617 21.844935 6.0488281 21.943359 C 6.1453011 22.728134 6.4274419 23.458692 6.984375 24.015625 C 7.5396158 24.570866 8.27062 24.859953 9.0507812 24.957031 C 9.1490855 25.736394 9.4307717 26.462021 9.984375 27.015625 C 10.691117 27.722367 11.681438 28.008643 12.697266 28 C 13.713094 27.9914 14.801565 27.715698 15.949219 27.242188 C 18.244526 26.295165 20.788181 24.535521 23.162109 22.162109 C 25.536131 19.788605 27.295281 17.244706 28.242188 14.949219 C 28.71564 13.801475 28.991452 12.713154 29 11.697266 C 29.008548 10.681378 28.722367 9.6911168 28.015625 8.984375 C 27.462021 8.4307717 26.736394 8.1490855 25.957031 8.0507812 C 25.859932 7.2706068 25.570866 6.5396158 25.015625 5.984375 C 24.458751 5.4275016 23.728011 5.1453964 22.943359 5.0488281 C 22.844797 4.2254347 22.549372 3.5181218 22.015625 2.984375 C 21.422625 2.391125 20.622781 2.0753281 19.677734 2.0175781 z M 19.341797 3.9863281 C 19.892797 3.9863281 20.323563 4.1224375 20.601562 4.3984375 C 21.897562 5.6954375 20.098047 10.397047 15.748047 14.748047 C 11.397047 19.100047 6.6974375 20.895563 5.3984375 19.601562 C 4.1024375 18.304563 5.9019531 13.602953 10.251953 9.2519531 C 13.673953 5.8299531 17.313797 3.9863281 19.341797 3.9863281 z M 19.517578 5.5820312 C 17.100578 6.4710313 14.339891 8.3358906 11.837891 10.837891 C 9.3388906 13.336891 7.4769375 16.093813 6.5859375 18.507812 C 6.6109375 18.508813 6.6272031 18.511719 6.6582031 18.511719 C 7.2462031 18.511719 8.0910313 18.267875 9.0820312 17.796875 C 10.001031 16.010875 11.449953 14.053953 13.251953 12.251953 C 15.052953 10.450953 17.010875 9.0020312 18.796875 8.0820312 C 19.349875 6.9080312 19.551578 6.0240312 19.517578 5.5820312 z M 22.830078 7.0449219 C 23.175954 7.1056561 23.430342 7.2272163 23.601562 7.3984375 C 23.848821 7.6456957 24.005483 8.0299662 24 8.6816406 C 23.994517 9.3333151 23.79725 10.206494 23.392578 11.1875 C 23.278393 11.464308 23.143905 11.751021 22.998047 12.042969 A 1 1 0 0 0 23 12 A 1 1 0 0 0 22 11 A 1 1 0 0 0 21 12 A 1 1 0 0 0 22 13 A 1 1 0 0 0 22.585938 12.808594 C 21.686037 14.389468 20.382288 16.114161 18.748047 17.748047 C 17.114503 19.381234 15.390672 20.684015 13.810547 21.583984 A 1 1 0 0 0 14 21 A 1 1 0 0 0 13 20 A 1 1 0 0 0 12 21 A 1 1 0 0 0 13 22 A 1 1 0 0 0 13.041016 21.998047 C 12.749617 22.143622 12.463822 22.278571 12.1875 22.392578 C 11.206528 22.797317 10.333219 22.994456 9.6816406 23 C 9.0300624 23.005544 8.6456957 22.848821 8.3984375 22.601562 C 8.2260101 22.429135 8.1051424 22.173028 8.0449219 21.824219 C 10.705193 21.280415 14.027276 19.295834 17.162109 16.160156 C 20.295778 13.027097 22.285067 9.7038192 22.830078 7.0449219 z M 25.837891 10.046875 C 26.17959 10.108182 26.431637 10.228511 26.601562 10.398438 C 26.848821 10.645696 27.005483 11.029966 27 11.681641 C 26.9945 12.333315 26.79725 13.206494 26.392578 14.1875 C 25.583234 16.149513 23.963025 18.533551 21.748047 20.748047 C 19.532975 22.962636 17.149443 24.583099 15.1875 25.392578 C 14.206528 25.797317 13.333219 25.994456 12.681641 26 C 12.030062 26.0055 11.645696 25.848821 11.398438 25.601562 C 11.228511 25.431637 11.108182 25.17959 11.046875 24.837891 C 11.660843 24.709393 12.294189 24.512446 12.949219 24.242188 C 15.244526 23.295165 17.788181 21.535521 20.162109 19.162109 C 22.536131 16.788605 24.295282 14.244706 25.242188 11.949219 C 25.512413 11.294138 25.709378 10.660822 25.837891 10.046875 z M 18 16 A 1 1 0 0 0 17 17 A 1 1 0 0 0 18 18 A 1 1 0 0 0 19 17 A 1 1 0 0 0 18 16 z" fill="#000000"/></svg>
