<?xml version="1.0" encoding="utf-8"?>
<svg xmlns="http://www.w3.org/2000/svg" viewBox="0 0 32 32" fill="#000000"><path d="M 20 3 C 18.117188 3 16.824066 3.6005859 15.9375 4.40625 L 8.40625 10.96875 L 8.46875 11.03125 C 7.79004 11.820155 7 13.137114 7 15 C 7 16.030069 7.4560928 16.91045 8.03125 17.5625 C 8.6064072 18.21455 9.2978748 18.692052 9.9375 19.125 C 10.577125 19.557948 11.161887 19.942145 11.53125 20.28125 C 11.788788 20.51769 11.884602 20.671016 11.9375 20.8125 L 6 26 L 5.9375 26.03125 C 5.9375 26.03125 6.4336371 26.839584 7.40625 27.5625 C 8.3788629 28.285416 9.8994394 29 12 29 C 14.595773 29 17.129076 27.05507 19.1875 25.25 C 20.167279 24.390814 21.030078 23.566886 21.65625 22.90625 C 21.687842 22.872919 21.719582 22.813565 21.75 22.78125 C 23.928418 21.0318 24 18 24 18 C 24 14.737724 21.579108 13.180629 19.8125 11.71875 L 24 8 L 26 5 C 26 5 23.693 3 20 3 z M 20.5 7 C 21.006736 7 21.50226 7.0849554 21.9375 7.1875 L 18.4375 10.28125 C 18.175596 9.8864372 18 9.4723378 18 9 C 18 8.087 18.58 7 20.5 7 z M 14 8.71875 C 13.987327 8.8966404 14 9 14 9 C 14 14.033 20 14.794 20 18 C 20 18 19.89275 20 17.46875 20 C 15.04475 20 14 19 14 19 L 13.46875 19.46875 C 13.298063 19.225698 13.11154 19.000973 12.90625 18.8125 C 12.337175 18.290043 11.671625 17.881052 11.0625 17.46875 C 10.453375 17.056448 9.8920303 16.659013 9.53125 16.25 C 9.1704697 15.840987 9 15.478931 9 15 C 9 12.721273 10.5 11.8125 10.5 11.8125 L 10.46875 11.78125 L 14 8.71875 z M 13 23 C 13 23 14.731954 23.904099 17.53125 24 C 15.648851 25.591204 13.365651 27 12 27 C 10.576132 27 9.6177074 26.61512 8.9375 26.1875 L 13 23 z" fill="#000000"/></svg>
