<?xml version="1.0" encoding="utf-8"?>
<svg xmlns="http://www.w3.org/2000/svg" viewBox="0 0 32 32" fill="#000000"><path style="line-height:normal;text-indent:0;text-align:start;text-decoration-line:none;text-decoration-style:solid;text-decoration-color:#000;text-transform:none;block-progression:tb;isolation:auto;mix-blend-mode:normal" d="M 10.927734 4 C 9.8914723 4 8.9506476 4.5616578 8.4453125 5.46875 L 3.3671875 14.552734 L 3.3652344 14.556641 C 2.8684325 15.459215 2.8677428 16.541077 3.3652344 17.443359 L 3.3671875 17.445312 L 8.4453125 26.53125 C 8.9503137 27.439776 9.8919581 28 10.927734 28 L 21.072266 28 C 22.108043 28 23.049181 27.439547 23.554688 26.533203 L 23.554688 26.53125 L 28.632812 17.447266 L 28.634766 17.443359 C 29.131568 16.540785 29.132257 15.458923 28.634766 14.556641 L 28.632812 14.554688 L 23.554688 5.46875 L 23.554688 5.4726562 C 23.049878 4.5618866 22.107501 4 21.072266 4 L 10.927734 4 z M 10.927734 6 L 21.072266 6 C 21.33503 6 21.667451 6.1902591 21.806641 6.4414062 L 21.806641 6.4433594 L 26.886719 15.527344 L 26.882812 15.523438 C 27.029322 15.789155 27.030012 16.213044 26.882812 16.480469 L 21.808594 25.558594 L 21.806641 25.558594 C 21.668016 25.807499 21.334003 26 21.072266 26 L 10.927734 26 C 10.665997 26 10.332531 25.807323 10.193359 25.556641 L 5.1132812 16.472656 L 5.1171875 16.476562 C 4.970679 16.210846 4.9699894 15.786956 5.1171875 15.519531 L 10.191406 6.4414062 L 10.193359 6.4414062 C 10.331974 6.1925045 10.665997 6 10.927734 6 z M 11.480469 11 C 11.361469 11.025 11.285656 11.187781 11.347656 11.300781 L 13.871094 16 L 11.347656 20.6875 C 11.275656 20.8165 11.379578 21 11.517578 21 L 13.21875 21 C 13.29075 20.996 13.358719 20.956578 13.386719 20.892578 L 15.976562 16.099609 C 15.991563 16.074609 15.995 16.045484 16 16.021484 C 16.005 16.045484 16.009438 16.074609 16.023438 16.099609 L 18.603516 20.892578 C 18.637516 20.955578 18.707297 21 18.779297 21 L 20.498047 21 C 20.636047 21 20.741922 20.8165 20.669922 20.6875 L 18.146484 16 L 20.669922 11.300781 C 20.731922 11.177781 20.631047 11 20.498047 11 L 18.779297 11 C 18.708297 11 18.642469 11.040516 18.605469 11.103516 L 16.025391 15.896484 C 16.010391 15.921484 16.006953 15.944609 16.001953 15.974609 C 15.996953 15.945609 15.990562 15.920484 15.976562 15.896484 L 13.386719 11.103516 C 13.352719 11.043516 13.286703 11 13.220703 11 L 11.480469 11 z" font-weight="400" font-family="sans-serif" white-space="normal" overflow="visible" fill="#000000"/></svg>
