<?xml version="1.0" encoding="utf-8"?>
<svg xmlns="http://www.w3.org/2000/svg" viewBox="0 0 32 32" fill="#000000"><path style="text-indent:0;text-align:start;line-height:normal;text-transform:none;block-progression:tb;-inkscape-font-specification:Sans" d="M 13 4 L 13 6 L 19 6 L 19 4 L 13 4 z M 16 7 C 9.9367128 7 5 11.936713 5 18 C 5 24.063287 9.9367128 29 16 29 C 22.063287 29 27 24.063287 27 18 C 27 15.080779 25.863459 12.409213 24 10.4375 L 25.71875 8.71875 L 24.28125 7.28125 L 22.46875 9.09375 C 20.654464 7.7743478 18.408796 7 16 7 z M 16 9 C 20.982407 9 25 13.017593 25 18 C 25 22.982407 20.982407 27 16 27 C 11.017593 27 7 22.982407 7 18 C 7 13.017593 11.017593 9 16 9 z M 15 11 L 15 16.28125 C 14.403104 16.627293 14 17.260396 14 18 C 14 18.739604 14.403104 19.372707 15 19.71875 L 15 21 L 17 21 L 17 19.71875 C 17.596896 19.372707 18 18.739604 18 18 C 18 17.260396 17.596896 16.627293 17 16.28125 L 17 11 L 15 11 z" overflow="visible" font-family="Sans" fill="#000000"/></svg>
