<?xml version="1.0" encoding="utf-8"?>
<svg xmlns="http://www.w3.org/2000/svg" viewBox="0 0 32 32" fill="#000000"><path style="text-indent:0;text-align:start;line-height:normal;text-transform:none;block-progression:tb;-inkscape-font-specification:Sans" d="M 16 4 L 15.40625 4.4375 L 10.65625 8 L 5 8 L 4 8 L 4 9 L 4 27 L 4 28 L 5 28 L 27 28 L 28 28 L 28 27 L 28 9 L 28 8 L 27 8 L 21.34375 8 L 16.59375 4.4375 L 16 4 z M 16 6.5 L 18 8 L 14 8 L 16 6.5 z M 6 10 L 8 10 L 24 10 L 26 10 L 26 26 L 6 26 L 6 10 z M 15.90625 12 C 14.683386 12.01744 13.468113 12.727678 12.875 14 C 10.113606 14.449594 9.0502121 18.016982 11.0625 19.96875 C 10.637584 22.734098 13.619614 24.889898 16.0625 23.5625 C 16.07252 23.5677 16.08372 23.5574 16.09375 23.5625 C 18.572408 24.819639 21.499539 22.565397 21 19.8125 C 22.947185 17.816089 21.773328 14.340562 19.03125 13.9375 C 19.02685 13.936846 19.03575 13.90689 19.03125 13.90625 C 18.404299 12.650297 17.129114 11.982558 15.90625 12 z M 15.9375 14 C 16.449886 13.9927 16.959951 14.231453 17.25 14.8125 L 17.46875 15.28125 L 17.71875 15.75 L 18.25 15.8125 L 18.75 15.875 C 19.97434 16.039144 20.452957 17.493282 19.5625 18.40625 L 19.21875 18.78125 L 18.84375 19.15625 L 18.9375 19.65625 L 19.03125 20.1875 C 19.265689 21.479461 18.079789 22.358397 16.96875 21.78125 L 16.53125 21.5625 L 16.0625 21.3125 L 15.5625 21.5625 L 15.125 21.8125 C 14.029177 22.421634 12.831864 21.578852 13.03125 20.28125 L 13.125 19.75 L 13.1875 19.25 L 12.8125 18.875 L 12.4375 18.53125 C 11.523788 17.645018 12.000144 16.167156 13.21875 15.96875 L 13.71875 15.875 L 14.25 15.78125 L 14.46875 15.3125 L 14.6875 14.84375 C 14.962387 14.254072 15.425114 14.007308 15.9375 14 z M 16 17 C 15.171573 17 14.5 17.671573 14.5 18.5 C 14.5 19.328427 15.171573 20 16 20 C 16.828427 20 17.5 19.328427 17.5 18.5 C 17.5 17.671573 16.828427 17 16 17 z" overflow="visible" font-family="Sans" fill="#000000"/></svg>
