<?xml version="1.0" encoding="utf-8"?>
<svg xmlns="http://www.w3.org/2000/svg" viewBox="0 0 32 32" fill="#000000"><path d="M 5 5 L 5 6 L 5 26 L 5 27 L 6 27 L 26 27 L 27 27 L 27 26 L 27 6 L 27 5 L 26 5 L 6 5 L 5 5 z M 7 7 L 25 7 L 25 25 L 7 25 L 7 7 z M 20.96875 11.0625 C 20.27275 11.7655 19.53175 12.4965 18.84375 13.1875 C 20.37575 14.7495 20.39375 17.29375 18.84375 18.84375 L 20.9375 20.9375 C 23.6645 18.2105 23.68375 13.7975 20.96875 11.0625 z M 11.03125 11.09375 C 8.32925 13.82975 8.3395 18.2145 11.0625 20.9375 L 13.1875 18.8125 C 11.6455 17.2705 11.619 14.78175 13.125 13.21875 C 12.417 12.50175 11.68925 11.76875 11.03125 11.09375 z M 16 14 C 14.895431 14 14 14.895431 14 16 C 14 17.104569 14.895431 18 16 18 C 17.104569 18 18 17.104569 18 16 C 18 14.895431 17.104569 14 16 14 z" fill="#000000"/></svg>
