<?xml version="1.0" encoding="utf-8"?>
<svg xmlns="http://www.w3.org/2000/svg" viewBox="0 0 32 32" fill="#000000"><path style="text-indent:0;text-align:start;line-height:normal;text-transform:none;block-progression:tb;-inkscape-font-specification:Bitstream Vera Sans" d="M 3.71875 2.28125 L 2.28125 3.71875 L 28.28125 29.71875 L 29.71875 28.28125 L 22.15625 20.71875 L 27.3125 18.53125 L 26.90625 17.59375 C 26.84125 17.44275 25.28875 13.85225 21.71875 10.28125 C 18.14875 6.71025 14.55825 5.15875 14.40625 5.09375 L 13.46875 4.6875 L 11.28125 9.84375 L 3.71875 2.28125 z M 14.5 7.375 C 15.728 8.04 18.02125 9.45975 20.28125 11.71875 C 22.54025 13.97875 23.96 16.273 24.625 17.5 L 23.21875 18.09375 C 22.526016 16.850503 21.304213 14.892733 19.3125 12.875 L 19.21875 12.78125 C 17.168151 10.731309 15.167644 9.482965 13.90625 8.78125 L 14.5 7.375 z M 13.125 10.59375 C 14.26878 11.248489 15.997215 12.372797 17.8125 14.1875 C 19.627626 16.002044 20.751647 17.730981 21.40625 18.875 L 20.625 19.1875 L 12.8125 11.375 L 13.125 10.59375 z M 9.625 13.8125 L 4.8125 25.21875 L 6.78125 27.1875 L 18.1875 22.375 L 15.0625 19.25 C 14.4305 19.586 14 20.234 14 21 C 14 21.317 14.08775 21.609 14.21875 21.875 L 11.84375 22.875 C 11.60475 22.363 11.102 22 10.5 22 C 9.672 22 9 22.672 9 23.5 C 9 23.687 9.03075 23.86625 9.09375 24.03125 L 7.21875 24.8125 L 7.1875 24.78125 L 9.78125 18.59375 C 10.11925 18.85375 10.542 19 11 19 C 12.05 19 12.88675 18.18525 12.96875 17.15625 L 9.625 13.8125 z" overflow="visible" font-family="Bitstream Vera Sans" fill="#000000"/></svg>
