<?xml version="1.0" encoding="utf-8"?>
<svg xmlns="http://www.w3.org/2000/svg" viewBox="0 0 32 32" fill="#000000"><path style="text-indent:0;text-align:start;line-height:normal;text-transform:none;block-progression:tb;-inkscape-font-specification:Sans" d="M 16 1 C 14.354991 1 13 2.3549901 13 4 C 13 4.7668649 13.300207 5.4670814 13.78125 6 L 10 6 L 9 6 L 9 7 L 9 23 L 9 24 L 10 24 L 11 24 L 11 26 L 11 27 L 12 27 L 13.1875 27 C 13.073239 27.315761 13 27.647008 13 28 C 13 29.64501 14.35499 31 16 31 C 17.64501 31 19 29.64501 19 28 C 19 27.647008 18.926761 27.315761 18.8125 27 L 20 27 L 21 27 L 21 26 L 21 24 L 22 24 L 23 24 L 23 23 L 23 7 L 23 6 L 22 6 L 18.21875 6 C 18.699793 5.4670814 19 4.7668649 19 4 C 19 2.3549901 17.645009 1 16 1 z M 16 3 C 16.564129 3 17 3.4358709 17 4 C 17 4.5641291 16.564129 5 16 5 C 15.435871 5 15 4.5641291 15 4 C 15 3.4358709 15.435871 3 16 3 z M 11 8 L 21 8 L 21 22 L 11 22 L 11 8 z M 12 10 L 12 17 L 12 17.96875 L 12.96875 18 C 12.96875 18 14.737356 18.06309 16.5 17.0625 C 18.262644 16.061906 20 13.872242 20 10 L 18 10 C 18 13.315758 16.737356 14.610094 15.5 15.3125 C 14.949235 15.625151 14.44171 15.784841 14 15.875 L 14 14.84375 C 14.543584 14.694948 15.037331 14.453622 15.40625 14.125 C 15.991369 13.603794 16.335425 12.945472 16.5625 12.34375 C 17.01665 11.140305 17 10 17 10 L 15 10 C 15 10 14.9881 10.859695 14.6875 11.65625 C 14.5372 12.054528 14.31935 12.396206 14.0625 12.625 C 14.039341 12.645629 14.023755 12.66826 14 12.6875 L 14 10 L 12 10 z M 13 24 L 19 24 L 19 25 L 13 25 L 13 24 z M 16 27 C 16.564128 27 17 27.435872 17 28 C 17 28.564128 16.564128 29 16 29 C 15.435872 29 15 28.564128 15 28 C 15 27.435872 15.435872 27 16 27 z" overflow="visible" font-family="Sans" fill="#000000"/></svg>
