<?xml version="1.0" encoding="utf-8"?>
<svg xmlns="http://www.w3.org/2000/svg" viewBox="0 0 32 32" fill="#000000"><path style="text-indent:0;text-align:start;line-height:normal;text-transform:none;block-progression:tb;-inkscape-font-specification:Sans" d="M 15.90625 4 C 8.307694 4 3.96875 8.5 3.96875 8.5 L 5.40625 9.875 C 5.40625 9.875 9.082806 6 15.90625 6 C 18.036254 6 19.879684 6.5838597 21.375 7.3125 C 19.424674 7.9955361 18 9.8243955 18 12 C 18 14.749579 20.250421 17 23 17 C 25.749579 17 28 14.749579 28 12 C 28 10.757618 27.538602 9.6270081 26.78125 8.75 C 26.78125 8.75 26.693079 8.6935683 26.6875 8.6875 C 26.472979 8.4493853 26.255941 8.1936106 26 8 C 24.487003 6.6640625 20.852161 4 15.90625 4 z M 23 9 C 23.600385 9 24.158259 9.1703662 24.625 9.46875 C 25.067035 9.8525391 25.3125 10.09375 25.3125 10.09375 C 25.738909 10.611416 26 11.269944 26 12 C 26 13.668699 24.668699 15 23 15 C 21.331301 15 20 13.668699 20 12 C 20 10.331301 21.331301 9 23 9 z M 9 15 C 6.2504209 15 4 17.250421 4 20 C 4 21.242381 4.4613975 22.372992 5.21875 23.25 C 5.21875 23.25 5.3069209 23.306432 5.3125 23.3125 C 5.4637196 23.480351 5.6089468 23.666262 5.78125 23.8125 C 5.881218 23.907054 5.8660433 23.88172 6 24 C 6.0702789 24.053164 6.1456768 24.106771 6.21875 24.15625 C 7.8288981 25.53352 11.335739 28 16.09375 28 C 23.692306 28 28.03125 23.5 28.03125 23.5 L 26.59375 22.125 C 26.59375 22.125 22.917194 26 16.09375 26 C 13.963746 26 12.120316 25.41614 10.625 24.6875 C 12.575326 24.004464 14 22.175604 14 20 C 14 17.250421 11.749579 15 9 15 z M 9 17 C 10.668699 17 12 18.331301 12 20 C 12 21.668699 10.668699 23 9 23 C 8.4095183 23 7.8681989 22.82061 7.40625 22.53125 C 7.3985024 22.526397 7.3826988 22.536172 7.375 22.53125 C 7.3429975 22.503464 7.3423318 22.526396 7.3125 22.5 C 6.9302803 22.161801 6.6875 21.90625 6.6875 21.90625 C 6.261091 21.388584 6 20.730056 6 20 C 6 18.331301 7.3313011 17 9 17 z" overflow="visible" font-family="Sans" fill="#000000"/></svg>
