<?xml version="1.0" encoding="utf-8"?>
<svg xmlns="http://www.w3.org/2000/svg" viewBox="0 0 32 32" fill="#000000"><path style="text-indent:0;text-align:start;line-height:normal;text-transform:none;block-progression:tb;-inkscape-font-specification:Bitstream Vera Sans" d="M 16 4 C 15.171573 4 14.5 4.6715729 14.5 5.5 C 14.5 5.9458887 14.691152 6.3502494 15 6.625 L 15 9 C 15.789 9 16 10 16 10 C 16 10 16.24 9 17 9 L 17 6.625 C 17.308848 6.3502494 17.5 5.9458887 17.5 5.5 C 17.5 4.6715729 16.828427 4 16 4 z M 11.375 5 C 9.5583194 5 8.408635 5.9951121 7.46875 6.71875 C 6.528865 7.4423879 5.7511249 8 4 8 L 3 8 L 3 9 L 3 9.09375 L 3 9.375 L 3.15625 9.625 C 4.3454046 11.543148 6.8637328 13 11 13 L 11 11 C 8.4372045 11 7.0591503 10.360061 6.0625 9.59375 C 7.1415472 9.25374 8.0486534 8.7731119 8.6875 8.28125 C 9.695865 7.5048879 10.234681 7 11.375 7 C 11.546267 7 11.772826 7.076225 11.875 7.15625 C 11.977174 7.236275 12 7.2476918 12 7.4375 C 12 7.5236869 11.954447 7.6227646 11.78125 8 C 11.608053 8.3772354 11.442244 9.1716549 11.78125 9.84375 L 13.5625 8.96875 C 13.50051 8.8458451 13.5002 9.047515 13.59375 8.84375 C 13.687303 8.6399854 14 8.1423131 14 7.4375 C 14 6.6603082 13.608576 5.965725 13.09375 5.5625 C 12.578924 5.159275 11.967733 5 11.375 5 z M 20.625 5 C 20.032267 5 19.421076 5.159275 18.90625 5.5625 C 18.391424 5.965725 18 6.6603082 18 7.4375 C 18 8.1423131 18.312697 8.6399854 18.40625 8.84375 C 18.4998 9.0475146 18.49949 8.84585 18.4375 8.96875 L 20.21875 9.84375 C 20.557756 9.1716549 20.391947 8.3772354 20.21875 8 C 20.045553 7.6227646 20 7.5236869 20 7.4375 C 20 7.2476918 20.054076 7.236275 20.15625 7.15625 C 20.258424 7.076225 20.453733 7 20.625 7 C 21.765319 7 22.304135 7.5048879 23.3125 8.28125 C 23.951347 8.7731119 24.858453 9.25374 25.9375 9.59375 C 24.94085 10.360061 23.562795 11 21 11 L 21 13 C 25.136267 13 27.654595 11.543148 28.84375 9.625 L 29 9.375 L 29 9.09375 L 29 9 L 29 8 L 28 8 C 26.248875 8 25.471135 7.4423879 24.53125 6.71875 C 23.591365 5.9951121 22.441681 5 20.625 5 z M 14 9.96875 C 12.848736 9.96875 12 10.941501 12 12 C 12 13.372669 12.525391 14.445189 13.28125 15.125 C 13.361314 15.197009 13.448788 15.248253 13.53125 15.3125 C 13.479232 15.343642 13.426414 15.37252 13.375 15.40625 C 12.616544 15.903839 12 16.865294 12 18.03125 C 12 19.150807 12.444188 20.091975 13.0625 20.71875 C 13.35469 21.014939 13.676907 21.266562 14 21.46875 C 13.438527 21.990726 12.96875 22.785253 12.96875 23.71875 C 12.96875 24.585784 13.385449 25.330474 13.875 25.875 C 13.905597 25.909033 13.93754 25.936003 13.96875 25.96875 C 13.938053 25.976438 13.8125 26 13.8125 26 L 14.28125 27.9375 C 14.28125 27.9375 15.073753 27.72891 16 27.3125 C 16.926247 27.72891 17.71875 27.9375 17.71875 27.9375 L 18.1875 26 C 18.1875 26 18.061947 25.976438 18.03125 25.96875 C 18.06246 25.936003 18.094403 25.909033 18.125 25.875 C 18.614551 25.330474 19.03125 24.585784 19.03125 23.71875 C 19.03125 22.78539 18.561467 21.990627 18 21.46875 C 18.323099 21.266543 18.645306 21.014866 18.9375 20.71875 C 19.55582 20.092131 20 19.150624 20 18.03125 C 20 16.865464 19.383444 15.903663 18.625 15.40625 C 18.573587 15.372532 18.520767 15.343633 18.46875 15.3125 C 18.551214 15.248262 18.638685 15.196992 18.71875 15.125 C 19.474622 14.445345 20 13.372466 20 12 C 20 10.941501 19.151264 9.96875 18 9.96875 C 17.384713 9.96875 16.862135 10.287617 16.53125 10.65625 C 16.200365 11.024883 16 11.463889 16 12 C 16 11.463889 15.799635 11.024883 15.46875 10.65625 C 15.137865 10.287617 14.615287 9.96875 14 9.96875 z M 14.1875 12.53125 L 16 12.53125 L 17.8125 12.53125 C 17.71664 12.962316 17.657187 13.430616 17.40625 13.65625 C 17.095272 13.935871 16.58047 14.141417 16 14.34375 C 15.419551 14.141442 14.904739 13.93595 14.59375 13.65625 C 14.342804 13.430552 14.283388 12.962491 14.1875 12.53125 z M 16 16.5 C 16.629608 16.708584 17.188145 16.889225 17.5 17.09375 C 17.866556 17.33415 18 17.432036 18 18.03125 C 18 18.676876 17.822367 18.985806 17.5 19.3125 C 17.177633 19.639194 16.642095 19.913997 16.03125 20.21875 C 16.019033 20.224845 16.012269 20.243902 16 20.25 C 15.987732 20.243903 15.980966 20.224845 15.96875 20.21875 C 15.357953 19.914021 14.822375 19.639287 14.5 19.3125 C 14.177625 18.985713 14 18.677193 14 18.03125 C 14 17.431706 14.133456 17.334223 14.5 17.09375 C 14.811844 16.889163 15.370409 16.708563 16 16.5 z M 16 22.53125 C 16.231736 22.662231 16.447196 22.784409 16.59375 22.90625 C 16.915904 23.17408 17.03125 23.301407 17.03125 23.71875 C 17.03125 24.017216 16.912199 24.246558 16.65625 24.53125 C 16.488754 24.717556 16.261234 24.918824 16 25.09375 C 15.738766 24.918824 15.511246 24.717556 15.34375 24.53125 C 15.087801 24.246558 14.96875 24.017216 14.96875 23.71875 C 14.96875 23.301054 15.084105 23.174158 15.40625 22.90625 C 15.5528 22.784374 15.768257 22.662227 16 22.53125 z" overflow="visible" font-family="Bitstream Vera Sans" fill="#000000"/></svg>
