<?xml version="1.0" encoding="utf-8"?>
<svg xmlns="http://www.w3.org/2000/svg" viewBox="0 0 32 32" fill="#000000"><path style="text-indent:0;text-align:start;line-height:normal;text-transform:none;block-progression:tb;-inkscape-font-specification:Sans" d="M 3 4 L 3 5 L 3 21 L 3 22 L 4 22 L 28 22 L 29 22 L 29 21 L 29 5 L 29 4 L 28 4 L 4 4 L 3 4 z M 5 6 L 27 6 L 27 20 L 5 20 L 5 6 z M 11 9 C 8.8027056 9 7 10.802706 7 13 C 7 15.197294 8.8027056 17 11 17 C 13.197294 17 15 15.197294 15 13 C 15 10.802706 13.197294 9 11 9 z M 17 9 L 17 11 L 25 11 L 25 9 L 17 9 z M 11 11 L 11 13 L 13 13 C 13 14.116414 12.116414 15 11 15 C 9.883586 15 9 14.116414 9 13 C 9 11.883586 9.883586 11 11 11 z M 17 12 L 17 14 L 23 14 L 23 12 L 17 12 z M 17 15 L 17 17 L 25 17 L 25 15 L 17 15 z M 15 23 L 15 25.28125 C 14.403151 25.629936 14 26.268327 14 27 C 14 28.092725 14.907275 29 16 29 C 17.092725 29 18 28.092725 18 27 C 18 26.268327 17.596849 25.629936 17 25.28125 L 17 23 L 15 23 z" fill="#000000"/></svg>
