<?xml version="1.0" encoding="utf-8"?>
<svg xmlns="http://www.w3.org/2000/svg" viewBox="0 0 32 32" fill="#000000"><path style="text-indent:0;text-align:start;line-height:normal;text-transform:none;block-progression:tb;-inkscape-font-specification:Sans" d="M 6 3 L 6 29 L 17.78125 29 C 19.2495 30.828363 21.481724 32 24 32 C 28.406433 32 32 28.406433 32 24 C 32 20.28861 29.437134 17.177817 26 16.28125 L 26 9.59375 L 19.40625 3 L 6 3 z M 8 5 L 18 5 L 18 10 L 18 11 L 19 11 L 24 11 L 24 16 C 22.598158 16 21.272767 16.362124 20.125 17 L 11 17 L 11 19 L 17.78125 19 C 17.301813 19.597027 16.887812 20.281437 16.59375 21 L 11 21 L 11 23 L 16.0625 23 C 16.02061 23.330504 16 23.658433 16 24 C 16 25.065848 16.212597 26.068624 16.59375 27 L 8 27 L 8 5 z M 20 6.40625 L 22.59375 9 L 20 9 L 20 6.40625 z M 11 13 L 11 15 L 21 15 L 21 13 L 11 13 z M 24 18 C 27.325553 18 30 20.674447 30 24 C 30 27.325553 27.325553 30 24 30 C 20.674447 30 18 27.325553 18 24 C 18 20.674447 20.674447 18 24 18 z M 23 20 L 23 23 L 20 23 L 20 25 L 23 25 L 23 28 L 25 28 L 25 25 L 28 25 L 28 23 L 25 23 L 25 20 L 23 20 z" overflow="visible" font-family="Sans" fill="#000000"/></svg>
