<?xml version="1.0" encoding="utf-8"?>
<svg xmlns="http://www.w3.org/2000/svg" viewBox="0 0 32 32" fill="#000000"><path style="text-indent:0;text-align:start;line-height:normal;text-transform:none;block-progression:tb;-inkscape-font-specification:Sans" d="M 5.75 2.34375 L 5.125 3.53125 C 5.125 3.53125 4 5.563831 4 8 C 4 11.198177 6.0307951 13.048179 7.25 13.875 C 6.3263853 14.604228 4 16.787328 4 21 C 4 24.865115 6.2303556 27.050513 8.34375 28.03125 C 10.205437 28.895181 11.809252 28.959906 12.21875 28.96875 C 12.401079 29.111075 12.50029 29.211372 12.9375 29.40625 C 13.622565 29.711605 14.634054 30 16 30 C 17.365946 30 18.377435 29.711605 19.0625 29.40625 C 19.49971 29.211372 19.598921 29.111075 19.78125 28.96875 C 20.190748 28.95995 21.794563 28.89518 23.65625 28.03125 C 25.769644 27.050513 28 24.865115 28 21 C 28 16.787328 25.673615 14.604228 24.75 13.875 C 25.969205 13.048179 28 11.198177 28 8 C 28 5.563831 26.875 3.53125 26.875 3.53125 L 26.25 2.34375 L 25.28125 3.28125 C 25.28125 3.28125 24.359555 4.2244769 22.5625 5.09375 C 21.323206 5.6935052 20.558157 6.6140255 20.125 7.28125 C 19.004675 6.5227702 17.632962 6 16 6 C 14.367038 6 12.995325 6.5227702 11.875 7.28125 C 11.441843 6.6140255 10.676794 5.6935052 9.4375 5.09375 C 7.640445 4.2244769 6.71875 3.28125 6.71875 3.28125 L 5.75 2.34375 z M 6.46875 5.5 C 6.9943518 5.9342211 7.2367264 6.2649455 8.5625 6.90625 C 9.4799135 7.3502315 10.079809 8.1675296 10.34375 8.59375 C 9.919595 9.0495117 9.5603682 9.5283572 9.25 10 C 8.7393955 10.775927 8.3828687 11.488828 8.125 12.09375 C 7.2549197 11.476318 6 10.202892 6 8 C 6 7.0426511 6.2358561 6.1662765 6.46875 5.5 z M 25.53125 5.5 C 25.764144 6.1662765 26 7.0426511 26 8 C 26 10.202892 24.74508 11.476318 23.875 12.09375 C 23.617131 11.488828 23.260604 10.775927 22.75 10 C 22.439632 9.5283572 22.080405 9.0495117 21.65625 8.59375 C 21.920191 8.1675296 22.520086 7.3502315 23.4375 6.90625 C 24.763274 6.2649455 25.005648 5.9342211 25.53125 5.5 z M 16 8 C 18.435076 8 19.996224 9.4734115 21.0625 11.09375 C 22.128776 12.714088 22.5625 14.34375 22.5625 14.34375 L 22.65625 14.75 L 23 14.9375 C 23 14.9375 26 16.822613 26 21 C 26 24.149885 24.462106 25.453237 22.8125 26.21875 C 21.162894 26.984263 19.46875 27 19.46875 27 L 19.0625 27 L 18.78125 27.28125 C 18.78125 27.28125 18.68669 27.399105 18.25 27.59375 C 17.813315 27.788395 17.095054 28 16 28 C 14.904946 28 14.186685 27.788395 13.75 27.59375 C 13.313315 27.399105 13.21875 27.28125 13.21875 27.28125 L 12.9375 27 L 12.53125 27 C 12.53125 27 10.837106 26.98426 9.1875 26.21875 C 7.5378944 25.453237 6 24.149885 6 21 C 6 16.822613 9 14.9375 9 14.9375 L 9.34375 14.75 L 9.4375 14.34375 C 9.4375 14.34375 9.8712238 12.714088 10.9375 11.09375 C 12.003776 9.4734115 13.564924 8 16 8 z M 13 12 C 12.447715 12 12 12.447715 12 13 C 12 13.374639 12.226327 13.672456 12.53125 13.84375 C 12.312237 13.96122 12.105208 14.079487 11.90625 14.21875 C 10.80563 14.989139 10 16.147399 10 17.5 C 10 18.875156 10.812796 20.042902 11.9375 20.8125 L 13.0625 19.1875 C 12.331204 18.687098 12 18.086844 12 17.5 C 12 16.919601 12.32212 16.340111 13.03125 15.84375 C 13.74038 15.347389 14.808683 15 16 15 C 17.191317 15 18.25962 15.347389 18.96875 15.84375 C 19.67788 16.340111 20 16.919601 20 17.5 C 20 18.086844 19.668796 18.687098 18.9375 19.1875 L 20.0625 20.8125 C 21.187204 20.042902 22 18.875156 22 17.5 C 22 16.147399 21.19437 14.989139 20.09375 14.21875 C 19.894792 14.079487 19.687763 13.96122 19.46875 13.84375 C 19.773673 13.672456 20 13.374639 20 13 C 20 12.447715 19.552285 12 19 12 C 18.447715 12 18 12.447715 18 13 C 18 13.102877 18.033648 13.187848 18.0625 13.28125 C 17.415631 13.101351 16.7272 13 16 13 C 15.2728 13 14.584369 13.101351 13.9375 13.28125 C 13.966352 13.187848 14 13.102877 14 13 C 14 12.447715 13.552285 12 13 12 z M 14.25 17 C 13.835786 17 13.5 17.447715 13.5 18 C 13.5 18.552285 13.835786 19 14.25 19 C 14.664214 19 15 18.552285 15 18 C 15 17.447715 14.664214 17 14.25 17 z M 17.75 17 C 17.335786 17 17 17.447715 17 18 C 17 18.552285 17.335786 19 17.75 19 C 18.164214 19 18.5 18.552285 18.5 18 C 18.5 17.447715 18.164214 17 17.75 17 z M 14.78125 21 C 13.33825 21 12.698 22.927 11 23 C 11 23 13.146 26 16 26 C 18.854 26 21 23 21 23 C 19.303 22.927 18.66275 21 17.21875 21 C 16.70475 21 16.291 21.34375 16 21.34375 C 15.709 21.34375 15.27025 21 14.78125 21 z" overflow="visible" font-family="Sans" fill="#000000"/></svg>
