<?xml version="1.0" encoding="utf-8"?>
<svg xmlns="http://www.w3.org/2000/svg" viewBox="0 0 32 32" fill="#000000"><path style="text-indent:0;text-align:start;line-height:normal;text-transform:none;block-progression:tb;-inkscape-font-specification:Sans" d="M 16 4 C 13.75 4 12.232731 4.8867014 10.875 5.625 C 9.5172689 6.3632986 8.2816307 7 6 7 L 5 7 L 5 8 C 5 15.717856 7.6089135 20.742812 10.25 23.78125 C 12.891087 26.819688 15.625 27.9375 15.625 27.9375 L 16 28.0625 L 16.375 27.9375 C 16.375 27.9375 19.107796 26.844825 21.75 23.8125 C 24.392204 20.780175 27 15.745028 27 8 L 27 7 L 26 7 C 23.730806 7 22.486176 6.3636322 21.125 5.625 C 19.763824 4.8863678 18.25 4 16 4 z M 16 6 C 17.75 6 18.753176 6.6136322 20.15625 7.375 C 21.340793 8.0177834 22.910458 8.6372814 24.9375 8.84375 C 24.747003 15.608267 22.507764 19.908878 20.25 22.5 C 18.204885 24.847076 16.486125 25.627185 16 25.84375 C 15.513342 25.624273 13.796084 24.822668 11.75 22.46875 C 9.4917953 19.870798 7.2540904 15.579755 7.0625 8.84375 C 9.0961026 8.6372561 10.661153 8.018065 11.84375 7.375 C 13.244519 6.6132986 14.25 6 16 6 z M 16 10 C 13.243 10 11 12.243 11 15 C 11 17.757 13.243 20 16 20 C 18.045 20 19.7885 18.763 20.5625 17 L 18.21875 17 C 17.66975 17.609 16.883 18 16 18 C 14.346 18 13 16.654 13 15 C 13 13.346 14.346 12 16 12 C 16.882944 12 17.669249 12.39077 18.21875 13 L 16 13 L 16 15 L 19 15 L 20 15 L 21 15 L 21 14 L 21 10 L 19 10 L 19 11.03125 C 18.159648 10.391018 17.135568 10 16 10 z" overflow="visible" font-family="Sans" fill="#000000"/></svg>
