<?xml version="1.0" encoding="utf-8"?>
<svg xmlns="http://www.w3.org/2000/svg" viewBox="0 0 32 32" fill="#000000"><path d="M 17 3 C 16.393194 3.6425 16.030654 4.4599529 15.8125 5.25 C 15.368963 4.6918134 14.79463 4.1986575 14 4 C 14.30123 4.7831967 14.423115 5.4400441 14.46875 6 C 13.907899 5.4908639 13.10473 5.0736486 12 5 C 12 5 12.658691 5.6796875 12.90625 7 C 8.1472845 7.0637929 4 12.040373 4 18 C 4 23.998225 8.2024032 29 13 29 L 19 29 C 23.645237 29 28 24.020918 28 18 C 28 12.005825 23.684456 7.0439566 19.0625 7 C 19.295309 5.5308073 20 5 20 5 C 19.238176 5 18.616389 5.1800869 18.125 5.46875 C 17.968315 4.6280117 17.653468 3.7303468 17 3 z M 13 9 C 14.333333 9 15.09375 10.4375 15.09375 10.4375 L 16.90625 10.4375 C 16.90625 10.4375 17.666667 9 19 9 C 22.104763 9 26 12.974918 26 18 C 26 23.025082 22.104763 27 19 27 C 17.666667 27 16.90625 25.5625 16.90625 25.5625 L 15.09375 25.5625 C 15.09375 25.5625 14.333333 27 13 27 C 9.6715968 27 6 23.047775 6 18 C 6 12.952225 9.6715968 9 13 9 z M 13 11 C 12.447715 11 12 11.447715 12 12 C 12 12.552285 12.447715 13 13 13 C 13.552285 13 14 12.552285 14 12 C 14 11.447715 13.552285 11 13 11 z M 19 11 C 18.447715 11 18 11.447715 18 12 C 18 12.552285 18.447715 13 19 13 C 19.552285 13 20 12.552285 20 12 C 20 11.447715 19.552285 11 19 11 z M 10 13 C 9.4477153 13 9 13.447715 9 14 C 9 14.552285 9.4477153 15 10 15 C 10.552285 15 11 14.552285 11 14 C 11 13.447715 10.552285 13 10 13 z M 16 13 C 15.447715 13 15 13.447715 15 14 C 15 14.552285 15.447715 15 16 15 C 16.552285 15 17 14.552285 17 14 C 17 13.447715 16.552285 13 16 13 z M 22 13 C 21.447715 13 21 13.447715 21 14 C 21 14.552285 21.447715 15 22 15 C 22.552285 15 23 14.552285 23 14 C 23 13.447715 22.552285 13 22 13 z M 13 15 C 12.447715 15 12 15.447715 12 16 C 12 16.552285 12.447715 17 13 17 C 13.552285 17 14 16.552285 14 16 C 14 15.447715 13.552285 15 13 15 z M 19 15 C 18.447715 15 18 15.447715 18 16 C 18 16.552285 18.447715 17 19 17 C 19.552285 17 20 16.552285 20 16 C 20 15.447715 19.552285 15 19 15 z M 10 17 C 9.4477153 17 9 17.447715 9 18 C 9 18.552285 9.4477153 19 10 19 C 10.552285 19 11 18.552285 11 18 C 11 17.447715 10.552285 17 10 17 z M 16 17 C 15.447715 17 15 17.447715 15 18 C 15 18.552285 15.447715 19 16 19 C 16.552285 19 17 18.552285 17 18 C 17 17.447715 16.552285 17 16 17 z M 22 17 C 21.447715 17 21 17.447715 21 18 C 21 18.552285 21.447715 19 22 19 C 22.552285 19 23 18.552285 23 18 C 23 17.447715 22.552285 17 22 17 z M 13 19 C 12.447715 19 12 19.447715 12 20 C 12 20.552285 12.447715 21 13 21 C 13.552285 21 14 20.552285 14 20 C 14 19.447715 13.552285 19 13 19 z M 19 19 C 18.447715 19 18 19.447715 18 20 C 18 20.552285 18.447715 21 19 21 C 19.552285 21 20 20.552285 20 20 C 20 19.447715 19.552285 19 19 19 z M 10 21 C 9.4477153 21 9 21.447715 9 22 C 9 22.552285 9.4477153 23 10 23 C 10.552285 23 11 22.552285 11 22 C 11 21.447715 10.552285 21 10 21 z M 16 21 C 15.447715 21 15 21.447715 15 22 C 15 22.552285 15.447715 23 16 23 C 16.552285 23 17 22.552285 17 22 C 17 21.447715 16.552285 21 16 21 z M 22 21 C 21.447715 21 21 21.447715 21 22 C 21 22.552285 21.447715 23 22 23 C 22.552285 23 23 22.552285 23 22 C 23 21.447715 22.552285 21 22 21 z M 13 23 C 12.447715 23 12 23.447715 12 24 C 12 24.552285 12.447715 25 13 25 C 13.552285 25 14 24.552285 14 24 C 14 23.447715 13.552285 23 13 23 z M 19 23 C 18.447715 23 18 23.447715 18 24 C 18 24.552285 18.447715 25 19 25 C 19.552285 25 20 24.552285 20 24 C 20 23.447715 19.552285 23 19 23 z" fill="#000000"/></svg>
