<?xml version="1.0" encoding="utf-8"?>
<svg xmlns="http://www.w3.org/2000/svg" viewBox="0 0 32 32" fill="#000000"><path style="text-indent:0;text-align:start;line-height:normal;text-transform:none;block-progression:tb;-inkscape-font-specification:Sans" d="M 10 3 C 8.9130853 3 8 3.9130853 8 5 L 8 18 L 8 19 L 8 27.125 C 8 28.163 8.837 29 9.875 29 L 22.125 29 C 23.163 29 24 28.163 24 27.125 L 24 19 L 24 18 L 24 5 C 24 3.9130853 23.086915 3 22 3 L 10 3 z M 10 5 L 22 5 L 22 18 L 10 18 L 10 5 z M 16 19 C 16.552 19 17 19.448 17 20 C 17 20.552 16.552 21 16 21 C 15.448 21 15 20.552 15 20 C 15 19.448 15.448 19 16 19 z M 11.625 22 L 13 22 L 13 24 L 10 24 L 10 23.625 C 10 22.722 10.722 22 11.625 22 z M 14 22 L 18 22 L 18 24 L 14 24 L 14 22 z M 19 22 L 20.375 22 C 21.278 22 22 22.722 22 23.625 L 22 24 L 19 24 L 19 22 z M 10 25 L 13 25 L 13 27 L 11.625 27 C 10.722 27 10 26.278 10 25.375 L 10 25 z M 14 25 L 18 25 L 18 27 L 14 27 L 14 25 z M 19 25 L 22 25 L 22 25.375 C 22 26.278 21.278 27 20.375 27 L 19 27 L 19 25 z" overflow="visible" font-family="Sans" fill="#000000"/></svg>
