<?xml version="1.0" encoding="utf-8"?>
<svg xmlns="http://www.w3.org/2000/svg" viewBox="0 0 32 32" fill="#000000"><path style="text-indent:0;text-align:start;line-height:normal;text-transform:none;block-progression:tb;-inkscape-font-specification:Bitstream Vera Sans" d="M 4 4 L 4 5 L 4 13 L 4 14 L 5 14 L 9.09375 14 C 9.0522847 14.329636 9 14.656412 9 15 C 9 17.301789 10.09375 19.4375 10.09375 19.4375 L 10.25 19.75 L 10.5625 19.90625 C 10.5625 19.90625 12.121315 20.669928 14 20.90625 C 13.999585 20.937515 14 20.96864 14 21 C 14 24.854148 17.145852 28 21 28 C 24.854148 28 28 24.854148 28 21 C 28 17.145852 24.854148 14 21 14 C 20.979093 14 20.958365 13.999815 20.9375 14 C 20.706711 12.089252 19.90625 10.5625 19.90625 10.5625 L 19.75 10.25 L 19.46875 10.09375 C 19.46875 10.09375 17.361761 9 15 9 C 14.659958 9 14.323951 9.0236827 14 9.0625 L 14 5 L 14 4 L 13 4 L 5 4 L 4 4 z M 6 6 L 12 6 L 12 9.53125 C 11.114405 9.8163045 10.53125 10.09375 10.53125 10.09375 L 10.25 10.25 L 10.09375 10.5625 C 10.09375 10.5625 9.8137185 11.130136 9.53125 12 L 6 12 L 6 6 z M 15 11 C 16.470663 11 17.813163 11.598397 18.21875 11.78125 C 18.377685 12.140152 18.796389 13.160103 18.9375 14.3125 C 16.748224 14.996249 14.996249 16.748224 14.3125 18.9375 C 13.175605 18.795978 12.144426 18.376042 11.78125 18.21875 C 11.5925 17.782939 11 16.389911 11 15 C 11 14.433564 11.089371 13.877472 11.21875 13.375 A 1.0001 1.0001 0 0 0 11.25 13.25 C 11.255804 13.228716 11.275356 13.208517 11.28125 13.1875 A 1.0001 1.0001 0 0 0 11.28125 13.09375 C 11.457145 12.488366 11.683544 12.006848 11.78125 11.78125 C 11.997613 11.683706 12.498167 11.461376 13.125 11.28125 A 1.0001 1.0001 0 0 0 13.3125 11.25 C 13.343749 11.24175 13.374407 11.226754 13.40625 11.21875 C 13.894402 11.09605 14.4239 11 15 11 z M 21 16 C 23.773268 16 26 18.226732 26 21 C 26 23.773268 23.773268 26 21 26 C 18.226732 26 16 23.773268 16 21 C 16 18.226732 18.226732 16 21 16 z" overflow="visible" font-family="Bitstream Vera Sans" fill="#000000"/></svg>
