<?xml version="1.0" encoding="utf-8"?>
<svg xmlns="http://www.w3.org/2000/svg" viewBox="0 0 32 32" fill="#000000"><path style="text-indent:0;text-align:start;line-height:normal;text-transform:none;block-progression:tb;-inkscape-font-specification:Sans" d="M 3 5 L 3 6 L 3 22 L 3 23 L 4 23 L 8 23 L 8 26 L 8 28.09375 L 9.625 26.78125 L 14.34375 23 L 28 23 L 29 23 L 29 22 L 29 6 L 29 5 L 28 5 L 4 5 L 3 5 z M 5 7 L 27 7 L 27 21 L 14 21 L 13.65625 21 L 13.375 21.21875 L 10 23.90625 L 10 22 L 10 21 L 9 21 L 5 21 L 5 7 z M 16 9 C 14.354545 9 13 10.354545 13 12 L 12 12 L 11 12 L 11 13 L 11 18 L 11 19 L 12 19 L 20 19 L 21 19 L 21 18 L 21 13 L 21 12 L 20 12 L 19 12 C 19 10.354545 17.645455 9 16 9 z M 16 11 C 16.554545 11 17 11.445455 17 12 L 15 12 C 15 11.445455 15.445455 11 16 11 z M 13 14 L 19 14 L 19 17 L 13 17 L 13 14 z" overflow="visible" font-family="Sans" fill="#000000"/></svg>
