<?xml version="1.0" encoding="utf-8"?>
<svg xmlns="http://www.w3.org/2000/svg" viewBox="0 0 32 32" fill="#000000"><path d="M 4 8.40625 C 3.4 8.40625 3 8.80625 3 9.40625 L 3 18 C 3 20.7 5.3 23 8 23 C 9.9 23 11.6 21.9125 12.5 20.3125 C 13.4 21.9125 15 23 17 23 C 19.8 23 22 20.7 22 18 C 22 15.2 19.8 12.90625 17 12.90625 C 15.1 12.90625 13.4 13.99375 12.5 15.59375 C 11.7 13.99375 10 12.90625 8 12.90625 C 6.9 12.90625 5.8 13.30625 5 13.90625 L 5 9.40625 C 5 8.90625 4.5 8.40625 4 8.40625 z M 21.75 12.84375 C 21.623438 12.870312 21.50625 12.925 21.40625 13 C 21.00625 13.3 20.8875 14.00625 21.1875 14.40625 L 23.8125 17.90625 L 21.1875 21.40625 C 20.8875 21.80625 21.00625 22.5125 21.40625 22.8125 C 21.80625 23.1125 22.5125 22.99375 22.8125 22.59375 L 25 19.59375 L 27.1875 22.59375 C 27.4875 22.99375 28.19375 23.1125 28.59375 22.8125 C 28.99375 22.5125 29.1125 21.80625 28.8125 21.40625 L 26.1875 17.90625 L 28.8125 14.40625 C 29.1125 14.00625 28.99375 13.3 28.59375 13 C 28.19375 12.7 27.4875 12.7875 27.1875 13.1875 L 25 16.1875 L 22.8125 13.1875 C 22.5875 12.8875 22.129687 12.764063 21.75 12.84375 z M 8 15 C 9.6 15 11 16.4 11 18 C 11.1 19.6 9.7 21 8 21 C 6.3 21 5 19.6 5 18 C 5 16.3 6.4 15 8 15 z M 17 15 C 18.7 15 20 16.4 20 18 C 20 19.6 18.6 21 17 21 C 15.3 21 14 19.6 14 18 C 14 16.3 15.4 15 17 15 z" fill="#000000"/></svg>
