<?xml version="1.0" encoding="utf-8"?>
<svg xmlns="http://www.w3.org/2000/svg" viewBox="0 0 32 32" fill="#000000"><path style="text-indent:0;text-align:start;line-height:normal;text-transform:none;block-progression:tb;-inkscape-font-specification:Bitstream Vera Sans" d="M 16 4 C 10.802059 4 6.5594214 7.9352628 6.0625 13 L 4 13 L 4 15 L 6 15 L 6 19 L 4 19 L 4 21 L 6 21 C 6 23.745455 8.2545455 26 11 26 L 12.5625 26 C 13.254437 27.193794 14.520346 28 16 28 C 17.479654 28 18.745563 27.193794 19.4375 26 L 21 26 C 23.745455 26 26 23.745455 26 21 L 28 21 L 28 19 L 26 19 L 26 15 L 28 15 L 28 13 L 25.9375 13 C 25.440579 7.9352628 21.197941 4 16 4 z M 16 6 C 20.466667 6 24 9.5333333 24 14 L 24 21 C 24 22.654545 22.654545 24 21 24 L 20 24 C 20 21.790196 18.209804 20 16 20 C 13.790196 20 12 21.790196 12 24 L 11 24 C 9.3454545 24 8 22.654545 8 21 L 8 14 C 8 9.5333333 11.533333 6 16 6 z M 12 13 C 10.35499 13 9 14.35499 9 16 C 9 17.64501 10.35499 19 12 19 C 13.64501 19 15 17.64501 15 16 C 15 14.35499 13.64501 13 12 13 z M 20 13 C 18.35499 13 17 14.35499 17 16 C 17 17.64501 18.35499 19 20 19 C 21.64501 19 23 17.64501 23 16 C 23 14.35499 21.64501 13 20 13 z M 12 15 C 12.564128 15 13 15.435872 13 16 C 13 16.564128 12.564128 17 12 17 C 11.435872 17 11 16.564128 11 16 C 11 15.435872 11.435872 15 12 15 z M 20 15 C 20.564128 15 21 15.435872 21 16 C 21 16.564128 20.564128 17 20 17 C 19.435872 17 19 16.564128 19 16 C 19 15.435872 19.435872 15 20 15 z M 16 22 C 17.190196 22 18 22.809804 18 24 C 18 25.190196 17.190196 26 16 26 C 14.809804 26 14 25.190196 14 24 C 14 22.809804 14.809804 22 16 22 z" fill="#000000"/></svg>
