<?xml version="1.0" encoding="utf-8"?>
<svg xmlns="http://www.w3.org/2000/svg" viewBox="0 0 32 32" fill="#000000"><path style="text-indent:0;text-align:start;line-height:normal;text-transform:none;block-progression:tb;-inkscape-font-specification:Sans" d="M 13 3 C 9.1456661 3 6 6.1456661 6 10 C 6 12.408959 7.2311686 14.552158 9.09375 15.8125 C 5.5266132 17.342333 3 20.881262 3 25 L 5 25 C 5 20.569334 8.5693339 17 13 17 C 15.146049 17 17.062946 17.878531 18.5 19.25 L 14 23.75 L 13.78125 23.96875 L 13.71875 24.28125 L 13.03125 27.8125 L 12.71875 29.28125 L 14.1875 28.96875 L 17.71875 28.28125 L 18.03125 28.21875 L 18.25 28 L 28.125 18.125 C 29.286959 16.963041 29.286959 15.036959 28.125 13.875 C 27.544021 13.294021 26.769064 13 26 13 C 25.244588 13 24.483417 13.283214 23.90625 13.84375 L 23.875 13.875 L 19.9375 17.8125 C 19.091353 16.997417 18.090864 16.323509 17 15.84375 C 18.09888 15.261363 19.143724 14.524664 20.09375 13.8125 C 22.158593 12.264642 23.71875 10.71875 23.71875 10.71875 L 24.40625 10 L 23.71875 9.3125 C 23.71875 9.3125 22.20752 7.737676 20.15625 6.1875 C 18.10498 4.637324 15.545819 3 13 3 z M 13 5 C 14.575181 5 17.01902 6.362676 18.9375 7.8125 C 20.392955 8.9124091 20.988139 9.532473 21.46875 10 C 20.975177 10.470775 20.371635 11.089011 18.90625 12.1875 C 16.969093 13.639642 14.494998 15 13 15 C 10.226334 15 8 12.773666 8 10 C 8 7.2263339 10.226334 5 13 5 z M 26 15 C 26.252936 15 26.519729 15.08223 26.71875 15.28125 C 27.116791 15.679291 27.116791 16.289459 26.71875 16.6875 L 17.03125 26.375 L 15.25 26.75 L 15.625 24.96875 L 25.3125 15.28125 C 25.511521 15.082229 25.747064 15 26 15 z" overflow="visible" font-family="Sans" fill="#000000"/></svg>
