<?xml version="1.0" encoding="utf-8"?>
<svg xmlns="http://www.w3.org/2000/svg" viewBox="0 0 32 32" fill="#000000"><path d="M 3.71875 2.28125 L 2.28125 3.71875 L 28.28125 29.71875 L 29.71875 28.28125 L 23.8125 22.375 L 27.40625 12.25 L 19.40625 4.25 L 9.96875 8.53125 L 3.71875 2.28125 z M 19.5625 7.21875 L 25.09375 12.78125 L 22.25 20.8125 L 16.5 15.0625 L 19.5625 7.21875 z M 17.34375 7.375 L 14.96875 13.53125 L 11.5 10.0625 L 17.34375 7.375 z M 7.53125 11.71875 L 3.84375 19.8125 L 10.03125 26 L 5 26 L 5 28 L 23.8125 28 L 21.8125 26 L 16.9375 26 L 20.53125 24.71875 L 18.96875 23.15625 L 12.375 25.5 L 6.8125 19.96875 L 13.25 17.4375 L 11.6875 15.90625 L 6.96875 17.75 L 9.03125 13.21875 L 7.53125 11.71875 z" fill="#000000"/></svg>
