<?xml version="1.0" encoding="utf-8"?>
<svg xmlns="http://www.w3.org/2000/svg" viewBox="4 -4 32 32" fill="#000000"><path style="text-indent:0;text-align:start;line-height:normal;text-transform:none;block-progression:tb;-inkscape-font-specification:Bitstream Vera Sans" d="M 5 5 L 5 6 L 5 26 L 5 27 L 6 27 L 26 27 L 27 27 L 27 26 L 27 6 L 27 5 L 26 5 L 6 5 L 5 5 z M 7 7 L 25 7 L 25 25 L 7 25 L 7 7 z M 12.5 11 C 11.671573 11 11 11.671573 11 12.5 C 11 13.328427 11.671573 14 12.5 14 C 13.328427 14 14 13.328427 14 12.5 C 14 11.671573 13.328427 11 12.5 11 z M 19.5 11 C 18.671573 11 18 11.671573 18 12.5 C 18 13.328427 18.671573 14 19.5 14 C 20.328427 14 21 13.328427 21 12.5 C 21 11.671573 20.328427 11 19.5 11 z M 14 17 L 14 19 L 12 19 L 12 23 L 20 23 L 20 19 L 18 19 L 18 17 L 14 17 z" transform="translate(4 -4)" overflow="visible" font-family="Bitstream Vera Sans" fill="#000000"/></svg>
