<?xml version="1.0" encoding="utf-8"?>
<svg xmlns="http://www.w3.org/2000/svg" viewBox="0 0 32 32" fill="#000000"><path style="text-indent:0;text-align:start;line-height:normal;text-transform:none;block-progression:tb;-inkscape-font-specification:Sans" d="M 13.75 3 C 12.783 3 12 3.794 12 4.75 C 12 5.342 12.59375 5.90625 12.59375 5.90625 L 15.5 8.84375 L 18.40625 5.90625 C 18.40625 5.90625 19 5.343 19 4.75 C 19 3.795 18.217 3 17.25 3 C 16.283 3 15.5 3.875 15.5 3.875 C 15.5 3.875 14.717 3 13.75 3 z M 8.9375 8 C 6.0436781 8 3.9105581 8.7277443 2.5625 10.25 C 1.2144419 11.772256 0.78125 13.905549 0.78125 16.375 L 0.78125 17.0625 C 0.33611256 17.53877 0 18.112361 0 18.8125 C 0 19.85668 0.70131026 20.643519 1.59375 21.0625 C 1.876523 21.993368 2.1933025 22.947453 2.53125 23.78125 C 2.9121756 24.721084 3.237206 25.459752 3.75 26.03125 C 6.053227 28.593945 9.946773 28.593945 12.25 26.03125 C 12.763562 25.459761 13.087654 24.721312 13.46875 23.78125 C 13.806848 22.947251 14.12377 21.993631 14.40625 21.0625 C 15.29869 20.643519 16 19.85668 16 18.8125 C 16 18.112385 15.666229 17.540704 15.21875 17.0625 L 15.21875 16.375 C 15.21875 11.991893 12.916205 9.5100122 10.46875 9.15625 L 9.6875 8.3125 L 9.375 8 L 8.9375 8 z M 16 18.8125 C 16 19.85668 16.70131 20.643519 17.59375 21.0625 C 17.876523 21.993368 18.193302 22.947453 18.53125 23.78125 C 18.912176 24.721084 19.237206 25.459752 19.75 26.03125 C 22.053227 28.593945 25.946773 28.593945 28.25 26.03125 C 28.763562 25.459761 29.087654 24.721312 29.46875 23.78125 C 29.806848 22.947251 30.12377 21.993631 30.40625 21.0625 C 31.29869 20.643519 32 19.85668 32 18.8125 C 32 18.112385 31.666229 17.540704 31.21875 17.0625 L 31.21875 16.375 C 31.21875 11.991893 28.916205 9.5100122 26.46875 9.15625 L 25.6875 8.3125 L 25.375 8 L 24.9375 8 C 22.043678 8 19.910558 8.7277443 18.5625 10.25 C 17.214442 11.772256 16.78125 13.905549 16.78125 16.375 L 16.78125 17.0625 C 16.336113 17.53877 16 18.112361 16 18.8125 z M 8.5625 10.0625 L 9.03125 10.53125 C 9.2509575 11.012608 9.3609204 11.371833 9.375 11.5625 C 9.39008 11.766721 9.36577 11.751257 9.34375 11.78125 C 9.299716 11.84123 8.8626569 12.077056 8.15625 12.25 C 7.4498431 12.422944 6.5657953 12.57538 5.71875 13.09375 C 4.8717047 13.61212 4.1666278 14.657492 4.15625 16 L 6.15625 16 C 6.16237 15.208008 6.3422953 15.030755 6.75 14.78125 C 7.1577047 14.531745 7.8589069 14.375056 8.625 14.1875 C 9.3910931 13.999944 10.311784 13.82114 10.9375 12.96875 C 11.228011 12.572997 11.35927 12.05926 11.34375 11.53125 C 12.325231 12.23182 13.21875 13.698932 13.21875 16.375 L 13.21875 17.40625 L 13.21875 17.96875 L 13.6875 18.25 C 13.855556 18.352059 14 18.548169 14 18.8125 C 14 19.180213 13.768027 19.414689 13.5 19.4375 L 12.8125 19.5 L 12.625 20.15625 C 12.338827 21.136029 11.972904 22.173062 11.625 23.03125 C 11.277096 23.889438 10.861688 24.629239 10.78125 24.71875 C 9.196477 26.482055 6.803523 26.482055 5.21875 24.71875 C 5.137544 24.62825 4.7228244 23.889416 4.375 23.03125 C 4.0271756 22.173084 3.6617394 21.136307 3.375 20.15625 L 3.1875 19.5 L 2.5 19.4375 C 2.2319732 19.414689 2 19.180213 2 18.8125 C 2 18.555235 2.1418709 18.353401 2.3125 18.25 L 2.78125 17.96875 L 2.78125 17.40625 L 2.78125 16.375 L 2.78125 16.34375 C 2.78567 14.136198 3.194247 12.5742 4.0625 11.59375 C 4.8818183 10.668559 6.2796449 10.130736 8.5625 10.0625 z M 24.5625 10.0625 L 25.03125 10.53125 C 25.250958 11.012608 25.360921 11.371833 25.375 11.5625 C 25.39008 11.766721 25.3658 11.751257 25.34375 11.78125 C 25.29972 11.84123 24.862657 12.077056 24.15625 12.25 C 23.449843 12.422944 22.565795 12.57538 21.71875 13.09375 C 20.871705 13.61212 20.166628 14.657492 20.15625 16 L 22.15625 16 C 22.16235 15.208008 22.342295 15.030755 22.75 14.78125 C 23.157705 14.531745 23.858907 14.375056 24.625 14.1875 C 25.391093 13.999944 26.311784 13.82114 26.9375 12.96875 C 27.228011 12.572997 27.35927 12.05926 27.34375 11.53125 C 28.325231 12.23182 29.21875 13.698932 29.21875 16.375 L 29.21875 17.40625 L 29.21875 17.96875 L 29.6875 18.25 C 29.855556 18.352059 30 18.548169 30 18.8125 C 30 19.180213 29.768027 19.414689 29.5 19.4375 L 28.8125 19.5 L 28.625 20.15625 C 28.338827 21.136029 27.972904 22.173062 27.625 23.03125 C 27.277096 23.889438 26.861688 24.629239 26.78125 24.71875 C 25.196477 26.482055 22.803523 26.482055 21.21875 24.71875 C 21.13754 24.62825 20.722824 23.889416 20.375 23.03125 C 20.027176 22.173084 19.661739 21.136307 19.375 20.15625 L 19.1875 19.5 L 18.5 19.4375 C 18.231973 19.414689 18 19.180213 18 18.8125 C 18 18.555235 18.141871 18.353401 18.3125 18.25 L 18.78125 17.96875 L 18.78125 17.40625 L 18.78125 16.375 L 18.78125 16.34375 C 18.78565 14.136198 19.194247 12.5742 20.0625 11.59375 C 20.881759 10.668625 22.279947 10.130805 24.5625 10.0625 z M 6 18 C 5.4477153 18 5 18.447715 5 19 C 5 19.552285 5.4477153 20 6 20 C 6.5522847 20 7 19.552285 7 19 C 7 18.447715 6.5522847 18 6 18 z M 10 18 C 9.4477153 18 9 18.447715 9 19 C 9 19.552285 9.4477153 20 10 20 C 10.552285 20 11 19.552285 11 19 C 11 18.447715 10.552285 18 10 18 z M 22 18 C 21.447715 18 21 18.447715 21 19 C 21 19.552285 21.447715 20 22 20 C 22.552285 20 23 19.552285 23 19 C 23 18.447715 22.552285 18 22 18 z M 26 18 C 25.447715 18 25 18.447715 25 19 C 25 19.552285 25.447715 20 26 20 C 26.552285 20 27 19.552285 27 19 C 27 18.447715 26.552285 18 26 18 z" overflow="visible" font-family="Sans" fill="#000000"/></svg>
