<?xml version="1.0" encoding="utf-8"?>
<svg xmlns="http://www.w3.org/2000/svg" viewBox="0 0 32 32" fill="#000000"><path d="M 4 5 C 2.3550302 5 1 6.3550302 1 8 L 1 25 L 4.1445312 25 C 4.5944085 26.715786 6.1496983 28 8 28 C 9.8503014 28 11.405591 26.715786 11.855469 25 L 19.144531 25 C 19.594409 26.715786 21.149699 28 23 28 C 24.850301 28 26.405591 26.715786 26.855469 25 L 31 25 L 31 17.458984 C 31 15.558588 29.649058 13.910421 27.785156 13.537109 L 27.898438 13.566406 L 26.800781 13.208984 L 25.396484 8.6855469 C 25.121433 7.6725639 24.634226 6.7574659 23.886719 6.0800781 C 23.139211 5.4026904 22.125215 5 21 5 L 4 5 z M 4 7 L 13 7 L 13 13 L 3 13 L 3 8 C 3 7.4349698 3.4349698 7 4 7 z M 15 7 L 19 7 L 19 13 L 17 13 L 15 13 L 15 7 z M 21 7 C 21.679785 7 22.144476 7.2013877 22.542969 7.5625 C 22.941461 7.9236123 23.268848 8.4819175 23.466797 9.2109375 L 23.470703 9.2265625 L 24.642578 13 L 21 13 L 21 7 z M 3 15 L 13 15 L 13 23 L 11.855469 23 C 11.405591 21.284214 9.8503014 20 8 20 C 6.1496983 20 4.5944085 21.284214 4.1445312 23 L 3 23 L 3 15 z M 15 15 L 17 15 L 19 15 L 19 23 L 15 23 L 15 15 z M 21 15 L 25.841797 15 L 27.333984 15.486328 L 27.392578 15.498047 C 28.179127 15.655578 28.766814 16.250221 28.941406 17 L 26 17 L 26 19 L 29 19 L 29 23 L 26.855469 23 C 26.405591 21.284214 24.850301 20 23 20 C 22.269456 20 21.588689 20.20483 21 20.552734 L 21 15 z M 8 22 C 9.1164141 22 10 22.883586 10 24 C 10 25.116414 9.1164141 26 8 26 C 6.8835859 26 6 25.116414 6 24 C 6 22.883586 6.8835859 22 8 22 z M 23 22 C 24.116414 22 25 22.883586 25 24 C 25 25.116414 24.116414 26 23 26 C 21.883586 26 21 25.116414 21 24 C 21 22.883586 21.883586 22 23 22 z" fill="#000000"/></svg>
