<?xml version="1.0" encoding="utf-8"?>
<svg xmlns="http://www.w3.org/2000/svg" viewBox="0 0 32 32" fill="#000000"><path style="text-indent:0;text-align:start;line-height:normal;text-transform:none;block-progression:tb;-inkscape-font-specification:Bitstream Vera Sans" d="M 16 4 C 12.915323 4 10.354114 6.3415936 10.03125 9.34375 C 8.0029921 10.058565 6.4604234 11.831345 6.09375 14 L 8.15625 14 C 8.60325 12.28 10.142 11 12 11 C 12.527 11 13.029 11.1215 13.5 11.3125 C 13.846 10.7065 14.258 10.13925 14.75 9.65625 C 13.957458 9.2467382 13.077579 9.0241064 12.15625 9 C 12.598651 7.2714534 14.127336 6 16 6 C 17.872664 6 19.401349 7.2714534 19.84375 9 C 17.256328 9.0691372 14.975219 10.819314 14.25 13.3125 L 16.15625 13.875 C 16.64925 12.18 18.232 11 20 11 C 21.858 11 23.39675 12.28 23.84375 14 L 25.90625 14 C 25.540342 11.831345 23.997414 10.058565 21.96875 9.34375 C 21.645886 6.3415936 19.084677 4 16 4 z M 4 15 L 4 16 C 4 19.888981 6.5040511 23.184102 9.96875 24.4375 C 9.3752796 25.135923 9 26.018857 9 27 L 9 28 L 10 28 L 22 28 L 23 28 L 23 27 C 23 26.018857 22.62472 25.135923 22.03125 24.4375 C 25.495949 23.184102 28 19.888981 28 16 L 28 15 L 27 15 L 5 15 L 4 15 z M 6.21875 17 L 25.78125 17 C 25.276957 20.375492 22.520095 23 19 23 L 13 23 C 9.4799048 23 6.7230432 20.375492 6.21875 17 z M 13 25 L 19 25 C 19.717456 25 20.210082 25.44311 20.5625 26 L 11.4375 26 C 11.789918 25.44311 12.282544 25 13 25 z" overflow="visible" font-family="Bitstream Vera Sans" fill="#000000"/></svg>
