<?xml version="1.0" encoding="utf-8"?>
<svg xmlns="http://www.w3.org/2000/svg" viewBox="0 0 32 32" fill="#000000"><path style="text-indent:0;text-align:start;line-height:normal;text-transform:none;block-progression:tb;-inkscape-font-specification:Bitstream Vera Sans" d="M 3 7 L 3 8 L 3 22 L 3 23 L 4 23 L 28 23 L 29 23 L 29 22 L 29 8 L 29 7 L 28 7 L 4 7 L 3 7 z M 5 9 L 27 9 L 27 21 L 5 21 L 5 9 z M 6 10 L 6 12 L 8 12 L 8 10 L 6 10 z M 24 10 L 24 12 L 26 12 L 26 10 L 24 10 z M 14.21875 11.78125 L 12.78125 13.21875 L 14.5625 15 L 12.78125 16.78125 L 14.21875 18.21875 L 16 16.4375 L 17.78125 18.21875 L 19.21875 16.78125 L 17.4375 15 L 19.21875 13.21875 L 17.78125 11.78125 L 16 13.5625 L 14.21875 11.78125 z M 6 14 L 6 16 L 8 16 L 8 14 L 6 14 z M 24 14 L 24 16 L 26 16 L 26 14 L 24 14 z M 6 18 L 6 20 L 8 20 L 8 18 L 6 18 z M 24 18 L 24 20 L 26 20 L 26 18 L 24 18 z M 10 24 L 10 26 L 22 26 L 22 24 L 10 24 z" fill="#000000"/></svg>
