<?xml version="1.0" encoding="utf-8"?>
<svg xmlns="http://www.w3.org/2000/svg" viewBox="0 0 32 32" fill="#000000"><path style="text-indent:0;text-align:start;line-height:normal;text-transform:none;block-progression:tb;-inkscape-font-specification:Sans" d="M 16 3.96875 L 15.46875 4.3125 L 3.96875 11.53125 L 5 13.15625 L 5 27 L 5 28 L 6 28 L 26 28 L 27 28 L 27 27 L 27 13.15625 L 28.03125 11.53125 L 16.53125 4.3125 L 16 3.96875 z M 16 6.34375 L 25 12 L 25 21 L 17 21 L 17 18.84375 C 18.719842 18.396684 20 16.853198 20 15 C 20 12.802706 18.197294 11 16 11 C 13.802706 11 12 12.802706 12 15 C 12 16.853198 13.280158 18.396684 15 18.84375 L 15 22 L 15 23 L 16 23 L 25 23 L 25 26 L 7 26 L 7 12 L 16 6.34375 z M 16 13 C 17.116414 13 18 13.883586 18 15 C 18 16.116414 17.116414 17 16 17 C 14.883586 17 14 16.116414 14 15 C 14 13.883586 14.883586 13 16 13 z M 16 14 C 15.447715 14 15 14.447715 15 15 C 15 15.552285 15.447715 16 16 16 C 16.552285 16 17 15.552285 17 15 C 17 14.447715 16.552285 14 16 14 z" overflow="visible" font-family="Sans" fill="#000000"/></svg>
