<?xml version="1.0" encoding="utf-8"?>
<svg xmlns="http://www.w3.org/2000/svg" viewBox="0 0 32 32" fill="#000000"><path d="M 5 5 L 5 6 L 5 26 L 5 27 L 6 27 L 26 27 L 27 27 L 27 26 L 27 6 L 27 5 L 26 5 L 6 5 L 5 5 z M 7 7 L 25 7 L 25 25 L 7 25 L 7 7 z M 9.21875 7.78125 L 7.78125 9.21875 L 11.8125 13.25 C 11.478323 13.001549 11.12887 12.689514 10.71875 12.28125 L 9.28125 13.71875 C 11.01825 15.44775 12.43775 16 13.59375 16 C 13.891233 16 14.170176 15.938862 14.4375 15.875 L 14.46875 15.875 L 15.625 17.0625 C 15.576418 17.094599 15.516234 17.124706 15.46875 17.15625 C 14.06175 18.09025 13.14975 18.70225 10.71875 16.28125 L 9.28125 17.71875 C 11.01725 19.44775 12.43675 20 13.59375 20 C 14.82575 20 15.78775 19.3465 16.59375 18.8125 C 16.760169 18.701952 16.906251 18.596956 17.0625 18.5 L 17.09375 18.5 L 22.78125 24.21875 L 24.21875 22.78125 L 20.125 18.6875 C 20.47867 18.944056 20.839507 19.273318 21.28125 19.71875 L 22.71875 18.28125 C 20.531793 16.075201 18.869411 15.797462 17.5625 16.125 L 16.375 14.9375 C 16.44115 14.894023 16.529615 14.855044 16.59375 14.8125 C 17.98775 13.8875 18.88625 13.30375 21.28125 15.71875 L 22.71875 14.3125 C 19.16975 10.7315 17.02475 12.12325 15.46875 13.15625 C 15.292875 13.273 15.133582 13.398469 14.96875 13.5 L 14.9375 13.5 L 9.21875 7.78125 z" fill="#000000"/></svg>
