<?xml version="1.0" encoding="utf-8"?>
<svg xmlns="http://www.w3.org/2000/svg" viewBox="0 0 32 32" fill="#000000"><path d="M 16 5 L 15.6875 5.28125 L 4.28125 16.8125 L 3.59375 17.5 L 4.28125 18.21875 L 13.78125 27.71875 L 14.5 28.40625 L 15.1875 27.71875 L 26.71875 16.3125 L 27 16 L 27 15.59375 L 27 6 L 27 5 L 26 5 L 16.40625 5 L 16 5 z M 16.84375 7 L 25 7 L 25 15.15625 L 14.5 25.59375 L 6.40625 17.5 L 16.84375 7 z M 22 9 C 21.447715 9 21 9.4477153 21 10 C 21 10.552285 21.447715 11 22 11 C 22.552285 11 23 10.552285 23 10 C 23 9.4477153 22.552285 9 22 9 z M 13.90625 11.9375 L 13.21875 12.625 L 13.84375 13.25 C 13.729284 13.347174 13.607669 13.423581 13.5 13.53125 C 13.34967 13.68158 13.223047 13.836431 13.09375 14 L 12.46875 13.375 L 11.75 14.09375 L 12.53125 14.875 C 11.662941 16.559601 11.76344 18.57594 13.09375 19.90625 C 13.916394 20.728894 15.050713 21.090246 16.15625 21.03125 L 16.0625 19.03125 C 15.444037 19.064254 14.889356 18.889356 14.5 18.5 L 14.5 18.46875 C 14.012471 17.964114 13.850271 17.17512 14.0625 16.375 L 15.625 17.9375 L 16.3125 17.25 L 14.5 15.4375 C 14.618846 15.262388 14.744451 15.099299 14.90625 14.9375 C 15.01183 14.83192 15.106864 14.743748 15.21875 14.65625 L 17.0625 16.5 L 17.78125 15.78125 L 16.15625 14.15625 C 17.037193 13.847139 17.923817 13.986317 18.46875 14.53125 C 18.858815 14.921959 19.032365 15.44253 19 16.0625 L 21 16.1875 C 21.057635 15.08347 20.696935 13.948291 19.875 13.125 C 19.019919 12.269919 17.87453 11.911983 16.71875 12 C 16.011685 12.053848 15.306595 12.315708 14.65625 12.6875 L 13.90625 11.9375 z" fill="#000000"/></svg>
