<?xml version="1.0" encoding="utf-8"?>
<svg xmlns="http://www.w3.org/2000/svg" viewBox="0 0 32 32" fill="#000000"><path style="text-indent:0;text-align:start;line-height:normal;text-transform:none;block-progression:tb;-inkscape-font-specification:Bitstream Vera Sans" d="M 8 3 C 5.8027056 3 4 4.8027056 4 7 C 4 9.1972944 5.8027056 11 8 11 C 8.7070779 11 9.3590648 10.795175 9.9375 10.46875 L 12.125 12.90625 C 11.434993 13.763915 11 14.822774 11 16 C 11 17.091431 11.366942 18.080789 11.96875 18.90625 L 10.21875 20.6875 C 10.211107 20.682322 10.19518 20.692627 10.1875 20.6875 C 9.5533347 20.264172 8.8141256 20 8 20 C 5.8027056 20 4 21.802706 4 24 C 4 26.197294 5.8027056 28 8 28 C 10.197294 28 12 26.197294 12 24 C 12 23.343629 11.815436 22.735917 11.53125 22.1875 L 13.4375 20.28125 C 14.190902 20.737836 15.061351 21 16 21 C 16.711592 21 17.385074 20.834708 18 20.5625 L 19.15625 22.21875 C 18.448913 22.941447 18 23.916933 18 25 C 18 27.197294 19.802706 29 22 29 C 24.197294 29 26 27.197294 26 25 C 26 22.802706 24.197294 21 22 21 C 21.61064 21 21.231746 21.082125 20.875 21.1875 L 19.625 19.40625 C 20.249154 18.743148 20.715931 17.921339 20.90625 17 L 22.15625 17 C 22.603316 18.719842 24.146802 20 26 20 C 28.197294 20 30 18.197294 30 16 C 30 13.802706 28.197294 12 26 12 C 24.146802 12 22.603316 13.280158 22.15625 15 L 20.90625 15 C 20.668694 13.849988 20.007952 12.842164 19.125 12.125 L 19.5625 10.9375 C 19.706826 10.953503 19.851643 11 20 11 C 22.197294 11 24 9.1972944 24 7 C 24 4.8027056 22.197294 3 20 3 C 17.802706 3 16 4.8027056 16 7 C 16 8.3265675 16.683231 9.4896851 17.6875 10.21875 L 17.3125 11.1875 C 16.891309 11.070977 16.456432 11 16 11 C 15.147054 11 14.361547 11.24267 13.65625 11.625 L 11.375 9.125 C 11.769238 8.5058609 12 7.7831383 12 7 C 12 4.8027056 10.197294 3 8 3 z M 8 5 C 9.116414 5 10 5.883586 10 7 C 10 7.558207 9.7666982 8.0458018 9.40625 8.40625 C 9.0458018 8.7666982 8.558207 9 8 9 C 6.883586 9 6 8.116414 6 7 C 6 5.883586 6.883586 5 8 5 z M 20 5 C 21.116414 5 22 5.883586 22 7 C 22 8.116414 21.116414 9 20 9 C 18.883586 9 18 8.116414 18 7 C 18 5.883586 18.883586 5 20 5 z M 16 13 C 17.654545 13 19 14.345455 19 16 A 1.0043849 1.0043849 0 0 0 19 16.125 C 18.932469 17.720127 17.611482 19 16 19 C 15.251805 19 14.557199 18.73568 14.03125 18.28125 C 13.394125 17.730761 13 16.90635 13 16 C 13 14.345455 14.345455 13 16 13 z M 26 14 C 27.116414 14 28 14.883586 28 16 C 28 17.116414 27.116414 18 26 18 C 24.883586 18 24 17.116414 24 16 C 24 14.883586 24.883586 14 26 14 z M 8 22 C 9.116414 22 10 22.883586 10 24 C 10 25.116414 9.116414 26 8 26 C 6.883586 26 6 25.116414 6 24 C 6 22.883586 6.883586 22 8 22 z M 22 23 C 23.116414 23 24 23.883586 24 25 C 24 26.116414 23.116414 27 22 27 C 20.883586 27 20 26.116414 20 25 C 20 24.334964 20.322982 23.768494 20.8125 23.40625 A 1.0001 1.0001 0 0 0 21.21875 23.15625 C 21.230742 23.151236 21.237886 23.129787 21.25 23.125 C 21.480165 23.034038 21.734852 23 22 23 z" fill="#000000"/></svg>
