<?xml version="1.0" encoding="utf-8"?>
<svg xmlns="http://www.w3.org/2000/svg" viewBox="0 0 32 32" fill="#000000"><path style="text-indent:0;text-align:start;line-height:normal;text-transform:none;block-progression:tb;-inkscape-font-specification:Bitstream Vera Sans" d="M 8.5 6 C 6.578848 6 5 7.578848 5 9.5 C 5 11.421152 6.5788481 13 8.5 13 C 10.421152 13 12 11.421152 12 9.5 C 12 7.578848 10.421152 6 8.5 6 z M 17.15625 7.5 L 14.375 12.125 L 10.1875 13.0625 C 8.210365 13.513025 7.3645604 15.97325 8.625 17.5625 L 12.90625 22.96875 C 13.432637 23.632217 14.212456 23.987468 15 24 C 15.787544 24.012532 16.582813 23.682344 17.125 23.03125 L 20.59375 18.875 L 26.3125 16.9375 L 25.6875 15.0625 L 19.96875 16.96875 L 19.9375 16.96875 L 19.9375 17 C 19.599414 17.119797 19.291811 17.318191 19.0625 17.59375 L 17.3125 19.65625 L 13.15625 14.4375 L 14.8125 14.0625 C 15.332747 13.943195 15.780562 13.613484 16.0625 13.15625 L 18.84375 8.5 L 17.15625 7.5 z M 15 24 L 4 24 L 4 26 L 28 26 L 28 24 L 15 24 z M 8.5 8 C 9.3402718 8 10 8.6597282 10 9.5 C 10 10.340272 9.3402719 11 8.5 11 C 7.6597281 11 7 10.340272 7 9.5 C 7 8.6597282 7.6597282 8 8.5 8 z M 11 14.9375 L 16 21.21875 L 15.5625 21.75 C 15.262874 22.109811 14.759976 22.117066 14.46875 21.75 L 10.1875 16.3125 C 9.7919396 15.81375 10.004135 15.172725 10.625 15.03125 L 11 14.9375 z" overflow="visible" font-family="Bitstream Vera Sans" fill="#000000"/></svg>
