<?xml version="1.0" encoding="utf-8"?>
<svg xmlns="http://www.w3.org/2000/svg" viewBox="0 0 32 32" fill="#000000"><path style="text-indent:0;text-align:start;line-height:normal;text-transform:none;block-progression:tb;-inkscape-font-specification:Sans" d="M 8.09375 3 L 8 3.875 L 7.09375 12 L 7 12 L 6 12 L 6 13 L 6 18 L 6 19 L 7 19 L 10 19 L 10 28 L 10 29 L 11 29 L 21 29 L 22 29 L 22 28 L 22 19 L 25 19 L 26 19 L 26 18 L 26 13 L 26 12 L 25 12 L 24.90625 12 L 24 3.875 L 23.90625 3 L 23 3 L 9 3 L 8.09375 3 z M 9.90625 5 L 22.09375 5 L 23 13.125 L 23.09375 14 L 24 14 L 24 17 L 21 17 L 20 17 L 20 18 L 20 21 L 12 21 L 12 18 L 12 17 L 11 17 L 8 17 L 8 14 L 8.90625 14 L 9 13.125 L 9.90625 5 z M 10 10 L 10 11 L 10 13 L 10 14 L 11 14 L 13 14 L 13 18 L 13 19 L 14 19 L 18 19 L 19 19 L 19 18 L 19 14 L 21 14 L 22 14 L 22 13 L 22 11 L 22 10 L 21 10 L 19 10 L 18 10 L 17 10 L 14 10 L 11 10 L 10 10 z M 15 12 L 17 12 L 17 14 L 17 17 L 15 17 L 15 13 L 15 12 z M 12 23 L 20 23 L 20 27 L 12 27 L 12 23 z" overflow="visible" font-family="Sans" fill="#000000"/></svg>
