<?xml version="1.0" encoding="utf-8"?>
<svg xmlns="http://www.w3.org/2000/svg" viewBox="0 0 32 32" fill="#000000"><path style="text-indent:0;text-align:start;line-height:normal;text-transform:none;block-progression:tb;-inkscape-font-specification:Bitstream Vera Sans" d="M 6.21875 5.28125 L 5.3125 5.6875 L 2.71875 6.875 L 1.8125 7.28125 L 2.21875 8.1875 L 4.71875 13.6875 L 5.125 14.59375 L 6.03125 14.1875 L 8.625 13 L 9.5625 12.59375 L 9.125 11.6875 L 8.25 9.75 C 8.4264733 9.6477775 8.8530068 9.4096093 9.6875 9.09375 C 9.8376493 9.8954534 10.077487 11.0183 10.625 12.375 C 10.974401 13.24079 11.421316 14.131859 12.03125 14.90625 L 13.125 22.59375 L 6.53125 26.125 L 7.46875 27.875 L 18.5 21.96875 L 21 22 L 21 28 L 23 28 L 23 21 L 23 20 L 22 20 L 19.3125 19.96875 L 19.5 15.4375 C 20.364296 14.547792 20.940978 13.450476 21.375 12.375 C 21.942458 10.96888 22.168406 9.8211033 22.3125 9.03125 C 22.939007 9.2371389 23.428446 9.4290816 23.8125 9.59375 L 22.875 11.6875 L 22.46875 12.59375 L 23.375 13 L 25.96875 14.15625 L 26.875 14.59375 L 27.28125 13.65625 L 29.78125 8.1875 L 30.1875 7.28125 L 29.28125 6.84375 L 26.6875 5.6875 L 25.78125 5.28125 L 25.375 6.1875 L 24.65625 7.78125 C 23.177207 7.1477364 19.984513 6 16 6 C 11.470293 6 8.4165611 7.3899307 7.4375 7.90625 L 6.65625 6.1875 L 6.21875 5.28125 z M 26.78125 7.90625 L 27.5625 8.25 L 25.875 11.9375 L 25.125 11.59375 L 26.78125 7.90625 z M 5.25 7.9375 L 6.90625 11.59375 L 6.125 11.9375 L 4.46875 8.28125 L 5.25 7.9375 z M 16 8 C 17.642121 8 19.106407 8.2132595 20.375 8.5 C 20.273103 9.1384316 20.080534 10.263912 19.53125 11.625 C 19.158147 12.549524 18.655361 13.452208 18.0625 14.0625 C 17.469639 14.672792 16.842258 15 16 15 C 15.157742 15 14.530361 14.672792 13.9375 14.0625 C 13.344639 13.452208 12.841853 12.549524 12.46875 11.625 C 11.928963 10.287444 11.730731 9.1839262 11.625 8.53125 C 12.821402 8.2449253 14.282162 8 16 8 z M 16 8 C 14.354991 8 13 9.3549901 13 11 C 13 12.64501 14.35499 14 16 14 C 17.64501 14 19 12.64501 19 11 C 19 9.3549901 17.645009 8 16 8 z M 16 10 C 16.564129 10 17 10.435871 17 11 C 17 11.564128 16.564128 12 16 12 C 15.435872 12 15 11.564128 15 11 C 15 10.435871 15.435871 10 16 10 z M 14.28125 16.65625 C 14.807768 16.872349 15.37984 17 16 17 C 16.513727 17 16.986883 16.902675 17.4375 16.75 L 17.3125 20.34375 L 14.96875 21.59375 L 14.28125 16.65625 z" fill="#000000"/></svg>
