<?xml version="1.0" encoding="utf-8"?>
<svg xmlns="http://www.w3.org/2000/svg" viewBox="0 0 32 32" fill="#000000"><path d="M 23 3 C 21.219887 3 20 4.6869459 20 6.5 C 20 8.1689647 20.5 9.3147311 20.5 10 C 20.5 9.8874337 20.4913 10.06873 20.375 10.34375 C 20.258682 10.618769 20.05555 11.015094 19.84375 11.46875 C 19.597303 11.996618 19.301646 12.641761 19.03125 13.375 C 17.429501 11.914755 15.322041 11 13 11 C 8.0545455 11 4 15.054545 4 20 C 4 24.945455 8.0545455 29 13 29 C 15.639255 29 18.005322 27.828671 19.65625 26 L 20 26 L 26 26 L 26.71875 26 L 26.9375 25.3125 C 26.9375 25.3125 28 22.219445 28 19 C 28 16.343597 27.342553 14.201843 26.6875 12.625 C 26.359974 11.836579 26.006845 11.169791 25.78125 10.6875 C 25.623334 10.349896 25.530575 10.082088 25.5 10 C 25.5 9.9559793 25.491257 9.9502297 25.5 9.96875 C 25.512677 9.3149733 26 8.1755111 26 6.5 C 26 4.6869459 24.780113 3 23 3 z M 23 5 C 23.429887 5 24 5.5510541 24 6.5 C 24 7.4113377 23.70605 8.1471215 23.5625 9 L 22.4375 9 C 22.294033 8.1351217 22 7.3832027 22 6.5 C 22 5.5510541 22.570113 5 23 5 z M 22.25 11 L 23.75 11 C 23.829777 11.168567 23.910407 11.339711 24 11.53125 C 24.062412 11.664679 24.152607 11.854633 24.21875 12 L 21.8125 12 C 21.960694 11.695389 22.108446 11.385797 22.21875 11.125 C 22.235855 11.084558 22.233559 11.039142 22.25 11 z M 13 13 C 16.854545 13 20 16.145455 20 20 C 20 23.854545 16.854545 27 13 27 C 9.1454545 27 6 23.854545 6 20 C 6 16.145455 9.1454545 13 13 13 z M 20.9375 14 L 25.0625 14 C 25.566466 15.340672 26 16.994378 26 19 C 26 21.246547 25.486748 23.192634 25.25 24 L 21.03125 24 C 21.637286 22.791856 22 21.435725 22 20 C 22 18.219924 21.465567 16.557946 20.5625 15.15625 C 20.679898 14.753035 20.803949 14.359071 20.9375 14 z M 13.5 15 C 12.671573 15 12 15.671573 12 16.5 C 12 17.328427 12.671573 18 13.5 18 C 14.328427 18 15 17.328427 15 16.5 C 15 15.671573 14.328427 15 13.5 15 z M 16 18.0625 C 15.447715 18.0625 15 18.510216 15 19.0625 C 15 19.614785 15.447715 20.0625 16 20.0625 C 16.552285 20.0625 17 19.614785 17 19.0625 C 17 18.510216 16.552285 18.0625 16 18.0625 z M 13 19.0625 C 12.447715 19.0625 12 19.510216 12 20.0625 C 12 20.614785 12.447715 21.0625 13 21.0625 C 13.552285 21.0625 14 20.614785 14 20.0625 C 14 19.510216 13.552285 19.0625 13 19.0625 z" fill="#000000"/></svg>
