<?xml version="1.0" encoding="utf-8"?>
<svg xmlns="http://www.w3.org/2000/svg" viewBox="0 0 32 32" fill="#000000"><path style="text-indent:0;text-align:start;line-height:normal;text-transform:none;block-progression:tb;-inkscape-font-specification:Bitstream Vera Sans" d="M 16 5 C 13.771784 5 11.732469 5.3340397 10.375 5.625 C 8.9960707 5.9199501 8 7.1595801 8 8.5625 L 8 12.375 L 7.65625 12.5625 C 6.6412348 13.070008 6 14.116074 6 15.25 L 6 18 L 5 18 L 4.28125 18 L 4.0625 18.6875 L 3.0625 21.6875 L 2.9375 22 L 3.0625 22.3125 L 4.0625 25.3125 L 4.28125 26 L 5 26 L 27 26 L 27.71875 26 L 27.9375 25.3125 L 28.9375 22.3125 L 29.0625 22 L 28.9375 21.6875 L 27.9375 18.6875 L 27.71875 18 L 27 18 L 26 18 L 26 15.25 C 26 14.414064 25.651774 13.622161 25.0625 13.0625 L 26.96875 9 L 29 9 L 29 7 L 26.96875 7 C 26.194146 7 25.483905 7.4552666 25.15625 8.15625 L 24 10.65625 L 24 8.5625 C 24 7.1590704 23.003252 5.9198053 21.625 5.625 C 20.267531 5.3340397 18.228216 5 16 5 z M 15 7.03125 L 15 10 L 10 10 L 10 8.5625 C 10 8.0834199 10.318179 7.6927999 10.78125 7.59375 C 11.835117 7.367864 13.353227 7.1122012 15 7.03125 z M 17 7.03125 C 18.646773 7.1122012 20.164883 7.367864 21.21875 7.59375 C 21.682498 7.6929447 22 8.0819296 22 8.5625 L 22 10 L 17 10 L 17 7.03125 z M 10 12 L 15 12 L 17 12 L 22 12 L 22 13 L 22 13.625 L 22.5625 13.90625 L 23.4375 14.34375 C 23.779188 14.514594 24 14.868429 24 15.25 L 24 18 L 8 18 L 8 15.25 C 8 14.869926 8.2215152 14.514242 8.5625 14.34375 L 9.4375 13.90625 L 10 13.625 L 10 13 L 10 12 z M 11.5 14 C 10.671573 14 10 14.671573 10 15.5 C 10 16.328427 10.671573 17 11.5 17 C 12.328427 17 13 16.328427 13 15.5 C 13 14.671573 12.328427 14 11.5 14 z M 20.5 14 C 19.671573 14 19 14.671573 19 15.5 C 19 16.328427 19.671573 17 20.5 17 C 21.328427 17 22 16.328427 22 15.5 C 22 14.671573 21.328427 14 20.5 14 z M 5.71875 20 L 26.28125 20 L 26.625 21 L 5.375 21 L 5.71875 20 z M 5.375 23 L 26.625 23 L 26.28125 24 L 5.71875 24 L 5.375 23 z" fill="#000000"/></svg>
