<?xml version="1.0" encoding="utf-8"?>
<svg xmlns="http://www.w3.org/2000/svg" viewBox="0 0 32 32" fill="#000000"><path d="M 16 3 C 12.92628 3 10.175516 4.5386119 8.84375 6.84375 L 4.375 5.0625 L 3.625 6.9375 L 8.125 8.75 C 8.0420994 9.1550277 8 9.571176 8 10 L 8 10.53125 C 5.2822359 12.529322 3 16.108436 3 22 L 3 22.71875 L 3.6875 22.9375 L 9.6875 24.9375 L 9.71875 24.875 C 9.852534 25.096596 9.9769609 25.319579 10.125 25.53125 C 11.482131 27.47172 13.518091 29 16 29 C 18.477888 29 20.516598 27.497895 21.875 25.5625 C 22.028265 25.344134 22.143303 25.104432 22.28125 24.875 L 22.3125 24.9375 L 28.3125 22.9375 L 29 22.71875 L 29 22 C 29 16.087637 26.718867 12.495051 24 10.5 L 24 10 C 24 9.571176 23.957901 9.1550277 23.875 8.75 L 28.375 6.9375 L 27.625 5.0625 L 23.15625 6.84375 C 21.824484 4.5386119 19.07372 3 16 3 z M 16 5 C 19.097848 5 21.52679 6.9123689 21.9375 9.28125 C 19.522194 8.1681676 17.180179 8 16 8 C 14.815026 8 12.47609 8.1902043 10.0625 9.3125 C 10.458078 6.9300871 12.889312 5 16 5 z M 16 10 C 17.181033 10 20.01498 10.255327 22.4375 11.84375 C 24.749995 13.36003 26.755356 16.090163 26.9375 21.3125 L 23.40625 22.5 C 23.793429 21.341069 24 20.150022 24 19 C 24 17.516667 23.432516 16.302696 22.625 15.4375 C 21.817484 14.572304 20.81818 14.035511 19.84375 13.6875 C 17.89489 12.991479 16 13 16 13 C 16 13 14.10028 13.01182 12.15625 13.71875 C 11.184235 14.072216 10.181215 14.610189 9.375 15.46875 C 8.568785 16.327311 8 17.535091 8 19 C 8 20.13999 8.205545 21.34547 8.59375 22.5 L 5.0625 21.3125 C 5.2446293 16.110916 7.2485991 13.397181 9.5625 11.875 C 11.986493 10.280396 14.824817 10 16 10 z M 16 15 C 16 15 17.60511 15.0085 19.15625 15.5625 C 19.93182 15.839489 20.682516 16.240196 21.1875 16.78125 C 21.692484 17.322304 22 17.983333 22 19 C 22 20.739119 21.355348 22.831395 20.25 24.40625 C 19.144652 25.981105 17.667112 27 16 27 C 14.336909 27 12.856619 25.98853 11.75 24.40625 C 10.643381 22.82397 10 20.711045 10 19 C 10 18.010409 10.306215 17.382907 10.8125 16.84375 C 11.318785 16.304593 12.065765 15.876659 12.84375 15.59375 C 14.39972 15.027933 16 15 16 15 z M 11.9375 18 C 11.4165 18.0285 11 18.125 11 18.125 C 11 18.125 11.4285 19.33925 12.4375 19.78125 C 13.4465 20.22325 15 19.875 15 19.875 C 15 19.875 14.5165 18.63675 13.5625 18.21875 C 13.0855 18.00975 12.4585 17.9715 11.9375 18 z M 20.0625 18 C 19.5415 17.9715 18.9145 18.00975 18.4375 18.21875 C 17.4835 18.63675 17 19.875 17 19.875 C 17 19.875 18.5535 20.22325 19.5625 19.78125 C 20.5715 19.33925 21 18.125 21 18.125 C 21 18.125 20.5835 18.0285 20.0625 18 z" fill="#000000"/></svg>
