<?xml version="1.0" encoding="utf-8"?>
<svg xmlns="http://www.w3.org/2000/svg" viewBox="0 0 32 32" fill="#000000"><path style="text-indent:0;text-align:start;line-height:normal;text-transform:none;block-progression:tb;-inkscape-font-specification:Sans" d="M 16 4 C 9.3844277 4 4 9.3844277 4 16 C 4 22.615572 9.3844277 28 16 28 C 22.615572 28 28 22.615572 28 16 C 28 9.3844277 22.615572 4 16 4 z M 16 6 C 21.534692 6 26 10.465308 26 16 C 26 21.534692 21.534692 26 16 26 C 10.465308 26 6 21.534692 6 16 C 6 10.465308 10.465308 6 16 6 z M 16 13 C 14.35499 13 13 14.35499 13 16 C 13 17.64501 14.35499 19 16 19 C 17.64501 19 19 17.64501 19 16 C 19 14.35499 17.64501 13 16 13 z M 16 15 C 16.564128 15 17 15.435872 17 16 C 17 16.564128 16.564128 17 16 17 C 15.435872 17 15 16.564128 15 16 C 15 15.435872 15.435872 15 16 15 z" overflow="visible" font-family="Sans" fill="#000000"/></svg>
