<?xml version="1.0" encoding="utf-8"?>
<svg xmlns="http://www.w3.org/2000/svg" viewBox="-7 9 32 32" fill="#000000"><path d="M 26.84375 1.96875 C 24.702687 1.9854375 20.302 2.35075 17.5 4.9375 C 16.482 5.8775 15.769 7.03075 15.375 8.34375 L 11 9 L 11.15625 10.03125 C 7.50925 10.81425 4.84275 12.0575 2.96875 13.8125 C 2.24575 14.4905 1.88125 15.48975 2.03125 16.46875 C 2.12225 17.06575 2.3955 17.6155 2.8125 18.0625 C 3.4025 18.6905 4.199 19 5 19 C 5.735 19 6.4855 18.7285 7.0625 18.1875 C 8.0405 17.2715 9.77075 16.50675 12.09375 15.96875 L 12.21875 16.90625 L 16 16.34375 L 16 20 L 16.9375 20 C 16.7595 22.377 16.28725 24.2035 15.53125 25.3125 C 14.59925 26.6775 14.9465 28.53275 16.3125 29.46875 C 16.8145 29.80875 17.396 30 18 30 C 18.991 30 19.90875 29.5065 20.46875 28.6875 C 21.89575 26.5995 22.74975 23.684 22.96875 20 L 24 20 L 24 15 L 23 15 L 23 14.28125 C 23.27 13.94825 23.49125 13.5885 23.65625 13.1875 C 24.63525 11.4015 28.208 10.25675 29.5 9.96875 L 29.96875 8.28125 C 28.07675 6.51025 26.2755 5.97925 24.8125 6.03125 C 25.7595 4.95825 26.943 4.151 28 4 L 28 3 L 28.09375 2 C 28.02525 1.99425 27.557437 1.9631875 26.84375 1.96875 z M 24 4.21875 C 23.903 4.29375 23.84375 4.34375 23.84375 4.34375 C 22.49775 5.71575 21.19875 7.46975 21.09375 9.59375 C 21.63975 10.05275 22 10.733 22 11.5 C 22 12.314 21.605 13.045 21 13.5 L 21 15 L 18.4375 15 C 17.9695 14.433 17 13.01 17 11 C 17 9.066 17.60375 7.5845 18.84375 6.4375 C 20.24975 5.1365 22.237 4.50775 24 4.21875 z M 25.125 8 C 25.680967 8.0191543 26.346375 8.1745 27.09375 8.59375 C 26.08275 8.95275 24.8685 9.508 23.8125 10.25 C 23.6735 9.784 23.4605 9.35775 23.1875 8.96875 C 23.2275 8.82275 23.2595 8.647 23.3125 8.5 C 23.58125 8.313125 24.198389 7.9680762 25.125 8 z M 19.5 10 C 18.671573 10 18 10.671573 18 11.5 C 18 12.328427 18.671573 13 19.5 13 C 20.328427 13 21 12.328427 21 11.5 C 21 10.671573 20.328427 10 19.5 10 z M 14.28125 10.53125 L 14.875 14.46875 L 13.90625 14.625 L 13.75 13.59375 L 12.71875 13.8125 C 9.46275 14.4355 7.0995 15.39575 5.6875 16.71875 C 5.2855 17.09575 4.65625 17.0875 4.28125 16.6875 C 4.14125 16.5375 4.06125 16.35525 4.03125 16.15625 C 3.98125 15.82925 4.0705 15.50725 4.3125 15.28125 C 6.0335 13.66925 8.804 12.4955 12.5 11.8125 L 13.4375 11.625 L 13.28125 10.6875 L 14.28125 10.53125 z M 18 17 L 22 17 L 22 18 L 21.03125 18 L 21 18.96875 C 20.888 22.72575 20.1425 25.6155 18.8125 27.5625 C 18.5115 28.0025 17.8805 28.1135 17.4375 27.8125 C 16.9825 27.5005 16.8765 26.8925 17.1875 26.4375 C 18.2795 24.8385 18.882 22.34225 19 19.03125 L 19.03125 18 L 18 18 L 18 17 z" transform="translate(-7 9)" fill="#000000"/></svg>
