<?xml version="1.0" encoding="utf-8"?>
<svg xmlns="http://www.w3.org/2000/svg" viewBox="0 0 32 32" fill="#000000"><path style="text-indent:0;text-align:start;line-height:normal;text-transform:none;block-progression:tb;-inkscape-font-specification:Sans" d="M 5 5 L 5 6 C 5 7.8502079 5.6195386 9.8569535 6.5 11.46875 C 5.5530751 13.09278 5 14.989149 5 17 C 5 23.063407 9.9365932 28 16 28 C 21.693392 28 26.385505 23.649985 26.9375 18.09375 C 26.9735 17.73175 27 17.371 27 17 C 27 15.425 26.66225 13.902 26.03125 12.5 C 25.98225 12.584 25.94825 12.64875 25.90625 12.71875 C 25.56425 13.48275 25.164 14.29275 24.75 14.96875 C 24.906 15.63275 25 16.302 25 17 C 25 17.304 24.99775 17.60925 24.96875 17.90625 C 24.516745 22.456015 20.678608 26 16 26 C 11.017407 26 7 21.982593 7 17 C 7 12.017407 11.017407 8 16 8 C 16.428 8 16.834 8.03575 17.25 8.09375 C 17.494 7.76875 17.74075 7.47875 17.96875 7.21875 L 17.96875 7.1875 L 18.15625 7 C 18.37325 6.762 18.58225 6.56 18.78125 6.375 C 17.87825 6.138 16.954 6 16 6 C 14.603548 6 13.261626 6.2728479 12.03125 6.75 C 11.742076 6.5478169 11.388722 6.3193609 10.9375 6.09375 C 9.818243 5.5341215 8.1666667 5 6 5 L 5 5 z M 26 5 C 23.833333 5 22.181757 5.5341215 21.0625 6.09375 C 19.943243 6.6533785 19.28125 7.28125 19.28125 7.28125 L 19 7.59375 L 19 8.03125 C 19 8.03125 19.02372 9.2420209 19.65625 10.46875 C 20.288782 11.695479 21.718414 13 24 13 L 24.53125 13 L 24.84375 12.5625 C 24.84375 12.5625 27 9.4444444 27 6 L 27 5 L 26 5 z M 7.21875 7.15625 C 8.3121837 7.2961786 9.2516534 7.5467341 9.90625 7.84375 C 9.1609332 8.3409032 8.5088794 8.9348085 7.90625 9.59375 C 7.6084654 8.81398 7.3552577 7.9660727 7.21875 7.15625 z M 24.71875 7.15625 C 24.388904 8.9146978 23.8077 10.294649 23.46875 10.875 C 22.369346 10.708613 21.774881 10.185565 21.4375 9.53125 C 21.157983 8.9891573 21.160987 8.7209373 21.125 8.4375 C 21.297865 8.2939989 21.353812 8.1980938 21.9375 7.90625 C 22.580576 7.5847119 23.5731 7.3103064 24.71875 7.15625 z" overflow="visible" font-family="Sans" fill="#000000"/></svg>
