<?xml version="1.0" encoding="utf-8"?>
<svg xmlns="http://www.w3.org/2000/svg" viewBox="0 0 32 32" fill="#000000"><path d="M 4 4 L 4 5.6875 L 28 9.34375 L 28 7.625 L 18.9375 6.25 C 18.960784 6.1653506 19 6.0920474 19 6 C 19 5.4477153 18.552285 5 18 5 C 17.458544 5 17.017084 5.4314441 17 5.96875 L 14.78125 5.625 C 14.918574 5.4537732 15 5.2365678 15 5 C 15 4.4477153 14.552285 4 14 4 C 13.447715 4 13 4.4477153 13 5 C 13 5.1380712 13.043147 5.2553617 13.09375 5.375 L 4 4 z M 14 8.15625 L 14 8.90625 C 14 9.46025 14.42075 9.917 14.96875 10 L 15 10 L 15 15.5 L 14.34375 17 L 12.15625 17 C 11.66908 17 11.208228 17.17958 10.84375 17.5 L 9.84375 18.375 C 8.9819561 19.134246 8.9598795 20.5089 9.78125 21.3125 L 12.40625 23.875 C 13.672024 25.1114 15.624983 25.356538 17.15625 24.46875 L 17.21875 24.4375 L 17.25 24.40625 L 20.4375 22.03125 L 25.65625 23.9375 L 26.34375 22.0625 L 20.8125 20.03125 L 20.65625 20 L 20.5 20 C 20.064952 19.998 19.630309 20.112203 19.28125 20.375 L 16.15625 22.75 C 16.104156 22.780203 16.053686 22.787687 16 22.8125 L 16 19.5 C 16 19.5 15.644 19.941 15 20 L 15 23 C 14.566019 22.954644 14.143369 22.76069 13.8125 22.4375 L 11.1875 19.875 L 12.15625 19 L 14.34375 19 C 15.135376 19 15.87006 18.539217 16.1875 17.8125 L 17.46875 14.84375 L 16 14.1875 L 16 10.125 C 16.5568 10.068382 17 9.5891025 17 9 L 17 8.625 L 14 8.15625 z M 7 13 C 5.3549901 13 4 14.354991 4 16 C 4 17.645009 5.3549901 19 7 19 C 8.6450099 19 10 17.645009 10 16 C 10 14.354991 8.6450099 13 7 13 z M 7 15 C 7.5641291 15 8 15.435871 8 16 C 8 16.564129 7.5641291 17 7 17 C 6.4358709 17 6 16.564129 6 16 C 6 15.435871 6.4358709 15 7 15 z M 20.15625 23.40625 L 18.09375 24.96875 L 19.3125 25.28125 L 23.5625 28 L 24.65625 26.3125 L 20.15625 23.40625 z" fill="#000000"/></svg>
