<?xml version="1.0" encoding="utf-8"?>
<svg xmlns="http://www.w3.org/2000/svg" viewBox="0 0 32 32" fill="#000000"><path style="text-indent:0;text-align:start;line-height:normal;text-transform:none;block-progression:tb;-inkscape-font-specification:Sans" d="M 9 4 L 9 5 L 6 5 L 5 5 L 5 6 L 5 26 L 5 27 L 6 27 L 16.59375 27 C 17.789863 29.91811 20.664292 32 24 32 C 28.4 32 32 28.4 32 24 C 32 20.664292 29.91811 17.789863 27 16.59375 L 27 6 L 27 5 L 26 5 L 23 5 L 23 4 L 21 4 L 21 5 L 11 5 L 11 4 L 9 4 z M 7 7 L 9 7 L 9 8 L 11 8 L 11 7 L 21 7 L 21 8 L 23 8 L 23 7 L 25 7 L 25 9 L 7 9 L 7 7 z M 7 11 L 25 11 L 25 16.0625 C 24.669849 16.020542 24.341069 16 24 16 C 19.6 16 16 19.6 16 24 C 16 24.341069 16.020542 24.669849 16.0625 25 L 7 25 L 7 11 z M 24 18 C 27.3 18 30 20.7 30 24 C 30 25.283996 29.56881 26.458873 28.875 27.4375 L 20.5625 19.125 C 21.541127 18.43119 22.716004 18 24 18 z M 19.125 20.5625 L 27.4375 28.875 C 26.458873 29.56881 25.283996 30 24 30 C 20.7 30 18 27.3 18 24 C 18 22.716004 18.43119 21.541127 19.125 20.5625 z" overflow="visible" font-family="Sans" fill="#000000"/></svg>
