<?xml version="1.0" encoding="utf-8"?>
<svg xmlns="http://www.w3.org/2000/svg" viewBox="0 0 32 32" fill="#000000"><path style="text-indent:0;text-align:start;line-height:normal;text-transform:none;block-progression:tb;-inkscape-font-specification:Sans" d="M 16 3 C 8.8321429 3 3 8.8321429 3 16 C 3 23.167857 8.8321429 29 16 29 C 23.167857 29 29 23.167857 29 16 C 29 8.8321429 23.167857 3 16 3 z M 16 5 C 22.086977 5 27 9.9130231 27 16 C 27 22.086977 22.086977 27 16 27 C 9.9130231 27 5 22.086977 5 16 C 5 9.9130231 9.9130231 5 16 5 z M 10 8 C 9.4477153 8 9 8.4477153 9 9 C 8.4477153 9 8 9.4477153 8 10 C 8 10.552285 8.4477153 11 9 11 C 9.1626953 11 9.3017263 10.943934 9.4375 10.875 L 10.71875 12.15625 C 10.255662 13.006247 10 13.968242 10 15 C 10 16.204303 10.38548 17.307564 11 18.25 L 11 19 C 11 19.162597 11.030425 19.330843 11.0625 19.5 L 9.4375 21.125 C 9.3017263 21.056066 9.1626953 21 9 21 C 8.4477153 21 8 21.447715 8 22 C 8 22.552285 8.4477153 23 9 23 C 9 23.552285 9.4477153 24 10 24 C 10.552285 24 11 23.552285 11 23 C 11 22.837305 10.943934 22.698274 10.875 22.5625 L 12.5 20.9375 C 12.669157 20.969575 12.837403 21 13 21 L 13.15625 21 C 13.359379 22.019636 14.144803 22.84375 15.21875 22.84375 L 16.78125 22.84375 C 17.855197 22.84375 18.640621 22.019636 18.84375 21 L 19 21 C 19.171669 21 19.352755 20.973605 19.53125 20.9375 L 21.125 22.5625 C 21.056066 22.698274 21 22.837305 21 23 C 21 23.552285 21.447715 24 22 24 C 22.552285 24 23 23.552285 23 23 C 23.552285 23 24 22.552285 24 22 C 24 21.447715 23.552285 21 23 21 C 22.837305 21 22.698274 21.056066 22.5625 21.125 L 20.9375 19.53125 C 20.973605 19.352755 21 19.171669 21 19 L 21 18.25 C 21.615641 17.307281 22 16.205554 22 15 C 22 13.968242 21.744338 13.006247 21.28125 12.15625 C 21.277087 12.14861 21.285445 12.132621 21.28125 12.125 L 22.53125 10.875 C 22.672815 10.95179 22.827631 11 23 11 C 23.552285 11 24 10.552285 24 10 C 24 9.4477153 23.552285 9 23 9 C 23 8.4477153 22.552285 8 22 8 C 21.447715 8 21 8.4477153 21 9 C 21 9.1723691 21.04821 9.3271846 21.125 9.46875 L 20.03125 10.5625 C 18.964505 9.5924819 17.547637 9 16 9 C 14.46086 9 13.064686 9.6019321 12 10.5625 L 10.875 9.4375 C 10.943934 9.3017263 11 9.1626953 11 9 C 11 8.4477153 10.552285 8 10 8 z M 16 11 C 18.220375 11 20 12.779625 20 15 C 20 15.905751 19.690657 16.736442 19.1875 17.40625 L 19 17.65625 L 19 18 L 19 19 L 18 19 L 17 19 L 17 20 L 17 20.625 C 17 20.764804 16.92105 20.84375 16.78125 20.84375 L 15.21875 20.84375 C 15.078946 20.84375 15 20.764804 15 20.625 L 15 20 L 15 19 L 14 19 L 13 19 L 13 18 L 13 17.59375 L 12.8125 17.40625 C 12.8066 17.39845 12.8183 17.38285 12.8125 17.375 C 12.320692 16.709367 12 15.894596 12 15 C 12 12.779625 13.779625 11 16 11 z M 15 19 L 17 19 L 17 18 L 15 18 L 15 19 z M 14 15 C 13.447715 15 13 15.447715 13 16 C 13 16.552285 13.447715 17 14 17 C 14.552285 17 15 16.552285 15 16 C 15 15.447715 14.552285 15 14 15 z M 18 15 C 17.447715 15 17 15.447715 17 16 C 17 16.552285 17.447715 17 18 17 C 18.552285 17 19 16.552285 19 16 C 19 15.447715 18.552285 15 18 15 z" fill="#000000"/></svg>
