<?xml version="1.0" encoding="utf-8"?>
<svg xmlns="http://www.w3.org/2000/svg" viewBox="0 0 32 32" fill="#000000"><path style="text-indent:0;text-align:start;line-height:normal;text-transform:none;block-progression:tb;-inkscape-font-specification:Sans" d="M 5 5 L 5 17 L 5 18 L 6 18 L 9 18 L 9 24 C 9 25.64497 10.35503 27 12 27 L 18 27 C 19.64497 27 21 25.64497 21 24 L 21 18 L 24 18 L 25 18 L 25 17 L 25 5 L 23 5 L 23 16 L 7 16 L 7 5 L 5 5 z M 26 5 L 26 16 L 28 16 L 28 5 L 26 5 z M 10 7 L 10 9 L 12 9 L 12 7 L 10 7 z M 14 7 L 14 9 L 16 9 L 16 7 L 14 7 z M 18 7 L 18 9 L 20 9 L 20 7 L 18 7 z M 10 11 L 10 13 L 12 13 L 12 11 L 10 11 z M 14 11 L 14 13 L 16 13 L 16 11 L 14 11 z M 18 11 L 18 13 L 20 13 L 20 11 L 18 11 z M 11 18 L 15 18 L 15 25 L 12 25 C 11.43497 25 11 24.56503 11 24 L 11 18 z M 17 18 L 19 18 L 19 24 C 19 24.56503 18.56503 25 18 25 L 17 25 L 17 18 z" fill="#000000"/></svg>
