<?xml version="1.0" encoding="utf-8"?>
<svg xmlns="http://www.w3.org/2000/svg" viewBox="-7 9 32 32" fill="#000000"><path style="text-indent:0;text-align:start;line-height:normal;text-transform:none;block-progression:tb;-inkscape-font-specification:Sans" d="M 16 4 C 10.488666 4 6 8.488666 6 14 L 6 17.59375 L 6.03125 17.59375 C 6.0136202 17.72503 6 17.863987 6 18 C 6 19.32 6.84425 20.44375 8.03125 20.84375 C 8.45425 24.85975 11.874 28 16 28 C 20.126 28 23.54575 24.85975 23.96875 20.84375 C 25.15575 20.44375 26 19.32 26 18 C 26 17.863987 25.98638 17.72503 25.96875 17.59375 L 26 17.59375 L 26 14 C 26 8.488666 21.511334 4 16 4 z M 16 6 C 20.430666 6 24 9.569334 24 14 L 24 15.15625 C 23.969107 15.145297 23.937595 15.134957 23.90625 15.125 C 23.51225 13.331 21.91 12 20 12 C 19.448 12 19 11.551 19 11 L 19 10 L 17 10 L 17 11 C 17 11.551 16.551 12 16 12 L 12 12 C 10.089 12 8.48775 13.331 8.09375 15.125 C 8.0624052 15.134957 8.0308925 15.145297 8 15.15625 L 8 14 C 8 9.569334 11.569334 6 16 6 z M 18 13.21875 C 18.531 13.69475 19.232 14 20 14 C 21.103 14 22 14.897 22 16 L 22 17 L 23 17 C 23.552 17 24 17.448 24 18 C 24 18.552 23.552 19 23 19 L 22 19 L 22 20 C 22 23.309 19.309 26 16 26 C 12.691 26 10 23.309 10 20 L 10 19 L 9 19 C 8.449 19 8 18.552 8 18 C 8 17.448 8.449 17 9 17 L 10 17 L 10 16 C 10 14.897 10.897 14 12 14 L 16 14 C 16.768 14 17.469 13.69475 18 13.21875 z M 13 17 C 12.447715 17 12 17.447715 12 18 C 12 18.552285 12.447715 19 13 19 C 13.552285 19 14 18.552285 14 18 C 14 17.447715 13.552285 17 13 17 z M 19 17 C 18.447715 17 18 17.447715 18 18 C 18 18.552285 18.447715 19 19 19 C 19.552285 19 20 18.552285 20 18 C 20 17.447715 19.552285 17 19 17 z" transform="translate(-7 9)" overflow="visible" font-family="Sans" fill="#000000"/></svg>
