<?xml version="1.0" encoding="utf-8"?>
<svg xmlns="http://www.w3.org/2000/svg" viewBox="0 0 32 32" fill="#000000"><path style="text-indent:0;text-align:start;line-height:normal;text-transform:none;block-progression:tb;-inkscape-font-specification:Bitstream Vera Sans" d="M 4 6 L 4 7 L 4 25 L 4 26 L 5 26 L 27 26 L 28 26 L 28 25 L 28 7 L 28 6 L 27 6 L 5 6 L 4 6 z M 6 8 L 26 8 L 26 24 L 6 24 L 6 8 z M 8 12 L 8 14 L 19 14 L 19 12 L 8 12 z M 21 12 L 21 14 L 24 14 L 24 12 L 21 12 z M 8 16 L 8 18 L 19 18 L 19 16 L 8 16 z M 21 16 L 21 18 L 24 18 L 24 16 L 21 16 z M 21 20 L 21 22 L 24 22 L 24 20 L 21 20 z" fill="#000000"/></svg>
