<?xml version="1.0" encoding="utf-8"?>
<svg xmlns="http://www.w3.org/2000/svg" viewBox="0 0 32 32" fill="#000000"><path d="M 5 4 L 5 7 L 7 7 L 7 4 L 5 4 z M 8.375 4 L 7.21875 8.09375 C 5.94375 8.43875 5 9.617 5 11 L 5 16 L 7 16 L 7 11 C 7 10.448 7.449 10 8 10 L 8.75 10 L 9.3125 8 L 22.6875 8 L 23.25 10 L 24 10 C 24.551 10 25 10.448 25 11 L 25 16 L 27 16 L 27 11 C 27 9.617 26.05625 8.43875 24.78125 8.09375 L 23.625 4 L 21.53125 4 L 22.09375 6 L 9.90625 6 L 10.46875 4 L 8.375 4 z M 25 4 L 25 7 L 27 7 L 27 4 L 25 4 z M 14 10 C 12.906937 10 12 10.906937 12 12 L 12 15 L 14 15 L 14 12 L 18 12 L 18 15 L 20 15 L 20 12 C 20 10.906937 19.093063 10 18 10 L 14 10 z M 9.5 12 C 8.6715729 12 8 12.671573 8 13.5 C 8 14.328427 8.6715729 15 9.5 15 C 10.328427 15 11 14.328427 11 13.5 C 11 12.671573 10.328427 12 9.5 12 z M 22.5 12 C 21.671573 12 21 12.671573 21 13.5 C 21 14.328427 21.671573 15 22.5 15 C 23.328427 15 24 14.328427 24 13.5 C 24 12.671573 23.328427 12 22.5 12 z M 5 17 L 5 19 C 5 19.552 5.448 20 6 20 L 3 20 L 3 22 L 29 22 L 29 20 L 26 20 C 26.552 20 27 19.552 27 19 L 27 17 L 26 17 L 10 17 L 5 17 z M 9.34375 19 L 22.65625 19 L 23 20 L 9 20 L 9.34375 19 z M 5 23 L 5 25 L 3 25 L 5 27 L 6 28 L 7 27 L 9 25 L 7 25 L 7 23 L 5 23 z M 15 23 L 15 25 L 13 25 L 16 28 L 19 25 L 17 25 L 17 23 L 15 23 z M 25 23 L 25 25 L 23 25 L 26 28 L 29 25 L 27 25 L 27 23 L 25 23 z" fill="#000000"/></svg>
