<?xml version="1.0" encoding="utf-8"?>
<svg xmlns="http://www.w3.org/2000/svg" viewBox="0 0 32 32" fill="#000000"><path style="text-indent:0;text-align:start;line-height:normal;text-transform:none;block-progression:tb;-inkscape-font-specification:Bitstream Vera Sans" d="M 7.84375 3.46875 L 7.5625 4.4375 L 9.25 4.90625 L 8.09375 8.5625 L 7.96875 8.9375 L 8.15625 9.3125 L 9.875 12.625 L 8.0625 18.6875 L 8.0625 18.71875 L 6.125 22.125 L 6 22.34375 L 6 22.59375 L 6 28 L 8 28 L 8 22.875 L 9.8125 19.65625 L 9.875 19.5625 L 9.90625 19.46875 L 11.46875 14.3125 L 13.40625 15 L 12.375 18.71875 L 11.28125 18.375 L 10.65625 20.28125 L 12.40625 20.84375 L 18.375 28 L 20.96875 28 L 14.15625 19.8125 L 15.28125 15.71875 L 18.3125 17.8125 L 18.625 18 L 19 17.96875 L 23.625 17.46875 L 23.4375 15.5 L 19.15625 15.96875 L 16.0625 13.875 L 15.96875 13.8125 L 15.84375 13.78125 L 12 12.375 L 10.125 8.75 L 11.15625 5.4375 L 14.1875 6.28125 C 12.918757 6.8088673 12 8.0488442 12 9.5 C 12 11.421152 13.578848 13 15.5 13 C 17.421152 13 19 11.421152 19 9.5 C 19 8.6944036 18.714066 7.9690414 18.25 7.375 L 27.21875 9.84375 L 27.46875 8.875 L 11.46875 4.46875 L 11.5625 4.15625 L 9.65625 3.5625 L 9.53125 3.9375 L 7.84375 3.46875 z M 15.5 8 C 16.340272 8 17 8.6597281 17 9.5 C 17 10.340272 16.340272 11 15.5 11 C 14.659728 11 14 10.340272 14 9.5 C 14 8.6597281 14.659728 8 15.5 8 z" fill="#000000"/></svg>
