<?xml version="1.0" encoding="utf-8"?>
<svg xmlns="http://www.w3.org/2000/svg" viewBox="0 0 32 32" fill="#000000"><path style="text-indent:0;text-align:start;line-height:normal;text-transform:none;block-progression:tb;-inkscape-font-specification:Bitstream Vera Sans" d="M 16 4 C 13.802706 4 12 5.8027056 12 8 C 12 9.1453885 12.50102 10.17475 13.28125 10.90625 C 12.36139 11.585173 11.684351 12.595788 11.46875 13.78125 L 11.4375 13.9375 L 11.46875 14.125 L 11.9375 16.90625 L 10.0625 21.625 L 9.53125 23 L 11 23 L 13 23 L 13 28 L 15 28 L 15 22 L 15 21 L 14 21 L 12.5 21 L 13.21875 19.1875 L 14.125 20.5625 L 15.8125 19.4375 L 13.96875 16.625 L 13.5 14.03125 C 13.769465 12.851489 14.77953 12 16 12 C 17.235631 12 18.27866 12.859873 18.53125 14.0625 L 18.0625 16.65625 L 16.1875 19.4375 L 17.8125 20.5625 L 18.78125 19.15625 L 19.53125 21 L 18 21 L 17.5 21 L 17.1875 21.40625 L 15.6875 23.40625 L 15.21875 24.03125 L 15.71875 24.625 L 18.21875 27.625 L 19.78125 26.375 L 17.78125 23.96875 L 18.5 23 L 21 23 L 22.46875 23 L 21.9375 21.625 L 20.0625 16.90625 L 20.53125 14.125 L 20.5625 13.9375 L 20.53125 13.78125 C 20.316301 12.595563 19.638798 11.585108 18.71875 10.90625 C 19.49898 10.17475 20 9.1453885 20 8 C 20 5.8027056 18.197294 4 16 4 z M 16 6 C 17.116414 6 18 6.883586 18 8 C 18 9.116414 17.116414 10 16 10 C 14.883586 10 14 9.116414 14 8 C 14 6.883586 14.883586 6 16 6 z" fill="#000000"/></svg>
