<?xml version="1.0" encoding="utf-8"?>
<svg xmlns="http://www.w3.org/2000/svg" viewBox="0 0 32 32" fill="#000000"><path d="M 8 6 L 8 7.625 C 7.3782898 8.1545306 4 11.149762 4 16 C 4 20.515104 6.3779297 23.629289 7 24.375 L 7 26 L 9 26 L 9 25 L 12 25 L 12 26 L 14 26 L 14 25 L 16 25 L 18 25 L 18 26 L 20 26 L 20 25 L 23 25 L 23 26 L 25 26 L 25 24.375 C 25.62207 23.629289 28 20.515104 28 16 C 28 11.149762 24.62171 8.1545306 24 7.625 L 24 6 L 22 6 L 22 8 L 22 8.46875 L 22.375 8.78125 C 22.375 8.78125 26 11.824825 26 16 C 26 19.980334 23.830608 22.578223 23.46875 23 L 16 23 L 8.53125 23 C 8.1693921 22.578223 6 19.980334 6 16 C 6 11.824825 9.625 8.78125 9.625 8.78125 L 10 8.46875 L 10 8 L 10 6 L 8 6 z M 15 9 L 15 16 L 17 16 L 17 9 L 15 9 z M 15 18 L 15 20 L 17 20 L 17 18 L 15 18 z" fill="#000000"/></svg>
