<?xml version="1.0" encoding="utf-8"?>
<svg xmlns="http://www.w3.org/2000/svg" viewBox="0 0 32 32" fill="#000000"><path style="text-indent:0;text-align:start;line-height:normal;text-transform:none;block-progression:tb;-inkscape-font-specification:Bitstream Vera Sans" d="M 6 6 L 6 8 L 4 8 L 3 8 L 3 9 L 3 23 L 3 24 L 4 24 L 28 24 L 29 24 L 29 23 L 29 9 L 29 8 L 28 8 L 26 8 L 26 6 L 24 6 L 24 17 L 8 17 L 8 6 L 6 6 z M 9 6 L 9 8 L 11 8 L 11 6 L 9 6 z M 21 6 L 21 8 L 23 8 L 23 6 L 21 6 z M 14.21875 7.78125 L 12.78125 9.21875 L 14.5625 11 L 12.78125 12.78125 L 14.21875 14.21875 L 16 12.4375 L 17.78125 14.21875 L 19.21875 12.78125 L 17.4375 11 L 19.21875 9.21875 L 17.78125 7.78125 L 16 9.5625 L 14.21875 7.78125 z M 5 10 L 6 10 L 6 18 L 6 19 L 7 19 L 25 19 L 26 19 L 26 18 L 26 10 L 27 10 L 27 22 L 5 22 L 5 10 z M 9 10 L 9 12 L 11 12 L 11 10 L 9 10 z M 21 10 L 21 12 L 23 12 L 23 10 L 21 10 z M 9 14 L 9 16 L 11 16 L 11 14 L 9 14 z M 21 14 L 21 16 L 23 16 L 23 14 L 21 14 z M 10 25 L 10 27 L 22 27 L 22 25 L 10 25 z" fill="#000000"/></svg>
