<?xml version="1.0" encoding="utf-8"?>
<svg xmlns="http://www.w3.org/2000/svg" viewBox="0 0 32 32" fill="#000000"><path style="text-indent:0;text-align:start;line-height:normal;text-transform:none;block-progression:tb;-inkscape-font-specification:Bitstream Vera Sans" d="M 6 5 C 5.0560606 5 4.2463614 5.5765158 3.75 6.3125 C 3.2536386 7.0484842 3 7.9735294 3 9 C 3 10.026471 3.2536386 10.951516 3.75 11.6875 C 4.0562954 12.141662 4.4971571 12.515283 5 12.75 L 5 24 L 5 25 L 5 27 L 7 27 L 7 25 L 9 25 L 9 27 L 11 27 L 11 25 L 13 25 L 13 27 L 15 27 L 15 25 L 17 25 L 17 27 L 19 27 L 19 25 L 21 25 L 21 27 L 23 27 L 23 25 L 25 25 L 25 27 L 27 27 L 27 24 L 27 12.75 C 27.502843 12.515283 27.943705 12.141662 28.25 11.6875 C 28.746361 10.951516 29 10.026471 29 9 C 29 7.9735294 28.746361 7.0484842 28.25 6.3125 C 27.753639 5.5765158 26.943939 5 26 5 L 6 5 z M 6 7 L 26 7 C 26.156061 7 26.365111 7.067234 26.59375 7.40625 C 26.822389 7.7452658 27 8.3264706 27 9 C 27 9.6735294 26.822389 10.254734 26.59375 10.59375 C 26.365111 10.932766 26.156061 11 26 11 L 6 11 C 5.8439394 11 5.6348886 10.932766 5.40625 10.59375 C 5.1776114 10.254734 5 9.6735294 5 9 C 5 8.3264706 5.1776114 7.7452658 5.40625 7.40625 C 5.6348886 7.0672342 5.8439394 7 6 7 z M 7 13 L 8 13 L 8 21 L 8 22 L 9 22 L 23 22 L 24 22 L 24 21 L 24 13 L 25 13 L 25 23 L 7 23 L 7 13 z M 10 13 L 22 13 L 22 20 L 10 20 L 10 13 z" fill="#000000"/></svg>
