<?xml version="1.0" encoding="utf-8"?>
<svg xmlns="http://www.w3.org/2000/svg" viewBox="0 0 32 32" fill="#000000"><path style="text-indent:0;text-align:start;line-height:normal;text-transform:none;block-progression:tb;-inkscape-font-specification:Sans" d="M 2 5 L 2 6 L 2 22 L 2 23 L 3 23 L 15 23 L 15 25 L 10 25 L 10 27 L 22 27 L 22 25 L 17 25 L 17 23 L 29 23 L 30 23 L 30 22 L 30 6 L 30 5 L 29 5 L 3 5 L 2 5 z M 4 7 L 28 7 L 28 21 L 16.65625 21 L 15 17.09375 L 14.1875 15.25 L 12.59375 11.53125 L 12.5 11.28125 L 10.90625 7.59375 L 9.09375 8.40625 L 10 10.5 C 8.8391364 11.10178 7.7643751 11.861289 6.8125 12.8125 L 6.09375 13.5 L 11.75 19.1875 L 12.46875 18.46875 C 12.682867 18.254633 12.912616 18.044084 13.15625 17.875 L 14.5 21 L 4 21 L 4 7 z M 16 9 C 15.247 9 14.50925 9.0635 13.78125 9.1875 L 14.59375 11.09375 C 15.05775 11.03475 15.525 11 16 11 C 18.602 11 21.05825 11.88225 23.03125 13.53125 L 20.1875 16.40625 C 19.0565 15.55725 17.71225 15.08625 16.28125 15.03125 L 17.1875 17.15625 C 18.0665 17.37025 18.87625 17.81275 19.53125 18.46875 L 20.25 19.15625 L 25.90625 13.5 L 25.1875 12.8125 C 22.7315 10.3565 19.472 9 16 9 z M 10.78125 12.34375 L 12.375 16.03125 C 12.184437 16.145391 11.99175 16.2715 11.8125 16.40625 L 8.96875 13.5625 C 9.5365667 13.087837 10.139752 12.687879 10.78125 12.34375 z" overflow="visible" font-family="Sans" fill="#000000"/></svg>
