<?xml version="1.0" encoding="utf-8"?>
<svg xmlns="http://www.w3.org/2000/svg" viewBox="0 0 32 32" fill="#000000"><path style="text-indent:0;text-align:start;line-height:normal;text-transform:none;block-progression:tb;-inkscape-font-specification:Sans" d="M 25.3125 2 L 25.03125 2.96875 L 22.3125 12.71875 C 21.476983 12.425643 20.309441 12.005476 18.78125 11.53125 C 16.339534 10.773541 13.707735 10 12 10 C 6.4886661 10 2 14.488666 2 20 C 2 25.511334 6.4886661 30 12 30 C 15.918267 30 19.331486 27.730923 20.96875 24.4375 C 21.218284 23.934677 21.411695 23.225414 21.71875 22.21875 C 22.025805 21.212086 22.388095 19.991303 22.71875 18.8125 C 23.380059 16.454893 23.96875 14.25 23.96875 14.25 L 26.71875 4.4375 L 29.46875 5.21875 L 30 3.28125 L 26.25 2.25 L 25.3125 2 z M 12 12 C 12.957265 12 15.795466 12.726459 18.1875 13.46875 C 20.11217 14.06601 21.18503 14.445343 21.78125 14.65625 C 21.611004 15.292757 21.306603 16.408335 20.78125 18.28125 C 20.452905 19.451822 20.11182 20.643696 19.8125 21.625 C 19.51318 22.606304 19.205716 23.462823 19.15625 23.5625 C 17.847514 26.195077 15.149733 28 12 28 C 7.5693339 28 4 24.430666 4 20 C 4 15.569334 7.5693339 12 12 12 z M 10 16 L 10 17 L 10 19 L 10 19.8125 L 10.78125 19.96875 L 12.90625 20.4375 C 12.943635 20.50864 13 20.573866 13 20.65625 L 13 21.5 C 13 21.786937 12.786937 22 12.5 22 C 12.213063 22 12 21.786937 12 21.5 L 12 21 L 10 21 L 10 21.5 C 10 22.869063 11.130937 24 12.5 24 C 13.869063 24 15 22.869063 15 21.5 L 15 20.65625 C 15 19.956885 14.705067 19.286658 14.1875 18.8125 L 14 18.625 L 13.71875 18.5625 L 12 18.1875 L 12 18 L 15 18 L 15 16 L 11 16 L 10 16 z" overflow="visible" font-family="Sans" fill="#000000"/></svg>
