<?xml version="1.0" encoding="utf-8"?>
<svg xmlns="http://www.w3.org/2000/svg" viewBox="0 0 32 32" fill="#000000"><path style="text-indent:0;text-align:start;line-height:normal;text-transform:none;block-progression:tb;-inkscape-font-specification:Bitstream Vera Sans" d="M 3.71875 2.28125 L 2.28125 3.71875 L 28.28125 29.71875 L 29.71875 28.28125 L 25.9375 24.5 C 26.757565 23.78507 27.257267 23.19063 27.3125 23.125 L 25.78125 21.84375 C 25.769149 21.858399 25.2797 22.396198 24.5 23.0625 L 23.96875 22.53125 C 24.621707 21.715844 24.993536 21.042261 25.03125 20.96875 L 23.25 20.03125 C 23.243173 20.044335 22.982059 20.507121 22.53125 21.09375 L 19.75 18.28125 C 20.112748 18.325676 20.4805 18.34375 20.875 18.34375 C 21.87 18.34375 22.96825 18.1925 24.15625 17.8125 L 23.5625 15.90625 C 20.2575 16.96325 17.896 15.88675 16.625 14.96875 C 24.978 14.57375 28 11.16975 28 7.96875 C 28 6.39275 26.598 5 25 5 L 25 7 C 25.505 7 26 7.48575 26 7.96875 C 26 10.29475 23.11875 13 14.96875 13 L 14.84375 13 C 14.714771 13 14.428501 12.856835 14.09375 12.65625 L 11 9.5625 C 10.678596 9.0343522 10.53434 8.6331467 10.53125 8.46875 L 10.65625 8.3125 C 11.79225 6.3065 14.83625 5 18.40625 5 L 24 5 L 24 3 L 18.40625 3 C 14.11925 3 10.51275 4.61875 8.96875 7.21875 C 8.9245541 7.270277 8.8857612 7.3417516 8.84375 7.40625 L 3.71875 2.28125 z M 22 6 C 21.447715 6 21 6.4477153 21 7 C 21 7.5522847 21.447715 8 22 8 C 22.552285 8 23 7.5522847 23 7 C 23 6.4477153 22.552285 6 22 6 z M 6.625 10.8125 C 5.714 12.3605 5.03125 14.36375 5.03125 16.71875 C 5.03125 19.65175 6.03175 22.36175 7.84375 24.34375 C 10.02975 26.73475 13.33025 28 17.40625 28 C 19.35325 28 21.1005 27.464 22.5625 26.75 L 21.03125 25.25 C 20.21975 25.5875 19.329375 25.827812 18.375 25.9375 C 19.318313 25.810469 20.1615 25.5195 20.90625 25.125 L 19.40625 23.59375 C 18.80425 23.83475 18.13925 24 17.40625 24 C 15.07525 24 13 21.763 13 20 C 13 19.068 13.20375 18.29625 13.46875 17.65625 L 11.96875 16.15625 C 11.43375 17.13525 11 18.403 11 20 C 11 22.548125 13.512769 25.598225 16.75 25.96875 C 13.527485 25.847695 11.01879 24.866343 9.3125 23 C 8.7899225 22.428497 8.349433 21.770495 8 21.0625 C 8.5164334 21.076432 9.1002117 21.068959 9.75 21 L 9.53125 19.03125 C 8.4974258 19.140965 7.7498319 19.086047 7.28125 19.03125 C 7.1158349 18.31021 7.0354062 17.558284 7.03125 16.78125 C 7.7607399 16.908747 8.7819642 17.017469 10 16.90625 L 9.8125 14.90625 C 8.6258715 15.014601 7.7659175 14.924706 7.21875 14.8125 C 7.4077868 13.875323 7.7216083 13.005467 8.09375 12.28125 L 6.625 10.8125 z" overflow="visible" font-family="Bitstream Vera Sans" fill="#000000"/></svg>
