<?xml version="1.0" encoding="utf-8"?>
<svg xmlns="http://www.w3.org/2000/svg" viewBox="0 0 32 32" fill="#000000"><path style="text-indent:0;text-align:start;line-height:normal;text-transform:none;block-progression:tb;-inkscape-font-specification:Bitstream Vera Sans" d="M 12 4 C 9.7462096 4 7.801884 5.6274753 6.375 7.71875 C 4.948116 9.8100247 4 12.467507 4 15 C 4 18.908204 5.930455 21.93444 8.75 23.25 C 10.062785 26.031489 13.044018 28 17 28 C 19.512593 28 22.154086 27.050898 24.25 25.625 C 26.345914 24.199102 28 22.258132 28 20 C 28 17.74621 26.372525 15.801884 24.28125 14.375 C 22.914415 13.442404 21.313846 12.705015 19.65625 12.3125 C 19.174796 10.35516 18.236732 8.440418 17.03125 6.9375 C 15.683306 5.2569698 13.959529 4 12 4 z M 12 6 C 13.038471 6 14.346444 6.7882802 15.46875 8.1875 C 16.310479 9.2369149 17.04644 10.610419 17.5 12 C 17.33593 11.992249 17.163217 12 17 12 C 11.70645 12 8 15.593217 8 20 C 8 20.115939 7.9949825 20.228954 8 20.34375 C 6.7900668 19.148074 6 17.354574 6 15 C 6 12.987493 6.821884 10.616225 8.03125 8.84375 C 9.240616 7.0712747 10.79879 6 12 6 z M 17 14 C 19.012507 14 21.383775 14.821884 23.15625 16.03125 C 24.928725 17.240616 26 18.79879 26 20 C 26 21.196868 24.904086 22.758398 23.125 23.96875 C 21.345914 25.179102 18.987407 26 17 26 C 12.466662 26 10 23.340909 10 20 C 10 16.674783 12.56555 14 17 14 z" overflow="visible" font-family="Bitstream Vera Sans" fill="#000000"/></svg>
