<?xml version="1.0" encoding="utf-8"?>
<svg xmlns="http://www.w3.org/2000/svg" viewBox="0 0 32 32" fill="#000000"><path style="text-indent:0;text-align:start;line-height:normal;text-transform:none;block-progression:tb;-inkscape-font-specification:Sans" d="M 9 7 C 5.6981362 7 3 9.6981359 3 13 C 3 15.964985 5.165217 18.431434 8 18.90625 L 8 23 L 5 23 L 9 27 L 13 23 L 10 23 L 10 18.90625 C 12.834783 18.431434 15 15.964985 15 13 C 15 9.698136 12.301864 7 9 7 z M 23 7 C 19.698136 7 17 9.698136 17 13 C 17 15.964985 19.165217 18.431434 22 18.90625 L 22 23 L 19 23 L 23 27 L 27 23 L 24 23 L 24 18.90625 C 26.834783 18.431434 29 15.964985 29 13 C 29 9.698136 26.301864 7 23 7 z M 9 9 C 11.220984 9 13 10.779016 13 13 C 13 15.220984 11.220984 17 9 17 C 6.7790164 17 5 15.220984 5 13 C 5 10.779016 6.7790164 9 9 9 z M 23 9 C 25.220984 9 27 10.779016 27 13 C 27 15.220984 25.220984 17 23 17 C 20.779016 17 19 15.220984 19 13 C 19 10.779016 20.779016 9 23 9 z" overflow="visible" font-family="Sans" fill="#000000"/></svg>
