<?xml version="1.0" encoding="utf-8"?>
<svg xmlns="http://www.w3.org/2000/svg" viewBox="0 0 32 32" fill="#000000"><path style="text-indent:0;text-align:start;line-height:normal;text-transform:none;block-progression:tb;-inkscape-font-specification:Sans" d="M 22.71875 2.5 L 22.34375 3.5625 L 22.03125 4.46875 C 20.228065 3.5257093 18.172941 3 16 3 C 8.8324839 3 3 8.8324839 3 16 C 3 23.167516 8.8324839 29 16 29 C 23.167516 29 29 23.167516 29 16 C 29 14.304759 28.655604 12.703651 28.0625 11.21875 L 29.1875 10.8125 L 30.21875 10.46875 L 29.78125 9.46875 C 28.59853 6.7155684 26.469937 4.3972736 23.71875 3 L 22.71875 2.5 z M 14.875 5.0625 C 14.916021 5.0583491 14.958845 5.0662011 15 5.0625 L 15 15 L 5.0625 15 C 5.5339782 9.757364 9.649384 5.5912817 14.875 5.0625 z M 17 5.0625 C 18.550935 5.2033319 20.015282 5.6602886 21.3125 6.375 L 19.0625 12.65625 L 18.34375 14.65625 L 20.34375 13.9375 L 26.1875 11.875 C 26.70189 13.148198 27 14.539757 27 16 C 27 18.678659 26.053274 21.125821 24.46875 23.03125 L 17 15.5625 L 17 5.0625 z M 23.78125 5.5 C 25.292282 6.4909298 26.48531 7.7892917 27.34375 9.34375 L 21.65625 11.34375 L 23.78125 5.5 z M 5.0625 17 L 15.5625 17 L 23.03125 24.46875 C 21.125821 26.053274 18.678659 27 16 27 C 10.251784 27 5.5673909 22.61417 5.0625 17 z" overflow="visible" font-family="Sans" fill="#000000"/></svg>
