<?xml version="1.0" encoding="utf-8"?>
<svg xmlns="http://www.w3.org/2000/svg" viewBox="0 0 32 32" fill="#000000"><path style="text-indent:0;text-align:start;line-height:normal;text-transform:none;block-progression:tb;-inkscape-font-specification:Bitstream Vera Sans" d="M 10.71875 6 C 9.8623934 6 9.0835228 6.5599387 8.8125 7.375 L 7.28125 12 L 1 12 L 0 12 L 0 13 L 0 20.21875 C 0 21.130909 0.61412082 21.935278 1.5 22.15625 L 4.09375 22.8125 C 4.4688403 24.629565 6.0773674 26 8 26 C 9.8531978 26 11.396684 24.719842 11.84375 23 L 21.15625 23 C 21.603316 24.719842 23.146802 26 25 26 C 26.853198 26 28.396684 24.719842 28.84375 23 L 30 23 C 31.093063 23 32 22.093063 32 21 L 32 17.25 C 32 15.468879 30.807034 13.89576 29.09375 13.40625 L 24.5625 12.125 L 20.65625 7.4375 C 19.8963 6.5255597 18.77963 6 17.59375 6 L 10.71875 6 z M 10.71875 8 L 14 8 L 14 12 L 9.375 12 L 10.71875 8 z M 16 8 L 17.59375 8 C 18.18787 8 18.74495 8.2626903 19.125 8.71875 L 21.875 12 L 16 12 L 16 8 z M 2 14 L 23.84375 14 L 28.5625 15.34375 C 29.425216 15.59024 30 16.353121 30 17.25 L 30 21 L 28.84375 21 C 28.396684 19.280158 26.853198 18 25 18 C 23.146802 18 21.603316 19.280158 21.15625 21 L 11.84375 21 C 11.396684 19.280158 9.8531978 18 8 18 C 6.2267834 18 4.7379685 19.173277 4.21875 20.78125 L 2 20.21875 L 2 14 z M 8 20 C 9.116414 20 10 20.883586 10 22 C 10 23.116414 9.116414 24 8 24 C 6.883586 24 6 23.116414 6 22 C 6 20.883586 6.883586 20 8 20 z M 25 20 C 26.116414 20 27 20.883586 27 22 C 27 23.116414 26.116414 24 25 24 C 23.883586 24 23 23.116414 23 22 C 23 20.883586 23.883586 20 25 20 z" overflow="visible" font-family="Bitstream Vera Sans" fill="#000000"/></svg>
