<?xml version="1.0" encoding="utf-8"?>
<svg xmlns="http://www.w3.org/2000/svg" viewBox="0 0 32 32" fill="#000000"><path style="text-indent:0;text-align:start;line-height:normal;text-transform:none;block-progression:tb;-inkscape-font-specification:Sans" d="M 16 5 C 12.145852 5 9 8.1458513 9 12 C 9 14.408843 10.23116 16.55212 12.09375 17.8125 C 8.5262529 19.341707 6 22.87927 6 27 L 8 27 C 8 22.589 11.589 19 16 19 C 18.334 19 20.503 20.01875 22 21.71875 C 22.372 21.15375 22.838 20.66 23.375 20.25 C 22.410526 19.196625 21.239351 18.337152 19.9375 17.78125 C 21.779617 16.517805 23 14.393064 23 12 C 23 8.1458513 19.854148 5 16 5 z M 16 7 C 18.773268 7 21 9.2267317 21 12 C 21 14.773268 18.773268 17 16 17 C 13.226732 17 11 14.773268 11 12 C 11 9.2267317 13.226732 7 16 7 z M 27 20 C 24.254545 20 22 22.254545 22 25 L 22 32 L 24 32 L 24 25 C 24 23.345455 25.345455 22 27 22 C 28.654545 22 30 23.345455 30 25 L 30 32 L 32 32 L 32 25 C 32 22.254545 29.745455 20 27 20 z M 27 23 C 27 23.143 25 28 25 28 L 27 28 L 27 32 L 29 27 L 27 27 L 27 23 z" overflow="visible" font-family="Sans" fill="#000000"/></svg>
