<?xml version="1.0" encoding="utf-8"?>
<svg xmlns="http://www.w3.org/2000/svg" viewBox="0 0 32 32" fill="#000000"><path style="text-indent:0;text-align:start;line-height:normal;text-transform:none;block-progression:tb;-inkscape-font-specification:Sans" d="M 5 5 L 5 6 L 5 26 L 5 27 L 6 27 L 26 27 L 27 27 L 27 26 L 27 6 L 27 5 L 26 5 L 6 5 L 5 5 z M 7 7 L 25 7 L 25 25 L 7 25 L 7 7 z M 15 8.5 C 14.171573 8.5 13.5 9.1715729 13.5 10 C 13.5 10.828427 14.171573 11.5 15 11.5 C 15.828427 11.5 16.5 10.828427 16.5 10 C 16.5 9.1715729 15.828427 8.5 15 8.5 z M 14 12 L 14 16 C 14 17.093063 14.906937 18 16 18 L 18.28125 18 L 19.0625 20.3125 L 19.28125 21 L 20 21 L 22 21 L 22 19 L 20.71875 19 L 20.1875 17.375 C 19.916477 16.559939 19.137607 16 18.28125 16 L 16 16 L 16 15 L 19 15 L 19 13 L 16 13 L 16 12 L 14 12 z M 13 12.21875 C 10.695 12.87375 9 14.988 9 17.5 C 9 20.533 11.468 23 14.5 23 C 15.861 23 17.1015 22.5105 18.0625 21.6875 L 17.34375 19.5 C 16.70975 20.4 15.682 21 14.5 21 C 12.57 21 11 19.43 11 17.5 C 11 16.109 11.822 14.90775 13 14.34375 L 13 12.21875 z" overflow="visible" font-family="Sans" fill="#000000"/></svg>
