<?xml version="1.0" encoding="utf-8"?>
<svg xmlns="http://www.w3.org/2000/svg" viewBox="0 0 32 32" fill="#000000"><path style="text-indent:0;text-align:start;line-height:normal;text-transform:none;block-progression:tb;-inkscape-font-specification:Bitstream Vera Sans" d="M 28.28125 2.28125 L 26 4.5625 L 25.375 3.90625 L 24.6875 3.1875 L 23.96875 3.90625 L 15.0625 12.8125 L 13.4375 11.15625 L 12.71875 10.4375 L 12 11.15625 L 10.53125 12.65625 L 9.8125 13.34375 L 10.53125 14.0625 C 10.967773 14.499023 10.967773 15.188477 10.53125 15.625 L 9.8125 16.3125 L 4.375 21.75 C 3.0103666 23.114633 2.8030701 25.219224 3.75 26.8125 L 2.28125 28.28125 L 3.71875 29.71875 L 5.1875 28.25 C 6.7807764 29.19693 8.8853666 28.989633 10.25 27.625 L 16.375 21.46875 C 16.811523 21.032227 17.500977 21.032227 17.9375 21.46875 L 18.65625 22.1875 L 19.34375 21.46875 L 20.84375 20 L 21.5625 19.28125 L 20.84375 18.5625 L 19.1875 16.9375 L 28.09375 8.03125 L 28.8125 7.3125 L 28.09375 6.625 L 27.4375 6 L 29.71875 3.71875 L 28.28125 2.28125 z M 24.6875 6.03125 L 25.96875 7.3125 L 17.78125 15.5 L 16.5 14.21875 L 24.6875 6.03125 z M 12.71875 13.28125 L 18.71875 19.28125 L 18.34375 19.65625 C 17.20504 19.151473 15.896384 19.134866 14.96875 20.0625 L 8.84375 26.1875 C 7.9969751 27.034275 6.6592749 27.034275 5.8125 26.1875 C 4.9657251 25.340725 4.9657251 24.003025 5.8125 23.15625 L 11.9375 17.03125 C 12.865134 16.103616 12.848527 14.79496 12.34375 13.65625 L 12.71875 13.28125 z" overflow="visible" font-family="Bitstream Vera Sans" fill="#000000"/></svg>
