<?xml version="1.0" encoding="utf-8"?>
<svg xmlns="http://www.w3.org/2000/svg" viewBox="0 0 32 32" fill="#000000"><path style="text-indent:0;text-align:start;line-height:normal;text-transform:none;block-progression:tb;-inkscape-font-specification:Sans" d="M 3 7 L 3 25 L 16 25 C 16 24.329 16.12375 23.65 16.34375 23 L 5 23 L 5 9.875 L 15.4375 16.84375 L 16 17.1875 L 16.5625 16.84375 L 27 9.875 L 27 14.1875 L 28.6875 15.875 L 29 16.1875 L 29 7 L 3 7 z M 7.3125 9 L 24.6875 9 L 16 14.78125 L 7.3125 9 z M 27.28125 17.28125 L 25.875 18.71875 L 28.15625 21 L 22.03125 21 C 19.824795 21 18 22.824795 18 25.03125 L 18 32 L 20 32 L 20 25.03125 C 20 23.915705 20.915705 23 22.03125 23 L 28.15625 23 L 25.875 25.28125 L 27.28125 26.71875 L 31.28125 22.71875 L 32 22 L 31.28125 21.28125 L 27.28125 17.28125 z" overflow="visible" font-family="Sans" fill="#000000"/></svg>
