<?xml version="1.0" encoding="utf-8"?>
<svg xmlns="http://www.w3.org/2000/svg" viewBox="0 0 32 32" fill="#000000"><path style="text-indent:0;text-align:start;line-height:normal;text-transform:none;block-progression:tb;-inkscape-font-specification:Sans" d="M 26.53125 4 C 19.445303 4 15.723744 6.1138626 13.84375 8.375 C 12.179402 10.376771 12.015382 12.386769 12 12.84375 C 11.162989 13.892808 10.705997 14.572245 10.4375 15 L 7 15 L 7 17 L 16 17 L 16 15 L 12.90625 15 C 13.145265 14.678071 13.428029 14.33188 13.75 13.9375 C 14.769344 13.863716 16.741371 13.657083 18.96875 12.90625 C 22.145772 11.835302 25.849024 9.6433477 27.46875 5.34375 L 28 4 L 26.53125 4 z M 24.78125 6.125 C 23.231768 8.6894116 20.749377 10.189083 18.34375 11 C 16.553062 11.603626 15.169275 11.812158 14.1875 11.90625 C 14.354935 11.296169 14.671241 10.471436 15.375 9.625 C 16.675145 8.0612682 19.402893 6.4504472 24.78125 6.125 z M 6.96875 18 C 5.336457 18 4 19.336457 4 20.96875 L 4 25 C 4 26.649427 5.3516871 28.03125 7 28.03125 L 16 28.03125 C 17.648313 28.03125 19 26.649427 19 25 L 19 20.96875 C 19 19.336457 17.663543 18 16.03125 18 L 6.96875 18 z M 6.96875 20 L 16.03125 20 C 16.582957 20 17 20.417043 17 20.96875 L 17 25 C 17 25.568573 16.567687 26.03125 16 26.03125 L 7 26.03125 C 6.4323129 26.03125 6 25.568573 6 25 L 6 20.96875 C 6 20.417043 6.417043 20 6.96875 20 z" overflow="visible" font-family="Sans" fill="#000000"/></svg>
