<?xml version="1.0" encoding="utf-8"?>
<svg xmlns="http://www.w3.org/2000/svg" viewBox="0 0 32 32" fill="#000000"><path style="text-indent:0;text-align:start;line-height:normal;text-transform:none;block-progression:tb;-inkscape-font-specification:Sans" d="M 4 5 L 4 6 L 4 26 L 4 27 L 5 27 L 19 27 L 19 25 L 6 25 L 6 11 L 26 11 L 26 17 L 28 17 L 28 6 L 28 5 L 27 5 L 5 5 L 4 5 z M 6 7 L 26 7 L 26 9 L 6 9 L 6 7 z M 9 14 L 9 16 L 11 16 L 11 14 L 9 14 z M 13 14 L 13 16 L 23 16 L 23 14 L 13 14 z M 9 18 L 9 20 L 11 20 L 11 18 L 9 18 z M 13 18 L 13 20 L 19 20 L 19 18 L 13 18 z M 25 19 C 24.448 19 24 19.448 24 20 L 20 20 L 20 22 L 32 22 L 32 20 L 28 20 C 28 19.448 27.552 19 27 19 L 25 19 z M 21 23 L 21 30 C 21 31.093063 21.906937 32 23 32 L 29 32 C 30.093063 32 31 31.093063 31 30 L 31 23 L 29 23 L 29 30 L 23 30 L 23 23 L 21 23 z" fill="#000000"/></svg>
