<?xml version="1.0" encoding="utf-8"?>
<svg xmlns="http://www.w3.org/2000/svg" viewBox="0 0 32 32" fill="#000000"><path style="text-indent:0;text-align:start;line-height:normal;text-transform:none;block-progression:tb;-inkscape-font-specification:Bitstream Vera Sans" d="M 12.5 3 C 10.578848 3 9 4.5788481 9 6.5 C 9 8.4211519 10.578848 10 12.5 10 C 14.421152 10 16 8.4211519 16 6.5 C 16 4.5788481 14.421152 3 12.5 3 z M 12.5 5 C 13.340272 5 14 5.6597281 14 6.5 C 14 7.3402719 13.340272 8 12.5 8 C 11.659728 8 11 7.3402719 11 6.5 C 11 5.6597281 11.659728 5 12.5 5 z M 16.1875 10.0625 L 15.6875 10.15625 L 11.40625 11.1875 L 10.9375 11.3125 L 10.75 11.78125 L 8.84375 16.09375 L 5.71875 15.3125 L 5.25 17.25 L 8.34375 18.03125 C 9.2848683 18.269508 10.297755 17.797095 10.6875 16.90625 L 11.28125 15.53125 L 11.84375 18.96875 L 10.25 21.78125 C 10.07986 22.081498 10 22.43484 10 22.78125 L 10 28 L 12 28 L 12 22.78125 L 12 22.75 L 13.78125 19.65625 L 13.9375 19.34375 L 13.875 19 L 12.875 12.90625 L 14.75 12.46875 L 15.6875 18.5 L 14.15625 21.53125 C 13.773699 22.284397 13.919887 23.202587 14.5 23.8125 L 17.3125 26.75 L 18.75 25.375 L 15.9375 22.4375 L 17.625 19.125 L 17.78125 18.8125 L 17.71875 18.5 L 16.90625 13.3125 L 18.09375 14.3125 C 18.794544 14.912046 19.817455 14.952616 20.5625 14.40625 L 23.15625 12.5 L 22 10.875 L 19.375 12.78125 L 16.5625 10.375 L 16.1875 10.0625 z M 24 15.4375 L 24 16.4375 L 24 19 C 22.895431 19 22 19.895431 22 21 C 22 22.104569 22.895431 23 24 23 C 25.104569 23 26 22.104569 26 21 L 26 17.4375 L 27 17.4375 L 27 15.4375 L 25 15.4375 L 24 15.4375 z" overflow="visible" font-family="Bitstream Vera Sans" fill="#000000"/></svg>
