<?xml version="1.0" encoding="utf-8"?>
<svg xmlns="http://www.w3.org/2000/svg" viewBox="0 0 32 32" fill="#000000"><path d="M 28 3.46875 L 26.59375 4.09375 L 19.96875 6.9375 L 12.34375 4.0625 L 11.96875 3.9375 L 11.59375 4.09375 L 4.59375 7.09375 L 4 7.34375 L 4 8 L 4 17 L 4 20 L 4 26.53125 L 12 23.09375 L 12 20.9375 L 11.96875 20.9375 L 6 23.46875 L 6 20 L 6 17 L 6 8.65625 L 12.03125 6.0625 L 19.65625 8.9375 L 20.03125 9.0625 L 20.40625 8.90625 L 26 6.5 L 26 19 L 28 19 L 28 5 L 28 3.46875 z M 11 9 L 11 11 L 13 11 L 13 9 L 11 9 z M 19 10 L 19 12 L 21 12 L 21 10 L 19 10 z M 11 13 L 11 15 L 13 15 L 13 13 L 11 13 z M 19 14 L 19 16 L 21 16 L 21 14 L 19 14 z M 11 17 L 11 19 L 13 19 L 13 17 L 11 17 z M 19 18 L 19 20 L 21 20 L 21 18 L 19 18 z M 21.875 22 L 21.59375 22.40625 C 21.59375 22.40625 21.047628 23 20.5 23 L 20.5 25 C 21.157155 25 21.575532 24.721022 22 24.46875 L 22 30 L 24 30 L 24 23 L 24 22 L 23 22 L 22.375 22 L 21.875 22 z M 26.875 22 L 26.59375 22.40625 C 26.59375 22.40625 26.047628 23 25.5 23 L 25.5 25 C 26.157155 25 26.575532 24.721022 27 24.46875 L 27 30 L 29 30 L 29 23 L 29 22 L 28 22 L 27.375 22 L 26.875 22 z M 15 26 L 15 28 L 19 28 L 19 26 L 15 26 z" fill="#000000"/></svg>
