<?xml version="1.0" encoding="utf-8"?>
<svg xmlns="http://www.w3.org/2000/svg" viewBox="0 0 32 32" fill="#000000"><path style="text-indent:0;text-align:start;line-height:normal;text-transform:none;block-progression:tb;-inkscape-font-specification:Bitstream Vera Sans" d="M 3.71875 2.28125 L 2.28125 3.71875 L 28.28125 29.71875 L 29.71875 28.28125 L 20.84375 19.40625 L 22.5625 17.25 L 24.59375 14.6875 L 21.40625 14.03125 L 18.625 13.46875 L 20.90625 6.625 L 21.78125 4 L 19 4 L 18.90625 4 L 17.875 4 L 17.28125 4.84375 L 12.6875 11.25 L 3.71875 2.28125 z M 18.90625 6 L 19 6 L 16.125 14.6875 L 14.09375 12.65625 L 18.90625 6 z M 10.3125 14.5 L 9.375 15.8125 L 7.5625 18.3125 L 10.59375 18.9375 L 13.3125 19.46875 L 11.125 25.3125 L 10.125 28 L 13 28 L 13.09375 28 L 14.0625 28 L 14.65625 27.25 L 18.375 22.5625 L 16.9375 21.125 L 13.09375 26 L 13 26 L 15.40625 19.59375 L 13.21875 17.40625 L 11 16.96875 L 11.75 15.9375 L 10.3125 14.5 z M 16.5625 15.125 L 21 16 L 19.4375 18 L 16.5625 15.125 z" overflow="visible" font-family="Bitstream Vera Sans" fill="#000000"/></svg>
