<?xml version="1.0" encoding="utf-8"?>
<svg xmlns="http://www.w3.org/2000/svg" viewBox="0 0 32 32" fill="#000000"><path style="text-indent:0;text-align:start;line-height:normal;text-transform:none;block-progression:tb;-inkscape-font-specification:Sans" d="M 16 2.90625 C 12.725644 2.90625 10.0625 5.569394 10.0625 8.84375 C 10.0625 10.790911 10.96985 12.168006 11.71875 13.21875 C 12.46765 14.269494 13 14.993713 13 16.03125 L 13 19.21875 L 4.78125 21.03125 L 4 21.1875 L 4 22 L 4 25 L 4 26 L 5 26 L 5 27 C 5 27.573737 5.2536476 28.116726 5.65625 28.46875 C 6.0588524 28.820774 6.5748377 29 7.09375 29 L 24.90625 29 C 25.425162 29 25.941148 28.820774 26.34375 28.46875 C 26.746352 28.116726 27 27.573737 27 27 L 27 26 L 28 26 L 28 25 L 28 22 L 28 21.1875 L 27.21875 21.03125 L 19 19.21875 L 19 16.03125 C 19 14.993713 19.53235 14.269494 20.28125 13.21875 C 21.03015 12.168006 21.9375 10.790911 21.9375 8.84375 C 21.9375 5.569394 19.274356 2.90625 16 2.90625 z M 16 4.90625 C 18.193644 4.90625 19.9375 6.650106 19.9375 8.84375 C 19.9375 10.194589 19.38235 11.043744 18.65625 12.0625 C 17.93015 13.081256 17 14.286787 17 16.03125 L 17 19 L 15 19 L 15 16.03125 C 15 14.286787 14.06985 13.081256 13.34375 12.0625 C 12.61765 11.043744 12.0625 10.194589 12.0625 8.84375 C 12.0625 6.650106 13.806356 4.90625 16 4.90625 z M 14 21 L 14.0625 21 L 18 21 L 26 22.78125 L 26 24 L 6 24 L 6 22.78125 L 14 21 z M 7 26 L 25 26 L 25 26.96875 C 24.988578 26.974886 24.974376 27 24.90625 27 L 7.09375 27 C 7.0256241 27 7.0114216 26.974886 7 26.96875 L 7 26 z" overflow="visible" font-family="Sans" fill="#000000"/></svg>
