<?xml version="1.0" encoding="utf-8"?>
<svg xmlns="http://www.w3.org/2000/svg" viewBox="0 0 32 32" fill="#000000"><path style="text-indent:0;text-align:start;line-height:normal;text-transform:none;block-progression:tb;-inkscape-font-specification:Bitstream Vera Sans" d="M 4 4 L 4 27 L 4 28 L 5 28 L 28 28 L 28 26 L 6 26 L 6 4 L 4 4 z M 26 4 C 25.447715 4 25 4.4477153 25 5 C 25 5.5522847 25.447715 6 26 6 C 26.552285 6 27 5.5522847 27 5 C 27 4.4477153 26.552285 4 26 4 z M 21 5.5 C 20.447715 5.5 20 5.9477153 20 6.5 C 20 7.0522847 20.447715 7.5 21 7.5 C 21.552285 7.5 22 7.0522847 22 6.5 C 22 5.9477153 21.552285 5.5 21 5.5 z M 18 10 C 17.447715 10 17 10.447715 17 11 C 17 11.552285 17.447715 12 18 12 C 18.552285 12 19 11.552285 19 11 C 19 10.447715 18.552285 10 18 10 z M 25 10 C 24.447715 10 24 10.447715 24 11 C 24 11.552285 24.447715 12 25 12 C 25.552285 12 26 11.552285 26 11 C 26 10.447715 25.552285 10 25 10 z M 13 13 C 12.447715 13 12 13.447715 12 14 C 12 14.552285 12.447715 15 13 15 C 13.552285 15 14 14.552285 14 14 C 14 13.447715 13.552285 13 13 13 z M 23 15 C 22.447715 15 22 15.447715 22 16 C 22 16.552285 22.447715 17 23 17 C 23.552285 17 24 16.552285 24 16 C 24 15.447715 23.552285 15 23 15 z M 18 16 C 17.447715 16 17 16.447715 17 17 C 17 17.552285 17.447715 18 18 18 C 18.552285 18 19 17.552285 19 17 C 19 16.447715 18.552285 16 18 16 z M 14 18 C 13.447715 18 13 18.447715 13 19 C 13 19.552285 13.447715 20 14 20 C 14.552285 20 15 19.552285 15 19 C 15 18.447715 14.552285 18 14 18 z M 9 19 C 8.4477153 19 8 19.447715 8 20 C 8 20.552285 8.4477153 21 9 21 C 9.5522847 21 10 20.552285 10 20 C 10 19.447715 9.5522847 19 9 19 z M 14 22 C 13.447715 22 13 22.447715 13 23 C 13 23.552285 13.447715 24 14 24 C 14.552285 24 15 23.552285 15 23 C 15 22.447715 14.552285 22 14 22 z" fill="#000000"/></svg>
