<?xml version="1.0" encoding="utf-8"?>
<svg xmlns="http://www.w3.org/2000/svg" viewBox="0 0 32 32" fill="#000000"><path style="text-indent:0;text-align:start;line-height:normal;text-transform:none;block-progression:tb;-inkscape-font-specification:Sans" d="M 17 4 C 14.250484 4 12 6.2504839 12 9 C 12 11.208868 12.148072 13.483369 12.34375 15.65625 C 12.21582 15.561222 12.091249 15.428689 11.96875 15.28125 C 11.482434 14.695927 11.007049 13.685227 11 12.03125 C 11.000095 12.020943 11.000011 12.010285 11 12 C 11 11.794379 10.977764 11.60073 10.9375 11.40625 C 10.87248 11.085022 10.753155 10.776892 10.59375 10.5 C 10.483868 10.309132 10.366243 10.130754 10.21875 9.96875 C 10.198854 9.9470504 10.176762 9.9273632 10.15625 9.90625 C 9.9771774 9.7207804 9.7524027 9.5721961 9.53125 9.4375 C 9.241046 9.2607473 8.9372451 9.1311723 8.59375 9.0625 C 8.4296405 9.0285234 8.2660237 9.0055372 8.09375 9 C 8.0391983 8.9971289 7.9930439 9 7.9375 9 C 7.5335867 9 7.1622608 9.0979232 6.8125 9.25 C 6.2860772 9.4802497 5.8197192 9.8410405 5.5 10.3125 C 5.3943183 10.47067 5.3249929 10.635467 5.25 10.8125 C 5.2462435 10.821088 5.2536778 10.835121 5.25 10.84375 C 5.1803095 11.012721 5.1009683 11.192942 5.0625 11.375 C 5.0603916 11.384691 5.0645132 11.396526 5.0625 11.40625 C 5.0259162 11.588524 5.0020681 11.777275 5 11.96875 C 4.9999557 11.973055 5.0000447 11.995219 5 12 C 4.9948512 12.550511 4.997737 16.221376 7.59375 18.84375 C 8.996126 20.261009 10.860892 20.99273 12.96875 21 C 13.473021 24.622611 13.96875 27.1875 13.96875 27.1875 L 14.125 28 L 14.9375 28 L 20 28 L 21 28 L 21 27 C 21 25.875475 21.039277 24.886464 21.0625 23.9375 C 23.809729 23.635119 25.449418 22.174817 26.21875 20.71875 C 27.068775 19.109962 27.001867 17.549173 27 17.5 C 27 17.48967 27.000128 17.47905 27 17.46875 C 26.983118 16.11363 25.858736 15 24.5 15 C 23.141264 15 22.016882 16.11363 22 17.46875 C 21.999872 17.47905 22 17.48967 22 17.5 C 21.9983 17.52945 21.94744 18.191484 21.65625 18.84375 C 21.546518 19.089549 21.401605 19.286733 21.25 19.46875 C 21.588496 14.786133 22.136739 12.605424 22 8.96875 C 21.898418 6.2664365 19.749818 4 17 4 z M 17 6 C 18.668182 6 19.935582 7.3175635 20 9.03125 C 20.173567 13.6474 19.158174 16.311066 19.0625 26 L 15.8125 26 C 15.581483 24.811621 14 16.65004 14 9 C 14 7.3315161 15.331516 6 17 6 z M 7.9375 11 C 7.957956 11 7.978552 10.9989 8 11 C 8.0318442 11 8.0627866 10.997291 8.09375 11 C 8.3428225 11.02219 8.5584659 11.145694 8.71875 11.3125 C 8.8926753 11.493502 9.0024874 11.731358 9 12 C 9 14.066264 9.630748 15.560255 10.4375 16.53125 C 11.115794 17.347634 11.810739 17.804748 12.5625 17.9375 C 12.603297 18.300309 12.644668 18.649214 12.6875 19 C 11.157686 18.940163 9.9757134 18.423568 9 17.4375 C 7.0885596 15.50665 6.9971413 12.278009 7 12 C 7.0016375 11.848479 7.0162045 11.71591 7.0625 11.59375 C 7.1583847 11.361348 7.3334845 11.16416 7.5625 11.0625 C 7.6750202 11.0161 7.8034133 11 7.9375 11 z M 24.5 17 C 24.786937 17 25 17.213063 25 17.5 L 25 17.53125 C 25 17.53125 25.02704 18.665474 24.4375 19.78125 C 23.935926 20.730546 23.086001 21.646869 21.125 21.90625 C 21.126396 21.874949 21.123582 21.843602 21.125 21.8125 C 22.32223 21.430546 23.124541 20.497278 23.5 19.65625 C 23.983695 18.572773 24 17.53125 24 17.53125 L 24 17.5 C 24 17.213063 24.213063 17 24.5 17 z" overflow="visible" font-family="Sans" fill="#000000"/></svg>
