<?xml version="1.0" encoding="utf-8"?>
<svg xmlns="http://www.w3.org/2000/svg" viewBox="0 0 32 32" fill="#000000"><path style="text-indent:0;text-align:start;line-height:normal;text-transform:none;block-progression:tb;-inkscape-font-specification:Sans" d="M 16 3 C 13.972866 3 12.137993 3.2646989 10.6875 3.84375 C 9.9622535 4.1332756 9.3048245 4.511747 8.8125 5.03125 C 8.3201755 5.550753 8 6.2444973 8 7 L 8 16 C 8 16.740074 8.2138624 17.670279 8.5 18.90625 C 8.7861376 20.142221 9.1543303 21.581497 9.53125 22.96875 C 10.285089 25.743256 11.03125 28.28125 11.03125 28.28125 L 11.25 29 L 12 29 L 20 29 L 20.75 29 L 20.96875 28.28125 C 20.96875 28.28125 21.714911 25.743256 22.46875 22.96875 C 22.84567 21.581497 23.213862 20.142221 23.5 18.90625 C 23.786138 17.670279 24 16.740074 24 16 L 24 7 C 24 6.2444973 23.679824 5.550753 23.1875 5.03125 C 22.695176 4.511747 22.037747 4.1332756 21.3125 3.84375 C 19.862007 3.2646989 18.027134 3 16 3 z M 16 5 C 17.847866 5 19.512993 5.2560511 20.59375 5.6875 C 21.134128 5.9032244 21.504043 6.1796905 21.71875 6.40625 C 21.933457 6.6328095 22 6.7765027 22 7 L 22 12.03125 C 21.001233 12.050083 20.059139 12.056716 19.1875 12.125 C 18.787973 11.796517 18.332829 11.537869 17.84375 11.34375 C 18.541825 10.79229 19 9.9495094 19 9 C 19 7.3549901 17.645009 6 16 6 C 14.354991 6 13 7.3549901 13 9 C 13 9.9567668 13.449052 10.82398 14.15625 11.375 C 13.087869 11.804439 12.214193 12.597346 11.65625 13.59375 C 10.990846 13.826482 10.461202 14.058007 10 14.28125 L 10 7 C 10 6.7765027 10.066543 6.6328095 10.28125 6.40625 C 10.495957 6.1796905 10.865872 5.9032244 11.40625 5.6875 C 12.487007 5.2560511 14.152134 5 16 5 z M 16 8 C 16.564129 8 17 8.4358709 17 9 C 17 9.5641283 16.564128 10 16 10 C 15.435872 10 15 9.5641283 15 9 C 15 8.4358709 15.435871 8 16 8 z M 21 14.03125 C 20.155857 15.13029 18.99396 16.545116 17.875 17.5 C 16.310571 16.229762 14.623627 15.548511 13.125 15.21875 C 14.911524 14.682328 17.440521 14.171654 21 14.03125 z M 21.96875 16.1875 C 21.938303 16.536046 21.809153 17.403331 21.5625 18.46875 C 21.286138 19.662497 20.90433 21.095628 20.53125 22.46875 C 19.887745 24.83717 19.415118 26.4411 19.25 27 L 12.75 27 C 12.584882 26.4411 12.112255 24.83717 11.46875 22.46875 C 11.09567 21.095628 10.713862 19.662497 10.4375 18.46875 C 10.299319 17.871876 10.19983 17.315666 10.125 16.875 C 11.655237 16.809829 14.785711 17.035056 17.28125 19.53125 L 17.90625 20.125 L 18.59375 19.625 C 19.852474 18.721486 21.03388 17.383795 21.96875 16.1875 z" overflow="visible" font-family="Sans" fill="#000000"/></svg>
