<?xml version="1.0" encoding="utf-8"?>
<svg xmlns="http://www.w3.org/2000/svg" viewBox="0 0 32 32" fill="#000000"><path style="text-indent:0;text-align:start;line-height:normal;text-transform:none;block-progression:tb;-inkscape-font-specification:Sans" d="M 11 3 L 11 4 L 11 6.28125 L 8.6875 7.0625 C 8.6225086 7.0783746 8.469854 7.1099285 8.1875 7.21875 L 8 7.28125 L 8 7.3125 C 7.1426819 7.679603 5.7957123 8.473712 5.09375 10.09375 C 4.8597408 10.633081 4.7742882 11.163415 4.65625 11.9375 C 4.5382118 12.711585 4.441921 13.649855 4.34375 14.53125 C 4.147408 16.294041 4 17.90625 4 17.90625 L 4 17.96875 L 4 18 L 4 28 L 4 29 L 5 29 L 9 29 L 10 29 L 10 28 L 10 27 L 22 27 L 22 28 L 22 29 L 23 29 L 27 29 L 28 29 L 28 28 L 28 18 L 28 17.96875 L 28 17.90625 C 28 17.90625 27.852111 16.294502 27.65625 14.53125 C 27.55832 13.649624 27.462031 12.711816 27.34375 11.9375 C 27.225469 11.163184 27.144181 10.636147 26.90625 10.09375 C 26.209024 8.5052336 24.831883 7.6590082 24 7.28125 L 23.71875 7.1875 C 23.462328 7.0837783 23.3125 7.03125 23.3125 7.03125 L 23.3125 7.0625 L 21 6.28125 L 21 4 L 21 3 L 20 3 L 12 3 L 11 3 z M 13.71875 5 L 18.28125 5 L 16 8.96875 L 13.71875 5 z M 12.96875 7.71875 L 15.125 11.5 L 16 13 L 16.875 11.5 L 19.03125 7.71875 L 19.6875 7.9375 L 22 8.71875 L 22 25 L 10 25 L 10 8.71875 L 12.3125 7.9375 L 12.96875 7.71875 z M 8 9.59375 L 8 26 L 8 27 L 6 27 L 6 18.09375 L 6 18 C 6.00742 17.9141 6.1249538 16.43382 6.3125 14.75 C 6.408954 13.88402 6.5452569 12.977884 6.65625 12.25 C 6.7672431 11.522116 6.9187592 10.877419 6.90625 10.90625 C 7.1622983 10.315324 7.5929051 9.8931737 8 9.59375 z M 24 9.6875 C 24.439122 9.9994537 24.868716 10.393547 25.09375 10.90625 C 25.07932 10.87335 25.232625 11.522534 25.34375 12.25 C 25.454875 12.977466 25.591305 13.884001 25.6875 14.75 C 25.874542 16.433858 25.992631 17.914081 26 18 C 26.000211 18.0025 26 18.09375 26 18.09375 L 26 27 L 24 27 L 24 26 L 24 9.6875 z M 16.96875 14 C 16.96875 14 16.201731 14.599088 15.8125 15.78125 C 15.458685 16.855847 15.405585 18.434373 16.28125 20.5625 C 15.028403 19.2582 14.890621 17.076255 14.9375 16.1875 C 14.8425 16.1875 14.372 16.00425 13.75 16.53125 C 12.316 17.72825 12.634 21.324 17.75 23 C 17.415 21.995 19.48025 19.846 18.90625 17.5 C 18.578356 16.043114 17.440125 15.902423 16.75 16.09375 C 17.053519 15.171912 17.53125 14.8125 17.53125 14.8125 L 16.96875 14 z" overflow="visible" font-family="Sans" fill="#000000"/></svg>
