<?xml version="1.0" encoding="utf-8"?>
<svg xmlns="http://www.w3.org/2000/svg" viewBox="0 0 32 32" fill="#000000"><path style="text-indent:0;text-align:start;line-height:normal;text-transform:none;block-progression:tb;-inkscape-font-specification:Bitstream Vera Sans" d="M 21.75 4 C 20.146496 4 18.530099 4.6261509 17.3125 5.84375 L 9.65625 13.46875 L 9.53125 13.625 C 8.5549429 14.601307 8 15.932627 8 17.3125 L 8 19.625 L 4.90625 22.6875 L 4.875 22.75 C 3.723563 23.957878 3.7203365 25.907836 4.90625 27.09375 C 6.1096561 28.297156 8.1090939 28.297156 9.3125 27.09375 L 12.375 24 L 14.6875 24 C 16.067373 24 17.398693 23.445057 18.375 22.46875 L 26.15625 14.6875 C 28.591448 12.252302 28.591448 8.2789482 26.15625 5.84375 C 24.938651 4.6261509 23.353504 4 21.75 4 z M 21.75 6 C 22.837496 6 23.914599 6.4145991 24.75 7.25 C 26.420802 8.9208018 26.420802 11.610448 24.75 13.28125 L 16.96875 21.0625 C 16.367057 21.664193 15.537627 22 14.6875 22 L 11.96875 22 L 11.5625 22 L 11.28125 22.28125 L 7.875 25.6875 C 7.4364061 26.126094 6.7510939 26.126094 6.3125 25.6875 C 5.8739061 25.248906 5.8739061 24.563594 6.3125 24.125 L 9.71875 20.71875 L 10 20.4375 L 10 20.03125 L 10 17.3125 C 10 16.462373 10.335807 15.632943 10.9375 15.03125 L 11.78125 14.1875 L 12.78125 15.21875 L 14.21875 13.78125 L 13.21875 12.78125 L 14.78125 11.21875 L 15.78125 12.21875 L 17.21875 10.78125 L 16.21875 9.78125 L 17.78125 8.21875 L 18.78125 9.21875 L 20.21875 7.78125 L 19.25 6.8125 C 19.999962 6.2701545 20.873139 6 21.75 6 z M 22.28125 8.28125 L 10.0625 20.5 L 11.5 21.9375 L 23.71875 9.71875 L 22.28125 8.28125 z" overflow="visible" font-family="Bitstream Vera Sans" fill="#000000"/></svg>
