<?xml version="1.0" encoding="utf-8"?>
<svg xmlns="http://www.w3.org/2000/svg" viewBox="0 0 32 32" fill="#000000"><path style="text-indent:0;text-align:start;line-height:normal;text-transform:none;block-progression:tb;-inkscape-font-specification:Bitstream Vera Sans" d="M 13.3125 4 C 13.066178 4.0171057 12.390077 4.4491282 11.84375 5.125 C 10.78685 5.4241767 10.056468 6.2806751 9.65625 7.09375 C 9.1636737 8.0944576 9 9.0312978 9 9.6875 C 9 10.20459 9.1191326 10.694958 9.3125 11.15625 C 8.8221328 10.48157 7.9917431 10 7.0625 10 C 6.9556257 10 6.8534882 10.02023 6.75 10.03125 C 6.6132435 9.4661363 6.4694212 8.98962 6.3125 9 C 6.0136083 9.0207564 5.5432607 9.6551121 5.28125 10.59375 C 5.0664276 10.751654 4.8732341 10.92914 4.71875 11.125 C 4.2166767 11.761544 4 12.518267 4 13.25 C 4 14.159855 4.2772015 15.014456 4.78125 15.71875 C 5.2852985 16.423044 6.0904546 17 7.0625 17 C 7.8918687 17 8.7032965 16.649126 9.21875 16.03125 C 9.7342035 15.413374 9.9627109 14.628699 10 13.75 C 10.027155 13.110102 9.9433536 12.47675 9.71875 11.90625 C 10.171012 12.509432 10.890852 13 11.75 13 C 12.510543 13 13.275799 12.732234 13.90625 12.1875 C 14.025676 12.084311 14.144583 11.969371 14.25 11.84375 C 14.338803 12.140003 14.431408 12.419498 14.59375 12.6875 C 15.065208 13.465807 16.001419 14 17 14 C 17.725527 14 18.476017 13.66552 19.03125 13.03125 C 19.132364 14.619729 20.293563 16 21.875 16 C 22.147724 16 22.412941 15.953099 22.65625 15.875 C 22.248145 16.560516 22 17.302036 22 18.03125 C 22 19.631631 23.198438 21 24.71875 21 C 25.714533 21 26.542721 20.497749 27.09375 19.84375 C 27.644779 19.189751 27.966718 18.389006 28 17.5625 C 28.028965 16.841995 27.940249 16.098541 27.625 15.40625 C 27.489091 15.107792 27.276155 14.810068 27 14.5625 C 26.941889 13.579498 26.617507 13.021181 26.3125 13 C 26.157604 12.989754 25.784817 13.44543 25.46875 14 C 25.119683 14.017032 24.801258 14.102907 24.5 14.21875 C 24.791656 13.671323 24.975335 13.049023 25 12.40625 C 25.030458 11.596321 24.883427 10.799751 24.40625 10.125 C 24.295173 9.9679322 24.14922 9.8173907 24 9.6875 C 23.962213 8.626335 23.630169 8.0220603 23.3125 8 C 23.154126 7.9895239 22.757694 8.4588039 22.4375 9.03125 C 22.333722 9.0200611 22.231079 9 22.125 9 C 21.283708 9 20.536028 9.3501432 20 9.90625 C 20.012102 9.119057 19.845368 8.3233788 19.5 7.59375 C 19.372259 7.3238826 19.180894 7.0584405 18.96875 6.8125 C 18.910195 5.6677425 18.502526 5 18.3125 5 C 18.157604 4.989754 17.784817 5.4451413 17.46875 6 C 17.436503 5.9984347 17.407942 6 17.375 6 C 16.311909 6 15.503675 6.6288902 14.9375 7.375 C 14.900783 7.4233863 14.87878 7.4814288 14.84375 7.53125 C 14.78955 7.2331233 14.71405 6.9504186 14.625 6.6875 C 14.482666 6.2672613 14.296166 5.8909829 13.96875 5.5625 C 13.851988 5.4453572 13.71863 5.3367861 13.5625 5.25 C 13.569549 4.5702567 13.469516 3.9896137 13.3125 4 z M 12.5625 7.03125 C 12.59511 7.07457 12.6532 7.1501989 12.71875 7.34375 C 12.876083 7.8082726 13 8.6660551 13 9.75 C 13 10.201314 12.838549 10.444734 12.59375 10.65625 C 12.348951 10.867766 11.994457 11 11.75 11 C 11.618893 11 11.484064 10.923565 11.3125 10.6875 C 11.140936 10.451435 11 10.063034 11 9.6875 C 11 9.4997022 11.122576 8.6085424 11.4375 7.96875 C 11.737482 7.3593127 12.054174 7.0616233 12.5625 7.03125 z M 17.375 8 C 17.3685 8 17.527008 8.032424 17.71875 8.4375 C 17.910492 8.8425763 18.01884 9.4848098 18 9.96875 A 1.0001 1.0001 0 0 0 18 10 C 18 10.92945 17.764982 11.434314 17.5625 11.6875 C 17.360018 11.940686 17.191287 12 17 12 C 16.537581 12 16.473292 11.921693 16.3125 11.65625 C 16.151708 11.390807 16 10.814966 16 10 C 16 9.5976961 16.217175 9.0076402 16.53125 8.59375 C 16.845325 8.1798598 17.183091 8 17.375 8 z M 22.125 11 C 22.524942 11 22.646177 11.09025 22.78125 11.28125 C 22.916323 11.472249 23.018542 11.850679 23 12.34375 C 22.98409 12.758225 22.784433 13.240721 22.53125 13.5625 C 22.278067 13.884279 22.013813 14 21.875 14 C 21.361111 14 21 13.63745 21 12.8125 C 21 12.088104 21.168458 11.589823 21.34375 11.34375 C 21.519042 11.097677 21.647979 11 22.125 11 z M 7.0625 12 C 7.4034818 12 7.5437565 12.08103 7.71875 12.34375 C 7.8937435 12.606474 8.0238691 13.093786 8 13.65625 C 7.9752891 14.238551 7.8275465 14.582126 7.6875 14.75 C 7.5474535 14.917874 7.4191313 15 7.0625 15 C 6.8475454 15 6.6359515 14.883456 6.40625 14.5625 C 6.1765485 14.241544 6 13.745145 6 13.25 C 6 12.971733 6.1275733 12.609456 6.3125 12.375 C 6.4974267 12.140544 6.675597 12 7.0625 12 z M 14.375 15 C 12.379228 15 11.131824 16.028883 10.46875 16.875 C 10.137213 17.298059 9.9160839 17.6687 9.75 17.84375 C 9.5839161 18.0188 9.6007515 18 9.5 18 C 7.026562 18 5 20.026562 5 22.5 C 5 24.973438 7.026562 27 9.5 27 C 10.274194 27 11.369872 26.93694 12.40625 26.90625 C 13.442628 26.87556 14.467919 26.89915 14.78125 26.96875 C 15.065426 27.03207 15.98307 27.29546 16.96875 27.53125 C 17.95443 27.76704 19.032167 28 20 28 C 22.197334 28 24 26.197334 24 24 C 24 21.802666 22.197334 20 20 20 C 19.793038 20 19.848255 20.03787 19.65625 19.71875 C 19.464245 19.399628 19.241419 18.775488 18.9375 18.09375 C 18.633581 17.412012 18.209414 16.61856 17.46875 16 C 16.728086 15.38144 15.689366 15 14.375 15 z M 25.625 16 C 25.70313 16 25.689 15.94754 25.8125 16.21875 C 25.936001 16.489959 26.019035 16.995255 26 17.46875 C 25.98528 17.834244 25.834721 18.276499 25.59375 18.5625 C 25.352779 18.848501 25.086967 19 24.71875 19 C 24.385062 19 24 18.726869 24 18.03125 C 24 17.673789 24.186812 17.074558 24.5 16.65625 C 24.813188 16.237942 25.156186 16 25.625 16 z M 14.375 17 C 15.320634 17 15.805601 17.24356 16.1875 17.5625 C 16.569399 17.88144 16.840419 18.337988 17.09375 18.90625 C 17.347081 19.474512 17.565443 20.100372 17.9375 20.71875 C 18.309557 21.337128 19.063962 22 20 22 C 21.116666 22 22 22.883334 22 24 C 22 25.116666 21.116666 26 20 26 C 19.380833 26 18.36432 25.81546 17.4375 25.59375 C 16.51068 25.37204 15.697574 25.137934 15.21875 25.03125 C 14.407081 24.850879 13.418122 24.874437 12.34375 24.90625 C 11.269378 24.938063 10.157806 25 9.5 25 C 8.107438 25 7 23.892562 7 22.5 C 7 21.107438 8.107438 20 9.5 20 C 10.214248 20 10.819896 19.6062 11.1875 19.21875 C 11.555104 18.8313 11.806287 18.451941 12.0625 18.125 C 12.574926 17.471117 12.966772 17 14.375 17 z" overflow="visible" font-family="Bitstream Vera Sans" fill="#000000"/></svg>
