<?xml version="1.0" encoding="utf-8"?>
<svg xmlns="http://www.w3.org/2000/svg" viewBox="0 0 32 32" fill="#000000"><path style="text-indent:0;text-align:start;line-height:normal;text-transform:none;block-progression:tb;-inkscape-font-specification:Sans" d="M 10.21875 3 C 7.9136194 3 5.9425746 4.6968651 5.59375 6.96875 C 5.59012 6.99238 5.565776 7.007496 5.5625 7.03125 L 5.59375 7.03125 L 3.03125 19.8125 L 3 20 L 2.90625 20.34375 L 3 20.4375 L 3 22 L 3 22.5 L 3.40625 22.8125 C 3.40625 22.8125 4.3417241 23.460708 6 24.15625 L 6 25.15625 C 6 26.114055 6.6629209 26.955743 7.59375 27.1875 L 9.40625 27.625 C 10.666893 27.941069 11.890621 26.996763 11.96875 25.71875 C 12.302935 25.76371 12.647056 25.809178 13 25.84375 L 13 26.90625 C 13 28.05482 13.946388 29 15.09375 29 L 16.90625 29 C 18.053724 29 19 28.053724 19 26.90625 L 19 25.84375 C 19.353086 25.809038 19.696978 25.763746 20.03125 25.71875 C 20.109379 26.996763 21.333107 27.941069 22.59375 27.625 L 24.40625 27.1875 C 25.337079 26.955743 26 26.114055 26 25.15625 L 26 24.15625 C 27.657157 23.460728 28.59375 22.8125 28.59375 22.8125 L 29 22.5 L 29 22 L 29 20 L 29 19.90625 L 28.96875 19.8125 L 26.40625 7.03125 L 26.4375 7.03125 C 26.434212 7.007504 26.40989 6.992373 26.40625 6.96875 C 26.056314 4.6975691 24.087105 3 21.78125 3 L 10.21875 3 z M 10.21875 5 L 21.78125 5 C 23.127411 5 24.252897 5.979258 24.4375 7.3125 L 24.4375 7.34375 L 24.46875 7.375 L 26.90625 19.5 C 26.668169 19.646156 26.411297 19.806358 25.9375 20.03125 C 25.727295 18.879833 24.585521 18.079332 23.40625 18.375 L 21.59375 18.8125 C 20.665666 19.045468 20 19.885945 20 20.84375 L 20 21.71875 C 19.667763 21.766745 19.323865 21.806982 18.96875 21.84375 C 18.837999 20.816918 17.965029 20 16.90625 20 L 15.09375 20 C 14.033856 20 13.161849 20.817708 13.03125 21.84375 C 12.676304 21.806898 12.332351 21.766729 12 21.71875 L 12 20.84375 C 12 19.885945 11.335576 19.04578 10.40625 18.8125 L 8.59375 18.375 C 7.4146887 18.081084 6.2727389 18.880116 6.0625 20.03125 C 5.5831194 19.801011 5.3410446 19.65045 5.09375 19.5 L 7.53125 7.375 L 7.5625 7.34375 L 7.5625 7.3125 C 7.7462695 5.9799882 8.8738567 5 10.21875 5 z M 8.03125 20.3125 C 8.0517155 20.297428 8.081862 20.301747 8.125 20.3125 L 9.9375 20.75 C 9.9881745 20.76272 10 20.791555 10 20.84375 L 10 25.59375 C 10 25.68218 9.961045 25.709073 9.875 25.6875 L 8.0625 25.25 C 8.0133291 25.237757 8 25.208445 8 25.15625 L 8 20.40625 C 8 20.362035 8.0107845 20.327572 8.03125 20.3125 z M 23.875 20.3125 C 23.96104 20.29093 24 20.3178 24 20.40625 L 24 25.15625 C 24 25.20845 23.98667 25.23776 23.9375 25.25 L 22.125 25.6875 C 22.038955 25.709073 22 25.682177 22 25.59375 L 22 20.84375 C 22 20.79155 22.01058 20.76303 22.0625 20.75 L 23.875 20.3125 z M 15.09375 22 L 16.90625 22 C 16.972888 22 17 22.02632 17 22.09375 L 17 26.90625 C 17 26.974776 16.974776 27 16.90625 27 L 15.09375 27 C 15.027112 27 15 26.97368 15 26.90625 L 15 22.09375 C 15 22.027112 15.02632 22 15.09375 22 z" overflow="visible" font-family="Sans" fill="#000000"/></svg>
