<?xml version="1.0" encoding="utf-8"?>
<svg xmlns="http://www.w3.org/2000/svg" viewBox="0 0 32 32" fill="#000000"><path style="text-indent:0;text-align:start;line-height:normal;text-transform:none;block-progression:tb;-inkscape-font-specification:Bitstream Vera Sans" d="M 7 5 L 7 6 L 7 12.25 C 5.652711 12.554486 4.4165356 13.13263 3.375 13.96875 L 4.625 15.53125 C 5.8233387 14.569253 7.3383788 14 9 14 C 12.877484 14 16 17.122516 16 21 L 18 21 L 20.5625 21 C 20.214051 21.592593 20 22.267569 20 23 C 20 25.197294 21.802706 27 24 27 C 26.197294 27 28 25.197294 28 23 C 28 21.972133 27.582315 21.054785 26.9375 20.34375 L 28.9375 15.375 L 29 15.1875 L 29 15 L 29 14 L 29 13 L 28 13 L 24 13 L 24 10 C 24 9.4349698 24.43497 9 25 9 L 25 7 C 23.35503 7 22 8.3550302 22 10 L 22 13 L 18.6875 13 L 15.9375 5.65625 L 15.6875 5 L 15 5 L 8 5 L 7 5 z M 9 7 L 14.3125 7 L 17.0625 14.34375 L 17.3125 15 L 18 15 L 26.90625 15 L 25.3125 19 L 17.75 19 C 16.8339 15.003161 13.268594 12 9 12 L 9 7 z M 9 15 C 5.6981362 15 3 17.698136 3 21 C 3 24.301864 5.6981362 27 9 27 C 12.301864 27 15 24.301864 15 21 C 15 17.698136 12.301864 15 9 15 z M 9 17 C 11.220984 17 13 18.779016 13 21 C 13 23.220984 11.220984 25 9 25 C 6.7790164 25 5 23.220984 5 21 C 5 18.779016 6.7790164 17 9 17 z M 9 19 C 7.8954305 19 7 19.895431 7 21 C 7 22.104569 7.8954305 23 9 23 C 10.104569 23 11 22.104569 11 21 C 11 19.895431 10.104569 19 9 19 z M 24 21 C 25.116414 21 26 21.883586 26 23 C 26 24.116414 25.116414 25 24 25 C 22.883586 25 22 24.116414 22 23 C 22 21.883586 22.883586 21 24 21 z" overflow="visible" font-family="Bitstream Vera Sans" fill="#000000"/></svg>
