<?xml version="1.0" encoding="utf-8"?>
<svg xmlns="http://www.w3.org/2000/svg" viewBox="0 0 32 32" fill="#000000"><path style="text-indent:0;text-align:start;line-height:normal;text-transform:none;block-progression:tb;-inkscape-font-specification:Sans" d="M 8 3.0625 L 7.28125 3.75 L 3.96875 7.0625 L 5.40625 8.46875 L 7 6.90625 L 7 12 L 9 12 L 9 6.90625 L 10.59375 8.46875 L 12.03125 7.0625 L 8.71875 3.75 L 8 3.0625 z M 8 13 C 5.2504209 13 3 15.250421 3 18 C 3 19.476208 3.6611679 20.801318 4.6875 21.71875 C 1.9310726 22.984091 0 25.777369 0 29 L 2 29 C 2 25.674438 4.674438 23 8 23 C 11.325562 23 14 25.674438 14 29 L 16 29 C 16 27.622988 15.648258 26.320887 15.03125 25.1875 L 15.09375 25.1875 C 15.463608 23.364573 17.054474 22 19 22 C 21.220375 22 23 23.779625 23 26 L 25 26 C 25 24.91155 24.70301 23.881538 24.1875 23 C 24.599708 21.840949 25.687048 21 27 21 C 28.668484 21 30 22.331516 30 24 L 32 24 C 32 22.165255 30.983794 20.557398 29.5 19.6875 C 29.82493 19.20835 30 18.616879 30 18 C 30 16.35499 28.64501 15 27 15 C 25.35499 15 24 16.35499 24 18 C 24 18.616879 24.17507 19.20835 24.5 19.6875 C 23.791855 20.098175 23.216145 20.68583 22.78125 21.375 C 22.49818 21.14327 22.196443 20.92808 21.875 20.75 C 21.93078 20.69177 21.979011 20.623977 22.03125 20.5625 C 22.126254 20.45125 22.229641 20.339549 22.3125 20.21875 C 22.46783 19.989481 22.58179 19.759266 22.6875 19.5 C 22.781151 19.277187 22.854842 19.053438 22.90625 18.8125 C 22.959834 18.552919 23 18.274662 23 18 C 23 15.802706 21.197294 14 19 14 C 17.077368 14 15.46884 15.370435 15.09375 17.1875 C 15.040166 17.447081 15 17.725338 15 18 C 15 18.268652 15.039854 18.529404 15.09375 18.78125 C 15.09571 18.791128 15.091716 18.802647 15.09375 18.8125 C 15.147425 19.053612 15.215587 19.277697 15.3125 19.5 C 15.507788 19.978968 15.801544 20.383339 16.15625 20.75 C 15.081589 21.338193 14.211416 22.24983 13.65625 23.34375 C 12.985719 22.673219 12.184439 22.119014 11.3125 21.71875 C 12.338832 20.801318 13 19.476208 13 18 C 13 15.250421 10.749579 13 8 13 z M 8 15 C 9.6686989 15 11 16.331301 11 18 C 11 19.668699 9.6686989 21 8 21 C 6.3313011 21 5 19.668699 5 18 C 5 16.331301 6.3313011 15 8 15 z M 19 16 C 20.116414 16 21 16.883586 21 18 C 21 19.116414 20.116414 20 19 20 C 18.162689 20 17.45709 19.500746 17.15625 18.78125 C 17.10611 18.661334 17.057591 18.537255 17.03125 18.40625 C 17.004909 18.275245 17 18.139552 17 18 C 17 17.860448 17.004909 17.724755 17.03125 17.59375 C 17.215637 16.676716 18.023138 16 19 16 z M 27 17 C 27.564128 17 28 17.435872 28 18 C 28 18.564128 27.564128 19 27 19 C 26.435872 19 26 18.564128 26 18 C 26 17.435872 26.435872 17 27 17 z" fill="#000000"/></svg>
