<?xml version="1.0" encoding="utf-8"?>
<svg xmlns="http://www.w3.org/2000/svg" viewBox="0 0 32 32" fill="#000000"><path d="M 2 4 L 2 6 C 5.0643162 6 6.6049164 6.8107267 7.3671875 7.4785156 C 5.0525294 10.272418 5.4315065 13.682158 7.5722656 17.046875 L 12.470703 24.509766 L 14.451172 18.685547 L 21.003906 19.994141 L 19.693359 13.443359 L 25.574219 11.404297 L 18.054688 6.5625 C 16.263687 5.4225 14.457281 4.78125 12.738281 4.78125 C 11.351255 4.78125 10.025006 5.2083191 8.8046875 6.1171875 C 7.7330039 5.1124268 5.7366409 4 2 4 z M 12.738281 6.78125 C 14.022281 6.78125 15.449656 7.2751406 16.972656 8.2441406 L 21.035156 10.861328 L 19.039062 11.552734 L 17.390625 12.123047 L 17.732422 13.835938 L 18.453125 17.445312 L 14.84375 16.722656 L 13.123047 16.378906 L 12.558594 18.041016 L 11.896484 19.988281 L 9.2597656 15.974609 C 7.2947656 12.887609 7.3144531 10.307641 9.3144531 8.3066406 C 10.340453 7.2816406 11.459281 6.78125 12.738281 6.78125 z M 23 16 L 23 18 L 25 18 L 25 16 L 23 16 z M 28 16 L 28 18 L 30 18 L 30 16 L 28 16 z M 17 22 L 17 24 L 19 24 L 19 22 L 17 22 z M 23 22 L 23 24 L 25 24 L 25 22 L 23 22 z M 17 27 L 17 29 L 19 29 L 19 27 L 17 27 z" fill="#000000"/></svg>
