<?xml version="1.0" encoding="utf-8"?>
<svg xmlns="http://www.w3.org/2000/svg" viewBox="0 0 32 32" fill="#000000"><path style="text-indent:0;text-align:start;line-height:normal;text-transform:none;block-progression:tb;-inkscape-font-specification:Bitstream Vera Sans" d="M 16 4 C 14.078848 4 12.5 5.5788481 12.5 7.5 C 12.5 9.4211519 14.078848 11 16 11 C 17.921152 11 19.5 9.4211519 19.5 7.5 C 19.5 5.5788481 17.921152 4 16 4 z M 16 11 L 15.15625 11 C 13.438037 11 11.917813 12.120231 11.375 13.75 L 9.0625 20.6875 L 10.9375 21.3125 L 13 15.21875 L 13 28 L 15 28 L 15 21 L 16 21 L 17 21 L 17 23 L 19 23 L 19 15.21875 L 21.0625 21.3125 L 22.9375 20.6875 L 20.625 13.75 C 20.082032 12.119767 18.561293 11 16.84375 11 L 16 11 z M 16 6 C 16.840272 6 17.5 6.6597281 17.5 7.5 C 17.5 8.3402719 16.840272 9 16 9 C 15.159728 9 14.5 8.3402719 14.5 7.5 C 14.5 6.6597281 15.159728 6 16 6 z M 15 13 C 15.052503 12.99582 15.102674 13 15.15625 13 L 16 13 L 16.84375 13 C 16.897244 13 16.947559 12.995817 17 13 L 17 19 L 16 19 L 15 19 L 15 13 z" overflow="visible" font-family="Bitstream Vera Sans" fill="#000000"/></svg>
