<?xml version="1.0" encoding="utf-8"?>
<svg xmlns="http://www.w3.org/2000/svg" viewBox="0 0 32 32" fill="#000000"><path style="text-indent:0;text-align:start;line-height:normal;text-transform:none;block-progression:tb;-inkscape-font-specification:Sans" d="M 12.5625 2.8125 L 11.75 3.03125 L 7.75 4.03125 L 6.71875 4.28125 L 7.0625 5.3125 C 7.0625 5.3125 8 8.3193453 8 10 C 8 11.245551 7.6600552 11.618593 7.40625 11.8125 C 7.1524448 12.006407 6.96875 12 6.96875 12 L 5.875 12.03125 L 6 13.125 L 7 21 C 6.8689674 21.42374 6 24.219552 6 28 L 6 29 L 7 29 L 16 29 L 25 29 L 26 29 L 26 28 C 26 24.219552 25.131033 21.42374 25 21 L 26 13.125 L 26.125 12.03125 L 25.03125 12 C 25.03125 12 24.847555 12.0064 24.59375 11.8125 C 24.339945 11.618593 24 11.245551 24 10 C 24 8.3193453 24.9375 5.3125 24.9375 5.3125 L 25.28125 4.28125 L 24.25 4.03125 L 20.25 3.03125 L 19.4375 2.8125 L 19.09375 3.59375 C 18.747304 4.3749166 17.557231 5 16 5 C 14.442769 5 13.252696 4.3749166 12.90625 3.59375 L 12.5625 2.8125 z M 11.59375 5.125 C 12.569318 6.3883399 14.244902 7 16 7 C 17.755098 7 19.430682 6.3883399 20.40625 5.125 L 22.75 5.71875 C 22.442535 6.7280192 22 8.3358804 22 10 C 22 11.698449 22.660055 12.836157 23.40625 13.40625 C 23.644636 13.588377 23.680148 13.50511 23.90625 13.59375 L 23 20.875 L 22.96875 21.09375 L 23.0625 21.3125 C 23.0625 21.3125 23.74594 23.825784 23.90625 27 L 17 27 L 17 24 L 15 24 L 15 27 L 8.09375 27 C 8.2540603 23.825784 8.9375 21.3125 8.9375 21.3125 L 9.03125 21.09375 L 9 20.875 L 8.09375 13.59375 C 8.3198521 13.50511 8.3553641 13.58835 8.59375 13.40625 C 9.3399448 12.836157 10 11.698449 10 10 C 10 8.3358804 9.5574648 6.7280192 9.25 5.71875 L 11.59375 5.125 z M 15 8 L 15 11 L 17 11 L 17 8 L 15 8 z M 15 12 L 15 15 L 17 15 L 17 12 L 15 12 z M 15 16 L 15 19 L 17 19 L 17 16 L 15 16 z M 15 20 L 15 23 L 17 23 L 17 20 L 15 20 z" fill="#000000"/></svg>
