<?xml version="1.0" encoding="utf-8"?>
<svg xmlns="http://www.w3.org/2000/svg" viewBox="0 0 32 32" fill="#000000"><path style="text-indent:0;text-align:start;line-height:normal;text-transform:none;block-progression:tb;-inkscape-font-specification:Sans" d="M 9.65625 3 C 9.4641419 3.0018346 9.2579665 3.0054071 9.0625 3.03125 C 6.5679962 3.3652304 4.8180024 4.7081094 3.90625 6.46875 C 2.9944976 8.2293906 2.8420902 10.318938 3.125 12.375 C 3.532173 15.365506 4.3456929 16.388218 4.8125 19.78125 C 4.8238163 19.874949 4.8595736 20.017683 4.875 20.125 C 5.0829156 21.571409 5.6095052 24.080476 5.625 24.15625 L 5.59375 24.15625 C 5.5963 24.17507 5.622334 24.19957 5.625 24.21875 C 5.745705 25.086948 5.9829527 26.287577 6.78125 27.34375 C 7.5971794 28.42325 9.1113732 29.200309 11.09375 28.9375 C 12.863129 28.704331 14.008701 27.524698 14.5 26.25 C 14.991299 24.975302 15 23.597835 15 22.53125 C 15 22.53125 14.97375 15.504933 14.96875 8.96875 C 14.963312 5.5740454 12.537872 2.9724812 9.65625 3 z M 22.34375 3 C 19.461694 2.9715077 17.035574 5.5737114 17.03125 8.96875 C 17.026252 15.504933 17 22.53125 17 22.53125 C 17 23.597835 17.0087 24.975508 17.5 26.25 C 17.991337 27.524492 19.136984 28.704346 20.90625 28.9375 C 22.888627 29.200309 24.402821 28.42325 25.21875 27.34375 C 26.017047 26.287577 26.254295 25.086948 26.375 24.21875 C 26.3777 24.19957 26.4037 24.17507 26.40625 24.15625 L 26.375 24.15625 C 26.39167 24.07487 27.024534 21.139664 27.1875 19.78125 C 27.655307 16.387964 28.467858 15.365278 28.875 12.375 C 29.157921 10.319392 29.005539 8.2291671 28.09375 6.46875 C 27.181961 4.7083329 25.432046 3.3646766 22.9375 3.03125 C 22.742006 3.0053252 22.535887 3.0018995 22.34375 3 z M 9.3125 5.03125 C 9.323007 5.02986 9.333249 5.03253 9.34375 5.03125 C 11.196624 4.8060567 12.964538 6.3227634 12.96875 8.96875 C 12.969672 10.174608 12.966682 10.277321 12.96875 11.46875 C 12.167404 10.295899 11.058465 9.1391771 9.53125 8.15625 L 8.9375 7.78125 L 8.375 8.21875 C 6.7088672 9.5234037 5.8126055 11.344838 5.3125 13.15625 C 5.2461059 12.833865 5.1757896 12.498028 5.125 12.125 C 4.8809098 10.351062 5.0437524 8.6493594 5.6875 7.40625 C 6.3274163 6.1705388 7.37056 5.2997683 9.3125 5.03125 z M 21.96875 5.03125 C 22.194418 5.0061981 22.424693 5.0030172 22.65625 5.03125 C 22.66794 5.03281 22.67587 5.02965 22.6875 5.03125 C 24.629397 5.2993271 25.67262 6.1708138 26.3125 7.40625 C 26.956211 8.6490829 27.119079 10.351608 26.875 12.125 C 26.824206 12.498059 26.753866 12.833841 26.6875 13.15625 C 26.187395 11.344838 25.291133 9.5234037 23.625 8.21875 L 23.0625 7.78125 L 22.46875 8.15625 C 20.941535 9.1391771 19.832596 10.295899 19.03125 11.46875 C 19.033318 10.277321 19.030328 10.174608 19.03125 8.96875 C 19.034225 6.6538218 20.389076 5.2066135 21.96875 5.03125 z M 9.125 10.40625 C 12.062859 12.672984 12.820282 15.630514 12.96875 17.09375 L 13 17.09375 C 13.005378 18.867421 13 22.53125 13 22.53125 C 13 23.541665 12.9402 24.713448 12.625 25.53125 C 12.309799 26.349052 11.919121 26.822919 10.8125 26.96875 C 9.3778768 27.158941 8.8290706 26.757 8.375 26.15625 C 7.9209294 25.5555 7.6927709 24.60602 7.59375 23.875 L 7.59375 23.84375 L 7.5625 23.8125 C 7.5625 23.8125 6.9464009 20.639949 6.8125 19.53125 C 6.7969526 19.418242 6.7973906 19.326956 6.78125 19.21875 C 6.718658 18.338242 6.6834788 16.862415 6.90625 15.3125 C 7.1649461 13.51264 7.8764712 11.714271 9.125 10.40625 z M 22.875 10.40625 C 24.123529 11.714271 24.835054 13.51264 25.09375 15.3125 C 25.348393 17.084163 25.263055 18.69632 25.1875 19.5 C 25.185959 19.511085 25.189035 19.520117 25.1875 19.53125 C 25.054717 20.638068 24.4375 23.8125 24.4375 23.8125 L 24.40625 23.84375 L 24.40625 23.875 C 24.30723 24.60602 24.079071 25.5555 23.625 26.15625 C 23.170929 26.757 22.622123 27.158941 21.1875 26.96875 C 20.080766 26.822904 19.690163 26.348758 19.375 25.53125 C 19.059837 24.713742 19 23.541665 19 22.53125 C 19 22.53125 18.994622 18.867421 19 17.09375 L 19.03125 17.09375 C 19.179718 15.630514 19.937141 12.672984 22.875 10.40625 z" overflow="visible" font-family="Sans" fill="#000000"/></svg>
