<?xml version="1.0" encoding="utf-8"?>
<svg xmlns="http://www.w3.org/2000/svg" viewBox="0 0 32 32" fill="#000000"><path style="line-height:normal;text-indent:0;text-align:start;text-decoration-line:none;text-decoration-style:solid;text-decoration-color:#000;text-transform:none;block-progression:tb;isolation:auto;mix-blend-mode:normal" d="M 15.507812 2.09375 L 14.09375 3.5078125 L 16.617188 6.03125 C 16.411998 6.0195619 16.209357 6 16 6 C 13.607995 6 11.418615 6.8657137 9.6953125 8.28125 L 3.7070312 2.2929688 L 2.2929688 3.7070312 L 28.292969 29.707031 L 29.707031 28.292969 L 23.71875 22.304688 C 25.134835 20.580836 26 18.392005 26 16 C 26 14.5 25.699609 13.100391 25.099609 11.900391 L 23.599609 13.400391 C 23.899609 14.200391 24 15.1 24 16 C 24 17.841576 23.3599 19.534379 22.302734 20.888672 L 11.111328 9.6972656 C 12.465621 8.6400998 14.158424 8 16 8 C 16.185874 8 16.371648 8.0139974 16.556641 8.0292969 L 14.09375 10.492188 L 15.507812 11.90625 L 20.414062 7 L 15.507812 2.09375 z M 7.1601562 11.347656 C 6.4221562 12.739656 6 14.323 6 16 C 6 17.5 6.3003906 18.899609 6.9003906 20.099609 L 8.4003906 18.599609 C 8.2003906 17.799609 8 16.9 8 16 C 8 14.88 8.23525 13.81375 8.65625 12.84375 L 7.1601562 11.347656 z M 16.199219 20.386719 L 11.585938 25 L 16.492188 29.90625 L 17.90625 28.492188 L 15.380859 25.966797 C 15.586859 25.979797 15.793 26 16 26 C 17.677 26 19.260344 25.577844 20.652344 24.839844 L 19.15625 23.34375 C 18.18625 23.76475 17.12 24 16 24 C 15.814 24 15.628359 23.987656 15.443359 23.972656 L 17.613281 21.800781 L 16.199219 20.386719 z" font-weight="400" font-family="sans-serif" white-space="normal" overflow="visible" fill="#000000"/></svg>
