<?xml version="1.0" encoding="utf-8"?>
<svg xmlns="http://www.w3.org/2000/svg" viewBox="0 0 32 32" fill="#000000"><path style="text-indent:0;text-align:start;line-height:normal;text-transform:none;block-progression:tb;-inkscape-font-specification:Sans" d="M 11.5 5 L 11.1875 5.40625 L 10 7 L 4 7 L 3 7 L 3 8 L 3 24 L 3 25 L 4 25 L 14 25 L 14.0625 25 C 14.0295 24.671 14 24.338 14 24 C 14 23.662 14.0295 23.329 14.0625 23 L 14 23 L 5 23 L 5 9 L 10.5 9 L 11 9 L 11.3125 8.59375 L 12.5 7 L 19.5 7 L 20.6875 8.59375 L 21 9 L 21.5 9 L 27 9 L 27 14 L 27 14.46875 C 27.705 14.69075 28.372 14.97875 29 15.34375 L 29 13 L 29 8 L 29 7 L 28 7 L 22 7 L 20.8125 5.40625 L 20.5 5 L 20 5 L 12 5 L 11.5 5 z M 8 10 C 7.4477153 10 7 10.447715 7 11 C 7 11.552285 7.4477153 12 8 12 C 8.5522847 12 9 11.552285 9 11 C 9 10.447715 8.5522847 10 8 10 z M 16 10 C 12.691 10 10 12.691 10 16 C 10 18.706 11.81525 21.005 14.28125 21.75 C 14.43525 21.086 14.62725 20.45075 14.90625 19.84375 C 13.22725 19.36975 12 17.83 12 16 C 12 13.794 13.794 12 16 12 C 17.829 12 19.36975 13.22625 19.84375 14.90625 C 20.45075 14.62625 21.085 14.43625 21.75 14.28125 C 21.005 11.81625 18.706 10 16 10 z M 24 16 C 19.593567 16 16 19.593567 16 24 C 16 28.406433 19.593567 32 24 32 C 28.406433 32 32 28.406433 32 24 C 32 19.593567 28.406433 16 24 16 z M 24 18 C 27.325553 18 30 20.674447 30 24 C 30 27.325553 27.325553 30 24 30 C 20.674447 30 18 27.325553 18 24 C 18 20.674447 20.674447 18 24 18 z M 23 20 L 23 23 L 20 23 L 20 25 L 23 25 L 23 28 L 25 28 L 25 25 L 28 25 L 28 23 L 25 23 L 25 20 L 23 20 z" overflow="visible" font-family="Sans" fill="#000000"/></svg>
