<?xml version="1.0" encoding="utf-8"?>
<svg xmlns="http://www.w3.org/2000/svg" viewBox="0 0 32 32" fill="#000000"><path style="text-indent:0;text-align:start;line-height:normal;text-transform:none;block-progression:tb;-inkscape-font-specification:Sans" d="M 19 3 C 16.035015 3 13.568566 5.165217 13.09375 8 L 9 8 L 9 5 L 5 9 L 9 13 L 9 10 L 13.09375 10 C 13.568566 12.834783 16.035015 15 19 15 C 22.301864 15 25 12.301864 25 9 C 25 5.6981362 22.301864 3 19 3 z M 19 5 C 21.220984 5 23 6.7790164 23 9 C 23 11.220984 21.220984 13 19 13 C 16.779016 13 15 11.220984 15 9 C 15 6.7790164 16.779016 5 19 5 z M 19 17 C 16.035015 17 13.568566 19.165217 13.09375 22 L 9 22 L 9 19 L 5 23 L 9 27 L 9 24 L 13.09375 24 C 13.568566 26.834783 16.035015 29 19 29 C 22.301864 29 25 26.301864 25 23 C 25 19.698136 22.301864 17 19 17 z M 19 19 C 21.220984 19 23 20.779016 23 23 C 23 25.220984 21.220984 27 19 27 C 16.779016 27 15 25.220984 15 23 C 15 20.779016 16.779016 19 19 19 z" overflow="visible" font-family="Sans" fill="#000000"/></svg>
