<?xml version="1.0" encoding="utf-8"?>
<svg xmlns="http://www.w3.org/2000/svg" viewBox="0 0 32 32" fill="#000000"><path style="text-indent:0;text-align:start;line-height:normal;text-transform:none;block-progression:tb;-inkscape-font-specification:Bitstream Vera Sans" d="M 16 3.90625 L 15.625 4.0625 L 3.625 9.0625 L 3 9.34375 L 3 10 L 3 25 L 3 26 L 4 26 L 28 26 L 29 26 L 29 25 L 29 10 L 29 9.34375 L 28.375 9.0625 L 16.375 4.0625 L 16 3.90625 z M 16 6.09375 L 27 10.6875 L 27 24 L 5 24 L 5 10.6875 L 16 6.09375 z M 20.84375 13 C 17.11675 13 16.6795 17.357 14.6875 18 C 13.0815 18.514 12.4185 17.83125 10.8125 18.28125 C 9.2065 18.73125 8 20.96875 8 20.96875 C 8 20.96875 9.48925 19.47725 11.03125 19.15625 C 12.05925 18.96325 13.2775 19.568 14.5625 19.375 C 15.8475 19.118 16.4775 18.5165 17.3125 17.9375 C 18.1475 17.3595 18.91725 18 20.78125 18 C 22.77325 18 24 17.0435 24 15.4375 C 24 14.1525 22.83575 13 20.84375 13 z" overflow="visible" font-family="Bitstream Vera Sans" fill="#000000"/></svg>
