<?xml version="1.0" encoding="utf-8"?>
<svg xmlns="http://www.w3.org/2000/svg" viewBox="0 0 32 32" fill="#000000"><path style="text-indent:0;text-align:start;line-height:normal;text-transform:none;block-progression:tb;-inkscape-font-specification:Bitstream Vera Sans" d="M 9 5 L 9 6 L 6 6 L 5 6 L 5 7 L 5 26 L 5 27 L 6 27 L 26 27 L 27 27 L 27 26 L 27 7 L 27 6 L 26 6 L 23 6 L 23 5 L 18 5 L 18 6 L 14 6 L 14 5 L 9 5 z M 7 8 L 25 8 L 25 12 L 7 12 L 7 8 z M 10 9 C 9.4477153 9 9 9.4477153 9 10 C 9 10.552285 9.4477153 11 10 11 C 10.552285 11 11 10.552285 11 10 C 11 9.4477153 10.552285 9 10 9 z M 13 9 C 12.447715 9 12 9.4477153 12 10 C 12 10.552285 12.447715 11 13 11 C 13.552285 11 14 10.552285 14 10 C 14 9.4477153 13.552285 9 13 9 z M 16 9 C 15.447715 9 15 9.4477153 15 10 C 15 10.552285 15.447715 11 16 11 C 16.552285 11 17 10.552285 17 10 C 17 9.4477153 16.552285 9 16 9 z M 22 9 C 21.447715 9 21 9.4477153 21 10 C 21 10.552285 21.447715 11 22 11 C 22.552285 11 23 10.552285 23 10 C 23 9.4477153 22.552285 9 22 9 z M 7 14 L 25 14 L 25 25 L 7 25 L 7 14 z M 9 16 L 9 17 L 9 22 L 9 23 L 10 23 L 22 23 L 23 23 L 23 22 L 23 17 L 23 16 L 22 16 L 10 16 L 9 16 z M 11 18 L 21 18 L 21 21 L 11 21 L 11 18 z" fill="#000000"/></svg>
