<?xml version="1.0" encoding="utf-8"?>
<svg xmlns="http://www.w3.org/2000/svg" viewBox="0 0 32 32" fill="#000000"><path d="M 16 4 C 14.895431 4 14 4.8954305 14 6 C 14 6.3007665 14.068575 6.5878514 14.1875 6.84375 L 9.1875 14 C 9.1256551 13.994239 9.0633503 14 9 14 C 7.8954305 14 7 14.895431 7 16 C 7 16.519909 7.2060539 16.988076 7.53125 17.34375 L 5.53125 24.0625 C 4.6539559 24.274269 4 25.057665 4 26 C 4 27.104569 4.8954305 28 6 28 C 7.1045695 28 8 27.104569 8 26 C 8 25.480091 7.7939461 25.011924 7.46875 24.65625 L 9 19.5 L 10.53125 24.65625 C 10.206054 25.011924 10 25.480091 10 26 C 10 27.104569 10.895431 28 12 28 C 13.104569 28 14 27.104569 14 26 C 14 25.057665 13.346044 24.274269 12.46875 24.0625 L 10.46875 17.34375 C 10.796499 16.989518 11 16.52165 11 16 C 11 15.699234 10.931425 15.412149 10.8125 15.15625 L 15.8125 8 C 15.874345 8.0057613 15.93665 8 16 8 C 16.06335 8 16.125655 8.0057613 16.1875 8 L 21.1875 15.15625 C 21.068575 15.412149 21 15.699234 21 16 C 21 16.519909 21.206054 16.988076 21.53125 17.34375 L 19.53125 24.0625 C 18.653956 24.274269 18 25.057665 18 26 C 18 27.104569 18.895431 28 20 28 C 21.104569 28 22 27.104569 22 26 C 22 25.480091 21.793946 25.011924 21.46875 24.65625 L 23 19.5 L 24.53125 24.65625 C 24.206054 25.011924 24 25.480091 24 26 C 24 27.104569 24.895431 28 26 28 C 27.104569 28 28 27.104569 28 26 C 28 25.057665 27.346044 24.274269 26.46875 24.0625 L 24.46875 17.34375 C 24.793946 16.988076 25 16.519909 25 16 C 25 14.895431 24.104569 14 23 14 C 22.93665 14 22.874345 13.994239 22.8125 14 L 17.8125 6.84375 C 17.931425 6.5878514 18 6.3007665 18 6 C 18 4.8954305 17.104569 4 16 4 z" fill="#000000"/></svg>
