<?xml version="1.0" encoding="utf-8"?>
<svg xmlns="http://www.w3.org/2000/svg" viewBox="0 0 32 32" fill="#000000"><path style="text-indent:0;text-align:start;line-height:normal;text-transform:none;block-progression:tb;-inkscape-font-specification:Bitstream Vera Sans" d="M 3.71875 2.28125 L 2.28125 3.71875 L 28.28125 29.71875 L 29.71875 28.28125 L 22.46875 21.03125 C 22.585242 20.708993 22.670581 20.369235 22.75 20.03125 C 25.270442 18.684937 27 16.048813 27 13 C 27 8.593562 23.406438 5 19 5 C 15.951187 5 13.315063 6.7295577 11.96875 9.25 C 11.630765 9.329419 11.291007 9.4147576 10.96875 9.53125 L 3.71875 2.28125 z M 19 7 C 22.325562 7 25 9.674438 25 13 C 25 14.800292 24.216046 16.403318 22.96875 17.5 C 22.712695 12.942568 19.056627 9.287244 14.5 9.03125 C 15.596682 7.783954 17.199708 7 19 7 z M 14 11 C 17.86 11 21 14.141 21 18 C 21 18.483863 20.93847 18.950218 20.84375 19.40625 L 12.59375 11.15625 C 13.049782 11.06153 13.516137 11 14 11 z M 7.5625 11.71875 C 5.9835 13.34075 5 15.563 5 18 C 5 22.963 9.038 27 14 27 C 16.437 27 18.65925 26.0165 20.28125 24.4375 L 18.84375 23.03125 C 17.58375 24.24825 15.886 25 14 25 C 10.14 25 7 21.859 7 18 C 7 16.114 7.75175 14.41625 8.96875 13.15625 L 7.5625 11.71875 z M 13 17.1875 L 13 20 L 12 20 L 12 22 L 16 22 L 16 20.1875 L 15.8125 20 L 15 20 L 15 19.1875 L 13 17.1875 z" overflow="visible" font-family="Bitstream Vera Sans" fill="#000000"/></svg>
