<?xml version="1.0" encoding="utf-8"?>
<svg xmlns="http://www.w3.org/2000/svg" viewBox="0 0 32 32" fill="#000000"><path style="text-indent:0;text-align:start;line-height:normal;text-transform:none;block-progression:tb;-inkscape-font-specification:Sans" d="M 16 2.0625 L 15.25 2.90625 C 15.25 2.90625 13.97306 4.3416822 12.6875 6.15625 C 12.04472 7.0635339 11.378151 8.0744623 10.875 9.0625 C 10.371849 10.050538 10 11.007927 10 12 C 10 15.301625 12.698375 18 16 18 C 19.301625 18 22 15.301625 22 12 C 22 11.007927 21.628151 10.050538 21.125 9.0625 C 20.621849 8.0744623 19.95528 7.0635339 19.3125 6.15625 C 18.02694 4.3416822 16.75 2.90625 16.75 2.90625 L 16 2.0625 z M 16 5.15625 C 16.43789 5.675493 16.843241 6.1208277 17.6875 7.3125 C 18.29472 8.1695911 18.878151 9.1158189 19.3125 9.96875 C 19.746849 10.821681 20 11.611573 20 12 C 20 14.220375 18.220375 16 16 16 C 13.779625 16 12 14.220375 12 12 C 12 11.611573 12.253151 10.821681 12.6875 9.96875 C 13.121849 9.1158189 13.70528 8.1695911 14.3125 7.3125 C 15.156759 6.1208277 15.56211 5.675493 16 5.15625 z M 16 9.25 L 15.1875 10.4375 C 15.1875 10.4375 14.898242 10.810181 14.625 11.28125 C 14.488379 11.516785 14.367702 11.79461 14.25 12.0625 C 14.132298 12.33039 14 12.560068 14 13 C 14 14.093063 14.906937 15 16 15 C 17.093063 15 18 14.093063 18 13 C 18 12.560068 17.867702 12.33039 17.75 12.0625 C 17.632298 11.79461 17.511621 11.516785 17.375 11.28125 C 17.101758 10.810181 16.8125 10.4375 16.8125 10.4375 L 16 9.25 z M 16 18.03125 L 15.5 18.3125 L 10.5 21.125 L 9 22 L 9 22.03125 L 9 26 L 16 30.15625 L 23 26 L 23 22 L 21.5 21.125 L 16.5 18.3125 L 16 18.03125 z M 16 20.3125 L 18.96875 22 L 16 23.6875 L 13.03125 22 L 16 20.3125 z M 11 23.15625 L 15.5 25.6875 L 16 25.96875 L 16.5 25.6875 L 21 23.15625 L 21 24.875 L 16 27.84375 L 11 24.875 L 11 23.15625 z" overflow="visible" font-family="Sans" fill="#000000"/></svg>
