<?xml version="1.0" encoding="utf-8"?>
<svg xmlns="http://www.w3.org/2000/svg" viewBox="0 0 32 32" fill="#000000"><path style="text-indent:0;text-align:start;line-height:normal;text-transform:none;block-progression:tb;-inkscape-font-specification:Bitstream Vera Sans" d="M 16 5 C 12.698136 5 10 7.6981362 10 11 C 10 12.943782 10.932169 14.683216 12.375 15.78125 C 11.747885 16.058941 11.16761 16.405427 10.625 16.8125 L 7 14.21875 L 7 16.65625 L 9.125 18.1875 C 7.7965593 19.756382 7 21.790544 7 24 L 7 27 L 9 27 L 9 24 C 9 22.214599 9.6570741 20.577888 10.75 19.34375 L 21.40625 27 L 23 27 L 24.84375 27 L 25 27 L 25 24 C 25 20.331085 22.784597 17.180341 19.625 15.78125 C 21.067831 14.683216 22 12.943782 22 11 C 22 7.6981362 19.301864 5 16 5 z M 16 7 C 18.220984 7 20 8.7790164 20 11 C 20 13.220984 18.220984 15 16 15 C 13.779016 15 12 13.220984 12 11 C 12 8.7790164 13.779016 7 16 7 z M 16 17 C 19.877484 17 23 20.122516 23 24 L 23 25.6875 L 12.34375 18.03125 C 13.408606 17.378037 14.654317 17 16 17 z" overflow="visible" font-family="Bitstream Vera Sans" fill="#000000"/></svg>
