<?xml version="1.0" encoding="utf-8"?>
<svg xmlns="http://www.w3.org/2000/svg" viewBox="0 0 32 32" fill="#000000"><path d="M 15.994141 5 L 3.5878906 17.509766 L 14.490234 28.412109 L 16.300781 26.615234 C 16.67925 27.744994 17.305902 28.805902 18.199219 29.699219 C 19.699219 31.199219 21.800391 32 23.900391 32 C 26.000391 32 27.999609 31.199219 29.599609 29.699219 L 30 29.300781 L 30 32 L 32 32 L 32 26 L 25.900391 26 L 25.900391 28 L 28.300781 28 L 28.099609 28.199219 C 25.799609 30.499219 21.899609 30.499219 19.599609 28.199219 C 17.299609 25.899219 17.299609 21.999219 19.599609 19.699219 C 21.899609 17.399219 25.799609 17.399219 28.099609 19.699219 C 29.099609 20.699219 29.700781 22.000781 29.800781 23.300781 L 31.800781 23.199219 C 31.700781 21.399219 30.9 19.700391 29.5 18.400391 C 28.623505 17.523896 27.584367 16.904292 26.478516 16.523438 L 27 16.005859 L 27 5 L 15.994141 5 z M 16.828125 7 L 25 7 L 25 15.171875 L 24.080078 16.085938 C 21.95386 16.025572 19.8074 16.792209 18.199219 18.400391 C 16.6083 19.99131 15.840813 22.10913 15.882812 24.212891 L 14.496094 25.587891 L 6.4121094 17.503906 L 16.828125 7 z M 22 9 A 1 1 0 0 0 21 10 A 1 1 0 0 0 22 11 A 1 1 0 0 0 23 10 A 1 1 0 0 0 22 9 z" fill="#000000"/></svg>
