<?xml version="1.0" encoding="utf-8"?>
<svg xmlns="http://www.w3.org/2000/svg" viewBox="0 0 32 32" fill="#000000"><path style="line-height:normal;text-indent:0;text-align:start;text-decoration-line:none;text-decoration-style:solid;text-decoration-color:#000;text-transform:none;block-progression:tb;isolation:auto;mix-blend-mode:normal" d="M 13 3 C 11.53338 3 10.256857 3.8124719 9.5605469 5 L 8 5 L 8 7 L 9 7 C 9 9.1972944 10.802706 11 13 11 C 15.197294 11 17 9.1972944 17 7 L 18 7 L 18 5 L 16.439453 5 C 15.743143 3.8124719 14.46662 3 13 3 z M 11 7 L 15 7 C 15 8.1164141 14.116414 9 13 9 C 11.883586 9 11 8.1164141 11 7 z M 20 11 L 20 29 L 23 29 L 23 27.841797 L 22.21875 23.972656 C 22.372296 23.943703 24.38206 23.53639 25.806641 21.589844 L 24.193359 20.410156 C 23.811093 20.932486 23.384526 21.288236 23 21.529297 L 23 16 L 22 16 L 22 11 L 20 11 z M 11 12 C 9.3550302 12 8 13.35503 8 15 L 8 21.25 L 10 22.25 L 10 29 L 12 29 L 12 21.013672 L 10 20.013672 L 10 15 C 10 14.43497 10.43497 14 11 14 L 14 14 L 15 14 C 15.56503 14 16 14.43497 16 15 L 16 20.013672 L 14 21.013672 L 14 29 L 16 29 L 16 22.25 L 18 21.25 L 18 15 C 18 13.35503 16.64497 12 15 12 L 14 12 L 11 12 z" fill="#000000"/></svg>
