<?xml version="1.0" encoding="utf-8"?>
<svg xmlns="http://www.w3.org/2000/svg" viewBox="0 0 32 32" fill="#000000"><path style="text-indent:0;text-align:start;line-height:normal;text-transform:none;block-progression:tb;-inkscape-font-specification:Bitstream Vera Sans" d="M 18.6875 3.3125 L 11.28125 10.8125 L 11.15625 10.9375 L 11.09375 11.09375 L 8.4375 17.25 L 6.09375 19.59375 L 5.375 20.3125 L 6.09375 21 L 6.4375 21.34375 L 3.90625 23.90625 L 2.75 25.03125 L 4.28125 25.53125 L 8.375 26.9375 L 8.9375 27.15625 L 9.375 26.71875 L 10.625 25.53125 L 11 25.90625 L 11.6875 26.625 L 12.40625 25.90625 L 14.75 23.5625 L 20.90625 20.90625 L 21.0625 20.84375 L 21.1875 20.71875 L 28.6875 13.3125 L 27.3125 11.875 L 23.28125 15.875 L 16.1875 8.6875 L 20.125 4.6875 L 18.6875 3.3125 z M 14.78125 10.09375 L 21.875 17.25 L 20.46875 18.65625 L 13.40625 11.5 L 14.78125 10.09375 z M 12.34375 13.25 L 18.6875 19.6875 L 13.8125 21.78125 L 13.625 21.84375 L 13.5 22 L 11.6875 23.8125 L 8.1875 20.3125 L 10 18.5 L 10.15625 18.375 L 10.21875 18.1875 L 12.34375 13.25 z M 7.875 22.75 L 9.21875 24.125 L 8.4375 24.875 L 6.4375 24.1875 L 7.875 22.75 z" overflow="visible" font-family="Bitstream Vera Sans" fill="#000000"/></svg>
