<?xml version="1.0" encoding="utf-8"?>
<svg xmlns="http://www.w3.org/2000/svg" viewBox="0 0 32 32" fill="#000000"><path style="text-indent:0;text-align:start;line-height:normal;text-transform:none;block-progression:tb;-inkscape-font-specification:Sans" d="M 3 4 L 3 6 L 3.375 6 C 3.615368 6.4883417 4 7.3227004 4 8 C 4 8.6772996 3.615368 9.5116583 3.375 10 L 3 10 L 3 12 L 3.5 12 C 3.7116916 12.335813 4 12.955582 4 14 C 4 15.044418 3.7116916 15.664187 3.5 16 L 3 16 L 3 18 L 3.46875 18 C 3.5109166 18.073041 3.5454254 18.11964 3.59375 18.21875 C 3.7870487 18.615188 4 19.212601 4 20 C 4 21.020172 3.7121675 21.655697 3.5 22 L 3 22 L 3 24 L 3.65625 24 L 10.40625 28.8125 L 10.6875 29 L 11 29 L 27 29 L 27.4375 29 L 27.71875 28.6875 C 27.71875 28.6875 29 27.277066 29 25 C 29 23.498536 28.532329 22.590962 28.15625 22 C 28.536046 21.403958 29 20.496867 29 19 C 29 17.476768 28.53687 16.556907 28.15625 15.96875 C 28.485605 15.398602 29 14.377337 29 13 C 29 11.12776 27.84375 9.46875 27.84375 9.46875 L 27.75 9.3125 L 27.59375 9.1875 L 20.59375 4.1875 L 20.3125 4 L 20 4 L 4.3125 4 L 4 4 L 3 4 z M 7.125 6 L 11.1875 6 L 18 10.78125 L 18 15 L 17 15 L 16 15 L 16 16 L 16 20 L 16 21 L 17 21 L 18 21 L 18 27 L 12.65625 27 C 12.854544 26.444592 13 25.781632 13 25 C 13 23.498536 12.532329 22.590962 12.15625 22 C 12.536046 21.403958 13 20.496867 13 19 C 13 17.476768 12.53687 16.556907 12.15625 15.96875 C 12.485605 15.398602 13 14.377337 13 13 C 13 11.12776 11.84375 9.46875 11.84375 9.46875 L 11.75 9.3125 L 11.59375 9.1875 L 7.125 6 z M 16.40625 6 L 19.65625 6 L 26.1875 10.65625 C 26.263028 10.796771 27 12.129305 27 13 C 27 13.91576 26.15625 15.46875 26.15625 15.46875 L 25.75 16.125 L 26.28125 16.6875 C 26.28125 16.6875 27 17.359041 27 19 C 27 20.640959 26.28125 21.3125 26.28125 21.3125 L 25.625 22 L 26.28125 22.6875 C 26.28125 22.6875 27 23.413066 27 25 C 27 26.148299 26.679942 26.701485 26.46875 27 L 21 27 L 21 21 L 22 21 L 23 21 L 23 20 L 23 16 L 23 15 L 22 15 L 21 15 L 21 9.21875 L 16.40625 6 z M 5.96875 7.65625 L 10.1875 10.65625 C 10.263028 10.796771 11 12.129305 11 13 C 11 13.431039 10.79164 13.983754 10.59375 14.46875 L 5.3125 10.71875 C 5.6355446 10.065997 6 9.0962011 6 8 C 6 7.882985 5.9772186 7.7712462 5.96875 7.65625 z M 5.96875 13.65625 L 10.40625 16.8125 C 10.608398 17.078291 11 17.769281 11 19 C 11 19.69803 10.836966 20.19237 10.6875 20.5625 L 5.34375 16.71875 C 5.672407 16.095479 6 15.200137 6 14 C 6 13.875316 5.9753658 13.77477 5.96875 13.65625 z M 18 17 L 21 17 L 21 19 L 18 19 L 18 17 z M 5.96875 19.65625 L 10.375 22.78125 C 10.552933 23.0062 11 23.710616 11 25 C 11 25.675049 10.836966 26.157473 10.6875 26.53125 L 5.34375 22.71875 C 5.6716659 22.080232 6 21.16625 6 20 C 6 19.880395 5.9749443 19.770765 5.96875 19.65625 z" fill="#000000"/></svg>
