<?xml version="1.0" encoding="utf-8"?>
<svg xmlns="http://www.w3.org/2000/svg" viewBox="0 0 32 32" fill="#000000"><path style="text-indent:0;text-align:start;line-height:normal;text-transform:none;block-progression:tb;-inkscape-font-specification:Bitstream Vera Sans" d="M 14.375 3.5 L 12.0625 7.09375 L 11.53125 7.9375 L 12.34375 8.46875 L 12.90625 8.84375 L 10.46875 12 L 13 12 L 14.59375 9.9375 L 16.03125 10.875 L 13.25 13 L 9 13 C 7.3550302 13 6 14.354427 6 16 L 6 20.09375 C 6 20.583648 6.1733826 21.070807 6.5 21.4375 L 9.8125 25.125 C 9.5142887 25.355686 9.2164247 25.586982 8.9375 25.8125 C 7.1315214 25.357751 5.625 24.21875 5.625 24.21875 L 4.375 25.78125 C 4.375 25.78125 7.0146906 28 10.3125 28 C 12.638433 28 14.972561 27.472528 17.03125 26.96875 C 19.089939 26.464972 20.92241 26 22 26 C 24.166723 26 26.375 27.71875 26.375 27.71875 L 27.625 26.1875 C 27.625 26.1875 26.700064 25.38319 25.28125 24.75 C 25.549837 24.386856 25.816002 24.024132 26.125 23.5625 C 27.008108 22.243169 28 20.788924 28 19.21875 C 28 18.716728 27.863052 18.051046 27.375 17.59375 C 26.886948 17.136454 26.23187 17 25.5 17 C 23.307601 17 20.498026 18.309478 17.46875 20.03125 L 14.78125 18 C 14.243758 17.595886 13.541952 17.488132 12.90625 17.71875 L 12 18.03125 L 12 16 L 10 16 L 10 19.46875 L 10 20.875 L 11.34375 20.40625 L 13.5625 19.59375 L 15.625 21.15625 C 14.177648 22.046192 12.764121 22.980003 11.4375 23.9375 L 8 20.09375 L 8 16 C 8 15.435573 8.4349698 15 9 15 L 13.59375 15 L 13.9375 15 L 14.1875 14.78125 L 17.8125 12 L 18.71875 12.59375 L 19.53125 13.125 L 20.09375 12.3125 L 23.375 7.40625 L 21.71875 6.28125 L 18.96875 10.375 L 14.28125 7.34375 L 16.0625 4.59375 L 14.375 3.5 z M 7.5 5 C 5.578848 5 4 6.578848 4 8.5 C 4 10.421152 5.578848 12 7.5 12 C 9.421152 12 11 10.421152 11 8.5 C 11 6.578848 9.421152 5 7.5 5 z M 7.5 7 C 8.3402718 7 9 7.6597282 9 8.5 C 9 9.3402718 8.3402718 10 7.5 10 C 6.6597282 10 6 9.3402718 6 8.5 C 6 7.6597282 6.6597282 7 7.5 7 z M 25.5 19 C 25.95713 19 26.035802 19.09605 26 19.0625 C 26.004475 19.079134 26 19.11226 26 19.21875 C 26 19.667576 25.283642 21.220081 24.46875 22.4375 C 23.984141 23.161489 23.561852 23.719004 23.25 24.125 C 22.850561 24.054829 22.428881 24 22 24 C 20.42059 24 18.590311 24.535028 16.5625 25.03125 C 15.151641 25.376499 13.647053 25.672607 12.1875 25.84375 C 14.039386 24.483909 16.147885 23.108678 18.1875 21.9375 C 21.212797 20.200328 24.205596 19 25.5 19 z" overflow="visible" font-family="Bitstream Vera Sans" fill="#000000"/></svg>
