<?xml version="1.0" encoding="utf-8"?>
<svg xmlns="http://www.w3.org/2000/svg" viewBox="0 0 32 32" fill="#000000"><path style="text-indent:0;text-align:start;line-height:normal;text-transform:none;block-progression:tb;-inkscape-font-specification:Sans" d="M 12 4 C 11.12557 4 10.318651 4.3356953 9.78125 4.90625 C 9.2438486 5.4768047 9 6.2288887 9 7 L 11 7 C 11 6.6451113 11.110651 6.3979453 11.25 6.25 C 11.389349 6.1020547 11.57343 6 12 6 C 12.34523 6 12.672315 6.0160698 13 6.03125 L 13 7 L 15 7 L 15 6.21875 C 17.420401 6.585375 19.268451 7.3679742 20.5625 8.21875 C 21.455438 8.8058142 22.104438 9.4055985 22.5 9.9375 C 22.895562 10.469402 23 10.948398 23 11 C 23 12.1888 22.010801 13.757373 20.4375 14.96875 C 18.864199 16.180127 16.786401 17 15 17 C 13.104198 17 11.576966 16.485265 10.5625 15.65625 C 9.5480338 14.827235 9 13.705142 9 12.25 C 9 11.668269 9.2141765 11.067905 9.5625 10.65625 C 9.8179073 10.354405 10.131001 10.122888 10.53125 10.03125 C 10.687191 10.014807 10.841873 10 11 10 L 15.65625 10 L 16.375 11.4375 L 16.65625 12 L 17.28125 12 L 18.34375 12 C 18.318456 12.123115 18.310538 12.24836 18.28125 12.375 C 18.158431 12.906069 18 13.412692 18 14 L 20 14 C 20 13.892308 20.09157 13.393681 20.21875 12.84375 C 20.345931 12.293819 20.5 11.660395 20.5 11 C 20.5 10.313119 20.334946 9.7639626 20.1875 9.375 C 20.040054 8.9860374 20 8.601445 20 9 L 18 9 C 18 9.6430921 18.172855 9.7744901 18.28125 10 L 17.90625 10 L 17.1875 8.5625 L 16.90625 8 L 16.28125 8 L 11 8 C 9.1760137 8 7.3578677 8.7809105 6.0625 10.3125 C 4.7671323 11.84409 4 14.078332 4 16.9375 C 4 20.680774 4.5086612 23.312923 5.03125 25.125 C 5.2925444 26.031038 5.5641816 26.7451 5.75 27.25 C 5.9358184 27.7549 6 28.123388 6 28 L 8 28 C 8 26.190758 8.375297 24.669565 9.125 23.65625 C 9.874703 22.642935 10.976519 22 13 22 C 13.552285 22 14 21.552285 14 21 C 14 20.447715 13.552285 20 13 20 C 10.514481 20 8.623047 20.919565 7.5 22.4375 C 7.2053392 22.83577 6.9486042 23.26378 6.75 23.71875 C 6.3536335 22.107924 6 19.943626 6 16.9375 C 6 14.991233 6.3811736 13.513358 7 12.4375 C 7.0521177 14.36248 7.9118186 16.042872 9.3125 17.1875 C 10.758284 18.368985 12.736802 19 15 19 C 17.372599 19 19.769301 17.984123 21.65625 16.53125 C 21.857089 16.376613 22.060145 16.227525 22.25 16.0625 C 22.356358 16.621122 22.489459 17.211975 22.71875 17.84375 C 23.071618 18.816029 23.609458 19.81864 24.46875 20.625 C 25.328042 21.43136 26.533074 22 28 22 L 28 20 C 27.007426 20 26.351865 19.69364 25.8125 19.1875 C 25.273135 18.68136 24.876007 17.933971 24.59375 17.15625 C 24.046723 15.648993 24.002226 14.157076 24 14.0625 C 24.613885 13.120892 25 12.090928 25 11 C 25 10.212602 24.651813 9.500411 24.09375 8.75 C 23.535687 7.999589 22.725812 7.2344358 21.65625 6.53125 C 19.517126 5.1248785 16.319742 4 12 4 z M 13 11 L 13 12.9375 C 13 13.21737 12.833957 13.707493 12.625 14.09375 C 12.416043 14.480007 12.21875 14.71875 12.21875 14.71875 L 13.78125 15.96875 C 13.78125 15.96875 14.083957 15.569243 14.375 15.03125 C 14.666043 14.493257 15 13.80063 15 12.9375 L 15 11 L 13 11 z M 16 21 C 15.447715 21 15 21.447715 15 22 C 15 22.552285 15.447715 23 16 23 C 16.552285 23 17 22.552285 17 22 C 17 21.447715 16.552285 21 16 21 z M 27 22 C 26.447715 22 26 22.447715 26 23 C 26 23.552285 26.447715 24 27 24 C 27.552285 24 28 23.552285 28 23 C 28 22.447715 27.552285 22 27 22 z M 18 23 C 17.447715 23 17 23.447715 17 24 C 17 24.552285 17.447715 25 18 25 C 18.552285 25 19 24.552285 19 24 C 19 23.447715 18.552285 23 18 23 z M 20 25 C 19.447715 25 19 25.447715 19 26 C 19 26.552285 19.447715 27 20 27 C 20.552285 27 21 26.552285 21 26 C 21 25.447715 20.552285 25 20 25 z M 26 25 C 25.447715 25 25 25.447715 25 26 C 25 26.552285 25.447715 27 26 27 C 26.552285 27 27 26.552285 27 26 C 27 25.447715 26.552285 25 26 25 z M 23 26 C 22.447715 26 22 26.447715 22 27 C 22 27.552285 22.447715 28 23 28 C 23.552285 28 24 27.552285 24 27 C 24 26.447715 23.552285 26 23 26 z" fill="#000000"/></svg>
