<?xml version="1.0" encoding="utf-8"?>
<svg xmlns="http://www.w3.org/2000/svg" viewBox="0 0 32 32" fill="#000000"><path style="text-indent:0;text-align:start;line-height:normal;text-transform:none;block-progression:tb;-inkscape-font-specification:Bitstream Vera Sans" d="M 28.5625 7.34375 L 26 7.875 L 26 7.84375 C 25.082551 8.0264785 24.255275 8.4947251 23.59375 9.15625 L 22.125 10.625 L 21.71875 10.25 L 21.40625 9.9375 L 21 9.9375 L 13.90625 9.9375 L 13.5 9.9375 L 13.1875 10.21875 L 5.40625 18 C 4.6321988 18.772071 4.6336655 20.039916 5.40625 20.8125 L 5.65625 21.0625 L 2.65625 24.03125 L 4.09375 25.4375 L 7.0625 22.46875 L 7.53125 22.9375 L 9.125 24.53125 C 11.005711 26.411961 13.98635 26.661504 16.15625 25.125 L 21.28125 21.5 C 21.630785 21.414082 21.951842 21.235658 22.21875 20.96875 L 23.8125 19.40625 L 24.0625 19.125 L 24.09375 18.75 L 24.375 13.375 L 24.40625 12.9375 L 24.09375 12.625 L 23.5 12.0625 L 24.9375 10.625 L 25 10.5625 C 25.382475 10.180025 25.877699 9.9177715 26.40625 9.8125 L 28.9375 9.3125 L 28.5625 7.34375 z M 14.28125 11.9375 L 20.5625 11.9375 L 22.34375 13.71875 L 22.125 18.25 L 20.90625 19.46875 L 20.8125 19.5625 L 15.8125 16.5625 C 14.601564 15.836233 13.029599 16.034374 12.03125 17.03125 L 8.25 20.8125 L 6.90625 19.46875 L 6.84375 19.40625 L 14.28125 11.9375 z M 14.09375 18.125 C 14.323036 18.098111 14.564718 18.151383 14.78125 18.28125 L 15.6875 18.84375 L 14.71875 19.125 L 14.4375 19.21875 L 14.25 19.40625 L 12.5 21.40625 L 14 22.75 L 15.59375 20.9375 L 17.96875 20.21875 L 18.875 20.75 L 15 23.5 C 13.6139 24.481496 11.732539 24.295039 10.53125 23.09375 L 10.28125 22.875 L 9.65625 22.25 L 13.46875 18.4375 C 13.647576 18.258938 13.864464 18.151889 14.09375 18.125 z" overflow="visible" font-family="Bitstream Vera Sans" fill="#000000"/></svg>
