<?xml version="1.0" encoding="utf-8"?>
<svg xmlns="http://www.w3.org/2000/svg" viewBox="0 0 32 32" fill="#000000"><path style="text-indent:0;text-align:start;line-height:normal;text-transform:none;block-progression:tb;-inkscape-font-specification:Sans" d="M 16 3 C 8.8321429 3 3 8.8321429 3 16 C 3 23.167857 8.8321429 29 16 29 C 23.167857 29 29 23.167857 29 16 C 29 8.8321429 23.167857 3 16 3 z M 16 5 C 22.086977 5 27 9.9130231 27 16 C 27 22.086977 22.086977 27 16 27 C 9.9130231 27 5 22.086977 5 16 C 5 9.9130231 9.9130231 5 16 5 z M 9.71875 11 L 9.125 13.6875 L 11.28125 13.6875 C 12.95325 13.6875 13.4375 12.9225 13.4375 12.1875 C 13.4375 11.6685 13.11525 11 11.78125 11 L 9.71875 11 z M 15.25 11 L 14.65625 13.6875 L 16.8125 13.6875 C 18.4845 13.6875 18.96875 12.9225 18.96875 12.1875 C 18.96875 11.6685 18.6445 11 17.3125 11 L 15.25 11 z M 20.3125 13.40625 L 19.71875 16.125 L 21.84375 16.125 C 23.51375 16.125 24 15.33075 24 14.59375 C 24 14.07475 23.67475 13.40625 22.34375 13.40625 L 20.3125 13.40625 z M 8.96875 15.0625 L 8.40625 17.78125 L 10.53125 17.78125 C 12.20325 17.78125 12.6875 16.983 12.6875 16.25 C 12.6875 15.732 12.36525 15.0625 11.03125 15.0625 L 8.96875 15.0625 z M 14.5 15.0625 L 13.9375 17.78125 L 16.0625 17.78125 C 17.7345 17.78125 18.21875 16.983 18.21875 16.25 C 18.21875 15.732 17.8935 15.0625 16.5625 15.0625 L 14.5 15.0625 z M 19.5 17.65625 L 18.90625 20.34375 L 21.0625 20.34375 C 22.7345 20.34375 23.1875 19.5455 23.1875 18.8125 C 23.1875 18.2935 22.8945 17.65625 21.5625 17.65625 L 19.5 17.65625 z M 13.71875 19.3125 L 13.125 22 L 15.28125 22 C 16.95325 22 17.40625 21.20275 17.40625 20.46875 C 17.40625 19.94775 17.11225 19.3125 15.78125 19.3125 L 13.71875 19.3125 z" overflow="visible" font-family="Sans" fill="#000000"/></svg>
