<?xml version="1.0" encoding="utf-8"?>
<svg xmlns="http://www.w3.org/2000/svg" viewBox="0 0 32 32" fill="#000000"><path style="text-indent:0;text-align:start;line-height:normal;text-transform:none;block-progression:tb;-inkscape-font-specification:Bitstream Vera Sans" d="M 11.21875 4.375 C 10.389042 5.3983069 10.009693 6.2744809 10 7.125 C 9.99031 7.9755191 10.370117 8.6355713 10.625 9.0625 C 10.879883 9.4894287 10.99175 9.7016797 11 9.9375 C 11.0083 10.17332 10.92985 10.581259 10.3125 11.375 L 11.875 12.625 C 12.657646 11.618741 13.02925 10.711055 13 9.875 C 12.97075 9.0389453 12.588867 8.4418213 12.34375 8.03125 C 12.098633 7.6206787 11.997193 7.4026059 12 7.15625 C 12.002807 6.9098941 12.110958 6.4516931 12.78125 5.625 L 11.21875 4.375 z M 16.21875 4.375 C 15.389042 5.3983069 15.009693 6.2744809 15 7.125 C 14.9903 7.9755191 15.370117 8.6355713 15.625 9.0625 C 15.879883 9.4894287 15.99175 9.7016797 16 9.9375 C 16.0083 10.17332 15.92985 10.581259 15.3125 11.375 L 16.875 12.625 C 17.657646 11.618741 18.02925 10.711055 18 9.875 C 17.97075 9.0389453 17.588867 8.4418213 17.34375 8.03125 C 17.098633 7.6206787 16.997193 7.4026059 17 7.15625 C 17.002807 6.9098941 17.110958 6.4516931 17.78125 5.625 L 16.21875 4.375 z M 21.21875 4.375 C 20.389042 5.3983069 20.009693 6.2744809 20 7.125 C 19.9903 7.9755191 20.370117 8.6355713 20.625 9.0625 C 20.879883 9.4894287 20.99175 9.7016797 21 9.9375 C 21.0083 10.17332 20.92985 10.581259 20.3125 11.375 L 21.875 12.625 C 22.657646 11.618741 23.02925 10.711055 23 9.875 C 22.97075 9.0389453 22.588867 8.4418213 22.34375 8.03125 C 22.098633 7.6206787 21.997193 7.4026059 22 7.15625 C 22.002807 6.9098941 22.110958 6.4516931 22.78125 5.625 L 21.21875 4.375 z M 3 14 L 3 16 L 4.1875 16 L 5.71875 23.59375 L 5.71875 23.625 C 5.947703 24.655288 6.7155088 25.504759 7.71875 25.84375 L 7 28 L 9 28 L 9.65625 26 L 22.34375 26 L 23 28 L 25 28 L 24.28125 25.84375 C 25.327485 25.525317 26.139458 24.684937 26.375 23.625 L 26.375 23.59375 L 27.8125 16 L 29 16 L 29 14 L 27 14 L 6 14 L 3 14 z M 6.21875 16 L 25.8125 16 L 24.40625 23.21875 C 24.289873 23.653018 23.921755 24 23.40625 24 L 8.6875 24 C 8.1541667 24 7.7888179 23.643431 7.6875 23.1875 L 6.21875 16 z" overflow="visible" font-family="Bitstream Vera Sans" fill="#000000"/></svg>
