<?xml version="1.0" encoding="utf-8"?>
<svg xmlns="http://www.w3.org/2000/svg" viewBox="0 0 32 32" fill="#000000"><path style="text-indent:0;text-align:start;line-height:normal;text-transform:none;block-progression:tb;-inkscape-font-specification:Sans" d="M 1 6 L 1 7 L 1 25 L 1 26 L 2 26 L 30 26 L 31 26 L 31 25 L 31 7 L 31 6 L 30 6 L 2 6 L 1 6 z M 3 8 L 29 8 L 29 24 L 3 24 L 3 8 z M 22 10 C 20.35499 10 19 11.35499 19 13 C 19 14.64501 20.35499 16 22 16 C 23.64501 16 25 14.64501 25 13 C 25 11.35499 23.64501 10 22 10 z M 5 12 L 5 20 L 7 20 L 7 12 L 5 12 z M 8 12 L 8 20 L 9 20 L 9 12 L 8 12 z M 10 12 L 10 20 L 13 20 L 13 12 L 10 12 z M 14 12 L 14 20 L 16 20 L 16 12 L 14 12 z M 22 12 C 22.564128 12 23 12.435872 23 13 C 23 13.564128 22.564128 14 22 14 C 21.435872 14 21 13.564128 21 13 C 21 12.435872 21.435872 12 22 12 z M 19 17 L 19 19 L 27 19 L 27 17 L 19 17 z M 19 20 L 19 22 L 24 22 L 24 20 L 19 20 z" fill="#000000"/></svg>
