<?xml version="1.0" encoding="utf-8"?>
<svg xmlns="http://www.w3.org/2000/svg" viewBox="0 0 32 32" fill="#000000"><path d="M 12 6 C 10.895431 6 10 6.8954305 10 8 C 10 9.1045695 10.895431 10 12 10 C 13.104569 10 14 9.1045695 14 8 C 14 6.8954305 13.104569 6 12 6 z M 20 6 C 18.895431 6 18 6.8954305 18 8 C 18 9.1045695 18.895431 10 20 10 C 21.104569 10 22 9.1045695 22 8 C 22 6.8954305 21.104569 6 20 6 z M 12 14 C 10.895431 14 10 14.895431 10 16 C 10 17.104569 10.895431 18 12 18 C 13.104569 18 14 17.104569 14 16 C 14 14.895431 13.104569 14 12 14 z M 20 14 C 18.895431 14 18 14.895431 18 16 C 18 17.104569 18.895431 18 20 18 C 21.104569 18 22 17.104569 22 16 C 22 14.895431 21.104569 14 20 14 z M 12 22 C 10.895431 22 10 22.895431 10 24 C 10 25.104569 10.895431 26 12 26 C 13.104569 26 14 25.104569 14 24 C 14 22.895431 13.104569 22 12 22 z M 20 22 C 18.895431 22 18 22.895431 18 24 C 18 25.104569 18.895431 26 20 26 C 21.104569 26 22 25.104569 22 24 C 22 22.895431 21.104569 22 20 22 z" fill="#000000"/></svg>
