<?xml version="1.0" encoding="utf-8"?>
<svg xmlns="http://www.w3.org/2000/svg" viewBox="0 0 32 32" fill="#000000"><path d="M 4.6875 6.9375 C 4.6875 6.9375 1 12.075758 1 18 C 1 22.429915 4.5700855 26 9 26 C 12.020603 26 14.638156 24.335526 16 21.875 C 17.361844 24.335526 19.979397 26 23 26 C 27.429915 26 31 22.429915 31 18 C 31 12.075758 27.3125 6.9375 27.3125 6.9375 L 25.6875 8.0625 C 25.6875 8.0625 29 12.924242 29 18 C 29 21.370085 26.370085 24 23 24 C 19.629915 24 17 21.370085 17 18 C 17 17.347619 17.0576 16.369889 17.21875 15.4375 C 17.379904 14.505111 17.684349 13.629097 18 13.21875 L 16.40625 12 C 16.249322 12.204007 16.118428 12.431816 16 12.65625 C 15.881572 12.431816 15.750678 12.204007 15.59375 12 L 14 13.21875 C 14.315651 13.629097 14.620096 14.505111 14.78125 15.4375 C 14.942404 16.369889 15 17.347619 15 18 C 15 21.370085 12.370085 24 9 24 C 5.6299145 24 3 21.370085 3 18 C 3 12.924242 6.3125 8.0625 6.3125 8.0625 L 4.6875 6.9375 z M 9 17 C 7.8954305 17 7 17.895431 7 19 C 7 20.104569 7.8954305 21 9 21 C 10.104569 21 11 20.104569 11 19 C 11 17.895431 10.104569 17 9 17 z M 23 17 C 21.895431 17 21 17.895431 21 19 C 21 20.104569 21.895431 21 23 21 C 24.104569 21 25 20.104569 25 19 C 25 17.895431 24.104569 17 23 17 z" fill="#000000"/></svg>
