<?xml version="1.0" encoding="utf-8"?>
<svg xmlns="http://www.w3.org/2000/svg" viewBox="0 0 32 32" fill="#000000"><path style="text-indent:0;text-align:start;line-height:normal;text-transform:none;block-progression:tb;-inkscape-font-specification:Bitstream Vera Sans" d="M 2 3 L 2 9 L 4 9 L 4 7 L 8 7 L 8 8 L 10 8 L 10 7 L 20 7 L 20 8 L 22 8 L 22 7 L 25 7 L 25 5 L 4 5 L 4 3 L 2 3 z M 27.5 4.5 C 26.672 4.5 26 5.172 26 6 C 26 6.828 26.672 7.5 27.5 7.5 C 28.328 7.5 30.75 6 30.75 6 C 30.75 6 28.328 4.5 27.5 4.5 z M 6 9 L 6 10 L 6 22.15625 L 6 22.71875 L 6.46875 23 L 14.46875 27.84375 L 15 28.15625 L 15.53125 27.84375 L 23.53125 23 L 24 22.71875 L 24 22.15625 L 24 10 L 24 9 L 23 9 L 7 9 L 6 9 z M 8 11 L 22 11 L 22 21.5625 L 15 25.84375 L 8 21.5625 L 8 11 z M 11 14 L 11 16 L 19 16 L 19 14 L 11 14 z M 11 18 L 11 20 L 19 20 L 19 18 L 11 18 z" fill="#000000"/></svg>
