<?xml version="1.0" encoding="utf-8"?>
<svg xmlns="http://www.w3.org/2000/svg" viewBox="0 0 32 32" fill="#000000"><path d="M 27.21875 8.5625 C 27.21875 8.5625 18.19875 8.625 11.96875 8.625 C 5.17375 8.625 3.125 13.59375 3.125 13.59375 L 1.0625 13.59375 L 0 18.34375 L 2.4375 18.34375 C 2.4375 18.34375 2.2445 23.4375 10.0625 23.4375 L 23.90625 23.4375 L 24.40625 21.21875 L 27.59375 21.21875 C 31.03575 21.21875 31.65625 18.7095 31.65625 17.5625 C 31.65525 16.2595 30.96875 15.71875 30.96875 15.71875 C 30.96875 15.71875 32 15.15425 32 13.40625 C 32 10.64225 28.8125 10.78125 28.8125 10.78125 L 26.71875 10.78125 L 27.21875 8.5625 z M 18.875 11.21875 C 22.769 11.21875 22.46875 14.21875 22.46875 14.21875 L 19.84375 14.21875 C 19.84375 13.38375 19.3135 13.25 18.6875 13.25 C 18.0605 13.25 17.625 13.518 17.625 14 C 17.625 15.173 22.03125 14.363 22.03125 17.625 C 22.03025 19.033 20.936 20.8125 17.875 20.8125 C 15.785 20.8125 13.9835 19.796 14.0625 17.5 L 16.75 17.5 C 16.75 17.961 16.82625 18.8125 18.03125 18.8125 C 18.52625 18.8125 19.34375 18.60425 19.34375 17.90625 C 19.34375 16.60625 14.96875 17.273 14.96875 14.25 C 14.96875 12.603 16.461 11.21875 18.875 11.21875 z M 6.59375 11.375 L 9.40625 11.375 L 8.40625 16.34375 C 8.40625 16.34375 7.6945 18.5 9.3125 18.5 C 10.8245 18.5 11 16.5 11 16.5 L 12.09375 11.375 L 14.875 11.375 L 13.71875 16.84375 C 13.71875 16.84375 13.63175 20.78125 9.09375 20.78125 C 5.23475 20.78125 5.2605 17.94425 5.3125 17.65625 C 5.3645 17.36925 6.59375 11.375 6.59375 11.375 z M 23.90625 11.4375 L 28.78125 11.4375 C 29.60825 11.4375 31.3125 11.618 31.3125 13.375 C 31.3125 15.357 29.6875 15.65625 29.6875 15.65625 C 29.6875 15.65625 30.96875 15.96225 30.96875 17.53125 C 30.96875 20.51225 27.8735 20.5625 27.5625 20.5625 L 21.96875 20.5625 L 23.90625 11.4375 z M 26.0625 13.59375 L 25.8125 14.96875 L 27.53125 14.96875 C 27.66825 14.96875 28.375 14.8415 28.375 14.1875 C 28.375 13.5325 27.6875 13.59375 27.6875 13.59375 L 26.0625 13.59375 z M 25.4375 16.65625 L 25.09375 18.375 L 26.96875 18.375 C 27.14375 18.375 28.09375 18.23725 28.09375 17.40625 C 28.09375 16.57625 27.0625 16.65625 27.0625 16.65625 L 25.4375 16.65625 z" fill="#000000"/></svg>
