<?xml version="1.0" encoding="utf-8"?>
<svg xmlns="http://www.w3.org/2000/svg" viewBox="0 0 32 32" fill="#000000"><path style="text-indent:0;text-align:start;line-height:normal;text-transform:none;block-progression:tb;-inkscape-font-specification:Sans" d="M 4 6 L 4 8 L 3 8 L 2 8 L 2 9 L 2 16 L 2 17 L 3 17 C 3.3482768 17 3.6072562 17.0942 3.75 17.21875 C 3.8598324 17.31459 3.8783409 17.48115 3.90625 17.65625 L 1.40625 22.78125 L 0.96875 23.65625 L 1.84375 24.09375 L 4.59375 25.5 L 5.46875 25.96875 L 5.9375 25.0625 L 8.5625 20 L 12 20 L 12 18 L 14.4375 18 C 14.607929 18.565964 14.848175 19.285901 15.1875 20.125 C 15.922981 21.943737 17.114786 24.232867 19 26.28125 L 19.65625 27.03125 L 20.40625 26.34375 L 23.34375 23.65625 L 24.0625 22.96875 L 23.40625 22.21875 C 21.281574 19.909921 20.324613 16.894427 20 15.6875 L 20 14 L 24 14 L 24 18 L 26 18 L 26 14 L 28 14 L 29 14 L 29 13 L 29 12 L 30 12 L 30 10 L 29 10 L 29 9 L 29 8 L 28 8 L 28 6 L 26 6 L 26 8 L 8 8 L 8 6 L 4 6 z M 4 10 L 18 10 L 18 15.21875 L 14.875 16 L 9 16 L 8.40625 16 L 8.125 16.53125 L 4.625 23.28125 L 3.625 22.75 L 5.84375 18.21875 L 5.96875 18 L 5.96875 17.78125 C 5.96875 16.970796 5.6240062 16.208698 5.0625 15.71875 C 4.7728387 15.466003 4.3609356 15.463045 4 15.34375 L 4 10 z M 20 10 L 27 10 L 27 12 L 20 12 L 20 10 z M 6 12 L 6 14 L 16 14 L 16 12 L 6 12 z M 18.40625 17.1875 C 18.861083 18.590455 19.718714 20.730096 21.34375 22.78125 L 19.875 24.125 C 18.587022 22.519563 17.608804 20.803207 17.03125 19.375 C 16.76761 18.723056 16.584234 18.16685 16.4375 17.6875 L 18.40625 17.1875 z" fill="#000000"/></svg>
