<?xml version="1.0" encoding="utf-8"?>
<svg xmlns="http://www.w3.org/2000/svg" viewBox="0 0 32 32" fill="#000000"><path style="text-indent:0;text-align:start;line-height:normal;text-transform:none;block-progression:tb;-inkscape-font-specification:Sans" d="M 11.59375 7 L 11.28125 7.28125 L 3.28125 15.28125 L 2.59375 16 L 3.28125 16.71875 L 11.28125 24.71875 L 11.59375 25 L 12 25 L 28 25 L 29 25 L 29 24 L 29 8 L 29 7 L 28 7 L 12 7 L 11.59375 7 z M 12.4375 9 L 27 9 L 27 23 L 12.4375 23 L 5.4375 16 L 12.4375 9 z M 15.15625 11.75 L 13.75 13.15625 L 16.59375 16 L 13.75 18.84375 L 15.15625 20.25 L 18 17.40625 L 20.84375 20.25 L 22.25 18.84375 L 19.40625 16 L 22.25 13.15625 L 20.84375 11.75 L 18 14.59375 L 15.15625 11.75 z" overflow="visible" font-family="Sans" fill="#000000"/></svg>
