<?xml version="1.0" encoding="utf-8"?>
<svg xmlns="http://www.w3.org/2000/svg" viewBox="0 0 32 32" fill="#000000"><path style="text-indent:0;text-align:start;line-height:normal;text-transform:none;block-progression:tb;-inkscape-font-specification:Sans" d="M 13 3 L 13 4 L 13 5.5 C 10.239412 6.3711153 7.9928183 8.3759177 6.84375 11 L 6 11 L 5 11 L 5 12 L 5 17 L 5 18 L 6 18 L 6.90625 18 L 6 27.90625 L 5.90625 29 L 7 29 L 10 29 L 10.90625 29 L 11 28.125 L 11 28 L 21 28 L 21 28.125 L 21.09375 29 L 22 29 L 25 29 L 26.09375 29 L 26 27.90625 L 25.09375 18 L 26 18 L 27 18 L 27 17 L 27 12 L 27 11 L 26 11 L 25.15625 11 C 24.006836 8.3749855 21.762355 6.369648 19 5.5 L 19 4 L 19 3 L 18 3 L 16 3 L 14 3 L 13 3 z M 15 5 L 16 5 L 17 5 L 17 12 L 17 13 L 18 13 L 25 13 L 25 16 L 24 16 L 22.90625 16 L 23 17.09375 L 23.90625 27 L 22.90625 27 L 22 18.875 L 21.90625 18 L 21 18 L 16 18 L 11 18 L 10.09375 18 L 10 18.875 L 9.09375 27 L 8.09375 27 L 9 17.09375 L 9.09375 16 L 8 16 L 7 16 L 7 13 L 14 13 L 15 13 L 15 12 L 15 5 z M 13 7.5625 L 13 11 L 9.09375 11 C 9.9771038 9.4656777 11.348692 8.2383777 13 7.5625 z M 19 7.5625 C 20.651985 8.2377242 22.023167 9.4651546 22.90625 11 L 19 11 L 19 7.5625 z M 10 14 L 10 16 L 13 16 L 13 17 L 19 17 L 19 16 L 22 16 L 22 14 L 10 14 z M 11.90625 20 L 16 20 L 20.09375 20 L 20.75 26 L 11.25 26 L 11.90625 20 z" overflow="visible" font-family="Sans" fill="#000000"/></svg>
