<?xml version="1.0" encoding="utf-8"?>
<svg xmlns="http://www.w3.org/2000/svg" viewBox="0 0 32 32" fill="#000000"><path style="text-indent:0;text-align:start;line-height:normal;text-transform:none;block-progression:tb;-inkscape-font-specification:Sans" d="M 8.9375 5 C 6.7728596 5 5 6.7728596 5 8.9375 L 5 16 L 5 23.0625 C 5 25.22714 6.7728596 27 8.9375 27 L 16 27 L 23.0625 27 C 25.22714 27 27 25.22714 27 23.0625 L 27 16 L 27 8.9375 C 27 6.7728596 25.22714 5 23.0625 5 L 16 5 L 8.9375 5 z M 8.9375 7 L 16 7 L 23.0625 7 C 24.14586 7 25 7.8541404 25 8.9375 L 25 16 L 25 23.0625 C 25 24.14586 24.14586 25 23.0625 25 L 16 25 L 8.9375 25 C 7.8541404 25 7 24.14586 7 23.0625 L 7 16 L 7 8.9375 C 7 7.8541404 7.8541404 7 8.9375 7 z M 18.9375 11.59375 L 18.9375 17.46875 L 21 17.46875 L 21 11.59375 L 18.9375 11.59375 z M 10.71875 11.625 L 10.71875 20.375 L 13.1875 20.375 C 14.1795 20.375 14.8755 20.34725 15.3125 20.28125 C 15.7495 20.21225 16.1405 20.0965 16.4375 19.9375 C 16.8045 19.7435 17.054 19.44775 17.25 19.09375 C 17.447 18.73875 17.5625 18.344 17.5625 17.875 C 17.5615 17.226 17.38125 16.7005 17.03125 16.3125 C 16.68325 15.9235 16.21475 15.70325 15.59375 15.65625 C 16.14675 15.50525 16.52725 15.295 16.78125 15 C 17.03425 14.709 17.15625 14.3095 17.15625 13.8125 C 17.15625 13.4195 17.07225 13.08125 16.90625 12.78125 C 16.73525 12.48225 16.5095 12.2415 16.1875 12.0625 C 15.9055 11.9075 15.54725 11.78375 15.15625 11.71875 C 14.76325 11.65575 14.07975 11.625 13.09375 11.625 L 10.71875 11.625 z M 12.90625 13.5625 L 13.4375 13.5625 C 14.0285 13.5625 14.42 13.64825 14.625 13.78125 C 14.827 13.91525 14.9375 14.13975 14.9375 14.46875 C 14.9375 14.78475 14.81075 14.995 14.59375 15.125 C 14.37375 15.253 13.99325 15.3125 13.40625 15.3125 L 12.90625 15.3125 L 12.90625 13.5625 z M 12.90625 16.875 L 13.78125 16.875 C 14.35925 16.875 14.75675 16.94875 14.96875 17.09375 C 15.18475 17.23875 15.3125 17.507 15.3125 17.875 C 15.3125 18.206 15.1725 18.45175 14.9375 18.59375 C 14.7045 18.73675 14.313 18.78125 13.75 18.78125 L 12.90625 18.78125 L 12.90625 16.875 z M 19.96875 18.0625 C 19.31875 18.0625 18.78125 18.6 18.78125 19.25 C 18.78125 19.9 19.31875 20.40625 19.96875 20.40625 C 20.61775 20.40625 21.15625 19.9 21.15625 19.25 C 21.15625 18.6 20.61775 18.0625 19.96875 18.0625 z" overflow="visible" font-family="Sans" fill="#000000"/></svg>
