<?xml version="1.0" encoding="utf-8"?>
<svg xmlns="http://www.w3.org/2000/svg" viewBox="0 0 32 32" fill="#000000"><path style="text-indent:0;text-align:start;line-height:normal;text-transform:none;block-progression:tb;-inkscape-font-specification:Bitstream Vera Sans" d="M 17.5 4 C 15.578848 4 14 5.5788481 14 7.5 C 14 9.4211519 15.578848 11 17.5 11 C 19.421152 11 21 9.4211519 21 7.5 C 21 5.5788481 19.421152 4 17.5 4 z M 17.5 6 C 18.340272 6 19 6.6597281 19 7.5 C 19 8.3402719 18.340272 9 17.5 9 C 16.659728 9 16 8.3402719 16 7.5 C 16 6.6597281 16.659728 6 17.5 6 z M 10.28125 9.96875 C 9.6936368 10.007588 9.1397786 10.322511 8.78125 10.8125 L 6 14.59375 L 7.625 15.78125 L 10.40625 11.96875 L 13 12.625 L 11.6875 18.125 C 11.38421 19.387678 11.999012 20.695678 13.15625 21.28125 L 17.0625 23.25 L 19.125 26 L 6.96875 26 L 6.96875 28 L 25.5625 28 L 25.5625 26 L 21.625 26 L 18.65625 22.0625 C 18.471141 21.813005 18.248476 21.608613 17.96875 21.46875 L 14.0625 19.5 C 13.721738 19.327572 13.56754 18.963072 13.65625 18.59375 L 14.90625 13.34375 L 16.5625 14.21875 L 15.8125 17.78125 L 15.5625 19 L 16.8125 19 L 20.34375 19 L 23.28125 22.96875 L 24.875 21.78125 L 21.9375 17.8125 C 21.561131 17.299998 20.978312 17 20.34375 17 L 18.03125 17 L 18.46875 15 L 21.90625 15 C 22.282193 15 22.651219 14.885957 22.96875 14.6875 L 26.875 12.25 L 25.8125 10.53125 L 21.90625 13 L 18.4375 13 L 14.6875 11.03125 L 14.59375 10.96875 L 14.46875 10.9375 L 10.875 10.03125 C 10.678047 9.9818871 10.477121 9.9558039 10.28125 9.96875 z" overflow="visible" font-family="Bitstream Vera Sans" fill="#000000"/></svg>
