<?xml version="1.0" encoding="utf-8"?>
<svg xmlns="http://www.w3.org/2000/svg" viewBox="0 0 32 32" fill="#000000"><path style="text-indent:0;text-align:start;line-height:normal;text-transform:none;block-progression:tb;-inkscape-font-specification:Bitstream Vera Sans" d="M 15 3 L 15 8 L 17 8 L 17 3 L 15 3 z M 7.5 6.09375 L 6.09375 7.5 L 9.625 11.0625 L 11.0625 9.625 L 7.5 6.09375 z M 24.5 6.09375 L 20.9375 9.625 L 22.375 11.0625 L 25.90625 7.5 L 24.5 6.09375 z M 16 9 C 13.224059 9 10.818815 10.642708 9.6875 13 L 4 13 L 4 15 L 14 15 L 14 13 L 12.03125 13 C 12.942451 11.793349 14.364933 11 16 11 C 18.773666 11 21 13.226334 21 16 C 21 18.773666 18.773666 21 16 21 L 14 21 L 14 23 L 16 23 C 19.854334 23 23 19.854334 23 16 C 23 12.145666 19.854334 9 16 9 z M 24 15 L 24 17 L 29 17 L 29 15 L 24 15 z M 7 17 L 7 19 L 17 19 L 17 17 L 7 17 z M 22.375 20.9375 L 20.9375 22.375 L 24.5 25.90625 L 25.90625 24.5 L 22.375 20.9375 z M 4 21 L 4 23 L 12 23 L 12 21 L 4 21 z M 15 24 L 15 29 L 17 29 L 17 24 L 15 24 z" fill="#000000"/></svg>
