<?xml version="1.0" encoding="utf-8"?>
<svg xmlns="http://www.w3.org/2000/svg" viewBox="0 0 32 32" fill="#000000"><path style="text-indent:0;text-align:start;line-height:normal;text-transform:none;block-progression:tb;-inkscape-font-specification:Bitstream Vera Sans" d="M 5 6 L 5 7 L 5 14 L 7 14 L 7 11 L 9 11 L 9 9 L 7 9 L 7 8 L 10 8 L 10 6 L 6 6 L 5 6 z M 11 6 L 11 11 C 11 12.64497 12.35503 14 14 14 C 15.64497 14 17 12.64497 17 11 L 17 6 L 15 6 L 15 11 C 15 11.56503 14.56503 12 14 12 C 13.43497 12 13 11.56503 13 11 L 13 6 L 11 6 z M 18 6 L 18 13 L 18 14 L 19 14 L 22 14 L 22 12 L 20 12 L 20 6 L 18 6 z M 23 6 L 23 13 L 23 14 L 24 14 L 27 14 L 27 12 L 25 12 L 25 6 L 23 6 z M 5 16 L 5 17 L 5 26 L 7 26 L 7 18 L 15 18 L 15 22.5625 L 13.71875 21.28125 L 12.28125 22.71875 L 15.28125 25.71875 L 16 26.40625 L 16.71875 25.71875 L 19.71875 22.71875 L 18.28125 21.28125 L 17 22.5625 L 17 18 L 25 18 L 25 26 L 27 26 L 27 17 L 27 16 L 26 16 L 6 16 L 5 16 z" fill="#000000"/></svg>
