<?xml version="1.0" encoding="utf-8"?>
<svg xmlns="http://www.w3.org/2000/svg" viewBox="0 0 32 32" fill="#000000"><path style="text-indent:0;text-align:start;line-height:normal;text-transform:none;block-progression:tb;-inkscape-font-specification:Sans" d="M 26.71875 3 L 26 3.5625 L 9.46875 17.125 L 3.5625 20.09375 L 3 20.375 L 3 21 C 3 25.56542 6.5647933 29 11 29 L 11.625 29 L 11.90625 28.4375 L 14.90625 22.4375 L 28.40625 5.96875 L 29 5.28125 L 28.34375 4.625 L 27.34375 3.625 L 26.71875 3 z M 25.03125 6.96875 L 18.90625 14.46875 L 17.53125 13.09375 L 25.03125 6.96875 z M 15.96875 14.40625 L 17.59375 16.03125 L 13.9375 20.5 L 11.5 18.0625 L 15.96875 14.40625 z M 9.78125 19.21875 L 12.78125 22.21875 L 10.4375 26.90625 C 8.8585001 26.771913 7.5366794 26.111697 6.59375 25.0625 L 9.59375 22.8125 L 8.40625 21.1875 L 5.5625 23.34375 C 5.3475403 22.792539 5.1800281 22.209733 5.125 21.5625 L 9.78125 19.21875 z" overflow="visible" font-family="Sans" fill="#000000"/></svg>
