<?xml version="1.0" encoding="utf-8"?>
<svg xmlns="http://www.w3.org/2000/svg" viewBox="0 0 32 32" fill="#000000"><path style="text-indent:0;text-align:start;line-height:normal;text-transform:none;block-progression:tb;-inkscape-font-specification:Sans" d="M 15 1 L 15 5.0625 C 14.682784 5.0968254 14.373707 5.1346271 14.0625 5.1875 C 13.692483 5.2504585 13.325517 5.3073348 12.96875 5.40625 C 12.851011 5.4388157 12.74114 5.4949018 12.625 5.53125 C 12.403514 5.6007404 12.184043 5.6671609 11.96875 5.75 C 11.802306 5.8138401 11.631226 5.865922 11.46875 5.9375 C 10.545647 6.3450504 9.7068781 6.9014069 8.9375 7.53125 L 8.90625 7.53125 L 6.09375 4.6875 L 4.6875 6.09375 L 7.5 8.90625 C 7.4805995 8.9282778 7.4561476 8.9463301 7.4375 8.96875 C 7.1668487 9.2939736 6.9185361 9.6435276 6.6875 10 L 2 10 L 2 12 L 5.8125 12 C 5.7872656 12.044565 5.7373897 12.075581 5.71875 12.125 C 5.52375 12.642 5.76425 13.21125 6.28125 13.40625 C 6.79825 13.60125 7.39875 13.3285 7.59375 12.8125 C 7.7000839 12.530579 7.6634032 12.245934 7.53125 12 L 24.46875 12 C 24.336597 12.245934 24.299916 12.530579 24.40625 12.8125 C 24.60125 13.3285 25.20175 13.60125 25.71875 13.40625 C 26.23575 13.21125 26.47625 12.642 26.28125 12.125 C 26.26261 12.075581 26.212734 12.04455 26.1875 12 L 30 12 L 30 10 L 25.125 10 C 24.900852 9.6544609 24.666922 9.3170076 24.40625 9 L 27.3125 6.09375 L 25.90625 4.6875 L 23 7.59375 C 22.878112 7.485388 22.753519 7.3802177 22.625 7.28125 C 22.583931 7.2495752 22.541526 7.2186045 22.5 7.1875 C 21.719696 6.6038962 20.858431 6.1444973 19.9375 5.78125 C 19.773395 5.7166458 19.605319 5.6505874 19.4375 5.59375 C 19.241422 5.5272598 19.044506 5.4618434 18.84375 5.40625 C 18.82433 5.4008825 18.800712 5.4115136 18.78125 5.40625 C 18.330912 5.2841925 17.876799 5.1581381 17.40625 5.09375 C 17.314122 5.0811869 17.217827 5.0727653 17.125 5.0625 C 17.084069 5.05797 17.041081 5.0664929 17 5.0625 L 17 1 L 15 1 z M 15.90625 7 C 16.323846 7 16.722512 7.0390485 17.125 7.09375 C 17.377475 7.1277363 17.629584 7.164409 17.875 7.21875 C 17.926606 7.2302677 17.979983 7.2376051 18.03125 7.25 C 18.210771 7.2930995 18.38734 7.3526318 18.5625 7.40625 C 19.23598 7.6136037 19.873069 7.8997364 20.46875 8.25 C 20.4884 8.2615069 20.511695 8.269599 20.53125 8.28125 C 20.8451 8.4690487 21.150044 8.6829183 21.4375 8.90625 C 21.638921 9.0629554 21.844115 9.2333122 22.03125 9.40625 C 22.052927 9.4263205 22.072272 9.4484697 22.09375 9.46875 C 22.277933 9.6423746 22.455315 9.8142724 22.625 10 L 9.21875 10 C 9.2696461 9.9465417 9.3249658 9.897072 9.375 9.84375 C 9.4513555 9.7622065 9.5144567 9.6723925 9.59375 9.59375 C 9.843249 9.3463459 10.09857 9.1231727 10.375 8.90625 C 10.631559 8.7057597 10.909659 8.515765 11.1875 8.34375 C 11.219391 8.3238492 11.249094 8.3007579 11.28125 8.28125 C 11.300888 8.2694289 11.324014 8.2616742 11.34375 8.25 C 11.636507 8.0755183 11.936874 7.9219395 12.25 7.78125 C 12.381296 7.7227633 12.521671 7.6772632 12.65625 7.625 C 12.831912 7.556208 13.006536 7.4952858 13.1875 7.4375 C 13.727746 7.2657529 14.294548 7.1292937 14.875 7.0625 C 15.21266 7.0240471 15.557452 7 15.90625 7 z M 11 14 L 11 22 L 13 22 L 13 14 L 11 14 z M 16.5 14 C 15.130937 14 14 15.130937 14 16.5 L 14 17 L 16 17 L 16 16.5 C 16 16.213063 16.213063 16 16.5 16 C 16.786937 16 17 16.213063 17 16.5 L 17 17.34375 C 17 17.484385 16.94618 17.624908 16.84375 17.71875 L 14.3125 20 L 14 20.3125 L 14 20.75 L 14 21 L 14 22 L 15 22 L 19 22 L 19 20 L 17.3125 20 L 18.1875 19.1875 C 18.705067 18.713342 19 18.043115 19 17.34375 L 19 16.5 C 19 15.130937 17.869063 14 16.5 14 z M 21 14 C 20.447715 14 20 14.447715 20 15 C 20 15.552285 20.447715 16 21 16 C 21.552285 16 22 15.552285 22 15 C 22 14.447715 21.552285 14 21 14 z M 2 15 C 1.448 15 1 15.448 1 16 C 1 16.552 1.448 17 2 17 C 2.552 17 3 16.552 3 16 C 3 15.448 2.552 15 2 15 z M 6 15 C 5.448 15 5 15.448 5 16 C 5 16.552 5.448 17 6 17 C 6.552 17 7 16.552 7 16 C 7 15.448 6.552 15 6 15 z M 26 15 C 25.448 15 25 15.448 25 16 C 25 16.552 25.448 17 26 17 C 26.552 17 27 16.552 27 16 C 27 15.448 26.552 15 26 15 z M 30 15 C 29.448 15 29 15.448 29 16 C 29 16.552 29.448 17 30 17 C 30.552 17 31 16.552 31 16 C 31 15.448 30.552 15 30 15 z M 6.78125 18.8125 C 6.651375 18.811516 6.5025 18.8535 6.375 18.90625 C 5.865 19.11825 5.63275 19.70875 5.84375 20.21875 C 6.05475 20.72975 6.64525 20.962 7.15625 20.75 C 7.66625 20.538 7.8985 19.9475 7.6875 19.4375 C 7.5285 19.055 7.170875 18.815453 6.78125 18.8125 z M 25.21875 18.8125 C 24.82875 18.815453 24.47075 19.055 24.3125 19.4375 C 24.1015 19.9485 24.33375 20.539 24.84375 20.75 C 25.35475 20.962 25.94525 20.72975 26.15625 20.21875 C 26.36725 19.70775 26.135 19.11725 25.625 18.90625 C 25.49725 18.8535 25.34875 18.811516 25.21875 18.8125 z M 8.9375 22.0625 C 8.6815 22.0625 8.41375 22.1795 8.21875 22.375 C 7.82875 22.766 7.82875 23.39125 8.21875 23.78125 C 8.60875 24.17225 9.234 24.17225 9.625 23.78125 C 10.015 23.39025 10.015 22.765 9.625 22.375 C 9.43 22.1795 9.1935 22.0625 8.9375 22.0625 z M 23.0625 22.0625 C 22.934563 22.062438 22.807922 22.107453 22.6875 22.15625 C 22.567078 22.205047 22.47275 22.27725 22.375 22.375 C 21.984 22.765 21.984 23.39025 22.375 23.78125 C 22.5705 23.97675 22.806625 24.0625 23.0625 24.0625 C 23.318375 24.0625 23.58625 23.97675 23.78125 23.78125 C 24.17125 23.39125 24.17125 22.766 23.78125 22.375 C 23.58625 22.18 23.318375 22.062625 23.0625 22.0625 z M 12.1875 24.25 C 11.797781 24.253281 11.40825 24.49175 11.25 24.875 C 11.04 25.386 11.3015 25.94525 11.8125 26.15625 C 12.3235 26.36725 12.915 26.135 13.125 25.625 C 13.336 25.114 13.0735 24.5235 12.5625 24.3125 C 12.43475 24.25975 12.317406 24.248906 12.1875 24.25 z M 19.8125 24.25 C 19.682594 24.248828 19.56525 24.25975 19.4375 24.3125 C 18.9275 24.5235 18.664 25.114 18.875 25.625 C 19.086 26.135 19.6765 26.36725 20.1875 26.15625 C 20.6975 25.94525 20.961 25.386 20.75 24.875 C 20.59175 24.4925 20.202219 24.253516 19.8125 24.25 z M 6.09375 24.90625 C 5.83775 24.90625 5.60125 24.9925 5.40625 25.1875 C 5.01625 25.5775 5.01625 26.20375 5.40625 26.59375 C 5.79625 26.98475 6.4215 26.98475 6.8125 26.59375 C 7.2025 26.20375 7.2025 25.5775 6.8125 25.1875 C 6.6175 24.9925 6.34975 24.90625 6.09375 24.90625 z M 25.90625 24.90625 C 25.65025 24.90625 25.3825 24.9925 25.1875 25.1875 C 24.7975 25.5775 24.7975 26.20375 25.1875 26.59375 C 25.5785 26.98475 26.20375 26.98475 26.59375 26.59375 C 26.98375 26.20375 26.98375 25.5775 26.59375 25.1875 C 26.39875 24.9925 26.16225 24.90625 25.90625 24.90625 z M 16 25 C 15.448 25 15 25.448 15 26 C 15 26.552 15.448 27 16 27 C 16.552 27 17 26.552 17 26 C 17 25.448 16.552 25 16 25 z M 16 29 C 15.448 29 15 29.448 15 30 C 15 30.552 15.448 31 16 31 C 16.552 31 17 30.552 17 30 C 17 29.448 16.552 29 16 29 z" fill="#000000"/></svg>
