<?xml version="1.0" encoding="utf-8"?>
<svg xmlns="http://www.w3.org/2000/svg" viewBox="0 0 32 32" fill="#000000"><path d="M 8 3 L 8 9 L 3 10.5 L 6.5 14 L 4 19 L 9 19 L 9 29 L 11 29 L 11 19.849609 C 12.296392 20.409692 13.66047 20.986407 16.003906 21.923828 C 16.003542 21.94947 16 21.974274 16 22 C 16 24.231516 16.697404 26.046906 17.978516 27.251953 C 19.259627 28.457 21.037735 29 23 29 L 23 27 C 21.400265 27 20.177998 26.574125 19.349609 25.794922 C 18.637941 25.125508 18.155737 24.153287 18.033203 22.732422 C 19.348956 23.232064 20.532644 23.649241 21.351562 23.869141 C 21.637563 23.946141 21.928797 23.982422 22.216797 23.982422 C 24.039797 23.982422 25.801812 22.532453 26.132812 20.689453 L 27 16 L 24 18 C 19.312 18 18.199219 15 18.199219 15 C 18.552509 14.157784 19.277076 13.557085 20.121094 13.121094 L 21 14 L 21 12.738281 C 21.186784 12.669956 21.374167 12.618689 21.5625 12.5625 L 23 14 L 23 12.21875 C 23.058971 12.208499 23.124177 12.190921 23.181641 12.181641 L 25 14 L 25 12 L 28 14 L 28 9.1523438 C 28 7.6773438 27.001781 6.3167812 25.550781 6.0507812 C 25.363781 6.0157813 25.18 6 25 6 C 24.198125 6 23.483795 6.3350952 22.945312 6.8535156 L 21.5 3 L 20 7 L 14 7 L 8 3 z M 10 6.7363281 L 12.890625 8.6640625 L 13.394531 9 L 14 9 L 22.783203 9 L 23.671875 9 L 24.267578 8.3417969 C 24.382578 8.2137969 24.63 8 25 8 C 25.062 8 25.125453 8.0055781 25.189453 8.0175781 C 25.643453 8.1005781 26 8.5993438 26 9.1523438 L 26 10 L 25.605469 10 L 25.589844 9.9902344 L 25 10 L 24.966797 10 C 24.261797 10.012 18.031469 10.231563 16.355469 14.226562 L 16.050781 14.953125 L 16.324219 15.693359 C 16.917219 17.293359 19.201 20 24 20 L 24.226562 20 L 24.164062 20.337891 C 24.006062 21.214891 23.096797 21.982422 22.216797 21.982422 C 22.097797 21.982422 21.982094 21.9675 21.871094 21.9375 C 18.789094 21.1095 9.8946875 17.207969 9.8046875 17.167969 L 9.4199219 17 L 9 17 L 7.2363281 17 L 8.2890625 14.894531 L 8.9335938 13.605469 L 7.9140625 12.585938 L 6.7832031 11.453125 L 8.5761719 10.916016 L 10 10.488281 L 10 9 L 10 6.7363281 z M 13 10 C 13 10 13.229 12 15 12 C 16.771 12 18 10 18 10 L 13 10 z" fill="#000000"/></svg>
