<?xml version="1.0" encoding="utf-8"?>
<svg xmlns="http://www.w3.org/2000/svg" viewBox="0 0 32 32" fill="#000000"><path d="M 16 3 C 14.475483 3 13.30362 4.2076279 13.125 5.6875 C 10.705802 6.7910088 9 9.1771605 9 12 L 9 26 L 11 26 L 11 12 C 11 9.8156565 12.403862 7.9684153 14.34375 7.28125 L 15 7.0625 L 15 6.34375 L 15 6 C 15 5.4349698 15.43497 5 16 5 C 16.56503 5 17 5.4349698 17 6 L 17 6.34375 L 17 7.0625 L 17.65625 7.28125 C 19.595569 7.9673808 21 9.8156565 21 12 L 21 27 L 8 27 L 8 29 L 24 29 L 24 27 L 23 27 L 23 12 C 23 9.1771605 21.294629 6.7903675 18.875 5.6875 C 18.69638 4.2076279 17.524517 3 16 3 z M 16 11 C 14.895 11 14 11.96275 14 13.34375 C 14 15.39775 15.139 15.3155 15.625 17.5625 C 15.987 19.2365 14.85025 19.45225 15.28125 20.78125 C 15.62825 21.84925 17.3125 23 17.3125 23 C 17.3125 23 16.809 21.91525 16.5 20.90625 C 16.241 20.06025 17.36725 19.14775 17.15625 17.71875 C 16.84625 15.61375 18 15.46575 18 13.34375 C 18 11.96275 17.105 11 16 11 z" fill="#000000"/></svg>
