<?xml version="1.0" encoding="utf-8"?>
<svg xmlns="http://www.w3.org/2000/svg" viewBox="0 0 32 32" fill="#000000"><path style="text-indent:0;text-align:start;line-height:normal;text-transform:none;block-progression:tb;-inkscape-font-specification:Bitstream Vera Sans" d="M 3.71875 2.28125 L 2.28125 3.71875 L 28.28125 29.71875 L 29.71875 28.28125 L 21.875 20.4375 C 23.384341 18.202545 25 15.199437 25 12 C 25 7.589 21.411 4 17 4 C 13.87841 4 11.159683 5.7915436 9.84375 8.40625 L 3.71875 2.28125 z M 17 6 C 20.309 6 23 8.691 23 12 C 23 14.531291 21.725141 17.031485 20.4375 19 L 14.03125 12.59375 C 14.218188 11.090198 15.42862 10 17 10 C 18.078 10 19.093 10.59125 19.625 11.53125 L 21.34375 10.53125 C 20.45675 8.96725 18.797 8 17 8 C 14.922351 8 13.170289 9.2034534 12.40625 10.96875 L 11.375 9.9375 C 12.217278 7.6410713 14.414844 6 17 6 z M 11.15625 15.34375 L 11 15.46875 L 11 16 C 11 17.429 12.21625 17.98175 13.03125 18.34375 C 13.78125 18.67675 14 18.813 14 19 C 14 19.687 12.91625 20 11.90625 20 L 11.90625 22 C 13.86625 22 15.28225 21.227 15.78125 20 L 11.15625 15.34375 z M 9 22 L 9 23 C 9 25.757 11.243 28 14 28 C 16.905 28 17.999 26.1615 18.875 24.6875 C 19.084 24.3365 19.282 24.0025 19.5 23.6875 L 18.0625 22.25 C 18.0375 22.284 18.023 22.343 18 22.375 C 17.685 22.807 17.41025 23.2595 17.15625 23.6875 C 16.32125 25.0885 15.768 26 14 26 C 12.346 26 11 24.654 11 23 L 11 22 L 9 22 z" overflow="visible" font-family="Bitstream Vera Sans" fill="#000000"/></svg>
