<?xml version="1.0" encoding="utf-8"?>
<svg xmlns="http://www.w3.org/2000/svg" viewBox="0 0 32 32" fill="#000000"><path d="M 15 7 A 1 1 0 0 0 14 8 A 1 1 0 0 0 15 9 A 1 1 0 0 0 16 8 A 1 1 0 0 0 15 7 z M 18 7 A 1 1 0 0 0 17 8 A 1 1 0 0 0 18 9 A 1 1 0 0 0 19 8 A 1 1 0 0 0 18 7 z M 12 8 A 1 1 0 0 0 11 9 A 1 1 0 0 0 12 10 A 1 1 0 0 0 13 9 A 1 1 0 0 0 12 8 z M 21 8 A 1 1 0 0 0 20 9 A 1 1 0 0 0 21 10 A 1 1 0 0 0 22 9 A 1 1 0 0 0 21 8 z M 10.125 9.96875 A 1 1 0 0 0 9.125 10.96875 A 1 1 0 0 0 10.125 11.96875 A 1 1 0 0 0 11.125 10.96875 A 1 1 0 0 0 10.125 9.96875 z M 23 10 A 1 1 0 0 0 22 11 A 1 1 0 0 0 23 12 A 1 1 0 0 0 24 11 A 1 1 0 0 0 23 10 z M 7.3925781 10.490234 A 1 1 0 0 0 6.5429688 10.933594 A 1 1 0 0 0 6.8183594 12.322266 A 1 1 0 0 0 8.2070312 12.044922 A 1 1 0 0 0 7.9316406 10.658203 A 1 1 0 0 0 7.3925781 10.490234 z M 5.1679688 12.332031 A 1 1 0 0 0 4.1679688 13.332031 A 1 1 0 0 0 5.1679688 14.332031 A 1 1 0 0 0 6.1679688 13.332031 A 1 1 0 0 0 5.1679688 12.332031 z M 23.417969 12.75 A 1 1 0 0 0 22.417969 13.75 A 1 1 0 0 0 23.417969 14.75 A 1 1 0 0 0 24.417969 13.75 A 1 1 0 0 0 23.417969 12.75 z M 26.207031 14 A 1 1 0 0 0 25.207031 15 A 1 1 0 0 0 26.207031 16 A 1 1 0 0 0 27.207031 15 A 1 1 0 0 0 26.207031 14 z M 4 15 A 1 1 0 0 0 3 16 A 1 1 0 0 0 4 17 A 1 1 0 0 0 5 16 A 1 1 0 0 0 4 15 z M 28.197266 16.353516 A 1 1 0 0 0 27.197266 17.353516 A 1 1 0 0 0 28.197266 18.353516 A 1 1 0 0 0 29.197266 17.353516 A 1 1 0 0 0 28.197266 16.353516 z M 3 18 A 1 1 0 0 0 2 19 A 1 1 0 0 0 3 20 A 1 1 0 0 0 4 19 A 1 1 0 0 0 3 18 z M 28.990234 19.509766 A 1 1 0 0 0 27.990234 20.509766 A 1 1 0 0 0 28.990234 21.509766 A 1 1 0 0 0 29.990234 20.509766 A 1 1 0 0 0 28.990234 19.509766 z M 3.8125 21.0625 A 1 1 0 0 0 2.8125 22.0625 A 1 1 0 0 0 3.8125 23.0625 A 1 1 0 0 0 4.8125 22.0625 A 1 1 0 0 0 3.8125 21.0625 z M 27.396484 22.021484 A 1 1 0 0 0 26.396484 23.021484 A 1 1 0 0 0 27.396484 24.021484 A 1 1 0 0 0 28.396484 23.021484 A 1 1 0 0 0 27.396484 22.021484 z M 24.332031 22.957031 A 1 1 0 0 0 23.332031 23.957031 A 1 1 0 0 0 24.332031 24.957031 A 1 1 0 0 0 25.332031 23.957031 A 1 1 0 0 0 24.332031 22.957031 z M 6 23 A 1 1 0 0 0 5 24 A 1 1 0 0 0 6 25 A 1 1 0 0 0 7 24 A 1 1 0 0 0 6 23 z M 9 23 A 1 1 0 0 0 8 24 A 1 1 0 0 0 9 25 A 1 1 0 0 0 10 24 A 1 1 0 0 0 9 23 z M 12 23 A 1 1 0 0 0 11 24 A 1 1 0 0 0 12 25 A 1 1 0 0 0 13 24 A 1 1 0 0 0 12 23 z M 15 23 A 1 1 0 0 0 14 24 A 1 1 0 0 0 15 25 A 1 1 0 0 0 16 24 A 1 1 0 0 0 15 23 z M 18 23 A 1 1 0 0 0 17 24 A 1 1 0 0 0 18 25 A 1 1 0 0 0 19 24 A 1 1 0 0 0 18 23 z M 21 23 A 1 1 0 0 0 20 24 A 1 1 0 0 0 21 25 A 1 1 0 0 0 22 24 A 1 1 0 0 0 21 23 z" fill="#000000"/></svg>
