<?xml version="1.0" encoding="utf-8"?>
<svg xmlns="http://www.w3.org/2000/svg" viewBox="0 0 32 32" fill="#000000"><path style="text-indent:0;text-align:start;line-height:normal;text-transform:none;block-progression:tb;-inkscape-font-specification:Sans" d="M 6 3 L 6 4 L 6 10 L 8 10 L 8 5 L 24 5 L 24 10 L 26 10 L 26 4 L 26 3 L 25 3 L 7 3 L 6 3 z M 10.5 12 C 9.1309372 12 8 13.130937 8 14.5 L 8 17.5 C 8 18.869063 9.1309372 20 10.5 20 C 11.869063 20 13 18.869063 13 17.5 L 13 17 L 11 17 L 11 17.5 C 11 17.786937 10.786937 18 10.5 18 C 10.213063 18 10 17.786937 10 17.5 L 10 14.5 C 10 14.213063 10.213063 14 10.5 14 C 10.786937 14 11 14.213063 11 14.5 L 11 15 L 13 15 L 13 14.5 C 13 13.130937 11.869063 12 10.5 12 z M 14 12 L 14 13 L 14 20 L 16 20 L 16 17 L 17 20 L 19 20 L 17.875 16.59375 C 18.559476 16.145217 19 15.370145 19 14.5 C 19 13.130937 17.869063 12 16.5 12 L 15 12 L 14 12 z M 22.5 12 C 21.130937 12 20 13.130937 20 14.5 L 20 15 L 22 15 L 22 14.5 C 22 14.213063 22.213063 14 22.5 14 C 22.786937 14 23 14.213063 23 14.5 L 23 15.34375 C 23 15.484385 22.94618 15.624908 22.84375 15.71875 L 20.3125 18 L 20 18.3125 L 20 18.75 L 20 19 L 20 20 L 21 20 L 25 20 L 25 18 L 23.3125 18 L 24.1875 17.1875 C 24.705067 16.713342 25 16.043115 25 15.34375 L 25 14.5 C 25 13.130937 23.869063 12 22.5 12 z M 16 14 L 16.5 14 C 16.786937 14 17 14.213063 17 14.5 C 17 14.786937 16.786937 15 16.5 15 L 16 15 L 16 14 z M 6 22 L 6 28 L 6 29 L 7 29 L 25 29 L 26 29 L 26 28 L 26 22 L 24 22 L 24 27 L 8 27 L 8 22 L 6 22 z" overflow="visible" font-family="Sans" fill="#000000"/></svg>
