<?xml version="1.0" encoding="utf-8"?>
<svg xmlns="http://www.w3.org/2000/svg" viewBox="0 0 32 32" fill="#000000"><path d="M 27.59375 5.375 L 15 7.40625 L 15 9.21875 L 27.875 7.375 L 27.59375 5.375 z M 12.90625 5.96875 A 1.0001 1.0001 0 0 0 12.78125 6 A 1.0001 1.0001 0 0 0 12 7 L 12 13 A 1.0001 1.0001 0 1 0 14 13 L 14 7 A 1.0001 1.0001 0 0 0 12.90625 5.96875 z M 9.8125 6.40625 A 1.0001 1.0001 0 0 0 9 7.4375 L 9 13 A 1.0001 1.0001 0 1 0 11 13 L 11 7.4375 A 1.0001 1.0001 0 0 0 10 6.40625 A 1.0001 1.0001 0 0 0 9.90625 6.40625 A 1.0001 1.0001 0 0 0 9.8125 6.40625 z M 6.90625 6.96875 A 1.0001 1.0001 0 0 0 6.78125 7 A 1.0001 1.0001 0 0 0 6 8 L 6 8.875 L 3.875 9.21875 L 4.125 10.78125 L 6 10.53125 L 6 11.1875 L 4 11.1875 L 4 12.8125 L 6 12.8125 L 6 17 L 5 17 L 4 17 L 4 18 L 4 20 C 4 23.499079 6.6383115 26.273618 10 26.78125 L 10 27 L 10 28 L 11 28 L 22 28 L 23 28 L 23 27 L 23 26.59375 C 25.863662 25.715165 28 23.141284 28 20 L 28 18 L 28 17 L 27 17 L 8 17 L 8 8 A 1.0001 1.0001 0 0 0 6.90625 6.96875 z M 28 11 L 15 11.09375 L 15 12.90625 L 28 13 L 28 11 z M 6 19 L 6.8125 19 L 7.21875 19 L 26 19 L 26 20 C 26 22.486805 24.208084 24.539972 21.84375 24.9375 L 21 25.0625 L 21 25.90625 L 21 26 L 12 26 L 12 25 L 11 25 C 8.2263339 25 6 22.773666 6 20 L 6 19 z" fill="#000000"/></svg>
