<?xml version="1.0" encoding="utf-8"?>
<svg xmlns="http://www.w3.org/2000/svg" viewBox="0 0 32 32" fill="#000000"><path style="text-indent:0;text-align:start;line-height:normal;text-transform:none;block-progression:tb;-inkscape-font-specification:Bitstream Vera Sans" d="M 4 5 L 4 6 L 4 14 L 4 15 L 4 21 C 4 22.64497 5.3550302 24 7 24 L 7.09375 24 C 7.5607676 26.276299 9.587625 28 12 28 C 13.642058 28 15.089125 27.195767 16 25.96875 C 16.910875 27.195767 18.357942 28 20 28 C 22.412375 28 24.439232 26.276299 24.90625 24 L 28 24 L 29.46875 24 L 28.9375 22.625 L 28.15625 20.65625 C 28.642997 19.902976 28.987917 19.031152 29 18.0625 C 29.035948 15.299448 26.682491 13.147015 24 13.03125 L 24 10 L 25 10 L 25 8 L 18 8 L 18 10 L 19 10 L 19 13 L 13 13 L 13 7 L 15 7 L 15 5 L 5 5 L 4 5 z M 6 7 L 11 7 L 11 13 L 6 13 L 6 7 z M 21 10 L 22 10 L 22 14 L 22 15 L 23 15 L 23.78125 15 C 25.466855 15 27.021053 16.413039 27 18.03125 C 26.9911 18.747883 26.723391 19.383024 26.28125 19.90625 L 25.90625 20.375 L 26.125 20.9375 L 26.53125 22 L 24.90625 22 C 24.439232 19.723701 22.412375 18 20 18 C 18.357942 18 16.910875 18.804233 16 20.03125 C 15.089125 18.804233 13.642058 18 12 18 C 9.587625 18 7.5607676 19.723701 7.09375 22 L 7 22 C 6.4349698 22 6 21.56503 6 21 L 6 15 L 12 15 L 20 15 L 21 15 L 21 14 L 21 10 z M 12 20 C 12.883 20 13.66875 20.391 14.21875 21 L 15.4375 21 L 16.5625 21 L 17.78125 21 C 18.33025 20.391 19.117 20 20 20 C 21.654 20 23 21.346 23 23 C 23 24.654 21.654 26 20 26 C 19.117 26 18.33125 25.609 17.78125 25 L 16.5625 25 L 15.4375 25 L 14.21875 25 C 13.66975 25.609 12.883 26 12 26 C 10.346 26 9 24.654 9 23 C 9 21.346 10.346 20 12 20 z M 12 22 L 12 24 L 20 24 L 20 22 L 12 22 z" overflow="visible" font-family="Bitstream Vera Sans" fill="#000000"/></svg>
