<?xml version="1.0" encoding="utf-8"?>
<svg xmlns="http://www.w3.org/2000/svg" viewBox="0 0 32 32" fill="#000000"><path style="text-indent:0;text-align:start;line-height:normal;text-transform:none;block-progression:tb;-inkscape-font-specification:Bitstream Vera Sans" d="M 13 4 C 11.539209 4 10.320135 5.077501 10.0625 6.46875 C 8.5764615 6.7179504 7.2900208 7.0622203 6.28125 7.5 C 5.6832031 7.7595364 5.1630029 8.0523945 4.75 8.4375 C 4.3369971 8.8226055 4 9.3575932 4 10 L 4 14 C 4 14.786824 4.456201 15.37806 5.03125 15.8125 C 5.0702919 16.180571 5.2547487 17.777514 5.46875 19.8125 C 5.5874075 20.940841 5.7135651 22.103658 5.8125 23 C 5.861968 23.448171 5.902487 23.831518 5.9375 24.125 C 5.972513 24.418482 5.990598 24.549899 6.03125 24.75 C 6.1839962 25.498513 6.6906391 25.974929 7.28125 26.34375 C 7.8718609 26.712571 8.6096514 26.97768 9.46875 27.21875 C 11.186947 27.70089 13.438995 28 16 28 C 18.560267 28 20.836052 27.730766 22.5625 27.25 C 23.425724 27.009617 24.158134 26.716499 24.75 26.34375 C 25.341866 25.971001 25.879523 25.459935 26 24.6875 C 26.04173 24.419665 26.08987 23.894737 26.1875 23 C 26.28513 22.105263 26.411139 20.940392 26.53125 19.8125 C 26.747873 17.778323 26.930147 16.180706 26.96875 15.8125 C 27.543799 15.37806 28 14.786824 28 14 L 28 10 C 28 9.0903768 27.383594 8.4488414 26.6875 8 C 25.991406 7.5511586 25.088848 7.1946737 24.03125 6.90625 C 21.916054 6.3294026 19.11119 6 16 6 C 15.936394 6 15.875871 6.0003895 15.8125 6 C 15.394282 4.8442551 14.292017 4 13 4 z M 13 6 C 13.564129 6 14 6.4358709 14 7 C 14 7.5641291 13.564129 8 13 8 C 12.435871 8 12 7.5641291 12 7 C 12 6.4358709 12.435871 6 13 6 z M 15.8125 8 C 15.875059 8.00042 15.936871 8 16 8 C 18.96381 8 21.633946 8.3348474 23.5 8.84375 C 24.433027 9.0982013 25.176563 9.4184976 25.59375 9.6875 C 25.864922 9.8623516 25.970016 9.9640025 26 10 C 25.995387 10.005538 26.007907 10.022088 26 10.03125 C 25.956514 10.081642 25.823204 10.16455 25.59375 10.3125 C 25.176563 10.581502 24.433027 10.901799 23.5 11.15625 C 21.633946 11.665153 18.96381 12 16 12 C 13.03619 12 10.366054 11.665153 8.5 11.15625 C 7.5669728 10.901799 6.8234373 10.581502 6.40625 10.3125 C 6.1350783 10.137649 6.0299838 10.035998 6 10 C 5.9953871 9.9944619 6.0021973 9.9705414 6 9.96875 C 6.0146673 9.9456348 6.0553159 9.9399775 6.125 9.875 C 6.2842783 9.7264805 6.5994219 9.5134636 7.0625 9.3125 C 7.8437321 8.9734661 8.9982535 8.6692422 10.375 8.4375 C 10.887691 9.3656601 11.874008 10 13 10 C 14.292017 10 15.394282 9.1557449 15.8125 8 z M 6 12.375 C 6.5702281 12.651448 7.229421 12.892123 7.96875 13.09375 C 10.083946 13.670597 12.88881 14 16 14 C 19.11119 14 21.916054 13.670597 24.03125 13.09375 C 24.770579 12.892123 25.429772 12.651448 26 12.375 L 26 13.96875 C 25.983521 13.982186 25.906643 14.11075 25.59375 14.3125 C 25.176563 14.581502 24.433027 14.901799 23.5 15.15625 C 23.04255 15.281004 22.546573 15.398535 22 15.5 L 22 15 L 20 15 L 20 15.78125 C 19.065196 15.885066 18.053382 15.941224 17 15.96875 L 17 15 L 15 15 L 15 15.96875 C 13.946618 15.941224 12.934804 15.885066 12 15.78125 L 12 15 L 10 15 L 10 15.5 C 9.4534271 15.398535 8.9574496 15.281004 8.5 15.15625 C 7.5669728 14.901799 6.8234373 14.581502 6.40625 14.3125 C 6.1350783 14.137649 6.0299838 14.035998 6 14 L 6 12.375 z M 7.1875 16.8125 C 7.4472752 16.899876 7.6857943 17.016583 7.96875 17.09375 C 8.5822916 17.261072 9.2797608 17.376316 10 17.5 L 10 19 L 12 19 L 12 17.78125 C 12.951511 17.879046 13.949424 17.944133 15 17.96875 L 15 19 L 17 19 L 17 17.96875 C 18.050576 17.944133 19.048489 17.879046 20 17.78125 L 20 19 L 22 19 L 22 17.5 C 22.720239 17.376316 23.417708 17.261072 24.03125 17.09375 C 24.314206 17.016583 24.552725 16.899876 24.8125 16.8125 C 24.724577 17.657802 24.68224 18.20714 24.53125 19.625 C 24.411236 20.751983 24.284776 21.889768 24.1875 22.78125 C 24.092066 23.655813 24.001302 24.360901 24 24.375 C 23.984915 24.380941 23.910163 24.496357 23.65625 24.65625 C 23.317741 24.869438 22.770526 25.106633 22.03125 25.3125 C 20.552698 25.724234 18.410733 26 16 26 C 13.590005 26 11.471303 25.72536 10 25.3125 C 9.2643486 25.10607 8.6893266 24.872054 8.34375 24.65625 C 7.9981734 24.440446 7.9515038 24.259237 7.96875 24.34375 C 7.9836516 24.417101 7.9400066 24.157952 7.90625 23.875 C 7.8724934 23.592048 7.8303607 23.226188 7.78125 22.78125 C 7.6830287 21.891373 7.5872175 20.751534 7.46875 19.625 C 7.3197057 18.207705 7.2760635 17.657988 7.1875 16.8125 z" fill="#000000"/></svg>
