<?xml version="1.0" encoding="utf-8"?>
<svg xmlns="http://www.w3.org/2000/svg" viewBox="0 0 32 32" fill="#000000"><path d="M 14 3 C 10.145666 3 7 6.1456661 7 10 C 7 12.408959 8.2311687 14.552158 10.09375 15.8125 C 6.5262529 17.341707 4 20.87927 4 25 L 6 25 C 6 20.589 9.589 17 14 17 C 17.931 17 21.208 19.85075 21.875 23.59375 L 23.53125 21.9375 C 22.651783 19.202587 20.60453 16.989197 18 15.84375 C 19.09888 15.261363 20.143724 14.524664 21.09375 13.8125 C 23.158593 12.264642 24.71875 10.71875 24.71875 10.71875 L 25.40625 10 L 24.71875 9.3125 C 24.71875 9.3125 23.20752 7.737676 21.15625 6.1875 C 19.10498 4.637324 16.545819 3 14 3 z M 14 5 C 15.575181 5 18.01902 6.362676 19.9375 7.8125 C 21.392955 8.9124091 21.988139 9.532473 22.46875 10 C 21.975177 10.470775 21.371635 11.089011 19.90625 12.1875 C 17.969093 13.639642 15.494998 15 14 15 C 11.226334 15 9 12.773666 9 10 C 9 7.2263339 11.226334 5 14 5 z M 27.28125 20.28125 L 21 26.5625 L 17.71875 23.28125 L 16.28125 24.71875 L 20.28125 28.71875 L 21 29.40625 L 21.71875 28.71875 L 28.71875 21.71875 L 27.28125 20.28125 z" fill="#000000"/></svg>
