<?xml version="1.0" encoding="utf-8"?>
<svg xmlns="http://www.w3.org/2000/svg" viewBox="0 0 32 32" fill="#000000"><path d="M 21.634766 2 L 15.759766 5 L 3 5 L 3 28 L 4 28 L 16.236328 28 L 18.007812 27.113281 A 1 1 0 0 0 19 28 A 1 1 0 0 0 20 27 A 1 1 0 0 0 19.6875 26.273438 L 23 24.617188 L 23 2 L 21.634766 2 z M 21 4.5703125 L 21 23.382812 L 15.763672 26 L 5 26 L 5 7 L 16.240234 7 L 21 4.5703125 z M 25 5 A 1 1 0 0 0 24 6 A 1 1 0 0 0 25 7 A 1 1 0 0 0 26 6 A 1 1 0 0 0 25 5 z M 28 5 A 1 1 0 0 0 27 6 A 1 1 0 0 0 28 7 A 1 1 0 0 0 29 6 A 1 1 0 0 0 28 5 z M 16 8 A 1 1 0 0 0 15 9 A 1 1 0 0 0 16 10 A 1 1 0 0 0 17 9 A 1 1 0 0 0 16 8 z M 28 8 A 1 1 0 0 0 27 9 A 1 1 0 0 0 28 10 A 1 1 0 0 0 29 9 A 1 1 0 0 0 28 8 z M 28 11 A 1 1 0 0 0 27 12 A 1 1 0 0 0 28 13 A 1 1 0 0 0 29 12 A 1 1 0 0 0 28 11 z M 16 12 L 16 14 L 12 14 C 10.35503 14 9 15.35503 9 17 L 9 22 L 11 22 L 11 17 C 11 16.43497 11.43497 16 12 16 L 16 16 L 16 18 L 19 15 L 16 12 z M 28 14 A 1 1 0 0 0 27 15 A 1 1 0 0 0 28 16 A 1 1 0 0 0 29 15 A 1 1 0 0 0 28 14 z M 28 17 A 1 1 0 0 0 27 18 A 1 1 0 0 0 28 19 A 1 1 0 0 0 29 18 A 1 1 0 0 0 28 17 z M 16 20 A 1 1 0 0 0 15 21 A 1 1 0 0 0 16 22 A 1 1 0 0 0 17 21 A 1 1 0 0 0 16 20 z M 28 20 A 1 1 0 0 0 27 21 A 1 1 0 0 0 28 22 A 1 1 0 0 0 29 21 A 1 1 0 0 0 28 20 z M 16 23 A 1 1 0 0 0 15 24 A 1 1 0 0 0 16 25 A 1 1 0 0 0 17 24 A 1 1 0 0 0 16 23 z M 28 23 A 1 1 0 0 0 27 24 A 1 1 0 0 0 28 25 A 1 1 0 0 0 29 24 A 1 1 0 0 0 28 23 z M 22 26 A 1 1 0 0 0 21 27 A 1 1 0 0 0 22 28 A 1 1 0 0 0 23 27 A 1 1 0 0 0 22 26 z M 25 26 A 1 1 0 0 0 24 27 A 1 1 0 0 0 25 28 A 1 1 0 0 0 26 27 A 1 1 0 0 0 25 26 z M 28 26 A 1 1 0 0 0 27 27 A 1 1 0 0 0 28 28 A 1 1 0 0 0 29 27 A 1 1 0 0 0 28 26 z" fill="#000000"/></svg>
