<?xml version="1.0" encoding="utf-8"?>
<svg xmlns="http://www.w3.org/2000/svg" viewBox="0 0 32 32" fill="#000000"><path d="M 18 5 C 14.334201 5 11.55387 5.8617415 9.6875 7.625 C 7.8211295 9.3882585 7 11.957531 7 15 L 7 15.90625 C 6.4276098 16.450747 6 17.148819 6 18 C 6 19.259707 6.8910537 20.154489 8 20.59375 C 8.3692613 21.761161 8.7732544 22.986611 9.21875 24.03125 C 9.7053304 25.172229 10.144451 26.078327 10.75 26.71875 C 13.619758 29.755021 18.380242 29.755021 21.25 26.71875 C 21.855549 26.078327 22.26342 25.172229 22.75 24.03125 C 23.195595 22.986377 23.630686 21.761406 24 20.59375 C 25.10937 20.154508 26 19.259707 26 18 C 26 17.153656 25.571 16.452514 25 15.90625 L 25 15 C 25 12.175936 24.356549 10.165508 23.21875 8.84375 C 22.25437 7.7234492 20.964503 7.265469 19.6875 7.125 L 18.90625 5.5625 L 18.625 5 L 18 5 z M 17.40625 7.0625 L 18.09375 8.4375 C 18.427489 9.1040777 18.556731 9.5783608 18.5625 9.78125 C 18.5683 9.9841392 18.57463 9.9009876 18.53125 9.9375 C 18.4445 10.010525 17.603383 10.228419 16.5625 10.28125 C 15.521617 10.33408 14.297738 10.30846 13.15625 10.75 C 12.014762 11.191536 11.013063 12.377418 11 14 L 13 14 C 13.0079 13.014082 13.236613 12.871933 13.875 12.625 C 14.513387 12.378067 15.612883 12.304544 16.6875 12.25 C 17.762117 12.19546 18.871378 12.26094 19.8125 11.46875 C 20.283061 11.072653 20.581559 10.388982 20.5625 9.71875 C 20.558322 9.5718145 20.524062 9.4298071 20.5 9.28125 C 20.93419 9.4655836 21.335005 9.746764 21.6875 10.15625 C 22.412951 10.998992 23 12.482064 23 15 L 23 16.28125 L 23 16.84375 L 23.5 17.125 C 23.803899 17.300541 24 17.619774 24 18 C 24 18.533588 23.6179 18.957171 23.09375 19 L 22.40625 19.03125 L 22.21875 19.6875 C 21.848872 20.8907 21.38817 22.161979 20.9375 23.21875 C 20.48683 24.275521 19.970951 25.176173 19.8125 25.34375 C 17.684258 27.595479 14.315742 27.595479 12.1875 25.34375 C 12.029049 25.176173 11.51317 24.275521 11.0625 23.21875 C 10.61183 22.161979 10.151128 20.8907 9.78125 19.6875 L 9.59375 19.03125 L 8.90625 19 C 8.3835397 18.957247 8 18.533588 8 18 C 8 17.626072 8.1931792 17.302229 8.5 17.125 L 9 16.84375 L 9 16.28125 L 9 15 C 9 12.303469 9.6843705 10.364492 11.0625 9.0625 C 12.344007 7.8517932 14.433112 7.1621515 17.40625 7.0625 z M 11.5625 15.15625 L 10.4375 16.84375 L 12.03125 17.90625 C 12.027703 17.940507 12 17.964805 12 18 C 12 18.552285 12.447715 19 13 19 C 13.552285 19 14 18.552285 14 18 L 14.5625 17.15625 L 11.5625 15.15625 z M 20.4375 15.15625 L 17.4375 17.15625 L 18 18 C 18 18.552285 18.447715 19 19 19 C 19.552285 19 20 18.552285 20 18 C 20 17.964805 19.972297 17.940507 19.96875 17.90625 L 21.5625 16.84375 L 20.4375 15.15625 z M 14.5 21 C 13.675 21 13 21.675 13 22.5 L 13 23.46875 C 13 23.75275 13.217 24 13.5 24 L 15.875 24 L 18.46875 24 C 18.75275 24 19 23.783 19 23.5 L 19 22.4375 C 19 21.6455 18.3545 21 17.5625 21 L 14.5 21 z" fill="#000000"/></svg>
