<?xml version="1.0" encoding="utf-8"?>
<svg xmlns="http://www.w3.org/2000/svg" viewBox="0 0 32 32" fill="#000000"><path style="text-indent:0;text-align:start;line-height:normal;text-transform:none;block-progression:tb;-inkscape-font-specification:Sans" d="M 16.53125 3 C 14.26025 3 12.233 4.25775 11.25 6.21875 C 8.747 6.13175 6.6125 7.77875 5.9375 10.09375 C 4.1805 11.00475 3 12.942 3 15 C 3 17.851 5.318 20 8.375 20 L 9.59375 20 L 10.21875 18 L 8.375 18 C 6.395 18 5 16.767 5 15 C 5 13.562 5.88325 12.20675 7.15625 11.71875 L 7.6875 11.53125 L 7.78125 10.96875 C 8.07625 9.37675 9.47475 8.21875 11.09375 8.21875 C 11.29375 8.21875 11.50175 8.24125 11.71875 8.28125 L 12.5625 8.4375 L 12.84375 7.625 C 13.37075 6.057 14.84125 5 16.53125 5 C 18.03525 5 19.37825 5.81 20.03125 7.125 L 20.3125 7.6875 L 20.9375 7.6875 C 22.7115 7.6995 24.157 9.101 24.25 10.875 L 24.28125 11.5 L 24.875 11.75 C 26.119 12.249 27 13.583 27 15 C 27 16.767 25.605 18 23.625 18 L 21.4375 18 L 20.78125 20 L 23.625 20 C 26.682 20 29 17.851 29 15 C 29 13.002 27.8655 11.09325 26.1875 10.15625 C 25.7945 7.81625 23.88625 5.99775 21.53125 5.71875 C 20.46425 4.02475 18.59625 3 16.53125 3 z M 12.28125 15 L 12.0625 15.6875 L 10.125 21.6875 L 9.71875 23 L 11.09375 23 L 13 23 L 11.9375 26.375 L 11.0625 29.0625 L 13.40625 27.53125 L 20.53125 22.90625 L 21 22.59375 L 21 22.0625 L 21 22 L 21 21 L 20 21 L 19.375 21 L 20.9375 16.3125 L 21.375 15 L 20 15 L 13 15 L 12.28125 15 z M 13.71875 17 L 18.625 17 L 17.0625 21.6875 L 16.625 23 L 16.71875 23 L 14.65625 24.34375 L 15.3125 22.3125 L 15.71875 21 L 14.375 21 L 12.4375 21 L 13.71875 17 z" overflow="visible" font-family="Sans" fill="#000000"/></svg>
