<?xml version="1.0" encoding="utf-8"?>
<svg xmlns="http://www.w3.org/2000/svg" viewBox="0 0 32 32" fill="#000000"><path style="text-indent:0;text-align:start;line-height:normal;text-transform:none;block-progression:tb;-inkscape-font-specification:Bitstream Vera Sans" d="M 22 4 L 22 18 L 21.6875 18 C 20.154167 18 18.872607 19.148932 18.71875 20.6875 L 18 26.875 L 17.875 28 L 19 28 L 27 28 L 28.125 28 L 28 26.875 L 27.1875 20.6875 C 27.033643 19.148932 25.720833 18 24.1875 18 L 24 18 L 24 4 L 22 4 z M 11 9 C 9.3523238 9 7.9254658 9.9838764 7.3125 11.40625 L 5.8125 9.40625 L 4.1875 10.59375 L 6.75 14 L 3.8125 14 L 6.1875 28 L 15.8125 28 L 18.1875 14 L 10.8125 14 L 12.1875 16 L 15.8125 16 L 14.1875 26 L 7.8125 26 L 6.1875 16 L 8.25 16 L 10.1875 18.59375 L 10.21875 18.59375 C 10.401365 18.834396 10.674609 19 11 19 C 11.552285 19 12 18.552285 12 18 C 12 17.773106 11.908587 17.574052 11.78125 17.40625 L 11.8125 17.40625 L 11.71875 17.28125 L 8.5 13 L 9 13 C 9 11.809804 9.8098039 11 11 11 C 12.190196 11 13 11.809804 13 13 L 15 13 C 15 12.783333 15.283333 12.5 15.5 12.5 C 15.716667 12.5 16 12.783333 16 13 L 18 13 C 18 11.616667 16.883333 10.5 15.5 10.5 C 15.077019 10.5 14.692567 10.627995 14.34375 10.8125 C 13.630447 9.7164189 12.405759 9 11 9 z M 21.6875 20 L 24.1875 20 C 24.654167 20 25.172607 20.444818 25.21875 20.90625 L 25.21875 20.9375 L 25.21875 21 L 20.6875 21 L 20.6875 20.90625 C 20.733643 20.444818 21.220833 20 21.6875 20 z M 20.46875 23 L 25.46875 23 L 25.84375 26 L 20.125 26 L 20.46875 23 z" fill="#000000"/></svg>
