<?xml version="1.0" encoding="utf-8"?>
<svg xmlns="http://www.w3.org/2000/svg" viewBox="0 0 32 32" fill="#000000"><path d="M 16.03125 4.5 C 15.202822 4.5 14.53125 5.1715729 14.53125 6 C 14.53125 6.8284271 15.202822 7.5 16.03125 7.5 C 16.859677 7.5 17.53125 6.8284271 17.53125 6 C 17.53125 5.1715729 16.859677 4.5 16.03125 4.5 z M 23.09375 7.1875 C 22.127252 7.1875 21.34375 7.9710017 21.34375 8.9375 C 21.34375 9.9039983 22.127252 10.6875 23.09375 10.6875 C 24.060248 10.6875 24.84375 9.9039983 24.84375 8.9375 C 24.84375 7.9710017 24.060248 7.1875 23.09375 7.1875 z M 8.9375 7.65625 C 8.247144 7.65625 7.6875 8.2158941 7.6875 8.90625 C 7.6875 9.596606 8.247144 10.15625 8.9375 10.15625 C 9.6278559 10.15625 10.1875 9.596606 10.1875 8.90625 C 10.1875 8.2158941 9.6278559 7.65625 8.9375 7.65625 z M 26 14.03125 C 24.895431 14.03125 24 14.92668 24 16.03125 C 24 17.135819 24.895431 18.03125 26 18.03125 C 27.104569 18.03125 28 17.135819 28 16.03125 C 28 14.92668 27.104569 14.03125 26 14.03125 z M 6 14.96875 C 5.4477153 14.96875 5 15.416466 5 15.96875 C 5 16.521035 5.4477153 16.96875 6 16.96875 C 6.5522847 16.96875 7 16.521035 7 15.96875 C 7 15.416466 6.5522847 14.96875 6 14.96875 z M 8.90625 20.0625 C 7.2493958 20.0625 5.90625 21.405646 5.90625 23.0625 C 5.90625 24.719355 7.2493958 26.0625 8.90625 26.0625 C 10.563104 26.0625 11.90625 24.719355 11.90625 23.0625 C 11.90625 21.405646 10.563104 20.0625 8.90625 20.0625 z M 23.0625 20.84375 C 21.81986 20.84375 20.8125 21.851109 20.8125 23.09375 C 20.8125 24.336391 21.81986 25.34375 23.0625 25.34375 C 24.305141 25.34375 25.3125 24.336391 25.3125 23.09375 C 25.3125 21.851109 24.305141 20.84375 23.0625 20.84375 z M 15.96875 23.5 C 14.588039 23.5 13.46875 24.619288 13.46875 26 C 13.46875 27.380712 14.588039 28.5 15.96875 28.5 C 17.349462 28.5 18.46875 27.380712 18.46875 26 C 18.46875 24.619288 17.349462 23.5 15.96875 23.5 z" fill="#000000"/></svg>
