<?xml version="1.0" encoding="utf-8"?>
<svg xmlns="http://www.w3.org/2000/svg" viewBox="0 0 32 32" fill="#000000"><path d="M 7.65625 4 L 7.4375 4.6875 C 7.0470246 5.8920027 6.2457602 6.9592263 5.46875 8.375 C 4.6917398 9.7907737 4 11.573269 4 14 C 4 16.91425 5.1115869 18.95346 6.25 20.1875 C 7.1038098 21.11303 8.0050968 21.640791 8.40625 21.84375 C 8.9178436 23.019982 9.8544269 24.138955 10.875 25.15625 C 12.417495 26.69379 14.157323 28 16 28 C 17.851678 28 19.584468 26.669544 21.125 25.125 C 22.144274 24.103071 23.081724 23.009293 23.59375 21.84375 C 23.994903 21.640791 24.89619 21.11303 25.75 20.1875 C 26.888413 18.95346 28 16.91425 28 14 C 28 11.573269 27.30826 9.7907737 26.53125 8.375 C 25.75424 6.9592263 24.952975 5.8920027 24.5625 4.6875 L 24.34375 4 L 23.59375 4 L 23.4375 4 L 23.34375 4 L 23.25 4.03125 C 21.266171 4.4389508 20.050951 6.1580518 19.25 7.625 C 18.877985 8.306349 18.609479 8.9552174 18.40625 9.46875 C 17.697367 9.1899576 16.898005 9 16 9 C 15.101995 9 14.302633 9.1899576 13.59375 9.46875 C 13.390521 8.9552174 13.122015 8.306349 12.75 7.625 C 11.949049 6.1580518 10.733829 4.4389508 8.75 4.03125 L 8.65625 4 L 8.5625 4 L 8.40625 4 L 7.65625 4 z M 8.84375 6.28125 C 9.6435937 6.6909449 10.432152 7.5224825 11 8.5625 C 11.426749 9.3440949 11.681653 10.001944 11.84375 10.46875 C 11.288697 10.913972 10.831634 11.415069 10.46875 11.90625 C 9.427059 13.316227 9.03125 14.71875 9.03125 14.71875 L 10.96875 15.28125 C 10.96875 15.28125 11.257191 14.183773 12.0625 13.09375 C 12.867809 12.003727 14.055376 11 16 11 C 17.944624 11 19.132191 12.003727 19.9375 13.09375 C 20.742809 14.183773 21.03125 15.28125 21.03125 15.28125 L 22.96875 14.71875 C 22.96875 14.71875 22.572941 13.316227 21.53125 11.90625 C 21.168366 11.415069 20.711303 10.913972 20.15625 10.46875 C 20.318347 10.001944 20.573251 9.3440949 21 8.5625 C 21.567848 7.5224825 22.356406 6.6909449 23.15625 6.28125 C 23.664293 7.3675515 24.254227 8.3834727 24.78125 9.34375 C 25.47399 10.605976 26 11.942731 26 14 C 26 16.41375 25.111587 17.87854 24.25 18.8125 C 23.493235 19.632833 22.904508 19.928531 22.75 20 L 22 20 C 22 20.610921 21.057968 22.376044 19.71875 23.71875 C 18.379532 25.061456 16.629322 26 16 26 C 15.361677 26 13.618505 25.08296 12.28125 23.75 C 10.943995 22.41704 10 20.660774 10 20 L 9.25 20 C 9.0954918 19.928531 8.5067648 19.632833 7.75 18.8125 C 6.8884131 17.87854 6 16.41375 6 14 C 6 11.942731 6.5260102 10.605976 7.21875 9.34375 C 7.745773 8.3834727 8.3357073 7.3675515 8.84375 6.28125 z M 16 14.75 C 14.427417 14.75 13.408018 15.586478 12.84375 16.21875 C 12.769706 16.301718 12.751603 16.332989 12.6875 16.40625 C 12.508977 16.157211 12.263023 16 12 16 C 11.447715 16 11 16.671573 11 17.5 C 11 18.328427 11.447715 19 12 19 C 12.069036 19 12.122402 18.988731 12.1875 18.96875 C 12.727377 18.916459 13.217169 18.680158 13.53125 18.40625 C 13.883162 18.09935 14.092634 17.777614 14.3125 17.53125 C 14.752232 17.038522 15.013583 16.75 16 16.75 C 16.986417 16.75 17.247768 17.038522 17.6875 17.53125 C 17.907366 17.777614 18.116838 18.09935 18.46875 18.40625 C 18.820662 18.71315 19.380592 19 20 19 C 20.552285 19 21 18.328427 21 17.5 C 21 16.671573 20.552285 16 20 16 C 19.736977 16 19.491023 16.157211 19.3125 16.40625 C 19.248397 16.332989 19.230294 16.301718 19.15625 16.21875 C 18.591982 15.586478 17.572583 14.75 16 14.75 z M 15 20.40625 L 12.6875 20.9375 C 12.6875 20.9375 13.987 22.59375 16 22.59375 C 18.013 22.59375 19.3125 20.9375 19.3125 20.9375 L 17 20.40625 L 15 20.40625 z" fill="#000000"/></svg>
