<?xml version="1.0" encoding="utf-8"?>
<svg xmlns="http://www.w3.org/2000/svg" viewBox="0 0 32 32" fill="#000000"><path style="text-indent:0;text-align:start;line-height:normal;text-transform:none;block-progression:tb;-inkscape-font-specification:Bitstream Vera Sans" d="M 16 3 C 8.262963 3 2 9.262963 2 17 L 2 26 L 2 27 L 3 27 L 10.4375 27 C 11.958393 28.246291 13.881466 29 16 29 C 18.118534 29 20.041607 28.246291 21.5625 27 L 29 27 L 30 27 L 30 26 L 30 17 C 30 9.262963 23.737037 3 16 3 z M 16 5 C 22.662963 5 28 10.337037 28 17 L 28 25 L 23.375 25 C 24.209272 23.738593 24.753073 22.247243 24.875 20.65625 C 26.053897 20.250905 27 19.30894 27 18 C 27 16.354545 25.645455 15 24 15 L 23 15 L 23 17 L 24 17 C 24.554545 17 25 17.445455 25 18 C 25 18.554545 24.554545 19 24 19 L 23 19 L 23 20 C 23 23.854545 19.854545 27 16 27 C 12.145455 27 9 23.854545 9 20 L 9 19 L 8 19 C 7.4454545 19 7 18.554545 7 18 C 7 17.445455 7.4454545 17 8 17 L 9 17 L 9 16 L 9 15 C 9 14.558333 9.1041067 14.40438 9.21875 14.28125 C 9.3333933 14.15812 9.5398871 14.027867 9.9375 13.9375 C 10.732726 13.756767 12.091671 13.799697 13.5 13.8125 C 14.908329 13.8253 16.39726 13.809 17.71875 13.15625 C 19.04024 12.503514 20 11.05463 20 9 L 18 9 C 18 10.54537 17.58476 11.008986 16.84375 11.375 C 16.10274 11.741014 14.841671 11.824697 13.5 11.8125 C 12.158329 11.800303 10.767274 11.711983 9.5 12 C 8.8663629 12.144008 8.2369192 12.383286 7.75 12.90625 C 7.2630808 13.429214 7 14.191667 7 15 L 7 15.40625 C 5.8903886 15.84816 5 16.74096 5 18 C 5 19.30894 5.9461031 20.250905 7.125 20.65625 C 7.2469274 22.247243 7.7907283 23.738593 8.625 25 L 4 25 L 4 17 C 4 10.337037 9.337037 5 16 5 z M 13 17 C 12.447715 17 12 17.447715 12 18 C 12 18.552285 12.447715 19 13 19 C 13.552285 19 14 18.552285 14 18 C 14 17.447715 13.552285 17 13 17 z M 19 17 C 18.447715 17 18 17.447715 18 18 C 18 18.552285 18.447715 19 19 19 C 19.552285 19 20 18.552285 20 18 C 20 17.447715 19.552285 17 19 17 z" overflow="visible" font-family="Bitstream Vera Sans" fill="#000000"/></svg>
