<?xml version="1.0" encoding="utf-8"?>
<svg xmlns="http://www.w3.org/2000/svg" viewBox="0 0 32 32" fill="#000000"><path style="text-indent:0;text-align:start;line-height:normal;text-transform:none;block-progression:tb;-inkscape-font-specification:Sans" d="M 16 2 L 2 9.53125 L 2 11.84375 L 16 4.28125 L 30 11.8125 L 30 9.53125 L 16 2 z M 16 6 L 2 13.53125 L 2 15.84375 L 16 8.28125 L 30 15.8125 L 30 13.53125 L 16 6 z M 16 9.875 L 15.53125 10.125 L 2.53125 17.125 L 2 17.40625 L 2 18 L 2 18.125 L 2 18.65625 L 2.4375 18.96875 C 2.4375 18.96875 3.653281 19.74975 5.90625 20.5 C 8.159219 21.25025 11.51799 22 16 22 C 20.48201 22 23.840781 21.25025 26.09375 20.5 C 28.346719 19.74975 29.5625 18.96875 29.5625 18.96875 L 30 18.65625 L 30 18.125 L 30 18 L 30 17.40625 L 29.46875 17.125 L 16.46875 10.125 L 16 9.875 z M 16 12.125 L 26.90625 18 C 26.419196 18.240605 26.4639 18.29361 25.46875 18.625 C 23.407969 19.31125 20.26299 20 16 20 C 11.73701 20 8.592031 19.31125 6.53125 18.625 C 5.5361004 18.29361 5.5808039 18.240605 5.09375 18 L 16 12.125 z M 16 15 L 14 17 L 16 19 L 18 17 L 16 15 z M 2 20.46875 L 2 22.65625 L 2.4375 22.96875 C 2.6215 23.09275 7.052 26 16 26 C 24.948 26 29.3785 23.09275 29.5625 22.96875 L 30 22.65625 L 30 22 L 30 20.5 L 28.4375 21.28125 C 28.3965 21.30825 24.277 24 16 24 C 7.723 24 3.6005 21.3375 3.5625 21.3125 L 2 20.46875 z M 2 24.46875 L 2 26.65625 L 2.4375 26.96875 C 2.6215 27.09275 7.052 30 16 30 C 24.948 30 29.3785 27.09275 29.5625 26.96875 L 30 26.65625 L 30 26 L 30 24.5 L 28.4375 25.28125 C 28.3965 25.30825 24.277 28 16 28 C 7.723 28 3.6005 25.3375 3.5625 25.3125 L 2 24.46875 z" overflow="visible" font-family="Sans" fill="#000000"/></svg>
