<?xml version="1.0" encoding="utf-8"?>
<svg xmlns="http://www.w3.org/2000/svg" viewBox="0 0 32 32" fill="#000000"><path style="text-indent:0;text-align:start;line-height:normal;text-transform:none;block-progression:tb;-inkscape-font-specification:Sans" d="M 21.5 3 C 16.434287 3 12.294211 6.9981029 12.03125 12 L 12 12 L 12 12.5 L 12 13 L 12 18.78125 L 4 11.625 L 3.28125 11 L 2.625 11.6875 L 1.625 12.6875 L 1 13.3125 L 1.5625 14 L 12 27.34375 L 12 28 L 12 29 L 13 29 L 26 29 L 27 29 L 27 28 L 27 20.21875 C 29.413818 18.495104 31 15.683913 31 12.5 C 31 7.2654518 26.734548 3 21.5 3 z M 21.5 5 C 25.653452 5 29 8.3465482 29 12.5 C 29 14.470069 28.237326 16.254844 27 17.59375 L 27 13 L 27 12 L 26 12 L 14.03125 12 C 14.284578 8.0787669 17.512835 5 21.5 5 z M 14 14 L 25 14 L 25 16 L 14 16 L 14 14 z M 5.09375 15.3125 L 12.34375 21.75 L 14 23.21875 L 14 21 L 14 18 L 25 18 L 25 27 L 14 27 L 14 26.65625 L 13.78125 26.375 L 5.09375 15.3125 z" overflow="visible" font-family="Sans" fill="#000000"/></svg>
