<?xml version="1.0" encoding="utf-8"?>
<svg xmlns="http://www.w3.org/2000/svg" viewBox="0 0 32 32" fill="#000000"><path style="text-indent:0;text-align:start;line-height:normal;text-transform:none;block-progression:tb;-inkscape-font-specification:Sans" d="M 16 4 C 13.802706 4 12 5.8027056 12 8 C 12 8.2746617 12.040166 8.5529194 12.09375 8.8125 C 10.826446 9.5826144 9.3845736 10.6379 8.125 12.1875 C 6.4905961 14.198238 5.2184249 17.048175 5.03125 21 L 5 21 L 4 21 L 4 22 L 4 27 L 4 28 L 5 28 L 27 28 L 28 28 L 28 27 L 28 22 L 28 21 L 27 21 L 26.96875 21 C 26.781433 17.072255 25.508359 14.229547 23.875 12.21875 C 22.615467 10.668163 21.174245 9.6146854 19.90625 8.84375 C 19.963915 8.5749167 20 8.2852088 20 8 C 20 5.8027056 18.197294 4 16 4 z M 16 6 C 17.116414 6 18 6.883586 18 8 C 18 9.116414 17.116414 10 16 10 C 14.883586 10 14 9.116414 14 8 C 14 6.883586 14.883586 6 16 6 z M 13 10.59375 C 13.735285 11.440435 14.799412 12 16 12 C 17.185007 12 18.234143 11.452756 18.96875 10.625 C 20.087782 11.326991 21.273298 12.220659 22.3125 13.5 C 23.68588 15.190741 24.789843 17.511929 24.96875 21 L 7.03125 21 C 7.2103443 17.481727 8.315385 15.125555 9.6875 13.4375 C 10.717923 12.169814 11.887893 11.284711 13 10.59375 z M 6 23 L 26 23 L 26 26 L 6 26 L 6 23 z" overflow="visible" font-family="Sans" fill="#000000"/></svg>
