<?xml version="1.0" encoding="utf-8"?>
<svg xmlns="http://www.w3.org/2000/svg" viewBox="0 0 32 32" fill="#000000"><path style="text-indent:0;text-align:start;line-height:normal;text-transform:none;block-progression:tb;-inkscape-font-specification:Bitstream Vera Sans" d="M 11 5 L 11 11 L 5 11 L 5 13 L 11 13 L 11 19 L 5 19 L 5 21 L 11 21 L 11 27 L 13 27 L 13 21 L 19 21 L 19 27 L 21 27 L 21 21 L 27 21 L 27 19 L 21 19 L 21 13 L 27 13 L 27 11 L 21 11 L 21 5 L 19 5 L 19 11 L 13 11 L 13 5 L 11 5 z M 13 13 L 19 13 L 19 19 L 13 19 L 13 13 z" overflow="visible" font-family="Bitstream Vera Sans" fill="#000000"/></svg>
