<?xml version="1.0" encoding="utf-8"?>
<svg xmlns="http://www.w3.org/2000/svg" viewBox="0 0 32 32" fill="#000000"><path style="text-indent:0;text-align:start;line-height:normal;text-transform:none;block-progression:tb;-inkscape-font-specification:Sans" d="M 13 4 L 13 13.59375 L 13 16.84375 L 10.625 25.34375 L 12.5625 25.875 L 14.75 18.09375 L 17.84375 18.4375 C 18.13675 18.4695 18.3955 18.60175 18.5625 18.84375 C 18.7295 19.08575 18.79175 19.4025 18.71875 19.6875 L 16.59375 28 L 18.65625 28 L 20.65625 20.15625 C 20.87025 19.31525 20.71375 18.43275 20.21875 17.71875 C 19.72475 17.00475 18.9255 16.5325 18.0625 16.4375 L 15 16.09375 L 15 14.15625 L 19.28125 14.71875 C 20.46425 14.85075 21.4575 15.64525 21.8125 16.78125 L 25.3125 28 L 27.4375 28 L 23.71875 16.1875 C 23.12675 14.2935 21.48225 12.93475 19.53125 12.71875 L 15 12.125 L 15 4 L 13 4 z M 8.5 11 C 6.5788481 11 5 12.578848 5 14.5 C 5 16.421152 6.5788481 18 8.5 18 C 10.421152 18 12 16.421152 12 14.5 C 12 12.578848 10.421152 11 8.5 11 z M 8.5 13 C 9.3402719 13 10 13.659728 10 14.5 C 10 15.340272 9.3402719 16 8.5 16 C 7.6597281 16 7 15.340272 7 14.5 C 7 13.659728 7.6597281 13 8.5 13 z" overflow="visible" font-family="Sans" fill="#000000"/></svg>
