<?xml version="1.0" encoding="utf-8"?>
<svg xmlns="http://www.w3.org/2000/svg" viewBox="0 0 32 32" fill="#000000"><path style="text-indent:0;text-align:start;line-height:normal;text-transform:none;block-progression:tb;-inkscape-font-specification:Bitstream Vera Sans" d="M 24 3 C 21.802666 3 20 4.8026661 20 7 C 20 7.7160002 20.257288 8.3365359 20.5625 9.03125 C 20.867712 9.7259641 21.238369 10.458513 21.625 11.125 C 22.249027 12.200718 22.77836 12.96353 23 13.28125 L 23 18.5 C 23 20.444423 21.444423 22 19.5 22 C 17.555577 22 16 20.444423 16 18.5 L 16 9 C 16 6.2504839 13.749516 4 11 4 C 8.2504839 4 6 6.2504839 6 9 L 6 20.28125 C 5.4031044 20.627293 5 21.260396 5 22 C 5 22.231269 5.0527916 22.449616 5.125 22.65625 C 4.4375253 23.208104 4 24.058958 4 25 C 4 26.645009 5.3549901 28 7 28 C 8.6450099 28 10 26.645009 10 25 C 10 24.058958 9.5624747 23.208104 8.875 22.65625 C 8.9472084 22.449616 9 22.231269 9 22 C 9 21.260396 8.5968956 20.627293 8 20.28125 L 8 9 C 8 7.3315161 9.3315161 6 11 6 C 12.668484 6 14 7.3315161 14 9 L 14 18.5 C 14 21.525577 16.474423 24 19.5 24 C 22.525577 24 25 21.525577 25 18.5 L 25 13.28125 C 25.22164 12.96353 25.750973 12.200718 26.375 11.125 C 26.761631 10.458513 27.132288 9.7259641 27.4375 9.03125 C 27.742712 8.3365359 28 7.7160002 28 7 C 28 4.8026661 26.197334 3 24 3 z M 24 5 C 25.116666 5 26 5.8833339 26 7 C 26 7.1124998 25.882288 7.6331203 25.625 8.21875 C 25.367712 8.8043797 24.988369 9.4986117 24.625 10.125 C 24.310259 10.667562 24.256625 10.725354 24 11.125 C 23.743375 10.725354 23.689741 10.667562 23.375 10.125 C 23.011631 9.4986117 22.632288 8.8043797 22.375 8.21875 C 22.117712 7.6331203 22 7.1124998 22 7 C 22 5.8833339 22.883334 5 24 5 z M 7 24 C 7.5641291 24 8 24.435871 8 25 C 8 25.564129 7.5641291 26 7 26 C 6.4358709 26 6 25.564129 6 25 C 6 24.435871 6.4358709 24 7 24 z" overflow="visible" font-family="Bitstream Vera Sans" fill="#000000"/></svg>
