<?xml version="1.0" encoding="utf-8"?>
<svg xmlns="http://www.w3.org/2000/svg" viewBox="0 0 32 32" fill="#000000"><path d="M 7 4 C 5.3550302 4 4 5.3550302 4 7 L 4 16 A 1.0001 1.0001 0 0 0 5 17 L 7.21875 17 L 7.6875 15 L 6 15 L 6 7 C 6 6.4349698 6.4349698 6 7 6 L 25 6 C 25.56503 6 26 6.4349698 26 7 L 26 15 L 24.3125 15 L 24.78125 17 L 27 17 A 1.0001 1.0001 0 0 0 28 16 L 28 7 C 28 5.3550302 26.64497 4 25 4 L 7 4 z M 16 9 C 12.20345 9 9.96875 11.75 9.96875 11.75 L 9.9375 11.78125 L 9.90625 11.84375 C 9.90625 11.84375 9.4068325 12.624051 8.9375 14 C 8.4681675 15.375949 8 17.399058 8 20 L 8.03125 20 C 8.019792 20.16416 8 20.332976 8 20.5 C 8 24.671863 11.63217 28 16 28 C 20.36783 28 24 24.671863 24 20.5 C 24 20.332976 23.980208 20.16416 23.96875 20 L 24 20 C 24 17.399058 23.531833 15.375949 23.0625 14 C 22.593167 12.624051 22.09375 11.84375 22.09375 11.84375 L 22.0625 11.78125 L 22.03125 11.75 C 22.03125 11.75 19.79655 9 16 9 z M 16 11 C 18.755635 11 20.315001 12.827877 20.40625 12.9375 C 20.40625 12.9375 20.781833 13.466949 21.1875 14.65625 C 21.206628 14.712329 21.230909 14.785009 21.25 14.84375 C 19.836726 13.68728 17.999412 13 16 13 C 14.000588 13 12.163274 13.68728 10.75 14.84375 C 10.769091 14.785009 10.793372 14.712329 10.8125 14.65625 C 11.218167 13.466949 11.59375 12.9375 11.59375 12.9375 C 11.684999 12.827877 13.244365 11 16 11 z M 14 15.3125 L 14 16 L 18 16 L 18 15.3125 C 19.838322 15.903855 21.253783 17.288178 21.78125 19 L 21 19 L 21 22 L 21.78125 22 C 21.253783 23.711822 19.838322 25.096145 18 25.6875 L 18 25 L 14 25 L 14 25.6875 C 12.161678 25.096145 10.746217 23.711822 10.21875 22 L 11 22 L 11 19 L 10.21875 19 C 10.746217 17.288178 12.161678 15.903855 14 15.3125 z" fill="#000000"/></svg>
