<?xml version="1.0" encoding="utf-8"?>
<svg xmlns="http://www.w3.org/2000/svg" viewBox="0 0 32 32" fill="#000000"><path style="text-indent:0;text-align:start;line-height:normal;text-transform:none;block-progression:tb;-inkscape-font-specification:Bitstream Vera Sans" d="M 3 5 L 3 6 L 3 26 L 3 27 L 4 27 L 28 27 L 29 27 L 29 26 L 29 6 L 29 5 L 28 5 L 4 5 L 3 5 z M 5 7 L 27 7 L 27 25 L 5 25 L 5 7 z M 10.15625 12.1875 C 9.84025 12.4275 9.48475 12.64275 9.09375 12.84375 C 8.70275 13.04375 8.28375 13.1835 7.84375 13.3125 L 7.84375 14.75 C 7.99375 14.732 8.1585 14.69725 8.3125 14.65625 C 8.4655 14.61525 8.606 14.59025 8.75 14.53125 C 8.893 14.47225 9.02925 14.3855 9.15625 14.3125 C 9.28325 14.2395 9.406 14.17575 9.5 14.09375 L 9.5 20.0625 L 11.1875 20.0625 L 11.1875 12.1875 L 10.15625 12.1875 z M 17.21875 12.34375 L 17.21875 20.0625 L 18.875 20.0625 L 18.875 15.8125 C 18.875 15.2545 18.8405 14.8345 18.8125 14.5625 L 18.84375 14.5625 C 18.91575 14.7065 19.03175 14.93675 19.21875 15.21875 L 22.40625 20.0625 L 24.15625 20.0625 L 24.15625 12.34375 L 22.5 12.34375 L 22.5 16.59375 C 22.5 17.12175 22.5335 17.47725 22.5625 17.65625 L 22.53125 17.65625 C 22.41225 17.44825 22.29525 17.24325 22.15625 17.03125 L 19.09375 12.34375 L 17.21875 12.34375 z M 14.53125 14.46875 C 14.24525 14.46875 14.0035 14.55375 13.8125 14.71875 C 13.6215 14.88375 13.53125 15.117 13.53125 15.375 C 13.53125 15.626 13.6255 15.83 13.8125 16 C 13.9985 16.17 14.221 16.25 14.5 16.25 C 14.801 16.25 15.061 16.165 15.25 16 C 15.437 15.836 15.53125 15.637 15.53125 15.375 C 15.53125 15.121 15.435 14.88475 15.25 14.71875 C 15.065 14.55175 14.82225 14.46875 14.53125 14.46875 z M 14.53125 18.40625 C 14.24525 18.40625 14.0035 18.49125 13.8125 18.65625 C 13.6215 18.82025 13.53125 19.02325 13.53125 19.28125 C 13.53125 19.53225 13.6265 19.7655 13.8125 19.9375 C 13.9985 20.1095 14.221 20.1875 14.5 20.1875 C 14.801 20.1875 15.061 20.1035 15.25 19.9375 C 15.437 19.7705 15.53125 19.54325 15.53125 19.28125 C 15.53125 19.02725 15.435 18.82325 15.25 18.65625 C 15.065 18.49025 14.82225 18.40625 14.53125 18.40625 z" overflow="visible" font-family="Bitstream Vera Sans" fill="#000000"/></svg>
