<?xml version="1.0" encoding="utf-8"?>
<svg xmlns="http://www.w3.org/2000/svg" viewBox="0 0 32 32" fill="#000000"><path style="text-indent:0;text-align:start;line-height:normal;text-transform:none;block-progression:tb;-inkscape-font-specification:Bitstream Vera Sans" d="M 16.03125 4 C 15.669982 4.3612678 15.405389 4.7862058 15.09375 5.46875 C 14.782111 6.1512942 14.502706 7.0136114 14.5 7.96875 C 14.4973 8.9238886 14.827229 10.020702 15.6875 10.84375 C 16.547771 11.666798 17.858398 12.20417 19.6875 12.4375 C 21.212385 12.631981 22.192305 12.884115 22.75 13.21875 C 23.307695 13.553385 23.538487 13.899784 23.71875 14.71875 L 25.6875 14.28125 C 25.427763 13.101216 24.775555 12.096615 23.78125 11.5 C 22.786945 10.903385 21.564615 10.645019 19.9375 10.4375 C 18.380102 10.23883 17.507291 9.8005455 17.0625 9.375 C 16.617709 8.9494545 16.498456 8.5134864 16.5 7.96875 C 16.501544 7.4240136 16.676451 6.8157996 16.90625 6.3125 C 17.136049 5.8092004 17.492268 5.3514822 17.4375 5.40625 L 16.03125 4 z M 21.5625 4.3125 L 21.5625 6.3125 C 22.183349 6.3125 22.984161 6.404619 23.59375 6.75 C 24.203339 7.0953809 24.720474 7.6006716 24.84375 9.0625 L 24.9375 10 L 25.84375 10 C 26.360062 10 27.435476 10.159218 27.96875 10.625 C 28.235387 10.857891 28.406227 11.132481 28.46875 11.65625 C 28.53127 12.180019 28.43935 12.979269 27.96875 14.125 L 29.84375 14.875 C 30.401649 13.516731 30.585665 12.385669 30.46875 11.40625 C 30.351835 10.426831 29.875863 9.6443588 29.28125 9.125 C 28.376967 8.3351632 27.397132 8.1318462 26.59375 8.0625 C 26.247868 6.6169098 25.524639 5.527423 24.59375 5 C 23.472339 4.3646309 22.304651 4.3125 21.5625 4.3125 z M 1 16 L 1 17 L 1 21 L 1 22 L 2 22 L 30 22 L 31 22 L 31 21 L 31 17 L 31 16 L 30 16 L 2 16 L 1 16 z M 3 18 L 23 18 L 23 20 L 3 20 L 3 18 z M 25 18 L 26 18 L 26 20 L 25 20 L 25 18 z M 28 18 L 29 18 L 29 20 L 28 20 L 28 18 z" overflow="visible" font-family="Bitstream Vera Sans" fill="#000000"/></svg>
