<?xml version="1.0" encoding="utf-8"?>
<svg xmlns="http://www.w3.org/2000/svg" viewBox="0 0 32 32" fill="#000000"><path style="line-height:normal;text-indent:0;text-align:start;text-decoration-line:none;text-decoration-style:solid;text-decoration-color:#000;text-transform:none;block-progression:tb;isolation:auto;mix-blend-mode:normal" d="M 9.3789062 3 L 5.5117188 9.5234375 L 11.169922 11.455078 L 6.6269531 16.056641 L 11.148438 20.503906 L 5.5957031 22.427734 L 8.8828125 29 L 9.5 29 L 20.619141 29 L 27.117188 15.986328 L 20.617188 3 L 9.3789062 3 z M 10.517578 5 L 17.578125 5 L 14.587891 7.9746094 L 8.7539062 7.9746094 L 10.517578 5 z M 19.724609 5.6835938 L 23.488281 13.201172 L 16.589844 8.8027344 L 19.724609 5.6835938 z M 13.253906 12.191406 L 14 12.476562 L 14 19.472656 L 13.244141 19.759766 L 9.4570312 16.037109 L 13.253906 12.191406 z M 16 13.240234 L 23.189453 15.984375 L 16 18.712891 L 16 13.240234 z M 23.492188 18.771484 L 19.724609 26.310547 L 16.587891 23.173828 L 23.492188 18.771484 z M 8.6171875 24 L 14.585938 24 L 17.585938 27 L 10.117188 27 L 8.6171875 24 z" fill="#000000"/></svg>
