<?xml version="1.0" encoding="utf-8"?>
<svg xmlns="http://www.w3.org/2000/svg" viewBox="0 0 32 32" fill="#000000"><path style="text-indent:0;text-align:start;line-height:normal;text-transform:none;block-progression:tb;-inkscape-font-specification:Sans" d="M 13 7 C 12.113456 7 11.300987 7.3812186 10.75 8 C 9.4861318 8.095717 8.554608 8.8882383 7.65625 9.65625 L 7.3125 9.96875 C 6.5905 10.57475 4.418 12.3775 3 13.5625 L 3 16.15625 C 3.236 15.95925 7.51675 12.404 8.59375 11.5 L 8.96875 11.1875 C 9.37981 10.83503 9.6961184 10.574908 10 10.375 L 10 17.09375 C 9.625385 17.300865 8.90625 17.6875 8.90625 17.6875 L 9.84375 19.4375 C 9.84375 19.4375 13.673039 17.337186 14.125 17.09375 C 15.19507 16.516959 15.851706 16 16.84375 16 C 17.495264 16 18 16.517982 18 17.28125 C 18 17.729229 17.903619 17.899304 17.71875 18.125 C 17.533881 18.350696 17.211255 18.618981 16.75 18.90625 C 15.662413 19.585536 14.46875 20.75 14.46875 20.75 L 14.40625 20.84375 L 14.34375 20.90625 C 13.184261 22.598054 11.689611 24 9.03125 24 L 3 24 L 3 26 L 9.03125 26 C 12.342968 26 14.507924 24.116713 15.875 22.1875 C 15.875 22.1875 16.595941 21.514063 17.25 21 L 26 21 C 27.64713 21 29 19.64713 29 18 L 29 10 C 29 8.3528703 27.64713 7 26 7 L 13 7 z M 13 9 L 26 9 C 26.56287 9 27 9.4371297 27 10 L 27 11 L 13 11 L 13 13 L 27 13 L 27 18 C 27 18.56287 26.56287 19 26 19 L 19.5625 19 C 19.839368 18.517449 20 17.930604 20 17.28125 C 20 15.508518 18.610236 14 16.84375 14 C 15.149794 14 14.00818 14.884541 13.15625 15.34375 C 13.019214 15.417561 12.47328 15.707991 12 15.96875 L 12 10 C 12 9.4371297 12.43713 9 13 9 z" overflow="visible" font-family="Sans" fill="#000000"/></svg>
