<?xml version="1.0" encoding="utf-8"?>
<svg xmlns="http://www.w3.org/2000/svg" viewBox="0 0 32 32" fill="#000000"><path style="text-indent:0;text-align:start;line-height:normal;text-transform:none;block-progression:tb;-inkscape-font-specification:Sans" d="M 23.0625 4.0625 L 4.0625 23.0625 L 4.09375 23.09375 L 4.03125 23.125 C 4.4236628 23.517413 4.8125073 23.874876 5.21875 24.21875 L 5.5 24.5 L 5.53125 24.46875 C 8.2933813 26.706276 11.340146 27.860493 14.3125 27.9375 C 17.83687 28.02881 21.249457 26.625543 23.9375 23.9375 C 29.364305 18.510695 29.370925 9.3422493 23.0625 4.0625 z M 22.5625 7.4375 C 26.074075 11.652748 25.832148 17.917852 21.875 21.875 C 17.917852 25.832148 11.65355 26.074878 7.4375 22.5625 L 22.5625 7.4375 z M 22.03125 12.34375 C 21.903063 12.322797 21.75925 12.3425 21.625 12.375 C 21.088 12.505 19.125 14 19.125 14 C 19.125 14 21.55675 14.4415 22.09375 14.3125 C 22.63075 14.1815 22.97375 13.63075 22.84375 13.09375 C 22.7455 12.691 22.415813 12.406609 22.03125 12.34375 z M 21.40625 15.6875 C 20.491203 15.755 19.125 16 19.125 16 C 19.125 16 21.088 17.495 21.625 17.625 C 22.162 17.755 22.71375 17.44325 22.84375 16.90625 C 22.97375 16.36925 22.63075 15.8175 22.09375 15.6875 C 21.9595 15.655 21.711266 15.665 21.40625 15.6875 z M 18 18 C 18 18 18.89025 20.32875 19.28125 20.71875 C 19.67125 21.10975 20.32775 21.10975 20.71875 20.71875 C 21.10975 20.32875 21.10975 19.67225 20.71875 19.28125 C 20.32875 18.89025 18 18 18 18 z M 13.65625 19.03125 C 13.65625 19.03125 11.9875 20.88225 11.8125 21.40625 C 11.6375 21.93025 11.9135 22.48125 12.4375 22.65625 C 12.9615 22.83125 13.54375 22.55525 13.71875 22.03125 C 13.89275 21.50725 13.65625 19.03125 13.65625 19.03125 z M 16 19.125 C 16 19.125 15.5585 21.55675 15.6875 22.09375 C 15.8185 22.63075 16.36925 22.97475 16.90625 22.84375 C 17.44325 22.71275 17.755 22.162 17.625 21.625 C 17.495 21.088 16 19.125 16 19.125 z" overflow="visible" font-family="Sans" fill="#000000"/></svg>
