<?xml version="1.0" encoding="utf-8"?>
<svg xmlns="http://www.w3.org/2000/svg" viewBox="0 0 32 32" fill="#000000"><path style="text-indent:0;text-align:start;line-height:normal;text-transform:none;block-progression:tb;-inkscape-font-specification:Sans" d="M 6.5 4 C 5.1309372 4 4 5.1309372 4 6.5 C 4 7.8690628 5.1309372 9 6.5 9 C 6.7869372 9 7 9.2130628 7 9.5 C 7 9.8642319 6.9391515 10 6.5 10 C 6.1207053 10 6.0682248 9.9121469 6.0625 9.90625 C 6.0567752 9.9003531 6 9.8663356 6 9.625 L 4 9.625 C 4 10.192664 4.1567248 10.830147 4.625 11.3125 C 5.0932752 11.794853 5.7752947 12 6.5 12 C 7.9088485 12 9 10.791768 9 9.5 C 9 8.1309372 7.8690628 7 6.5 7 C 6.2130628 7 6 6.7869372 6 6.5 C 6 6.2130628 6.2130628 6 6.5 6 C 6.7703398 6 6.8441188 6.0567503 6.90625 6.125 C 6.9683812 6.1932497 7 6.3205363 7 6.40625 L 9 6.40625 C 9 5.8399637 8.8053688 5.2540003 8.375 4.78125 C 7.9446312 4.3084997 7.2596602 4 6.5 4 z M 12.25 4 L 12 4.65625 L 10.0625 9.96875 L 10 10.15625 L 10 10.3125 L 10 12 L 12 12 L 12 11 L 14 11 L 14 12 L 16 12 L 16 10.3125 L 16 10.15625 L 15.9375 9.96875 L 14 4.65625 L 13.75 4 L 13.0625 4 L 12.9375 4 L 12.25 4 z M 17 4 L 17 11 L 17 12 L 18 12 L 22 12 L 22 10 L 19 10 L 19 4 L 17 4 z M 23 4 L 23 5 L 23 11 L 23 12 L 24 12 L 28 12 L 28 10 L 25 10 L 25 9 L 27 9 L 27 7 L 25 7 L 25 6 L 28 6 L 28 4 L 24 4 L 23 4 z M 13 7.75 L 13.46875 9 L 12.53125 9 L 13 7.75 z M 4 13 L 4 15 L 15 15 L 15 24 L 17 24 L 17 15 L 28 15 L 28 13 L 4 13 z M 7.4375 20 L 7.15625 20.5 L 4.15625 25.5 L 4 25.71875 L 4 26 L 4 27 L 4 28 L 5 28 L 27 28 L 28 28 L 28 27 L 28 26 L 28 25.71875 L 27.84375 25.5 L 24.84375 20.5 L 24.5625 20 L 24 20 L 19 20 L 19 22 L 23.46875 22 L 25.84375 26 L 6.15625 26 L 8.53125 22 L 13 22 L 13 20 L 8 20 L 7.4375 20 z" fill="#000000"/></svg>
