<?xml version="1.0" encoding="utf-8"?>
<svg xmlns="http://www.w3.org/2000/svg" viewBox="0 0 32 32" fill="#000000"><path style="text-indent:0;text-align:start;line-height:normal;text-transform:none;block-progression:tb;-inkscape-font-specification:Bitstream Vera Sans" d="M 18 5 L 18 6 L 18 14 L 20 14 L 20 7 L 26 7 L 26 25 L 23 25 L 23 27 L 27 27 L 28 27 L 28 26 L 28 6 L 28 5 L 27 5 L 19 5 L 18 5 z M 23 9 C 22.447715 9 22 9.4477153 22 10 C 22 10.552285 22.447715 11 23 11 C 23.552285 11 24 10.552285 24 10 C 24 9.4477153 23.552285 9 23 9 z M 12 12 C 10.906937 12 10 12.906937 10 14 L 10 15 L 7 15 C 5.3550302 15 4 16.35503 4 18 L 4 26 L 4 27 L 5 27 L 21 27 L 22 27 L 22 26 L 22 18 C 22 16.35503 20.64497 15 19 15 L 16 15 L 16 14 C 16 12.906937 15.093063 12 14 12 L 12 12 z M 12 14 L 14 14 L 14 15 L 12 15 L 12 14 z M 7 17 L 19 17 C 19.56503 17 20 17.43497 20 18 L 20 19 L 6 19 L 6 18 C 6 17.43497 6.4349698 17 7 17 z M 6 21 L 8 21 L 8 22 L 10 22 L 10 21 L 16 21 L 16 22 L 18 22 L 18 21 L 20 21 L 20 25 L 6 25 L 6 21 z" fill="#000000"/></svg>
