<?xml version="1.0" encoding="utf-8"?>
<svg xmlns="http://www.w3.org/2000/svg" viewBox="0 0 32 32" fill="#000000"><path style="text-indent:0;text-align:start;line-height:normal;text-transform:none;block-progression:tb;-inkscape-font-specification:Bitstream Vera Sans" d="M 4 4 L 4 27 L 4 28 L 5 28 L 28 28 L 28 26 L 6 26 L 6 4 L 4 4 z M 16 6 C 14.895431 6 14 6.8954305 14 8 C 14 9.1045695 14.895431 10 16 10 C 17.104569 10 18 9.1045695 18 8 C 18 6.8954305 17.104569 6 16 6 z M 10 7 C 9.4477153 7 9 7.4477153 9 8 C 9 8.5522847 9.4477153 9 10 9 C 10.552285 9 11 8.5522847 11 8 C 11 7.4477153 10.552285 7 10 7 z M 22 7 C 21.447715 7 21 7.4477153 21 8 C 21 8.5522847 21.447715 9 22 9 C 22.552285 9 23 8.5522847 23 8 C 23 7.4477153 22.552285 7 22 7 z M 27 7 C 26.447715 7 26 7.4477153 26 8 C 26 8.5522847 26.447715 9 27 9 C 27.552285 9 28 8.5522847 28 8 C 28 7.4477153 27.552285 7 27 7 z M 22 12 C 20.895431 12 20 12.895431 20 14 C 20 15.104569 20.895431 16 22 16 C 23.104569 16 24 15.104569 24 14 C 24 12.895431 23.104569 12 22 12 z M 10 13 C 9.4477153 13 9 13.447715 9 14 C 9 14.552285 9.4477153 15 10 15 C 10.552285 15 11 14.552285 11 14 C 11 13.447715 10.552285 13 10 13 z M 27 13 C 26.447715 13 26 13.447715 26 14 C 26 14.552285 26.447715 15 27 15 C 27.552285 15 28 14.552285 28 14 C 28 13.447715 27.552285 13 27 13 z M 10 19 C 8.8954305 19 8 19.895431 8 21 C 8 22.104569 8.8954305 23 10 23 C 11.104569 23 12 22.104569 12 21 C 12 19.895431 11.104569 19 10 19 z M 16 20 C 15.447715 20 15 20.447715 15 21 C 15 21.552285 15.447715 22 16 22 C 16.552285 22 17 21.552285 17 21 C 17 20.447715 16.552285 20 16 20 z M 22 20 C 21.447715 20 21 20.447715 21 21 C 21 21.552285 21.447715 22 22 22 C 22.552285 22 23 21.552285 23 21 C 23 20.447715 22.552285 20 22 20 z M 27 20 C 26.447715 20 26 20.447715 26 21 C 26 21.552285 26.447715 22 27 22 C 27.552285 22 28 21.552285 28 21 C 28 20.447715 27.552285 20 27 20 z" fill="#000000"/></svg>
