<?xml version="1.0" encoding="utf-8"?>
<svg xmlns="http://www.w3.org/2000/svg" viewBox="0 0 32 32" fill="#000000"><path d="M 2 7 L 2 25 L 16 25 C 16.768584 25 17.466647 24.695875 18 24.212891 C 18.533353 24.695875 19.231416 25 20 25 L 30 25 L 30 7 L 20 7 C 19.231416 7 18.533353 7.3041249 18 7.7871094 C 17.466647 7.3041249 16.768584 7 16 7 L 2 7 z M 4 9 L 16 9 C 16.56503 9 17 9.4349698 17 10 L 17 11 L 18 11 L 19 11 L 19 10 C 19 9.4349698 19.43497 9 20 9 L 28 9 L 28 23 L 20 23 C 19.43497 23 19 22.56503 19 22 L 19 21 L 17 21 L 17 22 C 17 22.56503 16.56503 23 16 23 L 4 23 L 4 9 z M 21 11.017578 L 21 16 L 26 16 L 26 11.017578 L 21 11.017578 z M 6 13 L 6 15 L 15 15 L 15 13 L 6 13 z M 17 13 L 17 15 L 19 15 L 19 13 L 17 13 z M 6 17 L 6 19 L 15 19 L 15 17 L 6 17 z M 17 17 L 17 19 L 19 19 L 19 17 L 17 17 z M 21 19 L 21 21 L 26 21 L 26 19 L 21 19 z" fill="#000000"/></svg>
