<?xml version="1.0" encoding="utf-8"?>
<svg xmlns="http://www.w3.org/2000/svg" viewBox="0 0 32 32" fill="#000000"><path style="text-indent:0;text-align:start;line-height:normal;text-transform:none;block-progression:tb;-inkscape-font-specification:Sans" d="M 25.34375 1 L 27.46875 3.125 L 25.46875 5.125 C 24.4864 4.4226023 23.293667 4 22 4 C 18.698136 4 16 6.6981362 16 10 C 16 13.301864 18.698136 16 22 16 C 25.301864 16 28 13.301864 28 10 C 28 8.7063326 27.577398 7.5135995 26.875 6.53125 L 28.875 4.53125 L 31 6.65625 L 31 1 L 25.34375 1 z M 22 6 C 24.220984 6 26 7.7790164 26 10 C 26 12.220984 24.220984 14 22 14 C 19.779016 14 18 12.220984 18 10 C 18 7.7790164 19.779016 6 22 6 z M 10 16 C 6.6981362 16 4 18.698136 4 22 C 4 23.293667 4.4226023 24.4864 5.125 25.46875 L 3.125 27.46875 L 1 25.34375 L 1 31 L 6.65625 31 L 4.53125 28.875 L 6.53125 26.875 C 7.5135995 27.577398 8.7063326 28 10 28 C 13.301864 28 16 25.301864 16 22 C 16 18.698136 13.301864 16 10 16 z M 10 18 C 12.220984 18 14 19.779016 14 22 C 14 24.220984 12.220984 26 10 26 C 7.7790164 26 6 24.220984 6 22 C 6 19.779016 7.7790164 18 10 18 z" overflow="visible" font-family="Sans" fill="#000000"/></svg>
