<?xml version="1.0" encoding="utf-8"?>
<svg xmlns="http://www.w3.org/2000/svg" viewBox="0 0 32 32" fill="#000000"><path style="text-indent:0;text-align:start;line-height:normal;text-transform:none;block-progression:tb;-inkscape-font-specification:Bitstream Vera Sans" d="M 1 7 L 1 9 L 31 9 L 31 7 L 1 7 z M 1 11 L 1 13 L 4 13 C 5.654 13 7 14.346 7 16 L 7 22 L 9 22 L 9 16 C 9 13.243 6.757 11 4 11 L 1 11 z M 16 11 C 13.243 11 11 13.243 11 16 L 11 22 L 13 22 L 13 16 C 13 14.346 14.346 13 16 13 C 17.654 13 19 14.346 19 16 L 19 22 L 21 22 L 21 16 C 21 13.243 18.757 11 16 11 z M 28 11 C 25.243 11 23 13.243 23 16 L 23 22 L 25 22 L 25 16 C 25 14.346 26.346 13 28 13 L 31 13 L 31 11 L 28 11 z M 0 23 C 0 23.941864 0.58867738 24.683099 1.3125 25.1875 C 2.0363226 25.691901 2.9614482 26 4 26 C 5.035362 26 5.9618851 25.690468 6.6875 25.1875 C 6.8001837 25.109392 6.895686 25.026988 7 24.9375 C 7.1012319 25.023981 7.2036063 25.111617 7.3125 25.1875 C 8.0363226 25.691901 8.9614482 26 10 26 C 11.035362 26 11.961885 25.690468 12.6875 25.1875 C 12.800184 25.109392 12.895686 25.026988 13 24.9375 C 13.101232 25.023981 13.203606 25.111617 13.3125 25.1875 C 14.036323 25.691901 14.961448 26 16 26 C 17.035362 26 17.961885 25.690468 18.6875 25.1875 C 18.800184 25.109392 18.895686 25.026988 19 24.9375 C 19.101232 25.023981 19.203606 25.111617 19.3125 25.1875 C 20.036323 25.691901 20.961448 26 22 26 C 23.035362 26 23.961885 25.690468 24.6875 25.1875 C 24.800184 25.109392 24.895686 25.026988 25 24.9375 C 25.101232 25.023981 25.203606 25.111617 25.3125 25.1875 C 26.036323 25.691901 26.961448 26 28 26 C 29.035362 26 29.961885 25.690468 30.6875 25.1875 C 31.413115 24.684532 32 23.942667 32 23 L 30 23 C 30 23.05733 29.91888 23.315468 29.5625 23.5625 C 29.206115 23.809532 28.636638 24 28 24 C 27.366552 24 26.795677 23.812099 26.4375 23.5625 C 26.079323 23.312901 26 23.042136 26 23 L 24 23 C 24 23.05733 23.91888 23.315468 23.5625 23.5625 C 23.206115 23.809532 22.636638 24 22 24 C 21.366552 24 20.795677 23.812099 20.4375 23.5625 C 20.079323 23.312901 20 23.042136 20 23 L 18 23 C 18 23.05733 17.91888 23.315468 17.5625 23.5625 C 17.206115 23.809532 16.636638 24 16 24 C 15.366552 24 14.795677 23.812099 14.4375 23.5625 C 14.079323 23.312901 14 23.042136 14 23 L 12 23 C 12 23.05733 11.91888 23.315468 11.5625 23.5625 C 11.206115 23.809532 10.636638 24 10 24 C 9.3665518 24 8.7956774 23.812099 8.4375 23.5625 C 8.0793226 23.312901 8 23.042136 8 23 L 6 23 C 6 23.05733 5.918885 23.315468 5.5625 23.5625 C 5.2061149 23.809532 4.636638 24 4 24 C 3.3665518 24 2.7956774 23.812099 2.4375 23.5625 C 2.0793226 23.312901 2 23.042136 2 23 L 0 23 z" overflow="visible" font-family="Bitstream Vera Sans" fill="#000000"/></svg>
