<?xml version="1.0" encoding="utf-8"?>
<svg xmlns="http://www.w3.org/2000/svg" viewBox="0 0 32 32" fill="#000000"><path style="text-indent:0;text-align:start;line-height:normal;text-transform:none;block-progression:tb;-inkscape-font-specification:Bitstream Vera Sans" d="M 6 3 L 6 4 L 6 10 L 8 10 L 8 5 L 24 5 L 24 10 L 26 10 L 26 4 L 26 3 L 25 3 L 7 3 L 6 3 z M 10.5 12 C 9.1166667 12 8 13.116667 8 14.5 L 8 17.5 C 8 18.883333 9.1166667 20 10.5 20 C 11.883333 20 13 18.883333 13 17.5 L 13 14.5 C 13 13.116667 11.883333 12 10.5 12 z M 16.5 12 C 15.116667 12 14 13.116667 14 14.5 L 14 17.5 C 14 18.883333 15.116667 20 16.5 20 L 18 20 L 19 20 L 19 19 L 19 17 L 19 16 L 18 16 L 17 16 L 17 17 L 17 18 L 16.5 18 C 16.283333 18 16 17.716667 16 17.5 L 16 14.5 C 16 14.283333 16.283333 14 16.5 14 C 16.716667 14 17 14.283333 17 14.5 L 17 15 L 19 15 L 19 14.5 C 19 13.116667 17.883333 12 16.5 12 z M 22.5 12 C 21.116667 12 20 13.116667 20 14.5 L 20 17.5 C 20 18.883333 21.116667 20 22.5 20 L 24 20 L 25 20 L 25 19 L 25 17 L 25 16 L 24 16 L 23 16 L 23 17 L 23 18 L 22.5 18 C 22.283333 18 22 17.716667 22 17.5 L 22 14.5 C 22 14.283333 22.283333 14 22.5 14 C 22.716667 14 23 14.283333 23 14.5 L 23 15 L 25 15 L 25 14.5 C 25 13.116667 23.883333 12 22.5 12 z M 10.5 14 C 10.716667 14 11 14.283333 11 14.5 L 11 17.5 C 11 17.716667 10.716667 18 10.5 18 C 10.283333 18 10 17.716667 10 17.5 L 10 14.5 C 10 14.283333 10.283333 14 10.5 14 z M 6 22 L 6 28 L 6 29 L 7 29 L 25 29 L 26 29 L 26 28 L 26 22 L 24 22 L 24 27 L 8 27 L 8 22 L 6 22 z" overflow="visible" font-family="Bitstream Vera Sans" fill="#000000"/></svg>
