<?xml version="1.0" encoding="utf-8"?>
<svg xmlns="http://www.w3.org/2000/svg" viewBox="0 0 32 32" fill="#000000"><path style="line-height:normal;text-indent:0;text-align:start;text-decoration-line:none;text-decoration-style:solid;text-decoration-color:#000;text-transform:none;block-progression:tb;isolation:auto;mix-blend-mode:normal" d="M 10.78125 5 C 6.49025 5 3 8.301375 3 12.359375 C 3 12.579375 3.0211563 12.787 3.0351562 13 L 5.0371094 13 C 5.0191094 12.788 5 12.578375 5 12.359375 C 5 9.404375 7.59325 7 10.78125 7 C 12.23925 7 13.630266 7.5039687 14.697266 8.4179688 L 16 9.5332031 L 17.300781 8.4179688 C 18.367781 7.5039688 19.758797 7 21.216797 7 C 24.405797 7 27 9.404375 27 12.359375 C 27 17.482375 22.173922 20.517031 18.294922 22.957031 C 17.410922 23.513031 16.631 24.00375 16 24.46875 C 15.368 24.00275 14.588078 23.512031 13.705078 22.957031 C 11.895078 21.819031 9.8820937 20.549 8.2460938 19 L 5.5292969 19 C 7.5122969 21.412 10.316625 23.188391 12.640625 24.650391 C 13.614625 25.262391 14.449969 25.788906 15.042969 26.253906 C 15.042969 26.253906 15.991047 26.994 15.998047 27 C 16.005047 26.994 16.955078 26.253906 16.955078 26.253906 C 17.548078 25.788906 18.384422 25.262391 19.357422 24.650391 C 23.427422 22.091391 29 18.587375 29 12.359375 C 29 8.301375 25.508797 5 21.216797 5 C 19.269797 5 17.42 5.6814375 16 6.8984375 C 14.579 5.6814375 12.72825 5 10.78125 5 z M 11.96875 9.3867188 L 9.6347656 15.220703 L 9.4140625 15 L 3 15 L 3 17 L 8.5859375 17 L 10.365234 18.779297 L 12.03125 14.613281 L 15.03125 21.613281 L 17.101562 16.4375 L 17.382812 17 L 19.271484 17 A 2 2 0 0 0 21 18 A 2 2 0 0 0 23 16 A 2 2 0 0 0 21 14 A 2 2 0 0 0 19.269531 15 L 18.617188 15 L 16.898438 11.560547 L 14.96875 16.386719 L 11.96875 9.3867188 z" font-weight="400" font-family="sans-serif" white-space="normal" overflow="visible" fill="#000000"/></svg>
