<?xml version="1.0" encoding="utf-8"?>
<svg xmlns="http://www.w3.org/2000/svg" viewBox="0 0 32 32" fill="#000000"><path style="text-indent:0;text-align:start;line-height:normal;text-transform:none;block-progression:tb;-inkscape-font-specification:Sans" d="M 16.71875 1.0625 C 10.075215 2.9230764 5 9.3128119 5 16 C 5 22.063407 9.9365932 27 16 27 C 16.326043 27 16.620579 26.90439 16.9375 26.875 C 16.558644 27.536784 16.131667 28.055179 15.75 28.375 C 15.121538 28.901625 14.71875 29.03125 14.71875 29.03125 L 15 29.96875 L 15.28125 30.9375 C 21.923795 29.0769 27 22.687296 27 16 C 27 9.9365932 22.063407 5 16 5 C 15.673957 5 15.379421 5.0956111 15.0625 5.125 C 15.441356 4.4632164 15.868333 3.9448209 16.25 3.625 C 16.878462 3.0983754 17.28125 2.96875 17.28125 2.96875 L 17 2.03125 L 16.71875 1.0625 z M 12.84375 5.28125 C 12.733169 5.5603789 12.589578 5.748488 12.5 6.0625 L 12 7.75 L 13.71875 7.3125 C 14.461994 7.1166697 15.21213 7 16 7 C 20.982593 7 25 11.017407 25 16 C 25 20.060262 22.605508 24.125706 19.15625 26.71875 C 19.266831 26.439621 19.410422 26.251512 19.5 25.9375 L 20 24.25 L 18.28125 24.6875 C 17.538006 24.88333 16.78787 25 16 25 C 11.017407 25 7 20.982593 7 16 C 7 11.93966 9.3944217 7.874267 12.84375 5.28125 z M 16 11 C 13.250421 11 11 13.250421 11 16 C 11 18.749579 13.250421 21 16 21 C 18.749579 21 21 18.749579 21 16 C 21 13.250421 18.749579 11 16 11 z M 16 13 C 17.668699 13 19 14.331301 19 16 C 19 17.668699 17.668699 19 16 19 C 14.331301 19 13 17.668699 13 16 C 13 14.331301 14.331301 13 16 13 z" overflow="visible" font-family="Sans" fill="#000000"/></svg>
