<?xml version="1.0" encoding="utf-8"?>
<svg xmlns="http://www.w3.org/2000/svg" viewBox="0 0 32 32" fill="#000000"><path style="text-indent:0;text-align:start;line-height:normal;text-transform:none;block-progression:tb;-inkscape-font-specification:Sans" d="M 9 5 L 9 6.3125 L 4.625 8.0625 L 4 8.3125 L 4 9 L 4 13 L 4 13.71875 L 4.65625 13.9375 L 16.34375 18.125 C 15.232859 18.596401 13.722654 19.064149 12.15625 19.65625 C 10.491796 20.285414 8.779062 21.045813 7.40625 22.1875 C 6.033438 23.329187 5 24.947465 5 27 L 7 27 C 7 25.569535 7.591562 24.604188 8.65625 23.71875 C 9.720938 22.833312 11.258204 22.130586 12.84375 21.53125 C 14.429296 20.931914 16.061245 20.429685 17.375 19.84375 C 18.031877 19.550783 18.606945 19.244879 19.09375 18.8125 C 19.580555 18.380121 20 17.738658 20 17 L 20 12 L 26 12 L 26 18 C 26 19.348922 25.180579 20.664586 24.1875 22.09375 C 23.194421 23.522914 22 25.048499 22 27 L 24 27 C 24 25.931501 24.805579 24.699086 25.8125 23.25 C 26.819421 21.800914 28 20.118078 28 18 L 28 8 L 26 8 L 26 10 L 24 10 L 24 8 L 22 8 L 22 10 L 20 10 L 20 8 L 18 8 L 18 10.71875 L 13.46875 9.59375 L 14.5625 8.84375 L 15 8.53125 L 15 8 L 15 5 L 13 5 L 13 7.4375 L 10.4375 9.15625 L 8.5625 10.4375 L 10.75 10.96875 L 18 12.78125 L 18 16.59375 L 6 12.3125 L 6 9.6875 L 10.375 7.9375 L 11 7.6875 L 11 7 L 11 5 L 9 5 z M 23 14 C 21.9 14 21 14.9 21 16 L 21 17 L 21 18 C 21 20.616 11 22.771 11 27 L 18 27 C 18 23.124 25 21.064 25 18 L 25 17 L 25 16 C 25 14.9 24.1 14 23 14 z" overflow="visible" font-family="Sans" fill="#000000"/></svg>
