<?xml version="1.0" encoding="utf-8"?>
<svg xmlns="http://www.w3.org/2000/svg" viewBox="0 0 32 32" fill="#000000"><path style="line-height:normal;text-indent:0;text-align:start;text-decoration-line:none;text-decoration-style:solid;text-decoration-color:#000;text-transform:none;block-progression:tb;isolation:auto;mix-blend-mode:normal" d="M 17.425781 1.8945312 C 13.284356 1.985171 10.917388 3.8495009 10.785156 3.9550781 C 10.680298 3.9882519 7.9468656 4.9276201 7.3925781 7.3710938 C 7.3030207 7.40668 7.2800944 7.40137 7.1582031 7.4785156 C 6.9044865 7.6390942 6.5931742 7.9119655 6.3398438 8.34375 C 5.8566529 9.1673152 5.650708 10.580544 6.1777344 12.78125 C 5.4447757 13.347449 5.046989 14.233012 5.0390625 15.173828 C 5.0299025 16.261231 5.4008785 17.40057 6.1484375 18.199219 C 6.8155005 18.9124 7.4648173 19.220719 7.9648438 19.328125 C 8.1589963 19.369825 8.1682326 19.332825 8.3144531 19.328125 C 8.4018821 19.796537 8.7418041 21.153792 9.4726562 22.556641 C 9.0515153 22.795547 7.8452326 23.473158 6.421875 24.298828 C 5.6226472 24.762449 4.8326364 25.226904 4.2363281 25.595703 C 3.938174 25.780103 3.6900377 25.94098 3.5039062 26.070312 C 3.4108403 26.134982 3.3342213 26.190169 3.265625 26.248047 C 3.231327 26.276987 3.199303 26.305517 3.1601562 26.349609 C 3.1210103 26.393709 3.0435863 26.421439 3.0175781 26.660156 L 2.9746094 27.041016 L 4.1621094 30 L 27.867188 30 L 27.976562 29.648438 C 27.976562 29.648438 28.248071 28.781202 28.511719 27.802734 C 28.643542 27.313501 28.773492 26.79706 28.869141 26.337891 C 28.964791 25.878721 29.036168 25.508166 29.013672 25.167969 L 29.013672 25.166016 C 29.000772 24.973462 28.936912 24.902095 28.888672 24.828125 C 28.840432 24.754155 28.789022 24.690749 28.730469 24.625 C 28.613358 24.493502 28.468883 24.353642 28.298828 24.199219 C 27.958719 23.890372 27.522735 23.530674 27.087891 23.183594 C 26.38981 22.626407 25.943753 22.295844 25.697266 22.111328 C 25.911509 21.849307 26.364256 21.374878 26.943359 19.910156 C 27.648033 18.12783 28.275811 15.423133 28.013672 11.712891 C 27.765848 8.207924 26.55363 5.7637677 24.769531 4.2050781 C 23.326154 2.944062 21.533653 2.2807874 19.634766 2.0234375 L 19.634766 2.0175781 C 19.621227 2.0168348 19.609208 2.0182689 19.595703 2.0175781 C 19.160155 1.9598955 18.721281 1.9168825 18.277344 1.9003906 C 17.98561 1.8896137 17.701876 1.8884887 17.425781 1.8945312 z M 18.517578 3.015625 C 18.835706 2.9975909 19.168548 2.9992111 19.511719 3.015625 C 21.254341 3.2531552 22.849715 3.8550611 24.113281 4.9589844 C 24.806584 5.5646926 25.402477 6.3333613 25.878906 7.2773438 C 25.506016 7.1312622 25.136268 7.0787992 24.806641 7.0957031 C 23.962741 7.1389801 23.339844 7.5429686 23.339844 7.5429688 L 23.876953 8.3886719 C 23.876953 8.3886719 24.309025 8.1219731 24.859375 8.09375 C 25.399147 8.0660694 26.01022 8.2078139 26.601562 9.21875 C 26.800662 9.9796091 26.945708 10.816961 27.013672 11.757812 C 26.985121 11.704134 26.959058 11.655638 26.923828 11.591797 C 26.808046 11.381975 26.660604 11.121565 26.513672 10.867188 C 26.219808 10.358427 25.929688 9.8710936 25.929688 9.8710938 L 25.070312 10.380859 C 25.070312 10.380859 25.356098 10.864445 25.646484 11.367188 C 25.791678 11.618556 25.938954 11.875103 26.048828 12.074219 C 26.081548 12.133519 26.101953 12.173789 26.126953 12.220703 C 26.081413 12.241983 26.061453 12.258074 25.970703 12.277344 C 25.663642 12.342554 25.157722 12.334839 24.667969 12.193359 L 24.390625 13.154297 C 25.032872 13.339822 25.660796 13.365646 26.177734 13.255859 C 26.436204 13.200969 26.673253 13.116891 26.878906 12.943359 C 26.947132 12.88579 27.005517 12.80575 27.056641 12.71875 C 27.150874 15.792823 26.606819 18.042725 26.013672 19.542969 C 25.361346 21.192893 24.689453 21.912109 24.689453 21.912109 L 24.3125 22.320312 L 24.314453 22.322266 C 23.766118 22.857544 22.521935 23.8065 20.419922 23.958984 C 17.501071 24.17172 15.501845 22.344016 14.535156 21.318359 C 13.612818 20.339758 13.482422 19.591797 13.482422 19.591797 L 12.501953 19.785156 C 12.501953 19.785156 12.728979 20.860507 13.806641 22.003906 C 14.238087 22.461671 14.900043 23.09034 15.755859 23.654297 C 15.690404 23.660255 15.623297 23.653352 15.558594 23.664062 C 15.168882 23.728578 14.780131 23.910335 14.509766 24.242188 C 13.092055 24.161705 12.097941 23.750537 11.462891 23.337891 C 10.783449 22.896399 10.527038 22.513264 10.519531 22.501953 C 9.8520522 21.41573 9.4560985 19.88972 9.2949219 19.171875 C 9.5646783 19.033241 9.9011843 18.788396 10.248047 18.363281 L 9.4726562 17.730469 C 9.200506 18.064016 8.9713848 18.216786 8.828125 18.289062 C 8.8186193 18.293858 8.826672 18.288885 8.8183594 18.292969 L 8.5683594 18.371094 C 8.5683594 18.371094 8.4730046 18.415402 8.1757812 18.351562 C 7.8785576 18.287717 7.4268433 18.101444 6.8789062 17.515625 C 6.3534653 16.954274 6.031974 16.022987 6.0390625 15.181641 C 6.046151 14.340294 6.3496921 13.658388 6.9199219 13.371094 L 6.9394531 13.361328 C 7.6113417 12.985334 8.0627522 12.935283 8.3671875 12.996094 C 8.6716228 13.056904 8.8835206 13.232534 9.0644531 13.488281 C 9.4263181 13.999776 9.53125 14.769531 9.53125 14.769531 L 9.5996094 15.390625 L 11.628906 14.693359 L 11.576172 14.289062 C 11.576172 14.289062 11.486102 13.598724 11.185547 12.748047 C 11.004908 12.236555 11.087697 11.575022 11.279297 10.886719 C 11.470896 10.198416 11.759293 9.5202737 11.876953 8.8984375 C 12.001087 8.2423913 11.841533 7.771611 11.660156 7.4550781 C 12.020066 6.727228 13.931854 3.275581 18.517578 3.015625 z M 14.142578 3.4101562 C 12.449364 4.4871998 11.437604 5.8813997 10.949219 6.6894531 L 10.8125 6.703125 C 9.8858846 6.7903769 9.085333 6.9384271 8.484375 7.0664062 C 9.1800272 5.5878879 11.15625 4.875 11.15625 4.875 L 11.246094 4.8457031 L 11.318359 4.7851562 C 11.318359 4.7851562 12.300293 3.9709899 14.142578 3.4101562 z M 16.451172 7.3183594 C 15.405571 7.37572 14.690455 7.8945514 14.306641 8.4765625 C 13.794888 9.2525773 13.763672 10.099609 13.763672 10.099609 L 14.761719 10.152344 C 14.761719 10.152344 14.805629 9.5353288 15.140625 9.0273438 C 15.475622 8.5193584 15.990599 8.0788383 17.380859 8.4023438 L 17.607422 7.4296875 C 17.185737 7.3315639 16.799705 7.2992392 16.451172 7.3183594 z M 10.648438 7.7421875 C 10.853186 7.9670288 11.013514 8.0840657 10.894531 8.7128906 C 10.812191 9.1480544 10.5276 9.8534426 10.314453 10.619141 C 10.101306 11.384838 9.94782 12.248524 10.242188 13.082031 C 10.4304 13.614744 10.446157 13.812872 10.484375 14.029297 L 10.314453 14.087891 C 10.249803 13.747769 10.260295 13.446486 9.8808594 12.910156 C 9.5986669 12.511278 9.1625491 12.135095 8.5644531 12.015625 C 8.1163682 11.92612 7.6081652 11.983072 7.0410156 12.207031 C 6.6461521 10.361541 6.8983114 9.3658139 7.2011719 8.8496094 C 7.3682162 8.5648939 7.5532792 8.4116402 7.6914062 8.3242188 C 7.8295334 8.2367971 7.8808594 8.2285156 7.8808594 8.2285156 L 7.890625 8.2265625 C 7.890625 8.2265625 9.25895 7.9080514 10.648438 7.7421875 z M 18.648438 10.025391 L 17.726562 10.414062 C 17.726562 10.414062 18.405684 12.022566 18.855469 12.818359 C 18.823609 12.836739 18.819839 12.848454 18.714844 12.871094 C 18.379576 12.943384 17.737574 12.909264 17.009766 12.59375 L 16.611328 13.511719 C 17.50052 13.8972 18.306799 13.983071 18.925781 13.849609 C 19.235273 13.782879 19.51584 13.666909 19.720703 13.410156 C 19.925567 13.153404 19.944181 12.713997 19.771484 12.427734 C 19.458095 11.908168 18.648437 10.025391 18.648438 10.025391 z M 22.519531 10.623047 L 21.519531 10.634766 C 21.519531 10.634766 21.545091 13.014767 23.451172 14.742188 L 23.449219 14.742188 C 24.248856 15.467269 24.585087 15.940189 24.640625 16.111328 C 24.668395 16.196898 24.660454 16.187258 24.646484 16.21875 C 24.632474 16.25024 24.575224 16.329299 24.457031 16.435547 C 24.308297 16.569249 23.722266 16.86338 23.089844 17.054688 C 22.457422 17.245994 21.74654 17.369377 21.298828 17.357422 C 21.13028 17.352922 21.103551 17.320306 21.076172 17.291016 C 21.048792 17.261736 21.01556 17.193746 21 17.089844 C 20.96887 16.882028 21.025391 16.617186 21.025391 16.617188 L 20.054688 16.371094 C 20.054688 16.371094 19.94185 16.771847 20.011719 17.238281 C 20.046659 17.471499 20.131583 17.743657 20.345703 17.972656 C 20.559824 18.201655 20.897032 18.347423 21.271484 18.357422 C 21.909773 18.374462 22.670828 18.225912 23.378906 18.011719 C 24.086984 17.797526 24.709734 17.552985 25.125 17.179688 C 25.288807 17.032435 25.451762 16.865101 25.558594 16.625 C 25.665425 16.384899 25.680656 16.07654 25.591797 15.802734 C 25.414085 15.255124 24.962457 14.764871 24.121094 14.001953 C 22.549174 12.577373 22.519531 10.623047 22.519531 10.623047 z M 7.6875 13.914062 C 7.3672494 13.933858 7.0305202 14.076906 6.7265625 14.328125 L 7.2871094 15.005859 C 7.1538599 15.415276 7.0159178 16.013718 7.1289062 16.634766 L 8.1132812 16.457031 C 8.0589463 16.158375 8.139924 15.757105 8.2304688 15.423828 C 8.3574117 15.675402 8.4511719 15.925781 8.4511719 15.925781 L 9.4179688 15.669922 C 9.4179688 15.669922 9.2726221 15.064345 8.8808594 14.546875 C 8.684978 14.28814 8.405924 14.021676 8 13.935547 C 7.898519 13.914014 7.7942502 13.907464 7.6875 13.914062 z M 25.285156 17.763672 C 24.524113 18.630528 23.128906 18.746094 23.128906 18.746094 L 23.185547 19.746094 C 23.185547 19.746094 24.928152 19.686974 26.037109 18.423828 L 25.285156 17.763672 z M 18.574219 18.119141 L 17.943359 18.894531 C 20.063376 20.616699 22.623047 19.880859 22.623047 19.880859 L 22.349609 18.919922 C 22.349609 18.919922 20.280202 19.504973 18.574219 18.119141 z M 18.294922 19.724609 L 17.332031 19.994141 C 17.526347 20.690544 18.010104 21.187788 18.560547 21.496094 C 19.11099 21.804399 19.731157 21.951019 20.316406 22.027344 C 21.486905 22.179994 22.552734 22.035156 22.552734 22.035156 L 22.419922 21.042969 C 22.419922 21.042969 21.458267 21.168999 20.447266 21.037109 C 19.941765 20.971189 19.432698 20.838054 19.048828 20.623047 C 18.664958 20.40804 18.410606 20.139206 18.294922 19.724609 z M 25.113281 22.923828 C 25.364028 23.111753 25.787461 23.425736 26.462891 23.964844 C 26.888921 24.304889 27.316343 24.657394 27.626953 24.939453 C 27.782258 25.080483 27.908739 25.206088 27.984375 25.291016 C 27.995185 25.303146 27.995386 25.304183 28.003906 25.314453 C 28.001406 25.443358 27.971636 25.743925 27.890625 26.132812 C 27.801495 26.560706 27.673723 27.064952 27.544922 27.542969 C 27.337402 28.313133 27.199805 28.755876 27.125 29 L 25.947266 29 L 25.914062 28.712891 C 25.870785 28.33219 25.664545 28.09642 25.455078 27.935547 C 25.492399 27.86264 25.543024 27.793046 25.568359 27.71875 C 25.673506 27.410403 25.703064 27.08787 25.705078 26.769531 C 25.709078 26.133611 25.595954 25.490981 25.554688 25.142578 L 25.554688 25.140625 C 25.486767 24.565248 25.268493 24.072725 24.900391 23.740234 C 24.774145 23.626203 24.627958 23.537599 24.472656 23.470703 C 24.736374 23.268895 24.957831 23.078425 25.113281 22.923828 z M 9.8847656 23.472656 C 10.035632 23.822944 10.302539 24.360428 10.982422 25.244141 C 11.944451 26.494953 13.532244 26.931972 14.277344 27.074219 C 14.319119 27.539208 14.375897 27.982645 14.494141 28.384766 C 14.557659 28.600778 14.647039 28.810193 14.769531 29 L 4.8378906 29 L 4.0097656 26.9375 C 4.0338116 26.91985 4.0433116 26.912095 4.0742188 26.890625 C 4.2323803 26.780727 4.4734041 26.626788 4.7636719 26.447266 C 5.3442074 26.088221 6.1267278 25.625318 6.921875 25.164062 C 8.2964603 24.366686 9.3874366 23.754669 9.8847656 23.472656 z M 23.695312 24.347656 C 23.932896 24.301926 24.084743 24.350756 24.230469 24.482422 C 24.376195 24.61405 24.514199 24.863039 24.560547 25.257812 C 24.608407 25.662699 24.708299 26.254599 24.705078 26.763672 C 24.703478 27.018208 24.673557 27.248362 24.623047 27.396484 C 24.572537 27.544607 24.524387 27.590277 24.470703 27.617188 C 24.068802 27.818472 23.341445 27.778176 22.720703 27.625 C 22.432718 27.553942 22.18635 27.470048 21.992188 27.398438 C 22.049909 27.241151 22.087891 27.074557 22.087891 26.898438 C 22.087891 26.454239 21.883257 26.057275 21.568359 25.785156 C 21.900453 25.520596 22.268463 25.227462 22.652344 24.957031 C 22.89348 24.787159 23.125817 24.63391 23.318359 24.523438 C 23.510902 24.412962 23.680663 24.35047 23.695312 24.347656 z M 11.722656 24.548828 C 12.37373 24.85693 13.155045 25.12269 14.152344 25.222656 C 14.14046 25.388342 14.139005 25.559337 14.160156 25.742188 C 14.17036 25.830011 14.175067 25.910923 14.183594 25.998047 C 13.490424 25.816638 12.388367 25.434287 11.773438 24.634766 C 11.732267 24.581256 11.761196 24.600508 11.722656 24.548828 z M 16.123047 24.638672 C 16.570497 24.671094 17.128114 24.829005 17.580078 25.050781 L 19.431641 26.019531 C 19.24602 26.266669 19.130859 26.568897 19.130859 26.898438 C 19.130859 27.164645 19.208419 27.412036 19.333984 27.628906 C 18.677691 28.002866 17.406936 28.656531 16.357422 28.732422 C 16.014028 28.757252 15.851812 28.695162 15.740234 28.609375 C 15.628657 28.523585 15.532271 28.370721 15.453125 28.101562 C 15.294833 27.563247 15.272564 26.644881 15.154297 25.626953 C 15.106897 25.217161 15.179997 25.006803 15.267578 24.886719 C 15.355158 24.766635 15.486963 24.689084 15.720703 24.650391 C 15.837573 24.631043 15.973897 24.627865 16.123047 24.638672 z M 21.134766 24.859375 C 20.981874 24.979545 20.786325 25.120043 20.662109 25.220703 L 20.660156 25.220703 C 20.706566 25.183033 20.529314 25.256549 20.353516 25.255859 C 20.211647 25.255297 20.13467 25.242378 20.091797 25.236328 L 19.560547 24.958984 C 19.862097 24.975424 20.170821 24.9785 20.492188 24.955078 C 20.721144 24.938469 20.921883 24.892744 21.134766 24.859375 z M 20.609375 26.419922 C 20.879289 26.419922 21.087891 26.628523 21.087891 26.898438 C 21.087891 27.168351 20.879289 27.376953 20.609375 27.376953 C 20.339461 27.376953 20.130859 27.168351 20.130859 26.898438 C 20.130859 26.628522 20.339461 26.419922 20.609375 26.419922 z M 21.441406 28.240234 C 21.596435 28.307714 21.887356 28.441444 22.429688 28.580078 L 22.429688 29 L 20.705078 29 L 20.375 28.351562 C 20.451718 28.364079 20.52938 28.376953 20.609375 28.376953 C 20.639382 28.376953 20.667676 28.368993 20.697266 28.367188 C 20.859694 28.41702 21.013019 28.451925 21.132812 28.416016 C 21.321299 28.359516 21.332893 28.314913 21.441406 28.240234 z M 24.673828 28.607422 L 24.669922 28.625 C 24.669922 28.625 24.910659 28.727516 24.921875 28.826172 L 24.941406 29 L 23.429688 29 L 23.429688 28.75 C 23.841508 28.782451 24.266471 28.753688 24.673828 28.607422 z M 19.443359 28.726562 L 19.583984 29 L 18.910156 29 C 19.10085 28.907679 19.284298 28.814278 19.443359 28.726562 z" fill="#000000"/></svg>
