<?xml version="1.0" encoding="utf-8"?>
<svg xmlns="http://www.w3.org/2000/svg" viewBox="0 0 32 32" fill="#000000"><path style="text-indent:0;text-align:start;line-height:normal;text-transform:none;block-progression:tb;-inkscape-font-specification:Sans" d="M 16 3 C 12.145666 3 9 6.1456661 9 10 C 9 12.094303 10.034557 13.87235 11.5 15.15625 L 9.40625 19.03125 C 9.2708517 19.012204 9.1402765 19 9 19 C 7.3549901 19 6 20.354991 6 22 C 6 23.645009 7.3549901 25 9 25 C 10.64501 25 12 23.64501 12 22 C 12 21.201686 11.672761 20.477491 11.15625 19.9375 L 13.5625 15.46875 L 14 14.65625 L 13.25 14.15625 C 11.902516 13.261261 11 11.746479 11 10 C 11 7.2263339 13.226334 5 16 5 C 18.773666 5 21 7.2263339 21 10 C 21 10.586877 20.9029 11.137823 20.71875 11.65625 L 22.59375 12.34375 C 22.853605 11.612177 23 10.815123 23 10 C 23 6.1456661 19.854334 3 16 3 z M 16 7 C 14.354991 7 13 8.3549901 13 10 C 13 11.64501 14.35499 13 16 13 C 16.140277 13 16.270852 12.987796 16.40625 12.96875 L 19.15625 17.34375 L 19.65625 18.15625 L 20.5 17.65625 C 21.23585 17.230407 22.085103 17 23 17 C 25.773666 17 28 19.226334 28 22 C 28 24.773666 25.773666 27 23 27 C 21.512627 27 20.19713 26.367234 19.28125 25.34375 L 17.78125 26.65625 C 19.06137 28.086766 20.933373 29 23 29 C 26.854334 29 30 25.854334 30 22 C 30 18.145666 26.854334 15 23 15 C 22.079859 15 21.276807 15.362587 20.46875 15.6875 L 18.1875 12.03125 C 18.686168 11.494603 19 10.782589 19 10 C 19 8.3549901 17.645009 7 16 7 z M 16 9 C 16.564129 9 17 9.4358709 17 10 C 17 10.564128 16.564128 11 16 11 C 15.435872 11 15 10.564128 15 10 C 15 9.4358709 15.435871 9 16 9 z M 7.84375 15.09375 C 7.0426798 15.229208 6.2410299 15.509401 5.5 15.9375 C 2.1625536 17.863889 1.0113584 22.162983 2.9375 25.5 C 4.863752 28.837208 9.1620902 29.989649 12.5 28.0625 C 14.411574 26.958521 15.440895 25.032472 15.75 23 L 20.1875 23 C 20.605718 24.155745 21.707982 25 23 25 C 24.64501 25 26 23.64501 26 22 C 26 20.35499 24.64501 19 23 19 C 21.707982 19 20.605718 19.844255 20.1875 21 L 15 21 L 14 21 L 14 22 C 13.9983 23.725256 13.108331 25.414901 11.5 26.34375 C 9.0979098 27.730601 6.041998 26.900792 4.65625 24.5 C 3.2703916 22.099017 4.0994464 19.041861 6.5 17.65625 C 7.0329701 17.348349 7.5853202 17.159042 8.15625 17.0625 L 7.84375 15.09375 z M 9 21 C 9.5641283 21 10 21.435872 10 22 C 10 22.564128 9.5641283 23 9 23 C 8.4358709 23 8 22.564129 8 22 C 8 21.435871 8.4358709 21 9 21 z M 23 21 C 23.564128 21 24 21.435872 24 22 C 24 22.564128 23.564128 23 23 23 C 22.435872 23 22 22.564128 22 22 C 22 21.435872 22.435872 21 23 21 z" overflow="visible" font-family="Sans" fill="#000000"/></svg>
