<?xml version="1.0" encoding="utf-8"?>
<svg xmlns="http://www.w3.org/2000/svg" viewBox="0 0 32 32" fill="#000000"><path style="text-indent:0;text-align:start;line-height:normal;text-transform:none;block-progression:tb;-inkscape-font-specification:Bitstream Vera Sans" d="M 18.5 4 C 17.130937 4 16 5.1309372 16 6.5 C 16 7.3305844 16.491852 7.9503169 17.125 8.40625 L 14.6875 12.53125 C 14.228608 13.30399 14 14.196549 14 15.09375 L 14 15.3125 C 13.252389 15.083222 12.466606 15.029995 11.65625 15.15625 C 11.008802 13.300026 9.625 12.21875 9.625 12.21875 L 8.375 13.78125 C 8.375 13.78125 8.9718359 14.255583 9.4375 15.03125 C 9.1678547 15.026088 8.8883253 15.045388 8.625 15.09375 C 7.75318 15.253868 6.9396499 15.647722 6.25 16.21875 C 4.8707002 17.360805 4 19.231215 4 21.5 C 4 25.127423 7.1907274 28 11 28 C 12.376819 28 13.656245 27.619291 14.75 26.96875 C 15.295702 27.595378 16.108636 28 17 28 L 25 28 C 26.64497 28 28 26.64497 28 25 L 28 15.09375 C 28 14.196549 27.771392 13.30399 27.3125 12.53125 L 24.875 8.40625 C 25.508148 7.9503169 26 7.3305844 26 6.5 C 26 5.1309372 24.869063 4 23.5 4 L 18.5 4 z M 18.5 6 L 23.5 6 C 23.786937 6 24 6.2130628 24 6.5 C 24 6.7869372 23.786937 7 23.5 7 L 22.5 7 L 22.5 8 L 22.5 8.09375 L 22.5 8.375 L 22.625 8.625 L 25.59375 13.5625 C 25.868858 14.02576 26 14.554951 26 15.09375 L 26 25 C 26 25.56503 25.56503 26 25 26 L 17 26 C 16.73306 26 16.491036 25.888924 16.3125 25.71875 C 17.354138 24.588987 18 23.118231 18 21.5 C 18 19.405046 17.226077 17.661582 16 16.5 L 16 15.09375 C 16 14.554951 16.131142 14.02576 16.40625 13.5625 L 19.375 8.625 L 19.5 8.375 L 19.5 8.09375 L 19.5 8 L 19.5 7 L 18.5 7 C 18.213063 7 18 6.7869372 18 6.5 C 18 6.2130628 18.213063 6 18.5 6 z M 9.375 17 C 9.7929791 16.974676 10.237412 17.03822 10.6875 17.1875 L 11 17.3125 L 11.3125 17.1875 C 12.488352 16.784903 13.591299 17.047316 14.46875 17.78125 C 15.346201 18.515184 16 19.767273 16 21.5 C 16 23.948577 13.818727 26 11 26 C 8.1812726 26 6 23.948577 6 21.5 C 6 19.724785 6.6307998 18.469695 7.5 17.75 C 7.9346001 17.390153 8.4337575 17.160851 8.96875 17.0625 C 9.1024981 17.037913 9.2356736 17.008441 9.375 17 z" overflow="visible" font-family="Bitstream Vera Sans" fill="#000000"/></svg>
