<?xml version="1.0" encoding="utf-8"?>
<svg xmlns="http://www.w3.org/2000/svg" viewBox="0 0 32 32" fill="#000000"><path d="M 17.15625 1.84375 C 15.760826 4.1262526 13.170335 5.3539802 10.6875 7.34375 C 9.2877323 8.4655385 8.0027205 9.9016627 7.125 11.875 C 6.6699664 10.906289 6.0697912 10.226041 5.5625 9.71875 L 4.15625 11.15625 C 4.699104 11.699104 5.0764093 12.083051 5.40625 12.90625 C 5.7360907 13.729449 6 15.020018 6 17.21875 L 6 17.4375 C 5.9997148 17.480055 6 17.519632 6 17.5625 C 6.0003456 17.861156 6.0149975 18.315902 6.03125 18.90625 C 5.2209052 18.390948 4.2095979 18 3 18 L 3 20 C 3.9518968 20 4.6929277 20.360559 5.28125 20.8125 C 5.8614698 21.258217 6.2759715 21.790128 6.40625 22.0625 C 6.40981 22.0712 6.40267 22.08506 6.40625 22.09375 C 8.0372494 26.055787 11.30331 29 16.15625 29 C 19.01734 29 21.604383 27.742123 23.5 25.71875 L 23.53125 25.75 C 23.547471 25.734699 23.546491 25.702922 23.5625 25.6875 C 23.835402 25.424589 24.097667 25.170392 24.3125 24.875 C 24.326225 24.856129 24.330247 24.831493 24.34375 24.8125 C 24.958018 24.202715 25.777875 23.709944 27.71875 23.5 L 27.53125 21.53125 C 26.768956 21.613707 26.134877 21.776732 25.5625 21.96875 C 25.988987 20.159924 26 18.15482 26 16.28125 C 26 15.418883 26.629584 13.525752 28.34375 11.8125 L 26.9375 10.375 C 26.293961 11.018196 25.799224 11.688616 25.375 12.34375 C 25.078957 11.496644 24.697978 10.756839 24.25 10.125 C 23.214961 8.6651561 21.904123 7.7490147 20.78125 7.03125 C 19.658377 6.3134853 18.738599 5.7442648 18.40625 5.28125 C 18.240076 5.0497426 18.181913 4.8569309 18.1875 4.5625 C 18.193087 4.2680691 18.293277 3.8456174 18.625 3.21875 C 18.704195 3.101168 18.799755 2.9980791 18.875 2.875 L 17.15625 1.84375 z M 16.1875 8.4375 C 18.726765 8.4375 20.659031 9.2802967 21.96875 10.5 C 21.990018 10.519807 22.010311 10.542494 22.03125 10.5625 C 22.238775 10.784425 22.442741 11.024187 22.625 11.28125 C 23.422898 12.406625 24 13.92592 24 16.28125 C 24 19.581925 23.80348 22.688509 22.1875 24.25 C 22.177136 24.260014 22.166731 24.271363 22.15625 24.28125 C 22.13947 24.299497 22.109972 24.326211 22.09375 24.34375 C 20.545127 26.017233 18.465995 27 16.15625 27 C 12.100099 27 9.708293 24.82804 8.28125 21.40625 C 8.2791088 21.398446 8.2833733 21.382968 8.28125 21.375 C 8.2721954 21.353173 8.2589773 21.334428 8.25 21.3125 C 8.1145623 20.772043 8.0290925 19.919202 8 19.125 C 7.9694834 18.291921 8 17.549783 8 17.21875 C 8.0181014 16.236304 8.1253919 15.394291 8.28125 14.625 C 8.9979094 12.016561 11.309076 8.4375 16.1875 8.4375 z M 18.5 11 C 18.223858 11 18 11.223858 18 11.5 C 18 11.776142 18.223858 12 18.5 12 C 18.776142 12 19 11.776142 19 11.5 C 19 11.223858 18.776142 11 18.5 11 z M 14.5 12 C 14.223858 12 14 12.223858 14 12.5 C 14 12.776142 14.223858 13 14.5 13 C 14.776142 13 15 12.776142 15 12.5 C 15 12.223858 14.776142 12 14.5 12 z M 11.5 13 C 11.223858 13 11 13.223858 11 13.5 C 11 13.776142 11.223858 14 11.5 14 C 11.776142 14 12 13.776142 12 13.5 C 12 13.223858 11.776142 13 11.5 13 z M 17.5 14 C 17.223858 14 17 14.223858 17 14.5 C 17 14.776142 17.223858 15 17.5 15 C 17.776142 15 18 14.776142 18 14.5 C 18 14.223858 17.776142 14 17.5 14 z M 12.5 15 C 12.223858 15 12 15.223858 12 15.5 C 12 15.776142 12.223858 16 12.5 16 C 12.776142 16 13 15.776142 13 15.5 C 13 15.223858 12.776142 15 12.5 15 z M 20.5 16 C 20.223858 16 20 16.223858 20 16.5 C 20 16.776142 20.223858 17 20.5 17 C 20.776142 17 21 16.776142 21 16.5 C 21 16.223858 20.776142 16 20.5 16 z M 15.5 17 C 15.223858 17 15 17.223858 15 17.5 C 15 17.776142 15.223858 18 15.5 18 C 15.776142 18 16 17.776142 16 17.5 C 16 17.223858 15.776142 17 15.5 17 z M 10.5 18 C 10.223858 18 10 18.223858 10 18.5 C 10 18.776142 10.223858 19 10.5 19 C 10.776142 19 11 18.776142 11 18.5 C 11 18.223858 10.776142 18 10.5 18 z M 18.5 18 C 18.223858 18 18 18.223858 18 18.5 C 18 18.776142 18.223858 19 18.5 19 C 18.776142 19 19 18.776142 19 18.5 C 19 18.223858 18.776142 18 18.5 18 z M 13.5 19 C 13.223858 19 13 19.223858 13 19.5 C 13 19.776142 13.223858 20 13.5 20 C 13.776142 20 14 19.776142 14 19.5 C 14 19.223858 13.776142 19 13.5 19 z M 19.5 20 C 19.223858 20 19 20.223858 19 20.5 C 19 20.776142 19.223858 21 19.5 21 C 19.776142 21 20 20.776142 20 20.5 C 20 20.223858 19.776142 20 19.5 20 z M 11.5 21 C 11.223858 21 11 21.223858 11 21.5 C 11 21.776142 11.223858 22 11.5 22 C 11.776142 22 12 21.776142 12 21.5 C 12 21.223858 11.776142 21 11.5 21 z M 16.5 21 C 16.223858 21 16 21.223858 16 21.5 C 16 21.776142 16.223858 22 16.5 22 C 16.776142 22 17 21.776142 17 21.5 C 17 21.223858 16.776142 21 16.5 21 z M 14.5 23 C 14.223858 23 14 23.223858 14 23.5 C 14 23.776142 14.223858 24 14.5 24 C 14.776142 24 15 23.776142 15 23.5 C 15 23.223858 14.776142 23 14.5 23 z M 18.5 23 C 18.223858 23 18 23.223858 18 23.5 C 18 23.776142 18.223858 24 18.5 24 C 18.776142 24 19 23.776142 19 23.5 C 19 23.223858 18.776142 23 18.5 23 z" fill="#000000"/></svg>
