<?xml version="1.0" encoding="utf-8"?>
<svg xmlns="http://www.w3.org/2000/svg" viewBox="0 0 32 32" fill="#000000"><path style="line-height:normal;text-indent:0;text-align:start;text-decoration-line:none;text-decoration-style:solid;text-decoration-color:#000;text-transform:none;block-progression:tb;isolation:auto;mix-blend-mode:normal" d="M 3 4 L 3 5 L 3 11 L 4 11 L 4 28 L 8 28 L 16 28 L 24 28 L 28 28 L 28 11 L 29 11 L 29 4 L 3 4 z M 5 6 L 27 6 L 27 9 L 5 9 L 5 6 z M 6 11 L 26 11 L 26 26 L 24 26 L 24 21 C 24 16.593562 20.406438 13 16 13 C 11.593562 13 8 16.593562 8 21 L 8 26 L 6 26 L 6 11 z M 16 15 C 19.325562 15 22 17.674438 22 21 L 22 26 L 19.439453 26 C 19.78649 25.408257 20 24.73067 20 24 C 20 23.284068 19.746898 22.665805 19.4375 22.005859 C 19.128102 21.345914 18.734756 20.673686 18.345703 20.058594 C 17.567597 18.828408 16.792969 17.820313 16.792969 17.820312 L 16 16.785156 L 15.207031 17.820312 C 15.207031 17.820312 14.432426 18.828501 13.654297 20.058594 C 13.265232 20.67364 12.871909 21.345838 12.5625 22.005859 C 12.253091 22.665881 12 23.284 12 24 C 12 24.730688 12.213648 25.40837 12.560547 26 L 10 26 L 10 21 C 10 17.674438 12.674438 15 16 15 z M 16 20.183594 C 16.260706 20.551113 16.328021 20.613064 16.654297 21.128906 C 17.015244 21.699564 17.371898 22.315602 17.625 22.855469 C 17.878102 23.395336 18 23.887932 18 24 C 18 24.751458 17.593389 25.390404 16.990234 25.732422 C 17.165954 25.512499 17.285156 25.246613 17.285156 24.943359 C 17.285156 24.233359 16 22.714844 16 22.714844 C 16 22.714844 14.714844 24.233359 14.714844 24.943359 C 14.714844 25.246613 14.834046 25.512499 15.009766 25.732422 C 14.406607 25.390702 14 24.752351 14 24 C 14 23.8875 14.121909 23.395353 14.375 22.855469 C 14.628091 22.315584 14.984768 21.697532 15.345703 21.126953 C 15.671718 20.611577 15.7394 20.550916 16 20.183594 z" font-weight="400" font-family="sans-serif" white-space="normal" overflow="visible" fill="#000000"/></svg>
