<?xml version="1.0" encoding="utf-8"?>
<svg xmlns="http://www.w3.org/2000/svg" viewBox="0 0 32 32" fill="#000000"><path style="text-indent:0;text-align:start;line-height:normal;text-transform:none;block-progression:tb;-inkscape-font-specification:Sans" d="M 13 3 L 13 4 L 12 4 L 12 6 L 13 6 L 15 6 L 17 6 L 18.5 6 C 18.779545 6 19 6.2204545 19 6.5 C 19 6.7795455 18.779545 7 18.5 7 L 12 7 L 12 9 L 13 9 L 13 10.25 C 12.432777 10.328 11.819838 10.34501 10.59375 10.90625 C 8.9055206 11.679037 7 13.302746 7 16 C 7 22.52138 11.15625 28.5625 11.15625 28.5625 L 11.46875 29 L 12 29 L 20 29 L 20.53125 29 L 20.84375 28.5625 C 20.84375 28.5625 25 22.52138 25 16 C 25 13.2717 23.099089 11.639034 21.40625 10.875 C 20.188619 10.325442 19.57504 10.323255 19 10.25 L 19 8.9375 C 20.1343 8.7025612 21 7.6991477 21 6.5 C 21 5.3008523 20.1343 4.2974388 19 4.0625 L 19 4 L 19 3 L 18 3 L 14 3 L 13 3 z M 15 9 L 17 9 L 17 11 L 17 11.9375 L 17.9375 12 C 17.9375 12 19.286589 12.09753 20.59375 12.6875 C 21.900911 13.277466 23 14.1443 23 16 C 23 21.296399 19.822128 26.350308 19.40625 27 L 12.59375 27 C 12.177872 26.350308 9 21.296399 9 16 C 9 14.190254 10.094479 13.319213 11.40625 12.71875 C 12.718021 12.118287 14.09375 12 14.09375 12 L 15 11.90625 L 15 11 L 15 9 z" overflow="visible" font-family="Sans" fill="#000000"/></svg>
