<?xml version="1.0" encoding="utf-8"?>
<svg xmlns="http://www.w3.org/2000/svg" viewBox="0 0 32 32" fill="#000000"><path style="text-indent:0;text-align:start;line-height:normal;text-transform:none;block-progression:tb;-inkscape-font-specification:Sans" d="M 8 5 L 8 6 L 8 15 L 8 16 L 9 16 L 14 16 C 15.116666 16 16 16.883334 16 18 L 18 18 C 18 16.883334 18.883334 16 20 16 L 25 16 L 26 16 L 26 15 L 26 6 L 26 5 L 25 5 L 20 5 C 18.79939 5 17.735278 5.5595697 17 6.40625 C 16.264722 5.5595697 15.20061 5 14 5 L 9 5 L 8 5 z M 10 7 L 14 7 C 15.116666 7 16 7.8833339 16 9 L 18 9 C 18 7.8833339 18.883334 7 20 7 L 24 7 L 24 14 L 20 14 C 18.79939 14 17.735278 14.55957 17 15.40625 C 16.264722 14.55957 15.20061 14 14 14 L 10 14 L 10 7 z M 10.5 19 C 9.4719225 19.0024 8.6875 19.28125 8.6875 19.28125 L 8.65625 19.28125 L 3.90625 21.09375 L 3 21.4375 L 3.34375 22.375 L 4.65625 26.0625 L 5 27.03125 L 5.9375 26.65625 L 9.9375 25.125 L 16.625 28.8125 L 17.0625 29.0625 L 17.5 28.875 L 29.375 23.96875 L 28.625 22.09375 L 17.1875 26.84375 L 10.46875 23.15625 L 10.0625 22.9375 L 9.65625 23.09375 L 6.1875 24.40625 L 5.5625 22.625 L 9.34375 21.15625 C 9.34375 21.15625 9.374364 21.156459 9.375 21.15625 C 9.398943 21.14835 9.8455366 21.001584 10.53125 21 C 11.233985 20.9984 12.048648 21.148451 12.75 21.78125 L 12.75 21.8125 C 13.779396 22.705116 14.573413 23.316249 15.65625 23.65625 C 16.739087 23.996251 17.948733 24.039328 20 24.03125 L 20 22.03125 C 17.988267 22.03915 16.937913 21.966 16.25 21.75 C 15.573409 21.537556 15.063345 21.15167 14.09375 20.3125 C 14.08211 20.302 14.07418 20.29159 14.0625 20.28125 C 12.909207 19.260153 11.516964 18.997649 10.5 19 z" overflow="visible" font-family="Sans" fill="#000000"/></svg>
