<?xml version="1.0" encoding="utf-8"?>
<svg xmlns="http://www.w3.org/2000/svg" viewBox="0 0 32 32" fill="#000000"><path style="line-height:normal;text-indent:0;text-align:start;text-decoration-line:none;text-decoration-style:solid;text-decoration-color:#000;text-transform:none;block-progression:tb;isolation:auto;mix-blend-mode:normal" d="M 13 1 L 13 3.3632812 C 12.940368 3.377446 12.881579 3.3932176 12.822266 3.4082031 C 12.717792 3.4345821 12.613556 3.4612898 12.509766 3.4902344 C 12.217818 3.5718318 11.931767 3.6644977 11.648438 3.765625 C 11.53068 3.8073993 11.413445 3.8493835 11.296875 3.8945312 C 11.041852 3.9939907 10.791878 4.1019738 10.544922 4.2167969 C 10.391179 4.2876977 10.238964 4.3605642 10.087891 4.4375 C 9.8940429 4.5370331 9.7036987 4.641162 9.515625 4.75 C 9.3207073 4.8618786 9.128844 4.9774017 8.9394531 5.0996094 C 8.7964925 5.1925337 8.6566011 5.2884048 8.5175781 5.3867188 C 8.295933 5.5424504 8.0796566 5.7047589 7.8671875 5.875 C 7.7708797 5.9525174 7.6760628 6.0311546 7.5820312 6.1113281 C 7.3526774 6.3061514 7.1288533 6.5086389 6.9121094 6.7207031 C 6.8311191 6.8000382 6.7546887 6.883435 6.6757812 6.9648438 C 6.4650872 7.1821466 6.2592613 7.4046919 6.0625 7.6386719 C 5.980057 7.7364903 5.9018489 7.8372559 5.8222656 7.9375 C 5.6485412 8.1569645 5.4773611 8.3783375 5.3164062 8.6113281 C 5.2138525 8.7591455 5.1199349 8.9122853 5.0234375 9.0644531 C 4.9308463 9.2110636 4.8296476 9.3485146 4.7421875 9.5 C 4.7077481 9.5596507 4.6818222 9.6216705 4.6484375 9.6816406 C 4.5487519 9.8600179 4.4605377 10.045113 4.3691406 10.228516 C 4.2705358 10.427018 4.1695774 10.624866 4.0820312 10.826172 C 3.9994916 11.015521 3.929114 11.210413 3.8554688 11.404297 C 3.7763738 11.613072 3.6926779 11.820309 3.625 12.03125 C 3.5598707 12.233807 3.5084296 12.441716 3.453125 12.648438 C 3.4001723 12.846995 3.3420116 13.044382 3.2988281 13.244141 C 3.2504874 13.467069 3.218346 13.694885 3.1816406 13.921875 C 3.1497899 14.119937 3.1123652 14.317079 3.0898438 14.515625 C 3.0632824 14.748037 3.0531476 14.984776 3.0390625 15.220703 C 3.0280685 15.408867 3.0145122 15.597174 3.0117188 15.785156 C 3.0105306 15.857364 3 15.927514 3 16 C 3 16.185124 3.0196408 16.365563 3.0273438 16.548828 C 3.0346206 16.714565 3.0391672 16.879815 3.0527344 17.044922 C 3.0763759 17.340096 3.113133 17.630577 3.15625 17.919922 C 3.1732485 18.032818 3.1890504 18.145451 3.2089844 18.257812 C 3.2637991 18.569006 3.3315975 18.874524 3.4082031 19.177734 C 3.4345821 19.282208 3.4612898 19.386444 3.4902344 19.490234 C 3.5718318 19.782182 3.6644977 20.068233 3.765625 20.351562 C 3.8073993 20.46932 3.8493835 20.586555 3.8945312 20.703125 C 3.9939907 20.958148 4.1019738 21.208122 4.2167969 21.455078 C 4.2876977 21.608821 4.3605642 21.761036 4.4375 21.912109 C 4.5370331 22.105957 4.641162 22.296301 4.75 22.484375 C 4.8618786 22.679293 4.9774017 22.871156 5.0996094 23.060547 C 5.1925337 23.203508 5.2884048 23.343399 5.3867188 23.482422 C 5.5424504 23.704067 5.7047589 23.920343 5.875 24.132812 C 5.9525174 24.22912 6.0311546 24.323937 6.1113281 24.417969 C 6.3061514 24.647323 6.5086389 24.871147 6.7207031 25.087891 C 6.8000382 25.168881 6.883435 25.245311 6.9648438 25.324219 C 7.1821466 25.534913 7.4046919 25.740739 7.6386719 25.9375 C 7.7364903 26.019943 7.8372559 26.098151 7.9375 26.177734 C 8.1569645 26.351459 8.3783375 26.522639 8.6113281 26.683594 C 8.7591455 26.786148 8.9122853 26.880065 9.0644531 26.976562 C 9.2110636 27.069154 9.3485146 27.170352 9.5 27.257812 C 9.5596507 27.292252 9.6216705 27.318178 9.6816406 27.351562 C 9.8600179 27.451248 10.045113 27.539462 10.228516 27.630859 C 10.427018 27.729464 10.624866 27.830423 10.826172 27.917969 C 11.015521 28.000508 11.210413 28.070886 11.404297 28.144531 C 11.613072 28.223626 11.820309 28.307322 12.03125 28.375 C 12.233807 28.440129 12.441716 28.49157 12.648438 28.546875 C 12.846995 28.599828 13.044382 28.657988 13.244141 28.701172 C 13.467069 28.749513 13.694885 28.781654 13.921875 28.818359 C 14.119937 28.85021 14.317079 28.887635 14.515625 28.910156 C 14.748037 28.936718 14.984776 28.946852 15.220703 28.960938 C 15.408867 28.971932 15.597174 28.985488 15.785156 28.988281 C 15.857364 28.989469 15.927514 29 16 29 C 16.185124 29 16.365563 28.980359 16.548828 28.972656 C 16.714565 28.965379 16.879815 28.960833 17.044922 28.947266 C 17.340096 28.923624 17.630577 28.886867 17.919922 28.84375 C 18.032818 28.826751 18.145451 28.81095 18.257812 28.791016 C 18.569006 28.736201 18.874524 28.668403 19.177734 28.591797 C 19.282208 28.565418 19.386444 28.53871 19.490234 28.509766 C 19.782182 28.428168 20.068233 28.335502 20.351562 28.234375 C 20.46932 28.192601 20.586555 28.150616 20.703125 28.105469 C 20.958148 28.006009 21.208122 27.898026 21.455078 27.783203 C 21.608821 27.712302 21.761036 27.639436 21.912109 27.5625 C 22.105957 27.462967 22.296301 27.358838 22.484375 27.25 C 22.679293 27.138121 22.871156 27.022598 23.060547 26.900391 C 23.203508 26.807466 23.343399 26.711595 23.482422 26.613281 C 23.704067 26.45755 23.920343 26.295241 24.132812 26.125 C 24.22912 26.047483 24.323937 25.968845 24.417969 25.888672 C 24.647323 25.693849 24.871147 25.491361 25.087891 25.279297 C 25.168881 25.199962 25.245311 25.116565 25.324219 25.035156 C 25.534913 24.817853 25.740739 24.595308 25.9375 24.361328 C 26.019943 24.26351 26.098151 24.162744 26.177734 24.0625 C 26.351459 23.843036 26.522639 23.621662 26.683594 23.388672 C 26.786148 23.240854 26.880065 23.087715 26.976562 22.935547 C 27.069154 22.788936 27.170352 22.651485 27.257812 22.5 C 27.292252 22.440349 27.318178 22.37833 27.351562 22.318359 C 27.451248 22.139982 27.539462 21.954887 27.630859 21.771484 C 27.729464 21.572982 27.830423 21.375134 27.917969 21.173828 C 28.000508 20.984479 28.070886 20.789587 28.144531 20.595703 C 28.223626 20.386928 28.307322 20.179691 28.375 19.96875 C 28.440129 19.766193 28.49157 19.558284 28.546875 19.351562 C 28.599828 19.153005 28.657988 18.955618 28.701172 18.755859 C 28.749513 18.532931 28.781654 18.305115 28.818359 18.078125 C 28.85021 17.880063 28.887635 17.682921 28.910156 17.484375 C 28.936718 17.251963 28.946852 17.015224 28.960938 16.779297 C 28.971932 16.591133 28.985488 16.402826 28.988281 16.214844 C 28.989469 16.142636 29 16.072486 29 16 C 29 15.814876 28.980359 15.634437 28.972656 15.451172 C 28.965379 15.285435 28.960833 15.120185 28.947266 14.955078 C 28.923624 14.659904 28.886867 14.369423 28.84375 14.080078 C 28.826751 13.967182 28.81095 13.854549 28.791016 13.742188 C 28.736201 13.430994 28.668403 13.125476 28.591797 12.822266 C 28.565418 12.717792 28.53871 12.613556 28.509766 12.509766 C 28.428168 12.217818 28.335502 11.931767 28.234375 11.648438 C 28.192601 11.53068 28.150616 11.413445 28.105469 11.296875 C 28.006009 11.041852 27.898026 10.791878 27.783203 10.544922 C 27.712302 10.391179 27.639436 10.238964 27.5625 10.087891 C 27.462967 9.8940429 27.358838 9.7036987 27.25 9.515625 C 27.138121 9.3207073 27.022598 9.128844 26.900391 8.9394531 C 26.807466 8.7964925 26.711595 8.6566011 26.613281 8.5175781 C 26.45755 8.295933 26.295241 8.0796566 26.125 7.8671875 C 26.047483 7.7708797 25.968845 7.6760628 25.888672 7.5820312 C 25.693849 7.3526774 25.491361 7.1288533 25.279297 6.9121094 C 25.199962 6.8311191 25.116565 6.7546887 25.035156 6.6757812 C 24.817853 6.4650872 24.595308 6.2592613 24.361328 6.0625 C 24.26351 5.980057 24.162744 5.9018489 24.0625 5.8222656 C 23.843036 5.6485412 23.621662 5.4773611 23.388672 5.3164062 C 23.240854 5.2138525 23.087715 5.1199349 22.935547 5.0234375 C 22.788936 4.9308463 22.651485 4.8296476 22.5 4.7421875 C 22.440349 4.7077481 22.37833 4.6818222 22.318359 4.6484375 C 22.139982 4.5487519 21.954887 4.4605377 21.771484 4.3691406 C 21.572982 4.2705358 21.375134 4.1695774 21.173828 4.0820312 C 20.984479 3.9994916 20.789587 3.929114 20.595703 3.8554688 C 20.386928 3.7763738 20.179691 3.6926779 19.96875 3.625 C 19.766193 3.5598707 19.558284 3.5084296 19.351562 3.453125 C 19.23413 3.4218073 19.117876 3.3833629 19 3.3554688 L 19 1 L 13 1 z M 16.056641 5.0019531 C 16.360251 5.0034915 16.6598 5.0233083 16.957031 5.0488281 C 17.032653 5.0554618 17.107999 5.0562307 17.183594 5.0644531 C 17.434548 5.091163 17.680221 5.134516 17.925781 5.1777344 C 18.052072 5.200336 18.178787 5.2169903 18.304688 5.2441406 C 18.485337 5.2824896 18.660672 5.3337928 18.837891 5.3808594 C 19.021267 5.4301767 19.204828 5.4758994 19.386719 5.5351562 C 19.501858 5.5722564 19.61313 5.6174539 19.726562 5.6582031 C 19.96597 5.7449902 20.205728 5.83298 20.441406 5.9375 C 20.513065 5.9690832 20.581502 6.0060057 20.652344 6.0390625 C 20.923435 6.1661696 21.192461 6.3018866 21.457031 6.453125 C 21.503232 6.479537 21.547975 6.5080964 21.59375 6.5351562 C 21.865254 6.6955459 22.128324 6.8636838 22.380859 7.0429688 C 22.447228 7.0902722 22.510916 7.1407215 22.576172 7.1894531 C 22.795401 7.3524996 23.00696 7.5226975 23.210938 7.6992188 C 23.295528 7.7727297 23.378654 7.8477983 23.460938 7.9238281 C 23.634406 8.0835209 23.803415 8.2469719 23.964844 8.4160156 C 24.067191 8.523492 24.165711 8.6345339 24.263672 8.7460938 C 24.391425 8.8913061 24.515529 9.0385001 24.634766 9.1894531 C 24.740518 9.3234714 24.841873 9.460632 24.941406 9.5996094 C 25.048995 9.7497963 25.154418 9.9017892 25.253906 10.056641 C 25.34884 10.204404 25.439407 10.355293 25.527344 10.507812 C 25.612766 10.656017 25.69521 10.805354 25.773438 10.957031 C 25.858771 11.122473 25.938568 11.290707 26.015625 11.460938 C 26.082686 11.609015 26.148618 11.757493 26.208984 11.908203 C 26.285143 12.098653 26.35426 12.292708 26.419922 12.488281 C 26.465994 12.62507 26.510127 12.761946 26.550781 12.900391 C 26.612193 13.110565 26.66581 13.323832 26.714844 13.539062 C 26.744219 13.666958 26.774028 13.794917 26.798828 13.923828 C 26.847531 14.179826 26.887267 14.439144 26.917969 14.701172 C 26.928046 14.785678 26.939146 14.870299 26.947266 14.955078 C 26.975437 15.255486 26.990491 15.560146 26.994141 15.867188 C 26.994918 15.930398 26.998363 15.993366 26.998047 16.056641 C 26.996508 16.360251 26.976692 16.6598 26.951172 16.957031 C 26.944538 17.032653 26.943769 17.107999 26.935547 17.183594 C 26.908837 17.434548 26.865484 17.680221 26.822266 17.925781 C 26.799664 18.052072 26.78301 18.178787 26.755859 18.304688 C 26.71751 18.485337 26.666207 18.660672 26.619141 18.837891 C 26.569823 19.021267 26.524101 19.204828 26.464844 19.386719 C 26.427744 19.501858 26.382546 19.61313 26.341797 19.726562 C 26.25501 19.96597 26.16702 20.205728 26.0625 20.441406 C 26.030917 20.513065 25.993994 20.581502 25.960938 20.652344 C 25.83383 20.923435 25.698113 21.192461 25.546875 21.457031 C 25.520463 21.503232 25.491904 21.547975 25.464844 21.59375 C 25.304454 21.865254 25.136316 22.128324 24.957031 22.380859 C 24.909728 22.447228 24.859279 22.510916 24.810547 22.576172 C 24.6475 22.795401 24.477303 23.00696 24.300781 23.210938 C 24.22727 23.295528 24.152202 23.378654 24.076172 23.460938 C 23.916479 23.634406 23.753028 23.803415 23.583984 23.964844 C 23.476508 24.067191 23.365466 24.165711 23.253906 24.263672 C 23.108694 24.391425 22.9615 24.515529 22.810547 24.634766 C 22.676529 24.740518 22.539368 24.841873 22.400391 24.941406 C 22.250204 25.048995 22.098211 25.154418 21.943359 25.253906 C 21.795596 25.34884 21.644707 25.439407 21.492188 25.527344 C 21.343983 25.612766 21.194646 25.69521 21.042969 25.773438 C 20.877527 25.858771 20.709293 25.938568 20.539062 26.015625 C 20.390985 26.082686 20.242507 26.148618 20.091797 26.208984 C 19.901347 26.285143 19.707292 26.35426 19.511719 26.419922 C 19.37493 26.465994 19.238054 26.510127 19.099609 26.550781 C 18.889435 26.612193 18.676168 26.66581 18.460938 26.714844 C 18.333042 26.744219 18.205083 26.774028 18.076172 26.798828 C 17.820174 26.847531 17.560856 26.887267 17.298828 26.917969 C 17.214322 26.928046 17.129701 26.939146 17.044922 26.947266 C 16.744514 26.975437 16.439854 26.990491 16.132812 26.994141 C 16.069602 26.994918 16.006634 26.998363 15.943359 26.998047 C 15.639749 26.996508 15.3402 26.976692 15.042969 26.951172 C 14.967347 26.944538 14.892001 26.943769 14.816406 26.935547 C 14.565452 26.908837 14.319779 26.865484 14.074219 26.822266 C 13.947928 26.799664 13.821213 26.78301 13.695312 26.755859 C 13.514663 26.71751 13.339328 26.666207 13.162109 26.619141 C 12.978733 26.569823 12.795172 26.524101 12.613281 26.464844 C 12.498142 26.427744 12.38687 26.382546 12.273438 26.341797 C 12.03403 26.25501 11.794272 26.16702 11.558594 26.0625 C 11.486935 26.030917 11.418498 25.993994 11.347656 25.960938 C 11.076565 25.83383 10.807539 25.698113 10.542969 25.546875 C 10.496768 25.520463 10.452025 25.491904 10.40625 25.464844 C 10.134746 25.304454 9.8716764 25.136316 9.6191406 24.957031 C 9.5527724 24.909728 9.4890839 24.859279 9.4238281 24.810547 C 9.2045993 24.6475 8.9930405 24.477303 8.7890625 24.300781 C 8.704472 24.22727 8.6213461 24.152202 8.5390625 24.076172 C 8.365594 23.916479 8.196585 23.753028 8.0351562 23.583984 C 7.9328086 23.476508 7.8342888 23.365466 7.7363281 23.253906 C 7.6085751 23.108694 7.484471 22.9615 7.3652344 22.810547 C 7.2594821 22.676529 7.1581266 22.539368 7.0585938 22.400391 C 6.9510049 22.250204 6.845582 22.098211 6.7460938 21.943359 C 6.6511599 21.795596 6.5605926 21.644707 6.4726562 21.492188 C 6.3872345 21.343983 6.3047903 21.194646 6.2265625 21.042969 C 6.1412287 20.877527 6.0614324 20.709293 5.984375 20.539062 C 5.9173136 20.390985 5.8513822 20.242507 5.7910156 20.091797 C 5.7148566 19.901347 5.6457401 19.707292 5.5800781 19.511719 C 5.5340059 19.37493 5.4898735 19.238054 5.4492188 19.099609 C 5.3878074 18.889435 5.33419 18.676168 5.2851562 18.460938 C 5.2557809 18.333042 5.2259724 18.205083 5.2011719 18.076172 C 5.1524693 17.820174 5.1127329 17.560856 5.0820312 17.298828 C 5.0719543 17.214322 5.0608535 17.129701 5.0527344 17.044922 C 5.0245633 16.744514 5.0095093 16.439854 5.0058594 16.132812 C 5.0050821 16.069602 5.0016366 16.006634 5.0019531 15.943359 C 5.0034915 15.639749 5.0233083 15.3402 5.0488281 15.042969 C 5.0554618 14.967347 5.0562307 14.892001 5.0644531 14.816406 C 5.091163 14.565452 5.134516 14.319779 5.1777344 14.074219 C 5.200336 13.947928 5.2169903 13.821213 5.2441406 13.695312 C 5.2824896 13.514663 5.3337928 13.339328 5.3808594 13.162109 C 5.4301767 12.978733 5.4758994 12.795172 5.5351562 12.613281 C 5.5722564 12.498142 5.6174539 12.38687 5.6582031 12.273438 C 5.7449902 12.03403 5.83298 11.794272 5.9375 11.558594 C 5.9690832 11.486935 6.0060057 11.418498 6.0390625 11.347656 C 6.1661696 11.076565 6.3018866 10.807539 6.453125 10.542969 C 6.479537 10.496768 6.5080964 10.452025 6.5351562 10.40625 C 6.6955459 10.134746 6.8636838 9.8716764 7.0429688 9.6191406 C 7.0902722 9.5527724 7.1407215 9.4890839 7.1894531 9.4238281 C 7.3524996 9.2045993 7.5226975 8.9930405 7.6992188 8.7890625 C 7.7727297 8.704472 7.8477983 8.6213461 7.9238281 8.5390625 C 8.0835209 8.365594 8.2469719 8.196585 8.4160156 8.0351562 C 8.523492 7.9328086 8.6345339 7.8342888 8.7460938 7.7363281 C 8.8913061 7.6085751 9.0385001 7.484471 9.1894531 7.3652344 C 9.3234714 7.2594821 9.460632 7.1581266 9.5996094 7.0585938 C 9.7497963 6.9510049 9.9017892 6.845582 10.056641 6.7460938 C 10.204404 6.6511599 10.355293 6.5605926 10.507812 6.4726562 C 10.656017 6.3872345 10.805354 6.3047903 10.957031 6.2265625 C 11.122473 6.1412287 11.290707 6.0614324 11.460938 5.984375 C 11.609015 5.9173136 11.757493 5.8513822 11.908203 5.7910156 C 12.098653 5.7148566 12.292708 5.6457401 12.488281 5.5800781 C 12.62507 5.5340059 12.761946 5.4898735 12.900391 5.4492188 C 13.110565 5.3878074 13.323832 5.33419 13.539062 5.2851562 C 13.666958 5.2557809 13.794917 5.2259724 13.923828 5.2011719 C 14.179826 5.1524693 14.439144 5.1127329 14.701172 5.0820312 C 14.785678 5.0719543 14.870299 5.0608535 14.955078 5.0527344 C 15.255486 5.0245633 15.560146 5.0095093 15.867188 5.0058594 C 15.930398 5.0050821 15.993366 5.0016366 16.056641 5.0019531 z M 16 7 A 2 2 0 0 0 14 9 A 2 2 0 0 0 16 11 A 2 2 0 0 0 18 9 A 2 2 0 0 0 16 7 z M 16 13 C 14.35499 13 13 14.35499 13 16 C 13 17.64501 14.35499 19 16 19 C 17.64501 19 19 17.64501 19 16 C 19 14.35499 17.64501 13 16 13 z M 16 15 C 16.564129 15 17 15.435871 17 16 C 17 16.564129 16.564129 17 16 17 C 15.435871 17 15 16.564129 15 16 C 15 15.435871 15.435871 15 16 15 z M 10 18 A 2 2 0 0 0 8 20 A 2 2 0 0 0 10 22 A 2 2 0 0 0 12 20 A 2 2 0 0 0 10 18 z M 22 18 A 2 2 0 0 0 20 20 A 2 2 0 0 0 22 22 A 2 2 0 0 0 24 20 A 2 2 0 0 0 22 18 z" font-weight="400" font-family="sans-serif" white-space="normal" overflow="visible" fill="#000000"/></svg>
