<?xml version="1.0" encoding="utf-8"?>
<svg xmlns="http://www.w3.org/2000/svg" viewBox="0 0 32 32" fill="#000000"><path style="text-indent:0;text-align:start;line-height:normal;text-transform:none;block-progression:tb;-inkscape-font-specification:Sans" d="M 9 4 L 9 5 L 6 5 L 5 5 L 5 6 L 5 26 L 5 27 L 6 27 L 26 27 L 27 27 L 27 26 L 27 6 L 27 5 L 26 5 L 23 5 L 23 4 L 21 4 L 21 5 L 11 5 L 11 4 L 9 4 z M 7 7 L 9 7 L 9 8 L 11 8 L 11 7 L 21 7 L 21 8 L 23 8 L 23 7 L 25 7 L 25 9 L 7 9 L 7 7 z M 7 11 L 25 11 L 25 25 L 7 25 L 7 11 z M 13.5 14 C 12.130937 14 11 15.130937 11 16.5 C 11 17.869063 12.130937 19 13.5 19 C 13.786937 19 14 19.213063 14 19.5 C 14 19.864232 13.93915 20 13.5 20 C 13.120705 20 13.068225 19.91215 13.0625 19.90625 C 13.056775 19.900353 13 19.866336 13 19.625 L 11 19.625 C 11 20.192664 11.156725 20.830147 11.625 21.3125 C 12.093275 21.794853 12.775295 22 13.5 22 C 14.908848 22 16 20.791768 16 19.5 C 16 18.130937 14.869063 17 13.5 17 C 13.213063 17 13 16.786937 13 16.5 C 13 16.213063 13.213063 16 13.5 16 C 13.77034 16 13.844119 16.05675 13.90625 16.125 C 13.968381 16.19325 14 16.320536 14 16.40625 L 16 16.40625 C 16 15.839964 15.805369 15.254 15.375 14.78125 C 14.944631 14.3085 14.25966 14 13.5 14 z M 17 14 L 17 19.5 C 17 20.869063 18.130937 22 19.5 22 C 20.869063 22 22 20.869063 22 19.5 L 22 14 L 20 14 L 20 19.5 C 20 19.786937 19.786937 20 19.5 20 C 19.213063 20 19 19.786937 19 19.5 L 19 14 L 17 14 z" overflow="visible" font-family="Sans" fill="#000000"/></svg>
