<?xml version="1.0" encoding="utf-8"?>
<svg xmlns="http://www.w3.org/2000/svg" viewBox="0 0 32 32" fill="#000000"><path style="line-height:normal;text-indent:0;text-align:start;text-decoration-line:none;text-decoration-style:solid;text-decoration-color:#000;text-transform:none;block-progression:tb;isolation:auto;mix-blend-mode:normal" d="M 15.826172 1.7832031 L 2 11.480469 L 2 30 L 30 30 L 30 29 L 30 11.472656 L 15.826172 1.7832031 z M 15.839844 4.2167969 L 28 12.527344 L 28 28 L 4 28 L 4 12.519531 L 15.839844 4.2167969 z M 16 10.820312 L 5.9570312 17.097656 L 7 17.619141 L 7 25 L 9 25 L 9 18.617188 L 10 19.117188 L 10 21.617188 L 10.552734 21.894531 C 10.552734 21.894531 12.777778 23 16 23 C 19.222222 23 21.447266 21.894531 21.447266 21.894531 L 22 21.617188 L 22 19.117188 L 26.042969 17.097656 L 24.529297 16.152344 L 16 10.820312 z M 16 13.179688 L 21.958984 16.902344 L 20 17.882812 L 20 20.306641 C 19.412976 20.547938 18.155533 21 16 21 C 13.844467 21 12.587024 20.547938 12 20.306641 L 12 17.882812 L 10.041016 16.902344 L 16 13.179688 z" font-weight="400" font-family="sans-serif" white-space="normal" overflow="visible" fill="#000000"/></svg>
