<?xml version="1.0" encoding="utf-8"?>
<svg xmlns="http://www.w3.org/2000/svg" viewBox="0 0 32 32" fill="#000000"><path style="text-indent:0;text-align:start;line-height:normal;text-transform:none;block-progression:tb;-inkscape-font-specification:Bitstream Vera Sans" d="M 15 4 C 13.354545 4 12 5.3545455 12 7 L 12 8.5 L 10 10 L 9.96875 10.03125 C 8.7719457 10.988693 8 12.392308 8 14 L 8 14.3125 L 8 14.90625 L 8.5625 15.1875 C 8.7649768 15.288738 9 15.680952 9 16 C 9 16.319048 8.7649768 16.711262 8.5625 16.8125 L 8 17.09375 L 8 17.6875 L 8 20.3125 L 8 20.90625 L 8.5625 21.1875 C 8.7649768 21.288738 9 21.680952 9 22 C 9 22.319048 8.7649768 22.711262 8.5625 22.8125 L 8 23.09375 L 8 23.6875 L 8 25 C 8 26.645455 9.3545455 28 11 28 L 21 28 C 22.645455 28 24 26.645455 24 25 L 24 23.6875 L 24 23.09375 L 23.4375 22.8125 C 23.235023 22.711262 23 22.319048 23 22 C 23 21.680952 23.235023 21.288738 23.4375 21.1875 L 24 20.90625 L 24 20.3125 L 24 17.6875 L 24 17.09375 L 23.4375 16.8125 C 23.235023 16.711262 23 16.319048 23 16 C 23 15.680952 23.235023 15.288738 23.4375 15.1875 L 24 14.90625 L 24 14.3125 L 24 14 C 24 12.392308 23.228054 10.988693 22.03125 10.03125 L 22 10 L 20 8.5 L 20 7 C 20 5.3545455 18.645455 4 17 4 L 15 4 z M 15 6 L 17 6 C 17.554545 6 18 6.4454545 18 7 L 18 8 L 14 8 L 14 7 C 14 6.4454545 14.445455 6 15 6 z M 13.34375 10 L 18.65625 10 L 20.78125 11.59375 C 21.287498 11.998749 21.621064 12.468753 21.8125 13 L 16 13 L 16 15 L 21.21875 15 C 21.079614 15.310271 21 15.640518 21 16 C 21 16.818215 21.412725 17.515227 22 18.0625 L 22 19 L 16 19 L 16 21 L 21.21875 21 C 21.079614 21.310271 21 21.640518 21 22 C 21 22.818215 21.412725 23.515227 22 24.0625 L 22 25 C 22 25.554545 21.554545 26 21 26 L 11 26 C 10.445455 26 10 25.554545 10 25 L 10 24.0625 C 10.587275 23.515227 11 22.818215 11 22 C 11 21.181785 10.587275 20.484773 10 19.9375 L 10 18.0625 C 10.587275 17.515227 11 16.818215 11 16 C 11 15.181785 10.587275 14.484773 10 13.9375 C 10.01817 12.976031 10.433275 12.22213 11.21875 11.59375 L 13.34375 10 z" overflow="visible" font-family="Bitstream Vera Sans" fill="#000000"/></svg>
