<?xml version="1.0" encoding="utf-8"?>
<svg xmlns="http://www.w3.org/2000/svg" viewBox="0 0 32 32" fill="#000000"><path style="line-height:normal;text-indent:0;text-align:start;text-decoration-line:none;text-decoration-style:solid;text-decoration-color:#000;text-transform:none;block-progression:tb;isolation:auto;mix-blend-mode:normal" d="M 15 4 L 15 13 L 12 13 L 16 17 L 20 13 L 17 13 L 17 4 L 15 4 z M 3 6 L 3 26 L 29 26 L 29 6 L 19 6 L 19 8 L 27 8 L 27 24 L 25 24 L 25 20 L 12.125 20 L 7 20 L 7 24 L 5 24 L 5 8 L 13 8 L 13 6 L 3 6 z M 9 22 L 11 22 L 11 24 L 9 24 L 9 22 z M 13 22 L 14.917969 22 L 14.917969 24 L 13 24 L 13 22 z M 16.917969 22 L 19 22 L 19 24 L 16.917969 24 L 16.917969 22 z M 21 22 L 23 22 L 23 24 L 21 24 L 21 22 z" fill="#000000"/></svg>
