<?xml version="1.0" encoding="utf-8"?>
<!-- Generator: Adobe Illustrator 19.1.1, SVG Export Plug-In . SVG Version: 6.00 Build 0)  -->
<svg xmlns="http://www.w3.org/2000/svg" xmlns:xlink="http://www.w3.org/1999/xlink" version="1.1" x="0px" y="0px" viewBox="0 0 32 32" style="enable-background:new 0 0 32 32" xml:space="preserve" fill="#000000">
<polygon points="25,20 21,20 21,12 23,12 23,18 25,18 " fill="#000000"/>
<path d="M10.5,20C8.958,20,8,19.088,8,17.619h2c0,0.3,0,0.381,0.5,0.381c0.435,0,0.5-0.313,0.5-0.5c0-0.275-0.224-0.5-0.5-0.5  C9.122,17,8,15.879,8,14.5S9.122,12,10.5,12c1.624,0,2.5,1.24,2.5,2.407h-2C11,14.285,10.951,14,10.5,14c-0.276,0-0.5,0.225-0.5,0.5  s0.224,0.5,0.5,0.5c1.378,0,2.5,1.121,2.5,2.5C13,18.925,11.925,20,10.5,20z" fill="#000000"/>
<path d="M19,20h-2.5c-1.378,0-2.5-1.121-2.5-2.5v-3c0-1.379,1.122-2.5,2.5-2.5s2.5,1.121,2.5,2.5V20z M16.5,14  c-0.276,0-0.5,0.225-0.5,0.5v3c0,0.275,0.224,0.5,0.5,0.5H17v-3.5C17,14.225,16.776,14,16.5,14z" fill="#000000"/>
<path d="M32,25H0V7h32V25z M2,23h28V9H2V23z" fill="#000000"/>
<polygon points="18,17 16,17 18,21 20,21 " fill="#000000"/>
</svg>
