<?xml version="1.0" encoding="utf-8"?>
<svg xmlns="http://www.w3.org/2000/svg" viewBox="0 0 32 32" fill="#000000"><path style="text-indent:0;text-align:start;line-height:normal;text-transform:none;block-progression:tb;-inkscape-font-specification:Sans" d="M 16 4 C 9.3844277 4 4 9.3844277 4 16 C 4 22.615572 9.3844277 28 16 28 C 22.615572 28 28 22.615572 28 16 C 28 9.3844277 22.615572 4 16 4 z M 16 6 C 21.534692 6 26 10.465308 26 16 C 26 21.534692 21.534692 26 16 26 C 10.465308 26 6 21.534692 6 16 C 6 10.465308 10.465308 6 16 6 z M 15 10 L 15 18.125 L 12.71875 15.84375 L 11.28125 17.25 L 15 20.96875 L 15 21 L 15.03125 21 L 15.28125 21.25 L 16 21.96875 L 16.71875 21.25 L 16.96875 21 L 17 20.96875 L 20.71875 17.25 L 19.28125 15.84375 L 17 18.125 L 17 10 L 15 10 z" overflow="visible" font-family="Sans" fill="#000000"/></svg>
