<?xml version="1.0" encoding="utf-8"?>
<svg xmlns="http://www.w3.org/2000/svg" viewBox="0 0 32 32" fill="#000000"><path style="text-indent:0;text-align:start;line-height:normal;text-transform:none;block-progression:tb;-inkscape-font-specification:Sans" d="M 16 3 C 10.505028 3 6 7.3414886 6 12.71875 L 6 19.28125 C 6 24.659396 10.505028 29 16 29 C 21.494972 29 26 24.658511 26 19.28125 L 26 12.71875 C 26 7.3406042 21.494972 3 16 3 z M 16 5 C 19.831626 5 23.009099 7.5627694 23.8125 11 L 8.1875 11 C 8.9909013 7.5632537 12.168374 5 16 5 z M 13 7 L 13 9 L 19 9 L 19 7 L 13 7 z M 8 13 L 24 13 L 24 19.28125 C 24 19.505112 23.987963 19.718472 23.96875 19.9375 C 23.770395 18.921965 22.900886 18.175209 21.875 17.9375 C 21.620755 17.528591 21.274241 17.219694 20.84375 17 C 20.346797 15.861994 19.313246 15 18 15 C 16.818925 15 15.934346 15.732359 15.375 16.6875 C 14.4566 16.74454 13.749789 17.342515 13.40625 18.15625 C 12.60545 18.60698 12 19.394257 12 20.375 C 12 21.828757 13.204667 23 14.65625 23 L 21.34375 23 C 22.250724 23 23.050653 22.541809 23.53125 21.84375 C 22.437007 24.837056 19.50249 27 16 27 C 11.552972 27 8 23.545104 8 19.28125 L 8 13 z M 18 17 C 18.605087 17 19.072143 17.411984 19.1875 17.9375 L 19.3125 18.5 L 19.875 18.6875 C 20.079951 18.75157 20.215471 18.8774 20.28125 19.0625 L 20.53125 19.78125 L 21.28125 19.75 C 21.322217 19.747512 21.320727 19.722347 21.34375 19.71875 C 21.733443 19.71875 22 20.022757 22 20.375 C 22 20.727243 21.732591 21 21.34375 21 L 14.65625 21 C 14.265833 21 14 20.727243 14 20.375 C 14 20.097111 14.167282 19.87201 14.4375 19.78125 L 15.03125 19.5625 L 15.125 18.96875 C 15.14875 18.792499 15.284835 18.625 15.5 18.625 C 15.51256 18.625 15.53225 18.64115 15.59375 18.65625 L 16.59375 18.90625 L 16.8125 17.90625 C 16.935528 17.390601 17.40364 17 18 17 z" overflow="visible" font-family="Sans" fill="#000000"/></svg>
