<?xml version="1.0" encoding="utf-8"?>
<svg xmlns="http://www.w3.org/2000/svg" viewBox="0 0 32 32" fill="#000000"><path style="text-indent:0;text-align:start;line-height:normal;text-transform:none;block-progression:tb;-inkscape-font-specification:Bitstream Vera Sans" d="M 19.46875 4 C 19.313175 3.9891978 19.153445 4.0063252 19 4.03125 C 18.38622 4.1309494 17.832753 4.521993 17.53125 5.125 L 17.03125 6.0625 L 17.03125 6.09375 C 16.773442 6.6305434 16.798537 7.2501462 17.03125 7.78125 L 15.96875 8.84375 C 14.559783 10.253816 13.577683 12.003969 13.09375 13.9375 L 12.375 16.78125 L 11.125 18 L 11.84375 18.71875 L 7.3125 23.28125 L 6.4375 23.40625 L 5 24.84375 L 7.15625 27 L 8.59375 25.5625 L 8.71875 24.6875 L 13.28125 20.15625 L 14 20.875 L 15.21875 19.625 L 18.0625 18.90625 C 19.996031 18.422317 21.746184 17.440217 23.15625 16.03125 L 24.21875 14.96875 C 24.749746 15.193001 25.369125 15.197519 25.90625 14.9375 L 25.9375 14.9375 L 26.875 14.46875 C 28.081014 13.865743 28.360073 12.203823 27.40625 11.25 L 27.375 11.1875 L 20.9375 4.78125 L 20.75 4.59375 C 20.392316 4.2360663 19.935474 4.0324067 19.46875 4 z M 19.3125 6 C 19.315359 6.0043822 19.336213 5.9924557 19.34375 6 L 19.4375 6.09375 L 26 12.65625 C 26.007545 12.663795 25.995617 12.684639 26 12.6875 L 25.03125 13.15625 C 25.02375 13.16005 25.00815 13.16435 25 13.15625 L 18.84375 7 C 18.83565 6.99185 18.83885 6.978641 18.84375 6.96875 L 19.3125 6 z M 18.3125 9.3125 L 22.6875 13.6875 L 21.75 14.59375 C 21.571623 14.771987 21.379466 14.931526 21.1875 15.09375 L 16.90625 10.8125 C 17.068474 10.620534 17.228013 10.428377 17.40625 10.25 L 18.3125 9.3125 z M 15.78125 12.53125 L 19.46875 16.21875 C 18.859701 16.531682 18.230921 16.801455 17.5625 16.96875 L 16.09375 17.34375 L 16.71875 16.71875 L 15.28125 15.28125 L 14.65625 15.90625 L 15.03125 14.4375 C 15.198545 13.769079 15.468318 13.140299 15.78125 12.53125 z" overflow="visible" font-family="Bitstream Vera Sans" fill="#000000"/></svg>
