<?xml version="1.0" encoding="utf-8"?>
<svg xmlns="http://www.w3.org/2000/svg" viewBox="0 0 32 32" fill="#000000"><path style="text-indent:0;text-align:start;line-height:normal;text-transform:none;block-progression:tb;-inkscape-font-specification:Sans" d="M 14 8 C 13.447715 8 13 8.4477153 13 9 C 13 9.5522847 13.447715 10 14 10 C 14.552285 10 15 9.5522847 15 9 C 15 8.4477153 14.552285 8 14 8 z M 14 10 C 12.153 10 11.1665 13.28175 11.0625 13.59375 L 10.90625 14 L 17 14 L 16.875 13.59375 C 16.772 13.28175 15.847 10 14 10 z M 0.875 15 L 1 16.125 C 1 16.125 1.2682621 18.103449 2.65625 20.0625 C 3.9805258 21.931626 6.4551899 23.799472 10.4375 23.96875 C 11.387552 24.600833 12.576375 25 14 25 C 17.23382 25 19.547975 23.29895 21.28125 21.75 C 22.147888 20.975525 22.892346 20.224079 23.53125 19.71875 C 24.170154 19.213421 24.658276 19 25 19 L 25 18.9375 C 26.33577 18.816887 27.603226 18.480959 28.625 17.96875 C 29.902417 17.328389 31 16.395705 31 15 L 29 15 C 29 15.148295 28.663583 15.713861 27.71875 16.1875 C 26.773917 16.661139 25.399494 17 24 17 C 21.984681 17 20.664233 16.553339 19.84375 16.125 C 19.023267 15.696661 18.78125 15.375 18.78125 15.375 L 18.46875 15 L 18 15 L 2 15 L 0.875 15 z M 14 25 C 10.77 25 10 27 10 27 L 18 27 C 18 27 17.23 25 14 25 z M 3.3125 17 L 7 17 C 7.0683222 17.828562 7.2287349 19.043328 7.71875 20.34375 C 7.8864361 20.788762 8.0902417 21.246196 8.34375 21.6875 C 6.3014537 21.164996 5.0750501 20.057896 4.28125 18.9375 C 3.7835349 18.235009 3.5056161 17.549745 3.3125 17 z M 9 17 L 17.71875 17 C 17.958527 17.23398 18.13712 17.47347 18.90625 17.875 C 19.571473 18.222284 20.484952 18.536191 21.59375 18.75 C 21.051591 19.229962 20.508144 19.740041 19.9375 20.25 C 18.313775 21.70105 16.54118 23 14 23 C 12.686437 23 11.815217 22.604161 11.125 22 C 10.434783 21.395839 9.9311623 20.551688 9.59375 19.65625 C 9.2252663 18.678353 9.0709075 17.70649 9 17 z" overflow="visible" font-family="Sans" fill="#000000"/></svg>
