<?xml version="1.0" encoding="utf-8"?>
<svg xmlns="http://www.w3.org/2000/svg" viewBox="0 0 32 32" fill="#000000"><path style="line-height:normal;text-indent:0;text-align:start;text-decoration-line:none;text-decoration-style:solid;text-decoration-color:#000;text-transform:none;block-progression:tb;isolation:auto;mix-blend-mode:normal" d="M 23 5 C 20.802706 5 19 6.8027056 19 9 C 19 9.7782728 19.235254 10.500491 19.625 11.117188 L 16.519531 15 L 11.855469 15 C 11.405591 13.284214 9.8503014 12 8 12 C 5.8027056 12 4 13.802706 4 16 C 4 18.197294 5.8027056 20 8 20 C 9.8503014 20 11.405591 18.715786 11.855469 17 L 16.519531 17 L 19.625 20.882812 C 19.235254 21.499509 19 22.221727 19 23 C 19 25.197294 20.802706 27 23 27 C 25.197294 27 27 25.197294 27 23 C 27 20.802706 25.197294 19 23 19 C 22.305718 19 21.660916 19.196182 21.089844 19.511719 L 18.28125 16 L 21.089844 12.488281 C 21.660916 12.803818 22.305718 13 23 13 C 25.197294 13 27 11.197294 27 9 C 27 6.8027056 25.197294 5 23 5 z M 23 7 C 24.116414 7 25 7.8835859 25 9 C 25 10.116414 24.116414 11 23 11 C 21.883586 11 21 10.116414 21 9 C 21 7.8835859 21.883586 7 23 7 z M 8 14 C 9.1164141 14 10 14.883586 10 16 C 10 17.116414 9.1164141 18 8 18 C 6.8835859 18 6 17.116414 6 16 C 6 14.883586 6.8835859 14 8 14 z M 23 21 C 24.116414 21 25 21.883586 25 23 C 25 24.116414 24.116414 25 23 25 C 21.883586 25 21 24.116414 21 23 C 21 21.883586 21.883586 21 23 21 z" font-weight="400" font-family="sans-serif" white-space="normal" overflow="visible" fill="#000000"/></svg>
