<?xml version="1.0" encoding="utf-8"?>
<svg xmlns="http://www.w3.org/2000/svg" viewBox="0 0 32 32" fill="#000000"><path style="text-indent:0;text-align:start;line-height:normal;text-transform:none;block-progression:tb;-inkscape-font-specification:Sans" d="M 16 2.09375 L 15.28125 2.78125 L 14.75 3.3125 L 14.125 2.9375 L 13.3125 2.40625 L 12.75 3.21875 L 12.3125 3.90625 L 11.625 3.65625 L 10.71875 3.3125 L 10.375 4.21875 L 10.0625 5 L 9.34375 4.90625 L 8.40625 4.78125 L 8.21875 5.71875 L 8.0625 6.5625 L 7.3125 6.65625 L 6.40625 6.71875 L 6.40625 7.65625 L 6.4375 8.53125 L 5.65625 8.8125 L 4.8125 9.09375 L 5 9.96875 L 5.1875 10.84375 L 4.46875 11.28125 L 3.75 11.71875 L 4.09375 12.53125 L 4.4375 13.375 L 3.8125 13.96875 L 3.1875 14.5625 L 3.6875 15.25 L 4.1875 16 L 3.6875 16.75 L 3.1875 17.4375 L 3.8125 18.03125 L 4.4375 18.625 L 4.09375 19.46875 L 3.75 20.28125 L 4.46875 20.71875 L 5.1875 21.15625 L 5 22.03125 L 4.8125 22.90625 L 5.65625 23.1875 L 6.4375 23.46875 L 6.40625 24.34375 L 6.40625 25.28125 L 7.3125 25.34375 L 8.0625 25.4375 L 8.21875 26.28125 L 8.40625 27.21875 L 9.34375 27.09375 L 10.0625 27 L 10.375 27.78125 L 10.71875 28.6875 L 11.625 28.34375 L 12.3125 28.09375 L 12.75 28.78125 L 13.3125 29.59375 L 14.125 29.0625 L 14.75 28.6875 L 15.28125 29.21875 L 16 29.90625 L 16.71875 29.21875 L 17.25 28.6875 L 17.875 29.0625 L 18.6875 29.59375 L 19.25 28.78125 L 19.6875 28.09375 L 20.375 28.34375 L 21.28125 28.6875 L 21.625 27.78125 L 21.9375 27 L 22.65625 27.09375 L 23.59375 27.21875 L 23.78125 26.28125 L 23.9375 25.4375 L 24.6875 25.34375 L 25.59375 25.28125 L 25.59375 24.34375 L 25.5625 23.46875 L 26.34375 23.1875 L 27.1875 22.90625 L 27 22.03125 L 26.8125 21.15625 L 27.53125 20.71875 L 28.25 20.28125 L 27.90625 19.46875 L 27.5625 18.625 L 28.1875 18.03125 L 28.8125 17.4375 L 28.3125 16.75 L 27.8125 16 L 28.3125 15.25 L 28.8125 14.5625 L 28.1875 13.96875 L 27.5625 13.375 L 27.90625 12.53125 L 28.25 11.71875 L 27.53125 11.28125 L 26.8125 10.84375 L 27 9.96875 L 27.1875 9.09375 L 26.34375 8.8125 L 25.5625 8.53125 L 25.59375 7.65625 L 25.59375 6.71875 L 24.6875 6.65625 L 23.9375 6.5625 L 23.78125 5.71875 L 23.59375 4.78125 L 22.65625 4.90625 L 21.9375 5 L 21.625 4.21875 L 21.28125 3.3125 L 20.375 3.65625 L 19.6875 3.90625 L 19.25 3.21875 L 18.6875 2.40625 L 17.875 2.9375 L 17.25 3.3125 L 16.71875 2.78125 L 16 2.09375 z M 16 4.90625 L 16.40625 5.3125 L 16.96875 5.875 L 17.65625 5.4375 L 18.09375 5.15625 L 18.4375 5.65625 L 18.875 6.3125 L 19.625 6.03125 L 20.15625 5.84375 L 20.375 6.4375 L 20.65625 7.15625 L 21.4375 7.0625 L 22 7 L 22.125 7.65625 L 22.25 8.40625 L 23 8.46875 L 23.5625 8.53125 L 23.5625 9.25 L 23.5625 9.96875 L 24.25 10.21875 L 24.84375 10.40625 L 24.71875 11.125 L 24.5625 11.8125 L 25.15625 12.1875 L 25.71875 12.53125 L 25.4375 13.21875 L 25.1875 13.875 L 25.6875 14.34375 L 26.1875 14.84375 L 25.78125 15.4375 L 25.375 16 L 25.78125 16.5625 L 26.1875 17.15625 L 25.6875 17.65625 L 25.1875 18.125 L 25.4375 18.78125 L 25.71875 19.46875 L 25.15625 19.8125 L 24.5625 20.1875 L 24.71875 20.875 L 24.84375 21.59375 L 24.25 21.78125 L 23.5625 22.03125 L 23.5625 22.75 L 23.5625 23.46875 L 23 23.53125 L 22.25 23.59375 L 22.125 24.34375 L 22 25 L 21.4375 24.9375 L 20.65625 24.84375 L 20.375 25.5625 L 20.15625 26.15625 L 19.625 25.96875 L 18.875 25.6875 L 18.4375 26.34375 L 18.09375 26.84375 L 17.65625 26.5625 L 16.96875 26.125 L 16.40625 26.6875 L 16 27.09375 L 15.59375 26.6875 L 15.03125 26.125 L 14.34375 26.5625 L 13.90625 26.84375 L 13.5625 26.34375 L 13.125 25.6875 L 12.375 25.96875 L 11.84375 26.15625 L 11.625 25.5625 L 11.34375 24.84375 L 10.5625 24.9375 L 10 25 L 9.875 24.34375 L 9.75 23.59375 L 9 23.53125 L 8.4375 23.46875 L 8.4375 22.75 L 8.4375 22.03125 L 7.75 21.78125 L 7.15625 21.59375 L 7.28125 20.875 L 7.4375 20.1875 L 6.84375 19.8125 L 6.28125 19.46875 L 6.5625 18.78125 L 6.8125 18.125 L 6.3125 17.65625 L 5.8125 17.15625 L 6.21875 16.5625 L 6.625 16 L 6.21875 15.4375 L 5.8125 14.84375 L 6.3125 14.34375 L 6.8125 13.875 L 6.5625 13.21875 L 6.28125 12.53125 L 6.84375 12.1875 L 7.4375 11.8125 L 7.28125 11.125 L 7.15625 10.40625 L 7.75 10.21875 L 8.4375 9.96875 L 8.4375 9.25 L 8.4375 8.53125 L 9 8.46875 L 9.75 8.40625 L 9.875 7.65625 L 10 7 L 10.5625 7.0625 L 11.34375 7.15625 L 11.625 6.4375 L 11.84375 5.84375 L 12.375 6.03125 L 13.125 6.3125 L 13.5625 5.65625 L 13.90625 5.15625 L 14.34375 5.4375 L 15.03125 5.875 L 15.59375 5.3125 L 16 4.90625 z M 16 7 C 11.488939 7 7.9375 11.104851 7.9375 16 C 7.9375 20.895149 11.488939 25 16 25 C 20.511061 25 24.0625 20.895149 24.0625 16 C 24.0625 11.104851 20.511061 7 16 7 z M 15 9.09375 L 15 14 C 15 14.56503 14.56503 15 14 15 L 10 15 C 10.377476 11.940981 12.438217 9.5815881 15 9.09375 z M 17 9.09375 C 19.561783 9.5815881 21.622524 11.940981 22 15 L 18 15 C 17.43497 15 17 14.56503 17 14 L 17 9.09375 z M 10 17 L 14 17 C 14.56503 17 15 17.43497 15 18 L 15 22.90625 C 12.438217 22.418412 10.377476 20.059019 10 17 z M 18 17 L 22 17 C 21.622524 20.059019 19.561783 22.418412 17 22.90625 L 17 18 C 17 17.43497 17.43497 17 18 17 z" overflow="visible" font-family="Sans" fill="#000000"/></svg>
