<?xml version="1.0" encoding="utf-8"?>
<svg xmlns="http://www.w3.org/2000/svg" viewBox="0 0 32 32" fill="#000000"><path style="text-indent:0;text-align:start;line-height:normal;text-transform:none;block-progression:tb;-inkscape-font-specification:Bitstream Vera Sans" d="M 6.21875 6 L 6.03125 6.75 L 3.03125 18.75 L 3 18.875 L 3 19 L 3 25 L 3 26 L 4 26 L 28 26 L 29 26 L 29 25 L 29 19 L 29 18.875 L 28.96875 18.75 L 25.96875 6.75 L 25.78125 6 L 25 6 L 7 6 L 6.21875 6 z M 7.78125 8 L 24.21875 8 L 26.71875 18 L 5.28125 18 L 7.78125 8 z M 16 11 C 14.115 11 12.5105 11.33725 11.4375 11.65625 C 10.5845 11.91025 10 12.70375 10 13.59375 L 10 15 C 10 15.276 10.224 15.5 10.5 15.5 L 12.5 15.5 C 12.776 15.5 13 15.276 13 15 L 13 13.34375 C 13 13.34375 13.988 12.78125 16 12.78125 C 18.012 12.78125 19 13.34375 19 13.34375 L 19 15 C 19 15.276 19.224 15.5 19.5 15.5 L 21.5 15.5 C 21.776 15.5 22 15.276 22 15 L 22 13.59375 C 22 12.70375 21.4155 11.91025 20.5625 11.65625 C 19.4895 11.33725 17.885 11 16 11 z M 5 20 L 27 20 L 27 24 L 5 24 L 5 20 z M 8 21 C 7.4477153 21 7 21.447715 7 22 C 7 22.552285 7.4477153 23 8 23 C 8.5522847 23 9 22.552285 9 22 C 9 21.447715 8.5522847 21 8 21 z M 11 21 C 10.447715 21 10 21.447715 10 22 C 10 22.552285 10.447715 23 11 23 C 11.552285 23 12 22.552285 12 22 C 12 21.447715 11.552285 21 11 21 z M 14 21 C 13.447715 21 13 21.447715 13 22 C 13 22.552285 13.447715 23 14 23 C 14.552285 23 15 22.552285 15 22 C 15 21.447715 14.552285 21 14 21 z M 24 21 C 23.447715 21 23 21.447715 23 22 C 23 22.552285 23.447715 23 24 23 C 24.552285 23 25 22.552285 25 22 C 25 21.447715 24.552285 21 24 21 z" overflow="visible" font-family="Bitstream Vera Sans" fill="#000000"/></svg>
