<?xml version="1.0" encoding="utf-8"?>
<svg xmlns="http://www.w3.org/2000/svg" viewBox="0 0 32 32" fill="#000000"><path style="line-height:normal;text-indent:0;text-align:start;text-decoration-line:none;text-decoration-style:solid;text-decoration-color:#000;text-transform:none;block-progression:tb;isolation:auto;mix-blend-mode:normal" d="M 6.7695312 3.3554688 L 5.3554688 4.7695312 L 7.5507812 6.9648438 L 8.9648438 5.5507812 L 6.7695312 3.3554688 z M 25.292969 3.3554688 L 22.943359 5.7050781 L 24.357422 7.1191406 L 26.707031 4.7695312 L 25.292969 3.3554688 z M 18.003906 5 C 14.448166 4.9890061 11.666809 5.837407 9.7753906 7.5761719 C 7.8839719 9.3149367 7 11.871489 7 14.896484 L 7 15.652344 C 6.3938834 16.24949 6 17.010384 6 17.863281 C 6 19.217008 6.9527504 20.179212 8.1503906 20.626953 C 8.8178001 22.8197 9.1809663 24.367572 10.669922 26.382812 L 10.691406 26.412109 L 10.714844 26.439453 C 12.147541 28.111499 14.067448 29 16 29 C 17.932552 29 19.852943 28.111598 21.285156 26.439453 L 21.308594 26.412109 L 21.328125 26.382812 C 22.818121 24.367529 23.182174 22.819758 23.849609 20.626953 C 25.047422 20.179095 26 19.216485 26 17.863281 C 26 17.010384 25.606117 16.24949 25 15.652344 L 25 14.896484 C 25 12.129746 24.489365 10.16113 23.396484 8.8320312 C 22.456339 7.6886799 21.099464 7.2437463 19.675781 7.1171875 L 18.619141 5.0019531 L 18.003906 5 z M 17.419922 7.0742188 L 18.019531 8.2734375 C 18.023341 8.3195486 18.031437 8.389517 18.03125 8.4140625 L 18.03125 8.4160156 C 18.02525 9.3047051 17.852655 9.427939 17.455078 9.6367188 C 17.057501 9.8454984 16.279435 9.9588528 15.392578 10.058594 C 14.505721 10.158334 13.497534 10.24671 12.574219 10.808594 C 11.650905 11.370481 11 12.516667 11 14 L 13 14 C 13 12.983333 13.223127 12.755007 13.613281 12.517578 C 14.003435 12.28015 14.748216 12.144384 15.615234 12.046875 C 16.482252 11.949365 17.461124 11.891283 18.384766 11.40625 C 19.159965 10.999169 19.781607 10.161608 19.96875 9.0761719 C 20.770778 9.2060154 21.373297 9.5195015 21.853516 10.103516 C 22.510635 10.902667 23 12.382223 23 14.896484 L 23 16.580078 L 23.503906 16.869141 C 23.695411 16.97848 24 17.494992 24 17.863281 C 24 18.275402 23.345186 18.969571 22.919922 19.003906 L 22.246094 19.058594 L 22.044922 19.703125 C 21.278399 22.168319 21.091643 23.319564 19.742188 25.158203 C 18.653402 26.416357 17.321301 27 16 27 C 14.678693 27 13.345161 26.41647 12.255859 25.158203 C 10.907307 23.319546 10.721599 22.168313 9.9550781 19.703125 L 9.7539062 19.058594 L 9.0800781 19.003906 C 8.6562883 18.969656 8 18.274759 8 17.863281 C 8 17.494992 8.3045893 16.97848 8.4960938 16.869141 L 9 16.580078 L 9 16 L 9 14.896484 C 9 12.24848 9.7183255 10.345563 11.128906 9.0488281 C 12.440802 7.842814 14.541347 7.1643828 17.419922 7.0742188 z M 3.3164062 8.0507812 L 2.6835938 9.9492188 L 5.5195312 10.894531 L 6.1523438 8.9960938 L 3.3164062 8.0507812 z M 28.746094 8.0507812 L 25.904297 8.9980469 L 26.537109 10.896484 L 29.378906 9.9492188 L 28.746094 8.0507812 z M 2 13 L 2 15 L 5 15 L 5 13 L 2 13 z M 27 13 L 27 15 L 30 15 L 30 13 L 27 13 z M 13 17 A 1 1 0 0 0 12 18 A 1 1 0 0 0 13 19 A 1 1 0 0 0 14 18 A 1 1 0 0 0 13 17 z M 19 17 A 1 1 0 0 0 18 18 A 1 1 0 0 0 19 19 A 1 1 0 0 0 20 18 A 1 1 0 0 0 19 17 z M 14 22 C 14 23.105 14.895 24 16 24 C 17.105 24 18 23.105 18 22 L 14 22 z" fill="#000000"/></svg>
