<?xml version="1.0" encoding="utf-8"?>
<svg xmlns="http://www.w3.org/2000/svg" viewBox="0 0 32 32" fill="#000000"><path style="text-indent:0;text-align:start;line-height:normal;text-transform:none;block-progression:tb;-inkscape-font-specification:Bitstream Vera Sans" d="M 6 4 L 6 5 L 6 27 L 6 28 L 7 28 L 25 28 L 26 28 L 26 27 L 26 5 L 26 4 L 25 4 L 7 4 L 6 4 z M 8 6 L 15 6 L 15 12 L 8 12 L 8 6 z M 17 6 L 24 6 L 24 12 L 17 12 L 17 6 z M 8 14 L 15 14 L 15 26 L 8 26 L 8 14 z M 17 14 L 24 14 L 24 26 L 17 26 L 17 14 z" overflow="visible" font-family="Bitstream Vera Sans" fill="#000000"/></svg>
