<?xml version="1.0" encoding="utf-8"?>
<svg xmlns="http://www.w3.org/2000/svg" viewBox="0 0 32 32" fill="#000000"><path style="text-indent:0;text-align:start;line-height:normal;text-transform:none;block-progression:tb;-inkscape-font-specification:Sans" d="M 8 5 C 6.3545455 5 5 6.3545455 5 8 C 5 9.6454545 6.3545455 11 8 11 L 10.59375 11 C 11.525854 11 12.316421 11.6466 12.5 12.5625 L 13.03125 15.1875 C 13.036178 15.262843 13.052114 15.33242 13.0625 15.40625 L 8.5 18.15625 L 8 18.4375 L 8 19 L 8 25 L 7 25 L 7 27 L 25 27 L 25 25 L 24 25 L 24 19 L 24 18.4375 L 23.5 18.15625 L 18.9375 15.40625 C 18.947886 15.33242 18.963822 15.262843 18.96875 15.1875 L 19 15.0625 C 19.000457 15.041193 19 15.021408 19 15 L 19.5 12.5625 C 19.68281 11.647122 20.47281 11 21.40625 11 L 24 11 C 25.645455 11 27 9.6454545 27 8 C 27 6.3545455 25.645455 5 24 5 L 20 5 L 20 7 L 24 7 C 24.554545 7 25 7.4454545 25 8 C 25 8.5545455 24.554545 9 24 9 L 21.40625 9 C 19.53169 9 17.89844 10.348878 17.53125 12.1875 L 17.5 12.40625 C 17.342621 12.314553 17.173904 12.218574 17 12.15625 L 17 9 L 19 9 L 19 7 L 13 7 L 13 9 L 15 9 L 15 12.15625 C 14.826096 12.218574 14.657379 12.314553 14.5 12.40625 L 14.46875 12.1875 L 14.46875 12.15625 C 14.100329 10.31815 12.467646 9 10.59375 9 L 8 9 C 7.4454545 9 7 8.5545455 7 8 C 7 7.4454545 7.4454545 7 8 7 L 12 7 L 12 5 L 8 5 z M 16 14 C 16.564128 14 17 14.435872 17 15 C 17 15.564128 16.564128 16 16 16 C 15.435872 16 15 15.564128 15 15 C 15 14.435872 15.435872 14 16 14 z M 13.96875 17.15625 C 14.502381 17.674154 15.202039 18 16 18 C 16.797961 18 17.497619 17.674154 18.03125 17.15625 L 22 19.53125 L 22 25 L 10 25 L 10 19.53125 L 13.96875 17.15625 z" fill="#000000"/></svg>
