<?xml version="1.0" encoding="utf-8"?>
<svg xmlns="http://www.w3.org/2000/svg" viewBox="0 0 32 32" fill="#000000"><path style="text-indent:0;text-align:start;line-height:normal;text-transform:none;block-progression:tb;-inkscape-font-specification:Bitstream Vera Sans" d="M 3.71875 2.28125 L 2.28125 3.71875 L 28.28125 29.71875 L 29.71875 28.28125 L 18.46875 17.03125 L 21.8125 15.75 L 23.84375 8.6875 L 27.4375 6.90625 L 26.5625 5.09375 L 22.15625 7.3125 L 20.1875 14.25 L 16.90625 15.46875 L 15.9375 14.5 L 19.53125 13.1875 L 17.78125 8.375 L 12.28125 10.375 C 12.170258 10.415966 12.070593 10.477384 11.96875 10.53125 L 3.71875 2.28125 z M 16.5625 10.9375 L 16.96875 11.96875 L 14.375 12.9375 L 13.5 12.0625 L 16.5625 10.9375 z M 8.21875 13 C 6.52975 13 5.15625 14.3735 5.15625 16.0625 C 5.15625 17.7515 6.52975 19.125 8.21875 19.125 C 9.90775 19.125 11.3125 17.7525 11.3125 16.0625 C 11.3125 15.8315 11.26675 15.62325 11.21875 15.40625 L 8.90625 13.09375 C 8.68925 13.04475 8.45075 13 8.21875 13 z M 8.21875 15 C 8.80575 15 9.3125 15.4775 9.3125 16.0625 C 9.3125 16.6495 8.80475 17.125 8.21875 17.125 C 7.63275 17.126 7.15625 16.6495 7.15625 16.0625 C 7.15625 15.4775 7.63275 15 8.21875 15 z M 12.8125 17 L 12.40625 17.15625 L 6.25 24.34375 L 7.75 25.65625 L 13.59375 18.84375 L 14.375 18.5625 L 12.8125 17 z" overflow="visible" font-family="Bitstream Vera Sans" fill="#000000"/></svg>
