<?xml version="1.0" encoding="utf-8"?>
<svg xmlns="http://www.w3.org/2000/svg" viewBox="0 0 32 32" fill="#000000"><path style="text-indent:0;text-align:start;line-height:normal;text-transform:none;block-progression:tb;-inkscape-font-specification:Bitstream Vera Sans" d="M 17 4 C 10.979452 4 6 8.9794518 6 15 C 6 17.543592 6.091763 19.613037 5.90625 21.40625 C 5.7207371 23.199463 5.301586 24.716284 4.1875 26.34375 L 4 26.59375 L 4 26.90625 L 4 27 L 4 28.46875 L 5.375 27.9375 C 7.9163399 26.946837 9.6143354 24.948364 10.625 22.625 C 10.825658 22.163717 10.878944 21.6426 11.03125 21.15625 C 11.152825 23.772424 13.34668 26 16 26 C 17.691017 26 20.501551 25.410351 23.09375 23.75 C 25.685949 22.089649 28 19.219043 28 15 C 28 8.9794518 23.020548 4 17 4 z M 17 6 C 21.915452 6 26 10.084548 26 15 C 26 18.516957 24.225801 20.656851 22.03125 22.0625 C 19.836699 23.468149 17.161983 24 16 24 C 14.477324 24 13 22.475855 13 20.9375 C 13 19.399145 14.445966 18 16 18 C 17.359531 18 18.23974 18.719097 18.84375 20 L 19.28125 20.9375 L 20.1875 20.46875 C 20.1875 20.46875 24 18.705698 24 15 C 24 11.12842 20.87158 8 17 8 C 13.12842 8 10 11.12842 10 15 C 10 17.442512 9.6360854 19.878614 8.78125 21.84375 C 8.4266901 22.658829 7.9312086 23.335395 7.40625 23.96875 C 7.6228292 23.195934 7.8239059 22.420958 7.90625 21.625 C 8.1147371 19.609713 8 17.487408 8 15 C 8 10.084548 12.084548 6 17 6 z M 17 10 C 19.81042 10 22 12.18958 22 15 C 22 16.753331 20.628332 17.779966 19.90625 18.25 C 18.984588 16.992545 17.722043 16 16 16 C 14.166651 16 12.588349 17.080386 11.71875 18.59375 C 11.898681 17.410515 12 16.202142 12 15 C 12 12.18958 14.18958 10 17 10 z" overflow="visible" font-family="Bitstream Vera Sans" fill="#000000"/></svg>
