<?xml version="1.0" encoding="utf-8"?>
<svg xmlns="http://www.w3.org/2000/svg" viewBox="0 0 32 32" fill="#000000"><path style="text-indent:0;text-align:start;line-height:normal;text-transform:none;block-progression:tb;-inkscape-font-specification:Sans" d="M 15 3 L 15 4.25 L 8.71875 6.03125 L 8 6.25 L 8 7 L 7 7 L 7 8 L 7 11 L 7 12 L 8 12 L 8 27 L 6 27 L 6 29 L 26 29 L 26 27 L 24 27 L 24 12 L 25 12 L 25 11 L 25 8 L 25 7 L 24 7 L 24 6.25 L 23.28125 6.03125 L 17 4.25 L 17 3 L 15 3 z M 16 6.0625 L 19.34375 7 L 12.65625 7 L 16 6.0625 z M 9 9 L 23 9 L 23 10 L 9 10 L 9 9 z M 10 12 L 22 12 L 22 27 L 10 27 L 10 12 z M 12 13 L 12 16 L 15 16 L 15 13 L 12 13 z M 17 13 L 17 16 L 20 16 L 20 13 L 17 13 z M 12 17 L 12 20 L 15 20 L 15 17 L 12 17 z M 17 17 L 17 20 L 20 20 L 20 17 L 17 17 z" fill="#000000"/></svg>
