<?xml version="1.0" encoding="utf-8"?>
<svg xmlns="http://www.w3.org/2000/svg" viewBox="0 0 32 32" fill="#000000"><path style="text-indent:0;text-align:start;line-height:normal;text-transform:none;block-progression:tb;-inkscape-font-specification:Sans" d="M 4 4 L 4 26 L 13.15625 26 C 13.06825 25.512 13 25.013 13 24.5 C 13 24.331 13.02225 24.166 13.03125 24 L 9 24 L 9 21 L 13.75 21 C 14.08 20.273 14.52025 19.601 15.03125 19 L 13 19 L 13 16 L 26 16 L 28 16 L 28 4 L 4 4 z M 6 6 L 11 6 L 11 9 L 6 9 L 6 6 z M 13 6 L 19 6 L 19 9 L 13 9 L 13 6 z M 21 6 L 26 6 L 26 9 L 21 9 L 21 6 z M 6 11 L 7 11 L 7 14 L 6 14 L 6 11 z M 9 11 L 15 11 L 15 14 L 9 14 L 9 11 z M 17 11 L 23 11 L 23 14 L 17 14 L 17 11 z M 25 11 L 26 11 L 26 14 L 25 14 L 25 11 z M 6 16 L 11 16 L 11 19 L 6 19 L 6 16 z M 21.5 17 C 20.983714 17 20.487422 17.056043 20 17.15625 C 19.891868 17.178181 19.793923 17.223423 19.6875 17.25 C 19.497772 17.29779 19.308751 17.344248 19.125 17.40625 C 19.084303 17.419922 19.040398 17.423141 19 17.4375 C 16.096575 18.473513 14 21.248715 14 24.5 C 14 28.630291 17.369709 32 21.5 32 C 22.005821 32 22.490536 31.940035 22.96875 31.84375 C 23.466359 31.946138 23.972209 32 24.5 32 C 28.63039 32 32 28.63039 32 24.5 C 32 21.635544 30.371085 19.137498 28 17.875 C 27.808118 17.773343 27.607296 17.67916 27.40625 17.59375 C 27.281885 17.540988 27.158903 17.48362 27.03125 17.4375 C 26.929375 17.400579 26.822604 17.376317 26.71875 17.34375 C 26.014991 17.124021 25.274448 17 24.5 17 C 23.982836 17 23.487883 17.058117 23 17.15625 C 22.512578 17.056043 22.016286 17 21.5 17 z M 21.5 19 C 24.549411 19 27 21.450589 27 24.5 C 27 27.549411 24.549411 30 21.5 30 C 18.450589 30 16 27.549411 16 24.5 C 16 21.450589 18.450589 19 21.5 19 z M 27.3125 19.78125 C 28.922227 20.738054 30 22.481876 30 24.5 C 30 26.518124 28.922227 28.261946 27.3125 29.21875 C 28.358425 27.929156 29 26.282903 29 24.5 C 29 22.717097 28.358425 21.070844 27.3125 19.78125 z M 6 21 L 7 21 L 7 24 L 6 24 L 6 21 z M 19 21 L 19 22 L 19 23 L 19 23.6875 L 19.625 23.9375 L 21.875 24.8125 C 21.94498 24.9002 22 24.979123 22 25.09375 L 22 25.5 C 22 25.786937 21.786937 26 21.5 26 C 21.213063 26 21 25.786937 21 25.5 L 21 25 L 19 25 L 19 25.5 C 19 26.869063 20.130937 28 21.5 28 C 22.869063 28 24 26.869063 24 25.5 L 24 25.09375 C 24 24.394385 23.705067 23.724158 23.1875 23.25 L 23.0625 23.125 L 22.875 23.0625 L 22.71875 23 L 24 23 L 24 21 L 20 21 L 19 21 z" fill="#000000"/></svg>
