<?xml version="1.0" encoding="utf-8"?>
<svg xmlns="http://www.w3.org/2000/svg" viewBox="0 0 32 32" fill="#000000"><path style="text-indent:0;text-align:start;line-height:normal;text-transform:none;block-progression:tb;-inkscape-font-specification:Bitstream Vera Sans" d="M 16 2.9375 L 15.625 3.0625 C 15.625 3.0625 13.002348 4.1188419 10.375 6.21875 C 7.7476517 8.3186581 5 11.576613 5 16 C 5 18.989607 5.8245032 21.560097 5.96875 22 L 5.03125 25.75 L 4.78125 26.71875 L 5.75 26.96875 L 13.75 28.96875 L 15 29.28125 L 15 28 L 15 27.03125 C 15.314993 27.020972 15.632084 27 15.9375 27 C 16.286167 27 16.643516 27.04325 17 27.0625 L 17 28 L 17 29.28125 L 18.25 28.96875 L 26.25 26.96875 L 27.21875 26.71875 L 26.96875 25.75 L 26.03125 22 C 26.175497 21.560097 27 18.989607 27 16 C 27 11.576613 24.252348 8.3186581 21.625 6.21875 C 18.997652 4.1188419 16.375 3.0625 16.375 3.0625 L 16 2.9375 z M 16 5.125 C 16.489801 5.3342504 18.301338 6.1238753 20.375 7.78125 C 21.359979 8.5684944 22.302774 9.5170002 23.09375 10.59375 C 23.036238 10.719959 23 10.852255 23 11 C 23 11.552285 23.447715 12 24 12 C 24.612508 13.186821 25 14.524408 25 16 C 25 18.814268 24.0625 21.6875 24.0625 21.6875 L 23.96875 21.96875 L 24.03125 22.25 L 24.78125 25.28125 L 19 26.71875 L 19 22.5 L 21.625 20.53125 C 22.497746 19.875989 23 18.842482 23 17.75 L 23 17.46875 C 23 15.563091 21.436909 14 19.53125 14 C 18.218469 14 17.024854 14.731541 16.4375 15.90625 L 16 16.78125 L 15.5625 15.90625 C 14.976127 14.730699 13.782129 14 12.46875 14 C 10.563091 14 9 15.563091 9 17.46875 L 9 17.75 C 9 18.841625 9.5005683 19.875777 10.375 20.53125 L 13 22.5 L 13 26.71875 L 7.21875 25.28125 L 7.96875 22.25 L 8.03125 21.96875 L 7.9375 21.6875 C 7.9375 21.6875 7 18.814268 7 16 C 7 14.518785 7.414633 13.190246 8.03125 12 C 8.5685559 11.982916 9 11.541456 9 11 C 9 10.861929 8.9568528 10.744638 8.90625 10.625 C 9.7000758 9.5394002 10.633659 8.5735797 11.625 7.78125 C 13.698662 6.1238753 15.510199 5.3342504 16 5.125 z M 12 10 C 11.447715 10 11 10.447715 11 11 C 11 11.552285 11.447715 12 12 12 C 12.552285 12 13 11.552285 13 11 C 13 10.447715 12.552285 10 12 10 z M 16 10 C 15.447715 10 15 10.447715 15 11 C 15 11.552285 15.447715 12 16 12 C 16.552285 12 17 11.552285 17 11 C 17 10.447715 16.552285 10 16 10 z M 20 10 C 19.447715 10 19 10.447715 19 11 C 19 11.552285 19.447715 12 20 12 C 20.552285 12 21 11.552285 21 11 C 21 10.447715 20.552285 10 20 10 z M 12.46875 16 C 13.029371 16 13.531623 16.312051 13.78125 16.8125 L 15.09375 19.4375 L 16 21.25 L 16.90625 19.4375 L 18.21875 16.8125 C 18.469396 16.311209 18.972031 16 19.53125 16 C 20.355591 16 21 16.644409 21 17.46875 L 21 17.75 C 21 18.213518 20.777504 18.658761 20.40625 18.9375 L 17.40625 21.1875 L 17 21.5 L 17 22 L 17 25.0625 C 16.645777 25.045467 16.296759 25 15.9375 25 C 15.623808 25 15.313819 25.022558 15 25.03125 L 15 22 L 15 21.5 L 14.59375 21.1875 L 11.59375 18.9375 C 11.222182 18.658973 11 18.214375 11 17.75 L 11 17.46875 C 11 16.644409 11.644409 16 12.46875 16 z" overflow="visible" font-family="Bitstream Vera Sans" fill="#000000"/></svg>
