<?xml version="1.0" encoding="utf-8"?>
<svg xmlns="http://www.w3.org/2000/svg" viewBox="0 0 32 32" fill="#000000"><path d="M 16.244141 2.0039062 C 12.425346 1.8892654 9.1766557 4.4821586 8.2636719 8 L 8 8 L 7 8 L 7 10 L 8 10 L 8 16.330078 C 7.9636789 16.347864 7.9423829 16.351149 7.9042969 16.371094 C 7.4378531 16.615361 6.837291 17.023081 6.25 17.677734 C 5.0952211 18.964968 4.0412376 21.201657 4.0058594 24.822266 A 1.0001 1.0001 0 0 0 4 25.128906 L 4 28 A 1.0001 1.0001 0 0 0 5.75 28.673828 A 1.0001 1.0001 0 0 0 7.5019531 27.886719 A 1.0001 1.0001 0 0 0 7.7070312 26.292969 L 6.0136719 24.599609 C 6.0861604 21.516614 6.9511178 19.891124 7.7382812 19.013672 C 7.8287525 18.912824 7.9118595 18.854351 8 18.771484 L 8 21.824219 A 1.0001 1.0001 0 0 0 8 22.152344 L 8 24 C 8 26.197334 9.8026661 28 12 28 L 12.382812 28 L 13.105469 29.447266 A 1.0001 1.0001 0 0 0 13.142578 29.515625 C 13.059697 29.661279 13 29.820542 13 30 L 15 30 C 15 29.831245 14.94696 29.680502 14.873047 29.541016 L 16 28.414062 L 17.126953 29.541016 C 17.05304 29.680502 17 29.831245 17 30 L 18.015625 30 L 19 30 C 19 29.820542 18.940303 29.661279 18.857422 29.515625 A 1.0001 1.0001 0 0 0 18.894531 29.447266 L 19.617188 28 L 20 28 C 22.197334 28 24 26.197334 24 24 L 24 22.152344 A 1.0001 1.0001 0 0 0 24 21.820312 L 24 18.771484 C 24.088141 18.854351 24.171248 18.912824 24.261719 19.013672 C 25.048885 19.891057 25.91384 21.516614 25.986328 24.599609 L 24.292969 26.292969 A 1.0001 1.0001 0 0 0 24.507812 27.890625 A 1.0001163 1.0001163 0 0 0 26.244141 28.667969 A 1.0001 1.0001 0 0 0 28 28 L 28 25.126953 A 1.0001 1.0001 0 0 0 28.003906 25.064453 A 1.0001 1.0001 0 0 0 28 24.865234 A 1.0001 1.0001 0 0 0 27.992188 24.808594 C 27.954552 21.195183 26.903481 18.963521 25.75 17.677734 C 25.162709 17.023081 24.562147 16.615355 24.095703 16.371094 C 24.057617 16.351149 24.036321 16.347864 24 16.330078 L 24 10.292969 C 24 10.194564 23.989746 10.09782 23.986328 10 L 24 10 L 25 10 L 25 8 L 24 8 L 23.677734 8 C 22.74231 4.6864246 19.842797 2.1119318 16.244141 2.0039062 z M 16.185547 4.0019531 C 18.662095 4.0762949 20.723212 5.7492333 21.576172 8 L 19.855469 8 C 19.405591 6.2842135 17.850301 5 16 5 C 14.149699 5 12.594409 6.2842135 12.144531 8 L 10.34375 8 C 11.182697 5.6103199 13.480114 3.9207355 16.185547 4.0019531 z M 16 7 C 17.116414 7 18 7.8835859 18 9 C 18 10.116414 17.116414 11 16 11 C 14.950672 11 14.117132 10.216132 14.019531 9.1953125 A 1 1 0 0 0 15 10 A 1 1 0 0 0 16 9 A 1 1 0 0 0 15 8 A 1 1 0 0 0 14.019531 8.796875 C 14.120649 7.7798565 14.953328 7 16 7 z M 10 10 L 12.144531 10 C 12.594409 11.715786 14.149699 13 16 13 C 17.850301 13 19.405591 11.715786 19.855469 10 L 21.986328 10 C 21.990767 10.097595 22 10.194533 22 10.292969 L 22 16.382812 L 18.763672 18 L 13.236328 18 L 10 16.382812 L 10 10 z M 13.707031 14.292969 L 12.292969 15.707031 C 12.292969 15.707031 12.683477 16.084903 13.302734 16.394531 C 13.921991 16.70416 14.833333 17 16 17 C 17.166667 17 18.078009 16.70416 18.697266 16.394531 C 19.316523 16.084903 19.707031 15.707031 19.707031 15.707031 L 18.292969 14.292969 C 18.292969 14.292969 18.183477 14.415097 17.802734 14.605469 C 17.421991 14.79584 16.833333 15 16 15 C 15.166667 15 14.578009 14.79584 14.197266 14.605469 C 13.816523 14.415097 13.707031 14.292969 13.707031 14.292969 z M 10 18.617188 L 12 19.617188 L 12 21.921875 C 11.783479 21.904855 11.775288 21.921861 11.515625 21.884766 C 10.946836 21.80351 10.352255 21.611825 10 21.455078 L 10 18.617188 z M 22 18.617188 L 22 21.455078 C 21.647745 21.611825 21.053164 21.80351 20.484375 21.884766 C 20.224712 21.92186 20.216521 21.904857 20 21.921875 L 20 19.617188 L 22 18.617188 z M 14 20 L 18 20 L 18 24 L 19 24 C 19 24 19.811429 24.0015 20.765625 23.865234 C 21.157527 23.809249 21.579392 23.735091 22 23.623047 L 22 24 C 22 25.116666 21.116666 26 20 26 L 19.164062 26 A 1.0001 1.0001 0 0 0 18.955078 25.988281 A 1.0001 1.0001 0 0 0 18.845703 26 L 16.175781 26 A 1.0001 1.0001 0 0 0 15.992188 25.986328 A 1.0001 1.0001 0 0 0 15.990234 25.986328 A 1.0001 1.0001 0 0 0 15.988281 25.986328 A 1.0001 1.0001 0 0 0 15.830078 26 L 13.138672 26 A 1.0001 1.0001 0 0 0 13.015625 25.988281 A 1.0001 1.0001 0 0 0 12.845703 26 L 12 26 C 10.883334 26 10 25.116666 10 24 L 10 23.623047 C 10.420608 23.735091 10.842473 23.809249 11.234375 23.865234 C 12.188571 24.001549 13 24 13 24 L 14 24 L 14 20 z" fill="#000000"/></svg>
