<?xml version="1.0" encoding="utf-8"?>
<svg xmlns="http://www.w3.org/2000/svg" viewBox="0 0 32 32" fill="#000000"><path style="text-indent:0;text-align:start;line-height:normal;text-transform:none;block-progression:tb;-inkscape-font-specification:Sans" d="M 14 3 C 10.145852 3 7 6.1458513 7 10 C 7 12.408843 8.2311596 14.55212 10.09375 15.8125 C 6.5262529 17.341707 4 20.87927 4 25 L 6 25 C 6 20.589 9.589 17 14 17 C 17.931 17 21.208 19.85075 21.875 23.59375 L 23.53125 21.9375 C 22.641625 19.171 20.554304 16.945854 17.90625 15.8125 C 19.76884 14.55212 21 12.408843 21 10 C 21 6.1458513 17.854148 3 14 3 z M 14 5 C 16.773268 5 19 7.2267317 19 10 C 19 12.773268 16.773268 15 14 15 C 11.226732 15 9 12.773268 9 10 C 9 7.2267317 11.226732 5 14 5 z M 27.28125 20.28125 L 21 26.5625 L 17.71875 23.28125 L 16.28125 24.71875 L 20.28125 28.71875 L 21 29.40625 L 21.71875 28.71875 L 28.71875 21.71875 L 27.28125 20.28125 z" overflow="visible" font-family="Sans" fill="#000000"/></svg>
