<?xml version="1.0" encoding="utf-8"?>
<svg xmlns="http://www.w3.org/2000/svg" viewBox="0 0 32 32" fill="#000000"><path style="text-indent:0;text-align:start;line-height:normal;text-transform:none;block-progression:tb;-inkscape-font-specification:Bitstream Vera Sans" d="M 16 4 C 13.082444 4 10.349226 4.7611114 8.3125 6.34375 C 6.275774 7.9263886 5 10.373115 5 13.4375 C 5 16.240284 6.3789135 18.427631 7.125 19.40625 C 7.0631821 19.728857 7 20.071423 7 20.46875 C 7 21.660013 7.7141261 22.661492 8.65625 23.21875 C 9.317547 23.609901 10.172048 23.679517 11 23.78125 L 11 26 L 11 26.40625 L 11.3125 26.71875 C 11.3125 26.71875 11.746049 27.137181 12.5 27.4375 C 13.253951 27.737819 14.398606 28 16 28 C 17.601394 28 18.746049 27.737819 19.5 27.4375 C 20.253951 27.137181 20.6875 26.71875 20.6875 26.71875 L 21 26.40625 L 21 26 L 21 23.78125 C 21.827952 23.679517 22.682453 23.609901 23.34375 23.21875 C 24.285874 22.661492 25 21.660013 25 20.46875 C 25 20.071423 24.936818 19.728857 24.875 19.40625 C 25.621086 18.427631 27 16.240284 27 13.4375 C 27 10.372664 25.724235 7.9265358 23.6875 6.34375 C 21.650765 4.7609642 18.917556 4 16 4 z M 16 6 C 18.572444 6 20.846735 6.6700358 22.4375 7.90625 C 24.028265 9.1424642 25 10.910336 25 13.4375 C 25 14.797033 24.56387 16.000414 24.09375 16.90625 C 24.043656 16.658835 24 16.38689 24 16 L 22 16 C 22 17.236465 22.340976 18.059955 22.59375 18.65625 C 22.846524 19.252545 23 19.620859 23 20.46875 C 23 20.949487 22.815876 21.202258 22.3125 21.5 C 21.809124 21.797742 20.97765 22 20 22 L 19 22 L 19 23 L 19 25.4375 C 18.91984 25.48371 18.9728 25.47375 18.75 25.5625 C 18.248701 25.762181 17.377606 26 16 26 C 14.622394 26 13.751299 25.762181 13.25 25.5625 C 13.0272 25.47375 13.080157 25.48371 13 25.4375 L 13 23 L 13 22 L 12 22 C 11.02235 22 10.190876 21.797742 9.6875 21.5 C 9.1841239 21.202258 9 20.949487 9 20.46875 C 9 19.620859 9.1534756 19.252545 9.40625 18.65625 C 9.6590244 18.059955 10 17.236465 10 16 L 8 16 C 8 16.38689 7.9563436 16.658835 7.90625 16.90625 C 7.43613 16.000414 7 14.797033 7 13.4375 C 7 10.910885 7.971726 9.1423614 9.5625 7.90625 C 11.153274 6.6701386 13.427556 6 16 6 z M 13 16 C 11.895431 16 11 16.895431 11 18 C 11 19.104569 11.895431 20 13 20 C 14.104569 20 15 19.104569 15 18 C 15 16.895431 14.104569 16 13 16 z M 19 16 C 17.895431 16 17 16.895431 17 18 C 17 19.104569 17.895431 20 19 20 C 20.104569 20 21 19.104569 21 18 C 21 16.895431 20.104569 16 19 16 z M 16 19.75 C 16 19.75 14.75 21.34375 14.75 22.09375 C 14.75 22.46875 15 22.65625 15.25 22.65625 C 15.667 22.65625 16 21.90625 16 21.90625 C 16 21.90625 16.333 22.65625 16.75 22.65625 C 17 22.65625 17.25 22.46875 17.25 22.09375 C 17.25 21.34375 16 19.75 16 19.75 z" overflow="visible" font-family="Bitstream Vera Sans" fill="#000000"/></svg>
