<?xml version="1.0" encoding="utf-8"?>
<svg xmlns="http://www.w3.org/2000/svg" viewBox="0 0 32 32" fill="#000000"><path style="text-indent:0;text-align:start;line-height:normal;text-transform:none;block-progression:tb;-inkscape-font-specification:Sans" d="M 25.78125 3.96875 L 20.875 7.65625 L 18.875 9.15625 L 14.84375 12.125 L 13.625 10.5 L 14.59375 9.8125 L 13.40625 8.1875 L 6.4375 13.15625 L 7.625 14.78125 L 8.5625 14.09375 L 9.875 15.84375 L 9.40625 16.1875 L 9 16.5 L 9 17 L 9 19.03125 L 3.84375 23.34375 L 3.03125 24.03125 L 3.71875 24.78125 L 6.3125 27.65625 L 6.625 28 L 7.0625 28 L 8.40625 28 L 9.09375 28 L 9.3125 27.34375 L 11.34375 22.0625 L 13.1875 24.59375 L 14.8125 23.40625 L 12.90625 20.78125 L 20.625 14.78125 L 21 14.5 L 21 14 L 21 11.09375 L 27.53125 6.1875 L 25.78125 3.96875 z M 19 11.5625 L 19 13.5 L 11.71875 19.1875 L 11 18.21875 L 11 17.5 L 19 11.5625 z M 12 11.65625 L 13.25 13.34375 L 11.5 14.625 L 10.21875 12.9375 L 12 11.65625 z M 9.53125 21.1875 L 7.71875 26 L 7.5 26 L 5.90625 24.25 L 9.53125 21.1875 z" fill="#000000"/></svg>
