<?xml version="1.0" encoding="utf-8"?>
<svg xmlns="http://www.w3.org/2000/svg" viewBox="0 0 32 32" fill="#000000"><path style="text-indent:0;text-align:start;line-height:normal;text-transform:none;block-progression:tb;-inkscape-font-specification:Bitstream Vera Sans" d="M 11.3125 4.96875 L 10.84375 5.34375 L 4.375 10.46875 L 3.9375 10.8125 L 4 11.375 L 4.9375 19.5625 L 5 20.15625 L 5.5625 20.375 L 21.09375 26.8125 L 21.875 24.96875 L 6.875 18.75 L 6.0625 11.6875 L 11.625 7.28125 L 26.625 13.46875 L 27.375 11.625 L 11.84375 5.1875 L 11.3125 4.96875 z M 10.8125 10.59375 L 9.5 16.28125 L 11.03125 16.90625 L 12.96875 13.53125 L 13 13.53125 L 11.96875 17.3125 L 13.5 17.9375 L 16.625 13 L 15.28125 12.4375 L 13.375 15.96875 L 13.34375 15.96875 L 14.34375 12.03125 L 13.09375 11.53125 L 11.0625 15 L 11.03125 15 L 12.15625 11.125 L 10.8125 10.59375 z M 17.5 13.34375 L 15.3125 18.6875 L 16.59375 19.21875 L 17.96875 15.9375 L 17.53125 19.625 L 19.0625 20.25 L 21.28125 14.90625 L 19.96875 14.375 L 18.59375 17.65625 L 19.0625 14 L 17.5 13.34375 z M 22.15625 15.28125 L 20.84375 21 L 22.375 21.625 L 24.3125 18.21875 L 24.34375 18.21875 L 23.3125 22 L 24.84375 22.625 L 27.96875 17.6875 L 26.625 17.125 L 24.71875 20.65625 L 24.6875 20.65625 L 25.6875 16.75 L 24.4375 16.21875 L 22.40625 19.71875 L 22.375 19.6875 L 23.5 15.84375 L 22.15625 15.28125 z" overflow="visible" font-family="Bitstream Vera Sans" fill="#000000"/></svg>
