<?xml version="1.0" encoding="utf-8"?>
<svg xmlns="http://www.w3.org/2000/svg" viewBox="0 0 32 32" fill="#000000"><path style="text-indent:0;text-align:start;line-height:normal;text-transform:none;block-progression:tb;-inkscape-font-specification:Sans" d="M 7.84375 9 C 4.0388645 9 1 12.130675 1 16 C 1 19.869325 4.0388645 23 7.84375 23 C 10.605791 23 12.823713 21.283064 14.375 19.6875 C 15.045393 18.997972 15.582611 18.341235 16 17.78125 C 16.417389 18.341235 16.954607 18.997972 17.625 19.6875 C 19.176287 21.283064 21.394209 23 24.15625 23 C 27.961135 23 31 19.869325 31 16 C 31 12.130675 27.961135 9 24.15625 9 C 21.394209 9 19.176287 10.716936 17.625 12.3125 C 16.954607 13.002028 16.417389 13.658765 16 14.21875 C 15.596 13.661438 15.097528 12.998244 14.4375 12.3125 C 12.898075 10.713098 10.65381 9 7.84375 9 z M 7.84375 11 C 9.8176898 11 11.651925 12.286902 13 13.6875 C 14.109058 14.839768 14.525329 15.628467 14.75 16 C 14.519512 16.370111 14.063482 17.154381 12.9375 18.3125 C 11.572037 19.716936 9.7487092 21 7.84375 21 C 5.1166355 21 3 18.850675 3 16 C 3 13.149325 5.1166355 11 7.84375 11 z M 24.15625 11 C 26.883365 11 29 13.149325 29 16 C 29 18.850675 26.883365 21 24.15625 21 C 22.251291 21 20.427963 19.716936 19.0625 18.3125 C 17.936518 17.154381 17.480488 16.370111 17.25 16 C 17.480488 15.629889 17.936518 14.845619 19.0625 13.6875 C 20.427963 12.283064 22.251291 11 24.15625 11 z M 23 13 L 23 15 L 21 15 L 21 17 L 23 17 L 23 19 L 25 19 L 25 17 L 27 17 L 27 15 L 25 15 L 25 13 L 23 13 z M 5 15 L 5 17 L 11 17 L 11 15 L 5 15 z" overflow="visible" font-family="Sans" fill="#000000"/></svg>
