<?xml version="1.0" encoding="utf-8"?>
<svg xmlns="http://www.w3.org/2000/svg" viewBox="0 0 32 32" fill="#000000"><path style="text-indent:0;text-align:start;line-height:normal;text-transform:none;block-progression:tb;-inkscape-font-specification:Bitstream Vera Sans" d="M 3.71875 2.28125 L 2.28125 3.71875 L 28.28125 29.71875 L 29.71875 28.28125 L 27.40625 25.96875 C 28.864253 25.765672 30 24.512957 30 23 L 30 9 C 30 7.346 28.654 6 27 6 L 7.4375 6 L 3.71875 2.28125 z M 2.8125 6.96875 C 2.3195 7.50375 2 8.217 2 9 L 2 23 C 2 24.654 3.346 26 5 26 L 21.8125 26 L 19.8125 24 L 5 24 C 4.449 24 4 23.552 4 23 L 4 13 L 8.8125 13 L 6.8125 11 L 4 11 L 4 9 C 4 8.769 4.08675 8.57525 4.21875 8.40625 L 2.8125 6.96875 z M 9.4375 8 L 27 8 C 27.551 8 28 8.448 28 9 L 28 11 L 12.4375 11 L 9.4375 8 z M 14.4375 13 L 28 13 L 28 23 C 28 23.552 27.551 24 27 24 L 25.4375 24 L 14.4375 13 z" overflow="visible" font-family="Bitstream Vera Sans" fill="#000000"/></svg>
