<?xml version="1.0" encoding="utf-8"?>
<svg xmlns="http://www.w3.org/2000/svg" viewBox="0 0 32 32" fill="#000000"><path style="text-indent:0;text-align:start;line-height:normal;text-transform:none;block-progression:tb;-inkscape-font-specification:Bitstream Vera Sans" d="M 5 5 L 5 6 L 5 26 L 5 27 L 6 27 L 26 27 L 27 27 L 27 26 L 27 6 L 27 5 L 26 5 L 6 5 L 5 5 z M 7 7 L 16.5625 7 L 13.28125 10.28125 L 12.3125 11.28125 L 13.5625 11.90625 L 18.28125 14.28125 L 14 18.5625 L 14 15 L 12 15 L 12 21 L 12 22 L 13 22 L 19 22 L 19 20 L 15.4375 20 L 20.71875 14.71875 L 21.6875 13.71875 L 20.4375 13.09375 L 15.71875 10.71875 L 19.4375 7 L 25 7 L 25 25 L 7 25 L 7 7 z" overflow="visible" font-family="Bitstream Vera Sans" fill="#000000"/></svg>
