<?xml version="1.0" encoding="utf-8"?>
<svg xmlns="http://www.w3.org/2000/svg" viewBox="0 0 32 32" fill="#000000"><path d="M 12 3 C 11.49054 3 11.014562 3.1503321 10.59375 3.375 L 10.59375 3.34375 C 10.558781 3.3591408 10.534794 3.3905567 10.5 3.40625 C 6.7381183 5.1029829 4 8.5566849 4 13 L 4 19 C 4 25.045455 8.9545455 30 15 30 L 16 30 L 17 30 C 23.045455 30 28 25.045455 28 19 L 28 13 C 28 8.5566849 25.261882 5.1029829 21.5 3.40625 C 21.46521 3.390557 21.44122 3.359141 21.40625 3.34375 L 21.40625 3.375 C 20.985438 3.1503321 20.50946 3 20 3 C 18.35503 3 17 4.3550302 17 6 C 17 7.745544 18.438361 8.6192121 18.5 8.65625 C 18.51415 8.66475 18.51729 8.67889 18.53125 8.6875 C 19.481003 9.2730883 20 10.105257 20 11 C 20 12.533279 18.328548 14 16 14 C 13.671452 14 12 12.533279 12 11 C 12 10.104472 12.520101 9.2721049 13.46875 8.6875 C 13.4827 8.6789 13.48587 8.664736 13.5 8.65625 C 13.561639 8.6192121 15 7.745544 15 6 C 15 4.3550302 13.64497 3 12 3 z M 12 5 C 12.56503 5 13 5.4349698 13 6 C 13 6.7166667 12.53125 6.9375 12.53125 6.9375 L 12.5 6.9375 C 11.047244 7.8098715 10 9.2906944 10 11 C 10 13.884721 12.806548 16 16 16 C 19.193452 16 22 13.884721 22 11 C 22 9.2918981 20.953574 7.8108406 19.5 6.9375 L 19.46875 6.9375 C 19.46875 6.9375 19 6.7166667 19 6 C 19 5.4349698 19.43497 5 20 5 C 20.186005 5 20.349797 5.038443 20.5 5.125 L 20.5625 5.15625 L 20.59375 5.1875 C 23.82595 6.6100714 26 9.3244118 26 13 L 26 19 C 26 23.954545 21.954545 28 17 28 L 16 28 L 15 28 C 10.045455 28 6 23.954545 6 19 L 6 13 C 6 9.3244118 8.1740504 6.6100714 11.40625 5.1875 L 11.4375 5.15625 L 11.5 5.125 C 11.650203 5.0384426 11.813995 5 12 5 z M 15.96875 18 C 15.27475 18.00975 14.56575 18.3805 14.21875 19.125 L 14.0625 19.5 L 13.65625 19.59375 C 12.06325 19.85375 11.42375 21.865 12.59375 23 L 12.90625 23.28125 L 12.84375 23.6875 C 12.59275 25.3175 14.2705 26.538 15.6875 25.75 L 16.0625 25.5625 L 16.4375 25.75 C 17.8755 26.498 19.51375 25.21575 19.21875 23.59375 L 19.15625 23.1875 L 19.4375 22.90625 C 20.5775 21.73925 19.9115 19.715 18.3125 19.5 L 17.90625 19.46875 L 17.71875 19.09375 C 17.35175 18.35925 16.66275 17.99025 15.96875 18 z M 16 21 C 16.552 21.001 17.001 21.448 17 22 C 16.998 22.553 16.552 23.001 16 23 C 15.448 22.999 14.999 22.553 15 22 C 15.001 21.448 15.447 20.998 16 21 z" fill="#000000"/></svg>
