<?xml version="1.0" encoding="utf-8"?>
<svg xmlns="http://www.w3.org/2000/svg" viewBox="0 0 32 32" fill="#000000"><path style="text-indent:0;text-align:start;line-height:normal;text-transform:none;block-progression:tb;-inkscape-font-specification:Sans" d="M 6 3 L 6 4 L 6 28 L 6 29 L 7 29 L 25 29 L 26 29 L 26 28 L 26 13.4375 L 27.71875 11.71875 L 28 11.40625 L 28 11 L 28 4 L 28 3 L 27 3 L 24 3 L 23 3 L 7 3 L 6 3 z M 8 5 L 22 5 L 22 11 L 22 11.40625 L 22.28125 11.71875 L 24 13.4375 L 24 27 L 8 27 L 8 5 z M 24 5 L 26 5 L 26 10.5625 L 25 11.5625 L 24 10.5625 L 24 5 z M 16 11 C 12.698136 11 10 13.698136 10 17 C 10 20.301864 12.698136 23 16 23 C 19.301864 23 22 20.301864 22 17 C 22 13.698136 19.301864 11 16 11 z M 16.6875 13.09375 C 17.170719 13.176611 17.625139 13.324272 18.03125 13.5625 L 18.09375 14.28125 L 17.625 14.09375 L 17.25 14.40625 L 17.3125 15.3125 L 18.28125 15.03125 L 19.46875 15.40625 L 19.15625 15.9375 L 18.4375 15.5 L 17.65625 15.625 L 16.90625 16.1875 L 16.46875 17.5 L 17.3125 18.1875 C 17.3125 18.1875 18.203 18.03125 18.25 18.03125 C 18.297 18.03125 18.625 18.84375 18.625 18.84375 L 18.125 20.375 C 17.510273 20.758961 16.783357 21 16 21 C 15.764527 21 15.536443 20.944651 15.3125 20.90625 L 15.125 20.59375 L 15.59375 18.84375 L 13.8125 17.5 L 12.15625 17.5 L 12.03125 17.25 C 12.026051 17.165871 12 17.085516 12 17 C 12 16.786818 12.030902 16.578856 12.0625 16.375 L 12.90625 15.71875 L 14.6875 14.875 L 14.40625 13.71875 L 15.1875 13.5625 L 15.53125 14.0625 L 16.875 13.8125 L 16.6875 13.09375 z M 13.0625 19.71875 L 13.375 19.71875 L 13.96875 20.4375 C 13.629659 20.238586 13.327353 20.005503 13.0625 19.71875 z" overflow="visible" font-family="Sans" fill="#000000"/></svg>
