<?xml version="1.0" encoding="utf-8"?>
<svg xmlns="http://www.w3.org/2000/svg" viewBox="0 0 32 32" fill="#000000"><path d="M 15.46875 2.9628906 C 14.948828 2.9789063 14.425391 3.0246094 13.900391 3.0996094 C 8.6003906 3.9996094 4.2992187 8.2 3.1992188 13.5 C 2.8992187 14.9 2.8996094 16.300781 3.0996094 17.800781 C 3.2996094 18.900781 3.9996094 19.799219 5.0996094 20.199219 C 6.1996094 20.599219 7.3992188 20.3 8.1992188 19.5 C 9.3992187 18.3 11.3 18.3 12.5 19.5 C 13.7 20.7 13.7 22.600781 12.5 23.800781 C 11.7 24.600781 11.400781 25.800391 11.800781 26.900391 C 12.200781 28.000391 13.099219 28.800391 14.199219 28.900391 C 14.899219 29.000391 15.600781 29 16.300781 29 C 16.600781 29 16.900781 29.000391 17.300781 28.900391 L 18 28.900391 L 18 26.900391 L 17.199219 26.900391 C 16.299219 26.900391 15.300391 26.900781 14.400391 26.800781 C 14.000391 26.800781 13.699609 26.599219 13.599609 26.199219 C 13.499609 25.799219 13.600391 25.399609 13.900391 25.099609 C 15.900391 23.099609 15.900391 20 13.900391 18 C 11.900391 16 8.8007812 16 6.8007812 18 C 6.5007812 18.3 6.0992188 18.400781 5.6992188 18.300781 C 5.3992188 18.200781 5.0996094 17.9 5.0996094 17.5 C 4.8996094 16.3 4.8992188 15.100391 5.1992188 13.900391 C 6.1992188 9.4003906 9.8007812 5.7996094 14.300781 5.0996094 C 17.800781 4.4996094 21.300781 5.6992188 23.800781 8.1992188 C 26.300781 10.699219 27.400391 14.199219 26.900391 17.699219 L 28.900391 18 C 29.500391 13.9 28.199219 9.8007812 25.199219 6.8007812 C 22.574219 4.1757812 19.108203 2.8507812 15.46875 2.9628906 z M 14 7 A 2 2 0 0 0 12 9 A 2 2 0 0 0 14 11 A 2 2 0 0 0 16 9 A 2 2 0 0 0 14 7 z M 20 8 A 2 2 0 0 0 18 10 A 2 2 0 0 0 20 12 A 2 2 0 0 0 22 10 A 2 2 0 0 0 20 8 z M 9 11 A 2 2 0 0 0 7 13 A 2 2 0 0 0 9 15 A 2 2 0 0 0 11 13 A 2 2 0 0 0 9 11 z M 23 13 A 2 2 0 0 0 21 15 A 2 2 0 0 0 23 17 A 2 2 0 0 0 25 15 A 2 2 0 0 0 23 13 z M 24 20 L 24 21 L 23.5 21 C 22.1 21 21 22.1 21 23.5 C 21 24.9 22.1 26 23.5 26 L 26.5 26 C 26.7 26 27 26.3 27 26.5 C 27 26.7 26.7 27 26.5 27 L 21 27 L 21 29 L 24 29 L 24 30 L 26 30 L 26 29 L 26.5 29 C 27.9 29 29 27.9 29 26.5 C 29 25.1 27.9 24 26.5 24 L 23.5 24 C 23.3 24 23 23.7 23 23.5 C 23 23.3 23.3 23 23.5 23 L 28 23 L 28 21 L 26 21 L 26 20 L 24 20 z" fill="#000000"/></svg>
