<?xml version="1.0" encoding="utf-8"?>
<svg xmlns="http://www.w3.org/2000/svg" viewBox="0 0 32 32" fill="#000000"><path style="text-indent:0;text-align:start;line-height:normal;text-transform:none;block-progression:tb;-inkscape-font-specification:Bitstream Vera Sans" d="M 28 4.46875 L 26.59375 5.09375 L 19.96875 7.9375 L 12.34375 5.0625 L 11.96875 4.9375 L 11.59375 5.09375 L 4.59375 8.09375 L 4 8.34375 L 4 9 L 4 26 L 4 27.53125 L 5.40625 26.90625 L 12.03125 24.0625 L 19.65625 26.9375 L 20.03125 27.0625 L 20.40625 26.90625 L 27.40625 23.90625 L 28 23.65625 L 28 23 L 28 6 L 28 4.46875 z M 12.03125 7.0625 L 19.65625 9.9375 L 20.03125 10.0625 L 20.40625 9.90625 L 26 7.5 L 26 22.34375 L 19.96875 24.9375 L 12.34375 22.0625 L 11.96875 21.9375 L 11.59375 22.09375 L 6 24.5 L 6 9.65625 L 12.03125 7.0625 z M 21 11 C 20.447715 11 20 11.447715 20 12 C 20 12.552285 20.447715 13 21 13 C 21.552285 13 22 12.552285 22 12 C 22 11.447715 21.552285 11 21 11 z M 9.71875 13.28125 L 8.28125 14.71875 L 10.5625 17 L 8.28125 19.28125 L 9.71875 20.71875 L 12 18.4375 L 14.28125 20.71875 L 15.71875 19.28125 L 13.4375 17 L 15.71875 14.71875 L 14.28125 13.28125 L 12 15.5625 L 9.71875 13.28125 z M 23 14 C 22.447715 14 22 14.447715 22 15 C 22 15.552285 22.447715 16 23 16 C 23.552285 16 24 15.552285 24 15 C 24 14.447715 23.552285 14 23 14 z M 17 16 C 16.447715 16 16 16.447715 16 17 C 16 17.552285 16.447715 18 17 18 C 17.552285 18 18 17.552285 18 17 C 18 16.447715 17.552285 16 17 16 z M 23 17 C 22.447715 17 22 17.447715 22 18 C 22 18.552285 22.447715 19 23 19 C 23.552285 19 24 18.552285 24 18 C 24 17.447715 23.552285 17 23 17 z M 20 18 C 19.447715 18 19 18.447715 19 19 C 19 19.552285 19.447715 20 20 20 C 20.552285 20 21 19.552285 21 19 C 21 18.447715 20.552285 18 20 18 z" fill="#000000"/></svg>
