<?xml version="1.0" encoding="utf-8"?>
<svg xmlns="http://www.w3.org/2000/svg" viewBox="0 0 32 32" fill="#000000"><path style="text-indent:0;text-align:start;line-height:normal;text-transform:none;block-progression:tb;-inkscape-font-specification:Sans" d="M 10.125 5 L 9.8125 5.25 L 4.3125 10.25 L 4.09375 10.46875 L 4.03125 10.78125 L 2.125 18.78125 L 2 19.3125 L 2.40625 19.6875 L 9.28125 26.6875 L 9.59375 27 L 10 27 L 22 27 L 22.40625 27 L 22.71875 26.6875 L 29.59375 19.6875 L 29.96875 19.3125 L 29.84375 18.78125 L 27.96875 10.78125 L 27.90625 10.46875 L 27.6875 10.25 L 22.1875 5.25 L 21.875 5 L 21.5 5 L 10.5 5 L 10.125 5 z M 10.90625 7 L 21.09375 7 L 25.53125 11.03125 L 20.5625 16 L 11.4375 16 L 6.46875 11.03125 L 10.90625 7 z M 5.53125 12.96875 L 9.9375 17.375 L 9.21875 23.8125 L 4.21875 18.71875 L 5.53125 12.96875 z M 26.46875 12.96875 L 27.78125 18.6875 L 22.78125 23.8125 L 22.0625 17.375 L 26.46875 12.96875 z M 11.90625 18 L 20.09375 18 L 20.875 25 L 11.125 25 L 11.90625 18 z" overflow="visible" font-family="Sans" fill="#000000"/></svg>
