<?xml version="1.0" encoding="utf-8"?>
<svg xmlns="http://www.w3.org/2000/svg" viewBox="0 0 32 32" fill="#000000"><path style="text-indent:0;text-align:start;line-height:normal;text-transform:none;block-progression:tb;-inkscape-font-specification:Bitstream Vera Sans" d="M 6.71875 4.28125 L 5.28125 5.71875 L 11 11.4375 L 11 20 L 9 20 L 12 24 L 15 20 L 13 20 L 13 11 L 13 10.59375 L 12.71875 10.28125 L 6.71875 4.28125 z M 25.28125 4.28125 L 19.28125 10.28125 L 19 10.59375 L 19 11 L 19 20 L 17 20 L 20 24 L 23 20 L 21 20 L 21 11.4375 L 26.71875 5.71875 L 25.28125 4.28125 z M 4 14 L 4 16 L 6 16 L 6 27 L 6 28 L 7 28 L 25 28 L 26 28 L 26 27 L 26 16 L 28 16 L 28 14 L 25 14 L 24 14 L 24 15 L 24 26 L 8 26 L 8 15 L 8 14 L 7 14 L 4 14 z" overflow="visible" font-family="Bitstream Vera Sans" fill="#000000"/></svg>
