<?xml version="1.0" encoding="utf-8"?>
<svg xmlns="http://www.w3.org/2000/svg" viewBox="0 0 32 32" fill="#000000"><path style="text-indent:0;text-align:start;line-height:normal;text-transform:none;block-progression:tb;-inkscape-font-specification:Sans" d="M 9 7 C 5.6983746 7 3 9.6983746 3 13 C 3 14.983599 3.9751172 16.74999 5.46875 17.84375 C 2.831147 19.154076 1 21.864226 1 25 L 3 25 C 3 21.674438 5.674438 19 9 19 C 12.325562 19 15 21.674438 15 25 L 16.0625 25 C 16.561017 28.933201 19.935134 32 24 32 C 28.406433 32 32 28.406433 32 24 C 32 20.985928 30.316529 18.363502 27.84375 17 C 29.740514 15.615664 31.200888 13.963731 31.46875 13.65625 L 32.0625 13 L 31.5 12.34375 C 31.036 11.79575 26.853 7 23 7 C 20.049848 7 17.592375 9.1285865 17.09375 11.9375 C 16.693866 11.501948 15.954909 10.694847 14.78125 9.71875 C 13.206283 8.4088969 11.202343 7 9 7 z M 9 9 C 10.231657 9 12.068967 10.091103 13.5 11.28125 C 14.534007 12.141202 14.904258 12.58831 15.28125 13 C 14.896294 13.411675 14.517125 13.85461 13.46875 14.71875 C 12.02147 15.911695 10.161898 17 9 17 C 6.7796254 17 5 15.220375 5 13 C 5 10.779625 6.7796254 9 9 9 z M 23 9 C 25.134 9 27.934 11.484 29.375 13 C 28.446528 13.958097 26.977874 15.294465 25.5 16.15625 C 25.008469 16.061239 24.518581 16 24 16 C 22.994991 16 22.043697 16.190371 21.15625 16.53125 C 19.876204 15.863518 19 14.541214 19 13 C 19 10.794 20.794 9 23 9 z M 17.09375 14.0625 C 17.352579 15.493505 18.135901 16.739385 19.21875 17.625 C 18.685077 18.025488 18.200291 18.450179 17.78125 18.96875 C 17.063247 19.585772 16.463255 20.324894 16 21.15625 C 15.215728 19.733932 14.017929 18.573039 12.5625 17.84375 C 13.350284 17.372087 14.088337 16.826636 14.75 16.28125 C 15.93929 15.300959 16.700755 14.49444 17.09375 14.0625 z M 24 18 C 27.325553 18 30 20.674447 30 24 C 30 27.325553 27.325553 30 24 30 C 20.674447 30 18 27.325553 18 24 C 18 20.674447 20.674447 18 24 18 z M 23 20 L 23 23 L 20 23 L 20 25 L 23 25 L 23 28 L 25 28 L 25 25 L 28 25 L 28 23 L 25 23 L 25 20 L 23 20 z" overflow="visible" font-family="Sans" fill="#000000"/></svg>
