<?xml version="1.0" encoding="utf-8"?>
<svg xmlns="http://www.w3.org/2000/svg" viewBox="0 0 32 32" fill="#000000"><path d="M 15.5 2 C 8.0771703 2 2 7.8100505 2 15 C 2 17.504013 2.4059673 18.865178 3.03125 21.25 L 3.15625 21.75 L 3.625 21.9375 L 23.625 29.9375 L 24.25 30.1875 L 24.71875 29.71875 L 29.71875 24.71875 L 29.96875 24.4375 L 30 24.0625 C 30 24.0625 30.137528 21.211989 28.96875 14.8125 C 28.342988 11.386833 26.902779 8.2302545 24.625 5.875 C 22.347221 3.5197455 19.216581 2 15.5 2 z M 15.5 4 C 18.687419 4 21.239029 5.2352545 23.1875 7.25 C 24.206777 8.3039465 25.058894 9.5791405 25.71875 11 L 15.59375 11 C 14.890848 10.38958 13.996706 10 13 10 C 10.802706 10 9 11.802706 9 14 C 9 16.197294 10.802706 18 13 18 C 13.469342 18 13.924137 17.900774 14.34375 17.75 C 14.34375 17.75 20.228145 22.857624 26.96875 24.59375 L 23.75 27.8125 L 4.84375 20.25 C 4.3126467 18.243455 4 17.100187 4 15 C 4 8.9359495 9.1148297 4 15.5 4 z M 13 12 C 14.116414 12 15 12.883586 15 14 C 15 15.116414 14.116414 16 13 16 C 11.883586 16 11 15.116414 11 14 C 11 12.883586 11.883586 12 13 12 z M 13 13 C 12.447715 13 12 13.447715 12 14 C 12 14.552285 12.447715 15 13 15 C 13.552285 15 14 14.552285 14 14 C 14 13.447715 13.552285 13 13 13 z M 16.84375 13 L 26.5 13 C 26.724873 13.711161 26.894206 14.43727 27.03125 15.1875 C 27.795104 19.369881 27.968254 21.671577 28 22.78125 C 22.295882 21.471998 16.929323 17.254373 16.03125 16.53125 C 16.6156 15.835367 17 14.972668 17 14 C 17 13.655904 16.92676 13.319335 16.84375 13 z" fill="#000000"/></svg>
