<?xml version="1.0" encoding="utf-8"?>
<svg xmlns="http://www.w3.org/2000/svg" viewBox="0 0 32 32" fill="#000000"><path d="M 5 5 L 5 15 L 8.75 15 C 8.27 14.284 8 13.425 8 12.5 C 8 10.019 10.019 8 12.5 8 C 13.425 8 14.284 8.27 15 8.75 L 15 5 L 5 5 z M 17 5 L 17 8.75 C 17.716 8.27 18.575 8 19.5 8 C 21.981 8 24 10.019 24 12.5 C 24 13.425 23.73 14.284 23.25 15 L 27 15 L 27 5 L 17 5 z M 12.5 10 C 11.119288 10 10 11.119288 10 12.5 C 10 13.880712 11.119288 15 12.5 15 C 13.880712 15 15 13.880712 15 12.5 C 15 11.119288 13.880712 10 12.5 10 z M 19.5 10 C 18.119288 10 17 11.119288 17 12.5 C 17 13.880712 18.119288 15 19.5 15 C 20.880712 15 22 13.880712 22 12.5 C 22 11.119288 20.880712 10 19.5 10 z M 5 17 L 5 27 L 15 27 L 15 17 L 5 17 z M 17 17 L 17 27 L 27 27 L 27 17 L 17 17 z" fill="#000000"/></svg>
