<?xml version="1.0" encoding="utf-8"?>
<svg xmlns="http://www.w3.org/2000/svg" viewBox="0 0 32 32" fill="#000000"><path style="text-indent:0;text-align:start;line-height:normal;text-transform:none;block-progression:tb;-inkscape-font-specification:Sans" d="M 4 5 L 4 27 L 15 27 C 14.786 26.36 14.6355 25.692 14.5625 25 L 6 25 L 6 11 L 26 11 L 26 14.71875 C 26.699 14.86975 27.367 15.11125 28 15.40625 L 28 5 L 4 5 z M 6 7 L 26 7 L 26 9 L 6 9 L 6 7 z M 9 14 L 9 16 L 11 16 L 11 14 L 9 14 z M 13 14 L 13 16 L 18.90625 16 C 19.84325 15.4 20.879 14.95975 22 14.71875 L 22 14 L 13 14 z M 24 16 L 24 18 C 27.325562 18 30 20.674438 30 24 C 30 27.325562 27.325562 30 24 30 C 20.674438 30 18 27.325562 18 24 C 18 22.441127 18.593074 21.035118 19.5625 19.96875 L 18.0625 18.625 C 16.771926 20.044632 16 21.934873 16 24 C 16 28.406438 19.593562 32 24 32 C 28.406438 32 32 28.406438 32 24 C 32 19.593562 28.406438 16 24 16 z M 9 18 L 9 20 L 11 20 L 11 18 L 9 18 z M 13 18 L 13 20 L 15.40625 20 C 15.74225 19.281 16.15925 18.608 16.65625 18 L 13 18 z M 21.96875 20 L 22 20 C 21.994 20.003 21.97475 19.997 21.96875 20 z M 21.71875 20.28125 L 20.28125 21.71875 L 22.5 23.9375 C 22.499185 23.957806 22.5 23.979494 22.5 24 C 22.5 24.828427 23.171573 25.5 24 25.5 C 24.828427 25.5 25.5 24.828427 25.5 24 C 25.5 23.171573 24.828427 22.5 24 22.5 C 23.979494 22.5 23.957806 22.499185 23.9375 22.5 L 21.71875 20.28125 z" overflow="visible" font-family="Sans" fill="#000000"/></svg>
