<?xml version="1.0" encoding="utf-8"?>
<svg xmlns="http://www.w3.org/2000/svg" viewBox="0 0 32 32" fill="#000000"><path d="M 16 5 C 15.447715 5 15 5.4477153 15 6 C 15 6.5522847 15.447715 7 16 7 C 16.552285 7 17 6.5522847 17 6 C 17 5.4477153 16.552285 5 16 5 z M 8.90625 5.9375 C 7.2493957 5.9375 5.90625 7.2806457 5.90625 8.9375 C 5.90625 10.594355 7.2493957 11.9375 8.90625 11.9375 C 10.563104 11.9375 11.90625 10.594355 11.90625 8.9375 C 11.90625 7.2806457 10.563104 5.9375 8.90625 5.9375 z M 23.0625 7.65625 C 22.372144 7.65625 21.8125 8.215894 21.8125 8.90625 C 21.8125 9.5966059 22.372144 10.15625 23.0625 10.15625 C 23.752856 10.15625 24.3125 9.5966059 24.3125 8.90625 C 24.3125 8.215894 23.752856 7.65625 23.0625 7.65625 z M 6 13.5 C 4.6192881 13.5 3.5 14.619288 3.5 16 C 3.5 17.380712 4.6192881 18.5 6 18.5 C 7.3807119 18.5 8.5 17.380712 8.5 16 C 8.5 14.619288 7.3807119 13.5 6 13.5 z M 26 14.5 C 25.171573 14.5 24.5 15.171573 24.5 16 C 24.5 16.828427 25.171573 17.5 26 17.5 C 26.828427 17.5 27.5 16.828427 27.5 16 C 27.5 15.171573 26.828427 14.5 26 14.5 z M 8.9375 20.84375 C 7.6948593 20.84375 6.6875 21.851109 6.6875 23.09375 C 6.6875 24.336391 7.6948593 25.34375 8.9375 25.34375 C 10.180141 25.34375 11.1875 24.336391 11.1875 23.09375 C 11.1875 21.851109 10.180141 20.84375 8.9375 20.84375 z M 23.09375 21.3125 C 22.127252 21.3125 21.34375 22.096001 21.34375 23.0625 C 21.34375 24.028998 22.127252 24.8125 23.09375 24.8125 C 24.060248 24.8125 24.84375 24.028998 24.84375 23.0625 C 24.84375 22.096001 24.060248 21.3125 23.09375 21.3125 z M 16 24 C 14.895431 24 14 24.895431 14 26 C 14 27.104569 14.895431 28 16 28 C 17.10457 28 18 27.104569 18 26 C 18 24.895431 17.10457 24 16 24 z" fill="#000000"/></svg>
