<?xml version="1.0" encoding="utf-8"?>
<svg xmlns="http://www.w3.org/2000/svg" viewBox="0 0 32 32" fill="#000000"><path style="text-indent:0;text-align:start;line-height:normal;text-transform:none;block-progression:tb;-inkscape-font-specification:Bitstream Vera Sans" d="M 19.84375 3 C 19.490706 3.015402 19.1875 3.09375 19.1875 3.09375 L 18.96875 3.1875 L 18.8125 3.34375 L 3.34375 18.8125 L 3.1875 18.96875 L 3.09375 19.1875 C 3.09375 19.1875 3.015293 19.490804 3 19.84375 C 2.984707 20.196696 3.028765 20.699398 3.1875 21.28125 C 3.5049696 22.444954 4.3060228 23.992996 6.15625 25.84375 C 8.0065577 27.694585 9.5547784 28.495149 10.71875 28.8125 C 11.300736 28.971175 11.803206 29.015402 12.15625 29 C 12.509294 28.9846 12.8125 28.90625 12.8125 28.90625 L 13.03125 28.8125 L 13.1875 28.65625 L 28.65625 13.1875 L 28.8125 13.03125 L 28.90625 12.8125 C 28.90625 12.8125 28.98471 12.509196 29 12.15625 C 29.01529 11.803304 28.97124 11.300602 28.8125 10.71875 C 28.49503 9.555046 27.693977 8.0070041 25.84375 6.15625 C 23.993442 4.3054154 22.445222 3.5048509 21.28125 3.1875 C 20.699264 3.0288245 20.196794 2.984598 19.84375 3 z M 19.9375 5 L 19.96875 5 C 20.123261 4.99495 20.380414 5.024234 20.75 5.125 C 21.518028 5.3343991 22.775808 5.9003346 24.4375 7.5625 L 24.53125 7.6875 C 26.089305 9.2811894 26.67131 10.503363 26.875 11.25 C 26.975829 11.619594 27.005007 11.876794 27 12.03125 C 26.999805 12.03725 27.000247 12.05679 27 12.0625 L 12.0625 27 C 12.0568 27.000249 12.03728 26.999803 12.03125 27 C 11.876739 27.0051 11.619586 26.97577 11.25 26.875 C 10.481972 26.665601 9.2241923 26.099665 7.5625 24.4375 L 7.4375 24.28125 C 5.9078371 22.706633 5.3270471 21.490616 5.125 20.75 C 5.0241711 20.380406 4.9949925 20.123206 5 19.96875 C 5.0001955 19.96275 4.9997527 19.94321 5 19.9375 L 19.9375 5 z M 19 9 C 18.447715 9 18 9.4477153 18 10 C 18 10.552285 18.447715 11 19 11 C 19.552285 11 20 10.552285 20 10 C 20 9.4477153 19.552285 9 19 9 z M 22 9 C 21.447715 9 21 9.4477153 21 10 C 21 10.552285 21.447715 11 22 11 C 22.552285 11 23 10.552285 23 10 C 23 9.4477153 22.552285 9 22 9 z M 16.21875 11.78125 L 14.78125 13.21875 L 18.78125 17.21875 L 20.21875 15.78125 L 16.21875 11.78125 z M 22 12 C 21.447715 12 21 12.447715 21 13 C 21 13.552285 21.447715 14 22 14 C 22.552285 14 23 13.552285 23 13 C 23 12.447715 22.552285 12 22 12 z M 13.21875 14.78125 L 11.78125 16.21875 L 15.78125 20.21875 L 17.21875 18.78125 L 13.21875 14.78125 z M 10 18 C 9.4477153 18 9 18.447715 9 19 C 9 19.552285 9.4477153 20 10 20 C 10.552285 20 11 19.552285 11 19 C 11 18.447715 10.552285 18 10 18 z M 10 21 C 9.4477153 21 9 21.447715 9 22 C 9 22.552285 9.4477153 23 10 23 C 10.552285 23 11 22.552285 11 22 C 11 21.447715 10.552285 21 10 21 z M 13 21 C 12.447715 21 12 21.447715 12 22 C 12 22.552285 12.447715 23 13 23 C 13.552285 23 14 22.552285 14 22 C 14 21.447715 13.552285 21 13 21 z" fill="#000000"/></svg>
