<?xml version="1.0" encoding="utf-8"?>
<svg xmlns="http://www.w3.org/2000/svg" viewBox="0 0 32 32" fill="#000000"><path style="text-indent:0;text-align:start;line-height:normal;text-transform:none;block-progression:tb;-inkscape-font-specification:Sans" d="M 16 4 C 14.991276 4 14.136265 4.4465075 13.4375 5.0625 C 13.289981 5.0434011 13.160971 5 13 5 C 11.540717 5 10.382479 5.8875626 9.6875 7.0625 C 7.7485876 7.2215719 6.2215719 8.7485876 6.0625 10.6875 C 4.8875626 11.382479 4 12.540717 4 14 C 4 14.747779 4.267348 15.405396 4.625 16 C 4.267348 16.594604 4 17.252221 4 18 C 4 20.087467 5.6408702 21.769591 7.6875 21.9375 C 8.3824787 23.112437 9.5407175 24 11 24 C 11.741438 24 12.415691 23.752026 13 23.375 L 13 24 C 13 24.527778 12.888927 24.681378 12.6875 24.875 C 12.486073 25.068622 12.121627 25.262169 11.65625 25.4375 C 11.190873 25.612831 10.637112 25.78635 10.09375 26.125 C 9.5503884 26.46365 9 27.167817 9 28 L 11 28 C 11 27.839183 10.94961 27.94129 11.15625 27.8125 C 11.362888 27.683713 11.809127 27.513919 12.34375 27.3125 C 12.878373 27.111081 13.513927 26.871065 14.0625 26.34375 C 14.611073 25.816435 15 24.972222 15 24 L 15 20 L 17 20 L 17 24 C 17 24.972222 17.388927 25.816435 17.9375 26.34375 C 18.486073 26.871065 19.121627 27.111081 19.65625 27.3125 C 20.190873 27.513919 20.637112 27.683713 20.84375 27.8125 C 21.050388 27.941287 21 27.839183 21 28 L 23 28 C 23 27.167817 22.449612 26.46365 21.90625 26.125 C 21.362888 25.78635 20.809127 25.612831 20.34375 25.4375 C 19.878373 25.262169 19.513927 25.068622 19.3125 24.875 C 19.111073 24.681378 19 24.527778 19 24 L 19 23.375 C 19.593954 23.754799 20.251654 24 21 24 C 22.459283 24 23.617521 23.112437 24.3125 21.9375 C 26.35913 21.769591 28 20.087467 28 18 C 28 17.252221 27.732652 16.594604 27.375 16 C 27.732652 15.405396 28 14.747779 28 14 C 28 12.540717 27.112437 11.382479 25.9375 10.6875 C 25.778428 8.7485876 24.251412 7.2215719 22.3125 7.0625 C 21.617521 5.8875626 20.459283 5 19 5 C 18.839029 5 18.710019 5.0434011 18.5625 5.0625 C 17.863735 4.4465075 17.008724 4 16 4 z M 16 6 C 16.619092 6 17.157056 6.2683564 17.53125 6.71875 L 17.9375 7.21875 L 18.53125 7.0625 C 18.703275 7.0206355 18.858509 7 19 7 C 19.880794 7 20.601856 7.5591291 20.875 8.34375 L 21.125 9.0625 L 21.875 9.03125 C 22.047582 9.0197445 22.092005 9 22 9 C 23.116666 9 24 9.8833339 24 11 C 24 10.90799 23.98025 10.95242 23.96875 11.125 L 23.9375 11.875 L 24.65625 12.125 C 25.440871 12.398144 26 13.119206 26 14 C 26 14.512933 25.796478 14.97976 25.46875 15.34375 L 24.875 16 L 25.46875 16.65625 C 25.796478 17.02024 26 17.487067 26 18 C 26 19.116666 25.116666 20 24 20 C 24.09201 20 24.04758 19.98025 23.875 19.96875 L 23.125 19.9375 L 22.875 20.65625 C 22.601856 21.440871 21.880794 22 21 22 C 20.296308 22 19.582812 21.595757 19.25 21.09375 L 19 20.71875 L 19 20 L 21 20 L 22 20 L 22 19 L 22 12.78125 L 22 12.1875 L 21.46875 11.90625 L 16.46875 9.125 L 16 8.84375 L 15.53125 9.125 L 10.53125 11.90625 L 10 12.1875 L 10 12.78125 L 10 19 L 10 20 L 11 20 L 13 20 L 13 20.65625 L 12.71875 21.09375 C 12.37149 21.616576 11.703692 22 11 22 C 10.119206 22 9.3981445 21.440871 9.125 20.65625 L 8.875 19.9375 L 8.125 19.96875 C 7.952418 19.980255 7.9079945 20 8 20 C 6.8833339 20 6 19.116666 6 18 C 6 17.487067 6.2035217 17.02024 6.53125 16.65625 L 7.125 16 L 6.53125 15.34375 C 6.2035217 14.97976 6 14.512933 6 14 C 6 13.119206 6.5591291 12.398144 7.34375 12.125 L 8.0625 11.875 L 8.03125 11.125 C 8.0197445 10.952418 8 10.907995 8 11 C 8 9.8833339 8.8833339 9 10 9 C 9.9079945 9 9.952418 9.0197445 10.125 9.03125 L 10.875 9.0625 L 11.125 8.34375 C 11.398144 7.5591291 12.119206 7 13 7 C 13.141491 7 13.296725 7.020636 13.46875 7.0625 L 14.0625 7.21875 L 14.46875 6.71875 C 14.842944 6.2683564 15.380908 6 16 6 z M 16 11.125 L 20 13.375 L 20 18 L 12 18 L 12 13.375 L 16 11.125 z M 14 14 L 14 17 L 18 17 L 18 14 L 14 14 z" overflow="visible" font-family="Sans" fill="#000000"/></svg>
