<?xml version="1.0" encoding="utf-8"?>
<svg xmlns="http://www.w3.org/2000/svg" viewBox="0 0 32 32" fill="#000000"><path d="M 3.71875 2.28125 L 2.28125 3.71875 L 28.28125 29.71875 L 29.71875 28.28125 L 23.03125 21.59375 C 23.520897 18.879885 24 16.042038 24 15 C 24 13.075 22.627 11.33 22 10.625 L 22 10 C 22 8.346 20.654 7 19 7 L 17 7 L 17 3 L 15 5 L 15 7 L 13 7 C 11.769457 7 10.712137 7.7499067 10.25 8.8125 L 3.71875 2.28125 z M 13 9 L 19 9 C 19.552 9 20 9.448 20 10 L 12 10 C 12 9.448 12.448 9 13 9 z M 13.4375 12 L 20.5625 12 C 21.1225 12.653 22 13.91 22 15 C 22 15.709371 21.686676 17.715795 21.3125 19.875 L 13.4375 12 z M 8.5625 12.75 C 8.2415 13.428 8 14.202 8 15 C 8 17.04 9.82325 26.1545 10.03125 27.1875 L 10.1875 28 L 21.8125 28 L 21.96875 27.1875 C 21.99675 27.0465 22.07725 26.74775 22.15625 26.34375 L 20.4375 24.65625 C 20.3425 25.14925 20.2665 25.594 20.1875 26 L 11.8125 26 C 11.1855 22.812 10 16.426 10 15 C 10 14.775 10.02875 14.5455 10.09375 14.3125 L 8.5625 12.75 z" fill="#000000"/></svg>
