<?xml version="1.0" encoding="utf-8"?>
<svg xmlns="http://www.w3.org/2000/svg" viewBox="0 0 32 32" fill="#000000"><path style="text-indent:0;text-align:start;line-height:normal;text-transform:none;block-progression:tb;-inkscape-font-specification:Sans" d="M 15 3 L 15 5 L 13 5 L 13 7 L 15 7 L 15 9.5625 L 11.28125 13.28125 L 11 13.59375 L 11 14 L 11 17.40625 L 4.5 21.125 L 5.5 22.875 L 7 22.03125 L 7 28 L 7 29 L 8 29 L 14 29 L 15 29 L 15 28 L 15 25 C 15 24.445455 15.445455 24 16 24 C 16.554545 24 17 24.445455 17 25 L 17 28 L 17 29 L 18 29 L 24 29 L 25 29 L 25 28 L 25 22.03125 L 26.5 22.875 L 27.5 21.125 L 21 17.40625 L 21 14 L 21 13.59375 L 20.71875 13.28125 L 17 9.5625 L 17 7 L 19 7 L 19 5 L 17 5 L 17 3 L 15 3 z M 16 11.4375 L 19 14.4375 L 19 18 L 19 18.59375 L 19.5 18.875 L 23 20.875 L 23 27 L 19 27 L 19 25 C 19 23.354545 17.645455 22 16 22 C 14.354545 22 13 23.354545 13 25 L 13 27 L 9 27 L 9 20.875 L 12.5 18.875 L 13 18.59375 L 13 18 L 13 14.4375 L 16 11.4375 z M 16 15 C 15.45 15 15 15.45 15 16 L 15 19 L 17 19 L 17 16 C 17 15.45 16.55 15 16 15 z" overflow="visible" font-family="Sans" fill="#000000"/></svg>
