<?xml version="1.0" encoding="utf-8"?>
<svg xmlns="http://www.w3.org/2000/svg" viewBox="0 0 32 32" fill="#000000"><path style="text-indent:0;text-align:start;line-height:normal;text-transform:none;block-progression:tb;-inkscape-font-specification:Bitstream Vera Sans" d="M 20.6875 4.96875 L 20.15625 5.1875 L 4.625 11.625 L 5.375 13.46875 L 20.375 7.28125 L 25.9375 11.6875 L 25.125 18.75 L 10.125 24.96875 L 10.90625 26.8125 L 26.4375 20.375 L 27 20.15625 L 27.0625 19.5625 L 28 11.375 L 28.0625 10.8125 L 27.625 10.46875 L 21.15625 5.34375 L 20.6875 4.96875 z M 21.125 10.625 L 17.96875 11.9375 L 20.1875 17.28125 L 23.40625 15.9375 L 22.9375 14.8125 L 21.09375 15.5625 L 20.65625 14.5 L 22.3125 13.8125 L 21.875 12.71875 L 20.21875 13.40625 L 19.84375 12.5 L 21.625 11.78125 L 21.125 10.625 z M 16.78125 12.4375 L 15.46875 12.96875 L 16.8125 16.28125 L 14.5625 13.34375 L 13 14 L 15.21875 19.34375 L 16.5 18.78125 L 15.15625 15.5 L 17.4375 18.40625 L 18.96875 17.78125 L 16.78125 12.4375 z M 11.875 14.46875 L 8.71875 15.78125 L 10.90625 21.125 L 14.15625 19.78125 L 13.65625 18.625 L 11.84375 19.40625 L 11.40625 18.34375 L 13.0625 17.65625 L 12.59375 16.5625 L 10.9375 17.25 L 10.5625 16.34375 L 12.34375 15.59375 L 11.875 14.46875 z" overflow="visible" font-family="Bitstream Vera Sans" fill="#000000"/></svg>
