<?xml version="1.0" encoding="utf-8"?>
<svg xmlns="http://www.w3.org/2000/svg" viewBox="0 0 32 32" fill="#000000"><path style="text-indent:0;text-align:start;line-height:normal;text-transform:none;block-progression:tb;-inkscape-font-specification:Bitstream Vera Sans" d="M 14.71875 4.09375 L 13.875 5.90625 L 20.6875 9 L 7 9 C 5.3545455 9 4 10.354545 4 12 L 4 24 L 4 25 L 4 26 L 6 26 L 6 25 L 26 25 L 26 26 L 28 26 L 28 25 L 28 24 L 28 12 C 28 10.604791 27.018071 9.4222382 25.71875 9.09375 L 14.71875 4.09375 z M 7 11 L 25 11 C 25.554545 11 26 11.445455 26 12 L 26 23 L 6 23 L 6 12 C 6 11.445455 6.4454545 11 7 11 z M 8 13 L 8 15 L 16.5625 15 C 16.378565 15.312811 16.253571 15.644944 16.15625 16 L 8 16 L 8 18 L 16.15625 18 C 16.249932 18.360391 16.377752 18.685807 16.5625 19 L 8 19 L 8 21 L 20 21 C 22.197294 21 24 19.197294 24 17 C 24 14.802706 22.197294 13 20 13 L 8 13 z M 20 15 C 21.116414 15 22 15.883586 22 17 C 22 18.116414 21.116414 19 20 19 C 18.883586 19 18 18.116414 18 17 C 18 15.883586 18.883586 15 20 15 z" fill="#000000"/></svg>
