<?xml version="1.0" encoding="utf-8"?>
<svg xmlns="http://www.w3.org/2000/svg" viewBox="0 0 32 32" fill="#000000"><path d="M 25.435547 3.0039062 C 24.605434 3.0038878 23.776309 3.3181624 23.148438 3.9453125 L 21.943359 5.1484375 C 20.875302 6.2164956 20.72496 7.8679257 21.474609 9.1113281 L 21.109375 9.4765625 C 20.596631 9.1677732 20.017828 9.0039192 19.435547 9.0039062 C 18.605434 9.0038878 17.776309 9.3181624 17.148438 9.9453125 L 15.943359 11.148438 C 14.688394 12.403403 14.689059 14.468866 15.943359 15.724609 L 16.275391 16.056641 C 17.530356 17.311606 19.595819 17.310941 20.851562 16.056641 L 22.054688 14.851562 C 23.121751 13.783272 23.272193 12.133394 22.523438 10.890625 L 22.888672 10.525391 C 24.131609 11.275176 25.782843 11.124132 26.851562 10.056641 L 28.054688 8.8515625 C 29.308988 7.5958189 29.309652 5.5303565 28.054688 4.2753906 L 27.724609 3.9453125 C 27.097126 3.3178296 26.26566 3.0039247 25.435547 3.0039062 z M 25.435547 4.9960938 C 25.751684 4.9960752 26.06903 5.1178579 26.310547 5.359375 L 26.640625 5.6894531 C 27.123659 6.1724873 27.124325 6.9532436 26.640625 7.4375 L 25.4375 8.640625 C 25.162267 8.915542 24.793241 9.0156232 24.435547 8.9785156 L 25.707031 7.7070312 L 24.292969 6.2929688 L 23.021484 7.5644531 C 22.982875 7.2061054 23.08242 6.8375015 23.357422 6.5625 L 24.5625 5.359375 C 24.804628 5.1175251 25.11941 4.9961121 25.435547 4.9960938 z M 8 7 C 5.243 7 3 9.243 3 12 L 3 25 L 15 25 L 15 29 L 17 29 L 17 25 L 27 25 L 27 12.373047 C 26.382 12.692047 25.708 12.897078 25 12.955078 L 25 23 L 13 23 L 13 12 C 13 10.872064 12.607252 9.8390569 11.970703 9 L 15.265625 9 L 15.734375 8.53125 C 16.595375 7.67025 17.782156 7.1653125 19.035156 7.0703125 C 19.037156 7.0463125 19.044875 7.023 19.046875 7 L 8 7 z M 8 9 C 9.6684839 9 11 10.331516 11 12 L 11 23 L 5 23 L 5 12 C 5 10.346 6.346 9 8 9 z M 19.435547 10.996094 C 19.479377 10.996091 19.520782 11.01681 19.564453 11.021484 L 18.292969 12.292969 L 19.707031 13.707031 L 20.978516 12.435547 C 21.016135 12.79321 20.915517 13.162292 20.640625 13.4375 L 19.4375 14.640625 C 18.953244 15.124325 18.172487 15.125565 17.689453 14.642578 L 17.359375 14.310547 C 16.875675 13.82629 16.874435 13.045534 17.357422 12.5625 L 18.5625 11.359375 C 18.804628 11.117525 19.11941 10.996112 19.435547 10.996094 z M 6 13 L 6 15 L 10 15 L 10 13 L 6 13 z" fill="#000000"/></svg>
