<?xml version="1.0" encoding="utf-8"?>
<svg xmlns="http://www.w3.org/2000/svg" viewBox="0 0 32 32" fill="#000000"><path d="M 21 3 L 21 5 L 27 5 L 27 3 L 21 3 z M 27 5 L 27 11 L 29 11 L 29 5 L 27 5 z M 27 11 L 25 11 L 25 13 L 27 13 L 27 11 z M 25 13 L 23 13 L 23 15 L 25 15 L 25 13 z M 23 15 L 21 15 L 21 17 L 23 17 L 23 15 z M 21 15 L 21 13 L 19 13 L 19 15 L 21 15 z M 19 15 L 17 15 L 17 17 L 19 17 L 19 15 z M 17 17 L 15 17 L 15 19 L 17 19 L 17 17 z M 15 19 L 13 19 L 13 21 L 15 21 L 15 19 z M 13 21 L 11 21 L 11 23 L 13 23 L 13 21 z M 11 23 L 9 23 L 9 25 L 11 25 L 11 23 z M 9 25 L 7 25 L 7 27 L 5 27 L 5 29 L 7 29 L 9 29 L 9 25 z M 5 27 L 5 25 L 7 25 L 7 23 L 3 23 L 3 25 L 3 27 L 5 27 z M 7 23 L 9 23 L 9 21 L 7 21 L 7 23 z M 9 21 L 11 21 L 11 19 L 9 19 L 9 21 z M 11 19 L 13 19 L 13 17 L 11 17 L 11 19 z M 13 17 L 15 17 L 15 15 L 13 15 L 13 17 z M 15 15 L 17 15 L 17 13 L 15 13 L 15 15 z M 17 13 L 19 13 L 19 11 L 17 11 L 17 13 z M 17 11 L 17 9 L 15 9 L 15 11 L 17 11 z M 17 9 L 19 9 L 19 7 L 17 7 L 17 9 z M 19 7 L 21 7 L 21 5 L 19 5 L 19 7 z" fill="#000000"/></svg>
