<?xml version="1.0" encoding="utf-8"?>
<svg xmlns="http://www.w3.org/2000/svg" viewBox="0 0 32 32" fill="#000000"><path style="text-indent:0;text-align:start;line-height:normal;text-transform:none;block-progression:tb;-inkscape-font-specification:Bitstream Vera Sans" d="M 8 4 L 11.8125 13.1875 C 9.5258639 14.598218 8 17.125435 8 20 C 8 24.406433 11.593567 28 16 28 C 20.406433 28 24 24.406433 24 20 C 24 17.125435 22.474136 14.598218 20.1875 13.1875 L 24 4 L 22 4 L 18.5 12.40625 C 17.923005 12.215494 17.313442 12.085302 16.6875 12.03125 L 20 4 L 18 4 L 14.59375 12.125 C 14.224447 12.191643 13.850056 12.290521 13.5 12.40625 L 10 4 L 8 4 z M 12 4 L 14.46875 9.90625 L 15.46875 7.5 L 14 4 L 12 4 z M 16 14 C 19.325553 14 22 16.674447 22 20 C 22 23.325553 19.325553 26 16 26 C 12.674447 26 10 23.325553 10 20 C 10 16.674447 12.674447 14 16 14 z M 14.84375 16 L 14.625 16.71875 C 14.625 16.71875 14.51844 17.078529 14.28125 17.4375 C 14.04406 17.796471 13.802189 18 13.53125 18 L 13.53125 20 C 14.113025 20 14.603824 19.804922 15 19.53125 L 15 24 L 17 24 L 17 17 L 17 16 L 16 16 L 15.59375 16 L 14.84375 16 z" overflow="visible" font-family="Bitstream Vera Sans" fill="#000000"/></svg>
