<?xml version="1.0" encoding="utf-8"?>
<svg xmlns="http://www.w3.org/2000/svg" viewBox="0 0 32 32" fill="#000000"><path style="text-indent:0;text-align:start;line-height:normal;text-transform:none;block-progression:tb;-inkscape-font-specification:Sans" d="M 15 3 C 8.9545455 3 4 7.9545455 4 14 C 4 16.163158 4.8412497 17.975874 5.59375 19.59375 C 6.3462503 21.211626 7 22.629464 7 24.09375 L 7 29 L 9 29 L 9 24.09375 C 9 22.058036 8.1537497 20.357124 7.40625 18.75 C 6.6587503 17.142876 6 15.636842 6 14 C 6 9.0454545 10.045455 5 15 5 C 18.807317 5 20.86428 6.6092619 22.09375 8.21875 C 23.32322 9.8282381 23.625 11.40625 23.625 11.40625 L 23.65625 11.53125 L 23.71875 11.65625 L 26.375 17 C 26.44835 17.171143 26.44163 17.305912 26.4375 17.34375 L 26.40625 17.34375 L 26.375 17.34375 C 25.838246 17.522668 24.75 17.84375 24.75 17.84375 L 24 18.03125 L 24 18.8125 L 24 21 C 24 21.666667 23.624115 22.438385 23.03125 23.03125 C 22.438385 23.624115 21.666667 24 21 24 L 20 24 L 19 24 L 19 25 L 19 29 L 21 29 L 21 26 C 22.333333 26 23.561615 25.375885 24.46875 24.46875 C 25.375885 23.561615 26 22.333333 26 21 L 26 19.53125 C 26.340863 19.4351 26.56809 19.400769 26.9375 19.28125 C 26.96947 19.27325 26.99984 19.25968 27.03125 19.25 L 27.03125 19.21875 C 27.675295 19.014043 28.213935 18.481481 28.375 17.90625 C 28.545176 17.298479 28.43893 16.732506 28.21875 16.21875 L 28.21875 16.1875 L 28.1875 16.15625 L 25.53125 10.8125 L 25.5 10.75 C 25.421802 10.399692 25.022492 8.7885352 23.65625 7 C 22.13572 5.0094881 19.392683 3 15 3 z M 12.875 8.3125 L 11.125 9.3125 L 11.9375 10.71875 C 11.293208 11.320562 10.831464 12.116166 10.625 13 L 9 13 L 9 15 L 10.625 15 C 10.829366 15.889081 11.290838 16.677224 11.9375 17.28125 L 11.125 18.6875 L 12.875 19.6875 L 13.6875 18.28125 C 14.105232 18.410464 14.541494 18.5 15 18.5 C 15.458506 18.5 15.894768 18.410464 16.3125 18.28125 L 17.125 19.6875 L 18.875 18.6875 L 18.0625 17.28125 C 18.709162 16.677224 19.170634 15.889081 19.375 15 L 21 15 L 21 13 L 19.375 13 C 19.170634 12.110919 18.709162 11.322776 18.0625 10.71875 L 18.875 9.3125 L 17.125 8.3125 L 16.3125 9.71875 C 15.894768 9.5895358 15.458506 9.5 15 9.5 C 14.541494 9.5 14.105232 9.5895358 13.6875 9.71875 L 12.875 8.3125 z M 15 11.5 C 16.392557 11.5 17.5 12.607443 17.5 14 C 17.5 15.392557 16.392557 16.5 15 16.5 C 13.607443 16.5 12.5 15.392557 12.5 14 C 12.5 12.607443 13.607443 11.5 15 11.5 z" fill="#000000"/></svg>
