<?xml version="1.0" encoding="utf-8"?>
<svg xmlns="http://www.w3.org/2000/svg" viewBox="0 0 32 32" fill="#000000"><path style="text-indent:0;text-align:start;line-height:normal;text-transform:none;block-progression:tb;-inkscape-font-specification:Bitstream Vera Sans" d="M 3.71875 2.28125 L 2.28125 3.71875 L 28.28125 29.71875 L 29.71875 28.28125 L 22 20.5625 L 22 14 C 22 12.700921 21.157721 11.603663 20 11.1875 L 20 10 C 20 8.9069372 19.093063 8 18 8 L 17.375 8 L 16.8125 4 L 15.1875 4 L 14.625 8 L 14 8 C 12.906937 8 12 8.9069372 12 10 L 12 10.5625 L 3.71875 2.28125 z M 14 10 L 18 10 L 18 11 L 14 11 L 14 10 z M 14.4375 13 L 19 13 C 19.551 13 20 13.448 20 14 L 20 18.5625 L 14.4375 13 z M 10 14.1875 L 10 28 L 22 28 L 22 26.1875 L 20 24.1875 L 20 26 L 12 26 L 12 16.1875 L 10 14.1875 z" overflow="visible" font-family="Bitstream Vera Sans" fill="#000000"/></svg>
