<?xml version="1.0" encoding="utf-8"?>
<svg xmlns="http://www.w3.org/2000/svg" viewBox="0 0 32 32" fill="#000000"><path style="text-indent:0;text-align:start;line-height:normal;text-transform:none;block-progression:tb;-inkscape-font-specification:Sans" d="M 16 3 C 8.8321429 3 3 8.8321429 3 16 C 3 23.167857 8.8321429 29 16 29 C 23.167857 29 29 23.167857 29 16 C 29 8.8321429 23.167857 3 16 3 z M 16 5 C 18.038027 5 19.928022 5.5700647 21.5625 6.53125 C 22.565601 8.0625541 23.09375 9.9978276 23.09375 12.0625 C 23.09375 12.369814 23.055697 12.667845 23.03125 12.96875 C 20.729807 9.3353564 16.708034 6.90625 12.09375 6.90625 C 11.187617 6.90625 10.293765 6.9801293 9.4375 7.15625 C 11.267803 5.7966168 13.538454 5 16 5 z M 12.09375 8.90625 C 16.801746 8.90625 20.772718 11.852119 22.34375 16 C 21.222875 18.936111 18.906737 21.267617 15.96875 22.375 C 11.834576 20.796264 8.90625 16.801587 8.90625 12.09375 C 8.90625 11.098089 9.0370245 10.161008 9.28125 9.25 C 10.177743 9.0175761 11.120558 8.90625 12.09375 8.90625 z M 24.84375 9.46875 C 26.194258 11.29552 27 13.547552 27 16 C 27 22.086977 22.086977 27 16 27 C 13.538454 27 11.267803 26.203383 9.4375 24.84375 C 10.293894 25.018199 11.188097 25.09375 12.09375 25.09375 C 19.266763 25.09375 25.09375 19.24114 25.09375 12.0625 C 25.09375 11.182056 25.007538 10.310644 24.84375 9.46875 z M 7.0625 10.125 C 6.9693699 10.763495 6.90625 11.429509 6.90625 12.09375 C 6.90625 16.697438 9.2658327 20.748592 12.875 23.0625 C 12.615611 23.080742 12.357888 23.09375 12.09375 23.09375 C 10.05551 23.09375 8.1530231 22.557213 6.53125 21.59375 C 5.5617695 19.954219 5 18.047497 5 16 C 5 13.952503 5.5617695 12.045781 6.53125 10.40625 C 6.7021401 10.305545 6.8859753 10.216197 7.0625 10.125 z" overflow="visible" font-family="Sans" fill="#000000"/></svg>
