<?xml version="1.0" encoding="utf-8"?>
<svg xmlns="http://www.w3.org/2000/svg" viewBox="0 0 32 32" fill="#000000"><path d="M 2 6 L 2 7 L 2 25 L 2 26 L 3 26 L 29 26 L 30 26 L 30 25 L 30 7 L 30 6 L 29 6 L 3 6 L 2 6 z M 4 8 L 28 8 L 28 24 L 4 24 L 4 8 z M 16 9 L 15.6875 9.65625 L 14.96875 9.75 L 15.46875 10.25 L 15.375 10.96875 L 16 10.625 L 16.625 10.96875 L 16.53125 10.25 L 17.03125 9.75 L 16.3125 9.65625 L 16 9 z M 12.9375 9.9375 L 12.625 10.5625 L 11.90625 10.6875 L 12.40625 11.1875 L 12.3125 11.90625 L 12.9375 11.5625 L 13.5625 11.90625 L 13.4375 11.1875 L 13.96875 10.6875 L 13.25 10.5625 L 12.9375 9.9375 z M 19.0625 9.9375 L 18.75 10.5625 L 18.03125 10.6875 L 18.5625 11.1875 L 18.4375 11.90625 L 19.0625 11.5625 L 19.6875 11.90625 L 19.59375 11.1875 L 20.09375 10.6875 L 19.375 10.5625 L 19.0625 9.9375 z M 10.75 11.9375 L 10.4375 12.59375 L 9.71875 12.6875 L 10.25 13.21875 L 10.125 13.9375 L 10.75 13.59375 L 11.40625 13.9375 L 11.28125 13.21875 L 11.78125 12.6875 L 11.0625 12.59375 L 10.75 11.9375 z M 21.25 11.9375 L 20.9375 12.59375 L 20.21875 12.6875 L 20.71875 13.21875 L 20.59375 13.9375 L 21.25 13.59375 L 21.875 13.9375 L 21.75 13.21875 L 22.28125 12.6875 L 21.5625 12.59375 L 21.25 11.9375 z M 10.03125 15 L 9.71875 15.65625 L 9 15.78125 L 9.53125 16.28125 L 9.40625 17 L 10.03125 16.65625 L 10.65625 17 L 10.5625 16.28125 L 11.0625 15.78125 L 10.34375 15.65625 L 10.03125 15 z M 21.96875 15 L 21.65625 15.65625 L 20.9375 15.78125 L 21.4375 16.28125 L 21.34375 17 L 21.96875 16.65625 L 22.59375 17 L 22.46875 16.28125 L 23 15.78125 L 22.28125 15.65625 L 21.96875 15 z M 10.75 17.71875 L 10.4375 18.34375 L 9.71875 18.46875 L 10.25 18.96875 L 10.125 19.6875 L 10.75 19.34375 L 11.40625 19.6875 L 11.28125 18.96875 L 11.78125 18.46875 L 11.0625 18.34375 L 10.75 17.71875 z M 21.25 17.71875 L 20.9375 18.34375 L 20.21875 18.46875 L 20.71875 18.96875 L 20.59375 19.6875 L 21.25 19.34375 L 21.875 19.6875 L 21.75 18.96875 L 22.28125 18.46875 L 21.5625 18.34375 L 21.25 17.71875 z M 12.9375 19.75 L 12.625 20.40625 L 11.90625 20.5 L 12.40625 21.03125 L 12.3125 21.75 L 12.9375 21.40625 L 13.5625 21.75 L 13.4375 21.03125 L 13.96875 20.5 L 13.25 20.40625 L 12.9375 19.75 z M 19.0625 19.75 L 18.75 20.40625 L 18.03125 20.5 L 18.5625 21.03125 L 18.4375 21.75 L 19.0625 21.40625 L 19.6875 21.75 L 19.59375 21.03125 L 20.09375 20.5 L 19.375 20.40625 L 19.0625 19.75 z M 16 21.03125 L 15.6875 21.6875 L 14.96875 21.78125 L 15.46875 22.28125 L 15.375 23 L 16 22.65625 L 16.625 23 L 16.53125 22.28125 L 17.03125 21.78125 L 16.3125 21.6875 L 16 21.03125 z" fill="#000000"/></svg>
