<?xml version="1.0" encoding="utf-8"?>
<svg xmlns="http://www.w3.org/2000/svg" viewBox="0 0 32 32" fill="#000000"><path d="M 16 3 C 14.366036 3 13.03125 4.3347862 13.03125 5.96875 C 13.03125 7.6027138 14.366036 8.96875 16 8.96875 C 17.633964 8.96875 18.96875 7.6027138 18.96875 5.96875 C 18.96875 4.3347862 17.633964 3 16 3 z M 16 5 C 16.553084 5 16.96875 5.4156662 16.96875 5.96875 C 16.96875 6.5218338 16.553084 6.96875 16 6.96875 C 15.446916 6.96875 15.03125 6.5218338 15.03125 5.96875 C 15.03125 5.4156662 15.446916 5 16 5 z M 3 9 L 3 11 L 7.375 11 L 8.84375 14.1875 C 9.242191 15.060606 10.478229 15.240277 11.125 14.53125 L 13 12.5 L 13 18.96875 L 13 19 L 12.125 23.28125 C 11.993024 23.937131 12.18455 24.622048 12.65625 25.09375 L 16.28125 28.71875 L 17.71875 27.28125 L 14.09375 23.6875 C 14.093726 23.687619 14.093452 23.65595 14.09375 23.65625 L 14.8125 20 L 17.21875 20 L 17.90625 22.6875 L 16.40625 24.15625 L 17.84375 25.59375 L 19.3125 24.09375 C 19.805736 23.598525 20.013219 22.898622 19.84375 22.21875 L 19 18.875 L 19 12.5 L 20.875 14.53125 C 21.518479 15.237002 22.753637 15.0552 23.15625 14.1875 L 24.65625 11 L 29 11 L 29 9 L 20.5 9 L 22.4375 10.9375 L 21.71875 12.5 L 19.75 10.3125 L 19.4375 10 L 19 10 L 13 10 L 12.5625 10 L 12.25 10.3125 L 10.28125 12.5 L 9.5625 10.9375 L 11.5 9 L 3 9 z M 15 12 L 17 12 L 17 18 L 15 18 L 15 12 z" fill="#000000"/></svg>
