<?xml version="1.0" encoding="utf-8"?>
<svg xmlns="http://www.w3.org/2000/svg" viewBox="0 0 32 32" fill="#000000"><path style="text-indent:0;text-align:start;line-height:normal;text-transform:none;block-progression:tb;-inkscape-font-specification:Sans" d="M 12.5 3 C 10.578812 3 9 4.5788117 9 6.5 C 9 8.4211883 10.578812 10 12.5 10 C 13.875775 10 15.054422 9.1652051 15.625 8 L 21 8 L 22 7 L 22 6 L 21 5 L 19 5 L 18 6 L 17 5 L 15.625 5 C 15.054422 3.8347949 13.875775 3 12.5 3 z M 12.5 5 C 12.675169 5 12.844915 5.0408471 13 5.09375 L 13 7.90625 C 12.844915 7.9591529 12.675169 8 12.5 8 C 11.659188 8 11 7.3408117 11 6.5 C 11 5.6591883 11.659188 5 12.5 5 z M 12 13 C 10.467414 13 9.0605803 13.877513 8.375 15.25 A 1.0001 1.0001 0 0 0 8.3125 15.34375 L 7.125 18.65625 L 5.3125 18.0625 L 4.6875 19.9375 L 6.46875 20.53125 L 6.0625 21.65625 A 1.0001 1.0001 0 0 0 6 22 L 6 27 A 1.0001 1.0001 0 0 0 6 27.09375 L 6 28 C 6 28.552 6.448 29 7 29 L 10 29 L 10.34375 28 L 21.65625 28 L 22 29 L 25 29 C 25.552 29 26 28.552 26 28 L 26 27.15625 A 1.0001 1.0001 0 0 0 26 27 L 26 22 A 1.0001 1.0001 0 0 0 25.9375 21.65625 L 25.53125 20.53125 L 27.3125 19.9375 L 26.6875 18.0625 L 24.875 18.65625 L 23.6875 15.34375 A 1.0001 1.0001 0 0 0 23.625 15.25 C 22.93942 13.877513 21.532586 13 20 13 L 12 13 z M 12 15 L 20 15 C 20.740194 15 21.416637 15.394126 21.78125 16.03125 C 21.78525 16.03825 21.77735 16.05548 21.78125 16.0625 L 22.84375 19 L 9.15625 19 L 10.21875 16.0625 L 10.21875 16.03125 C 10.583363 15.394126 11.259806 15 12 15 z M 8.40625 21 L 23.59375 21 L 24 22.15625 L 24 26 L 19 26 L 18 24 L 14 24 L 13 26 L 11 26 L 8 26 L 8 22.15625 L 8.40625 21 z M 10.5 22 C 9.6715729 22 9 22.671573 9 23.5 C 9 24.328427 9.6715729 25 10.5 25 C 11.328427 25 12 24.328427 12 23.5 C 12 22.671573 11.328427 22 10.5 22 z M 21.5 22 C 20.671573 22 20 22.671573 20 23.5 C 20 24.328427 20.671573 25 21.5 25 C 22.328427 25 23 24.328427 23 23.5 C 23 22.671573 22.328427 22 21.5 22 z" overflow="visible" font-family="Sans" fill="#000000"/></svg>
