<?xml version="1.0" encoding="utf-8"?>
<svg xmlns="http://www.w3.org/2000/svg" viewBox="0 0 32 32" fill="#000000"><path style="text-indent:0;text-align:start;line-height:normal;text-transform:none;block-progression:tb;-inkscape-font-specification:Bitstream Vera Sans" d="M 10 4 C 7.8027056 4 6 5.8027056 6 8 C 6 9.1538464 6.5221988 10.173922 7.3125 10.90625 C 6.4066918 11.584025 5.7446956 12.597004 5.53125 13.8125 C 5.5295 13.8225 5.53294 13.83375 5.53125 13.84375 L 4.03125 21.8125 L 3.78125 23 L 5 23 L 7 23 L 7 27 L 7 28 L 8 28 L 12 28 L 13 28 L 13 27 L 13 23 L 15 23 L 16.21875 23 L 15.96875 21.8125 L 14.46875 13.84375 C 14.46705 13.83375 14.47055 13.82248 14.46875 13.8125 C 14.255305 12.597004 13.593308 11.584025 12.6875 10.90625 C 13.477801 10.173922 14 9.1538464 14 8 C 14 5.8027056 12.197294 4 10 4 z M 10 6 C 11.116414 6 12 6.883586 12 8 C 12 9.116414 11.116414 10 10 10 C 8.883586 10 8 9.116414 8 8 C 8 6.883586 8.883586 6 10 6 z M 22 8 L 22 18 L 21.6875 18 C 20.154167 18 18.872607 19.148932 18.71875 20.6875 L 18 26.875 L 17.875 28 L 19 28 L 27 28 L 28.125 28 L 28 26.875 L 27.1875 20.6875 C 27.033643 19.148932 25.720833 18 24.1875 18 L 24 18 L 24 8 L 22 8 z M 10 12 C 11.229412 12 12.277016 12.818344 12.5 14.15625 L 12.5 14.1875 L 12.53125 14.1875 L 13.8125 21 L 12 21 L 11 21 L 11 22 L 11 26 L 9 26 L 9 22 L 9 21 L 8 21 L 6.1875 21 L 7.46875 14.1875 L 7.5 14.1875 L 7.5 14.15625 C 7.7229843 12.818344 8.7705882 12 10 12 z M 21.6875 20 L 24.1875 20 C 24.654167 20 25.172607 20.444818 25.21875 20.90625 L 25.21875 20.9375 L 25.21875 21 L 20.6875 21 L 20.6875 20.90625 C 20.733643 20.444818 21.220833 20 21.6875 20 z M 20.46875 23 L 25.46875 23 L 25.84375 26 L 20.125 26 L 20.46875 23 z" overflow="visible" font-family="Bitstream Vera Sans" fill="#000000"/></svg>
