<?xml version="1.0" encoding="utf-8"?>
<svg xmlns="http://www.w3.org/2000/svg" viewBox="0 0 32 32" fill="#000000"><path style="text-indent:0;text-align:start;line-height:normal;text-transform:none;block-progression:tb;-inkscape-font-specification:Bitstream Vera Sans" d="M 2 5 L 2 6 L 2 22 L 2 23 L 3 23 L 15 23 L 15 25 L 10 25 L 10 27 L 22 27 L 22 25 L 17 25 L 17 23 L 29 23 L 30 23 L 30 22 L 30 6 L 30 5 L 29 5 L 3 5 L 2 5 z M 4 7 L 28 7 L 28 21 L 4 21 L 4 7 z M 16 9 C 13.515 9 11.5 11.014 11.5 13.5 L 11.5 17.5 C 11.5 18.328 10.828 19 10 19 L 22 19 C 21.172 19 20.5 18.328 20.5 17.5 L 20.5 13.5 C 20.5 11.014 18.485 9 16 9 z M 17.34375 9.9375 C 17.551125 9.8911875 17.84275 9.96775 18.0625 10.1875 C 18.3555 10.4805 18.41375 10.89875 18.21875 11.09375 C 18.02375 11.28875 17.63675 11.19925 17.34375 10.90625 C 17.05075 10.61325 16.9915 10.22625 17.1875 10.03125 C 17.23625 9.9825 17.274625 9.9529375 17.34375 9.9375 z M 14.5 12 C 15.693 12 16 13.172 16 14 C 16 13.172 16.307 12 17.5 12 C 18.693 12 19 13.172 19 14 C 19 15.159 18.3125 15.5 18.3125 15.5 L 18.09375 15.5 C 18.65075 15.818 19 16.26 19 16.75 C 19 17.716 17.657 18.5 16 18.5 C 14.343 18.5 13 17.716 13 16.75 C 13 16.26 13.34925 15.818 13.90625 15.5 L 13.6875 15.5 C 13.6875 15.5 13 15.159 13 14 C 13 13.172 13.307 12 14.5 12 z M 14.5 13.5 C 14.223858 13.5 14 13.835786 14 14.25 C 14 14.664214 14.223858 15 14.5 15 C 14.776142 15 15 14.664214 15 14.25 C 15 13.835786 14.776142 13.5 14.5 13.5 z M 17.5 13.5 C 17.223858 13.5 17 13.835786 17 14.25 C 17 14.664214 17.223858 15 17.5 15 C 17.776142 15 18 14.664214 18 14.25 C 18 13.835786 17.776142 13.5 17.5 13.5 z" overflow="visible" font-family="Bitstream Vera Sans" fill="#000000"/></svg>
