<?xml version="1.0" encoding="utf-8"?>
<svg xmlns="http://www.w3.org/2000/svg" viewBox="0 0 32 32" fill="#000000"><path style="text-indent:0;text-align:start;line-height:normal;text-transform:none;block-progression:tb;-inkscape-font-specification:Bitstream Vera Sans" d="M 3.71875 2.28125 L 2.28125 3.71875 L 28.28125 29.71875 L 29.71875 28.28125 L 24.15625 22.71875 C 27.94082 17.84186 29.513815 9.5772303 25.96875 6.03125 C 22.324431 2.3869314 14.16948 4.0128179 9.28125 7.84375 L 3.71875 2.28125 z M 20.0625 5.96875 C 21.9335 5.96875 23.5705 6.4455 24.5625 7.4375 C 27.095368 9.9721793 26.012029 16.91595 22.71875 21.28125 L 10.6875 9.25 C 13.406153 7.1704321 17.047111 5.96875 20.0625 5.96875 z M 6.5 10.6875 C 4.996 12.7175 4.14025 14.97125 4.03125 17.28125 C 3.89525 20.17625 4.96525 22.90275 7.03125 24.96875 C 8.99825 26.93775 11.551 28 14.25 28 C 14.397 28 14.5395 28.007 14.6875 28 C 16.9965 27.901 19.2575 27.033 21.3125 25.5 L 19.875 24.0625 C 18.209 25.2455 16.40875 25.922 14.59375 26 C 12.30075 26.111 10.1115 25.2355 8.4375 23.5625 C 6.7735 21.8995 5.92225 19.701 6.03125 17.375 C 6.11725 15.56 6.7795 13.77 7.9375 12.125 L 6.5 10.6875 z" overflow="visible" font-family="Bitstream Vera Sans" fill="#000000"/></svg>
