<?xml version="1.0" encoding="utf-8"?>
<svg xmlns="http://www.w3.org/2000/svg" viewBox="0 0 32 32" fill="#000000"><path style="text-indent:0;text-align:start;line-height:normal;text-transform:none;block-progression:tb;-inkscape-font-specification:Bitstream Vera Sans" d="M 20 4 C 18.122615 4 14.922573 4.5732086 11.75 6.71875 C 8.5774269 8.8642914 5.503573 12.623085 4.03125 18.78125 L 3.84375 19.5625 L 4.5625 19.90625 L 14 24.5 L 14.46875 24.71875 L 14.90625 24.5 L 19.59375 22 L 22.28125 22 C 23.981264 22 25.503983 20.917571 26.0625 19.3125 L 27 16.65625 C 27.439721 15.385946 26.438727 14 25.09375 14 L 22.1875 14 L 18.90625 12.1875 L 20.96875 5.28125 L 21.34375 4 L 20 4 z M 18.59375 6.21875 L 13.8125 22.1875 L 6.21875 18.46875 C 7.6466853 13.246872 10.226874 10.165869 12.875 8.375 C 15.019522 6.9247072 17.029313 6.4282809 18.59375 6.21875 z M 25 7 C 23.35292 7 22 8.3529196 22 10 C 22 11.64708 23.35292 13 25 13 C 26.64708 13 28 11.64708 28 10 C 28 8.3529196 26.64708 7 25 7 z M 25 9 C 25.52492 9 26 9.4750804 26 10 C 26 10.52492 25.52492 11 25 11 C 24.47508 11 24 10.52492 24 10 C 24 9.4750804 24.47508 9 25 9 z M 18.3125 14.15625 L 21.4375 15.875 L 21.65625 16 L 21.90625 16 L 25.09375 16 L 24.1875 18.65625 C 23.930621 19.394472 23.264464 19.885244 22.5 19.96875 L 23.59375 17 L 21.59375 17 L 20.5 20 L 19.3125 20 L 19.0625 20 L 18.84375 20.125 L 16.09375 21.59375 L 18.3125 14.15625 z M 3 25 C 3 25.941864 3.5886774 26.683099 4.3125 27.1875 C 5.0363226 27.691901 5.9614482 28 7 28 C 8.035362 28 8.9618851 27.690468 9.6875 27.1875 C 9.8001837 27.109392 9.8956859 27.026988 10 26.9375 C 10.101232 27.023981 10.203606 27.111617 10.3125 27.1875 C 11.036323 27.691901 11.961448 28 13 28 C 14.035362 28 14.961885 27.690468 15.6875 27.1875 C 15.800184 27.109392 15.895686 27.026988 16 26.9375 C 16.101232 27.023981 16.203606 27.111617 16.3125 27.1875 C 17.036323 27.691901 17.961448 28 19 28 C 20.035362 28 20.961885 27.690468 21.6875 27.1875 C 21.800184 27.109392 21.895686 27.026988 22 26.9375 C 22.101232 27.023981 22.203606 27.111617 22.3125 27.1875 C 23.036323 27.691901 23.961448 28 25 28 C 26.035362 28 26.961885 27.690468 27.6875 27.1875 C 28.413115 26.684532 29 25.942667 29 25 L 27 25 C 27 25.05733 26.91888 25.315468 26.5625 25.5625 C 26.206115 25.809532 25.636638 26 25 26 C 24.366552 26 23.795677 25.812099 23.4375 25.5625 C 23.079323 25.312901 23 25.042136 23 25 L 21 25 C 21 25.05733 20.91888 25.315468 20.5625 25.5625 C 20.206115 25.809532 19.636638 26 19 26 C 18.366552 26 17.795677 25.812099 17.4375 25.5625 C 17.079323 25.312901 17 25.042136 17 25 L 15 25 C 15 25.05733 14.91888 25.315468 14.5625 25.5625 C 14.206115 25.809532 13.636638 26 13 26 C 12.366552 26 11.795677 25.812099 11.4375 25.5625 C 11.079323 25.312901 11 25.042136 11 25 L 9 25 C 9 25.05733 8.918885 25.315468 8.5625 25.5625 C 8.2061149 25.809532 7.636638 26 7 26 C 6.3665518 26 5.7956774 25.812099 5.4375 25.5625 C 5.0793226 25.312901 5 25.042136 5 25 L 3 25 z" overflow="visible" font-family="Bitstream Vera Sans" fill="#000000"/></svg>
