<?xml version="1.0" encoding="utf-8"?>
<svg xmlns="http://www.w3.org/2000/svg" viewBox="0 0 32 32" fill="#000000"><path style="text-indent:0;text-align:start;line-height:normal;text-transform:none;block-progression:tb;-inkscape-font-specification:Bitstream Vera Sans" d="M 16 4 C 9.3844277 4 4 9.3844277 4 16 C 4 20.174222 6.1309975 23.849386 9.375 26 L 9 26 L 9 28 L 16 28 L 23 28 L 23 26 L 22.625 26 C 25.869002 23.849386 28 20.174222 28 16 C 28 9.3844277 22.615572 4 16 4 z M 16 6 C 21.534692 6 26 10.465308 26 16 C 26 21.534692 21.534692 26 16 26 C 10.465308 26 6 21.534692 6 16 C 6 10.465308 10.465308 6 16 6 z M 16 10 C 12.698136 10 10 12.698136 10 16 C 10 19.301864 12.698136 22 16 22 C 19.301864 22 22 19.301864 22 16 C 22 12.698136 19.301864 10 16 10 z M 16 12 C 18.220984 12 20 13.779016 20 16 C 20 18.220984 18.220984 20 16 20 C 13.779016 20 12 18.220984 12 16 C 12 13.779016 13.779016 12 16 12 z M 16 14 C 14.895 14 14 14.895 14 16 C 14 17.105 14.895 18 16 18 C 17.105 18 18 17.105 18 16 C 18 15.797 17.96225 15.59125 17.90625 15.40625 C 17.74625 15.74825 17.402 16 17 16 C 16.448 16 16 15.552 16 15 C 16 14.598 16.25175 14.25375 16.59375 14.09375 C 16.40875 14.03775 16.203 14 16 14 z" overflow="visible" font-family="Bitstream Vera Sans" fill="#000000"/></svg>
