<?xml version="1.0" encoding="utf-8"?>
<svg xmlns="http://www.w3.org/2000/svg" viewBox="0 0 32 32" fill="#000000"><path style="line-height:normal;text-indent:0;text-align:start;text-decoration-line:none;text-decoration-style:solid;text-decoration-color:#000;text-transform:none;block-progression:tb;isolation:auto;mix-blend-mode:normal" d="M 17.029297 2.0742188 L 15.220703 2.9257812 C 15.220703 2.9257812 15.392901 3.3214734 15.423828 3.7441406 C 15.442965 4.0056459 15.440141 4.1847716 15.341797 4.3417969 C 14.712365 4.1310531 13.962465 4 13 4 C 8.2312871 4 4 8.9432206 4 15 C 4 21.495296 8.123728 24.723149 10.617188 25.919922 C 12.771589 26.953905 15.201087 27.546627 16.242188 28.398438 L 16.984375 29.005859 L 17.623047 28.289062 C 18.472983 27.332884 19.412343 26.964507 21.542969 25.589844 C 23.525946 24.310503 25.147052 23.04594 26.28125 21.369141 C 27.415448 19.692342 28 17.636007 28 15 C 28 12.146429 27.03278 9.4430744 25.435547 7.4121094 C 23.838313 5.3811443 21.559848 4 19 4 C 18.488033 4 17.944745 4.072736 17.390625 4.2070312 C 17.417434 3.9939489 17.433416 3.7840259 17.419922 3.5996094 C 17.357102 2.7410266 17.029297 2.0742188 17.029297 2.0742188 z M 13 6 C 13.45952 6 13.525862 6.1240194 13.835938 6.1699219 C 13.619835 6.3502599 13.37702 6.419591 13.169922 6.625 C 11.359885 8.4202784 10 11.212456 10 15 C 10 18.567223 12.181641 21.574219 12.181641 21.574219 L 13.818359 20.425781 C 13.818359 20.425781 12 17.718777 12 15 C 12 11.681544 13.140115 9.4731435 14.580078 8.0449219 C 16.020041 6.6167002 17.821556 6 19 6 C 20.840152 6 22.560515 6.9938557 23.863281 8.6503906 C 25.166048 10.306926 26 12.603571 26 15 C 26 17.351993 25.522052 18.921846 24.625 20.248047 C 23.727948 21.574248 22.349054 22.689497 20.457031 23.910156 C 18.769009 24.999255 17.721629 25.569585 16.744141 26.449219 C 15.102168 25.422887 13.07989 24.883876 11.482422 24.117188 C 9.4338808 23.133959 6 20.666704 6 15 C 6 9.8887794 9.6887129 6 13 6 z" font-weight="400" font-family="sans-serif" white-space="normal" overflow="visible" fill="#000000"/></svg>
