<?xml version="1.0" encoding="utf-8"?>
<svg xmlns="http://www.w3.org/2000/svg" viewBox="0 0 32 32" fill="#000000"><path d="M 26.5625 5.09375 L 22.15625 7.3125 L 20.1875 14.25 L 12.40625 17.15625 L 6.25 24.34375 L 7.75 25.65625 L 13.59375 18.84375 L 21.8125 15.75 L 23.84375 8.6875 L 27.4375 6.90625 L 26.5625 5.09375 z M 17.96875 8.21875 L 12.53125 10.1875 C 12.51325 10.1955 12.48675 10.21075 12.46875 10.21875 C 11.60275 10.61075 11 11.488 11 12.5 C 11 13.879 12.121 15 13.5 15 C 13.748 15 13.99175 14.943 14.21875 14.875 L 19.65625 12.9375 L 17.96875 8.21875 z M 16.71875 10.8125 L 17.09375 11.75 L 13.6875 12.96875 C 13.6295 12.99175 13.566 13 13.5 13 C 13.224 13 13 12.776 13 12.5 C 13 12.298 13.10825 12.1415 13.28125 12.0625 C 13.29225 12.0575 13.33275 12.03625 13.34375 12.03125 L 16.71875 10.8125 z M 8 13 C 6.3549901 13 5 14.354991 5 16 C 5 17.645009 6.3549901 19 8 19 C 9.6450099 19 11 17.645009 11 16 C 11 14.354991 9.6450099 13 8 13 z M 8 15 C 8.5641291 15 9 15.435871 9 16 C 9 16.564129 8.5641291 17 8 17 C 7.4358709 17 7 16.564129 7 16 C 7 15.435871 7.4358709 15 8 15 z" fill="#000000"/></svg>
