<?xml version="1.0" encoding="utf-8"?>
<svg xmlns="http://www.w3.org/2000/svg" viewBox="0 0 32 32" fill="#000000"><path style="text-indent:0;text-align:start;line-height:normal;text-transform:none;block-progression:tb;-inkscape-font-specification:Bitstream Vera Sans" d="M 5 6 L 5 21 L 5 22 L 6 22 L 15 22 L 15 25 L 12.5 25 L 16 28.5 L 19.5 25 L 17 25 L 17 22 L 26 22 L 27 22 L 27 21 L 27 6 L 25 6 L 25 20 L 7 20 L 7 6 L 5 6 z M 19.65625 8 C 19.3155 8 18.97875 8.115 18.71875 8.375 L 18.4375 8.6875 L 20.3125 10.5625 L 20.625 10.28125 C 21.145 9.76125 21.145 8.895 20.625 8.375 C 20.365 8.115 19.997 8 19.65625 8 z M 17.71875 9.40625 L 12.46875 14.65625 L 12 17 L 14.34375 16.53125 L 19.59375 11.28125 L 17.71875 9.40625 z" overflow="visible" font-family="Bitstream Vera Sans" fill="#000000"/></svg>
