<?xml version="1.0" encoding="utf-8"?>
<svg xmlns="http://www.w3.org/2000/svg" viewBox="0 0 32 32" fill="#000000"><path style="text-indent:0;text-align:start;line-height:normal;text-transform:none;block-progression:tb;-inkscape-font-specification:Bitstream Vera Sans" d="M 21.5 5 C 20.8445 5 20.297687 5.4136884 20.09375 6 L 20 6 L 16 6 L 16 8 L 19.53125 8 C 20.653033 9.226614 21.463208 10.530617 22.09375 11.75 C 22.150049 12.373555 21.998061 13.038723 21.625 13.78125 C 21.17764 14.671739 20.461723 15.599147 19.6875 16.40625 C 18.227822 17.927918 16.802261 18.878263 16.625 19 L 14 19 C 13.571047 19 13.275172 18.895315 13.15625 18.8125 C 13.037328 18.729685 13 18.744101 13 18.46875 C 13 17.86279 13.330966 17.276686 13.8125 16.59375 C 14.294034 15.910814 15 15.166377 15 14 L 14.96875 14 C 14.980052 13.908673 15 13.812947 15 13.71875 C 15 12.519884 14.039817 11.513134 12.84375 11.4375 L 6.4375 11.09375 L 6.40625 11.09375 C 5.1166702 11.031742 4 12.079657 4 13.375 L 4 13.71875 C 4 14.164653 4.1504422 14.584592 4.375 14.9375 C 4.0836577 15.221528 3.7212299 15.534357 3.3125 15.90625 C 2.2614802 16.862547 1 18.270207 1 20.40625 L 1 21.03125 L 1.59375 21.3125 C 1.59375 21.3125 1.9637183 21.472951 2.25 21.59375 C 2.0870991 22.026501 2 22.510138 2 23 C 2 25.197334 3.8026661 27 6 27 C 7.91212 27 9.5196636 25.64607 9.90625 23.84375 C 10.525065 23.930574 11.13331 24 11.71875 24 L 17.3125 24 C 18.478046 24 19.590083 23.568024 20.46875 22.8125 C 20.533021 22.78999 21.158458 22.639188 22.0625 22.40625 C 22.03268 22.602068 22 22.79756 22 23 C 22 25.197334 23.802666 27 26 27 C 28.197334 27 30 25.197334 30 23 C 30 22.424113 29.874712 21.871275 29.65625 21.375 C 29.77409 21.373634 29.880863 21.375 30 21.375 L 31 21.375 L 31 20.375 L 31 20 L 31 19.75 L 30.90625 19.53125 C 30.481217 18.696735 29.680387 17.937129 28.65625 17.25 C 27.847773 16.707565 26.887236 16.234283 25.84375 16.0625 C 25.635011 15.101333 25.122394 13.283513 24.03125 11.09375 C 24.016814 11.021468 24.01842 10.947415 24 10.875 L 23.9375 10.90625 C 23.449508 9.9501468 22.885954 8.971947 22.15625 8 L 24 8 L 24 5 L 21.5 5 z M 6.3125 13.09375 L 12.71875 13.4375 L 12.75 13.4375 C 12.898822 13.458155 13 13.564679 13 13.71875 C 13 13.890488 12.890488 14 12.71875 14 L 7 14 L 6.28125 14 C 6.1095122 14 6 13.890488 6 13.71875 L 6 13.375 C 6 13.192828 6.1313879 13.082522 6.3125 13.09375 z M 23.375 14.75 C 23.696241 15.755589 23.833427 16.486848 23.875 16.71875 L 19.3125 21.1875 C 18.779942 21.710429 18.057335 22 17.3125 22 L 11.71875 22 C 11.010147 22 10.174395 21.890378 9.3125 21.71875 C 9.1867335 21.693706 9.0644825 21.683887 8.9375 21.65625 C 7.8543768 21.42051 6.7407867 21.080813 5.75 20.75 C 5.1011796 20.533366 4.6613179 20.37169 4.28125 20.21875 A 1.0001 1.0001 0 0 0 4.1875 20.1875 A 1.0001 1.0001 0 0 0 4 20.09375 C 3.9679118 20.080304 3.9366894 20.106678 3.90625 20.09375 C 3.6228491 19.973382 3.3756988 19.829902 3.1875 19.75 C 3.3969265 18.800151 3.920286 18.073069 4.6875 17.375 C 5.1619901 16.943273 5.6704025 16.539092 6.125 16.03125 C 6.1344055 16.020743 6.1468772 16.010663 6.15625 16 C 6.1972861 16.002237 6.2396926 16 6.28125 16 L 11.8125 16 C 11.396305 16.657159 11 17.471036 11 18.46875 C 11 19.279399 11.400922 20.051565 12 20.46875 C 12.599078 20.885935 13.300953 21 14 21 L 17 21 A 1.0001 1.0001 0 0 0 17.5625 20.84375 C 17.5625 20.84375 19.400447 19.579043 21.125 17.78125 C 21.971686 16.898607 22.793162 15.885956 23.375 14.75 z M 25.375 18.03125 C 26.089471 18.122599 26.858183 18.454666 27.53125 18.90625 C 27.863727 19.129321 27.9365 19.317958 28.1875 19.5625 C 28.133798 19.565927 28.084679 19.558873 28.03125 19.5625 A 1.0001 1.0001 0 0 0 27.5625 19.5 A 1.0001 1.0001 0 0 0 27.09375 19.65625 C 25.74169 19.779948 24.562437 19.937406 23.5 20.125 A 1.0004882 1.0004882 0 0 0 23.3125 20.1875 C 23.261078 20.196807 23.206771 20.209427 23.15625 20.21875 L 25.375 18.03125 z M 27.3125 21.5 C 27.734807 21.865048 28 22.389108 28 23 C 28 24.116666 27.116666 25 26 25 C 24.883334 25 24 24.116666 24 23 C 24 22.579282 24.124985 22.196174 24.34375 21.875 C 25.220762 21.720321 26.228543 21.592979 27.3125 21.5 z M 4.125 22.3125 C 4.4667457 22.437161 4.7078748 22.527411 5.09375 22.65625 C 5.9721195 22.949528 6.9410467 23.229957 7.9375 23.46875 C 7.7280942 24.350969 6.9526558 25 6 25 C 4.8833339 25 4 24.116666 4 23 C 4 22.757862 4.0453384 22.527436 4.125 22.3125 z" overflow="visible" font-family="Bitstream Vera Sans" fill="#000000"/></svg>
