<?xml version="1.0" encoding="utf-8"?>
<svg xmlns="http://www.w3.org/2000/svg" viewBox="0 0 32 32" fill="#000000"><path style="text-indent:0;text-align:start;line-height:normal;text-transform:none;block-progression:tb;-inkscape-font-specification:Sans" d="M 5 5 L 5 6 L 5 26 L 5 27 L 6 27 L 26 27 L 27 27 L 27 26 L 27 6 L 27 5 L 26 5 L 6 5 L 5 5 z M 7 7 L 25 7 L 25 25 L 7 25 L 7 7 z M 13.71875 11 L 13.5 11.6875 L 11.03125 19.40625 L 11 19.5625 L 11 19.71875 L 11 21 L 13 21 L 13 20 L 16 20 L 16 21 L 18 21 L 18 19.71875 L 18 19.5625 L 17.96875 19.40625 L 15.5 11.6875 L 15.28125 11 L 14.5625 11 L 14.4375 11 L 13.71875 11 z M 19 11 L 19 13 L 21 13 L 21 11 L 19 11 z M 19 15 L 19 21 L 21 21 L 21 15 L 19 15 z M 14.5 15.15625 L 15.40625 18 L 13.59375 18 L 14.5 15.15625 z" overflow="visible" font-family="Sans" fill="#000000"/></svg>
