<?xml version="1.0" encoding="utf-8"?>
<svg xmlns="http://www.w3.org/2000/svg" viewBox="0 0 32 32" fill="#000000"><path d="M 16 4 C 14.633068 4 13.471433 4.6440601 12.572266 5.5351562 C 12.068927 5.301206 11.594329 5 11 5 C 8.8026661 5 7 6.8026661 7 9 L 5 9 L 5 10 L 5 23 L 8 23 L 8 25.865234 C 8 25.984871 7.9866973 25.991365 7.984375 26 A 1.0001 1.0001 0 1 0 8 28 C 8.5782353 28 9.1755761 27.742706 9.5292969 27.308594 C 9.8830176 26.874482 10 26.353843 10 25.865234 L 10 23 L 12 23 L 12 25.865234 C 12 25.984871 11.986697 25.991365 11.984375 26 A 1.0001 1.0001 0 1 0 12 28 C 12.578235 28 13.175576 27.742706 13.529297 27.308594 C 13.883018 26.874482 14 26.353843 14 25.865234 L 14 23 L 19 23 L 19 25.865234 C 19 25.984871 18.986697 25.991365 18.984375 26 A 1.0001 1.0001 0 1 0 19 28 C 19.578235 28 20.175576 27.742706 20.529297 27.308594 C 20.883018 26.874482 21 26.353843 21 25.865234 L 21 23 L 23 23 L 23 25.865234 C 23 25.984871 22.986697 25.991365 22.984375 26 A 1.0001 1.0001 0 1 0 23 28 C 23.578235 28 24.175576 27.742706 24.529297 27.308594 C 24.883018 26.874482 25 26.353843 25 25.865234 L 25 23 L 27 23 L 27 9 L 26 9 C 26 6.8026661 24.197334 5 22 5 C 21.096664 5 20.327421 5.3796847 19.658203 5.8886719 C 18.743989 4.8115881 17.520454 4 16 4 z M 16 6 C 17.187252 6 18.190202 6.6868409 18.681641 7.6855469 A 1.0001 1.0001 0 0 0 20.386719 7.8320312 C 20.754048 7.3258586 21.329996 7 22 7 C 23.116666 7 24 7.8833339 24 9 L 9 9 C 9 7.8833339 9.8833339 7 11 7 C 11.449608 7 11.854612 7.152353 12.199219 7.4140625 A 1.0001 1.0001 0 0 0 13.605469 7.2148438 C 14.157043 6.4763846 15.013711 6 16 6 z M 7 11 L 7.9453125 11 A 1.0001 1.0001 0 0 0 8.4453125 11 L 24.554688 11 A 1.0001 1.0001 0 0 0 25 11.011719 L 25 21 L 24.154297 21 A 1.0001 1.0001 0 0 0 23.984375 20.986328 A 1.0001 1.0001 0 0 0 23.839844 21 L 20.154297 21 A 1.0001 1.0001 0 0 0 19.984375 20.986328 A 1.0001 1.0001 0 0 0 19.839844 21 L 13.154297 21 A 1.0001 1.0001 0 0 0 12.984375 20.986328 A 1.0001 1.0001 0 0 0 12.839844 21 L 9.1542969 21 A 1.0001 1.0001 0 0 0 8.984375 20.986328 A 1.0001 1.0001 0 0 0 8.8398438 21 L 7 21 L 7 11 z M 12 15 A 1 1 0 0 0 11 16 A 1 1 0 0 0 12 17 A 1 1 0 0 0 13 16 A 1 1 0 0 0 12 15 z M 16 15 A 1 1 0 0 0 15 16 A 1 1 0 0 0 16 17 A 1 1 0 0 0 17 16 A 1 1 0 0 0 16 15 z M 20 15 A 1 1 0 0 0 19 16 A 1 1 0 0 0 20 17 A 1 1 0 0 0 21 16 A 1 1 0 0 0 20 15 z" fill="#000000"/></svg>
