<?xml version="1.0" encoding="utf-8"?>
<svg xmlns="http://www.w3.org/2000/svg" viewBox="0 0 32 32" fill="#000000"><path style="text-indent:0;text-align:start;line-height:normal;text-transform:none;block-progression:tb;-inkscape-font-specification:Sans" d="M 16 4 C 13.83788 4 12.34375 4.71875 12.34375 4.71875 L 12.125 4.8125 L 11.96875 5.03125 C 11.96875 5.03125 10.598123 6.9489237 10.03125 9.8125 L 10 9.90625 L 10 10 C 10 10.456954 10.07749 11.300357 10.375 12.5625 C 10.672509 13.824643 11.180813 15.460972 12.0625 17.25 C 13.825875 20.828057 17.077267 25.072331 22.875 28.375 L 23.96875 29 L 24.34375 27.78125 L 25.96875 22.28125 L 26.1875 21.46875 L 25.4375 21.09375 C 23.109755 19.984413 21.345137 18.645814 19.875 17.25 C 20.605751 15.623508 21.231528 14.030856 21.53125 12.84375 C 21.890127 11.422352 22 10.526182 22 10 L 22 9.90625 L 21.96875 9.8125 C 21.402871 6.9484826 20.03125 5.03125 20.03125 5.03125 L 19.875 4.8125 L 19.65625 4.71875 C 19.65625 4.71875 18.16212 4 16 4 z M 16 6 C 16.804723 6 17.422802 6.1100443 17.84375 6.21875 C 17.802841 6.5025733 17.760525 6.8250766 17.6875 7.1875 C 17.131393 7.0729214 16.570825 7 16 7 C 15.432238 7 14.867134 7.0424724 14.3125 7.15625 C 14.263259 6.8488503 14.243482 6.5568055 14.21875 6.3125 C 14.670299 6.1618377 14.882697 6 16 6 z M 12.65625 8.21875 C 13.484079 12.033688 15.943544 18.367531 23.8125 22.46875 L 22.78125 25.90625 C 18.090442 22.936478 15.367537 19.372251 13.875 16.34375 C 13.068312 14.706903 12.579085 13.224701 12.3125 12.09375 C 12.0537 10.995823 12.003511 10.237221 12 10.0625 C 12.161542 9.3002997 12.428208 8.7805262 12.65625 8.21875 z M 19.46875 8.34375 C 19.656423 8.838199 19.856787 9.3856574 20 10.0625 C 19.9956 10.171685 19.91324 11.109601 19.59375 12.375 C 19.369294 13.263999 18.830033 14.49663 18.34375 15.6875 C 17.911179 15.17046 17.535016 14.634534 17.1875 14.125 C 18.404058 11.994504 19.077601 9.962082 19.46875 8.34375 z M 16 9 C 16.417318 9 16.825247 9.0434213 17.21875 9.125 C 16.933402 10.044301 16.528781 11.062102 16 12.125 C 15.448675 11.043575 15.016392 10.035097 14.75 9.125 C 15.153087 9.0392107 15.573278 9 16 9 z M 11.03125 18.46875 C 9.81125 19.44575 8.4575 20.18975 6.5625 21.09375 L 5.8125 21.46875 L 8.03125 29 L 9.125 28.375 C 11.793 26.856 13.48625 25.50575 14.90625 23.96875 C 14.43925 23.46075 13.99575 22.9495 13.59375 22.4375 C 12.45875 23.6985 11.16175 24.801 9.21875 26 L 8.1875 22.53125 C 9.7035 21.78425 10.91725 21.105 12.03125 20.25 C 11.65725 19.655 11.33125 19.04375 11.03125 18.46875 z" overflow="visible" font-family="Sans" fill="#000000"/></svg>
