<?xml version="1.0" encoding="utf-8"?>
<svg xmlns="http://www.w3.org/2000/svg" viewBox="0 0 32 32" fill="#000000"><path style="text-indent:0;text-align:start;line-height:normal;text-transform:none;block-progression:tb;-inkscape-font-specification:Bitstream Vera Sans" d="M 16 4 C 14.354991 4 13 5.3549901 13 7 C 13 7.9882155 13.471645 8.8894912 14.21875 9.4375 C 12.910222 10.097509 12 11.443555 12 13 L 12 16 L 12 16.40625 L 12.28125 16.71875 L 13 17.4375 L 13 21 L 12 21 L 11 21 L 11 22 L 11 26 L 9 26 L 9 28 L 23 28 L 23 26 L 21 26 L 21 22 L 21 21 L 20 21 L 19 21 L 19 17.4375 L 19.71875 16.71875 L 20 16.40625 L 20 16 L 20 13 C 20 11.443555 19.089778 10.097509 17.78125 9.4375 C 18.528355 8.8894912 19 7.9882155 19 7 C 19 5.3549901 17.645009 4 16 4 z M 16 6 C 16.564129 6 17 6.4358709 17 7 C 17 7.5641291 16.564129 8 16 8 C 15.435871 8 15 7.5641291 15 7 C 15 6.4358709 15.435871 6 16 6 z M 16 11 C 17.116666 11 18 11.883334 18 13 L 18 15.5625 L 17.28125 16.28125 L 17 16.59375 L 17 17 L 17 21 L 15 21 L 15 17 L 15 16.59375 L 14.71875 16.28125 L 14 15.5625 L 14 13 C 14 11.883334 14.883334 11 16 11 z M 13 23 L 14 23 L 19 23 L 19 26 L 13 26 L 13 23 z" overflow="visible" font-family="Bitstream Vera Sans" fill="#000000"/></svg>
