<?xml version="1.0" encoding="utf-8"?>
<svg xmlns="http://www.w3.org/2000/svg" viewBox="0 0 32 32" fill="#000000"><path style="text-indent:0;text-align:start;line-height:normal;text-transform:none;block-progression:tb;-inkscape-font-specification:Bitstream Vera Sans" d="M 4 6 C 3.5580288 6 3.1612006 6.2028078 2.90625 6.4375 C 2.6512994 6.6721922 2.4982986 6.9558884 2.34375 7.25 C 2.0346528 7.8382231 1.8176221 8.5393508 1.625 9.40625 C 1.2397558 11.140048 1 13.454485 1 16 C 1 18.545515 1.2397558 20.859952 1.625 22.59375 C 1.8176221 23.460649 2.0346528 24.161777 2.34375 24.75 C 2.4982986 25.044112 2.6512994 25.327808 2.90625 25.5625 C 3.1612006 25.797192 3.5580288 26 4 26 L 28 26 C 28.441971 26 28.838799 25.797192 29.09375 25.5625 C 29.348701 25.327808 29.501701 25.044112 29.65625 24.75 C 29.965347 24.161777 30.182378 23.460649 30.375 22.59375 C 30.760244 20.859952 31 18.545515 31 16 C 31 13.454485 30.760244 11.140048 30.375 9.40625 C 30.182378 8.5393508 29.965347 7.8382231 29.65625 7.25 C 29.501701 6.9558884 29.348701 6.6721922 29.09375 6.4375 C 28.838799 6.2028078 28.441971 6 28 6 L 4 6 z M 4.21875 8 L 27.78125 8 C 27.81205 8.039362 27.84975 8.079981 27.90625 8.1875 C 28.075747 8.5100581 28.268247 9.0820242 28.4375 9.84375 C 28.484098 10.053467 28.520527 10.296829 28.5625 10.53125 C 26.38875 10.897069 24.422911 12.503508 23.0625 14.8125 C 22.512838 13.077508 22.34375 10.769397 22.34375 9 L 20.34375 9 C 20.34375 10.897684 20.42598 13.377056 21.1875 15.53125 C 20.222592 15.383639 19.325698 15.429907 18.53125 15.71875 C 18.179758 15.846544 17.864973 16.02582 17.5625 16.21875 C 17.565372 15.666432 17.525246 15.122797 17.46875 14.5625 C 17.302431 12.913037 17 11.168956 17 9 L 15 9 C 15 11.358044 15.345319 13.215963 15.5 14.75 C 15.591554 15.657984 15.602255 16.423336 15.5 17.15625 C 14.859426 16.526375 14.157035 16.001086 13.3125 15.75 C 12.52378 15.515509 11.676787 15.504672 10.78125 15.625 C 11.573687 13.450141 11.65625 10.924931 11.65625 9 L 9.65625 9 C 9.65625 10.783078 9.4660216 13.104268 8.90625 14.84375 C 7.025706 11.766622 3.9546647 10.718383 3.4375 10.5625 C 3.4810954 10.316674 3.5138488 10.062706 3.5625 9.84375 C 3.7317529 9.0820242 3.9242534 8.5100581 4.09375 8.1875 C 4.1502489 8.0799806 4.1879457 8.0393615 4.21875 8 z M 28.84375 12.53125 C 28.945844 13.593395 29 14.762381 29 16 C 29 16.675926 29.001172 17.33679 28.96875 17.96875 C 28.43574 17.722324 27.388282 17.104783 26.6875 15.90625 C 26.2395 16.36825 25.8135 16.941 25.4375 17.625 C 26.7865 19.377 28.5825 19.99825 28.6875 20.03125 C 28.7075 20.037587 28.730071 20.026231 28.75 20.03125 C 28.658717 20.818936 28.571383 21.553705 28.4375 22.15625 C 28.268247 22.917976 28.075747 23.489942 27.90625 23.8125 C 27.84975 23.920019 27.81205 23.960639 27.78125 24 L 22.71875 24 C 22.266495 23.345121 21.246432 21.682082 20.75 19.40625 C 20.022 19.32725 19.3925 19.51475 18.8125 19.96875 C 19.195459 21.663622 19.828329 23.021559 20.375 24 L 11.625 24 C 12.1645 23.0275 12.809 21.63225 13.1875 19.96875 C 12.7015 19.64175 12.05875 19.46425 11.21875 19.53125 C 10.709907 21.750458 9.7222522 23.363897 9.28125 24 L 4.21875 24 C 4.187946 23.96064 4.150249 23.92002 4.09375 23.8125 C 3.9242534 23.489942 3.7317529 22.917976 3.5625 22.15625 C 3.4637691 21.71191 3.3890315 21.205387 3.3125 20.65625 C 3.3691192 20.637229 3.4146724 20.623793 3.46875 20.59375 C 3.57975 20.53175 5.41775 19.495 6.71875 17.75 C 6.37975 17.064 5.9195 16.5105 5.4375 16.0625 C 4.7773332 17.178162 3.743376 17.986246 3.09375 18.4375 C 3.0432636 17.65985 3 16.851595 3 16 C 3 14.774819 3.0560545 13.616325 3.15625 12.5625 C 4.023013 12.831221 6.9811652 13.949061 8 17.28125 L 8.3125 18.28125 L 9.28125 17.9375 C 10.698955 17.447615 11.846612 17.418917 12.75 17.6875 C 13.653388 17.956083 14.387822 18.541531 15.0625 19.5625 L 15.375 20 L 15.90625 20 L 16.09375 20 L 16.625 20 L 16.9375 19.5625 C 17.610792 18.588663 18.347612 17.910475 19.21875 17.59375 C 20.089888 17.277025 21.161121 17.254711 22.65625 17.90625 L 23.59375 18.34375 L 23.96875 17.375 C 25.042733 14.637038 27.092138 12.877475 28.84375 12.53125 z" overflow="visible" font-family="Bitstream Vera Sans" fill="#000000"/></svg>
