<?xml version="1.0" encoding="utf-8"?>
<svg xmlns="http://www.w3.org/2000/svg" viewBox="0 0 32 32" fill="#000000"><path style="text-indent:0;text-align:start;line-height:normal;text-transform:none;block-progression:tb;-inkscape-font-specification:Bitstream Vera Sans" d="M 18.5 5 C 16.578848 5 15 6.5788481 15 8.5 C 15 10.421152 16.578848 12 18.5 12 C 20.421152 12 22 10.421152 22 8.5 C 22 6.5788481 20.421152 5 18.5 5 z M 18.5 7 C 19.340272 7 20 7.6597281 20 8.5 C 20 9.3402719 19.340272 10 18.5 10 C 17.659728 10 17 9.3402719 17 8.5 C 17 7.6597281 17.659728 7 18.5 7 z M 14.625 10.75 L 13.96875 11.125 L 10.5 13.125 L 10.1875 13.3125 L 10.0625 13.625 L 8.0625 18.625 L 9.9375 19.375 L 11.8125 14.6875 L 14.3125 13.25 L 14.875 13.8125 C 15.034921 13.969363 15.047871 14.201568 14.90625 14.375 L 11.21875 18.875 L 11 19.15625 L 11 19.5 L 11 27 L 13 27 L 13 19.84375 L 16.4375 15.625 C 17.221879 14.664432 17.167329 13.244137 16.28125 12.375 L 15.15625 11.28125 L 14.625 10.75 z M 15 19 L 14 20.21875 L 14 27 L 16 27 L 15 19 z" overflow="visible" font-family="Bitstream Vera Sans" fill="#000000"/></svg>
