<?xml version="1.0" encoding="utf-8"?>
<svg xmlns="http://www.w3.org/2000/svg" viewBox="0 0 32 32" fill="#000000"><path style="text-indent:0;text-align:start;line-height:normal;text-transform:none;block-progression:tb;-inkscape-font-specification:Sans" d="M 13.59375 5 C 10.860126 4.9736352 4.965378 5.5916591 1.5 10.9375 L 1 11.6875 L 1.71875 12.25 L 1.75 12.28125 L 2.15625 12.625 L 2.65625 12.46875 C 3.6964097 12.166983 4.6795481 12.26951 5.34375 12.71875 C 6.0079519 13.16799 6.53125 14.002333 6.53125 15.78125 L 6.53125 16.75 L 7.5 16.78125 C 7.9035519 16.79759 8.7733952 17.21806 9.21875 17.875 C 9.6641048 18.53194 9.8647247 19.310572 9.15625 20.5 L 8.25 22 L 10 22 C 10.569034 22 10.657308 22.111908 10.8125 22.375 C 10.967692 22.638092 11.072489 23.186947 11.0625 23.78125 C 11.04252 24.969857 10.65625 26.28125 10.65625 26.28125 L 10.375 27.09375 L 11.15625 27.46875 L 11.28125 27.53125 L 12.125 27.96875 L 12.59375 27.125 C 12.59375 27.125 13.281039 25.947256 14.15625 25.125 C 14.593856 24.713872 15.052205 24.44518 15.375 24.375 C 15.697795 24.30482 15.877913 24.3061 16.28125 24.71875 L 17.1875 25.625 L 17.84375 24.53125 C 18.566416 23.373333 19.418081 23.012254 20.25 22.96875 C 21.081919 22.92525 21.906978 23.304666 22.28125 23.6875 L 23.125 24.5625 L 23.8125 23.5625 C 24.948663 21.93941 25.904078 21.891729 26.8125 22.125 C 27.266711 22.241635 27.689206 22.475501 28.03125 22.75 C 28.373294 23.024499 28.617309 23.354298 28.65625 23.4375 L 28.9375 24 L 29.5625 24 L 29.625 24 L 30.375 24 L 30.59375 23.28125 C 32.797959 15.055892 25.40625 9.6875 25.40625 9.6875 L 23.5 8.28125 L 23.84375 10.625 C 23.84375 10.625 23.967312 11.743697 23.59375 12.65625 C 23.406969 13.112527 23.143994 13.486437 22.65625 13.75 C 22.333094 13.924624 21.628592 13.917869 21 13.9375 L 21 11 L 21 8.25 L 19.21875 10.375 L 19 10.625 L 19 10 L 18.96875 7.625 L 17.28125 9.3125 L 15.09375 11.5 C 14.710113 11.032528 14.221033 10.528923 14.125 10.15625 C 13.974621 9.5726784 14.049242 9.0507158 14.25 8.5625 C 14.651515 7.5860684 15.53125 6.875 15.53125 6.875 L 17.40625 5.4375 L 15.0625 5.09375 C 15.0625 5.09375 14.504958 5.008788 13.59375 5 z M 12.875 7.0625 C 12.711814 7.3237537 12.535707 7.4976767 12.40625 7.8125 C 12.081383 8.6025342 11.91516 9.5993841 12.1875 10.65625 C 12.45984 11.713116 13.135605 12.77303 14.34375 13.78125 L 15.0625 14.375 L 15.71875 13.71875 L 16.6875 12.75 L 17.03125 12.90625 L 17.15625 12.96875 L 17.625 13.1875 L 18.3125 13.46875 L 19 13.78125 L 19 15 L 19 15.875 L 19.84375 16 C 21.398542 16.221362 22.649838 16.04131 23.59375 15.53125 C 24.537662 15.021188 25.120156 14.212723 25.4375 13.4375 C 25.558512 13.141886 25.53009 12.909175 25.59375 12.625 C 27.098682 14.170935 29.21432 17.036208 28.90625 20.96875 C 28.438337 20.648082 27.9388 20.348325 27.3125 20.1875 C 25.951358 19.837977 24.245542 20.251891 22.84375 21.71875 C 22.071368 21.250611 21.178543 20.946541 20.15625 21 C 18.999519 21.06049 17.816791 21.705593 16.84375 22.78125 C 16.219175 22.464351 15.569075 22.275731 14.96875 22.40625 C 14.166645 22.580639 13.548196 23.075176 13 23.5625 C 12.991709 22.837766 12.943836 22.07444 12.53125 21.375 C 12.252927 20.90317 11.754858 20.554186 11.1875 20.3125 C 11.558992 18.98176 11.497818 17.668715 10.875 16.75 C 10.243005 15.817747 9.3245243 15.295635 8.375 15.03125 C 8.1994711 13.234043 7.5562711 11.819193 6.4375 11.0625 C 5.8511499 10.665915 5.2059493 10.464148 4.53125 10.375 C 7.2435276 7.6348199 10.739007 7.1192189 12.875 7.0625 z" overflow="visible" font-family="Sans" fill="#000000"/></svg>
