<?xml version="1.0" encoding="utf-8"?>
<svg xmlns="http://www.w3.org/2000/svg" viewBox="0 0 32 32" fill="#000000"><path style="text-indent:0;text-align:start;line-height:normal;text-transform:none;block-progression:tb;-inkscape-font-specification:Sans" d="M 16 4 C 14.180469 4 12.6875 5.4929681 12.6875 7.3125 C 12.6875 9.1320319 14.180469 10.625 16 10.625 C 17.819531 10.625 19.3125 9.1320319 19.3125 7.3125 C 19.3125 5.4929681 17.819531 4 16 4 z M 16 6 C 16.738651 6 17.3125 6.5738489 17.3125 7.3125 C 17.3125 8.0511511 16.738651 8.625 16 8.625 C 15.261349 8.625 14.6875 8.0511511 14.6875 7.3125 C 14.6875 6.5738489 15.261349 6 16 6 z M 8.25 8.6875 L 7.53125 10.5625 L 13 12.6875 L 13 16.59375 L 8.3125 21.6875 L 9.78125 23.03125 L 14.75 17.6875 L 15 17.375 L 15 17 L 15 13 L 17 13 L 17 17 L 17 17.375 L 17.25 17.6875 L 22.21875 23.03125 L 23.6875 21.6875 L 19 16.59375 L 19 12.6875 L 24.46875 10.5625 L 23.75 8.6875 L 17.78125 11 L 14.21875 11 L 8.25 8.6875 z M 16 24 C 10.336861 24 5.59375 26.09375 5.59375 26.09375 L 6.40625 27.90625 C 6.40625 27.90625 10.829139 26 16 26 C 21.170861 26 25.59375 27.90625 25.59375 27.90625 L 26.40625 26.09375 C 26.40625 26.09375 21.663139 24 16 24 z" overflow="visible" font-family="Sans" fill="#000000"/></svg>
