<?xml version="1.0" encoding="utf-8"?>
<svg xmlns="http://www.w3.org/2000/svg" viewBox="0 0 32 32" fill="#000000"><path style="text-indent:0;text-align:start;line-height:normal;text-transform:none;block-progression:tb;-inkscape-font-specification:Bitstream Vera Sans" d="M 2 6 L 2 7 L 2 25 L 2 26 L 3 26 L 29 26 L 30 26 L 30 25 L 30 7 L 30 6 L 29 6 L 3 6 L 2 6 z M 4 8 L 28 8 L 28 24 L 4 24 L 4 8 z M 9.53125 12.28125 L 9.53125 19.28125 L 13.75 19.28125 L 13.75 18 L 11.125 18 L 11.125 16.40625 L 13.40625 16.40625 L 13.40625 15.125 L 11.125 15.125 L 11.125 13.5625 L 13.5625 13.5625 L 13.5625 12.28125 L 9.53125 12.28125 z M 16.5625 14.15625 C 16.2785 14.15625 14.375 14.223 14.375 15.75 C 14.375 17.532 16.75 17.13725 16.75 17.90625 C 16.75 18.05925 16.61675 18.34375 15.84375 18.34375 C 15.20275 18.34375 14.629 18.05925 14.375 17.90625 L 14.375 19.15625 C 14.844 19.32525 15.35425 19.40725 15.90625 19.40625 C 18.03225 19.40625 18.21875 18.152 18.21875 17.75 C 18.21875 16.052 15.90625 16.395 15.90625 15.625 C 15.90625 15.557 15.908 15.21875 16.625 15.21875 C 17.232 15.21875 17.71125 15.4485 17.90625 15.5625 L 17.90625 14.34375 C 17.68525 14.27875 17.1875 14.15625 16.5625 14.15625 z M 21.625 14.15625 C 19.526 14.15625 18.8125 15.62425 18.8125 16.90625 C 18.8125 18.70425 20.2 19.40625 21.375 19.40625 C 22.033 19.40625 22.55825 19.29575 22.90625 19.09375 L 22.90625 17.875 C 22.53925 18.116 22.16625 18.21875 21.78125 18.21875 C 21.25725 18.21875 20.375 17.9845 20.375 16.8125 C 20.375 16.1705 20.6855 15.34375 21.8125 15.34375 C 22.2095 15.34375 22.58425 15.4465 22.90625 15.6875 L 22.90625 14.40625 C 22.64325 14.25025 22.215 14.15625 21.625 14.15625 z" overflow="visible" font-family="Bitstream Vera Sans" fill="#000000"/></svg>
