<?xml version="1.0" encoding="utf-8"?>
<svg xmlns="http://www.w3.org/2000/svg" viewBox="0 0 32 32" fill="#000000"><path style="text-indent:0;text-align:start;line-height:normal;text-transform:none;block-progression:tb;-inkscape-font-specification:Bitstream Vera Sans" d="M 10.5 3 C 9.6715729 3 9 3.6715729 9 4.5 C 9 5.3284271 9.6715729 6 10.5 6 C 10.696751 6 10.890339 5.9438664 11.0625 5.875 L 19.875 10 L 8 10 C 6.3550302 10 5 11.35503 5 13 L 5 26 L 5 27 L 6 27 L 26 27 L 27 27 L 27 26 L 27 13 C 27 11.708013 26.155736 10.605727 25 10.1875 L 11.9375 4.0625 C 11.753531 3.4421977 11.18 3 10.5 3 z M 8 12 L 24 12 C 24.56503 12 25 12.43497 25 13 L 25 25 L 7 25 L 7 13 C 7 12.43497 7.4349698 12 8 12 z M 19.5 14 C 17.026563 14 15 16.026563 15 18.5 C 15 20.973437 17.026563 23 19.5 23 C 21.973437 23 24 20.973437 24 18.5 C 24 16.026563 21.973437 14 19.5 14 z M 10.5 15 C 9.6715729 15 9 15.671573 9 16.5 C 9 17.328427 9.6715729 18 10.5 18 C 11.328427 18 12 17.328427 12 16.5 C 12 15.671573 11.328427 15 10.5 15 z M 19.5 16 C 20.328571 16 21.046523 16.389094 21.5 17 L 17.5 17 C 17.953477 16.389094 18.671429 16 19.5 16 z M 17.0625 18 L 21.9375 18 C 21.970501 18.163554 22 18.32593 22 18.5 C 22 18.67407 21.970501 18.836446 21.9375 19 L 17.0625 19 C 17.029499 18.836446 17 18.67407 17 18.5 C 17 18.32593 17.029499 18.163554 17.0625 18 z M 10.5 19 C 9.6715729 19 9 19.671573 9 20.5 C 9 21.328427 9.6715729 22 10.5 22 C 11.328427 22 12 21.328427 12 20.5 C 12 19.671573 11.328427 19 10.5 19 z M 17.5 20 L 21.5 20 C 21.046523 20.610906 20.328571 21 19.5 21 C 18.671429 21 17.953477 20.610906 17.5 20 z" overflow="visible" font-family="Bitstream Vera Sans" fill="#000000"/></svg>
