<?xml version="1.0" encoding="utf-8"?>
<svg xmlns="http://www.w3.org/2000/svg" viewBox="0 0 32 32" fill="#000000"><path style="text-indent:0;text-align:start;line-height:normal;text-transform:none;block-progression:tb;-inkscape-font-specification:Bitstream Vera Sans" d="M 5 5 L 5 6 L 5 26 L 5 27 L 6 27 L 26 27 L 27 27 L 27 26 L 27 6 L 27 5 L 26 5 L 6 5 L 5 5 z M 7 7 L 25 7 L 25 25 L 7 25 L 7 7 z M 11 10.0625 L 11 12.15625 L 16.9375 14 L 11 15.84375 L 11 17.9375 L 21 14.84375 L 21 13.15625 L 11 10.0625 z M 11 20 L 11 22 L 21 22 L 21 20 L 11 20 z" overflow="visible" font-family="Bitstream Vera Sans" fill="#000000"/></svg>
