<?xml version="1.0" encoding="utf-8"?>
<svg xmlns="http://www.w3.org/2000/svg" viewBox="0 0 32 32" fill="#000000"><path style="text-indent:0;text-align:start;line-height:normal;text-transform:none;block-progression:tb;-inkscape-font-specification:Sans" d="M 16 4 C 10.843264 4 6.7145118 7.979818 6.1875 13 L 4 13 L 3 13 L 3 14 L 3 18 L 3 19 L 4 19 L 4.09375 19 C 4.1835935 19.963986 4.4253495 21.520684 5.5 23.46875 C 7.0145052 26.21416 10.212558 29 16 29 C 21.787442 29 24.985495 26.21416 26.5 23.46875 C 27.574651 21.520684 27.816407 19.963986 27.90625 19 L 28 19 L 29 19 L 29 18 L 29 14 L 29 13 L 28 13 L 25.8125 13 C 25.285488 7.979818 21.156736 4 16 4 z M 16 6 C 20.430666 6 24 9.5693339 24 14 L 24 15 L 22 15 L 22 17 L 19 17 L 19 15 L 13 15 L 13 17 L 10 17 L 10 15 L 8 15 L 8 14 C 8 9.5693339 11.569334 6 16 6 z M 16 6 C 14.895431 6 14 6.4477153 14 7 C 14 7.5522847 14.895431 8 16 8 C 17.104569 8 18 7.5522847 18 7 C 18 6.4477153 17.104569 6 16 6 z M 11 9 C 11 9 10.541 15.242 15 12 L 11 9 z M 21 9 L 17 12 C 21.459 15.242 21 9 21 9 z M 5 15 L 7 15 L 7 18 L 9 18 L 9 22 L 13 22 L 13 19 L 19 19 L 19 22 L 23 22 L 23 18 L 25 18 L 25 15 L 27 15 L 27 17 L 26 17 L 26 18 C 26 18 25.9937 20.27666 24.75 22.53125 C 23.506255 24.78584 21.179558 27 16 27 C 10.820442 27 8.4937448 24.78584 7.25 22.53125 C 6.0062552 20.27666 6 18 6 18 L 6 17 L 5 17 L 5 15 z" overflow="visible" font-family="Sans" fill="#000000"/></svg>
