<?xml version="1.0" encoding="utf-8"?>
<svg xmlns="http://www.w3.org/2000/svg" viewBox="0 0 32 32" fill="#000000"><path style="text-indent:0;text-align:start;line-height:normal;text-transform:none;block-progression:tb;-inkscape-font-specification:Sans" d="M 8 6 C 8 16.706469 4.09375 25.0625 4.09375 25.0625 L 5.90625 25.9375 C 5.90625 25.9375 10 17.193531 10 6 L 8 6 z M 14 6 C 14 9.8841433 13.4677 13.458802 12.8125 16.4375 C 12.485 13.79475 11.85175 11.46175 11.34375 9.90625 C 11.19075 11.83625 10.934 13.6285 10.625 15.3125 C 11.091792 18.022843 11.269262 21.212009 10.5 24.09375 C 10.323317 24.519383 10.09375 25.0625 10.09375 25.0625 L 11.90625 25.9375 C 11.90625 25.9375 12.138711 25.36103 12.375 24.78125 C 13.391611 22.286797 16 15.082505 16 6 L 14 6 z M 20 6 C 20 9.8841433 19.4677 13.458802 18.8125 16.4375 C 18.485 13.79475 17.85175 11.46175 17.34375 9.90625 C 17.19075 11.83625 16.934 13.6285 16.625 15.3125 C 17.091792 18.022843 17.269262 21.212009 16.5 24.09375 C 16.323317 24.519383 16.09375 25.0625 16.09375 25.0625 L 17.90625 25.9375 C 17.90625 25.9375 22 17.193531 22 6 L 20 6 z M 26 6 C 26 9.8841433 25.4677 13.458802 24.8125 16.4375 C 24.485 13.79475 23.85175 11.46175 23.34375 9.90625 C 23.19075 11.83625 22.934 13.6285 22.625 15.3125 C 23.091792 18.022843 23.269262 21.212009 22.5 24.09375 C 22.323317 24.519383 22.09375 25.0625 22.09375 25.0625 L 23.90625 25.9375 C 23.90625 25.9375 28 17.193531 28 6 L 26 6 z" overflow="visible" font-family="Sans" fill="#000000"/></svg>
