<?xml version="1.0" encoding="utf-8"?>
<svg xmlns="http://www.w3.org/2000/svg" viewBox="0 0 32 32" fill="#000000"><path style="text-indent:0;text-align:start;line-height:normal;text-transform:none;block-progression:tb;-inkscape-font-specification:Sans" d="M 5 5 L 5 11 L 11 11 L 11 5 L 5 5 z M 13 7 L 13 9 L 27 9 L 27 7 L 13 7 z M 5 13 L 5 14 L 5 18 L 5 19 L 6 19 L 10 19 L 11 19 L 11 18 L 11 14 L 11 13 L 10 13 L 6 13 L 5 13 z M 7 15 L 9 15 L 9 17 L 7 17 L 7 15 z M 13 15 L 13 17 L 27 17 L 27 15 L 13 15 z M 5 21 L 5 27 L 11 27 L 11 21 L 5 21 z M 13 23 L 13 25 L 27 25 L 27 23 L 13 23 z" overflow="visible" font-family="Sans" fill="#000000"/></svg>
