<?xml version="1.0" encoding="utf-8"?>
<svg xmlns="http://www.w3.org/2000/svg" viewBox="0 0 32 32" fill="#000000"><path style="line-height:normal;text-indent:0;text-align:start;text-decoration-line:none;text-decoration-style:solid;text-decoration-color:#000;text-transform:none;block-progression:tb;isolation:auto;mix-blend-mode:normal" d="M 4.9042969 4 L 7.0859375 28 L 15.914062 28 L 15.996094 27.089844 L 16.105469 25.884766 C 17.531033 27.191073 19.420843 28 21.5 28 C 25.906438 28 29.5 24.406438 29.5 20 C 29.5 16.680603 27.460107 13.825334 24.570312 12.617188 C 24.97336 12.361054 25.355389 12.058674 25.707031 11.707031 C 27.169528 10.244535 27.830808 8.2738027 27.484375 6.3242188 L 27.363281 5.6367188 L 26.675781 5.515625 C 24.726197 5.1691916 22.755465 5.8304723 21.292969 7.2929688 C 19.931665 8.654272 19.27517 10.456431 19.46875 12.271484 C 18.677045 12.479638 17.932442 12.80382 17.255859 13.228516 L 18.095703 4 L 4.9042969 4 z M 7.0957031 6 L 15.904297 6 L 14.085938 26 L 8.9140625 26 L 7.0957031 6 z M 25.457031 7.5429688 C 25.414471 8.5287551 25.111217 9.4747201 24.292969 10.292969 C 23.47472 11.111217 22.528755 11.414467 21.542969 11.457031 C 21.585529 10.471245 21.888783 9.5252797 22.707031 8.7070312 C 23.52528 7.8887829 24.471245 7.5855328 25.457031 7.5429688 z M 21.5 14 C 24.825562 14 27.5 16.674438 27.5 20 C 27.5 23.325562 24.825562 26 21.5 26 C 19.308863 26 17.408743 24.829508 16.359375 23.085938 L 17.001953 16.029297 C 18.102709 14.784112 19.703358 14 21.5 14 z" font-weight="400" font-family="sans-serif" white-space="normal" overflow="visible" fill="#000000"/></svg>
