<?xml version="1.0" encoding="utf-8"?>
<svg xmlns="http://www.w3.org/2000/svg" viewBox="0 0 32 32" fill="#000000"><path style="text-indent:0;text-align:start;line-height:normal;text-transform:none;block-progression:tb;-inkscape-font-specification:Sans" d="M 17.1875 4 C 15.202635 4 13.368613 4.6726738 12.0625 5.90625 C 10.756387 7.1398262 10 8.9258855 10 11 C 10 12.68934 10.519874 14.002476 11 15.28125 C 10.528165 15.111979 10.027906 15 9.5 15 C 7.0265634 15 5 17.026563 5 19.5 C 5 21.973437 7.0265634 24 9.5 24 C 11.802479 24 13.683745 22.23795 13.9375 20 L 14 20 C 14 19.869668 14.003564 19.75136 14 19.625 C 14.001172 19.583074 14 19.542194 14 19.5 C 14 19.403972 13.974767 19.313338 13.96875 19.21875 C 13.968089 19.20836 13.969482 19.197872 13.96875 19.1875 C 13.956451 18.986125 13.926716 18.785105 13.90625 18.59375 C 13.738589 17.026155 13.333776 15.782356 12.9375 14.71875 C 12.429329 13.354819 12 12.30985 12 11 C 12 9.4071145 12.537863 8.1934238 13.4375 7.34375 C 14.337137 6.4940762 15.643365 6 17.1875 6 C 18.731635 6 19.87603 6.4796413 20.6875 7.3125 C 21.49897 8.1453587 22 9.3751174 22 11 C 22 12.469897 21.104899 14.150888 20.09375 16.15625 C 19.082601 18.161612 18 20.517493 18 23.34375 C 18 25.893678 19.939083 28 22.46875 28 C 23.71875 28 24.895389 27.520312 25.71875 26.625 C 26.542111 25.729688 27 24.453867 27 23 L 25 23 C 25 24.046133 24.691139 24.770312 24.25 25.25 C 23.808861 25.729688 23.21875 26 22.46875 26 C 20.998417 26 20 24.949822 20 23.34375 C 20 21.037007 20.917399 19.023638 21.90625 17.0625 C 22.895101 15.101362 24 13.197103 24 11 C 24 8.9578826 23.34328 7.1878913 22.125 5.9375 C 20.90672 4.6871087 19.172365 4 17.1875 4 z M 9.5 17 C 10.718487 17 11.70649 17.855124 11.9375 19 C 11.95197 19.071712 11.960451 19.144843 11.96875 19.21875 C 11.977882 19.352919 11.964199 19.484553 11.96875 19.625 C 11.901502 20.955049 10.84837 22 9.5 22 C 8.1074434 22 7 20.892557 7 19.5 C 7 18.107443 8.1074434 17 9.5 17 z" overflow="visible" font-family="Sans" fill="#000000"/></svg>
