<?xml version="1.0" encoding="utf-8"?>
<svg xmlns="http://www.w3.org/2000/svg" viewBox="0 0 32 32" fill="#000000"><path style="text-indent:0;text-align:start;line-height:normal;text-transform:none;block-progression:tb;-inkscape-font-specification:Sans" d="M 16 3 C 12.766001 3 11.042935 5.3065138 10.5625 6 L 6 6 C 4.9081449 6 4 6.9069156 4 8 L 4 12.53125 A 1.0043849 1.0043849 0 0 0 4 13.40625 L 4 25 C 4 26.091855 4.9069156 27 6 27 L 7 27 L 7 28 L 9 28 L 9 27 L 23 27 L 23 28 L 25 28 L 25 27 L 26 27 C 27.093063 27 28 26.093063 28 25 L 28 13.1875 A 1.0001 1.0001 0 0 0 28 12.78125 L 28 8 C 28 6.9069156 27.091855 6 26 6 L 21.40625 6 C 20.921292 5.3305227 19.139673 3 16 3 z M 16 5 C 16.94833 5 17.842632 5.4677207 18.5625 6 L 13.34375 6 C 14.047042 5.4658776 14.952361 5 16 5 z M 6 8 L 26 8 L 26 12 L 6 12 L 6 8 z M 8 9 C 7.4477153 9 7 9.4477153 7 10 C 7 10.552285 7.4477153 11 8 11 C 8.5522847 11 9 10.552285 9 10 C 9 9.4477153 8.5522847 9 8 9 z M 11 9 L 11 11 L 12 11 L 12 9 L 11 9 z M 14 9 L 14 11 L 15 11 L 15 9 L 14 9 z M 18 9 C 17.447715 9 17 9.4477153 17 10 C 17 10.552285 17.447715 11 18 11 C 18.552285 11 19 10.552285 19 10 C 19 9.4477153 18.552285 9 18 9 z M 21 9 C 20.447715 9 20 9.4477153 20 10 C 20 10.552285 20.447715 11 21 11 C 21.552285 11 22 10.552285 22 10 C 22 9.4477153 21.552285 9 21 9 z M 24 9 C 23.447715 9 23 9.4477153 23 10 C 23 10.552285 23.447715 11 24 11 C 24.552285 11 25 10.552285 25 10 C 25 9.4477153 24.552285 9 24 9 z M 6 14 L 26 14 L 26 25 L 6 25 L 6 14 z M 7.5 15 C 7.2238576 15 7 15.223858 7 15.5 C 7 15.776142 7.2238576 16 7.5 16 C 7.7761424 16 8 15.776142 8 15.5 C 8 15.223858 7.7761424 15 7.5 15 z M 9.5 15 C 9.2238576 15 9 15.223858 9 15.5 C 9 15.776142 9.2238576 16 9.5 16 C 9.7761424 16 10 15.776142 10 15.5 C 10 15.223858 9.7761424 15 9.5 15 z M 11.5 15 C 11.223858 15 11 15.223858 11 15.5 C 11 15.776142 11.223858 16 11.5 16 C 11.776142 16 12 15.776142 12 15.5 C 12 15.223858 11.776142 15 11.5 15 z M 13.5 15 C 13.223858 15 13 15.223858 13 15.5 C 13 15.776142 13.223858 16 13.5 16 C 13.776142 16 14 15.776142 14 15.5 C 14 15.223858 13.776142 15 13.5 15 z M 15.5 15 C 15.223858 15 15 15.223858 15 15.5 C 15 15.776142 15.223858 16 15.5 16 C 15.776142 16 16 15.776142 16 15.5 C 16 15.223858 15.776142 15 15.5 15 z M 17.5 15 C 17.223858 15 17 15.223858 17 15.5 C 17 15.776142 17.223858 16 17.5 16 C 17.776142 16 18 15.776142 18 15.5 C 18 15.223858 17.776142 15 17.5 15 z M 19.5 15 C 19.223858 15 19 15.223858 19 15.5 C 19 15.776142 19.223858 16 19.5 16 C 19.776142 16 20 15.776142 20 15.5 C 20 15.223858 19.776142 15 19.5 15 z M 21.5 15 C 21.223858 15 21 15.223858 21 15.5 C 21 15.776142 21.223858 16 21.5 16 C 21.776142 16 22 15.776142 22 15.5 C 22 15.223858 21.776142 15 21.5 15 z M 23.5 15 C 23.223858 15 23 15.223858 23 15.5 C 23 15.776142 23.223858 16 23.5 16 C 23.776142 16 24 15.776142 24 15.5 C 24 15.223858 23.776142 15 23.5 15 z M 8.5 17 C 8.2238576 17 8 17.223858 8 17.5 C 8 17.776142 8.2238576 18 8.5 18 C 8.7761424 18 9 17.776142 9 17.5 C 9 17.223858 8.7761424 17 8.5 17 z M 10.5 17 C 10.223858 17 10 17.223858 10 17.5 C 10 17.776142 10.223858 18 10.5 18 C 10.776142 18 11 17.776142 11 17.5 C 11 17.223858 10.776142 17 10.5 17 z M 12.5 17 C 12.223858 17 12 17.223858 12 17.5 C 12 17.776142 12.223858 18 12.5 18 C 12.776142 18 13 17.776142 13 17.5 C 13 17.223858 12.776142 17 12.5 17 z M 14.5 17 C 14.223858 17 14 17.223858 14 17.5 C 14 17.776142 14.223858 18 14.5 18 C 14.776142 18 15 17.776142 15 17.5 C 15 17.223858 14.776142 17 14.5 17 z M 16.5 17 C 16.223858 17 16 17.223858 16 17.5 C 16 17.776142 16.223858 18 16.5 18 C 16.776142 18 17 17.776142 17 17.5 C 17 17.223858 16.776142 17 16.5 17 z M 18.5 17 C 18.223858 17 18 17.223858 18 17.5 C 18 17.776142 18.223858 18 18.5 18 C 18.776142 18 19 17.776142 19 17.5 C 19 17.223858 18.776142 17 18.5 17 z M 20.5 17 C 20.223858 17 20 17.223858 20 17.5 C 20 17.776142 20.223858 18 20.5 18 C 20.776142 18 21 17.776142 21 17.5 C 21 17.223858 20.776142 17 20.5 17 z M 22.5 17 C 22.223858 17 22 17.223858 22 17.5 C 22 17.776142 22.223858 18 22.5 18 C 22.776142 18 23 17.776142 23 17.5 C 23 17.223858 22.776142 17 22.5 17 z M 24.5 17 C 24.223858 17 24 17.223858 24 17.5 C 24 17.776142 24.223858 18 24.5 18 C 24.776142 18 25 17.776142 25 17.5 C 25 17.223858 24.776142 17 24.5 17 z M 7.5 19 C 7.2238576 19 7 19.223858 7 19.5 C 7 19.776142 7.2238576 20 7.5 20 C 7.7761424 20 8 19.776142 8 19.5 C 8 19.223858 7.7761424 19 7.5 19 z M 9.5 19 C 9.2238576 19 9 19.223858 9 19.5 C 9 19.776142 9.2238576 20 9.5 20 C 9.7761424 20 10 19.776142 10 19.5 C 10 19.223858 9.7761424 19 9.5 19 z M 11.5 19 C 11.223858 19 11 19.223858 11 19.5 C 11 19.776142 11.223858 20 11.5 20 C 11.776142 20 12 19.776142 12 19.5 C 12 19.223858 11.776142 19 11.5 19 z M 13.5 19 C 13.223858 19 13 19.223858 13 19.5 C 13 19.776142 13.223858 20 13.5 20 C 13.776142 20 14 19.776142 14 19.5 C 14 19.223858 13.776142 19 13.5 19 z M 15.5 19 C 15.223858 19 15 19.223858 15 19.5 C 15 19.776142 15.223858 20 15.5 20 C 15.776142 20 16 19.776142 16 19.5 C 16 19.223858 15.776142 19 15.5 19 z M 17.5 19 C 17.223858 19 17 19.223858 17 19.5 C 17 19.776142 17.223858 20 17.5 20 C 17.776142 20 18 19.776142 18 19.5 C 18 19.223858 17.776142 19 17.5 19 z M 19.5 19 C 19.223858 19 19 19.223858 19 19.5 C 19 19.776142 19.223858 20 19.5 20 C 19.776142 20 20 19.776142 20 19.5 C 20 19.223858 19.776142 19 19.5 19 z M 21.5 19 C 21.223858 19 21 19.223858 21 19.5 C 21 19.776142 21.223858 20 21.5 20 C 21.776142 20 22 19.776142 22 19.5 C 22 19.223858 21.776142 19 21.5 19 z M 23.5 19 C 23.223858 19 23 19.223858 23 19.5 C 23 19.776142 23.223858 20 23.5 20 C 23.776142 20 24 19.776142 24 19.5 C 24 19.223858 23.776142 19 23.5 19 z M 8.5 21 C 8.2238576 21 8 21.223858 8 21.5 C 8 21.776142 8.2238576 22 8.5 22 C 8.7761424 22 9 21.776142 9 21.5 C 9 21.223858 8.7761424 21 8.5 21 z M 10.5 21 C 10.223858 21 10 21.223858 10 21.5 C 10 21.776142 10.223858 22 10.5 22 C 10.776142 22 11 21.776142 11 21.5 C 11 21.223858 10.776142 21 10.5 21 z M 12.5 21 C 12.223858 21 12 21.223858 12 21.5 C 12 21.776142 12.223858 22 12.5 22 C 12.776142 22 13 21.776142 13 21.5 C 13 21.223858 12.776142 21 12.5 21 z M 14.5 21 C 14.223858 21 14 21.223858 14 21.5 C 14 21.776142 14.223858 22 14.5 22 C 14.776142 22 15 21.776142 15 21.5 C 15 21.223858 14.776142 21 14.5 21 z M 16.5 21 C 16.223858 21 16 21.223858 16 21.5 C 16 21.776142 16.223858 22 16.5 22 C 16.776142 22 17 21.776142 17 21.5 C 17 21.223858 16.776142 21 16.5 21 z M 18.5 21 C 18.223858 21 18 21.223858 18 21.5 C 18 21.776142 18.223858 22 18.5 22 C 18.776142 22 19 21.776142 19 21.5 C 19 21.223858 18.776142 21 18.5 21 z M 20.5 21 C 20.223858 21 20 21.223858 20 21.5 C 20 21.776142 20.223858 22 20.5 22 C 20.776142 22 21 21.776142 21 21.5 C 21 21.223858 20.776142 21 20.5 21 z M 22.5 21 C 22.223858 21 22 21.223858 22 21.5 C 22 21.776142 22.223858 22 22.5 22 C 22.776142 22 23 21.776142 23 21.5 C 23 21.223858 22.776142 21 22.5 21 z M 24.5 21 C 24.223858 21 24 21.223858 24 21.5 C 24 21.776142 24.223858 22 24.5 22 C 24.776142 22 25 21.776142 25 21.5 C 25 21.223858 24.776142 21 24.5 21 z M 7.5 23 C 7.2238576 23 7 23.223858 7 23.5 C 7 23.776142 7.2238576 24 7.5 24 C 7.7761424 24 8 23.776142 8 23.5 C 8 23.223858 7.7761424 23 7.5 23 z M 9.5 23 C 9.2238576 23 9 23.223858 9 23.5 C 9 23.776142 9.2238576 24 9.5 24 C 9.7761424 24 10 23.776142 10 23.5 C 10 23.223858 9.7761424 23 9.5 23 z M 11.5 23 C 11.223858 23 11 23.223858 11 23.5 C 11 23.776142 11.223858 24 11.5 24 C 11.776142 24 12 23.776142 12 23.5 C 12 23.223858 11.776142 23 11.5 23 z M 13.5 23 C 13.223858 23 13 23.223858 13 23.5 C 13 23.776142 13.223858 24 13.5 24 C 13.776142 24 14 23.776142 14 23.5 C 14 23.223858 13.776142 23 13.5 23 z M 15.5 23 C 15.223858 23 15 23.223858 15 23.5 C 15 23.776142 15.223858 24 15.5 24 C 15.776142 24 16 23.776142 16 23.5 C 16 23.223858 15.776142 23 15.5 23 z M 17.5 23 C 17.223858 23 17 23.223858 17 23.5 C 17 23.776142 17.223858 24 17.5 24 C 17.776142 24 18 23.776142 18 23.5 C 18 23.223858 17.776142 23 17.5 23 z M 19.5 23 C 19.223858 23 19 23.223858 19 23.5 C 19 23.776142 19.223858 24 19.5 24 C 19.776142 24 20 23.776142 20 23.5 C 20 23.223858 19.776142 23 19.5 23 z M 21.5 23 C 21.223858 23 21 23.223858 21 23.5 C 21 23.776142 21.223858 24 21.5 24 C 21.776142 24 22 23.776142 22 23.5 C 22 23.223858 21.776142 23 21.5 23 z M 23.5 23 C 23.223858 23 23 23.223858 23 23.5 C 23 23.776142 23.223858 24 23.5 24 C 23.776142 24 24 23.776142 24 23.5 C 24 23.223858 23.776142 23 23.5 23 z" fill="#000000"/></svg>
