<?xml version="1.0" encoding="utf-8"?>
<svg xmlns="http://www.w3.org/2000/svg" viewBox="0 0 32 32" fill="#000000"><path style="text-indent:0;text-align:start;line-height:normal;text-transform:none;block-progression:tb;-inkscape-font-specification:Bitstream Vera Sans" d="M 14 3 L 14 5 L 15 5 L 15 6.0625 C 12.990144 6.2612449 11.171386 7.0357552 9.6875 8.25 L 8.9375 7.5 L 9.625 6.8125 L 8.21875 5.40625 L 5.40625 8.21875 L 6.8125 9.625 L 7.5 8.9375 L 8.25 9.6875 C 7.0357552 11.171386 6.2612449 12.990144 6.0625 15 L 5 15 L 5 14 L 3 14 L 3 18 L 5 18 L 5 17 L 6.0625 17 C 6.2627949 19.025531 7.0509896 20.853861 8.28125 22.34375 L 7.5 23.0625 L 6.8125 22.375 L 5.40625 23.78125 L 8.21875 26.59375 L 9.625 25.1875 L 8.9375 24.5 L 9.6875 23.71875 C 11.173972 24.939849 12.983426 25.738091 15 25.9375 L 15 27 L 14 27 L 14 29 L 18 29 L 18 27 L 17 27 L 17 25.9375 C 19.016574 25.738091 20.826028 24.939849 22.3125 23.71875 L 22.34375 23.71875 L 23.0625 24.5 L 22.375 25.1875 L 23.78125 26.59375 L 26.59375 23.78125 L 25.1875 22.375 L 24.5 23.0625 L 23.71875 22.34375 C 23.72419 22.337161 23.713326 22.319103 23.71875 22.3125 C 24.939849 20.826028 25.738091 19.016574 25.9375 17 L 27 17 L 27 18 L 29 18 L 29 14 L 27 14 L 27 15 L 25.9375 15 C 25.738755 12.990144 24.964245 11.171386 23.75 9.6875 L 24.5 8.9375 L 25.1875 9.625 L 26.59375 8.21875 L 23.78125 5.40625 L 22.375 6.8125 L 23.0625 7.5 L 22.3125 8.25 C 20.828614 7.0357552 19.009856 6.2612449 17 6.0625 L 17 5 L 18 5 L 18 3 L 14 3 z M 16 8 C 20.430123 8 24 11.569877 24 16 C 24 20.430123 20.430123 24 16 24 C 11.569877 24 8 20.430123 8 16 C 8 11.569877 11.569877 8 16 8 z M 13.5 10.15625 C 12.671573 10.15625 12 10.827823 12 11.65625 C 12 12.484677 12.671573 13.15625 13.5 13.15625 C 14.328427 13.15625 15 12.484677 15 11.65625 C 15 10.827823 14.328427 10.15625 13.5 10.15625 z M 18.5 10.15625 C 17.671573 10.15625 17 10.827823 17 11.65625 C 17 12.484677 17.671573 13.15625 18.5 13.15625 C 19.328427 13.15625 20 12.484677 20 11.65625 C 20 10.827823 19.328427 10.15625 18.5 10.15625 z M 11 14.5 C 10.171573 14.5 9.5 15.171573 9.5 16 C 9.5 16.828427 10.171573 17.5 11 17.5 C 11.828427 17.5 12.5 16.828427 12.5 16 C 12.5 15.171573 11.828427 14.5 11 14.5 z M 16 14.5 C 15.171573 14.5 14.5 15.171573 14.5 16 C 14.5 16.828427 15.171573 17.5 16 17.5 C 16.828427 17.5 17.5 16.828427 17.5 16 C 17.5 15.171573 16.828427 14.5 16 14.5 z M 21 14.5 C 20.171573 14.5 19.5 15.171573 19.5 16 C 19.5 16.828427 20.171573 17.5 21 17.5 C 21.828427 17.5 22.5 16.828427 22.5 16 C 22.5 15.171573 21.828427 14.5 21 14.5 z M 13.5 18.84375 C 12.671573 18.84375 12 19.515323 12 20.34375 C 12 21.172177 12.671573 21.84375 13.5 21.84375 C 14.328427 21.84375 15 21.172177 15 20.34375 C 15 19.515323 14.328427 18.84375 13.5 18.84375 z M 18.5 18.84375 C 17.671573 18.84375 17 19.515323 17 20.34375 C 17 21.172177 17.671573 21.84375 18.5 21.84375 C 19.328427 21.84375 20 21.172177 20 20.34375 C 20 19.515323 19.328427 18.84375 18.5 18.84375 z" fill="#000000"/></svg>
