<?xml version="1.0" encoding="utf-8"?>
<svg xmlns="http://www.w3.org/2000/svg" viewBox="0 0 32 32" fill="#000000"><path style="text-indent:0;text-align:start;line-height:normal;text-transform:none;block-progression:tb;-inkscape-font-specification:Bitstream Vera Sans" d="M 3.71875 2.28125 L 2.28125 3.71875 L 28.28125 29.71875 L 29.71875 28.28125 L 15.875 14.4375 L 17.46875 12.1875 L 18.28125 12.71875 L 19.875 15.09375 C 20.247 15.65175 20.86125 16 21.53125 16 L 26 16 L 26 14 L 21.53125 14 L 19.71875 11.28125 L 15.34375 8.34375 C 14.48175 7.76575 13.326 7.89525 12.625 8.65625 L 11.40625 9.96875 L 3.71875 2.28125 z M 21.21875 4 C 19.538339 4 18.15625 5.3826747 18.15625 7.0625 C 18.15625 8.7428509 19.538925 10.125 21.21875 10.125 C 22.900738 10.125 24.3125 8.74174 24.3125 7.0625 C 24.3125 5.38326 22.900738 4 21.21875 4 z M 21.21875 6 C 21.820762 6 22.3125 6.46374 22.3125 7.0625 C 22.3125 7.66126 21.820762 8.125 21.21875 8.125 C 20.620575 8.125 20.15625 7.6621491 20.15625 7.0625 C 20.15625 6.4643253 20.621161 6 21.21875 6 z M 14.21875 10 L 15.8125 11.0625 L 14.4375 13 L 12.84375 11.40625 L 14.09375 10.03125 C 14.12375 10.00025 14.18175 9.978 14.21875 10 z M 13.6875 17.875 L 11.59375 20 L 7 20 L 7 22 L 11.59375 22 C 12.11975 22 12.627 21.77925 13 21.40625 L 15.125 19.28125 L 13.6875 17.875 z M 17.21875 21.375 L 14.375 27 L 16.625 27 L 18.6875 22.875 L 17.21875 21.375 z" overflow="visible" font-family="Bitstream Vera Sans" fill="#000000"/></svg>
