<?xml version="1.0" encoding="utf-8"?>
<svg xmlns="http://www.w3.org/2000/svg" viewBox="0 0 32 32" fill="#000000"><path style="text-indent:0;text-align:start;line-height:normal;text-transform:none;block-progression:tb;-inkscape-font-specification:Sans" d="M 15 3 C 8.3844277 3 3 8.3844277 3 15 C 3 21.615572 8.3844277 27 15 27 C 17.941951 27 20.628993 25.920632 22.71875 24.15625 L 27.28125 28.71875 L 28.71875 27.28125 L 24.15625 22.71875 C 25.920632 20.628993 27 17.941951 27 15 C 27 8.3844277 21.615572 3 15 3 z M 15 5 C 17.405754 5 19.620976 5.841571 21.34375 7.25 L 19 9.59375 L 18.59375 10 L 7.25 21.34375 C 5.841571 19.620976 5 17.405754 5 15 C 5 9.4653079 9.4653079 5 15 5 z M 14 6 L 14 8 C 11.794 8 10 9.794 10 12 C 10 13.403 10.7175 14.62975 11.8125 15.34375 L 13.3125 13.875 C 12.5535 13.591 12 12.857 12 12 C 12 10.897 12.897 10 14 10 L 17.1875 10 L 19 8.1875 L 19 8 L 16 8 L 16 6 L 14 6 z M 22.75 8.65625 C 24.158429 10.379024 25 12.594246 25 15 C 25 20.534692 20.534692 25 15 25 C 12.594246 25 10.379024 24.158429 8.65625 22.75 L 11 20.40625 L 11.40625 20 L 22.75 8.65625 z M 18.1875 14.65625 L 16.6875 16.125 C 17.4465 16.409 18 17.143 18 18 C 18 19.103 17.103 20 16 20 L 12.8125 20 L 11 21.8125 L 11 22 L 14 22 L 14 24 L 16 24 L 16 22 C 18.206 22 20 20.206 20 18 C 20 16.597 19.2825 15.37025 18.1875 14.65625 z" overflow="visible" font-family="Sans" fill="#000000"/></svg>
