<?xml version="1.0" encoding="utf-8"?>
<svg xmlns="http://www.w3.org/2000/svg" viewBox="0 0 32 32" fill="#000000"><path style="text-indent:0;text-align:start;line-height:normal;text-transform:none;block-progression:tb;-inkscape-font-specification:Bitstream Vera Sans" d="M 9 5 L 9 6 L 9 12.5625 L 7.28125 14.28125 L 7 14.59375 L 7 15 L 7 26 L 7 27 L 8 27 L 24 27 L 25 27 L 25 26 L 25 6 L 25 5 L 24 5 L 10 5 L 9 5 z M 11 7 L 23 7 L 23 25 L 9 25 L 9 15.4375 L 10.71875 13.71875 L 11 13.40625 L 11 13 L 11 7 z M 13 9 L 13 13 L 15 13 L 15 9 L 13 9 z M 16 9 L 16 13 L 18 13 L 18 9 L 16 9 z M 19 9 L 19 13 L 21 13 L 21 9 L 19 9 z" overflow="visible" font-family="Bitstream Vera Sans" fill="#000000"/></svg>
