<?xml version="1.0" encoding="utf-8"?>
<svg xmlns="http://www.w3.org/2000/svg" viewBox="0 0 32 32" fill="#000000"><path style="text-indent:0;text-align:start;line-height:normal;text-transform:none;block-progression:tb;-inkscape-font-specification:Bitstream Vera Sans" d="M 10.8125 3.9375 L 10.46875 4.375 L 5.34375 10.84375 L 4.96875 11.3125 L 5.1875 11.84375 L 11.625 27.375 L 13.46875 26.625 L 7.28125 11.625 L 11.6875 6.0625 L 18.75 6.875 L 24.96875 21.875 L 26.8125 21.09375 L 20.375 5.5625 L 20.15625 5 L 19.5625 4.9375 L 11.375 4 L 10.8125 3.9375 z M 16.125 9.25 L 10.8125 11.4375 L 11.34375 12.75 L 14.625 11.375 L 14.625 11.40625 L 11.71875 13.6875 L 12.34375 15.21875 L 17.6875 13 L 17.15625 11.71875 L 13.875 13.0625 L 16.78125 10.78125 L 16.125 9.25 z M 18.1875 14.21875 L 12.875 16.4375 L 13.40625 17.71875 L 16.6875 16.375 L 13.78125 18.65625 L 14.40625 20.1875 L 19.75 18 L 19.21875 16.6875 L 15.9375 18.03125 L 18.84375 15.78125 L 18.1875 14.21875 z M 20.125 18.875 L 15.15625 22 L 15.8125 23.5 L 19.5625 22.5 L 16.1875 24.46875 L 16.8125 25.96875 L 22.53125 24.6875 L 21.96875 23.34375 L 18.125 24.5 L 18.125 24.46875 L 21.59375 22.40625 L 21.0625 21.15625 L 17.15625 22.1875 L 17.15625 22.15625 L 20.6875 20.21875 L 20.125 18.875 z" overflow="visible" font-family="Bitstream Vera Sans" fill="#000000"/></svg>
