<?xml version="1.0" encoding="utf-8"?>
<svg xmlns="http://www.w3.org/2000/svg" viewBox="0 0 32 32" fill="#000000"><path d="M 16 4 C 12.147275 4 9 7.1389673 9 11 C 9 14.485071 9.8842852 16.856142 10 17.15625 C 10.0041 17.21792 10.08394 18.469536 9.71875 19.71875 C 9.5317549 20.358414 9.2253192 20.94719 8.8125 21.34375 C 8.3996808 21.74031 7.900382 22 7 22 C 5.8362609 22 5 21.269303 5 20 C 5 19.343352 5.3347583 18.846347 5.84375 18.0625 C 6.3527417 17.278653 7 16.22823 7 14.78125 C 7 13.280182 6.162666 12.187308 5.28125 11.65625 C 4.399834 11.125192 3.5508816 11 3 11 L 3 13 C 3.1811184 13 3.814416 13.08131 4.25 13.34375 C 4.685584 13.606192 5 13.920318 5 14.78125 C 5 15.65327 4.6472583 16.212597 4.15625 16.96875 C 3.6652417 17.724903 3 18.671648 3 20 C 3 22.278697 4.8497391 24 7 24 C 8.345618 24 9.4604442 23.50969 10.21875 22.78125 C 10.977056 22.05281 11.404745 21.141586 11.65625 20.28125 C 12.15926 18.560578 12 16.90625 12 16.90625 L 11.96875 16.78125 L 11.9375 16.625 C 11.9375 16.625 11 14.333767 11 11 C 11 8.2170327 13.224725 6 16 6 C 18.775275 6 21 8.2170327 21 11 C 21 14.333767 20.0625 16.625 20.0625 16.625 L 20.03125 16.78125 L 20 16.90625 C 20 16.90625 19.84074 18.560578 20.34375 20.28125 C 20.595255 21.141586 21.022944 22.05281 21.78125 22.78125 C 22.539556 23.50969 23.654382 24 25 24 C 27.150261 24 29 22.278697 29 20 C 29 18.671648 28.334758 17.724903 27.84375 16.96875 C 27.352742 16.212597 27 15.65327 27 14.78125 C 27 13.920318 27.314416 13.606192 27.75 13.34375 C 28.185584 13.081308 28.818882 13 29 13 L 29 11 C 28.449118 11 27.600166 11.125192 26.71875 11.65625 C 25.837334 12.187308 25 13.280182 25 14.78125 C 25 16.22823 25.647258 17.278653 26.15625 18.0625 C 26.665242 18.846347 27 19.343352 27 20 C 27 21.269303 26.163739 22 25 22 C 24.099618 22 23.600319 21.74031 23.1875 21.34375 C 22.774681 20.94719 22.468245 20.358414 22.28125 19.71875 C 21.916063 18.469536 21.995924 17.217917 22 17.15625 C 22.115715 16.856142 23 14.485071 23 11 C 23 7.1389673 19.852725 4 16 4 z M 14 11 C 13.447715 11 13 11.447715 13 12 C 13 12.552285 13.447715 13 14 13 C 14.552285 13 15 12.552285 15 12 C 15 11.447715 14.552285 11 14 11 z M 18 11 C 17.447715 11 17 11.447715 17 12 C 17 12.552285 17.447715 13 18 13 C 18.552285 13 19 12.552285 19 12 C 19 11.447715 18.552285 11 18 11 z M 13 17.46875 L 13 18.78125 L 13 20.40625 C 13 23.725077 10.09871 26 7.15625 26 C 5.705303 26 3.9375 25.03125 3.9375 25.03125 L 2.9375 26.75 C 2.9375 26.75 4.909197 28 7.15625 28 C 11.13579 28 15 24.879423 15 20.40625 L 15 19.875 C 15.388597 19.930447 15.423264 20 16 20 C 16.576736 20 16.611403 19.93045 17 19.875 L 17 20.40625 C 17 24.879423 20.86421 28 24.84375 28 C 27.090803 28 29.0625 26.75 29.0625 26.75 L 28.0625 25.03125 C 28.0625 25.03125 26.294697 26 24.84375 26 C 21.90129 26 19 23.725077 19 20.40625 L 19 18.78125 L 19 17.46875 L 17.75 17.8125 C 17.75 17.8125 17.04632 18 16 18 C 14.95368 18 14.25 17.8125 14.25 17.8125 L 13 17.46875 z" fill="#000000"/></svg>
