<?xml version="1.0" encoding="utf-8"?>
<svg xmlns="http://www.w3.org/2000/svg" viewBox="0 0 32 32" fill="#000000"><path style="text-indent:0;text-align:start;line-height:normal;text-transform:none;block-progression:tb;-inkscape-font-specification:Sans" d="M 16 3 C 8.8321429 3 3 8.8321429 3 16 C 3 23.167857 8.8321429 29 16 29 C 23.167857 29 29 23.167857 29 16 C 29 8.8321429 23.167857 3 16 3 z M 14.875 5.0625 C 14.916024 5.0583495 14.958843 5.0662007 15 5.0625 L 15 8.0625 C 11.066799 8.5610167 8 11.935134 8 16 C 8 20.406433 11.593567 24 16 24 C 18.549121 24 20.814549 22.804413 22.28125 20.9375 L 24.875 22.46875 C 22.876632 25.207763 19.659465 27 16 27 C 9.9130231 27 5 22.086977 5 16 C 5 10.293459 9.3197247 5.624552 14.875 5.0625 z M 17 5.0625 C 22.614537 5.5673434 27 10.251319 27 16 C 27 17.717059 26.604211 19.334951 25.90625 20.78125 L 23.3125 19.25 C 23.759596 18.253629 24 17.159655 24 16 C 24 11.935134 20.933201 8.5610167 17 8.0625 L 17 5.0625 z M 16 10 C 19.325553 10 22 12.674447 22 16 C 22 19.325553 19.325553 22 16 22 C 12.674447 22 10 19.325553 10 16 C 10 12.674447 12.674447 10 16 10 z" overflow="visible" font-family="Sans" fill="#000000"/></svg>
