<?xml version="1.0" encoding="utf-8"?>
<svg xmlns="http://www.w3.org/2000/svg" viewBox="0 0 32 32" fill="#000000"><path style="text-indent:0;text-align:start;line-height:normal;text-transform:none;block-progression:tb;-inkscape-font-specification:Bitstream Vera Sans" d="M 21.5 3 C 19.578848 3 18 4.5788481 18 6.5 C 18 8.4211519 19.578848 10 21.5 10 C 23.421152 10 25 8.4211519 25 6.5 C 25 4.5788481 23.421152 3 21.5 3 z M 4.71875 3.28125 L 3.28125 4.71875 C 5.0443627 6.4818627 5.5803741 7.9012223 5.6875 9.375 C 5.7946259 10.848778 5.4074337 12.423047 5.0625 14.21875 C 4.7175663 16.014453 4.4357365 18.057874 5 20.34375 C 5.3428986 21.732859 6.0089637 23.197166 7.09375 24.75 L 5.6875 26.0625 L 7.0625 27.5 L 8.3125 26.3125 C 8.4725422 26.500166 8.6397995 26.684605 8.8125 26.875 L 7.5625 28.03125 L 8.9375 29.5 L 14.59375 24.21875 L 14.78125 24.03125 L 14.875 23.8125 L 16.5 19.1875 L 20.9375 14.125 L 21.09375 14.125 L 25.21875 14.375 L 25.53125 14.40625 L 25.8125 14.21875 L 29.53125 11.84375 L 28.46875 10.15625 L 25 12.34375 L 21.375 12.125 L 16.28125 9.90625 L 16.25 9.875 L 16.15625 9.84375 L 13.8125 8.34375 L 11.90625 3.4375 L 10.03125 4.15625 L 12.0625 9.375 L 12.1875 9.65625 L 12.46875 9.84375 L 14.84375 11.34375 L 11.84375 15.28125 C 11.093952 16.264267 10.622792 17.428582 10.46875 18.65625 L 10.03125 21.96875 L 8.5625 23.34375 C 7.7248298 22.070864 7.2315679 20.908446 6.96875 19.84375 C 6.505201 17.965876 6.7024337 16.305547 7.03125 14.59375 C 7.3600663 12.881953 7.8261866 11.157972 7.6875 9.25 C 7.5488134 7.3420277 6.7421373 5.3046373 4.71875 3.28125 z M 21.5 5 C 22.340272 5 23 5.6597281 23 6.5 C 23 7.3402719 22.340272 8 21.5 8 C 20.659728 8 20 7.3402719 20 6.5 C 20 5.6597281 20.659728 5 21.5 5 z M 16.65625 12.25 L 19.03125 13.3125 L 14.875 17.96875 L 14.75 18.125 L 14.6875 18.3125 L 13.03125 22.9375 L 10.25 25.53125 C 10.082411 25.345217 9.9340111 25.15031 9.78125 24.96875 L 11.6875 23.15625 L 11.9375 22.90625 L 12 22.5625 L 12.4375 18.90625 C 12.547458 18.029918 12.901298 17.202983 13.4375 16.5 L 16.65625 12.25 z" overflow="visible" font-family="Bitstream Vera Sans" fill="#000000"/></svg>
