<?xml version="1.0" encoding="utf-8"?>
<svg xmlns="http://www.w3.org/2000/svg" viewBox="0 0 32 32" fill="#000000"><path d="M 11 8 C 6.581722 8 3 11.581722 3 16 C 3 20.418278 6.581722 24 11 24 C 12.90149 24 14.658472 23.357973 16.03125 22.25 C 17.396874 23.334714 19.127266 24 21 24 C 25.406433 24 29 20.406433 29 16 C 29 11.593567 25.406433 8 21 8 C 19.127266 8 17.396874 8.6652862 16.03125 9.75 C 14.658472 8.6420267 12.90149 8 11 8 z M 21 10 C 24.325553 10 27 12.674447 27 16 C 27 19.325553 24.325553 22 21 22 C 19.645388 22 18.408049 21.531997 17.40625 20.78125 C 18.404443 19.446509 19 17.794925 19 16 C 19 14.205075 18.404443 12.553491 17.40625 11.21875 C 18.408049 10.468003 19.645388 10 21 10 z" fill="#000000"/></svg>
