<?xml version="1.0" encoding="utf-8"?>
<svg xmlns="http://www.w3.org/2000/svg" viewBox="0 0 32 32" fill="#000000"><path d="M 7 5 C 5.8954305 5 5 5.8954305 5 7 C 5 8.062336 5.8290105 8.935109 6.875 9 L 12.375 20 C 10.622301 21.064237 9.3987432 22.889698 9.09375 25 L 8 25 L 8 27 L 24 27 L 24 25 L 22.90625 25 C 22.601257 22.889698 21.377699 21.064237 19.625 20 L 25.125 9 C 26.170989 8.935109 27 8.062336 27 7 C 27 5.8954305 26.104569 5 25 5 C 23.895431 5 23 5.8954305 23 7 C 23 7.3992632 23.110924 7.7815498 23.3125 8.09375 L 17.75 19.25 C 17.186031 19.102567 16.60896 19 16 19 C 15.39104 19 14.813969 19.102567 14.25 19.25 L 8.6875 8.09375 C 8.8890763 7.7815498 9 7.3992632 9 7 C 9 5.8954305 8.1045695 5 7 5 z M 16 21 C 18.426958 21 20.442195 22.715726 20.90625 25 L 11.09375 25 C 11.557805 22.715726 13.573042 21 16 21 z" fill="#000000"/></svg>
