<?xml version="1.0" encoding="utf-8"?>
<svg xmlns="http://www.w3.org/2000/svg" viewBox="0 0 32 32" fill="#000000"><path style="text-indent:0;text-align:start;line-height:normal;text-transform:none;block-progression:tb;-inkscape-font-specification:Bitstream Vera Sans" d="M 16 4 C 13.250421 4 11 6.2504209 11 9 C 11 9.3780671 11.044459 9.7391099 11.125 10.09375 C 10.376911 10.20911 9.3212818 10.491218 8.46875 11.34375 C 7.05675 12.75475 7 15 7 15 C 7 15 9.24425 14.94325 10.65625 13.53125 C 11.254529 12.932547 11.564756 12.232504 11.75 11.59375 C 12.632496 13.023746 14.205714 14 16 14 C 18.749579 14 21 11.749579 21 9 C 21 6.2504209 18.749579 4 16 4 z M 16 6 C 17.668699 6 19 7.3313011 19 9 C 19 10.668699 17.668699 12 16 12 C 14.331301 12 13 10.668699 13 9 C 13 7.3313011 14.331301 6 16 6 z M 15.96875 15 C 11.02675 15 7 19.02675 7 23.96875 L 7 28 L 9 28 L 9 23.96875 C 9 20.12975 12.12975 17 15.96875 17 C 18.17975 17 20.28875 18.05975 21.59375 19.84375 L 24.5 23.84375 C 25.062 24.60875 25.15675 25.62575 24.71875 26.46875 L 23.90625 28 L 26.15625 28 L 26.5 27.375 C 27.29 25.852 27.138 24.03925 26.125 22.65625 L 23.1875 18.65625 C 21.5075 16.36025 18.81475 15 15.96875 15 z M 19.5 21 C 18.604 21.000125 17.71325 21.34925 17.03125 22.03125 C 16.47525 22.58525 16.12625 23.3015 16.03125 24.0625 C 14.97925 24.0265 13.896 24.44675 13.125 25.21875 L 12.0625 26.28125 C 11.5655 26.77925 11.27075 27.367 11.09375 28 L 13.25 28 C 13.323 27.888 13.402 27.7865 13.5 27.6875 L 14.5625 26.625 C 14.9385 26.249 15.4165 26.03125 15.9375 26.03125 C 16.1135 26.03125 16.29075 26.078 16.46875 26.125 L 17.03125 26.25 L 18.09375 25.1875 L 18.03125 24.71875 C 17.96525 24.24275 18.1065 23.7675 18.4375 23.4375 C 19.0215 22.8525 19.9785 22.8535 20.5625 23.4375 C 20.8455 23.7225 21 24.1 21 24.5 C 21 24.9 20.8455 25.2785 20.5625 25.5625 C 20.2325 25.8935 19.75425 26.03375 19.28125 25.96875 L 18.8125 25.90625 L 17.75 26.96875 L 17.875 27.53125 C 17.917 27.69025 17.9335 27.842 17.9375 28 L 19.9375 28 C 19.9375 27.988 19.9375 27.98075 19.9375 27.96875 C 20.6975 27.87475 21.41475 27.52275 21.96875 26.96875 C 22.63075 26.30675 23 25.435 23 24.5 C 23 23.565 22.62975 22.69225 21.96875 22.03125 C 21.28575 21.34875 20.396 20.999875 19.5 21 z" overflow="visible" font-family="Bitstream Vera Sans" fill="#000000"/></svg>
