<?xml version="1.0" encoding="utf-8"?>
<svg xmlns="http://www.w3.org/2000/svg" viewBox="0 0 32 32" fill="#000000"><path style="text-indent:0;text-align:start;line-height:normal;text-transform:none;block-progression:tb;-inkscape-font-specification:Bitstream Vera Sans" d="M 5 6 C 3.3550302 6 2 7.3550302 2 9 L 2 23 C 2 24.64497 3.3550302 26 5 26 L 27 26 C 28.64497 26 30 24.64497 30 23 L 30 9 C 30 7.3550302 28.64497 6 27 6 L 5 6 z M 5 8 L 27 8 C 27.56503 8 28 8.4349698 28 9 L 28 23 C 28 23.56503 27.56503 24 27 24 L 5 24 C 4.4349698 24 4 23.56503 4 23 L 4 9 C 4 8.4349698 4.4349698 8 5 8 z M 19.875 9.09375 C 19.055229 9.1634364 18.223418 9.5265819 17.59375 10.15625 C 16.596776 11.153224 16.221971 12.648659 16.71875 13.84375 L 16 14.5625 L 11.71875 10.28125 L 11 9.59375 L 10.28125 10.28125 C 8.7944337 11.768066 8.7944337 14.231934 10.28125 15.71875 L 12.5625 18 L 9.28125 21.28125 L 10.71875 22.71875 L 14 19.4375 L 14.28125 19.71875 L 15 20.40625 L 15.71875 19.71875 L 17 18.4375 L 21.28125 22.71875 L 22.71875 21.28125 L 17.4375 16 L 18.125 15.28125 C 19.325037 15.797284 20.838391 15.41161 21.84375 14.40625 C 23.103086 13.146914 23.367303 11.117302 22.125 9.875 C 21.503849 9.2538488 20.694771 9.0240636 19.875 9.09375 z M 19.96875 11.09375 C 20.27588 11.060225 20.558853 11.152603 20.71875 11.3125 C 21.038544 11.632294 21.063615 12.373885 20.4375 13 C 19.811384 13.626115 19.038545 13.632295 18.71875 13.3125 C 18.398955 12.992705 18.405134 12.219866 19.03125 11.59375 C 19.344307 11.280693 19.66162 11.127275 19.96875 11.09375 z M 11.28125 12.71875 L 15.5625 17 L 15 17.5625 L 11.71875 14.28125 C 11.277626 13.840126 11.184225 13.280679 11.28125 12.71875 z" overflow="visible" font-family="Bitstream Vera Sans" fill="#000000"/></svg>
