<?xml version="1.0" encoding="utf-8"?>
<svg xmlns="http://www.w3.org/2000/svg" viewBox="0 0 32 32" fill="#000000"><path style="text-indent:0;text-align:start;line-height:normal;text-transform:none;block-progression:tb;-inkscape-font-specification:Sans" d="M 5 5 L 5 6 L 5 26 L 5 27 L 6 27 L 26 27 L 27 27 L 27 26 L 27 6 L 27 5 L 26 5 L 6 5 L 5 5 z M 7 7 L 25 7 L 25 25 L 7 25 L 7 7 z M 10 11 L 10 12 L 10 20 L 10 21 L 11 21 L 13 21 C 14.64497 21 16 19.64497 16 18 C 16 17.2274 15.674972 16.534331 15.1875 16 C 15.674972 15.465669 16 14.7726 16 14 C 16 12.35503 14.64497 11 13 11 L 11 11 L 10 11 z M 12 13 L 13 13 C 13.56503 13 14 13.43497 14 14 C 14 14.56503 13.56503 15 13 15 L 12.34375 15 L 12 15 L 12 13 z M 17 13 L 17 21 L 19 21 L 19 17 C 19 15.883334 19.883334 15 21 15 L 22 15 L 22 13 L 21 13 C 20.267555 13 19.592593 13.214056 19 13.5625 L 19 13 L 17 13 z M 12 17 L 12.34375 17 L 13 17 C 13.56503 17 14 17.43497 14 18 C 14 18.56503 13.56503 19 13 19 L 12 19 L 12 17 z" overflow="visible" font-family="Sans" fill="#000000"/></svg>
