<?xml version="1.0" encoding="utf-8"?>
<svg xmlns="http://www.w3.org/2000/svg" viewBox="0 0 32 32" fill="#000000"><path d="M 9 5 L 9 6 L 9 14 L 8 14 C 6.3550302 14 5 15.35503 5 17 L 5 27 L 7 27 L 7 17 C 7 16.43497 7.4349698 16 8 16 L 24 16 C 24.56503 16 25 16.43497 25 17 L 25 27 L 27 27 L 27 17 C 27 15.35503 25.64497 14 24 14 L 23 14 L 23 6 L 23 5 L 22 5 L 10 5 L 9 5 z M 11 7 L 21 7 L 21 14 L 11 14 L 11 7 z M 13 9 L 13 11 L 15 11 L 15 9 L 13 9 z M 17 9 L 17 11 L 19 11 L 19 9 L 17 9 z" fill="#000000"/></svg>
