<?xml version="1.0" encoding="utf-8"?>
<svg xmlns="http://www.w3.org/2000/svg" viewBox="0 0 32 32" fill="#000000"><path style="text-indent:0;text-align:start;line-height:normal;text-transform:none;block-progression:tb;-inkscape-font-specification:Bitstream Vera Sans" d="M 16 3 C 13.802706 3 12 4.8027056 12 7 C 12 9.1972944 13.802706 11 16 11 C 18.197294 11 20 9.1972944 20 7 C 20 4.8027056 18.197294 3 16 3 z M 16 11 L 14.625 11 C 12.6275 11 10.818817 12.196505 10.03125 14.03125 L 8.28125 18.125 L 3.8125 19.03125 L 4.1875 20.96875 L 9.1875 19.96875 L 9.71875 19.875 L 9.90625 19.40625 L 11.875 14.8125 C 12.349433 13.707245 13.4225 13 14.625 13 L 17.375 13 C 18.578748 13 19.651533 13.707743 20.125 14.8125 L 22.09375 19.40625 L 22.28125 19.875 L 22.8125 19.96875 L 27.8125 20.96875 L 28.1875 19.03125 L 23.71875 18.125 L 21.96875 14.03125 C 21.182217 12.196007 19.373252 11 17.375 11 L 16 11 z M 16 5 C 17.116414 5 18 5.883586 18 7 C 18 8.116414 17.116414 9 16 9 C 14.883586 9 14 8.116414 14 7 C 14 5.883586 14.883586 5 16 5 z M 13 15.65625 L 11.03125 20.25 L 7.21875 21.3125 C 6.47275 21.5255 5.982 22.19275 6 22.96875 C 6.019 23.74375 6.5585 24.3845 7.3125 24.5625 L 9.4375 25.0625 L 13.8125 24.0625 L 8.96875 22.90625 L 13 21.75 L 13 15.65625 z M 19 15.65625 L 19 21 L 19 21.75 L 19.71875 21.96875 L 23.03125 22.90625 L 9.78125 26.03125 L 10.21875 27.96875 L 24.6875 24.5625 C 25.458756 24.381028 25.984114 23.649164 26 22.96875 C 26.015886 22.288336 25.542888 21.530435 24.78125 21.3125 L 20.96875 20.21875 L 19 15.65625 z M 22.1875 26.1875 L 18.1875 27.125 L 21.78125 27.96875 L 22.1875 26.1875 z M 6 30 L 6 32 L 26 32 L 26 30 L 6 30 z" overflow="visible" font-family="Bitstream Vera Sans" fill="#000000"/></svg>
