<?xml version="1.0" encoding="utf-8"?>
<svg xmlns="http://www.w3.org/2000/svg" viewBox="0 0 32 32" fill="#000000"><path style="text-indent:0;text-align:start;line-height:normal;text-transform:none;block-progression:tb;-inkscape-font-specification:Sans" d="M 15 3 C 12.630957 3 10.866103 4.1997144 9.71875 5.375 C 9.2144948 5.1444358 8.5648679 5 7.6875 5 C 5.8983707 5 4.5565688 6.0558246 3.875 7.28125 C 3.1934312 8.5066754 3 9.8918531 3 11 C 3 12.666627 3.69392 13.849482 4.0625 14.375 C 4.034682 14.579709 4 14.785049 4 15 C 4 17.234259 4.5633462 18.711707 5.1875 19.625 C 5.219155 19.67132 5.249384 19.67534 5.28125 19.71875 C 4.5468581 20.267917 4 21.021778 4 22 C 4 23.379122 5.0352706 24.374876 6.3125 24.71875 C 6.5689248 25.174718 8.8111327 29 14 29 C 19.504193 29 23.472505 23.984396 23.65625 23.75 C 23.912037 23.65594 24.390041 23.513571 25.125 22.90625 C 26.029831 22.158558 27 20.849731 27 19 C 27 17.27007 26.059082 16.136819 25.125 15.59375 L 27.25 13.90625 L 28.28125 13.0625 L 28.625 12.78125 L 29.5625 12 L 27.15625 9.0625 L 24.84375 10.9375 L 25.96875 12.34375 L 22.46875 15.125 C 22.096554 15.241493 21.597148 15.4451 21 15.84375 C 20.618556 15.607827 20.376243 15.274356 20.21875 14.6875 C 20.154589 14.44842 20.094693 14.187181 20.0625 13.90625 C 20.270553 13.883921 20.458566 13.884836 20.6875 13.84375 C 21.111396 13.76766 21.538475 13.647116 21.96875 13.4375 C 22.183888 13.332692 22.418572 13.196337 22.625 12.96875 C 22.831428 12.741163 23 12.386231 23 12 C 23 11.355477 22.575061 10.870856 22.1875 10.59375 C 21.975332 10.44205 21.765822 10.319255 21.53125 10.21875 C 21.804443 9.5822938 22 8.8379524 22 8 C 22 6.7963788 21.282914 5.6878987 20.09375 4.71875 C 18.904586 3.7496013 17.16154 3 15 3 z M 15 5 C 16.70946 5 17.969414 5.5628987 18.8125 6.25 C 19.655586 6.9371013 20 7.8286212 20 8 C 20 8.614599 19.807287 9.1752431 19.5625 9.65625 C 18.940423 9.5277861 18.280724 9.4248412 17.625 9.34375 C 17.06761 9.2748195 16.521999 9.2010444 16 9.15625 C 14.847929 8.9997562 13.706257 9 13 9 C 11.980333 9 9.9346101 9.2262843 7.96875 10.03125 C 6.98582 10.433733 6.0372291 10.968367 5.28125 11.78125 C 5.2211859 11.845835 5.1820036 11.931651 5.125 12 C 5.0611929 11.714582 5 11.385728 5 11 C 5 10.170147 5.1855688 9.0400746 5.625 8.25 C 6.0644312 7.4599254 6.6106293 7 7.6875 7 C 7.9962267 7 8.2145302 7.0340028 8.40625 7.0625 C 8.284414 7.2627273 8.125 7.53125 8.125 7.53125 L 7.65625 8.40625 L 9.40625 9.34375 L 9.875 8.46875 C 9.875 8.46875 11.817883 5 15 5 z M 12.96875 11 C 12.96875 11 13.515409 11.018164 14.34375 11.0625 C 14.735435 11.08309 15.12168 11.075583 15.53125 11.125 C 15.6101 11.131017 15.669399 11.149689 15.75 11.15625 C 15.984679 11.188593 16.218579 11.235612 16.4375 11.28125 C 17.013747 11.401381 17.492798 11.585567 17.75 11.75 C 18.007202 11.914433 18 11.922512 18 12 C 18 12.593598 18.02095 13.285248 18.09375 14 C 18.061016 13.995149 18.033585 14 18 14 C 17.447715 14 17 14.671573 17 15.5 C 17 16.328427 17.447715 17 18 17 C 18.322166 17 18.598362 16.761123 18.78125 16.40625 C 19.194632 17.081655 19.817546 17.649118 20.6875 17.9375 C 21.059413 18.064463 20.997908 18.14522 21.03125 18.34375 C 21.06203 18.527008 21.03645 18.692041 21.03125 18.71875 C 21.030816 18.72095 21.03125 18.75 21.03125 18.75 C 21.01424 18.79695 20.911828 18.99954 20.625 19.3125 C 20.309595 19.656641 19.881367 20 19 20 C 18.118633 20 17.690405 19.656641 17.375 19.3125 C 17.059595 18.968359 16.9375 18.6875 16.9375 18.6875 L 16 19 L 11 19 L 9.78125 19 L 10.03125 20.1875 C 10.03125 20.1875 10.242587 21.301979 10.78125 22.4375 C 11.050581 23.00526 11.393405 23.593718 11.90625 24.09375 C 12.419095 24.593782 13.146407 25 14 25 C 14.853593 25 15.59976 24.556313 16.03125 24 C 16.46274 23.443687 16.681162 22.804099 16.8125 22.21875 C 16.871029 21.957896 16.907949 21.712011 16.9375 21.46875 C 17.499694 21.771029 18.176507 22 19 22 C 20.452633 22 21.523905 21.343359 22.125 20.6875 C 22.726095 20.031641 22.9375 19.3125 22.9375 19.3125 L 22.96875 19.28125 L 22.96875 19.25 C 22.96875 19.25 23.114408 18.68122 23 18 C 22.952566 17.717562 22.823043 17.397352 22.625 17.09375 C 22.832083 17.02594 23.017796 17.00185 23.03125 17 C 23.032073 17.000016 23.06088 16.999959 23.0625 17 C 23.11743 17.0014 23.584594 17.01439 24.0625 17.25 C 24.568615 17.499515 25 17.807731 25 19 C 25 20.192269 24.470169 20.883192 23.875 21.375 C 23.279831 21.866808 22.6875 22.0625 22.6875 22.0625 L 22.40625 22.125 L 22.21875 22.375 C 22.21875 22.375 18.289092 27 14 27 C 9.576526 27 7.90625 23.53125 7.90625 23.53125 L 7.625 23 L 7 23 C 6.4349698 23 6 22.56503 6 22 C 6 21.43497 6.4349698 21 7 21 L 8 21 L 8 19 L 7.3125 19 C 7.2011684 18.914043 7.0004231 18.774978 6.8125 18.5 C 6.4366538 17.950043 6 16.912741 6 15 C 6 14.216204 6.2725416 13.669648 6.75 13.15625 C 7.2274584 12.642852 7.94618 12.204142 8.75 11.875 C 10.340199 11.223858 12.2628 11.004677 12.96875 11 z M 11.96875 12 C 11.96875 12 11.252516 12.02903 10.53125 12.40625 C 9.8099844 12.783472 9 13.696594 9 15 L 11 15 C 11 14.395406 11.190016 14.302028 11.46875 14.15625 C 11.733108 14.017991 11.971111 14.002771 12 14 C 12.0071 14 12.02407 13.999826 12.03125 14 C 12.512104 14.01168 13.057718 14.426908 13.5 14.96875 C 13.51079 14.981969 13.520703 14.986795 13.53125 15 L 12 15 L 12 17 L 16 17 L 16 15.21875 L 16.03125 15.21875 C 16.03125 15.21875 16.003162 15.162597 16 15.15625 L 16 15 L 15.90625 15 C 15.777285 14.757521 15.512397 14.276954 15.03125 13.6875 C 14.400631 12.914927 13.414035 12 12 12 L 11.96875 12 z M 12.375 21 L 14.90625 21 C 14.88915 21.314979 14.92825 21.404666 14.84375 21.78125 C 14.750713 22.195901 14.587729 22.556313 14.4375 22.75 C 14.287271 22.943687 14.248907 23 14 23 C 13.751093 23 13.568873 22.906218 13.3125 22.65625 C 13.056127 22.406282 12.767544 21.99474 12.5625 21.5625 C 12.430925 21.285135 12.461657 21.25404 12.375 21 z" fill="#000000"/></svg>
