<?xml version="1.0" encoding="utf-8"?>
<svg xmlns="http://www.w3.org/2000/svg" viewBox="0 0 32 32" fill="#000000"><path style="text-indent:0;text-align:start;line-height:normal;text-transform:none;block-progression:tb;-inkscape-font-specification:Bitstream Vera Sans" d="M 12 4 C 10.354545 4 9 5.3545455 9 7 L 9 12 L 11 12 L 11 7 C 11 6.4454545 11.445455 6 12 6 L 12 12 L 14 12 L 14 6 L 15 6 L 15 12 L 17 12 L 17 6 L 18 6 L 18 12 L 20 12 L 20 6 L 21.1875 6 C 21.073267 6.3157872 21 6.6469129 21 7 L 21 12 L 23 12 L 23 7 C 23 6.4454545 23.445455 6 24 6 L 25 6 L 29 6 L 29 4 L 25 4 L 24 4 L 12 4 z M 6 8 C 5.0560606 8 4.2463614 8.5765158 3.75 9.3125 C 3.2536386 10.048484 3 10.973529 3 12 C 3 13.026471 3.2536386 13.951516 3.75 14.6875 C 4.0562954 15.141662 4.4971571 15.515283 5 15.75 L 5 25 L 5 26 L 5 28 L 7 28 L 7 26 L 9 26 L 9 28 L 11 28 L 11 26 L 13 26 L 13 28 L 15 28 L 15 26 L 17 26 L 17 28 L 19 28 L 19 26 L 21 26 L 21 28 L 23 28 L 23 26 L 25 26 L 25 28 L 27 28 L 27 25 L 27 15.75 C 27.502843 15.515283 27.943705 15.141662 28.25 14.6875 C 28.746361 13.951516 29 13.026471 29 12 C 29 10.973529 28.746361 10.048484 28.25 9.3125 C 27.753639 8.5765158 26.943939 8 26 8 L 24 8 L 24 10 L 26 10 C 26.156061 10 26.365111 10.06723 26.59375 10.40625 C 26.822389 10.745266 27 11.326471 27 12 C 27 12.673529 26.822389 13.254734 26.59375 13.59375 C 26.365111 13.932766 26.156061 14 26 14 L 6 14 C 5.8439394 14 5.6348886 13.932766 5.40625 13.59375 C 5.1776114 13.254734 5 12.673529 5 12 C 5 11.326471 5.1776114 10.745266 5.40625 10.40625 C 5.6348886 10.067234 5.8439394 10 6 10 L 8 10 L 8 8 L 6 8 z M 7 16 L 8 16 L 8 22 L 8 23 L 9 23 L 23 23 L 24 23 L 24 22 L 24 16 L 25 16 L 25 24 L 7 24 L 7 16 z M 10 16 L 22 16 L 22 21 L 10 21 L 10 16 z" fill="#000000"/></svg>
