<?xml version="1.0" encoding="utf-8"?>
<svg xmlns="http://www.w3.org/2000/svg" viewBox="0 0 32 32" fill="#000000"><path style="text-indent:0;text-align:start;line-height:normal;text-transform:none;block-progression:tb;-inkscape-font-specification:Bitstream Vera Sans" d="M 9.5 8 C 7.5788481 8 6 9.5788479 6 11.5 C 6 12.569507 6.515971 13.512255 7.28125 14.15625 L 7.25 14.1875 L 13.1875 19 L 7.5 19 C 5.5788481 19 4 20.578848 4 22.5 C 4 24.421152 5.5788481 26 7.5 26 C 9.4211519 26 11 24.421152 11 22.5 C 11 21.954597 10.851204 21.461934 10.625 21 L 15.65625 21 L 16.6875 21 L 24 21 C 26.197334 21 28 19.197334 28 17 L 28 16 L 27 16 L 22.3125 16 L 25.71875 12.59375 L 26.40625 11.875 L 25.71875 11.1875 C 24.941795 10.410545 23.900826 10 22.875 10 C 21.849174 10 20.839455 10.410545 20.0625 11.1875 L 15.21875 16 L 12.6875 16 L 11 14.625 C 12.165202 14.054414 13 12.875749 13 11.5 C 13 9.578848 11.421152 8 9.5 8 z M 9.5 10 C 10.340272 10 11 10.659728 11 11.5 C 11 12.340272 10.340272 13 9.5 13 C 9.2111565 13 8.945462 12.917698 8.71875 12.78125 C 8.6477055 12.738491 8.5936828 12.678648 8.53125 12.625 C 8.2133326 12.351818 8 11.960914 8 11.5 C 8 10.659728 8.6597281 10 9.5 10 z M 22.8125 12.09375 C 22.972902 12.099175 23.120509 12.120082 23.28125 12.15625 L 19.46875 16 L 18.03125 16 L 21.46875 12.59375 C 21.849473 12.213027 22.331293 12.077476 22.8125 12.09375 z M 15.125 18 L 25.5625 18 C 25.210082 18.55689 24.717456 19 24 19 L 16.34375 19 L 15.125 18 z M 7.5 21 C 8.3402719 21 9 21.659728 9 22.5 C 9 23.340272 8.3402719 24 7.5 24 C 6.6597281 24 6 23.340272 6 22.5 C 6 21.659728 6.6597281 21 7.5 21 z" overflow="visible" font-family="Bitstream Vera Sans" fill="#000000"/></svg>
