<?xml version="1.0" encoding="utf-8"?>
<svg xmlns="http://www.w3.org/2000/svg" viewBox="0 0 32 32" fill="#000000"><path style="text-indent:0;text-align:start;line-height:normal;text-transform:none;block-progression:tb;-inkscape-font-specification:Sans" d="M 4 5 L 4 6 L 4 26 L 4 27 L 5 27 L 27 27 L 28 27 L 28 26 L 28 6 L 28 5 L 27 5 L 5 5 L 4 5 z M 6 7 L 17 7 L 17 25 L 6 25 L 6 7 z M 19 7 L 26 7 L 26 25 L 19 25 L 19 7 z M 21 9 C 20.447715 9 20 9.4477153 20 10 C 20 10.552285 20.447715 11 21 11 C 21.552285 11 22 10.552285 22 10 C 22 9.4477153 21.552285 9 21 9 z M 24 9 C 23.447715 9 23 9.4477153 23 10 C 23 10.552285 23.447715 11 24 11 C 24.552285 11 25 10.552285 25 10 C 25 9.4477153 24.552285 9 24 9 z M 20 12 L 20 14 L 25 14 L 25 12 L 20 12 z" overflow="visible" font-family="Sans" fill="#000000"/></svg>
