<?xml version="1.0" encoding="utf-8"?>
<svg xmlns="http://www.w3.org/2000/svg" viewBox="0 0 32 32" fill="#000000"><path style="text-indent:0;text-align:start;line-height:normal;text-transform:none;block-progression:tb;-inkscape-font-specification:Sans" d="M 22 4 C 18.691599 4 16 6.6915991 16 10 C 16 13.308401 18.691599 16 22 16 C 25.308401 16 28 13.308401 28 10 C 28 6.6915991 25.308401 4 22 4 z M 22 6 C 24.237599 6 26 7.7624009 26 10 C 26 12.237599 24.237599 14 22 14 C 19.762401 14 18 12.237599 18 10 C 18 7.7624009 19.762401 6 22 6 z M 9 12 C 5.6915991 12 3 14.691599 3 18 C 3 20.741864 4.8506024 23.071488 7.375 23.78125 L 23.1875 27.875 L 23.1875 27.90625 C 23.44404 27.976761 23.724394 28 24 28 C 25.644618 28 27 26.644618 27 25 C 27 24.060705 26.558337 23.208684 25.875 22.65625 L 25.6875 22.5 L 12.375 13.03125 C 11.41687 12.385292 10.240641 12 9 12 z M 9 14 C 9.839359 14 10.61213 14.257458 11.25 14.6875 L 24.5625 24.15625 L 24.71875 24.28125 C 24.896795 24.462659 25 24.715183 25 25 C 25 25.573382 24.573382 26 24 26 C 23.935348 26 23.874745 25.978137 23.8125 25.96875 L 7.90625 21.84375 C 7.89761 21.84135 7.883614 21.84625 7.875 21.84375 C 6.2087272 21.363208 5 19.8446 5 18 C 5 15.762401 6.7624009 14 9 14 z M 9 16 C 7.8954305 16 7 16.895431 7 18 C 7 19.104569 7.8954305 20 9 20 C 10.104569 20 11 19.104569 11 18 C 11 16.895431 10.104569 16 9 16 z" overflow="visible" font-family="Sans" fill="#000000"/></svg>
