<?xml version="1.0" encoding="utf-8"?>
<svg xmlns="http://www.w3.org/2000/svg" viewBox="0 0 32 32" fill="#000000"><path style="text-indent:0;text-align:start;line-height:normal;text-transform:none;block-progression:tb;-inkscape-font-specification:Sans" d="M 16 3 C 13.250421 3 11 5.2504209 11 8 C 11 9.5705843 11.764106 10.956536 12.90625 11.875 C 11.174195 12.929964 10 14.833309 10 17 L 10 20 L 10 20.40625 L 10.28125 20.71875 L 12 22.4375 L 12 23 L 12 24 L 12 29 L 14 29 L 14 24 L 18 24 L 18 29 L 20 29 L 20 24 L 20 23 L 20 22.4375 L 21.71875 20.71875 L 22 20.40625 L 22 20 L 22 17 C 22 14.833309 20.825805 12.929964 19.09375 11.875 C 20.235894 10.956536 21 9.5705843 21 8 C 21 5.2504209 18.749579 3 16 3 z M 16 5 C 17.668699 5 19 6.3313011 19 8 C 19 9.6686989 17.668699 11 16 11 C 14.331301 11 13 9.6686989 13 8 C 13 6.3313011 14.331301 5 16 5 z M 16 13 C 18.220375 13 20 14.779625 20 17 L 20 19.5625 L 19.5625 20 L 19 20 L 13 20 L 12.4375 20 L 12 19.5625 L 12 17 C 12 14.779625 13.779625 13 16 13 z" overflow="visible" font-family="Sans" fill="#000000"/></svg>
