<?xml version="1.0" encoding="utf-8"?>
<svg xmlns="http://www.w3.org/2000/svg" viewBox="0 0 32 32" fill="#000000"><path style="text-indent:0;text-align:start;line-height:normal;text-transform:none;block-progression:tb;-inkscape-font-specification:Bitstream Vera Sans" d="M 7 4 L 7 5 L 7 27 L 7 28 L 8 28 L 9 28 L 9 29 L 11 29 L 11 28 L 21 28 L 21 29 L 23 29 L 23 28 L 24 28 L 25 28 L 25 27 L 25 5 L 25 4 L 24 4 L 8 4 L 7 4 z M 9 6 L 23 6 L 23 13 L 9 13 L 9 6 z M 11 8 L 11 11 L 13 11 L 13 8 L 11 8 z M 9 15 L 23 15 L 23 26 L 9 26 L 9 15 z M 11 17 L 11 23 L 13 23 L 13 17 L 11 17 z" fill="#000000"/></svg>
