<?xml version="1.0" encoding="utf-8"?>
<svg xmlns="http://www.w3.org/2000/svg" viewBox="0 0 32 32" fill="#000000"><path style="text-indent:0;text-align:start;line-height:normal;text-transform:none;block-progression:tb;-inkscape-font-specification:Sans" d="M 17.5 4 C 16.671573 4 16 4.6715729 16 5.5 C 16 6.3284271 16.671573 7 17.5 7 C 18.328427 7 19 6.3284271 19 5.5 C 19 4.6715729 18.328427 4 17.5 4 z M 17.5 7 L 8.90625 7 C 6.7524623 7 4.96875 8.7068146 4.96875 10.84375 L 4.96875 10.875 L 4.96875 12.65625 C 3.4815259 14.34968 2 17.203001 2 21.28125 C 2 22.212967 2.4602859 23.053251 3.15625 23.8125 C 3.8522141 24.571749 4.8258896 25.292015 6.03125 25.90625 C 8.4419709 27.134721 11.829153 28 16 28 C 20.170847 28 23.558029 27.134721 25.96875 25.90625 C 27.17411 25.292015 28.147786 24.571749 28.84375 23.8125 C 29.539714 23.053251 30 22.212967 30 21.28125 C 30 17.325502 28.433441 14.482263 26.96875 12.78125 L 26.96875 10.84375 C 26.96875 8.7068146 25.154467 7 23 7 L 17.5 7 z M 8.90625 9 L 23 9 C 24.109533 9 24.96875 9.8246854 24.96875 10.84375 L 24.96875 10.875 L 24.96875 11.78125 C 24.918258 11.397873 24.79155 11.007127 24.53125 10.6875 C 24.184183 10.261331 23.587347 10 23 10 L 16 10 L 9 10 C 8.4126526 10 7.8158173 10.261331 7.46875 10.6875 C 7.1216827 11.113669 7 11.657233 7 12.15625 L 7 12.1875 C 7 12.266017 6.9737155 12.330723 6.96875 12.40625 L 6.96875 10.84375 C 6.96875 9.8246854 7.7980377 9 8.90625 9 z M 9.03125 12 L 16 12 L 22.96875 12 C 22.97198 12.00839 23 12.044832 23 12.15625 L 23 12.1875 C 23 13.069088 23.22351 13.821792 23.5625 14.5 C 23.220033 15.177014 23 15.93509 23 16.8125 L 23 16.84375 C 23 16.955168 22.97198 16.99161 22.96875 17 L 16 17 L 9.03125 17 C 9.0280204 16.99161 9 16.955168 9 16.84375 L 9 16.8125 C 9 15.936368 8.7775851 15.17976 8.4375 14.5 C 8.7764896 13.821792 9 13.069088 9 12.1875 L 9 12.15625 C 9 12.044832 9.0280204 12.00839 9.03125 12 z M 4.96875 16.375 L 4.96875 18.125 L 4.96875 18.15625 C 4.96875 20.293608 6.7524623 22 8.90625 22 L 14.5 22 L 23 22 C 25.154467 22 26.96875 20.293185 26.96875 18.15625 L 26.96875 16.46875 C 27.555649 17.754441 28 19.35417 28 21.28125 C 28 21.492033 27.857473 21.942405 27.375 22.46875 C 26.892527 22.995095 26.09989 23.56511 25.0625 24.09375 C 22.987721 25.151029 19.887153 26 16 26 C 12.112847 26 9.0122791 25.151029 6.9375 24.09375 C 5.9001104 23.56511 5.1074734 22.995095 4.625 22.46875 C 4.1425266 21.942405 4 21.492033 4 21.28125 C 4 19.278012 4.4074534 17.658823 4.96875 16.375 z M 14.5 22 C 13.671573 22 13 22.671573 13 23.5 C 13 24.328427 13.671573 25 14.5 25 C 15.328427 25 16 24.328427 16 23.5 C 16 22.671573 15.328427 22 14.5 22 z M 6.96875 16.59375 C 6.9737849 16.668718 7 16.734469 7 16.8125 L 7 16.84375 C 7 17.342767 7.1216827 17.886331 7.46875 18.3125 C 7.8158173 18.738669 8.4126526 19 9 19 L 16 19 L 23 19 C 23.587347 19 24.184183 18.738669 24.53125 18.3125 C 24.79155 17.992873 24.918258 17.602127 24.96875 17.21875 L 24.96875 18.125 L 24.96875 18.15625 C 24.96875 19.175315 24.109533 20 23 20 L 8.90625 20 C 7.7980377 20 6.96875 19.174892 6.96875 18.15625 L 6.96875 16.59375 z" overflow="visible" font-family="Sans" fill="#000000"/></svg>
