<?xml version="1.0" encoding="utf-8"?>
<svg xmlns="http://www.w3.org/2000/svg" viewBox="0 0 32 32" fill="#000000"><path style="text-indent:0;text-align:start;line-height:normal;text-transform:none;block-progression:tb;-inkscape-font-specification:Sans" d="M 9 5 L 5 9 L 8 9 L 8 13.09375 C 5.165217 13.568566 3 16.035015 3 19 C 3 22.301864 5.6981362 25 9 25 C 12.301864 25 15 22.301864 15 19 C 15 16.035015 12.834783 13.568566 10 13.09375 L 10 9 L 13 9 L 9 5 z M 23 5 L 19 9 L 22 9 L 22 13.09375 C 19.165217 13.568566 17 16.035015 17 19 C 17 22.301864 19.698136 25 23 25 C 26.301864 25 29 22.301864 29 19 C 29 16.035015 26.834783 13.568566 24 13.09375 L 24 9 L 27 9 L 23 5 z M 9 15 C 11.220984 15 13 16.779016 13 19 C 13 21.220984 11.220984 23 9 23 C 6.7790164 23 5 21.220984 5 19 C 5 16.779016 6.7790164 15 9 15 z M 23 15 C 25.220984 15 27 16.779016 27 19 C 27 21.220984 25.220984 23 23 23 C 20.779016 23 19 21.220984 19 19 C 19 16.779016 20.779016 15 23 15 z" overflow="visible" font-family="Sans" fill="#000000"/></svg>
