<?xml version="1.0" encoding="utf-8"?>
<svg xmlns="http://www.w3.org/2000/svg" viewBox="0 0 32 32" fill="#000000"><path style="text-indent:0;text-align:start;line-height:normal;text-transform:none;block-progression:tb;-inkscape-font-specification:Sans" d="M 16 2 C 13.802706 2 12 3.8027056 12 6 C 12 7.1298082 12.488212 8.145257 13.25 8.875 C 13.011643 9.0452545 12.79387 9.2254836 12.59375 9.4375 C 11.75245 10.328813 11.230583 11.514338 11 12.8125 L 11.03125 12.8125 L 9.03125 22.8125 L 8.78125 24 L 10 24 L 13 24 L 13 30 L 15 30 L 15 24 L 17 24 L 17 30 L 19 30 L 19 24 L 22 24 L 23.21875 24 L 22.96875 22.8125 L 20.96875 12.8125 C 20.739702 11.578727 20.23894 10.402209 19.40625 9.5 C 19.198078 9.2744476 18.969138 9.0579161 18.71875 8.875 C 19.490532 8.1442659 20 7.1382662 20 6 C 20 3.8027056 18.197294 2 16 2 z M 16 4 C 17.116414 4 18 4.883586 18 6 C 18 7.116414 17.116414 8 16 8 C 14.883586 8 14 7.116414 14 6 C 14 4.883586 14.883586 4 16 4 z M 16 10 C 16.826848 10 17.42269 10.317209 17.9375 10.875 C 18.45231 11.432791 18.859298 12.261273 19.03125 13.1875 L 20.78125 22 L 19 22 L 17 22 L 15 22 L 14 22 L 13 22 L 11.21875 22 L 12.96875 13.1875 L 13 13.1875 C 13.177417 12.188662 13.55805 11.346937 14.0625 10.8125 C 14.56695 10.278063 15.152479 10 16 10 z" overflow="visible" font-family="Sans" fill="#000000"/></svg>
