<?xml version="1.0" encoding="utf-8"?>
<svg xmlns="http://www.w3.org/2000/svg" viewBox="0 0 32 32" fill="#000000"><path style="text-indent:0;text-align:start;line-height:normal;text-transform:none;block-progression:tb;-inkscape-font-specification:Bitstream Vera Sans" d="M 12 4 L 10 6 L 12 8 L 14 6 L 12 4 z M 14 6 L 16 8 L 18 6 L 16 4 L 14 6 z M 18 6 L 20 8 L 22 6 L 20 4 L 18 6 z M 20 8 L 16 8 L 12 8 L 6 8 L 5 8 L 5 9 L 5 27 L 5 28 L 6 28 L 26 28 L 27 28 L 27 27 L 27 9 L 27 8 L 26 8 L 20 8 z M 7 10 L 25 10 L 25 26 L 19 26 L 19 22 L 19 21 L 18 21 L 14 21 L 13 21 L 13 22 L 13 26 L 7 26 L 7 10 z M 9 12 L 9 14 L 11 14 L 11 12 L 9 12 z M 13 12 L 13 14 L 15 14 L 15 12 L 13 12 z M 17 12 L 17 14 L 19 14 L 19 12 L 17 12 z M 21 12 L 21 14 L 23 14 L 23 12 L 21 12 z M 9 15 L 9 17 L 11 17 L 11 15 L 9 15 z M 13 15 L 13 17 L 15 17 L 15 15 L 13 15 z M 17 15 L 17 17 L 19 17 L 19 15 L 17 15 z M 21 15 L 21 17 L 23 17 L 23 15 L 21 15 z M 9 18 L 9 20 L 11 20 L 11 18 L 9 18 z M 13 18 L 13 20 L 15 20 L 15 18 L 13 18 z M 17 18 L 17 20 L 19 20 L 19 18 L 17 18 z M 21 18 L 21 20 L 23 20 L 23 18 L 21 18 z M 9 21 L 9 23 L 11 23 L 11 21 L 9 21 z M 21 21 L 21 23 L 23 23 L 23 21 L 21 21 z M 15 23 L 17 23 L 17 26 L 15 26 L 15 23 z" fill="#000000"/></svg>
