<?xml version="1.0" encoding="utf-8"?>
<svg xmlns="http://www.w3.org/2000/svg" viewBox="0 0 32 32" fill="#000000"><path style="text-indent:0;text-align:start;line-height:normal;text-transform:none;block-progression:tb;-inkscape-font-specification:Bitstream Vera Sans" d="M 7 5 C 3.6981362 5 1 7.6981362 1 11 C 1 12.213852 1.3747577 13.334644 2 14.28125 L 2 25 L 2 26 L 3 26 L 5.15625 26 C 5.6033156 27.719842 7.1468019 29 9 29 C 10.853198 29 12.396684 27.719842 12.84375 26 L 20.15625 26 C 20.603316 27.719842 22.146802 29 24 29 C 25.853198 29 27.396684 27.719842 27.84375 26 L 30 26 L 31 26 L 31 25 L 31 16 L 31 15.59375 L 30.71875 15.28125 L 24.71875 9.28125 L 24.40625 9 L 24 9 L 19 9 L 19 7 L 19 6 L 18 6 L 10.28125 6 C 9.3346437 5.3747577 8.2138524 5 7 5 z M 7 7 C 9.2209836 7 11 8.7790164 11 11 C 11 13.220984 9.2209836 15 7 15 C 4.7790164 15 3 13.220984 3 11 C 3 8.7790164 4.7790164 7 7 7 z M 6 8 L 6 11 L 6 11.40625 L 6.28125 11.71875 L 7.71875 13.125 L 9.125 11.71875 L 8 10.5625 L 8 8 L 6 8 z M 12.1875 8 L 17 8 L 17 10 L 17 24 L 12.84375 24 C 12.396684 22.280158 10.853198 21 9 21 C 7.1468019 21 5.6033156 22.280158 5.15625 24 L 4 24 L 4 16.1875 C 4.8861444 16.705111 5.9044026 17 7 17 C 10.301864 17 13 14.301864 13 11 C 13 9.9044026 12.705111 8.8861444 12.1875 8 z M 19 11 L 23.5625 11 L 29 16.4375 L 29 24 L 27.84375 24 C 27.396684 22.280158 25.853198 21 24 21 C 22.146802 21 20.603316 22.280158 20.15625 24 L 19 24 L 19 11 z M 9 23 C 10.116414 23 11 23.883586 11 25 C 11 26.116414 10.116414 27 9 27 C 7.883586 27 7 26.116414 7 25 C 7 23.883586 7.883586 23 9 23 z M 24 23 C 25.116414 23 26 23.883586 26 25 C 26 26.116414 25.116414 27 24 27 C 22.883586 27 22 26.116414 22 25 C 22 23.883586 22.883586 23 24 23 z" fill="#000000"/></svg>
