<?xml version="1.0" encoding="utf-8"?>
<svg xmlns="http://www.w3.org/2000/svg" viewBox="0 0 32 32" fill="#000000"><path style="text-indent:0;text-align:start;line-height:normal;text-transform:none;block-progression:tb;-inkscape-font-specification:Bitstream Vera Sans" d="M 6.21875 6 L 6.03125 6.75 L 3.03125 18.75 L 3 18.875 L 3 19 L 3 25 L 3 26 L 4 26 L 28 26 L 29 26 L 29 25 L 29 19 L 29 18.875 L 28.96875 18.75 L 25.96875 6.75 L 25.78125 6 L 25 6 L 7 6 L 6.21875 6 z M 7.78125 8 L 24.21875 8 L 26.71875 18 L 5.28125 18 L 7.78125 8 z M 16 9 C 14.35499 9 13 10.35499 13 12 C 13 12.679776 13.237385 13.306924 13.625 13.8125 C 12.651388 14.54439 12 15.697447 12 17 L 14 17 C 14 15.883334 14.883334 15 16 15 C 17.116666 15 18 15.883334 18 17 L 20 17 C 20 15.697447 19.348612 14.54439 18.375 13.8125 C 18.762615 13.306924 19 12.679776 19 12 C 19 10.35499 17.64501 9 16 9 z M 16 11 C 16.564128 11 17 11.435872 17 12 C 17 12.564128 16.564128 13 16 13 C 15.435872 13 15 12.564128 15 12 C 15 11.435872 15.435872 11 16 11 z M 5 20 L 27 20 L 27 24 L 5 24 L 5 20 z M 24 21 C 23.447715 21 23 21.447715 23 22 C 23 22.552285 23.447715 23 24 23 C 24.552285 23 25 22.552285 25 22 C 25 21.447715 24.552285 21 24 21 z" overflow="visible" font-family="Bitstream Vera Sans" fill="#000000"/></svg>
