<?xml version="1.0" encoding="utf-8"?>
<svg xmlns="http://www.w3.org/2000/svg" viewBox="0 0 32 32" fill="#000000"><path style="text-indent:0;text-align:start;line-height:normal;text-transform:none;block-progression:tb;-inkscape-font-specification:Sans" d="M 9.09375 3 C 8.3837192 3 7.8491147 3.4392219 7.46875 4 L 7 4 C 5.9069372 4 5 4.9069372 5 6 L 5 8 L 5 9 L 6 9 L 6 11.6875 A 1.001098 1.001098 0 0 0 6 12.28125 L 6 23.6875 A 1.001098 1.001098 0 0 0 6 24.28125 L 6 27 C 6 28.093063 6.9069372 29 8 29 L 24 29 C 25.093063 29 26 28.093063 26 27 L 26 24.1875 A 1.0001 1.0001 0 0 0 26 23.78125 L 26 12.1875 A 1.0001 1.0001 0 0 0 26 11.78125 L 26 9 L 27 9 L 27 8 L 27 6 C 27 4.9069372 26.093063 4 25 4 L 24.53125 4 C 24.151138 3.4385633 23.616214 3 22.90625 3 L 9.09375 3 z M 9.03125 5 C 9.0471363 4.9905699 9.0676988 5 9.09375 5 L 22.90625 5 C 22.95645 5 22.96096 5.015497 22.96875 5.0625 L 23 5.15625 L 23.03125 5.21875 L 23.0625 5.3125 L 23.28125 6 L 24 6 L 25 6 L 25 7 L 7 7 L 7 6 L 8 6 L 8.71875 6 L 8.9375 5.3125 L 8.96875 5.21875 L 9 5.15625 L 9 5.0625 C 9.0041535 5.0377203 9.0153637 5.0094301 9.03125 5 z M 8 9 L 24 9 L 24 11 L 8 11 L 8 9 z M 8 13 L 24 13 L 24 23 L 8 23 L 8 13 z M 13 14 L 13 15.5 L 13 16.90625 L 13 19 L 14 19 L 14 17 L 14.15625 17 L 16.40625 20.03125 L 15 22 L 16.15625 22 L 17 20.84375 L 17.84375 22 L 19 22 L 17.5625 20.03125 L 19 18 L 17.84375 18 L 16.96875 19.21875 L 15.3125 17 L 15.5 17 C 16.325 17 17 16.325 17 15.5 C 17 14.675 16.325 14 15.5 14 L 13 14 z M 14 15 L 15.5 15 C 15.771 15 16 15.229 16 15.5 C 16 15.771 15.771 16 15.5 16 L 14 16 L 14 15 z M 8 25 L 24 25 L 24 27 L 8 27 L 8 25 z" overflow="visible" font-family="Sans" fill="#000000"/></svg>
