<?xml version="1.0" encoding="utf-8"?>
<svg xmlns="http://www.w3.org/2000/svg" viewBox="0 0 32 32" fill="#000000"><path d="M 14.5 10 C 12.236 10 10.713266 11.765812 10.197266 12.757812 L 7.5175781 18.445312 L 3.8105469 10.771484 C 3.4075469 10.046484 2.4934844 9.7894531 1.7714844 10.189453 C 1.0464844 10.591453 0.7855 11.503516 1.1875 12.228516 L 6.1875 22.228516 C 6.4515 22.701516 6.9482344 22.997 7.4902344 23 C 8.0162344 23.005 8.5327344 22.714141 8.8027344 22.244141 L 12.830078 14.193359 C 12.837078 14.181359 13.497 13 14.5 13 C 15.715 13 15.963 13.991 16 14.5 L 16 21.5 C 16 21.8105 16.09407 22.098477 16.255859 22.337891 C 16.255859 22.337891 16.255859 22.339844 16.255859 22.339844 C 16.309789 22.419639 16.371578 22.492703 16.439453 22.560547 C 16.643078 22.764172 16.904414 22.908773 17.197266 22.96875 C 17.294883 22.988717 17.3965 23 17.5 23 C 17.6035 23 17.705117 22.988717 17.802734 22.96875 C 18.192693 22.888886 18.528392 22.656465 18.744141 22.337891 C 18.79807 22.258086 18.844844 22.173703 18.882812 22.083984 C 18.95875 21.9045 19 21.70725 19 21.5 L 19 14.5 C 19 13.673 19.673 13 20.5 13 C 21.327 13 22 13.673 22 14.5 L 22 21.5 C 22 22.329 22.672 23 23.5 23 C 23.6035 23 23.705117 22.988717 23.802734 22.96875 C 24.193203 22.888781 24.528422 22.657109 24.744141 22.337891 C 24.797664 22.258502 24.845068 22.173197 24.882812 22.083984 C 24.95875 21.904547 25 21.707 25 21.5 L 25 14.5 C 25 13.673 25.673 13 26.5 13 C 27.327 13 28 13.673 28 14.5 L 28 21.5 C 28 22.328 28.672 23 29.5 23 C 30.328 23 31 22.329 31 21.5 L 31 16 L 31 14.5 C 31 12.019 28.981 10 26.5 10 C 25.343133 10 24.298109 10.451761 23.5 11.171875 C 22.701891 10.451761 21.656867 10 20.5 10 C 19.349594 10 18.310188 10.447191 17.513672 11.160156 C 16.803028 10.48325 15.828381 10 14.5 10 z" fill="#000000"/></svg>
