<?xml version="1.0" encoding="utf-8"?>
<svg xmlns="http://www.w3.org/2000/svg" viewBox="0 0 32 32" fill="#000000"><path style="text-indent:0;text-align:start;line-height:normal;text-transform:none;block-progression:tb;-inkscape-font-specification:Sans" d="M 9 4 L 9 5 L 6 5 L 5 5 L 5 6 L 5 26 L 5 27 L 6 27 L 26 27 L 27 27 L 27 26 L 27 6 L 27 5 L 26 5 L 23 5 L 23 4 L 21 4 L 21 5 L 11 5 L 11 4 L 9 4 z M 7 7 L 9 7 L 9 8 L 11 8 L 11 7 L 21 7 L 21 8 L 23 8 L 23 7 L 25 7 L 25 9 L 7 9 L 7 7 z M 7 11 L 25 11 L 25 25 L 7 25 L 7 11 z M 16.5 14 C 15.130937 14 14 15.130937 14 16.5 C 14 17.869063 15.130937 19 16.5 19 C 16.671133 19 16.838052 18.971098 17 18.9375 L 17 19.5 C 17 19.786937 16.786937 20 16.5 20 C 16.213063 20 16 19.786937 16 19.5 L 14 19.5 C 14 20.869063 15.130937 22 16.5 22 C 17.869063 22 19 20.869063 19 19.5 L 19 16.5 C 19 15.130937 17.869063 14 16.5 14 z M 16.5 16 C 16.786937 16 17 16.213063 17 16.5 C 17 16.786937 16.786937 17 16.5 17 C 16.213063 17 16 16.786937 16 16.5 C 16 16.213063 16.213063 16 16.5 16 z" overflow="visible" font-family="Sans" fill="#000000"/></svg>
