<?xml version="1.0" encoding="utf-8"?>
<svg xmlns="http://www.w3.org/2000/svg" viewBox="0 0 32 32" fill="#000000"><path style="text-indent:0;text-align:start;line-height:normal;text-transform:none;block-progression:tb;-inkscape-font-specification:Sans" d="M 16 3.90625 L 15.59375 4.09375 L 4.59375 9.09375 L 4 9.34375 L 4 10 L 4 12 L 4 13 L 5 13 L 7 13 L 7 24 L 5 24 L 5 26 L 4 26 L 4 28 L 19 28 L 25 28 L 28 28 L 28 26 L 27 26 L 27 24 L 25 24 L 25 13 L 27 13 L 28 13 L 28 12 L 28 10 L 28 9.34375 L 27.40625 9.09375 L 16.40625 4.09375 L 16 3.90625 z M 16 6.09375 L 26 10.625 L 26 11 L 17 11 L 11 11 L 6 11 L 6 10.625 L 16 6.09375 z M 9 13 L 11 13 L 11 24 L 9 24 L 9 13 z M 13 13 L 15 13 L 15 24 L 13 24 L 13 13 z M 17 13 L 19 13 L 19 24 L 17 24 L 17 13 z M 21 13 L 23 13 L 23 24 L 21 24 L 21 13 z" fill="#000000"/></svg>
