<?xml version="1.0" encoding="utf-8"?>
<svg xmlns="http://www.w3.org/2000/svg" viewBox="0 0 32 32" fill="#000000"><path style="text-indent:0;text-align:start;line-height:normal;text-transform:none;block-progression:tb;-inkscape-font-specification:Sans" d="M 18 5 C 18 5 14.3125 7.8 14.8125 14 L 17.3125 14 C 16.7125 11.2 18 5 18 5 z M 23 5 C 23 5 17.59375 6.5 17.59375 14 L 20 14 C 20 8.1 23 5 23 5 z M 13 6 C 13 6 13.4 6.9875 13.5 8.1875 C 14.1 8.7875 14.3125 9.3125 14.3125 9.3125 C 14.3125 9.3125 14.4125 8.60625 14.8125 7.90625 C 14.5125 7.00625 13.6 6.2 13 6 z M 9 6.6875 C 9 6.6875 12 8.1 12 14 L 14.3125 14 C 14.3125 6.8 9 6.6875 9 6.6875 z M 25 7 C 22.9 7.3 20.7 10.6 20.5 14 L 23 14 C 23 10.2 25 7 25 7 z M 6 8 C 6 8 9 10.2 9 14 L 11.5 14 C 10.4 9.8 8.1 8.3 6 8 z M 9 15 L 9 17 L 23 17 L 23 15 L 9 15 z M 9 18 C 9 19.99539 7.9911543 21.17677 6.90625 21.96875 C 5.8213457 22.76073 4.75 23.03125 4.75 23.03125 L 5.25 24.96875 C 5.25 24.96875 6.6786543 24.59552 8.09375 23.5625 C 8.963233 22.927777 9.8741297 22.003003 10.4375 20.75 C 9.5061695 23.22749 7.75 25.34375 7.75 25.34375 L 9.25 26.65625 C 9.25 26.65625 12.53116 23.103588 12.96875 18.90625 C 12.751482 22.4348 11.375 26.375 11.375 26.375 L 13.25 27.03125 C 13.25 27.03125 15 22.283333 15 18 L 13 18 L 11 18 L 9 18 z M 15 18 L 15 27 L 17 27 L 17 18 L 15 18 z M 17 18 C 17 22.283333 18.75 27.03125 18.75 27.03125 L 20.625 26.375 C 20.625 26.375 19.248518 22.4348 19.03125 18.90625 C 19.46884 23.103588 22.75 26.65625 22.75 26.65625 L 24.25 25.34375 C 24.25 25.34375 22.452961 23.173893 21.53125 20.65625 C 22.073657 21.94176 22.954391 22.914435 23.8125 23.5625 C 25.185475 24.599404 26.5625 24.96875 26.5625 24.96875 L 27.09375 23.03125 C 27.09375 23.03125 26.074775 22.756846 25.03125 21.96875 C 23.987725 21.180654 23 20.007234 23 18 L 21 18 L 19 18 L 17 18 z" overflow="visible" font-family="Sans" fill="#000000"/></svg>
