<?xml version="1.0" encoding="utf-8"?>
<svg xmlns="http://www.w3.org/2000/svg" viewBox="0 0 32 32" fill="#000000"><path style="text-indent:0;text-align:start;line-height:normal;text-transform:none;block-progression:tb;-inkscape-font-specification:Sans" d="M 20.5 3 C 18.882487 3 17.632524 3.9922607 16.84375 5.28125 C 16.555289 5.1867654 16.320292 5 16 5 C 14.35503 5 13 6.3550302 13 8 L 12 8 L 10.75 8 L 11.03125 9.21875 L 12.28125 14.84375 L 5.71875 8.28125 A 1.0001 1.0001 0 0 0 5 8 L 0 8 L 0 10 L 4.5625 10 L 13.03125 18.46875 C 13.071437 18.932522 13.19112 19.984611 13.5625 21.28125 C 13.795429 22.094503 14.114004 22.940152 14.625 23.65625 C 15.135996 24.372348 15.969082 25 17 25 C 18.801427 25 20.345908 23.807718 21.59375 22.75 C 22.128539 22.296692 22.572189 21.865495 22.9375 21.5 L 23.8125 22.625 C 23.309727 23.29382 23 24.105235 23 25 C 23 27.197294 24.802706 29 27 29 C 29.197294 29 31 27.197294 31 25 C 31 22.802706 29.197294 21 27 21 C 26.425323 21 25.870504 21.122322 25.375 21.34375 L 24.21875 19.9375 L 30.84375 9.53125 L 31.8125 8 L 30 8 L 28.9375 8 C 28.961538 7.8394257 29 7.667731 29 7.5 C 29 5.5788117 27.421188 4 25.5 4 C 24.8159 4 24.22401 4.2525112 23.6875 4.59375 C 22.868105 3.6915948 21.813473 3 20.5 3 z M 20.5 5 C 21.471133 5 22.298779 5.5347836 22.71875 6.34375 L 24.34375 6.53125 C 24.627645 6.1947815 25.039292 6 25.5 6 C 26.340812 6 27 6.6591883 27 7.5 C 27 7.6864969 26.877362 7.8354025 26.8125 8 L 15 8 C 15 7.4349698 15.43497 7 16 7 C 16.221829 7 16.417354 7.086717 16.59375 7.21875 L 18.15625 6.71875 C 18.48746 5.7208199 19.388682 5 20.5 5 z M 13.25 10 L 14.28125 10 L 27.5 10 L 28.1875 10 L 22.53125 18.875 L 14.84375 17.15625 L 13.25 10 z M 15.1875 19.28125 L 21.0625 20.59375 C 20.836536 20.808298 20.578636 21.024413 20.3125 21.25 C 19.200842 22.192282 17.760573 23 17 23 C 16.749418 23 16.541786 22.877652 16.25 22.46875 C 15.958214 22.059848 15.696696 21.405497 15.5 20.71875 C 15.354409 20.210431 15.263664 19.725858 15.1875 19.28125 z M 27 23 C 28.116414 23 29 23.883586 29 25 C 29 26.116414 28.116414 27 27 27 C 25.883586 27 25 26.116414 25 25 C 25 24.745318 25.04076 24.503973 25.125 24.28125 L 26.21875 25.625 L 27.78125 24.375 L 26.6875 23.03125 C 26.790135 23.015435 26.892463 23 27 23 z" overflow="visible" font-family="Sans" fill="#000000"/></svg>
