<?xml version="1.0" encoding="utf-8"?>
<svg xmlns="http://www.w3.org/2000/svg" viewBox="0 0 32 32" fill="#000000"><path style="text-indent:0;text-align:start;line-height:normal;text-transform:none;block-progression:tb;-inkscape-font-specification:Sans" d="M 12.4375 2.96875 L 11.5625 3.375 L 3.8125 7.0625 L 3.03125 7.4375 L 3.28125 8.28125 L 4.8125 13.28125 L 5.03125 14 L 5.78125 14 L 7.875 14 C 7.6735554 15.41659 7.1902518 19.357581 8 24.15625 L 8.15625 25 L 9 25 C 10.653905 25 11.209755 25.672374 11.59375 26.4375 C 11.977745 27.202626 12 28 12 28 L 12 29 L 13 29 L 16 29 L 19 29 L 20 29 L 20 28 C 20 28 20.02226 27.202626 20.40625 26.4375 C 20.790245 25.672374 21.346095 25 23 25 L 23.84375 25 L 24 24.15625 C 24.75058 19.874901 24.266948 15.453932 24.09375 14 L 26.1875 14 L 26.9375 14 L 27.15625 13.28125 L 28.6875 8.28125 L 28.9375 7.4375 L 28.15625 7.0625 L 20.4375 3.375 L 19.5625 2.96875 L 19.125 3.8125 C 18.779653 4.4483162 18.222854 4.7876285 17.59375 5 C 16.964646 5.2123715 16.295456 5.25 16 5.25 C 15.662478 5.25 15.022048 5.2308116 14.40625 5.03125 C 13.790452 4.8316884 13.23794 4.4992105 12.875 3.8125 L 12.4375 2.96875 z M 11.78125 5.5 C 12.398015 6.1902335 13.114051 6.711154 13.8125 6.9375 C 14.761952 7.2451884 15.608522 7.25 16 7.25 C 16.433544 7.25 17.277104 7.224128 18.21875 6.90625 C 18.911024 6.6725537 19.608043 6.1686603 20.21875 5.5 L 26.53125 8.5 L 25.4375 12 L 23 12 L 21.84375 12 L 22 13.125 C 22 13.125 22.681717 18.820439 22.03125 23.28125 C 20.35158 23.620061 19.140308 24.535729 18.625 25.5625 C 18.258226 26.293312 18.3095 26.532315 18.25 27 L 16 27 L 13.75 27 C 13.6905 26.532315 13.741774 26.293312 13.375 25.5625 C 12.859692 24.535729 11.64842 23.620061 9.96875 23.28125 C 9.2258633 18.159462 10 13.15625 10 13.15625 L 10.1875 12 L 9 12 L 6.5 12 L 5.4375 8.5 L 11.78125 5.5 z" overflow="visible" font-family="Sans" fill="#000000"/></svg>
