<?xml version="1.0" encoding="utf-8"?>
<svg xmlns="http://www.w3.org/2000/svg" viewBox="0 0 32 32" fill="#000000"><path style="text-indent:0;text-align:start;line-height:normal;text-transform:none;block-progression:tb;-inkscape-font-specification:Sans" d="M 20 3 C 15.372147 3 11.521357 6.5305151 11.03125 11.03125 C 6.5273907 11.520967 3 15.368895 3 20 C 3 24.962 7.037 29 12 29 C 16.632038 29 20.479145 25.471912 20.96875 20.96875 C 25.469485 20.478643 29 16.627853 29 12 C 29 7.0414839 24.958516 3 20 3 z M 20 5 C 23.877484 5 27 8.1225161 27 12 C 27 15.558561 24.367384 18.480793 20.9375 18.9375 C 20.817688 17.940818 20.542825 16.996272 20.125 16.125 L 18.59375 17.65625 C 18.85675 18.39125 19 19.177 19 20 C 19 23.86 15.859 27 12 27 C 8.141 27 5 23.86 5 20 C 5 16.14 8.141 13 12 13 C 12.823 13 13.60875 13.14325 14.34375 13.40625 L 15.875 11.875 C 15.002986 11.457917 14.059231 11.182547 13.0625 11.0625 C 13.519207 7.6326158 16.441439 5 20 5 z M 17 9 L 17 11 L 19.5625 11 L 11.28125 19.28125 L 12.71875 20.71875 L 21 12.4375 L 21 15 L 23 15 L 23 10 L 23 9 L 22 9 L 17 9 z" overflow="visible" font-family="Sans" fill="#000000"/></svg>
