<?xml version="1.0" encoding="utf-8"?>
<svg xmlns="http://www.w3.org/2000/svg" viewBox="0 0 32 32" fill="#000000"><path style="line-height:normal;text-indent:0;text-align:start;text-decoration-line:none;text-decoration-style:solid;text-decoration-color:#000;text-transform:none;block-progression:tb;isolation:auto;mix-blend-mode:normal" d="M 16 3 C 11.041484 3 7 7.0414839 7 12 C 7 13.406296 7.5600246 15.003996 8.3339844 16.765625 C 9.1079442 18.527254 10.123137 20.414283 11.134766 22.158203 C 13.158022 25.646044 15.177734 28.568359 15.177734 28.568359 L 16 29.759766 L 16.822266 28.568359 C 16.822266 28.568359 18.841978 25.646044 20.865234 22.158203 C 21.876863 20.414283 22.892056 18.527254 23.666016 16.765625 C 24.439975 15.003996 25 13.406296 25 12 C 25 7.0414839 20.958516 3 16 3 z M 16 5 C 19.877484 5 23 8.1225161 23 12 C 23 12.802704 22.560025 14.308378 21.833984 15.960938 C 21.107944 17.613495 20.123137 19.450467 19.134766 21.154297 C 17.568846 23.853746 16.584375 25.261998 16 26.126953 C 15.415625 25.261998 14.431154 23.853746 12.865234 21.154297 C 11.876863 19.450467 10.892056 17.613495 10.166016 15.960938 C 9.439975 14.308378 9 12.802704 9 12 C 9 8.1225161 12.122516 5 16 5 z M 12 9 L 12 16 L 20 16 L 20 9 L 12 9 z M 14.5 11 L 17.5 11 C 17.776 11 18 11.224 18 11.5 C 18 11.776 17.776 12 17.5 12 L 14.5 12 C 14.224 12 14 11.776 14 11.5 C 14 11.224 14.224 11 14.5 11 z" font-weight="400" font-family="sans-serif" white-space="normal" overflow="visible" fill="#000000"/></svg>
