<?xml version="1.0" encoding="utf-8"?>
<svg xmlns="http://www.w3.org/2000/svg" viewBox="0 0 32 32" fill="#000000"><path style="text-indent:0;text-align:start;line-height:normal;text-transform:none;block-progression:tb;-inkscape-font-specification:Sans" d="M 5 4 C 3.3555411 4 2 5.3544268 2 7 L 2 23 C 2 24.64497 3.3550302 26 5 26 L 5.15625 26 C 5.6033156 27.719842 7.1468019 29 9 29 C 10.853198 29 12.396684 27.719842 12.84375 26 L 19.15625 26 C 19.603316 27.719842 21.146802 29 23 29 C 24.853198 29 26.396684 27.719842 26.84375 26 L 27 26 C 28.64497 26 30 24.64497 30 23 L 30 17 L 30 16.9375 L 30 16.84375 L 29 10.84375 L 28.96875 10.6875 L 28.90625 10.5625 L 26.46875 5.71875 L 26.4375 5.65625 C 25.929992 4.6412348 24.883926 4 23.75 4 L 5 4 z M 5 6 L 23.75 6 C 24.130074 6 24.485758 6.2215152 24.65625 6.5625 L 26.375 10 L 21 10 L 21 7 L 19 7 L 19 10 L 12 10 L 12 7 L 10 7 L 10 10 L 4 10 L 4 7 C 4 6.4355732 4.4364589 6 5 6 z M 4 12 L 27.15625 12 L 27.8125 16 L 21 16 L 21 13 L 19 13 L 19 16 L 12 16 L 12 13 L 10 13 L 10 16 L 4 16 L 4 12 z M 4 18 L 28 18 L 28 23 C 28 23.56503 27.56503 24 27 24 L 26.84375 24 C 26.396684 22.280158 24.853198 21 23 21 C 21.146802 21 19.603316 22.280158 19.15625 24 L 12.84375 24 C 12.396684 22.280158 10.853198 21 9 21 C 7.1468019 21 5.6033156 22.280158 5.15625 24 L 5 24 C 4.4349698 24 4 23.56503 4 23 L 4 18 z M 9 23 C 10.116414 23 11 23.883586 11 25 C 11 26.116414 10.116414 27 9 27 C 7.883586 27 7 26.116414 7 25 C 7 23.883586 7.883586 23 9 23 z M 23 23 C 24.116414 23 25 23.883586 25 25 C 25 26.116414 24.116414 27 23 27 C 21.883586 27 21 26.116414 21 25 C 21 23.883586 21.883586 23 23 23 z" fill="#000000"/></svg>
