<?xml version="1.0" encoding="utf-8"?>
<svg xmlns="http://www.w3.org/2000/svg" viewBox="0 0 32 32" fill="#000000"><path style="text-indent:0;text-align:start;line-height:normal;text-transform:none;block-progression:tb;-inkscape-font-specification:Sans" d="M 16 4 C 11.041484 4 7 8.0414839 7 13 L 7 26 L 5 26 L 5 28 L 7 28 L 25 28 L 27 28 L 27 26 L 25 26 L 25 13 C 25 8.0414839 20.958516 4 16 4 z M 16 6 C 19.535296 6 22.420574 8.6030078 22.90625 12 L 9.09375 12 C 9.579426 8.6030078 12.464704 6 16 6 z M 9 14 L 23 14 L 23 26 L 9 26 L 9 14 z M 12 17 L 12 19 L 20 19 L 20 17 L 12 17 z" overflow="visible" font-family="Sans" fill="#000000"/></svg>
