<?xml version="1.0" encoding="utf-8"?>
<svg xmlns="http://www.w3.org/2000/svg" viewBox="-7 9 32 32" fill="#000000"><path d="M 12.53125 3.03125 C 10.455264 2.9565918 8.45875 3.634375 8.3125 3.6875 L 7.90625 3.9375 L 7.71875 4.125 C 7.44775 4.476 5.07375 7.63875 5.46875 10.34375 C 5.51475 10.65975 5.60075 10.969 5.71875 11.25 C 5.65275 11.289 5.59525 11.29775 5.53125 11.34375 C 3.41625 12.83975 3.052 17.54075 3 18.46875 L 3 18.65625 L 3.15625 19.1875 L 3.25 19.3125 C 3.797 20.0385 6.657 23.661 9.25 23.75 C 9.279 23.752 9.31475 23.75 9.34375 23.75 C 9.35975 23.829 9.352 23.92 9.375 24 C 10.164 26.687 15.07 28.7145 15.625 28.9375 L 15.8125 29 L 16 29 L 16.1875 29 L 16.375 28.9375 C 16.929 28.7275 21.801 26.79975 22.625 24.09375 C 22.66 23.97975 22.6665 23.864 22.6875 23.75 C 22.7055 23.75 22.732 23.751 22.75 23.75 C 25.343 23.66 28.203 20.0375 28.75 19.3125 L 28.84375 19.1875 L 29 18.65625 L 29 18.46875 C 28.949 17.54075 28.58375 12.83975 26.46875 11.34375 C 26.40475 11.29875 26.34725 11.289 26.28125 11.25 C 26.39925 10.969 26.48525 10.65975 26.53125 10.34375 C 26.92725 7.63875 24.55125 4.476 24.28125 4.125 L 23.90625 3.8125 L 23.6875 3.6875 C 23.4525 3.6035 18.539 1.89125 16 4.28125 C 15.047875 3.38425 13.776842 3.0760449 12.53125 3.03125 z M 11.96875 5 C 13.168875 4.9575 14.401 5.1965 15 6.1875 L 15 6.21875 C 13.909 6.59175 12.1025 7.3645 11.4375 8.6875 C 10.0105 8.8455 8.77175 10.21475 8.09375 11.09375 L 8 11.0625 C 7.687 10.8045 7.4985 10.4775 7.4375 10.0625 C 7.2185 8.5725 8.5395 6.397 9.1875 5.5 C 9.614 5.369 10.768625 5.0425 11.96875 5 z M 20.03125 5.03125 C 21.232 5.07275 22.3855 5.3695 22.8125 5.5 C 23.4605 6.397 24.7805 8.5735 24.5625 10.0625 C 24.5005 10.4785 24.313 10.8045 24 11.0625 L 23.90625 11.09375 C 23.22825 10.21475 21.9885 8.8435 20.5625 8.6875 C 19.8975 7.3635 18.091 6.59175 17 6.21875 L 17 6.1875 C 17.596 5.202 18.8305 4.98975 20.03125 5.03125 z M 16 8 C 17.157 8.348 18.38375 8.977 18.71875 9.5 L 17.21875 11.3125 L 17.25 11.3125 C 17.106 11.4845 17 11.6955 17 11.9375 C 17 12.4895 17.448 12.9375 18 12.9375 C 18.31 12.9375 18.566 12.81475 18.75 12.59375 L 18.78125 12.59375 L 20.34375 10.6875 C 20.93775 10.7555 21.98025 11.745 22.65625 12.75 C 22.67825 13.915 22.4415 15.20025 22.0625 15.65625 L 20.34375 15 L 20.34375 15.03125 C 20.23675 14.99225 20.121 14.9375 20 14.9375 C 19.448 14.9375 19 15.3855 19 15.9375 C 19 16.3695 19.27325 16.735 19.65625 16.875 L 21.46875 17.5625 C 21.55175 18.1195 20.99125 19.39925 20.15625 20.53125 C 18.89225 20.99025 17.523 21.1535 17 20.9375 L 17 18.9375 C 17 18.3855 16.552 17.9375 16 17.9375 C 15.448 17.9375 15.001 18.3855 15 18.9375 L 15 20.9375 C 14.477 21.1535 13.10675 20.99125 11.84375 20.53125 C 11.08675 19.50025 10.44225 18.1495 10.53125 17.5625 L 12.34375 16.90625 L 12.34375 16.875 C 12.72675 16.735 13 16.3685 13 15.9375 C 13 15.3855 12.552 14.9375 12 14.9375 C 11.879 14.9375 11.76325 14.99225 11.65625 15.03125 L 11.65625 15 L 9.9375 15.65625 C 9.5615 15.19925 9.32475 13.88575 9.34375 12.71875 C 9.93975 11.83275 11.02825 10.7575 11.65625 10.6875 L 13.21875 12.59375 L 13.25 12.59375 C 13.433 12.81475 13.691 12.9375 14 12.9375 C 14.552 12.9375 15 12.4895 15 11.9375 C 15 11.6955 14.893 11.4855 14.75 11.3125 L 14.78125 11.3125 L 13.28125 9.5 C 13.61725 8.978 14.843 8.348 16 8 z M 6.90625 12.875 C 6.984625 12.85575 7.06325 12.85 7.15625 12.875 L 7.34375 12.9375 C 7.34475 14.0855 7.53375 16.073 8.59375 17.125 C 8.31475 18.593 9.29475 20.35475 9.96875 21.34375 L 9.84375 21.53125 C 9.68775 21.70525 9.5325 21.747 9.3125 21.75 C 8.1515 21.71 6.18725 19.7835 5.03125 18.3125 C 5.17525 16.4025 5.7455 13.63475 6.6875 12.96875 C 6.759 12.91875 6.827875 12.89425 6.90625 12.875 z M 25.09375 12.875 C 25.18 12.89125 25.241 12.91925 25.3125 12.96875 C 26.2545 13.63475 26.82375 16.4035 26.96875 18.3125 C 25.81375 19.7835 23.8485 21.71 22.6875 21.75 C 22.4535 21.749 22.28625 21.7085 22.15625 21.5625 L 22.03125 21.34375 C 22.70525 20.35475 23.68525 18.593 23.40625 17.125 C 24.46825 16.073 24.65525 14.0855 24.65625 12.9375 L 24.71875 12.90625 L 24.75 12.90625 C 24.8805 12.86875 25.0075 12.85875 25.09375 12.875 z M 16 13.9375 C 15.447715 13.9375 15 14.385215 15 14.9375 C 15 15.489785 15.447715 15.9375 16 15.9375 C 16.552285 15.9375 17 15.489785 17 14.9375 C 17 14.385215 16.552285 13.9375 16 13.9375 z M 11.59375 22.5625 C 12.73175 22.9295 14.687 23.35525 16 22.65625 C 17.314 23.35425 19.26825 22.9265 20.40625 22.5625 L 20.5625 22.75 C 20.8045 23.091 20.77675 23.33925 20.71875 23.53125 C 20.35675 24.72325 17.85 26.1755 16 26.9375 C 14.144 26.1375 11.6615 24.6255 11.3125 23.4375 C 11.2395 23.1895 11.2645 22.995 11.4375 22.75 L 11.59375 22.5625 z" transform="translate(-7 9)" fill="#000000"/></svg>
