<?xml version="1.0" encoding="utf-8"?>
<svg xmlns="http://www.w3.org/2000/svg" viewBox="0 0 32 32" fill="#000000"><path style="line-height:normal;text-indent:0;text-align:start;text-decoration-line:none;text-decoration-style:solid;text-decoration-color:#000;text-transform:none;block-progression:tb;isolation:auto;mix-blend-mode:normal" d="M 13.642578 3.5449219 L 13.4375 4.84375 C 13.236514 6.1182235 12.674333 6.952397 12.074219 7.9726562 C 11.474104 8.9929157 10.853066 10.263094 11.033203 11.955078 C 11.13528 12.9155 11.56836 13.716516 12.179688 14.216797 C 12.791014 14.717078 13.515844 14.921273 14.1875 14.980469 C 14.702026 15.025819 15.182107 14.974641 15.630859 14.890625 C 15.483557 15.432922 15.307125 16.003464 15.064453 16.648438 L 16.935547 17.351562 C 17.271076 16.45979 17.500126 15.646597 17.667969 14.873047 C 18.360909 14.947498 19.199273 14.69695 19.898438 14.052734 C 21.930794 12.180572 21.760892 7.2340405 14.837891 4.0878906 L 13.642578 3.5449219 z M 14.976562 6.5273438 C 15.676048 6.9151784 16.245326 7.3072432 16.726562 7.6972656 L 15.076172 8.3847656 C 15.714677 9.9193982 16.078745 11.167573 16.005859 12.681641 C 15.946152 12.70693 15.761034 12.820777 15.533203 12.880859 C 15.193782 12.970369 14.752501 13.022585 14.363281 12.988281 C 13.974062 12.953981 13.654657 12.839641 13.447266 12.669922 C 13.239874 12.500203 13.078407 12.279719 13.021484 11.744141 C 12.898622 10.590125 13.240739 9.9318188 13.796875 8.9863281 C 14.179998 8.3349773 14.618245 7.4970868 14.976562 6.5273438 z M 17.0625 7.9785156 C 19.540123 10.193619 18.909076 12.244781 18.542969 12.582031 C 18.210227 12.888622 18.070775 12.899432 17.943359 12.886719 C 18.034868 11.103289 17.68107 9.5524881 17.0625 7.9785156 z M 6 9 C 4.3550302 9 3 10.35503 3 12 L 3 20.757812 C 3 21.818469 3.4217366 22.835798 4.171875 23.585938 L 7 26.414062 L 7 29 L 9 29 L 9 25.585938 L 5.5859375 22.171875 C 5.2100759 21.796013 5 21.289156 5 20.757812 L 5 12 C 5 11.43497 5.4349698 11 6 11 C 6.5650302 11 7 11.43497 7 12 L 7 15.847656 C 6.1700723 16.256738 5.5878906 17.107097 5.5878906 18.085938 C 5.5878906 18.765286 5.865869 19.391549 6.3066406 19.839844 L 6.3085938 19.841797 L 6.3125 19.845703 C 6.31523 19.848503 6.3167925 19.850016 6.3203125 19.853516 C 6.3273525 19.860616 6.3369284 19.872056 6.3496094 19.884766 C 6.3749724 19.910196 6.4121374 19.947236 6.4589844 19.994141 C 6.5526784 20.087961 6.6873328 20.220419 6.8476562 20.380859 C 7.1683033 20.701741 7.5961078 21.129123 8.0234375 21.556641 C 8.8780969 22.411675 9.7324219 23.267578 9.7324219 23.267578 L 11.146484 21.853516 C 11.146484 21.853516 10.292091 20.997544 9.4375 20.142578 C 9.0102065 19.715067 8.5822281 19.287541 8.2617188 18.966797 C 8.101464 18.806425 7.9684193 18.67362 7.875 18.580078 C 7.862071 18.567128 7.855105 18.562151 7.84375 18.550781 L 7.765625 18.470703 C 7.753217 18.458263 7.7442352 18.449339 7.7382812 18.443359 C 7.7363013 18.441359 7.735425 18.440453 7.734375 18.439453 L 7.7324219 18.4375 C 7.6402239 18.34392 7.5878906 18.227676 7.5878906 18.085938 C 7.5878906 17.799 7.8009534 17.585938 8.0878906 17.585938 C 8.23351 17.585938 8.353076 17.645268 8.4511719 17.751953 L 8.4648438 17.765625 L 11.837891 21.15625 C 12.582497 21.904899 13 22.919504 13 23.976562 L 13 29 L 15 29 L 15 23.976562 C 15 22.391621 14.373253 20.869489 13.255859 19.746094 L 9.9238281 16.398438 C 9.6737469 16.126451 9.3549266 15.91384 9 15.771484 L 9 12 C 9 10.35503 7.6449698 9 6 9 z M 26 9 C 24.35503 9 23 10.35503 23 12 L 23 15.771484 C 22.645073 15.91384 22.326253 16.126451 22.076172 16.398438 L 18.744141 19.746094 C 17.626747 20.869489 17 22.391621 17 23.976562 L 17 29 L 19 29 L 19 23.976562 C 19 22.919504 19.417503 21.904855 20.162109 21.15625 L 23.535156 17.765625 L 23.548828 17.751953 C 23.646928 17.645265 23.76649 17.585937 23.912109 17.585938 C 24.199047 17.585938 24.412109 17.799 24.412109 18.085938 C 24.412109 18.227676 24.359779 18.343921 24.267578 18.4375 L 24.265625 18.439453 C 24.264625 18.440553 24.263719 18.441359 24.261719 18.443359 C 24.255719 18.449359 24.246775 18.458273 24.234375 18.470703 L 24.15625 18.550781 C 24.1449 18.562151 24.13793 18.567128 24.125 18.580078 C 24.03158 18.673618 23.898536 18.806425 23.738281 18.966797 C 23.417772 19.287541 22.989795 19.715095 22.5625 20.142578 C 21.707909 20.997544 20.853516 21.853516 20.853516 21.853516 L 22.267578 23.267578 C 22.267578 23.267578 23.121904 22.411675 23.976562 21.556641 C 24.403893 21.129123 24.831697 20.701741 25.152344 20.380859 C 25.312667 20.220419 25.447322 20.087958 25.541016 19.994141 C 25.587866 19.947231 25.625026 19.910191 25.650391 19.884766 C 25.663071 19.872056 25.672648 19.860586 25.679688 19.853516 L 25.6875 19.845703 L 25.691406 19.841797 C 26.133208 19.393376 26.412109 18.766199 26.412109 18.085938 C 26.412109 17.107097 25.829928 16.256738 25 15.847656 L 25 12 C 25 11.43497 25.43497 11 26 11 C 26.56503 11 27 11.43497 27 12 L 27 20.757812 C 27 21.289157 26.789924 21.796013 26.414062 22.171875 L 23 25.585938 L 23 29 L 25 29 L 25 26.414062 L 27.828125 23.585938 C 28.578263 22.835798 29 21.81847 29 20.757812 L 29 12 C 29 10.35503 27.64497 9 26 9 z" font-weight="400" font-family="sans-serif" white-space="normal" overflow="visible" fill="#000000"/></svg>
