<?xml version="1.0" encoding="utf-8"?>
<svg xmlns="http://www.w3.org/2000/svg" viewBox="0 0 32 32" fill="#000000"><path style="text-indent:0;text-align:start;line-height:normal;text-transform:none;block-progression:tb;-inkscape-font-specification:Sans" d="M 9.0625 5 C 6.8303109 5 5 6.8303109 5 9.0625 L 5 22.9375 C 5 25.169009 6.8303109 27 9.0625 27 L 22.9375 27 C 25.169009 27 27 25.169009 27 22.9375 L 27 9.0625 C 27 6.8303109 25.169009 5 22.9375 5 L 9.0625 5 z M 9.0625 7 L 22.9375 7 C 24.087991 7 25 7.9106891 25 9.0625 L 25 19 L 21 19 C 21 16.562448 19.223419 14.526504 16.90625 14.09375 L 19 12 L 17 11 L 15 11 L 13 12 L 15.09375 14.09375 C 12.776581 14.526504 11 16.562448 11 19 L 7 19 L 7 9.0625 C 7 7.9106891 7.9106891 7 9.0625 7 z M 16 16 C 17.668484 16 19 17.331516 19 19 L 13 19 C 13 17.331516 14.331516 16 16 16 z M 7 21 L 25 21 L 25 22.9375 C 25 24.087991 24.087991 25 22.9375 25 L 9.0625 25 C 7.9106891 25 7 24.087991 7 22.9375 L 7 21 z" overflow="visible" font-family="Sans" fill="#000000"/></svg>
