<?xml version="1.0" encoding="utf-8"?>
<svg xmlns="http://www.w3.org/2000/svg" viewBox="0 0 32 32" fill="#000000"><path style="line-height:normal;text-indent:0;text-align:start;text-decoration-line:none;text-decoration-style:solid;text-decoration-color:#000;text-transform:none;block-progression:tb;isolation:auto;mix-blend-mode:normal" d="M 9 3 C 5.6981361 3 3 5.6981361 3 9 C 3 12.301864 5.6981361 15 9 15 C 12.301864 15 15 12.301864 15 9 C 15 5.6981361 12.301864 3 9 3 z M 9 5 C 11.220984 5 13 6.7790164 13 9 C 13 11.220984 11.220984 13 9 13 C 6.7790164 13 5 11.220984 5 9 C 5 6.7790164 6.7790164 5 9 5 z M 20.986328 6 C 19.341319 6 17.986328 7.3549904 17.986328 9 C 17.986328 10.64501 19.341319 12 20.986328 12 C 22.631338 12 23.986328 10.64501 23.986328 9 C 23.986328 7.3549904 22.631338 6 20.986328 6 z M 20.986328 8 C 21.550458 8 21.986328 8.4358706 21.986328 9 C 21.986328 9.5641294 21.550458 10 20.986328 10 C 20.422199 10 19.986328 9.5641294 19.986328 9 C 19.986328 8.4358706 20.422199 8 20.986328 8 z M 30.056641 10.089844 L 24.951172 14.132812 C 24.982172 14.333812 24.996562 14.538141 24.976562 14.744141 L 24.96875 14.816406 L 24.951172 14.886719 L 24.408203 17.111328 L 30.056641 12.642578 L 30.056641 10.089844 z M 20.783203 12.998047 C 19.334203 12.954047 18.457609 13.380172 17.849609 15.576172 C 17.789609 15.793172 17.704422 16.113281 17.607422 16.488281 L 19.244141 18.087891 C 19.432141 17.355891 19.677391 16.464328 19.775391 16.111328 C 20.086391 14.986328 20.141953 14.997047 20.751953 14.998047 L 21.474609 15 C 21.563609 15 21.618438 15.045984 21.648438 15.083984 C 21.679437 15.121984 21.712359 15.185484 21.693359 15.271484 L 20.742188 19.548828 L 22.425781 21.193359 L 23.644531 15.705078 C 23.790531 15.043078 23.631031 14.361031 23.207031 13.832031 C 22.784031 13.304031 22.151609 13 21.474609 13 L 20.783203 12.998047 z M 17.421875 17.328125 L 16.90625 19.953125 L 18.949219 22 L 15 22 C 14.345 22 13.168156 22.266922 12.660156 24.044922 L 11.037109 29.726562 L 12.962891 30.275391 L 14.585938 24.59375 C 14.754938 24.00075 14.914 24 15 24 L 19 24 C 19.558985 24 20.094471 23.86057 20.572266 23.625 L 24.939453 28 L 27.769531 28 L 17.421875 17.328125 z" font-weight="400" font-family="sans-serif" white-space="normal" overflow="visible" fill="#000000"/></svg>
