<?xml version="1.0" encoding="utf-8"?>
<svg xmlns="http://www.w3.org/2000/svg" viewBox="0 0 32 32" fill="#000000"><path d="M 12 2 L 11.433594 4.2675781 C 10.685561 3.9782392 9.867988 3.9165405 9.0722656 4.1074219 C 8.0332656 4.3554219 7.15475 4.9932969 6.59375 5.9042969 C 6.32775 6.3362969 4 10.279297 4 15.529297 C 4 21.795297 6.3472344 25.705859 6.6152344 26.130859 C 7.3512344 27.301859 8.6189063 28 10.003906 28 C 10.495938 28 10.976445 27.899802 11.431641 27.724609 L 12 30 L 13 29 L 14 29 L 14 28 L 15 27 L 13.085938 26.521484 C 13.472364 26.048887 13.761017 25.500081 13.900391 24.886719 C 14.137391 23.844719 13.954438 22.773625 13.398438 21.890625 C 13.384438 21.866625 12 19.442297 12 15.529297 C 12 12.519297 13.408969 10.093172 13.417969 10.076172 C 14.317549 8.5947893 14.121992 6.7557047 13.083984 5.4785156 L 15 5 L 14 4 L 14 3 L 13 3 L 12 2 z M 25 2 L 24.433594 4.2675781 C 23.686315 3.9780066 22.871054 3.9157739 22.072266 4.1074219 C 21.033266 4.3554219 20.15475 4.9932969 19.59375 5.9042969 C 19.32875 6.3362969 17 10.279297 17 15.529297 C 17 21.795297 19.347234 25.706812 19.615234 26.132812 C 20.352234 27.302813 21.618906 28 23.003906 28 C 23.495938 28 23.976462 27.899523 24.431641 27.724609 L 25 30 L 26 29 L 27 29 L 27 28 L 28 27 L 26.085938 26.521484 C 26.472568 26.048783 26.761017 25.499493 26.900391 24.886719 C 27.136391 23.843719 26.953437 22.773578 26.398438 21.892578 C 26.385437 21.867578 25 19.438297 25 15.529297 C 25 12.519297 26.408969 10.093172 26.417969 10.076172 C 27.317707 8.5945297 27.120288 6.7579141 26.082031 5.4804688 L 28 5 L 27 4 L 27 3 L 26 3 L 25 2 z M 10.003906 5.9980469 C 10.368906 5.9980469 10.728875 6.099875 11.046875 6.296875 C 11.980875 6.871875 12.278031 8.1029688 11.707031 9.0429688 C 11.690031 9.0709688 10 11.921297 10 15.529297 C 10 20.085297 11.688359 22.927547 11.693359 22.935547 C 11.978359 23.386547 12.069172 23.922359 11.951172 24.443359 C 11.833172 24.964359 11.517406 25.409359 11.066406 25.693359 C 10.155406 26.264359 8.8746406 25.966406 8.3066406 25.066406 C 8.0706406 24.690406 6 21.235297 6 15.529297 C 6 10.827297 8.061875 7.3322188 8.296875 6.9492188 C 8.576875 6.4952187 9.0171094 6.1767344 9.5371094 6.0527344 C 9.6921094 6.0167344 9.8489063 5.9980469 10.003906 5.9980469 z M 23.003906 5.9980469 C 23.369906 5.9980469 23.729828 6.0989219 24.048828 6.2949219 C 24.981828 6.8709219 25.277031 8.1029688 24.707031 9.0429688 C 24.689031 9.0709688 23 11.922297 23 15.529297 C 23 20.085297 24.679359 22.914547 24.693359 22.935547 C 24.977359 23.386547 25.070172 23.922359 24.951172 24.443359 C 24.833172 24.964359 24.517406 25.409359 24.066406 25.693359 C 23.154406 26.264359 21.875594 25.966406 21.308594 25.066406 C 21.071594 24.690406 19 21.235297 19 15.529297 C 19 10.828297 21.062875 7.3322188 21.296875 6.9492188 C 21.576875 6.4952187 22.017109 6.1767344 22.537109 6.0527344 C 22.692109 6.0157344 22.848906 5.9980469 23.003906 5.9980469 z" fill="#000000"/></svg>
