<?xml version="1.0" encoding="utf-8"?>
<svg xmlns="http://www.w3.org/2000/svg" viewBox="0 0 32 32" fill="#000000"><path style="text-indent:0;text-align:start;line-height:normal;text-transform:none;block-progression:tb;-inkscape-font-specification:Sans" d="M 3 4 L 3 5 L 3 9 L 3 10 L 4 10 L 4 23 L 4 27 L 4 28 L 5 28 L 12 28 L 18 28 L 28 28 L 29 28 L 29 27 L 29 23 C 29.032606 20.567172 28.621505 18.733569 27.375 17.53125 C 26.128495 16.328931 24.31219 16 22 16 C 19.78639 16 18.994214 15.067612 18.5 14.0625 C 18.005786 13.057388 18 12.03125 18 12.03125 L 18 12 L 18 10 L 19 10 L 19 9 L 19 5 L 19 4 L 18 4 L 4 4 L 3 4 z M 5 6 L 17 6 L 17 8 L 5 8 L 5 6 z M 6 10 L 16 10 L 16 11.96875 L 16 12 C 15.999 12.04736 15.96466 13.467416 16.6875 14.9375 C 17.422536 16.432388 19.13061 18 22 18 C 24.10481 18 25.335255 18.358819 26 19 C 26.664745 19.641181 27.029394 20.806828 27 23 L 12.9375 23 C 12.480874 19.397299 9.6027008 16.519126 6 16.0625 L 6 10 z M 13 11 C 12.447715 11 12 11.447715 12 12 C 12 12.552285 12.447715 13 13 13 C 13.552285 13 14 12.552285 14 12 C 14 11.447715 13.552285 11 13 11 z M 14 14 C 13.447715 14 13 14.447715 13 15 C 13 15.552285 13.447715 16 14 16 C 14.552285 16 15 15.552285 15 15 C 15 14.447715 14.552285 14 14 14 z M 16 17 C 15.447715 17 15 17.447715 15 18 C 15 18.552285 15.447715 19 16 19 C 16.552285 19 17 18.552285 17 18 C 17 17.447715 16.552285 17 16 17 z M 6 18.09375 C 8.5244507 18.511358 10.488642 20.475549 10.90625 23 L 6 23 L 6 18.09375 z M 6 25 L 27 25 L 27 26 L 18 26 L 12 26 L 6 26 L 6 25 z" fill="#000000"/></svg>
