<?xml version="1.0" encoding="utf-8"?>
<svg xmlns="http://www.w3.org/2000/svg" viewBox="0 0 32 32" fill="#000000"><path style="text-indent:0;text-align:start;line-height:normal;text-transform:none;block-progression:tb;-inkscape-font-specification:Sans" d="M 12 2 C 8.1456661 2 5 5.1456661 5 9 C 5 11.408959 6.2311686 13.552158 8.09375 14.8125 C 4.5266132 16.342333 2 19.881262 2 24 L 4 24 C 4 19.569334 7.5693339 16 12 16 C 13.376046 16 14.65445 16.35784 15.78125 16.96875 C 14.671114 18.342565 14 20.103031 14 22 C 14 26.406433 17.593567 30 22 30 C 26.406433 30 30 26.406433 30 22 C 30 17.593567 26.406433 14 22 14 C 20.252849 14 18.630732 14.574679 17.3125 15.53125 C 16.896602 15.269943 16.454675 15.043564 16 14.84375 C 17.09888 14.261363 18.143724 13.524664 19.09375 12.8125 C 21.158593 11.264642 22.71875 9.71875 22.71875 9.71875 L 23.40625 9 L 22.71875 8.3125 C 22.71875 8.3125 21.20752 6.737676 19.15625 5.1875 C 17.10498 3.637324 14.545819 2 12 2 z M 12 4 C 13.575181 4 16.01902 5.362676 17.9375 6.8125 C 19.392955 7.9124091 19.988139 8.532473 20.46875 9 C 19.975177 9.4707745 19.371635 10.089011 17.90625 11.1875 C 15.969093 12.639642 13.494998 14 12 14 C 9.2263339 14 7 11.773666 7 9 C 7 6.2263339 9.2263339 4 12 4 z M 22 16 C 25.325553 16 28 18.674447 28 22 C 28 25.325553 25.325553 28 22 28 C 18.674447 28 16 25.325553 16 22 C 16 18.674447 18.674447 16 22 16 z M 25.28125 19.28125 L 22 22.5625 L 19.71875 20.28125 L 18.28125 21.71875 L 21.28125 24.71875 L 22 25.40625 L 22.71875 24.71875 L 26.71875 20.71875 L 25.28125 19.28125 z" overflow="visible" font-family="Sans" fill="#000000"/></svg>
