<?xml version="1.0" encoding="utf-8"?>
<svg xmlns="http://www.w3.org/2000/svg" viewBox="0 0 32 32" fill="#000000"><path style="text-indent:0;text-align:start;line-height:normal;text-transform:none;block-progression:tb;-inkscape-font-specification:Bitstream Vera Sans" d="M 6.21875 6 L 6.03125 6.75 L 3.03125 18.75 L 3 18.875 L 3 19 L 3 25 L 3 26 L 4 26 L 28 26 L 29 26 L 29 25 L 29 19 L 29 18.875 L 28.96875 18.75 L 25.96875 6.75 L 25.78125 6 L 25 6 L 7 6 L 6.21875 6 z M 7.78125 8 L 24.21875 8 L 26.71875 18 L 5.28125 18 L 7.78125 8 z M 15 10 C 13.689 10 12.5955 10.85925 12.1875 12.03125 C 12.1285 12.02625 12.061 12 12 12 C 10.895 12 10 12.895 10 14 C 10 15.105 10.895 16 12 16 L 20.5 16 C 21.328 16 22 15.328 22 14.5 C 22 13.672 21.328 13 20.5 13 C 20.252 13 20.0185 13.0815 19.8125 13.1875 C 19.4975 12.4975 18.808 12 18 12 C 17.939 12 17.8715 12.02625 17.8125 12.03125 C 17.4045 10.85925 16.311 10 15 10 z M 5 20 L 27 20 L 27 24 L 5 24 L 5 20 z M 24 21 C 23.447715 21 23 21.447715 23 22 C 23 22.552285 23.447715 23 24 23 C 24.552285 23 25 22.552285 25 22 C 25 21.447715 24.552285 21 24 21 z" overflow="visible" font-family="Bitstream Vera Sans" fill="#000000"/></svg>
