<?xml version="1.0" encoding="utf-8"?>
<svg xmlns="http://www.w3.org/2000/svg" viewBox="0 0 32 32" fill="#000000"><path style="line-height:normal;text-indent:0;text-align:start;text-decoration-line:none;text-decoration-style:solid;text-decoration-color:#000;text-transform:none;block-progression:tb;isolation:auto;mix-blend-mode:normal" d="M 9.0820312 5 C 6.8394908 5 5 6.8394908 5 9.0820312 L 5 22.917969 C 5 25.160509 6.8394908 27 9.0820312 27 L 22.917969 27 C 25.160509 27 27 25.160509 27 22.917969 L 27 9.0820312 C 27 6.8394908 25.160509 5 22.917969 5 L 9.0820312 5 z M 9.0820312 7 L 22.917969 7 C 24.079428 7 25 7.9205719 25 9.0820312 L 25 22.917969 C 25 24.079428 24.079428 25 22.917969 25 L 9.0820312 25 C 7.9205719 25 7 24.079428 7 22.917969 L 7 9.0820312 C 7 7.9205719 7.9205719 7 9.0820312 7 z M 15.716797 12.228516 C 14.982797 12.221516 14.359813 12.229344 14.007812 12.402344 C 13.773813 12.517344 13.593125 12.772109 13.703125 12.787109 C 13.839125 12.805109 14.147547 12.87175 14.310547 13.09375 C 14.521547 13.38075 14.513672 14.023438 14.513672 14.023438 C 14.513672 14.023438 14.634469 15.798531 14.230469 16.019531 C 13.953469 16.170531 13.572859 15.862172 12.755859 14.451172 C 12.336859 13.728172 12.021484 12.927734 12.021484 12.927734 C 12.021484 12.927734 11.960563 12.779219 11.851562 12.699219 C 11.719563 12.602219 11.535156 12.570312 11.535156 12.570312 L 9.578125 12.583984 C 9.578125 12.583984 9.2847344 12.592703 9.1777344 12.720703 C 9.0817344 12.834703 9.1699219 13.068359 9.1699219 13.068359 C 9.1699219 13.068359 10.701547 16.650078 12.435547 18.455078 C 14.027547 20.109078 15.832031 20.001953 15.832031 20.001953 L 16.650391 20.001953 C 16.650391 20.001953 16.897438 19.973891 17.023438 19.837891 C 17.139437 19.712891 17.134766 19.478516 17.134766 19.478516 C 17.134766 19.478516 17.119906 18.381703 17.628906 18.220703 C 18.130906 18.061703 18.774984 19.281 19.458984 19.75 C 19.975984 20.105 20.369141 20.027344 20.369141 20.027344 L 22.197266 20.001953 C 22.197266 20.001953 23.152219 19.941453 22.699219 19.189453 C 22.662219 19.128453 22.436797 18.633188 21.341797 17.617188 C 20.195797 16.553187 20.347516 16.726719 21.728516 14.886719 C 22.569516 13.765719 22.905781 13.080109 22.800781 12.787109 C 22.700781 12.508109 22.082031 12.582031 22.082031 12.582031 L 20.023438 12.595703 C 20.023438 12.595703 19.870812 12.574578 19.757812 12.642578 C 19.646812 12.708578 19.576172 12.863281 19.576172 12.863281 C 19.576172 12.863281 19.250406 13.73075 18.816406 14.46875 C 17.900406 16.02475 17.532812 16.107719 17.382812 16.011719 C 17.033812 15.786719 17.121094 15.105047 17.121094 14.623047 C 17.121094 13.115047 17.351734 12.487219 16.677734 12.324219 C 16.453734 12.270219 16.289797 12.234516 15.716797 12.228516 z" font-weight="400" font-family="sans-serif" white-space="normal" clip-rule="evenodd" overflow="visible" fill="#000000"/></svg>
