<?xml version="1.0" encoding="utf-8"?>
<svg xmlns="http://www.w3.org/2000/svg" viewBox="0 0 32 32" fill="#000000"><path style="text-indent:0;text-align:start;line-height:normal;text-transform:none;block-progression:tb;-inkscape-font-specification:Bitstream Vera Sans" d="M 13.5 5 L 13.1875 5.40625 L 12 7 L 11 7 L 11 6 L 5 6 L 5 7 L 4 7 L 3 7 L 3 8 L 3 25 L 3 26 L 4 26 L 28 26 L 29 26 L 29 25 L 29 8 L 29 7 L 28 7 L 24 7 L 22.8125 5.40625 L 22.5 5 L 22 5 L 14 5 L 13.5 5 z M 14.5 7 L 21.5 7 L 22.6875 8.59375 L 23 9 L 23.5 9 L 27 9 L 27 24 L 5 24 L 5 9 L 12.5 9 L 13 9 L 13.3125 8.59375 L 14.5 7 z M 8 10 C 7.4477153 10 7 10.447715 7 11 C 7 11.552285 7.4477153 12 8 12 C 8.5522847 12 9 11.552285 9 11 C 9 10.447715 8.5522847 10 8 10 z M 18 10 C 14.698136 10 12 12.698136 12 16 C 12 19.301864 14.698136 22 18 22 C 21.301864 22 24 19.301864 24 16 C 24 12.698136 21.301864 10 18 10 z M 18 12 C 20.220984 12 22 13.779016 22 16 C 22 18.220984 20.220984 20 18 20 C 15.779016 20 14 18.220984 14 16 C 14 13.779016 15.779016 12 18 12 z" overflow="visible" font-family="Bitstream Vera Sans" fill="#000000"/></svg>
