<?xml version="1.0" encoding="utf-8"?>
<svg xmlns="http://www.w3.org/2000/svg" viewBox="0 0 32 32" fill="#000000"><path style="text-indent:0;text-align:start;line-height:normal;text-transform:none;block-progression:tb;-inkscape-font-specification:Bitstream Vera Sans" d="M 5.59375 7 L 5.28125 7.28125 C 5.28125 7.28125 2 10.6 2 16 C 2 21.4 5.28125 24.71875 5.28125 24.71875 L 5.59375 25 L 6 25 L 26 25 L 26.40625 25 L 26.71875 24.71875 C 26.71875 24.71875 30 21.4 30 16 C 30 10.6 26.71875 7.28125 26.71875 7.28125 L 26.40625 7 L 26 7 L 6 7 L 5.59375 7 z M 6.53125 9 L 25.46875 9 C 25.8039 9.3554355 28 11.730546 28 16 C 28 20.269454 25.8039 22.644565 25.46875 23 L 6.53125 23 C 6.1961004 22.644565 4 20.269454 4 16 C 4 11.730546 6.1961004 9.3554355 6.53125 9 z M 10.375 12 L 6.375 20 L 8.625 20 L 9.125 19 L 11 19 L 11 20 L 12 20 L 13 20 C 15.197334 20 17 18.197334 17 16 C 17 13.802666 15.197334 12 13 12 L 11 12 L 10.375 12 z M 15.96875 12 C 17.19375 12.912 18 14.359 18 16 C 18 17.641 17.19375 19.088 15.96875 20 L 18.75 20 C 19.544 18.865 20 17.487 20 16 C 20 14.513 19.544 13.135 18.75 12 L 15.96875 12 z M 19.90625 12 C 20.59125 13.178 21 14.542 21 16 C 21 17.458 20.59025 18.822 19.90625 20 L 22.15625 20 C 22.69325 18.774 23 17.422 23 16 C 23 14.578 22.69425 13.226 22.15625 12 L 19.90625 12 z M 23.25 12 C 23.737 13.242 24 14.588 24 16 C 24 17.412 23.737 18.758 23.25 20 L 25.375 20 C 25.784 18.739 26 17.396 26 16 C 26 14.604 25.784 13.261 25.375 12 L 23.25 12 z M 13 14 C 14.116666 14 15 14.883334 15 16 C 15 17.116666 14.116666 18 13 18 L 13 14 z M 11 15.25 L 11 17 L 10.125 17 L 11 15.25 z" overflow="visible" font-family="Bitstream Vera Sans" fill="#000000"/></svg>
