<?xml version="1.0" encoding="utf-8"?>
<svg xmlns="http://www.w3.org/2000/svg" viewBox="0 0 32 32" fill="#000000"><path style="text-indent:0;text-align:start;line-height:normal;text-transform:none;block-progression:tb;-inkscape-font-specification:Bitstream Vera Sans" d="M 6.21875 6 L 6.03125 6.75 L 3.03125 18.75 L 3 18.875 L 3 19 L 3 25 L 3 26 L 4 26 L 28 26 L 29 26 L 29 25 L 29 19 L 29 18.875 L 28.96875 18.75 L 25.96875 6.75 L 25.78125 6 L 25 6 L 7 6 L 6.21875 6 z M 7.78125 8 L 24.21875 8 L 26.71875 18 L 5.28125 18 L 7.78125 8 z M 5 20 L 27 20 L 27 24 L 5 24 L 5 20 z M 7 21 L 7 23 L 9 23 L 9 21 L 7 21 z M 10 21 L 10 23 L 12 23 L 12 21 L 10 21 z M 13 21 L 13 23 L 15 23 L 15 21 L 13 21 z M 16 21 L 16 23 L 18 23 L 18 21 L 16 21 z M 24 21 C 23.447715 21 23 21.447715 23 22 C 23 22.552285 23.447715 23 24 23 C 24.552285 23 25 22.552285 25 22 C 25 21.447715 24.552285 21 24 21 z" fill="#000000"/></svg>
