<?xml version="1.0" encoding="utf-8"?>
<svg xmlns="http://www.w3.org/2000/svg" viewBox="0 0 32 32" fill="#000000"><path style="text-indent:0;text-align:start;line-height:normal;text-transform:none;block-progression:tb;-inkscape-font-specification:Sans" d="M 22 4 L 22 5 L 10 5 L 9 5 L 9 6 L 9 10 L 9 11 L 10 11 L 14 11 C 14 12.104569 14.895431 13 16 13 C 17.104569 13 18 12.104569 18 11 L 22 11 L 22 12 L 24 12 L 24 4 L 22 4 z M 16 13 L 12 13 L 12 15 L 20 15 L 20 13 L 16 13 z M 11 7 L 22 7 L 22 9 L 16 9 L 11 9 L 11 7 z M 12 16 L 6 26 L 8 26 L 14 16 L 12 16 z M 15 16 L 15 28 L 17 28 L 17 16 L 15 16 z M 18 16 L 24 26 L 26 26 L 20 16 L 18 16 z" overflow="visible" font-family="Sans" fill="#000000"/></svg>
