<?xml version="1.0" encoding="utf-8"?>
<svg xmlns="http://www.w3.org/2000/svg" viewBox="0 0 32 32" fill="#000000"><path style="text-indent:0;text-align:start;line-height:normal;text-transform:none;block-progression:tb;-inkscape-font-specification:Bitstream Vera Sans" d="M 24.4375 6 L 11.875 6.9375 C 10.82063 7.0154571 10 7.911324 10 8.96875 C 10 10.081599 10.918401 11 12.03125 11 L 14 11 L 14 12.125 L 7.4375 12.9375 L 5.9375 11.09375 C 5.3685225 10.396004 4.4958607 10 3.59375 10 L 2 10 L 0.625 10 L 1.0625 11.3125 L 3.0625 17.3125 L 3.15625 17.625 L 3.4375 17.8125 C 3.4375 17.8125 9.4152 22 19 22 C 22.839284 22 25.744888 21.163387 27.75 20.03125 C 28.317827 19.710641 28.815115 19.385063 29.25 19.03125 L 29 22 L 31 22 L 30.625 17.4375 C 30.867892 16.979684 31 16.504395 31 16 C 31 15.525317 30.834843 15.118123 30.59375 14.78125 L 31 10 L 29 10 L 29.3125 13.71875 C 28.788901 13.404148 28.214115 13.125938 27.59375 12.90625 C 26.382507 12.477317 25.083058 12.183341 24 12.0625 L 24 11 L 24.5 11 C 25.869063 11 27 9.8690628 27 8.5 C 27 7.1309372 25.869063 6 24.5 6 L 24.46875 6 L 24.4375 6 z M 24.5 8 C 24.786937 8 25 8.2130628 25 8.5 C 25 8.7869372 24.786937 9 24.5 9 L 12.03125 9 C 11.998099 9 12 9.0019013 12 8.96875 C 12 8.940176 12.00362 8.9395429 12.03125 8.9375 L 24.5 8 z M 16 11 L 22 11 L 22 12.875 C 22.004251 12.873534 22.017005 12.869135 22 12.90625 C 21.96599 12.98048 21.891762 13.097768 21.71875 13.25 C 21.372726 13.554464 20.5587 14 18.6875 14 C 17.334925 14 16.696955 13.613443 16.34375 13.28125 C 16.094071 13.046424 16.027834 12.900137 16 12.8125 L 16 11 z M 3.375 12 L 3.59375 12 C 3.8956393 12 4.1839775 12.140746 4.375 12.375 L 6.21875 14.625 L 6.5625 15.0625 L 7.125 15 L 14.5625 14.0625 C 14.712519 14.331143 14.676937 14.414906 15 14.71875 C 15.710045 15.386557 16.909075 16 18.6875 16 C 20.8863 16 22.240774 15.445536 23.03125 14.75 C 23.283289 14.528232 23.390984 14.310821 23.53125 14.09375 C 24.414114 14.16146 25.707237 14.356647 26.90625 14.78125 C 27.59963 15.026794 28.219571 15.322252 28.59375 15.59375 C 28.967929 15.865248 29 16.040403 29 16 C 29 16.184641 28.429888 17.350387 26.78125 18.28125 C 25.132612 19.212113 22.545716 20 19 20 C 10.282321 20 5.1518776 16.545327 4.8125 16.3125 L 3.375 12 z M 23 22 C 21.895431 22 21 22.895431 21 24 C 21 25.104569 21.895431 26 23 26 C 24.104569 26 25 25.104569 25 24 C 25 22.895431 24.104569 22 23 22 z" overflow="visible" font-family="Bitstream Vera Sans" fill="#000000"/></svg>
