<?xml version="1.0" encoding="utf-8"?>
<svg xmlns="http://www.w3.org/2000/svg" viewBox="0 0 32 32" fill="#000000"><path style="text-indent:0;text-align:start;line-height:normal;text-transform:none;block-progression:tb;-inkscape-font-specification:Sans" d="M 21 3.96875 L 20.1875 5.125 L 17.5 8.90625 C 17.025931 8.5529485 16.44944 8.3233626 15.84375 8.1875 C 15.457145 6.3852036 13.912103 5 12 5 C 10.540717 5 9.3824787 5.8875626 8.6875 7.0625 C 6.6408702 7.2304093 5 8.9125328 5 11 C 5 11.365048 5.1264019 11.670696 5.21875 12 C 4.5170238 12.637357 4 13.478622 4 14.5 C 4 15.609263 4.6251248 16.484969 5.4375 17.125 L 5.3125 17.4375 L 5.3125 17.46875 L 5.28125 17.5 L 5.28125 17.53125 C 5.2591681 17.597496 5.251 17.621 5.25 17.625 C 5.185143 17.800319 5.1342054 17.994493 5.09375 18.1875 C 5.09167 18.1974 5.09575 18.20879 5.09375 18.21875 C 5.0439232 18.468882 5 18.73708 5 19 C 5 21.197334 6.8026661 23 9 23 C 9.2687071 23 9.5371093 22.98607 9.78125 22.9375 C 9.8814272 22.918062 9.9258136 22.899815 10 22.875 L 10 28 L 12 28 L 12 22.84375 C 12.314133 22.937743 12.652465 23 13 23 C 13.424691 23 13.806329 22.908033 14.1875 22.78125 C 15.853346 23.909672 17.682036 24.778398 20 24.96875 L 20 28 L 22 28 L 22 24.96875 C 24.389683 24.764595 26.395724 23.835707 28.15625 22.59375 L 28.96875 22.03125 L 28.40625 21.21875 L 25.75 17.5625 C 26.046117 17.385517 26.340931 17.259159 26.625 17.03125 L 27.375 16.4375 L 26.8125 15.65625 L 24.15625 12.125 C 24.504411 11.949656 24.864228 11.836476 25.1875 11.59375 L 25.96875 11 L 25.40625 10.21875 L 21.8125 5.125 L 21 3.96875 z M 12 7 C 13.116666 7 14 7.8833339 14 9 L 14 10 L 15 10 C 15.527152 10 15.9859 10.20472 16.34375 10.53125 L 16.03125 11 L 16.8125 11.59375 C 17.131486 11.833123 17.50055 11.919854 17.84375 12.09375 L 15.1875 15.65625 L 14.625 16.4375 L 15.375 17.03125 C 15.659069 17.259159 15.953883 17.385517 16.25 17.5625 C 15.275242 18.995714 14.37749 20.207532 14 20.71875 C 13.701965 20.896582 13.370739 21 13 21 C 12.487067 21 12.02024 20.796478 11.65625 20.46875 L 11 19.875 L 10.34375 20.46875 C 10.25018 20.55318 10.129611 20.626426 10.03125 20.6875 C 9.9256099 20.75317 9.8188439 20.804079 9.71875 20.84375 L 9.71875 20.875 C 9.7746 20.85215 9.702534 20.85958 9.65625 20.875 C 9.633108 20.8827 9.673321 20.85782 9.625 20.875 C 9.5111795 20.91315 9.4085376 20.96224 9.375 20.96875 C 9.2471407 20.994184 9.1272929 21 9 21 C 7.8833339 21 7 20.116666 7 19 C 7 18.863293 7.005 18.720427 7.03125 18.59375 C 7.055078 18.475235 7.106419 18.370425 7.15625 18.25 C 7.172833 18.2113 7.166833 18.19405 7.15625 18.21875 L 7.15625 18.1875 L 7.1875 18.15625 L 7.1875 18.125 L 7.1875 18.09375 L 7.5625 17.21875 L 7.9375 16.25 L 7 15.90625 C 6.423801 15.693871 6 15.153602 6 14.5 C 6 13.926834 6.3074661 13.444767 6.78125 13.1875 L 7.625 12.71875 L 7.21875 11.875 C 7.081439 11.594745 7 11.305276 7 11 C 7 9.8833339 7.8833339 9 9 9 C 8.9079945 9 8.952418 9.0197445 9.125 9.03125 L 9.875 9.0625 L 10.125 8.34375 C 10.398144 7.5591291 11.119206 7 12 7 z M 21 7.4375 L 23.09375 10.40625 C 22.844799 10.522414 22.641627 10.703792 22.375 10.78125 L 21.03125 11.1875 L 20.96875 11.1875 L 19.65625 10.78125 C 19.380782 10.70157 19.131777 10.527359 18.875 10.40625 L 21 7.4375 z M 21 11.21875 L 21.84375 12.34375 L 24.53125 15.96875 C 24.318843 16.088341 24.136573 16.238202 23.90625 16.34375 L 22.8125 16.84375 L 23.5 17.84375 L 26.125 21.4375 C 24.6046 22.358232 23.022297 23 21 23 C 18.937655 23 17.472141 22.435631 16.03125 21.5625 L 15.9375 21.5 C 15.925241 21.492457 15.918509 21.476335 15.90625 21.46875 C 16.398527 20.833279 17.282692 19.753775 18.53125 17.78125 L 19.125 16.8125 L 18.09375 16.34375 C 17.863427 16.238202 17.681157 16.088341 17.46875 15.96875 L 20.15625 12.34375 L 21 11.21875 z" overflow="visible" font-family="Sans" fill="#000000"/></svg>
