<?xml version="1.0" encoding="utf-8"?>
<svg xmlns="http://www.w3.org/2000/svg" viewBox="0 0 32 32" fill="#000000"><path style="line-height:normal;text-indent:0;text-align:start;text-decoration-line:none;text-decoration-style:solid;text-decoration-color:#000;text-transform:none;block-progression:tb;isolation:auto;mix-blend-mode:normal" d="M 17 3 L 17 5 L 19.585938 5 L 16 8.5859375 L 14 6.5859375 L 8.5859375 12 L 11.414062 12 L 14 9.4140625 L 16 11.414062 L 21 6.4140625 L 21 9 L 23 9 L 23 3 L 17 3 z M 3 13 L 3 29 L 16 29 L 29 29 L 29 13 L 16 13 L 3 13 z M 6.9121094 15 L 16 15 L 25.087891 15 A 1.5 1.5 0 0 0 25 15.5 A 1.5 1.5 0 0 0 26.5 17 A 1.5 1.5 0 0 0 27 16.912109 L 27 25.087891 A 1.5 1.5 0 0 0 26.5 25 A 1.5 1.5 0 0 0 25 26.5 A 1.5 1.5 0 0 0 25.087891 27 L 16 27 L 6.9121094 27 A 1.5 1.5 0 0 0 7 26.5 A 1.5 1.5 0 0 0 5.5 25 A 1.5 1.5 0 0 0 5 25.087891 L 5 16.912109 A 1.5 1.5 0 0 0 5.5 17 A 1.5 1.5 0 0 0 7 15.5 A 1.5 1.5 0 0 0 6.9121094 15 z M 16 17 C 13.790196 17 12 18.790196 12 21 L 12 22 L 12.201172 22 C 12.654113 23.712177 14.145038 25 16 25 C 17.854962 25 19.345887 23.712177 19.798828 22 L 20 22 L 20 21 C 20 18.790196 18.209804 17 16 17 z M 16 19 C 17.190196 19 18 19.809804 18 21 C 18 22.190196 17.190196 23 16 23 C 14.809804 23 14 22.190196 14 21 C 14 19.809804 14.809804 19 16 19 z M 9 19.5 A 1.5 1.5 0 0 0 7.5 21 A 1.5 1.5 0 0 0 9 22.5 A 1.5 1.5 0 0 0 10.5 21 A 1.5 1.5 0 0 0 9 19.5 z M 23 19.5 A 1.5 1.5 0 0 0 21.5 21 A 1.5 1.5 0 0 0 23 22.5 A 1.5 1.5 0 0 0 24.5 21 A 1.5 1.5 0 0 0 23 19.5 z" fill="#000000"/></svg>
