<?xml version="1.0" encoding="utf-8"?>
<svg xmlns="http://www.w3.org/2000/svg" viewBox="0 0 32 32" fill="#000000"><path style="line-height:normal;text-indent:0;text-align:start;text-decoration-line:none;text-decoration-style:solid;text-decoration-color:#000;text-transform:none;block-progression:tb;isolation:auto;mix-blend-mode:normal" d="M 25.138672 3.0175781 C 24.347234 3.0980156 23.603641 3.4471406 23.025391 4.0253906 C 21.957391 5.0923906 21.693922 6.7164063 22.419922 8.0664062 L 19.931641 10.162109 L 20.007812 10.394531 L 20.595703 12.21875 L 23.707031 9.5957031 C 24.395031 9.0157031 24.582203 8.019875 24.158203 7.171875 C 23.869203 6.593875 23.981453 5.8974531 24.439453 5.4394531 C 24.770453 5.1094531 25.226406 4.9567187 25.691406 5.0117188 C 26.164406 5.0727187 26.564406 5.3414844 26.816406 5.7714844 C 27.076406 6.2124844 27.071641 6.8041406 26.806641 7.2441406 C 26.515641 7.7241406 26.041 8 25.5 8 L 25.5 10 C 26.738 10 27.865578 9.3562969 28.517578 8.2792969 C 29.162578 7.2122969 29.171062 5.8298594 28.539062 4.7558594 C 27.973063 3.7948594 27.025406 3.1653438 25.941406 3.0273438 C 25.671656 2.9930937 25.402484 2.9907656 25.138672 3.0175781 z M 9.2773438 9 L 8.9785156 9.3652344 C 8.5377032 9.9006105 7.4903384 10.844672 4.5820312 11.001953 L 3.8925781 11.039062 L 2.8417969 14.345703 L 3.3671875 14.775391 C 3.3671875 14.775391 4.0408014 15.326164 4.7207031 16.169922 C 5.4006049 17.013679 6 18.114543 6 19 C 6 19.800799 5.4022578 20.923782 4.7167969 21.789062 C 4.0313359 22.654343 3.3496094 23.240234 3.3496094 23.240234 L 2.8457031 23.671875 L 3.9042969 27.003906 L 4.6367188 27.003906 C 7.8391043 27.003906 9.787481 28.366862 10.375 28.802734 L 10.638672 29 L 11.361328 29 L 11.625 28.802734 C 12.212519 28.366862 14.160896 27.003906 17.363281 27.003906 L 18.095703 27.003906 L 18.316406 26.304688 L 19.154297 23.671875 L 18.650391 23.240234 C 18.650391 23.240234 17.968622 22.654175 17.283203 21.789062 C 16.597784 20.92395 16 19.801469 16 19 C 16 18.114543 16.599395 17.01368 17.279297 16.169922 C 17.959199 15.326164 18.632813 14.775391 18.632812 14.775391 L 19.158203 14.345703 L 18.107422 11.039062 L 17.417969 11.001953 C 14.508598 10.844666 13.462681 9.8995876 13.023438 9.3652344 L 12.722656 9 L 9.2773438 9 z M 10.035156 11 L 11.962891 11 C 12.757572 11.775613 14.20183 12.53956 16.578125 12.828125 L 16.867188 13.738281 C 16.571019 14.001638 16.291601 14.205578 15.720703 14.914062 C 14.900605 15.931804 14 17.331457 14 19 C 14 20.625531 14.902216 22.003113 15.716797 23.03125 C 16.292344 23.757686 16.58181 23.984369 16.871094 24.251953 L 16.607422 25.082031 C 13.725663 25.266721 11.905188 26.267636 11 26.880859 C 10.094812 26.267636 8.2743366 25.266721 5.3925781 25.082031 L 5.1289062 24.251953 C 5.4181693 23.9843 5.7076859 23.757745 6.2832031 23.03125 C 7.0977422 22.00303 8 20.625201 8 19 C 8 17.331457 7.0993951 15.931804 6.2792969 14.914062 C 5.7083991 14.205578 5.428981 14.001638 5.1328125 13.738281 L 5.421875 12.828125 C 7.7972016 12.539574 9.2401386 11.774969 10.035156 11 z" font-weight="400" font-family="sans-serif" white-space="normal" overflow="visible" fill="#000000"/></svg>
