<?xml version="1.0" encoding="utf-8"?>
<svg xmlns="http://www.w3.org/2000/svg" viewBox="0 0 32 32" fill="#000000"><path style="text-indent:0;text-align:start;line-height:normal;text-transform:none;block-progression:tb;-inkscape-font-specification:Bitstream Vera Sans" d="M 20 4 C 17.802666 4 16 5.8026661 16 8 C 16 8.9992436 16.452103 9.8313635 17.0625 10.53125 L 10.53125 17.0625 C 9.831241 16.45281 8.9992436 16 8 16 C 5.8026661 16 4 17.802666 4 20 C 4 22.197334 5.8026661 24 8 24 C 8 26.197334 9.8026661 28 12 28 C 14.197334 28 16 26.197334 16 24 C 16 23.000756 15.547897 22.168637 14.9375 21.46875 L 21.46875 14.9375 C 22.168759 15.54719 23.000756 16 24 16 C 26.197334 16 28 14.197334 28 12 C 28 9.8026661 26.197334 8 24 8 C 24 5.8026661 22.197334 4 20 4 z M 20 6 C 21.116666 6 22 6.8833339 22 8 C 22 8.1725393 21.97078 8.3468868 21.90625 8.5625 L 21.71875 9.15625 L 22.15625 9.5625 L 22.4375 9.84375 L 22.84375 10.28125 L 23.4375 10.09375 C 23.653113 10.029223 23.827461 10 24 10 C 25.116666 10 26 10.883334 26 12 C 26 13.116666 25.116666 14 24 14 C 23.271274 14 22.667481 13.612557 22.3125 13.03125 L 21.625 11.9375 L 20.75 12.84375 L 12.84375 20.75 L 11.9375 21.625 L 13.03125 22.3125 C 13.612661 22.666461 14 23.271274 14 24 C 14 25.116666 13.116666 26 12 26 C 10.883334 26 10 25.116666 10 24 C 10 23.827461 10.02922 23.653113 10.09375 23.4375 L 10.28125 22.84375 L 9.84375 22.4375 L 9.5625 22.15625 L 9.15625 21.71875 L 8.5625 21.90625 C 8.3468868 21.970777 8.1725393 22 8 22 C 6.8833339 22 6 21.116666 6 20 C 6 18.883334 6.8833339 18 8 18 C 8.7287256 18 9.3325185 18.387443 9.6875 18.96875 L 10.375 20.0625 L 11.25 19.15625 L 19.15625 11.25 L 20.0625 10.375 L 18.96875 9.6875 C 18.387339 9.3335389 18 8.7287256 18 8 C 18 6.8833339 18.883334 6 20 6 z" overflow="visible" font-family="Bitstream Vera Sans" fill="#000000"/></svg>
