<?xml version="1.0" encoding="utf-8"?>
<svg xmlns="http://www.w3.org/2000/svg" viewBox="0 0 32 32" fill="#000000"><path d="M 2 8 L 2 25 L 23 25 L 23 23 L 30 23 L 30 10 L 23 10 L 23 8 L 2 8 z M 4 10 L 21 10 L 21 23 L 4 23 L 4 10 z M 14.5 12 C 12.019 12 10 14.019 10 16.5 C 10 18.981 12.019 21 14.5 21 C 16.981 21 19 18.981 19 16.5 C 19 14.019 16.981 12 14.5 12 z M 23 12 L 28 12 L 28 21 L 23 21 L 23 19 L 26 19 L 26 17 L 23 17 L 23 16 L 26 16 L 26 14 L 23 14 L 23 12 z M 14.5 14 C 15.878 14 17 15.122 17 16.5 C 17 17.879 15.878 19 14.5 19 C 13.122 19 12 17.879 12 16.5 C 12 15.122 13.122 14 14.5 14 z M 7.5 15 A 1.5 1.5 0 0 0 6 16.5 A 1.5 1.5 0 0 0 7.5 18 A 1.5 1.5 0 0 0 9 16.5 A 1.5 1.5 0 0 0 7.5 15 z M 14.5 16 A 0.5 0.5 0 0 0 14 16.5 A 0.5 0.5 0 0 0 14.5 17 A 0.5 0.5 0 0 0 15 16.5 A 0.5 0.5 0 0 0 14.5 16 z" fill="#000000"/></svg>
