<?xml version="1.0" encoding="utf-8"?>
<svg xmlns="http://www.w3.org/2000/svg" viewBox="0 0 32 32" fill="#000000"><path style="text-indent:0;text-align:start;line-height:normal;text-transform:none;block-progression:tb;-inkscape-font-specification:Sans" d="M 20.96875 2.875 L 20.28125 3.8125 L 16.15625 9.40625 L 14.96875 11 L 15 11 L 16.75 15.28125 L 10.21875 12.8125 L 7.96875 11.96875 L 8.9375 14.15625 L 10.71875 18.1875 L 5.59375 17.40625 L 3 17 L 4.6875 19.03125 L 12.71875 28.65625 L 13 29 L 13.46875 29 L 23.96875 29 L 24 29 L 28.59375 22.5625 L 28.96875 22 L 28.625 21.4375 L 21.84375 11 L 26.625 11 L 29.03125 11 L 27.34375 9.28125 L 21.78125 3.6875 L 20.96875 2.875 z M 21.1875 5.9375 L 24.21875 9 L 18.9375 9 L 21.1875 5.9375 z M 17.15625 11 L 19.46875 11 L 26.5625 21.96875 L 23.4375 26.375 L 19.3125 16.25 L 17.15625 11 z M 11.75 15.53125 L 17.78125 17.8125 L 18.40625 19.375 L 13.09375 18.5625 L 11.75 15.53125 z M 7.90625 19.78125 L 19.28125 21.53125 L 21.5 27 L 13.96875 27 L 7.90625 19.78125 z" overflow="visible" font-family="Sans" fill="#000000"/></svg>
