<?xml version="1.0" encoding="utf-8"?>
<svg xmlns="http://www.w3.org/2000/svg" viewBox="-7 9 32 32" fill="#000000"><path style="text-indent:0;text-align:start;line-height:normal;text-transform:none;block-progression:tb;-inkscape-font-specification:Sans" d="M 16 2.59375 L 15.28125 3.28125 L 4.28125 14.28125 L 3.59375 15 L 4.28125 15.71875 L 7.28125 18.71875 L 8 19.40625 L 8.71875 18.71875 L 16 11.4375 L 23.28125 18.71875 L 24 19.40625 L 24.71875 18.71875 L 27.71875 15.71875 L 28.40625 15 L 27.71875 14.28125 L 16.71875 3.28125 L 16 2.59375 z M 16 5.4375 L 25.5625 15 L 24 16.5625 L 16.71875 9.28125 L 16 8.59375 L 15.28125 9.28125 L 8 16.5625 L 6.4375 15 L 16 5.4375 z M 16 13.59375 L 15.28125 14.28125 L 4.28125 25.28125 L 3.59375 26 L 4.28125 26.71875 L 7.28125 29.71875 L 8 30.40625 L 8.71875 29.71875 L 16 22.4375 L 23.28125 29.71875 L 24 30.40625 L 24.71875 29.71875 L 27.71875 26.71875 L 28.40625 26 L 27.71875 25.28125 L 16.71875 14.28125 L 16 13.59375 z M 16 16.4375 L 25.5625 26 L 24 27.5625 L 16.71875 20.28125 L 16 19.59375 L 15.28125 20.28125 L 8 27.5625 L 6.4375 26 L 16 16.4375 z" transform="translate(-7 9)" overflow="visible" font-family="Sans" fill="#000000"/></svg>
