<?xml version="1.0" encoding="utf-8"?>
<svg xmlns="http://www.w3.org/2000/svg" viewBox="0 0 32 32" fill="#000000"><path style="text-indent:0;text-align:start;line-height:normal;text-transform:none;block-progression:tb;-inkscape-font-specification:Sans" d="M 18.40625 4.0625 C 14.110704 4.0625 11.746065 7.2866918 11.25 8 L 10.25 8 C 8.3827399 8 6.8296706 8.9003364 5.75 10.0625 C 4.6703294 11.224664 4 12.638304 4 14 L 4 14.40625 L 4.28125 14.6875 C 4.28125 14.6875 6.1109799 16.590792 9.0625 16.9375 C 9.1455954 18.009221 9.3524717 18.805045 9.5625 19.40625 C 9.8216712 20.148127 10 20.574667 10 21.40625 C 10 21.36114 9.6739748 22.083052 9.1875 22.59375 C 8.7010252 23.104448 8.21875 23.5 8.21875 23.5 C 7.9577216 23.574919 7.7290863 23.596168 7.28125 23.96875 C 6.6244235 24.515204 6 25.537587 6 27 L 6 28 L 7 28 L 11 28 L 11 26 L 8.375 26 C 8.4564906 25.884064 8.4779422 25.570349 8.5625 25.5 C 8.8161735 25.288954 9 25.25 9 25.25 L 9.25 25.21875 L 9.4375 25.0625 C 9.4375 25.0625 10.021975 24.601802 10.625 23.96875 C 11.228025 23.335698 12 22.61236 12 21.40625 C 12 20.240833 11.678329 19.439373 11.4375 18.75 C 11.250198 18.213847 11.093384 17.699032 11.03125 16.90625 C 12.061293 16.72168 12.90625 16.34375 12.90625 16.34375 L 12.1875 14.46875 C 12.1875 14.46875 10.702997 15 9.96875 15 C 7.7846583 15 6.5272028 13.981393 6.09375 13.59375 C 6.2099505 12.952667 6.5689248 12.136976 7.21875 11.4375 C 7.9975794 10.599164 9.0312601 10 10.25 10 L 11.6875 10 L 12.21875 10 L 12.53125 9.5625 C 12.53125 9.5625 14.892854 6.0625 18.40625 6.0625 C 18.786399 6.0625 19 6.2676163 19 6.5625 L 19 6.59375 C 19 6.850148 18.822813 7.0325475 18.53125 7.0625 C 16.566177 7.2661799 15.107127 7.9283517 14.125 8.65625 C 13.633936 9.0201992 13.269289 9.4193231 13 9.78125 C 12.730711 10.143177 12.5 10.381759 12.5 11 C 12.630446 11.098551 13 11.726621 13 12.375 C 13 13.22667 13.414927 13.97692 13.96875 14.46875 C 14.522573 14.96058 15.19367 15.252776 15.875 15.46875 C 17.237659 15.900698 18.699547 16 19.625 16 C 23.475872 16 25 18.394363 25 19.9375 C 25 20.72297 24.713339 21.043791 24.25 21.5625 C 24.01833 21.821854 23.757938 22.119585 23.5 22.5 C 23.242062 22.880415 23 23.408697 23 24 C 23 24.83994 23.344433 25.447093 23.59375 25.9375 C 23.60899 25.96748 23.61057 25.97102 23.625 26 L 14.875 26 C 15.597466 25.536608 16.945342 25 20 25 L 20 23 C 19.342804 23 18.13965 22.890857 17.25 22.59375 C 16.805175 22.445197 16.447889 22.25004 16.25 22.0625 C 16.052111 21.87496 16 21.764766 16 21.5 C 16 21.32393 16.0596 21.209003 16.21875 21.03125 C 16.377902 20.853497 16.656278 20.66226 17 20.5 C 17.687444 20.17548 18.627835 20 19 20 L 19 18 C 18.210165 18 17.147056 18.20502 16.125 18.6875 C 15.613972 18.92874 15.128036 19.230378 14.71875 19.6875 C 14.309464 20.144622 14 20.79007 14 21.5 C 14 22.311234 14.365389 23.04829 14.875 23.53125 C 14.92473 23.578379 14.979533 23.612894 15.03125 23.65625 C 14.150428 23.95334 13.501769 24.317802 13.03125 24.75 C 12.483173 25.253439 12.178624 25.832703 12.0625 26.28125 C 11.946376 26.729797 12 27.15625 12 27.15625 L 12.15625 28 L 13 28 L 25 28 L 26 28 L 26 27 C 26 26.155738 25.656933 25.524343 25.40625 25.03125 C 25.155567 24.538157 25 24.19706 25 24 C 25 23.872303 25.0079 23.797647 25.125 23.625 C 25.242062 23.452353 25.48167 23.206646 25.75 22.90625 C 25.772556 22.880998 25.789386 22.839065 25.8125 22.8125 C 26.018897 22.919486 26.251472 23 26.5 23 C 27.328427 23 28 22.328427 28 21.5 C 28 20.844162 27.586412 20.29759 27 20.09375 C 27.002108 20.040694 27 19.99184 27 19.9375 C 27 17.116637 24.334128 14 19.625 14 C 18.857453 14 17.497341 13.888552 16.46875 13.5625 C 15.954455 13.399474 15.549583 13.179295 15.3125 12.96875 C 15.075417 12.758205 15 12.63833 15 12.375 C 15 11.847711 14.924606 11.314604 14.75 10.8125 C 14.889637 10.655483 15.057809 10.470013 15.3125 10.28125 C 15.998148 9.7730856 17.113882 9.2348207 18.71875 9.0625 C 18.72835 9.061515 18.74044 9.06359 18.75 9.0625 C 19.983336 8.9214011 21 7.873432 21 6.59375 L 21 6.5625 C 21 5.1373837 19.744101 4.0625 18.40625 4.0625 z M 9 11 C 8.4477153 11 8 11.447715 8 12 C 8 12.552285 8.4477153 13 9 13 C 9.5522847 13 10 12.552285 10 12 C 10 11.447715 9.5522847 11 9 11 z" overflow="visible" font-family="Sans" fill="#000000"/></svg>
