<?xml version="1.0" encoding="utf-8"?>
<svg xmlns="http://www.w3.org/2000/svg" viewBox="0 0 32 32" fill="#000000"><path style="text-indent:0;text-align:start;line-height:normal;text-transform:none;block-progression:tb;-inkscape-font-specification:Sans" d="M 9 4 L 9 5 L 6 5 L 5 5 L 5 6 L 5 26 L 5 27 L 6 27 L 26 27 L 27 27 L 27 26 L 27 6 L 27 5 L 26 5 L 23 5 L 23 4 L 21 4 L 21 5 L 11 5 L 11 4 L 9 4 z M 7 7 L 9 7 L 9 8 L 11 8 L 11 7 L 21 7 L 21 8 L 23 8 L 23 7 L 25 7 L 25 9 L 7 9 L 7 7 z M 7 11 L 25 11 L 25 25 L 7 25 L 7 11 z M 14.875 14 L 14.59375 14.40625 C 14.59375 14.40625 14.047628 15 13.5 15 L 13.5 17 C 14.157155 17 14.575532 16.721022 15 16.46875 L 15 22 L 17 22 L 17 15 L 17 14 L 16 14 L 15.375 14 L 14.875 14 z M 9 16 L 9 17 L 8 17 L 8 19 L 9 19 L 9 20 L 11 20 L 11 19 L 12 19 L 12 17 L 11 17 L 11 16 L 9 16 z M 18 16 L 18 18.5 C 18 19.870455 19.129545 21 20.5 21 C 20.671307 21 20.837957 20.971063 21 20.9375 L 21 21.5 C 21 21.779545 20.779545 22 20.5 22 C 20.220455 22 20 21.779545 20 21.5 L 18 21.5 C 18 22.870455 19.129545 24 20.5 24 C 21.870455 24 23 22.870455 23 21.5 L 23 18.5 L 23 16 L 21 16 L 21 18.5 C 21 18.779545 20.779545 19 20.5 19 C 20.220455 19 20 18.779545 20 18.5 L 20 16 L 18 16 z" fill="#000000"/></svg>
