<?xml version="1.0" encoding="utf-8"?>
<svg xmlns="http://www.w3.org/2000/svg" viewBox="0 0 32 32" fill="#000000"><path style="text-indent:0;text-align:start;line-height:normal;text-transform:none;block-progression:tb;-inkscape-font-specification:Bitstream Vera Sans" d="M 2 6 L 2 7 L 2 25 L 2 26 L 3 26 L 29 26 L 30 26 L 30 25 L 30 7 L 30 6 L 29 6 L 3 6 L 2 6 z M 6.4375 8 L 13 8 L 13 12.1875 L 6.4375 8 z M 15 8 L 17 8 L 17 13 L 17 15 L 28 15 L 28 17 L 17 17 L 17 19 L 17 24 L 15 24 L 15 18 L 15 17 L 4 17 L 4 15 L 15 15 L 15 13 L 15 8 z M 19 8 L 25.5625 8 L 19 12.1875 L 19 8 z M 4 8.8125 L 10.5625 13 L 4 13 L 4 8.8125 z M 28 8.8125 L 28 13 L 21.4375 13 L 28 8.8125 z M 4 19 L 10.5625 19 L 4 23.1875 L 4 19 z M 21.4375 19 L 28 19 L 28 23.1875 L 21.4375 19 z M 13 19.8125 L 13 24 L 6.4375 24 L 13 19.8125 z M 19 19.8125 L 25.5625 24 L 19 24 L 19 19.8125 z" fill="#000000"/></svg>
