<?xml version="1.0" encoding="utf-8"?>
<svg xmlns="http://www.w3.org/2000/svg" viewBox="0 0 32 32" fill="#000000"><path style="text-indent:0;text-align:start;line-height:normal;text-transform:none;block-progression:tb;-inkscape-font-specification:Bitstream Vera Sans" d="M 10 4 C 7.7901961 4 6 5.7901961 6 8 C 6 10.209804 7.7901961 12 10 12 L 11 12 L 11 14.59375 L 13 14.59375 L 13 12 L 20 12 L 20 26 L 16.96875 26 C 17.610479 25.158989 18 24.130812 18 23 L 18 19 L 18 18 L 17 18 L 8 18 L 7 18 C 5.3545455 18 4 19.354545 4 21 C 4 22.645455 5.3545455 24 7 24 L 7.09375 24 C 7.2475433 24.744516 7.5842747 25.414221 8.03125 26 L 6 26 L 6 28 L 27 28 L 28 28 L 28 27 L 28 5 L 28 4 L 27 4 L 10 4 z M 10 6 L 26 6 L 26 26 L 22 26 L 22 11 L 22 10 L 21 10 L 10 10 C 8.8098039 10 8 9.1901961 8 8 C 8 6.8098039 8.8098039 6 10 6 z M 7 20 L 7 22 C 6.4454545 22 6 21.554545 6 21 C 6 20.445455 6.4454545 20 7 20 z M 9 20 L 16 20 L 16 23 C 16 24.654545 14.654545 26 13 26 L 12 26 C 10.345455 26 9 24.654545 9 23 L 9 20 z M 24 21 C 23.447715 21 23 21.447715 23 22 C 23 22.552285 23.447715 23 24 23 C 24.552285 23 25 22.552285 25 22 C 25 21.447715 24.552285 21 24 21 z" overflow="visible" font-family="Bitstream Vera Sans" fill="#000000"/></svg>
