<?xml version="1.0" encoding="utf-8"?>
<svg xmlns="http://www.w3.org/2000/svg" viewBox="0 0 32 32" fill="#000000"><path d="M 19 4 C 18.447715 4 18 4.4477153 18 5 C 18 5.5522847 18.447715 6 19 6 C 19.552285 6 20 5.5522847 20 5 C 20 4.4477153 19.552285 4 19 4 z M 22 5 C 21.447715 5 21 5.4477153 21 6 C 21 6.5522847 21.447715 7 22 7 C 22.552285 7 23 6.5522847 23 6 C 23 5.4477153 22.552285 5 22 5 z M 16 6 C 15.447715 6 15 6.4477153 15 7 C 15 7.5522847 15.447715 8 16 8 C 16.552285 8 17 7.5522847 17 7 C 17 6.4477153 16.552285 6 16 6 z M 12.0625 7.125 C 11.806625 7.125 11.53875 7.21075 11.34375 7.40625 L 10.21875 8.53125 C 7.86675 7.54425 5.2505 7.84325 3.5625 9.53125 C 1.2225 11.87125 1.55225 15.98975 4.28125 18.71875 C 7.01025 21.44775 11.12975 21.7775 13.46875 19.4375 C 15.15675 17.7495 15.45575 15.13325 14.46875 12.78125 L 15.59375 11.65625 C 15.98475 11.26525 15.98475 10.64 15.59375 10.25 L 12.75 7.40625 C 12.5545 7.21075 12.318375 7.125 12.0625 7.125 z M 23 8 C 22.447715 8 22 8.4477153 22 9 C 22 9.5522847 22.447715 10 23 10 C 23.552285 10 24 9.5522847 24 9 C 24 8.4477153 23.552285 8 23 8 z M 12.75 9.25 C 13.006 9.25 13.27375 9.33575 13.46875 9.53125 C 13.85975 9.92225 13.85975 10.5475 13.46875 10.9375 C 13.07875 11.3275 12.4525 11.3285 12.0625 10.9375 C 11.6725 10.5465 11.6725 9.92125 12.0625 9.53125 C 12.2575 9.33575 12.494 9.25 12.75 9.25 z M 7.15625 9.96875 C 8.544834 9.8523535 10.125625 10.438125 11.34375 11.65625 C 13.29275 13.60525 13.6225 16.47125 12.0625 18.03125 C 10.5025 19.59125 7.6365 19.2615 5.6875 17.3125 C 3.7385 15.3635 3.40875 12.4975 4.96875 10.9375 C 5.55375 10.3525 6.3230996 10.038588 7.15625 9.96875 z M 23 11 C 22.447715 11 22 11.447715 22 12 C 22 12.552285 22.447715 13 23 13 C 23.552285 13 24 12.552285 24 12 C 24 11.447715 23.552285 11 23 11 z M 21 14 C 20.448 14 20 14.448 20 15 L 20 16.59375 C 17.639 17.55875 16 19.612 16 22 C 16 25.309 19.14 28 23 28 C 26.86 28 30 25.309 30 22 C 30 19.612 28.361 17.55875 26 16.59375 L 26 15 C 26 14.448 25.552 14 25 14 L 21 14 z M 23 15 C 23.552 15 24 15.448 24 16 C 24 16.552 23.552 17 23 17 C 22.448 17 22 16.552 22 16 C 22 15.448 22.448 15 23 15 z M 23 18 C 25.757 18 28 19.794 28 22 C 28 24.206 25.757 26 23 26 C 20.243 26 18 24.206 18 22 C 18 19.794 20.243 18 23 18 z" fill="#000000"/></svg>
