<?xml version="1.0" encoding="utf-8"?>
<svg xmlns="http://www.w3.org/2000/svg" viewBox="0 0 32 32" fill="#000000"><path style="text-indent:0;text-align:start;line-height:normal;text-transform:none;block-progression:tb;-inkscape-font-specification:Bitstream Vera Sans" d="M 5 5 L 5 6 L 5 26 L 5 27 L 6 27 L 26 27 L 27 27 L 27 26 L 27 6 L 27 5 L 26 5 L 6 5 L 5 5 z M 7 7 L 25 7 L 25 25 L 7 25 L 7 7 z M 13.21875 11.9375 L 11.03125 14.46875 C 10.375452 15.223313 10 16.186954 10 17.1875 L 10 17.5 C 10 18.869063 11.130937 20 12.5 20 L 13.5 20 C 14.869063 20 16 18.869063 16 17.5 C 16 16.130937 14.869063 15 13.5 15 L 13.21875 15 L 14.71875 13.25 L 13.21875 11.9375 z M 20 12 L 20 15 L 19 15 L 19 12.03125 L 17 12.03125 L 17 16 L 17 17 L 18 17 L 20 17 L 20 20 L 22 20 L 22 12 L 20 12 z M 12.0625 17 L 13.5 17 C 13.786937 17 14 17.213063 14 17.5 C 14 17.786937 13.786937 18 13.5 18 L 12.5 18 C 12.213063 18 12 17.786937 12 17.5 L 12 17.1875 C 12 17.11952 12.0561 17.067205 12.0625 17 z" overflow="visible" font-family="Bitstream Vera Sans" fill="#000000"/></svg>
