<?xml version="1.0" encoding="utf-8"?>
<svg xmlns="http://www.w3.org/2000/svg" viewBox="0 0 32 32" fill="#000000"><path style="text-indent:0;text-align:start;line-height:normal;text-transform:none;block-progression:tb;-inkscape-font-specification:Sans" d="M 5 3 L 5 4 L 5 28 L 5 29 L 6 29 L 26 29 L 27 29 L 27 28 L 27 4 L 27 3 L 26 3 L 6 3 L 5 3 z M 7 5 L 25 5 L 25 27 L 7 27 L 7 5 z M 12 8 C 10.895431 8 10 8.8954305 10 10 C 10 10.536097 10.219108 11.015894 10.5625 11.375 C 9.6343409 11.8877 9 12.874034 9 14 L 11 14 C 11 13.43497 11.43497 13 12 13 C 12.56503 13 13 13.43497 13 14 L 15 14 C 15 12.874034 14.365659 11.8877 13.4375 11.375 C 13.780892 11.015894 14 10.536097 14 10 C 14 8.8954305 13.104569 8 12 8 z M 17 8 L 17 10 L 23 10 L 23 8 L 17 8 z M 17 12 L 17 14 L 23 14 L 23 12 L 17 12 z M 9 18 L 9 20 L 17 20 L 17 18 L 9 18 z M 19 18 L 19 20 L 23 20 L 23 18 L 19 18 z M 9 22 L 9 24 L 14 24 L 14 22 L 9 22 z M 19 22 L 19 24 L 23 24 L 23 22 L 19 22 z" fill="#000000"/></svg>
