<?xml version="1.0" encoding="utf-8"?>
<svg xmlns="http://www.w3.org/2000/svg" viewBox="0 0 32 32" fill="#000000"><path style="text-indent:0;text-align:start;line-height:normal;text-transform:none;block-progression:tb;-inkscape-font-specification:Bitstream Vera Sans" d="M 16 3 C 8.8321429 3 3 8.8321429 3 16 C 3 23.167857 8.8321429 29 16 29 C 23.167857 29 29 23.167857 29 16 C 29 8.8321429 23.167857 3 16 3 z M 14.875 5.0625 C 14.916024 5.0583495 14.958843 5.0662007 15 5.0625 L 15 11.09375 C 12.727252 11.562087 11 13.594118 11 16 C 11 18.749579 13.250421 21 16 21 C 16.74796 21 17.454917 20.829054 18.09375 20.53125 L 22.46875 24.90625 C 20.65452 26.225176 18.420773 27 16 27 C 9.9130231 27 5 22.086977 5 16 C 5 10.293459 9.3197247 5.624552 14.875 5.0625 z M 17 5.0625 C 22.284136 5.5376347 26.462365 9.7158645 26.9375 15 L 20.90625 15 C 20.504819 13.05193 18.94807 11.495181 17 11.09375 L 17 5.0625 z M 16 13 C 17.668699 13 19 14.331301 19 16 C 19 17.668699 17.668699 19 16 19 C 14.331301 19 13 17.668699 13 16 C 13 14.331301 14.331301 13 16 13 z M 20.90625 17 L 26.9375 17 C 26.70966 19.533884 25.647894 21.820181 24 23.5625 L 19.71875 19.28125 C 20.288299 18.638079 20.726922 17.870244 20.90625 17 z" overflow="visible" font-family="Bitstream Vera Sans" fill="#000000"/></svg>
