<?xml version="1.0" encoding="utf-8"?>
<svg xmlns="http://www.w3.org/2000/svg" viewBox="0 0 32 32" fill="#000000"><path style="text-indent:0;text-align:start;line-height:normal;text-transform:none;block-progression:tb;-inkscape-font-specification:Sans" d="M 16 4 C 14.08219 4 12.421404 4.8696279 11.15625 6.125 C 10.93907 6.0799897 10.736214 6 10.5 6 C 8.5788117 6 7 7.5788117 7 9.5 C 7 9.6508436 7.0431272 9.7673596 7.0625 9.90625 C 5.8805602 10.719408 5 11.966134 5 13.5 C 5 15.973438 7.026562 18 9.5 18 L 22.5 18 C 24.973438 18 27 15.973438 27 13.5 C 27 11.060546 25.020799 9.0858792 22.59375 9.03125 C 21.727024 6.1485269 19.155482 4 16 4 z M 16 6 C 18.504527 6 20.559839 7.8293975 20.9375 10.21875 L 21.09375 11.21875 L 22.09375 11.03125 C 22.265794 11.002274 22.391452 11 22.5 11 C 23.892562 11 25 12.107438 25 13.5 C 25 14.892562 23.892562 16 22.5 16 L 9.5 16 C 8.107438 16 7 14.892562 7 13.5 C 7 12.455877 7.6369215 11.56661 8.53125 11.1875 L 9.375 10.84375 L 9.09375 9.96875 C 9.0360712 9.7921087 9 9.6386899 9 9.5 C 9 8.6591883 9.6591883 8 10.5 8 C 10.675248 8 10.851115 8.02522 11.03125 8.09375 L 11.6875 8.34375 L 12.15625 7.8125 C 13.073922 6.7071226 14.445998 6 16 6 z M 3 21 L 3 22 L 3 28 L 3 29 L 4 29 L 28 29 L 29 29 L 29 28 L 29 22 L 29 21 L 28 21 L 4 21 L 3 21 z M 5 23 L 27 23 L 27 27 L 5 27 L 5 23 z M 8 24 C 7.4477153 24 7 24.447715 7 25 C 7 25.552285 7.4477153 26 8 26 C 8.5522847 26 9 25.552285 9 25 C 9 24.447715 8.5522847 24 8 24 z M 11 24 L 11 26 L 25 26 L 25 24 L 11 24 z" overflow="visible" font-family="Sans" fill="#000000"/></svg>
