<?xml version="1.0" encoding="utf-8"?>
<svg xmlns="http://www.w3.org/2000/svg" viewBox="0 0 32 32" fill="#000000"><path style="text-indent:0;text-align:start;line-height:normal;text-transform:none;block-progression:tb;-inkscape-font-specification:Sans" d="M 0 7 L 0 8 L 0 24 L 0 25 L 1 25 L 31 25 L 32 25 L 32 24 L 32 8 L 32 7 L 31 7 L 1 7 L 0 7 z M 2 9 L 30 9 L 30 23 L 2 23 L 2 9 z M 8 12 L 8 14 L 9 14 L 9 20 L 11 20 L 11 14 L 12 14 L 12 12 L 8 12 z M 13 12 L 13 20 L 15 20 L 15 17 L 16 17 L 16 20 L 18 20 L 18 12 L 16 12 L 16 15 L 15 15 L 15 12 L 13 12 z M 19 12 L 19 13 L 19 19 L 19 20 L 20 20 L 24 20 L 24 18 L 21 18 L 21 17 L 23 17 L 23 15 L 21 15 L 21 14 L 24 14 L 24 12 L 20 12 L 19 12 z" fill="#000000"/></svg>
