<?xml version="1.0" encoding="utf-8"?>
<svg xmlns="http://www.w3.org/2000/svg" viewBox="0 0 32 32" fill="#000000"><path style="line-height:normal;text-indent:0;text-align:start;text-decoration-line:none;text-decoration-style:solid;text-decoration-color:#000;text-transform:none;block-progression:tb;isolation:auto;mix-blend-mode:normal" d="M 12.292969 4.4667969 L 10.212891 9.8867188 L 6.3144531 10.023438 L 2.0722656 20.628906 L 3.9277344 21.371094 L 7.6855469 11.976562 L 9.4335938 11.916016 L 7.7128906 16.396484 C 7.3563476 16.674452 7.0496829 16.971234 6.7988281 17.269531 C 5.845958 18.40261 5.5507812 19.583984 5.5507812 19.583984 L 5.2363281 20.839844 L 6.0117188 20.832031 L 4.0976562 25.816406 L 5.9648438 26.533203 L 8.1621094 20.808594 L 12.033203 20.767578 L 12.035156 20.767578 C 13.800187 20.784208 15.709045 21.30676 17.576172 21.857422 C 19.443885 22.408275 21.256 23 23 23 C 24.602829 23 26.186654 22.39449 27.419922 21.820312 C 28.653189 21.246136 29.544922 20.664062 29.544922 20.664062 L 30.193359 20.242188 L 27.402344 11.873047 L 22.283203 13.005859 L 13.332031 9.7773438 L 12.384766 9.8105469 L 14.160156 5.1835938 L 12.292969 4.4667969 z M 13.015625 11.789062 L 22.150391 15.082031 L 26.076172 14.214844 L 27.787109 19.349609 C 27.467917 19.540702 27.286173 19.675301 26.576172 20.005859 C 25.474689 20.518682 24.058171 21 23 21 C 21.744 21 20.028318 20.493651 18.142578 19.9375 C 16.256839 19.381349 14.187202 18.787281 12.052734 18.767578 L 12.042969 18.767578 L 8.1894531 18.808594 C 8.273938 18.684301 8.2206449 18.68677 8.3300781 18.556641 C 8.985958 17.776719 10.019638 17 11.998047 17 L 17.998047 17 L 17.998047 15 L 11.998047 15 C 11.391326 15 10.834653 15.067707 10.322266 15.181641 L 11.605469 11.837891 L 13.015625 11.789062 z" font-weight="400" font-family="sans-serif" white-space="normal" overflow="visible" fill="#000000"/></svg>
