<?xml version="1.0" encoding="utf-8"?>
<svg xmlns="http://www.w3.org/2000/svg" viewBox="0 0 32 32" fill="#000000"><path style="text-indent:0;text-align:start;line-height:normal;text-transform:none;block-progression:tb;-inkscape-font-specification:Sans" d="M 15.84375 4 C 13.580704 4.032179 11.33068 5.2979599 10.21875 7.6875 L 9.9375 8.25 L 9.34375 8.34375 C 4.1920324 9.1845348 2.2027454 15.782708 5.96875 19.4375 L 6.40625 19.875 L 6.3125 20.5 C 5.5099276 25.721962 11.053579 29.732004 15.625 27.1875 L 16.15625 26.90625 L 16.6875 27.1875 C 21.326899 29.599941 26.754976 25.447017 25.8125 20.25 L 25.71875 19.59375 L 26.15625 19.15625 C 29.820603 15.397099 27.640445 8.8814505 22.46875 8.1875 L 22.46875 8.15625 L 21.875 8.09375 L 21.59375 7.53125 C 20.416872 5.1734093 18.106796 3.9678212 15.84375 4 z M 15.875 6 C 17.427204 5.977929 18.972378 6.7543407 19.8125 8.4375 L 20.3125 9.46875 L 20.5625 9.9375 L 21.09375 10 L 22.21875 10.15625 C 25.841055 10.6423 27.316397 15.085151 24.71875 17.75 L 23.90625 18.59375 L 23.5625 18.9375 L 23.65625 19.46875 L 23.84375 20.59375 C 24.519274 24.318733 20.889601 27.103809 17.625 25.40625 L 16.59375 24.875 L 16.125 24.625 L 15.65625 24.90625 L 14.65625 25.4375 C 11.437671 27.228996 7.7370724 24.556538 8.3125 20.8125 L 8.46875 19.6875 L 8.5625 19.15625 L 8.1875 18.8125 L 7.375 18 C 4.7070046 15.410792 6.0772176 10.932965 9.6875 10.34375 L 10.78125 10.15625 L 11.3125 10.0625 L 11.53125 9.59375 L 12.03125 8.53125 C 12.82532 6.8247901 14.322796 6.0220712 15.875 6 z M 16 12 C 15.448 12 15 12.448 15 13 C 15 13.552 15.90625 16.96875 15.90625 16.96875 C 15.90625 16.96875 17 13.552 17 13 C 17 12.448 16.552 12 16 12 z M 15.90625 16.96875 C 15.90625 16.96875 19.57475 16.7505 20.09375 16.5625 C 20.61375 16.3745 20.8755 15.80025 20.6875 15.28125 C 20.4995 14.76225 19.92525 14.4995 19.40625 14.6875 C 18.88725 14.8755 15.90625 16.96875 15.90625 16.96875 z M 15.90625 16.96875 C 15.90625 16.96875 17.54025 20.24225 17.90625 20.65625 C 18.27225 21.06925 18.8995 21.115 19.3125 20.75 C 19.7265 20.384 19.77225 19.75775 19.40625 19.34375 C 19.04125 18.92975 15.90625 16.96875 15.90625 16.96875 z M 15.90625 16.96875 C 15.90625 16.96875 13.01125 19.0145 12.65625 19.4375 C 12.30125 19.8615 12.35825 20.48875 12.78125 20.84375 C 13.20525 21.19875 13.8325 21.14175 14.1875 20.71875 C 14.5425 20.29475 15.90625 16.96875 15.90625 16.96875 z M 15.90625 16.96875 C 15.90625 16.96875 13.11175 14.8785 12.59375 14.6875 C 12.07575 14.4965 11.5035 14.76325 11.3125 15.28125 C 11.1215 15.79925 11.38825 16.3715 11.90625 16.5625 C 12.42425 16.7525 15.90625 16.96875 15.90625 16.96875 z" overflow="visible" font-family="Sans" fill="#000000"/></svg>
