<?xml version="1.0" encoding="utf-8"?>
<svg xmlns="http://www.w3.org/2000/svg" viewBox="0 0 32 32" fill="#000000"><path style="text-indent:0;text-align:start;line-height:normal;text-transform:none;block-progression:tb;-inkscape-font-specification:Bitstream Vera Sans" d="M 27.90625 3.0625 C 27.90625 3.0625 26.22375 3.71275 25.84375 4.09375 C 25.526601 4.4108994 25.401724 4.8360675 25.4375 5.25 L 24.59375 4.4375 L 23.53125 5.5 L 24.40625 6.40625 L 23.6875 7.09375 L 22.8125 6.21875 L 21.75 7.28125 L 22.5625 8.09375 L 20.75 9.78125 L 20.46875 9.5 C 19.47459 8.5058405 18.154474 8 16.84375 8 C 15.533026 8 14.24416 8.5058405 13.25 9.5 L 11.75 10.96875 L 11.21875 11.5 L 11.59375 12.15625 C 11.990647 12.9025 11.969237 13.624513 11.15625 14.4375 C 10.63926 14.95449 10.156856 15.10803 9.6875 15.09375 C 9.218144 15.07947 8.7176078 14.873858 8.28125 14.4375 L 7.59375 13.71875 L 6.875 14.4375 L 4.8125 16.5 C 2.4224229 18.890077 2.4224229 22.797423 4.8125 25.1875 L 6.8125 27.1875 C 9.2025771 29.577577 13.109923 29.577577 15.5 27.1875 L 17.5625 25.125 L 18.28125 24.40625 L 17.5625 23.71875 C 17.126142 23.282392 16.92053 22.781856 16.90625 22.3125 C 16.89197 21.843144 17.04551 21.36074 17.5625 20.84375 C 18.375487 20.030763 19.0975 20.009353 19.84375 20.40625 L 20.5 20.78125 L 21.03125 20.25 L 22.5 18.75 C 24.488319 16.761681 24.488319 13.519569 22.5 11.53125 L 22.21875 11.25 L 23.90625 9.4375 L 24.6875 10.21875 L 25.75 9.15625 L 24.90625 8.3125 L 25.59375 7.59375 L 26.4375 8.4375 L 27.5 7.375 L 26.6875 6.5625 C 27.120339 6.6183031 27.574044 6.4890396 27.90625 6.15625 C 28.28625 5.77625 28.9375 4.09375 28.9375 4.09375 L 27.90625 3.0625 z M 16.84375 10 C 17.638526 10 18.45066 10.29441 19.0625 10.90625 L 19.28125 11.125 L 14.375 15.625 L 16.34375 17.625 L 20.875 12.71875 L 21.09375 12.9375 C 22.317431 14.161181 22.317431 16.120069 21.09375 17.34375 L 19.9375 18.5 C 18.665233 18.167565 17.252121 18.341629 16.15625 19.4375 C 15.30824 20.28551 14.87478 21.340606 14.90625 22.375 C 14.92746 23.072294 15.192496 23.723165 15.5625 24.3125 L 14.0625 25.78125 C 12.436577 27.407173 9.8446729 27.407173 8.21875 25.78125 L 8.15625 25.71875 L 11.84375 21.3125 L 10.6875 20.15625 L 6.28125 23.84375 L 6.21875 23.78125 C 4.5928271 22.155327 4.5928271 19.563423 6.21875 17.9375 L 6.28125 17.875 L 7.6875 16.4375 C 8.2768346 16.807504 8.9277057 17.072536 9.625 17.09375 C 10.659394 17.12522 11.71449 16.69176 12.5625 15.84375 C 13.658371 14.747879 13.832435 13.334767 13.5 12.0625 L 14.65625 10.90625 C 15.26809 10.29441 16.048974 10 16.84375 10 z" overflow="visible" font-family="Bitstream Vera Sans" fill="#000000"/></svg>
