<?xml version="1.0" encoding="utf-8"?>
<svg xmlns="http://www.w3.org/2000/svg" viewBox="-8 10 32 32" fill="#000000"><path d="M 16 4 C 10.486 4 6 8.486 6 14 L 6 17.59375 L 6.03125 17.59375 C 6.01325 17.72475 6 17.864 6 18 C 6 19.32 6.84425 20.44375 8.03125 20.84375 C 8.30525 23.44075 9.843 25.65425 12 26.90625 L 12 27 C 12.045 27 12.08 27.001 12.125 27 C 13.273 27.638 14.595 28 16 28 C 20.126 28 23.54575 24.85975 23.96875 20.84375 C 25.15575 20.44375 26 19.32 26 18 C 26 17.864 25.98675 17.72475 25.96875 17.59375 L 26 17.59375 L 26 14 C 26 8.486 21.514 4 16 4 z M 16 6 C 20.411 6 24 9.589 24 14 L 24 15.1875 C 23.968 15.1765 23.93825 15.135 23.90625 15.125 C 23.51225 13.331 21.91 12 20 12 C 19.448 12 19 11.551 19 11 L 19 10 L 17 10 L 17 11 C 17 11.551 16.551 12 16 12 L 12 12 C 10.089 12 8.48775 13.331 8.09375 15.125 C 8.06175 15.135 8.032 15.1765 8 15.1875 L 8 14 C 8 9.589 11.589 6 16 6 z M 18 13.21875 C 18.531 13.69475 19.232 14 20 14 C 19.998 14.104 19.96675 15.47675 19.59375 17.21875 C 19.42675 17.09375 19.224 17 19 17 C 18.448 17 18 17.448 18 18 C 18 18.552 18.448 19 19 19 C 19.04 19 19.086 18.97375 19.125 18.96875 C 18.216 21.72775 16.37725 24.66375 12.65625 24.96875 C 12.19825 24.65775 11.76225 24.297 11.40625 23.875 C 12.69225 23.622 13.8075 22.99825 14.6875 22.03125 C 16.9005 19.60025 17.06925 15.5965 17.03125 13.8125 C 17.38725 13.6805 17.721 13.46775 18 13.21875 z M 12 14 L 15.03125 14 C 15.05125 15.818 14.7525 18.9685 13.1875 20.6875 C 12.4545 21.4925 11.52375 21.89875 10.34375 21.96875 C 10.12775 21.34975 10 20.691 10 20 L 10 19 L 9 19 C 8.449 19 8 18.552 8 18 C 8 17.448 8.449 17 9 17 L 10 17 L 10 16 C 10 14.897 10.897 14 12 14 z M 21.90625 15.4375 C 21.95725 15.6145 22 15.808 22 16 L 22 17 L 23 17 C 23.552 17 24 17.448 24 18 C 24 18.552 23.552 19 23 19 L 22 19 L 22 20 C 22 23.257 19.39325 25.917 16.15625 26 C 20.03725 23.922 21.55925 19.0145 21.90625 15.4375 z M 13 17 C 12.447715 17 12 17.447715 12 18 C 12 18.552285 12.447715 19 13 19 C 13.552285 19 14 18.552285 14 18 C 14 17.447715 13.552285 17 13 17 z" transform="translate(-8 10)" fill="#000000"/></svg>
