<?xml version="1.0" encoding="utf-8"?>
<svg xmlns="http://www.w3.org/2000/svg" viewBox="0 0 32 32" fill="#000000"><path style="text-indent:0;text-align:start;line-height:normal;text-transform:none;block-progression:tb;-inkscape-font-specification:Sans" d="M 16 4 C 9.3844277 4 4 9.3844277 4 16 C 4 22.615572 9.3844277 28 16 28 C 21.853999 28 26.732973 23.773221 27.78125 18.21875 C 27.78075 18.193955 27.793749 18.166449 27.78125 18.09375 C 27.903156 17.409069 28 16.719108 28 16 C 28 9.3844277 22.615572 4 16 4 z M 16 6 C 16.910727 6 17.787313 6.1170721 18.625 6.34375 C 18.745093 7.2183404 18.717838 8.3053797 18.59375 9.28125 C 18.503498 9.9910198 18.364378 10.583403 18.25 11.03125 C 18.165012 11.023868 18.086757 11 18 11 C 17.736113 11 17.494564 11.059659 17.25 11.125 C 16.642276 10.00695 15.700222 8.8852243 14.6875 7.875 C 14.150914 7.3397363 13.586662 6.8509614 13.0625 6.4375 C 13.994155 6.1517089 14.97301 6 16 6 z M 20.6875 7.1875 C 23.687773 8.7770318 25.760352 11.819117 25.96875 15.40625 C 23.817293 13.119243 21.214916 12.441305 20.46875 12.28125 C 20.362071 12.128771 20.226058 12.005266 20.09375 11.875 C 20.096471 11.866226 20.091043 11.852603 20.09375 11.84375 C 20.275483 11.249339 20.44236 10.476068 20.5625 9.53125 C 20.65696 8.7883856 20.708819 7.9906054 20.6875 7.1875 z M 10.9375 7.375 C 11.127374 7.4745981 11.367761 7.6261437 11.65625 7.84375 C 12.14318 8.2110393 12.695454 8.7280717 13.25 9.28125 C 14.230211 10.259045 15.130806 11.431552 15.5625 12.25 C 15.518395 12.311127 15.477015 12.373109 15.4375 12.4375 C 11.659557 12.894559 8.5139293 14.632562 6.0625 17.15625 C 6.0196736 16.779469 6 16.388493 6 16 C 6 12.311443 7.9761865 9.1084434 10.9375 7.375 z M 18 13 C 18.564128 13 19 13.435872 19 14 C 19 14.564128 18.564128 15 18 15 C 17.435872 15 17 14.564128 17 14 C 17 13.435872 17.435872 13 18 13 z M 20.9375 14.5 C 22.291495 14.972251 24.503402 16.047249 25.71875 18.40625 C 25.258453 20.279648 24.25393 21.929705 22.90625 23.21875 C 22.698385 22.247671 22.42345 21.156945 22.0625 20.0625 C 21.564745 18.553246 20.960813 17.100947 20.21875 16 C 20.590949 15.587662 20.83867 15.067008 20.9375 14.5 z M 15.0625 14.53125 C 15.198752 15.26702 15.585218 15.930075 16.15625 16.375 C 15.851446 17.339237 15.109061 18.940474 14.1875 20.53125 C 13.258259 22.135282 12.195511 23.734172 11.34375 24.84375 C 9.1779128 23.707832 7.4874888 21.816123 6.625 19.5 C 8.8008166 16.86045 11.561563 15.097047 15.0625 14.53125 z M 18.46875 16.9375 C 19.011407 17.707934 19.654374 19.165747 20.15625 20.6875 C 20.619545 22.09227 20.98236 23.543486 21.15625 24.5625 C 19.652465 25.46598 17.886962 26 16 26 C 15.043342 26 14.125223 25.874277 13.25 25.625 C 14.111707 24.46496 15.080885 23.009916 15.9375 21.53125 C 16.886851 19.892505 17.702705 18.337743 18.09375 17 C 18.223518 16.995829 18.343441 16.957981 18.46875 16.9375 z" overflow="visible" font-family="Sans" fill="#000000"/></svg>
