<?xml version="1.0" encoding="utf-8"?>
<svg xmlns="http://www.w3.org/2000/svg" viewBox="0 0 32 32" fill="#000000"><path style="text-indent:0;text-align:start;line-height:normal;text-transform:none;block-progression:tb;-inkscape-font-specification:Bitstream Vera Sans" d="M 13.21875 4.15625 C 11.685143 4.7696929 10.953326 6.5395649 11.5625 8.0625 L 11.59375 8.09375 L 11.625 8.15625 C 10.172045 8.9708031 8.9708031 10.172045 8.15625 11.625 L 8.09375 11.59375 L 8.0625 11.5625 C 7.5961073 11.375943 7.3404241 10.758315 7.53125 10.28125 L 5.65625 9.53125 C 5.0586782 11.025179 5.8069728 12.730763 7.28125 13.375 L 7.28125 13.40625 L 7.34375 13.4375 L 7.375 13.4375 C 7.1350531 14.246687 7 15.114515 7 16 C 7 16.886999 7.1335415 17.752689 7.375 18.5625 L 7.34375 18.5625 C 6.8666851 18.753326 6.2178071 18.49764 6.03125 18.03125 L 4.15625 18.78125 C 4.7696929 20.314857 6.5395649 21.046674 8.0625 20.4375 L 8.09375 20.40625 L 8.15625 20.375 C 9.5101394 22.786761 11.93144 24.514112 14.78125 24.90625 C 14.475149 25.574267 13.84883 26 13 26 C 11.809804 26 11 25.190196 11 24 L 9 24 C 9 25.190196 8.1901961 26 7 26 C 5.8098039 26 5 25.190196 5 24 L 3 24 C 3 26.209804 4.7901961 28 7 28 C 8.1939917 28 9.2672068 27.485316 10 26.65625 C 10.732793 27.485316 11.806008 28 13 28 C 14.193992 28 15.267207 27.485316 16 26.65625 C 16.732793 27.485316 17.806008 28 19 28 C 20.193992 28 21.267207 27.485316 22 26.65625 C 22.732793 27.485316 23.806008 28 25 28 C 27.209804 28 29 26.209804 29 24 L 27 24 C 27 25.190196 26.190196 26 25 26 C 23.809804 26 23 25.190196 23 24 L 21 24 C 21 25.190196 20.190196 26 19 26 C 18.15117 26 17.524851 25.574267 17.21875 24.90625 C 20.06856 24.514112 22.489861 22.786761 23.84375 20.375 L 23.90625 20.40625 L 23.9375 20.4375 C 24.403893 20.624057 24.659576 21.241685 24.46875 21.71875 L 26.34375 22.46875 C 26.941322 20.974821 26.193027 19.269237 24.71875 18.625 C 24.71165 18.6219 24.72585 18.5968 24.71875 18.59375 L 24.65625 18.5625 L 24.625 18.5625 C 24.866459 17.752689 25 16.886999 25 16 C 25 15.114515 24.864947 14.246687 24.625 13.4375 L 24.65625 13.4375 C 25.133315 13.246674 25.782193 13.50236 25.96875 13.96875 L 27.84375 13.21875 C 27.383668 12.068545 26.26277 11.364466 25.09375 11.34375 C 24.704077 11.336845 24.318234 11.410207 23.9375 11.5625 L 23.90625 11.59375 L 23.84375 11.625 C 23.029197 10.172045 21.827955 8.9708031 20.375 8.15625 L 20.40625 8.09375 L 20.4375 8.0625 C 20.624057 7.5961073 21.241685 7.3404241 21.71875 7.53125 L 22.46875 5.65625 C 22.095268 5.506857 21.723798 5.4283453 21.34375 5.4375 C 20.203605 5.464964 19.108178 6.1755421 18.625 7.28125 C 18.6219 7.28834 18.5968 7.27413 18.59375 7.28125 L 18.5625 7.34375 L 18.5625 7.375 C 17.753313 7.1350531 16.885485 7 16 7 C 15.114515 7 14.246687 7.1350531 13.4375 7.375 L 13.4375 7.34375 C 13.246674 6.8666851 13.50236 6.2178071 13.96875 6.03125 L 13.21875 4.15625 z M 16 9 C 19.877838 9 23 12.122162 23 16 C 23 19.877838 19.877838 23 16 23 C 12.122162 23 9 19.877838 9 16 C 9 12.122162 12.122162 9 16 9 z M 16.09375 10.5625 L 14.09375 14.5625 L 13.65625 15.4375 L 14.5625 15.90625 L 15.65625 16.4375 L 14.09375 19.5625 L 15.90625 20.4375 L 17.90625 16.4375 L 18.34375 15.5625 L 17.4375 15.09375 L 16.34375 14.5625 L 17.90625 11.4375 L 16.09375 10.5625 z" fill="#000000"/></svg>
