<?xml version="1.0" encoding="utf-8"?>
<svg xmlns="http://www.w3.org/2000/svg" viewBox="0 0 32 32" fill="#000000"><path style="text-indent:0;text-align:start;line-height:normal;text-transform:none;block-progression:tb;-inkscape-font-specification:Bitstream Vera Sans" d="M 6 6 C 4.9069372 6 4 6.9069372 4 8 L 4 22 C 4 23.093063 4.9069372 24 6 24 L 14.09375 24 L 13.6875 26 L 11 26 L 11 28 L 21 28 L 21 26 L 18.3125 26 L 17.90625 24 L 26 24 C 27.093063 24 28 23.093063 28 22 L 28 8 C 28 6.9069372 27.093063 6 26 6 L 6 6 z M 6 8 L 26 8 L 26 20 L 6 20 L 6 8 z M 17.21875 11 C 16.90575 11 16.5425 11.1675 16.3125 11.4375 C 16.1325 11.6605 15.93 12.026 16 12.375 C 16.322 12.415 16.675 12.2075 16.875 11.9375 C 17.105 11.6875 17.23875 11.349 17.21875 11 z M 15.0625 12.4375 C 14.2145 12.4375 13.5625 13.19625 13.5625 14.28125 C 13.5625 15.69925 14.521 17 15.125 17 C 15.494 17 15.642 16.75 16.125 16.75 C 16.574 16.75 16.70475 17 17.09375 17 C 17.81675 17 18.4155 15.50025 18.4375 15.40625 C 18.3195 15.35325 17.625 14.9985 17.625 14.1875 C 17.625 13.4055 18.25425 13.0795 18.28125 13.0625 C 17.93425 12.5295 17.3955 12.4375 17.1875 12.4375 C 16.7015 12.4375 16.26125 12.71875 16.03125 12.71875 C 15.79125 12.71875 15.4555 12.4375 15.0625 12.4375 z M 16 20.5 C 16.552 20.5 17 20.948 17 21.5 C 17 22.052 16.552 22.5 16 22.5 C 15.448 22.5 15 22.052 15 21.5 C 15 20.948 15.448 20.5 16 20.5 z" overflow="visible" font-family="Bitstream Vera Sans" fill="#000000"/></svg>
