<?xml version="1.0" encoding="utf-8"?>
<svg xmlns="http://www.w3.org/2000/svg" viewBox="0 0 32 32" fill="#000000"><path style="text-indent:0;text-align:start;line-height:normal;text-transform:none;block-progression:tb;-inkscape-font-specification:Sans" d="M 10 7 C 5.0412819 7 1 11.041282 1 16 C 1 20.958718 5.0412819 25 10 25 C 10.684949 25 11.358293 24.927232 12 24.78125 C 12.644 24.92825 13.312 25 14 25 C 14.68554 25 15.357995 24.927103 16 24.78125 C 16.644 24.92825 17.312 25 18 25 C 18.620375 25 19.227139 24.93258 19.8125 24.8125 C 20.3605 24.9195 20.92 25 21.5 25 C 26.463 25 30.5 20.963 30.5 16 C 30.5 11.037 26.463 7 21.5 7 C 20.92 7 20.3615 7.0805 19.8125 7.1875 C 19.227139 7.0674199 18.620375 7 18 7 C 17.312 7 16.644 7.07175 16 7.21875 C 15.357995 7.0728975 14.68554 7 14 7 C 13.312 7 12.644 7.07175 12 7.21875 C 11.358293 7.0727679 10.684949 7 10 7 z M 20.8125 7.46875 C 21.048526 7.5466208 21.273052 7.6222761 21.5 7.71875 C 21.273902 7.6229632 21.047544 7.5461108 20.8125 7.46875 z M 10 9 C 13.877838 9 17 12.122162 17 16 C 17 19.877838 13.877838 23 10 23 C 6.1221621 23 3 19.877838 3 16 C 3 12.122162 6.1221621 9 10 9 z M 15.96875 9.28125 C 18.86775 10.13625 21 12.827 21 16 C 21 19.173 18.86775 21.86375 15.96875 22.71875 C 17.824627 21.068371 19 18.670172 19 16 C 19 13.329828 17.824627 10.931629 15.96875 9.28125 z M 19.96875 9.28125 C 22.86775 10.13625 25 12.827 25 16 C 25 19.173 22.86775 21.86375 19.96875 22.71875 C 21.82415 21.069026 23 18.672478 23 16 C 23 13.327522 21.82415 10.930974 19.96875 9.28125 z M 24.375 9.625 C 26.798421 10.726802 28.5 13.169439 28.5 16 C 28.5 18.830561 26.797446 21.273198 24.375 22.375 C 26.004625 20.745375 27 18.4815 27 16 C 27 13.5185 26.004625 11.254625 24.375 9.625 z M 9 11 L 9 16 L 9 16.40625 L 9.28125 16.71875 L 12.28125 19.71875 L 13.71875 18.28125 L 11 15.5625 L 11 11 L 9 11 z M 21.5 24.28125 C 21.273099 24.377771 21.048487 24.45334 20.8125 24.53125 C 21.047544 24.453889 21.273902 24.377037 21.5 24.28125 z" overflow="visible" font-family="Sans" fill="#000000"/></svg>
