<?xml version="1.0" encoding="utf-8"?>
<svg xmlns="http://www.w3.org/2000/svg" viewBox="0 0 32 32" fill="#000000"><path style="text-indent:0;text-align:start;line-height:normal;text-transform:none;block-progression:tb;-inkscape-font-specification:Bitstream Vera Sans" d="M 16 3.625 L 15.3125 4.28125 C 15.3125 4.28125 14.265379 5.2503065 13.21875 6.53125 C 12.172121 7.8121935 11 9.2919086 11 11 C 11 12.132485 11.390048 13.159221 12.03125 14 L 11 14 L 10 14 L 10 15 L 10 16 L 10 16.40625 L 10.28125 16.71875 L 13.03125 19.46875 L 14 27.125 L 14.125 28 L 15 28 L 17 28 L 17.875 28 L 18 27.125 L 18.96875 19.46875 L 21.71875 16.71875 L 22 16.40625 L 22 16 L 22 15 L 22 14 L 21 14 L 19.96875 14 C 20.609952 13.159221 21 12.132485 21 11 C 21 9.2919086 19.827879 7.8121935 18.78125 6.53125 C 17.734621 5.2503065 16.6875 4.28125 16.6875 4.28125 L 16 3.625 z M 16 6.46875 C 16.362085 6.8342088 16.607943 7.064948 17.21875 7.8125 C 18.172121 8.9793065 19 10.499091 19 11 C 19 12.50335 17.903222 13.708797 16.46875 13.9375 C 17.346219 13.725815 18 12.942703 18 12 C 18 10.895 16 9 16 9 C 16 9 14 10.895 14 12 C 14 12.942703 14.653781 13.725815 15.53125 13.9375 C 14.096778 13.708797 13 12.50335 13 11 C 13 10.499091 13.827879 8.9793065 14.78125 7.8125 C 15.392057 7.064948 15.637915 6.8342088 16 6.46875 z M 12.4375 16 L 19.5625 16 L 17.5625 18 L 14.4375 18 L 12.4375 16 z M 15.125 20 L 16.875 20 L 16.125 26 L 15.875 26 L 15.125 20 z" overflow="visible" font-family="Bitstream Vera Sans" fill="#000000"/></svg>
