<?xml version="1.0" encoding="utf-8"?>
<svg xmlns="http://www.w3.org/2000/svg" viewBox="0 0 32 32" fill="#000000"><path d="M 16 4 C 9.3844277 4 4 9.3844277 4 16 C 4 22.615572 9.3844277 28 16 28 C 16.084593 28 16.165819 28.001752 16.25 28 C 16.334233 28.003267 16.414996 28 16.5 28 L 16.5 27.96875 C 22.88163 27.702219 28 22.445845 28 16 C 28 10.124768 23.740573 5.2428218 18.15625 4.21875 C 17.627937 4.0791828 17.070944 4 16.5 4 L 16.5 4.03125 C 16.331963 4.0242319 16.169727 4 16 4 z M 16 6 C 16.345918 6 16.694515 6.0284439 17.03125 6.0625 C 17.156005 6.0772496 17.284932 6.0691272 17.40625 6.09375 C 17.438258 6.0982055 17.468091 6.1202438 17.5 6.125 C 19.506785 6.5792668 21 8.3495249 21 10.5 C 21 12.997732 18.997732 15 16.5 15 C 12.921732 15 10 17.921732 10 21.5 C 10 22.568511 10.258011 23.577639 10.71875 24.46875 C 7.8863978 22.7057 6 19.591314 6 16 C 6 10.465308 10.465308 6 16 6 z M 22.71875 8.625 C 24.725356 10.452249 26 13.063622 26 16 C 26 21.429619 21.701086 25.803627 16.3125 25.96875 C 13.905899 25.868222 12 23.932718 12 21.5 C 12 19.002268 14.002268 17 16.5 17 C 20.078268 17 23 14.078268 23 10.5 C 23 9.8501234 22.897926 9.217995 22.71875 8.625 z M 16.5 9 C 15.671573 9 15 9.6715729 15 10.5 C 15 11.328427 15.671573 12 16.5 12 C 17.328427 12 18 11.328427 18 10.5 C 18 9.6715729 17.328427 9 16.5 9 z M 16.5 20 C 15.671573 20 15 20.671573 15 21.5 C 15 22.328427 15.671573 23 16.5 23 C 17.328427 23 18 22.328427 18 21.5 C 18 20.671573 17.328427 20 16.5 20 z" fill="#000000"/></svg>
