<?xml version="1.0" encoding="utf-8"?>
<svg xmlns="http://www.w3.org/2000/svg" viewBox="0 0 32 32" fill="#000000"><path style="text-indent:0;text-align:start;line-height:normal;text-transform:none;block-progression:tb;-inkscape-font-specification:Bitstream Vera Sans" d="M 15.3125 2.96875 L 15 4.03125 C 14.624211 5.4004247 14.570447 6.6435935 14.6875 7.78125 C 14.582722 7.7244945 14.481434 7.67613 14.375 7.625 C 13.420137 7.1662908 12.389638 6.8899491 11.40625 6.8125 C 10.422862 6.7350509 9.4670817 6.8365062 8.625 7.125 L 7.625 7.46875 L 8.03125 8.46875 C 9.3576242 11.652396 11.863085 13.754775 14.4375 14.25 C 13.954884 14.767762 13.587214 15.207285 13.3125 15.5625 C 12.726047 15.248994 12.108032 15.0572 11.46875 15 C 9.1778598 14.795022 6.7154646 16.165877 5.25 18.46875 C 3.2964067 21.538682 3.615236 25.504712 6.34375 27.25 C 9.0721031 28.995186 12.796047 27.601747 14.75 24.53125 C 16.365305 21.992913 16.413171 18.845463 14.84375 16.84375 C 16.091429 15.203869 20.16558 10.622643 27.09375 10 L 26.90625 8 C 24.548766 8.2118702 22.490856 8.8313681 20.71875 9.65625 C 20.867953 8.3385396 20.552846 7.150442 19.96875 6.21875 C 19.041331 4.7394223 17.586511 3.8626012 16.34375 3.375 L 15.3125 2.96875 z M 16.75 5.84375 C 17.348315 6.2276723 17.920213 6.7053594 18.28125 7.28125 C 18.838488 8.1701006 18.974774 9.2728239 18.21875 10.90625 C 17.155281 9.9482258 16.430441 8.2733459 16.75 5.84375 z M 11.25 8.84375 C 11.994643 8.900895 12.787738 9.0640842 13.5 9.40625 C 14.646045 9.9568017 15.454287 10.962061 15.90625 12.3125 C 14.225582 12.443697 12.043099 11.242871 10.59375 8.90625 C 10.826925 8.89718 11.001786 8.824702 11.25 8.84375 z M 21.65625 14 C 21.466997 14.017996 21.284624 14.05167 21.09375 14.09375 C 18.039517 14.767084 16.43311 18.273915 17.1875 21.6875 C 17.941908 25.101165 20.852207 27.579542 23.90625 26.90625 C 26.960483 26.232916 28.56689 22.757335 27.8125 19.34375 L 27.8125 19.3125 C 27.104264 16.112597 24.495049 13.730064 21.65625 14 z M 22.1875 16 C 23.748581 16.066114 25.377521 17.502326 25.875 19.75 C 26.44261 22.318415 25.204517 24.554834 23.46875 24.9375 C 21.732793 25.320208 19.692592 23.818335 19.125 21.25 C 18.55739 18.681585 19.795483 16.445166 21.53125 16.0625 C 21.748252 16.01466 21.964488 15.990555 22.1875 16 z M 10.6875 17 C 10.876975 16.982454 11.067271 16.987056 11.25 17 C 11.737276 17.03452 12.196338 17.183296 12.59375 17.4375 L 12.65625 17.5 C 14.18396 18.550774 14.52971 21.163135 13.0625 23.46875 C 11.572453 25.810253 8.9958969 26.579314 7.40625 25.5625 C 5.816764 24.545788 5.4470933 21.873318 6.9375 19.53125 C 7.9153435 17.994639 9.3611772 17.122821 10.6875 17 z M 21.375 17.21875 C 20.177094 18.14929 19.933927 19.538913 20.15625 20.5625 C 20.378573 21.586087 20.843164 22.296563 21.34375 22.75 L 22.6875 21.25 C 22.6891 21.2514 22.204177 20.664663 22.09375 20.15625 C 21.983323 19.647837 21.99491 19.27071 22.625 18.78125 L 21.375 17.21875 z M 11 18 C 9.9522797 18 9.0424668 18.509831 8.3125 19.21875 C 7.5825332 19.927669 7 20.882871 7 22 L 9 22 C 9 21.644129 9.2469668 21.084081 9.6875 20.65625 C 10.128033 20.228419 10.72972 20 11 20 L 11 18 z" overflow="visible" font-family="Bitstream Vera Sans" fill="#000000"/></svg>
