<?xml version="1.0" encoding="utf-8"?>
<svg xmlns="http://www.w3.org/2000/svg" viewBox="0 0 32 32" fill="#000000"><path style="line-height:normal;text-indent:0;text-align:start;text-decoration-line:none;text-decoration-style:solid;text-decoration-color:#000;text-transform:none;block-progression:tb;isolation:auto;mix-blend-mode:normal" d="M 21 4 C 17.145666 4 14 7.1456661 14 11 C 14 11.713964 14.214296 12.363506 14.414062 13.013672 L 4.9433594 22.482422 C 3.688936 23.736845 3.688936 25.802217 4.9433594 27.056641 C 6.1977827 28.311064 8.2631548 28.311064 9.5175781 27.056641 L 18.984375 17.587891 C 19.634669 17.787424 20.285408 18 21 18 C 24.854334 18 28 14.854334 28 11 C 28 9.9730303 27.77207 8.9981153 27.376953 8.1230469 L 26.78125 6.8046875 L 25.759766 7.8261719 L 22.585938 11 L 21 11 L 21 9.4140625 L 25.195312 5.21875 L 23.876953 4.6230469 C 23.001885 4.2279296 22.02697 4 21 4 z M 21 6 C 21.172032 6 21.315294 6.086301 21.482422 6.1035156 L 19 8.5859375 L 19 13 L 23.414062 13 L 25.896484 10.517578 C 25.913699 10.684706 26 10.827968 26 11 C 26 13.773666 23.773666 16 21 16 C 20.299629 16 19.637452 15.855547 19.033203 15.597656 L 18.412109 15.332031 L 8.1035156 25.642578 C 7.619939 26.126155 6.8409985 26.126155 6.3574219 25.642578 C 5.8738452 25.159001 5.8738452 24.380061 6.3574219 23.896484 L 16.667969 13.587891 L 16.402344 12.964844 C 16.143879 12.361204 16 11.700371 16 11 C 16 8.2263339 18.226334 6 21 6 z" font-weight="400" font-family="sans-serif" white-space="normal" overflow="visible" fill="#000000"/></svg>
