<?xml version="1.0" encoding="utf-8"?>
<svg xmlns="http://www.w3.org/2000/svg" viewBox="0 0 32 32" fill="#000000"><path style="text-indent:0;text-align:start;line-height:normal;text-transform:none;block-progression:tb;-inkscape-font-specification:Sans" d="M 17.21875 2.03125 L 16.65625 3.9375 C 20.548736 5.4176177 22.595304 6.9744465 23.6875 8.5625 C 24.779696 10.150553 25 11.866449 25 14 C 25 17.877484 21.877484 21 18 21 C 16.108489 21 14.537993 20.100493 13.21875 18.78125 L 12.5 18.09375 L 11.78125 18.78125 L 10.8125 19.75 L 10.03125 19 L 9.3125 18.28125 L 8.59375 19 L 2.71875 24.875 L 2 25.59375 L 2.71875 26.3125 L 5.71875 29.3125 L 6.40625 30 L 7.125 29.3125 L 13.03125 23.40625 L 13.0625 23.375 C 14.471483 24.617553 16.251174 25.71875 19.09375 25.71875 C 25.108244 25.71875 30 20.826994 30 14.8125 C 30 11.803085 28.787001 9.0682514 26.8125 7.09375 C 23.129865 3.4111151 17.713842 2.16332 17.40625 2.09375 C 17.40315 2.0930532 17.34577 2.062951 17.34375 2.0625 C 17.33995 2.0616608 17.21875 2.03125 17.21875 2.03125 z M 26.4375 10.03125 C 27.346456 11.426788 28 13.017485 28 14.8125 C 28 19.746006 24.027256 23.71875 19.09375 23.71875 C 17.083621 23.71875 15.884768 23.082955 14.84375 22.25 C 15.808975 22.673455 16.849696 23 18 23 C 22.958516 23 27 18.958516 27 14 C 27 12.647541 26.806343 11.32494 26.4375 10.03125 z M 9.3125 21.09375 L 10.90625 22.6875 L 6.40625 27.1875 L 4.8125 25.59375 L 9.3125 21.09375 z" overflow="visible" font-family="Sans" fill="#000000"/></svg>
