<?xml version="1.0" encoding="utf-8"?>
<svg xmlns="http://www.w3.org/2000/svg" viewBox="0 0 32 32" fill="#000000"><path style="text-indent:0;text-align:start;line-height:normal;text-transform:none;block-progression:tb;-inkscape-font-specification:Sans" d="M 8.59375 3 L 7.65625 3.34375 L 5 4.3125 L 5.65625 6.1875 L 7.40625 5.5625 L 14.0625 23.34375 L 14.40625 24.28125 L 15.34375 23.9375 L 25.96875 19.9375 L 25.28125 18.0625 L 15.59375 21.71875 L 8.9375 3.9375 L 8.59375 3 z M 11 21 C 9.3549901 21 8 22.354991 8 24 C 8 25.645009 9.3549901 27 11 27 C 12.64501 27 14 25.64501 14 24 C 14 22.35499 12.64501 21 11 21 z M 11 27 L 5 27 L 5 29 L 27 29 L 27 27 L 11 27 z M 11 23 C 11.564128 23 12 23.435872 12 24 C 12 24.564128 11.564128 25 11 25 C 10.435871 25 10 24.564129 10 24 C 10 23.435871 10.435871 23 11 23 z" overflow="visible" font-family="Sans" fill="#000000"/></svg>
