<?xml version="1.0" encoding="utf-8"?>
<svg xmlns="http://www.w3.org/2000/svg" viewBox="0 0 32 32" fill="#000000"><path style="text-indent:0;text-align:start;line-height:normal;text-transform:none;block-progression:tb;-inkscape-font-specification:Bitstream Vera Sans" d="M 24.21875 4.375 L 20.21875 9.375 L 21.78125 10.625 L 25.78125 5.625 L 24.21875 4.375 z M 18.03125 5.75 L 17.03125 9.75 L 18.96875 10.25 L 19.96875 6.25 L 18.03125 5.75 z M 5 12 C 3.9069372 12 3 12.908145 3 14 L 3 18.5 C 3 19.869063 4.1309372 21 5.5 21 C 6.5769567 21 7.3398419 20.215051 7.6875 19.25 L 11.15625 20.3125 C 11.580562 24.01655 14.649322 27 18.5 27 C 22.170198 27 25.235459 24.331059 25.875 20.84375 C 26.064991 20.93077 26.27736 21 26.5 21 C 27.328427 21 28 20.328427 28 19.5 C 28 18.671573 27.328427 18 26.5 18 C 26.27736 18 26.064991 18.06923 25.875 18.15625 C 25.198415 14.601572 21.910513 12 18.21875 12 L 17 12 L 17 14 L 18.21875 14 C 21.26508 14 23.910006 16.352094 24 19.34375 C 24.093562 22.474691 21.605489 25 18.5 25 C 15.459304 25 13 22.494287 13 19.5 L 13 18.75 L 12.28125 18.53125 L 8 17.25 L 8 16 L 6 16 L 6 16.65625 L 6 18 L 6 18.5 C 6 18.786937 5.7869372 19 5.5 19 C 5.2130628 19 5 18.786937 5 18.5 L 5 14 L 14 14 L 14 17 L 16 17 L 16 13 L 16 12 L 15 12 L 5 12 z" overflow="visible" font-family="Bitstream Vera Sans" fill="#000000"/></svg>
