<?xml version="1.0" encoding="utf-8"?>
<svg xmlns="http://www.w3.org/2000/svg" viewBox="0 0 32 32" fill="#000000"><path style="text-indent:0;text-align:start;line-height:normal;text-transform:none;block-progression:tb;-inkscape-font-specification:Sans" d="M 2 6 L 2 7 L 2 14 L 2 18 L 2 25 L 2 26 L 3 26 L 29 26 L 30 26 L 30 25 L 30 18 L 30 14 L 30 7 L 30 6 L 29 6 L 3 6 L 2 6 z M 4 8 L 15 8 L 15 12.15625 C 13.280158 12.603316 12 14.146802 12 16 C 12 17.853198 13.280158 19.396684 15 19.84375 L 15 24 L 4 24 L 4 23.9375 C 7.9332047 23.438984 11 20.06487 11 16 C 11 11.93513 7.9332047 8.5610161 4 8.0625 L 4 8 z M 17 8 L 28 8 L 28 8.0625 C 24.066795 8.5610161 21 11.93513 21 16 C 21 20.06487 24.066795 23.438984 28 23.9375 L 28 24 L 17 24 L 17 19.84375 C 18.719842 19.396684 20 17.853198 20 16 C 20 14.146802 18.719842 12.603316 17 12.15625 L 17 8 z M 4 10.09375 C 6.8480432 10.564888 9 13.013735 9 16 C 9 18.986265 6.8480432 21.435112 4 21.90625 L 4 17.5625 C 4.8172764 17.36707 5.6469098 17.135426 6 17 C 6.516 16.802 7 16.552 7 16 C 7 15.448 6.485 15.164 6 15 C 5.7613262 14.919225 4.8578685 14.710232 4 14.5 L 4 10.09375 z M 28 10.09375 L 28 14.5 C 27.142131 14.710232 26.238674 14.919225 26 15 C 25.515 15.164 25 15.448 25 16 C 25 16.552 25.484 16.802 26 17 C 26.35309 17.135426 27.182724 17.36707 28 17.5625 L 28 21.90625 C 25.151957 21.435112 23 18.986265 23 16 C 23 13.013735 25.151957 10.564888 28 10.09375 z M 15 14.28125 L 15 17.71875 C 14.403058 17.375351 14 16.747535 14 16 C 14 15.252465 14.403058 14.624649 15 14.28125 z M 17 14.28125 C 17.596942 14.624649 18 15.252465 18 16 C 18 16.747535 17.596942 17.375351 17 17.71875 L 17 14.28125 z" overflow="visible" font-family="Sans" fill="#000000"/></svg>
