<?xml version="1.0" encoding="utf-8"?>
<svg xmlns="http://www.w3.org/2000/svg" viewBox="0 0 32 32" fill="#000000"><path style="text-indent:0;text-align:start;line-height:normal;text-transform:none;block-progression:tb;-inkscape-font-specification:Sans" d="M 3 7 L 3 8 L 3 24 L 3 25 L 4 25 L 16.0625 25 C 16.561017 28.933201 19.935134 32 24 32 C 28.406433 32 32 28.406433 32 24 C 32 21.481724 30.828363 19.2495 29 17.78125 L 29 8 L 29 7 L 28 7 L 4 7 L 3 7 z M 7.3125 9 L 24.6875 9 L 16 14.78125 L 7.3125 9 z M 5 9.875 L 15.4375 16.84375 L 16 17.1875 L 16.5625 16.84375 L 27 9.875 L 27 16.59375 C 26.068624 16.212597 25.065848 16 24 16 C 19.935134 16 16.561017 19.066799 16.0625 23 L 5 23 L 5 9.875 z M 24 18 C 27.325553 18 30 20.674447 30 24 C 30 27.325553 27.325553 30 24 30 C 20.674447 30 18 27.325553 18 24 C 18 20.674447 20.674447 18 24 18 z M 27.28125 21.28125 L 24 24.5625 L 21.71875 22.28125 L 20.28125 23.71875 L 23.28125 26.71875 L 24 27.40625 L 24.71875 26.71875 L 28.71875 22.71875 L 27.28125 21.28125 z" overflow="visible" font-family="Sans" fill="#000000"/></svg>
