<?xml version="1.0" encoding="utf-8"?>
<svg xmlns="http://www.w3.org/2000/svg" viewBox="0 0 32 32" fill="#000000"><path style="text-indent:0;text-align:start;line-height:normal;text-transform:none;block-progression:tb;-inkscape-font-specification:Sans" d="M 21 3 C 19.145369 3 17.625 3.625 17.625 3.625 L 17 3.875 L 17 4.53125 L 17 17 L 3 17 L 3 19 L 11 19 C 11.09482 19.127867 11.195147 19.271717 11.34375 19.4375 C 11.724407 19.862166 12.296226 20.407806 13.15625 20.9375 C 14.81612 21.959823 17.497365 22.933384 21.5625 23 L 27.53125 28.96875 L 28.96875 27.53125 L 19 17.5625 L 19 11.40625 C 19.508449 11.275019 20.468572 11 21 11 C 22.223503 11 23.963996 12 26 12 C 27.526778 12 28.53125 11.375 28.53125 11.375 L 29 11.09375 L 29 10.53125 L 29 4.53125 L 29 3 L 27.59375 3.625 C 27.59375 3.625 26.696667 4 26 4 C 24.784004 4 23.040497 3 21 3 z M 21 5 C 22.223503 5 23.963996 6 26 6 C 26.541414 6 26.590857 5.8911657 27 5.78125 L 27 9.8125 C 26.807506 9.900167 26.71928 10 26 10 C 24.784004 10 23.040497 9 21 9 C 20.108527 9 19.622551 9.2011935 19 9.375 L 19 5.34375 C 19.39911 5.2125444 19.927439 5 21 5 z M 13.875 19 L 17.5625 19 L 19.40625 20.84375 C 16.91061 20.558276 15.270003 19.897473 14.21875 19.25 C 14.079155 19.164023 13.993693 19.083836 13.875 19 z" overflow="visible" font-family="Sans" fill="#000000"/></svg>
