<?xml version="1.0" encoding="utf-8"?>
<svg xmlns="http://www.w3.org/2000/svg" viewBox="0 0 32 32" fill="#000000"><path style="text-indent:0;text-align:start;line-height:normal;text-transform:none;block-progression:tb;-inkscape-font-specification:Bitstream Vera Sans" d="M 16 4 C 15.359091 4 14.772197 4.0663872 14.28125 4.21875 C 14.035777 4.2949314 13.826863 4.4011139 13.59375 4.5625 C 13.360637 4.7238861 13 5.01875 13 5.59375 L 13 8.15625 C 11.032573 8.3069943 9.2855072 8.6401904 7.9375 9.125 C 7.153022 9.4071368 6.4970262 9.7458611 5.96875 10.1875 C 5.4404738 10.629139 5 11.247222 5 12 L 5 21 C 5 21.866176 5.5686863 22.537955 6.21875 23 C 6.3988974 23.128043 6.6072952 23.232619 6.8125 23.34375 L 5.96875 24.65625 L 7.625 25.75 L 8.71875 24.09375 C 10.422297 24.591414 12.600346 24.900487 15 24.96875 L 15 28 L 17 28 L 17 24.96875 C 19.399654 24.900487 21.577703 24.591414 23.28125 24.09375 L 24.375 25.75 L 26.03125 24.65625 L 25.1875 23.34375 C 25.392705 23.232619 25.601103 23.128043 25.78125 23 C 26.431314 22.537955 27 21.866176 27 21 L 27 12 C 27 11.247222 26.559526 10.629139 26.03125 10.1875 C 25.502974 9.7458611 24.846978 9.4071368 24.0625 9.125 C 22.714493 8.6401904 20.967427 8.3069943 19 8.15625 L 19 5.59375 C 19 5.01875 18.639363 4.7238861 18.40625 4.5625 C 18.173137 4.4011139 17.964223 4.2949314 17.71875 4.21875 C 17.227803 4.0663872 16.640909 4 16 4 z M 16 6 C 16.407309 6 16.756263 6.061857 17 6.125 L 17 10.875 C 16.756263 10.938143 16.407309 11 16 11 C 15.592691 11 15.243737 10.93814 15 10.875 L 15 6.125 C 15.243737 6.0618569 15.592691 6 16 6 z M 13 10.1875 L 13 11.40625 C 13 11.98125 13.360637 12.276114 13.59375 12.4375 C 13.826863 12.598886 14.035777 12.705069 14.28125 12.78125 C 14.772197 12.933613 15.359091 13 16 13 C 16.640909 13 17.227803 12.93361 17.71875 12.78125 C 17.964223 12.70507 18.173137 12.598886 18.40625 12.4375 C 18.639363 12.276114 19 11.98125 19 11.40625 L 19 10.1875 C 20.769732 10.333885 22.301385 10.613876 23.375 11 C 24.015522 11.230363 24.497026 11.507264 24.75 11.71875 C 25.002974 11.930236 25 12.002778 25 12 C 25 11.98382 24.9906 12.11517 24.625 12.375 C 24.259439 12.63483 23.620019 12.938762 22.78125 13.1875 C 21.103712 13.684977 18.671212 14 16 14 C 13.328788 14 10.896288 13.684977 9.21875 13.1875 C 8.3799809 12.938762 7.7405613 12.63483 7.375 12.375 C 7.0094387 12.11517 7 11.983824 7 12 C 7 12.0028 6.99703 11.93024 7.25 11.71875 C 7.5029738 11.507264 7.984478 11.230363 8.625 11 C 9.6986147 10.613876 11.230268 10.333887 13 10.1875 z M 7 14.4375 C 7.4919909 14.684478 8.0315924 14.908506 8.65625 15.09375 C 10.603712 15.671273 13.171212 16 16 16 C 18.828788 16 21.396288 15.671273 23.34375 15.09375 C 23.968408 14.908506 24.508009 14.684478 25 14.4375 L 25 21 C 25 20.98382 24.9906 21.11517 24.625 21.375 C 24.496195 21.466551 24.287295 21.558092 24.09375 21.65625 L 21.84375 18.25 L 21.8125 18.25 C 21.632793 17.983998 21.345178 17.8125 21 17.8125 C 20.447715 17.8125 20 18.260215 20 18.8125 C 20 19.019607 20.079676 19.184149 20.1875 19.34375 L 20.15625 19.34375 L 22.125 22.34375 C 20.730725 22.679506 18.952339 22.909387 17 22.96875 L 17 19.8125 C 17 19.260215 16.552285 18.8125 16 18.8125 C 15.447715 18.8125 15 19.260215 15 19.8125 L 15 22.96875 C 13.047661 22.909387 11.269275 22.679506 9.875 22.34375 L 11.71875 19.53125 L 11.84375 19.34375 C 11.9421 19.188937 12 19.009493 12 18.8125 C 12 18.260215 11.552285 17.8125 11 17.8125 C 10.649985 17.8125 10.366167 18.008948 10.1875 18.28125 L 10.15625 18.25 L 7.90625 21.65625 C 7.7127052 21.558092 7.5038052 21.466551 7.375 21.375 C 7.0094387 21.11517 7 20.983824 7 21 L 7 14.4375 z" fill="#000000"/></svg>
