<?xml version="1.0" encoding="utf-8"?>
<svg xmlns="http://www.w3.org/2000/svg" viewBox="0 0 32 32" fill="#000000"><path style="text-indent:0;text-align:start;line-height:normal;text-transform:none;block-progression:tb;-inkscape-font-specification:Sans" d="M 15.96875 4.8125 C 15.042281 4.8125 14.106918 5.174332 13.40625 5.875 L 4.0625 15.21875 C 2.6611639 16.620086 2.6611639 18.942414 4.0625 20.34375 L 9.59375 25.875 C 10.092757 26.374499 10.567451 26.862463 11.1875 27.28125 C 11.807549 27.700037 12.589103 28 13.5 28 L 18.59375 28 C 19.504647 28 20.28615 27.699966 20.90625 27.28125 C 21.52635 26.862534 22.000584 26.374416 22.5 25.875 L 27.9375 20.40625 C 29.337646 19.004724 29.338836 16.713836 27.9375 15.3125 L 18.5 5.875 C 17.799332 5.174332 16.895219 4.8125 15.96875 4.8125 z M 15.96875 6.8125 C 16.380781 6.8125 16.778418 6.965918 17.09375 7.28125 L 26.53125 16.71875 C 27.161914 17.349414 27.161104 18.369526 26.53125 19 L 21.09375 24.4375 C 20.577166 24.954084 20.15265 25.374216 19.78125 25.625 C 19.40985 25.875784 19.118853 26 18.59375 26 L 13.5 26 C 12.974897 26 12.683701 25.875713 12.3125 25.625 C 11.941299 25.374287 11.515993 24.954001 11 24.4375 L 5.46875 18.90625 C 4.8380861 18.275586 4.8380861 17.255664 5.46875 16.625 L 14.8125 7.28125 C 15.127832 6.965918 15.556719 6.8125 15.96875 6.8125 z M 16 10.9375 C 15.93575 10.9375 15.8615 10.951 15.8125 11 L 9.40625 17.40625 C 9.30825 17.50425 9.30825 17.652 9.40625 17.75 L 10.25 18.59375 C 10.347 18.69075 10.5495 18.75 10.6875 18.75 L 11.09375 18.75 C 11.23175 18.75 11.43325 18.69175 11.53125 18.59375 L 17.46875 12.65625 C 17.56675 12.55825 17.56675 12.4105 17.46875 12.3125 L 16.15625 11 C 16.10725 10.951 16.06425 10.9375 16 10.9375 z M 15.96875 16 C 15.9045 16 15.83025 16.04475 15.78125 16.09375 L 11.9375 19.90625 C 11.8395 20.00425 11.8395 20.18325 11.9375 20.28125 L 12.78125 21.09375 C 12.87825 21.19075 13.08075 21.28125 13.21875 21.28125 L 13.625 21.28125 C 13.763 21.28125 13.9655 21.19075 14.0625 21.09375 L 17.4375 17.71875 C 17.5355 17.62075 17.5355 17.473 17.4375 17.375 L 16.125 16.09375 C 16.076 16.04475 16.033 16 15.96875 16 z M 15.96875 21.09375 C 15.9045 21.09375 15.83025 21.10725 15.78125 21.15625 L 14.5 22.46875 C 14.402 22.56675 14.402 22.7145 14.5 22.8125 L 15.3125 23.65625 C 15.4095 23.75325 15.612 23.8125 15.75 23.8125 L 16.15625 23.8125 C 16.29425 23.8125 16.49575 23.75425 16.59375 23.65625 L 17.4375 22.8125 C 17.5355 22.7145 17.5345 22.5335 17.4375 22.4375 L 16.15625 21.15625 C 16.10725 21.10725 16.033 21.09375 15.96875 21.09375 z" overflow="visible" font-family="Sans" fill="#000000"/></svg>
