<?xml version="1.0" encoding="utf-8"?>
<svg xmlns="http://www.w3.org/2000/svg" viewBox="0 0 32 32" fill="#000000"><path style="text-indent:0;text-align:start;line-height:normal;text-transform:none;block-progression:tb;-inkscape-font-specification:Bitstream Vera Sans" d="M 10.90625 5.1875 L 10.125 7.03125 L 25.125 13.25 L 25.9375 20.3125 L 20.375 24.71875 L 5.375 18.53125 L 4.625 20.375 L 20.15625 26.8125 L 20.6875 27.03125 L 21.15625 26.65625 L 27.625 21.53125 L 28.0625 21.1875 L 28 20.625 L 27.0625 12.4375 L 27 11.84375 L 26.4375 11.625 L 10.90625 5.1875 z M 11.28125 11.1875 L 9.0625 16.53125 L 12.28125 17.875 L 12.75 16.71875 L 10.9375 15.96875 L 11.375 14.90625 L 13.03125 15.59375 L 13.46875 14.5 L 11.8125 13.8125 L 12.1875 12.90625 L 13.96875 13.625 L 14.4375 12.5 L 11.28125 11.1875 z M 16.21875 13.34375 C 15.355828 13.3895 14.99775 14.0965 14.8125 14.5 C 14.0265 16.386 16.41 16.7185 16 17.8125 C 15.834 18.2565 15.48875 18.21425 15.34375 18.15625 C 14.78175 17.93225 15.1875 17.21875 15.1875 17.21875 L 13.84375 16.65625 L 13.78125 16.84375 C 13.08825 18.41675 14.6305 18.8975 14.9375 19.0625 C 16.7055 19.7895 17.265 18.78575 17.5 18.21875 C 18.307 16.29275 15.84525 15.79925 16.28125 14.78125 C 16.33225 14.66325 16.54025 14.347 16.90625 14.5 C 17.36725 14.692 17.001 15.374 17 15.375 L 18.3125 15.90625 C 18.5445 15.32725 18.915 14.2215 17.25 13.5625 C 16.8315 13.397 16.506391 13.3285 16.21875 13.34375 z M 20.125 14.875 L 17.9375 20.1875 L 21.15625 21.53125 L 21.625 20.40625 L 19.78125 19.625 L 20.21875 18.5625 L 21.875 19.25 L 22.34375 18.15625 L 20.6875 17.46875 L 21.0625 16.5625 L 22.8125 17.3125 L 23.28125 16.15625 L 20.125 14.875 z" overflow="visible" font-family="Bitstream Vera Sans" fill="#000000"/></svg>
