<?xml version="1.0" encoding="utf-8"?>
<svg xmlns="http://www.w3.org/2000/svg" viewBox="0 0 32 32" fill="#000000"><path d="M 6 3 C 4.3 3 3 4.3 3 6 L 3 26 C 3 27.7 4.3 29 6 29 L 26 29 C 27.7 29 29 27.7 29 26 L 29 6 C 29 4.3 27.7 3 26 3 L 6 3 z M 6 5 L 26 5 C 26.6 5 27 5.4 27 6 L 27 26 C 27 26.6 26.6 27 26 27 L 6 27 C 5.4 27 5 26.6 5 26 L 5 6 C 5 5.4 5.4 5 6 5 z M 16 9 C 16 9 14.2 11 9 11 C 9 11 8.7 19.4 16 24 C 23.3 19.4 23 11 23 11 C 17.8 11 16 9 16 9 z M 16 11.5 C 17 12.1 18.600391 12.700391 20.900391 12.900391 C 20.600391 15.100391 19.5 18.899609 16 21.599609 C 12.5 18.899609 11.499609 15.100391 11.099609 12.900391 C 13.399609 12.600391 15 12 16 11.5 z" fill="#000000"/></svg>
