<?xml version="1.0" encoding="utf-8"?>
<svg xmlns="http://www.w3.org/2000/svg" viewBox="0 0 32 32" fill="#000000"><path style="text-indent:0;text-align:start;line-height:normal;text-transform:none;block-progression:tb;-inkscape-font-specification:Bitstream Vera Sans" d="M 5 5 L 5 6 L 5 26 L 5 27 L 6 27 L 26 27 L 27 27 L 27 26 L 27 6 L 27 5 L 26 5 L 6 5 L 5 5 z M 7 7 L 25 7 L 25 25 L 7 25 L 7 7 z M 14 8 L 14 16 L 16 16 L 16 8 L 14 8 z M 17 9 L 17 16 L 19 16 L 19 9 L 17 9 z M 11 10 L 11 17.125 L 9.8125 15.4375 L 8.1875 16.5625 L 11.78125 21.6875 C 12.674044 23.071123 14.243651 24 16 24 L 17 24 C 19.745455 24 22 21.745455 22 19 L 22 12 L 20 12 L 20 19 C 20 20.654545 18.654545 22 17 22 L 16 22 C 14.902048 22 13.929129 21.413374 13.40625 20.53125 C 13.141183 20.084068 13 19.556593 13 19 L 13 10 L 11 10 z" overflow="visible" font-family="Bitstream Vera Sans" fill="#000000"/></svg>
