<?xml version="1.0" encoding="utf-8"?>
<svg xmlns="http://www.w3.org/2000/svg" viewBox="0 0 32 32" fill="#000000"><path style="line-height:normal;text-indent:0;text-align:start;text-decoration-line:none;text-decoration-style:solid;text-decoration-color:#000;text-transform:none;block-progression:tb;isolation:auto;mix-blend-mode:normal" d="M 14.001953 3 C 11.963109 3 9.4709825 3.4285323 7.4453125 5.0859375 C 5.4196425 6.7433427 4.0019531 9.6052164 4.0019531 14 C 4.0019531 16.841548 5.1598555 18.73145 6.1855469 20.173828 C 7.2112383 21.616207 8.0019531 22.580628 8.0019531 24 L 8.0019531 28 L 10.001953 28 L 10.001953 24 C 10.001953 21.836372 8.790715 20.383793 7.8164062 19.013672 C 6.8420976 17.64355 6.0019531 16.325452 6.0019531 14 C 6.0019531 10.019784 7.1865606 7.8816573 8.7128906 6.6328125 C 10.239221 5.3839677 12.248798 5 14.001953 5 C 17.838173 5 20.02085 6.0359369 21.294922 7.3632812 C 22.568993 8.6906257 23.001953 10.413265 23.001953 12 L 23.001953 12.302734 L 25.955078 16.726562 C 26.066026 16.892747 26.008468 17.060733 25.818359 17.121094 L 25.816406 17.121094 L 23.001953 18.017578 L 23.001953 20.998047 C 23.001953 21.652686 22.637009 22.441287 22.042969 23.037109 C 21.448929 23.632931 20.66562 23.998047 20.001953 23.998047 L 18.001953 23.998047 L 18.001953 27.998047 L 20.001953 27.998047 L 20.001953 25.998047 C 21.338286 25.998047 22.553024 25.357897 23.458984 24.449219 C 24.364944 23.540541 25.001953 22.325407 25.001953 20.998047 L 25.001953 19.480469 L 26.421875 19.027344 C 27.831762 18.579705 28.440193 16.847003 27.619141 15.617188 L 24.939453 11.605469 C 24.871325 9.7400016 24.343642 7.6510009 22.738281 5.9785156 C 21.022853 4.19136 18.207733 3 14.001953 3 z M 15 10 L 13 18 L 15 18 L 17 10 L 15 10 z M 11.042969 10.917969 L 7.9609375 14 L 11.042969 17.082031 L 12.457031 15.667969 L 10.789062 14 L 12.457031 12.332031 L 11.042969 10.917969 z M 18.957031 10.917969 L 17.542969 12.332031 L 19.210938 14 L 17.542969 15.667969 L 18.957031 17.082031 L 22.039062 14 L 18.957031 10.917969 z" font-weight="400" font-family="sans-serif" white-space="normal" overflow="visible" fill="#000000"/></svg>
