<?xml version="1.0" encoding="utf-8"?>
<svg xmlns="http://www.w3.org/2000/svg" viewBox="0 0 32 32" fill="#000000"><path style="line-height:normal;text-indent:0;text-align:start;text-decoration-line:none;text-decoration-style:solid;text-decoration-color:#000;text-transform:none;block-progression:tb;isolation:auto;mix-blend-mode:normal" d="M 16 5 C 12.145851 5 9 8.1458514 9 12 C 9 14.407864 10.228525 16.538253 12.089844 17.798828 C 8.5151498 19.325322 6 22.875791 6 27 L 8 27 C 8 24.761721 8.9120643 22.744439 10.384766 21.294922 L 12.785156 24.34375 L 16.554688 21.832031 L 15.445312 20.167969 L 13.214844 21.65625 L 11.980469 20.085938 C 13.16149 19.399761 14.530839 19 16 19 C 19.854149 19 23 15.854149 23 12 C 23 8.1458514 19.854149 5 16 5 z M 16 7 C 18.773268 7 21 9.2267316 21 12 C 21 14.773268 18.773268 17 16 17 C 13.226732 17 11 14.773268 11 12 C 11 9.2267316 13.226732 7 16 7 z M 24 18 L 24 20.109375 C 23.366459 20.239781 22.782489 20.496993 22.259766 20.84375 L 20.755859 19.34375 L 19.34375 20.757812 L 20.841797 22.255859 C 20.493835 22.779961 20.232001 23.36451 20.101562 24 L 18 24 L 18 26 L 20.101562 26 C 20.232001 26.63549 20.493835 27.220039 20.841797 27.744141 L 19.34375 29.242188 L 20.755859 30.65625 L 22.259766 29.15625 C 22.782489 29.503007 23.366459 29.760219 24 29.890625 L 24 32 L 26 32 L 26 29.890625 C 26.633541 29.760219 27.217511 29.503007 27.740234 29.15625 L 29.244141 30.65625 L 30.65625 29.242188 L 29.158203 27.744141 C 29.506165 27.220039 29.767999 26.63549 29.898438 26 L 32 26 L 32 24 L 29.898438 24 C 29.767999 23.36451 29.506165 22.779961 29.158203 22.255859 L 30.65625 20.757812 L 29.244141 19.34375 L 27.740234 20.84375 C 27.217511 20.496993 26.633541 20.239781 26 20.109375 L 26 18 L 24 18 z M 25 22 C 26.668699 22 28 23.331301 28 25 C 28 26.668699 26.668699 28 25 28 C 23.331301 28 22 26.668699 22 25 C 22 23.331301 23.331301 22 25 22 z M 25 24 A 1 1 0 0 0 24 25 A 1 1 0 0 0 25 26 A 1 1 0 0 0 26 25 A 1 1 0 0 0 25 24 z" fill="#000000"/></svg>
