<?xml version="1.0" encoding="utf-8"?>
<svg xmlns="http://www.w3.org/2000/svg" viewBox="0 0 32 32" fill="#000000"><path style="text-indent:0;text-align:start;line-height:normal;text-transform:none;block-progression:tb;-inkscape-font-specification:Bitstream Vera Sans" d="M 18.65625 4 C 18.161305 3.9805707 17.704994 4.0795228 17.34375 4.21875 C 16.380434 4.5900227 16.066842 5 15 5 L 15 7 C 16.621158 7 17.576066 6.2812273 18.0625 6.09375 C 18.305717 6.000011 18.413032 5.9629889 18.75 6.03125 C 19.086968 6.099511 19.650542 6.3231994 20.46875 6.84375 L 21.53125 5.15625 C 20.592958 4.5593006 19.853625 4.2037702 19.15625 4.0625 C 18.981906 4.0271824 18.821232 4.0064764 18.65625 4 z M 7 8 L 7 9 L 7 12 L 6 12 L 5 12 L 5 13 L 5 25 L 5 26 L 6 26 L 13 26 L 19 26 L 26 26 L 27 26 L 27 25 L 27 13 L 27 12 L 26 12 L 25 12 L 25 9 L 25 8 L 24 8 L 8 8 L 7 8 z M 9 10 L 23 10 L 23 12 L 21 12 L 21 11 L 19 11 L 19 12 L 17 12 L 17 11 L 15 11 L 15 12 L 13 12 L 13 11 L 11 11 L 11 12 L 9 12 L 9 10 z M 7 14 L 25 14 L 25 24 L 19 24 L 19 21 L 19 20 L 18 20 L 14 20 L 13 20 L 13 21 L 13 24 L 7 24 L 7 14 z M 9 16 L 9 18 L 11 18 L 11 16 L 9 16 z M 13 16 L 13 18 L 15 18 L 15 16 L 13 16 z M 17 16 L 17 18 L 19 18 L 19 16 L 17 16 z M 21 16 L 21 18 L 23 18 L 23 16 L 21 16 z M 9 20 L 9 22 L 11 22 L 11 20 L 9 20 z M 21 20 L 21 22 L 23 22 L 23 20 L 21 20 z M 15 22 L 17 22 L 17 24 L 15 24 L 15 22 z" fill="#000000"/></svg>
