<?xml version="1.0" encoding="utf-8"?>
<svg xmlns="http://www.w3.org/2000/svg" viewBox="0 0 32 32" fill="#000000"><path style="text-indent:0;text-align:start;line-height:normal;text-transform:none;block-progression:tb;-inkscape-font-specification:Sans" d="M 10 7 C 6.6981362 7 4 9.6981359 4 13 C 4 14.943782 4.9321694 16.683216 6.375 17.78125 C 3.2149834 19.179288 1 22.327767 1 26 L 3 26 C 3 22.141 6.14 19 10 19 C 13.86 19 17 22.141 17 26 L 31 26 L 31 25.5 C 31 21.364 27.636 18 23.5 18 C 21.11 18 18.914 19.13125 17.5 21.03125 C 16.555054 19.610904 15.197996 18.480859 13.625 17.78125 C 15.067831 16.683216 16 14.943782 16 13 C 16 9.698136 13.301864 7 10 7 z M 23.5 18 C 25.985281 18 28 15.985281 28 13.5 C 28 11.014719 25.985281 9 23.5 9 C 21.014719 9 19 11.014719 19 13.5 C 19 15.985281 21.014719 18 23.5 18 z M 10 9 C 12.220984 9 14 10.779016 14 13 C 14 15.220984 12.220984 17 10 17 C 7.7790164 17 6 15.220984 6 13 C 6 10.779016 7.7790164 9 10 9 z" overflow="visible" font-family="Sans" fill="#000000"/></svg>
