<?xml version="1.0" encoding="utf-8"?>
<svg xmlns="http://www.w3.org/2000/svg" viewBox="0 0 32 32" fill="#000000"><path style="text-indent:0;text-align:start;line-height:normal;text-transform:none;block-progression:tb;-inkscape-font-specification:Sans" d="M 9.5 4 C 5.362182 4 2 7.4035211 2 11.5 C 2 12.928333 2.6498412 14.167108 3.25 15.0625 C 3.8501588 15.957892 4.46875 16.53125 4.46875 16.53125 L 15.28125 27.375 L 16 28.09375 L 16.71875 27.375 L 27.53125 16.53125 C 27.53125 16.53125 30 14.357368 30 11.5 C 30 7.4035211 26.637818 4 22.5 4 C 19.067499 4 16.855077 6.0662313 16 6.9375 C 15.144923 6.0662313 12.932501 4 9.5 4 z M 9.5 6 C 12.486472 6 15.25 8.90625 15.25 8.90625 L 16 9.75 L 16.75 8.90625 C 16.75 8.90625 19.513528 6 22.5 6 C 25.542182 6 28 8.4964789 28 11.5 C 28 13.044632 26.125 15.125 26.125 15.125 L 16 25.25 L 5.875 15.125 C 5.875 15.125 5.3895912 14.658608 4.90625 13.9375 C 4.4229088 13.216392 4 12.271667 4 11.5 C 4 8.4964789 6.457818 6 9.5 6 z M 24.28125 9.28125 L 17 16.5625 L 13.71875 13.28125 L 12.28125 14.71875 L 16.28125 18.71875 L 17 19.40625 L 17.71875 18.71875 L 25.71875 10.71875 L 24.28125 9.28125 z" overflow="visible" font-family="Sans" fill="#000000"/></svg>
