<?xml version="1.0" encoding="utf-8"?>
<svg xmlns="http://www.w3.org/2000/svg" viewBox="0 0 32 32" fill="#000000"><path style="text-indent:0;text-align:start;line-height:normal;text-transform:none;block-progression:tb;-inkscape-font-specification:Sans" d="M 14.96875 5 C 11.136215 5 8.4551081 7.6895292 6.78125 10.90625 C 5.1073919 14.122971 4.2835049 17.970134 4 20.90625 L 4 20.9375 L 4 21 L 4 26 L 4 27 L 5 27 L 23 27 L 24 27 L 24 26 L 24 21 L 24 20.78125 L 23.90625 20.5625 C 22.068346 16.846933 21 14.09696 21 13 C 21 12.383942 21.071535 12.095762 21.09375 12 C 21.27899 12.000573 21.617473 11.999987 22.03125 12 C 22.006209 12.167652 22 12.325797 22 12.5 C 22 14.421152 23.578848 16 25.5 16 C 27.421152 16 29 14.421152 29 12.5 C 29 10.578848 27.421152 9 25.5 9 C 25.088325 9 24.711822 9.0859209 24.34375 9.21875 C 21.95914 6.8944092 18.747577 5 14.96875 5 z M 14.96875 7 C 17.649163 7 19.960718 8.3413819 21.9375 10 C 21.529625 9.9999756 21.133772 10.000597 21 10 C 20.683386 9.99848 20.330258 10.03684 20 10.21875 C 19.669742 10.400658 19.422382 10.724357 19.28125 11.03125 C 18.998986 11.645035 19 12.230468 19 13 C 19 14.77694 19.96563 17.028373 21.40625 20 L 6.15625 20 C 6.5080583 17.432473 7.2545852 14.357223 8.5625 11.84375 C 10.054392 8.9767208 12.059285 7 14.96875 7 z M 25.5 11 C 26.340272 11 27 11.659728 27 12.5 C 27 13.340272 26.340272 14 25.5 14 C 24.659728 14 24 13.340272 24 12.5 C 24 11.659728 24.659728 11 25.5 11 z M 6 22 L 22 22 L 22 25 L 6 25 L 6 22 z" overflow="visible" font-family="Sans" fill="#000000"/></svg>
