<?xml version="1.0" encoding="utf-8"?>
<svg xmlns="http://www.w3.org/2000/svg" viewBox="0 0 32 32" fill="#000000"><path d="M 16 4 C 14.895431 4 14 4.8954305 14 6 C 14 6.7396043 14.403104 7.3727074 15 7.71875 L 15 10 L 8 10 L 7 10 L 7 11 L 7 14.28125 C 6.4031044 14.627293 6 15.260396 6 16 C 6 16.739604 6.4031044 17.372707 7 17.71875 L 7 20 L 4 20 L 3 20 L 3 21 L 3 24.28125 C 2.4031044 24.627293 2 25.260396 2 26 C 2 27.104569 2.8954305 28 4 28 C 5.1045695 28 6 27.104569 6 26 C 6 25.260396 5.5968956 24.627293 5 24.28125 L 5 22 L 11 22 L 11 24.28125 C 10.403104 24.627293 10 25.260396 10 26 C 10 27.104569 10.895431 28 12 28 C 13.104569 28 14 27.104569 14 26 C 14 25.260396 13.596896 24.627293 13 24.28125 L 13 21 L 13 20 L 12 20 L 9 20 L 9 17.71875 C 9.5968956 17.372707 10 16.739604 10 16 C 10 15.260396 9.5968956 14.627293 9 14.28125 L 9 12 L 23 12 L 23 14.28125 C 22.403104 14.627293 22 15.260396 22 16 C 22 16.739604 22.403104 17.372707 23 17.71875 L 23 20 L 20 20 L 19 20 L 19 21 L 19 24.28125 C 18.403104 24.627293 18 25.260396 18 26 C 18 27.104569 18.895431 28 20 28 C 21.104569 28 22 27.104569 22 26 C 22 25.260396 21.596896 24.627293 21 24.28125 L 21 22 L 27 22 L 27 24.28125 C 26.403104 24.627293 26 25.260396 26 26 C 26 27.104569 26.895431 28 28 28 C 29.104569 28 30 27.104569 30 26 C 30 25.260396 29.596896 24.627293 29 24.28125 L 29 21 L 29 20 L 28 20 L 25 20 L 25 17.71875 C 25.596896 17.372707 26 16.739604 26 16 C 26 15.260396 25.596896 14.627293 25 14.28125 L 25 11 L 25 10 L 24 10 L 17 10 L 17 7.71875 C 17.596896 7.3727074 18 6.7396043 18 6 C 18 4.8954305 17.104569 4 16 4 z" fill="#000000"/></svg>
