<?xml version="1.0" encoding="utf-8"?>
<svg xmlns="http://www.w3.org/2000/svg" viewBox="0 0 32 32" fill="#000000"><path style="text-indent:0;text-align:start;line-height:normal;text-transform:none;block-progression:tb;-inkscape-font-specification:Sans" d="M 5 6 L 5 7 L 5 18.65625 L 2.5 22 C 2.1757692 22.432308 2 22.959615 2 23.5 C 2 24.869063 3.1309372 26 4.5 26 L 27.5 26 C 28.869063 26 30 24.869063 30 23.5 C 30 22.959615 29.824231 22.432308 29.5 22 L 27 18.65625 L 27 7 L 27 6 L 26 6 L 6 6 L 5 6 z M 7 8 L 25 8 L 25 18 L 7 18 L 7 8 z M 10 10 L 10 12 L 22 12 L 22 10 L 10 10 z M 10 14 L 10 16 L 20 16 L 20 14 L 10 14 z M 6.5 20 L 25.5 20 L 27.875 23.15625 L 27.90625 23.1875 C 27.972019 23.275192 28 23.390385 28 23.5 C 28 23.786937 27.786937 24 27.5 24 L 4.5 24 C 4.2130628 24 4 23.786937 4 23.5 C 4 23.40044 4.039291 23.300835 4.09375 23.21875 L 4.09375 23.1875 L 6.5 20 z" overflow="visible" font-family="Sans" fill="#000000"/></svg>
