<?xml version="1.0" encoding="utf-8"?>
<svg xmlns="http://www.w3.org/2000/svg" viewBox="0 0 32 32" fill="#000000"><path style="text-indent:0;text-align:start;line-height:normal;text-transform:none;block-progression:tb;-inkscape-font-specification:Bitstream Vera Sans" d="M 22.59375 4 C 20.977992 4 19.647451 5.0522987 18.375 6.1875 C 17.102549 7.3227013 15.928024 8.6512766 15.0625 9.53125 C 14.307221 10.298838 13.382721 11.200569 12.53125 11.875 C 11.679779 12.549431 10.798305 12.90625 10.6875 12.90625 C 8.3878858 12.90625 6.6683787 13.622931 5.5625 14.75 C 4.4566213 15.877069 4 17.329653 4 18.65625 C 4 20.717752 4.9865588 22.085096 5.53125 22.75 C 5.273768 23.235744 5 23.930099 5 24.84375 C 5 26.607291 6 27.6875 6 27.6875 L 6.3125 28 L 6.71875 28 L 11 28 L 11 26 L 7.34375 26 C 7.2285237 25.861927 7 25.700487 7 24.84375 C 7 24.216502 7.5625 23.25 7.5625 23.25 L 8 22.59375 L 7.46875 22.03125 C 7.46875 22.03125 6 20.279782 6 18.65625 C 6 17.786847 6.3053787 16.864181 7 16.15625 C 7.6946213 15.448319 8.7971142 14.90625 10.6875 14.90625 C 11.878695 14.90625 12.777471 14.207819 13.75 13.4375 C 14.722529 12.667181 15.690029 11.728912 16.46875 10.9375 C 17.400226 9.9904734 18.540201 8.7110487 19.6875 7.6875 C 20.834799 6.6639513 22.009508 6 22.59375 6 C 22.53465 6 22.778212 6.03297 23.03125 6.15625 C 23.284288 6.27953 23.585041 6.4811581 23.875 6.78125 C 24.326761 7.2487992 24.737986 7.9351999 24.90625 9 L 23.5 9 L 23.5 11 L 25 11 C 25.360606 11 25.609583 11.09165 25.75 11.21875 C 25.890417 11.345851 26 11.530682 26 12 C 26 12.270299 25.896439 12.444017 25.5625 12.65625 C 25.228561 12.868483 24.683017 13 24.34375 13 C 22.56812 13 21.625 12.21875 21.625 12.21875 L 20.375 13.78125 C 20.375 13.78125 21.103405 14.357898 22.3125 14.71875 C 22.544721 14.984594 23 15.573878 23 16.28125 C 23 16.55527 22.569854 17.825154 22.375 18.09375 L 22 18.625 L 22.3125 19.15625 C 22.731383 19.943917 23 19.973559 23 21.03125 C 23 21.221382 22.882719 21.648064 22.75 21.96875 C 22.617281 22.289436 22.5 22.5 22.5 22.5 L 22.15625 23.09375 L 22.59375 23.625 C 22.59375 23.625 23 24.354306 23 24.5625 C 23 25.154656 22.79348 25.427551 22.5 25.65625 C 22.20652 25.884949 21.757473 26 21.59375 26 L 19 26 L 19 28 L 21.59375 28 C 22.275027 28 23.02348 27.791801 23.71875 27.25 C 24.41402 26.708199 25 25.740344 25 24.5625 C 25 23.80516 24.737435 23.288177 24.5 22.90625 C 24.54247 22.81524 24.5493 22.82616 24.59375 22.71875 C 24.777531 22.274686 25 21.708118 25 21.03125 C 25 19.820433 24.601291 19.121059 24.3125 18.65625 C 24.706171 17.932715 25 17.13166 25 16.28125 C 25 15.788378 24.888093 15.361372 24.75 14.96875 C 25.379379 14.908065 26.036538 14.717743 26.625 14.34375 C 27.343311 13.887233 28 13.054701 28 12 C 28 11.094318 27.678333 10.279149 27.09375 9.75 C 27.060804 9.720178 27.034084 9.6841291 27 9.65625 C 26.922313 7.7114758 26.184186 6.277149 25.3125 5.375 C 24.851334 4.8977169 24.364868 4.5671887 23.90625 4.34375 C 23.447632 4.1203113 23.048348 4 22.59375 4 z M 16.03125 14.6875 C 15.299378 17.007808 15.823365 18.888752 16.59375 20.15625 C 15.718458 20.809591 14.166223 21.709557 12 21.9375 C 12.000105 21.926534 12 21.917261 12 21.90625 C 12 19.899905 10.78125 18.40625 10.78125 18.40625 L 9.21875 19.59375 C 9.21875 19.59375 10 20.740595 10 21.90625 C 10 22.29672 9.7525755 22.888361 9.4375 23.34375 C 9.1224245 23.799139 8.8125 24.0625 8.8125 24.0625 L 10.1875 25.53125 C 10.1875 25.53125 10.627576 25.097361 11.0625 24.46875 C 11.166616 24.318267 11.302203 24.17679 11.40625 24 C 14.492385 23.888264 16.753444 22.529937 17.9375 21.625 C 18.071971 21.713848 18.199034 21.835602 18.3125 21.90625 C 18.2394 22.624344 18.195549 24.12864 19.71875 25.53125 L 21.0625 24.0625 C 19.915377 23.006194 20.28125 21.71875 20.28125 21.71875 L 20.4375 20.96875 L 19.75 20.625 C 19.75 20.625 19.049413 20.230441 18.4375 19.375 C 17.825587 18.519559 17.336771 17.316111 17.96875 15.3125 L 16.03125 14.6875 z" overflow="visible" font-family="Bitstream Vera Sans" fill="#000000"/></svg>
