<?xml version="1.0" encoding="utf-8"?>
<svg xmlns="http://www.w3.org/2000/svg" viewBox="0 0 32 32" fill="#000000"><path style="text-indent:0;text-align:start;line-height:normal;text-transform:none;block-progression:tb;-inkscape-font-specification:Sans" d="M 20 4 L 20 6 L 23 6 L 23 9.09375 C 22.677929 9.0397976 22.336855 9 22 9 C 20.69403 9 19.486326 9.4119439 18.5 10.125 C 18.46958 10.14699 18.43623 10.16496 18.40625 10.1875 L 7.65625 16.46875 L 7.4375 16.5625 C 7.1611138 16.69364 6.9077127 16.861044 6.65625 17.03125 L 6.5 17.125 C 4.9865474 18.216645 4 20.00075 4 22 C 4 25.301864 6.6981362 28 10 28 C 11.302614 28 12.513908 27.586263 13.5 26.875 L 25.5 19.875 L 25.5625 19.84375 L 25.59375 19.8125 C 27.04955 18.718851 28 16.956293 28 15 C 28 12.793893 26.784479 10.854896 25 9.8125 L 25 6 L 28 6 L 28 4 L 20 4 z M 22 11 C 24.220375 11 26 12.779625 26 15 C 26 16.315707 25.37845 17.457149 24.40625 18.1875 L 15.875 23.15625 C 15.947387 22.785182 16 22.391539 16 22 C 16 19.35163 14.265889 17.103332 11.875 16.3125 L 19.5 11.875 L 19.5625 11.84375 L 19.59375 11.8125 C 20.261888 11.309996 21.094249 11 22 11 z M 10 18 C 12.220984 18 14 19.779016 14 22 C 14 23.273465 13.417709 24.394182 12.5 25.125 C 11.817181 25.668763 10.947519 26 10 26 C 7.7790164 26 6 24.220984 6 22 C 6 20.726535 6.5822911 19.605818 7.5 18.875 L 7.5625 18.84375 L 8.4375 18.3125 L 8.5 18.3125 C 8.964264 18.12545 9.4660755 18 10 18 z M 10 20 C 8.8954305 20 8 20.895431 8 22 C 8 23.104569 8.8954305 24 10 24 C 11.104569 24 12 23.104569 12 22 C 12 20.895431 11.104569 20 10 20 z" overflow="visible" font-family="Sans" fill="#000000"/></svg>
