<?xml version="1.0" encoding="utf-8"?>
<svg xmlns="http://www.w3.org/2000/svg" viewBox="0 0 32 32" fill="#000000"><path style="text-indent:0;text-align:start;line-height:normal;text-transform:none;block-progression:tb;-inkscape-font-specification:Bitstream Vera Sans" d="M 15 4 L 15 5.09375 C 13.68322 5.2927707 12.40605 5.85516 11.34375 6.6875 C 10.273394 7.5261524 9.4213968 8.662932 9.125 10 L 8 10 L 8 12 L 9 12 L 9 14 L 8 14 C 6.1467686 14 4.6033076 15.280143 4.15625 17 L 3 17 L 3 19 L 4.15625 19 C 4.6033076 20.719857 6.1467686 22 8 22 L 9 22 L 9 25 L 8 25 L 8 27 L 9 27 L 23 27 L 24 27 L 24 25 L 23 25 L 23 22 L 24 22 C 25.853231 22 27.396692 20.719857 27.84375 19 L 29 19 L 29 17 L 27.84375 17 C 27.396692 15.280143 25.853231 14 24 14 L 23 14 L 23 12 L 24 12 L 24 10 L 22.875 10 C 22.578603 8.662932 21.726606 7.5261524 20.65625 6.6875 C 19.59395 5.85516 18.31678 5.2927707 17 5.09375 L 17 4 L 15 4 z M 16 7 C 17.110187 7 18.424679 7.4809135 19.40625 8.25 C 20.05894 8.7613997 20.526595 9.357924 20.78125 10 L 11.21875 10 C 11.473405 9.357924 11.94106 8.7613997 12.59375 8.25 C 13.575321 7.4809135 14.889813 7 16 7 z M 11 12 L 21 12 L 21 15 L 21 16 L 22 16 L 23 16 L 23 20 L 22 20 L 21 20 L 21 21 L 21 25 L 11 25 L 11 21 L 11 20 L 10 20 L 9 20 L 9 16 L 10 16 L 11 16 L 11 15 L 11 12 z M 16 14 C 13.802706 14 12 15.802706 12 18 C 12 20.197294 13.802706 22 16 22 C 18.197294 22 20 20.197294 20 18 C 20 15.802706 18.197294 14 16 14 z M 16 16 C 17.116414 16 18 16.883586 18 18 C 18 19.116414 17.116414 20 16 20 C 14.883586 20 14 19.116414 14 18 C 14 16.883586 14.883586 16 16 16 z M 7 16.28125 L 7 19.71875 C 6.4030569 19.375407 6 18.747704 6 18 C 6 17.252296 6.4030569 16.624593 7 16.28125 z M 25 16.28125 C 25.596943 16.624593 26 17.252296 26 18 C 26 18.747704 25.596943 19.375407 25 19.71875 L 25 16.28125 z" fill="#000000"/></svg>
