<?xml version="1.0" encoding="utf-8"?>
<svg xmlns="http://www.w3.org/2000/svg" viewBox="0 0 32 32" fill="#000000"><path style="text-indent:0;text-align:start;line-height:normal;text-transform:none;block-progression:tb;-inkscape-font-specification:Sans" d="M 14 7 C 9.0545455 7 5 11.054545 5 16 L 5 21.5 C 2.3868909 20.79252 0.78125 20.09375 0.78125 20.09375 L -0.03125 21.90625 C -0.03125 21.90625 7.0019498 25 16 25 C 24.99805 25 31.84375 21.90625 31.84375 21.90625 L 31.03125 20.09375 C 31.03125 20.09375 29.504095 20.771621 27 21.46875 L 27 16 C 27 11.054545 22.945455 7 18 7 L 14 7 z M 14 9 L 18 9 C 21.854545 9 25 12.145455 25 16 L 25 17.09375 C 22.673676 17.58399 19.150184 18 16 18 C 12.877816 18 9.3492678 17.581076 7 17.09375 L 7 16 C 7 12.145455 10.145455 9 14 9 z M 7 19.125 C 9.5131721 19.616829 12.883125 20 16 20 C 19.144846 20 22.502837 19.620378 25 19.125 L 25 21.96875 C 22.513989 22.532757 19.444425 23 16 23 C 12.590165 23 9.5093391 22.556487 7 22 L 7 19.125 z" overflow="visible" font-family="Sans" fill="#000000"/></svg>
