<?xml version="1.0" encoding="utf-8"?>
<svg xmlns="http://www.w3.org/2000/svg" viewBox="0 0 32 32" fill="#000000"><path style="line-height:normal;text-indent:0;text-align:start;text-decoration-line:none;text-decoration-style:solid;text-decoration-color:#000;text-transform:none;block-progression:tb;isolation:auto;mix-blend-mode:normal" d="M 15 3 L 15 4 L 15 6 L 15 7 L 17 7 L 17 6 L 17 4 L 17 3 L 15 3 z M 8.65625 5.2421875 L 7.2421875 6.65625 L 7.9492188 7.3632812 L 9.2929688 8.7070312 L 10 9.4140625 L 11.414062 8 L 10.707031 7.2929688 L 9.3632812 5.9492188 L 8.65625 5.2421875 z M 23.328125 5.2578125 L 22.621094 5.9648438 L 21.292969 7.2929688 L 20.585938 8 L 22 9.4140625 L 22.707031 8.7070312 L 24.035156 7.3789062 L 24.742188 6.671875 L 23.328125 5.2578125 z M 16 9 C 13.250484 9 11 11.250484 11 14 L 11 16 L 10 16 C 8.9045455 16 8 16.904545 8 18 L 8 27 C 8 28.095455 8.9045455 29 10 29 L 22 29 C 23.095455 29 24 28.095455 24 27 L 24 18 C 24 16.904545 23.095455 16 22 16 L 21 16 L 21 14 C 21 11.250484 18.749516 9 16 9 z M 16 11 C 17.668484 11 19 12.331516 19 14 L 19 16 L 13 16 L 13 14 C 13 12.331516 14.331516 11 16 11 z M 5 13 L 5 15 L 6 15 L 8 15 L 9 15 L 9 13 L 8 13 L 6 13 L 5 13 z M 23 13 L 23 15 L 24 15 L 26 15 L 27 15 L 27 13 L 26 13 L 24 13 L 23 13 z M 10 18 L 22 18 L 22 27 L 10 27 L 10 18 z M 16 20 A 1.5 1.5 0 0 0 14.5 21.5 A 1.5 1.5 0 0 0 15 22.615234 L 15 24 C 15 24.55 15.45 25 16 25 C 16.55 25 17 24.55 17 24 L 17 22.615234 A 1.5 1.5 0 0 0 17.5 21.5 A 1.5 1.5 0 0 0 16 20 z" fill="#000000"/></svg>
