<?xml version="1.0" encoding="utf-8"?>
<svg xmlns="http://www.w3.org/2000/svg" viewBox="0 0 32 32" fill="#000000"><path style="text-indent:0;text-align:start;line-height:normal;text-transform:none;block-progression:tb;-inkscape-font-specification:Sans" d="M 1 5 L 1 6 L 1 26 L 1 27 L 2 27 L 30 27 L 31 27 L 31 26 L 31 6 L 31 5 L 30 5 L 2 5 L 1 5 z M 3 7 L 29 7 L 29 25 L 3 25 L 3 7 z M 10 9 C 8.8954305 9 8 9.8954305 8 11 C 8 12.104569 8.8954305 13 10 13 C 11.104569 13 12 12.104569 12 11 C 12 9.8954305 11.104569 9 10 9 z M 10 13 C 8.343 13 7 13.895 7 15 L 13 15 C 13 13.895 11.657 13 10 13 z M 17 11 L 17 13 L 26 13 L 26 11 L 17 11 z M 17 14 L 17 16 L 24 16 L 24 14 L 17 14 z M 7.59375 16 L 6 19.375 L 6 22.46875 C 6 22.76675 6.23125 23 6.53125 23 L 7.46875 23 C 7.76775 23 8 22.76775 8 22.46875 L 8 22 L 12 22 L 12 22.46875 C 12 22.76775 12.23125 23 12.53125 23 L 13.46875 23 C 13.76775 23 14 22.76775 14 22.46875 L 14 19.375 L 12.40625 16 L 7.59375 16 z M 17 17 L 17 19 L 26 19 L 26 17 L 17 17 z M 7.5 19.75 C 7.914 19.75 8.25 20.086 8.25 20.5 C 8.25 20.914 7.914 21.25 7.5 21.25 C 7.086 21.25 6.75 20.914 6.75 20.5 C 6.75 20.086 7.086 19.75 7.5 19.75 z M 12.5 19.75 C 12.912 19.75 13.25 20.087 13.25 20.5 C 13.25 20.912 12.912 21.25 12.5 21.25 C 12.088 21.25 11.75 20.912 11.75 20.5 C 11.75 20.087 12.088 19.75 12.5 19.75 z M 17 20 L 17 22 L 24 22 L 24 20 L 17 20 z" fill="#000000"/></svg>
