<?xml version="1.0" encoding="utf-8"?>
<svg xmlns="http://www.w3.org/2000/svg" viewBox="0 0 32 32" fill="#000000"><path style="text-indent:0;text-align:start;line-height:normal;text-transform:none;block-progression:tb;-inkscape-font-specification:Sans" d="M 16 3 C 8.8324839 3 3 8.8324839 3 16 C 3 23.167516 8.8324839 29 16 29 C 23.167516 29 29 23.167516 29 16 L 27 16 C 27 22.086484 22.086484 27 16 27 C 9.9135161 27 5 22.086484 5 16 C 5 9.9135161 9.9135161 5 16 5 C 19.876901 5 23.260297 6.9824637 25.21875 10 L 20 10 L 20 12 L 27 12 L 28 12 L 28 11 L 28 4 L 26 4 L 26 7.71875 C 23.615967 4.8427408 20.019312 3 16 3 z M 15 9 L 15 19 L 17 19 L 17 9 L 15 9 z M 15 21 L 15 23 L 17 23 L 17 21 L 15 21 z" overflow="visible" font-family="Sans" fill="#000000"/></svg>
