<?xml version="1.0" encoding="utf-8"?>
<svg xmlns="http://www.w3.org/2000/svg" viewBox="0 0 32 32" fill="#000000"><path d="M 16 3 C 12.906 3 10.507172 7.5795 10.076172 13.9375 C 10.633172 14.5275 11.284813 15.112594 12.007812 15.683594 C 12.01537 15.021368 12.056092 14.387173 12.107422 13.765625 C 12.691406 13.363579 13.422175 12.869553 13.998047 12.537109 C 16.662047 10.998109 19.400031 9.9865 21.707031 9.6875 C 22.160031 9.6275 22.584609 9.5996094 22.974609 9.5996094 C 24.267609 9.5996094 25.187391 9.915 25.525391 10.5 C 25.833391 11.033 25.696594 11.874234 25.183594 12.865234 C 25.707594 13.348234 26.202484 13.839938 26.646484 14.335938 C 27.768484 12.472938 27.998812 10.782 27.257812 9.5 C 26.374813 7.971 24.316172 7.332125 21.451172 7.703125 C 18.888172 8.035125 15.888 9.1376875 13 10.804688 C 12.815215 10.911444 12.644658 11.028202 12.464844 11.138672 C 13.18537 7.4410672 14.644615 5 16 5 C 16.633 5 17.288813 5.5375156 17.882812 6.4785156 C 18.561812 6.2665156 19.233766 6.0813125 19.884766 5.9453125 C 18.852766 4.0913125 17.509 3 16 3 z M 9.21875 7.6132812 C 7.05075 7.5752813 5.4801875 8.221 4.7421875 9.5 C 3.9391875 10.89 4.2732969 12.758594 5.6542969 14.808594 C 5.7792969 15.001594 5.9198437 15.203781 6.0898438 15.425781 C 7.6588437 17.479781 10.112 19.528312 13 21.195312 C 13.184776 21.301957 13.375611 21.395394 13.5625 21.498047 C 12.418556 21.893477 11.30865 22.180822 10.289062 22.3125 C 8.3410625 22.5645 6.9136094 22.262 6.4746094 21.5 C 6.1666094 20.967 6.3034062 20.125766 6.8164062 19.134766 C 6.2924062 18.651766 5.7975156 18.162016 5.3535156 17.666016 C 4.2315156 19.529016 4.0011875 21.219953 4.7421875 22.501953 C 5.4611875 23.746953 6.9610625 24.400391 9.0390625 24.400391 C 9.5130625 24.400391 10.017828 24.365875 10.548828 24.296875 C 10.849828 24.256875 11.15675 24.206484 11.46875 24.146484 L 11.689453 24.099609 C 11.703453 24.096609 11.716469 24.092844 11.730469 24.089844 C 12.263469 23.977844 12.848484 23.821328 13.521484 23.611328 L 14.179688 23.40625 C 15.160687 23.06925 16.163969 22.654063 17.167969 22.164062 C 17.386969 21.438063 17.582469 20.591281 17.730469 19.613281 C 17.151925 19.939007 16.570851 20.231684 15.992188 20.505859 C 15.322848 20.189537 14.654269 19.842198 14 19.464844 C 11.336 17.926844 9.0907344 16.060891 7.6777344 14.212891 C 6.4837344 12.649891 6.0346094 11.262953 6.4746094 10.501953 C 6.7786094 9.9749531 7.5739219 9.6790469 8.6699219 9.6230469 C 8.8279219 8.9180469 9.00875 8.2452813 9.21875 7.6132812 z M 20.742188 11.898438 C 19.953187 12.083438 19.117766 12.353359 18.259766 12.693359 C 18.8269 13.02901 19.365384 13.384951 19.888672 13.746094 C 19.952728 14.471354 20 15.215564 20 16 C 20 21.899 18.146375 26.399359 16.359375 26.943359 C 16.236375 26.980359 16.115 27 16 27 C 15.367 27 14.711188 26.463484 14.117188 25.521484 C 13.438187 25.733484 12.766234 25.918688 12.115234 26.054688 C 13.147234 27.908688 14.491 29 16 29 C 16.2 29 16.392125 28.979406 16.578125 28.941406 C 19.707125 28.349406 22 22.987 22 16 C 22 15.783579 21.985339 15.577985 21.980469 15.365234 C 22.893996 16.157406 23.698493 16.97109 24.322266 17.787109 C 25.516266 19.350109 25.965391 20.739 25.525391 21.5 C 25.220391 22.029 24.432078 22.331719 23.330078 22.386719 C 23.172078 23.086719 22.994156 23.760672 22.785156 24.388672 C 22.841156 24.389672 22.905938 24.400391 22.960938 24.400391 C 25.038937 24.400391 26.538812 23.746953 27.257812 22.501953 C 28.140812 20.971953 27.662156 18.866219 25.910156 16.574219 C 24.668156 14.949219 22.868188 13.330438 20.742188 11.898438 z M 16 14 A 2 2 0 0 0 14 16 A 2 2 0 0 0 16 18 A 2 2 0 0 0 18 16 A 2 2 0 0 0 16 14 z" fill="#000000"/></svg>
