<?xml version="1.0" encoding="utf-8"?>
<svg xmlns="http://www.w3.org/2000/svg" viewBox="0 0 32 32" fill="#000000"><path d="M 19 3.78125 L 17.8125 4.03125 L 4.8125 6.46875 L 4 6.625 L 4 7.4375 L 4 24.5625 L 4 25.375 L 4.8125 25.53125 L 17.8125 27.96875 L 19 28.21875 L 19 27 L 19 24.875 C 19.63948 24.945593 20.292561 25 21 25 C 22.747022 25 24.33195 24.785136 25.5625 24.375 C 26.177775 24.169932 26.713518 23.911468 27.15625 23.5625 C 27.598982 23.213532 28 22.681378 28 22 L 28 10 C 28 9.3186218 27.598982 8.7864679 27.15625 8.4375 C 26.713518 8.0885321 26.177775 7.8300681 25.5625 7.625 C 24.33195 7.2148638 22.747022 7 21 7 C 20.292561 7 19.63948 7.0544072 19 7.125 L 19 5 L 19 3.78125 z M 17 6.1875 L 17 25.8125 L 6 23.71875 L 6 8.28125 L 17 6.1875 z M 21 9 C 22.566978 9 23.99655 9.2176362 24.9375 9.53125 C 25.407975 9.6880569 25.741795 9.8703742 25.90625 10 C 25.741795 10.129626 25.407975 10.311943 24.9375 10.46875 C 23.99655 10.782364 22.566978 11 21 11 C 20.286767 11 19.620688 10.954038 19 10.875 L 19 9.125 C 19.620688 9.0459626 20.286767 9 21 9 z M 12.4375 11 C 11.7425 11.053 11.067 11.075 10.375 11.125 C 9.514 14.253 8.58575 17.372 7.71875 20.5 C 8.29775 20.539 8.88675 20.58 9.46875 20.625 C 9.64975 19.924 9.825 19.23525 10 18.53125 C 10.909 18.57525 11.839 18.59075 12.75 18.59375 C 12.946 19.33375 13.1315 20.10075 13.3125 20.84375 C 13.9925 20.90575 14.689 20.956 15.375 21 C 14.393 17.671 13.4335 14.326 12.4375 11 z M 26 12.1875 L 26 13.90625 C 25.99712 13.906156 25.98848 13.935187 25.90625 14 C 25.741795 14.129626 25.407975 14.311943 24.9375 14.46875 C 23.99655 14.782364 22.566978 15 21 15 C 20.283968 15 19.618253 14.957246 19 14.875 L 19 12.875 C 19.63948 12.945593 20.292561 13 21 13 C 22.747022 13 24.33195 12.785136 25.5625 12.375 C 25.718188 12.32311 25.854715 12.246829 26 12.1875 z M 11.3125 12.78125 C 11.5795 14.18925 12.00475 15.5475 12.34375 16.9375 C 11.68675 16.9345 11.029 16.9435 10.375 16.9375 C 10.675 15.5475 11.1135 14.19225 11.3125 12.78125 z M 26 16.1875 L 26 17.90625 C 25.99712 17.906157 25.98848 17.935187 25.90625 18 C 25.741795 18.129626 25.407975 18.311943 24.9375 18.46875 C 23.99655 18.782364 22.566978 19 21 19 C 20.283968 19 19.618253 18.957246 19 18.875 L 19 16.875 C 19.638114 16.948836 20.293043 17 21 17 C 22.747022 17 24.33195 16.785136 25.5625 16.375 C 25.718188 16.32311 25.854715 16.246829 26 16.1875 z M 26 20.1875 L 26 21.90625 C 25.99712 21.906157 25.98848 21.935187 25.90625 22 C 25.741795 22.129626 25.407975 22.311943 24.9375 22.46875 C 23.99655 22.782364 22.566978 23 21 23 C 20.286767 23 19.620688 22.954038 19 22.875 L 19 20.875 C 19.638114 20.948836 20.293043 21 21 21 C 22.747022 21 24.33195 20.785136 25.5625 20.375 C 25.718188 20.32311 25.854715 20.246829 26 20.1875 z" fill="#000000"/></svg>
