<?xml version="1.0" encoding="utf-8"?>
<svg xmlns="http://www.w3.org/2000/svg" viewBox="0 0 32 32" fill="#000000"><path style="text-indent:0;text-align:start;line-height:normal;text-transform:none;block-progression:tb;-inkscape-font-specification:Sans" d="M 8 3 C 5.8027056 3 4 4.8027056 4 7 C 4 8.0674862 4.4355108 9.0302336 5.125 9.75 C 3.2752943 10.774742 2 12.745203 2 15 L 2 19 L 2 19.40625 L 2.28125 19.71875 L 4 21.4375 L 4 29 L 6 29 L 6 21 L 6 20.59375 L 5.71875 20.28125 L 4 18.5625 L 4 15 C 4 12.779625 5.7796254 11 8 11 C 10.220375 11 12 12.779625 12 15 L 12 18.5625 L 10.28125 20.28125 L 10 20.59375 L 10 21 L 10 29 L 12 29 L 12 21.4375 L 13.71875 19.71875 L 14 19.40625 L 14 19 L 14 15 C 14 12.745203 12.724706 10.774742 10.875 9.75 C 11.564489 9.0302336 12 8.0674862 12 7 C 12 4.8027056 10.197294 3 8 3 z M 8 5 C 9.116414 5 10 5.883586 10 7 C 10 8.116414 9.116414 9 8 9 C 6.883586 9 6 8.116414 6 7 C 6 5.883586 6.883586 5 8 5 z M 22 12 L 22 13 L 22 18 L 17 18 L 16 18 L 16 19 L 16 19.5 C 16 21.453891 17.043343 23.179843 18.59375 24.15625 C 17.664799 24.522745 17 25.44921 17 26.5 C 17 27.868867 18.131133 29 19.5 29 C 20.868867 29 22 27.868867 22 26.5 C 22 25.94564 21.811688 25.417042 21.5 25 L 24.5 25 C 24.188312 25.417042 24 25.94564 24 26.5 C 24 27.868867 25.131133 29 26.5 29 C 27.868867 29 29 27.868867 29 26.5 C 29 25.44921 28.335201 24.522745 27.40625 24.15625 C 28.823454 23.26373 29.809319 21.746931 29.96875 20 L 30 20 L 30 19.5 L 30 19 C 30 19 30.01848 17.304973 29.15625 15.5625 C 28.294016 13.820027 26.360924 12 23 12 L 22 12 z M 24 14.25 C 25.813859 14.555782 26.857471 15.391634 27.375 16.4375 C 27.75409 17.203596 27.691872 17.509205 27.75 18 L 24 18 L 24 14.25 z M 18.09375 20 L 27.90625 20 C 27.656496 21.686501 26.254719 23 24.5 23 L 21.5 23 C 19.745281 23 18.343504 21.686501 18.09375 20 z M 19.5 26 C 19.787987 26 20 26.212013 20 26.5 C 20 26.787987 19.787987 27 19.5 27 C 19.212013 27 19 26.787987 19 26.5 C 19 26.212013 19.212013 26 19.5 26 z M 26.5 26 C 26.787987 26 27 26.212013 27 26.5 C 27 26.787987 26.787987 27 26.5 27 C 26.212013 27 26 26.787987 26 26.5 C 26 26.212013 26.212013 26 26.5 26 z" overflow="visible" font-family="Sans" fill="#000000"/></svg>
