<?xml version="1.0" encoding="utf-8"?>
<svg xmlns="http://www.w3.org/2000/svg" viewBox="-7 9 32 32" fill="#000000"><path style="text-indent:0;text-align:start;line-height:normal;text-transform:none;block-progression:tb;-inkscape-font-specification:Sans" d="M 12.96875 3 C 12.637839 3.001211 12.306723 3.024264 11.96875 3.0625 C 7.9057576 3.521225 4.5800919 6.755393 4.0625 10.8125 C 3.6533962 14.022736 4.9567632 16.995065 7.1875 18.875 C 8.3310832 19.838985 9 21.25311 9 22.75 L 9 23 L 9 24 L 9 27 L 9 28 L 10 28 L 11.28125 28 C 11.627196 28.596897 12.260107 29 13 29 C 13.739893 29 14.372804 28.596897 14.71875 28 L 16 28 L 17 28 L 17 27 L 17 24 L 17 23 L 17 22.75 C 17 21.22361 17.736046 19.80257 18.9375 18.75 C 20.815975 17.103103 22 14.6907 22 12 C 22 7.0283812 17.932419 2.9818357 12.96875 3 z M 12.96875 5 C 16.87091 4.9808382 20 8.1122437 20 12 C 20 14.1033 19.088525 15.966897 17.625 17.25 C 16.245806 18.458285 15.406634 20.153367 15.1875 22 L 10.84375 22 C 10.645124 20.209322 9.8935567 18.51845 8.5 17.34375 C 6.7627368 15.879685 5.7396038 13.596264 6.0625 11.0625 C 6.4609081 7.939607 9.0584924 5.384525 12.1875 5.03125 C 12.453902 5.001111 12.708606 5.0012775 12.96875 5 z M 21.875 18.9375 L 21.875 20.78125 L 22.34375 20.78125 C 21.738662 21.166613 21.239611 21.681628 20.84375 22.28125 L 20.84375 21.9375 L 18.84375 21.9375 L 18.84375 23.8125 L 20.125 23.8125 C 20.030242 24.192801 20 24.591847 20 25 C 20 25.412354 20.060872 25.803474 20.15625 26.1875 L 18.84375 26.1875 L 18.84375 28.0625 L 20.84375 28.0625 L 20.84375 27.78125 C 21.230678 28.352623 21.761138 28.847702 22.34375 29.21875 L 21.875 29.21875 L 21.875 31.0625 L 23.875 31.0625 L 23.875 29.875 C 24.238486 29.959881 24.6117 30 25 30 C 25.3883 30 25.761514 29.959881 26.125 29.875 L 26.125 31.0625 L 28.125 31.0625 L 28.125 29.21875 L 27.65625 29.21875 C 28.261338 28.833387 28.760389 28.318372 29.15625 27.71875 L 29.15625 28.0625 L 31.15625 28.0625 L 31.15625 26.1875 L 29.875 26.1875 C 29.969758 25.807199 30 25.408153 30 25 C 30 24.587646 29.939128 24.196526 29.84375 23.8125 L 31.15625 23.8125 L 31.15625 21.9375 L 29.15625 21.9375 L 29.15625 22.21875 C 28.759567 21.632972 28.229376 21.157497 27.625 20.78125 L 28.125 20.78125 L 28.125 18.9375 L 26.125 18.9375 L 26.125 20.125 C 25.762294 20.040328 25.386169 20 25 20 C 24.6117 20 24.238486 20.040119 23.875 20.125 L 23.875 18.9375 L 21.875 18.9375 z M 25 22 C 26.668147 22 28 23.331853 28 25 C 28 26.668147 26.668147 28 25 28 C 23.331853 28 22 26.668147 22 25 C 22 23.331853 23.331853 22 25 22 z M 11 24 L 15 24 L 15 26 L 11 26 L 11 24 z" transform="translate(-7 9)" fill="#000000"/></svg>
