<?xml version="1.0" encoding="utf-8"?>
<svg xmlns="http://www.w3.org/2000/svg" viewBox="0 0 32 32" fill="#000000"><path style="text-indent:0;text-align:start;line-height:normal;text-transform:none;block-progression:tb;-inkscape-font-specification:Bitstream Vera Sans" d="M 27.5 8 L 27.21875 8.375 L 23.65625 13 L 21.40625 13 L 19 13 L 19 11 L 17 11 L 17 13 L 16 13 L 16 11 L 14 11 L 14 13 L 13 13 L 13 11 L 11 11 L 11 13.09375 C 8.7272823 13.562098 7 15.594174 7 18 L 7 19 C 7 21.749516 9.2504839 24 12 24 L 13.5 24 L 15.5 24 L 18 24 C 20.197334 24 22 22.197334 22 20 L 22 19.5 C 22 18.954587 21.8512 18.461935 21.625 18 L 23.65625 18 L 27.21875 22.625 L 27.5 23 L 28 23 L 29 23 L 30 23 L 30 22 L 30 9 L 30 8 L 29 8 L 28 8 L 27.5 8 z M 28 10.65625 L 28 20.34375 L 24.9375 16.375 L 24.65625 16 L 24.15625 16 L 19 16 L 19 15 L 21.40625 15 L 24.15625 15 L 24.65625 15 L 24.9375 14.625 L 28 10.65625 z M 2 14 L 2 18 L 4 18 L 4 17 L 6.09375 17 C 6.21575 16.282 6.4595 15.608 6.8125 15 L 4 15 L 4 14 L 2 14 z M 13 15 L 14 15 L 14 16 L 13 16 L 13 15 z M 16 15 L 17 15 L 17 16 L 16 16 L 16 15 z M 11 15.15625 L 11 16.28125 C 10.403111 16.627643 10 17.261447 10 18 L 13 18 L 18.5 18 C 19.340812 18 20 18.659188 20 19.5 L 20 20 C 20 21.116666 19.116666 22 18 22 L 17.9375 22 C 17.971098 21.838052 18 21.671133 18 21.5 C 18 20.130937 16.869063 19 15.5 19 L 13.5 19 C 12.130937 19 11 20.130937 11 21.5 C 11 21.61716 11.015245 21.730637 11.03125 21.84375 C 9.8447947 21.444661 9 20.328628 9 19 L 9 18 C 9 16.681638 9.8279881 15.563202 11 15.15625 z M 13.5 21 L 15.5 21 C 15.786937 21 16 21.213063 16 21.5 C 16 21.786937 15.786937 22 15.5 22 L 13.5 22 C 13.213063 22 13 21.786937 13 21.5 C 13 21.213063 13.213063 21 13.5 21 z" fill="#000000"/></svg>
