<?xml version="1.0" encoding="utf-8"?>
<svg xmlns="http://www.w3.org/2000/svg" viewBox="0 0 32 32" fill="#000000"><path style="text-indent:0;text-align:start;line-height:normal;text-transform:none;block-progression:tb;-inkscape-font-specification:Bitstream Vera Sans" d="M 11.5 5 C 9.5788479 5 8 6.5788481 8 8.5 C 8 10.421152 9.5788479 12 11.5 12 C 13.421152 12 15 10.421152 15 8.5 C 15 6.5788481 13.421152 5 11.5 5 z M 11.5 7 C 12.340272 7 13 7.6597281 13 8.5 C 13 9.3402719 12.340272 10 11.5 10 C 10.659728 10 10 9.3402719 10 8.5 C 10 7.6597281 10.659728 7 11.5 7 z M 7.625 12.03125 C 6.5751571 12.11467 5.5782305 12.762525 5.15625 13.8125 L 3.25 18.59375 C 2.388236 20.73638 4.1183848 23.006214 6.25 23 C 6.5545165 22.999112 6.8732712 22.944183 7.1875 22.84375 L 9.53125 22.09375 L 9.5625 22.09375 L 14.34375 24.875 L 15.34375 23.125 L 10.5625 20.34375 C 10.074978 20.062026 9.4761287 20.014656 8.9375 20.1875 L 6.5625 20.9375 C 5.5283307 21.268038 4.6886231 20.35103 5.09375 19.34375 L 7.03125 14.5625 C 7.2362322 14.052462 7.7717747 13.853732 8.25 14.125 L 8.28125 14.125 L 11.34375 15.875 L 11.5 15.9375 L 11.65625 15.96875 L 16.59375 16.96875 L 17 15.03125 L 12.25 14.0625 L 9.25 12.375 C 8.8750563 12.162317 8.4660279 12.062072 8.0625 12.03125 C 7.911177 12.019692 7.7749776 12.019333 7.625 12.03125 z M 6.25 23 L 1 23 L 1 25 L 7.75 25 L 11.5625 26.90625 L 11.75 27 L 12 27 L 24 27 L 24.6875 27 L 24.9375 26.34375 L 27.6875 18.96875 C 27.792854 18.980164 27.891835 19 28 19 C 29.64501 19 31 17.64501 31 16 C 31 14.35499 29.64501 13 28 13 C 26.707982 13 25.605718 13.844255 25.1875 15 L 19 15 L 19 17 L 25.1875 17 C 25.339478 17.419992 25.564253 17.814253 25.875 18.125 L 23.3125 25 L 12.25 25 L 8.4375 23.09375 L 8.25 23 L 8 23 L 6.25 23 z M 28 15 C 28.564128 15 29 15.435872 29 16 C 29 16.564128 28.564128 17 28 17 C 27.435872 17 27 16.564128 27 16 C 27 15.435872 27.435872 15 28 15 z" overflow="visible" font-family="Bitstream Vera Sans" fill="#000000"/></svg>
