<?xml version="1.0" encoding="utf-8"?>
<svg xmlns="http://www.w3.org/2000/svg" viewBox="0 0 32 32" fill="#000000"><path style="text-indent:0;text-align:start;line-height:normal;text-transform:none;block-progression:tb;-inkscape-font-specification:Sans" d="M 16 4 C 9.383 4 4 9.383 4 16 C 4 22.617 9.383 28 16 28 C 22.617 28 28 22.617 28 16 C 28 14.041 27.5245 12.1975 26.6875 10.5625 L 25.1875 12.0625 C 25.58294 12.979891 25.832998 13.966494 25.9375 15 L 24 15 L 24 17 L 25.9375 17 C 25.47077 21.724882 21.724882 25.47077 17 25.9375 L 17 24 L 15 24 L 15 25.9375 C 10.275118 25.47077 6.5292303 21.724882 6.0625 17 L 8 17 L 8 15 L 6.0625 15 C 6.5292303 10.275118 10.275118 6.5292303 15 6.0625 L 15 8 L 17 8 L 17 6.0625 C 18.545866 6.220001 19.991279 6.7182418 21.25 7.5 L 22.71875 6.0625 C 20.80275 4.7675 18.482 4 16 4 z M 26.28125 5.28125 L 16 15.5625 L 12.71875 12.28125 L 11.28125 13.71875 L 15.28125 17.71875 L 16 18.40625 L 16.71875 17.71875 L 27.71875 6.71875 L 26.28125 5.28125 z" overflow="visible" font-family="Sans" fill="#000000"/></svg>
