<?xml version="1.0" encoding="utf-8"?>
<svg xmlns="http://www.w3.org/2000/svg" viewBox="0 0 32 32" fill="#000000"><path style="text-indent:0;text-align:start;line-height:normal;text-transform:none;block-progression:tb;-inkscape-font-specification:Bitstream Vera Sans" d="M 2 6 L 2 7 L 2 23 L 2 24 L 3 24 L 15 24 L 15 26 L 10 26 L 10 28 L 22 28 L 22 26 L 17 26 L 17 24 L 29 24 L 30 24 L 30 23 L 30 7 L 30 6 L 29 6 L 3 6 L 2 6 z M 4 8 L 28 8 L 28 22 L 4 22 L 4 8 z M 8.625 12.21875 L 7.375 13.78125 C 7.431 13.82625 9.37425 14.7165 10.53125 17.5625 C 10.88825 18.4405 11.77075 19 12.71875 19 C 13.51675 19 14.27675 18.6005 14.71875 17.9375 L 14.9375 17.5625 C 15.4365 16.8145 16.5635 16.8145 17.0625 17.5625 L 17.28125 17.9375 C 17.72525 18.6005 18.48325 19 19.28125 19 C 20.22525 19 21.11075 18.4355 21.46875 17.5625 C 22.64475 14.6955 24.569 13.82725 24.625 13.78125 L 23.375 12.21875 C 23.353 12.23675 21.06 14 16 14 C 10.94 14 8.647 12.23675 8.625 12.21875 z M 13 15 C 13.552 15 14 15.448 14 16 C 14 16.552 13.552 17 13 17 C 12.448 17 12 16.552 12 16 C 12 15.448 12.448 15 13 15 z M 19 15 C 19.552 15 20 15.448 20 16 C 20 16.552 19.552 17 19 17 C 18.448 17 18 16.552 18 16 C 18 15.448 18.448 15 19 15 z" overflow="visible" font-family="Bitstream Vera Sans" fill="#000000"/></svg>
