<?xml version="1.0" encoding="utf-8"?>
<svg xmlns="http://www.w3.org/2000/svg" viewBox="0 0 32 32" fill="#000000"><path style="text-indent:0;text-align:start;line-height:normal;text-transform:none;block-progression:tb;-inkscape-font-specification:Bitstream Vera Sans" d="M 3 7 L 3 9 L 4 9 L 4 27 L 6 27 L 6 25 L 26 25 L 26 27 L 28 27 L 28 9 L 29 9 L 29 7 L 3 7 z M 6 9 L 26 9 L 26 15 L 6 15 L 6 9 z M 14 11 L 14 13 L 18 13 L 18 11 L 14 11 z M 6 17 L 26 17 L 26 23 L 6 23 L 6 17 z M 14 19 L 14 21 L 18 21 L 18 19 L 14 19 z" fill="#000000"/></svg>
