<?xml version="1.0" encoding="utf-8"?>
<svg xmlns="http://www.w3.org/2000/svg" viewBox="0 0 32 32" fill="#000000"><path style="text-indent:0;text-align:start;line-height:normal;text-transform:none;block-progression:tb;-inkscape-font-specification:Sans" d="M 8 5 C 6.1709399 5 4.995368 6.0753834 4.5 7.0625 C 4.3018528 7.4573466 4.1972223 7.8316316 4.125 8.15625 C 2.9072267 8.538687 2 9.663462 2 11 L 2 24 C 2 25.64497 3.3550302 27 5 27 L 12 27 C 13.321675 27 14.52006 26.202569 15.0625 25 L 16.9375 25 C 17.478001 26.204091 18.678325 27 20 27 L 27 27 C 28.64497 27 30 25.64497 30 24 L 30 11 C 30 9.663462 29.092773 8.538687 27.875 8.15625 C 27.802869 7.8315162 27.698912 7.4563848 27.5 7.0625 C 27.00272 6.077788 25.8217 5 24 5 L 8 5 z M 8 7 L 24 7 C 25.1483 7 25.45853 7.422212 25.71875 7.9375 C 25.729913 7.9596056 25.7397 7.9778227 25.75 8 L 6.25 8 C 6.2601986 7.9779087 6.2702085 7.9595024 6.28125 7.9375 C 6.538632 7.4246166 6.8400601 7 8 7 z M 5 10 L 27 10 C 27.56503 10 28 10.43497 28 11 L 28 24 C 28 24.56503 27.56503 25 27 25 L 20 25 C 19.455705 25 18.966374 24.667149 18.75 24.15625 L 17.71875 21.40625 L 17.71875 21.375 L 17.6875 21.34375 C 17.391798 20.650307 16.727007 20.1875 15.96875 20.1875 C 15.208636 20.1875 14.514207 20.648063 14.21875 21.34375 L 14.1875 21.375 L 14.1875 21.4375 L 13.25 24.15625 C 13.03175 24.668816 12.544295 25 12 25 L 5 25 C 4.4349698 25 4 24.56503 4 24 L 4 11 C 4 10.43497 4.4349698 10 5 10 z M 10 13 C 7.8027056 13 6 14.802706 6 17 C 6 19.197294 7.8027056 21 10 21 C 12.197294 21 14 19.197294 14 17 C 14 14.802706 12.197294 13 10 13 z M 22 13 C 19.802706 13 18 14.802706 18 17 C 18 19.197294 19.802706 21 22 21 C 24.197294 21 26 19.197294 26 17 C 26 14.802706 24.197294 13 22 13 z M 10 15 C 11.116414 15 12 15.883586 12 17 C 12 18.116414 11.116414 19 10 19 C 8.883586 19 8 18.116414 8 17 C 8 15.883586 8.883586 15 10 15 z M 22 15 C 23.116414 15 24 15.883586 24 17 C 24 18.116414 23.116414 19 22 19 C 20.883586 19 20 18.116414 20 17 C 20 15.883586 20.883586 15 22 15 z M 15.96875 22.4375 L 16.1875 23 L 15.78125 23 L 15.96875 22.4375 z" overflow="visible" font-family="Sans" fill="#000000"/></svg>
