<?xml version="1.0" encoding="utf-8"?>
<svg xmlns="http://www.w3.org/2000/svg" viewBox="0 0 32 32" fill="#000000"><path style="text-indent:0;text-align:start;line-height:normal;text-transform:none;block-progression:tb;-inkscape-font-specification:Bitstream Vera Sans" d="M 8 4 L 8 5 L 8 6 C 8 15.029344 10.877154 22.795101 11 23.125 L 11 26 C 11 27.093063 11.906937 28 13 28 L 19 28 C 20.093063 28 21 27.093063 21 26 L 21 23.125 C 21.122846 22.795101 24 15.029344 24 6 L 24 5 L 24 4 L 23 4 L 9 4 L 8 4 z M 10 6 L 22 6 C 22 12.387651 20.472144 18.254328 19.625 21 L 12.375 21 C 11.527856 18.254328 10 12.387651 10 6 z M 15 9 L 15 11 L 13 11 L 13 13 L 15 13 L 15 15 L 17 15 L 17 13 L 19 13 L 19 11 L 17 11 L 17 9 L 15 9 z M 13 23 L 19 23 L 19 26 L 13 26 L 13 23 z" overflow="visible" font-family="Bitstream Vera Sans" fill="#000000"/></svg>
