<?xml version="1.0" encoding="utf-8"?>
<svg xmlns="http://www.w3.org/2000/svg" viewBox="0 0 32 32" fill="#000000"><path style="text-indent:0;text-align:start;line-height:normal;text-transform:none;block-progression:tb;-inkscape-font-specification:Sans" d="M 17.9375 3.96875 A 1.0045064 1.0045064 0 0 0 17.90625 4 A 1.001098 1.001098 0 0 0 17.84375 4 A 1.0045064 1.0045064 0 0 0 17.8125 4 A 1.0001 1.0001 0 0 0 17.71875 4.03125 A 1.001098 1.001098 0 0 0 17.625 4.0625 A 1.0001 1.0001 0 0 0 17.53125 4.09375 A 1.0001 1.0001 0 0 0 17.4375 4.125 L 17.375 4.15625 A 1.0001 1.0001 0 0 0 17.34375 4.1875 L 12.25 6.0625 L 12.0625 6.125 L 11.9375 6.25 L 7.34375 10.25 L 7.21875 10.34375 L 7.15625 10.5 L 4.3125 15.25 A 1.0001 1.0001 0 0 0 4.0625 15.625 L 4 15.71875 L 4 15.8125 A 1.0001 1.0001 0 0 0 4 15.9375 L 4 16 A 1.0001 1.0001 0 0 0 4 16.125 L 4 22 L 4 22.5 L 4 22.53125 C 4.066638 24.933559 5.0800271 26.475185 6.3125 27.21875 C 7.4681354 27.915958 8.6715603 27.979358 9.375 28 C 9.4217713 28.001372 9.4892778 27.998796 9.53125 28 A 1.0043849 1.0043849 0 0 0 9.65625 28 A 1.0004882 1.0004882 0 0 0 9.78125 28 A 1.0001 1.0001 0 0 0 10 28 L 10.5 28 A 1.0001 1.0001 0 0 0 11.4375 28 L 26.8125 28 L 26.90625 28 A 1.016466 1.016466 0 0 0 27.125 28 L 27.21875 28 L 28 28 L 28 27.15625 A 1.016466 1.016466 0 0 0 28 27 L 28 26.96875 A 1.016466 1.016466 0 0 0 28 26.75 L 28 13.0625 A 1.0001 1.0001 0 0 0 28 12.875 L 28 9.375 A 1.0001 1.0001 0 0 0 28 9.28125 A 1.0001 1.0001 0 0 0 28 9.25 C 28.004713 8.7011698 27.952476 8.1405591 27.8125 7.59375 C 27.386273 5.928716 25.997371 4.400123 23.65625 4 L 23.5625 4 L 23.46875 4 L 18.34375 4 A 1.0045064 1.0045064 0 0 0 17.9375 3.96875 z M 20.75 6 L 23.3125 6 C 25.055379 6.297877 25.603727 7.034034 25.875 8.09375 C 25.958191 8.4187331 26.004519 8.7815035 26 9.15625 A 1.0001 1.0001 0 0 0 26 9.3125 C 25.987712 9.6409992 25.931418 9.9704515 25.875 10.3125 L 20.75 6 z M 17.78125 6.15625 L 19.03125 7.1875 L 17.46875 12.09375 L 12.5 17.0625 L 7.1875 17.9375 L 6.125 16.03125 L 8.75 11.6875 L 13.09375 7.875 L 17.78125 6.15625 z M 20.6875 8.59375 L 24.8125 12 L 19.625 12 L 20.6875 8.59375 z M 19.4375 14 L 24.65625 14 C 23.787861 15.763259 22.615221 17.364999 21.28125 18.90625 L 19.4375 14 z M 17.625 14.8125 L 19.3125 19.3125 L 14.8125 17.625 L 17.625 14.8125 z M 26 15.6875 L 26 24.5625 L 22.25 20.8125 C 23.659087 19.242357 24.964105 17.562559 26 15.6875 z M 11.71875 19.25 L 10.625 24.21875 L 8.21875 19.8125 L 11.71875 19.25 z M 13.71875 19.34375 L 18.9375 21.28125 C 16.948946 23.050384 14.83308 24.549512 12.375 25.375 L 13.71875 19.34375 z M 6 19.90625 L 9.3125 25.96875 C 8.6945903 25.936685 7.9380507 25.858548 7.34375 25.5 C 6.6633729 25.089521 6.0607951 24.392473 6 22.5 L 6 22.46875 L 6 22 L 6 19.90625 z M 20.84375 22.28125 L 24.5625 26 L 15.90625 26 C 17.726567 24.974509 19.343144 23.663946 20.84375 22.28125 z" fill="#000000"/></svg>
