<?xml version="1.0" encoding="utf-8"?>
<svg xmlns="http://www.w3.org/2000/svg" viewBox="0 0 32 32" fill="#000000"><path style="text-indent:0;text-align:start;line-height:normal;text-transform:none;block-progression:tb;-inkscape-font-specification:Sans" d="M 0.25 7 L 1.125 8.5 L 5.46875 15.96875 L 5.46875 16 L 5.78125 16.5 L 9.625 23.0625 C 10.323033 24.255649 11.611968 25 13 25 L 20.65625 25 L 21.25 25 L 21.53125 24.5 L 22.96875 22.0625 L 24.21875 24 C 24.22675 24.0129 24.24177 24.01856 24.25 24.03125 C 24.636724 24.627553 25.289216 25 26 25 L 30 25 L 31.75 25 L 30.875 23.5 L 26.5 16 L 26.21875 15.5 L 22.375 8.9375 C 21.676967 7.7443506 20.388032 7 19 7 L 11.3125 7 L 10.75 7 L 10.4375 7.5 L 9.0625 9.875 L 7.875 8 C 7.4916141 7.3827487 6.8196569 7 6.09375 7 L 2 7 L 0.25 7 z M 3.75 9 L 6.09375 9 C 6.133843 9 6.139636 9.0045 6.15625 9.03125 L 7.90625 11.84375 L 6.65625 14 L 3.75 9 z M 11.90625 9 L 14.75 9 L 13.5 11 L 13.4375 11 L 13.15625 11.46875 L 10.6875 15.46875 L 10.375 16 L 10.6875 16.53125 L 13.15625 20.53125 L 13.4375 21 L 14 21 L 16.21875 21 L 14.9375 23 L 13 23 C 12.312032 23 11.677717 22.633351 11.34375 22.0625 L 7.78125 16 L 11.90625 9 z M 17.09375 9 L 19 9 C 19.687968 9 20.322283 9.3666494 20.65625 9.9375 L 24.21875 16 L 20.09375 23 L 17.28125 23 L 21.4375 16.53125 L 21.78125 16 L 21.4375 15.46875 L 18.84375 11.46875 L 18.53125 11 L 18 11 L 15.84375 11 L 17.09375 9 z M 14.59375 13 L 17.46875 13 L 19.40625 16 L 17.46875 19 L 14.5625 19 L 12.71875 16 L 13.15625 15.28125 L 14.59375 13 z M 25.34375 17.96875 L 28.25 23 L 26 23 C 25.95991 23 25.92154 22.9935 25.90625 22.96875 L 25.90625 22.9375 L 24.09375 20.125 L 25.34375 17.96875 z" overflow="visible" font-family="Sans" fill="#000000"/></svg>
