<?xml version="1.0" encoding="utf-8"?>
<svg xmlns="http://www.w3.org/2000/svg" viewBox="0 0 32 32" fill="#000000"><path style="text-indent:0;text-align:start;line-height:normal;text-transform:none;block-progression:tb;-inkscape-font-specification:Sans" d="M 16 4 C 9.3844277 4 4 9.3844277 4 16 C 4 22.615572 9.3844277 28 16 28 C 22.615572 28 28 22.615572 28 16 C 28 9.3844277 22.615572 4 16 4 z M 16 6 C 21.534692 6 26 10.465308 26 16 C 26 21.534692 21.534692 26 16 26 C 10.465308 26 6 21.534692 6 16 C 6 10.465308 10.465308 6 16 6 z M 15.5 8 C 14.671573 8 14 8.6715729 14 9.5 C 14 10.328427 14.671573 11 15.5 11 C 16.328427 11 17 10.328427 17 9.5 C 17 8.6715729 16.328427 8 15.5 8 z M 15.84375 11.90625 L 15.4375 12.15625 L 12.8125 13.90625 L 10.3125 13.0625 L 9.6875 14.9375 L 12.6875 15.9375 L 13.15625 16.09375 L 13.5625 15.84375 L 15.3125 14.65625 L 15.71875 16.625 L 13.4375 18.15625 L 13.125 18.375 L 13.03125 18.75 L 12.03125 22.75 L 13.96875 23.25 L 14.875 19.625 L 16.15625 18.78125 L 17.03125 23.1875 L 18.96875 22.8125 L 17.3125 14.46875 L 18.21875 14.78125 L 19.0625 17.3125 L 20.9375 16.6875 L 19.9375 13.6875 L 19.78125 13.21875 L 19.3125 13.0625 L 16.3125 12.0625 L 15.84375 11.90625 z" overflow="visible" font-family="Sans" fill="#000000"/></svg>
