<?xml version="1.0" encoding="utf-8"?>
<svg xmlns="http://www.w3.org/2000/svg" viewBox="0 0 32 32" fill="#000000"><path style="text-indent:0;text-align:start;line-height:normal;text-transform:none;block-progression:tb;-inkscape-font-specification:Sans" d="M 23.8125 4 C 23.450516 3.9840917 23.075415 4.0537504 22.71875 4.1875 C 21.942874 4.4781672 21.493503 5.1185341 21.21875 5.84375 L 20 6.25 C 20.0038 6.2489 19.96687 6.2508833 19.96875 6.25 C 19.99438 6.237949 19.863353 6.2527 19.5625 6.15625 C 19.239595 6.0527268 18.813093 5.8493158 18.1875 5.875 C 16.827242 5.92941 15.6875 7.0658202 15.6875 8.40625 C 15.6875 8.5966159 15.66784 8.9061762 15.625 9.21875 C 15.58216 9.5313238 15.484333 9.8326711 15.5 9.8125 L 15.46875 9.8125 L 15.46875 9.84375 C 15.46875 9.84375 14.182902 11.631082 12.8125 13.53125 C 12.127299 14.481334 11.422265 15.464889 10.84375 16.25 C 10.285951 17.006997 9.8294911 17.587741 9.71875 17.71875 L 9.6875 17.75 C 9.6473561 17.761228 9.5416663 17.807063 9.34375 17.84375 C 9.0270841 17.902482 8.5644598 17.919465 8.03125 18 C 6.9648303 18.161071 5.5467287 18.525141 4.59375 19.78125 C 4.1840496 20.321467 4.0033322 20.975997 4 21.6875 C 3.99667 22.399003 4.2108873 23.192894 4.8125 23.8125 C 5.405002 24.422546 6.1368596 24.597432 6.625 24.71875 C 7.1131404 24.840068 7.356474 24.949975 7.375 24.96875 C 7.44455 25.03906 7.528234 25.242223 7.65625 25.625 C 7.784266 26.007777 7.9555201 26.55396 8.4375 27.0625 C 8.9138566 27.565273 9.5608613 27.88698 10.34375 27.96875 C 11.126639 28.05052 12.086899 27.814085 12.78125 27.09375 C 13.781581 26.056219 13.988591 24.73735 14.125 23.65625 C 14.261409 22.57515 14.423863 21.689241 14.5625 21.5 C 15.483086 20.245106 20.819741 12.774708 21.21875 12.21875 L 22.6875 11.875 C 23.254978 13.242387 24.790508 13.961372 26.1875 13.4375 C 27.614878 12.904364 28.346025 11.300319 27.8125 9.875 L 26.3125 5.8125 C 25.911177 4.7434685 24.898453 4.0477248 23.8125 4 z M 23.75 6 C 24.05307 6.0045408 24.321323 6.1905313 24.4375 6.5 L 25.9375 10.5625 C 26.091975 10.975181 25.91462 11.407636 25.5 11.5625 C 25.086662 11.717502 24.654903 11.53763 24.5 11.125 L 23.53125 8.625 L 21.6875 9.3125 L 21.9375 10 L 20.4375 10.3125 L 20.0625 10.40625 L 19.84375 10.71875 C 19.84375 10.71875 13.838655 19.084094 12.9375 20.3125 C 12.213137 21.301259 12.250091 22.41485 12.125 23.40625 C 11.999909 24.39765 11.822419 25.222281 11.34375 25.71875 C 11.076101 25.996415 10.842361 26.02923 10.5625 26 C 10.282639 25.97077 9.9576434 25.774727 9.875 25.6875 C 9.7399799 25.54504 9.654984 25.338723 9.53125 24.96875 C 9.407516 24.598777 9.2636999 24.050194 8.78125 23.5625 C 8.204776 22.978275 7.5411096 22.892432 7.09375 22.78125 C 6.6463904 22.670068 6.400498 22.592454 6.25 22.4375 C 6.0826127 22.265106 5.9985822 21.990247 6 21.6875 C 6.0014178 21.384753 6.1232004 21.084783 6.1875 21 C 6.6775213 20.354109 7.4371697 20.136929 8.34375 20 C 8.7970402 19.93154 9.2509159 19.899268 9.71875 19.8125 C 10.186584 19.72573 10.738355 19.60224 11.1875 19.09375 C 11.461209 18.783876 11.851734 18.232451 12.4375 17.4375 C 13.023266 16.642549 13.750076 15.671916 14.4375 14.71875 C 15.799233 12.830602 17.038344 11.065172 17.0625 11.03125 C 17.07255 11.01831 17.08409 11.01294 17.09375 11 C 17.476824 10.486666 17.562175 9.958372 17.625 9.5 C 17.68941 9.0300738 17.6875 8.6258841 17.6875 8.40625 C 17.6875 8.0606798 17.810258 7.8925897 18.25 7.875 C 18.30641 7.87268 18.591405 7.910273 18.96875 8.03125 C 19.346095 8.1522268 19.854497 8.3524104 20.53125 8.15625 L 20.5625 8.15625 L 22.21875 7.625 L 22.875 7.40625 L 22.90625 6.71875 C 22.924921 6.4243606 23.131869 6.1769989 23.4375 6.0625 C 23.540834 6.0237496 23.648977 5.9984864 23.75 6 z" overflow="visible" font-family="Sans" fill="#000000"/></svg>
