<?xml version="1.0" encoding="utf-8"?>
<svg xmlns="http://www.w3.org/2000/svg" viewBox="0 0 32 32" fill="#000000"><path d="M 6 5 L 6 6 L 6 7 L 5 7 L 4.15625 7 L 4 7.84375 L 2.71875 15.84375 L 2.5 17 L 3.6875 17 L 4 17 C 4.603621 17 4.9693629 17.264198 5.15625 17.5625 C 5.3431371 17.860802 5.3492956 18.167101 5.15625 18.46875 L 5.15625 18.5 L 3.375 21.46875 L 3.375 21.5 C 2.6867054 22.609257 3.0723162 24.051368 4.1875 24.71875 L 4.15625 24.75 L 4.21875 24.78125 L 7.40625 26.8125 L 8.15625 27.28125 L 8.71875 26.5625 C 8.71875 26.5625 9.6642342 25.2558 10.53125 22.96875 C 13.174982 22.736406 14.845543 20.87662 15.5 20 L 26 20 L 26 21 L 27 21 L 28 21 L 29 21 L 29 20 L 29 13 L 30 13 L 30 10 L 29 10 L 29 8 L 29 7 L 28 7 L 10.625 7 L 9.90625 5.5625 L 9.625 5 L 9 5 L 7 5 L 6 5 z M 8 7 L 8.375 7 L 9.09375 8.4375 L 9.375 9 L 10 9 L 27 9 L 27 18 L 16 18 L 16 16 L 16 15 L 15 15 L 11 15 L 10.03125 15 L 10 15.96875 C 9.8332379 20.945958 8.1660649 23.659085 7.5625 24.5625 L 5.21875 23.0625 L 5.1875 23.0625 L 5.1875 23.03125 C 4.9959258 22.924664 4.943917 22.716431 5.0625 22.53125 L 5.0625 22.5 L 6.84375 19.53125 L 6.84375 19.5 C 7.4393028 18.545305 7.3938736 17.378086 6.84375 16.5 C 6.4278129 15.836098 5.6841279 15.432329 4.84375 15.21875 L 5.875 9 L 7 9 L 8 9 L 8 8 L 8 7 z M 17 10 L 17 11 L 17 16 L 17 17 L 18 17 L 25 17 L 26 17 L 26 16 L 26 11 L 26 10 L 25 10 L 18 10 L 17 10 z M 19 12 L 24 12 L 24 15 L 19 15 L 19 12 z M 11.875 17 L 14 17 L 14 18.6875 C 13.705075 19.098358 12.737279 20.280254 11.21875 20.78125 C 11.515685 19.651906 11.759936 18.398105 11.875 17 z" fill="#000000"/></svg>
