<?xml version="1.0" encoding="utf-8"?>
<svg xmlns="http://www.w3.org/2000/svg" viewBox="0 0 32 32" fill="#000000"><path style="text-indent:0;text-align:start;line-height:normal;text-transform:none;block-progression:tb;-inkscape-font-specification:Bitstream Vera Sans" d="M 26 4 C 23.790196 4 22 5.7901961 22 8 L 20 8 L 20 10 L 26 10 L 26 8 L 24 8 C 24 6.8098039 24.809804 6 26 6 C 27.190196 6 28 6.8098039 28 8 L 28 14 L 1 14 L 1 16 L 2.1875 16 L 3.71875 23.59375 L 3.71875 23.625 C 3.947703 24.655288 4.7155088 25.504759 5.71875 25.84375 L 5 28 L 7 28 L 7.65625 26 L 24.34375 26 L 25 28 L 27 28 L 26.28125 25.84375 C 27.327485 25.525317 28.139458 24.684937 28.375 23.625 L 28.375 23.59375 L 29.8125 16 L 31 16 L 31 14 L 30 14 L 30 8 C 30 5.7901961 28.209804 4 26 4 z M 4.21875 16 L 27.8125 16 L 26.40625 23.21875 C 26.289873 23.653018 25.921755 24 25.40625 24 L 6.6875 24 C 6.1541667 24 5.7888179 23.643431 5.6875 23.1875 L 4.21875 16 z" overflow="visible" font-family="Bitstream Vera Sans" fill="#000000"/></svg>
