<?xml version="1.0" encoding="utf-8"?>
<svg xmlns="http://www.w3.org/2000/svg" viewBox="0 0 32 32" fill="#000000"><path style="text-indent:0;text-align:start;line-height:normal;text-transform:none;block-progression:tb;-inkscape-font-specification:Sans" d="M 15 4 C 15 4 11.37475 4.81275 10.59375 5.59375 C 9.81275 6.37475 9.81275 7.62525 10.59375 8.40625 C 11.37475 9.18725 12.62525 9.18725 13.40625 8.40625 C 14.18725 7.62525 15 4 15 4 z M 27 4 C 27 4 23.37475 4.81275 22.59375 5.59375 C 21.81275 6.37475 21.81275 7.62525 22.59375 8.40625 C 23.37475 9.18725 24.62525 9.18725 25.40625 8.40625 C 26.18725 7.62525 27 4 27 4 z M 20 10 C 20 10 16.37475 10.81275 15.59375 11.59375 C 14.81275 12.37475 14.81275 13.62525 15.59375 14.40625 C 16.37475 15.18725 17.62525 15.18725 18.40625 14.40625 C 19.18725 13.62525 20 10 20 10 z M 9.53125 15.03125 C 8.0368558 15.11629 6.3677245 15.582681 4.53125 16.59375 L 3.84375 16.96875 L 4.03125 17.71875 C 4.03125 17.71875 4.8846857 21.287651 6.90625 23.53125 C 8.0039326 24.748646 9.4063035 25.078829 10.5 24.96875 C 11.593697 24.858671 12.307085 24.490718 12.8125 24.03125 L 11.46875 22.5625 C 11.512165 22.523032 10.884053 22.939329 10.28125 23 C 9.6784465 23.060671 9.0653174 22.953104 8.375 22.1875 C 7.2229345 20.908899 6.5502412 18.931905 6.25 18 C 9.0673496 16.671912 11.134291 16.873172 12.375 17.59375 C 13.590403 18.299631 14.084748 19.501625 13.96875 20.4375 C 13.668917 20.199731 13.362738 19.978198 13.0625 19.78125 C 11.178288 18.545259 9.3125 17.96875 9.3125 17.96875 L 8.71875 19.90625 C 8.71875 19.90625 10.361962 20.383491 11.96875 21.4375 C 13.575538 22.491509 15 23.983276 15 26 L 15 27.6875 L 15 28 L 17 28 L 17 27.6875 C 17 26.469096 18.246545 25.099962 19.71875 24.09375 C 21.190955 23.087538 22.6875 22.46875 22.6875 22.46875 L 21.9375 20.625 C 21.9375 20.625 21.082293 20.961257 20 21.5625 C 20.018203 20.932778 20.37418 20.371056 21.125 20.03125 C 21.945854 19.659747 23.477516 19.811967 25.46875 20.75 C 25.115795 21.35145 24.786901 22.012544 23.84375 23.15625 C 23.285855 23.832663 22.773112 24.015305 22.375 24.03125 C 21.976888 24.04719 21.721172 23.763455 21.8125 23.90625 L 20.125 25 C 20.633328 25.794795 21.468612 26.070055 22.4375 26.03125 C 23.406388 25.99245 24.533145 25.496087 25.40625 24.4375 C 26.875403 22.655941 27.875 20.78125 27.875 20.78125 L 28.34375 19.9375 L 27.5 19.4375 C 26.026021 18.550452 24.683718 18.05855 23.46875 17.875 C 22.253782 17.69145 21.167601 17.81761 20.28125 18.21875 C 18.508549 19.02104 17.650211 20.919166 18.125 22.65625 C 18.138118 22.704412 18.142881 22.703382 18.15625 22.75 C 17.640048 23.127482 17.120707 23.546761 16.65625 24.03125 C 16.406437 23.305466 16.04268 22.642583 15.59375 22.0625 C 15.627772 21.966073 15.665837 21.885781 15.6875 21.8125 C 15.75626 21.579912 15.821693 21.386669 15.84375 21.3125 C 16.43743 19.324817 15.443418 17.045044 13.375 15.84375 C 12.340791 15.243103 11.025644 14.946205 9.53125 15.03125 z" overflow="visible" font-family="Sans" fill="#000000"/></svg>
