<?xml version="1.0" encoding="utf-8"?>
<svg xmlns="http://www.w3.org/2000/svg" viewBox="0 0 32 32" fill="#000000"><path style="text-indent:0;text-align:start;line-height:normal;text-transform:none;block-progression:tb;-inkscape-font-specification:Bitstream Vera Sans" d="M 3.71875 2.28125 L 2.28125 3.71875 L 28.28125 29.71875 L 29.71875 28.28125 L 20.4375 19 L 21.1875 19 C 23.2955 19 25.167 17.6725 25.875 15.6875 L 27.28125 11.75 L 20.875 9.71875 L 18.8125 8.34375 C 18.4825 8.12375 18.0845 8 17.6875 8 L 15.3125 8 C 14.7355 6.683 13.38 5 11 5 L 10 5 L 10 8.5625 L 3.71875 2.28125 z M 12 7.1875 C 13.223 7.7265 13.606 9.18 13.625 9.25 L 13.8125 10 L 17.6875 10 L 19.875 11.46875 L 24.71875 13.03125 L 24 15 C 23.574 16.19 22.4515 17 21.1875 17 L 18.4375 17 L 11.875 10.4375 L 12 10.125 L 12 7.1875 z M 18 12 C 17.447715 12 17 12.447715 17 13 C 17 13.552285 17.447715 14 18 14 C 18.552285 14 19 13.552285 19 13 C 19 12.447715 18.552285 12 18 12 z M 8.625 12.8125 L 5.78125 19.28125 L 15.5625 27.84375 L 17.1875 21.375 L 15.5625 19.71875 L 14.4375 24.15625 L 8.21875 18.71875 L 10.15625 14.3125 L 8.625 12.8125 z" overflow="visible" font-family="Bitstream Vera Sans" fill="#000000"/></svg>
