<?xml version="1.0" encoding="utf-8"?>
<svg xmlns="http://www.w3.org/2000/svg" viewBox="0 0 32 32" fill="#000000"><path style="text-indent:0;text-align:start;line-height:normal;text-transform:none;block-progression:tb;-inkscape-font-specification:Bitstream Vera Sans" d="M 3.71875 2.28125 L 2.28125 3.71875 L 28.28125 29.71875 L 29.71875 28.28125 L 25.8125 24.375 C 26.329428 24.039904 26.61632 23.784534 26.65625 23.75 L 27 23.46875 L 27 16.59375 L 25.75 15.34375 C 24.617 14.21075 24 12.69575 24 11.09375 L 24 9 C 24 6.374 19.976 5 16 5 C 13.028354 5 10.012729 5.7659002 8.6875 7.25 L 3.71875 2.28125 z M 16 7 C 19.722 7 22 8.295 22 9 C 22 9.705 19.722 11 16 11 C 14.223208 11 12.777924 10.697663 11.75 10.3125 L 10.125 8.6875 C 10.64977 7.9700734 12.787459 7 16 7 z M 14 8 C 13.447715 8 13 8.4477153 13 9 C 13 9.5522847 13.447715 10 14 10 C 14.552285 10 15 9.5522847 15 9 C 15 8.4477153 14.552285 8 14 8 z M 18 8 C 17.447715 8 17 8.4477153 17 9 C 17 9.5522847 17.447715 10 18 10 C 18.552285 10 19 9.5522847 19 9 C 19 8.4477153 18.552285 8 18 8 z M 22.03125 11.71875 C 22.17625 13.62275 22.97975 15.386 24.34375 16.75 L 25 17.40625 L 25 22.5 C 24.851579 22.60325 24.589791 22.762005 24.34375 22.90625 L 18.9375 17.5 L 19 17.5 C 19 16.121 17.878 15 16.5 15 L 16.4375 15 L 14.34375 12.90625 C 14.888496 12.959684 15.445599 13 16 13 C 18.236 13 20.48925 12.56575 22.03125 11.71875 z M 7.90625 12.125 C 7.70025 13.343 7.142 14.45275 6.25 15.34375 L 5 16.59375 L 5 23.46875 L 5.34375 23.75 C 5.49575 23.882 9.132 27 16 27 C 18.37 27 20.3475 26.616 21.9375 26.125 L 20.28125 24.5 C 19.05725 24.794 17.65 25 16 25 C 11.049 25 7.979 23.183 7 22.5 L 7 17.40625 L 7.65625 16.75 C 8.51925 15.887 9.1735 14.87 9.5625 13.75 L 7.90625 12.125 z M 13.03125 17.21875 C 13.02125 17.30875 13 17.407 13 17.5 C 13 18.879 14.122 20 15.5 20 L 15.8125 20 L 13.03125 17.21875 z M 13 20.5 C 13 21.879 14.122 23 15.5 23 L 16.5 23 C 17.138 23 17.71425 22.73875 18.15625 22.34375 L 16.71875 20.9375 C 16.64775 20.9755 16.586 21 16.5 21 L 15.5 21 C 15.224 21 15 20.775 15 20.5 L 13 20.5 z" overflow="visible" font-family="Bitstream Vera Sans" fill="#000000"/></svg>
