<?xml version="1.0" encoding="utf-8"?>
<svg xmlns="http://www.w3.org/2000/svg" viewBox="0 0 32 32" fill="#000000"><path style="text-indent:0;text-align:start;line-height:normal;text-transform:none;block-progression:tb;-inkscape-font-specification:Sans" d="M 17 4 L 17 6.53125 L 17.28125 7.125 C 17.94025 7.252 18.513 7.48125 19 7.78125 L 19 6 L 26 6 L 26 10 L 20.9375 10 C 21.2515 10.636 21.50225 11.318 21.65625 12 L 28 12 L 28 4 L 17 4 z M 15 6 C 11.334201 6 8.7420538 6.8814609 7.125 8.6875 C 5.5079462 10.493539 5 13.015614 5 16 L 5 16.90625 C 4.4276098 17.450747 4 18.148819 4 19 C 4 20.274877 4.9013537 21.196194 6.03125 21.625 C 6.4840462 22.929863 7.2531656 24.374682 8.34375 25.59375 C 9.5282799 26.917832 11.102826 28 13 28 C 14.897174 28 16.47172 26.917832 17.65625 25.59375 C 18.746834 24.374682 19.515954 22.929863 19.96875 21.625 C 21.098646 21.196194 22 20.274877 22 19 C 22 18.153656 21.571 17.452514 21 16.90625 L 21 16 C 21 13.238335 20.667811 11.326769 19.8125 9.96875 C 19.095743 8.8307191 17.914609 8.3239455 16.6875 8.15625 L 15.90625 6.5625 L 15.625 6 L 15 6 z M 21 7 C 20.447715 7 20 7.4477153 20 8 C 20 8.5522847 20.447715 9 21 9 C 21.552285 9 22 8.5522847 22 8 C 22 7.4477153 21.552285 7 21 7 z M 24 7 C 23.447715 7 23 7.4477153 23 8 C 23 8.5522847 23.447715 9 24 9 C 24.552285 9 25 8.5522847 25 8 C 25 7.4477153 24.552285 7 24 7 z M 14.40625 8.0625 L 15.09375 9.4375 C 15.432524 10.114135 15.572299 10.608208 15.59375 10.84375 C 15.6152 11.079292 15.59245 11.001308 15.59375 11 C 15.59625 10.9974 14.975689 11.228688 14.0625 11.28125 C 13.149311 11.33381 12.031928 11.32158 10.96875 11.78125 C 9.905572 12.240919 9.0128056 13.409362 9 15 L 11 15 C 11.0082 13.982138 11.252053 13.8538 11.78125 13.625 C 12.310447 13.3962 13.235189 13.304813 14.1875 13.25 C 15.139811 13.19519 16.188334 13.27408 17.03125 12.40625 C 17.452708 11.972333 17.651815 11.293829 17.59375 10.65625 C 17.586968 10.581773 17.573896 10.512586 17.5625 10.4375 C 17.747814 10.588582 17.929871 10.771051 18.09375 11.03125 C 18.601689 11.837731 19 13.419665 19 16 L 19 17.28125 L 19 17.84375 L 19.5 18.125 C 19.803899 18.300541 20 18.619774 20 19 C 20 19.533588 19.61646 19.957247 19.09375 20 L 18.40625 20.03125 L 18.21875 20.6875 C 17.886 21.768062 17.14197 23.183082 16.1875 24.25 C 15.23303 25.316918 14.110826 26 13 26 C 11.889174 26 10.76697 25.316918 9.8125 24.25 C 8.8580299 23.183082 8.114 21.768062 7.78125 20.6875 L 7.59375 20.03125 L 6.90625 20 C 6.3835397 19.957247 6 19.533588 6 19 C 6 18.626072 6.1931792 18.302229 6.5 18.125 L 7 17.84375 L 7 17.28125 L 7 16 C 7 13.245386 7.4975538 11.259211 8.625 10 C 9.6697024 8.8332031 11.490427 8.1640251 14.40625 8.0625 z M 10 18 C 9.4477153 18 9 18.447715 9 19 C 9 19.552285 9.4477153 20 10 20 C 10.552285 20 11 19.552285 11 19 C 11 18.447715 10.552285 18 10 18 z M 16 18 C 15.447715 18 15 18.447715 15 19 C 15 19.552285 15.447715 20 16 20 C 16.552285 20 17 19.552285 17 19 C 17 18.447715 16.552285 18 16 18 z" overflow="visible" font-family="Sans" fill="#000000"/></svg>
