<?xml version="1.0" encoding="utf-8"?>
<svg xmlns="http://www.w3.org/2000/svg" viewBox="0 0 32 32" fill="#000000"><path style="text-indent:0;text-align:start;line-height:normal;text-transform:none;block-progression:tb;-inkscape-font-specification:Sans" d="M 21.1875 4.03125 C 20.906106 4.037466 20.63893 4.0896109 20.375 4.21875 L 11.1875 8.6875 C 10.301842 9.120845 9.8225943 10.149534 10 11.09375 L 8.5625 11.78125 C 7.604016 12.250564 7.1572149 13.54095 7.625 14.5 L 7.90625 15.0625 L 5.78125 16.84375 L 5.15625 17.34375 L 5.5 18.0625 L 6.71875 20.53125 L 7.09375 21.25 L 7.84375 21.0625 L 10.5625 20.46875 L 10.84375 21.0625 C 11.313064 22.020984 12.5722 22.467785 13.53125 22 L 15 21.28125 C 15.641812 21.970932 16.722122 22.20773 17.59375 21.78125 L 26.78125 17.3125 C 27.837176 16.795844 28.298196 15.431519 27.78125 14.375 L 23.28125 5.21875 C 23.023047 4.6901737 22.564741 4.3392562 22.03125 4.15625 C 21.764505 4.0647469 21.468894 4.025034 21.1875 4.03125 z M 21.40625 6 C 21.439266 6.0132621 21.461203 6.0455765 21.5 6.125 L 25.96875 15.28125 C 26.0458 15.438731 26.03307 15.422656 25.875 15.5 L 16.71875 19.96875 C 16.561269 20.0458 16.546094 20.06432 16.46875 19.90625 L 12 10.75 C 11.92295 10.592519 11.90443 10.577344 12.0625 10.5 L 21.25 6.03125 C 21.329138 5.992528 21.373234 5.9867379 21.40625 6 z M 10.8125 12.9375 L 14.03125 19.5 L 12.65625 20.1875 L 12 18.90625 L 11.65625 18.1875 L 10.90625 18.34375 L 8.1875 18.9375 L 7.65625 17.875 L 9.78125 16.09375 L 10.40625 15.59375 L 10.0625 14.90625 L 9.40625 13.625 L 9.40625 13.59375 L 9.4375 13.59375 L 10.8125 12.9375 z M 7 22 C 7 22 5 24.9 5 26 C 5 27.1 5.9 28 7 28 C 8.1 28 9 27.1 9 26 C 9 24.9 7 22 7 22 z" overflow="visible" font-family="Sans" fill="#000000"/></svg>
