<?xml version="1.0" encoding="utf-8"?>
<svg xmlns="http://www.w3.org/2000/svg" viewBox="0 0 32 32" fill="#000000"><path style="text-indent:0;text-align:start;line-height:normal;text-transform:none;block-progression:tb;-inkscape-font-specification:Sans" d="M 19.9375 4 C 17.72426 4 16 5.8085792 16 8 L 18 8 C 18 6.7694208 18.72874 6 19.9375 6 C 21.12483 6 22 6.8742539 22 8.0625 C 22 9.2511355 21.169749 10 19.9375 10 L 4 10 L 4 12 L 19.9375 12 C 22.129251 12 24 10.297864 24 8.0625 C 24 5.8267461 22.17217 4 19.9375 4 z M 4 15 L 4 17 L 23 17 L 23.5 17 C 24.892562 17 26 18.107438 26 19.5 C 26 20.892562 24.892562 22 23.5 22 C 22.757849 22 22.178449 21.760735 21.75 21.3125 C 21.321551 20.864265 21 20.155972 21 19 L 19 19 C 19 20.543028 19.474199 21.810485 20.3125 22.6875 C 21.150801 23.564515 22.309151 24 23.5 24 C 25.973438 24 28 21.973438 28 19.5 C 28 17.026562 25.973438 15 23.5 15 L 23 15 L 4 15 z M 4 20 L 4 22 L 11.9375 22 C 13.147553 22 14 22.81267 14 24 C 14 25.20876 13.20876 26 12 26 C 10.79124 26 10 25.20876 10 24 L 8 24 C 8 26.21324 9.7867596 28 12 28 C 14.21324 28 16 26.21324 16 24 C 16 21.76533 14.151447 20 11.9375 20 L 4 20 z" overflow="visible" font-family="Sans" fill="#000000"/></svg>
