<?xml version="1.0" encoding="utf-8"?>
<svg xmlns="http://www.w3.org/2000/svg" viewBox="0 0 32 32" fill="#000000"><path style="text-indent:0;text-align:start;line-height:normal;text-transform:none;block-progression:tb;-inkscape-font-specification:Sans" d="M 15 4 L 15 16.1875 L 12.71875 13.90625 L 11.28125 15.34375 L 15.28125 19.34375 L 16 20.03125 L 16.71875 19.34375 L 20.71875 15.34375 L 19.28125 13.90625 L 17 16.1875 L 17 4 L 15 4 z M 13 4.40625 C 7.833 5.74325 4 10.421 4 16 C 4 22.617 9.383 28 16 28 C 22.617 28 28 22.617 28 16 C 28 10.421 24.167 5.74325 19 4.40625 L 19 6.46875 C 23.053 7.74575 26 11.531 26 16 C 26 21.514 21.514 26 16 26 C 10.486 26 6 21.514 6 16 C 6 11.531 8.947 7.74575 13 6.46875 L 13 4.40625 z" overflow="visible" font-family="Sans" fill="#000000"/></svg>
