<?xml version="1.0" encoding="utf-8"?>
<svg xmlns="http://www.w3.org/2000/svg" viewBox="0 0 32 32" fill="#000000"><path style="text-indent:0;text-align:start;line-height:normal;text-transform:none;block-progression:tb;-inkscape-font-specification:Sans" d="M 16 4 C 9.3844277 4 4 9.3844277 4 16 C 4 22.615572 9.3844277 28 16 28 C 22.615572 28 28 22.615572 28 16 C 28 9.3844277 22.615572 4 16 4 z M 16 6 C 21.534692 6 26 10.465308 26 16 C 26 21.534692 21.534692 26 16 26 C 10.465308 26 6 21.534692 6 16 C 6 10.465308 10.465308 6 16 6 z M 14 9 C 12.354545 9 11 10.354545 11 12 L 11 15 L 11 17 C 11 17.707108 11.259827 18.260672 11.5625 18.9375 C 11.865173 19.614328 12.240556 20.353155 12.625 21.03125 C 13.393888 22.387441 14.15625 23.5625 14.15625 23.5625 L 14.4375 24 L 14.96875 24 C 14.96875 24 15.456242 24.03661 16.03125 23.8125 C 16.318754 23.700446 16.709733 23.511829 16.9375 23.0625 C 17.150735 22.641838 17.068537 22.110986 16.90625 21.6875 L 16.9375 21.6875 L 16.90625 21.59375 L 16.375 20 L 20 20 C 21.645455 20 23 18.645455 23 17 L 23 16.9375 L 23 16.84375 C 23 16.84375 22.8547 15.880774 22.65625 14.75 C 22.4578 13.619226 22.253206 12.415348 21.9375 11.625 C 21.708811 11.0538 21.444914 10.462651 21 9.9375 C 20.555086 9.4123492 19.824545 9 19 9 L 14 9 z M 14 11 L 19 11 C 19.275455 11 19.329414 11.04865 19.5 11.25 C 19.623939 11.39629 19.76399 11.67283 19.90625 12 L 19 12 L 19 14 L 20.46875 14 C 20.540086 14.333327 20.596424 14.666917 20.65625 15 L 19 15 L 19 17 L 20.96875 17 C 20.969033 17.002054 20.968501 17.029539 20.96875 17.03125 C 20.94622 17.565452 20.54 18 20 18 L 15 18 L 13.625 18 L 14.0625 19.3125 L 14.1875 19.65625 C 13.897027 19.128738 13.58423 18.592874 13.375 18.125 C 13.115173 17.543984 13 17.001392 13 17 L 13 15 L 13 12 C 13 11.445455 13.445455 11 14 11 z" overflow="visible" font-family="Sans" fill="#000000"/></svg>
