<?xml version="1.0" encoding="utf-8"?>
<svg xmlns="http://www.w3.org/2000/svg" viewBox="0 0 32 32" fill="#000000"><path style="text-indent:0;text-align:start;line-height:normal;text-transform:none;block-progression:tb;-inkscape-font-specification:Bitstream Vera Sans" d="M 18 6 L 21.75 9 L 17 9 L 16 9 L 16 10 L 16 12 L 10 12 C 7.2504839 12 5 14.250484 5 17 C 5 19.749516 7.2504839 22 10 22 L 13 22 C 14.668484 22 16 23.331516 16 25 L 16 27 L 18 27 L 18 25 C 18 22.250484 15.749516 20 13 20 L 10 20 C 8.3315161 20 7 18.668484 7 17 C 7 15.331516 8.3315161 14 10 14 L 16 14 L 16 16 L 16 17 L 17 17 L 26 17 L 27 17 L 27 16 L 27 10 L 27 9 L 26 9 L 24.75 9 L 21 6 L 18 6 z M 18 11 L 25 11 L 25 15 L 18 15 L 18 11 z" overflow="visible" font-family="Bitstream Vera Sans" fill="#000000"/></svg>
