<?xml version="1.0" encoding="utf-8"?>
<svg xmlns="http://www.w3.org/2000/svg" viewBox="0 0 32 32" fill="#000000"><path style="text-indent:0;text-align:start;line-height:normal;text-transform:none;block-progression:tb;-inkscape-font-specification:Bitstream Vera Sans" d="M 20.5 4 C 18.578848 4 17 5.5788481 17 7.5 C 17 9.4211519 18.578848 11 20.5 11 C 22.421152 11 24 9.4211519 24 7.5 C 24 5.5788481 22.421152 4 20.5 4 z M 20.5 6 C 21.340272 6 22 6.6597281 22 7.5 C 22 8.3402719 21.340272 9 20.5 9 C 19.659728 9 19 8.3402719 19 7.5 C 19 6.6597281 19.659728 6 20.5 6 z M 19.84375 12 C 18.330989 12 16.957806 12.865638 16.28125 14.21875 L 15.375 16 L 12 16 L 12 18 L 16 18 L 16.625 18 L 16.90625 17.4375 L 18.03125 15.15625 L 18.0625 15.09375 C 18.401944 14.414862 19.084511 14 19.84375 14 L 21 14 C 22.116666 14 23 14.883334 23 16 L 23 20.03125 L 21.5625 20.75 L 21 21 L 21 21.625 L 21 28 L 23 28 L 23 22.25 L 24.4375 21.53125 L 25 21.25 L 25 20.625 L 25 16 C 25 13.802666 23.197334 12 21 12 L 19.84375 12 z M 10.5 18 L 9 19.5 L 10.5 21 L 12 19.5 L 10.5 18 z M 6.21875 20 L 7.09375 28 L 13.90625 28 L 14.78125 20 L 12.78125 20 L 12.09375 26 L 8.90625 26 L 8.21875 20 L 6.21875 20 z M 18 21 L 18 28 L 20 28 L 20 21 L 18 21 z M 10.5 22 L 9 23.5 L 10.5 25 L 12 23.5 L 10.5 22 z" overflow="visible" font-family="Bitstream Vera Sans" fill="#000000"/></svg>
