<?xml version="1.0" encoding="utf-8"?>
<svg xmlns="http://www.w3.org/2000/svg" viewBox="0 0 32 32" fill="#000000"><path style="text-indent:0;text-align:start;line-height:normal;text-transform:none;block-progression:tb;-inkscape-font-specification:Bitstream Vera Sans" d="M 16 4 C 9.3844277 4 4 9.3844277 4 16 C 4 22.615572 9.3844277 28 16 28 C 22.615572 28 28 22.615572 28 16 C 28 9.3844277 22.615572 4 16 4 z M 16 6 C 21.534692 6 26 10.465308 26 16 C 26 21.534692 21.534692 26 16 26 C 10.465308 26 6 21.534692 6 16 C 6 10.465308 10.465308 6 16 6 z M 12 11 C 10.35503 11 9 12.35503 9 14 L 9 18 C 9 19.64497 10.35503 21 12 21 C 13.64497 21 15 19.64497 15 18 L 15 14 C 15 12.35503 13.64497 11 12 11 z M 19.84375 11 C 18.279385 11 17 12.279385 17 13.84375 C 17 14.922768 17.597618 15.923809 18.5625 16.40625 L 20.53125 17.375 C 20.823491 17.521586 21 17.831268 21 18.15625 C 21 18.639885 20.639885 19 20.15625 19 L 19.84375 19 C 19.360115 19 19 18.639885 19 18.15625 L 19 18 L 17 18 L 17 18.15625 C 17 19.720615 18.279385 21 19.84375 21 L 20.15625 21 C 21.720615 21 23 19.720615 23 18.15625 C 23 17.077232 22.401259 16.077164 21.4375 15.59375 L 19.46875 14.625 C 19.177632 14.479441 19 14.168732 19 13.84375 C 19 13.360115 19.360115 13 19.84375 13 L 20.15625 13 C 20.639885 13 21 13.360115 21 13.84375 L 21 14 L 23 14 L 23 13.84375 C 23 12.279385 21.720615 11 20.15625 11 L 19.84375 11 z M 12 13 C 12.56503 13 13 13.43497 13 14 L 13 18 C 13 18.56503 12.56503 19 12 19 C 11.43497 19 11 18.56503 11 18 L 11 14 C 11 13.43497 11.43497 13 12 13 z" overflow="visible" font-family="Bitstream Vera Sans" fill="#000000"/></svg>
