<?xml version="1.0" encoding="utf-8"?>
<svg xmlns="http://www.w3.org/2000/svg" viewBox="0 0 32 32" fill="#000000"><path style="text-indent:0;text-align:start;line-height:normal;text-transform:none;block-progression:tb;-inkscape-font-specification:Bitstream Vera Sans" d="M 7 6 C 5.3550302 6 4 7.3550302 4 9 L 4 24 L 4 25 L 5 25 L 10.15625 25 C 10.603316 26.719842 12.146802 28 14 28 C 15.853198 28 17.396684 26.719842 17.84375 25 L 28 25 L 28 23 L 24 23 L 24 14 C 24 9.593562 20.406438 6 16 6 L 7 6 z M 7 8 L 16 8 C 19.325562 8 22 10.674438 22 14 L 22 23 L 17.84375 23 C 17.396684 21.280158 15.853198 20 14 20 C 12.146802 20 10.603316 21.280158 10.15625 23 L 6 23 L 6 9 C 6 8.4349698 6.4349698 8 7 8 z M 8 10 L 8 11 L 8 15 L 8 16 L 9 16 L 19 16 L 20 16 L 20 15 L 20 14 C 20 11.802666 18.197334 10 16 10 L 9 10 L 8 10 z M 10 12 L 16 12 C 17.116666 12 18 12.883334 18 14 L 10 14 L 10 12 z M 14 22 C 15.116414 22 16 22.883586 16 24 C 16 25.116414 15.116414 26 14 26 C 12.883586 26 12 25.116414 12 24 C 12 22.883586 12.883586 22 14 22 z" overflow="visible" font-family="Bitstream Vera Sans" fill="#000000"/></svg>
