<?xml version="1.0" encoding="utf-8"?>
<svg xmlns="http://www.w3.org/2000/svg" viewBox="0 0 32 32" fill="#000000"><path d="M 16 3 C 14.136 3 12.60125 4.275 12.15625 6 L 4 6 L 3 6 L 3 7 L 3 25 L 3 26 L 4 26 L 16 26 L 15 25 L 16 24 L 5 24 L 5 19 L 18 19 L 18 18 L 22 18 L 23 17 L 5 17 L 5 8 L 27 8 L 27 17 L 28 18 L 29 18 L 29 7 L 29 6 L 28 6 L 19.84375 6 C 19.39875 4.275 17.864 3 16 3 z M 16 5 C 16.81 5 17.428 5.385 17.75 6 L 14.25 6 C 14.572 5.385 15.19 5 16 5 z M 16 14 A 1 1 0 0 0 15 15 A 1 1 0 0 0 16 16 A 1 1 0 0 0 17 15 A 1 1 0 0 0 16 14 z M 25 17.929688 L 22.929688 20 L 20 20 L 20 22.929688 L 17.929688 25 L 20 27.070312 L 20 30 L 22.929688 30 L 25 32.070312 L 27.070312 30 L 30 30 L 30 27.070312 L 32.070312 25 L 30 22.929688 L 30 20 L 27.070312 20 L 25 17.929688 z M 25 20.757812 L 26.242188 22 L 28 22 L 28 23.757812 L 29.242188 25 L 28 26.242188 L 28 26.65625 L 28 28 L 26.242188 28 L 25 29.242188 L 23.757812 28 L 22 28 L 22 26.242188 L 20.757812 25 L 22 23.757812 L 22 22 L 23.757812 22 L 25 20.757812 z" fill="#000000"/></svg>
