<?xml version="1.0" encoding="utf-8"?>
<svg xmlns="http://www.w3.org/2000/svg" viewBox="0 0 32 32" fill="#000000"><path d="M 3.71875 2.28125 L 2.28125 3.71875 L 28.28125 29.71875 L 29.71875 28.28125 L 26 24.5625 L 26 12 L 24 12 C 24 7.589 20.411 4 16 4 C 13.143268 4 10.633408 5.5218069 9.21875 7.78125 L 3.71875 2.28125 z M 16 6 C 19.309 6 22 8.691 22 12 L 13.4375 12 L 10.6875 9.25 C 11.687742 7.3260007 13.685418 6 16 6 z M 6 12 L 6 25 C 6 26.654 7.346 28 9 28 L 23 28 C 23.245 28 23.49075 27.96125 23.71875 27.90625 L 21.8125 26 L 9 26 C 8.448 26 8 25.551 8 25 L 8 14 L 9.8125 14 L 7.8125 12 L 6 12 z M 16 14 L 17 14 C 17.999 14 18 15 18 15 C 18 15.334077 17.865759 15.799334 17.71875 16.28125 L 15.5625 14.125 C 15.697109 14.051352 15.854416 14 16 14 z M 21 14 L 24 14 L 24 22.5625 L 20.9375 19.5 C 20.977614 19.343019 21 19.169803 21 19 C 21 17.996 20 16.002 20 15 C 20 15 20.018 14 21 14 z" fill="#000000"/></svg>
