<?xml version="1.0" encoding="utf-8"?>
<svg xmlns="http://www.w3.org/2000/svg" viewBox="0 0 32 32" fill="#000000"><path style="text-indent:0;text-align:start;line-height:normal;text-transform:none;block-progression:tb;-inkscape-font-specification:Bitstream Vera Sans" d="M 28 4 C 24.949269 4 22.827233 4.530513 21.25 5.53125 C 19.672767 6.531987 18.736107 7.9507065 17.875 9.4375 C 16.152787 12.411087 14.712249 15.847169 9.25 19.125 C 6.6291565 20.696443 4.8630926 22.746543 4.03125 25.40625 L 3.875 26 L 4.28125 26.40625 C 4.762704 26.886644 5.4096169 27.172827 6.34375 27.46875 C 7.2778831 27.764673 8.4649919 28 9.875 28 C 15.03898 28 19.530814 25.326713 22.59375 21.78125 C 25.656686 18.235787 27.371199 13.80062 26.84375 9.9375 C 26.65145 8.5297809 26.569299 7.5273032 26.65625 6.96875 C 26.735375 6.4604666 26.88583 6.326021 27.34375 6.0625 C 27.590486 6.0540418 27.733461 6 28 6 L 28 4 z M 24.84375 6.3125 C 24.80935 6.4354736 24.707164 6.5299296 24.6875 6.65625 C 24.528451 7.6779468 24.6803 8.7934691 24.875 10.21875 C 25.291551 13.26963 23.818814 17.278213 21.0625 20.46875 C 18.306186 23.659287 14.34602 26 9.875 26 C 8.6780081 26 7.6756169 25.796327 6.9375 25.5625 C 6.5762428 25.448058 6.5607088 25.396179 6.34375 25.28125 C 7.0896625 23.480532 8.2594363 22.024768 10.28125 20.8125 C 16.154001 17.288331 17.965463 13.248913 19.59375 10.4375 C 20.407893 9.0317935 21.14067 7.962263 22.3125 7.21875 C 22.951205 6.8134989 23.800532 6.5270891 24.84375 6.3125 z M 22.84375 7.84375 C 22.62751 7.8762461 22.3825 7.97925 22.09375 8.25 C 21.32375 8.972 21.62875 9.40775 22.09375 9.84375 C 22.55875 10.27975 23.285 10.27975 23.75 9.84375 C 24.215 9.40775 24.215 8.686 23.75 8.25 C 23.459375 7.9775 23.20415 7.7895898 22.84375 7.84375 z M 21.96875 11.34375 C 21.651746 11.396549 21.2995 11.564875 20.96875 11.875 C 20.08575 12.702 20.30075 13.53025 20.96875 14.15625 C 21.63675 14.78225 22.73825 14.78225 23.40625 14.15625 C 24.07425 13.53025 24.07425 12.501 23.40625 11.875 C 22.98875 11.48375 22.49709 11.255752 21.96875 11.34375 z M 19.65625 15.5625 C 18.13425 15.5625 17.90625 16.2805 17.90625 17.1875 C 17.90625 18.0945 18.59625 18.84375 19.65625 18.84375 C 20.71725 18.84375 21.40625 18.0945 21.40625 17.1875 C 21.40625 16.2805 21.17925 15.5625 19.65625 15.5625 z M 16.40625 18.9375 C 15.981625 18.93675 15.54225 19.10275 15.21875 19.40625 C 14.57175 20.01225 14.57175 20.98775 15.21875 21.59375 C 15.86575 22.20075 16.4735 22.61475 17.5625 21.59375 C 18.6515 20.57275 18.2025 20.00625 17.5625 19.40625 C 17.2425 19.10575 16.830875 18.93825 16.40625 18.9375 z M 12.84375 21.53125 C 12.57552 21.571568 12.264375 21.7265 11.90625 22.0625 C 10.95125 22.9585 11.32925 23.49025 11.90625 24.03125 C 12.48325 24.57225 13.423 24.57225 14 24.03125 C 14.577 23.49025 14.577 22.6035 14 22.0625 C 13.639375 21.724375 13.290801 21.464053 12.84375 21.53125 z M 8.78125 23.4375 C 8.5650098 23.469996 8.32 23.60425 8.03125 23.875 C 7.26125 24.597 7.56625 25.03275 8.03125 25.46875 C 8.49625 25.90475 9.25375 25.90475 9.71875 25.46875 C 10.18375 25.03275 10.18375 24.312 9.71875 23.875 C 9.428125 23.6025 9.1416504 23.38334 8.78125 23.4375 z" overflow="visible" font-family="Bitstream Vera Sans" fill="#000000"/></svg>
