<?xml version="1.0" encoding="utf-8"?>
<svg xmlns="http://www.w3.org/2000/svg" viewBox="0 0 32 32" fill="#000000"><path style="text-indent:0;text-align:start;line-height:normal;text-transform:none;block-progression:tb;-inkscape-font-specification:Bitstream Vera Sans" d="M 18 4 C 14.334201 4 11.55387 4.8617415 9.6875 6.625 C 7.8211295 8.3882585 7 10.957531 7 14 L 7 14.90625 C 6.4276098 15.450747 6 16.148819 6 17 C 6 18.234315 6.8635227 19.106872 7.9375 19.5625 C 8.2106074 20.634926 8.3839819 22.556836 9.3125 24.375 C 10.30492 26.318293 12.40286 28 16 28 C 19.59714 28 21.69508 26.318293 22.6875 24.375 C 23.616018 22.556836 23.789393 20.634926 24.0625 19.5625 C 25.136477 19.106872 26 18.234315 26 17 C 26 16.153656 25.571 15.452514 25 14.90625 L 25 14 C 25 11.175936 24.356549 9.1655084 23.21875 7.84375 C 22.25437 6.7234492 20.964503 6.265469 19.6875 6.125 L 18.90625 4.5625 L 18.625 4 L 18 4 z M 17.40625 6.0625 L 18.09375 7.4375 C 18.42911 8.1073161 18.557792 8.5765293 18.5625 8.75 C 18.5672 8.9234707 18.58379 8.765782 18.5625 8.78125 C 18.519924 8.8121858 17.654065 8.9917505 16.59375 9 C 15.533435 9.0082495 14.294964 8.9702955 13.125 9.46875 C 11.955036 9.9672045 11 11.234559 11 13 L 13 13 C 13 11.793441 13.300277 11.570671 13.90625 11.3125 C 14.512223 11.054329 15.564565 11.00825 16.625 11 C 17.685435 10.9917 18.758138 11.126939 19.75 10.40625 C 20.245931 10.045905 20.580487 9.3502324 20.5625 8.6875 C 20.558833 8.5524045 20.521123 8.4168322 20.5 8.28125 C 20.93419 8.4655836 21.335005 8.746764 21.6875 9.15625 C 22.412951 9.9989916 23 11.482064 23 14 L 23 15.28125 L 23 15.84375 L 23.5 16.125 C 23.803899 16.300541 24 16.619774 24 17 C 24 17.533588 23.61646 17.957247 23.09375 18 L 22.40625 18.03125 L 22.21875 18.6875 C 21.76819 20.150634 21.64558 22.021043 20.90625 23.46875 C 20.16692 24.916457 19.03986 26 16 26 C 12.96014 26 11.83308 24.916457 11.09375 23.46875 C 10.35442 22.021043 10.23181 20.150634 9.78125 18.6875 L 9.59375 18.03125 L 8.90625 18 C 8.3835397 17.957247 8 17.533588 8 17 C 8 16.626072 8.1931792 16.302229 8.5 16.125 L 9 15.84375 L 9 15.28125 L 9 14 C 9 11.303469 9.6843705 9.3644915 11.0625 8.0625 C 12.344007 6.8517932 14.433112 6.1621515 17.40625 6.0625 z M 10 15 L 10 16 L 10 18 C 10 19.64497 11.35503 21 13 21 L 14 21 C 14.766846 21 15.467077 20.699798 16 20.21875 C 16.532923 20.699798 17.233154 21 18 21 L 19 21 C 20.64497 21 22 19.64497 22 18 L 22 16 L 22 15 L 21 15 L 17 15 L 16 15 L 15 15 L 11 15 L 10 15 z M 12 17 L 15 17 L 15 18 C 15 18.56503 14.56503 19 14 19 L 13 19 C 12.43497 19 12 18.56503 12 18 L 12 17 z M 17 17 L 20 17 L 20 18 C 20 18.56503 19.56503 19 19 19 L 18 19 C 17.43497 19 17 18.56503 17 18 L 17 17 z" overflow="visible" font-family="Bitstream Vera Sans" fill="#000000"/></svg>
