<?xml version="1.0" encoding="utf-8"?>
<svg xmlns="http://www.w3.org/2000/svg" viewBox="0 0 32 32" fill="#000000"><path d="M 3.71875 2.28125 L 2.28125 3.71875 L 17.6875 19.09375 C 16.634823 20.448497 16 22.158111 16 24 C 16 24.695043 16.113347 25.356318 16.28125 26 C 16.185671 26.003894 16.096284 26 16 26 C 11.915 26 8.5085 22.931 8.0625 18.875 L 7.9375 17.96875 L 6.9375 18 C 6.4085 17.974 6 17.535 6 17 C 6 16.465 6.4085 16.026 6.9375 16 L 7.9375 16.03125 L 8.0625 15.125 C 8.1475 14.349 8.325 13.582 8.625 12.875 L 7.125 11.375 C 6.678 12.232 6.3715 13.167 6.1875 14.125 C 4.9305 14.483 4 15.629 4 17 C 4 18.353 4.9105 19.505 6.1875 19.875 C 7.0705 24.561 11.154 28 16 28 C 16.348478 28 16.68994 27.974545 17.03125 27.9375 C 18.407707 30.364201 21.02024 32 24 32 C 28.406433 32 32 28.406433 32 24 C 32 21.050941 30.385631 18.481052 28 17.09375 C 28.000841 17.06265 28 17.031143 28 17 C 28 15.64582 26.992393 14.679484 25.75 14.3125 C 25.058578 10.369459 22.121062 7.1985173 18.28125 6.28125 C 18.404849 6.1252239 18.552892 6 19 6 L 19 4 C 17.917893 4 17.05172 4.547526 16.59375 5.1875 C 16.564566 5.2282827 16.557866 5.2717184 16.53125 5.3125 C 15.797593 4.0150496 14.223066 3 12 3 L 12 5 C 13.512064 5 14.303188 5.5219635 14.6875 6.09375 C 12.811236 6.3413673 11.085156 7.1083346 9.6875 8.25 L 3.71875 2.28125 z M 16 8 C 20.1299 8 23.497313 11.121519 23.9375 15.125 L 24.0625 16 C 24.041384 15.999835 24.021153 16 24 16 C 22.85009 16 21.771028 16.247467 20.78125 16.6875 C 20.515271 16.268198 20.0333 16 19.5 16 C 18.930456 16 18.441509 16.313662 18.1875 16.78125 L 11.09375 9.6875 C 12.448569 8.6242125 14.13816 8 16 8 z M 25 16 C 25.199088 16 25.377794 16.061585 25.53125 16.15625 C 25.290896 16.108812 25.059939 16.056509 24.8125 16.03125 L 25 16 z M 11.875 16.125 C 11.351 16.359 11 16.889 11 17.5 C 11 18.328 11.672 19 12.5 19 C 13.111 19 13.641 18.649 13.875 18.125 L 11.875 16.125 z M 24 18 C 27.325553 18 30 20.674447 30 24 C 30 27.325553 27.325553 30 24 30 C 20.674447 30 18 27.325553 18 24 C 18 20.674447 20.674447 18 24 18 z M 21 20 L 23 24 L 21 28 L 23 28 L 24 26 L 25 28 L 27 28 L 25 24 L 27 20 L 25 20 L 24 22 L 23 20 L 21 20 z" fill="#000000"/></svg>
