<?xml version="1.0" encoding="utf-8"?>
<svg xmlns="http://www.w3.org/2000/svg" viewBox="0 0 32 32" fill="#000000"><path style="text-indent:0;text-align:start;line-height:normal;text-transform:none;block-progression:tb;-inkscape-font-specification:Bitstream Vera Sans" d="M 6.09375 4.09375 L 6.3125 5.6875 L 6.28125 5.71875 L 6.34375 5.78125 L 6.8125 9 L 8.1875 7.625 L 12 11.4375 L 12 23 L 14 23 L 14 11 L 14 10.59375 L 13.71875 10.28125 L 9.625 6.1875 L 11 4.8125 L 7.78125 4.34375 L 7.71875 4.28125 L 7.6875 4.3125 L 6.09375 4.09375 z M 25.90625 4.09375 L 24.3125 4.3125 L 24.28125 4.28125 L 24.21875 4.34375 L 21 4.8125 L 22.375 6.1875 L 18.28125 10.28125 L 18 10.59375 L 18 11 L 18 23 L 20 23 L 20 11.4375 L 23.8125 7.625 L 25.1875 9 L 25.65625 5.78125 L 25.71875 5.71875 L 25.6875 5.6875 L 25.90625 4.09375 z M 4 14 L 4 16 L 6 16 L 6 27 L 6 28 L 7 28 L 25 28 L 26 28 L 26 27 L 26 16 L 28 16 L 28 14 L 25 14 L 24 14 L 24 15 L 24 26 L 8 26 L 8 15 L 8 14 L 7 14 L 4 14 z" overflow="visible" font-family="Bitstream Vera Sans" fill="#000000"/></svg>
