<?xml version="1.0" encoding="utf-8"?>
<svg xmlns="http://www.w3.org/2000/svg" viewBox="0 0 32 32" fill="#000000"><path style="text-indent:0;text-align:start;line-height:normal;text-transform:none;block-progression:tb;-inkscape-font-specification:Bitstream Vera Sans" d="M 16 6 C 10.473503 6 6 10.473503 6 16 L 6 18.03125 L 5.71875 18.375 L 3.21875 21.375 L 3 21.625 L 3 22 L 3 25 L 3 26 L 4 26 L 15.84375 26 L 28 26 L 29 26 L 29 25 L 29 22 L 29 21.625 L 28.78125 21.375 L 26.28125 18.375 L 26 18.03125 L 26 16 C 26 10.473503 21.526497 6 16 6 z M 16 8 C 20.455503 8 24 11.544497 24 16 L 24 18 L 22 18 L 22 16 C 22 12.684208 19.315792 10 16 10 C 12.684208 10 10 12.684208 10 16 L 10 18 L 8 18 L 8 16 C 8 11.544497 11.544497 8 16 8 z M 16 12 C 18.256208 12 20 13.743792 20 16 L 20 18 L 18 18 L 18 16 C 18 14.867 17.133 14 16 14 C 14.867 14 14 14.867 14 16 L 14 18 L 12 18 L 12 16 C 12 13.743792 13.743792 12 16 12 z M 6.96875 20 L 25.03125 20 L 27 22.375 L 27 24 L 15.84375 24 L 5 24 L 5 22.375 L 6.96875 20 z" overflow="visible" font-family="Bitstream Vera Sans" fill="#000000"/></svg>
