<?xml version="1.0" encoding="utf-8"?>
<svg xmlns="http://www.w3.org/2000/svg" viewBox="0 0 32 32" fill="#000000"><path style="text-indent:0;text-align:start;line-height:normal;text-transform:none;block-progression:tb;-inkscape-font-specification:Sans" d="M 4 4 L 4 5 L 4 22 L 4 23 L 4 24 L 4 27.03125 L 4 28.03125 L 5 28.03125 L 27.03125 28.03125 L 28.03125 28.03125 L 28.03125 27.03125 L 28.03125 23 L 28.03125 22 L 27.03125 22 L 23 22 L 23 5 L 23 4 L 22 4 L 5 4 L 4 4 z M 6 6 L 15 6 L 15 22 L 6 22 L 6 6 z M 17 6 L 21 6 L 21 22 L 17 22 L 17 6 z M 8 8 L 8 10 L 13 10 L 13 8 L 8 8 z M 8 12 L 8 14 L 13 14 L 13 12 L 8 12 z M 17.875 19 L 17.875 21 L 20 21 L 20 19 L 17.875 19 z M 6 24 L 22 24 L 23 24 L 26.03125 24 L 26.03125 26.03125 L 6 26.03125 L 6 24 z" fill="#000000"/></svg>
