<?xml version="1.0" encoding="utf-8"?>
<svg xmlns="http://www.w3.org/2000/svg" viewBox="0 0 32 32" fill="#000000"><path style="text-indent:0;text-align:start;line-height:normal;text-transform:none;block-progression:tb;-inkscape-font-specification:Bitstream Vera Sans" d="M 15 4 L 15 6 L 14.03125 6 L 13.125 6 L 13.03125 6.875 L 12.125 14 L 8 14 L 7 14 L 7 15 L 7 16 L 6 16 L 5 16 L 5 17 L 5 20 L 5 21 L 6 21 L 9 21 L 9 23 C 9 23.552 9.448 24 10 24 C 10.552 24 11 23.552 11 23 L 11 21 L 21 21 L 21 23 C 21 23.552 21.448 24 22 24 C 22.552 24 23 23.552 23 23 L 23 21 L 26 21 L 27 21 L 27 20 L 27 17 L 27 16 L 26 16 L 25 16 L 25 15 L 25 14 L 24 14 L 19.875 14 L 18.96875 6.875 L 18.875 6 L 17.96875 6 L 17 6 L 17 4 L 15 4 z M 14.90625 8 L 17.09375 8 L 17.84375 14 L 14.15625 14 L 14.90625 8 z M 9 16 L 11.90625 16 L 20.09375 16 L 23 16 L 23 17 L 23 18 L 24 18 L 25 18 L 25 19 L 7 19 L 7 18 L 8 18 L 9 18 L 9 17 L 9 16 z M 0 24 C 0 24.942667 0.58688508 25.684532 1.3125 26.1875 C 2.0381149 26.690468 2.964638 27 4 27 C 5.0385518 27 5.9636774 26.691901 6.6875 26.1875 C 6.7963937 26.111617 6.8987681 26.023981 7 25.9375 C 7.104314 26.026988 7.1998163 26.109392 7.3125 26.1875 C 8.0381149 26.690468 8.964638 27 10 27 C 11.038552 27 11.963677 26.691901 12.6875 26.1875 C 12.796394 26.111617 12.898768 26.023981 13 25.9375 C 13.104314 26.026988 13.199816 26.109392 13.3125 26.1875 C 14.038115 26.690468 14.964638 27 16 27 C 17.038552 27 17.963677 26.691901 18.6875 26.1875 C 18.796394 26.111617 18.898768 26.023981 19 25.9375 C 19.104314 26.026988 19.199816 26.109392 19.3125 26.1875 C 20.038115 26.690468 20.964638 27 22 27 C 23.038552 27 23.963677 26.691901 24.6875 26.1875 C 24.796394 26.111617 24.898768 26.023981 25 25.9375 C 25.104314 26.026988 25.199816 26.109392 25.3125 26.1875 C 26.038115 26.690468 26.964638 27 28 27 C 29.038552 27 29.963677 26.691901 30.6875 26.1875 C 31.411323 25.683099 32 24.941864 32 24 L 30 24 C 30 24.04214 29.92068 24.312901 29.5625 24.5625 C 29.204323 24.812099 28.633448 25 28 25 C 27.363362 25 26.793885 24.809532 26.4375 24.5625 C 26.081115 24.315468 26 24.057333 26 24 L 24 24 C 24 24.04214 23.92068 24.312901 23.5625 24.5625 C 23.204323 24.812099 22.633448 25 22 25 C 21.363362 25 20.793885 24.809532 20.4375 24.5625 C 20.081115 24.315468 20 24.057333 20 24 L 18 24 C 18 24.04214 17.92068 24.312901 17.5625 24.5625 C 17.204323 24.812099 16.633448 25 16 25 C 15.363362 25 14.793885 24.809532 14.4375 24.5625 C 14.081115 24.315468 14 24.057333 14 24 L 12 24 C 12 24.04214 11.92068 24.312901 11.5625 24.5625 C 11.204323 24.812099 10.633448 25 10 25 C 9.363362 25 8.7938851 24.809532 8.4375 24.5625 C 8.0811149 24.315468 8 24.057333 8 24 L 6 24 C 6 24.04214 5.920677 24.312901 5.5625 24.5625 C 5.2043226 24.812099 4.6334482 25 4 25 C 3.363362 25 2.7938851 24.809532 2.4375 24.5625 C 2.0811149 24.315468 2 24.057333 2 24 L 0 24 z" fill="#000000"/></svg>
