<?xml version="1.0" encoding="utf-8"?>
<svg xmlns="http://www.w3.org/2000/svg" viewBox="0 0 32 32" fill="#000000"><path style="text-indent:0;text-align:start;line-height:normal;text-transform:none;block-progression:tb;-inkscape-font-specification:Sans" d="M 9 4 L 9 5 L 6 5 L 5 5 L 5 6 L 5 26 L 5 27 L 6 27 L 26 27 L 27 27 L 27 26 L 27 6 L 27 5 L 26 5 L 23 5 L 23 4 L 21 4 L 21 5 L 11 5 L 11 4 L 9 4 z M 7 7 L 9 7 L 9 8 L 11 8 L 11 7 L 21 7 L 21 8 L 23 8 L 23 7 L 25 7 L 25 9 L 7 9 L 7 7 z M 7 11 L 25 11 L 25 25 L 7 25 L 7 11 z M 14.875 14 L 14.59375 14.40625 C 14.59375 14.40625 14.047628 15 13.5 15 L 13.5 17 C 14.157155 17 14.575532 16.721022 15 16.46875 L 15 22 L 17 22 L 17 15 L 17 14 L 16 14 L 15.375 14 L 14.875 14 z M 8 17 L 8 19 L 12 19 L 12 17 L 8 17 z M 18 17 L 18 18 L 18 22 L 20 22 L 20 20.375 L 20.28125 20.6875 L 21 21.46875 L 21.71875 20.6875 L 22 20.375 L 22 22 L 24 22 L 24 18 L 24 17 L 23 17 L 22.875 17 L 22.4375 17 L 22.15625 17.3125 L 21 18.53125 L 19.875 17.3125 L 19.5625 17 L 19.125 17 L 19 17 L 18 17 z" fill="#000000"/></svg>
