<?xml version="1.0" encoding="utf-8"?>
<svg xmlns="http://www.w3.org/2000/svg" viewBox="0 0 32 32" fill="#000000"><path d="M 12.5 5 C 8.4 5 5 8.4 5 12.5 C 5 16.6 8.4 20 12.5 20 C 16.2 20 18.0605 18.9705 18.6875 18.6875 L 27 15.125 L 27 12.90625 L 17.8125 16.90625 C 17.8125 16.90625 15.6 18 12.5 18 C 9.5 18 7 15.5 7 12.5 C 7 9.5 9.5 7 12.5 7 C 13.85 7 15.119969 7.5114327 16.15625 8.375 L 17.4375 6.84375 C 16.073781 5.7073173 14.35 5 12.5 5 z M 26 7 C 25.447715 7 25 7.4477153 25 8 C 25 8.3649652 25.207996 8.6691392 25.5 8.84375 L 24.40625 9.28125 C 24.456853 9.1616116 24.5 9.0443212 24.5 8.90625 C 24.5 8.3539653 24.052285 7.90625 23.5 7.90625 C 22.947715 7.90625 22.5 8.3539653 22.5 8.90625 C 22.5 9.3204636 22.766085 9.6606917 23.125 9.8125 L 22.3125 10.1875 L 23.1875 12.40625 C 23.2875 12.70625 23.7 12.7875 24 12.6875 L 27 11.40625 L 27 8.1875 L 26.9375 8.21875 C 26.955774 8.1431459 27 8.0812183 27 8 C 27 7.4477153 26.552285 7 26 7 z M 19.6875 9.5 C 19.135215 9.5 18.6875 9.9477153 18.6875 10.5 C 18.6875 10.960237 19.014253 11.321078 19.4375 11.4375 L 18.25 11.96875 C 18.330036 11.824956 18.40625 11.676244 18.40625 11.5 C 18.40625 10.947715 17.958534 10.5 17.40625 10.5 C 16.853965 10.5 16.40625 10.947715 16.40625 11.5 C 16.40625 11.96696 16.723534 12.327459 17.15625 12.4375 L 17 12.5 C 16 12.9 15.6 14.1 16 15 L 16.09375 15.3125 C 16.29375 15.7125 16.69375 15.8875 17.09375 15.6875 L 21.90625 13.59375 C 22.20625 13.49375 22.2875 13.10625 22.1875 12.90625 L 21.40625 10.59375 L 20.5625 10.96875 C 20.642536 10.824956 20.6875 10.676244 20.6875 10.5 C 20.6875 9.9477153 20.239785 9.5 19.6875 9.5 z M 5 16.40625 L 5 27 L 7 27 L 7 18.90625 C 6.2 18.20625 5.5 17.40625 5 16.40625 z M 25 17.09375 L 23 17.90625 L 23 27 L 25 27 L 25 17.09375 z M 16 20.59375 C 15.4 20.79375 14.7 20.90625 14 20.90625 L 14 27 L 16 27 L 16 20.59375 z" fill="#000000"/></svg>
