<?xml version="1.0" encoding="utf-8"?>
<svg xmlns="http://www.w3.org/2000/svg" viewBox="0 0 32 32" fill="#000000"><path style="text-indent:0;text-align:start;line-height:normal;text-transform:none;block-progression:tb;-inkscape-font-specification:Bitstream Vera Sans" d="M 5.71875 4.28125 L 4.28125 5.71875 L 6.78125 8.21875 L 5 10 L 10 10 L 10 5 L 8.21875 6.78125 L 5.71875 4.28125 z M 26.28125 4.28125 L 23.78125 6.78125 L 22 5 L 22 10 L 27 10 L 25.21875 8.21875 L 27.71875 5.71875 L 26.28125 4.28125 z M 16 10 C 13.802706 10 12 11.802706 12 14 C 12 15.114227 12.475261 16.116062 13.21875 16.84375 C 12.855001 17.090054 12.538514 17.386688 12.25 17.71875 C 12.007735 17.377327 11.709409 17.063884 11.375 16.8125 C 11.762615 16.306924 12 15.679776 12 15 C 12 13.35499 10.64501 12 9 12 C 7.3549901 12 6 13.354991 6 15 C 6 15.679776 6.2373847 16.306923 6.625 16.8125 C 5.6513878 17.54439 5 18.697447 5 20 L 7 20 C 7 18.883334 7.8833339 18 9 18 C 10.116666 18 11 18.883334 11 20 L 11 21 L 13 21 C 13 19.331516 14.331516 18 16 18 C 17.668484 18 19 19.331516 19 21 L 21 21 L 21 20 C 21 18.883334 21.883334 18 23 18 C 24.116666 18 25 18.883334 25 20 L 27 20 C 27 18.697447 26.348612 17.54439 25.375 16.8125 C 25.762615 16.306924 26 15.679776 26 15 C 26 13.35499 24.64501 12 23 12 C 21.35499 12 20 13.35499 20 15 C 20 15.679776 20.237385 16.306924 20.625 16.8125 C 20.289104 17.065002 19.995674 17.377145 19.75 17.71875 C 19.461486 17.386688 19.144999 17.090054 18.78125 16.84375 C 19.524739 16.116062 20 15.114227 20 14 C 20 11.802706 18.197294 10 16 10 z M 16 12 C 17.116414 12 18 12.883586 18 14 C 18 15.116414 17.116414 16 16 16 C 14.883586 16 14 15.116414 14 14 C 14 12.883586 14.883586 12 16 12 z M 9 14 C 9.5641283 14 10 14.435872 10 15 C 10 15.564128 9.5641283 16 9 16 C 8.4358709 16 8 15.564129 8 15 C 8 14.435871 8.4358709 14 9 14 z M 23 14 C 23.564128 14 24 14.435872 24 15 C 24 15.564128 23.564128 16 23 16 C 22.435872 16 22 15.564128 22 15 C 22 14.435872 22.435872 14 23 14 z M 5 22 L 6.78125 23.78125 L 4.28125 26.28125 L 5.71875 27.71875 L 8.21875 25.21875 L 10 27 L 10 22 L 5 22 z M 22 22 L 22 27 L 23.78125 25.21875 L 26.28125 27.71875 L 27.71875 26.28125 L 25.21875 23.78125 L 27 22 L 22 22 z" fill="#000000"/></svg>
