<?xml version="1.0" encoding="utf-8"?>
<svg xmlns="http://www.w3.org/2000/svg" viewBox="0 0 32 32" fill="#000000"><path style="text-indent:0;text-align:start;line-height:normal;text-transform:none;block-progression:tb;-inkscape-font-specification:Sans" d="M 17 2 C 15.618911 2 14.466988 2.9700225 14.125 4.25 C 13.773916 4.1044091 13.400961 4 13 4 C 11.35503 4 10 5.3550302 10 7 L 10 15 L 10 15.75 L 9.125 14.875 C 7.9619269 13.711927 6.0380731 13.711927 4.875 14.875 C 3.7119269 16.038073 3.7119269 17.961927 4.875 19.125 L 11.65625 25.90625 C 11.767736 26.017167 11.884791 26.117362 12 26.21875 L 12 29 L 12 30 L 13 30 L 25 30 L 26 30 L 26 29 L 26 25.75 C 27.184106 24.49771 28 22.857673 28 21 L 28 10 C 28 8.3550302 26.64497 7 25 7 C 24.647017 7 24.315758 7.0732364 24 7.1875 L 24 7 C 24 5.3550302 22.64497 4 21 4 C 20.599039 4 20.226084 4.1044091 19.875 4.25 C 19.533012 2.9700225 18.381089 2 17 2 z M 17 4 C 17.56503 4 18 4.4349698 18 5 L 18 14 L 20 14 L 20 7 C 20 6.4349698 20.43497 6 21 6 C 21.56503 6 22 6.4349698 22 7 L 22 14 L 24 14 L 24 10 C 24 9.4349698 24.43497 9 25 9 C 25.56503 9 26 9.4349698 26 10 L 26 21 C 26 22.48392 25.368162 23.799706 24.34375 24.71875 L 24 25.03125 L 24 25.46875 L 24 28 L 14 28 L 14 25.75 L 14 25.25 L 13.625 24.9375 C 13.430991 24.783723 13.257118 24.631284 13.09375 24.46875 L 6.28125 17.71875 C 5.8823231 17.319823 5.8823231 16.680177 6.28125 16.28125 C 6.6801769 15.882323 7.3198231 15.882323 7.71875 16.28125 L 7.78125 16.34375 L 10.28125 18.875 L 12 20.59375 L 12 18.1875 L 12 15 L 12 7 C 12 6.4349698 12.43497 6 13 6 C 13.56503 6 14 6.4349698 14 7 L 14 14 L 16 14 L 16 7 L 16 5 C 16 4.4349698 16.43497 4 17 4 z M 18.9375 16 C 18.2435 16.00975 17.56575 16.3805 17.21875 17.125 L 17.03125 17.53125 L 16.625 17.59375 C 15.032 17.85375 14.42375 19.865 15.59375 21 L 15.90625 21.28125 L 15.84375 21.6875 C 15.59275 23.3175 17.2705 24.538 18.6875 23.75 L 19.0625 23.5625 L 19.40625 23.75 C 20.84425 24.498 22.51375 23.21575 22.21875 21.59375 L 22.125 21.1875 L 22.4375 20.90625 C 23.5775 19.73925 22.9115 17.74625 21.3125 17.53125 L 20.90625 17.46875 L 20.71875 17.09375 C 20.35175 16.35925 19.6315 15.99025 18.9375 16 z M 19 19 C 19.552 19.001 20.001 19.448 20 20 C 19.998 20.553 19.552 21.001 19 21 C 18.448 20.999 17.999 20.553 18 20 C 18.001 19.448 18.447 18.998 19 19 z" overflow="visible" font-family="Sans" fill="#000000"/></svg>
