<?xml version="1.0" encoding="utf-8"?>
<svg xmlns="http://www.w3.org/2000/svg" viewBox="0 0 32 32" fill="#000000"><path style="line-height:normal;text-indent:0;text-align:start;text-decoration-line:none;text-decoration-style:solid;text-decoration-color:#000;text-transform:none;block-progression:tb;isolation:auto;mix-blend-mode:normal" d="M 16 3 C 14.149699 3 12.594409 4.2842135 12.144531 6 L 6 6 L 6 12 L 3 12 L 3 13 L 3 20 L 6 20 L 6 26 L 12.144531 26 C 12.594409 27.715786 14.149699 29 16 29 C 17.850301 29 19.405591 27.715786 19.855469 26 L 26 26 L 26 20 L 29 20 L 29 12 L 26 12 L 26 6 L 19.855469 6 C 19.405591 4.2842135 17.850301 3 16 3 z M 16 5 C 17.116414 5 18 5.8835859 18 7 C 18 8.1164141 17.116414 9 16 9 C 14.883586 9 14 8.1164141 14 7 C 14 5.8835859 14.883586 5 16 5 z M 8 8 L 12.144531 8 C 12.594409 9.7157865 14.149699 11 16 11 C 17.850301 11 19.405591 9.7157865 19.855469 8 L 24 8 L 24 12 L 21 12 L 21 13 L 21 20 L 24 20 L 24 24 L 19.855469 24 C 19.405591 22.284214 17.850301 21 16 21 C 14.149699 21 12.594409 22.284214 12.144531 24 L 8 24 L 8 20 L 11 20 L 11 12 L 8 12 L 8 8 z M 5 14 L 9 14 L 9 18 L 5 18 L 5 14 z M 23 14 L 27 14 L 27 18 L 23 18 L 23 14 z M 16 23 C 17.116414 23 18 23.883586 18 25 C 18 26.116414 17.116414 27 16 27 C 14.883586 27 14 26.116414 14 25 C 14 23.883586 14.883586 23 16 23 z" fill="#000000"/></svg>
