<?xml version="1.0" encoding="utf-8"?>
<svg xmlns="http://www.w3.org/2000/svg" viewBox="0 0 32 32" fill="#000000"><path style="text-indent:0;text-align:start;line-height:normal;text-transform:none;block-progression:tb;-inkscape-font-specification:Sans" d="M 4 5 L 4 27 L 13.40625 27.03125 L 14.5625 25 L 6 25 L 6 11 L 26 11 L 26 15.96875 L 28 19.40625 L 28 5 L 4 5 z M 6 7 L 26 7 L 26 9 L 6 9 L 6 7 z M 9 14 L 9 16 L 11 16 L 11 14 L 9 14 z M 13 14 L 13 16 L 19.40625 16 L 20.53125 14 L 13 14 z M 23 15.875 C 22.286451 15.874917 21.579871 16.227003 21.1875 16.90625 L 14.28125 28.84375 C 13.496265 30.202662 14.524987 32 16.09375 32 L 29.90625 32 C 31.475013 32 32.503735 30.202662 31.71875 28.84375 L 24.8125 16.90625 C 24.420735 16.226451 23.713549 15.875083 23 15.875 z M 23 17.8125 C 23.031159 17.812638 23.062515 17.852049 23.09375 17.90625 L 30 29.84375 C 30.063015 29.952838 30.031487 30 29.90625 30 L 16.09375 30 C 15.968513 30 15.936985 29.952838 16 29.84375 L 22.90625 17.90625 C 22.93788 17.851496 22.968841 17.812362 23 17.8125 z M 9 18 L 9 20 L 11 20 L 11 18 L 9 18 z M 13 18 L 13 20 L 17.40625 20 L 18.53125 18 L 13 18 z M 22 21 L 22 25.5 L 24 25.5 L 24 21 L 22 21 z M 22 27 L 22 29 L 24 29 L 24 27 L 22 27 z" fill="#000000"/></svg>
