<?xml version="1.0" encoding="utf-8"?>
<svg xmlns="http://www.w3.org/2000/svg" viewBox="0 0 32 32" fill="#000000"><path style="text-indent:0;text-align:start;line-height:normal;text-transform:none;block-progression:tb;-inkscape-font-specification:Sans" d="M 9 3 C 5.6981362 3 3 5.6981362 3 9 C 3 12.301864 5.6981362 15 9 15 C 12.301864 15 15 12.301864 15 9 C 15 5.6981362 12.301864 3 9 3 z M 23 3 C 19.698136 3 17 5.6981362 17 9 C 17 12.301864 19.698136 15 23 15 C 26.301864 15 29 12.301864 29 9 C 29 5.6981362 26.301864 3 23 3 z M 9 5 C 11.220984 5 13 6.7790164 13 9 C 13 11.220984 11.220984 13 9 13 C 6.7790164 13 5 11.220984 5 9 C 5 6.7790164 6.7790164 5 9 5 z M 23 5 C 25.167081 5 26.885261 6.6983708 26.96875 8.84375 L 22.8125 5.03125 C 22.876164 5.0282873 22.935559 5 23 5 z M 20.65625 5.75 L 26.40625 11.0625 C 26.129051 11.523866 25.77809 11.904417 25.34375 12.21875 L 19.5625 6.96875 C 19.845379 6.4865232 20.20368 6.0741315 20.65625 5.75 z M 19.03125 9.1875 L 23.21875 12.96875 C 23.14483 12.972754 23.074978 13 23 13 C 20.843457 13 19.130397 11.318047 19.03125 9.1875 z M 9 17 C 5.691 17 3 19.691 3 23 C 3 26.309 5.691 29 9 29 C 12.309 29 15 26.309 15 23 C 15 19.691 12.309 17 9 17 z M 23 17 C 19.698136 17 17 19.698136 17 23 C 17 26.301864 19.698136 29 23 29 C 26.301864 29 29 26.301864 29 23 C 29 19.698136 26.301864 17 23 17 z M 23 19 C 25.220984 19 27 20.779016 27 23 C 27 25.220984 25.220984 27 23 27 C 20.779016 27 19 25.220984 19 23 C 19 20.779016 20.779016 19 23 19 z M 23 20 C 22.447715 20 22 20.447715 22 21 C 22 21.552285 22.447715 22 23 22 C 23.552285 22 24 21.552285 24 21 C 24 20.447715 23.552285 20 23 20 z M 21 22 C 20.447715 22 20 22.447715 20 23 C 20 23.552285 20.447715 24 21 24 C 21.552285 24 22 23.552285 22 23 C 22 22.447715 21.552285 22 21 22 z M 25 22 C 24.447715 22 24 22.447715 24 23 C 24 23.552285 24.447715 24 25 24 C 25.552285 24 26 23.552285 26 23 C 26 22.447715 25.552285 22 25 22 z M 23 24 C 22.447715 24 22 24.447715 22 25 C 22 25.552285 22.447715 26 23 26 C 23.552285 26 24 25.552285 24 25 C 24 24.447715 23.552285 24 23 24 z" fill="#000000"/></svg>
