<?xml version="1.0" encoding="utf-8"?>
<svg xmlns="http://www.w3.org/2000/svg" viewBox="0 0 32 32" fill="#000000"><path style="line-height:normal;text-indent:0;text-align:start;text-decoration-line:none;text-decoration-style:solid;text-decoration-color:#000;text-transform:none;block-progression:tb;isolation:auto;mix-blend-mode:normal" d="M 8.3847656 1.9726562 L 4.0800781 13.455078 L 3.8359375 14.103516 L 1.796875 19.542969 L 16 29.873047 L 30.203125 19.542969 L 28.164062 14.103516 L 23.615234 1.9726562 L 19.882812 13.455078 L 12.117188 13.455078 L 8.3847656 1.9726562 z M 8.25 8.0273438 L 10.013672 13.455078 L 6.2148438 13.455078 L 8.25 8.0273438 z M 23.75 8.0273438 L 25.785156 13.455078 L 21.986328 13.455078 L 23.75 8.0273438 z M 5.4648438 15.455078 L 10.664062 15.455078 L 14.095703 26.015625 L 4.203125 18.820312 L 5.4648438 15.455078 z M 12.767578 15.455078 L 19.232422 15.455078 L 16 25.400391 L 12.767578 15.455078 z M 21.335938 15.455078 L 26.533203 15.455078 L 27.796875 18.820312 L 17.902344 26.015625 L 21.335938 15.455078 z" font-weight="400" font-family="sans-serif" white-space="normal" overflow="visible" fill="#000000"/></svg>
