<?xml version="1.0" encoding="utf-8"?>
<svg xmlns="http://www.w3.org/2000/svg" viewBox="0 0 32 32" fill="#000000"><path style="text-indent:0;text-align:start;line-height:normal;text-transform:none;block-progression:tb;-inkscape-font-specification:Sans" d="M 4 5 L 4 27 L 15 27 C 14.786 26.36 14.6355 25.692 14.5625 25 L 6 25 L 6 11 L 26 11 L 26 14.71875 C 26.699 14.86975 27.367 15.11125 28 15.40625 L 28 5 L 4 5 z M 6 7 L 26 7 L 26 9 L 6 9 L 6 7 z M 9 14 L 9 16 L 11 16 L 11 14 L 9 14 z M 13 14 L 13 16 L 18.90625 16 C 19.84325 15.4 20.879 14.95975 22 14.71875 L 22 14 L 13 14 z M 24 16 C 19.593567 16 16 19.593567 16 24 C 16 28.406433 19.593567 32 24 32 C 28.406433 32 32 28.406433 32 24 C 32 19.593567 28.406433 16 24 16 z M 9 18 L 9 20 L 11 20 L 11 18 L 9 18 z M 13 18 L 13 20 L 15.40625 20 C 15.74225 19.281 16.15925 18.608 16.65625 18 L 13 18 z M 24 18 C 27.325553 18 30 20.674447 30 24 C 30 27.325553 27.325553 30 24 30 C 20.674447 30 18 27.325553 18 24 C 18 20.674447 20.674447 18 24 18 z M 23 19 L 23 24 L 23 25 L 24 25 L 28 25 L 28 23 L 25 23 L 25 19 L 23 19 z M 21.96875 20 L 22 20 C 21.994 20.003 21.97475 19.997 21.96875 20 z" overflow="visible" font-family="Sans" fill="#000000"/></svg>
