<?xml version="1.0" encoding="utf-8"?>
<svg xmlns="http://www.w3.org/2000/svg" viewBox="0 0 32 32" fill="#000000"><path style="text-indent:0;text-align:start;line-height:normal;text-transform:none;block-progression:tb;-inkscape-font-specification:Sans" d="M 16 3 C 14.231983 3 13.057868 3.9826871 12.59375 5 C 12.242352 5.7702383 12.285609 6.3038356 12.28125 6.75 C 11.534942 7.257781 10.751699 7.9054542 10.125 8.53125 C 8.728119 9.9293029 7.9613712 11.920299 8 14.03125 C 8.018174 15.00356 8.2185026 15.981905 8.59375 16.96875 C 8.7818469 17.462912 9.125093 18.325547 9.4375 19.28125 C 9.749907 20.236953 10 21.29333 10 22 L 9 22 A 1.0001 1.0001 0 0 0 8.90625 22 A 1.001098 1.001098 0 0 0 8.96875 24 L 7.1875 26.40625 L 7 26.65625 L 7 27 L 7 28 L 7 29 L 8 29 L 24 29 L 25 29 L 25 28 L 25 27 L 25 26.65625 L 24.8125 26.40625 L 23 24 A 1.0001 1.0001 0 1 0 23 22 L 22 22 C 22 19.739635 20.592102 17.66423 19.28125 16.0625 C 18.529964 15.144504 18.285477 14.983542 17.78125 14.5 C 17.959226 14.39309 18.183514 14.269546 18.3125 14.1875 C 18.471738 14.086211 18.5575 14.021696 18.59375 14 C 18.87362 14 18.895928 14.04535 19.1875 14.28125 C 19.479072 14.517149 20.077167 15 20.90625 15 C 21.631503 15 22.163641 14.533128 22.4375 14.1875 C 22.687284 13.872257 22.823477 13.633674 22.84375 13.59375 C 22.93318 13.55218 23.128298 13.48844 23.375 13.3125 C 23.621702 13.13656 23.94239 12.744641 24 12.3125 C 24.05761 11.880359 23.92107 11.499614 23.75 11.125 C 23.495565 10.568424 23.024532 9.9320621 22.28125 9.15625 C 21.537968 8.3804379 20.564604 7.554482 19.375 7.0625 C 19.285271 7.0253437 19.358913 7.0833572 19.3125 7.03125 C 19.266087 6.9791428 19.12573 6.7690561 18.84375 6.5625 C 18.477717 6.2943732 17.681066 6.2616765 17 6.1875 L 17 4 L 17 3 L 16 3 z M 15 5.21875 L 15 7 L 15 8 L 16 8 C 17.365152 8 17.665959 8.1633621 17.65625 8.15625 C 17.65135 8.15269 17.66055 8.173107 17.8125 8.34375 C 17.964494 8.5143928 18.260729 8.7866563 18.625 8.9375 C 19.425396 9.268518 20.227532 9.9193121 20.84375 10.5625 C 21.421099 11.165118 21.807362 11.760121 21.875 11.875 C 21.716491 11.95216 21.545292 12.006317 21.34375 12.25 C 21.070294 12.581683 20.974141 12.812378 20.875 12.9375 C 20.844495 12.975999 20.848237 12.989757 20.84375 13 C 20.758568 12.987808 20.701153 12.932062 20.4375 12.71875 C 20.111072 12.454649 19.45688 12 18.59375 12 C 17.936773 12 17.564719 12.299812 17.25 12.5 C 16.935281 12.700188 16.679182 12.845393 16.59375 12.875 L 16.5625 12.90625 L 16.53125 12.90625 C 16.349607 12.983083 16.03125 13 16.03125 13 L 15 12.96875 L 15 14 L 15 14.09375 L 15 14.5625 L 15.34375 14.84375 C 15.34375 14.84375 16.529602 15.89073 17.71875 17.34375 C 18.907898 18.79677 20 20.667365 20 22 L 12 22 C 12 20.87867 11.686343 19.704297 11.34375 18.65625 C 11.001157 17.608203 10.595403 16.696088 10.4375 16.28125 C 10.142747 15.506095 10.013826 14.70844 10 13.96875 C 9.9706288 12.363701 10.544131 10.925447 11.53125 9.9375 C 12.183172 9.2865174 13.155961 8.4702716 13.6875 8.15625 L 14.1875 7.875 L 14.1875 7.3125 C 14.1875 6.9397919 14.1891 6.3196871 14.40625 5.84375 C 14.529438 5.5737313 14.702548 5.3674766 15 5.21875 z M 11.5 24 L 20.5 24 L 22.75 27 L 9.25 27 L 11.5 24 z" overflow="visible" font-family="Sans" fill="#000000"/></svg>
