<?xml version="1.0" encoding="utf-8"?>
<svg xmlns="http://www.w3.org/2000/svg" viewBox="0 0 32 32" fill="#000000"><path style="text-indent:0;text-align:start;line-height:normal;text-transform:none;block-progression:tb;-inkscape-font-specification:Sans" d="M 2 6 L 2 7 L 2 25 L 2 26 L 3 26 L 29 26 L 30 26 L 30 25 L 30 7 L 30 6 L 29 6 L 3 6 L 2 6 z M 4 8 L 28 8 L 28 24 L 4 24 L 4 8 z M 16 10 C 15.601867 10.000024 15.211872 10.131875 14.875 10.375 L 14.28125 10.78125 L 13.53125 10.90625 L 13.53125 10.9375 C 12.712945 11.070808 12.038088 11.70932 11.90625 12.53125 L 11.78125 13.28125 L 11.375 13.875 C 10.88875 14.548745 10.890254 15.451286 11.375 16.125 L 11.78125 16.71875 L 11.90625 17.46875 L 11.9375 17.46875 C 12.004154 17.877902 12.189717 18.243768 12.46875 18.53125 L 10 21 L 12 21 L 12 23 L 15.1875 19.8125 C 15.698284 20.048681 16.301731 20.04844 16.8125 19.8125 L 20 23 L 20 21 L 22 21 L 19.53125 18.53125 C 19.818732 18.244405 20.027831 17.879715 20.09375 17.46875 L 20.21875 16.71875 L 20.625 16.125 C 21.11125 15.451255 21.109746 14.548714 20.625 13.875 L 20.21875 13.28125 L 20.09375 12.53125 C 19.960442 11.712945 19.29068 11.038088 18.46875 10.90625 L 17.71875 10.78125 L 17.125 10.375 C 16.788143 10.132627 16.398133 9.9999764 16 10 z M 16 12.03125 L 16.75 12.5625 L 16.9375 12.6875 L 17.1875 12.75 L 18.09375 12.90625 L 18.25 13.8125 L 18.3125 14.0625 L 18.4375 14.25 L 18.96875 15 L 18.4375 15.75 L 18.3125 15.9375 L 18.25 16.1875 L 18.09375 17.09375 L 17.1875 17.25 L 16.9375 17.3125 L 16.75 17.4375 L 16 17.96875 L 15.25 17.4375 L 15.0625 17.3125 L 14.8125 17.25 L 13.90625 17.09375 L 13.75 16.1875 L 13.6875 15.9375 L 13.5625 15.75 L 13.03125 15 L 13.5625 14.25 L 13.6875 14.0625 L 13.75 13.8125 L 13.90625 12.90625 L 14.8125 12.75 L 15.0625 12.6875 L 15.25 12.5625 L 16 12.03125 z" overflow="visible" font-family="Sans" fill="#000000"/></svg>
