<?xml version="1.0" encoding="utf-8"?>
<svg xmlns="http://www.w3.org/2000/svg" viewBox="0 0 32 32" fill="#000000"><path style="text-indent:0;text-align:start;line-height:normal;text-transform:none;block-progression:tb;-inkscape-font-specification:Bitstream Vera Sans" d="M 7 6 L 7 9.09375 C 6.3657731 9.2244476 5.7749117 9.4944983 5.25 9.84375 L 3.0625 7.625 L 1.625 9.0625 L 3.84375 11.25 C 3.4944983 11.774912 3.2244476 12.365773 3.09375 13 L 0 13 L 0 15 L 3.09375 15 C 3.2250318 15.637062 3.4929439 16.224681 3.84375 16.75 L 1.625 18.9375 L 3.0625 20.375 L 5.25 18.15625 C 5.5522124 18.356315 5.8762887 18.524629 6.21875 18.65625 C 6.0987192 19.084928 6 19.533553 6 20 C 6 22.757 8.243 25 11 25 L 17 25 L 17 23 L 11 23 C 9.346 23 8 21.654 8 20 C 8 18.346 9.346 17 11 17 L 12 17 L 12 16 C 12 14.897 12.89325 14.005 13.90625 14 L 14.90625 14.0625 L 15.09375 13.21875 C 15.46775 11.35975 17.103 10 19 10 C 20.605 10 22.0565 10.9595 22.6875 12.4375 L 22.96875 13.125 L 23.875 13.03125 C 23.919 13.02425 23.954 13 24 13 C 25.654 13 26.997 14.3525 27 15.9375 L 26.96875 16.90625 L 27.75 17.09375 C 29.081 17.43275 30 18.636 30 20 C 30 21.654 28.654 23 27 23 L 23.25 23 L 22.3125 25 L 27 25 C 29.757 25 32 22.757 32 20 C 32 17.981 30.78775 16.18125 28.96875 15.40625 C 28.68575 12.98825 26.6575 11.097 24.1875 11 C 23.1255 9.154 21.166 8 19 8 C 16.417 8 14.1315 9.6715 13.3125 12.0625 C 13.081552 12.102037 12.871966 12.141358 12.65625 12.21875 C 12.524629 11.876289 12.356315 11.552212 12.15625 11.25 L 14.375 9.0625 L 12.9375 7.625 L 10.75 9.84375 C 10.224681 9.4929438 9.6370621 9.2250318 9 9.09375 L 9 6 L 7 6 z M 8 11 C 9.4599234 11 10.659828 12.033636 10.9375 13.40625 C 10.939565 13.416457 10.935538 13.427254 10.9375 13.4375 C 10.547686 13.905247 10.238308 14.481944 10.09375 15.09375 C 8.8886294 15.311736 7.864342 15.958235 7.125 16.875 C 5.8912696 16.503185 5 15.362127 5 14 C 5 12.331516 6.3315161 11 8 11 z M 19 14.5 L 16 20.96875 L 19 21.96875 L 19 27.5 L 22 21 L 19 20 L 19 14.5 z" fill="#000000"/></svg>
