<?xml version="1.0" encoding="utf-8"?>
<svg xmlns="http://www.w3.org/2000/svg" viewBox="0 0 32 32" fill="#000000"><path d="M 8.9375 6 C 6.0436781 6 3.9105581 6.7277443 2.5625 8.25 C 1.2144419 9.7722557 0.78125 11.905549 0.78125 14.375 L 0.78125 15.0625 C 0.33611256 15.53877 0 16.112361 0 16.8125 C 0 17.85668 0.70131026 18.643519 1.59375 19.0625 C 1.876523 19.993368 2.1933025 20.947453 2.53125 21.78125 C 2.9121756 22.721084 3.237206 23.459752 3.75 24.03125 C 5.7103308 26.21242 8.8216445 26.531721 11.125 25 L 17.96875 25 C 18.851764 25.614757 19.873009 26 21 26 C 22.126141 26 23.148064 25.614958 24.03125 25 L 31 25 L 32 25 L 32 24 C 32 10.806655 26.602161 7.505118 23.59375 7.15625 L 22.71875 6.28125 L 22.40625 6 L 22 6 C 19.125488 6 16.266117 6.6349139 13.875 9.4375 C 12.982184 8.1113797 11.753664 7.3419674 10.46875 7.15625 L 9.6875 6.3125 L 9.375 6 L 8.9375 6 z M 8.5625 8.0625 L 9.03125 8.53125 C 9.2509575 9.0126085 9.3609204 9.3718334 9.375 9.5625 C 9.39008 9.7667211 9.36577 9.7512573 9.34375 9.78125 C 9.2997164 9.8412354 8.8626569 10.077056 8.15625 10.25 C 7.4498431 10.422944 6.5657953 10.57538 5.71875 11.09375 C 4.8717047 11.61212 4.1666278 12.657492 4.15625 14 L 6.15625 14 C 6.1623722 13.208008 6.3422953 13.030755 6.75 12.78125 C 7.1577047 12.531745 7.8589069 12.375056 8.625 12.1875 C 9.3910931 11.999944 10.311784 11.82114 10.9375 10.96875 C 11.228011 10.572997 11.35927 10.05926 11.34375 9.53125 C 12.325231 10.23206 13.21875 11.699653 13.21875 14.375 L 13.21875 15.40625 L 13.21875 15.96875 L 13.6875 16.25 C 13.855556 16.352059 14 16.548169 14 16.8125 C 14 17.180213 13.768027 17.414689 13.5 17.4375 L 12.8125 17.5 L 12.625 18.15625 C 12.338827 19.136029 11.972904 20.173062 11.625 21.03125 C 11.277096 21.889438 10.861688 22.629239 10.78125 22.71875 C 9.196477 24.482055 6.803523 24.482055 5.21875 22.71875 C 5.137544 22.62825 4.7228244 21.889416 4.375 21.03125 C 4.0271756 20.173084 3.6617394 19.136307 3.375 18.15625 L 3.1875 17.5 L 2.5 17.4375 C 2.2319732 17.414689 2 17.180213 2 16.8125 C 2 16.555235 2.1418709 16.353401 2.3125 16.25 L 2.78125 15.96875 L 2.78125 15.40625 L 2.78125 14.375 L 2.78125 14.34375 C 2.78567 12.136198 3.194247 10.5742 4.0625 9.59375 C 4.8818183 8.6685585 6.2796449 8.1307356 8.5625 8.0625 z M 21.625 8.0625 L 22.28125 8.71875 L 22.59375 9 L 23 9 C 24.364269 9 29.642444 10.583074 29.9375 23 L 26 23 C 26.044144 22.937835 26.082356 22.875533 26.125 22.8125 C 27.309549 21.061597 28 18.935979 28 17 L 26 17 C 26 18.432021 25.420701 20.280403 24.46875 21.6875 C 23.516799 23.094597 22.279982 24 21 24 C 19.721659 24 18.483662 23.097172 17.53125 21.6875 C 16.578838 20.277828 16 18.422242 16 17 C 16.005282 16.937198 16 16.877311 16 16.8125 C 16.021193 16.623975 16.083566 16.496824 16.15625 16.40625 C 16.25294 16.285762 16.442041 16.142138 16.75 16.03125 C 17.365918 15.809474 18.429623 15.729006 19.5625 15.65625 C 20.695377 15.58349 21.883908 15.521911 22.96875 15.0625 C 24.053592 14.603089 25 13.482555 25 12 L 23 12 C 23 12.835445 22.821408 12.963536 22.21875 13.21875 C 21.616092 13.473964 20.554623 13.584506 19.4375 13.65625 C 18.320377 13.72799 17.134082 13.770401 16.0625 14.15625 C 15.774959 14.259786 15.485052 14.38023 15.21875 14.5625 L 15.21875 14.375 C 15.21875 13.279436 15.066605 12.29204 14.8125 11.4375 C 16.869639 8.5321907 18.93546 8.102636 21.625 8.0625 z M 6 16 C 5.4477153 16 5 16.447715 5 17 C 5 17.552285 5.4477153 18 6 18 C 6.5522847 18 7 17.552285 7 17 C 7 16.447715 6.5522847 16 6 16 z M 10 16 C 9.4477153 16 9 16.447715 9 17 C 9 17.552285 9.4477153 18 10 18 C 10.552285 18 11 17.552285 11 17 C 11 16.447715 10.552285 16 10 16 z M 18.96875 17 C 18.431929 17 18 17.447715 18 18 C 18 18.552285 18.431929 19 18.96875 19 C 19.505571 19 19.9375 18.552285 19.9375 18 C 19.9375 17.447715 19.505571 17 18.96875 17 z M 23 17 C 22.447715 17 22 17.447715 22 18 C 22 18.552285 22.447715 19 23 19 C 23.552285 19 24 18.552285 24 18 C 24 17.447715 23.552285 17 23 17 z M 14.3125 19.34375 C 14.624192 20.551327 15.159337 21.753242 15.875 22.8125 C 15.917627 22.875593 15.955874 22.937783 16 23 L 12.90625 23 C 13.094435 22.632332 13.282163 22.241509 13.46875 21.78125 C 13.772825 21.031177 14.052333 20.183957 14.3125 19.34375 z" fill="#000000"/></svg>
