<?xml version="1.0" encoding="utf-8"?>
<svg xmlns="http://www.w3.org/2000/svg" viewBox="0 0 32 32" fill="#000000"><path style="text-indent:0;text-align:start;line-height:normal;text-transform:none;block-progression:tb;-inkscape-font-specification:Sans" d="M 16 3.90625 L 15.59375 4.09375 L 4.59375 8.96875 L 4 9.25 L 4 9.875 L 4 27 L 4 28 L 5 28 L 27 28 L 28 28 L 28 27 L 28 9.875 L 28 9.25 L 27.40625 8.96875 L 16.40625 4.09375 L 16 3.90625 z M 16 6.09375 L 26 10.5625 L 26 26 L 24 26 L 24 13 L 24 12 L 23 12 L 9 12 L 8 12 L 8 13 L 8 26 L 6 26 L 6 10.5625 L 16 6.09375 z M 10 14 L 22 14 L 22 26 L 10 26 L 10 14 z M 16 23 C 15.447715 23 15 23.447715 15 24 C 15 24.552285 15.447715 25 16 25 C 16.552285 25 17 24.552285 17 24 C 17 23.447715 16.552285 23 16 23 z" overflow="visible" font-family="Sans" fill="#000000"/></svg>
