<?xml version="1.0" encoding="utf-8"?>
<svg xmlns="http://www.w3.org/2000/svg" viewBox="0 0 32 32" fill="#000000"><path d="M 22.96875 3 C 22.854688 3.0000156 22.71875 3.006 22.59375 3.03125 L 7.59375 4.15625 C 5.59375 4.25625 4 5.9495 4 8.0625 L 4 10.6875 L 5 11.6875 L 4 11.78125 L 4 18.9375 L 5 19.9375 L 4 19.9375 L 4 24.5625 C 4 25.0655 4.19375 25.66675 4.59375 25.96875 L 6 27.5 L 6 8.96875 C 6 7.76075 7.1125 6.6625 8.3125 6.5625 L 26.3125 4.9375 L 23.90625 3.34375 C 23.60625 3.11725 23.310937 2.9999531 22.96875 3 z M 26.59375 6.15625 L 8.40625 7.875 C 7.70625 7.875 7 8.57 7 9.375 L 7 13.90625 L 11.40625 13.5 L 11.40625 12.6875 C 11.40625 12.2845 11.69375 11.90625 12.09375 11.90625 L 22.90625 11 C 23.30625 11 23.59375 11.2855 23.59375 11.6875 L 23.59375 12.59375 L 28 12.09375 L 28 7.46875 C 28 6.66375 27.39375 6.15625 26.59375 6.15625 z M 22.6875 11.5 L 20.90625 11.6875 L 20.90625 17.4375 L 21.90625 18.4375 L 20.90625 18.53125 L 20.90625 19.65625 C 20.90625 20.05925 20.5875 20.34375 20.1875 20.34375 L 12.1875 21.0625 L 12.1875 23.0625 C 12.1875 23.2635 12.3 23.375 12.5 23.375 L 21.90625 22.5625 C 22.50625 22.5625 22.90625 22.0415 22.90625 21.4375 L 22.90625 11.90625 C 23.00625 11.60425 22.8875 11.5 22.6875 11.5 z M 28 13.09375 L 23.59375 13.5 L 23.59375 20.5625 L 28 20.15625 L 28 13.09375 z M 11.40625 14.625 L 7 15 L 7 21.96875 L 11.40625 21.5625 L 11.40625 14.625 z M 28 21.15625 L 23.59375 21.5625 L 23.59375 22.5625 C 23.59375 22.9655 23.30625 23.375 22.90625 23.375 L 12.09375 24.28125 C 11.69375 24.28125 11.40625 23.9645 11.40625 23.5625 L 11.40625 22.5625 L 7 22.96875 L 7 27.6875 C 7 28.4925 7.60625 29 8.40625 29 L 26.59375 27.375 C 27.39375 27.274 28 26.68 28 25.875 L 28 21.15625 z" fill="#000000"/></svg>
