<?xml version="1.0" encoding="utf-8"?>
<svg xmlns="http://www.w3.org/2000/svg" viewBox="0 0 32 32" fill="#000000"><path style="text-indent:0;text-align:start;line-height:normal;text-transform:none;block-progression:tb;-inkscape-font-specification:Bitstream Vera Sans" d="M 23.03125 4 C 20.245986 4 18.302464 4.8689573 16.78125 6.21875 C 13.452658 5.5829117 10.356539 7.7704496 9.75 10.90625 C 8.1213589 11.423823 6.8383109 12.353557 6.125 13.625 C 5.3957458 14.924861 5.2379293 16.449167 5.46875 17.96875 C 4.4362859 19.364022 4 21.207473 4 22.96875 C 4 24.424335 4.4213223 26.062075 5.75 27.1875 L 5.71875 27.21875 C 5.736095 27.23613 5.763516 27.23325 5.78125 27.25 C 5.791891 27.26005 5.801723 27.27142 5.8125 27.28125 C 6.5740893 27.975799 7.669013 28.115666 8.65625 27.875 C 9.6807412 27.625252 10.710584 27.062524 11.84375 26.28125 C 14.110082 24.718701 16.745269 22.268519 19.5625 19.5 C 21.82039 17.237104 23.881598 15.132531 25.40625 13.21875 C 26.930902 11.304969 28 9.5670421 28 7.75 C 28 6.5020441 27.194174 5.5084923 26.25 4.90625 C 25.305826 4.3040077 24.162863 4 23.03125 4 z M 23.03125 6 C 23.769637 6 24.619174 6.2312423 25.1875 6.59375 C 25.755826 6.9562577 26 7.3449559 26 7.75 C 26 8.6889579 25.261598 10.189031 23.84375 11.96875 C 22.425902 13.748469 20.40836 15.805396 18.15625 18.0625 C 15.363481 20.806981 12.769918 23.210799 10.71875 24.625 C 9.6931662 25.332101 8.8026963 25.787529 8.1875 25.9375 C 7.5723037 26.087471 7.3518164 26.008525 7.125 25.78125 L 7.09375 25.75 L 7.0625 25.71875 C 6.2671101 25.080992 6 24.125461 6 22.96875 C 6 21.61351 6.3706621 20.143971 6.9375 19.25 C 8.340572 19.481811 9.59375 20.5 9.59375 20.5 L 10.90625 19 C 10.90625 19 9.4413965 17.596924 7.34375 17.25 C 7.2706401 16.263775 7.4542972 15.343634 7.875 14.59375 C 8.3920823 13.672075 9.2677024 12.966887 10.6875 12.625 C 12.67097 12.711705 14.1875 14.0625 14.1875 14.0625 L 15.5625 12.59375 C 15.5625 12.59375 14.029181 11.141689 11.71875 10.71875 C 12.405049 8.8583437 14.601684 7.5201121 16.78125 8.15625 C 17.328488 8.3059366 18.135257 8.7935183 18.71875 9.25 C 19.302243 9.7064817 19.6875 10.09375 19.6875 10.09375 L 21.09375 8.6875 C 21.09375 8.6875 20.624257 8.1935183 19.9375 7.65625 C 19.646021 7.4282178 19.300397 7.1938824 18.9375 6.96875 C 19.935523 6.3378201 21.166423 6 23.03125 6 z" overflow="visible" font-family="Bitstream Vera Sans" fill="#000000"/></svg>
