<?xml version="1.0" encoding="utf-8"?>
<svg xmlns="http://www.w3.org/2000/svg" viewBox="0 0 32 32" fill="#000000"><path style="text-indent:0;text-align:start;line-height:normal;text-transform:none;block-progression:tb;-inkscape-font-specification:Sans" d="M 11.0625 3 C 10.959498 3.0159063 10.881375 3.044375 10.78125 3.09375 C 9.98025 3.48875 9.61275 4.854 9.96875 6.125 C 10.32475 7.396 11.2615 8.11375 12.0625 7.71875 C 12.8635 7.32375 13.232 5.9585 12.875 4.6875 C 12.5635 3.575375 11.783514 2.8886562 11.0625 3 z M 14.90625 4 C 14.287144 3.973727 13.753476 4.6191982 13.71875 5.4375 C 13.684024 6.2558018 14.162144 6.942477 14.78125 6.96875 C 15.400357 6.995023 15.902774 6.3495518 15.9375 5.53125 C 15.972226 4.7129482 15.525357 4.026273 14.90625 4 z M 17.6875 5 C 17.217544 4.9777009 16.718029 5.3913063 16.5 6.03125 C 16.250824 6.7626143 16.481406 7.5108149 17 7.6875 C 17.518595 7.8641855 18.125824 7.4188643 18.375 6.6875 C 18.624176 5.9561357 18.424845 5.2079355 17.90625 5.03125 C 17.841426 5.0091644 17.754637 5.0031856 17.6875 5 z M 19.75 6.6875 C 19.347563 6.6686112 18.900982 6.9237544 18.625 7.375 C 18.257024 7.9766608 18.348887 8.7164537 18.8125 9 C 19.276114 9.2835469 19.944524 9.0079108 20.3125 8.40625 C 20.680476 7.8045892 20.588614 7.0960469 20.125 6.8125 C 20.009097 6.7416134 19.884146 6.6937963 19.75 6.6875 z M 21.40625 8.9375 C 21.058688 8.8689407 20.650251 9.0464939 20.34375 9.40625 C 19.935081 9.8859248 19.888037 10.535368 20.25 10.84375 C 20.611963 11.152132 21.247581 11.010925 21.65625 10.53125 C 22.064919 10.051575 22.080713 9.4021316 21.71875 9.09375 C 21.628259 9.0166546 21.522104 8.9603531 21.40625 8.9375 z M 13.15625 9 C 12.660035 9.0362139 12.032182 9.1690095 11.4375 9.53125 C 10.644591 10.014237 10 11.050123 10 12.375 C 10 14.235339 11.042308 15.336919 11.78125 16.125 C 12.520192 16.913081 13 17.387108 13 18.78125 C 13 19.873327 12.649561 20.328151 12.125 21.15625 C 11.600439 21.984349 10.945995 23.176004 11 24.9375 C 11.02736 25.839254 11.128658 26.811462 11.75 27.65625 C 12.371342 28.501038 13.487889 29 14.90625 29 C 16.086428 29 17.067835 28.330848 17.65625 27.5 C 18.244665 26.669152 18.53125 25.677221 18.53125 24.6875 C 18.53125 22.748433 19.086223 21.568859 19.71875 20.1875 C 20.351277 18.806141 21.069863 17.204018 21 14.90625 C 20.92537 12.45225 19.433357 10.854583 17.84375 10.03125 C 16.254143 9.2079165 14.584285 9 13.59375 9 C 13.459335 9 13.321655 8.9879287 13.15625 9 z M 13.59375 11 C 14.278215 11 15.737857 11.176083 16.90625 11.78125 C 18.074643 12.386417 18.947631 13.24675 19 14.96875 C 19.05714 16.847982 18.535473 18.000859 17.90625 19.375 C 17.277027 20.749141 16.53125 22.345567 16.53125 24.6875 C 16.53125 25.270779 16.337835 25.910848 16.03125 26.34375 C 15.724665 26.776652 15.388072 27 14.90625 27 C 13.884611 27 13.590658 26.761962 13.375 26.46875 C 13.159342 26.175538 13.022641 25.621246 13 24.875 C 12.960005 23.570496 13.313561 23.037651 13.8125 22.25 C 14.311439 21.462349 15 20.390173 15 18.78125 C 15 16.795392 13.979808 15.592919 13.21875 14.78125 C 12.457692 13.969581 12 13.583661 12 12.375 C 12 11.580877 12.194159 11.417263 12.46875 11.25 C 12.743341 11.082737 13.235408 11 13.59375 11 z" overflow="visible" font-family="Sans" fill="#000000"/></svg>
