<?xml version="1.0" encoding="utf-8"?>
<svg xmlns="http://www.w3.org/2000/svg" viewBox="0 0 32 32" fill="#000000"><path style="text-indent:0;text-align:start;line-height:normal;text-transform:none;block-progression:tb;-inkscape-font-specification:Sans" d="M 6 5 L 6 6 L 6 21 L 3 21 L 3 23 L 6 23 L 6 27 L 8 27 L 8 23 L 10 23 L 11 23 L 20 23 L 24 23 L 24 27 L 26 27 L 26 23 L 29 23 L 29 21 L 24 21 L 24.96875 20.75 L 21.96875 8.75 L 20.03125 9.25 L 22.96875 21 L 20 21 L 20 9 L 20 8 L 19 8 L 16 8 L 16 6 L 16 5 L 15 5 L 11 5 L 7 5 L 6 5 z M 8 7 L 10 7 L 10 21 L 8 21 L 8 7 z M 12 7 L 14 7 L 14 8 L 14 9 L 14 21 L 12 21 L 12 7 z M 16 10 L 18 10 L 18 21 L 16 21 L 16 10 z" fill="#000000"/></svg>
