<?xml version="1.0" encoding="utf-8"?>
<svg xmlns="http://www.w3.org/2000/svg" viewBox="0 0 32 32" fill="#000000"><path style="text-indent:0;text-align:start;line-height:normal;text-transform:none;block-progression:tb;-inkscape-font-specification:Bitstream Vera Sans" d="M 4 5 L 4 6 L 4 26 L 4 27 L 5 27 L 27 27 L 28 27 L 28 26 L 28 6 L 28 5 L 27 5 L 5 5 L 4 5 z M 6 7 L 26 7 L 26 9 L 6 9 L 6 7 z M 6 11 L 26 11 L 26 25 L 6 25 L 6 11 z M 12 14 C 10.35503 14 9 15.35503 9 17 L 9 19 C 9 20.64497 10.35503 22 12 22 C 13.64497 22 15 20.64497 15 19 L 13 19 C 13 19.56503 12.56503 20 12 20 C 11.43497 20 11 19.56503 11 19 L 11 17 C 11 16.43497 11.43497 16 12 16 C 12.56503 16 13 16.43497 13 17 L 15 17 C 15 15.35503 13.64497 14 12 14 z M 19 14 L 21.875 22 L 23.875 22 L 21 14 L 19 14 z M 16 15 L 16 17 L 18 17 L 18 15 L 16 15 z M 16 19 L 16 21 L 18 21 L 18 19 L 16 19 z" overflow="visible" font-family="Bitstream Vera Sans" fill="#000000"/></svg>
