<?xml version="1.0" encoding="utf-8"?>
<svg xmlns="http://www.w3.org/2000/svg" viewBox="0 0 32 32" fill="#000000"><path style="text-indent:0;text-align:start;line-height:normal;text-transform:none;block-progression:tb;-inkscape-font-specification:Sans" d="M 16 3 C 15.075541 3 14.053783 3.2703999 13.1875 3.53125 C 12.336997 3.7873485 11.712017 4.0532345 11.6875 4.0625 C 11.687045 4.0626719 11.65625 4.0625 11.65625 4.0625 L 8.78125 5.03125 L 8.6875 5.0625 C 8.6290928 5.0762934 8.5369352 5.1064363 8.3125 5.1875 L 8 5.28125 L 8 5.3125 C 7.1643633 5.6719874 5.856581 6.4482812 5.09375 8.0625 C 4.0593967 10.251266 4 12.96875 4 12.96875 L 4 13 L 4 14 L 4 15 L 5 15 L 8 15 L 8 28 L 8 29 L 9 29 L 23 29 L 24 29 L 24 28 L 24 15 L 27 15 L 28 15 L 28 14 L 28 13 L 28 12.96875 L 28 12.90625 C 28 12.90625 27.91536 12.056747 27.75 11.03125 C 27.584639 10.005753 27.416777 8.8692203 26.84375 7.96875 C 25.909278 6.4989481 24.749644 5.7542971 24 5.375 L 24 5.28125 L 23.59375 5.15625 C 23.533713 5.1305619 23.54614 5.142879 23.5 5.125 L 23.3125 5.0625 L 20.34375 4.0625 C 20.34375 4.0625 20.31295 4.0626719 20.3125 4.0625 C 20.28798 4.05323 19.663003 3.7873485 18.8125 3.53125 C 17.946217 3.2703999 16.924459 3 16 3 z M 16 5 C 16.433541 5 17.424533 5.2296001 18.21875 5.46875 C 18.42638 5.5312702 18.415548 5.5364668 18.59375 5.59375 C 18.531223 5.6884661 18.486073 5.7754904 18.40625 5.875 C 17.939447 6.4569276 17.279725 7 16 7 C 14.720275 7 14.060553 6.4569276 13.59375 5.875 C 13.513927 5.7754904 13.468777 5.6884661 13.40625 5.59375 C 13.584452 5.5364668 13.57362 5.5312702 13.78125 5.46875 C 14.575467 5.2296001 15.566459 5 16 5 z M 11.4375 6.21875 C 11.58741 6.5031143 11.778046 6.8093504 12.03125 7.125 C 12.767697 8.0430724 14.092725 9 16 9 C 17.907275 9 19.232303 8.0430724 19.96875 7.125 C 20.221954 6.8093504 20.41259 6.5031143 20.5625 6.21875 L 22 6.71875 L 22 27 L 10 27 L 10 6.71875 L 11.4375 6.21875 z M 8 7.5625 L 8 13 L 6 13 C 6.00318 12.94705 6.1567425 10.523511 6.90625 8.9375 C 7.2074384 8.3001585 7.6050922 7.8610984 8 7.5625 z M 24 7.71875 C 24.365521 8.0263207 24.773444 8.4291466 25.15625 9.03125 C 25.318223 9.2857797 25.630361 10.407997 25.78125 11.34375 C 25.92418 12.230145 25.993558 12.921721 26 13 L 24 13 L 24 7.71875 z" overflow="visible" font-family="Sans" fill="#000000"/></svg>
