<?xml version="1.0" encoding="utf-8"?>
<svg xmlns="http://www.w3.org/2000/svg" viewBox="0 0 32 32" fill="#000000"><path style="text-indent:0;text-align:start;line-height:normal;text-transform:none;block-progression:tb;-inkscape-font-specification:Sans" d="M 16 4 C 9.383 4 4 9.383 4 16 C 4 21.579 7.833 26.25675 13 27.59375 L 13 25.53125 C 8.947 24.25425 6 20.469 6 16 C 6 10.486 10.486 6 16 6 C 21.514 6 26 10.486 26 16 C 26 20.469 23.053 24.25425 19 25.53125 L 19 27.59375 C 24.167 26.25675 28 21.579 28 16 C 28 9.383 22.617 4 16 4 z M 16 11.96875 L 15.28125 12.65625 L 11.28125 16.65625 L 12.71875 18.09375 L 15 15.8125 L 15 28 L 17 28 L 17 15.8125 L 19.28125 18.09375 L 20.71875 16.65625 L 16.71875 12.65625 L 16 11.96875 z" overflow="visible" font-family="Sans" fill="#000000"/></svg>
