<?xml version="1.0" encoding="utf-8"?>
<svg xmlns="http://www.w3.org/2000/svg" viewBox="0 0 32 32" fill="#000000"><path d="M 7.03125 2 L 7.03125 5.78125 C 7.26925 5.95025 7.428 6.154 7.5 6.25 C 7.521 6.28 7.55275 6.33 7.59375 6.375 C 7.96075 6.78 8.44025 7.2635 9.03125 7.8125 L 9.03125 4 L 23.03125 4 L 23.03125 14.28125 C 23.80325 14.38025 24.47725 14.43775 25.03125 14.46875 L 25.03125 2 L 7.03125 2 z M 10.09375 5 L 10.09375 5.40625 L 10.34375 5.40625 L 10.34375 7.25 L 10.03125 7.25 L 10.03125 7.625 L 11.21875 7.625 L 11.21875 7.25 L 10.84375 7.25 L 10.84375 6.53125 L 11.09375 6.53125 L 11.09375 6.8125 L 11.40625 6.8125 L 11.40625 5.9375 L 11.09375 5.9375 L 11.09375 6.1875 L 10.84375 6.1875 L 10.84375 5.40625 L 21.0625 5.40625 L 21.0625 5 L 10.09375 5 z M 21.375 5 L 21.375 5.40625 L 21.875 5.40625 L 21.875 5 L 21.375 5 z M 12.1875 5.71875 C 11.937328 5.7711562 11.875 5.934 11.875 6.1875 L 11.875 7.21875 C 11.875 7.58975 12.08825 7.64325 12.53125 7.65625 L 12.5625 7.65625 C 13.0455 7.64425 13.21875 7.601 13.21875 7.25 L 13.21875 6.96875 L 12.75 6.96875 L 12.75 7.125 C 12.75 7.29 12.7635 7.3105 12.5625 7.3125 C 12.4395 7.3135 12.394 7.30125 12.375 7.28125 C 12.367 7.27225 12.34575 7.24275 12.34375 7.21875 C 12.34175 7.19275 12.34275 7.166 12.34375 7.125 C 12.34275 7.126 12.34375 6.8125 12.34375 6.8125 L 13.21875 6.8125 L 13.21875 6.09375 C 13.21875 5.81375 13.0135 5.72075 12.5625 5.71875 L 12.5 5.71875 C 12.37675 5.71925 12.270891 5.7012813 12.1875 5.71875 z M 14.875 5.71875 C 14.753 5.71875 14.6425 5.777 14.5625 5.875 C 14.5225 5.924 14.50075 5.98225 14.46875 6.03125 L 14.4375 6.125 L 14.4375 5.75 L 13.78125 5.75 L 13.78125 6.03125 L 13.9375 6.03125 L 13.9375 7.25 L 13.78125 7.25 L 13.78125 7.59375 L 14.5625 7.59375 L 14.5625 7.25 L 14.4375 7.25 L 14.4375 6.625 C 14.4375 6.603 14.50175 6.47475 14.59375 6.34375 C 14.63875 6.28175 14.68575 6.19525 14.71875 6.15625 L 14.75 6.15625 L 14.75 6.8125 L 15.1875 6.8125 L 15.1875 6.03125 C 15.1875 5.83725 15.075 5.71875 14.875 5.71875 z M 16.71875 5.71875 C 16.59675 5.71875 16.48625 5.777 16.40625 5.875 C 16.36625 5.924 16.3445 5.98225 16.3125 6.03125 L 16.25 6.125 L 16.25 5.75 L 15.59375 5.75 L 15.59375 6.03125 L 15.78125 6.03125 L 15.78125 7.25 L 15.59375 7.25 L 15.59375 7.59375 L 16.40625 7.59375 L 16.40625 7.25 L 16.25 7.25 L 16.25 6.625 C 16.25 6.603 16.3455 6.47475 16.4375 6.34375 C 16.4815 6.28175 16.49825 6.19525 16.53125 6.15625 L 16.5625 6.15625 L 16.5625 6.8125 L 17.03125 6.8125 L 17.03125 6.03125 C 17.03125 5.83725 16.91975 5.71875 16.71875 5.71875 z M 17.875 5.71875 C 17.620891 5.7577031 17.53125 5.866 17.53125 6.15625 L 17.53125 6.34375 L 17.96875 6.34375 L 17.96875 6.1875 C 17.96875 6.0165 17.95925 6.001 18.15625 6 C 18.31525 6.001 18.3125 6.0065 18.3125 6.1875 L 18.3125 6.53125 L 18.09375 6.53125 L 17.9375 6.53125 C 17.5895 6.53325 17.46875 6.7125 17.46875 6.9375 L 17.46875 7.1875 C 17.46875 7.4175 17.637 7.625 17.875 7.625 L 18.96875 7.625 L 18.96875 7.25 L 18.8125 7.25 L 18.8125 7.125 L 18.8125 6.09375 C 18.8125 5.75575 18.6265 5.71975 18.1875 5.71875 C 18.06775 5.71925 17.959703 5.7057656 17.875 5.71875 z M 20.46875 5.71875 C 20.34675 5.71875 20.23625 5.777 20.15625 5.875 C 20.11625 5.924 20.0945 5.98225 20.0625 6.03125 L 20 6.125 L 20 5.75 L 19.34375 5.75 L 19.34375 6.03125 L 19.53125 6.03125 L 19.53125 7.25 L 19.34375 7.25 L 19.34375 7.59375 L 20.15625 7.59375 L 20.15625 7.25 L 20 7.25 L 20 6.625 C 20 6.603 20.0955 6.47475 20.1875 6.34375 C 20.2315 6.28175 20.24825 6.19525 20.28125 6.15625 L 20.3125 6.15625 L 20.3125 6.8125 L 20.78125 6.8125 L 20.78125 6.03125 C 20.78125 5.83725 20.66875 5.71875 20.46875 5.71875 z M 21.21875 5.75 L 21.21875 6.03125 L 21.375 6.03125 L 21.375 7.25 L 21.21875 7.25 L 21.21875 7.625 L 22.03125 7.625 L 22.03125 7.25 L 21.875 7.25 L 21.875 5.75 L 21.21875 5.75 z M 12.4375 6 L 12.625 6 C 12.695 6.001 12.75 6.04275 12.75 6.09375 L 12.75 6.59375 L 12.34375 6.59375 L 12.34375 6.125 C 12.34375 6.039 12.3545 6 12.4375 6 z M 18.03125 6.78125 L 18.1875 6.78125 L 18.3125 6.78125 L 18.3125 6.96875 L 18.3125 7.15625 C 18.3125 7.28025 18.2635 7.3125 18.1875 7.3125 L 18.03125 7.3125 C 17.94825 7.3105 17.9375 7.24325 17.9375 7.15625 L 17.9375 6.9375 C 17.9375 6.8525 17.96225 6.78125 18.03125 6.78125 z M 6.15625 7 C 6.1325313 6.9904063 6.0925 7.014 6.0625 7.03125 C 5.9565 7.09225 6.0685 7.216 6.1875 7.5 C 6.7915 8.954 8.79225 13.6595 9.78125 17.3125 C 11.09925 22.1835 10.33875 28.69175 10.09375 30.46875 C 10.05075 30.78175 9.97175 30.97 10.09375 31 C 10.21075 31.029 10.26 30.81425 10.375 30.53125 C 11.013 28.96225 13.7665 24.31925 16.6875 21.53125 C 20.4735 17.91625 25.94925 16.5145 27.53125 16.1875 C 27.81325 16.1305 28.04625 16.108 28.03125 16 C 28.01825 15.888 27.82125 15.94175 27.53125 15.96875 C 25.74425 16.13475 20.51375 15.981 15.34375 13.75 C 10.60175 11.704 7.48875 8.501 6.46875 7.375 C 6.28875 7.17775 6.2274062 7.0287812 6.15625 7 z M 14.375 8.40625 C 14.169 8.41025 13.98775 8.42975 13.84375 8.46875 C 13.69775 8.50675 13.56875 8.548 13.46875 8.625 C 13.38875 8.689 13.32725 8.772 13.28125 8.875 C 13.23425 8.976 13.21875 9.0725 13.21875 9.1875 C 13.21875 9.3015 13.23725 9.42625 13.28125 9.53125 C 13.32525 9.63425 13.3645 9.72125 13.4375 9.78125 C 13.6205 9.93325 13.9125 9.999 14.3125 10 C 14.6625 10.001 14.95325 9.9335 15.15625 9.8125 C 15.37025 9.6845 15.46875 9.50075 15.46875 9.21875 C 15.46975 8.99075 15.41025 8.78625 15.28125 8.65625 C 15.10525 8.47925 14.817 8.40825 14.375 8.40625 z M 10.03125 8.4375 L 10.625 9.96875 L 11.09375 9.96875 L 11.5625 8.71875 L 12.03125 9.96875 L 12.5 9.96875 L 13.09375 8.4375 L 12.71875 8.4375 L 12.28125 9.71875 L 11.8125 8.4375 L 11.34375 8.4375 L 10.875 9.71875 L 10.4375 8.4375 L 10.03125 8.4375 z M 15.84375 8.4375 L 15.84375 9.96875 L 16.21875 9.96875 L 16.21875 9.3125 L 16.59375 9.3125 C 16.87275 9.3135 17.0735 9.34425 17.1875 9.40625 C 17.3025 9.46825 17.38325 9.584 17.40625 9.75 C 17.42025 9.85 17.4325 9.9195 17.4375 9.9375 C 17.4395 9.9535 17.4225 9.95175 17.4375 9.96875 L 17.84375 9.96875 C 17.82375 9.94275 17.78625 9.92325 17.78125 9.90625 C 17.77625 9.88625 17.78925 9.845 17.78125 9.75 C 17.76625 9.603 17.71425 9.5025 17.65625 9.4375 C 17.59925 9.3755 17.50075 9.297 17.34375 9.25 C 17.46575 9.228 17.552 9.19625 17.625 9.15625 C 17.755 9.08125 17.8135 8.97775 17.8125 8.84375 C 17.8125 8.76975 17.797 8.71525 17.75 8.65625 C 17.705 8.59325 17.6415 8.536 17.5625 8.5 C 17.4395 8.445 17.2455 8.4385 16.9375 8.4375 L 15.84375 8.4375 z M 18.1875 8.4375 L 18.1875 9.34375 C 18.1875 9.46375 18.22 9.58725 18.25 9.65625 C 18.28 9.72725 18.33225 9.7635 18.40625 9.8125 C 18.48725 9.8685 18.5785 9.9145 18.6875 9.9375 C 18.7955 9.9585 18.942 9.96975 19.125 9.96875 L 19.6875 9.96875 L 19.6875 9.78125 L 19.1875 9.78125 C 18.9575 9.78425 18.7945 9.7605 18.6875 9.6875 C 18.6485 9.6585 18.61075 9.6155 18.59375 9.5625 C 18.57775 9.5115 18.5625 9.4115 18.5625 9.3125 L 18.5625 8.4375 L 18.1875 8.4375 z M 19.96875 8.4375 L 19.96875 9.96875 L 20.90625 9.96875 C 21.10325 9.96975 21.24775 9.98075 21.34375 9.96875 C 21.43875 9.95675 21.50575 9.911 21.59375 9.875 C 21.87675 9.757 22.03125 9.5325 22.03125 9.1875 C 22.03025 9.0155 21.98925 8.86 21.90625 8.75 C 21.78525 8.596 21.62125 8.51475 21.40625 8.46875 C 21.29125 8.44575 21.09275 8.4375 20.84375 8.4375 L 19.96875 8.4375 z M 14.34375 8.59375 C 14.62575 8.59475 14.85275 8.66125 14.96875 8.78125 C 15.05275 8.87125 15.09375 9.02475 15.09375 9.21875 C 15.09375 9.37875 15.057 9.4805 15 9.5625 C 14.895 9.7145 14.66775 9.8125 14.34375 9.8125 C 14.05875 9.8135 13.864 9.739 13.75 9.625 C 13.652 9.528 13.59375 9.3795 13.59375 9.1875 C 13.59375 9.0265 13.65175 8.9025 13.71875 8.8125 C 13.82675 8.6645 14.02075 8.59275 14.34375 8.59375 z M 16.21875 8.625 L 16.90625 8.625 C 17.10425 8.624 17.22525 8.63225 17.28125 8.65625 C 17.38025 8.69625 17.4375 8.771 17.4375 8.875 C 17.4385 8.965 17.37225 9.0175 17.28125 9.0625 C 17.21625 9.0945 17.10425 9.125 16.90625 9.125 L 16.21875 9.125 L 16.21875 8.625 z M 20.34375 8.625 L 20.90625 8.625 C 21.05325 8.625 21.162 8.63425 21.25 8.65625 C 21.335 8.67825 21.41475 8.698 21.46875 8.75 C 21.57975 8.854 21.623 9.01775 21.625 9.21875 C 21.625 9.39675 21.596 9.531 21.5 9.625 C 21.393 9.727 21.2045 9.78125 20.9375 9.78125 L 20.34375 9.78125 L 20.34375 8.625 z M 7.03125 13.6875 L 7.03125 30 L 8.65625 30 C 8.79525 28.941 9.00325 26.8965 9.03125 24.5625 L 9.03125 23.625 C 9.00825 21.643 8.84375 19.5335 8.34375 17.6875 C 8.00075 16.4215 7.51925 15.0265 7.03125 13.6875 z M 13 15.59375 L 15.0625 15.90625 L 16.90625 16.96875 L 16.34375 18.5 C 16.18775 18.957 15.39 20.85325 13.25 21.28125 C 11.835 19.59125 12.343 17.583 12.5 17.125 L 13 15.59375 z M 14.875 16.65625 C 14.872 16.65725 14.85975 16.6695 14.84375 16.6875 C 14.82675 16.7065 14.84175 16.74 14.84375 16.75 C 14.84675 16.761 14.8315 16.77725 14.8125 16.78125 C 14.7945 16.78525 14.78125 16.75 14.78125 16.75 C 14.78125 16.75 14.762 16.762 14.75 16.75 C 14.738 16.738 14.71875 16.71875 14.71875 16.71875 C 14.71875 16.71875 14.7075 16.6915 14.6875 16.6875 C 14.6675 16.6825 14.639 16.6905 14.625 16.6875 C 14.63 16.692 14.618625 16.715125 14.625 16.71875 C 14.6315 16.723375 14.6165 16.744 14.625 16.75 C 14.638 16.759 14.63425 16.77025 14.65625 16.78125 C 14.66125 16.78325 14.6905 16.77625 14.6875 16.78125 C 14.6945 16.78225 14.6905 16.8055 14.6875 16.8125 C 14.6685 16.8115 14.644 16.8125 14.625 16.8125 C 14.581 16.8145 14.57525 16.83875 14.53125 16.84375 C 14.48925 16.84975 14.40625 16.84375 14.40625 16.84375 C 14.40625 16.84375 14.401 16.84675 14.375 16.84375 C 14.348 16.84075 14.3295 16.84775 14.3125 16.84375 C 14.2945 16.83975 14.29825 16.8095 14.28125 16.8125 C 14.27025 16.8145 14.26 16.83875 14.25 16.84375 L 14.21875 16.875 L 14.1875 16.875 C 14.1815 16.881 14.1915 16.89925 14.1875 16.90625 C 14.1775 16.92325 14.15925 16.94875 14.15625 16.96875 L 14.15625 17 C 14.15625 17 14.20275 16.999 14.21875 17 C 14.23375 17.002 14.25 17 14.25 17 C 14.25 17 14.27925 17 14.28125 17 C 14.279375 17.002 14.28125 17.03125 14.28125 17.03125 L 14.25 17.03125 C 14.248 17.03025 14.21875 17.03125 14.21875 17.03125 C 14.22075 17.033625 14.21575 17.0595 14.21875 17.0625 C 14.23475 17.0685 14.26425 17.0645 14.28125 17.0625 C 14.29625 17.0605 14.2935 17.0625 14.3125 17.0625 C 14.3175 17.0635 14.33775 17.0625 14.34375 17.0625 C 14.37375 17.0695 14.37825 17.11 14.40625 17.125 C 14.43425 17.141 14.44175 17.14125 14.46875 17.15625 C 14.49875 17.17325 14.5285 17.1825 14.5625 17.1875 C 14.5805 17.1895 14.59075 17.20075 14.59375 17.21875 C 14.59375 17.21875 14.5845 17.25525 14.5625 17.28125 C 14.5415 17.30725 14.46875 17.34375 14.46875 17.34375 L 14.4375 17.40625 C 14.4375 17.40625 14.40275 17.43475 14.34375 17.46875 C 14.28375 17.50275 14.28125 17.5 14.28125 17.5 C 14.28125 17.5 14.25275 17.50925 14.21875 17.53125 C 14.18475 17.55325 14.18425 17.5475 14.15625 17.5625 C 14.13825 17.5725 14.11475 17.58975 14.09375 17.59375 C 14.07275 17.59775 14.068 17.57375 14 17.59375 C 13.942 17.60975 13.90925 17.627 13.90625 17.625 C 13.90325 17.623 13.879 17.63 13.875 17.625 C 13.871 17.62 13.8125 17.5 13.8125 17.5 L 13.78125 17.46875 L 13.78125 17.4375 C 13.78125 17.4375 13.762 17.42825 13.75 17.40625 C 13.738 17.38525 13.7125 17.36075 13.6875 17.34375 C 13.6635 17.32775 13.654 17.3125 13.625 17.3125 C 13.606 17.3115 13.5795 17.3035 13.5625 17.3125 C 13.5415 17.3215 13.55025 17.32875 13.53125 17.34375 C 13.51325 17.35675 13.47775 17.39725 13.46875 17.40625 C 13.45875 17.41325 13.4375 17.40625 13.4375 17.40625 C 13.4375 17.40625 13.404 17.473 13.375 17.5 C 13.343 17.529 13.31225 17.5335 13.28125 17.5625 C 13.23225 17.6065 13.17625 17.6675 13.15625 17.6875 C 13.15625 17.6875 13.129 17.71075 13.125 17.71875 C 13.121 17.72775 13.128 17.743 13.125 17.75 C 13.121 17.756 13.09475 17.749 13.09375 17.75 C 13.09175 17.752 13.0765 17.7905 13.0625 17.8125 C 13.0475 17.8345 13.01725 17.9215 13.03125 17.9375 C 13.04525 17.9525 13.18375 17.924 13.21875 17.875 C 13.23975 17.844 13.19575 17.80925 13.21875 17.78125 C 13.22575 17.77325 13.24 17.79025 13.25 17.78125 C 13.253077 17.778788 13.278548 17.784928 13.28125 17.78125 C 13.28125 17.78125 13.28725 17.84525 13.28125 17.90625 C 13.27925 17.92325 13.25 17.9375 13.25 17.9375 L 13.25 18 C 13.25 18 13.22075 18.07375 13.21875 18.09375 C 13.21675 18.11475 13.22075 18.11 13.21875 18.125 C 13.21675 18.151 13.21575 18.1545 13.21875 18.1875 C 13.22075 18.2195 13.21375 18.228 13.21875 18.25 C 13.22175 18.264 13.249 18.26325 13.25 18.28125 C 13.251 18.30025 13.24 18.35725 13.25 18.40625 C 13.262 18.45425 13.2885 18.498 13.3125 18.5 C 13.3365 18.502 13.34375 18.5 13.34375 18.5 C 13.34375 18.5 13.39925 18.41675 13.40625 18.34375 C 13.41425 18.26975 13.33475 18.303 13.34375 18.25 C 13.34575 18.238 13.34375 18.21875 13.34375 18.21875 C 13.34375 18.21875 13.34475 18.1945 13.34375 18.1875 C 13.34275 18.1815 13.33975 18.1045 13.34375 18.0625 C 13.34575 18.0305 13.373 17.93525 13.375 17.90625 C 13.382 17.83025 13.39125 17.85275 13.40625 17.84375 C 13.42025 17.83475 13.4375 17.84375 13.4375 17.84375 C 13.4375 17.84375 13.46375 17.867 13.46875 17.875 L 13.5 17.90625 L 13.53125 17.9375 C 13.53125 17.9375 13.5515 17.989 13.5625 18 C 13.5725 18.007 13.59375 18 13.59375 18 L 13.59375 18.03125 L 13.59375 18.0625 C 13.59375 18.0625 13.625 18.0595 13.625 18.0625 C 13.625 18.0625 13.61925 18.08 13.65625 18.125 C 13.68725 18.161 13.71075 18.1635 13.71875 18.1875 C 13.71975 18.1915 13.745 18.25325 13.75 18.28125 C 13.757 18.31225 13.77825 18.33175 13.78125 18.34375 C 13.78425 18.35575 13.78125 18.4375 13.78125 18.4375 L 13.8125 18.5 L 13.875 18.59375 L 13.90625 18.65625 C 13.90625 18.65625 13.971 18.7715 14 18.8125 C 14.029 18.8505 14.0485 18.9085 14.0625 18.9375 C 14.059078 18.928906 14.03525 18.946 14.03125 18.9375 C 13.99925 18.8685 13.9405 18.77725 13.9375 18.78125 C 13.9155 18.81125 13.91825 18.86425 13.90625 18.90625 C 13.89725 18.93525 13.879 18.961 13.875 19 C 13.871 19.037 13.875 19.05675 13.875 19.09375 C 13.876 19.13075 13.875 19.1875 13.875 19.1875 L 13.90625 19.28125 L 13.90625 19.34375 L 13.90625 19.375 C 13.90625 19.375 13.91725 19.39625 13.90625 19.40625 C 13.89525 19.41625 13.888 19.4395 13.875 19.4375 C 13.861 19.4365 13.8125 19.4375 13.8125 19.4375 L 13.625 19.375 L 13.53125 19.3125 C 13.53125 19.3125 13.52575 19.30025 13.46875 19.28125 C 13.43575 19.27025 13.394 19.28625 13.375 19.28125 C 13.36 19.27725 13.308 19.247 13.25 19.25 C 13.196 19.254 13.153 19.25725 13.125 19.28125 C 13.105 19.30025 13.16275 19.37125 13.21875 19.40625 C 13.30875 19.46325 13.29675 19.388 13.34375 19.375 C 13.34975 19.373 13.369 19.375 13.375 19.375 C 13.403 19.376 13.4115 19.39625 13.4375 19.40625 C 13.4655 19.41525 13.472 19.4305 13.5 19.4375 C 13.648 19.4675 13.84375 19.59375 13.84375 19.59375 C 13.84375 19.59375 13.9085 19.65325 13.9375 19.65625 C 13.9695 19.66025 13.95375 19.639 13.96875 19.625 C 13.98075 19.613 13.994 19.60975 14 19.59375 C 14.004 19.58475 13.999 19.5725 14 19.5625 C 14.004 19.5335 14 19.5 14 19.5 C 14 19.5 13.999 19.4525 14 19.4375 C 14.001 19.4135 13.995 19.399 14 19.375 C 14.0077 19.3316 14.026735 19.326304 14.03125 19.3125 C 14.02025 19.3495 14.03125 19.4375 14.03125 19.4375 C 14.03125 19.4375 14.03025 19.50425 14.03125 19.53125 C 14.03325 19.55825 14.03125 19.59375 14.03125 19.59375 L 14.03125 19.6875 L 14.0625 19.71875 C 14.0625 19.71875 14.04725 19.76125 14.03125 19.78125 C 14.01625 19.80225 13.99375 19.7985 13.96875 19.8125 C 13.89375 19.8565 13.75775 19.9245 13.71875 19.9375 C 13.66375 19.9545 13.66425 19.95975 13.65625 19.96875 C 13.62125 20.01375 13.576 19.98925 13.5 20.03125 C 13.483 20.04125 13.4395 20.06075 13.4375 20.09375 C 13.4365 20.10575 13.56625 20.16325 13.65625 20.15625 C 13.72625 20.15125 13.6615 20.11775 13.6875 20.09375 C 13.7065 20.07475 13.76125 20.0775 13.78125 20.0625 C 13.81425 20.0395 13.7825 20.05025 13.8125 20.03125 C 13.9085 19.97225 13.98 19.93725 14.125 19.90625 C 14.139 19.90325 14.15625 19.90625 14.15625 19.90625 C 14.15625 19.90625 14.1785 19.884 14.1875 19.875 C 14.2005 19.866 14.1815 19.85875 14.1875 19.84375 C 14.1915 19.83475 14.21575 19.8215 14.21875 19.8125 C 14.22075 19.7935 14.22075 19.76 14.21875 19.75 C 14.21575 19.74 14.1845 19.7195 14.1875 19.6875 C 14.1895 19.6545 14.225 19.62275 14.25 19.59375 C 14.275 19.56475 14.3125 19.5625 14.3125 19.5625 L 14.375 19.53125 C 14.375 19.53125 14.474 19.51 14.5 19.5 C 14.525 19.49 14.54975 19.4675 14.59375 19.4375 C 14.64175 19.4015 14.68575 19.3625 14.71875 19.3125 C 14.73075 19.2955 14.75 19.28125 14.75 19.28125 C 14.75175 19.283 14.78125 19.28125 14.78125 19.28125 C 14.78125 19.28125 14.78925 19.2805 14.78125 19.3125 C 14.77225 19.3455 14.75 19.375 14.75 19.375 C 14.75 19.375 14.72975 19.4155 14.71875 19.4375 C 14.722875 19.433875 14.7405 19.4495 14.75 19.4375 C 14.773 19.4065 14.76625 19.393 14.78125 19.375 C 14.78825 19.366 14.8035 19.372 14.8125 19.375 C 14.8125 19.375 14.80225 19.43275 14.78125 19.46875 C 14.76025 19.50275 14.71875 19.5625 14.71875 19.5625 L 14.6875 19.5625 C 14.6875 19.5625 14.66825 19.609 14.65625 19.625 C 14.64975 19.6335 14.659375 19.650125 14.65625 19.65625 C 14.68725 19.62525 14.75 19.59375 14.75 19.59375 C 14.75 19.59375 14.7865 19.5875 14.8125 19.5625 C 14.8365 19.5395 14.875 19.46875 14.875 19.46875 C 14.875 19.46875 14.897178 19.455716 14.90625 19.4375 C 14.90225 19.4515 14.90025 19.49125 14.90625 19.53125 C 14.908338 19.514066 14.9303 19.5192 14.9375 19.5 C 14.9525 19.463 14.95875 19.4555 14.96875 19.4375 C 14.97875 19.4195 14.995 19.43425 15 19.40625 C 15.006 19.37925 15 19.34375 15 19.34375 C 15 19.34375 15.001 19.3165 15 19.3125 C 15 19.3105 15 19.28125 15 19.28125 C 15.004 19.28225 15.03125 19.28125 15.03125 19.28125 C 15.03125 19.28125 15.1 19.28925 15.125 19.28125 C 15.15 19.27325 15.1875 19.25 15.1875 19.25 C 15.1875 19.25 15.226 19.2095 15.25 19.1875 C 15.311 19.1305 15.33175 19.041 15.34375 19 C 15.35575 18.96 15.375 18.90625 15.375 18.90625 C 15.375 18.90625 15.39025 18.8525 15.40625 18.8125 C 15.42325 18.7715 15.4375 18.75 15.4375 18.75 C 15.4375 18.75 15.452 18.68825 15.5 18.65625 C 15.548 18.62325 15.57675 18.62275 15.59375 18.59375 C 15.60875 18.56875 15.61175 18.51725 15.59375 18.53125 C 15.57375 18.54625 15.532 18.56775 15.5 18.59375 C 15.458 18.62775 15.394 18.66225 15.375 18.65625 C 15.363 18.65225 15.375 18.625 15.375 18.625 C 15.375 18.625 15.3945 18.57725 15.4375 18.53125 C 15.4665 18.49925 15.47 18.49075 15.5 18.46875 C 15.529 18.44875 15.5385 18.4625 15.5625 18.4375 C 15.5835 18.4165 15.603 18.41 15.625 18.375 C 15.63 18.366 15.634 18.34675 15.625 18.34375 C 15.612 18.33975 15.551 18.4095 15.5 18.4375 C 15.452 18.4645 15.375 18.46875 15.375 18.46875 C 15.378 18.45775 15.38925 18.43425 15.40625 18.40625 C 15.42325 18.37825 15.42675 18.3485 15.46875 18.3125 C 15.51675 18.2705 15.56775 18.23175 15.59375 18.21875 C 15.576565 18.221565 15.552583 18.212083 15.53125 18.21875 C 15.49225 18.22975 15.4825 18.25325 15.4375 18.28125 C 15.3935 18.30825 15.375 18.3125 15.375 18.3125 C 15.375 18.3125 15.3375 18.33 15.3125 18.375 C 15.2875 18.42 15.28125 18.46875 15.28125 18.46875 C 15.28125 18.46875 15.255 18.50425 15.25 18.53125 C 15.244 18.55825 15.25 18.59375 15.25 18.59375 C 15.25 18.59375 15.254 18.6575 15.25 18.6875 C 15.246 18.7175 15.21875 18.8125 15.21875 18.8125 C 15.21875 18.8125 15.2105 18.8815 15.1875 18.9375 C 15.1635 18.9935 15.138 19.01625 15.125 19.03125 C 15.113 19.04625 15.1005 19.07275 15.0625 19.09375 C 15.0245 19.11575 15 19.125 15 19.125 C 15 19.125 14.9645 19.15225 14.9375 19.15625 C 14.9105 19.16025 14.891 19.15825 14.875 19.15625 C 14.859 19.15425 14.8145 19.125 14.8125 19.125 C 14.8125 19.125 14.8175 19.047 14.8125 19 C 14.8085 18.961 14.78125 18.90625 14.78125 18.90625 C 14.78125 18.90625 14.74675 18.809 14.71875 18.75 C 14.68575 18.681 14.65 18.63275 14.625 18.59375 C 14.617 18.57975 14.59375 18.53125 14.59375 18.53125 C 14.59375 18.53125 14.509 18.38925 14.5 18.28125 C 14.493 18.20825 14.50125 18.16175 14.53125 18.09375 C 14.53545 18.08415 14.556284 18.071308 14.5625 18.0625 C 14.5645 18.0635 14.58075 18.08275 14.59375 18.09375 C 14.60275 18.10075 14.625 18.09375 14.625 18.09375 C 14.625 18.09375 14.65025 18.12 14.65625 18.125 C 14.66525 18.134 14.6875 18.15625 14.6875 18.15625 C 14.6875 18.15625 14.714125 18.149125 14.71875 18.15625 C 14.71875 18.15625 14.75 18.15625 14.75 18.15625 L 14.78125 18.15625 L 14.75 18.09375 C 14.744 18.08175 14.757 18.0725 14.75 18.0625 C 14.753875 18.066 14.78125 18.0625 14.78125 18.0625 L 14.8125 18.09375 C 14.8125 18.09375 14.847 18.114 14.875 18.125 C 14.857 18.116 14.85275 18.0805 14.84375 18.0625 C 14.82675 18.0305 14.8385 18.026 14.8125 18 C 14.8005 17.988 14.78125 17.96875 14.78125 17.96875 C 14.78125 17.96875 14.762096 17.948012 14.75 17.9375 C 14.769 17.9465 14.7955 17.9325 14.8125 17.9375 C 14.8295 17.9415 14.84075 17.96875 14.84375 17.96875 C 14.84675 17.96875 14.866 17.96175 14.875 17.96875 C 14.88 17.97225 14.902875 17.96525 14.90625 17.96875 C 14.89825 17.95175 14.891 17.92025 14.875 17.90625 C 14.858 17.89325 14.84375 17.90625 14.84375 17.90625 L 14.84375 17.875 C 14.84575 17.875 14.863 17.866 14.875 17.875 C 14.881 17.879 14.869375 17.900625 14.875 17.90625 C 14.880625 17.911875 14.90575 17.90575 14.90625 17.90625 C 14.90725 17.90725 14.9195 17.9235 14.9375 17.9375 C 14.9565 17.9495 14.96875 17.96875 14.96875 17.96875 C 14.96875 17.96875 14.997 17.96875 15 17.96875 C 15 17.96875 15.009 17.9425 15 17.9375 C 14.991 17.9335 14.98175 17.92625 14.96875 17.90625 C 14.95575 17.88725 14.9375 17.875 14.9375 17.875 C 14.9375 17.875 14.92825 17.85875 14.90625 17.84375 C 14.88525 17.82975 14.875 17.84375 14.875 17.84375 L 14.875 17.8125 C 14.879 17.815875 14.90625 17.8125 14.90625 17.8125 C 14.89725 17.8005 14.90625 17.75 14.90625 17.75 C 14.91925 17.759 14.9375 17.78125 14.9375 17.78125 L 14.96875 17.8125 C 14.97375 17.8165 14.991 17.83375 15 17.84375 C 15.009 17.85475 14.996 17.867 15 17.875 C 15.002 17.8785 15.02925 17.87125 15.03125 17.875 L 15.03125 17.84375 L 15.03125 17.8125 C 15.03125 17.8125 15.016 17.768 15 17.75 C 14.984 17.732 14.96875 17.71875 14.96875 17.71875 C 14.96275 17.71075 14.9415 17.6975 14.9375 17.6875 C 14.9335 17.6755 14.9425 17.66725 14.9375 17.65625 C 14.9335 17.64665 14.947132 17.634152 14.9375 17.625 C 14.9435 17.63 14.95675 17.617 14.96875 17.625 C 14.97775 17.631 14.96075 17.64925 14.96875 17.65625 C 14.97775 17.66225 14.997 17.65125 15 17.65625 C 15.003 17.66125 14.998 17.6845 15 17.6875 C 15.002 17.6895 15.01325 17.69875 15.03125 17.71875 C 15.04925 17.73775 15.07175 17.77225 15.09375 17.78125 C 15.11075 17.78825 15.125 17.78125 15.125 17.78125 C 15.121 17.77125 15.131 17.755 15.125 17.75 C 15.104 17.731 15.0755 17.7135 15.0625 17.6875 C 15.0615 17.6725 15.0635 17.66625 15.0625 17.65625 C 15.0615 17.64725 15.0625 17.625 15.0625 17.625 C 15.0625 17.625 15.05225 17.5855 15.03125 17.5625 C 15.01025 17.5385 15.003 17.53625 15 17.53125 C 14.996 17.52625 14.96875 17.5 14.96875 17.5 C 14.96875 17.5 14.96875 17.47175 14.96875 17.46875 C 14.97075 17.44975 15.01625 17.488 15.03125 17.5 C 15.05625 17.519 15.0365 17.5435 15.0625 17.5625 C 15.0755 17.5735 15.112 17.5515 15.125 17.5625 C 15.118375 17.553875 15.125 17.53125 15.125 17.53125 C 15.125 17.53125 15.128 17.525 15.125 17.5 C 15.123 17.474 15.0975 17.44125 15.0625 17.40625 C 15.0665 17.411625 15.08825 17.40025 15.09375 17.40625 C 15.09575 17.40825 15.122 17.4365 15.125 17.4375 C 15.129 17.4395 15.15125 17.4345 15.15625 17.4375 C 15.16225 17.4395 15.1875 17.46875 15.1875 17.46875 C 15.1875 17.46875 15.215125 17.46625 15.21875 17.46875 C 15.21875 17.46875 15.2055 17.42225 15.1875 17.40625 C 15.1705 17.39125 15.15625 17.40625 15.15625 17.40625 C 15.15425 17.40425 15.15625 17.375 15.15625 17.375 C 15.15625 17.375 15.133 17.391 15.125 17.375 C 15.116 17.359 15.132 17.35775 15.125 17.34375 C 15.125 17.34375 15.1595 17.33275 15.1875 17.34375 C 15.2155 17.35475 15.25 17.375 15.25 17.375 C 15.241656 17.365484 15.23975 17.32525 15.21875 17.3125 C 15.18975 17.2955 15.1875 17.3125 15.1875 17.3125 C 15.1875 17.3125 15.16525 17.30125 15.15625 17.28125 C 15.14825 17.26025 15.15625 17.21875 15.15625 17.21875 C 15.161802 17.22355 15.1799 17.21395 15.1875 17.21875 C 15.2055 17.22975 15.19875 17.21175 15.21875 17.21875 C 15.22875 17.22275 15.238 17.247 15.25 17.25 C 15.262 17.253 15.27025 17.243 15.28125 17.25 C 15.29525 17.259 15.3005 17.26925 15.3125 17.28125 C 15.3165 17.28575 15.34075 17.278 15.34375 17.28125 C 15.32775 17.25825 15.3315 17.23875 15.3125 17.21875 C 15.2995 17.20675 15.29725 17.1975 15.28125 17.1875 C 15.26925 17.1805 15.262 17.16425 15.25 17.15625 C 15.237 17.14725 15.22875 17.138 15.21875 17.125 C 15.20075 17.104 15.17625 17.11275 15.15625 17.09375 C 15.14325 17.08175 15.125 17.0625 15.125 17.0625 C 15.106 17.0465 15.1575 17.02725 15.1875 17.03125 C 15.2025 17.03225 15.20375 17.02625 15.21875 17.03125 C 15.23075 17.03725 15.234 17.0655 15.25 17.0625 C 15.275 17.0585 15.261 17.009 15.25 17 C 15.233 16.986 15.1875 17 15.1875 17 L 15.125 16.96875 L 15.09375 16.96875 C 15.09375 16.96875 15.09875 16.9515 15.09375 16.9375 C 15.08775 16.9235 15.07025 16.86475 15.03125 16.84375 C 14.99225 16.82475 14.96875 16.8185 14.96875 16.8125 C 14.95275 16.7435 14.92525 16.7245 14.90625 16.6875 C 14.90025 16.6765 14.879 16.65425 14.875 16.65625 z M 15.21875 17.46875 C 15.222375 17.47125 15.21425 17.499 15.21875 17.5 C 15.22675 17.504 15.25 17.5 15.25 17.5 C 15.25 17.5 15.261 17.47475 15.25 17.46875 C 15.239 17.46275 15.21975 17.47075 15.21875 17.46875 z M 14.875 18.125 C 14.904 18.136 14.9265 18.15725 14.9375 18.15625 C 14.943 18.15575 14.93 18.126375 14.9375 18.125 C 14.9105 18.121 14.89 18.133 14.875 18.125 z M 14.71875 18.15625 C 14.723375 18.163375 14.71725 18.186 14.71875 18.1875 C 14.72075 18.1895 14.71875 18.21875 14.71875 18.21875 C 14.71875 18.21875 14.7465 18.214375 14.75 18.21875 C 14.74 18.19775 14.75 18.1875 14.75 18.1875 C 14.75 18.1875 14.71875 18.15625 14.71875 18.15625 z M 14.65625 19.65625 C 14.653125 19.662375 14.626 19.64725 14.625 19.65625 C 14.623 19.67725 14.64725 19.72175 14.65625 19.71875 C 14.66525 19.71675 14.62525 19.68825 14.65625 19.65625 z M 14.625 16.71875 C 14.625 16.71875 14.59375 16.6875 14.59375 16.6875 C 14.57275 16.6815 14.56525 16.6835 14.53125 16.6875 C 14.52725 16.6875 14.51925 16.71775 14.53125 16.71875 C 14.54325 16.71975 14.57775 16.71275 14.59375 16.71875 C 14.59375 16.71875 14.625 16.71875 14.625 16.71875 z M 13.53125 17.53125 C 13.53125 17.53125 13.5495 17.52325 13.5625 17.53125 C 13.5745 17.53825 13.59375 17.53125 13.59375 17.53125 C 13.59575 17.53225 13.59375 17.5625 13.59375 17.5625 L 13.625 17.59375 C 13.625 17.59375 13.619 17.64025 13.625 17.65625 C 13.632 17.67325 13.64625 17.70075 13.65625 17.71875 C 13.66825 17.74075 13.6715 17.75625 13.6875 17.78125 C 13.68275 17.7825 13.67275 17.79925 13.65625 17.78125 C 13.64525 17.76925 13.642 17.73075 13.625 17.71875 C 13.609 17.70775 13.532 17.67225 13.5 17.65625 C 13.466 17.63925 13.46875 17.65625 13.46875 17.65625 C 13.46875 17.65625 13.4615 17.62 13.4375 17.625 C 13.445889 17.620229 13.4284 17.59893 13.4375 17.59375 C 13.4785 17.57075 13.53125 17.53125 13.53125 17.53125 z M 25.03125 18.4375 C 24.41425 18.6485 23.73925 18.90875 23.03125 19.21875 L 23.03125 28 L 13.5 28 C 13.025 28.75 12.6165 29.437 12.3125 30 L 25.03125 30 L 25.03125 18.4375 z M 14.3125 18.9375 C 14.3255 18.9395 14.29725 18.978 14.28125 19 C 14.20925 19.097 14.18 19.08425 14.125 19.15625 C 14.079794 19.215103 14.047762 19.228773 14.03125 19.28125 C 14.05225 19.22125 14.05575 19.20625 14.09375 19.15625 C 14.15175 19.08225 14.197 19.04475 14.25 18.96875 C 14.263 18.94875 14.3005 18.9355 14.3125 18.9375 z M 14.90625 19.3125 C 14.9095 19.31725 14.935 19.3045 14.9375 19.3125 C 14.9425 19.3295 14.9395 19.351 14.9375 19.375 C 14.9369 19.3864 14.90829 19.397658 14.90625 19.40625 C 14.91625 19.37125 14.90625 19.34375 14.90625 19.34375 C 14.90625 19.34375 14.90825 19.3145 14.90625 19.3125 z M 14.6875 19.46875 C 14.6785 19.49475 14.6875 19.53125 14.6875 19.53125 C 14.6915 19.51825 14.70675 19.48675 14.71875 19.46875 C 14.7165 19.474375 14.69 19.46125 14.6875 19.46875 z M 13.0625 19.71875 C 13.0295 19.73575 13.03125 19.75 13.03125 19.75 C 13.03125 19.75 12.995 19.7855 13 19.8125 C 13.007 19.8395 13.00525 19.87525 13.03125 19.90625 C 13.05725 19.93825 13.0625 19.96875 13.0625 19.96875 L 13.125 20 L 13.1875 20.03125 C 13.1875 20.03125 13.22975 20.09425 13.21875 20.15625 C 13.21375 20.18725 13.2175 20.23025 13.1875 20.25 C 13.214965 20.232561 13.265417 20.230417 13.28125 20.1875 C 13.31925 20.0855 13.28125 20.03125 13.28125 20.03125 C 13.28125 20.03125 13.268 19.98675 13.25 19.96875 C 13.232 19.95175 13.1875 19.90625 13.1875 19.90625 L 13.125 19.875 L 13.09375 19.84375 L 13.09375 19.8125 C 13.09375 19.8125 13.05875 19.778 13.09375 19.75 C 13.12775 19.721 13.1875 19.75 13.1875 19.75 C 13.1875 19.75 13.235 19.769125 13.25 19.78125 C 13.243 19.77325 13.25 19.75 13.25 19.75 C 13.25 19.75 13.2165 19.72975 13.1875 19.71875 C 13.1585 19.70775 13.0955 19.70175 13.0625 19.71875 z M 13.25 19.78125 C 13.265 19.793375 13.26625 19.82225 13.28125 19.84375 C 13.31025 19.88575 13.3125 19.90625 13.3125 19.90625 L 13.3125 19.9375 L 13.34375 19.9375 C 13.34375 19.9375 13.33875 19.87075 13.34375 19.84375 C 13.34775 19.81775 13.34375 19.78125 13.34375 19.78125 C 13.33575 19.78825 13.29725 19.78825 13.28125 19.78125 C 13.26425 19.77425 13.258 19.78925 13.25 19.78125 z M 13.1875 20.25 C 13.1575 20.26975 13.1165 20.265 13.0625 20.25 C 12.9565 20.221 12.91125 20.163 12.90625 20.125 C 12.90125 20.087 12.90625 20.0625 12.90625 20.0625 L 12.9375 20.03125 C 12.9375 20.03125 12.95275 20.0585 12.96875 20.0625 C 12.98575 20.0665 13.02625 20.06425 13.03125 20.03125 C 13.03625 19.99725 12.98275 19.97175 12.96875 19.96875 C 12.95375 19.96575 12.906 19.9755 12.875 20.0625 C 12.844 20.1495 12.90625 20.21875 12.90625 20.21875 C 12.90625 20.21875 12.936 20.26125 13 20.28125 C 13.064 20.30025 13.125 20.3125 13.125 20.3125 C 13.125 20.3125 13.149049 20.274415 13.1875 20.25 z M 14.125 20.09375 C 14.097 20.10275 14.02825 20.1165 14.03125 20.1875 C 14.03525 20.2565 14.1585 20.25875 14.1875 20.21875 C 14.1875 20.21875 14.11575 20.2175 14.09375 20.1875 C 14.07175 20.1565 14.121 20.15925 14.125 20.15625 C 14.129 20.15425 14.1475 20.121 14.1875 20.125 C 14.2275 20.13 14.28125 20.15625 14.28125 20.15625 L 14.34375 20.1875 C 14.34375 20.1875 14.374 20.21775 14.375 20.21875 L 14.34375 20.25 C 14.34375 20.25 14.31725 20.2765 14.28125 20.3125 C 14.24425 20.3485 14.21875 20.34375 14.21875 20.34375 C 14.21875 20.34375 14.17725 20.33875 14.15625 20.34375 C 14.14575 20.34625 14.162875 20.371625 14.15625 20.375 C 14.17325 20.376 14.1875 20.40625 14.1875 20.40625 C 14.1875 20.40625 14.143 20.45175 14.125 20.46875 C 14.108 20.48575 14.06625 20.51325 14.03125 20.53125 C 13.99825 20.55025 13.96625 20.5745 13.90625 20.5625 C 13.84625 20.5505 13.8215 20.49175 13.8125 20.46875 C 13.819682 20.488322 13.7945 20.51085 13.8125 20.53125 C 13.8725 20.59925 13.96875 20.625 13.96875 20.625 C 13.96875 20.625 14.02275 20.6025 14.09375 20.5625 C 14.16575 20.5215 14.21875 20.46875 14.21875 20.46875 L 14.25 20.4375 L 14.28125 20.4375 C 14.28125 20.4375 14.31675 20.4475 14.34375 20.4375 C 14.35775 20.432 14.33525 20.412125 14.34375 20.40625 C 14.32175 20.40025 14.28125 20.375 14.28125 20.375 L 14.34375 20.34375 C 14.34375 20.34375 14.364 20.29125 14.375 20.28125 C 14.386 20.27225 14.4375 20.25 14.4375 20.25 C 14.4375 20.25 14.5035 20.27425 14.5625 20.28125 C 14.6225 20.28925 14.65625 20.28125 14.65625 20.28125 L 14.71875 20.28125 L 14.75 20.28125 L 14.75 20.25 C 14.753 20.254 14.68975 20.272 14.59375 20.25 C 14.49775 20.228 14.4375 20.1875 14.4375 20.1875 L 14.34375 20.125 C 14.34375 20.125 14.30625 20.10275 14.28125 20.09375 C 14.25625 20.08475 14.21875 20.09375 14.21875 20.09375 C 14.21875 20.09375 14.154 20.08475 14.125 20.09375 z M 13.8125 20.46875 C 13.8035 20.44475 13.8055 20.42725 13.8125 20.40625 C 13.8185 20.38525 13.84375 20.34375 13.84375 20.34375 C 13.84375 20.34375 13.857 20.369 13.875 20.375 C 13.894 20.382 13.9265 20.37775 13.9375 20.34375 C 13.9485 20.30975 13.90625 20.28125 13.90625 20.28125 C 13.90625 20.28125 13.8555 20.2685 13.8125 20.3125 C 13.7695 20.3565 13.78125 20.40625 13.78125 20.40625 C 13.78125 20.40625 13.795742 20.423082 13.8125 20.46875 z" fill="#000000"/></svg>
