<?xml version="1.0" encoding="utf-8"?>
<svg xmlns="http://www.w3.org/2000/svg" viewBox="0 0 32 32" fill="#000000"><path style="text-indent:0;text-align:start;line-height:normal;text-transform:none;block-progression:tb;-inkscape-font-specification:Bitstream Vera Sans" d="M 8.3125 3 C 6.1672801 3 4 4.680854 4 7.25 C 4 8.8163612 4.7552433 10.115864 5.15625 10.6875 C 3.526963 13.749093 3 17.02711 3 19 L 3 19.5 L 3.40625 19.8125 C 5.7547905 21.589291 7.1734707 23.732371 8.875 25.59375 C 10.576529 27.455129 12.708304 29 16 29 C 19.291696 29 21.423471 27.455129 23.125 25.59375 C 24.826529 23.732371 26.245209 21.589291 28.59375 19.8125 L 29 19.5 L 29 19 C 29 17.02711 28.473037 13.749093 26.84375 10.6875 C 27.244757 10.115864 28 8.8163612 28 7.25 C 28 4.680854 25.83272 3 23.6875 3 C 21.80367 3 20.519765 3.8882834 19.8125 4.5625 C 18.668746 4.2004711 17.402432 4 16 4 C 14.597568 4 13.331254 4.2004711 12.1875 4.5625 C 11.480235 3.8882834 10.19633 3 8.3125 3 z M 8.3125 5 C 9.1019961 5 9.6868015 5.2012939 10.125 5.4375 C 8.6065952 6.2801166 7.3743045 7.4449743 6.40625 8.71875 C 6.1969644 8.2747164 6 7.7534508 6 7.25 C 6 5.801146 7.1897199 5 8.3125 5 z M 23.6875 5 C 24.81028 5 26 5.801146 26 7.25 C 26 7.7534508 25.803036 8.2747164 25.59375 8.71875 C 24.625695 7.4449743 23.393405 6.2801166 21.875 5.4375 C 22.313199 5.2012939 22.898004 5 23.6875 5 z M 14.34375 6.09375 C 14.700994 6.6383364 15.299697 7 16 7 C 16.690625 7 17.296924 6.6569824 17.65625 6.125 C 18.587538 6.2567224 19.43284 6.4867414 20.1875 6.8125 C 20.080514 7.018897 20 7.2514719 20 7.5 C 20 8.3284271 20.671573 9 21.5 9 C 21.977564 9 22.412793 8.7852464 22.6875 8.4375 C 23.52052 9.2028279 24.211047 10.096189 24.78125 11.0625 C 25.186515 11.749295 25.536195 12.471128 25.8125 13.1875 C 25.330907 13.437133 25 13.920101 25 14.5 C 25 15.328427 25.671573 16 26.5 16 C 26.541011 16 26.58482 16.003229 26.625 16 C 26.829842 17.010372 26.915058 17.919573 26.9375 18.625 C 26.885001 18.66795 26.832961 18.706813 26.78125 18.75 C 26.521482 18.303253 26.054011 18 25.5 18 C 24.671573 18 24 18.671573 24 19.5 C 24 20.028122 24.274993 20.482726 24.6875 20.75 C 23.508742 22.007429 22.542388 23.246428 21.625 24.25 C 20.077279 25.943121 18.712304 27 16 27 C 13.287696 27 11.922721 25.943121 10.375 24.25 C 9.4576119 23.246428 8.4912581 22.007429 7.3125 20.75 C 7.7250075 20.482726 8 20.028122 8 19.5 C 8 18.671573 7.3284271 18 6.5 18 C 5.9459894 18 5.4785184 18.303253 5.21875 18.75 C 5.1670387 18.706813 5.1149991 18.66795 5.0625 18.625 C 5.0849419 17.919573 5.1701577 17.010372 5.375 16 C 5.41518 16.003229 5.4589888 16 5.5 16 C 6.3284271 16 7 15.328427 7 14.5 C 7 13.920101 6.6690929 13.437133 6.1875 13.1875 C 6.4638046 12.471128 6.8134848 11.749295 7.21875 11.0625 C 7.7889529 10.096189 8.4794801 9.2028279 9.3125 8.4375 C 9.5872072 8.7852464 10.022436 9 10.5 9 C 11.328427 9 12 8.3284271 12 7.5 C 12 7.2514719 11.919486 7.018897 11.8125 6.8125 C 12.56773 6.4864952 13.408719 6.2227857 14.34375 6.09375 z M 16 9 C 15.447715 9 15 9.4477153 15 10 C 15 10.552285 15.447715 11 16 11 C 16.552285 11 17 10.552285 17 10 C 17 9.4477153 16.552285 9 16 9 z M 9 11 C 9 11 8.257 11.913 8 13 L 10 13 L 10 14 L 11.96875 14 C 11.981721 14.065312 12 14.120641 12 14.1875 C 12 14.432614 11.92094 14.601621 11.71875 14.875 C 11.516555 15.148379 11.200943 15.492449 10.8125 15.875 C 10.035614 16.640103 9 17.764244 9 19.46875 C 9 21.643316 10.875 22.96875 10.875 22.96875 L 12.125 21.40625 C 12.125 21.40625 11 20.330184 11 19.46875 C 11 18.517256 11.464386 17.993397 12.1875 17.28125 C 12.549057 16.925176 12.983445 16.549652 13.34375 16.0625 C 13.704055 15.575348 14 14.935886 14 14.1875 C 14 13.28047 13.607335 12.494153 13.0625 11.9375 C 12.517665 11.380847 11.810055 11 11 11 L 10 11 L 9 11 z M 21 11 C 20.189945 11 19.482335 11.380847 18.9375 11.9375 C 18.392665 12.494153 18 13.28047 18 14.1875 C 18 14.935886 18.295945 15.575348 18.65625 16.0625 C 19.016555 16.549652 19.450943 16.925176 19.8125 17.28125 C 20.535614 17.993397 21 18.517256 21 19.46875 C 21 20.330184 19.875 21.40625 19.875 21.40625 L 21.125 22.96875 C 21.125 22.96875 23 21.643316 23 19.46875 C 23 17.764244 21.964386 16.640103 21.1875 15.875 C 20.799057 15.492449 20.483445 15.148379 20.28125 14.875 C 20.079055 14.601621 20 14.432614 20 14.1875 C 20 14.120641 20.018279 14.065312 20.03125 14 L 22 14 L 22 13 L 24 13 C 23.743 11.913 23 11 23 11 L 22 11 L 21 11 z M 14.1875 18 C 12.676645 18 12.09375 19.4375 12.09375 19.4375 L 13.90625 20.28125 C 13.90625 20.28125 14.114355 20 14.1875 20 C 14.26027 20 14.624706 20.09599 14.90625 20.25 C 15.187794 20.404007 15.40625 20.5625 15.40625 20.5625 L 16 21.03125 L 16.59375 20.5625 C 16.59375 20.5625 16.812206 20.404007 17.09375 20.25 C 17.375294 20.095993 17.739732 20 17.8125 20 C 17.88565 20 18.09375 20.28125 18.09375 20.28125 L 19.90625 19.4375 C 19.90625 19.4375 19.323355 18 17.8125 18 C 17.093268 18 16.545456 18.270007 16.125 18.5 C 16.0486 18.54179 16.06783 18.55302 16 18.59375 C 15.93216 18.55302 15.9514 18.54179 15.875 18.5 C 15.454544 18.270007 14.906732 18 14.1875 18 z M 15 22 C 15 22.463113 14.843027 22.560313 14.40625 22.75 C 13.969473 22.939687 13.313323 23 13 23 L 13 25 C 13.512677 25 14.362027 24.93456 15.21875 24.5625 C 15.486476 24.44623 15.749315 24.277743 16 24.0625 C 16.250685 24.277743 16.513524 24.44623 16.78125 24.5625 C 17.637973 24.934563 18.487323 25 19 25 L 19 23 C 18.686677 23 18.030527 22.939687 17.59375 22.75 C 17.156973 22.560313 17 22.463113 17 22 L 15 22 z" fill="#000000"/></svg>
