<?xml version="1.0" encoding="utf-8"?>
<svg xmlns="http://www.w3.org/2000/svg" viewBox="0 0 32 32" fill="#000000"><path style="text-indent:0;text-align:start;line-height:normal;text-transform:none;block-progression:tb;-inkscape-font-specification:Sans" d="M 15 3 L 15 5.0625 C 9.732372 5.5397858 5.53968 9.7341615 5.0625 15 L 3 15 L 3 17 L 5.0625 17 C 5.53968 22.265839 9.732372 26.460214 15 26.9375 L 15 29 L 17 29 L 17 26.9375 C 22.267628 26.460214 26.46032 22.265839 26.9375 17 L 29 17 L 29 15 L 26.9375 15 C 26.46032 9.7341615 22.267628 5.5397858 17 5.0625 L 17 3 L 15 3 z M 15 7.03125 L 15 9 L 17 9 L 17 7.03125 C 21.190067 7.484321 24.482333 10.808453 24.9375 15 L 23 15 L 23 17 L 24.9375 17 C 24.482333 21.191547 21.190067 24.515679 17 24.96875 L 17 23 L 15 23 L 15 24.96875 C 10.809933 24.515679 7.5176669 21.191547 7.0625 17 L 9 17 L 9 15 L 7.0625 15 C 7.5176669 10.808453 10.809933 7.484321 15 7.03125 z M 13.71875 12.28125 L 12.28125 13.71875 L 14.5625 16 L 12.28125 18.28125 L 13.71875 19.71875 L 16 17.4375 L 18.28125 19.71875 L 19.71875 18.28125 L 17.4375 16 L 19.71875 13.71875 L 18.28125 12.28125 L 16 14.5625 L 13.71875 12.28125 z" fill="#000000"/></svg>
