<?xml version="1.0" encoding="utf-8"?>
<svg xmlns="http://www.w3.org/2000/svg" viewBox="0 0 32 32" fill="#000000"><path d="M 16 4 C 12.190787 4 8.7954561 5.7890772 6.59375 8.5625 L 5 7 L 4 13 L 10 12 L 8 10 C 9.6317913 7.825794 12.142985 6.348821 15 6.0625 L 15 7 L 17 7 L 17 6.0625 C 21.738736 6.5272402 25.504682 10.262856 25.96875 15 L 25 15 L 25 17 L 25.96875 17 C 25.504682 21.737144 21.738736 25.47276 17 25.9375 L 17 25 L 15 25 L 15 25.9375 C 9.9343959 25.440703 6 21.199069 6 16 L 4 16 C 4 22.615466 9.3845336 28 16 28 C 22.615466 28 28 22.615466 28 16 C 28 9.3845336 22.615466 4 16 4 z M 12 12 C 10.044634 12 8 13.788986 8 17 L 8 17.5 C 8 18.869063 9.1309372 20 10.5 20 C 11.869063 20 13 18.869063 13 17.5 C 13 16.130937 11.869063 15 10.5 15 L 10.46875 15 C 10.881823 14.270308 11.479276 14 12 14 L 12 12 z M 16.5 12 C 15.129545 12 14 13.129545 14 14.5 L 14 17.5 C 14 18.870455 15.129545 20 16.5 20 C 17.870455 20 19 18.870455 19 17.5 L 19 14.5 C 19 13.129545 17.870455 12 16.5 12 z M 16.5 14 C 16.779545 14 17 14.220455 17 14.5 L 17 17.5 C 17 17.779545 16.779545 18 16.5 18 C 16.220455 18 16 17.779545 16 17.5 L 16 14.5 C 16 14.220455 16.220455 14 16.5 14 z M 22 14 C 20.906937 14 20 14.906937 20 16 C 20 17.093063 20.906937 18 22 18 L 20 18 C 20 18.432765 20.105456 18.923835 20.46875 19.34375 C 20.832044 19.763665 21.423214 20 22 20 C 23.100848 20 24 19.015768 24 18 C 24 16.906937 23.093063 16 22 16 L 24 16 C 24 15.542601 23.864158 15.084555 23.53125 14.6875 C 23.198342 14.290445 22.618124 14 22 14 z M 10 17 L 10.5 17 C 10.786937 17 11 17.213063 11 17.5 C 11 17.786937 10.786937 18 10.5 18 C 10.213063 18 10 17.786937 10 17.5 L 10 17 z" fill="#000000"/></svg>
