<?xml version="1.0" encoding="utf-8"?>
<svg xmlns="http://www.w3.org/2000/svg" viewBox="0 0 32 32" fill="#000000"><path d="M 16 4 C 12.190787 4 8.7954561 5.7890772 6.59375 8.5625 L 5 7 L 4 13 L 10 12 L 8 10 C 9.6340628 7.8227675 12.136411 6.3455466 15 6.0625 L 15 7 L 17 7 L 17 6.0625 C 21.738751 6.5272417 25.472758 10.261249 25.9375 15 L 25 15 L 25 17 L 25.9375 17 C 25.472758 21.738751 21.738751 25.472758 17 25.9375 L 17 25 L 15 25 L 15 25.9375 C 9.9343959 25.440703 6 21.199069 6 16 L 4 16 C 4 22.615466 9.3845336 28 16 28 C 22.615466 28 28 22.615466 28 16 C 28 9.3845336 22.615466 4 16 4 z M 12.5 12 C 11.130937 12 10 13.130937 10 14.5 L 10 15 L 12 15 L 12 14.5 C 12 14.213063 12.213063 14 12.5 14 C 12.786937 14 13 14.213063 13 14.5 L 13 15.34375 C 13 15.484385 12.94618 15.624908 12.84375 15.71875 L 10.3125 18 L 10 18.3125 L 10 18.75 L 10 19 L 10 20 L 11 20 L 15 20 L 15 18 L 13.3125 18 L 14.1875 17.1875 C 14.705067 16.713342 15 16.043115 15 15.34375 L 15 14.5 C 15 13.130937 13.869063 12 12.5 12 z M 16 12 L 16 16 L 16 17 L 17 17 L 19 17 L 19 20 L 21 20 L 21 12 L 19 12 L 19 15 L 18 15 L 18 12 L 16 12 z" fill="#000000"/></svg>
