<?xml version="1.0" encoding="utf-8"?>
<svg xmlns="http://www.w3.org/2000/svg" viewBox="0 0 32 32" fill="#000000"><path style="text-indent:0;text-align:start;line-height:normal;text-transform:none;block-progression:tb;-inkscape-font-specification:Bitstream Vera Sans" d="M 16 6 C 14.354991 6 13 7.3549901 13 9 C 13 10.64501 14.35499 12 16 12 C 17.64501 12 19 10.64501 19 9 C 19 7.3549901 17.645009 6 16 6 z M 16 8 C 16.564129 8 17 8.4358709 17 9 C 17 9.5641283 16.564128 10 16 10 C 15.435872 10 15 9.5641283 15 9 C 15 8.4358709 15.435871 8 16 8 z M 5 15 L 5 17 L 27 17 L 27 15 L 5 15 z M 16 20 C 14.35499 20 13 21.35499 13 23 C 13 24.64501 14.35499 26 16 26 C 17.64501 26 19 24.64501 19 23 C 19 21.35499 17.64501 20 16 20 z M 16 22 C 16.564128 22 17 22.435872 17 23 C 17 23.564128 16.564128 24 16 24 C 15.435872 24 15 23.564128 15 23 C 15 22.435872 15.435872 22 16 22 z" overflow="visible" font-family="Bitstream Vera Sans" fill="#000000"/></svg>
