<?xml version="1.0" encoding="utf-8"?>
<svg xmlns="http://www.w3.org/2000/svg" viewBox="0 0 32 32" fill="#000000"><path d="M 12 4 C 9.2504839 4 7 6.2504839 7 9 L 7 14 L 6 14 L 6 13 L 4 13 L 4 14 L 3 14 L 3 16 L 4 16 L 4 22.28125 C 3.4031044 22.627293 3 23.260396 3 24 C 3 25.104569 3.8954305 26 5 26 C 6.1045695 26 7 25.104569 7 24 C 7 23.260396 6.5968956 22.627293 6 22.28125 L 6 16 L 7 16 L 7 17 L 8 17 C 7.8125773 17.386141 7.5656524 17.748146 7.46875 18.21875 C 7.3177114 18.952265 7.2258338 19.808506 7.15625 20.71875 C 7.0170824 22.539237 7 24.552877 7 26 L 7 27 L 8 27 L 13.65625 27 C 14.64512 27.624629 15.759046 28 17 28 C 18.24015 28 19.354742 27.61707 20.34375 27 L 26 27 L 27 27 L 27 26 C 27 23.886525 27.02607 22.008201 26.90625 20.40625 C 26.806783 19.0764 26.58443 17.944686 26.09375 17 L 27 17 L 27 9 C 27 6.2504839 24.749516 4 22 4 L 12 4 z M 12 6 L 22 6 C 23.668484 6 25 7.3315161 25 9 L 25 11.78125 C 24.71164 11.204202 24.366841 10.722184 23.96875 10.34375 C 22.928609 9.3549694 21.729359 9.1243034 20.75 9.0625 L 19.875 7.5 L 19.59375 7 L 19 7 C 16.555465 7 13.876521 7.24532 11.6875 8.6875 C 10.579804 9.4172768 9.6493883 10.475814 9 11.875 L 9 9 C 9 7.3315161 10.331516 6 12 6 z M 18.4375 9.0625 L 19.25 10.5 L 19.53125 11 L 20.125 11 C 20.973927 11 21.844857 11.09904 22.5625 11.78125 C 23.280143 12.463457 24 13.89824 24 17 L 24 17.3125 L 24.1875 17.59375 C 24.263738 17.699342 24.337294 17.835323 24.40625 18 L 23 18 C 23 19.722284 22.356112 21.826939 21.25 23.40625 C 20.143888 24.985561 18.664699 26 17 26 C 15.336909 26 13.856619 24.98853 12.75 23.40625 C 11.643381 21.82397 11 19.711045 11 18 C 11 17.556131 11.08518 17.333221 11.21875 17.15625 C 11.352315 16.979279 11.584318 16.826901 11.9375 16.6875 C 12.643864 16.408698 13.835504 16.293318 15.09375 16.1875 C 16.351996 16.081682 17.663507 15.982025 18.84375 15.4375 C 20.023993 14.892975 21 13.660378 21 12 L 19 12 C 19 13.044122 18.726007 13.304462 18.03125 13.625 C 17.336493 13.945538 16.148004 14.083068 14.90625 14.1875 C 13.664496 14.291932 12.356136 14.351239 11.1875 14.8125 C 10.795959 14.967041 10.428078 15.184432 10.09375 15.46875 C 10.373361 12.738165 11.397223 11.255581 12.78125 10.34375 C 14.27119 9.3621411 16.335865 9.1091772 18.4375 9.0625 z M 19.5 17 C 18.671573 17 18 17.671573 18 18.5 C 18 19.328427 18.671573 20 19.5 20 C 20.328427 20 21 19.328427 21 18.5 C 21 17.671573 20.328427 17 19.5 17 z M 14 18 C 13.447715 18 13 18.447715 13 19 C 13 19.552285 13.447715 20 14 20 C 14.552285 20 15 19.552285 15 19 C 15 18.447715 14.552285 18 14 18 z M 24.8125 19.84375 C 24.841153 20.072601 24.887162 20.307294 24.90625 20.5625 C 24.99555 21.756417 24.97022 23.347456 24.96875 25 L 22.5625 25 C 22.672152 24.859679 22.772928 24.708238 22.875 24.5625 C 23.861718 23.153661 24.517363 21.49381 24.8125 19.84375 z M 9.21875 20.09375 C 9.5353211 21.651133 10.188373 23.19203 11.125 24.53125 C 11.235329 24.689002 11.349573 24.848296 11.46875 25 L 9.03125 25 C 9.04069 23.697605 9.050187 22.231182 9.15625 20.84375 C 9.1764539 20.579457 9.1933461 20.341733 9.21875 20.09375 z" fill="#000000"/></svg>
