<?xml version="1.0" encoding="utf-8"?>
<svg xmlns="http://www.w3.org/2000/svg" viewBox="0 0 32 32" fill="#000000"><path style="text-indent:0;text-align:start;line-height:normal;text-transform:none;block-progression:tb;-inkscape-font-specification:Sans" d="M 5 6 C 3.3550302 6 2 7.3550302 2 9 L 2 23 C 2 24.64497 3.3550302 26 5 26 L 27 26 C 28.64497 26 30 24.64497 30 23 L 30 9 C 30 7.3550302 28.64497 6 27 6 L 5 6 z M 5 8 L 27 8 C 27.56503 8 28 8.4349698 28 9 L 28 11 L 5 11 L 5 13 L 28 13 L 28 23 C 28 23.56503 27.56503 24 27 24 L 5 24 C 4.4349698 24 4 23.56503 4 23 L 4 9 C 4 8.4349698 4.4349698 8 5 8 z M 9.5 15 C 8.1309372 15 7 16.130937 7 17.5 L 7 20.5 C 7 21.869063 8.1309372 23 9.5 23 C 10.869063 23 12 21.869063 12 20.5 L 12 20 L 10 20 L 10 20.5 C 10 20.786937 9.7869372 21 9.5 21 C 9.2130628 21 9 20.786937 9 20.5 L 9 17.5 C 9 17.213063 9.2130628 17 9.5 17 C 9.7869372 17 10 17.213063 10 17.5 L 10 18 L 12 18 L 12 17.5 C 12 16.130937 10.869063 15 9.5 15 z M 13 15 L 13 16 L 13 16.15625 L 13.0625 16.3125 L 15 22.3125 L 15.21875 23 L 15.9375 23 L 16.0625 23 L 16.78125 23 L 17 22.3125 L 18.9375 16.3125 L 19 16.15625 L 19 16 L 19 15 L 17 15 L 17 15.875 L 16 18.9375 L 15 15.875 L 15 15 L 13 15 z M 20 15 L 20 16 L 20 16.15625 L 20.0625 16.3125 L 22 22.3125 L 22.21875 23 L 22.9375 23 L 23.0625 23 L 23.78125 23 L 24 22.3125 L 25.9375 16.3125 L 26 16.15625 L 26 16 L 26 15 L 24 15 L 24 15.875 L 23 18.9375 L 22 15.875 L 22 15 L 20 15 z" overflow="visible" font-family="Sans" fill="#000000"/></svg>
