<?xml version="1.0" encoding="utf-8"?>
<svg xmlns="http://www.w3.org/2000/svg" viewBox="0 0 32 32" fill="#000000"><path style="text-indent:0;text-align:start;line-height:normal;text-transform:none;block-progression:tb;-inkscape-font-specification:Sans" d="M 17 4 C 14.802666 4 13 5.8026661 13 8 C 13 9.4793946 13.829127 10.778367 15.03125 11.46875 C 15.01195 11.646268 15 11.817576 15 12 C 15 14.749579 17.250421 17 20 17 C 22.749579 17 25 14.749579 25 12 C 25 9.5504952 23.208862 7.4815091 20.875 7.0625 C 20.451997 5.3087945 18.877402 4 17 4 z M 17 6 C 17.812606 6 18.497506 6.4711842 18.8125 7.15625 C 17.502184 7.4815855 16.395303 8.3369764 15.71875 9.46875 C 15.289717 9.108747 15 8.6090719 15 8 C 15 6.8833339 15.883334 6 17 6 z M 20 9 C 21.668699 9 23 10.331301 23 12 C 23 13.668699 21.668699 15 20 15 C 18.331301 15 17 13.668699 17 12 C 17 10.331301 18.331301 9 20 9 z M 11.46875 16 C 8.271505 16 4.03125 17.75 4.03125 17.75 L 4.78125 19.625 C 4.78125 19.625 9.077995 18 11.46875 18 C 12.435582 18 14.090052 18.592787 15.4375 19.28125 C 16.111224 19.625482 16.710704 19.985414 17.15625 20.28125 C 17.379023 20.429168 17.568026 20.560933 17.6875 20.65625 C 17.747237 20.70391 17.79029 20.756738 17.8125 20.78125 L 17.96875 21 C 18.048734 21.223362 18.024596 21.474521 17.875 21.6875 C 17.685322 21.957086 17.343403 22.063736 17.03125 21.96875 L 17 21.96875 L 12.65625 19.875 L 11.8125 21.6875 L 16.25 23.8125 L 16.28125 23.8125 L 16.34375 23.84375 C 17.500594 24.249193 18.794023 23.84715 19.5 22.84375 C 19.897757 22.277464 20.017236 21.611463 19.9375 20.96875 L 24.75 20.15625 C 25.280518 20.06792 25.767979 20.397161 25.9375 20.90625 C 26.117134 21.445683 25.86171 21.990361 25.34375 22.21875 C 23.87857 22.864331 21.523613 23.829548 19.40625 24.625 C 18.347568 25.022726 17.336123 25.373059 16.5625 25.625 C 16.175688 25.750971 15.839869 25.84207 15.59375 25.90625 C 15.347631 25.97043 15.148646 26 15.25 26 C 15.3129 26 14.908277 25.9103 14.4375 25.65625 C 13.966723 25.402196 13.372118 25.031842 12.78125 24.65625 C 12.190382 24.280658 11.58241 23.902931 11 23.59375 C 10.41759 23.284569 9.8950879 23 9.1875 23 C 7.5515726 23 6.09375 23.625 6.09375 23.625 L 6.875 25.46875 C 6.875 25.46875 8.0974274 25 9.1875 25 C 9.161412 25 9.5853167 25.09043 10.0625 25.34375 C 10.539683 25.597069 11.129743 25.969342 11.71875 26.34375 C 12.307757 26.718158 12.897183 27.097804 13.46875 27.40625 C 14.040317 27.714696 14.540101 28 15.25 28 C 15.591354 28 15.785365 27.92417 16.09375 27.84375 C 16.402135 27.76333 16.777046 27.66492 17.1875 27.53125 C 18.008408 27.26391 19.017307 26.904399 20.09375 26.5 C 22.246637 25.691202 24.63243 24.733919 26.15625 24.0625 C 27.602286 23.424889 28.342116 21.746567 27.84375 20.25 C 27.367271 18.819089 25.893732 17.939832 24.40625 18.1875 L 18.9375 19.09375 C 18.9317 19.08905 18.91216 19.09845 18.90625 19.09375 C 18.875753 19.069605 18.843848 19.024947 18.8125 19 L 18.53125 18.78125 L 18.53125 18.8125 C 18.446525 18.74889 18.381574 18.691614 18.28125 18.625 C 17.763296 18.281086 17.087026 17.879768 16.34375 17.5 C 14.857198 16.740463 13.109918 16 11.46875 16 z" overflow="visible" font-family="Sans" fill="#000000"/></svg>
