<?xml version="1.0" encoding="utf-8"?>
<svg xmlns="http://www.w3.org/2000/svg" viewBox="0 0 32 32" fill="#000000"><path style="text-indent:0;text-align:start;line-height:normal;text-transform:none;block-progression:tb;-inkscape-font-specification:Bitstream Vera Sans" d="M 22.3125 2.5 C 21.547026 2.5000215 20.765742 2.7967584 20.1875 3.375 C 19.805626 3.757367 19.567102 4.2270811 19.4375 4.71875 C 19.229503 4.676243 19.02635 4.624994 18.8125 4.625 C 18.047026 4.6250215 17.265742 4.8905084 16.6875 5.46875 C 15.531757 6.6259859 15.531017 8.5310167 16.6875 9.6875 L 18.8125 11.8125 L 11.8125 18.8125 L 9.6875 16.6875 C 9.108882 16.109629 8.3592243 15.812478 7.59375 15.8125 C 6.8282757 15.812522 6.0469916 16.109258 5.46875 16.6875 C 4.7208426 17.436374 4.4671769 18.498811 4.6875 19.46875 C 4.2072843 19.592861 3.7523482 19.810152 3.375 20.1875 C 2.2172702 21.343736 2.2180103 23.24926 3.375 24.40625 L 3.40625 24.4375 L 4.75 25.8125 L 4.0625 26.5 L 5.5 27.9375 L 6.1875 27.25 L 7.59375 28.625 C 8.7509859 29.780743 10.656017 29.781483 11.8125 28.625 C 12.186552 28.250465 12.430489 27.792966 12.5625 27.3125 C 13.52425 27.520714 14.571743 27.272007 15.3125 26.53125 C 16.468243 25.374014 16.468983 23.468983 15.3125 22.3125 L 13.1875 20.1875 L 20.1875 13.1875 L 22.3125 15.3125 C 23.469736 16.468243 25.374767 16.468983 26.53125 15.3125 C 27.271338 14.571456 27.520502 13.524165 27.3125 12.5625 C 27.797256 12.431482 28.247652 12.189848 28.625 11.8125 C 29.78273 10.656264 29.78199 8.7507397 28.625 7.59375 L 27.25 6.1875 L 27.9375 5.5 L 26.5 4.0625 L 25.8125 4.75 L 24.40625 3.375 C 23.827632 2.7971286 23.077974 2.4999785 22.3125 2.5 z M 22.3125 4.5 C 22.562276 4.5000215 22.803618 4.585121 23 4.78125 L 27.21875 9 C 27.61176 9.3930103 27.61102 9.9832359 27.21875 10.375 C 26.827233 10.766517 26.205264 10.767257 25.8125 10.375 L 21.75 6.3125 L 21.625 6.1875 C 21.233483 5.7959833 21.232743 5.1740141 21.625 4.78125 C 21.820758 4.5854916 22.062724 4.4999785 22.3125 4.5 z M 18.8125 6.59375 C 19.062276 6.5937715 19.303618 6.7101214 19.5 6.90625 L 20.1875 7.59375 L 24.40625 11.8125 L 25.09375 12.5 C 25.486311 12.893068 25.486311 13.513182 25.09375 13.90625 C 24.702233 14.297767 24.111514 14.267257 23.71875 13.875 L 23.6875 13.875 L 18.09375 8.28125 C 17.702233 7.8897333 17.732743 7.2990141 18.125 6.90625 C 18.317326 6.7245413 18.571858 6.5937293 18.8125 6.59375 z M 7.59375 17.8125 C 7.8435257 17.812522 8.084868 17.928871 8.28125 18.125 L 8.3125 18.125 L 13.90625 23.71875 C 14.297767 24.110267 14.267257 24.700986 13.875 25.09375 C 13.483048 25.464064 12.885583 25.478836 12.5 25.09375 L 11.8125 24.40625 L 11.6875 24.3125 L 7.59375 20.1875 L 6.90625 19.5 C 6.5136888 19.106932 6.5136888 18.486818 6.90625 18.09375 C 7.1020084 17.897992 7.3439743 17.812478 7.59375 17.8125 z M 5.46875 21.3125 C 5.7185257 21.312522 5.991118 21.428871 6.1875 21.625 L 10.375 25.8125 C 10.766517 26.204017 10.767257 26.825986 10.375 27.21875 C 9.9834833 27.610267 9.3927641 27.611007 9 27.21875 L 4.78125 23 C 4.3882397 22.60699 4.3889798 22.016764 4.78125 21.625 C 4.9770084 21.429242 5.2189743 21.312478 5.46875 21.3125 z" overflow="visible" font-family="Bitstream Vera Sans" fill="#000000"/></svg>
