<?xml version="1.0" encoding="utf-8"?>
<svg xmlns="http://www.w3.org/2000/svg" viewBox="0 0 32 32" fill="#000000"><path style="text-indent:0;text-align:start;line-height:normal;text-transform:none;block-progression:tb;-inkscape-font-specification:Bitstream Vera Sans" d="M 5 5 L 5 6 L 5 26 L 5 27 L 6 27 L 26 27 L 27 27 L 27 26 L 27 6 L 27 5 L 26 5 L 6 5 L 5 5 z M 7 7 L 25 7 L 25 25 L 7 25 L 7 7 z M 12 8 L 9 11 L 12 14 L 12 12 L 15 12 L 15 10 L 12 10 L 12 8 z M 21 11 L 21 13 L 18 13 L 18 15 L 21 15 L 21 17 L 24 14 L 21 11 z M 12 16 L 9 19 L 12 22 L 12 20 L 15 20 L 15 18 L 12 18 L 12 16 z M 21 18 L 21 20 L 18 20 L 18 22 L 21 22 L 21 24 L 24 21 L 21 18 z" fill="#000000"/></svg>
