<?xml version="1.0" encoding="utf-8"?>
<svg xmlns="http://www.w3.org/2000/svg" viewBox="0 0 32 32" fill="#000000"><path style="text-indent:0;text-align:start;line-height:normal;text-transform:none;block-progression:tb;-inkscape-font-specification:Bitstream Vera Sans" d="M 4 5 L 4 6 L 4 26 L 4 27 L 5 27 L 27 27 L 28 27 L 28 26 L 28 6 L 28 5 L 27 5 L 5 5 L 4 5 z M 6 7 L 26 7 L 26 19 L 6 19 L 6 7 z M 6 21 L 26 21 L 26 25 L 6 25 L 6 21 z M 8 22 C 7.4477153 22 7 22.447715 7 23 C 7 23.552285 7.4477153 24 8 24 C 8.5522847 24 9 23.552285 9 23 C 9 22.447715 8.5522847 22 8 22 z M 11 22 C 10.447715 22 10 22.447715 10 23 C 10 23.552285 10.447715 24 11 24 C 11.552285 24 12 23.552285 12 23 C 12 22.447715 11.552285 22 11 22 z M 13 22 L 13 24 L 24 24 L 24 22 L 13 22 z" overflow="visible" font-family="Bitstream Vera Sans" fill="#000000"/></svg>
