<?xml version="1.0" encoding="utf-8"?>
<svg xmlns="http://www.w3.org/2000/svg" viewBox="0 0 32 32" fill="#000000"><path style="text-indent:0;text-align:start;line-height:normal;text-transform:none;block-progression:tb;-inkscape-font-specification:Bitstream Vera Sans" d="M 10.59375 4 L 10.28125 4.28125 L 4.28125 10.28125 L 4 10.59375 L 4 11 L 4 21 L 4 21.40625 L 4.28125 21.71875 L 10.28125 27.71875 L 10.59375 28 L 11 28 L 21 28 L 21.40625 28 L 21.71875 27.71875 L 27.71875 21.71875 L 28 21.40625 L 28 21 L 28 11 L 28 10.59375 L 27.71875 10.28125 L 21.71875 4.28125 L 21.40625 4 L 21 4 L 11 4 L 10.59375 4 z M 11.4375 6 L 20.5625 6 L 26 11.4375 L 26 20.5625 L 20.5625 26 L 11.4375 26 L 6 20.5625 L 6 11.4375 L 11.4375 6 z" overflow="visible" font-family="Bitstream Vera Sans" fill="#000000"/></svg>
