<?xml version="1.0" encoding="utf-8"?>
<svg xmlns="http://www.w3.org/2000/svg" viewBox="0 0 32 32" fill="#000000"><path style="text-indent:0;text-align:start;line-height:normal;text-transform:none;block-progression:tb;-inkscape-font-specification:Sans" d="M 16 4 C 11.824598 4 8.46875 6.15625 8.46875 6.15625 L 8.0625 6.40625 L 8 6.90625 L 6.09375 26 L 4 26 L 4 28 L 5.90625 28 L 26.09375 28 L 28 28 L 28 26 L 25.90625 26 L 24 6.90625 L 23.9375 6.40625 L 23.53125 6.15625 C 23.53125 6.15625 20.175402 4 16 4 z M 16 6 C 19.114775 6 21.527279 7.3466608 22.0625 7.65625 L 22.5 12.15625 C 22.350128 12.066631 22.18732 12 22 12 C 21.447715 12 21 12.447715 21 13 C 21 13.552285 21.447715 14 22 14 C 22.251518 14 22.480519 13.903303 22.65625 13.75 L 23.875 26 L 8.125 26 L 9.34375 13.75 C 9.519481 13.903303 9.7484818 14 10 14 C 10.552285 14 11 13.552285 11 13 C 11 12.447715 10.552285 12 10 12 C 9.8126805 12 9.649872 12.066631 9.5 12.15625 L 9.9375 7.65625 C 10.472721 7.3466608 12.885225 6 16 6 z M 12 9 C 11.447715 9 11 9.4477153 11 10 C 11 10.552285 11.447715 11 12 11 C 12.552285 11 13 10.552285 13 10 C 13 9.4477153 12.552285 9 12 9 z M 16 9 C 15.447715 9 15 9.4477153 15 10 C 15 10.552285 15.447715 11 16 11 C 16.552285 11 17 10.552285 17 10 C 17 9.4477153 16.552285 9 16 9 z M 20 9 C 19.447715 9 19 9.4477153 19 10 C 19 10.552285 19.447715 11 20 11 C 20.552285 11 21 10.552285 21 10 C 21 9.4477153 20.552285 9 20 9 z M 14 12 C 13.447715 12 13 12.447715 13 13 C 13 13.552285 13.447715 14 14 14 C 14.552285 14 15 13.552285 15 13 C 15 12.447715 14.552285 12 14 12 z M 18 12 C 17.447715 12 17 12.447715 17 13 C 17 13.552285 17.447715 14 18 14 C 18.552285 14 19 13.552285 19 13 C 19 12.447715 18.552285 12 18 12 z M 12 15 C 11.447715 15 11 15.447715 11 16 C 11 16.552285 11.447715 17 12 17 C 12.552285 17 13 16.552285 13 16 C 13 15.447715 12.552285 15 12 15 z M 16 15 C 15.447715 15 15 15.447715 15 16 C 15 16.552285 15.447715 17 16 17 C 16.552285 17 17 16.552285 17 16 C 17 15.447715 16.552285 15 16 15 z M 20 15 C 19.447715 15 19 15.447715 19 16 C 19 16.552285 19.447715 17 20 17 C 20.552285 17 21 16.552285 21 16 C 21 15.447715 20.552285 15 20 15 z M 10 18 C 9.4477153 18 9 18.447715 9 19 C 9 19.552285 9.4477153 20 10 20 C 10.552285 20 11 19.552285 11 19 C 11 18.447715 10.552285 18 10 18 z M 14 18 C 13.447715 18 13 18.447715 13 19 C 13 19.552285 13.447715 20 14 20 C 14.552285 20 15 19.552285 15 19 C 15 18.447715 14.552285 18 14 18 z M 18 18 C 17.447715 18 17 18.447715 17 19 C 17 19.552285 17.447715 20 18 20 C 18.552285 20 19 19.552285 19 19 C 19 18.447715 18.552285 18 18 18 z M 22 18 C 21.447715 18 21 18.447715 21 19 C 21 19.552285 21.447715 20 22 20 C 22.552285 20 23 19.552285 23 19 C 23 18.447715 22.552285 18 22 18 z" fill="#000000"/></svg>
