<?xml version="1.0" encoding="utf-8"?>
<svg xmlns="http://www.w3.org/2000/svg" viewBox="0 0 32 32" fill="#000000"><path style="text-indent:0;text-align:start;line-height:normal;text-transform:none;block-progression:tb;-inkscape-font-specification:Sans" d="M 12.4375 5 C 8.1548705 5 5.5255925 6.0737261 4 7.25 C 3.2372038 7.8381369 2.7660904 8.4316264 2.46875 8.90625 C 2.1714096 9.3808736 2.03125 9.8125 2.03125 9.8125 L 2 9.9375 L 2 10.09375 L 2 26 L 2 27 L 3 27 L 6 27 L 29 27 L 30 27 L 30 26 L 30 17.4375 L 30 17.40625 L 30 17.375 C 30 17.375 29.836357 15.766044 28.46875 14.3125 C 27.162258 12.923912 24.742335 11.673185 20.65625 11.5625 L 19.8125 10.40625 L 19.5 10 L 19 10 L 16.71875 10 C 16.676953 9.8921591 16.645206 9.8100373 16.59375 9.6875 C 16.375374 9.1674635 16.085093 8.5203017 15.71875 7.875 C 15.352407 7.2296983 14.94019 6.566166 14.4375 6.03125 C 13.93481 5.496334 13.318695 5 12.4375 5 z M 12.4375 7 C 12.3958 7 12.643721 7.060385 12.96875 7.40625 C 13.293779 7.7521153 13.651218 8.2844267 13.96875 8.84375 C 14.145819 9.1556515 14.294558 9.4729542 14.4375 9.78125 C 14.173022 10.12042 14 10.539138 14 11 L 14 13 L 18 13 L 18 12 L 18.5 12 L 19.3125 13.125 L 19.59375 13.53125 L 20.125 13.53125 C 24.183589 13.53125 26.083357 14.680044 27.03125 15.6875 C 27.979143 16.694956 28 17.53125 28 17.53125 L 28 25 L 27 25 L 27 24 C 27 23.45 26.55 23 26 23 C 25.45 23 25 23.45 25 24 L 25 25 L 23 25 L 23 23.5 C 23 22.675 22.325 22 21.5 22 C 20.675 22 20 22.675 20 23.5 L 20 25 L 18 25 L 18 23 C 18 21.9 17.1 21 16 21 C 14.9 21 14 21.9 14 23 L 14 25 L 12 25 L 12 23.5 C 12 22.675 11.325 22 10.5 22 C 9.675 22 9 22.675 9 23.5 L 9 25 L 7 25 L 7 24 C 7 23.45 6.55 23 6 23 C 5.45 23 5 23.45 5 24 L 5 25 L 4 25 L 4 10.3125 C 4.0085266 10.283777 4.0033826 10.244012 4.15625 10 C 4.3396909 9.7071861 4.6856712 9.2788631 5.25 8.84375 C 6.3786575 7.9735239 8.4871295 7 12.4375 7 z M 10.5 10 C 9.675 10 9 10.675 9 11.5 L 9 13 L 12 13 L 12 11.5 C 12 10.675 11.325 10 10.5 10 z M 6 11 C 5.45 11 5 11.45 5 12 L 5 13 L 7 13 L 7 12 C 7 11.45 6.55 11 6 11 z M 16 15 C 14.9 15 14 15.9 14 17 L 14 19 L 18 19 L 18 17 C 18 15.9 17.1 15 16 15 z M 10.5 16 C 9.675 16 9 16.675 9 17.5 L 9 19 L 12 19 L 12 17.5 C 12 16.675 11.325 16 10.5 16 z M 21.5 16 C 20.675 16 20 16.675 20 17.5 L 20 19 L 23 19 L 23 17.5 C 23 16.675 22.325 16 21.5 16 z M 6 17 C 5.45 17 5 17.45 5 18 L 5 19 L 7 19 L 7 18 C 7 17.45 6.55 17 6 17 z M 26 17 C 25.45 17 25 17.45 25 18 L 25 19 L 27 19 L 27 18 C 27 17.45 26.55 17 26 17 z" overflow="visible" font-family="Sans" fill="#000000"/></svg>
