<?xml version="1.0" encoding="utf-8"?>
<svg xmlns="http://www.w3.org/2000/svg" viewBox="0 0 32 32" fill="#000000"><path d="M 17.3125 4 L 14.5 8.84375 L 17.15625 8.84375 L 15.875 11.21875 L 15.1875 10.46875 L 14.5625 14 L 17.875 12.03125 L 16.65625 11.59375 L 19.5 7.75 L 16.75 7.75 L 19.4375 4 L 17.3125 4 z M 4 15 L 4 16 L 4 24 L 4 24.40625 L 4.28125 24.71875 L 7.28125 27.71875 L 7.59375 28 L 8 28 L 24 28 L 24.40625 28 L 24.71875 27.71875 L 27.71875 24.71875 L 28 24.40625 L 28 24 L 28 16 L 28 15 L 27 15 L 5 15 L 4 15 z M 6 17 L 26 17 L 26 23.5625 L 23.5625 26 L 8.4375 26 L 6 23.5625 L 6 17 z M 8 19 L 8 21 L 24 21 L 24 19 L 8 19 z" fill="#000000"/></svg>
