<?xml version="1.0" encoding="utf-8"?>
<svg xmlns="http://www.w3.org/2000/svg" viewBox="0 0 32 32" fill="#000000"><path style="line-height:normal;text-indent:0;text-align:start;text-decoration-line:none;text-decoration-style:solid;text-decoration-color:#000;text-transform:none;block-progression:tb;isolation:auto;mix-blend-mode:normal" d="M 13 3 L 13 5.5429688 C 12.652491 5.79683 11.400985 6.6849527 9.7929688 8.2929688 C 7.9756251 10.110312 6 12.416667 6 15 L 6 15.1875 C 5.1774437 15.494664 4.4979333 16.155064 4.0214844 16.949219 C 3.3631724 18.046506 3 19.457361 3 21 C 3 22.542639 3.3765728 23.789842 4.109375 24.673828 C 4.367924 24.985718 4.6801115 25.221949 5.0097656 25.423828 C 5.010528 25.453907 5.0037035 25.483593 5.0058594 25.513672 C 5.0387924 25.97988 5.0921294 26.672112 5.1972656 27.220703 C 5.41445 28.372439 6.3455022 29.154605 7.4160156 28.978516 C 7.7802298 28.918426 7.8580196 28.85865 8.15625 28.753906 C 8.4544804 28.649162 8.825338 28.512588 9.21875 28.367188 C 10.005574 28.076386 10.886759 27.744822 11.402344 27.560547 C 11.640778 27.475387 11.894814 27.363773 12.148438 27.207031 C 12.40206 27.050289 12.681341 26.878729 12.896484 26.443359 L 12.921875 26.392578 L 14.054688 23.248047 C 14.991948 23.127888 15.929149 23 16.998047 23 C 18.133334 23 19.007952 23.123318 19.933594 23.222656 L 21.076172 26.392578 L 21.101562 26.443359 C 21.316706 26.878729 21.595986 27.050289 21.849609 27.207031 C 22.103233 27.363773 22.357269 27.475392 22.595703 27.560547 C 23.111381 27.744856 23.994169 28.076383 24.78125 28.367188 C 25.174791 28.51259 25.543479 28.649166 25.841797 28.753906 C 26.140115 28.858647 26.217906 28.918441 26.582031 28.978516 L 26.583984 28.978516 C 27.652604 29.153836 28.585072 28.37248 28.802734 27.222656 L 28.802734 27.220703 C 28.906083 26.675973 28.961057 25.983796 28.994141 25.515625 C 29.035731 24.937372 28.81762 24.35424 28.392578 23.945312 L 28.392578 23.943359 L 28.390625 23.943359 C 27.919173 23.492142 26.958487 22.846511 25.111328 22.203125 C 23.264169 21.559739 20.602446 21 16.998047 21 C 13.87834 21 11.231596 21.564162 9.2832031 22.197266 C 8.3090068 22.513817 7.5088837 22.847118 6.9042969 23.142578 C 6.487728 23.346155 6.2090708 23.505866 5.953125 23.685547 C 5.8461056 23.60529 5.7438924 23.511632 5.6484375 23.396484 C 5.2954897 22.97072 5 22.218361 5 21 C 5 19.781639 5.3088901 18.690978 5.7363281 17.978516 C 5.8233311 17.833497 5.9113867 17.718924 6 17.609375 L 6 20 L 10.414062 20 L 11.414062 19 L 22.585938 19 L 23.585938 20 L 28 20 L 28 15 C 28 12.416667 26.024375 10.110312 24.207031 8.2929688 C 22.599015 6.6849527 21.347509 5.7968301 21 5.5429688 L 21 3 L 18 3 L 18 4 L 16 4 L 16 3 L 13 3 z M 15 6 L 19 6 L 19 6.5136719 L 19.417969 6.8144531 C 19.417969 6.8144531 21.110312 8.0243749 22.792969 9.7070312 C 24.475625 11.389688 26 13.583333 26 15 L 26 18 L 24.414062 18 L 23.414062 17 L 23 17 L 10.585938 17 L 9.5859375 18 L 8 18 L 8 15 C 8 13.583333 9.524375 11.389688 11.207031 9.7070312 C 12.889688 8.0243749 14.582031 6.8144531 14.582031 6.8144531 L 15 6.5136719 L 15 6 z M 13 10 L 13 12 L 15 12 L 15 10 L 13 10 z M 16 10 L 16 12 L 18 12 L 18 10 L 16 10 z M 19 10 L 19 12 L 21 12 L 21 10 L 19 10 z M 13 13 L 13 15 L 15 15 L 15 13 L 13 13 z M 16 13 L 16 15 L 18 15 L 18 13 L 16 13 z M 19 13 L 19 15 L 21 15 L 21 13 L 19 13 z M 22.169922 23.527344 C 23.00813 23.702034 23.847562 23.880872 24.453125 24.091797 C 26.071273 24.655416 26.948004 25.334244 26.998047 25.380859 C 26.966957 25.818568 26.901857 26.511057 26.837891 26.847656 L 26.837891 26.849609 C 26.82784 26.902903 26.811552 26.932038 26.794922 26.955078 C 26.706551 26.929241 26.610314 26.90191 26.505859 26.865234 C 26.227959 26.767664 25.861991 26.636034 25.472656 26.492188 C 24.693987 26.204491 23.819853 25.874426 23.269531 25.677734 L 23.267578 25.677734 C 23.142013 25.632894 22.99297 25.561867 22.902344 25.505859 C 22.883162 25.494004 22.884976 25.499651 22.880859 25.5 L 22.169922 23.527344 z M 11.789062 23.638672 L 11.117188 25.5 C 11.113066 25.499651 11.114898 25.494004 11.095703 25.505859 C 11.005073 25.561869 10.856034 25.63289 10.730469 25.677734 L 10.728516 25.677734 C 10.1781 25.874459 9.3038166 26.204489 8.5253906 26.492188 C 8.1361777 26.636036 7.7719415 26.767666 7.4941406 26.865234 C 7.3904337 26.901659 7.2940188 26.927276 7.2050781 26.953125 C 7.1884323 26.930178 7.1720992 26.902586 7.1621094 26.849609 L 7.1621094 26.847656 L 7.1601562 26.845703 C 7.0961907 26.512736 7.031185 25.820006 7 25.380859 C 6.916561 25.462659 7.2771359 25.186767 7.7832031 24.939453 C 8.2956788 24.689007 9.0138369 24.387683 9.9003906 24.099609 C 10.43451 23.926055 11.139457 23.789679 11.789062 23.638672 z" font-weight="400" font-family="sans-serif" white-space="normal" overflow="visible" fill="#000000"/></svg>
