<?xml version="1.0" encoding="utf-8"?>
<svg xmlns="http://www.w3.org/2000/svg" viewBox="0 0 32 32" fill="#000000"><path style="text-indent:0;text-align:start;line-height:normal;text-transform:none;block-progression:tb;-inkscape-font-specification:Sans" d="M 15 3 C 8.9365932 3 4 7.9365932 4 14 C 4 16.156701 4.8419003 17.942891 5.59375 19.5625 C 6.3455997 21.182109 7 22.624741 7 24.125 L 7 29 L 9 29 L 9 24.125 C 9 22.063259 8.1544003 20.330391 7.40625 18.71875 C 6.7907953 17.392957 6.2398418 16.146929 6.0625 14.84375 C 10.829908 13.914935 13.414328 11.340481 14.6875 8.9375 C 15.504457 7.3955781 15.789719 5.9711322 15.90625 5.03125 C 19.124806 5.2654159 20.939134 6.7184595 22.0625 8.1875 C 23.289224 9.791703 23.59375 11.375 23.59375 11.375 L 23.625 11.5 L 23.6875 11.625 C 23.6875 11.625 26.041316 16.377831 26.375 17.03125 C 26.44445 17.16716 26.44714 17.280126 26.4375 17.3125 C 26.4279 17.34487 26.4851 17.3212 26.40625 17.34375 C 25.841579 17.505495 24.75 17.78125 24.75 17.78125 L 24 17.96875 L 24 18.75 L 24 21 C 24 21.654639 23.62529 22.435428 23.03125 23.03125 C 22.43721 23.627072 21.663667 24 21 24 L 20 24 L 19 24 L 19 25 L 19 29 L 21 29 L 21 26 C 22.336333 26 23.56279 25.346178 24.46875 24.4375 C 25.37471 23.528822 26 22.327361 26 21 L 26 19.5 C 26.370362 19.40095 26.623219 19.348974 26.96875 19.25 C 27.651898 19.054559 28.194392 18.481376 28.375 17.875 C 28.555608 17.268624 28.4358 16.64084 28.15625 16.09375 C 27.867934 15.529169 25.5 10.71875 25.5 10.71875 L 25.46875 10.71875 C 25.38386 10.342446 25.006282 8.7342051 23.65625 6.96875 C 22.137724 4.982953 19.391406 3 15 3 z M 13.90625 5.0625 C 13.79312 5.8067116 13.539927 6.8629827 12.9375 8 C 11.934293 9.8934491 10.030735 11.914414 6.09375 12.78125 C 6.6369273 8.7305099 9.8371503 5.5480538 13.90625 5.0625 z" overflow="visible" font-family="Sans" fill="#000000"/></svg>
