<?xml version="1.0" encoding="utf-8"?>
<svg xmlns="http://www.w3.org/2000/svg" viewBox="0 0 32 32" fill="#000000"><path style="text-indent:0;text-align:start;line-height:normal;text-transform:none;block-progression:tb;-inkscape-font-specification:Bitstream Vera Sans" d="M 20.21875 5 C 18.538339 5 17.15625 6.3826747 17.15625 8.0625 C 17.15625 9.7428509 18.538925 11.125 20.21875 11.125 C 21.900738 11.125 23.3125 9.74174 23.3125 8.0625 C 23.3125 6.38326 21.900738 5 20.21875 5 z M 20.21875 7 C 20.820762 7 21.3125 7.46374 21.3125 8.0625 C 21.3125 8.66126 20.820762 9.125 20.21875 9.125 C 19.620575 9.125 19.15625 8.6621491 19.15625 8.0625 C 19.15625 7.4643253 19.621161 7 20.21875 7 z M 12.9375 9 C 12.455783 9.057521 11.971115 9.2796237 11.625 9.65625 L 8.25 13.3125 L 9.75 14.6875 L 13.09375 11.03125 C 13.12752 10.9945 13.17651 10.97178 13.21875 11 L 14.8125 12.0625 L 12.46875 15.3125 C 11.73275 16.3435 11.854 17.76025 12.75 18.65625 L 16.28125 22.1875 L 13.375 28 L 15.625 28 L 18.09375 23.09375 C 18.47975 22.32375 18.32775 21.39025 17.71875 20.78125 L 14.1875 17.25 C 13.9825 17.045 13.956 16.70375 14.125 16.46875 L 16.46875 13.1875 L 17.28125 13.71875 L 18.875 16.125 C 19.245478 16.678726 19.863917 17 20.53125 17 L 25 17 L 25 15 L 20.53125 15 L 18.84375 12.4375 L 18.71875 12.28125 L 18.5625 12.15625 L 14.34375 9.34375 C 13.918871 9.059862 13.419217 8.9424787 12.9375 9 z M 12.0625 19.53125 L 10.59375 21 L 6 21 L 6 23 L 10.59375 23 C 11.122901 23 11.623739 22.784523 12 22.40625 L 13.46875 20.9375 L 12.0625 19.53125 z" overflow="visible" font-family="Bitstream Vera Sans" fill="#000000"/></svg>
