<?xml version="1.0" encoding="utf-8"?>
<svg xmlns="http://www.w3.org/2000/svg" viewBox="0 0 32 32" fill="#000000"><path style="text-indent:0;text-align:start;line-height:normal;text-transform:none;block-progression:tb;-inkscape-font-specification:Bitstream Vera Sans" d="M 16 5 C 13.802706 5 12 6.8027056 12 9 C 12 11.197294 13.802706 13 16 13 C 17.853198 13 19.396684 11.719842 19.84375 10 L 25 10 L 25 16 L 27 16 L 27 9 L 27 8 L 26 8 L 19.84375 8 C 19.396684 6.280158 17.853198 5 16 5 z M 16 7 C 17.116414 7 18 7.883586 18 9 C 18 10.116414 17.116414 11 16 11 C 14.883586 11 14 10.116414 14 9 C 14 7.883586 14.883586 7 16 7 z M 10 15 L 9.78125 16 L 7.71875 16 L 7.21875 18 L 9.3125 18 L 8.84375 20 L 6.71875 20 L 6.21875 22 L 8.375 22 L 7.90625 24 L 5.71875 24 L 5.21875 26 L 7.4375 26 L 7.21875 27 L 9.21875 27 L 12 15 L 10 15 z M 18.90625 15 L 19.125 16 L 12.78125 16 L 12.3125 18 L 19.625 18 L 20.0625 20 L 11.84375 20 L 11.375 22 L 20.5625 22 L 21 24 L 10.90625 24 L 10.4375 26 L 21.5 26 L 21.71875 27 L 23.71875 27 L 20.90625 15 L 18.90625 15 z M 22.15625 16 L 22.625 18 L 24.71875 18 L 24.21875 16 L 22.15625 16 z M 23.09375 20 L 23.53125 22 L 25.71875 22 L 25.21875 20 L 23.09375 20 z M 24 24 L 24.46875 26 L 26.71875 26 L 26.21875 24 L 24 24 z" fill="#000000"/></svg>
