<?xml version="1.0" encoding="utf-8"?>
<svg xmlns="http://www.w3.org/2000/svg" viewBox="0 0 32 32" fill="#000000"><path style="text-indent:0;text-align:start;line-height:normal;text-transform:none;block-progression:tb;-inkscape-font-specification:Sans" d="M 5 4 L 5 5 L 5 25 L 5 26 L 6 26 L 12.5625 26 L 15.28125 28.71875 L 16 29.40625 L 16.71875 28.71875 L 19.4375 26 L 26 26 L 27 26 L 27 25 L 27 5 L 27 4 L 26 4 L 6 4 L 5 4 z M 7 6 L 25 6 L 25 24 L 19 24 L 18.59375 24 L 18.28125 24.28125 L 16 26.5625 L 13.71875 24.28125 L 13.40625 24 L 13 24 L 7 24 L 7 6 z M 16 9 C 13.802706 9 12 10.802706 12 13 C 12 14.067486 12.435511 15.030234 13.125 15.75 C 11.275294 16.774742 10 18.745203 10 21 L 12 21 C 12 18.779625 13.779625 17 16 17 C 18.220375 17 20 18.779625 20 21 L 22 21 C 22 18.745203 20.724706 16.774742 18.875 15.75 C 19.564489 15.030234 20 14.067486 20 13 C 20 10.802706 18.197294 9 16 9 z M 16 11 C 17.116414 11 18 11.883586 18 13 C 18 14.116414 17.116414 15 16 15 C 14.883586 15 14 14.116414 14 13 C 14 11.883586 14.883586 11 16 11 z" overflow="visible" font-family="Sans" fill="#000000"/></svg>
