<?xml version="1.0" encoding="utf-8"?>
<svg xmlns="http://www.w3.org/2000/svg" viewBox="0 0 32 32" fill="#000000"><path d="M 15.638672 7.0078125 C 14.531719 7.0528594 13.42925 7.3015 12.40625 7.75 L 13.208984 9.5820312 C 14.268984 9.1180312 15.438078 8.9304375 16.580078 9.0234375 L 16.744141 7.03125 C 16.376891 7.001 16.007656 6.9927969 15.638672 7.0078125 z M 18.914062 7.484375 L 18.267578 9.3769531 C 19.353578 9.7479531 20.342906 10.393141 21.128906 11.244141 L 22.597656 9.8867188 C 21.587656 8.7937188 20.313063 7.963375 18.914062 7.484375 z M 10.490234 8.890625 C 10.058234 9.227625 9.6560625 9.6036719 9.2890625 10.013672 C 8.5880625 9.9536719 7.9344063 10.085094 7.3164062 10.371094 L 8.15625 12.185547 C 8.54725 12.004547 8.8998438 11.9295 9.4648438 12.0625 L 10.087891 12.208984 L 10.480469 11.705078 C 10.842469 11.242078 11.25875 10.82575 11.71875 10.46875 L 10.490234 8.890625 z M 23.890625 11.685547 L 22.136719 12.646484 C 22.416719 13.157484 22.630391 13.703484 22.775391 14.271484 L 22.978516 15.070312 L 23.800781 15.023438 C 23.866781 15.020438 23.931 15.013 24 15 C 24.471 15 24.931141 15.081234 25.369141 15.240234 L 26.052734 13.359375 C 25.546734 13.175375 25.020375 13.062531 24.484375 13.019531 C 24.323375 12.559531 24.124625 12.112547 23.890625 11.685547 z M 5.5566406 11.964844 C 5.2266406 12.521844 5.0378594 13.152781 5.0058594 13.800781 C 4.5208594 14.080781 4.0775938 14.425984 3.6835938 14.833984 L 5.1210938 16.224609 C 5.4960938 15.835609 5.9385937 15.530359 6.4335938 15.318359 L 7.125 14.939453 L 7.0195312 14.183594 C 7.0105313 14.123594 7 14.062 7 14 C 7 13.641 7.0963437 13.289375 7.2773438 12.984375 L 5.5566406 11.964844 z M 27.982422 14.513672 L 26.654297 16.007812 C 27.422297 16.689812 27.894375 17.626484 27.984375 18.646484 L 29.976562 18.470703 C 29.841562 16.940703 29.133422 15.535672 27.982422 14.513672 z M 2.4472656 16.724609 C 2.1502656 17.445609 2 18.212 2 19 C 2 19.743 2.1353906 20.470203 2.4003906 21.158203 L 4.2675781 20.439453 C 4.0905781 19.980453 4 19.496 4 19 C 4 18.475 4.099875 17.965328 4.296875 17.486328 L 2.4472656 16.724609 z M 27.833984 20.144531 C 27.541984 21.123531 26.890953 21.946891 26.001953 22.462891 L 27.005859 24.193359 C 28.337859 23.421359 29.312 22.186844 29.75 20.714844 L 27.833984 20.144531 z M 5.0625 21.716797 L 3.59375 23.072266 C 4.64075 24.203266 6.0597969 24.883328 7.5917969 24.986328 L 7.7265625 22.990234 C 6.7065625 22.922234 5.7605 22.470797 5.0625 21.716797 z M 24.583984 22.957031 C 24.392984 22.985031 24.198 23 24 23 L 20.9375 23 L 20.9375 25 L 24 25 C 24.298 25 24.59 24.9795 24.875 24.9375 L 24.583984 22.957031 z M 9.5605469 23 L 9.5605469 25 L 13.353516 25 L 13.353516 23 L 9.5605469 23 z M 15.248047 23 L 15.248047 25 L 19.041016 25 L 19.041016 23 L 15.248047 23 z" fill="#000000"/></svg>
