<?xml version="1.0" encoding="utf-8"?>
<svg xmlns="http://www.w3.org/2000/svg" viewBox="0 0 32 32" fill="#000000"><path d="M 16 4 C 9.4091152 4 4 9.1348104 4 15.5 C 4 18.890126 5.5711824 21.900772 8 24 L 8 27 L 8 28.625 L 9.4375 27.90625 L 12.4375 26.40625 C 13.566666 26.747302 14.746276 27 16 27 C 22.590885 27 28 21.86519 28 15.5 C 28 9.1348104 22.590885 4 16 4 z M 16 6 C 21.559115 6 26 10.26719 26 15.5 C 26 20.73281 21.559115 25 16 25 C 14.804289 25 13.663883 24.774882 12.59375 24.40625 L 12.1875 24.28125 L 11.8125 24.46875 L 10 25.375 L 10 23.59375 L 10 23.125 L 9.625 22.8125 C 7.4048857 21.062217 6 18.441595 6 15.5 C 6 10.26719 10.440885 6 16 6 z M 14.875 12.34375 L 8.84375 18.71875 L 14.25 15.71875 L 17.125 18.8125 L 23.09375 12.34375 L 17.8125 15.3125 L 14.875 12.34375 z" fill="#000000"/></svg>
