<?xml version="1.0" encoding="utf-8"?>
<svg xmlns="http://www.w3.org/2000/svg" viewBox="0 0 32 32" fill="#000000"><path style="text-indent:0;text-align:start;line-height:normal;text-transform:none;block-progression:tb;-inkscape-font-specification:Sans" d="M 9 4 L 9 6 L 11 6 L 11 4 L 9 4 z M 13 4 L 13 6 L 15 6 L 15 4 L 13 4 z M 17 4 L 17 6 L 19 6 L 19 4 L 17 4 z M 21 4 L 21 6 L 23 6 L 23 4 L 21 4 z M 6.375 5 L 4.96875 6.40625 L 6.375 7.8125 L 7.78125 6.40625 L 6.375 5 z M 25.59375 5 L 24.1875 6.40625 L 25.59375 7.84375 L 27 6.40625 L 25.59375 5 z M 8.71875 7.28125 L 7.28125 8.71875 L 9.6875 11.125 C 8.6439096 12.476547 8 14.166924 8 16 C 8 17.833076 8.6439096 19.523453 9.6875 20.875 L 7.28125 23.28125 L 8.71875 24.71875 L 11.125 22.3125 C 12.476547 23.35609 14.166924 24 16 24 C 17.833076 24 19.523453 23.35609 20.875 22.3125 L 23.28125 24.71875 L 24.71875 23.28125 L 22.3125 20.875 C 23.35609 19.523453 24 17.833076 24 16 C 24 14.166924 23.35609 12.476547 22.3125 11.125 L 24.71875 8.71875 L 23.28125 7.28125 L 20.875 9.6875 C 19.523453 8.6439096 17.833076 8 16 8 C 14.166924 8 12.476547 8.6439096 11.125 9.6875 L 8.71875 7.28125 z M 4 9 L 4 11 L 6 11 L 6 9 L 4 9 z M 26 9 L 26 11 L 28 11 L 28 9 L 26 9 z M 16 10 C 17.289045 10 18.493197 10.407927 19.46875 11.09375 L 16 14.5625 L 12.53125 11.09375 C 13.506803 10.407927 14.710955 10 16 10 z M 11.09375 12.53125 L 14.5625 16 L 11.09375 19.46875 C 10.407927 18.493197 10 17.289045 10 16 C 10 14.710955 10.407927 13.506803 11.09375 12.53125 z M 20.90625 12.53125 C 21.592073 13.506803 22 14.710955 22 16 C 22 17.289045 21.592073 18.493197 20.90625 19.46875 L 17.4375 16 L 20.90625 12.53125 z M 4 13 L 4 15 L 6 15 L 6 13 L 4 13 z M 26 13 L 26 15 L 28 15 L 28 13 L 26 13 z M 4 17 L 4 19 L 6 19 L 6 17 L 4 17 z M 26 17 L 26 19 L 28 19 L 28 17 L 26 17 z M 16 17.4375 L 19.46875 20.90625 C 18.493197 21.592073 17.289045 22 16 22 C 14.710955 22 13.506803 21.592073 12.53125 20.90625 L 16 17.4375 z M 4 21 L 4 23 L 6 23 L 6 21 L 4 21 z M 26 21 L 26 23 L 28 23 L 28 21 L 26 21 z M 6.375 24.21875 L 4.9375 25.65625 L 6.375 27.0625 L 7.78125 25.65625 L 6.375 24.21875 z M 25.59375 24.21875 L 24.1875 25.65625 L 25.59375 27.0625 L 27 25.65625 L 25.59375 24.21875 z M 9 26 L 9 28 L 11 28 L 11 26 L 9 26 z M 13 26 L 13 28 L 15 28 L 15 26 L 13 26 z M 17 26 L 17 28 L 19 28 L 19 26 L 17 26 z M 21 26 L 21 28 L 23 28 L 23 26 L 21 26 z" fill="#000000"/></svg>
