<?xml version="1.0" encoding="utf-8"?>
<svg xmlns="http://www.w3.org/2000/svg" viewBox="0 0 32 32" fill="#000000"><path style="text-indent:0;text-align:start;line-height:normal;text-transform:none;block-progression:tb;-inkscape-font-specification:Bitstream Vera Sans" d="M 21.625 3.84375 L 20.625 4 L 4.84375 6.625 L 3.84375 6.78125 L 4 7.75 L 5.625 17.65625 L 5.78125 18.65625 L 6.75 18.5 L 10 17.96875 L 10 22 L 10 23 L 11 23 L 18 23 L 18 28 L 20 28 L 20 23 L 27 23 L 28 23 L 28 22 L 28 12 L 28 11 L 27 11 L 22.75 11 L 21.78125 4.84375 L 21.625 3.84375 z M 19.96875 6.15625 L 20.71875 11 L 17.78125 11 L 17.53125 9.625 L 9.625 10.90625 L 9.96875 12.875 L 10 12.875 L 10 15.9375 L 7.4375 16.34375 L 6.15625 8.4375 L 19.96875 6.15625 z M 12 13 L 26 13 L 26 21 L 12 21 L 12 13 z M 15 16 L 15 18 L 23 18 L 23 16 L 15 16 z" overflow="visible" font-family="Bitstream Vera Sans" fill="#000000"/></svg>
