<?xml version="1.0" encoding="utf-8"?>
<svg xmlns="http://www.w3.org/2000/svg" viewBox="0 0 32 32" fill="#000000"><path style="text-indent:0;text-align:start;line-height:normal;text-transform:none;block-progression:tb;-inkscape-font-specification:Bitstream Vera Sans" d="M 10 6 L 10 7 L 10 11 L 3 11 L 2 11 L 2 12 L 2 25 L 2 26 L 3 26 L 29 26 L 30 26 L 30 25 L 30 13 L 30 12 L 29 12 L 23 12 L 23 7 L 23 6 L 22 6 L 11 6 L 10 6 z M 12 8 L 21 8 L 21 13 L 21 14 L 22 14 L 28 14 L 28 24 L 4 24 L 4 13 L 11 13 L 12 13 L 12 12 L 12 8 z M 15.84375 9 L 15.625 9.71875 C 15.625 9.71875 15.51844 10.078529 15.28125 10.4375 C 15.04406 10.796471 14.802189 11 14.53125 11 L 14.53125 13 C 15.113025 13 15.603824 12.804922 16 12.53125 L 16 16 L 18 16 L 18 10 L 18 9 L 17 9 L 16.59375 9 L 15.84375 9 z M 8.5 15 C 7.1309372 15 6 16.130937 6 17.5 L 6 18 L 8 18 L 8 17.5 C 8 17.213063 8.2130628 17 8.5 17 C 8.7869372 17 9 17.213063 9 17.5 L 9 17.78125 C 9 17.934618 8.930661 18.061986 8.8125 18.15625 L 6.375 20.125 L 6 20.40625 L 6 20.90625 L 6 21 L 6 22 L 7 22 L 11 22 L 11 20 L 9.71875 20 L 10.0625 19.71875 C 10.656339 19.245014 11 18.539882 11 17.78125 L 11 17.5 C 11 16.130937 9.8690628 15 8.5 15 z M 21 16 L 21 18 L 21.53125 18 L 21.375 18.125 L 21 18.40625 L 21 18.90625 L 21 19 L 21 20 L 22 20 L 23.5 20 C 23.786937 20 24 20.213063 24 20.5 C 24 20.786937 23.786937 21 23.5 21 L 21 21 L 21 23 L 23.5 23 C 24.869063 23 26 21.869063 26 20.5 C 26 19.437796 25.225834 18.702291 24.28125 18.34375 L 24.84375 17.875 L 25.21875 17.59375 L 25.21875 17.09375 L 25.21875 17 L 25.21875 16 L 24.21875 16 L 21 16 z" overflow="visible" font-family="Bitstream Vera Sans" fill="#000000"/></svg>
