<?xml version="1.0" encoding="utf-8"?>
<svg xmlns="http://www.w3.org/2000/svg" viewBox="0 0 32 32" fill="#000000"><path style="text-indent:0;text-align:start;line-height:normal;text-transform:none;block-progression:tb;-inkscape-font-specification:Bitstream Vera Sans" d="M 16 3 C 8.27961 3 2 9.27961 2 17 L 2 26 L 2 27 L 3 27 L 10.4375 27 C 11.955156 28.237492 13.882954 29 16 29 C 18.129259 29 20.081339 28.243072 21.625 27 L 29 27 L 30 27 L 30 26 L 30 17 C 30 9.27961 23.72039 3 16 3 z M 16 5 C 22.63961 5 28 10.36039 28 17 L 28 25 L 23.5 25 C 23.939396 24.343789 24.275204 23.605586 24.53125 22.84375 C 24.823453 22.289321 25 21.666243 25 21 C 26.105 21 27 20.105 27 19 L 27 18 C 27 16.895 26.105 16 25 16 L 25 15 C 25 13.686262 24.50828 12.661244 23.71875 12.1875 C 22.92922 11.713756 22.191446 11.753944 21.625 11.6875 C 21.058554 11.621056 20.725218 11.524072 20.5 11.28125 C 20.274782 11.038428 20 10.445434 20 9 L 18 9 C 18 10.537376 17.565006 11.038261 16.8125 11.4375 C 16.059994 11.836739 14.834529 11.980103 13.5 12 C 12.165471 12.0199 10.773284 11.93081 9.53125 12.1875 C 8.9102332 12.315843 8.279324 12.551728 7.78125 13.03125 C 7.283176 13.510772 7 14.233796 7 15 L 7 15.40625 C 5.8904725 15.848273 5 16.74133 5 18 C 5 19.308554 5.9462217 20.250796 7.125 20.65625 C 7.2467892 22.253818 7.7893702 23.737098 8.625 25 L 4 25 L 4 17 C 4 10.36039 9.36039 5 16 5 z M 18.8125 12.375 C 18.886149 12.476654 18.978894 12.566108 19.0625 12.65625 C 19.774782 13.424209 20.691446 13.576069 21.375 13.65625 C 22.058554 13.73643 22.57078 13.817463 22.71875 13.90625 C 22.86672 13.995037 23 14.055238 23 15 L 23 16 L 23 20 C 23 20.727028 22.891446 21.435412 22.6875 22.09375 C 22.333968 22.644842 21.71303 23 21 23 L 17.90625 23 C 17.70241 22.413588 17.155838 22 16.5 22 C 15.671573 22 15 22.671573 15 23.5 C 15 24.328427 15.671573 25 16.5 25 L 20.9375 25 C 19.674728 26.246821 17.922657 27 16 27 C 12.122516 27 9 23.877484 9 20 L 9 19 L 8 19 C 7.4349698 19 7 18.56503 7 18 C 7 17.43497 7.4349698 17 8 17 L 9 17 L 9 16 L 9 15 C 9 14.641204 9.052762 14.568384 9.15625 14.46875 C 9.2597385 14.36912 9.4960168 14.241032 9.90625 14.15625 C 10.726716 13.986687 12.084529 14.021103 13.5 14 C 14.915471 13.9789 16.440006 13.91376 17.75 13.21875 C 18.146851 13.008203 18.499407 12.722989 18.8125 12.375 z M 13 17 C 12.447715 17 12 17.447715 12 18 C 12 18.552285 12.447715 19 13 19 C 13.552285 19 14 18.552285 14 18 C 14 17.447715 13.552285 17 13 17 z M 19 17 C 18.447715 17 18 17.447715 18 18 C 18 18.552285 18.447715 19 19 19 C 19.552285 19 20 18.552285 20 18 C 20 17.447715 19.552285 17 19 17 z" overflow="visible" font-family="Bitstream Vera Sans" fill="#000000"/></svg>
