<?xml version="1.0" encoding="utf-8"?>
<svg xmlns="http://www.w3.org/2000/svg" viewBox="0 0 32 32" fill="#000000"><path style="text-indent:0;text-align:start;line-height:normal;text-transform:none;block-progression:tb;-inkscape-font-specification:Bitstream Vera Sans" d="M 7 6 L 7 8 L 4 8 L 3 8 L 3 9 L 3 25 L 3 26 L 4 26 L 7 26 L 7 28 L 9 28 L 9 26 L 11 26 L 11 28 L 13 28 L 13 26 L 15 26 L 15 28 L 17 28 L 17 26 L 19 26 L 19 28 L 21 28 L 21 26 L 23 26 L 23 28 L 25 28 L 25 26 L 28 26 L 29 26 L 29 25 L 29 9 L 29 8 L 28 8 L 25 8 L 25 6 L 23 6 L 23 8 L 21 8 L 21 6 L 19 6 L 19 8 L 17 8 L 17 6 L 15 6 L 15 8 L 13 8 L 13 6 L 11 6 L 11 8 L 9 8 L 9 6 L 7 6 z M 5 10 L 27 10 L 27 24 L 5 24 L 5 10 z M 8 12 C 7.4477153 12 7 12.447715 7 13 C 7 13.552285 7.4477153 14 8 14 C 8.5522847 14 9 13.552285 9 13 C 9 12.447715 8.5522847 12 8 12 z M 12 12 C 11.447715 12 11 12.447715 11 13 C 11 13.552285 11.447715 14 12 14 C 12.552285 14 13 13.552285 13 13 C 13 12.447715 12.552285 12 12 12 z M 16 12 C 15.447715 12 15 12.447715 15 13 C 15 13.552285 15.447715 14 16 14 C 16.552285 14 17 13.552285 17 13 C 17 12.447715 16.552285 12 16 12 z M 20 12 C 19.447715 12 19 12.447715 19 13 C 19 13.552285 19.447715 14 20 14 C 20.552285 14 21 13.552285 21 13 C 21 12.447715 20.552285 12 20 12 z M 24 12 C 23.447715 12 23 12.447715 23 13 C 23 13.552285 23.447715 14 24 14 C 24.552285 14 25 13.552285 25 13 C 25 12.447715 24.552285 12 24 12 z M 8 16 C 7.4477153 16 7 16.447715 7 17 C 7 17.552285 7.4477153 18 8 18 C 8.5522847 18 9 17.552285 9 17 C 9 16.447715 8.5522847 16 8 16 z M 24 16 C 23.447715 16 23 16.447715 23 17 C 23 17.552285 23.447715 18 24 18 C 24.552285 18 25 17.552285 25 17 C 25 16.447715 24.552285 16 24 16 z M 8 20 C 7.4477153 20 7 20.447715 7 21 C 7 21.552285 7.4477153 22 8 22 C 8.5522847 22 9 21.552285 9 21 C 9 20.447715 8.5522847 20 8 20 z M 12 20 C 11.447715 20 11 20.447715 11 21 C 11 21.552285 11.447715 22 12 22 C 12.552285 22 13 21.552285 13 21 C 13 20.447715 12.552285 20 12 20 z M 16 20 C 15.447715 20 15 20.447715 15 21 C 15 21.552285 15.447715 22 16 22 C 16.552285 22 17 21.552285 17 21 C 17 20.447715 16.552285 20 16 20 z M 20 20 C 19.447715 20 19 20.447715 19 21 C 19 21.552285 19.447715 22 20 22 C 20.552285 22 21 21.552285 21 21 C 21 20.447715 20.552285 20 20 20 z M 24 20 C 23.447715 20 23 20.447715 23 21 C 23 21.552285 23.447715 22 24 22 C 24.552285 22 25 21.552285 25 21 C 25 20.447715 24.552285 20 24 20 z" fill="#000000"/></svg>
