<?xml version="1.0" encoding="utf-8"?>
<svg xmlns="http://www.w3.org/2000/svg" viewBox="0 0 32 32" fill="#000000"><path style="text-indent:0;text-align:start;line-height:normal;text-transform:none;block-progression:tb;-inkscape-font-specification:Bitstream Vera Sans" d="M 9.25 4.03125 C 8.9264219 4.0545654 8.6085359 4.1064005 8.3125 4.15625 C 7.2270349 4.3390314 6.3503855 4.6742955 5.6875 5.25 C 5.4344458 5.3883311 5.1783359 5.5716641 4.96875 5.78125 C 4.1989426 6.5510573 3.9374109 7.65118 4 8.78125 C 4.062589 9.91132 4.4400122 11.157152 5.03125 12.46875 C 6.2137261 15.091943 8.3502447 18.037745 11.15625 20.84375 C 13.962256 23.649756 16.908056 25.755023 19.53125 26.9375 C 20.842847 27.528737 22.05743 27.906161 23.1875 27.96875 C 24.317569 28.03134 25.417693 27.769807 26.1875 27 C 26.34316 26.84434 26.477902 26.649277 26.59375 26.46875 L 26.71875 26.59375 C 27.396783 25.915717 27.71526 24.958727 27.90625 23.78125 C 28.09724 22.603773 28.104008 21.204454 27.84375 19.65625 C 27.690066 18.74203 27.447358 17.770802 27.09375 16.78125 C 27.581838 15.314731 28.64825 10.838232 24.90625 7.1875 C 22.648126 4.9844519 20.118697 4.4796099 18.15625 4.53125 C 16.926499 4.5636098 15.960612 4.8182051 15.375 5 C 14.37734 4.6446374 13.393935 4.3696385 12.46875 4.21875 C 11.30161 4.0284011 10.220734 3.9613037 9.25 4.03125 z M 12.65625 6.3125 C 15.264856 6.837262 18.326345 8.1879597 21.09375 11 C 23.890399 13.841757 25.256783 16.945237 25.78125 19.5625 C 24.553821 17.130724 22.605443 14.480443 20.0625 11.9375 C 17.607246 9.4822456 15.019984 7.546957 12.65625 6.3125 z M 18.5625 6.46875 C 20.0153 6.4998928 21.803536 6.9699128 23.5 8.625 C 25.295931 10.377127 25.727258 12.281138 25.6875 13.78125 C 24.873962 12.362979 23.837413 10.952734 22.5 9.59375 C 21.229871 8.3031346 19.901179 7.2688464 18.5625 6.46875 z M 7.34375 6.8125 C 7.4978632 6.7999876 7.6828645 6.8018586 7.875 6.8125 C 8.6435422 6.855065 9.6856963 7.1342261 10.84375 7.65625 C 13.159857 8.7002984 15.963665 10.682416 18.625 13.34375 C 21.286335 16.005085 23.299702 18.840143 24.34375 21.15625 C 24.865774 22.314303 25.144935 23.356458 25.1875 24.125 C 25.23007 24.893543 25.046332 25.328668 24.78125 25.59375 C 24.516167 25.858832 24.081042 26.011315 23.3125 25.96875 C 22.543958 25.92618 21.501804 25.647024 20.34375 25.125 C 18.027644 24.080952 15.223835 22.067585 12.5625 19.40625 C 9.9011654 16.744916 7.8877984 13.941107 6.84375 11.625 C 6.3217261 10.466947 6.0738155 9.4560422 6.03125 8.6875 C 5.9886844 7.9189578 6.1411677 7.4525824 6.40625 7.1875 C 6.6050618 6.9886883 6.8814104 6.8500372 7.34375 6.8125 z M 12.5 10.6875 C 12.06191 10.74327 11.627987 10.934513 11.28125 11.28125 C 10.818934 11.743567 10.66137 12.366226 10.6875 12.9375 C 10.71363 13.508774 10.897712 14.103943 11.15625 14.6875 C 11.673326 15.854615 12.563257 17.063258 13.75 18.25 C 14.936742 19.436742 16.176635 20.357924 17.34375 20.875 C 17.927307 21.133538 18.491226 21.31762 19.0625 21.34375 C 19.633773 21.36988 20.256434 21.212316 20.71875 20.75 C 21.181066 20.287683 21.36988 19.665024 21.34375 19.09375 C 21.31762 18.522476 21.133538 17.927307 20.875 17.34375 C 20.357924 16.176635 19.436743 14.936742 18.25 13.75 C 17.063258 12.563258 15.854615 11.673326 14.6875 11.15625 C 14.103943 10.897712 13.508774 10.71363 12.9375 10.6875 C 12.794682 10.680967 12.64603 10.66891 12.5 10.6875 z M 12.6875 12.6875 C 12.65476 12.72024 12.666133 12.6779 12.875 12.6875 C 13.083864 12.6971 13.447664 12.779428 13.875 12.96875 C 14.729672 13.347402 15.804504 14.117004 16.84375 15.15625 C 17.882996 16.195496 18.652599 17.301579 19.03125 18.15625 C 19.220577 18.583586 19.302947 18.947387 19.3125 19.15625 C 19.3221 19.365114 19.27976 19.34524 19.3125 19.3125 C 19.34524 19.27976 19.365117 19.3221 19.15625 19.3125 C 18.947386 19.3029 18.583586 19.220572 18.15625 19.03125 C 17.301578 18.652598 16.195496 17.882996 15.15625 16.84375 C 14.117004 15.804504 13.347401 14.729671 12.96875 13.875 C 12.779423 13.447664 12.697053 13.083863 12.6875 12.875 C 12.6779 12.666136 12.72024 12.65476 12.6875 12.6875 z" overflow="visible" font-family="Bitstream Vera Sans" fill="#000000"/></svg>
