<?xml version="1.0" encoding="utf-8"?>
<svg xmlns="http://www.w3.org/2000/svg" viewBox="0 0 32 32" fill="#000000"><path style="line-height:normal;text-indent:0;text-align:start;text-decoration-line:none;text-decoration-style:solid;text-decoration-color:#000;text-transform:none;block-progression:tb;isolation:auto;mix-blend-mode:normal" d="M 14 3 C 11.802706 3 10 4.8027056 10 7 C 10 8.8503017 11.284214 10.405592 13 10.855469 L 13 15.144531 C 11.284214 15.594409 10 17.149699 10 19 C 10 19.223857 10.030474 19.44012 10.066406 19.654297 L 7.1660156 20.943359 C 6.61778 20.366481 5.8502142 20 5 20 C 3.3549904 20 2 21.35499 2 23 C 2 24.64501 3.3549904 26 5 26 C 6.6450096 26 8 24.64501 8 23 C 8 22.921874 7.982561 22.848188 7.9765625 22.771484 L 10.888672 21.476562 C 11.62368 22.395953 12.740517 23 14 23 C 15.195167 23 16.26101 22.455319 16.996094 21.615234 L 22.091797 24.164062 C 22.033521 24.434249 22 24.713242 22 25 C 22 27.197294 23.802706 29 26 29 C 28.197294 29 30 27.197294 30 25 C 30 22.802706 28.197294 21 26 21 C 24.804833 21 23.73899 21.544681 23.003906 22.384766 L 17.90625 19.837891 C 17.964865 19.566957 18 19.287613 18 19 C 18 17.149699 16.715786 15.594409 15 15.144531 L 15 10.855469 C 16.715786 10.405592 18 8.8503017 18 7 C 18 4.8027056 16.197294 3 14 3 z M 14 5 C 15.116414 5 16 5.8835859 16 7 C 16 8.1164141 15.116414 9 14 9 C 12.883586 9 12 8.1164141 12 7 C 12 5.8835859 12.883586 5 14 5 z M 14 17 C 15.116414 17 16 17.883586 16 19 C 16 20.116414 15.116414 21 14 21 C 12.883586 21 12 20.116414 12 19 C 12 17.883586 12.883586 17 14 17 z M 5 22 C 5.5641294 22 6 22.435871 6 23 C 6 23.564129 5.5641294 24 5 24 C 4.4358706 24 4 23.564129 4 23 C 4 22.435871 4.4358706 22 5 22 z M 26 23 C 27.116414 23 28 23.883586 28 25 C 28 26.116414 27.116414 27 26 27 C 24.883586 27 24 26.116414 24 25 C 24 23.883586 24.883586 23 26 23 z" fill="#000000"/></svg>
