<?xml version="1.0" encoding="utf-8"?>
<svg xmlns="http://www.w3.org/2000/svg" viewBox="0 0 32 32" fill="#000000"><path style="text-indent:0;text-align:start;line-height:normal;text-transform:none;block-progression:tb;-inkscape-font-specification:Sans" d="M 25 4 C 25 5.4582722 24.659193 6.1157564 24.1875 6.65625 C 23.894495 6.9919919 23.486765 7.2656875 23.0625 7.59375 C 22.460593 6.9520826 21.421575 5.9642252 19.96875 5.15625 C 18.814835 4.5145108 17.431035 4.0215669 15.90625 4.09375 C 14.381465 4.165933 12.749003 4.8134971 11.28125 6.28125 L 10.90625 6.6875 L 11.03125 7.1875 C 11.03125 7.1875 11.081077 7.4782989 11.15625 7.75 C 10.402785 8.3090485 9.6656268 8.9290463 8.96875 9.625 C 4.4094083 14.184342 2.6666867 20.277576 5.03125 24.40625 C 5.0307794 24.414762 5.0172679 24.421742 5 24.5 C 4.954838 24.704674 4.832446 25.060447 4.6875 25.375 C 4.397608 26.004106 4.0625 26.5625 4.0625 26.5625 L 5.40625 27.96875 C 5.40625 27.96875 5.9918923 27.598946 6.625 27.3125 C 6.9415539 27.169277 7.2872294 27.048389 7.5 27 C 7.6063853 26.975805 7.6637642 26.999764 7.65625 27 C 11.783814 29.313647 17.837684 27.568566 22.375 23.03125 C 22.9319 22.47435 23.680591 21.667998 24.21875 20.8125 C 24.524923 20.899259 24.8125 20.96875 24.8125 20.96875 L 25.3125 21.09375 L 25.71875 20.71875 C 27.18183 19.25567 27.835258 17.616979 27.90625 16.09375 C 27.97724 14.570521 27.48372 13.18604 26.84375 12.03125 C 26.086446 10.664738 25.174379 9.6807919 24.53125 9.0625 C 24.89582 8.773086 25.287783 8.4267694 25.6875 7.96875 C 26.429307 7.1187436 27 5.8337278 27 4 L 25 4 z M 16 6.09375 C 17.03384 6.044808 18.065415 6.3552392 19 6.875 C 20.86917 7.9145217 22.21875 9.625 22.21875 9.625 L 22.28125 9.71875 L 22.375 9.78125 C 22.375 9.78125 24.055939 11.127329 25.09375 13 C 25.612655 13.936335 25.954414 14.966572 25.90625 16 C 25.86475 16.890405 25.457646 17.824434 24.625 18.8125 C 24.330868 18.73505 24.052904 18.688079 23.03125 18.1875 C 21.649412 17.510442 19.753286 16.315786 17.71875 14.28125 C 15.684214 12.246714 14.489558 10.350588 13.8125 8.96875 C 13.311921 7.9470959 13.264946 7.6691322 13.1875 7.375 C 14.179988 6.5381441 15.10924 6.1359185 16 6.09375 z M 11.9375 9.6875 C 11.96371 9.7427089 11.972341 9.7872995 12 9.84375 C 12.763942 11.402912 14.079786 13.517286 16.28125 15.71875 C 18.482714 17.920214 20.597088 19.236058 22.15625 20 C 22.2127 20.027659 22.257291 20.03629 22.3125 20.0625 C 21.917054 20.595882 21.363142 21.230608 20.96875 21.625 C 16.850118 25.743632 11.491813 26.950825 8.53125 25.21875 L 8.53125 25.25 C 7.9648192 24.887759 7.4453384 24.968327 7.03125 25.0625 C 6.98787 25.0724 6.94917 25.08263 6.90625 25.09375 C 6.920928 25.03803 6.95625 24.99415 6.96875 24.9375 C 7.059683 24.525392 7.1395965 24.011242 6.78125 23.46875 C 5.0491745 20.508187 6.2563675 15.149882 10.375 11.03125 C 10.876002 10.530911 11.403081 10.100628 11.9375 9.6875 z" overflow="visible" font-family="Sans" fill="#000000"/></svg>
