<?xml version="1.0" encoding="utf-8"?>
<svg xmlns="http://www.w3.org/2000/svg" viewBox="-7 9 32 32" fill="#000000"><path d="M 8.5 5 L 5 9.65625 L 5 27 L 27 27 L 27 9.65625 L 23.5 5 L 8.5 5 z M 9.5 7 L 22.5 7 L 24 9 L 8 9 L 9.5 7 z M 7 11 L 25 11 L 25 25 L 7 25 L 7 11 z M 13 13 C 12.448 13 12 13.448 12 14 C 12 14.552 12.448 15 13 15 L 19 15 C 19.553 15 20 14.552 20 14 C 20 13.448 19.553 13 19 13 L 13 13 z M 19 18 L 18 19 L 18 21 L 20 21 L 20 19 L 19 18 z M 23 18 L 22 19 L 22 21 L 24 21 L 24 19 L 23 18 z M 18 22 L 18 24 L 24 24 L 24 22 L 18 22 z" transform="translate(-7 9)" fill="#000000"/></svg>
