<?xml version="1.0" encoding="utf-8"?>
<svg xmlns="http://www.w3.org/2000/svg" viewBox="0 0 32 32" fill="#000000"><path style="text-indent:0;text-align:start;line-height:normal;text-transform:none;block-progression:tb;-inkscape-font-specification:Bitstream Vera Sans" d="M 10 3.59375 L 9.28125 4.28125 L 5.28125 8.28125 L 6.71875 9.71875 L 9 7.4375 L 9 9 C 9 9.3 8.8630441 10.112002 8.65625 11 C 8.4494559 11.887998 8.1883791 12.89041 7.9375 13.84375 C 7.3601411 16.037714 7.8155971 18.371059 9.21875 20.125 C 10.296188 21.451077 10.538711 23.205541 10.03125 24.8125 L 9.0625 27.6875 L 10.9375 28.3125 L 11.9375 25.4375 A 1.0001 1.0001 0 0 0 11.96875 25.40625 C 12.661289 23.213209 12.303812 20.748923 10.78125 18.875 C 9.7844029 17.628941 9.4523589 15.949786 9.875 14.34375 C 10.124121 13.39709 10.406794 12.374502 10.625 11.4375 C 10.843206 10.500498 11 9.7 11 9 L 11 7.4375 L 13.28125 9.71875 L 14.71875 8.28125 L 10.71875 4.28125 L 10 3.59375 z M 22 3.59375 L 21.28125 4.28125 L 17.28125 8.28125 L 18.71875 9.71875 L 21 7.4375 L 21 9 C 21 9.3 20.863044 10.112002 20.65625 11 C 20.449456 11.887998 20.188379 12.89041 19.9375 13.84375 C 19.360141 16.037714 19.815597 18.371059 21.21875 20.125 C 22.296188 21.451077 22.538711 23.205541 22.03125 24.8125 L 21.0625 27.6875 L 22.9375 28.3125 L 23.9375 25.4375 A 1.0001 1.0001 0 0 0 23.96875 25.40625 C 24.661289 23.213209 24.303812 20.748923 22.78125 18.875 C 21.784403 17.628941 21.452359 15.949786 21.875 14.34375 C 22.124121 13.39709 22.406794 12.374502 22.625 11.4375 C 22.843206 10.500498 23 9.7 23 9 L 23 7.4375 L 25.28125 9.71875 L 26.71875 8.28125 L 22.71875 4.28125 L 22 3.59375 z" overflow="visible" font-family="Bitstream Vera Sans" fill="#000000"/></svg>
