<?xml version="1.0" encoding="utf-8"?>
<svg xmlns="http://www.w3.org/2000/svg" viewBox="0 0 32 32" fill="#000000"><path style="text-indent:0;text-align:start;line-height:normal;text-transform:none;block-progression:tb;-inkscape-font-specification:Sans" d="M 16 4 C 9.3844277 4 4 9.3844277 4 16 C 4 22.615572 9.3844277 28 16 28 C 22.615572 28 28 22.615572 28 16 C 28 9.3844277 22.615572 4 16 4 z M 15 6.21875 L 15 25.78125 C 14.160744 25.418222 13.327425 24.600279 12.625 23.3125 C 11.641605 21.509609 11 18.890173 11 16 C 11 13.109827 11.641605 10.490391 12.625 8.6875 C 13.327425 7.399721 14.160744 6.5817784 15 6.21875 z M 17 6.21875 C 17.839256 6.5817784 18.672575 7.399721 19.375 8.6875 C 20.358395 10.490391 21 13.109827 21 16 C 21 18.890173 20.358395 21.509609 19.375 23.3125 C 18.672575 24.600279 17.839256 25.418222 17 25.78125 L 17 6.21875 z M 11.1875 7.25 C 11.083715 7.4177402 10.971103 7.5738118 10.875 7.75 C 9.6868219 9.9283264 9 12.815041 9 16 C 9 19.184959 9.6868219 22.071674 10.875 24.25 C 10.971103 24.426188 11.083715 24.58226 11.1875 24.75 C 8.090906 23.053127 6 19.789512 6 16 C 6 12.210488 8.090906 8.9468735 11.1875 7.25 z M 20.8125 7.25 C 23.909094 8.9468735 26 12.210488 26 16 C 26 19.789512 23.909094 23.053127 20.8125 24.75 C 20.916285 24.58226 21.028897 24.426188 21.125 24.25 C 22.313178 22.071674 23 19.184959 23 16 C 23 12.815041 22.313178 9.9283264 21.125 7.75 C 21.028897 7.5738118 20.916285 7.4177402 20.8125 7.25 z" overflow="visible" font-family="Sans" fill="#000000"/></svg>
