<?xml version="1.0" encoding="utf-8"?>
<svg xmlns="http://www.w3.org/2000/svg" viewBox="0 0 32 32" fill="#000000"><path style="text-indent:0;text-align:start;line-height:normal;text-transform:none;block-progression:tb;-inkscape-font-specification:Bitstream Vera Sans" d="M 5 5 L 5 6 L 5 26 L 5 27 L 6 27 L 26 27 L 27 27 L 27 26 L 27 6 L 27 5 L 26 5 L 6 5 L 5 5 z M 7 7 L 25 7 L 25 25 L 7 25 L 7 7 z M 22.625 9 C 21.954266 9.0462187 20.5275 9.2605 19.78125 10 C 18.63325 11.212 19.021 12.55425 19.25 12.78125 C 19.48 12.93325 20.86975 13.4005 22.09375 12.1875 C 23.01275 11.2015 23 9 23 9 C 23 9 22.848578 8.9845938 22.625 9 z M 17.84375 10 C 16.87375 10.076 15.41775 10.968 15.09375 12.25 C 14.68975 13.833 15.66525 14.89275 15.90625 14.96875 C 16.14925 15.04375 17.0775 14.50075 17.5625 13.21875 C 18.2105 11.48375 17.92475 9.925 17.84375 10 z M 13.71875 12.8125 C 13.71875 12.8125 12.001 13.7705 12 15.6875 C 12 17.6035 12.73975 18.03125 13.21875 18.03125 C 13.69775 18.03125 14.59375 17.114 14.59375 15.75 C 14.59375 13.764 13.71875 12.8125 13.71875 12.8125 z M 21.0625 14.03125 C 20.4695 14.02875 19.64875 14.114 18.78125 14.4375 C 17.49925 14.9225 16.95525 15.85075 17.03125 16.09375 C 17.10625 16.33675 18.167 17.31125 19.75 16.90625 C 21.033 16.58225 21.925 15.12625 22 14.15625 C 22.0375 14.11575 21.6555 14.03375 21.0625 14.03125 z M 10.71875 15.8125 C 10.71875 15.8125 9 16.7705 9 18.6875 C 9 20.6035 9.73975 21.03125 10.21875 21.03125 C 10.69775 21.03125 11.59475 20.114 11.59375 18.75 C 11.59375 16.764 10.71875 15.8125 10.71875 15.8125 z M 16.25 17.40625 C 14.886 17.40625 13.96875 18.30225 13.96875 18.78125 C 13.96875 19.26025 14.3955 20 16.3125 20 C 18.2295 20 19.1875 18.28125 19.1875 18.28125 C 19.1875 18.28125 18.236 17.40625 16.25 17.40625 z M 13.25 20.40625 C 11.886 20.40625 10.96875 21.30225 10.96875 21.78125 C 10.96875 22.26025 11.3955 23 13.3125 23 C 15.2295 23 16.1875 21.28125 16.1875 21.28125 C 16.1875 21.28125 15.236 20.40625 13.25 20.40625 z" overflow="visible" font-family="Bitstream Vera Sans" fill="#000000"/></svg>
