<?xml version="1.0" encoding="utf-8"?>
<svg xmlns="http://www.w3.org/2000/svg" viewBox="0 0 32 32" fill="#000000"><path style="text-indent:0;text-align:start;line-height:normal;text-transform:none;block-progression:tb;-inkscape-font-specification:Bitstream Vera Sans" d="M 13 4 L 13 5 L 12 5 C 12 5.5545455 11.554545 6 11 6 C 10.445455 6 10 5.5545455 10 5 L 8 5 C 8 5.5545455 7.5545455 6 7 6 C 6.4454545 6 6 5.5545455 6 5 L 4 5 C 4 6.6454545 5.3545455 8 7 8 C 7.7670722 8 8.4671255 7.6997343 9 7.21875 C 9.5328745 7.6997343 10.232928 8 11 8 C 11.767072 8 12.467126 7.6997343 13 7.21875 L 13 10 L 12 10 C 12 10.554545 11.554545 11 11 11 C 10.445455 11 10 10.554545 10 10 L 8 10 C 8 10.554545 7.5545455 11 7 11 C 6.4454545 11 6 10.554545 6 10 L 4 10 C 4 11.645455 5.3545455 13 7 13 C 7.7670722 13 8.4671255 12.699734 9 12.21875 C 9.5328745 12.699734 10.232928 13 11 13 C 11.767072 13 12.467126 12.699734 13 12.21875 L 13 15 L 12 15 C 12 15.554545 11.554545 16 11 16 C 10.445455 16 10 15.554545 10 15 L 8 15 C 8 15.554545 7.5545455 16 7 16 C 6.4454545 16 6 15.554545 6 15 L 4 15 C 4 16.645455 5.3545455 18 7 18 C 7.7670722 18 8.4671255 17.699734 9 17.21875 C 9.5328745 17.699734 10.232928 18 11 18 C 11.767072 18 12.467126 17.699734 13 17.21875 L 13 20 L 12 20 C 12 20.554545 11.554545 21 11 21 C 10.445455 21 10 20.554545 10 20 L 8 20 C 8 20.554545 7.5545455 21 7 21 C 6.4454545 21 6 20.554545 6 20 L 4 20 C 4 21.645455 5.3545455 23 7 23 C 7.7670722 23 8.4671255 22.699734 9 22.21875 C 9.5328745 22.699734 10.232928 23 11 23 C 11.767072 23 12.467126 22.699734 13 22.21875 L 13 25 L 12 25 C 12 25.554545 11.554545 26 11 26 C 10.445455 26 10 25.554545 10 25 L 8 25 C 8 25.554545 7.5545455 26 7 26 C 6.4454545 26 6 25.554545 6 25 L 4 25 C 4 26.645455 5.3545455 28 7 28 C 7.7670722 28 8.4671255 27.699734 9 27.21875 C 9.5328745 27.699734 10.232928 28 11 28 C 11.767072 28 12.467126 27.699734 13 27.21875 L 13 28 L 14 28 L 19 28 L 20.09375 28 L 20.09375 27.84375 C 20.38298 27.937711 20.681193 28 21 28 C 21.767072 28 22.467126 27.699734 23 27.21875 C 23.532874 27.699734 24.232928 28 25 28 C 26.645455 28 28 26.645455 28 25 L 26 25 C 26 25.554545 25.554545 26 25 26 C 24.445455 26 24 25.554545 24 25 L 22 25 C 22 25.554545 21.554545 26 21 26 C 20.445455 26 20 25.554545 20 25 L 19.8125 25 L 19.625 22.65625 C 20.038197 22.872204 20.505315 23 21 23 C 21.767072 23 22.467126 22.699734 23 22.21875 C 23.532874 22.699734 24.232928 23 25 23 C 26.645455 23 28 21.645455 28 20 L 26 20 C 26 20.554545 25.554545 21 25 21 C 24.445455 21 24 20.554545 24 20 L 22 20 C 22 20.554545 21.554545 21 21 21 C 20.445455 21 20 20.554545 20 20 L 19.375 20 L 19.125 17.34375 C 19.63925 17.756518 20.295842 18 21 18 C 21.767072 18 22.467126 17.699734 23 17.21875 C 23.532874 17.699734 24.232928 18 25 18 C 26.645455 18 28 16.645455 28 15 L 26 15 C 26 15.554545 25.554545 16 25 16 C 24.445455 16 24 15.554545 24 15 L 22 15 C 22 15.554545 21.554545 16 21 16 C 20.445455 16 20 15.554545 20 15 L 18.90625 15 L 18 4.90625 L 17.90625 4 L 17 4 L 14 4 L 13 4 z M 15 6 L 16.09375 6 L 17.90625 26 L 15 26 L 15 6 z" fill="#000000"/></svg>
