<?xml version="1.0" encoding="utf-8"?>
<svg xmlns="http://www.w3.org/2000/svg" viewBox="0 0 32 32" fill="#000000"><path d="M 5 6 C 3.355 6 2 7.355 2 9 L 2 23 C 2 24.645 3.355 26 5 26 L 16.265625 26 C 17.160607 29.438915 20.291044 32 24 32 C 28.4 32 32 28.4 32 24 C 32 21.985981 31.240003 20.144636 30 18.734375 L 30 9 C 30 7.355 28.645 6 27 6 L 5 6 z M 5 8 L 27 8 C 27.565 8 28 8.435 28 9 L 28 17.087891 C 26.82045 16.40061 25.45638 16 24 16 C 21.488603 16 19.240982 17.175028 17.771484 19 L 16 19 L 16 21 L 16.591797 21 C 16.212827 21.928256 16 22.93963 16 24 L 5 24 C 4.435 24 4 23.565 4 23 L 4 9 C 4 8.435 4.435 8 5 8 z M 6 12 L 6 16 L 11 16 L 11 12 L 6 12 z M 16 12 L 16 14 L 25 14 L 25 12 L 16 12 z M 24 18 C 27.3 18 30 20.7 30 24 C 30 27.3 27.3 30 24 30 C 20.7 30 18 27.3 18 24 C 18 20.7 20.7 18 24 18 z M 6 19 L 6 21 L 10 21 L 10 19 L 6 19 z M 11 19 L 11 21 L 15 21 L 15 19 L 11 19 z M 24 20 C 21.8 20 21 21.8 21 23 L 23 23 C 23 22.5 23.2 22 24 22 C 24.8 22 25 22.5 25 23 C 25 23.5 24.499219 23.800391 24.199219 23.900391 L 24 23.900391 C 23.4 24.100391 23 24.700391 23 25.400391 L 23 26 L 25 26 L 25 25.699219 C 26 25.299219 27 24.3 27 23 C 27 21.8 26.2 20 24 20 z M 23 27 L 23 29 L 25 29 L 25 27 L 23 27 z" fill="#000000"/></svg>
