<?xml version="1.0" encoding="utf-8"?>
<svg xmlns="http://www.w3.org/2000/svg" viewBox="0 0 32 32" fill="#000000"><path style="text-indent:0;text-align:start;line-height:normal;text-transform:none;block-progression:tb;-inkscape-font-specification:Sans" d="M 14 4 C 10.145666 4 7 7.1456661 7 11 C 7 13.408959 8.2311687 15.552158 10.09375 16.8125 C 6.5266132 18.342333 4 21.881262 4 26 L 6 26 C 6 21.569334 9.5693339 18 14 18 C 15.376046 18 16.65445 18.35784 17.78125 18.96875 C 16.671114 20.342565 16 22.103031 16 24 C 16 28.406433 19.593567 32 24 32 C 28.406433 32 32 28.406433 32 24 C 32 19.593567 28.406433 16 24 16 C 22.252849 16 20.630732 16.574679 19.3125 17.53125 C 18.896602 17.269943 18.454675 17.043564 18 16.84375 C 19.09888 16.261363 20.143724 15.524664 21.09375 14.8125 C 23.158593 13.264642 24.71875 11.71875 24.71875 11.71875 L 25.40625 11 L 24.71875 10.3125 C 24.71875 10.3125 23.20752 8.737676 21.15625 7.1875 C 19.10498 5.637324 16.545819 4 14 4 z M 14 6 C 15.575181 6 18.01902 7.362676 19.9375 8.8125 C 21.392955 9.9124091 21.988139 10.532473 22.46875 11 C 21.975177 11.470775 21.371635 12.089011 19.90625 13.1875 C 17.969093 14.639642 15.494998 16 14 16 C 11.226334 16 9 13.773666 9 11 C 9 8.2263339 11.226334 6 14 6 z M 24 18 C 25.296258 18 26.490169 18.432147 27.46875 19.125 L 19.125 27.46875 C 18.432147 26.490169 18 25.296258 18 24 C 18 20.674447 20.674447 18 24 18 z M 28.875 20.53125 C 29.567853 21.509831 30 22.703742 30 24 C 30 27.325553 27.325553 30 24 30 C 22.703742 30 21.509831 29.567853 20.53125 28.875 L 28.875 20.53125 z" overflow="visible" font-family="Sans" fill="#000000"/></svg>
