<?xml version="1.0" encoding="utf-8"?>
<svg xmlns="http://www.w3.org/2000/svg" viewBox="0 0 32 32" fill="#000000"><path style="text-indent:0;text-align:start;line-height:normal;text-transform:none;block-progression:tb;-inkscape-font-specification:Bitstream Vera Sans" d="M 0 7 L 0 8 L 0 24 L 0 25 L 1 25 L 31 25 L 32 25 L 32 24 L 32 8 L 32 7 L 31 7 L 1 7 L 0 7 z M 2 9 L 30 9 L 30 23 L 2 23 L 2 9 z M 7.96875 12 L 7.65625 12.34375 C 7.65625 12.34375 6.9001894 13 6.40625 13 L 6.40625 15 C 7.0870573 15 7.5556152 14.723501 8 14.46875 L 8 20 L 10 20 L 10 13 L 10 12 L 9 12 L 8.40625 12 L 7.96875 12 z M 14.5 12 C 13.116667 12 12 13.116667 12 14.5 L 12 15 L 14 15 L 14 14.5 C 14 14.283333 14.283333 14 14.5 14 C 14.716667 14 15 14.283333 15 14.5 L 15 15.3125 C 15 15.37917 14.92412 15.544635 14.78125 15.6875 L 12.3125 18.09375 L 12 18.375 L 12 18.8125 L 12 19 L 12 20 L 13 20 L 17 20 L 17 18 L 15.28125 18 L 16.1875 17.125 L 16.21875 17.09375 C 16.675885 16.636615 17 16.045833 17 15.3125 L 17 14.5 C 17 13.116667 15.883333 12 14.5 12 z M 21.5 12 C 20.116667 12 19 13.116667 19 14.5 L 19 17.5 C 19 18.883333 20.116667 20 21.5 20 C 22.883333 20 24 18.883333 24 17.5 L 24 17 L 22 17 L 22 17.5 C 22 17.716667 21.716667 18 21.5 18 C 21.283333 18 21 17.716667 21 17.5 L 21 14.5 C 21 14.283333 21.283333 14 21.5 14 C 21.716667 14 22 14.283333 22 14.5 L 22 15 L 24 15 L 24 14.5 C 24 13.116667 22.883333 12 21.5 12 z" overflow="visible" font-family="Bitstream Vera Sans" fill="#000000"/></svg>
