<?xml version="1.0" encoding="utf-8"?>
<svg xmlns="http://www.w3.org/2000/svg" viewBox="0 0 32 32" fill="#000000"><path style="text-indent:0;text-align:start;line-height:normal;text-transform:none;block-progression:tb;-inkscape-font-specification:Bitstream Vera Sans" d="M 9 3 C 7.8954305 3 7 3.8954305 7 5 C 7 6.1045695 7.8954305 7 9 7 C 9.0316751 7 9.062435 7.0014565 9.09375 7 L 10.34375 9 C 8.551583 10.451202 7.3342655 12.593143 7.0625 15 L 5.71875 15 C 5.3727074 14.403104 4.7396043 14 4 14 C 2.8954305 14 2 14.895431 2 16 C 2 17.104569 2.8954305 18 4 18 C 4.7396043 18 5.3727074 17.596896 5.71875 17 L 7.0625 17 C 7.358716 19.6234 8.7829002 21.928603 10.84375 23.375 L 9.96875 25 C 8.878761 25.016893 8 25.905989 8 27 C 8 28.104569 8.8954305 29 10 29 C 11.104569 29 12 28.104569 12 27 C 12 26.625361 11.897989 26.268494 11.71875 25.96875 L 12.59375 24.3125 C 13.645239 24.744648 14.795466 25 16 25 C 17.614634 25 19.125254 24.56161 20.4375 23.8125 L 22.15625 26.1875 C 22.048232 26.43342 22 26.714184 22 27 C 22 28.104569 22.895431 29 24 29 C 25.104569 29 26 28.104569 26 27 C 26 25.895431 25.104569 25 24 25 C 23.93665 25 23.874345 24.994239 23.8125 25 L 22.0625 22.625 C 23.626274 21.193104 24.687428 19.214734 24.9375 17 L 26.28125 17 C 26.627293 17.596896 27.260396 18 28 18 C 29.104569 18 30 17.104569 30 16 C 30 14.895431 29.104569 14 28 14 C 27.260396 14 26.627293 14.403104 26.28125 15 L 24.9375 15 C 24.760634 13.433612 24.190959 11.969263 23.3125 10.75 L 25.375 8.90625 C 25.571013 8.9704264 25.782538 9 26 9 C 27.104569 9 28 8.1045695 28 7 C 28 5.8954305 27.104569 5 26 5 C 24.895431 5 24 5.8954305 24 7 C 24 7.1484265 24.000578 7.2982914 24.03125 7.4375 L 22 9.28125 C 20.40721 7.8573609 18.297053 7 16 7 C 14.575336 7 13.230373 7.3444148 12.03125 7.9375 L 10.78125 5.9375 C 10.926884 5.6600809 11 5.3350645 11 5 C 11 3.8954305 10.104569 3 9 3 z M 16 9 C 19.877838 9 23 12.122162 23 16 C 23 19.877838 19.877838 23 16 23 C 12.122162 23 9 19.877838 9 16 C 9 12.122162 12.122162 9 16 9 z M 15 11 L 15 12.0625 C 13.876762 12.248447 13 13.202106 13 14.375 C 13 15.130429 13.417398 15.819072 14.09375 16.15625 L 17 17.625 C 17 17.847152 16.847152 18 16.625 18 L 15.375 18 C 15.152848 18 15 17.847152 15 17.625 L 15 17 L 13 17 L 13 17.625 C 13 18.797894 13.876762 19.751553 15 19.9375 L 15 21 L 17 21 L 17 19.9375 C 18.123238 19.751553 19 18.797894 19 17.625 C 19 16.869571 18.580523 16.181881 17.90625 15.84375 L 15 14.375 C 15 14.152848 15.152848 14 15.375 14 L 16.625 14 C 16.847152 14 17 14.152848 17 14.375 L 17 15 L 19 15 L 19 14.375 C 19 13.202106 18.123238 12.248447 17 12.0625 L 17 11 L 15 11 z" fill="#000000"/></svg>
