<?xml version="1.0" encoding="utf-8"?>
<svg xmlns="http://www.w3.org/2000/svg" viewBox="0 0 32 32" fill="#000000"><path style="text-indent:0;text-align:start;line-height:normal;text-transform:none;block-progression:tb;-inkscape-font-specification:Bitstream Vera Sans" d="M 5 5 L 5 9.09375 L 7 8.625 L 7 5 L 5 5 z M 9 5 L 9 17.0625 L 5 18.3125 L 5 20.40625 L 11 18.5625 L 11 12.0625 L 13.375 13.96875 L 13.65625 14.1875 L 14 14.1875 L 21 14.1875 L 21 16.8125 L 27 19.8125 L 27 17.59375 L 23 15.59375 L 23 14.1875 L 23 13.1875 L 23 5 L 21 5 L 21 12.1875 L 19.1875 12.1875 L 19.1875 11.1875 C 19.1875 10.5245 18.663 10 18 10 C 17.337 10 16.8125 10.5245 16.8125 11.1875 L 16.8125 12.1875 L 15 12.1875 L 15 5 L 13 5 L 13 11.125 L 11 9.53125 L 11 5 L 9 5 z M 25 5 L 25 8.0625 L 27 8.625 L 27 5 L 25 5 z M 16.8125 6 L 16.8125 8.40625 L 19.1875 8.40625 L 19.1875 6 L 16.8125 6 z M 25 10.75 L 25 14.375 L 27 15.46875 L 27 11.59375 L 25 10.75 z M 5.78125 12.15625 C 5.31825 12.25325 5 12.68325 5 13.15625 L 5 16.25 L 7 15.8125 L 7 13.15625 C 7 12.52225 6.40225 12.02525 5.78125 12.15625 z M 5 25 L 5 27 L 27 27 L 27 25 L 5 25 z" fill="#000000"/></svg>
