<?xml version="1.0" encoding="utf-8"?>
<svg xmlns="http://www.w3.org/2000/svg" viewBox="0 0 32 32" fill="#000000"><path style="text-indent:0;text-align:start;line-height:normal;text-transform:none;block-progression:tb;-inkscape-font-specification:Bitstream Vera Sans" d="M 5 5 L 5 7 L 7 7 C 7.5650302 7 8 7.4349698 8 8 L 8 9 L 8 19 L 8 20 L 8 27 L 10 27 L 10 20 L 12 20 L 12 22 L 23 22 L 23 20 L 24 20 C 25.64497 20 27 18.64497 27 17 L 27 11 C 27 9.3550302 25.64497 8 24 8 L 10 8 C 10 6.3550302 8.6449698 5 7 5 L 5 5 z M 10 10 L 24 10 C 24.56503 10 25 10.43497 25 11 L 25 17 C 25 17.56503 24.56503 18 24 18 L 10 18 L 10 10 z M 19 12 L 19 16 L 23 16 L 23 12 L 19 12 z M 16 12.5 C 15.554111 12.5 15.149751 12.691152 14.875 13 L 12 13 L 12 15 L 14.875 15 C 15.149751 15.308848 15.554111 15.5 16 15.5 C 16.828427 15.5 17.5 14.828427 17.5 14 C 17.5 13.171573 16.828427 12.5 16 12.5 z" overflow="visible" font-family="Bitstream Vera Sans" fill="#000000"/></svg>
