<?xml version="1.0" encoding="utf-8"?>
<svg xmlns="http://www.w3.org/2000/svg" viewBox="0 0 32 32" fill="#000000"><path style="text-indent:0;text-align:start;line-height:normal;text-transform:none;block-progression:tb;-inkscape-font-specification:Bitstream Vera Sans" d="M 4 4 L 4 28 L 6 28 L 6 4 L 4 4 z M 19.71875 4.28125 L 18.28125 5.71875 L 24.5625 12 L 21 12 L 21 14 L 27 14 L 28 14 L 28 13 L 28 7 L 26 7 L 26 10.5625 L 19.71875 4.28125 z M 8 8 L 8 28 L 10 28 L 10 8 L 8 8 z M 12 12 L 12 28 L 14 28 L 14 12 L 12 12 z M 16 16 L 16 28 L 18 28 L 18 16 L 16 16 z M 20 20 L 20 28 L 22 28 L 22 20 L 20 20 z M 24 24 L 24 28 L 26 28 L 26 24 L 24 24 z" fill="#000000"/></svg>
