<?xml version="1.0" encoding="utf-8"?>
<svg xmlns="http://www.w3.org/2000/svg" viewBox="0 0 32 32" fill="#000000"><path style="text-indent:0;text-align:start;line-height:normal;text-transform:none;block-progression:tb;-inkscape-font-specification:Sans" d="M 13.59375 4.0625 C 12.255899 4.0625 11 5.1373837 11 6.5625 L 11 6.59375 C 11 7.873432 12.016664 8.9214011 13.25 9.0625 C 13.2596 9.06359 13.27166 9.061515 13.28125 9.0625 C 14.886118 9.2348207 16.001852 9.7730856 16.6875 10.28125 C 16.942191 10.470013 17.110363 10.655483 17.25 10.8125 C 17.075394 11.314604 17 11.847711 17 12.375 C 17 12.63833 16.92458 12.758205 16.6875 12.96875 C 16.450417 13.179295 16.045545 13.399474 15.53125 13.5625 C 14.502659 13.888552 13.142547 14 12.375 14 C 7.6658723 14 5 17.116637 5 19.9375 C 5 19.99184 4.9978924 20.040694 5 20.09375 C 4.413588 20.29759 4 20.844162 4 21.5 C 4 22.328427 4.6715729 23 5.5 23 C 5.7485281 23 5.981103 22.919486 6.1875 22.8125 C 6.2106143 22.839065 6.2274439 22.880998 6.25 22.90625 C 6.5183303 23.206646 6.7579378 23.452353 6.875 23.625 C 6.9920622 23.797647 7 23.872303 7 24 C 7 24.19625 6.844464 24.538221 6.59375 25.03125 C 6.343036 25.524279 6 26.155738 6 27 L 6 28 L 7 28 L 19 28 L 19.84375 28 L 20 27.15625 C 20 27.15625 20.05362 26.729797 19.9375 26.28125 C 19.821376 25.832703 19.516827 25.253439 18.96875 24.75 C 18.498231 24.317802 17.849572 23.95334 16.96875 23.65625 C 17.020467 23.612894 17.07527 23.578379 17.125 23.53125 C 17.634611 23.04829 18 22.311234 18 21.5 C 18 20.79007 17.690536 20.144622 17.28125 19.6875 C 16.871964 19.230378 16.386028 18.92874 15.875 18.6875 C 14.852944 18.20502 13.789835 18 13 18 L 13 20 C 13.372165 20 14.312556 20.17548 15 20.5 C 15.343722 20.66226 15.622098 20.853497 15.78125 21.03125 C 15.940402 21.209003 16 21.32393 16 21.5 C 16 21.764766 15.94789 21.87496 15.75 22.0625 C 15.552111 22.25004 15.194825 22.445197 14.75 22.59375 C 13.86035 22.890857 12.657196 23 12 23 L 12 25 C 15.054658 25 16.402534 25.536608 17.125 26 L 8.375 26 C 8.38943 25.97103 8.391011 25.96747 8.40625 25.9375 C 8.655536 25.447279 9 24.83975 9 24 C 9 23.408697 8.7579378 22.880415 8.5 22.5 C 8.2420622 22.119585 7.9816697 21.821854 7.75 21.5625 C 7.2866605 21.043791 7 20.72297 7 19.9375 C 7 18.394363 8.5241277 16 12.375 16 C 13.300453 16 14.762341 15.9007 16.125 15.46875 C 16.80633 15.252776 17.477427 14.96058 18.03125 14.46875 C 18.585073 13.97692 19 13.22667 19 12.375 C 19 11.706232 19.380807 11.033948 19.5 10.96875 C 19.491416 10.376387 19.264141 10.136258 19 9.78125 C 18.730711 9.4193231 18.366064 9.0201992 17.875 8.65625 C 16.892873 7.9283517 15.433823 7.2661799 13.46875 7.0625 C 13.177187 7.0325475 13 6.850148 13 6.59375 L 13 6.5625 C 13 6.2676163 13.213601 6.0625 13.59375 6.0625 C 17.107146 6.0625 19.46875 9.5625 19.46875 9.5625 L 19.78125 10 L 20.3125 10 L 21.75 10 C 22.96874 10 24.002421 10.599164 24.78125 11.4375 C 25.431075 12.136976 25.790049 12.952667 25.90625 13.59375 C 25.472797 13.981393 24.215342 15 22.03125 15 C 21.297003 15 19.8125 14.46875 19.8125 14.46875 L 19.09375 16.34375 C 19.09375 16.34375 19.938707 16.72168 20.96875 16.90625 C 20.906616 17.699032 20.749802 18.213847 20.5625 18.75 C 20.321671 19.439373 20 20.240833 20 21.40625 C 20 22.61236 20.771975 23.335698 21.375 23.96875 C 21.978025 24.601802 22.5625 25.0625 22.5625 25.0625 L 22.75 25.21875 L 23 25.25 C 23 25.25 23.183827 25.28895 23.4375 25.5 C 23.52206 25.57035 23.543509 25.884064 23.625 26 L 21 26 L 21 28 L 25 28 L 26 28 L 26 27 C 26 25.537587 25.375577 24.515204 24.71875 23.96875 C 24.270914 23.596168 24.042278 23.574919 23.78125 23.5 C 23.78125 23.5 23.298975 23.104448 22.8125 22.59375 C 22.326025 22.083052 22 21.36114 22 21.40625 C 22 20.574667 22.178329 20.148127 22.4375 19.40625 C 22.647528 18.805045 22.854405 18.009221 22.9375 16.9375 C 25.88902 16.590792 27.71875 14.6875 27.71875 14.6875 L 28 14.40625 L 28 14 C 28 12.638304 27.329671 11.224664 26.25 10.0625 C 25.170329 8.9003364 23.61726 8 21.75 8 L 20.75 8 C 20.253935 7.2866918 17.889296 4.0625 13.59375 4.0625 z M 23 11 C 22.447715 11 22 11.447715 22 12 C 22 12.552285 22.447715 13 23 13 C 23.552285 13 24 12.552285 24 12 C 24 11.447715 23.552285 11 23 11 z" overflow="visible" font-family="Sans" fill="#000000"/></svg>
