<?xml version="1.0" encoding="utf-8"?>
<svg xmlns="http://www.w3.org/2000/svg" viewBox="0 0 32 32" fill="#000000"><path style="text-indent:0;text-align:start;line-height:normal;text-transform:none;block-progression:tb;-inkscape-font-specification:Sans" d="M 5 5 C 3.3550302 5 2 6.3550302 2 8 L 2 20 C 2 21.64497 3.3550302 23 5 23 L 6 23 L 6 24 C 6 25.64497 7.3550302 27 9 27 L 27 27 C 28.64497 27 30 25.64497 30 24 L 30 12 C 30 10.35503 28.64497 9 27 9 L 26 9 L 26 8 C 26 6.3550302 24.64497 5 23 5 L 5 5 z M 5 7 L 23 7 C 23.56503 7 24 7.4349698 24 8 L 24 9 L 5 9 L 5 11 L 24 11 L 24 20 C 24 20.56503 23.56503 21 23 21 L 5 21 C 4.4349698 21 4 20.56503 4 20 L 4 8 C 4 7.4349698 4.4349698 7 5 7 z M 26 11 L 27 11 C 27.56503 11 28 11.43497 28 12 L 28 13 L 26 13 L 26 11 z M 26 15 L 28 15 L 28 24 C 28 24.56503 27.56503 25 27 25 L 9 25 C 8.4349698 25 8 24.56503 8 24 L 8 23 L 23 23 C 24.64497 23 26 21.64497 26 20 L 26 15 z" overflow="visible" font-family="Sans" fill="#000000"/></svg>
