<?xml version="1.0" encoding="utf-8"?>
<svg xmlns="http://www.w3.org/2000/svg" viewBox="0 0 32 32" fill="#000000"><path style="line-height:normal;text-indent:0;text-align:start;text-decoration-line:none;text-decoration-style:solid;text-decoration-color:#000;text-transform:none;block-progression:tb;isolation:auto;mix-blend-mode:normal" d="M 15 3 C 10.041484 3 6 7.0414839 6 12 C 6 13.406296 6.5600246 15.003996 7.3339844 16.765625 C 8.1079442 18.527254 9.123137 20.414283 10.134766 22.158203 C 12.158022 25.646044 14.177734 28.568359 14.177734 28.568359 L 15 29.759766 L 15.822266 28.568359 C 15.822266 28.568359 17.841978 25.646044 19.865234 22.158203 C 20.876863 20.414283 21.892056 18.527254 22.666016 16.765625 C 23.439975 15.003996 24 13.406296 24 12 C 24 7.0414839 19.958516 3 15 3 z M 15 5 C 18.877484 5 22 8.1225161 22 12 C 22 12.802704 21.560025 14.308378 20.833984 15.960938 C 20.107944 17.613495 19.123137 19.450467 18.134766 21.154297 C 16.568846 23.853746 15.584375 25.261998 15 26.126953 C 14.415625 25.261998 13.431154 23.853746 11.865234 21.154297 C 10.876863 19.450467 9.8920558 17.613495 9.1660156 15.960938 C 8.4399754 14.308378 8 12.802704 8 12 C 8 8.1225161 11.122516 5 15 5 z M 15 7 L 11 10 L 11 15 L 14 15 L 14 12 L 16 12 L 16 15 L 19 15 L 19 10 L 15 7 z" font-weight="400" font-family="sans-serif" white-space="normal" overflow="visible" fill="#000000"/></svg>
