<?xml version="1.0" encoding="utf-8"?>
<svg xmlns="http://www.w3.org/2000/svg" viewBox="0 0 32 32" fill="#000000"><path style="text-indent:0;text-align:start;line-height:normal;text-transform:none;block-progression:tb;-inkscape-font-specification:Sans" d="M 3 6 L 3 7 L 3 12 L 3 13 L 4 13 L 5.0625 13 L 6 26.0625 L 6.0625 27 L 7 27 L 25 27 L 25.9375 27 L 26 26.0625 L 26.9375 13 L 28 13 L 29 13 L 29 12 L 29 7 L 29 6 L 28 6 L 4 6 L 3 6 z M 5 8 L 27 8 L 27 11 L 6 11 L 5 11 L 5 8 z M 7.0625 13 L 24.9375 13 L 24.0625 25 L 7.9375 25 L 7.0625 13 z M 13.59375 15 L 13.3125 15.5 L 11.5625 18.5 L 11.28125 19 L 11.5625 19.5 L 13.3125 22.5 L 13.59375 23 L 14.15625 23 L 17.625 23 L 18.21875 23 L 18.5 22.5 L 20.21875 19.5 L 20.53125 19 L 20.21875 18.5 L 18.5 15.5 L 18.21875 15 L 17.625 15 L 14.15625 15 L 13.59375 15 z M 14.75 17 L 17.0625 17 L 18.21875 19 L 17.0625 21 L 14.75 21 L 13.59375 19 L 14.75 17 z" overflow="visible" font-family="Sans" fill="#000000"/></svg>
