<?xml version="1.0" encoding="utf-8"?>
<svg xmlns="http://www.w3.org/2000/svg" viewBox="0 0 32 32" fill="#000000"><path style="line-height:normal;text-indent:0;text-align:start;text-decoration-line:none;text-decoration-style:solid;text-decoration-color:#000;text-transform:none;block-progression:tb;isolation:auto;mix-blend-mode:normal" d="M 16 5 C 12.145666 5 9 8.1456661 9 12 C 9 14.40798 10.228534 16.53829 12.089844 17.798828 C 8.51515 19.325322 6 22.875791 6 27 L 8 27 C 8 24.761721 8.9120643 22.744439 10.384766 21.294922 L 12.785156 24.34375 L 16.554688 21.832031 L 15.445312 20.167969 L 13.214844 21.65625 L 11.980469 20.085938 C 13.16149 19.399761 14.530839 19 16 19 C 18.497002 19 21.032814 17.348639 23.097656 15.800781 C 25.162499 14.252923 26.707031 12.707031 26.707031 12.707031 L 27.408203 12.007812 L 26.714844 11.300781 C 26.714844 11.300781 25.199708 9.753301 23.148438 8.203125 C 21.097167 6.652949 18.545819 5 16 5 z M 16 7 C 17.575181 7 20.02488 8.347051 21.943359 9.796875 C 23.395558 10.894323 23.990039 11.524833 24.472656 11.994141 C 23.981637 12.462683 23.365992 13.097639 21.896484 14.199219 C 19.959327 15.651361 17.494998 17 16 17 C 13.226334 17 11 14.773666 11 12 C 11 9.2263339 13.226334 7 16 7 z M 24 18 L 24 20.101562 C 23.364756 20.23195 22.773894 20.488154 22.25 20.835938 L 20.755859 19.34375 L 19.34375 20.757812 L 20.835938 22.25 C 20.488154 22.773894 20.23195 23.364756 20.101562 24 L 18 24 L 18 26 L 20.101562 26 C 20.23195 26.635244 20.488154 27.226106 20.835938 27.75 L 19.34375 29.242188 L 20.755859 30.65625 L 22.25 29.164062 C 22.773894 29.511846 23.364756 29.76805 24 29.898438 L 24 32 L 26 32 L 26 29.898438 C 26.635244 29.76805 27.226106 29.511846 27.75 29.164062 L 29.244141 30.65625 L 30.65625 29.242188 L 29.164062 27.75 C 29.511846 27.226106 29.76805 26.635244 29.898438 26 L 32 26 L 32 24 L 29.898438 24 C 29.76805 23.364756 29.511846 22.773894 29.164062 22.25 L 30.65625 20.757812 L 29.244141 19.34375 L 27.75 20.835938 C 27.226106 20.488154 26.635244 20.23195 26 20.101562 L 26 18 L 24 18 z M 25 22 C 26.668699 22 28 23.331301 28 25 C 28 26.668699 26.668699 28 25 28 C 23.331301 28 22 26.668699 22 25 C 22 23.331301 23.331301 22 25 22 z M 25 24 A 1 1 0 0 0 24 25 A 1 1 0 0 0 25 26 A 1 1 0 0 0 26 25 A 1 1 0 0 0 25 24 z" fill="#000000"/></svg>
