<?xml version="1.0" encoding="utf-8"?>
<svg xmlns="http://www.w3.org/2000/svg" viewBox="0 0 32 32" fill="#000000"><path style="text-indent:0;text-align:start;line-height:normal;text-transform:none;block-progression:tb;-inkscape-font-specification:Sans" d="M 16 3 C 8.8321429 3 3 8.8321429 3 16 C 3 23.167857 8.8321429 29 16 29 C 23.167857 29 29 23.167857 29 16 C 29 8.8321429 23.167857 3 16 3 z M 16 5 C 22.086977 5 27 9.9130231 27 16 C 27 22.086977 22.086977 27 16 27 C 9.9130231 27 5 22.086977 5 16 C 5 9.9130231 9.9130231 5 16 5 z M 16 7 C 11.041282 7 7 11.041282 7 16 C 7 20.958718 11.041282 25 16 25 C 20.958718 25 25 20.958718 25 16 C 25 11.041282 20.958718 7 16 7 z M 16 9 C 19.877838 9 23 12.122162 23 16 C 23 19.877838 19.877838 23 16 23 C 12.122162 23 9 19.877838 9 16 C 9 12.122162 12.122162 9 16 9 z" overflow="visible" font-family="Sans" fill="#000000"/></svg>
