<?xml version="1.0" encoding="utf-8"?>
<svg xmlns="http://www.w3.org/2000/svg" viewBox="0 0 32 32" fill="#000000"><path style="text-indent:0;text-align:start;line-height:normal;text-transform:none;block-progression:tb;-inkscape-font-specification:Bitstream Vera Sans" d="M 13.5 3 C 11.578848 3 10 4.5788481 10 6.5 C 10 8.4211519 11.578848 10 13.5 10 C 15.421152 10 17 8.4211519 17 6.5 C 17 4.5788481 15.421152 3 13.5 3 z M 13.5 5 C 14.340272 5 15 5.6597281 15 6.5 C 15 7.3402719 14.340272 8 13.5 8 C 12.659728 8 12 7.3402719 12 6.5 C 12 5.6597281 12.659728 5 13.5 5 z M 13 11 C 11.358279 11 10 12.358279 10 14 L 10 19 L 10 19.40625 L 10.28125 19.71875 L 14 23.4375 L 14 29 L 16 29 L 16 23 L 16 22.59375 L 15.71875 22.28125 L 12 18.5625 L 12 14 C 12 13.439721 12.439721 13 13 13 C 13.563824 13 14 13.43135 14 14 L 14 16 L 14 16.40625 L 14.28125 16.71875 L 16.28125 18.71875 L 16.75 19.1875 L 17.375 18.9375 L 19.75 17.96875 C 20.301739 18.598045 21.106131 19 22 19 C 23.64501 19 25 17.64501 25 16 C 25 14.35499 23.64501 13 22 13 C 20.35499 13 19 14.35499 19 16 C 19 16.032111 18.998975 16.061867 19 16.09375 L 17.25 16.8125 L 16 15.5625 C 15.9968 15.163865 16 14.451143 16 14 C 16 12.35865 14.646176 11 13 11 z M 22 15 C 22.564128 15 23 15.435872 23 16 C 23 16.564128 22.564128 17 22 17 C 21.435872 17 21 16.564128 21 16 C 21 15.435872 21.435872 15 22 15 z M 10 21 L 10 29 L 12 29 L 12 23 L 10 21 z" overflow="visible" font-family="Bitstream Vera Sans" fill="#000000"/></svg>
