<?xml version="1.0" encoding="utf-8"?>
<svg xmlns="http://www.w3.org/2000/svg" viewBox="0 0 32 32" fill="#000000"><path style="text-indent:0;text-align:start;line-height:normal;text-transform:none;block-progression:tb;-inkscape-font-specification:Sans" d="M 16 5 C 13.294707 5 9.5932829 6.7516245 6.3125 8.75 C 4.6721085 9.7491877 3.1926432 10.824499 2.0625 11.84375 C 1.4974284 12.353375 1.0170498 12.845761 0.65625 13.34375 C 0.29545023 13.841739 0 14.332994 0 15 C 0 15.94903 0.51193596 16.733984 1.125 17.25 C 1.738064 17.766016 2.464034 18.095729 3.15625 18.34375 C 3.8366477 18.587536 4.4962541 18.741348 5 18.84375 L 5 22 L 5 22.3125 L 5.1875 22.59375 C 5.1875 22.59375 6.0626486 23.756464 7.8125 24.84375 C 9.5623514 25.931036 12.250365 27 16 27 C 19.749635 27 22.437649 25.931036 24.1875 24.84375 C 25.937351 23.756464 26.8125 22.59375 26.8125 22.59375 L 27 22.3125 L 27 22 L 27 18.875 C 27.507465 18.778786 28.172413 18.609968 28.84375 18.375 C 29.538821 18.131725 30.258802 17.805019 30.875 17.28125 C 31.491198 16.757481 32 15.958333 32 15 C 32 14.334733 31.704909 13.817861 31.34375 13.3125 C 30.982591 12.807139 30.5034 12.324948 29.9375 11.8125 C 28.805699 10.787605 27.328631 9.7130636 25.6875 8.71875 C 22.405239 6.7301228 18.699029 5 16 5 z M 16 7 C 17.717971 7 21.511511 8.5198772 24.625 10.40625 C 26.181744 11.349436 27.603207 12.38427 28.59375 13.28125 C 29.089021 13.72974 29.483898 14.140127 29.71875 14.46875 C 29.953602 14.797373 30 15.040267 30 15 C 30 15.291667 29.883802 15.476894 29.5625 15.75 C 29.241198 16.023106 28.711179 16.305775 28.15625 16.5 C 27.093839 16.871843 26.060019 16.990581 25.96875 17 C 25.402205 16.887311 20.852833 16 16 16 C 11.191938 16 6.6992509 16.873971 6.0625 17 C 5.9703382 16.989133 4.9122389 16.85159 3.84375 16.46875 C 3.285966 16.268896 2.761936 15.991828 2.4375 15.71875 C 2.113064 15.445672 2 15.25947 2 15 C 2 15.06276 2.046038 14.824648 2.28125 14.5 C 2.5164619 14.175352 2.9101497 13.759922 3.40625 13.3125 C 4.3984505 12.417657 5.8175165 11.386187 7.375 10.4375 C 10.489967 8.5401255 14.288293 7 16 7 z M 12.875 11 C 11.046 11 9 12 9 12 C 12.048 12 14.0545 13.087 15.0625 13.75 C 15.0405 13.833 15 13.91 15 14 C 15 14.552 15.448 15 16 15 C 16.552 15 17 14.552 17 14 C 17 13.91 16.9595 13.833 16.9375 13.75 C 17.9455 13.087 19.952 12 23 12 C 23 12 20.954 11 19.125 11 C 17.311 11 16 11.96875 16 11.96875 C 16 11.96875 14.689 11 12.875 11 z M 16 18 C 20.258404 18 23.948485 18.648087 25 18.84375 L 25 20.78125 C 23.39983 20.476453 20.301955 20 16 20 C 11.698045 20 8.60017 20.476453 7 20.78125 L 7 18.84375 C 8.0515146 18.648087 11.741596 18 16 18 z M 16 22 C 19.615682 22 22.258124 22.346746 23.90625 22.625 C 23.693823 22.786933 23.453607 22.971484 23.15625 23.15625 C 21.687351 24.068964 19.375365 25 16 25 C 12.624635 25 10.312649 24.068964 8.84375 23.15625 C 8.5463926 22.971484 8.3061769 22.786933 8.09375 22.625 C 9.7418755 22.346746 12.384318 22 16 22 z" overflow="visible" font-family="Sans" fill="#000000"/></svg>
