<?xml version="1.0" encoding="utf-8"?>
<svg xmlns="http://www.w3.org/2000/svg" viewBox="0 0 32 32" fill="#000000"><path style="line-height:normal;text-indent:0;text-align:start;text-decoration-line:none;text-decoration-style:solid;text-decoration-color:#000;text-transform:none;block-progression:tb;isolation:auto;mix-blend-mode:normal" d="M 13.390625 2.859375 C 12.884935 2.8352813 12.338658 2.8840856 11.757812 3.0292969 C 9.9013994 3.4934003 8.8703681 4.8057142 8.421875 5.9121094 C 8.1672817 6.5401699 8.2219926 6.7126005 8.1816406 7.109375 C 7.2043513 7.1621494 5.1764706 7.4107306 4.1054688 9.5527344 C 3.2719585 11.219755 3.5457518 12.719008 4.1347656 13.611328 C 4.7237794 14.503648 5.5625 14.900391 5.5625 14.900391 L 6.4375 13.099609 C 6.4375 13.099609 6.0691737 12.910446 5.8046875 12.509766 C 5.5402013 12.109085 5.3140412 11.608245 5.8945312 10.447266 C 6.5367602 9.162807 9 9 9 9 L 10.021484 9 L 10 7.9785156 C 10 7.9785156 9.9908796 7.3659173 10.275391 6.6640625 C 10.559898 5.9622077 11.0306 5.2735997 12.242188 4.9707031 C 13.918807 4.5515483 14.663779 5.1028591 15.240234 5.7753906 C 15.81669 6.4479222 16.029297 7.2421875 16.029297 7.2421875 L 18 7 C 18 7 17.992781 6.8436094 18.175781 6.5996094 C 18.358781 6.3556094 18.722222 6 20 6 C 22.333333 6 23.050781 8.3164062 23.050781 8.3164062 L 23.279297 9 L 24 9 C 24 9 24.405259 9.0005832 24.929688 9.1054688 C 25.454114 9.2103542 26.028671 9.4427336 26.292969 9.7070312 C 26.69385 10.107913 26.780653 10.409398 26.787109 10.744141 C 26.793609 11.078883 26.670924 11.474497 26.460938 11.859375 C 26.040962 12.629131 25.349609 13.240234 25.349609 13.240234 L 26.650391 14.759766 C 26.650391 14.759766 27.577772 13.989603 28.216797 12.818359 C 28.536309 12.232737 28.802778 11.517461 28.787109 10.705078 C 28.771441 9.8926958 28.42415 9.0100873 27.707031 8.2929688 C 26.971329 7.5572664 26.045886 7.2896457 25.320312 7.1445312 C 24.912401 7.0629487 24.821127 7.0779448 24.578125 7.0625 C 24.192567 6.2037466 23.048304 4 20 4 C 18.601004 4 17.689205 4.4665082 17.054688 5.03125 C 16.900123 4.7726964 16.984873 4.7372351 16.759766 4.4746094 C 16.067107 3.666508 14.907694 2.9316561 13.390625 2.859375 z M 9.3066406 12 L 9.0644531 12.648438 L 7.2441406 17.503906 L 6.4472656 17.105469 L 5.5527344 16.658203 L 4.6582031 18.447266 L 5.5527344 18.894531 L 6.5371094 19.386719 L 6 20.818359 L 6 27 L 6 29 L 8 29 L 8 27 L 24 27 L 24 29 L 26 29 L 26 27 L 26 20.818359 L 25.462891 19.386719 L 26.447266 18.894531 L 27.341797 18.447266 L 26.447266 16.658203 L 25.552734 17.105469 L 24.757812 17.503906 L 22.693359 12 L 9.3066406 12 z M 10.693359 14 L 21.306641 14 L 22.806641 18 L 9.1933594 18 L 10.693359 14 z M 8.4433594 20 L 23.556641 20 L 24 21.181641 L 24 25 L 8 25 L 8 21.181641 L 8.4433594 20 z M 10.5 21 A 1.5 1.5 0 0 0 9 22.5 A 1.5 1.5 0 0 0 10.5 24 A 1.5 1.5 0 0 0 12 22.5 A 1.5 1.5 0 0 0 10.5 21 z M 21.5 21 A 1.5 1.5 0 0 0 20 22.5 A 1.5 1.5 0 0 0 21.5 24 A 1.5 1.5 0 0 0 23 22.5 A 1.5 1.5 0 0 0 21.5 21 z" font-weight="400" font-family="sans-serif" white-space="normal" overflow="visible" fill="#000000"/></svg>
