<?xml version="1.0" encoding="utf-8"?>
<svg xmlns="http://www.w3.org/2000/svg" viewBox="0 0 32 32" fill="#000000"><path d="M 11 4 C 11 4 9.789521 3.99123 8.40625 4.65625 C 7.022979 5.3212729 5.4157978 6.7202512 4.5625 9.28125 C 2.6290807 15.078212 6.875 18.78125 6.875 18.78125 L 7 18.875 L 7 28 L 8 28 L 8 19.125 L 8.375 18.53125 L 10.78125 14.5625 L 17.03125 16.03125 L 15.65625 26 L 13 26 L 13 28 L 26 28 L 26 26 L 25.8125 26 L 26.40625 17.84375 C 27.146076 17.575986 27.74546 16.969467 27.9375 16.15625 C 28.2405 14.871464 27.440437 13.553258 26.15625 13.25 L 12 9.875 L 12 5 L 12 4 L 11 4 z M 10 6.28125 L 10 10.71875 L 9.46875 12.9375 L 7.40625 16.25 C 6.5481521 15.284402 5.2622756 13.42992 6.4375 9.90625 C 7.1282022 7.8332488 8.268271 6.9407271 9.25 6.46875 C 9.6688633 6.2673768 9.7065667 6.34475 10 6.28125 z M 11.75 11.90625 L 25.6875 15.1875 C 25.919313 15.24224 26.055 15.454286 26 15.6875 C 25.94526 15.919313 25.733214 16.055 25.5 16 L 11.5625 12.6875 L 11.75 11.90625 z M 19 16.5 L 19.125 16.53125 L 20.5 26 L 17.6875 26 L 19 16.5 z M 21.21875 17.03125 L 24.4375 17.78125 L 23.8125 26 L 22.5 26 L 21.21875 17.03125 z" fill="#000000"/></svg>
