<?xml version="1.0" encoding="utf-8"?>
<svg xmlns="http://www.w3.org/2000/svg" viewBox="0 0 32 32" fill="#000000"><path style="text-indent:0;text-align:start;line-height:normal;text-transform:none;block-progression:tb;-inkscape-font-specification:Sans" d="M 11 3 L 11 4 L 11 8 L 11 9 L 12 9 L 15 9 L 15 17 L 9 17 L 4 25 L 4 27.03125 L 6 27.03125 L 6 29.03125 L 8 29.03125 L 8 27.03125 L 16.59375 27.03125 C 16.983154 27.984458 17.571776 28.884558 18.34375 29.65625 C 19.901983 31.215623 21.954766 32 24 32 L 24 30 C 22.463234 30 20.925767 29.426627 19.75 28.25 C 17.398385 25.899245 17.398933 22.101927 19.75 19.75 C 22.100841 17.398299 25.898089 17.398089 28.25 19.75 C 28.330324 19.830324 28.394465 19.915845 28.46875 20 L 26 20 L 26 22 L 31 22 L 32 22 L 32 21 L 32 16 L 30 16 L 30 18.71875 C 29.887451 18.591556 29.77769 18.46519 29.65625 18.34375 C 28.098205 16.785705 26.04943 15.999994 24 16 C 22.660652 16.000004 21.32701 16.332598 20.125 17 L 17 17 L 17 9 L 20 9 L 21 9 L 21 8 L 21 4 L 21 3 L 20 3 L 12 3 L 11 3 z M 13 5 L 19 5 L 19 7 L 13 7 L 13 5 z M 10.15625 19 L 17.75 19 C 16.362479 20.733944 15.795518 22.933212 16.0625 25.03125 L 6.28125 25.03125 L 10.15625 19 z M 29.5 26.46875 C 29.266 26.98875 28.96875 27.47125 28.59375 27.90625 L 30.09375 29.21875 C 30.59375 28.63875 31.03075 27.97625 31.34375 27.28125 L 29.5 26.46875 z M 27.3125 29.03125 C 26.8335 29.34225 26.299 29.587 25.75 29.75 L 26.3125 31.65625 C 27.0455 31.43925 27.76525 31.13375 28.40625 30.71875 L 27.3125 29.03125 z" overflow="visible" font-family="Sans" fill="#000000"/></svg>
