<?xml version="1.0" encoding="utf-8"?>
<svg xmlns="http://www.w3.org/2000/svg" viewBox="0 0 32 32" fill="#000000"><path style="text-indent:0;text-align:start;line-height:normal;text-transform:none;block-progression:tb;-inkscape-font-specification:Sans" d="M 16 3 C 12.049135 3 7.9658451 5.8813566 7.15625 10.375 L 7.09375 10.40625 C 7.09375 10.40625 7.1508222 10.488755 7.15625 10.5 C 7.0759509 10.984342 7 11.480395 7 12 C 7 15.512446 7.7890017 19.587339 9.25 22.90625 C 9.9804992 24.565706 10.894703 26.054078 12 27.15625 C 13.105297 28.258422 14.464889 29 16 29 C 17.51878 29 18.869442 28.257145 19.96875 27.15625 C 21.068058 26.055355 21.982839 24.595989 22.71875 22.9375 C 24.190573 19.620521 25 15.516865 25 12 C 25 11.482251 24.922461 10.981914 24.84375 10.5 C 24.849178 10.488755 24.90625 10.40625 24.90625 10.40625 L 24.84375 10.375 C 24.04132 5.8474751 19.949494 3 16 3 z M 16 5 C 18.823555 5 21.881924 6.9332017 22.75 10.15625 C 22.556777 10.449653 22.280005 10.852392 21.84375 11.375 C 20.857435 12.556548 19.193537 14.239132 16.4375 16.1875 L 16 16.5 L 15.5625 16.1875 C 12.806463 14.239132 11.142565 12.556548 10.15625 11.375 C 9.7199952 10.852392 9.4432228 10.449653 9.25 10.15625 C 10.119655 6.9532653 13.18317 5 16 5 z M 9.03125 13.09375 C 10.02356 14.192069 11.510326 15.569157 13.53125 17.09375 C 12.88595 17.789006 11.72145 18.928888 10.21875 19.75 C 9.5547892 17.599706 9.140428 15.23498 9.03125 13.09375 z M 22.96875 13.09375 C 22.856957 15.23294 22.454008 17.5987 21.78125 19.75 C 21.780227 19.753272 21.751024 19.746729 21.75 19.75 C 20.258971 18.929604 19.110624 17.785314 18.46875 17.09375 C 20.489674 15.569157 21.97644 14.192069 22.96875 13.09375 z M 16 17.34375 L 16.21875 17.625 C 16.21875 17.625 18.262874 20.213653 21.0625 21.65625 C 20.99787 21.812708 20.942432 21.97303 20.875 22.125 C 20.208411 23.627261 19.411317 24.899957 18.5625 25.75 C 17.713683 26.600043 16.87122 27 16 27 C 15.100611 27 14.257422 26.598765 13.40625 25.75 C 12.555078 24.901235 11.754626 23.626294 11.09375 22.125 C 11.026895 21.973128 10.970263 21.812608 10.90625 21.65625 C 13.718578 20.216188 15.78125 17.625 15.78125 17.625 L 16 17.34375 z" overflow="visible" font-family="Sans" fill="#000000"/></svg>
