<?xml version="1.0" encoding="utf-8"?>
<svg xmlns="http://www.w3.org/2000/svg" viewBox="0 0 32 32" fill="#000000"><path style="text-indent:0;text-align:start;line-height:normal;text-transform:none;block-progression:tb;-inkscape-font-specification:Sans" d="M 11 4 C 9.3550302 4 8 5.3550302 8 7 L 8 10 L 8 11 L 10.3125 11 L 11 9 L 10 9 L 10 7 C 10 6.4349698 10.43497 6 11 6 L 21 6 C 21.56503 6 22 6.4349698 22 7 L 22 9 L 21 9 L 21.6875 11 L 24 11 L 24 9 L 24 7 C 24 5.3550302 22.64497 4 21 4 L 11 4 z M 16 7 C 14.534275 7 13.16982 7.784548 12.8125 9.15625 C 12.84287 9.0413829 12.80013 9.247191 12.75 9.40625 C 12.69987 9.565309 12.608802 9.7866596 12.53125 10.03125 C 12.455083 10.271474 12.365701 10.542857 12.28125 10.8125 C 10.992967 11.417227 9.921739 12.316786 9.125 13.40625 C 7.6574205 15.413023 7 17.970754 7 20.5 L 7.03125 20.5 C 7.0162571 20.664368 7 20.832194 7 21 C 7 23.017147 8.1069634 24.798972 9.75 26.03125 C 11.393037 27.263528 13.588196 28 16 28 C 18.411804 28 20.606963 27.263528 22.25 26.03125 C 23.893037 24.798972 25 23.017147 25 21 C 25 20.832194 24.983743 20.664368 24.96875 20.5 L 25 20.5 C 25 17.95685 24.343429 15.378719 22.875 13.375 C 22.070999 12.277914 20.99084 11.377874 19.6875 10.78125 C 19.602753 10.510527 19.512472 10.236388 19.4375 10 C 19.361166 9.7593153 19.299059 9.5621281 19.25 9.40625 C 19.200941 9.2503719 19.15268 9.0513851 19.1875 9.1875 L 19.1875 9.15625 C 18.83018 7.784548 17.465725 7 16 7 z M 16 9 C 16.707405 9 17.170672 9.4062357 17.25 9.65625 C 17.2539 9.671406 17.2466 9.674759 17.25 9.6875 C 17.28632 9.8253357 17.29786 9.8541993 17.34375 10 C 17.351338 10.024111 17.366899 10.066808 17.375 10.09375 C 16.935509 10.030611 16.474488 10 16 10 C 15.525233 10 15.064649 10.029455 14.625 10.09375 C 14.634184 10.067175 14.648636 10.024156 14.65625 10 C 14.707272 9.8381215 14.708133 9.8458671 14.75 9.6875 C 14.81468 9.439202 15.277725 9 16 9 z M 16 12 C 18.489786 12 20.137429 13.001719 21.28125 14.5625 C 21.559064 14.941586 21.789392 15.369148 22 15.8125 C 20.385233 14.682423 18.299165 14 16 14 C 13.700835 14 11.614767 14.682423 10 15.8125 C 10.21065 15.367719 10.440729 14.942666 10.71875 14.5625 C 11.863421 12.997273 13.512016 12 16 12 z M 16 16 C 18.006474 16 19.810106 16.623205 21.0625 17.5625 C 22.314894 18.501795 23 19.703439 23 21 C 23 22.296561 22.314894 23.498205 21.0625 24.4375 C 19.810106 25.376795 18.006474 26 16 26 C 13.993526 26 12.189894 25.376795 10.9375 24.4375 C 9.6851061 23.498205 9 22.296561 9 21 C 9 19.703439 9.6851061 18.501795 10.9375 17.5625 C 12.189894 16.623205 13.993526 16 16 16 z M 16 18 C 15.171573 18 14.5 18.447715 14.5 19 C 14.5 19.552285 15.171573 20 16 20 C 16.828427 20 17.5 19.552285 17.5 19 C 17.5 18.447715 16.828427 18 16 18 z" overflow="visible" font-family="Sans" fill="#000000"/></svg>
