<?xml version="1.0" encoding="utf-8"?>
<svg xmlns="http://www.w3.org/2000/svg" viewBox="0 0 32 32" fill="#000000"><path style="text-indent:0;text-align:start;line-height:normal;text-transform:none;block-progression:tb;-inkscape-font-specification:Bitstream Vera Sans" d="M 3.71875 2.28125 L 2.28125 3.71875 L 28.28125 29.71875 L 29.71875 28.28125 L 24.5625 23.125 L 25.90625 11 L 28 11 L 28 8 C 28 6.346 26.654 5 25 5 L 24.40625 5 L 22.40625 3 L 9.59375 3 L 7.59375 5 L 7 5 C 6.8252247 5 6.6660992 5.0331314 6.5 5.0625 L 3.71875 2.28125 z M 10.40625 5 L 21.59375 5 L 23.59375 7 L 25 7 C 25.551 7 26 7.448 26 8 L 26 9 L 10.4375 9 L 8.4375 7 L 10.40625 5 z M 4 8.1875 L 4 11 L 6.09375 11 L 8.09375 29 L 23.90625 29 L 24 28.15625 L 22.1875 26.34375 L 22.09375 27 L 9.90625 27 L 8.28125 12.4375 L 4 8.1875 z M 12.4375 11 L 23.875 11 L 22.75 21.3125 L 12.4375 11 z" overflow="visible" font-family="Bitstream Vera Sans" fill="#000000"/></svg>
