<?xml version="1.0" encoding="utf-8"?>
<svg xmlns="http://www.w3.org/2000/svg" viewBox="0 0 32 32" fill="#000000"><path style="text-indent:0;text-align:start;line-height:normal;text-transform:none;block-progression:tb;-inkscape-font-specification:Bitstream Vera Sans" d="M 5.8125 4 C 4.8183875 4 4 4.8183875 4 5.8125 C 4 6.8066125 4.8183875 7.59375 5.8125 7.59375 C 5.9264801 7.59375 6.048586 7.5823207 6.15625 7.5625 L 7.5625 8.96875 C 5.9746041 10.876102 5 13.331252 5 16 C 5 18.668748 5.9746041 21.123898 7.5625 23.03125 L 3.28125 27.28125 L 4.71875 28.71875 L 8.96875 24.4375 C 10.876102 26.025396 13.331252 27 16 27 C 18.668748 27 21.123898 26.025396 23.03125 24.4375 L 27.28125 28.71875 L 28.71875 27.28125 L 24.4375 23.03125 C 25.320358 21.970777 25.995912 20.747962 26.4375 19.40625 L 26.53125 19.40625 C 26.523597 19.343686 26.508633 19.281206 26.5 19.21875 C 26.814152 18.202312 27 17.115476 27 16 C 27 13.331252 26.025396 10.876102 24.4375 8.96875 L 25.84375 7.5625 C 25.960926 7.5864776 26.063236 7.59375 26.1875 7.59375 C 27.181612 7.59375 28 6.8066125 28 5.8125 C 28 4.8183875 27.181612 4 26.1875 4 C 25.193387 4 24.40625 4.8183875 24.40625 5.8125 C 24.40625 5.9367641 24.413522 6.0390743 24.4375 6.15625 L 23.03125 7.5625 C 21.123898 5.9746041 18.668748 5 16 5 C 13.347312 5 10.90236 5.9604765 9 7.53125 L 7.5625 6.125 C 7.5789707 6.0264663 7.59375 5.9161962 7.59375 5.8125 C 7.59375 4.8183875 6.8066125 4 5.8125 4 z M 18 7.25 C 18.134501 7.2804878 18.27414 7.3073374 18.40625 7.34375 C 15.161003 9.3156136 13 12.416392 13 16 C 13 19.577447 15.171227 22.681177 18.40625 24.65625 C 18.27414 24.692663 18.134501 24.719512 18 24.75 C 13.950427 23.672018 11 20.180908 11 16 C 11 11.821772 13.95538 8.3304998 18 7.25 z M 13.21875 7.4375 C 12.403598 8.0816304 11.700415 8.8232183 11.09375 9.65625 L 10.40625 8.96875 C 11.241479 8.3037531 12.178226 7.7729534 13.21875 7.4375 z M 20.71875 8.34375 C 22.931946 9.7100209 24.516965 11.997813 24.90625 14.6875 C 24.581897 14.157043 24.199133 13.641553 23.78125 13.15625 C 22.342492 11.484932 20.536611 10.307115 18.5625 9.65625 C 19.220169 9.1658873 19.924126 8.7177823 20.71875 8.34375 z M 9 10.375 L 10.03125 11.4375 C 9.377729 12.825723 9 14.373551 9 16 C 9 17.627461 9.3783918 19.17389 10.03125 20.5625 L 8.96875 21.59375 C 7.7452082 20.056995 7 18.123807 7 16 C 7 13.860482 7.7600639 11.916974 9 10.375 z M 16.8125 11.25 C 18.883775 11.675181 20.786874 12.737877 22.25 14.4375 C 23.415731 15.791304 24.159231 17.375788 24.46875 19.03125 C 24.363843 19.325776 24.227503 19.595666 24.09375 19.875 C 23.612729 18.86951 23.012115 17.906218 22.25 17.03125 C 20.456797 14.971795 18.123511 13.684014 15.625 13.09375 C 15.921552 12.440573 16.330136 11.82952 16.8125 11.25 z M 15.09375 15 C 15.908436 15.185914 16.692365 15.477639 17.4375 15.84375 C 17.128048 16.259547 16.779943 16.647521 16.375 17 C 16.02714 17.302669 15.64032 17.552545 15.25 17.78125 C 15.087245 17.199453 15 16.613906 15 16 C 15 15.662323 15.04493 15.329623 15.09375 15 z M 19.15625 16.875 C 19.659535 17.258701 20.118947 17.698463 20.5625 18.1875 C 20.103858 18.91147 19.538048 19.579043 18.875 20.15625 C 18.384039 20.583946 17.83663 20.914116 17.28125 21.21875 C 16.80541 20.726416 16.399594 20.211926 16.0625 19.65625 C 16.639887 19.329598 17.18086 18.940823 17.6875 18.5 C 18.252295 18.00838 18.736167 17.46006 19.15625 16.875 z M 21.84375 19.875 C 22.234352 20.524181 22.545152 21.209552 22.78125 21.90625 C 22.197446 22.576319 21.50766 23.152282 20.75 23.625 C 20.103607 23.321038 19.495557 22.973079 18.9375 22.59375 C 19.37341 22.31328 19.788264 22.004041 20.1875 21.65625 C 20.811865 21.112718 21.366691 20.52392 21.84375 19.875 z M 11.09375 22.34375 C 11.700022 23.176851 12.403614 23.918589 13.21875 24.5625 C 12.178226 24.227047 11.241479 23.696247 10.40625 23.03125 L 11.09375 22.34375 z" fill="#000000"/></svg>
