<?xml version="1.0" encoding="utf-8"?>
<svg xmlns="http://www.w3.org/2000/svg" viewBox="0 0 32 32" fill="#000000"><path style="text-indent:0;text-align:start;line-height:normal;text-transform:none;block-progression:tb;-inkscape-font-specification:Bitstream Vera Sans" d="M 19 4 C 13.469971 4 6.59375 7.09375 6.59375 7.09375 L 6 7.34375 L 6 8 C 6 14.62608 5.5672112 16.708785 5.125 17.5 L 4.625 18.40625 L 5.5625 18.875 L 9 20.625 L 9 21 C 9 22.645063 10.354937 24 12 24 C 13.645063 24 15 22.645063 15 21 L 15 20.625 L 19.25 18.625 L 20.34375 18.125 L 19.625 17.125 C 19.625 17.125 19 16.176845 19 15.46875 C 19 13.094428 20 5.125 20 5.125 L 20.125 4 L 19 4 z M 17.875 6.125 C 17.689865 7.574385 17 12.927271 17 15.46875 C 17 16.198698 17.213877 16.785697 17.4375 17.28125 L 13.5625 19.09375 L 13 19.375 L 13 20 L 13 21 C 13 21.562937 12.562937 22 12 22 C 11.437063 22 11 21.562937 11 21 L 11 20 L 11 19.375 L 10.4375 19.09375 L 7.15625 17.4375 C 7.2999613 17.043197 7.4264697 16.558889 7.53125 16 L 10 16 L 10 14 L 7.78125 14 C 7.8320172 13.402095 7.8763259 12.769539 7.90625 12 L 10 12 L 10 10 L 7.9375 10 C 7.9446564 9.5522081 7.9663755 9.1873145 7.96875 8.6875 C 8.7615864 8.3585587 13.587798 6.4654275 17.875 6.125 z M 20.8125 19.53125 L 18.0625 20.84375 L 21.125 21.6875 C 20.250346 22.681994 19.316091 24.119961 19.0625 26 L 7.3125 26 C 7.1695 25.498 7 24.659 7 23.5 C 7 22.776 7.12925 22.0685 7.28125 21.4375 L 5.4375 20.5 C 5.2005 21.357 5 22.412 5 23.5 C 5 25.979 5.64375 27.32475 5.71875 27.46875 L 6 28 L 28.25 28 L 27.375 24 L 27.34375 23.90625 C 26.75775 22.14825 25.3475 20.77725 23.5625 20.28125 L 20.8125 19.53125 z M 23.3125 22.3125 C 24.305849 22.67943 25.08433 23.460477 25.4375 24.46875 L 25.75 26 L 21.09375 26 C 21.437852 24.242957 22.595811 22.955822 23.3125 22.3125 z" overflow="visible" font-family="Bitstream Vera Sans" fill="#000000"/></svg>
