<?xml version="1.0" encoding="utf-8"?>
<svg xmlns="http://www.w3.org/2000/svg" viewBox="0 0 32 32" fill="#000000"><path style="text-indent:0;text-align:start;line-height:normal;text-transform:none;block-progression:tb;-inkscape-font-specification:Sans" d="M 18.125 4 C 14.869576 4 10.943339 4.2935816 7.9375 7.46875 C 4.9316611 10.643918 3 16.418363 3 27 L 3 28 L 4 28 L 11 28 L 11 26 L 11 17 C 11 16.078311 11.213852 15.91879 11.8125 15.65625 C 12.411148 15.39371 13.459611 15.293479 14.59375 15.1875 C 15.727889 15.081521 16.964873 14.968926 18.0625 14.40625 C 18.324101 14.272146 18.588062 14.111157 18.8125 13.90625 C 19.205352 14.382227 19.679001 14.651953 20 14.84375 C 20.373419 15.066868 20.540932 15.18017 20.6875 15.40625 C 20.834068 15.63233 21 16.060703 21 17 L 21 26 L 21 27 L 21 28 L 28 28 L 29 28 L 29 27 C 29 17.47371 27.467533 12.292888 25.40625 9.375 C 23.592788 6.80792 21.429835 6.2445075 19.9375 6.125 L 19 4.5 L 18.71875 4 L 18.125 4 z M 17.5625 6.0625 L 18.375 7.5 L 18.65625 8 L 19.25 8 C 20.370771 8 22.073033 8.1261383 23.75 10.5 C 25.358911 12.777525 26.849576 17.418272 26.96875 26 L 23 26 L 23 17 C 23 15.824297 22.790932 14.954076 22.375 14.3125 C 21.959068 13.670924 21.376581 13.350007 21 13.125 C 20.623419 12.899993 20.457156 12.782739 20.3125 12.5625 C 20.167844 12.342261 20 11.926776 20 11 L 18 11 C 18 12.074934 17.714873 12.322614 17.125 12.625 C 16.535127 12.927386 15.522111 13.083229 14.40625 13.1875 C 13.290389 13.291771 12.088852 13.366228 11 13.84375 C 9.9111481 14.321272 9 15.467189 9 17 L 9 26 L 5.0625 26 C 5.196784 16.399127 7.0076534 11.344458 9.375 8.84375 C 11.682508 6.4062522 14.614437 6.0981851 17.5625 6.0625 z" overflow="visible" font-family="Sans" fill="#000000"/></svg>
