<?xml version="1.0" encoding="utf-8"?>
<svg xmlns="http://www.w3.org/2000/svg" viewBox="0 0 32 32" fill="#000000"><path style="text-indent:0;text-align:start;line-height:normal;text-transform:none;block-progression:tb;-inkscape-font-specification:Bitstream Vera Sans" d="M 16 5.53125 C 15.320348 5.53125 14.654024 5.8541811 14.28125 6.5 L 4.4375 23.5 C 3.6920205 24.791519 4.6962879 26.5 6.1875 26.5 L 25.8125 26.5 C 27.303712 26.5 28.307979 24.791519 27.5625 23.5 L 17.71875 6.5 C 17.345976 5.8541811 16.679652 5.53125 16 5.53125 z M 16 7.5 L 25.8125 24.5 L 6.1875 24.5 L 16 7.5 z M 16.96875 12.5 C 16.398234 12.616744 15.96875 13.144972 15.96875 13.75 C 15.96875 14.44146 16.527289 15 17.21875 15 C 17.91021 15 18.46875 14.44146 18.46875 13.75 C 18.46875 13.058539 17.91021 12.5 17.21875 12.5 C 17.132317 12.5 17.050252 12.483322 16.96875 12.5 z M 13.4375 15 C 13.112949 15 12.812612 15.139963 12.625 15.40625 L 11.625 16.84375 L 11.28125 17.28125 L 11.78125 17.5625 L 19 21.5 C 18.353183 21.54797 17.9375 23 17.9375 23 L 21.96875 23 C 21.96875 23 20.6985 20 20.1875 20 C 19.951 20 19.836125 20.3745 19.6875 20.75 L 17.65625 19.65625 L 17.25 16.6875 C 17.184 16.201501 16.87277 15.78537 16.4375 15.5625 L 15.65625 15.15625 C 15.444826 15.048289 15.207415 15 14.96875 15 L 13.4375 15 z M 13.4375 16 L 14.25 16 L 13.4375 17.34375 L 12.75 16.96875 L 13.4375 16 z M 15.34375 16.125 L 15.96875 16.46875 L 14.96875 18.15625 L 14.3125 17.8125 L 15.34375 16.125 z M 16.375 17.75 L 16.5625 19.03125 L 15.84375 18.625 L 16.375 17.75 z M 12.8125 18.8125 L 12 23 L 13.03125 23 L 13.75 19.3125 L 12.8125 18.8125 z M 15.25 20.15625 L 15.46875 20.46875 L 15.46875 23 L 16.46875 23 L 16.46875 20.8125 L 15.25 20.15625 z" overflow="visible" font-family="Bitstream Vera Sans" fill="#000000"/></svg>
