<?xml version="1.0" encoding="utf-8"?>
<svg xmlns="http://www.w3.org/2000/svg" viewBox="0 0 32 32" fill="#000000"><path style="text-indent:0;text-align:start;line-height:normal;text-transform:none;block-progression:tb;-inkscape-font-specification:Bitstream Vera Sans" d="M 6 5 L 6 6 L 6 26 L 6 27 L 7 27 L 25 27 L 26 27 L 26 26 L 26 6 L 26 5 L 25 5 L 7 5 L 6 5 z M 9.25 7 L 24 7 L 24 23.40625 L 19.1875 18.03125 C 19.686454 17.498773 20 16.787242 20 16 L 20 13 C 20 11.346 18.654 10 17 10 L 12 10 L 12 10.0625 L 9.25 7 z M 8 8.59375 L 22.75 25 L 8 25 L 8 8.59375 z M 14 12 L 17 12 C 17.551 12 18 12.449 18 13 L 18 16 C 18 16.201799 17.915905 16.37386 17.8125 16.53125 L 14 12.28125 L 14 12 z M 12 15.90625 L 12 22 L 14 22 L 14 19 L 14.78125 19 L 12 15.90625 z" overflow="visible" font-family="Bitstream Vera Sans" fill="#000000"/></svg>
