<?xml version="1.0" encoding="utf-8"?>
<svg xmlns="http://www.w3.org/2000/svg" viewBox="-8 10 32 32" fill="#000000"><path d="M20,14h-2c0,1.5-3.191,1.96-4.047,2.001l-0.387,0.019L4,25.586l-1.293-1.293l-1.414,1.414L2.586,27l-6.6,6.6L0.4,38.014 l6.6-6.6l1.293,1.293l1.414-1.414L8.84,30.425C12.27,29.05,20,24.757,20,14z M0.4,35.186L-1.186,33.6L4,28.414L5.586,30L0.4,35.186z M7.291,28.877L5.414,27l9.027-9.027c1.014-0.086,2.251-0.341,3.302-0.853C16.31,25.447,9.303,28.24,7.291,28.877z" fill="#000000"/></svg>
