<?xml version="1.0" encoding="utf-8"?>
<svg xmlns="http://www.w3.org/2000/svg" viewBox="0 0 32 32" fill="#000000"><path style="text-indent:0;text-align:start;line-height:normal;text-transform:none;block-progression:tb;-inkscape-font-specification:Bitstream Vera Sans" d="M 6.125 5 L 6 5.84375 L 4 19.84375 L 4 19.9375 L 4 20 L 4 26 L 4 27 L 5 27 L 9 27 L 10 27 L 10 26 L 10 25 L 22 25 L 22 26 L 22 27 L 23 27 L 27 27 L 28 27 L 28 26 L 28 20 L 28 19.9375 L 28 19.84375 L 26 5.84375 L 25.875 5 L 25 5 L 7 5 L 6.125 5 z M 7.875 7 L 9.9375 7 L 9.0625 19 L 6.15625 19 L 7.875 7 z M 11.9375 7 L 15 7 L 15 19 L 11.0625 19 L 11.9375 7 z M 17 7 L 20.0625 7 L 20.9375 19 L 17 19 L 17 7 z M 22.0625 7 L 24.125 7 L 25.84375 19 L 22.9375 19 L 22.0625 7 z M 6 21 L 26 21 L 26 25 L 24 25 L 24 24 L 24 23 L 23 23 L 9 23 L 8 23 L 8 24 L 8 25 L 6 25 L 6 21 z" overflow="visible" font-family="Bitstream Vera Sans" fill="#000000"/></svg>
