<?xml version="1.0" encoding="utf-8"?>
<svg xmlns="http://www.w3.org/2000/svg" viewBox="0 0 32 32" fill="#000000"><path style="text-indent:0;text-align:start;line-height:normal;text-transform:none;block-progression:tb;-inkscape-font-specification:Sans" d="M 5 6 C 3.3550302 6 2 7.3550302 2 9 L 2 23 C 2 24.64497 3.3550302 26 5 26 L 27 26 C 28.64497 26 30 24.64497 30 23 L 30 9 C 30 7.3550302 28.64497 6 27 6 L 5 6 z M 5 8 L 27 8 C 27.56503 8 28 8.4349698 28 9 L 28 23 C 28 23.56503 27.56503 24 27 24 L 5 24 C 4.4349698 24 4 23.56503 4 23 L 4 9 C 4 8.4349698 4.4349698 8 5 8 z M 6 10 L 6 12 L 26 12 L 26 10 L 6 10 z M 6 14 L 6 16 L 8 16 L 8 14 L 6 14 z M 9 14 L 9 16 L 11 16 L 11 14 L 9 14 z M 12 14 L 12 16 L 14 16 L 14 14 L 12 14 z M 18 14 L 18 16 L 20 16 L 20 14 L 18 14 z M 21 14 L 21 16 L 23 16 L 23 14 L 21 14 z M 24 14 L 24 16 L 26 16 L 26 14 L 24 14 z M 6 17 L 6 19 L 8 19 L 8 17 L 6 17 z M 9 17 L 9 19 L 11 19 L 11 17 L 9 17 z M 12 17 L 12 19 L 14 19 L 14 17 L 12 17 z M 18 17 L 18 19 L 20 19 L 20 17 L 18 17 z M 21 17 L 21 19 L 23 19 L 23 17 L 21 17 z M 24 17 L 24 19 L 26 19 L 26 17 L 24 17 z M 6 20 L 6 22 L 8 22 L 8 20 L 6 20 z M 9 20 L 9 22 L 11 22 L 11 20 L 9 20 z M 12 20 L 12 22 L 14 22 L 14 20 L 12 20 z M 18 20 L 18 22 L 20 22 L 20 20 L 18 20 z M 21 20 L 21 22 L 23 22 L 23 20 L 21 20 z M 24 20 L 24 22 L 26 22 L 26 20 L 24 20 z" fill="#000000"/></svg>
