<?xml version="1.0" encoding="utf-8"?>
<svg xmlns="http://www.w3.org/2000/svg" viewBox="0 0 32 32" fill="#000000"><path style="text-indent:0;text-align:start;line-height:normal;text-transform:none;block-progression:tb;-inkscape-font-specification:Bitstream Vera Sans" d="M 24.3125 3.6875 C 24.115356 3.6925042 24 3.71875 24 3.71875 L 23.5 3.75 L 23.21875 4.1875 L 23.09375 4.40625 C 22.306328 4.0825682 21.520868 3.9695171 20.875 3.96875 C 20.00387 3.96772 19.375 4.125 19.375 4.125 L 18.75 4.28125 L 18.625 4.90625 L 17.8125 9.53125 L 15.28125 9.1875 L 15.21875 9.1875 C 13.331495 8.8803495 11.431508 9.7307245 10.6875 11.46875 C 10.6816 11.48264 10.66205 11.486 10.65625 11.5 L 4.09375 25.59375 L 3.8125 26.21875 L 4.28125 26.71875 L 5.28125 27.71875 L 5.78125 28.1875 L 6.40625 27.90625 L 21.0625 21.59375 C 21.0714 21.59035 21.08494 21.59725 21.09375 21.59375 C 22.021803 21.226307 22.673075 20.542305 23.03125 19.75 C 23.392826 18.950171 23.490572 18.06502 23.4375 17.21875 L 23.4375 17.1875 L 23.125 14.3125 L 27.59375 12.53125 L 28.25 12.28125 L 28.25 11.59375 C 28.25 11.59375 28.225019 10.297071 27.5625 8.90625 L 27.96875 8.65625 L 28.40625 8.34375 L 28.40625 7.8125 C 28.40625 7.8125 28.49534 6.0578437 27.21875 4.78125 C 26.21446 3.7769598 24.903933 3.6724874 24.3125 3.6875 z M 24.5625 5.84375 C 24.904761 5.866693 25.41004 5.84754 25.78125 6.21875 C 26.187464 6.6249638 26.202048 7.0441514 26.25 7.375 L 23.46875 9.15625 L 24.5625 10.84375 L 25.84375 10.03125 C 25.993553 10.380826 26.104776 10.689972 26.15625 10.96875 L 22.4375 12.4375 C 22.112983 12.005634 21.710909 11.6135 21.28125 11.21875 C 20.785341 10.763133 20.290858 10.334144 19.75 10.03125 L 20.46875 6.03125 C 20.863851 5.9903308 21.412809 5.9936954 22 6.15625 L 21.15625 7.5 L 22.84375 8.5625 L 24.5625 5.84375 z M 14.46875 11.09375 C 14.606948 11.100375 14.757107 11.129925 14.90625 11.15625 L 14.9375 11.15625 L 14.96875 11.15625 L 17.1875 11.46875 L 15.15625 13.15625 L 16.46875 14.6875 L 19.375 12.21875 C 19.567977 12.357983 19.756287 12.52101 19.9375 12.6875 C 20.01484 12.758556 20.083966 12.831324 20.15625 12.90625 L 18.03125 15.96875 L 19.6875 17.09375 L 21.1875 14.90625 L 21.4375 17.34375 L 21.4375 17.375 C 21.47115 17.980903 21.39245 18.522016 21.21875 18.90625 C 21.041576 19.298171 20.791807 19.564484 20.3125 19.75 L 20.28125 19.75 L 6.25 25.8125 L 6.21875 25.78125 L 12.46875 12.28125 L 12.5 12.25 C 12.815694 11.487168 13.501365 11.047375 14.46875 11.09375 z" overflow="visible" font-family="Bitstream Vera Sans" fill="#000000"/></svg>
