<?xml version="1.0" encoding="utf-8"?>
<svg xmlns="http://www.w3.org/2000/svg" viewBox="0 0 32 32" fill="#000000"><path style="text-indent:0;text-align:start;line-height:normal;text-transform:none;block-progression:tb;-inkscape-font-specification:Sans" d="M 5 6 C 3.3550302 6 2 7.3550302 2 9 L 2 23 C 2 24.64497 3.3550302 26 5 26 L 27 26 C 28.64497 26 30 24.64497 30 23 L 30 9 C 30 7.3550302 28.64497 6 27 6 L 5 6 z M 5 8 L 27 8 C 27.56503 8 28 8.4349698 28 9 L 28 23 C 28 23.56503 27.56503 24 27 24 L 5 24 C 4.4349698 24 4 23.56503 4 23 L 4 9 C 4 8.4349698 4.4349698 8 5 8 z M 6 12 L 6 16 L 11 16 L 11 12 L 6 12 z M 16 12 L 16 14 L 25 14 L 25 12 L 16 12 z M 6 19 L 6 21 L 10 21 L 10 19 L 6 19 z M 11 19 L 11 21 L 15 21 L 15 19 L 11 19 z M 16 19 L 16 21 L 20 21 L 20 19 L 16 19 z M 21 19 L 21 21 L 25 21 L 25 19 L 21 19 z" fill="#000000"/></svg>
