<?xml version="1.0" encoding="utf-8"?>
<svg xmlns="http://www.w3.org/2000/svg" viewBox="0 0 32 32" fill="#000000"><path style="text-indent:0;text-align:start;line-height:normal;text-transform:none;block-progression:tb;-inkscape-font-specification:Sans" d="M 9 6 L 9 7 L 9 12 L 7 12 L 6 12 L 6 13 L 6 16 L 5 16 L 4 16 L 4 17 L 4 20 L 3 20 L 2 20 L 2 21 L 2 25 L 2 26 L 3 26 L 29 26 L 30 26 L 30 25 L 30 21 L 30 20 L 29 20 L 28 20 L 28 17 L 28 16 L 27 16 L 26 16 L 26 13 L 26 12 L 25 12 L 23 12 L 23 7 L 23 6 L 22 6 L 10 6 L 9 6 z M 11 8 L 21 8 L 21 12 L 20 12 L 20 10.5 C 20 9.675 19.325 9 18.5 9 C 17.675 9 17 9.675 17 10.5 L 17 12 L 15 12 L 15 10.5 C 15 9.675 14.325 9 13.5 9 C 12.675 9 12 9.675 12 10.5 L 12 12 L 11 12 L 11 8 z M 8 14 L 9 14 L 12 14 L 12 16 L 8 16 L 8 14 z M 14 14 L 18 14 L 18 15 L 14 15 L 14 14 z M 20 14 L 23 14 L 24 14 L 24 16 L 20 16 L 20 14 z M 14 17 L 18 17 L 18 18 L 14 18 L 14 17 z M 6 18 L 12 18 L 12 20 L 6 20 L 6 18 z M 20 18 L 26 18 L 26 20 L 20 20 L 20 18 z M 14 20 L 18 20 L 18 21 L 14 21 L 14 20 z M 4 22 L 12 22 L 12 24 L 4 24 L 4 22 z M 20 22 L 28 22 L 28 24 L 20 24 L 20 22 z M 14 23 L 18 23 L 18 24 L 14 24 L 14 23 z" fill="#000000"/></svg>
