<?xml version="1.0" encoding="utf-8"?>
<svg xmlns="http://www.w3.org/2000/svg" viewBox="0 0 32 32" fill="#000000"><path style="text-indent:0;text-align:start;line-height:normal;text-transform:none;block-progression:tb;-inkscape-font-specification:Bitstream Vera Sans" d="M 4 5 L 4 6 L 4 26 L 4 27 L 5 27 L 16.59375 27 C 17.78836 29.919124 20.659415 32 24 32 C 28.406433 32 32 28.406433 32 24 C 32 21.050941 30.385631 18.481052 28 17.09375 L 28 6 L 28 5 L 27 5 L 5 5 L 4 5 z M 6 7 L 26 7 L 26 9 L 6 9 L 6 7 z M 6 11 L 26 11 L 26 16.28125 C 25.356318 16.113347 24.695043 16 24 16 C 21.982917 16 20.128447 16.760712 18.71875 18 L 13 18 L 13 20 L 17.09375 20 C 16.40817 21.178937 16 22.542626 16 24 C 16 24.341567 16.02061 24.669496 16.0625 25 L 6 25 L 6 11 z M 9 14 L 9 16 L 11 16 L 11 14 L 9 14 z M 13 14 L 13 16 L 23 16 L 23 14 L 13 14 z M 9 18 L 9 20 L 11 20 L 11 18 L 9 18 z M 24 18 C 27.325553 18 30 20.674447 30 24 C 30 27.325553 27.325553 30 24 30 C 20.674447 30 18 27.325553 18 24 C 18 20.674447 20.674447 18 24 18 z M 21.71875 20.28125 L 20.28125 21.71875 L 22.5625 24 L 20.28125 26.28125 L 21.71875 27.71875 L 24 25.4375 L 26.28125 27.71875 L 27.71875 26.28125 L 25.4375 24 L 27.71875 21.71875 L 26.28125 20.28125 L 24 22.5625 L 21.71875 20.28125 z" fill="#000000"/></svg>
