<?xml version="1.0" encoding="utf-8"?>
<svg xmlns="http://www.w3.org/2000/svg" viewBox="0 0 32 32" fill="#000000"><path style="line-height:normal;text-indent:0;text-align:start;text-decoration-line:none;text-decoration-style:solid;text-decoration-color:#000;text-transform:none;block-progression:tb;isolation:auto;mix-blend-mode:normal" d="M 10.859375 4.0039062 C 10.461453 4.0301563 10.088203 4.1728281 9.8144531 4.3925781 C 9.5821845 4.5372852 7.8478127 5.3866921 6.2675781 6.1503906 C 6.0573397 6.2334221 5.85731 6.3416386 5.6835938 6.4941406 C 5.2495937 6.8741406 5 7.423 5 8 L 5 23.230469 C 5 24.134469 5.609625 24.930875 6.515625 25.171875 L 13.425781 26.779297 C 13.450781 26.747297 13.469094 26.712641 13.496094 26.681641 L 14.90625 25.072266 L 7 23.230469 L 7 8.0214844 C 7.0173484 8.0131176 7.0160121 8.0141533 7.0332031 8.0058594 L 19.603516 9.8867188 C 19.853516 9.9197187 19.928266 9.9619375 19.947266 9.9609375 C 19.957266 9.9869375 20 10.107031 20 10.457031 L 20 19.263672 L 22 16.982422 L 22 10.457031 C 22 9.4820313 21.777812 8.15825 19.882812 7.90625 L 10.185547 6.4550781 C 10.794855 6.1403352 10.947745 6.0400303 10.996094 6 L 22.132812 7.5097656 C 22.627812 7.5757656 23 8.001 23 8.5 L 23 15.841797 L 25 13.560547 L 25 8.5 C 25 7.003 23.880437 5.7243906 22.398438 5.5253906 L 11.263672 4.0175781 C 11.128172 3.9993281 10.992016 3.9951562 10.859375 4.0039062 z M 27.5 13 C 27.174145 13 26.871527 13.112234 26.623047 13.294922 A 1.0001 1.0001 0 0 0 26.384766 13.498047 L 14.248047 27.339844 A 1.0001 1.0001 0 0 0 15.714844 28.699219 L 15.751953 28.660156 L 28.574219 15.544922 A 1.0001 1.0001 0 0 0 28.720703 15.357422 C 28.894505 15.112746 29 14.817009 29 14.5 C 29 13.683418 28.316582 13 27.5 13 z M 25 20.632812 L 19.751953 26.001953 L 17.957031 27.835938 L 18.226562 27.898438 C 18.485563 27.967437 18.747813 28.003906 19.007812 28.003906 C 19.657812 28.003906 20.294172 27.788859 20.826172 27.380859 C 20.871436 27.345985 20.904367 27.300667 20.947266 27.263672 L 20.955078 27.271484 C 21.446078 26.805484 23.922969 24.44925 24.417969 23.78125 C 24.798969 23.26425 25 22.647 25 22 L 25 20.632812 z" fill="#000000"/></svg>
