<?xml version="1.0" encoding="utf-8"?>
<svg xmlns="http://www.w3.org/2000/svg" viewBox="0 0 32 32" fill="#000000"><path style="text-indent:0;text-align:start;line-height:normal;text-transform:none;block-progression:tb;-inkscape-font-specification:Bitstream Vera Sans" d="M 17 4 L 17 5 L 17 9 L 14 9 L 13.34375 9 L 10.625 6.90625 C 8.972 5.62625 6.6325 5.71375 5.0625 7.09375 L 5 7.15625 L 5 9.8125 L 6.40625 8.59375 C 7.25825 7.84575 8.50825 7.806 9.40625 8.5 L 10.0625 9 L 8 9 L 8 11 L 14 11 L 25 11 C 25.56503 11 26 11.43497 26 12 C 26 12.56503 25.56503 13 25 13 L 15 13 L 15 15 L 17 15 L 17 17 L 15 17 L 15 19 L 17 19 L 17 21 L 16 21 L 15 21 L 15 23 L 16 23 C 16.56503 23 17 23.43497 17 24 C 17 24.56503 16.56503 25 16 25 L 5 25 L 5 27 L 16 27 C 17.64497 27 19 25.64497 19 24 C 19 23.651197 18.925086 23.311422 18.8125 23 L 20.09375 23 L 20.8125 23 L 21.03125 22.34375 C 21.101656 22.146136 21.276425 22 21.5 22 C 21.723575 22 21.899492 22.148415 21.96875 22.34375 L 22.1875 23 L 22.90625 23 L 25 23 L 26 23 L 26 22 L 26 19 C 27.64497 19 29 17.64497 29 16 C 29 14.937526 28.437335 14.002321 27.59375 13.46875 C 27.842531 13.032541 28 12.533567 28 12 C 28 10.708013 27.155736 9.605727 26 9.1875 L 26 5 L 26 4 L 25 4 L 22.90625 4 L 22.1875 4 L 21.96875 4.65625 C 21.898344 4.8538638 21.723575 5 21.5 5 C 21.276425 5 21.100508 4.851585 21.03125 4.65625 L 20.8125 4 L 20.09375 4 L 18 4 L 17 4 z M 19 6 L 19.65625 6 C 20.114237 6.5689503 20.717933 7 21.5 7 C 22.282067 7 22.885834 6.5683288 23.34375 6 L 24 6 L 24 9 L 19 9 L 19 6 z M 19 15 L 24 15 L 24 21 L 23.34375 21 C 22.885763 20.43105 22.282067 20 21.5 20 C 20.717933 20 20.114166 20.431671 19.65625 21 L 19 21 L 19 15 z M 26 15 C 26.56503 15 27 15.43497 27 16 C 27 16.56503 26.56503 17 26 17 L 26 15 z" fill="#000000"/></svg>
