<?xml version="1.0" encoding="utf-8"?>
<svg xmlns="http://www.w3.org/2000/svg" viewBox="0 0 32 32" fill="#000000"><path style="text-indent:0;text-align:start;line-height:normal;text-transform:none;block-progression:tb;-inkscape-font-specification:Sans" d="M 13.84375 5 C 11.186363 5 9 7.1863627 9 9.84375 L 9 20 L 3 20 L 2 20 L 2 21 L 2 24 L 2 25 L 3 25 L 9 25 L 9 26 L 9 27 L 10 27 L 29 27 L 30 27 L 30 26 L 30 9.84375 C 30 7.1863627 27.814382 5 25.15625 5 L 13.84375 5 z M 13.84375 7 L 25.15625 7 C 26.734118 7 28 8.2671373 28 9.84375 L 28 17 L 26 17 L 24 17 L 11 17 L 11 9.84375 C 11 8.2671373 12.267137 7 13.84375 7 z M 15.8125 9 C 14.271373 9 13 10.270913 13 11.8125 L 13 13 L 13 14 L 14 14 L 25 14 L 26 14 L 26 13 L 26 11.8125 C 26 10.271373 24.729087 9 23.1875 9 L 15.8125 9 z M 15.8125 11 L 23.1875 11 C 23.649913 11 24 11.351627 24 11.8125 L 24 12 L 15 12 L 15 11.8125 C 15 11.350087 15.351627 11 15.8125 11 z M 11 19 L 13 19 L 13 22 L 15 22 L 15 19 L 24 19 L 24 22 L 26 22 L 26 19 L 28 19 L 28 25 L 11 25 L 11 24 L 11 21 L 11 20 L 11 19 z M 4 22 L 9 22 L 9 23 L 4 23 L 4 22 z" overflow="visible" font-family="Sans" fill="#000000"/></svg>
