<?xml version="1.0" encoding="utf-8"?>
<svg xmlns="http://www.w3.org/2000/svg" viewBox="0 0 32 32" fill="#000000"><path d="M 16 4 C 9.3844277 4 4 9.3844277 4 16 C 4 22.615572 9.3844277 28 16 28 C 22.615572 28 28 22.615572 28 16 C 28 9.3844277 22.615572 4 16 4 z M 16 6 C 21.534692 6 26 10.465308 26 16 C 26 21.534692 21.534692 26 16 26 C 10.465308 26 6 21.534692 6 16 C 6 10.465308 10.465308 6 16 6 z M 15.65625 8.8125 C 15.5815 8.793 15.5105 8.80475 15.4375 8.84375 C 15.2925 8.92075 15.21625 9.098 15.28125 9.25 C 15.75025 10.352 17.39725 14.1425 18.78125 16.6875 L 20.0625 16 C 18.7465 13.462 16.47975 9.9295 15.84375 8.9375 C 15.79875 8.8675 15.731 8.832 15.65625 8.8125 z M 15.375 11 C 15.044766 10.958797 14.7075 11.10025 14.53125 11.40625 L 16 12.28125 C 16.236 11.87225 16.0945 11.32875 15.6875 11.09375 C 15.5855 11.0345 15.485078 11.013734 15.375 11 z M 14.40625 11.625 L 13.625 12.96875 L 15.125 13.8125 L 15.875 12.5 L 14.40625 11.625 z M 13.53125 13.125 L 10.40625 18.5625 L 11.875 19.40625 L 15 14 L 13.53125 13.125 z M 9.46875 15.03125 L 9.46875 17.59375 L 10.59375 17.59375 L 12.09375 15.03125 L 9.46875 15.03125 z M 14.75 15.03125 L 13.28125 17.59375 L 19 17.59375 L 18.625 17.03125 C 18.602 16.99525 18.516 16.87375 18.5 16.84375 C 18.196 16.28575 17.90775 15.67125 17.59375 15.03125 L 14.75 15.03125 z M 19.875 15.03125 C 20.036 15.32325 20.20275 15.602 20.34375 15.875 C 20.35875 15.904 20.4215 16.0225 20.4375 16.0625 L 21.09375 17.59375 L 22.65625 17.59375 L 22.65625 15.03125 L 19.875 15.03125 z M 20.15625 16.1875 L 18.875 16.875 L 19.84375 18.375 L 20.84375 17.8125 L 20.15625 16.1875 z M 20.9375 18.0625 L 20 18.5625 L 21 20.9375 C 21.175 21.3565 21.6615 21.55675 22.0625 21.34375 C 22.4635 21.13075 22.59475 20.59775 22.34375 20.21875 L 20.9375 18.0625 z M 10.28125 18.75 L 9.75 21.28125 L 9.875 21.34375 L 11.78125 19.625 L 10.28125 18.75 z" fill="#000000"/></svg>
