<?xml version="1.0" encoding="utf-8"?>
<svg xmlns="http://www.w3.org/2000/svg" viewBox="0 0 32 32" fill="#000000"><path style="text-indent:0;text-align:start;line-height:normal;text-transform:none;block-progression:tb;-inkscape-font-specification:Bitstream Vera Sans" d="M 3.71875 2.28125 L 2.28125 3.71875 L 28.28125 29.71875 L 29.71875 28.28125 L 20.3125 18.875 C 23.102679 17.347773 25 14.399609 25 11 C 25 8.884 24.67 7.11375 24 5.59375 L 23.75 5 L 8.25 5 L 8 5.59375 C 7.902 5.8155 7.8007812 6.0479219 7.71875 6.28125 L 3.71875 2.28125 z M 9.59375 7 L 22.40625 7 C 22.711908 7.8788647 22.900416 8.8768878 22.96875 10 L 11.4375 10 L 9.34375 7.90625 C 9.4181061 7.5891315 9.4928118 7.2894157 9.59375 7 z M 7 11.1875 C 7.092 15.7295 10.566 19.4445 15 19.9375 L 15 26 L 10 26 L 10 28 L 22 28 L 22 26 L 17 26 L 17 21.1875 L 13.28125 17.4375 C 11.61125 16.7285 10.2725 15.38875 9.5625 13.71875 L 7 11.1875 z M 13.4375 12 L 22.9375 12 C 22.592604 14.423334 20.978392 16.415573 18.8125 17.375 L 13.4375 12 z" overflow="visible" font-family="Bitstream Vera Sans" fill="#000000"/></svg>
