<?xml version="1.0" encoding="utf-8"?>
<svg xmlns="http://www.w3.org/2000/svg" viewBox="0 0 32 32" fill="#000000"><path style="text-indent:0;text-align:start;line-height:normal;text-transform:none;block-progression:tb;-inkscape-font-specification:Sans" d="M 9.28125 4 C 8.3774869 4 7.5460775 4.5724892 7.25 5.4375 L 3.09375 17.6875 C 2.7987194 18.557064 3.162391 19.512235 3.90625 20.03125 L 14.75 27.625 C 15.494669 28.142704 16.505331 28.142704 17.25 27.625 L 28.09375 20.03125 C 28.837609 19.512235 29.201281 18.557064 28.90625 17.6875 L 24.75 5.4375 C 24.455273 4.5707702 23.622513 4 22.71875 4 L 9.28125 4 z M 9.28125 6 L 22.71875 6 C 22.79699 6 22.834477 6.03523 22.84375 6.0625 L 27 18.3125 C 27.009 18.33894 27.01889 18.37127 26.96875 18.40625 L 16.09375 25.96875 C 16.04442 26.00305 15.955581 26.00305 15.90625 25.96875 L 5.03125 18.40625 C 4.9811088 18.371265 4.9910306 18.338936 5 18.3125 L 9.15625 6.0625 C 9.1661725 6.0335108 9.2030131 6 9.28125 6 z M 13.25 9 C 13.069 9 12.93725 9.1375 12.90625 9.3125 L 12 15.28125 C 11.968 15.46625 12.09425 15.6415 12.28125 15.6875 L 14.1875 16.15625 C 14.3415 16.19425 14.50875 16.131 14.59375 16 C 14.78275 15.705 15.0685 15.21875 15.8125 15.21875 C 16.8835 15.21875 17.5625 16.01025 17.5625 16.78125 C 17.5625 17.55225 16.84825 18.34375 15.90625 18.34375 C 15.21725 18.34375 14.797 17.93975 14.625 17.71875 C 14.557 17.62975 14.45775 17.59375 14.34375 17.59375 L 11.90625 17.59375 C 11.65625 17.59375 11.4865 17.8305 11.5625 18.0625 C 11.8665 18.9975 12.869 21 16 21 C 18.085 21 20.53125 19.46875 20.53125 16.59375 C 20.53125 13.71875 18.09425 12.9375 16.53125 12.9375 C 16.14525 12.9375 15.746 12.9865 15.5 13.0625 C 15.239 13.1425 14.967 12.9525 15 12.6875 L 15.25 11.65625 C 15.267 11.53225 15.371 11.4375 15.5 11.4375 L 19.65625 11.4375 C 19.86125 11.4375 20.03125 11.29275 20.03125 11.09375 L 20.03125 9.375 C 20.03125 9.177 19.86125 9 19.65625 9 L 13.25 9 z" overflow="visible" font-family="Sans" fill="#000000"/></svg>
