<?xml version="1.0" encoding="utf-8"?>
<svg xmlns="http://www.w3.org/2000/svg" viewBox="0 0 32 32" fill="#000000"><path style="text-indent:0;text-align:start;line-height:normal;text-transform:none;block-progression:tb;-inkscape-font-specification:Sans" d="M 10 4 L 10 5 L 10 6 C 10 6.257037 9.67295 6.9192173 9.1875 7.59375 C 8.944775 7.9310164 8.6953026 8.2510749 8.46875 8.625 C 8.2421974 8.9989251 8 9.416832 8 10 L 8 24.5 C 8 25.275134 8.4560761 26.007213 9.125 26.5 C 9.155088 26.673121 9.12729 26.728844 9.25 26.96875 C 9.4954242 27.448563 10.17032 28 11 28 L 21 28 C 21.826406 28 22.503528 27.440016 22.75 26.96875 C 22.873236 26.733117 22.842042 26.670465 22.875 26.5 C 23.544408 26.007519 24 25.275843 24 24.5 L 24 10 C 24 9.416583 23.787493 9.0047137 23.5625 8.625 C 23.337507 8.2452863 23.056877 7.907805 22.8125 7.5625 C 22.323746 6.87189 22 6.1803068 22 6 L 22 5 L 22 4 L 11 4 L 10 4 z M 12 6 L 20 6 C 20 7.1686932 20.676254 7.99636 21.1875 8.71875 C 21.264187 8.8271085 21.305733 8.8993529 21.375 9 L 14 9 L 14 11 L 22 11 L 22 23 L 14 23 L 14 25 L 21 25 L 21 26 L 11 26 C 10.9967 25.9896 11 25.96875 11 25.96875 L 11 25 L 12 25 L 12 23 L 10 23 L 10 11 L 12 11 L 12 9 L 10.625 9 C 10.692275 8.9071534 10.742282 8.8475682 10.8125 8.75 C 11.32705 8.0350327 12 7.182963 12 6 z" fill="#000000"/></svg>
