<?xml version="1.0" encoding="utf-8"?>
<svg xmlns="http://www.w3.org/2000/svg" viewBox="0 0 32 32" fill="#000000"><path style="text-indent:0;text-align:start;line-height:normal;text-transform:none;block-progression:tb;-inkscape-font-specification:Bitstream Vera Sans" d="M 9 4 C 6.8027056 4 5 5.8027056 5 8 C 5 9.1142275 5.4752606 10.116062 6.21875 10.84375 C 4.88816 11.744728 4 13.281553 4 15 L 4 20 L 4 20.625 L 4.5625 20.90625 L 6 21.625 L 6 27 L 6 28 L 7 28 L 11 28 L 12 28 L 12 27 L 12 18 L 10 18 L 10 26 L 8 26 L 8 21 L 8 20.375 L 7.4375 20.09375 L 6 19.375 L 6 15 C 6 13.331516 7.3315161 12 9 12 C 10.855378 12 12.44878 13.306398 12.8125 15.125 L 13.03125 16.1875 L 13.1875 17 L 14 17 L 16 17 L 16 15 L 14.8125 15 L 14.75 14.71875 C 14.402567 12.981584 13.309541 11.564833 11.84375 10.75 C 12.541379 10.028858 13 9.0746085 13 8 C 13 5.8027056 11.197294 4 9 4 z M 9 6 C 10.116414 6 11 6.883586 11 8 C 11 9.116414 10.116414 10 9 10 C 7.883586 10 7 9.116414 7 8 C 7 6.883586 7.883586 6 9 6 z M 23 10 C 21.35499 10 20 11.35499 20 13 C 20 13.766865 20.300208 14.467081 20.78125 15 L 18 15 L 17 15 L 17 16 L 17 21 L 17 22 L 18 22 L 19 22 L 19 28 L 21 28 L 21 26 L 28 26 L 28 24 L 21 24 L 21 22 L 28 22 L 28 20 L 25.8125 20 L 28 17.25 L 28 17 L 28 16 L 28 15 L 25.21875 15 C 25.699792 14.467081 26 13.766865 26 13 C 26 11.35499 24.64501 10 23 10 z M 23 12 C 23.564128 12 24 12.435872 24 13 C 24 13.564128 23.564128 14 23 14 C 22.435872 14 22 13.564128 22 13 C 22 12.435872 22.435872 12 23 12 z M 19 17 L 20.6875 17 L 19 19.125 L 19 17 z M 23.1875 17 L 25.6875 17 L 23.3125 20 L 20.8125 20 L 23.1875 17 z" fill="#000000"/></svg>
