<?xml version="1.0" encoding="utf-8"?>
<svg xmlns="http://www.w3.org/2000/svg" viewBox="0 0 32 32" fill="#000000"><path style="text-indent:0;text-align:start;line-height:normal;text-transform:none;block-progression:tb;-inkscape-font-specification:Sans" d="M 16 3 C 8.8321429 3 3 8.8321429 3 16 C 3 23.167857 8.8321429 29 16 29 C 23.167857 29 29 23.167857 29 16 C 29 8.8321429 23.167857 3 16 3 z M 14.875 5.0625 C 14.916024 5.0583495 14.958843 5.0662007 15 5.0625 L 15 15 L 5.0625 15 C 5.5339339 9.7570218 9.6490529 5.5912324 14.875 5.0625 z M 17 5.0625 C 22.614537 5.5673434 27 10.251319 27 16 C 27 18.678876 26.053209 21.12586 24.46875 23.03125 L 17 15.5625 L 17 5.0625 z M 5.0625 17 L 15.5625 17 L 23.03125 24.46875 C 21.12586 26.053209 18.678876 27 16 27 C 10.251319 27 5.5673434 22.614537 5.0625 17 z" overflow="visible" font-family="Sans" fill="#000000"/></svg>
