<?xml version="1.0" encoding="utf-8"?>
<svg xmlns="http://www.w3.org/2000/svg" viewBox="0 0 32 32" fill="#000000"><path style="text-indent:0;text-align:start;line-height:normal;text-transform:none;block-progression:tb;-inkscape-font-specification:Sans" d="M 3.28125 5 L 3.0625 5.6875 C 3.0625 5.6875 2.0010185 8.8808701 2 15 L 2 15.0625 L 2 15.09375 L 3 26.09375 L 3.09375 27 L 4 27 L 6 27 L 7 27 L 7 26 L 7 17.28125 C 8.4183041 18.236451 9.6016994 19.624924 10.75 21.125 C 11.78591 22.478255 12.756566 23.876371 13.875 25 C 14.993434 26.123629 16.349963 27 18 27 L 29 27 L 30 27 L 30 26 C 30 23.798798 29.117268 22.25904 28.21875 21.34375 C 27.320232 20.42846 26.34375 20.0625 26.34375 20.0625 L 26.3125 20.0625 L 26.28125 20.03125 C 26.28125 20.03125 24.719724 19.615825 21.625 17.21875 C 20.412731 16.279765 18.798774 13.325749 17.71875 10.6875 C 16.638726 8.0492511 15.96875 5.71875 15.96875 5.71875 L 15.75 5 L 15 5 L 4 5 L 3.28125 5 z M 4.78125 7 L 14.28125 7 C 14.446648 7.5431669 14.906598 9.1031688 15.875 11.46875 C 16.998726 14.213751 18.402269 17.253235 20.375 18.78125 L 20.4375 18.84375 C 23.58798 21.266904 25.568666 21.909846 25.65625 21.9375 C 25.65825 21.938131 25.71875 21.96875 25.71875 21.96875 C 25.76795 21.98744 26.209659 22.167739 26.78125 22.75 C 27.234599 23.211811 27.613715 23.981676 27.8125 25 L 18 25 C 17.056537 25 16.246128 24.500465 15.3125 23.5625 C 14.378872 22.624535 13.41209 21.30187 12.34375 19.90625 C 10.394343 17.359653 7.8581033 14.65963 4.0625 14.1875 C 4.1488412 9.9096418 4.5810384 7.7059113 4.78125 7 z M 4.125 16.1875 C 4.4187098 16.23598 4.7256586 16.26112 5 16.34375 L 5 25 L 4.90625 25 L 4.125 16.1875 z" overflow="visible" font-family="Sans" fill="#000000"/></svg>
