<?xml version="1.0" encoding="utf-8"?>
<svg xmlns="http://www.w3.org/2000/svg" viewBox="0 0 32 32" fill="#000000"><path style="text-indent:0;text-align:start;line-height:normal;text-transform:none;block-progression:tb;-inkscape-font-specification:Sans" d="M 21 4 L 21 6.15625 C 20.630459 6.2523105 20.28951 6.3708985 19.96875 6.5625 L 18.46875 5.0625 L 17.0625 6.46875 L 18.5625 7.96875 C 18.370898 8.2895096 18.252311 8.6304593 18.15625 9 L 16 9 L 16 11 L 18.15625 11 C 18.252311 11.369541 18.370898 11.71049 18.5625 12.03125 L 17.0625 13.53125 L 18.46875 14.9375 L 19.96875 13.4375 C 20.28951 13.629102 20.630459 13.747689 21 13.84375 L 21 16 L 23 16 L 23 13.84375 C 23.369541 13.747689 23.71049 13.629102 24.03125 13.4375 L 25.53125 14.9375 L 26.9375 13.53125 L 25.4375 12.03125 C 25.629102 11.71049 25.747689 11.369541 25.84375 11 L 28 11 L 28 9 L 25.84375 9 C 25.747689 8.6304593 25.629102 8.2895096 25.4375 7.96875 L 26.9375 6.46875 L 25.53125 5.0625 L 24.03125 6.5625 C 23.71049 6.3708985 23.369541 6.2523105 23 6.15625 L 23 4 L 21 4 z M 22 8 C 23.116414 8 24 8.883586 24 10 C 24 11.116414 23.116414 12 22 12 C 20.883586 12 20 11.116414 20 10 C 20 8.883586 20.883586 8 22 8 z M 9.53125 15.03125 C 8.0368558 15.11629 6.3677245 15.582681 4.53125 16.59375 L 3.84375 16.96875 L 4.03125 17.71875 C 4.03125 17.71875 4.8846857 21.287651 6.90625 23.53125 C 8.0039326 24.748646 9.4063035 25.078829 10.5 24.96875 C 11.593697 24.858671 12.338335 24.490718 12.84375 24.03125 L 11.46875 22.5625 C 11.512165 22.523032 10.884053 22.939329 10.28125 23 C 9.6784465 23.060671 9.0653174 22.953104 8.375 22.1875 C 7.2229345 20.908899 6.5502412 18.931905 6.25 18 C 9.0673496 16.671912 11.134291 16.873172 12.375 17.59375 C 13.590403 18.299631 14.084748 19.501625 13.96875 20.4375 C 13.668917 20.199731 13.362738 19.978198 13.0625 19.78125 C 11.178288 18.545259 9.3125 17.96875 9.3125 17.96875 L 8.71875 19.90625 C 8.71875 19.90625 10.361962 20.383491 11.96875 21.4375 C 13.575538 22.491509 15 23.983276 15 26 L 15 27.6875 L 15 28 L 17 28 L 17 27.6875 C 17 26.469096 18.246545 25.099962 19.71875 24.09375 C 21.190955 23.087538 22.6875 22.46875 22.6875 22.46875 L 21.9375 20.625 C 21.9375 20.625 21.082293 20.961257 20 21.5625 C 20.018203 20.932778 20.37418 20.371056 21.125 20.03125 C 21.945854 19.659747 23.477516 19.811967 25.46875 20.75 C 25.115795 21.35145 24.786901 22.012544 23.84375 23.15625 C 23.285855 23.832663 22.773112 24.015305 22.375 24.03125 C 21.976888 24.04719 21.721172 23.763455 21.8125 23.90625 L 20.125 25 C 20.633328 25.794795 21.499862 26.070055 22.46875 26.03125 C 23.437638 25.99245 24.533145 25.496087 25.40625 24.4375 C 26.875403 22.655941 27.875 20.78125 27.875 20.78125 L 28.34375 19.9375 L 27.53125 19.4375 C 26.057271 18.550452 24.683718 18.05855 23.46875 17.875 C 22.253782 17.69145 21.167601 17.81761 20.28125 18.21875 C 18.508549 19.02104 17.650211 20.919166 18.125 22.65625 C 18.138118 22.704412 18.142881 22.703382 18.15625 22.75 C 17.640048 23.127482 17.120707 23.546761 16.65625 24.03125 C 16.406437 23.305466 16.04268 22.642583 15.59375 22.0625 C 15.631715 21.974623 15.698597 21.880672 15.71875 21.8125 C 15.78751 21.579912 15.821693 21.386669 15.84375 21.3125 C 16.43743 19.324817 15.443418 17.045044 13.375 15.84375 C 12.340791 15.243103 11.025644 14.946205 9.53125 15.03125 z" fill="#000000"/></svg>
