<?xml version="1.0" encoding="utf-8"?>
<svg xmlns="http://www.w3.org/2000/svg" viewBox="0 0 32 32" fill="#000000"><path d="M 26.59375 3.0625 C 26.48725 3.0625 26.38775 3.11225 26.28125 3.21875 L 25.53125 3.96875 L 25.21875 3.65625 L 24.78125 4.0625 L 25.125 4.40625 L 24.6875 4.8125 L 24.375 4.5 L 23.9375 4.9375 L 24.25 5.25 L 23.53125 6 C 23.31825 6.213 23.31825 6.412 23.53125 6.625 L 19.34375 10.8125 C 18.409032 10.066978 17.415296 9.4982275 16.46875 9.21875 C 14.71175 8.70075 13.1465 9.07425 11.9375 10.28125 C 11.4035 10.81525 11.0735 11.468 10.9375 12.25 C 10.7175 13.517 9.60025 14.50475 8.28125 14.59375 C 6.84125 14.69075 5.575 15.26775 4.625 16.21875 C 2.121 18.72275 2.57525 23.26375 5.65625 26.34375 C 7.40525 28.09275 9.6365 29 11.6875 29 C 13.2495 29 14.69825 28.458 15.78125 27.375 C 16.73225 26.425 17.30925 25.15875 17.40625 23.71875 C 17.49525 22.39975 18.45175 21.2825 19.71875 21.0625 C 20.50175 20.9265 21.18475 20.5965 21.71875 20.0625 C 22.92675 18.8545 23.30025 17.28825 22.78125 15.53125 C 22.60825 14.94625 22.2995 14.347 21.9375 13.75 L 20.46875 15.21875 C 20.62375 15.52075 20.75975 15.80775 20.84375 16.09375 C 21.15075 17.13275 20.9895 17.97925 20.3125 18.65625 C 20.0715 18.89625 19.78025 19.02875 19.40625 19.09375 C 17.24225 19.46975 15.55625 21.36675 15.40625 23.59375 C 15.34225 24.54475 14.978 25.36475 14.375 25.96875 C 12.65 27.69275 9.39575 27.2385 7.09375 24.9375 C 4.79275 22.6365 4.30725 19.349 6.03125 17.625 C 6.63525 17.022 7.45525 16.65775 8.40625 16.59375 C 10.63325 16.44375 12.52925 14.75775 12.90625 12.59375 C 12.97125 12.21975 13.10275 11.9285 13.34375 11.6875 C 13.80775 11.2215 14.34075 11 14.96875 11 C 15.25575 11 15.58025 11.05925 15.90625 11.15625 C 16.536168 11.342332 17.237184 11.716045 17.90625 12.21875 L 14.5625 15.5625 C 14.381139 15.520654 14.194073 15.5 14 15.5 C 12.619288 15.5 11.5 16.619288 11.5 18 C 11.5 19.380712 12.619288 20.5 14 20.5 C 15.380712 20.5 16.5 19.380712 16.5 18 C 16.5 17.848653 16.463268 17.706435 16.4375 17.5625 L 25.53125 8.4375 C 25.74425 8.6505 25.9745 8.6505 26.1875 8.4375 L 26.9375 7.6875 L 27.25 8 L 27.65625 7.59375 L 27.34375 7.28125 L 27.78125 6.84375 L 28 7.28125 L 28.40625 6.84375 L 28.09375 6.53125 L 28.84375 5.78125 C 29.05675 5.56825 29.05675 5.338 28.84375 5.125 L 26.9375 3.21875 C 26.831 3.11225 26.70025 3.0625 26.59375 3.0625 z M 26.5 4.28125 L 26.9375 4.71875 L 25 6.625 L 24.59375 6.21875 L 26.5 4.28125 z M 27.34375 5.03125 L 27.78125 5.46875 L 25.84375 7.375 L 25.4375 6.9375 L 27.34375 5.03125 z M 9.09375 19.6875 L 7.6875 21.09375 L 10.90625 24.3125 L 12.3125 22.90625 L 9.09375 19.6875 z" fill="#000000"/></svg>
