<?xml version="1.0" encoding="utf-8"?>
<svg xmlns="http://www.w3.org/2000/svg" viewBox="0 0 32 32" fill="#000000"><path style="text-indent:0;text-align:start;line-height:normal;text-transform:none;block-progression:tb;-inkscape-font-specification:Sans" d="M 16 4 C 9.3844277 4 4 9.3844277 4 16 C 4 22.615572 9.3844277 28 16 28 C 22.615572 28 28 22.615572 28 16 C 28 9.3844277 22.615572 4 16 4 z M 16 6 C 21.534692 6 26 10.465308 26 16 C 26 21.534692 21.534692 26 16 26 C 10.465308 26 6 21.534692 6 16 C 6 10.465308 10.465308 6 16 6 z M 10.5 11 C 9.6715729 11 9 11.671573 9 12.5 C 9 12.59375 9.0092773 12.684204 9.03125 12.78125 C 9.0747609 13.017701 9.1720723 13.222607 9.3125 13.40625 C 10.063342 14.699876 12 16 12 16 C 12 16 15 14.094 15 12.5 C 15 11.671573 14.328427 11 13.5 11 C 12.671573 11 12 11.671573 12 12.5 C 12 11.671573 11.328427 11 10.5 11 z M 18.5 11 C 17.671573 11 17 11.671573 17 12.5 C 17 12.59375 17.009277 12.684204 17.03125 12.78125 C 17.074761 13.017701 17.172072 13.222607 17.3125 13.40625 C 18.063342 14.699876 20 16 20 16 C 20 16 21.989447 14.712795 22.71875 13.375 C 22.880342 13.078584 23 12.789123 23 12.5 C 23 11.671573 22.328427 11 21.5 11 C 20.671573 11 20 11.671573 20 12.5 C 20 11.671573 19.328427 11 18.5 11 z M 10.8125 19 L 9.09375 20 C 10.477034 22.387335 13.047925 24 16 24 C 18.952075 24 21.522966 22.387335 22.90625 20 L 21.1875 19 C 20.148784 20.792665 18.225925 22 16 22 C 13.774075 22 11.851216 20.792665 10.8125 19 z" overflow="visible" font-family="Sans" fill="#000000"/></svg>
