<?xml version="1.0" encoding="utf-8"?>
<svg xmlns="http://www.w3.org/2000/svg" viewBox="0 0 32 32" fill="#000000"><path style="text-indent:0;text-align:start;line-height:normal;text-transform:none;block-progression:tb;-inkscape-font-specification:Sans" d="M 5 4 L 5 6.375 L 5 16.5625 L 5 17 L 5.34375 17.3125 L 9.65625 21.15625 L 5.625 25.3125 L 4 27 L 6.34375 27 L 16.53125 27 L 16.96875 27 L 17.28125 26.65625 L 21.125 22.34375 L 25.3125 26.375 L 27 28.03125 L 27 25.65625 L 27 15.46875 L 27 15 L 26.65625 14.71875 L 22.34375 10.84375 L 26.34375 6.6875 L 28 5 L 25.625 5 L 15.46875 5 L 15.03125 5 L 14.71875 5.34375 L 10.84375 9.65625 L 6.6875 5.65625 L 5 4 z M 16.3125 7 L 23.28125 7 L 16.40625 14.125 C 16.338413 13.85573 16.279302 13.567718 16.21875 13.21875 C 15.967698 11.771909 15.8619 9.6729957 16.3125 7 z M 7 8.71875 L 14.125 15.5625 C 13.869989 15.622822 13.560951 15.690545 13.21875 15.75 C 11.771499 16.001451 9.6779479 16.120169 7 15.6875 L 7 8.71875 z M 14.03125 9.0625 C 13.935179 10.467494 14.00315 11.663012 14.125 12.6875 L 12.375 10.9375 L 14.03125 9.0625 z M 21.0625 12.375 L 22.90625 14.03125 C 22.53096 14.009408 22.164228 14.002537 21.8125 14 C 20.848765 13.993072 20.011988 14.085312 19.25 14.1875 L 21.0625 12.375 z M 21.78125 16 C 22.737242 16.004173 23.822306 16.11904 25 16.3125 L 25 23.3125 L 17.90625 16.4375 C 18.173352 16.373886 18.46975 16.308744 18.8125 16.25 C 19.616028 16.112284 20.608008 15.994878 21.78125 16 z M 12.75 17.8125 L 10.9375 19.625 L 9.03125 17.90625 C 10.461466 17.988297 11.712916 17.945675 12.75 17.8125 z M 15.59375 17.875 C 15.659301 18.141571 15.720459 18.433594 15.78125 18.78125 C 16.033293 20.222649 16.141875 22.315032 15.6875 25 L 8.6875 25 L 15.59375 17.875 z M 17.875 19.3125 L 19.625 21.0625 L 17.96875 22.9375 C 18.065502 21.530158 17.998146 20.335515 17.875 19.3125 z" fill="#000000"/></svg>
