<?xml version="1.0" encoding="utf-8"?>
<svg xmlns="http://www.w3.org/2000/svg" viewBox="0 0 32 32" fill="#000000"><path style="text-indent:0;text-align:start;line-height:normal;text-transform:none;block-progression:tb;-inkscape-font-specification:Sans" d="M 11 8 C 8.276 8 5.805 9.102 4 10.875 L 4 14.125 C 5.365 11.662 7.99 10 11 10 C 12.589 10 14.1195 10.46075 15.4375 11.34375 L 16 11.71875 L 16.5625 11.34375 C 17.8805 10.46175 19.411 10 21 10 C 24.01 10 26.635 11.662 28 14.125 L 28 10.875 C 26.195 9.102 23.724 8 21 8 C 19.233 8 17.518 8.46475 16 9.34375 C 14.482 8.46475 12.767 8 11 8 z M 11 12 C 7.6981362 12 5 14.698136 5 18 C 5 21.301864 7.6981362 24 11 24 C 13.088012 24 14.924488 22.909557 16 21.28125 C 17.075512 22.909557 18.911988 24 21 24 C 24.301864 24 27 21.301864 27 18 C 27 14.698136 24.301864 12 21 12 C 18.911988 12 17.075512 13.090443 16 14.71875 C 14.924488 13.090443 13.088012 12 11 12 z M 11 14 C 13.220984 14 15 15.779016 15 18 C 15 20.220984 13.220984 22 11 22 C 8.7790164 22 7 20.220984 7 18 C 7 15.779016 8.7790164 14 11 14 z M 21 14 C 23.220984 14 25 15.779016 25 18 C 25 20.220984 23.220984 22 21 22 C 18.779016 22 17 20.220984 17 18 C 17 15.779016 18.779016 14 21 14 z" overflow="visible" font-family="Sans" fill="#000000"/></svg>
