<?xml version="1.0" encoding="utf-8"?>
<svg xmlns="http://www.w3.org/2000/svg" viewBox="0 0 32 32" fill="#000000"><path style="text-indent:0;text-align:start;line-height:normal;text-transform:none;block-progression:tb;-inkscape-font-specification:Bitstream Vera Sans" d="M 16 5 C 13.723306 5 11.657574 5.234044 10.09375 5.625 C 9.311838 5.820478 8.6671997 6.054524 8.125 6.375 C 7.5828003 6.695476 7 7.1834175 7 8 L 7 12 C 7 12.816521 7.5827477 13.304483 8.125 13.625 C 8.6672523 13.945517 9.3118157 14.17955 10.09375 14.375 C 10.930693 14.5842 11.92016 14.767468 13 14.875 L 13 20 L 13 21 L 14 21 L 18 21 L 19 21 L 19 20 L 19 14.875 C 20.07984 14.767468 21.069307 14.5842 21.90625 14.375 C 22.688184 14.17955 23.332748 13.945517 23.875 13.625 C 24.417252 13.304483 25 12.816521 25 12 L 25 8 C 25 7.1834175 24.4172 6.695476 23.875 6.375 C 23.3328 6.054524 22.688162 5.820478 21.90625 5.625 C 20.342426 5.234044 18.276694 5 16 5 z M 16 7 C 18.141584 7 20.074644 7.2295984 21.40625 7.5625 C 21.958243 7.7004982 22.335467 7.8584387 22.625 8 C 22.335467 8.1415613 21.958243 8.2995018 21.40625 8.4375 C 20.074644 8.7704016 18.141584 9 16 9 C 13.858416 9 11.925356 8.7704016 10.59375 8.4375 C 10.041757 8.2995018 9.6645326 8.1415613 9.375 8 C 9.6645326 7.8584387 10.041757 7.7004982 10.59375 7.5625 C 11.925356 7.2295984 13.858416 7 16 7 z M 9 10.03125 C 9.3342869 10.158716 9.6915685 10.274455 10.09375 10.375 C 11.657574 10.765956 13.723306 11 16 11 C 18.276694 11 20.342426 10.765956 21.90625 10.375 C 22.308431 10.274455 22.665713 10.158716 23 10.03125 L 23 11.8125 C 22.98765 11.82201 22.979365 11.844561 22.875 11.90625 C 22.607565 12.064327 22.072066 12.271075 21.40625 12.4375 C 20.074619 12.77035 18.141473 13 16 13 C 13.858527 13 11.925381 12.77035 10.59375 12.4375 C 9.9279343 12.271075 9.3924352 12.064327 9.125 11.90625 C 9.020635 11.844561 9.0123501 11.82201 9 11.8125 L 9 10.03125 z M 15 14.96875 C 15.3331 14.979156 15.656293 15 16 15 C 16.343707 15 16.6669 14.979156 17 14.96875 L 17 19 L 15 19 L 15 14.96875 z M 12 17 C 10.377353 17 8.9689482 17.975924 8.34375 19.375 C 7.7487414 18.917373 7.1570085 18.550322 6.5625 18.3125 C 6.0613265 18.112016 5.5722501 17.996662 5.0625 18 C 4.55275 18.0033 3.9757198 18.14928 3.5625 18.5625 C 3.1492803 18.975719 3.0033379 19.55275 3 20.0625 C 2.99666 20.57225 3.1120151 21.061327 3.3125 21.5625 C 3.7134698 22.564847 4.4675648 23.592565 5.4375 24.5625 C 6.4074353 25.532435 7.4351528 26.28653 8.4375 26.6875 C 8.9386732 26.887984 9.4277502 27.003338 9.9375 27 C 10.447249 26.9967 11.024281 26.85072 11.4375 26.4375 C 11.85072 26.024281 11.996661 25.447249 12 24.9375 C 12.0033 24.42775 11.887984 23.938673 11.6875 23.4375 C 11.349702 22.593069 10.756959 21.736974 10 20.90625 C 10.04869 19.835124 10.915356 19 12 19 L 12 17 z M 20 17 L 20 19 C 21.084644 19 21.95131 19.835124 22 20.90625 C 21.243041 21.736974 20.650298 22.593069 20.3125 23.4375 C 20.112016 23.938673 19.996662 24.42775 20 24.9375 C 20.0033 25.447249 20.14928 26.024281 20.5625 26.4375 C 20.975719 26.85072 21.552751 26.996661 22.0625 27 C 22.57225 27.0033 23.061327 26.887984 23.5625 26.6875 C 24.564848 26.28653 25.592565 25.532436 26.5625 24.5625 C 27.532436 23.592565 28.28653 22.564848 28.6875 21.5625 C 28.887984 21.061327 29.003338 20.57225 29 20.0625 C 28.9967 19.552751 28.85072 18.975719 28.4375 18.5625 C 28.024281 18.14928 27.447249 18.003339 26.9375 18 C 26.42775 17.9967 25.938673 18.112016 25.4375 18.3125 C 24.842991 18.550322 24.251258 18.917373 23.65625 19.375 C 23.031052 17.975924 21.622647 17 20 17 z M 5 20 C 5.0191772 19.999895 5.0391956 20.000356 5.09375 20 C 5.2392283 19.999048 5.5135597 20.055413 5.84375 20.1875 C 6.5041299 20.451672 7.3500808 21.037581 8.15625 21.84375 C 8.9624192 22.64992 9.5483275 23.49587 9.8125 24.15625 C 9.9445862 24.48644 10.000952 24.760772 10 24.90625 C 9.9996428 24.960805 10.000106 24.980823 10 25 C 9.9808232 25.000105 9.9608033 24.999644 9.90625 25 C 9.7607721 25.000955 9.4864406 24.944586 9.15625 24.8125 C 8.4958701 24.548328 7.6499192 23.962419 6.84375 23.15625 C 6.0375808 22.35008 5.4516725 21.50413 5.1875 20.84375 C 5.0554141 20.51356 4.9990477 20.239228 5 20.09375 C 5.0003571 20.039195 4.9998943 20.019177 5 20 z M 26.90625 20 C 26.960805 20.000357 26.980823 19.999894 27 20 C 27.000105 20.019177 26.999644 20.039196 27 20.09375 C 27.000952 20.239228 26.944587 20.51356 26.8125 20.84375 C 26.548328 21.50413 25.962419 22.350081 25.15625 23.15625 C 24.350081 23.962419 23.50413 24.548328 22.84375 24.8125 C 22.51356 24.944586 22.239228 25.000952 22.09375 25 C 22.039195 24.999643 22.019177 25.000106 22 25 C 21.999895 24.980823 22.000356 24.960803 22 24.90625 C 21.999048 24.760772 22.055413 24.48644 22.1875 24.15625 C 22.451672 23.49587 23.037581 22.649919 23.84375 21.84375 C 24.649919 21.037581 25.49587 20.451672 26.15625 20.1875 C 26.48644 20.055414 26.760772 19.999048 26.90625 20 z" fill="#000000"/></svg>
