<?xml version="1.0" encoding="utf-8"?>
<svg xmlns="http://www.w3.org/2000/svg" viewBox="0 0 32 32" fill="#000000"><path style="text-indent:0;text-align:start;line-height:normal;text-transform:none;block-progression:tb;-inkscape-font-specification:Sans" d="M 22.25 4 C 20.25821 4 18.9375 5.3125 18.9375 5.3125 L 18.90625 5.34375 L 15.0625 9.21875 L 10.0625 14.21875 L 5.625 18.65625 L 5.65625 18.6875 C 4.600441 19.782129 3.96875 21.300688 3.96875 22.96875 C 3.96875 24.298908 4.3721348 25.533342 5.1875 26.46875 C 6.0028652 27.404158 7.2383104 28 8.625 28 C 9.866532 28 10.98441 27.609345 11.78125 26.84375 C 12.57809 26.078155 13 24.99032 13 23.78125 C 13 22.819148 12.764074 21.90529 12.21875 21.1875 C 11.673426 20.46971 10.767659 20 9.78125 20 C 8.9598229 20 8.2095869 20.331764 7.71875 20.90625 C 7.2279131 21.480736 7 22.239232 7 23 L 7 23.03125 L 7 23.09375 C 7 23.09375 7.033327 23.510906 7.28125 23.96875 C 7.5291727 24.426594 8.1779958 25 9 25 L 9 23.03125 C 8.9943649 23.027979 9.003695 23.00356 9 23 C 8.9958789 22.991909 9.002767 22.977521 9 22.96875 C 9.0076 22.609628 9.1037662 22.35333 9.21875 22.21875 C 9.3381631 22.078986 9.4596771 22 9.78125 22 C 10.222841 22 10.423324 22.10954 10.625 22.375 C 10.826676 22.64046 11 23.144352 11 23.78125 C 11 24.55618 10.77616 25.050845 10.40625 25.40625 C 10.03634 25.761655 9.466468 26 8.625 26 C 7.7786896 26 7.1786348 25.683842 6.71875 25.15625 C 6.2588652 24.628658 5.96875 23.870592 5.96875 22.96875 C 5.96875 21.760838 6.3323221 20.733431 7 20.03125 L 7.03125 20.0625 L 7.46875 19.625 C 8.0448472 19.215654 8.772481 19 9.625 19 C 11.369731 19 12.346146 19.497981 13 20.3125 C 13.653854 21.127019 14 22.395335 14 24 L 14 29 L 16 29 L 16 28.96875 L 27.8125 11.5625 L 27.96875 11.375 L 28 11.15625 C 28 11.15625 28.258053 9.4566575 27.6875 7.6875 C 27.402223 6.8029212 26.897411 5.8689524 26 5.15625 C 25.102589 4.4435476 23.832936 4 22.25 4 z M 22.25 6 C 23.477064 6 24.230849 6.3064524 24.75 6.71875 C 25.269151 7.1310476 25.582777 7.6970788 25.78125 8.3125 C 26.15874 9.4830107 26.014143 10.599093 26 10.71875 L 24.75 12.5625 C 24.52797 11.632679 24.140457 10.782472 23.5625 10.0625 C 22.582004 8.8410777 21.02148 8.1280423 19.0625 8.03125 L 20.3125 6.75 L 20.34375 6.75 C 20.375535 6.7217152 21.180755 6 22.25 6 z M 18.625 10 C 20.369731 10 21.346146 10.497981 22 11.3125 C 22.653854 12.127019 23 13.395335 23 15 L 23 15.125 L 19.96875 19.5625 C 19.910907 17.851725 19.532925 16.271376 18.5625 15.0625 C 17.582004 13.841078 16.02148 13.128042 14.0625 13.03125 L 16.3125 10.75 L 16.34375 10.78125 C 16.938897 10.296202 17.686542 10 18.625 10 z M 13.625 15 C 15.369731 15 16.346146 15.497981 17 16.3125 C 17.653854 17.127019 18 18.395335 18 20 L 18 22.46875 L 16 25.40625 L 16 24 C 16 22.116665 15.616896 20.375981 14.5625 19.0625 C 13.582004 17.841078 12.02148 17.128042 10.0625 17.03125 L 11.3125 15.75 L 11.34375 15.78125 C 11.938897 15.296202 12.686542 15 13.625 15 z" overflow="visible" font-family="Sans" fill="#000000"/></svg>
