<?xml version="1.0" encoding="utf-8"?>
<svg xmlns="http://www.w3.org/2000/svg" viewBox="0 0 32 32" fill="#000000"><path d="M 16.03125 3.75 C 14.78861 3.75 13.78125 4.7573593 13.78125 6 C 13.78125 7.2426407 14.78861 8.25 16.03125 8.25 C 17.273891 8.25 18.28125 7.2426407 18.28125 6 C 18.28125 4.7573593 17.273891 3.75 16.03125 3.75 z M 23.09375 6.4375 C 21.713038 6.4375 20.59375 7.5567882 20.59375 8.9375 C 20.59375 10.318212 21.713038 11.4375 23.09375 11.4375 C 24.474462 11.4375 25.59375 10.318212 25.59375 8.9375 C 25.59375 7.5567882 24.474462 6.4375 23.09375 6.4375 z M 8.9375 6.90625 C 7.8329305 6.90625 6.9375 7.8016805 6.9375 8.90625 C 6.9375 10.010819 7.8329305 10.90625 8.9375 10.90625 C 10.042069 10.90625 10.9375 10.010819 10.9375 8.90625 C 10.9375 7.8016805 10.042069 6.90625 8.9375 6.90625 z M 26 13.03125 C 24.343146 13.03125 23 14.374396 23 16.03125 C 23 17.688105 24.343146 19.03125 26 19.03125 C 27.656854 19.03125 29 17.688105 29 16.03125 C 29 14.374396 27.656854 13.03125 26 13.03125 z M 6 14.21875 C 5.0335017 14.21875 4.25 15.002251 4.25 15.96875 C 4.25 16.935248 5.0335017 17.71875 6 17.71875 C 6.9664983 17.71875 7.75 16.935248 7.75 15.96875 C 7.75 15.002251 6.9664983 14.21875 6 14.21875 z M 8.90625 21.5625 C 8.0778228 21.5625 7.40625 22.234073 7.40625 23.0625 C 7.40625 23.890927 8.0778228 24.5625 8.90625 24.5625 C 9.7346771 24.5625 10.40625 23.890927 10.40625 23.0625 C 10.40625 22.234073 9.7346771 21.5625 8.90625 21.5625 z M 23.0625 22.09375 C 22.510215 22.09375 22.0625 22.541465 22.0625 23.09375 C 22.0625 23.646035 22.510215 24.09375 23.0625 24.09375 C 23.614785 24.09375 24.0625 23.646035 24.0625 23.09375 C 24.0625 22.541465 23.614785 22.09375 23.0625 22.09375 z M 15.96875 24.75 C 15.278394 24.75 14.71875 25.309644 14.71875 26 C 14.71875 26.690356 15.278394 27.25 15.96875 27.25 C 16.659105 27.25 17.21875 26.690356 17.21875 26 C 17.21875 25.309644 16.659105 24.75 15.96875 24.75 z" fill="#000000"/></svg>
