<?xml version="1.0" encoding="utf-8"?>
<svg xmlns="http://www.w3.org/2000/svg" viewBox="0 0 32 32" fill="#000000"><path style="text-indent:0;text-align:start;line-height:normal;text-transform:none;block-progression:tb;-inkscape-font-specification:Sans" d="M 5 5 L 5 6 L 5 26 L 5 27 L 6 27 L 16.59375 27 C 17.78836 29.919124 20.659415 32 24 32 C 28.406433 32 32 28.406433 32 24 C 32 20.659415 29.919124 17.78836 27 16.59375 L 27 6 L 27 5 L 26 5 L 6 5 L 5 5 z M 7 7 L 25 7 L 25 16.0625 C 24.669496 16.02061 24.341567 16 24 16 C 23.304957 16 22.643682 16.113347 22 16.28125 L 22 15 L 10 15 L 10 17 L 20.125 17 C 18.858205 17.704026 17.821595 18.748384 17.09375 20 L 10 20 L 10 22 L 16.28125 22 C 16.113347 22.643682 16 23.304957 16 24 C 16 24.341567 16.02061 24.669496 16.0625 25 L 7 25 L 7 7 z M 10 10 L 10 12 L 22 12 L 22 10 L 10 10 z M 24 18 C 27.325553 18 30 20.674447 30 24 C 30 27.325553 27.325553 30 24 30 C 20.674447 30 18 27.325553 18 24 C 18 20.674447 20.674447 18 24 18 z M 21 20 L 21 21 L 20 21 L 20 23 L 21 23 L 21 25 L 20 25 L 20 27 L 21 27 L 21 28 L 23 28 L 23 27 L 25 27 L 25 28 L 27 28 L 27 27 L 28 27 L 28 25 L 27 25 L 27 23 L 28 23 L 28 21 L 27 21 L 27 20 L 25 20 L 25 21 L 23 21 L 23 20 L 21 20 z M 23 23 L 25 23 L 25 25 L 23 25 L 23 23 z" fill="#000000"/></svg>
