<?xml version="1.0" encoding="utf-8"?>
<svg xmlns="http://www.w3.org/2000/svg" viewBox="0 0 32 32" fill="#000000"><path d="M 15 4 L 15 6.09375 C 12.476418 6.5115986 10.511599 8.4764185 10.09375 11 L 9 11 L 9 13 L 10 13 L 22 13 L 23 13 L 23 11 L 21.90625 11 C 21.488401 8.4764185 19.523582 6.5115986 17 6.09375 L 17 4 L 15 4 z M 16 8 C 17.919719 8 19.381362 9.2504316 19.8125 11 L 12.1875 11 C 12.618638 9.2504316 14.080281 8 16 8 z M 14 14 C 13.447715 14 13 14.447715 13 15 C 13 15.552285 13.447715 16 14 16 C 14.552285 16 15 15.552285 15 15 C 15 14.447715 14.552285 14 14 14 z M 18 14 C 17.447715 14 17 14.447715 17 15 C 17 15.552285 17.447715 16 18 16 C 18.552285 16 19 15.552285 19 15 C 19 14.447715 18.552285 14 18 14 z M 12 17 C 11.447715 17 11 17.447715 11 18 C 11 18.552285 11.447715 19 12 19 C 12.552285 19 13 18.552285 13 18 C 13 17.447715 12.552285 17 12 17 z M 16 17 C 15.447715 17 15 17.447715 15 18 C 15 18.552285 15.447715 19 16 19 C 16.552285 19 17 18.552285 17 18 C 17 17.447715 16.552285 17 16 17 z M 20 17 C 19.447715 17 19 17.447715 19 18 C 19 18.552285 19.447715 19 20 19 C 20.552285 19 21 18.552285 21 18 C 21 17.447715 20.552285 17 20 17 z M 10 20 C 9.4477153 20 9 20.447715 9 21 C 9 21.552285 9.4477153 22 10 22 C 10.552285 22 11 21.552285 11 21 C 11 20.447715 10.552285 20 10 20 z M 14 20 C 13.447715 20 13 20.447715 13 21 C 13 21.552285 13.447715 22 14 22 C 14.552285 22 15 21.552285 15 21 C 15 20.447715 14.552285 20 14 20 z M 18 20 C 17.447715 20 17 20.447715 17 21 C 17 21.552285 17.447715 22 18 22 C 18.552285 22 19 21.552285 19 21 C 19 20.447715 18.552285 20 18 20 z M 22 20 C 21.447715 20 21 20.447715 21 21 C 21 21.552285 21.447715 22 22 22 C 22.552285 22 23 21.552285 23 21 C 23 20.447715 22.552285 20 22 20 z M 8 23 C 7.4477153 23 7 23.447715 7 24 C 7 24.552285 7.4477153 25 8 25 C 8.5522847 25 9 24.552285 9 24 C 9 23.447715 8.5522847 23 8 23 z M 12 23 C 11.447715 23 11 23.447715 11 24 C 11 24.552285 11.447715 25 12 25 C 12.552285 25 13 24.552285 13 24 C 13 23.447715 12.552285 23 12 23 z M 16 23 C 15.447715 23 15 23.447715 15 24 C 15 24.552285 15.447715 25 16 25 C 16.552285 25 17 24.552285 17 24 C 17 23.447715 16.552285 23 16 23 z M 20 23 C 19.447715 23 19 23.447715 19 24 C 19 24.552285 19.447715 25 20 25 C 20.552285 25 21 24.552285 21 24 C 21 23.447715 20.552285 23 20 23 z M 24 23 C 23.447715 23 23 23.447715 23 24 C 23 24.552285 23.447715 25 24 25 C 24.552285 25 25 24.552285 25 24 C 25 23.447715 24.552285 23 24 23 z M 6 26 C 5.4477153 26 5 26.447715 5 27 C 5 27.552285 5.4477153 28 6 28 C 6.5522847 28 7 27.552285 7 27 C 7 26.447715 6.5522847 26 6 26 z M 10 26 C 9.4477153 26 9 26.447715 9 27 C 9 27.552285 9.4477153 28 10 28 C 10.552285 28 11 27.552285 11 27 C 11 26.447715 10.552285 26 10 26 z M 14 26 C 13.447715 26 13 26.447715 13 27 C 13 27.552285 13.447715 28 14 28 C 14.552285 28 15 27.552285 15 27 C 15 26.447715 14.552285 26 14 26 z M 18 26 C 17.447715 26 17 26.447715 17 27 C 17 27.552285 17.447715 28 18 28 C 18.552285 28 19 27.552285 19 27 C 19 26.447715 18.552285 26 18 26 z M 22 26 C 21.447715 26 21 26.447715 21 27 C 21 27.552285 21.447715 28 22 28 C 22.552285 28 23 27.552285 23 27 C 23 26.447715 22.552285 26 22 26 z M 26 26 C 25.447715 26 25 26.447715 25 27 C 25 27.552285 25.447715 28 26 28 C 26.552285 28 27 27.552285 27 27 C 27 26.447715 26.552285 26 26 26 z" fill="#000000"/></svg>
