<?xml version="1.0" encoding="utf-8"?>
<svg xmlns="http://www.w3.org/2000/svg" viewBox="0 0 32 32" fill="#000000"><path d="M 15 4 L 15 6.53125 C 14.242 5.82525 13.312 5.29725 12.25 5.03125 L 11.75 6.96875 C 12.752 7.21975 13.58125 7.80575 14.15625 8.59375 C 14.54325 6.97875 15.599 5.6255 17 4.8125 L 17 4 L 15 4 z M 20 5 C 17.254258 5 15 7.248975 15 10 L 15 11.71875 C 13.964524 10.683044 12.581599 10 11 10 C 7.6975704 10 5 12.698616 5 16 C 5 17.49313 5.6418854 18.732531 6.53125 19.65625 C 7.4206146 20.579969 8.5346371 21.254592 9.65625 21.90625 C 11.899476 23.209566 14.121759 24.409757 15 26.40625 L 15 28 L 17 28 L 17 26.4375 L 17.03125 26.375 C 17.863773 24.295356 20.029039 23.142581 22.28125 21.875 C 23.407356 21.24121 24.534809 20.569011 25.4375 19.65625 C 26.340191 18.743489 27 17.509718 27 16 C 27 12.698375 24.301625 10 21 10 C 19.418401 10 18.035476 10.683044 17 11.71875 L 17 10 C 17 8.333025 18.337742 7 20 7 C 20.75589 7 21.53125 7.375 21.53125 7.375 L 22.46875 5.625 C 22.46875 5.625 21.38011 5 20 5 z M 11 12 C 12.646853 12 14.038893 12.995606 14.65625 14.40625 L 14.9375 15 L 15.5625 15 L 16.4375 15 L 17.0625 15 L 17.34375 14.40625 C 17.961107 12.995606 19.353147 12 21 12 C 23.220375 12 25 13.779625 25 16 C 25 16.981282 24.671997 17.602105 24.03125 18.25 C 23.390503 18.897895 22.411144 19.506665 21.3125 20.125 C 19.502111 21.143916 17.341636 22.293236 15.96875 24.28125 C 14.565727 22.36284 12.446873 21.227854 10.65625 20.1875 C 9.5672379 19.554783 8.6051667 18.94225 7.96875 18.28125 C 7.3323333 17.62025 7 16.96537 7 16 C 7 13.779384 8.7784296 12 11 12 z" fill="#000000"/></svg>
