<?xml version="1.0" encoding="utf-8"?>
<svg xmlns="http://www.w3.org/2000/svg" viewBox="0 0 32 32" fill="#000000"><path style="text-indent:0;text-align:start;line-height:normal;text-transform:none;block-progression:tb;-inkscape-font-specification:Sans" d="M 26 4 C 25.596354 4 25.158893 4.2759309 24.96875 4.53125 C 24.778607 4.7865691 24.702252 5.0196716 24.625 5.28125 C 24.470497 5.8044067 24.356356 6.4905522 24.21875 7.5 C 23.91356 9.7398917 23.115786 10.779619 22.4375 11.34375 C 21.790328 11.882003 21.353781 11.962534 21.3125 11.96875 L 21.25 11.90625 C 20.590362 11.450001 19.805941 11.177733 19 11.0625 C 18.22527 10.95173 17.423316 11.02273 16.6875 11.25 L 16.6875 11.21875 L 16.59375 11.25 L 5.71875 13.875 A 1.0001 1.0001 0 0 0 5.625 13.875 C 4.8530658 14.129989 4.180056 14.681708 4.03125 15.5 C 4.0004702 15.66926 4.0125996 15.838388 4.03125 16 L 4 16 C 4 16 3.99888 17.396912 4 18.84375 C 4.00112 20.290588 4.00233 21.859737 4 21.96875 C 3.988254 22.529197 4.3210339 23.227265 4.875 23.71875 L 4.84375 23.75 L 4.90625 23.8125 L 8.28125 26.9375 L 8.3125 26.96875 L 8.34375 26.96875 C 9.621762 27.998645 11.423947 28.305868 12.96875 27.75 L 13 27.75 L 24.40625 24.09375 L 24.4375 24.09375 C 25.255921 23.792516 25.978775 23.124334 26 22.21875 C 26.0073 21.914737 26.001 20.583617 26 19.1875 C 25.999 17.791383 26 16.4375 26 16.4375 C 26.00145 16.427537 25.99872 16.416289 26 16.40625 C 26.051457 16.002642 25.971902 15.611225 25.78125 15.28125 C 26.024924 15.080385 26.262884 14.838337 26.5 14.5 C 27.326441 13.320768 28 11.287605 28 7.75 C 28 6.8590792 27.891674 6.0933951 27.65625 5.4375 C 27.538538 5.1095525 27.40998 4.8075075 27.15625 4.53125 C 26.90252 4.2549925 26.468619 4 26 4 z M 25.90625 8.8125 C 25.762987 11.229633 25.276055 12.726903 24.84375 13.34375 C 24.59197 13.703009 24.375391 13.865667 24.25 13.9375 L 23.21875 13.21875 C 23.385893 13.111368 23.549086 13.016109 23.71875 12.875 C 24.603391 12.139244 25.423422 10.752003 25.90625 8.8125 z M 17.90625 13.0625 C 18.671893 13.047043 19.674456 13.250838 20.125 13.5625 L 23.78125 16.03125 C 23.8617 16.086837 23.873317 16.092427 23.90625 16.125 C 23.872151 16.147499 23.856927 16.185519 23.78125 16.21875 C 23.7521 16.23155 23.78985 16.20413 23.75 16.21875 L 12.6875 19.90625 A 1.0001 1.0001 0 0 0 12.65625 19.9375 C 12.008771 20.175579 10.593467 19.95745 10.03125 19.53125 L 10 19.5 L 6.25 16.09375 A 1.0001 1.0001 0 0 0 6.21875 16.0625 C 6.1205899 15.983279 6.0918463 15.94447 6.0625 15.90625 C 6.0950367 15.888308 6.1361188 15.838643 6.1875 15.8125 C 6.229891 15.79094 6.162531 15.8101 6.25 15.78125 L 17.15625 13.15625 A 1.0001 1.0001 0 0 0 17.25 13.15625 C 17.423946 13.098791 17.651036 13.067652 17.90625 13.0625 z M 24 18.21875 C 23.999987 18.642755 23.999648 18.696033 24 19.1875 C 24.001 20.582633 24.00074 22.125263 24 22.15625 C 24.0028 22.034853 24.01638 22.11846 23.78125 22.21875 L 23.78125 22.1875 L 12.375 25.84375 L 12.34375 25.875 L 12.3125 25.875 C 11.656379 26.116325 10.244585 25.89703 9.65625 25.46875 C 9.641234 25.45782 9.607632 25.44869 9.59375 25.4375 L 6.1875 22.28125 L 6.15625 22.25 C 5.9543769 22.087311 5.9983338 22.110753 6 22.03125 C 6.00667 21.719263 6.00113 20.291662 6 18.84375 C 5.9998763 18.684639 6.0000738 18.68732 6 18.53125 L 8.6875 21 A 1.0001 1.0001 0 0 0 8.71875 21.03125 C 9.9827769 22.050267 11.784047 22.362209 13.3125 21.8125 L 13.34375 21.8125 L 24 18.21875 z" overflow="visible" font-family="Sans" fill="#000000"/></svg>
