<?xml version="1.0" encoding="utf-8"?>
<svg xmlns="http://www.w3.org/2000/svg" viewBox="0 0 32 32" fill="#000000"><path d="M 16 4 C 9.3844277 4 4 9.3844277 4 16 C 4 22.615572 9.3844277 28 16 28 C 22.615572 28 28 22.615572 28 16 C 28 9.3844277 22.615572 4 16 4 z M 16 6 C 21.534692 6 26 10.465308 26 16 C 26 21.534692 21.534692 26 16 26 C 10.465308 26 6 21.534692 6 16 C 6 10.465308 10.465308 6 16 6 z M 16 8 L 13 11 L 15 11 L 15 14 L 17 14 L 17 11 L 19 11 L 16 8 z M 11 13 L 11 15 L 8 15 L 8 17 L 11 17 L 11 19 L 14 16 L 11 13 z M 21 13 L 18 16 L 21 19 L 21 17 L 24 17 L 24 15 L 21 15 L 21 13 z M 15 18 L 15 21 L 13 21 L 16 24 L 19 21 L 17 21 L 17 18 L 15 18 z" fill="#000000"/></svg>
