<?xml version="1.0" encoding="utf-8"?>
<svg xmlns="http://www.w3.org/2000/svg" viewBox="0 0 32 32" fill="#000000"><path d="M 24 4 L 23.59375 7.15625 L 22 6 L 23.75 11.71875 L 24.375 10.5625 L 25.90625 11.96875 L 25.5625 9.96875 L 29 11 L 26.53125 8.625 L 30 7 L 26.3125 7.53125 L 28 4 L 24.96875 7.0625 L 24 4 z M 18.90625 5.03125 L 17 5.625 L 17.625 7.59375 L 8.125 10.5625 L 7.1875 10.875 L 7.46875 11.8125 C 7.5282393 12.003595 7.5312779 12.258173 7.4375 12.5625 C 6.6774067 12.267662 5.5392058 12 4 12 L 4 14 C 4.9981676 14 5.7458983 14.125494 6.28125 14.28125 C 6.2662607 14.297767 6.2650543 14.327386 6.25 14.34375 C 5.3857059 15.28324 4.40625 15.96875 4.40625 15.96875 L 4 16.28125 L 4 16.78125 L 4 18.71875 C 3.6314814 19.167594 2 21.218868 2 24 C 2 26.132518 3.21875 27.625 3.21875 27.625 L 3.65625 28.15625 L 4.3125 27.9375 L 10.3125 25.9375 L 11.34375 25.59375 L 10.90625 24.59375 C 10.90625 24.59375 10.108912 22.643505 10 20.9375 C 9.960484 20.318517 10.125603 20.295179 10.40625 20.15625 C 10.574638 20.07289 10.655713 20.08252 10.78125 20.0625 C 11.257898 20.431565 12.127526 21 13.5625 21 C 13.5625 21 14.929833 21.01399 16.1875 20.25 C 16.816334 19.868004 17.432281 19.237148 17.75 18.34375 C 18.067719 17.450352 18.078949 16.356252 17.6875 15.0625 L 16.71875 15.375 L 16.6875 15.15625 L 17.65625 14.875 L 17.40625 14 L 21.84375 12.5625 L 22.8125 12.25 L 22.5 11.3125 L 21.3125 7.5 L 21.03125 6.53125 L 20.0625 6.84375 L 19.53125 7 L 18.90625 5.03125 z M 19.71875 9.0625 L 20.3125 10.96875 L 15.84375 12.40625 L 14.9375 12.71875 L 15.1875 13.65625 L 15.4375 14.5 C 14.99819 14.650699 14.501362 14.83582 13.90625 15.125 C 12.874128 15.626534 11.774013 16.449439 10.90625 17.53125 C 10.645499 17.23479 10.707068 17.119721 10.25 16.8125 C 9.5917175 16.370032 8.6264428 16.088155 7.5 15.90625 C 7.6119573 15.793237 7.6070565 15.808911 7.71875 15.6875 C 8.2348529 15.126495 8.7389797 14.490556 9.09375 13.75 C 9.3092534 13.300153 9.4054787 12.777147 9.4375 12.25 L 19.71875 9.0625 z M 12.6875 12.0625 L 10.6875 12.71875 L 11.3125 14.625 L 13.3125 13.9375 L 12.6875 12.0625 z M 15.8125 16.5 C 15.844 16.920007 15.959703 17.449321 15.875 17.6875 C 15.730156 18.094789 15.491666 18.358746 15.15625 18.5625 C 14.485417 18.970009 13.5625 19 13.5625 19 C 13.116492 19 12.7769 18.85982 12.46875 18.71875 C 13.074171 17.985869 13.907725 17.330717 14.78125 16.90625 C 15.176915 16.713986 15.483173 16.621117 15.8125 16.5 z M 6 17.8125 C 7.4612068 17.78843 8.5130835 18.057447 9.125 18.46875 C 9.221906 18.53389 9.170154 18.53088 9.25 18.59375 C 8.5793754 19.044418 7.9243891 19.878131 8 21.0625 C 8.087099 22.426817 8.4324935 23.556838 8.71875 24.375 L 4.4375 25.8125 C 4.2153295 25.389697 4 24.805457 4 24 C 4 21.933196 5.78125 19.625 5.78125 19.625 L 6 19.375 L 6 19 L 6 17.8125 z M 7 19 C 6.4477153 19 6 19.447715 6 20 C 6 20.552285 6.4477153 21 7 21 C 7.5522847 21 8 20.552285 8 20 C 8 19.447715 7.5522847 19 7 19 z" fill="#000000"/></svg>
