<?xml version="1.0" encoding="utf-8"?>
<svg xmlns="http://www.w3.org/2000/svg" viewBox="0 0 32 32" fill="#000000"><path d="M 12 3 C 10.3 3 9 4.3 9 6 C 9 7.7 10.3 9 12 9 L 12.699219 9 L 14.599609 11 L 10 16 L 10 19 L 19.300781 8.9003906 C 19.500781 9.0003906 19.7 9 20 9 C 21.7 9 23 7.7 23 6 C 23 4.3 21.7 3 20 3 C 18.3 3 17 4.3 17 6 C 17 6.6 17.2 7.1992187 17.5 7.6992188 L 16 9.4003906 L 14.400391 7.6992188 C 14.800391 7.2992187 15 6.7 15 6 C 15 4.3 13.7 3 12 3 z M 12 5 C 12.6 5 13 5.4 13 6 C 13 6.6 12.6 7 12 7 C 11.4 7 11 6.6 11 6 C 11 5.4 11.4 5 12 5 z M 20 5 C 20.6 5 21 5.4 21 6 C 21 6.6 20.6 7 20 7 C 19.4 7 19 6.6 19 6 C 19 5.4 19.4 5 20 5 z M 2 13 L 2 29 L 16 29 L 30 29 L 30 13 L 18.242188 13 L 15.480469 16 L 17 16 L 17 15 L 26.087891 15 A 1.5 1.5 0 0 0 26 15.5 A 1.5 1.5 0 0 0 27.5 17 A 1.5 1.5 0 0 0 28 16.912109 L 28 25.087891 A 1.5 1.5 0 0 0 27.5 25 A 1.5 1.5 0 0 0 26 26.5 A 1.5 1.5 0 0 0 26.087891 27 L 17 27 L 17 26 L 15 26 L 15 27 L 5.9121094 27 A 1.5 1.5 0 0 0 6 26.5 A 1.5 1.5 0 0 0 4.5 25 A 1.5 1.5 0 0 0 4 25.087891 L 4 16.912109 A 1.5 1.5 0 0 0 4.5 17 A 1.5 1.5 0 0 0 6 15.5 A 1.5 1.5 0 0 0 5.9121094 15 L 8.2011719 15 L 8.5273438 14.646484 L 10.042969 13 L 2 13 z M 15 17.136719 C 14.683 17.215719 14.389375 17.341281 14.109375 17.488281 L 12.328125 19.423828 C 12.124125 19.905828 12 20.434 12 21 C 12 22.894 13.259 24.428281 15 24.863281 L 15 24 L 17 24 L 17 24.863281 C 18.741 24.428281 20 22.894 20 21 C 20 19.106 18.741 17.571719 17 17.136719 L 17 18 L 15 18 L 15 17.136719 z M 8 19.5 A 1.5 1.5 0 0 0 6.5 21 A 1.5 1.5 0 0 0 8 22.5 A 1.5 1.5 0 0 0 9.5 21 A 1.5 1.5 0 0 0 8 19.5 z M 24 19.5 A 1.5 1.5 0 0 0 22.5 21 A 1.5 1.5 0 0 0 24 22.5 A 1.5 1.5 0 0 0 25.5 21 A 1.5 1.5 0 0 0 24 19.5 z M 15 20 L 17 20 L 17 22 L 15 22 L 15 20 z" fill="#000000"/></svg>
