<?xml version="1.0" encoding="utf-8"?>
<svg xmlns="http://www.w3.org/2000/svg" viewBox="0 0 32 32" fill="#000000"><path style="text-indent:0;text-align:start;line-height:normal;text-transform:none;block-progression:tb;-inkscape-font-specification:Sans" d="M 16 2 C 14.895431 2 14 2.8954305 14 4 C 14 4.4142136 14.128101 4.8057979 14.34375 5.125 C 13.578558 5.2154817 13 5.3125 13 5.3125 L 13 6.6875 C 13 6.6875 13.884868 6.8533325 15 6.9375 L 15 8.0625 C 13.915549 8.19828 12.904656 8.5686582 12 9.09375 C 11.963069 8.2569275 11.80395 7.42139 11.40625 6.96875 C 11.11525 6.63675 8.61175 3.73875 8.59375 3.71875 L 7.96875 3.03125 L 7.21875 3.59375 C 6.05375 4.48675 5.33225 5.40975 4.53125 6.59375 L 4 7.34375 L 4.71875 7.9375 C 4.71875 7.9375 7.1995 9.99525 7.6875 10.40625 C 8.170284 10.812679 8.9995771 10.955018 9.75 11 C 8.6517068 12.369728 8 14.107895 8 16 C 8 17.948641 8.6856787 19.737256 9.84375 21.125 L 8.46875 22.6875 C 8.2886903 22.467651 8.0736676 22.225637 7.96875 22.09375 C 8.00375 22.13775 8.9375 21.78125 8.9375 21.78125 C 7.0195 20.33025 6 19 6 19 C 6 19 5.92225 22.18525 6.40625 23.65625 L 6.4375 23.6875 C 6.4375 23.6875 6.75425 23.1805 6.90625 22.9375 C 6.9543749 23.018236 7.1924659 23.361649 7.5 23.8125 L 5.03125 26.625 L 6.53125 27.9375 L 8.75 25.40625 C 9.4112701 26.106069 10.261206 26.826587 11.28125 27.40625 C 12.36125 28.01925 14.1705 28.32625 14.5625 28.53125 C 15.1875 28.85825 15.699 29.575 16 30 C 16.301 29.575 16.8125 28.85725 17.4375 28.53125 C 17.8295 28.32625 19.63875 28.02025 20.71875 27.40625 C 21.708489 26.844012 22.530435 26.148992 23.1875 25.46875 L 25.5625 28.0625 L 27.0625 26.6875 L 24.5 23.875 C 24.834032 23.396931 25.075046 23.021305 25.125 22.9375 C 25.277 23.1815 25.59375 23.6875 25.59375 23.6875 C 26.06475 22.6515 26 19 26 19 C 26 19 25.01375 20.33025 23.09375 21.78125 C 23.09375 21.78125 24.0285 22.13775 24.0625 22.09375 C 23.942591 22.244707 23.718521 22.518852 23.5 22.78125 L 22.0625 21.21875 C 23.271471 19.817267 24 17.995938 24 16 C 24 14.107895 23.348293 12.369728 22.25 11 C 23.017558 10.959831 23.877631 10.825087 24.375 10.40625 C 24.86 9.99725 27.34375 7.9375 27.34375 7.9375 L 28.03125 7.34375 L 27.53125 6.59375 C 26.73025 5.40875 25.9955 4.49875 24.8125 3.59375 L 24.0625 3.03125 L 23.4375 3.75 C 23.4375 3.75 20.94725 6.63675 20.65625 6.96875 C 20.2553 7.42559 20.097556 8.2818418 20.0625 9.125 C 19.142879 8.5804536 18.108531 8.2012949 17 8.0625 L 17 6.9375 C 18.115132 6.8536014 19 6.6875 19 6.6875 L 19 5.3125 C 19 5.3125 18.421442 5.2154817 17.65625 5.125 C 17.871899 4.8057979 18 4.4142136 18 4 C 18 2.8954305 17.104569 2 16 2 z M 7.75 5.78125 C 8.468 6.61325 9.581 7.88175 9.875 8.21875 C 9.926 8.35575 9.94575 8.67925 9.96875 9.03125 C 9.48975 9.01325 9.09575 8.943 8.96875 8.875 C 8.64975 8.606 7.4645 7.61475 6.6875 6.96875 C 7.0165 6.52675 7.362 6.15225 7.75 5.78125 z M 24.3125 5.78125 C 24.6985 6.14925 25.01375 6.52575 25.34375 6.96875 C 24.56975 7.61275 23.424 8.58975 23.125 8.84375 C 22.98 8.92575 22.5455 8.98 22.0625 9 C 22.0865 8.648 22.1365 8.35575 22.1875 8.21875 C 22.4805 7.88175 23.5905 6.61525 24.3125 5.78125 z M 16 10 C 19.314 10 22 12.686 22 16 C 22 16.293894 21.978313 16.59242 21.9375 16.875 C 20.846215 15.151611 19.914083 14.369564 20 12.03125 L 19.96875 12 C 18.95475 12.339 18.72625 12.60175 18.03125 12.96875 C 18.03625 12.90475 18.03125 12.822 18.03125 12.75 C 18.03125 12.378 17.856 11.991 17 12 C 15.050184 12.02026 14.115065 12.682935 12.1875 13.84375 L 11.53125 12 C 12.629803 10.773441 14.223599 10 16 10 z M 10.8125 12.96875 L 13.96875 21.625 C 11.656812 20.791482 10 18.599419 10 16 C 10 14.897458 10.293688 13.85649 10.8125 12.96875 z M 21.90625 17.03125 C 21.420806 19.857836 18.965246 22 16 22 C 15.706106 22 15.40758 21.978313 15.125 21.9375 L 14.0625 18.96875 C 14.450707 18.511518 15.388021 17.712646 16 17.4375 C 16 17.4375 16 17.54825 16 17.78125 C 16 18.18225 16.05775 18.60875 16.34375 18.84375 C 16.60675 19.05875 17.0155 19.07825 17.5625 18.90625 C 18.224439 18.698602 21.059082 17.322066 21.90625 17.03125 z M 11.3125 22.46875 C 12.335367 23.211392 13.535708 23.716479 14.84375 23.90625 C 14.517553 25.02502 13.6825 26 13 26 C 11.938227 26 10.778924 25.131876 9.8125 24.1875 L 11.3125 22.46875 z M 20.5625 22.5625 L 22.125 24.28125 C 21.168578 25.191228 20.028656 26 19 26 C 18.281945 26 17.431122 25.10082 17.125 23.90625 C 18.390182 23.727584 19.559795 23.26085 20.5625 22.5625 z" overflow="visible" font-family="Sans" fill="#000000"/></svg>
