<?xml version="1.0" encoding="utf-8"?>
<svg xmlns="http://www.w3.org/2000/svg" viewBox="0 0 32 32" fill="#000000"><path style="text-indent:0;text-align:start;line-height:normal;text-transform:none;block-progression:tb;-inkscape-font-specification:Sans" d="M 9.40625 4 L 9.125 4.53125 L 3.125 15.53125 L 2.875 16 L 3.125 16.46875 L 9.125 27.46875 L 9.40625 28 L 10 28 L 22 28 L 22.59375 28 L 22.875 27.46875 L 28.875 16.46875 L 29.125 16 L 28.875 15.53125 L 22.875 4.53125 L 22.59375 4 L 22 4 L 10 4 L 9.40625 4 z M 10.59375 6 L 21.40625 6 L 26.875 16 L 21.40625 26 L 10.59375 26 L 5.125 16 L 10.59375 6 z M 12 10 L 12 12 L 10 12 L 10 14 L 12 14 L 12 15 L 10 15 L 10 17 L 12 17 L 12 18 L 10 18 L 10 20 L 12 20 L 12 22 L 14 22 L 14 20 L 15 20 L 15 22 L 17 22 L 17 20 L 18 20 L 18 22 L 20 22 L 20 20.0625 L 22.0625 20.0625 L 22.0625 18.0625 L 20 18.0625 L 20 17 L 22 17 L 22 15 L 20 15 L 20 14 L 22 14 L 22 12 L 20 12 L 20 10 L 18 10 L 18 12 L 17 12 L 17 10 L 15 10 L 15 12 L 14 12 L 14 10 L 12 10 z M 14 14 L 18 14 L 18 18 L 14 18 L 14 14 z M 15 15 L 15 17 L 17 17 L 17 15 L 15 15 z" fill="#000000"/></svg>
