<?xml version="1.0" encoding="utf-8"?>
<svg xmlns="http://www.w3.org/2000/svg" viewBox="0 0 32 32" fill="#000000"><path style="text-indent:0;text-align:start;line-height:normal;text-transform:none;block-progression:tb;-inkscape-font-specification:Sans" d="M 14 4 C 12.994436 4 12.13447 4.3496047 11.53125 4.875 C 10.92803 5.4003953 10.590134 6.0448576 10.375 6.65625 C 9.9502563 7.8633368 9.9983432 8.9708936 10 9 C 10.000022 9.0003785 10 9.03125 10 9.03125 L 10 12 L 12 12 L 12 9 L 12 8.96875 C 12 8.96875 11.97652 8.1209653 12.25 7.34375 C 12.386741 6.9551424 12.585876 6.5996047 12.84375 6.375 C 13.101624 6.1503953 13.413064 6 14 6 C 15.173871 6 18.273761 6.9497551 20.84375 7.9375 C 20.903758 7.9605632 20.94044 7.9769565 21 8 L 13 8 L 13 10 L 25 10 L 25 23 L 20 23 L 20 25 L 7 25 L 7 10 L 9 10 L 9 8 L 6 8 L 5 8 L 5 9 L 5 26 L 5 27 L 6 27 L 26 27 L 27 27 L 27 26 L 27 9 L 27 8 L 26.1875 8 C 25.886946 7.8624951 23.996321 6.9979106 21.5625 6.0625 C 18.928739 5.0502449 16.011129 4 14 4 z M 16 11.84375 L 15.5 12.125 L 11.5 14.34375 L 11 14.625 L 11 15.21875 L 11 19.375 L 11 19.9375 L 11.5 20.25 L 15.5 22.46875 L 16 22.71875 L 16.5 22.46875 L 20.5 20.25 L 21 19.9375 L 21 19.375 L 21 15.21875 L 21 14.625 L 20.5 14.34375 L 16.5 12.125 L 16 11.84375 z M 16 14.15625 L 17.90625 15.21875 L 16 16.25 L 14.09375 15.21875 L 16 14.15625 z M 13 16.90625 L 15 18 L 15 19.875 L 13 18.78125 L 13 16.90625 z M 19 16.90625 L 19 18.78125 L 17 19.875 L 17 18 L 19 16.90625 z" overflow="visible" font-family="Sans" fill="#000000"/></svg>
