<?xml version="1.0" encoding="utf-8"?>
<svg xmlns="http://www.w3.org/2000/svg" viewBox="0 0 32 32" fill="#000000"><path style="text-indent:0;text-align:start;line-height:normal;text-transform:none;block-progression:tb;-inkscape-font-specification:Bitstream Vera Sans" d="M 15 3 L 15 7 L 17 7 L 17 3 L 15 3 z M 7 5 L 7 6 L 7 26 L 7 27 L 8 27 L 16.59375 27 C 17.78836 29.919124 20.659415 32 24 32 C 28.406433 32 32 28.406433 32 24 C 32 19.935134 28.933201 16.561017 25 16.0625 L 25 6 L 25 5 L 24 5 L 18 5 L 18 7 L 23 7 L 23 16.0625 C 21.708164 16.226235 20.494428 16.699656 19.46875 17.40625 C 19.257 17.19608 19.028765 17.011439 18.78125 16.84375 C 19.524739 16.116062 20 15.114227 20 14 C 20 11.802706 18.197294 10 16 10 C 13.802706 10 12 11.802706 12 14 C 12 15.114227 12.475261 16.116062 13.21875 16.84375 C 11.88816 17.744728 11 19.281553 11 21 L 13 21 C 13 19.331516 14.331516 18 16 18 C 16.762413 18 17.442285 18.286026 17.96875 18.75 C 16.74712 20.155337 16 21.999062 16 24 C 16 24.341567 16.02061 24.669496 16.0625 25 L 9 25 L 9 7 L 14 7 L 14 5 L 8 5 L 7 5 z M 16 12 C 17.116414 12 18 12.883586 18 14 C 18 15.116414 17.116414 16 16 16 C 14.883586 16 14 15.116414 14 14 C 14 12.883586 14.883586 12 16 12 z M 24 18 C 27.325553 18 30 20.674447 30 24 C 30 27.325553 27.325553 30 24 30 C 20.674447 30 18 27.325553 18 24 C 18 20.674447 20.674447 18 24 18 z M 21.71875 20.28125 L 20.28125 21.71875 L 22.5625 24 L 20.28125 26.28125 L 21.71875 27.71875 L 24 25.4375 L 26.28125 27.71875 L 27.71875 26.28125 L 25.4375 24 L 27.71875 21.71875 L 26.28125 20.28125 L 24 22.5625 L 21.71875 20.28125 z" fill="#000000"/></svg>
