<?xml version="1.0" encoding="utf-8"?>
<svg xmlns="http://www.w3.org/2000/svg" viewBox="0 0 32 32" fill="#000000"><path style="line-height:normal;text-indent:0;text-align:start;text-decoration-line:none;text-decoration-style:solid;text-decoration-color:#000;text-transform:none;block-progression:tb;isolation:auto;mix-blend-mode:normal" d="M 16 3 C 14.743378 3 13.85942 3.8933056 13.416016 5 L 11 5 L 6 5 L 6 28 L 26 28 L 26 5 L 22 5 L 18.583984 5 C 18.14058 3.8933056 17.256622 3 16 3 z M 16 5 C 16.56503 5 17 5.4349698 17 6 L 17 7 L 18 7 L 20 7 L 20 9 L 12 9 L 12 7 L 15 7 L 15 6 C 15 5.4349698 15.43497 5 16 5 z M 8 7 L 10 7 L 10 11 L 22 11 L 22 7 L 24 7 L 24 26 L 8 26 L 8 7 z M 16 13 C 13.802706 13 12 14.802706 12 17 C 12 18.115952 12.467383 19.127539 13.212891 19.855469 C 11.880285 20.756135 11 22.280002 11 24 L 13 24 C 13 22.331516 14.331516 21 16 21 C 17.668484 21 19 22.331516 19 24 L 21 24 C 21 22.280002 20.119715 20.756135 18.787109 19.855469 C 19.532617 19.127539 20 18.115952 20 17 C 20 14.802706 18.197294 13 16 13 z M 16 15 C 17.116414 15 18 15.883586 18 17 C 18 18.116414 17.116414 19 16 19 C 14.883586 19 14 18.116414 14 17 C 14 15.883586 14.883586 15 16 15 z" font-weight="400" font-family="sans-serif" white-space="normal" overflow="visible" fill="#000000"/></svg>
