<?xml version="1.0" encoding="utf-8"?>
<svg xmlns="http://www.w3.org/2000/svg" viewBox="0 0 32 32" fill="#000000"><path d="M 15 4 L 15 16 L 17 16 L 17 4 L 15 4 z M 17 16 L 19 16 C 19 12.372933 20.303534 10.773573 21.5625 9.90625 C 22.821466 9.0389274 24.03125 8.96875 24.03125 8.96875 L 23.96875 6.96875 C 23.96875 6.96875 22.178534 7.050573 20.4375 8.25 C 20.443544 8.2303329 20.430784 8.2040949 20.4375 8.1875 C 21.145405 6.438385 21.78125 5.625 21.78125 5.625 L 20.21875 4.375 C 20.21875 4.375 19.354595 5.480365 18.5625 7.4375 C 17.770405 9.394635 17 12.273127 17 16 z M 19 16 L 21 16 C 21 14.083212 22.105322 13.232236 23.40625 12.65625 C 24.707178 12.080264 26.0625 12 26.0625 12 L 25.9375 10 C 25.9375 10 24.292822 10.06024 22.59375 10.8125 C 20.894678 11.564764 19 13.229788 19 16 z M 15 16 C 15 8.6391696 12.875 4.53125 12.875 4.53125 L 11.125 5.46875 C 11.125 5.46875 11.828289 6.8267837 12.375 9.5 C 10.683517 7.556701 8.8125 6.53125 8.8125 6.53125 L 7.875 8.28125 C 7.875 8.28125 12.271691 10.790825 12.90625 15 C 12.955385 15.325923 13 15.653968 13 16 L 15 16 z M 13 16 C 13 15.653723 12.961376 15.312115 12.90625 15 C 12.520367 12.815194 10.892938 11.470731 9.40625 10.8125 C 7.7071778 10.060236 6.0625 10 6.0625 10 L 5.9375 12 C 5.9375 12 7.2928222 12.08026 8.59375 12.65625 C 9.8946778 13.232236 11 14.083212 11 16 L 13 16 z M 12 17 C 12 18.853231 13.280143 20.396692 15 20.84375 L 15 24.28125 C 14.403104 24.627293 14 25.260396 14 26 C 14 27.104569 14.895431 28 16 28 C 17.104569 28 18 27.104569 18 26 C 18 25.260396 17.596896 24.627293 17 24.28125 L 17 20.84375 C 18.719857 20.396692 20 18.853231 20 17 L 18 17 C 18 18.116666 17.116666 19 16 19 C 14.883334 19 14 18.116666 14 17 L 12 17 z" fill="#000000"/></svg>
