<?xml version="1.0" encoding="utf-8"?>
<svg xmlns="http://www.w3.org/2000/svg" viewBox="0 0 32 32" fill="#000000"><path style="text-indent:0;text-align:start;line-height:normal;text-transform:none;block-progression:tb;-inkscape-font-specification:Bitstream Vera Sans" d="M 12.40625 4 C 8.8016167 4 6.5816322 5.6392561 5.40625 7.375 C 4.8185589 8.2428719 4.4495602 9.1242842 4.25 9.84375 C 4.0504398 10.563216 4 11.046236 4 11.40625 C 4 11.939607 4.2005836 12.522875 4.59375 12.875 C 4.9869164 13.227125 5.4750172 13.34375 5.90625 13.34375 C 6.9512553 13.34375 7.8125 12.451255 7.8125 11.40625 C 7.8125 10.062369 7.0910146 9.3040192 6.8125 9.03125 C 6.9104065 8.8462921 6.9386579 8.6828836 7.0625 8.5 C 7.9353678 7.2109939 9.3718833 6 12.40625 6 C 14.84525 6 16.72775 7.266 17.84375 9.5 C 17.89475 9.5 17.949 9.5 18 9.5 C 18.7 9.5 19.39975 9.5745 20.09375 9.6875 C 18.76375 6.1295 16.02725 4 12.40625 4 z M 18 11 C 14.134227 11 10.686659 12.113243 8.15625 13.96875 C 5.6258407 15.824257 4 18.488904 4 21.46875 C 4 25.054162 6.7081958 28 10.5 28 C 17.753 28 21 21.55325 21 15.15625 C 21 15.13925 21.001 15.11075 21 15.09375 C 20.312 14.82475 19.59375 14.6495 18.96875 14.5625 C 18.97475 14.7525 19 14.96125 19 15.15625 C 19 20.55725 16.371 26 10.5 26 C 7.6878042 26 6 24.113338 6 21.46875 C 6 19.207596 7.2119093 17.125743 9.34375 15.5625 C 11.475591 13.999257 14.516773 13 18 13 C 19.73856 13 21.814394 13.579609 23.375 14.6875 C 24.935606 15.795391 26 17.352621 26 19.59375 C 26 22.11576 25.107734 23.718188 24.0625 24.71875 C 23.99867 24.69066 22.788774 24.15625 21.5 24.15625 C 20.455066 24.15625 19.59375 25.048816 19.59375 26.09375 C 19.59375 27.219212 20.440384 28 21.5 28 C 24.324826 28 28 25.178263 28 19.59375 C 28 16.690879 26.497144 14.426859 24.53125 13.03125 C 22.565356 11.635641 20.15544 11 18 11 z" overflow="visible" font-family="Bitstream Vera Sans" fill="#000000"/></svg>
