<?xml version="1.0" encoding="utf-8"?>
<svg xmlns="http://www.w3.org/2000/svg" viewBox="0 0 32 32" fill="#000000"><path style="text-indent:0;text-align:start;line-height:normal;text-transform:none;block-progression:tb;-inkscape-font-specification:Sans" d="M 24 3.59375 L 23.28125 4.28125 L 5.28125 22.28125 L 4.59375 23 L 5.28125 23.71875 L 7.5625 26 L 4 26 L 4 28 L 14 28 L 14 26 L 10.4375 26 L 16.125 20.3125 C 16.641728 20.733004 17.288775 21 18 21 C 18.425815 21 18.819021 20.88186 19.1875 20.71875 L 23.8125 26 L 23 26 L 23 28 L 28 28 L 28 26 L 26.4375 26 L 20.65625 19.375 C 20.872248 18.961812 21 18.494552 21 18 C 21 17.288775 20.733004 16.641728 20.3125 16.125 L 27.71875 8.71875 L 28.40625 8 L 27.71875 7.28125 L 24.71875 4.28125 L 24 3.59375 z M 24 6.4375 L 25.5625 8 L 18.5 15.0625 C 18.334189 15.033599 18.173515 15 18 15 C 16.35499 15 15 16.35499 15 18 C 15 18.173515 15.033599 18.334189 15.0625 18.5 L 14 19.5625 L 12.4375 18 L 24 6.4375 z M 18 17 C 18.564128 17 19 17.435872 19 18 C 19 18.564128 18.564128 19 18 19 C 17.435872 19 17 18.564128 17 18 C 17 17.435872 17.435872 17 18 17 z M 11 19.4375 L 12.5625 21 L 9 24.5625 L 7.4375 23 L 11 19.4375 z" fill="#000000"/></svg>
