<?xml version="1.0" encoding="utf-8"?>
<svg xmlns="http://www.w3.org/2000/svg" viewBox="0 0 32 32" fill="#000000"><path style="text-indent:0;text-align:start;line-height:normal;text-transform:none;block-progression:tb;-inkscape-font-specification:Bitstream Vera Sans" d="M 16 3 C 13.912577 3 12.019484 3.4799169 10.5625 4.3125 C 9.1055156 5.1450831 8 6.4225862 8 8 C 8 8.9144568 8.3749952 9.7185467 8.96875 10.40625 C 8.5472143 10.634583 8.160643 10.88495 7.84375 11.1875 C 7.3608655 11.648528 7 12.277832 7 13 L 7 25 C 7 25.77454 7.4285827 26.427354 7.96875 26.90625 C 8.5089173 27.385146 9.1978366 27.761706 10 28.0625 C 11.604327 28.664088 13.689672 29 16 29 C 18.310328 29 20.395673 28.664088 22 28.0625 C 22.802163 27.761706 23.491083 27.385146 24.03125 26.90625 C 24.571417 26.427354 25 25.77454 25 25 L 25 13 C 25 12.277832 24.639135 11.648528 24.15625 11.1875 C 23.839357 10.88495 23.452786 10.634583 23.03125 10.40625 C 23.625124 9.7185516 24 8.9144568 24 8 C 24 6.4225862 22.894484 5.1450831 21.4375 4.3125 C 19.980516 3.4799169 18.087423 3 16 3 z M 16 5 C 17.778577 5 19.392234 5.4160831 20.46875 6.03125 C 21.545266 6.6464169 22 7.3684138 22 8 C 22 8.6504449 21.424638 9.3818128 20.28125 10 L 11.71875 10 C 10.57455 9.3817891 10 8.6504449 10 8 C 10 7.3684138 10.454734 6.6464169 11.53125 6.03125 C 12.607766 5.4160831 14.221423 5 16 5 z M 10.34375 12 L 11.15625 12 L 20.84375 12 L 21.65625 12 C 22.146454 12.218289 22.544251 12.428563 22.75 12.625 C 22.974115 12.838972 23 12.953168 23 13 C 23 13.05396 22.98827 13.167302 22.71875 13.40625 C 22.44923 13.645198 21.958087 13.945419 21.3125 14.1875 C 20.021327 14.671662 18.107672 15 16 15 C 13.892328 15 11.978673 14.671662 10.6875 14.1875 C 10.041913 13.945419 9.5507702 13.645198 9.28125 13.40625 C 9.0117298 13.167302 9 13.05396 9 13 C 9 12.953168 9.0258845 12.838972 9.25 12.625 C 9.4557492 12.428563 9.8535461 12.218289 10.34375 12 z M 9 15.625 C 9.3079969 15.790434 9.6444018 15.929158 10 16.0625 C 11.604327 16.664088 13.689672 17 16 17 C 18.310328 17 20.395673 16.664088 22 16.0625 C 22.355598 15.929158 22.692003 15.790434 23 15.625 L 23 16.3125 C 22.661275 16.604368 22.134975 16.90643 21.46875 17.15625 C 20.099288 17.669769 18.158336 18 16 18 C 13.841664 18 11.900712 17.669769 10.53125 17.15625 C 9.8650254 16.90643 9.3387246 16.604368 9 16.3125 L 9 15.625 z M 9 17.53125 C 9.3399663 17.741026 9.7175828 17.929259 10.15625 18.09375 C 11.682288 18.665981 13.740336 19 16 19 C 18.259664 19 20.317712 18.665981 21.84375 18.09375 C 22.282417 17.929259 22.660034 17.741026 23 17.53125 L 23 23.3125 C 22.661275 23.604368 22.134975 23.90643 21.46875 24.15625 C 20.099288 24.669769 18.158336 25 16 25 C 13.841664 25 11.900712 24.669769 10.53125 24.15625 C 9.8650254 23.90643 9.3387246 23.604368 9 23.3125 L 9 17.53125 z M 9 24.53125 C 9.3399663 24.741026 9.7175828 24.929259 10.15625 25.09375 C 11.682288 25.665981 13.740336 26 16 26 C 18.259664 26 20.317712 25.665981 21.84375 25.09375 C 22.282417 24.929259 22.660034 24.741026 23 24.53125 L 23 25 C 23 25.05396 22.98827 25.167302 22.71875 25.40625 C 22.44923 25.645198 21.958087 25.945419 21.3125 26.1875 C 20.021327 26.671662 18.107672 27 16 27 C 13.892328 27 11.978673 26.671662 10.6875 26.1875 C 10.041913 25.945419 9.5507702 25.645198 9.28125 25.40625 C 9.0117298 25.167302 9 25.05396 9 25 L 9 24.53125 z" overflow="visible" font-family="Bitstream Vera Sans" fill="#000000"/></svg>
