<?xml version="1.0" encoding="utf-8"?>
<svg xmlns="http://www.w3.org/2000/svg" viewBox="0 0 32 32" fill="#000000"><path d="M 15 1 L 15 3 L 17 3 L 17 1 L 15 1 z M 8 5 L 5 12 L 5 25 C 5 27 6 27 8 27 L 13 27 L 13 25 L 8 25 C 7.172 25 7 24.828 7 24 L 7 14 L 13 14 L 13 12 L 7 12 L 9 7 L 13 7 L 13 5 L 8 5 z M 15 5 L 15 7 L 17 7 L 17 5 L 15 5 z M 19 5 L 19 7 L 23 7 L 25 12 L 19 12 L 19 14 L 25 14 L 25 24 C 25 24.828 24.828 25 24 25 L 19 25 L 19 27 L 24 27 C 26 27 27 27 27 25 L 27 12 L 24 5 L 19 5 z M 15 9 L 15 11 L 17 11 L 17 9 L 15 9 z M 15 13 L 15 15 L 17 15 L 17 13 L 15 13 z M 15 17 L 15 19 L 17 19 L 17 17 L 15 17 z M 15 21 L 15 23 L 17 23 L 17 21 L 15 21 z M 15 25 L 15 27 L 17 27 L 17 25 L 15 25 z M 15 29 L 15 31 L 17 31 L 17 29 L 15 29 z" fill="#000000"/></svg>
