<?xml version="1.0" encoding="utf-8"?>
<svg xmlns="http://www.w3.org/2000/svg" viewBox="0 0 32 32" fill="#000000"><path style="text-indent:0;text-align:start;line-height:normal;text-transform:none;block-progression:tb;-inkscape-font-specification:Bitstream Vera Sans" d="M 5 5 L 5 6 L 5 26 L 5 27 L 6 27 L 26 27 L 27 27 L 27 26 L 27 6 L 27 5 L 26 5 L 6 5 L 5 5 z M 7 7 L 25 7 L 25 25 L 7 25 L 7 7 z M 10 9 C 9.4477153 9 9 9.4477153 9 10 C 9 10.552285 9.4477153 11 10 11 C 10.552285 11 11 10.552285 11 10 C 11 9.4477153 10.552285 9 10 9 z M 14 9 C 13.447715 9 13 9.4477153 13 10 C 13 10.552285 13.447715 11 14 11 C 14.552285 11 15 10.552285 15 10 C 15 9.4477153 14.552285 9 14 9 z M 18 9 C 17.447715 9 17 9.4477153 17 10 C 17 10.552285 17.447715 11 18 11 C 18.552285 11 19 10.552285 19 10 C 19 9.4477153 18.552285 9 18 9 z M 22 9 C 21.447715 9 21 9.4477153 21 10 C 21 10.552285 21.447715 11 22 11 C 22.552285 11 23 10.552285 23 10 C 23 9.4477153 22.552285 9 22 9 z M 9.96875 13 C 9.4164652 13 8.96875 13.447715 8.96875 14 C 8.96875 14.552285 9.4164652 15 9.96875 15 C 10.521035 15 10.96875 14.552285 10.96875 14 C 10.96875 13.447715 10.521035 13 9.96875 13 z M 13 13 L 13 19 L 19 19 L 19 13 L 13 13 z M 21.96875 13 C 21.416465 13 20.96875 13.447715 20.96875 14 C 20.96875 14.552285 21.416465 15 21.96875 15 C 22.521035 15 22.96875 14.552285 22.96875 14 C 22.96875 13.447715 22.521035 13 21.96875 13 z M 9.96875 17 C 9.4164652 17 8.96875 17.447715 8.96875 18 C 8.96875 18.552285 9.4164652 19 9.96875 19 C 10.521035 19 10.96875 18.552285 10.96875 18 C 10.96875 17.447715 10.521035 17 9.96875 17 z M 21.96875 17 C 21.416465 17 20.96875 17.447715 20.96875 18 C 20.96875 18.552285 21.416465 19 21.96875 19 C 22.521035 19 22.96875 18.552285 22.96875 18 C 22.96875 17.447715 22.521035 17 21.96875 17 z M 10 21 C 9.4477153 21 9 21.447715 9 22 C 9 22.552285 9.4477153 23 10 23 C 10.552285 23 11 22.552285 11 22 C 11 21.447715 10.552285 21 10 21 z M 14 21 C 13.447715 21 13 21.447715 13 22 C 13 22.552285 13.447715 23 14 23 C 14.552285 23 15 22.552285 15 22 C 15 21.447715 14.552285 21 14 21 z M 18 21 C 17.447715 21 17 21.447715 17 22 C 17 22.552285 17.447715 23 18 23 C 18.552285 23 19 22.552285 19 22 C 19 21.447715 18.552285 21 18 21 z M 22 21 C 21.447715 21 21 21.447715 21 22 C 21 22.552285 21.447715 23 22 23 C 22.552285 23 23 22.552285 23 22 C 23 21.447715 22.552285 21 22 21 z" fill="#000000"/></svg>
