<?xml version="1.0" encoding="utf-8"?>
<svg xmlns="http://www.w3.org/2000/svg" viewBox="0 0 32 32" fill="#000000"><path style="line-height:normal;text-indent:0;text-align:start;text-decoration-line:none;text-decoration-style:solid;text-decoration-color:#000;text-transform:none;block-progression:tb;isolation:auto;mix-blend-mode:normal" d="M 16 3 C 12.698375 3 10 5.6983746 10 9 L 10 10 L 10 29 L 22 29 L 22 9.1269531 L 22.021484 8.9375 L 21.357422 8.6367188 C 19.968676 8.008019 19 6.6287102 19 5 L 21 5 L 21 3 L 19.115234 3 L 16 3 z M 16 5 L 17 5 C 17 6.6115152 17.783631 7.9224687 18.824219 9 L 12 9 C 12 6.7796254 13.779625 5 16 5 z M 12 11 L 20 11 L 20 27 L 12 27 L 12 11 z" font-weight="400" font-family="sans-serif" white-space="normal" overflow="visible" fill="#000000"/></svg>
