<?xml version="1.0" encoding="utf-8"?>
<svg xmlns="http://www.w3.org/2000/svg" viewBox="0 0 32 32" fill="#000000"><path style="text-indent:0;text-align:start;line-height:normal;text-transform:none;block-progression:tb;-inkscape-font-specification:Bitstream Vera Sans" d="M 19.75 4.03125 C 19.011532 4.2097491 18.235755 4.6276527 17.40625 5.1875 C 16.819642 5.5834116 16.220546 6.0380423 15.71875 6.5625 C 15.019179 6.2170525 14.171454 6.03125 13.21875 6.03125 C 10.410423 6.03125 8.1789951 8.2199294 6.59375 10.59375 C 5.0085049 12.967571 4 15.540475 4 17.40625 C 4 19.055153 4.484597 20.50021 5.4375 21.59375 L 5.4375 21.625 C 6.6628758 23.080685 9.65625 25.84375 9.65625 25.84375 L 9.6875 25.8125 C 9.9329421 26.104876 10.22492 26.363837 10.53125 26.59375 C 11.872888 27.600705 13.628329 28 15.5625 28 C 18.197158 28 20.113074 27.812191 21.53125 27.25 C 22.240338 26.968904 22.830517 26.594847 23.25 26.03125 C 23.669483 25.467653 23.875 24.76637 23.875 24.0625 C 23.875 22.840138 23.510951 21.812216 23.09375 20.78125 C 22.676549 19.750284 22.183722 18.664909 21.8125 17.21875 L 21.8125 17.1875 C 21.437415 15.862812 21.686688 14.410058 21.5 12.96875 C 21.417908 12.334968 21.195471 11.659257 20.6875 11.125 C 22.103682 9.4083641 23.811326 8.4022863 25.28125 7.96875 L 24.71875 6.03125 C 22.890085 6.570593 20.895481 7.772988 19.25 9.71875 C 18.562017 9.0453446 18.038584 8.5300351 17.3125 7.8125 C 17.661989 7.4670783 18.093191 7.1394041 18.53125 6.84375 C 19.216745 6.3810973 19.962468 6.0382509 20.25 5.96875 L 19.75 4.03125 z M 13.21875 8.03125 C 14.225239 8.03125 14.856272 8.2892191 15.21875 8.59375 C 15.600628 8.9772347 16.131963 9.4647968 16.875 10.1875 C 14.552844 10.59082 12.628174 12.630876 11.15625 14.8125 C 9.5192856 17.238741 8.41716 19.894536 8.40625 21.875 C 7.8058449 21.283387 7.2473151 20.713399 6.9375 20.34375 L 6.9375 20.3125 C 6.336652 19.630311 6 18.713031 6 17.40625 C 6 16.406025 6.8484951 13.817429 8.25 11.71875 C 9.6515049 9.6200706 11.522077 8.03125 13.21875 8.03125 z M 17.71875 12.125 C 18.630665 12.125 19.02076 12.299424 19.1875 12.4375 C 19.35424 12.575576 19.439094 12.779779 19.5 13.25 C 19.621091 14.184875 19.394686 15.880956 19.90625 17.71875 C 19.913036 17.72259 19.904195 17.742075 19.90625 17.75 C 20.319267 19.341811 20.825369 20.559147 21.21875 21.53125 C 21.616049 22.513034 21.875 23.243862 21.875 24.0625 C 21.875 24.43613 21.79855 24.621315 21.65625 24.8125 C 21.513952 25.003685 21.251787 25.219721 20.78125 25.40625 C 19.840176 25.779309 18.094842 26 15.5625 26 C 13.901671 26 12.599112 25.637295 11.75 25 C 10.900888 24.362705 10.40625 23.483403 10.40625 21.90625 C 10.40625 20.827786 11.339888 18.088895 12.8125 15.90625 C 14.285112 13.723605 16.258564 12.125 17.71875 12.125 z M 16.9375 17.53125 C 16.256701 18.798546 16.789383 20.051738 17.09375 20.96875 C 17.245933 21.427256 17.374222 21.832818 17.40625 22.0625 C 17.419185 22.155256 17.434565 22.173387 17.4375 22.1875 C 17.350644 22.261381 17.251748 22.292635 17.0625 22.3125 C 16.848019 22.33501 16.531908 22.3055 16.15625 22.25 C 15.780592 22.19452 15.374275 22.109514 14.90625 22.09375 C 14.438225 22.07799 13.858197 22.11875 13.34375 22.46875 L 14.46875 24.125 C 14.47835 24.1185 14.55868 24.0852 14.8125 24.09375 C 15.066319 24.10225 15.456783 24.15698 15.875 24.21875 C 16.293217 24.28052 16.755638 24.336423 17.28125 24.28125 C 17.806862 24.22608 18.411981 24.025519 18.875 23.5625 C 19.392452 23.045048 19.448597 22.309036 19.375 21.78125 C 19.3014 21.253464 19.118067 20.793619 18.96875 20.34375 C 18.670117 19.444012 18.576549 18.733454 18.71875 18.46875 L 16.9375 17.53125 z" overflow="visible" font-family="Bitstream Vera Sans" fill="#000000"/></svg>
