<?xml version="1.0" encoding="utf-8"?>
<svg xmlns="http://www.w3.org/2000/svg" viewBox="0 0 32 32" fill="#000000"><path style="text-indent:0;text-align:start;line-height:normal;text-transform:none;block-progression:tb;-inkscape-font-specification:Sans" d="M 13 3 L 13 4 L 13 5.25 C 11.002615 5.5616963 9.1913532 6.1610754 7.71875 7.03125 C 5.5363464 8.3208521 4 10.247779 4 12.5 C 4 14.752221 5.5363464 16.679148 7.71875 17.96875 C 9.1913532 18.838925 11.002615 19.438304 13 19.75 L 13 22 L 15.9375 22 L 19 22 L 19 19.75 C 20.997385 19.438304 22.808647 18.838925 24.28125 17.96875 C 26.463654 16.679148 28 14.752221 28 12.5 C 28 10.247779 26.463654 8.3208521 24.28125 7.03125 C 22.808647 6.1610754 20.997385 5.5616963 19 5.25 L 19 4 L 19 3 L 18 3 L 16 3 L 14 3 L 13 3 z M 15.9375 22 C 14.83293 22 13.9375 22.895431 13.9375 24 C 13.9375 25.104569 14.83293 26 15.9375 26 C 17.042069 26 17.9375 25.104569 17.9375 24 C 17.9375 22.895431 17.042069 22 15.9375 22 z M 15.9375 26 C 14.6795 27.108 14.90625 30 14.90625 30 L 16.96875 30 C 16.96875 30 17.1955 27.094 15.9375 26 z M 15 5 L 16 5 L 17 5 L 17 5.03125 C 16.886811 5.0256811 16.770309 5.0349236 16.65625 5.03125 C 16.445857 5.0036854 16.2165 5 16 5 C 15.663405 5 15.329548 5.0150363 15 5.03125 L 15 5 z M 16 7 C 17.029426 7 17.995055 7.5185708 18.75 8.5 C 19.504945 9.4814292 20 10.912936 20 12.5 C 20 14.087064 19.504945 15.518571 18.75 16.5 C 17.995055 17.481429 17.029426 18 16 18 C 14.970574 18 14.004945 17.481429 13.25 16.5 C 12.495055 15.518571 12 14.087064 12 12.5 C 12 10.912936 12.495055 9.4814292 13.25 8.5 C 14.004945 7.5185708 14.970574 7 16 7 z M 11.40625 7.625 C 10.50662 8.9532402 10 10.660836 10 12.5 C 10 14.339164 10.50662 16.04676 11.40625 17.375 C 10.399104 17.083603 9.4785249 16.698958 8.71875 16.25 C 6.9199367 15.187065 6 13.83763 6 12.5 C 6 11.16237 6.9199367 9.8129352 8.71875 8.75 C 9.4785249 8.301042 10.399104 7.9163973 11.40625 7.625 z M 20.59375 7.625 C 21.600896 7.9163973 22.521475 8.301042 23.28125 8.75 C 25.080063 9.8129352 26 11.16237 26 12.5 C 26 13.83763 25.080063 15.187065 23.28125 16.25 C 22.521475 16.698958 21.600896 17.083603 20.59375 17.375 C 21.49338 16.04676 22 14.339164 22 12.5 C 22 10.660836 21.49338 8.9532402 20.59375 7.625 z" overflow="visible" font-family="Sans" fill="#000000"/></svg>
