<?xml version="1.0" encoding="utf-8"?>
<svg xmlns="http://www.w3.org/2000/svg" viewBox="0 0 32 32" fill="#000000"><path style="text-indent:0;text-align:start;line-height:normal;text-transform:none;block-progression:tb;-inkscape-font-specification:Bitstream Vera Sans" d="M 4 6 L 4 7 L 4 25 L 4 26 L 5 26 L 27 26 L 28 26 L 28 25 L 28 7 L 28 6 L 27 6 L 5 6 L 4 6 z M 6 8 L 26 8 L 26 24 L 6 24 L 6 8 z M 9 12 L 9 20 L 11 20 L 11 12 L 9 12 z M 14.5 12 C 13.130937 12 12 13.130937 12 14.5 C 12 15.869063 13.130937 17 14.5 17 C 14.786937 17 15 17.213063 15 17.5 C 15 17.864232 14.93915 18 14.5 18 C 14.120705 18 14.068225 17.91215 14.0625 17.90625 C 14.056775 17.900353 14 17.866336 14 17.625 L 12 17.625 C 12 18.192664 12.156725 18.830147 12.625 19.3125 C 13.093275 19.794853 13.775295 20 14.5 20 C 15.908848 20 17 18.791768 17 17.5 C 17 16.130937 15.869063 15 14.5 15 C 14.213063 15 14 14.786937 14 14.5 C 14 14.213063 14.213063 14 14.5 14 C 14.77034 14 14.844119 14.05675 14.90625 14.125 C 14.968381 14.19325 15 14.320536 15 14.40625 L 17 14.40625 C 17 13.839964 16.805369 13.254 16.375 12.78125 C 15.944631 12.3085 15.25966 12 14.5 12 z M 20.5 12 C 19.130937 12 18 13.130937 18 14.5 L 18 17.5 C 18 18.869063 19.130937 20 20.5 20 C 21.869063 20 23 18.869063 23 17.5 L 23 14.5 C 23 13.130937 21.869063 12 20.5 12 z M 20.5 14 C 20.786937 14 21 14.213063 21 14.5 L 21 17.5 C 21 17.786937 20.786937 18 20.5 18 C 20.213063 18 20 17.786937 20 17.5 L 20 14.5 C 20 14.213063 20.213063 14 20.5 14 z" overflow="visible" font-family="Bitstream Vera Sans" fill="#000000"/></svg>
