<?xml version="1.0" encoding="utf-8"?>
<svg xmlns="http://www.w3.org/2000/svg" viewBox="0 0 32 32" fill="#000000"><path style="text-indent:0;text-align:start;line-height:normal;text-transform:none;block-progression:tb;-inkscape-font-specification:Sans" d="M 5 5 L 5 6 L 5 26 L 5 27 L 6 27 L 26 27 L 27 27 L 27 26 L 27 6 L 27 5 L 26 5 L 6 5 L 5 5 z M 7 7 L 25 7 L 25 25 L 7 25 L 7 7 z M 8 8 L 8 9 L 8 23 L 8 24 L 9 24 L 23 24 L 24 24 L 24 23 L 24 9 L 24 8 L 23 8 L 9 8 L 8 8 z M 10 10 L 22 10 L 22 22 L 10 22 L 10 10 z M 15.9375 12 C 15.2435 12.00975 14.56575 12.3805 14.21875 13.125 L 14.03125 13.5 L 13.625 13.59375 C 12.032 13.85375 11.42375 15.865 12.59375 17 L 12.90625 17.28125 L 12.84375 17.6875 C 12.59275 19.3175 14.2705 20.538 15.6875 19.75 L 16.0625 19.5625 L 16.40625 19.75 C 17.84425 20.498 19.51375 19.21575 19.21875 17.59375 L 19.125 17.1875 L 19.4375 16.90625 C 20.5775 15.73925 19.9115 13.715 18.3125 13.5 L 17.90625 13.46875 L 17.71875 13.09375 C 17.35175 12.35925 16.6315 11.99025 15.9375 12 z M 16 15 C 16.552 15.001 17.001 15.448 17 16 C 16.998 16.553 16.552 17.001 16 17 C 15.448 16.999 14.999 16.553 15 16 C 15.001 15.448 15.447 14.998 16 15 z" overflow="visible" font-family="Sans" fill="#000000"/></svg>
