<?xml version="1.0" encoding="utf-8"?>
<svg xmlns="http://www.w3.org/2000/svg" viewBox="0 0 32 32" fill="#000000"><path style="text-indent:0;text-align:start;line-height:normal;text-transform:none;block-progression:tb;-inkscape-font-specification:Bitstream Vera Sans" d="M 3.71875 2.28125 L 2.28125 3.71875 L 28.28125 29.71875 L 29.71875 28.28125 L 18.90625 17.46875 C 19.140754 17.157294 19.402433 16.806966 19.5625 16.59375 C 19.992513 16.841323 20.469807 17 21 17 C 21.274058 17 21.495256 16.851364 21.75 16.78125 C 22.298284 17.48017 23.047886 18 24 18 C 25.36878 18 26.365114 16.981532 26.71875 15.71875 C 27.981532 15.365114 29 14.36878 29 13 C 29 12.437187 28.803289 11.94891 28.53125 11.5 C 28.803289 11.05109 29 10.562813 29 10 C 29 9.0478858 28.48017 8.2982842 27.78125 7.75 C 27.851364 7.4952564 28 7.2740583 28 7 C 28 5.3550302 26.64497 4 25 4 C 24.725942 4 24.504744 4.1486356 24.25 4.21875 C 23.701716 3.51983 22.952114 3 22 3 C 21.437187 3 20.94891 3.1967113 20.5 3.46875 C 20.05109 3.1967113 19.562813 3 19 3 C 17.63122 3 16.634886 4.018468 16.28125 5.28125 C 15.018468 5.6348864 14 6.6312196 14 8 C 14 8.9521142 14.51983 9.7017158 15.21875 10.25 C 15.148636 10.504744 15 10.725942 15 11 C 15 11.530193 15.158677 12.007487 15.40625 12.4375 C 15.193181 12.597714 14.842645 12.859185 14.53125 13.09375 L 3.71875 2.28125 z M 19 5 C 19.301499 5 19.558345 5.1244174 19.75 5.34375 L 20.5 6.21875 L 21.25 5.34375 C 21.441655 5.1244174 21.698501 5 22 5 C 22.443065 5 22.800662 5.2950957 22.9375 5.6875 L 23.375 6.90625 L 24.4375 6.15625 C 24.597956 6.0474406 24.78741 6 25 6 C 25.56503 6 26 6.4349698 26 7 C 26 7.2125904 25.95256 7.4020438 25.84375 7.5625 L 25.09375 8.625 L 26.3125 9.0625 C 26.704904 9.1993384 27 9.5569351 27 10 C 27 10.301499 26.875583 10.558345 26.65625 10.75 L 25.78125 11.5 L 26.65625 12.25 C 26.875583 12.441655 27 12.698501 27 13 C 27 13.56503 26.56503 14 26 14 L 25 14 L 25 15 C 25 15.56503 24.56503 16 24 16 C 23.556935 16 23.199338 15.704904 23.0625 15.3125 L 22.625 14.09375 L 21.5625 14.84375 C 21.402044 14.952559 21.21259 15 21 15 C 20.43497 15 20 14.56503 20 14 C 20 14.02111 20.01603 13.98537 20.03125 13.875 L 20.125 13.1875 L 19.53125 12.875 C 19.367698 12.782779 19.215725 12.630039 19.125 12.46875 L 18.8125 11.875 L 18.125 11.96875 C 18.014625 11.983974 17.978889 12 18 12 C 17.43497 12 17 11.56503 17 11 C 17 10.78741 17.04744 10.597956 17.15625 10.4375 L 17.90625 9.375 L 16.6875 8.9375 C 16.295096 8.8006616 16 8.4430649 16 8 C 16 7.4349698 16.43497 7 17 7 L 18 7 L 18 6 C 18 5.4349698 18.43497 5 19 5 z M 16.96875 13.78125 C 17.264572 13.890579 17.577015 13.957122 17.90625 13.96875 C 17.94775 14.01283 17.98717 14.05225 18.03125 14.09375 C 18.042878 14.422985 18.109421 14.735428 18.21875 15.03125 C 17.981552 15.346949 17.720215 15.697494 17.46875 16.03125 L 15.96875 14.53125 C 16.302582 14.279785 16.653042 14.018448 16.96875 13.78125 z M 11.34375 15.53125 C 8.34175 17.81425 4.988 20.387 4.375 21 C 2.549 22.826 2.549 25.799 4.375 27.625 C 5.288 28.538 6.4875 29 7.6875 29 C 8.8865 28.999 10.086 28.538 11 27.625 C 11.613 27.013 14.18575 23.65825 16.46875 20.65625 L 15.03125 19.25 C 12.51025 22.565 10.09575 25.71775 9.59375 26.21875 C 8.54675 27.26475 6.82725 27.26575 5.78125 26.21875 C 4.73525 25.17275 4.73525 23.45225 5.78125 22.40625 C 6.28225 21.90525 9.434 19.48975 12.75 16.96875 L 11.34375 15.53125 z M 13.1875 17.40625 L 7.5 23.0625 L 8.9375 24.5 L 14.59375 18.8125 L 13.1875 17.40625 z" overflow="visible" font-family="Bitstream Vera Sans" fill="#000000"/></svg>
