<?xml version="1.0" encoding="utf-8"?>
<svg xmlns="http://www.w3.org/2000/svg" viewBox="0 0 32 32" fill="#000000"><path style="text-indent:0;text-align:start;line-height:normal;text-transform:none;block-progression:tb;-inkscape-font-specification:Sans" d="M 16 2 C 14.35503 2 13 3.3550302 13 5 L 13 10.1875 C 12.684242 10.073236 12.352983 10 12 10 C 10.35503 10 9 11.35503 9 13 L 9 16.65625 L 6.90625 19.34375 C 5.6284988 20.99617 5.7148054 23.368579 7.09375 24.9375 L 9.46875 27.625 C 10.797234 29.137769 12.705767 30 14.71875 30 L 20 30 C 23.854334 30 27 26.854334 27 23 L 27 14 C 27 12.35503 25.64497 11 24 11 C 23.466433 11 22.967459 11.157469 22.53125 11.40625 C 21.997679 10.562665 21.062474 10 20 10 C 19.647017 10 19.315758 10.073236 19 10.1875 L 19 5 C 19 3.3550302 17.64497 2 16 2 z M 16 4 C 16.56503 4 17 4.4349698 17 5 L 17 13 L 17 15 L 19 15 L 19 13 C 19 12.43497 19.43497 12 20 12 C 20.56503 12 21 12.43497 21 13 L 21 15 L 23 15 L 23 14 C 23 13.43497 23.43497 13 24 13 C 24.56503 13 25 13.43497 25 14 L 25 23 C 25 25.773666 22.773666 28 20 28 L 14.71875 28 C 13.279733 28 11.918266 27.393731 10.96875 26.3125 L 8.59375 23.59375 C 7.8386946 22.734671 7.7997512 21.49933 8.5 20.59375 L 9 19.9375 L 9 21 L 11 21 L 11 17.34375 L 11 17 L 11 13 C 11 12.43497 11.43497 12 12 12 C 12.56503 12 13 12.43497 13 13 L 13 15 L 15 15 L 15 13 L 15 5 C 15 4.4349698 15.43497 4 16 4 z" overflow="visible" font-family="Sans" fill="#000000"/></svg>
