<?xml version="1.0" encoding="utf-8"?>
<svg xmlns="http://www.w3.org/2000/svg" viewBox="0 0 32 32" fill="#000000"><path style="line-height:normal;text-indent:0;text-align:start;text-decoration-line:none;text-decoration-style:solid;text-decoration-color:#000;text-transform:none;block-progression:tb;isolation:auto;mix-blend-mode:normal" d="M 5 5 L 5 16 L 5 18 L 5 27 L 27 27 L 27 26 L 27 18 L 27 16 L 27 5 L 5 5 z M 7 7 L 25 7 L 25 9.1582031 L 7 9.1582031 L 7 7 z M 7 11.158203 L 25 11.158203 L 25 16 L 7 16 L 7 11.158203 z M 7 18 L 14.894531 18 L 14.894531 25 L 7 25 L 7 18 z M 16.894531 18 L 25 18 L 25 25 L 16.894531 25 L 16.894531 18 z M 8 19 L 8 21 L 14 21 L 14 19 L 8 19 z M 8 22 L 8 24 L 12 24 L 12 22 L 8 22 z" fill="#000000"/></svg>
