<?xml version="1.0" encoding="utf-8"?>
<svg xmlns="http://www.w3.org/2000/svg" viewBox="0 0 32 32" fill="#000000"><path style="text-indent:0;text-align:start;line-height:normal;text-transform:none;block-progression:tb;-inkscape-font-specification:Sans" d="M 12 3 C 10.269646 3 8.7411315 3.501438 7.65625 4.5625 C 6.5713685 5.623562 6 7.1869865 6 9 C 6 11.892832 7.6475554 15.005618 9.625 17.5 C 10.613722 18.747191 11.680417 19.821095 12.75 20.625 C 13.438447 21.142441 14.113616 21.546923 14.8125 21.78125 C 14.754925 21.909396 14.707116 22.040717 14.625 22.1875 C 14.394048 22.600328 14 23.171791 14 24 C 14 25.155303 14.808171 25.766727 15.3125 26.25 C 15.564664 26.491636 15.788984 26.691724 15.90625 26.84375 C 16.023516 26.995776 16 27.055513 16 27 C 16 27.682692 15.03125 28.3125 15.03125 28.3125 L 15.96875 30.09375 C 15.96875 30.09375 18 29.113308 18 27 C 18 26.419987 17.726484 25.95913 17.46875 25.625 C 17.211016 25.29087 16.935336 25.049989 16.6875 24.8125 C 16.191829 24.337523 16 23.962697 16 24 C 16 23.861209 16.105952 23.668422 16.375 23.1875 C 16.555179 22.865432 16.749881 22.419655 16.875 21.875 C 17.663998 21.666059 18.437682 21.206266 19.21875 20.625 C 20.288919 19.828586 21.385462 18.77337 22.375 17.53125 C 24.354075 15.04701 26 11.93183 26 9 C 26 7.1869865 25.428631 5.623562 24.34375 4.5625 C 23.258869 3.501438 21.730354 3 20 3 C 18.002623 3 16.867396 3.9470284 16.03125 4.6875 C 15.291823 3.9690635 14.246439 3 12 3 z M 12 5 C 14.138772 5 14.187541 5.8059265 15.375 6.78125 L 16 7.28125 L 16.625 6.78125 C 17.712297 5.8881951 18.295366 5 20 5 C 21.346646 5 22.322881 5.368312 22.96875 6 C 23.614619 6.631688 24 7.5840135 24 9 C 24 11.13017 22.605175 14.03099 20.8125 16.28125 C 19.916163 17.40638 18.921674 18.368601 18.03125 19.03125 C 17.140826 19.693899 16.331294 20 16 20 C 15.674027 20 14.859761 19.700939 13.96875 19.03125 C 13.077739 18.361561 12.084653 17.381684 11.1875 16.25 C 9.3931946 13.986632 8 11.076168 8 9 C 8 7.5840135 8.3853815 6.631688 9.03125 6 C 9.6771185 5.368312 10.653354 5 12 5 z" overflow="visible" font-family="Sans" fill="#000000"/></svg>
