<?xml version="1.0" encoding="utf-8"?>
<svg xmlns="http://www.w3.org/2000/svg" viewBox="0 0 32 32" fill="#000000"><path style="text-indent:0;text-align:start;line-height:normal;text-transform:none;block-progression:tb;-inkscape-font-specification:Bitstream Vera Sans" d="M 3.71875 2.28125 L 2.28125 3.71875 L 28.28125 29.71875 L 29.71875 28.28125 L 24.625 23.1875 C 24.734055 22.780668 24.836237 22.380579 24.90625 22.03125 C 27.91825 21.17325 30 19.79975 30 17.96875 C 30 16.25375 28.21 14.8785 24.875 13.9375 C 23.779 10.0785 22.53175 5.75 19.46875 5.75 C 19.00675 5.75 18.522 5.865 18 6 C 17.397 6.155 16.71 6.34375 16 6.34375 C 15.295 6.34375 14.62725 6.153 14.03125 6 C 13.50625 5.864 13.00625 5.75 12.53125 5.75 C 11.176729 5.75 10.151587 6.6054756 9.34375 7.90625 L 3.71875 2.28125 z M 12.53125 7.75 C 12.75225 7.75 13.13025 7.8345 13.53125 7.9375 C 14.20625 8.1125 15.042 8.34375 16 8.34375 C 16.962 8.34375 17.818 8.1125 18.5 7.9375 C 18.896 7.8355 19.25975 7.75 19.46875 7.75 C 21.04875 7.75 22.181 11.70975 23 14.59375 L 23.25 15.5 C 23.117879 15.821879 22.126082 16.278237 17.8125 16.375 L 10.8125 9.375 L 10.8125 9.34375 C 11.319609 8.385791 11.895625 7.75 12.53125 7.75 z M 7.6875 11.875 C 7.4755 12.56 7.27775 13.2585 7.09375 13.9375 C 3.77375 14.8785 2 16.25775 2 17.96875 C 2 19.78675 4.05425 21.141 7.03125 22 C 7.32525 23.881 8.113 27.03125 10 27.03125 C 13.119 27.03125 14.179 25.09375 15.875 25.09375 C 17.571 25.09375 19.01325 27.03125 21.78125 27.03125 C 22.08225 27.03125 22.34075 26.92725 22.59375 26.78125 L 20.59375 24.78125 C 20.32375 24.85225 20.02825 24.90275 19.65625 24.84375 C 18.58325 24.67175 17.8125 24.1335 17.8125 23.6875 C 17.8125 23.4995 18.2815 23.33225 18.9375 23.15625 L 16.90625 21.09375 C 16.60925 21.09975 16.309 21.125 16 21.125 C 8.235 21.125 4 19.03375 4 17.96875 C 4 17.56075 4.79475 16.78875 6.84375 16.09375 C 7.44275 17.89175 10.48825 18.3 14.15625 18.375 L 12.0625 16.25 C 9.6195 16.066 8.913 15.72775 8.75 15.46875 L 8.8125 15.25 C 8.9555 14.715 9.10225 14.127 9.28125 13.5 L 7.6875 11.875 z M 25.15625 16.09375 C 27.20525 16.78775 28 17.56075 28 17.96875 C 28 18.708685 25.919559 19.946444 22.0625 20.625 L 19.75 18.3125 C 22.352346 18.151201 24.644406 17.638955 25.15625 16.09375 z M 9.28125 22.53125 C 11.00225 22.77125 13.5625 23.2415 13.5625 23.6875 C 13.5625 24.1335 12.79175 24.67275 11.71875 24.84375 C 9.57875 25.18575 9.28125 22.97725 9.28125 22.53125 z" overflow="visible" font-family="Bitstream Vera Sans" fill="#000000"/></svg>
