<?xml version="1.0" encoding="utf-8"?>
<svg xmlns="http://www.w3.org/2000/svg" viewBox="0 0 32 32" fill="#000000"><path style="text-indent:0;text-align:start;line-height:normal;text-transform:none;block-progression:tb;-inkscape-font-specification:Sans" d="M 5 5 L 5 6 L 5 26 L 5 27 L 6 27 L 26 27 L 27 27 L 27 26 L 27 6 L 27 5 L 26 5 L 6 5 L 5 5 z M 7 7 L 25 7 L 25 25 L 7 25 L 7 7 z M 13 11 L 13 13 L 16.5625 13 L 13.125 19 L 13 19.25 L 13 19.5 L 13 20 L 13 21 L 14 21 L 19 21 L 19 19 L 15.4375 19 L 18.875 13 L 19 12.75 L 19 12.5 L 19 12 L 19 11 L 18 11 L 13 11 z" overflow="visible" font-family="Sans" fill="#000000"/></svg>
