<?xml version="1.0" encoding="utf-8"?>
<svg xmlns="http://www.w3.org/2000/svg" viewBox="0 0 32 32" fill="#000000"><path style="line-height:normal;text-indent:0;text-align:start;text-decoration-line:none;text-decoration-style:solid;text-decoration-color:#000;text-transform:none;block-progression:tb;isolation:auto;mix-blend-mode:normal" d="M 13 2 L 11.400391 3.1992188 C 11.339816 3.2444091 10.010204 4.2755564 9.2167969 6.2597656 C 7.7529692 6.9456808 3 9.6504762 3 16 C 3 23.456818 9.5371094 26.886719 9.5371094 26.886719 L 11 27.648438 L 11 25.539062 L 10.767578 25.261719 C 10.767578 25.261719 9.7481372 24.018204 8.9492188 22.289062 L 18.171875 25.275391 C 17.450293 25.949138 16.612081 26.535548 15.615234 26.951172 L 15 27.207031 L 15 29 L 16 29 C 28.717 29 28.999 17.131 29 17 C 29 9.468 23.532 4 16 4 C 14.878 4 13.81 4.2535312 13 4.5195312 L 13 2 z M 16 6 C 22.374 6 27 10.626281 27 16.988281 C 26.996 17.343281 26.820625 24.604203 19.765625 26.533203 C 23.180625 23.157203 24 18.116 24 17 L 24 14.691406 L 22.316406 16.271484 C 22.227406 16.355484 22.087062 16.464844 21.914062 16.589844 C 21.969062 16.125844 22 15.598 22 15 C 22 12.2 20.300234 11.636031 20.115234 11.582031 L 15.074219 10.101562 C 14.675219 10.003562 14.297922 9.9749531 13.919922 10.001953 C 13.436922 10.040953 12.954391 10.186031 12.400391 10.457031 C 11.764391 10.768031 11.185219 11.140172 10.574219 11.576172 L 10.451172 11.367188 C 9.2901719 9.3891875 10.588375 7.8417344 10.734375 7.6777344 L 10.880859 7.5195312 L 10.947266 7.3164062 C 10.964266 7.2674062 10.982 7.2189219 11 7.1699219 L 11 7.6484375 L 12.462891 6.8867188 C 12.478891 6.8777187 14.212 6 16 6 z M 11.685547 9 C 11.042547 9 11 9.65625 11 9.65625 C 11 9.65625 11.042031 10 11.332031 10 C 11.622031 10 11.954094 9.6784531 11.996094 9.3144531 C 12.022094 9.0934531 11.864547 9 11.685547 9 z M 8.0097656 9.3222656 C 7.9393268 10.149474 8.0567632 11.066857 8.53125 12.021484 C 8.373618 12.671278 8.1725767 13.290598 8.1113281 13.482422 C 6.8395197 14.771282 6.206819 16.277767 6.0527344 17.742188 C 5.9383302 18.829484 6.1073404 19.858164 6.3574219 20.839844 C 5.6072841 19.521921 5 17.995613 5 16 C 5 12.550641 6.5713691 10.502216 8.0097656 9.3222656 z M 14.080078 11.996094 C 14.243078 11.981094 14.408687 11.999203 14.554688 12.033203 L 19.496094 13.482422 C 19.639614 13.550058 19.878115 13.871528 19.960938 14.542969 L 12.404297 17.505859 L 10.337891 14.242188 L 10.498047 14.123047 C 11.599047 13.290047 12.39625 12.687906 13.28125 12.253906 C 13.60625 12.094906 13.852078 12.015094 14.080078 11.996094 z M 8.8808594 15.679688 L 11.595703 19.970703 L 15.599609 18.400391 L 18.658203 23.330078 L 8.1640625 19.931641 C 8.0325367 19.269941 7.972713 18.60032 8.0410156 17.951172 C 8.1235662 17.166611 8.3794897 16.411175 8.8808594 15.679688 z M 19.871094 16.724609 C 19.681972 17.86839 19.348775 18.241069 19.34375 18.246094 L 19.736328 18.697266 L 20.507812 19.861328 C 20.612813 19.798328 21.071141 19.527594 21.619141 19.183594 C 21.369683 20.115305 20.978653 21.227368 20.392578 22.333984 L 17.492188 17.658203 L 19.871094 16.724609 z" font-weight="400" font-family="sans-serif" white-space="normal" overflow="visible" fill="#000000"/></svg>
