<?xml version="1.0" encoding="utf-8"?>
<svg xmlns="http://www.w3.org/2000/svg" viewBox="0 0 32 32" fill="#000000"><path d="M 16 5.96875 L 15.75 6.03125 L 7.875 8 L 5 8 L 4 8 L 4 9 L 4 25 L 4 26 L 5 26 L 27 26 L 28 26 L 28 25 L 28 9 L 28 8 L 27 8 L 24.125 8 L 16.25 6.03125 L 16 5.96875 z M 16 8.03125 L 23.75 9.96875 L 23.875 10 L 24 10 L 26 10 L 26 24 L 6 24 L 6 10 L 8 10 L 8.125 10 L 8.25 9.96875 L 16 8.03125 z M 16 12.40625 C 16 12.40625 13 16.1555 13 17.8125 C 13 19.4695 14.343 20.8125 16 20.8125 C 17.657 20.8125 19 19.4695 19 17.8125 C 19 16.1555 16 12.40625 16 12.40625 z" fill="#000000"/></svg>
