<?xml version="1.0" encoding="utf-8"?>
<svg xmlns="http://www.w3.org/2000/svg" viewBox="0 0 32 32" fill="#000000"><path d="M 15 6 C 11.698375 6 9 8.6983746 9 12 C 9 12.167048 9.04812 12.30834 9.0625 12.46875 C 7.2772461 13.232762 6 14.943796 6 17 C 6 17.505871 6.2330073 17.919678 6.375 18.375 C 4.4337984 19.057734 3 20.829993 3 23 C 3 24.487329 3.6498247 25.834698 4.6875 26.75 L 6.03125 25.25 C 5.4069253 24.699302 5 23.902671 5 23 C 5 21.44186 6.1732876 20.191871 7.6875 20.03125 L 9.25 19.875 L 8.4375 18.53125 C 8.1606899 18.068615 8 17.555333 8 17 C 8 15.558063 9.0027887 14.360825 10.34375 14.0625 L 11.3125 13.875 L 11.09375 12.875 C 11.026599 12.577018 11 12.291049 11 12 C 11 9.7796254 12.779625 8 15 8 C 16.947736 8 18.539509 9.3914383 18.90625 11.21875 L 19.09375 12.03125 L 19.9375 12 C 20.129311 11.9944 20.142471 12 20 12 C 21.668484 12 23 13.331516 23 15 L 23 16 L 24 16 C 25.668484 16 27 17.331516 27 19 C 27 19.708448 26.738213 20.348037 26.3125 20.875 L 25.8125 21.5 L 26.3125 22.125 C 26.738213 22.651963 27 23.291552 27 24 C 27 24.550674 26.848713 25.059065 26.59375 25.5 L 28.34375 26.5 C 28.768787 25.764935 29 24.907326 29 24 C 29 23.064225 28.665052 22.240705 28.21875 21.5 C 28.665052 20.759295 29 19.935775 29 19 C 29 16.539961 27.161153 14.594114 24.8125 14.1875 C 24.44071 12.039992 22.772126 10.398739 20.59375 10.125 C 19.792852 7.7497703 17.633733 6 15 6 z M 14 12 L 14 21 L 11 18 L 12 23 L 8 23 L 12 26 L 20.9375 26 L 24 24 L 21 24 L 23 20 L 19 21 L 20 15 L 17 19 L 14 12 z" fill="#000000"/></svg>
