<?xml version="1.0" encoding="utf-8"?>
<svg xmlns="http://www.w3.org/2000/svg" viewBox="0 0 32 32" fill="#000000"><path style="text-indent:0;text-align:start;line-height:normal;text-transform:none;block-progression:tb;-inkscape-font-specification:Bitstream Vera Sans" d="M 18.09375 3.0625 L 17.5625 3.34375 L 1.5625 11.34375 L 1.03125 11.625 L 1.03125 12.25 L 1 17 L 1 17.625 L 1 18 L 1 19.28125 L 1 25 L 1 26 L 2 26 L 4.15625 26 C 4.6033156 27.719842 6.1468019 29 8 29 C 9.8531978 29 11.396684 27.719842 11.84375 26 L 20.15625 26 C 20.603316 27.719842 22.146802 29 24 29 C 25.853198 29 27.396684 27.719842 27.84375 26 L 30 26 L 31 26 L 31 25 L 31 17 L 31 16.59375 L 30.71875 16.28125 L 24.71875 10.28125 L 24.40625 10 L 24 10 L 19.21875 10 L 22.59375 8.28125 L 24 7.53125 L 22.71875 6.5625 L 18.59375 3.4375 L 18.09375 3.0625 z M 18.1875 5.65625 L 20.21875 7.1875 L 17.09375 8.78125 L 18.1875 5.65625 z M 17.03125 5.875 L 15.84375 9.4375 L 15.75 9.46875 L 12.09375 8.34375 L 17.03125 5.875 z M 10.78125 9 L 14.4375 10.125 L 9.15625 12.84375 L 10.28125 9.25 L 10.78125 9 z M 9.03125 9.875 L 7.90625 13.5 L 7.6875 13.59375 L 4 12.375 L 9.03125 9.875 z M 17 12 L 23.5625 12 L 29 17.4375 L 29 24 L 27.84375 24 C 27.396684 22.280158 25.853198 21 24 21 C 22.146802 21 20.603316 22.280158 20.15625 24 L 11.84375 24 C 11.396684 22.280158 9.8531978 21 8 21 C 6.1468019 21 4.6033156 22.280158 4.15625 24 L 3 24 L 3 19 L 16 19 L 17 19 L 17 18 L 17 12 z M 15 12.15625 L 15 17 L 5.46875 17 L 15 12.15625 z M 3.03125 13.09375 L 6.46875 14.21875 L 3 16 L 3.03125 13.09375 z M 8 23 C 9.116414 23 10 23.883586 10 25 C 10 26.116414 9.116414 27 8 27 C 6.883586 27 6 26.116414 6 25 C 6 23.883586 6.883586 23 8 23 z M 24 23 C 25.116414 23 26 23.883586 26 25 C 26 26.116414 25.116414 27 24 27 C 22.883586 27 22 26.116414 22 25 C 22 23.883586 22.883586 23 24 23 z" fill="#000000"/></svg>
