<?xml version="1.0" encoding="utf-8"?>
<svg xmlns="http://www.w3.org/2000/svg" viewBox="0 0 32 32" fill="#000000"><path style="text-indent:0;text-align:start;line-height:normal;text-transform:none;block-progression:tb;-inkscape-font-specification:Sans" d="M 0 9 L 0 10 L 0 22 L 0 23 L 1 23 L 3 23 L 3 21 L 2 21 L 2 11 L 3 11 L 3 9 L 1 9 L 0 9 z M 29 9 L 29 11 L 30 11 L 30 21 L 29 21 L 29 23 L 31 23 L 32 23 L 32 22 L 32 10 L 32 9 L 31 9 L 29 9 z M 4.71875 12.28125 L 3.28125 13.71875 L 5.5625 16 L 3.28125 18.28125 L 4.71875 19.71875 L 7 17.4375 L 9.28125 19.71875 L 10.71875 18.28125 L 8.4375 16 L 10.71875 13.71875 L 9.28125 12.28125 L 7 14.5625 L 4.71875 12.28125 z M 13.71875 12.28125 L 12.28125 13.71875 L 14.5625 16 L 12.28125 18.28125 L 13.71875 19.71875 L 16 17.4375 L 18.28125 19.71875 L 19.71875 18.28125 L 17.4375 16 L 19.71875 13.71875 L 18.28125 12.28125 L 16 14.5625 L 13.71875 12.28125 z M 22.71875 12.28125 L 21.28125 13.71875 L 23.5625 16 L 21.28125 18.28125 L 22.71875 19.71875 L 25 17.4375 L 27.28125 19.71875 L 28.71875 18.28125 L 26.4375 16 L 28.71875 13.71875 L 27.28125 12.28125 L 25 14.5625 L 22.71875 12.28125 z" overflow="visible" font-family="Sans" fill="#000000"/></svg>
