<?xml version="1.0" encoding="utf-8"?>
<svg xmlns="http://www.w3.org/2000/svg" viewBox="0 0 32 32" fill="#000000"><path style="line-height:normal;text-indent:0;text-align:start;text-decoration-line:none;text-decoration-style:solid;text-decoration-color:#000;text-transform:none;block-progression:tb;isolation:auto;mix-blend-mode:normal" d="M 16 3 C 15.166667 3 14.450104 3.3858338 13.917969 3.9179688 C 13.5056 4.3303374 13.242352 4.8780594 13.117188 5.4804688 C 12.06062 6.2048818 11.296637 7.289831 10.816406 8.5371094 C 10.26379 9.9723911 10 11.566835 10 13 L 10 13.423828 L 11 14.392578 L 11 22 L 13 22 L 13 13.544922 L 12.066406 12.640625 C 12.107146 11.540368 12.279168 10.306255 12.683594 9.2558594 C 13.130978 8.0938911 13.791799 7.2222646 14.447266 6.8945312 L 15 6.6171875 L 15 6 C 15 5.8333333 15.114166 5.5498964 15.332031 5.3320312 C 15.549896 5.1141661 15.833333 5 16 5 C 16.166667 5 16.450104 5.1141661 16.667969 5.3320312 C 16.885834 5.5498964 17 5.8333333 17 6 L 17 6.6171875 L 17.552734 6.8945312 C 18.208201 7.2222646 18.869022 8.0938911 19.316406 9.2558594 C 19.722947 10.311748 19.898555 11.553765 19.9375 12.658203 L 19 13.625 L 19 23 L 9 23 L 9 25 L 11 25 C 11 26.116666 10.116666 27 9 27 L 5 27 L 5 29 L 9 29 C 10.843594 29 12.340521 27.706363 12.796875 26 L 13 26 L 13 25 L 19 25 L 19 26 L 19.203125 26 C 19.659479 27.706363 21.156406 29 23 29 L 27 29 L 27 27 L 23 27 C 21.883334 27 21 26.116666 21 25 L 23 25 L 23 23 L 21 23 L 21 14.435547 L 22 13.40625 L 22 13 C 22 11.566835 21.73621 9.9723911 21.183594 8.5371094 C 20.703363 7.289831 19.939379 6.2048817 18.882812 5.4804688 C 18.757647 4.8780594 18.4944 4.3303373 18.082031 3.9179688 C 17.549896 3.3858339 16.833333 3 16 3 z" font-weight="400" font-family="sans-serif" white-space="normal" overflow="visible" fill="#000000"/></svg>
