<?xml version="1.0" encoding="utf-8"?>
<svg xmlns="http://www.w3.org/2000/svg" viewBox="0 0 32 32" fill="#000000"><path d="M 16 2 C 13.126418 2 10.878571 3.2975953 9.3125 5.15625 C 7.7464285 7.0149047 6.7835813 9.4138123 6.15625 11.75 C 4.9015874 16.422375 5 21.03125 5 21.03125 L 5 21.375 L 5.21875 21.625 C 5.21875 21.625 6.8867634 23.669551 9 25.71875 C 10.056618 26.74335 11.228326 27.760509 12.40625 28.5625 C 13.584174 29.364491 14.744048 30 16 30 C 17.255952 30 18.415826 29.364491 19.59375 28.5625 C 20.771674 27.760509 21.943382 26.74335 23 25.71875 C 25.113237 23.669551 26.78125 21.625 26.78125 21.625 L 27 21.375 L 27 21.03125 C 27 21.03125 27.09841 16.422375 25.84375 11.75 C 25.216419 9.4138123 24.253571 7.0149047 22.6875 5.15625 C 21.121429 3.2975953 18.873582 2 16 2 z M 16 4 C 18.292918 4 19.878603 4.9524047 21.15625 6.46875 C 22.433897 7.9850953 23.325206 10.086188 23.90625 12.25 C 24.995027 16.304616 25.003531 20.122154 25 20.625 C 24.817144 20.847892 23.510897 22.452501 21.625 24.28125 C 21.100897 24.789471 20.557857 25.310332 20 25.78125 L 20 24.1875 L 21.96875 17.28125 L 22 17.125 L 22 17 L 22 13 C 22 10.196063 21.010024 8.3295186 19.71875 7.28125 C 18.427476 6.2329814 16.966905 6 16 6 C 15.033095 6 13.572524 6.2329814 12.28125 7.28125 C 10.989976 8.3295186 10 10.196063 10 13 L 10 17 L 10 17.125 L 10.03125 17.28125 L 12 24.1875 L 12 25.78125 C 11.442143 25.310332 10.899103 24.789471 10.375 24.28125 C 8.4891026 22.452501 7.1828564 20.847892 7 20.625 C 6.996469 20.122154 7.0049729 16.304616 8.09375 12.25 C 8.6747937 10.086188 9.5661027 7.9850953 10.84375 6.46875 C 12.121397 4.9524047 13.707082 4 16 4 z M 16 8 C 16.616095 8 17.655774 8.1837686 18.46875 8.84375 C 19.281726 9.5037314 20 10.636937 20 13 L 20 16.8125 L 18.03125 23.71875 L 18 23.875 L 18 24 L 18 27.21875 C 17.645499 27.430939 17.302941 27.594248 17 27.71875 L 17 20 L 15 20 L 15 27.71875 C 14.697059 27.594248 14.354501 27.430939 14 27.21875 L 14 24 L 14 23.875 L 13.96875 23.71875 L 12 16.8125 L 12 13 C 12 10.636937 12.718274 9.5037314 13.53125 8.84375 C 14.344226 8.1837686 15.383905 8 16 8 z M 12 13 C 12.417 13.833 12.96025 14.497 13.53125 15.125 C 14.10925 15.742 14.74025 16.3115 15.40625 16.8125 L 16 17.25 L 16.59375 16.8125 C 17.26175 16.3135 17.88975 15.742 18.46875 15.125 C 19.03975 14.498 19.585 13.835 20 13 C 19.082 13.165 18.29325 13.502 17.53125 13.875 C 16.995358 14.14614 16.49003 14.448842 16 14.78125 C 15.509255 14.44979 15.004642 14.14685 14.46875 13.875 C 13.70675 13.503 12.917 13.167 12 13 z" fill="#000000"/></svg>
