<?xml version="1.0" encoding="utf-8"?>
<svg xmlns="http://www.w3.org/2000/svg" viewBox="0 0 32 32" fill="#000000"><path style="line-height:normal;text-indent:0;text-align:start;text-decoration-line:none;text-decoration-style:solid;text-decoration-color:#000;text-transform:none;block-progression:tb;isolation:auto;mix-blend-mode:normal" d="M 8 4 C 7.4777778 4 6.9453899 4.1913289 6.5683594 4.5683594 C 6.1913289 4.9453899 6 5.4777778 6 6 L 6 26 C 6 26.522222 6.1913289 27.05461 6.5683594 27.431641 C 6.9453899 27.808671 7.4777778 28 8 28 L 20 28 C 20.522222 28 21.05461 27.808671 21.431641 27.431641 C 21.808671 27.05461 22 26.522222 22 26 L 22 19 L 28 19 L 28 18 L 28 7 L 22 7 L 22 6 C 22 5.4777778 21.808671 4.9453899 21.431641 4.5683594 C 21.05461 4.1913289 20.522222 4 20 4 L 8 4 z M 8 6 L 20 6 L 20 7 L 14 7 L 14 19 L 16 19 L 16 21.869141 L 20 19.201172 L 20 26 L 8 26 L 8 6 z M 16 9 L 26 9 L 26 17 L 19.697266 17 L 18 18.130859 L 18 17 L 16 17 L 16 9 z M 21 10 A 0.60000002 0.60000002 0 0 0 20.400391 10.599609 A 0.60000002 0.60000002 0 0 0 20.410156 10.707031 C 19.707099 10.951999 19.199219 11.61391 19.199219 12.400391 L 19.199219 14.199219 C 19.199219 14.530219 18.930609 14.800781 18.599609 14.800781 L 18.599609 15.400391 L 20.400391 15.400391 A 0.60000002 0.60000002 0 0 0 21 16 A 0.60000002 0.60000002 0 0 0 21.599609 15.400391 L 23.400391 15.400391 L 23.400391 14.800781 C 23.069391 14.800781 22.800781 14.530219 22.800781 14.199219 L 22.800781 12.400391 C 22.800781 11.61391 22.292901 10.951999 21.589844 10.707031 A 0.60000002 0.60000002 0 0 0 21.599609 10.599609 A 0.60000002 0.60000002 0 0 0 21 10 z M 12 23 L 12 25 L 16 25 L 16 23 L 12 23 z" font-weight="400" font-family="sans-serif" white-space="normal" overflow="visible" fill="#000000"/></svg>
