<?xml version="1.0" encoding="utf-8"?>
<svg xmlns="http://www.w3.org/2000/svg" viewBox="0 0 32 32" fill="#000000"><path style="text-indent:0;text-align:start;line-height:normal;text-transform:none;block-progression:tb;-inkscape-font-specification:Bitstream Vera Sans" d="M 22 4 L 22 7.28125 L 19.15625 5.625 L 18.15625 7.375 L 20.96875 9 L 18.15625 10.625 L 19.15625 12.375 L 22 10.71875 L 22 14 L 24 14 L 24 10.71875 L 26.84375 12.375 L 27.84375 10.625 L 25.03125 9 L 27.84375 7.375 L 26.84375 5.625 L 24 7.28125 L 24 4 L 22 4 z M 10 7 L 10 9.25 L 8.03125 8.125 L 7.03125 9.875 L 8.96875 11 L 7.03125 12.125 L 8.03125 13.875 L 10 12.75 L 10 15 L 12 15 L 12 12.75 L 13.96875 13.875 L 14.96875 12.125 L 13.03125 11 L 14.96875 9.875 L 13.96875 8.125 L 12 9.25 L 12 7 L 10 7 z M 6.21875 17.78125 L 4.78125 19.21875 L 6.5625 21 L 4.78125 22.78125 L 6.21875 24.21875 L 8 22.4375 L 9.78125 24.21875 L 11.21875 22.78125 L 9.4375 21 L 11.21875 19.21875 L 9.78125 17.78125 L 8 19.5625 L 6.21875 17.78125 z M 23 19.875 L 23 21 L 21.875 21 L 21.875 23 L 23 23 L 23 24.125 L 25 24.125 L 25 23 L 26.125 23 L 26.125 21 L 25 21 L 25 19.875 L 23 19.875 z M 14.71875 22.28125 L 13.28125 23.71875 L 14.5625 25 L 13.28125 26.28125 L 14.71875 27.71875 L 16 26.4375 L 17.28125 27.71875 L 18.71875 26.28125 L 17.4375 25 L 18.71875 23.71875 L 17.28125 22.28125 L 16 23.5625 L 14.71875 22.28125 z" fill="#000000"/></svg>
