<?xml version="1.0" encoding="utf-8"?>
<svg xmlns="http://www.w3.org/2000/svg" viewBox="0 0 32 32" fill="#000000"><path style="text-indent:0;text-align:start;line-height:normal;text-transform:none;block-progression:tb;-inkscape-font-specification:Sans" d="M 22.34375 3 L 22.09375 3.59375 L 19.96875 8.25 C 19.041826 8.0972431 18.056762 8 17 8 C 15.911135 8 14.886482 8.087283 13.9375 8.25 C 12.933975 6.8884054 11.311769 6 9.5 6 C 6.4744232 6 4 8.4744232 4 11.5 C 4 13.696504 5.3095837 15.589904 7.1875 16.46875 C 7.0725857 17.544395 7 18.731016 7 20 C 7 25.025967 11.548614 29 17 29 C 22.451386 29 27 25.025967 27 20 C 27 15.431102 25.96875 11.71875 25.96875 11.71875 L 25.875 11.75 C 25.473059 10.445934 24.019796 9.3806055 21.9375 8.71875 L 23.625 5 L 28 5 L 28 3 L 23 3 L 22.34375 3 z M 9.5 8 C 10.350685 8 11.114622 8.314708 11.71875 8.8125 C 12.25575 9.2565 12.64575 9.84425 12.84375 10.53125 C 12.931031 10.838655 13 11.163198 13 11.5 L 15 11.5 C 15 11.032524 14.923549 10.590317 14.8125 10.15625 C 15.482613 10.068923 16.218521 10 17 10 C 17.765435 10 18.465572 10.072419 19.125 10.15625 L 17.09375 14.59375 L 17.90625 14.96875 C 17.607608 14.984157 17.316033 15 17 15 C 12.727 15 10 13.52 10 12.5 C 10 11.989 10.68425 11.373 11.90625 10.875 C 11.72125 10.176 11.259 9.59925 10.625 9.28125 C 9.3218 9.92605 8.42852 10.773424 8.125 11.75 L 8.03125 11.71875 C 8.03125 11.71875 7.7360999 12.741615 7.46875 14.34375 C 6.5861133 13.707588 6 12.67664 6 11.5 C 6 9.5555768 7.5555768 8 9.5 8 z M 21.125 10.53125 C 22.948197 11.05482 24 11.866063 24 12.5 C 24 13.33444 22.159751 14.455749 19.15625 14.84375 L 21.125 10.53125 z M 9.4375 15 C 11.010969 16.224867 13.744079 17 17 17 C 18.451454 17 19.778281 16.84264 20.96875 16.5625 C 20.786377 19.891387 20.0625 21.625 20.0625 21.625 L 21.9375 22.375 C 21.9375 22.375 22.842578 19.987966 22.96875 15.90625 C 23.58341 15.639413 24.119292 15.345015 24.5625 15 C 24.778037 16.34918 25 18.081702 25 20 C 25 23.810033 21.490614 27 17 27 C 12.509386 27 9 23.810033 9 20 C 9 18.081702 9.2219632 16.34918 9.4375 15 z" overflow="visible" font-family="Sans" fill="#000000"/></svg>
