<?xml version="1.0" encoding="utf-8"?>
<svg xmlns="http://www.w3.org/2000/svg" viewBox="0 0 32 32" fill="#000000"><path d="M 21 3 C 18.802706 3 17 4.8027056 17 7 C 17 8.1159522 17.467383 9.1275388 18.212891 9.8554688 C 16.880285 10.756135 16 12.280002 16 14 L 18 14 C 18 12.331516 19.331516 11 21 11 C 22.668484 11 24 12.331516 24 14 L 26 14 C 26 13.09994 25.739242 12.264872 25.318359 11.533203 C 25.798009 11.204636 26.369198 11 27 11 C 28.668484 11 30 12.331516 30 14 L 32 14 C 32 12.280002 31.119715 10.756135 29.787109 9.8554688 C 30.532617 9.1275388 31 8.1159522 31 7 C 31 4.8027056 29.197294 3 27 3 C 25.802871 3 24.735161 3.5462008 24 4.3886719 C 23.264839 3.5462008 22.197129 3 21 3 z M 21 5 C 22.116414 5 23 5.8835859 23 7 C 23 8.1164141 22.116414 9 21 9 C 19.883586 9 19 8.1164141 19 7 C 19 5.8835859 19.883586 5 21 5 z M 27 5 C 28.116414 5 29 5.8835859 29 7 C 29 8.1164141 28.116414 9 27 9 C 25.883586 9 25 8.1164141 25 7 C 25 5.8835859 25.883586 5 27 5 z M 8 7 C 5.243 7 3 9.243 3 12 L 3 25 L 15 25 L 15 29 L 17 29 L 17 25 L 27 25 L 27 16 L 26 16 L 25 16 L 25 23 L 13 23 L 13 12 C 13 10.872064 12.607252 9.8390569 11.970703 9 L 15.263672 9 C 15.282672 8.973 15.305219 8.9469219 15.324219 8.9199219 C 15.117219 8.3169219 15 7.673 15 7 L 8 7 z M 8 9 C 9.6684839 9 11 10.331516 11 12 L 11 23 L 5 23 L 5 12 C 5 10.346 6.346 9 8 9 z M 6 13 L 6 15 L 10 15 L 10 13 L 6 13 z" fill="#000000"/></svg>
