<?xml version="1.0" encoding="utf-8"?>
<svg xmlns="http://www.w3.org/2000/svg" viewBox="0 0 32 32" fill="#000000"><path style="text-indent:0;text-align:start;line-height:normal;text-transform:none;block-progression:tb;-inkscape-font-specification:Bitstream Vera Sans" d="M 16.96875 3 C 12.818037 3 9.6014253 4.9519563 7.78125 7.5625 C 5.970852 10.159021 6.1349807 12.566292 6.6875 14.03125 C 7.0059292 14.874818 7.2778424 15.50244 7.9375 15.9375 C 8.5971576 16.37256 9.4049972 16.261117 10.03125 16.03125 C 10.419926 15.88781 10.722684 15.704001 11.03125 15.53125 L 11.5 15.3125 C 11.769831 15.177585 12.30305 14.829296 12.53125 14.1875 C 12.747094 13.580453 12.60284 12.854727 12.28125 12.03125 C 12.281226 12.03295 12.281821 12.00427 12.28125 12 L 12.28125 11.96875 C 12.27165 11.94498 12.29127 11.93022 12.28125 11.90625 C 12.27925 11.89491 12.3032 11.90495 12.375 11.6875 C 12.46476 11.415656 12.650038 10.973589 13.15625 10.4375 C 14.187193 9.3460227 14.603512 9 16.96875 9 C 18.080227 9 18.96875 9.8885232 18.96875 11 L 18.96875 20.96875 C 18.96875 22.031404 18.031404 22.96875 16.96875 22.96875 C 16.815755 22.96875 16.670141 22.947522 16.53125 22.9375 C 17.061255 21.931296 17.44918 20.932128 17.6875 20.03125 C 17.942493 19.067348 18.064807 18.200937 18.125 17.5625 C 18.1551 17.243282 18.1507 16.981743 18.15625 16.78125 C 18.16175 16.580757 18.17226 16.521859 18.15625 16.34375 C 18.10901 15.823574 18.065786 15.395691 17.9375 15 C 17.809214 14.604309 17.542099 14.195082 17.15625 13.9375 C 16.770401 13.679918 16.429838 13.60818 16.0625 13.59375 C 15.695162 13.57932 15.310391 13.6315 14.90625 13.65625 C 14.380666 13.68865 13.658225 13.61524 12.96875 14.1875 C 12.279275 14.759764 12.113335 15.700644 12.1875 16.90625 C 12.187552 16.92283 12.1886 16.92995 12.1875 16.96875 C 12.1854 17.04635 12.17056 17.161543 12.15625 17.3125 C 12.12763 17.614413 12.0726 18.068794 11.9375 18.5625 C 11.667294 19.549911 11.130029 20.751861 10 21.78125 C 8.8536614 22.818547 8.7254686 24.560266 9.625 25.78125 L 9.59375 25.8125 C 9.6245188 25.844787 9.6565488 25.874462 9.6875 25.90625 C 9.7205032 25.946891 9.7457556 25.992019 9.78125 26.03125 C 9.948435 26.216347 10.143561 26.394632 10.34375 26.53125 C 12.197865 28.164115 14.359569 28.96875 16.96875 28.96875 C 21.371064 28.96875 24.96875 25.371064 24.96875 20.96875 L 24.96875 11 C 24.96875 6.5976857 21.371064 3 16.96875 3 z M 16.96875 5 C 20.286436 5 22.96875 7.6823143 22.96875 11 L 22.96875 20.96875 C 22.96875 24.286436 20.286436 26.96875 16.96875 26.96875 C 15.731601 26.96875 14.709752 26.794501 13.78125 26.40625 C 13.852256 26.352558 13.932689 26.310839 14 26.25 C 14.518566 25.786019 14.97604 25.290632 15.375 24.78125 C 15.878408 24.899827 16.408031 24.96875 16.96875 24.96875 C 19.158096 24.96875 20.96875 23.158096 20.96875 20.96875 L 20.96875 11 C 20.96875 8.8034768 19.165273 7 16.96875 7 C 14.293988 7 12.901807 7.8099773 11.71875 9.0625 C 11.047491 9.7733758 10.687209 10.462886 10.5 11 L 9.65625 11 L 9.65625 13 L 10.53125 13 C 10.621811 13.289 10.658329 13.445592 10.65625 13.46875 C 10.653521 13.463153 10.646835 13.47346 10.59375 13.5 C 10.156361 13.718694 9.4472695 14.118046 9.34375 14.15625 C 8.9320028 14.307383 9.0015924 14.26169 9.03125 14.28125 C 9.0609076 14.30081 8.8340708 14.031932 8.5625 13.3125 C 8.1970193 12.343458 7.963898 10.832229 9.4375 8.71875 C 10.901325 6.6192937 13.441463 5 16.96875 5 z M 15.90625 15.625 C 15.974499 15.625521 16.000837 15.628106 16.03125 15.625 C 16.07578 15.76234 16.11499 16.076926 16.15625 16.53125 C 16.14624 16.419891 16.16055 16.56241 16.15625 16.71875 C 16.15195 16.875093 16.15075 17.10175 16.125 17.375 C 16.07347 17.921501 15.971382 18.694402 15.75 19.53125 C 15.307236 21.204946 14.424493 23.195849 12.6875 24.75 C 12.394955 25.014416 11.993878 25.061863 11.65625 24.9375 C 11.613198 24.921631 11.573325 24.894606 11.53125 24.875 C 11.400474 24.751775 11.25596 24.635535 11.125 24.5 C 10.900537 24.101198 10.982142 23.60846 11.34375 23.28125 C 12.818721 21.937639 13.532706 20.344589 13.875 19.09375 C 14.046147 18.468331 14.118552 17.897743 14.15625 17.5 C 14.1751 17.301128 14.1842 17.150386 14.1875 17.03125 C 14.1891 16.97168 14.187618 16.912485 14.1875 16.875 C 14.187382 16.83751 14.1957 16.90749 14.1875 16.78125 C 14.12866 15.824856 14.289475 15.685986 14.25 15.71875 C 14.21053 15.75151 14.453834 15.69185 15.03125 15.65625 C 15.443609 15.631 15.735628 15.623699 15.90625 15.625 z" overflow="visible" font-family="Bitstream Vera Sans" fill="#000000"/></svg>
