<?xml version="1.0" encoding="utf-8"?>
<svg xmlns="http://www.w3.org/2000/svg" viewBox="0 0 32 32" fill="#000000"><path d="M 14 2 L 14 2.8457031 L 14 7 L 16 9 L 16 4 L 23 4 L 23 8 L 23 9 L 24 9 L 28 9 L 28 22 L 20 22 L 20 24 L 29.199219 24 L 30 24 L 30 23.154297 L 30 7.9238281 L 30 7.578125 L 29.775391 7.3144531 L 24.974609 2.2382812 L 24.724609 2 L 24.400391 2 L 14.800781 2 L 14 2 z M 25.199219 4.9082031 L 27.25 7.0761719 L 25.199219 7.0761719 L 25.199219 4.9082031 z M 2 8 L 2 29.154297 L 2 30 L 2.8007812 30 L 17.199219 30 L 18 30 L 18 29.154297 L 18 13.923828 L 18 13.578125 L 17.775391 13.314453 L 13 8 L 2 8 z M 4 10 L 11 10 L 11 14 L 11 15 L 12 15 L 16 15 L 16 28 L 4 28 L 4 10 z M 13.199219 10.908203 L 15.25 13.076172 L 13.199219 13.076172 L 13.199219 10.908203 z M 20 12 L 20 14 L 26 14 L 26 12 L 20 12 z M 20 16 L 20 18 L 26 18 L 26 16 L 20 16 z M 6 18 L 6 20 L 14 20 L 14 18 L 6 18 z M 6 22 L 6 24 L 14 24 L 14 22 L 6 22 z" fill="#000000"/></svg>
