<?xml version="1.0" encoding="utf-8"?>
<svg xmlns="http://www.w3.org/2000/svg" viewBox="0 0 32 32" fill="#000000"><path style="line-height:normal;text-indent:0;text-align:start;text-decoration-line:none;text-decoration-style:solid;text-decoration-color:#000;text-transform:none;block-progression:tb;isolation:auto;mix-blend-mode:normal" d="M 16.292969 2.2929688 L 15.621094 2.9648438 L 15.619141 2.9628906 L 8.5839844 10 L 7.9140625 10.671875 L 9.328125 12.085938 L 10 11.414062 L 14.585938 16 L 4.2929688 26.292969 L 5.7070312 27.707031 L 16 17.414062 L 20.585938 22 L 19.914062 22.671875 L 21.328125 24.085938 L 22 23.414062 L 29.035156 16.378906 L 29.707031 15.707031 L 28.292969 14.292969 L 27.621094 14.964844 L 17.035156 4.3789062 L 17.707031 3.7070312 L 16.292969 2.2929688 z M 15.619141 5.7929688 L 15.621094 5.7929688 L 17.207031 7.3789062 L 13 11.585938 L 11.414062 10 L 15.619141 5.7929688 z M 18.621094 8.7929688 L 23.207031 13.378906 L 19 17.585938 L 14.414062 13 L 18.621094 8.7929688 z M 24.621094 14.792969 L 26.207031 16.378906 L 22 20.585938 L 20.414062 19 L 24.621094 14.792969 z" fill="#000000"/></svg>
