<?xml version="1.0" encoding="utf-8"?>
<svg xmlns="http://www.w3.org/2000/svg" viewBox="0 0 32 32" fill="#000000"><path style="text-indent:0;text-align:start;line-height:normal;text-transform:none;block-progression:tb;-inkscape-font-specification:Bitstream Vera Sans" d="M 22 4 C 20.354991 4 19 5.3549901 19 7 C 19 8.6450099 20.354991 10 22 10 C 23.645009 10 25 8.6450099 25 7 C 25 5.3549901 23.645009 4 22 4 z M 22 6 C 22.564129 6 23 6.4358709 23 7 C 23 7.5641291 22.564129 8 22 8 C 21.435871 8 21 7.5641291 21 7 C 21 6.4358709 21.435871 6 22 6 z M 13.96875 8 C 13.622336 8 13.271515 8.077564 12.96875 8.25 L 9.09375 10.46875 L 10.0625 12.21875 L 13.96875 10 L 16.65625 10 L 13.84375 12.3125 C 12.730143 13.224581 12.745151 14.994478 13.875 15.875 L 13.90625 15.90625 L 17 18.46875 L 17 23 L 19 23 L 19 18.46875 C 19 17.875453 18.737264 17.317512 18.28125 16.9375 L 15.15625 14.34375 L 15.125 14.3125 L 15.125 14.28125 C 14.962609 14.159946 14.937217 14.003206 15.09375 13.875 L 18.3125 11.25 C 18.937052 10.738531 19.110898 9.8786713 18.875 9.21875 C 18.639102 8.5588287 17.932166 8 17.125 8 L 13.96875 8 z M 19.1875 12 L 16.78125 14 L 23 14 L 23 12 L 19.1875 12 z M 12.65625 16.5625 L 11.40625 18 L 7 18 L 7 20 L 11.40625 20 C 11.985905 20 12.526531 19.750176 12.90625 19.3125 L 14.1875 17.875 L 12.65625 16.5625 z M 7.3125 23.0625 L 6.6875 24.9375 L 9.6875 25.9375 L 9.84375 26 L 10 26 L 11 26 L 19 26 L 20 26 L 20.15625 26 L 20.3125 25.9375 L 23.3125 24.9375 L 22.6875 23.0625 L 19.875 24 L 10.125 24 L 7.3125 23.0625 z M 19 26 C 18.447715 26 18 26.447715 18 27 C 18 27.552285 18.447715 28 19 28 C 19.552285 28 20 27.552285 20 27 C 20 26.447715 19.552285 26 19 26 z M 11 26 C 10.447715 26 10 26.447715 10 27 C 10 27.552285 10.447715 28 11 28 C 11.552285 28 12 27.552285 12 27 C 12 26.447715 11.552285 26 11 26 z" overflow="visible" font-family="Bitstream Vera Sans" fill="#000000"/></svg>
