<?xml version="1.0" encoding="utf-8"?>
<svg xmlns="http://www.w3.org/2000/svg" viewBox="0 0 32 32" fill="#000000"><path style="text-indent:0;text-align:start;line-height:normal;text-transform:none;block-progression:tb;-inkscape-font-specification:Bitstream Vera Sans" d="M 5 5 L 5 6 L 5 26 L 5 27 L 6 27 L 26 27 L 27 27 L 27 26 L 27 6 L 27 5 L 26 5 L 6 5 L 5 5 z M 7 7 L 25 7 L 25 25 L 7 25 L 7 7 z M 15 8 L 15 9 L 12 9 L 12 11 L 15 11 L 15 12 L 10 12 L 10 14 L 15 14 L 15 15 L 11 15 L 11 17 L 15 17 L 15 19.5625 C 14.476313 19.291357 13.888479 19 13.5 19 C 12.672 19 12 19.672 12 20.5 C 12 21.328 12.672 22 13.5 22 C 13.88 22 15.172 23 16 23 C 16.828 23 18.12 22 18.5 22 C 19.328 22 20 21.328 20 20.5 C 20 19.672 19.328 19 18.5 19 C 18.111521 19 17.523687 19.291357 17 19.5625 L 17 8 L 15 8 z M 18 9 L 18 11 L 20 11 L 20 9 L 18 9 z M 18 12 L 18 14 L 22 14 L 22 12 L 18 12 z M 18 15 L 18 17 L 21 17 L 21 15 L 18 15 z" fill="#000000"/></svg>
