<?xml version="1.0" encoding="utf-8"?>
<svg xmlns="http://www.w3.org/2000/svg" viewBox="0 0 32 32" fill="#000000"><path d="M 3 3 L 3 5 L 3 23 L 6.96875 23 C 7.83675 21.798 9.202 20.7645 10.75 20.3125 C 10.823 20.2915 10.918 20.269 11 20.25 L 11 17 L 12.125 17 L 11.59375 15 L 11 15 L 11 12.875 L 10.15625 9.8125 C 9.87625 8.8565 9.98475 7.84975 10.46875 6.96875 C 10.61675 6.69875 10.797 6.43975 11 6.21875 L 11 5 L 15 5 L 15 5.21875 C 15.835 5.51375 16.542 6.098 17 6.875 L 17 5 L 21 5 L 21 9 L 17.71875 9 L 18.21875 11 L 23 11 L 23 3 L 3 3 z M 5 5 L 9 5 L 9 9 L 5 9 L 5 5 z M 13.53125 6 C 13.348482 6.0150547 13.182625 6.0715 13 6.125 C 12.292 6.332 11.69775 6.7905 11.34375 7.4375 C 10.98875 8.0845 10.89075 8.83725 11.09375 9.53125 L 14.28125 20.96875 C 13.22425 20.97375 11.81325 21.05325 11.03125 21.28125 C 8.60325 21.99025 6.5675 24.52075 7.0625 26.21875 C 7.2945 27.01075 7.5345 27.452 7.5625 27.5 L 7.875 28 L 11.90625 28 L 18.28125 28.5625 L 18.84375 29.03125 L 20.15625 27.53125 L 19.09375 26.625 L 12 26 L 9.09375 26 C 9.05975 25.904 9.00475 25.8085 8.96875 25.6875 C 8.91275 25.2885 9.92775 23.6735 11.59375 23.1875 C 12.33375 22.9715 14.4245 22.96 15.5625 23 L 16.9375 23.0625 L 13.03125 8.96875 C 12.97325 8.77375 12.99575 8.58525 13.09375 8.40625 C 13.19175 8.22725 13.3665 8.08825 13.5625 8.03125 C 13.9645 7.90825 14.385 8.13625 14.5 8.53125 L 14.5 8.5625 L 16.875 17.125 L 18.8125 16.59375 L 18.34375 14.90625 L 18.34375 14.875 C 18.25675 14.55 18.33225 14.131 18.78125 14 C 19.18625 13.882 19.59675 14.11525 19.71875 14.53125 L 20 15.4375 L 20.1875 16.28125 L 22.125 15.8125 L 21.90625 14.84375 C 21.86425 14.67875 21.8675 14.503 21.9375 14.375 C 22.0235 14.217 22.2175 14.09525 22.4375 14.03125 C 22.6325 13.97425 22.822 13.99675 23 14.09375 C 23.179 14.19275 23.327 14.37025 23.375 14.53125 L 23.53125 15.21875 L 25.5 14.875 C 25.461 14.521 25.7025 14.1665 26.0625 14.0625 C 26.2575 14.0055 26.47725 14.028 26.65625 14.125 C 26.83525 14.223 26.97425 14.3675 27.03125 14.5625 L 28.9375 14.03125 C 28.7325 13.32225 28.272 12.73 27.625 12.375 C 26.977 12.02 26.24125 11.916 25.53125 12.125 C 25.13425 12.241 24.76475 12.46475 24.46875 12.71875 C 24.31675 12.58475 24.15075 12.44375 23.96875 12.34375 C 23.32075 11.98975 22.581 11.917 21.875 12.125 C 21.484 12.238 21.13875 12.41425 20.84375 12.65625 C 20.15475 12.04025 19.16775 11.7855 18.21875 12.0625 C 18.01175 12.1235 17.803 12.2135 17.625 12.3125 L 16.40625 8 C 16.03175 6.72075 14.810623 5.8946172 13.53125 6 z M 5 11 L 9 11 L 9 15 L 5 15 L 5 11 z M 5 17 L 9 17 L 9 21 L 5 21 L 5 17 z" fill="#000000"/></svg>
