<?xml version="1.0" encoding="utf-8"?>
<svg xmlns="http://www.w3.org/2000/svg" viewBox="0 0 32 32" fill="#000000"><path style="text-indent:0;text-align:start;line-height:normal;text-transform:none;block-progression:tb;-inkscape-font-specification:Sans" d="M 19 3 C 14.604545 3 11 6.6045455 11 11 L 11 13.625 C 9.2766009 12.615868 7.0402072 12.95804 5.8125 14.59375 C 4.4938976 16.351444 4.8352237 18.869268 6.59375 20.1875 L 6.59375 20.21875 L 6.625 20.21875 L 12 24.15625 L 12 28 L 12 29 L 13 29 L 25 29 L 26 29 L 26 28 L 26 23.71875 C 26.02115 23.67868 26.03814 23.64306 26.0625 23.59375 C 26.174762 23.366472 26.297135 23.045254 26.4375 22.625 C 26.718231 21.784493 27 20.57093 27 19 L 27 11 C 27 6.6045455 23.395455 3 19 3 z M 19 5 C 22.304545 5 25 7.6954545 25 11 L 25 19 C 25 20.34207 24.781519 21.344257 24.5625 22 C 24.45299 22.327871 24.324957 22.566997 24.25 22.71875 C 24.21252 22.79463 24.20532 22.843808 24.1875 22.875 C 24.1786 22.8906 24.15927 22.90129 24.15625 22.90625 L 24.3125 23 L 13.84375 23 L 13.59375 22.8125 L 7.8125 18.59375 C 6.9190263 17.923982 6.7368524 16.704806 7.40625 15.8125 C 8.0778617 14.917692 9.2986172 14.737907 10.1875 15.40625 L 10.21875 15.40625 L 11.4375 16.25 L 13 17.34375 L 13 15.4375 L 13 15 L 13 11 C 13 7.6954545 15.695455 5 19 5 z M 18 11 L 18 13.21875 L 16.09375 12.09375 L 15.0625 13.8125 L 17.0625 15 L 15.0625 16.1875 L 16.09375 17.90625 L 18 16.78125 L 18 19 L 20 19 L 20 16.78125 L 21.90625 17.90625 L 22.9375 16.1875 L 20.9375 15 L 22.9375 13.8125 L 21.90625 12.09375 L 20 13.21875 L 20 11 L 18 11 z M 14 25 L 24 25 L 24 27 L 14 27 L 14 25 z" overflow="visible" font-family="Sans" fill="#000000"/></svg>
