<?xml version="1.0" encoding="utf-8"?>
<svg xmlns="http://www.w3.org/2000/svg" viewBox="0 0 32 32" fill="#000000"><path style="text-indent:0;text-align:start;line-height:normal;text-transform:none;block-progression:tb;-inkscape-font-specification:Sans" d="M 16.0625 4 L 15.9375 6 L 17.0625 6.0625 L 17.96875 6.1875 L 18.0625 6.21875 L 18.9375 6.4375 L 19 6.46875 L 19.03125 6.46875 L 19.40625 6.625 L 20.09375 4.71875 L 19.625 4.5625 L 19.5625 4.53125 L 19.53125 4.53125 L 18.46875 4.25 L 18.40625 4.25 L 18.375 4.25 L 17.28125 4.0625 L 17.21875 4.0625 L 17.1875 4.0625 L 16.0625 4 z M 13.9375 4.1875 L 13.625 4.25 L 13.59375 4.25 L 13.53125 4.25 L 12.46875 4.53125 L 12.4375 4.53125 L 12.375 4.5625 L 11.375 4.9375 L 11.34375 4.9375 L 11.28125 4.96875 L 10.3125 5.4375 L 10.28125 5.4375 L 10.25 5.46875 L 10 5.625 L 11.03125 7.34375 L 11.28125 7.1875 L 12.0625 6.8125 L 12.96875 6.46875 L 13 6.46875 L 13.0625 6.4375 L 13.9375 6.21875 L 14.03125 6.1875 L 14.25 6.15625 L 13.9375 4.1875 z M 22 5.625 L 20.96875 7.34375 L 21.5625 7.6875 L 21.625 7.71875 L 22.3125 8.25 L 22.40625 8.3125 L 23.03125 8.90625 L 23.0625 8.9375 L 23.09375 8.96875 L 23.6875 9.59375 L 25.15625 8.25 L 24.53125 7.5625 L 24.5 7.5 L 24.4375 7.46875 L 23.65625 6.78125 L 23.625 6.75 L 23.59375 6.71875 L 22.75 6.0625 L 22.71875 6.0625 L 22.65625 6.03125 L 22 5.625 z M 8.25 6.84375 L 7.5625 7.46875 L 7.5 7.5 L 7.46875 7.5625 L 6.78125 8.34375 L 6.75 8.375 L 6.71875 8.40625 L 6.0625 9.25 L 6.0625 9.28125 L 6.03125 9.34375 L 5.625 10 L 7.34375 11.03125 L 7.6875 10.4375 L 7.71875 10.375 L 8.25 9.6875 L 8.3125 9.59375 L 8.90625 8.96875 L 8.9375 8.9375 L 8.96875 8.90625 L 9.59375 8.3125 L 8.25 6.84375 z M 26.375 10 L 24.65625 11.03125 L 24.8125 11.28125 L 25.1875 12.0625 L 25.53125 12.96875 L 25.53125 13 L 25.5625 13.0625 L 25.78125 13.9375 L 25.8125 14.03125 L 25.84375 14.25 L 27.8125 13.9375 L 27.75 13.625 L 27.75 13.59375 L 27.75 13.53125 L 27.46875 12.46875 L 27.46875 12.4375 L 27.4375 12.375 L 27.0625 11.375 L 27.0625 11.34375 L 27.03125 11.28125 L 26.5625 10.3125 L 26.5625 10.28125 L 26.53125 10.25 L 26.375 10 z M 4.71875 11.90625 L 4.5625 12.375 L 4.53125 12.4375 L 4.53125 12.46875 L 4.25 13.53125 L 4.25 13.59375 L 4.25 13.625 L 4.0625 14.71875 L 4.0625 14.78125 L 4.0625 14.8125 L 4 15.9375 L 6 16.0625 L 6.0625 14.9375 L 6.1875 14.03125 L 6.21875 13.9375 L 6.4375 13.0625 L 6.46875 13 L 6.46875 12.96875 L 6.625 12.59375 L 4.71875 11.90625 z M 26 15.9375 L 25.9375 17.0625 L 25.8125 17.96875 L 25.78125 18.0625 L 25.5625 18.9375 L 25.53125 19 L 25.53125 19.03125 L 25.375 19.40625 L 27.28125 20.09375 L 27.4375 19.625 L 27.46875 19.5625 L 27.46875 19.53125 L 27.75 18.46875 L 27.75 18.40625 L 27.75 18.375 L 27.9375 17.28125 L 27.9375 17.21875 L 27.9375 17.1875 L 28 16.0625 L 26 15.9375 z M 6.15625 17.75 L 4.1875 18.0625 L 4.25 18.375 L 4.25 18.40625 L 4.25 18.46875 L 4.53125 19.53125 L 4.53125 19.5625 L 4.5625 19.625 L 4.9375 20.625 L 4.9375 20.65625 L 4.96875 20.71875 L 5.4375 21.6875 L 5.4375 21.71875 L 5.46875 21.75 L 5.625 22 L 7.34375 20.96875 L 7.1875 20.71875 L 6.8125 19.9375 L 6.46875 19.03125 L 6.46875 19 L 6.4375 18.9375 L 6.21875 18.0625 L 6.1875 17.96875 L 6.15625 17.75 z M 24.65625 20.96875 L 24.3125 21.5625 L 24.28125 21.625 L 23.75 22.3125 L 23.6875 22.40625 L 23.09375 23.03125 L 23.0625 23.0625 L 23.03125 23.09375 L 22.40625 23.6875 L 23.75 25.15625 L 24.4375 24.53125 L 24.5 24.5 L 24.53125 24.4375 L 25.21875 23.65625 L 25.25 23.625 L 25.28125 23.59375 L 25.9375 22.75 L 25.9375 22.71875 L 25.96875 22.65625 L 26.375 22 L 24.65625 20.96875 z M 8.3125 22.40625 L 6.84375 23.75 L 7.46875 24.4375 L 7.5 24.5 L 7.5625 24.53125 L 8.34375 25.21875 L 8.375 25.25 L 8.40625 25.28125 L 9.25 25.9375 L 9.28125 25.9375 L 9.34375 25.96875 L 10 26.375 L 11.03125 24.65625 L 10.4375 24.3125 L 10.375 24.28125 L 9.6875 23.75 L 9.59375 23.6875 L 8.96875 23.09375 L 8.9375 23.0625 L 8.90625 23.03125 L 8.3125 22.40625 z M 20.96875 24.65625 L 20.71875 24.8125 L 19.9375 25.1875 L 19.03125 25.53125 L 19 25.53125 L 18.9375 25.5625 L 18.0625 25.78125 L 17.96875 25.8125 L 17.75 25.84375 L 18.0625 27.8125 L 18.375 27.75 L 18.40625 27.75 L 18.46875 27.75 L 19.53125 27.46875 L 19.5625 27.46875 L 19.625 27.4375 L 20.625 27.0625 L 20.65625 27.0625 L 20.71875 27.03125 L 21.6875 26.5625 L 21.71875 26.5625 L 21.75 26.53125 L 22 26.375 L 20.96875 24.65625 z M 12.59375 25.375 L 11.90625 27.28125 L 12.375 27.4375 L 12.4375 27.46875 L 12.46875 27.46875 L 13.53125 27.75 L 13.59375 27.75 L 13.625 27.75 L 14.71875 27.9375 L 14.78125 27.9375 L 14.8125 27.9375 L 15.9375 28 L 16.0625 26 L 14.9375 25.9375 L 14.03125 25.8125 L 13.9375 25.78125 L 13.0625 25.5625 L 13 25.53125 L 12.96875 25.53125 L 12.59375 25.375 z" overflow="visible" font-family="Sans" fill="#000000"/></svg>
