<?xml version="1.0" encoding="utf-8"?>
<svg xmlns="http://www.w3.org/2000/svg" viewBox="0 0 32 32" fill="#000000"><path style="text-indent:0;text-align:start;line-height:normal;text-transform:none;block-progression:tb;-inkscape-font-specification:Sans" d="M 16 3.90625 L 15.625 4.0625 L 8.90625 6.875 L 8.65625 6.96875 L 8.5 7.15625 L 4.21875 12.375 L 3.96875 12.6875 L 4 13.09375 L 4.625 20.15625 L 4.65625 20.46875 L 4.84375 20.6875 L 9 26.15625 L 9.21875 26.4375 L 9.5625 26.5 L 15.78125 27.96875 L 16 28.03125 L 16.21875 27.96875 L 22.4375 26.5 L 22.78125 26.4375 L 23 26.15625 L 27.15625 20.6875 L 27.34375 20.46875 L 27.375 20.15625 L 28 13.09375 L 28.03125 12.6875 L 27.78125 12.375 L 23.5 7.15625 L 23.34375 6.96875 L 23.09375 6.875 L 16.375 4.0625 L 16 3.90625 z M 16 6.09375 L 21.3125 8.28125 L 19.78125 11 L 12.21875 11 L 10.6875 8.28125 L 16 6.09375 z M 9.125 9.5625 L 10.71875 12.46875 L 8.25 18.21875 L 6.5 18.8125 L 6.03125 13.3125 L 9.125 9.5625 z M 22.875 9.5625 L 25.96875 13.3125 L 25.5 18.75 L 23.75 18.1875 L 21.28125 12.4375 L 22.875 9.5625 z M 12.65625 13 L 19.34375 13 L 21.78125 18.65625 L 16 22.75 L 10.21875 18.65625 L 12.65625 13 z M 14.34375 15 C 14.29275 15.153 14.227 15.30425 14.125 15.40625 C 14.023 15.50825 13.93425 15.60525 13.78125 15.65625 C 13.62825 15.75825 13.4655 15.7615 13.3125 15.8125 C 13.2175 15.8445 13.109 15.871 13 15.875 L 13 16.46875 L 14 16.46875 L 14 20 L 15 20 L 15 15 L 14.34375 15 z M 17.53125 15 C 16.95925 15 16.6265 15.2425 16.4375 15.4375 C 16.0055 15.8815 15.998 16.47825 16 16.53125 L 16 17 L 17 17 L 17 16.53125 C 17 16.52925 17.02025 16.265 17.15625 16.125 C 17.18625 16.094 17.26125 16 17.53125 16 C 17.70325 16 17.83825 16.052 17.90625 16.125 C 18.00725 16.232 18.006 16.43025 18 16.53125 C 18 16.94525 17.65275 17.1835 17.09375 17.5625 C 16.58275 17.9085 16.009 18.306 16 19 L 16 20 L 19 20 L 19 19 L 17 19 C 17.018 18.827 17.35425 18.60925 17.65625 18.40625 C 18.22025 18.02425 19.002 17.4895 19 16.5625 C 19.006 16.4955 19.036 15.8885 18.625 15.4375 C 18.442 15.2375 18.11325 15 17.53125 15 z M 23.1875 20.09375 L 24.71875 20.59375 L 21.625 24.65625 L 17 25.75 L 17 24.53125 L 23.1875 20.09375 z M 8.8125 20.125 L 15 24.53125 L 15 25.75 L 10.375 24.65625 L 7.3125 20.65625 L 8.8125 20.125 z" fill="#000000"/></svg>
