<?xml version="1.0" encoding="utf-8"?>
<svg xmlns="http://www.w3.org/2000/svg" viewBox="0 0 32 32" fill="#000000"><path style="text-indent:0;text-align:start;line-height:normal;text-transform:none;block-progression:tb;-inkscape-font-specification:Sans" d="M 25.21875 3 L 25.03125 3.75 L 24.03125 7.75 L 23.90625 8.3125 L 24.28125 8.71875 L 24.625 9.0625 L 21.03125 22.75 C 20.593911 24.379649 20.071962 25.465635 19.46875 26.09375 C 18.865538 26.721865 18.189386 27 17 27 C 15.057172 27 13.464738 25.640609 13.09375 23.8125 C 14.765009 23.332731 16 21.818514 16 20 L 14 20 C 14 21.116666 13.116666 22 12 22 C 10.883334 22 10 21.116666 10 20 L 8 20 C 8 21.877402 9.3087945 23.451997 11.0625 23.875 C 11.483638 26.771306 13.991171 29 17 29 C 18.571614 29 19.928962 28.486385 20.90625 27.46875 C 21.883538 26.451115 22.489089 25.037351 22.96875 23.25 L 27.96875 4.25 L 28.3125 3 L 27 3 L 26 3 L 25.21875 3 z M 12 8 C 9.5869886 8 7.7705651 8.2814245 6.625 8.59375 C 5.5815717 8.8724944 4.6951391 9.708266 4.53125 10.84375 C 4.52983 10.85355 4.53256 10.86513 4.53125 10.875 L 4.0625 13.875 C 3.7618333 15.526255 5.1683929 17 6.84375 17 L 9.5625 17 C 9.660399 17.09911 9.8162055 17.339627 10 17.59375 C 10.183794 17.847873 10.39426 18.126907 10.6875 18.40625 C 10.98074 18.685593 11.40948 19 12 19 C 12.59052 19 13.053768 18.68774 13.34375 18.40625 C 13.633732 18.12476 13.82065 17.845824 14 17.59375 C 14.17935 17.341676 14.342434 17.126364 14.4375 17.03125 C 14.456513 17.012227 14.428789 17.008087 14.4375 17 L 17.1875 17 C 18.862857 17 20.215867 15.531012 20 13.875 L 20 13.84375 L 19.53125 10.84375 C 19.52995 10.83371 19.53265 10.82249 19.53125 10.8125 C 19.367179 9.6772664 18.480777 8.8412041 17.4375 8.5625 L 17.4375 8.53125 L 17.40625 8.53125 C 16.272241 8.285002 14.413011 8 12 8 z M 12 10 C 14.252989 10 15.956759 10.280248 16.96875 10.5 C 17.28838 10.604582 17.531009 10.856721 17.5625 11.09375 L 17.5625 11.125 L 18.03125 14.125 L 18.03125 14.15625 C 18.076422 14.632049 17.739192 15 17.1875 15 L 14.4375 15 C 14.429326 14.992751 14.429683 14.991785 14.40625 14.96875 C 14.312517 14.876606 14.176405 14.687455 14 14.4375 C 13.823595 14.187545 13.631264 13.876574 13.34375 13.59375 C 13.056236 13.310926 12.59052 13 12 13 C 11.40948 13 10.94218 13.309242 10.65625 13.59375 C 10.37032 13.878258 10.20475 14.1875 10.03125 14.4375 C 9.85775 14.6875 9.6846949 14.878258 9.59375 14.96875 C 9.5664665 14.995898 9.5648754 14.994162 9.5625 15 L 6.84375 15 C 6.2791071 15 5.9579167 14.621495 6.03125 14.21875 L 6.0625 14.1875 L 6.5 11.15625 L 6.53125 11.15625 L 6.53125 11.125 C 6.5643984 10.875496 6.7774615 10.624092 7.125 10.53125 L 7.15625 10.53125 C 8.0646849 10.283575 9.7470114 10 12 10 z M 12 15.125 C 12.09475 15.232573 12.196949 15.354493 12.34375 15.5625 C 12.438732 15.697083 12.539752 15.844033 12.65625 16 C 12.549206 16.137149 12.4632 16.282287 12.375 16.40625 C 12.226417 16.61508 12.096914 16.767324 12 16.875 C 11.89989 16.766155 11.774788 16.613354 11.625 16.40625 C 11.539921 16.288617 11.414651 16.155419 11.3125 16.03125 C 11.44062 15.863845 11.556232 15.706618 11.65625 15.5625 C 11.796481 15.360438 11.908045 15.232392 12 15.125 z" overflow="visible" font-family="Sans" fill="#000000"/></svg>
