<?xml version="1.0" encoding="utf-8"?>
<svg xmlns="http://www.w3.org/2000/svg" viewBox="0 0 32 32" fill="#000000"><path style="text-indent:0;text-align:start;line-height:normal;text-transform:none;block-progression:tb;-inkscape-font-specification:Bitstream Vera Sans" d="M 9 4 L 9 6 L 13 6 L 13 4 L 9 4 z M 9.9375 7 L 9 7.0625 L 9 8 L 9 8.1875 L 9 8.40625 L 9.125 8.625 C 9.07981 8.538454 9.155782 8.7314972 9.21875 8.96875 C 9.281718 9.2060028 9.3639363 9.5283467 9.4375 9.90625 C 9.5846273 10.662057 9.7316828 11.656871 9.8125 12.65625 C 9.893317 13.655629 9.881099 14.691107 9.78125 15.53125 C 9.6814009 16.371393 9.4431884 16.971427 9.25 17.1875 L 9 17.46875 L 9 17.875 L 9 18 L 9 19.125 L 10.125 19 L 18.125 18 L 19 17.875 L 19 18 L 19 19.1875 L 20.15625 19 L 26.15625 18 L 27 17.84375 L 27 17 C 27 14.236734 25.252653 12.23425 23.625 10.96875 C 21.997347 9.7032495 20.375 9.0625 20.375 9.0625 L 19 8.53125 L 19 10 L 19 10.1875 L 19 10.40625 L 19.125 10.625 C 19.1196 10.61463 19.294146 11.09426 19.4375 11.65625 C 19.580854 12.21824 19.734319 12.952365 19.8125 13.6875 C 19.968862 15.157771 19.74989 16.628389 19.25 17.1875 L 19 17.46875 L 19 17 C 19 11.928817 16.745681 9.2286313 14.46875 8.03125 C 12.191819 6.8338687 9.9375 7 9.9375 7 z M 11.28125 9.09375 C 11.918155 9.185828 12.714398 9.3516879 13.53125 9.78125 C 15.124631 10.619169 16.672938 12.319812 16.90625 16.125 L 11.5625 16.78125 C 11.64496 16.444014 11.738605 16.108818 11.78125 15.75 C 11.905213 14.706956 11.86918 13.587371 11.78125 12.5 C 11.69332 11.412629 11.53606 10.358631 11.375 9.53125 C 11.34179 9.3606242 11.31454 9.2454711 11.28125 9.09375 z M 21.53125 12.03125 C 21.91484 12.259621 21.951556 12.202022 22.375 12.53125 C 23.527152 13.427049 24.439539 14.699551 24.75 16.1875 L 21.5625 16.71875 C 21.842009 15.654391 21.893998 14.528911 21.78125 13.46875 C 21.72497 12.939527 21.625469 12.495191 21.53125 12.03125 z M 5 20 L 5 21 C 5 22.824688 5.352529 24.211995 5.875 25.25 C 5.8083224 25.345671 5.7211348 25.452541 5.5625 25.5625 C 5.2061149 25.809532 4.636638 26 4 26 C 3.3665518 26 2.7956774 25.812099 2.4375 25.5625 C 2.0793226 25.312901 2 25.042136 2 25 L 0 25 C 0 25.941864 0.58867738 26.683099 1.3125 27.1875 C 2.0363226 27.691901 2.9614482 28 4 28 C 5.035362 28 5.9618851 27.690468 6.6875 27.1875 C 6.8001837 27.109392 6.895686 27.026988 7 26.9375 C 7.1012319 27.023981 7.2036063 27.111617 7.3125 27.1875 C 8.0363226 27.691901 8.9614482 28 10 28 C 11.035362 28 11.961885 27.690468 12.6875 27.1875 C 12.800184 27.109392 12.895686 27.026988 13 26.9375 C 13.101232 27.023981 13.203606 27.111617 13.3125 27.1875 C 14.036323 27.691901 14.961448 28 16 28 C 17.035362 28 17.961885 27.690468 18.6875 27.1875 C 18.800184 27.109392 18.895686 27.026988 19 26.9375 C 19.101232 27.023981 19.203606 27.111617 19.3125 27.1875 C 20.036323 27.691901 20.961448 28 22 28 C 23.035362 28 23.961885 27.690468 24.6875 27.1875 C 24.800184 27.109392 24.895686 27.026988 25 26.9375 C 25.101232 27.023981 25.203606 27.111617 25.3125 27.1875 C 26.036323 27.691901 26.961448 28 28 28 C 29.035362 28 29.961885 27.690468 30.6875 27.1875 C 31.413115 26.684532 32 25.942667 32 25 L 30 25 C 30 25.05733 29.91888 25.315468 29.5625 25.5625 C 29.206115 25.809532 28.636638 26 28 26 C 27.366552 26 26.795677 25.812099 26.4375 25.5625 C 26.361651 25.509644 26.302734 25.458632 26.25 25.40625 C 27.269239 24.103969 28 22.538704 28 21 L 28 20 L 27 20 L 6 20 L 5 20 z M 7.15625 22 L 25.75 22 C 25.518721 22.749455 25.147614 23.561718 24.5625 24.28125 C 23.703023 25.338174 22.58361 26 22 26 C 21.366552 26 20.795677 25.812099 20.4375 25.5625 C 20.079323 25.312901 20 25.042136 20 25 L 18 25 C 18 25.05733 17.91888 25.315468 17.5625 25.5625 C 17.206115 25.809532 16.636638 26 16 26 C 15.366552 26 14.795677 25.812099 14.4375 25.5625 C 14.079323 25.312901 14 25.042136 14 25 L 12 25 C 12 25.05733 11.91888 25.315468 11.5625 25.5625 C 11.206115 25.809532 10.636638 26 10 26 C 9.957957 26 9.9164478 26.001619 9.875 26 C 9.7919114 26.000857 9.2660585 25.988435 8.59375 25.5 C 7.9828616 25.05619 7.3659124 23.96875 7.15625 22 z" overflow="visible" font-family="Bitstream Vera Sans" fill="#000000"/></svg>
