<?xml version="1.0" encoding="utf-8"?>
<svg xmlns="http://www.w3.org/2000/svg" viewBox="0 0 32 32" fill="#000000"><path style="text-indent:0;text-align:start;line-height:normal;text-transform:none;block-progression:tb;-inkscape-font-specification:Sans" d="M 3.71875 2.28125 L 2.28125 3.71875 L 9.34375 10.75 L 10.75 12.15625 L 11.59375 13 L 13 14.40625 L 18.59375 20 L 20.59375 22 L 28.28125 29.71875 L 29.71875 28.28125 L 21 19.5625 L 21 15 L 26.90625 15 L 16 4.09375 L 10.75 9.3125 L 3.71875 2.28125 z M 16 6.9375 L 22.0625 13 L 19 13 L 19 17.5625 L 12.1875 10.75 L 16 6.9375 z M 7.9375 12.1875 L 5.09375 15 L 10.75 15 L 7.9375 12.1875 z M 11 15.25 L 11 22 L 17.75 22 L 15.75 20 L 13 20 L 13 17.25 L 11 15.25 z M 11 23 L 11 28 L 21 28 L 21 25.25 L 18.75 23 L 11 23 z M 13 25 L 19 25 L 19 26 L 13 26 L 13 25 z" overflow="visible" font-family="Sans" fill="#000000"/></svg>
