<?xml version="1.0" encoding="utf-8"?>
<svg xmlns="http://www.w3.org/2000/svg" viewBox="0 0 32 32" fill="#000000"><path style="text-indent:0;text-align:start;line-height:normal;text-transform:none;block-progression:tb;-inkscape-font-specification:Sans" d="M 16 3 C 14.707632 3 13.605616 3.8441574 13.1875 5 L 12.4375 5 L 11.71875 4.28125 L 11.40625 4 L 11 4 L 10 4 L 9 4 L 9 5 L 9 7 L 9 8 L 10 8 L 11 8 L 11.40625 8 L 11.71875 7.71875 L 12.4375 7 L 13.1875 7 C 13.358934 7.4641492 13.637601 7.8916404 14 8.21875 L 14 9.34375 C 11.678643 10.174246 10 12.405463 10 15 L 10 28 L 10 29 L 11 29 L 21 29 L 22 29 L 22 28 L 22 15 C 22 12.405463 20.321357 10.174246 18 9.34375 L 18 8.21875 C 18.362399 7.8916404 18.641066 7.4641492 18.8125 7 L 20 7 L 20 5 L 18.8125 5 C 18.394384 3.8441574 17.292368 3 16 3 z M 16 5 C 16.554545 5 17 5.4454545 17 6 C 17 6.5545455 16.554545 7 16 7 C 15.445455 7 15 6.5545455 15 6 C 15 5.4454545 15.445455 5 16 5 z M 16 11 C 18.204545 11 20 12.795455 20 15 L 20 23 L 12 23 L 12 15 C 12 12.795455 13.795455 11 16 11 z M 12 25 L 20 25 L 20 27 L 12 27 L 12 25 z" fill="#000000"/></svg>
