<?xml version="1.0" encoding="utf-8"?>
<svg xmlns="http://www.w3.org/2000/svg" viewBox="0 0 32 32" fill="#000000"><path style="text-indent:0;text-align:start;line-height:normal;text-transform:none;block-progression:tb;-inkscape-font-specification:Sans" d="M 24.84375 4.0625 L 23.875 4.34375 L 16.1875 6.53125 L 15.25 6.8125 L 15.4375 7.5 L 8.21875 5.40625 L 7.25 5.125 L 6.96875 6.09375 L 4.15625 15.65625 C 3.8150758 16.840556 3.6086035 18.253406 4 19.625 C 4.3170014 20.735887 5.1074278 21.799292 6.34375 22.4375 L 5.4375 25.71875 L 2.5625 24.875 L 2 26.8125 L 9.6875 29.03125 L 10.25 27.09375 L 7.375 26.25 L 8.28125 23 C 9.6651 23.112521 10.890993 22.615025 11.75 21.84375 C 12.811303 20.890841 13.408792 19.621924 13.75 18.4375 L 16.21875 10.1875 L 18.25 17.40625 L 18.25 17.4375 C 18.591208 18.621924 19.188697 19.890841 20.25 20.84375 C 21.11561 21.620953 22.32947 22.091565 23.71875 21.96875 L 24.625 25.25 L 21.75 26.09375 L 22.3125 28.03125 L 30 25.8125 L 29.4375 23.875 L 26.5625 24.71875 L 25.625 21.4375 C 26.861322 20.799292 27.651748 19.735887 27.96875 18.625 C 28.360147 17.253406 28.184924 15.840556 27.84375 14.65625 L 25.125 5.03125 L 24.84375 4.0625 z M 23.5 6.53125 L 24.75 11 L 18.5 11 L 17.71875 8.1875 L 23.5 6.53125 z M 8.625 7.625 L 14.375 9.25 L 13.5625 12 L 7.3125 12 L 8.625 7.625 z M 19.0625 13 L 25.3125 13 L 25.9375 15.21875 C 26.205326 16.148444 26.302103 17.254094 26.0625 18.09375 C 25.822897 18.933406 25.370719 19.525178 24.15625 19.875 C 22.941703 20.224845 22.243447 19.95834 21.59375 19.375 C 20.944053 18.791659 20.424042 17.804576 20.15625 16.875 L 19.0625 13 z M 6.71875 14 L 12.96875 14 L 11.84375 17.875 L 11.8125 17.875 C 11.544708 18.804576 11.055947 19.791659 10.40625 20.375 C 9.7565534 20.958341 9.0582969 21.224845 7.84375 20.875 C 6.6292815 20.525178 6.1771035 19.933406 5.9375 19.09375 C 5.6978965 18.254094 5.7946742 17.148444 6.0625 16.21875 L 6.71875 14 z" fill="#000000"/></svg>
