<?xml version="1.0" encoding="utf-8"?>
<svg xmlns="http://www.w3.org/2000/svg" viewBox="0 0 32 32" fill="#000000"><path style="text-indent:0;text-align:start;line-height:normal;text-transform:none;block-progression:tb;-inkscape-font-specification:Bitstream Vera Sans" d="M 4 5 L 4 6 L 4 26 L 4 27 L 5 27 L 27 27 L 28 27 L 28 26 L 28 6 L 28 5 L 27 5 L 5 5 L 4 5 z M 6 7 L 26 7 L 26 9 L 6 9 L 6 7 z M 6 11 L 26 11 L 26 25 L 6 25 L 6 11 z M 9.9375 14 L 9.625 14.34375 C 9.625 14.34375 8.9241455 15 8.375 15 L 8.375 17 C 9.0657516 17 9.5525074 16.696447 10 16.4375 L 10 22 L 12 22 L 12 15 L 12 14 L 11 14 L 10.375 14 L 9.9375 14 z M 16.5 14 C 15.130937 14 14 15.130937 14 16.5 L 14 19.5 C 14 20.869063 15.130937 22 16.5 22 C 17.869063 22 19 20.869063 19 19.5 L 19 16.5 C 19 15.130937 17.869063 14 16.5 14 z M 21.9375 14 L 21.625 14.34375 C 21.625 14.34375 20.924146 15 20.375 15 L 20.375 17 C 21.065752 17 21.552507 16.696447 22 16.4375 L 22 22 L 24 22 L 24 15 L 24 14 L 23 14 L 22.375 14 L 21.9375 14 z M 16.5 16 C 16.786937 16 17 16.213063 17 16.5 L 17 19.5 C 17 19.786937 16.786937 20 16.5 20 C 16.213063 20 16 19.786937 16 19.5 L 16 16.5 C 16 16.213063 16.213063 16 16.5 16 z" overflow="visible" font-family="Bitstream Vera Sans" fill="#000000"/></svg>
