<?xml version="1.0" encoding="utf-8"?>
<svg xmlns="http://www.w3.org/2000/svg" viewBox="0 0 32 32" fill="#000000"><path style="text-indent:0;text-align:start;line-height:normal;text-transform:none;block-progression:tb;-inkscape-font-specification:Sans" d="M 5 5 L 5 6 L 5 26 L 5 27 L 6 27 L 26 27 L 27 27 L 27 26 L 27 6 L 27 5 L 26 5 L 6 5 L 5 5 z M 7 7 L 25 7 L 25 25 L 7 25 L 7 7 z M 11 11 L 11 20 L 11 21 L 12 21 L 16 21 L 16 19 L 13 19 L 13 11 L 11 11 z M 17 13 L 17 17 L 17 21 L 19 21 L 19 17 C 19 15.883334 19.883334 15 21 15 L 22 15 L 22 13 L 21 13 C 20.267555 13 19.592593 13.214056 19 13.5625 L 19 13 L 17 13 z" overflow="visible" font-family="Sans" fill="#000000"/></svg>
