<?xml version="1.0" encoding="utf-8"?>
<svg xmlns="http://www.w3.org/2000/svg" viewBox="0 0 32 32" fill="#000000"><path style="text-indent:0;text-align:start;line-height:normal;text-transform:none;block-progression:tb;-inkscape-font-specification:Sans" d="M 25.65625 2.09375 L 24.9375 2.78125 L 23.0625 4.65625 L 22.71875 5 L 19 5 L 18.625 5 L 18.375 5.21875 L 4.28125 16.875 L 4.25 16.90625 L 4.21875 16.9375 L 2.78125 18.34375 L 2.09375 19.0625 L 2.78125 19.78125 L 12.21875 29.21875 L 12.9375 29.90625 L 13.65625 29.21875 L 15.0625 27.78125 L 15.09375 27.75 L 15.125 27.71875 L 26.78125 13.625 L 27 13.375 L 27 13 L 27 9.28125 L 27.34375 8.9375 L 29.21875 7.0625 L 29.90625 6.34375 L 29.21875 5.625 L 26.375 2.78125 L 25.65625 2.09375 z M 25.65625 4.90625 L 27.09375 6.34375 L 26.625 6.8125 L 25.1875 5.375 L 25.65625 4.90625 z M 21.4375 7 L 23.96875 7 L 25 8.03125 L 25 10.5625 L 21.4375 7 z M 18.9375 7.375 L 24.625 13.0625 L 14.28125 25.625 L 13.9375 25.28125 L 12.5625 26.6875 L 11.84375 26 L 13.25 24.59375 L 11.84375 23.1875 L 10.4375 24.5625 L 9.75 23.875 L 11.125 22.46875 L 9.71875 21.0625 L 8.3125 22.46875 L 7.625 21.75 L 9.03125 20.375 L 7.59375 18.96875 L 6.21875 20.34375 L 5.5 19.65625 L 6.90625 18.25 L 6.375 17.71875 L 18.9375 7.375 z M 15.96875 13 C 15.52375 13 15.08175 13.1965 14.71875 13.5625 C 14.17575 14.1045 14.27 14.802 13.875 15.5 C 13.423 16.296 12.726 17.13225 13.125 17.53125 C 13.221 17.62825 13.3245 17.6875 13.4375 17.6875 C 13.5765 17.6875 13.725 17.5875 13.875 17.4375 C 14.253 17.0595 14.8145 16.6505 15.3125 16.3125 C 15.3615 16.2795 15.42075 16.28125 15.46875 16.28125 C 15.65875 16.28125 15.8165 16.4975 15.6875 16.6875 C 15.3495 17.1855 14.9405 17.746 14.5625 18.125 C 14.2895 18.398 14.25375 18.66 14.46875 18.875 C 14.54975 18.957 14.66625 19 14.78125 19 C 15.22825 19 15.89825 18.484 16.53125 18.125 C 17.22825 17.73 17.8945 17.82325 18.4375 17.28125 C 19.1865 16.53125 19.213 15.49425 18.375 14.65625 C 18.183 14.46425 17.97725 14.31475 17.78125 14.21875 C 17.68525 14.02275 17.53475 13.816 17.34375 13.625 C 16.91375 13.194 16.43675 13 15.96875 13 z" fill="#000000"/></svg>
