<?xml version="1.0" encoding="utf-8"?>
<svg xmlns="http://www.w3.org/2000/svg" viewBox="0 0 32 32" fill="#000000"><path style="text-indent:0;text-align:start;line-height:normal;text-transform:none;block-progression:tb;-inkscape-font-specification:Bitstream Vera Sans" d="M 13 5 C 13 7.7677886 13.407155 9.5363652 14.0625 10.75 C 14.355681 11.292942 14.708905 11.707692 15.0625 12.03125 C 15.022171 12.498328 15 12.98201 15 13.5 C 15 15.349888 14.93252 16.931813 14.65625 17.875 C 14.518117 18.346594 14.347991 18.632867 14.1875 18.78125 C 14.027009 18.929633 13.877981 19 13.5 19 C 13.014126 19 12.367611 18.808739 11.6875 18.5625 C 11.007389 18.316261 10.302355 18 9.4375 18 C 8.3746586 18 7.4311542 18.409433 6.78125 19.0625 C 6.1313458 19.715567 5.7485915 20.551359 5.5 21.4375 C 5.002817 23.209783 5 25.274458 5 27 L 7 27 C 7 25.291542 7.054933 23.332467 7.4375 21.96875 C 7.6287835 21.286891 7.8806855 20.777058 8.1875 20.46875 C 8.4943145 20.160442 8.8288414 20 9.4375 20 C 9.7226449 20 10.299111 20.183739 11 20.4375 C 11.700889 20.691261 12.549874 21 13.5 21 C 14.277519 21 15.00371 20.737742 15.53125 20.25 C 16.05879 19.762258 16.361008 19.125406 16.5625 18.4375 C 16.965484 17.061687 17 15.386112 17 13.5 C 17 12.631361 17.071614 11.880679 17.1875 11.21875 L 17.21875 11.125 C 17.210552 11.120603 17.195645 11.129381 17.1875 11.125 C 17.428094 9.82087 17.874957 8.8982434 18.375 8.28125 C 19.13697 7.3410696 20.059489 7 21.0625 7 C 22.33249 7 23.496271 7.7465873 24.4375 9.3125 C 25.378729 10.878413 26 13.22581 26 16 C 26 19.812104 24.655958 21.942595 23 23.25 C 21.344042 24.557405 19.257275 25 17.9375 25 C 16.595267 25 15.410488 24.377884 14.28125 23.65625 C 13.152012 22.934616 12.21325 22 10.78125 22 C 10.137653 22 9.5306282 22.279289 9.125 22.6875 C 8.7193718 23.095711 8.4654015 23.569272 8.3125 24.0625 C 8.006697 25.048956 8 26.129391 8 27 L 10 27 C 10 26.199609 10.0653 25.252044 10.25 24.65625 C 10.34235 24.358353 10.451066 24.174445 10.53125 24.09375 C 10.61143 24.01306 10.61985 24 10.78125 24 C 11.00625 24 12.000738 24.565384 13.21875 25.34375 C 14.436762 26.122116 15.987733 27 17.9375 27 C 19.668725 27 22.143208 26.507095 24.25 24.84375 C 26.356792 23.180405 28 20.304896 28 16 C 28 12.93219 27.342521 10.254837 26.15625 8.28125 C 24.969979 6.3076627 23.15651 5 21.0625 5 C 19.554511 5 17.95428 5.6224304 16.8125 7.03125 C 16.309535 7.651849 15.896831 8.4076758 15.59375 9.3125 C 15.255934 8.4660135 15 7.1462695 15 5 L 13 5 z" overflow="visible" font-family="Bitstream Vera Sans" fill="#000000"/></svg>
