<?xml version="1.0" encoding="utf-8"?>
<svg xmlns="http://www.w3.org/2000/svg" viewBox="0 0 32 32" fill="#000000"><path style="text-indent:0;text-align:start;line-height:normal;text-transform:none;block-progression:tb;-inkscape-font-specification:Sans" d="M 9 3 L 9 5 L 6 5 L 5 5 L 5 6 L 5 28 L 5 29 L 6 29 L 20 29 L 21 29 L 21 28 L 21 25 L 26 25 L 27 25 L 27 24 L 27 10 L 27 9 L 26 9 L 21 9 L 21 6 L 21 5 L 20 5 L 17 5 L 17 3 L 9 3 z M 7 7 L 19 7 L 19 9 L 12 9 L 11 9 L 11 10 L 11 24 L 11 25 L 12 25 L 19 25 L 19 27 L 7 27 L 7 7 z M 13 11 L 25 11 L 25 13 L 24 13 L 24 15 L 25 15 L 25 19 L 24 19 L 24 21 L 25 21 L 25 23 L 13 23 L 13 21 L 14 21 L 14 19 L 13 19 L 13 15 L 14 15 L 14 13 L 13 13 L 13 11 z M 16 13 L 16 15 L 18 15 L 18 13 L 16 13 z M 20 13 L 20 15 L 22 15 L 22 13 L 20 13 z M 16 19 L 16 21 L 18 21 L 18 19 L 16 19 z M 20 19 L 20 21 L 22 21 L 22 19 L 20 19 z" fill="#000000"/></svg>
