<?xml version="1.0" encoding="utf-8"?>
<svg xmlns="http://www.w3.org/2000/svg" viewBox="0 0 32 32" fill="#000000"><path style="line-height:normal;text-indent:0;text-align:start;text-decoration-line:none;text-decoration-style:solid;text-decoration-color:#000;text-transform:none;block-progression:tb;isolation:auto;mix-blend-mode:normal" d="M 11 3 L 11 6 L 11.667969 6 C 12.473693 6.4666095 13 7.2971944 13 8.2363281 L 13 11.625 C 11.556602 12.760346 10.292588 14.444762 10.050781 16.353516 C 9.1298083 16.708983 8.5670845 17.234247 8.3496094 17.451172 C 8.0502796 17.533691 6.9779395 17.85296 5.7753906 18.828125 C 4.3938676 19.948422 3 21.952672 3 25 L 3 25.042969 L 3.0039062 25.085938 C 3.0705672 25.853192 3.3659531 26.555563 3.8027344 27.154297 L 3.828125 27.1875 L 4.1015625 27.564453 L 4.3261719 27.564453 C 5.1038474 28.252943 6.090832 28.679081 7.3027344 28.845703 C 8.7540814 29.045248 10.533963 29.030907 12.810547 29 L 13.369141 29 C 15.004921 29 16.606 28.98691 18.005859 28.751953 C 19.353604 28.525747 20.612502 28.0765 21.349609 27 L 23.609375 27 L 23.888672 26.458984 C 23.888672 26.458984 24.659043 24.966771 25.427734 23.068359 C 26.196426 21.169948 27 18.905268 27 17 C 27 16.781427 26.971339 16.566649 26.945312 16.351562 C 27.163693 15.96862 29 12.654458 29 9 C 29 8.345439 28.937046 7.4816887 28.542969 6.6464844 C 28.148891 5.8112801 27.216918 5 26 5 C 25.266061 5 24.592854 5.2071509 24 5.5429688 L 24 3 L 11 3 z M 13.425781 5 L 22 5 L 22 11 L 15 11 L 15 8.2363281 C 15 6.9483454 14.335165 5.8597557 13.425781 5 z M 26 7 C 26.488082 7 26.554703 7.1192043 26.734375 7.5 C 26.914047 7.8807957 27 8.518561 27 9 C 27 10.677857 26.467089 12.388132 25.966797 13.652344 C 25.436662 12.806965 24.743822 12.075639 24 11.5 L 24 8.2871094 C 24.442391 7.5325304 25.191983 7 26 7 z M 14.337891 13 L 22.662109 13 C 23.843448 13.906055 25 15.724499 25 17 C 25 18.276732 24.303574 20.512271 23.572266 22.318359 C 22.963799 23.821069 22.544502 24.627895 22.357422 25 L 21.992188 25 C 21.993814 24.948383 22 24.894415 22 24.84375 C 22 23.325599 21.526138 21.443116 20.318359 19.845703 C 19.191736 18.355627 17.293357 17.264077 14.8125 17.111328 C 14.672833 16.985466 14.463158 16.816902 14.214844 16.648438 C 14.1462 16.588662 14.085129 16.524118 14.009766 16.46875 L 13.984375 16.503906 C 13.551491 16.255311 12.977532 16.043095 12.189453 16.011719 C 12.560083 14.902583 13.437941 13.690237 14.337891 13 z M 12 18 C 12.422419 18 12.649391 18.030828 12.824219 18.080078 C 12.824435 18.080139 12.824003 18.08197 12.824219 18.082031 C 13.112989 18.295784 13.630265 19.527446 13.814453 20.724609 C 13.998814 21.922896 14 23 14 23 L 16 23 C 16 23 16.0024 21.795838 15.791016 20.421875 C 15.725932 19.998854 15.642209 19.55341 15.537109 19.109375 C 17.020221 19.371851 18.011699 20.11242 18.722656 21.052734 C 19.611877 22.228821 20 23.767901 20 24.84375 C 20 25.255356 19.91852 25.578894 19.771484 25.791016 L 19.755859 25.8125 L 19.742188 25.833984 C 19.498673 26.228244 18.829969 26.587203 17.673828 26.78125 C 16.517691 26.975305 14.98936 27 13.369141 27 L 12.802734 27 L 12.796875 27 C 10.521595 27.03094 8.7867676 27.03195 7.5742188 26.865234 C 6.3702441 26.699696 5.7819766 26.409477 5.4082031 25.947266 C 5.1573054 25.597302 5.0480132 25.325311 5.0097656 24.951172 C 5.0263896 22.524824 6.0201963 21.203905 7.0351562 20.380859 C 7.5118062 19.994337 7.9702401 19.746716 8.3339844 19.582031 C 8.5509489 20.072639 8.7293758 20.656406 8.828125 21.21875 C 8.9993355 22.193737 9 23 9 23 L 11 23 C 11 23 11.000664 22.03356 10.796875 20.873047 C 10.669945 20.150221 10.484789 19.326592 10.111328 18.564453 C 10.526771 18.292515 11.153739 18 12 18 z" font-weight="400" font-family="sans-serif" white-space="normal" overflow="visible" fill="#000000"/></svg>
