<?xml version="1.0" encoding="utf-8"?>
<svg xmlns="http://www.w3.org/2000/svg" viewBox="0 0 32 32" fill="#000000"><path style="text-indent:0;text-align:start;line-height:normal;text-transform:none;block-progression:tb;-inkscape-font-specification:Sans" d="M 23 3 C 21.462264 3 19.916816 3.5825864 18.75 4.75 L 4.75 18.75 C 3.5823053 19.917097 2.9999633 21.458661 3 23 C 3.0000367 24.541339 3.5824521 26.082452 4.75 27.25 C 5.9167269 28.417924 7.4666346 29 9 29 C 10.533365 29 12.083273 28.417924 13.25 27.25 L 27.25 13.25 C 29.58539 10.915806 29.585096 7.0850959 27.25 4.75 C 26.083184 3.5825864 24.537736 3 23 3 z M 23 5 C 23.557326 5 24.110344 5.1386968 24.625 5.375 L 23 7 L 25 9 L 26.625 7.375 C 27.087095 8.4030614 27.079674 9.5948433 26.625 10.625 L 25 9 L 23 11 L 24.8125 12.8125 L 22.8125 14.8125 L 21 13 L 19 15 L 20.8125 16.8125 L 18.8125 18.8125 L 17 17 L 15 19 L 16.8125 20.8125 L 14.8125 22.8125 L 13 21 L 11 23 L 12.8125 24.8125 L 11.8125 25.84375 C 11.462646 26.193962 11.076475 26.466848 10.65625 26.65625 L 9 25 L 7.34375 26.65625 C 6.9235248 26.466848 6.5373537 26.193962 6.1875 25.84375 C 5.8229152 25.479165 5.5703342 25.067717 5.375 24.625 L 7 23 L 5.375 21.375 C 5.5697852 20.94179 5.829861 20.544956 6.1875 20.1875 L 7.1875 19.1875 L 9 21 L 11 19 L 9.1875 17.1875 L 11.1875 15.1875 L 13 17 L 15 15 L 13.1875 13.1875 L 15.1875 11.1875 L 17 13 L 19 11 L 17.1875 9.1875 L 19.1875 7.1875 L 21 9 L 23 7 L 21.375 5.375 C 21.889656 5.1386968 22.442674 5 23 5 z M 21 9 L 19 11 L 21 13 L 23 11 L 21 9 z M 17 13 L 15 15 L 17 17 L 19 15 L 17 13 z M 13 17 L 11 19 L 13 21 L 15 19 L 13 17 z M 9 21 L 7 23 L 9 25 L 11 23 L 9 21 z" fill="#000000"/></svg>
