<?xml version="1.0" encoding="utf-8"?>
<svg xmlns="http://www.w3.org/2000/svg" viewBox="0 0 32 32" fill="#000000"><path style="text-indent:0;text-align:start;line-height:normal;text-transform:none;block-progression:tb;-inkscape-font-specification:Bitstream Vera Sans" d="M 22.5 4 C 21.079373 4 19.950605 4.9297334 19.40625 6.15625 C 16.82104 8.422298 13.832395 10.683402 11.4375 11.28125 C 11.049367 11.155092 10.656434 11 10.1875 11 C 8.8538779 11 7.7457452 11.528587 7.03125 12.3125 C 6.4226874 12.980188 6.1464744 13.797389 6.0625 14.625 C 5.8369493 14.816814 5.5875595 15.00064 5.15625 15.6875 C 4.5678703 16.624495 4 18.047928 4 20 C 4 24.408199 7.6350832 28 12 28 C 16.390005 28 18.920293 23.663374 19.15625 23.25 C 19.890323 22.673865 21.009558 22.282266 22.1875 21.9375 C 23.390324 21.585451 24.617723 21.293098 25.65625 20.6875 C 27.166559 19.79011 28 18.075295 28 16.46875 C 28 15.474688 27.59375 14.625 27.59375 14.625 L 27.34375 14 L 26.65625 14 C 26.269606 14 25.904758 14.066553 25.5625 14.15625 L 24.09375 13.1875 L 24.0625 14.84375 C 23.773067 15.028759 23.487999 15.212093 23.25 15.40625 C 22.837145 15.743053 22.495745 16.063911 22.21875 16.3125 C 21.941755 16.561089 21.719935 16.731398 21.75 16.71875 C 20.074057 17.406027 19.218106 17.41851 17.46875 17.75 L 17.4375 17.75 C 15.824187 18.082261 15.124889 18.437818 14.4375 18.71875 C 14.849944 18.226411 15.130948 17.88261 15.53125 17.75 C 17.031288 17.252597 18.056919 16.73946 18.84375 16.03125 L 20.28125 16.5625 L 19.90625 14.5625 C 20.023389 14.336287 20.142454 14.111484 20.25 13.875 C 20.350325 13.849409 20.533416 13.771567 20.6875 13.71875 L 22.65625 14.46875 L 22.34375 12.8125 C 22.737082 12.491777 23.098235 12.063828 23.46875 11.53125 L 25.53125 12.15625 L 24.875 9.9375 C 25.548298 9.3236651 26 8.480551 26 7.5 C 26 5.5788117 24.421188 4 22.5 4 z M 22.5 6 C 23.340812 6 24 6.6591883 24 7.5 C 24 8.1613637 23.579844 8.6992057 23 8.90625 L 22.59375 9.0625 L 22.40625 9.46875 C 21.411941 11.85088 19.4375 12.09375 19.4375 12.09375 L 18.875 12.1875 L 18.65625 12.71875 C 18.287801 13.607669 18.015419 14.09546 17.53125 14.53125 C 17.047081 14.96704 16.280212 15.388153 14.90625 15.84375 C 13.867105 16.187993 13.272869 16.954617 12.84375 17.46875 C 12.414631 17.982883 12.189694 18.246868 11.78125 18.34375 L 11 18.5 L 11 19.3125 L 11 19.65625 L 11 20.15625 L 11.40625 20.46875 C 11.874803 20.808593 12.347902 21.03977 12.875 21.09375 C 13.402098 21.14773 13.869046 20.99818 14.28125 20.84375 C 15.105658 20.534882 15.974334 20.103756 17.84375 19.71875 C 19.482394 19.40824 20.605943 19.339223 22.5 18.5625 C 22.965065 18.366852 23.25137 18.091724 23.5625 17.8125 C 23.87363 17.533276 24.193605 17.244197 24.53125 16.96875 C 24.988174 16.595996 25.477198 16.470721 25.96875 16.3125 C 25.97785 16.37241 26 16.425032 26 16.46875 C 26 17.236205 25.343941 18.56014 24.65625 18.96875 C 24.046777 19.324152 22.886426 19.630799 21.625 20 C 20.363574 20.369201 18.973742 20.831692 17.84375 21.75 L 17.6875 21.84375 L 17.59375 22 C 17.59375 22 15.032282 26 12 26 C 8.7329168 26 6 23.307801 6 20 C 6 18.426072 6.4321297 17.405505 6.84375 16.75 C 7.2553703 16.094495 7.59375 15.875 7.59375 15.875 L 8 15.5625 L 8 15.0625 C 8 14.555486 8.1907452 14.029837 8.53125 13.65625 C 8.8717548 13.282663 9.3351221 13 10.1875 13 C 11.572184 13 12.53125 14.53125 12.53125 14.53125 L 14.28125 13.5625 C 14.28125 13.5625 13.884915 13.085839 13.5625 12.6875 C 16.112488 11.588224 18.58333 9.5554296 20.75 7.65625 L 20.96875 7.46875 L 21.0625 7.15625 C 21.221258 6.4959631 21.783539 6 22.5 6 z M 10 14 C 9.4477153 14 9 14.447715 9 15 C 9 15.552285 9.4477153 16 10 16 C 10.552285 16 11 15.552285 11 15 C 11 14.447715 10.552285 14 10 14 z" overflow="visible" font-family="Bitstream Vera Sans" fill="#000000"/></svg>
