<?xml version="1.0" encoding="utf-8"?>
<svg xmlns="http://www.w3.org/2000/svg" viewBox="0 0 32 32" fill="#000000"><path style="line-height:normal;text-indent:0;text-align:start;text-decoration-line:none;text-decoration-style:solid;text-decoration-color:#000;text-transform:none;block-progression:tb;isolation:auto;mix-blend-mode:normal" d="M 6 2 L 6 30 L 16.865234 30 L 16.865234 28 L 8 28 L 8 4 L 23.080078 4 L 23.080078 17.162109 L 25.080078 17.162109 L 25.080078 2 L 6 2 z M 13 6 L 13 12.041016 C 11.82706 12.958391 11 14.338814 11 16 L 11 26 L 18.082031 26 L 18.082031 24 L 13 24 L 13 16 C 13 14.750587 13.650088 13.72915 14.478516 13.277344 L 15 12.994141 L 15 8 L 16 8 L 16 12.994141 L 16.521484 13.277344 C 17.349912 13.72915 18 14.750587 18 16 L 18 19 L 20 19 L 20 16 C 20 14.338814 19.17294 12.958391 18 12.041016 L 18 6 L 13 6 z M 24 18.001953 C 23.601867 18.001977 23.204059 18.122109 22.867188 18.365234 L 22.261719 18.802734 L 21.525391 18.921875 L 21.523438 18.921875 C 20.705133 19.055183 20.053713 19.705414 19.921875 20.527344 L 19.802734 21.261719 L 19.365234 21.867188 C 18.878984 22.540931 18.880489 23.459098 19.365234 24.132812 L 19.802734 24.740234 L 19.921875 25.476562 C 19.988481 25.885417 20.183251 26.253053 20.464844 26.535156 L 18 29 L 20 29 L 20 31 L 23.199219 27.800781 C 23.711186 28.035194 24.288828 28.03496 24.800781 27.800781 L 28 31 L 28 29 L 30 29 L 27.535156 26.535156 C 27.817259 26.254052 28.013828 25.887102 28.080078 25.476562 L 28.080078 25.474609 L 28.199219 24.740234 L 28.634766 24.134766 C 29.121016 23.461021 29.119511 22.540902 28.634766 21.867188 L 28.199219 21.261719 L 28.078125 20.525391 L 28.078125 20.523438 C 27.944961 19.705823 27.297641 19.054376 26.476562 18.921875 L 25.740234 18.802734 L 25.132812 18.365234 C 24.795955 18.122862 24.398133 18.001929 24 18.001953 z M 24 20.013672 L 24.953125 20.701172 L 26.113281 20.888672 L 26.298828 22.048828 L 26.986328 23 L 26.298828 23.953125 L 26.113281 25.113281 L 24.953125 25.298828 L 24 25.988281 L 23.048828 25.298828 L 21.888672 25.113281 L 21.701172 23.953125 L 21.013672 23 L 21.701172 22.048828 L 21.888672 20.888672 L 23.048828 20.701172 L 24 20.013672 z" font-weight="400" font-family="sans-serif" white-space="normal" overflow="visible" fill="#000000"/></svg>
