<?xml version="1.0" encoding="utf-8"?>
<svg xmlns="http://www.w3.org/2000/svg" viewBox="0 0 32 32" fill="#000000"><path style="text-indent:0;text-align:start;line-height:normal;text-transform:none;block-progression:tb;-inkscape-font-specification:Bitstream Vera Sans" d="M 16 3 C 13.802706 3 12 4.8027056 12 7 C 12 9.1972944 13.802706 11 16 11 C 18.197294 11 20 9.1972944 20 7 C 20 4.8027056 18.197294 3 16 3 z M 16 5 C 17.116414 5 18 5.883586 18 7 C 18 8.116414 17.116414 9 16 9 C 14.883586 9 14 8.116414 14 7 C 14 5.883586 14.883586 5 16 5 z M 14.0625 12 C 12.448519 12 10.938032 12.781004 10 14.09375 L 9.96875 14.09375 L 9.96875 14.125 L 7.375 18.03125 L 7.375 18.0625 C 6.9402635 18.693922 6.9308471 19.517062 7.28125 20.09375 C 7.6363806 20.678219 8.3839407 21.079519 9.15625 20.96875 L 11 20.71875 L 11 21.3125 L 7.75 22.625 C 6.686 23.052 6 24.07275 6 25.21875 C 6 26.75675 7.24325 28 8.78125 28 L 15 28 L 16.5 28 L 23.21875 28 C 24.75675 28 26 26.75675 26 25.21875 C 26 24.07275 25.315 23.053 24.25 22.625 L 21 21.3125 L 21 20.71875 L 22.84375 20.96875 C 23.616059 21.079519 24.363619 20.678219 24.71875 20.09375 C 25.069153 19.517062 25.059736 18.693922 24.625 18.0625 L 24.625 18.03125 L 22.03125 14.125 L 22.03125 14.09375 L 22 14.09375 C 21.062575 12.780105 19.550731 12 17.9375 12 L 14.0625 12 z M 14.0625 14 L 17.9375 14 C 18.906269 14 19.812425 14.461645 20.375 15.25 L 22.84375 18.96875 L 18.53125 18.34375 L 16.78125 16.15625 L 16 15.21875 L 15.21875 16.15625 L 13.46875 18.34375 L 9.15625 18.96875 L 11.625 15.25 C 12.188968 14.460746 13.092481 14 14.0625 14 z M 16 18.40625 L 17.21875 19.90625 L 17.46875 20.21875 L 17.84375 20.25 L 19 20.40625 L 19 22.6875 L 23.5 24.46875 C 23.802 24.58975 24 24.89475 24 25.21875 C 24 25.65375 23.65375 26 23.21875 26 L 18.9375 26 C 18.970846 25.837441 19 25.67225 19 25.5 C 19 24.122 17.879 23 16.5 23 L 11 25 L 16.5 25 C 16.775 25 17 25.224 17 25.5 C 17 25.776 16.775 26 16.5 26 L 15 26 L 8.78125 26 C 8.34625 26 8 25.65375 8 25.21875 C 8 24.89475 8.199 24.58875 8.5 24.46875 L 13 22.6875 L 13 20.40625 L 14.15625 20.25 L 14.53125 20.21875 L 14.78125 19.90625 L 16 18.40625 z" overflow="visible" font-family="Bitstream Vera Sans" fill="#000000"/></svg>
