<?xml version="1.0" encoding="utf-8"?>
<svg xmlns="http://www.w3.org/2000/svg" viewBox="0 0 32 32" fill="#000000"><path style="text-indent:0;text-align:start;line-height:normal;text-transform:none;block-progression:tb;-inkscape-font-specification:Bitstream Vera Sans" d="M 21 4 C 19.20649 4 17.425087 4.6999132 16.0625 6.0625 L 17.46875 7.46875 C 19.429576 5.5079237 22.570424 5.5079237 24.53125 7.46875 C 26.492076 9.4295763 26.492076 12.570424 24.53125 14.53125 L 25.9375 15.9375 C 28.662674 13.212326 28.662674 8.7876737 25.9375 6.0625 C 24.574913 4.6999132 22.79351 4 21 4 z M 14.9375 7 L 14.21875 7.71875 L 5.15625 16.75 C 3.6023399 18.30391 3.6023399 20.85234 5.15625 22.40625 L 9.59375 26.8125 C 11.14766 28.36641 13.69609 28.36641 15.25 26.8125 L 24.28125 17.78125 L 25 17.0625 L 24.28125 16.375 L 15.625 7.71875 L 14.9375 7 z M 21 8 C 20.230215 8 19.456537 8.2934635 18.875 8.875 L 20.28125 10.28125 C 20.680177 9.8823231 21.319823 9.8823231 21.71875 10.28125 L 21.75 10.34375 C 22.096595 10.742534 22.099693 11.337807 21.71875 11.71875 L 23.125 13.125 C 24.288073 11.961927 24.288073 10.038073 23.125 8.875 C 22.543463 8.2934635 21.769785 8 21 8 z M 14.9375 9.84375 L 22.15625 17.0625 L 13.8125 25.40625 C 13.02241 26.19634 11.79009 26.19634 11 25.40625 L 6.59375 21 C 5.8036601 20.20991 5.8036601 18.97759 6.59375 18.1875 L 14.9375 9.84375 z M 16 14 C 14.895431 14 14 14.895431 14 16 C 14 17.104569 14.895431 18 16 18 C 17.104569 18 18 17.104569 18 16 C 18 14.895431 17.104569 14 16 14 z M 11 17 C 10.447715 17 10 17.447715 10 18 C 10 18.552285 10.447715 19 11 19 C 11.552285 19 12 18.552285 12 18 C 12 17.447715 11.552285 17 11 17 z M 14 20 C 13.447715 20 13 20.447715 13 21 C 13 21.552285 13.447715 22 14 22 C 14.552285 22 15 21.552285 15 21 C 15 20.447715 14.552285 20 14 20 z" overflow="visible" font-family="Bitstream Vera Sans" fill="#000000"/></svg>
