<?xml version="1.0" encoding="utf-8"?>
<svg xmlns="http://www.w3.org/2000/svg" viewBox="0 0 32 32" fill="#000000"><path style="text-indent:0;text-align:start;line-height:normal;text-transform:none;block-progression:tb;-inkscape-font-specification:Sans" d="M 21.21875 5.0625 C 20.985668 5.0595655 20.743932 5.1009436 20.5 5.1875 C 20.01489 5.3595801 19.598267 5.7187615 19.375 6.09375 C 19.151733 6.4687385 19.085119 6.8380751 19.0625 7.15625 C 19.03686 7.5169248 19.084126 7.6020824 19.125 7.8125 C 18.963424 8.2479444 18.17789 9.1672891 17.28125 9.53125 C 16.573325 9.8189872 15.336506 10 12.59375 10 C 10.593871 10 7.9579103 10.67298 5.78125 12.75 C 3.6045897 14.82702 2 18.272313 2 23.5625 L 2 24 L 2.3125 24.28125 C 2.3125 24.28125 3.3646455 25.274194 5.3125 26.1875 C 7.2603545 27.100806 10.170175 28 14 28 C 18.520445 28 21.536951 26.679049 23.40625 25 C 25.275549 23.320951 26 21.395093 26 20 C 26 19.243 25.83975 18.56175 25.59375 17.96875 C 25.49075 18.02675 25.371 18.08525 25.25 18.15625 C 24.833 18.39225 24.38925 18.77775 23.90625 19.21875 C 23.96825 19.46275 24 19.73 24 20 C 24 20.619907 23.560201 22.182799 22.09375 23.5 C 20.627299 24.817201 18.136555 26 14 26 C 10.481825 26 7.8713955 25.179194 6.15625 24.375 C 4.6816456 23.68359 4.2196403 23.22876 4.03125 23.0625 C 4.133885 18.505153 5.4833426 15.783827 7.15625 14.1875 C 8.8953397 12.52802 11.040629 12 12.59375 12 C 14.088798 12 15.937993 12.667792 17.625 13.40625 C 19.312007 14.144708 20.732817 15 22.21875 15 C 23.100942 15 23.915836 14.71405 24.625 14.34375 C 25.334164 13.97345 25.926231 13.543071 26.34375 13 L 26.53125 12.71875 L 26.5625 12.40625 C 26.5625 12.40625 26.57392 12.236405 26.625 12.125 C 26.67608 12.013595 26.52951 12.03125 26.75 12.03125 C 26.919878 12.03125 26.93534 12.06078 26.9375 12.0625 C 26.9397 12.0642 26.9439 12.08565 26.96875 12.15625 C 27.01841 12.297457 27.03125 12.53125 27.03125 12.53125 L 26.9375 13.25 L 27.625 13.53125 C 27.625 13.53125 28 13.741259 28 13.96875 C 27.964988 13.985832 27.89772 14 27.75 14 C 27.490953 14 27.091744 13.853421 26.375 13.9375 C 25.658256 14.021579 24.851349 14.325765 23.5 15.125 C 22.024016 15.962833 20.991326 17.254295 19.75 18.25 C 18.508674 19.245705 17.153731 20 15 20 C 13.067923 20 11.78125 17.96875 11.78125 17.96875 L 10.90625 18.46875 L 10.0625 19 C 10.0625 19 11.766077 22 15 22 C 17.651269 22 19.565326 20.963295 21 19.8125 C 22.434674 18.661705 23.484984 17.451167 24.5 16.875 C 25.740651 16.141235 26.346494 15.938921 26.625 15.90625 C 26.903506 15.873579 27.100047 16 27.75 16 C 29.045942 16 30 15.006771 30 13.96875 C 30 12.868287 29.406571 12.337284 28.9375 12.03125 C 28.92234 11.818993 28.97414 11.78193 28.875 11.5 C 28.761453 11.177104 28.555183 10.793401 28.1875 10.5 C 27.819817 10.206599 27.289622 10.03125 26.75 10.03125 C 25.78049 10.03125 25.067922 10.724155 24.8125 11.28125 C 24.688257 11.552234 24.71862 11.615933 24.6875 11.8125 C 24.523641 12.007154 24.153891 12.318967 23.6875 12.5625 C 23.195414 12.81945 22.649558 13 22.21875 13 C 21.946049 13 21.193309 12.754409 20.3125 12.40625 C 20.472567 12.111534 20.61499 11.835455 20.78125 11.625 C 21.954965 10.138919 22.170819 10.92171 23.59375 10.34375 C 24.793114 9.8549525 25.329613 8.5874603 24.9375 7.625 C 24.508027 6.568496 23.697443 6.3444665 23.15625 6.25 C 23.05246 6.0669636 23.089204 6.002665 22.875 5.78125 C 22.53601 5.4308478 21.917996 5.0713035 21.21875 5.0625 z M 21.34375 7.03125 C 21.368996 7.0485909 21.373869 7.0904765 21.4375 7.15625 C 21.564763 7.2877971 21.65625 7.46875 21.65625 7.46875 L 21.90625 8.09375 L 22.5625 8.125 C 22.5625 8.125 22.977159 8.165061 23.0625 8.375 C 23.040428 8.4044237 22.990239 8.4402992 22.84375 8.5 C 22.65676 8.575951 21.679389 8.512244 20.5625 9.1875 C 20.744009 8.8853365 21.001336 8.6165823 21.09375 8.28125 L 21.1875 8 L 21.09375 7.75 C 21.09375 7.75 21.04774 7.4889002 21.0625 7.28125 C 21.0699 7.1774249 21.08414 7.1098865 21.09375 7.09375 C 21.10335 7.077614 21.08036 7.08942 21.15625 7.0625 C 21.272886 7.021113 21.318504 7.0139091 21.34375 7.03125 z M 19 10.78125 C 18.813604 11.060051 18.63051 11.334373 18.46875 11.625 C 18.44526 11.614741 18.429788 11.604053 18.40625 11.59375 C 18.26414 11.531544 18.114404 11.468907 17.96875 11.40625 C 17.998267 11.39483 18.033434 11.386814 18.0625 11.375 C 18.423681 11.228391 18.682898 10.983878 19 10.78125 z" overflow="visible" font-family="Sans" fill="#000000"/></svg>
