<?xml version="1.0" encoding="utf-8"?>
<svg xmlns="http://www.w3.org/2000/svg" viewBox="0 0 32 32" fill="#000000"><path d="M 10.5 6 L 11.0625 7.375 C 11.415499 8.2291598 11.888909 10.367248 11.78125 11.375 C 10.418978 12.215032 9.5818429 13.035144 8.9375 13.71875 C 8.1489579 13.080958 6.5905717 12 4 12 L 3 12 L 3 13 C 3 14.915597 3.6916585 16.469264 3.9375 17 C 3.6867999 17.526341 3 19.026831 3 21 L 3 22 L 4 22 C 6.5687629 22 8.1466187 20.914714 8.9375 20.28125 C 10.121926 21.500456 11.807177 22.784751 13.9375 23.75 C 13.84203 24.369334 13.768153 25.236621 14.03125 26.25 L 14.21875 27 L 15 27 C 16.235772 27 17.298292 26.386418 18.15625 25.84375 C 18.858127 25.399805 19.198053 25.084779 19.375 24.9375 C 23.350213 24.796211 25.889983 22.651721 27.25 20.53125 C 28.656081 18.338959 29 16.15625 29 16.15625 L 29.03125 15.90625 L 28.9375 15.65625 C 28.9375 15.65625 26.649112 9.3677219 20.4375 9.0625 C 19.776134 8.2633206 18.856033 7.5972941 17.5625 7.0625 C 16.03545 6.4311616 14.112002 6 12 6 L 10.5 6 z M 13.40625 8.125 C 14.667775 8.2643052 15.848937 8.5207977 16.78125 8.90625 C 18.05995 9.4349116 18.947977 10.189983 19.15625 10.53125 L 19.4375 11 L 20 11 C 24.995469 11 26.791894 15.729039 26.9375 16.125 C 26.86606 16.493904 26.577939 17.885528 25.5625 19.46875 C 24.403081 21.276459 22.52438 23 19 23 L 18.625 23 L 18.34375 23.25 C 18.34375 23.25 17.816792 23.698918 17.09375 24.15625 C 16.716432 24.394908 16.391199 24.438192 16 24.59375 C 16.03846 24.135849 16 23.46875 16 23.46875 L 16.21875 22.59375 L 15.40625 22.3125 C 12.929629 21.366915 10.825131 19.587297 9.75 18.34375 L 9.0625 17.53125 L 8.3125 18.28125 C 8.3125 18.28125 6.9799559 19.21439 5.25 19.65625 C 5.5089854 18.484433 5.90625 17.4375 5.90625 17.4375 L 6.125 17 L 5.90625 16.5625 C 5.90625 16.5625 5.4720433 15.412754 5.21875 14.1875 C 7.0637697 14.593712 8.3125 15.71875 8.3125 15.71875 L 9.0625 16.46875 L 9.75 15.65625 C 10.644039 14.645054 13.055222 12.125656 16.59375 11.65625 L 16.3125 9.6875 C 15.356225 9.8143553 14.520087 10.091115 13.71875 10.40625 C 13.66773 9.5647349 13.62689 8.845464 13.40625 8.125 z M 22.5 15 C 21.671573 15 21 15.671573 21 16.5 C 21 17.328427 21.671573 18 22.5 18 C 23.328427 18 24 17.328427 24 16.5 C 24 15.671573 23.328427 15 22.5 15 z" fill="#000000"/></svg>
