<?xml version="1.0" encoding="utf-8"?>
<svg xmlns="http://www.w3.org/2000/svg" viewBox="0 0 32 32" fill="#000000"><path style="text-indent:0;text-align:start;line-height:normal;text-transform:none;block-progression:tb;-inkscape-font-specification:Sans" d="M 16 2 C 13.802706 2 12 3.8027056 12 6 C 12 7.0674862 12.435511 8.0302336 13.125 8.75 C 11.275294 9.7747415 10 11.745203 10 14 L 10 19 L 10 19.40625 L 10.28125 19.71875 L 12 21.4375 L 12 30 L 14 30 L 14 21 L 14 20.59375 L 13.71875 20.28125 L 12 18.5625 L 12 14 C 12 11.779625 13.779625 10 16 10 C 18.220375 10 20 11.779625 20 14 L 20 18.5625 L 18.28125 20.28125 L 18 20.59375 L 18 21 L 18 30 L 20 30 L 20 21.4375 L 21.71875 19.71875 L 22 19.40625 L 22 19 L 22 14 C 22 11.745203 20.724706 9.7747415 18.875 8.75 C 19.564489 8.0302336 20 7.0674862 20 6 C 20 3.8027056 18.197294 2 16 2 z M 16 4 C 17.116414 4 18 4.883586 18 6 C 18 7.116414 17.116414 8 16 8 C 14.883586 8 14 7.116414 14 6 C 14 4.883586 14.883586 4 16 4 z" overflow="visible" font-family="Sans" fill="#000000"/></svg>
