<?xml version="1.0" encoding="utf-8"?>
<svg xmlns="http://www.w3.org/2000/svg" viewBox="0 0 32 32" fill="#000000"><path style="text-indent:0;text-align:start;line-height:normal;text-transform:none;block-progression:tb;-inkscape-font-specification:Sans" d="M 14 4 C 12.895431 4 12 4.8954305 12 6 C 12 6.0211168 11.99935 6.0415409 12 6.0625 L 6.9375 9.25 C 6.6569454 9.100054 6.3403411 9 6 9 C 4.8954305 9 4 9.8954305 4 11 C 4 11.739604 4.4031044 12.372707 5 12.71875 L 5 24.28125 C 4.4031044 24.627293 4 25.260396 4 26 C 4 27.104569 4.8954305 28 6 28 C 6.7396043 28 7.3727074 27.596896 7.71875 27 L 20.28125 27 C 20.627293 27.596896 21.260396 28 22 28 C 23.104569 28 24 27.104569 24 26 C 24 25.600737 23.889076 25.21845 23.6875 24.90625 L 26.125 20 C 27.170989 19.935109 28 19.062335 28 18 C 28 17.022944 27.301254 16.206033 26.375 16.03125 L 24.46875 10.3125 C 24.784455 9.9588855 25 9.5113393 25 9 C 25 7.8954305 24.104569 7 23 7 C 22.488661 7 22.041114 7.2155452 21.6875 7.53125 L 15.96875 5.59375 C 15.782257 4.6823837 14.966498 4 14 4 z M 15.3125 7.5 L 21.03125 9.375 C 21.183222 10.180371 21.819629 10.816778 22.625 10.96875 L 24.53125 16.65625 C 24.206054 17.011924 24 17.480091 24 18 C 24 18.414213 24.128101 18.805798 24.34375 19.125 L 21.875 24 C 21.18836 24.042598 20.607533 24.437189 20.28125 25 L 7.71875 25 C 7.5434657 24.697649 7.3023514 24.456534 7 24.28125 L 7 12.71875 C 7.5968956 12.372707 8 11.739604 8 11 C 8 10.978883 8.0006497 10.958459 8 10.9375 L 13.0625 7.75 C 13.343055 7.899946 13.659659 8 14 8 C 14.503722 8 14.960854 7.8073527 15.3125 7.5 z" overflow="visible" font-family="Sans" fill="#000000"/></svg>
