<?xml version="1.0" encoding="utf-8"?>
<svg xmlns="http://www.w3.org/2000/svg" viewBox="0 0 32 32" fill="#000000"><path style="text-indent:0;text-align:start;line-height:normal;text-transform:none;block-progression:tb;-inkscape-font-specification:Bitstream Vera Sans" d="M 6 3 L 6 4 L 6 10 L 8 10 L 8 5 L 24 5 L 24 10 L 26 10 L 26 4 L 26 3 L 25 3 L 7 3 L 6 3 z M 10.59375 12 C 9.2104167 12 8.09375 13.116667 8.09375 14.5 L 8.09375 17.5 C 8.09375 18.883333 9.2104167 20 10.59375 20 L 12.09375 20 L 13.09375 20 L 13.09375 19 L 13.09375 17 L 13.09375 16 L 12.09375 16 L 11.09375 16 L 11.09375 17 L 11.09375 18 L 10.59375 18 C 10.377083 18 10.09375 17.716667 10.09375 17.5 L 10.09375 14.5 C 10.09375 14.283333 10.377083 14 10.59375 14 C 10.810417 14 11.09375 14.283333 11.09375 14.5 L 11.09375 15 L 13.09375 15 L 13.09375 14.5 C 13.09375 13.116667 11.977083 12 10.59375 12 z M 15 12 L 15 20 L 17 20 L 17 12 L 15 12 z M 21.5 12 C 20.116667 12 19 13.116667 19 14.5 C 19 15.883333 20.116667 17 21.5 17 C 21.716667 17 22 17.283333 22 17.5 C 22 17.8 21.881481 18 21.5 18 C 21.131818 18 21.075546 17.91998 21.0625 17.90625 C 21.049454 17.892518 21 17.827083 21 17.59375 L 19 17.59375 C 19 18.160417 19.163046 18.794982 19.625 19.28125 C 20.086954 19.767518 20.768182 20 21.5 20 C 22.918519 20 24 18.8 24 17.5 C 24 16.116667 22.883333 15 21.5 15 C 21.283333 15 21 14.716667 21 14.5 C 21 14.283333 21.283333 14 21.5 14 C 21.766667 14 21.847593 14.06341 21.90625 14.125 C 21.964907 14.18659 22 14.294345 22 14.40625 L 24 14.40625 C 24 13.818155 23.785093 13.21341 23.34375 12.75 C 22.902407 12.28659 22.233333 12 21.5 12 z M 6 22 L 6 28 L 6 29 L 7 29 L 25 29 L 26 29 L 26 28 L 26 22 L 24 22 L 24 27 L 8 27 L 8 22 L 6 22 z" overflow="visible" font-family="Bitstream Vera Sans" fill="#000000"/></svg>
