<?xml version="1.0" encoding="utf-8"?>
<svg xmlns="http://www.w3.org/2000/svg" viewBox="0 0 32 32" fill="#000000"><path style="text-indent:0;text-align:start;line-height:normal;text-transform:none;block-progression:tb;-inkscape-font-specification:Bitstream Vera Sans" d="M 22 3.25 L 21.1875 4.4375 C 21.1875 4.4375 20.648271 5.1917621 20.125 6.09375 C 19.863365 6.5447439 19.617717 7.0186475 19.40625 7.5 C 19.194783 7.9813525 19 8.4220909 19 9 C 19 10.64497 20.35503 12 22 12 C 23.64497 12 25 10.64497 25 9 C 25 8.4220909 24.805217 7.9813525 24.59375 7.5 C 24.382283 7.0186475 24.136635 6.5447439 23.875 6.09375 C 23.351729 5.1917621 22.8125 4.4375 22.8125 4.4375 L 22 3.25 z M 22 6.875 C 22.0657 6.983782 22.05813 6.9784892 22.125 7.09375 C 22.363365 7.5046311 22.617717 7.9402588 22.78125 8.3125 C 22.944783 8.6847412 23 9.0254091 23 9 C 23 9.5650302 22.56503 10 22 10 C 21.43497 10 21 9.5650302 21 9 C 21 9.025409 21.05522 8.6847412 21.21875 8.3125 C 21.382283 7.9402588 21.636635 7.5046311 21.875 7.09375 C 21.941866 6.9784892 21.934303 6.983782 22 6.875 z M 13.21875 8 C 12.505802 8 11.788211 8.2742891 11.25 8.8125 L 5.625 14.4375 L 5.0625 15 L 5.1875 15.15625 C 4.5046101 16.04651 4 17.103958 4 18.3125 L 4 22 C 4 24.749516 6.2504839 27 9 27 L 21.5 27 C 22.869063 27 24 25.869063 24 24.5 C 24 24.328867 23.971098 24.161948 23.9375 24 L 24.5 24 C 25.869063 24 27 22.869063 27 21.5 C 27 21.181877 26.954675 20.874957 26.84375 20.59375 C 27.540321 20.147458 28 19.37936 28 18.5 C 28 17.62064 27.540321 16.852542 26.84375 16.40625 C 26.954675 16.125043 27 15.818123 27 15.5 C 27 14.130937 25.869063 13 24.5 13 L 14.9375 13 L 15.1875 12.75 C 16.263922 11.673578 16.263922 9.8889218 15.1875 8.8125 C 14.649289 8.2742891 13.931698 8 13.21875 8 z M 13.25 10 C 13.445543 10 13.625461 10.062961 13.78125 10.21875 C 14.092828 10.530328 14.092828 11.000922 13.78125 11.3125 L 11.8125 13.28125 L 10.09375 15 L 12.5 15 L 24.5 15 C 24.786937 15 25 15.213063 25 15.5 C 25 15.786937 24.786937 16 24.5 16 L 16 16 L 16 18 L 25.5 18 C 25.786937 18 26 18.213063 26 18.5 C 26 18.786937 25.786937 19 25.5 19 L 24.5 19 L 16 19 L 16 21 L 24.5 21 C 24.786937 21 25 21.213063 25 21.5 C 25 21.786937 24.786937 22 24.5 22 L 16 22 L 16 24 L 21.5 24 C 21.786937 24 22 24.213063 22 24.5 C 22 24.786937 21.786937 25 21.5 25 L 9 25 C 7.3315161 25 6 23.668484 6 22 L 6 18.3125 C 6 17.357984 6.4126742 16.515026 7.0625 15.90625 L 7.6875 15.3125 L 7.65625 15.25 L 12.6875 10.21875 C 12.843289 10.062961 13.054457 10 13.25 10 z" overflow="visible" font-family="Bitstream Vera Sans" fill="#000000"/></svg>
