<?xml version="1.0" encoding="utf-8"?>
<svg xmlns="http://www.w3.org/2000/svg" viewBox="0 0 32 32" fill="#000000"><path style="text-indent:0;text-align:start;line-height:normal;text-transform:none;block-progression:tb;-inkscape-font-specification:Sans" d="M 12.5 3.96875 C 10.71233 3.96875 9.2295611 5.3049761 9 7.03125 C 8.2878448 7.1091095 7.6553879 7.4337889 7.15625 7.875 C 6.5858067 8.3792413 6.1612923 9.0302249 5.8125 9.71875 C 5.176343 10.97464 3.46875 14.875 3.46875 14.875 L 3.5 14.875 C 3.1903178 15.523691 3 16.237951 3 17 L 3 19 C 3 21.745455 5.2545455 24 8 24 L 10.8125 24 C 11.85461 25.784476 13.793033 27 16 27 C 18.206967 27 20.14539 25.784476 21.1875 24 L 24 24 C 26.745455 24 29 21.745455 29 19 L 29 17 C 29 16.371977 28.871085 15.774287 28.65625 15.21875 C 28.65625 15.21875 28.597789 15.071855 28.59375 15.0625 C 28.584404 15.04054 28.572151 15.021801 28.5625 15 C 28.403253 14.631269 26.803424 10.933637 26.1875 9.71875 C 25.838708 9.0302249 25.414193 8.3792413 24.84375 7.875 C 24.344612 7.4337889 23.712155 7.1091095 23 7.03125 C 22.770439 5.3049761 21.28767 3.96875 19.5 3.96875 C 18.526981 3.96875 17.639558 4.3604421 17 5 L 17 4.96875 L 15 4.96875 L 15 5 C 14.360442 4.3604421 13.473019 3.96875 12.5 3.96875 z M 12.5 6.03125 C 13.138519 6.03125 13.670944 6.4351368 13.875 7 L 11.125 7 C 11.329056 6.4351368 11.861481 6.03125 12.5 6.03125 z M 19.5 6.03125 C 20.138519 6.03125 20.670944 6.4351368 20.875 7 L 18.125 7 C 18.329056 6.4351368 18.861481 6.03125 19.5 6.03125 z M 9.3125 9 L 22.6875 9 C 22.958862 9 23.193693 9.1042413 23.5 9.375 C 23.806307 9.6457587 24.139042 10.097525 24.40625 10.625 C 24.532375 10.873776 24.847802 11.588537 25.09375 12.125 C 24.739397 12.044335 24.3775 12 24 12 L 8 12 C 7.6225 12 7.2606027 12.044335 6.90625 12.125 C 7.157027 11.583991 7.458257 10.892488 7.59375 10.625 C 7.8609577 10.097525 8.1624433 9.6457587 8.46875 9.375 C 8.7750567 9.1042413 9.041138 9 9.3125 9 z M 8 14 L 24 14 C 25.654545 14 27 15.345455 27 17 L 27 19 C 27 20.654545 25.654545 22 24 22 L 21.90625 22 C 21.96018 21.677996 22 21.336748 22 21 C 22 17.69942 19.30243 15 16 15 C 12.69757 15 10 17.69942 10 21 C 10 21.336748 10.03982 21.677996 10.09375 22 L 8 22 C 6.3454545 22 5 20.654545 5 19 L 5 17 C 5 15.345455 6.3454545 14 8 14 z M 16 17 C 18.22157 17 20 18.78058 20 21 C 20 23.21942 18.221088 25 16 25 C 13.778912 25 12 23.21942 12 21 C 12 18.78058 13.77843 17 16 17 z" overflow="visible" font-family="Sans" fill="#000000"/></svg>
