<?xml version="1.0" encoding="utf-8"?>
<svg xmlns="http://www.w3.org/2000/svg" viewBox="0 0 32 32" fill="#000000"><path style="text-indent:0;text-align:start;line-height:normal;text-transform:none;block-progression:tb;-inkscape-font-specification:Bitstream Vera Sans" d="M 26.28125 4.28125 L 24.28125 6.28125 L 25.71875 7.71875 L 27.71875 5.71875 L 26.28125 4.28125 z M 22.28125 8.28125 L 20.28125 10.28125 L 21.71875 11.71875 L 23.71875 9.71875 L 22.28125 8.28125 z M 7.90625 8.59375 L 7.21875 9.28125 C 2.9476202 13.55238 2.9476202 20.51012 7.21875 24.78125 C 11.48988 29.05238 18.44762 29.05238 22.71875 24.78125 L 23.40625 24.09375 L 22.71875 23.375 L 17.21875 17.875 C 18.243965 17.563054 19 16.6272 19 15.5 C 19 14.119288 17.880712 13 16.5 13 C 15.3728 13 14.436946 13.756035 14.125 14.78125 L 8.625 9.28125 L 7.90625 8.59375 z M 8.0625 11.5625 L 20.4375 23.9375 C 16.916416 26.731168 11.882295 26.632295 8.625 23.375 C 5.3677048 20.117705 5.2688317 15.083584 8.0625 11.5625 z" overflow="visible" font-family="Bitstream Vera Sans" fill="#000000"/></svg>
