<?xml version="1.0" encoding="utf-8"?>
<svg xmlns="http://www.w3.org/2000/svg" viewBox="0 0 32 32" fill="#000000"><path style="text-indent:0;text-align:start;line-height:normal;text-transform:none;block-progression:tb;-inkscape-font-specification:Bitstream Vera Sans" d="M 9 5 L 9 9 L 5 9 L 5 11 L 7.5625 11 L 7.28125 11.28125 L 8.71875 12.71875 L 9 12.4375 L 9 21 L 5 21 L 5 23 L 7.5625 23 L 7.28125 23.28125 L 8.71875 24.71875 L 9 24.4375 L 9 27 L 11 27 L 11 23 L 19.5625 23 L 19.28125 23.28125 L 20.71875 24.71875 L 21 24.4375 L 21 27 L 23 27 L 23 23 L 27 23 L 27 21 L 24.4375 21 L 24.71875 20.71875 L 23.28125 19.28125 L 23 19.5625 L 23 11 L 27 11 L 27 9 L 24.4375 9 L 24.71875 8.71875 L 23.28125 7.28125 L 23 7.5625 L 23 5 L 21 5 L 21 9 L 12.4375 9 L 12.71875 8.71875 L 11.28125 7.28125 L 11 7.5625 L 11 5 L 9 5 z M 11 11 L 19.5625 11 L 19.28125 11.28125 L 20.71875 12.71875 L 21 12.4375 L 21 21 L 12.4375 21 L 12.71875 20.71875 L 11.28125 19.28125 L 11 19.5625 L 11 11 z" fill="#000000"/></svg>
