<?xml version="1.0" encoding="utf-8"?>
<svg xmlns="http://www.w3.org/2000/svg" viewBox="0 0 32 32" fill="#000000"><path style="text-indent:0;text-align:start;line-height:normal;text-transform:none;block-progression:tb;-inkscape-font-specification:Bitstream Vera Sans" d="M 15 4 L 15 11 L 15 14.28125 C 14.403104 14.627293 14 15.260396 14 16 C 14 17.104569 14.895431 18 16 18 C 17.104569 18 18 17.104569 18 16 C 18 15.260396 17.596896 14.627293 17 14.28125 L 17 4 L 15 4 z M 23.90625 6.6875 L 18.78125 11.78125 L 20.21875 13.21875 L 25.3125 8.09375 L 23.90625 6.6875 z M 10.71875 9.28125 L 9.28125 10.71875 L 12.28125 13.71875 L 13.71875 12.28125 L 10.71875 9.28125 z M 4 15 L 4 17 L 10.09375 17 C 10.243803 17.903343 10.620842 18.721571 11.125 19.4375 L 8.59375 22 L 10 23.40625 L 12.53125 20.875 C 13.254948 21.388198 14.084029 21.754586 15 21.90625 L 15 28 L 17 28 L 17 21.90625 C 17.915971 21.754586 18.745052 21.388198 19.46875 20.875 L 23.78125 25.21875 L 25.21875 23.78125 L 20.875 19.46875 C 21.387093 18.748147 21.754734 17.912149 21.90625 17 L 25 17 L 25 15 L 20 15 L 20 16 C 20 18.27619 18.27619 20 16 20 C 13.72381 20 12 18.27619 12 16 L 12 15 L 4 15 z" fill="#000000"/></svg>
