<?xml version="1.0" encoding="utf-8"?>
<svg xmlns="http://www.w3.org/2000/svg" viewBox="0 0 32 32" fill="#000000"><path style="text-indent:0;text-align:start;line-height:normal;text-transform:none;block-progression:tb;-inkscape-font-specification:Sans" d="M 3 7 L 3 8 L 3 9 L 3 10 L 4 10 L 5 10 L 6 10 L 6 9 L 6 8 L 6 7 L 5 7 L 4 7 L 3 7 z M 8 7 L 8 8 L 8 9 L 8 10 L 9 10 L 10 10 L 11 10 L 11 9 L 11 8 L 11 7 L 10 7 L 9 7 L 8 7 z M 13 7 L 13 8 L 13 9 L 13 10 L 14 10 L 15 10 L 16 10 L 16 9 L 16 8 L 16 7 L 15 7 L 14 7 L 13 7 z M 20 7 L 20 8 L 20 9 L 20 10 L 21 10 L 28 10 L 29 10 L 29 9 L 29 8 L 29 7 L 28 7 L 21 7 L 20 7 z M 3 12 L 3 13 L 3 14 L 3 15 L 4 15 L 5 15 L 6 15 L 6 14 L 6 13 L 6 12 L 5 12 L 4 12 L 3 12 z M 8 12 L 8 13 L 8 14 L 8 15 L 9 15 L 10 15 L 11 15 L 11 14 L 11 13 L 11 12 L 10 12 L 9 12 L 8 12 z M 13 12 L 13 13 L 13 14 L 13 15 L 14 15 L 15 15 L 16 15 L 16 14 L 16 13 L 16 12 L 15 12 L 14 12 L 13 12 z M 20 12 L 20 13 L 20 14 L 20 15 L 21 15 L 28 15 L 29 15 L 29 14 L 29 13 L 29 12 L 28 12 L 21 12 L 20 12 z M 3 17 L 3 18 L 3 19 L 3 20 L 4 20 L 5 20 L 6 20 L 6 19 L 6 18 L 6 17 L 5 17 L 4 17 L 3 17 z M 8 17 L 8 18 L 8 19 L 8 20 L 9 20 L 10 20 L 11 20 L 11 19 L 11 18 L 11 17 L 10 17 L 9 17 L 8 17 z M 13 17 L 13 18 L 13 19 L 13 20 L 14 20 L 15 20 L 16 20 L 16 19 L 16 18 L 16 17 L 15 17 L 14 17 L 13 17 z M 20 17 L 20 18 L 20 19 L 20 20 L 21 20 L 28 20 L 29 20 L 29 19 L 29 18 L 29 17 L 28 17 L 21 17 L 20 17 z M 3 22 L 3 23 L 3 24 L 3 25 L 4 25 L 5 25 L 6 25 L 6 24 L 6 23 L 6 22 L 5 22 L 4 22 L 3 22 z M 8 22 L 8 23 L 8 24 L 8 25 L 9 25 L 10 25 L 11 25 L 11 24 L 11 23 L 11 22 L 10 22 L 9 22 L 8 22 z M 13 22 L 13 23 L 13 24 L 13 25 L 14 25 L 15 25 L 16 25 L 16 24 L 16 23 L 16 22 L 15 22 L 14 22 L 13 22 z M 20 22 L 20 23 L 20 24 L 20 25 L 21 25 L 28 25 L 29 25 L 29 24 L 29 23 L 29 22 L 28 22 L 21 22 L 20 22 z" fill="#000000"/></svg>
