<?xml version="1.0" encoding="utf-8"?>
<svg xmlns="http://www.w3.org/2000/svg" viewBox="0 0 32 32" fill="#000000"><path style="text-indent:0;text-align:start;line-height:normal;text-transform:none;block-progression:tb;-inkscape-font-specification:Bitstream Vera Sans" d="M 10.40625 5 C 9.1895833 5 8.0196237 5.7185034 7.5625 6.9375 L 5.65625 12 L 3 12 L 3 14 L 5.03125 14 C 5.016005 14.142685 5 14.294417 5 14.40625 L 5 23 L 5 24 L 5 25 C 5 25.522222 5.1854695 26.060469 5.5625 26.4375 C 5.9395305 26.814531 6.4777778 27 7 27 L 8 27 C 8.5222222 27 9.0604695 26.814531 9.4375 26.4375 C 9.8145305 26.060469 10 25.522222 10 25 L 10 24 L 22 24 L 22 25 C 22 25.522222 22.185469 26.060469 22.5625 26.4375 C 22.939531 26.814531 23.477778 27 24 27 L 25 27 C 25.522222 27 26.060469 26.814531 26.4375 26.4375 C 26.814531 26.060469 27 25.522222 27 25 L 27 23 L 27 14.40625 C 27 14.294417 26.983996 14.142685 26.96875 14 L 29 14 L 29 12 L 26.34375 12 L 24.4375 6.9375 C 24.006029 5.786911 22.86412 5 21.59375 5 L 10.40625 5 z M 10.40625 7 L 21.59375 7 C 22.12338 7 22.393971 7.206839 22.5625 7.65625 L 24.5625 13 L 7.4375 13 L 9.4375 7.65625 C 9.5803763 7.2752466 10.022917 7 10.40625 7 z M 7 15 L 25 15 L 25 22 L 7 22 L 7 15 z M 10.5 17 C 9.6715729 17 9 17.671573 9 18.5 C 9 19.328427 9.6715729 20 10.5 20 C 11.328427 20 12 19.328427 12 18.5 C 12 17.671573 11.328427 17 10.5 17 z M 21.5 17 C 20.671573 17 20 17.671573 20 18.5 C 20 19.328427 20.671573 20 21.5 20 C 22.328427 20 23 19.328427 23 18.5 C 23 17.671573 22.328427 17 21.5 17 z M 7 24 L 8 24 L 8 25 L 7 25 L 7 24 z M 24 24 L 25 24 L 25 25 L 24 25 L 24 24 z" overflow="visible" font-family="Bitstream Vera Sans" fill="#000000"/></svg>
