<?xml version="1.0" encoding="utf-8"?>
<svg xmlns="http://www.w3.org/2000/svg" viewBox="0 0 32 32" fill="#000000"><path style="text-indent:0;text-align:start;line-height:normal;text-transform:none;block-progression:tb;-inkscape-font-specification:Sans" d="M 16 4 C 9.383 4 4 9.383 4 16 C 4 22.617 9.383 28 16 28 C 21.579 28 26.25675 24.167 27.59375 19 L 25.53125 19 C 24.25425 23.053 20.469 26 16 26 C 10.486 26 6 21.514 6 16 C 6 10.486 10.486 6 16 6 C 20.469 6 24.25425 8.947 25.53125 13 L 27.59375 13 C 26.25675 7.833 21.579 4 16 4 z M 16.65625 11.28125 L 12.65625 15.28125 L 11.96875 16 L 12.65625 16.71875 L 16.65625 20.71875 L 18.09375 19.28125 L 15.8125 17 L 28 17 L 28 15 L 15.8125 15 L 18.09375 12.71875 L 16.65625 11.28125 z" overflow="visible" font-family="Sans" fill="#000000"/></svg>
