<?xml version="1.0" encoding="utf-8"?>
<svg xmlns="http://www.w3.org/2000/svg" viewBox="0 0 32 32" fill="#000000"><path style="text-indent:0;text-align:start;line-height:normal;text-transform:none;block-progression:tb;-inkscape-font-specification:Bitstream Vera Sans" d="M 5 5 L 5 6 L 5 26 L 5 27 L 6 27 L 26 27 L 27 27 L 27 26 L 27 6 L 27 5 L 26 5 L 6 5 L 5 5 z M 7 7 L 25 7 L 25 25 L 7 25 L 7 7 z M 18.46875 11 C 17.17797 10.9987 16.220585 11.657192 15.46875 12.15625 C 14.716915 12.655308 14.151178 12.999629 13.5625 13 C 12.973822 13.000371 12.12315 12.680044 10.71875 11.28125 L 9.28125 12.71875 C 10.88335 14.314456 12.267147 15.000816 13.5625 15 C 14.857853 14.999184 15.80971 14.343442 16.5625 13.84375 C 17.31529 13.344058 17.891249 12.99944 18.46875 13 C 19.046251 13.00056 19.891787 13.317377 21.28125 14.71875 L 22.71875 13.28125 C 21.133213 11.682123 19.75953 11.001252 18.46875 11 z M 18.46875 17 C 17.17797 16.9987 16.220585 17.657192 15.46875 18.15625 C 14.716915 18.655308 14.151178 18.999629 13.5625 19 C 12.973822 19.000371 12.12315 18.680044 10.71875 17.28125 L 9.28125 18.71875 C 10.88335 20.314456 12.267147 21.000816 13.5625 21 C 14.857853 20.999184 15.80971 20.343442 16.5625 19.84375 C 17.31529 19.344058 17.891249 18.99944 18.46875 19 C 19.046251 19.00056 19.891787 19.317377 21.28125 20.71875 L 22.71875 19.28125 C 21.133213 17.682123 19.75953 17.001252 18.46875 17 z" overflow="visible" font-family="Bitstream Vera Sans" fill="#000000"/></svg>
