<?xml version="1.0" encoding="utf-8"?>
<svg xmlns="http://www.w3.org/2000/svg" viewBox="0 0 32 32" fill="#000000"><path style="text-indent:0;text-align:start;line-height:normal;text-transform:none;block-progression:tb;-inkscape-font-specification:Bitstream Vera Sans" d="M 30 5.4375 L 19.3125 9.875 C 17.4405 10.731 15.97575 10.5 15.96875 10.5 C 15.514695 10.389807 15.054085 10.318974 14.59375 10.25 C 13.363165 10.065615 12.150242 10.016108 11.15625 10.0625 C 10.659254 10.0857 10.224059 10.12311 9.84375 10.1875 C 9.463441 10.251891 9.1690518 10.30166 8.8125 10.5 C 8.2485164 10.805004 7.7205496 11.282842 7.125 11.9375 C 6.753214 12.346186 6.364145 12.827635 6 13.34375 L 5.6875 13.625 C 3.9595 15.039 2 16.622 2 19.625 C 1.999 22.627 5.76075 28 13.21875 28 C 20.63475 28 24 22.298 24 17 C 24 15.972 24.386 14.74775 25.125 14.46875 C 26.032 14.07475 27.686 13.39925 29.5 12.65625 L 30 12.4375 L 30 10.28125 L 28.71875 10.78125 C 26.88875 11.53125 25.243 12.21575 24.375 12.59375 C 22.632 13.24875 22 15.382 22 17 C 22 21.479 19.29375 26 13.21875 26 C 6.84675 26 4 21.379 4 19.625 C 4 19.42345 4.0383399 19.24624 4.0625 19.0625 C 4.1035069 19.576319 4.1992157 20.089693 4.40625 20.59375 C 4.7066961 21.333162 5.3024115 21.878776 6 22.1875 C 6.6975885 22.496224 7.4898503 22.629303 8.34375 22.625 C 10.051549 22.6164 12.049637 22.130191 14.125 21.28125 C 16.227892 20.421048 17.971764 19.257725 19.15625 18.03125 C 20.340736 16.804775 21.128675 15.417275 20.65625 14 C 20.380874 13.187369 19.849924 12.547246 19.21875 12.03125 C 19.506826 11.932966 19.787706 11.827554 20.09375 11.6875 L 30 7.59375 L 30 5.4375 z M 11.25 12.0625 C 12.113352 12.0222 13.20096 12.0569 14.28125 12.21875 C 15.36154 12.380615 16.444777 12.671663 17.25 13.09375 C 18.055223 13.515837 18.569496 14.031366 18.78125 14.65625 C 18.85083 14.864975 18.657014 15.684725 17.71875 16.65625 C 16.780486 17.627775 15.247108 18.671702 13.375 19.4375 C 11.475363 20.214559 9.6619506 20.618357 8.34375 20.625 C 7.6846497 20.628322 7.1480365 20.523495 6.8125 20.375 C 6.4769635 20.226505 6.3410539 20.067838 6.25 19.84375 C 5.7452932 18.614962 6.219094 16.899717 7.125 15.34375 C 7.577953 14.565766 8.1232684 13.832779 8.625 13.28125 C 9.1267316 12.729721 9.6222336 12.335996 9.78125 12.25 C 9.695698 12.29759 9.8828597 12.20254 10.15625 12.15625 C 10.42964 12.10996 10.818324 12.08265 11.25 12.0625 z M 9.5 15 C 9.2238576 15 9 15.223858 9 15.5 C 9 15.776142 9.2238576 16 9.5 16 C 9.7761424 16 10 15.776142 10 15.5 C 10 15.223858 9.7761424 15 9.5 15 z M 8.5 17 C 8.2238576 17 8 17.223858 8 17.5 C 8 17.776142 8.2238576 18 8.5 18 C 8.7761424 18 9 17.776142 9 17.5 C 9 17.223858 8.7761424 17 8.5 17 z M 10.5 17 C 10.223858 17 10 17.223858 10 17.5 C 10 17.776142 10.223858 18 10.5 18 C 10.776142 18 11 17.776142 11 17.5 C 11 17.223858 10.776142 17 10.5 17 z" overflow="visible" font-family="Bitstream Vera Sans" fill="#000000"/></svg>
