<?xml version="1.0" encoding="utf-8"?>
<svg xmlns="http://www.w3.org/2000/svg" viewBox="0 0 32 32" fill="#000000"><path style="text-indent:0;text-align:start;line-height:normal;text-transform:none;block-progression:tb;-inkscape-font-specification:Sans" d="M 13 3 C 13 3.7898235 13.071363 5.4115005 13.59375 6.875 C 13.259712 7.4009192 13 8.0329377 13 8.8125 C 13 8.980217 13.016127 9.1559492 13.0625 9.3125 C 11.175866 8.122663 7.2056324 6 2.5625 6 C 2.2052538 6 1.9052872 6.1090812 1.59375 6.34375 C 1.2822128 6.5784188 0.96875 7.0300285 0.96875 7.53125 C 0.96875 8.8956846 1.769469 10.356893 3.125 11.65625 C 4.480531 12.955607 6.4916954 14 9 14 C 10.808116 14 12.228244 13.6809 13.1875 13.375 C 13.294433 13.785086 13.438718 14.197103 13.65625 14.5625 C 13.696426 14.629985 13.766546 14.684452 13.8125 14.75 L 10.28125 18.28125 L 10 18.59375 L 10 19 L 10 21.5625 L 7.28125 24.28125 L 8.71875 25.71875 L 11.71875 22.71875 L 12 22.40625 L 12 22 L 12 19.4375 L 13.03125 18.40625 C 13.073839 21.535241 13.547369 23.801023 14.0625 25.28125 C 14.601 26.828629 15.21875 27.625 15.21875 27.625 L 16 28.625 L 16.78125 27.625 C 16.78125 27.625 17.400072 26.804107 17.9375 25.25 C 18.45129 23.764248 18.925541 21.501158 18.96875 18.40625 L 19.96875 19.40625 L 19.96875 22 L 19.96875 22.40625 L 20.28125 22.71875 L 23.28125 25.71875 L 24.6875 24.28125 L 21.96875 21.5625 L 21.96875 19 L 21.96875 18.59375 L 21.6875 18.28125 L 18.1875 14.78125 C 18.240015 14.707665 18.299394 14.637007 18.34375 14.5625 C 18.561282 14.197103 18.705567 13.785086 18.8125 13.375 C 19.763932 13.678057 21.181679 14 22.96875 14 C 25.477055 14 27.488219 12.955607 28.84375 11.65625 C 30.199281 10.356893 31 8.8956846 31 7.53125 C 31 7.0300285 30.717787 6.5784188 30.40625 6.34375 C 30.094713 6.1090812 29.794746 6 29.4375 6 C 24.798614 6 20.835365 8.1220662 18.9375 9.3125 C 18.983873 9.1559492 19 8.980217 19 8.8125 C 19 7.9517764 18.669503 7.2709904 18.28125 6.71875 C 18.7493 5.2961813 18.8125 3.7637934 18.8125 3 L 16.8125 3 C 16.8125 3.3845634 16.699315 4.2788998 16.53125 5.15625 C 16.524274 5.1529032 16.46875 5.125 16.46875 5.125 L 16 4.875 L 15.53125 5.125 C 15.53125 5.125 15.379695 5.1959488 15.28125 5.25 C 15.101136 4.3453466 15 3.3984332 15 3 L 13 3 z M 16 7.25 C 16.4337 7.5927662 17 8.1157827 17 8.8125 C 17 8.9459623 17.08107 8.80985 16.9375 8.875 C 16.793934 8.9401454 16.41707 9 16 9 C 15.58293 9 15.206066 8.9401454 15.0625 8.875 C 14.918934 8.8098546 15 8.9459623 15 8.8125 C 15 8.1157827 15.5663 7.5927662 16 7.25 z M 3.15625 8.09375 C 8.1408207 8.3312417 12.081378 11.074209 12.625 11.46875 C 11.876491 11.727508 10.764378 12 9 12 C 7.0463046 12 5.539469 11.183893 4.5 10.1875 C 3.727042 9.4465738 3.345934 8.6682725 3.15625 8.09375 z M 28.8125 8.09375 C 28.622816 8.6682725 28.241708 9.4465738 27.46875 10.1875 C 26.429281 11.183893 24.922445 12 22.96875 12 C 21.204372 12 20.092259 11.727508 19.34375 11.46875 C 19.882685 11.077498 23.839 8.3425693 28.8125 8.09375 z M 16 11 C 16.508597 11 16.729714 11.109674 16.8125 11.1875 C 16.895286 11.265326 17 11.431951 17 12 C 17 12.568049 16.843037 13.165006 16.625 13.53125 C 16.406963 13.897494 16.251395 14 16 14 C 15.748605 14 15.593037 13.897494 15.375 13.53125 C 15.156963 13.165006 15 12.568049 15 12 C 15 11.431951 15.104714 11.265326 15.1875 11.1875 C 15.270286 11.109674 15.491403 11 16 11 z M 12 15.21875 C 11.163 15.37875 10.19875 15.493 9.09375 15.5 L 7.28125 17.28125 L 8.71875 18.71875 L 12 15.40625 L 12 15.21875 z M 19.96875 15.21875 L 19.96875 15.40625 L 23.28125 18.71875 L 24.6875 17.28125 L 22.875 15.5 C 21.771 15.493 20.80575 15.37875 19.96875 15.21875 z M 16 16 C 16.251395 16 16.406963 16.102506 16.625 16.46875 C 16.843037 16.834994 17 17.431951 17 18 L 16 18 L 15 18 C 15 17.431951 15.156963 16.834994 15.375 16.46875 C 15.593037 16.102506 15.748605 16 16 16 z M 15.09375 20 L 16 20 L 16.90625 20 C 16.880136 20.359516 16.850531 20.673816 16.8125 21 L 16 21 L 15.1875 21 C 15.150031 20.672939 15.119401 20.360936 15.09375 20 z M 15.5 23 L 16 23 L 16.5 23 C 16.363947 23.609307 16.212601 24.159697 16.0625 24.59375 C 16.02308 24.707742 16.03805 24.64847 16 24.75 C 15.96782 24.66364 15.97069 24.72039 15.9375 24.625 C 15.785399 24.187937 15.637691 23.622131 15.5 23 z" fill="#000000"/></svg>
