<?xml version="1.0" encoding="utf-8"?>
<svg xmlns="http://www.w3.org/2000/svg" viewBox="0 0 32 32" fill="#000000"><path style="text-indent:0;text-align:start;line-height:normal;text-transform:none;block-progression:tb;-inkscape-font-specification:Bitstream Vera Sans" d="M 14.5 4 C 12.578848 4 11 5.5788481 11 7.5 C 11 9.4211519 12.578848 11 14.5 11 C 16.421152 11 18 9.4211519 18 7.5 C 18 5.5788481 16.421152 4 14.5 4 z M 21 4.78125 L 19.03125 5.0625 L 19.6875 9.6875 L 16.46875 11.28125 L 12.09375 11.6875 L 11.8125 11.71875 L 11.59375 11.875 L 8.375 14.21875 L 7.96875 14.53125 L 7.96875 15.03125 L 7.96875 19.90625 L 9.96875 19.90625 L 9.96875 15.5625 L 12.09375 14 C 12.01618 18.204822 11.562898 20.336465 11.09375 22 C 10.580718 23.819142 10 25.248304 10 28 L 12 28 C 12 25.517696 12.486782 24.461858 13.03125 22.53125 C 13.547564 20.700471 14.072537 18.198488 14.125 13.53125 L 16.0625 13.34375 C 16.313618 15.962245 17.277428 17.742718 18.15625 19.1875 C 19.177069 20.865726 20 22.027074 20 24 L 22 24 C 22 21.438926 20.822931 19.766024 19.84375 18.15625 C 18.953616 16.692869 18.16856 15.215703 18.03125 12.75 L 21.21875 11.125 L 21.875 10.8125 L 21.78125 10.09375 L 21 4.78125 z M 14.5 6 C 15.340272 6 16 6.6597281 16 7.5 C 16 8.3402719 15.340272 9 14.5 9 C 13.659728 9 13 8.3402719 13 7.5 C 13 6.6597281 13.659728 6 14.5 6 z M 15 20 C 15 21.345526 15.283831 22.445872 15.53125 23.5 C 15.778669 24.554128 16 25.57679 16 27 L 18 27 C 18 25.35921 17.721331 24.107372 17.46875 23.03125 C 17.216169 21.955128 17 21.069474 17 20 L 15 20 z" overflow="visible" font-family="Bitstream Vera Sans" fill="#000000"/></svg>
