<?xml version="1.0" encoding="utf-8"?>
<svg xmlns="http://www.w3.org/2000/svg" viewBox="0 0 32 32" fill="#000000"><path style="text-indent:0;text-align:start;line-height:normal;text-transform:none;block-progression:tb;-inkscape-font-specification:Bitstream Vera Sans" d="M 3 4 L 3 6 L 29 6 L 29 4 L 3 4 z M 6 7 L 6 8 L 3 8 L 3 10 L 29 10 L 29 8 L 26 8 L 26 7 L 24 7 L 24 8 L 8 8 L 8 7 L 6 7 z M 6 11 L 6 12 L 3 12 L 3 14 L 29 14 L 29 12 L 26 12 L 26 11 L 24 11 L 24 12 L 8 12 L 8 11 L 6 11 z M 6 15 L 6 27 L 6 28 L 7 28 L 25 28 L 26 28 L 26 27 L 26 15 L 24 15 L 24 26 L 8 26 L 8 15 L 6 15 z M 15 15 L 13.1875 15.8125 L 13.65625 16.8125 C 13.342543 17.045458 13.0511 17.315902 12.8125 17.625 L 11.8125 17.1875 L 11 19 L 12.03125 19.46875 C 12.005533 19.646353 12 19.815117 12 20 C 12 20.179633 12.039173 20.357661 12.0625 20.53125 L 11 21 L 11.8125 22.8125 L 12.8125 22.34375 C 13.049297 22.662626 13.337374 22.950703 13.65625 23.1875 L 13.1875 24.1875 L 15 25 L 15.46875 23.9375 C 15.642339 23.960827 15.820367 24 16 24 C 16.179633 24 16.357661 23.960827 16.53125 23.9375 L 17 25 L 18.8125 24.1875 L 18.34375 23.1875 C 18.662626 22.950703 18.950703 22.662626 19.1875 22.34375 L 20.1875 22.8125 L 21 21 L 19.9375 20.53125 C 19.960827 20.357661 20 20.179633 20 20 C 20 19.820367 19.960827 19.642339 19.9375 19.46875 L 21 19 L 20.1875 17.1875 L 19.1875 17.65625 C 18.950703 17.337374 18.662626 17.049297 18.34375 16.8125 L 18.8125 15.8125 L 17 15 L 16.53125 16.0625 C 16.357661 16.039173 16.179633 16 16 16 C 15.820367 16 15.642339 16.039173 15.46875 16.0625 L 15 15 z M 28 15 C 27.5 15 27 15.5 27 16 C 27 16.5 27.5 17 28 17 C 28.5 17 29 16.5 29 16 C 29 15.5 28.5 15 28 15 z M 16 18 C 17.116414 18 18 18.883586 18 20 C 18 21.116414 17.116414 22 16 22 C 14.883586 22 14 21.116414 14 20 C 14 18.883586 14.883586 18 16 18 z M 28 18 C 27.5 18 27 18.5 27 19 C 27 19.5 27.5 20 28 20 C 28.5 20 29 19.5 29 19 C 29 18.5 28.5 18 28 18 z M 28 21 C 27.5 21 27 21.5 27 22 C 27 22.5 27.5 23 28 23 C 28.5 23 29 22.5 29 22 C 29 21.5 28.5 21 28 21 z M 28 24 C 27.5 24 27 24.5 27 25 C 27 25.5 27.5 26 28 26 C 28.5 26 29 25.5 29 25 C 29 24.5 28.5 24 28 24 z" fill="#000000"/></svg>
