<?xml version="1.0" encoding="utf-8"?>
<svg xmlns="http://www.w3.org/2000/svg" viewBox="0 0 32 32" fill="#000000"><path style="text-indent:0;text-align:start;line-height:normal;text-transform:none;block-progression:tb;-inkscape-font-specification:Sans" d="M 16 4 C 9.3844277 4 4 9.3844277 4 16 C 4 22.615572 9.3844277 28 16 28 C 22.615572 28 28 22.615572 28 16 C 28 9.3844277 22.615572 4 16 4 z M 16 6 C 21.534692 6 26 10.465308 26 16 C 26 21.534692 21.534692 26 16 26 C 10.465308 26 6 21.534692 6 16 C 6 10.465308 10.465308 6 16 6 z M 21.875 10.1875 L 19.625 11.0625 L 10.40625 14.65625 L 7.8125 15.65625 L 10.4375 16.53125 L 14.1875 17.78125 L 15.15625 21.15625 L 15.9375 23.8125 L 17.03125 21.28125 L 20.90625 12.40625 L 21.875 10.1875 z M 18.125 13.8125 L 16.3125 17.9375 L 15.96875 16.71875 L 15.8125 16.21875 L 15.3125 16.0625 L 13.71875 15.53125 L 18.125 13.8125 z" overflow="visible" font-family="Sans" fill="#000000"/></svg>
