<?xml version="1.0" encoding="utf-8"?>
<svg xmlns="http://www.w3.org/2000/svg" viewBox="0 0 32 32" fill="#000000"><path d="M 16 3 L 11.714844 9 L 4 9 L 4 11 L 6 11 L 6 13 L 8 13 L 8 11 L 11 11 L 11 21 L 6 29 L 16 27 L 26 29 L 21 21 A 1.0001 1.0001 0 0 0 21 20.974609 L 21 11 L 24 11 L 24 13 L 26 13 L 26 11 L 28 11 L 28 9 L 20.285156 9 L 16 3 z M 16 6.4414062 L 17.828125 9 L 14.171875 9 L 16 6.4414062 z M 13.28125 11 L 18.71875 11 L 16 14.398438 L 13.28125 11 z M 13 13.851562 L 14.71875 16 L 13 18.148438 L 13 13.851562 z M 19 13.851562 L 19 18.148438 L 17.28125 16 L 19 13.851562 z M 16 17.601562 L 18.71875 21 L 16 24.398438 L 13.28125 21 L 16 17.601562 z M 19.798828 22.851562 L 21.847656 26.130859 L 17.820312 25.324219 L 19.798828 22.851562 z M 12.201172 22.853516 L 14.177734 25.322266 L 10.152344 26.128906 L 12.201172 22.853516 z" fill="#000000"/></svg>
