<?xml version="1.0" encoding="utf-8"?>
<svg xmlns="http://www.w3.org/2000/svg" viewBox="0 0 32 32" fill="#000000"><path style="line-height:normal;text-indent:0;text-align:start;text-decoration-line:none;text-decoration-style:solid;text-decoration-color:#000;text-transform:none;block-progression:tb;isolation:auto;mix-blend-mode:normal" d="M 2.25 8 C 1.0409103 8 0 8.974127 0 10.199219 L 0 14 L 8 14 L 8 24 L 10 24 L 10 22.414062 L 13.414062 19 L 24.585938 19 L 28 22.414062 L 28 24 L 30 24 L 30 14 L 32 14 L 32 13 L 32 10.199219 C 32 8.974127 30.95909 8 29.75 8 L 8.25 8 C 7.7941139 8 7.3612859 8.1387417 7 8.3769531 C 6.6387141 8.1387417 6.2058861 8 5.75 8 L 2.25 8 z M 2.25 10 L 5.75 10 C 5.9229103 10 6 10.09831 6 10.199219 L 6 12 L 2 12 L 2 10.199219 C 2 10.09831 2.0770897 10 2.25 10 z M 8.25 10 L 29.75 10 C 29.92291 10 30 10.09831 30 10.199219 L 30 12 L 8 12 L 8 10.199219 C 8 10.09831 8.0770897 10 8.25 10 z M 11.080078 14 L 15.585938 14 L 13.082031 16.503906 L 11.080078 14 z M 18.414062 14 L 19.585938 14 L 22.585938 17 L 15.414062 17 L 18.414062 14 z M 22.414062 14 L 26.919922 14 L 24.917969 16.503906 L 22.414062 14 z M 10 15.851562 L 11.660156 17.925781 L 10 19.585938 L 10 15.851562 z M 28 15.851562 L 28 19.585938 L 26.339844 17.925781 L 28 15.851562 z" font-weight="400" font-family="sans-serif" white-space="normal" overflow="visible" fill="#000000"/></svg>
