<?xml version="1.0" encoding="utf-8"?>
<svg xmlns="http://www.w3.org/2000/svg" viewBox="0 0 32 32" fill="#000000"><path style="text-indent:0;text-align:start;line-height:normal;text-transform:none;block-progression:tb;-inkscape-font-specification:Sans" d="M 3 6 L 3 7 L 3 23 L 3 24 L 4 24 L 28 24 L 29 24 L 29 23 L 29 7 L 29 6 L 28 6 L 4 6 L 3 6 z M 5 8 L 27 8 L 27 22 L 5 22 L 5 8 z M 16 10 C 14.35499 10 13 11.35499 13 13 C 13 13.679776 13.237385 14.306924 13.625 14.8125 C 12.651388 15.54439 12 16.697447 12 18 L 14 18 C 14 16.883334 14.883334 16 16 16 C 17.116666 16 18 16.883334 18 18 L 20 18 C 20 16.697447 19.348612 15.54439 18.375 14.8125 C 18.762615 14.306924 19 13.679776 19 13 C 19 11.35499 17.64501 10 16 10 z M 16 12 C 16.564128 12 17 12.435872 17 13 C 17 13.564128 16.564128 14 16 14 C 15.435872 14 15 13.564128 15 13 C 15 12.435872 15.435872 12 16 12 z M 9 19 L 9 21 L 13 21 L 13 19 L 9 19 z M 14 19 L 14 21 L 18 21 L 18 19 L 14 19 z M 19 19 L 19 21 L 23 21 L 23 19 L 19 19 z M 10 25 L 10 27 L 22 27 L 22 25 L 10 25 z" overflow="visible" font-family="Sans" fill="#000000"/></svg>
