<?xml version="1.0" encoding="utf-8"?>
<svg xmlns="http://www.w3.org/2000/svg" viewBox="0 0 32 32" fill="#000000"><path style="text-indent:0;text-align:start;line-height:normal;text-transform:none;block-progression:tb;-inkscape-font-specification:Bitstream Vera Sans" d="M 19 6 C 17.354545 6 16 7.3545455 16 9 L 11 9 L 10 9 L 10 10 L 10 20 L 10 21 L 11 21 L 27 21 L 28 21 L 28 20 L 28 10 L 28 9 L 27 9 L 22 9 C 22 7.3545455 20.645455 6 19 6 z M 4 7 L 4 9 L 5 9 C 5.5545455 9 6 9.4454545 6 10 L 6 21 C 6 23.209804 7.7901961 25 10 25 L 12.5 25 L 24.5 25 L 28 25 L 28 23 L 10 23 C 8.8098039 23 8 22.190196 8 21 L 8 10 C 8 8.3545455 6.6454545 7 5 7 L 4 7 z M 24.5 25 C 23.671573 25 23 25.671573 23 26.5 C 23 27.328427 23.671573 28 24.5 28 C 25.328427 28 26 27.328427 26 26.5 C 26 25.671573 25.328427 25 24.5 25 z M 12.5 25 C 11.671573 25 11 25.671573 11 26.5 C 11 27.328427 11.671573 28 12.5 28 C 13.328427 28 14 27.328427 14 26.5 C 14 25.671573 13.328427 25 12.5 25 z M 19 8 C 19.554545 8 20 8.4454545 20 9 L 18 9 C 18 8.4454545 18.445455 8 19 8 z M 12 11 L 26 11 L 26 19 L 12 19 L 12 11 z" overflow="visible" font-family="Bitstream Vera Sans" fill="#000000"/></svg>
