<?xml version="1.0" encoding="utf-8"?>
<svg xmlns="http://www.w3.org/2000/svg" viewBox="0 0 32 32" fill="#000000"><path style="text-indent:0;text-align:start;line-height:normal;text-transform:none;block-progression:tb;-inkscape-font-specification:Bitstream Vera Sans" d="M 14.78125 2.8125 L 14.3125 3.28125 L 12.8125 4.78125 L 12.09375 5.5 L 12.8125 6.21875 L 17.5625 10.96875 L 16.625 11.9375 L 11.84375 7.15625 L 11.125 6.4375 L 10.40625 7.15625 L 9.21875 8.34375 L 8.84375 8.71875 L 8.9375 9.21875 L 9.625 13.4375 L 9.6875 13.75 L 9.90625 13.96875 L 10.75 14.8125 C 9.8051416 15.499697 8.888545 15.986455 8.15625 16.71875 C 7.5925156 17.282484 7.3172839 17.952385 7.03125 18.59375 C 6.7452161 19.235115 6.53125 19.78125 6.53125 19.78125 L 6.3125 20.40625 L 6.75 20.84375 L 7.25 21.3125 L 4.625 23.9375 L 6.03125 25.34375 L 8.625 22.75 L 8.78125 22.875 L 9.5 23.59375 L 10.21875 22.875 L 18.1875 14.9375 L 18.90625 14.21875 L 18.1875 13.5 L 18 13.3125 L 19.6875 11.65625 L 20.375 10.96875 L 19.6875 10.25 L 14.9375 5.5 L 15.25 5.1875 L 21.1875 7.6875 L 24.5 11 L 22.3125 13.15625 L 21.59375 13.84375 L 22.3125 14.5625 L 25.96875 18.25 L 27.375 16.8125 L 24.4375 13.875 L 26.59375 11.6875 L 27.3125 10.96875 L 26.59375 10.28125 L 22.4375 6.125 L 22.28125 5.96875 L 22.125 5.90625 L 15.40625 3.09375 L 14.78125 2.8125 z M 11.125 9.28125 L 16.0625 14.21875 L 9.5 20.75 L 8.65625 19.90625 C 8.733137 19.714547 8.727859 19.666109 8.84375 19.40625 C 9.0994661 18.832865 9.5392344 18.148266 9.5625 18.125 C 9.7752675 17.912233 11.33402 17.25973 12.96875 15.625 L 13.6875 14.9375 L 12.96875 14.21875 L 11.53125 12.78125 L 11 9.40625 L 11.125 9.28125 z M 20.625 14.8125 L 8.15625 27.28125 L 9.5625 28.71875 L 19.375 18.90625 L 22.40625 21.9375 L 23.8125 20.5 L 20.8125 17.5 L 22.0625 16.25 L 20.625 14.8125 z" overflow="visible" font-family="Bitstream Vera Sans" fill="#000000"/></svg>
