<?xml version="1.0" encoding="utf-8"?>
<svg xmlns="http://www.w3.org/2000/svg" viewBox="0 0 32 32" fill="#000000"><path style="text-indent:0;text-align:start;line-height:normal;text-transform:none;block-progression:tb;-inkscape-font-specification:Sans" d="M 18.125 4 C 14.820811 4 10.960733 4.5476509 7.96875 7.5625 C 4.9767666 10.577349 3 15.866256 3 25 L 3 26 L 4 26 L 12.65625 26 C 13.64512 26.624629 14.759046 27 16 27 C 17.24015 27 18.354742 26.61707 19.34375 26 L 28 26 L 29 26 L 29 25 C 29 16.874706 27.429684 12.155539 25.375 9.40625 C 23.565932 6.9856096 21.482722 6.3122487 19.9375 6.15625 L 19 4.5 L 18.71875 4 L 18.125 4 z M 17.5625 6.0625 L 18.375 7.5 L 18.65625 8 L 19.25 8 C 20.260707 8 22.097684 8.3410393 23.78125 10.59375 C 25.384608 12.739138 26.801004 16.83027 26.9375 24 L 21.5625 24 C 21.672152 23.859679 21.772928 23.708238 21.875 23.5625 C 23.232638 21.624061 24 19.206716 24 17 L 24 16 L 23 16 L 22 16 L 20 16 C 19.603505 15.974898 19.083648 16.042026 18.46875 16.09375 C 16.87475 16.22775 16 16.41625 16 17.65625 C 16 19.44425 17.31075 20.078 18.46875 20 C 19.710809 19.916691 20.5333 19.044491 20.84375 18 L 21.9375 18 C 21.746792 19.490497 21.149137 21.122459 20.25 22.40625 C 19.143888 23.985561 17.664699 25 16 25 C 14.336909 25 12.856619 23.98853 11.75 22.40625 C 10.850451 21.120046 10.253097 19.48659 10.0625 18 L 11.15625 18 C 11.4667 19.044491 12.289191 19.916691 13.53125 20 C 14.68925 20.077 16 19.44425 16 17.65625 C 16 16.41625 15.12525 16.22775 13.53125 16.09375 C 12.915966 16.042026 12.396458 15.974898 12 16 L 10.40625 16 C 10.541266 15.890342 10.698798 15.781716 10.9375 15.6875 C 11.643864 15.408698 12.835504 15.293318 14.09375 15.1875 C 15.351996 15.081682 16.663507 14.982025 17.84375 14.4375 C 19.023993 13.892975 20 12.660378 20 11 L 18 11 C 18 12.044122 17.726007 12.304462 17.03125 12.625 C 16.336493 12.945538 15.148004 13.083068 13.90625 13.1875 C 12.664496 13.291932 11.356136 13.351239 10.1875 13.8125 C 9.6031821 14.04313 9.0383103 14.38987 8.625 14.9375 C 8.2116897 15.48513 8 16.216619 8 17 C 8 19.197955 8.7678691 21.59078 10.125 23.53125 C 10.235329 23.689002 10.349573 23.848296 10.46875 24 L 5.0625 24 C 5.2152086 15.863862 7.0091575 11.352673 9.375 8.96875 C 11.695941 6.6300713 14.648747 6.1216678 17.5625 6.0625 z" overflow="visible" font-family="Sans" fill="#000000"/></svg>
