<?xml version="1.0" encoding="utf-8"?>
<svg xmlns="http://www.w3.org/2000/svg" viewBox="0 0 32 32" fill="#000000"><path d="M 5 5 C 3.3555411 5 2 6.3544268 2 8 L 2 24 L 2 25 L 3 25 L 5.03125 25 C 5.2823697 26.681255 6.7530509 28 8.5 28 C 10.246949 28 11.71763 26.681255 11.96875 25 L 21.03125 25 C 21.28237 26.681255 22.753051 28 24.5 28 C 26.246949 28 27.71763 26.681255 27.96875 25 L 30 25 L 31 25 L 31 24 L 31 14.5625 C 31 14.000833 30.829876 13.445951 30.53125 12.96875 L 26.4375 6.40625 C 25.890347 5.529306 24.939245 5 23.90625 5 L 5 5 z M 5 7 L 19 7 L 19 13 L 19 15 L 21 15 L 29 15 L 29 17 L 26 17 L 26 19 L 29 19 L 29 23 L 27.625 23 C 27.054414 21.834798 25.875749 21 24.5 21 C 23.124251 21 21.945586 21.834798 21.375 23 L 11.625 23 C 11.054414 21.834798 9.875749 21 8.5 21 C 7.124251 21 5.9455863 21.834798 5.375 23 L 4 23 L 4 8 C 4 7.4355732 4.4364589 7 5 7 z M 21 7 L 23.90625 7 C 24.253255 7 24.567153 7.175694 24.75 7.46875 L 28.1875 13 L 21 13 L 21 7 z M 8.5 23 C 9.3402719 23 10 23.659728 10 24.5 C 10 25.340272 9.3402719 26 8.5 26 C 7.6597281 26 7 25.340272 7 24.5 C 7 23.659728 7.6597281 23 8.5 23 z M 24.5 23 C 25.340272 23 26 23.659728 26 24.5 C 26 25.340272 25.340272 26 24.5 26 C 23.659728 26 23 25.340272 23 24.5 C 23 23.659728 23.659728 23 24.5 23 z" fill="#000000"/></svg>
