<?xml version="1.0" encoding="utf-8"?>
<svg xmlns="http://www.w3.org/2000/svg" viewBox="0 0 32 32" fill="#000000"><path style="text-indent:0;text-align:start;line-height:normal;text-transform:none;block-progression:tb;-inkscape-font-specification:Sans" d="M 11 9 L 11 11 L 13 11 L 13 13 L 7.5625 13 L 5.84375 10.4375 L 5.53125 10 L 5 10 L 2 10 L 1 10 L 1 11 L 1 15 L 1 15.6875 L 1.625 15.9375 L 6 17.6875 L 6 24 L 6 25 L 7 25 L 20 25 L 20.53125 25 L 20.8125 24.5625 L 29.5 12 L 31 12 L 31 10 L 28 10 L 27.65625 10 L 27.40625 10.1875 L 21 15 L 21 14 L 21 13 L 20 13 L 15 13 L 15 11 L 17 11 L 17 9 L 11 9 z M 3 12 L 4.4375 12 L 6 14.34375 L 6 15.5 L 3 14.3125 L 3 12 z M 25.78125 13.9375 L 19.5 23 L 8 23 L 8 15 L 19 15 L 19 17 L 19 19 L 20.59375 17.8125 L 25.78125 13.9375 z M 29.5 16 C 29.5 16 28 18.671 28 19.5 C 28 20.329 28.671 21 29.5 21 C 30.329 21 31 20.329 31 19.5 C 31 18.671 29.5 16 29.5 16 z" overflow="visible" font-family="Sans" fill="#000000"/></svg>
