<?xml version="1.0" encoding="utf-8"?>
<svg xmlns="http://www.w3.org/2000/svg" viewBox="0 0 32 32" fill="#000000"><path style="line-height:normal;text-indent:0;text-align:start;text-decoration-line:none;text-decoration-style:solid;text-decoration-color:#000;text-transform:none;block-progression:tb;isolation:auto;mix-blend-mode:normal" d="M 11 3 C 9 3 2 14 2 14 L 2 24 C 2 24 1.9862119 24.458752 2.2304688 24.947266 C 2.4747256 25.43578 3.1666667 26 4 26 L 13.041016 26 C 13.703614 26 14.124526 25.605916 14.380859 25.294922 C 14.637193 24.983927 14.794994 24.670141 14.912109 24.410156 L 14.933594 24.365234 L 15.949219 21.316406 C 15.993181 21.200349 15.986681 21.172471 16 21.097656 C 16.01332 21.172467 16.006818 21.200347 16.050781 21.316406 L 17.068359 24.365234 L 17.089844 24.412109 C 17.20715 24.67116 17.363127 24.984316 17.619141 25.294922 C 17.87516 25.60553 18.295836 26 18.958984 26 L 28 26 C 28.833333 26 29.525274 25.43578 29.769531 24.947266 C 30.013788 24.458752 30 24 30 24 L 30 14 L 30.007812 14 C 30.007812 14 23.007812 3 21.007812 3 C 19.007812 3 19.007812 4.836 19.007812 6 C 19.007812 6 18.843812 8 20.007812 8 C 21.007812 8 21.007812 5.961 21.007812 5 C 22.007812 6 26.007812 14 26.007812 14 L 6 14 C 6 14 10 6 11 5 C 11 5.961 11 8 12 8 C 13.164 8 13 6 13 6 C 13 4.836 13 3 11 3 z M 4 16 L 28 16 L 28 24 L 19.148438 24 C 19.084477 23.91726 18.99708 23.764178 18.927734 23.617188 L 17.931641 20.634766 L 17.912109 20.587891 C 17.966449 20.708219 17.958149 20.405271 17.703125 19.90625 C 17.575609 19.656735 17.322777 19.372689 17.007812 19.212891 C 16.692849 19.053093 16.354667 19 16 19 C 15.645333 19 15.307151 19.05309 14.992188 19.212891 C 14.677222 19.372689 14.424389 19.65674 14.296875 19.90625 C 14.041847 20.405271 14.033549 20.708219 14.087891 20.587891 L 14.068359 20.634766 L 13.074219 23.613281 C 13.005218 23.761377 12.916215 23.916304 12.851562 24 L 4 24 L 4 16 z M 6.4609375 18 C 6.2089375 18 6 18.174672 6 18.388672 L 6 21.599609 C 6 21.801609 6.2327031 22 6.4707031 22 L 11.498047 22 C 11.730047 22 11.881703 21.750609 11.970703 21.599609 C 12.395703 20.783609 12.51775 19.879813 12.96875 18.507812 C 13.05775 18.270812 12.98925 18 12.40625 18 L 6.4609375 18 z M 19.59375 18 C 19.01175 18 18.94325 18.270813 19.03125 18.507812 C 19.48325 19.879812 19.604297 20.784609 20.029297 21.599609 C 20.118297 21.750609 20.269953 22 20.501953 22 L 25.529297 22 C 25.767297 22 26 21.801609 26 21.599609 L 26 18.388672 C 26 18.174672 25.791063 18 25.539062 18 L 19.59375 18 z" font-weight="400" font-family="sans-serif" white-space="normal" overflow="visible" fill="#000000"/></svg>
