<?xml version="1.0" encoding="utf-8"?>
<svg xmlns="http://www.w3.org/2000/svg" viewBox="0 0 32 32" fill="#000000"><path style="text-indent:0;text-align:start;line-height:normal;text-transform:none;block-progression:tb;-inkscape-font-specification:Sans" d="M 14 2 C 13.309103 2 12.629326 2.2512159 12.09375 2.6875 C 11.165118 3.4456114 10.809494 4.6526323 11.09375 5.75 L 10.53125 5.4375 C 10.52245 5.43221 10.50885 5.4427 10.5 5.4375 C 10.040073 5.167325 9.5340502 5 9 5 C 7.9462074 5 6.9792103 5.5648935 6.4375 6.46875 C 5.5920118 7.8793882 6.0571444 9.7164319 7.46875 10.5625 L 7.5 10.59375 L 7.5625 10.625 L 10.59375 12 L 10.1875 12 L 9.75 12 L 9.46875 12.28125 L 5.875 15.875 C 5.313676 16.436324 5 17.206325 5 18 C 5 18.793675 5.313676 19.563676 5.875 20.125 C 6.0082729 20.258273 6.2210112 20.238946 6.375 20.34375 C 6.0368496 20.946989 5.9348561 21.645566 6.3125 22.28125 L 6.28125 22.28125 L 6.3125 22.34375 L 8.59375 26.4375 L 8.75 26.71875 L 9.03125 26.84375 C 9.03125 26.84375 10.16751 27.380623 11.4375 27.90625 C 12.072495 28.169064 12.739428 28.419863 13.34375 28.625 C 13.948072 28.830137 14.412172 29 15 29 C 16.524997 29 17.359323 28.656274 17.90625 28.40625 C 18.453177 28.156226 18.71254 28 20 28 C 20.535489 28 21.910706 28.391247 23.0625 28.84375 C 23.638397 29.070002 24.180218 29.308803 24.59375 29.5 C 25.007282 29.691197 25.364622 29.876393 25.3125 29.84375 L 25.5625 30 L 25.84375 30 L 25.96875 30 L 26.96875 30 L 26.96875 29 L 27 18 L 27 17.46875 L 26.5625 17.15625 L 24 15.4375 L 24 7 C 24 5.3550302 22.64497 4 21 4 C 19.849569 4 18.846228 4.6638167 18.34375 5.625 L 16.3125 3.09375 C 15.74332 2.3964305 14.899296 2 14 2 z M 14 4 C 14.306704 4 14.58643 4.1363195 14.78125 4.375 L 18.09375 8.4375 L 18.125 8.53125 L 21.96875 16.5 L 22 16.5 L 22 16.53125 L 22.4375 16.84375 L 25 18.5625 L 24.96875 27.5 C 24.601092 27.336714 24.227579 27.144098 23.78125 26.96875 C 22.542294 26.482003 21.207511 26 20 26 C 18.47546 26 17.640573 26.343774 17.09375 26.59375 C 16.546927 26.843726 16.288003 27 15 27 C 15.04133 27 14.535209 26.90043 14 26.71875 C 13.464791 26.537074 12.82988 26.284186 12.21875 26.03125 C 11.157889 25.592178 10.423707 25.265066 10.1875 25.15625 L 8.03125 21.3125 L 8.03125 21.28125 L 8 21.25 L 8.46875 21.09375 C 9.3437902 20.798717 10.314215 21.12898 10.8125 21.90625 L 10.84375 21.96875 L 10.875 22.03125 L 12.25 23.65625 L 12.53125 24 L 13 24 L 15 24 L 15.0625 24 L 15.59375 24 L 15.90625 23.53125 L 17.84375 20.53125 L 18.21875 19.96875 L 17.8125 19.40625 L 15.6875 16.40625 L 15.375 16 L 14.875 16 L 12 16 L 11.59375 16 L 11.3125 16.28125 L 8.71875 18.6875 L 8.71875 18.71875 C 8.524074 18.913426 8.2743246 19 8 19 C 7.7256754 19 7.475926 18.913426 7.28125 18.71875 C 7.086574 18.524074 7 18.274325 7 18 C 7 17.725675 7.086574 17.475926 7.28125 17.28125 L 10.59375 14 L 16.59375 14 L 19.1875 17.59375 L 20 17 L 20.875 16.53125 L 20.8125 16.40625 L 16.96875 9.03125 L 16.8125 8.75 L 16.5625 8.625 L 15.71875 8.15625 L 13.21875 5.625 C 12.865473 5.1915248 12.939537 4.5742509 13.375 4.21875 C 13.551424 4.0750341 13.774897 4 14 4 z M 21 6 C 21.56503 6 22 6.4349698 22 7 L 22 11.9375 L 20 7.75 L 20 7 C 20 6.4349698 20.43497 6 21 6 z M 9 7 C 9.1796796 7 9.3442447 7.0625965 9.5 7.15625 L 9.53125 7.15625 L 9.5625 7.15625 L 15.3125 10.21875 L 16.25 12 L 14.4375 12 L 13.71875 11.28125 L 13.59375 11.15625 L 13.40625 11.09375 L 8.5 8.875 L 8.5 8.84375 C 8.0196056 8.5558181 7.8677382 7.9501118 8.15625 7.46875 C 8.3325397 7.1746065 8.6557926 7 9 7 z M 12.375 18 L 14.34375 18 L 15.78125 20.03125 L 14.53125 22 L 13.46875 22 L 12.46875 20.84375 L 12.40625 20.75 L 12.375 20.78125 C 11.971118 20.190391 11.398366 19.796987 10.78125 19.5 L 12.375 18 z" overflow="visible" font-family="Sans" fill="#000000"/></svg>
