<?xml version="1.0" encoding="utf-8"?>
<svg xmlns="http://www.w3.org/2000/svg" viewBox="0 0 32 32" fill="#000000"><path style="line-height:normal;text-indent:0;text-align:start;text-decoration-line:none;text-decoration-style:solid;text-decoration-color:#000;text-transform:none;block-progression:tb;isolation:auto;mix-blend-mode:normal" d="M 12.585938 2 L 8.5195312 6.0664062 L 10.482422 7.7011719 C 6.725534 9.6869942 4.1679688 13.634079 4.1679688 18.167969 C 4.1679688 24.691389 9.4765799 30 16 30 C 22.52342 30 27.832031 24.691389 27.832031 18.167969 C 27.832031 13.6342 25.275553 9.6870257 21.519531 7.7011719 L 23.480469 6.0664062 L 19.414062 2 L 12.585938 2 z M 13.666016 4 L 18.333984 4 L 17.666016 5 L 14.333984 5 L 13.666016 4 z M 12.759766 7 L 19.240234 7 L 16 9.6992188 L 12.759766 7 z M 12.167969 9.1074219 L 16 12.300781 L 16.640625 11.767578 L 19.830078 9.109375 C 23.355571 10.600837 25.832031 14.086814 25.832031 18.167969 C 25.832031 23.610549 21.44258 28 16 28 C 10.55742 28 6.1679688 23.610549 6.1679688 18.167969 C 6.1679688 14.088209 8.6433313 10.599906 12.167969 9.1074219 z" font-weight="400" font-family="sans-serif" white-space="normal" overflow="visible" fill="#000000"/></svg>
