<?xml version="1.0" encoding="utf-8"?>
<svg xmlns="http://www.w3.org/2000/svg" viewBox="-7 9 32 32" fill="#000000"><path d="M 16 2 C 15.016 2 14.21225 2.846 14.03125 4 L 14 4 C 7.935 4 3 8.935 3 15 L 3 21.21875 L 6.53125 29.46875 L 7.53125 28.84375 C 7.56025 28.82475 10.524 27 16 27 C 21.476 27 24.44275 28.82675 24.46875 28.84375 L 25.46875 29.46875 L 29 21.21875 L 29 15 C 29 8.935 24.065 4 18 4 L 17.96875 4 C 17.78775 2.846 16.984 2 16 2 z M 14 6 L 18 6 C 22.963 6 27 10.038 27 15 L 27 19.34375 C 24.98 18.40875 21.088 17 16 17 C 10.913 17 7.019 18.40875 5 19.34375 L 5 15 C 5 10.038 9.038 6 14 6 z M 15.5 8 C 14.122 8 13 9.122 13 10.5 L 13 12.5 C 13 13.878 14.122 15 15.5 15 L 16.5 15 C 17.879 15 19 13.878 19 12.5 L 17 12.5 C 17 12.771 16.771 13 16.5 13 L 15.5 13 C 15.229 13 15 12.771 15 12.5 L 15 10.5 C 15 10.229 15.229 10 15.5 10 L 16.5 10 C 16.771 10 17 10.229 17 10.5 L 19 10.5 C 19 9.122 17.879 8 16.5 8 L 15.5 8 z M 16 19 C 21.247 19 25.15975 20.6535 26.71875 21.4375 L 24.5 26.625 C 23.074 25.985 20.206 25 16 25 C 11.794 25 8.926 25.985 7.5 26.625 L 5.28125 21.4375 C 6.84025 20.6535 10.753 19 16 19 z" transform="translate(-7 9)" fill="#000000"/></svg>
