<?xml version="1.0" encoding="utf-8"?>
<svg xmlns="http://www.w3.org/2000/svg" viewBox="0 0 32 32" fill="#000000"><path style="text-indent:0;text-align:start;line-height:normal;text-transform:none;block-progression:tb;-inkscape-font-specification:Bitstream Vera Sans" d="M 21 3 C 20.205556 3 16.306054 3.1693203 12.34375 4.03125 C 10.362598 4.4622149 8.4053553 5.0682243 6.84375 5.96875 C 5.2821447 6.8692757 4 8.2095912 4 10 C 4 11.576572 4.6520136 12.857582 5.5625 13.71875 C 6.4729864 14.579918 7.5777087 15.062925 8.625 15.46875 C 9.6722913 15.874575 10.679304 16.196594 11.3125 16.5 C 11.629098 16.651703 11.851272 16.81648 11.9375 16.90625 C 12.023728 16.99602 12 16.954167 12 17 C 12 17.158333 11.857189 17.416952 11.3125 17.8125 C 10.767811 18.208048 9.9392183 18.630403 9.0625 19.0625 C 8.1857817 19.494597 7.2702644 19.92597 6.5 20.5 C 5.7297356 21.07403 5 21.901282 5 23 C 5 23.976923 5.5086205 24.803568 6.125 25.40625 C 6.7413795 26.008932 7.4933281 26.458023 8.25 26.8125 C 9.7633438 27.521454 11.308281 27.863646 11.78125 27.96875 L 12.21875 26.03125 C 11.791719 25.936354 10.355406 25.591046 9.09375 25 C 8.4629219 24.704477 7.8679955 24.328568 7.5 23.96875 C 7.1320045 23.608932 7 23.323077 7 23 C 7 22.798718 7.1452644 22.529095 7.6875 22.125 C 8.2297356 21.720905 9.0642183 21.305403 9.9375 20.875 C 10.810782 20.444597 11.732189 19.995077 12.5 19.4375 C 13.267811 18.879923 14 18.091667 14 17 C 14 16.420833 13.726272 15.865699 13.375 15.5 C 13.023728 15.134301 12.620902 14.895172 12.1875 14.6875 C 11.320696 14.272156 10.327709 13.994175 9.375 13.625 C 8.4222913 13.255825 7.5270136 12.807582 6.9375 12.25 C 6.3479864 11.692418 6 11.073428 6 10 C 6 9.1404088 6.5928553 8.4088493 7.84375 7.6875 C 9.0946447 6.9661507 10.881152 6.4065351 12.75 6 C 16.487696 5.1869297 20.594444 5 21 5 L 21 3 z M 26 12.03125 C 25.234835 12.03125 24.483027 12.329473 23.90625 12.90625 L 14 22.78125 L 13.78125 23 L 13.71875 23.3125 L 13.03125 26.8125 L 12.71875 28.28125 L 14.1875 27.96875 L 17.6875 27.28125 L 18 27.21875 L 18.21875 27 L 28.09375 17.09375 C 29.247303 15.940197 29.247303 14.059803 28.09375 12.90625 C 27.516973 12.329473 26.765165 12.03125 26 12.03125 z M 26 13.96875 C 26.234835 13.96875 26.464277 14.089277 26.6875 14.3125 C 27.133947 14.758947 27.133947 15.241053 26.6875 15.6875 L 17 25.375 L 15.28125 25.71875 L 15.625 24 L 25.3125 14.3125 C 25.535723 14.089277 25.765165 13.96875 26 13.96875 z" overflow="visible" font-family="Bitstream Vera Sans" fill="#000000"/></svg>
