<?xml version="1.0" encoding="utf-8"?>
<svg xmlns="http://www.w3.org/2000/svg" viewBox="0 0 32 32" fill="#000000"><path style="text-indent:0;text-align:start;line-height:normal;text-transform:none;block-progression:tb;-inkscape-font-specification:Sans" d="M 5 5 L 5 6 L 5 11 L 7 11 L 7 7 L 11 7 L 11 5 L 6 5 L 5 5 z M 21 5 L 21 7 L 25 7 L 25 11 L 27 11 L 27 6 L 27 5 L 26 5 L 21 5 z M 20 10 C 18.199518 10 16.845625 10.864371 16.125 12.03125 C 15.462844 13.103453 15.228495 14.34902 15.03125 15.53125 C 15.013016 15.519302 14.986516 15.511929 14.96875 15.5 C 14.128007 14.935483 13.84375 14.46875 13.84375 14.46875 L 12.15625 15.53125 C 12.15625 15.53125 12.698493 16.387267 13.84375 17.15625 C 14.083496 17.317228 14.357872 17.473708 14.65625 17.625 C 14.540579 18.183168 14.410296 18.660624 14.25 19.03125 C 14.092344 19.395772 13.9323 19.643029 13.75 19.78125 C 13.5677 19.919471 13.351433 20 12.9375 20 C 12.238908 20 12.160969 19.890895 12.125 19.84375 C 12.089031 19.796605 12 19.516762 12 19 L 10 19 C 10 19.644238 10.02572 20.368645 10.53125 21.03125 C 11.036781 21.693855 11.914092 22 12.9375 22 C 13.704317 22 14.429777 21.783654 14.96875 21.375 C 15.507723 20.966346 15.845937 20.416728 16.09375 19.84375 C 16.304482 19.356508 16.446874 18.84091 16.5625 18.3125 C 17.07175 18.439462 17.642392 18.539876 18.25 18.59375 C 18.446193 19.480783 18.776485 20.241473 19.1875 20.84375 C 19.598515 21.446027 20.138243 22 21 22 L 21 20 C 21.195257 20 21.02992 20.03735 20.8125 19.71875 C 20.595078 19.400152 20.369807 18.839217 20.21875 18.15625 C 19.916635 16.790317 19.969138 14.926914 20.8125 13.09375 L 18.96875 12.25 C 18.289127 13.727253 18.026155 15.215095 18.03125 16.5625 C 17.617079 16.509896 17.24706 16.435845 16.90625 16.34375 C 16.91609 16.281963 16.927438 16.217638 16.9375 16.15625 C 17.138731 14.928482 17.406438 13.801871 17.84375 13.09375 C 18.281062 12.385629 18.744982 12 20 12 L 20 10 z M 5 21 L 5 26 L 5 27 L 6 27 L 11 27 L 11 25 L 7 25 L 7 21 L 5 21 z M 25 21 L 25 25 L 21 25 L 21 27 L 26 27 L 27 27 L 27 26 L 27 21 L 25 21 z" fill="#000000"/></svg>
