<?xml version="1.0" encoding="utf-8"?>
<svg xmlns="http://www.w3.org/2000/svg" viewBox="0 0 32 32" fill="#000000"><path style="text-indent:0;text-align:start;line-height:normal;text-transform:none;block-progression:tb;-inkscape-font-specification:Bitstream Vera Sans" d="M 16 4 C 9.9365932 4 5 8.9365932 5 15 L 5 16 L 6 16 L 11.90625 16 C 11.614123 18.195548 10.566942 21.528329 10.15625 24.65625 C 9.9212938 26.436495 11.349714 28 13.125 28 L 18.875 28 C 20.650286 28 22.078706 26.436495 21.84375 24.65625 C 21.432081 21.535849 20.385659 18.211593 20.09375 16 L 26 16 L 27 16 L 27 15 C 27 8.9365932 22.063407 4 16 4 z M 16 6 C 20.625754 6 24.261564 9.517126 24.78125 14 L 20 14 L 12 14 L 7.21875 14 C 7.7384355 9.517126 11.374246 6 16 6 z M 13.84375 16 L 18.15625 16 C 18.400385 18.713361 19.48558 21.954498 19.875 24.90625 C 19.952044 25.490005 19.485714 26 18.875 26 L 13.125 26 C 12.514286 26 12.047956 25.490005 12.125 24.90625 C 12.513648 21.946217 13.599493 18.698431 13.84375 16 z" overflow="visible" font-family="Bitstream Vera Sans" fill="#000000"/></svg>
