<?xml version="1.0" encoding="utf-8"?>
<svg xmlns="http://www.w3.org/2000/svg" viewBox="0 0 32 32" fill="#000000"><path style="text-indent:0;text-align:start;line-height:normal;text-transform:none;block-progression:tb;-inkscape-font-specification:Sans" d="M 15.53125 4.03125 C 14.298295 4.03125 13.329342 4.7267928 12.625 5.625 C 12.0349 5.2890916 11.383977 5.0625 10.65625 5.0625 C 8.6088497 5.0625 6.9558379 6.616924 6.75 8.59375 C 5.204024 8.9489709 4 10.238445 4 11.875 C 4 13.783519 5.6135771 15.3125 7.53125 15.3125 C 8.2455174 15.3125 8.8506635 15.04937 9.40625 14.6875 C 9.7305371 15.007879 10.105157 15.274198 10.5 15.5 L 10.40625 15.625 C 10.40625 15.625 12.485763 17.037223 12.90625 19.96875 C 12.343464 20.093192 11.814579 20.21766 11.375 20.4375 C 11.029065 20.610507 10.702854 20.836738 10.4375 21.125 C 10.172146 21.413262 9.96875 21.804939 9.96875 22.28125 C 9.96875 22.916252 10.324845 23.435229 10.71875 23.75 C 11.112655 24.064771 11.595726 24.25861 12.125 24.4375 C 12.175391 24.454532 12.22963 24.483668 12.28125 24.5 C 11.930824 24.950778 11.485394 25.237091 11.03125 25.46875 C 10.019277 25.984958 9 26 9 26 L 9 28 C 9 28 10.480723 28.009 11.96875 27.25 C 12.840089 26.80553 13.724246 26.038505 14.3125 24.90625 C 14.847506 24.967873 15.409324 25 16 25 C 16.590676 25 17.152494 24.967873 17.6875 24.90625 C 18.275754 26.038505 19.159911 26.80553 20.03125 27.25 C 21.519277 28.009042 23 28 23 28 L 23 26 C 23 26 21.980723 25.98496 20.96875 25.46875 C 20.514606 25.237091 20.069176 24.950778 19.71875 24.5 C 19.77037 24.483668 19.824609 24.454532 19.875 24.4375 C 20.404274 24.25861 20.887345 24.064771 21.28125 23.75 C 21.675155 23.435229 22.03125 22.916252 22.03125 22.28125 C 22.03125 21.791669 21.807051 21.384864 21.53125 21.09375 C 21.255449 20.802636 20.92249 20.580185 20.5625 20.40625 C 20.131502 20.198007 19.636479 20.027774 19.09375 19.90625 C 19.557077 17.114965 21.6875 16.03125 21.6875 16.03125 L 21.65625 15.9375 C 22.559564 15.745346 23.307792 15.209171 23.875 14.5 C 26.13048 14.5 28 12.704287 28 10.46875 C 28.0013 8.2326214 26.131178 6.4375 23.875 6.4375 C 23.580118 6.4375 23.308724 6.535944 23.03125 6.59375 C 22.306438 5.563595 21.233092 4.8125 19.875 4.8125 C 19.262017 4.8125 18.765016 5.1016849 18.25 5.34375 C 17.546832 4.5921339 16.647058 4.03125 15.53125 4.03125 z M 15.53125 6.03125 C 16.238191 6.03125 16.810583 6.4305756 17.125 6.96875 L 17.71875 7.9375 L 18.59375 7.25 C 18.947133 6.9749939 19.397082 6.8125 19.875 6.8125 C 20.747406 6.8125 21.43558 7.3229987 21.71875 8.03125 L 22.09375 8.96875 L 23.03125 8.59375 C 23.28931 8.4901085 23.579148 8.4375 23.875 8.4375 C 25.084822 8.4375 26.000667 9.3488786 26 10.46875 C 26 11.587213 25.08352 12.5 23.875 12.5 C 23.8792 12.5 23.79882 12.48689 23.625 12.46875 L 22.9375 12.40625 L 22.625 13.03125 C 22.33188 13.621314 21.720891 14.03125 20.96875 14.03125 C 20.280884 14.03125 19.694867 13.701342 19.375 13.1875 L 18.84375 12.34375 L 18 12.84375 C 17.660502 13.049698 17.29419 13.15625 16.875 13.15625 C 16.412898 13.15625 15.97543 13.01786 15.625 12.78125 L 14.8125 12.25 L 14.25 13.0625 C 13.844475 13.642312 13.150183 14.03125 12.34375 14.03125 C 11.472016 14.03125 10.734288 13.544789 10.34375 12.875 L 9.625 11.65625 L 8.71875 12.75 C 8.4365985 13.091873 8.0248683 13.3125 7.53125 13.3125 C 6.6609229 13.3125 6 12.666481 6 11.875 C 6 11.083519 6.6609229 10.4375 7.53125 10.4375 C 7.432488 10.4375 7.449193 10.4281 7.625 10.4375 L 8.875 10.5 L 8.6875 9.28125 C 8.6634163 9.1412076 8.65625 9.0392541 8.65625 8.96875 C 8.65625 7.9206578 9.5204568 7.0625 10.65625 7.0625 C 11.239427 7.0625 11.727562 7.2826981 12.09375 7.65625 L 13.25 8.84375 L 13.78125 7.28125 C 14.012895 6.5755546 14.684016 6.03125 15.53125 6.03125 z M 18.28125 14.78125 C 18.562341 15.069137 18.87428 15.325408 19.21875 15.53125 C 18.182423 16.614837 17 18.393025 17 21 L 17 21.9375 C 17 22.294434 17.017396 22.647561 17.0625 22.96875 C 16.717481 22.995537 16.371237 23 16 23 C 15.628763 23 15.282519 22.995537 14.9375 22.96875 C 14.982604 22.647561 15 22.294434 15 21.9375 L 15 21 C 15 18.766067 14.181781 17.053415 13.34375 15.875 C 13.962619 15.696255 14.518108 15.352546 15 14.9375 L 15 18 L 17 18 L 17 15.15625 C 17.466161 15.127196 17.861269 14.941054 18.28125 14.78125 z M 19 21.96875 C 19.257846 22.047536 19.515334 22.135565 19.6875 22.21875 C 19.75266 22.25023 19.76315 22.25153 19.8125 22.28125 C 19.667108 22.36806 19.527985 22.468544 19.25 22.5625 C 19.18615 22.584081 19.100711 22.604593 19.03125 22.625 C 19.008554 22.417767 19.001086 22.207384 19 21.96875 z M 13 22 C 12.997937 22.225811 12.990367 22.427616 12.96875 22.625 C 12.899289 22.604593 12.81385 22.584081 12.75 22.5625 C 12.477993 22.47056 12.332984 22.398253 12.1875 22.3125 C 12.22796 22.28813 12.23004 22.27561 12.28125 22.25 C 12.46242 22.159394 12.711917 22.086891 13 22 z" overflow="visible" font-family="Sans" fill="#000000"/></svg>
