<?xml version="1.0" encoding="utf-8"?>
<svg xmlns="http://www.w3.org/2000/svg" viewBox="0 0 32 32" fill="#000000"><path style="text-indent:0;text-align:start;line-height:normal;text-transform:none;block-progression:tb;-inkscape-font-specification:Sans" d="M 8 5 C 4.6983746 5 2 7.6983746 2 11 C 2 13.17077 3.2634276 14.948224 5 16 L 5 24 L 5 24.40625 L 5.28125 24.71875 L 7.28125 26.71875 L 8 27.40625 L 8.71875 26.71875 L 10.71875 24.71875 L 11 24.40625 L 11 24 L 11 16 C 12.736572 14.948224 14 13.17077 14 11 C 14 7.6983746 11.301625 5 8 5 z M 8 7 C 10.220375 7 12 8.7796254 12 11 C 12 12.646853 11.004394 14.038893 9.59375 14.65625 L 9 14.9375 L 9 15.5625 L 9 17 L 8 17 L 8 19 L 9 19 L 9 20 L 8 20 L 8 22 L 9 22 L 9 23.5625 L 8 24.5625 L 7 23.5625 L 7 15.5625 L 7 14.9375 L 6.40625 14.65625 C 4.9956063 14.038893 4 12.646853 4 11 C 4 8.7796254 5.7796254 7 8 7 z M 8 9 C 6.895 9 6 9.895 6 11 L 10 11 C 10 9.895 9.105 9 8 9 z M 16 9 L 16 10 L 16 14 L 16 15 L 17 15 L 29 15 L 30 15 L 30 14 L 30 10 L 30 9 L 29 9 L 17 9 L 16 9 z M 18 11 L 28 11 L 28 13 L 18 13 L 18 11 z M 16 16 L 16 17 L 16 21 L 16 22 L 17 22 L 29 22 L 30 22 L 30 21 L 30 17 L 30 16 L 29 16 L 17 16 L 16 16 z M 18 18 L 28 18 L 28 20 L 18 20 L 18 18 z" overflow="visible" font-family="Sans" fill="#000000"/></svg>
