<?xml version="1.0" encoding="utf-8"?>
<svg xmlns="http://www.w3.org/2000/svg" viewBox="0 0 32 32" fill="#000000"><path style="text-indent:0;text-align:start;line-height:normal;text-transform:none;block-progression:tb;-inkscape-font-specification:Bitstream Vera Sans" d="M 16 6 C 13.424645 6 11.085944 6.346352 9.3125 6.9375 C 8.4257781 7.233074 7.6882784 7.562709 7.09375 8.03125 C 6.4992216 8.499791 6 9.1804564 6 10 L 6 18 C 6 18.817157 6.4992042 19.495163 7.09375 19.96875 C 7.6123465 20.381839 8.260014 20.69785 9 20.96875 L 9 23 C 9 23.684091 9.4004478 24.214678 9.84375 24.5625 C 10.287052 24.910322 10.821781 25.16976 11.4375 25.375 C 12.668938 25.785479 14.259091 26 16 26 C 17.740909 26 19.331062 25.785479 20.5625 25.375 C 21.178219 25.16976 21.712948 24.910322 22.15625 24.5625 C 22.599552 24.214678 23 23.684091 23 23 L 23 20.96875 C 23.739986 20.69785 24.387653 20.381839 24.90625 19.96875 C 25.500796 19.495163 26 18.817157 26 18 L 26 10 C 26 9.1804564 25.500778 8.499791 24.90625 8.03125 C 24.311722 7.562709 23.574222 7.233074 22.6875 6.9375 C 20.914056 6.346352 18.575355 6 16 6 z M 16 8 C 18.395208 8 20.578585 8.3178615 22.0625 8.8125 C 22.804458 9.0598192 23.371179 9.3757109 23.6875 9.625 C 24.003821 9.8742891 24 9.9911165 24 10 C 24 10.0089 24.0038 10.125711 23.6875 10.375 C 23.371179 10.624289 22.804458 10.940181 22.0625 11.1875 C 22.042884 11.194039 22.019859 11.212273 22 11.21875 C 21.962253 10.631058 21.589855 10.142063 21.21875 9.84375 C 20.827082 9.5289077 20.369546 9.3350205 19.84375 9.15625 C 18.792159 8.798709 17.472587 8.59375 16 8.59375 C 14.527413 8.59375 13.207841 8.798709 12.15625 9.15625 C 11.630454 9.3350205 11.172918 9.5289077 10.78125 9.84375 C 10.410145 10.142063 10.037747 10.631058 10 11.21875 C 9.9801407 11.212273 9.957116 11.194039 9.9375 11.1875 C 9.1955423 10.940181 8.6288212 10.624289 8.3125 10.375 C 7.9961788 10.125711 8 10.008883 8 10 C 8 9.9911165 7.9961789 9.8742891 8.3125 9.625 C 8.6288211 9.3757109 9.1955423 9.0598192 9.9375 8.8125 C 11.421415 8.3178615 13.604792 8 16 8 z M 16 10.59375 C 17.288837 10.59375 18.460697 10.773512 19.21875 11.03125 C 19.490386 11.12361 19.606488 11.226952 19.75 11.3125 C 19.606477 11.3969 19.484068 11.472292 19.21875 11.5625 C 18.65021 11.755803 17.846347 11.90611 16.9375 11.96875 C 16.625509 11.979812 16.32076 12 16 12 C 15.668561 12 15.353285 11.980549 15.03125 11.96875 C 14.135618 11.904834 13.343098 11.753528 12.78125 11.5625 C 12.515932 11.47229 12.393523 11.396896 12.25 11.3125 C 12.393512 11.22695 12.509614 11.123606 12.78125 11.03125 C 13.539303 10.773512 14.711163 10.59375 16 10.59375 z M 8 12.53125 C 8.3959869 12.729836 8.8286781 12.901226 9.3125 13.0625 C 11.085944 13.653648 13.424645 14 16 14 C 16.364794 14 16.708136 13.98236 17.0625 13.96875 C 17.083239 13.967269 17.104342 13.970317 17.125 13.96875 C 19.247503 13.882385 21.180023 13.564992 22.6875 13.0625 C 23.171322 12.901226 23.604013 12.729836 24 12.53125 L 24 18 C 24 18.03284 23.999204 18.157962 23.6875 18.40625 C 23.375796 18.654538 22.801406 18.943093 22.0625 19.1875 C 20.584688 19.676315 18.413333 20 16 20 C 13.586667 20 11.415312 19.676315 9.9375 19.1875 C 9.1985938 18.943093 8.6242042 18.654538 8.3125 18.40625 C 8.0007958 18.157962 8 18.032843 8 18 L 8 12.53125 z M 15 16 L 15 18 L 17 18 L 17 16 L 15 16 z M 11 21.53125 C 12.470122 21.834951 14.16247 22 16 22 C 17.83753 22 19.529878 21.834951 21 21.53125 L 21 22.90625 C 20.997321 22.906723 20.989285 22.934849 20.90625 23 C 20.740177 23.130303 20.378031 23.31149 19.90625 23.46875 C 18.962688 23.783271 17.559091 24 16 24 C 14.440909 24 13.037312 23.783271 12.09375 23.46875 C 11.621969 23.31149 11.259823 23.130303 11.09375 23 C 11.010713 22.934849 11.002678 22.906723 11 22.90625 L 11 21.53125 z" overflow="visible" font-family="Bitstream Vera Sans" fill="#000000"/></svg>
