<?xml version="1.0" encoding="utf-8"?>
<svg xmlns="http://www.w3.org/2000/svg" viewBox="0 0 32 32" fill="#000000"><path style="text-indent:0;text-align:start;line-height:normal;text-transform:none;block-progression:tb;-inkscape-font-specification:Bitstream Vera Sans" d="M 16 6 C 11.1539 6 7.2344051 6.8887578 5.125 7.5 C 3.7045445 7.9127819 2.8332742 9.3557528 3.03125 10.8125 L 4.625 22.6875 C 4.7995291 23.97872 5.8027941 25.041928 7.09375 25.25 C 8.9649601 25.552366 12.387753 26 16 26 C 19.612247 26 23.03504 25.552366 24.90625 25.25 C 26.197206 25.041928 27.200471 23.97872 27.375 22.6875 L 28.96875 10.8125 C 29.166677 9.3546316 28.295368 7.9116788 26.875 7.5 C 24.76508 6.8875757 20.8461 6 16 6 z M 16 8 C 20.5979 8 24.33642 8.8639243 26.3125 9.4375 C 26.762132 9.5678212 27.070073 10.015118 27 10.53125 L 25.375 22.40625 C 25.313529 22.86103 25.002794 23.184072 24.59375 23.25 C 22.78896 23.541634 19.441753 24 16 24 C 12.558247 24 9.2110399 23.541634 7.40625 23.25 C 6.9972059 23.184072 6.6864709 22.86103 6.625 22.40625 L 5 10.53125 C 4.9299758 10.015997 5.2359555 9.5687181 5.6875 9.4375 C 7.6640949 8.8647422 11.4021 8 16 8 z M 16 10 C 13.127869 10 10.819741 10.49434 9.5625 10.84375 C 8.5481982 11.122404 7.8831329 12.146882 8.03125 13.1875 L 8.96875 19.78125 C 9.1001016 20.702615 9.8315093 21.421764 10.75 21.5625 C 11.852446 21.731158 13.861652 22 16 22 C 18.138348 22 20.145659 21.732319 21.25 21.5625 C 22.166631 21.421765 22.899909 20.704441 23.03125 19.78125 L 23.96875 13.1875 C 24.116843 12.147051 23.449363 11.123588 22.4375 10.84375 C 21.180457 10.495743 18.872131 10 16 10 z M 16 12 C 18.635869 12 20.779293 12.469257 21.90625 12.78125 C 21.98639 12.80341 22.007907 12.8507 22 12.90625 L 21.0625 19.5 C 21.0558 19.54681 21.01087 19.58248 20.9375 19.59375 C 19.895841 19.753931 17.975652 20 16 20 C 14.024348 20 12.104054 19.753092 11.0625 19.59375 C 10.988991 19.582486 10.944148 19.546635 10.9375 19.5 L 10 12.90625 C 9.99212 12.85087 10.01605 12.802596 10.09375 12.78125 C 11.218509 12.46866 13.364131 12 16 12 z M 14 16 C 13.447715 16 13 16.447715 13 17 C 13 17.552285 13.447715 18 14 18 C 14.552285 18 15 17.552285 15 17 C 15 16.447715 14.552285 16 14 16 z M 18 16 C 17.447715 16 17 16.447715 17 17 C 17 17.552285 17.447715 18 18 18 C 18.552285 18 19 17.552285 19 17 C 19 16.447715 18.552285 16 18 16 z" overflow="visible" font-family="Bitstream Vera Sans" fill="#000000"/></svg>
