<?xml version="1.0" encoding="utf-8"?>
<svg xmlns="http://www.w3.org/2000/svg" viewBox="0 0 32 32" fill="#000000"><path style="line-height:normal;text-indent:0;text-align:start;text-decoration-line:none;text-decoration-style:solid;text-decoration-color:#000;text-transform:none;block-progression:tb;isolation:auto;mix-blend-mode:normal" d="M 14.720703 2.1113281 L 13.806641 3.8886719 C 13.806641 3.8886719 14.00688 3.9732099 14.324219 4.4082031 C 14.48141 4.6236746 14.648542 4.9131545 14.777344 5.3066406 C 14.116921 5.0851844 13.435474 4.9765625 12.699219 4.9765625 C 10.186325 4.9765625 7.9658164 6.4403751 6.4355469 8.6289062 C 4.9052773 10.817437 4 13.758363 4 16.988281 C 4 20.218199 4.9052773 23.159125 6.4355469 25.347656 C 7.9658164 27.536187 10.186325 29 12.699219 29 C 13.892181 29 14.948455 28.733982 15.990234 28.097656 C 17.017746 28.667868 18.135851 29 19.300781 29 C 21.813675 29 24.034184 27.536187 25.564453 25.347656 C 27.094723 23.159125 28 20.218199 28 16.988281 C 28 13.758363 27.094723 10.817437 25.564453 8.6289062 C 24.034184 6.4403751 21.813675 4.9765625 19.300781 4.9765625 C 18.455752 4.9765625 17.634208 5.1478151 16.855469 5.4609375 C 16.668713 4.5017986 16.320115 3.7503095 15.939453 3.2285156 C 15.388292 2.4730088 14.720703 2.1113281 14.720703 2.1113281 z M 12.699219 6.9765625 C 13.34296 6.9765625 13.786483 7.0373641 14.228516 7.2050781 C 13.071226 8.2923028 12.105072 9.6844576 11.453125 11.238281 L 13.296875 12.011719 C 14.523313 9.0886778 17.074729 6.9765625 19.300781 6.9765625 C 21.040887 6.9765625 22.669301 7.9764687 23.925781 9.7734375 C 25.182262 11.570406 26 14.136199 26 16.988281 C 26 19.840363 25.182262 22.404203 23.925781 24.201172 C 22.669301 25.998141 21.040887 27 19.300781 27 C 17.069265 27 14.522617 24.908752 13.296875 21.988281 L 11.453125 22.761719 C 12.103049 24.310238 13.066381 25.692973 14.21875 26.773438 C 13.779473 26.938387 13.337921 27 12.699219 27 C 10.959113 27 9.3306991 25.998141 8.0742188 24.201172 C 6.8177382 22.404203 6 19.840363 6 16.988281 C 6 14.136199 6.8177383 11.570406 8.0742188 9.7734375 C 9.3306991 7.9764687 10.959113 6.9765625 12.699219 6.9765625 z M 23 16.125 A 1 1 0 0 0 22 17.125 A 1 1 0 0 0 23 18.125 A 1 1 0 0 0 24 17.125 A 1 1 0 0 0 23 16.125 z M 20 18 A 1 1 0 0 0 19 19 A 1 1 0 0 0 20 20 A 1 1 0 0 0 21 19 A 1 1 0 0 0 20 18 z M 22 21 A 1 1 0 0 0 21 22 A 1 1 0 0 0 22 23 A 1 1 0 0 0 23 22 A 1 1 0 0 0 22 21 z M 19 23 A 1 1 0 0 0 18 24 A 1 1 0 0 0 19 25 A 1 1 0 0 0 20 24 A 1 1 0 0 0 19 23 z" font-weight="400" font-family="sans-serif" white-space="normal" overflow="visible" fill="#000000"/></svg>
