<?xml version="1.0" encoding="utf-8"?>
<svg xmlns="http://www.w3.org/2000/svg" viewBox="0 0 32 32" fill="#000000"><path style="text-indent:0;text-align:start;line-height:normal;text-transform:none;block-progression:tb;-inkscape-font-specification:Sans" d="M 2 8 L 2 9 L 2 23 L 2 24 L 3 24 L 23 24 L 24 24 L 24 23 L 24 20.625 L 28.5625 22.90625 L 30 23.625 L 30 22 L 30 10 L 30 8.375 L 28.5625 9.09375 L 24 11.375 L 24 9 L 24 8 L 23 8 L 3 8 L 2 8 z M 4 10 L 22 10 L 22 12.375 L 22 19 L 22 19.625 L 22 22 L 4 22 L 4 10 z M 12 11 L 12 13.1875 C 11.904114 13.222197 11.809938 13.268531 11.71875 13.3125 L 10.15625 11.75 L 8.75 13.15625 L 10.3125 14.71875 C 10.268531 14.809938 10.222197 14.904114 10.1875 15 L 8 15 L 8 17 L 10.1875 17 C 10.222197 17.095886 10.268531 17.190062 10.3125 17.28125 L 8.75 18.84375 L 10.15625 20.25 L 11.71875 18.6875 C 11.809938 18.731469 11.904114 18.777803 12 18.8125 L 12 21 L 14 21 L 14 18.8125 C 14.095886 18.777803 14.190062 18.731469 14.28125 18.6875 L 15.84375 20.25 L 17.25 18.84375 L 15.6875 17.28125 C 15.731469 17.190062 15.777803 17.095886 15.8125 17 L 18 17 L 18 15 L 15.8125 15 C 15.777803 14.904114 15.731469 14.809938 15.6875 14.71875 L 17.25 13.15625 L 15.84375 11.75 L 14.28125 13.3125 C 14.190062 13.268531 14.095886 13.222197 14 13.1875 L 14 11 L 12 11 z M 28 11.625 L 28 20.375 L 24 18.375 L 24 13.625 L 28 11.625 z M 13 15 C 13.564128 15 14 15.435872 14 16 C 14 16.564128 13.564128 17 13 17 C 12.435872 17 12 16.564128 12 16 C 12 15.435872 12.435872 15 13 15 z" fill="#000000"/></svg>
