<?xml version="1.0" encoding="utf-8"?>
<svg xmlns="http://www.w3.org/2000/svg" viewBox="0 0 32 32" fill="#000000"><path d="M 0 6 L 0 25 L 13 25 C 14.103 25 15 25.897 15 27 L 17 27 C 17 25.897 17.897 25 19 25 L 32 25 L 32 6 L 19 6 C 17.799 6 16.734 6.5428125 16 7.3828125 C 15.266 6.5428125 14.2 6 13 6 L 0 6 z M 2 8 L 13 8 C 14.103 8 15 8.897 15 10 L 15 23.556641 C 14.409 23.212641 13.732 23 13 23 L 2 23 L 2 8 z M 19 8 L 30 8 L 30 23 L 19 23 C 18.268 23 17.591 23.212641 17 23.556641 L 17 10 C 17 8.897 17.897 8 19 8 z M 19 10 L 19 12 L 28 12 L 28 10 L 19 10 z M 5.7929688 11.125 L 4 14.921875 L 4 18.402344 C 4 18.737344 4.2606563 19 4.5976562 19 L 5.6523438 19 C 5.9883438 19 6.2480469 18.738344 6.2480469 18.402344 L 6.2480469 17.875 L 10.748047 17.875 L 10.748047 18.402344 C 10.748047 18.738344 11.008703 19 11.345703 19 L 12.400391 19 C 12.738391 19 13 18.738344 13 18.402344 L 13 14.921875 L 11.207031 11.125 L 5.7929688 11.125 z M 19 14 L 19 16 L 28 16 L 28 14 L 19 14 z M 5.6875 15.34375 C 6.1535 15.34375 6.53125 15.7215 6.53125 16.1875 C 6.53125 16.6535 6.1535 17.03125 5.6875 17.03125 C 5.2215 17.03125 4.84375 16.6535 4.84375 16.1875 C 4.84375 15.7215 5.2215 15.34375 5.6875 15.34375 z M 11.3125 15.34375 C 11.7765 15.34375 12.15625 15.7225 12.15625 16.1875 C 12.15625 16.6515 11.7765 17.03125 11.3125 17.03125 C 10.8485 17.03125 10.46875 16.6515 10.46875 16.1875 C 10.46975 15.7225 10.8495 15.34375 11.3125 15.34375 z M 19 18 L 19 20 L 26 20 L 26 18 L 19 18 z" fill="#000000"/></svg>
