<?xml version="1.0" encoding="utf-8"?>
<svg xmlns="http://www.w3.org/2000/svg" viewBox="0 0 32 32" fill="#000000"><path style="text-indent:0;text-align:start;line-height:normal;text-transform:none;block-progression:tb;-inkscape-font-specification:Sans" d="M 6 3 L 6 4 L 6 28 L 6 29 L 7 29 L 25 29 L 26 29 L 26 28 L 26 13.4375 L 27.71875 11.71875 L 28 11.40625 L 28 11 L 28 4 L 28 3 L 27 3 L 24 3 L 23 3 L 7 3 L 6 3 z M 8 5 L 22 5 L 22 11 L 22 11.40625 L 22.28125 11.71875 L 24 13.4375 L 24 27 L 8 27 L 8 5 z M 24 5 L 26 5 L 26 10.5625 L 25 11.5625 L 24 10.5625 L 24 5 z M 11 10 L 11 11 L 11 22 L 11 23 L 12 23 L 20 23 L 21 23 L 21 22 L 21 14.5 L 21 14.09375 L 20.71875 13.78125 L 17.21875 10.28125 L 16.90625 10 L 16.5 10 L 12 10 L 11 10 z M 13 12 L 16 12 L 16 15 L 19 15 L 19 21 L 13 21 L 13 12 z" overflow="visible" font-family="Sans" fill="#000000"/></svg>
