<?xml version="1.0" encoding="utf-8"?>
<svg xmlns="http://www.w3.org/2000/svg" viewBox="0 0 32 32" fill="#000000"><path style="text-indent:0;text-align:start;line-height:normal;text-transform:none;block-progression:tb;-inkscape-font-specification:Bitstream Vera Sans" d="M 14 4 C 12.35503 4 11 5.3550302 11 7 L 11 19 L 13 19 L 13 7 C 13 6.4349698 13.43497 6 14 6 C 14.56503 6 15 6.4349698 15 7 L 15 19 L 17 19 L 17 7 C 17 6.4349698 17.43497 6 18 6 C 18.56503 6 19 6.4349698 19 7 L 19 19 L 21 19 L 21 7 C 21 5.3550302 19.64497 4 18 4 C 17.233154 4 16.532923 4.3002023 16 4.78125 C 15.467077 4.3002023 14.766846 4 14 4 z M 9 20 L 9 21 L 9 23 C 9 24.093063 9.9069372 25 11 25 L 12 25 L 12 26 C 12 27.093063 12.906937 28 14 28 L 18 28 C 19.093063 28 20 27.093063 20 26 L 20 25 L 21 25 C 22.093063 25 23 24.093063 23 23 L 23 21 L 23 20 L 22 20 L 10 20 L 9 20 z M 11 22 L 21 22 L 21 23 L 19 23 L 18 23 L 18 24 L 18 26 L 14 26 L 14 24 L 14 23 L 13 23 L 11 23 L 11 22 z" overflow="visible" font-family="Bitstream Vera Sans" fill="#000000"/></svg>
