<?xml version="1.0" encoding="utf-8"?>
<svg xmlns="http://www.w3.org/2000/svg" viewBox="0 0 32 32" fill="#000000"><path style="text-indent:0;text-align:start;line-height:normal;text-transform:none;block-progression:tb;-inkscape-font-specification:Sans" d="M 4 6 L 4 8 L 26 8 L 26 24 L 12 24 L 12 26 L 30 26 L 30 24 L 28 24 L 28 7 L 28 6 L 27 6 L 4 6 z M 8 9 C 5.8013175 9 4 10.802666 4 13 C 4 15.198683 5.8021212 17 8 17 C 10.195181 17 12 15.198683 12 13 C 12 10.802666 10.195987 9 8 9 z M 18 10 L 18 13.09375 C 17.845681 13.040108 17.672589 13 17.5 13 C 16.671573 13 16 13.671573 16 14.5 C 16 15.328427 16.671573 16 17.5 16 C 18.328427 16 19 15.328427 19 14.5 L 19 12 C 20.138 12 21 12.875 21 12.875 L 21 11 C 21 11 20.083 10 18 10 z M 8 11 C 9.1140131 11 10 11.883334 10 13 C 10 14.119317 9.1148187 15 8 15 C 6.8798788 15 6 14.119317 6 13 C 6 11.883334 6.8806825 11 8 11 z M 4 18 L 4 19 L 4 26 L 6 26 L 6 20 L 9 20 L 9 26 L 11 26 L 11 20.65625 L 13.0625 21.75 C 13.646799 22.060158 14.35354 22.058921 14.9375 21.75 L 18.46875 19.875 L 17.53125 18.125 L 14 19.96875 L 10.90625 18.34375 C 10.475078 18.116187 9.9895992 18 9.5 18 L 5 18 L 4 18 z" overflow="visible" font-family="Sans" fill="#000000"/></svg>
