<?xml version="1.0" encoding="utf-8"?>
<svg xmlns="http://www.w3.org/2000/svg" viewBox="0 0 32 32" fill="#000000"><path d="M 25 2 L 12 15 L 16 15 L 11 21 L 14 21 L 8 30 L 20 18 L 17 18 L 22 12 L 18 12 L 25 2 z M 16 5 C 9.935 5 5 9.935 5 16 C 5 19.491 6.6435 22.608 9.1875 24.625 L 10.25 23 L 10.25 22.90625 C 8.271 21.25425 7 18.773 7 16 C 7 11.038 11.037 7 16 7 C 16.372 7 16.73275 7.0185 17.09375 7.0625 L 18.8125 5.375 C 17.9165 5.139 16.968 5 16 5 z M 23.34375 7.84375 L 22.1875 9.5 C 23.9095 11.14 25 13.44 25 16 C 25 20.962 20.963 25 16 25 C 15.945 25 15.89875 25.001 15.84375 25 L 14.03125 26.8125 C 14.67525 26.9295 15.322 27 16 27 C 22.065 27 27 22.065 27 16 C 27 12.762 25.57775 9.85775 23.34375 7.84375 z" fill="#000000"/></svg>
