<?xml version="1.0" encoding="utf-8"?>
<svg xmlns="http://www.w3.org/2000/svg" viewBox="0 0 32 32" fill="#000000"><path style="text-indent:0;text-align:start;line-height:normal;text-transform:none;block-progression:tb;-inkscape-font-specification:Bitstream Vera Sans" d="M 16 6 C 9.9365932 6 5 10.936593 5 17 L 5 18 L 4 18 L 3 18 L 3 19 L 3 23 L 3 24 L 4 24 L 28 24 L 29 24 L 29 23 L 29 19 L 29 18 L 28 18 L 27 18 L 27 17 C 27 10.936593 22.063407 6 16 6 z M 16 8 C 20.982593 8 25 12.017407 25 17 L 25 19 L 25 20 L 26 20 L 27 20 L 27 22 L 5 22 L 5 20 L 6 20 L 7 20 L 7 19 L 7 17 C 7 12.017407 11.017407 8 16 8 z M 16 10 C 12.145666 10 9 13.145666 9 17 L 9 19 L 9 20 L 10 20 L 22 20 L 23 20 L 23 19 L 23 17 C 23 13.145666 19.854334 10 16 10 z M 16 12 C 18.773666 12 21 14.226334 21 17 L 21 18 L 11 18 L 11 17 C 11 14.226334 13.226334 12 16 12 z" overflow="visible" font-family="Bitstream Vera Sans" fill="#000000"/></svg>
