<?xml version="1.0" encoding="utf-8"?>
<svg xmlns="http://www.w3.org/2000/svg" viewBox="0 0 32 32" fill="#000000"><path style="text-indent:0;text-align:start;line-height:normal;text-transform:none;block-progression:tb;-inkscape-font-specification:Bitstream Vera Sans" d="M 21 4 C 17.42046 4 14.467351 6.7131931 14.0625 10.1875 L 6 21.59375 L 5.53125 22.28125 L 6.09375 22.875 L 6.90625 23.6875 L 4.28125 26.28125 L 5.71875 27.71875 L 8.28125 25.125 L 9.0625 25.90625 L 9.65625 26.5 L 10.375 26 L 21.84375 17.9375 C 25.30326 17.518728 28 14.568941 28 11 C 28 7.1458513 24.854148 4 21 4 z M 21 6 C 23.773268 6 26 8.2267317 26 11 C 26 12.015214 25.701876 12.963691 25.1875 13.75 L 18.25 6.8125 C 19.036309 6.2981237 19.984786 6 21 6 z M 16.8125 8.25 L 23.75 15.1875 C 22.963691 15.701876 22.015214 16 21 16 C 18.226732 16 16 13.773268 16 11 C 16 9.9847857 16.298124 9.0363087 16.8125 8.25 z M 14.375 13.1875 C 15.06838 15.263506 16.708968 16.92337 18.78125 17.625 L 9.90625 23.90625 L 8.125 22.0625 L 14.375 13.1875 z" overflow="visible" font-family="Bitstream Vera Sans" fill="#000000"/></svg>
