<?xml version="1.0" encoding="utf-8"?>
<svg xmlns="http://www.w3.org/2000/svg" viewBox="0 0 32 32" fill="#000000"><path style="text-indent:0;text-align:start;line-height:normal;text-transform:none;block-progression:tb;-inkscape-font-specification:Sans" d="M 8 9 L 7.6875 9.28125 L 1.6875 15.28125 L 1 16 L 1.6875 16.71875 L 7.6875 22.71875 L 8 23 L 8.40625 23 L 30 23 L 31 23 L 31 22 L 31 10 L 31 9 L 30 9 L 8.40625 9 L 8 9 z M 8.84375 11 L 29 11 L 29 21 L 8.84375 21 L 3.84375 16 L 8.84375 11 z M 10 14 C 8.8954305 14 8 14.895431 8 16 C 8 17.104569 8.8954305 18 10 18 C 11.104569 18 12 17.104569 12 16 C 12 14.895431 11.104569 14 10 14 z M 15 14 C 13.895431 14 13 14.895431 13 16 C 13 17.104569 13.895431 18 15 18 C 16.104569 18 17 17.104569 17 16 C 17 14.895431 16.104569 14 15 14 z M 20 14 C 18.895431 14 18 14.895431 18 16 C 18 17.104569 18.895431 18 20 18 C 21.104569 18 22 17.104569 22 16 C 22 14.895431 21.104569 14 20 14 z M 25 14 C 23.895431 14 23 14.895431 23 16 C 23 17.104569 23.895431 18 25 18 C 26.104569 18 27 17.104569 27 16 C 27 14.895431 26.104569 14 25 14 z" overflow="visible" font-family="Sans" fill="#000000"/></svg>
