<?xml version="1.0" encoding="utf-8"?>
<svg xmlns="http://www.w3.org/2000/svg" viewBox="0 0 32 32" fill="#000000"><path style="text-indent:0;text-align:start;line-height:normal;text-transform:none;block-progression:tb;-inkscape-font-specification:Bitstream Vera Sans" d="M 17.5 4 C 15.578848 4 14 5.5788481 14 7.5 C 14 9.4211519 15.578848 11 17.5 11 C 19.421152 11 21 9.4211519 21 7.5 C 21 5.5788481 19.421152 4 17.5 4 z M 17.5 6 C 18.340272 6 19 6.6597281 19 7.5 C 19 8.3402719 18.340272 9 17.5 9 C 16.659728 9 16 8.3402719 16 7.5 C 16 6.6597281 16.659728 6 17.5 6 z M 16.6875 11.03125 C 15.2115 11.03125 13.926 11.91025 13.375 13.28125 L 13 14.21875 C 12.666 15.04575 12.905 16.0075 13.625 16.5625 L 17.25 19.25 L 18.4375 17.625 L 14.84375 14.96875 L 15.21875 14.03125 C 15.46375 13.42325 16.0325 13.03125 16.6875 13.03125 L 18.625 13.03125 C 19.156 13.03125 19.6405 13.27975 19.9375 13.71875 L 21.46875 16 L 23.875 16 L 21.59375 12.625 C 20.92475 11.634 19.821 11.03125 18.625 11.03125 L 16.6875 11.03125 z M 7.5 16 C 5.5788481 16 4 17.578848 4 19.5 C 4 21.421152 5.5788481 23 7.5 23 C 9.4211519 23 11 21.421152 11 19.5 C 11 17.578848 9.4211519 16 7.5 16 z M 20.5 17 L 20.1875 17.40625 L 17.4375 21.09375 L 17.25 21.03125 L 17.125 21 L 17 21 L 11 21 L 11 23 L 16.875 23 L 20.75 23.96875 L 20.875 24 L 21 24 L 28 24 L 28 22 L 21.125 22 L 19.53125 21.59375 L 21.5 19 L 25.9375 19 L 25.9375 17 L 21 17 L 20.5 17 z M 7.5 18 C 8.3402719 18 9 18.659728 9 19.5 C 9 20.340272 8.3402719 21 7.5 21 C 6.6597281 21 6 20.340272 6 19.5 C 6 18.659728 6.6597281 18 7.5 18 z M 4 24 L 4 25 L 4 28 L 6 28 L 6 26 L 9.75 26 L 11.5625 26.90625 L 11.75 27 L 12 27 L 26 27 L 26 28 L 28 28 L 28 26 L 28 25 L 27 25 L 12.25 25 L 10.4375 24.09375 L 10.25 24 L 10 24 L 5 24 L 4 24 z" overflow="visible" font-family="Bitstream Vera Sans" fill="#000000"/></svg>
