<?xml version="1.0" encoding="utf-8"?>
<svg xmlns="http://www.w3.org/2000/svg" viewBox="0 0 32 32" fill="#000000"><path style="text-indent:0;text-align:start;line-height:normal;text-transform:none;block-progression:tb;-inkscape-font-specification:Sans" d="M 9 7 C 5.6983746 7 3 9.6983746 3 13 C 3 14.983599 3.9751172 16.74999 5.46875 17.84375 C 2.831147 19.154076 1 21.864226 1 25 L 3 25 C 3 21.674438 5.674438 19 9 19 C 12.325562 19 15 21.674438 15 25 L 17 25 C 17 21.898122 15.216489 19.201281 12.625 17.875 C 13.463464 17.406402 14.270576 16.859294 15 16.3125 C 16.73133 15.014652 18.03125 13.71875 18.03125 13.71875 L 18.75 13 L 18.0625 12.3125 C 18.0625 12.3125 16.782895 10.987677 15.0625 9.6875 C 13.342105 8.3873228 11.202343 7 9 7 z M 9 9 C 10.231657 9 12.256145 10.112677 13.84375 11.3125 C 14.969342 12.163159 15.372013 12.576229 15.8125 13 C 15.361074 13.426034 14.946237 13.837622 13.8125 14.6875 C 12.20883 15.889652 10.161898 17 9 17 C 6.7796254 17 5 15.220375 5 13 C 5 10.779625 6.7796254 9 9 9 z M 19 11 L 19 13 L 31 13 L 31 11 L 19 11 z M 19 15 L 19 17 L 31 17 L 31 15 L 19 15 z M 19 19 L 19 21 L 31 21 L 31 19 L 19 19 z" overflow="visible" font-family="Sans" fill="#000000"/></svg>
