<?xml version="1.0" encoding="utf-8"?>
<svg xmlns="http://www.w3.org/2000/svg" viewBox="0 0 32 32" fill="#000000"><path style="text-indent:0;text-align:start;line-height:normal;text-transform:none;block-progression:tb;-inkscape-font-specification:Sans" d="M 16 4 C 9.3844277 4 4 9.3844277 4 16 C 4 22.615572 9.3844277 28 16 28 C 22.615572 28 28 22.615572 28 16 C 28 9.3844277 22.615572 4 16 4 z M 16 6 C 21.534692 6 26 10.465308 26 16 C 26 21.534692 21.534692 26 16 26 C 10.465308 26 6 21.534692 6 16 C 6 10.465308 10.465308 6 16 6 z M 11.5 12 C 10.671573 12 10 12.671573 10 13.5 C 10 14.328427 10.671573 15 11.5 15 C 12.328427 15 13 14.328427 13 13.5 C 13 12.671573 12.328427 12 11.5 12 z M 20.5 12 C 19.671573 12 19 12.671573 19 13.5 C 19 14.328427 19.671573 15 20.5 15 C 21.328427 15 22 14.328427 22 13.5 C 22 12.671573 21.328427 12 20.5 12 z M 9.875 18 L 9.875 20 L 16 20 L 16 22 C 16 23.1 16.9 24 18 24 C 19.1 24 20 23.1 20 22 L 20 20 L 22 20 L 22 18 L 9.875 18 z" overflow="visible" font-family="Sans" fill="#000000"/></svg>
