<?xml version="1.0" encoding="utf-8"?>
<svg xmlns="http://www.w3.org/2000/svg" viewBox="0 0 32 32" fill="#000000"><path style="text-indent:0;text-align:start;line-height:normal;text-transform:none;block-progression:tb;-inkscape-font-specification:Bitstream Vera Sans" d="M 16 5 C 13.802706 5 12 6.8027056 12 9 C 12 11.197294 13.802706 13 16 13 C 18.197294 13 20 11.197294 20 9 C 20 6.8027056 18.197294 5 16 5 z M 16 7 C 17.116414 7 18 7.883586 18 9 C 18 10.116414 17.116414 11 16 11 C 14.883586 11 14 10.116414 14 9 C 14 7.883586 14.883586 7 16 7 z M 4.84375 8.5 L 3.15625 9.5 L 6.15625 14.5 L 6.3125 14.8125 L 6.625 14.9375 L 11.0625 16.71875 L 11.9375 23.5 L 10.21875 24.625 L 7.8125 21.40625 L 6.1875 22.59375 L 9.1875 26.59375 L 9.78125 27.34375 L 10.5625 26.84375 L 13.3125 25 L 18.6875 25 L 21.4375 26.84375 L 22.21875 27.34375 L 22.8125 26.59375 L 25.8125 22.59375 L 24.1875 21.40625 L 21.78125 24.625 L 20.0625 23.5 L 20.9375 16.71875 L 25.375 14.9375 L 25.6875 14.8125 L 25.84375 14.5 L 28.84375 9.5 L 27.15625 8.5 L 24.34375 13.15625 L 19.78125 15 L 12.21875 15 L 7.65625 13.15625 L 4.84375 8.5 z M 13.125 17 L 18.875 17 L 18.125 23 L 13.875 23 L 13.125 17 z" overflow="visible" font-family="Bitstream Vera Sans" fill="#000000"/></svg>
