<?xml version="1.0" encoding="utf-8"?>
<svg xmlns="http://www.w3.org/2000/svg" viewBox="0 0 32 32" fill="#000000"><path d="M 16 4 C 9.3844277 4 4 9.3844277 4 16 C 4 22.615572 9.3844277 28 16 28 C 22.615572 28 28 22.615572 28 16 C 28 13.971873 27.517437 12.052044 26.625 10.375 L 27.75 9.25 L 26.46875 7.96875 L 28.96875 5.4375 L 27.5625 4.03125 L 25.03125 6.53125 L 23.59375 5.09375 L 22.65625 6.03125 C 20.751909 4.7591345 18.456449 4 16 4 z M 16 6 C 21.534692 6 26 10.465308 26 16 C 26 16.991824 25.860997 17.940151 25.59375 18.84375 L 23.1875 17.0625 L 23 13.4375 L 20.1875 15.71875 L 17.03125 15.09375 L 17.96875 18.375 L 16.15625 21.53125 L 19.5 21.34375 L 21.625 23.9375 L 22.75 20.46875 L 25.5 19.09375 C 24.196702 23.100222 20.448827 26 16 26 C 12.830601 26 10.017868 24.540832 8.1875 22.25 L 9.75 22.90625 L 8.84375 19.71875 L 10 17.3125 L 7.59375 17 L 6.09375 14.75 C 6.4770521 11.645586 8.2613242 9.0166797 10.8125 7.46875 L 9.65625 9.53125 L 12.40625 8.875 L 14.15625 9.9375 L 14.6875 7.96875 L 17.15625 6.5625 L 15.46875 6.03125 C 15.644601 6.0221074 15.821819 6 16 6 z" fill="#000000"/></svg>
