<?xml version="1.0" encoding="utf-8"?>
<svg xmlns="http://www.w3.org/2000/svg" viewBox="0 0 32 32" fill="#000000"><path style="text-indent:0;text-align:start;line-height:normal;text-transform:none;block-progression:tb;-inkscape-font-specification:Sans" d="M 6 7 L 6 9 L 8.71875 9 C 8.1987383 10.114236 7 12.84352 7 16 L 9 16 C 9 12.880952 10.90625 8.9375 10.90625 8.9375 L 11 8.75 L 11 8.5 L 11 8 L 11 7 L 10 7 L 6 7 z M 15.5 7 C 14.130937 7 13 8.1309372 13 9.5 L 13 10 L 15 10 L 15 9.5 C 15 9.2130628 15.213063 9 15.5 9 C 15.786937 9 16 9.2130628 16 9.5 L 16 10.28125 C 16 10.811756 15.781376 11.31304 15.40625 11.6875 L 13.28125 13.8125 L 13 14.125 L 13 14.53125 L 13 15 L 13 16 L 14 16 L 18 16 L 18 14 L 15.9375 14 L 16.8125 13.125 C 17.563374 12.37546 18 11.342744 18 10.28125 L 18 9.5 C 18 8.1309372 16.869063 7 15.5 7 z M 22.5 7 C 21.130937 7 20 8.1309372 20 9.5 L 20 13.5 C 20 14.869063 21.130937 16 22.5 16 C 23.869063 16 25 14.869063 25 13.5 L 25 9.5 C 25 8.1309372 23.869063 7 22.5 7 z M 22.5 9 C 22.786937 9 23 9.2130628 23 9.5 L 23 13.5 C 23 13.786937 22.786937 14 22.5 14 C 22.213063 14 22 13.786937 22 13.5 L 22 9.5 C 22 9.2130628 22.213063 9 22.5 9 z M 2 18 L 2 25 L 2 26 L 3 26 L 29 26 L 30 26 L 30 25 L 30 18 L 28 18 L 28 20 L 27 20 L 27 22 L 28 22 L 28 24 L 4 24 L 4 22 L 5 22 L 5 20 L 4 20 L 4 18 L 2 18 z M 7 20 L 7 22 L 9 22 L 9 20 L 7 20 z M 11 20 L 11 22 L 13 22 L 13 20 L 11 20 z M 15 20 L 15 22 L 17 22 L 17 20 L 15 20 z M 19 20 L 19 22 L 21 22 L 21 20 L 19 20 z M 23 20 L 23 22 L 25 22 L 25 20 L 23 20 z" fill="#000000"/></svg>
