<?xml version="1.0" encoding="utf-8"?>
<svg xmlns="http://www.w3.org/2000/svg" viewBox="0 0 32 32" fill="#000000"><path style="text-indent:0;text-align:start;line-height:normal;text-transform:none;block-progression:tb;-inkscape-font-specification:Bitstream Vera Sans" d="M 9.5 3.8125 L 9 4.28125 C 9 4.28125 5 7.9249948 5 12.5625 C 5 17.846495 9.71875 20.15625 9.71875 20.15625 L 10.8125 20.6875 L 11.125 19.5 C 11.125 19.5 11.382003 18.420741 12.375 17.28125 C 13.367997 16.141759 15.005975 15 18 15 C 22.455109 15 25.566567 17.395786 26.53125 18.1875 C 25.761564 19.264261 22.892579 23 18 23 C 15.768983 23 14.276273 22.514962 13.375 22.125 C 14.66472 21.115513 16.001454 20.54563 17.21875 20.21875 C 19.788791 19.528618 21.78125 19.96875 21.78125 19.96875 L 22.21875 18.03125 C 22.21875 18.03125 21.593882 17.878223 20.59375 17.84375 C 19.593618 17.80928 18.207104 17.87319 16.6875 18.28125 C 13.648291 19.097368 9.9921545 21.357031 7.625 26.59375 L 9.4375 27.40625 C 10.154053 25.821061 10.973002 24.583583 11.84375 23.59375 C 12.79759 24.079094 14.9524 25 18 25 C 24.890898 25 28.84375 18.53125 28.84375 18.53125 L 29.28125 17.84375 L 28.6875 17.28125 C 28.6875 17.28125 24.149718 13 18 13 C 16.898378 13 15.961913 13.162458 15.09375 13.40625 C 15.239298 12.532292 15.3067 11.505632 15.03125 10.21875 C 14.113867 5.9285008 10.125 4.09375 10.125 4.09375 L 9.5 3.8125 z M 9.875 6.34375 C 10.658722 6.8006097 12.499562 7.9923527 13.0625 10.625 C 13.344466 11.942325 13.242641 12.973853 13.0625 13.65625 C 12.882359 14.338647 12.6875 14.59375 12.6875 14.59375 C 12.019087 15.036452 11.311225 15.46817 10.875 15.96875 C 10.76882 16.090595 10.683903 16.22423 10.59375 16.34375 C 10.536906 15.75381 10.493452 15.160882 10.5 14.59375 C 10.51683 13.136128 10.65625 11.96875 10.65625 11.96875 L 8.6875 11.6875 C 8.6875 11.6875 8.5184203 12.967122 8.5 14.5625 C 8.4919956 15.255772 8.5190091 16.022877 8.59375 16.78125 C 7.7789352 15.951579 7 14.656821 7 12.5625 C 7 9.6532803 9.1486841 7.1390647 9.875 6.34375 z" overflow="visible" font-family="Bitstream Vera Sans" fill="#000000"/></svg>
