<?xml version="1.0" encoding="utf-8"?>
<svg xmlns="http://www.w3.org/2000/svg" viewBox="0 0 32 32" fill="#000000"><path style="text-indent:0;text-align:start;line-height:normal;text-transform:none;block-progression:tb;-inkscape-font-specification:Bitstream Vera Sans" d="M 22 3 C 18.698375 3 16 5.6983746 16 9 C 16 9.992073 16.382292 11.003547 16.875 12.125 C 17.367708 13.246453 17.988373 14.433769 18.625 15.53125 C 19.898254 17.726212 21.1875 19.5625 21.1875 19.5625 L 22 20.75 L 22.8125 19.5625 C 22.8125 19.5625 24.101746 17.726212 25.375 15.53125 C 26.011627 14.433769 26.632292 13.246453 27.125 12.125 C 27.617708 11.003547 28 9.992073 28 9 C 28 5.6983746 25.301625 3 22 3 z M 11.96875 4.9375 L 4 8.34375 L 4 27.53125 L 12.03125 24.0625 L 20.03125 27.0625 L 28 23.65625 L 28 14.9375 C 27.363 16.1595 26.656 17.333 26 18.375 L 26 22.34375 L 21 24.46875 L 21 22.84375 L 19.53125 20.71875 C 19.37425 20.49075 19.192 20.2245 19 19.9375 L 19 24.5625 L 13 22.3125 L 13 7.4375 L 14.09375 7.84375 C 14.19175 7.16775 14.369 6.51725 14.625 5.90625 L 11.96875 4.9375 z M 22 5 C 24.220375 5 26 6.7796254 26 9 C 26 9.388427 25.757292 10.30011 25.3125 11.3125 C 24.867708 12.32489 24.238373 13.473856 23.625 14.53125 C 22.809524 15.93705 22.456405 16.438627 22 17.125 C 21.543595 16.438627 21.190476 15.93705 20.375 14.53125 C 19.761627 13.473856 19.132292 12.32489 18.6875 11.3125 C 18.242708 10.30011 18 9.388427 18 9 C 18 6.7796254 19.779625 5 22 5 z M 11 7.5 L 11 22.34375 L 6 24.46875 L 6 9.65625 L 11 7.5 z M 22 7.5 C 21.171573 7.5 20.5 8.1715729 20.5 9 C 20.5 9.8284271 21.171573 10.5 22 10.5 C 22.828427 10.5 23.5 9.8284271 23.5 9 C 23.5 8.1715729 22.828427 7.5 22 7.5 z" overflow="visible" font-family="Bitstream Vera Sans" fill="#000000"/></svg>
