<?xml version="1.0" encoding="utf-8"?>
<svg xmlns="http://www.w3.org/2000/svg" viewBox="0 0 32 32" fill="#000000"><path style="text-indent:0;text-align:start;line-height:normal;text-transform:none;block-progression:tb;-inkscape-font-specification:Bitstream Vera Sans" d="M 16 3.8125 L 15.4375 4.15625 L 13.9375 5.15625 L 13.53125 5.4375 L 13.5 5.96875 L 13.03125 20 L 12 20 L 11 20 L 11 21 L 11 23 L 10 23 L 9 23 L 9 24 L 9 26 L 7 26 L 7 28 L 25 28 L 25 26 L 23 26 L 23 24 L 23 23 L 22 23 L 21 23 L 21 21 L 21 20 L 20 20 L 18.96875 20 L 18.5 5.96875 L 18.46875 5.4375 L 18.0625 5.15625 L 16.5625 4.15625 L 16 3.8125 z M 16 6.21875 L 16.53125 6.5625 L 16.96875 20 L 15.03125 20 L 15.46875 6.5625 L 16 6.21875 z M 13 22 L 14 22 L 19 22 L 19 23 L 13 23 L 13 22 z M 11 25 L 21 25 L 21 26 L 11 26 L 11 25 z" overflow="visible" font-family="Bitstream Vera Sans" fill="#000000"/></svg>
