<?xml version="1.0" encoding="utf-8"?>
<svg xmlns="http://www.w3.org/2000/svg" viewBox="0 0 32 32" fill="#000000"><path d="M 16 4 C 14.05801 4 12.249032 4.4495968 10.625 5.1875 L 11.21875 6.5 L 14.4375 14.78125 C 14.173618 15.120134 14 15.537224 14 16 C 14 16.162234 14.026042 16.317714 14.0625 16.46875 L 8.25 22.25 C 8.0277291 21.972367 7.8154511 21.674535 7.625 21.375 L 5.9375 22.4375 C 8.0405414 25.74509 11.792944 28 16 28 C 22.595455 28 28 22.595455 28 16 C 28 9.4045455 22.595455 4 16 4 z M 16 6 C 21.170898 6 25.437598 9.9560475 25.9375 15 L 17.71875 15 C 17.422487 14.488971 16.918961 14.126489 16.3125 14.03125 L 14.78125 10.125 C 15.173428 10.045737 15.584063 10 16 10 C 16.955045 10 17.858478 10.23125 18.65625 10.625 L 19.53125 8.8125 C 18.465022 8.2862499 17.264955 8 16 8 C 15.332782 8 14.686979 8.0964793 14.0625 8.25 L 13.3125 6.34375 C 14.170886 6.119591 15.058337 6 16 6 z M 8.6875 8.53125 C 8.5505 10.87825 6.48525 9.08525 5.65625 11.15625 C 6.07025 13.22725 8.5625 14.875 8.5625 14.875 C 8.5625 14.875 5.039 13.821 4.625 11.75 C 1.399 10.234 0 13.21875 0 13.21875 C 0 13.21875 3.0255 12.2425 4.5625 16.6875 C 5.6525 19.8415 8.86175 19.2255 10.21875 17.9375 C 11.57675 16.6495 11.1805 14.46175 9.9375 13.21875 C 10.2135 12.11475 10.6205 10.74025 8.6875 8.53125 z M 17.71875 17 L 21.90625 17 C 21.435112 19.848043 18.986265 22 16 22 L 16 24 C 20.06487 24 23.438984 20.933205 23.9375 17 L 25.9375 17 C 25.437598 22.043952 21.170898 26 16 26 C 13.610769 26 11.412094 25.090621 9.6875 23.65625 L 15.4375 17.90625 C 15.617101 17.959193 15.803249 18 16 18 C 16.739604 18 17.372707 17.596896 17.71875 17 z" fill="#000000"/></svg>
