<?xml version="1.0" encoding="utf-8"?>
<svg xmlns="http://www.w3.org/2000/svg" viewBox="0 0 32 32" fill="#000000"><path style="text-indent:0;text-align:start;line-height:normal;text-transform:none;block-progression:tb;-inkscape-font-specification:Sans" d="M 16 3 C 15.030686 3 14.188021 3.4267199 13.5 4 C 12.152988 4 11.144937 4.8740301 10.5625 6 C 10.540375 5.9995377 10.522364 6 10.5 6 C 8.7246429 6 7.3086578 7.3730082 7.09375 9.09375 C 6.4647695 9.7234381 6 10.536581 6 11.5 C 6 11.671558 6.0149599 11.838528 6.03125 12 C 4.7391621 12.974613 4 14.40925 4 16 C 4 17.101 4.37725 18.147 5.03125 19 L 8 19 L 7.96875 18.84375 L 7.53125 18.59375 C 6.58225 18.05775 6 17.068 6 16 C 6 15.152315 6.3387459 14.553454 6.75 14.09375 C 7.4859562 15.270724 8.5 15.875 8.5 15.875 L 9.5 14.125 C 9.5 14.125 8 13.280141 8 11.5 C 8 11.008346 8.2229541 10.593053 8.59375 10.3125 L 9 10 L 9 9.5 C 9 8.6591883 9.6591883 8 10.5 8 C 10.601439 8 10.693282 8.00483 10.8125 8.03125 L 11.84375 8.25 L 12.03125 7.25 C 12.155574 6.5466992 12.752076 6 13.5 6 C 13.45921 6 13.5068 6.015615 13.65625 6.03125 L 14.15625 6.0625 L 14.5 5.6875 C 14.874404 5.2627216 15.401774 5 16 5 C 16.598226 5 17.125596 5.2627216 17.5 5.6875 L 17.84375 6.0625 L 18.34375 6.03125 C 18.493155 6.0156146 18.540788 6 18.5 6 C 19.247924 6 19.844426 6.5466992 19.96875 7.25 L 20.15625 8.25 L 21.1875 8.03125 C 21.306718 8.0048323 21.398561 8 21.5 8 C 22.340812 8 23 8.6591883 23 9.5 L 23 10 L 23.40625 10.3125 C 23.777046 10.593053 24 11.008346 24 11.5 C 24 13.280141 22.5 14.125 22.5 14.125 L 23.5 15.875 C 23.5 15.875 24.514044 15.270724 25.25 14.09375 C 25.661254 14.553454 26 15.152315 26 16 C 26 17.068 25.41775 18.05775 24.46875 18.59375 L 24.03125 18.84375 L 24 19 L 26.96875 19 C 27.62275 18.147 28 17.101 28 16 C 28 14.40925 27.260838 12.974613 25.96875 12 C 25.98504 11.838528 26 11.671558 26 11.5 C 26 10.536581 25.53523 9.7234381 24.90625 9.09375 C 24.691342 7.3730082 23.275357 6 21.5 6 C 21.477636 6 21.459625 5.9995377 21.4375 6 C 20.855063 4.8740301 19.847012 4 18.5 4 C 17.811979 3.4267199 16.969314 3 16 3 z M 11 14 C 11 17.024 13 17.71875 13 17.71875 C 13 17.71875 14.133 20 16 20 C 17.867 20 19 17.71875 19 17.71875 C 19 17.71875 21 17.025 21 14 L 19 14 C 19 14.552 18.552 15 18 15 C 17.448 15 17 14.552 17 14 L 15 14 C 15 14.552 14.552 15 14 15 C 13.448 15 13 14.552 13 14 L 11 14 z M 4 21 L 4 23 L 7.40625 23 C 7.5582234 23.4324 7.6228814 23.822031 8.25 24.625 C 9.0743806 25.680545 10.493354 26.734705 12.53125 26.9375 C 13.219214 28.156593 14.509784 29 16 29 C 17.490216 29 18.780786 28.156593 19.46875 26.9375 C 21.506646 26.734705 22.925619 25.680545 23.75 24.625 C 24.377119 23.822031 24.441777 23.4324 24.59375 23 L 28 23 L 28 21 L 24 21 L 23.21875 21 L 23.03125 21.75 C 23.03125 21.75 22.835197 22.545682 22.1875 23.375 C 21.706337 23.991086 21.038435 24.608462 20 24.875 C 19.999963 24.873806 19.968788 24.876194 19.96875 24.875 C 19.900253 22.736244 18.154391 21 16 21 C 13.845609 21 12.099747 22.736244 12.03125 24.875 C 12.021233 24.872507 12.009949 24.877554 12 24.875 C 10.961565 24.608462 10.293663 23.991086 9.8125 23.375 C 9.1648025 22.545682 8.96875 21.75 8.96875 21.75 L 8.78125 21 L 8 21 L 4 21 z M 16 23 C 17.116414 23 18 23.883586 18 25 C 18 26.116414 17.116414 27 16 27 C 14.883586 27 14 26.116414 14 25 C 14 23.883586 14.883586 23 16 23 z" overflow="visible" font-family="Sans" fill="#000000"/></svg>
