<?xml version="1.0" encoding="utf-8"?>
<svg xmlns="http://www.w3.org/2000/svg" viewBox="0 0 32 32" fill="#000000"><path style="text-indent:0;text-align:start;line-height:normal;text-transform:none;block-progression:tb;-inkscape-font-specification:Sans" d="M 4 6 L 4 7 L 4 25 L 4 26 L 5 26 L 6 26 L 6 27 L 10 27 L 10 26 L 16.28125 26 C 17.179122 29.43473 20.294028 32 24 32 C 28.4 32 32 28.4 32 24 C 32 21.055246 30.385609 18.482487 28 17.09375 L 28 14 L 29 14 L 29 11 L 28 11 L 28 7 L 28 6 L 27 6 L 5 6 L 4 6 z M 6 8 L 26 8 L 26 16.28125 C 25.356768 16.113103 24.694028 16 24 16 C 24 13.250484 21.749516 11 19 11 C 16.250484 11 14 13.250484 14 16 C 14 17.969167 15.144304 19.686097 16.8125 20.5 C 16.292168 21.559492 16 22.745577 16 24 L 6 24 L 6 8 z M 9 12 C 8.448 12 8 12.448 8 13 L 8 19 C 8 19.552 8.448 20 9 20 C 9.552 20 10 19.552 10 19 L 10 13 C 10 12.448 9.552 12 9 12 z M 19 13 C 20.668484 13 22 14.331516 22 16 C 22 16.097324 21.977654 16.186541 21.96875 16.28125 C 20.374664 16.704277 18.981097 17.591465 17.9375 18.8125 C 16.807278 18.384541 16 17.291018 16 16 C 16 14.331516 17.331516 13 19 13 z M 19 15 C 18.447715 15 18 15.447715 18 16 C 18 16.552285 18.447715 17 19 17 C 19.552285 17 20 16.552285 20 16 C 20 15.447715 19.552285 15 19 15 z M 24 18 C 27.3 18 30 20.7 30 24 C 30 27.3 27.3 30 24 30 C 20.7 30 18 27.3 18 24 C 18 20.7 20.7 18 24 18 z M 27.3125 21.3125 L 24 24.59375 L 21.6875 22.3125 L 20.3125 23.6875 L 24 27.40625 L 28.6875 22.6875 L 27.3125 21.3125 z" overflow="visible" font-family="Sans" fill="#000000"/></svg>
