<?xml version="1.0" encoding="utf-8"?>
<svg xmlns="http://www.w3.org/2000/svg" viewBox="0 0 32 32" fill="#000000"><path style="text-indent:0;text-align:start;line-height:normal;text-transform:none;block-progression:tb;-inkscape-font-specification:Sans" d="M 3 6 L 3 7 L 3 25 L 3 26 L 4 26 L 28 26 L 29 26 L 29 25 L 29 7 L 29 6 L 28 6 L 4 6 L 3 6 z M 5 8 L 27 8 L 27 24 L 5 24 L 5 8 z M 14.5 12 C 13.129545 12 12 13.129545 12 14.5 L 12 16.5 C 12 17.870455 13.129545 19 14.5 19 C 15.870455 19 17 17.870455 17 16.5 L 15 16.5 C 15 16.779545 14.779545 17 14.5 17 C 14.220455 17 14 16.779545 14 16.5 L 14 14.5 C 14 14.220455 14.220455 14 14.5 14 C 14.779545 14 15 14.220455 15 14.5 L 17 14.5 C 17 13.129545 15.870455 12 14.5 12 z M 21.5 12 C 20.131133 12 19 13.131133 19 14.5 C 19 14.818077 19.045311 15.125054 19.15625 15.40625 C 18.459673 15.852583 18 16.620766 18 17.5 C 18 18.868867 19.131133 20 20.5 20 C 21.868867 20 23 18.868867 23 17.5 C 23 17.181923 22.954689 16.874946 22.84375 16.59375 C 23.540327 16.147417 24 15.379234 24 14.5 C 24 13.131133 22.868867 12 21.5 12 z M 8.90625 12.59375 L 7.09375 13.40625 L 7.9375 15.40625 L 9.78125 14.59375 L 8.90625 12.59375 z M 21.5 14 C 21.787987 14 22 14.212013 22 14.5 C 22 14.787987 21.787987 15 21.5 15 C 21.212013 15 21 14.787987 21 14.5 C 21 14.212013 21.212013 14 21.5 14 z M 10.21875 15.59375 L 8.375 16.40625 L 10.09375 20.40625 L 11.90625 19.59375 L 10.21875 15.59375 z M 20.5 17 C 20.787987 17 21 17.212013 21 17.5 C 21 17.787987 20.787987 18 20.5 18 C 20.212013 18 20 17.787987 20 17.5 C 20 17.212013 20.212013 17 20.5 17 z" fill="#000000"/></svg>
