<?xml version="1.0" encoding="utf-8"?>
<svg xmlns="http://www.w3.org/2000/svg" viewBox="0 0 32 32" fill="#000000"><path style="text-indent:0;text-align:start;line-height:normal;text-transform:none;block-progression:tb;-inkscape-font-specification:Sans" d="M 4 4 L 4 5 L 4 27 L 4 28 L 5 28 L 27 28 L 28 28 L 28 27 L 28 5 L 28 4 L 27 4 L 18 4 C 18 5.1166661 17.116666 6 16 6 C 14.883334 6 14 5.1166661 14 4 L 5 4 L 4 4 z M 6 6 L 12.5625 6 C 13.259389 7.1851852 14.535111 8 16 8 C 17.464889 8 18.740611 7.1851852 19.4375 6 L 26 6 L 26 26 L 6 26 L 6 6 z M 16 10 C 12.145852 10 9 13.145852 9 17 C 9 20.854148 12.145852 24 16 24 C 19.854148 24 23 20.854148 23 17 C 23 13.145852 19.854148 10 16 10 z M 16 12 C 18.773268 12 21 14.226732 21 17 C 21 19.773268 18.773268 22 16 22 C 13.226732 22 11 19.773268 11 17 C 11 14.226732 13.226732 12 16 12 z M 15 13 L 15 17.59375 L 13.3125 19.3125 L 14.6875 20.6875 L 17 18.40625 L 17 13 L 15 13 z" overflow="visible" font-family="Sans" fill="#000000"/></svg>
