<?xml version="1.0" encoding="utf-8"?>
<svg xmlns="http://www.w3.org/2000/svg" viewBox="0 0 32 32" fill="#000000"><path d="M 13.59375 4.40625 C 10.89375 5.30625 9 7.7 9 10.5 C 9 11.5 9.2875 12.50625 9.6875 13.40625 C 8.6875 13.40625 7.7125 13.6875 6.8125 14.1875 C 4.4125 15.5875 3.2125 18.4125 3.8125 21.3125 L 5.8125 20.90625 C 5.4125 18.90625 6.2125 16.90625 7.8125 15.90625 C 9.9125 14.70625 12.7875 15.6 14.1875 18 C 14.8875 19.2 15.1125 20.5125 14.8125 21.8125 C 14.5125 23.0125 13.8125 23.99375 12.8125 24.59375 C 11.2125 25.49375 9 25.2125 7.5 23.8125 L 6.1875 25.3125 C 7.4875 26.5125 9.2125 27.09375 10.8125 27.09375 C 11.9125 27.09375 12.90625 26.8125 13.90625 26.3125 C 14.80625 25.8125 15.5 25.0875 16 24.1875 C 16.5 25.0875 17.19375 25.8125 18.09375 26.3125 C 18.99375 26.8125 20.0875 27.09375 21.1875 27.09375 C 22.7875 27.09375 24.5125 26.5125 25.8125 25.3125 L 24.5 23.8125 C 23 25.2125 20.7875 25.49375 19.1875 24.59375 C 18.1875 23.99375 17.4875 23.0125 17.1875 21.8125 C 16.8875 20.5125 17.1125 19.2 17.8125 18 C 19.2125 15.6 21.9875 14.70625 24.1875 15.90625 C 25.7875 16.80625 26.5875 18.80625 26.1875 20.90625 L 28.1875 21.3125 C 28.6875 18.4125 27.49375 15.5875 25.09375 14.1875 C 24.19375 13.6875 23.1875 13.40625 22.1875 13.40625 C 22.6875 12.50625 22.90625 11.6 22.90625 10.5 C 22.90625 7.7 20.9875 5.30625 18.1875 4.40625 L 17.59375 6.3125 C 19.59375 6.9125 20.90625 8.6 20.90625 10.5 C 20.90625 13 18.70625 15 15.90625 15 C 13.10625 15 10.90625 13 10.90625 10.5 C 10.90625 8.6 12.1875 6.9125 14.1875 6.3125 L 13.59375 4.40625 z M 16 10 C 14.9 10 13.9 10.1875 13 10.6875 C 13.1 11.3875 13.4 12.00625 14 12.40625 C 14.6 12.10625 15.30625 12 15.90625 12 C 16.50625 12 17.2125 12.10625 17.8125 12.40625 C 18.4125 12.00625 18.8125 11.3875 18.8125 10.6875 C 18.1125 10.1875 17.1 10 16 10 z M 16 16 C 16.6 16 17 16.4 17 17 C 17 17.6 16.6 18 16 18 C 15.4 18 15 17.6 15 17 C 15 16.4 15.4 16 16 16 z M 9.96875 17.3125 C 9.63125 17.2875 9.3 17.35 9 17.5 C 9.2 19.6 10.3 21.4875 12 22.6875 C 12.5 22.3875 12.80625 21.9125 12.90625 21.3125 L 12.90625 20.90625 C 11.90625 20.10625 11.2 18.99375 11 17.59375 C 10.65 17.44375 10.30625 17.3375 9.96875 17.3125 z M 22.09375 17.40625 C 21.69375 17.40625 21.3 17.4875 21 17.6875 C 20.8 18.9875 20.1 20.2 19 21 L 19 21.40625 C 19.1 22.00625 19.50625 22.5125 19.90625 22.8125 C 21.70625 21.6125 22.8 19.69375 23 17.59375 C 22.7 17.49375 22.39375 17.40625 22.09375 17.40625 z" fill="#000000"/></svg>
