<?xml version="1.0" encoding="utf-8"?>
<svg xmlns="http://www.w3.org/2000/svg" viewBox="0 0 32 32" fill="#000000"><path style="text-indent:0;text-align:start;line-height:normal;text-transform:none;block-progression:tb;-inkscape-font-specification:Bitstream Vera Sans" d="M 4 5 L 4 6 L 4 26 L 4 27 L 5 27 L 27 27 L 28 27 L 28 26 L 28 6 L 28 5 L 27 5 L 5 5 L 4 5 z M 6 7 L 13 7 L 13 25 L 6 25 L 6 7 z M 15 7 L 26 7 L 26 25 L 15 25 L 15 7 z M 8 9 C 7.4477153 9 7 9.4477153 7 10 C 7 10.552285 7.4477153 11 8 11 C 8.5522847 11 9 10.552285 9 10 C 9 9.4477153 8.5522847 9 8 9 z M 11 9 C 10.447715 9 10 9.4477153 10 10 C 10 10.552285 10.447715 11 11 11 C 11.552285 11 12 10.552285 12 10 C 12 9.4477153 11.552285 9 11 9 z M 7 12 L 7 14 L 12 14 L 12 12 L 7 12 z" overflow="visible" font-family="Bitstream Vera Sans" fill="#000000"/></svg>
