<?xml version="1.0" encoding="utf-8"?>
<svg xmlns="http://www.w3.org/2000/svg" viewBox="0 0 32 32" fill="#000000"><path style="text-indent:0;text-align:start;line-height:normal;text-transform:none;block-progression:tb;-inkscape-font-specification:Sans" d="M 6 3 L 6 4 L 6 10 L 8 10 L 8 5 L 24 5 L 24 10 L 26 10 L 26 4 L 26 3 L 25 3 L 7 3 L 6 3 z M 9.21875 12 L 9 12.6875 L 7.0625 18.6875 L 7 18.84375 L 7 19 L 7 20 L 9 20 L 9 19.125 L 9.03125 19 L 10.96875 19 L 11 19.125 L 11 20 L 13 20 L 13 19 L 13 18.84375 L 12.9375 18.6875 L 11 12.6875 L 10.78125 12 L 10.0625 12 L 9.9375 12 L 9.21875 12 z M 14 12 L 14 13 L 14 20 L 16 20 L 16 18 C 17.64497 18 19 16.64497 19 15 C 19 13.35503 17.64497 12 16 12 L 15 12 L 14 12 z M 20 12 L 20 18 L 20 20 L 22 20 L 22 18 L 22.125 17.78125 L 23 20 L 25 20 L 23.21875 15.5625 L 25 12 L 23 12 L 22 14 L 22 12 L 20 12 z M 16 14 C 16.56503 14 17 14.43497 17 15 C 17 15.56503 16.56503 16 16 16 L 16 14 z M 10 16.0625 L 10.3125 17 L 9.6875 17 L 10 16.0625 z M 6 22 L 6 28 L 6 29 L 7 29 L 25 29 L 26 29 L 26 28 L 26 22 L 24 22 L 24 27 L 8 27 L 8 22 L 6 22 z" fill="#000000"/></svg>
