<?xml version="1.0" encoding="utf-8"?>
<svg xmlns="http://www.w3.org/2000/svg" viewBox="-3 5 32 32" fill="#000000"><path d="M 14 2 C 12.367 2 8.23375 3.07725 7.21875 6.40625 C 6.20575 6.04425 5.19625 6.006 5.03125 6 L 3.3125 5.9375 L 4.125 7.46875 C 4.139 7.49475 5.4495 10.03325 5.9375 13.65625 C 4.6925 15.08525 4 17.007 4 19 C 4 21.821 6.333 24.11775 7 24.71875 L 7 24.75 L 7.09375 24.8125 C 7.12975 24.8435 7.1785 24.867 7.1875 24.875 L 7.21875 24.90625 C 8.37475 25.87725 11.107 26.6825 11.125 26.6875 L 11.40625 26.75 C 13.13625 29.479 17.70325 29.98 17.90625 30 L 18.96875 30.09375 L 19 28.75 C 19.083 26.632 19.454 24.9655 19.75 23.9375 C 20.523 23.8865 21.59875 23.787 22.34375 23.25 C 26.41575 20.755 27.90775 15.44375 27.96875 15.21875 L 28.78125 12.25 L 26.375 14.15625 C 26.342 14.18325 23.71975 16.26 20.21875 17.25 C 20.12075 16.551 19.862 15.8035 19.5 15.0625 C 18.594 13.2045 17.226 12 16 12 C 15.718 12 15.4375 12.0725 15.1875 12.1875 C 14.9665 12.2895 14.787 12.42475 14.625 12.59375 C 15.669 13.13075 16.683 14.00525 17.5 15.15625 C 18.068 15.95625 18.47075 16.77875 18.71875 17.59375 C 18.38675 17.64975 18.05875 17.68875 17.71875 17.71875 C 17.49675 17.05475 17.1495 16.36975 16.6875 15.71875 C 15.5075 14.05875 13.85375 13 12.46875 13 C 11.97475 13 11.511 13.128 11.125 13.375 C 10.268 13.918 9.87125 14.95575 10.03125 16.21875 C 10.11025 16.84075 10.33125 17.50025 10.65625 18.15625 C 9.19525 18.49425 8.30725 19.34475 7.78125 20.09375 C 7.42425 20.60275 7.169 21.16775 7 21.71875 C 6.471 20.95875 6 19.999 6 19 C 6 17.381 6.64975 15.78775 7.71875 14.71875 L 8.0625 14.375 L 8 14 L 10 14 C 10 13.169 10.65625 13.017 11.03125 13 L 10.96875 11 C 9.7950885 11.024615 8.0692442 11.813727 8 13.875 C 7.742 11.57 7.14425 9.65175 6.65625 8.34375 C 6.91025 8.44175 7.13325 8.56975 7.28125 8.71875 L 9 10.40625 L 9 8 C 9 5.948 10.71625 4.90525 12.15625 4.40625 C 12.04425 4.88925 12 5.412 12 6 L 12 9.5625 L 13.84375 6.53125 C 14.28875 5.79925 15.629 5 17 5 C 17.953 5 18.7815 5.3675 19.4375 5.8125 C 18.9055 5.8355 18.315 5.89425 17.75 6.03125 L 14.84375 6.71875 L 17.59375 7.90625 C 18.99675 8.51025 19.59575 9.773 19.84375 10.875 C 18.44075 9.982 16.364 9 14 9 L 14 11 C 17.397 11 20.2835 13.69075 20.3125 13.71875 L 21.78125 15.125 L 22 13.09375 C 22.017 12.93075 22.274 9.9905 20.625 7.8125 C 21.297 7.8635 21.77125 7.96675 21.78125 7.96875 L 24.125 8.5 L 22.84375 6.46875 C 22.75475 6.32575 20.652 3 17 3 C 16.333 3 15.68375 3.1175 15.09375 3.3125 L 16.40625 2 L 14 2 z M 12.46875 15 C 13.07275 15 14.1895 15.67825 15.0625 16.90625 C 15.9045 18.09125 16.06875 19.08375 15.96875 19.59375 C 15.93575 19.76075 15.86725 19.8825 15.78125 19.9375 C 15.68525 19.9985 15.554 19.99975 15.375 19.96875 C 15.436 19.95075 15.48425 19.94525 15.53125 19.90625 C 15.89725 19.60425 15.653 18.742 15 18 C 14.347 17.257 13.5525 16.8845 13.1875 17.1875 C 12.9065 17.4205 12.9665 17.9815 13.3125 18.5625 C 13.1875 18.4185 13.0555 18.29 12.9375 18.125 C 12.4215 17.397 12.11525 16.62675 12.03125 15.96875 C 11.97425 15.52075 12.04575 15.1715 12.21875 15.0625 C 12.28175 15.0225 12.36075 15 12.46875 15 z M 24.84375 17.5 C 24.08175 18.921 22.93825 20.5595 21.28125 21.5625 L 21.1875 21.625 C 20.8285 21.897 19.78875 21.94375 19.34375 21.96875 C 19.15575 21.97975 18.987 21.988 18.875 22 L 18.25 22.09375 L 18.0625 22.6875 C 17.5525 24.1895 17.1995 25.99775 17.0625 27.84375 C 15.6475 27.53375 13.62475 26.80575 12.96875 25.46875 L 12.78125 25.09375 L 11.6875 24.75 C 11.0305 24.561 9.51875 24.04325 8.71875 23.53125 C 8.70075 23.05925 8.83475 21.99425 9.46875 21.15625 C 10.03075 20.41325 10.85125 20.02 11.90625 20 C 13.01025 21.228 14.36625 22 15.53125 22 C 16.02425 22 16.484 21.873 16.875 21.625 C 17.434 21.269 17.7975 20.716 17.9375 20 C 17.9545 19.911 17.95875 19.81175 17.96875 19.71875 C 20.66775 19.46675 23.09375 18.444 24.84375 17.5 z M 13.6875 18 C 13.866516 18.001547 14.0635 18.121 14.21875 18.34375 C 14.42675 18.64175 14.46925 19.002 14.28125 19.125 C 14.09325 19.249 13.7695 19.1095 13.5625 18.8125 C 13.3555 18.5155 13.34325 18.15425 13.53125 18.03125 C 13.57825 18.00025 13.627828 17.999484 13.6875 18 z M 12.34375 21.90625 C 12.020078 21.933145 11.654 22.0245 11.28125 22.3125 C 10.83125 22.6605 10.84375 23.34375 10.84375 23.34375 C 10.84375 23.34375 11.54025 23.0695 11.90625 22.9375 C 12.43025 22.9375 13.22975 24.23175 14.09375 25.21875 C 14.92475 26.16775 16.625 26.8125 16.625 26.8125 C 16.607 24.6335 17.28125 23 17.28125 23 C 17.28125 23 16.96775 23.03125 15.59375 23.03125 C 14.21975 23.03125 12.5625 22.7555 12.5625 22.5625 L 13.28125 22.03125 C 13.28125 22.03125 12.883203 21.861426 12.34375 21.90625 z M 14.03125 23.46875 C 14.46425 23.52275 14.8125 23.96875 14.8125 23.96875 C 14.8125 23.96875 14.90225 23.6355 15.15625 23.6875 C 15.70325 23.7985 15.59375 25.40625 15.59375 25.40625 C 15.59375 25.40625 14.8855 25.28425 14.3125 24.53125 C 14.1275 24.28825 14.0695 24.195 13.9375 24 C 13.8745 23.907 13.78225 23.43875 14.03125 23.46875 z" transform="translate(-3 5)" fill="#000000"/></svg>
