<?xml version="1.0" encoding="utf-8"?>
<svg xmlns="http://www.w3.org/2000/svg" viewBox="0 0 32 32" fill="#000000"><path style="text-indent:0;text-align:start;line-height:normal;text-transform:none;block-progression:tb;-inkscape-font-specification:Bitstream Vera Sans" d="M 11.09375 5.96875 L 10.78125 6.03125 C 4.3142411 7.4675097 3.03125 13.8125 3.03125 13.8125 L 3 13.90625 L 3 14 L 3 25 L 3 26 L 4 26 L 28 26 L 29 26 L 29 25 L 29 21 L 29 20 L 28 20 C 27.43497 20 27 19.56503 27 19 C 27 18.43497 27.43497 18 28 18 L 29 18 L 29 17 L 29 14 L 29 13.34375 L 28.375 13.0625 L 11.375 6.0625 L 11.09375 5.96875 z M 10.96875 8.09375 L 13.75 9.25 C 13.307849 9.4334274 13 9.6902899 13 10 C 13 10.552285 13.895431 11 15 11 C 15.759391 11 16.411321 10.780475 16.75 10.46875 L 22.90625 13 L 5.375 13 C 5.9753921 11.520767 7.4680026 8.9983156 10.96875 8.09375 z M 5 15 L 8.09375 15 C 8.040108 15.154319 8 15.327411 8 15.5 C 8 16.328427 8.6715729 17 9.5 17 C 10.328427 17 11 16.328427 11 15.5 C 11 15.327411 10.959892 15.154319 10.90625 15 L 27 15 L 27 16.40625 C 25.890472 16.848273 25 17.74133 25 19 C 25 20.25867 25.890472 21.151727 27 21.59375 L 27 24 L 14.71875 24 C 14.889508 23.705456 15 23.364965 15 23 C 15 21.895431 14.104569 21 13 21 C 11.895431 21 11 21.895431 11 23 C 11 23.364965 11.110492 23.705456 11.28125 24 L 5 24 L 5 15 z M 19.5 17 C 18.671573 17 18 17.671573 18 18.5 C 18 19.328427 18.671573 20 19.5 20 C 20.328427 20 21 19.328427 21 18.5 C 21 17.671573 20.328427 17 19.5 17 z" overflow="visible" font-family="Bitstream Vera Sans" fill="#000000"/></svg>
