<?xml version="1.0" encoding="utf-8"?>
<svg xmlns="http://www.w3.org/2000/svg" viewBox="0 0 32 32" fill="#000000"><path style="text-indent:0;text-align:start;line-height:normal;text-transform:none;block-progression:tb;-inkscape-font-specification:Bitstream Vera Sans" d="M 9 3 L 9 5 C 10.127298 5 11.971137 5.721926 13.5625 6.90625 C 14.7358 7.7794432 15.772514 8.8768181 16.4375 10.03125 C 16.189258 10.158221 15.937311 10.311909 15.6875 10.5 C 14.83003 9.1375437 13.623614 8.1090815 12.375 7.40625 C 10.629764 6.423875 8.8292684 6 7.4375 6 C 6.6793483 6 5.9145336 6.3334186 5.5 6.90625 C 5.0854664 7.4790814 5 8.1204783 5 8.75 C 5 9.4852962 5.213591 10.294024 5.625 11.21875 C 6.036409 12.143476 6.6546443 13.131251 7.5 14 C 8.2762115 14.797691 9.3049215 15.445751 10.5 15.8125 C 9.6371367 17.027694 9 18.731215 9 21 C 9 22.859777 9.5703029 24.562586 10.53125 25.84375 C 11.492197 27.124914 12.897025 28 14.5 28 C 15.712565 28 17.265181 27.531436 18.78125 26.5625 C 20.297319 25.593564 21.751113 24.069724 22.28125 21.9375 C 22.633018 20.524695 22.538151 19.436793 22.40625 18.65625 C 22.512685 18.61638 22.514682 18.65175 22.625 18.59375 C 23.297834 18.239844 24 17.346421 24 16.125 C 24 15.709649 23.93457 15.31616 23.84375 14.96875 C 23.989451 14.962863 24.137107 14.981859 24.28125 14.96875 C 25.641563 14.845033 27.033964 14.463118 27.6875 13.1875 L 27.71875 13.1875 L 27.71875 13.15625 C 28.284505 12.010881 27.998773 10.736453 27.375 9.5625 C 26.751227 8.3885472 25.71225 7.286041 24.34375 6.5625 L 24.34375 6.53125 L 24.3125 6.53125 C 23.761349 6.2524897 23.188837 6.0923271 22.625 6.03125 C 22.061163 5.9701729 21.52264 6.0234056 21 6.1875 C 19.95472 6.5156889 19.09474 7.2698082 18.5625 8.3125 C 18.430101 8.5718785 18.333034 8.8486676 18.25 9.125 C 17.419308 7.6130152 16.141086 6.316524 14.75 5.28125 C 12.902863 3.906574 10.851702 3 9 3 z M 25.9375 3.03125 L 21.78125 4.03125 L 22.21875 5.96875 L 26.40625 4.96875 L 25.9375 3.03125 z M 7.4375 8 C 8.3807316 8 9.9812363 8.354125 11.40625 9.15625 C 12.622049 9.8406102 13.715539 10.82369 14.34375 12.15625 C 14.235684 12.430534 14.195209 12.674725 14.15625 12.90625 C 14.13796 13.014944 14.103839 13.124142 14.09375 13.21875 C 13.584142 13.374968 12.912678 13.654815 12.15625 14.1875 C 10.798232 14.134982 9.781314 13.492165 8.9375 12.625 C 8.2922307 11.961874 7.7957473 11.141243 7.46875 10.40625 C 7.1417527 9.6712569 7 8.9802038 7 8.75 C 7 8.3365217 7.0982836 8.0994186 7.125 8.0625 C 7.1517164 8.0255814 7.1066517 8 7.4375 8 z M 22 8 C 22.377943 7.9584146 22.801456 8.0318634 23.28125 8.25 C 23.11298 8.3134968 22.94283 8.4186495 22.8125 8.5625 C 22.1715 9.2115 22.39875 10.38225 23.09375 11.03125 C 23.78775 11.67925 25.1535 11.915 25.6875 11.375 C 25.745013 11.311145 25.802368 11.231601 25.84375 11.15625 C 26.000668 11.680589 25.998662 12.094163 25.90625 12.28125 C 25.795305 12.469869 25.096048 12.877594 24.09375 12.96875 C 23.076313 13.06128 21.87715 12.864255 21.21875 12.53125 C 19.887942 11.858156 19.692943 10.524972 20.34375 9.25 C 20.66651 8.6176918 21.08953 8.2520611 21.59375 8.09375 C 21.719805 8.0541722 21.862279 8.0151536 22 8 z M 18.15625 11.46875 C 18.404834 12.63677 19.097134 13.697793 20.3125 14.3125 C 20.711477 14.514294 21.141249 14.669396 21.59375 14.78125 C 21.7571 15.057072 22 15.521561 22 16.125 C 22 16.716579 21.870666 16.716156 21.6875 16.8125 C 21.504334 16.90884 21.28125 16.9375 21.28125 16.9375 L 20.90625 16.9375 C 18.418463 16.442701 17.318485 15.415529 16.75 14.53125 C 16.256528 13.763655 16.201576 13.247607 16.1875 13.0625 C 16.289773 12.743979 16.429798 12.408816 16.6875 12.1875 C 17.253037 11.701915 17.769011 11.524957 18.15625 11.46875 z M 15.09375 15.65625 C 15.939102 16.950171 17.59278 18.309884 20.4375 18.90625 C 20.482527 19.192223 20.499257 19.540867 20.5 19.96875 C 17.324725 19.863654 15.311022 18.883963 14.0625 17.90625 C 13.318012 17.323244 12.88616 16.777235 12.625 16.40625 C 12.726809 16.30613 12.834011 16.212151 12.9375 16.125 C 12.943362 16.120063 12.962886 16.129898 12.96875 16.125 C 13.646102 16.079665 14.354251 15.918145 15.09375 15.65625 z M 11.5 18.15625 C 11.849768 18.564862 12.272388 19.021319 12.84375 19.46875 C 14.362181 20.657827 16.759798 21.805773 20.21875 21.96875 C 20.081592 22.347615 19.86941 22.675733 19.65625 23 C 16.324917 22.950192 14.085274 22.19242 12.6875 21.46875 C 11.722675 20.969231 11.283716 20.615901 11.03125 20.375 C 11.086102 19.48765 11.260172 18.75893 11.5 18.15625 z M 11.28125 22.9375 C 11.452068 23.038806 11.588259 23.150083 11.78125 23.25 C 13.139009 23.952953 15.091414 24.616816 17.71875 24.875 C 16.513069 25.645564 15.106435 26 14.5 26 C 13.617975 26 12.792803 25.546586 12.125 24.65625 C 11.774569 24.189044 11.480062 23.596469 11.28125 22.9375 z" overflow="visible" font-family="Bitstream Vera Sans" fill="#000000"/></svg>
