<?xml version="1.0" encoding="utf-8"?>
<svg xmlns="http://www.w3.org/2000/svg" viewBox="0 0 32 32" fill="#000000"><path d="M 16 3 C 15.599 3 15.2045 3.0245469 14.8125 3.0605469 C 14.7625 3.0655469 14.710156 3.0633594 14.660156 3.0683594 C 14.478156 3.0873594 14.302047 3.1243906 14.123047 3.1503906 C 13.939047 3.1773906 13.755219 3.2023281 13.574219 3.2363281 C 13.498219 3.2503281 13.420703 3.2574375 13.345703 3.2734375 C 13.322703 3.2784375 13.300344 3.2850625 13.277344 3.2890625 C 13.274344 3.2900625 13.271578 3.2919688 13.267578 3.2929688 C 12.907578 3.3709687 12.553078 3.4672188 12.205078 3.5742188 C 12.196078 3.5772188 12.187687 3.5770781 12.179688 3.5800781 C 12.151687 3.5890781 12.124703 3.6023281 12.095703 3.6113281 C 11.795703 3.7073281 11.501937 3.8136875 11.210938 3.9296875 C 11.163937 3.9466875 11.115359 3.9614688 11.068359 3.9804688 C 11.004359 4.0064687 10.937047 4.0257344 10.873047 4.0527344 L 10.867188 4.0566406 C 10.831188 4.0766406 10.794813 4.0962344 10.757812 4.1152344 C 10.602813 4.1842344 10.450828 4.2609375 10.298828 4.3359375 C 10.224828 4.3699375 10.150125 4.3995469 10.078125 4.4355469 C 10.073125 4.4385469 10.0675 4.4403594 10.0625 4.4433594 L 10.080078 4.4433594 C 9.7430781 4.6163594 9.41275 4.8 9.09375 5 L 13.5 5 C 13.616 5 13.72975 5.0076719 13.84375 5.0136719 C 13.89775 5.0126719 13.946 5 14 5 C 16.228 5 18.092281 6.3208125 18.738281 8.1328125 C 18.755281 8.1758125 18.768203 8.2187187 18.783203 8.2617188 C 18.832203 8.4157187 18.883062 8.5694688 18.914062 8.7304688 C 18.967062 8.9814687 19 9.237 19 9.5 C 19 9.753 18.966969 9.9982344 18.917969 10.240234 C 18.706969 11.381234 18.020875 12.367875 17.046875 13.046875 C 17.036875 13.046875 17.141562 13.572953 17.351562 14.001953 C 17.615562 14.538953 18 15 18 15 C 18 13.343 19.343 12 21 12 L 25 12 L 25 16 L 24 16 C 24 14.895 23.105 14 22 14 C 20.895 14 20 14.895 20 16 C 20 16.617 20.27875 17.168156 20.71875 17.535156 C 20.97875 17.752156 22.062938 18.515203 22.835938 19.033203 C 26.000937 20.999203 26 22 26 23 L 26 24.304688 C 27.535 22.457687 28.558859 20.174828 28.880859 17.673828 C 28.906859 17.472828 28.928313 17.275984 28.945312 17.083984 C 28.975313 16.725984 29 16.366 29 16 C 29 15.562 28.977547 15.130125 28.935547 14.703125 C 28.920547 14.557125 28.891094 14.414531 28.871094 14.269531 C 28.834094 13.992531 28.800094 13.716313 28.746094 13.445312 C 28.711094 13.269312 28.661141 13.098781 28.619141 12.925781 C 28.562141 12.692781 28.508453 12.458469 28.439453 12.230469 C 28.383453 12.044469 28.314 11.865594 28.25 11.683594 C 28.177 11.477594 28.108391 11.269359 28.025391 11.068359 C 27.946391 10.877359 27.856531 10.692859 27.769531 10.505859 C 27.684531 10.323859 27.601812 10.140891 27.507812 9.9628906 C 27.405812 9.7698906 27.292641 9.5815313 27.181641 9.3945312 C 27.087641 9.2355312 26.994531 9.0749219 26.894531 8.9199219 C 26.768531 8.7259219 26.633094 8.5395156 26.496094 8.3535156 C 26.397094 8.2175156 26.298359 8.0792656 26.193359 7.9472656 C 26.041359 7.7552656 25.88075 7.5697187 25.71875 7.3867188 C 25.61775 7.2727188 25.515156 7.1598281 25.410156 7.0488281 C 25.231156 6.8618281 25.046422 6.6809062 24.857422 6.5039062 C 24.757422 6.4109063 24.657687 6.3185156 24.554688 6.2285156 C 24.348688 6.0485156 24.137922 5.8730781 23.919922 5.7050781 C 23.824922 5.6320781 23.727859 5.5602344 23.630859 5.4902344 C 23.395859 5.3202344 23.156156 5.1569531 22.910156 5.0019531 C 22.823156 4.9469531 22.735484 4.8947969 22.646484 4.8417969 C 22.383484 4.6857969 22.115797 4.5344844 21.841797 4.3964844 C 21.763797 4.3574844 21.684469 4.3212031 21.605469 4.2832031 C 21.314469 4.1442031 21.019797 4.0125313 20.716797 3.8945312 C 20.650797 3.8685313 20.583578 3.8472656 20.517578 3.8222656 C 20.197578 3.7032656 19.873016 3.594 19.541016 3.5 C 19.491016 3.486 19.440625 3.4749375 19.390625 3.4609375 C 19.039625 3.3669375 18.684266 3.28375 18.322266 3.21875 C 18.293266 3.21375 18.263375 3.2100781 18.234375 3.2050781 C 17.850375 3.1380781 17.463359 3.0866875 17.068359 3.0546875 C 16.715359 3.0256875 16.361 3 16 3 z M 8 5.7714844 C 7.921 5.8314844 7.842625 5.892125 7.765625 5.953125 C 7.525625 6.143125 7.3021719 6.3554531 7.0761719 6.5644531 C 4.5941719 8.9124531 3.0338594 12.221391 3.0058594 15.900391 C 3.0078594 16.045391 3.0115781 16.190937 3.0175781 16.335938 C 3.0205781 16.467938 3.0301094 16.597516 3.0371094 16.728516 C 3.0891094 17.527516 3.2034375 18.332719 3.3984375 19.136719 C 3.4024375 19.151719 3.4042031 19.166641 3.4082031 19.181641 C 3.4952031 19.537641 3.6056094 19.890141 3.7246094 20.244141 C 3.8086094 20.486141 3.8893281 20.729844 3.9863281 20.964844 C 4.0203281 21.049844 4.0616562 21.13375 4.0976562 21.21875 C 4.4116563 21.93475 4.7828438 22.618766 5.2148438 23.259766 C 5.2178438 23.263766 5.2216094 23.269437 5.2246094 23.273438 C 7.5606094 26.728437 11.514 29 16 29 C 16.129 29 16.252859 28.983469 16.380859 28.980469 C 16.338859 28.974469 16.297531 28.970844 16.269531 28.964844 C 14.998531 28.775844 14 27.082 14 25 C 14 24.427 14.055828 23.953547 14.173828 23.560547 C 14.463828 22.363547 15.101672 21.452812 15.888672 21.132812 C 15.918672 21.119812 15.949469 21.108656 15.980469 21.097656 C 16.039469 21.077656 16.098203 21.055969 16.158203 21.042969 C 16.268203 21.016969 16.382 21 16.5 21 C 16.584 21 16.651078 21.007484 16.705078 21.021484 C 17.435078 21.121484 18 21.742 18 22.5 C 18 23.328 17.328 24 16.5 24 C 16.41 24 16.322328 23.989609 16.236328 23.974609 C 16.096328 24.295609 16 24.635 16 25 C 16 26.657 17.567 28 19.5 28 C 21.433 28 23 26.657 23 25 C 23 24.014 22.437078 23.146609 21.580078 22.599609 C 21.584078 22.597609 21.59375 22.59375 21.59375 22.59375 C 14.95275 17.84375 13 13 13 13 C 14.217 13 15.260469 12.272469 15.730469 11.230469 C 15.734469 11.222469 15.739141 11.214078 15.744141 11.205078 C 15.762141 11.165078 15.775016 11.122078 15.791016 11.080078 C 15.918016 10.797078 16 10.491391 16 10.150391 C 16 10.122391 15.993187 10.095359 15.992188 10.068359 C 15.993187 10.044359 16 10.023 16 10 C 16 9.492 15.861672 9.0215625 15.638672 8.6015625 C 15.157672 7.6355625 14.221 7 13 7 L 11 7 L 11 18 C 11 19 12 19 12 19 L 12 20 L 7 20 L 7 19 C 7 19 8 19 8 18 L 8 5.7714844 z" fill="#000000"/></svg>
