<?xml version="1.0" encoding="utf-8"?>
<svg xmlns="http://www.w3.org/2000/svg" viewBox="-7 9 32 32" fill="#000000"><path d="M 9 4 L 11 7 L 12 7 L 12.40625 7.8125 C 12.30625 7.9125 12.1 7.9 12 8 L 9 8 L 8 7 L 6.1875 6.90625 L 4 5 L 6 8 L 7 8 L 9 10 L 9.40625 10 C 8.30625 10.8 6.3 12 4 12 L 4 14 C 8.3 14 11.5875 10.7875 11.6875 10.6875 C 13.2875 9.0875 15 9 15 9 C 15.8 9 16.6 9.2125 17 9.3125 L 17 10 L 18 10 C 19.2 10 20.4 10.3 21 10.5 L 21 11 L 16 11 C 14.3 11 13 12.3 13 14 C 13 15.3 13.80625 16.3125 14.90625 16.8125 C 14.10625 17.8125 14 18.9 14 19 L 14 26.09375 C 14.1 27.09375 14.8 29 17 29 L 17 27 C 16.2 27 16 26.20625 16 25.90625 L 16 19 C 16 19 16.0875 17.5 18.1875 17 L 19 16.8125 L 19 19 L 21 19 L 21 16.40625 L 22 16.1875 L 22 18 L 24 18 L 24 16 L 24 15 L 24 14 L 23 14 C 21.3 14 16.70625 14.8 15.90625 15 C 15.50625 15 15 14.6 15 14 C 15 13.7 15.1 13 16 13 L 23 13 C 24.2 13 24.9 11.99375 25 11.09375 L 25 11 C 25 9.7 23.70625 9.1 22.40625 9 C 21.40625 8.3 19.59375 8.1 18.59375 8 C 17.89375 7.2 16.2 7 15 7 L 14 7 L 13 6 L 11.1875 5.90625 L 9 4 z M 27 8 L 27 8.3125 C 27 9.3125 27.00625 11.30625 26.40625 11.90625 C 26.30625 11.90625 26.2 12 26 12 L 26 14 C 26.7 14 27.4125 13.7125 27.8125 13.3125 C 29.0125 12.1125 29 9.9125 29 8.3125 L 29 8 L 27 8 z M 7.40625 14.3125 C 7.00625 14.6125 5.4 14.9 4 15 L 4.09375 17 C 4.89375 17 7.7125 16.7875 8.8125 15.6875 L 7.40625 14.3125 z M 7.40625 17.3125 C 7.00625 17.6125 5.4 17.9 4 18 L 4.09375 20 C 4.89375 20 7.7125 19.7875 8.8125 18.6875 L 7.40625 17.3125 z M 7.40625 20.3125 C 7.00625 20.6125 5.4 20.9 4 21 L 4.09375 23 C 4.89375 23 7.7125 22.7875 8.8125 21.6875 L 7.40625 20.3125 z M 7.40625 23.3125 C 7.00625 23.6125 5.4 23.9 4 24 L 4.09375 26 C 4.89375 26 7.7125 25.7875 8.8125 24.6875 L 7.40625 23.3125 z M 7.40625 26.3125 C 7.00625 26.6125 5.4 26.9 4 27 L 4.09375 29 C 4.89375 29 7.7125 28.7875 8.8125 27.6875 L 7.40625 26.3125 z" transform="translate(-7 9)" fill="#000000"/></svg>
