<?xml version="1.0" encoding="utf-8"?>
<svg xmlns="http://www.w3.org/2000/svg" viewBox="0 0 32 32" fill="#000000"><path style="text-indent:0;text-align:start;line-height:normal;text-transform:none;block-progression:tb;-inkscape-font-specification:Bitstream Vera Sans" d="M 24.75 1.375 L 23.65625 3.03125 C 25.218369 4.0420331 26.515386 5.433945 27.4375 7.09375 L 29.1875 6.125 C 28.109614 4.184805 26.587881 2.5642169 24.75 1.375 z M 23.0625 3.875 L 21.9375 5.53125 C 23.141029 6.3644627 24.127712 7.3406835 24.84375 8.59375 L 26.5625 7.59375 C 25.678538 6.0468165 24.458971 4.8417873 23.0625 3.875 z M 17 5 C 12.570085 5 9 8.5700855 9 13 L 11 13 C 11 9.6299145 13.629915 7 17 7 C 20.370085 7 23 9.6299145 23 13 C 23 15.245918 22.346875 16.472344 21.625 17.6875 C 20.903125 18.902656 20 20.166667 20 22 C 20 23.654545 18.654545 25 17 25 L 17 27 C 19.745455 27 22 24.745455 22 22 C 22 20.833333 22.596875 20.028594 23.375 18.71875 C 24.153125 17.408906 25 15.654082 25 13 C 25 8.5700855 21.429915 5 17 5 z M 17 8 C 14.254545 8 12 10.254545 12 13 L 14 13 C 14 11.345455 15.345455 10 17 10 C 18.654545 10 20 11.345455 20 13 L 22 13 C 22 10.254545 19.745455 8 17 8 z M 17 13 C 16.447715 13 16 13.447715 16 14 C 16 14.552285 16.447715 15 17 15 C 17.552285 15 18 14.552285 18 14 C 18 13.447715 17.552285 13 17 13 z M 14 16 C 13.447715 16 13 16.447715 13 17 C 13 17.552285 13.447715 18 14 18 C 14.552285 18 15 17.552285 15 17 C 15 16.447715 14.552285 16 14 16 z M 10.21875 17.9375 L 9.03125 19.15625 L 11.84375 21.96875 L 13.0625 20.78125 L 10.21875 17.9375 z M 8 22 C 7.4477153 22 7 22.447715 7 23 C 7 23.552285 7.4477153 24 8 24 C 8.5522847 24 9 23.552285 9 23 C 9 22.447715 8.5522847 22 8 22 z M 5 25 C 4.4477153 25 4 25.447715 4 26 C 4 26.552285 4.4477153 27 5 27 C 5.5522847 27 6 26.552285 6 26 C 6 25.447715 5.5522847 25 5 25 z" overflow="visible" font-family="Bitstream Vera Sans" fill="#000000"/></svg>
