<?xml version="1.0" encoding="utf-8"?>
<svg xmlns="http://www.w3.org/2000/svg" viewBox="-7 9 32 32" fill="#000000"><path style="text-indent:0;text-align:start;line-height:normal;text-transform:none;block-progression:tb;-inkscape-font-specification:Sans" d="M 16 3.96875 C 15.103602 3.96875 14.315526 4.42453 13.75 4.96875 C 13.184474 5.51297 12.763832 6.167841 12.375 6.84375 C 11.597336 8.195568 10.921705 9.640795 10.28125 10.28125 C 9.6288588 10.933641 8.1610613 11.67342 6.78125 12.625 C 5.4014387 13.57658 3.96875 14.953439 3.96875 17 C 3.96875 17.720513 3.897813 19.187578 4.6875 20.5625 C 5.4216864 21.84079 6.9809568 22.860785 9.4375 23 C 10.356415 24.348028 13.368811 28.03125 19 28.03125 C 25.686822 28.03125 28.03125 24.372327 28.03125 22 C 28.03125 20.233362 27.130332 18.915699 25.96875 18.21875 C 24.807168 17.521801 23.463413 17.269843 22.21875 17 C 21.408132 16.824258 20.899196 16.668256 20.5 16.53125 C 21.457507 14.885657 22.03125 13.012096 22.03125 11 C 22.03125 7.689651 20.543316 5.742068 19.03125 4.84375 C 17.519184 3.945432 16 3.96875 16 3.96875 z M 16 6.03125 C 16 6.03125 16.980816 6.00682 17.96875 6.59375 C 18.956684 7.180682 19.96875 8.251349 19.96875 11 C 19.96875 13.698884 18.660767 16.197915 16.71875 18.03125 C 14.776733 19.864585 12.22818 20.96875 10 20.96875 C 9.4190971 20.96875 8.9374886 20.916849 8.53125 20.84375 C 9.5617378 20.266689 10.826256 19.494956 12.125 18.5 C 14.985599 16.308521 18.03125 13.096883 18.03125 9 L 15.96875 9 C 15.96875 12.049117 13.514401 14.852979 10.875 16.875 C 9.1359155 18.207297 7.484802 19.124795 6.5 19.625 C 6.4884552 19.60586 6.4798221 19.581778 6.46875 19.5625 C 6.0369373 18.810672 6.03125 17.772487 6.03125 17 C 6.03125 15.863561 6.7533113 15.12917 7.9375 14.3125 C 9.1216887 13.49583 10.627141 12.810359 11.71875 11.71875 C 12.822295 10.615205 13.458914 9.055932 14.15625 7.84375 C 14.504918 7.237659 14.867151 6.74578 15.1875 6.4375 C 15.507849 6.12922 15.718398 6.03125 16 6.03125 z M 19.25 18.28125 C 19.767161 18.489141 20.545663 18.732125 21.78125 19 C 23.036587 19.272157 24.192832 19.540699 24.90625 19.96875 C 25.619668 20.396801 25.96875 20.808638 25.96875 22 C 25.96875 23.043673 24.979178 25.96875 19 25.96875 C 15.275185 25.96875 12.997636 24.153588 11.84375 22.84375 C 13.044591 22.610382 14.227519 22.154503 15.34375 21.53125 C 15.582254 21.6654 15.860549 21.801029 16.1875 21.9375 C 17.534894 22.49991 19.685428 23.03125 23 23.03125 L 23 20.96875 C 20.207815 20.96875 18.466746 20.582426 17.375 20.1875 C 17.637147 19.973143 17.877881 19.73329 18.125 19.5 C 18.528172 19.11939 18.893055 18.711601 19.25 18.28125 z" transform="translate(-7 9)" overflow="visible" font-family="Sans" fill="#000000"/></svg>
