<?xml version="1.0" encoding="utf-8"?>
<svg xmlns="http://www.w3.org/2000/svg" viewBox="0 0 32 32" fill="#000000"><path style="text-indent:0;text-align:start;line-height:normal;text-transform:none;block-progression:tb;-inkscape-font-specification:Sans" d="M 4 4 L 4 5 L 4 27.03125 L 4 28.03125 L 5 28.03125 L 27.03125 28.03125 L 28.03125 28.03125 L 28.03125 27.03125 L 28.03125 5 L 28.03125 4 L 27.03125 4 L 5 4 L 4 4 z M 6 6 L 26.03125 6 L 26.03125 26.03125 L 6 26.03125 L 6 6 z M 8.03125 14.03125 L 8.03125 15.03125 L 8 21 L 8 22 L 9 22 L 18.625 22 L 20.34375 23.5625 L 22 25.0625 L 22 22.8125 L 22 22 L 22.96875 22 L 23.96875 22 L 23.96875 21 L 24 15.03125 L 24 14.03125 L 23 14.03125 L 9.03125 14.03125 L 8.03125 14.03125 z M 10.03125 16.03125 L 22 16.03125 L 21.96875 20 L 21 20 L 20 20 L 20 20.5625 L 19.65625 20.25 L 19.375 20 L 19 20 L 10 20 L 10.03125 16.03125 z M 11 17 L 11 19 L 13 19 L 13 17 L 11 17 z M 15 17 L 15 19 L 17 19 L 17 17 L 15 17 z M 19 17 L 19 19 L 21 19 L 21 17 L 19 17 z" overflow="visible" font-family="Sans" fill="#000000"/></svg>
