<?xml version="1.0" encoding="utf-8"?>
<svg xmlns="http://www.w3.org/2000/svg" viewBox="0 0 32 32" fill="#000000"><path style="text-indent:0;text-align:start;line-height:normal;text-transform:none;block-progression:tb;-inkscape-font-specification:Sans" d="M 20 2.96875 L 20 5.21875 L 20 7.6875 C 16.720149 6.290029 12.64313 7.0443698 9.84375 9.84375 C 7.0476332 12.639867 6.2955208 16.716164 7.6875 20 L 5.21875 20 L 2.96875 20 L 4.46875 21.65625 L 5.8125 23.15625 L 4.3125 26.28125 L 4 26.9375 L 4.5 27.4375 L 4.5625 27.5 L 5.0625 28 L 5.6875 27.6875 L 8.84375 26.1875 L 10.34375 27.53125 L 12 29.03125 L 12 26.78125 L 12 24.3125 C 15.283836 25.704479 19.360133 24.952367 22.15625 22.15625 C 24.955631 19.35687 25.709971 15.279851 24.3125 12 L 26.78125 12 L 29.03125 12 L 27.53125 10.34375 L 26.1875 8.84375 L 27.6875 5.71875 L 28 5.0625 L 27.5 4.5625 L 27.4375 4.5 L 26.9375 4 L 26.3125 4.3125 L 23.15625 5.8125 L 21.65625 4.46875 L 20 2.96875 z M 24.71875 7.28125 L 24.09375 8.5625 L 23.8125 9.15625 L 24.25 9.65625 L 24.5625 10 L 23.09375 10 C 22.932476 9.8053955 22.775867 9.588367 22.59375 9.40625 C 22.411633 9.224133 22.194604 9.0675244 22 8.90625 L 22 7.4375 L 22.34375 7.75 L 22.84375 8.1875 L 23.4375 7.90625 L 24.71875 7.28125 z M 16.34375 9 C 18.134057 8.9286004 19.865288 9.5527871 21.15625 10.84375 C 23.738176 13.425675 23.613361 17.824138 20.71875 20.71875 C 17.824138 23.613361 13.425675 23.738176 10.84375 21.15625 C 8.2618242 18.574325 8.3866388 14.175862 11.28125 11.28125 C 12.728556 9.8339444 14.553443 9.0713996 16.34375 9 z M 15 12 L 15 14.25 L 13.09375 13.09375 L 12.0625 14.8125 L 14.0625 16 L 12.0625 17.1875 L 13.09375 18.90625 L 15 17.75 L 15 20 L 17 20 L 17 17.75 L 18.90625 18.90625 L 19.9375 17.1875 L 17.9375 16 L 19.9375 14.8125 L 18.90625 13.09375 L 17 14.25 L 17 12 L 15 12 z M 7.4375 22 L 8.875 22 C 9.0437733 22.205836 9.2143686 22.401869 9.40625 22.59375 C 9.5981314 22.785631 9.7941644 22.956227 10 23.125 L 10 24.5625 L 9.65625 24.25 L 9.15625 23.8125 L 8.5625 24.09375 L 7.28125 24.71875 L 7.90625 23.4375 L 8.1875 22.84375 L 7.75 22.34375 L 7.4375 22 z" fill="#000000"/></svg>
