<?xml version="1.0" encoding="utf-8"?>
<svg xmlns="http://www.w3.org/2000/svg" viewBox="0 0 32 32" fill="#000000"><path style="text-indent:0;text-align:start;line-height:normal;text-transform:none;block-progression:tb;-inkscape-font-specification:Bitstream Vera Sans" d="M 13 5 L 13 6 L 13 16 C 11.263428 17.051776 10 18.82923 10 21 C 10 24.301625 12.698375 27 16 27 C 19.301625 27 22 24.301625 22 21 C 22 18.82923 20.736572 17.051776 19 16 L 19 15 L 21 15 L 21 13 L 19 13 L 19 11 L 21 11 L 21 9 L 19 9 L 19 7 L 21 7 L 21 5 L 19 5 L 18 5 L 14 5 L 13 5 z M 15 7 L 17 7 L 17 16.4375 L 17 17.0625 L 17.59375 17.34375 C 19.004394 17.961107 20 19.353147 20 21 C 20 23.220375 18.220375 25 16 25 C 13.779625 25 12 23.220375 12 21 C 12 19.353147 12.995606 17.961107 14.40625 17.34375 L 15 17.0625 L 15 16.4375 L 15 7 z" overflow="visible" font-family="Bitstream Vera Sans" fill="#000000"/></svg>
