<?xml version="1.0" encoding="utf-8"?>
<svg xmlns="http://www.w3.org/2000/svg" viewBox="0 0 32 32" fill="#000000"><path style="text-indent:0;text-align:start;line-height:normal;text-transform:none;block-progression:tb;-inkscape-font-specification:Sans" d="M 16 4 C 9.3845336 4 4 9.3845336 4 16 C 4 22.615466 9.3845336 28 16 28 C 16.401405 28 17.004695 27.93976 17.40625 27.90625 C 17.597684 27.95422 17.79559 28 18 28 C 18.565863 28 19.150586 27.807974 19.59375 27.46875 C 24.473845 25.94308 28 21.369846 28 16 C 28 9.3845336 22.615466 4 16 4 z M 16 6 C 21.534534 6 26 10.465466 26 16 C 26 19.762602 23.905109 23.010889 20.84375 24.71875 C 20.986979 23.681293 21 22.451841 21 21 C 21 19.81121 20.356701 18.783111 19.4375 18.09375 C 18.518299 17.404389 17.307156 17 16 17 C 14.692844 17 13.481701 17.404389 12.5625 18.09375 C 11.643299 18.783111 11 19.81121 11 21 C 11 21.958965 11.184367 22.862767 11.65625 23.625 C 12.128133 24.387233 12.999832 25 14 25 C 14.527151 25 14.882793 24.789397 15.21875 24.5625 C 15.27379 24.970101 15.23638 25.249896 15.375 25.6875 C 15.405262 25.783035 15.464888 25.871836 15.5 25.96875 C 10.199059 25.709313 6 21.366802 6 16 C 6 10.465466 10.465466 6 16 6 z M 9.59375 13.21875 L 8.40625 14.78125 C 8.40625 14.78125 9.914756 16 12 16 C 14.085244 16 15.59375 14.78125 15.59375 14.78125 L 14.40625 13.21875 C 14.40625 13.21875 13.296756 14 12 14 C 10.703244 14 9.59375 13.21875 9.59375 13.21875 z M 17.59375 13.21875 L 16.40625 14.78125 C 16.40625 14.78125 17.914756 16 20 16 C 22.085244 16 23.59375 14.78125 23.59375 14.78125 L 22.40625 13.21875 C 22.40625 13.21875 21.296756 14 20 14 C 18.703244 14 17.59375 13.21875 17.59375 13.21875 z M 16 19 C 16.901844 19 17.690201 19.291111 18.21875 19.6875 C 18.747299 20.083889 19 20.53179 19 21 C 19 22.901212 18.93748 24.375535 18.71875 25.1875 C 18.609384 25.593483 18.461717 25.791213 18.375 25.875 C 18.288283 25.958787 18.250083 26 18 26 C 17.822006 26 17.77904 25.97576 17.65625 25.84375 C 17.53346 25.711738 17.390538 25.43876 17.28125 25.09375 C 17.062674 24.403731 17 23.466303 17 23 C 17 22.780588 16.9945 22.626826 16.90625 22.34375 C 16.86215 22.202212 16.800597 21.98988 16.53125 21.78125 C 16.261903 21.57262 15.801227 21.519283 15.5625 21.59375 C 15.085045 21.742685 15.068207 21.918768 14.96875 22.03125 C 14.86929 22.143732 14.768939 22.240672 14.6875 22.34375 C 14.361742 22.756064 14.022322 23 14 23 C 13.706168 23 13.579617 22.924267 13.375 22.59375 C 13.170383 22.263233 13 21.670035 13 21 C 13 20.53179 13.252701 20.083889 13.78125 19.6875 C 14.309799 19.291111 15.098156 19 16 19 z" overflow="visible" font-family="Sans" fill="#000000"/></svg>
