<?xml version="1.0" encoding="utf-8"?>
<svg xmlns="http://www.w3.org/2000/svg" viewBox="0 0 32 32" fill="#000000"><path style="text-indent:0;text-align:start;line-height:normal;text-transform:none;block-progression:tb;-inkscape-font-specification:Sans" d="M 23.625 3.0625 L 22.90625 3.6875 L 7.5625 17 L 7.0625 17.46875 L 7.3125 18.125 C 7.3125 18.125 8.4361935 21.126307 6.28125 23.28125 L 6.28125 23.3125 L 6.25 23.34375 L 6.09375 23.53125 L 5.96875 23.65625 L 2 27.53125 L 7.375 29 L 9.375 27 L 9.4375 26.9375 L 9.65625 26.75 L 9.6875 26.71875 L 9.71875 26.71875 C 11.873693 24.563807 14.875 25.6875 14.875 25.6875 L 15.53125 25.9375 L 16 25.4375 L 29.3125 10.09375 L 29.9375 9.375 L 29.28125 8.71875 L 24.28125 3.71875 L 23.625 3.0625 z M 23.5 5.8125 L 27.1875 9.5 L 18.4375 19.5625 L 13.4375 14.5625 L 23.5 5.8125 z M 11.9375 15.875 L 17.125 21.0625 L 15.1875 23.3125 L 9.6875 17.8125 L 11.9375 15.875 z M 9.5625 20.5 L 12.5 23.4375 C 11.258917 23.485493 9.752912 23.873165 8.34375 25.25 C 8.325065 25.26826 8.299849 25.26265 8.28125 25.28125 L 8.03125 25.5 L 7.5 24.96875 L 7.71875 24.71875 L 7.75 24.65625 C 9.1268354 23.247088 9.5145066 21.741083 9.5625 20.5 z" overflow="visible" font-family="Sans" fill="#000000"/></svg>
