<?xml version="1.0" encoding="utf-8"?>
<svg xmlns="http://www.w3.org/2000/svg" viewBox="0 0 32 32" fill="#000000"><path d="M 11.375 4.03125 C 9.6439159 4.0841272 7.1591956 4.7335733 3.375 6.65625 L 4.28125 8.4375 C 8.433455 6.3278448 10.790215 5.9503409 11.9375 6.03125 C 12.511142 6.071705 12.789344 6.2101898 12.9375 6.3125 C 12.97683 6.339662 12.97701 6.355894 13 6.375 L 13 9 L 10.90625 9 C 10.015047 9 9.174227 9.4317081 8.65625 10.15625 L 6.625 13 L 4 13 L 4 15 L 5.1875 15 L 5.03125 15.21875 C 4.3555887 16.165893 4 17.304242 4 18.46875 L 4 24 A 1.0001 1.0001 0 0 0 4 24.09375 L 4 26 C 4 26.552 4.448 27 5 27 L 8 27 L 8.5 25.5 C 8.8594441 25.543745 9.2300793 25.583124 9.625 25.625 L 9.71875 25.71875 L 9.78125 25.65625 C 11.605735 25.845838 13.711902 26 16 26 C 18.288098 26 20.394265 25.845838 22.21875 25.65625 L 22.28125 25.71875 L 22.375 25.625 C 22.769921 25.583124 23.140556 25.543745 23.5 25.5 L 24 27 L 27 27 C 27.552 27 28 26.552 28 26 L 28 24.125 A 1.0001 1.0001 0 0 0 28 24 L 28 18.46875 C 28 17.304242 27.644411 16.165893 26.96875 15.21875 L 26.8125 15 L 28 15 L 28 13 L 25.375 13 L 23.34375 10.15625 C 22.825773 9.4317081 21.984953 9 21.09375 9 L 19 9 L 19 6.375 C 19.02299 6.355894 19.02317 6.339662 19.0625 6.3125 C 19.210656 6.2101898 19.488858 6.0717045 20.0625 6.03125 C 21.209785 5.950341 23.566545 6.3278448 27.71875 8.4375 L 28.625 6.65625 C 24.300205 4.4589052 21.686465 3.9079091 19.9375 4.03125 C 19.063017 4.09292 18.39325 4.341529 17.9375 4.65625 C 17.48175 4.970971 17.193049 5.382446 17.15625 5.4375 L 17 5.6875 L 17 6 L 17 9 L 15 9 L 15 6 L 15 5.6875 L 14.84375 5.4375 C 14.80695 5.382446 14.51825 4.970971 14.0625 4.65625 C 13.60675 4.341529 12.936983 4.0929205 12.0625 4.03125 C 11.843879 4.0158324 11.622298 4.0236961 11.375 4.03125 z M 10.90625 11 L 21.09375 11 C 21.340547 11 21.574727 11.111042 21.71875 11.3125 L 22.9375 13 L 9.0625 13 L 10.28125 11.3125 C 10.425273 11.111042 10.659453 11 10.90625 11 z M 7.65625 15 L 24.34375 15 L 25.0625 16 C 25.041519 16.000024 25.019042 15.996958 25 16 C 21.812 16.514 22 17 22 17 C 22 17 22.3385 17.49275 22.9375 17.84375 C 23.2805 18.04575 23.71125 18.018 24.03125 18 C 24.35125 17.982 25.024 17.92675 25.875 17.84375 C 25.904662 17.840823 25.910141 17.816108 25.9375 17.8125 C 25.975901 18.028271 26 18.248179 26 18.46875 L 26 23.125 C 25.277726 23.236923 24.198007 23.379057 22.96875 23.53125 L 20.71875 21.28125 L 20.40625 21 L 20 21 L 16 21 L 12 21 L 11.59375 21 L 11.28125 21.28125 L 9.03125 23.53125 C 7.8019932 23.379057 6.7222745 23.236923 6 23.125 L 6 18.46875 C 6 18.248179 6.0240985 18.028271 6.0625 17.8125 C 6.089859 17.816108 6.0953382 17.840823 6.125 17.84375 C 6.976 17.92675 7.64875 17.982 7.96875 18 C 8.28875 18.018 8.7195 18.04575 9.0625 17.84375 C 9.6615 17.49275 10 17 10 17 C 10 17 10.188 16.514 7 16 C 6.9809583 15.996958 6.9584812 16.000024 6.9375 16 L 7.65625 15 z M 11 17 L 11 19 L 21 19 L 21 17 L 11 17 z M 12.4375 23 L 16 23 L 19.5625 23 L 20.375 23.8125 C 19.03578 23.920684 17.592485 24 16 24 C 14.407515 24 12.96422 23.920684 11.625 23.8125 L 12.4375 23 z" fill="#000000"/></svg>
