<?xml version="1.0" encoding="utf-8"?>
<svg xmlns="http://www.w3.org/2000/svg" viewBox="0 0 32 32" fill="#000000"><path style="text-indent:0;text-align:start;line-height:normal;text-transform:none;block-progression:tb;-inkscape-font-specification:Bitstream Vera Sans" d="M 23.3125 5.0625 L 22.6875 6.9375 C 22.6875 6.9375 23.550697 7.2431743 24.40625 7.875 C 25.261803 8.5068257 26 9.3604004 26 10.625 C 26 11.552571 25.394223 12.35925 24.4375 13 C 23.879412 13.373771 23.224656 13.645739 22.625 13.8125 C 22.860941 13.038004 23 12.199147 23 11.28125 C 23 10.123979 22.539342 9.1359548 21.875 8.40625 C 21.210658 7.6765452 20.362799 7.1894027 19.5 6.84375 C 17.87075 6.1910428 16.224849 6.0485816 15.21875 6.03125 C 15.201275 6.030949 15.1733 6.0002085 15.15625 6 C 15.115252 5.9994985 15.038458 6 15 6 C 14.003047 6 12.416771 6.1785376 10.9375 6.84375 C 9.4582285 7.5089624 8 8.846108 8 10.875 C 8 12.111212 8.5048491 13.152294 9.21875 13.875 C 9.9326509 14.597706 10.81524 15.042668 11.65625 15.34375 C 8.770553 16.361931 5.8125 17.03125 5.8125 17.03125 L 4.90625 17.1875 L 5 18.125 C 5 18.125 5.1193821 19.272963 5.78125 20.46875 C 6.4431179 21.664537 7.8346664 23 9.96875 23 C 12.659243 23 13.837507 21.474212 14.25 20.875 C 15.552236 20.448669 17.597117 19.734196 19.4375 18.3125 C 20.235929 17.695713 20.9879 16.917091 21.59375 16 C 22.832828 15.977855 24.264091 15.504909 25.53125 14.65625 C 26.829527 13.78675 28 12.418429 28 10.625 C 28 8.5595996 26.738197 7.0951743 25.59375 6.25 C 24.449303 5.4048257 23.3125 5.0625 23.3125 5.0625 z M 14.90625 8.03125 C 14.96887 8.04164 15.738371 8.1439589 16.53125 8.5625 C 17.356211 8.9979763 18 9.5455297 18 10.625 C 18 11.391107 17.467021 12.208412 16.375 13.03125 C 15.924053 13.371038 15.202843 13.597137 14.625 13.90625 C 14.29824 13.88532 13.461246 13.86881 12.34375 13.46875 C 11.68476 13.232832 11.067349 12.916169 10.65625 12.5 C 10.245151 12.083831 10 11.601788 10 10.875 C 10 9.755892 10.686521 9.1797876 11.78125 8.6875 C 12.843313 8.2099016 14.179521 8.0419957 14.90625 8.03125 z M 19.5 9.15625 C 19.819316 9.3480744 20.193134 9.5159156 20.40625 9.75 C 20.788158 10.169483 21 10.605521 21 11.28125 C 21 13.839051 19.805714 15.492821 18.21875 16.71875 C 16.631786 17.944679 14.667678 18.664329 13.4375 19.0625 L 13.03125 19.1875 L 12.84375 19.5625 C 12.84375 19.5625 12.249183 21 9.96875 21 C 8.5948336 21 7.9763821 20.335463 7.53125 19.53125 C 7.2960398 19.106299 7.3299194 18.968225 7.25 18.65625 C 8.0700984 18.484783 10.02827 18.133357 12.84375 17.0625 C 13.575792 16.784071 14.197875 16.3428 14.90625 16 C 14.90735 16.000029 14.96875 16 14.96875 16 L 14.96875 15.96875 C 15.858557 15.534473 16.822475 15.182609 17.5625 14.625 C 18.907979 13.611181 20 12.284393 20 10.625 C 20 10.027072 19.709505 9.6257211 19.5 9.15625 z M 21 20 C 21 20.297 20.224 21 19 21 C 18.668 21 18.382 20.954 18.125 20.875 C 17.462 21.227 16.70525 21.563 15.90625 21.875 C 16.64425 22.559 17.768 23 19 23 C 20.188794 23 21.259904 22.578766 22 21.9375 C 22.104314 22.026988 22.199816 22.109392 22.3125 22.1875 C 23.038115 22.690468 23.964638 23 25 23 C 26.038552 23 26.963677 22.691901 27.6875 22.1875 C 28.411323 21.683099 29 20.941864 29 20 L 27 20 C 27 20.04214 26.92068 20.312901 26.5625 20.5625 C 26.204323 20.812099 25.633448 21 25 21 C 24.363362 21 23.793885 20.809532 23.4375 20.5625 C 23.081115 20.315468 23 20.057333 23 20 L 21 20 z M 3 25 C 3 25.942667 3.5868851 26.684532 4.3125 27.1875 C 5.0381149 27.690468 5.964638 28 7 28 C 8.0385518 28 8.9636774 27.691901 9.6875 27.1875 C 9.7963937 27.111617 9.898768 27.023981 10 26.9375 C 10.104314 27.026988 10.199816 27.109392 10.3125 27.1875 C 11.038115 27.690468 11.964638 28 13 28 C 14.038552 28 14.963677 27.691901 15.6875 27.1875 C 15.796394 27.111617 15.898768 27.023981 16 26.9375 C 16.104314 27.026988 16.199816 27.109392 16.3125 27.1875 C 17.038115 27.690468 17.964638 28 19 28 C 20.038552 28 20.963677 27.691901 21.6875 27.1875 C 21.796394 27.111617 21.898768 27.023981 22 26.9375 C 22.104314 27.026988 22.199816 27.109392 22.3125 27.1875 C 23.038115 27.690468 23.964638 28 25 28 C 26.038552 28 26.963677 27.691901 27.6875 27.1875 C 28.411323 26.683099 29 25.941864 29 25 L 27 25 C 27 25.04214 26.92068 25.312901 26.5625 25.5625 C 26.204323 25.812099 25.633448 26 25 26 C 24.363362 26 23.793885 25.809532 23.4375 25.5625 C 23.081115 25.315468 23 25.057333 23 25 L 21 25 C 21 25.04214 20.92068 25.312901 20.5625 25.5625 C 20.204323 25.812099 19.633448 26 19 26 C 18.363362 26 17.793885 25.809532 17.4375 25.5625 C 17.081115 25.315468 17 25.057333 17 25 L 15 25 C 15 25.04214 14.92068 25.312901 14.5625 25.5625 C 14.204323 25.812099 13.633448 26 13 26 C 12.363362 26 11.793885 25.809532 11.4375 25.5625 C 11.081115 25.315468 11 25.057333 11 25 L 9 25 C 9 25.04214 8.920677 25.312901 8.5625 25.5625 C 8.2043226 25.812099 7.6334482 26 7 26 C 6.363362 26 5.7938851 25.809532 5.4375 25.5625 C 5.0811149 25.315468 5 25.057333 5 25 L 3 25 z" overflow="visible" font-family="Bitstream Vera Sans" fill="#000000"/></svg>
