<?xml version="1.0" encoding="utf-8"?>
<svg xmlns="http://www.w3.org/2000/svg" viewBox="0 0 32 32" fill="#000000"><path style="line-height:normal;text-indent:0;text-align:start;text-decoration-line:none;text-decoration-style:solid;text-decoration-color:#000;text-transform:none;block-progression:tb;isolation:auto;mix-blend-mode:normal" d="M 3 6 L 3 7 L 3 26 L 29 26 L 29 6 L 3 6 z M 5 8 L 27 8 L 27 24 L 25 24 L 25 17 L 7 17 L 7 24 L 5 24 L 5 8 z M 9 19 L 23 19 L 23 24 L 9 24 L 9 19 z M 11.5 20 A 1.5 1.5 0 0 0 10 21.5 A 1.5 1.5 0 0 0 11.5 23 A 1.5 1.5 0 0 0 13 21.5 A 1.5 1.5 0 0 0 11.5 20 z M 14 20 L 16 23 L 18 20 L 14 20 z M 19 20 L 19 23 L 22 23 L 22 20 L 19 20 z" font-weight="400" font-family="sans-serif" white-space="normal" overflow="visible" fill="#000000"/></svg>
