<?xml version="1.0" encoding="utf-8"?>
<svg xmlns="http://www.w3.org/2000/svg" viewBox="0 0 32 32" fill="#000000"><path style="text-indent:0;text-align:start;line-height:normal;text-transform:none;block-progression:tb;-inkscape-font-specification:Sans" d="M 0 6 L 0 7 L 0 24 L 0 25 L 1 25 L 13 25 C 14.116666 25 15 25.883334 15 27 L 17 27 C 17 25.883334 17.883334 25 19 25 L 31 25 L 32 25 L 32 24 L 32 7 L 32 6 L 31 6 L 19 6 C 17.79939 6 16.735278 6.5595697 16 7.40625 C 15.264722 6.5595697 14.20061 6 13 6 L 1 6 L 0 6 z M 2 8 L 13 8 C 14.116666 8 15 8.8833339 15 10 L 17 10 C 17 8.8833339 17.883334 8 19 8 L 30 8 L 30 23 L 19 23 C 17.79939 23 16.735278 23.55957 16 24.40625 C 15.264722 23.55957 14.20061 23 13 23 L 2 23 L 2 8 z M 15 12 L 15 13 L 15 17 L 14 17 C 12.895 17 12 17.895 12 19 C 12 20.105 12.895 21 14 21 L 15 21 C 16.105 21 17 20.105 17 19 L 17 14 L 19 14 L 19 12 L 16 12 L 15 12 z" overflow="visible" font-family="Sans" fill="#000000"/></svg>
