<?xml version="1.0" encoding="utf-8"?>
<svg xmlns="http://www.w3.org/2000/svg" viewBox="0 0 32 32" fill="#000000"><path style="line-height:normal;text-indent:0;text-align:start;text-decoration-line:none;text-decoration-style:solid;text-decoration-color:#000;text-transform:none;block-progression:tb;isolation:auto;mix-blend-mode:normal" d="M 9 5 L 9 19 L 11 19 L 11 7 L 25 7 L 25 15 L 27 15 L 27 5 L 9 5 z M 13 11 L 13 13 L 15 13 L 15 11 L 13 11 z M 17 11 L 17 13 L 23 13 L 23 11 L 17 11 z M 13 15 L 13 17 L 15 17 L 15 15 L 13 15 z M 17 15 L 17 17 L 18.5 17 L 18.5 15 L 17 15 z M 20 16 L 20 18 L 21 18 L 21 20 C 21 21.6 21.8 23.1 23 24 C 21.8 24.9 21 26.4 21 28 L 21 30 L 20 30 L 20 32 L 21 32 L 31 32 L 32 32 L 32 30 L 31 30 L 31 28 C 31 26.4 30.2 24.9 29 24 C 30.2 23.1 31 21.6 31 20 L 31 18 L 32 18 L 32 16 L 31 16 L 21 16 L 20 16 z M 23 18 L 29 18 L 29 20 C 29 21.7 27.7 23 26 23 C 24.3 23 23 21.7 23 20 L 23 18 z M 5 20 L 5 23 C 5 25.206 6.794 27 9 27 L 19.583984 27 C 19.693984 26.3 19.926906 25.628 20.253906 25 L 9 25 C 7.897 25 7 24.103 7 23 L 7 22 L 19.826172 22 C 19.617172 21.358 19.5 20.685 19.5 20 L 5 20 z M 24 20 C 24 20 24 22 26 22 C 28 22 28 20 28 20 L 24 20 z M 26 25 C 27.7 25 29 26.3 29 28 L 29 30 L 28 30 C 28 28.9 27.1 28 26 28 C 24.9 28 24 28.9 24 30 L 23 30 L 23 28 C 23 26.3 24.3 25 26 25 z" font-weight="400" font-family="sans-serif" white-space="normal" overflow="visible" fill="#000000"/></svg>
