<?xml version="1.0" encoding="utf-8"?>
<svg xmlns="http://www.w3.org/2000/svg" viewBox="0 0 32 32" fill="#000000"><path style="text-indent:0;text-align:start;line-height:normal;text-transform:none;block-progression:tb;-inkscape-font-specification:Bitstream Vera Sans" d="M 15.25 6 C 15.225 6.0125 15.1875 6.04375 15.1875 6.09375 C 15.1875 6.19375 15.2125 6.1875 15.3125 6.1875 C 18.6125 6.1875 24.0125 7.5125 23.8125 10.3125 C 23.7125 12.6125 19.6125 15.4 9.8125 15.5 C 9.8125 15.5 26.6 16.10625 27 10.40625 C 27.3 5.60625 15.3125 6 15.3125 6 C 15.3125 6 15.275 5.9875 15.25 6 z M 7.3125 6.6875 C 6.3125 8.1875 5.69375 9.0875 5.09375 10.1875 L 5.09375 10.3125 C 4.99375 10.5125 4.99375 10.6125 5.09375 10.8125 C 5.49375 11.4125 7.5 12 12 12 C 15.4 12 19 11.40625 19 10.40625 C 19 9.40625 15.5 8.8125 12 8.8125 C 10.8 8.9125 9.70625 9 9.40625 9 C 9.70625 8.5 11 6.8125 11 6.8125 L 7.3125 6.6875 z M 11.90625 9.90625 C 13.90625 9.90625 15.1875 10.20625 15.1875 10.40625 C 15.1875 10.60625 13.90625 10.90625 11.90625 10.90625 C 9.80625 11.00625 8.59375 10.60625 8.59375 10.40625 C 8.59375 10.20625 9.80625 9.90625 11.90625 9.90625 z M 4 17 L 4 18 L 4 26 L 4 27 L 5 27 L 27 27 L 28 27 L 28 26 L 28 18 L 28 17 L 27 17 L 5 17 L 4 17 z M 6 19 L 26 19 L 26 25 L 6 25 L 6 19 z M 9 21 C 8.4477153 21 8 21.447715 8 22 C 8 22.552285 8.4477153 23 9 23 C 9.5522847 23 10 22.552285 10 22 C 10 21.447715 9.5522847 21 9 21 z M 12 21 L 12 23 L 24 23 L 24 21 L 12 21 z" overflow="visible" font-family="Bitstream Vera Sans" fill="#000000"/></svg>
