<?xml version="1.0" encoding="utf-8"?>
<svg xmlns="http://www.w3.org/2000/svg" viewBox="0 0 32 32" fill="#000000"><path style="line-height:normal;text-indent:0;text-align:start;text-decoration-line:none;text-decoration-style:solid;text-decoration-color:#000;text-transform:none;block-progression:tb;isolation:auto;mix-blend-mode:normal" d="M 7 3 L 7 5 L 10.367188 5 C 9.6601409 5.5707999 9.0411088 6.2438287 8.5332031 7 L 5 7 L 5 9 L 7.5273438 9 C 7.3004556 9.6381483 7.1359738 10.305616 7.0585938 11 L 4 11 L 4 13 L 7.0917969 13 C 7.1929391 13.632406 7.3873955 14.303231 7.6347656 15 L 5 15 L 5 17 L 8.4433594 17 C 8.7367239 17.654241 9.0791517 18.328709 9.421875 19 L 7 19 L 7 21 L 10.492188 21 C 10.707715 21.386501 10.916615 21.782139 11.134766 22.158203 C 13.158022 25.646044 15.177734 28.568359 15.177734 28.568359 L 16 29.759766 L 16.822266 28.568359 C 16.822266 28.568359 18.841978 25.646044 20.865234 22.158203 C 21.876863 20.414283 22.892056 18.527254 23.666016 16.765625 C 24.439975 15.003996 25 13.406296 25 12 C 25 7.0414839 20.958516 3 16 3 L 7 3 z M 16 5 C 19.877484 5 23 8.1225161 23 12 C 23 12.802704 22.560025 14.308378 21.833984 15.960938 C 21.107944 17.613495 20.123137 19.450467 19.134766 21.154297 C 17.568846 23.853746 16.584375 25.261998 16 26.126953 C 15.415625 25.261998 14.431154 23.853746 12.865234 21.154297 C 11.876863 19.450467 10.892056 17.613495 10.166016 15.960938 C 9.4399746 14.308377 9 12.802704 9 12 C 9 8.1225161 12.122516 5 16 5 z M 16 10 A 2 2 0 0 0 14 12 A 2 2 0 0 0 16 14 A 2 2 0 0 0 18 12 A 2 2 0 0 0 16 10 z" fill="#000000"/></svg>
