<?xml version="1.0" encoding="utf-8"?>
<svg xmlns="http://www.w3.org/2000/svg" viewBox="0 0 32 32" fill="#000000"><path style="text-indent:0;text-align:start;line-height:normal;text-transform:none;block-progression:tb;-inkscape-font-specification:Sans" d="M 5 6 C 3.3550302 6 2 7.3550302 2 9 L 2 23 C 2 24.64497 3.3550302 26 5 26 L 27 26 C 28.64497 26 30 24.64497 30 23 L 30 9 C 30 7.3550302 28.64497 6 27 6 L 5 6 z M 5 8 L 27 8 C 27.56503 8 28 8.4349698 28 9 L 28 23 C 28 23.56503 27.56503 24 27 24 L 5 24 C 4.4349698 24 4 23.56503 4 23 L 4 9 C 4 8.4349698 4.4349698 8 5 8 z M 21 10 C 18.802706 10 17 11.802706 17 14 C 17 15.114227 17.475261 16.116062 18.21875 16.84375 C 16.88816 17.744728 16 19.281553 16 21 L 18 21 C 18 19.331516 19.331516 18 21 18 C 22.668484 18 24 19.331516 24 21 L 26 21 C 26 19.281553 25.11184 17.744728 23.78125 16.84375 C 24.524739 16.116062 25 15.114227 25 14 C 25 11.802706 23.197294 10 21 10 z M 21 12 C 22.116414 12 23 12.883586 23 14 C 23 15.116414 22.116414 16 21 16 C 19.883586 16 19 15.116414 19 14 C 19 12.883586 19.883586 12 21 12 z M 7 14 L 7 18 L 12 18 L 12 14 L 7 14 z" overflow="visible" font-family="Sans" fill="#000000"/></svg>
