<?xml version="1.0" encoding="utf-8"?>
<svg xmlns="http://www.w3.org/2000/svg" viewBox="0 0 32 32" fill="#000000"><path style="text-indent:0;text-align:start;line-height:normal;text-transform:none;block-progression:tb;-inkscape-font-specification:Sans" d="M 12.4375 4 L 11 5.4375 L 13.5625 8 L 5 8 L 4 8 L 4 9 L 4 13 L 4 14 L 5 14 L 5 27 L 5 28 L 6 28 L 26 28 L 27 28 L 27 27 L 27 14 L 28 14 L 28 13 L 28 9 L 28 8 L 27 8 L 18.4375 8 L 21 5.40625 L 19.59375 4 L 16 7.5625 L 12.4375 4 z M 6 10 L 15 10 L 15 12 L 6 12 L 6 10 z M 17 10 L 26 10 L 26 12 L 17 12 L 17 10 z M 7 14 L 15 14 L 15 26 L 7 26 L 7 14 z M 17 14 L 25 14 L 25 26 L 17 26 L 17 14 z" overflow="visible" font-family="Sans" fill="#000000"/></svg>
