<?xml version="1.0" encoding="utf-8"?>
<svg xmlns="http://www.w3.org/2000/svg" viewBox="0 0 32 32" fill="#000000"><path style="line-height:normal;text-indent:0;text-align:start;text-decoration-line:none;text-decoration-style:solid;text-decoration-color:#000;text-transform:none;block-progression:tb;isolation:auto;mix-blend-mode:normal" d="M 6 5 L 6 6 L 6 7 L 3 11 L 6 11 L 24 11 L 24 5 L 6 5 z M 8 7 L 22 7 L 22 9 L 8 9 L 8 7 z M 8 13 L 8 14 L 8 15 L 5 19 L 8 19 L 26 19 L 26 13 L 8 13 z M 10 15 L 24 15 L 24 17 L 10 17 L 10 15 z M 10 21 L 10 22 L 10 23 L 7 27 L 10 27 L 28 27 L 28 21 L 10 21 z M 12 23 L 26 23 L 26 25 L 12 25 L 12 23 z" font-weight="400" font-family="sans-serif" white-space="normal" overflow="visible" fill="#000000"/></svg>
