<?xml version="1.0" encoding="utf-8"?>
<svg xmlns="http://www.w3.org/2000/svg" viewBox="0 0 32 32" fill="#000000"><path style="text-indent:0;text-align:start;line-height:normal;text-transform:none;block-progression:tb;-inkscape-font-specification:Sans" d="M 8.8125 3 L 8.125 3.71875 L 3.71875 8.125 L 3 8.8125 L 3.71875 9.53125 L 10.1875 16 L 5.40625 20.78125 L 5.1875 21 L 5.125 21.3125 L 4.03125 26.8125 L 3.71875 28.28125 L 5.1875 27.96875 L 10.6875 26.875 L 11 26.8125 L 11.21875 26.59375 L 16 21.8125 L 22.4375 28.25 L 23.15625 28.96875 L 23.84375 28.25 L 28.25 23.84375 L 28.96875 23.15625 L 28.25 22.4375 L 21.8125 16 L 26.75 11.0625 C 28.360647 9.4518529 28.360647 6.8606471 26.75 5.25 C 25.944676 4.4446764 24.894642 4.03125 23.84375 4.03125 C 22.792858 4.03125 21.742824 4.4446764 20.9375 5.25 L 16 10.1875 L 9.53125 3.71875 L 8.8125 3 z M 8.8125 5.84375 L 10.75 7.8125 L 9.28125 9.28125 L 10.71875 10.71875 L 12.1875 9.25 L 14.5625 11.625 L 11.59375 14.59375 L 5.8125 8.8125 L 8.8125 5.84375 z M 23.84375 5.96875 C 24.364358 5.96875 24.892074 6.2045736 25.34375 6.65625 C 26.247103 7.5596029 26.247103 8.7216471 25.34375 9.625 L 24.6875 10.28125 L 21.71875 7.3125 L 22.375 6.65625 C 22.826676 6.2045736 23.323142 5.96875 23.84375 5.96875 z M 20.3125 8.71875 L 23.28125 11.6875 L 11.1875 23.78125 C 10.52656 22.510777 9.4891632 21.473401 8.21875 20.8125 L 20.3125 8.71875 z M 20.40625 17.40625 L 22.78125 19.78125 L 21.28125 21.28125 L 22.71875 22.71875 L 24.21875 21.21875 L 26.125 23.125 L 23.125 26.125 L 17.40625 20.40625 L 20.40625 17.40625 z M 6.9375 22.40625 C 8.1374219 22.910116 9.0894244 23.862177 9.59375 25.0625 L 6.28125 25.71875 L 6.9375 22.40625 z" overflow="visible" font-family="Sans" fill="#000000"/></svg>
