<?xml version="1.0" encoding="utf-8"?>
<svg xmlns="http://www.w3.org/2000/svg" viewBox="0 0 32 32" fill="#000000"><path style="text-indent:0;text-align:start;line-height:normal;text-transform:none;block-progression:tb;-inkscape-font-specification:Bitstream Vera Sans" d="M 22.875 3.15625 L 21.75 4.8125 C 21.75 4.8125 22.364407 5.287668 22.65625 5.96875 C 22.911613 6.5646967 23.093292 7.2652991 22.125 8.4375 L 21.25 9.3125 C 18.306031 6.805633 15.3125 6.6875 15.3125 6.6875 L 14.75 6.6875 L 14.4375 7.1875 C 14.4375 7.1875 11.888301 11.524647 9.4375 16 C 8.2120997 18.237677 7.00051 20.516617 6.15625 22.3125 C 5.73412 23.210441 5.4005731 23.991335 5.1875 24.625 C 5.0809634 24.941832 5.0068241 25.208039 4.96875 25.5 C 4.9306759 25.791961 4.8213523 26.196352 5.3125 26.6875 C 5.8036477 27.178648 6.2080392 27.069392 6.5 27.03125 C 6.7919608 26.993108 7.0582294 26.919118 7.375 26.8125 C 8.0085412 26.599263 8.7897916 26.266122 9.6875 25.84375 C 11.482917 24.999006 13.762948 23.788529 16 22.5625 C 20.474103 20.110441 24.8125 17.5625 24.8125 17.5625 L 25.3125 17.25 L 25.3125 16.65625 C 25.3125 16.65625 25.177975 13.700092 22.6875 10.75 L 23.03125 10.375 C 23.116781 10.289469 23.196375 10.231164 23.28125 10.15625 L 23.53125 9.9375 C 24.709781 9.0295519 25.82753 9.0676683 26.8125 9.3125 C 27.93818 9.5923076 28.71875 10.1875 28.71875 10.1875 L 29.96875 8.625 C 29.96875 8.625 28.86107 7.7676924 27.28125 7.375 C 26.952417 7.2932626 26.592412 7.2480016 26.21875 7.21875 L 28.25 5.1875 L 26.8125 3.75 L 24.71875 5.84375 C 24.668803 5.6015978 24.589894 5.3660387 24.5 5.15625 C 23.937843 3.844332 22.875 3.15625 22.875 3.15625 z M 15.8125 8.8125 C 16.468664 8.873882 18.349299 9.1471901 20.59375 11.40625 C 22.843681 13.670826 23.122826 15.535098 23.1875 16.1875 C 23.022004 16.284882 22.168732 16.800023 21.5 17.1875 C 21.236499 16.60179 20.820995 15.81341 20.1875 14.96875 L 18.59375 16.1875 C 19.298165 17.126721 19.58668 17.76918 19.75 18.1875 C 18.388119 18.964067 16.824496 19.829701 15.03125 20.8125 C 14.935286 20.865094 14.846023 20.916274 14.75 20.96875 C 14.564656 20.422419 14.267213 19.762654 13.71875 19 L 12.09375 20.15625 C 12.586909 20.842 12.827811 21.409345 12.9375 21.78125 C 12.955782 21.843234 12.956792 21.858722 12.96875 21.90625 C 11.471898 22.706127 10.025674 23.475154 8.84375 24.03125 C 8.2269559 24.321452 7.7895258 24.480871 7.34375 24.65625 C 7.519021 24.210349 7.6787103 23.773213 7.96875 23.15625 C 8.7788025 21.433133 9.9721503 19.188073 11.1875 16.96875 C 11.772792 15.899961 12.219957 15.098697 12.75 14.15625 C 13.070875 14.437886 13.484589 14.815725 13.9375 15.40625 L 15.5 14.1875 C 14.850394 13.340516 14.214918 12.743302 13.75 12.375 C 14.795485 10.540406 15.631872 9.1197063 15.8125 8.8125 z" overflow="visible" font-family="Bitstream Vera Sans" fill="#000000"/></svg>
