<?xml version="1.0" encoding="utf-8"?>
<svg xmlns="http://www.w3.org/2000/svg" viewBox="0 0 32 32" fill="#000000"><path style="text-indent:0;text-align:start;line-height:normal;text-transform:none;block-progression:tb;-inkscape-font-specification:Sans" d="M 4 4 L 4 6 L 7 6 L 7 8 L 4 8 L 4 10 L 28 10 L 28 8 L 25 8 L 25 6 L 28 6 L 28 4 L 4 4 z M 9 6 L 11 6 L 11 8 L 9 8 L 9 6 z M 13 6 L 15 6 L 15 8 L 13 8 L 13 6 z M 17 6 L 19 6 L 19 8 L 17 8 L 17 6 z M 21 6 L 23 6 L 23 8 L 21 8 L 21 6 z M 16 11 C 15.215545 11 14.477006 11.06954 13.78125 11.15625 C 11.203814 11.477469 9.230791 12.302686 7.84375 13.15625 C 6.3961417 14.047086 5.9162775 14.690682 5.65625 15 L 4 15 L 4 17 L 6 17 L 6.5 17 L 6.8125 16.59375 C 6.8125 16.59375 7.4177103 15.759774 8.90625 14.84375 C 8.9528313 14.815085 9.0143315 14.77866 9.0625 14.75 C 8.4385578 15.857639 8 17.260689 8 19 C 8 25.367506 13.59375 27.90625 13.59375 27.90625 L 14.40625 26.09375 C 14.40625 26.09375 10 24.216494 10 19 C 10 16.391753 11.059986 15.035038 12.125 14.1875 C 13.167192 13.358124 14.144802 13.104235 14.1875 13.09375 C 14.197792 13.092594 14.208434 13.094888 14.21875 13.09375 C 14.782905 13.031519 15.361963 13 16 13 C 16.965278 13 17.827087 13.084217 18.625 13.21875 C 17.819897 14.256531 17 15.84017 17 18 C 17 19.686234 17.774726 21.184686 18.8125 22.40625 C 19.850274 23.627814 21.162266 24.623691 22.46875 25.4375 C 25.081719 27.065118 27.6875 27.9375 27.6875 27.9375 L 28.3125 26.0625 C 28.3125 26.0625 25.918281 25.205632 23.53125 23.71875 C 22.337734 22.975309 21.149726 22.079249 20.3125 21.09375 C 19.475274 20.108251 19 19.084766 19 18 C 19 15.652003 20.17238 14.309511 20.8125 13.75 C 21.716681 14.066055 22.479235 14.465587 23.09375 14.84375 C 24.58229 15.759774 25.1875 16.59375 25.1875 16.59375 L 25.5 17 L 26 17 L 28 17 L 28 15 L 26.34375 15 C 26.083722 14.690682 25.603858 14.047086 24.15625 13.15625 C 22.39479 12.072274 19.690476 11 16 11 z" fill="#000000"/></svg>
