<?xml version="1.0" encoding="utf-8"?>
<svg xmlns="http://www.w3.org/2000/svg" viewBox="0 0 32 32" fill="#000000"><path style="line-height:normal;text-indent:0;text-align:start;text-decoration-line:none;text-decoration-style:solid;text-decoration-color:#000;text-transform:none;block-progression:tb;isolation:auto;mix-blend-mode:normal" d="M 7 3 L 7 4 L 7 29 L 25 29 L 25 3 L 7 3 z M 9 5 L 23 5 L 23 27 L 9 27 L 9 5 z M 11 8 L 11 10 L 13 10 L 13 8 L 11 8 z M 15 8 L 15 10 L 21 10 L 21 8 L 15 8 z M 12 11 A 1 1 0 0 0 11 12 A 1 1 0 0 0 12 13 A 1 1 0 0 0 13 12 A 1 1 0 0 0 12 11 z M 15 11 L 15 13 L 21 13 L 21 11 L 15 11 z M 11 16 L 11 18 L 13 18 L 13 16 L 11 16 z M 15 16 L 15 18 L 21 18 L 21 16 L 15 16 z M 12 19 A 1 1 0 0 0 11 20 A 1 1 0 0 0 12 21 A 1 1 0 0 0 13 20 A 1 1 0 0 0 12 19 z M 15 19 L 15 21 L 21 21 L 21 19 L 15 19 z M 11 22 L 11 24 L 13 24 L 13 22 L 11 22 z M 15 22 L 15 24 L 21 24 L 21 22 L 15 22 z" fill="#000000"/></svg>
