<?xml version="1.0" encoding="utf-8"?>
<svg xmlns="http://www.w3.org/2000/svg" viewBox="0 0 32 32" fill="#000000"><path style="text-indent:0;text-align:start;line-height:normal;text-transform:none;block-progression:tb;-inkscape-font-specification:Sans" d="M 7 3 L 7 4 L 7 20 L 7 21 L 8 21 L 9.34375 21 C 9.1307663 22.12895 9 23.1812 9 24 C 9 25.523037 9.5675739 26.815454 10.5 27.6875 C 11.432426 28.559546 12.681829 29 14 29 L 21.03125 29 C 22.420236 29 23.555585 27.994356 23.875 26.65625 L 23.9375 26.6875 L 26.5625 19.40625 L 26.59375 19.3125 L 26.59375 19.25 C 26.887398 17.636809 26.378134 15.971884 25.21875 14.8125 L 22 11.5625 L 22 4 L 22 3 L 21 3 L 8 3 L 7 3 z M 9 5 L 20 5 L 20 19 L 17 19 L 17 14.9375 C 17 14.9375 17.02548 14.107748 16.75 13.1875 C 16.612262 12.727376 16.415554 12.22055 16 11.78125 C 15.584446 11.34195 14.91776 11 14.1875 11 C 13.352111 11 12.568104 11.343911 12.03125 11.90625 C 11.510761 12.451447 11.226319 13.140211 11.0625 13.90625 L 11.03125 13.90625 C 11.03125 13.90625 11.031467 13.96796 11.03125 13.96875 C 11.01674 14.02132 10.528948 15.784066 10.03125 17.90625 C 9.9468947 18.265941 9.8642284 18.632155 9.78125 19 L 9 19 L 9 5 z M 14.1875 13 C 14.40224 13 14.428367 13.04749 14.53125 13.15625 C 14.634133 13.265012 14.762738 13.479374 14.84375 13.75 C 15.005774 14.291252 15 14.90625 15 14.90625 L 15 14.9375 L 15 19 L 15 21 L 15 23 L 17 23 L 17 21 L 21 21 L 22 21 L 22 20 L 22 14.4375 L 23.8125 16.21875 C 24.494036 16.900286 24.808229 17.863811 24.65625 18.8125 L 22.0625 26.03125 L 22.03125 26.09375 L 22.03125 26.1875 C 21.943542 26.669643 21.521863 27 21.03125 27 L 14 27 C 13.109171 27 12.359074 26.731954 11.84375 26.25 C 11.328426 25.768046 11 25.060963 11 24 C 11 22.965998 11.473876 20.453891 11.96875 18.34375 C 12.463624 16.233609 12.96875 14.4375 12.96875 14.4375 L 12.96875 14.40625 L 12.96875 14.375 C 13.078345 13.832299 13.284104 13.474661 13.46875 13.28125 C 13.653396 13.087839 13.818889 13 14.1875 13 z" overflow="visible" font-family="Sans" fill="#000000"/></svg>
