<?xml version="1.0" encoding="utf-8"?>
<svg xmlns="http://www.w3.org/2000/svg" viewBox="0 0 32 32" fill="#000000"><path style="text-indent:0;text-align:start;line-height:normal;text-transform:none;block-progression:tb;-inkscape-font-specification:Sans" d="M 3 4 L 3 5 L 3 21 L 3 22 L 4 22 L 8 22 L 8 25 L 8 27.09375 L 9.625 25.78125 L 14.34375 22 L 28 22 L 29 22 L 29 21 L 29 5 L 29 4 L 28 4 L 4 4 L 3 4 z M 5 6 L 27 6 L 27 20 L 14 20 L 13.65625 20 L 13.375 20.21875 L 10 22.90625 L 10 21 L 10 20 L 9 20 L 5 20 L 5 6 z M 16 8 C 13.8 8 13 9.8 13 11 L 15 11 C 15 10.5 15.2 10 16 10 C 16.8 10 17 10.5 17 11 C 17 11.5 16.4875 11.80625 16.1875 11.90625 L 16 11.90625 C 15.4 12.10625 15 12.70625 15 13.40625 L 15 15 L 17 15 L 17 13.6875 C 18 13.2875 19 12.3 19 11 C 19 9.8 18.2 8 16 8 z M 15 16 L 15 18 L 17 18 L 17 16 L 15 16 z" overflow="visible" font-family="Sans" fill="#000000"/></svg>
