<?xml version="1.0" encoding="utf-8"?>
<svg xmlns="http://www.w3.org/2000/svg" viewBox="0 0 32 32" fill="#000000"><path style="line-height:normal;text-indent:0;text-align:start;text-decoration-line:none;text-decoration-style:solid;text-decoration-color:#000;text-transform:none;block-progression:tb;isolation:auto;mix-blend-mode:normal" d="M 16 4 C 11.192779 3.9994915 8.3212201 4.5756741 6.5097656 5.2792969 C 5.6040384 5.6311083 4.9646877 6.0209196 4.5117188 6.3671875 C 4.0587497 6.7134554 3.759593 7.0376063 3.7089844 7.0820312 L 3.7070312 7.0820312 C 3.2969007 7.4425492 3.1607122 7.8793001 3.0820312 8.2675781 C 3.0033502 8.6558561 2.9926242 9.0355828 3.0039062 9.40625 C 3.0264713 10.147584 3.1498709 10.850388 3.2207031 11.222656 C 3.438012 12.372246 4.3694115 13.151102 5.4355469 12.978516 L 5.4375 12.978516 L 5.4394531 12.978516 C 5.663165 12.941616 5.8770046 12.885006 6.2441406 12.794922 C 6.6112767 12.704842 7.0657674 12.59031 7.5234375 12.474609 C 8.4387778 12.243207 9.4108671 11.997033 9.5976562 11.955078 C 10.477429 11.757259 10.894956 11.071154 11.123047 10.376953 L 11.125 10.371094 C 11.10764 10.424444 11.290221 9.9727093 11.505859 9.4921875 C 11.722839 9.0086199 12.001484 8.4032149 12.273438 7.8125 C 12.656436 6.9805762 12.837954 6.5917739 13.025391 6.1894531 C 13.995662 6.1191938 14.759127 5.9998687 16 6 C 17.241737 6.0001314 18.005795 6.1208257 18.976562 6.1914062 C 19.164372 6.5947962 19.344568 6.9804372 19.726562 7.8105469 C 19.998466 8.4014157 20.275072 9.0083875 20.492188 9.4921875 C 20.709301 9.9759875 20.896005 10.435704 20.876953 10.378906 L 20.876953 10.373047 C 21.10382 11.062319 21.514376 11.768487 22.419922 11.957031 C 22.562147 11.987171 23.542928 12.238278 24.453125 12.470703 C 24.909046 12.587126 25.364889 12.701634 25.736328 12.792969 C 26.107767 12.884309 26.329454 12.945476 26.574219 12.982422 L 26.576172 12.982422 C 27.637089 13.141702 28.55788 12.381263 28.779297 11.224609 L 28.779297 11.222656 C 28.850057 10.850754 28.973523 10.150009 28.996094 9.4082031 C 29.007384 9.0373004 28.996973 8.6562376 28.917969 8.2675781 C 28.838927 7.8790066 28.700054 7.4421446 28.289062 7.0820312 C 28.23933 7.0385343 27.939272 6.7130114 27.486328 6.3671875 C 27.033384 6.0213636 26.393956 5.6330144 25.488281 5.28125 C 23.676931 4.5777211 20.805735 4.0005085 16 4 z M 10.751953 6.3359375 C 10.614771 6.6320953 10.60602 6.646744 10.455078 6.9746094 C 10.181655 7.5685194 9.9034609 8.1775774 9.6816406 8.671875 C 9.4598204 9.1661726 9.3242239 9.4452971 9.2246094 9.7441406 L 9.2246094 9.7480469 L 9.2226562 9.75 C 9.1383313 10.007839 8.9520055 10.05027 9.1582031 10.003906 C 8.8329923 10.076956 7.9453628 10.304558 7.0332031 10.535156 C 6.5771233 10.650455 6.1253796 10.76377 5.7675781 10.851562 C 5.4791225 10.922338 5.316867 10.958616 5.2402344 10.976562 C 5.2195612 10.955207 5.1985747 10.918794 5.1855469 10.849609 L 5.1855469 10.847656 C 5.1233795 10.521019 5.0186383 9.8938687 5.0019531 9.3457031 C 4.9936106 9.0716203 5.0118058 8.817847 5.0429688 8.6640625 C 5.0585502 8.5871702 5.0792697 8.5464667 5.0839844 8.5351562 C 5.3057699 8.3335622 5.4422355 8.1724293 5.7265625 7.9550781 C 6.0358747 7.7186273 6.4914772 7.4330948 7.234375 7.1445312 C 8.0199992 6.8393714 9.1966614 6.5531408 10.751953 6.3359375 z M 21.248047 6.3378906 C 22.802329 6.5553494 23.978106 6.8413703 24.763672 7.1464844 C 25.506747 7.4350949 25.963818 7.7206365 26.273438 7.9570312 C 26.558011 8.1743044 26.69376 8.3339033 26.916016 8.5351562 C 26.921194 8.5469286 26.943374 8.5892206 26.958984 8.6660156 C 26.990204 8.8196061 27.006387 9.0735589 26.998047 9.3476562 C 26.981367 9.8958509 26.876691 10.522512 26.814453 10.849609 C 26.798238 10.925714 26.769861 10.956541 26.744141 10.974609 C 26.665905 10.957048 26.502195 10.922701 26.212891 10.851562 C 25.853454 10.763182 25.403298 10.649156 24.949219 10.533203 C 24.045199 10.302357 23.201245 10.078567 22.839844 10.001953 C 23.028639 10.041316 22.859491 10.003565 22.775391 9.7480469 L 22.775391 9.7460938 L 22.773438 9.7421875 C 22.674525 9.4468907 22.540183 9.1661687 22.318359 8.671875 C 22.096536 8.1775813 21.816316 7.5686156 21.542969 6.9746094 C 21.392576 6.6477932 21.384798 6.6332855 21.248047 6.3378906 z M 12 11 L 12 13.542969 C 11.652491 13.79683 10.400985 14.684953 8.7929688 16.292969 C 6.9756251 18.110312 5 20.416667 5 23 L 5 28 L 9.4140625 28 L 10.414062 27 L 21.585938 27 L 22.585938 28 L 27 28 L 27 23 C 27 20.416667 25.024375 18.110312 23.207031 16.292969 C 21.599015 14.684953 20.347509 13.79683 20 13.542969 L 20 11 L 17 11 L 17 12 L 15 12 L 15 11 L 12 11 z M 5.1152344 11.003906 C 5.1205402 11.003047 5.1160857 11.004647 5.1210938 11.003906 C 5.1213823 11.003864 5.1128894 11.005924 5.1132812 11.005859 L 5.1152344 11.003906 z M 14 14 L 18 14 L 18 14.513672 L 18.417969 14.814453 C 18.417969 14.814453 20.110312 16.024375 21.792969 17.707031 C 23.475625 19.389688 25 21.583333 25 23 L 25 26 L 23.414062 26 L 22.414062 25 L 22 25 L 9.5859375 25 L 8.5859375 26 L 7 26 L 7 23 C 7 21.583333 8.524375 19.389688 10.207031 17.707031 C 11.889688 16.024375 13.582031 14.814453 13.582031 14.814453 L 14 14.513672 L 14 14 z M 12 18 L 12 20 L 14 20 L 14 18 L 12 18 z M 15 18 L 15 20 L 17 20 L 17 18 L 15 18 z M 18 18 L 18 20 L 20 20 L 20 18 L 18 18 z M 12 21 L 12 23 L 14 23 L 14 21 L 12 21 z M 15 21 L 15 23 L 17 23 L 17 21 L 15 21 z M 18 21 L 18 23 L 20 23 L 20 21 L 18 21 z" font-weight="400" font-family="sans-serif" white-space="normal" overflow="visible" fill="#000000"/></svg>
