<?xml version="1.0" encoding="utf-8"?>
<svg xmlns="http://www.w3.org/2000/svg" viewBox="0 0 32 32" fill="#000000"><path style="text-indent:0;text-align:start;line-height:normal;text-transform:none;block-progression:tb;-inkscape-font-specification:Sans" d="M 4 5 L 4 6 L 4 26 L 4 27 L 5 27 L 27 27 L 28 27 L 28 26 L 28 6 L 28 5 L 27 5 L 5 5 L 4 5 z M 6 7 L 26 7 L 26 25 L 6 25 L 6 7 z M 16 11 C 13.67416 11 11.524567 12.09979 9.9375 13.15625 C 8.3504327 14.21271 7.28125 15.28125 7.28125 15.28125 L 6.59375 16 L 7.28125 16.71875 C 7.28125 16.71875 8.350913 17.78717 9.9375 18.84375 C 11.524087 19.90033 13.67208 21 16 21 C 18.32792 21 20.475913 19.90033 22.0625 18.84375 C 23.649087 17.78717 24.71875 16.71875 24.71875 16.71875 L 25.40625 16 L 24.71875 15.28125 C 24.71875 15.28125 23.649567 14.21271 22.0625 13.15625 C 20.475433 12.09979 18.32584 11 16 11 z M 16 13 C 14.343 13 13 14.343 13 16 C 13 17.657 14.343 19 16 19 C 17.657 19 19 17.657 19 16 C 19 15.695 18.92775 15.401 18.84375 15.125 C 18.60475 15.637 18.102 16 17.5 16 C 16.672 16 16 15.328 16 14.5 C 16 13.898 16.363 13.39525 16.875 13.15625 C 16.737 13.11425 16.582125 13.0565 16.4375 13.03125 C 17.977218 13.169143 19.644225 13.982858 20.9375 14.84375 C 21.808703 15.423682 21.972531 15.642303 22.375 16 C 21.973005 16.357624 21.808229 16.576392 20.9375 17.15625 C 19.520837 18.09967 17.65908 19 16 19 C 14.34092 19 12.479163 18.09967 11.0625 17.15625 C 10.191771 16.576392 10.026995 16.357624 9.625 16 C 10.027469 15.642303 10.191297 15.423682 11.0625 14.84375 C 12.479933 13.90021 14.34384 13 16 13 z" overflow="visible" font-family="Sans" fill="#000000"/></svg>
