<?xml version="1.0" encoding="utf-8"?>
<svg xmlns="http://www.w3.org/2000/svg" viewBox="0 0 32 32" fill="#000000"><path style="text-indent:0;text-align:start;line-height:normal;text-transform:none;block-progression:tb;-inkscape-font-specification:Bitstream Vera Sans" d="M 16.21875 3.28125 L 3.28125 16.21875 L 2.875 16.625 L 3.03125 17.1875 L 5.5 25.8125 L 5.65625 26.34375 L 6.1875 26.5 L 14.8125 28.96875 L 15.375 29.125 L 15.78125 28.71875 L 28.71875 15.78125 L 27.28125 14.375 L 14.78125 26.875 L 7.28125 24.71875 L 5.125 17.21875 L 17.625 4.71875 L 16.21875 3.28125 z M 19.40625 7.53125 L 18 8.9375 L 18.46875 9.40625 L 19.65625 12 L 18.21875 11.3125 L 17.59375 11.03125 L 17.09375 11.5 L 17.03125 11.5625 L 16.53125 12.0625 L 16.8125 12.71875 L 17.5 14.15625 L 14.96875 13 L 14.46875 12.5 L 13.03125 13.90625 L 13.65625 14.5 L 13.78125 14.65625 L 13.9375 14.71875 L 19.03125 17.03125 L 19.65625 17.3125 L 20.125 16.8125 L 20.21875 16.75 L 20.71875 16.25 L 20.40625 15.625 L 19.75 14.25 L 21.125 14.90625 L 21.78125 15.1875 L 22.25 14.6875 L 22.34375 14.625 L 22.8125 14.125 L 22.53125 13.5 L 20.21875 8.4375 L 20.15625 8.28125 L 20.03125 8.15625 L 19.40625 7.53125 z M 12.4375 15.375 C 11.898296 15.375 11.343199 15.594301 10.9375 16 L 10 16.96875 C 9.1886019 17.780148 9.1886019 19.126102 10 19.9375 C 10.560167 20.497667 11.372366 20.689013 12.125 20.4375 L 14.625 19.59375 C 14.65972 19.58212 14.69172 19.59795 14.71875 19.625 C 14.76535 19.6716 14.76535 19.734648 14.71875 19.78125 L 13.75 20.71875 C 13.7034 20.76535 13.6716 20.76535 13.625 20.71875 L 13.15625 20.25 L 11.71875 21.65625 L 12.21875 22.15625 C 13.030148 22.967648 14.376102 22.967648 15.1875 22.15625 L 16.125 21.1875 C 16.936398 20.376102 16.936398 19.030148 16.125 18.21875 C 15.564031 17.657781 14.753283 17.466381 14 17.71875 L 11.5 18.53125 C 11.46263 18.54374 11.43408 18.52785 11.40625 18.5 C 11.35965 18.4534 11.35965 18.4216 11.40625 18.375 L 12.375 17.40625 C 12.4216 17.35965 12.4534 17.35965 12.5 17.40625 L 13 17.90625 L 14.40625 16.46875 L 13.90625 16 C 13.500551 15.594301 12.976704 15.375 12.4375 15.375 z" overflow="visible" font-family="Bitstream Vera Sans" fill="#000000"/></svg>
