<?xml version="1.0" encoding="utf-8"?>
<svg xmlns="http://www.w3.org/2000/svg" viewBox="0 0 32 32" fill="#000000"><path d="M 11.5 3 C 6.813 3 3 6.813 3 11.5 C 3 15.488 5.7655625 18.834094 9.4765625 19.746094 L 11.236328 17.986328 C 7.7743281 17.846328 5 14.995 5 11.5 C 5 7.916 7.916 5 11.5 5 C 14.995 5 17.845328 7.773375 17.986328 11.234375 L 19.746094 9.4746094 C 18.833094 5.7646094 15.488 3 11.5 3 z M 28 3 A 1 1 0 0 0 27 4 A 1 1 0 0 0 28 5 A 1 1 0 0 0 29 4 A 1 1 0 0 0 28 3 z M 25 6 A 1 1 0 0 0 24 7 A 1 1 0 0 0 25 8 A 1 1 0 0 0 26 7 A 1 1 0 0 0 25 6 z M 9.7011719 8 L 9.3105469 11.488281 L 10.482422 11.789062 C 10.482422 11.715063 10.810547 11.417969 11.435547 11.417969 C 11.669547 11.417969 12.607422 11.412516 12.607422 12.603516 C 12.607422 12.752516 12.596078 13.882812 11.580078 13.882812 C 10.798078 13.882812 10.554687 13.274563 10.554688 12.976562 L 9.1640625 12.976562 C 9.0860625 13.647563 9.7070312 15 11.582031 15 C 13.223031 15 14 13.864828 14 12.673828 C 14 12.301828 13.937172 10.371094 11.826172 10.371094 C 11.201172 10.371094 10.804563 10.605469 10.726562 10.605469 L 10.873047 9.1171875 L 13.779297 9.1171875 L 13.779297 8 L 9.7011719 8 z M 22 9 A 1 1 0 0 0 21 10 A 1 1 0 0 0 22 11 A 1 1 0 0 0 23 10 A 1 1 0 0 0 22 9 z M 19 12 A 1 1 0 0 0 18 13 A 1 1 0 0 0 19 14 A 1 1 0 0 0 20 13 A 1 1 0 0 0 19 12 z M 22.757812 12.314453 L 21.042969 14.027344 C 24.373969 14.304344 27 17.099 27 20.5 C 27 24.084 24.084 27 20.5 27 C 17.099 27 14.304344 24.374922 14.027344 21.044922 L 12.314453 22.757812 C 13.306453 26.349813 16.596 29 20.5 29 C 25.187 29 29 25.187 29 20.5 C 29 16.596 26.350813 13.306453 22.757812 12.314453 z M 16 15 A 1 1 0 0 0 15 16 A 1 1 0 0 0 16 17 A 1 1 0 0 0 17 16 A 1 1 0 0 0 16 15 z M 21.357422 17.001953 C 21.108422 17.143953 20.022 17.750672 18.5 18.138672 L 18.5 19.171875 C 19.62 18.946875 20.200563 18.766375 20.476562 18.609375 L 20.476562 24 L 22 24 L 22 17.001953 L 21.357422 17.001953 z M 13 18 A 1 1 0 0 0 12 19 A 1 1 0 0 0 13 20 A 1 1 0 0 0 14 19 A 1 1 0 0 0 13 18 z M 10 21 A 1 1 0 0 0 9 22 A 1 1 0 0 0 10 23 A 1 1 0 0 0 11 22 A 1 1 0 0 0 10 21 z M 7 24 A 1 1 0 0 0 6 25 A 1 1 0 0 0 7 26 A 1 1 0 0 0 8 25 A 1 1 0 0 0 7 24 z M 4 27 A 1 1 0 0 0 3 28 A 1 1 0 0 0 4 29 A 1 1 0 0 0 5 28 A 1 1 0 0 0 4 27 z" fill="#000000"/></svg>
