<?xml version="1.0" encoding="utf-8"?>
<svg xmlns="http://www.w3.org/2000/svg" viewBox="0 0 32 32" fill="#000000"><path style="text-indent:0;text-align:start;line-height:normal;text-transform:none;block-progression:tb;-inkscape-font-specification:Bitstream Vera Sans" d="M 3 6 L 3 26 L 18.4375 26 L 17.71875 25.375 L 16.34375 24 L 5 24 L 5 8 L 27 8 L 27 23.9375 L 28.75 26 L 29 26 L 29 6 L 3 6 z M 7 10 L 7 13 L 9 13 L 9 10 L 7 10 z M 8 14 C 6.8954305 14 6 14.895431 6 16 C 6 17.104569 6.8954305 18 8 18 C 9.1045695 18 10 17.104569 10 16 C 10 14.895431 9.1045695 14 8 14 z M 13.125 14.3125 A 1.0001 1.0001 0 0 0 12.625 16.03125 L 13.0625 16.5 L 12.90625 16.65625 L 13.25 17.3125 L 14.75 20.21875 L 14.8125 20.34375 L 14.9375 20.46875 L 18.78125 24.3125 L 18.8125 24.34375 L 18.84375 24.375 L 24.0625 28.84375 C 24.834377 29.502472 26.000123 29.435358 26.71875 28.71875 C 27.436931 28.000569 27.505392 26.835428 26.84375 26.0625 L 22.375 20.84375 L 22.34375 20.8125 L 22.3125 20.78125 L 18.46875 16.9375 L 18.34375 16.8125 L 18.21875 16.75 L 15.3125 15.25 L 14.65625 14.90625 L 14.5 15.0625 L 14.03125 14.625 A 1.0001 1.0001 0 0 0 13.21875 14.3125 A 1.0001 1.0001 0 0 0 13.125 14.3125 z M 15.71875 17.71875 L 17.1875 18.46875 L 20.84375 22.15625 L 20.90625 22.21875 L 24.9375 26.9375 L 20.21875 22.90625 L 20.15625 22.84375 L 16.46875 19.1875 L 15.71875 17.71875 z M 7 19 L 7 22 L 9 22 L 9 19 L 7 19 z" overflow="visible" font-family="Bitstream Vera Sans" fill="#000000"/></svg>
