<?xml version="1.0" encoding="utf-8"?>
<svg xmlns="http://www.w3.org/2000/svg" viewBox="0 0 32 32" fill="#000000"><path style="text-indent:0;text-align:start;line-height:normal;text-transform:none;block-progression:tb;-inkscape-font-specification:Bitstream Vera Sans" d="M 5 5 L 5 6 L 5 26 L 5 27 L 6 27 L 26 27 L 27 27 L 27 26 L 27 6 L 27 5 L 26 5 L 6 5 L 5 5 z M 7 7 L 25 7 L 25 25 L 7 25 L 7 7 z M 14.71875 8.28125 L 13.28125 9.71875 L 14.5625 11 L 13.28125 12.28125 L 14.71875 13.71875 L 16 12.4375 L 17.28125 13.71875 L 18.71875 12.28125 L 17.4375 11 L 18.71875 9.71875 L 17.28125 8.28125 L 16 9.5625 L 14.71875 8.28125 z M 13.21875 14.9375 L 11.03125 17.46875 C 10.375452 18.223313 10 19.186954 10 20.1875 L 10 20.5 C 10 21.869063 11.130937 23 12.5 23 L 13.5 23 C 14.869063 23 16 21.869063 16 20.5 C 16 19.130937 14.869063 18 13.5 18 L 13.21875 18 L 14.71875 16.25 L 13.21875 14.9375 z M 20 15 L 20 18 L 19 18 L 19 15.03125 L 17 15.03125 L 17 19 L 17 20 L 18 20 L 20 20 L 20 23 L 22 23 L 22 15 L 20 15 z M 12.0625 20 L 13.5 20 C 13.786937 20 14 20.213063 14 20.5 C 14 20.786937 13.786937 21 13.5 21 L 12.5 21 C 12.213063 21 12 20.786937 12 20.5 L 12 20.1875 C 12 20.11952 12.0561 20.067205 12.0625 20 z" fill="#000000"/></svg>
