<?xml version="1.0" encoding="utf-8"?>
<svg xmlns="http://www.w3.org/2000/svg" viewBox="0 0 32 32" fill="#000000"><path style="text-indent:0;text-align:start;line-height:normal;text-transform:none;block-progression:tb;-inkscape-font-specification:Bitstream Vera Sans" d="M 24.5625 4.09375 C 23.484422 4.1756848 22.478727 4.8035186 21.9375 5.78125 L 19.9375 9.34375 C 19.85847 9.34662 19.806384 9.333298 19.71875 9.34375 C 19.14287 9.412438 18.319393 9.7387808 17.84375 10.53125 L 17.34375 11.375 L 18.21875 11.90625 L 18.4375 12.03125 L 14.90625 17.5 L 5.5 22.71875 L 5.46875 22.71875 C 4.8319364 23.108085 4.3467281 23.749532 4.15625 24.53125 C 3.9657719 25.312968 4.125088 26.260664 4.71875 27.03125 C 5.2801792 27.759512 6.1261453 28.115154 6.875 28.125 C 7.6128133 28.1347 8.2549891 27.86722 8.78125 27.53125 L 8.8125 27.53125 L 19.375 21.25 L 19.5625 21.15625 L 19.6875 20.96875 L 23.6875 15.125 L 23.96875 15.28125 L 24.875 15.8125 L 25.34375 14.875 C 25.908141 13.777038 25.635277 12.902014 25.3125 12.3125 L 27.1875 9.09375 C 27.645129 8.3092426 27.865427 7.450633 27.75 6.59375 C 27.634573 5.736867 27.108407 4.8720022 26.25 4.4375 C 25.852855 4.2365438 25.44632 4.1233286 25.03125 4.09375 C 24.875599 4.082658 24.716511 4.082045 24.5625 4.09375 z M 24.875 6.125 C 25.034591 6.1271783 25.199395 6.1457062 25.34375 6.21875 C 25.619343 6.3582478 25.737927 6.522133 25.78125 6.84375 C 25.82457 7.165367 25.73212 7.6422574 25.46875 8.09375 L 23.3125 11.8125 L 22.96875 12.375 L 21.15625 11.3125 L 21.40625 10.84375 L 23.6875 6.75 C 23.828137 6.4959382 24.096685 6.2885137 24.40625 6.1875 C 24.561032 6.1369932 24.715409 6.1228217 24.875 6.125 z M 20.15625 13.0625 L 21.9375 14.09375 L 18.1875 19.625 L 7.78125 25.8125 L 7.75 25.84375 C 7.4993879 26.006118 7.1461453 26.128154 6.90625 26.125 C 6.6663547 26.121846 6.5250708 26.056988 6.3125 25.78125 C 6.0471619 25.436836 6.0389781 25.224782 6.09375 25 C 6.1451513 24.78905 6.3244755 24.58963 6.5 24.46875 C 6.51151 24.46085 6.519608 24.44462 6.53125 24.4375 L 15.15625 19.65625 L 15.5625 20.21875 L 17.1875 19.09375 L 16.6875 18.375 L 20.15625 13.0625 z" overflow="visible" font-family="Bitstream Vera Sans" fill="#000000"/></svg>
