<?xml version="1.0" encoding="utf-8"?>
<svg xmlns="http://www.w3.org/2000/svg" viewBox="0 0 32 32" fill="#000000"><path style="text-indent:0;text-align:start;line-height:normal;text-transform:none;block-progression:tb;-inkscape-font-specification:Sans" d="M 11 3 L 11 7 L 11 7.09375 L 11.03125 7.1875 L 11.90625 11.5625 C 10.535949 12.540928 4 17.613053 4 26 L 4 26.40625 L 4.28125 26.71875 C 4.28125 26.71875 4.5693845 26.959291 4.96875 27.1875 C 5.3681155 27.415709 5.9692535 27.699674 6.84375 27.96875 C 8.592743 28.506902 11.425926 29 16 29 C 20.574074 29 23.407257 28.506902 25.15625 27.96875 C 26.030746 27.699674 26.631885 27.415709 27.03125 27.1875 C 27.430615 26.959291 27.71875 26.71875 27.71875 26.71875 L 28 26.40625 L 28 26 C 28 17.613053 21.464051 12.540928 20.09375 11.5625 L 20.96875 7.1875 L 21 7.09375 L 21 7 L 21 3 L 19 3 L 19 5.0625 C 17.778144 5.2371924 16.867407 5.7233015 16.25 6.21875 C 16.101888 6.337605 16.053506 6.4463558 15.9375 6.5625 C 15.333364 5.9561436 14.440508 5.2803321 13 5.0625 L 13 3 L 11 3 z M 18.96875 7.09375 L 18.03125 11.8125 L 17.875 12.46875 L 18.4375 12.84375 C 18.4375 12.84375 25.622759 17.710598 25.9375 25.5 C 25.669651 25.645516 25.278256 25.820633 24.59375 26.03125 C 24.148394 26.168283 23.572364 26.306952 22.90625 26.4375 C 22.660054 24.632343 22.031512 22.74444 21.4375 21.15625 C 20.668593 19.10045 19.90625 17.5625 19.90625 17.5625 L 18.09375 18.4375 C 18.09375 18.4375 18.831407 19.9203 19.5625 21.875 C 20.126957 23.38417 20.684972 25.181728 20.90625 26.71875 C 19.575907 26.872702 17.983634 27 16 27 C 14.016366 27 12.424093 26.872702 11.09375 26.71875 C 11.312779 25.155694 11.870485 23.35182 12.4375 21.84375 C 13.167924 19.901067 13.90625 18.4375 13.90625 18.4375 L 12.09375 17.5625 C 12.09375 17.5625 11.332076 19.078183 10.5625 21.125 C 9.964574 22.715284 9.3370199 24.605155 9.09375 26.4375 C 8.4276357 26.306952 7.851606 26.168283 7.40625 26.03125 C 6.7217441 25.820633 6.3303487 25.645516 6.0625 25.5 C 6.3772409 17.710598 13.5625 12.84375 13.5625 12.84375 L 14.125 12.46875 L 13.96875 11.8125 L 13.03125 7.125 C 14.583639 7.4632766 15.0625 8.46875 15.0625 8.46875 L 15.34375 9 L 15.9375 9 L 16 9 L 16.625 9 L 16.90625 8.4375 C 16.922793 8.4033119 16.905652 8.378921 17 8.25 C 17.094348 8.121079 17.269455 7.9662546 17.5 7.78125 C 17.820103 7.5243782 18.285933 7.2389732 18.96875 7.09375 z" overflow="visible" font-family="Sans" fill="#000000"/></svg>
