<?xml version="1.0" encoding="utf-8"?>
<svg xmlns="http://www.w3.org/2000/svg" viewBox="0 0 32 32" fill="#000000"><path style="text-indent:0;text-align:start;line-height:normal;text-transform:none;block-progression:tb;-inkscape-font-specification:Sans" d="M 12 6 L 12 7 L 12 9 L 11 9 L 10 9 L 7 9 L 6 9 L 6 10 L 6 12 L 4 12 L 3 12 L 3 13 L 3 15 L 2.0625 15 A 1.0001 1.0001 0 0 0 1.28125 15.40625 C 1.28125 15.40625 1.19486 15.511356 1.15625 15.59375 C 1.11764 15.67614 1.091094 15.798994 1.0625 15.90625 C 1.005313 16.120763 0.9693679 16.362238 0.96875 16.71875 C 0.96875 17.407233 1.0504907 18.168446 1.25 18.9375 C 1.1640096 18.95758 1.0708588 18.982118 1 19 L 1.28125 19 C 1.4877264 19.772296 1.8045915 20.550947 2.25 21.3125 C 2.2613879 21.331971 2.2696934 21.355566 2.28125 21.375 A 1.0001 1.0001 0 0 0 2.28125 21.40625 A 1.0001 1.0001 0 0 0 2.6875 22 A 1.0001 1.0001 0 0 0 2.71875 22.03125 C 2.886049 22.265244 3.0551486 22.494545 3.25 22.71875 C 4.8875195 24.602959 7.5274984 26.03125 11.28125 26.03125 C 17.047852 26.03125 22.039442 23.656849 25.03125 19 L 30.09375 19 C 29.45975 18.84 28.0855 18.60925 28.3125 17.78125 C 27.612887 18.588963 26.319015 18.762373 25.25 18.625 C 25.601654 18.043502 25.929442 17.42999 26.21875 16.78125 C 27.873452 16.68502 29.132345 16.123717 29.84375 15.4375 C 30.657938 14.652139 30.90625 13.75 30.90625 13.75 A 1.0001 1.0001 0 0 0 30.59375 12.71875 C 30.59375 12.71875 29.081762 11.660372 26.90625 11.875 C 26.158429 9.8839464 24.59375 8.90625 24.59375 8.90625 A 1.0001 1.0001 0 0 0 23.90625 8.78125 A 1.0001 1.0001 0 0 0 23.46875 9 C 23.46875 9 23.01016 9.4043412 22.65625 10.0625 C 22.30234 10.720659 21.980136 11.713647 22.09375 12.96875 C 22.1358 13.431304 22.418773 13.836616 22.59375 14.28125 C 22.466927 14.36028 22.352481 14.450513 22.1875 14.53125 C 21.683288 14.777996 20.997432 15 20.09375 15 L 20 15 L 20 13 L 20 12 L 19 12 L 17 12 L 17 11 L 17 10 L 17 9 L 17 7 L 17 6 L 16 6 L 13 6 L 12 6 z M 14 8 L 15 8 L 15 9 L 14 9 L 14 8 z M 8 11 L 9 11 L 9 12 L 8 12 L 8 11 z M 11 11 L 12 11 L 12 12 L 11 12 L 11 11 z M 14 11 L 15 11 L 15 12 L 14 12 L 14 11 z M 24.34375 11.3125 C 24.704115 11.718153 25.09212 12.293851 25.25 13.125 A 1.0001 1.0001 0 0 0 26.5 13.90625 C 27.405348 13.658442 28.06551 13.737177 28.53125 13.875 C 28.47521 13.94094 28.51163 13.92849 28.4375 14 C 27.980688 14.440639 27.215531 14.935201 25.625 14.875 A 1.0001 1.0001 0 0 0 24.65625 15.5 C 24.208928 16.612075 23.684838 17.611389 23.0625 18.5 C 21.584613 19.075304 18.298934 18.652547 18.03125 17.90625 C 17.05325 19.05225 14.0415 19.05225 13.0625 17.90625 C 12.7455 18.78625 8.18725 19.1925 7.40625 18.0625 C 6.7782708 18.650167 4.4866345 19.039665 3.1875 18.15625 C 3.1053576 17.755127 3.0475339 17.359566 3.03125 17 L 4 17 L 11 17 L 12 17 L 15 17 L 17 17 L 19 17 L 20 17 L 20.09375 17 C 21.340068 17 22.343712 16.664254 23.0625 16.3125 C 23.421894 16.136623 23.720989 15.959406 23.9375 15.8125 C 24.154011 15.665594 24.332488 15.53169 24.28125 15.5625 A 1.0001 1.0001 0 0 0 24.5625 14.09375 C 24.2969 13.747944 24.142847 13.321318 24.09375 12.78125 C 24.03 12.076962 24.18974 11.670452 24.34375 11.3125 z M 5 14 L 6 14 L 6 15 L 5 15 L 5 14 z M 8 14 L 9 14 L 9 15 L 8 15 L 8 14 z M 11 14 L 12 14 L 12 15 L 11 15 L 11 14 z M 14 14 L 15 14 L 15 15 L 14 15 L 14 14 z M 17 14 L 18 14 L 18 15 L 17 15 L 17 14 z M 3.40625 19 L 22.6875 19 C 20.052911 22.404435 16.075681 24.03125 11.28125 24.03125 C 8.7703666 24.03125 7.0061884 23.35616 5.75 22.375 C 7.8740023 22.301653 9.40625 21.75 9.40625 21.75 A 1.002073 1.002073 0 1 0 9.03125 19.78125 A 1.0004882 1.0004882 0 0 0 8.90625 19.8125 A 1.0001 1.0001 0 0 0 8.75 19.875 C 8.75 19.875 6.5594244 20.595368 3.96875 20.28125 C 3.7304216 19.855735 3.5477359 19.432953 3.40625 19 z M 10.71875 19.1875 C 10.39675 19.1875 10.125 19.45825 10.125 19.78125 C 10.125 20.10225 10.39675 20.375 10.71875 20.375 C 11.04075 20.375 11.28125 20.10225 11.28125 19.78125 C 11.28125 19.70225 11.279 19.6315 11.25 19.5625 C 11.21 19.6355 11.12125 19.6875 11.03125 19.6875 C 10.90025 19.6875 10.8125 19.5685 10.8125 19.4375 C 10.8125 19.3495 10.83525 19.291 10.90625 19.25 C 10.84125 19.224 10.79375 19.1875 10.71875 19.1875 z" fill="#000000"/></svg>
