<?xml version="1.0" encoding="utf-8"?>
<svg xmlns="http://www.w3.org/2000/svg" viewBox="0 0 32 32" fill="#000000"><path d="M 16 3 L 13 8 L 15 8 L 15 20.0625 C 14.21822 19.734189 13.411615 19.607909 12.65625 19.5 C 11.78125 19.375 10.983369 19.251705 10.5625 19.03125 C 10.141631 18.810795 10 18.708333 10 18 L 10 15.71875 C 10.596896 15.372707 11 14.739604 11 14 C 11 12.895431 10.104569 12 9 12 C 7.8954305 12 7 12.895431 7 14 C 7 14.739604 7.4031044 15.372707 8 15.71875 L 8 18 C 8 19.291667 8.7333689 20.314205 9.625 20.78125 C 10.516631 21.248295 11.46875 21.375 12.34375 21.5 C 13.21875 21.625 14.016631 21.748295 14.4375 21.96875 C 14.858369 22.189205 15 22.291667 15 23 A 1.0001 1.0001 0 0 0 15 23.09375 L 15 23.1875 C 13.841652 23.603011 13 24.698679 13 26 C 13 27.656854 14.343146 29 16 29 C 17.656854 29 19 27.656854 19 26 C 19 24.698679 18.158348 23.603011 17 23.1875 A 1.0001 1.0001 0 0 0 17 23 L 17 21.15625 A 1.0001 1.0001 0 0 0 17 21 C 17 20.333333 17.190956 20.138609 17.75 19.8125 C 18.309044 19.486391 19.25 19.21875 20.25 18.96875 C 21.25 18.71875 22.309044 18.486391 23.25 17.9375 C 24.190956 17.388609 25 16.333333 25 15 L 25 13 L 26 13 L 26 9 L 22 9 L 22 13 L 23 13 L 23 15 C 23 15.666667 22.809044 15.861391 22.25 16.1875 C 21.690956 16.513609 20.75 16.78125 19.75 17.03125 C 18.837692 17.259327 17.876093 17.485045 17 17.9375 L 17 8 L 19 8 L 16 3 z" fill="#000000"/></svg>
