<?xml version="1.0" encoding="utf-8"?>
<svg xmlns="http://www.w3.org/2000/svg" viewBox="0 0 32 32" fill="#000000"><path style="text-indent:0;text-align:start;line-height:normal;text-transform:none;block-progression:tb;-inkscape-font-specification:Bitstream Vera Sans" d="M 2 5 L 2 23 L 8.0625 23 C 8.3345 22.281 8.71025 21.611 9.15625 21 L 4 21 L 4 7 L 28 7 L 28 21 L 22.84375 21 C 23.28975 21.611 23.6655 22.281 23.9375 23 L 30 23 L 30 5 L 2 5 z M 16 11 C 13.250421 11 11 13.250421 11 16 C 11 17.515649 11.706976 18.862268 12.78125 19.78125 C 10.533165 20.948498 9 23.301065 9 26 L 11 26 C 11 23.226334 13.226334 21 16 21 C 18.773666 21 21 23.226334 21 26 L 23 26 C 23 23.301065 21.466835 20.948498 19.21875 19.78125 C 20.293024 18.862268 21 17.515649 21 16 C 21 13.250421 18.749579 11 16 11 z M 16 13 C 17.668699 13 19 14.331301 19 16 C 19 17.668699 17.668699 19 16 19 C 14.331301 19 13 17.668699 13 16 C 13 14.331301 14.331301 13 16 13 z" overflow="visible" font-family="Bitstream Vera Sans" fill="#000000"/></svg>
