<?xml version="1.0" encoding="utf-8"?>
<svg xmlns="http://www.w3.org/2000/svg" viewBox="0 0 32 32" fill="#000000"><path style="text-indent:0;text-align:start;line-height:normal;text-transform:none;block-progression:tb;-inkscape-font-specification:Sans" d="M 2 5 L 2 7 L 4 7 L 4 16 L 4 17 L 5 17 L 6 17 L 6 21 L 2 21 L 2 23 L 3.90625 23 C 3.90625 23.449456 4.0065903 23.701448 4.125 24.03125 C 4.2402336 24.352206 4.3901501 24.68674 4.53125 25 L 2 25 L 2 27 L 6 27 L 7 27 L 7 26 L 7 25.75 L 7 25.53125 L 6.875 25.3125 C 6.875 25.3125 6.6069278 24.801144 6.34375 24.21875 C 6.2121611 23.927553 6.0889653 23.622792 6 23.375 C 5.9110347 23.127208 5.90625 22.867044 5.90625 23 L 6 23 C 7.0930628 23 8 22.093063 8 21 L 8 16 L 8 15 L 7 15 L 6 15 L 6 7 C 6 5.9069372 5.0930628 5 4 5 L 2 5 z M 13 5 C 11.906937 5 11 5.9069372 11 7 L 11 15 L 10 15 L 9 15 L 9 16 L 9 21 C 9 22.093063 9.9069372 23 11 23 C 10.998079 22.949013 10.981946 23.139781 10.90625 23.375 C 10.82459 23.628751 10.68198 23.922859 10.5625 24.21875 C 10.323541 24.810533 10.09375 25.34375 10.09375 25.34375 L 10 25.53125 L 10 25.75 L 10 26 L 10 27 L 11 27 L 21 27 L 22 27 L 22 26 L 22 25.75 L 22 25.53125 L 21.875 25.3125 C 21.875 25.3125 21.606928 24.801144 21.34375 24.21875 C 21.212161 23.927553 21.088965 23.622792 21 23.375 C 20.911035 23.127208 20.90625 22.867044 20.90625 23 L 21 23 C 22.093063 23 23 22.093063 23 21 L 23 16 L 23 15 L 22 15 L 21 15 L 21 7 C 21 5.9069372 20.093063 5 19 5 L 13 5 z M 28 5 C 26.906937 5 26 5.9069372 26 7 L 26 15 L 25 15 L 24 15 L 24 16 L 24 21 C 24 22.093063 24.906937 23 26 23 L 26.09375 23 C 26.09375 22.867044 26.08895 23.127208 26 23.375 C 25.91103 23.622792 25.787839 23.927553 25.65625 24.21875 C 25.393072 24.801144 25.125 25.3125 25.125 25.3125 L 25 25.53125 L 25 25.75 L 25 26 L 25 27 L 26 27 L 30 27 L 30 25 L 27.46875 25 C 27.60985 24.68674 27.759766 24.352206 27.875 24.03125 C 27.99341 23.701448 28.09375 23.449456 28.09375 23 L 30 23 L 30 21 L 26 21 L 26 17 L 27 17 L 28 17 L 28 16 L 28 7 L 30 7 L 30 5 L 28 5 z M 13 7 L 19 7 L 19 16 L 19 17 L 20 17 L 21 17 L 21 21 L 11 21 L 11 17 L 12 17 L 13 17 L 13 16 L 13 7 z M 2 18 L 2 20 L 5 20 L 5 18 L 2 18 z M 12 18 L 12 20 L 20 20 L 20 18 L 12 18 z M 27 18 L 27 20 L 30 20 L 30 18 L 27 18 z M 13 23 L 18.90625 23 C 18.90625 23.449456 19.00659 23.701448 19.125 24.03125 C 19.240234 24.352206 19.39015 24.68674 19.53125 25 L 12.4375 25 C 12.4431 24.98616 12.4319 24.98268 12.4375 24.96875 C 12.56802 24.645516 12.675408 24.297655 12.78125 23.96875 C 12.884021 23.649387 12.993737 23.400121 13 23 z" overflow="visible" font-family="Sans" fill="#000000"/></svg>
