<?xml version="1.0" encoding="utf-8"?>
<svg xmlns="http://www.w3.org/2000/svg" viewBox="0 0 32 32" fill="#000000"><path style="text-indent:0;text-align:start;line-height:normal;text-transform:none;block-progression:tb;-inkscape-font-specification:Bitstream Vera Sans" d="M 16 4 C 14.354991 4 13 5.3549901 13 7 C 13 8.6450099 14.354991 10 16 10 C 17.645009 10 19 8.6450099 19 7 C 19 5.3549901 17.645009 4 16 4 z M 16 6 C 16.564129 6 17 6.4358709 17 7 C 17 7.5641291 16.564129 8 16 8 C 15.435871 8 15 7.5641291 15 7 C 15 6.4358709 15.435871 6 16 6 z M 6 11 L 6 13 L 13 13 L 13 28 L 15 28 L 15 20.71875 L 18 19.71875 L 19.53125 20.96875 L 16 22.1875 L 16 24.3125 L 20.9375 22.59375 C 21.4685 22.40875 21.87075 21.95925 21.96875 21.40625 C 22.06675 20.85325 21.84225 20.2935 21.40625 19.9375 L 19 18 L 19 13 L 26 13 L 26 11 L 16 11 L 6 11 z M 15 13 L 16 13 L 17 13 L 17 17.9375 L 15 18.625 L 15 13 z" overflow="visible" font-family="Bitstream Vera Sans" fill="#000000"/></svg>
