<?xml version="1.0" encoding="utf-8"?>
<svg xmlns="http://www.w3.org/2000/svg" viewBox="0 0 32 32" fill="#000000"><path style="text-indent:0;text-align:start;line-height:normal;text-transform:none;block-progression:tb;-inkscape-font-specification:Bitstream Vera Sans" d="M 10.375 3.96875 C 10.083174 3.9716211 9.90625 4 9.90625 4 L 8.875 4.09375 L 9 5.125 C 9 5.125 9.24638 7.4089824 10.875 9.09375 C 7.5710684 9.6049129 5 12.330666 5 15.65625 C 5 19.243257 6.5989144 22.085828 8.46875 24 C 9.4036678 24.957086 10.394128 25.680277 11.34375 26.1875 C 12.293372 26.694723 13.163685 27 14 27 C 14.548339 27 15.076363 26.9071 15.5625 26.75 C 15.856459 26.65461 16.143541 26.65461 16.4375 26.75 C 16.923637 26.907098 17.451661 27 18 27 C 18.907313 27 19.775436 26.616351 20.71875 26.03125 C 21.662064 25.446149 22.640555 24.631713 23.5625 23.625 C 25.406391 21.611575 27 18.821583 27 15.65625 C 27 11.963134 23.82255 9 20 9 C 18.971216 9 18.024325 9.2496911 17.15625 9.65625 C 17.15226 9.6271728 17.133258 9.5812087 17.125 9.53125 C 17.63638 6.8620392 19.5 5.875 19.5 5.875 L 18.5 4.125 C 18.5 4.125 17.091629 4.9740672 16.0625 6.78125 C 15.737806 6.2861799 15.309826 5.7966241 14.78125 5.375 C 13.195283 4.109937 11.250479 3.9601366 10.375 3.96875 z M 11.34375 6.09375 C 12.034326 6.1982218 12.889654 6.4257238 13.53125 6.9375 C 14.184099 7.4582517 14.620312 8.2178769 14.875 8.875 C 14.177924 8.7731919 13.308939 8.5206246 12.65625 8 C 12.010619 7.4850055 11.599199 6.7464071 11.34375 6.09375 z M 12 11 C 13.30075 11 14.45842 11.471805 15.34375 12.21875 L 16 12.75 L 16.65625 12.21875 C 17.54158 11.471805 18.69925 11 20 11 C 22.80545 11 25 13.111366 25 15.65625 C 25 18.137917 23.697609 20.529925 22.09375 22.28125 C 21.29182 23.156912 20.42003 23.838757 19.65625 24.3125 C 18.89247 24.786243 18.197187 25 18 25 C 17.670339 25 17.362363 24.94065 17.0625 24.84375 C 16.376459 24.621137 15.623541 24.621137 14.9375 24.84375 C 14.637637 24.940652 14.329661 25 14 25 C 13.731815 25 13.038722 24.842089 12.28125 24.4375 C 11.523778 24.032911 10.663957 23.401414 9.875 22.59375 C 8.2970856 20.978422 7 18.657243 7 15.65625 C 7 13.111366 9.1945496 11 12 11 z" overflow="visible" font-family="Bitstream Vera Sans" fill="#000000"/></svg>
