<?xml version="1.0" encoding="utf-8"?>
<svg xmlns="http://www.w3.org/2000/svg" viewBox="0 0 32 32" fill="#000000"><path style="text-indent:0;text-align:start;line-height:normal;text-transform:none;block-progression:tb;-inkscape-font-specification:Bitstream Vera Sans" d="M 12.5 5 C 10.578848 5 9 6.5788481 9 8.5 C 9 9.1605262 9.2082334 9.7519085 9.53125 10.28125 C 8.0982562 10.094408 6.6544598 10.811623 5.96875 12.15625 L 4.5 15.0625 C 3.947 16.1485 3.85375 17.36725 4.21875 18.53125 L 5.15625 21.53125 L 2.5 27 L 4.71875 27 L 7.03125 22.21875 C 7.19725 21.87375 7.239 21.489 7.125 21.125 L 6.125 17.9375 C 5.918 17.2755 5.96625 16.58475 6.28125 15.96875 L 7.75 13.0625 C 8.088 12.3975 8.8645 12.10475 9.5625 12.34375 L 7.125 17.96875 L 9.84375 21.75 L 10.96875 27 L 13.03125 27 L 11.75 21.21875 C 11.706 21.01975 11.65325 20.82725 11.53125 20.65625 L 9.40625 17.75 L 10.96875 14.125 L 11.875 16.125 C 12.116 16.663 12.659 17 13.25 17 L 17.09375 17 L 17.09375 15 L 13.5625 15 L 12.1875 11.96875 C 12.294305 11.978733 12.390754 12 12.5 12 C 14.421152 12 16 10.421152 16 8.5 C 16 6.5788481 14.421152 5 12.5 5 z M 12.5 7 C 13.340272 7 14 7.6597281 14 8.5 C 14 9.3402719 13.340272 10 12.5 10 C 11.659728 10 11 9.3402719 11 8.5 C 11 7.6597281 11.659728 7 12.5 7 z M 20.5 7 C 18.578848 7 17 8.5788481 17 10.5 C 17 12.421152 18.578848 14 20.5 14 C 20.686013 14 20.852777 13.96598 21.03125 13.9375 L 20.5 14.5625 L 19.46875 18 L 16.1875 20.0625 L 17.21875 21.75 L 20.6875 19.59375 C 21.0005 19.39975 21.23975 19.101 21.34375 18.75 L 21.8125 17.1875 L 23.09375 18.8125 L 20.78125 22.09375 L 19.84375 27 L 21.875 27 L 22.65625 22.90625 L 25.59375 18.71875 L 22.6875 15.09375 L 23.59375 14.0625 L 23.75 14.0625 L 26.46875 16.84375 C 27.00175 17.38875 27.1385 18.21725 26.8125 18.90625 L 25.25 22.21875 C 25.04 22.66375 25.0665 23.197 25.3125 23.625 L 27.25 27 L 29.5625 27 L 27.1875 22.84375 L 28.625 19.78125 C 29.309 18.34025 29.02225 16.5785 27.90625 15.4375 L 25.1875 12.65625 C 24.781838 12.240765 24.20307 12.02593 23.625 12.03125 C 23.858956 11.563008 24 11.0553 24 10.5 C 24 8.5788481 22.421152 7 20.5 7 z M 20.5 9 C 21.340272 9 22 9.6597281 22 10.5 C 22 11.340272 21.340272 12 20.5 12 C 19.659728 12 19 11.340272 19 10.5 C 19 9.6597281 19.659728 9 20.5 9 z" overflow="visible" font-family="Bitstream Vera Sans" fill="#000000"/></svg>
