<?xml version="1.0" encoding="utf-8"?>
<svg xmlns="http://www.w3.org/2000/svg" viewBox="0 0 32 32" fill="#000000"><path d="M 16 2 C 8.7142857 2 4.4003906 5.1992188 4.4003906 5.1992188 L 4 5.5 L 4 17 C 4 21.082683 7.0344319 24.280064 9.8925781 26.470703 C 12.750724 28.661342 15.595703 29.914062 15.595703 29.914062 L 15.962891 30.078125 L 16.341797 29.939453 C 16.341797 29.939453 19.209659 28.901853 22.087891 26.808594 C 24.966123 24.715334 28 21.458333 28 17 L 28 5.5 L 27.599609 5.1992188 C 27.599609 5.1992188 23.285714 2 16 2 z M 16 4 C 22.213091 4 25.494214 6.2338568 26 6.5917969 L 26 17 C 26 20.541667 23.533877 23.284666 20.912109 25.191406 C 19.337669 26.336454 17.928154 27.05607 17 27.478516 L 17 24 L 15 24 L 15 27.375 C 14.061936 26.880916 12.666504 26.077778 11.107422 24.882812 C 8.465568 22.857952 6 20.055317 6 17 L 6 6.5917969 C 6.5057855 6.2338568 9.7869088 4 16 4 z M 11 7 C 9.669 7 8 8 7 10 C 8.302 9.093 9.4080312 8.3320313 10.332031 8.3320312 C 12.124031 8.3320312 13.017969 10.433031 13.292969 10.707031 C 13.682969 11.098031 14.316031 11.098031 14.707031 10.707031 C 15.098031 10.317031 15.098031 9.6839688 14.707031 9.2929688 C 14.463031 9.0499688 13.292 7 11 7 z M 21 7 C 18.708 7 17.536969 9.0499688 17.292969 9.2929688 C 16.901969 9.6839688 16.901969 10.317031 17.292969 10.707031 C 17.683969 11.098031 18.317031 11.098031 18.707031 10.707031 C 18.982031 10.433031 20.209 8 22 8 C 22.925 8 24 9 25 10 C 24 7 22.331 7 21 7 z M 10.5 11 C 9.475 11 8.574 11.396 8 12 C 8.574 12.604 9.475 13 10.5 13 C 11.525 13 12.426 12.604 13 12 C 12.426 11.396 11.525 11 10.5 11 z M 21.5 11 C 20.475 11 19.574 11.396 19 12 C 19.574 12.604 20.475 13 21.5 13 C 22.525 13 23.426 12.604 24 12 C 23.426 11.396 22.525 11 21.5 11 z M 8 17 L 11 22 L 15 22 L 16 21 L 17 22 L 21 22 L 24 17 L 20 20 L 19 20 L 17 18 L 15 18 L 13 20 L 12 20 L 8 17 z" fill="#000000"/></svg>
