<?xml version="1.0" encoding="utf-8"?>
<svg xmlns="http://www.w3.org/2000/svg" viewBox="0 0 32 32" fill="#000000"><path style="text-indent:0;text-align:start;line-height:normal;text-transform:none;block-progression:tb;-inkscape-font-specification:Bitstream Vera Sans" d="M 10.4375 5.09375 L 9.5625 6.90625 L 25.34375 14.78125 C 26.362098 15.2908 27 16.330428 27 17.46875 L 27 18 L 6 18 C 4.3550302 18 3 19.35503 3 21 L 3 25 L 3 26 L 4 26 L 28 26 L 29 26 L 29 25 L 29 19 L 29 18 L 29 17.46875 C 29 15.577072 27.941652 13.84645 26.25 13 L 10.4375 5.09375 z M 6 15 L 6 17 L 23 17 L 23 15 L 6 15 z M 6 20 L 27 20 L 27 24 L 5 24 L 5 21 C 5 20.43497 5.4349698 20 6 20 z M 8 21 C 7.4477153 21 7 21.447715 7 22 C 7 22.552285 7.4477153 23 8 23 C 8.5522847 23 9 22.552285 9 22 C 9 21.447715 8.5522847 21 8 21 z" overflow="visible" font-family="Bitstream Vera Sans" fill="#000000"/></svg>
