<?xml version="1.0" encoding="utf-8"?>
<svg xmlns="http://www.w3.org/2000/svg" viewBox="0 0 32 32" fill="#000000"><path style="text-indent:0;text-align:start;line-height:normal;text-transform:none;block-progression:tb;-inkscape-font-specification:Bitstream Vera Sans" d="M 15.9375 3 L 15.40625 3.03125 L 15.53125 5.03125 L 15.9375 5 L 16 5 L 16.0625 5 L 17.0625 5.0625 L 17.1875 5.0625 L 17.3125 5.09375 L 17.625 3.09375 L 17.375 3.0625 L 17.3125 3.0625 L 17.28125 3.0625 L 16.0625 3 L 16 3 L 15.9375 3 z M 13.25 3.3125 L 12.1875 3.5625 L 12.125 3.59375 L 12.09375 3.59375 L 11.21875 3.90625 L 11.90625 5.78125 L 12.6875 5.5 L 12.71875 5.5 L 12.78125 5.46875 L 13.71875 5.25 L 13.25 3.3125 z M 19.65625 3.53125 L 19.15625 5.46875 L 19.21875 5.46875 L 19.28125 5.5 L 19.3125 5.5 L 20.25 5.84375 L 20.3125 5.875 L 20.84375 6.125 L 21.71875 4.34375 L 21.09375 4.03125 L 21.0625 4.03125 L 21 4 L 19.90625 3.59375 L 19.875 3.59375 L 19.8125 3.5625 L 19.65625 3.53125 z M 9.28125 4.90625 L 8.78125 5.1875 L 8.71875 5.21875 L 8.6875 5.25 L 7.78125 5.9375 L 7.71875 5.96875 L 7.6875 6 L 7.5 6.1875 L 8.84375 7.65625 L 8.96875 7.53125 L 9.03125 7.46875 L 9.8125 6.90625 L 9.875 6.84375 L 10.3125 6.59375 L 9.28125 4.90625 z M 23.59375 5.46875 L 22.375 7.0625 L 22.96875 7.46875 L 23.03125 7.53125 L 23.75 8.1875 L 23.78125 8.21875 L 23.8125 8.25 L 24.15625 7.875 L 25.25 6.875 L 25.21875 6.84375 L 25.1875 6.8125 L 25.15625 6.78125 L 24.3125 6 L 24.28125 5.96875 L 24.21875 5.9375 L 23.59375 5.46875 z M 6.03125 7.65625 L 6 7.6875 L 5.96875 7.71875 L 5.9375 7.78125 L 5.25 8.6875 L 5.21875 8.71875 L 5.1875 8.78125 L 4.78125 9.46875 L 6.5 10.5 L 6.90625 9.8125 L 7.46875 9.03125 L 7.5 9 L 7.53125 8.96875 L 7.15625 8.6875 L 6.03125 7.65625 z M 26.59375 8.46875 L 25 9.6875 L 25.09375 9.8125 L 25.65625 10.71875 L 25.6875 10.8125 L 25.90625 11.25 L 27.71875 10.375 L 27.4375 9.84375 L 27.4375 9.8125 L 27.40625 9.75 L 26.8125 8.78125 L 26.78125 8.71875 L 26.75 8.6875 L 26.59375 8.46875 z M 16 9 C 14.35499 9 13 10.35499 13 12 C 13 13.64501 14.35499 15 16 15 C 17.64501 15 19 13.64501 19 12 C 19 10.35499 17.64501 9 16 9 z M 9.96875 10.8125 L 8.03125 11.1875 L 9.03125 16.1875 L 9.125 16.75 L 9.6875 16.9375 L 12.15625 17.75 L 12.96875 21.84375 L 12.09375 23.5625 L 13.90625 24.4375 L 14.625 23 L 17.375 23 L 18.09375 24.4375 L 19.90625 23.5625 L 19.03125 21.84375 L 19.84375 17.75 L 22.3125 16.9375 L 22.875 16.75 L 22.96875 16.1875 L 23.96875 11.1875 L 22.03125 10.8125 L 21.15625 15.25 L 18.875 16 L 13.125 16 L 10.84375 15.25 L 9.96875 10.8125 z M 16 11 C 16.564128 11 17 11.435872 17 12 C 17 12.564128 16.564128 13 16 13 C 15.435872 13 15 12.564128 15 12 C 15 11.435872 15.435872 11 16 11 z M 3.84375 11.4375 L 3.59375 12.09375 L 3.59375 12.125 L 3.5625 12.1875 L 3.28125 13.34375 L 3.25 13.375 L 3.25 13.4375 L 3.25 13.5625 L 5.21875 13.84375 L 5.46875 12.78125 L 5.5 12.71875 L 5.5 12.6875 L 5.71875 12.125 L 3.84375 11.4375 z M 28.5 12.40625 L 26.5625 12.90625 L 26.78125 13.84375 L 26.8125 13.84375 L 26.9375 14.78125 L 28.90625 14.46875 L 28.75 13.4375 L 28.75 13.375 L 28.71875 13.34375 L 28.5 12.40625 z M 3.03125 15.625 L 3 15.9375 L 3 16 L 3 16.0625 L 3.0625 17.28125 L 3.0625 17.3125 L 3.0625 17.375 L 3.15625 17.84375 L 5.125 17.53125 L 5.0625 17.1875 L 5.0625 17.0625 L 5 16.0625 L 5 15.9375 L 5 15.75 L 3.03125 15.625 z M 27 15.9375 L 26.9375 17.0625 L 26.9375 17.1875 L 26.84375 17.84375 L 28.8125 18.125 L 28.9375 17.375 L 28.9375 17.3125 L 28.9375 17.28125 L 29 16.0625 L 27 15.9375 z M 14.21875 18 L 17.78125 18 L 17.1875 21 L 14.8125 21 L 14.21875 18 z M 5.5 19.28125 L 3.625 19.96875 L 4 21 L 4.03125 21.0625 L 4.03125 21.09375 L 4.4375 21.90625 L 6.21875 21.03125 L 5.875 20.3125 L 5.84375 20.25 L 5.5 19.28125 z M 26.40625 19.59375 L 26.15625 20.25 L 26.125 20.3125 L 25.6875 21.1875 L 25.6875 21.21875 L 25.6875 21.25 L 25.65625 21.28125 L 26.0625 21.46875 L 27.375 22.28125 L 27.40625 22.25 L 27.4375 22.1875 L 27.4375 22.15625 L 27.96875 21.09375 L 27.96875 21.0625 L 28 21 L 28.28125 20.28125 L 26.40625 19.59375 z M 7.1875 22.5625 L 5.59375 23.78125 L 5.9375 24.21875 L 5.96875 24.28125 L 6 24.3125 L 6.78125 25.15625 L 6.8125 25.1875 L 6.84375 25.21875 L 7.03125 25.40625 L 8.375 23.9375 L 8.25 23.8125 L 8.1875 23.75 L 7.53125 23.03125 L 7.46875 22.96875 L 7.1875 22.5625 z M 24.625 22.8125 L 24.53125 22.96875 L 24.46875 23.03125 L 23.8125 23.75 L 23.78125 23.78125 L 23.75 23.8125 L 23.375 24.125 L 24.71875 25.625 L 25.15625 25.21875 L 25.1875 25.1875 L 25.21875 25.15625 L 26 24.3125 L 26.03125 24.28125 L 26.0625 24.21875 L 26.21875 24 L 24.625 22.8125 z M 9.8125 25.09375 L 9.5 25.5625 L 8.65625 26.71875 L 8.6875 26.75 L 8.71875 26.78125 L 8.78125 26.8125 L 9.75 27.40625 L 9.8125 27.4375 L 9.84375 27.4375 L 10.5625 27.8125 L 11.4375 26 L 10.8125 25.6875 L 10.71875 25.65625 L 9.84375 25.125 L 9.8125 25.09375 z M 21.96875 25.25 L 21.28125 25.65625 L 21.1875 25.6875 L 20.28125 26.125 L 21.15625 27.9375 L 22.15625 27.4375 L 22.1875 27.4375 L 22.25 27.40625 L 23 26.9375 L 21.96875 25.25 z M 13.125 26.59375 L 12.625 28.53125 L 13.34375 28.71875 L 13.375 28.75 L 13.4375 28.75 L 14.625 28.9375 L 14.6875 28.9375 L 14.71875 28.9375 L 14.78125 28.9375 L 14.875 27.28125 L 14.9375 26.9375 L 14.90625 26.9375 L 14.8125 26.9375 L 13.84375 26.78125 L 13.125 26.59375 z M 18.5625 26.6875 L 18.15625 26.78125 L 17.1875 26.9375 L 17.0625 26.9375 L 16.78125 26.96875 L 16.90625 28.96875 L 17.28125 28.9375 L 17.3125 28.9375 L 17.375 28.9375 L 18.5625 28.75 L 18.625 28.75 L 18.65625 28.71875 L 19.0625 28.625 L 18.5625 26.6875 z" fill="#000000"/></svg>
