<?xml version="1.0" encoding="utf-8"?>
<svg xmlns="http://www.w3.org/2000/svg" viewBox="0 0 32 32" fill="#000000"><path style="text-indent:0;text-align:start;line-height:normal;text-transform:none;block-progression:tb;-inkscape-font-specification:Bitstream Vera Sans" d="M 5 5 L 5 6 L 5 26 L 5 27 L 6 27 L 26 27 L 27 27 L 27 26 L 27 6 L 27 5 L 26 5 L 6 5 L 5 5 z M 7 7 L 25 7 L 25 25 L 7 25 L 7 7 z M 14.71875 8.28125 L 13.28125 9.71875 L 14.5625 11 L 13.28125 12.28125 L 14.71875 13.71875 L 16 12.4375 L 17.28125 13.71875 L 18.71875 12.28125 L 17.4375 11 L 18.71875 9.71875 L 17.28125 8.28125 L 16 9.5625 L 14.71875 8.28125 z M 20.21875 14.9375 L 18.03125 17.46875 C 17.375452 18.223313 17 19.186954 17 20.1875 L 17 20.5 C 17 21.869063 18.130937 23 19.5 23 L 20.5 23 C 21.869063 23 23 21.869063 23 20.5 C 23 19.130937 21.869063 18 20.5 18 L 20.21875 18 L 21.71875 16.25 L 20.21875 14.9375 z M 11.5 15 C 10.130937 15 9 16.130937 9 17.5 C 9 18.062183 9.2116722 18.579942 9.53125 19 C 9.2116722 19.420058 9 19.937817 9 20.5 C 9 21.869063 10.130937 23 11.5 23 L 12.5 23 C 13.869063 23 15 21.869063 15 20.5 C 15 19.937817 14.788328 19.420058 14.46875 19 C 14.788328 18.579942 15 18.062183 15 17.5 C 15 16.130937 13.869063 15 12.5 15 L 11.5 15 z M 11.5 17 L 12.5 17 C 12.786937 17 13 17.213063 13 17.5 C 13 17.786937 12.786937 18 12.5 18 L 11.5 18 C 11.213063 18 11 17.786937 11 17.5 C 11 17.213063 11.213063 17 11.5 17 z M 11.5 20 L 12.5 20 C 12.786937 20 13 20.213063 13 20.5 C 13 20.786937 12.786937 21 12.5 21 L 11.5 21 C 11.213063 21 11 20.786937 11 20.5 C 11 20.213063 11.213063 20 11.5 20 z M 19.0625 20 L 20.5 20 C 20.786937 20 21 20.213063 21 20.5 C 21 20.786937 20.786937 21 20.5 21 L 19.5 21 C 19.213063 21 19 20.786937 19 20.5 L 19 20.1875 C 19 20.11952 19.0561 20.067205 19.0625 20 z" overflow="visible" font-family="Bitstream Vera Sans" fill="#000000"/></svg>
