<?xml version="1.0" encoding="utf-8"?>
<svg xmlns="http://www.w3.org/2000/svg" viewBox="0 0 32 32" fill="#000000"><path style="text-indent:0;text-align:start;line-height:normal;text-transform:none;block-progression:tb;-inkscape-font-specification:Sans" d="M 8 3 C 6.3550302 3 5 4.3550302 5 6 L 7 6 C 7 5.4349698 7.4349698 5 8 5 C 8.5650302 5 9 5.4349698 9 6 C 9 6.5650302 8.5650302 7 8 7 L 7 7 L 7 8 L 7 10 L 9 10 L 9 8.59375 C 10.109528 8.151727 11 7.2586696 11 6 C 11 4.3550302 9.6449698 3 8 3 z M 27.53125 5.03125 L 25.625 6.9375 L 5.5625 17.0625 L 5 17.34375 L 5 17.9375 L 5 18 L 5 18.9375 L 5.9375 19 C 5.9375 19 7.6978382 19.165778 8.6875 20.125 C 9.3429862 20.759833 9.70478 21.886261 9.875 22.5625 L 6.71875 25.71875 C 6.3198231 26.117677 5.6801769 26.117677 5.28125 25.71875 C 4.8823231 25.319823 4.8823231 24.680177 5.28125 24.28125 L 5.3125 24.28125 L 5.34375 24.25 L 6 23.5 L 4.5 22.1875 L 3.875 22.875 C 3.857365 22.89263 3.860851 22.91952 3.84375 22.9375 C 2.7330482 24.105085 2.7295623 25.979562 3.875 27.125 C 5.0380731 28.288073 6.9619269 28.288073 8.125 27.125 L 11.25 24 L 11.28125 24 C 11.738852 24.044515 12.751826 24.251822 13.59375 25.09375 C 14.716316 26.216316 15 28.125 15 28.125 L 15.125 29 L 16 29 L 16.09375 29 L 16.71875 29 L 17 28.4375 L 27.09375 8.3125 L 28.96875 6.46875 L 27.53125 5.03125 z M 24 10 L 16.15625 25.625 C 15.858474 24.970433 15.617654 24.273904 15 23.65625 C 13.799083 22.455333 12.605345 22.218794 11.8125 22.125 C 11.668041 21.329044 11.330981 19.916014 10.0625 18.6875 C 9.5533114 18.193973 9.0153946 18.061032 8.46875 17.8125 L 24 10 z M 7 11 L 7 13 L 9 13 L 9 11 L 7 11 z" overflow="visible" font-family="Sans" fill="#000000"/></svg>
