<?xml version="1.0" encoding="utf-8"?>
<svg xmlns="http://www.w3.org/2000/svg" viewBox="0 0 32 32" fill="#000000"><path style="text-indent:0;text-align:start;line-height:normal;text-transform:none;block-progression:tb;-inkscape-font-specification:Bitstream Vera Sans" d="M 4 4 L 4 5 L 4 8.5 L 4 8.875 L 4.25 9.15625 L 8 13.375 L 8 27 L 8 28 L 9 28 L 23 28 L 24 28 L 24 27 L 24 13.375 L 27.75 9.15625 L 28 8.875 L 28 8.5 L 28 5 L 28 4 L 27 4 L 5 4 L 4 4 z M 6 6 L 26 6 L 26 8 L 6 8 L 6 6 z M 6.78125 9 L 25.21875 9 L 22.5625 12 L 9.4375 12 L 6.78125 9 z M 10 14 L 22 14 L 22 26 L 10 26 L 10 14 z" overflow="visible" font-family="Bitstream Vera Sans" fill="#000000"/></svg>
