<?xml version="1.0" encoding="utf-8"?>
<svg xmlns="http://www.w3.org/2000/svg" viewBox="0 0 32 32" fill="#000000"><path style="text-indent:0;text-align:start;line-height:normal;text-transform:none;block-progression:tb;-inkscape-font-specification:Sans" d="M 20 4.03125 L 6.5625 17.46875 L 6.34375 17.6875 L 6.28125 17.96875 L 4.25 26.5625 L 3.875 28.125 L 5.4375 27.75 L 14.03125 25.71875 L 14.3125 25.65625 L 14.53125 25.4375 L 27.96875 12 L 26.5625 10.59375 L 14.5625 22.5625 C 14.134201 21.716028 13.291087 20.787279 11.90625 20.09375 C 11.287449 18.721399 10.351292 17.814689 9.46875 17.40625 L 21.40625 5.4375 L 20 4.03125 z M 8.09375 19.0625 C 8.2311442 19.099006 8.3956678 19.147144 8.5625 19.21875 C 9.1712911 19.480051 9.8665046 19.959916 10.28125 21.15625 L 10.40625 21.5625 L 10.8125 21.75 C 12.126854 22.327486 12.612314 23.017506 12.84375 23.5625 C 12.89727 23.68853 12.940734 23.807206 12.96875 23.90625 L 9 24.84375 L 7.15625 23 L 8.09375 19.0625 z" overflow="visible" font-family="Sans" fill="#000000"/></svg>
