<?xml version="1.0" encoding="utf-8"?>
<svg xmlns="http://www.w3.org/2000/svg" viewBox="0 0 32 32" fill="#000000"><path style="line-height:normal;text-indent:0;text-align:start;text-decoration-line:none;text-decoration-style:solid;text-decoration-color:#000;text-transform:none;block-progression:tb;isolation:auto;mix-blend-mode:normal" d="M 13 4 L 13 5 L 13 7 L 5 7 L 5 9 L 13 9 L 13 17 L 5 17 L 5 19 L 13 19 L 13 22 L 19 22 L 19 19 L 27 19 L 27 17 L 19 17 L 19 9 L 27 9 L 27 7 L 19 7 L 19 4 L 13 4 z M 15 6 L 17 6 L 17 20 L 15 20 L 15 6 z M 13 24 L 13 25 L 12 25 L 12 27 L 13 27 L 13 28 L 19 28 L 19 27 L 20 27 L 20 25 L 19 25 L 19 24 L 13 24 z" fill="#000000"/></svg>
