<?xml version="1.0" encoding="utf-8"?>
<svg xmlns="http://www.w3.org/2000/svg" viewBox="0 0 32 32" fill="#000000"><path style="text-indent:0;text-align:start;line-height:normal;text-transform:none;block-progression:tb;-inkscape-font-specification:Bitstream Vera Sans" d="M 16 7 C 12.839607 7 9.9775479 7.5783873 7.8125 8.5625 C 6.729976 9.0545563 5.8053965 9.6438009 5.125 10.375 C 4.6845933 10.84829 4.3736984 11.405453 4.1875 12 L 3 12 L 3 15 L 4.34375 15 C 4.7891943 16.47641 5.6699106 18.126402 7 19.6875 C 7.5171569 20.294476 8.1208094 20.873883 8.78125 21.40625 L 7 25 L 9 25 L 10.28125 22.4375 C 11.635136 23.228818 13.217363 23.781683 15 23.9375 L 15 27 L 17 27 L 17 23.9375 C 18.782637 23.781683 20.364864 23.228818 21.71875 22.4375 L 23 25 L 25 25 L 23.21875 21.40625 C 23.879191 20.873883 24.482843 20.294476 25 19.6875 C 26.330089 18.126402 27.210806 16.47641 27.65625 15 L 29 15 L 29 12 L 27.8125 12 C 27.626302 11.405453 27.315407 10.84829 26.875 10.375 C 26.194603 9.6438009 25.270024 9.0545563 24.1875 8.5625 C 22.022452 7.5783873 19.160393 7 16 7 z M 16 9 C 18.914739 9 21.558831 9.5494687 23.375 10.375 C 24.283085 10.787766 24.973386 11.284816 25.40625 11.75 C 25.839114 12.215184 26 12.606886 26 13 C 26 13.098278 25.990597 13.181978 25.96875 13.28125 C 25.90321 13.579067 25.730898 13.901112 25.40625 14.25 C 24.973386 14.715184 24.283085 15.212234 23.375 15.625 C 21.558831 16.450531 18.914739 17 16 17 C 13.085261 17 10.441169 16.450531 8.625 15.625 C 7.7169155 15.212234 7.0266141 14.715184 6.59375 14.25 C 6.2691019 13.901112 6.0967897 13.579067 6.03125 13.28125 C 6.0094034 13.181978 6 13.098278 6 13 C 6 12.606886 6.1608859 12.215184 6.59375 11.75 C 7.0266141 11.284816 7.7169155 10.787766 8.625 10.375 C 10.441169 9.5494687 13.085261 9 16 9 z M 7.8125 17.4375 C 9.743462 18.31521 12.243004 18.859002 15 18.96875 L 15 20 L 17 20 L 17 18.96875 C 19.756996 18.859002 22.256538 18.31521 24.1875 17.4375 C 23.967063 17.758593 23.729893 18.068502 23.46875 18.375 C 21.773188 20.365046 19.325995 22 16 22 C 12.674005 22 10.226812 20.365046 8.53125 18.375 C 8.2701071 18.068502 8.0329375 17.758593 7.8125 17.4375 z" fill="#000000"/></svg>
