<?xml version="1.0" encoding="utf-8"?>
<svg xmlns="http://www.w3.org/2000/svg" viewBox="0 0 32 32" fill="#000000"><path style="text-indent:0;text-align:start;line-height:normal;text-transform:none;block-progression:tb;-inkscape-font-specification:Bitstream Vera Sans" d="M 5.03125 9 C 3.1780333 9 1.7600323 10.70841 2.09375 12.53125 L 3.90625 22.53125 C 4.1661091 23.948528 5.4328095 25 6.875 25 L 25.15625 25 C 26.59844 25 27.835436 23.951229 28.09375 22.53125 L 29.90625 12.53125 C 30.24023 10.708464 28.820917 9 26.96875 9 L 5.03125 9 z M 5.03125 11 L 26.96875 11 C 27.612583 11 28.05352 11.554286 27.9375 12.1875 L 26.125 22.1875 C 26.037314 22.669521 25.64606 23 25.15625 23 L 6.875 23 C 6.3851905 23 5.9631409 22.668222 5.875 22.1875 L 4.03125 12.1875 C 3.9149677 11.55234 4.3864667 11 5.03125 11 z M 9 13 C 8.4477153 13 8 13.447715 8 14 C 8 14.552285 8.4477153 15 9 15 C 9.5522847 15 10 14.552285 10 14 C 10 13.447715 9.5522847 13 9 13 z M 13 13 C 12.447715 13 12 13.447715 12 14 C 12 14.552285 12.447715 15 13 15 C 13.552285 15 14 14.552285 14 14 C 14 13.447715 13.552285 13 13 13 z M 17 13 C 16.447715 13 16 13.447715 16 14 C 16 14.552285 16.447715 15 17 15 C 17.552285 15 18 14.552285 18 14 C 18 13.447715 17.552285 13 17 13 z M 21 13 C 20.447715 13 20 13.447715 20 14 C 20 14.552285 20.447715 15 21 15 C 21.552285 15 22 14.552285 22 14 C 22 13.447715 21.552285 13 21 13 z M 11 16 C 10.447715 16 10 16.447715 10 17 C 10 17.552285 10.447715 18 11 18 C 11.552285 18 12 17.552285 12 17 C 12 16.447715 11.552285 16 11 16 z M 15 16 C 14.447715 16 14 16.447715 14 17 C 14 17.552285 14.447715 18 15 18 C 15.552285 18 16 17.552285 16 17 C 16 16.447715 15.552285 16 15 16 z M 19 16 C 18.447715 16 18 16.447715 18 17 C 18 17.552285 18.447715 18 19 18 C 19.552285 18 20 17.552285 20 17 C 20 16.447715 19.552285 16 19 16 z M 23 16 C 22.447715 16 22 16.447715 22 17 C 22 17.552285 22.447715 18 23 18 C 23.552285 18 24 17.552285 24 17 C 24 16.447715 23.552285 16 23 16 z M 9 19 C 8.4477153 19 8 19.447715 8 20 C 8 20.552285 8.4477153 21 9 21 C 9.5522847 21 10 20.552285 10 20 C 10 19.447715 9.5522847 19 9 19 z M 13 19 C 12.447715 19 12 19.447715 12 20 C 12 20.552285 12.447715 21 13 21 C 13.552285 21 14 20.552285 14 20 C 14 19.447715 13.552285 19 13 19 z M 17 19 C 16.447715 19 16 19.447715 16 20 C 16 20.552285 16.447715 21 17 21 C 17.552285 21 18 20.552285 18 20 C 18 19.447715 17.552285 19 17 19 z M 21 19 C 20.447715 19 20 19.447715 20 20 C 20 20.552285 20.447715 21 21 21 C 21.552285 21 22 20.552285 22 20 C 22 19.447715 21.552285 19 21 19 z" fill="#000000"/></svg>
