<?xml version="1.0" encoding="utf-8"?>
<svg xmlns="http://www.w3.org/2000/svg" viewBox="0 0 32 32" fill="#000000"><path style="text-indent:0;text-align:start;line-height:normal;text-transform:none;block-progression:tb;-inkscape-font-specification:Sans" d="M 9 5 L 9 6 L 9 12 L 7 12 C 5.3550302 12 4 13.35503 4 15 L 4 18 L 3.4375 18 L 2.0625 18 L 2.5 19.3125 L 4.75 26.3125 L 5 27 L 5.71875 27 L 26.25 27 L 26.96875 27 L 27.1875 26.3125 L 29.46875 19.3125 L 29.90625 18 L 28.53125 18 L 28 18 L 28 15 C 28 13.35503 26.64497 12 25 12 L 23 12 L 23 6 L 23 5 L 22 5 L 10 5 L 9 5 z M 11 7 L 21 7 L 21 13 L 11 13 L 11 7 z M 7 14 L 9 14 L 9 15 L 10 15 L 22 15 L 23 15 L 23 14 L 25 14 C 25.56503 14 26 14.43497 26 15 L 26 18 L 6 18 L 6 15 C 6 14.43497 6.4349698 14 7 14 z M 4.8125 20 L 27.125 20 L 25.5 25 L 6.4375 25 L 4.8125 20 z" overflow="visible" font-family="Sans" fill="#000000"/></svg>
