<?xml version="1.0" encoding="utf-8"?>
<svg xmlns="http://www.w3.org/2000/svg" viewBox="0 0 32 32" fill="#000000"><path d="M 28 4 L 26.125 4.4375 L 22.75 7.84375 C 21.69187 6.8836726 20.334497 6.2673801 18.96875 6.0625 C 17.321471 5.8153864 15.579094 6.126597 14.40625 7.34375 C 12.362766 9.4652393 12.576407 13.106983 14.6875 15.65625 C 14.724529 15.700965 14.77447 15.737639 14.8125 15.78125 L 13.5625 17.03125 L 9.40625 12.625 L 8.5625 11.75 L 7.84375 12.71875 L 5.3125 16.21875 L 4.90625 16.78125 L 5.28125 17.375 L 8.4375 22.15625 L 4.4375 26.125 L 4 28 L 5.875 27.5625 L 9.5625 23.84375 L 12.09375 27.625 L 12.78125 28.6875 L 13.65625 27.78125 L 14.78125 26.5625 L 15.09375 26.21875 L 15.03125 25.71875 C 15.01225 25.59375 15 25.532564 15 25.5 C 15 24.660097 15.65828 24 16.5 24 C 16.42141 24 16.46649 24.01887 16.625 24.03125 L 17.09375 24.0625 L 17.4375 23.6875 L 17.96875 23.09375 L 18.625 22.40625 L 17.96875 21.71875 L 14.9375 18.46875 L 16.3125 17.09375 C 18.461576 18.448705 21.247991 18.543288 23.1875 16.9375 C 25.379649 15.120514 25.489532 11.894948 24.03125 9.40625 L 27.5625 5.875 L 28 4 z M 17.8125 8 C 18.090143 7.9904827 18.389382 8.0177784 18.6875 8.0625 C 19.879971 8.2413864 21.091091 8.8788567 21.8125 9.75 C 23.344951 11.600522 23.371873 14.191453 21.90625 15.40625 C 20.439722 16.62044 17.720494 16.188443 16.21875 14.375 C 14.677843 12.514267 14.691234 9.9465107 15.84375 8.75 C 16.274367 8.3031148 16.979572 8.0285518 17.8125 8 z M 17.625 9 C 17.242625 9.0485 16.84825 9.26625 16.53125 9.59375 C 15.89625 10.24875 15.81075 11.1805 16.34375 11.6875 C 16.87675 12.1945 17.83475 12.06125 18.46875 11.40625 C 19.10275 10.75125 19.18825 9.8195 18.65625 9.3125 C 18.38975 9.059 18.007375 8.9515 17.625 9 z M 8.78125 14.875 L 9.375 15.5 C 9.1393601 15.765009 9 16.117659 9 16.5 C 9 17.328 9.672 18 10.5 18 C 10.842159 18 11.153781 17.880594 11.40625 17.6875 L 15.65625 22.1875 C 14.185507 22.572319 13.077445 23.833025 13.03125 25.40625 L 7.34375 16.84375 L 8.78125 14.875 z M 12 20 C 11.447 20 11 20.448 11 21 C 11 21.552 11.448 22 12 22 C 12.552 22 13 21.552 13 21 C 13 20.448 12.552 20 12 20 z" fill="#000000"/></svg>
