<?xml version="1.0" encoding="utf-8"?>
<svg xmlns="http://www.w3.org/2000/svg" viewBox="0 0 32 32" fill="#000000"><path style="text-indent:0;text-align:start;line-height:normal;text-transform:none;block-progression:tb;-inkscape-font-specification:Sans" d="M 16 13 C 14.707982 13 13.605718 13.844255 13.1875 15 L 3 15 L 3 17 L 13.1875 17 C 13.605718 18.155745 14.707982 19 16 19 C 17.292018 19 18.394282 18.155745 18.8125 17 L 29 17 L 29 15 L 18.8125 15 C 18.394282 13.844255 17.292018 13 16 13 z M 16 15 C 16.564128 15 17 15.435872 17 16 C 17 16.564128 16.564128 17 16 17 C 15.435872 17 15 16.564128 15 16 C 15 15.435872 15.435872 15 16 15 z" overflow="visible" font-family="Sans" fill="#000000"/></svg>
