<?xml version="1.0" encoding="utf-8"?>
<svg xmlns="http://www.w3.org/2000/svg" viewBox="-7 9 32 32" fill="#000000"><path d="M 16 3 C 10.712 3 6.37925 7.1115 6.03125 12.3125 C 4.82325 12.8775 4 14.121 4 15.5 C 4 16.928 4.853 18.18175 6.125 18.71875 C 6.899 23.80375 10.903 29 16 29 C 21.098 29 25.101 23.80375 25.875 18.71875 C 27.147 18.18175 28 16.928 28 15.5 C 28 14.121 27.17675 12.8765 25.96875 12.3125 C 25.62075 7.1105 21.288 3 16 3 z M 16 5 C 16.692 5 17.359 5.084 18 5.25 L 18 6.65625 C 17.856 6.74225 17.74225 6.856 17.65625 7 L 14.34375 7 C 14.25775 6.856 14.144 6.74225 14 6.65625 L 14 5.25 C 14.641 5.084 15.308 5 16 5 z M 13 5.59375 L 13 6.65625 C 12.856 6.74225 12.74225 6.856 12.65625 7 L 10.71875 7 C 11.38875 6.411 12.161 5.93475 13 5.59375 z M 19 5.59375 C 19.839 5.93475 20.61125 6.411 21.28125 7 L 19.34375 7 C 19.25775 6.856 19.144 6.74225 19 6.65625 L 19 5.59375 z M 10 8 L 12.65625 8 C 12.74225 8.144 12.856 8.25775 13 8.34375 L 13 10.65625 C 12.856 10.74125 12.74225 10.856 12.65625 11 L 10.34375 11 C 10.25775 10.856 10.144 10.74225 10 10.65625 L 10 8 z M 14.34375 8 L 17.65625 8 C 17.74225 8.144 17.856 8.25775 18 8.34375 L 18 10.65625 C 17.856 10.74225 17.74225 10.856 17.65625 11 L 14.34375 11 C 14.25775 10.855 14.144 10.74225 14 10.65625 L 14 8.34375 C 14.144 8.25875 14.25775 8.144 14.34375 8 z M 19.34375 8 L 22 8 L 22 10.65625 C 21.856 10.74225 21.74225 10.856 21.65625 11 L 19.34375 11 C 19.25775 10.856 19.144 10.74225 19 10.65625 L 19 8.34375 C 19.144 8.25775 19.25775 8.144 19.34375 8 z M 9 9.125 L 9 10.65625 C 8.856 10.74125 8.74225 10.856 8.65625 11 L 8.25 11 C 8.42 10.343 8.678 9.705 9 9.125 z M 23 9.125 C 23.322 9.706 23.581 10.342 23.75 11 L 23.34375 11 C 23.25775 10.856 23.144 10.74225 23 10.65625 L 23 9.125 z M 8.0625 12 L 8.65625 12 C 8.74225 12.144 8.856 12.25775 9 12.34375 L 9 14.65625 C 8.856 14.74125 8.74225 14.856 8.65625 15 L 6.09375 15 C 6.26675 14.515 6.6625 14.13725 7.1875 14.03125 L 8 13.8125 L 8 13 C 8 12.661 8.0215 12.328 8.0625 12 z M 10.34375 12 L 12.65625 12 C 12.74125 12.144 12.856 12.25775 13 12.34375 L 13 13.0625 C 13.372 13.1375 13.708 13.279 14 13.5 L 14 12.34375 C 14.144 12.25775 14.25775 12.144 14.34375 12 L 17.65625 12 C 17.74225 12.144 17.856 12.25775 18 12.34375 L 18 13.5 C 18.292 13.279 18.628 13.1375 19 13.0625 L 19 12.34375 C 19.144 12.25775 19.25775 12.144 19.34375 12 L 21.65625 12 C 21.74225 12.144 21.856 12.25775 22 12.34375 L 22 18.65625 C 21.856 18.74225 21.74225 18.856 21.65625 19 L 19.34375 19 C 19.25775 18.856 19.144 18.74225 19 18.65625 L 19 17.9375 C 18.628 17.8625 18.292 17.721 18 17.5 L 18 18.65625 C 17.856 18.74225 17.74225 18.856 17.65625 19 L 14.34375 19 C 14.25775 18.856 14.144 18.74225 14 18.65625 L 14 17.5 C 13.708 17.721 13.372 17.8625 13 17.9375 L 13 18.65625 C 12.856 18.74225 12.74225 18.856 12.65625 19 L 10.34375 19 C 10.25775 18.856 10.144 18.74225 10 18.65625 L 10 12.34375 C 10.144 12.25875 10.25775 12.144 10.34375 12 z M 23.34375 12 L 23.9375 12 C 23.9785 12.326 24 12.664 24 13 L 23.9375 13.84375 L 24.8125 14.03125 C 25.3375 14.13825 25.73325 14.515 25.90625 15 L 23.34375 15 C 23.25775 14.856 23.145 14.74225 23 14.65625 L 23 12.34375 C 23.144 12.25775 23.25775 12.144 23.34375 12 z M 12.5 14 C 11.671573 14 11 14.671573 11 15.5 C 11 16.328427 11.671573 17 12.5 17 C 13.328427 17 14 16.328427 14 15.5 C 14 14.671573 13.328427 14 12.5 14 z M 19.5 14 C 18.671573 14 18 14.671573 18 15.5 C 18 16.328427 18.671573 17 19.5 17 C 20.328427 17 21 16.328427 21 15.5 C 21 14.671573 20.328427 14 19.5 14 z M 6.09375 16 L 8.65625 16 C 8.74125 16.144 8.856 16.25775 9 16.34375 L 9 18.65625 C 8.856 18.74125 8.74225 18.856 8.65625 19 L 8.21875 19 C 8.13875 18.618 8.06725 18.22175 8.03125 17.84375 L 7.96875 17.09375 L 7.21875 16.96875 C 6.68075 16.87075 6.26875 16.492 6.09375 16 z M 23.34375 16 L 25.90625 16 C 25.73025 16.493 25.32025 16.87075 24.78125 16.96875 L 24.03125 17.09375 L 23.96875 17.84375 C 23.93275 18.22175 23.86125 18.618 23.78125 19 L 23.34375 19 C 23.25775 18.856 23.144 18.74225 23 18.65625 L 23 16.34375 C 23.144 16.25775 23.25775 16.145 23.34375 16 z M 8.46875 20 L 8.65625 20 C 8.74225 20.144 8.856 20.25775 9 20.34375 L 9 21.375 C 8.799 20.92 8.61175 20.469 8.46875 20 z M 10.34375 20 L 12.65625 20 C 12.74125 20.144 12.856 20.25775 13 20.34375 L 13 22.65625 C 12.856 22.74125 12.74225 22.856 12.65625 23 L 10 23 L 10 20.34375 C 10.144 20.25775 10.25775 20.144 10.34375 20 z M 14.34375 20 L 17.65625 20 C 17.74225 20.144 17.856 20.25775 18 20.34375 L 18 22.65625 C 17.856 22.74225 17.74225 22.856 17.65625 23 L 14.34375 23 C 14.25775 22.856 14.144 22.74225 14 22.65625 L 14 20.34375 C 14.144 20.25875 14.25775 20.144 14.34375 20 z M 19.34375 20 L 21.65625 20 C 21.74225 20.144 21.856 20.25775 22 20.34375 L 22 23 L 19.34375 23 C 19.25775 22.856 19.144 22.74225 19 22.65625 L 19 20.34375 C 19.144 20.25775 19.25775 20.144 19.34375 20 z M 23.34375 20 L 23.53125 20 C 23.38825 20.469 23.202 20.921 23 21.375 L 23 20.34375 C 23.144 20.25775 23.25775 20.144 23.34375 20 z M 10.5625 24 L 12.65625 24 C 12.74125 24.144 12.856 24.25775 13 24.34375 L 13 26.15625 C 12.096 25.62925 11.2645 24.876 10.5625 24 z M 14.34375 24 L 17.65625 24 C 17.74225 24.144 17.856 24.25775 18 24.34375 L 18 26.625 C 17.36 26.867 16.693 27 16 27 C 15.307 27 14.639 26.867 14 26.625 L 14 24.34375 C 14.144 24.25775 14.25775 24.144 14.34375 24 z M 19.34375 24 L 21.4375 24 C 20.7345 24.876 19.904 25.62925 19 26.15625 L 19 24.34375 C 19.144 24.25775 19.25775 24.144 19.34375 24 z" transform="translate(-7 9)" fill="#000000"/></svg>
