<?xml version="1.0" encoding="utf-8"?>
<svg xmlns="http://www.w3.org/2000/svg" viewBox="0 0 32 32" fill="#000000"><path style="line-height:normal;text-indent:0;text-align:start;text-decoration-line:none;text-decoration-style:solid;text-decoration-color:#000;text-transform:none;block-progression:tb;isolation:auto;mix-blend-mode:normal" d="M 4 4 L 4 5 L 4 28 L 28 28 L 28 4 L 4 4 z M 6 6 L 26 6 L 26 10 L 6 10 L 6 6 z M 7 7 L 7 9 L 9 9 L 9 7 L 7 7 z M 10 7 L 10 9 L 12 9 L 12 7 L 10 7 z M 13 7 L 13 9 L 15 9 L 15 7 L 13 7 z M 6 12 L 26 12 L 26 26 L 6 26 L 6 12 z M 15 15 L 15 18 L 12 18 L 12 20 L 15 20 L 15 23 L 17 23 L 17 20 L 20 20 L 20 18 L 17 18 L 17 15 L 15 15 z" fill="#000000"/></svg>
