<?xml version="1.0" encoding="utf-8"?>
<svg xmlns="http://www.w3.org/2000/svg" viewBox="0 0 32 32" fill="#000000"><path d="M 11.09375 3 C 11.09375 3 14.463 3.78075 14.25 4.84375 C 14.083 5.67875 12 6 12 6 C 12 6 14.214 7 16 7 C 17.219 7 18 6.418 18 5.625 C 18 3.013 13.62275 3 11.09375 3 z M 15 8.1875 L 15 10 L 11.03125 10 L 8.21875 29 L 10.25 29 L 12.78125 12 L 15 12 L 15 17.59375 L 13.21875 15.8125 L 12.875 18.28125 L 14.59375 20 L 12.28125 22.3125 L 11.78125 25.625 L 15 22.40625 L 15 29 L 17 29 L 17 12 L 19.21875 12 L 19.65625 14.90625 L 18 16.59375 L 18 19.40625 L 20.03125 17.40625 L 20.9375 23.5 L 18 20.59375 L 18 23.40625 L 21.4375 26.875 L 21.75 29 L 23.78125 29 L 20.96875 10 L 17 10 L 17 8.1875 L 15 8.1875 z" fill="#000000"/></svg>
