<?xml version="1.0" encoding="utf-8"?>
<svg xmlns="http://www.w3.org/2000/svg" viewBox="0 0 32 32" fill="#000000"><path style="text-indent:0;text-align:start;line-height:normal;text-transform:none;block-progression:tb;-inkscape-font-specification:Bitstream Vera Sans" d="M 6 3 L 6 4 L 6 10 L 8 10 L 8 5 L 24 5 L 24 10 L 26 10 L 26 4 L 26 3 L 25 3 L 7 3 L 6 3 z M 7 12 L 7 13 L 7 19 L 7 20 L 8 20 L 12 20 L 12 18 L 9 18 L 9 17 L 11 17 L 11 15 L 9 15 L 9 14 L 12 14 L 12 12 L 8 12 L 7 12 z M 13 12 L 15 16 L 13 20 L 15 20 L 16 18 L 17 20 L 19 20 L 17 16 L 19 12 L 17 12 L 16 14 L 15 12 L 13 12 z M 20 12 L 20 13 L 20 19 L 20 20 L 21 20 L 25 20 L 25 18 L 22 18 L 22 17 L 24 17 L 24 15 L 22 15 L 22 14 L 25 14 L 25 12 L 21 12 L 20 12 z M 6 22 L 6 28 L 6 29 L 7 29 L 25 29 L 26 29 L 26 28 L 26 22 L 24 22 L 24 27 L 8 27 L 8 22 L 6 22 z" fill="#000000"/></svg>
