<?xml version="1.0" encoding="utf-8"?>
<svg xmlns="http://www.w3.org/2000/svg" viewBox="0 0 32 32" fill="#000000"><path d="M 6 2 L 5.40625 2.875 C 5.40625 2.875 4 5.0028648 4 8 C 4 11.161076 6.1021622 12.941102 7.0625 13.59375 C 4.2223779 16.702597 4 19.378622 4 22 C 4 23.847408 5.2510463 25.764151 7.3125 27.3125 C 9.3739537 28.860849 12.323784 30 16 30 C 19.617049 30 22.582036 28.857508 24.65625 27.3125 C 26.730464 25.767492 28 23.863039 28 22 C 28 19.378622 27.777478 16.70335 24.9375 13.59375 C 25.897838 12.941102 28 11.161076 28 8 C 28 5.0019802 26.59375 2.875 26.59375 2.875 L 26 2 L 25.15625 2.625 L 20.4375 6.15625 C 18.204914 5.0225148 16 5 16 5 C 16 5 13.795086 5.022515 11.5625 6.15625 L 6.84375 2.625 L 6 2 z M 6.59375 4.96875 L 9.8125 7.375 C 8.7692586 8.3150227 7.87495 9.6176717 7.40625 11.34375 C 6.7375944 10.702672 6 9.626761 6 8 C 6 6.6765359 6.2963904 5.6767622 6.59375 4.96875 z M 25.40625 4.96875 C 25.70361 5.6768525 26 6.6759149 26 8 C 26 9.626761 25.262406 10.702672 24.59375 11.34375 C 24.12505 9.6176717 23.230741 8.3150227 22.1875 7.375 L 25.40625 4.96875 z M 16 7 C 16 7 17.795086 7.039985 19.5625 7.9375 C 21.329914 8.8350148 23 10.401124 23 14 L 23 14.40625 L 23.28125 14.6875 C 26.053876 17.579074 26 19.328631 26 22 C 26 22.823961 25.191536 24.435508 23.46875 25.71875 C 21.745964 27.001992 19.194951 28 16 28 C 12.738216 28 10.204046 26.998651 8.5 25.71875 C 6.7959537 24.438849 6 22.839592 6 22 C 6 19.328631 5.9462845 17.577963 8.71875 14.6875 L 9 14.40625 L 9 14 C 9 10.401124 10.670086 8.8350148 12.4375 7.9375 C 14.204914 7.0399852 16 7 16 7 z M 13 14 C 12.447715 14 12 14.447715 12 15 C 12 15.552285 12.447715 16 13 16 C 13.552285 16 14 15.552285 14 15 C 14 14.447715 13.552285 14 13 14 z M 19 14 C 18.447715 14 18 14.447715 18 15 C 18 15.552285 18.447715 16 19 16 C 19.552285 16 20 15.552285 20 15 C 20 14.447715 19.552285 14 19 14 z M 16 17 C 12.806224 17 10 19.115311 10 22 C 10 24.884689 12.806224 27 16 27 C 19.193776 27 22 24.884689 22 22 C 22 19.115311 19.193776 17 16 17 z M 16 19 C 18.329072 19 20 20.466411 20 22 C 20 23.533589 18.329072 25 16 25 C 13.670928 25 12 23.533589 12 22 C 12 20.466411 13.670928 19 16 19 z M 14 21 C 13.447715 21 13 21.447715 13 22 C 13 22.552285 13.447715 23 14 23 C 14.552285 23 15 22.552285 15 22 C 15 21.447715 14.552285 21 14 21 z M 18 21 C 17.447715 21 17 21.447715 17 22 C 17 22.552285 17.447715 23 18 23 C 18.552285 23 19 22.552285 19 22 C 19 21.447715 18.552285 21 18 21 z" fill="#000000"/></svg>
