<?xml version="1.0" encoding="utf-8"?>
<svg xmlns="http://www.w3.org/2000/svg" viewBox="0 0 32 32" fill="#000000"><path style="text-indent:0;text-align:start;line-height:normal;text-transform:none;block-progression:tb;-inkscape-font-specification:Bitstream Vera Sans" d="M 5 5 L 5 6 L 5 26 L 5 27 L 6 27 L 26 27 L 27 27 L 27 26 L 27 6 L 27 5 L 26 5 L 6 5 L 5 5 z M 7 7 L 15.5625 7 L 13.25 9.3125 C 12.865021 9.1312949 12.450281 9 12 9 C 10.35499 9 9 10.35499 9 12 C 9 13.64501 10.35499 15 12 15 C 13.64501 15 15 13.64501 15 12 C 15 11.549719 14.868705 11.134979 14.6875 10.75 L 18.4375 7 L 25 7 L 25 23.5625 L 22.6875 21.25 C 22.868705 20.865021 23 20.450281 23 20 C 23 18.35499 21.64501 17 20 17 C 18.35499 17 17 18.35499 17 20 C 17 21.64501 18.35499 23 20 23 C 20.450281 23 20.865021 22.868705 21.25 22.6875 L 23.5625 25 L 7 25 L 7 7 z M 20 9 C 18.35499 9 17 10.35499 17 12 C 17 12.450281 17.131295 12.865021 17.3125 13.25 L 13.25 17.3125 C 12.865021 17.131295 12.450281 17 12 17 C 10.35499 17 9 18.35499 9 20 C 9 21.64501 10.35499 23 12 23 C 13.64501 23 15 21.64501 15 20 C 15 19.549719 14.868705 19.134979 14.6875 18.75 L 18.75 14.6875 C 19.134979 14.868705 19.549719 15 20 15 C 21.64501 15 23 13.64501 23 12 C 23 10.35499 21.64501 9 20 9 z M 12 11 C 12.564128 11 13 11.435872 13 12 C 13 12.564128 12.564128 13 12 13 C 11.435872 13 11 12.564128 11 12 C 11 11.435872 11.435872 11 12 11 z M 20 11 C 20.564128 11 21 11.435872 21 12 C 21 12.564128 20.564128 13 20 13 C 19.435872 13 19 12.564128 19 12 C 19 11.435872 19.435872 11 20 11 z M 12 19 C 12.564128 19 13 19.435872 13 20 C 13 20.564128 12.564128 21 12 21 C 11.435872 21 11 20.564128 11 20 C 11 19.435872 11.435872 19 12 19 z M 20 19 C 20.564128 19 21 19.435872 21 20 C 21 20.564128 20.564128 21 20 21 C 19.435872 21 19 20.564128 19 20 C 19 19.435872 19.435872 19 20 19 z" fill="#000000"/></svg>
