<?xml version="1.0" encoding="utf-8"?>
<svg xmlns="http://www.w3.org/2000/svg" viewBox="0 0 32 32" fill="#000000"><path style="line-height:normal;text-indent:0;text-align:start;text-decoration-line:none;text-decoration-style:solid;text-decoration-color:#000;text-transform:none;block-progression:tb;isolation:auto;mix-blend-mode:normal" d="M 5 5 L 5 6 L 5 27 L 27 27 L 27 5 L 5 5 z M 7 7 L 9 7 L 9 9 L 7 9 L 7 7 z M 11 7 L 25 7 L 25 9 L 11 9 L 11 7 z M 7 11 L 9 11 L 9 13 L 7 13 L 7 11 z M 11 11 L 25 11 L 25 13 L 11 13 L 11 11 z M 7 15 L 9 15 L 9 17 L 7 17 L 7 15 z M 11 15 L 25 15 L 25 17 L 11 17 L 11 15 z M 7 19 L 9 19 L 9 21 L 7 21 L 7 19 z M 11 19 L 25 19 L 25 21 L 11 21 L 11 19 z M 7 23 L 9 23 L 9 25 L 7 25 L 7 23 z M 11 23 L 25 23 L 25 25 L 11 25 L 11 23 z" fill="#000000"/></svg>
