<?xml version="1.0" encoding="utf-8"?>
<svg xmlns="http://www.w3.org/2000/svg" viewBox="0 0 32 32" fill="#000000"><path style="text-indent:0;text-align:start;line-height:normal;text-transform:none;block-progression:tb;-inkscape-font-specification:Bitstream Vera Sans" d="M 6.90625 4 C 5.8955964 4 5.0172581 4.7762301 4.90625 5.78125 L 4.09375 13.125 C 3.990908 14.052556 4.5592127 14.960969 5.46875 15.25 C 6.4878274 15.574003 8.3516769 16 11 16 C 13.648323 16 15.512173 15.574003 16.53125 15.25 C 17.440787 14.960969 18.009092 14.052556 17.90625 13.125 L 17.34375 8 C 22.167545 8.1781537 26 12.131465 26 17 C 26 19.773666 23.773666 22 21 22 L 11 22 L 11 24 L 21 24 C 21.698391 24 22.362641 23.91081 23 23.71875 C 21.409523 25.139512 19.308113 26 17 26 L 11 26 L 11 28 L 17 28 C 22.821454 28 27.596317 23.44804 27.96875 17.71875 C 27.992731 17.483986 28 17.240896 28 17 C 28 10.97857 23.130754 6.0676983 17.125 6 L 17.09375 5.78125 C 16.982742 4.7762301 16.104404 4 15.09375 4 L 6.90625 4 z M 6.90625 6 L 15.09375 6 L 15.3125 8 L 6.6875 8 L 6.90625 6 z M 6.46875 10 L 15.53125 10 L 15.90625 13.34375 C 15.05843 13.611704 13.412579 14 11 14 C 8.5874214 14 6.9415702 13.611704 6.09375 13.34375 L 6.46875 10 z M 5 22 L 5 24 L 10 24 L 10 22 L 5 22 z M 5 26 L 5 28 L 10 28 L 10 26 L 5 26 z" overflow="visible" font-family="Bitstream Vera Sans" fill="#000000"/></svg>
