<?xml version="1.0" encoding="utf-8"?>
<svg xmlns="http://www.w3.org/2000/svg" viewBox="0 0 32 32" fill="#000000"><path style="text-indent:0;text-align:start;line-height:normal;text-transform:none;block-progression:tb;-inkscape-font-specification:Sans" d="M 19.34375 3 L 19.03125 3.46875 C 19.03125 3.46875 18.530593 4.2829774 18.03125 5.34375 C 17.660628 6.1310766 17.269449 7.0475985 17.09375 8 L 16 8 C 13.019467 8 9.925851 9.959124 7.4375 12.34375 C 4.949149 14.728376 3 17.488669 3 20 C 3 23.113477 4.3177585 25.148173 5 26 C 5.2077243 26.259359 5.376924 26.439851 5.40625 26.46875 C 5.4097 26.47215 5.46875 26.5625 5.46875 26.5625 L 5.5 26.53125 C 5.559341 26.5995 6.0351438 27.197231 7.0625 27.78125 C 8.1475115 28.398044 9.8002931 29 12 29 C 14.598272 29 17.393638 27.055589 19.75 24.5625 C 22.106362 22.069411 24 18.963867 24 16 L 24 14.90625 C 24.948695 14.719274 25.861837 14.297346 26.65625 13.90625 C 27.72657 13.379323 28.53125 12.84375 28.53125 12.84375 L 29 12.5625 L 29 12 L 29 11.90625 L 29 11.28125 L 28.4375 11.03125 L 26.71875 10.1875 C 27.074817 9.3927436 27.29994 8.5294478 27.5 7.71875 C 27.842349 6.3314597 28 5.125 28 5.125 L 26.875 4 C 26.875 4 25.693878 4.1366526 24.3125 4.46875 C 23.487011 4.667206 22.598441 4.901718 21.78125 5.28125 L 20.90625 3.5625 L 20.625 3 L 20 3 L 19.875 3 L 19.34375 3 z M 19.90625 6.0625 L 21.78125 9.75 L 21.9375 10.0625 L 22.25 10.21875 L 25.90625 12 C 25.82115 12.0436 25.83936 12.04976 25.75 12.09375 C 24.907158 12.508688 23.979574 12.819794 23.34375 12.90625 L 19.09375 8.65625 C 19.17521 7.9677498 19.452153 7.0193849 19.84375 6.1875 C 19.87672 6.117468 19.87349 6.129762 19.90625 6.0625 z M 25.71875 6.25 C 25.64389 6.6561076 25.66275 6.7171231 25.53125 7.25 C 25.360871 7.9404232 25.094434 8.66827 24.84375 9.25 L 23.4375 8.5625 L 22.71875 7.125 C 23.318748 6.8484703 24.065204 6.5783948 24.78125 6.40625 C 25.281337 6.286024 25.331262 6.317831 25.71875 6.25 z M 17 10 L 17.5625 10 L 19 11.4375 L 19 12 L 17 12 L 17 10 z M 15 10.125 L 15 12 L 13 12 L 13 10.875 C 13.698693 10.536088 14.369856 10.260941 15 10.125 z M 21 13.4375 L 22 14.4375 L 22 16 C 22 18.036133 20.414388 20.930589 18.28125 23.1875 C 16.148112 25.444411 13.443728 27 12 27 C 10.157707 27 8.8834885 26.529206 8.0625 26.0625 C 8.0344662 26.046564 8.0268367 26.015786 8 26 L 9 26 L 9 25 L 9 22 L 12 22 L 13 22 L 13 21 L 13 18 L 16 18 L 17 18 L 17 17 L 17 14 L 20 14 L 21 14 L 21 13.4375 z M 9 14 L 11 14 L 11 16 L 9 16 L 9 14 z M 13 14 L 15 14 L 15 16 L 13 16 L 13 14 z M 7 15.875 L 7 16 L 6.90625 16 C 6.9364601 15.959148 6.9693131 15.915855 7 15.875 z M 5.65625 18 L 7 18 L 7 20 L 5 20 C 5 19.507633 5.2455245 18.808206 5.65625 18 z M 9 18 L 11 18 L 11 20 L 9 20 L 9 18 z M 5.25 22 L 7 22 L 7 24 L 6.03125 24 C 5.7383527 23.502519 5.4529434 22.847524 5.25 22 z" fill="#000000"/></svg>
