<?xml version="1.0" encoding="utf-8"?>
<svg xmlns="http://www.w3.org/2000/svg" viewBox="0 0 32 32" fill="#000000"><path style="line-height:normal;text-indent:0;text-align:start;text-decoration-line:none;text-decoration-style:solid;text-decoration-color:#000;text-transform:none;block-progression:tb;isolation:auto;mix-blend-mode:normal" d="M 4 5 L 4 25 L 8 25 L 8 30.080078 L 14.351562 25 L 28 25 L 28 5 L 27 5 L 4 5 z M 6 7 L 26 7 L 26 23 L 13.648438 23 L 10 25.917969 L 10 23 L 6 23 L 6 7 z M 11 9 L 10 10 L 11 12 L 12.5 12.5 L 13.759766 13.759766 L 14.767578 12.767578 L 13.5 11.5 L 13 10 L 11 9 z M 19 9 C 17.343 9 16 10.343 16 12 C 16 12.289 16.054859 12.561172 16.130859 12.826172 L 10.439453 18.439453 C 9.8534531 19.025453 9.8534531 19.975547 10.439453 20.560547 C 11.025453 21.146547 11.975547 21.146547 12.560547 20.560547 L 18.185547 14.873047 C 18.446547 14.947047 18.716 15 19 15 C 20.657 15 22 13.657 22 12 C 22 11.538 21.886219 11.105844 21.699219 10.714844 L 19.585938 12.828125 L 18.171875 11.414062 L 20.285156 9.3007812 C 19.894156 9.1137812 19.462 9 19 9 z M 18.513672 15.966797 L 16.710938 17.789062 L 19.439453 20.560547 C 20.025453 21.146547 20.975547 21.146547 21.560547 20.560547 C 22.146547 19.974547 22.146547 19.024453 21.560547 18.439453 L 19.066406 15.992188 C 19.044406 15.993187 19.023 16 19 16 C 18.839 16 18.678672 15.989797 18.513672 15.966797 z" font-weight="400" font-family="sans-serif" white-space="normal" overflow="visible" fill="#000000"/></svg>
