<?xml version="1.0" encoding="utf-8"?>
<svg xmlns="http://www.w3.org/2000/svg" viewBox="0 0 32 32" fill="#000000"><path style="text-indent:0;text-align:start;line-height:normal;text-transform:none;block-progression:tb;-inkscape-font-specification:Sans" d="M 13.5 5 C 12.140702 5 11.011439 5.4667535 10.125 6.125 C 9.2385613 6.7832465 8.5637594 7.6234887 7.9375 8.375 C 7.3112406 9.1265113 6.740473 9.7837326 6.125 10.25 C 5.509527 10.716267 4.8847748 11 4 11 L 4 13 C 5.3352252 13 6.442973 12.533733 7.3125 11.875 C 8.182027 11.216267 8.8450094 10.373489 9.46875 9.625 C 10.092491 8.8765113 10.683939 8.2167535 11.3125 7.75 C 11.941061 7.2832465 12.579298 7 13.5 7 C 14.892562 7 16 8.107438 16 9.5 C 16 10.892562 14.892562 12 13.5 12 C 12.79415 12 12.175089 11.714949 11.71875 11.25 L 10.28125 12.65625 C 11.096911 13.487301 12.24585 14 13.5 14 C 15.459178 14 17.136599 12.726652 17.75 10.96875 C 19.532668 10.785793 20.736132 9.9748051 21.59375 9.28125 C 22.568325 8.4931122 23.060303 8 24 8 C 25.146667 8 26 8.8332687 26 10.03125 C 26 11.229231 25.185952 12 24 12 C 23.45127 12 22.850842 11.73342 22.4375 11.3125 L 21 12.71875 C 21.786658 13.51983 22.86873 14 24 14 C 26.174048 14 28 12.257269 28 10.03125 C 28 7.8052313 26.213333 6 24 6 C 22.299697 6 21.231425 7.0008878 20.34375 7.71875 C 19.638609 8.2889972 19.016205 8.7671796 17.9375 8.9375 C 17.656008 6.7289104 15.781383 5 13.5 5 z M 10 16 C 8.3833333 16 7.275 16.96875 6.375 17.71875 C 5.475 18.46875 4.7833333 19 4 19 L 4 21 C 5.6166667 21 6.725 20.03125 7.625 19.28125 C 8.525 18.53125 9.2166667 18 10 18 C 10.783333 18 11.475 18.53125 12.375 19.28125 C 13.275 20.03125 14.383333 21 16 21 C 17.616667 21 18.725 20.03125 19.625 19.28125 C 20.525 18.53125 21.216667 18 22 18 C 22.783333 18 23.475 18.53125 24.375 19.28125 C 25.275 20.03125 26.383333 21 28 21 L 28 19 C 27.216667 19 26.525 18.46875 25.625 17.71875 C 24.725 16.96875 23.616667 16 22 16 C 20.383333 16 19.275 16.96875 18.375 17.71875 C 17.475 18.46875 16.783333 19 16 19 C 15.216667 19 14.525 18.46875 13.625 17.71875 C 12.725 16.96875 11.616667 16 10 16 z M 10 22 C 8.3833333 22 7.275 22.96875 6.375 23.71875 C 5.475 24.46875 4.7833333 25 4 25 L 4 27 C 5.6166667 27 6.725 26.03125 7.625 25.28125 C 8.525 24.53125 9.2166667 24 10 24 C 10.783333 24 11.475 24.53125 12.375 25.28125 C 13.275 26.03125 14.383333 27 16 27 C 17.616667 27 18.725 26.03125 19.625 25.28125 C 20.525 24.53125 21.216667 24 22 24 C 22.783333 24 23.475 24.53125 24.375 25.28125 C 25.275 26.03125 26.383333 27 28 27 L 28 25 C 27.216667 25 26.525 24.46875 25.625 23.71875 C 24.725 22.96875 23.616667 22 22 22 C 20.383333 22 19.275 22.96875 18.375 23.71875 C 17.475 24.46875 16.783333 25 16 25 C 15.216667 25 14.525 24.46875 13.625 23.71875 C 12.725 22.96875 11.616667 22 10 22 z" overflow="visible" font-family="Sans" fill="#000000"/></svg>
