<?xml version="1.0" encoding="utf-8"?>
<svg xmlns="http://www.w3.org/2000/svg" viewBox="0 0 32 32" fill="#000000"><path style="text-indent:0;text-align:start;line-height:normal;text-transform:none;block-progression:tb;-inkscape-font-specification:Sans" d="M 3 3 L 3 4 L 3 18 L 3 19 L 4 19 L 6.0625 19 C 4.3922903 20.234472 3.28125 21.28125 3.28125 21.28125 L 2.59375 22 L 3.28125 22.71875 C 3.28125 22.71875 4.8501534 24.287162 7.1875 25.84375 C 9.5248466 27.400338 12.675108 29 16 29 C 19.324892 29 22.475153 27.400338 24.8125 25.84375 C 27.149847 24.287162 28.71875 22.71875 28.71875 22.71875 L 29.40625 22 L 28.71875 21.28125 C 28.71875 21.28125 27.60771 20.234472 25.9375 19 L 28 19 L 29 19 L 29 18 L 29 4 L 29 3 L 28 3 L 4 3 L 3 3 z M 5 5 L 27 5 L 27 17 L 22.875 17 C 20.855023 15.893425 18.491338 15 16 15 C 13.508662 15 11.144977 15.893425 9.125 17 L 5 17 L 5 5 z M 10 9 C 8.8954305 9 8 9.8954305 8 11 C 8 12.104569 8.8954305 13 10 13 C 11.104569 13 12 12.104569 12 11 C 12 9.8954305 11.104569 9 10 9 z M 16 9 C 14.895431 9 14 9.8954305 14 11 C 14 12.104569 14.895431 13 16 13 C 17.104569 13 18 12.104569 18 11 C 18 9.8954305 17.104569 9 16 9 z M 22 9 C 20.895431 9 20 9.8954305 20 11 C 20 12.104569 20.895431 13 22 13 C 23.104569 13 24 12.104569 24 11 C 24 9.8954305 23.104569 9 22 9 z M 16 17 C 18.652216 17 21.519087 18.400226 23.6875 19.84375 C 25.310936 20.924479 25.866773 21.528086 26.375 22 C 25.86735 22.471852 25.31018 23.075604 23.6875 24.15625 C 21.520097 25.599662 18.656108 27 16 27 C 13.343892 27 10.479903 25.599662 8.3125 24.15625 C 6.6898205 23.075604 6.1326498 22.471852 5.625 22 C 6.1332266 21.528086 6.6890643 20.924479 8.3125 19.84375 C 10.480913 18.400226 13.347784 17 16 17 z M 16 18 C 13.791 18 12 19.791 12 22 C 12 24.209 13.791 26 16 26 C 18.209 26 20 24.209 20 22 C 20 21.594 19.9255 21.21275 19.8125 20.84375 C 19.4945 21.52675 18.803 22 18 22 C 16.895 22 16 21.105 16 20 C 16 19.197 16.47325 18.5055 17.15625 18.1875 C 16.78725 18.0745 16.406 18 16 18 z" overflow="visible" font-family="Sans" fill="#000000"/></svg>
