<?xml version="1.0" encoding="utf-8"?>
<svg xmlns="http://www.w3.org/2000/svg" viewBox="0 0 32 32" fill="#000000"><path style="text-indent:0;text-align:start;line-height:normal;text-transform:none;block-progression:tb;-inkscape-font-specification:Sans" d="M 13.59375 3 C 12.975328 3.092625 12.392 3.73425 12.125 4.6875 C 11.768 5.9585 12.10525 7.32375 12.90625 7.71875 C 13.70625 8.11475 14.643 7.396 15 6.125 C 15.357 4.854 15.01975 3.48875 14.21875 3.09375 C 14.0185 2.995 13.799891 2.969125 13.59375 3 z M 18.0625 3 C 17.959498 3.0159063 17.881375 3.044375 17.78125 3.09375 C 16.98025 3.48875 16.61275 4.854 16.96875 6.125 C 17.32475 7.396 18.2615 8.11375 19.0625 7.71875 C 19.8635 7.32375 20.232 5.9585 19.875 4.6875 C 19.5635 3.575375 18.783514 2.8886563 18.0625 3 z M 10.09375 4 C 9.474636 4.0260893 8.9967666 4.7129384 9.03125 5.53125 C 9.0657335 6.3495628 9.599636 6.9948393 10.21875 6.96875 C 10.837864 6.9426607 11.315733 6.2558128 11.28125 5.4375 C 11.246767 4.6191884 10.712864 3.9739107 10.09375 4 z M 21.90625 4 C 21.287144 3.973727 20.753476 4.6191982 20.71875 5.4375 C 20.684024 6.2558018 21.162144 6.942477 21.78125 6.96875 C 22.400357 6.995023 22.934024 6.3495518 22.96875 5.53125 C 23.003476 4.7129482 22.525357 4.026273 21.90625 4 z M 7.28125 5 C 7.2141135 5.0031856 7.1585743 5.0091643 7.09375 5.03125 C 6.5751557 5.2079353 6.3445739 5.9561357 6.59375 6.6875 C 6.8429261 7.4188643 7.4501557 7.8641853 7.96875 7.6875 C 8.4873442 7.5108147 8.7179261 6.7626143 8.46875 6.03125 C 8.2507209 5.3913063 7.7512057 4.9777008 7.28125 5 z M 24.6875 5 C 24.217544 4.9777009 23.718029 5.3913063 23.5 6.03125 C 23.250824 6.7626143 23.481406 7.5108149 24 7.6875 C 24.518595 7.8641855 25.125824 7.4188643 25.375 6.6875 C 25.624176 5.9561357 25.424845 5.2079355 24.90625 5.03125 C 24.841426 5.0091644 24.754637 5.0031856 24.6875 5 z M 5.21875 6.6875 C 5.084604 6.6937869 4.9596583 6.7416215 4.84375 6.8125 C 4.3801168 7.0960141 4.3195656 7.8045635 4.6875 8.40625 C 5.0554344 9.0079365 5.7238668 9.2835141 6.1875 9 C 6.6511332 8.7164859 6.7116844 7.9766865 6.34375 7.375 C 6.0677992 6.9237351 5.621188 6.6686393 5.21875 6.6875 z M 26.75 6.6875 C 26.347563 6.6686112 25.900982 6.9237544 25.625 7.375 C 25.257024 7.9766608 25.348887 8.7164537 25.8125 9 C 26.276114 9.2835469 26.944524 9.0079108 27.3125 8.40625 C 27.680476 7.8045892 27.588614 7.0960469 27.125 6.8125 C 27.009097 6.7416134 26.884146 6.6937963 26.75 6.6875 z M 3.5625 8.9375 C 3.446646 8.9603531 3.3404908 9.0166546 3.25 9.09375 C 2.8880369 9.4021317 2.9350816 10.051575 3.34375 10.53125 C 3.7524185 11.010925 4.3567869 11.152132 4.71875 10.84375 C 5.0807131 10.535368 5.0649185 9.8859248 4.65625 9.40625 C 4.3497487 9.046494 3.9100621 8.8689407 3.5625 8.9375 z M 28.40625 8.9375 C 28.058688 8.8689407 27.650251 9.0464939 27.34375 9.40625 C 26.935081 9.8859248 26.888037 10.535368 27.25 10.84375 C 27.611963 11.152132 28.247581 11.010925 28.65625 10.53125 C 29.064919 10.051575 29.080713 9.4021316 28.71875 9.09375 C 28.628259 9.0166546 28.522104 8.9603531 28.40625 8.9375 z M 11.40625 9 C 10.415715 9 8.7457202 9.2079128 7.15625 10.03125 C 5.5667798 10.854587 4.0439653 12.452352 3.96875 14.90625 C 3.898887 17.204018 4.6174726 18.806141 5.25 20.1875 C 5.8825274 21.568859 6.4375 22.748433 6.4375 24.6875 C 6.4375 25.67685 6.7241601 26.669093 7.3125 27.5 C 7.9008399 28.330907 8.8821217 29 10.0625 29 C 11.480442 29 12.597322 28.500902 13.21875 27.65625 C 13.840178 26.811598 13.941385 25.839456 13.96875 24.9375 C 14.02276 23.176004 13.368311 21.984349 12.84375 21.15625 C 12.319189 20.328151 11.96875 19.873327 11.96875 18.78125 C 11.96875 17.387696 12.479737 16.913157 13.21875 16.125 C 13.957763 15.336843 14.96875 14.235733 14.96875 12.375 C 14.96875 11.050123 14.324159 10.014237 13.53125 9.53125 C 12.738341 9.0482627 11.943908 9 11.40625 9 z M 20.15625 9 C 19.660035 9.0362139 19.032182 9.1690095 18.4375 9.53125 C 17.644591 10.014237 17 11.050123 17 12.375 C 17 14.235339 18.042308 15.336919 18.78125 16.125 C 19.520192 16.913081 20 17.387108 20 18.78125 C 20 19.873327 19.649561 20.328151 19.125 21.15625 C 18.600439 21.984349 17.945995 23.176004 18 24.9375 C 18.02736 25.839254 18.128658 26.811462 18.75 27.65625 C 19.371342 28.501038 20.487889 29 21.90625 29 C 23.086428 29 24.067835 28.330848 24.65625 27.5 C 25.244665 26.669152 25.53125 25.677221 25.53125 24.6875 C 25.53125 22.748433 26.086223 21.568859 26.71875 20.1875 C 27.351277 18.806141 28.069863 17.204018 28 14.90625 C 27.92537 12.45225 26.433357 10.854583 24.84375 10.03125 C 23.254143 9.2079165 21.584285 9 20.59375 9 C 20.459336 9 20.321655 8.9879287 20.15625 9 z M 11.40625 11 C 11.764592 11 12.225409 11.08274 12.5 11.25 C 12.774591 11.417263 12.96875 11.580877 12.96875 12.375 C 12.96875 13.584267 12.510987 13.969657 11.75 14.78125 C 10.989013 15.592843 9.96875 16.795804 9.96875 18.78125 C 9.96875 20.390173 10.657311 21.462349 11.15625 22.25 C 11.655189 23.037651 12.008745 23.570496 11.96875 24.875 C 11.94612 25.621044 11.809572 26.175402 11.59375 26.46875 C 11.377928 26.762098 11.083558 27 10.0625 27 C 9.5808783 27 9.2441601 26.776843 8.9375 26.34375 C 8.6308399 25.910657 8.4375 25.27015 8.4375 24.6875 C 8.4375 22.345567 7.6917226 20.749141 7.0625 19.375 C 6.4332774 18.000859 5.9116127 16.847982 5.96875 14.96875 C 6.0215347 13.246648 6.8942202 12.386413 8.0625 11.78125 C 9.2307798 11.176087 10.721785 11 11.40625 11 z M 20.59375 11 C 21.278215 11 22.737857 11.176083 23.90625 11.78125 C 25.074643 12.386417 25.947631 13.24675 26 14.96875 C 26.05714 16.847982 25.535473 18.000859 24.90625 19.375 C 24.277027 20.749141 23.53125 22.345567 23.53125 24.6875 C 23.53125 25.270779 23.337835 25.910848 23.03125 26.34375 C 22.724665 26.776652 22.388072 27 21.90625 27 C 20.884611 27 20.590658 26.761962 20.375 26.46875 C 20.159342 26.175538 20.022641 25.621246 20 24.875 C 19.96 23.570496 20.313561 23.037651 20.8125 22.25 C 21.311439 21.462349 22 20.390173 22 18.78125 C 22 16.795392 20.979808 15.592919 20.21875 14.78125 C 19.457692 13.969581 19 13.583661 19 12.375 C 19 11.580877 19.194159 11.417263 19.46875 11.25 C 19.743341 11.082737 20.235408 11 20.59375 11 z" overflow="visible" font-family="Sans" fill="#000000"/></svg>
