<?xml version="1.0" encoding="utf-8"?>
<svg xmlns="http://www.w3.org/2000/svg" viewBox="0 0 32 32" fill="#000000"><path style="text-indent:0;text-align:start;line-height:normal;text-transform:none;block-progression:tb;-inkscape-font-specification:Bitstream Vera Sans" d="M 5 5 L 5 6 L 5 26 L 5 27 L 6 27 L 12 27 L 13 27 L 14 27 L 19 27 L 26 27 L 27 27 L 27 26 L 27 6 L 27 5 L 26 5 L 19 5 L 18 5 L 18 6 L 18 8 L 14 8 L 14 6 L 14 5 L 13 5 L 6 5 L 5 5 z M 7 7 L 12 7 L 12 8 L 12 9 L 12 10 L 8 10 L 8 12 L 12 12 L 12 21 L 8 21 L 8 23 L 12 23 L 12 25 L 7 25 L 7 7 z M 20 7 L 25 7 L 25 10 L 21 10 L 21 12 L 25 12 L 25 21 L 21 21 L 21 23 L 25 23 L 25 25 L 20 25 L 20 9 L 20 8 L 20 7 z M 14 10 L 18 10 L 18 12 L 15 12 L 15 14 L 18 14 L 18 21 L 15 21 L 15 23 L 18 23 L 18 25 L 14 25 L 14 10 z" fill="#000000"/></svg>
