<?xml version="1.0" encoding="utf-8"?>
<svg xmlns="http://www.w3.org/2000/svg" viewBox="0 0 32 32" fill="#000000"><path style="text-indent:0;text-align:start;line-height:normal;text-transform:none;block-progression:tb;-inkscape-font-specification:Bitstream Vera Sans" d="M 20.125 4.03125 C 18.824571 4.017788 17.579427 4.4368321 16.5 5.09375 C 14.341147 6.4075859 12.575084 8.580242 10.8125 10.53125 C 9.2529698 12.257124 6.9746624 13.80169 5.4375 15.84375 C 4.6689188 16.86478 4.0856705 18.061434 4 19.4375 C 3.91433 20.813566 4.3494391 22.315075 5.34375 23.9375 C 7.1489833 26.882971 10.512147 28.156041 13.96875 28 C 17.425353 27.843959 21.060466 26.302497 23.75 23.53125 C 26.175519 21.031381 27.715616 17.616365 27.96875 14.25 C 28.221884 10.883635 27.121464 7.4729904 24.1875 5.4375 C 22.799464 4.4747546 21.425429 4.0447115 20.125 4.03125 z M 20.09375 5.96875 C 20.968227 5.97544 21.894786 6.3054954 23.03125 7.09375 C 25.312286 8.6762596 26.183366 11.239615 25.96875 14.09375 C 25.754134 16.947885 24.388981 19.984869 22.3125 22.125 C 19.999034 24.508753 16.798147 25.868041 13.875 26 C 10.951853 26.131959 8.3940167 25.098529 7.03125 22.875 C 6.1900609 21.502425 5.944233 20.458246 6 19.5625 C 6.055767 18.666754 6.4145812 17.85047 7.03125 17.03125 C 8.2645876 15.39281 10.52503 13.853126 12.3125 11.875 C 12.6491 11.502417 12.980084 11.120048 13.3125 10.75 C 13.490619 10.913978 13.738808 11 14 11 C 14.552285 11 15 10.552285 15 10 C 15 9.7141839 14.879756 9.4634931 14.6875 9.28125 C 15.659284 8.2623996 16.613859 7.3585741 17.5625 6.78125 C 18.417698 6.2607929 19.219273 5.9620552 20.09375 5.96875 z M 23 12 C 22.447715 12 22 12.447715 22 13 C 22 13.552285 22.447715 14 23 14 C 23.552285 14 24 13.552285 24 13 C 24 12.447715 23.552285 12 23 12 z M 20.5 14 C 20.223858 14 20 14.223858 20 14.5 C 20 14.776142 20.223858 15 20.5 15 C 20.776142 15 21 14.776142 21 14.5 C 21 14.223858 20.776142 14 20.5 14 z M 10.5 18 C 10.223858 18 10 18.223858 10 18.5 C 10 18.776142 10.223858 19 10.5 19 C 10.776142 19 11 18.776142 11 18.5 C 11 18.223858 10.776142 18 10.5 18 z M 8.5 20 C 8.2238576 20 8 20.223858 8 20.5 C 8 20.776142 8.2238576 21 8.5 21 C 8.7761424 21 9 20.776142 9 20.5 C 9 20.223858 8.7761424 20 8.5 20 z M 11 21 C 10.447715 21 10 21.447715 10 22 C 10 22.552285 10.447715 23 11 23 C 11.552285 23 12 22.552285 12 22 C 12 21.447715 11.552285 21 11 21 z M 20.5 21 C 20.223858 21 20 21.223858 20 21.5 C 20 21.776142 20.223858 22 20.5 22 C 20.776142 22 21 21.776142 21 21.5 C 21 21.223858 20.776142 21 20.5 21 z" overflow="visible" font-family="Bitstream Vera Sans" fill="#000000"/></svg>
