<?xml version="1.0" encoding="utf-8"?>
<svg xmlns="http://www.w3.org/2000/svg" viewBox="0 0 32 32" fill="#000000"><path style="text-indent:0;text-align:start;line-height:normal;text-transform:none;block-progression:tb;-inkscape-font-specification:Sans" d="M 3 8 L 3 9 L 3 23 L 3 24 L 4 24 L 16 24 C 16 28.406433 19.593567 32 24 32 C 28.406433 32 32 28.406433 32 24 C 32 21.481724 30.828363 19.2495 29 17.78125 L 29 9 L 29 8 L 28 8 L 4 8 L 3 8 z M 5 10 L 27 10 L 27 16.59375 C 26.068624 16.212597 25.065848 16 24 16 C 24 14.895431 23.104569 14 22 14 C 20.895431 14 20 14.895431 20 16 C 20 16.340341 20.100054 16.656945 20.25 16.9375 C 18.298922 17.978276 16.851004 19.815755 16.28125 22 L 5 22 L 5 10 z M 10 14 C 8.8954305 14 8 14.895431 8 16 C 8 17.104569 8.8954305 18 10 18 C 11.104569 18 12 17.104569 12 16 C 12 14.895431 11.104569 14 10 14 z M 16 14 C 14.895431 14 14 14.895431 14 16 C 14 17.104569 14.895431 18 16 18 C 17.104569 18 18 17.104569 18 16 C 18 14.895431 17.104569 14 16 14 z M 24 18 C 27.325553 18 30 20.674447 30 24 C 30 27.325553 27.325553 30 24 30 C 20.674447 30 18 27.325553 18 24 C 18 20.674447 20.674447 18 24 18 z M 27.28125 21.28125 L 24 24.5625 L 21.71875 22.28125 L 20.28125 23.71875 L 23.28125 26.71875 L 24 27.40625 L 24.71875 26.71875 L 28.71875 22.71875 L 27.28125 21.28125 z" overflow="visible" font-family="Sans" fill="#000000"/></svg>
