<?xml version="1.0" encoding="utf-8"?>
<svg xmlns="http://www.w3.org/2000/svg" viewBox="0 0 32 32" fill="#000000"><path style="text-indent:0;text-align:start;line-height:normal;text-transform:none;block-progression:tb;-inkscape-font-specification:Bitstream Vera Sans" d="M 10 4 C 8.3550302 4 7 5.3550302 7 7 L 7 21 L 5 21 L 4 21 L 4 22 L 4 25 C 4 26.64497 5.3550302 28 7 28 L 20 28 L 21 28 C 21.010704 28 21.020571 28.000114 21.03125 28 C 22.661723 27.982526 24 26.634266 24 25 L 24 11 L 27 11 L 28 11 L 28 10 L 28 7 C 28 5.3550302 26.64497 4 25 4 L 23 4 L 10 4 z M 10 6 L 22.1875 6 C 22.073236 6.3157581 22 6.6470169 22 7 L 22 13 L 20 13 L 20 15 L 22 15 L 22 17 L 18 17 L 18 19 L 22 19 L 22 25 C 22 25.56503 21.56503 26 21 26 C 20.436513 26.0077 20.007651 25.563085 20 25 L 19.96875 21 L 19 21 L 9 21 L 9 12 L 11 12 L 11 10 L 9 10 L 9 7 C 9 6.4349698 9.4349698 6 10 6 z M 25 6 C 25.56503 6 26 6.4349698 26 7 L 26 9 L 24 9 L 24 7 C 24 6.4349698 24.43497 6 25 6 z M 6 23 L 17.96875 23 L 18 25.03125 C 18.004656 25.373941 18.07595 25.692915 18.1875 26 L 7 26 C 6.4349698 26 6 25.56503 6 25 L 6 23 z" fill="#000000"/></svg>
