<?xml version="1.0" encoding="utf-8"?>
<svg xmlns="http://www.w3.org/2000/svg" viewBox="-7 9 32 32" fill="#000000"><path d="M 15.90625 2.90625 L 15.1875 3.8125 C 14.8875 4.2125 8 13 8 30 L 10 30 C 10 24.7 16.7 21 18 21 C 19 21 23 24 23 28 L 25 28 C 25 11.8 16.9875 3.9875 16.6875 3.6875 L 15.90625 2.90625 z M 16.1875 6.125 C 17.826282 8.2020354 21.316071 13.45391 22.59375 21.90625 C 21.09375 20.10625 19.2 19 18 19 C 16.4 19 12.8125 20.90625 10.3125 23.90625 C 11.375328 14.630664 14.46526 8.7450339 15.9375 6.28125 L 15.5 13.6875 L 13 14.3125 L 15.3125 15.09375 L 15.09375 17 L 16.40625 15.3125 L 17.90625 16.90625 L 17.59375 15.09375 L 20 14.3125 L 17.40625 13.6875 L 16.1875 6.125 z" transform="translate(-7 9)" fill="#000000"/></svg>
