<?xml version="1.0" encoding="utf-8"?>
<svg xmlns="http://www.w3.org/2000/svg" viewBox="0 0 32 32" fill="#000000"><path style="text-indent:0;text-align:start;line-height:normal;text-transform:none;block-progression:tb;-inkscape-font-specification:Bitstream Vera Sans" d="M 13.25 3 C 13.054897 3 12.573337 3.4363133 12.15625 4.0625 C 11.251744 4.2465499 10.517012 4.8334741 10 5.5 C 9.3750206 6.3057155 9 7.2684507 9 8.25 C 9 9.0909522 9.2291062 9.9759264 9.78125 10.71875 C 10.333394 11.461574 11.281933 12 12.40625 12 C 13.648643 12 14.671666 11.458733 15.25 10.6875 C 15.828334 9.9162675 16 9.0257006 16 8.21875 C 16 7.4302593 15.78708 6.4969157 15.3125 5.65625 C 15.009955 5.1203256 14.54939 4.5919813 13.9375 4.28125 C 13.763723 3.5687352 13.446704 3 13.25 3 z M 19.75 4 C 19.547882 4 19.232838 4.602718 19.0625 5.34375 C 18.527917 5.6552053 18.12119 6.1300015 17.8125 6.625 C 17.306694 7.4360819 17 8.3585841 17 9.25 C 17 10.100703 17.188117 10.991482 17.78125 11.75 C 18.374383 12.508518 19.375535 13.000615 20.59375 13 C 21.688255 13 22.651145 12.522188 23.21875 11.8125 C 23.786355 11.102812 24 10.215952 24 9.375 C 24 8.2317384 23.535497 7.2020711 22.875 6.40625 C 22.331652 5.7515796 21.641827 5.2296318 20.8125 5.0625 C 20.397491 4.444343 19.943647 4 19.75 4 z M 12.75 6 C 13.086094 6 13.32908 6.1874157 13.59375 6.65625 C 13.85842 7.1250843 14 7.8292407 14 8.21875 C 14 8.7077994 13.882166 9.1987325 13.65625 9.5 C 13.430334 9.8012675 13.144857 10 12.40625 10 C 11.864567 10 11.606856 9.8119264 11.375 9.5 C 11.143144 9.1880736 11 8.7160478 11 8.25 C 11 7.8465493 11.231479 7.1857845 11.59375 6.71875 C 11.956021 6.2517155 12.375767 6 12.75 6 z M 20.25 7 C 20.492207 7 20.959747 7.2248211 21.34375 7.6875 C 21.727753 8.1501789 22 8.7802616 22 9.375 C 22 9.8410478 21.872645 10.291938 21.65625 10.5625 C 21.439855 10.833062 21.165245 11 20.59375 11 C 19.830965 11.000385 19.554867 10.801232 19.34375 10.53125 C 19.132633 10.261268 19 9.808297 19 9.25 C 19 8.9134159 19.187306 8.1889181 19.5 7.6875 C 19.812694 7.1860819 20.179986 7 20.25 7 z M 7.84375 10 C 7.6750472 10 7.282382 10.336195 7.09375 11.25 C 6.5101844 11.525686 6.0335604 12.0009 5.71875 12.5 C 5.2150534 13.29856 5 14.205668 5 15.09375 C 5 15.895662 5.2248479 16.780309 5.78125 17.5625 C 6.3376521 18.344691 7.3172189 19 8.53125 19 C 9.8553897 19 10.870928 18.28745 11.375 17.5 C 11.879072 16.71255 12 15.915117 12 15.34375 C 12 14.378671 11.671438 13.404723 11.0625 12.5625 C 10.546388 11.848665 9.7521304 11.236837 8.78125 11.0625 C 8.40798 10.495729 7.973978 10 7.84375 10 z M 24.15625 12 C 24.026022 12 23.59202 12.495729 23.21875 13.0625 C 22.247744 13.236817 21.453537 13.848581 20.9375 14.5625 C 20.328651 15.404822 20 16.378903 20 17.34375 C 20 17.915362 20.120851 18.712603 20.625 19.5 C 21.129149 20.287397 22.144775 21 23.46875 21 C 24.682781 21 25.662348 20.344691 26.21875 19.5625 C 26.775152 18.780309 27 17.895662 27 17.09375 C 27 16.205668 26.784947 15.29856 26.28125 14.5 C 25.961384 13.992885 25.471554 13.524022 24.875 13.25 C 24.685775 12.342723 24.32441 12 24.15625 12 z M 8.25 13 C 8.7132715 13 9.0936879 13.243223 9.4375 13.71875 C 9.7813121 14.194277 10 14.871829 10 15.34375 C 10 15.529383 9.909178 16.05995 9.6875 16.40625 C 9.4658222 16.75255 9.2341103 17 8.53125 17 C 7.9522811 17 7.6685979 16.775059 7.40625 16.40625 C 7.1439021 16.037441 7 15.479838 7 15.09375 C 7 14.572832 7.1531966 13.96369 7.40625 13.5625 C 7.6593034 13.16131 7.8955508 13 8.25 13 z M 23.75 15 C 24.104449 15 24.340697 15.16131 24.59375 15.5625 C 24.846803 15.96369 25 16.572832 25 17.09375 C 25 17.479838 24.856098 18.037441 24.59375 18.40625 C 24.331402 18.775059 24.047719 19 23.46875 19 C 22.765725 19 22.534101 18.783603 22.3125 18.4375 C 22.090899 18.091397 22 17.530138 22 17.34375 C 22 16.871597 22.218849 16.194178 22.5625 15.71875 C 22.906151 15.243322 23.286004 15 23.75 15 z M 15.5 16 C 13.600465 16 12.035032 17.545751 12 19.4375 C 11.986716 19.447243 11.946865 19.49985 11.8125 19.59375 C 11.543769 19.781548 11.039544 20.034861 10.5 20.34375 C 9.9604563 20.652639 9.3742887 21.034425 8.875 21.625 C 8.3757113 22.215575 8 23.038934 8 24 C 8 26.197334 9.8026661 28 12 28 C 13.11 28 13.837796 27.791506 14.28125 27.59375 C 14.724704 27.395994 14.691538 27.34375 15 27.34375 C 15.308462 27.34375 15.275296 27.39599 15.71875 27.59375 C 16.162204 27.791506 16.89 28 18 28 C 20.197334 28 22 26.197334 22 24 C 22 23.090695 21.741392 22.313348 21.34375 21.75 C 20.946108 21.186652 20.466077 20.860178 20.0625 20.59375 C 19.658923 20.327322 19.336157 20.120884 19.1875 19.96875 C 19.038843 19.816616 19 19.778518 19 19.5 C 19 17.578812 17.421188 16 15.5 16 z M 15.5 18 C 16.340812 18 17 18.659188 17 19.5 C 17 20.259982 17.336157 20.951477 17.75 21.375 C 18.163843 21.798523 18.591077 22.021303 18.9375 22.25 C 19.283923 22.478697 19.553892 22.672692 19.71875 22.90625 C 19.883608 23.139808 20 23.428305 20 24 C 20 25.116666 19.116666 26 18 26 C 17.11 26 16.859046 25.882244 16.5625 25.75 C 16.265954 25.617756 15.731538 25.34375 15 25.34375 C 14.268462 25.34375 13.734046 25.617756 13.4375 25.75 C 13.140954 25.882244 12.89 26 12 26 C 10.883334 26 10 25.116666 10 24 C 10 23.493066 10.124289 23.2028 10.375 22.90625 C 10.625711 22.6097 11.039544 22.326111 11.5 22.0625 C 11.960456 21.798889 12.456231 21.586327 12.9375 21.25 C 13.418769 20.913673 14 20.320236 14 19.5 C 14 18.659188 14.659188 18 15.5 18 z" overflow="visible" font-family="Bitstream Vera Sans" fill="#000000"/></svg>
