<?xml version="1.0" encoding="utf-8"?>
<svg xmlns="http://www.w3.org/2000/svg" viewBox="0 0 32 32" fill="#000000"><path style="text-indent:0;text-align:start;line-height:normal;text-transform:none;block-progression:tb;-inkscape-font-specification:Bitstream Vera Sans" d="M 23 3 C 19.698136 3 17 5.6981362 17 9 C 17 10.016103 16.59274 11.00101 15.875 11.71875 L 15.71875 11.875 C 15.00101 12.59274 14.016103 13 13 13 L 11 13 C 6.5935666 13 3 16.593567 3 21 C 3 25.406433 6.5935666 29 11 29 C 15.406433 29 19 25.406433 19 21 L 19 19 C 19 17.983897 19.40726 16.99899 20.125 16.28125 L 20.28125 16.125 C 20.99899 15.40726 21.983897 15 23 15 C 26.301864 15 29 12.301864 29 9 C 29 5.6981362 26.301864 3 23 3 z M 23 5 C 25.220984 5 27 6.7790164 27 9 C 27 11.220984 25.220984 13 23 13 C 20.779016 13 19 11.220984 19 9 C 19 6.7790164 20.779016 5 23 5 z M 18 12.28125 C 18.45027 12.962951 19.037049 13.54973 19.71875 14 C 19.409449 14.209008 19.142035 14.451715 18.875 14.71875 L 18.71875 14.875 C 18.253843 15.339907 17.877499 15.886745 17.59375 16.46875 C 17.036375 15.659675 16.340325 14.963625 15.53125 14.40625 C 16.085769 14.135532 16.613414 13.77956 17.0625 13.34375 L 17.125 13.28125 L 17.28125 13.125 L 17.3125 13.09375 C 17.564249 12.838194 17.800744 12.574872 18 12.28125 z M 11 15 C 14.325553 15 17 17.674447 17 21 C 17 24.325553 14.325553 27 11 27 C 7.674447 27 5 24.325553 5 21 C 5 17.674447 7.674447 15 11 15 z" overflow="visible" font-family="Bitstream Vera Sans" fill="#000000"/></svg>
