<?xml version="1.0" encoding="utf-8"?>
<svg xmlns="http://www.w3.org/2000/svg" viewBox="0 0 32 32" fill="#000000"><path style="text-indent:0;text-align:start;line-height:normal;text-transform:none;block-progression:tb;-inkscape-font-specification:Bitstream Vera Sans" d="M 19.84375 4 L 6.84375 6 L 5.6875 6.1875 L 6.0625 7.3125 L 8 13.125 L 8 24 L 8 25 L 9 25 L 22 25 L 23 25 L 23 24 L 23 6 C 24.190196 6 25 6.8098039 25 8 L 25 15 L 27 15 L 27 8 C 27 5.7901961 25.209804 4 23 4 L 22 4 L 20 4 L 19.9375 4 L 19.84375 4 z M 20.15625 6 L 21 6 L 21 23 L 10 23 L 10 13 L 10 12.84375 L 9.9375 12.6875 L 8.3125 7.8125 L 20.15625 6 z M 17 11 L 17 21 L 19 21 L 19 11 L 17 11 z M 6 26 L 6 28 L 25 28 L 25 26 L 6 26 z" overflow="visible" font-family="Bitstream Vera Sans" fill="#000000"/></svg>
