<?xml version="1.0" encoding="utf-8"?>
<svg xmlns="http://www.w3.org/2000/svg" viewBox="0 0 32 32" fill="#000000"><path style="text-indent:0;text-align:start;line-height:normal;text-transform:none;block-progression:tb;-inkscape-font-specification:Bitstream Vera Sans" d="M 16 3 C 12.145666 3 9 6.1456661 9 10 C 9 11.13025 9.4447877 12.352614 10.03125 13.6875 C 10.617712 15.022386 11.363369 16.437076 12.125 17.75 C 13.648261 20.375848 15.1875 22.5625 15.1875 22.5625 L 16 23.75 L 16.8125 22.5625 C 16.8125 22.5625 18.351739 20.375848 19.875 17.75 C 20.636631 16.437076 21.382288 15.022386 21.96875 13.6875 C 22.555212 12.352614 23 11.13025 23 10 C 23 6.1456661 19.854334 3 16 3 z M 16 5 C 18.773666 5 21 7.2263339 21 10 C 21 10.52675 20.694788 11.649198 20.15625 12.875 C 19.617712 14.100802 18.863369 15.477174 18.125 16.75 C 17.053262 18.597498 16.508491 19.397585 16 20.15625 C 15.491509 19.397585 14.946738 18.597498 13.875 16.75 C 13.136631 15.477174 12.382288 14.100802 11.84375 12.875 C 11.305212 11.649198 11 10.52675 11 10 C 11 7.2263339 13.226334 5 16 5 z M 16 8 C 14.895431 8 14 8.8954305 14 10 C 14 11.104569 14.895431 12 16 12 C 17.104569 12 18 11.104569 18 10 C 18 8.8954305 17.104569 8 16 8 z M 10.90625 19.4375 C 7.03325 20.1395 4 21.68 4 24 C 4 27.283 10.037 29 16 29 C 21.963 29 28 27.283 28 24 C 28 21.68 24.96675 20.1395 21.09375 19.4375 L 19.875 21.28125 C 23.654 21.82925 26 23.088 26 24 C 26 25.194 22.012 27 16 27 C 9.988 27 6 25.194 6 24 C 6 23.088 8.346 21.82925 12.125 21.28125 L 10.90625 19.4375 z" overflow="visible" font-family="Bitstream Vera Sans" fill="#000000"/></svg>
