<?xml version="1.0" encoding="utf-8"?>
<svg xmlns="http://www.w3.org/2000/svg" viewBox="0 0 32 32" fill="#000000"><path style="line-height:normal;text-indent:0;text-align:start;text-decoration-line:none;text-decoration-style:solid;text-decoration-color:#000;text-transform:none;block-progression:tb;isolation:auto;mix-blend-mode:normal" d="M 9 3 L 9 4 L 9 5 L 9 10 L 9 11 L 11 11 L 11 10 L 15 10 L 15 11.634766 C 15.369 11.866766 15.710281 12.138844 15.988281 12.464844 C 16.274281 12.124844 16.616 11.827891 17 11.587891 L 17 10 L 21 10 L 21 11 L 23 11 L 23 3 L 21 3 L 21 4 L 11 4 L 11 3 L 9 3 z M 11 6 L 21 6 L 21 8 L 11 8 L 11 6 z M 19 12 C 18.126 12 17.388845 12.422481 16.871094 12.96875 C 16.353343 13.515019 16 14.206119 16 15 L 16 15.027344 C 16 14.233463 15.646657 13.542363 15.128906 12.996094 C 14.611155 12.449825 13.874 12.027344 13 12.027344 C 12.119681 12.027344 11.368344 12.449752 10.851562 13.005859 C 10.334782 13.561967 10 14.268234 10 15.054688 C 10 16.499412 10.725302 17.646846 11.666016 18.324219 C 12.09816 18.63539 12.567255 18.865956 13.044922 19.058594 C 12.880866 19.183366 12.723238 19.320808 12.582031 19.486328 C 12.228702 19.900493 12 20.480355 12 21.080078 C 12 22.109591 12.519629 22.982046 13.169922 23.484375 C 13.329854 23.607917 13.495549 23.715313 13.662109 23.810547 C 13.28672 24.230248 13 24.779734 13 25.414062 C 13 26.180932 13.426072 26.762792 13.886719 27.181641 L 14.306641 29.001953 C 14.306641 29.001953 15.123888 28.806551 16.058594 28.431641 C 16.973281 28.795775 17.759766 28.996094 17.759766 28.996094 L 18.224609 27.115234 C 18.641994 26.692358 19 26.126096 19 25.416016 C 19 24.779229 18.705572 24.228227 18.324219 23.810547 C 18.324219 23.810547 18.326172 23.808594 18.326172 23.808594 C 18.495711 23.713222 18.663223 23.605228 18.826172 23.480469 C 19.477968 22.981432 20 22.107638 20 21.078125 C 20 20.47596 19.773182 19.894378 19.419922 19.476562 C 19.280498 19.31166 19.124867 19.175333 18.962891 19.050781 C 19.43976 18.854802 19.907046 18.618449 20.337891 18.304688 C 21.276612 17.621064 22 16.47207 22 15.027344 C 22 14.240891 21.665219 13.534623 21.148438 12.978516 C 20.631656 12.422408 19.880319 12 19 12 z M 19 14 C 19.228681 14 19.477625 14.118201 19.683594 14.339844 C 19.889563 14.561486 20 14.870796 20 15.027344 C 20 15.895618 19.723388 16.278749 19.162109 16.6875 C 18.600831 17.096251 17.702998 17.412791 16.732422 17.681641 C 16.496844 17.746896 16.255274 17.811988 16.015625 17.875 C 15.763453 17.809999 15.509352 17.742813 15.261719 17.675781 C 14.290442 17.412869 13.393271 17.103893 12.833984 16.701172 C 12.274698 16.298451 12 15.922961 12 15.054688 C 12 14.898139 12.110437 14.588829 12.316406 14.367188 C 12.522375 14.145544 12.771319 14.027344 13 14.027344 C 13.203 14.027344 13.464735 14.146363 13.677734 14.371094 C 13.890734 14.595825 14 14.905224 14 15.027344 L 14 16 L 16 16 L 18 16 L 18 15 C 18 14.877881 18.109266 14.568481 18.322266 14.34375 C 18.535265 14.119019 18.797 14 19 14 z M 16.021484 19.953125 C 16.534394 20.095473 16.997779 20.237159 17.328125 20.390625 C 17.622969 20.527598 17.808338 20.667944 17.892578 20.767578 C 17.976818 20.867212 18 20.90704 18 21.078125 C 18 21.554112 17.897032 21.673833 17.611328 21.892578 C 17.325624 22.111323 16.799339 22.322257 16.191406 22.519531 C 16.122211 22.541985 16.045501 22.56749 15.974609 22.589844 C 15.921919 22.572971 15.864257 22.554117 15.8125 22.537109 C 15.205678 22.337708 14.679786 22.124202 14.392578 21.902344 C 14.105371 21.680485 14 21.556065 14 21.080078 C 14 20.917801 14.0213 20.881867 14.105469 20.783203 C 14.189639 20.684543 14.375571 20.544106 14.671875 20.40625 C 15.011724 20.248136 15.492345 20.101883 16.021484 19.953125 z M 15.972656 24.703125 C 16.274585 24.810818 16.537099 24.915533 16.703125 25.015625 C 17.000989 25.195198 17 25.173143 17 25.416016 C 17 25.460696 16.96976 25.578113 16.724609 25.794922 C 16.56287 25.937961 16.316935 26.088038 16.050781 26.232422 C 15.744909 26.072799 15.459461 25.905588 15.275391 25.748047 C 15.019154 25.528741 15 25.410056 15 25.414062 C 15 25.154985 15.0054 25.175378 15.300781 24.996094 C 15.456676 24.901471 15.693451 24.803941 15.972656 24.703125 z" font-weight="400" font-family="sans-serif" white-space="normal" overflow="visible" fill="#000000"/></svg>
