<?xml version="1.0" encoding="utf-8"?>
<svg xmlns="http://www.w3.org/2000/svg" viewBox="0 0 32 32" fill="#000000"><path d="M 12.9375 6 L 12.9375 24.75 L 17 26 L 17 10.34375 C 17 9.92975 17.04575 9.64275 17.21875 9.46875 C 17.39175 9.22875 17.5695 9.2095 17.8125 9.3125 C 18.4005 9.4845 18.65625 9.98075 18.65625 10.84375 L 18.65625 17.15625 C 19.97325 17.77925 21.16625 17.8435 22.03125 17.1875 C 22.93325 16.5645 23.40625 15.44025 23.40625 13.78125 C 23.40625 12.05425 23.0765 10.741 22.3125 9.875 C 21.6195 8.943 20.39675 8.1845 18.59375 7.5625 C 16.34475 6.8365 14.4615 6.319 12.9375 6 z M 11.6875 17.34375 L 10.875 17.59375 L 5.84375 19.40625 L 4.96875 19.75 C 3.65175 20.303 2.965 20.88825 3 21.40625 C 3.069 22.16725 3.941 22.709 5.5 23.125 C 7.525 23.67 9.5865 23.78275 11.6875 23.46875 L 11.6875 21.34375 L 10.875 21.65625 L 10 22 L 8.53125 22.28125 L 7.15625 22.09375 C 6.87825 21.91975 6.826 21.7335 7 21.5625 C 7.173 21.4585 7.4095 21.32375 7.6875 21.21875 L 8.625 20.875 L 11.6875 19.8125 L 11.6875 17.34375 z M 23.34375 18.34375 C 22.968297 18.329484 22.58275 18.35725 22.21875 18.375 C 20.87275 18.403 19.4995 18.63975 18.0625 19.09375 L 18.0625 21.59375 L 20.90625 20.59375 L 22.375 20.09375 C 22.375 20.09375 22.93875 19.95075 23.34375 19.84375 C 23.96375 19.67875 24.625 19.90625 24.625 19.90625 C 25.005 19.94025 25.18 20.076 25.25 20.25 C 25.319 20.456 25.0825 20.6385 24.5625 20.8125 L 23.28125 21.3125 L 18.0625 23.1875 L 18.0625 25.625 L 20.5 24.75 L 26.34375 22.6875 L 27.0625 22.375 C 28.4505 21.856 29.069 21.28575 29 20.59375 C 28.965 19.93475 28.1985 19.41775 26.8125 18.96875 C 25.64325 18.57875 24.470109 18.386547 23.34375 18.34375 z" fill="#000000"/></svg>
