<?xml version="1.0" encoding="utf-8"?>
<svg xmlns="http://www.w3.org/2000/svg" viewBox="0 0 32 32" fill="#000000"><path style="text-indent:0;text-align:start;line-height:normal;text-transform:none;block-progression:tb;-inkscape-font-specification:Sans" d="M 16 3 C 13.250421 3 11 5.2504209 11 8 C 11 8.8389932 11.224442 9.6162115 11.59375 10.3125 L 6.75 9.09375 L 6.71875 9.09375 C 6.5281005 9.0466347 6.3190749 9.0109424 6.125 9 C 5.5427753 8.9671728 4.9737999 9.1047605 4.46875 9.40625 C 3.781019 9.8156137 3.2856764 10.509081 3.09375 11.28125 C 2.9003805 12.051753 3.030397 12.850764 3.4375 13.53125 C 3.846253 14.21201 4.5093402 14.714018 5.28125 14.90625 L 11 16.34375 L 11 18.625 L 8.25 24.78125 C 7.5851532 26.285354 8.2789173 28.082462 9.78125 28.75 C 10.164338 28.920594 10.581396 29 11 29 C 12.182747 29 13.267716 28.298647 13.75 27.21875 L 16 22.125 L 18.25 27.21875 C 18.732181 28.299914 19.818098 29 21 29 C 21.418604 29 21.834295 28.92203 22.21875 28.75 C 23.721083 28.082462 24.414847 26.285354 23.75 24.78125 L 21 18.625 L 21 16.34375 L 26.71875 14.90625 C 27.491795 14.714106 28.154298 14.211092 28.5625 13.53125 C 28.970612 12.850074 29.101631 12.052335 28.90625 11.28125 C 28.713283 10.506415 28.218799 9.8146215 27.53125 9.40625 C 26.85774 9.0056659 26.039446 8.9051963 25.28125 9.09375 C 25.27092 9.09632 25.26032 9.09106 25.25 9.09375 L 20.40625 10.3125 C 20.775558 9.6162115 21 8.8389932 21 8 C 21 5.2504209 18.749579 3 16 3 z M 16 5 C 17.668699 5 19 6.3313011 19 8 C 19 9.6686989 17.668699 11 16 11 C 14.331301 11 13 9.6686989 13 8 C 13 6.3313011 14.331301 5 16 5 z M 5.875 11 C 6.0000252 10.98558 6.1178117 10.997054 6.25 11.03125 L 6.375 11.0625 L 5.84375 13 L 5.75 12.96875 C 5.4859098 12.902982 5.297497 12.73524 5.15625 12.5 C 5.015353 12.264486 4.9646195 12.015497 5.03125 11.75 C 5.0973236 11.484169 5.263731 11.265636 5.5 11.125 C 5.617711 11.054733 5.7499748 11.01442 5.875 11 z M 26.15625 11 C 26.275672 11.013975 26.382344 11.05502 26.5 11.125 C 26.738451 11.266629 26.901717 11.480835 26.96875 11.75 C 27.03537 12.012915 26.98564 12.263176 26.84375 12.5 C 26.701952 12.736158 26.514955 12.902894 26.25 12.96875 L 26.15625 13 L 25.625 11.0625 L 25.75 11.03125 L 25.78125 11.03125 C 25.904655 10.99912 26.036828 10.986025 26.15625 11 z M 8.34375 11.5625 L 14 12.96875 L 14.125 13 L 14.25 13 L 16 13 L 17.75 13 L 17.875 13 L 18 12.96875 L 23.65625 11.5625 L 24.21875 13.46875 L 19.75 14.59375 L 19 14.78125 L 19 15.5625 L 19 18.8125 L 19 19.03125 L 19.09375 19.21875 L 21.03125 23.59375 L 19.21875 24.46875 L 17.5 20.59375 L 17.25 20 L 16.59375 20 L 15.40625 20 L 14.75 20 L 14.5 20.59375 L 12.78125 24.46875 L 10.96875 23.59375 L 12.90625 19.21875 L 13 19.03125 L 13 18.8125 L 13 15.5625 L 13 14.78125 L 12.25 14.59375 L 7.78125 13.46875 L 8.34375 11.5625 z M 16 14 C 15.447715 14 15 14.447715 15 15 C 15 15.552285 15.447715 16 16 16 C 16.552285 16 17 15.552285 17 15 C 17 14.447715 16.552285 14 16 14 z M 16 17 C 15.447715 17 15 17.447715 15 18 C 15 18.552285 15.447715 19 16 19 C 16.552285 19 17 18.552285 17 18 C 17 17.447715 16.552285 17 16 17 z M 10.15625 25.4375 L 11.9375 26.3125 L 11.90625 26.40625 C 11.744534 26.768353 11.395253 27 11 27 C 10.856604 27 10.722662 26.96366 10.59375 26.90625 C 10.084083 26.679788 9.8665968 26.107646 10.09375 25.59375 L 10.15625 25.4375 z M 21.84375 25.4375 L 21.90625 25.59375 C 22.133403 26.107646 21.91595 26.679788 21.40625 26.90625 C 21.276705 26.964217 21.143396 27 21 27 C 20.603902 27 20.255569 26.769086 20.09375 26.40625 L 20.0625 26.3125 L 21.84375 25.4375 z" fill="#000000"/></svg>
