<?xml version="1.0" encoding="utf-8"?>
<svg xmlns="http://www.w3.org/2000/svg" viewBox="0 0 32 32" fill="#000000"><path style="text-indent:0;text-align:start;line-height:normal;text-transform:none;block-progression:tb;-inkscape-font-specification:Sans" d="M 16 7 C 14.35503 7 13 8.3550302 13 10 L 15 10 C 15 9.4349698 15.43497 9 16 9 C 16.56503 9 17 9.4349698 17 10 C 17 10.394389 16.788753 10.709017 16.46875 10.875 C 15.478049 11.387775 15 12.44553 15 13.4375 L 15 14.40625 L 0.53125 22.125 L 0 22.40625 L 0 23 L 0 24 L 0 25 L 1 25 L 31 25 L 32 25 L 32 24 L 32 23 L 32 22.40625 L 31.46875 22.125 L 17 14.40625 L 17 13.4375 C 17 13.08347 17.171701 12.761475 17.375 12.65625 C 18.338997 12.156233 19 11.151611 19 10 C 19 8.3550302 17.64497 7 16 7 z M 16 16.125 L 28.875 23 L 3.125 23 L 16 16.125 z" overflow="visible" font-family="Sans" fill="#000000"/></svg>
