<?xml version="1.0" encoding="utf-8"?>
<svg xmlns="http://www.w3.org/2000/svg" viewBox="0 0 32 32" fill="#000000"><path style="text-indent:0;text-align:start;line-height:normal;text-transform:none;block-progression:tb;-inkscape-font-specification:Sans" d="M 23 3.8125 L 21.84375 4 L 9.84375 6 L 9 6.15625 L 9 7 L 9 15 L 9 15.84375 L 9.84375 16 L 21.84375 18 L 23 18.1875 L 23 17 L 23 5 L 23 3.8125 z M 21 6.1875 L 21 10 L 17 10 L 17 6.875 L 21 6.1875 z M 15 7.1875 L 15 10 L 11 10 L 11 7.875 L 15 7.1875 z M 11 12 L 15 12 L 15 14.8125 L 11 14.125 L 11 12 z M 17 12 L 21 12 L 21 15.8125 L 17 15.125 L 17 12 z M 3 21 L 3 22 L 3 28 L 3 29 L 4 29 L 28 29 L 29 29 L 29 28 L 29 22 L 29 21 L 28 21 L 4 21 L 3 21 z M 5 23 L 27 23 L 27 27 L 5 27 L 5 23 z M 8 24 C 7.4477153 24 7 24.447715 7 25 C 7 25.552285 7.4477153 26 8 26 C 8.5522847 26 9 25.552285 9 25 C 9 24.447715 8.5522847 24 8 24 z M 11 24 L 11 26 L 25 26 L 25 24 L 11 24 z" fill="#000000"/></svg>
