<?xml version="1.0" encoding="utf-8"?>
<svg xmlns="http://www.w3.org/2000/svg" viewBox="0 0 32 32" fill="#000000"><path style="text-indent:0;text-align:start;line-height:normal;text-transform:none;block-progression:tb;-inkscape-font-specification:Sans" d="M 18.625 4.03125 C 18.25014 4.0510518 17.846852 4.0686966 17.46875 4.125 C 14.443934 4.5754272 11.332126 6.1678744 8.75 8.75 C 6.1678744 11.332126 4.575427 14.443934 4.125 17.46875 C 3.674573 20.493566 4.4028809 23.465381 6.46875 25.53125 C 8.534619 27.597119 11.506435 28.325427 14.53125 27.875 C 17.556066 27.424572 20.667874 25.832125 23.25 23.25 C 25.832125 20.667874 27.424572 17.556066 27.875 14.53125 C 28.325428 11.506435 27.597119 8.534619 25.53125 6.46875 C 23.723615 4.6611145 21.249021 3.8926373 18.625 4.03125 z M 18.71875 6 C 20.878489 5.8816312 22.768754 6.5187544 24.125 7.875 C 25.674995 9.4249951 26.285011 11.675209 25.90625 14.21875 C 25.527489 16.762292 24.142787 19.544712 21.84375 21.84375 C 19.544712 24.142787 16.762292 25.527489 14.21875 25.90625 C 11.675208 26.285011 9.4249951 25.674995 7.875 24.125 C 6.325005 22.575005 5.7149889 20.324792 6.09375 17.78125 C 6.472511 15.237708 7.8572126 12.455288 10.15625 10.15625 C 12.455288 7.8572126 15.237708 6.4725109 17.78125 6.09375 C 18.099193 6.0464049 18.410216 6.0169098 18.71875 6 z M 17 10 C 16.448 10 16 10.448 16 11 C 16 11.552 17 14 17 14 C 17 14 18 11.552 18 11 C 18 10.448 17.552 10 17 10 z M 21 10 C 20.744125 10 20.47675 10.08575 20.28125 10.28125 C 19.89025 10.67125 19 13 19 13 C 19 13 21.32875 12.10975 21.71875 11.71875 C 22.10975 11.32875 22.10975 10.67125 21.71875 10.28125 C 21.52375 10.08575 21.255875 10 21 10 z M 13 12 C 12.744 12 12.47625 12.08575 12.28125 12.28125 C 11.89025 12.67125 11.89025 13.32775 12.28125 13.71875 C 12.67125 14.10975 15 15 15 15 C 15 15 14.10975 12.67125 13.71875 12.28125 C 13.52375 12.08575 13.256 12 13 12 z M 21 14 C 20.448 14 18 15 18 15 C 18 15 20.448 16 21 16 C 21.552 16 22 15.552 22 15 C 22 14.448 21.552 14 21 14 z M 11 16 C 10.448 16 10 16.448 10 17 C 10 17.552 10.448 18 11 18 C 11.552 18 14 17 14 17 C 14 17 11.552 16 11 16 z M 17 17 C 17 17 17.89025 19.32875 18.28125 19.71875 C 18.67125 20.10975 19.32775 20.10975 19.71875 19.71875 C 20.10975 19.32875 20.10975 18.67125 19.71875 18.28125 C 19.32875 17.89025 17 17 17 17 z M 15 18 C 15 18 14 20.448 14 21 C 14 21.552 14.448 22 15 22 C 15.552 22 16 21.552 16 21 C 16 20.448 15 18 15 18 z M 13 19 C 13 19 10.67125 19.89025 10.28125 20.28125 C 9.89025 20.67125 9.89025 21.32775 10.28125 21.71875 C 10.67125 22.10975 11.32775 22.10975 11.71875 21.71875 C 12.10975 21.32875 13 19 13 19 z" overflow="visible" font-family="Sans" fill="#000000"/></svg>
