<?xml version="1.0" encoding="utf-8"?>
<svg xmlns="http://www.w3.org/2000/svg" viewBox="0 0 32 32" fill="#000000"><path style="text-indent:0;text-align:start;line-height:normal;text-transform:none;block-progression:tb;-inkscape-font-specification:Sans" d="M 28.03125 4.28125 L 26.5 5.125 C 26.5 5.125 26.102027 5.3362357 25.5625 5.5625 C 25.022973 5.7887643 24.344717 6 24 6 L 14 6 C 10.185655 6 7.9990734 8.0762707 7 10.0625 C 6.0009266 12.048729 6 14 6 14 L 6 15.84375 L 7.53125 14.84375 C 7.53125 14.84375 8.2495056 14.468363 9 14.21875 L 9 21 L 11 21 L 11 14 L 12 14 L 12 21 L 14 21 L 14 14 L 15 14 L 15 21 L 17 21 L 17 14 L 18 14 L 18 21 L 20 21 L 20 14 L 20.3125 14 C 23.978989 14 26.074282 11.917921 27.03125 9.9375 C 27.988218 7.957079 28 6 28 6 L 28.03125 4.28125 z M 25.71875 7.59375 C 25.605592 8.0673955 25.507967 8.5286439 25.25 9.0625 C 24.515718 10.582079 23.275011 12 20.3125 12 L 10 12 C 9.3523574 12 8.8455816 12.228436 8.3125 12.40625 C 8.428712 11.936905 8.5149114 11.467 8.78125 10.9375 C 9.5426766 9.4237293 10.856345 8 14 8 L 24 8 C 24.649404 8 25.183302 7.7887036 25.71875 7.59375 z M 21 14 L 21 21 L 23 21 L 23 14 L 21 14 z M 24 14 L 24 21 L 26 21 L 26 14 L 24 14 z M 4 22 L 4 24 L 26 24 L 26 25 L 4 25 L 4 27 L 27 27 L 28 27 L 28 26 L 28 23 L 28 22 L 27 22 L 4 22 z" fill="#000000"/></svg>
