<?xml version="1.0" encoding="utf-8"?>
<svg xmlns="http://www.w3.org/2000/svg" viewBox="0 0 32 32" fill="#000000"><path style="line-height:normal;text-indent:0;text-align:start;text-decoration-line:none;text-decoration-style:solid;text-decoration-color:#000;text-transform:none;block-progression:tb;isolation:auto;mix-blend-mode:normal" d="M 6 3 L 6 9 L 8 9 L 8 23 L 6 23 L 6 29 L 9 29 L 9 28 L 11.302734 28 L 14.302734 26 L 19.697266 26 L 22 27.535156 L 22 29 L 24 29 L 24 27.535156 L 27 25.535156 L 27 25 L 27 17 L 28 17 L 28 15 L 27 15 L 27 6.4648438 L 24 4.4648438 L 24 3 L 22 3 L 22 4.4648438 L 19.697266 6 L 14.302734 6 L 11.302734 4 L 9 4 L 9 3 L 6 3 z M 10 6 L 10.697266 6 L 13 7.5351562 L 13 24.464844 L 10.697266 26 L 10 26 L 10 6 z M 23 6.2011719 L 25 7.5351562 L 25 24.464844 L 23 25.798828 L 21 24.464844 L 21 7.5351562 L 23 6.2011719 z M 15 8 L 19 8 L 19 24 L 15 24 L 15 8 z" fill="#000000"/></svg>
