<?xml version="1.0" encoding="utf-8"?>
<svg xmlns="http://www.w3.org/2000/svg" viewBox="0 0 32 32" fill="#000000"><path style="text-indent:0;text-align:start;line-height:normal;text-transform:none;block-progression:tb;-inkscape-font-specification:Sans" d="M 5 3 L 5 4 L 5 28 L 5 29 L 6 29 L 17.78125 29 C 19.2495 30.828363 21.481724 32 24 32 C 28.406433 32 32 28.406433 32 24 C 32 19.935134 28.933201 16.561017 25 16.0625 L 25 13.4375 L 26.71875 11.71875 L 27 11.40625 L 27 11 L 27 4 L 27 3 L 26 3 L 23 3 L 22 3 L 6 3 L 5 3 z M 7 5 L 21 5 L 21 11 L 21 11.40625 L 21.28125 11.71875 L 23 13.4375 L 23 16.0625 C 19.066799 16.561017 16 19.935134 16 24 C 16 25.065848 16.212597 26.068624 16.59375 27 L 7 27 L 7 5 z M 23 5 L 25 5 L 25 10.5625 L 24 11.5625 L 23 10.5625 L 23 5 z M 24 18 C 27.325553 18 30 20.674447 30 24 C 30 27.325553 27.325553 30 24 30 C 20.674447 30 18 27.325553 18 24 C 18 20.674447 20.674447 18 24 18 z M 23 20 L 23 23 L 20 23 L 20 25 L 23 25 L 23 28 L 25 28 L 25 25 L 28 25 L 28 23 L 25 23 L 25 20 L 23 20 z" overflow="visible" font-family="Sans" fill="#000000"/></svg>
