<?xml version="1.0" encoding="utf-8"?>
<svg xmlns="http://www.w3.org/2000/svg" viewBox="0 0 32 32" fill="#000000"><path d="M 20.53125 2.5625 L 19.84375 3.5 L 14.9375 10.1875 C 12.306897 9.7319347 9.5276177 10.472382 7.5 12.5 L 6.78125 13.1875 L 7.5 13.90625 L 12.09375 18.5 L 4 26.59375 L 4 28 L 5.40625 28 L 13.5 19.90625 L 18.09375 24.5 L 18.8125 25.21875 L 19.5 24.5 C 21.527618 22.472382 22.268065 19.693103 21.8125 17.0625 L 28.5 12.15625 L 29.4375 11.46875 L 28.625 10.65625 L 21.34375 3.375 L 20.53125 2.5625 z M 20.78125 5.625 L 26.375 11.21875 L 20.15625 15.78125 L 19.59375 16.1875 L 19.78125 16.84375 C 20.263326 18.677254 19.73729 20.586311 18.59375 22.1875 L 9.8125 13.40625 C 11.413689 12.262708 13.322746 11.736674 15.15625 12.21875 L 15.8125 12.40625 L 16.21875 11.84375 L 20.78125 5.625 z" fill="#000000"/></svg>
