<?xml version="1.0" encoding="utf-8"?>
<svg xmlns="http://www.w3.org/2000/svg" viewBox="-8 10 32 32" fill="#000000"><path d="M 9.96875 2.90625 L 9.15625 4.15625 C 8.90525 4.54325 3 13.716 3 22 C 3 25.644 4.964 27.998 8 28 L 8 26 C 7.666 26 6 25.903 6 24 C 6 22.664 8.72925 18.11575 11.03125 14.71875 C 11.99225 16.13475 12.999 17.9555 13 18.9375 C 12.999 18.9485 12.93 20 11 20 L 11 22 L 12 22 C 16.132 22 17 19.281 17 17 C 17 12.954 11.4455 4.98675 10.8125 4.09375 L 9.96875 2.90625 z M 10.0625 6.53125 C 11.9655 9.40725 15 14.538 15 17 C 15 17.422 14.97725 17.799 14.90625 18.125 C 14.38525 15.757 12.07225 12.748 11.78125 12.375 L 10.96875 11.3125 L 10.1875 12.4375 C 9.4505 13.4845 6.59325 17.55425 5.03125 20.78125 C 5.44225 15.15425 8.5765 9.12625 10.0625 6.53125 z M 28 16 L 14.875 23.375 C 13.889 22.823 12.42875 22.87825 11.09375 23.65625 C 10.06675 24.25625 9.32675 25.193 9.09375 26.125 C 8.93575 26.758 8.9985 27.366 9.3125 27.875 C 9.7645 28.607 10.62075 29 11.59375 29 C 12.33175 29 13.13925 28.79075 13.90625 28.34375 C 14.93325 27.74475 15.67225 26.806 15.90625 25.875 C 15.97825 25.586 15.99675 25.30625 15.96875 25.03125 L 29 17.75 L 28 16 z M 13.40625 25 C 13.71025 25 13.91475 25.06925 13.96875 25.15625 C 14.00875 25.21925 13.98175 25.35725 13.96875 25.40625 C 13.89175 25.71625 13.57925 26.20275 12.90625 26.59375 C 11.94025 27.15675 11.14425 27.02875 11.03125 26.84375 C 10.99225 26.78075 11.01825 26.64175 11.03125 26.59375 C 11.10925 26.28375 11.42075 25.79725 12.09375 25.40625 C 12.60375 25.10925 13.06525 25 13.40625 25 z" transform="translate(-8 10)" fill="#000000"/></svg>
