<?xml version="1.0" encoding="utf-8"?>
<svg xmlns="http://www.w3.org/2000/svg" viewBox="0 0 32 32" fill="#000000"><path style="text-indent:0;text-align:start;line-height:normal;text-transform:none;block-progression:tb;-inkscape-font-specification:Bitstream Vera Sans" d="M 2 5 L 2 6 L 2 22 L 2 23 L 3 23 L 15 23 L 15 25 L 10 25 L 10 27 L 22 27 L 22 25 L 17 25 L 17 23 L 29 23 L 30 23 L 30 22 L 30 6 L 30 5 L 29 5 L 3 5 L 2 5 z M 4 7 L 28 7 L 28 21 L 4 21 L 4 7 z M 9 9 L 9 10 L 9 18 L 9 19 L 10 19 L 22 19 L 23 19 L 23 18 L 23 10 L 23 9 L 22 9 L 10 9 L 9 9 z M 11 11 L 21 11 L 21 17 L 11 17 L 11 11 z" overflow="visible" font-family="Bitstream Vera Sans" fill="#000000"/></svg>
