<?xml version="1.0" encoding="utf-8"?>
<svg xmlns="http://www.w3.org/2000/svg" viewBox="0 0 32 32" fill="#000000"><path style="text-indent:0;text-align:start;line-height:normal;text-transform:none;block-progression:tb;-inkscape-font-specification:Bitstream Vera Sans" d="M 4 5 L 4 6 L 4 26 L 4 27 L 5 27 L 11 27 L 12 27 L 12 26 L 12 6 L 12 5 L 11 5 L 5 5 L 4 5 z M 13 5 L 13 27 L 15 27 L 15 5 L 13 5 z M 16 5 L 16 27 L 18 27 L 18 5 L 16 5 z M 19 5 L 19 27 L 21 27 L 21 5 L 19 5 z M 22 5 L 22 7 L 26 7 L 26 25 L 22 25 L 22 27 L 27 27 L 28 27 L 28 26 L 28 6 L 28 5 L 27 5 L 22 5 z M 6 7 L 10 7 L 10 8 L 7 8 L 7 10 L 10 10 L 10 11 L 7 11 L 7 13 L 10 13 L 10 16 L 7 16 L 7 18 L 10 18 L 10 19 L 7 19 L 7 21 L 10 21 L 10 22 L 7 22 L 7 24 L 10 24 L 10 25 L 6 25 L 6 7 z M 24 9 C 23.447715 9 23 9.4477153 23 10 C 23 10.552285 23.447715 11 24 11 C 24.552285 11 25 10.552285 25 10 C 25 9.4477153 24.552285 9 24 9 z M 24 13 C 23.447715 13 23 13.447715 23 14 C 23 14.552285 23.447715 15 24 15 C 24.552285 15 25 14.552285 25 14 C 25 13.447715 24.552285 13 24 13 z M 24 17 C 23.447715 17 23 17.447715 23 18 C 23 18.552285 23.447715 19 24 19 C 24.552285 19 25 18.552285 25 18 C 25 17.447715 24.552285 17 24 17 z M 24 21 C 23.447715 21 23 21.447715 23 22 C 23 22.552285 23.447715 23 24 23 C 24.552285 23 25 22.552285 25 22 C 25 21.447715 24.552285 21 24 21 z" fill="#000000"/></svg>
