<?xml version="1.0" encoding="utf-8"?>
<svg xmlns="http://www.w3.org/2000/svg" viewBox="0 0 32 32" fill="#000000"><path style="text-indent:0;text-align:start;line-height:normal;text-transform:none;block-progression:tb;-inkscape-font-specification:Bitstream Vera Sans" d="M 7 4 L 7 6 L 10.5625 6 L 4.28125 12.28125 L 5.71875 13.71875 L 12 7.4375 L 12 11 L 14 11 L 14 5 L 14 4 L 13 4 L 7 4 z M 26 4 L 26 28 L 28 28 L 28 4 L 26 4 z M 22 8 L 22 28 L 24 28 L 24 8 L 22 8 z M 18 12 L 18 28 L 20 28 L 20 12 L 18 12 z M 14 16 L 14 28 L 16 28 L 16 16 L 14 16 z M 10 20 L 10 28 L 12 28 L 12 20 L 10 20 z M 6 24 L 6 28 L 8 28 L 8 24 L 6 24 z" fill="#000000"/></svg>
