<?xml version="1.0" encoding="utf-8"?>
<svg xmlns="http://www.w3.org/2000/svg" viewBox="0 0 32 32" fill="#000000"><path style="text-indent:0;text-align:start;line-height:normal;text-transform:none;block-progression:tb;-inkscape-font-specification:Bitstream Vera Sans" d="M 9.34375 4.96875 C 8.3523195 4.9640528 7.3094727 5.0576953 6.25 5.28125 L 5.0625 5.53125 L 5.5625 6.65625 C 5.9616794 7.5816634 6.5766197 8.3811415 7.1875 9.03125 C 4.9393781 9.1230122 3.6875 9.46875 3.6875 9.46875 L 2.25 9.90625 L 3.25 11.0625 C 6.0915368 14.350609 9.3321918 16.226428 12.1875 16.8125 C 13.261344 17.033361 14.337244 16.966743 15.28125 16.78125 C 15.197136 18.291709 15.828849 19.525728 16 19.84375 L 16 25.59375 L 16 26.3125 L 16.65625 26.53125 C 16.65625 26.53125 17.914484 26.96875 19.34375 26.96875 C 21.465293 26.96875 22.75 25.3125 22.75 25.3125 L 23.125 24.875 L 22.9375 24.34375 L 21.125 19.3125 C 21.906723 18.722469 23.5 17.320379 23.5 14.5 C 23.5 13.568594 23.299312 13.165565 23.15625 12.75 C 23.691746 12.277184 24.686652 11.268704 24.9375 9.40625 C 25.617616 9.2524681 27.076587 9 29 9 L 29 7 C 26.499593 7 24.874866 7.3732385 24.375 7.5 C 24.245509 7.4277201 24.242749 7.4125748 24.0625 7.34375 C 23.586204 7.1618858 22.897751 7 22 7 C 20.775065 7 19.835431 7.6260336 19.3125 8.28125 C 19.273315 8.3303478 19.254794 8.388177 19.21875 8.4375 C 16.914461 6.8654591 13.892797 5.2773295 10.3125 5 C 9.9926109 4.9752214 9.6742268 4.9703157 9.34375 4.96875 z M 9.875 7.09375 C 13.180368 7.2454741 15.985487 8.6544477 18.21875 10.1875 C 18.160051 10.265416 18.09908 10.330833 18.03125 10.40625 C 17.98137 10.46171 17.925345 10.507232 17.875 10.5625 C 15.168316 9.8615036 12.750083 9.3398937 10.34375 9.125 A 1.0001 1.0001 0 0 0 10.3125 9.09375 A 1.0001 1.0001 0 0 0 10.25 9.0625 C 10.25 9.0625 9.2245563 8.1650842 8.34375 7.125 C 8.8598017 7.0885273 9.3795413 7.0710073 9.875 7.09375 z M 22 9 C 22.405641 9 22.692649 9.0356004 22.9375 9.09375 C 22.696133 10.789714 21.5 11.59375 21.5 11.59375 L 20.84375 12.0625 L 21.15625 12.78125 C 21.15625 12.78125 21.5 13.71351 21.5 14.5 C 21.5 16.957474 19.5 18.125 19.5 18.125 L 19 18.4375 L 19 19 L 19 19.09375 L 19 19.28125 L 19.0625 19.4375 L 20.84375 24.375 C 20.494965 24.659351 19.98862 24.96875 19.34375 24.96875 C 18.672056 24.96875 18.368584 24.849408 18 24.75 L 18 19.6875 L 18 19.46875 L 17.875 19.25 C 17.875 19.25 17.104877 17.322371 17.5 16.09375 C 18.019361 15.873196 18.34375 15.6875 18.34375 15.6875 L 17.40625 13.90625 C 17.40625 13.90625 14.564052 15.255417 12.5625 14.84375 C 10.712278 14.463979 8.516024 13.141843 6.375 11.1875 C 7.0061674 11.100163 6.9034392 11 8.1875 11 C 11.241671 11 14.188719 11.664179 17.96875 12.65625 L 18.75 12.875 L 19.09375 12.21875 C 19.078916 12.241428 19.08767 12.230615 19.125 12.15625 C 19.141458 12.13269 19.164823 12.119597 19.1875 12.09375 C 19.26849 12.00144 19.37131 11.893085 19.5 11.75 C 19.757381 11.463831 20.058309 11.143201 20.28125 10.65625 C 20.466842 10.251133 20.619181 9.8517836 20.875 9.53125 C 21.130819 9.2107164 21.371935 9 22 9 z" overflow="visible" font-family="Bitstream Vera Sans" fill="#000000"/></svg>
