<?xml version="1.0" encoding="utf-8"?>
<svg xmlns="http://www.w3.org/2000/svg" viewBox="0 0 32 32" fill="#000000"><path d="M 16 3 L 3 7 L 6.1054688 7.9550781 L 9 8.8457031 L 9 11.205078 C 8.350616 11.447132 7.7679652 11.887896 7.2890625 12.455078 C 6.5750479 13.300713 6.0029685 14.421065 5.5234375 15.763672 C 4.5643755 18.448887 4 22.037475 4 26 L 4 27 L 12.898438 27 C 13.805732 27.617797 14.846006 28 16 28 C 17.155585 28 18.19714 27.618456 19.105469 27 L 28 27 L 28 26 C 28 22.037475 27.435626 18.448887 26.476562 15.763672 C 25.997031 14.421065 25.424952 13.300713 24.710938 12.455078 C 24.232035 11.887896 23.649384 11.447132 23 11.205078 L 23 8.8457031 L 29 7 L 16 3 z M 16 5.0917969 L 22.201172 7 L 16 8.9082031 L 9.7988281 7 L 16 5.0917969 z M 11 9.4628906 L 16 11 L 16.294922 10.910156 L 21 9.4628906 L 21 11.779297 C 20.989293 11.79789 20.998356 11.798856 20.955078 11.833984 C 20.795401 11.96359 20.472151 12.158107 20.025391 12.335938 C 19.131869 12.691597 17.745023 13 16 13 C 14.254977 13 12.868129 12.691596 11.974609 12.335938 C 11.527849 12.158107 11.204599 11.96359 11.044922 11.833984 C 11.001643 11.798856 11.010707 11.79789 11 11.779297 L 11 9.4628906 z M 9.5039062 13.144531 C 9.5935534 13.23102 9.6893615 13.31055 9.7832031 13.386719 C 10.166963 13.698207 10.646385 13.959314 11.234375 14.193359 C 11.323199 14.228715 11.431615 14.257228 11.525391 14.291016 C 10.831374 14.592094 10.182707 14.969981 9.65625 15.507812 C 9.0435762 16.133724 8.625 17.013862 8.625 18 C 8.625 20.176211 9.3175848 22.564686 10.552734 24.503906 C 10.661102 24.674047 10.780338 24.836539 10.898438 25 L 6.0722656 25 C 6.1650741 21.652435 6.6357725 18.594709 7.40625 16.4375 C 7.831594 15.246607 8.3360302 14.317334 8.8183594 13.746094 C 9.073035 13.444472 9.2992976 13.257742 9.5039062 13.144531 z M 22.496094 13.144531 C 22.700702 13.257742 22.926965 13.444472 23.181641 13.746094 C 23.66397 14.317334 24.168406 15.246607 24.59375 16.4375 C 25.364227 18.594709 25.834926 21.652435 25.927734 25 L 21.105469 25 C 21.221534 24.839282 21.338652 24.67894 21.445312 24.511719 C 22.68094 22.574503 23.375 20.185082 23.375 18 L 21.375 18 C 21.375 19.743918 20.767888 21.855013 19.759766 23.435547 C 18.751643 25.016081 17.43973 26 16 26 C 14.562036 26 13.248834 25.011265 12.240234 23.427734 C 11.231634 21.844204 10.625 19.732789 10.625 18 C 10.625 17.524638 10.767204 17.231869 11.085938 16.90625 C 11.40467 16.580631 11.931398 16.266369 12.59375 16.007812 C 13.918454 15.4907 15.721378 15.207314 17.205078 14.951172 L 17.205078 14.949219 C 18.636124 14.843163 19.840183 14.561725 20.765625 14.193359 C 21.353615 13.959314 21.833037 13.698207 22.216797 13.386719 C 22.310638 13.31055 22.406447 13.23102 22.496094 13.144531 z M 13 18 A 1 1 0 0 0 12 19 A 1 1 0 0 0 13 20 A 1 1 0 0 0 14 19 A 1 1 0 0 0 13 18 z M 19 18 A 1 1 0 0 0 18 19 A 1 1 0 0 0 19 20 A 1 1 0 0 0 20 19 A 1 1 0 0 0 19 18 z" fill="#000000"/></svg>
