<?xml version="1.0" encoding="utf-8"?>
<svg xmlns="http://www.w3.org/2000/svg" viewBox="0 0 32 32" fill="#000000"><path style="text-indent:0;text-align:start;line-height:normal;text-transform:none;block-progression:tb;-inkscape-font-specification:Sans" d="M 3 5 L 3 6 L 3 22 L 3 23 L 4 23 L 8 23 L 8 26 L 8 28.09375 L 9.625 26.78125 L 14.34375 23 L 28 23 L 29 23 L 29 22 L 29 6 L 29 5 L 28 5 L 4 5 L 3 5 z M 5 7 L 27 7 L 27 21 L 14 21 L 13.65625 21 L 13.375 21.21875 L 10 23.90625 L 10 22 L 10 21 L 9 21 L 5 21 L 5 7 z M 16 9 C 14.35499 9 13 10.35499 13 12 C 13 12.956767 13.449052 13.82398 14.15625 14.375 C 12.315817 15.114768 11 16.903494 11 19 L 13 19 C 13 17.331516 14.331516 16 16 16 C 17.668484 16 19 17.331516 19 19 L 21 19 C 21 16.903494 19.684183 15.114768 17.84375 14.375 C 18.550948 13.82398 19 12.956767 19 12 C 19 10.35499 17.64501 9 16 9 z M 16 11 C 16.564128 11 17 11.435872 17 12 C 17 12.564128 16.564128 13 16 13 C 15.435872 13 15 12.564128 15 12 C 15 11.435872 15.435872 11 16 11 z" overflow="visible" font-family="Sans" fill="#000000"/></svg>
