<?xml version="1.0" encoding="utf-8"?>
<svg xmlns="http://www.w3.org/2000/svg" viewBox="0 0 32 32" fill="#000000"><path style="text-indent:0;text-align:start;line-height:normal;text-transform:none;block-progression:tb;-inkscape-font-specification:Sans" d="M 3 5 L 3 6 L 3 22 L 3 23 L 4 23 L 8 23 L 8 26 L 8 28.09375 L 9.625 26.78125 L 14.34375 23 L 28 23 L 29 23 L 29 22 L 29 6 L 29 5 L 28 5 L 4 5 L 3 5 z M 5 7 L 27 7 L 27 21 L 14 21 L 13.65625 21 L 13.375 21.21875 L 10 23.90625 L 10 22 L 10 21 L 9 21 L 5 21 L 5 7 z M 14 9 L 14 19 L 18 19 L 18 9 L 14 9 z M 19 11 L 19 19 L 23 19 L 23 11 L 19 11 z M 9 13 L 9 19 L 13 19 L 13 13 L 9 13 z" overflow="visible" font-family="Sans" fill="#000000"/></svg>
