<?xml version="1.0" encoding="utf-8"?>
<svg xmlns="http://www.w3.org/2000/svg" viewBox="0 0 32 32" fill="#000000"><path style="text-indent:0;text-align:start;line-height:normal;text-transform:none;block-progression:tb;-inkscape-font-specification:Sans" d="M 7.03125 4 L 7.03125 7 L 6.0625 7 C 4.955864 7 4.03125 7.893364 4.03125 9 L 4 9.9375 L 4 9.96875 C 4 11.075386 4.924614 12 6.03125 12 L 7 12 L 7.03125 28 L 9.03125 28 L 9 12 L 10 12 C 11.0962 12 11.982907 11.092619 12 10 C 12.000163 9.989598 12 9.979186 12 9.96875 L 12.03125 9.03125 L 12.03125 9 C 12.03125 7.893364 11.106636 7 10 7 L 9.03125 7 L 9.03125 4 L 7.03125 4 z M 15.03125 4 L 15.03125 19 L 14.0625 19 C 12.955864 19 12.03125 19.893364 12.03125 21 L 12 21.9375 L 12 21.96875 C 12 23.075386 12.924614 24 14.03125 24 L 15 24 L 15.03125 28 L 17.03125 27.96875 L 17 24 L 18 24 C 19.0962 24 19.982907 23.092619 20 22 C 20.000163 21.9896 20 21.97919 20 21.96875 L 20.03125 21.03125 L 20.03125 21 C 20.03125 19.893364 19.106636 19 18 19 L 17.03125 19 L 17.03125 4 L 15.03125 4 z M 23.03125 4 L 23.03125 11 L 22.0625 11 C 20.955864 11 20.03125 11.893364 20.03125 13 L 20 13.9375 L 20 13.96875 C 20 15.075386 20.924614 16 22.03125 16 L 23 16 L 23.03125 28 L 25.03125 28 L 25 16 L 26 16 C 27.0962 16 27.982907 15.092619 28 14 C 28.000163 13.9896 28 13.97919 28 13.96875 L 28.03125 13.03125 L 28.03125 13 C 28.03125 11.893364 27.106636 11 26 11 L 25.03125 11 L 25.03125 4 L 23.03125 4 z M 6.03125 9 C 6.03125 8.974636 6.03714 9 6.0625 9 L 7.03125 9 L 9.03125 9 L 10 9 C 10.02536 9 10.03125 8.974636 10.03125 9 L 10 9.9375 L 10 9.96875 C 10 9.994114 10.025364 10 10 10 L 6.03125 10 C 6.018568 10 6.0030795 10.00308 6 10 L 6 9.96875 L 6.03125 9.03125 L 6.03125 9 z M 22.03125 13 C 22.03125 12.97464 22.03715 13 22.0625 13 L 26 13 C 26.02536 13 26.03125 12.97464 26.03125 13 L 26 13.9375 L 26 13.96875 C 26 13.994114 26.025364 14 26 14 L 22.03125 14 C 22.018568 14 22.00308 14.00308 22 14 L 22 13.96875 L 22.03125 13.03125 L 22.03125 13 z M 14.03125 21 C 14.03125 20.97464 14.03715 21 14.0625 21 L 18 21 C 18.02536 21 18.03125 20.97464 18.03125 21 L 18 21.9375 L 18 21.96875 C 18 21.994114 18.025364 22 18 22 L 14.03125 22 C 14.018568 22 14.00308 22.00308 14 22 L 14 21.96875 L 14.03125 21.03125 L 14.03125 21 z" fill="#000000"/></svg>
