<?xml version="1.0" encoding="utf-8"?>
<svg xmlns="http://www.w3.org/2000/svg" viewBox="0 0 32 32" fill="#000000"><path d="M 10.40625 5 C 8.4412352 5 6.53125 6.125 6.53125 6.125 L 6 6.40625 L 6 7 L 6 7.125 L 6 7.84375 L 6.6875 8.09375 C 6.6875 8.09375 8.2328214 8.8062838 9.40625 9.71875 C 4.94607 13.528944 4.9338268 19.228437 5 20.53125 C 4.6419315 20.714444 4.3599775 20.752676 3.78125 21.34375 C 2.8839335 22.260209 2 23.805736 2 26 L 2 27 L 3 27 C 4.1660025 27 5.5226575 26.864309 6.71875 26.3125 C 7.1540863 26.111661 7.5162227 25.727845 7.875 25.375 C 7.905527 25.39071 7.905301 25.42208 7.9375 25.4375 C 8.5763969 25.743398 9.5403531 26 11 26 L 12 26 L 12 25 C 12 22.954665 11.11992 21.623876 10.09375 20.71875 C 10.431384 18.497704 11.871056 17.131601 13.4375 16.25 C 14.33969 15.742244 14.596203 15.74642 15.21875 15.5625 C 15.155234 16.088565 15 16.272941 15 17 L 15 18 L 16 18 C 17.298625 18 18.285526 17.211483 19.09375 16.46875 C 19.696965 15.914414 20.041126 15.44659 20.34375 15.0625 C 20.172412 16.024832 20 16.96875 20 16.96875 C 21.667275 17.138275 22.87815 16.265558 23.53125 14.9375 C 24.907386 14.902754 26.128865 14.86477 27 14.75 C 27.786981 14.646317 28.394815 14.53602 28.9375 14.25 C 29.480185 13.96398 30 13.294489 30 12.625 C 30 12.251832 29.919364 12.107525 29.8125 11.875 C 29.705636 11.642475 29.552989 11.412333 29.34375 11.15625 C 29.022398 10.762956 28.432256 10.40882 27.8125 10.09375 C 27.527153 9.1652859 26.980402 8.0663625 25.875 7.0625 C 24.615779 5.9189482 22.696435 5 20.125 5 C 18.309616 5 16.879978 5.3374019 15.90625 5.6875 C 15.301627 5.9048886 15.1969 6.0080029 14.9375 6.15625 C 14.698059 6.0014241 14.637584 5.9192264 14.15625 5.71875 C 13.291481 5.3585721 12.035603 5 10.40625 5 z M 10.40625 7 C 11.752897 7 12.756019 7.2916779 13.40625 7.5625 C 14.056481 7.8333221 14.28125 8.03125 14.28125 8.03125 L 14.875 8.5 L 15.5 8.09375 C 15.5 8.09375 15.812478 7.8434019 16.59375 7.5625 C 17.375022 7.2815981 18.558384 7 20.125 7 C 22.240565 7 23.610471 7.6950518 24.53125 8.53125 C 25.452029 9.3674482 25.912714 10.412952 26.03125 10.9375 L 26.15625 11.46875 L 26.65625 11.65625 C 27.236026 11.860245 27.577728 12.157165 27.78125 12.40625 C 27.8113 12.44303 27.81999 12.46592 27.84375 12.5 C 27.64074 12.58146 27.327243 12.7052 26.75 12.78125 C 25.401712 12.958884 23.148103 13 19.96875 13 L 19.46875 13 L 19.15625 13.40625 C 18.941336 13.689566 18.407276 14.395983 17.75 15 C 17.562929 15.171913 17.442028 15.146629 17.25 15.28125 C 17.32902 14.854208 17.34197 14.094424 17.4375 13.84375 C 17.542494 13.568247 17.664303 13.378632 17.78125 13.09375 C 17.898197 12.808868 18 12.420935 18 12 L 16 12 C 16 12.102565 15.9768 12.140632 15.90625 12.3125 C 15.8357 12.484368 15.707506 12.775753 15.5625 13.15625 C 15.5556 13.17442 15.5694 13.23138 15.5625 13.25 C 14.846898 13.431394 13.792764 13.75484 12.46875 14.5 C 10.479662 15.619467 8.2763629 17.641749 8 20.90625 L 7.96875 21.5 L 8.4375 21.84375 C 9.0644462 22.260547 9.5014863 22.896592 9.75 23.8125 C 9.4718345 23.74843 8.9430202 23.718742 8.8125 23.65625 C 8.7902902 23.645616 8.7999248 23.63488 8.78125 23.625 C 8.8293473 23.400961 9 23.245237 9 23 L 7 23 C 7 23.783527 6.6449075 24.113559 5.875 24.46875 C 5.4311575 24.673514 4.8057227 24.698544 4.21875 24.78125 C 4.4365236 23.884442 4.796706 23.181048 5.21875 22.75 C 5.8214335 22.134459 6.34375 21.9375 6.34375 21.9375 L 7.0625 21.65625 L 7 20.90625 C 7 20.90625 6.4201008 13.898432 11.5625 10.5 L 12.46875 9.90625 L 11.78125 9.03125 C 11.122597 8.2239009 10.255149 7.7361752 9.46875 7.28125 C 9.8864446 7.1587174 10.057222 7 10.40625 7 z M 23.5 11 C 23.223858 11 23 11.223858 23 11.5 C 23 11.776142 23.223858 12 23.5 12 C 23.776142 12 24 11.776142 24 11.5 C 24 11.223858 23.776142 11 23.5 11 z" fill="#000000"/></svg>
