<?xml version="1.0" encoding="utf-8"?>
<svg xmlns="http://www.w3.org/2000/svg" viewBox="0 0 32 32" fill="#000000"><path style="text-indent:0;text-align:start;line-height:normal;text-transform:none;block-progression:tb;-inkscape-font-specification:Bitstream Vera Sans" d="M 6 4 L 6 5 L 6 27 L 6 28 L 7 28 L 25 28 L 26 28 L 26 27 L 26 5 L 26 4 L 25 4 L 7 4 L 6 4 z M 8 6 L 24 6 L 24 26 L 8 26 L 8 6 z M 10 9 L 10 11 L 22 11 L 22 9 L 10 9 z M 10 13 L 10 15 L 22 15 L 22 13 L 10 13 z M 13.5 16 C 12.63404 16 11.864657 16.590088 11.5 17.3125 C 11.135343 18.034912 11 18.891655 11 19.875 C 11 20.424787 11.195843 21.067098 11.3125 21.6875 C 10.863512 21.828516 10.466539 22.125 10.03125 22.125 L 10.03125 24.125 C 10.704249 24.125 11.385942 24.019234 12.03125 23.8125 C 12.134375 23.966144 12.178866 24.142918 12.3125 24.28125 C 12.702939 24.685415 13.319745 25 13.96875 25 C 15.555713 25 16.611597 23.947838 17.28125 23.125 C 17.41648 22.958836 17.481079 22.866343 17.59375 22.71875 C 17.61938 22.839508 17.60025 22.921432 17.65625 23.0625 C 17.73539 23.261714 17.850088 23.490128 18.09375 23.6875 C 18.337412 23.884872 18.700056 24 19 24 C 19.647022 24 19.981147 23.649697 20.21875 23.40625 C 20.456353 23.162803 20.653785 22.926697 20.84375 22.71875 C 21.22368 22.302856 21.494988 22.0625 21.9375 22.0625 L 21.9375 20.0625 C 20.718012 20.0625 19.87982 20.791144 19.375 21.34375 C 19.355134 21.223137 19.35995 21.144406 19.3125 21 C 19.250051 20.809945 19.136288 20.561184 18.90625 20.34375 C 18.676212 20.126316 18.312544 20 18 20 C 17.220176 20 16.857671 20.468545 16.5625 20.8125 C 16.267329 21.156455 15.994298 21.536419 15.71875 21.875 C 15.167653 22.552162 14.688787 23 13.96875 23 C 13.91742 23 13.861755 22.94837 13.8125 22.90625 C 13.87022 22.86586 13.943654 22.85472 14 22.8125 C 15.134632 21.96231 16 20.670522 16 19.125 C 16 18.357851 15.848741 17.637667 15.4375 17.03125 C 15.026259 16.424833 14.28061 16 13.5 16 z M 13.40625 18 C 13.428015 17.979323 13.43698 18 13.5 18 C 13.71139 18 13.690491 18.02242 13.78125 18.15625 C 13.872009 18.290083 14 18.625149 14 19.125 C 14 19.760326 13.657485 20.310959 13.15625 20.8125 C 13.114693 20.480083 13 20.162081 13 19.875 C 13 19.082345 13.143907 18.490838 13.28125 18.21875 C 13.349922 18.082706 13.384485 18.020677 13.40625 18 z" overflow="visible" font-family="Bitstream Vera Sans" fill="#000000"/></svg>
