<?xml version="1.0" encoding="utf-8"?>
<svg xmlns="http://www.w3.org/2000/svg" viewBox="0 0 32 32" fill="#000000"><path style="text-indent:0;text-align:start;line-height:normal;text-transform:none;block-progression:tb;-inkscape-font-specification:Bitstream Vera Sans" d="M 19.1875 3.5 L 17.0625 5.625 L 18.46875 7.03125 L 20.59375 4.90625 L 19.1875 3.5 z M 15.4375 6.03125 A 1.0001 1.0001 0 0 0 14.9375 7.75 L 22 14.8125 A 1.0054782 1.0054782 0 1 0 23.4375 13.40625 L 16.34375 6.34375 A 1.0001 1.0001 0 0 0 15.53125 6.03125 A 1.0001 1.0001 0 0 0 15.4375 6.03125 z M 22 6.34375 L 19.875 8.46875 L 21.3125 9.875 L 23.4375 7.75 L 22 6.34375 z M 13.3125 8.15625 A 1.0001 1.0001 0 0 0 12.8125 9.875 L 19.875 16.9375 A 1.0054782 1.0054782 0 1 0 21.3125 15.53125 L 14.21875 8.46875 A 1.0001 1.0001 0 0 0 13.40625 8.15625 A 1.0001 1.0001 0 0 0 13.3125 8.15625 z M 24.84375 9.15625 L 22.71875 11.28125 L 24.125 12.6875 L 26.25 10.5625 L 24.84375 9.15625 z M 11.3125 10.25 A 1.0001 1.0001 0 0 0 11.1875 10.28125 A 1.0001 1.0001 0 0 0 10.6875 12 L 19.09375 20.375 C 19.716973 20.998223 20 21.736174 20 22.59375 A 1.0001 1.0001 0 0 0 20 22.6875 L 20 28 L 22 28 L 22 22.75 A 1.0001 1.0001 0 0 0 22 22.59375 C 22 21.251326 21.476777 19.945527 20.5 18.96875 L 12.125 10.59375 A 1.0001 1.0001 0 0 0 11.3125 10.25 z M 10 12.6875 L 9.28125 13.40625 C 7.580054 15.107446 7.380353 17.750907 8.65625 19.6875 L 5.75 22.59375 L 7.15625 24 L 10.0625 21.09375 C 11.999093 22.369647 14.642554 22.169946 16.34375 20.46875 L 17.0625 19.78125 L 15.65625 18.34375 L 14.9375 19.0625 C 13.757724 20.242276 11.867276 20.242276 10.6875 19.0625 C 9.507724 17.882724 9.507724 15.992276 10.6875 14.8125 L 11.40625 14.125 L 10 12.6875 z M 12.8125 15.53125 L 11.40625 16.9375 C 11.01525 17.3285 11.01525 17.95375 11.40625 18.34375 C 11.79725 18.73475 12.4225 18.73475 12.8125 18.34375 L 14.21875 16.9375 L 12.8125 15.53125 z" fill="#000000"/></svg>
