<?xml version="1.0" encoding="utf-8"?>
<svg xmlns="http://www.w3.org/2000/svg" viewBox="0 0 32 32" fill="#000000"><path d="M 16 3 C 8.8 3 3 8.8 3 16 C 3 22.5 7.8 27.9125 14 28.8125 L 14 27.8125 C 8.3 26.9125 4 21.9 4 16 C 4 9.4 9.4 4 16 4 C 22.6 4 28 9.4 28 16 C 28 21.9 23.7 26.9125 18 27.8125 L 18 28.8125 C 24.2 27.8125 29 22.5 29 16 C 29 8.8 23.2 3 16 3 z M 16 5 C 9.9 5 5 9.9 5 16 C 5 21.4 8.9 25.9125 14 26.8125 L 14 25.8125 C 9.4 24.9125 6 20.8 6 16 C 6 10.5 10.5 6 16 6 C 21.5 6 26 10.5 26 16 C 26 20.8 22.6 24.9125 18 25.8125 L 18 26.8125 C 23.1 25.9125 27 21.4 27 16 C 27 9.9 22.1 5 16 5 z M 16 7 C 11 7 7 11 7 16 C 7 20.3 10 23.9125 14 24.8125 L 14 23.8125 C 10.6 22.9125 8 19.79375 8 16.09375 C 8 11.69375 11.6 8.09375 16 8.09375 C 20.4 8.09375 24 11.69375 24 16.09375 C 24 19.79375 21.4 22.9125 18 23.8125 L 18 24.8125 C 22 23.9125 25 20.3 25 16 C 25 11 21 7 16 7 z M 16 9 C 12.1 9 9 12.1 9 16 C 9 19.2 11.1 21.7875 14 22.6875 L 14 21.59375 C 11.7 20.79375 10 18.6 10 16 C 10 12.7 12.7 10 16 10 C 19.3 10 22 12.7 22 16 C 22 18.6 20.3 20.79375 18 21.59375 L 18 22.6875 C 20.9 21.7875 23 19.2 23 16 C 23 12.1 19.9 9 16 9 z M 16 11 C 13.2 11 11 13.2 11 16 C 11 18 12.2 19.79375 14 20.59375 L 14 19.5 C 12.8 18.8 12 17.49375 12 16.09375 C 12 13.89375 13.8 12.09375 16 12.09375 C 18.2 12.09375 20 13.89375 20 16.09375 C 20 17.59375 19.2 18.8 18 19.5 L 18 20.59375 C 19.8 19.79375 21 18 21 16 C 21 13.2 18.8 11 16 11 z M 16 14 C 14.895431 14 14 14.895431 14 16 C 14 17.104569 14.895431 18 16 18 C 17.104569 18 18 17.104569 18 16 C 18 14.895431 17.104569 14 16 14 z" fill="#000000"/></svg>
