<?xml version="1.0" encoding="utf-8"?>
<svg xmlns="http://www.w3.org/2000/svg" viewBox="0 0 32 32" fill="#000000"><path d="M 10 4 L 2 8 L 2 28 L 10 24 L 20 28 L 30 24 L 30 4 L 20 8 L 10 4 z M 10.091797 6.1914062 L 19.257812 9.8574219 L 20 10.154297 L 20.742188 9.8574219 L 28 6.953125 L 28 22.646484 L 20 25.845703 L 10.742188 22.142578 L 9.9082031 21.808594 L 9.1054688 22.210938 L 4 24.763672 L 4 9.2363281 L 10.091797 6.1914062 z M 14 11 A 1 1 0 0 0 13 12 A 1 1 0 0 0 14 13 A 1 1 0 0 0 15 12 A 1 1 0 0 0 14 11 z M 11 12 A 1 1 0 0 0 10 13 A 1 1 0 0 0 11 14 A 1 1 0 0 0 12 13 A 1 1 0 0 0 11 12 z M 17 12 A 1 1 0 0 0 16 13 A 1 1 0 0 0 17 14 A 1 1 0 0 0 18 13 A 1 1 0 0 0 17 12 z M 9 14 A 1 1 0 0 0 8 15 A 1 1 0 0 0 9 16 A 1 1 0 0 0 10 15 A 1 1 0 0 0 9 14 z M 20 14 A 1 1 0 0 0 19 15 A 1 1 0 0 0 20 16 A 1 1 0 0 0 21 15 A 1 1 0 0 0 20 14 z M 22.707031 16.292969 L 21.292969 17.707031 L 22.585938 19 L 21.292969 20.292969 L 22.707031 21.707031 L 24 20.414062 L 25.292969 21.707031 L 26.707031 20.292969 L 25.414062 19 L 26.707031 17.707031 L 25.292969 16.292969 L 24 17.585938 L 22.707031 16.292969 z M 8 17 A 1 1 0 0 0 7 18 A 1 1 0 0 0 8 19 A 1 1 0 0 0 9 18 A 1 1 0 0 0 8 17 z" fill="#000000"/></svg>
