<?xml version="1.0" encoding="utf-8"?>
<svg xmlns="http://www.w3.org/2000/svg" viewBox="0 0 32 32" fill="#000000"><path style="text-indent:0;text-align:start;line-height:normal;text-transform:none;block-progression:tb;-inkscape-font-specification:Bitstream Vera Sans" d="M 16 4 C 12.709265 4 10.260787 4.8081845 8.84375 5.4375 C 7.7041091 5.9429981 6.9954716 7.1193654 7.0625 8.34375 L 7.90625 23.15625 C 7.9942008 24.736383 9.3243578 26 10.90625 26 L 15 26 L 15 28 L 17 28 L 17 26 L 21.09375 26 C 22.675642 26 24.005799 24.736383 24.09375 23.15625 L 24.9375 8.34375 C 25.006099 7.1179243 24.293935 5.9436415 23.15625 5.4375 C 21.739213 4.8081845 19.290735 4 16 4 z M 16 6 C 18.963265 6 21.130787 6.7425655 22.34375 7.28125 C 22.712065 7.4451085 22.960901 7.8005757 22.9375 8.21875 L 22.375 18 L 9.625 18 L 9.0625 8.21875 C 9.0395284 7.7991346 9.2586409 7.4437519 9.625 7.28125 L 9.65625 7.28125 C 10.869213 6.7425655 13.036735 6 16 6 z M 16 8.25 L 15.1875 9.4375 C 15.1875 9.4375 14.648271 10.191762 14.125 11.09375 C 13.863365 11.544744 13.617717 12.018647 13.40625 12.5 C 13.194783 12.981353 13 13.422091 13 14 C 13 15.64497 14.35503 17 16 17 C 17.64497 17 19 15.64497 19 14 C 19 13.422091 18.805217 12.981353 18.59375 12.5 C 18.382283 12.018647 18.136635 11.544744 17.875 11.09375 C 17.351729 10.191762 16.8125 9.4375 16.8125 9.4375 L 16 8.25 z M 16 11.875 C 16.0657 11.983782 16.05813 11.978489 16.125 12.09375 C 16.363365 12.504631 16.617717 12.940259 16.78125 13.3125 C 16.944783 13.684741 17 14.025409 17 14 C 17 14.56503 16.56503 15 16 15 C 15.43497 15 15 14.56503 15 14 C 15 14.02541 15.05522 13.684741 15.21875 13.3125 C 15.382283 12.940259 15.636635 12.504631 15.875 12.09375 C 15.94187 11.978489 15.9343 11.983782 16 11.875 z M 9.71875 20 L 22.28125 20 L 22.09375 23.0625 C 22.0637 23.602367 21.633858 24 21.09375 24 L 10.90625 24 C 10.366142 24 9.9362992 23.602367 9.90625 23.0625 L 9.71875 20 z M 11.78125 21 L 11.875 23 L 15 23 L 15 21 L 11.78125 21 z M 17 21 L 17 23 L 20.125 23 L 20.21875 21 L 17 21 z" overflow="visible" font-family="Bitstream Vera Sans" fill="#000000"/></svg>
