<?xml version="1.0" encoding="utf-8"?>
<svg xmlns="http://www.w3.org/2000/svg" viewBox="0 0 32 32" fill="#000000"><path style="text-indent:0;text-align:start;line-height:normal;text-transform:none;block-progression:tb;-inkscape-font-specification:Bitstream Vera Sans" d="M 22 4 C 20.354991 4 19 5.3549901 19 7 C 19 8.6450099 20.354991 10 22 10 C 23.645009 10 25 8.6450099 25 7 C 25 5.3549901 23.645009 4 22 4 z M 11.53125 5.15625 L 9.875 6.28125 L 12.1875 9.6875 C 12.461192 10.089048 12.869555 10.379442 13.34375 10.5 L 15.53125 11.0625 L 12.34375 14.15625 C 11.621954 14.857945 11.48598 15.976685 12 16.84375 L 13.34375 19.15625 L 12.40625 20.21875 L 9.71875 23.21875 C 10.39375 23.36775 11.158 23.50325 12 23.65625 L 13.90625 21.5625 L 15.34375 19.9375 L 15.8125 19.40625 L 15.46875 18.78125 L 13.71875 15.84375 C 13.67077 15.76281 13.6818 15.660055 13.75 15.59375 L 17.75 11.6875 L 18.6875 12.46875 L 16.125 15.15625 C 15.397883 15.911105 15.383806 17.134831 16.09375 17.90625 L 17.625 19.59375 L 17.53125 20.9375 L 17.25 24.4375 C 17.887 24.5075 18.561 24.564 19.25 24.625 L 19.53125 21.09375 L 19.65625 19.28125 L 19.6875 18.875 L 19.40625 18.53125 L 17.5625 16.5625 L 20.25 13.75 L 24.625 17.40625 L 25.90625 15.84375 L 18.71875 9.90625 L 18.5625 9.75 L 18.34375 9.71875 L 13.84375 8.5625 L 11.53125 5.15625 z M 22 6 C 22.564129 6 23 6.4358709 23 7 C 23 7.5641291 22.564129 8 22 8 C 21.435871 8 21 7.5641291 21 7 C 21 6.4358709 21.435871 6 22 6 z M 5.34375 23.0625 L 4.65625 24.9375 C 4.65625 24.9375 5.5331466 25.245026 7.09375 25.65625 C 6.9602107 25.720037 6.8333529 25.766856 6.6875 25.8125 C 6.1040883 25.995075 5.4621807 26 5 26 L 5 28 C 5.4888193 28 6.3484117 28.01067 7.28125 27.71875 C 8.0306301 27.484237 8.8589478 27.005053 9.46875 26.21875 C 13.375879 27.059123 19.570346 28 28 28 L 28 26 C 13.097014 26 5.34375 23.0625 5.34375 23.0625 z" overflow="visible" font-family="Bitstream Vera Sans" fill="#000000"/></svg>
