<?xml version="1.0" encoding="utf-8"?>
<svg xmlns="http://www.w3.org/2000/svg" viewBox="0 0 32 32" fill="#000000"><path style="text-indent:0;text-align:start;line-height:normal;text-transform:none;block-progression:tb;-inkscape-font-specification:Sans" d="M 9 2 L 9 4 L 14.28125 4 L 14.65625 5.09375 C 10.334776 5.7481445 7 9.5002612 7 14 L 7 15 L 8 15 L 8.125 15 L 10 29.125 L 10.125 30 L 11 30 L 21 30 L 21.875 30 L 22 29.125 L 23.875 15 L 24 15 L 25 15 L 25 14 C 25 9.2873486 21.337669 5.4048648 16.71875 5.03125 L 15.9375 2.6875 L 15.71875 2 L 15 2 L 9 2 z M 16 7 C 19.520095 7 22.276957 9.6245079 22.78125 13 L 9.21875 13 C 9.7230432 9.6245079 12.479905 7 16 7 z M 10.15625 15 L 21.84375 15 L 21.59375 17 L 19 17 L 19 19 L 21.3125 19 L 20.125 28 L 11.875 28 L 10.6875 19 L 17 19 L 17 17 L 10.40625 17 L 10.15625 15 z" overflow="visible" font-family="Sans" fill="#000000"/></svg>
