<?xml version="1.0" encoding="utf-8"?>
<svg xmlns="http://www.w3.org/2000/svg" viewBox="0 0 32 32" fill="#000000"><path style="text-indent:0;text-align:start;line-height:normal;text-transform:none;block-progression:tb;-inkscape-font-specification:Sans" d="M 13.03125 5 C 11.38624 5 10.03125 6.3549907 10.03125 8 C 10.03125 9.0281308 10.545167 9.9584492 11.34375 10.5 C 10.545188 11.041459 10.03125 11.971591 10.03125 13 L 10.03125 17.53125 L 8.5625 19 L 7 19 C 4.8026661 19 3 20.802666 3 23 C 3 25.197334 4.8026661 27 7 27 L 7.03125 27 L 11 27 L 11.40625 27 L 11.71875 26.71875 L 23.4375 15 L 25 15 C 27.197334 15 29 13.197334 29 11 C 29 8.8026661 27.197334 7 25 7 L 21 7 L 20.59375 7 L 20.28125 7.28125 L 15.75 11.8125 C 15.519332 11.29126 15.186576 10.817206 14.71875 10.5 C 15.517334 9.9584493 16.03125 9.0281312 16.03125 8 C 16.03125 6.3549901 14.676259 5 13.03125 5 z M 13.03125 7 C 13.595379 7 14.03125 7.4358709 14.03125 8 C 14.03125 8.5641291 13.595379 9 13.03125 9 C 12.46712 9 12.03125 8.5641297 12.03125 8 C 12.03125 7.4358703 12.46712 7 13.03125 7 z M 21.4375 9 L 25 9 C 26.116666 9 27 9.8833339 27 11 C 27 12.116666 26.116666 13 25 13 L 23 13 L 22.59375 13 L 22.28125 13.28125 L 10.5625 25 L 7.03125 25 L 7 25 C 5.8833339 25 5 24.116666 5 23 C 5 21.883334 5.8833339 21 7 21 L 9 21 L 9.40625 21 L 9.71875 20.71875 L 21.4375 9 z M 13.03125 12 C 13.585795 12 14.03125 12.445455 14.03125 13 L 14.03125 13.53125 L 12.03125 15.53125 L 12.03125 13 C 12.03125 12.445455 12.476705 12 13.03125 12 z M 21 19 L 22.78125 20.78125 L 18.28125 25.28125 L 19.71875 26.71875 L 24.21875 22.21875 L 26 24 L 26 19 L 21 19 z" overflow="visible" font-family="Sans" fill="#000000"/></svg>
