<?xml version="1.0" encoding="utf-8"?>
<svg xmlns="http://www.w3.org/2000/svg" viewBox="0 0 32 32" fill="#000000"><path style="text-indent:0;text-align:start;line-height:normal;text-transform:none;block-progression:tb;-inkscape-font-specification:Bitstream Vera Sans" d="M 9 7 C 6.2504839 7 4 9.2504839 4 12 L 4 24 L 4 25 L 5 25 L 16 25 L 16 29 L 18 29 L 18 25 L 27 25 L 28 25 L 28 24 L 28 12 C 28 9.2504839 25.749516 7 23 7 L 9 7 z M 9 9 C 10.668484 9 12 10.331516 12 12 L 12 23 L 6 23 L 6 12 C 6 10.331516 7.3315161 9 9 9 z M 12.96875 9 L 23 9 C 24.668484 9 26 10.331516 26 12 L 26 23 L 14 23 L 14 12 C 14 10.867515 13.609952 9.8407794 12.96875 9 z M 17 11 L 17 13 L 22 13 L 22 15 L 24 15 L 24 12 L 24 11 L 23 11 L 17 11 z M 7 13 L 7 15 L 11 15 L 11 13 L 7 13 z" overflow="visible" font-family="Bitstream Vera Sans" fill="#000000"/></svg>
